<?xml version="1.0" standalone="no"?>
<!DOCTYPE svg PUBLIC "-//W3C//DTD SVG 1.1//EN" "http://www.w3.org/Graphics/SVG/1.1/DTD/svg11.dtd" >
<svg xmlns="http://www.w3.org/2000/svg" xmlns:xlink="http://www.w3.org/1999/xlink" version="1.1">
<metadata>
Created by FontForge 20170731 at Sun Mar  3 17:08:29 2019
 By Aleksey,,,
Copyright 2011-2019 Matthew Butterick
</metadata>
<defs>
<font id="EquityCapsA" horiz-adv-x="740" >
  <font-face 
    font-family="Equity Caps A"
    font-weight="400"
    font-variant="small-caps"
    font-stretch="normal"
    units-per-em="1000"
    panose-1="0 0 0 0 0 0 0 0 0 0"
    ascent="744"
    descent="-256"
    x-height="518"
    cap-height="706"
    bbox="-72 -245 1049 934"
    underline-thickness="50"
    underline-position="-175"
    unicode-range="U+000D-FB02"
  />
<missing-glyph horiz-adv-x="540" 
d="M20 0v700h500v-700h-500zM70 650v-600h400v600h-400zM189 138q0 19 13 32t32 13t32 -13t13 -32t-13 -32t-32 -13t-32 13t-13 32zM219 240v147q62 -8 94.5 17t32.5 70q0 32 -21.5 50.5t-61.5 18.5q-68 0 -68 36q0 16 11.5 26t32.5 10q50 0 94.5 -47t44.5 -119
q0 -67 -39 -99.5t-90 -28.5v-81h-30z" />
    <glyph glyph-name="uni2190" unicode="&#x3c;&#x2d;" horiz-adv-x="700" 
d="M74 272l237 264l61 -46l-163 -183h420v-84h-420l163 -183l-61 -47l-237 266v13z" />
    <glyph glyph-name="uni2192" unicode="&#x2d;&#x3e;" horiz-adv-x="700" 
d="M389 536l237 -264v-13l-237 -266l-61 47l163 183h-420v84h420l-163 183z" />
    <glyph glyph-name="fi" unicode="fi" horiz-adv-x="944" 
d="M69 518h412l14 -124h-43l-53 75h-159v-179h101l27 57h32v-167h-32l-27 63h-101v-190l75 -15v-38h-246v38l72 15v412l-72 15v38zM623 518h242v-38l-71 -15v-412l71 -15v-38h-242v38l72 15v412l-72 15v38z" />
    <glyph glyph-name="fl" unicode="fl" horiz-adv-x="1093" 
d="M69 518h412l14 -124h-43l-53 75h-159v-179h101l27 57h32v-167h-32l-27 63h-101v-190l75 -15v-38h-246v38l72 15v412l-72 15v38zM1028 0h-415v38l72 15v412l-72 15v38h246v-38l-75 -15v-416h155l67 97h43z" />
    <glyph glyph-name="uni2190.circle" unicode="&#x28;&#x3c;&#x2d;&#x29;" horiz-adv-x="880" 
d="M399 536l-237 -264v-13l237 -266l61 47l-163 183h420v84h-420l163 183zM822 263q0 -157 -111.5 -268.5t-268.5 -111.5q-159 0 -271.5 111.5t-112.5 268.5q0 159 112.5 271t271.5 112q157 0 268.5 -112t111.5 -271z" />
    <glyph glyph-name="uni2192.circle" unicode="&#x28;&#x2d;&#x3e;&#x29;" horiz-adv-x="880" 
d="M718 272l-237 264l-61 -46l163 -183h-420v-84h420l-163 -183l61 -47l237 266v13zM58 263q0 159 111.5 271t268.5 112q159 0 271.5 -112t112.5 -271q0 -157 -112.5 -268.5t-271.5 -111.5q-157 0 -268.5 111.5t-111.5 268.5z" />
    <glyph glyph-name="uni2191.circle" unicode="&#x28;&#x2191;&#x29;" horiz-adv-x="880" 
d="M711 305l-264 237h-13l-266 -237l47 -61l183 163v-420h84v420l183 -163zM438 -118q-157 0 -268.5 111.5t-111.5 268.5q0 159 111.5 271.5t268.5 112.5q159 0 271.5 -112.5t112.5 -271.5q0 -157 -112.5 -268.5t-271.5 -111.5z" />
    <glyph glyph-name="uni2193.circle" unicode="&#x28;&#x2193;&#x29;" horiz-adv-x="880" 
d="M447 -14l264 237l-46 61l-183 -163v420h-84v-420l-183 163l-47 -61l266 -237h13zM438 646q159 0 271.5 -111.5t112.5 -268.5q0 -159 -112.5 -271.5t-271.5 -112.5q-157 0 -268.5 112.5t-111.5 271.5q0 157 111.5 268.5t268.5 111.5z" />
    <glyph glyph-name=".notdef" horiz-adv-x="540" 
d="M20 0v700h500v-700h-500zM70 650v-600h400v600h-400zM189 138q0 19 13 32t32 13t32 -13t13 -32t-13 -32t-32 -13t-32 13t-13 32zM219 240v147q62 -8 94.5 17t32.5 70q0 32 -21.5 50.5t-61.5 18.5q-68 0 -68 36q0 16 11.5 26t32.5 10q50 0 94.5 -47t44.5 -119
q0 -67 -39 -99.5t-90 -28.5v-81h-30z" />
    <glyph glyph-name=".null" horiz-adv-x="0" 
 />
    <glyph glyph-name="nonmarkingreturn" horiz-adv-x="333" 
 />
    <glyph glyph-name="NULL" horiz-adv-x="0" 
 />
    <glyph glyph-name="NULL" horiz-adv-x="0" 
 />
    <glyph glyph-name="CR" unicode="&#xd;" horiz-adv-x="280" 
 />
    <glyph glyph-name="space" unicode=" " horiz-adv-x="280" 
 />
    <glyph glyph-name="exclam" unicode="!" horiz-adv-x="423" 
d="M147 57q0 27 18.5 46t45.5 19t46 -19t19 -46t-19 -45.5t-46 -18.5t-45.5 18.5t-18.5 45.5zM151 734h120l-40 -524h-40z" />
    <glyph glyph-name="quotedbl" unicode="&#x22;" horiz-adv-x="448" 
d="M83 436l18 236q2 37 15.5 55.5t41.5 12.5l23 -5q21 -5 26 -28t-8 -60l-78 -220zM262 436l18 236q2 37 15.5 55.5t41.5 12.5l23 -5q21 -5 26 -28t-8 -60l-78 -220z" />
    <glyph glyph-name="numbersign" unicode="#" horiz-adv-x="557" 
d="M90 473h111l44 213h60l-44 -213h100l44 213h60l-44 -213h96v-74h-111l-37 -176h98v-74h-113l-49 -236h-60l49 236h-100l-49 -236h-60l49 236h-94v74h109l37 176h-96v74zM246 399l-37 -176h100l37 176h-100z" />
    <glyph glyph-name="dollar" unicode="$" horiz-adv-x="566" 
d="M309 738v-102q43 -5 97 -32l32 15h20l15 -178h-33q-37 128 -131 147v-223q90 -33 133.5 -79t43.5 -115q0 -82 -48.5 -128t-128.5 -53v-108h-45v107q-69 5 -111 39l-28 -16h-30l-15 184h39q30 -151 145 -161v247q-92 34 -133 78t-41 107q0 61 48 113t126 57v101h45z
M399 139q0 41 -19.5 71.5t-70.5 54.5v-229q90 12 90 103zM176 490q0 -65 88 -107v207q-88 -8 -88 -100z" />
    <glyph glyph-name="percent" unicode="%" horiz-adv-x="576" 
d="M305 517l-3 -1q-1 -82 -44 -135.5t-100 -53.5q-48 0 -78 36t-30 91q0 74 47 129t101 55q34 0 59.5 -18.5t36.5 -51.5q6 -15 25 -24.5t42 -9.5q48 0 84 31q24 67 55 67q24 0 24 -23q0 -30 -44 -61l-210 -286l-197 -282l-33 26l205 275l159 227l-2 2q-21 -12 -48 -12
q-30 0 -49 19zM274 115q0 74 47 129t101 55q46 0 75 -32t29 -86q0 -86 -44 -139.5t-98 -53.5q-49 0 -79.5 36t-30.5 91zM439 254q-33 0 -62 -52.5t-29 -113.5q0 -28 11.5 -43.5t29.5 -15.5q34 0 62 41.5t28 120.5q0 30 -11.5 46.5t-28.5 16.5zM215 593q-33 0 -62 -52.5
t-29 -113.5q0 -59 43 -59q33 0 60.5 42.5t27.5 119.5q0 30 -11.5 46.5t-28.5 16.5z" />
    <glyph glyph-name="ampersand" unicode="&#x26;" horiz-adv-x="817" 
d="M496 568q0 -47 -35.5 -82.5t-98.5 -71.5q95 -86 160 -181q41 63 82 154l-71 15v36h194v-36l-70 -15q-56 -115 -109 -193q40 -65 71 -132q8 -18 22 -18q11 0 21 9t31 37l27 -18q-40 -84 -103 -84q-36 0 -60 35l-65 96q-109 -131 -210 -131q-74 0 -129.5 62t-55.5 141
q0 75 36 119.5t123 86.5q-70 73 -70 142q0 44 59 96t111 52q48 0 94 -43t46 -76zM282 372h-1q-90 -47 -90 -132q0 -84 45 -130.5t91 -46.5q60 0 139 94q-90 130 -184 215zM261 562q0 -48 73 -121q77 55 77 116q0 33 -20.5 60t-45.5 27q-27 0 -55.5 -26.5t-28.5 -55.5z" />
    <glyph glyph-name="quotesingle" unicode="'" horiz-adv-x="269" 
d="M83 436l18 236q2 37 15.5 55.5t41.5 12.5l23 -5q21 -5 26 -28t-8 -60l-78 -220z" />
    <glyph glyph-name="parenleft" unicode="(" horiz-adv-x="442" 
d="M381 -208l-29 -34q-241 220 -241 505q0 148 63 264t177 220l30 -39q-180 -183 -180 -445q0 -301 180 -471z" />
    <glyph glyph-name="parenright" unicode=")" horiz-adv-x="442" 
d="M90 -242l-29 34q180 170 180 471q0 262 -180 445l30 39q114 -104 177 -220t63 -264q0 -285 -241 -505z" />
    <glyph glyph-name="asterisk" unicode="*" horiz-adv-x="566" 
d="M306 543q49 -24 120 -44q35 -9 28 -40q-6 -27 -30 -36q-21 -7 -38 10q-63 66 -93 85q5 -56 25 -124q10 -32 -20 -43q-27 -9 -44 9q-12 14 -8 34q21 96 23 124q-47 -29 -93 -85q-20 -23 -46 -2q-24 19 -18 43q4 16 26 23q84 26 119 46q-51 22 -119 37q-30 5 -26 36
q4 28 27 36q18 7 35 -9q67 -60 95 -80q-7 52 -26 121q-10 34 21 45q28 9 47 -9q13 -14 7 -36q-2 -10 -9.5 -37t-11.5 -46t-6 -38q47 31 95 80q26 28 50 4q20 -21 12 -46q-6 -17 -24 -21q-9 -2 -28 -6.5t-30.5 -7.5t-28.5 -9t-31 -14z" />
    <glyph glyph-name="plus" unicode="+" horiz-adv-x="540" 
d="M472 210h-171v-171h-62v171h-171v62h171v171h62v-171h171v-62z" />
    <glyph glyph-name="comma" unicode="," horiz-adv-x="357" 
d="M107 74q0 19 16.5 35.5t45.5 16.5q41 0 68 -38t27 -100q0 -72 -40 -125.5t-89 -81.5l-28 42q84 59 84 130q0 23 -13 39t-29 24t-29 23t-13 35z" />
    <glyph glyph-name="hyphen" unicode="-" horiz-adv-x="404" 
d="M77 278h250v-73h-250v73z" />
    <glyph glyph-name="period" unicode="." horiz-adv-x="343" 
d="M107 57q0 27 18.5 46t45.5 19t46 -19t19 -46t-19 -45.5t-46 -18.5t-45.5 18.5t-18.5 45.5z" />
    <glyph glyph-name="slash" unicode="/" horiz-adv-x="550" 
d="M463 734l-300 -856h-76l300 856h76z" />
    <glyph glyph-name="zero" unicode="0" horiz-adv-x="545" 
d="M50 298q0 167 64.5 253.5t164.5 86.5q96 0 156 -87t60 -253q0 -152 -60 -231t-156 -79q-101 0 -165 78.5t-64 231.5zM155 299q0 -140 35 -204t89 -64q49 0 80.5 65t31.5 203q0 150 -31.5 223t-80.5 73q-53 0 -88.5 -76t-35.5 -220z" />
    <glyph glyph-name="one" unicode="1" horiz-adv-x="427" 
d="M55 542v42q93 2 170 50l50 -5v-574l103 -15v-40h-300v40l103 15v492q-75 -18 -126 -5z" />
    <glyph glyph-name="two" unicode="2" horiz-adv-x="524" 
d="M345 462q0 39 -25 67t-67 28q-40 0 -74 -24t-86 -81l-30 32q111 154 226 154q73 0 114 -41.5t41 -103.5q0 -76 -85.5 -194.5t-168.5 -194.5l6 -14h211l45 63l33 -13l-56 -140h-371l-12 32q43 34 90.5 82.5t96.5 108t80.5 124t31.5 115.5z" />
    <glyph glyph-name="three" unicode="3" horiz-adv-x="473" 
d="M396 526q0 -47 -34 -88t-80 -70v-10q55 -14 96 -66t41 -116q0 -87 -65.5 -137.5t-143.5 -50.5q-81 0 -127 26t-46 68q0 19 13.5 34t38.5 15q23 0 41 -14.5t29 -32.5t30 -32.5t44 -14.5q35 0 64.5 29.5t29.5 83.5q0 49 -27.5 87.5t-58 53.5t-46.5 7l-36 -20l-23 35
q77 39 124 85.5t47 92.5q0 35 -20.5 53t-55.5 18q-82 0 -146 -87l-28 30q97 133 220 133q50 0 84.5 -31t34.5 -81z" />
    <glyph glyph-name="four" unicode="4" horiz-adv-x="524" 
d="M361 646l44 -17v-377h81v-67h-81v-185h-93v184h-249l-16 37zM312 488l-11 6l-167 -232l5 -10h173v236z" />
    <glyph glyph-name="five" unicode="5" horiz-adv-x="476" 
d="M89 337l28 289h240l26 39h39l-23 -129h-241l-11 -122l8 -8q21 8 65 8q77 0 137 -54t60 -145q0 -103 -72.5 -165t-189.5 -62q-48 0 -81.5 18t-33.5 46q0 22 13 36t38 14q30 0 71.5 -26t80.5 -26q37 0 64.5 32t27.5 93q0 70 -42.5 112.5t-106.5 42.5q-48 0 -79 -11z" />
    <glyph glyph-name="six" unicode="6" horiz-adv-x="505" 
d="M167 368l16 -8q45 38 115 38q62 0 113.5 -48.5t51.5 -142.5q0 -39 -11.5 -76t-35.5 -70t-66.5 -53t-98.5 -20q-88 0 -143.5 68t-55.5 192q0 137 89.5 255t240.5 168l10 -35q-194 -97 -225 -268zM161 278q-7 -31 -7 -83q0 -70 29 -114t72 -44q50 0 78 47.5t28 126.5
q0 67 -27.5 101t-68.5 34q-70 0 -104 -68z" />
    <glyph glyph-name="seven" unicode="7" horiz-adv-x="471" 
d="M422 626l19 -26q-167 -357 -217 -575q-9 -37 -65 -37q-25 0 -39 10t-7 28q87 243 247 496l-7 14h-242l-32 -78h-45l46 168h342z" />
    <glyph glyph-name="eight" unicode="8" horiz-adv-x="524" 
d="M67 141q0 59 32 96t87 67v9q-48 25 -75 66.5t-27 87.5q0 70 51 120.5t136 50.5q75 0 124.5 -40t49.5 -103q0 -44 -26 -79t-81 -70v-8q56 -32 87.5 -69.5t31.5 -99.5q0 -83 -54.5 -132t-144.5 -49q-84 0 -137.5 42t-53.5 111zM143 139q0 -48 28.5 -78t86.5 -30
q54 0 86.5 31.5t32.5 82.5q0 46 -34.5 76.5t-103.5 63.5q-43 -21 -69.5 -59.5t-26.5 -86.5zM163 499q0 -47 32.5 -78.5t94.5 -56.5q74 47 74 128q0 48 -27.5 75.5t-72.5 27.5q-47 0 -74 -28.5t-27 -67.5z" />
    <glyph glyph-name="nine" unicode="9" horiz-adv-x="505" 
d="M343 251l-16 8q-49 -41 -105 -41q-74 0 -127 53.5t-53 147.5q0 101 64 160t143 59q91 0 147.5 -70.5t56.5 -189.5q0 -161 -98 -280t-258 -138v40q97 22 166 87.5t80 163.5zM344 341q11 46 11 100q0 69 -28 110t-82 41q-48 0 -74 -42.5t-26 -124.5q0 -156 100 -156
q32 0 55 18t44 54z" />
    <glyph glyph-name="colon" unicode=":" horiz-adv-x="343" 
d="M107 57q0 27 18.5 46t45.5 19t46 -19t19 -46t-19 -45.5t-46 -18.5t-45.5 18.5t-18.5 45.5zM107 368q0 27 18.5 46t45.5 19t46 -19t19 -46t-19 -45.5t-46 -18.5t-45.5 18.5t-18.5 45.5z" />
    <glyph glyph-name="semicolon" unicode=";" horiz-adv-x="397" 
d="M127 74q0 19 16.5 35.5t45.5 16.5q41 0 68 -38t27 -100q0 -72 -40 -125.5t-89 -81.5l-28 42q84 59 84 130q0 23 -13 39t-29 24t-29 23t-13 35zM132 368q0 27 18.5 46t45.5 19t46 -19t19 -46t-19 -45.5t-46 -18.5t-45.5 18.5t-18.5 45.5z" />
    <glyph glyph-name="less" unicode="&#x3c;" horiz-adv-x="540" 
d="M472 375l-328 -134l328 -134v-67l-404 170v62l404 170v-67z" />
    <glyph glyph-name="equal" unicode="=" horiz-adv-x="540" 
d="M472 137h-404v62h404v-62zM472 287h-404v62h404v-62z" />
    <glyph glyph-name="greater" unicode="&#x3e;" horiz-adv-x="540" 
d="M396 241l-328 134v67l404 -170v-62l-404 -170v67z" />
    <glyph glyph-name="question" unicode="?" horiz-adv-x="493" 
d="M125 57q0 27 18.5 46t45.5 19t46 -19t19 -46t-19 -45.5t-46 -18.5t-45.5 18.5t-18.5 45.5zM167 204v211q90 -11 136.5 25t46.5 100q0 47 -30.5 73.5t-88.5 26.5q-98 0 -98 51q0 23 16.5 37.5t46.5 14.5q72 0 136 -67.5t64 -170.5q0 -97 -56.5 -144t-129.5 -40v-117h-43z
" />
    <glyph glyph-name="at" unicode="@" horiz-adv-x="906" 
d="M744 390q0 35 -9 71.5t-29.5 75t-62.5 63t-99 24.5q-96 0 -181 -72.5t-133.5 -185.5t-48.5 -230q0 -118 43.5 -177t122.5 -59q89 0 167 63l21 -42q-44 -35 -97.5 -54.5t-99.5 -19.5q-114 0 -172.5 76t-58.5 214q0 92 35 187t93 171t141 124.5t171 48.5q123 0 195.5 -76.5
t72.5 -201.5q0 -84 -32.5 -154.5t-80 -111.5t-95.5 -63.5t-85 -22.5q-34 0 -37.5 34t22.5 93l-13 9q-19 -28 -34.5 -47t-38 -42.5t-47 -36t-48.5 -12.5q-29 0 -45 24.5t-16 56.5q0 82 59 183q46 77 106.5 128.5t115.5 51.5q29 0 42 -28h5q6 16 13.5 21.5t27.5 5.5t27 -4
t4 -12l-108 -331q-7 -31 13 -31q18 0 46 20t57 54t50 92t21 123zM345 150q0 -44 24 -44q34 0 93.5 79t102.5 182q9 70 -29 70q-33 0 -70.5 -34.5t-67.5 -87.5q-53 -94 -53 -165z" />
    <glyph glyph-name="A" unicode="A" horiz-adv-x="748" 
d="M527 55l-69 189h-224l-64 -189l91 -15v-40h-224v40l75 15l224 651h65l234 -651l76 -15v-40h-264v40zM336 546l-83 -247h185l-86 247h-16z" />
    <glyph glyph-name="B" unicode="B" horiz-adv-x="703" 
d="M361 0h-292v40l88 15v596l-88 15v40h295q35 0 72.5 -8.5t75.5 -27t62 -54.5t24 -85q0 -46 -29.5 -88.5t-91.5 -58.5v-14q67 -14 108 -62.5t41 -119.5q0 -85 -72.5 -136.5t-192.5 -51.5zM514 197q0 63 -42.5 105t-121.5 42h-87v-289h107q69 0 106.5 40t37.5 102zM263 651
v-252h89q67 0 99.5 36t32.5 87q0 67 -38.5 98t-99.5 31h-83z" />
    <glyph glyph-name="C" unicode="C" horiz-adv-x="782" 
d="M430 43q83 0 142.5 41.5t85.5 117.5h32v-137q-65 -38 -125 -57.5t-146 -19.5q-148 0 -246 97t-98 267q0 164 106.5 265t261.5 101q112 0 239 -71v-141h-33q-29 84 -84.5 123t-121.5 39q-107 0 -179 -80.5t-72 -234.5q0 -147 72 -228.5t166 -81.5z" />
    <glyph glyph-name="D" unicode="D" horiz-adv-x="839" 
d="M360 0h-291v40l88 15v596l-88 15v40h301q183 0 288.5 -95t105.5 -261t-112 -258t-292 -92zM263 55h97q125 0 206 72.5t81 223.5q0 145 -76.5 222.5t-201.5 77.5h-106v-596z" />
    <glyph glyph-name="E" unicode="E" horiz-adv-x="687" 
d="M263 48h240l91 139h44l-36 -187h-533v40l88 15v596l-88 15v40h502l16 -157h-44l-71 109h-209v-259h137l32 94h40v-250h-40l-32 101h-137v-296z" />
    <glyph glyph-name="F" unicode="F" horiz-adv-x="676" 
d="M69 706h542l16 -157h-44l-73 109h-247v-259h167l32 104h40v-270h-40l-32 111h-167v-289l92 -15v-40h-286v40l88 15v596l-88 15v40z" />
    <glyph glyph-name="G" unicode="G" horiz-adv-x="815" 
d="M440 43q84 0 137 44v210l-117 15v40h300v-40l-77 -15v-252q-130 -57 -274 -57t-239 97t-95 267q0 164 106.5 265t261.5 101q112 0 239 -71v-141h-33q-29 84 -84.5 123t-121.5 39q-109 0 -180 -77.5t-71 -237.5q0 -158 69.5 -234t178.5 -76z" />
    <glyph glyph-name="H" unicode="H" horiz-adv-x="875" 
d="M524 706h282v-40l-88 -15v-596l88 -15v-40h-282v40l88 15v289h-349v-289l88 -15v-40h-282v40l88 15v596l-88 15v40h282v-40l-88 -15v-252h349v252l-88 15v40z" />
    <glyph glyph-name="I" unicode="I" horiz-adv-x="420" 
d="M69 706h282v-40l-88 -15v-596l88 -15v-40h-282v40l88 15v596l-88 15v40z" />
    <glyph glyph-name="J" unicode="J" horiz-adv-x="445" 
d="M175 -49v700l-106 15v40h307v-40l-95 -15v-604q0 -119 -78 -205.5t-164 -86.5q-41 0 -66.5 17t-25.5 51q0 26 16.5 41t42.5 15q20 0 48.5 -12.5t52.5 -12.5q68 0 68 97z" />
    <glyph glyph-name="K" unicode="K" horiz-adv-x="795" 
d="M276 326h-13v-271l87 -15v-40h-281v40l88 15v596l-88 15v40h281v-40l-87 -15v-271h16l271 271l-70 15v40h228v-40l-81 -15l-272 -272l322 -324l81 -15v-40h-291v40l71 15z" />
    <glyph glyph-name="L" unicode="L" horiz-adv-x="671" 
d="M598 0h-529v40l88 15v596l-88 15v40h286v-40l-92 -15v-603h226l101 149h44z" />
    <glyph glyph-name="M" unicode="M" horiz-adv-x="1008" 
d="M732 540h-15l-221 -540h-43l-208 541h-12l-38 -486l86 -15v-40h-224v40l85 15l48 588l-99 22v41h198l209 -529h17l218 529h199v-41l-99 -24l29 -586l89 -15v-40h-284v40l89 15z" />
    <glyph glyph-name="N" unicode="N" horiz-adv-x="843" 
d="M633 189h14v462l-88 15v40h230v-40l-87 -15v-653h-45l-455 559h-14v-502l88 -15v-40h-222v40l79 15v596l-79 15v40h159z" />
    <glyph glyph-name="O" unicode="O" horiz-adv-x="825" 
d="M75 352q0 165 97.5 265.5t240.5 100.5q149 0 243 -99t94 -267q0 -174 -96 -269t-241 -95t-241.5 97t-96.5 267zM192 353q0 -158 62.5 -235.5t158.5 -77.5q220 0 220 313q0 164 -59.5 239.5t-160.5 75.5q-97 0 -159 -77.5t-62 -237.5z" />
    <glyph glyph-name="P" unicode="P" horiz-adv-x="638" 
d="M320 307h-56v-252l97 -15v-40h-292v40l88 15v596l-88 15v40h256q47 0 90 -11.5t80.5 -34t60 -63t22.5 -92.5q0 -91 -69 -144.5t-189 -53.5zM264 649v-290h65q59 0 99 38t40 102q0 150 -148 150h-56z" />
    <glyph glyph-name="Q" unicode="Q" horiz-adv-x="825" 
d="M75 352q0 165 97.5 265.5t240.5 100.5q149 0 243 -99t94 -267q0 -138 -61.5 -227t-163.5 -121q19 -16 55.5 -50.5t57.5 -52.5t53.5 -34.5t63.5 -16.5q64 0 116 27l12 -25q-83 -59 -170 -59q-50 0 -101 23.5t-81 47.5t-77 68t-63 57q-137 7 -226.5 103t-89.5 260zM192 353
q0 -158 62.5 -235.5t158.5 -77.5q220 0 220 313q0 164 -59.5 239.5t-160.5 75.5q-97 0 -159 -77.5t-62 -237.5z" />
    <glyph glyph-name="R" unicode="R" horiz-adv-x="725" 
d="M404 340v-11q33 -16 67 -69t71 -115t72 -90l63 -15v-40h-151q-30 23 -63 74t-57.5 99t-59.5 92.5t-69 59.5h-14v-270l98 -15v-40h-292v40l88 15v596l-88 15v40h315q24 0 49 -4.5t53.5 -17.5t50.5 -32.5t36.5 -53.5t14.5 -77q0 -58 -45.5 -110.5t-138.5 -70.5zM263 651
v-271h69q71 0 106.5 42.5t35.5 95.5q0 133 -108 133h-103z" />
    <glyph glyph-name="S" unicode="S" horiz-adv-x="636" 
d="M83 7v212h44q21 -89 72.5 -135t124.5 -46q57 0 94 31.5t37 80.5q0 54 -32.5 93.5t-126.5 77.5q-102 41 -147.5 89.5t-45.5 123.5q0 69 60.5 126.5t156.5 57.5q64 0 142 -31l42 19h25l20 -205h-37q-26 80 -77 123t-110 43q-54 0 -89 -27t-35 -76q0 -48 42 -87t131 -74
t134 -84t45 -129q0 -96 -64 -149t-165 -53q-81 0 -147 39l-49 -20h-45z" />
    <glyph glyph-name="T" unicode="T" horiz-adv-x="762" 
d="M83 706h596l46 -197h-44l-101 149h-146v-603l92 -15v-40h-290v40l92 15v603h-146l-101 -149h-44z" />
    <glyph glyph-name="U" unicode="U" horiz-adv-x="832" 
d="M554 706h224v-40l-81 -15v-391q0 -45 -16 -90.5t-47.5 -87.5t-86.5 -68t-124 -26q-130 0 -205.5 74t-75.5 168v421l-88 15v40h282v-40l-88 -15v-406q0 -80 51.5 -133t143.5 -53q85 0 141.5 57.5t56.5 160.5v374l-87 15v40z" />
    <glyph glyph-name="V" unicode="V" horiz-adv-x="738" 
d="M397 169l166 482l-91 15v40h224v-40l-75 -15l-224 -651h-65l-214 651l-76 15v40h264v-40l-81 -15l156 -482h16z" />
    <glyph glyph-name="W" unicode="W" horiz-adv-x="1006" 
d="M694 187l137 464l-91 15v40h224v-40l-75 -15l-194 -651h-65l-128 454l-135 -454h-65l-184 651l-76 15v40h264v-40l-81 -15l126 -464h16l109 356l-30 108l-66 15v40h254v-40l-81 -15l126 -464h15z" />
    <glyph glyph-name="X" unicode="X" horiz-adv-x="726" 
d="M129 55l186 278l-188 318l-85 15v40h299v-40l-96 -15l133 -225l151 225l-108 15v40h263v-40l-90 -15l-185 -277l190 -319l85 -15v-40h-299v40l96 15l-134 225l-150 -225l108 -15v-40h-263v40z" />
    <glyph glyph-name="Y" unicode="Y" horiz-adv-x="718" 
d="M389 396l152 255l-89 15v40h224v-40l-75 -15l-189 -323v-273l88 -15v-40h-282v40l88 15v270l-191 326l-73 15v40h264v-40l-81 -15l148 -255h16z" />
    <glyph glyph-name="Z" unicode="Z" horiz-adv-x="704" 
d="M601 0h-527l-12 25l420 618l-7 15h-267l-101 -149h-44l47 197h513l11 -19l-428 -626l6 -13h289l102 149h44z" />
    <glyph glyph-name="bracketleft" unicode="[" horiz-adv-x="425" 
d="M350 738v-48q-76 -15 -150 -5v-852q68 6 156 -6v-51q-40 6 -111.5 6.5t-122.5 -5.5v960q51 -5 123 -5t105 6z" />
    <glyph glyph-name="backslash" unicode="\" horiz-adv-x="550" 
d="M387 -122l-300 856h76l300 -856h-76z" />
    <glyph glyph-name="bracketright" unicode="]" horiz-adv-x="425" 
d="M75 690v48q33 -6 105 -6t123 5v-960q-51 6 -122.5 5.5t-111.5 -6.5v51q88 12 156 6v852q-74 -10 -150 5z" />
    <glyph glyph-name="asciicircum" unicode="^" horiz-adv-x="540" 
d="M284 691l221 -377l-58 -33l-172 300h-8l-175 -300l-57 33l222 377h27z" />
    <glyph glyph-name="underscore" unicode="_" horiz-adv-x="604" 
d="M-3 -190h610v-42h-610v42z" />
    <glyph glyph-name="grave" unicode="`" horiz-adv-x="500" 
d="M310 496v-8h-51l-129 162v10h94z" />
    <glyph glyph-name="a" unicode="a" horiz-adv-x="630" 
d="M428 53l-45 117h-178l-42 -107l80 -25v-38h-206v38l68 25l184 455h61l183 -465l60 -15v-38h-232v38zM292 386l-68 -169h141l-65 169h-8z" />
    <glyph glyph-name="b" unicode="b" horiz-adv-x="590" 
d="M330 0h-261v38l72 15v412l-72 15v38h271q24 0 48.5 -5.5t50 -18t41.5 -37.5t16 -58q0 -38 -23 -72t-72 -49v-11q53 -9 86.5 -44t33.5 -84q0 -63 -52.5 -101t-138.5 -38zM415 146q0 41 -29.5 69t-86.5 28h-59v-190h76q48 0 73.5 26t25.5 67zM240 465v-175h60q90 0 90 92
q0 44 -25.5 63.5t-62.5 19.5h-62z" />
    <glyph glyph-name="c" unicode="c" horiz-adv-x="632" 
d="M349 41q121 0 161 125h38v-117q-98 -62 -203 -62q-118 0 -197 72t-79 197q0 122 79.5 196.5t196.5 74.5q91 0 196 -56v-121h-38q-46 127 -158 127q-70 0 -118 -60t-48 -160q0 -93 53.5 -154.5t116.5 -61.5z" />
    <glyph glyph-name="d" unicode="d" horiz-adv-x="666" 
d="M299 0h-230v38l72 15v412l-72 15v38h239q135 0 212 -69.5t77 -192.5q0 -121 -83 -188.5t-215 -67.5zM240 53h59q84 0 138 50t54 154q0 99 -52 153.5t-132 54.5h-67v-412z" />
    <glyph glyph-name="e" unicode="e" horiz-adv-x="577" 
d="M240 49h182l58 89h43l-21 -138h-433v38l72 15v412l-72 15v38h407l13 -124h-42l-52 75h-155v-179h96l27 57h32v-167h-32l-27 63h-96v-194z" />
    <glyph glyph-name="f" unicode="f" horiz-adv-x="544" 
d="M69 518h412l14 -124h-43l-53 75h-159v-179h101l27 57h32v-167h-32l-27 63h-101v-190l75 -15v-38h-246v38l72 15v412l-72 15v38z" />
    <glyph glyph-name="g" unicode="g" horiz-adv-x="654" 
d="M343 41q66 0 104 30v130l-87 19v38h248v-38l-62 -15v-163q-93 -55 -203 -55q-115 0 -194.5 72t-79.5 197q0 122 79.5 196.5t196.5 74.5q91 0 196 -56v-121h-38q-46 127 -158 127q-71 0 -118.5 -57.5t-47.5 -162.5q0 -97 47.5 -156.5t116.5 -59.5z" />
    <glyph glyph-name="h" unicode="h" horiz-adv-x="732" 
d="M420 518h243v-38l-72 -15v-412l72 -15v-38h-243v38l72 15v190h-252v-190l71 -15v-38h-242v38l72 15v412l-72 15v38h242v-38l-71 -15v-175h252v175l-72 15v38z" />
    <glyph glyph-name="i" unicode="i" horiz-adv-x="400" 
d="M79 518h242v-38l-71 -15v-412l71 -15v-38h-242v38l72 15v412l-72 15v38z" />
    <glyph glyph-name="j" unicode="j" horiz-adv-x="411" 
d="M172 -51v516l-77 15v38h247v-38l-71 -15v-428q0 -90 -62.5 -160.5t-129.5 -70.5q-35 0 -57 14.5t-22 43.5q0 23 13 36t33 13q17 0 37 -15.5t35 -15.5q54 0 54 67z" />
    <glyph glyph-name="k" unicode="k" horiz-adv-x="640" 
d="M256 248h-16v-195l66 -15v-38h-237v38l72 15v412l-72 15v38h242v-38l-71 -15v-175h19l176 170l-63 20v38h207v-38l-75 -20l-170 -162l210 -248l57 -12v-38h-237v38l56 15z" />
    <glyph glyph-name="l" unicode="l" horiz-adv-x="549" 
d="M484 0h-415v38l72 15v412l-72 15v38h246v-38l-75 -15v-416h155l67 97h43z" />
    <glyph glyph-name="m" unicode="m" horiz-adv-x="821" 
d="M577 378h-12l-162 -379h-34l-150 379h-11l-31 -315l70 -25v-38h-193v38l69 25l40 402l-80 15v38h178l144 -360h12l159 360h170v-38l-81 -15l29 -412l73 -15v-38h-242v38l73 15z" />
    <glyph glyph-name="n" unicode="n" horiz-adv-x="693" 
d="M498 177h12v278l-82 25v38h208v-38l-71 -25v-462h-30l-340 400h-12v-330l82 -25v-38h-201v38l64 25v402l-64 15v38h143z" />
    <glyph glyph-name="o" unicode="o" horiz-adv-x="678" 
d="M69 256q0 122 78 196.5t193 74.5q119 0 194 -73.5t75 -197.5q0 -128 -76.5 -198.5t-192.5 -70.5t-193.5 72t-77.5 197zM179 257q0 -101 46.5 -158.5t114.5 -57.5q70 0 115 52.5t45 163.5q0 105 -45 162.5t-115 57.5q-69 0 -115 -58t-46 -162z" />
    <glyph glyph-name="p" unicode="p" horiz-adv-x="561" 
d="M305 213h-65v-160l80 -15v-38h-251v38l72 15v412l-72 15v38h256q71 0 126.5 -37.5t55.5 -111.5q0 -72 -54 -114t-148 -42zM240 465v-205h73q38 0 65 29t27 75q0 49 -26 75t-68 26h-71z" />
    <glyph glyph-name="q" unicode="q" horiz-adv-x="678" 
d="M69 256q0 122 78 196.5t193 74.5q119 0 194 -73.5t75 -197.5q0 -100 -48.5 -166t-129.5 -90q8 -7 36 -30.5t39.5 -32.5t34 -23.5t41 -20t38.5 -5.5q59 0 99 21l11 -30q-73 -46 -146 -46q-43 0 -88 19t-71.5 38t-68.5 55t-55 45q-102 12 -167 81.5t-65 184.5zM179 257
q0 -101 46.5 -158.5t114.5 -57.5q70 0 115 52.5t45 163.5q0 105 -45 162.5t-115 57.5q-69 0 -115 -58t-46 -162z" />
    <glyph glyph-name="r" unicode="r" horiz-adv-x="621" 
d="M384 253v-9q23 -11 48 -49t52.5 -81t52.5 -61l45 -15v-38h-120q-26 17 -52 53t-44 70t-43.5 66.5t-52.5 42.5h-30v-179l71 -15v-38h-242v38l72 15v412l-72 15v38h271q25 0 50.5 -6t52.5 -20t44 -42.5t17 -67.5q0 -45 -32 -82t-88 -47zM240 465v-186h55q51 0 78 31t27 69
q0 44 -21.5 65t-54.5 21h-84z" />
    <glyph glyph-name="s" unicode="s" horiz-adv-x="543" 
d="M90 2v172h48q15 -67 49 -102.5t85 -35.5q39 0 63.5 22.5t24.5 57.5q0 34 -22 57t-88 51q-76 33 -112 69.5t-36 88.5q0 56 45 100.5t119 44.5q37 0 96 -24l36 15h26l18 -157h-47q-18 58 -51 87t-74 29q-36 0 -57.5 -19.5t-21.5 -54.5q0 -31 27.5 -52.5t94.5 -47.5
q69 -27 102.5 -64t33.5 -95q0 -75 -49.5 -116t-127.5 -41q-57 0 -101 30l-43 -15h-38z" />
    <glyph glyph-name="t" unicode="t" horiz-adv-x="599" 
d="M63 518h473l24 -146h-43l-66 99h-102v-418l75 -15v-38h-249v38l75 15v418h-102l-67 -99h-42z" />
    <glyph glyph-name="u" unicode="u" horiz-adv-x="661" 
d="M409 518h203v-38l-66 -25v-254q0 -37 -12.5 -73.5t-37 -68.5t-67.5 -52t-98 -20q-95 0 -152.5 59t-57.5 132v287l-72 15v38h242v-38l-71 -15v-275q0 -63 34 -103.5t94 -40.5q63 0 102.5 43.5t39.5 125.5v240l-81 25v38z" />
    <glyph glyph-name="v" unicode="v" horiz-adv-x="630" 
d="M338 134l132 321l-81 25v38h202v-38l-63 -25l-186 -455h-59l-185 465l-59 15v38h233v-38l-71 -15l129 -331h8z" />
    <glyph glyph-name="w" unicode="w" horiz-adv-x="851" 
d="M525 0l-106 318l-108 -318h-59l-153 465l-60 15v38h227v-38l-67 -15l99 -305h13l85 229l-25 76l-51 15v38h218v-38l-67 -15l100 -305h13l106 295l-81 25v38h203v-38l-64 -25l-167 -455h-56z" />
    <glyph glyph-name="x" unicode="x" horiz-adv-x="644" 
d="M133 63l143 181l-162 221l-60 15v38h255v-38l-82 -15l108 -147l108 137l-69 25v38h216v-38l-80 -25l-143 -181l163 -221l60 -15v-38h-255v38l82 15l-108 147l-108 -137l69 -25v-38h-216v38z" />
    <glyph glyph-name="y" unicode="y" horiz-adv-x="603" 
d="M332 276l108 179l-79 25v38h203v-38l-65 -25l-148 -246v-156l72 -15v-38h-243v38l72 15v156l-151 256l-62 15v38h232v-38l-61 -15l108 -189h14z" />
    <glyph glyph-name="z" unicode="z" horiz-adv-x="583" 
d="M493 0h-423l-10 20l312 437l-6 12h-186l-66 -107h-43l30 156h411l10 -15l-320 -444l5 -10h205l68 107h43z" />
    <glyph glyph-name="braceleft" unicode="{" horiz-adv-x="525" 
d="M172 283v-16q63 -9 107 -51.5t44 -104.5q0 -27 -22.5 -95t-22.5 -108q0 -94 156 -94v-42q-137 0 -187.5 35t-50.5 111q0 38 21.5 104t21.5 97q0 59 -43.5 90t-114.5 31v66q67 0 112.5 35t45.5 82q0 35 -20.5 93.5t-20.5 91.5q0 71 51.5 100.5t178.5 29.5v-42
q-150 0 -150 -79q0 -39 22.5 -101.5t22.5 -87.5q0 -53 -43.5 -92.5t-107.5 -52.5z" />
    <glyph glyph-name="bar" unicode="|" horiz-adv-x="540" 
d="M233 -230v980h74v-980h-74z" />
    <glyph glyph-name="braceright" unicode="}" horiz-adv-x="525" 
d="M353 267v16q-64 13 -107.5 52.5t-43.5 92.5q0 25 22.5 87.5t22.5 101.5q0 79 -150 79v42q127 0 178.5 -29.5t51.5 -100.5q0 -33 -20.5 -91.5t-20.5 -93.5q0 -47 45.5 -82t112.5 -35v-66q-71 0 -114.5 -31t-43.5 -90q0 -31 21.5 -97t21.5 -104q0 -76 -50.5 -111
t-187.5 -35v42q156 0 156 94q0 40 -22.5 108t-22.5 95q0 62 44 104.5t107 51.5z" />
    <glyph glyph-name="asciitilde" unicode="~" horiz-adv-x="540" 
d="M469 373l36 -14q-21 -62 -63.5 -109.5t-80.5 -47.5q-23 0 -105 39.5t-105 39.5q-15 0 -30 -13.5t-23.5 -27.5t-22.5 -42l-40 16q17 53 61 106t71 53q30 0 107.5 -40t106.5 -40q24 0 50.5 25t37.5 55z" />
    <glyph glyph-name="uni00A0" unicode="&#xa0;" horiz-adv-x="280" 
 />
    <glyph glyph-name="exclamdown" unicode="&#xa1;" horiz-adv-x="423" 
d="M276 463q0 -27 -18.5 -46t-45.5 -19t-46 19t-19 46t19 45.5t46 18.5t45.5 -18.5t18.5 -45.5zM272 -214h-120l40 524h40z" />
    <glyph glyph-name="cent" unicode="&#xa2;" horiz-adv-x="453" 
d="M252 626v-95q63 0 101 -26t38 -63q0 -38 -44 -38q-22 0 -34.5 13.5t-16 29.5t-14.5 31t-30 18v-323h13q34 0 63.5 18t46.5 44l27 -13q-20 -52 -59.5 -86t-90.5 -38v-98h-38v98q-73 10 -117 71t-44 143q0 81 44.5 141t116.5 74v99h38zM139 328q0 -115 75 -146v308
q-32 -16 -53.5 -59.5t-21.5 -102.5z" />
    <glyph glyph-name="sterling" unicode="&#xa3;" horiz-adv-x="568" 
d="M88 358h72q-27 70 -27 114q0 81 52.5 123.5t124.5 42.5q77 0 122.5 -36.5t45.5 -73.5q0 -22 -12 -35t-28 -13q-21 0 -36 19t-22.5 42.5t-25.5 42.5t-45 19q-32 0 -54 -28.5t-22 -83.5q0 -17 3.5 -36t7.5 -31t12 -34.5t11 -31.5h135v-43h-125q5 -25 5 -47q0 -95 -54 -146
l7 -11q21 15 47 15q29 0 54.5 -22.5t49.5 -45t48 -22.5q35 0 35 33q0 13 -19 31t-19 37q0 14 9.5 24.5t25.5 10.5q24 0 38 -19t14 -54q0 -53 -35.5 -82t-83.5 -29q-63 0 -119 27.5t-82 59.5h-4q-47 -87 -97 -87q-27 0 -27 24q0 54 110 89q17 49 17 113q0 42 -21 101h-88v43z
" />
    <glyph glyph-name="currency" unicode="&#xa4;" horiz-adv-x="644" 
d="M101 272q0 69 40 127l-45 44q-11 11 -2 29.5t25 26t28 -0.5l46 -47q58 42 129 42t126 -39l43 45q10 11 29 0t29.5 -30.5t0.5 -29.5l-45 -43q38 -55 38 -124q0 -70 -42 -130l48 -46q11 -11 2 -29.5t-25 -26.5t-28 1l-50 50q-55 -40 -126 -40q-69 0 -124 36l-42 -44
q-11 -12 -31 -2.5t-29 27t1 30.5l44 43q-40 55 -40 131zM171 271q0 -70 42 -115.5t110 -45.5q63 0 105.5 46t42.5 115q0 71 -42.5 116.5t-106.5 45.5q-70 0 -110.5 -46t-40.5 -116z" />
    <glyph glyph-name="yen" unicode="&#xa5;" horiz-adv-x="574" 
d="M106 278h128l-153 293l-61 15v40h224v-40l-63 -15l120 -234h16l127 234l-74 15v40h184v-40l-58 -15l-156 -293h128v-41h-133v-49h133v-41h-133v-92l78 -15v-40h-252v40l78 15v92h-133v41h133v49h-133v41z" />
    <glyph glyph-name="brokenbar" unicode="&#xa6;" horiz-adv-x="540" 
d="M307 400h-74v350h74v-350zM233 120h74v-350h-74v350z" />
    <glyph glyph-name="section" unicode="&#xa7;" horiz-adv-x="645" 
d="M450 216q0 26 -12 49t-37 45.5t-48.5 39.5t-63 44t-64.5 46q-34 -40 -34 -98q0 -30 23.5 -60t51 -49.5t75.5 -50t71 -47.5q38 42 38 81zM331 -120q38 0 62 20.5t24 56.5q0 37 -31 71.5t-75.5 62.5t-88.5 58t-75 71t-31 88q0 85 74 164q-55 48 -55 104q0 54 47.5 98
t132.5 44q96 0 169 -51v-141h-33q-39 150 -138 150q-39 0 -63.5 -22.5t-24.5 -54.5q0 -34 31.5 -66.5t76 -60.5t89 -57.5t76 -69.5t31.5 -85q0 -81 -81 -157q63 -52 63 -118q0 -72 -56 -109.5t-130 -37.5q-97 0 -179 51v141h33q42 -150 152 -150z" />
    <glyph glyph-name="dieresis" unicode="&#xa8;" horiz-adv-x="500" 
d="M388 569q0 -20 -16 -35.5t-36 -15.5q-21 0 -37 15.5t-16 35.5q0 21 16 37t37 16q20 0 36 -16t16 -37zM217 569q0 -21 -15.5 -36t-36.5 -15t-37 15.5t-16 35.5q0 21 16 37t37 16t36.5 -16t15.5 -37z" />
    <glyph glyph-name="copyright" unicode="&#xa9;" horiz-adv-x="793" 
d="M89 296q0 126 90.5 216.5t217.5 90.5q131 0 219 -89.5t88 -217.5q0 -127 -90.5 -217.5t-216.5 -90.5q-129 0 -218.5 87t-89.5 221zM148 294q0 -110 70 -183t180 -73t178.5 72.5t68.5 183.5q0 114 -70.5 187.5t-177.5 73.5q-109 0 -179 -74.5t-70 -186.5zM405 166
q41 0 64 17.5t36 56.5h26v-74q-63 -39 -128 -39q-74 0 -124 45.5t-50 124.5q0 76 50 123t124 47q60 0 124 -35v-77h-28q-26 75 -96 75q-46 0 -73.5 -32t-27.5 -100q0 -64 31 -98t72 -34z" />
    <glyph glyph-name="ordfeminine" unicode="&#xaa;" horiz-adv-x="457" 
d="M306 301l-30 75h-130l-27 -68l51 -17v-30h-135v30l40 17l130 318h51l129 -325l37 -10v-30h-159v30zM210 533l-50 -122h103l-48 122h-5z" />
    <glyph glyph-name="guillemotleft" unicode="&#xab;" horiz-adv-x="672" 
d="M110 240l182 219l33 -20l-108 -201v-15l108 -203l-33 -24l-182 221v23zM317 240l182 219l33 -20l-108 -201v-15l108 -203l-33 -24l-182 221v23z" />
    <glyph glyph-name="logicalnot" unicode="&#xac;" horiz-adv-x="540" 
d="M426 52v197h-388v64h457v-261h-69z" />
    <glyph glyph-name="registered" unicode="&#xae;" horiz-adv-x="598" 
d="M85 503q0 88 63 151t151 63q91 0 152.5 -62.5t61.5 -151.5q0 -88 -63 -151t-151 -63q-89 0 -151.5 61t-62.5 153zM129 502q0 -76 48 -125.5t123 -49.5q70 0 119.5 50.5t49.5 124.5q0 77 -49 126.5t-121 49.5q-78 0 -124 -49.5t-46 -126.5zM332 508v-8q14 -6 38 -39.5
t37 -42.5l15 -7v-20h-55q-14 10 -41.5 52t-47.5 50h-13v-75l37 -7v-20h-114v20l27 7v183l-27 7v20h116q29 0 57 -14t28 -48q0 -20 -15.5 -36.5t-41.5 -21.5zM265 601v-82h26q23 0 34.5 13.5t11.5 31.5q0 37 -40 37h-32z" />
    <glyph glyph-name="macron" unicode="&#xaf;" horiz-adv-x="500" 
d="M377 530h-254v58h254v-58z" />
    <glyph glyph-name="degree" unicode="&#xb0;" horiz-adv-x="387" 
d="M50 494q0 59 42 101.5t101 42.5t101.5 -42.5t42.5 -101.5t-42.5 -101t-101.5 -42t-101 42.5t-42 100.5zM110 494q0 -39 22.5 -65.5t59.5 -26.5t60.5 26.5t23.5 65.5t-23.5 66.5t-60.5 27.5t-59.5 -27.5t-22.5 -66.5z" />
    <glyph glyph-name="plusminus" unicode="&#xb1;" horiz-adv-x="540" 
d="M472 270h-171v-150h-62v150h-171v62h171v150h62v-150h171v-62zM472 0h-404v62h404v-62z" />
    <glyph glyph-name="two.sups" unicode="&#xb2;" horiz-adv-x="307" 
d="M184 659q0 22 -13.5 37t-36.5 15q-22 0 -41 -13.5t-47 -43.5l-17 17q65 95 134 95q45 0 70.5 -22.5t25.5 -57.5q0 -40 -45 -99.5t-90 -99.5l3 -8h106l25 40l23 -7l-31 -97h-214l-6 18q52 43 103 109.5t51 116.5z" />
    <glyph glyph-name="three.sups" unicode="&#xb3;" horiz-adv-x="279" 
d="M232 704q0 -50 -67 -92v-5q33 -8 56.5 -35t23.5 -60q0 -47 -39.5 -75.5t-85.5 -28.5q-45 0 -70 14.5t-25 37.5q0 11 7.5 19t20.5 8q17 0 34.5 -21t35.5 -21q19 0 35 16t16 46q0 23 -12.5 42t-27 26.5t-22.5 3.5l-20 -11l-17 23q88 42 88 84q0 39 -41 39q-38 0 -71 -38
l-15 17q54 73 121 73q32 0 53.5 -17t21.5 -45z" />
    <glyph glyph-name="acute" unicode="&#xb4;" horiz-adv-x="500" 
d="M190 488v8l86 164h94v-10l-129 -162h-51z" />
    <glyph glyph-name="mu" unicode="&#xb5;" horiz-adv-x="540" 
d="M366 27l-8 6q-68 -45 -134 -45q-41 0 -71 27q1 -26 4 -64.5t4.5 -64t1.5 -38.5q0 -60 -46 -60q-40 0 -40 52q0 17 6 120.5t8 159.5q-1 7 -1 21v257l-63 11v38l154 18v-309q0 -56 21 -78.5t65 -22.5q58 0 93 37v306l-63 11v38l154 18v-364q0 -43 21 -43q20 0 34 34l28 -11
q-16 -47 -46 -68.5t-58 -21.5q-26 0 -37.5 7t-26.5 29z" />
    <glyph glyph-name="mu" unicode="&#x3bc;" horiz-adv-x="540" 
d="M366 27l-8 6q-68 -45 -134 -45q-41 0 -71 27q1 -26 4 -64.5t4.5 -64t1.5 -38.5q0 -60 -46 -60q-40 0 -40 52q0 17 6 120.5t8 159.5q-1 7 -1 21v257l-63 11v38l154 18v-309q0 -56 21 -78.5t65 -22.5q58 0 93 37v306l-63 11v38l154 18v-364q0 -43 21 -43q20 0 34 34l28 -11
q-16 -47 -46 -68.5t-58 -21.5q-26 0 -37.5 7t-26.5 29z" />
    <glyph glyph-name="paragraph" unicode="&#xb6;" horiz-adv-x="645" 
d="M586 706v-57q-33 0 -50.5 -24.5t-17.5 -60.5v-721h-65v806h-65v-806h-65v400q-125 0 -193 62t-68 170q0 105 69 168t177 63h278zM323 300v349q-53 0 -86 -49t-33 -128q0 -78 31.5 -125t87.5 -47z" />
    <glyph glyph-name="periodcentered" unicode="&#xb7;" horiz-adv-x="343" 
d="M107 264q0 27 18.5 46t45.5 19t46 -19t19 -46t-19 -45.5t-46 -18.5t-45.5 18.5t-18.5 45.5z" />
    <glyph glyph-name="cedilla" unicode="&#xb8;" horiz-adv-x="500" 
d="M202 -224l-8 25q39 6 63 22.5t24 39.5q0 42 -71 42q-16 0 -30 -2l-5 7l58 110h45l-38 -70q46 0 75.5 -18t29.5 -54q0 -38 -42 -66t-101 -36z" />
    <glyph glyph-name="one.sups" unicode="&#xb9;" horiz-adv-x="253" 
d="M37 703v33q52 1 96 28l36 -3v-306l51 -8v-32h-171v32l52 8v251q-37 -10 -64 -3z" />
    <glyph glyph-name="ordmasculine" unicode="&#xba;" horiz-adv-x="440" 
d="M30 447q0 86 55 138.5t136 52.5q83 0 136 -51.5t53 -139.5q0 -89 -54 -139t-135 -50q-82 0 -136.5 50.5t-54.5 138.5zM117 447q0 -68 30 -107t74 -39q45 0 73.5 36t28.5 110q0 72 -29 111.5t-73 39.5t-74 -40t-30 -111z" />
    <glyph glyph-name="guillemotright" unicode="&#xbb;" horiz-adv-x="672" 
d="M380 459l182 -219v-23l-182 -221l-33 24l108 203v15l-108 201zM173 459l182 -219v-23l-182 -221l-33 24l108 203v15l-108 201z" />
    <glyph glyph-name="onequarter" unicode="&#xbc;" 
d="M119 -54l241 370l223 353l40 -26l-234 -349l-231 -375zM85 577v33q52 1 96 28l36 -3v-306l51 -8v-32h-171v32l52 8v251q-37 -10 -64 -3zM566 315l35 -9v-202h34v-44h-34v-100h-67v99h-132l-9 23zM534 204l-6 4l-74 -99l3 -5h77v100z" />
    <glyph glyph-name="onehalf" unicode="&#xbd;" 
d="M119 -54l241 370l223 353l40 -26l-234 -349l-231 -375zM85 577v33q52 1 96 28l36 -3v-306l51 -8v-32h-171v32l52 8v251q-37 -10 -64 -3zM581 204q0 22 -13.5 37t-36.5 15q-22 0 -41 -13.5t-47 -43.5l-17 17q65 95 134 95q45 0 70.5 -22.5t25.5 -57.5q0 -40 -45 -99.5
t-90 -99.5l3 -8h106l25 40l23 -7l-31 -97h-214l-6 18q52 43 103 109.5t51 116.5z" />
    <glyph glyph-name="threequarters" unicode="&#xbe;" 
d="M119 -54l241 370l223 353l40 -26l-234 -349l-231 -375zM275 578q0 -50 -67 -92v-5q33 -8 56.5 -35t23.5 -60q0 -47 -39.5 -75.5t-85.5 -28.5q-45 0 -70 14.5t-25 37.5q0 11 7.5 19t20.5 8q17 0 34.5 -21t35.5 -21q19 0 35 16t16 46q0 23 -12.5 42t-27 26.5t-22.5 3.5
l-20 -11l-17 23q88 42 88 84q0 39 -41 39q-38 0 -71 -38l-15 17q54 73 121 73q32 0 53.5 -17t21.5 -45zM566 315l35 -9v-202h34v-44h-34v-100h-67v99h-132l-9 23zM534 204l-6 4l-74 -99l3 -5h77v100z" />
    <glyph glyph-name="questiondown" unicode="&#xbf;" horiz-adv-x="493" 
d="M368 503q0 -27 -18.5 -46t-45.5 -19t-46 19t-19 46t19 45.5t46 18.5t45.5 -18.5t18.5 -45.5zM326 356v-211q-90 11 -136.5 -25t-46.5 -100q0 -47 30.5 -73.5t88.5 -26.5q98 0 98 -51q0 -23 -16.5 -37.5t-46.5 -14.5q-72 0 -136 67.5t-64 170.5q0 97 56.5 144t129.5 40
v117h43z" />
    <glyph glyph-name="Agrave" unicode="&#xc0;" horiz-adv-x="748" 
d="M527 55l-69 189h-224l-64 -189l91 -15v-40h-224v40l75 15l224 651h65l234 -651l76 -15v-40h-264v40zM336 546l-83 -247h185l-86 247h-16zM431 764v-8h-51l-129 127v10h94z" />
    <glyph glyph-name="Aacute" unicode="&#xc1;" horiz-adv-x="748" 
d="M527 55l-69 189h-224l-64 -189l91 -15v-40h-224v40l75 15l224 651h65l234 -651l76 -15v-40h-264v40zM336 546l-83 -247h185l-86 247h-16zM311 756v8l86 129h94v-10l-129 -127h-51z" />
    <glyph glyph-name="Acircumflex" unicode="&#xc2;" horiz-adv-x="748" 
d="M527 55l-69 189h-224l-64 -189l91 -15v-40h-224v40l75 15l224 651h65l234 -651l76 -15v-40h-264v40zM336 546l-83 -247h185l-86 247h-16zM516 764v-8h-46l-99 69l-99 -69h-46v8l121 129h48z" />
    <glyph glyph-name="Atilde" unicode="&#xc3;" horiz-adv-x="748" 
d="M527 55l-69 189h-224l-64 -189l91 -15v-40h-224v40l75 15l224 651h65l234 -651l76 -15v-40h-264v40zM336 546l-83 -247h185l-86 247h-16zM499 916l26 -10q-14 -49 -43 -87t-55 -38q-15 0 -63.5 30t-63.5 30q-16 0 -27.5 -16t-25.5 -47l-29 12q11 40 41 81.5t48 41.5
q19 0 65 -30.5t64 -30.5q17 0 36 21t27 43z" />
    <glyph glyph-name="Adieresis" unicode="&#xc4;" horiz-adv-x="748" 
d="M527 55l-69 189h-224l-64 -189l91 -15v-40h-224v40l75 15l224 651h65l234 -651l76 -15v-40h-264v40zM336 546l-83 -247h185l-86 247h-16zM509 837q0 -20 -16 -35.5t-36 -15.5q-21 0 -37 15.5t-16 35.5q0 21 16 37t37 16q20 0 36 -16t16 -37zM338 837q0 -21 -15 -36
t-37 -15q-21 0 -37 15.5t-16 35.5q0 21 16 37t37 16t36.5 -16t15.5 -37z" />
    <glyph glyph-name="Aring" unicode="&#xc5;" horiz-adv-x="748" 
d="M527 55l-69 189h-224l-64 -189l91 -15v-40h-224v40l75 15l224 651h65l234 -651l76 -15v-40h-264v40zM336 546l-83 -247h185l-86 247h-16zM277 840q0 39 27.5 66.5t66.5 27.5t66.5 -27.5t27.5 -66.5t-27.5 -66.5t-66.5 -27.5t-66.5 27.5t-27.5 66.5zM323 840
q0 -22 13 -36.5t34 -14.5t34.5 14.5t13.5 36.5t-13.5 37.5t-34.5 15.5t-34 -15.5t-13 -37.5z" />
    <glyph glyph-name="AE" unicode="&#xc6;" horiz-adv-x="1006" 
d="M582 48h240l91 139h44l-36 -187h-533v40l88 15v189h-192l-114 -189l91 -15v-40h-224v40l75 15l364 592v4l-88 15v40h502l16 -157h-44l-71 109h-209v-259h137l32 94h40v-250h-40l-32 101h-137v-296zM318 299h158v261z" />
    <glyph glyph-name="Ccedilla" unicode="&#xc7;" horiz-adv-x="782" 
d="M371 -224l-8 25q39 6 63 22.5t24 39.5q0 42 -71 42q-16 0 -30 -2l-5 7l42 80q-136 10 -223.5 106t-87.5 256q0 164 106.5 265t261.5 101q112 0 239 -71v-141h-33q-29 84 -84.5 123t-121.5 39q-107 0 -179 -80.5t-72 -234.5q0 -147 72 -228.5t166 -81.5q83 0 142.5 41.5
t85.5 117.5h32v-137q-62 -37 -120.5 -56.5t-140.5 -20.5l-20 -38q46 0 75.5 -18t29.5 -54q0 -38 -42 -66t-101 -36z" />
    <glyph glyph-name="Egrave" unicode="&#xc8;" horiz-adv-x="687" 
d="M263 48h240l91 139h44l-36 -187h-533v40l88 15v596l-88 15v40h502l16 -157h-44l-71 109h-209v-259h137l32 94h40v-250h-40l-32 101h-137v-296zM413 764v-8h-51l-129 127v10h94z" />
    <glyph glyph-name="Eacute" unicode="&#xc9;" horiz-adv-x="687" 
d="M263 48h240l91 139h44l-36 -187h-533v40l88 15v596l-88 15v40h502l16 -157h-44l-71 109h-209v-259h137l32 94h40v-250h-40l-32 101h-137v-296zM293 756v8l86 129h94v-10l-129 -127h-51z" />
    <glyph glyph-name="Ecircumflex" unicode="&#xca;" horiz-adv-x="687" 
d="M263 48h240l91 139h44l-36 -187h-533v40l88 15v596l-88 15v40h502l16 -157h-44l-71 109h-209v-259h137l32 94h40v-250h-40l-32 101h-137v-296zM498 764v-8h-46l-99 69l-99 -69h-46v8l121 129h48z" />
    <glyph glyph-name="Edieresis" unicode="&#xcb;" horiz-adv-x="687" 
d="M263 48h240l91 139h44l-36 -187h-533v40l88 15v596l-88 15v40h502l16 -157h-44l-71 109h-209v-259h137l32 94h40v-250h-40l-32 101h-137v-296zM491 837q0 -20 -16 -35.5t-36 -15.5q-21 0 -37 15.5t-16 35.5q0 21 16 37t37 16q20 0 36 -16t16 -37zM320 837q0 -21 -15 -36
t-37 -15q-21 0 -37 15.5t-16 35.5q0 21 16 37t37 16t36.5 -16t15.5 -37z" />
    <glyph glyph-name="Igrave" unicode="&#xcc;" horiz-adv-x="420" 
d="M69 706h282v-40l-88 -15v-596l88 -15v-40h-282v40l88 15v596l-88 15v40zM270 764v-8h-51l-129 127v10h94z" />
    <glyph glyph-name="Iacute" unicode="&#xcd;" horiz-adv-x="420" 
d="M69 706h282v-40l-88 -15v-596l88 -15v-40h-282v40l88 15v596l-88 15v40zM150 756v8l86 129h94v-10l-129 -127h-51z" />
    <glyph glyph-name="Icircumflex" unicode="&#xce;" horiz-adv-x="420" 
d="M69 706h282v-40l-88 -15v-596l88 -15v-40h-282v40l88 15v596l-88 15v40zM355 764v-8h-46l-99 69l-99 -69h-46v8l121 129h48z" />
    <glyph glyph-name="Idieresis" unicode="&#xcf;" horiz-adv-x="420" 
d="M69 706h282v-40l-88 -15v-596l88 -15v-40h-282v40l88 15v596l-88 15v40zM348 837q0 -20 -16 -35.5t-36 -15.5q-21 0 -37 15.5t-16 35.5q0 21 16 37t37 16q20 0 36 -16t16 -37zM177 837q0 -21 -15.5 -36t-36.5 -15t-37 15.5t-16 35.5q0 21 16 37t37 16t36.5 -16t15.5 -37z
" />
    <glyph glyph-name="Eth" unicode="&#xd0;" horiz-adv-x="839" 
d="M69 379h88v272l-88 15v40h301q183 0 288.5 -95t105.5 -261t-112 -258t-292 -92h-291v40l88 15v269h-88v55zM263 55h97q125 0 206 72.5t81 223.5q0 145 -76.5 222.5t-201.5 77.5h-106v-272h165v-55h-165v-269z" />
    <glyph glyph-name="Ntilde" unicode="&#xd1;" horiz-adv-x="843" 
d="M633 189h14v462l-88 15v40h230v-40l-87 -15v-653h-45l-455 559h-14v-502l88 -15v-40h-222v40l79 15v596l-79 15v40h159zM549 916l26 -10q-14 -49 -43 -87t-55 -38q-15 0 -63.5 30t-63.5 30q-16 0 -27.5 -16t-25.5 -47l-29 12q11 40 41 81.5t48 41.5q19 0 65 -30.5
t64 -30.5q17 0 36 21t27 43z" />
    <glyph glyph-name="Ograve" unicode="&#xd2;" horiz-adv-x="825" 
d="M75 352q0 165 97.5 265.5t240.5 100.5q149 0 243 -99t94 -267q0 -174 -96 -269t-241 -95t-241.5 97t-96.5 267zM192 353q0 -158 62.5 -235.5t158.5 -77.5q220 0 220 313q0 164 -59.5 239.5t-160.5 75.5q-97 0 -159 -77.5t-62 -237.5zM472 764v-8h-51l-129 127v10h94z" />
    <glyph glyph-name="Oacute" unicode="&#xd3;" horiz-adv-x="825" 
d="M75 352q0 165 97.5 265.5t240.5 100.5q149 0 243 -99t94 -267q0 -174 -96 -269t-241 -95t-241.5 97t-96.5 267zM192 353q0 -158 62.5 -235.5t158.5 -77.5q220 0 220 313q0 164 -59.5 239.5t-160.5 75.5q-97 0 -159 -77.5t-62 -237.5zM352 756v8l86 129h94v-10l-129 -127
h-51z" />
    <glyph glyph-name="Ocircumflex" unicode="&#xd4;" horiz-adv-x="825" 
d="M75 352q0 165 97.5 265.5t240.5 100.5q149 0 243 -99t94 -267q0 -174 -96 -269t-241 -95t-241.5 97t-96.5 267zM192 353q0 -158 62.5 -235.5t158.5 -77.5q220 0 220 313q0 164 -59.5 239.5t-160.5 75.5q-97 0 -159 -77.5t-62 -237.5zM557 764v-8h-46l-99 69l-99 -69h-46
v8l121 129h48z" />
    <glyph glyph-name="Otilde" unicode="&#xd5;" horiz-adv-x="825" 
d="M75 352q0 165 97.5 265.5t240.5 100.5q149 0 243 -99t94 -267q0 -174 -96 -269t-241 -95t-241.5 97t-96.5 267zM192 353q0 -158 62.5 -235.5t158.5 -77.5q220 0 220 313q0 164 -59.5 239.5t-160.5 75.5q-97 0 -159 -77.5t-62 -237.5zM540 916l26 -10q-14 -49 -43 -87
t-55 -38q-15 0 -63.5 30t-63.5 30q-16 0 -27.5 -16t-25.5 -47l-29 12q11 40 41 81.5t48 41.5q19 0 65 -30.5t64 -30.5q17 0 36 21t27 43z" />
    <glyph glyph-name="Odieresis" unicode="&#xd6;" horiz-adv-x="825" 
d="M75 352q0 165 97.5 265.5t240.5 100.5q149 0 243 -99t94 -267q0 -174 -96 -269t-241 -95t-241.5 97t-96.5 267zM192 353q0 -158 62.5 -235.5t158.5 -77.5q220 0 220 313q0 164 -59.5 239.5t-160.5 75.5q-97 0 -159 -77.5t-62 -237.5zM550 837q0 -20 -16 -35.5t-36 -15.5
q-21 0 -37 15.5t-16 35.5q0 21 16 37t37 16q20 0 36 -16t16 -37zM379 837q0 -21 -15.5 -36t-36.5 -15t-37 15.5t-16 35.5q0 21 16 37t37 16t36.5 -16t15.5 -37z" />
    <glyph glyph-name="multiply" unicode="&#xd7;" horiz-adv-x="540" 
d="M449 376l-135 -135l135 -135l-44 -44l-135 135l-135 -135l-44 44l135 135l-135 135l44 44l135 -135l135 135z" />
    <glyph glyph-name="Oslash" unicode="&#xd8;" horiz-adv-x="825" 
d="M75 352q0 165 97.5 265.5t240.5 100.5q107 0 189 -54l55 76h65l-79 -109q107 -101 107 -279q0 -174 -96 -269t-241 -95q-111 0 -194 57l-64 -89h-65l88 122q-103 101 -103 274zM633 353q0 129 -41 208l-328 -455q57 -66 149 -66q220 0 220 313zM192 353q0 -122 40 -200
l329 454q-57 61 -148 61q-97 0 -159 -77.5t-62 -237.5z" />
    <glyph glyph-name="Ugrave" unicode="&#xd9;" horiz-adv-x="832" 
d="M554 706h224v-40l-81 -15v-391q0 -45 -16 -90.5t-47.5 -87.5t-86.5 -68t-124 -26q-130 0 -205.5 74t-75.5 168v421l-88 15v40h282v-40l-88 -15v-406q0 -80 51.5 -133t143.5 -53q85 0 141.5 57.5t56.5 160.5v374l-87 15v40zM508 764v-8h-51l-129 127v10h94z" />
    <glyph glyph-name="Uacute" unicode="&#xda;" horiz-adv-x="832" 
d="M554 706h224v-40l-81 -15v-391q0 -45 -16 -90.5t-47.5 -87.5t-86.5 -68t-124 -26q-130 0 -205.5 74t-75.5 168v421l-88 15v40h282v-40l-88 -15v-406q0 -80 51.5 -133t143.5 -53q85 0 141.5 57.5t56.5 160.5v374l-87 15v40zM388 756v8l86 129h94v-10l-129 -127h-51z" />
    <glyph glyph-name="Ucircumflex" unicode="&#xdb;" horiz-adv-x="832" 
d="M554 706h224v-40l-81 -15v-391q0 -45 -16 -90.5t-47.5 -87.5t-86.5 -68t-124 -26q-130 0 -205.5 74t-75.5 168v421l-88 15v40h282v-40l-88 -15v-406q0 -80 51.5 -133t143.5 -53q85 0 141.5 57.5t56.5 160.5v374l-87 15v40zM593 764v-8h-46l-99 69l-99 -69h-46v8l121 129
h48z" />
    <glyph glyph-name="Udieresis" unicode="&#xdc;" horiz-adv-x="832" 
d="M554 706h224v-40l-81 -15v-391q0 -45 -16 -90.5t-47.5 -87.5t-86.5 -68t-124 -26q-130 0 -205.5 74t-75.5 168v421l-88 15v40h282v-40l-88 -15v-406q0 -80 51.5 -133t143.5 -53q85 0 141.5 57.5t56.5 160.5v374l-87 15v40zM586 837q0 -20 -16 -35.5t-36 -15.5
q-21 0 -37 15.5t-16 35.5q0 21 16 37t37 16q20 0 36 -16t16 -37zM415 837q0 -21 -15.5 -36t-36.5 -15t-37 15.5t-16 35.5q0 21 16 37t37 16t36.5 -16t15.5 -37z" />
    <glyph glyph-name="Yacute" unicode="&#xdd;" horiz-adv-x="718" 
d="M389 396l152 255l-89 15v40h224v-40l-75 -15l-189 -323v-273l88 -15v-40h-282v40l88 15v270l-191 326l-73 15v40h264v-40l-81 -15l148 -255h16zM322 756v8l86 129h94v-10l-129 -127h-51z" />
    <glyph glyph-name="Thorn" unicode="&#xde;" horiz-adv-x="638" 
d="M69 706h282v-40l-88 -15v-85h62q47 0 90 -11.5t80.5 -34t60 -63t22.5 -92.5q0 -91 -69 -144.5t-189 -53.5h-57v-112l88 -15v-40h-282v40l88 15v596l-88 15v40zM320 509h-57v-290h66q59 0 99 38t40 102q0 150 -148 150z" />
    <glyph glyph-name="germandbls" unicode="&#xdf;" horiz-adv-x="719" 
d="M476 -9q-66 0 -120 26l-5 116h43q16 -100 82 -100q77 0 77 108q0 46 -26 77t-76 30q-42 0 -83 -26l-44 52l144 182l-4 9h-224v-411l59 -15v-39h-230v38l72 15v412l-72 15v38h514l8 -41l-143 -177l6 -8q88 15 144.5 -26.5t56.5 -118.5q0 -75 -52 -115.5t-127 -40.5z" />
    <glyph glyph-name="agrave" unicode="&#xe0;" horiz-adv-x="630" 
d="M428 53l-45 117h-178l-42 -107l80 -25v-38h-206v38l68 25l184 455h61l183 -465l60 -15v-38h-232v38zM292 386l-68 -169h141l-65 169h-8zM377 576v-8h-51l-129 162v10h94z" />
    <glyph glyph-name="aacute" unicode="&#xe1;" horiz-adv-x="630" 
d="M428 53l-45 117h-178l-42 -107l80 -25v-38h-206v38l68 25l184 455h61l183 -465l60 -15v-38h-232v38zM292 386l-68 -169h141l-65 169h-8zM257 568v8l86 164h94v-10l-129 -162h-51z" />
    <glyph glyph-name="acircumflex" unicode="&#xe2;" horiz-adv-x="630" 
d="M428 53l-45 117h-178l-42 -107l80 -25v-38h-206v38l68 25l184 455h61l183 -465l60 -15v-38h-232v38zM292 386l-68 -169h141l-65 169h-8zM462 576v-8h-46l-99 99l-99 -99h-46v8l121 164h48z" />
    <glyph glyph-name="atilde" unicode="&#xe3;" horiz-adv-x="630" 
d="M428 53l-45 117h-178l-42 -107l80 -25v-38h-206v38l68 25l184 455h61l183 -465l60 -15v-38h-232v38zM292 386l-68 -169h141l-65 169h-8zM445 728l26 -10q-14 -49 -43 -87t-55 -38q-15 0 -63.5 30t-63.5 30q-16 0 -27.5 -16t-25.5 -47l-29 12q11 40 41 81.5t48 41.5
q19 0 65 -30.5t64 -30.5q17 0 36 21t27 43z" />
    <glyph glyph-name="adieresis" unicode="&#xe4;" horiz-adv-x="630" 
d="M428 53l-45 117h-178l-42 -107l80 -25v-38h-206v38l68 25l184 455h61l183 -465l60 -15v-38h-232v38zM292 386l-68 -169h141l-65 169h-8zM455 649q0 -20 -16 -35.5t-36 -15.5q-21 0 -37 15.5t-16 35.5q0 21 16 37t37 16q20 0 36 -16t16 -37zM284 649q0 -21 -15 -36
t-37 -15q-21 0 -37 15.5t-16 35.5q0 21 16 37t37 16t36.5 -16t15.5 -37z" />
    <glyph glyph-name="aring" unicode="&#xe5;" horiz-adv-x="630" 
d="M428 53l-45 117h-178l-42 -107l80 -25v-38h-206v38l68 25l184 455h61l183 -465l60 -15v-38h-232v38zM292 386l-68 -169h141l-65 169h-8zM223 652q0 39 27.5 66.5t66.5 27.5t66.5 -27.5t27.5 -66.5t-27.5 -66.5t-66.5 -27.5t-66.5 27.5t-27.5 66.5zM269 652
q0 -22 13 -36.5t34 -14.5t34.5 14.5t13.5 36.5t-13.5 37.5t-34.5 15.5t-34 -15.5t-13 -37.5z" />
    <glyph glyph-name="ae" unicode="&#xe6;" horiz-adv-x="833" 
d="M496 49h182l58 89h43l-21 -138h-433v38l72 15v117h-158l-80 -107l80 -25v-38h-202v38l64 25l296 392v10l-72 15v38h407l13 -124h-42l-52 75h-155v-179h96l27 57h32v-167h-32l-27 63h-96v-194zM275 217h122v162z" />
    <glyph glyph-name="ccedilla" unicode="&#xe7;" horiz-adv-x="632" 
d="M297 -224l-8 25q39 6 63 22.5t24 39.5q0 42 -71 42q-16 0 -30 -2l-5 7l41 79q-105 9 -173.5 80t-68.5 187q0 122 79.5 196.5t196.5 74.5q91 0 196 -56v-121h-38q-46 127 -158 127q-70 0 -118 -60t-48 -160q0 -93 53.5 -154.5t116.5 -61.5q121 0 161 125h38v-117
q-94 -60 -193 -62l-20 -37q46 0 75.5 -18t29.5 -54q0 -38 -42 -66t-101 -36z" />
    <glyph glyph-name="egrave" unicode="&#xe8;" horiz-adv-x="577" 
d="M240 49h182l58 89h43l-21 -138h-433v38l72 15v412l-72 15v38h407l13 -124h-42l-52 75h-155v-179h96l27 57h32v-167h-32l-27 63h-96v-194zM356 576v-8h-51l-129 162v10h94z" />
    <glyph glyph-name="eacute" unicode="&#xe9;" horiz-adv-x="577" 
d="M240 49h182l58 89h43l-21 -138h-433v38l72 15v412l-72 15v38h407l13 -124h-42l-52 75h-155v-179h96l27 57h32v-167h-32l-27 63h-96v-194zM236 568v8l86 164h94v-10l-129 -162h-51z" />
    <glyph glyph-name="ecircumflex" unicode="&#xea;" horiz-adv-x="577" 
d="M240 49h182l58 89h43l-21 -138h-433v38l72 15v412l-72 15v38h407l13 -124h-42l-52 75h-155v-179h96l27 57h32v-167h-32l-27 63h-96v-194zM441 576v-8h-46l-99 99l-99 -99h-46v8l121 164h48z" />
    <glyph glyph-name="edieresis" unicode="&#xeb;" horiz-adv-x="577" 
d="M240 49h182l58 89h43l-21 -138h-433v38l72 15v412l-72 15v38h407l13 -124h-42l-52 75h-155v-179h96l27 57h32v-167h-32l-27 63h-96v-194zM434 649q0 -20 -16 -35.5t-36 -15.5q-21 0 -37 15.5t-16 35.5q0 21 16 37t37 16q20 0 36 -16t16 -37zM263 649q0 -21 -15.5 -36
t-36.5 -15t-37 15.5t-16 35.5q0 21 16 37t37 16t36.5 -16t15.5 -37z" />
    <glyph glyph-name="igrave" unicode="&#xec;" horiz-adv-x="400" 
d="M79 518h242v-38l-71 -15v-412l71 -15v-38h-242v38l72 15v412l-72 15v38zM260 576v-8h-51l-129 162v10h94z" />
    <glyph glyph-name="iacute" unicode="&#xed;" horiz-adv-x="400" 
d="M79 518h242v-38l-71 -15v-412l71 -15v-38h-242v38l72 15v412l-72 15v38zM140 568v8l86 164h94v-10l-129 -162h-51z" />
    <glyph glyph-name="icircumflex" unicode="&#xee;" horiz-adv-x="400" 
d="M79 518h242v-38l-71 -15v-412l71 -15v-38h-242v38l72 15v412l-72 15v38zM345 576v-8h-46l-99 99l-99 -99h-46v8l121 164h48z" />
    <glyph glyph-name="idieresis" unicode="&#xef;" horiz-adv-x="400" 
d="M79 518h242v-38l-71 -15v-412l71 -15v-38h-242v38l72 15v412l-72 15v38zM338 649q0 -20 -16 -35.5t-36 -15.5q-21 0 -37 15.5t-16 35.5q0 21 16 37t37 16q20 0 36 -16t16 -37zM167 649q0 -21 -15.5 -36t-36.5 -15t-37 15.5t-16 35.5q0 21 16 37t37 16t36.5 -16t15.5 -37z
" />
    <glyph glyph-name="eth" unicode="&#xf0;" horiz-adv-x="666" 
d="M299 0h-230v38l72 15v180h-87v47h87v185l-72 15v38h239q135 0 212 -69.5t77 -192.5q0 -121 -83 -188.5t-215 -67.5zM240 53h59q84 0 138 50t54 154q0 99 -52 153.5t-132 54.5h-67v-185h148v-47h-148v-180z" />
    <glyph glyph-name="ntilde" unicode="&#xf1;" horiz-adv-x="693" 
d="M498 177h12v278l-82 25v38h208v-38l-71 -25v-462h-30l-340 400h-12v-330l82 -25v-38h-201v38l64 25v402l-64 15v38h143zM478 728l26 -10q-14 -49 -43 -87t-55 -38q-15 0 -63.5 30t-63.5 30q-16 0 -27.5 -16t-25.5 -47l-29 12q11 40 41 81.5t48 41.5q19 0 65 -30.5
t64 -30.5q17 0 36 21t27 43z" />
    <glyph glyph-name="ograve" unicode="&#xf2;" horiz-adv-x="678" 
d="M69 256q0 122 78 196.5t193 74.5q119 0 194 -73.5t75 -197.5q0 -128 -76.5 -198.5t-192.5 -70.5t-193.5 72t-77.5 197zM179 257q0 -101 46.5 -158.5t114.5 -57.5q70 0 115 52.5t45 163.5q0 105 -45 162.5t-115 57.5q-69 0 -115 -58t-46 -162zM399 576v-8h-51l-129 162v10
h94z" />
    <glyph glyph-name="oacute" unicode="&#xf3;" horiz-adv-x="678" 
d="M69 256q0 122 78 196.5t193 74.5q119 0 194 -73.5t75 -197.5q0 -128 -76.5 -198.5t-192.5 -70.5t-193.5 72t-77.5 197zM179 257q0 -101 46.5 -158.5t114.5 -57.5q70 0 115 52.5t45 163.5q0 105 -45 162.5t-115 57.5q-69 0 -115 -58t-46 -162zM279 568v8l86 164h94v-10
l-129 -162h-51z" />
    <glyph glyph-name="ocircumflex" unicode="&#xf4;" horiz-adv-x="678" 
d="M69 256q0 122 78 196.5t193 74.5q119 0 194 -73.5t75 -197.5q0 -128 -76.5 -198.5t-192.5 -70.5t-193.5 72t-77.5 197zM179 257q0 -101 46.5 -158.5t114.5 -57.5q70 0 115 52.5t45 163.5q0 105 -45 162.5t-115 57.5q-69 0 -115 -58t-46 -162zM484 576v-8h-46l-99 99
l-99 -99h-46v8l121 164h48z" />
    <glyph glyph-name="otilde" unicode="&#xf5;" horiz-adv-x="678" 
d="M69 256q0 122 78 196.5t193 74.5q119 0 194 -73.5t75 -197.5q0 -128 -76.5 -198.5t-192.5 -70.5t-193.5 72t-77.5 197zM179 257q0 -101 46.5 -158.5t114.5 -57.5q70 0 115 52.5t45 163.5q0 105 -45 162.5t-115 57.5q-69 0 -115 -58t-46 -162zM467 728l26 -10
q-14 -49 -43 -87t-55 -38q-15 0 -63.5 30t-63.5 30q-16 0 -27.5 -16t-25.5 -47l-29 12q11 40 41 81.5t48 41.5q19 0 65 -30.5t64 -30.5q17 0 36 21t27 43z" />
    <glyph glyph-name="odieresis" unicode="&#xf6;" horiz-adv-x="678" 
d="M69 256q0 122 78 196.5t193 74.5q119 0 194 -73.5t75 -197.5q0 -128 -76.5 -198.5t-192.5 -70.5t-193.5 72t-77.5 197zM179 257q0 -101 46.5 -158.5t114.5 -57.5q70 0 115 52.5t45 163.5q0 105 -45 162.5t-115 57.5q-69 0 -115 -58t-46 -162zM477 649q0 -20 -16 -35.5
t-36 -15.5q-21 0 -37 15.5t-16 35.5q0 21 16 37t37 16q20 0 36 -16t16 -37zM306 649q0 -21 -15 -36t-37 -15q-21 0 -37 15.5t-16 35.5q0 21 16 37t37 16t36.5 -16t15.5 -37z" />
    <glyph glyph-name="divide" unicode="&#xf7;" horiz-adv-x="540" 
d="M217 88q0 22 14.5 37t36.5 15t37 -15t15 -37t-15 -36.5t-37 -14.5t-36.5 14.5t-14.5 36.5zM472 210h-404v62h404v-62zM217 393q0 22 14.5 37t36.5 15t37 -15t15 -37t-15 -36.5t-37 -14.5t-36.5 14.5t-14.5 36.5z" />
    <glyph glyph-name="oslash" unicode="&#xf8;" horiz-adv-x="678" 
d="M69 256q0 122 78 196.5t193 74.5q91 0 159 -45l50 63h60l-74 -93q74 -74 74 -196q0 -128 -76.5 -198.5t-192.5 -70.5q-82 0 -148 37l-62 -78h-60l84 105q-85 75 -85 205zM179 257q0 -83 31 -136l242 302q-44 54 -112 54q-69 0 -115 -58t-46 -162zM500 257q0 72 -23 123
l-238 -297q42 -42 101 -42q70 0 115 52.5t45 163.5z" />
    <glyph glyph-name="ugrave" unicode="&#xf9;" horiz-adv-x="661" 
d="M409 518h203v-38l-66 -25v-254q0 -37 -12.5 -73.5t-37 -68.5t-67.5 -52t-98 -20q-95 0 -152.5 59t-57.5 132v287l-72 15v38h242v-38l-71 -15v-275q0 -63 34 -103.5t94 -40.5q63 0 102.5 43.5t39.5 125.5v240l-81 25v38zM410 576v-8h-51l-129 162v10h94z" />
    <glyph glyph-name="uacute" unicode="&#xfa;" horiz-adv-x="661" 
d="M409 518h203v-38l-66 -25v-254q0 -37 -12.5 -73.5t-37 -68.5t-67.5 -52t-98 -20q-95 0 -152.5 59t-57.5 132v287l-72 15v38h242v-38l-71 -15v-275q0 -63 34 -103.5t94 -40.5q63 0 102.5 43.5t39.5 125.5v240l-81 25v38zM290 568v8l86 164h94v-10l-129 -162h-51z" />
    <glyph glyph-name="ucircumflex" unicode="&#xfb;" horiz-adv-x="661" 
d="M409 518h203v-38l-66 -25v-254q0 -37 -12.5 -73.5t-37 -68.5t-67.5 -52t-98 -20q-95 0 -152.5 59t-57.5 132v287l-72 15v38h242v-38l-71 -15v-275q0 -63 34 -103.5t94 -40.5q63 0 102.5 43.5t39.5 125.5v240l-81 25v38zM495 576v-8h-46l-99 99l-99 -99h-46v8l121 164h48z
" />
    <glyph glyph-name="udieresis" unicode="&#xfc;" horiz-adv-x="661" 
d="M409 518h203v-38l-66 -25v-254q0 -37 -12.5 -73.5t-37 -68.5t-67.5 -52t-98 -20q-95 0 -152.5 59t-57.5 132v287l-72 15v38h242v-38l-71 -15v-275q0 -63 34 -103.5t94 -40.5q63 0 102.5 43.5t39.5 125.5v240l-81 25v38zM488 649q0 -20 -16 -35.5t-36 -15.5
q-21 0 -37 15.5t-16 35.5q0 21 16 37t37 16q20 0 36 -16t16 -37zM317 649q0 -21 -15.5 -36t-36.5 -15t-37 15.5t-16 35.5q0 21 16 37t37 16t36.5 -16t15.5 -37z" />
    <glyph glyph-name="yacute" unicode="&#xfd;" horiz-adv-x="603" 
d="M332 276l108 179l-79 25v38h203v-38l-65 -25l-148 -246v-156l72 -15v-38h-243v38l72 15v156l-151 256l-62 15v38h232v-38l-61 -15l108 -189h14zM256 568v8l86 164h94v-10l-129 -162h-51z" />
    <glyph glyph-name="thorn" unicode="&#xfe;" horiz-adv-x="561" 
d="M69 518h242v-38l-71 -15v-41h85q71 0 126.5 -37.5t55.5 -111.5q0 -72 -54 -114t-148 -42h-65v-66l71 -15v-38h-242v38l72 15v412l-72 15v38zM311 371h-71v-205h73q38 0 65 29t27 75q0 49 -26 75t-68 26z" />
    <glyph glyph-name="ydieresis" unicode="&#xff;" horiz-adv-x="603" 
d="M332 276l108 179l-79 25v38h203v-38l-65 -25l-148 -246v-156l72 -15v-38h-243v38l72 15v156l-151 256l-62 15v38h232v-38l-61 -15l108 -189h14zM454 649q0 -20 -16 -35.5t-36 -15.5q-21 0 -37 15.5t-16 35.5q0 21 16 37t37 16q20 0 36 -16t16 -37zM283 649
q0 -21 -15.5 -36t-36.5 -15t-37 15.5t-16 35.5q0 21 16 37t37 16t36.5 -16t15.5 -37z" />
    <glyph glyph-name="Amacron" unicode="&#x100;" horiz-adv-x="748" 
d="M527 55l-69 189h-224l-64 -189l91 -15v-40h-224v40l75 15l224 651h65l234 -651l76 -15v-40h-264v40zM336 546l-83 -247h185l-86 247h-16zM498 798h-254v58h254v-58z" />
    <glyph glyph-name="amacron" unicode="&#x101;" horiz-adv-x="630" 
d="M428 53l-45 117h-178l-42 -107l80 -25v-38h-206v38l68 25l184 455h61l183 -465l60 -15v-38h-232v38zM292 386l-68 -169h141l-65 169h-8zM444 610h-254v58h254v-58z" />
    <glyph glyph-name="Abreve" unicode="&#x102;" horiz-adv-x="748" 
d="M527 55l-69 189h-224l-64 -189l91 -15v-40h-224v40l75 15l224 651h65l234 -651l76 -15v-40h-264v40zM336 546l-83 -247h185l-86 247h-16zM371 756q-50 0 -85 33.5t-35 98.5h40q0 -30 22.5 -51.5t57.5 -21.5q32 0 56 21t24 52h40q0 -65 -35 -98.5t-85 -33.5z" />
    <glyph glyph-name="abreve" unicode="&#x103;" horiz-adv-x="630" 
d="M428 53l-45 117h-178l-42 -107l80 -25v-38h-206v38l68 25l184 455h61l183 -465l60 -15v-38h-232v38zM292 386l-68 -169h141l-65 169h-8zM317 573q-50 0 -85 39t-35 113h40q0 -35 22.5 -61.5t57.5 -26.5q32 0 56 25.5t24 62.5h40q0 -74 -35 -113t-85 -39z" />
    <glyph glyph-name="Aogonek" unicode="&#x104;" horiz-adv-x="748" 
d="M532 -187l6 -26q-27 -11 -68 -11q-49 0 -79 21t-30 58q0 98 172 184l-75 205h-224l-64 -189l91 -15v-40h-224v40l75 15l224 651h65l234 -651l76 -15v-40h-178q-38 -16 -65.5 -51t-27.5 -80q0 -28 15.5 -45t38.5 -17q18 0 38 6zM336 546l-83 -247h185l-86 247h-16z" />
    <glyph glyph-name="aogonek" unicode="&#x105;" horiz-adv-x="630" 
d="M429 -187l6 -26q-27 -11 -68 -11q-49 0 -79 21t-30 58q0 93 173 192l-48 123h-178l-42 -107l80 -25v-38h-206v38l68 25l184 455h61l183 -465l60 -15v-38h-168q-88 -52 -88 -131q0 -28 15.5 -45t38.5 -17q18 0 38 6zM292 386l-68 -169h141l-65 169h-8z" />
    <glyph glyph-name="Cacute" unicode="&#x106;" horiz-adv-x="782" 
d="M430 43q83 0 142.5 41.5t85.5 117.5h32v-137q-65 -38 -125 -57.5t-146 -19.5q-148 0 -246 97t-98 267q0 164 106.5 265t261.5 101q112 0 239 -71v-141h-33q-29 84 -84.5 123t-121.5 39q-107 0 -179 -80.5t-72 -234.5q0 -147 72 -228.5t166 -81.5zM372 756v8l86 129h94
v-10l-129 -127h-51z" />
    <glyph glyph-name="cacute" unicode="&#x107;" horiz-adv-x="632" 
d="M349 41q121 0 161 125h38v-117q-98 -62 -203 -62q-118 0 -197 72t-79 197q0 122 79.5 196.5t196.5 74.5q91 0 196 -56v-121h-38q-46 127 -158 127q-70 0 -118 -60t-48 -160q0 -93 53.5 -154.5t116.5 -61.5zM288 568v8l86 164h94v-10l-129 -162h-51z" />
    <glyph glyph-name="Ccircumflex" unicode="&#x108;" horiz-adv-x="782" 
d="M430 43q83 0 142.5 41.5t85.5 117.5h32v-137q-65 -38 -125 -57.5t-146 -19.5q-148 0 -246 97t-98 267q0 164 106.5 265t261.5 101q112 0 239 -71v-141h-33q-29 84 -84.5 123t-121.5 39q-107 0 -179 -80.5t-72 -234.5q0 -147 72 -228.5t166 -81.5zM577 764v-8h-46l-99 69
l-99 -69h-46v8l121 129h48z" />
    <glyph glyph-name="ccircumflex" unicode="&#x109;" horiz-adv-x="632" 
d="M349 41q121 0 161 125h38v-117q-98 -62 -203 -62q-118 0 -197 72t-79 197q0 122 79.5 196.5t196.5 74.5q91 0 196 -56v-121h-38q-46 127 -158 127q-70 0 -118 -60t-48 -160q0 -93 53.5 -154.5t116.5 -61.5zM493 576v-8h-46l-99 99l-99 -99h-46v8l121 164h48z" />
    <glyph glyph-name="Cdotaccent" unicode="&#x10a;" horiz-adv-x="782" 
d="M430 43q83 0 142.5 41.5t85.5 117.5h32v-137q-65 -38 -125 -57.5t-146 -19.5q-148 0 -246 97t-98 267q0 164 106.5 265t261.5 101q112 0 239 -71v-141h-33q-29 84 -84.5 123t-121.5 39q-107 0 -179 -80.5t-72 -234.5q0 -147 72 -228.5t166 -81.5zM367 832q0 27 18.5 46
t45.5 19t46.5 -19t19.5 -46t-19.5 -45.5t-46.5 -18.5t-45.5 18.5t-18.5 45.5z" />
    <glyph glyph-name="cdotaccent" unicode="&#x10b;" horiz-adv-x="632" 
d="M349 41q121 0 161 125h38v-117q-98 -62 -203 -62q-118 0 -197 72t-79 197q0 122 79.5 196.5t196.5 74.5q91 0 196 -56v-121h-38q-46 127 -158 127q-70 0 -118 -60t-48 -160q0 -93 53.5 -154.5t116.5 -61.5zM283 674q0 27 18.5 46t45.5 19t46.5 -19t19.5 -46t-19.5 -45.5
t-46.5 -18.5t-45.5 18.5t-18.5 45.5z" />
    <glyph glyph-name="Ccaron" unicode="&#x10c;" horiz-adv-x="782" 
d="M430 43q83 0 142.5 41.5t85.5 117.5h32v-137q-65 -38 -125 -57.5t-146 -19.5q-148 0 -246 97t-98 267q0 164 106.5 265t261.5 101q112 0 239 -71v-141h-33q-29 84 -84.5 123t-121.5 39q-107 0 -179 -80.5t-72 -234.5q0 -147 72 -228.5t166 -81.5zM577 893v-8l-121 -129
h-48l-121 129v8h46l99 -69l99 69h46z" />
    <glyph glyph-name="ccaron" unicode="&#x10d;" horiz-adv-x="632" 
d="M349 41q121 0 161 125h38v-117q-98 -62 -203 -62q-118 0 -197 72t-79 197q0 122 79.5 196.5t196.5 74.5q91 0 196 -56v-121h-38q-46 127 -158 127q-70 0 -118 -60t-48 -160q0 -93 53.5 -154.5t116.5 -61.5zM493 740v-8l-121 -164h-48l-121 164v8h46l99 -99l99 99h46z" />
    <glyph glyph-name="Dcaron" unicode="&#x10e;" horiz-adv-x="839" 
d="M360 0h-291v40l88 15v596l-88 15v40h301q183 0 288.5 -95t105.5 -261t-112 -258t-292 -92zM263 55h97q125 0 206 72.5t81 223.5q0 145 -76.5 222.5t-201.5 77.5h-106v-596zM499 893v-8l-121 -129h-48l-121 129v8h46l99 -69l99 69h46z" />
    <glyph glyph-name="dcaron" unicode="&#x10f;" horiz-adv-x="666" 
d="M299 0h-230v38l72 15v412l-72 15v38h239q135 0 212 -69.5t77 -192.5q0 -121 -83 -188.5t-215 -67.5zM240 53h59q84 0 138 50t54 154q0 99 -52 153.5t-132 54.5h-67v-412zM467 740v-8l-121 -164h-48l-121 164v8h46l99 -99l99 99h46z" />
    <glyph glyph-name="Dcroat" unicode="&#x110;" horiz-adv-x="839" 
d="M69 379h88v272l-88 15v40h301q183 0 288.5 -95t105.5 -261t-112 -258t-292 -92h-291v40l88 15v269h-88v55zM263 55h97q125 0 206 72.5t81 223.5q0 145 -76.5 222.5t-201.5 77.5h-106v-272h165v-55h-165v-269z" />
    <glyph glyph-name="dcroat" unicode="&#x111;" horiz-adv-x="666" 
d="M299 0h-230v38l72 15v180h-87v47h87v185l-72 15v38h239q135 0 212 -69.5t77 -192.5q0 -121 -83 -188.5t-215 -67.5zM240 53h59q84 0 138 50t54 154q0 99 -52 153.5t-132 54.5h-67v-185h148v-47h-148v-180z" />
    <glyph glyph-name="Emacron" unicode="&#x112;" horiz-adv-x="687" 
d="M263 48h240l91 139h44l-36 -187h-533v40l88 15v596l-88 15v40h502l16 -157h-44l-71 109h-209v-259h137l32 94h40v-250h-40l-32 101h-137v-296zM480 798h-254v58h254v-58z" />
    <glyph glyph-name="emacron" unicode="&#x113;" horiz-adv-x="577" 
d="M240 49h182l58 89h43l-21 -138h-433v38l72 15v412l-72 15v38h407l13 -124h-42l-52 75h-155v-179h96l27 57h32v-167h-32l-27 63h-96v-194zM423 610h-254v58h254v-58z" />
    <glyph glyph-name="Edotaccent" unicode="&#x116;" horiz-adv-x="687" 
d="M263 48h240l91 139h44l-36 -187h-533v40l88 15v596l-88 15v40h502l16 -157h-44l-71 109h-209v-259h137l32 94h40v-250h-40l-32 101h-137v-296zM288 832q0 27 18.5 46t45.5 19t46.5 -19t19.5 -46t-19.5 -45.5t-46.5 -18.5t-45.5 18.5t-18.5 45.5z" />
    <glyph glyph-name="edotaccent" unicode="&#x117;" horiz-adv-x="577" 
d="M240 49h182l58 89h43l-21 -138h-433v38l72 15v412l-72 15v38h407l13 -124h-42l-52 75h-155v-179h96l27 57h32v-167h-32l-27 63h-96v-194zM231 674q0 27 18.5 46t45.5 19t46.5 -19t19.5 -46t-19.5 -45.5t-46.5 -18.5t-45.5 18.5t-18.5 45.5z" />
    <glyph glyph-name="Eogonek" unicode="&#x118;" horiz-adv-x="687" 
d="M531 -4l-2 4h-460v40l88 15v596l-88 15v40h502l16 -157h-44l-71 109h-209v-259h137l32 94h40v-250h-40l-32 101h-137v-296h240l91 139h44l-37 -187q-103 -47 -103 -131q0 -28 15.5 -45t38.5 -17q18 0 38 6l6 -26q-28 -11 -68 -11q-49 0 -79 21t-30 58q0 76 112 141z" />
    <glyph glyph-name="eogonek" unicode="&#x119;" horiz-adv-x="577" 
d="M421 -7l-4 7h-348v38l72 15v412l-72 15v38h407l13 -124h-42l-52 75h-155v-179h96l27 57h32v-167h-32l-27 63h-96v-194h182l58 89h43l-21 -138q-54 -24 -81 -60.5t-27 -70.5q0 -28 15.5 -45t38.5 -17q18 0 38 6l6 -26q-28 -11 -68 -11q-49 0 -79 21t-30 58q0 73 106 138z
" />
    <glyph glyph-name="Ecaron" unicode="&#x11a;" horiz-adv-x="687" 
d="M263 48h240l91 139h44l-36 -187h-533v40l88 15v596l-88 15v40h502l16 -157h-44l-71 109h-209v-259h137l32 94h40v-250h-40l-32 101h-137v-296zM498 893v-8l-121 -129h-48l-121 129v8h46l99 -69l99 69h46z" />
    <glyph glyph-name="ecaron" unicode="&#x11b;" horiz-adv-x="577" 
d="M240 49h182l58 89h43l-21 -138h-433v38l72 15v412l-72 15v38h407l13 -124h-42l-52 75h-155v-179h96l27 57h32v-167h-32l-27 63h-96v-194zM441 740v-8l-121 -164h-48l-121 164v8h46l99 -99l99 99h46z" />
    <glyph glyph-name="Gcircumflex" unicode="&#x11c;" horiz-adv-x="815" 
d="M440 43q84 0 137 44v210l-117 15v40h300v-40l-77 -15v-252q-130 -57 -274 -57t-239 97t-95 267q0 164 106.5 265t261.5 101q112 0 239 -71v-141h-33q-29 84 -84.5 123t-121.5 39q-109 0 -180 -77.5t-71 -237.5q0 -158 69.5 -234t178.5 -76zM574 764v-8h-46l-99 69
l-99 -69h-46v8l121 129h48z" />
    <glyph glyph-name="gcircumflex" unicode="&#x11d;" horiz-adv-x="654" 
d="M343 41q66 0 104 30v130l-87 19v38h248v-38l-62 -15v-163q-93 -55 -203 -55q-115 0 -194.5 72t-79.5 197q0 122 79.5 196.5t196.5 74.5q91 0 196 -56v-121h-38q-46 127 -158 127q-71 0 -118.5 -57.5t-47.5 -162.5q0 -97 47.5 -156.5t116.5 -59.5zM478 576v-8h-46l-99 99
l-99 -99h-46v8l121 164h48z" />
    <glyph glyph-name="Gbreve" unicode="&#x11e;" horiz-adv-x="815" 
d="M440 43q84 0 137 44v210l-117 15v40h300v-40l-77 -15v-252q-130 -57 -274 -57t-239 97t-95 267q0 164 106.5 265t261.5 101q112 0 239 -71v-141h-33q-29 84 -84.5 123t-121.5 39q-109 0 -180 -77.5t-71 -237.5q0 -158 69.5 -234t178.5 -76zM429 756q-50 0 -85 33.5
t-35 98.5h40q0 -30 22.5 -51.5t57.5 -21.5q32 0 56 21t24 52h40q0 -65 -35 -98.5t-85 -33.5z" />
    <glyph glyph-name="gbreve" unicode="&#x11f;" horiz-adv-x="654" 
d="M343 41q66 0 104 30v130l-87 19v38h248v-38l-62 -15v-163q-93 -55 -203 -55q-115 0 -194.5 72t-79.5 197q0 122 79.5 196.5t196.5 74.5q91 0 196 -56v-121h-38q-46 127 -158 127q-71 0 -118.5 -57.5t-47.5 -162.5q0 -97 47.5 -156.5t116.5 -59.5zM333 573q-50 0 -85 39
t-35 113h40q0 -35 22.5 -61.5t57.5 -26.5q32 0 56 25.5t24 62.5h40q0 -74 -35 -113t-85 -39z" />
    <glyph glyph-name="Gdotaccent" unicode="&#x120;" horiz-adv-x="815" 
d="M440 43q84 0 137 44v210l-117 15v40h300v-40l-77 -15v-252q-130 -57 -274 -57t-239 97t-95 267q0 164 106.5 265t261.5 101q112 0 239 -71v-141h-33q-29 84 -84.5 123t-121.5 39q-109 0 -180 -77.5t-71 -237.5q0 -158 69.5 -234t178.5 -76zM364 832q0 27 18.5 46t45.5 19
t46.5 -19t19.5 -46t-19.5 -45.5t-46.5 -18.5t-45.5 18.5t-18.5 45.5z" />
    <glyph glyph-name="gdotaccent" unicode="&#x121;" horiz-adv-x="654" 
d="M343 41q66 0 104 30v130l-87 19v38h248v-38l-62 -15v-163q-93 -55 -203 -55q-115 0 -194.5 72t-79.5 197q0 122 79.5 196.5t196.5 74.5q91 0 196 -56v-121h-38q-46 127 -158 127q-71 0 -118.5 -57.5t-47.5 -162.5q0 -97 47.5 -156.5t116.5 -59.5zM268 674q0 27 18.5 46
t45.5 19t46.5 -19t19.5 -46t-19.5 -45.5t-46.5 -18.5t-45.5 18.5t-18.5 45.5z" />
    <glyph glyph-name="Gcommaaccent" unicode="&#x122;" horiz-adv-x="815" 
d="M440 43q84 0 137 44v210l-117 15v40h300v-40l-77 -15v-252q-130 -57 -274 -57t-239 97t-95 267q0 164 106.5 265t261.5 101q112 0 239 -71v-141h-33q-29 84 -84.5 123t-121.5 39q-109 0 -180 -77.5t-71 -237.5q0 -158 69.5 -234t178.5 -76zM390 -81q0 14 12.5 25.5
t32.5 11.5q28 0 47 -22.5t19 -57.5q0 -65 -85 -112l-19 28q47 27 47 58q0 18 -27 35.5t-27 33.5z" />
    <glyph glyph-name="gcommaaccent" unicode="&#x123;" horiz-adv-x="654" 
d="M343 41q66 0 104 30v130l-87 19v38h248v-38l-62 -15v-163q-93 -55 -203 -55q-115 0 -194.5 72t-79.5 197q0 122 79.5 196.5t196.5 74.5q91 0 196 -56v-121h-38q-46 127 -158 127q-71 0 -118.5 -57.5t-47.5 -162.5q0 -97 47.5 -156.5t116.5 -59.5zM288 -80q0 14 12.5 25.5
t32.5 11.5q28 0 47 -22.5t19 -57.5q0 -65 -85 -112l-19 28q47 27 47 58q0 18 -27 35.5t-27 33.5z" />
    <glyph glyph-name="Hcircumflex" unicode="&#x124;" horiz-adv-x="875" 
d="M524 706h282v-40l-88 -15v-596l88 -15v-40h-282v40l88 15v289h-349v-289l88 -15v-40h-282v40l88 15v596l-88 15v40h282v-40l-88 -15v-252h349v252l-88 15v40zM582 764v-8h-46l-99 69l-99 -69h-46v8l121 129h48z" />
    <glyph glyph-name="hcircumflex" unicode="&#x125;" horiz-adv-x="732" 
d="M420 518h243v-38l-72 -15v-412l72 -15v-38h-243v38l72 15v190h-252v-190l71 -15v-38h-242v38l72 15v412l-72 15v38h242v-38l-71 -15v-175h252v175l-72 15v38zM511 571v-8h-46l-99 99l-99 -99h-46v8l121 164h48z" />
    <glyph glyph-name="Hbar" unicode="&#x126;" horiz-adv-x="875" 
d="M94 555h63v96l-88 15v40h282v-40l-88 -15v-96h349v96l-88 15v40h282v-40l-88 -15v-96h68v-55h-68v-445l88 -15v-40h-282v40l88 15v289h-349v-289l88 -15v-40h-282v40l88 15v445h-63v55zM263 399h349v101h-349v-101z" />
    <glyph glyph-name="hbar" unicode="&#x127;" horiz-adv-x="732" 
d="M89 405h52v60l-72 15v38h242v-38l-71 -15v-60h252v60l-72 15v38h243v-38l-72 -15v-60h52v-50h-52v-302l72 -15v-38h-243v38l72 15v190h-252v-190l71 -15v-38h-242v38l72 15v302h-52v50zM240 290h252v65h-252v-65z" />
    <glyph glyph-name="Imacron" unicode="&#x12a;" horiz-adv-x="420" 
d="M69 706h282v-40l-88 -15v-596l88 -15v-40h-282v40l88 15v596l-88 15v40zM337 798h-254v58h254v-58z" />
    <glyph glyph-name="imacron" unicode="&#x12b;" horiz-adv-x="400" 
d="M79 518h242v-38l-71 -15v-412l71 -15v-38h-242v38l72 15v412l-72 15v38zM327 610h-254v58h254v-58z" />
    <glyph glyph-name="Iogonek" unicode="&#x12e;" horiz-adv-x="420" 
d="M261 -5l-3 5h-189v40l88 15v596l-88 15v40h282v-40l-88 -15v-596l88 -15v-40q-58 -13 -92 -52.5t-34 -78.5q0 -28 15.5 -45t38.5 -17q18 0 38 6l6 -26q-27 -11 -68 -11q-49 0 -79 21t-30 58q0 39 30.5 76.5t84.5 63.5z" />
    <glyph glyph-name="iogonek" unicode="&#x12f;" horiz-adv-x="400" 
d="M242 -7l-2 7h-161v38l72 15v412l-72 15v38h242v-38l-71 -15v-412l71 -15v-38q-104 -48 -104 -131q0 -28 15.5 -45t38.5 -17q18 0 38 6l6 -26q-27 -11 -68 -11q-49 0 -79 21t-30 58q0 36 28 72.5t76 65.5z" />
    <glyph glyph-name="Idotaccent" unicode="&#x130;" horiz-adv-x="420" 
d="M69 706h282v-40l-88 -15v-596l88 -15v-40h-282v40l88 15v596l-88 15v40zM145 832q0 27 18.5 46t45.5 19t46.5 -19t19.5 -46t-19.5 -45.5t-46.5 -18.5t-45.5 18.5t-18.5 45.5z" />
    <glyph glyph-name="dotlessi" unicode="&#x131;" horiz-adv-x="400" 
d="M79 518h242v-38l-71 -15v-412l71 -15v-38h-242v38l72 15v412l-72 15v38z" />
    <glyph glyph-name="Jcircumflex" unicode="&#x134;" horiz-adv-x="445" 
d="M175 -49v700l-106 15v40h307v-40l-95 -15v-604q0 -119 -78 -205.5t-164 -86.5q-41 0 -66.5 17t-25.5 51q0 26 16.5 41t42.5 15q20 0 48.5 -12.5t52.5 -12.5q68 0 68 97zM374 764v-8h-46l-99 69l-99 -69h-46v8l121 129h48z" />
    <glyph glyph-name="jcircumflex" unicode="&#x135;" horiz-adv-x="411" 
d="M172 -51v516l-77 15v38h247v-38l-71 -15v-428q0 -90 -62.5 -160.5t-129.5 -70.5q-35 0 -57 14.5t-22 43.5q0 23 13 36t33 13q17 0 37 -15.5t35 -15.5q54 0 54 67zM367 571v-8h-46l-99 99l-99 -99h-46v8l121 164h48z" />
    <glyph glyph-name="Kcommaaccent" unicode="&#x136;" horiz-adv-x="795" 
d="M276 326h-13v-271l87 -15v-40h-281v40l88 15v596l-88 15v40h281v-40l-87 -15v-271h16l271 271l-70 15v40h228v-40l-81 -15l-272 -272l322 -324l81 -15v-40h-291v40l71 15zM364 -81q0 14 12.5 25.5t32.5 11.5q28 0 47 -22.5t19 -57.5q0 -65 -85 -112l-19 28q47 27 47 58
q0 18 -27 35.5t-27 33.5z" />
    <glyph glyph-name="kcommaaccent" unicode="&#x137;" horiz-adv-x="640" 
d="M256 248h-16v-195l66 -15v-38h-237v38l72 15v412l-72 15v38h242v-38l-71 -15v-175h19l176 170l-63 20v38h207v-38l-75 -20l-170 -162l210 -248l57 -12v-38h-237v38l56 15zM289 -81q0 14 12.5 25.5t32.5 11.5q28 0 47 -22.5t19 -57.5q0 -65 -85 -112l-19 28q47 27 47 58
q0 18 -27 35.5t-27 33.5z" />
    <glyph glyph-name="Lacute" unicode="&#x139;" horiz-adv-x="671" 
d="M598 0h-529v40l88 15v596l-88 15v40h286v-40l-92 -15v-603h226l101 149h44zM152 756v8l86 129h94v-10l-129 -127h-51z" />
    <glyph glyph-name="lacute" unicode="&#x13a;" horiz-adv-x="549" 
d="M484 0h-415v38l72 15v412l-72 15v38h246v-38l-75 -15v-416h155l67 97h43zM133 568v8l86 164h94v-10l-129 -162h-51z" />
    <glyph glyph-name="Lcommaaccent" unicode="&#x13b;" horiz-adv-x="671" 
d="M598 0h-529v40l88 15v596l-88 15v40h286v-40l-92 -15v-603h226l101 149h44zM302 -81q0 14 12.5 25.5t32.5 11.5q28 0 47 -22.5t19 -57.5q0 -65 -85 -112l-19 28q47 27 47 58q0 18 -27 35.5t-27 33.5z" />
    <glyph glyph-name="lcommaaccent" unicode="&#x13c;" horiz-adv-x="549" 
d="M484 0h-415v38l72 15v412l-72 15v38h246v-38l-75 -15v-416h155l67 97h43zM238 -81q0 14 12.5 25.5t32.5 11.5q28 0 47 -22.5t19 -57.5q0 -65 -85 -112l-19 28q47 27 47 58q0 18 -27 35.5t-27 33.5z" />
    <glyph glyph-name="Lcaron" unicode="&#x13d;" horiz-adv-x="671" 
d="M598 0h-529v40l88 15v596l-88 15v40h286v-40l-92 -15v-603h226l101 149h44zM435 499v8l16 199h84v-10l-54 -197h-46z" />
    <glyph glyph-name="lcaron" unicode="&#x13e;" horiz-adv-x="549" 
d="M380 311v8l16 199h84v-10l-54 -197h-46zM484 0h-415v38l72 15v412l-72 15v38h246v-38l-75 -15v-416h155l67 97h43z" />
    <glyph glyph-name="Ldot" unicode="&#x13f;" horiz-adv-x="720" 
d="M598 0h-529v40l88 15v596l-88 15v40h286v-40l-92 -15v-603h226l101 149h44zM584 363q0 27 18.5 46t45.5 19t46 -19t19 -46t-19 -45.5t-46 -18.5t-45.5 18.5t-18.5 45.5z" />
    <glyph glyph-name="ldot" unicode="&#x140;" horiz-adv-x="586" 
d="M484 0h-415v38l72 15v412l-72 15v38h246v-38l-75 -15v-416h155l67 97h43zM465 284q0 27 18.5 46t45.5 19t46 -19t19 -46t-19 -45.5t-46 -18.5t-45.5 18.5t-18.5 45.5z" />
    <glyph glyph-name="Lslash" unicode="&#x141;" horiz-adv-x="671" 
d="M69 293l88 41v317l-88 15v40h286v-40l-92 -15v-266l207 98v-59l-207 -98v-278h226l101 149h44l-36 -197h-529v40l88 15v220l-88 -41v59z" />
    <glyph glyph-name="lslash" unicode="&#x142;" horiz-adv-x="549" 
d="M484 0h-415v38l72 15v129l-73 -38v49l73 38v234l-72 15v38h246v-38l-75 -15v-182l158 84v-49l-158 -84v-185h155l67 97h43z" />
    <glyph glyph-name="Nacute" unicode="&#x143;" horiz-adv-x="843" 
d="M633 189h14v462l-88 15v40h230v-40l-87 -15v-653h-45l-455 559h-14v-502l88 -15v-40h-222v40l79 15v596l-79 15v40h159zM361 756v8l86 129h94v-10l-129 -127h-51z" />
    <glyph glyph-name="nacute" unicode="&#x144;" horiz-adv-x="693" 
d="M498 177h12v278l-82 25v38h208v-38l-71 -25v-462h-30l-340 400h-12v-330l82 -25v-38h-201v38l64 25v402l-64 15v38h143zM290 568v8l86 164h94v-10l-129 -162h-51z" />
    <glyph glyph-name="Ncommaaccent" unicode="&#x145;" horiz-adv-x="843" 
d="M633 189h14v462l-88 15v40h230v-40l-87 -15v-653h-45l-455 559h-14v-502l88 -15v-40h-222v40l79 15v596l-79 15v40h159zM376 -81q0 14 12.5 25.5t32.5 11.5q28 0 47 -22.5t19 -57.5q0 -65 -85 -112l-19 28q47 27 47 58q0 18 -27 35.5t-27 33.5z" />
    <glyph glyph-name="ncommaaccent" unicode="&#x146;" horiz-adv-x="693" 
d="M498 177h12v278l-82 25v38h208v-38l-71 -25v-462h-30l-340 400h-12v-330l82 -25v-38h-201v38l64 25v402l-64 15v38h143zM303 -81q0 14 12.5 25.5t32.5 11.5q28 0 47 -22.5t19 -57.5q0 -65 -85 -112l-19 28q47 27 47 58q0 18 -27 35.5t-27 33.5z" />
    <glyph glyph-name="Ncaron" unicode="&#x147;" horiz-adv-x="843" 
d="M633 189h14v462l-88 15v40h230v-40l-87 -15v-653h-45l-455 559h-14v-502l88 -15v-40h-222v40l79 15v596l-79 15v40h159zM566 893v-8l-121 -129h-48l-121 129v8h46l99 -69l99 69h46z" />
    <glyph glyph-name="ncaron" unicode="&#x148;" horiz-adv-x="693" 
d="M498 177h12v278l-82 25v38h208v-38l-71 -25v-462h-30l-340 400h-12v-330l82 -25v-38h-201v38l64 25v402l-64 15v38h143zM495 740v-8l-121 -164h-48l-121 164v8h46l99 -99l99 99h46z" />
    <glyph glyph-name="Omacron" unicode="&#x14c;" horiz-adv-x="825" 
d="M75 352q0 165 97.5 265.5t240.5 100.5q149 0 243 -99t94 -267q0 -174 -96 -269t-241 -95t-241.5 97t-96.5 267zM192 353q0 -158 62.5 -235.5t158.5 -77.5q220 0 220 313q0 164 -59.5 239.5t-160.5 75.5q-97 0 -159 -77.5t-62 -237.5zM539 798h-254v58h254v-58z" />
    <glyph glyph-name="omacron" unicode="&#x14d;" horiz-adv-x="678" 
d="M69 256q0 122 78 196.5t193 74.5q119 0 194 -73.5t75 -197.5q0 -128 -76.5 -198.5t-192.5 -70.5t-193.5 72t-77.5 197zM179 257q0 -101 46.5 -158.5t114.5 -57.5q70 0 115 52.5t45 163.5q0 105 -45 162.5t-115 57.5q-69 0 -115 -58t-46 -162zM466 610h-254v58h254v-58z
" />
    <glyph glyph-name="Ohungarumlaut" unicode="&#x150;" horiz-adv-x="825" 
d="M75 352q0 165 97.5 265.5t240.5 100.5q149 0 243 -99t94 -267q0 -174 -96 -269t-241 -95t-241.5 97t-96.5 267zM192 353q0 -158 62.5 -235.5t158.5 -77.5q220 0 220 313q0 164 -59.5 239.5t-160.5 75.5q-97 0 -159 -77.5t-62 -237.5zM437 756v8l86 129h94v-10l-139 -127
h-41zM297 756v8l86 129h94v-10l-139 -127h-41z" />
    <glyph glyph-name="ohungarumlaut" unicode="&#x151;" horiz-adv-x="678" 
d="M69 256q0 122 78 196.5t193 74.5q119 0 194 -73.5t75 -197.5q0 -128 -76.5 -198.5t-192.5 -70.5t-193.5 72t-77.5 197zM179 257q0 -101 46.5 -158.5t114.5 -57.5q70 0 115 52.5t45 163.5q0 105 -45 162.5t-115 57.5q-69 0 -115 -58t-46 -162zM369 568v8l86 164h94v-10
l-139 -162h-41zM229 568v8l86 164h94v-10l-139 -162h-41z" />
    <glyph glyph-name="OE" unicode="&#x152;" horiz-adv-x="1037" 
d="M613 48h240l91 139h44l-36 -187h-442q-47 -12 -97 -12q-145 0 -241.5 97t-96.5 267q0 165 97.5 265.5t240.5 100.5q51 0 96 -12h412l16 -157h-44l-71 109h-209v-259h137l32 94h40v-250h-40l-32 101h-137v-296zM413 40q54 0 94 18v590q-41 20 -94 20q-97 0 -159 -77.5
t-62 -237.5q0 -158 62.5 -235.5t158.5 -77.5z" />
    <glyph glyph-name="oe" unicode="&#x153;" horiz-adv-x="850" 
d="M513 49h182l58 89h43l-21 -138h-343q-42 -13 -92 -13q-116 0 -193.5 72t-77.5 197q0 122 78 196.5t193 74.5q39 0 75 -9h334l13 -124h-42l-52 75h-155v-179h96l27 57h32v-167h-32l-27 63h-96v-194zM340 41q42 0 74 18v398q-34 20 -74 20q-69 0 -115 -58t-46 -162
q0 -101 46.5 -158.5t114.5 -57.5z" />
    <glyph glyph-name="Racute" unicode="&#x154;" horiz-adv-x="725" 
d="M404 340v-11q33 -16 67 -69t71 -115t72 -90l63 -15v-40h-151q-30 23 -63 74t-57.5 99t-59.5 92.5t-69 59.5h-14v-270l98 -15v-40h-292v40l88 15v596l-88 15v40h315q24 0 49 -4.5t53.5 -17.5t50.5 -32.5t36.5 -53.5t14.5 -77q0 -58 -45.5 -110.5t-138.5 -70.5zM263 651
v-271h69q71 0 106.5 42.5t35.5 95.5q0 133 -108 133h-103zM288 756v8l86 129h94v-10l-129 -127h-51z" />
    <glyph glyph-name="racute" unicode="&#x155;" horiz-adv-x="621" 
d="M384 253v-9q23 -11 48 -49t52.5 -81t52.5 -61l45 -15v-38h-120q-26 17 -52 53t-44 70t-43.5 66.5t-52.5 42.5h-30v-179l71 -15v-38h-242v38l72 15v412l-72 15v38h271q25 0 50.5 -6t52.5 -20t44 -42.5t17 -67.5q0 -45 -32 -82t-88 -47zM240 465v-186h55q51 0 78 31t27 69
q0 44 -21.5 65t-54.5 21h-84zM238 568v8l86 164h94v-10l-129 -162h-51z" />
    <glyph glyph-name="Rcaron" unicode="&#x158;" horiz-adv-x="725" 
d="M404 340v-11q33 -16 67 -69t71 -115t72 -90l63 -15v-40h-151q-30 23 -63 74t-57.5 99t-59.5 92.5t-69 59.5h-14v-270l98 -15v-40h-292v40l88 15v596l-88 15v40h315q24 0 49 -4.5t53.5 -17.5t50.5 -32.5t36.5 -53.5t14.5 -77q0 -58 -45.5 -110.5t-138.5 -70.5zM263 651
v-271h69q71 0 106.5 42.5t35.5 95.5q0 133 -108 133h-103zM493 893v-8l-121 -129h-48l-121 129v8h46l99 -69l99 69h46z" />
    <glyph glyph-name="rcaron" unicode="&#x159;" horiz-adv-x="621" 
d="M384 253v-9q23 -11 48 -49t52.5 -81t52.5 -61l45 -15v-38h-120q-26 17 -52 53t-44 70t-43.5 66.5t-52.5 42.5h-30v-179l71 -15v-38h-242v38l72 15v412l-72 15v38h271q25 0 50.5 -6t52.5 -20t44 -42.5t17 -67.5q0 -45 -32 -82t-88 -47zM240 465v-186h55q51 0 78 31t27 69
q0 44 -21.5 65t-54.5 21h-84zM443 740v-8l-121 -164h-48l-121 164v8h46l99 -99l99 99h46z" />
    <glyph glyph-name="Sacute" unicode="&#x15a;" horiz-adv-x="636" 
d="M83 7v212h44q21 -89 72.5 -135t124.5 -46q57 0 94 31.5t37 80.5q0 54 -32.5 93.5t-126.5 77.5q-102 41 -147.5 89.5t-45.5 123.5q0 69 60.5 126.5t156.5 57.5q64 0 142 -31l42 19h25l20 -205h-37q-26 80 -77 123t-110 43q-54 0 -89 -27t-35 -76q0 -48 42 -87t131 -74
t134 -84t45 -129q0 -96 -64 -149t-165 -53q-81 0 -147 39l-49 -20h-45zM271 756v8l86 129h94v-10l-129 -127h-51z" />
    <glyph glyph-name="sacute" unicode="&#x15b;" horiz-adv-x="543" 
d="M90 2v172h48q15 -67 49 -102.5t85 -35.5q39 0 63.5 22.5t24.5 57.5q0 34 -22 57t-88 51q-76 33 -112 69.5t-36 88.5q0 56 45 100.5t119 44.5q37 0 96 -24l36 15h26l18 -157h-47q-18 58 -51 87t-74 29q-36 0 -57.5 -19.5t-21.5 -54.5q0 -31 27.5 -52.5t94.5 -47.5
q69 -27 102.5 -64t33.5 -95q0 -75 -49.5 -116t-127.5 -41q-57 0 -101 30l-43 -15h-38zM216 568v8l86 164h94v-10l-129 -162h-51z" />
    <glyph glyph-name="Scircumflex" unicode="&#x15c;" horiz-adv-x="636" 
d="M83 7v212h44q21 -89 72.5 -135t124.5 -46q57 0 94 31.5t37 80.5q0 54 -32.5 93.5t-126.5 77.5q-102 41 -147.5 89.5t-45.5 123.5q0 69 60.5 126.5t156.5 57.5q64 0 142 -31l42 19h25l20 -205h-37q-26 80 -77 123t-110 43q-54 0 -89 -27t-35 -76q0 -48 42 -87t131 -74
t134 -84t45 -129q0 -96 -64 -149t-165 -53q-81 0 -147 39l-49 -20h-45zM476 764v-8h-46l-99 69l-99 -69h-46v8l121 129h48z" />
    <glyph glyph-name="scircumflex" unicode="&#x15d;" horiz-adv-x="543" 
d="M90 2v172h48q15 -67 49 -102.5t85 -35.5q39 0 63.5 22.5t24.5 57.5q0 34 -22 57t-88 51q-76 33 -112 69.5t-36 88.5q0 56 45 100.5t119 44.5q37 0 96 -24l36 15h26l18 -157h-47q-18 58 -51 87t-74 29q-36 0 -57.5 -19.5t-21.5 -54.5q0 -31 27.5 -52.5t94.5 -47.5
q69 -27 102.5 -64t33.5 -95q0 -75 -49.5 -116t-127.5 -41q-57 0 -101 30l-43 -15h-38zM421 576v-8h-46l-99 99l-99 -99h-46v8l121 164h48z" />
    <glyph glyph-name="Scedilla" unicode="&#x15e;" horiz-adv-x="636" 
d="M275 -224l-8 25q39 6 63 22.5t24 39.5q0 42 -71 42q-16 0 -30 -2l-5 7l42 81q-68 8 -113 36l-49 -20h-45v212h44q21 -89 72.5 -135t124.5 -46q57 0 94 31.5t37 80.5q0 54 -32.5 93.5t-126.5 77.5q-102 41 -147.5 89.5t-45.5 123.5q0 69 60.5 126.5t156.5 57.5
q64 0 142 -31l42 19h25l20 -205h-37q-26 80 -77 123t-110 43q-54 0 -89 -27t-35 -76q0 -48 42 -87t131 -74t134 -84t45 -129q0 -94 -61 -146.5t-159 -55.5l-20 -38q46 0 75.5 -18t29.5 -54q0 -38 -42 -66t-101 -36z" />
    <glyph glyph-name="scedilla" unicode="&#x15f;" horiz-adv-x="543" 
d="M223 -224l-8 25q39 6 63 22.5t24 39.5q0 42 -71 42q-16 0 -30 -2l-5 7l42 81q-42 8 -67 26l-43 -15h-38v172h48q15 -67 49 -102.5t85 -35.5q39 0 63.5 22.5t24.5 57.5q0 34 -22 57t-88 51q-76 33 -112 69.5t-36 88.5q0 56 45 100.5t119 44.5q37 0 96 -24l36 15h26
l18 -157h-47q-18 58 -51 87t-74 29q-36 0 -57.5 -19.5t-21.5 -54.5q0 -31 27.5 -52.5t94.5 -47.5q69 -27 102.5 -64t33.5 -95q0 -73 -47 -114t-121 -43l-20 -37q46 0 75.5 -18t29.5 -54q0 -38 -42 -66t-101 -36z" />
    <glyph glyph-name="Scaron" unicode="&#x160;" horiz-adv-x="636" 
d="M83 7v212h44q21 -89 72.5 -135t124.5 -46q57 0 94 31.5t37 80.5q0 54 -32.5 93.5t-126.5 77.5q-102 41 -147.5 89.5t-45.5 123.5q0 69 60.5 126.5t156.5 57.5q64 0 142 -31l42 19h25l20 -205h-37q-26 80 -77 123t-110 43q-54 0 -89 -27t-35 -76q0 -48 42 -87t131 -74
t134 -84t45 -129q0 -96 -64 -149t-165 -53q-81 0 -147 39l-49 -20h-45zM476 893v-8l-121 -129h-48l-121 129v8h46l99 -69l99 69h46z" />
    <glyph glyph-name="scaron" unicode="&#x161;" horiz-adv-x="543" 
d="M90 2v172h48q15 -67 49 -102.5t85 -35.5q39 0 63.5 22.5t24.5 57.5q0 34 -22 57t-88 51q-76 33 -112 69.5t-36 88.5q0 56 45 100.5t119 44.5q37 0 96 -24l36 15h26l18 -157h-47q-18 58 -51 87t-74 29q-36 0 -57.5 -19.5t-21.5 -54.5q0 -31 27.5 -52.5t94.5 -47.5
q69 -27 102.5 -64t33.5 -95q0 -75 -49.5 -116t-127.5 -41q-57 0 -101 30l-43 -15h-38zM421 740v-8l-121 -164h-48l-121 164v8h46l99 -99l99 99h46z" />
    <glyph glyph-name="Tcommaaccent" unicode="&#x162;" horiz-adv-x="762" 
d="M83 706h596l46 -197h-44l-101 149h-146v-603l92 -15v-40h-290v40l92 15v603h-146l-101 -149h-44zM339 -81q0 14 12.5 25.5t32.5 11.5q28 0 47 -22.5t19 -57.5q0 -65 -85 -112l-19 28q47 27 47 58q0 18 -27 35.5t-27 33.5z" />
    <glyph glyph-name="Tcommaaccent" unicode="&#x21a;" horiz-adv-x="762" 
d="M83 706h596l46 -197h-44l-101 149h-146v-603l92 -15v-40h-290v40l92 15v603h-146l-101 -149h-44zM339 -81q0 14 12.5 25.5t32.5 11.5q28 0 47 -22.5t19 -57.5q0 -65 -85 -112l-19 28q47 27 47 58q0 18 -27 35.5t-27 33.5z" />
    <glyph glyph-name="tcommaaccent" unicode="&#x163;" horiz-adv-x="599" 
d="M63 518h473l24 -146h-43l-66 99h-102v-418l75 -15v-38h-249v38l75 15v418h-102l-67 -99h-42zM254 -81q0 14 12.5 25.5t32.5 11.5q28 0 47 -22.5t19 -57.5q0 -65 -85 -112l-19 28q47 27 47 58q0 18 -27 35.5t-27 33.5z" />
    <glyph glyph-name="tcommaaccent" unicode="&#x21b;" horiz-adv-x="599" 
d="M63 518h473l24 -146h-43l-66 99h-102v-418l75 -15v-38h-249v38l75 15v418h-102l-67 -99h-42zM254 -81q0 14 12.5 25.5t32.5 11.5q28 0 47 -22.5t19 -57.5q0 -65 -85 -112l-19 28q47 27 47 58q0 18 -27 35.5t-27 33.5z" />
    <glyph glyph-name="Tcaron" unicode="&#x164;" horiz-adv-x="762" 
d="M83 706h596l46 -197h-44l-101 149h-146v-603l92 -15v-40h-290v40l92 15v603h-146l-101 -149h-44zM526 893v-8l-121 -129h-48l-121 129v8h46l99 -69l99 69h46z" />
    <glyph glyph-name="tcaron" unicode="&#x165;" horiz-adv-x="599" 
d="M63 518h473l24 -146h-43l-66 99h-102v-418l75 -15v-38h-249v38l75 15v418h-102l-67 -99h-42zM444 740v-8l-121 -164h-48l-121 164v8h46l99 -99l99 99h46z" />
    <glyph glyph-name="Umacron" unicode="&#x16a;" horiz-adv-x="832" 
d="M554 706h224v-40l-81 -15v-391q0 -45 -16 -90.5t-47.5 -87.5t-86.5 -68t-124 -26q-130 0 -205.5 74t-75.5 168v421l-88 15v40h282v-40l-88 -15v-406q0 -80 51.5 -133t143.5 -53q85 0 141.5 57.5t56.5 160.5v374l-87 15v40zM575 798h-254v58h254v-58z" />
    <glyph glyph-name="umacron" unicode="&#x16b;" horiz-adv-x="661" 
d="M409 518h203v-38l-66 -25v-254q0 -37 -12.5 -73.5t-37 -68.5t-67.5 -52t-98 -20q-95 0 -152.5 59t-57.5 132v287l-72 15v38h242v-38l-71 -15v-275q0 -63 34 -103.5t94 -40.5q63 0 102.5 43.5t39.5 125.5v240l-81 25v38zM477 610h-254v58h254v-58z" />
    <glyph glyph-name="Ubreve" unicode="&#x16c;" horiz-adv-x="832" 
d="M554 706h224v-40l-81 -15v-391q0 -45 -16 -90.5t-47.5 -87.5t-86.5 -68t-124 -26q-130 0 -205.5 74t-75.5 168v421l-88 15v40h282v-40l-88 -15v-406q0 -80 51.5 -133t143.5 -53q85 0 141.5 57.5t56.5 160.5v374l-87 15v40zM448 756q-50 0 -85 33.5t-35 98.5h40
q0 -30 22.5 -51.5t57.5 -21.5q32 0 56 21t24 52h40q0 -65 -35 -98.5t-85 -33.5z" />
    <glyph glyph-name="ubreve" unicode="&#x16d;" horiz-adv-x="661" 
d="M409 518h203v-38l-66 -25v-254q0 -37 -12.5 -73.5t-37 -68.5t-67.5 -52t-98 -20q-95 0 -152.5 59t-57.5 132v287l-72 15v38h242v-38l-71 -15v-275q0 -63 34 -103.5t94 -40.5q63 0 102.5 43.5t39.5 125.5v240l-81 25v38zM350 573q-50 0 -85 39t-35 113h40
q0 -35 22.5 -61.5t57.5 -26.5q32 0 56 25.5t24 62.5h40q0 -74 -35 -113t-85 -39z" />
    <glyph glyph-name="Uring" unicode="&#x16e;" horiz-adv-x="832" 
d="M554 706h224v-40l-81 -15v-391q0 -45 -16 -90.5t-47.5 -87.5t-86.5 -68t-124 -26q-130 0 -205.5 74t-75.5 168v421l-88 15v40h282v-40l-88 -15v-406q0 -80 51.5 -133t143.5 -53q85 0 141.5 57.5t56.5 160.5v374l-87 15v40zM354 840q0 39 27.5 66.5t66.5 27.5t66.5 -27.5
t27.5 -66.5t-27.5 -66.5t-66.5 -27.5t-66.5 27.5t-27.5 66.5zM400 840q0 -22 13 -36.5t34 -14.5t34.5 14.5t13.5 36.5t-13.5 37.5t-34.5 15.5t-34 -15.5t-13 -37.5z" />
    <glyph glyph-name="uring" unicode="&#x16f;" horiz-adv-x="661" 
d="M409 518h203v-38l-66 -25v-254q0 -37 -12.5 -73.5t-37 -68.5t-67.5 -52t-98 -20q-95 0 -152.5 59t-57.5 132v287l-72 15v38h242v-38l-71 -15v-275q0 -63 34 -103.5t94 -40.5q63 0 102.5 43.5t39.5 125.5v240l-81 25v38zM256 652q0 39 27.5 66.5t66.5 27.5t66.5 -27.5
t27.5 -66.5t-27.5 -66.5t-66.5 -27.5t-66.5 27.5t-27.5 66.5zM302 652q0 -22 13 -36.5t34 -14.5t34.5 14.5t13.5 36.5t-13.5 37.5t-34.5 15.5t-34 -15.5t-13 -37.5z" />
    <glyph glyph-name="Uhungarumlaut" unicode="&#x170;" horiz-adv-x="832" 
d="M554 706h224v-40l-81 -15v-391q0 -45 -16 -90.5t-47.5 -87.5t-86.5 -68t-124 -26q-130 0 -205.5 74t-75.5 168v421l-88 15v40h282v-40l-88 -15v-406q0 -80 51.5 -133t143.5 -53q85 0 141.5 57.5t56.5 160.5v374l-87 15v40zM473 756v8l86 129h94v-10l-139 -127h-41z
M333 756v8l86 129h94v-10l-139 -127h-41z" />
    <glyph glyph-name="uhungarumlaut" unicode="&#x171;" horiz-adv-x="661" 
d="M409 518h203v-38l-66 -25v-254q0 -37 -12.5 -73.5t-37 -68.5t-67.5 -52t-98 -20q-95 0 -152.5 59t-57.5 132v287l-72 15v38h242v-38l-71 -15v-275q0 -63 34 -103.5t94 -40.5q63 0 102.5 43.5t39.5 125.5v240l-81 25v38zM380 568v8l86 164h94v-10l-139 -162h-41zM240 568
v8l86 164h94v-10l-139 -162h-41z" />
    <glyph glyph-name="Uogonek" unicode="&#x172;" horiz-adv-x="832" 
d="M467 -13l-2 4q-19 -3 -42 -3q-130 0 -205.5 74t-75.5 168v421l-88 15v40h282v-40l-88 -15v-406q0 -80 51.5 -133t143.5 -53q85 0 141.5 57.5t56.5 160.5v374l-87 15v40h224v-40l-81 -15v-391q0 -65 -32.5 -129.5t-94.5 -106.5q-100 -68 -100 -155q0 -28 15.5 -45
t38.5 -17q18 0 38 6l6 -26q-27 -11 -68 -11q-49 0 -79 21t-30 58q0 69 76 132z" />
    <glyph glyph-name="uogonek" unicode="&#x173;" horiz-adv-x="661" 
d="M352 -16l-2 4q-6 -1 -19 -1q-95 0 -152.5 59t-57.5 132v287l-72 15v38h242v-38l-71 -15v-275q0 -63 34 -103.5t94 -40.5q63 0 102.5 43.5t39.5 125.5v240l-81 25v38h203v-38l-66 -25v-254q0 -53 -25.5 -104t-74.5 -82q-104 -65 -104 -146q0 -28 15.5 -45t38.5 -17
q18 0 38 6l6 -26q-28 -11 -68 -11q-49 0 -79 21t-30 58q0 67 89 129z" />
    <glyph glyph-name="Wcircumflex" unicode="&#x174;" horiz-adv-x="1006" 
d="M694 187l137 464l-91 15v40h224v-40l-75 -15l-194 -651h-65l-128 454l-135 -454h-65l-184 651l-76 15v40h264v-40l-81 -15l126 -464h16l109 356l-30 108l-66 15v40h254v-40l-81 -15l126 -464h15zM648 764v-8h-46l-99 69l-99 -69h-46v8l121 129h48z" />
    <glyph glyph-name="wcircumflex" unicode="&#x175;" horiz-adv-x="851" 
d="M525 0l-106 318l-108 -318h-59l-153 465l-60 15v38h227v-38l-67 -15l99 -305h13l85 229l-25 76l-51 15v38h218v-38l-67 -15l100 -305h13l106 295l-81 25v38h203v-38l-64 -25l-167 -455h-56zM580 576v-8h-46l-99 99l-99 -99h-46v8l121 164h48z" />
    <glyph glyph-name="Ycircumflex" unicode="&#x176;" horiz-adv-x="718" 
d="M389 396l152 255l-89 15v40h224v-40l-75 -15l-189 -323v-273l88 -15v-40h-282v40l88 15v270l-191 326l-73 15v40h264v-40l-81 -15l148 -255h16zM527 764v-8h-46l-99 69l-99 -69h-46v8l121 129h48z" />
    <glyph glyph-name="ycircumflex" unicode="&#x177;" horiz-adv-x="603" 
d="M332 276l108 179l-79 25v38h203v-38l-65 -25l-148 -246v-156l72 -15v-38h-243v38l72 15v156l-151 256l-62 15v38h232v-38l-61 -15l108 -189h14zM461 576v-8h-46l-99 99l-99 -99h-46v8l121 164h48z" />
    <glyph glyph-name="Ydieresis" unicode="&#x178;" horiz-adv-x="718" 
d="M389 396l152 255l-89 15v40h224v-40l-75 -15l-189 -323v-273l88 -15v-40h-282v40l88 15v270l-191 326l-73 15v40h264v-40l-81 -15l148 -255h16zM520 837q0 -20 -16 -35.5t-36 -15.5q-21 0 -37 15.5t-16 35.5q0 21 16 37t37 16q20 0 36 -16t16 -37zM349 837
q0 -21 -15.5 -36t-36.5 -15t-37 15.5t-16 35.5q0 21 16 37t37 16t36.5 -16t15.5 -37z" />
    <glyph glyph-name="Zacute" unicode="&#x179;" horiz-adv-x="704" 
d="M601 0h-527l-12 25l420 618l-7 15h-267l-101 -149h-44l47 197h513l11 -19l-428 -626l6 -13h289l102 149h44zM294 756v8l86 129h94v-10l-129 -127h-51z" />
    <glyph glyph-name="zacute" unicode="&#x17a;" horiz-adv-x="583" 
d="M493 0h-423l-10 20l312 437l-6 12h-186l-66 -107h-43l30 156h411l10 -15l-320 -444l5 -10h205l68 107h43zM246 568v8l86 164h94v-10l-129 -162h-51z" />
    <glyph glyph-name="Zdotaccent" unicode="&#x17b;" horiz-adv-x="704" 
d="M601 0h-527l-12 25l420 618l-7 15h-267l-101 -149h-44l47 197h513l11 -19l-428 -626l6 -13h289l102 149h44zM289 832q0 27 18.5 46t45.5 19t46.5 -19t19.5 -46t-19.5 -45.5t-46.5 -18.5t-45.5 18.5t-18.5 45.5z" />
    <glyph glyph-name="zdotaccent" unicode="&#x17c;" horiz-adv-x="583" 
d="M493 0h-423l-10 20l312 437l-6 12h-186l-66 -107h-43l30 156h411l10 -15l-320 -444l5 -10h205l68 107h43zM241 674q0 27 18.5 46t45.5 19t46.5 -19t19.5 -46t-19.5 -45.5t-46.5 -18.5t-45.5 18.5t-18.5 45.5z" />
    <glyph glyph-name="Zcaron" unicode="&#x17d;" horiz-adv-x="704" 
d="M601 0h-527l-12 25l420 618l-7 15h-267l-101 -149h-44l47 197h513l11 -19l-428 -626l6 -13h289l102 149h44zM499 893v-8l-121 -129h-48l-121 129v8h46l99 -69l99 69h46z" />
    <glyph glyph-name="zcaron" unicode="&#x17e;" horiz-adv-x="583" 
d="M493 0h-423l-10 20l312 437l-6 12h-186l-66 -107h-43l30 156h411l10 -15l-320 -444l5 -10h205l68 107h43zM451 740v-8l-121 -164h-48l-121 164v8h46l99 -99l99 99h46z" />
    <glyph glyph-name="florin" unicode="&#x192;" horiz-adv-x="540" 
d="M94 309l14 49h94l25 100q17 70 68 125t125 55q55 0 90 -21.5t35 -51.5q0 -20 -11 -33.5t-34 -13.5q-17 0 -28.5 11t-16.5 25t-17.5 25t-31.5 11q-31 0 -50.5 -34t-39.5 -105l-26 -93h120l-14 -49h-117l-88 -327q-23 -85 -65.5 -137t-99.5 -52q-41 0 -69.5 19.5
t-28.5 49.5q0 19 10 32t27 13q14 0 25 -10.5t17 -23.5t15.5 -23.5t20.5 -10.5q32 0 64 130l86 340h-99z" />
    <glyph glyph-name="Scommaaccent" unicode="&#x218;" horiz-adv-x="636" 
d="M83 7v212h44q21 -89 72.5 -135t124.5 -46q57 0 94 31.5t37 80.5q0 54 -32.5 93.5t-126.5 77.5q-102 41 -147.5 89.5t-45.5 123.5q0 69 60.5 126.5t156.5 57.5q64 0 142 -31l42 19h25l20 -205h-37q-26 80 -77 123t-110 43q-54 0 -89 -27t-35 -76q0 -48 42 -87t131 -74
t134 -84t45 -129q0 -96 -64 -149t-165 -53q-81 0 -147 39l-49 -20h-45zM277 -81q0 14 12.5 25.5t32.5 11.5q28 0 47 -22.5t19 -57.5q0 -65 -85 -112l-19 28q47 27 47 58q0 18 -27 35.5t-27 33.5z" />
    <glyph glyph-name="scommaaccent" unicode="&#x219;" horiz-adv-x="543" 
d="M90 2v172h48q15 -67 49 -102.5t85 -35.5q39 0 63.5 22.5t24.5 57.5q0 34 -22 57t-88 51q-76 33 -112 69.5t-36 88.5q0 56 45 100.5t119 44.5q37 0 96 -24l36 15h26l18 -157h-47q-18 58 -51 87t-74 29q-36 0 -57.5 -19.5t-21.5 -54.5q0 -31 27.5 -52.5t94.5 -47.5
q69 -27 102.5 -64t33.5 -95q0 -75 -49.5 -116t-127.5 -41q-57 0 -101 30l-43 -15h-38zM225 -81q0 14 12.5 25.5t32.5 11.5q28 0 47 -22.5t19 -57.5q0 -65 -85 -112l-19 28q47 27 47 58q0 18 -27 35.5t-27 33.5z" />
    <glyph glyph-name="dotlessj" unicode="&#x237;" horiz-adv-x="411" 
d="M172 -51v516l-77 15v38h247v-38l-71 -15v-428q0 -90 -62.5 -160.5t-129.5 -70.5q-35 0 -57 14.5t-22 43.5q0 23 13 36t33 13q17 0 37 -15.5t35 -15.5q54 0 54 67z" />
    <glyph glyph-name="quoteleft" unicode="&#x2bb;" horiz-adv-x="401" 
d="M268 437q0 -23 -14 -37.5t-39 -14.5q-42 0 -70 38t-28 100q0 69 36.5 119.5t82.5 77.5l28 -42q-80 -60 -80 -120q0 -23 13 -39t29 -24t29 -23t13 -35z" />
    <glyph glyph-name="quoteleft" unicode="&#x2018;" horiz-adv-x="401" 
d="M268 437q0 -23 -14 -37.5t-39 -14.5q-42 0 -70 38t-28 100q0 69 36.5 119.5t82.5 77.5l28 -42q-80 -60 -80 -120q0 -23 13 -39t29 -24t29 -23t13 -35z" />
    <glyph glyph-name="circumflex" unicode="&#x2c6;" horiz-adv-x="500" 
d="M395 496v-8h-46l-99 99l-99 -99h-46v8l121 164h48z" />
    <glyph glyph-name="caron" unicode="&#x2c7;" horiz-adv-x="500" 
d="M395 660v-8l-121 -164h-48l-121 164v8h46l99 -99l99 99h46z" />
    <glyph glyph-name="breve" unicode="&#x2d8;" horiz-adv-x="500" 
d="M250 493q-50 0 -85 39t-35 113h40q0 -35 22.5 -61.5t57.5 -26.5q32 0 56 25.5t24 62.5h40q0 -74 -35 -113t-85 -39z" />
    <glyph glyph-name="dotaccent" unicode="&#x2d9;" horiz-adv-x="500" 
d="M185 594q0 27 18.5 46t45.5 19t46.5 -19t19.5 -46t-19.5 -45.5t-46.5 -18.5t-45.5 18.5t-18.5 45.5z" />
    <glyph glyph-name="ring" unicode="&#x2da;" horiz-adv-x="500" 
d="M156 572q0 39 27.5 66.5t66.5 27.5t66.5 -27.5t27.5 -66.5t-27.5 -66.5t-66.5 -27.5t-66.5 27.5t-27.5 66.5zM202 572q0 -22 13 -36.5t34 -14.5t34.5 14.5t13.5 36.5t-13.5 37.5t-34.5 15.5t-34 -15.5t-13 -37.5z" />
    <glyph glyph-name="ogonek" unicode="&#x2db;" horiz-adv-x="500" 
d="M294 -187l6 -26q-28 -11 -68 -11q-49 0 -79 21t-30 58q0 48 48 95t123 79l11 -21q-103 -55 -103 -139q0 -28 15.5 -45t38.5 -17q18 0 38 6z" />
    <glyph glyph-name="tilde" unicode="&#x2dc;" horiz-adv-x="500" 
d="M378 648l26 -10q-14 -49 -43 -87t-55 -38q-15 0 -63.5 30t-63.5 30q-16 0 -27.5 -16t-25.5 -47l-29 12q11 40 41 81.5t48 41.5q19 0 65 -30.5t64 -30.5q17 0 36 21t27 43z" />
    <glyph glyph-name="hungarumlaut" unicode="&#x2dd;" horiz-adv-x="500" 
d="M280 488v8l86 164h94v-10l-139 -162h-41zM140 488v8l86 164h94v-10l-139 -162h-41z" />
    <glyph glyph-name="Delta" unicode="&#x394;" horiz-adv-x="540" 
d="M530 0h-520l223 631h45zM237 494l-150 -439h320z" />
    <glyph glyph-name="Delta" unicode="&#x2206;" horiz-adv-x="540" 
d="M530 0h-520l223 631h45zM237 494l-150 -439h320z" />
    <glyph glyph-name="Omega" unicode="&#x3a9;" horiz-adv-x="540" 
d="M269 588q-72 0 -110 -69.5t-38 -155.5q0 -133 38 -228t91 -112l-6 -23h-223l-20 146h29l43 -94h54l6 10q-43 49 -72 128t-29 162q0 114 66.5 200t171.5 86t171.5 -86t66.5 -200q0 -83 -29 -162t-72 -128l6 -10h54l43 94h29l-20 -146h-223l-6 23q53 17 91 112t38 228
q0 53 -15 102.5t-50.5 86t-84.5 36.5z" />
    <glyph glyph-name="Omega" unicode="&#x2126;" horiz-adv-x="540" 
d="M269 588q-72 0 -110 -69.5t-38 -155.5q0 -133 38 -228t91 -112l-6 -23h-223l-20 146h29l43 -94h54l6 10q-43 49 -72 128t-29 162q0 114 66.5 200t171.5 86t171.5 -86t66.5 -200q0 -83 -29 -162t-72 -128l6 -10h54l43 94h29l-20 -146h-223l-6 23q53 17 91 112t38 228
q0 53 -15 102.5t-50.5 86t-84.5 36.5z" />
    <glyph glyph-name="lambda" unicode="&#x3bb;" horiz-adv-x="524" 
d="M256 608l115 -454q16 -65 24 -83.5t23 -18.5q12 0 27 27t32 27q16 0 25 -12t9 -30q0 -32 -25 -52.5t-60 -20.5q-77 0 -100 111l-55 224l-150 -326h-101l217 467l-33 135q-18 79 -58 79q-16 0 -41 -32.5t-43 -32.5q-36 0 -36 39q0 31 31 55t80 24q48 0 78 -35.5t41 -90.5z
" />
    <glyph glyph-name="pi" unicode="&#x3c0;" horiz-adv-x="540" 
d="M167 22q-26 -43 -65 -32q-28 8 -33 34q-5 24 19 43q56 57 80 127t24 183h-31q-35 0 -53 -13t-27 -48l-27 5q15 64 37.5 91t62.5 27h332v-62h-101l-21 -254q-4 -51 32 -51q42 0 65 62l25 -3q-36 -138 -112 -138q-43 0 -63 29t-15 79l27 276h-84q-5 -239 -72 -355z" />
    <glyph glyph-name="uni1e0c" unicode="&#x1e0c;" horiz-adv-x="839" 
d="M360 0h-291v40l88 15v596l-88 15v40h301q183 0 288.5 -95t105.5 -261t-112 -258t-292 -92zM263 55h97q125 0 206 72.5t81 223.5q0 145 -76.5 222.5t-201.5 77.5h-106v-596zM312 -121q0 27 18.5 46t45.5 19t46.5 -19t19.5 -46t-19.5 -45.5t-46.5 -18.5t-45.5 18.5
t-18.5 45.5z" />
    <glyph glyph-name="uni1e0d" unicode="&#x1e0d;" horiz-adv-x="666" 
d="M299 0h-230v38l72 15v412l-72 15v38h239q135 0 212 -69.5t77 -192.5q0 -121 -83 -188.5t-215 -67.5zM240 53h59q84 0 138 50t54 154q0 99 -52 153.5t-132 54.5h-67v-412zM247 -121q0 27 18.5 46t45.5 19t46.5 -19t19.5 -46t-19.5 -45.5t-46.5 -18.5t-45.5 18.5
t-18.5 45.5z" />
    <glyph glyph-name="uni1e36" unicode="&#x1e36;" horiz-adv-x="671" 
d="M598 0h-529v40l88 15v596l-88 15v40h286v-40l-92 -15v-603h226l101 149h44zM283 -126q0 27 18.5 46t45.5 19t46.5 -19t19.5 -46t-19.5 -45.5t-46.5 -18.5t-45.5 18.5t-18.5 45.5z" />
    <glyph glyph-name="uni1e37" unicode="&#x1e37;" horiz-adv-x="549" 
d="M484 0h-415v38l72 15v412l-72 15v38h246v-38l-75 -15v-416h155l67 97h43zM219 -126q0 27 18.5 46t45.5 19t46.5 -19t19.5 -46t-19.5 -45.5t-46.5 -18.5t-45.5 18.5t-18.5 45.5z" />
    <glyph glyph-name="uni1e42" unicode="&#x1e42;" horiz-adv-x="1008" 
d="M732 540h-15l-221 -540h-43l-208 541h-12l-38 -486l86 -15v-40h-224v40l85 15l48 588l-99 22v41h198l209 -529h17l218 529h199v-41l-99 -24l29 -586l89 -15v-40h-284v40l89 15zM413 -121q0 27 18.5 46t45.5 19t46.5 -19t19.5 -46t-19.5 -45.5t-46.5 -18.5t-45.5 18.5
t-18.5 45.5z" />
    <glyph glyph-name="uni1e43" unicode="&#x1e43;" horiz-adv-x="821" 
d="M577 378h-12l-162 -379h-34l-150 379h-11l-31 -315l70 -25v-38h-193v38l69 25l40 402l-80 15v38h178l144 -360h12l159 360h170v-38l-81 -15l29 -412l73 -15v-38h-242v38l73 15zM322 -121q0 27 18.5 46t45.5 19t46.5 -19t19.5 -46t-19.5 -45.5t-46.5 -18.5t-45.5 18.5
t-18.5 45.5z" />
    <glyph glyph-name="uni1e44" unicode="&#x1e44;" horiz-adv-x="843" 
d="M633 189h14v462l-88 15v40h230v-40l-87 -15v-653h-45l-455 559h-14v-502l88 -15v-40h-222v40l79 15v596l-79 15v40h159zM356 832q0 27 18.5 46t45.5 19t46.5 -19t19.5 -46t-19.5 -45.5t-46.5 -18.5t-45.5 18.5t-18.5 45.5z" />
    <glyph glyph-name="uni1e45" unicode="&#x1e45;" horiz-adv-x="693" 
d="M498 177h12v278l-82 25v38h208v-38l-71 -25v-462h-30l-340 400h-12v-330l82 -25v-38h-201v38l64 25v402l-64 15v38h143zM285 674q0 27 18.5 46t45.5 19t46.5 -19t19.5 -46t-19.5 -45.5t-46.5 -18.5t-45.5 18.5t-18.5 45.5z" />
    <glyph glyph-name="uni1e46" unicode="&#x1e46;" horiz-adv-x="843" 
d="M633 189h14v462l-88 15v40h230v-40l-87 -15v-653h-45l-455 559h-14v-502l88 -15v-40h-222v40l79 15v596l-79 15v40h159zM357 -126q0 27 18.5 46t45.5 19t46.5 -19t19.5 -46t-19.5 -45.5t-46.5 -18.5t-45.5 18.5t-18.5 45.5z" />
    <glyph glyph-name="uni1e47" unicode="&#x1e47;" horiz-adv-x="693" 
d="M498 177h12v278l-82 25v38h208v-38l-71 -25v-462h-30l-340 400h-12v-330l82 -25v-38h-201v38l64 25v402l-64 15v38h143zM284 -126q0 27 18.5 46t45.5 19t46.5 -19t19.5 -46t-19.5 -45.5t-46.5 -18.5t-45.5 18.5t-18.5 45.5z" />
    <glyph glyph-name="uni1e5a" unicode="&#x1e5a;" horiz-adv-x="725" 
d="M404 340v-11q33 -16 67 -69t71 -115t72 -90l63 -15v-40h-151q-30 23 -63 74t-57.5 99t-59.5 92.5t-69 59.5h-14v-270l98 -15v-40h-292v40l88 15v596l-88 15v40h315q24 0 49 -4.5t53.5 -17.5t50.5 -32.5t36.5 -53.5t14.5 -77q0 -58 -45.5 -110.5t-138.5 -70.5zM263 651
v-271h69q71 0 106.5 42.5t35.5 95.5q0 133 -108 133h-103zM319 -121q0 27 18.5 46t45.5 19t46.5 -19t19.5 -46t-19.5 -45.5t-46.5 -18.5t-45.5 18.5t-18.5 45.5z" />
    <glyph glyph-name="uni1e5b" unicode="&#x1e5b;" horiz-adv-x="621" 
d="M384 253v-9q23 -11 48 -49t52.5 -81t52.5 -61l45 -15v-38h-120q-26 17 -52 53t-44 70t-43.5 66.5t-52.5 42.5h-30v-179l71 -15v-38h-242v38l72 15v412l-72 15v38h271q25 0 50.5 -6t52.5 -20t44 -42.5t17 -67.5q0 -45 -32 -82t-88 -47zM240 465v-186h55q51 0 78 31t27 69
q0 44 -21.5 65t-54.5 21h-84zM273 -121q0 27 18.5 46t45.5 19t46.5 -19t19.5 -46t-19.5 -45.5t-46.5 -18.5t-45.5 18.5t-18.5 45.5z" />
    <glyph glyph-name="uni1e62" unicode="&#x1e62;" horiz-adv-x="636" 
d="M83 7v212h44q21 -89 72.5 -135t124.5 -46q57 0 94 31.5t37 80.5q0 54 -32.5 93.5t-126.5 77.5q-102 41 -147.5 89.5t-45.5 123.5q0 69 60.5 126.5t156.5 57.5q64 0 142 -31l42 19h25l20 -205h-37q-26 80 -77 123t-110 43q-54 0 -89 -27t-35 -76q0 -48 42 -87t131 -74
t134 -84t45 -129q0 -96 -64 -149t-165 -53q-81 0 -147 39l-49 -20h-45zM258 -126q0 27 18.5 46t45.5 19t46.5 -19t19.5 -46t-19.5 -45.5t-46.5 -18.5t-45.5 18.5t-18.5 45.5z" />
    <glyph glyph-name="uni1e63" unicode="&#x1e63;" horiz-adv-x="543" 
d="M90 2v172h48q15 -67 49 -102.5t85 -35.5q39 0 63.5 22.5t24.5 57.5q0 34 -22 57t-88 51q-76 33 -112 69.5t-36 88.5q0 56 45 100.5t119 44.5q37 0 96 -24l36 15h26l18 -157h-47q-18 58 -51 87t-74 29q-36 0 -57.5 -19.5t-21.5 -54.5q0 -31 27.5 -52.5t94.5 -47.5
q69 -27 102.5 -64t33.5 -95q0 -75 -49.5 -116t-127.5 -41q-57 0 -101 30l-43 -15h-38zM206 -126q0 27 18.5 46t45.5 19t46.5 -19t19.5 -46t-19.5 -45.5t-46.5 -18.5t-45.5 18.5t-18.5 45.5z" />
    <glyph glyph-name="uni1e6c" unicode="&#x1e6c;" horiz-adv-x="762" 
d="M83 706h596l46 -197h-44l-101 149h-146v-603l92 -15v-40h-290v40l92 15v603h-146l-101 -149h-44zM320 -126q0 27 18.5 46t45.5 19t46.5 -19t19.5 -46t-19.5 -45.5t-46.5 -18.5t-45.5 18.5t-18.5 45.5z" />
    <glyph glyph-name="uni1e6d" unicode="&#x1e6d;" horiz-adv-x="599" 
d="M63 518h473l24 -146h-43l-66 99h-102v-418l75 -15v-38h-249v38l75 15v418h-102l-67 -99h-42zM235 -126q0 27 18.5 46t45.5 19t46.5 -19t19.5 -46t-19.5 -45.5t-46.5 -18.5t-45.5 18.5t-18.5 45.5z" />
    <glyph glyph-name="Wgrave" unicode="&#x1e80;" horiz-adv-x="1006" 
d="M694 187l137 464l-91 15v40h224v-40l-75 -15l-194 -651h-65l-128 454l-135 -454h-65l-184 651l-76 15v40h264v-40l-81 -15l126 -464h16l109 356l-30 108l-66 15v40h254v-40l-81 -15l126 -464h15zM563 764v-8h-51l-129 127v10h94z" />
    <glyph glyph-name="wgrave" unicode="&#x1e81;" horiz-adv-x="851" 
d="M525 0l-106 318l-108 -318h-59l-153 465l-60 15v38h227v-38l-67 -15l99 -305h13l85 229l-25 76l-51 15v38h218v-38l-67 -15l100 -305h13l106 295l-81 25v38h203v-38l-64 -25l-167 -455h-56zM495 576v-8h-51l-129 162v10h94z" />
    <glyph glyph-name="Wacute" unicode="&#x1e82;" horiz-adv-x="1006" 
d="M694 187l137 464l-91 15v40h224v-40l-75 -15l-194 -651h-65l-128 454l-135 -454h-65l-184 651l-76 15v40h264v-40l-81 -15l126 -464h16l109 356l-30 108l-66 15v40h254v-40l-81 -15l126 -464h15zM443 756v8l86 129h94v-10l-129 -127h-51z" />
    <glyph glyph-name="wacute" unicode="&#x1e83;" horiz-adv-x="851" 
d="M525 0l-106 318l-108 -318h-59l-153 465l-60 15v38h227v-38l-67 -15l99 -305h13l85 229l-25 76l-51 15v38h218v-38l-67 -15l100 -305h13l106 295l-81 25v38h203v-38l-64 -25l-167 -455h-56zM375 568v8l86 164h94v-10l-129 -162h-51z" />
    <glyph glyph-name="Wdieresis" unicode="&#x1e84;" horiz-adv-x="1006" 
d="M694 187l137 464l-91 15v40h224v-40l-75 -15l-194 -651h-65l-128 454l-135 -454h-65l-184 651l-76 15v40h264v-40l-81 -15l126 -464h16l109 356l-30 108l-66 15v40h254v-40l-81 -15l126 -464h15zM641 837q0 -20 -16 -35.5t-36 -15.5q-21 0 -37 15.5t-16 35.5q0 21 16 37
t37 16q20 0 36 -16t16 -37zM470 837q0 -21 -15 -36t-37 -15q-21 0 -37 15.5t-16 35.5q0 21 16 37t37 16t36.5 -16t15.5 -37z" />
    <glyph glyph-name="wdieresis" unicode="&#x1e85;" horiz-adv-x="851" 
d="M525 0l-106 318l-108 -318h-59l-153 465l-60 15v38h227v-38l-67 -15l99 -305h13l85 229l-25 76l-51 15v38h218v-38l-67 -15l100 -305h13l106 295l-81 25v38h203v-38l-64 -25l-167 -455h-56zM573 649q0 -20 -16 -35.5t-36 -15.5q-21 0 -37 15.5t-16 35.5q0 21 16 37t37 16
q20 0 36 -16t16 -37zM402 649q0 -21 -15 -36t-37 -15q-21 0 -37 15.5t-16 35.5q0 21 16 37t37 16t36.5 -16t15.5 -37z" />
    <glyph glyph-name="uni1e9e" unicode="&#x1e9e;" horiz-adv-x="835" 
d="M547 -12q-87 0 -155 35l-6 153h43q24 -150 117 -150q49 0 77 42t28 125q0 70 -34 116t-102 45q-51 0 -101 -29l-49 50l198 264l-5 12h-295v-596l89 -15v-40h-283v40l88 15v596l-88 16v39h608l10 -41l-189 -254l7 -11q112 21 184.5 -36t72.5 -163q0 -55 -20 -98t-52 -67
t-68.5 -36t-74.5 -12z" />
    <glyph glyph-name="Ygrave" unicode="&#x1ef2;" horiz-adv-x="718" 
d="M389 396l152 255l-89 15v40h224v-40l-75 -15l-189 -323v-273l88 -15v-40h-282v40l88 15v270l-191 326l-73 15v40h264v-40l-81 -15l148 -255h16zM442 764v-8h-51l-129 127v10h94z" />
    <glyph glyph-name="ygrave" unicode="&#x1ef3;" horiz-adv-x="603" 
d="M332 276l108 179l-79 25v38h203v-38l-65 -25l-148 -246v-156l72 -15v-38h-243v38l72 15v156l-151 256l-62 15v38h232v-38l-61 -15l108 -189h14zM376 576v-8h-51l-129 162v10h94z" />
    <glyph glyph-name="uni2011" unicode="&#x2011;" horiz-adv-x="404" 
d="M77 278h250v-73h-250v73z" />
    <glyph glyph-name="endash" unicode="&#x2013;" horiz-adv-x="574" 
d="M87 278h400v-73h-400v73z" />
    <glyph glyph-name="emdash" unicode="&#x2014;" horiz-adv-x="1110" 
d="M147 273h816v-63h-816v63z" />
    <glyph glyph-name="quoteright" unicode="&#x2019;" horiz-adv-x="401" 
d="M133 668q0 23 14 37.5t39 14.5q42 0 70 -38t28 -100q0 -69 -36.5 -119.5t-82.5 -77.5l-28 42q80 60 80 120q0 23 -13 39t-29 24t-29 23t-13 35z" />
    <glyph glyph-name="quotesinglbase" unicode="&#x201a;" horiz-adv-x="401" 
d="M133 73q0 23 14 37.5t39 14.5q42 0 70 -38t28 -100q0 -69 -36.5 -119.5t-82.5 -77.5l-28 42q80 60 80 120q0 23 -13 39t-29 24t-29 23t-13 35z" />
    <glyph glyph-name="quotedblleft" unicode="&#x201c;" horiz-adv-x="641" 
d="M268 437q0 -23 -14 -37.5t-39 -14.5q-42 0 -70 38t-28 100q0 69 36.5 119.5t82.5 77.5l28 -42q-80 -60 -80 -120q0 -23 13 -39t29 -24t29 -23t13 -35zM508 437q0 -23 -14 -37.5t-39 -14.5q-42 0 -70 38t-28 100q0 69 36.5 119.5t82.5 77.5l28 -42q-80 -60 -80 -120
q0 -23 13 -39t29 -24t29 -23t13 -35z" />
    <glyph glyph-name="quotedblright" unicode="&#x201d;" horiz-adv-x="641" 
d="M373 668q0 23 14 37.5t39 14.5q42 0 70 -38t28 -100q0 -69 -36.5 -119.5t-82.5 -77.5l-28 42q80 60 80 120q0 23 -13 39t-29 24t-29 23t-13 35zM133 668q0 23 14 37.5t39 14.5q42 0 70 -38t28 -100q0 -69 -36.5 -119.5t-82.5 -77.5l-28 42q80 60 80 120q0 23 -13 39
t-29 24t-29 23t-13 35z" />
    <glyph glyph-name="quotedblbase" unicode="&#x201e;" horiz-adv-x="641" 
d="M373 73q0 23 14 37.5t39 14.5q42 0 70 -38t28 -100q0 -69 -36.5 -119.5t-82.5 -77.5l-28 42q80 60 80 120q0 23 -13 39t-29 24t-29 23t-13 35zM133 73q0 23 14 37.5t39 14.5q42 0 70 -38t28 -100q0 -69 -36.5 -119.5t-82.5 -77.5l-28 42q80 60 80 120q0 23 -13 39t-29 24
t-29 23t-13 35z" />
    <glyph glyph-name="dagger" unicode="&#x2020;" horiz-adv-x="638" 
d="M543 479q0 -30 -23.5 -47.5t-52.5 -12.5q-5 1 -44.5 20t-84.5 19q0 -87 8.5 -130.5t36.5 -69.5q-15 -8 -23.5 -28.5t-15 -86t-6.5 -180.5h-39q0 167 -10 225.5t-34 69.5q44 45 44 200q-34 0 -55 -6.5t-41 -18t-32 -16.5q-27 -8 -51.5 12t-24.5 50q0 29 23.5 45.5
t52.5 11.5q15 -4 33.5 -14.5t40 -17.5t54.5 -7q0 36 -6.5 60.5t-18.5 48t-16 37.5q-9 27 9 51t47 24q30 0 49.5 -24t13.5 -51q-2 -10 -20.5 -54t-18.5 -92q33 0 54 6.5t42 18.5t33 17q28 7 52 -12t24 -48z" />
    <glyph glyph-name="daggerdbl" unicode="&#x2021;" horiz-adv-x="638" 
d="M383 258q-30 -33 -37.5 -75.5t-7.5 -127.5q45 0 83 18.5t46 20.5q29 5 52.5 -12t23.5 -47q0 -29 -24.5 -48.5t-51.5 -11.5q-12 4 -32.5 16t-42 18.5t-54.5 6.5q0 -48 18.5 -91.5t20.5 -53.5q6 -28 -13.5 -52t-49.5 -24q-29 0 -47 24t-9 52q4 14 16 37t18.5 47.5t6.5 60.5
q-33 0 -54.5 -7t-40 -17.5t-33.5 -14.5q-29 -5 -52.5 11.5t-23.5 46.5q0 29 24 49t52 13q12 -5 32 -17t41 -18.5t55 -6.5q0 80 -9 128t-35 75q44 47 44 200q-34 0 -55 -6.5t-41 -18t-32 -16.5q-27 -8 -51.5 12t-24.5 50t23.5 46t52.5 11q8 -2 46 -20.5t82 -18.5
q0 36 -6.5 61t-18.5 48t-16 37q-9 27 9 51t47 24q30 0 49.5 -24t13.5 -51q-2 -10 -20.5 -54t-18.5 -92q33 0 54 6.5t42 18.5t33 17q28 7 52 -12t24 -48q0 -30 -23.5 -47.5t-52.5 -12.5q-5 1 -44.5 20t-84.5 19q0 -87 8.5 -130.5t36.5 -69.5z" />
    <glyph glyph-name="bullet" unicode="&#x2022;" horiz-adv-x="662" 
d="M195 264q0 56 40 96t96 40t96 -40t40 -96t-40 -96t-96 -40t-96 40t-40 96z" />
    <glyph glyph-name="ellipsis" unicode="&#x2026;" horiz-adv-x="1083" 
d="M167 57q0 27 18.5 46t45.5 19t46 -19t19 -46t-19 -45.5t-46 -18.5t-45.5 18.5t-18.5 45.5zM477 57q0 27 18.5 46t45.5 19t46 -19t19 -46t-19 -45.5t-46 -18.5t-45.5 18.5t-18.5 45.5zM787 57q0 27 18.5 46t45.5 19t46 -19t19 -46t-19 -45.5t-46 -18.5t-45.5 18.5
t-18.5 45.5z" />
    <glyph glyph-name="perthousand" unicode="&#x2030;" horiz-adv-x="848" 
d="M546 115q0 74 47 129t101 55q46 0 75 -32t29 -86q0 -86 -44 -139.5t-98 -53.5q-49 0 -79.5 36t-30.5 91zM711 254q-33 0 -62 -52.5t-29 -113.5q0 -28 11.5 -43.5t29.5 -15.5q34 0 62 41.5t28 120.5q0 30 -11.5 46.5t-28.5 16.5zM305 517l-3 -1q-1 -82 -44 -135.5
t-100 -53.5q-48 0 -78 36t-30 91q0 74 47 129t101 55q34 0 59.5 -18.5t36.5 -51.5q6 -15 25 -24.5t42 -9.5q48 0 84 31q24 67 55 67q24 0 24 -23q0 -30 -44 -61l-210 -286l-197 -282l-33 26l205 275l159 227l-2 2q-21 -12 -48 -12q-30 0 -49 19zM274 115q0 74 47 129t101 55
q46 0 75 -32t29 -86q0 -86 -44 -139.5t-98 -53.5q-49 0 -79.5 36t-30.5 91zM439 254q-33 0 -62 -52.5t-29 -113.5q0 -28 11.5 -43.5t29.5 -15.5q34 0 62 41.5t28 120.5q0 30 -11.5 46.5t-28.5 16.5zM215 593q-33 0 -62 -52.5t-29 -113.5q0 -59 43 -59q33 0 60.5 42.5
t27.5 119.5q0 30 -11.5 46.5t-28.5 16.5z" />
    <glyph glyph-name="uni2032" unicode="&#x2032;" horiz-adv-x="310" 
d="M73 376l70 266l96 -34l-114 -250z" />
    <glyph glyph-name="uni2033" unicode="&#x2033;" horiz-adv-x="500" 
d="M73 376l70 266l96 -34l-114 -250zM263 376l70 266l96 -34l-114 -250z" />
    <glyph glyph-name="guilsinglleft" unicode="&#x2039;" horiz-adv-x="465" 
d="M110 240l182 219l33 -20l-108 -201v-15l108 -203l-33 -24l-182 221v23z" />
    <glyph glyph-name="guilsinglright" unicode="&#x203a;" horiz-adv-x="465" 
d="M173 459l182 -219v-23l-182 -221l-33 24l108 203v15l-108 201z" />
    <glyph glyph-name="uni2042" unicode="&#x2042;" horiz-adv-x="986" 
d="M516 543q49 -24 120 -44q35 -9 28 -40q-6 -27 -30 -36q-21 -7 -38 10q-63 66 -93 85q5 -56 25 -124q10 -32 -20 -43q-27 -9 -44 9q-12 14 -8 34q21 96 23 124q-47 -29 -93 -85q-20 -23 -46 -2q-24 19 -18 43q4 16 26 23q84 26 119 46q-51 22 -119 37q-30 5 -26 36
q4 28 27 36q18 7 35 -9q67 -60 95 -80q-7 52 -26 121q-10 34 21 45q28 9 47 -9q13 -14 7 -36q-2 -10 -9.5 -37t-11.5 -46t-6 -38q47 31 95 80q26 28 50 4q20 -21 12 -46q-6 -17 -24 -21q-9 -2 -28 -6.5t-30.5 -7.5t-28.5 -9t-31 -14zM306 173q49 -24 120 -44q35 -9 28 -40
q-6 -27 -30 -36q-21 -7 -38 10q-63 66 -93 85q5 -56 25 -124q10 -32 -20 -43q-27 -9 -44 9q-13 13 -8 34q21 96 23 124q-47 -29 -93 -85q-20 -23 -46 -2q-24 19 -18 43q4 16 26 23q84 26 119 46q-51 22 -119 37q-30 5 -26 36q4 28 27 36q18 7 35 -9q67 -60 95 -80
q-7 52 -26 121q-10 34 21 45q28 9 47 -9q13 -14 7 -36q-2 -10 -9.5 -37t-11.5 -46t-6 -38q47 31 95 80q26 28 50 4q20 -21 12 -46q-6 -17 -24 -21q-9 -2 -28 -6.5t-30.5 -7.5t-28.5 -9t-31 -14zM726 173q49 -24 120 -44q35 -9 28 -40q-6 -27 -30 -36q-21 -7 -38 10
q-63 66 -93 85q5 -56 25 -124q10 -32 -20 -43q-27 -9 -44 9q-13 13 -8 34q21 96 23 124q-47 -29 -93 -85q-20 -23 -46 -2q-24 19 -18 43q4 16 26 23q84 26 119 46q-51 22 -119 37q-30 5 -26 36q4 28 27 36q18 7 35 -9q67 -60 95 -80q-7 52 -26 121q-10 34 21 45q28 9 47 -9
q13 -14 7 -36q-2 -10 -9.5 -37t-11.5 -46t-6 -38q47 31 95 80q26 28 50 4q20 -21 12 -46q-6 -17 -24 -21q-9 -2 -28 -6.5t-30.5 -7.5t-28.5 -9t-31 -14z" />
    <glyph glyph-name="fraction" unicode="&#x2044;" 
d="M119 -54l241 370l223 353l40 -26l-234 -349l-231 -375z" />
    <glyph glyph-name="zero.sups" unicode="&#x2070;" horiz-adv-x="308" 
d="M32 579q0 92 35.5 139.5t90.5 47.5q53 0 86 -48t33 -139q0 -84 -33 -127.5t-86 -43.5q-55 0 -90.5 43.5t-35.5 127.5zM103 579q0 -71 16 -104t39 -33q20 0 34.5 34t14.5 103q0 52 -7.5 88t-18 50.5t-23.5 14.5q-22 0 -38.5 -39.5t-16.5 -113.5z" />
    <glyph glyph-name="four.sups" unicode="&#x2074;" horiz-adv-x="299" 
d="M200 770l35 -9v-202h34v-44h-34v-100h-67v99h-132l-9 23zM168 659l-6 4l-74 -99l3 -5h77v100z" />
    <glyph glyph-name="five.sups" unicode="&#x2075;" horiz-adv-x="280" 
d="M53 590l16 169h142l14 22h22l-13 -84h-133l-6 -54l5 -5q8 5 25 5q46 0 82.5 -30t36.5 -80q0 -55 -41.5 -90t-97.5 -35q-37 0 -58 11.5t-21 29.5q0 30 29 30q13 0 36.5 -13.5t40.5 -13.5q47 0 47 59q0 34 -21 54.5t-51 20.5q-29 0 -44 -6z" />
    <glyph glyph-name="six.sups" unicode="&#x2076;" horiz-adv-x="296" 
d="M114 617l9 -4q19 21 50 21q36 0 66 -27t30 -78q0 -48 -30 -84.5t-91 -36.5q-51 0 -83 37.5t-32 105.5q0 76 50.5 141t136.5 92l10 -29q-102 -54 -116 -138zM111 568q-4 -12 -4 -46q0 -33 13 -55t30 -22q21 0 33 23.5t12 62.5q0 31 -12 47.5t-28 16.5q-30 0 -44 -27z" />
    <glyph glyph-name="seven.sups" unicode="&#x2077;" horiz-adv-x="278" 
d="M247 759l10 -14q-85 -165 -120 -316q-6 -21 -40 -21q-22 0 -33 5t-7 16q42 116 137 263l-3 8h-125l-18 -43h-25l25 102h199z" />
    <glyph glyph-name="eight.sups" unicode="&#x2078;" horiz-adv-x="307" 
d="M41 493q0 57 66 92v5q-56 29 -56 82q0 39 29.5 66.5t78.5 27.5q44 0 72 -22.5t28 -56.5q0 -50 -59 -85v-4q32 -18 49 -37t17 -53q0 -46 -31.5 -73t-83.5 -27q-48 0 -79 23.5t-31 61.5zM103 491q0 -21 12 -35t36 -14q23 0 37 14.5t14 38.5t-15.5 40.5t-45.5 34.5
q-38 -25 -38 -79zM114 689q0 -45 55 -72q26 26 26 69q0 21 -11 33.5t-29 12.5q-20 0 -30.5 -13t-10.5 -30z" />
    <glyph glyph-name="nine.sups" unicode="&#x2079;" horiz-adv-x="296" 
d="M186 548l-9 4q-19 -17 -45 -17q-43 0 -73.5 29.5t-30.5 80.5q0 55 36.5 88t81.5 33q52 0 85 -39t33 -104q0 -89 -55.5 -154.5t-145.5 -75.5v32q47 9 82 42t41 81zM187 603q6 15 6 55q0 33 -13 53t-36 20q-19 0 -31 -21t-12 -61q0 -76 43 -76q24 0 43 30z" />
    <glyph glyph-name="Euro" unicode="&#x20ac;" horiz-adv-x="672" 
d="M80 389h58q20 114 92.5 181.5t169.5 67.5q106 0 192 -63l-30 -126h-29q1 40 -11.5 70t-34.5 45t-44 22t-43 7q-60 0 -103 -51.5t-55 -152.5h300l-10 -41h-293q-1 -12 -1 -35v-14h284l-10 -41h-272q11 -106 56.5 -163.5t101.5 -57.5q114 0 155 125l39 -13
q-52 -161 -204 -161q-99 0 -169.5 71.5t-83.5 198.5h-65l10 41h52v13q0 24 1 36h-63z" />
    <glyph glyph-name="uni2117" unicode="&#x2117;" horiz-adv-x="793" 
d="M89 296q0 126 90.5 216.5t217.5 90.5q131 0 219 -89.5t88 -217.5q0 -127 -90.5 -217.5t-216.5 -90.5q-129 0 -218.5 87t-89.5 221zM148 294q0 -110 70 -183t180 -73t178.5 72.5t68.5 183.5q0 114 -70.5 187.5t-177.5 73.5q-109 0 -179 -74.5t-70 -186.5zM418 269h-37
v-108l46 -8v-24h-160v24l43 8v270l-43 8v24h153q51 0 89.5 -24.5t38.5 -72.5q0 -44 -35 -70.5t-95 -26.5zM381 427v-124h41q21 0 37 16.5t16 42.5q0 65 -57 65h-37z" />
    <glyph glyph-name="trademark" unicode="&#x2122;" horiz-adv-x="760" 
d="M580 634h-7l-78 -179h-17l-74 179h-5l-15 -150l33 -6v-23h-92v23l33 6l19 193l-38 6v23h94l62 -165h7l71 165h92v-23l-35 -6l12 -193l31 -6v-23h-118v23l34 6zM100 706h210l14 -74h-20l-32 47h-38v-195l32 -6v-23h-121v23l32 6v195h-37l-32 -47h-21z" />
    <glyph glyph-name="oneseventh" unicode="&#x2150;" 
d="M119 -54l241 370l223 353l40 -26l-234 -349l-231 -375zM85 577v33q52 1 96 28l36 -3v-306l51 -8v-32h-171v32l52 8v251q-37 -10 -64 -3zM675 304l10 -14q-85 -165 -120 -316q-6 -21 -40 -21q-22 0 -33 5t-7 16q42 116 137 263l-3 8h-125l-18 -43h-25l25 102h199z" />
    <glyph glyph-name="oneninth" unicode="&#x2151;" 
d="M119 -54l241 370l223 353l40 -26l-234 -349l-231 -375zM85 577v33q52 1 96 28l36 -3v-306l51 -8v-32h-171v32l52 8v251q-37 -10 -64 -3zM583 93l-9 4q-19 -17 -45 -17q-43 0 -73.5 29.5t-30.5 80.5q0 55 36.5 88t81.5 33q52 0 85 -39t33 -104q0 -89 -55.5 -154.5
t-145.5 -75.5v32q47 9 82 42t41 81zM584 148q6 15 6 55q0 33 -13 53t-36 20q-19 0 -31 -21t-12 -61q0 -76 43 -76q24 0 43 30z" />
    <glyph glyph-name="onethird" unicode="&#x2153;" 
d="M119 -54l241 370l223 353l40 -26l-234 -349l-231 -375zM85 577v33q52 1 96 28l36 -3v-306l51 -8v-32h-171v32l52 8v251q-37 -10 -64 -3zM629 249q0 -50 -67 -92v-5q33 -8 56.5 -35t23.5 -60q0 -47 -39.5 -75.5t-85.5 -28.5q-45 0 -70 14.5t-25 37.5q0 11 7.5 19t20.5 8
q17 0 34.5 -21t35.5 -21q19 0 35 16t16 46q0 23 -12.5 42t-27 26.5t-22.5 3.5l-20 -11l-17 23q88 42 88 84q0 39 -41 39q-38 0 -71 -38l-15 17q54 73 121 73q32 0 53.5 -17t21.5 -45z" />
    <glyph glyph-name="twothirds" unicode="&#x2154;" 
d="M119 -54l241 370l223 353l40 -26l-234 -349l-231 -375zM199 533q0 22 -13.5 37t-36.5 15q-22 0 -41 -13.5t-47 -43.5l-17 17q65 95 134 95q45 0 70.5 -22.5t25.5 -57.5q0 -40 -45 -99.5t-90 -99.5l3 -8h106l25 40l23 -7l-31 -97h-214l-6 18q52 43 103 109.5t51 116.5z
M629 249q0 -50 -67 -92v-5q33 -8 56.5 -35t23.5 -60q0 -47 -39.5 -75.5t-85.5 -28.5q-45 0 -70 14.5t-25 37.5q0 11 7.5 19t20.5 8q17 0 34.5 -21t35.5 -21q19 0 35 16t16 46q0 23 -12.5 42t-27 26.5t-22.5 3.5l-20 -11l-17 23q88 42 88 84q0 39 -41 39q-38 0 -71 -38
l-15 17q54 73 121 73q32 0 53.5 -17t21.5 -45z" />
    <glyph glyph-name="onefifth" unicode="&#x2155;" 
d="M119 -54l241 370l223 353l40 -26l-234 -349l-231 -375zM85 577v33q52 1 96 28l36 -3v-306l51 -8v-32h-171v32l52 8v251q-37 -10 -64 -3zM450 135l16 169h142l14 22h22l-13 -84h-133l-6 -54l5 -5q8 5 25 5q46 0 82.5 -30t36.5 -80q0 -55 -41.5 -90t-97.5 -35
q-37 0 -58 11.5t-21 29.5q0 30 29 30q13 0 36.5 -13.5t40.5 -13.5q47 0 47 59q0 34 -21 54.5t-51 20.5q-29 0 -44 -6z" />
    <glyph glyph-name="twofifths" unicode="&#x2156;" 
d="M119 -54l241 370l223 353l40 -26l-234 -349l-231 -375zM199 533q0 22 -13.5 37t-36.5 15q-22 0 -41 -13.5t-47 -43.5l-17 17q65 95 134 95q45 0 70.5 -22.5t25.5 -57.5q0 -40 -45 -99.5t-90 -99.5l3 -8h106l25 40l23 -7l-31 -97h-214l-6 18q52 43 103 109.5t51 116.5z
M450 135l16 169h142l14 22h22l-13 -84h-133l-6 -54l5 -5q8 5 25 5q46 0 82.5 -30t36.5 -80q0 -55 -41.5 -90t-97.5 -35q-37 0 -58 11.5t-21 29.5q0 30 29 30q13 0 36.5 -13.5t40.5 -13.5q47 0 47 59q0 34 -21 54.5t-51 20.5q-29 0 -44 -6z" />
    <glyph glyph-name="threefifths" unicode="&#x2157;" 
d="M119 -54l241 370l223 353l40 -26l-234 -349l-231 -375zM275 578q0 -50 -67 -92v-5q33 -8 56.5 -35t23.5 -60q0 -47 -39.5 -75.5t-85.5 -28.5q-45 0 -70 14.5t-25 37.5q0 11 7.5 19t20.5 8q17 0 34.5 -21t35.5 -21q19 0 35 16t16 46q0 23 -12.5 42t-27 26.5t-22.5 3.5
l-20 -11l-17 23q88 42 88 84q0 39 -41 39q-38 0 -71 -38l-15 17q54 73 121 73q32 0 53.5 -17t21.5 -45zM450 135l16 169h142l14 22h22l-13 -84h-133l-6 -54l5 -5q8 5 25 5q46 0 82.5 -30t36.5 -80q0 -55 -41.5 -90t-97.5 -35q-37 0 -58 11.5t-21 29.5q0 30 29 30
q13 0 36.5 -13.5t40.5 -13.5q47 0 47 59q0 34 -21 54.5t-51 20.5q-29 0 -44 -6z" />
    <glyph glyph-name="fourfifths" unicode="&#x2158;" 
d="M119 -54l241 370l223 353l40 -26l-234 -349l-231 -375zM223 644l35 -9v-202h34v-44h-34v-100h-67v99h-132l-9 23zM191 533l-6 4l-74 -99l3 -5h77v100zM450 135l16 169h142l14 22h22l-13 -84h-133l-6 -54l5 -5q8 5 25 5q46 0 82.5 -30t36.5 -80q0 -55 -41.5 -90t-97.5 -35
q-37 0 -58 11.5t-21 29.5q0 30 29 30q13 0 36.5 -13.5t40.5 -13.5q47 0 47 59q0 34 -21 54.5t-51 20.5q-29 0 -44 -6z" />
    <glyph glyph-name="onesixth" unicode="&#x2159;" 
d="M119 -54l241 370l223 353l40 -26l-234 -349l-231 -375zM85 577v33q52 1 96 28l36 -3v-306l51 -8v-32h-171v32l52 8v251q-37 -10 -64 -3zM490 162l9 -4q19 21 50 21q36 0 66 -27t30 -78q0 -48 -30 -84.5t-91 -36.5q-51 0 -83 37.5t-32 105.5q0 76 50.5 141t136.5 92
l10 -29q-102 -54 -116 -138zM487 113q-4 -12 -4 -46q0 -33 13 -55t30 -22q21 0 33 23.5t12 62.5q0 31 -12 47.5t-28 16.5q-30 0 -44 -27z" />
    <glyph glyph-name="fivesixths" unicode="&#x215a;" 
d="M119 -54l241 370l223 353l40 -26l-234 -349l-231 -375zM95 464l16 169h142l14 22h22l-13 -84h-133l-6 -54l5 -5q8 5 25 5q46 0 82.5 -30t36.5 -80q0 -55 -41.5 -90t-97.5 -35q-37 0 -58 11.5t-21 29.5q0 30 29 30q13 0 36.5 -13.5t40.5 -13.5q47 0 47 59q0 34 -21 54.5
t-51 20.5q-29 0 -44 -6zM490 162l9 -4q19 21 50 21q36 0 66 -27t30 -78q0 -48 -30 -84.5t-91 -36.5q-51 0 -83 37.5t-32 105.5q0 76 50.5 141t136.5 92l10 -29q-102 -54 -116 -138zM487 113q-4 -12 -4 -46q0 -33 13 -55t30 -22q21 0 33 23.5t12 62.5q0 31 -12 47.5t-28 16.5
q-30 0 -44 -27z" />
    <glyph glyph-name="oneeighth" unicode="&#x215b;" 
d="M119 -54l241 370l223 353l40 -26l-234 -349l-231 -375zM85 577v33q52 1 96 28l36 -3v-306l51 -8v-32h-171v32l52 8v251q-37 -10 -64 -3zM438 38q0 57 66 92v5q-56 29 -56 82q0 39 29.5 66.5t78.5 27.5q44 0 72 -22.5t28 -56.5q0 -50 -59 -85v-4q32 -18 49 -37t17 -53
q0 -46 -31.5 -73t-83.5 -27q-48 0 -79 23.5t-31 61.5zM500 36q0 -21 12 -35t36 -14q23 0 37 14.5t14 38.5t-15.5 40.5t-45.5 34.5q-38 -25 -38 -79zM511 234q0 -45 55 -72q26 26 26 69q0 21 -11 33.5t-29 12.5q-20 0 -30.5 -13t-10.5 -30z" />
    <glyph glyph-name="threeeighths" unicode="&#x215c;" 
d="M119 -54l241 370l223 353l40 -26l-234 -349l-231 -375zM275 578q0 -50 -67 -92v-5q33 -8 56.5 -35t23.5 -60q0 -47 -39.5 -75.5t-85.5 -28.5q-45 0 -70 14.5t-25 37.5q0 11 7.5 19t20.5 8q17 0 34.5 -21t35.5 -21q19 0 35 16t16 46q0 23 -12.5 42t-27 26.5t-22.5 3.5
l-20 -11l-17 23q88 42 88 84q0 39 -41 39q-38 0 -71 -38l-15 17q54 73 121 73q32 0 53.5 -17t21.5 -45zM438 38q0 57 66 92v5q-56 29 -56 82q0 39 29.5 66.5t78.5 27.5q44 0 72 -22.5t28 -56.5q0 -50 -59 -85v-4q32 -18 49 -37t17 -53q0 -46 -31.5 -73t-83.5 -27
q-48 0 -79 23.5t-31 61.5zM500 36q0 -21 12 -35t36 -14q23 0 37 14.5t14 38.5t-15.5 40.5t-45.5 34.5q-38 -25 -38 -79zM511 234q0 -45 55 -72q26 26 26 69q0 21 -11 33.5t-29 12.5q-20 0 -30.5 -13t-10.5 -30z" />
    <glyph glyph-name="fiveeighths" unicode="&#x215d;" 
d="M119 -54l241 370l223 353l40 -26l-234 -349l-231 -375zM95 464l16 169h142l14 22h22l-13 -84h-133l-6 -54l5 -5q8 5 25 5q46 0 82.5 -30t36.5 -80q0 -55 -41.5 -90t-97.5 -35q-37 0 -58 11.5t-21 29.5q0 30 29 30q13 0 36.5 -13.5t40.5 -13.5q47 0 47 59q0 34 -21 54.5
t-51 20.5q-29 0 -44 -6zM438 38q0 57 66 92v5q-56 29 -56 82q0 39 29.5 66.5t78.5 27.5q44 0 72 -22.5t28 -56.5q0 -50 -59 -85v-4q32 -18 49 -37t17 -53q0 -46 -31.5 -73t-83.5 -27q-48 0 -79 23.5t-31 61.5zM500 36q0 -21 12 -35t36 -14q23 0 37 14.5t14 38.5t-15.5 40.5
t-45.5 34.5q-38 -25 -38 -79zM511 234q0 -45 55 -72q26 26 26 69q0 21 -11 33.5t-29 12.5q-20 0 -30.5 -13t-10.5 -30z" />
    <glyph glyph-name="seveneighths" unicode="&#x215e;" 
d="M119 -54l241 370l223 353l40 -26l-234 -349l-231 -375zM321 633l10 -14q-85 -165 -120 -316q-6 -21 -40 -21q-22 0 -33 5t-7 16q42 116 137 263l-3 8h-125l-18 -43h-25l25 102h199zM438 38q0 57 66 92v5q-56 29 -56 82q0 39 29.5 66.5t78.5 27.5q44 0 72 -22.5t28 -56.5
q0 -50 -59 -85v-4q32 -18 49 -37t17 -53q0 -46 -31.5 -73t-83.5 -27q-48 0 -79 23.5t-31 61.5zM500 36q0 -21 12 -35t36 -14q23 0 37 14.5t14 38.5t-15.5 40.5t-45.5 34.5q-38 -25 -38 -79zM511 234q0 -45 55 -72q26 26 26 69q0 21 -11 33.5t-29 12.5q-20 0 -30.5 -13
t-10.5 -30z" />
    <glyph glyph-name="uni2191" unicode="&#x2191;" horiz-adv-x="700" 
d="M357 605l264 -237l-46 -61l-183 163v-420h-84v420l-183 -163l-47 61l266 237h13z" />
    <glyph glyph-name="uni2193" unicode="&#x2193;" horiz-adv-x="700" 
d="M621 287l-264 -237h-13l-266 237l47 61l183 -163v420h84v-420l183 163z" />
    <glyph glyph-name="partialdiff" unicode="&#x2202;" horiz-adv-x="540" 
d="M283 594q-84 0 -109 -130h-40l12 113q20 25 62 43t86 18q94 0 143 -78t49 -201q0 -179 -71 -275t-190 -96q-71 0 -121 48t-50 134q0 105 66 167t146 62q39 0 75 -18t53 -51l5 3v39q0 113 -27.5 167.5t-88.5 54.5zM381 270q-10 33 -37 55t-58 22q-55 0 -92.5 -48.5
t-37.5 -129.5q0 -60 21.5 -94.5t62.5 -34.5q57 0 99 63t42 167z" />
    <glyph glyph-name="product" unicode="&#x220f;" horiz-adv-x="540" 
d="M2 626h536v-40l-78 -15v-516l78 -15v-40h-252v40l78 15v516h-188v-516l78 -15v-40h-252v40l78 15v516l-78 15v40z" />
    <glyph glyph-name="summation" unicode="&#x2211;" horiz-adv-x="540" 
d="M146 89l5 -10h250l86 111h41l-50 -190h-465l-8 15l262 270v12l-242 317l8 12h441l26 -171h-36l-89 131h-210l-5 -7l198 -256v-16z" />
    <glyph glyph-name="minus" unicode="&#x2212;" horiz-adv-x="540" 
d="M472 210h-404v62h404v-62z" />
    <glyph glyph-name="radical" unicode="&#x221a;" horiz-adv-x="540" 
d="M317 61h13l152 695l49 -10l-184 -883h-37l-195 526l-98 -35l-16 37l175 59z" />
    <glyph glyph-name="infinity" unicode="&#x221e;" horiz-adv-x="540" 
d="M127 149q-60 0 -92 38.5t-32 88.5q0 54 36.5 92.5t87.5 38.5q74 0 141 -92q33 43 66.5 67.5t77.5 24.5q61 0 92.5 -38t31.5 -89q0 -54 -36.5 -92.5t-87.5 -38.5q-75 0 -141 91q-70 -91 -144 -91zM144 357q-33 0 -54 -22t-21 -59q0 -36 20.5 -57.5t50.5 -21.5q18 0 37 13
t31.5 28t33.5 43q-27 37 -49.5 56.5t-48.5 19.5zM395 199q33 0 54 22t21 59q0 35 -21 57t-50 22q-18 0 -37 -13.5t-31.5 -28t-33.5 -43.5q26 -37 48.5 -56t49.5 -19z" />
    <glyph glyph-name="integral" unicode="&#x222b;" horiz-adv-x="540" 
d="M303 497l12 -487q2 -94 -48 -154t-127 -60q-31 0 -53 17t-22 49q0 21 12.5 37.5t36.5 16.5q50 0 57 -64l26 -7q19 18 31 63.5t10 91.5l-12 487q-2 95 47.5 154t125.5 59q32 0 54.5 -16.5t22.5 -48.5q0 -21 -13 -37.5t-37 -16.5q-49 0 -56 64l-26 7q-44 -41 -41 -155z" />
    <glyph glyph-name="approxequal" unicode="&#x2248;" horiz-adv-x="540" 
d="M429 388l53 -22q-16 -49 -48.5 -82.5t-82.5 -33.5q-35 0 -89.5 36t-79.5 36q-24 0 -43 -10.5t-26.5 -20.5t-20.5 -31l-44 32q17 33 53.5 61t80.5 28q34 0 89 -35t81 -35q28 0 49.5 23t27.5 54zM445 229l47 -23q-14 -40 -51 -68t-78 -28q-43 0 -100.5 35.5t-80.5 35.5
q-39 0 -72 -64l-46 30q52 93 118 93q32 0 90 -35t91 -35q30 0 51.5 17t30.5 42z" />
    <glyph glyph-name="notequal" unicode="&#x2260;" horiz-adv-x="540" 
d="M472 287h-143l-40 -88h183v-62h-212l-56 -123l-56 26l44 97h-124v62h153l40 88h-193v62h222l53 115l56 -26l-41 -89h114v-62z" />
    <glyph glyph-name="lessequal" unicode="&#x2264;" horiz-adv-x="540" 
d="M472 435l-328 -134l328 -134v-67l-404 170v62l404 170v-67zM472 0h-404v62h404v-62z" />
    <glyph glyph-name="greaterequal" unicode="&#x2265;" horiz-adv-x="540" 
d="M396 301l-328 134v67l404 -170v-62l-404 -170v67zM472 0h-404v62h404v-62z" />
    <glyph glyph-name="lozenge" unicode="&#x25ca;" horiz-adv-x="540" 
d="M269 -98l-245 373l245 375l246 -375zM108 275l161 -246l162 246l-162 248z" />
    <glyph glyph-name="uni2605" unicode="&#x2605;" horiz-adv-x="570" 
d="M127 -8l-4 3l66 186l-166 118l2 5l201 -7l57 193h6l58 -193l199 5l1 -4l-163 -117l66 -188l-3 -1l-161 118z" />
    <glyph glyph-name="commaaccent" unicode="&#xf6c3;" horiz-adv-x="500" 
d="M204 -81q0 14 12.5 25.5t32.5 11.5q28 0 47 -22.5t19 -57.5q0 -65 -85 -112l-19 28q47 27 47 58q0 18 -27 35.5t-27 33.5z" />
    <glyph glyph-name="apple" unicode="&#xf8ff;" horiz-adv-x="540" 
d="M209 720h11l32 -121l-3 -82l68 -8l64 99l8 99h12l7 -99l-17 -129l36 -85l35 -38l1 -6l-7 -8v-18l8 -4l-1 -9l-17 -36l-36 7l-11 101l-34 56l-13 -2l26 -60l4 -99l-37 -46l3 -22l26 -37l7 -71l-64 -23l-33 16l-35 57l-75 25l-28 47l-3 42l-30 41l-2 58l4 27l-11 44z
M487 244l6 -9l-3 -37l-12 -17l-5 -33l23 -8l-3 -10l-23 7l-43 -26l-5 10l39 23l5 36l-36 14l-13 31l-1 10l14 15l24 4zM270 305l36 -14l11 13l-3 14l-11 10l-30 -10zM327 64l3 -4l-7 -21l-40 -43l-68 -23l-97 14l-55 48l-18 62l34 95l11 -1l-9 -71l22 -41l37 -33l88 -16
l48 3zM142 438l9 -9l33 34l11 76h-18z" />
    <glyph glyph-name="zero.tnum" horiz-adv-x="520" 
d="M37 298q0 167 64.5 253.5t164.5 86.5q96 0 156 -87t60 -253q0 -152 -60 -231t-156 -79q-101 0 -165 78.5t-64 231.5zM142 299q0 -140 35 -204t89 -64q49 0 80.5 65t31.5 203q0 150 -31.5 223t-80.5 73q-53 0 -88.5 -76t-35.5 -220z" />
    <glyph glyph-name="one.tnum" horiz-adv-x="520" 
d="M101 542v42q93 2 170 50l50 -5v-574l103 -15v-40h-300v40l103 15v492q-75 -18 -126 -5z" />
    <glyph glyph-name="two.tnum" horiz-adv-x="520" 
d="M343 462q0 39 -25 67t-67 28q-40 0 -74 -24t-86 -81l-30 32q111 154 226 154q73 0 114 -41.5t41 -103.5q0 -76 -85.5 -194.5t-168.5 -194.5l6 -14h211l45 63l33 -13l-56 -140h-371l-12 32q43 34 90.5 82.5t96.5 108t80.5 124t31.5 115.5z" />
    <glyph glyph-name="three.tnum" horiz-adv-x="520" 
d="M419 526q0 -47 -34 -88t-80 -70v-10q55 -14 96 -66t41 -116q0 -87 -65.5 -137.5t-143.5 -50.5q-81 0 -127 26t-46 68q0 19 13.5 34t38.5 15q23 0 41 -14.5t29 -32.5t30 -32.5t44 -14.5q36 0 65 29.5t29 83.5q0 49 -27.5 87.5t-58 53.5t-46.5 7l-36 -20l-23 35
q77 39 124 85.5t47 92.5q0 35 -20.5 53t-55.5 18q-82 0 -146 -87l-28 30q97 133 220 133q50 0 84.5 -31t34.5 -81z" />
    <glyph glyph-name="four.tnum" horiz-adv-x="520" 
d="M351 646l44 -17v-377h81v-67h-81v-185h-93v184h-249l-16 37zM302 488l-11 6l-167 -232l5 -10h173v236z" />
    <glyph glyph-name="five.tnum" horiz-adv-x="520" 
d="M106 337l28 289h240l26 39h39l-23 -129h-241l-11 -122l8 -8q21 8 65 8q77 0 137 -54t60 -145q0 -103 -72.5 -165t-189.5 -62q-48 0 -81.5 18t-33.5 46q0 22 13 36t38 14q30 0 71.5 -26t80.5 -26q37 0 64.5 32t27.5 93q0 70 -42.5 112.5t-106.5 42.5q-48 0 -79 -11z" />
    <glyph glyph-name="six.tnum" horiz-adv-x="520" 
d="M169 368l16 -8q45 38 115 38q62 0 113.5 -48.5t51.5 -142.5q0 -39 -11.5 -76t-35.5 -70t-66.5 -53t-98.5 -20q-88 0 -143.5 68t-55.5 192q0 137 89.5 255t240.5 168l10 -35q-194 -97 -225 -268zM163 278q-7 -31 -7 -83q0 -70 29 -114t72 -44q50 0 78 47.5t28 126.5
q0 67 -27.5 101t-68.5 34q-70 0 -104 -68z" />
    <glyph glyph-name="seven.tnum" horiz-adv-x="520" 
d="M456 626l19 -26q-167 -357 -217 -575q-9 -37 -65 -37q-25 0 -39 10t-7 28q87 243 247 496l-7 14h-242l-32 -78h-45l46 168h342z" />
    <glyph glyph-name="eight.tnum" horiz-adv-x="520" 
d="M65 141q0 59 32 96t87 67v9q-48 25 -75 66.5t-27 87.5q0 70 51 120.5t136 50.5q75 0 124.5 -40t49.5 -103q0 -44 -26 -79t-81 -70v-8q56 -32 87.5 -69.5t31.5 -99.5q0 -83 -54.5 -132t-144.5 -49q-84 0 -137.5 42t-53.5 111zM141 139q0 -48 28.5 -78t86.5 -30
q54 0 86.5 31.5t32.5 82.5q0 46 -34.5 76.5t-103.5 63.5q-43 -21 -69.5 -59.5t-26.5 -86.5zM161 499q0 -47 32.5 -78.5t94.5 -56.5q74 47 74 128q0 48 -27.5 75.5t-72.5 27.5q-47 0 -74 -28.5t-27 -67.5z" />
    <glyph glyph-name="nine.tnum" horiz-adv-x="520" 
d="M355 251l-16 8q-49 -41 -105 -41q-74 0 -127 53.5t-53 147.5q0 101 64 160t143 59q91 0 147.5 -70.5t56.5 -189.5q0 -161 -98 -280t-258 -138v40q97 22 166 87.5t80 163.5zM356 341q11 46 11 100q0 69 -28 110t-82 41q-48 0 -74 -42.5t-26 -124.5q0 -156 100 -156
q32 0 55 18t44 54z" />
    <glyph glyph-name="exclamdown.case" horiz-adv-x="423" 
d="M276 655q0 -27 -18.5 -46t-45.5 -19t-46 19t-19 46t19 45.5t46 18.5t45.5 -18.5t18.5 -45.5zM272 -22h-120l40 524h40z" />
    <glyph glyph-name="questiondown.case" horiz-adv-x="493" 
d="M368 659q0 -27 -18.5 -46t-45.5 -19t-46 19t-19 46t19 45.5t46 18.5t45.5 -18.5t18.5 -45.5zM326 512v-211q-90 11 -136.5 -25t-46.5 -100q0 -47 30.5 -73.5t88.5 -26.5q98 0 98 -51q0 -23 -16.5 -37.5t-46.5 -14.5q-72 0 -136 67.5t-64 170.5q0 97 56.5 144t129.5 40
v117h43z" />
    <glyph glyph-name="hyphen.case" horiz-adv-x="404" 
d="M77 358h250v-73h-250v73z" />
    <glyph glyph-name="endash.case" horiz-adv-x="574" 
d="M87 358h400v-73h-400v73z" />
    <glyph glyph-name="emdash.case" horiz-adv-x="1110" 
d="M147 353h816v-63h-816v63z" />
    <glyph glyph-name="guilsinglleft.case" horiz-adv-x="465" 
d="M110 330l182 219l33 -20l-108 -201v-15l108 -203l-33 -24l-182 221v23z" />
    <glyph glyph-name="guilsinglright.case" horiz-adv-x="465" 
d="M173 549l182 -219v-23l-182 -221l-33 24l108 203v15l-108 201z" />
    <glyph glyph-name="guillemotleft.case" horiz-adv-x="672" 
d="M110 330l182 219l33 -20l-108 -201v-15l108 -203l-33 -24l-182 221v23zM317 330l182 219l33 -20l-108 -201v-15l108 -203l-33 -24l-182 221v23z" />
    <glyph glyph-name="guillemotright.case" horiz-adv-x="672" 
d="M380 549l182 -219v-23l-182 -221l-33 24l108 203v15l-108 201zM173 549l182 -219v-23l-182 -221l-33 24l108 203v15l-108 201z" />
    <glyph glyph-name="exclam.c2sc" horiz-adv-x="423" 
d="M147 57q0 27 18.5 46t45.5 19t46 -19t19 -46t-19 -45.5t-46 -18.5t-45.5 18.5t-18.5 45.5zM154 548h114l-37 -358h-40z" />
    <glyph glyph-name="exclamdown.c2sc" horiz-adv-x="423" 
d="M276 469q0 -27 -18.5 -46t-45.5 -19t-46 19t-19 46t19 45.5t46 18.5t45.5 -18.5t18.5 -45.5zM269 -22h-114l37 358h40z" />
    <glyph glyph-name="question.c2sc" horiz-adv-x="477" 
d="M125 57q0 27 18.5 46t45.5 19t46 -19t19 -46t-19 -45.5t-46 -18.5t-45.5 18.5t-18.5 45.5zM167 190v135q168 2 168 71t-134 69q-68 0 -68 41q0 20 16.5 33.5t46.5 13.5q67 0 123.5 -44.5t56.5 -113.5q0 -70 -48.5 -107.5t-117.5 -41.5v-56h-43z" />
    <glyph glyph-name="questiondown.c2sc" horiz-adv-x="477" 
d="M352 469q0 -27 -18.5 -46t-45.5 -19t-46 19t-19 46t19 45.5t46 18.5t45.5 -18.5t18.5 -45.5zM310 336v-135q-168 -2 -168 -71t134 -69q68 0 68 -41q0 -20 -16.5 -33.5t-46.5 -13.5q-67 0 -123.5 44.5t-56.5 113.5q0 70 48.5 107.5t117.5 41.5v56h43z" />
    <glyph glyph-name="quoteleft.c2sc" horiz-adv-x="401" 
d="M268 257q0 -23 -14 -37.5t-39 -14.5q-42 0 -70 38t-28 100q0 69 36.5 119.5t82.5 77.5l28 -42q-80 -60 -80 -120q0 -23 13 -39t29 -24t29 -23t13 -35z" />
    <glyph glyph-name="quoteright.c2sc" horiz-adv-x="401" 
d="M133 488q0 23 14 37.5t39 14.5q42 0 70 -38t28 -100q0 -69 -36.5 -119.5t-82.5 -77.5l-28 42q80 60 80 120q0 23 -13 39t-29 24t-29 23t-13 35z" />
    <glyph glyph-name="quotedblleft.c2sc" horiz-adv-x="641" 
d="M268 257q0 -23 -14 -37.5t-39 -14.5q-42 0 -70 38t-28 100q0 69 36.5 119.5t82.5 77.5l28 -42q-80 -60 -80 -120q0 -23 13 -39t29 -24t29 -23t13 -35zM508 257q0 -23 -14 -37.5t-39 -14.5q-42 0 -70 38t-28 100q0 69 36.5 119.5t82.5 77.5l28 -42q-80 -60 -80 -120
q0 -23 13 -39t29 -24t29 -23t13 -35z" />
    <glyph glyph-name="quotedblright.c2sc" horiz-adv-x="641" 
d="M373 488q0 23 14 37.5t39 14.5q42 0 70 -38t28 -100q0 -69 -36.5 -119.5t-82.5 -77.5l-28 42q80 60 80 120q0 23 -13 39t-29 24t-29 23t-13 35zM133 488q0 23 14 37.5t39 14.5q42 0 70 -38t28 -100q0 -69 -36.5 -119.5t-82.5 -77.5l-28 42q80 60 80 120q0 23 -13 39
t-29 24t-29 23t-13 35z" />
    <glyph glyph-name="guilsinglleft.c2sc" horiz-adv-x="465" 
d="M110 260l182 219l33 -20l-108 -201v-15l108 -203l-33 -24l-182 221v23z" />
    <glyph glyph-name="guilsinglright.c2sc" horiz-adv-x="465" 
d="M355 235l-182 -219l-33 20l108 201v15l-108 203l33 24l182 -221v-23z" />
    <glyph glyph-name="guillemotleft.c2sc" horiz-adv-x="675" 
d="M110 260l182 219l33 -20l-108 -201v-15l108 -203l-33 -24l-182 221v23zM320 260l182 219l33 -20l-108 -201v-15l108 -203l-33 -24l-182 221v23z" />
    <glyph glyph-name="guillemotright.c2sc" horiz-adv-x="675" 
d="M565 235l-182 -219l-33 20l108 201v15l-108 203l33 24l182 -221v-23zM355 235l-182 -219l-33 20l108 201v15l-108 203l33 24l182 -221v-23z" />
    <glyph glyph-name="zero.onum" horiz-adv-x="535" 
d="M50 228q0 105 62 174t155 69q96 0 157 -69t61 -174q0 -109 -61 -174.5t-157 -65.5t-156.5 67.5t-60.5 172.5zM153 228q0 -96 33 -145.5t81 -49.5q115 0 115 195q0 96 -30.5 147t-84.5 51q-50 0 -82 -51.5t-32 -146.5z" />
    <glyph glyph-name="one.onum" horiz-adv-x="396" 
d="M60 398v35q82 -1 154 33l35 -4v-412l82 -15v-35h-256v35l83 15v338q-61 -7 -98 10z" />
    <glyph glyph-name="two.onum" horiz-adv-x="481" 
d="M305 318q0 35 -23 55t-64 20q-70 0 -153 -78l-25 27q42 53 99 91t120 38q66 0 104 -33t38 -86q0 -38 -26.5 -79.5t-55.5 -67.5t-75 -63t-60 -50l5 -11h170l41 42l32 -10l-51 -113h-336l-12 32q6 5 47 35t73 56t70 61.5t60 70t22 63.5z" />
    <glyph glyph-name="three.onum" horiz-adv-x="473" 
d="M396 359q0 -47 -34 -88t-80 -70v-10q55 -14 96 -66t41 -116q0 -87 -65.5 -137.5t-143.5 -50.5q-81 0 -127 26t-46 68q0 19 13.5 34t38.5 15q23 0 41 -14.5t29 -32.5t30 -32.5t44 -14.5q35 0 64.5 29t29.5 84q0 49 -27.5 87.5t-58 53.5t-46.5 7l-36 -20l-23 35
q77 39 124 85.5t47 92.5q0 35 -20.5 53t-55.5 18q-82 0 -146 -87l-28 30q97 133 220 133q50 0 84.5 -31t34.5 -81z" />
    <glyph glyph-name="four.onum" horiz-adv-x="524" 
d="M361 479l44 -17v-377h81v-67h-81v-185h-93v184h-249l-16 37zM312 321l-11 6l-167 -232l5 -10h173v236z" />
    <glyph glyph-name="five.onum" horiz-adv-x="476" 
d="M89 170l28 289h240l26 39h39l-23 -129h-241l-11 -122l8 -8q21 8 65 8q77 0 137 -54t60 -145q0 -103 -72.5 -165t-189.5 -62q-48 0 -81.5 18t-33.5 46q0 22 13 36t38 14q30 0 71.5 -26t80.5 -26q37 0 64.5 32t27.5 93q0 70 -42.5 112.5t-106.5 42.5q-48 0 -79 -11z" />
    <glyph glyph-name="six.onum" horiz-adv-x="505" 
d="M167 368l16 -8q45 38 115 38q62 0 113.5 -48.5t51.5 -142.5q0 -39 -11.5 -76t-35.5 -70t-66.5 -53t-98.5 -20q-88 0 -143.5 68t-55.5 192q0 137 89.5 255t240.5 168l10 -35q-194 -97 -225 -268zM161 278q-7 -31 -7 -83q0 -70 29 -114t72 -44q50 0 78 47.5t28 126.5
q0 67 -27.5 101t-68.5 34q-70 0 -104 -68z" />
    <glyph glyph-name="seven.onum" horiz-adv-x="471" 
d="M422 459l19 -26q-167 -357 -217 -575q-9 -37 -65 -37q-25 0 -39 10t-7 28q87 243 247 496l-7 14h-242l-32 -78h-45l46 168h342z" />
    <glyph glyph-name="eight.onum" horiz-adv-x="524" 
d="M67 141q0 59 32 96t87 67v9q-48 25 -75 66.5t-27 87.5q0 70 51 120.5t136 50.5q75 0 124.5 -40t49.5 -103q0 -44 -26 -79t-81 -70v-8q56 -32 87.5 -69.5t31.5 -99.5q0 -83 -54.5 -132t-144.5 -49q-84 0 -137.5 42t-53.5 111zM143 139q0 -48 28.5 -78t86.5 -30
q54 0 86.5 31.5t32.5 82.5q0 46 -34.5 76.5t-103.5 63.5q-43 -21 -69.5 -59.5t-26.5 -86.5zM163 499q0 -47 32.5 -78.5t94.5 -56.5q74 47 74 128q0 48 -27.5 75.5t-72.5 27.5q-47 0 -74 -28.5t-27 -67.5z" />
    <glyph glyph-name="nine.onum" horiz-adv-x="505" 
d="M343 84l-16 8q-49 -41 -105 -41q-74 0 -127 53.5t-53 147.5q0 101 64 160t143 59q91 0 147.5 -70.5t56.5 -189.5q0 -161 -98 -280t-258 -138v40q97 22 166 87.5t80 163.5zM344 174q11 46 11 100q0 69 -28 110t-82 41q-48 0 -74 -42.5t-26 -124.5q0 -156 100 -156
q32 0 55 18t44 54z" />
    <glyph glyph-name="zero.onum.tnum" horiz-adv-x="520" 
d="M53 228q0 105 59.5 174t147.5 69q92 0 150 -69t58 -174q0 -109 -58.5 -174.5t-149.5 -65.5q-92 0 -149.5 67.5t-57.5 172.5zM156 228q0 -96 30.5 -145.5t73.5 -49.5q105 0 105 195q0 96 -28 147t-77 51q-46 0 -75 -51.5t-29 -146.5z" />
    <glyph glyph-name="one.onum.tnum" horiz-adv-x="520" 
d="M117 398v35q88 -1 169 33l35 -4v-412l92 -15v-35h-276v35l93 15v338q-72 -7 -113 10z" />
    <glyph glyph-name="two.onum.tnum" horiz-adv-x="520" 
d="M330 318q0 35 -23 55t-64 20q-70 0 -153 -78l-25 27q42 53 99 91t120 38q66 0 104 -33t38 -86q0 -38 -26.5 -79.5t-55.5 -67.5t-75 -63t-60 -50l5 -11h170l41 42l32 -10l-51 -113h-336l-12 32q6 5 47 35t73 56t70 61.5t60 70t22 63.5z" />
    <glyph glyph-name="three.onum.tnum" horiz-adv-x="520" 
d="M416 360q0 -47 -34 -88t-80 -70v-10q55 -14 96 -66t41 -116q0 -87 -65.5 -137.5t-143.5 -50.5q-81 0 -127 26t-46 68q0 19 13.5 34t38.5 15q23 0 41 -14.5t29 -32.5t30 -32.5t44 -14.5q35 0 64.5 29.5t29.5 83.5q0 49 -27.5 87.5t-58 53.5t-46.5 7l-36 -20l-23 35
q77 39 124 85.5t47 92.5q0 35 -20.5 53t-55.5 18q-82 0 -146 -87l-28 30q97 133 220 133q50 0 84.5 -31t34.5 -81z" />
    <glyph glyph-name="four.onum.tnum" horiz-adv-x="520" 
d="M348 480l44 -17v-377h81v-67h-81v-185h-93v184h-249l-16 37zM299 322l-11 6l-167 -232l5 -10h173v236z" />
    <glyph glyph-name="five.onum.tnum" horiz-adv-x="520" 
d="M105 171l28 289h240l26 39h39l-23 -129h-241l-11 -122l8 -8q21 8 65 8q77 0 137 -54t60 -145q0 -103 -72.5 -165t-189.5 -62q-48 0 -81.5 18t-33.5 46q0 22 13 36t38 14q30 0 71.5 -26t80.5 -26q37 0 64.5 32t27.5 93q0 70 -42.5 112.5t-106.5 42.5q-48 0 -79 -11z" />
    <glyph glyph-name="six.onum.tnum" horiz-adv-x="520" 
d="M173 368l16 -8q45 38 115 38q62 0 113.5 -48.5t51.5 -142.5q0 -39 -11.5 -76t-35.5 -70t-66.5 -53t-98.5 -20q-88 0 -143.5 68t-55.5 192q0 137 89.5 255t240.5 168l10 -35q-194 -97 -225 -268zM167 278q-7 -31 -7 -83q0 -70 29 -114t72 -44q50 0 78 47.5t28 126.5
q0 67 -27.5 101t-68.5 34q-70 0 -104 -68z" />
    <glyph glyph-name="seven.onum.tnum" horiz-adv-x="520" 
d="M453 460l19 -26q-167 -357 -217 -575q-9 -37 -65 -37q-25 0 -39 10t-7 28q87 243 247 496l-7 14h-242l-32 -78h-45l46 168h342z" />
    <glyph glyph-name="eight.onum.tnum" horiz-adv-x="520" 
d="M67 141q0 59 32 96t87 67v9q-48 25 -75 66.5t-27 87.5q0 70 51 120.5t136 50.5q75 0 124.5 -40t49.5 -103q0 -44 -26 -79t-81 -70v-8q56 -32 87.5 -69.5t31.5 -99.5q0 -83 -54.5 -132t-144.5 -49q-84 0 -137.5 42t-53.5 111zM143 139q0 -48 28.5 -78t86.5 -30
q54 0 86.5 31.5t32.5 82.5q0 46 -34.5 76.5t-103.5 63.5q-43 -21 -69.5 -59.5t-26.5 -86.5zM163 499q0 -47 32.5 -78.5t94.5 -56.5q74 47 74 128q0 48 -27.5 75.5t-72.5 27.5q-47 0 -74 -28.5t-27 -67.5z" />
    <glyph glyph-name="nine.onum.tnum" horiz-adv-x="520" 
d="M355 85l-16 8q-49 -41 -105 -41q-74 0 -127 53.5t-53 147.5q0 101 64 160t143 59q91 0 147.5 -70.5t56.5 -189.5q0 -161 -98 -280t-258 -138v40q97 22 166 87.5t80 163.5zM356 175q11 46 11 100q0 69 -28 110t-82 41q-48 0 -74 -42.5t-26 -124.5q0 -156 100 -156
q32 0 55 18t44 54z" />
    <glyph glyph-name="dollar.onum" horiz-adv-x="483" 
d="M261 555v-85q44 -5 87 -24l25 11h14l12 -138h-30q-31 93 -108 105v-147q74 -25 110.5 -61.5t36.5 -90.5q0 -61 -40 -96t-107 -40v-77h-37v77q-61 4 -94 29l-22 -12h-22l-11 142h34q25 -106 115 -116v166q-76 26 -109 61t-33 84q0 46 39 84.5t103 42.5v85h37zM335 105
q0 27 -16 46t-58 35v-153q36 5 55 24t19 48zM155 361q0 -43 69 -71v135q-33 -4 -51 -21t-18 -43z" />
    <glyph glyph-name="cent.onum" horiz-adv-x="453" 
d="M252 546v-95q63 0 101 -26t38 -63q0 -38 -44 -38q-22 0 -34.5 13.5t-16 29.5t-14.5 31t-30 18v-323h13q34 0 63.5 18t46.5 44l27 -13q-20 -52 -59.5 -86t-90.5 -38v-98h-38v98q-73 10 -117 71t-44 143q0 81 44.5 141t116.5 74v99h38zM139 248q0 -115 75 -146v308
q-32 -16 -53.5 -59.5t-21.5 -102.5z" />
    <glyph glyph-name="sterling.onum" horiz-adv-x="494" 
d="M83 264h54q-20 51 -20 83q0 60 46 92t106 32q63 0 99 -29.5t36 -62.5q0 -16 -9.5 -26t-20.5 -10q-18 0 -30 15t-18.5 33.5t-21 33.5t-36.5 15q-23 0 -40 -20t-17 -58q0 -13 2.5 -27t5.5 -22.5t9 -25t8 -23.5h106v-38h-96q2 -20 2 -30q0 -66 -40 -98l5 -8q14 6 30 6
q29 0 66.5 -33.5t61.5 -33.5q26 0 26 24q0 10 -19 25.5t-19 30.5q0 10 7 18t19 8q22 0 35.5 -17t13.5 -47q0 -40 -26.5 -61.5t-62.5 -21.5q-55 0 -104.5 19t-75.5 41h-3q-35 -60 -72 -60q-20 0 -20 18q0 42 82 71q13 41 13 79q0 30 -14 70h-68v38z" />
    <glyph glyph-name="yen.onum" horiz-adv-x="527" 
d="M115 193h101l-131 220l-55 13v34h206v-34l-54 -13l96 -167h13l96 158l-70 22v34h180v-34l-58 -22l-127 -211h100v-36h-104v-35h104v-36h-104v-39l64 -13v-34h-217v34l65 13v39h-105v36h105v35h-105v36z" />
    <glyph glyph-name="Euro.onum" horiz-adv-x="558" 
d="M82 286h44q16 85 72 135t132 50q88 0 153 -47l-22 -93h-27q2 51 -31.5 74t-72.5 23q-42 0 -72.5 -36t-39.5 -106h228l-8 -35h-223v-21v-14h216l-7 -35h-206q9 -71 40.5 -109t70.5 -38q88 0 120 83l34 -9q-41 -120 -162 -120q-76 0 -130.5 51t-66.5 142h-49l7 35h39v13v22
h-46z" />
    <glyph glyph-name="numbersign.onum" horiz-adv-x="502" 
d="M93 373h88l34 163h55l-34 -163h80l34 163h55l-34 -163h79v-64h-92l-30 -141h81v-64h-94l-40 -191h-55l40 191h-80l-40 -191h-55l40 191h-73v64h86l30 141h-75v64zM223 309l-30 -141h80l30 141h-80z" />
    <glyph glyph-name="fraction.onum" 
d="M119 -134l241 370l223 353l40 -26l-234 -349l-231 -375z" />
    <glyph glyph-name="percent.onum" horiz-adv-x="485" 
d="M243 376l-2 -1q-1 -59 -33 -97.5t-75 -38.5q-40 0 -65.5 27t-25.5 68q0 56 38.5 96.5t82.5 40.5q58 0 77 -52q9 -25 50 -25q32 0 57 23q21 50 47 50q27 0 27 -17q0 -22 -33 -46l-157 -213l-144 -210l-37 20l153 204l114 164l-2 2q-17 -9 -35 -9q-23 0 -37 14zM234 83
q0 55 38.5 96t81.5 41q37 0 60 -23.5t23 -64.5q0 -64 -34.5 -104t-76.5 -40q-41 0 -66.5 26.5t-25.5 68.5zM362 184q-25 0 -46.5 -36.5t-21.5 -81.5q0 -44 36 -44q26 0 49 31t23 84q0 22 -11.5 34.5t-28.5 12.5zM171 435q-25 0 -46.5 -36.5t-21.5 -81.5q0 -44 37 -44
q25 0 48 32t23 83q0 22 -11.5 34.5t-28.5 12.5z" />
    <glyph glyph-name="perthousand.onum" horiz-adv-x="712" 
d="M243 376l-2 -1q-1 -59 -33 -97.5t-75 -38.5q-40 0 -65.5 27t-25.5 68q0 56 38.5 96.5t82.5 40.5q58 0 77 -52q9 -25 50 -25q32 0 57 23q21 50 47 50q27 0 27 -17q0 -22 -33 -46l-157 -213l-144 -210l-37 20l153 204l114 164l-2 2q-17 -9 -35 -9q-23 0 -37 14zM234 83
q0 55 38.5 96t81.5 41q37 0 60 -23.5t23 -64.5q0 -64 -34.5 -104t-76.5 -40q-41 0 -66.5 26.5t-25.5 68.5zM362 184q-25 0 -46.5 -36.5t-21.5 -81.5q0 -44 36 -44q26 0 49 31t23 84q0 22 -11.5 34.5t-28.5 12.5zM171 435q-25 0 -46.5 -36.5t-21.5 -81.5q0 -44 37 -44
q25 0 48 32t23 83q0 22 -11.5 34.5t-28.5 12.5zM461 83q0 55 38.5 96t81.5 41q37 0 60 -23.5t23 -64.5q0 -64 -34.5 -104t-76.5 -40q-41 0 -66.5 26.5t-25.5 68.5zM589 184q-25 0 -46.5 -36.5t-21.5 -81.5q0 -44 36 -44q26 0 49 31t23 84q0 22 -11.5 34.5t-28.5 12.5z" />
    <glyph glyph-name="ordfeminine.onum" horiz-adv-x="457" 
d="M306 151l-30 75h-130l-27 -68l51 -17v-30h-135v30l40 17l130 318h51l129 -325l37 -10v-30h-159v30zM210 383l-50 -122h103l-48 122h-5z" />
    <glyph glyph-name="ordmasculine.onum" horiz-adv-x="440" 
d="M30 297q0 86 55 138.5t136 52.5q83 0 136 -51.5t53 -139.5q0 -89 -54 -139t-135 -50q-82 0 -136.5 50.5t-54.5 138.5zM117 297q0 -68 30 -107t74 -39q45 0 73.5 36t28.5 110q0 72 -29 111.5t-73 39.5t-74 -40t-30 -111z" />
    <glyph glyph-name="degree.onum" horiz-adv-x="387" 
d="M50 314q0 59 42 101.5t101 42.5t101.5 -42.5t42.5 -101.5t-42.5 -101t-101.5 -42t-101 42.5t-42 100.5zM110 314q0 -39 22.5 -65.5t59.5 -26.5t60.5 26.5t23.5 65.5t-23.5 66.5t-60.5 27.5t-59.5 -27.5t-22.5 -66.5z" />
    <glyph glyph-name="zero.numr" horiz-adv-x="308" 
d="M32 479q0 92 35.5 139.5t90.5 47.5q53 0 86 -48t33 -139q0 -84 -33 -127.5t-86 -43.5q-55 0 -90.5 43.5t-35.5 127.5zM103 479q0 -71 16 -104t39 -33q20 0 34.5 34t14.5 103q0 52 -7.5 88t-18 50.5t-23.5 14.5q-22 0 -38.5 -39.5t-16.5 -113.5z" />
    <glyph glyph-name="one.numr" horiz-adv-x="253" 
d="M37 603v33q52 1 96 28l36 -3v-306l51 -8v-32h-171v32l52 8v251q-37 -10 -64 -3z" />
    <glyph glyph-name="two.numr" horiz-adv-x="307" 
d="M184 559q0 22 -13.5 37t-36.5 15q-22 0 -41 -13.5t-47 -43.5l-17 17q65 95 134 95q45 0 70.5 -22.5t25.5 -57.5q0 -40 -45 -99.5t-90 -99.5l3 -8h106l25 40l23 -7l-31 -97h-214l-6 18q52 43 103 109.5t51 116.5z" />
    <glyph glyph-name="three.numr" horiz-adv-x="279" 
d="M232 604q0 -50 -67 -92v-5q33 -8 56.5 -35t23.5 -60q0 -47 -39.5 -75.5t-85.5 -28.5q-45 0 -70 14.5t-25 37.5q0 11 7.5 19t20.5 8q17 0 34.5 -21t35.5 -21q19 0 35 16t16 46q0 23 -12.5 42t-27 26.5t-22.5 3.5l-20 -11l-17 23q88 42 88 84q0 39 -41 39q-38 0 -71 -38
l-15 17q54 73 121 73q32 0 53.5 -17t21.5 -45z" />
    <glyph glyph-name="four.numr" horiz-adv-x="299" 
d="M200 670l35 -9v-202h34v-44h-34v-100h-67v99h-132l-9 23zM168 559l-6 4l-74 -99l3 -5h77v100z" />
    <glyph glyph-name="five.numr" horiz-adv-x="280" 
d="M53 490l16 169h142l14 22h22l-13 -84h-133l-6 -54l5 -5q8 5 25 5q46 0 82.5 -30t36.5 -80q0 -55 -41.5 -90t-97.5 -35q-37 0 -58 11.5t-21 29.5q0 30 29 30q13 0 36.5 -13.5t40.5 -13.5q47 0 47 59q0 34 -21 54.5t-51 20.5q-29 0 -44 -6z" />
    <glyph glyph-name="six.numr" horiz-adv-x="296" 
d="M114 517l9 -4q19 21 50 21q36 0 66 -27t30 -78q0 -48 -30 -84.5t-91 -36.5q-51 0 -83 37.5t-32 105.5q0 76 50.5 141t136.5 92l10 -29q-102 -54 -116 -138zM111 468q-4 -12 -4 -46q0 -33 13 -55t30 -22q21 0 33 23.5t12 62.5q0 31 -12 47.5t-28 16.5q-30 0 -44 -27z" />
    <glyph glyph-name="seven.numr" horiz-adv-x="278" 
d="M247 659l10 -14q-85 -165 -120 -316q-6 -21 -40 -21q-22 0 -33 5t-7 16q42 116 137 263l-3 8h-125l-18 -43h-25l25 102h199z" />
    <glyph glyph-name="eight.numr" horiz-adv-x="307" 
d="M41 393q0 57 66 92v5q-56 29 -56 82q0 39 29.5 66.5t78.5 27.5q44 0 72 -22.5t28 -56.5q0 -50 -59 -85v-4q32 -18 49 -37t17 -53q0 -46 -31.5 -73t-83.5 -27q-48 0 -79 23.5t-31 61.5zM103 391q0 -21 12 -35t36 -14q23 0 37 14.5t14 38.5t-15.5 40.5t-45.5 34.5
q-38 -25 -38 -79zM114 589q0 -45 55 -72q26 26 26 69q0 22 -11 34t-29 12q-20 0 -30.5 -13t-10.5 -30z" />
    <glyph glyph-name="nine.numr" horiz-adv-x="296" 
d="M186 448l-9 4q-19 -17 -45 -17q-43 0 -73.5 29.5t-30.5 80.5q0 55 36.5 88t81.5 33q52 0 85 -39t33 -104q0 -89 -55.5 -154.5t-145.5 -75.5v32q47 9 82 42t41 81zM187 503q6 15 6 55q0 33 -13 53t-36 20q-19 0 -31 -21t-12 -61q0 -76 43 -76q24 0 43 30z" />
    <glyph glyph-name="zero.dnom" horiz-adv-x="308" 
d="M32 124q0 92 35.5 139.5t90.5 47.5q53 0 86 -48t33 -139q0 -84 -33 -127.5t-86 -43.5q-55 0 -90.5 43.5t-35.5 127.5zM103 124q0 -71 16 -104t39 -33q20 0 34.5 34t14.5 103q0 52 -7.5 88t-18 50.5t-23.5 14.5q-22 0 -38.5 -39.5t-16.5 -113.5z" />
    <glyph glyph-name="one.dnom" horiz-adv-x="253" 
d="M37 248v33q52 1 96 28l36 -3v-306l51 -8v-32h-171v32l52 8v251q-37 -10 -64 -3z" />
    <glyph glyph-name="two.dnom" horiz-adv-x="307" 
d="M184 204q0 22 -13.5 37t-36.5 15q-22 0 -41 -13.5t-47 -43.5l-17 17q65 95 134 95q45 0 70.5 -22.5t25.5 -57.5q0 -40 -45 -99.5t-90 -99.5l3 -8h106l25 40l23 -7l-31 -97h-214l-6 18q52 43 103 109.5t51 116.5z" />
    <glyph glyph-name="three.dnom" horiz-adv-x="279" 
d="M232 249q0 -50 -67 -92v-5q33 -8 56.5 -35t23.5 -60q0 -47 -39.5 -75.5t-85.5 -28.5q-45 0 -70 14.5t-25 37.5q0 11 7.5 19t20.5 8q17 0 34.5 -21t35.5 -21q19 0 35 16t16 46q0 23 -12.5 42t-27 26.5t-22.5 3.5l-20 -11l-17 23q88 42 88 84q0 39 -41 39q-38 0 -71 -38
l-15 17q54 73 121 73q32 0 53.5 -17t21.5 -45z" />
    <glyph glyph-name="four.dnom" horiz-adv-x="299" 
d="M200 315l35 -9v-202h34v-44h-34v-100h-67v99h-132l-9 23zM168 204l-6 4l-74 -99l3 -5h77v100z" />
    <glyph glyph-name="five.dnom" horiz-adv-x="280" 
d="M53 135l16 169h142l14 22h22l-13 -84h-133l-6 -54l5 -5q8 5 25 5q46 0 82.5 -30t36.5 -80q0 -55 -41.5 -90t-97.5 -35q-37 0 -58 11.5t-21 29.5q0 30 29 30q13 0 36.5 -13.5t40.5 -13.5q47 0 47 59q0 34 -21 54.5t-51 20.5q-29 0 -44 -6z" />
    <glyph glyph-name="six.dnom" horiz-adv-x="296" 
d="M114 162l9 -4q19 21 50 21q36 0 66 -27t30 -78q0 -48 -30 -84.5t-91 -36.5q-51 0 -83 37.5t-32 105.5q0 76 50.5 141t136.5 92l10 -29q-102 -54 -116 -138zM111 113q-4 -12 -4 -46q0 -33 13 -55t30 -22q21 0 33 23.5t12 62.5q0 31 -12 47.5t-28 16.5q-30 0 -44 -27z" />
    <glyph glyph-name="seven.dnom" horiz-adv-x="278" 
d="M247 304l10 -14q-85 -165 -120 -316q-6 -21 -40 -21q-22 0 -33 5t-7 16q42 116 137 263l-3 8h-125l-18 -43h-25l25 102h199z" />
    <glyph glyph-name="eight.dnom" horiz-adv-x="307" 
d="M41 38q0 57 66 92v5q-56 29 -56 82q0 39 29.5 66.5t78.5 27.5q44 0 72 -22.5t28 -56.5q0 -50 -59 -85v-4q32 -18 49 -37t17 -53q0 -46 -31.5 -73t-83.5 -27q-48 0 -79 23.5t-31 61.5zM103 36q0 -21 12 -35t36 -14q23 0 37 14.5t14 38.5t-15.5 40.5t-45.5 34.5
q-38 -25 -38 -79zM114 234q0 -45 55 -72q26 26 26 69q0 21 -11 33.5t-29 12.5q-20 0 -30.5 -13t-10.5 -30z" />
    <glyph glyph-name="nine.dnom" horiz-adv-x="296" 
d="M186 93l-9 4q-19 -17 -45 -17q-43 0 -73.5 29.5t-30.5 80.5q0 55 36.5 88t81.5 33q52 0 85 -39t33 -104q0 -89 -55.5 -154.5t-145.5 -75.5v32q47 9 82 42t41 81zM187 148q6 15 6 55q0 33 -13 53t-36 20q-19 0 -31 -21t-12 -61q0 -76 43 -76q24 0 43 30z" />
    <glyph glyph-name="zero.numr.onum" horiz-adv-x="308" 
d="M32 399q0 92 35.5 139.5t90.5 47.5q53 0 86 -48t33 -139q0 -84 -33 -127.5t-86 -43.5q-55 0 -90.5 43.5t-35.5 127.5zM103 399q0 -71 16 -104t39 -33q20 0 34.5 34t14.5 103q0 52 -7.5 88t-18 50.5t-23.5 14.5q-22 0 -38.5 -39.5t-16.5 -113.5z" />
    <glyph glyph-name="one.numr.onum" horiz-adv-x="253" 
d="M37 523v33q52 1 96 28l36 -3v-306l51 -8v-32h-171v32l52 8v251q-37 -10 -64 -3z" />
    <glyph glyph-name="two.numr.onum" horiz-adv-x="307" 
d="M184 479q0 22 -13.5 37t-36.5 15q-22 0 -41 -13.5t-47 -43.5l-17 17q65 95 134 95q45 0 70.5 -22.5t25.5 -57.5q0 -40 -45 -99.5t-90 -99.5l3 -8h106l25 40l23 -7l-31 -97h-214l-6 18q52 43 103 109.5t51 116.5z" />
    <glyph glyph-name="three.numr.onum" horiz-adv-x="279" 
d="M232 524q0 -50 -67 -92v-5q33 -8 56.5 -35t23.5 -60q0 -47 -39.5 -75.5t-85.5 -28.5q-45 0 -70 14.5t-25 37.5q0 11 7.5 19t20.5 8q17 0 34.5 -21t35.5 -21q19 0 35 16t16 46q0 23 -12.5 42t-27 26.5t-22.5 3.5l-20 -11l-17 23q88 42 88 84q0 39 -41 39q-38 0 -71 -38
l-15 17q54 73 121 73q32 0 53.5 -17t21.5 -45z" />
    <glyph glyph-name="four.numr.onum" horiz-adv-x="299" 
d="M200 590l35 -9v-202h34v-44h-34v-100h-67v99h-132l-9 23zM168 479l-6 4l-74 -99l3 -5h77v100z" />
    <glyph glyph-name="five.numr.onum" horiz-adv-x="280" 
d="M53 410l16 169h142l14 22h22l-13 -84h-133l-6 -54l5 -5q8 5 25 5q46 0 82.5 -30t36.5 -80q0 -55 -41.5 -90t-97.5 -35q-37 0 -58 11.5t-21 29.5q0 30 29 30q13 0 36.5 -13.5t40.5 -13.5q47 0 47 59q0 34 -21 54.5t-51 20.5q-29 0 -44 -6z" />
    <glyph glyph-name="six.numr.onum" horiz-adv-x="296" 
d="M114 437l9 -4q19 21 50 21q36 0 66 -27t30 -78q0 -48 -30 -84.5t-91 -36.5q-51 0 -83 37.5t-32 105.5q0 76 50.5 141t136.5 92l10 -29q-102 -54 -116 -138zM111 388q-4 -12 -4 -46q0 -33 13 -55t30 -22q21 0 33 23.5t12 62.5q0 31 -12 47.5t-28 16.5q-30 0 -44 -27z" />
    <glyph glyph-name="seven.numr.onum" horiz-adv-x="278" 
d="M247 579l10 -14q-85 -165 -120 -316q-6 -21 -40 -21q-22 0 -33 5t-7 16q42 116 137 263l-3 8h-125l-18 -43h-25l25 102h199z" />
    <glyph glyph-name="eight.numr.onum" horiz-adv-x="307" 
d="M41 313q0 57 66 92v5q-56 29 -56 82q0 39 29.5 66.5t78.5 27.5q44 0 72 -22.5t28 -56.5q0 -50 -59 -85v-4q32 -18 49 -37t17 -53q0 -46 -31.5 -73t-83.5 -27q-48 0 -79 23.5t-31 61.5zM103 311q0 -21 12 -35t36 -14q23 0 37 14.5t14 38.5t-15.5 40.5t-45.5 34.5
q-38 -25 -38 -79zM114 509q0 -45 55 -72q26 26 26 69q0 22 -11 34t-29 12q-20 0 -30.5 -13t-10.5 -30z" />
    <glyph glyph-name="nine.numr.onum" horiz-adv-x="296" 
d="M186 368l-9 4q-19 -17 -45 -17q-43 0 -73.5 29.5t-30.5 80.5q0 55 36.5 88t81.5 33q52 0 85 -39t33 -104q0 -89 -55.5 -154.5t-145.5 -75.5v32q47 9 82 42t41 81zM187 423q6 15 6 55q0 33 -13 53t-36 20q-19 0 -31 -21t-12 -61q0 -76 43 -76q24 0 43 30z" />
    <glyph glyph-name="zero.dnom.onum" horiz-adv-x="308" 
d="M32 44q0 92 35.5 139.5t90.5 47.5q53 0 86 -48t33 -139q0 -84 -33 -127.5t-86 -43.5q-55 0 -90.5 43.5t-35.5 127.5zM103 44q0 -71 16 -104t39 -33q20 0 34.5 34t14.5 103q0 52 -7.5 88t-18 50.5t-23.5 14.5q-22 0 -38.5 -39.5t-16.5 -113.5z" />
    <glyph glyph-name="one.dnom.onum" horiz-adv-x="253" 
d="M37 168v33q52 1 96 28l36 -3v-306l51 -8v-32h-171v32l52 8v251q-37 -10 -64 -3z" />
    <glyph glyph-name="two.dnom.onum" horiz-adv-x="307" 
d="M184 124q0 22 -13.5 37t-36.5 15q-22 0 -41 -13.5t-47 -43.5l-17 17q65 95 134 95q45 0 70.5 -22.5t25.5 -57.5q0 -40 -45 -99.5t-90 -99.5l3 -8h106l25 40l23 -7l-31 -97h-214l-6 18q52 43 103 109.5t51 116.5z" />
    <glyph glyph-name="three.dnom.onum" horiz-adv-x="279" 
d="M232 169q0 -50 -67 -92v-5q33 -8 56.5 -35t23.5 -60q0 -47 -39.5 -75.5t-85.5 -28.5q-45 0 -70 14.5t-25 37.5q0 11 7.5 19t20.5 8q17 0 34.5 -21t35.5 -21q19 0 35 16t16 46q0 23 -12.5 42t-27 26.5t-22.5 3.5l-20 -11l-17 23q88 42 88 84q0 39 -41 39q-38 0 -71 -38
l-15 17q54 73 121 73q32 0 53.5 -17t21.5 -45z" />
    <glyph glyph-name="four.dnom.onum" horiz-adv-x="299" 
d="M200 235l35 -9v-202h34v-44h-34v-100h-67v99h-132l-9 23zM168 124l-6 4l-74 -99l3 -5h77v100z" />
    <glyph glyph-name="five.dnom.onum" horiz-adv-x="280" 
d="M53 55l16 169h142l14 22h22l-13 -84h-133l-6 -54l5 -5q8 5 25 5q46 0 82.5 -30t36.5 -80q0 -55 -41.5 -90t-97.5 -35q-37 0 -58 11.5t-21 29.5q0 30 29 30q13 0 36.5 -13.5t40.5 -13.5q47 0 47 59q0 34 -21 54.5t-51 20.5q-29 0 -44 -6z" />
    <glyph glyph-name="six.dnom.onum" horiz-adv-x="296" 
d="M114 82l9 -4q19 21 50 21q36 0 66 -27t30 -78q0 -48 -30 -84.5t-91 -36.5q-51 0 -83 37.5t-32 105.5q0 76 50.5 141t136.5 92l10 -29q-102 -54 -116 -138zM111 33q-4 -12 -4 -46q0 -33 13 -55t30 -22q21 0 33 23.5t12 62.5q0 31 -12 47.5t-28 16.5q-30 0 -44 -27z" />
    <glyph glyph-name="seven.dnom.onum" horiz-adv-x="278" 
d="M247 224l10 -14q-85 -165 -120 -316q-6 -21 -40 -21q-22 0 -33 5t-7 16q42 116 137 263l-3 8h-125l-18 -43h-25l25 102h199z" />
    <glyph glyph-name="eight.dnom.onum" horiz-adv-x="307" 
d="M41 -42q0 57 66 92v5q-56 29 -56 82q0 39 29.5 66.5t78.5 27.5q44 0 72 -22.5t28 -56.5q0 -50 -59 -85v-4q32 -18 49 -37t17 -53q0 -46 -31.5 -73t-83.5 -27q-48 0 -79 23.5t-31 61.5zM103 -44q0 -21 12 -35t36 -14q23 0 37 14.5t14 38.5t-15.5 40.5t-45.5 34.5
q-38 -25 -38 -79zM114 154q0 -45 55 -72q26 26 26 69q0 21 -11 33.5t-29 12.5q-20 0 -30.5 -13t-10.5 -30z" />
    <glyph glyph-name="nine.dnom.onum" horiz-adv-x="296" 
d="M186 13l-9 4q-19 -17 -45 -17q-43 0 -73.5 29.5t-30.5 80.5q0 55 36.5 88t81.5 33q52 0 85 -39t33 -104q0 -89 -55.5 -154.5t-145.5 -75.5v32q47 9 82 42t41 81zM187 68q6 15 6 55q0 33 -13 53t-36 20q-19 0 -31 -21t-12 -61q0 -76 43 -76q24 0 43 30z" />
    <glyph glyph-name="onehalf.onum" 
d="M119 -134l241 370l223 353l40 -26l-234 -349l-231 -375zM85 497v33q52 1 96 28l36 -3v-306l51 -8v-32h-171v32l52 8v251q-37 -10 -64 -3zM581 124q0 22 -13.5 37t-36.5 15q-22 0 -41 -13.5t-47 -43.5l-17 17q65 95 134 95q45 0 70.5 -22.5t25.5 -57.5q0 -40 -45 -99.5
t-90 -99.5l3 -8h106l25 40l23 -7l-31 -97h-214l-6 18q52 43 103 109.5t51 116.5z" />
    <glyph glyph-name="onethird.onum" 
d="M119 -134l241 370l223 353l40 -26l-234 -349l-231 -375zM85 497v33q52 1 96 28l36 -3v-306l51 -8v-32h-171v32l52 8v251q-37 -10 -64 -3zM629 169q0 -50 -67 -92v-5q33 -8 56.5 -35t23.5 -60q0 -47 -39.5 -75.5t-85.5 -28.5q-45 0 -70 14.5t-25 37.5q0 11 7.5 19t20.5 8
q17 0 34.5 -21t35.5 -21q19 0 35 16t16 46q0 23 -12.5 42t-27 26.5t-22.5 3.5l-20 -11l-17 23q88 42 88 84q0 39 -41 39q-38 0 -71 -38l-15 17q54 73 121 73q32 0 53.5 -17t21.5 -45z" />
    <glyph glyph-name="onequarter.onum" 
d="M119 -134l241 370l223 353l40 -26l-234 -349l-231 -375zM85 497v33q52 1 96 28l36 -3v-306l51 -8v-32h-171v32l52 8v251q-37 -10 -64 -3zM566 235l35 -9v-202h34v-44h-34v-100h-67v99h-132l-9 23zM534 124l-6 4l-74 -99l3 -5h77v100z" />
    <glyph glyph-name="onefifth.onum" 
d="M119 -134l241 370l223 353l40 -26l-234 -349l-231 -375zM85 497v33q52 1 96 28l36 -3v-306l51 -8v-32h-171v32l52 8v251q-37 -10 -64 -3zM450 55l16 169h142l14 22h22l-13 -84h-133l-6 -54l5 -5q8 5 25 5q46 0 82.5 -30t36.5 -80q0 -55 -41.5 -90t-97.5 -35
q-37 0 -58 11.5t-21 29.5q0 30 29 30q13 0 36.5 -13.5t40.5 -13.5q47 0 47 59q0 34 -21 54.5t-51 20.5q-29 0 -44 -6z" />
    <glyph glyph-name="onesixth.onum" 
d="M119 -134l241 370l223 353l40 -26l-234 -349l-231 -375zM85 497v33q52 1 96 28l36 -3v-306l51 -8v-32h-171v32l52 8v251q-37 -10 -64 -3zM490 82l9 -4q19 21 50 21q36 0 66 -27t30 -78q0 -48 -30 -84.5t-91 -36.5q-51 0 -83 37.5t-32 105.5q0 76 50.5 141t136.5 92
l10 -29q-102 -54 -116 -138zM487 33q-4 -12 -4 -46q0 -33 13 -55t30 -22q21 0 33 23.5t12 62.5q0 31 -12 47.5t-28 16.5q-30 0 -44 -27z" />
    <glyph glyph-name="oneseventh.onum" 
d="M119 -134l241 370l223 353l40 -26l-234 -349l-231 -375zM85 497v33q52 1 96 28l36 -3v-306l51 -8v-32h-171v32l52 8v251q-37 -10 -64 -3zM675 224l10 -14q-85 -165 -120 -316q-6 -21 -40 -21q-22 0 -33 5t-7 16q42 116 137 263l-3 8h-125l-18 -43h-25l25 102h199z" />
    <glyph glyph-name="oneeighth.onum" 
d="M119 -134l241 370l223 353l40 -26l-234 -349l-231 -375zM85 497v33q52 1 96 28l36 -3v-306l51 -8v-32h-171v32l52 8v251q-37 -10 -64 -3zM438 -42q0 57 66 92v5q-56 29 -56 82q0 39 29.5 66.5t78.5 27.5q44 0 72 -22.5t28 -56.5q0 -50 -59 -85v-4q32 -18 49 -37t17 -53
q0 -46 -31.5 -73t-83.5 -27q-48 0 -79 23.5t-31 61.5zM500 -44q0 -21 12 -35t36 -14q23 0 37 14.5t14 38.5t-15.5 40.5t-45.5 34.5q-38 -25 -38 -79zM511 154q0 -45 55 -72q26 26 26 69q0 21 -11 33.5t-29 12.5q-20 0 -30.5 -13t-10.5 -30z" />
    <glyph glyph-name="oneninth.onum" 
d="M119 -134l241 370l223 353l40 -26l-234 -349l-231 -375zM85 497v33q52 1 96 28l36 -3v-306l51 -8v-32h-171v32l52 8v251q-37 -10 -64 -3zM583 13l-9 4q-19 -17 -45 -17q-43 0 -73.5 29.5t-30.5 80.5q0 55 36.5 88t81.5 33q52 0 85 -39t33 -104q0 -89 -55.5 -154.5
t-145.5 -75.5v32q47 9 82 42t41 81zM584 68q6 15 6 55q0 33 -13 53t-36 20q-19 0 -31 -21t-12 -61q0 -76 43 -76q24 0 43 30z" />
    <glyph glyph-name="twothirds.onum" 
d="M119 -134l241 370l223 353l40 -26l-234 -349l-231 -375zM199 453q0 22 -13.5 37t-36.5 15q-22 0 -41 -13.5t-47 -43.5l-17 17q65 95 134 95q45 0 70.5 -22.5t25.5 -57.5q0 -40 -45 -99.5t-90 -99.5l3 -8h106l25 40l23 -7l-31 -97h-214l-6 18q52 43 103 109.5t51 116.5z
M629 169q0 -50 -67 -92v-5q33 -8 56.5 -35t23.5 -60q0 -47 -39.5 -75.5t-85.5 -28.5q-45 0 -70 14.5t-25 37.5q0 11 7.5 19t20.5 8q17 0 34.5 -21t35.5 -21q19 0 35 16t16 46q0 23 -12.5 42t-27 26.5t-22.5 3.5l-20 -11l-17 23q88 42 88 84q0 39 -41 39q-38 0 -71 -38
l-15 17q54 73 121 73q32 0 53.5 -17t21.5 -45z" />
    <glyph glyph-name="twofifths.onum" 
d="M119 -134l241 370l223 353l40 -26l-234 -349l-231 -375zM199 453q0 22 -13.5 37t-36.5 15q-22 0 -41 -13.5t-47 -43.5l-17 17q65 95 134 95q45 0 70.5 -22.5t25.5 -57.5q0 -40 -45 -99.5t-90 -99.5l3 -8h106l25 40l23 -7l-31 -97h-214l-6 18q52 43 103 109.5t51 116.5z
M450 55l16 169h142l14 22h22l-13 -84h-133l-6 -54l5 -5q8 5 25 5q46 0 82.5 -30t36.5 -80q0 -55 -41.5 -90t-97.5 -35q-37 0 -58 11.5t-21 29.5q0 30 29 30q13 0 36.5 -13.5t40.5 -13.5q47 0 47 59q0 34 -21 54.5t-51 20.5q-29 0 -44 -6z" />
    <glyph glyph-name="twosevenths.onum" 
d="M119 -134l241 370l223 353l40 -26l-234 -349l-231 -375zM199 453q0 22 -13.5 37t-36.5 15q-22 0 -41 -13.5t-47 -43.5l-17 17q65 95 134 95q45 0 70.5 -22.5t25.5 -57.5q0 -40 -45 -99.5t-90 -99.5l3 -8h106l25 40l23 -7l-31 -97h-214l-6 18q52 43 103 109.5t51 116.5z
M675 224l10 -14q-85 -165 -120 -316q-6 -21 -40 -21q-22 0 -33 5t-7 16q42 116 137 263l-3 8h-125l-18 -43h-25l25 102h199z" />
    <glyph glyph-name="twoninths.onum" 
d="M119 -134l241 370l223 353l40 -26l-234 -349l-231 -375zM199 453q0 22 -13.5 37t-36.5 15q-22 0 -41 -13.5t-47 -43.5l-17 17q65 95 134 95q45 0 70.5 -22.5t25.5 -57.5q0 -40 -45 -99.5t-90 -99.5l3 -8h106l25 40l23 -7l-31 -97h-214l-6 18q52 43 103 109.5t51 116.5z
M583 13l-9 4q-19 -17 -45 -17q-43 0 -73.5 29.5t-30.5 80.5q0 55 36.5 88t81.5 33q52 0 85 -39t33 -104q0 -89 -55.5 -154.5t-145.5 -75.5v32q47 9 82 42t41 81zM584 68q6 15 6 55q0 33 -13 53t-36 20q-19 0 -31 -21t-12 -61q0 -76 43 -76q24 0 43 30z" />
    <glyph glyph-name="threequarters.onum" 
d="M119 -134l241 370l223 353l40 -26l-234 -349l-231 -375zM275 498q0 -50 -67 -92v-5q33 -8 56.5 -35t23.5 -60q0 -47 -39.5 -75.5t-85.5 -28.5q-45 0 -70 14.5t-25 37.5q0 11 7.5 19t20.5 8q17 0 34.5 -21t35.5 -21q19 0 35 16t16 46q0 23 -12.5 42t-27 26.5t-22.5 3.5
l-20 -11l-17 23q88 42 88 84q0 39 -41 39q-38 0 -71 -38l-15 17q54 73 121 73q32 0 53.5 -17t21.5 -45zM566 235l35 -9v-202h34v-44h-34v-100h-67v99h-132l-9 23zM534 124l-6 4l-74 -99l3 -5h77v100z" />
    <glyph glyph-name="threefifths.onum" 
d="M119 -134l241 370l223 353l40 -26l-234 -349l-231 -375zM275 498q0 -50 -67 -92v-5q33 -8 56.5 -35t23.5 -60q0 -47 -39.5 -75.5t-85.5 -28.5q-45 0 -70 14.5t-25 37.5q0 11 7.5 19t20.5 8q17 0 34.5 -21t35.5 -21q19 0 35 16t16 46q0 23 -12.5 42t-27 26.5t-22.5 3.5
l-20 -11l-17 23q88 42 88 84q0 39 -41 39q-38 0 -71 -38l-15 17q54 73 121 73q32 0 53.5 -17t21.5 -45zM450 55l16 169h142l14 22h22l-13 -84h-133l-6 -54l5 -5q8 5 25 5q46 0 82.5 -30t36.5 -80q0 -55 -41.5 -90t-97.5 -35q-37 0 -58 11.5t-21 29.5q0 30 29 30
q13 0 36.5 -13.5t40.5 -13.5q47 0 47 59q0 34 -21 54.5t-51 20.5q-29 0 -44 -6z" />
    <glyph glyph-name="threesevenths.onum" 
d="M119 -134l241 370l223 353l40 -26l-234 -349l-231 -375zM275 498q0 -50 -67 -92v-5q33 -8 56.5 -35t23.5 -60q0 -47 -39.5 -75.5t-85.5 -28.5q-45 0 -70 14.5t-25 37.5q0 11 7.5 19t20.5 8q17 0 34.5 -21t35.5 -21q19 0 35 16t16 46q0 23 -12.5 42t-27 26.5t-22.5 3.5
l-20 -11l-17 23q88 42 88 84q0 39 -41 39q-38 0 -71 -38l-15 17q54 73 121 73q32 0 53.5 -17t21.5 -45zM675 224l10 -14q-85 -165 -120 -316q-6 -21 -40 -21q-22 0 -33 5t-7 16q42 116 137 263l-3 8h-125l-18 -43h-25l25 102h199z" />
    <glyph glyph-name="threeeighths.onum" 
d="M119 -134l241 370l223 353l40 -26l-234 -349l-231 -375zM275 498q0 -50 -67 -92v-5q33 -8 56.5 -35t23.5 -60q0 -47 -39.5 -75.5t-85.5 -28.5q-45 0 -70 14.5t-25 37.5q0 11 7.5 19t20.5 8q17 0 34.5 -21t35.5 -21q19 0 35 16t16 46q0 23 -12.5 42t-27 26.5t-22.5 3.5
l-20 -11l-17 23q88 42 88 84q0 39 -41 39q-38 0 -71 -38l-15 17q54 73 121 73q32 0 53.5 -17t21.5 -45zM438 -42q0 57 66 92v5q-56 29 -56 82q0 39 29.5 66.5t78.5 27.5q44 0 72 -22.5t28 -56.5q0 -50 -59 -85v-4q32 -18 49 -37t17 -53q0 -46 -31.5 -73t-83.5 -27
q-48 0 -79 23.5t-31 61.5zM500 -44q0 -21 12 -35t36 -14q23 0 37 14.5t14 38.5t-15.5 40.5t-45.5 34.5q-38 -25 -38 -79zM511 154q0 -45 55 -72q26 26 26 69q0 21 -11 33.5t-29 12.5q-20 0 -30.5 -13t-10.5 -30z" />
    <glyph glyph-name="fourfifths.onum" 
d="M119 -134l241 370l223 353l40 -26l-234 -349l-231 -375zM223 564l35 -9v-202h34v-44h-34v-100h-67v99h-132l-9 23zM191 453l-6 4l-74 -99l3 -5h77v100zM450 55l16 169h142l14 22h22l-13 -84h-133l-6 -54l5 -5q8 5 25 5q46 0 82.5 -30t36.5 -80q0 -55 -41.5 -90t-97.5 -35
q-37 0 -58 11.5t-21 29.5q0 30 29 30q13 0 36.5 -13.5t40.5 -13.5q47 0 47 59q0 34 -21 54.5t-51 20.5q-29 0 -44 -6z" />
    <glyph glyph-name="foursevenths.onum" 
d="M119 -134l241 370l223 353l40 -26l-234 -349l-231 -375zM223 564l35 -9v-202h34v-44h-34v-100h-67v99h-132l-9 23zM191 453l-6 4l-74 -99l3 -5h77v100zM675 224l10 -14q-85 -165 -120 -316q-6 -21 -40 -21q-22 0 -33 5t-7 16q42 116 137 263l-3 8h-125l-18 -43h-25
l25 102h199z" />
    <glyph glyph-name="fourninths.onum" 
d="M119 -134l241 370l223 353l40 -26l-234 -349l-231 -375zM223 564l35 -9v-202h34v-44h-34v-100h-67v99h-132l-9 23zM191 453l-6 4l-74 -99l3 -5h77v100zM583 13l-9 4q-19 -17 -45 -17q-43 0 -73.5 29.5t-30.5 80.5q0 55 36.5 88t81.5 33q52 0 85 -39t33 -104
q0 -89 -55.5 -154.5t-145.5 -75.5v32q47 9 82 42t41 81zM584 68q6 15 6 55q0 33 -13 53t-36 20q-19 0 -31 -21t-12 -61q0 -76 43 -76q24 0 43 30z" />
    <glyph glyph-name="fivesixths.onum" 
d="M119 -134l241 370l223 353l40 -26l-234 -349l-231 -375zM95 384l16 169h142l14 22h22l-13 -84h-133l-6 -54l5 -5q8 5 25 5q46 0 82.5 -30t36.5 -80q0 -55 -41.5 -90t-97.5 -35q-37 0 -58 11.5t-21 29.5q0 30 29 30q13 0 36.5 -13.5t40.5 -13.5q47 0 47 59q0 34 -21 54.5
t-51 20.5q-29 0 -44 -6zM490 82l9 -4q19 21 50 21q36 0 66 -27t30 -78q0 -48 -30 -84.5t-91 -36.5q-51 0 -83 37.5t-32 105.5q0 76 50.5 141t136.5 92l10 -29q-102 -54 -116 -138zM487 33q-4 -12 -4 -46q0 -33 13 -55t30 -22q21 0 33 23.5t12 62.5q0 31 -12 47.5t-28 16.5
q-30 0 -44 -27z" />
    <glyph glyph-name="fivesevenths.onum" 
d="M119 -134l241 370l223 353l40 -26l-234 -349l-231 -375zM95 384l16 169h142l14 22h22l-13 -84h-133l-6 -54l5 -5q8 5 25 5q46 0 82.5 -30t36.5 -80q0 -55 -41.5 -90t-97.5 -35q-37 0 -58 11.5t-21 29.5q0 30 29 30q13 0 36.5 -13.5t40.5 -13.5q47 0 47 59q0 34 -21 54.5
t-51 20.5q-29 0 -44 -6zM675 224l10 -14q-85 -165 -120 -316q-6 -21 -40 -21q-22 0 -33 5t-7 16q42 116 137 263l-3 8h-125l-18 -43h-25l25 102h199z" />
    <glyph glyph-name="fiveeighths.onum" 
d="M119 -134l241 370l223 353l40 -26l-234 -349l-231 -375zM95 384l16 169h142l14 22h22l-13 -84h-133l-6 -54l5 -5q8 5 25 5q46 0 82.5 -30t36.5 -80q0 -55 -41.5 -90t-97.5 -35q-37 0 -58 11.5t-21 29.5q0 30 29 30q13 0 36.5 -13.5t40.5 -13.5q47 0 47 59q0 34 -21 54.5
t-51 20.5q-29 0 -44 -6zM438 -42q0 57 66 92v5q-56 29 -56 82q0 39 29.5 66.5t78.5 27.5q44 0 72 -22.5t28 -56.5q0 -50 -59 -85v-4q32 -18 49 -37t17 -53q0 -46 -31.5 -73t-83.5 -27q-48 0 -79 23.5t-31 61.5zM500 -44q0 -21 12 -35t36 -14q23 0 37 14.5t14 38.5
t-15.5 40.5t-45.5 34.5q-38 -25 -38 -79zM511 154q0 -45 55 -72q26 26 26 69q0 21 -11 33.5t-29 12.5q-20 0 -30.5 -13t-10.5 -30z" />
    <glyph glyph-name="fiveninths.onum" 
d="M119 -134l241 370l223 353l40 -26l-234 -349l-231 -375zM95 384l16 169h142l14 22h22l-13 -84h-133l-6 -54l5 -5q8 5 25 5q46 0 82.5 -30t36.5 -80q0 -55 -41.5 -90t-97.5 -35q-37 0 -58 11.5t-21 29.5q0 30 29 30q13 0 36.5 -13.5t40.5 -13.5q47 0 47 59q0 34 -21 54.5
t-51 20.5q-29 0 -44 -6zM583 13l-9 4q-19 -17 -45 -17q-43 0 -73.5 29.5t-30.5 80.5q0 55 36.5 88t81.5 33q52 0 85 -39t33 -104q0 -89 -55.5 -154.5t-145.5 -75.5v32q47 9 82 42t41 81zM584 68q6 15 6 55q0 33 -13 53t-36 20q-19 0 -31 -21t-12 -61q0 -76 43 -76
q24 0 43 30z" />
    <glyph glyph-name="sixsevenths.onum" 
d="M119 -134l241 370l223 353l40 -26l-234 -349l-231 -375zM140 411l9 -4q19 21 50 21q36 0 66 -27t30 -78q0 -48 -30 -84.5t-91 -36.5q-51 0 -83 37.5t-32 105.5q0 76 50.5 141t136.5 92l10 -29q-102 -54 -116 -138zM137 362q-4 -12 -4 -46q0 -33 13 -55t30 -22
q21 0 33 23.5t12 62.5q0 31 -12 47.5t-28 16.5q-30 0 -44 -27zM675 224l10 -14q-85 -165 -120 -316q-6 -21 -40 -21q-22 0 -33 5t-7 16q42 116 137 263l-3 8h-125l-18 -43h-25l25 102h199z" />
    <glyph glyph-name="seveneighths.onum" 
d="M119 -134l241 370l223 353l40 -26l-234 -349l-231 -375zM321 553l10 -14q-85 -165 -120 -316q-6 -21 -40 -21q-22 0 -33 5t-7 16q42 116 137 263l-3 8h-125l-18 -43h-25l25 102h199zM438 -42q0 57 66 92v5q-56 29 -56 82q0 39 29.5 66.5t78.5 27.5q44 0 72 -22.5
t28 -56.5q0 -50 -59 -85v-4q32 -18 49 -37t17 -53q0 -46 -31.5 -73t-83.5 -27q-48 0 -79 23.5t-31 61.5zM500 -44q0 -21 12 -35t36 -14q23 0 37 14.5t14 38.5t-15.5 40.5t-45.5 34.5q-38 -25 -38 -79zM511 154q0 -45 55 -72q26 26 26 69q0 21 -11 33.5t-29 12.5
q-20 0 -30.5 -13t-10.5 -30z" />
    <glyph glyph-name="sevenninths.onum" 
d="M119 -134l241 370l223 353l40 -26l-234 -349l-231 -375zM321 553l10 -14q-85 -165 -120 -316q-6 -21 -40 -21q-22 0 -33 5t-7 16q42 116 137 263l-3 8h-125l-18 -43h-25l25 102h199zM583 13l-9 4q-19 -17 -45 -17q-43 0 -73.5 29.5t-30.5 80.5q0 55 36.5 88t81.5 33
q52 0 85 -39t33 -104q0 -89 -55.5 -154.5t-145.5 -75.5v32q47 9 82 42t41 81zM584 68q6 15 6 55q0 33 -13 53t-36 20q-19 0 -31 -21t-12 -61q0 -76 43 -76q24 0 43 30z" />
    <glyph glyph-name="eightninths.onum" 
d="M119 -134l241 370l223 353l40 -26l-234 -349l-231 -375zM76 287q0 57 66 92v5q-56 29 -56 82q0 39 29.5 66.5t78.5 27.5q44 0 72 -22.5t28 -56.5q0 -50 -59 -85v-4q32 -18 49 -37t17 -53q0 -46 -31.5 -73t-83.5 -27q-48 0 -79 23.5t-31 61.5zM138 285q0 -21 12 -35
t36 -14q23 0 37 14.5t14 38.5t-15.5 40.5t-45.5 34.5q-38 -25 -38 -79zM149 483q0 -45 55 -72q26 26 26 69q0 22 -11 34t-29 12q-20 0 -30.5 -13t-10.5 -30zM583 13l-9 4q-19 -17 -45 -17q-43 0 -73.5 29.5t-30.5 80.5q0 55 36.5 88t81.5 33q52 0 85 -39t33 -104
q0 -89 -55.5 -154.5t-145.5 -75.5v32q47 9 82 42t41 81zM584 68q6 15 6 55q0 33 -13 53t-36 20q-19 0 -31 -21t-12 -61q0 -76 43 -76q24 0 43 30z" />
    <glyph glyph-name="zero.subs" horiz-adv-x="308" 
d="M32 4q0 92 35.5 139.5t90.5 47.5q53 0 86 -48t33 -139q0 -84 -33 -127.5t-86 -43.5q-55 0 -90.5 43.5t-35.5 127.5zM103 4q0 -71 16 -104t39 -33q20 0 34.5 34t14.5 103q0 52 -7.5 88t-18 50.5t-23.5 14.5q-22 0 -38.5 -39.5t-16.5 -113.5z" />
    <glyph glyph-name="one.subs" horiz-adv-x="253" 
d="M37 128v33q52 1 96 28l36 -3v-306l51 -8v-32h-171v32l52 8v251q-37 -10 -64 -3z" />
    <glyph glyph-name="two.subs" horiz-adv-x="307" 
d="M184 84q0 22 -13.5 37t-36.5 15q-22 0 -41 -13.5t-47 -43.5l-17 17q65 95 134 95q45 0 70.5 -22.5t25.5 -57.5q0 -40 -45 -99.5t-90 -99.5l3 -8h106l25 40l23 -7l-31 -97h-214l-6 18q52 43 103 109.5t51 116.5z" />
    <glyph glyph-name="three.subs" horiz-adv-x="279" 
d="M232 129q0 -50 -67 -92v-5q33 -8 56.5 -35t23.5 -60q0 -47 -39.5 -75.5t-85.5 -28.5q-45 0 -70 14.5t-25 37.5q0 11 7.5 19t20.5 8q17 0 34.5 -21t35.5 -21q19 0 35 16t16 46q0 23 -12.5 42t-27 26.5t-22.5 3.5l-20 -11l-17 23q88 42 88 84q0 39 -41 39q-38 0 -71 -38
l-15 17q54 73 121 73q32 0 53.5 -17t21.5 -45z" />
    <glyph glyph-name="four.subs" horiz-adv-x="299" 
d="M200 195l35 -9v-202h34v-44h-34v-100h-67v99h-132l-9 23zM168 84l-6 4l-74 -99l3 -5h77v100z" />
    <glyph glyph-name="five.subs" horiz-adv-x="280" 
d="M53 15l16 169h142l14 22h22l-13 -84h-133l-6 -54l5 -5q8 5 25 5q46 0 82.5 -30t36.5 -80q0 -55 -41.5 -90t-97.5 -35q-37 0 -58 11.5t-21 29.5q0 30 29 30q13 0 36.5 -13.5t40.5 -13.5q47 0 47 59q0 34 -21 54.5t-51 20.5q-29 0 -44 -6z" />
    <glyph glyph-name="six.subs" horiz-adv-x="296" 
d="M114 42l9 -4q19 21 50 21q36 0 66 -27t30 -78q0 -48 -30 -84.5t-91 -36.5q-51 0 -83 37.5t-32 105.5q0 76 50.5 141t136.5 92l10 -29q-102 -54 -116 -138zM111 -7q-4 -12 -4 -46q0 -33 13 -55t30 -22q21 0 33 23.5t12 62.5q0 31 -12 47.5t-28 16.5q-30 0 -44 -27z" />
    <glyph glyph-name="seven.subs" horiz-adv-x="278" 
d="M247 184l10 -14q-85 -165 -120 -316q-6 -21 -40 -21q-22 0 -33 5t-7 16q42 116 137 263l-3 8h-125l-18 -43h-25l25 102h199z" />
    <glyph glyph-name="eight.subs" horiz-adv-x="307" 
d="M41 -82q0 57 66 92v5q-56 29 -56 82q0 39 29.5 66.5t78.5 27.5q44 0 72 -22.5t28 -56.5q0 -50 -59 -85v-4q32 -18 49 -37t17 -53q0 -46 -31.5 -73t-83.5 -27q-48 0 -79 23.5t-31 61.5zM103 -84q0 -21 12 -35t36 -14q23 0 37 14.5t14 38.5t-15.5 40.5t-45.5 34.5
q-38 -25 -38 -79zM114 114q0 -45 55 -72q26 26 26 69q0 21 -11 33.5t-29 12.5q-20 0 -30.5 -13t-10.5 -30z" />
    <glyph glyph-name="nine.subs" horiz-adv-x="296" 
d="M186 -27l-9 4q-19 -17 -45 -17q-43 0 -73.5 29.5t-30.5 80.5q0 55 36.5 88t81.5 33q52 0 85 -39t33 -104q0 -89 -55.5 -154.5t-145.5 -75.5v32q47 9 82 42t41 81zM187 28q6 15 6 55q0 33 -13 53t-36 20q-19 0 -31 -21t-12 -61q0 -76 43 -76q24 0 43 30z" />
    <glyph glyph-name="acute.case" horiz-adv-x="500" 
d="M190 488v8l86 129h94v-10l-129 -127h-51z" />
    <glyph glyph-name="grave.case" horiz-adv-x="500" 
d="M310 496v-8h-51l-129 127v10h94z" />
    <glyph glyph-name="circumflex.case" horiz-adv-x="500" 
d="M395 496v-8h-46l-99 69l-99 -69h-46v8l121 129h48z" />
    <glyph glyph-name="breve.case" horiz-adv-x="500" 
d="M250 488q-50 0 -85 33.5t-35 98.5h40q0 -30 22.5 -51.5t57.5 -21.5q32 0 56 21t24 52h40q0 -65 -35 -98.5t-85 -33.5z" />
    <glyph glyph-name="caron.case" horiz-adv-x="500" 
d="M395 625v-8l-121 -129h-48l-121 129v8h46l99 -69l99 69h46z" />
    <glyph glyph-name="hungarumlaut.case" horiz-adv-x="500" 
d="M275 488v8l86 129h94v-10l-139 -127h-41zM135 488v8l86 129h94v-10l-139 -127h-41z" />
    <glyph glyph-name="Stroke.part" horiz-adv-x="430" 
d="M49 555h692v-55h-692v55z" />
    <glyph glyph-name="stroke.part" horiz-adv-x="430" 
d="M49 545h292v-50h-292v50z" />
    <glyph glyph-name="uni2011.case" horiz-adv-x="404" 
d="M77 358h250v-73h-250v73z" />
    <glyph glyph-name="parenleft.case" horiz-adv-x="442" 
d="M381 -148l-29 -34q-241 220 -241 505q0 148 63 264t177 220l30 -39q-180 -183 -180 -445q0 -301 180 -471z" />
    <glyph glyph-name="parenright.case" horiz-adv-x="442" 
d="M90 -182l-29 34q180 170 180 471q0 262 -180 445l30 39q114 -104 177 -220t63 -264q0 -285 -241 -505z" />
    <glyph glyph-name="bracketleft.case" horiz-adv-x="425" 
d="M350 798v-48q-76 -15 -150 -5v-852q68 6 156 -6v-51q-40 6 -111.5 6.5t-122.5 -5.5v960q51 -5 123 -5t105 6z" />
    <glyph glyph-name="bracketright.case" horiz-adv-x="425" 
d="M75 750v48q33 -6 105 -6t123 5v-960q-51 6 -122.5 5.5t-111.5 -6.5v51q88 12 156 6v852q-74 -10 -150 5z" />
    <glyph glyph-name="braceleft.case" horiz-adv-x="525" 
d="M172 343v-16q63 -9 107 -51.5t44 -104.5q0 -27 -22.5 -95t-22.5 -108q0 -94 156 -94v-42q-137 0 -187.5 35t-50.5 111q0 37 21.5 103.5t21.5 97.5q0 59 -43.5 90t-114.5 31v66q67 0 112.5 35t45.5 82q0 35 -20.5 93.5t-20.5 91.5q0 71 51.5 100.5t178.5 29.5v-42
q-150 0 -150 -79q0 -39 22.5 -102t22.5 -87q0 -53 -43.5 -92.5t-107.5 -52.5z" />
    <glyph glyph-name="braceright.case" horiz-adv-x="525" 
d="M353 327v16q-64 13 -107.5 52.5t-43.5 92.5q0 24 22.5 87t22.5 102q0 79 -150 79v42q127 0 178.5 -29.5t51.5 -100.5q0 -33 -20.5 -91.5t-20.5 -93.5q0 -47 45.5 -82t112.5 -35v-66q-71 0 -114.5 -31t-43.5 -90q0 -31 21.5 -97.5t21.5 -103.5q0 -76 -50.5 -111
t-187.5 -35v42q156 0 156 94q0 40 -22.5 108t-22.5 95q0 62 44 104.5t107 51.5z" />
    <glyph glyph-name="dotaccent.case" horiz-adv-x="500" 
d="M185 564q0 27 18.5 46t45.5 19t46.5 -19t19.5 -46t-19.5 -45.5t-46.5 -18.5t-45.5 18.5t-18.5 45.5z" />
    <glyph glyph-name="zero.c2sc" horiz-adv-x="591" 
d="M63 253q0 118 66.5 196t165.5 78q103 0 168 -77.5t65 -196.5q0 -121 -65 -193.5t-168 -72.5t-167.5 74.5t-64.5 191.5zM171 253q0 -105 35.5 -160.5t88.5 -55.5q125 0 125 216q0 107 -33.5 165.5t-91.5 58.5q-55 0 -89.5 -58.5t-34.5 -165.5z" />
    <glyph glyph-name="one.c2sc" horiz-adv-x="445" 
d="M78 455v35q86 -1 164 33l40 -4v-466l92 -15v-38h-281v38l93 15v392q-68 -7 -108 10z" />
    <glyph glyph-name="two.c2sc" horiz-adv-x="540" 
d="M334 369q0 35 -23 55t-64 20q-70 0 -153 -78l-25 27q43 54 101.5 94t122.5 40q66 0 104 -33t38 -86q0 -37 -16 -74.5t-46 -72t-56.5 -60.5t-63 -58t-50.5 -46l5 -11h192l41 47l32 -10l-51 -123h-358l-12 32q6 6 64.5 56t99.5 88t79.5 94.5t38.5 98.5z" />
    <glyph glyph-name="three.c2sc" horiz-adv-x="486" 
d="M393 432q0 -73 -101 -125v-10q51 -9 89 -45.5t38 -100.5q0 -67 -61 -115.5t-161 -48.5q-71 0 -112 19.5t-41 49.5q0 19 13.5 34t38.5 15q30 0 64.5 -34.5t66.5 -34.5q36 0 64 26t28 73q0 57 -44 90.5t-80 12.5l-30 -17l-22 36q45 26 72.5 44t53 44.5t25.5 49.5
q0 56 -76 56q-68 0 -126 -62l-28 30q91 108 203 108q57 0 91.5 -26.5t34.5 -68.5z" />
    <glyph glyph-name="four.c2sc" horiz-adv-x="537" 
d="M349 526l49 -17v-307h76v-63h-76v-139h-98v139h-234l-16 32zM300 379l-11 6l-144 -173l5 -10h150v177z" />
    <glyph glyph-name="five.c2sc" horiz-adv-x="513" 
d="M93 252l28 266h245l26 39h39l-23 -127h-246l-11 -98l8 -8q27 8 89 8q75 0 131.5 -38t56.5 -122q0 -81 -66.5 -133t-170.5 -52q-57 0 -96 19.5t-39 49.5q0 20 13 34t38 14q26 0 61.5 -30t70.5 -30q41 0 72 29.5t31 76.5q0 43 -34 69t-100 26q-63 0 -105 -11z" />
    <glyph glyph-name="six.c2sc" horiz-adv-x="535" 
d="M181 313l16 -8q43 38 112 38q65 0 115 -43.5t50 -125.5q0 -74 -56.5 -130.5t-155.5 -56.5q-87 0 -143 61t-56 165q0 110 89.5 203t240.5 130l10 -35q-191 -72 -222 -198zM175 228q-7 -24 -7 -68q0 -52 28.5 -85.5t69.5 -33.5q48 0 74.5 37t26.5 98q0 54 -26 82t-65 28
q-67 0 -101 -58z" />
    <glyph glyph-name="seven.c2sc" horiz-adv-x="491" 
d="M434 518l19 -26q-64 -112 -121 -242.5t-81 -225.5q-9 -37 -65 -37q-27 0 -43 10t-8 28q105 235 227 391l-7 14h-217l-32 -68h-45l46 156h327z" />
    <glyph glyph-name="eight.c2sc" horiz-adv-x="544" 
d="M77 121q0 45 29 71.5t82 50.5v9q-94 42 -94 129q0 59 50.5 102.5t132.5 43.5q78 0 128 -34.5t50 -88.5q0 -77 -96 -122v-8q108 -55 108 -135q0 -70 -54.5 -111t-144.5 -41q-84 0 -137.5 36.5t-53.5 97.5zM158 119q0 -34 31 -59t81 -25t81 23.5t31 61.5q0 36 -33 58
t-108 48q-83 -34 -83 -107zM178 403q0 -67 133 -105q58 34 58 103q0 36 -26 57t-69 21q-45 0 -70.5 -23t-25.5 -53z" />
    <glyph glyph-name="nine.c2sc" horiz-adv-x="535" 
d="M360 200l-16 8q-47 -41 -117 -41q-63 0 -113 44t-50 122q0 86 63 140t137 54q95 0 153 -63.5t58 -171.5q0 -121 -93 -208t-263 -104v45q89 10 159 61.5t82 113.5zM361 280q11 25 11 75q0 54 -28 87.5t-77 33.5q-44 0 -69.5 -38t-25.5 -99q0 -116 90 -116q57 0 99 57z" />
    <glyph glyph-name="parenleft.c2sc" horiz-adv-x="422" 
d="M361 -143l-29 -34q-101 91 -161 196t-60 244q0 87 30.5 164.5t75.5 132.5t114 117l30 -39q-160 -161 -160 -375q0 -256 160 -406z" />
    <glyph glyph-name="parenright.c2sc" horiz-adv-x="422" 
d="M90 -177l-29 34q160 150 160 406q0 214 -160 375l30 39q69 -62 114 -117t75.5 -132.5t30.5 -164.5q0 -139 -60 -244t-161 -196z" />
    <glyph glyph-name="bracketleft.c2sc" horiz-adv-x="425" 
d="M350 640v-48q-76 -15 -150 -5v-672q68 6 156 -6v-51q-40 6 -111.5 6.5t-122.5 -5.5v780q51 -5 123 -5t105 6z" />
    <glyph glyph-name="bracketright.c2sc" horiz-adv-x="425" 
d="M75 592v48q33 -6 105 -6t123 5v-780q-51 6 -122.5 5.5t-111.5 -6.5v51q88 12 156 6v672q-74 -10 -150 5z" />
    <glyph glyph-name="braceleft.c2sc" horiz-adv-x="515" 
d="M172 278v-16q56 -9 96 -45.5t40 -90.5q0 -19 -15 -65.5t-15 -72.5q0 -79 146 -79v-42q-131 0 -179.5 31.5t-48.5 99.5q0 24 14 70t14 66q0 50 -39.5 75.5t-103.5 25.5v66q60 0 101.5 29.5t41.5 67.5q0 24 -13 66t-13 64q0 62 50 88.5t170 26.5v-42q-140 0 -140 -64
q0 -28 15 -72.5t15 -61.5q0 -46 -40 -81t-96 -44z" />
    <glyph glyph-name="braceright.c2sc" horiz-adv-x="515" 
d="M343 262v16q-56 9 -96 44t-40 81q0 17 15 61.5t15 72.5q0 64 -140 64v42q120 0 170 -26.5t50 -88.5q0 -22 -13 -64t-13 -66q0 -38 41.5 -67.5t101.5 -29.5v-66q-64 0 -103.5 -25.5t-39.5 -75.5q0 -20 14 -66t14 -70q0 -68 -48.5 -99.5t-179.5 -31.5v42q146 0 146 79
q0 26 -15 72.5t-15 65.5q0 54 40 90.5t96 45.5z" />
    <glyph glyph-name="ampersand.c2sc" horiz-adv-x="716" 
d="M447 430q0 -66 -112 -123q68 -58 127 -128q34 46 66 106l-57 11v38h175v-38l-61 -11q-48 -84 -95 -143q28 -37 62 -93q9 -14 19 -14q9 0 17 7.5t23 28.5l29 -19q-36 -65 -95 -65q-33 0 -58 27q-50 61 -53 65q-93 -92 -179 -92q-69 0 -121 45t-52 101q0 62 33 98t114 70
q-64 64 -64 112q0 33 54 73.5t101 40.5q43 0 85 -35t42 -62zM407 114q-83 106 -147 161q-40 -19 -58 -44t-18 -60q0 -57 35 -89t71 -32q50 0 117 64zM247 432q0 -37 56 -95q55 36 55 85q0 25 -16 47t-35 22t-39.5 -19t-20.5 -40z" />
    <glyph glyph-name="slash.c2sc" horiz-adv-x="550" 
d="M463 614l-300 -736h-76l300 736h76z" />
    <glyph glyph-name="at.c2sc" horiz-adv-x="844" 
d="M670 347q0 28 -8 57.5t-26 60.5t-54.5 50.5t-86.5 19.5q-85 0 -159.5 -59t-117 -150.5t-42.5 -188.5q0 -95 38.5 -142t107.5 -47q81 0 148 52l18 -40q-39 -29 -86 -45t-86 -16q-103 0 -157 63t-54 176q0 102 51.5 203t144 168.5t198.5 67.5q109 0 174.5 -63.5
t65.5 -166.5q0 -69 -28.5 -127t-71 -92t-85 -52.5t-76.5 -18.5q-58 0 -13 104l-11 8q-81 -114 -148 -114q-25 0 -38 20t-13 47q0 67 49 151q39 64 92 106t102 42q25 0 34 -23h4q6 13 14 18t31 5q15 0 21 -3.5t4 -9.5l-88 -269q-6 -25 11 -25q37 0 89 66.5t52 166.5zM330 155
q0 -37 21 -37q28 0 77.5 63.5t84.5 146.5q7 53 -24 53q-27 0 -58 -26.5t-56 -68.5q-45 -76 -45 -131z" />
    <glyph glyph-name="section.c2sc" horiz-adv-x="549" 
d="M454 173q0 -63 -60 -115q46 -43 46 -93q0 -57 -50 -87.5t-114 -30.5q-38 0 -86 12t-82 32v119h35q16 -62 54 -89t84 -27q34 0 55 16t21 44q0 27 -27 50.5t-65.5 42.5t-77 40t-65.5 51t-27 67q0 65 64 112q-49 41 -49 96q0 43 42.5 78.5t116.5 35.5q94 0 160 -44v-119h-35
q-33 116 -127 116q-35 0 -56.5 -17.5t-21.5 -42.5q0 -24 27.5 -46t66.5 -41t77.5 -39.5t66 -51.5t27.5 -69zM168 226q0 -24 25.5 -45t81 -49.5t79.5 -43.5q24 25 24 56q0 25 -19 46.5t-40 34t-61.5 33t-59.5 32.5q-30 -26 -30 -64z" />
    <glyph glyph-name="paragraph.c2sc" horiz-adv-x="627" 
d="M552 518v-50q-26 0 -40 -19.5t-14 -48.5v-551h-61v619h-52v-619h-61v302q-112 0 -174.5 49t-62.5 135q0 83 63 133t162 50h240zM324 201v267q-56 0 -90 -37t-34 -98q0 -60 33 -96t91 -36z" />
    <glyph glyph-name="quotesingle.c2sc" horiz-adv-x="269" 
d="M83 256l18 236q2 37 15.5 55.5t41.5 12.5l23 -5q21 -5 26 -28t-8 -60l-78 -220z" />
    <glyph glyph-name="quotedbl.c2sc" horiz-adv-x="448" 
d="M83 256l18 236q2 37 15.5 55.5t41.5 12.5l23 -5q21 -5 26 -28t-8 -60l-78 -220zM262 256l18 236q2 37 15.5 55.5t41.5 12.5l23 -5q21 -5 26 -28t-8 -60l-78 -220z" />
    <glyph glyph-name="uni2032.c2sc" horiz-adv-x="310" 
d="M73 286l70 266l96 -34l-114 -250z" />
    <glyph glyph-name="uni2033.c2sc" horiz-adv-x="500" 
d="M73 286l70 266l96 -34l-114 -250zM263 286l70 266l96 -34l-114 -250z" />
    <glyph glyph-name="asterisk.c2sc" horiz-adv-x="566" 
d="M306 373q49 -24 120 -44q35 -9 28 -40q-6 -27 -30 -36q-21 -7 -38 10q-63 66 -93 85q5 -56 25 -124q10 -32 -20 -43q-27 -9 -44 9q-13 13 -8 34q21 96 23 124q-47 -29 -93 -85q-20 -23 -46 -2q-24 19 -18 43q4 16 26 23q84 26 119 46q-51 22 -119 37q-30 5 -26 36
q4 28 27 36q18 7 35 -9q67 -60 95 -80q-7 52 -26 121q-10 34 21 45q28 9 47 -9q13 -14 7 -36q-2 -10 -9.5 -37t-11.5 -46t-6 -38q47 31 95 80q26 28 50 4q20 -21 12 -46q-7 -16 -24 -21q-9 -2 -28 -6.5t-30.5 -7.5t-28.5 -9t-31 -14z" />
    <glyph glyph-name="backslash.c2sc" horiz-adv-x="550" 
d="M387 -122l-300 736h76l300 -736h-76z" />
    <glyph glyph-name="copyright.c2sc" horiz-adv-x="793" 
d="M89 251q0 126 90.5 216.5t217.5 90.5q131 0 219 -89.5t88 -217.5q0 -127 -90.5 -217.5t-216.5 -90.5q-129 0 -218.5 87t-89.5 221zM148 249q0 -110 70 -183t180 -73t178.5 72.5t68.5 183.5q0 114 -70.5 187.5t-177.5 73.5q-109 0 -179 -74.5t-70 -186.5zM405 121
q41 0 64 17.5t36 56.5h26v-74q-63 -39 -128 -39q-74 0 -124 45.5t-50 124.5q0 76 50 123t124 47q60 0 124 -35v-77h-28q-26 75 -96 75q-46 0 -73.5 -32t-27.5 -100q0 -64 31 -98t72 -34z" />
    <glyph glyph-name="uni2117.c2sc" horiz-adv-x="793" 
d="M89 251q0 126 90.5 216.5t217.5 90.5q131 0 219 -89.5t88 -217.5q0 -127 -90.5 -217.5t-216.5 -90.5q-129 0 -218.5 87t-89.5 221zM148 249q0 -110 70 -183t180 -73t178.5 72.5t68.5 183.5q0 114 -70.5 187.5t-177.5 73.5q-109 0 -179 -74.5t-70 -186.5zM418 224h-37
v-108l46 -8v-24h-160v24l43 8v270l-43 8v24h153q51 0 89.5 -24.5t38.5 -72.5q0 -44 -35 -70.5t-95 -26.5zM381 382v-124h41q21 0 37 16.5t16 42.5q0 65 -57 65h-37z" />
    <glyph glyph-name="ampersand.case" horiz-adv-x="837" 
d="M506 599q0 -51 -36 -92t-100 -81q98 -88 166 -184q44 66 88 160l-71 15v36h194v-36l-70 -15q-59 -118 -115 -199q38 -59 77 -141q8 -18 22 -18q11 0 21 9t31 37l27 -18q-40 -84 -103 -84q-36 0 -60 35l-71 106q-119 -141 -224 -141q-74 0 -129.5 62t-55.5 141t38.5 126
t132.5 91q-72 84 -72 162q0 44 59 96t111 52q48 0 94 -43t46 -76zM292 382q-1 0 -1 1q-53 -27 -76.5 -61t-23.5 -82q0 -84 45 -130.5t91 -46.5q65 0 153 103q-92 130 -188 216zM271 593q0 -55 73 -138q77 64 77 133q0 33 -21 60t-45 27q-27 0 -55.5 -26.5t-28.5 -55.5z" />
    <glyph glyph-name="zero.c2sc.tnum" horiz-adv-x="510" 
d="M42 253q0 118 61 196t151 78q94 0 153.5 -77.5t59.5 -196.5q0 -121 -59.5 -193.5t-153.5 -72.5t-153 74.5t-59 191.5zM150 253q0 -105 30.5 -160.5t73.5 -55.5q105 0 105 216q0 107 -28 165.5t-77 58.5q-45 0 -74.5 -59t-29.5 -165z" />
    <glyph glyph-name="one.c2sc.tnum" horiz-adv-x="510" 
d="M115 455v35q86 -1 164 33l40 -4v-466l92 -15v-38h-281v38l93 15v392q-68 -7 -108 10z" />
    <glyph glyph-name="two.c2sc.tnum" horiz-adv-x="510" 
d="M324 369q0 35 -23 55t-64 20q-70 0 -153 -78l-25 27q43 54 101.5 94t122.5 40q66 0 104 -33t38 -86q0 -37 -16 -74.5t-46 -72t-56.5 -60.5t-63 -58t-50.5 -46l5 -11h192l41 47l32 -10l-51 -123h-358l-12 32q6 6 64.5 56t99.5 88t79.5 94.5t38.5 98.5z" />
    <glyph glyph-name="three.c2sc.tnum" horiz-adv-x="510" 
d="M411 432q0 -73 -101 -125v-10q51 -9 89 -45.5t38 -100.5q0 -67 -61 -115.5t-161 -48.5q-71 0 -112 19.5t-41 49.5q0 19 13.5 34t38.5 15q30 0 64.5 -34.5t66.5 -34.5q36 0 64 26t28 73q0 57 -44 90.5t-80 12.5l-30 -17l-22 36q45 26 72.5 44t53 44.5t25.5 49.5
q0 56 -76 56q-68 0 -126 -62l-28 30q91 108 203 108q57 0 91.5 -26.5t34.5 -68.5z" />
    <glyph glyph-name="four.c2sc.tnum" horiz-adv-x="510" 
d="M342 526l49 -17v-307h76v-63h-76v-139h-98v139h-234l-16 32zM293 379l-11 6l-144 -173l5 -10h150v177z" />
    <glyph glyph-name="five.c2sc.tnum" horiz-adv-x="510" 
d="M96 252l28 266h245l26 39h39l-23 -127h-246l-11 -98l8 -8q27 8 89 8q75 0 131.5 -38t56.5 -122q0 -81 -66.5 -133t-170.5 -52q-57 0 -96 19.5t-39 49.5q0 20 13 34t38 14q26 0 61.5 -30t70.5 -30q41 0 72 29.5t31 76.5q0 43 -34 69t-100 26q-63 0 -105 -11z" />
    <glyph glyph-name="six.c2sc.tnum" horiz-adv-x="510" 
d="M174 313l16 -8q43 38 112 38q65 0 115 -43.5t50 -125.5q0 -74 -56.5 -130.5t-155.5 -56.5q-87 0 -143 61t-56 165q0 110 89.5 203t240.5 130l10 -35q-191 -72 -222 -198zM168 228q-7 -24 -7 -68q0 -52 28.5 -85.5t69.5 -33.5q48 0 74.5 37t26.5 98q0 54 -26 82t-65 28
q-67 0 -101 -58z" />
    <glyph glyph-name="seven.c2sc.tnum" horiz-adv-x="510" 
d="M447 518l19 -26q-64 -112 -121 -242.5t-81 -225.5q-9 -37 -65 -37q-27 0 -43 10t-8 28q105 235 227 391l-7 14h-217l-32 -68h-45l46 156h327z" />
    <glyph glyph-name="eight.c2sc.tnum" horiz-adv-x="510" 
d="M60 121q0 45 29 71.5t82 50.5v9q-94 42 -94 129q0 59 50.5 102.5t132.5 43.5q78 0 128 -34.5t50 -88.5q0 -77 -96 -122v-8q108 -55 108 -135q0 -70 -54.5 -111t-144.5 -41q-84 0 -137.5 36.5t-53.5 97.5zM141 119q0 -34 31 -59t81 -25t81 23.5t31 61.5q0 36 -33 58
t-108 48q-83 -34 -83 -107zM161 403q0 -67 133 -105q58 34 58 103q0 36 -26 57t-69 21q-45 0 -70.5 -23t-25.5 -53z" />
    <glyph glyph-name="nine.c2sc.tnum" horiz-adv-x="510" 
d="M347 200l-16 8q-47 -41 -117 -41q-63 0 -113 44t-50 122q0 86 63 140t137 54q95 0 153 -63.5t58 -171.5q0 -121 -93 -208t-263 -104v45q89 10 159 61.5t82 113.5zM348 280q11 25 11 75q0 54 -28 87.5t-77 33.5q-44 0 -69.5 -38t-25.5 -99q0 -116 90 -116q57 0 99 57z" />
    <glyph glyph-name="dollar.c2sc" horiz-adv-x="503" 
d="M271 608v-82q46 -3 97 -24l25 11h14l12 -148h-35q-32 103 -113 115v-172q157 -53 157 -163q0 -70 -43 -110.5t-114 -46.5v-76h-37v76q-68 4 -104 29l-22 -12h-22l-11 152h39q26 -115 120 -125v192q-82 28 -117 66.5t-35 92.5q0 52 42 95.5t110 47.5v82h37zM350 125
q0 29 -17 49.5t-62 36.5v-178q38 6 58.5 30.5t20.5 61.5zM160 401q0 -49 74 -79v159q-35 -4 -54.5 -26t-19.5 -54z" />
    <glyph glyph-name="cent.c2sc" horiz-adv-x="453" 
d="M252 576v-95q63 0 101 -26t38 -63q0 -38 -44 -38q-22 0 -34.5 13.5t-16 29.5t-14.5 31t-30 18v-323h13q34 0 63.5 18t46.5 44l27 -13q-20 -52 -59.5 -86t-90.5 -38v-98h-38v98q-73 10 -117 71t-44 143q0 81 44.5 141t116.5 74v99h38zM139 278q0 -115 75 -146v308
q-32 -16 -53.5 -59.5t-21.5 -102.5z" />
    <glyph glyph-name="sterling.c2sc" horiz-adv-x="509" 
d="M84 291h64q-25 71 -25 112q0 60 44 92t103 32q70 0 112.5 -29t42.5 -58q0 -18 -11 -29.5t-24 -11.5q-21 0 -35 14.5t-21 31.5t-23.5 31.5t-41.5 14.5q-21 0 -36.5 -18.5t-15.5 -54.5q0 -14 1.5 -27t6 -27.5t7 -23t9.5 -26t9 -23.5h113v-38h-101q7 -31 7 -57
q0 -65 -60 -94l5 -8q14 6 30 6q32 0 74 -33.5t69 -33.5t27 24q0 11 -22 27.5t-22 33.5q0 12 8.5 21.5t22.5 9.5q24 0 39 -19.5t15 -54.5q0 -42 -28.5 -65t-65.5 -23q-60 0 -115.5 19t-84.5 41h-3q-35 -60 -72 -60q-20 0 -20 18q0 42 82 71q33 45 33 79q0 37 -19 98h-78v38z
" />
    <glyph glyph-name="yen.c2sc" horiz-adv-x="532" 
d="M118 209h102v27l-135 231l-55 13v38h211v-38l-54 -13l96 -171h13l96 162l-70 22v38h180v-38l-58 -22l-131 -222v-27h102v-36h-102v-42h102v-36h-102v-44l64 -13v-38h-222v38l65 13v44h-102v36h102v42h-102v36z" />
    <glyph glyph-name="Euro.c2sc" horiz-adv-x="553" 
d="M47 306h58q16 101 82.5 161t157.5 60q89 0 158 -54l-22 -93h-27q2 51 -31.5 74t-72.5 23q-55 0 -93 -43.5t-47 -127.5h256l-8 -35h-251v-21v-14h244l-7 -35h-234q10 -79 50 -121.5t94 -42.5q38 0 68.5 21.5t46.5 61.5l34 -9q-44 -124 -172 -124q-89 0 -152 56.5
t-75 157.5h-64l7 35h54v13q0 15 1 22h-62z" />
    <glyph glyph-name="numbersign.c2sc" horiz-adv-x="508" 
d="M96 393h88l34 163h55l-34 -163h80l34 163h55l-34 -163h79v-64h-92l-30 -141h81v-64h-94l-40 -191h-55l40 191h-80l-40 -191h-55l40 191h-73v64h86l30 141h-75v64zM226 329l-30 -141h80l30 141h-80z" />
    <glyph glyph-name="percent.c2sc" horiz-adv-x="495" 
d="M258 432l-2 -1q-1 -64 -34 -105t-79 -41q-38 0 -62 26t-24 69q0 60 38.5 103.5t82.5 43.5q58 0 77 -52q9 -25 50 -25q37 0 62 27q24 50 52 50q22 0 22 -17q0 -22 -33 -46l-157 -238l-149 -245l-37 20l158 239l114 185l-2 2q-17 -9 -40 -9t-37 14zM249 82q0 60 38.5 103.5
t81.5 43.5q37 0 60 -23.5t23 -64.5q0 -68 -34.5 -111t-76.5 -43q-41 0 -66.5 26.5t-25.5 68.5zM377 188q-24 0 -46 -36t-22 -74q0 -52 36 -52q24 0 45.5 32t21.5 85q0 22 -10 33.5t-25 11.5zM186 486q-24 0 -46 -36t-22 -74q0 -52 37 -52q23 0 44.5 32t21.5 81t-35 49z" />
    <glyph glyph-name="perthousand.c2sc" horiz-adv-x="724" 
d="M258 432l-2 -1q-1 -64 -34 -105t-79 -41q-38 0 -62 26t-24 69q0 60 38.5 103.5t82.5 43.5q58 0 77 -52q9 -25 50 -25q37 0 62 27q24 50 52 50q22 0 22 -17q0 -22 -33 -46l-157 -238l-149 -245l-37 20l158 239l114 185l-2 2q-17 -9 -40 -9t-37 14zM249 82q0 60 38.5 103.5
t81.5 43.5q37 0 60 -23.5t23 -64.5q0 -68 -34.5 -111t-76.5 -43q-41 0 -66.5 26.5t-25.5 68.5zM377 188q-24 0 -46 -36t-22 -74q0 -52 36 -52q24 0 45.5 32t21.5 85q0 22 -10 33.5t-25 11.5zM186 486q-24 0 -46 -36t-22 -74q0 -52 37 -52q23 0 44.5 32t21.5 81t-35 49z
M478 82q0 60 38.5 103.5t81.5 43.5q37 0 60 -23.5t23 -64.5q0 -68 -34.5 -111t-76.5 -43q-41 0 -66.5 26.5t-25.5 68.5zM606 188q-24 0 -46 -36t-22 -74q0 -52 36 -52q24 0 45.5 32t21.5 85q0 22 -10 33.5t-25 11.5z" />
    <glyph glyph-name="ordfeminine.c2sc" horiz-adv-x="457" 
d="M306 193l-30 75h-130l-27 -68l51 -17v-30h-135v30l40 17l130 318h51l129 -325l37 -10v-30h-159v30zM210 425l-50 -122h103l-48 122h-5z" />
    <glyph glyph-name="ordmasculine.c2sc" horiz-adv-x="440" 
d="M30 336q0 86 55 138.5t136 52.5q83 0 136 -51.5t53 -139.5q0 -89 -54 -139t-135 -50q-82 0 -136.5 50.5t-54.5 138.5zM117 336q0 -68 30 -107t74 -39q45 0 73.5 36t28.5 110q0 72 -29 111.5t-73 39.5t-74 -40t-30 -111z" />
    <glyph glyph-name="degree.c2sc" horiz-adv-x="387" 
d="M50 383q0 59 42 101.5t101 42.5t101.5 -42.5t42.5 -101.5t-42.5 -101t-101.5 -42t-101 42t-42 101zM110 383q0 -39 22.5 -65.5t59.5 -26.5t60.5 26.5t23.5 65.5t-23.5 66.5t-60.5 27.5t-59.5 -27.5t-22.5 -66.5z" />
    <glyph glyph-name="quoteright.tight" horiz-adv-x="331" 
d="M103 668q0 23 14 37.5t39 14.5q35 0 61.5 -36.5t26.5 -96.5q0 -100 -109 -162l-23 37q67 47 67 92q0 22 -19 39t-38 34.5t-19 40.5z" />
    <glyph glyph-name="quoteleft.tight" horiz-adv-x="331" 
d="M228 477q0 -23 -14 -37.5t-39 -14.5q-35 0 -61.5 36.5t-26.5 96.5q0 100 109 162l23 -37q-67 -47 -67 -92q0 -22 19 -39t38 -34.5t19 -40.5z" />
    <glyph glyph-name="quotedblleft.tight" horiz-adv-x="531" 
d="M228 477q0 -23 -14 -37.5t-39 -14.5q-35 0 -61.5 36.5t-26.5 96.5q0 100 109 162l23 -37q-67 -47 -67 -92q0 -22 19 -39t38 -34.5t19 -40.5zM428 477q0 -23 -14 -37.5t-39 -14.5q-35 0 -61.5 36.5t-26.5 96.5q0 100 109 162l23 -37q-67 -47 -67 -92q0 -22 19 -39
t38 -34.5t19 -40.5z" />
    <glyph glyph-name="quotedblright.tight" horiz-adv-x="531" 
d="M303 668q0 23 14 37.5t39 14.5q35 0 61.5 -36.5t26.5 -96.5q0 -100 -109 -162l-23 37q67 47 67 92q0 22 -19 39t-38 34.5t-19 40.5zM103 668q0 23 14 37.5t39 14.5q35 0 61.5 -36.5t26.5 -96.5q0 -100 -109 -162l-23 37q67 47 67 92q0 22 -19 39t-38 34.5t-19 40.5z" />
    <glyph glyph-name="quotesinglbase.tight" horiz-adv-x="331" 
d="M103 73q0 23 14 37.5t39 14.5q35 0 61.5 -36.5t26.5 -96.5q0 -100 -109 -162l-23 37q67 47 67 92q0 22 -19 39t-38 34.5t-19 40.5z" />
    <glyph glyph-name="quotedblbase.tight" horiz-adv-x="531" 
d="M303 73q0 23 14 37.5t39 14.5q35 0 61.5 -36.5t26.5 -96.5q0 -100 -109 -162l-23 37q67 47 67 92q0 22 -19 39t-38 34.5t-19 40.5zM103 73q0 23 14 37.5t39 14.5q35 0 61.5 -36.5t26.5 -96.5q0 -100 -109 -162l-23 37q67 47 67 92q0 22 -19 39t-38 34.5t-19 40.5z" />
    <glyph glyph-name="Iacute_Jacute" horiz-adv-x="865" 
d="M69 706h282v-40l-88 -15v-596l88 -15v-40h-282v40l88 15v596l-88 15v40zM150 756v8l86 129h94v-10l-129 -127h-51zM595 -49v700l-106 15v40h307v-40l-95 -15v-604q0 -119 -78 -205.5t-164 -86.5q-41 0 -66.5 17t-25.5 51q0 26 16.5 41t42.5 15q20 0 48.5 -12.5
t52.5 -12.5q68 0 68 97zM610 756v8l86 129h94v-10l-129 -127h-51z" />
    <glyph glyph-name="iacute_jacute" horiz-adv-x="811" 
d="M79 518h242v-38l-71 -15v-412l71 -15v-38h-242v38l72 15v412l-72 15v38zM140 568v8l86 164h94v-10l-129 -162h-51zM572 -51v516l-77 15v38h247v-38l-71 -15v-428q0 -90 -62.5 -160.5t-129.5 -70.5q-35 0 -57 14.5t-22 43.5q0 23 13 36t33 13q17 0 37 -15.5t35 -15.5
q54 0 54 67zM562 568v8l86 164h94v-10l-129 -162h-51z" />
    <glyph glyph-name="acute.plk" horiz-adv-x="500" 
d="M220 488v8l36 164h94v-10l-79 -162h-51z" />
    <glyph glyph-name="acute.case.plk" horiz-adv-x="500" 
d="M220 488v8l36 129h94v-10l-79 -127h-51z" />
    <glyph glyph-name="Dotlessi" horiz-adv-x="420" 
d="M69 706h282v-40l-88 -15v-596l88 -15v-40h-282v40l88 15v596l-88 15v40z" />
    <glyph glyph-name="zero.tallfig" horiz-adv-x="585" 
d="M50 343q0 183 70 279t179 96q105 0 170.5 -96.5t65.5 -278.5q0 -172 -65.5 -263.5t-170.5 -91.5q-109 0 -179 91t-70 264zM160 344q0 -162 38.5 -235t100.5 -73q57 0 92 73.5t35 234.5q0 167 -34 246.5t-88 79.5q-62 0 -103 -84t-41 -242z" />
    <glyph glyph-name="one.tallfig" horiz-adv-x="447" 
d="M65 620v42q95 1 173 50l50 -5v-652l100 -15v-40h-300v40l101 15v570q-74 -18 -124 -5z" />
    <glyph glyph-name="two.tallfig" horiz-adv-x="544" 
d="M360 524q0 52 -26 80t-71 28q-43 0 -78.5 -24t-91.5 -81l-30 32q116 159 236 159q75 0 120 -40t45 -109q0 -68 -50.5 -164t-108.5 -169t-112 -127l6 -14h228l45 63l33 -13l-56 -145h-391l-12 32q76 69 143 147t119 174.5t52 170.5z" />
    <glyph glyph-name="three.tallfig" horiz-adv-x="493" 
d="M416 586q0 -52 -34.5 -99t-79.5 -79v-10q55 -14 96 -71t41 -126q0 -94 -67.5 -153.5t-160.5 -59.5q-79 0 -126.5 26.5t-47.5 67.5q0 19 13.5 34t38.5 15q24 0 43.5 -14t31 -30.5t32 -30.5t47.5 -14q37 0 68 35t31 98q0 42 -17 77.5t-40 54.5t-45.5 28t-34.5 3l-36 -20
l-26 39q80 42 129.5 92.5t49.5 101.5q0 41 -22 63.5t-59 22.5q-88 0 -156 -82l-28 30q40 53 97.5 93t127.5 40q56 0 95 -36.5t39 -95.5z" />
    <glyph glyph-name="four.tallfig" horiz-adv-x="544" 
d="M371 713l49 -17v-444h86v-66h-86v-186h-98v185h-259l-16 36zM322 530l-11 6l-177 -274l5 -10h183v278z" />
    <glyph glyph-name="five.tallfig" horiz-adv-x="494" 
d="M89 382l28 324h265l19 25h39l-21 -120h-261l-11 -147l8 -8q24 8 75 8q80 0 143.5 -58.5t63.5 -155.5q0 -119 -78 -190.5t-204 -71.5q-48 0 -81.5 18t-33.5 46q0 50 59 50q28 0 68.5 -23.5t76.5 -23.5q44 0 75 40t31 115q0 74 -44 119.5t-110 45.5q-47 0 -89 -11z" />
    <glyph glyph-name="six.tallfig" horiz-adv-x="525" 
d="M174 398l9 -3q48 43 125 43q66 0 120.5 -53t54.5 -158q0 -43 -12 -83t-37 -76t-69.5 -58t-103.5 -22q-92 0 -150.5 73.5t-58.5 206.5q0 150 85.5 271t254.5 187l10 -35q-88 -47 -150 -122.5t-78 -170.5zM166 318q-7 -45 -7 -103q0 -77 30.5 -125t75.5 -48q52 0 81.5 51.5
t29.5 137.5q0 73 -29 111.5t-72 38.5q-32 0 -62 -16t-47 -47z" />
    <glyph glyph-name="seven.tallfig" horiz-adv-x="491" 
d="M442 706l19 -26q-68 -144 -132.5 -331t-94.5 -324q-9 -37 -65 -37q-27 0 -43 10t-8 28q46 146 117 300t140 271l-7 14h-257l-32 -73h-45l46 168h362z" />
    <glyph glyph-name="eight.tallfig" horiz-adv-x="544" 
d="M67 161q0 67 34 107.5t95 74.5v9q-52 27 -82 75t-30 100q0 79 53.5 135t143.5 56q80 0 132 -45.5t52 -117.5q0 -49 -28 -87t-89 -80v-8q61 -36 95 -80t34 -116q0 -90 -57 -143t-152 -53q-88 0 -144.5 47.5t-56.5 125.5zM148 159q0 -55 29.5 -89t90.5 -34q56 0 90 35.5
t34 93.5q0 52 -36.5 87.5t-106.5 71.5q-45 -24 -73 -67.5t-28 -97.5zM168 559q0 -95 132 -153q42 28 60.5 62.5t18.5 83.5q0 54 -28.5 86t-76.5 32q-49 0 -77.5 -32.5t-28.5 -78.5z" />
    <glyph glyph-name="nine.tallfig" horiz-adv-x="525" 
d="M358 296l-11 8q-53 -41 -115 -41q-78 0 -134 60.5t-56 165.5t67 167t150 62q95 0 154.5 -73t59.5 -197q0 -89 -24 -166.5t-70 -139.5t-118.5 -102t-163.5 -50v40q103 25 176.5 93.5t84.5 172.5zM359 391q11 40 11 120q0 71 -29.5 113.5t-85.5 42.5q-50 0 -77.5 -44
t-27.5 -128q0 -176 105 -176q60 0 104 72z" />
    <glyph glyph-name="zero.tallfig.tnum" horiz-adv-x="540" 
d="M42 343q0 182 66 278.5t168 96.5q98 0 159.5 -97t61.5 -278q0 -172 -61.5 -263.5t-159.5 -91.5q-102 0 -168 91t-66 264zM152 344q0 -162 35 -235t89 -73q50 0 81 74t31 234q0 167 -30 246.5t-77 79.5q-55 0 -92 -84.5t-37 -241.5z" />
    <glyph glyph-name="one.tallfig.tnum" horiz-adv-x="540" 
d="M108 620v42q95 1 173 50l50 -5v-652l100 -15v-40h-300v40l101 15v570q-74 -18 -124 -5z" />
    <glyph glyph-name="two.tallfig.tnum" horiz-adv-x="540" 
d="M346 524q0 52 -26 80t-71 28q-43 0 -78.5 -24t-91.5 -81l-30 32q116 159 236 159q75 0 120 -40t45 -109q0 -68 -50.5 -164t-108.5 -169t-112 -127l6 -14h228l45 63l33 -13l-56 -145h-391l-12 32q76 69 143 147t119 174.5t52 170.5z" />
    <glyph glyph-name="three.tallfig.tnum" horiz-adv-x="540" 
d="M436 586q0 -52 -34.5 -99t-79.5 -79v-10q55 -14 96 -71t41 -126q0 -94 -67.5 -153.5t-160.5 -59.5q-79 0 -126.5 26.5t-47.5 67.5q0 19 13.5 34t38.5 15q24 0 43.5 -14t31 -30.5t32 -30.5t47.5 -14q37 0 68 35t31 98q0 42 -17 77.5t-40 54.5t-45.5 28t-34.5 3l-36 -20
l-26 39q80 42 129.5 92.5t49.5 101.5q0 41 -22 63.5t-59 22.5q-88 0 -156 -82l-28 30q40 53 97.5 93t127.5 40q56 0 95 -36.5t39 -95.5z" />
    <glyph glyph-name="four.tallfig.tnum" horiz-adv-x="540" 
d="M356 713l49 -17v-444h86v-66h-86v-186h-98v185h-259l-16 36zM307 530l-11 6l-177 -274l5 -10h183v278z" />
    <glyph glyph-name="five.tallfig.tnum" horiz-adv-x="540" 
d="M109 382l28 324h265l19 25h39l-21 -120h-261l-11 -147l8 -8q24 8 75 8q80 0 143.5 -58.5t63.5 -155.5q0 -119 -78 -190.5t-204 -71.5q-48 0 -81.5 18t-33.5 46q0 50 59 50q28 0 68.5 -23.5t76.5 -23.5q44 0 75 40t31 115q0 74 -44 119.5t-110 45.5q-47 0 -89 -11z" />
    <glyph glyph-name="six.tallfig.tnum" horiz-adv-x="540" 
d="M176 398l9 -3q48 43 125 43q66 0 120.5 -53t54.5 -158q0 -43 -12 -83t-37 -76t-69.5 -58t-103.5 -22q-92 0 -150.5 73.5t-58.5 206.5q0 150 85.5 271t254.5 187l10 -35q-88 -47 -150 -122.5t-78 -170.5zM168 318q-7 -45 -7 -103q0 -77 30.5 -125t75.5 -48q52 0 81.5 51.5
t29.5 137.5q0 73 -29 111.5t-72 38.5q-32 0 -62 -16t-47 -47z" />
    <glyph glyph-name="seven.tallfig.tnum" horiz-adv-x="540" 
d="M474 706l19 -26q-68 -144 -132.5 -331t-94.5 -324q-9 -37 -65 -37q-27 0 -43 10t-8 28q46 146 117 300t140 271l-7 14h-257l-32 -73h-45l46 168h362z" />
    <glyph glyph-name="eight.tallfig.tnum" horiz-adv-x="540" 
d="M65 161q0 67 34 107.5t95 74.5v9q-52 27 -82 75t-30 100q0 79 53.5 135t143.5 56q80 0 132 -45.5t52 -117.5q0 -49 -28 -87t-89 -80v-8q61 -36 95 -80t34 -116q0 -90 -57 -143t-152 -53q-88 0 -144.5 47.5t-56.5 125.5zM146 159q0 -55 29.5 -89t90.5 -34q56 0 90 35.5
t34 93.5q0 52 -36.5 87.5t-106.5 71.5q-45 -24 -73 -67.5t-28 -97.5zM166 559q0 -95 132 -153q42 28 60.5 62.5t18.5 83.5q0 54 -28.5 86t-76.5 32q-49 0 -77.5 -32.5t-28.5 -78.5z" />
    <glyph glyph-name="nine.tallfig.tnum" horiz-adv-x="540" 
d="M370 296l-11 8q-53 -41 -115 -41q-78 0 -134 60.5t-56 165.5t67 167t150 62q95 0 154.5 -73t59.5 -197q0 -89 -24 -166.5t-70 -139.5t-118.5 -102t-163.5 -50v40q103 25 176.5 93.5t84.5 172.5zM371 391q11 40 11 120q0 71 -29.5 113.5t-85.5 42.5q-50 0 -77.5 -44
t-27.5 -128q0 -176 105 -176q60 0 104 72z" />
    <glyph glyph-name="at.tallfig" horiz-adv-x="906" 
d="M744 470q0 35 -9 71.5t-29.5 75t-62.5 63t-99 24.5q-96 0 -181 -72.5t-133.5 -185.5t-48.5 -230q0 -118 43.5 -177t122.5 -59q89 0 167 63l21 -42q-44 -35 -97.5 -54.5t-99.5 -19.5q-114 0 -172.5 76t-58.5 214q0 92 35 187t93 171t141 124.5t171 48.5q123 0 195.5 -76.5
t72.5 -201.5q0 -84 -32.5 -154.5t-80 -111.5t-95.5 -63.5t-85 -22.5q-34 0 -37.5 34t22.5 93l-13 9q-19 -28 -34.5 -47t-38 -42.5t-47 -36t-48.5 -12.5q-29 0 -45 24.5t-16 56.5q0 82 59 183q46 77 106.5 128.5t115.5 51.5q29 0 42 -28h5q6 16 13.5 21.5t27.5 5.5t27 -4
t4 -12l-108 -331q-7 -31 13 -31q18 0 46 20t57 54t50 92t21 123zM345 230q0 -44 24 -44q34 0 93.5 79t102.5 182q9 70 -29 70q-33 0 -70.5 -34.5t-67.5 -87.5q-53 -94 -53 -165z" />
    <glyph glyph-name="dollar.tallfig" horiz-adv-x="616" 
d="M332 818v-102q49 -6 104 -36l36 17h23l16 -200h-37q-19 77 -56.5 119t-85.5 51v-258q99 -37 146.5 -88t47.5 -127q0 -93 -53.5 -145.5t-140.5 -59.5v-107h-45v107q-74 7 -115 44l-31 -18h-34l-17 207h44q31 -175 153 -186v283q-98 38 -142 88t-44 120q0 69 51.5 127
t134.5 63v101h45zM433 158q0 47 -22 81t-79 62v-265q101 14 101 122zM193 553q0 -76 94 -124v240q-45 -5 -69.5 -35t-24.5 -81z" />
    <glyph glyph-name="cent.tallfig" horiz-adv-x="453" 
d="M252 676v-95q63 0 101 -26t38 -63q0 -38 -44 -38q-22 0 -34.5 13.5t-16 29.5t-14.5 31t-30 18v-323h13q34 0 63.5 18t46.5 44l27 -13q-20 -52 -59.5 -86t-90.5 -38v-98h-38v98q-73 10 -117 71t-44 143q0 81 44.5 141t116.5 74v99h38zM139 378q0 -115 75 -146v308
q-32 -16 -53.5 -59.5t-21.5 -102.5z" />
    <glyph glyph-name="sterling.tallfig" horiz-adv-x="632" 
d="M90 402h82q-31 85 -31 129q0 90 59 138.5t139 48.5q83 0 130.5 -39.5t47.5 -79.5q0 -24 -13.5 -38.5t-30.5 -14.5q-23 0 -38.5 20.5t-23 45.5t-26.5 45.5t-47 20.5q-38 0 -64 -32t-26 -94q0 -19 4 -40t8.5 -35.5t13 -38t12.5 -36.5h156v-48h-144q5 -28 5 -53
q0 -109 -56 -168l8 -13q25 17 53 17q25 0 49 -15t40 -33t37.5 -33t43.5 -15q39 0 39 37q0 14 -21 35t-21 41q0 15 10.5 27.5t28.5 12.5q27 0 42.5 -21t15.5 -61q0 -60 -39.5 -92t-93.5 -32q-70 0 -133 31t-92 66h-5q-52 -97 -109 -97q-13 0 -21.5 7t-8.5 19q0 32 35.5 58
t87.5 42q20 53 20 127q0 43 -24 113h-99v48z" />
    <glyph glyph-name="yen.tallfig" horiz-adv-x="630" 
d="M128 303h140v1l-179 340l-69 17v45h244v-45l-71 -17l136 -262h18l144 262l-84 17v45h203v-45l-65 -17l-183 -340v-1h141v-46h-141v-55h141v-46h-141v-94l89 -17v-45h-271v45l88 17v94h-140v46h140v55h-140v46z" />
    <glyph glyph-name="Euro.tallfig" horiz-adv-x="716" 
d="M81 433h70q20 130 97.5 207.5t181.5 77.5q112 0 206 -71l-34 -141h-32q1 46 -12.5 80.5t-36.5 51.5t-45.5 24.5t-45.5 7.5q-66 0 -113 -59.5t-59 -177.5h322l-11 -46h-315v-34v-21h300l-11 -46h-286q12 -119 61.5 -183.5t109.5 -64.5q118 0 159 135l44 -14
q-53 -171 -214 -171q-104 0 -179 78.5t-90 219.5h-78l11 46h64v20q0 23 1 35h-76z" />
    <glyph glyph-name="numbersign.tallfig" horiz-adv-x="557" 
d="M90 523h111l44 213h60l-44 -213h100l44 213h60l-44 -213h96v-74h-111l-37 -176h98v-74h-113l-49 -236h-60l49 236h-100l-49 -236h-60l49 236h-94v74h109l37 176h-96v74zM246 449l-37 -176h100l37 176h-100z" />
    </font>
</defs>
</svg>
