<?xml version="1.0" standalone="no"?>
<!DOCTYPE svg PUBLIC "-//W3C//DTD SVG 1.1//EN" "http://www.w3.org/Graphics/SVG/1.1/DTD/svg11.dtd" >
<svg xmlns="http://www.w3.org/2000/svg" xmlns:xlink="http://www.w3.org/1999/xlink" version="1.1">
<metadata>
Created by FontForge 20170731 at Sun Mar  3 17:08:34 2019
 By Aleksey,,,
Copyright 2011-2019 Matthew Butterick
</metadata>
<defs>
<font id="EquityTextB" horiz-adv-x="720" >
  <font-face 
    font-family="Equity Text B"
    font-weight="400"
    font-stretch="normal"
    units-per-em="1000"
    panose-1="0 0 0 0 0 0 0 0 0 0"
    ascent="744"
    descent="-256"
    x-height="458"
    cap-height="706"
    bbox="-93 -264 943 934"
    underline-thickness="50"
    underline-position="-175"
    unicode-range="U+000D-FB04"
  />
<missing-glyph horiz-adv-x="540" 
d="M20 0v700h500v-700h-500zM70 650v-600h400v600h-400zM189 138q0 19 13 32t32 13t32 -13t13 -32t-13 -32t-32 -13t-32 13t-13 32zM219 240v147q62 -8 94.5 17t32.5 70q0 32 -21.5 50.5t-61.5 18.5q-68 0 -68 36q0 16 11.5 26t32.5 10q50 0 94.5 -47t44.5 -119
q0 -67 -39 -99.5t-90 -28.5v-81h-30z" />
    <glyph glyph-name="uni2190" unicode="&#x3c;&#x2d;" horiz-adv-x="700" 
d="M74 272l237 264l61 -46l-163 -183h420v-84h-420l163 -183l-61 -47l-237 266v13z" />
    <glyph glyph-name="uni2192" unicode="&#x2d;&#x3e;" horiz-adv-x="700" 
d="M389 536l237 -264v-13l-237 -266l-61 47l163 183h-420v84h420l-163 183z" />
    <glyph glyph-name="f_f" unicode="ff" horiz-adv-x="583" 
d="M566 406h-121v-358l78 -18v-30h-226v30l67 15v361h-198v-358l81 -18v-30h-222v30l60 15v361h-66v29l66 41v42q0 84 58.5 142.5t132.5 58.5q46 0 82 -16.5t55 -42.5q64 79 155 79q55 0 84 -21t29 -53q0 -22 -14.5 -34.5t-38.5 -12.5q-19 0 -33 11.5t-21 25t-19.5 25
t-29.5 11.5q-37 0 -58.5 -52.5t-21.5 -114.5v-66h121v-52zM166 528v-70h198v60q0 30 8 62q-18 4 -31 19.5t-20 31t-23.5 28t-42.5 12.5q-46 0 -67.5 -39.5t-21.5 -103.5z" />
    <glyph glyph-name="fi" unicode="fi" horiz-adv-x="529" 
d="M442 471v-426l60 -15v-30h-205v30l64 15v361h-195v-358l81 -18v-30h-222v30l60 15v361h-66v29l66 41v42q0 89 61.5 155t147.5 66q58 0 97 -28.5t39 -68.5q0 -44 -47 -44q-22 0 -36.5 14.5t-21.5 32t-22 32t-37 14.5q-45 0 -72.5 -52.5t-27.5 -114.5v-66h216l38 13h22z
" />
    <glyph glyph-name="fl" unicode="fl" horiz-adv-x="539" 
d="M452 734v-689l60 -15v-30h-209v30l68 15v575q-28 3 -62.5 37t-62.5 34q-37 0 -58.5 -52.5t-21.5 -114.5v-66h123v-52h-123v-358l87 -18v-30h-228v30l60 15v361h-66v29l66 41v42q0 89 60.5 155t143.5 66q57 0 88 -23l55 18h20z" />
    <glyph glyph-name="f_f_i" unicode="ffi" horiz-adv-x="808" 
d="M721 471v-426l60 -15v-30h-205v30l64 15v361h-195v-358l81 -18v-30h-222v30l60 15v361h-198v-358l81 -18v-30h-222v30l60 15v361h-66v29l66 41v42q0 84 58.5 142.5t132.5 58.5q93 0 138 -60q63 80 159 80q59 0 97.5 -27t38.5 -67q0 -47 -50 -47q-22 0 -36 14.5t-20.5 32
t-21 32t-36.5 14.5q-45 0 -72.5 -52.5t-27.5 -114.5v-66h216l38 13h22zM166 528v-70h198v60q0 30 8 62q-18 4 -31 19.5t-20 31t-23.5 28t-42.5 12.5q-46 0 -67.5 -39.5t-21.5 -103.5z" />
    <glyph glyph-name="f_f_l" unicode="ffl" horiz-adv-x="818" 
d="M731 734v-689l60 -15v-30h-209v30l68 15v575q-28 3 -62.5 37t-62.5 34q-37 0 -58.5 -52.5t-21.5 -114.5v-66h123v-52h-123v-358l87 -18v-30h-228v30l60 15v361h-198v-358l81 -18v-30h-222v30l60 15v361h-66v29l66 41v42q0 84 58.5 142.5t132.5 58.5q46 0 82 -16.5
t55 -42.5q64 79 155 79q57 0 88 -23l51 18h24zM166 458h198v60q0 30 8 62q-18 4 -31 19.5t-20 31t-23.5 28t-42.5 12.5q-46 0 -67.5 -39.5t-21.5 -103.5v-70z" />
    <glyph glyph-name="f_j" unicode="fj" horiz-adv-x="519" 
d="M442 471v-458q0 -90 -40 -159.5t-116 -104.5l-19 29q94 75 94 219v409h-195v-358l81 -18v-30h-222v30l60 15v361h-66v29l66 41v42q0 89 61.5 155t147.5 66q59 0 98 -27t39 -67q0 -21 -13.5 -34t-36.5 -13q-22 0 -36.5 14.5t-21 32t-21 32t-36.5 14.5q-45 0 -72.5 -52.5
t-27.5 -114.5v-66h217l40 13h19z" />
    <glyph glyph-name="f_f_j" unicode="ffj" horiz-adv-x="798" 
d="M661 458l41 13h19v-458q0 -90 -40 -159.5t-116 -104.5l-19 29q94 75 94 219v409h-195v-358l81 -18v-30h-222v30l60 15v361h-198v-358l81 -18v-30h-222v30l60 15v361h-66v29l66 41v42q0 84 58.5 142.5t132.5 58.5q93 0 138 -60q63 80 159 80q59 0 97.5 -27t38.5 -67
q0 -47 -50 -47q-22 0 -36 14.5t-20.5 32t-21 32t-36.5 14.5q-45 0 -72.5 -52.5t-27.5 -114.5v-66h216zM166 528v-70h198v60q0 30 8 62q-18 4 -31 19.5t-20 31t-23.5 28t-42.5 12.5q-46 0 -67.5 -39.5t-21.5 -103.5z" />
    <glyph glyph-name="uni2190.circle" unicode="&#x28;&#x3c;&#x2d;&#x29;" horiz-adv-x="880" 
d="M399 536l-237 -264v-13l237 -266l61 47l-163 183h420v84h-420l163 183zM822 263q0 -157 -111.5 -268.5t-268.5 -111.5q-159 0 -271.5 111.5t-112.5 268.5q0 159 112.5 271t271.5 112q157 0 268.5 -112t111.5 -271z" />
    <glyph glyph-name="uni2192.circle" unicode="&#x28;&#x2d;&#x3e;&#x29;" horiz-adv-x="880" 
d="M718 272l-237 264l-61 -46l163 -183h-420v-84h420l-163 -183l61 -47l237 266v13zM58 263q0 159 111.5 271t268.5 112q159 0 271.5 -112t112.5 -271q0 -157 -112.5 -268.5t-271.5 -111.5q-157 0 -268.5 111.5t-111.5 268.5z" />
    <glyph glyph-name="uni2191.circle" unicode="&#x28;&#x2191;&#x29;" horiz-adv-x="880" 
d="M711 305l-264 237h-13l-266 -237l47 -61l183 163v-420h84v420l183 -163zM438 -118q-157 0 -268.5 111.5t-111.5 268.5q0 159 111.5 271.5t268.5 112.5q159 0 271.5 -112.5t112.5 -271.5q0 -157 -112.5 -268.5t-271.5 -111.5z" />
    <glyph glyph-name="uni2193.circle" unicode="&#x28;&#x2193;&#x29;" horiz-adv-x="880" 
d="M447 -14l264 237l-46 61l-183 -163v420h-84v-420l-183 163l-47 -61l266 -237h13zM438 646q159 0 271.5 -111.5t112.5 -268.5q0 -159 -112.5 -271.5t-271.5 -112.5q-157 0 -268.5 112.5t-111.5 271.5q0 157 111.5 268.5t268.5 111.5z" />
    <glyph glyph-name=".notdef" horiz-adv-x="540" 
d="M20 0v700h500v-700h-500zM70 650v-600h400v600h-400zM189 138q0 19 13 32t32 13t32 -13t13 -32t-13 -32t-32 -13t-32 13t-13 32zM219 240v147q62 -8 94.5 17t32.5 70q0 32 -21.5 50.5t-61.5 18.5q-68 0 -68 36q0 16 11.5 26t32.5 10q50 0 94.5 -47t44.5 -119
q0 -67 -39 -99.5t-90 -28.5v-81h-30z" />
    <glyph glyph-name=".null" horiz-adv-x="0" 
 />
    <glyph glyph-name="nonmarkingreturn" horiz-adv-x="333" 
 />
    <glyph glyph-name="NULL" horiz-adv-x="0" 
 />
    <glyph glyph-name="NULL" horiz-adv-x="0" 
 />
    <glyph glyph-name="CR" unicode="&#xd;" horiz-adv-x="220" 
 />
    <glyph glyph-name="space" unicode=" " horiz-adv-x="220" 
 />
    <glyph glyph-name="exclam" unicode="!" horiz-adv-x="333" 
d="M105 54q0 26 18 44t43 18q26 0 44 -18t18 -44q0 -25 -18 -43t-44 -18t-43.5 17.5t-17.5 43.5zM116 734h110l-38 -524h-34z" />
    <glyph glyph-name="quotedbl" unicode="&#x22;" horiz-adv-x="428" 
d="M78 436l18 236q2 36 14.5 55t37.5 13l23 -5q16 -4 22 -13t4 -27t-13 -48l-78 -218zM257 436l18 236q2 36 14.5 55t37.5 13l23 -5q16 -4 22 -13t4 -27t-13 -48l-78 -218z" />
    <glyph glyph-name="numbersign" unicode="#" horiz-adv-x="537" 
d="M80 473h111l44 213h55l-44 -213h110l44 213h55l-44 -213h96v-69h-110l-39 -186h99v-69h-113l-49 -236h-55l49 236h-110l-49 -236h-55l49 236h-94v69h108l39 186h-97v69zM232 404l-39 -186h110l39 186h-110z" />
    <glyph glyph-name="dollar" unicode="$" horiz-adv-x="546" 
d="M294 738v-101q49 -5 102 -33l32 15h15l15 -178h-28q-38 136 -136 153v-233q90 -33 133.5 -77.5t43.5 -112.5q0 -82 -48.5 -129t-128.5 -53v-107h-35v106q-74 6 -116 40l-28 -16h-25l-15 184h34q31 -159 150 -167v257q-92 33 -133 76t-41 105q0 63 48 115t126 56v100h35z
M389 139q0 44 -20.5 76t-74.5 57v-242q46 6 70.5 34t24.5 75zM166 490q0 -70 93 -114v219q-93 -5 -93 -105z" />
    <glyph glyph-name="percent" unicode="%" horiz-adv-x="556" 
d="M295 517l-3 -1q-1 -82 -44 -135.5t-100 -53.5q-48 0 -78 36t-30 91q0 74 47 129t101 55q34 0 59.5 -18.5t36.5 -51.5q6 -15 25 -24.5t42 -9.5q48 0 84 31q24 67 55 67q24 0 24 -23q0 -30 -44 -61l-210 -286l-197 -282l-33 26l205 275l159 227l-2 2q-21 -12 -48 -12
q-30 0 -49 19zM264 115q0 74 47 129t101 55q46 0 75 -32t29 -86q0 -86 -44 -139.5t-98 -53.5q-49 0 -79.5 36t-30.5 91zM424 254q-33 0 -62 -51t-29 -110q0 -30 13 -47t33 -17q34 0 62 41.5t28 120.5q0 30 -12.5 46.5t-32.5 16.5zM200 593q-33 0 -62 -51t-29 -110
q0 -64 48 -64q33 0 60.5 42.5t27.5 119.5q0 30 -12.5 46.5t-32.5 16.5z" />
    <glyph glyph-name="ampersand" unicode="&#x26;" horiz-adv-x="727" 
d="M451 568q0 -47 -36 -83.5t-101 -71.5q96 -85 164 -181q46 71 86 160l-76 15v31h194v-31l-70 -15q-53 -111 -110 -196q39 -61 76 -136q8 -18 22 -18q11 0 21 9t31 37l23 -16q-40 -84 -103 -84q-36 0 -60 35l-65 98q-110 -133 -210 -133q-74 0 -129.5 62t-55.5 141
q0 75 36.5 119.5t124.5 87.5q-72 74 -72 141q0 44 59 96t111 52q48 0 94 -43t46 -76zM242 372l-4 2q-54 -26 -78 -57t-24 -77q0 -45 14.5 -82t37 -57.5t46 -31.5t43.5 -11q62 0 146 99q-88 130 -181 215zM211 562q0 -48 76 -124q84 57 84 119q0 35 -22 62.5t-49 27.5
q-28 0 -58.5 -27.5t-30.5 -57.5z" />
    <glyph glyph-name="quotesingle" unicode="'" horiz-adv-x="249" 
d="M78 436l18 236q2 36 14.5 55t37.5 13l23 -5q16 -4 22 -13t4 -27t-13 -48l-78 -218z" />
    <glyph glyph-name="parenleft" unicode="(" horiz-adv-x="352" 
d="M331 -213l-24 -29q-236 221 -236 505q0 148 61.5 264t173.5 220l25 -34q-180 -184 -180 -450q0 -305 180 -476z" />
    <glyph glyph-name="parenright" unicode=")" horiz-adv-x="352" 
d="M45 -242l-24 29q180 171 180 476q0 266 -180 450l25 34q112 -104 173.5 -220t61.5 -264q0 -284 -236 -505z" />
    <glyph glyph-name="asterisk" unicode="*" horiz-adv-x="476" 
d="M261 543q62 -31 120 -47q35 -9 28 -39q-7 -25 -31 -32q-20 -6 -37 11q-55 57 -93 82q6 -71 22 -124q11 -33 -18 -43q-26 -9 -42 10q-11 12 -6 33q17 76 20 124q-52 -32 -93 -82q-20 -23 -47 -3q-23 17 -17 39q5 15 26 22q73 23 119 49q-65 28 -119 40q-29 5 -26 33
q3 26 25 34q19 6 37 -10q52 -47 95 -77q-10 74 -23 121q-10 33 18 44q26 11 44 -8q13 -13 7 -36q-21 -84 -24 -121q55 36 95 77q26 29 50 5q20 -19 12 -43q-6 -15 -24 -19q-85 -22 -118 -40z" />
    <glyph glyph-name="plus" unicode="+" horiz-adv-x="540" 
d="M472 210h-171v-171h-62v171h-171v62h171v171h62v-171h171v-62z" />
    <glyph glyph-name="comma" unicode="," horiz-adv-x="267" 
d="M64 74q0 19 15.5 35.5t41.5 16.5q41 0 68 -38t27 -100q0 -72 -40 -125.5t-89 -81.5l-23 37q84 61 84 135q0 23 -13 39t-29 24t-29 23t-13 35z" />
    <glyph glyph-name="hyphen" unicode="-" horiz-adv-x="314" 
d="M32 275h250v-67h-250v67z" />
    <glyph glyph-name="period" unicode="." horiz-adv-x="253" 
d="M65 54q0 26 18 44t43 18q26 0 44 -18t18 -44q0 -25 -18 -43t-44 -18t-43.5 17.5t-17.5 43.5z" />
    <glyph glyph-name="slash" unicode="/" horiz-adv-x="460" 
d="M413 734l-300 -856h-66l300 856h66z" />
    <glyph glyph-name="zero" unicode="0" horiz-adv-x="525" 
d="M45 298q0 167 63 253.5t161 86.5q94 0 152.5 -87t58.5 -253q0 -152 -58.5 -231t-152.5 -79q-98 0 -161 78.5t-63 231.5zM140 299q0 -143 36 -208t93 -65q52 0 84.5 66t32.5 207q0 153 -33 227t-84 74q-55 0 -92 -77.5t-37 -223.5z" />
    <glyph glyph-name="one" unicode="1" horiz-adv-x="407" 
d="M48 552v32q90 1 167 50l45 -5v-579l105 -15v-35h-294v35l105 15v507q-76 -18 -128 -5z" />
    <glyph glyph-name="two" unicode="2" horiz-adv-x="504" 
d="M340 467q0 42 -25 71t-67 29q-69 0 -155 -105l-30 32q36 56 92 100t124 44q73 0 114 -41.5t41 -103.5q0 -79 -89 -199.5t-178 -199.5l6 -14h224l45 68l33 -13l-56 -135h-371l-12 32q61 49 126 117t121.5 159.5t56.5 158.5z" />
    <glyph glyph-name="three" unicode="3" horiz-adv-x="453" 
d="M386 526q0 -83 -114 -158v-10q54 -16 94 -66t40 -108q0 -92 -64 -144t-142 -52t-121.5 25t-43.5 64q0 17 13.5 30.5t38.5 13.5q18 0 33 -13t25 -29t30.5 -29t47.5 -13q37 0 68 29.5t31 83.5q0 47 -28 86t-60 54.5t-49 7.5l-36 -20l-23 35q78 40 125.5 89t47.5 99
q0 35 -20.5 53t-55.5 18q-78 0 -148 -97l-28 30q97 133 220 133q50 0 84.5 -31t34.5 -81z" />
    <glyph glyph-name="four" unicode="4" horiz-adv-x="504" 
d="M346 646l40 -17v-383h80v-61h-80v-185h-79v184h-254l-16 37zM307 494l-11 6l-179 -244l5 -10h185v248z" />
    <glyph glyph-name="five" unicode="5" horiz-adv-x="456" 
d="M79 342l28 284h245l26 39h34l-21 -119h-244l-13 -133l10 -10q24 11 62 11q79 0 140 -53t61 -143q0 -103 -70.5 -166.5t-177.5 -63.5q-56 0 -90 17.5t-34 45.5q0 19 12 32.5t35 13.5q26 0 62 -23.5t77 -23.5q50 0 79.5 32t29.5 99q0 65 -45 109.5t-115 44.5q-23 0 -73 -11
z" />
    <glyph glyph-name="six" unicode="6" horiz-adv-x="485" 
d="M152 368l16 -8q47 38 120 38q61 0 110.5 -48.5t49.5 -142.5q0 -39 -11.5 -76t-34.5 -70t-65 -53t-96 -20q-86 0 -140 68t-54 192q0 137 88 255t237 168l10 -30q-198 -99 -230 -273zM146 283q-7 -32 -7 -88q0 -72 30.5 -117.5t75.5 -45.5q52 0 81.5 48.5t29.5 130.5
q0 69 -28.5 104.5t-72.5 35.5q-74 0 -109 -68z" />
    <glyph glyph-name="seven" unicode="7" horiz-adv-x="451" 
d="M412 626l19 -26q-170 -354 -222 -575q-9 -37 -60 -37q-22 0 -34.5 10t-6.5 28q78 226 250 506l-7 14h-255l-29 -73h-40l43 153h342z" />
    <glyph glyph-name="eight" unicode="8" horiz-adv-x="504" 
d="M57 141q0 61 33 99t91 69v9q-48 24 -76.5 64.5t-28.5 84.5q0 70 51 120.5t134 50.5q74 0 123.5 -40.5t49.5 -102.5q0 -45 -27 -81t-84 -73v-8q59 -31 91.5 -67.5t32.5 -96.5q0 -83 -54.5 -132t-144.5 -49q-84 0 -137.5 42t-53.5 111zM128 139q0 -48 30 -78t90 -30
q56 0 90 31.5t34 82.5q0 47 -35 79t-103 66q-48 -22 -77 -61.5t-29 -89.5zM150 499q0 -48 32.5 -81t92.5 -59q83 53 83 133q0 47 -29 75t-75 28q-47 0 -75.5 -28.5t-28.5 -67.5z" />
    <glyph glyph-name="nine" unicode="9" horiz-adv-x="485" 
d="M338 251l-16 8q-51 -41 -110 -41q-72 0 -123.5 53.5t-51.5 147.5q0 101 62 160t140 59q88 0 143.5 -70.5t55.5 -189.5q0 -161 -97 -280t-254 -138l5 35q97 23 166 89.5t80 166.5zM339 336q11 48 11 105q0 71 -29.5 113.5t-85.5 42.5q-50 0 -77.5 -44t-27.5 -128
q0 -161 105 -161q60 0 104 72z" />
    <glyph glyph-name="colon" unicode=":" horiz-adv-x="253" 
d="M65 54q0 26 18 44t43 18q26 0 44 -18t18 -44q0 -25 -18 -43t-44 -18t-43.5 17.5t-17.5 43.5zM65 371q0 26 18 44t43 18q26 0 44 -18.5t18 -43.5t-18 -43t-44 -18t-43.5 18t-17.5 43z" />
    <glyph glyph-name="semicolon" unicode=";" horiz-adv-x="307" 
d="M84 74q0 19 15.5 35.5t41.5 16.5q41 0 68 -38t27 -100q0 -72 -40 -125.5t-89 -81.5l-23 37q84 61 84 135q0 23 -13 39t-29 24t-29 23t-13 35zM90 371q0 26 18 44t43 18t43.5 -18.5t18.5 -43.5t-18 -43t-44 -18q-25 0 -43 18t-18 43z" />
    <glyph glyph-name="less" unicode="&#x3c;" horiz-adv-x="540" 
d="M472 375l-328 -134l328 -134v-67l-404 170v62l404 170v-67z" />
    <glyph glyph-name="equal" unicode="=" horiz-adv-x="540" 
d="M472 137h-404v62h404v-62zM472 287h-404v62h404v-62z" />
    <glyph glyph-name="greater" unicode="&#x3e;" horiz-adv-x="540" 
d="M396 241l-328 134v67l404 -170v-62l-404 -170v67z" />
    <glyph glyph-name="question" unicode="?" horiz-adv-x="403" 
d="M83 54q0 26 18 44t43 18q26 0 44 -18t18 -44q0 -25 -18 -43t-44 -18t-43.5 17.5t-17.5 43.5zM122 204v206q90 -11 136.5 26t46.5 104q0 49 -30.5 77t-88.5 28q-93 0 -93 46q0 23 15 37.5t43 14.5q72 0 136 -67.5t64 -170.5q0 -94 -56.5 -140t-129.5 -39v-122h-43z" />
    <glyph glyph-name="at" unicode="@" horiz-adv-x="816" 
d="M704 390q0 36 -9.5 73t-30.5 76.5t-63.5 64.5t-101.5 25q-97 0 -183 -73.5t-135.5 -187.5t-49.5 -232q0 -241 173 -241q41 0 86.5 17.5t80.5 44.5l19 -36q-92 -74 -197 -74q-112 0 -169 75t-57 215q0 124 57.5 246t160 203.5t217.5 81.5q120 0 191.5 -76.5t71.5 -201.5
q0 -84 -32 -154.5t-79 -111.5t-94 -63.5t-83 -22.5q-19 0 -28 12.5t-5.5 42.5t23.5 75l-13 9q-96 -141 -173 -141q-29 0 -45 24.5t-16 56.5q0 82 59 183q47 77 109 128.5t118 51.5q29 0 42 -28h5q5 16 11.5 21.5t24.5 5.5q20 0 27 -4t4 -12l-108 -331q-8 -31 13 -31
q18 0 47 20t59 54t51.5 92t21.5 123zM295 145q0 -27 6 -35.5t18 -8.5q35 0 98.5 80.5t107.5 185.5q9 70 -29 70q-36 0 -76.5 -34.5t-71.5 -87.5q-53 -97 -53 -170z" />
    <glyph glyph-name="A" unicode="A" horiz-adv-x="698" 
d="M512 50l-70 197h-237l-65 -197l93 -15v-35h-218v35l73 15l226 656h57l234 -656l78 -15v-35h-258v35zM312 567l-90 -271h202l-96 271h-16z" />
    <glyph glyph-name="B" unicode="B" horiz-adv-x="613" 
d="M316 0h-289v35l90 15v606l-90 15v35h292q35 0 71 -8.5t73.5 -27t61 -54.5t23.5 -85q0 -46 -29.5 -88.5t-91.5 -58.5v-14q67 -14 108 -62.5t41 -119.5q0 -85 -71 -136.5t-189 -51.5zM474 197q0 63 -43 106.5t-121 43.5h-97v-297h117q69 0 106.5 41.5t37.5 105.5zM213 656
v-260h99q67 0 99.5 37t32.5 89q0 70 -38.5 102t-99.5 32h-93z" />
    <glyph glyph-name="C" unicode="C" horiz-adv-x="692" 
d="M385 38q84 0 144.5 43t86.5 121h26v-137q-65 -38 -124 -57.5t-144 -19.5q-146 0 -242.5 97t-96.5 267q0 164 105.5 265t257.5 101q109 0 236 -71v-141h-27q-29 86 -85.5 126.5t-123.5 40.5q-110 0 -183 -82t-73 -238q0 -149 73.5 -232t169.5 -83z" />
    <glyph glyph-name="D" unicode="D" horiz-adv-x="749" 
d="M315 0h-288v35l90 15v606l-90 15v35h298q180 0 284.5 -95t104.5 -261t-111 -258t-288 -92zM213 50h102q61 0 112 17t92 51.5t64.5 94t23.5 138.5q0 148 -77.5 226.5t-205.5 78.5h-111v-606z" />
    <glyph glyph-name="E" unicode="E" horiz-adv-x="617" 
d="M213 43h250l91 144h39l-36 -187h-530v35l90 15v606l-90 15v35h499l16 -157h-39l-71 114h-219v-267h147l32 92h35v-240h-35l-32 99h-147v-304z" />
    <glyph glyph-name="F" unicode="F" horiz-adv-x="606" 
d="M27 706h539l16 -157h-39l-73 114h-257v-267h177l32 107h35v-270h-35l-32 114h-177v-297l94 -15v-35h-280v35l90 15v606l-90 15v35z" />
    <glyph glyph-name="G" unicode="G" horiz-adv-x="739" 
d="M395 38q88 0 142 44v215l-119 15v40h294v-40l-79 -15v-252q-127 -57 -269 -57t-235.5 97t-93.5 267q0 164 105.5 265t257.5 101q109 0 234 -71v-141h-25q-29 86 -85.5 126.5t-123.5 40.5q-112 0 -184 -78.5t-72 -241.5q0 -160 71 -237.5t182 -77.5z" />
    <glyph glyph-name="H" unicode="H" horiz-adv-x="785" 
d="M482 706h276v-35l-90 -15v-606l90 -15v-35h-276v35l90 15v297h-359v-297l90 -15v-35h-276v35l90 15v606l-90 15v35h276v-35l-90 -15v-260h359v260l-90 15v35z" />
    <glyph glyph-name="I" unicode="I" horiz-adv-x="330" 
d="M27 706h276v-35l-90 -15v-606l90 -15v-35h-276v35l90 15v606l-90 15v35z" />
    <glyph glyph-name="J" unicode="J" horiz-adv-x="355" 
d="M135 -46v702l-108 15v35h301v-35l-97 -15v-609q0 -119 -76 -205.5t-161 -86.5q-38 0 -62.5 16t-24.5 47q0 24 15 37.5t39 13.5q20 0 48.5 -11t52.5 -11q73 0 73 107z" />
    <glyph glyph-name="K" unicode="K" horiz-adv-x="725" 
d="M231 326h-18v-276l89 -15v-35h-275v35l90 15v606l-90 15v35h275v-35l-89 -15v-276h21l276 276l-72 15v35h222v-35l-83 -15l-278 -276l328 -330l83 -15v-35h-285v35l73 15z" />
    <glyph glyph-name="L" unicode="L" horiz-adv-x="601" 
d="M553 0h-526v35l90 15v606l-90 15v35h280v-35l-94 -15v-613h236l101 154h39z" />
    <glyph glyph-name="M" unicode="M" horiz-adv-x="928" 
d="M696 554h-15l-225 -554h-38l-214 556h-12l-40 -506l86 -15l6 -30l-224 -5v35l85 15l48 598l-99 22v36h190l213 -552h17l224 552h191v-36l-101 -24l29 -596l91 -15v-35h-278v35l91 15z" />
    <glyph glyph-name="N" unicode="N" horiz-adv-x="783" 
d="M608 174h14v482l-90 15v35h224v-35l-89 -15v-658h-31l-469 574h-14v-522l90 -15v-35h-216v35l81 15v606l-81 15v35h146z" />
    <glyph glyph-name="O" unicode="O" horiz-adv-x="735" 
d="M35 352q0 164 96 265t237 101q147 0 239.5 -99t92.5 -267q0 -174 -94.5 -269t-237.5 -95t-238 97t-95 267zM142 353q0 -161 63.5 -239.5t162.5 -78.5q225 0 225 318q0 166 -61 243t-164 77q-99 0 -162.5 -78.5t-63.5 -241.5z" />
    <glyph glyph-name="P" unicode="P" horiz-adv-x="563" 
d="M275 310h-61v-260l99 -15v-35h-286v35l90 15v606l-90 15v35h253q46 0 88 -11.5t79 -34t59 -63t22 -92.5q0 -90 -67.5 -142.5t-185.5 -52.5zM214 654v-298h75q58 0 98.5 39.5t40.5 103.5q0 155 -148 155h-66z" />
    <glyph glyph-name="Q" unicode="Q" horiz-adv-x="735" 
d="M35 352q0 164 96 265t237 101q147 0 239.5 -99t92.5 -267q0 -139 -61.5 -228.5t-163.5 -120.5q19 -16 56.5 -52t59.5 -54.5t55 -35t64 -16.5q63 0 116 32l12 -25q-83 -59 -170 -59q-49 0 -99.5 23t-79.5 47t-76 68.5t-61 56.5q-137 6 -227 102.5t-90 261.5zM142 353
q0 -161 63.5 -239.5t162.5 -78.5q225 0 225 318q0 166 -61 243t-164 77q-99 0 -162.5 -78.5t-63.5 -241.5z" />
    <glyph glyph-name="R" unicode="R" horiz-adv-x="645" 
d="M354 345v-11q33 -17 67 -72t71 -119t72 -93l65 -15v-35h-143q-30 23 -63 74.5t-57.5 100.5t-59.5 94.5t-69 60.5h-24v-280l100 -15v-35h-286v35l90 15v606l-90 15v35h312q23 0 47.5 -4.5t52.5 -17.5t49.5 -32.5t35.5 -53.5t14 -77q0 -56 -45.5 -107.5t-138.5 -68.5z
M213 656v-281h74q73 0 110 44t37 99q0 138 -113 138h-108z" />
    <glyph glyph-name="S" unicode="S" horiz-adv-x="546" 
d="M43 7v212h39q21 -91 72.5 -138.5t124.5 -47.5q60 0 98 33.5t38 87.5q0 52 -32 92t-119 77q-110 47 -155.5 92.5t-45.5 118.5q0 69 59 126.5t153 57.5q65 0 142 -31l42 19h20l20 -205h-32q-26 83 -77 127t-110 44q-56 0 -92.5 -28.5t-36.5 -79.5q0 -93 166 -164
q96 -41 141 -86.5t45 -123.5q0 -96 -63 -149t-161 -53q-81 0 -147 39l-49 -20h-40z" />
    <glyph glyph-name="T" unicode="T" horiz-adv-x="712" 
d="M58 706h596l46 -192h-39l-101 149h-156v-613l94 -15v-35h-284v35l94 15v613h-156l-101 -149h-39z" />
    <glyph glyph-name="U" unicode="U" horiz-adv-x="772" 
d="M527 706h218v-35l-81 -15v-396q0 -45 -16 -90.5t-47.5 -87.5t-85.5 -68t-122 -26q-128 0 -202 74t-74 168v426l-90 15v35h276v-35l-90 -15v-411q0 -82 53 -136.5t147 -54.5q87 0 144 59t57 164v379l-87 15v35z" />
    <glyph glyph-name="V" unicode="V" horiz-adv-x="688" 
d="M372 154l172 502l-94 15v35h218v-35l-75 -15l-224 -656h-57l-214 656l-78 15v35h258v-35l-83 -15l161 -502h16z" />
    <glyph glyph-name="W" unicode="W" horiz-adv-x="956" 
d="M610 0l-133 472l-135 -472h-60l-184 656l-78 15v35h258v-35l-83 -15l131 -484h16l116 368l-32 116l-68 15v35h248v-35l-83 -15l131 -484h17l140 484l-93 15v35h218v-35l-72 -15l-194 -656h-60z" />
    <glyph glyph-name="X" unicode="X" horiz-adv-x="676" 
d="M109 50l188 285l-190 321l-87 15v35h293v-35l-103 -15l141 -239l158 239l-110 15v35h257v-35l-92 -15l-186 -284l191 -322l87 -15v-35h-293v35l103 15l-142 239l-157 -239l110 -15v-35h-257v35z" />
    <glyph glyph-name="Y" unicode="Y" horiz-adv-x="668" 
d="M362 384l161 272l-93 15v35h218v-35l-72 -15l-194 -328v-278l90 -15v-35h-276v35l90 15v276l-192 330l-74 15v35h258v-35l-85 -15l158 -272h11z" />
    <glyph glyph-name="Z" unicode="Z" horiz-adv-x="614" 
d="M556 0h-527l-12 25l435 623l-7 15h-287l-101 -154h-39l47 197h513l11 -19l-443 -631l6 -13h309l102 154h39z" />
    <glyph glyph-name="bracketleft" unicode="[" horiz-adv-x="335" 
d="M300 738v-45q-74 -15 -145 -5v-858q65 6 151 -6v-48q-38 6 -107.5 6.5t-118.5 -5.5v960q50 -5 119 -5t101 6z" />
    <glyph glyph-name="backslash" unicode="\" horiz-adv-x="460" 
d="M347 -122l-300 856h66l300 -856h-66z" />
    <glyph glyph-name="bracketright" unicode="]" horiz-adv-x="335" 
d="M35 693v45q32 -6 101.5 -6t118.5 5v-960q-49 6 -118.5 5.5t-107.5 -6.5v48q86 12 151 6v858q-71 -10 -145 5z" />
    <glyph glyph-name="asciicircum" unicode="^" horiz-adv-x="540" 
d="M284 691l221 -377l-58 -33l-172 300h-8l-175 -300l-57 33l222 377h27z" />
    <glyph glyph-name="underscore" unicode="_" horiz-adv-x="604" 
d="M-3 -192h610v-38h-610v38z" />
    <glyph glyph-name="grave" unicode="`" horiz-adv-x="500" 
d="M305 496v-8h-41l-129 162v10h84z" />
    <glyph glyph-name="a" unicode="a" horiz-adv-x="431" 
d="M262 138v100l-86 -39q-20 -8 -38 -28.5t-18 -46.5q0 -28 15 -48.5t36 -20.5q31 0 61 25t30 58zM319 -9q-26 0 -43 16.5t-19 46.5h-10q-63 -66 -115 -66q-36 0 -63.5 40.5t-27.5 77.5q0 78 79 111l141 61v42q0 95 -77 95q-17 0 -37.5 -9.5t-29.5 -22.5q0 -1 3 -23t3 -34
q0 -19 -13 -29t-31 -10q-16 0 -27.5 14t-11.5 35q0 36 28 60q108 75 157 75q53 0 81.5 -33t28.5 -87v-255q0 -43 26 -43q24 0 39 37l20 -8q-16 -48 -45 -69.5t-56 -21.5z" />
    <glyph glyph-name="b" unicode="b" horiz-adv-x="480" 
d="M151 367v-268q0 -34 23 -51.5t57 -17.5q63 0 98 53t35 147q0 83 -33.5 129.5t-83.5 46.5q-53 0 -96 -39zM70 89v553l-65 29v21l122 42h24v-313l8 -6q74 56 131 56q61 0 108.5 -56t47.5 -165q0 -130 -64.5 -196t-155.5 -66q-60 0 -103.5 28.5t-52.5 72.5z" />
    <glyph glyph-name="c" unicode="c" horiz-adv-x="441" 
d="M240 433q-46 0 -82.5 -53.5t-36.5 -135.5q0 -94 38.5 -137.5t101.5 -43.5q39 0 71.5 23t52.5 57l31 -15q-25 -64 -71.5 -102t-109.5 -38q-89 0 -145 69t-56 169q0 103 61.5 174t156.5 71q69 0 110 -29t41 -71t-48 -42q-21 0 -34 16.5t-18 35.5t-21 35.5t-42 16.5z" />
    <glyph glyph-name="d" unicode="d" horiz-adv-x="519" 
d="M355 95v284q-16 22 -43 36t-57 14q-50 0 -93.5 -47t-43.5 -141q0 -87 41 -139t90 -52q56 0 106 45zM436 734v-661l58 -28v-27l-93 -30h-24l-25 47h-9q-64 -47 -140 -47q-61 0 -115 59.5t-54 169.5q0 113 64.5 183.5t150.5 70.5q51 0 106 -16v187l-68 29v21l125 42h24z
" />
    <glyph glyph-name="e" unicode="e" horiz-adv-x="448" 
d="M397 277h-281q-1 -9 -1 -28q0 -90 41.5 -140t100.5 -50q82 0 133 82l28 -19q-69 -134 -185 -134q-88 0 -143.5 71t-55.5 166q0 104 55.5 175t140.5 71q78 0 128 -52.5t50 -109.5q0 -32 -11 -32zM229 430q-85 0 -108 -113h184q5 14 5 36q0 35 -22.5 56t-58.5 21z" />
    <glyph glyph-name="f" unicode="f" horiz-adv-x="304" 
d="M287 406h-121v-358l78 -18v-30h-219v30l60 15v361h-66v29l66 41v42q0 89 60.5 155t143.5 66q53 0 83 -22.5t30 -54.5q0 -20 -13.5 -32.5t-35.5 -12.5q-19 0 -33.5 11.5t-22 25.5t-21 25.5t-30.5 11.5q-37 0 -58.5 -52.5t-21.5 -114.5v-66h121v-52z" />
    <glyph glyph-name="g" unicode="g" horiz-adv-x="460" 
d="M97 -24v13q-49 44 -32 83l39 87v17q-66 45 -66 129q0 69 45 115.5t122 46.5q58 0 102 -30l138 8v-71l-92 6q17 -34 17 -69q0 -77 -45.5 -121t-126.5 -44q-28 0 -41 5q-10 -3 -17 -17.5t-7 -25.5q0 -45 46 -45h141q117 0 117 -102q0 -86 -83 -148.5t-199 -62.5
q-51 0 -82.5 29.5t-31.5 76.5q0 32 15.5 65t40.5 55zM377 -72q0 61 -94 61h-121q-54 -18 -54 -85q0 -91 114 -91q60 0 107.5 31.5t47.5 83.5zM291 310q0 48 -23.5 83.5t-64.5 35.5q-36 0 -58.5 -33t-22.5 -89q0 -62 22 -95t59 -33q41 0 64.5 34t23.5 97z" />
    <glyph glyph-name="h" unicode="h" horiz-adv-x="521" 
d="M496 0h-201v30l60 15v241q0 121 -93 121q-55 0 -96 -37v-325l60 -15v-30h-201v30l60 15v597l-65 29v21l122 42h24v-313l8 -6q74 56 131 56q56 0 93.5 -39t37.5 -114v-273l60 -15v-30z" />
    <glyph glyph-name="i" unicode="i" horiz-adv-x="255" 
d="M168 471v-426l60 -15v-30h-201v30l60 15v335l-65 28v21l122 42h24zM68 666q0 24 18 42t41 18q24 0 42 -18t18 -42q0 -23 -18 -41t-42 -18q-23 0 -41 18t-18 41z" />
    <glyph glyph-name="j" unicode="j" horiz-adv-x="245" 
d="M168 471v-458q0 -90 -40 -159.5t-116 -104.5l-16 29q91 77 91 219v383l-68 28v21l126 42h23zM68 666q0 24 18 42t41 18q24 0 42 -18t18 -42q0 -23 -18 -41t-42 -18q-23 0 -41 18t-18 41z" />
    <glyph glyph-name="k" unicode="k" horiz-adv-x="468" 
d="M328 407v9l-55 12v30h165v-30l-52 -15l-140 -147l169 -224l42 -12v-30h-192v30l49 14l-126 178h-22v-177l50 -15v-30h-191v30l60 15v597l-65 29v21l122 42h24v-473h17z" />
    <glyph glyph-name="l" unicode="l" horiz-adv-x="255" 
d="M168 734v-689l60 -15v-30h-201v30l60 15v597l-65 29v21l122 42h24z" />
    <glyph glyph-name="m" unicode="m" horiz-adv-x="789" 
d="M495 0h-201v30l60 15v246q0 63 -23 89.5t-69 26.5q-55 0 -96 -37v-325l60 -15v-30h-201v30l60 15v335l-65 28v21l119 42h24l6 -50l8 -6q75 56 128 56q81 0 113 -70q46 34 81.5 52t73.5 18q56 0 93.5 -39t37.5 -114v-273l60 -15v-30h-201v30l60 15v246q0 63 -23 89.5
t-69 26.5q-40 0 -99 -37q3 -39 3 -41v-284l60 -15v-30z" />
    <glyph glyph-name="n" unicode="n" horiz-adv-x="521" 
d="M496 0h-201v30l60 15v246q0 63 -23.5 89.5t-69.5 26.5q-55 0 -96 -37v-325l60 -15v-30h-201v30l60 15v335l-65 28v21l119 42h24l6 -50l8 -6q75 56 128 56q56 0 93.5 -39t37.5 -114v-273l60 -15v-30z" />
    <glyph glyph-name="o" unicode="o" horiz-adv-x="493" 
d="M34 229q0 109 61.5 175.5t151.5 66.5q91 0 151.5 -66t60.5 -176q0 -115 -60 -178t-152 -63q-91 0 -152 64.5t-61 176.5zM128 230q0 -102 33.5 -151t85.5 -49q119 0 119 200q0 104 -33.5 151.5t-85.5 47.5t-85.5 -48t-33.5 -151z" />
    <glyph glyph-name="p" unicode="p" horiz-adv-x="519" 
d="M267 -12q-60 0 -101 15v-198l84 -15v-30h-225v30l60 15v575l-65 28v21l119 42h24l6 -50l16 -6q68 56 125 56q61 0 118 -60.5t57 -170.5q0 -113 -66 -182.5t-152 -69.5zM166 359v-285q14 -21 40.5 -34t54.5 -13q50 0 95 47.5t45 141.5q0 87 -44 137t-95 50q-52 0 -96 -44z
" />
    <glyph glyph-name="q" unicode="q" horiz-adv-x="495" 
d="M351 86v277q-10 33 -38.5 51t-61.5 18q-49 0 -90 -48t-41 -143q0 -93 42.5 -142.5t105.5 -49.5q21 0 45.5 9.5t37.5 27.5zM351 24h-10q-64 -36 -124 -36q-70 0 -126.5 59t-56.5 170q0 113 64 183.5t149 70.5q45 0 98 -16q28 -11 52 16l35 -11v-655l58 -15v-30h-218v30
l79 15v219z" />
    <glyph glyph-name="r" unicode="r" horiz-adv-x="360" 
d="M255 403l-11 9q-19 -13 -43.5 -42.5t-34.5 -51.5v-273l79 -15v-30h-220v30l60 15v335l-65 28v21l120 42h23l7 -71l9 -4q34 39 60 57t54 18q26 0 43 -17t17 -46q0 -27 -13.5 -43.5t-37.5 -16.5q-21 0 -34 14.5t-13 40.5z" />
    <glyph glyph-name="s" unicode="s" horiz-adv-x="387" 
d="M47 0v150h33q27 -126 115 -126q32 0 53 22.5t21 51.5q0 32 -21 53.5t-85 49.5q-61 26 -88.5 59.5t-27.5 83.5q0 49 35.5 88t100.5 39q46 0 96 -20l25 12h22v-143h-29q-16 57 -47.5 85t-63.5 28t-54 -20t-22 -50q0 -29 23.5 -48t81.5 -46q65 -30 97.5 -62t32.5 -83
q0 -64 -44 -100t-108 -36q-46 0 -103 25l-15 -13h-28z" />
    <glyph glyph-name="t" unicode="t" horiz-adv-x="320" 
d="M83 406h-61v37l58 36l53 92h31v-113h131v-52h-131v-298q0 -66 54 -66q42 0 77 20l13 -26q-48 -48 -122 -48q-103 0 -103 123v295z" />
    <glyph glyph-name="u" unicode="u" horiz-adv-x="519" 
d="M20 447l146 18v-312q0 -56 22 -78.5t69 -22.5q61 0 98 37v314l-65 11v33l146 18v-408l58 -23v-21l-106 -25h-13l-14 39l-8 6q-71 -45 -139 -45q-56 0 -92.5 38.5t-36.5 114.5v262l-65 11v33z" />
    <glyph glyph-name="v" unicode="v" horiz-adv-x="477" 
d="M10 458h205v-30l-70 -15l110 -292h10l115 292l-72 15v30h159v-30l-48 -15l-167 -425h-27l-169 425l-46 15v30z" />
    <glyph glyph-name="w" unicode="w" horiz-adv-x="689" 
d="M349 272h-10l-99 -284h-26l-158 425l-46 15v30h195v-30l-60 -15l96 -268h10l76 208l-16 60l-52 15v30h190v-30l-60 -15l88 -268h10l91 268l-59 15v30h160v-30l-59 -15l-147 -425h-26z" />
    <glyph glyph-name="x" unicode="x" horiz-adv-x="461" 
d="M74 45l122 168l-123 200l-57 15v30h210v-30l-64 -15l82 -134l97 134l-60 15v30h164v-30l-58 -15l-122 -169l123 -199l57 -15v-30h-210v30l64 15l-82 133l-95 -133l58 -15v-30h-164v30z" />
    <glyph glyph-name="y" unicode="y" horiz-adv-x="465" 
d="M10 458h191v-30l-59 -15l103 -289h10l98 289l-73 15v30h175v-30l-62 -15l-168 -504q-28 -85 -64.5 -122t-92.5 -37q-32 0 -49 15t-17 37q0 17 13.5 29.5t32.5 12.5q14 0 34 -11.5t36 -11.5q56 0 95 166l-154 426l-49 15v30z" />
    <glyph glyph-name="z" unicode="z" horiz-adv-x="433" 
d="M380 0h-347l-12 35l270 370l-7 15l-82 -3q-57 -1 -90.5 -27t-53.5 -79l-36 9l47 138h323l11 -29l-278 -376l6 -13l114 4q53 2 83 31t55 86l29 -7z" />
    <glyph glyph-name="braceleft" unicode="{" horiz-adv-x="435" 
d="M127 283v-16q63 -9 107 -51.5t44 -104.5q0 -27 -22.5 -95t-22.5 -108q0 -94 151 -94v-42q-131 0 -179.5 35t-48.5 111q0 38 21.5 104t21.5 97q0 59 -43.5 90t-114.5 31v66q67 0 112.5 35t45.5 82q0 35 -20.5 93.5t-20.5 91.5q0 71 49.5 100.5t170.5 29.5v-42
q-145 0 -145 -79q0 -39 22.5 -101.5t22.5 -87.5q0 -53 -43.5 -92.5t-107.5 -52.5z" />
    <glyph glyph-name="bar" unicode="|" horiz-adv-x="540" 
d="M233 -230v980h74v-980h-74z" />
    <glyph glyph-name="braceright" unicode="}" horiz-adv-x="435" 
d="M308 267v16q-64 13 -107.5 52.5t-43.5 92.5q0 25 22.5 87.5t22.5 101.5q0 79 -145 79v42q121 0 170.5 -29.5t49.5 -100.5q0 -33 -20.5 -91.5t-20.5 -93.5q0 -47 45.5 -82t112.5 -35v-66q-71 0 -114.5 -31t-43.5 -90q0 -31 21.5 -97t21.5 -104q0 -76 -48.5 -111
t-179.5 -35v42q151 0 151 94q0 40 -22.5 108t-22.5 95q0 62 44 104.5t107 51.5z" />
    <glyph glyph-name="asciitilde" unicode="~" horiz-adv-x="540" 
d="M469 373l36 -14q-21 -62 -63.5 -109.5t-80.5 -47.5q-23 0 -105 39.5t-105 39.5q-15 0 -30 -13.5t-23.5 -27.5t-22.5 -42l-40 16q17 53 61 106t71 53q30 0 107.5 -40t106.5 -40q24 0 50.5 25t37.5 55z" />
    <glyph glyph-name="uni00A0" unicode="&#xa0;" horiz-adv-x="220" 
 />
    <glyph glyph-name="exclamdown" unicode="&#xa1;" horiz-adv-x="333" 
d="M228 416q0 -26 -18 -44t-43 -18t-43.5 18t-18.5 44q0 25 18 43t44 18q25 0 43 -17.5t18 -43.5zM217 -264h-110l38 524h34z" />
    <glyph glyph-name="cent" unicode="&#xa2;" horiz-adv-x="433" 
d="M242 626v-95q63 0 101 -26t38 -63q0 -38 -44 -38q-22 0 -34.5 13.5t-16 29.5t-14.5 31t-30 18v-332h8q35 0 66 21t49 50l27 -13q-20 -52 -59.5 -86t-90.5 -38v-98h-34v98q-72 8 -116 69.5t-44 144.5q0 81 44.5 142t115.5 74v98h34zM124 328q0 -129 84 -158v322
q-35 -14 -59.5 -58t-24.5 -106z" />
    <glyph glyph-name="sterling" unicode="&#xa3;" horiz-adv-x="548" 
d="M78 356h78q-28 73 -28 116q0 81 51 123.5t121 42.5q75 0 119 -35t44 -70q0 -20 -12 -31.5t-28 -11.5q-21 0 -35 17.5t-21.5 39t-24.5 39t-43 17.5q-34 0 -57.5 -28t-23.5 -84q0 -23 4.5 -43.5t15.5 -51t14 -40.5h140v-39h-130q5 -25 5 -49q0 -97 -49 -151l7 -11
q24 15 47 15q29 0 54.5 -22.5t49.5 -45t48 -22.5q16 0 25.5 10t9.5 28q0 13 -19 31t-19 37q0 14 9.5 24.5t25.5 10.5q24 0 38 -19t14 -54q0 -53 -35.5 -82t-83.5 -29q-63 0 -119 27.5t-82 59.5h-4q-47 -87 -97 -87q-27 0 -27 24q0 54 110 89q22 48 22 113q0 41 -22 103h-92
v39z" />
    <glyph glyph-name="currency" unicode="&#xa4;" horiz-adv-x="624" 
d="M91 272q0 69 40 127l-45 44q-11 11 -2 29.5t25 26t28 -0.5l46 -47q58 42 129 42t126 -39l43 45q10 11 29 0t29.5 -30.5t0.5 -29.5l-45 -43q38 -55 38 -124q0 -70 -42 -130l48 -46q11 -11 2 -29.5t-25 -26.5t-28 1l-50 50q-55 -40 -126 -40q-69 0 -124 36l-42 -44
q-11 -12 -31 -2.5t-29 27t1 30.5l44 43q-40 55 -40 131zM161 271q0 -70 42 -115.5t110 -45.5q63 0 105.5 46t42.5 115q0 71 -42.5 116.5t-106.5 45.5q-70 0 -110.5 -46t-40.5 -116z" />
    <glyph glyph-name="yen" unicode="&#xa5;" horiz-adv-x="554" 
d="M96 275h133l-153 301l-63 15v35h218v-35l-65 -15l128 -251h12l133 251l-76 15v35h178v-35l-55 -15l-161 -301h133v-38h-138v-52h138v-38h-138v-97l80 -15v-35h-246v35l80 15v97h-138v38h138v52h-138v38z" />
    <glyph glyph-name="brokenbar" unicode="&#xa6;" horiz-adv-x="540" 
d="M307 400h-74v350h74v-350zM233 120h74v-350h-74v350z" />
    <glyph glyph-name="section" unicode="&#xa7;" horiz-adv-x="555" 
d="M410 216q0 32 -23 64t-48 51.5t-79 56.5t-80 57q-39 -42 -39 -103q0 -30 24 -61t52.5 -51t77.5 -51t72 -49q43 44 43 86zM286 -120q40 0 65.5 20.5t25.5 56.5q0 38 -31 73.5t-75 64t-88.5 58.5t-75.5 70.5t-31 85.5q0 90 69 168q-50 46 -50 99q0 54 46 98t129 44
q96 0 169 -51v-141h-33q-39 150 -138 150q-42 0 -67.5 -22.5t-25.5 -54.5q0 -33 31.5 -66t76 -62t89 -59.5t76 -71.5t31.5 -85q0 -81 -76 -157q58 -50 58 -113q0 -72 -54.5 -109.5t-126.5 -37.5q-97 0 -179 51v141h33q42 -150 152 -150z" />
    <glyph glyph-name="dieresis" unicode="&#xa8;" horiz-adv-x="500" 
d="M385 569q0 -19 -15 -33.5t-34 -14.5q-20 0 -35 14.5t-15 33.5q0 20 15 35t35 15q18 0 33.5 -15t15.5 -35zM214 569q0 -20 -14 -34t-35 -14q-20 0 -35 14.5t-15 33.5q0 20 15 35t35 15q21 0 35 -14.5t14 -35.5z" />
    <glyph glyph-name="copyright" unicode="&#xa9;" horiz-adv-x="703" 
d="M44 296q0 126 90.5 216.5t217.5 90.5q131 0 219 -89.5t88 -217.5q0 -127 -90.5 -217.5t-216.5 -90.5q-129 0 -218.5 87t-89.5 221zM98 294q0 -113 71.5 -187t183.5 -74q113 0 182.5 74t69.5 187q0 116 -72 191t-181 75q-111 0 -182.5 -76t-71.5 -190zM360 163
q77 0 103 77h23v-74q-63 -39 -128 -39q-74 0 -124 45.5t-50 124.5q0 76 50 123t124 47q60 0 124 -35v-77h-25q-27 78 -99 78q-48 0 -77 -33.5t-29 -101.5q0 -64 32.5 -99.5t75.5 -35.5z" />
    <glyph glyph-name="ordfeminine" unicode="&#xaa;" horiz-adv-x="367" 
d="M210 374v77l-50 -25q-46 -29 -46 -63q0 -46 33 -46q22 0 42.5 17t20.5 40zM258 256q-43 0 -52 51h-7q-51 -53 -96 -53q-28 0 -46.5 32t-18.5 62q0 63 85 98l86 39v28q0 75 -46 75q-14 0 -30.5 -7t-24.5 -18q6 -18 6 -40q0 -31 -41 -31q-14 0 -24.5 11t-10.5 28
q0 31 24 48q83 59 119 59q47 0 72.5 -26t25.5 -69v-195q0 -13 5 -23t14 -10q17 0 28 27l21 -9q-13 -39 -38 -58t-51 -19z" />
    <glyph glyph-name="guillemotleft" unicode="&#xab;" horiz-adv-x="652" 
d="M103 240l182 219l28 -20l-113 -201v-15l113 -203l-28 -24l-182 221v23zM310 240l182 219l28 -20l-113 -201v-15l113 -203l-28 -24l-182 221v23z" />
    <glyph glyph-name="logicalnot" unicode="&#xac;" horiz-adv-x="540" 
d="M426 52v197h-388v64h457v-261h-69z" />
    <glyph glyph-name="registered" unicode="&#xae;" horiz-adv-x="508" 
d="M40 503q0 88 63 151t151 63q91 0 152.5 -62.5t61.5 -151.5q0 -88 -63 -151t-151 -63q-89 0 -151.5 61t-62.5 153zM79 502q0 -78 49.5 -129t126.5 -51q73 0 123.5 51.5t50.5 128.5q0 79 -50.5 130t-124.5 51q-80 0 -127.5 -51t-47.5 -130zM287 508v-8q14 -6 38 -39.5
t37 -42.5l15 -7v-20h-55q-14 10 -41.5 52t-47.5 50h-13v-75l37 -7v-20h-114v20l27 7v183l-27 7v20h116q29 0 57 -14t28 -48q0 -20 -15.5 -36.5t-41.5 -21.5zM220 601v-82h26q23 0 34.5 13.5t11.5 31.5q0 37 -40 37h-32z" />
    <glyph glyph-name="macron" unicode="&#xaf;" horiz-adv-x="500" 
d="M377 533h-254v53h254v-53z" />
    <glyph glyph-name="degree" unicode="&#xb0;" horiz-adv-x="367" 
d="M40 494q0 59 42 101.5t101 42.5t101.5 -42.5t42.5 -101.5t-42.5 -101t-101.5 -42t-101 42.5t-42 100.5zM96 494q0 -41 23.5 -68t62.5 -27q40 0 64 27t24 68t-24 69t-64 28q-39 0 -62.5 -27.5t-23.5 -69.5z" />
    <glyph glyph-name="plusminus" unicode="&#xb1;" horiz-adv-x="540" 
d="M472 270h-171v-150h-62v150h-171v62h171v150h62v-150h171v-62zM472 0h-404v62h404v-62z" />
    <glyph glyph-name="two.sups" unicode="&#xb2;" horiz-adv-x="287" 
d="M177 659q0 24 -14 40.5t-39 16.5q-36 0 -83 -55l-17 17q64 88 134 88q43 0 67 -22.5t24 -57.5q0 -42 -45.5 -103t-91.5 -101l3 -8h107l24 39l23 -7l-29 -91h-214l-6 18q53 42 105 109t52 117z" />
    <glyph glyph-name="three.sups" unicode="&#xb3;" horiz-adv-x="259" 
d="M222 704q0 -50 -68 -92v-5q34 -6 57.5 -33.5t23.5 -61.5q0 -47 -39.5 -75.5t-85.5 -28.5q-92 0 -92 49q0 11 7.5 19t20.5 8q17 0 33 -21t34 -21q20 0 38 18.5t18 48.5q0 34 -26.5 55.5t-40.5 14.5l-20 -11l-13 21q40 19 63.5 43t23.5 48q0 39 -40 39q-38 0 -71 -38
l-17 15q20 28 51.5 49t67.5 21q31 0 53 -16t22 -46z" />
    <glyph glyph-name="acute" unicode="&#xb4;" horiz-adv-x="500" 
d="M195 488v8l86 164h84v-10l-129 -162h-41z" />
    <glyph glyph-name="mu" unicode="&#xb5;" horiz-adv-x="540" 
d="M366 27l-8 6q-68 -45 -134 -45q-41 0 -71 27q1 -26 4 -64.5t4.5 -64t1.5 -38.5q0 -60 -46 -60q-40 0 -40 52q0 17 6 120.5t8 159.5q-1 7 -1 21v257l-63 11v38l154 18v-309q0 -56 21 -78.5t65 -22.5q58 0 93 37v306l-63 11v38l154 18v-364q0 -43 21 -43q20 0 34 34l28 -11
q-16 -47 -46 -68.5t-58 -21.5q-26 0 -37.5 7t-26.5 29z" />
    <glyph glyph-name="mu" unicode="&#x3bc;" horiz-adv-x="540" 
d="M366 27l-8 6q-68 -45 -134 -45q-41 0 -71 27q1 -26 4 -64.5t4.5 -64t1.5 -38.5q0 -60 -46 -60q-40 0 -40 52q0 17 6 120.5t8 159.5q-1 7 -1 21v257l-63 11v38l154 18v-309q0 -56 21 -78.5t65 -22.5q58 0 93 37v306l-63 11v38l154 18v-364q0 -43 21 -43q20 0 34 34l28 -11
q-16 -47 -46 -68.5t-58 -21.5q-26 0 -37.5 7t-26.5 29z" />
    <glyph glyph-name="paragraph" unicode="&#xb6;" horiz-adv-x="555" 
d="M541 706v-54q-33 0 -51.5 -24.5t-18.5 -60.5v-724h-61v809h-69v-809h-61v400q-134 0 -196 65t-62 167q0 99 66 165t175 66h278zM280 297v355q-56 0 -91 -50.5t-35 -129.5q0 -78 33.5 -126.5t92.5 -48.5z" />
    <glyph glyph-name="periodcentered" unicode="&#xb7;" horiz-adv-x="253" 
d="M65 261q0 26 18 44t43 18q26 0 44 -18.5t18 -43.5t-18 -43t-44 -18t-43.5 18t-17.5 43z" />
    <glyph glyph-name="cedilla" unicode="&#xb8;" horiz-adv-x="500" 
d="M202 -224l-8 25q40 6 64.5 22.5t24.5 39.5q0 21 -20 32.5t-53 11.5q-16 0 -30 -2l-5 7l58 108h45l-41 -73q47 0 76.5 -17.5t29.5 -51.5q0 -38 -41 -66t-100 -36z" />
    <glyph glyph-name="one.sups" unicode="&#xb9;" horiz-adv-x="233" 
d="M27 706v30q55 2 99 28l31 -3v-309l53 -8v-29h-171v29l55 8v257q-39 -10 -67 -3z" />
    <glyph glyph-name="ordmasculine" unicode="&#xba;" horiz-adv-x="386" 
d="M33 445q0 87 45.5 140t114.5 53q72 0 116 -51.5t44 -141.5q0 -93 -43.5 -142t-116.5 -49q-70 0 -115 50.5t-45 140.5zM115 447q0 -79 23 -116t55 -37q37 0 58 32.5t21 120.5q0 151 -79 151q-32 0 -55 -36t-23 -115z" />
    <glyph glyph-name="guillemotright" unicode="&#xbb;" horiz-adv-x="652" 
d="M367 459l182 -219v-23l-182 -221l-28 24l113 203v15l-113 201zM160 459l182 -219v-23l-182 -221l-28 24l113 203v15l-113 201z" />
    <glyph glyph-name="onequarter" unicode="&#xbc;" 
d="M111 -54l241 370l223 353l36 -24l-234 -349l-231 -375zM75 580v30q55 2 99 28l31 -3v-309l53 -8v-29h-171v29l55 8v257q-39 -10 -67 -3zM556 315l30 -9v-205h39v-41h-39v-100h-62v99h-132l-9 23zM524 209l-6 4l-79 -107l3 -5h82v108z" />
    <glyph glyph-name="onehalf" unicode="&#xbd;" 
d="M111 -54l241 370l223 353l36 -24l-234 -349l-231 -375zM75 580v30q55 2 99 28l31 -3v-309l53 -8v-29h-171v29l55 8v257q-39 -10 -67 -3zM574 204q0 24 -14 40.5t-39 16.5q-36 0 -83 -55l-17 17q64 88 134 88q43 0 67 -22.5t24 -57.5q0 -42 -45.5 -103t-91.5 -101l3 -8
h107l24 39l23 -7l-29 -91h-214l-6 18q53 42 105 109t52 117z" />
    <glyph glyph-name="threequarters" unicode="&#xbe;" 
d="M111 -54l241 370l223 353l36 -24l-234 -349l-231 -375zM265 578q0 -50 -68 -92v-5q34 -6 57.5 -33.5t23.5 -61.5q0 -47 -39.5 -75.5t-85.5 -28.5q-92 0 -92 49q0 11 7.5 19t20.5 8q17 0 33 -21t34 -21q20 0 38 18.5t18 48.5q0 34 -26.5 55.5t-40.5 14.5l-20 -11l-13 21
q40 19 63.5 43t23.5 48q0 39 -40 39q-38 0 -71 -38l-17 15q20 28 51.5 49t67.5 21q31 0 53 -16t22 -46zM556 315l30 -9v-205h39v-41h-39v-100h-62v99h-132l-9 23zM524 209l-6 4l-79 -107l3 -5h82v108z" />
    <glyph glyph-name="questiondown" unicode="&#xbf;" horiz-adv-x="403" 
d="M320 506q0 -26 -18 -44t-43 -18t-43.5 18t-18.5 44q0 25 18 43t44 18q25 0 43 -17.5t18 -43.5zM281 356v-206q-90 11 -136.5 -26t-46.5 -104q0 -49 30.5 -77t88.5 -28q93 0 93 -46q0 -23 -15 -37.5t-43 -14.5q-72 0 -136 67.5t-64 170.5q0 94 56.5 140t129.5 39v122h43z
" />
    <glyph glyph-name="Agrave" unicode="&#xc0;" horiz-adv-x="698" 
d="M512 50l-70 197h-237l-65 -197l93 -15v-35h-218v35l73 15l226 656h57l234 -656l78 -15v-35h-258v35zM312 567l-90 -271h202l-96 271h-16zM401 764v-8h-41l-129 127v10h84z" />
    <glyph glyph-name="Aacute" unicode="&#xc1;" horiz-adv-x="698" 
d="M512 50l-70 197h-237l-65 -197l93 -15v-35h-218v35l73 15l226 656h57l234 -656l78 -15v-35h-258v35zM312 567l-90 -271h202l-96 271h-16zM291 756v8l86 129h84v-10l-129 -127h-41z" />
    <glyph glyph-name="Acircumflex" unicode="&#xc2;" horiz-adv-x="698" 
d="M512 50l-70 197h-237l-65 -197l93 -15v-35h-218v35l73 15l226 656h57l234 -656l78 -15v-35h-258v35zM312 567l-90 -271h202l-96 271h-16zM491 764v-8h-41l-104 79l-104 -79h-41v8l121 129h48z" />
    <glyph glyph-name="Atilde" unicode="&#xc3;" horiz-adv-x="698" 
d="M512 50l-70 197h-237l-65 -197l93 -15v-35h-218v35l73 15l226 656h57l234 -656l78 -15v-35h-258v35zM312 567l-90 -271h202l-96 271h-16zM474 913l26 -10q-14 -48 -43 -84t-55 -36q-15 0 -63.5 30t-63.5 30q-16 0 -27.5 -16t-25.5 -47l-29 12q11 40 41 79t48 39
q19 0 65 -30.5t64 -30.5q17 0 36 21t27 43z" />
    <glyph glyph-name="Adieresis" unicode="&#xc4;" horiz-adv-x="698" 
d="M512 50l-70 197h-237l-65 -197l93 -15v-35h-218v35l73 15l226 656h57l234 -656l78 -15v-35h-258v35zM312 567l-90 -271h202l-96 271h-16zM481 837q0 -19 -15 -33.5t-34 -14.5q-20 0 -35 14.5t-15 33.5q0 20 15 35t35 15q18 0 33.5 -15t15.5 -35zM310 837q0 -20 -14 -34
t-35 -14q-20 0 -35 14.5t-15 33.5q0 20 15 35t35 15q21 0 35 -14.5t14 -35.5z" />
    <glyph glyph-name="Aring" unicode="&#xc5;" horiz-adv-x="698" 
d="M512 50l-70 197h-237l-65 -197l93 -15v-35h-218v35l73 15l226 656h57l234 -656l78 -15v-35h-258v35zM312 567l-90 -271h202l-96 271h-16zM252 840q0 39 27.5 66.5t66.5 27.5t66.5 -27.5t27.5 -66.5t-27.5 -66.5t-66.5 -27.5t-66.5 27.5t-27.5 66.5zM293 840q0 -24 14 -40
t38 -16t38.5 16t14.5 40q0 25 -14.5 41.5t-38.5 16.5q-23 0 -37.5 -16.5t-14.5 -41.5z" />
    <glyph glyph-name="AE" unicode="&#xc6;" horiz-adv-x="956" 
d="M552 43h250l91 144h39l-36 -187h-530v35l90 15v197h-199l-119 -197l95 -15v-35h-218v35l69 15l372 605v1l-90 15v35h499l16 -157h-39l-71 114h-219v-267h147l32 92h35v-240h-35l-32 99h-147v-304zM287 296h169v277z" />
    <glyph glyph-name="Ccedilla" unicode="&#xc7;" horiz-adv-x="692" 
d="M326 -224l-8 25q40 6 64.5 22.5t24.5 39.5q0 21 -20 32.5t-53 11.5q-16 0 -30 -2l-5 7l41 78q-134 11 -219.5 106.5t-85.5 255.5q0 164 105.5 265t257.5 101q109 0 236 -71v-141h-27q-29 86 -85.5 126.5t-123.5 40.5q-110 0 -183 -82t-73 -238q0 -149 73.5 -232
t169.5 -83q84 0 144.5 43t86.5 121h26v-137q-63 -37 -120 -56.5t-138 -20.5l-23 -41q47 0 76.5 -17.5t29.5 -51.5q0 -38 -41 -66t-100 -36z" />
    <glyph glyph-name="Egrave" unicode="&#xc8;" horiz-adv-x="617" 
d="M213 43h250l91 144h39l-36 -187h-530v35l90 15v606l-90 15v35h499l16 -157h-39l-71 114h-219v-267h147l32 92h35v-240h-35l-32 99h-147v-304zM363 764v-8h-41l-129 127v10h84z" />
    <glyph glyph-name="Eacute" unicode="&#xc9;" horiz-adv-x="617" 
d="M213 43h250l91 144h39l-36 -187h-530v35l90 15v606l-90 15v35h499l16 -157h-39l-71 114h-219v-267h147l32 92h35v-240h-35l-32 99h-147v-304zM253 756v8l86 129h84v-10l-129 -127h-41z" />
    <glyph glyph-name="Ecircumflex" unicode="&#xca;" horiz-adv-x="617" 
d="M213 43h250l91 144h39l-36 -187h-530v35l90 15v606l-90 15v35h499l16 -157h-39l-71 114h-219v-267h147l32 92h35v-240h-35l-32 99h-147v-304zM453 764v-8h-41l-104 79l-104 -79h-41v8l121 129h48z" />
    <glyph glyph-name="Edieresis" unicode="&#xcb;" horiz-adv-x="617" 
d="M213 43h250l91 144h39l-36 -187h-530v35l90 15v606l-90 15v35h499l16 -157h-39l-71 114h-219v-267h147l32 92h35v-240h-35l-32 99h-147v-304zM443 837q0 -19 -15 -33.5t-34 -14.5q-20 0 -35 14.5t-15 33.5q0 20 15 35t35 15q18 0 33.5 -15t15.5 -35zM272 837
q0 -20 -14 -34t-35 -14q-20 0 -35 14.5t-15 33.5q0 20 15 35t35 15q21 0 35 -14.5t14 -35.5z" />
    <glyph glyph-name="Igrave" unicode="&#xcc;" horiz-adv-x="330" 
d="M27 706h276v-35l-90 -15v-606l90 -15v-35h-276v35l90 15v606l-90 15v35zM220 764v-8h-41l-129 127v10h84z" />
    <glyph glyph-name="Iacute" unicode="&#xcd;" horiz-adv-x="330" 
d="M27 706h276v-35l-90 -15v-606l90 -15v-35h-276v35l90 15v606l-90 15v35zM110 756v8l86 129h84v-10l-129 -127h-41z" />
    <glyph glyph-name="Icircumflex" unicode="&#xce;" horiz-adv-x="330" 
d="M27 706h276v-35l-90 -15v-606l90 -15v-35h-276v35l90 15v606l-90 15v35zM310 764v-8h-41l-104 79l-104 -79h-41v8l121 129h48z" />
    <glyph glyph-name="Idieresis" unicode="&#xcf;" horiz-adv-x="330" 
d="M27 706h276v-35l-90 -15v-606l90 -15v-35h-276v35l90 15v606l-90 15v35zM300 837q0 -19 -15 -33.5t-34 -14.5q-20 0 -35 14.5t-15 33.5q0 20 15 35t35 15q18 0 33.5 -15t15.5 -35zM129 837q0 -20 -14 -34t-35 -14q-20 0 -35 14.5t-15 33.5q0 20 15 35t35 15
q21 0 35 -14.5t14 -35.5z" />
    <glyph glyph-name="Eth" unicode="&#xd0;" horiz-adv-x="749" 
d="M27 376h90v280l-90 15v35h298q180 0 284.5 -95t104.5 -261t-111 -258t-288 -92h-288v35l90 15v277h-90v49zM213 50h102q61 0 112 17t92 51.5t64.5 94t23.5 138.5q0 148 -77.5 226.5t-205.5 78.5h-111v-280h173v-49h-173v-277z" />
    <glyph glyph-name="Ntilde" unicode="&#xd1;" horiz-adv-x="783" 
d="M608 174h14v482l-90 15v35h224v-35l-89 -15v-658h-31l-469 574h-14v-522l90 -15v-35h-216v35l81 15v606l-81 15v35h146zM519 913l26 -10q-14 -48 -43 -84t-55 -36q-15 0 -63.5 30t-63.5 30q-16 0 -27.5 -16t-25.5 -47l-29 12q11 40 41 79t48 39q19 0 65 -30.5t64 -30.5
q17 0 36 21t27 43z" />
    <glyph glyph-name="Ograve" unicode="&#xd2;" horiz-adv-x="735" 
d="M35 352q0 164 96 265t237 101q147 0 239.5 -99t92.5 -267q0 -174 -94.5 -269t-237.5 -95t-238 97t-95 267zM142 353q0 -161 63.5 -239.5t162.5 -78.5q225 0 225 318q0 166 -61 243t-164 77q-99 0 -162.5 -78.5t-63.5 -241.5zM422 764v-8h-41l-129 127v10h84z" />
    <glyph glyph-name="Oacute" unicode="&#xd3;" horiz-adv-x="735" 
d="M35 352q0 164 96 265t237 101q147 0 239.5 -99t92.5 -267q0 -174 -94.5 -269t-237.5 -95t-238 97t-95 267zM142 353q0 -161 63.5 -239.5t162.5 -78.5q225 0 225 318q0 166 -61 243t-164 77q-99 0 -162.5 -78.5t-63.5 -241.5zM312 756v8l86 129h84v-10l-129 -127h-41z" />
    <glyph glyph-name="Ocircumflex" unicode="&#xd4;" horiz-adv-x="735" 
d="M35 352q0 164 96 265t237 101q147 0 239.5 -99t92.5 -267q0 -174 -94.5 -269t-237.5 -95t-238 97t-95 267zM142 353q0 -161 63.5 -239.5t162.5 -78.5q225 0 225 318q0 166 -61 243t-164 77q-99 0 -162.5 -78.5t-63.5 -241.5zM512 764v-8h-41l-104 79l-104 -79h-41v8
l121 129h48z" />
    <glyph glyph-name="Otilde" unicode="&#xd5;" horiz-adv-x="735" 
d="M35 352q0 164 96 265t237 101q147 0 239.5 -99t92.5 -267q0 -174 -94.5 -269t-237.5 -95t-238 97t-95 267zM142 353q0 -161 63.5 -239.5t162.5 -78.5q225 0 225 318q0 166 -61 243t-164 77q-99 0 -162.5 -78.5t-63.5 -241.5zM495 913l26 -10q-14 -48 -43 -84t-55 -36
q-15 0 -63.5 30t-63.5 30q-16 0 -27.5 -16t-25.5 -47l-29 12q11 40 41 79t48 39q19 0 65 -30.5t64 -30.5q17 0 36 21t27 43z" />
    <glyph glyph-name="Odieresis" unicode="&#xd6;" horiz-adv-x="735" 
d="M35 352q0 164 96 265t237 101q147 0 239.5 -99t92.5 -267q0 -174 -94.5 -269t-237.5 -95t-238 97t-95 267zM142 353q0 -161 63.5 -239.5t162.5 -78.5q225 0 225 318q0 166 -61 243t-164 77q-99 0 -162.5 -78.5t-63.5 -241.5zM502 837q0 -19 -15 -33.5t-34 -14.5
q-20 0 -35 14.5t-15 33.5q0 20 15 35t35 15q18 0 33.5 -15t15.5 -35zM331 837q0 -20 -14 -34t-35 -14q-20 0 -35 14.5t-15 33.5q0 20 15 35t35 15q21 0 35 -14.5t14 -35.5z" />
    <glyph glyph-name="multiply" unicode="&#xd7;" horiz-adv-x="540" 
d="M449 376l-135 -135l135 -135l-44 -44l-135 135l-135 -135l-44 44l135 135l-135 135l44 44l135 -135l135 135z" />
    <glyph glyph-name="Oslash" unicode="&#xd8;" horiz-adv-x="735" 
d="M677 740l-80 -111q103 -101 103 -277q0 -174 -94.5 -269t-237.5 -95q-113 0 -193 58l-65 -90h-65l90 124q-100 100 -100 272q0 164 96 265t237 101q109 0 188 -55l56 77h65zM593 353q0 131 -42 212l-336 -463q60 -67 153 -67q225 0 225 318zM142 353q0 -129 42 -205
l335 463q-58 62 -151 62q-99 0 -162.5 -78.5t-63.5 -241.5z" />
    <glyph glyph-name="Ugrave" unicode="&#xd9;" horiz-adv-x="772" 
d="M527 706h218v-35l-81 -15v-396q0 -45 -16 -90.5t-47.5 -87.5t-85.5 -68t-122 -26q-128 0 -202 74t-74 168v426l-90 15v35h276v-35l-90 -15v-411q0 -82 53 -136.5t147 -54.5q87 0 144 59t57 164v379l-87 15v35zM473 764v-8h-41l-129 127v10h84z" />
    <glyph glyph-name="Uacute" unicode="&#xda;" horiz-adv-x="772" 
d="M527 706h218v-35l-81 -15v-396q0 -45 -16 -90.5t-47.5 -87.5t-85.5 -68t-122 -26q-128 0 -202 74t-74 168v426l-90 15v35h276v-35l-90 -15v-411q0 -82 53 -136.5t147 -54.5q87 0 144 59t57 164v379l-87 15v35zM363 756v8l86 129h84v-10l-129 -127h-41z" />
    <glyph glyph-name="Ucircumflex" unicode="&#xdb;" horiz-adv-x="772" 
d="M527 706h218v-35l-81 -15v-396q0 -45 -16 -90.5t-47.5 -87.5t-85.5 -68t-122 -26q-128 0 -202 74t-74 168v426l-90 15v35h276v-35l-90 -15v-411q0 -82 53 -136.5t147 -54.5q87 0 144 59t57 164v379l-87 15v35zM563 764v-8h-41l-104 79l-104 -79h-41v8l121 129h48z" />
    <glyph glyph-name="Udieresis" unicode="&#xdc;" horiz-adv-x="772" 
d="M527 706h218v-35l-81 -15v-396q0 -45 -16 -90.5t-47.5 -87.5t-85.5 -68t-122 -26q-128 0 -202 74t-74 168v426l-90 15v35h276v-35l-90 -15v-411q0 -82 53 -136.5t147 -54.5q87 0 144 59t57 164v379l-87 15v35zM553 837q0 -19 -15 -33.5t-34 -14.5q-20 0 -35 14.5
t-15 33.5q0 20 15 35t35 15q18 0 33.5 -15t15.5 -35zM382 837q0 -20 -14 -34t-35 -14q-20 0 -35 14.5t-15 33.5q0 20 15 35t35 15q21 0 35 -14.5t14 -35.5z" />
    <glyph glyph-name="Yacute" unicode="&#xdd;" horiz-adv-x="668" 
d="M362 384l161 272l-93 15v35h218v-35l-72 -15l-194 -328v-278l90 -15v-35h-276v35l90 15v276l-192 330l-74 15v35h258v-35l-85 -15l158 -272h11zM302 756v8l86 129h84v-10l-129 -127h-41z" />
    <glyph glyph-name="Thorn" unicode="&#xde;" horiz-adv-x="563" 
d="M27 706h276v-35l-90 -15v-90h67q46 0 88 -11.5t79 -34t59 -63t22 -92.5q0 -91 -67.5 -144.5t-185.5 -53.5h-62v-117l90 -15v-35h-276v35l90 15v606l-90 15v35zM275 512h-62v-296h71q60 0 102 39.5t42 103.5q0 153 -153 153z" />
    <glyph glyph-name="germandbls" unicode="&#xdf;" horiz-adv-x="595" 
d="M473 586q0 -29 -22 -59t-48 -51.5t-48 -52t-22 -60.5q0 -28 27 -49t93 -54q47 -23 73.5 -54t26.5 -82q0 -64 -41 -100t-101 -36q-44 0 -113 25l-15 -13h-23v145h28q34 -121 125 -121q31 0 50 20t19 52q0 30 -24.5 57.5t-66.5 46.5q-70 32 -99.5 61.5t-29.5 77.5
q0 32 19 61.5t41.5 50.5t41.5 56.5t19 76.5q0 53 -29 80t-68 27q-55 0 -87.5 -48t-32.5 -118v-525h-141v30l60 15v361h-66v29l66 41v43q0 89 60 154.5t144 65.5q83 0 133.5 -46.5t50.5 -106.5z" />
    <glyph glyph-name="agrave" unicode="&#xe0;" horiz-adv-x="431" 
d="M262 138v100l-86 -39q-20 -8 -38 -28.5t-18 -46.5q0 -28 15 -48.5t36 -20.5q31 0 61 25t30 58zM319 -9q-26 0 -43 16.5t-19 46.5h-10q-63 -66 -115 -66q-36 0 -63.5 40.5t-27.5 77.5q0 78 79 111l141 61v42q0 95 -77 95q-17 0 -37.5 -9.5t-29.5 -22.5q0 -1 3 -23t3 -34
q0 -19 -13 -29t-31 -10q-16 0 -27.5 14t-11.5 35q0 36 28 60q108 75 157 75q53 0 81.5 -33t28.5 -87v-255q0 -43 26 -43q24 0 39 37l20 -8q-16 -48 -45 -69.5t-56 -21.5zM266 526v-8h-41l-129 162v10h84z" />
    <glyph glyph-name="aacute" unicode="&#xe1;" horiz-adv-x="431" 
d="M262 138v100l-86 -39q-20 -8 -38 -28.5t-18 -46.5q0 -28 15 -48.5t36 -20.5q31 0 61 25t30 58zM319 -9q-26 0 -43 16.5t-19 46.5h-10q-63 -66 -115 -66q-36 0 -63.5 40.5t-27.5 77.5q0 78 79 111l141 61v42q0 95 -77 95q-17 0 -37.5 -9.5t-29.5 -22.5q0 -1 3 -23t3 -34
q0 -19 -13 -29t-31 -10q-16 0 -27.5 14t-11.5 35q0 36 28 60q108 75 157 75q53 0 81.5 -33t28.5 -87v-255q0 -43 26 -43q24 0 39 37l20 -8q-16 -48 -45 -69.5t-56 -21.5zM156 518v8l86 164h84v-10l-129 -162h-41z" />
    <glyph glyph-name="acircumflex" unicode="&#xe2;" horiz-adv-x="431" 
d="M262 138v100l-86 -39q-20 -8 -38 -28.5t-18 -46.5q0 -28 15 -48.5t36 -20.5q31 0 61 25t30 58zM319 -9q-26 0 -43 16.5t-19 46.5h-10q-63 -66 -115 -66q-36 0 -63.5 40.5t-27.5 77.5q0 78 79 111l141 61v42q0 95 -77 95q-17 0 -37.5 -9.5t-29.5 -22.5q0 -1 3 -23t3 -34
q0 -19 -13 -29t-31 -10q-16 0 -27.5 14t-11.5 35q0 36 28 60q108 75 157 75q53 0 81.5 -33t28.5 -87v-255q0 -43 26 -43q24 0 39 37l20 -8q-16 -48 -45 -69.5t-56 -21.5zM351 526v-8h-36l-104 104l-104 -104h-36v8l116 164h48z" />
    <glyph glyph-name="atilde" unicode="&#xe3;" horiz-adv-x="431" 
d="M262 138v100l-86 -39q-20 -8 -38 -28.5t-18 -46.5q0 -28 15 -48.5t36 -20.5q31 0 61 25t30 58zM319 -9q-26 0 -43 16.5t-19 46.5h-10q-63 -66 -115 -66q-36 0 -63.5 40.5t-27.5 77.5q0 78 79 111l141 61v42q0 95 -77 95q-17 0 -37.5 -9.5t-29.5 -22.5q0 -1 3 -23t3 -34
q0 -19 -13 -29t-31 -10q-16 0 -27.5 14t-11.5 35q0 36 28 60q108 75 157 75q53 0 81.5 -33t28.5 -87v-255q0 -43 26 -43q24 0 39 37l20 -8q-16 -48 -45 -69.5t-56 -21.5zM339 675l26 -10q-14 -48 -43 -84t-55 -36q-15 0 -63.5 30t-63.5 30q-16 0 -27.5 -16t-25.5 -47l-29 12
q11 40 41 79t48 39q19 0 65 -30.5t64 -30.5q17 0 36 21t27 43z" />
    <glyph glyph-name="adieresis" unicode="&#xe4;" horiz-adv-x="431" 
d="M262 138v100l-86 -39q-20 -8 -38 -28.5t-18 -46.5q0 -28 15 -48.5t36 -20.5q31 0 61 25t30 58zM319 -9q-26 0 -43 16.5t-19 46.5h-10q-63 -66 -115 -66q-36 0 -63.5 40.5t-27.5 77.5q0 78 79 111l141 61v42q0 95 -77 95q-17 0 -37.5 -9.5t-29.5 -22.5q0 -1 3 -23t3 -34
q0 -19 -13 -29t-31 -10q-16 0 -27.5 14t-11.5 35q0 36 28 60q108 75 157 75q53 0 81.5 -33t28.5 -87v-255q0 -43 26 -43q24 0 39 37l20 -8q-16 -48 -45 -69.5t-56 -21.5zM346 599q0 -19 -15 -33.5t-34 -14.5q-20 0 -35 14.5t-15 33.5q0 20 15 35t35 15q18 0 33.5 -15
t15.5 -35zM175 599q0 -20 -14 -34t-35 -14q-20 0 -35 14.5t-15 33.5q0 20 15 35t35 15q21 0 35 -14.5t14 -35.5z" />
    <glyph glyph-name="aring" unicode="&#xe5;" horiz-adv-x="431" 
d="M262 138v100l-86 -39q-20 -8 -38 -28.5t-18 -46.5q0 -28 15 -48.5t36 -20.5q31 0 61 25t30 58zM319 -9q-26 0 -43 16.5t-19 46.5h-10q-63 -66 -115 -66q-36 0 -63.5 40.5t-27.5 77.5q0 78 79 111l141 61v42q0 95 -77 95q-17 0 -37.5 -9.5t-29.5 -22.5q0 -1 3 -23t3 -34
q0 -19 -13 -29t-31 -10q-16 0 -27.5 14t-11.5 35q0 36 28 60q108 75 157 75q53 0 81.5 -33t28.5 -87v-255q0 -43 26 -43q24 0 39 37l20 -8q-16 -48 -45 -69.5t-56 -21.5zM117 602q0 39 27.5 66.5t66.5 27.5t66.5 -27.5t27.5 -66.5t-27.5 -66.5t-66.5 -27.5t-66.5 27.5
t-27.5 66.5zM158 602q0 -24 14 -40t38 -16t38.5 16t14.5 40q0 25 -14.5 41.5t-38.5 16.5q-23 0 -37.5 -16.5t-14.5 -41.5z" />
    <glyph glyph-name="ae" unicode="&#xe6;" horiz-adv-x="666" 
d="M616 277h-281q-2 -15 -2 -37q3 -85 45 -133t102 -48q76 0 128 83l28 -20q-31 -58 -73.5 -96t-111.5 -38q-98 0 -158 84q-99 -84 -166 -84q-34 0 -60 40.5t-26 77.5q0 34 20.5 63.5t58.5 47.5l141 58v45q0 95 -77 95q-17 0 -36 -9.5t-28 -22.5q0 -1 3 -23t3 -34
q0 -18 -14 -28.5t-33 -10.5q-16 0 -27.5 14t-11.5 35q0 36 28 60q108 75 157 75q67 0 98 -51q53 51 125 51q80 0 129.5 -52.5t49.5 -109.5q0 -32 -11 -32zM262 133v103l-81 -35q-22 -9 -41.5 -30t-19.5 -47q0 -30 14 -49.5t42 -19.5q29 0 57.5 23.5t28.5 54.5zM341 320h183
q5 11 5 33q0 35 -24 56t-58 21q-42 0 -69 -30t-37 -80z" />
    <glyph glyph-name="ccedilla" unicode="&#xe7;" horiz-adv-x="441" 
d="M188 -224l-8 25q40 6 64.5 22.5t24.5 39.5q0 21 -20 32.5t-53 11.5q-16 0 -30 -2l-5 7l42 79q-77 12 -123 78.5t-46 156.5q0 103 61.5 174t156.5 71q69 0 110 -29t41 -71t-48 -42q-21 0 -34 16.5t-18 35.5t-21 35.5t-42 16.5q-46 0 -82.5 -53.5t-36.5 -135.5
q0 -94 38.5 -137.5t101.5 -43.5q39 0 71.5 23t52.5 57l31 -15q-24 -61 -67.5 -98.5t-102.5 -40.5l-23 -42q47 0 76.5 -17.5t29.5 -51.5q0 -38 -41 -66t-100 -36z" />
    <glyph glyph-name="egrave" unicode="&#xe8;" horiz-adv-x="448" 
d="M397 277h-281q-1 -9 -1 -28q0 -90 41.5 -140t100.5 -50q82 0 133 82l28 -19q-69 -134 -185 -134q-88 0 -143.5 71t-55.5 166q0 104 55.5 175t140.5 71q78 0 128 -52.5t50 -109.5q0 -32 -11 -32zM229 430q-85 0 -108 -113h184q5 14 5 36q0 35 -22.5 56t-58.5 21zM281 526
v-8h-41l-129 162v10h84z" />
    <glyph glyph-name="eacute" unicode="&#xe9;" horiz-adv-x="448" 
d="M397 277h-281q-1 -9 -1 -28q0 -90 41.5 -140t100.5 -50q82 0 133 82l28 -19q-69 -134 -185 -134q-88 0 -143.5 71t-55.5 166q0 104 55.5 175t140.5 71q78 0 128 -52.5t50 -109.5q0 -32 -11 -32zM229 430q-85 0 -108 -113h184q5 14 5 36q0 35 -22.5 56t-58.5 21zM171 518
v8l86 164h84v-10l-129 -162h-41z" />
    <glyph glyph-name="ecircumflex" unicode="&#xea;" horiz-adv-x="448" 
d="M397 277h-281q-1 -9 -1 -28q0 -90 41.5 -140t100.5 -50q82 0 133 82l28 -19q-69 -134 -185 -134q-88 0 -143.5 71t-55.5 166q0 104 55.5 175t140.5 71q78 0 128 -52.5t50 -109.5q0 -32 -11 -32zM229 430q-85 0 -108 -113h184q5 14 5 36q0 35 -22.5 56t-58.5 21zM366 526
v-8h-36l-104 104l-104 -104h-36v8l116 164h48z" />
    <glyph glyph-name="edieresis" unicode="&#xeb;" horiz-adv-x="448" 
d="M397 277h-281q-1 -9 -1 -28q0 -90 41.5 -140t100.5 -50q82 0 133 82l28 -19q-69 -134 -185 -134q-88 0 -143.5 71t-55.5 166q0 104 55.5 175t140.5 71q78 0 128 -52.5t50 -109.5q0 -32 -11 -32zM229 430q-85 0 -108 -113h184q5 14 5 36q0 35 -22.5 56t-58.5 21zM361 599
q0 -19 -15 -33.5t-34 -14.5q-20 0 -35 14.5t-15 33.5q0 20 15 35t35 15q18 0 33.5 -15t15.5 -35zM190 599q0 -20 -14 -34t-35 -14q-20 0 -35 14.5t-15 33.5q0 20 15 35t35 15q21 0 35 -14.5t14 -35.5z" />
    <glyph glyph-name="igrave" unicode="&#xec;" horiz-adv-x="255" 
d="M168 471v-426l60 -15v-30h-201v30l60 15v335l-65 28v21l122 42h24zM180 526v-8h-41l-129 162v10h84z" />
    <glyph glyph-name="iacute" unicode="&#xed;" horiz-adv-x="255" 
d="M168 471v-426l60 -15v-30h-201v30l60 15v335l-65 28v21l122 42h24zM70 518v8l86 164h84v-10l-129 -162h-41z" />
    <glyph glyph-name="icircumflex" unicode="&#xee;" horiz-adv-x="255" 
d="M168 471v-426l60 -15v-30h-201v30l60 15v335l-65 28v21l122 42h24zM265 526v-8h-36l-104 104l-104 -104h-36v8l116 164h48z" />
    <glyph glyph-name="idieresis" unicode="&#xef;" horiz-adv-x="255" 
d="M168 471v-426l60 -15v-30h-201v30l60 15v335l-65 28v21l122 42h24zM260 599q0 -19 -15 -33.5t-34 -14.5q-20 0 -35 14.5t-15 33.5q0 20 15 35t35 15q18 0 33.5 -15t15.5 -35zM89 599q0 -20 -14 -34t-35 -14q-20 0 -35 14.5t-15 33.5q0 20 15 35t35 15q21 0 35 -14.5
t14 -35.5z" />
    <glyph glyph-name="eth" unicode="&#xf0;" horiz-adv-x="493" 
d="M128 554l100 66q-57 61 -107 88l13 27q74 -28 142 -83l94 63l23 -35l-85 -57q72 -71 111.5 -164t39.5 -191q0 -138 -60 -209t-158 -71q-35 0 -69.5 13t-66.5 39.5t-51.5 75t-19.5 111.5q0 111 63.5 177.5t135.5 66.5q63 0 105 -38l8 5q-29 75 -90 151l-105 -70zM356 346
q-40 83 -110 83q-52 0 -86 -53t-34 -145q0 -87 34 -144t87 -57q119 0 119 215q0 39 -10 101z" />
    <glyph glyph-name="ntilde" unicode="&#xf1;" horiz-adv-x="521" 
d="M496 0h-201v30l60 15v246q0 63 -23.5 89.5t-69.5 26.5q-55 0 -96 -37v-325l60 -15v-30h-201v30l60 15v335l-65 28v21l119 42h24l6 -50l8 -6q75 56 128 56q56 0 93.5 -39t37.5 -114v-273l60 -15v-30zM389 675l26 -10q-14 -48 -43 -84t-55 -36q-15 0 -63.5 30t-63.5 30
q-16 0 -27.5 -16t-25.5 -47l-29 12q11 40 41 79t48 39q19 0 65 -30.5t64 -30.5q17 0 36 21t27 43z" />
    <glyph glyph-name="ograve" unicode="&#xf2;" horiz-adv-x="493" 
d="M34 229q0 109 61.5 175.5t151.5 66.5q91 0 151.5 -66t60.5 -176q0 -115 -60 -178t-152 -63q-91 0 -152 64.5t-61 176.5zM128 230q0 -102 33.5 -151t85.5 -49q119 0 119 200q0 104 -33.5 151.5t-85.5 47.5t-85.5 -48t-33.5 -151zM301 526v-8h-41l-129 162v10h84z" />
    <glyph glyph-name="oacute" unicode="&#xf3;" horiz-adv-x="493" 
d="M34 229q0 109 61.5 175.5t151.5 66.5q91 0 151.5 -66t60.5 -176q0 -115 -60 -178t-152 -63q-91 0 -152 64.5t-61 176.5zM128 230q0 -102 33.5 -151t85.5 -49q119 0 119 200q0 104 -33.5 151.5t-85.5 47.5t-85.5 -48t-33.5 -151zM191 518v8l86 164h84v-10l-129 -162h-41z
" />
    <glyph glyph-name="ocircumflex" unicode="&#xf4;" horiz-adv-x="493" 
d="M34 229q0 109 61.5 175.5t151.5 66.5q91 0 151.5 -66t60.5 -176q0 -115 -60 -178t-152 -63q-91 0 -152 64.5t-61 176.5zM128 230q0 -102 33.5 -151t85.5 -49q119 0 119 200q0 104 -33.5 151.5t-85.5 47.5t-85.5 -48t-33.5 -151zM386 526v-8h-36l-104 104l-104 -104h-36v8
l116 164h48z" />
    <glyph glyph-name="otilde" unicode="&#xf5;" horiz-adv-x="493" 
d="M34 229q0 109 61.5 175.5t151.5 66.5q91 0 151.5 -66t60.5 -176q0 -115 -60 -178t-152 -63q-91 0 -152 64.5t-61 176.5zM128 230q0 -102 33.5 -151t85.5 -49q119 0 119 200q0 104 -33.5 151.5t-85.5 47.5t-85.5 -48t-33.5 -151zM374 675l26 -10q-14 -48 -43 -84t-55 -36
q-15 0 -63.5 30t-63.5 30q-16 0 -27.5 -16t-25.5 -47l-29 12q11 40 41 79t48 39q19 0 65 -30.5t64 -30.5q17 0 36 21t27 43z" />
    <glyph glyph-name="odieresis" unicode="&#xf6;" horiz-adv-x="493" 
d="M34 229q0 109 61.5 175.5t151.5 66.5q91 0 151.5 -66t60.5 -176q0 -115 -60 -178t-152 -63q-91 0 -152 64.5t-61 176.5zM128 230q0 -102 33.5 -151t85.5 -49q119 0 119 200q0 104 -33.5 151.5t-85.5 47.5t-85.5 -48t-33.5 -151zM381 599q0 -19 -15 -33.5t-34 -14.5
q-20 0 -35 14.5t-15 33.5q0 20 15 35t35 15q18 0 33.5 -15t15.5 -35zM210 599q0 -20 -14 -34t-35 -14q-20 0 -35 14.5t-15 33.5q0 20 15 35t35 15q21 0 35 -14.5t14 -35.5z" />
    <glyph glyph-name="divide" unicode="&#xf7;" horiz-adv-x="540" 
d="M217 88q0 22 14.5 37t36.5 15t37 -15t15 -37t-15 -36.5t-37 -14.5t-36.5 14.5t-14.5 36.5zM472 210h-404v62h404v-62zM217 393q0 22 14.5 37t36.5 15t37 -15t15 -37t-15 -36.5t-37 -14.5t-36.5 14.5t-14.5 36.5z" />
    <glyph glyph-name="oslash" unicode="&#xf8;" horiz-adv-x="493" 
d="M34 229q0 109 61.5 175.5t151.5 66.5q68 0 122 -40l49 68h55l-71 -98q57 -68 57 -172q0 -115 -60 -178t-152 -63q-67 0 -119 35l-51 -70h-55l72 100q-60 66 -60 176zM128 230q0 -66 15 -110l189 261q-31 48 -85 48q-52 0 -85.5 -48t-33.5 -151zM366 230q0 58 -13 104
l-188 -260q32 -44 82 -44q119 0 119 200z" />
    <glyph glyph-name="ugrave" unicode="&#xf9;" horiz-adv-x="519" 
d="M20 447l146 18v-312q0 -56 22 -78.5t69 -22.5q61 0 98 37v314l-65 11v33l146 18v-408l58 -23v-21l-106 -25h-13l-14 39l-8 6q-71 -45 -139 -45q-56 0 -92.5 38.5t-36.5 114.5v262l-65 11v33zM312 526v-8h-41l-129 162v10h84z" />
    <glyph glyph-name="uacute" unicode="&#xfa;" horiz-adv-x="519" 
d="M20 447l146 18v-312q0 -56 22 -78.5t69 -22.5q61 0 98 37v314l-65 11v33l146 18v-408l58 -23v-21l-106 -25h-13l-14 39l-8 6q-71 -45 -139 -45q-56 0 -92.5 38.5t-36.5 114.5v262l-65 11v33zM202 518v8l86 164h84v-10l-129 -162h-41z" />
    <glyph glyph-name="ucircumflex" unicode="&#xfb;" horiz-adv-x="519" 
d="M20 447l146 18v-312q0 -56 22 -78.5t69 -22.5q61 0 98 37v314l-65 11v33l146 18v-408l58 -23v-21l-106 -25h-13l-14 39l-8 6q-71 -45 -139 -45q-56 0 -92.5 38.5t-36.5 114.5v262l-65 11v33zM397 526v-8h-36l-104 104l-104 -104h-36v8l116 164h48z" />
    <glyph glyph-name="udieresis" unicode="&#xfc;" horiz-adv-x="519" 
d="M20 447l146 18v-312q0 -56 22 -78.5t69 -22.5q61 0 98 37v314l-65 11v33l146 18v-408l58 -23v-21l-106 -25h-13l-14 39l-8 6q-71 -45 -139 -45q-56 0 -92.5 38.5t-36.5 114.5v262l-65 11v33zM392 599q0 -19 -15 -33.5t-34 -14.5q-20 0 -35 14.5t-15 33.5q0 20 15 35
t35 15q18 0 33.5 -15t15.5 -35zM221 599q0 -20 -14 -34t-35 -14q-20 0 -35 14.5t-15 33.5q0 20 15 35t35 15q21 0 35 -14.5t14 -35.5z" />
    <glyph glyph-name="yacute" unicode="&#xfd;" horiz-adv-x="465" 
d="M10 458h191v-30l-59 -15l103 -289h10l98 289l-73 15v30h175v-30l-62 -15l-168 -504q-28 -85 -64.5 -122t-92.5 -37q-32 0 -49 15t-17 37q0 17 13.5 29.5t32.5 12.5q14 0 34 -11.5t36 -11.5q56 0 95 166l-154 426l-49 15v30zM189 518v8l86 164h84v-10l-129 -162h-41z" />
    <glyph glyph-name="thorn" unicode="&#xfe;" horiz-adv-x="519" 
d="M267 -12q-60 0 -101 15v-198l84 -15v-30h-225v30l60 15v838l-65 28v21l119 42h27v-313l11 -6q71 56 133 56q61 0 118 -60.5t57 -170.5q0 -113 -66 -182.5t-152 -69.5zM166 364v-290q14 -21 40.5 -34t54.5 -13q50 0 95 47.5t45 141.5q0 87 -44 137t-95 50q-53 0 -96 -39z
" />
    <glyph glyph-name="ydieresis" unicode="&#xff;" horiz-adv-x="465" 
d="M10 458h191v-30l-59 -15l103 -289h10l98 289l-73 15v30h175v-30l-62 -15l-168 -504q-28 -85 -64.5 -122t-92.5 -37q-32 0 -49 15t-17 37q0 17 13.5 29.5t32.5 12.5q14 0 34 -11.5t36 -11.5q56 0 95 166l-154 426l-49 15v30zM379 599q0 -19 -15 -33.5t-34 -14.5
q-20 0 -35 14.5t-15 33.5q0 20 15 35t35 15q18 0 33.5 -15t15.5 -35zM208 599q0 -20 -14 -34t-35 -14q-20 0 -35 14.5t-15 33.5q0 20 15 35t35 15q21 0 35 -14.5t14 -35.5z" />
    <glyph glyph-name="Amacron" unicode="&#x100;" horiz-adv-x="698" 
d="M512 50l-70 197h-237l-65 -197l93 -15v-35h-218v35l73 15l226 656h57l234 -656l78 -15v-35h-258v35zM312 567l-90 -271h202l-96 271h-16zM473 801h-254v53h254v-53z" />
    <glyph glyph-name="amacron" unicode="&#x101;" horiz-adv-x="431" 
d="M262 138v100l-86 -39q-20 -8 -38 -28.5t-18 -46.5q0 -28 15 -48.5t36 -20.5q31 0 61 25t30 58zM319 -9q-26 0 -43 16.5t-19 46.5h-10q-63 -66 -115 -66q-36 0 -63.5 40.5t-27.5 77.5q0 78 79 111l141 61v42q0 95 -77 95q-17 0 -37.5 -9.5t-29.5 -22.5q0 -1 3 -23t3 -34
q0 -19 -13 -29t-31 -10q-16 0 -27.5 14t-11.5 35q0 36 28 60q108 75 157 75q53 0 81.5 -33t28.5 -87v-255q0 -43 26 -43q24 0 39 37l20 -8q-16 -48 -45 -69.5t-56 -21.5zM338 563h-254v53h254v-53z" />
    <glyph glyph-name="Abreve" unicode="&#x102;" horiz-adv-x="698" 
d="M512 50l-70 197h-237l-65 -197l93 -15v-35h-218v35l73 15l226 656h57l234 -656l78 -15v-35h-258v35zM312 567l-90 -271h202l-96 271h-16zM346 756q-50 0 -85 33.5t-35 98.5h40q0 -32 22.5 -54t57.5 -22q32 0 56 21.5t24 54.5h40q0 -65 -35 -98.5t-85 -33.5z" />
    <glyph glyph-name="abreve" unicode="&#x103;" horiz-adv-x="431" 
d="M262 138v100l-86 -39q-20 -8 -38 -28.5t-18 -46.5q0 -28 15 -48.5t36 -20.5q31 0 61 25t30 58zM319 -9q-26 0 -43 16.5t-19 46.5h-10q-63 -66 -115 -66q-36 0 -63.5 40.5t-27.5 77.5q0 78 79 111l141 61v42q0 95 -77 95q-17 0 -37.5 -9.5t-29.5 -22.5q0 -1 3 -23t3 -34
q0 -19 -13 -29t-31 -10q-16 0 -27.5 14t-11.5 35q0 36 28 60q108 75 157 75q53 0 81.5 -33t28.5 -87v-255q0 -43 26 -43q24 0 39 37l20 -8q-16 -48 -45 -69.5t-56 -21.5zM211 521q-50 0 -85 38.5t-35 110.5h40q0 -36 23 -64.5t57 -28.5q32 0 56 27.5t24 65.5h40
q0 -72 -35 -110.5t-85 -38.5z" />
    <glyph glyph-name="Aogonek" unicode="&#x104;" horiz-adv-x="698" 
d="M683 0h-175q-39 -16 -67.5 -51t-28.5 -80q0 -28 15.5 -45t38.5 -17q18 0 38 6l6 -26q-28 -11 -68 -11q-46 0 -75 21t-29 58q0 106 178 184l-74 208h-237l-65 -197l93 -15v-35h-218v35l73 15l226 656h57l234 -656l78 -15v-35zM312 567l-90 -271h202l-96 271h-16z" />
    <glyph glyph-name="aogonek" unicode="&#x105;" horiz-adv-x="431" 
d="M400 90l20 -8q-8 -28 -31.5 -57.5t-47 -49.5t-42 -48.5t-18.5 -57.5q0 -28 15.5 -45t38.5 -17q18 0 38 6l6 -26q-27 -11 -68 -11q-46 0 -75 21t-29 58q0 70 98 134v5q-19 5 -33 20.5t-15 39.5h-10q-63 -66 -115 -66q-36 0 -63.5 40.5t-27.5 77.5q0 78 79 111l141 61v42
q0 95 -77 95q-17 0 -37.5 -9.5t-29.5 -22.5q0 -1 3 -23t3 -34q0 -19 -13 -29t-31 -10q-16 0 -27.5 14t-11.5 35q0 36 28 60q108 75 157 75q53 0 81.5 -33t28.5 -87v-255q0 -43 26 -43q24 0 39 37zM262 138v100l-86 -39q-20 -8 -38 -28.5t-18 -46.5q0 -28 15 -48.5t36 -20.5
q31 0 61 25t30 58z" />
    <glyph glyph-name="Cacute" unicode="&#x106;" horiz-adv-x="692" 
d="M385 38q84 0 144.5 43t86.5 121h26v-137q-65 -38 -124 -57.5t-144 -19.5q-146 0 -242.5 97t-96.5 267q0 164 105.5 265t257.5 101q109 0 236 -71v-141h-27q-29 86 -85.5 126.5t-123.5 40.5q-110 0 -183 -82t-73 -238q0 -149 73.5 -232t169.5 -83zM332 756v8l86 129h84
v-10l-129 -127h-41z" />
    <glyph glyph-name="cacute" unicode="&#x107;" horiz-adv-x="441" 
d="M240 433q-46 0 -82.5 -53.5t-36.5 -135.5q0 -94 38.5 -137.5t101.5 -43.5q39 0 71.5 23t52.5 57l31 -15q-25 -64 -71.5 -102t-109.5 -38q-89 0 -145 69t-56 169q0 103 61.5 174t156.5 71q69 0 110 -29t41 -71t-48 -42q-21 0 -34 16.5t-18 35.5t-21 35.5t-42 16.5z
M192 518v8l86 164h84v-10l-129 -162h-41z" />
    <glyph glyph-name="Ccircumflex" unicode="&#x108;" horiz-adv-x="692" 
d="M385 38q84 0 144.5 43t86.5 121h26v-137q-65 -38 -124 -57.5t-144 -19.5q-146 0 -242.5 97t-96.5 267q0 164 105.5 265t257.5 101q109 0 236 -71v-141h-27q-29 86 -85.5 126.5t-123.5 40.5q-110 0 -183 -82t-73 -238q0 -149 73.5 -232t169.5 -83zM532 764v-8h-41l-104 79
l-104 -79h-41v8l121 129h48z" />
    <glyph glyph-name="ccircumflex" unicode="&#x109;" horiz-adv-x="441" 
d="M240 433q-46 0 -82.5 -53.5t-36.5 -135.5q0 -94 38.5 -137.5t101.5 -43.5q39 0 71.5 23t52.5 57l31 -15q-25 -64 -71.5 -102t-109.5 -38q-89 0 -145 69t-56 169q0 103 61.5 174t156.5 71q69 0 110 -29t41 -71t-48 -42q-21 0 -34 16.5t-18 35.5t-21 35.5t-42 16.5z
M387 526v-8h-36l-104 104l-104 -104h-36v8l116 164h48z" />
    <glyph glyph-name="Cdotaccent" unicode="&#x10a;" horiz-adv-x="692" 
d="M385 38q84 0 144.5 43t86.5 121h26v-137q-65 -38 -124 -57.5t-144 -19.5q-146 0 -242.5 97t-96.5 267q0 164 105.5 265t257.5 101q109 0 236 -71v-141h-27q-29 86 -85.5 126.5t-123.5 40.5q-110 0 -183 -82t-73 -238q0 -149 73.5 -232t169.5 -83zM325 832q0 26 18 44
t43 18q26 0 44 -18t18 -44q0 -25 -18 -43t-44 -18t-43.5 17.5t-17.5 43.5z" />
    <glyph glyph-name="cdotaccent" unicode="&#x10b;" horiz-adv-x="441" 
d="M240 433q-46 0 -82.5 -53.5t-36.5 -135.5q0 -94 38.5 -137.5t101.5 -43.5q39 0 71.5 23t52.5 57l31 -15q-25 -64 -71.5 -102t-109.5 -38q-89 0 -145 69t-56 169q0 103 61.5 174t156.5 71q69 0 110 -29t41 -71t-48 -42q-21 0 -34 16.5t-18 35.5t-21 35.5t-42 16.5z
M185 622q0 26 18 44t43 18q26 0 44 -18t18 -44q0 -25 -18 -43t-44 -18t-43.5 17.5t-17.5 43.5z" />
    <glyph glyph-name="Ccaron" unicode="&#x10c;" horiz-adv-x="692" 
d="M385 38q84 0 144.5 43t86.5 121h26v-137q-65 -38 -124 -57.5t-144 -19.5q-146 0 -242.5 97t-96.5 267q0 164 105.5 265t257.5 101q109 0 236 -71v-141h-27q-29 86 -85.5 126.5t-123.5 40.5q-110 0 -183 -82t-73 -238q0 -149 73.5 -232t169.5 -83zM532 893v-8l-121 -129
h-48l-121 129v8h41l104 -79l104 79h41z" />
    <glyph glyph-name="ccaron" unicode="&#x10d;" horiz-adv-x="441" 
d="M240 433q-46 0 -82.5 -53.5t-36.5 -135.5q0 -94 38.5 -137.5t101.5 -43.5q39 0 71.5 23t52.5 57l31 -15q-25 -64 -71.5 -102t-109.5 -38q-89 0 -145 69t-56 169q0 103 61.5 174t156.5 71q69 0 110 -29t41 -71t-48 -42q-21 0 -34 16.5t-18 35.5t-21 35.5t-42 16.5z
M387 690v-8l-116 -164h-48l-116 164v8h36l104 -104l104 104h36z" />
    <glyph glyph-name="Dcaron" unicode="&#x10e;" horiz-adv-x="749" 
d="M315 0h-288v35l90 15v606l-90 15v35h298q180 0 284.5 -95t104.5 -261t-111 -258t-288 -92zM213 50h102q61 0 112 17t92 51.5t64.5 94t23.5 138.5q0 148 -77.5 226.5t-205.5 78.5h-111v-606zM454 893v-8l-121 -129h-48l-121 129v8h41l104 -79l104 79h41z" />
    <glyph glyph-name="dcaron" unicode="&#x10f;" horiz-adv-x="519" 
d="M355 95v284q-16 22 -43 36t-57 14q-50 0 -93.5 -47t-43.5 -141q0 -87 41 -139t90 -52q56 0 106 45zM436 734v-661l58 -28v-27l-93 -30h-24l-25 47h-9q-64 -47 -140 -47q-61 0 -115 59.5t-54 169.5q0 113 64.5 183.5t150.5 70.5q51 0 106 -16v187l-68 29v21l125 42h24z
M488 527v8l16 199h79v-10l-54 -197h-41z" />
    <glyph glyph-name="Dcroat" unicode="&#x110;" horiz-adv-x="749" 
d="M27 376h90v280l-90 15v35h298q180 0 284.5 -95t104.5 -261t-111 -258t-288 -92h-288v35l90 15v277h-90v49zM213 50h102q61 0 112 17t92 51.5t64.5 94t23.5 138.5q0 148 -77.5 226.5t-205.5 78.5h-111v-280h173v-49h-173v-277z" />
    <glyph glyph-name="dcroat" unicode="&#x111;" horiz-adv-x="519" 
d="M205 584h150v58l-68 29v21l125 42h24v-150h61v-45h-61v-466l58 -28v-27l-93 -30h-24l-25 47h-9q-64 -47 -140 -47q-61 0 -115 59.5t-54 169.5q0 113 64.5 183.5t150.5 70.5q51 0 106 -16v84h-150v45zM355 95v284q-16 22 -43 36t-57 14q-50 0 -93.5 -47t-43.5 -141
q0 -87 41 -139t90 -52q56 0 106 45z" />
    <glyph glyph-name="Emacron" unicode="&#x112;" horiz-adv-x="617" 
d="M213 43h250l91 144h39l-36 -187h-530v35l90 15v606l-90 15v35h499l16 -157h-39l-71 114h-219v-267h147l32 92h35v-240h-35l-32 99h-147v-304zM435 801h-254v53h254v-53z" />
    <glyph glyph-name="emacron" unicode="&#x113;" horiz-adv-x="448" 
d="M397 277h-281q-1 -9 -1 -28q0 -90 41.5 -140t100.5 -50q82 0 133 82l28 -19q-69 -134 -185 -134q-88 0 -143.5 71t-55.5 166q0 104 55.5 175t140.5 71q78 0 128 -52.5t50 -109.5q0 -32 -11 -32zM229 430q-85 0 -108 -113h184q5 14 5 36q0 35 -22.5 56t-58.5 21zM353 563
h-254v53h254v-53z" />
    <glyph glyph-name="Edotaccent" unicode="&#x116;" horiz-adv-x="617" 
d="M213 43h250l91 144h39l-36 -187h-530v35l90 15v606l-90 15v35h499l16 -157h-39l-71 114h-219v-267h147l32 92h35v-240h-35l-32 99h-147v-304zM246 832q0 26 18 44t43 18t43.5 -18t18.5 -44q0 -25 -18 -43t-44 -18q-25 0 -43 17.5t-18 43.5z" />
    <glyph glyph-name="edotaccent" unicode="&#x117;" horiz-adv-x="448" 
d="M397 277h-281q-1 -9 -1 -28q0 -90 41.5 -140t100.5 -50q82 0 133 82l28 -19q-69 -134 -185 -134q-88 0 -143.5 71t-55.5 166q0 104 55.5 175t140.5 71q78 0 128 -52.5t50 -109.5q0 -32 -11 -32zM229 430q-85 0 -108 -113h184q5 14 5 36q0 35 -22.5 56t-58.5 21zM164 622
q0 26 18 44t43 18t43.5 -18t18.5 -44q0 -25 -18 -43t-44 -18q-25 0 -43 17.5t-18 43.5z" />
    <glyph glyph-name="Eogonek" unicode="&#x118;" horiz-adv-x="617" 
d="M557 0h-1q-106 -46 -106 -131q0 -28 15.5 -45t38.5 -17q18 0 38 6l6 -26q-27 -11 -68 -11q-46 0 -75 21t-29 58q0 77 110 141l-2 4h-457v35l90 15v606l-90 15v35h499l16 -157h-39l-71 114h-219v-267h147l32 92h35v-240h-35l-32 99h-147v-304h250l91 144h39z" />
    <glyph glyph-name="eogonek" unicode="&#x119;" horiz-adv-x="448" 
d="M397 277h-281q-1 -9 -1 -28q0 -90 41.5 -140t100.5 -50q82 0 133 82l28 -19q-13 -30 -37 -60t-48.5 -52t-48 -44t-38 -47t-14.5 -50q0 -28 15.5 -45t38.5 -17q18 0 38 6l6 -26q-28 -11 -68 -11q-46 0 -75 21t-29 58q0 68 91 130l-2 3h-14q-88 0 -143.5 71t-55.5 166
q0 104 55.5 175t140.5 71q78 0 128 -52.5t50 -109.5q0 -32 -11 -32zM229 430q-85 0 -108 -113h184q5 14 5 36q0 35 -22.5 56t-58.5 21z" />
    <glyph glyph-name="Ecaron" unicode="&#x11a;" horiz-adv-x="617" 
d="M213 43h250l91 144h39l-36 -187h-530v35l90 15v606l-90 15v35h499l16 -157h-39l-71 114h-219v-267h147l32 92h35v-240h-35l-32 99h-147v-304zM453 893v-8l-121 -129h-48l-121 129v8h41l104 -79l104 79h41z" />
    <glyph glyph-name="ecaron" unicode="&#x11b;" horiz-adv-x="448" 
d="M397 277h-281q-1 -9 -1 -28q0 -90 41.5 -140t100.5 -50q82 0 133 82l28 -19q-69 -134 -185 -134q-88 0 -143.5 71t-55.5 166q0 104 55.5 175t140.5 71q78 0 128 -52.5t50 -109.5q0 -32 -11 -32zM229 430q-85 0 -108 -113h184q5 14 5 36q0 35 -22.5 56t-58.5 21zM366 690
v-8l-116 -164h-48l-116 164v8h36l104 -104l104 104h36z" />
    <glyph glyph-name="Gcircumflex" unicode="&#x11c;" horiz-adv-x="739" 
d="M395 38q88 0 142 44v215l-119 15v40h294v-40l-79 -15v-252q-127 -57 -269 -57t-235.5 97t-93.5 267q0 164 105.5 265t257.5 101q109 0 234 -71v-141h-25q-29 86 -85.5 126.5t-123.5 40.5q-112 0 -184 -78.5t-72 -241.5q0 -160 71 -237.5t182 -77.5zM529 764v-8h-41
l-104 79l-104 -79h-41v8l121 129h48z" />
    <glyph glyph-name="gcircumflex" unicode="&#x11d;" horiz-adv-x="460" 
d="M97 -24v13q-49 44 -32 83l39 87v17q-66 45 -66 129q0 69 45 115.5t122 46.5q58 0 102 -30l138 8v-71l-92 6q17 -34 17 -69q0 -77 -45.5 -121t-126.5 -44q-28 0 -41 5q-10 -3 -17 -17.5t-7 -25.5q0 -45 46 -45h141q117 0 117 -102q0 -86 -83 -148.5t-199 -62.5
q-51 0 -82.5 29.5t-31.5 76.5q0 32 15.5 65t40.5 55zM377 -72q0 61 -94 61h-121q-54 -18 -54 -85q0 -91 114 -91q60 0 107.5 31.5t47.5 83.5zM291 310q0 48 -23.5 83.5t-64.5 35.5q-36 0 -58.5 -33t-22.5 -89q0 -62 22 -95t59 -33q41 0 64.5 34t23.5 97zM354 526v-8h-36
l-104 104l-104 -104h-36v8l116 164h48z" />
    <glyph glyph-name="Gbreve" unicode="&#x11e;" horiz-adv-x="739" 
d="M395 38q88 0 142 44v215l-119 15v40h294v-40l-79 -15v-252q-127 -57 -269 -57t-235.5 97t-93.5 267q0 164 105.5 265t257.5 101q109 0 234 -71v-141h-25q-29 86 -85.5 126.5t-123.5 40.5q-112 0 -184 -78.5t-72 -241.5q0 -160 71 -237.5t182 -77.5zM384 756
q-50 0 -85 33.5t-35 98.5h40q0 -32 22.5 -54t57.5 -22q32 0 56 21.5t24 54.5h40q0 -65 -35 -98.5t-85 -33.5z" />
    <glyph glyph-name="gbreve" unicode="&#x11f;" horiz-adv-x="460" 
d="M97 -24v13q-49 44 -32 83l39 87v17q-66 45 -66 129q0 69 45 115.5t122 46.5q58 0 102 -30l138 8v-71l-92 6q17 -34 17 -69q0 -77 -45.5 -121t-126.5 -44q-28 0 -41 5q-10 -3 -17 -17.5t-7 -25.5q0 -45 46 -45h141q117 0 117 -102q0 -86 -83 -148.5t-199 -62.5
q-51 0 -82.5 29.5t-31.5 76.5q0 32 15.5 65t40.5 55zM377 -72q0 61 -94 61h-121q-54 -18 -54 -85q0 -91 114 -91q60 0 107.5 31.5t47.5 83.5zM291 310q0 48 -23.5 83.5t-64.5 35.5q-36 0 -58.5 -33t-22.5 -89q0 -62 22 -95t59 -33q41 0 64.5 34t23.5 97zM214 521
q-50 0 -85 38.5t-35 110.5h40q0 -36 23 -64.5t57 -28.5q32 0 56 27.5t24 65.5h40q0 -72 -35 -110.5t-85 -38.5z" />
    <glyph glyph-name="Gdotaccent" unicode="&#x120;" horiz-adv-x="739" 
d="M395 38q88 0 142 44v215l-119 15v40h294v-40l-79 -15v-252q-127 -57 -269 -57t-235.5 97t-93.5 267q0 164 105.5 265t257.5 101q109 0 234 -71v-141h-25q-29 86 -85.5 126.5t-123.5 40.5q-112 0 -184 -78.5t-72 -241.5q0 -160 71 -237.5t182 -77.5zM322 832q0 26 18 44
t43 18t43.5 -18t18.5 -44q0 -25 -18 -43t-44 -18q-25 0 -43 17.5t-18 43.5z" />
    <glyph glyph-name="gdotaccent" unicode="&#x121;" horiz-adv-x="460" 
d="M97 -24v13q-49 44 -32 83l39 87v17q-66 45 -66 129q0 69 45 115.5t122 46.5q58 0 102 -30l138 8v-71l-92 6q17 -34 17 -69q0 -77 -45.5 -121t-126.5 -44q-28 0 -41 5q-10 -3 -17 -17.5t-7 -25.5q0 -45 46 -45h141q117 0 117 -102q0 -86 -83 -148.5t-199 -62.5
q-51 0 -82.5 29.5t-31.5 76.5q0 32 15.5 65t40.5 55zM377 -72q0 61 -94 61h-121q-54 -18 -54 -85q0 -91 114 -91q60 0 107.5 31.5t47.5 83.5zM291 310q0 48 -23.5 83.5t-64.5 35.5q-36 0 -58.5 -33t-22.5 -89q0 -62 22 -95t59 -33q41 0 64.5 34t23.5 97zM152 622q0 26 18 44
t43 18t43.5 -18t18.5 -44q0 -25 -18 -43t-44 -18q-25 0 -43 17.5t-18 43.5z" />
    <glyph glyph-name="Gcommaaccent" unicode="&#x122;" horiz-adv-x="739" 
d="M395 38q88 0 142 44v215l-119 15v40h294v-40l-79 -15v-252q-127 -57 -269 -57t-235.5 97t-93.5 267q0 164 105.5 265t257.5 101q109 0 234 -71v-141h-25q-29 86 -85.5 126.5t-123.5 40.5q-112 0 -184 -78.5t-72 -241.5q0 -160 71 -237.5t182 -77.5zM346 -81q0 15 11 26
t31 11q28 0 47 -22.5t19 -57.5q0 -65 -85 -112l-16 28q47 27 47 58q0 18 -27 35.5t-27 33.5z" />
    <glyph glyph-name="gcommaaccent" unicode="&#x123;" horiz-adv-x="460" 
d="M97 -24v13q-49 44 -32 83l39 87v17q-66 45 -66 129q0 69 45 115.5t122 46.5q58 0 102 -30l138 8v-71l-92 6q17 -34 17 -69q0 -77 -45.5 -121t-126.5 -44q-28 0 -41 5q-10 -3 -17 -17.5t-7 -25.5q0 -45 46 -45h141q117 0 117 -102q0 -86 -83 -148.5t-199 -62.5
q-51 0 -82.5 29.5t-31.5 76.5q0 32 15.5 65t40.5 55zM377 -72q0 61 -94 61h-121q-54 -18 -54 -85q0 -91 114 -91q60 0 107.5 31.5t47.5 83.5zM291 310q0 48 -23.5 83.5t-64.5 35.5q-36 0 -58.5 -33t-22.5 -89q0 -62 22 -95t59 -33q41 0 64.5 34t23.5 97zM260 574
q0 -16 -11.5 -27.5t-31.5 -11.5q-29 0 -48.5 24t-19.5 60q0 71 84 118l20 -29q-48 -28 -48 -61q0 -19 27.5 -37.5t27.5 -35.5z" />
    <glyph glyph-name="Hcircumflex" unicode="&#x124;" horiz-adv-x="785" 
d="M482 706h276v-35l-90 -15v-606l90 -15v-35h-276v35l90 15v297h-359v-297l90 -15v-35h-276v35l90 15v606l-90 15v35h276v-35l-90 -15v-260h359v260l-90 15v35zM537 764v-8h-41l-104 79l-104 -79h-41v8l121 129h48z" />
    <glyph glyph-name="hcircumflex" unicode="&#x125;" horiz-adv-x="521" 
d="M496 0h-201v30l60 15v241q0 121 -93 121q-55 0 -96 -37v-325l60 -15v-30h-201v30l60 15v597l-65 29v21l122 42h24v-313l8 -6q74 56 131 56q56 0 93.5 -39t37.5 -114v-273l60 -15v-30zM273 764v-8h-41l-104 79l-104 -79h-41v8l121 129h48z" />
    <glyph glyph-name="Hbar" unicode="&#x126;" horiz-adv-x="785" 
d="M49 553h68v103l-90 15v35h276v-35l-90 -15v-103h359v103l-90 15v35h276v-35l-90 -15v-103h73v-51h-73v-452l90 -15v-35h-276v35l90 15v297h-359v-297l90 -15v-35h-276v35l90 15v452h-68v51zM213 396h359v106h-359v-106z" />
    <glyph glyph-name="hbar" unicode="&#x127;" horiz-adv-x="521" 
d="M27 584h58v58l-65 29v21l122 42h24v-150h153v-45h-153v-118l8 -6q74 56 131 56q56 0 93.5 -39t37.5 -114v-273l60 -15v-30h-201v30l60 15v241q0 121 -93 121q-55 0 -96 -37v-325l60 -15v-30h-201v30l60 15v494h-58v45z" />
    <glyph glyph-name="Imacron" unicode="&#x12a;" horiz-adv-x="330" 
d="M27 706h276v-35l-90 -15v-606l90 -15v-35h-276v35l90 15v606l-90 15v35zM292 801h-254v53h254v-53z" />
    <glyph glyph-name="imacron" unicode="&#x12b;" horiz-adv-x="255" 
d="M168 471v-426l60 -15v-30h-201v30l60 15v335l-65 28v21l122 42h24zM252 563h-254v53h254v-53z" />
    <glyph glyph-name="Iogonek" unicode="&#x12e;" horiz-adv-x="330" 
d="M303 35v-35q-58 -13 -92 -52.5t-34 -78.5q0 -28 15.5 -45t38.5 -17q18 0 38 6l6 -26q-27 -11 -68 -11q-46 0 -75 21t-29 58q0 39 29.5 76.5t83.5 63.5l-3 5h-186v35l90 15v606l-90 15v35h276v-35l-90 -15v-606z" />
    <glyph glyph-name="iogonek" unicode="&#x12f;" horiz-adv-x="255" 
d="M168 471v-426l60 -15v-30q-61 -20 -88 -57t-27 -74q0 -28 15.5 -45t38.5 -17q18 0 38 6l6 -26q-28 -11 -68 -11q-46 0 -75 21t-29 58q0 75 107 141v4h-119v30l60 15v335l-65 28v21l122 42h24zM68 666q0 24 18 42t41 18q24 0 42 -18t18 -42q0 -23 -18 -41t-42 -18
q-23 0 -41 18t-18 41z" />
    <glyph glyph-name="Idotaccent" unicode="&#x130;" horiz-adv-x="330" 
d="M27 706h276v-35l-90 -15v-606l90 -15v-35h-276v35l90 15v606l-90 15v35zM103 832q0 26 18 44t43 18q26 0 44 -18t18 -44q0 -25 -18 -43t-44 -18t-43.5 17.5t-17.5 43.5z" />
    <glyph glyph-name="dotlessi" unicode="&#x131;" horiz-adv-x="255" 
d="M168 471v-426l60 -15v-30h-201v30l60 15v335l-65 28v21l122 42h24z" />
    <glyph glyph-name="Jcircumflex" unicode="&#x134;" horiz-adv-x="355" 
d="M135 -46v702l-108 15v35h301v-35l-97 -15v-609q0 -119 -76 -205.5t-161 -86.5q-38 0 -62.5 16t-24.5 47q0 24 15 37.5t39 13.5q20 0 48.5 -11t52.5 -11q73 0 73 107zM328 764v-8h-41l-104 79l-104 -79h-41v8l121 129h48z" />
    <glyph glyph-name="jcircumflex" unicode="&#x135;" horiz-adv-x="245" 
d="M168 471v-458q0 -90 -40 -159.5t-116 -104.5l-16 29q91 77 91 219v383l-68 28v21l126 42h23zM265 526v-8h-36l-104 104l-104 -104h-36v8l116 164h48z" />
    <glyph glyph-name="Kcommaaccent" unicode="&#x136;" horiz-adv-x="725" 
d="M231 326h-18v-276l89 -15v-35h-275v35l90 15v606l-90 15v35h275v-35l-89 -15v-276h21l276 276l-72 15v35h222v-35l-83 -15l-278 -276l328 -330l83 -15v-35h-285v35l73 15zM320 -81q0 15 11 26t31 11q28 0 47 -22.5t19 -57.5q0 -65 -85 -112l-16 28q47 27 47 58
q0 18 -27 35.5t-27 33.5z" />
    <glyph glyph-name="kcommaaccent" unicode="&#x137;" horiz-adv-x="468" 
d="M328 407v9l-55 12v30h165v-30l-52 -15l-140 -147l169 -224l42 -12v-30h-192v30l49 14l-126 178h-22v-177l50 -15v-30h-191v30l60 15v597l-65 29v21l122 42h24v-473h17zM197 -81q0 15 11 26t31 11q28 0 47 -22.5t19 -57.5q0 -65 -85 -112l-16 28q47 27 47 58
q0 18 -27 35.5t-27 33.5z" />
    <glyph glyph-name="Lacute" unicode="&#x139;" horiz-adv-x="601" 
d="M553 0h-526v35l90 15v606l-90 15v35h280v-35l-94 -15v-613h236l101 154h39zM112 756v8l86 129h84v-10l-129 -127h-41z" />
    <glyph glyph-name="lacute" unicode="&#x13a;" horiz-adv-x="255" 
d="M168 734v-689l60 -15v-30h-201v30l60 15v597l-65 29v21l122 42h24zM74 780v8l86 129h84v-10l-129 -127h-41z" />
    <glyph glyph-name="Lcommaaccent" unicode="&#x13b;" horiz-adv-x="601" 
d="M553 0h-526v35l90 15v606l-90 15v35h280v-35l-94 -15v-613h236l101 154h39zM258 -81q0 15 11 26t31 11q28 0 47 -22.5t19 -57.5q0 -65 -85 -112l-16 28q47 27 47 58q0 18 -27 35.5t-27 33.5z" />
    <glyph glyph-name="lcommaaccent" unicode="&#x13c;" horiz-adv-x="255" 
d="M168 734v-689l60 -15v-30h-201v30l60 15v597l-65 29v21l122 42h24zM86 -81q0 15 11 26t31 11q28 0 47 -22.5t19 -57.5q0 -65 -85 -112l-16 28q47 27 47 58q0 18 -27 35.5t-27 33.5z" />
    <glyph glyph-name="Lcaron" unicode="&#x13d;" horiz-adv-x="601" 
d="M553 0h-526v35l90 15v606l-90 15v35h280v-35l-94 -15v-613h236l101 154h39zM392 499v8l16 199h79v-10l-54 -197h-41z" />
    <glyph glyph-name="lcaron" unicode="&#x13e;" horiz-adv-x="255" 
d="M168 734v-689l60 -15v-30h-201v30l60 15v597l-65 29v21l122 42h24zM234 527v8l16 199h79v-10l-54 -197h-41z" />
    <glyph glyph-name="Ldot" unicode="&#x13f;" horiz-adv-x="667" 
d="M553 0h-526v35l90 15v606l-90 15v35h280v-35l-94 -15v-613h236l101 154h39zM541 363q0 26 18 44.5t44 18.5t44.5 -18.5t18.5 -44.5t-18.5 -44t-44.5 -18t-44 18t-18 44z" />
    <glyph glyph-name="ldot" unicode="&#x140;" horiz-adv-x="336" 
d="M165 734v-689l60 -15v-30h-201v30l60 15v597l-65 29v21l122 42h24zM233 261q0 26 18 44t43 18q26 0 44 -18.5t18 -43.5t-18 -43t-44 -18t-43.5 18t-17.5 43z" />
    <glyph glyph-name="Lslash" unicode="&#x141;" horiz-adv-x="601" 
d="M27 290l90 43v323l-90 15v35h280v-35l-94 -15v-277l212 101v-53l-212 -101v-283h236l101 154h39l-36 -197h-526v35l90 15v230l-90 -43v53z" />
    <glyph glyph-name="lslash" unicode="&#x142;" horiz-adv-x="255" 
d="M10 276l77 72v294l-65 29v21l122 42h24v-310l77 72v-60l-77 -72v-319l60 -15v-30h-201v30l60 15v243l-77 -72v60z" />
    <glyph glyph-name="Nacute" unicode="&#x143;" horiz-adv-x="783" 
d="M608 174h14v482l-90 15v35h224v-35l-89 -15v-658h-31l-469 574h-14v-522l90 -15v-35h-216v35l81 15v606l-81 15v35h146zM336 756v8l86 129h84v-10l-129 -127h-41z" />
    <glyph glyph-name="nacute" unicode="&#x144;" horiz-adv-x="521" 
d="M496 0h-201v30l60 15v246q0 63 -23.5 89.5t-69.5 26.5q-55 0 -96 -37v-325l60 -15v-30h-201v30l60 15v335l-65 28v21l119 42h24l6 -50l8 -6q75 56 128 56q56 0 93.5 -39t37.5 -114v-273l60 -15v-30zM206 518v8l86 164h84v-10l-129 -162h-41z" />
    <glyph glyph-name="Ncommaaccent" unicode="&#x145;" horiz-adv-x="783" 
d="M608 174h14v482l-90 15v35h224v-35l-89 -15v-658h-31l-469 574h-14v-522l90 -15v-35h-216v35l81 15v606l-81 15v35h146zM347 -81q0 15 11 26t31 11q28 0 47 -22.5t19 -57.5q0 -65 -85 -112l-16 28q47 27 47 58q0 18 -27 35.5t-27 33.5z" />
    <glyph glyph-name="ncommaaccent" unicode="&#x146;" horiz-adv-x="521" 
d="M496 0h-201v30l60 15v246q0 63 -23.5 89.5t-69.5 26.5q-55 0 -96 -37v-325l60 -15v-30h-201v30l60 15v335l-65 28v21l119 42h24l6 -50l8 -6q75 56 128 56q56 0 93.5 -39t37.5 -114v-273l60 -15v-30zM217 -81q0 15 11 26t31 11q28 0 47 -22.5t19 -57.5q0 -65 -85 -112
l-16 28q47 27 47 58q0 18 -27 35.5t-27 33.5z" />
    <glyph glyph-name="Ncaron" unicode="&#x147;" horiz-adv-x="783" 
d="M608 174h14v482l-90 15v35h224v-35l-89 -15v-658h-31l-469 574h-14v-522l90 -15v-35h-216v35l81 15v606l-81 15v35h146zM536 893v-8l-121 -129h-48l-121 129v8h41l104 -79l104 79h41z" />
    <glyph glyph-name="ncaron" unicode="&#x148;" horiz-adv-x="521" 
d="M496 0h-201v30l60 15v246q0 63 -23.5 89.5t-69.5 26.5q-55 0 -96 -37v-325l60 -15v-30h-201v30l60 15v335l-65 28v21l119 42h24l6 -50l8 -6q75 56 128 56q56 0 93.5 -39t37.5 -114v-273l60 -15v-30zM401 690v-8l-116 -164h-48l-116 164v8h36l104 -104l104 104h36z" />
    <glyph glyph-name="Omacron" unicode="&#x14c;" horiz-adv-x="735" 
d="M35 352q0 164 96 265t237 101q147 0 239.5 -99t92.5 -267q0 -174 -94.5 -269t-237.5 -95t-238 97t-95 267zM142 353q0 -161 63.5 -239.5t162.5 -78.5q225 0 225 318q0 166 -61 243t-164 77q-99 0 -162.5 -78.5t-63.5 -241.5zM494 801h-254v53h254v-53z" />
    <glyph glyph-name="omacron" unicode="&#x14d;" horiz-adv-x="493" 
d="M34 229q0 109 61.5 175.5t151.5 66.5q91 0 151.5 -66t60.5 -176q0 -115 -60 -178t-152 -63q-91 0 -152 64.5t-61 176.5zM128 230q0 -102 33.5 -151t85.5 -49q119 0 119 200q0 104 -33.5 151.5t-85.5 47.5t-85.5 -48t-33.5 -151zM373 563h-254v53h254v-53z" />
    <glyph glyph-name="Ohungarumlaut" unicode="&#x150;" horiz-adv-x="735" 
d="M35 352q0 164 96 265t237 101q147 0 239.5 -99t92.5 -267q0 -174 -94.5 -269t-237.5 -95t-238 97t-95 267zM142 353q0 -161 63.5 -239.5t162.5 -78.5q225 0 225 318q0 166 -61 243t-164 77q-99 0 -162.5 -78.5t-63.5 -241.5zM392 756v8l91 129h89v-10l-139 -127h-41z
M252 756v8l91 129h89v-10l-139 -127h-41z" />
    <glyph glyph-name="ohungarumlaut" unicode="&#x151;" horiz-adv-x="493" 
d="M34 229q0 109 61.5 175.5t151.5 66.5q91 0 151.5 -66t60.5 -176q0 -115 -60 -178t-152 -63q-91 0 -152 64.5t-61 176.5zM128 230q0 -102 33.5 -151t85.5 -49q119 0 119 200q0 104 -33.5 151.5t-85.5 47.5t-85.5 -48t-33.5 -151zM276 518v8l91 164h89v-10l-139 -162h-41z
M136 518v8l91 164h89v-10l-139 -162h-41z" />
    <glyph glyph-name="OE" unicode="&#x152;" horiz-adv-x="967" 
d="M907 0h-440q-48 -12 -99 -12q-143 0 -238 97t-95 267q0 164 96 265t237 101q54 0 99 -13v1h409l16 -157h-39l-71 114h-219v-267h147l32 92h35v-240h-35l-32 99h-147v-304h250l91 144h39zM368 35q59 0 99 20v595q-43 23 -99 23q-99 0 -162.5 -78.5t-63.5 -241.5
q0 -161 63.5 -239.5t162.5 -78.5z" />
    <glyph glyph-name="oe" unicode="&#x153;" horiz-adv-x="775" 
d="M34 229q0 109 61.5 175.5t151.5 66.5q102 0 163 -81q57 81 147 81q78 0 128 -52.5t50 -109.5q0 -32 -11 -32h-279q-1 -9 -1 -28q0 -91 40.5 -140.5t99.5 -49.5q82 0 133 82l28 -19q-69 -134 -185 -134q-92 0 -149 77q-58 -77 -164 -77q-91 0 -152 64.5t-61 176.5z
M128 230q0 -102 33.5 -151t85.5 -49q119 0 119 200q0 104 -33.5 151.5t-85.5 47.5t-85.5 -48t-33.5 -151zM556 430q-84 0 -106 -113h182q5 11 5 36q0 35 -22.5 56t-58.5 21z" />
    <glyph glyph-name="Racute" unicode="&#x154;" horiz-adv-x="645" 
d="M354 345v-11q33 -17 67 -72t71 -119t72 -93l65 -15v-35h-143q-30 23 -63 74.5t-57.5 100.5t-59.5 94.5t-69 60.5h-24v-280l100 -15v-35h-286v35l90 15v606l-90 15v35h312q23 0 47.5 -4.5t52.5 -17.5t49.5 -32.5t35.5 -53.5t14 -77q0 -56 -45.5 -107.5t-138.5 -68.5z
M213 656v-281h74q73 0 110 44t37 99q0 138 -113 138h-108zM248 756v8l86 129h84v-10l-129 -127h-41z" />
    <glyph glyph-name="racute" unicode="&#x155;" horiz-adv-x="360" 
d="M255 403l-11 9q-19 -13 -43.5 -42.5t-34.5 -51.5v-273l79 -15v-30h-220v30l60 15v335l-65 28v21l120 42h23l7 -71l9 -4q34 39 60 57t54 18q26 0 43 -17t17 -46q0 -27 -13.5 -43.5t-37.5 -16.5q-21 0 -34 14.5t-13 40.5zM130 518v8l86 164h84v-10l-129 -162h-41z" />
    <glyph glyph-name="Rcaron" unicode="&#x158;" horiz-adv-x="645" 
d="M354 345v-11q33 -17 67 -72t71 -119t72 -93l65 -15v-35h-143q-30 23 -63 74.5t-57.5 100.5t-59.5 94.5t-69 60.5h-24v-280l100 -15v-35h-286v35l90 15v606l-90 15v35h312q23 0 47.5 -4.5t52.5 -17.5t49.5 -32.5t35.5 -53.5t14 -77q0 -56 -45.5 -107.5t-138.5 -68.5z
M213 656v-281h74q73 0 110 44t37 99q0 138 -113 138h-108zM448 893v-8l-121 -129h-48l-121 129v8h41l104 -79l104 79h41z" />
    <glyph glyph-name="rcaron" unicode="&#x159;" horiz-adv-x="360" 
d="M255 403l-11 9q-19 -13 -43.5 -42.5t-34.5 -51.5v-273l79 -15v-30h-220v30l60 15v335l-65 28v21l120 42h23l7 -71l9 -4q34 39 60 57t54 18q26 0 43 -17t17 -46q0 -27 -13.5 -43.5t-37.5 -16.5q-21 0 -34 14.5t-13 40.5zM325 690v-8l-116 -164h-48l-116 164v8h36l104 -104
l104 104h36z" />
    <glyph glyph-name="Sacute" unicode="&#x15a;" horiz-adv-x="546" 
d="M43 7v212h39q21 -91 72.5 -138.5t124.5 -47.5q60 0 98 33.5t38 87.5q0 52 -32 92t-119 77q-110 47 -155.5 92.5t-45.5 118.5q0 69 59 126.5t153 57.5q65 0 142 -31l42 19h20l20 -205h-32q-26 83 -77 127t-110 44q-56 0 -92.5 -28.5t-36.5 -79.5q0 -93 166 -164
q96 -41 141 -86.5t45 -123.5q0 -96 -63 -149t-161 -53q-81 0 -147 39l-49 -20h-40zM231 756v8l86 129h84v-10l-129 -127h-41z" />
    <glyph glyph-name="sacute" unicode="&#x15b;" horiz-adv-x="387" 
d="M47 0v150h33q27 -126 115 -126q32 0 53 22.5t21 51.5q0 32 -21 53.5t-85 49.5q-61 26 -88.5 59.5t-27.5 83.5q0 49 35.5 88t100.5 39q46 0 96 -20l25 12h22v-143h-29q-16 57 -47.5 85t-63.5 28t-54 -20t-22 -50q0 -29 23.5 -48t81.5 -46q65 -30 97.5 -62t32.5 -83
q0 -64 -44 -100t-108 -36q-46 0 -103 25l-15 -13h-28zM141 518v8l86 164h84v-10l-129 -162h-41z" />
    <glyph glyph-name="Scircumflex" unicode="&#x15c;" horiz-adv-x="546" 
d="M43 7v212h39q21 -91 72.5 -138.5t124.5 -47.5q60 0 98 33.5t38 87.5q0 52 -32 92t-119 77q-110 47 -155.5 92.5t-45.5 118.5q0 69 59 126.5t153 57.5q65 0 142 -31l42 19h20l20 -205h-32q-26 83 -77 127t-110 44q-56 0 -92.5 -28.5t-36.5 -79.5q0 -93 166 -164
q96 -41 141 -86.5t45 -123.5q0 -96 -63 -149t-161 -53q-81 0 -147 39l-49 -20h-40zM431 764v-8h-41l-104 79l-104 -79h-41v8l121 129h48z" />
    <glyph glyph-name="scircumflex" unicode="&#x15d;" horiz-adv-x="387" 
d="M47 0v150h33q27 -126 115 -126q32 0 53 22.5t21 51.5q0 32 -21 53.5t-85 49.5q-61 26 -88.5 59.5t-27.5 83.5q0 49 35.5 88t100.5 39q46 0 96 -20l25 12h22v-143h-29q-16 57 -47.5 85t-63.5 28t-54 -20t-22 -50q0 -29 23.5 -48t81.5 -46q65 -30 97.5 -62t32.5 -83
q0 -64 -44 -100t-108 -36q-46 0 -103 25l-15 -13h-28zM336 526v-8h-36l-104 104l-104 -104h-36v8l116 164h48z" />
    <glyph glyph-name="Scedilla" unicode="&#x15e;" horiz-adv-x="546" 
d="M230 -224l-8 25q40 6 64.5 22.5t24.5 39.5q0 21 -20 32.5t-53 11.5q-16 0 -30 -2l-5 7l42 79q-65 8 -113 36l-49 -20h-40v212h39q21 -91 72.5 -138.5t124.5 -47.5q60 0 98 33.5t38 87.5q0 52 -32 92t-119 77q-110 47 -155.5 92.5t-45.5 118.5q0 69 59 126.5t153 57.5
q65 0 142 -31l42 19h20l20 -205h-32q-26 83 -77 127t-110 44q-56 0 -92.5 -28.5t-36.5 -79.5q0 -93 166 -164q96 -41 141 -86.5t45 -123.5q0 -94 -60.5 -147t-154.5 -55l-23 -41q47 0 76.5 -17.5t29.5 -51.5q0 -38 -41 -66t-100 -36z" />
    <glyph glyph-name="scedilla" unicode="&#x15f;" horiz-adv-x="387" 
d="M146 -224l-8 25q40 6 64.5 22.5t24.5 39.5q0 21 -20 32.5t-53 11.5q-16 0 -30 -2l-5 7l42 79q-44 9 -71 22l-15 -13h-28v150h33q27 -126 115 -126q32 0 53 22.5t21 51.5q0 32 -21 53.5t-85 49.5q-61 26 -88.5 59.5t-27.5 83.5q0 49 35.5 88t100.5 39q46 0 96 -20l25 12
h22v-143h-29q-16 57 -47.5 85t-63.5 28t-54 -20t-22 -50q0 -29 23.5 -48t81.5 -46q65 -30 97.5 -62t32.5 -83q0 -61 -40.5 -96.5t-100.5 -38.5l-23 -42q47 0 76.5 -17.5t29.5 -51.5q0 -38 -41 -66t-100 -36z" />
    <glyph glyph-name="Scaron" unicode="&#x160;" horiz-adv-x="546" 
d="M43 7v212h39q21 -91 72.5 -138.5t124.5 -47.5q60 0 98 33.5t38 87.5q0 52 -32 92t-119 77q-110 47 -155.5 92.5t-45.5 118.5q0 69 59 126.5t153 57.5q65 0 142 -31l42 19h20l20 -205h-32q-26 83 -77 127t-110 44q-56 0 -92.5 -28.5t-36.5 -79.5q0 -93 166 -164
q96 -41 141 -86.5t45 -123.5q0 -96 -63 -149t-161 -53q-81 0 -147 39l-49 -20h-40zM431 893v-8l-121 -129h-48l-121 129v8h41l104 -79l104 79h41z" />
    <glyph glyph-name="scaron" unicode="&#x161;" horiz-adv-x="387" 
d="M47 0v150h33q27 -126 115 -126q32 0 53 22.5t21 51.5q0 32 -21 53.5t-85 49.5q-61 26 -88.5 59.5t-27.5 83.5q0 49 35.5 88t100.5 39q46 0 96 -20l25 12h22v-143h-29q-16 57 -47.5 85t-63.5 28t-54 -20t-22 -50q0 -29 23.5 -48t81.5 -46q65 -30 97.5 -62t32.5 -83
q0 -64 -44 -100t-108 -36q-46 0 -103 25l-15 -13h-28zM336 690v-8l-116 -164h-48l-116 164v8h36l104 -104l104 104h36z" />
    <glyph glyph-name="Tcommaaccent" unicode="&#x162;" horiz-adv-x="712" 
d="M58 706h596l46 -192h-39l-101 149h-156v-613l94 -15v-35h-284v35l94 15v613h-156l-101 -149h-39zM315 -81q0 15 11 26t31 11q28 0 47 -22.5t19 -57.5q0 -65 -85 -112l-16 28q47 27 47 58q0 18 -27 35.5t-27 33.5z" />
    <glyph glyph-name="Tcommaaccent" unicode="&#x21a;" horiz-adv-x="712" 
d="M58 706h596l46 -192h-39l-101 149h-156v-613l94 -15v-35h-284v35l94 15v613h-156l-101 -149h-39zM315 -81q0 15 11 26t31 11q28 0 47 -22.5t19 -57.5q0 -65 -85 -112l-16 28q47 27 47 58q0 18 -27 35.5t-27 33.5z" />
    <glyph glyph-name="tcommaaccent" unicode="&#x163;" horiz-adv-x="320" 
d="M83 406h-61v37l58 36l53 92h31v-113h131v-52h-131v-298q0 -66 54 -66q42 0 77 20l13 -26q-48 -48 -122 -48q-103 0 -103 123v295zM143 -81q0 15 11 26t31 11q28 0 47 -22.5t19 -57.5q0 -65 -85 -112l-16 28q47 27 47 58q0 18 -27 35.5t-27 33.5z" />
    <glyph glyph-name="tcommaaccent" unicode="&#x21b;" horiz-adv-x="320" 
d="M83 406h-61v37l58 36l53 92h31v-113h131v-52h-131v-298q0 -66 54 -66q42 0 77 20l13 -26q-48 -48 -122 -48q-103 0 -103 123v295zM143 -81q0 15 11 26t31 11q28 0 47 -22.5t19 -57.5q0 -65 -85 -112l-16 28q47 27 47 58q0 18 -27 35.5t-27 33.5z" />
    <glyph glyph-name="Tcaron" unicode="&#x164;" horiz-adv-x="712" 
d="M58 706h596l46 -192h-39l-101 149h-156v-613l94 -15v-35h-284v35l94 15v613h-156l-101 -149h-39zM501 893v-8l-121 -129h-48l-121 129v8h41l104 -79l104 79h41z" />
    <glyph glyph-name="tcaron" unicode="&#x165;" horiz-adv-x="320" 
d="M83 406h-61v37l58 36l53 92h31v-113h131v-52h-131v-298q0 -66 54 -66q42 0 77 20l13 -26q-48 -48 -122 -48q-103 0 -103 123v295zM226 527v8l16 199h79v-10l-54 -197h-41z" />
    <glyph glyph-name="Umacron" unicode="&#x16a;" horiz-adv-x="772" 
d="M527 706h218v-35l-81 -15v-396q0 -45 -16 -90.5t-47.5 -87.5t-85.5 -68t-122 -26q-128 0 -202 74t-74 168v426l-90 15v35h276v-35l-90 -15v-411q0 -82 53 -136.5t147 -54.5q87 0 144 59t57 164v379l-87 15v35zM545 801h-254v53h254v-53z" />
    <glyph glyph-name="umacron" unicode="&#x16b;" horiz-adv-x="519" 
d="M20 447l146 18v-312q0 -56 22 -78.5t69 -22.5q61 0 98 37v314l-65 11v33l146 18v-408l58 -23v-21l-106 -25h-13l-14 39l-8 6q-71 -45 -139 -45q-56 0 -92.5 38.5t-36.5 114.5v262l-65 11v33zM384 563h-254v53h254v-53z" />
    <glyph glyph-name="Ubreve" unicode="&#x16c;" horiz-adv-x="772" 
d="M527 706h218v-35l-81 -15v-396q0 -45 -16 -90.5t-47.5 -87.5t-85.5 -68t-122 -26q-128 0 -202 74t-74 168v426l-90 15v35h276v-35l-90 -15v-411q0 -82 53 -136.5t147 -54.5q87 0 144 59t57 164v379l-87 15v35zM418 756q-50 0 -85 33.5t-35 98.5h40q0 -32 22.5 -54
t57.5 -22q32 0 56 21.5t24 54.5h40q0 -65 -35 -98.5t-85 -33.5z" />
    <glyph glyph-name="ubreve" unicode="&#x16d;" horiz-adv-x="519" 
d="M20 447l146 18v-312q0 -56 22 -78.5t69 -22.5q61 0 98 37v314l-65 11v33l146 18v-408l58 -23v-21l-106 -25h-13l-14 39l-8 6q-71 -45 -139 -45q-56 0 -92.5 38.5t-36.5 114.5v262l-65 11v33zM257 521q-50 0 -85 38.5t-35 110.5h40q0 -36 23 -64.5t57 -28.5q32 0 56 27.5
t24 65.5h40q0 -72 -35 -110.5t-85 -38.5z" />
    <glyph glyph-name="Uring" unicode="&#x16e;" horiz-adv-x="772" 
d="M527 706h218v-35l-81 -15v-396q0 -45 -16 -90.5t-47.5 -87.5t-85.5 -68t-122 -26q-128 0 -202 74t-74 168v426l-90 15v35h276v-35l-90 -15v-411q0 -82 53 -136.5t147 -54.5q87 0 144 59t57 164v379l-87 15v35zM324 840q0 39 27.5 66.5t66.5 27.5t66.5 -27.5t27.5 -66.5
t-27.5 -66.5t-66.5 -27.5t-66.5 27.5t-27.5 66.5zM365 840q0 -24 14 -40t38 -16t38.5 16t14.5 40q0 25 -14.5 41.5t-38.5 16.5q-23 0 -37.5 -16.5t-14.5 -41.5z" />
    <glyph glyph-name="uring" unicode="&#x16f;" horiz-adv-x="519" 
d="M20 447l146 18v-312q0 -56 22 -78.5t69 -22.5q61 0 98 37v314l-65 11v33l146 18v-408l58 -23v-21l-106 -25h-13l-14 39l-8 6q-71 -45 -139 -45q-56 0 -92.5 38.5t-36.5 114.5v262l-65 11v33zM163 602q0 39 27.5 66.5t66.5 27.5t66.5 -27.5t27.5 -66.5t-27.5 -66.5
t-66.5 -27.5t-66.5 27.5t-27.5 66.5zM204 602q0 -24 14 -40t38 -16t38.5 16t14.5 40q0 25 -14.5 41.5t-38.5 16.5q-23 0 -37.5 -16.5t-14.5 -41.5z" />
    <glyph glyph-name="Uhungarumlaut" unicode="&#x170;" horiz-adv-x="772" 
d="M527 706h218v-35l-81 -15v-396q0 -45 -16 -90.5t-47.5 -87.5t-85.5 -68t-122 -26q-128 0 -202 74t-74 168v426l-90 15v35h276v-35l-90 -15v-411q0 -82 53 -136.5t147 -54.5q87 0 144 59t57 164v379l-87 15v35zM443 756v8l91 129h89v-10l-139 -127h-41zM303 756v8l91 129
h89v-10l-139 -127h-41z" />
    <glyph glyph-name="uhungarumlaut" unicode="&#x171;" horiz-adv-x="519" 
d="M20 447l146 18v-312q0 -56 22 -78.5t69 -22.5q61 0 98 37v314l-65 11v33l146 18v-408l58 -23v-21l-106 -25h-13l-14 39l-8 6q-71 -45 -139 -45q-56 0 -92.5 38.5t-36.5 114.5v262l-65 11v33zM287 518v8l91 164h89v-10l-139 -162h-41zM147 518v8l91 164h89v-10l-139 -162
h-41z" />
    <glyph glyph-name="Uogonek" unicode="&#x172;" horiz-adv-x="772" 
d="M527 706h218v-35l-81 -15v-396q0 -63 -32 -127.5t-92 -104.5q-103 -67 -103 -159q0 -28 15.5 -45t38.5 -17q18 0 38 6l6 -26q-27 -11 -68 -11q-46 0 -75 21t-29 58q0 70 75 132l-2 4q-21 -3 -43 -3q-128 0 -202 74t-74 168v426l-90 15v35h276v-35l-90 -15v-411
q0 -82 53 -136.5t147 -54.5q87 0 144 59t57 164v379l-87 15v35z" />
    <glyph glyph-name="uogonek" unicode="&#x173;" horiz-adv-x="519" 
d="M20 447l146 18v-312q0 -56 22 -78.5t69 -22.5q61 0 98 37v314l-65 11v33l146 18v-408l58 -23v-21q-121 -54 -121 -144q0 -28 15.5 -45t38.5 -17q18 0 38 6l6 -26q-28 -11 -68 -11q-46 0 -75 21t-29 58q0 75 93 134l-39 44q-71 -45 -139 -45q-56 0 -92.5 38.5t-36.5 114.5
v262l-65 11v33z" />
    <glyph glyph-name="Wcircumflex" unicode="&#x174;" horiz-adv-x="956" 
d="M610 0l-133 472l-135 -472h-60l-184 656l-78 15v35h258v-35l-83 -15l131 -484h16l116 368l-32 116l-68 15v35h248v-35l-83 -15l131 -484h17l140 484l-93 15v35h218v-35l-72 -15l-194 -656h-60zM623 764v-8h-41l-104 79l-104 -79h-41v8l121 129h48z" />
    <glyph glyph-name="wcircumflex" unicode="&#x175;" horiz-adv-x="689" 
d="M349 272h-10l-99 -284h-26l-158 425l-46 15v30h195v-30l-60 -15l96 -268h10l76 208l-16 60l-52 15v30h190v-30l-60 -15l88 -268h10l91 268l-59 15v30h160v-30l-59 -15l-147 -425h-26zM484 526v-8h-36l-104 104l-104 -104h-36v8l116 164h48z" />
    <glyph glyph-name="Ycircumflex" unicode="&#x176;" horiz-adv-x="668" 
d="M362 384l161 272l-93 15v35h218v-35l-72 -15l-194 -328v-278l90 -15v-35h-276v35l90 15v276l-192 330l-74 15v35h258v-35l-85 -15l158 -272h11zM502 764v-8h-41l-104 79l-104 -79h-41v8l121 129h48z" />
    <glyph glyph-name="ycircumflex" unicode="&#x177;" horiz-adv-x="465" 
d="M10 458h191v-30l-59 -15l103 -289h10l98 289l-73 15v30h175v-30l-62 -15l-168 -504q-28 -85 -64.5 -122t-92.5 -37q-32 0 -49 15t-17 37q0 17 13.5 29.5t32.5 12.5q14 0 34 -11.5t36 -11.5q56 0 95 166l-154 426l-49 15v30zM384 526v-8h-36l-104 104l-104 -104h-36v8
l116 164h48z" />
    <glyph glyph-name="Ydieresis" unicode="&#x178;" horiz-adv-x="668" 
d="M362 384l161 272l-93 15v35h218v-35l-72 -15l-194 -328v-278l90 -15v-35h-276v35l90 15v276l-192 330l-74 15v35h258v-35l-85 -15l158 -272h11zM492 837q0 -19 -15 -33.5t-34 -14.5q-20 0 -35 14.5t-15 33.5q0 20 15 35t35 15q18 0 33.5 -15t15.5 -35zM321 837
q0 -20 -14 -34t-35 -14q-20 0 -35 14.5t-15 33.5q0 20 15 35t35 15q21 0 35 -14.5t14 -35.5z" />
    <glyph glyph-name="Zacute" unicode="&#x179;" horiz-adv-x="614" 
d="M556 0h-527l-12 25l435 623l-7 15h-287l-101 -154h-39l47 197h513l11 -19l-443 -631l6 -13h309l102 154h39zM254 756v8l86 129h84v-10l-129 -127h-41z" />
    <glyph glyph-name="zacute" unicode="&#x17a;" horiz-adv-x="433" 
d="M380 0h-347l-12 35l270 370l-7 15l-82 -3q-57 -1 -90.5 -27t-53.5 -79l-36 9l47 138h323l11 -29l-278 -376l6 -13l114 4q53 2 83 31t55 86l29 -7zM166 518v8l86 164h84v-10l-129 -162h-41z" />
    <glyph glyph-name="Zdotaccent" unicode="&#x17b;" horiz-adv-x="614" 
d="M556 0h-527l-12 25l435 623l-7 15h-287l-101 -154h-39l47 197h513l11 -19l-443 -631l6 -13h309l102 154h39zM247 832q0 26 18 44t43 18q26 0 44 -18t18 -44q0 -25 -18 -43t-44 -18t-43.5 17.5t-17.5 43.5z" />
    <glyph glyph-name="zdotaccent" unicode="&#x17c;" horiz-adv-x="433" 
d="M380 0h-347l-12 35l270 370l-7 15l-82 -3q-57 -1 -90.5 -27t-53.5 -79l-36 9l47 138h323l11 -29l-278 -376l6 -13l114 4q53 2 83 31t55 86l29 -7zM159 622q0 26 18 44t43 18q26 0 44 -18t18 -44q0 -25 -18 -43t-44 -18t-43.5 17.5t-17.5 43.5z" />
    <glyph glyph-name="Zcaron" unicode="&#x17d;" horiz-adv-x="614" 
d="M556 0h-527l-12 25l435 623l-7 15h-287l-101 -154h-39l47 197h513l11 -19l-443 -631l6 -13h309l102 154h39zM454 893v-8l-121 -129h-48l-121 129v8h41l104 -79l104 79h41z" />
    <glyph glyph-name="zcaron" unicode="&#x17e;" horiz-adv-x="433" 
d="M380 0h-347l-12 35l270 370l-7 15l-82 -3q-57 -1 -90.5 -27t-53.5 -79l-36 9l47 138h323l11 -29l-278 -376l6 -13l114 4q53 2 83 31t55 86l29 -7zM361 690v-8l-116 -164h-48l-116 164v8h36l104 -104l104 104h36z" />
    <glyph glyph-name="florin" unicode="&#x192;" horiz-adv-x="540" 
d="M94 309l14 49h94l25 100q17 70 68 125t125 55q55 0 90 -21.5t35 -51.5q0 -20 -11 -33.5t-34 -13.5q-17 0 -28.5 11t-16.5 25t-17.5 25t-31.5 11q-31 0 -50.5 -34t-39.5 -105l-26 -93h120l-14 -49h-117l-88 -327q-23 -85 -65.5 -137t-99.5 -52q-41 0 -69.5 19.5
t-28.5 49.5q0 19 10 32t27 13q14 0 25 -10.5t17 -23.5t15.5 -23.5t20.5 -10.5q32 0 64 130l86 340h-99z" />
    <glyph glyph-name="Scommaaccent" unicode="&#x218;" horiz-adv-x="546" 
d="M43 7v212h39q21 -91 72.5 -138.5t124.5 -47.5q60 0 98 33.5t38 87.5q0 52 -32 92t-119 77q-110 47 -155.5 92.5t-45.5 118.5q0 69 59 126.5t153 57.5q65 0 142 -31l42 19h20l20 -205h-32q-26 83 -77 127t-110 44q-56 0 -92.5 -28.5t-36.5 -79.5q0 -93 166 -164
q96 -41 141 -86.5t45 -123.5q0 -96 -63 -149t-161 -53q-81 0 -147 39l-49 -20h-40zM233 -81q0 15 11 26t31 11q28 0 47 -22.5t19 -57.5q0 -65 -85 -112l-16 28q47 27 47 58q0 18 -27 35.5t-27 33.5z" />
    <glyph glyph-name="scommaaccent" unicode="&#x219;" horiz-adv-x="387" 
d="M47 0v150h33q27 -126 115 -126q32 0 53 22.5t21 51.5q0 32 -21 53.5t-85 49.5q-61 26 -88.5 59.5t-27.5 83.5q0 49 35.5 88t100.5 39q46 0 96 -20l25 12h22v-143h-29q-16 57 -47.5 85t-63.5 28t-54 -20t-22 -50q0 -29 23.5 -48t81.5 -46q65 -30 97.5 -62t32.5 -83
q0 -64 -44 -100t-108 -36q-46 0 -103 25l-15 -13h-28zM149 -81q0 15 11 26t31 11q28 0 47 -22.5t19 -57.5q0 -65 -85 -112l-16 28q47 27 47 58q0 18 -27 35.5t-27 33.5z" />
    <glyph glyph-name="dotlessj" unicode="&#x237;" horiz-adv-x="245" 
d="M168 471v-458q0 -90 -40 -159.5t-116 -104.5l-16 29q91 77 91 219v383l-68 28v21l126 42h23z" />
    <glyph glyph-name="schwa" unicode="&#x259;" horiz-adv-x="448" 
d="M40 150q0 32 11 32h281q0 4 0.5 13.5t0.5 14.5q0 90 -41.5 140t-100.5 50q-82 0 -133 -82l-28 19q69 134 185 134q88 0 143.5 -71t55.5 -166q0 -104 -55.5 -175t-140.5 -71q-78 0 -128 52.5t-50 109.5zM219 29q84 0 107 113h-183q-5 -14 -5 -36q0 -35 22.5 -56t58.5 -21z
" />
    <glyph glyph-name="quoteleft" unicode="&#x2bb;" horiz-adv-x="381" 
d="M256 437q0 -23 -12.5 -37.5t-35.5 -14.5q-42 0 -70 38t-28 100q0 69 36.5 119.5t82.5 77.5l23 -37q-80 -62 -80 -125q0 -23 13 -39t29 -24t29 -23t13 -35z" />
    <glyph glyph-name="quoteleft" unicode="&#x2018;" horiz-adv-x="381" 
d="M256 437q0 -23 -12.5 -37.5t-35.5 -14.5q-42 0 -70 38t-28 100q0 69 36.5 119.5t82.5 77.5l23 -37q-80 -62 -80 -125q0 -23 13 -39t29 -24t29 -23t13 -35z" />
    <glyph glyph-name="circumflex" unicode="&#x2c6;" horiz-adv-x="500" 
d="M390 496v-8h-36l-104 104l-104 -104h-36v8l116 164h48z" />
    <glyph glyph-name="caron" unicode="&#x2c7;" horiz-adv-x="500" 
d="M390 660v-8l-116 -164h-48l-116 164v8h36l104 -104l104 104h36z" />
    <glyph glyph-name="breve" unicode="&#x2d8;" horiz-adv-x="500" 
d="M250 491q-50 0 -85 38.5t-35 110.5h40q0 -36 23 -64.5t57 -28.5q32 0 56 27.5t24 65.5h40q0 -72 -35 -110.5t-85 -38.5z" />
    <glyph glyph-name="dotaccent" unicode="&#x2d9;" horiz-adv-x="500" 
d="M188 592q0 26 18 44t43 18t43.5 -18t18.5 -44q0 -25 -18 -43t-44 -18q-25 0 -43 17.5t-18 43.5z" />
    <glyph glyph-name="ring" unicode="&#x2da;" horiz-adv-x="500" 
d="M156 572q0 39 27.5 66.5t66.5 27.5t66.5 -27.5t27.5 -66.5t-27.5 -66.5t-66.5 -27.5t-66.5 27.5t-27.5 66.5zM197 572q0 -24 14 -40t38 -16t38.5 16t14.5 40q0 25 -14.5 41.5t-38.5 16.5q-23 0 -37.5 -16.5t-14.5 -41.5z" />
    <glyph glyph-name="ogonek" unicode="&#x2db;" horiz-adv-x="500" 
d="M292 -187l6 -26q-28 -11 -68 -11q-46 0 -75 21t-29 58q0 48 46.5 95t119.5 79l11 -21q-103 -55 -103 -139q0 -28 15.5 -45t38.5 -17q18 0 38 6z" />
    <glyph glyph-name="tilde" unicode="&#x2dc;" horiz-adv-x="500" 
d="M378 645l26 -10q-14 -48 -43 -84t-55 -36q-15 0 -63.5 30t-63.5 30q-16 0 -27.5 -16t-25.5 -47l-29 12q11 40 41 79t48 39q19 0 65 -30.5t64 -30.5q17 0 36 21t27 43z" />
    <glyph glyph-name="hungarumlaut" unicode="&#x2dd;" horiz-adv-x="500" 
d="M280 488v8l91 164h89v-10l-139 -162h-41zM140 488v8l91 164h89v-10l-139 -162h-41z" />
    <glyph glyph-name="Delta" unicode="&#x394;" horiz-adv-x="540" 
d="M530 0h-520l223 631h45zM237 494l-150 -439h320z" />
    <glyph glyph-name="Delta" unicode="&#x2206;" horiz-adv-x="540" 
d="M530 0h-520l223 631h45zM237 494l-150 -439h320z" />
    <glyph glyph-name="Omega" unicode="&#x3a9;" horiz-adv-x="540" 
d="M269 588q-72 0 -110 -69.5t-38 -155.5q0 -133 38 -228t91 -112l-6 -23h-223l-20 146h29l43 -94h54l6 10q-43 49 -72 128t-29 162q0 114 66.5 200t171.5 86t171.5 -86t66.5 -200q0 -83 -29 -162t-72 -128l6 -10h54l43 94h29l-20 -146h-223l-6 23q53 17 91 112t38 228
q0 53 -15 102.5t-50.5 86t-84.5 36.5z" />
    <glyph glyph-name="Omega" unicode="&#x2126;" horiz-adv-x="540" 
d="M269 588q-72 0 -110 -69.5t-38 -155.5q0 -133 38 -228t91 -112l-6 -23h-223l-20 146h29l43 -94h54l6 10q-43 49 -72 128t-29 162q0 114 66.5 200t171.5 86t171.5 -86t66.5 -200q0 -83 -29 -162t-72 -128l6 -10h54l43 94h29l-20 -146h-223l-6 23q53 17 91 112t38 228
q0 53 -15 102.5t-50.5 86t-84.5 36.5z" />
    <glyph glyph-name="lambda" unicode="&#x3bb;" horiz-adv-x="524" 
d="M256 608l115 -454q16 -65 24 -83.5t23 -18.5q12 0 27 27t32 27q16 0 25 -12t9 -30q0 -32 -25 -52.5t-60 -20.5q-77 0 -100 111l-55 224l-150 -326h-101l217 467l-33 135q-18 79 -58 79q-16 0 -41 -32.5t-43 -32.5q-36 0 -36 39q0 31 31 55t80 24q48 0 78 -35.5t41 -90.5z
" />
    <glyph glyph-name="pi" unicode="&#x3c0;" horiz-adv-x="540" 
d="M167 22q-26 -43 -65 -32q-28 8 -33 34q-5 24 19 43q56 57 80 127t24 183h-31q-35 0 -53 -13t-27 -48l-27 5q15 64 37.5 91t62.5 27h332v-62h-101l-21 -254q-4 -51 32 -51q42 0 65 62l25 -3q-36 -138 -112 -138q-43 0 -63 29t-15 79l27 276h-84q-5 -239 -72 -355z" />
    <glyph glyph-name="uni1e0c" unicode="&#x1e0c;" horiz-adv-x="749" 
d="M315 0h-288v35l90 15v606l-90 15v35h298q180 0 284.5 -95t104.5 -261t-111 -258t-288 -92zM213 50h102q61 0 112 17t92 51.5t64.5 94t23.5 138.5q0 148 -77.5 226.5t-205.5 78.5h-111v-606zM269 -117q0 26 18 44t43 18q26 0 44 -18.5t18 -43.5t-18 -43t-44 -18t-43.5 18
t-17.5 43z" />
    <glyph glyph-name="uni1e0d" unicode="&#x1e0d;" horiz-adv-x="519" 
d="M355 95v284q-16 22 -43 36t-57 14q-50 0 -93.5 -47t-43.5 -141q0 -87 41 -139t90 -52q56 0 106 45zM436 734v-661l58 -28v-27l-93 -30h-24l-25 47h-9q-64 -47 -140 -47q-61 0 -115 59.5t-54 169.5q0 113 64.5 183.5t150.5 70.5q51 0 106 -16v187l-68 29v21l125 42h24z
M202 -117q0 26 18 44t43 18t43.5 -18.5t18.5 -43.5t-18 -43t-44 -18q-25 0 -43 18t-18 43z" />
    <glyph glyph-name="uni1e36" unicode="&#x1e36;" horiz-adv-x="601" 
d="M553 0h-526v35l90 15v606l-90 15v35h280v-35l-94 -15v-613h236l101 154h39zM241 -122q0 26 18 44t43 18q26 0 44 -18t18 -44q0 -25 -18 -43t-44 -18t-43.5 17.5t-17.5 43.5z" />
    <glyph glyph-name="uni1e37" unicode="&#x1e37;" horiz-adv-x="255" 
d="M168 734v-689l60 -15v-30h-201v30l60 15v597l-65 29v21l122 42h24zM69 -122q0 26 18 44t43 18q26 0 44 -18t18 -44q0 -25 -18 -43t-44 -18t-43.5 17.5t-17.5 43.5z" />
    <glyph glyph-name="uni1e42" unicode="&#x1e42;" horiz-adv-x="928" 
d="M696 554h-15l-225 -554h-38l-214 556h-12l-40 -506l86 -15l6 -30l-224 -5v35l85 15l48 598l-99 22v36h190l213 -552h17l224 552h191v-36l-101 -24l29 -596l91 -15v-35h-278v35l91 15zM377 -117q0 26 18 44t43 18q26 0 44 -18.5t18 -43.5t-18 -43t-44 -18t-43.5 18
t-17.5 43z" />
    <glyph glyph-name="uni1e43" unicode="&#x1e43;" horiz-adv-x="789" 
d="M495 0h-201v30l60 15v246q0 63 -23 89.5t-69 26.5q-55 0 -96 -37v-325l60 -15v-30h-201v30l60 15v335l-65 28v21l119 42h24l6 -50l8 -6q75 56 128 56q81 0 113 -70q46 34 81.5 52t73.5 18q56 0 93.5 -39t37.5 -114v-273l60 -15v-30h-201v30l60 15v246q0 63 -23 89.5
t-69 26.5q-40 0 -99 -37q3 -39 3 -41v-284l60 -15v-30zM336 -117q0 26 18 44t43 18t43.5 -18.5t18.5 -43.5t-18 -43t-44 -18q-25 0 -43 18t-18 43z" />
    <glyph glyph-name="uni1e44" unicode="&#x1e44;" horiz-adv-x="783" 
d="M608 174h14v482l-90 15v35h224v-35l-89 -15v-658h-31l-469 574h-14v-522l90 -15v-35h-216v35l81 15v606l-81 15v35h146zM329 832q0 26 18 44t43 18q26 0 44 -18t18 -44q0 -25 -18 -43t-44 -18t-43.5 17.5t-17.5 43.5z" />
    <glyph glyph-name="uni1e45" unicode="&#x1e45;" horiz-adv-x="521" 
d="M496 0h-201v30l60 15v246q0 63 -23.5 89.5t-69.5 26.5q-55 0 -96 -37v-325l60 -15v-30h-201v30l60 15v335l-65 28v21l119 42h24l6 -50l8 -6q75 56 128 56q56 0 93.5 -39t37.5 -114v-273l60 -15v-30zM199 622q0 26 18 44t43 18q26 0 44 -18t18 -44q0 -25 -18 -43t-44 -18
t-43.5 17.5t-17.5 43.5z" />
    <glyph glyph-name="uni1e46" unicode="&#x1e46;" horiz-adv-x="783" 
d="M608 174h14v482l-90 15v35h224v-35l-89 -15v-658h-31l-469 574h-14v-522l90 -15v-35h-216v35l81 15v606l-81 15v35h146zM330 -122q0 26 18 44t43 18t43.5 -18t18.5 -44q0 -25 -18 -43t-44 -18q-25 0 -43 17.5t-18 43.5z" />
    <glyph glyph-name="uni1e47" unicode="&#x1e47;" horiz-adv-x="521" 
d="M496 0h-201v30l60 15v246q0 63 -23.5 89.5t-69.5 26.5q-55 0 -96 -37v-325l60 -15v-30h-201v30l60 15v335l-65 28v21l119 42h24l6 -50l8 -6q75 56 128 56q56 0 93.5 -39t37.5 -114v-273l60 -15v-30zM200 -122q0 26 18 44t43 18t43.5 -18t18.5 -44q0 -25 -18 -43t-44 -18
q-25 0 -43 17.5t-18 43.5z" />
    <glyph glyph-name="uni1e5a" unicode="&#x1e5a;" horiz-adv-x="645" 
d="M354 345v-11q33 -17 67 -72t71 -119t72 -93l65 -15v-35h-143q-30 23 -63 74.5t-57.5 100.5t-59.5 94.5t-69 60.5h-24v-280l100 -15v-35h-286v35l90 15v606l-90 15v35h312q23 0 47.5 -4.5t52.5 -17.5t49.5 -32.5t35.5 -53.5t14 -77q0 -56 -45.5 -107.5t-138.5 -68.5z
M213 656v-281h74q73 0 110 44t37 99q0 138 -113 138h-108zM280 -117q0 26 18 44t43 18t43.5 -18.5t18.5 -43.5t-18 -43t-44 -18q-25 0 -43 18t-18 43z" />
    <glyph glyph-name="uni1e5b" unicode="&#x1e5b;" horiz-adv-x="360" 
d="M255 403l-11 9q-19 -13 -43.5 -42.5t-34.5 -51.5v-273l79 -15v-30h-220v30l60 15v335l-65 28v21l120 42h23l7 -71l9 -4q34 39 60 57t54 18q26 0 43 -17t17 -46q0 -27 -13.5 -43.5t-37.5 -16.5q-21 0 -34 14.5t-13 40.5zM64 -117q0 26 18 44t43 18t43.5 -18.5t18.5 -43.5
t-18 -43t-44 -18q-25 0 -43 18t-18 43z" />
    <glyph glyph-name="uni1e62" unicode="&#x1e62;" horiz-adv-x="546" 
d="M43 7v212h39q21 -91 72.5 -138.5t124.5 -47.5q60 0 98 33.5t38 87.5q0 52 -32 92t-119 77q-110 47 -155.5 92.5t-45.5 118.5q0 69 59 126.5t153 57.5q65 0 142 -31l42 19h20l20 -205h-32q-26 83 -77 127t-110 44q-56 0 -92.5 -28.5t-36.5 -79.5q0 -93 166 -164
q96 -41 141 -86.5t45 -123.5q0 -96 -63 -149t-161 -53q-81 0 -147 39l-49 -20h-40zM216 -122q0 26 18 44t43 18t43.5 -18t18.5 -44q0 -25 -18 -43t-44 -18q-25 0 -43 17.5t-18 43.5z" />
    <glyph glyph-name="uni1e63" unicode="&#x1e63;" horiz-adv-x="387" 
d="M47 0v150h33q27 -126 115 -126q32 0 53 22.5t21 51.5q0 32 -21 53.5t-85 49.5q-61 26 -88.5 59.5t-27.5 83.5q0 49 35.5 88t100.5 39q46 0 96 -20l25 12h22v-143h-29q-16 57 -47.5 85t-63.5 28t-54 -20t-22 -50q0 -29 23.5 -48t81.5 -46q65 -30 97.5 -62t32.5 -83
q0 -64 -44 -100t-108 -36q-46 0 -103 25l-15 -13h-28zM132 -122q0 26 18 44t43 18t43.5 -18t18.5 -44q0 -25 -18 -43t-44 -18q-25 0 -43 17.5t-18 43.5z" />
    <glyph glyph-name="uni1e6c" unicode="&#x1e6c;" horiz-adv-x="712" 
d="M58 706h596l46 -192h-39l-101 149h-156v-613l94 -15v-35h-284v35l94 15v613h-156l-101 -149h-39zM298 -122q0 26 18 44t43 18t43.5 -18t18.5 -44q0 -25 -18 -43t-44 -18q-25 0 -43 17.5t-18 43.5z" />
    <glyph glyph-name="uni1e6d" unicode="&#x1e6d;" horiz-adv-x="320" 
d="M83 406h-61v37l58 36l53 92h31v-113h131v-52h-131v-298q0 -66 54 -66q42 0 77 20l13 -26q-48 -48 -122 -48q-103 0 -103 123v295zM126 -122q0 26 18 44t43 18t43.5 -18t18.5 -44q0 -25 -18 -43t-44 -18q-25 0 -43 17.5t-18 43.5z" />
    <glyph glyph-name="Wgrave" unicode="&#x1e80;" horiz-adv-x="956" 
d="M610 0l-133 472l-135 -472h-60l-184 656l-78 15v35h258v-35l-83 -15l131 -484h16l116 368l-32 116l-68 15v35h248v-35l-83 -15l131 -484h17l140 484l-93 15v35h218v-35l-72 -15l-194 -656h-60zM533 764v-8h-41l-129 127v10h84z" />
    <glyph glyph-name="wgrave" unicode="&#x1e81;" horiz-adv-x="689" 
d="M349 272h-10l-99 -284h-26l-158 425l-46 15v30h195v-30l-60 -15l96 -268h10l76 208l-16 60l-52 15v30h190v-30l-60 -15l88 -268h10l91 268l-59 15v30h160v-30l-59 -15l-147 -425h-26zM399 526v-8h-41l-129 162v10h84z" />
    <glyph glyph-name="Wacute" unicode="&#x1e82;" horiz-adv-x="956" 
d="M610 0l-133 472l-135 -472h-60l-184 656l-78 15v35h258v-35l-83 -15l131 -484h16l116 368l-32 116l-68 15v35h248v-35l-83 -15l131 -484h17l140 484l-93 15v35h218v-35l-72 -15l-194 -656h-60zM423 756v8l86 129h84v-10l-129 -127h-41z" />
    <glyph glyph-name="wacute" unicode="&#x1e83;" horiz-adv-x="689" 
d="M349 272h-10l-99 -284h-26l-158 425l-46 15v30h195v-30l-60 -15l96 -268h10l76 208l-16 60l-52 15v30h190v-30l-60 -15l88 -268h10l91 268l-59 15v30h160v-30l-59 -15l-147 -425h-26zM289 518v8l86 164h84v-10l-129 -162h-41z" />
    <glyph glyph-name="Wdieresis" unicode="&#x1e84;" horiz-adv-x="956" 
d="M610 0l-133 472l-135 -472h-60l-184 656l-78 15v35h258v-35l-83 -15l131 -484h16l116 368l-32 116l-68 15v35h248v-35l-83 -15l131 -484h17l140 484l-93 15v35h218v-35l-72 -15l-194 -656h-60zM613 837q0 -19 -15 -33.5t-34 -14.5q-20 0 -35 14.5t-15 33.5q0 20 15 35
t35 15q18 0 33.5 -15t15.5 -35zM442 837q0 -20 -14 -34t-35 -14q-20 0 -35 14.5t-15 33.5q0 20 15 35t35 15q21 0 35 -14.5t14 -35.5z" />
    <glyph glyph-name="wdieresis" unicode="&#x1e85;" horiz-adv-x="689" 
d="M349 272h-10l-99 -284h-26l-158 425l-46 15v30h195v-30l-60 -15l96 -268h10l76 208l-16 60l-52 15v30h190v-30l-60 -15l88 -268h10l91 268l-59 15v30h160v-30l-59 -15l-147 -425h-26zM479 599q0 -19 -15 -33.5t-34 -14.5q-20 0 -35 14.5t-15 33.5q0 20 15 35t35 15
q18 0 33.5 -15t15.5 -35zM308 599q0 -20 -14 -34t-35 -14q-20 0 -35 14.5t-15 33.5q0 20 15 35t35 15q21 0 35 -14.5t14 -35.5z" />
    <glyph glyph-name="uni1e9e" unicode="&#x1e9e;" horiz-adv-x="747" 
d="M502 -12q-87 0 -155 35l-6 153h43q24 -150 117 -150q54 0 84.5 42t30.5 125q0 70 -36.5 116t-109.5 45q-51 0 -101 -29l-44 50l198 269l-5 12h-305v-606l94 -15v-35h-283v35l93 15v606l-93 16v34h608l10 -41l-189 -254l7 -11q112 21 184.5 -36t72.5 -163q0 -55 -20 -98
t-52 -67t-68.5 -36t-74.5 -12z" />
    <glyph glyph-name="Ygrave" unicode="&#x1ef2;" horiz-adv-x="668" 
d="M362 384l161 272l-93 15v35h218v-35l-72 -15l-194 -328v-278l90 -15v-35h-276v35l90 15v276l-192 330l-74 15v35h258v-35l-85 -15l158 -272h11zM412 764v-8h-41l-129 127v10h84z" />
    <glyph glyph-name="ygrave" unicode="&#x1ef3;" horiz-adv-x="465" 
d="M10 458h191v-30l-59 -15l103 -289h10l98 289l-73 15v30h175v-30l-62 -15l-168 -504q-28 -85 -64.5 -122t-92.5 -37q-32 0 -49 15t-17 37q0 17 13.5 29.5t32.5 12.5q14 0 34 -11.5t36 -11.5q56 0 95 166l-154 426l-49 15v30zM299 526v-8h-41l-129 162v10h84z" />
    <glyph glyph-name="uni2011" unicode="&#x2011;" horiz-adv-x="314" 
d="M32 275h250v-67h-250v67z" />
    <glyph glyph-name="endash" unicode="&#x2013;" horiz-adv-x="484" 
d="M42 275h400v-67h-400v67z" />
    <glyph glyph-name="emdash" unicode="&#x2014;" horiz-adv-x="1020" 
d="M102 270h816v-57h-816v57z" />
    <glyph glyph-name="quoteright" unicode="&#x2019;" horiz-adv-x="381" 
d="M125 668q0 23 12.5 37.5t35.5 14.5q42 0 70 -38t28 -100q0 -69 -36.5 -119.5t-82.5 -77.5l-23 37q80 62 80 125q0 23 -13 39t-29 24t-29 23t-13 35z" />
    <glyph glyph-name="quotesinglbase" unicode="&#x201a;" horiz-adv-x="381" 
d="M125 73q0 23 12.5 37.5t35.5 14.5q42 0 70 -38t28 -100q0 -69 -36.5 -119.5t-82.5 -77.5l-23 37q80 62 80 125q0 23 -13 39t-29 24t-29 23t-13 35z" />
    <glyph glyph-name="quotedblleft" unicode="&#x201c;" horiz-adv-x="621" 
d="M256 437q0 -23 -12.5 -37.5t-35.5 -14.5q-42 0 -70 38t-28 100q0 69 36.5 119.5t82.5 77.5l23 -37q-80 -62 -80 -125q0 -23 13 -39t29 -24t29 -23t13 -35zM496 437q0 -23 -12.5 -37.5t-35.5 -14.5q-42 0 -70 38t-28 100q0 69 36.5 119.5t82.5 77.5l23 -37
q-80 -62 -80 -125q0 -23 13 -39t29 -24t29 -23t13 -35z" />
    <glyph glyph-name="quotedblright" unicode="&#x201d;" horiz-adv-x="621" 
d="M365 668q0 23 12.5 37.5t35.5 14.5q42 0 70 -38t28 -100q0 -69 -36.5 -119.5t-82.5 -77.5l-23 37q80 62 80 125q0 23 -13 39t-29 24t-29 23t-13 35zM125 668q0 23 12.5 37.5t35.5 14.5q42 0 70 -38t28 -100q0 -69 -36.5 -119.5t-82.5 -77.5l-23 37q80 62 80 125
q0 23 -13 39t-29 24t-29 23t-13 35z" />
    <glyph glyph-name="quotedblbase" unicode="&#x201e;" horiz-adv-x="621" 
d="M365 73q0 23 12.5 37.5t35.5 14.5q42 0 70 -38t28 -100q0 -69 -36.5 -119.5t-82.5 -77.5l-23 37q80 62 80 125q0 23 -13 39t-29 24t-29 23t-13 35zM125 73q0 23 12.5 37.5t35.5 14.5q42 0 70 -38t28 -100q0 -69 -36.5 -119.5t-82.5 -77.5l-23 37q80 62 80 125
q0 23 -13 39t-29 24t-29 23t-13 35z" />
    <glyph glyph-name="dagger" unicode="&#x2020;" horiz-adv-x="548" 
d="M498 479q0 -30 -23.5 -47.5t-52.5 -12.5q-5 1 -46 22.5t-88 21.5q0 -89 9.5 -134t40.5 -71q-15 -8 -23.5 -28.5t-15 -86t-6.5 -180.5h-39q0 167 -10 225.5t-34 69.5q49 46 49 205q-35 0 -57 -7t-42.5 -20.5t-33.5 -18.5q-27 -8 -51.5 12t-24.5 50q0 29 23.5 45.5
t52.5 11.5q16 -5 35 -17t41 -19.5t57 -7.5q0 38 -7.5 63t-20.5 49t-18 39q-9 27 9 51t47 24q30 0 49.5 -24t13.5 -51q-2 -11 -23 -56t-21 -95q34 0 56 7t44 21t34 19q28 7 52 -12t24 -48z" />
    <glyph glyph-name="daggerdbl" unicode="&#x2021;" horiz-adv-x="548" 
d="M338 258q-33 -34 -41.5 -77t-8.5 -131q46 0 85.5 21t48.5 23q29 5 52.5 -12t23.5 -47q0 -29 -24.5 -48.5t-51.5 -11.5q-13 5 -34.5 18.5t-43.5 20.5t-56 7q0 -49 21 -94t23 -56q6 -28 -13.5 -52t-49.5 -24q-29 0 -47 24t-9 52q5 14 18 38t20.5 49.5t7.5 62.5
q-35 0 -57 -7.5t-41 -19.5t-35 -17q-29 -5 -52.5 11.5t-23.5 46.5q0 29 24 49t52 13q13 -5 33.5 -19t42.5 -21t57 -7q0 82 -10 131t-39 77q49 48 49 205q-35 0 -57 -7t-42.5 -20.5t-33.5 -18.5q-27 -8 -51.5 12t-24.5 50t23.5 46t52.5 11q17 -4 35.5 -16t41 -20t56.5 -8
q0 38 -7.5 63t-20.5 49.5t-18 38.5q-9 27 9 51t47 24q30 0 49.5 -24t13.5 -51q-2 -11 -23 -56t-21 -95q34 0 56 7t44 21t34 19q28 7 52 -12t24 -48q0 -30 -23.5 -47.5t-52.5 -12.5q-5 1 -46 22.5t-88 21.5q0 -89 9.5 -133.5t40.5 -71.5z" />
    <glyph glyph-name="bullet" unicode="&#x2022;" horiz-adv-x="572" 
d="M150 264q0 56 40 96t96 40t96 -40t40 -96t-40 -96t-96 -40t-96 40t-40 96z" />
    <glyph glyph-name="ellipsis" unicode="&#x2026;" horiz-adv-x="993" 
d="M125 54q0 26 18 44t43 18q26 0 44 -18t18 -44q0 -25 -18 -43t-44 -18t-43.5 17.5t-17.5 43.5zM435 54q0 26 18 44t43 18q26 0 44 -18t18 -44q0 -25 -18 -43t-44 -18t-43.5 17.5t-17.5 43.5zM745 54q0 26 18 44t43 18q26 0 44 -18t18 -44q0 -25 -18 -43t-44 -18
t-43.5 17.5t-17.5 43.5z" />
    <glyph glyph-name="perthousand" unicode="&#x2030;" horiz-adv-x="828" 
d="M536 115q0 74 47 129t101 55q46 0 75 -32t29 -86q0 -86 -44 -139.5t-98 -53.5q-49 0 -79.5 36t-30.5 91zM696 254q-33 0 -62 -51t-29 -110q0 -30 13 -47t33 -17q34 0 62 41.5t28 120.5q0 30 -12.5 46.5t-32.5 16.5zM295 517l-3 -1q-1 -82 -44 -135.5t-100 -53.5
q-48 0 -78 36t-30 91q0 74 47 129t101 55q34 0 59.5 -18.5t36.5 -51.5q6 -15 25 -24.5t42 -9.5q48 0 84 31q24 67 55 67q24 0 24 -23q0 -30 -44 -61l-210 -286l-197 -282l-33 26l205 275l159 227l-2 2q-21 -12 -48 -12q-30 0 -49 19zM264 115q0 74 47 129t101 55
q46 0 75 -32t29 -86q0 -86 -44 -139.5t-98 -53.5q-49 0 -79.5 36t-30.5 91zM424 254q-33 0 -62 -51t-29 -110q0 -30 13 -47t33 -17q34 0 62 41.5t28 120.5q0 30 -12.5 46.5t-32.5 16.5zM200 593q-33 0 -62 -51t-29 -110q0 -64 48 -64q33 0 60.5 42.5t27.5 119.5
q0 30 -12.5 46.5t-32.5 16.5z" />
    <glyph glyph-name="uni2032" unicode="&#x2032;" horiz-adv-x="290" 
d="M68 375l70 266l86 -31l-114 -250z" />
    <glyph glyph-name="uni2033" unicode="&#x2033;" horiz-adv-x="480" 
d="M68 375l70 266l86 -31l-114 -250zM258 375l70 266l86 -31l-114 -250z" />
    <glyph glyph-name="guilsinglleft" unicode="&#x2039;" horiz-adv-x="445" 
d="M103 240l182 219l28 -20l-113 -201v-15l113 -203l-28 -24l-182 221v23z" />
    <glyph glyph-name="guilsinglright" unicode="&#x203a;" horiz-adv-x="445" 
d="M160 459l182 -219v-23l-182 -221l-28 24l113 203v15l-113 201z" />
    <glyph glyph-name="uni2042" unicode="&#x2042;" horiz-adv-x="896" 
d="M471 543q62 -31 120 -47q35 -9 28 -39q-7 -25 -31 -32q-20 -6 -37 11q-55 57 -93 82q6 -71 22 -124q11 -33 -18 -43q-26 -9 -42 10q-11 12 -6 33q17 76 20 124q-52 -32 -93 -82q-20 -23 -47 -3q-23 17 -17 39q5 15 26 22q73 23 119 49q-65 28 -119 40q-29 5 -26 33
q3 26 25 34q19 5 37 -10q52 -47 95 -77q-10 74 -23 121q-10 33 18 44q26 11 44 -8q13 -13 7 -36q-21 -84 -24 -121q55 36 95 77q26 29 50 5q20 -19 12 -43q-6 -15 -24 -19q-85 -22 -118 -40zM261 173q62 -31 120 -47q35 -9 28 -39q-7 -25 -31 -32q-20 -6 -37 11
q-55 57 -93 82q6 -71 22 -124q11 -33 -18 -43q-26 -9 -42 10q-11 12 -6 33q17 76 20 124q-52 -32 -93 -82q-20 -23 -47 -3q-23 17 -17 39q5 15 26 22q73 23 119 49q-65 28 -119 40q-29 5 -26 33q3 26 25 34q19 6 37 -10q52 -47 95 -77q-10 74 -23 121q-10 33 18 44
q26 11 44 -8q13 -13 7 -36q-21 -84 -24 -121q55 36 95 77q26 29 50 5q20 -19 12 -43q-6 -15 -24 -19q-85 -22 -118 -40zM681 173q62 -31 120 -47q35 -9 28 -39q-7 -25 -31 -32q-20 -6 -37 11q-55 57 -93 82q6 -71 22 -124q11 -33 -18 -43q-26 -9 -42 10q-11 12 -6 33
q17 76 20 124q-52 -32 -93 -82q-20 -23 -47 -3q-23 17 -17 39q5 15 26 22q73 23 119 49q-65 28 -119 40q-29 5 -26 33q3 26 25 34q19 5 37 -10q52 -47 95 -77q-10 74 -23 121q-10 33 18 44q26 11 44 -8q13 -13 7 -36q-21 -84 -24 -121q55 36 95 77q26 29 50 5q20 -19 12 -43
q-6 -15 -24 -19q-85 -22 -118 -40z" />
    <glyph glyph-name="fraction" unicode="&#x2044;" 
d="M111 -54l241 370l223 353l36 -24l-234 -349l-231 -375z" />
    <glyph glyph-name="zero.sups" unicode="&#x2070;" horiz-adv-x="288" 
d="M22 579q0 92 35.5 139.5t90.5 47.5q53 0 86 -48t33 -139q0 -84 -33 -127.5t-86 -43.5q-55 0 -90.5 43.5t-35.5 127.5zM90 579q0 -72 16.5 -106t41.5 -34q22 0 37 35t15 105q0 78 -15 117t-37 39q-24 0 -41 -40.5t-17 -115.5z" />
    <glyph glyph-name="four.sups" unicode="&#x2074;" horiz-adv-x="279" 
d="M190 770l30 -9v-205h39v-41h-39v-100h-62v99h-132l-9 23zM158 664l-6 4l-79 -107l3 -5h82v108z" />
    <glyph glyph-name="five.sups" unicode="&#x2075;" horiz-adv-x="260" 
d="M43 592l16 167h145l14 22h19l-12 -79h-137l-6 -59l5 -5q10 5 28 5q46 0 82.5 -30t36.5 -80q0 -55 -41.5 -90t-97.5 -35q-34 0 -54 11.5t-20 27.5q0 27 29 27q12 0 34 -12.5t38 -12.5q50 0 50 62q0 36 -21.5 58t-53.5 22q-24 0 -44 -9z" />
    <glyph glyph-name="six.sups" unicode="&#x2076;" horiz-adv-x="276" 
d="M99 617l7 -3q20 20 57 20q36 0 66 -27t30 -78q0 -48 -30 -84.5t-91 -36.5q-51 0 -83 37.5t-32 105.5q0 76 50.5 141t136.5 92l9 -26q-104 -53 -120 -141zM96 571q-4 -12 -4 -49q0 -38 14 -59t34 -21q23 0 36.5 24.5t13.5 60.5q0 34 -13.5 52.5t-31.5 18.5q-33 0 -49 -27z
" />
    <glyph glyph-name="seven.sups" unicode="&#x2077;" horiz-adv-x="258" 
d="M237 759l10 -14q-85 -165 -120 -316q-6 -21 -40 -21q-19 0 -29 5t-6 16q43 120 138 266l-3 8h-130l-18 -43h-25l24 99h199z" />
    <glyph glyph-name="eight.sups" unicode="&#x2078;" horiz-adv-x="287" 
d="M31 493q0 59 66 94v5q-56 29 -56 80q0 39 29.5 66.5t78.5 27.5q44 0 72 -22.5t28 -56.5q0 -50 -59 -87v-4q66 -35 66 -88q0 -46 -31.5 -73t-83.5 -27q-48 0 -79 23.5t-31 61.5zM90 491q0 -51 51 -51q25 0 39.5 15.5t14.5 39.5q0 41 -64 77q-41 -24 -41 -81zM101 689
q0 -47 58 -74q29 26 29 71q0 22 -11.5 35t-31.5 13q-22 0 -33 -13.5t-11 -31.5z" />
    <glyph glyph-name="nine.sups" unicode="&#x2079;" horiz-adv-x="276" 
d="M181 548l-9 4q-21 -17 -50 -17q-43 0 -73.5 29.5t-30.5 80.5q0 55 36.5 88t81.5 33q52 0 85 -39t33 -104q0 -89 -55.5 -154.5t-145.5 -75.5v29q49 9 85 43.5t43 82.5zM182 600q6 15 6 58q0 33 -14.5 54.5t-39.5 21.5q-22 0 -35 -22.5t-13 -62.5q0 -79 48 -79q27 0 48 30z
" />
    <glyph glyph-name="Euro" unicode="&#x20ac;" horiz-adv-x="652" 
d="M70 386h63q18 115 89.5 183.5t167.5 68.5q106 0 192 -63l-30 -126h-26q1 34 -8 61t-23.5 43t-33.5 26.5t-36.5 14.5t-34.5 4q-63 0 -107 -53.5t-56 -158.5h305l-10 -38h-299v-35v-17h289l-10 -38h-277q11 -108 58.5 -167t104.5 -59q117 0 158 130l36 -13
q-52 -161 -204 -161q-97 0 -166 71.5t-82 198.5h-70l10 38h57v16q0 24 1 36h-68z" />
    <glyph glyph-name="uni2117" unicode="&#x2117;" horiz-adv-x="703" 
d="M44 296q0 126 90.5 216.5t217.5 90.5q131 0 219 -89.5t88 -217.5q0 -127 -90.5 -217.5t-216.5 -90.5q-129 0 -218.5 87t-89.5 221zM98 294q0 -113 71.5 -187t183.5 -74q113 0 182.5 74t69.5 187q0 116 -72 191t-181 75q-111 0 -182.5 -76t-71.5 -190zM378 269h-47v-108
l46 -8v-24h-155v24l43 8v270l-43 8v24h158q49 0 86 -24.5t37 -72.5q0 -44 -33.5 -70.5t-91.5 -26.5zM331 427v-124h51q21 0 37 16.5t16 42.5q0 65 -57 65h-47z" />
    <glyph glyph-name="trademark" unicode="&#x2122;" horiz-adv-x="670" 
d="M535 634h-7l-78 -179h-17l-74 179h-5l-15 -150l33 -6v-23h-92v23l33 6l19 193l-38 6v23h94l62 -165h7l71 165h92v-23l-35 -6l12 -193l31 -6v-23h-118v23l34 6zM55 706h210l14 -74h-20l-32 47h-38v-195l32 -6v-23h-121v23l32 6v195h-37l-32 -47h-21z" />
    <glyph glyph-name="oneseventh" unicode="&#x2150;" 
d="M111 -54l241 370l223 353l36 -24l-234 -349l-231 -375zM75 580v30q55 2 99 28l31 -3v-309l53 -8v-29h-171v29l55 8v257q-39 -10 -67 -3zM665 304l10 -14q-85 -165 -120 -316q-6 -21 -40 -21q-19 0 -29 5t-6 16q43 120 138 266l-3 8h-130l-18 -43h-25l24 99h199z" />
    <glyph glyph-name="oneninth" unicode="&#x2151;" 
d="M111 -54l241 370l223 353l36 -24l-234 -349l-231 -375zM75 580v30q55 2 99 28l31 -3v-309l53 -8v-29h-171v29l55 8v257q-39 -10 -67 -3zM578 93l-9 4q-21 -17 -50 -17q-43 0 -73.5 29.5t-30.5 80.5q0 55 36.5 88t81.5 33q52 0 85 -39t33 -104q0 -89 -55.5 -154.5
t-145.5 -75.5v29q49 9 85 43.5t43 82.5zM579 145q6 15 6 58q0 33 -14.5 54.5t-39.5 21.5q-22 0 -35 -22.5t-13 -62.5q0 -79 48 -79q27 0 48 30z" />
    <glyph glyph-name="onethird" unicode="&#x2153;" 
d="M111 -54l241 370l223 353l36 -24l-234 -349l-231 -375zM75 580v30q55 2 99 28l31 -3v-309l53 -8v-29h-171v29l55 8v257q-39 -10 -67 -3zM619 249q0 -50 -68 -92v-5q34 -6 57.5 -33.5t23.5 -61.5q0 -47 -39.5 -75.5t-85.5 -28.5q-92 0 -92 49q0 11 7.5 19t20.5 8
q17 0 33 -21t34 -21q20 0 38 18.5t18 48.5q0 34 -26.5 55.5t-40.5 14.5l-20 -11l-13 21q40 19 63.5 43t23.5 48q0 39 -40 39q-38 0 -71 -38l-17 15q20 28 51.5 49t67.5 21q31 0 53 -16t22 -46z" />
    <glyph glyph-name="twothirds" unicode="&#x2154;" 
d="M111 -54l241 370l223 353l36 -24l-234 -349l-231 -375zM192 533q0 24 -14 40.5t-39 16.5q-36 0 -83 -55l-17 17q64 88 134 88q43 0 67 -22.5t24 -57.5q0 -42 -45.5 -103t-91.5 -101l3 -8h107l24 39l23 -7l-29 -91h-214l-6 18q53 42 105 109t52 117zM619 249
q0 -50 -68 -92v-5q34 -6 57.5 -33.5t23.5 -61.5q0 -47 -39.5 -75.5t-85.5 -28.5q-92 0 -92 49q0 11 7.5 19t20.5 8q17 0 33 -21t34 -21q20 0 38 18.5t18 48.5q0 34 -26.5 55.5t-40.5 14.5l-20 -11l-13 21q40 19 63.5 43t23.5 48q0 39 -40 39q-38 0 -71 -38l-17 15
q20 28 51.5 49t67.5 21q31 0 53 -16t22 -46z" />
    <glyph glyph-name="onefifth" unicode="&#x2155;" 
d="M111 -54l241 370l223 353l36 -24l-234 -349l-231 -375zM75 580v30q55 2 99 28l31 -3v-309l53 -8v-29h-171v29l55 8v257q-39 -10 -67 -3zM440 137l16 167h145l14 22h19l-12 -79h-137l-6 -59l5 -5q10 5 28 5q46 0 82.5 -30t36.5 -80q0 -55 -41.5 -90t-97.5 -35
q-34 0 -54 11.5t-20 27.5q0 27 29 27q12 0 34 -12.5t38 -12.5q50 0 50 62q0 36 -21.5 58t-53.5 22q-24 0 -44 -9z" />
    <glyph glyph-name="twofifths" unicode="&#x2156;" 
d="M111 -54l241 370l223 353l36 -24l-234 -349l-231 -375zM192 533q0 24 -14 40.5t-39 16.5q-36 0 -83 -55l-17 17q64 88 134 88q43 0 67 -22.5t24 -57.5q0 -42 -45.5 -103t-91.5 -101l3 -8h107l24 39l23 -7l-29 -91h-214l-6 18q53 42 105 109t52 117zM440 137l16 167h145
l14 22h19l-12 -79h-137l-6 -59l5 -5q10 5 28 5q46 0 82.5 -30t36.5 -80q0 -55 -41.5 -90t-97.5 -35q-34 0 -54 11.5t-20 27.5q0 27 29 27q12 0 34 -12.5t38 -12.5q50 0 50 62q0 36 -21.5 58t-53.5 22q-24 0 -44 -9z" />
    <glyph glyph-name="threefifths" unicode="&#x2157;" 
d="M111 -54l241 370l223 353l36 -24l-234 -349l-231 -375zM265 578q0 -50 -68 -92v-5q34 -6 57.5 -33.5t23.5 -61.5q0 -47 -39.5 -75.5t-85.5 -28.5q-92 0 -92 49q0 11 7.5 19t20.5 8q17 0 33 -21t34 -21q20 0 38 18.5t18 48.5q0 34 -26.5 55.5t-40.5 14.5l-20 -11l-13 21
q40 19 63.5 43t23.5 48q0 39 -40 39q-38 0 -71 -38l-17 15q20 28 51.5 49t67.5 21q31 0 53 -16t22 -46zM440 137l16 167h145l14 22h19l-12 -79h-137l-6 -59l5 -5q10 5 28 5q46 0 82.5 -30t36.5 -80q0 -55 -41.5 -90t-97.5 -35q-34 0 -54 11.5t-20 27.5q0 27 29 27
q12 0 34 -12.5t38 -12.5q50 0 50 62q0 36 -21.5 58t-53.5 22q-24 0 -44 -9z" />
    <glyph glyph-name="fourfifths" unicode="&#x2158;" 
d="M111 -54l241 370l223 353l36 -24l-234 -349l-231 -375zM213 644l30 -9v-205h39v-41h-39v-100h-62v99h-132l-9 23zM181 538l-6 4l-79 -107l3 -5h82v108zM440 137l16 167h145l14 22h19l-12 -79h-137l-6 -59l5 -5q10 5 28 5q46 0 82.5 -30t36.5 -80q0 -55 -41.5 -90
t-97.5 -35q-34 0 -54 11.5t-20 27.5q0 27 29 27q12 0 34 -12.5t38 -12.5q50 0 50 62q0 36 -21.5 58t-53.5 22q-24 0 -44 -9z" />
    <glyph glyph-name="onesixth" unicode="&#x2159;" 
d="M111 -54l241 370l223 353l36 -24l-234 -349l-231 -375zM75 580v30q55 2 99 28l31 -3v-309l53 -8v-29h-171v29l55 8v257q-39 -10 -67 -3zM475 162l7 -3q20 20 57 20q36 0 66 -27t30 -78q0 -48 -30 -84.5t-91 -36.5q-51 0 -83 37.5t-32 105.5q0 76 50.5 141t136.5 92l9 -26
q-104 -53 -120 -141zM472 116q-4 -12 -4 -49q0 -38 14 -59t34 -21q23 0 36.5 24.5t13.5 60.5q0 34 -13.5 52.5t-31.5 18.5q-33 0 -49 -27z" />
    <glyph glyph-name="fivesixths" unicode="&#x215a;" 
d="M111 -54l241 370l223 353l36 -24l-234 -349l-231 -375zM85 466l16 167h145l14 22h19l-12 -79h-137l-6 -59l5 -5q10 5 28 5q46 0 82.5 -30t36.5 -80q0 -55 -41.5 -90t-97.5 -35q-34 0 -54 11.5t-20 27.5q0 27 29 27q12 0 34 -12.5t38 -12.5q50 0 50 62q0 36 -21.5 58
t-53.5 22q-25 0 -44 -9zM475 162l7 -3q20 20 57 20q36 0 66 -27t30 -78q0 -48 -30 -84.5t-91 -36.5q-51 0 -83 37.5t-32 105.5q0 76 50.5 141t136.5 92l9 -26q-104 -53 -120 -141zM472 116q-4 -12 -4 -49q0 -38 14 -59t34 -21q23 0 36.5 24.5t13.5 60.5q0 34 -13.5 52.5
t-31.5 18.5q-33 0 -49 -27z" />
    <glyph glyph-name="oneeighth" unicode="&#x215b;" 
d="M111 -54l241 370l223 353l36 -24l-234 -349l-231 -375zM75 580v30q55 2 99 28l31 -3v-309l53 -8v-29h-171v29l55 8v257q-39 -10 -67 -3zM428 38q0 59 66 94v5q-56 29 -56 80q0 39 29.5 66.5t78.5 27.5q44 0 72 -22.5t28 -56.5q0 -50 -59 -87v-4q66 -35 66 -88
q0 -46 -31.5 -73t-83.5 -27q-48 0 -79 23.5t-31 61.5zM487 36q0 -51 51 -51q25 0 39.5 15.5t14.5 39.5q0 41 -64 77q-41 -24 -41 -81zM498 234q0 -47 58 -74q29 26 29 71q0 22 -11.5 35t-31.5 13q-22 0 -33 -13.5t-11 -31.5z" />
    <glyph glyph-name="threeeighths" unicode="&#x215c;" 
d="M111 -54l241 370l223 353l36 -24l-234 -349l-231 -375zM265 578q0 -50 -68 -92v-5q34 -6 57.5 -33.5t23.5 -61.5q0 -47 -39.5 -75.5t-85.5 -28.5q-92 0 -92 49q0 11 7.5 19t20.5 8q17 0 33 -21t34 -21q20 0 38 18.5t18 48.5q0 34 -26.5 55.5t-40.5 14.5l-20 -11l-13 21
q40 19 63.5 43t23.5 48q0 39 -40 39q-38 0 -71 -38l-17 15q20 28 51.5 49t67.5 21q31 0 53 -16t22 -46zM428 38q0 59 66 94v5q-56 29 -56 80q0 39 29.5 66.5t78.5 27.5q44 0 72 -22.5t28 -56.5q0 -50 -59 -87v-4q66 -35 66 -88q0 -46 -31.5 -73t-83.5 -27q-48 0 -79 23.5
t-31 61.5zM487 36q0 -51 51 -51q25 0 39.5 15.5t14.5 39.5q0 41 -64 77q-41 -24 -41 -81zM498 234q0 -47 58 -74q29 26 29 71q0 22 -11.5 35t-31.5 13q-22 0 -33 -13.5t-11 -31.5z" />
    <glyph glyph-name="fiveeighths" unicode="&#x215d;" 
d="M111 -54l241 370l223 353l36 -24l-234 -349l-231 -375zM85 466l16 167h145l14 22h19l-12 -79h-137l-6 -59l5 -5q10 5 28 5q46 0 82.5 -30t36.5 -80q0 -55 -41.5 -90t-97.5 -35q-34 0 -54 11.5t-20 27.5q0 27 29 27q12 0 34 -12.5t38 -12.5q50 0 50 62q0 36 -21.5 58
t-53.5 22q-25 0 -44 -9zM428 38q0 59 66 94v5q-56 29 -56 80q0 39 29.5 66.5t78.5 27.5q44 0 72 -22.5t28 -56.5q0 -50 -59 -87v-4q66 -35 66 -88q0 -46 -31.5 -73t-83.5 -27q-48 0 -79 23.5t-31 61.5zM487 36q0 -51 51 -51q25 0 39.5 15.5t14.5 39.5q0 41 -64 77
q-41 -24 -41 -81zM498 234q0 -47 58 -74q29 26 29 71q0 22 -11.5 35t-31.5 13q-22 0 -33 -13.5t-11 -31.5z" />
    <glyph glyph-name="seveneighths" unicode="&#x215e;" 
d="M111 -54l241 370l223 353l36 -24l-234 -349l-231 -375zM311 633l10 -14q-85 -165 -120 -316q-6 -21 -40 -21q-19 0 -29 5t-6 16q43 120 138 266l-3 8h-130l-18 -43h-25l24 99h199zM428 38q0 59 66 94v5q-56 29 -56 80q0 39 29.5 66.5t78.5 27.5q44 0 72 -22.5t28 -56.5
q0 -50 -59 -87v-4q66 -35 66 -88q0 -46 -31.5 -73t-83.5 -27q-48 0 -79 23.5t-31 61.5zM487 36q0 -51 51 -51q25 0 39.5 15.5t14.5 39.5q0 41 -64 77q-41 -24 -41 -81zM498 234q0 -47 58 -74q29 26 29 71q0 22 -11.5 35t-31.5 13q-22 0 -33 -13.5t-11 -31.5z" />
    <glyph glyph-name="uni2191" unicode="&#x2191;" horiz-adv-x="700" 
d="M357 605l264 -237l-46 -61l-183 163v-420h-84v420l-183 -163l-47 61l266 237h13z" />
    <glyph glyph-name="uni2193" unicode="&#x2193;" horiz-adv-x="700" 
d="M621 287l-264 -237h-13l-266 237l47 61l183 -163v420h84v-420l183 163z" />
    <glyph glyph-name="partialdiff" unicode="&#x2202;" horiz-adv-x="540" 
d="M283 594q-84 0 -109 -130h-40l12 113q20 25 62 43t86 18q94 0 143 -78t49 -201q0 -179 -71 -275t-190 -96q-71 0 -121 48t-50 134q0 105 66 167t146 62q39 0 75 -18t53 -51l5 3v39q0 113 -27.5 167.5t-88.5 54.5zM381 270q-10 33 -37 55t-58 22q-55 0 -92.5 -48.5
t-37.5 -129.5q0 -60 21.5 -94.5t62.5 -34.5q57 0 99 63t42 167z" />
    <glyph glyph-name="product" unicode="&#x220f;" horiz-adv-x="540" 
d="M2 626h536v-40l-78 -15v-516l78 -15v-40h-252v40l78 15v516h-188v-516l78 -15v-40h-252v40l78 15v516l-78 15v40z" />
    <glyph glyph-name="summation" unicode="&#x2211;" horiz-adv-x="540" 
d="M146 89l5 -10h250l86 111h41l-50 -190h-465l-8 15l262 270v12l-242 317l8 12h441l26 -171h-36l-89 131h-210l-5 -7l198 -256v-16z" />
    <glyph glyph-name="minus" unicode="&#x2212;" horiz-adv-x="540" 
d="M472 210h-404v62h404v-62z" />
    <glyph glyph-name="radical" unicode="&#x221a;" horiz-adv-x="540" 
d="M317 61h13l152 695l49 -10l-184 -883h-37l-195 526l-98 -35l-16 37l175 59z" />
    <glyph glyph-name="infinity" unicode="&#x221e;" horiz-adv-x="540" 
d="M127 149q-60 0 -92 38.5t-32 88.5q0 54 36.5 92.5t87.5 38.5q74 0 141 -92q33 43 66.5 67.5t77.5 24.5q61 0 92.5 -38t31.5 -89q0 -54 -36.5 -92.5t-87.5 -38.5q-75 0 -141 91q-70 -91 -144 -91zM144 357q-33 0 -54 -22t-21 -59q0 -36 20.5 -57.5t50.5 -21.5q18 0 37 13
t31.5 28t33.5 43q-27 37 -49.5 56.5t-48.5 19.5zM395 199q33 0 54 22t21 59q0 35 -21 57t-50 22q-18 0 -37 -13.5t-31.5 -28t-33.5 -43.5q26 -37 48.5 -56t49.5 -19z" />
    <glyph glyph-name="integral" unicode="&#x222b;" horiz-adv-x="540" 
d="M303 497l12 -487q2 -94 -48 -154t-127 -60q-31 0 -53 17t-22 49q0 21 12.5 37.5t36.5 16.5q50 0 57 -64l26 -7q19 18 31 63.5t10 91.5l-12 487q-2 95 47.5 154t125.5 59q32 0 54.5 -16.5t22.5 -48.5q0 -21 -13 -37.5t-37 -16.5q-49 0 -56 64l-26 7q-44 -41 -41 -155z" />
    <glyph glyph-name="approxequal" unicode="&#x2248;" horiz-adv-x="540" 
d="M429 388l53 -22q-16 -49 -48.5 -82.5t-82.5 -33.5q-35 0 -89.5 36t-79.5 36q-24 0 -43 -10.5t-26.5 -20.5t-20.5 -31l-44 32q17 33 53.5 61t80.5 28q34 0 89 -35t81 -35q28 0 49.5 23t27.5 54zM445 229l47 -23q-14 -40 -51 -68t-78 -28q-43 0 -100.5 35.5t-80.5 35.5
q-39 0 -72 -64l-46 30q52 93 118 93q32 0 90 -35t91 -35q30 0 51.5 17t30.5 42z" />
    <glyph glyph-name="notequal" unicode="&#x2260;" horiz-adv-x="540" 
d="M472 287h-143l-40 -88h183v-62h-212l-56 -123l-56 26l44 97h-124v62h153l40 88h-193v62h222l53 115l56 -26l-41 -89h114v-62z" />
    <glyph glyph-name="lessequal" unicode="&#x2264;" horiz-adv-x="540" 
d="M472 435l-328 -134l328 -134v-67l-404 170v62l404 170v-67zM472 0h-404v62h404v-62z" />
    <glyph glyph-name="greaterequal" unicode="&#x2265;" horiz-adv-x="540" 
d="M396 301l-328 134v67l404 -170v-62l-404 -170v67zM472 0h-404v62h404v-62z" />
    <glyph glyph-name="lozenge" unicode="&#x25ca;" horiz-adv-x="540" 
d="M269 -98l-245 373l245 375l246 -375zM108 275l161 -246l162 246l-162 248z" />
    <glyph glyph-name="uni2605" unicode="&#x2605;" horiz-adv-x="570" 
d="M127 -8l-4 3l66 186l-166 118l2 5l201 -7l57 193h6l58 -193l199 5l1 -4l-163 -117l66 -188l-3 -1l-161 118z" />
    <glyph glyph-name="commaaccent" unicode="&#xf6c3;" horiz-adv-x="500" 
d="M205 -81q0 15 11 26t31 11q28 0 47 -22.5t19 -57.5q0 -65 -85 -112l-16 28q47 27 47 58q0 18 -27 35.5t-27 33.5z" />
    <glyph glyph-name="apple" unicode="&#xf8ff;" horiz-adv-x="540" 
d="M209 720h11l32 -121l-3 -82l68 -8l64 99l8 99h12l7 -99l-17 -129l36 -85l35 -38l1 -6l-7 -8v-18l8 -4l-1 -9l-17 -36l-36 7l-11 101l-34 56l-13 -2l26 -60l4 -99l-37 -46l3 -22l26 -37l7 -71l-64 -23l-33 16l-35 57l-75 25l-28 47l-3 42l-30 41l-2 58l4 27l-11 44z
M487 244l6 -9l-3 -37l-12 -17l-5 -33l23 -8l-3 -10l-23 7l-43 -26l-5 10l39 23l5 36l-36 14l-13 31l-1 10l14 15l24 4zM270 305l36 -14l11 13l-3 14l-11 10l-30 -10zM327 64l3 -4l-7 -21l-40 -43l-68 -23l-97 14l-55 48l-18 62l34 95l11 -1l-9 -71l22 -41l37 -33l88 -16
l48 3zM142 438l9 -9l33 34l11 76h-18z" />
    <glyph glyph-name="zero.tnum" horiz-adv-x="500" 
d="M32 298q0 167 63 253.5t161 86.5q94 0 152.5 -87t58.5 -253q0 -152 -58.5 -231t-152.5 -79q-98 0 -161 78.5t-63 231.5zM127 299q0 -143 36 -208t93 -65q52 0 84.5 66t32.5 207q0 153 -33 227t-84 74q-55 0 -92 -77.5t-37 -223.5z" />
    <glyph glyph-name="one.tnum" horiz-adv-x="500" 
d="M94 552v32q90 1 167 50l45 -5v-579l105 -15v-35h-294v35l105 15v507q-76 -18 -128 -5z" />
    <glyph glyph-name="two.tnum" horiz-adv-x="500" 
d="M338 467q0 42 -25 71t-67 29q-69 0 -155 -105l-30 32q36 56 92 100t124 44q73 0 114 -41.5t41 -103.5q0 -79 -89 -199.5t-178 -199.5l6 -14h224l45 68l33 -13l-56 -135h-371l-12 32q61 49 126 117t121.5 159.5t56.5 158.5z" />
    <glyph glyph-name="three.tnum" horiz-adv-x="500" 
d="M409 526q0 -83 -114 -158v-10q54 -16 94 -66t40 -108q0 -92 -64 -144t-142 -52t-121.5 25t-43.5 64q0 17 13.5 30.5t38.5 13.5q18 0 33 -13t25 -29t30.5 -29t47.5 -13q37 0 68 29.5t31 83.5q0 47 -28 86t-60 54.5t-49 7.5l-36 -20l-23 35q78 40 125.5 89t47.5 99
q0 35 -20.5 53t-55.5 18q-78 0 -148 -97l-28 30q97 133 220 133q50 0 84.5 -31t34.5 -81z" />
    <glyph glyph-name="four.tnum" horiz-adv-x="500" 
d="M336 646l40 -17v-383h80v-61h-80v-185h-79v184h-254l-16 37zM297 494l-11 6l-179 -244l5 -10h185v248z" />
    <glyph glyph-name="five.tnum" horiz-adv-x="500" 
d="M99 342l28 284h245l26 39h34l-21 -119h-244l-13 -133l10 -10q24 11 62 11q79 0 140 -53t61 -143q0 -103 -70.5 -166.5t-177.5 -63.5q-56 0 -90 17.5t-34 45.5q0 19 12 32.5t35 13.5q25 0 61.5 -23.5t77.5 -23.5q50 0 79.5 32t29.5 99q0 65 -45 109.5t-115 44.5
q-24 0 -73 -11z" />
    <glyph glyph-name="six.tnum" horiz-adv-x="500" 
d="M154 368l16 -8q47 38 120 38q61 0 110.5 -48.5t49.5 -142.5q0 -39 -11.5 -76t-34.5 -70t-65 -53t-96 -20q-86 0 -140 68t-54 192q0 137 88 255t237 168l10 -30q-198 -99 -230 -273zM148 283q-7 -32 -7 -88q0 -72 30.5 -117.5t75.5 -45.5q52 0 81.5 48.5t29.5 130.5
q0 69 -28.5 104.5t-72.5 35.5q-74 0 -109 -68z" />
    <glyph glyph-name="seven.tnum" horiz-adv-x="500" 
d="M446 626l19 -26q-170 -354 -222 -575q-9 -37 -60 -37q-22 0 -34.5 10t-6.5 28q78 226 250 506l-7 14h-255l-29 -73h-40l43 153h342z" />
    <glyph glyph-name="eight.tnum" horiz-adv-x="500" 
d="M55 141q0 61 33 99t91 69v9q-48 24 -76.5 64.5t-28.5 84.5q0 70 51 120.5t134 50.5q74 0 123.5 -40.5t49.5 -102.5q0 -45 -27 -81t-84 -73v-8q59 -31 91.5 -67.5t32.5 -96.5q0 -83 -54.5 -132t-144.5 -49q-84 0 -137.5 42t-53.5 111zM126 139q0 -48 30 -78t90 -30
q56 0 90 31.5t34 82.5q0 47 -35 79t-103 66q-48 -22 -77 -61.5t-29 -89.5zM148 499q0 -48 32.5 -81t92.5 -59q83 53 83 133q0 47 -29 75t-75 28q-47 0 -75.5 -28.5t-28.5 -67.5z" />
    <glyph glyph-name="nine.tnum" horiz-adv-x="500" 
d="M350 251l-16 8q-51 -41 -110 -41q-72 0 -123.5 53.5t-51.5 147.5q0 101 62 160t140 59q88 0 143.5 -70.5t55.5 -189.5q0 -161 -97 -280t-254 -138l5 35q97 23 166 89.5t80 166.5zM351 336q11 48 11 105q0 71 -29.5 113.5t-85.5 42.5q-50 0 -77.5 -44t-27.5 -128
q0 -161 105 -161q60 0 104 72z" />
    <glyph glyph-name="exclamdown.case" horiz-adv-x="333" 
d="M228 658q0 -26 -18 -44t-43 -18t-43.5 18t-18.5 44q0 25 18 43t44 18q25 0 43 -17.5t18 -43.5zM217 -22h-110l38 524h34z" />
    <glyph glyph-name="questiondown.case" horiz-adv-x="403" 
d="M320 662q0 -26 -18 -44t-43 -18t-43.5 18t-18.5 44q0 25 18 43t44 18q25 0 43 -17.5t18 -43.5zM281 512v-206q-90 11 -136.5 -26t-46.5 -104q0 -49 30.5 -77t88.5 -28q93 0 93 -46q0 -23 -15 -37.5t-43 -14.5q-72 0 -136 67.5t-64 170.5q0 94 56.5 140t129.5 39v122h43z
" />
    <glyph glyph-name="hyphen.case" horiz-adv-x="314" 
d="M32 355h250v-67h-250v67z" />
    <glyph glyph-name="endash.case" horiz-adv-x="484" 
d="M42 355h400v-67h-400v67z" />
    <glyph glyph-name="emdash.case" horiz-adv-x="1020" 
d="M102 350h816v-57h-816v57z" />
    <glyph glyph-name="quoteleft.tight" horiz-adv-x="311" 
d="M216 477q0 -23 -13 -37.5t-38 -14.5q-35 0 -60 36.5t-25 96.5q0 102 106 162l20 -33q-66 -41 -66 -96q0 -22 19 -39t38 -34.5t19 -40.5z" />
    <glyph glyph-name="quoteright.tight" horiz-adv-x="311" 
d="M95 668q0 23 13 37.5t38 14.5q35 0 60 -36.5t25 -96.5q0 -102 -106 -162l-20 33q66 41 66 96q0 22 -19 39t-38 34.5t-19 40.5z" />
    <glyph glyph-name="quotedblleft.tight" horiz-adv-x="511" 
d="M216 477q0 -23 -13 -37.5t-38 -14.5q-35 0 -60 36.5t-25 96.5q0 102 106 162l20 -33q-66 -41 -66 -96q0 -22 19 -39t38 -34.5t19 -40.5zM416 477q0 -23 -13 -37.5t-38 -14.5q-35 0 -60 36.5t-25 96.5q0 102 106 162l20 -33q-66 -41 -66 -96q0 -22 19 -39t38 -34.5
t19 -40.5z" />
    <glyph glyph-name="quotedblright.tight" horiz-adv-x="511" 
d="M295 668q0 23 13 37.5t38 14.5q35 0 60 -36.5t25 -96.5q0 -102 -106 -162l-20 33q66 41 66 96q0 22 -19 39t-38 34.5t-19 40.5zM95 668q0 23 13 37.5t38 14.5q35 0 60 -36.5t25 -96.5q0 -102 -106 -162l-20 33q66 41 66 96q0 22 -19 39t-38 34.5t-19 40.5z" />
    <glyph glyph-name="quotesinglbase.tight" horiz-adv-x="311" 
d="M95 73q0 23 13 37.5t38 14.5q35 0 60 -36.5t25 -96.5q0 -102 -106 -162l-20 33q66 41 66 96q0 22 -19 39t-38 34.5t-19 40.5z" />
    <glyph glyph-name="quotedblbase.tight" horiz-adv-x="511" 
d="M295 73q0 23 13 37.5t38 14.5q35 0 60 -36.5t25 -96.5q0 -102 -106 -162l-20 33q66 41 66 96q0 22 -19 39t-38 34.5t-19 40.5zM95 73q0 23 13 37.5t38 14.5q35 0 60 -36.5t25 -96.5q0 -102 -106 -162l-20 33q66 41 66 96q0 22 -19 39t-38 34.5t-19 40.5z" />
    <glyph glyph-name="guilsinglleft.case" horiz-adv-x="445" 
d="M103 330l182 219l28 -20l-113 -201v-15l113 -203l-28 -24l-182 221v23z" />
    <glyph glyph-name="guilsinglright.case" horiz-adv-x="445" 
d="M160 549l182 -219v-23l-182 -221l-28 24l113 203v15l-113 201z" />
    <glyph glyph-name="guillemotleft.case" horiz-adv-x="652" 
d="M103 330l182 219l28 -20l-113 -201v-15l113 -203l-28 -24l-182 221v23zM310 330l182 219l28 -20l-113 -201v-15l113 -203l-28 -24l-182 221v23z" />
    <glyph glyph-name="guillemotright.case" horiz-adv-x="652" 
d="M367 549l182 -219v-23l-182 -221l-28 24l113 203v15l-113 201zM160 549l182 -219v-23l-182 -221l-28 24l113 203v15l-113 201z" />
    <glyph glyph-name="parenleft.case" horiz-adv-x="352" 
d="M331 -153l-24 -29q-236 221 -236 505q0 148 61.5 264t173.5 220l25 -34q-180 -184 -180 -450q0 -305 180 -476z" />
    <glyph glyph-name="parenright.case" horiz-adv-x="352" 
d="M45 -182l-24 29q180 171 180 476q0 266 -180 450l25 34q112 -104 173.5 -220t61.5 -264q0 -284 -236 -505z" />
    <glyph glyph-name="bracketleft.case" horiz-adv-x="335" 
d="M300 798v-45q-74 -15 -145 -5v-858q65 6 151 -6v-48q-38 6 -107.5 6.5t-118.5 -5.5v960q50 -5 119 -5t101 6z" />
    <glyph glyph-name="bracketright.case" horiz-adv-x="335" 
d="M35 753v45q32 -6 101.5 -6t118.5 5v-960q-49 6 -118.5 5.5t-107.5 -6.5v48q86 12 151 6v858q-71 -10 -145 5z" />
    <glyph glyph-name="braceleft.case" horiz-adv-x="435" 
d="M127 343v-16q63 -9 107 -51.5t44 -104.5q0 -27 -22.5 -95t-22.5 -108q0 -94 151 -94v-42q-131 0 -179.5 35t-48.5 111q0 37 21.5 103.5t21.5 97.5q0 59 -43.5 90t-114.5 31v66q67 0 112.5 35t45.5 82q0 35 -20.5 93.5t-20.5 91.5q0 71 49.5 100.5t170.5 29.5v-42
q-145 0 -145 -79q0 -39 22.5 -102t22.5 -87q0 -53 -43.5 -92.5t-107.5 -52.5z" />
    <glyph glyph-name="braceright.case" horiz-adv-x="435" 
d="M308 327v16q-64 13 -107.5 52.5t-43.5 92.5q0 24 22.5 87t22.5 102q0 79 -145 79v42q121 0 170.5 -29.5t49.5 -100.5q0 -33 -20.5 -91.5t-20.5 -93.5q0 -47 45.5 -82t112.5 -35v-66q-71 0 -114.5 -31t-43.5 -90q0 -31 21.5 -97.5t21.5 -103.5q0 -76 -48.5 -111
t-179.5 -35v42q151 0 151 94q0 40 -22.5 108t-22.5 95q0 62 44 104.5t107 51.5z" />
    <glyph glyph-name="ampersand.case" horiz-adv-x="747" 
d="M461 599q0 -51 -36 -92t-100 -81q99 -88 167 -183q43 68 87 164l-71 15v31h194v-31l-70 -15q-57 -116 -115 -201q41 -62 81 -146q8 -18 22 -18q11 0 21 9t31 37l23 -16q-40 -84 -103 -84q-36 0 -60 35l-72 106q-119 -141 -223 -141q-74 0 -129.5 62t-55.5 141t38.5 126
t132.5 91q-72 84 -72 162q0 44 59 96t111 52q48 0 94 -43t46 -76zM247 382q-1 0 -1 0.5t-1 0.5q-58 -27 -83.5 -61t-25.5 -82q0 -87 48.5 -134.5t97.5 -47.5q66 0 153 107q-88 126 -188 217zM221 593q0 -56 78 -139q82 62 82 134q0 33 -22.5 61.5t-48.5 28.5
q-28 0 -58.5 -28t-30.5 -57z" />
    <glyph glyph-name="zero.onum" horiz-adv-x="515" 
d="M45 228q0 105 61 174t151 69q94 0 153.5 -69t59.5 -174q0 -109 -59.5 -174.5t-153.5 -65.5t-153 67.5t-59 172.5zM138 228q0 -98 34.5 -149t84.5 -51q120 0 120 200q0 98 -32 150.5t-88 52.5q-53 0 -86 -52.5t-33 -150.5z" />
    <glyph glyph-name="one.onum" horiz-adv-x="376" 
d="M53 405v28q79 -1 151 33l30 -4v-417l84 -15v-30h-250v30l85 15v350q-62 -7 -100 10z" />
    <glyph glyph-name="two.onum" horiz-adv-x="461" 
d="M300 323q0 35 -23 55t-64 20q-71 0 -155 -76l-23 25q41 51 97 87.5t117 36.5q66 0 104 -33t38 -86q0 -40 -28 -82t-58.5 -68.5t-80 -64.5t-64.5 -51l5 -11h180l44 47l32 -10l-50 -112h-336l-12 32q7 5 48.5 35.5t74 57t71.5 62.5t61 71.5t22 64.5z" />
    <glyph glyph-name="three.onum" horiz-adv-x="453" 
d="M386 359q0 -83 -114 -158v-10q54 -16 94 -66t40 -108q0 -92 -64 -144t-142 -52t-121.5 25t-43.5 64q0 17 13.5 30.5t38.5 13.5q18 0 33 -13t25 -29t30.5 -29t47.5 -13q37 0 68 29.5t31 83.5q0 47 -28 86t-60 54.5t-49 7.5l-36 -20l-23 35q78 40 125.5 89t47.5 99
q0 35 -20.5 53t-55.5 18q-78 0 -148 -97l-28 30q97 133 220 133q50 0 84.5 -31t34.5 -81z" />
    <glyph glyph-name="four.onum" horiz-adv-x="504" 
d="M346 479l40 -17v-383h80v-61h-80v-185h-79v184h-254l-16 37zM307 327l-11 6l-179 -244l5 -10h185v248z" />
    <glyph glyph-name="five.onum" horiz-adv-x="456" 
d="M79 175l28 284h245l26 39h34l-21 -119h-244l-13 -133l10 -10q24 11 62 11q79 0 140 -53t61 -143q0 -103 -70.5 -166.5t-177.5 -63.5q-56 0 -90 17.5t-34 45.5q0 19 12 32.5t35 13.5q26 0 62 -23.5t77 -23.5q50 0 79.5 32t29.5 99q0 65 -45 109.5t-115 44.5q-23 0 -73 -11
z" />
    <glyph glyph-name="six.onum" horiz-adv-x="485" 
d="M152 368l16 -8q47 38 120 38q61 0 110.5 -48.5t49.5 -142.5q0 -39 -11.5 -76t-34.5 -70t-65 -53t-96 -20q-86 0 -140 68t-54 192q0 137 88 255t237 168l10 -30q-198 -99 -230 -273zM146 283q-7 -32 -7 -88q0 -72 30.5 -117.5t75.5 -45.5q52 0 81.5 48.5t29.5 130.5
q0 69 -28.5 104.5t-72.5 35.5q-74 0 -109 -68z" />
    <glyph glyph-name="seven.onum" horiz-adv-x="451" 
d="M412 459l19 -26q-170 -354 -222 -575q-9 -37 -60 -37q-22 0 -34.5 10t-6.5 28q78 226 250 506l-7 14h-255l-29 -73h-40l43 153h342z" />
    <glyph glyph-name="eight.onum" horiz-adv-x="504" 
d="M57 141q0 61 33 99t91 69v9q-48 24 -76.5 64.5t-28.5 84.5q0 70 51 120.5t134 50.5q74 0 123.5 -40.5t49.5 -102.5q0 -45 -27 -81t-84 -73v-8q59 -31 91.5 -67.5t32.5 -96.5q0 -83 -54.5 -132t-144.5 -49q-84 0 -137.5 42t-53.5 111zM128 139q0 -48 30 -78t90 -30
q56 0 90 31.5t34 82.5q0 47 -35 79t-103 66q-48 -22 -77 -61.5t-29 -89.5zM150 499q0 -48 32.5 -81t92.5 -59q83 53 83 133q0 47 -29 75t-75 28q-47 0 -75.5 -28.5t-28.5 -67.5z" />
    <glyph glyph-name="nine.onum" horiz-adv-x="485" 
d="M338 84l-16 8q-51 -41 -110 -41q-72 0 -123.5 53.5t-51.5 147.5q0 101 62 160t140 59q88 0 143.5 -70.5t55.5 -189.5q0 -161 -97 -280t-254 -138l5 35q97 23 166 89.5t80 166.5zM339 169q11 48 11 105q0 71 -29.5 113.5t-85.5 42.5q-50 0 -77.5 -44t-27.5 -128
q0 -161 105 -161q60 0 104 72z" />
    <glyph glyph-name="zero.onum.tnum" horiz-adv-x="500" 
d="M48 228q0 105 58 174t144 69q89 0 146 -69t57 -174q0 -109 -57 -174.5t-146 -65.5q-90 0 -146 67.5t-56 172.5zM141 228q0 -98 31.5 -149t77.5 -51q110 0 110 200q0 98 -29 150.5t-81 52.5q-48 0 -78.5 -52.5t-30.5 -150.5z" />
    <glyph glyph-name="one.onum.tnum" horiz-adv-x="500" 
d="M110 403v30q83 -1 161 33l35 -4v-417l94 -15v-30h-270v30l95 15v348q-73 -7 -115 10z" />
    <glyph glyph-name="two.onum.tnum" horiz-adv-x="500" 
d="M325 323q0 35 -23 55t-64 20q-71 0 -155 -76l-23 25q41 51 97 87.5t117 36.5q66 0 104 -33t38 -86q0 -40 -28 -82t-58.5 -68.5t-80 -64.5t-64.5 -51l5 -11h180l44 47l32 -10l-50 -112h-336l-12 32q7 5 48.5 35.5t74 57t71.5 62.5t61 71.5t22 64.5z" />
    <glyph glyph-name="three.onum.tnum" horiz-adv-x="500" 
d="M402 360q0 -83 -114 -158v-10q54 -16 94 -66t40 -108q0 -92 -64 -144t-142 -52t-121.5 25t-43.5 64q0 17 13.5 30.5t38.5 13.5q18 0 33 -13t25 -29t30.5 -29t47.5 -13q37 0 68 29.5t31 83.5q0 47 -28 86t-60 54.5t-49 7.5l-36 -20l-23 35q78 40 125.5 89t47.5 99
q0 35 -20.5 53t-55.5 18q-78 0 -148 -97l-28 30q97 133 220 133q50 0 84.5 -31t34.5 -81z" />
    <glyph glyph-name="four.onum.tnum" horiz-adv-x="500" 
d="M338 480l40 -17v-383h80v-61h-80v-185h-79v184h-254l-16 37zM299 328l-11 6l-179 -244l5 -10h185v248z" />
    <glyph glyph-name="five.onum.tnum" horiz-adv-x="500" 
d="M93 176l28 284h245l26 39h34l-21 -119h-244l-13 -133l10 -10q24 11 62 11q79 0 140 -53t61 -143q0 -103 -70.5 -166.5t-177.5 -63.5q-56 0 -90 17.5t-34 45.5q0 19 12 32.5t35 13.5q26 0 62 -23.5t77 -23.5q50 0 79.5 32t29.5 99q0 65 -45 109.5t-115 44.5q-24 0 -73 -11
z" />
    <glyph glyph-name="six.onum.tnum" horiz-adv-x="500" 
d="M158 368l16 -8q47 38 120 38q61 0 110.5 -48.5t49.5 -142.5q0 -39 -11.5 -76t-34.5 -70t-65 -53t-96 -20q-86 0 -140 68t-54 192q0 137 88 255t237 168l10 -30q-198 -99 -230 -273zM152 283q-7 -32 -7 -88q0 -72 30.5 -117.5t75.5 -45.5q52 0 81.5 48.5t29.5 130.5
q0 69 -28.5 104.5t-72.5 35.5q-74 0 -109 -68z" />
    <glyph glyph-name="seven.onum.tnum" horiz-adv-x="500" 
d="M441 460l19 -26q-170 -354 -222 -575q-9 -37 -60 -37q-22 0 -34.5 10t-6.5 28q78 226 250 506l-7 14h-255l-29 -73h-40l43 153h342z" />
    <glyph glyph-name="eight.onum.tnum" horiz-adv-x="500" 
d="M57 141q0 61 33 99t91 69v9q-48 24 -76.5 64.5t-28.5 84.5q0 70 51 120.5t134 50.5q74 0 123.5 -40.5t49.5 -102.5q0 -45 -27 -81t-84 -73v-8q59 -31 91.5 -67.5t32.5 -96.5q0 -83 -54.5 -132t-144.5 -49q-84 0 -137.5 42t-53.5 111zM128 139q0 -48 30 -78t90 -30
q56 0 90 31.5t34 82.5q0 47 -35 79t-103 66q-48 -22 -77 -61.5t-29 -89.5zM150 499q0 -48 32.5 -81t92.5 -59q83 53 83 133q0 47 -29 75t-75 28q-47 0 -75.5 -28.5t-28.5 -67.5z" />
    <glyph glyph-name="nine.onum.tnum" horiz-adv-x="500" 
d="M350 85l-16 8q-51 -41 -110 -41q-72 0 -123.5 53.5t-51.5 147.5q0 101 62 160t140 59q88 0 143.5 -70.5t55.5 -189.5q0 -161 -97 -280t-254 -138l5 35q97 23 166 89.5t80 166.5zM351 170q11 48 11 105q0 71 -29.5 113.5t-85.5 42.5q-50 0 -77.5 -44t-27.5 -128
q0 -161 105 -161q60 0 104 72z" />
    <glyph glyph-name="dollar.onum" horiz-adv-x="463" 
d="M249 555v-85q43 -3 89 -24l20 11h14l12 -138h-25q-31 98 -110 110v-156q76 -25 112.5 -60t36.5 -88q0 -62 -40.5 -96.5t-108.5 -39.5v-77h-33v77q-61 4 -96 29l-17 -12h-22l-11 142h29q26 -113 117 -121v176q-77 25 -110.5 58.5t-33.5 81.5q0 46 40 84.5t104 42.5v85h33z
M330 105q0 29 -17.5 49.5t-63.5 37.5v-164q39 4 60 25t21 52zM140 361q0 -47 76 -77v146q-36 -3 -56 -22t-20 -47z" />
    <glyph glyph-name="cent.onum" horiz-adv-x="433" 
d="M242 546v-95q63 0 101 -26t38 -63q0 -38 -44 -38q-22 0 -34.5 13.5t-16 29.5t-14.5 31t-30 18v-332h8q35 0 66 21t49 50l27 -13q-20 -52 -59.5 -86t-90.5 -38v-98h-34v98q-72 8 -116 69.5t-44 144.5q0 81 44.5 142t115.5 74v98h34zM124 248q0 -129 84 -158v322
q-35 -14 -59.5 -58t-24.5 -106z" />
    <glyph glyph-name="sterling.onum" horiz-adv-x="474" 
d="M73 262h59q-20 53 -20 85q0 60 44 92t103 32q63 0 99 -28.5t36 -63.5q0 -16 -9.5 -26t-20.5 -10q-18 0 -30 15.5t-18.5 34.5t-21 34.5t-36.5 15.5q-25 0 -43.5 -21t-18.5 -60q0 -13 2.5 -27.5t6 -23.5t9 -25t8.5 -24h110v-34h-102q3 -15 3 -32q0 -68 -40 -103l5 -8
q21 6 30 6q30 0 69 -32.5t64 -32.5q12 0 20.5 7.5t8.5 19.5q0 10 -19 25.5t-19 30.5q0 26 28 26q18 0 31 -17.5t13 -46.5q0 -40 -26.5 -61.5t-62.5 -21.5q-55 0 -105 20t-75 44h-3q-34 -64 -72 -64q-17 0 -17 18q0 42 84 71q13 41 13 79q0 27 -15 72h-72v34z" />
    <glyph glyph-name="yen.onum" horiz-adv-x="507" 
d="M105 191h107l-134 227l-55 13v29h200v-29l-61 -13l106 -183h12l106 174l-76 22v29h174v-29l-57 -22l-131 -218h106v-33h-109v-39h109v-33h-109v-44l66 -13v-29h-211v29l67 13v44h-110v33h110v39h-110v33z" />
    <glyph glyph-name="Euro.onum" horiz-adv-x="538" 
d="M71 283h49q14 86 69.5 137t130.5 51q88 0 153 -47l-22 -93h-22q2 53 -34 77.5t-75 24.5q-43 0 -75.5 -38t-41.5 -112h232l-7 -32h-228v-21v-17h220l-6 -32h-211q9 -73 43 -112.5t77 -39.5q88 0 121 88l29 -9q-41 -120 -162 -120q-74 0 -127 51t-65 142h-54l6 32h45v16v22
h-51z" />
    <glyph glyph-name="numbersign.onum" horiz-adv-x="482" 
d="M83 373h88l34 163h50l-34 -163h90l34 163h50l-34 -163h79v-59h-91l-32 -151h82v-59h-94l-40 -191h-50l40 191h-90l-40 -191h-50l40 191h-73v59h85l32 151h-76v59zM209 314l-32 -151h90l32 151h-90z" />
    <glyph glyph-name="percent.onum" horiz-adv-x="465" 
d="M233 376l-2 -1q-1 -59 -33 -97.5t-75 -38.5q-40 0 -65.5 27t-25.5 68q0 56 38.5 96.5t82.5 40.5q58 0 77 -52q9 -25 50 -25q32 0 57 23q21 50 47 50q27 0 27 -17q0 -22 -33 -46l-157 -213l-144 -210l-37 20l153 204l114 164l-2 2q-17 -9 -35 -9q-23 0 -37 14zM224 83
q0 55 38.5 96t81.5 41q37 0 60 -23.5t23 -64.5q0 -64 -34.5 -104t-76.5 -40q-41 0 -66.5 26.5t-25.5 68.5zM347 184q-25 0 -46.5 -36.5t-21.5 -81.5q0 -21 11 -32.5t30 -11.5q26 0 49 31t23 84q0 22 -12.5 34.5t-32.5 12.5zM156 435q-25 0 -46.5 -36.5t-21.5 -81.5
q0 -44 42 -44q25 0 48 32t23 83q0 22 -12.5 34.5t-32.5 12.5z" />
    <glyph glyph-name="perthousand.onum" horiz-adv-x="692" 
d="M233 376l-2 -1q-1 -59 -33 -97.5t-75 -38.5q-40 0 -65.5 27t-25.5 68q0 56 38.5 96.5t82.5 40.5q58 0 77 -52q9 -25 50 -25q32 0 57 23q21 50 47 50q27 0 27 -17q0 -22 -33 -46l-157 -213l-144 -210l-37 20l153 204l114 164l-2 2q-17 -9 -35 -9q-23 0 -37 14zM224 83
q0 55 38.5 96t81.5 41q37 0 60 -23.5t23 -64.5q0 -64 -34.5 -104t-76.5 -40q-41 0 -66.5 26.5t-25.5 68.5zM347 184q-25 0 -46.5 -36.5t-21.5 -81.5q0 -21 11 -32.5t30 -11.5q26 0 49 31t23 84q0 22 -12.5 34.5t-32.5 12.5zM156 435q-25 0 -46.5 -36.5t-21.5 -81.5
q0 -44 42 -44q25 0 48 32t23 83q0 22 -12.5 34.5t-32.5 12.5zM451 83q0 55 38.5 96t81.5 41q37 0 60 -23.5t23 -64.5q0 -64 -34.5 -104t-76.5 -40q-41 0 -66.5 26.5t-25.5 68.5zM574 184q-25 0 -46.5 -36.5t-21.5 -81.5q0 -21 11 -32.5t30 -11.5q26 0 49 31t23 84
q0 22 -12.5 34.5t-32.5 12.5z" />
    <glyph glyph-name="ordfeminine.onum" horiz-adv-x="322" 
d="M186 254v64l-43 -23q-14 -5 -27 -19.5t-13 -30.5q0 -19 9 -30.5t26 -11.5q19 0 33.5 15t14.5 36zM224 157q-35 0 -41 42h-6q-46 -44 -81 -44q-21 0 -36 26.5t-15 50.5q0 51 70 81l70 32v23q0 33 -9 47.5t-30 14.5q-35 0 -53 -26q10 -12 10 -23q0 -14 -8.5 -22t-19.5 -8
q-12 0 -21 9t-9 23q0 23 22 39q66 49 93 49q37 0 58 -21.5t21 -56.5v-161q0 -27 18 -27q13 0 23 22l17 -7q-10 -32 -31 -47.5t-42 -15.5z" />
    <glyph glyph-name="ordmasculine.onum" horiz-adv-x="328" 
d="M35 312q0 71 37 115t92 44q57 0 93 -42.5t36 -116.5q0 -76 -35.5 -116.5t-93.5 -40.5q-55 0 -92 42t-37 115zM97 314q0 -68 19.5 -99.5t47.5 -31.5q32 0 49.5 27.5t17.5 103.5q0 129 -67 129q-28 0 -47.5 -30.5t-19.5 -98.5z" />
    <glyph glyph-name="degree.onum" horiz-adv-x="367" 
d="M40 314q0 59 42 101.5t101 42.5t101.5 -42.5t42.5 -101.5t-42.5 -101t-101.5 -42t-101 42.5t-42 100.5zM96 314q0 -41 23.5 -68t62.5 -27q40 0 64 27t24 68t-24 69t-64 28q-39 0 -62.5 -27.5t-23.5 -69.5z" />
    <glyph glyph-name="zero.tallfig" horiz-adv-x="565" 
d="M45 343q0 182 68.5 278.5t175.5 96.5q103 0 167 -96.5t64 -278.5q0 -172 -64 -263.5t-167 -91.5q-107 0 -175.5 91t-68.5 264zM145 344q0 -165 40 -239t104 -74q59 0 95.5 75t36.5 238q0 170 -35.5 250.5t-91.5 80.5q-64 0 -106.5 -85.5t-42.5 -245.5z" />
    <glyph glyph-name="one.tallfig" horiz-adv-x="427" 
d="M58 625v37q92 1 170 50l45 -5v-657l102 -15v-35h-294v35l103 15v583q-73 -21 -126 -8z" />
    <glyph glyph-name="two.tallfig" horiz-adv-x="524" 
d="M355 529q0 55 -27.5 84t-74.5 29q-76 0 -165 -105l-30 32q114 149 231 149q75 0 120 -40t45 -109q0 -70 -52.5 -168.5t-111.5 -172t-115 -129.5l6 -14h234l49 71l31 -13l-56 -143h-391l-12 32q77 69 145 148t121 176.5t53 172.5z" />
    <glyph glyph-name="three.tallfig" horiz-adv-x="473" 
d="M406 586q0 -52 -35 -99t-81 -80v-10q55 -14 95.5 -70.5t40.5 -125.5q0 -94 -67 -153.5t-161 -59.5q-72 0 -117.5 24t-45.5 61q0 19 13.5 34t38.5 15q23 0 41.5 -12.5t29.5 -27.5t30.5 -27.5t44.5 -12.5q39 0 71.5 35t32.5 98q0 55 -29.5 97t-62.5 58t-50 8l-36 -20
l-26 39q83 43 133.5 96t50.5 109q0 39 -23.5 62t-61.5 23q-43 0 -84.5 -25.5t-72.5 -66.5l-28 30q40 53 97.5 93t127.5 40q56 0 95 -36.5t39 -95.5z" />
    <glyph glyph-name="four.tallfig" horiz-adv-x="524" 
d="M356 713l49 -17v-449h86v-62h-86v-185h-88v185h-264l-16 36zM317 548l-11 6l-191 -297l5 -10h197v301z" />
    <glyph glyph-name="five.tallfig" horiz-adv-x="474" 
d="M79 387l28 319h270l19 25h34l-20 -110h-262l-14 -157l8 -8q24 8 78 8q80 0 143.5 -58.5t63.5 -155.5q0 -119 -78 -190.5t-204 -71.5q-46 0 -78 16.5t-32 42.5q0 50 59 50q27 0 66 -21t74 -21q47 0 79 40t32 115q0 76 -45.5 123t-113.5 47q-47 0 -89 -11z" />
    <glyph glyph-name="six.tallfig" horiz-adv-x="505" 
d="M159 395l9 -3q54 46 130 46q65 0 117.5 -53t52.5 -158q0 -43 -12 -83t-36 -76t-68 -58t-101 -22q-90 0 -147 73.5t-57 206.5q0 150 84.5 271t250.5 187l8 -31q-89 -47 -151.5 -125t-79.5 -175zM151 323q-7 -47 -7 -108q0 -79 32 -128.5t79 -49.5q55 0 85.5 53t30.5 141
q0 76 -30 115.5t-76 39.5q-34 0 -65 -16t-49 -47z" />
    <glyph glyph-name="seven.tallfig" horiz-adv-x="471" 
d="M432 706l19 -26q-69 -144 -135 -331t-97 -324q-9 -37 -60 -37q-25 0 -39 10t-7 28q92 301 252 581l-7 14h-262l-29 -73h-40l43 158h362z" />
    <glyph glyph-name="eight.tallfig" horiz-adv-x="524" 
d="M57 161q0 69 34 110.5t95 76.5v9q-52 27 -81 73t-29 97q0 79 53 135t142 56q80 0 131 -45.5t51 -117.5q0 -51 -27 -90t-88 -82v-8q61 -35 95 -78t34 -113q0 -90 -57 -143t-152 -53q-88 0 -144.5 47.5t-56.5 125.5zM133 159q0 -55 31 -89t94 -34q58 0 93.5 35.5t35.5 93.5
q0 53 -38 90.5t-110 73.5q-48 -25 -77 -69.5t-29 -100.5zM155 559q0 -99 135 -158q45 29 63.5 64.5t18.5 86.5q0 55 -29 86.5t-79 31.5q-51 0 -80 -32.5t-29 -78.5z" />
    <glyph glyph-name="nine.tallfig" horiz-adv-x="505" 
d="M353 296l-11 8q-55 -41 -120 -41q-76 0 -130.5 60.5t-54.5 165.5t65.5 167t146.5 62q93 0 151 -73t58 -197q0 -119 -40.5 -216t-125.5 -162.5t-205 -79.5v35q105 26 180 95.5t86 175.5zM354 386q11 41 11 125q0 74 -31 117.5t-89 43.5q-52 0 -81 -46.5t-29 -130.5
q0 -181 110 -181q70 0 109 72z" />
    <glyph glyph-name="zero.tallfig.tnum" horiz-adv-x="520" 
d="M37 343q0 182 64.5 278.5t164.5 96.5q96 0 156 -97t60 -278q0 -172 -60 -263.5t-156 -91.5q-100 0 -164.5 91t-64.5 264zM137 344q0 -165 36 -239t93 -74q52 0 84.5 75t32.5 238q0 170 -31.5 250.5t-80.5 80.5q-57 0 -95.5 -85.5t-38.5 -245.5z" />
    <glyph glyph-name="one.tallfig.tnum" horiz-adv-x="520" 
d="M101 625v37q92 1 170 50l45 -5v-657l102 -15v-35h-294v35l103 15v583q-73 -21 -126 -8z" />
    <glyph glyph-name="two.tallfig.tnum" horiz-adv-x="520" 
d="M341 529q0 55 -27.5 84t-74.5 29q-76 0 -165 -105l-30 32q114 149 231 149q75 0 120 -40t45 -109q0 -70 -52.5 -168.5t-111.5 -172t-115 -129.5l6 -14h234l49 71l31 -13l-56 -143h-391l-12 32q77 69 145 148t121 176.5t53 172.5z" />
    <glyph glyph-name="three.tallfig.tnum" horiz-adv-x="520" 
d="M426 586q0 -52 -35 -99t-81 -80v-10q55 -14 95.5 -70.5t40.5 -125.5q0 -94 -67 -153.5t-161 -59.5q-72 0 -117.5 24t-45.5 61q0 19 13.5 34t38.5 15q23 0 41.5 -12.5t29.5 -27.5t30.5 -27.5t44.5 -12.5q39 0 71.5 35t32.5 98q0 55 -29.5 97t-62.5 58t-50 8l-36 -20
l-26 39q83 43 133.5 96t50.5 109q0 39 -23.5 62t-61.5 23q-43 0 -84.5 -25.5t-72.5 -66.5l-28 30q40 53 97.5 93t127.5 40q56 0 95 -36.5t39 -95.5z" />
    <glyph glyph-name="four.tallfig.tnum" horiz-adv-x="520" 
d="M341 713l49 -17v-449h86v-62h-86v-185h-88v185h-264l-16 36zM302 548l-11 6l-191 -297l5 -10h197v301z" />
    <glyph glyph-name="five.tallfig.tnum" horiz-adv-x="520" 
d="M99 387l28 319h270l19 25h34l-20 -110h-262l-14 -157l8 -8q24 8 78 8q80 0 143.5 -58.5t63.5 -155.5q0 -119 -78 -190.5t-204 -71.5q-46 0 -78 16.5t-32 42.5q0 50 59 50q27 0 66 -21t74 -21q47 0 79 40t32 115q0 76 -45.5 123t-113.5 47q-47 0 -89 -11z" />
    <glyph glyph-name="six.tallfig.tnum" horiz-adv-x="520" 
d="M161 395l9 -3q54 46 130 46q65 0 117.5 -53t52.5 -158q0 -43 -12 -83t-36 -76t-68 -58t-101 -22q-90 0 -147 73.5t-57 206.5q0 150 84.5 271t250.5 187l8 -31q-89 -47 -151.5 -125t-79.5 -175zM153 323q-7 -47 -7 -108q0 -79 32 -128.5t79 -49.5q55 0 85.5 53t30.5 141
q0 76 -30 115.5t-76 39.5q-34 0 -65 -16t-49 -47z" />
    <glyph glyph-name="seven.tallfig.tnum" horiz-adv-x="520" 
d="M464 706l19 -26q-69 -144 -135 -331t-97 -324q-9 -37 -60 -37q-25 0 -39 10t-7 28q92 301 252 581l-7 14h-262l-29 -73h-40l43 158h362z" />
    <glyph glyph-name="eight.tallfig.tnum" horiz-adv-x="520" 
d="M55 161q0 69 34 110.5t95 76.5v9q-52 27 -81 73t-29 97q0 79 53 135t142 56q80 0 131 -45.5t51 -117.5q0 -51 -27 -90t-88 -82v-8q61 -35 95 -78t34 -113q0 -90 -57 -143t-152 -53q-88 0 -144.5 47.5t-56.5 125.5zM131 159q0 -55 31 -89t94 -34q58 0 93.5 35.5t35.5 93.5
q0 53 -38 90.5t-110 73.5q-48 -25 -77 -69.5t-29 -100.5zM153 559q0 -99 135 -158q45 29 63.5 64.5t18.5 86.5q0 55 -29 86.5t-79 31.5q-51 0 -80 -32.5t-29 -78.5z" />
    <glyph glyph-name="nine.tallfig.tnum" horiz-adv-x="520" 
d="M365 296l-11 8q-55 -41 -120 -41q-76 0 -130.5 60.5t-54.5 165.5t65.5 167t146.5 62q93 0 151 -73t58 -197q0 -119 -40.5 -216t-125.5 -162.5t-205 -79.5v35q105 26 180 95.5t86 175.5zM366 386q11 41 11 125q0 74 -31 117.5t-89 43.5q-52 0 -81 -46.5t-29 -130.5
q0 -181 110 -181q70 0 109 72z" />
    <glyph glyph-name="uni2032.tallfig" horiz-adv-x="290" 
d="M68 455l70 266l86 -31l-114 -250z" />
    <glyph glyph-name="uni2033.tallfig" horiz-adv-x="480" 
d="M68 455l70 266l86 -31l-114 -250zM258 455l70 266l86 -31l-114 -250z" />
    <glyph glyph-name="at.tallfig" horiz-adv-x="816" 
d="M704 470q0 36 -9.5 73t-30.5 76.5t-63.5 64.5t-101.5 25q-97 0 -183 -73.5t-135.5 -187.5t-49.5 -232q0 -241 173 -241q41 0 86.5 17.5t80.5 44.5l19 -36q-92 -74 -197 -74q-112 0 -169 75t-57 215q0 124 57.5 246t160 203.5t217.5 81.5q120 0 191.5 -76.5t71.5 -201.5
q0 -84 -32 -154.5t-79 -111.5t-94 -63.5t-83 -22.5q-19 0 -28 12.5t-5.5 42.5t23.5 75l-13 9q-96 -141 -173 -141q-29 0 -45 24.5t-16 56.5q0 82 59 183q47 77 109 128.5t118 51.5q29 0 42 -28h5q5 16 11.5 21.5t24.5 5.5q20 0 27 -4t4 -12l-108 -331q-8 -31 13 -31
q18 0 47 20t59 54t51.5 92t21.5 123zM295 225q0 -27 6 -35.5t18 -8.5q35 0 98.5 80.5t107.5 185.5q9 70 -29 70q-36 0 -76.5 -34.5t-71.5 -87.5q-53 -97 -53 -170z" />
    <glyph glyph-name="dollar.tallfig" horiz-adv-x="596" 
d="M318 818v-102q51 -5 108 -36l31 17h23l16 -200h-32q-20 79 -58.5 121.5t-87.5 49.5v-262q0 -1 2 -1q99 -42 145 -90t46 -127q0 -86 -54 -139t-139 -60v-107h-35v107q-76 6 -121 44l-31 -18h-29l-17 207h39q33 -179 159 -187v287q-98 39 -142.5 87.5t-44.5 117.5
q0 70 52 128.5t135 62.5v100h35zM423 158q0 96 -105 149v-271q48 7 76.5 39.5t28.5 82.5zM183 553q0 -79 100 -131v247q-47 -4 -73.5 -34.5t-26.5 -81.5z" />
    <glyph glyph-name="cent.tallfig" horiz-adv-x="433" 
d="M242 676v-95q63 0 101 -26t38 -63q0 -38 -44 -38q-22 0 -34.5 13.5t-16 29.5t-14.5 31t-30 18v-332h8q35 0 66 21t49 50l27 -13q-20 -52 -59.5 -86t-90.5 -38v-98h-34v98q-72 8 -116 69.5t-44 144.5q0 81 44.5 142t115.5 74v98h34zM124 378q0 -129 84 -158v322
q-35 -14 -59.5 -58t-24.5 -106z" />
    <glyph glyph-name="sterling.tallfig" horiz-adv-x="612" 
d="M80 400h87q-31 85 -31 131q0 90 57.5 138.5t135.5 48.5q81 0 127 -38t46 -76q0 -24 -13.5 -38.5t-30.5 -14.5q-22 0 -36.5 20t-22.5 43.5t-26 43.5t-45 20q-40 0 -67.5 -32t-27.5 -94q0 -20 4 -41t8.5 -35.5t13 -38.5t12.5 -37h161v-44h-149q5 -28 5 -55q0 -111 -51 -173
l8 -13q25 17 53 17q25 0 49 -15t40 -33t37.5 -33t43.5 -15q18 0 28.5 11t10.5 31q0 14 -21 35t-21 41q0 15 10.5 27.5t28.5 12.5q27 0 42.5 -21t15.5 -61q0 -60 -39.5 -92t-93.5 -32q-70 0 -133 31t-92 66h-5q-52 -97 -109 -97q-13 0 -21.5 7t-8.5 19q0 32 35.5 58t87.5 42
q25 52 25 127q0 47 -25 115h-103v44z" />
    <glyph glyph-name="yen.tallfig" horiz-adv-x="610" 
d="M118 300h145v4l-179 345l-71 17v40h238v-40l-73 -17l141 -277h18l149 277l-86 17v40h197v-40l-67 -17l-183 -345v-4h146v-43h-146v-58h146v-43h-146v-99l91 -17v-40h-265v40l90 17v99h-145v43h145v58h-145v43z" />
    <glyph glyph-name="Euro.tallfig" horiz-adv-x="696" 
d="M71 430h74q19 132 95.5 210t179.5 78q112 0 206 -71l-34 -141h-29q1 48 -13 83t-37.5 52.5t-46.5 25.5t-46 8q-69 0 -117.5 -61.5t-60.5 -183.5h328l-11 -43h-320v-34v-24h305l-11 -43h-291q12 -121 63 -187t113 -66q122 0 163 140l40 -14q-53 -171 -214 -171
q-102 0 -175.5 79t-88.5 219h-83l11 43h69v23q0 23 1 35h-81z" />
    <glyph glyph-name="numbersign.tallfig" horiz-adv-x="537" 
d="M80 523h111l44 213h55l-44 -213h110l44 213h55l-44 -213h96v-69h-110l-39 -186h99v-69h-113l-49 -236h-55l49 236h-110l-49 -236h-55l49 236h-94v69h108l39 186h-97v69zM232 454l-39 -186h110l39 186h-110z" />
    <glyph glyph-name="percent.tallfig" horiz-adv-x="569" 
d="M302 594l-3 -1q-1 -84 -45.5 -139t-102.5 -55q-49 0 -80 36.5t-31 93.5q0 77 48 133t104 56q35 0 61 -18.5t38 -52.5q6 -16 25.5 -25.5t42.5 -9.5q50 0 87 31q24 69 56 69q9 0 17 -5.5t8 -17.5q0 -31 -45 -63l-196 -296l-222 -350l-34 27l230 343l144 235l-3 2
q-21 -12 -49 -12q-31 0 -50 19zM270 118q0 77 48 133t104 56q47 0 77 -32.5t30 -88.5q0 -88 -45.5 -143t-100.5 -55q-51 0 -82 36.5t-31 93.5zM434 261q-34 0 -63.5 -54t-29.5 -117q0 -29 13.5 -44.5t33.5 -15.5q35 0 64 42.5t29 123.5q0 31 -13.5 48t-33.5 17zM204 672
q-34 0 -63.5 -54t-29.5 -116q0 -61 49 -61q34 0 62.5 43.5t28.5 122.5q0 32 -13 48.5t-34 16.5z" />
    <glyph glyph-name="perthousand.tallfig" horiz-adv-x="858" 
d="M302 594l-3 -1q-1 -84 -45.5 -139t-102.5 -55q-49 0 -80 36.5t-31 93.5q0 77 48 133t104 56q35 0 61 -18.5t38 -52.5q6 -16 25.5 -25.5t42.5 -9.5q50 0 87 31q24 69 56 69q9 0 17 -5.5t8 -17.5q0 -31 -45 -63l-196 -296l-222 -350l-34 27l230 343l144 235l-3 2
q-21 -12 -49 -12q-31 0 -50 19zM270 118q0 77 48 133t104 56q47 0 77 -32.5t30 -88.5q0 -88 -45.5 -143t-100.5 -55q-51 0 -82 36.5t-31 93.5zM434 261q-34 0 -63.5 -54t-29.5 -117q0 -29 13.5 -44.5t33.5 -15.5q35 0 64 42.5t29 123.5q0 31 -13.5 48t-33.5 17zM204 672
q-34 0 -63.5 -54t-29.5 -116q0 -61 49 -61q34 0 62.5 43.5t28.5 122.5q0 32 -13 48.5t-34 16.5zM559 118q0 77 48 133t104 56q47 0 77 -32.5t30 -88.5q0 -88 -45.5 -143t-100.5 -55q-51 0 -82 36.5t-31 93.5zM723 261q-34 0 -63.5 -54t-29.5 -117q0 -29 13 -44.5t34 -15.5
q35 0 64 42.5t29 123.5q0 31 -13.5 48t-33.5 17z" />
    <glyph glyph-name="ordfeminine.tallfig" horiz-adv-x="367" 
d="M210 444v77l-50 -25q-46 -29 -46 -63q0 -46 33 -46q22 0 42.5 17t20.5 40zM258 326q-43 0 -52 51h-7q-51 -53 -96 -53q-28 0 -46.5 32t-18.5 62q0 63 85 98l86 39v28q0 75 -46 75q-14 0 -30.5 -7t-24.5 -18q6 -18 6 -40q0 -31 -41 -31q-14 0 -24.5 11t-10.5 28
q0 31 24 48q83 59 119 59q47 0 72.5 -26t25.5 -69v-195q0 -13 5 -23t14 -10q17 0 28 27l21 -9q-13 -39 -38 -58t-51 -19z" />
    <glyph glyph-name="ordmasculine.tallfig" horiz-adv-x="386" 
d="M33 515q0 87 45.5 140t114.5 53q72 0 116 -51.5t44 -141.5q0 -93 -43.5 -142t-116.5 -49q-70 0 -115 50.5t-45 140.5zM115 517q0 -79 23 -116t55 -37q37 0 58 32.5t21 120.5q0 151 -79 151q-32 0 -55 -36t-23 -115z" />
    <glyph glyph-name="degree.tallfig" horiz-adv-x="367" 
d="M40 564q0 59 42 101.5t101 42.5t101.5 -42.5t42.5 -101.5t-42.5 -101t-101.5 -42t-101 42.5t-42 100.5zM96 564q0 -41 23.5 -68t62.5 -27q40 0 64 27t24 68t-24 69t-64 28q-39 0 -62.5 -27.5t-23.5 -69.5z" />
    <glyph glyph-name="zero.numr" horiz-adv-x="288" 
d="M22 479q0 92 35.5 139.5t90.5 47.5q53 0 86 -48t33 -139q0 -84 -33 -127.5t-86 -43.5q-55 0 -90.5 43.5t-35.5 127.5zM90 479q0 -72 16.5 -106t41.5 -34q22 0 37 35t15 105q0 78 -15 117t-37 39q-24 0 -41 -40.5t-17 -115.5z" />
    <glyph glyph-name="one.numr" horiz-adv-x="233" 
d="M27 606v30q55 2 99 28l31 -3v-309l53 -8v-29h-171v29l55 8v257q-39 -10 -67 -3z" />
    <glyph glyph-name="two.numr" horiz-adv-x="287" 
d="M177 559q0 24 -14 40.5t-39 16.5q-36 0 -83 -55l-17 17q64 88 134 88q43 0 67 -22.5t24 -57.5q0 -42 -45.5 -103t-91.5 -101l3 -8h107l24 39l23 -7l-29 -91h-214l-6 18q53 42 105 109t52 117z" />
    <glyph glyph-name="three.numr" horiz-adv-x="259" 
d="M222 604q0 -50 -68 -92v-5q34 -6 57.5 -33.5t23.5 -61.5q0 -47 -39.5 -75.5t-85.5 -28.5q-92 0 -92 49q0 11 7.5 19t20.5 8q17 0 33 -21t34 -21q20 0 38 18.5t18 48.5q0 34 -26.5 55.5t-40.5 14.5l-20 -11l-13 21q40 19 63.5 43t23.5 48q0 39 -40 39q-38 0 -71 -38
l-17 15q20 28 51.5 49t67.5 21q31 0 53 -16t22 -46z" />
    <glyph glyph-name="four.numr" horiz-adv-x="279" 
d="M190 670l30 -9v-205h39v-41h-39v-100h-62v99h-132l-9 23zM158 564l-6 4l-79 -107l3 -5h82v108z" />
    <glyph glyph-name="five.numr" horiz-adv-x="260" 
d="M43 492l16 167h145l14 22h19l-12 -79h-137l-6 -59l5 -5q10 5 28 5q46 0 82.5 -30t36.5 -80q0 -55 -41.5 -90t-97.5 -35q-34 0 -54 11.5t-20 27.5q0 27 29 27q12 0 34 -12.5t38 -12.5q50 0 50 62q0 36 -21.5 58t-53.5 22q-24 0 -44 -9z" />
    <glyph glyph-name="six.numr" horiz-adv-x="276" 
d="M99 517l7 -3q20 20 57 20q36 0 66 -27t30 -78q0 -48 -30 -84.5t-91 -36.5q-51 0 -83 37.5t-32 105.5q0 76 50.5 141t136.5 92l9 -26q-104 -53 -120 -141zM96 471q-4 -12 -4 -49q0 -38 14 -59t34 -21q23 0 36.5 24.5t13.5 60.5q0 34 -13.5 52.5t-31.5 18.5q-33 0 -49 -27z
" />
    <glyph glyph-name="seven.numr" horiz-adv-x="258" 
d="M237 659l10 -14q-85 -165 -120 -316q-6 -21 -40 -21q-19 0 -29 5t-6 16q43 120 138 266l-3 8h-130l-18 -43h-25l24 99h199z" />
    <glyph glyph-name="eight.numr" horiz-adv-x="287" 
d="M31 393q0 59 66 94v5q-56 29 -56 80q0 39 29.5 66.5t78.5 27.5q44 0 72 -22.5t28 -56.5q0 -50 -59 -87v-4q66 -35 66 -88q0 -46 -31.5 -73t-83.5 -27q-48 0 -79 23.5t-31 61.5zM90 391q0 -51 51 -51q25 0 39.5 15.5t14.5 39.5q0 41 -64 77q-41 -24 -41 -81zM101 589
q0 -47 58 -74q29 26 29 71q0 22 -11.5 35t-31.5 13q-22 0 -33 -13.5t-11 -31.5z" />
    <glyph glyph-name="nine.numr" horiz-adv-x="276" 
d="M181 448l-9 4q-21 -17 -50 -17q-43 0 -73.5 29.5t-30.5 80.5q0 55 36.5 88t81.5 33q52 0 85 -39t33 -104q0 -89 -55.5 -154.5t-145.5 -75.5v29q49 9 85 43.5t43 82.5zM182 500q6 15 6 58q0 33 -14.5 54.5t-39.5 21.5q-22 0 -35 -22.5t-13 -62.5q0 -79 48 -79q27 0 48 30z
" />
    <glyph glyph-name="zero.dnom" horiz-adv-x="288" 
d="M22 124q0 92 35.5 139.5t90.5 47.5q53 0 86 -48t33 -139q0 -84 -33 -127.5t-86 -43.5q-55 0 -90.5 43.5t-35.5 127.5zM90 124q0 -72 16.5 -106t41.5 -34q22 0 37 35t15 105q0 78 -15 117t-37 39q-24 0 -41 -40.5t-17 -115.5z" />
    <glyph glyph-name="one.dnom" horiz-adv-x="233" 
d="M27 251v30q55 2 99 28l31 -3v-309l53 -8v-29h-171v29l55 8v257q-39 -10 -67 -3z" />
    <glyph glyph-name="two.dnom" horiz-adv-x="287" 
d="M177 204q0 24 -14 40.5t-39 16.5q-36 0 -83 -55l-17 17q64 88 134 88q43 0 67 -22.5t24 -57.5q0 -42 -45.5 -103t-91.5 -101l3 -8h107l24 39l23 -7l-29 -91h-214l-6 18q53 42 105 109t52 117z" />
    <glyph glyph-name="three.dnom" horiz-adv-x="259" 
d="M222 249q0 -50 -68 -92v-5q34 -6 57.5 -33.5t23.5 -61.5q0 -47 -39.5 -75.5t-85.5 -28.5q-92 0 -92 49q0 11 7.5 19t20.5 8q17 0 33 -21t34 -21q20 0 38 18.5t18 48.5q0 34 -26.5 55.5t-40.5 14.5l-20 -11l-13 21q40 19 63.5 43t23.5 48q0 39 -40 39q-38 0 -71 -38
l-17 15q20 28 51.5 49t67.5 21q31 0 53 -16t22 -46z" />
    <glyph glyph-name="four.dnom" horiz-adv-x="279" 
d="M190 315l30 -9v-205h39v-41h-39v-100h-62v99h-132l-9 23zM158 209l-6 4l-79 -107l3 -5h82v108z" />
    <glyph glyph-name="five.dnom" horiz-adv-x="260" 
d="M43 137l16 167h145l14 22h19l-12 -79h-137l-6 -59l5 -5q10 5 28 5q46 0 82.5 -30t36.5 -80q0 -55 -41.5 -90t-97.5 -35q-34 0 -54 11.5t-20 27.5q0 27 29 27q12 0 34 -12.5t38 -12.5q50 0 50 62q0 36 -21.5 58t-53.5 22q-24 0 -44 -9z" />
    <glyph glyph-name="six.dnom" horiz-adv-x="276" 
d="M99 162l7 -3q20 20 57 20q36 0 66 -27t30 -78q0 -48 -30 -84.5t-91 -36.5q-51 0 -83 37.5t-32 105.5q0 76 50.5 141t136.5 92l9 -26q-104 -53 -120 -141zM96 116q-4 -12 -4 -49q0 -38 14 -59t34 -21q23 0 36.5 24.5t13.5 60.5q0 34 -13.5 52.5t-31.5 18.5q-33 0 -49 -27z
" />
    <glyph glyph-name="seven.dnom" horiz-adv-x="258" 
d="M237 304l10 -14q-85 -165 -120 -316q-6 -21 -40 -21q-19 0 -29 5t-6 16q43 120 138 266l-3 8h-130l-18 -43h-25l24 99h199z" />
    <glyph glyph-name="eight.dnom" horiz-adv-x="287" 
d="M31 38q0 59 66 94v5q-56 29 -56 80q0 39 29.5 66.5t78.5 27.5q44 0 72 -22.5t28 -56.5q0 -50 -59 -87v-4q66 -35 66 -88q0 -46 -31.5 -73t-83.5 -27q-48 0 -79 23.5t-31 61.5zM90 36q0 -51 51 -51q25 0 39.5 15.5t14.5 39.5q0 41 -64 77q-41 -24 -41 -81zM101 234
q0 -47 58 -74q29 26 29 71q0 22 -11.5 35t-31.5 13q-22 0 -33 -13.5t-11 -31.5z" />
    <glyph glyph-name="nine.dnom" horiz-adv-x="276" 
d="M181 93l-9 4q-21 -17 -50 -17q-43 0 -73.5 29.5t-30.5 80.5q0 55 36.5 88t81.5 33q52 0 85 -39t33 -104q0 -89 -55.5 -154.5t-145.5 -75.5v29q49 9 85 43.5t43 82.5zM182 145q6 15 6 58q0 33 -14.5 54.5t-39.5 21.5q-22 0 -35 -22.5t-13 -62.5q0 -79 48 -79q27 0 48 30z
" />
    <glyph glyph-name="zero.numr.onum" horiz-adv-x="288" 
d="M22 399q0 92 35.5 139.5t90.5 47.5q53 0 86 -48t33 -139q0 -84 -33 -127.5t-86 -43.5q-55 0 -90.5 43.5t-35.5 127.5zM90 399q0 -72 16.5 -106t41.5 -34q22 0 37 35t15 105q0 78 -15 117t-37 39q-24 0 -41 -40.5t-17 -115.5z" />
    <glyph glyph-name="one.numr.onum" horiz-adv-x="233" 
d="M27 526v30q55 2 99 28l31 -3v-309l53 -8v-29h-171v29l55 8v257q-39 -10 -67 -3z" />
    <glyph glyph-name="two.numr.onum" horiz-adv-x="287" 
d="M177 479q0 24 -14 40.5t-39 16.5q-36 0 -83 -55l-17 17q64 88 134 88q43 0 67 -22.5t24 -57.5q0 -42 -45.5 -103t-91.5 -101l3 -8h107l24 39l23 -7l-29 -91h-214l-6 18q53 42 105 109t52 117z" />
    <glyph glyph-name="three.numr.onum" horiz-adv-x="259" 
d="M222 524q0 -50 -68 -92v-5q34 -6 57.5 -33.5t23.5 -61.5q0 -47 -39.5 -75.5t-85.5 -28.5q-92 0 -92 49q0 11 7.5 19t20.5 8q17 0 33 -21t34 -21q20 0 38 18.5t18 48.5q0 34 -26.5 55.5t-40.5 14.5l-20 -11l-13 21q40 19 63.5 43t23.5 48q0 39 -40 39q-38 0 -71 -38
l-17 15q20 28 51.5 49t67.5 21q31 0 53 -16t22 -46z" />
    <glyph glyph-name="four.numr.onum" horiz-adv-x="279" 
d="M190 590l30 -9v-205h39v-41h-39v-100h-62v99h-132l-9 23zM158 484l-6 4l-79 -107l3 -5h82v108z" />
    <glyph glyph-name="five.numr.onum" horiz-adv-x="260" 
d="M43 412l16 167h145l14 22h19l-12 -79h-137l-6 -59l5 -5q10 5 28 5q46 0 82.5 -30t36.5 -80q0 -55 -41.5 -90t-97.5 -35q-34 0 -54 11.5t-20 27.5q0 27 29 27q12 0 34 -12.5t38 -12.5q50 0 50 62q0 36 -21.5 58t-53.5 22q-24 0 -44 -9z" />
    <glyph glyph-name="six.numr.onum" horiz-adv-x="276" 
d="M99 437l7 -3q20 20 57 20q36 0 66 -27t30 -78q0 -48 -30 -84.5t-91 -36.5q-51 0 -83 37.5t-32 105.5q0 76 50.5 141t136.5 92l9 -26q-104 -53 -120 -141zM96 391q-4 -12 -4 -49q0 -38 14 -59t34 -21q23 0 36.5 24.5t13.5 60.5q0 34 -13.5 52.5t-31.5 18.5q-33 0 -49 -27z
" />
    <glyph glyph-name="seven.numr.onum" horiz-adv-x="258" 
d="M237 579l10 -14q-85 -165 -120 -316q-6 -21 -40 -21q-19 0 -29 5t-6 16q43 120 138 266l-3 8h-130l-18 -43h-25l24 99h199z" />
    <glyph glyph-name="eight.numr.onum" horiz-adv-x="287" 
d="M31 313q0 59 66 94v5q-56 29 -56 80q0 39 29.5 66.5t78.5 27.5q44 0 72 -22.5t28 -56.5q0 -50 -59 -87v-4q66 -35 66 -88q0 -46 -31.5 -73t-83.5 -27q-48 0 -79 23.5t-31 61.5zM90 311q0 -51 51 -51q25 0 39.5 15.5t14.5 39.5q0 41 -64 77q-41 -24 -41 -81zM101 509
q0 -47 58 -74q29 26 29 71q0 22 -11.5 35t-31.5 13q-22 0 -33 -13.5t-11 -31.5z" />
    <glyph glyph-name="nine.numr.onum" horiz-adv-x="276" 
d="M181 368l-9 4q-21 -17 -50 -17q-43 0 -73.5 29.5t-30.5 80.5q0 55 36.5 88t81.5 33q52 0 85 -39t33 -104q0 -89 -55.5 -154.5t-145.5 -75.5v29q49 9 85 43.5t43 82.5zM182 420q6 15 6 58q0 33 -14.5 54.5t-39.5 21.5q-22 0 -35 -22.5t-13 -62.5q0 -79 48 -79q27 0 48 30z
" />
    <glyph glyph-name="zero.dnom.onum" horiz-adv-x="288" 
d="M22 44q0 92 35.5 139.5t90.5 47.5q53 0 86 -48t33 -139q0 -84 -33 -127.5t-86 -43.5q-55 0 -90.5 43.5t-35.5 127.5zM90 44q0 -72 16.5 -106t41.5 -34q22 0 37 35t15 105q0 78 -15 117t-37 39q-24 0 -41 -40.5t-17 -115.5z" />
    <glyph glyph-name="one.dnom.onum" horiz-adv-x="233" 
d="M27 171v30q55 2 99 28l31 -3v-309l53 -8v-29h-171v29l55 8v257q-39 -10 -67 -3z" />
    <glyph glyph-name="two.dnom.onum" horiz-adv-x="287" 
d="M177 124q0 24 -14 40.5t-39 16.5q-36 0 -83 -55l-17 17q64 88 134 88q43 0 67 -22.5t24 -57.5q0 -42 -45.5 -103t-91.5 -101l3 -8h107l24 39l23 -7l-29 -91h-214l-6 18q53 42 105 109t52 117z" />
    <glyph glyph-name="three.dnom.onum" horiz-adv-x="259" 
d="M222 169q0 -50 -68 -92v-5q34 -6 57.5 -33.5t23.5 -61.5q0 -47 -39.5 -75.5t-85.5 -28.5q-92 0 -92 49q0 11 7.5 19t20.5 8q17 0 33 -21t34 -21q20 0 38 18.5t18 48.5q0 34 -26.5 55.5t-40.5 14.5l-20 -11l-13 21q40 19 63.5 43t23.5 48q0 39 -40 39q-38 0 -71 -38
l-17 15q20 28 51.5 49t67.5 21q31 0 53 -16t22 -46z" />
    <glyph glyph-name="four.dnom.onum" horiz-adv-x="279" 
d="M190 235l30 -9v-205h39v-41h-39v-100h-62v99h-132l-9 23zM158 129l-6 4l-79 -107l3 -5h82v108z" />
    <glyph glyph-name="five.dnom.onum" horiz-adv-x="260" 
d="M43 57l16 167h145l14 22h19l-12 -79h-137l-6 -59l5 -5q10 5 28 5q46 0 82.5 -30t36.5 -80q0 -55 -41.5 -90t-97.5 -35q-34 0 -54 11.5t-20 27.5q0 27 29 27q12 0 34 -12.5t38 -12.5q50 0 50 62q0 36 -21.5 58t-53.5 22q-24 0 -44 -9z" />
    <glyph glyph-name="six.dnom.onum" horiz-adv-x="276" 
d="M99 82l7 -3q20 20 57 20q36 0 66 -27t30 -78q0 -48 -30 -84.5t-91 -36.5q-51 0 -83 37.5t-32 105.5q0 76 50.5 141t136.5 92l9 -26q-104 -53 -120 -141zM96 36q-4 -12 -4 -49q0 -38 14 -59t34 -21q23 0 36.5 24.5t13.5 60.5q0 34 -13.5 52.5t-31.5 18.5q-33 0 -49 -27z
" />
    <glyph glyph-name="seven.dnom.onum" horiz-adv-x="258" 
d="M237 224l10 -14q-85 -165 -120 -316q-6 -21 -40 -21q-19 0 -29 5t-6 16q43 120 138 266l-3 8h-130l-18 -43h-25l24 99h199z" />
    <glyph glyph-name="eight.dnom.onum" horiz-adv-x="287" 
d="M31 -42q0 59 66 94v5q-56 29 -56 80q0 39 29.5 66.5t78.5 27.5q44 0 72 -22.5t28 -56.5q0 -50 -59 -87v-4q66 -35 66 -88q0 -46 -31.5 -73t-83.5 -27q-48 0 -79 23.5t-31 61.5zM90 -44q0 -51 51 -51q25 0 39.5 15.5t14.5 39.5q0 41 -64 77q-41 -24 -41 -81zM101 154
q0 -47 58 -74q29 26 29 71q0 22 -11.5 35t-31.5 13q-22 0 -33 -13.5t-11 -31.5z" />
    <glyph glyph-name="nine.dnom.onum" horiz-adv-x="276" 
d="M181 13l-9 4q-21 -17 -50 -17q-43 0 -73.5 29.5t-30.5 80.5q0 55 36.5 88t81.5 33q52 0 85 -39t33 -104q0 -89 -55.5 -154.5t-145.5 -75.5v29q49 9 85 43.5t43 82.5zM182 65q6 15 6 58q0 33 -14.5 54.5t-39.5 21.5q-22 0 -35 -22.5t-13 -62.5q0 -79 48 -79q27 0 48 30z
" />
    <glyph glyph-name="fraction.onum" 
d="M111 -134l241 370l223 353l36 -24l-234 -349l-231 -375z" />
    <glyph glyph-name="onehalf.onum" 
d="M111 -134l241 370l223 353l36 -24l-234 -349l-231 -375zM75 500v30q55 2 99 28l31 -3v-309l53 -8v-29h-171v29l55 8v257q-39 -10 -67 -3zM574 124q0 24 -14 40.5t-39 16.5q-36 0 -83 -55l-17 17q64 88 134 88q43 0 67 -22.5t24 -57.5q0 -42 -45.5 -103t-91.5 -101l3 -8
h107l24 39l23 -7l-29 -91h-214l-6 18q53 42 105 109t52 117z" />
    <glyph glyph-name="onethird.onum" 
d="M111 -134l241 370l223 353l36 -24l-234 -349l-231 -375zM75 500v30q55 2 99 28l31 -3v-309l53 -8v-29h-171v29l55 8v257q-39 -10 -67 -3zM619 169q0 -50 -68 -92v-5q34 -6 57.5 -33.5t23.5 -61.5q0 -47 -39.5 -75.5t-85.5 -28.5q-92 0 -92 49q0 11 7.5 19t20.5 8
q17 0 33 -21t34 -21q20 0 38 18.5t18 48.5q0 34 -26.5 55.5t-40.5 14.5l-20 -11l-13 21q40 19 63.5 43t23.5 48q0 39 -40 39q-38 0 -71 -38l-17 15q20 28 51.5 49t67.5 21q31 0 53 -16t22 -46z" />
    <glyph glyph-name="onequarter.onum" 
d="M111 -134l241 370l223 353l36 -24l-234 -349l-231 -375zM75 500v30q55 2 99 28l31 -3v-309l53 -8v-29h-171v29l55 8v257q-39 -10 -67 -3zM556 235l30 -9v-205h39v-41h-39v-100h-62v99h-132l-9 23zM524 129l-6 4l-79 -107l3 -5h82v108z" />
    <glyph glyph-name="onefifth.onum" 
d="M111 -134l241 370l223 353l36 -24l-234 -349l-231 -375zM75 500v30q55 2 99 28l31 -3v-309l53 -8v-29h-171v29l55 8v257q-39 -10 -67 -3zM440 57l16 167h145l14 22h19l-12 -79h-137l-6 -59l5 -5q10 5 28 5q46 0 82.5 -30t36.5 -80q0 -55 -41.5 -90t-97.5 -35
q-34 0 -54 11.5t-20 27.5q0 27 29 27q12 0 34 -12.5t38 -12.5q50 0 50 62q0 36 -21.5 58t-53.5 22q-24 0 -44 -9z" />
    <glyph glyph-name="onesixth.onum" 
d="M111 -134l241 370l223 353l36 -24l-234 -349l-231 -375zM75 500v30q55 2 99 28l31 -3v-309l53 -8v-29h-171v29l55 8v257q-39 -10 -67 -3zM475 82l7 -3q20 20 57 20q36 0 66 -27t30 -78q0 -48 -30 -84.5t-91 -36.5q-51 0 -83 37.5t-32 105.5q0 76 50.5 141t136.5 92l9 -26
q-104 -53 -120 -141zM472 36q-4 -12 -4 -49q0 -38 14 -59t34 -21q23 0 36.5 24.5t13.5 60.5q0 34 -13.5 52.5t-31.5 18.5q-33 0 -49 -27z" />
    <glyph glyph-name="oneseventh.onum" 
d="M111 -134l241 370l223 353l36 -24l-234 -349l-231 -375zM75 500v30q55 2 99 28l31 -3v-309l53 -8v-29h-171v29l55 8v257q-39 -10 -67 -3zM665 224l10 -14q-85 -165 -120 -316q-6 -21 -40 -21q-19 0 -29 5t-6 16q43 120 138 266l-3 8h-130l-18 -43h-25l24 99h199z" />
    <glyph glyph-name="oneeighth.onum" 
d="M111 -134l241 370l223 353l36 -24l-234 -349l-231 -375zM75 500v30q55 2 99 28l31 -3v-309l53 -8v-29h-171v29l55 8v257q-39 -10 -67 -3zM428 -42q0 59 66 94v5q-56 29 -56 80q0 39 29.5 66.5t78.5 27.5q44 0 72 -22.5t28 -56.5q0 -50 -59 -87v-4q66 -35 66 -88
q0 -46 -31.5 -73t-83.5 -27q-48 0 -79 23.5t-31 61.5zM487 -44q0 -51 51 -51q25 0 39.5 15.5t14.5 39.5q0 41 -64 77q-41 -24 -41 -81zM498 154q0 -47 58 -74q29 26 29 71q0 22 -11.5 35t-31.5 13q-22 0 -33 -13.5t-11 -31.5z" />
    <glyph glyph-name="oneninth.onum" 
d="M111 -134l241 370l223 353l36 -24l-234 -349l-231 -375zM75 500v30q55 2 99 28l31 -3v-309l53 -8v-29h-171v29l55 8v257q-39 -10 -67 -3zM578 13l-9 4q-21 -17 -50 -17q-43 0 -73.5 29.5t-30.5 80.5q0 55 36.5 88t81.5 33q52 0 85 -39t33 -104q0 -89 -55.5 -154.5
t-145.5 -75.5v29q49 9 85 43.5t43 82.5zM579 65q6 15 6 58q0 33 -14.5 54.5t-39.5 21.5q-22 0 -35 -22.5t-13 -62.5q0 -79 48 -79q27 0 48 30z" />
    <glyph glyph-name="twothirds.onum" 
d="M111 -134l241 370l223 353l36 -24l-234 -349l-231 -375zM192 453q0 24 -14 40.5t-39 16.5q-36 0 -83 -55l-17 17q64 88 134 88q43 0 67 -22.5t24 -57.5q0 -42 -45.5 -103t-91.5 -101l3 -8h107l24 39l23 -7l-29 -91h-214l-6 18q53 42 105 109t52 117zM619 169
q0 -50 -68 -92v-5q34 -6 57.5 -33.5t23.5 -61.5q0 -47 -39.5 -75.5t-85.5 -28.5q-92 0 -92 49q0 11 7.5 19t20.5 8q17 0 33 -21t34 -21q20 0 38 18.5t18 48.5q0 34 -26.5 55.5t-40.5 14.5l-20 -11l-13 21q40 19 63.5 43t23.5 48q0 39 -40 39q-38 0 -71 -38l-17 15
q20 28 51.5 49t67.5 21q31 0 53 -16t22 -46z" />
    <glyph glyph-name="twofifths.onum" 
d="M111 -134l241 370l223 353l36 -24l-234 -349l-231 -375zM192 453q0 24 -14 40.5t-39 16.5q-36 0 -83 -55l-17 17q64 88 134 88q43 0 67 -22.5t24 -57.5q0 -42 -45.5 -103t-91.5 -101l3 -8h107l24 39l23 -7l-29 -91h-214l-6 18q53 42 105 109t52 117zM440 57l16 167h145
l14 22h19l-12 -79h-137l-6 -59l5 -5q10 5 28 5q46 0 82.5 -30t36.5 -80q0 -55 -41.5 -90t-97.5 -35q-34 0 -54 11.5t-20 27.5q0 27 29 27q12 0 34 -12.5t38 -12.5q50 0 50 62q0 36 -21.5 58t-53.5 22q-24 0 -44 -9z" />
    <glyph glyph-name="twosevenths.onum" 
d="M111 -134l241 370l223 353l36 -24l-234 -349l-231 -375zM192 453q0 24 -14 40.5t-39 16.5q-36 0 -83 -55l-17 17q64 88 134 88q43 0 67 -22.5t24 -57.5q0 -42 -45.5 -103t-91.5 -101l3 -8h107l24 39l23 -7l-29 -91h-214l-6 18q53 42 105 109t52 117zM665 224l10 -14
q-85 -165 -120 -316q-6 -21 -40 -21q-19 0 -29 5t-6 16q43 120 138 266l-3 8h-130l-18 -43h-25l24 99h199z" />
    <glyph glyph-name="twoninths.onum" 
d="M111 -134l241 370l223 353l36 -24l-234 -349l-231 -375zM192 453q0 24 -14 40.5t-39 16.5q-36 0 -83 -55l-17 17q64 88 134 88q43 0 67 -22.5t24 -57.5q0 -42 -45.5 -103t-91.5 -101l3 -8h107l24 39l23 -7l-29 -91h-214l-6 18q53 42 105 109t52 117zM578 13l-9 4
q-21 -17 -50 -17q-43 0 -73.5 29.5t-30.5 80.5q0 55 36.5 88t81.5 33q52 0 85 -39t33 -104q0 -89 -55.5 -154.5t-145.5 -75.5v29q49 9 85 43.5t43 82.5zM579 65q6 15 6 58q0 33 -14.5 54.5t-39.5 21.5q-22 0 -35 -22.5t-13 -62.5q0 -79 48 -79q27 0 48 30z" />
    <glyph glyph-name="threequarters.onum" 
d="M111 -134l241 370l223 353l36 -24l-234 -349l-231 -375zM265 498q0 -50 -68 -92v-5q34 -6 57.5 -33.5t23.5 -61.5q0 -47 -39.5 -75.5t-85.5 -28.5q-92 0 -92 49q0 11 7.5 19t20.5 8q17 0 33 -21t34 -21q20 0 38 18.5t18 48.5q0 34 -26.5 55.5t-40.5 14.5l-20 -11l-13 21
q40 19 63.5 43t23.5 48q0 39 -40 39q-38 0 -71 -38l-17 15q20 28 51.5 49t67.5 21q31 0 53 -16t22 -46zM556 235l30 -9v-205h39v-41h-39v-100h-62v99h-132l-9 23zM524 129l-6 4l-79 -107l3 -5h82v108z" />
    <glyph glyph-name="threefifths.onum" 
d="M111 -134l241 370l223 353l36 -24l-234 -349l-231 -375zM265 498q0 -50 -68 -92v-5q34 -6 57.5 -33.5t23.5 -61.5q0 -47 -39.5 -75.5t-85.5 -28.5q-92 0 -92 49q0 11 7.5 19t20.5 8q17 0 33 -21t34 -21q20 0 38 18.5t18 48.5q0 34 -26.5 55.5t-40.5 14.5l-20 -11l-13 21
q40 19 63.5 43t23.5 48q0 39 -40 39q-38 0 -71 -38l-17 15q20 28 51.5 49t67.5 21q31 0 53 -16t22 -46zM440 57l16 167h145l14 22h19l-12 -79h-137l-6 -59l5 -5q10 5 28 5q46 0 82.5 -30t36.5 -80q0 -55 -41.5 -90t-97.5 -35q-34 0 -54 11.5t-20 27.5q0 27 29 27
q12 0 34 -12.5t38 -12.5q50 0 50 62q0 36 -21.5 58t-53.5 22q-24 0 -44 -9z" />
    <glyph glyph-name="threesevenths.onum" 
d="M111 -134l241 370l223 353l36 -24l-234 -349l-231 -375zM265 498q0 -50 -68 -92v-5q34 -6 57.5 -33.5t23.5 -61.5q0 -47 -39.5 -75.5t-85.5 -28.5q-92 0 -92 49q0 11 7.5 19t20.5 8q17 0 33 -21t34 -21q20 0 38 18.5t18 48.5q0 34 -26.5 55.5t-40.5 14.5l-20 -11l-13 21
q40 19 63.5 43t23.5 48q0 39 -40 39q-38 0 -71 -38l-17 15q20 28 51.5 49t67.5 21q31 0 53 -16t22 -46zM665 224l10 -14q-85 -165 -120 -316q-6 -21 -40 -21q-19 0 -29 5t-6 16q43 120 138 266l-3 8h-130l-18 -43h-25l24 99h199z" />
    <glyph glyph-name="threeeighths.onum" 
d="M111 -134l241 370l223 353l36 -24l-234 -349l-231 -375zM265 498q0 -50 -68 -92v-5q34 -6 57.5 -33.5t23.5 -61.5q0 -47 -39.5 -75.5t-85.5 -28.5q-92 0 -92 49q0 11 7.5 19t20.5 8q17 0 33 -21t34 -21q20 0 38 18.5t18 48.5q0 34 -26.5 55.5t-40.5 14.5l-20 -11l-13 21
q40 19 63.5 43t23.5 48q0 39 -40 39q-38 0 -71 -38l-17 15q20 28 51.5 49t67.5 21q31 0 53 -16t22 -46zM428 -42q0 59 66 94v5q-56 29 -56 80q0 39 29.5 66.5t78.5 27.5q44 0 72 -22.5t28 -56.5q0 -50 -59 -87v-4q66 -35 66 -88q0 -46 -31.5 -73t-83.5 -27q-48 0 -79 23.5
t-31 61.5zM487 -44q0 -51 51 -51q25 0 39.5 15.5t14.5 39.5q0 41 -64 77q-41 -24 -41 -81zM498 154q0 -47 58 -74q29 26 29 71q0 22 -11.5 35t-31.5 13q-22 0 -33 -13.5t-11 -31.5z" />
    <glyph glyph-name="fourfifths.onum" 
d="M111 -134l241 370l223 353l36 -24l-234 -349l-231 -375zM213 564l30 -9v-205h39v-41h-39v-100h-62v99h-132l-9 23zM181 458l-6 4l-79 -107l3 -5h82v108zM440 57l16 167h145l14 22h19l-12 -79h-137l-6 -59l5 -5q10 5 28 5q46 0 82.5 -30t36.5 -80q0 -55 -41.5 -90
t-97.5 -35q-34 0 -54 11.5t-20 27.5q0 27 29 27q12 0 34 -12.5t38 -12.5q50 0 50 62q0 36 -21.5 58t-53.5 22q-24 0 -44 -9z" />
    <glyph glyph-name="foursevenths.onum" 
d="M111 -134l241 370l223 353l36 -24l-234 -349l-231 -375zM213 564l30 -9v-205h39v-41h-39v-100h-62v99h-132l-9 23zM181 458l-6 4l-79 -107l3 -5h82v108zM665 224l10 -14q-85 -165 -120 -316q-6 -21 -40 -21q-19 0 -29 5t-6 16q43 120 138 266l-3 8h-130l-18 -43h-25
l24 99h199z" />
    <glyph glyph-name="fourninths.onum" 
d="M111 -134l241 370l223 353l36 -24l-234 -349l-231 -375zM213 564l30 -9v-205h39v-41h-39v-100h-62v99h-132l-9 23zM181 458l-6 4l-79 -107l3 -5h82v108zM578 13l-9 4q-21 -17 -50 -17q-43 0 -73.5 29.5t-30.5 80.5q0 55 36.5 88t81.5 33q52 0 85 -39t33 -104
q0 -89 -55.5 -154.5t-145.5 -75.5v29q49 9 85 43.5t43 82.5zM579 65q6 15 6 58q0 33 -14.5 54.5t-39.5 21.5q-22 0 -35 -22.5t-13 -62.5q0 -79 48 -79q27 0 48 30z" />
    <glyph glyph-name="fivesixths.onum" 
d="M111 -134l241 370l223 353l36 -24l-234 -349l-231 -375zM85 386l16 167h145l14 22h19l-12 -79h-137l-6 -59l5 -5q10 5 28 5q46 0 82.5 -30t36.5 -80q0 -55 -41.5 -90t-97.5 -35q-34 0 -54 11.5t-20 27.5q0 27 29 27q12 0 34 -12.5t38 -12.5q50 0 50 62q0 36 -21.5 58
t-53.5 22q-25 0 -44 -9zM475 82l7 -3q20 20 57 20q36 0 66 -27t30 -78q0 -48 -30 -84.5t-91 -36.5q-51 0 -83 37.5t-32 105.5q0 76 50.5 141t136.5 92l9 -26q-104 -53 -120 -141zM472 36q-4 -12 -4 -49q0 -38 14 -59t34 -21q23 0 36.5 24.5t13.5 60.5q0 34 -13.5 52.5
t-31.5 18.5q-33 0 -49 -27z" />
    <glyph glyph-name="fivesevenths.onum" 
d="M111 -134l241 370l223 353l36 -24l-234 -349l-231 -375zM85 386l16 167h145l14 22h19l-12 -79h-137l-6 -59l5 -5q10 5 28 5q46 0 82.5 -30t36.5 -80q0 -55 -41.5 -90t-97.5 -35q-34 0 -54 11.5t-20 27.5q0 27 29 27q12 0 34 -12.5t38 -12.5q50 0 50 62q0 36 -21.5 58
t-53.5 22q-25 0 -44 -9zM665 224l10 -14q-85 -165 -120 -316q-6 -21 -40 -21q-19 0 -29 5t-6 16q43 120 138 266l-3 8h-130l-18 -43h-25l24 99h199z" />
    <glyph glyph-name="fiveeighths.onum" 
d="M111 -134l241 370l223 353l36 -24l-234 -349l-231 -375zM85 386l16 167h145l14 22h19l-12 -79h-137l-6 -59l5 -5q10 5 28 5q46 0 82.5 -30t36.5 -80q0 -55 -41.5 -90t-97.5 -35q-34 0 -54 11.5t-20 27.5q0 27 29 27q12 0 34 -12.5t38 -12.5q50 0 50 62q0 36 -21.5 58
t-53.5 22q-25 0 -44 -9zM428 -42q0 59 66 94v5q-56 29 -56 80q0 39 29.5 66.5t78.5 27.5q44 0 72 -22.5t28 -56.5q0 -50 -59 -87v-4q66 -35 66 -88q0 -46 -31.5 -73t-83.5 -27q-48 0 -79 23.5t-31 61.5zM487 -44q0 -51 51 -51q25 0 39.5 15.5t14.5 39.5q0 41 -64 77
q-41 -24 -41 -81zM498 154q0 -47 58 -74q29 26 29 71q0 22 -11.5 35t-31.5 13q-22 0 -33 -13.5t-11 -31.5z" />
    <glyph glyph-name="fiveninths.onum" 
d="M111 -134l241 370l223 353l36 -24l-234 -349l-231 -375zM85 386l16 167h145l14 22h19l-12 -79h-137l-6 -59l5 -5q10 5 28 5q46 0 82.5 -30t36.5 -80q0 -55 -41.5 -90t-97.5 -35q-34 0 -54 11.5t-20 27.5q0 27 29 27q12 0 34 -12.5t38 -12.5q50 0 50 62q0 36 -21.5 58
t-53.5 22q-25 0 -44 -9zM578 13l-9 4q-21 -17 -50 -17q-43 0 -73.5 29.5t-30.5 80.5q0 55 36.5 88t81.5 33q52 0 85 -39t33 -104q0 -89 -55.5 -154.5t-145.5 -75.5v29q49 9 85 43.5t43 82.5zM579 65q6 15 6 58q0 33 -14.5 54.5t-39.5 21.5q-22 0 -35 -22.5t-13 -62.5
q0 -79 48 -79q27 0 48 30z" />
    <glyph glyph-name="sixsevenths.onum" 
d="M111 -134l241 370l223 353l36 -24l-234 -349l-231 -375zM125 411l7 -3q20 20 57 20q36 0 66 -27t30 -78q0 -48 -30 -84.5t-91 -36.5q-51 0 -83 37.5t-32 105.5q0 76 50.5 141t136.5 92l9 -26q-104 -53 -120 -141zM122 365q-4 -12 -4 -49q0 -38 14 -59t34 -21
q23 0 36.5 24.5t13.5 60.5q0 34 -13.5 52.5t-31.5 18.5q-33 0 -49 -27zM665 224l10 -14q-85 -165 -120 -316q-6 -21 -40 -21q-19 0 -29 5t-6 16q43 120 138 266l-3 8h-130l-18 -43h-25l24 99h199z" />
    <glyph glyph-name="seveneighths.onum" 
d="M111 -134l241 370l223 353l36 -24l-234 -349l-231 -375zM311 553l10 -14q-85 -165 -120 -316q-6 -21 -40 -21q-19 0 -29 5t-6 16q43 120 138 266l-3 8h-130l-18 -43h-25l24 99h199zM428 -42q0 59 66 94v5q-56 29 -56 80q0 39 29.5 66.5t78.5 27.5q44 0 72 -22.5t28 -56.5
q0 -50 -59 -87v-4q66 -35 66 -88q0 -46 -31.5 -73t-83.5 -27q-48 0 -79 23.5t-31 61.5zM487 -44q0 -51 51 -51q25 0 39.5 15.5t14.5 39.5q0 41 -64 77q-41 -24 -41 -81zM498 154q0 -47 58 -74q29 26 29 71q0 22 -11.5 35t-31.5 13q-22 0 -33 -13.5t-11 -31.5z" />
    <glyph glyph-name="sevenninths.onum" 
d="M111 -134l241 370l223 353l36 -24l-234 -349l-231 -375zM311 553l10 -14q-85 -165 -120 -316q-6 -21 -40 -21q-19 0 -29 5t-6 16q43 120 138 266l-3 8h-130l-18 -43h-25l24 99h199zM578 13l-9 4q-21 -17 -50 -17q-43 0 -73.5 29.5t-30.5 80.5q0 55 36.5 88t81.5 33
q52 0 85 -39t33 -104q0 -89 -55.5 -154.5t-145.5 -75.5v29q49 9 85 43.5t43 82.5zM579 65q6 15 6 58q0 33 -14.5 54.5t-39.5 21.5q-22 0 -35 -22.5t-13 -62.5q0 -79 48 -79q27 0 48 30z" />
    <glyph glyph-name="eightninths.onum" 
d="M111 -134l241 370l223 353l36 -24l-234 -349l-231 -375zM66 287q0 59 66 94v5q-56 29 -56 80q0 39 29.5 66.5t78.5 27.5q44 0 72 -22.5t28 -56.5q0 -50 -59 -87v-4q66 -35 66 -88q0 -46 -31.5 -73t-83.5 -27q-48 0 -79 23.5t-31 61.5zM125 285q0 -51 51 -51
q25 0 39.5 15.5t14.5 39.5q0 41 -64 77q-41 -24 -41 -81zM136 483q0 -47 58 -74q29 26 29 71q0 22 -11.5 35t-31.5 13q-22 0 -33 -13.5t-11 -31.5zM578 13l-9 4q-21 -17 -50 -17q-43 0 -73.5 29.5t-30.5 80.5q0 55 36.5 88t81.5 33q52 0 85 -39t33 -104q0 -89 -55.5 -154.5
t-145.5 -75.5v29q49 9 85 43.5t43 82.5zM579 65q6 15 6 58q0 33 -14.5 54.5t-39.5 21.5q-22 0 -35 -22.5t-13 -62.5q0 -79 48 -79q27 0 48 30z" />
    <glyph glyph-name="zero.numr.tallfig" horiz-adv-x="288" 
d="M22 519q0 92 35.5 139.5t90.5 47.5q53 0 86 -48t33 -139q0 -84 -33 -127.5t-86 -43.5q-55 0 -90.5 43.5t-35.5 127.5zM90 519q0 -72 16.5 -106t41.5 -34q22 0 37 35t15 105q0 78 -15 117t-37 39q-24 0 -41 -40.5t-17 -115.5z" />
    <glyph glyph-name="one.numr.tallfig" horiz-adv-x="233" 
d="M27 646v30q55 2 99 28l31 -3v-309l53 -8v-29h-171v29l55 8v257q-39 -10 -67 -3z" />
    <glyph glyph-name="two.numr.tallfig" horiz-adv-x="287" 
d="M177 599q0 24 -14 40.5t-39 16.5q-36 0 -83 -55l-17 17q64 88 134 88q43 0 67 -22.5t24 -57.5q0 -42 -45.5 -103t-91.5 -101l3 -8h107l24 39l23 -7l-29 -91h-214l-6 18q53 42 105 109t52 117z" />
    <glyph glyph-name="three.numr.tallfig" horiz-adv-x="259" 
d="M222 644q0 -50 -68 -92v-5q34 -6 57.5 -33.5t23.5 -61.5q0 -47 -39.5 -75.5t-85.5 -28.5q-92 0 -92 49q0 11 7.5 19t20.5 8q17 0 33 -21t34 -21q20 0 38 18.5t18 48.5q0 34 -26.5 55.5t-40.5 14.5l-20 -11l-13 21q40 19 63.5 43t23.5 48q0 39 -40 39q-38 0 -71 -38
l-17 15q20 28 51.5 49t67.5 21q31 0 53 -16t22 -46z" />
    <glyph glyph-name="four.numr.tallfig" horiz-adv-x="279" 
d="M190 710l30 -9v-205h39v-41h-39v-100h-62v99h-132l-9 23zM158 604l-6 4l-79 -107l3 -5h82v108z" />
    <glyph glyph-name="five.numr.tallfig" horiz-adv-x="260" 
d="M43 532l16 167h145l14 22h19l-12 -79h-137l-6 -59l5 -5q10 5 28 5q46 0 82.5 -30t36.5 -80q0 -55 -41.5 -90t-97.5 -35q-34 0 -54 11.5t-20 27.5q0 27 29 27q12 0 34 -12.5t38 -12.5q50 0 50 62q0 36 -21.5 58t-53.5 22q-24 0 -44 -9z" />
    <glyph glyph-name="six.numr.tallfig" horiz-adv-x="276" 
d="M99 557l7 -3q20 20 57 20q36 0 66 -27t30 -78q0 -48 -30 -84.5t-91 -36.5q-51 0 -83 37.5t-32 105.5q0 76 50.5 141t136.5 92l9 -26q-104 -53 -120 -141zM96 511q-4 -12 -4 -49q0 -38 14 -59t34 -21q23 0 36.5 24.5t13.5 60.5q0 34 -13.5 52.5t-31.5 18.5q-33 0 -49 -27z
" />
    <glyph glyph-name="seven.numr.tallfig" horiz-adv-x="258" 
d="M237 699l10 -14q-85 -165 -120 -316q-6 -21 -40 -21q-19 0 -29 5t-6 16q43 120 138 266l-3 8h-130l-18 -43h-25l24 99h199z" />
    <glyph glyph-name="eight.numr.tallfig" horiz-adv-x="287" 
d="M31 433q0 59 66 94v5q-56 29 -56 80q0 39 29.5 66.5t78.5 27.5q44 0 72 -22.5t28 -56.5q0 -50 -59 -87v-4q66 -35 66 -88q0 -46 -31.5 -73t-83.5 -27q-48 0 -79 23.5t-31 61.5zM90 431q0 -51 51 -51q25 0 39.5 15.5t14.5 39.5q0 41 -64 77q-41 -24 -41 -81zM101 629
q0 -47 58 -74q29 26 29 71q0 22 -11.5 35t-31.5 13q-22 0 -33 -13.5t-11 -31.5z" />
    <glyph glyph-name="nine.numr.tallfig" horiz-adv-x="276" 
d="M181 488l-9 4q-21 -17 -50 -17q-43 0 -73.5 29.5t-30.5 80.5q0 55 36.5 88t81.5 33q52 0 85 -39t33 -104q0 -89 -55.5 -154.5t-145.5 -75.5v29q49 9 85 43.5t43 82.5zM182 540q6 15 6 58q0 33 -14.5 54.5t-39.5 21.5q-22 0 -35 -22.5t-13 -62.5q0 -79 48 -79q27 0 48 30z
" />
    <glyph glyph-name="zero.dnom.tallfig" horiz-adv-x="288" 
d="M22 164q0 92 35.5 139.5t90.5 47.5q53 0 86 -48t33 -139q0 -84 -33 -127.5t-86 -43.5q-55 0 -90.5 43.5t-35.5 127.5zM90 164q0 -72 16.5 -106t41.5 -34q22 0 37 35t15 105q0 78 -15 117t-37 39q-24 0 -41 -40.5t-17 -115.5z" />
    <glyph glyph-name="one.dnom.tallfig" horiz-adv-x="233" 
d="M27 291v30q55 2 99 28l31 -3v-309l53 -8v-29h-171v29l55 8v257q-39 -10 -67 -3z" />
    <glyph glyph-name="two.dnom.tallfig" horiz-adv-x="287" 
d="M177 244q0 24 -14 40.5t-39 16.5q-36 0 -83 -55l-17 17q64 88 134 88q43 0 67 -22.5t24 -57.5q0 -42 -45.5 -103t-91.5 -101l3 -8h107l24 39l23 -7l-29 -91h-214l-6 18q53 42 105 109t52 117z" />
    <glyph glyph-name="three.dnom.tallfig" horiz-adv-x="259" 
d="M222 289q0 -50 -68 -92v-5q34 -6 57.5 -33.5t23.5 -61.5q0 -47 -39.5 -75.5t-85.5 -28.5q-92 0 -92 49q0 11 7.5 19t20.5 8q17 0 33 -21t34 -21q20 0 38 18.5t18 48.5q0 34 -26.5 55.5t-40.5 14.5l-20 -11l-13 21q40 19 63.5 43t23.5 48q0 39 -40 39q-38 0 -71 -38
l-17 15q20 28 51.5 49t67.5 21q31 0 53 -16t22 -46z" />
    <glyph glyph-name="four.dnom.tallfig" horiz-adv-x="279" 
d="M190 355l30 -9v-205h39v-41h-39v-100h-62v99h-132l-9 23zM158 249l-6 4l-79 -107l3 -5h82v108z" />
    <glyph glyph-name="five.dnom.tallfig" horiz-adv-x="260" 
d="M43 177l16 167h145l14 22h19l-12 -79h-137l-6 -59l5 -5q10 5 28 5q46 0 82.5 -30t36.5 -80q0 -55 -41.5 -90t-97.5 -35q-34 0 -54 11.5t-20 27.5q0 27 29 27q12 0 34 -12.5t38 -12.5q50 0 50 62q0 36 -21.5 58t-53.5 22q-24 0 -44 -9z" />
    <glyph glyph-name="six.dnom.tallfig" horiz-adv-x="276" 
d="M99 202l7 -3q20 20 57 20q36 0 66 -27t30 -78q0 -48 -30 -84.5t-91 -36.5q-51 0 -83 37.5t-32 105.5q0 76 50.5 141t136.5 92l9 -26q-104 -53 -120 -141zM96 156q-4 -12 -4 -49q0 -38 14 -59t34 -21q23 0 36.5 24.5t13.5 60.5q0 34 -13.5 52.5t-31.5 18.5q-33 0 -49 -27z
" />
    <glyph glyph-name="seven.dnom.tallfig" horiz-adv-x="258" 
d="M237 344l10 -14q-85 -165 -120 -316q-6 -21 -40 -21q-19 0 -29 5t-6 16q43 120 138 266l-3 8h-130l-18 -43h-25l24 99h199z" />
    <glyph glyph-name="eight.dnom.tallfig" horiz-adv-x="287" 
d="M31 78q0 59 66 94v5q-56 29 -56 80q0 39 29.5 66.5t78.5 27.5q44 0 72 -22.5t28 -56.5q0 -50 -59 -87v-4q66 -35 66 -88q0 -46 -31.5 -73t-83.5 -27q-48 0 -79 23.5t-31 61.5zM90 76q0 -51 51 -51q25 0 39.5 15.5t14.5 39.5q0 41 -64 77q-41 -24 -41 -81zM101 274
q0 -47 58 -74q29 26 29 71q0 22 -11.5 35t-31.5 13q-22 0 -33 -13.5t-11 -31.5z" />
    <glyph glyph-name="nine.dnom.tallfig" horiz-adv-x="276" 
d="M181 133l-9 4q-21 -17 -50 -17q-43 0 -73.5 29.5t-30.5 80.5q0 55 36.5 88t81.5 33q52 0 85 -39t33 -104q0 -89 -55.5 -154.5t-145.5 -75.5v29q49 9 85 43.5t43 82.5zM182 185q6 15 6 58q0 33 -14.5 54.5t-39.5 21.5q-22 0 -35 -22.5t-13 -62.5q0 -79 48 -79q27 0 48 30z
" />
    <glyph glyph-name="fraction.tallfig" 
d="M112 6l241 370l223 353l36 -24l-234 -349l-231 -375z" />
    <glyph glyph-name="zero.subs" horiz-adv-x="288" 
d="M22 4q0 92 35.5 139.5t90.5 47.5q53 0 86 -48t33 -139q0 -84 -33 -127.5t-86 -43.5q-55 0 -90.5 43.5t-35.5 127.5zM90 4q0 -72 16.5 -106t41.5 -34q22 0 37 35t15 105q0 78 -15 117t-37 39q-24 0 -41 -40.5t-17 -115.5z" />
    <glyph glyph-name="one.subs" horiz-adv-x="233" 
d="M27 131v30q55 2 99 28l31 -3v-309l53 -8v-29h-171v29l55 8v257q-39 -10 -67 -3z" />
    <glyph glyph-name="two.subs" horiz-adv-x="287" 
d="M177 84q0 24 -14 40.5t-39 16.5q-36 0 -83 -55l-17 17q64 88 134 88q43 0 67 -22.5t24 -57.5q0 -42 -45.5 -103t-91.5 -101l3 -8h107l24 39l23 -7l-29 -91h-214l-6 18q53 42 105 109t52 117z" />
    <glyph glyph-name="three.subs" horiz-adv-x="259" 
d="M222 129q0 -50 -68 -92v-5q34 -6 57.5 -33.5t23.5 -61.5q0 -47 -39.5 -75.5t-85.5 -28.5q-92 0 -92 49q0 11 7.5 19t20.5 8q17 0 33 -21t34 -21q20 0 38 18.5t18 48.5q0 34 -26.5 55.5t-40.5 14.5l-20 -11l-13 21q40 19 63.5 43t23.5 48q0 39 -40 39q-38 0 -71 -38
l-17 15q20 28 51.5 49t67.5 21q31 0 53 -16t22 -46z" />
    <glyph glyph-name="four.subs" horiz-adv-x="279" 
d="M190 195l30 -9v-205h39v-41h-39v-100h-62v99h-132l-9 23zM158 89l-6 4l-79 -107l3 -5h82v108z" />
    <glyph glyph-name="five.subs" horiz-adv-x="260" 
d="M43 17l16 167h145l14 22h19l-12 -79h-137l-6 -59l5 -5q10 5 28 5q46 0 82.5 -30t36.5 -80q0 -55 -41.5 -90t-97.5 -35q-34 0 -54 11.5t-20 27.5q0 27 29 27q12 0 34 -12.5t38 -12.5q50 0 50 62q0 36 -21.5 58t-53.5 22q-24 0 -44 -9z" />
    <glyph glyph-name="six.subs" horiz-adv-x="276" 
d="M99 42l7 -3q20 20 57 20q36 0 66 -27t30 -78q0 -48 -30 -84.5t-91 -36.5q-51 0 -83 37.5t-32 105.5q0 76 50.5 141t136.5 92l9 -26q-104 -53 -120 -141zM96 -4q-4 -12 -4 -49q0 -38 14 -59t34 -21q23 0 36.5 24.5t13.5 60.5q0 34 -13.5 52.5t-31.5 18.5q-33 0 -49 -27z
" />
    <glyph glyph-name="seven.subs" horiz-adv-x="258" 
d="M237 184l10 -14q-85 -165 -120 -316q-6 -21 -40 -21q-19 0 -29 5t-6 16q43 120 138 266l-3 8h-130l-18 -43h-25l24 99h199z" />
    <glyph glyph-name="eight.subs" horiz-adv-x="287" 
d="M31 -82q0 59 66 94v5q-56 29 -56 80q0 39 29.5 66.5t78.5 27.5q44 0 72 -22.5t28 -56.5q0 -50 -59 -87v-4q66 -35 66 -88q0 -46 -31.5 -73t-83.5 -27q-48 0 -79 23.5t-31 61.5zM90 -84q0 -51 51 -51q25 0 39.5 15.5t14.5 39.5q0 41 -64 77q-41 -24 -41 -81zM101 114
q0 -47 58 -74q29 26 29 71q0 22 -11.5 35t-31.5 13q-22 0 -33 -13.5t-11 -31.5z" />
    <glyph glyph-name="nine.subs" horiz-adv-x="276" 
d="M181 -27l-9 4q-21 -17 -50 -17q-43 0 -73.5 29.5t-30.5 80.5q0 55 36.5 88t81.5 33q52 0 85 -39t33 -104q0 -89 -55.5 -154.5t-145.5 -75.5v29q49 9 85 43.5t43 82.5zM182 25q6 15 6 58q0 33 -14.5 54.5t-39.5 21.5q-22 0 -35 -22.5t-13 -62.5q0 -79 48 -79q27 0 48 30z
" />
    <glyph glyph-name="Iacute_Jacute" horiz-adv-x="685" 
d="M27 706h276v-35l-90 -15v-606l90 -15v-35h-276v35l90 15v606l-90 15v35zM110 756v8l86 129h84v-10l-129 -127h-41zM465 -46v702l-108 15v35h301v-35l-97 -15v-609q0 -119 -76 -205.5t-161 -86.5q-38 0 -62.5 16t-24.5 47q0 24 15 37.5t39 13.5q20 0 48.5 -11t52.5 -11
q73 0 73 107zM460 756v8l86 129h84v-10l-129 -127h-41z" />
    <glyph glyph-name="iacute_jacute" horiz-adv-x="500" 
d="M423 471v-458q0 -90 -40 -159.5t-116 -104.5l-16 29q91 77 91 219v383l-68 28v21l126 42h23zM168 471v-426l60 -15v-30h-201v30l60 15v335l-65 28v21l122 42h24zM70 518v8l86 164h84v-10l-129 -162h-41zM323 518v8l86 164h84v-10l-129 -162h-41z" />
    <glyph glyph-name="f.narrow" horiz-adv-x="304" 
d="M287 406h-121v-358l78 -18v-30h-219v30l60 15v361h-66v29l66 41v42q0 87 56 154t123 67q43 0 68.5 -20t25.5 -51q0 -22 -11 -36t-28 -14q-14 0 -25.5 11.5t-17.5 25t-15.5 25t-19.5 11.5q-32 0 -53.5 -53.5t-21.5 -113.5v-66h121v-52z" />
    <glyph glyph-name="f_f.narrow" horiz-adv-x="583" 
d="M566 406h-121v-358l78 -18v-30h-226v30l67 15v361h-198v-358l78 -18v-30h-219v30l60 15v361h-66v29l66 41v42q0 87 56 154t123 67q43 0 68.5 -20t25.5 -51q0 -22 -11 -36t-28 -14q-14 0 -25.5 11.5t-17.5 25t-15.5 25t-19.5 11.5q-32 0 -53.5 -53.5t-21.5 -113.5v-66h198
v60q0 87 56 154t123 67q43 0 68.5 -20t25.5 -51q0 -22 -11 -36t-28 -14q-14 0 -25.5 11.5t-17.5 25t-15.5 25t-19.5 11.5q-32 0 -53.5 -53.5t-21.5 -113.5v-66h121v-52z" />
    <glyph glyph-name="acute.plk" horiz-adv-x="500" 
d="M225 488v8l36 164h84v-10l-79 -162h-41z" />
    <glyph glyph-name="acute.case" horiz-adv-x="500" 
d="M195 488v8l86 129h84v-10l-129 -127h-41z" />
    <glyph glyph-name="acute.case.plk" horiz-adv-x="500" 
d="M225 488v8l36 129h84v-10l-79 -127h-41z" />
    <glyph glyph-name="grave.case" horiz-adv-x="500" 
d="M305 496v-8h-41l-129 127v10h84z" />
    <glyph glyph-name="circumflex.case" horiz-adv-x="500" 
d="M395 496v-8h-41l-104 79l-104 -79h-41v8l121 129h48z" />
    <glyph glyph-name="breve.case" horiz-adv-x="500" 
d="M250 488q-50 0 -85 33.5t-35 98.5h40q0 -32 22.5 -54t57.5 -22q32 0 56 21.5t24 54.5h40q0 -65 -35 -98.5t-85 -33.5z" />
    <glyph glyph-name="caron.case" horiz-adv-x="500" 
d="M395 625v-8l-121 -129h-48l-121 129v8h41l104 -79l104 79h41z" />
    <glyph glyph-name="dotaccent.case" horiz-adv-x="500" 
d="M188 564q0 26 18 44t43 18t43.5 -18t18.5 -44q0 -25 -18 -43t-44 -18q-25 0 -43 17.5t-18 43.5z" />
    <glyph glyph-name="hungarumlaut.case" horiz-adv-x="500" 
d="M275 488v8l91 129h89v-10l-139 -127h-41zM135 488v8l91 129h89v-10l-139 -127h-41z" />
    <glyph glyph-name="sidecaron.part" horiz-adv-x="500" 
d="M260 499v8l16 199h79v-10l-54 -197h-41z" />
    <glyph glyph-name="gcomma.part" horiz-adv-x="500" 
d="M296 544q0 -16 -11.5 -27.5t-31.5 -11.5q-29 0 -48.5 24t-19.5 60q0 71 84 118l20 -29q-48 -28 -48 -61q0 -19 27.5 -37.5t27.5 -35.5z" />
    <glyph glyph-name="Stroke.part" horiz-adv-x="430" 
d="M49 553h692v-51h-692v51z" />
    </font>
</defs>
</svg>
