<?xml version="1.0" standalone="no"?>
<!DOCTYPE svg PUBLIC "-//W3C//DTD SVG 1.1//EN" "http://www.w3.org/Graphics/SVG/1.1/DTD/svg11.dtd" >
<svg xmlns="http://www.w3.org/2000/svg" xmlns:xlink="http://www.w3.org/1999/xlink" version="1.1">
<metadata>
Created by FontForge 20170731 at Sun Mar  3 17:31:49 2019
 By Aleksey,,,
Copyright 2018-2019 Matthew Butterick
</metadata>
<defs>
<font id="ValkyrieT4" horiz-adv-x="720" >
  <font-face 
    font-family="Valkyrie T4"
    font-weight="400"
    font-stretch="normal"
    units-per-em="1000"
    panose-1="0 0 0 0 0 0 0 0 0 0"
    ascent="755"
    descent="-245"
    x-height="481"
    cap-height="663"
    bbox="-72 -243 951 974"
    underline-thickness="50"
    underline-position="-175"
    unicode-range="U+000D-FB02"
  />
<missing-glyph horiz-adv-x="540" 
d="M20 0v700h500v-700h-500zM70 650v-600h400v600h-400zM201 137q0 20 13.5 34t33.5 14t34 -14t14 -34t-14 -33.5t-34 -13.5t-33.5 14t-13.5 33zM284 281v-16l-27 -23q-65 10 -65 50q0 22 21.5 48.5t47.5 46.5t47.5 44.5t21.5 43.5q0 27 -30.5 46t-59.5 19q-15 0 -28 -7
l-19 -43l-34 14q8 44 27 80q14 27 47 27q60 0 112 -32t52 -81q0 -32 -36.5 -69t-72.5 -68.5t-36 -49.5q0 -20 32 -30z" />
    <glyph glyph-name="uni2190" unicode="&#x3c;&#x2d;" horiz-adv-x="700" 
d="M74 272l237 264l61 -46l-163 -183h420v-84h-420l163 -183l-61 -47l-237 266v13z" />
    <glyph glyph-name="uni2192" unicode="&#x2d;&#x3e;" horiz-adv-x="700" 
d="M389 536l237 -264v-13l-237 -266l-61 47l163 183h-420v84h420l-163 183z" />
    <glyph glyph-name="fi" unicode="fi" horiz-adv-x="658" 
d="M368 633h-25q-24 13 -53 13q-89 0 -89 -125v-66l133 10v-70h-133v-337l101 -21v-37h-279v37l82 21v337h-78v31l78 27v45q0 65 31 100q127 154 199 154q23 0 34 -7zM555 495v-437l76 -21v-37h-249v37l77 21v351l-82 17v28l152 41h26zM436 666q0 26 19.5 46t45.5 20
q27 0 46.5 -20t19.5 -46t-19.5 -45.5t-46.5 -19.5q-26 0 -45.5 19.5t-19.5 45.5z" />
    <glyph glyph-name="fl" unicode="fl" horiz-adv-x="655" 
d="M562 750l-5 -188v-504l76 -21v-37h-252v37l80 21v479l-5 127l-57 15v27l133 44h30zM368 633h-25q-24 13 -53 13q-89 0 -89 -125v-66l133 10v-70h-133v-337l101 -21v-37h-279v37l82 21v337h-78v31l78 27v45q0 65 31 100q127 154 199 154q23 0 34 -7z" />
    <glyph glyph-name="uni2192.circle" unicode="&#x28;&#x2d;&#x3e;&#x29;" horiz-adv-x="880" 
d="M718 272l-237 264l-61 -46l163 -183h-420v-84h420l-163 -183l61 -47l237 266v13zM58 263q0 159 111.5 271t268.5 112q159 0 271.5 -112t112.5 -271q0 -157 -112.5 -268.5t-271.5 -111.5q-157 0 -268.5 111.5t-111.5 268.5z" />
    <glyph glyph-name="uni2190.circle" unicode="&#x28;&#x3c;&#x2d;&#x29;" horiz-adv-x="880" 
d="M399 536l-237 -264v-13l237 -266l61 47l-163 183h420v84h-420l163 183zM822 263q0 -157 -111.5 -268.5t-268.5 -111.5q-159 0 -271.5 111.5t-112.5 268.5q0 159 112.5 271t271.5 112q157 0 268.5 -112t111.5 -271z" />
    <glyph glyph-name="uni2193.circle" unicode="&#x28;&#x2193;&#x29;" horiz-adv-x="880" 
d="M447 -14l264 237l-46 61l-183 -163v420h-84v-420l-183 163l-47 -61l266 -237h13zM438 646q159 0 271.5 -111.5t112.5 -268.5q0 -159 -112.5 -271.5t-271.5 -112.5q-157 0 -268.5 112.5t-111.5 271.5q0 157 111.5 268.5t268.5 111.5z" />
    <glyph glyph-name="uni2191.circle" unicode="&#x28;&#x2191;&#x29;" horiz-adv-x="880" 
d="M711 305l-264 237h-13l-266 -237l47 -61l183 163v-420h84v420l183 -163zM438 -118q-157 0 -268.5 111.5t-111.5 268.5q0 159 111.5 271.5t268.5 112.5q159 0 271.5 -112.5t112.5 -271.5q0 -157 -112.5 -268.5t-271.5 -111.5z" />
    <glyph glyph-name=".notdef" horiz-adv-x="540" 
d="M20 0v700h500v-700h-500zM70 650v-600h400v600h-400zM201 137q0 20 13.5 34t33.5 14t34 -14t14 -34t-14 -33.5t-34 -13.5t-33.5 14t-13.5 33zM284 281v-16l-27 -23q-65 10 -65 50q0 22 21.5 48.5t47.5 46.5t47.5 44.5t21.5 43.5q0 27 -30.5 46t-59.5 19q-15 0 -28 -7
l-19 -43l-34 14q8 44 27 80q14 27 47 27q60 0 112 -32t52 -81q0 -32 -36.5 -69t-72.5 -68.5t-36 -49.5q0 -20 32 -30z" />
    <glyph glyph-name=".null" horiz-adv-x="0" 
 />
    <glyph glyph-name="nonmarkingreturn" horiz-adv-x="333" 
 />
    <glyph glyph-name="NULL" horiz-adv-x="0" 
 />
    <glyph glyph-name="NULL" horiz-adv-x="0" 
 />
    <glyph glyph-name="CR" unicode="&#xd;" horiz-adv-x="230" 
 />
    <glyph glyph-name="space" unicode=" " horiz-adv-x="230" 
 />
    <glyph glyph-name="exclam" unicode="!" horiz-adv-x="333" 
d="M102 57q0 27 18.5 46t45.5 19t46 -19t19 -46t-19 -45.5t-46 -18.5t-45.5 18.5t-18.5 45.5zM203 700l22 -11l-39 -484l-40 -5l-35 455z" />
    <glyph glyph-name="quotedbl" unicode="&#x22;" horiz-adv-x="487" 
d="M134 410l-27 308h94l-22 -308h-45zM313 410l-27 308h94l-22 -308h-45z" />
    <glyph glyph-name="numbersign" unicode="#" horiz-adv-x="510" 
d="M87 490l97 -14l41 198l53 -7l-41 -198l95 -13l45 218l53 -7l-45 -218l104 -14l-7 -60l-110 15l-33 -162l91 -12l-7 -60l-97 13l-42 -203l-53 6l42 204l-95 13l-46 -223l-53 6l46 224l-104 15l7 60l110 -15l33 161l-91 13zM224 410l-33 -161l95 -13l33 161z" />
    <glyph glyph-name="dollar" unicode="$" horiz-adv-x="546" 
d="M80 25l-13 171h53q12 -83 45.5 -117.5t91.5 -35.5v234l-1 1q-38 13 -66 26.5t-56 35t-43 54t-15 73.5q0 77 53 121t128 51v99h42v-99q61 -2 148 -28l5 -156h-42q-26 120 -111 131v-222q41 -15 70 -29t58 -36t43.5 -53t14.5 -70q0 -70 -49.5 -123.5t-136.5 -61.5v-109h-42
v107q-53 1 -104 12t-73 24zM392 155q0 67 -93 107v-216q44 9 68.5 37.5t24.5 71.5zM170 479q0 -60 87 -98v204q-42 -6 -64.5 -34t-22.5 -72z" />
    <glyph glyph-name="percent" unicode="%" horiz-adv-x="556" 
d="M295 517l-3 -1q-1 -82 -44 -135.5t-100 -53.5q-48 0 -78 36t-30 91q0 74 47 129t101 55q34 0 59.5 -18.5t36.5 -51.5q6 -15 25 -24.5t42 -9.5q48 0 84 31q24 67 55 67q24 0 24 -23q0 -30 -44 -61l-210 -286l-197 -282l-33 26l205 275l159 227l-2 2q-21 -12 -48 -12
q-30 0 -49 19zM264 115q0 74 47 129t101 55q46 0 75 -32t29 -86q0 -86 -44 -139.5t-98 -53.5q-49 0 -79.5 36t-30.5 91zM429 254q-33 0 -62 -52.5t-29 -113.5q0 -28 11.5 -43.5t29.5 -15.5q34 0 62 41.5t28 120.5q0 30 -11.5 46.5t-28.5 16.5zM205 593q-33 0 -62 -52.5
t-29 -113.5q0 -59 43 -59q33 0 60.5 42.5t27.5 119.5q0 30 -11.5 46.5t-28.5 16.5z" />
    <glyph glyph-name="ampersand" unicode="&#x26;" horiz-adv-x="833" 
d="M758 345l-156 8q26 -67 15 -132.5t-54 -119.5q57 -23 109 -23l87 36l22 -33l-91 -94q-90 0 -195 54q-81 -54 -193 -54q-121 0 -185.5 51t-64.5 132q0 103 121 196q-41 87 -41 165q0 62 37.5 102.5t101.5 40.5q58 0 90.5 -36t32.5 -101q0 -30 -9 -56t-30.5 -51.5
t-36.5 -40t-46 -42.5q94 -135 229 -215q32 47 34 105t-29 122l-110 6l10 46l352 15v-81zM313 37q71 0 127 35q-139 90 -226 222q-65 -69 -65 -140q0 -57 46 -87t118 -30zM210 494q0 -33 24 -84q54 39 81.5 67.5t27.5 61.5q0 31 -16.5 49t-41.5 18q-35 0 -55 -31.5t-20 -80.5
z" />
    <glyph glyph-name="quotesingle" unicode="'" horiz-adv-x="308" 
d="M134 410l-27 308h94l-22 -308h-45z" />
    <glyph glyph-name="parenleft" unicode="(" horiz-adv-x="352" 
d="M336 -208l-29 -34q-88 56 -138 124t-70 159q-19 101 -18.5 222t20.5 216q37 161 205 268l30 -39q-129 -99 -154 -242q-22 -152 -9 -390q11 -178 163 -284z" />
    <glyph glyph-name="parenright" unicode=")" horiz-adv-x="352" 
d="M45 -242l-29 34q152 106 163 284q13 238 -9 390q-25 143 -154 242l30 39q168 -107 205 -268q20 -95 20.5 -216t-18.5 -222q-20 -91 -70 -159t-138 -124z" />
    <glyph glyph-name="asterisk" unicode="*" horiz-adv-x="476" 
d="M378 483l-128 41l51 -118q17 -40 -16 -58q-28 -15 -51 1q-15 11 -13 31l-8 139l-116 -84q-27 -18 -47 7q-20 24 -4 48q10 15 32 21l119 40l-110 90q-26 20 -9 46q15 23 41 18q17 -3 28 -20l77 -112l52 117q10 34 44 29q30 -5 39 -29q7 -20 -8 -39l-95 -94l122 2
q38 1 45 -29q7 -27 -14 -42q-13 -10 -31 -5z" />
    <glyph glyph-name="plus" unicode="+" horiz-adv-x="620" 
d="M570 230h-230v-230h-60v230h-230v60h230v230h60v-230h230v-60z" />
    <glyph glyph-name="comma" unicode="," horiz-adv-x="267" 
d="M52 -200l-39 21l72 146l20 135l100 -29l-56 -132z" />
    <glyph glyph-name="hyphen" unicode="-" horiz-adv-x="335" 
d="M50 303l64 -3h109l77 3l-15 -83l-61 3h-126l-63 -3z" />
    <glyph glyph-name="period" unicode="." horiz-adv-x="253" 
d="M62 57q0 27 18.5 46t45.5 19t46 -19t19 -46t-19 -45.5t-46 -18.5t-45.5 18.5t-18.5 45.5z" />
    <glyph glyph-name="slash" unicode="/" horiz-adv-x="460" 
d="M433 734l-340 -856h-66l340 856h66z" />
    <glyph glyph-name="zero" unicode="0" horiz-adv-x="605" 
d="M54 298q0 167 71.5 253.5t183.5 86.5q108 0 175 -87t67 -253q0 -152 -67 -231.5t-175 -79.5q-112 0 -183.5 79t-71.5 232zM162 299q0 -138 41 -201t106 -63q60 0 97.5 64t37.5 200q0 148 -37.5 220t-97.5 72q-63 0 -105 -74.5t-42 -217.5z" />
    <glyph glyph-name="one" unicode="1" horiz-adv-x="475" 
d="M76 493l-16 53q152 45 202 88l49 -5v-571l144 -15v-43h-385v43l140 15v477q-110 -37 -134 -42z" />
    <glyph glyph-name="two" unicode="2" horiz-adv-x="521" 
d="M233 562q-67 0 -100 -39q-24 -41 -24 -82h-56l27 131q30 27 82.5 46.5t81.5 19.5q89 0 149 -52t60 -133q0 -65 -91.5 -168t-220.5 -201l7 -14l321 20v-95l-424 5l-13 47q174 154 244.5 240t70.5 155q0 53 -35 86.5t-79 33.5z" />
    <glyph glyph-name="three" unicode="3" horiz-adv-x="521" 
d="M258 36q41 0 76 31t35 88q0 64 -51 102.5t-95 33.5l-71 -10l-14 50q83 12 146 54t63 91q0 91 -107 91q-63 0 -94 -29q-24 -34 -24 -72h-51l26 116q31 22 84 39t81 17q85 0 135.5 -36t50.5 -91q0 -47 -38.5 -88t-89.5 -70v-10q62 -12 107 -59.5t45 -107.5q0 -81 -69 -135
t-159 -54q-99 0 -179 43l-36 137h44q29 -61 74 -103q54 -28 111 -28z" />
    <glyph glyph-name="four" unicode="4" horiz-adv-x="585" 
d="M327 58v141h-272l-18 37q56 102 152.5 217.5t190.5 192.5l44 -17l-5 -147v-230h113v-52h-113v-142l106 -15v-43h-295v43zM327 503l-12 6q-110 -100 -196 -247l6 -10h202v251z" />
    <glyph glyph-name="five" unicode="5" horiz-adv-x="518" 
d="M215 -13q-28 0 -53 4.5t-37.5 9t-36.5 15.5t-32 14l-21 132h44q23 -63 53 -95q43 -29 76 -29q65 0 114 44t49 138q0 48 -27.5 76.5t-73.5 28.5q-83 0 -144 -51l-41 12l41 340h177l133 10l-14 -108l-101 5h-153l-21 -174l10 -5q20 12 59.5 23.5t63.5 11.5q77 0 133 -44
t56 -120q0 -92 -50 -138q-108 -100 -204 -100z" />
    <glyph glyph-name="six" unicode="6" horiz-adv-x="552" 
d="M170 336l5 -5q89 57 152 57q41 0 80 -17.5t68 -60t29 -103.5q0 -92 -42 -127q-105 -93 -190 -93q-97 0 -158 60.5t-61 170.5q0 93 37 178.5t105 138.5q104 80 260 126l10 -44q-138 -62 -198.5 -118t-96.5 -163zM287 328q-80 0 -133 -61q-2 -24 -2 -35q0 -86 40 -138.5
t100 -52.5q54 0 84 37t30 98q0 73 -35 112.5t-84 39.5z" />
    <glyph glyph-name="seven" unicode="7" horiz-adv-x="488" 
d="M463 626l26 -31q-105 -146 -160.5 -277t-72.5 -298q-1 -11 -19 -19t-50 -8q-29 0 -44 6.5t-10 21.5q40 129 87.5 230.5t80.5 151t91 124.5l-8 14l-241 1q-12 0 -22 -15t-16.5 -35t-12.5 -43q-2 -9 -3 -13h-51l39 195l118 -5h268z" />
    <glyph glyph-name="eight" unicode="8" horiz-adv-x="551" 
d="M53 161q0 66 119 150v9q-90 54 -90 152q0 70 57 118t135 48q88 0 141.5 -40t53.5 -103q0 -36 -27 -75t-68 -70v-8q63 -28 93.5 -65t30.5 -98q0 -75 -61.5 -133.5t-162.5 -58.5q-90 0 -155.5 48t-65.5 126zM135 160q0 -56 37.5 -90t106.5 -34q63 0 100.5 32.5t37.5 86.5
q0 36 -28 63t-68.5 43.5t-107.5 35.5q-78 -58 -78 -137zM159 499q0 -50 38 -80t135 -59q55 62 55 137q0 43 -30.5 68t-81.5 25q-55 0 -85.5 -27t-30.5 -64z" />
    <glyph glyph-name="nine" unicode="9" horiz-adv-x="552" 
d="M382 290l-5 5q-88 -57 -152 -57q-41 0 -80 17.5t-68 60t-29 103.5q0 91 42 127q104 92 191 92q97 0 157.5 -60t60.5 -170q0 -93 -36.5 -179t-104.5 -138q-105 -80 -260 -126l-11 45q138 62 198.5 117.5t96.5 162.5zM266 299q79 0 132 61q2 24 2 35q0 85 -40 137t-100 52
q-54 0 -83.5 -36.5t-29.5 -97.5q0 -73 35 -112t84 -39z" />
    <glyph glyph-name="colon" unicode=":" horiz-adv-x="301" 
d="M86 57q0 27 18.5 46t45.5 19t46 -19t19 -46t-19 -45.5t-46 -18.5t-45.5 18.5t-18.5 45.5zM86 388q0 27 18.5 46t45.5 19t46 -19t19 -46t-19 -45.5t-46 -18.5t-45.5 18.5t-18.5 45.5z" />
    <glyph glyph-name="semicolon" unicode=";" horiz-adv-x="327" 
d="M112 388q0 27 18.5 46t45.5 19t46 -19t19 -46t-19 -45.5t-46 -18.5t-45.5 18.5t-18.5 45.5zM80 -200l-39 21l72 146l20 135l100 -29l-56 -132z" />
    <glyph glyph-name="less" unicode="&#x3c;" horiz-adv-x="594" 
d="M544 470l-428 -204l428 -204v-62l-494 235v62l494 235v-62z" />
    <glyph glyph-name="equal" unicode="=" horiz-adv-x="620" 
d="M570 310h-520v60h520v-60zM570 130h-520v60h520v-60z" />
    <glyph glyph-name="greater" unicode="&#x3e;" horiz-adv-x="594" 
d="M478 266l-428 204v62l494 -235v-62l-494 -235v62z" />
    <glyph glyph-name="question" unicode="?" horiz-adv-x="443" 
d="M135 57q0 27 18.5 46t45.5 19t46 -19t19 -46t-19 -45.5t-46 -18.5t-45.5 18.5t-18.5 45.5zM248 252v-22l-37 -31q-88 13 -88 68q0 32 30 69t65.5 65t65.5 62t30 61q0 36 -41 62t-81 26q-23 0 -38 -9l-30 -68l-46 20q11 55 37 108q19 37 63 37q82 0 152.5 -43t70.5 -110
q0 -34 -31 -73.5t-67.5 -68.5t-67.5 -60.5t-31 -51.5q0 -28 44 -41z" />
    <glyph glyph-name="at" unicode="@" horiz-adv-x="816" 
d="M699 390q0 35 -9 71.5t-29.5 75t-62.5 63t-99 24.5q-96 0 -181 -72.5t-133.5 -185.5t-48.5 -230q0 -118 43.5 -177t122.5 -59q89 0 167 63l21 -42q-44 -35 -97.5 -54.5t-99.5 -19.5q-114 0 -172.5 76t-58.5 214q0 92 35 187t93 171t141 124.5t171 48.5q123 0 195.5 -76.5
t72.5 -201.5q0 -84 -32.5 -154.5t-80 -111.5t-95.5 -63.5t-85 -22.5q-34 0 -37.5 34t22.5 93l-13 9q-19 -28 -34.5 -47t-38 -42.5t-47 -36t-48.5 -12.5q-29 0 -45 24.5t-16 56.5q0 82 59 183q46 77 106.5 128.5t115.5 51.5q29 0 42 -28h5q6 16 13.5 21.5t27.5 5.5t27 -4
t4 -12l-108 -331q-7 -31 13 -31q18 0 46 20t57 54t50 92t21 123zM300 150q0 -44 24 -44q34 0 93.5 79t102.5 182q9 70 -29 70q-33 0 -70.5 -34.5t-67.5 -87.5q-53 -94 -53 -165z" />
    <glyph glyph-name="A" unicode="A" horiz-adv-x="718" 
d="M521 57l-61 175h-231l-73 -175l86 -14v-43h-221v43l71 14l266 606h49l220 -606l70 -14v-43h-248v43zM352 524l-101 -240h191l-82 240h-8z" />
    <glyph glyph-name="B" unicode="B" horiz-adv-x="620" 
d="M348 0h-315v43l80 14v549l-80 14v43h300q91 0 141.5 -37t50.5 -110q0 -48 -28 -93t-86 -65v-8q73 -11 116.5 -53.5t43.5 -107.5q0 -85 -61 -137t-162 -52zM461 184q0 62 -41.5 96.5t-103.5 34.5h-99v-263h115q129 0 129 132zM217 611v-239h101q54 0 79.5 41.5t25.5 85.5
q0 52 -28 82t-77 30h-101z" />
    <glyph glyph-name="C" unicode="C" horiz-adv-x="654" 
d="M402 41q64 0 117 21l67 120h40l-33 -154q-43 -15 -60 -20t-57.5 -12t-85.5 -7q-148 0 -245 90.5t-97 250.5q0 162 98 253t257 91q44 0 99.5 -12.5t91.5 -30.5l10 -156h-41l-40 107q-41 45 -134 45q-29 0 -59 -8t-61 -28t-54.5 -49.5t-38.5 -77t-15 -105.5
q0 -74 16.5 -132t41 -92t58 -56t64 -30t61.5 -8z" />
    <glyph glyph-name="D" unicode="D" horiz-adv-x="747" 
d="M329 0h-296v43l78 14v549l-78 14v43h371q137 0 216 -79.5t79 -218.5q0 -172 -102.5 -268.5t-267.5 -96.5zM216 52h123q108 0 179.5 72.5t71.5 223.5q0 263 -229 263h-145v-559z" />
    <glyph glyph-name="E" unicode="E" horiz-adv-x="593" 
d="M217 50h261l44 121h41l-15 -176l-152 5h-363v43l80 14v549l-80 14v43h346l126 4l11 -157h-36l-44 102h-219v-256l178 6l19 95h38v-242h-38l-19 95l-178 3v-263z" />
    <glyph glyph-name="F" unicode="F" horiz-adv-x="534" 
d="M217 58l93 -15v-43h-277v44l80 14v548l-80 14v43h333l126 4l5 -157h-35l-35 102h-210v-260l163 7l21 92h37v-242h-37l-21 96l-163 4v-251z" />
    <glyph glyph-name="G" unicode="G" horiz-adv-x="736" 
d="M414 41q78 0 125 41v159l-92 14v43h244v-43l-54 -14v-189q-107 -63 -238 -63q-92 0 -170.5 36.5t-129.5 112.5t-51 178q0 94 30 165.5t82 112t114 60.5t133 20q102 0 219 -39l15 -167h-45l-43 109q-60 50 -160 50t-166 -67.5t-66 -204.5q0 -87 24 -151.5t63 -98t80.5 -49
t85.5 -15.5z" />
    <glyph glyph-name="H" unicode="H" horiz-adv-x="771" 
d="M473 663h265v-43l-80 -14v-549l80 -14v-43h-265v43l81 14v265h-337v-265l81 -14v-43h-265v43l80 14v549l-80 14v43h265v-43l-81 -14v-232h337v232l-81 14v43z" />
    <glyph glyph-name="I" unicode="I" horiz-adv-x="369" 
d="M52 663h265v-43l-81 -14v-549l81 -14v-43h-265v43l80 14v549l-80 14v43z" />
    <glyph glyph-name="J" unicode="J" horiz-adv-x="369" 
d="M143 15v591l-96 14v43h289v-43l-89 -14v-541q0 -44 -6 -70t-25 -54q-69 -104 -132 -170l-44 40q57 71 82 113q21 33 21 91z" />
    <glyph glyph-name="K" unicode="K" horiz-adv-x="691" 
d="M217 606v-233h35l220 224l-71 23v43h231v-43l-89 -31l-219 -219l274 -313l68 -14v-43h-268v43l72 14l-216 254h-37v-254l80 -14v-43h-264v43l80 14v549l-80 14v43h264v-43z" />
    <glyph glyph-name="L" unicode="L" horiz-adv-x="552" 
d="M510 -5l-142 5h-335v43l80 14v549l-80 14v43h268v-43l-84 -14v-556h217l50 137h41z" />
    <glyph glyph-name="M" unicode="M" horiz-adv-x="911" 
d="M681 507h-12l-226 -516h-40l-216 517h-10l-17 -451l77 -14v-43h-210v43l74 14l36 542l-93 20v44h190l211 -515h11l228 515h187v-44l-91 -22l19 -540l81 -14v-43h-266v43l81 14z" />
    <glyph glyph-name="N" unicode="N" horiz-adv-x="755" 
d="M575 183h14v276l-4 147l-78 14v43h215v-43l-76 -14l-5 -152v-456h-38l-427 509h-12v-284l5 -166l86 -14v-43h-222v43l75 14l4 163v391l-79 9v43h149z" />
    <glyph glyph-name="O" unicode="O" horiz-adv-x="785" 
d="M48 316q0 89 29 159.5t78.5 113t109 64t124.5 21.5q154 0 251 -87.5t97 -237.5q0 -168 -97.5 -264t-260.5 -96q-143 0 -237 87t-94 240zM157 369q0 -165 70.5 -248t175.5 -83q41 0 79.5 15t72 45t53.5 84.5t20 125.5q0 160 -76 239.5t-183 79.5q-25 0 -51 -7t-55.5 -25.5
t-52.5 -46t-38 -74t-15 -105.5z" />
    <glyph glyph-name="P" unicode="P" horiz-adv-x="549" 
d="M261 278v34q69 0 110.5 44.5t41.5 120.5q0 132 -126 132h-70v-552l90 -14v-43h-274v43l80 14v549l-80 14v43h273q118 0 166 -44.5t48 -130.5q0 -97 -69 -153.5t-190 -56.5z" />
    <glyph glyph-name="Q" unicode="Q" horiz-adv-x="785" 
d="M48 316q0 89 29 159.5t78.5 113t109 64t124.5 21.5q154 0 251 -87.5t97 -237.5q0 -131 -66 -221.5t-176 -122.5q115 -94 217 -97l1 -54q-91 0 -188.5 39.5t-175.5 96.5q-132 9 -216.5 95t-84.5 231zM157 369q0 -145 55 -227t143 -100l63 34q16 -18 33 -33
q76 16 126.5 81.5t50.5 183.5q0 160 -76 239.5t-183 79.5q-25 0 -51 -7t-55.5 -25.5t-52.5 -46t-38 -74t-15 -105.5z" />
    <glyph glyph-name="R" unicode="R" horiz-adv-x="674" 
d="M297 282h-80v-225l90 -14v-43h-274v43l80 14v549l-80 14v43h286q31 0 63.5 -7t66 -23t54.5 -48.5t21 -76.5q0 -60 -28.5 -114t-87.5 -84v-11l188 -247l64 -29l-10 -37l-153 28q-150 211 -200 268zM217 606v-273h85q55 1 83.5 31t28.5 108q0 134 -126 134h-71z" />
    <glyph glyph-name="S" unicode="S" horiz-adv-x="543" 
d="M80 27l-13 180h54q13 -88 47.5 -124.5t94.5 -36.5q61 0 97 31t36 87q0 49 -36 77.5t-102 51.5q-39 14 -67 28t-56.5 37t-43.5 57t-15 77q0 88 62 135t145 47q70 0 169 -30l5 -165h-43q-15 76 -48 107.5t-85 31.5q-53 0 -81.5 -30.5t-28.5 -82.5q0 -42 33.5 -69.5
t92.5 -49.5q44 -16 73 -31t59.5 -38.5t45.5 -56t15 -74.5q0 -80 -58 -138.5t-160 -58.5q-56 0 -111.5 12t-80.5 26z" />
    <glyph glyph-name="T" unicode="T" horiz-adv-x="666" 
d="M48 667l157 -4h246l167 4l11 -187h-47l-36 133h-162v-561l85 -14v-38h-272v38l84 14v561h-161l-36 -133h-47z" />
    <glyph glyph-name="U" unicode="U" horiz-adv-x="736" 
d="M488 663h220v-43l-67 -14l-9 -127v-268q0 -37 -15 -74.5t-44.5 -71t-81.5 -55t-117 -21.5q-122 0 -194 62t-72 142v413l-80 14v43h265v-43l-81 -14v-395q0 -67 47.5 -111.5t133.5 -44.5q80 0 132 48.5t52 137.5v243l-7 122l-82 14v43z" />
    <glyph glyph-name="V" unicode="V" horiz-adv-x="691" 
d="M377 136l171 465l-92 23v39h216v-39l-63 -27l-35 -77l-193 -520h-62l-228 606l-72 14v43h248v-43l-73 -14l177 -470h6z" />
    <glyph glyph-name="W" unicode="W" horiz-adv-x="970" 
d="M496 530h-3l-149 -530h-67l-186 606l-72 14v43h253v-43l-73 -14l131 -446h7l141 508h72l160 -508h5l124 441l-104 23v39h216v-39l-48 -27l-28 -75l-154 -522h-63z" />
    <glyph glyph-name="X" unicode="X" horiz-adv-x="683" 
d="M101 57l195 271l-181 278l-76 14v43h257v-43l-68 -14l128 -195l140 195l-93 14v43h233v-43l-80 -14l-171 -240l204 -309l75 -14v-43h-257v43l66 14l-148 225l-160 -225l83 -14v-43h-229v43z" />
    <glyph glyph-name="Y" unicode="Y" horiz-adv-x="647" 
d="M363 354l141 247l-97 23v39h216v-39l-58 -27l-173 -306v-234l80 -14v-43h-265v43l81 14v233l-192 316l-72 14v43h248v-43l-73 -14l151 -252h13z" />
    <glyph glyph-name="Z" unicode="Z" horiz-adv-x="633" 
d="M575 -5l-255 5h-272l-17 34l418 529l-6 14h-305l-39 -99h-38l11 189l154 -4h351l15 -21l-430 -544l5 -12h350l41 103h37z" />
    <glyph glyph-name="bracketleft" unicode="[" horiz-adv-x="335" 
d="M312 737v-45l-165 -15v-841l165 -15v-45h-243v961h243z" />
    <glyph glyph-name="backslash" unicode="\" horiz-adv-x="460" 
d="M367 -122l-340 856h66l340 -856h-66z" />
    <glyph glyph-name="bracketright" unicode="]" horiz-adv-x="335" 
d="M23 692v45h243v-961h-243v45l165 15v841z" />
    <glyph glyph-name="asciicircum" unicode="^" horiz-adv-x="540" 
d="M284 691l221 -377l-58 -33l-172 300h-8l-175 -300l-57 33l222 377h27z" />
    <glyph glyph-name="underscore" unicode="_" horiz-adv-x="604" 
d="M-3 -190h610v-42h-610v42z" />
    <glyph glyph-name="grave" unicode="`" horiz-adv-x="500" 
d="M310 506v-8h-51l-129 162v10h94z" />
    <glyph glyph-name="a" unicode="a" horiz-adv-x="493" 
d="M312 124v105q-85 -11 -151 -40q-19 -9 -24.5 -17t-5.5 -23q0 -86 67 -86q28 0 62.5 18.5t51.5 42.5zM93 312l-22 18q-2 20 -2 28q0 44 35 68q107 69 144 69q71 0 112.5 -35t41.5 -91v-310l70 -4v-39l-147 -29l-14 14v61h-14q-102 -75 -146 -75q-46 0 -77.5 36.5
t-31.5 97.5q0 46 11 65t50 34q75 27 209 48v63q0 49 -25 74t-67 25q-44 0 -67 -17v-90z" />
    <glyph glyph-name="b" unicode="b" horiz-adv-x="565" 
d="M187 356l-1 -267q49 -26 115 -26q71 0 106.5 45t35.5 144q0 76 -34 117.5t-85 41.5q-73 0 -137 -55zM96 76l-4 458l-5 130l-77 15v27l157 44h26l-6 -191v-143l9 -7q25 27 77.5 56.5t84.5 29.5q30 0 57.5 -9t54 -30t42.5 -61t16 -96q0 -145 -47 -190q-65 -60 -111 -91
t-89 -31q-61 0 -116 24q-13 5 -23 -8l-13 -16l-41 14q8 43 8 75z" />
    <glyph glyph-name="c" unicode="c" horiz-adv-x="464" 
d="M409 112l27 -37q-35 -36 -89 -62t-99 -26q-93 0 -152 69t-59 166q0 123 55 175q42 41 98.5 69.5t97.5 28.5q76 0 119 -20l4 -149h-46q-6 49 -17 77q-36 25 -84 25q-54 0 -93.5 -36.5t-39.5 -119.5q0 -106 47.5 -157.5t117.5 -51.5q60 0 113 49z" />
    <glyph glyph-name="d" unicode="d" horiz-adv-x="575" 
d="M390 121v274q-36 44 -104 44q-18 0 -31.5 -1.5t-38.5 -11t-41 -27t-29 -54t-13 -87.5q0 -91 43.5 -142.5t96.5 -51.5q66 0 117 57zM399 -4l-13 9v58h-9q-96 -76 -158 -76q-65 0 -123.5 63t-58.5 178q0 124 67 184q35 27 93.5 55t101.5 28t91 -23l-6 192l-74 15v27l150 44
h30l-10 -263v-424l72 -9v-39z" />
    <glyph glyph-name="e" unicode="e" horiz-adv-x="472" 
d="M406 111l23 -28q-25 -38 -79.5 -67t-93.5 -29q-91 0 -155 74.5t-64 185.5q0 89 52 167q21 23 85 52t90 29q47 0 82 -17.5t53.5 -45.5t27 -58t8.5 -60q0 -34 -12 -34l-83 -10h-211q1 -98 49.5 -153t118.5 -55q61 0 109 49zM238 434q-49 0 -75.5 -28t-32.5 -93h207v26
q0 42 -28 68.5t-71 26.5z" />
    <glyph glyph-name="f" unicode="f" horiz-adv-x="351" 
d="M368 633h-25q-24 13 -53 13q-89 0 -89 -125v-66l133 10v-70h-133v-337l101 -21v-37h-279v37l82 21v337h-78v31l78 27v45q0 65 31 100q127 154 199 154q23 0 34 -7z" />
    <glyph glyph-name="g" unicode="g" horiz-adv-x="533" 
d="M138 12v14q-38 21 -55.5 60.5t6.5 57.5l46 39v18q-35 18 -57 49.5t-22 69.5q0 75 55.5 122.5t140.5 47.5q84 0 134 -37l132 21v-76l-100 1q23 -32 23 -80q0 -64 -51.5 -104.5t-139.5 -40.5q-32 0 -43 4q-12 -4 -21.5 -18.5t-9.5 -24.5q0 -25 16.5 -42t40.5 -17h124
q72 0 108 -25t36 -96q0 -80 -73 -139t-195 -59q-96 0 -151 35.5t-55 97.5q0 88 111 122zM411 -76q0 39 -20 56t-63 17h-130q-87 -24 -87 -102q0 -43 34.5 -68.5t98.5 -25.5q83 0 125 38t42 85zM345 325q0 48 -26 84t-71 36q-39 0 -67.5 -32t-28.5 -85q0 -56 27.5 -85
t73.5 -29q43 0 67.5 28.5t24.5 82.5z" />
    <glyph glyph-name="h" unicode="h" horiz-adv-x="604" 
d="M503 334v-276l78 -21v-37h-242v37l67 19l1 246q0 60 -25 86t-73 26q-9 0 -17 -1t-16.5 -3.5t-14 -4t-15.5 -7t-13.5 -7.5t-16.5 -10t-18 -11v-312l72 -21v-37h-247v37l80 21v449l-5 163l-75 14v27l158 39h25l-8 -185v-149h11l61 52q29 27 90 27t102 -42t41 -119z" />
    <glyph glyph-name="i" unicode="i" horiz-adv-x="307" 
d="M204 495v-437l76 -21v-37h-249v37l77 21v351l-82 17v28l152 41h26zM85 666q0 26 19.5 46t45.5 20q27 0 46.5 -20t19.5 -46t-19.5 -45.5t-46.5 -19.5q-26 0 -45.5 19.5t-19.5 45.5z" />
    <glyph glyph-name="j" unicode="j" horiz-adv-x="290" 
d="M119 409l-82 17v28l152 41h25v-482q0 -83 -48.5 -143.5t-146.5 -112.5l-22 41q36 25 50.5 35.5t35.5 32t28.5 45t7.5 54.5v444zM96 666q0 26 19.5 46t45.5 20t46 -20t20 -46t-20 -45.5t-46 -19.5t-45.5 19.5t-19.5 45.5z" />
    <glyph glyph-name="k" unicode="k" horiz-adv-x="577" 
d="M382 422v10l-48 12v37h213v-37l-86 -30l-147 -130l200 -235l54 -11v-37l-134 -10l-212 258v13zM211 750l-5 -188v-504l76 -21v-37h-252v37l80 21v479l-5 127l-82 15v27l158 44h30z" />
    <glyph glyph-name="l" unicode="l" horiz-adv-x="304" 
d="M211 750l-5 -188v-504l76 -21v-37h-252v37l80 21v479l-5 127l-82 15v27l158 44h30z" />
    <glyph glyph-name="m" unicode="m" horiz-adv-x="881" 
d="M487 58l77 -21v-37h-242v37l70 21v244q0 112 -83 112q-9 0 -17 -1t-16.5 -3.5t-14 -4t-15.5 -7t-13.5 -7.5t-16.5 -10t-18 -11v-312l67 -21v-37h-242v37l80 21v351l-80 14v27l152 39h26l-12 -84h10l71 63q27 27 85 27q39 0 71.5 -22t47.5 -62l74 57q27 27 85 27
q61 0 102 -42t41 -119v-276l82 -21v-37h-236v37l58 19v246q0 112 -93 112q-20 0 -38 -5.5t-29 -12t-36 -22.5q3 -19 3 -40v-276z" />
    <glyph glyph-name="n" unicode="n" horiz-adv-x="604" 
d="M581 0h-242v37l68 19v246q0 60 -25 86t-73 26q-9 0 -17 -1t-16.5 -3.5t-14 -4t-15.5 -7t-13.5 -7.5t-16.5 -10t-18 -11v-312l72 -21v-37h-247v37l80 21v351l-80 14v27l152 39h26l-12 -84h10l71 63q27 27 85 27q64 0 106 -42t42 -119v-276h1l77 -21v-37z" />
    <glyph glyph-name="o" unicode="o" horiz-adv-x="546" 
d="M37 225q0 75 21.5 130t57 84t73 42.5t77.5 13.5q114 0 178.5 -62.5t64.5 -171.5q0 -138 -69.5 -206t-173.5 -68q-105 0 -167 63.5t-62 174.5zM135 268q0 -233 146 -233q125 0 125 185q0 70 -11.5 117t-32.5 70t-43 31.5t-52 8.5q-58 0 -95 -47t-37 -132z" />
    <glyph glyph-name="p" unicode="p" horiz-adv-x="553" 
d="M277 -7q-53 0 -95 10v-182l91 -21v-36h-258v36l71 21v583l-71 24v28l138 39h25l7 -79l11 -1q33 35 72.5 57.5t64.5 22.5q30 0 59.5 -9.5t58.5 -30t47 -61t18 -95.5q0 -123 -42 -173q-46 -58 -98.5 -95.5t-98.5 -37.5zM182 351v-254q34 -39 105 -39q58 0 99.5 44t41.5 143
q0 90 -36 131.5t-83 41.5q-35 0 -69.5 -20.5t-57.5 -46.5z" />
    <glyph glyph-name="q" unicode="q" horiz-adv-x="558" 
d="M379 130v248q-11 31 -40.5 46.5t-64.5 15.5q-53 0 -98 -44t-45 -132q0 -93 37.5 -142.5t91.5 -49.5q28 0 64.5 15t54.5 43zM379 71h-10q-35 -31 -76 -54.5t-70 -23.5q-72 0 -129.5 60.5t-57.5 174.5q0 130 65 178q114 89 200 89q34 0 77 -17q37 -18 54 -3l22 20l26 -12
l-5 -133v-529l69 -21v-36h-246v36l81 21v250z" />
    <glyph glyph-name="r" unicode="r" horiz-adv-x="365" 
d="M351 371h-22q-21 15 -49 15q-48 0 -95 -68v-260l96 -21v-37h-258v37l66 21v341l-66 24v27l134 34h30l-9 -101h10q55 72 74.5 89.5t50.5 17.5q6 0 38 -4v-115z" />
    <glyph glyph-name="s" unicode="s" horiz-adv-x="424" 
d="M57 16l-15 136h46q8 -43 29 -73q31 -24 85 -24q47 0 73.5 19t26.5 55q0 64 -106 82q-149 24 -149 140q0 20 11 44t30 37q97 63 139 63q90 0 134 -30l5 -123h-41q-7 38 -22 61q-10 14 -36 23.5t-53 9.5q-42 0 -64 -17t-22 -48q0 -63 126 -85q65 -12 98.5 -42.5t33.5 -87.5
q0 -39 -30 -77q-19 -25 -69 -58.5t-92 -33.5q-30 0 -75.5 9t-62.5 20z" />
    <glyph glyph-name="t" unicode="t" horiz-adv-x="357" 
d="M183 631l18 -18l-9 -153l135 5v-65h-135v-283q0 -60 52 -60q30 0 76 22l14 -33q-19 -20 -59 -39.5t-76 -19.5q-48 0 -75 34t-27 96v283h-80v34l80 30v105z" />
    <glyph glyph-name="u" unicode="u" horiz-adv-x="597" 
d="M20 469l181 17l-6 -144v-178q0 -56 22 -78.5t69 -22.5q27 0 64 23t54 53v279l-79 11v40l180 17l-5 -141v-294l74 -16v-35h-169l6 87h-9q-36 -45 -79.5 -72.5t-71.5 -27.5q-66 0 -108.5 41t-42.5 120v270l-80 11v40z" />
    <glyph glyph-name="v" unicode="v" horiz-adv-x="556" 
d="M12 481h232v-37l-72 -21l123 -308h11l118 308l-73 21v37h194v-37l-56 -20l-185 -437h-53l-183 436l-56 21v37z" />
    <glyph glyph-name="w" unicode="w" horiz-adv-x="777" 
d="M374 481h70l108 -350h11l92 292l-73 21v37h189v-37l-51 -20l-158 -437h-57l-119 365l-124 -365h-57l-137 436l-62 21v37h238v-37l-72 -21l81 -292h11z" />
    <glyph glyph-name="x" unicode="x" horiz-adv-x="515" 
d="M79 52l136 178l-139 198l-57 16v37h232v-37l-65 -16l86 -123l94 123l-58 16v37h188v-37l-66 -16l-127 -167l146 -209l47 -15v-37h-221v37l65 15l-94 134l-102 -134l58 -15v-37h-183v37z" />
    <glyph glyph-name="y" unicode="y" horiz-adv-x="533" 
d="M6 481h233v-37l-66 -16l125 -329h11l114 329l-70 16v37h174v-37l-42 -16l-190 -511q-25 -65 -67.5 -112.5t-99.5 -47.5q-35 0 -45 15l-44 61l19 16q22 -8 60 -8q57 0 96.5 43t59.5 119h-33l-175 425l-60 16v37z" />
    <glyph glyph-name="z" unicode="z" horiz-adv-x="485" 
d="M432 0h-381l-12 37l285 351l-5 11h-199l-27 -76h-37l17 158h361l11 -31l-286 -356l4 -10h218l31 86h31z" />
    <glyph glyph-name="braceleft" unicode="{" horiz-adv-x="435" 
d="M127 283v-16q63 -9 107 -51.5t44 -104.5q0 -27 -22.5 -95t-22.5 -108q0 -94 156 -94v-42q-137 0 -187.5 35t-50.5 111l43 201q0 59 -43.5 90t-114.5 31v66q67 0 112.5 35t45.5 82l-41 185q0 71 51.5 100.5t178.5 29.5v-42q-150 0 -150 -79l45 -189q0 -53 -43.5 -92.5
t-107.5 -52.5z" />
    <glyph glyph-name="bar" unicode="|" horiz-adv-x="540" 
d="M233 -230v980h74v-980h-74z" />
    <glyph glyph-name="braceright" unicode="}" horiz-adv-x="435" 
d="M308 267v16q-64 13 -107.5 52.5t-43.5 92.5l45 189q0 79 -150 79v42q127 0 178.5 -29.5t51.5 -100.5l-41 -185q0 -47 45.5 -82t112.5 -35v-66q-71 0 -114.5 -31t-43.5 -90l43 -201q0 -76 -50.5 -111t-187.5 -35v42q156 0 156 94q0 40 -22.5 108t-22.5 95q0 62 44 104.5
t107 51.5z" />
    <glyph glyph-name="asciitilde" unicode="~" horiz-adv-x="540" 
d="M469 373l36 -14q-21 -62 -63.5 -109.5t-80.5 -47.5q-23 0 -105 39.5t-105 39.5q-15 0 -30 -13.5t-23.5 -27.5t-22.5 -42l-40 16q17 53 61 106t71 53q30 0 107.5 -40t106.5 -40q24 0 50.5 25t37.5 55z" />
    <glyph glyph-name="uni00A0" unicode="&#xa0;" horiz-adv-x="230" 
 />
    <glyph glyph-name="exclamdown" unicode="&#xa1;" horiz-adv-x="333" 
d="M231 431q0 -27 -18.5 -46t-45.5 -19t-46 19t-19 46t19 45.5t46 18.5t45.5 -18.5t18.5 -45.5zM130 -212l-22 11l39 484l40 5l35 -455z" />
    <glyph glyph-name="cent" unicode="&#xa2;" horiz-adv-x="433" 
d="M354 207l23 -31q-24 -25 -60.5 -45t-70.5 -27v-104h-42v102q-73 6 -117.5 62.5t-44.5 134.5q0 103 47 147q54 51 115 72v108h42v-98h7q65 0 100 -17l3 -125h-39q-5 42 -14 65q-30 18 -57 20v-304q4 -1 14 -1q51 0 94 41zM121 341q0 -129 83 -164v291q-83 -19 -83 -127z
" />
    <glyph glyph-name="sterling" unicode="&#xa3;" horiz-adv-x="548" 
d="M68 333h85v92q0 105 107 171q68 42 122 42q41 0 92 -19v-146h-37q-19 107 -97 107q-31 0 -59.5 -30t-28.5 -101v-116h130v-43h-130q-2 -67 -26.5 -112t-69.5 -88l4 -7q62 -5 202 -5q45 0 63.5 17.5t22.5 71.5h37l-10 -170q-24 -9 -71 -9q-42 0 -127.5 20.5t-137.5 26.5
q-21 -47 -62 -47q-32 0 -32 29q0 21 19.5 41.5t45.5 29.5q43 51 43 126v76h-85v43z" />
    <glyph glyph-name="currency" unicode="&#xa4;" horiz-adv-x="624" 
d="M91 272q0 69 40 127l-45 44q-11 11 -2 29.5t25 26t28 -0.5l46 -47q58 42 129 42t126 -39l43 45q10 11 29 0t29.5 -30.5t0.5 -29.5l-45 -43q38 -55 38 -124q0 -70 -42 -130l48 -46q11 -11 2 -29.5t-25 -26.5t-28 1l-50 50q-55 -40 -126 -40q-69 0 -124 36l-42 -44
q-11 -12 -31 -2.5t-29 27t1 30.5l44 43q-40 55 -40 131zM161 271q0 -70 42 -115.5t110 -45.5q63 0 105.5 46t42.5 115q0 71 -42.5 116.5t-106.5 45.5q-70 0 -110.5 -46t-40.5 -116z" />
    <glyph glyph-name="yen" unicode="&#xa5;" horiz-adv-x="554" 
d="M299 314l133 249l-97 23v39h216v-39l-58 -27l-165 -308v-3h130v-41h-130v-49h130v-41h-130v-60l80 -14v-43h-265v43l81 14v60h-128v41h128v49h-128v41h128v2l-164 318l-57 14v43h233v-43l-73 -14l123 -254h13z" />
    <glyph glyph-name="brokenbar" unicode="&#xa6;" horiz-adv-x="540" 
d="M307 400h-74v350h74v-350zM233 120h74v-350h-74v350z" />
    <glyph glyph-name="section" unicode="&#xa7;" horiz-adv-x="555" 
d="M410 271q0 19 -11 33.5t-34 26.5t-45.5 20.5t-59 21t-60.5 22.5q-54 -20 -54 -73q0 -28 23 -48t50.5 -30t73 -24t69.5 -25q48 39 48 76zM276 -100q54 0 87.5 35.5t33.5 96.5q0 41 -33 66.5t-80 39.5t-94.5 29.5t-80.5 48t-33 82.5q0 85 84 124q-50 41 -50 84
q0 75 65.5 143.5t162.5 68.5q20 0 50 -14t51 -37q11 -37 -17.5 -65.5t-51.5 -26.5q-32 71 -92 71q-36 0 -67 -32t-31 -70q0 -30 31 -53t75 -39t87.5 -33.5t74.5 -46t31 -67.5q0 -79 -76 -127q73 -51 73 -113q0 -85 -68.5 -156t-127.5 -71q-53 0 -114 26.5t-90 86.5
q9 74 58 79q20 -68 58 -99t84 -31z" />
    <glyph glyph-name="dieresis" unicode="&#xa8;" horiz-adv-x="500" 
d="M388 569q0 -20 -16 -35.5t-36 -15.5q-21 0 -37 15.5t-16 35.5q0 21 16 37t37 16q20 0 36 -16t16 -37zM217 569q0 -21 -15.5 -36t-36.5 -15t-37 15.5t-16 35.5q0 21 16 37t37 16t36.5 -16t15.5 -37z" />
    <glyph glyph-name="copyright" unicode="&#xa9;" horiz-adv-x="703" 
d="M369 158q26 0 50 8l34 60h34l-17 -83l-16 -5q-50 -16 -91 -16q-76 0 -125.5 45.5t-49.5 126.5t49.5 127t131.5 46q56 0 102 -24l4 -83h-34l-21 55l2 -1q-19 21 -60 21q-38 0 -70.5 -31t-32.5 -95q0 -82 34 -116.5t76 -34.5zM44 296q0 126 90.5 216.5t217.5 90.5
q131 0 219 -89.5t88 -217.5q0 -127 -90.5 -217.5t-216.5 -90.5q-129 0 -218.5 87t-89.5 221zM103 294q0 -110 70 -183t180 -73t178.5 72.5t68.5 183.5q0 114 -70.5 187.5t-177.5 73.5q-109 0 -179 -74.5t-70 -186.5z" />
    <glyph glyph-name="ordfeminine" unicode="&#xaa;" horiz-adv-x="375" 
d="M233 392v74q-63 -10 -109 -29q-20 -11 -20 -27q0 -61 46 -61q21 0 46 13.5t38 30.5zM70 528l-19 18q-2 14 -2 18q0 32 29 51q78 51 110 51q56 0 88.5 -26.5t32.5 -67.5v-226l53 -3v-32l-117 -23l-13 13v43h-4q-80 -56 -113 -56q-36 0 -61 28t-25 74q0 33 9 47.5t40 26.5
q55 20 155 35v45q0 35 -18 52.5t-48 17.5q-31 0 -47 -11v-67z" />
    <glyph glyph-name="guillemotleft" unicode="&#xab;" horiz-adv-x="652" 
d="M100 240l192 204l38 -30l-128 -176v-15l128 -178l-38 -34l-192 206v23zM307 240l192 204l38 -30l-128 -176v-15l128 -178l-38 -34l-192 206v23z" />
    <glyph glyph-name="logicalnot" unicode="&#xac;" horiz-adv-x="540" 
d="M426 52v197h-388v64h457v-261h-69z" />
    <glyph glyph-name="registered" unicode="&#xae;" horiz-adv-x="508" 
d="M250 488h-16v-76l32 -4v-20h-113v20l28 4v192l-28 5v20h109q29 0 55 -13.5t26 -44.5q0 -46 -41 -71v-3q46 -68 57 -84l12 -7l-5 -18l-54 8zM234 603v-90h22q16 1 24 10.5t8 34.5q0 45 -38 45h-16zM40 503q0 88 63 151t151 63q91 0 152.5 -62.5t61.5 -151.5
q0 -88 -63 -151t-151 -63q-89 0 -151.5 61t-62.5 153zM84 502q0 -76 48 -125.5t123 -49.5q70 0 119.5 50.5t49.5 124.5q0 77 -49 126.5t-121 49.5q-78 0 -124 -49.5t-46 -126.5z" />
    <glyph glyph-name="macron" unicode="&#xaf;" horiz-adv-x="500" 
d="M377 520h-254v58h254v-58z" />
    <glyph glyph-name="degree" unicode="&#xb0;" horiz-adv-x="367" 
d="M40 494q0 59 42 101.5t101 42.5t101.5 -42.5t42.5 -101.5t-42.5 -101t-101.5 -42t-101 42.5t-42 100.5zM100 494q0 -39 22.5 -65.5t59.5 -26.5t60.5 26.5t23.5 65.5t-23.5 66.5t-60.5 27.5t-59.5 -27.5t-22.5 -66.5z" />
    <glyph glyph-name="plusminus" unicode="&#xb1;" horiz-adv-x="620" 
d="M570 320h-230v-210h-60v210h-230v60h230v210h60v-210h230v-60zM570 0h-520v60h520v-60z" />
    <glyph glyph-name="two.sups" unicode="&#xb2;" horiz-adv-x="287" 
d="M128 722q-31 0 -49 -20h1q-12 -19 -12 -46h-46l15 73q17 16 48.5 27t48.5 11q53 0 87.5 -28.5t34.5 -74.5q0 -35 -50 -91t-120 -110v-2.5t1 -2.5l90 6t88 5v-57l-247 3l-7 27q94 83 132.5 130.5t38.5 85.5q0 28 -16.5 46t-37.5 18z" />
    <glyph glyph-name="three.sups" unicode="&#xb3;" horiz-adv-x="287" 
d="M142 439q20 0 36 16.5t16 46.5q0 34 -24.5 54.5t-45.5 17.5l-47 -6l-9 31q45 7 79.5 29.5t34.5 48.5q0 48 -50 48q-30 0 -47 -15h2q-12 -17 -12 -41h-43l14 66q18 13 49 22.5t49 9.5q50 0 79.5 -20t29.5 -51q0 -44 -70 -86v-5q35 -9 59.5 -34.5t24.5 -56.5
q0 -45 -40.5 -75.5t-92.5 -30.5q-60 0 -105 26l-20 77h39q18 -40 38 -58l-1 1q30 -15 57 -15z" />
    <glyph glyph-name="acute" unicode="&#xb4;" horiz-adv-x="500" 
d="M190 498v8l86 164h94v-10l-129 -162h-51z" />
    <glyph glyph-name="mu" unicode="&#xb5;" horiz-adv-x="540" 
d="M366 27l-8 6q-68 -45 -134 -45q-41 0 -71 27q1 -26 4 -64.5t4.5 -64t1.5 -38.5q0 -60 -46 -60q-40 0 -40 52q0 17 6 120.5t8 159.5q-1 7 -1 21v257l-63 11v38l154 18v-309q0 -56 21 -78.5t65 -22.5q58 0 93 37v306l-63 11v38l154 18v-364q0 -43 21 -43q20 0 34 34l28 -11
q-16 -47 -46 -68.5t-58 -21.5q-26 0 -37.5 7t-26.5 29z" />
    <glyph glyph-name="mu" unicode="&#x3bc;" horiz-adv-x="540" 
d="M366 27l-8 6q-68 -45 -134 -45q-41 0 -71 27q1 -26 4 -64.5t4.5 -64t1.5 -38.5q0 -60 -46 -60q-40 0 -40 52q0 17 6 120.5t8 159.5q-1 7 -1 21v257l-63 11v38l154 18v-309q0 -56 21 -78.5t65 -22.5q58 0 93 37v306l-63 11v38l154 18v-364q0 -43 21 -43q20 0 34 34l28 -11
q-16 -47 -46 -68.5t-58 -21.5q-26 0 -37.5 7t-26.5 29z" />
    <glyph glyph-name="paragraph" unicode="&#xb6;" horiz-adv-x="555" 
d="M526 706v-67h-58v-796h-60v796h-65v-796h-60v400q-127 0 -196.5 62t-69.5 170q0 105 69 168t177 63h263zM283 300v339q-71 0 -115 -46t-44 -121q0 -77 42.5 -124.5t116.5 -47.5z" />
    <glyph glyph-name="periodcentered" unicode="&#xb7;" horiz-adv-x="253" 
d="M62 264q0 27 18.5 46t45.5 19t46 -19t19 -46t-19 -45.5t-46 -18.5t-45.5 18.5t-18.5 45.5z" />
    <glyph glyph-name="cedilla" unicode="&#xb8;" horiz-adv-x="500" 
d="M202 -224l-8 25q39 6 63 22.5t24 39.5q0 42 -71 42q-16 0 -30 -2l-5 7l58 110h45l-38 -70q46 0 75.5 -18t29.5 -54q0 -38 -42 -66t-101 -36z" />
    <glyph glyph-name="one.sups" unicode="&#xb9;" horiz-adv-x="261" 
d="M36 682l-10 33q87 27 115 50l38 -4v-310q12 -1 39 -4.5t39 -4.5v-27h-225v27l76 9v253q-8 -3 -12 -4q-22 -9 -60 -18z" />
    <glyph glyph-name="ordmasculine" unicode="&#xba;" horiz-adv-x="415" 
d="M25 466q0 56 16.5 97t44 62t56.5 31t60 10q88 0 138 -46.5t50 -127.5q0 -102 -54 -153t-134 -51q-81 0 -129 47.5t-48 130.5zM107 497q0 -169 107 -169q90 0 90 134q0 96 -28 130.5t-73 34.5q-43 0 -69.5 -34.5t-26.5 -95.5z" />
    <glyph glyph-name="guillemotright" unicode="&#xbb;" horiz-adv-x="652" 
d="M360 444l192 -204v-23l-192 -206l-38 34l128 178v15l-128 176zM153 444l192 -204v-23l-192 -206l-38 34l128 178v15l-128 176z" />
    <glyph glyph-name="onequarter" unicode="&#xbc;" 
d="M109 -34l241 370l223 353l40 -26l-234 -349l-231 -375zM66 609l-10 33q87 27 115 50l38 -4v-310q12 -1 39 -4.5t39 -4.5v-27h-225v27l76 9v253q-8 -3 -12 -4q-22 -9 -60 -18zM559 16v73h-148l-10 23q31 57 85 120.5t107 106.5l34 -12l-3 -81v-123h63v-33h-63v-73
q10 -1 30.5 -4.5t28.5 -4.5v-27h-177v27zM461 123h98v132q-57 -53 -100 -130z" />
    <glyph glyph-name="onehalf" unicode="&#xbd;" 
d="M109 -34l241 370l223 353l40 -26l-234 -349l-231 -375zM66 609l-10 33q87 27 115 50l38 -4v-310q12 -1 39 -4.5t39 -4.5v-27h-225v27l76 9v253q-8 -3 -12 -4q-22 -9 -60 -18zM555 288q-31 0 -49 -20h1q-12 -19 -12 -46h-46l15 73q17 16 48.5 27t48.5 11q53 0 87.5 -28.5
t34.5 -74.5q0 -35 -50 -91t-120 -110q1 -1 1 -2.5v-2.5l90 6t88 5v-57l-247 3l-7 27q94 83 132.5 130.5t38.5 85.5q0 28 -16.5 46t-37.5 18z" />
    <glyph glyph-name="threequarters" unicode="&#xbe;" 
d="M109 -34l241 370l223 353l40 -26l-234 -349l-231 -375zM166 366q20 0 36 16.5t16 46.5q0 34 -24.5 54.5t-45.5 17.5l-47 -6l-9 31q45 7 79.5 29.5t34.5 48.5q0 48 -50 48q-30 0 -47 -15h2q-12 -17 -12 -41h-43l14 66q18 13 49 22.5t49 9.5q50 0 79.5 -20t29.5 -51
q0 -44 -70 -86v-5q35 -9 59.5 -34.5t24.5 -56.5q0 -45 -40.5 -75.5t-92.5 -30.5q-60 0 -105 26l-20 77h39q18 -40 38 -58l-1 1q30 -15 57 -15zM559 16v73h-148l-10 23q31 57 85 120.5t107 106.5l34 -12l-3 -81v-123h63v-33h-63v-73q10 -1 30.5 -4.5t28.5 -4.5v-27h-177v27z
M461 123h98v132q-57 -53 -100 -130z" />
    <glyph glyph-name="questiondown" unicode="&#xbf;" horiz-adv-x="443" 
d="M308 431q0 -27 -18.5 -46t-45.5 -19t-46 19t-19 46t19 45.5t46 18.5t45.5 -18.5t18.5 -45.5zM195 236v22l37 31q88 -13 88 -68q0 -32 -30 -69t-65.5 -65t-65.5 -62t-30 -61q0 -36 41 -62t81 -26q23 0 38 9l30 68l46 -20q-11 -55 -37 -108q-19 -37 -63 -37
q-82 0 -152.5 43t-70.5 110q0 34 31 73.5t67.5 68.5t67.5 60.5t31 51.5q0 28 -44 41z" />
    <glyph glyph-name="Agrave" unicode="&#xc0;" horiz-adv-x="718" 
d="M521 57l-61 175h-231l-73 -175l86 -14v-43h-221v43l71 14l266 606h49l220 -606l70 -14v-43h-248v43zM352 524l-101 -240h191l-82 240h-8zM436 729v-8h-51l-129 127v10h94z" />
    <glyph glyph-name="Aacute" unicode="&#xc1;" horiz-adv-x="718" 
d="M521 57l-61 175h-231l-73 -175l86 -14v-43h-221v43l71 14l266 606h49l220 -606l70 -14v-43h-248v43zM352 524l-101 -240h191l-82 240h-8zM316 721v8l86 129h94v-10l-129 -127h-51z" />
    <glyph glyph-name="Acircumflex" unicode="&#xc2;" horiz-adv-x="718" 
d="M521 57l-61 175h-231l-73 -175l86 -14v-43h-221v43l71 14l266 606h49l220 -606l70 -14v-43h-248v43zM352 524l-101 -240h191l-82 240h-8zM521 729v-8h-46l-99 69l-99 -69h-46v8l121 129h48z" />
    <glyph glyph-name="Atilde" unicode="&#xc3;" horiz-adv-x="718" 
d="M521 57l-61 175h-231l-73 -175l86 -14v-43h-221v43l71 14l266 606h49l220 -606l70 -14v-43h-248v43zM352 524l-101 -240h191l-82 240h-8zM509 861l26 -10q-14 -49 -43 -87t-55 -38q-15 0 -63.5 30t-63.5 30q-16 0 -27.5 -16t-25.5 -47l-29 12q11 40 41 81.5t48 41.5
q19 0 65 -30.5t64 -30.5q17 0 36 21t27 43z" />
    <glyph glyph-name="Adieresis" unicode="&#xc4;" horiz-adv-x="718" 
d="M521 57l-61 175h-231l-73 -175l86 -14v-43h-221v43l71 14l266 606h49l220 -606l70 -14v-43h-248v43zM352 524l-101 -240h191l-82 240h-8zM514 792q0 -20 -16 -35.5t-36 -15.5q-21 0 -37 15.5t-16 35.5q0 21 16 37t37 16q20 0 36 -16t16 -37zM343 792q0 -20 -15.5 -35.5
t-36.5 -15.5t-37 15.5t-16 35.5q0 21 16 37t37 16t36.5 -16t15.5 -37z" />
    <glyph glyph-name="Aring" unicode="&#xc5;" horiz-adv-x="718" 
d="M521 57l-61 175h-231l-73 -175l86 -14v-43h-221v43l71 14l266 606h49l220 -606l70 -14v-43h-248v43zM352 524l-101 -240h191l-82 240h-8zM282 795q0 39 27.5 66.5t66.5 27.5t66.5 -27.5t27.5 -66.5t-27.5 -66.5t-66.5 -27.5t-66.5 27.5t-27.5 66.5zM328 795
q0 -22 13 -36.5t34 -14.5t34.5 14.5t13.5 36.5t-13.5 37.5t-34.5 15.5t-34 -15.5t-13 -37.5z" />
    <glyph glyph-name="AE" unicode="&#xc6;" horiz-adv-x="938" 
d="M562 50h261l44 121h41l-15 -176l-152 5h-363v43l80 14v175h-199l-103 -175l86 -14v-43h-221v43l71 14l337 554l-51 9v43h346l126 4l11 -157h-36l-44 102h-219v-256l178 6l19 95h38v-242h-38l-19 95l-178 3v-263zM452 559l-163 -275h169v275h-6z" />
    <glyph glyph-name="Ccedilla" unicode="&#xc7;" horiz-adv-x="654" 
d="M353 -224l-8 25q39 6 63 22.5t24 39.5q0 42 -71 42q-16 0 -30 -2l-5 7l42 80q-140 7 -230 96.5t-90 243.5q0 162 98 253t257 91q44 0 99.5 -12.5t91.5 -30.5l10 -156h-41l-40 107q-41 45 -134 45q-29 0 -59 -8t-61 -28t-54.5 -49.5t-38.5 -77t-15 -105.5q0 -74 16.5 -132
t41 -92t58 -56t64 -30t61.5 -8q64 0 117 21l67 120h40l-33 -154q-38 -13 -55 -18.5t-52.5 -12t-73.5 -7.5l-21 -40q46 0 75.5 -18t29.5 -54q0 -38 -42 -66t-101 -36z" />
    <glyph glyph-name="Egrave" unicode="&#xc8;" horiz-adv-x="593" 
d="M217 50h261l44 121h41l-15 -176l-152 5h-363v43l80 14v549l-80 14v43h346l126 4l11 -157h-36l-44 102h-219v-256l178 6l19 95h38v-242h-38l-19 95l-178 3v-263zM359 729v-8h-51l-129 127v10h94z" />
    <glyph glyph-name="Eacute" unicode="&#xc9;" horiz-adv-x="593" 
d="M217 50h261l44 121h41l-15 -176l-152 5h-363v43l80 14v549l-80 14v43h346l126 4l11 -157h-36l-44 102h-219v-256l178 6l19 95h38v-242h-38l-19 95l-178 3v-263zM239 721v8l86 129h94v-10l-129 -127h-51z" />
    <glyph glyph-name="Ecircumflex" unicode="&#xca;" horiz-adv-x="593" 
d="M217 50h261l44 121h41l-15 -176l-152 5h-363v43l80 14v549l-80 14v43h346l126 4l11 -157h-36l-44 102h-219v-256l178 6l19 95h38v-242h-38l-19 95l-178 3v-263zM444 729v-8h-46l-99 69l-99 -69h-46v8l121 129h48z" />
    <glyph glyph-name="Edieresis" unicode="&#xcb;" horiz-adv-x="593" 
d="M217 50h261l44 121h41l-15 -176l-152 5h-363v43l80 14v549l-80 14v43h346l126 4l11 -157h-36l-44 102h-219v-256l178 6l19 95h38v-242h-38l-19 95l-178 3v-263zM437 792q0 -20 -16 -35.5t-36 -15.5q-21 0 -37 15.5t-16 35.5q0 21 16 37t37 16q20 0 36 -16t16 -37z
M266 792q0 -20 -15 -35.5t-37 -15.5q-21 0 -37 15.5t-16 35.5q0 21 16 37t37 16t36.5 -16t15.5 -37z" />
    <glyph glyph-name="Igrave" unicode="&#xcc;" horiz-adv-x="369" 
d="M52 663h265v-43l-81 -14v-549l81 -14v-43h-265v43l80 14v549l-80 14v43zM245 729v-8h-51l-129 127v10h94z" />
    <glyph glyph-name="Iacute" unicode="&#xcd;" horiz-adv-x="369" 
d="M52 663h265v-43l-81 -14v-549l81 -14v-43h-265v43l80 14v549l-80 14v43zM125 721v8l86 129h94v-10l-129 -127h-51z" />
    <glyph glyph-name="Icircumflex" unicode="&#xce;" horiz-adv-x="369" 
d="M52 663h265v-43l-81 -14v-549l81 -14v-43h-265v43l80 14v549l-80 14v43zM330 729v-8h-46l-99 69l-99 -69h-46v8l121 129h48z" />
    <glyph glyph-name="Idieresis" unicode="&#xcf;" horiz-adv-x="369" 
d="M52 663h265v-43l-81 -14v-549l81 -14v-43h-265v43l80 14v549l-80 14v43zM323 792q0 -20 -16 -35.5t-36 -15.5q-21 0 -37 15.5t-16 35.5q0 21 16 37t37 16q20 0 36 -16t16 -37zM152 792q0 -20 -15 -35.5t-37 -15.5q-21 0 -37 15.5t-16 35.5q0 21 16 37t37 16t36.5 -16
t15.5 -37z" />
    <glyph glyph-name="Eth" unicode="&#xd0;" horiz-adv-x="747" 
d="M329 0h-296v43l78 14v246h-78v55h78v248l-78 14v43h371q137 0 216 -79.5t79 -218.5q0 -172 -102.5 -268.5t-267.5 -96.5zM216 52h123q108 0 179.5 72.5t71.5 223.5q0 263 -229 263h-145v-253h169v-55h-169v-251z" />
    <glyph glyph-name="Ntilde" unicode="&#xd1;" horiz-adv-x="755" 
d="M575 183h14v276l-4 147l-78 14v43h215v-43l-76 -14l-5 -152v-456h-38l-427 509h-12v-284l5 -166l86 -14v-43h-222v43l75 14l4 163v391l-79 9v43h149zM504 861l26 -10q-14 -49 -43 -87t-55 -38q-15 0 -63.5 30t-63.5 30q-16 0 -27.5 -16t-25.5 -47l-29 12q11 40 41 81.5
t48 41.5q19 0 65 -30.5t64 -30.5q17 0 36 21t27 43z" />
    <glyph glyph-name="Ograve" unicode="&#xd2;" horiz-adv-x="785" 
d="M48 316q0 89 29 159.5t78.5 113t109 64t124.5 21.5q154 0 251 -87.5t97 -237.5q0 -168 -97.5 -264t-260.5 -96q-143 0 -237 87t-94 240zM157 369q0 -165 70.5 -248t175.5 -83q41 0 79.5 15t72 45t53.5 84.5t20 125.5q0 160 -76 239.5t-183 79.5q-25 0 -51 -7t-55.5 -25.5
t-52.5 -46t-38 -74t-15 -105.5zM447 729v-8h-51l-129 127v10h94z" />
    <glyph glyph-name="Oacute" unicode="&#xd3;" horiz-adv-x="785" 
d="M48 316q0 89 29 159.5t78.5 113t109 64t124.5 21.5q154 0 251 -87.5t97 -237.5q0 -168 -97.5 -264t-260.5 -96q-143 0 -237 87t-94 240zM157 369q0 -165 70.5 -248t175.5 -83q41 0 79.5 15t72 45t53.5 84.5t20 125.5q0 160 -76 239.5t-183 79.5q-25 0 -51 -7t-55.5 -25.5
t-52.5 -46t-38 -74t-15 -105.5zM327 721v8l86 129h94v-10l-129 -127h-51z" />
    <glyph glyph-name="Ocircumflex" unicode="&#xd4;" horiz-adv-x="785" 
d="M48 316q0 89 29 159.5t78.5 113t109 64t124.5 21.5q154 0 251 -87.5t97 -237.5q0 -168 -97.5 -264t-260.5 -96q-143 0 -237 87t-94 240zM157 369q0 -165 70.5 -248t175.5 -83q41 0 79.5 15t72 45t53.5 84.5t20 125.5q0 160 -76 239.5t-183 79.5q-25 0 -51 -7t-55.5 -25.5
t-52.5 -46t-38 -74t-15 -105.5zM532 729v-8h-46l-99 69l-99 -69h-46v8l121 129h48z" />
    <glyph glyph-name="Otilde" unicode="&#xd5;" horiz-adv-x="785" 
d="M48 316q0 89 29 159.5t78.5 113t109 64t124.5 21.5q154 0 251 -87.5t97 -237.5q0 -168 -97.5 -264t-260.5 -96q-143 0 -237 87t-94 240zM157 369q0 -165 70.5 -248t175.5 -83q41 0 79.5 15t72 45t53.5 84.5t20 125.5q0 160 -76 239.5t-183 79.5q-25 0 -51 -7t-55.5 -25.5
t-52.5 -46t-38 -74t-15 -105.5zM520 861l26 -10q-14 -49 -43 -87t-55 -38q-15 0 -63.5 30t-63.5 30q-16 0 -27.5 -16t-25.5 -47l-29 12q11 40 41 81.5t48 41.5q19 0 65 -30.5t64 -30.5q17 0 36 21t27 43z" />
    <glyph glyph-name="Odieresis" unicode="&#xd6;" horiz-adv-x="785" 
d="M48 316q0 89 29 159.5t78.5 113t109 64t124.5 21.5q154 0 251 -87.5t97 -237.5q0 -168 -97.5 -264t-260.5 -96q-143 0 -237 87t-94 240zM157 369q0 -165 70.5 -248t175.5 -83q41 0 79.5 15t72 45t53.5 84.5t20 125.5q0 160 -76 239.5t-183 79.5q-25 0 -51 -7t-55.5 -25.5
t-52.5 -46t-38 -74t-15 -105.5zM525 792q0 -20 -16 -35.5t-36 -15.5q-21 0 -37 15.5t-16 35.5q0 21 16 37t37 16q20 0 36 -16t16 -37zM354 792q0 -20 -15 -35.5t-37 -15.5q-21 0 -37 15.5t-16 35.5q0 21 16 37t37 16t36.5 -16t15.5 -37z" />
    <glyph glyph-name="multiply" unicode="&#xd7;" horiz-adv-x="620" 
d="M493 35l-183 183l-183 -183l-42 42l183 183l-183 183l42 42l183 -183l183 183l42 -42l-183 -183l183 -183z" />
    <glyph glyph-name="Oslash" unicode="&#xd8;" horiz-adv-x="785" 
d="M48 316q0 89 29 159.5t78.5 113t109 64t124.5 21.5q114 0 198 -49l67 88l39 -29l-66 -87q110 -89 110 -248q0 -168 -97.5 -264t-260.5 -96q-102 0 -178 43l-76 -100l-39 29l74 99q-112 89 -112 256zM157 369q0 -148 60 -234l322 425q-70 67 -170 67q-25 0 -51 -7
t-55.5 -25.5t-52.5 -46t-38 -74t-15 -105.5zM628 308q0 132 -57 215l-322 -426q62 -59 154 -59q41 0 79.5 15t72 45t53.5 84.5t20 125.5z" />
    <glyph glyph-name="Ugrave" unicode="&#xd9;" horiz-adv-x="736" 
d="M488 663h220v-43l-67 -14l-9 -127v-268q0 -37 -15 -74.5t-44.5 -71t-81.5 -55t-117 -21.5q-122 0 -194 62t-72 142v413l-80 14v43h265v-43l-81 -14v-395q0 -67 47.5 -111.5t133.5 -44.5q80 0 132 48.5t52 137.5v243l-7 122l-82 14v43zM458 729v-8h-51l-129 127v10h94z
" />
    <glyph glyph-name="Uacute" unicode="&#xda;" horiz-adv-x="736" 
d="M488 663h220v-43l-67 -14l-9 -127v-268q0 -37 -15 -74.5t-44.5 -71t-81.5 -55t-117 -21.5q-122 0 -194 62t-72 142v413l-80 14v43h265v-43l-81 -14v-395q0 -67 47.5 -111.5t133.5 -44.5q80 0 132 48.5t52 137.5v243l-7 122l-82 14v43zM338 721v8l86 129h94v-10l-129 -127
h-51z" />
    <glyph glyph-name="Ucircumflex" unicode="&#xdb;" horiz-adv-x="736" 
d="M488 663h220v-43l-67 -14l-9 -127v-268q0 -37 -15 -74.5t-44.5 -71t-81.5 -55t-117 -21.5q-122 0 -194 62t-72 142v413l-80 14v43h265v-43l-81 -14v-395q0 -67 47.5 -111.5t133.5 -44.5q80 0 132 48.5t52 137.5v243l-7 122l-82 14v43zM543 729v-8h-46l-99 69l-99 -69h-46
v8l121 129h48z" />
    <glyph glyph-name="Udieresis" unicode="&#xdc;" horiz-adv-x="736" 
d="M488 663h220v-43l-67 -14l-9 -127v-268q0 -37 -15 -74.5t-44.5 -71t-81.5 -55t-117 -21.5q-122 0 -194 62t-72 142v413l-80 14v43h265v-43l-81 -14v-395q0 -67 47.5 -111.5t133.5 -44.5q80 0 132 48.5t52 137.5v243l-7 122l-82 14v43zM536 792q0 -20 -16 -35.5t-36 -15.5
q-21 0 -37 15.5t-16 35.5q0 21 16 37t37 16q20 0 36 -16t16 -37zM365 792q0 -20 -15.5 -35.5t-36.5 -15.5t-37 15.5t-16 35.5q0 21 16 37t37 16t36.5 -16t15.5 -37z" />
    <glyph glyph-name="Yacute" unicode="&#xdd;" horiz-adv-x="647" 
d="M363 354l141 247l-97 23v39h216v-39l-58 -27l-173 -306v-234l80 -14v-43h-265v43l81 14v233l-192 316l-72 14v43h248v-43l-73 -14l151 -252h13zM289 721v8l86 129h94v-10l-129 -127h-51z" />
    <glyph glyph-name="Thorn" unicode="&#xde;" horiz-adv-x="549" 
d="M33 663h264v-43l-80 -14v-63h89q118 0 166 -44.5t48 -130.5q0 -97 -69 -153.5t-190 -56.5v34q69 0 110.5 44.5t41.5 120.5q0 132 -126 132h-70v-432l90 -14v-43h-274v43l80 14v549l-80 14v43z" />
    <glyph glyph-name="germandbls" unicode="&#xdf;" horiz-adv-x="593" 
d="M286 363q0 31 29 70t58 80.5t29 78.5q0 46 -23 78.5t-61 32.5q-62 0 -95.5 -45t-33.5 -102v-501l58 -20v-35h-225v35l76 20v326h-70v29l70 24v123q0 49 54 108q39 39 90 65t95 26q60 0 104 -41t44 -111q0 -28 -18 -56.5t-40 -48.5t-40 -47.5t-18 -54.5q0 -20 30.5 -45
t66.5 -48t66.5 -63.5t30.5 -86.5q0 -44 -23 -79q-16 -24 -56.5 -55.5t-74.5 -31.5q-26 0 -65.5 9.5t-54.5 21.5l9 105h28q5 -39 13 -54q23 -18 57 -18q42 0 65.5 19.5t23.5 56.5q0 29 -31 61.5t-68.5 56.5t-68.5 56t-31 61z" />
    <glyph glyph-name="agrave" unicode="&#xe0;" horiz-adv-x="493" 
d="M312 124v105q-85 -11 -151 -40q-19 -9 -24.5 -17t-5.5 -23q0 -86 67 -86q28 0 62.5 18.5t51.5 42.5zM93 312l-22 18q-2 20 -2 28q0 44 35 68q107 69 144 69q71 0 112.5 -35t41.5 -91v-310l70 -4v-39l-147 -29l-14 14v61h-14q-102 -75 -146 -75q-46 0 -77.5 36.5
t-31.5 97.5q0 46 11 65t50 34q75 27 209 48v63q0 49 -25 74t-67 25q-44 0 -67 -17v-90zM303 560v-8h-51l-129 162v10h94z" />
    <glyph glyph-name="aacute" unicode="&#xe1;" horiz-adv-x="493" 
d="M312 124v105q-85 -11 -151 -40q-19 -9 -24.5 -17t-5.5 -23q0 -86 67 -86q28 0 62.5 18.5t51.5 42.5zM93 312l-22 18q-2 20 -2 28q0 44 35 68q107 69 144 69q71 0 112.5 -35t41.5 -91v-310l70 -4v-39l-147 -29l-14 14v61h-14q-102 -75 -146 -75q-46 0 -77.5 36.5
t-31.5 97.5q0 46 11 65t50 34q75 27 209 48v63q0 49 -25 74t-67 25q-44 0 -67 -17v-90zM183 552v8l86 164h94v-10l-129 -162h-51z" />
    <glyph glyph-name="acircumflex" unicode="&#xe2;" horiz-adv-x="493" 
d="M312 124v105q-85 -11 -151 -40q-19 -9 -24.5 -17t-5.5 -23q0 -86 67 -86q28 0 62.5 18.5t51.5 42.5zM93 312l-22 18q-2 20 -2 28q0 44 35 68q107 69 144 69q71 0 112.5 -35t41.5 -91v-310l70 -4v-39l-147 -29l-14 14v61h-14q-102 -75 -146 -75q-46 0 -77.5 36.5
t-31.5 97.5q0 46 11 65t50 34q75 27 209 48v63q0 49 -25 74t-67 25q-44 0 -67 -17v-90zM388 560v-8h-46l-99 99l-99 -99h-46v8l121 164h48z" />
    <glyph glyph-name="atilde" unicode="&#xe3;" horiz-adv-x="493" 
d="M312 124v105q-85 -11 -151 -40q-19 -9 -24.5 -17t-5.5 -23q0 -86 67 -86q28 0 62.5 18.5t51.5 42.5zM93 312l-22 18q-2 20 -2 28q0 44 35 68q107 69 144 69q71 0 112.5 -35t41.5 -91v-310l70 -4v-39l-147 -29l-14 14v61h-14q-102 -75 -146 -75q-46 0 -77.5 36.5
t-31.5 97.5q0 46 11 65t50 34q75 27 209 48v63q0 49 -25 74t-67 25q-44 0 -67 -17v-90zM376 692l26 -10q-14 -49 -43 -87t-55 -38q-15 0 -63.5 30t-63.5 30q-16 0 -27.5 -16t-25.5 -47l-29 12q11 40 41 81.5t48 41.5q19 0 65 -30.5t64 -30.5q17 0 36 21t27 43z" />
    <glyph glyph-name="adieresis" unicode="&#xe4;" horiz-adv-x="493" 
d="M312 124v105q-85 -11 -151 -40q-19 -9 -24.5 -17t-5.5 -23q0 -86 67 -86q28 0 62.5 18.5t51.5 42.5zM93 312l-22 18q-2 20 -2 28q0 44 35 68q107 69 144 69q71 0 112.5 -35t41.5 -91v-310l70 -4v-39l-147 -29l-14 14v61h-14q-102 -75 -146 -75q-46 0 -77.5 36.5
t-31.5 97.5q0 46 11 65t50 34q75 27 209 48v63q0 49 -25 74t-67 25q-44 0 -67 -17v-90zM381 623q0 -20 -16 -35.5t-36 -15.5q-21 0 -37 15.5t-16 35.5q0 21 16 37t37 16q20 0 36 -16t16 -37zM210 623q0 -21 -15 -36t-37 -15q-21 0 -37 15.5t-16 35.5q0 21 16 37t37 16
t36.5 -16t15.5 -37z" />
    <glyph glyph-name="aring" unicode="&#xe5;" horiz-adv-x="493" 
d="M312 124v105q-85 -11 -151 -40q-19 -9 -24.5 -17t-5.5 -23q0 -86 67 -86q28 0 62.5 18.5t51.5 42.5zM93 312l-22 18q-2 20 -2 28q0 44 35 68q107 69 144 69q71 0 112.5 -35t41.5 -91v-310l70 -4v-39l-147 -29l-14 14v61h-14q-102 -75 -146 -75q-46 0 -77.5 36.5
t-31.5 97.5q0 46 11 65t50 34q75 27 209 48v63q0 49 -25 74t-67 25q-44 0 -67 -17v-90zM149 626q0 39 27.5 66.5t66.5 27.5t66.5 -27.5t27.5 -66.5t-27.5 -66.5t-66.5 -27.5t-66.5 27.5t-27.5 66.5zM195 626q0 -22 13 -36.5t34 -14.5t34.5 14.5t13.5 36.5t-13.5 37.5
t-34.5 15.5t-34 -15.5t-13 -37.5z" />
    <glyph glyph-name="ae" unicode="&#xe6;" horiz-adv-x="746" 
d="M680 111l23 -28q-25 -38 -79.5 -67t-93.5 -29q-51 0 -96.5 26t-75.5 71h-16q-109 -97 -191 -97q-46 0 -77.5 36.5t-31.5 97.5q0 46 11 65t50 34q76 27 214 48l-5 63q0 49 -25 74t-67 25q-44 0 -67 -17v-90l-60 -11l-22 18q-2 20 -2 28q0 44 35 68q107 69 144 69
q97 0 137 -63q33 22 83 42.5t70 20.5q47 0 82 -17.5t53.5 -45.5t27 -58t8.5 -60q0 -34 -12 -34l-83 -10h-211q1 -98 49.5 -153t118.5 -55q61 0 109 49zM317 124v105q-87 -11 -156 -40q-19 -9 -24.5 -17t-5.5 -23q0 -91 62 -91q29 0 65 21t59 45zM512 434q-49 0 -75.5 -28
t-32.5 -93h207v26q0 42 -28 68.5t-71 26.5z" />
    <glyph glyph-name="ccedilla" unicode="&#xe7;" horiz-adv-x="464" 
d="M209 -224l-8 25q39 6 63 22.5t24 39.5q0 42 -71 42q-16 0 -30 -2l-5 7l41 79q-84 9 -135 75.5t-51 157.5q0 123 55 175q42 41 98.5 69.5t97.5 28.5q76 0 119 -20l4 -149h-46q-6 49 -17 77q-36 25 -84 25q-54 0 -93.5 -36.5t-39.5 -119.5q0 -106 47.5 -157.5t117.5 -51.5
q60 0 113 49l27 -37q-31 -32 -78 -56.5t-91 -30.5l-20 -38q46 0 75.5 -18t29.5 -54q0 -38 -42 -66t-101 -36z" />
    <glyph glyph-name="egrave" unicode="&#xe8;" horiz-adv-x="472" 
d="M406 111l23 -28q-25 -38 -79.5 -67t-93.5 -29q-91 0 -155 74.5t-64 185.5q0 89 52 167q21 23 85 52t90 29q47 0 82 -17.5t53.5 -45.5t27 -58t8.5 -60q0 -34 -12 -34l-83 -10h-211q1 -98 49.5 -153t118.5 -55q61 0 109 49zM238 434q-49 0 -75.5 -28t-32.5 -93h207v26
q0 42 -28 68.5t-71 26.5zM316 560v-8h-51l-129 162v10h94z" />
    <glyph glyph-name="eacute" unicode="&#xe9;" horiz-adv-x="472" 
d="M406 111l23 -28q-25 -38 -79.5 -67t-93.5 -29q-91 0 -155 74.5t-64 185.5q0 89 52 167q21 23 85 52t90 29q47 0 82 -17.5t53.5 -45.5t27 -58t8.5 -60q0 -34 -12 -34l-83 -10h-211q1 -98 49.5 -153t118.5 -55q61 0 109 49zM238 434q-49 0 -75.5 -28t-32.5 -93h207v26
q0 42 -28 68.5t-71 26.5zM196 552v8l86 164h94v-10l-129 -162h-51z" />
    <glyph glyph-name="ecircumflex" unicode="&#xea;" horiz-adv-x="472" 
d="M406 111l23 -28q-25 -38 -79.5 -67t-93.5 -29q-91 0 -155 74.5t-64 185.5q0 89 52 167q21 23 85 52t90 29q47 0 82 -17.5t53.5 -45.5t27 -58t8.5 -60q0 -34 -12 -34l-83 -10h-211q1 -98 49.5 -153t118.5 -55q61 0 109 49zM238 434q-49 0 -75.5 -28t-32.5 -93h207v26
q0 42 -28 68.5t-71 26.5zM401 560v-8h-46l-99 99l-99 -99h-46v8l121 164h48z" />
    <glyph glyph-name="edieresis" unicode="&#xeb;" horiz-adv-x="472" 
d="M406 111l23 -28q-25 -38 -79.5 -67t-93.5 -29q-91 0 -155 74.5t-64 185.5q0 89 52 167q21 23 85 52t90 29q47 0 82 -17.5t53.5 -45.5t27 -58t8.5 -60q0 -34 -12 -34l-83 -10h-211q1 -98 49.5 -153t118.5 -55q61 0 109 49zM238 434q-49 0 -75.5 -28t-32.5 -93h207v26
q0 42 -28 68.5t-71 26.5zM394 623q0 -20 -16 -35.5t-36 -15.5q-21 0 -37 15.5t-16 35.5q0 21 16 37t37 16q20 0 36 -16t16 -37zM223 623q0 -21 -15.5 -36t-36.5 -15t-37 15.5t-16 35.5q0 21 16 37t37 16t36.5 -16t15.5 -37z" />
    <glyph glyph-name="igrave" unicode="&#xec;" horiz-adv-x="307" 
d="M204 495v-437l76 -21v-37h-249v37l77 21v351l-82 17v28l152 41h26zM213 549v-8h-51l-129 162v10h94z" />
    <glyph glyph-name="iacute" unicode="&#xed;" horiz-adv-x="307" 
d="M204 495v-437l76 -21v-37h-249v37l77 21v351l-82 17v28l152 41h26zM93 541v8l86 164h94v-10l-129 -162h-51z" />
    <glyph glyph-name="icircumflex" unicode="&#xee;" horiz-adv-x="307" 
d="M204 495v-437l76 -21v-37h-249v37l77 21v351l-82 17v28l152 41h26zM298 549v-8h-46l-99 99l-99 -99h-46v8l121 164h48z" />
    <glyph glyph-name="idieresis" unicode="&#xef;" horiz-adv-x="307" 
d="M204 495v-437l76 -21v-37h-249v37l77 21v351l-82 17v28l152 41h26zM291 612q0 -20 -16 -35.5t-36 -15.5q-21 0 -37 15.5t-16 35.5q0 21 16 37t37 16q20 0 36 -16t16 -37zM120 612q0 -20 -15 -35.5t-37 -15.5q-21 0 -37 15.5t-16 35.5q0 21 16 37t37 16t36.5 -16t15.5 -37
z" />
    <glyph glyph-name="eth" unicode="&#xf0;" horiz-adv-x="546" 
d="M147 562l101 79q-53 52 -106 75l20 34q75 -28 135 -71l90 71l32 -38l-83 -64q83 -73 128 -174.5t45 -217.5q0 -135 -69.5 -202t-173.5 -67q-105 0 -167 63.5t-62 174.5q0 75 21.5 130t57 84t73 42t77.5 13q59 0 100 -30l8 6q-41 75 -93 135l-103 -80zM405 237
q0 62 -17 126q-22 47 -51 65.5t-70 18.5q-58 0 -95 -47t-37 -132q0 -233 146 -233q61 0 92.5 47.5t31.5 154.5z" />
    <glyph glyph-name="ntilde" unicode="&#xf1;" horiz-adv-x="604" 
d="M581 0h-242v37l68 19v246q0 60 -25 86t-73 26q-9 0 -17 -1t-16.5 -3.5t-14 -4t-15.5 -7t-13.5 -7.5t-16.5 -10t-18 -11v-312l72 -21v-37h-247v37l80 21v351l-80 14v27l152 39h26l-12 -84h10l71 63q27 27 85 27q64 0 106 -42t42 -119v-276h1l77 -21v-37zM434 692l26 -10
q-14 -49 -43 -87t-55 -38q-15 0 -63.5 30t-63.5 30q-16 0 -27.5 -16t-25.5 -47l-29 12q11 40 41 81.5t48 41.5q19 0 65 -30.5t64 -30.5q17 0 36 21t27 43z" />
    <glyph glyph-name="ograve" unicode="&#xf2;" horiz-adv-x="546" 
d="M37 225q0 75 21.5 130t57 84t73 42.5t77.5 13.5q114 0 178.5 -62.5t64.5 -171.5q0 -138 -69.5 -206t-173.5 -68q-105 0 -167 63.5t-62 174.5zM135 268q0 -233 146 -233q125 0 125 185q0 70 -11.5 117t-32.5 70t-43 31.5t-52 8.5q-58 0 -95 -47t-37 -132zM327 560v-8h-51
l-129 162v10h94z" />
    <glyph glyph-name="oacute" unicode="&#xf3;" horiz-adv-x="546" 
d="M37 225q0 75 21.5 130t57 84t73 42.5t77.5 13.5q114 0 178.5 -62.5t64.5 -171.5q0 -138 -69.5 -206t-173.5 -68q-105 0 -167 63.5t-62 174.5zM135 268q0 -233 146 -233q125 0 125 185q0 70 -11.5 117t-32.5 70t-43 31.5t-52 8.5q-58 0 -95 -47t-37 -132zM207 552v8
l86 164h94v-10l-129 -162h-51z" />
    <glyph glyph-name="ocircumflex" unicode="&#xf4;" horiz-adv-x="546" 
d="M37 225q0 75 21.5 130t57 84t73 42.5t77.5 13.5q114 0 178.5 -62.5t64.5 -171.5q0 -138 -69.5 -206t-173.5 -68q-105 0 -167 63.5t-62 174.5zM135 268q0 -233 146 -233q125 0 125 185q0 70 -11.5 117t-32.5 70t-43 31.5t-52 8.5q-58 0 -95 -47t-37 -132zM412 560v-8h-46
l-99 99l-99 -99h-46v8l121 164h48z" />
    <glyph glyph-name="otilde" unicode="&#xf5;" horiz-adv-x="546" 
d="M37 225q0 75 21.5 130t57 84t73 42.5t77.5 13.5q114 0 178.5 -62.5t64.5 -171.5q0 -138 -69.5 -206t-173.5 -68q-105 0 -167 63.5t-62 174.5zM135 268q0 -233 146 -233q125 0 125 185q0 70 -11.5 117t-32.5 70t-43 31.5t-52 8.5q-58 0 -95 -47t-37 -132zM400 692l26 -10
q-14 -49 -43 -87t-55 -38q-15 0 -63.5 30t-63.5 30q-16 0 -27.5 -16t-25.5 -47l-29 12q11 40 41 81.5t48 41.5q19 0 65 -30.5t64 -30.5q17 0 36 21t27 43z" />
    <glyph glyph-name="odieresis" unicode="&#xf6;" horiz-adv-x="546" 
d="M37 225q0 75 21.5 130t57 84t73 42.5t77.5 13.5q114 0 178.5 -62.5t64.5 -171.5q0 -138 -69.5 -206t-173.5 -68q-105 0 -167 63.5t-62 174.5zM135 268q0 -233 146 -233q125 0 125 185q0 70 -11.5 117t-32.5 70t-43 31.5t-52 8.5q-58 0 -95 -47t-37 -132zM405 623
q0 -20 -16 -35.5t-36 -15.5q-21 0 -37 15.5t-16 35.5q0 21 16 37t37 16q20 0 36 -16t16 -37zM234 623q0 -21 -15 -36t-37 -15q-21 0 -37 15.5t-16 35.5q0 21 16 37t37 16t36.5 -16t15.5 -37z" />
    <glyph glyph-name="divide" unicode="&#xf7;" horiz-adv-x="620" 
d="M570 230h-520v60h520v-60zM258 109q0 22 14.5 37t36.5 15t37 -15t15 -37t-15 -36.5t-37 -14.5t-36.5 14.5t-14.5 36.5zM258 411q0 22 14.5 37t36.5 15t37 -15t15 -37t-15 -36.5t-37 -14.5t-36.5 14.5t-14.5 36.5z" />
    <glyph glyph-name="oslash" unicode="&#xf8;" horiz-adv-x="546" 
d="M37 225q0 75 21.5 130t57 84t73 42.5t77.5 13.5q85 0 147 -38l45 62l36 -26l-47 -64q62 -62 62 -168q0 -138 -69.5 -206t-173.5 -68q-67 0 -119 27l-49 -67l-36 26l48 67q-73 65 -73 185zM135 268q0 -100 27 -157l207 286q-33 50 -102 50q-58 0 -95 -47t-37 -132z
M406 220q0 79 -16 130l-202 -279q36 -36 93 -36q125 0 125 185z" />
    <glyph glyph-name="ugrave" unicode="&#xf9;" horiz-adv-x="597" 
d="M20 469l181 17l-6 -144v-178q0 -56 22 -78.5t69 -22.5q27 0 64 23t54 53v279l-79 11v40l180 17l-5 -141v-294l74 -16v-35h-169l6 87h-9q-36 -45 -79.5 -72.5t-71.5 -27.5q-66 0 -108.5 41t-42.5 120v270l-80 11v40zM351 560v-8h-51l-129 162v10h94z" />
    <glyph glyph-name="uacute" unicode="&#xfa;" horiz-adv-x="597" 
d="M20 469l181 17l-6 -144v-178q0 -56 22 -78.5t69 -22.5q27 0 64 23t54 53v279l-79 11v40l180 17l-5 -141v-294l74 -16v-35h-169l6 87h-9q-36 -45 -79.5 -72.5t-71.5 -27.5q-66 0 -108.5 41t-42.5 120v270l-80 11v40zM231 552v8l86 164h94v-10l-129 -162h-51z" />
    <glyph glyph-name="ucircumflex" unicode="&#xfb;" horiz-adv-x="597" 
d="M20 469l181 17l-6 -144v-178q0 -56 22 -78.5t69 -22.5q27 0 64 23t54 53v279l-79 11v40l180 17l-5 -141v-294l74 -16v-35h-169l6 87h-9q-36 -45 -79.5 -72.5t-71.5 -27.5q-66 0 -108.5 41t-42.5 120v270l-80 11v40zM436 560v-8h-46l-99 99l-99 -99h-46v8l121 164h48z" />
    <glyph glyph-name="udieresis" unicode="&#xfc;" horiz-adv-x="597" 
d="M20 469l181 17l-6 -144v-178q0 -56 22 -78.5t69 -22.5q27 0 64 23t54 53v279l-79 11v40l180 17l-5 -141v-294l74 -16v-35h-169l6 87h-9q-36 -45 -79.5 -72.5t-71.5 -27.5q-66 0 -108.5 41t-42.5 120v270l-80 11v40zM429 623q0 -20 -16 -35.5t-36 -15.5q-21 0 -37 15.5
t-16 35.5q0 21 16 37t37 16q20 0 36 -16t16 -37zM258 623q0 -21 -15 -36t-37 -15q-21 0 -37 15.5t-16 35.5q0 21 16 37t37 16t36.5 -16t15.5 -37z" />
    <glyph glyph-name="yacute" unicode="&#xfd;" horiz-adv-x="533" 
d="M6 481h233v-37l-66 -16l125 -329h11l114 329l-70 16v37h174v-37l-42 -16l-190 -511q-25 -65 -67.5 -112.5t-99.5 -47.5q-35 0 -45 15l-44 61l19 16q22 -8 60 -8q57 0 96.5 43t59.5 119h-33l-175 425l-60 16v37zM234 552v8l86 164h94v-10l-129 -162h-51z" />
    <glyph glyph-name="thorn" unicode="&#xfe;" horiz-adv-x="553" 
d="M277 -7q-53 0 -95 10v-182l91 -21v-36h-258l5 36l71 21v640l-5 198l-71 24v28l138 39h35l-3 -193v-141l11 -1q33 35 72.5 57.5t64.5 22.5q30 0 59.5 -9.5t58.5 -30t47 -61t18 -95.5q0 -123 -42 -173q-46 -58 -98.5 -95.5t-98.5 -37.5zM182 351v-254q34 -39 105 -39
q58 0 99.5 44t41.5 143q0 90 -36 131.5t-83 41.5q-35 0 -69.5 -20.5t-57.5 -46.5z" />
    <glyph glyph-name="ydieresis" unicode="&#xff;" horiz-adv-x="533" 
d="M6 481h233v-37l-66 -16l125 -329h11l114 329l-70 16v37h174v-37l-42 -16l-190 -511q-25 -65 -67.5 -112.5t-99.5 -47.5q-35 0 -45 15l-44 61l19 16q22 -8 60 -8q57 0 96.5 43t59.5 119h-33l-175 425l-60 16v37zM432 623q0 -20 -16 -35.5t-36 -15.5q-21 0 -37 15.5
t-16 35.5q0 21 16 37t37 16q20 0 36 -16t16 -37zM261 623q0 -21 -15.5 -36t-36.5 -15t-37 15.5t-16 35.5q0 21 16 37t37 16t36.5 -16t15.5 -37z" />
    <glyph glyph-name="Amacron" unicode="&#x100;" horiz-adv-x="718" 
d="M521 57l-61 175h-231l-73 -175l86 -14v-43h-221v43l71 14l266 606h49l220 -606l70 -14v-43h-248v43zM352 524l-101 -240h191l-82 240h-8zM503 743h-254v58h254v-58z" />
    <glyph glyph-name="amacron" unicode="&#x101;" horiz-adv-x="493" 
d="M312 124v105q-85 -11 -151 -40q-19 -9 -24.5 -17t-5.5 -23q0 -86 67 -86q28 0 62.5 18.5t51.5 42.5zM93 312l-22 18q-2 20 -2 28q0 44 35 68q107 69 144 69q71 0 112.5 -35t41.5 -91v-310l70 -4v-39l-147 -29l-14 14v61h-14q-102 -75 -146 -75q-46 0 -77.5 36.5
t-31.5 97.5q0 46 11 65t50 34q75 27 209 48v63q0 49 -25 74t-67 25q-44 0 -67 -17v-90zM370 574h-254v58h254v-58z" />
    <glyph glyph-name="Abreve" unicode="&#x102;" horiz-adv-x="718" 
d="M521 57l-61 175h-231l-73 -175l86 -14v-43h-221v43l71 14l266 606h49l220 -606l70 -14v-43h-248v43zM352 524l-101 -240h191l-82 240h-8zM376 721q-50 0 -85 33.5t-35 98.5h40q0 -30 22.5 -51.5t57.5 -21.5q32 0 56 21t24 52h40q0 -65 -35 -98.5t-85 -33.5z" />
    <glyph glyph-name="abreve" unicode="&#x103;" horiz-adv-x="493" 
d="M312 124v105q-85 -11 -151 -40q-19 -9 -24.5 -17t-5.5 -23q0 -86 67 -86q28 0 62.5 18.5t51.5 42.5zM93 312l-22 18q-2 20 -2 28q0 44 35 68q107 69 144 69q71 0 112.5 -35t41.5 -91v-310l70 -4v-39l-147 -29l-14 14v61h-14q-102 -75 -146 -75q-46 0 -77.5 36.5
t-31.5 97.5q0 46 11 65t50 34q75 27 209 48v63q0 49 -25 74t-67 25q-44 0 -67 -17v-90zM243 557q-50 0 -85 39t-35 113h40q0 -35 22.5 -61.5t57.5 -26.5q32 0 56 25.5t24 62.5h40q0 -74 -35 -113t-85 -39z" />
    <glyph glyph-name="Aogonek" unicode="&#x104;" horiz-adv-x="718" 
d="M521 57l-61 175h-231l-73 -175l86 -14v-43h-221v43l71 14l266 606h49l220 -606l70 -14v-43h-200q-50 -40 -50 -94q0 -62 45 -62q6 0 16 2v-32q-18 -5 -34 -5q-39 0 -68 20.5t-29 57.5q0 65 72 116v40zM352 524l-101 -240h191l-82 240h-8z" />
    <glyph glyph-name="aogonek" unicode="&#x105;" horiz-adv-x="493" 
d="M93 312l-22 18q-2 20 -2 28q0 44 35 68q107 69 144 69q71 0 112.5 -35t41.5 -91v-310l70 -4v-39l-135 -26q-47 -40 -47 -92q0 -62 45 -62q6 0 16 2v-32q-18 -5 -34 -5q-39 0 -68 20.5t-29 57.5q0 73 91 128v55h-14q-102 -75 -146 -75q-46 0 -77.5 36.5t-31.5 97.5
q0 46 11 65t50 34q75 27 209 48v63q0 49 -25 74t-67 25q-44 0 -67 -17v-90zM312 124v105q-85 -11 -151 -40q-19 -9 -24.5 -17t-5.5 -23q0 -86 67 -86q28 0 62.5 18.5t51.5 42.5z" />
    <glyph glyph-name="Cacute" unicode="&#x106;" horiz-adv-x="654" 
d="M402 41q64 0 117 21l67 120h40l-33 -154q-43 -15 -60 -20t-57.5 -12t-85.5 -7q-148 0 -245 90.5t-97 250.5q0 162 98 253t257 91q44 0 99.5 -12.5t91.5 -30.5l10 -156h-41l-40 107q-41 45 -134 45q-29 0 -59 -8t-61 -28t-54.5 -49.5t-38.5 -77t-15 -105.5
q0 -74 16.5 -132t41 -92t58 -56t64 -30t61.5 -8zM341 721v8l86 129h94v-10l-129 -127h-51z" />
    <glyph glyph-name="cacute" unicode="&#x107;" horiz-adv-x="464" 
d="M409 112l27 -37q-35 -36 -89 -62t-99 -26q-93 0 -152 69t-59 166q0 123 55 175q42 41 98.5 69.5t97.5 28.5q76 0 119 -20l4 -149h-46q-6 49 -17 77q-36 25 -84 25q-54 0 -93.5 -36.5t-39.5 -119.5q0 -106 47.5 -157.5t117.5 -51.5q60 0 113 49zM200 552v8l86 164h94v-10
l-129 -162h-51z" />
    <glyph glyph-name="Cdotaccent" unicode="&#x10a;" horiz-adv-x="654" 
d="M402 41q64 0 117 21l67 120h40l-33 -154q-43 -15 -60 -20t-57.5 -12t-85.5 -7q-148 0 -245 90.5t-97 250.5q0 162 98 253t257 91q44 0 99.5 -12.5t91.5 -30.5l10 -156h-41l-40 107q-41 45 -134 45q-29 0 -59 -8t-61 -28t-54.5 -49.5t-38.5 -77t-15 -105.5
q0 -74 16.5 -132t41 -92t58 -56t64 -30t61.5 -8zM336 792q0 27 18.5 46t45.5 19t46.5 -19t19.5 -46t-19.5 -45.5t-46.5 -18.5t-45.5 18.5t-18.5 45.5z" />
    <glyph glyph-name="cdotaccent" unicode="&#x10b;" horiz-adv-x="464" 
d="M409 112l27 -37q-35 -36 -89 -62t-99 -26q-93 0 -152 69t-59 166q0 123 55 175q42 41 98.5 69.5t97.5 28.5q76 0 119 -20l4 -149h-46q-6 49 -17 77q-36 25 -84 25q-54 0 -93.5 -36.5t-39.5 -119.5q0 -106 47.5 -157.5t117.5 -51.5q60 0 113 49zM195 638q0 27 18.5 46
t45.5 19t46.5 -19t19.5 -46t-19.5 -45.5t-46.5 -18.5t-45.5 18.5t-18.5 45.5z" />
    <glyph glyph-name="Ccaron" unicode="&#x10c;" horiz-adv-x="654" 
d="M402 41q64 0 117 21l67 120h40l-33 -154q-43 -15 -60 -20t-57.5 -12t-85.5 -7q-148 0 -245 90.5t-97 250.5q0 162 98 253t257 91q44 0 99.5 -12.5t91.5 -30.5l10 -156h-41l-40 107q-41 45 -134 45q-29 0 -59 -8t-61 -28t-54.5 -49.5t-38.5 -77t-15 -105.5
q0 -74 16.5 -132t41 -92t58 -56t64 -30t61.5 -8zM546 858v-8l-121 -129h-48l-121 129v8h46l99 -69l99 69h46z" />
    <glyph glyph-name="ccaron" unicode="&#x10d;" horiz-adv-x="464" 
d="M409 112l27 -37q-35 -36 -89 -62t-99 -26q-93 0 -152 69t-59 166q0 123 55 175q42 41 98.5 69.5t97.5 28.5q76 0 119 -20l4 -149h-46q-6 49 -17 77q-36 25 -84 25q-54 0 -93.5 -36.5t-39.5 -119.5q0 -106 47.5 -157.5t117.5 -51.5q60 0 113 49zM405 724v-8l-121 -164h-48
l-121 164v8h46l99 -99l99 99h46z" />
    <glyph glyph-name="Dcaron" unicode="&#x10e;" horiz-adv-x="747" 
d="M329 0h-296v43l78 14v549l-78 14v43h371q137 0 216 -79.5t79 -218.5q0 -172 -102.5 -268.5t-267.5 -96.5zM216 52h123q108 0 179.5 72.5t71.5 223.5q0 263 -229 263h-145v-559zM487 858v-8l-121 -129h-48l-121 129v8h46l99 -69l99 69h46z" />
    <glyph glyph-name="dcaron" unicode="&#x10f;" horiz-adv-x="575" 
d="M390 121v274q-36 44 -104 44q-18 0 -31.5 -1.5t-38.5 -11t-41 -27t-29 -54t-13 -87.5q0 -91 43.5 -142.5t96.5 -51.5q66 0 117 57zM399 -4l-13 9v58h-9q-96 -76 -158 -76q-65 0 -123.5 63t-58.5 178q0 124 67 184q35 27 93.5 55t101.5 28t91 -23l-6 192l-74 15v27l150 44
h30l-10 -263v-424l72 -9v-39zM550 545v8l16 199h84v-10l-59 -197h-41z" />
    <glyph glyph-name="Dcroat" unicode="&#x110;" horiz-adv-x="747" 
d="M329 0h-296v43l78 14v246h-78v55h78v248l-78 14v43h371q137 0 216 -79.5t79 -218.5q0 -172 -102.5 -268.5t-267.5 -96.5zM216 52h123q108 0 179.5 72.5t71.5 223.5q0 263 -229 263h-145v-253h169v-55h-169v-251z" />
    <glyph glyph-name="dcroat" unicode="&#x111;" horiz-adv-x="575" 
d="M239 614h146l-1 50l-74 15v27l150 44h30l-5 -136h46v-50h-48l-3 -77v-424l72 -9v-39l-153 -19l-13 9v58h-9q-96 -76 -158 -76q-65 0 -123.5 63t-58.5 178q0 124 67 184q35 27 93.5 55t101.5 28t91 -23l-3 92h-148v50zM390 121v274q-36 44 -104 44q-18 0 -31.5 -1.5
t-38.5 -11t-41 -27t-29 -54t-13 -87.5q0 -91 43.5 -142.5t96.5 -51.5q66 0 117 57z" />
    <glyph glyph-name="Emacron" unicode="&#x112;" horiz-adv-x="593" 
d="M217 50h261l44 121h41l-15 -176l-152 5h-363v43l80 14v549l-80 14v43h346l126 4l11 -157h-36l-44 102h-219v-256l178 6l19 95h38v-242h-38l-19 95l-178 3v-263zM426 743h-254v58h254v-58z" />
    <glyph glyph-name="emacron" unicode="&#x113;" horiz-adv-x="472" 
d="M406 111l23 -28q-25 -38 -79.5 -67t-93.5 -29q-91 0 -155 74.5t-64 185.5q0 89 52 167q21 23 85 52t90 29q47 0 82 -17.5t53.5 -45.5t27 -58t8.5 -60q0 -34 -12 -34l-83 -10h-211q1 -98 49.5 -153t118.5 -55q61 0 109 49zM238 434q-49 0 -75.5 -28t-32.5 -93h207v26
q0 42 -28 68.5t-71 26.5zM383 574h-254v58h254v-58z" />
    <glyph glyph-name="Edotaccent" unicode="&#x116;" horiz-adv-x="593" 
d="M217 50h261l44 121h41l-15 -176l-152 5h-363v43l80 14v549l-80 14v43h346l126 4l11 -157h-36l-44 102h-219v-256l178 6l19 95h38v-242h-38l-19 95l-178 3v-263zM234 792q0 27 18.5 46t45.5 19t46.5 -19t19.5 -46t-19.5 -45.5t-46.5 -18.5t-45.5 18.5t-18.5 45.5z" />
    <glyph glyph-name="edotaccent" unicode="&#x117;" horiz-adv-x="472" 
d="M406 111l23 -28q-25 -38 -79.5 -67t-93.5 -29q-91 0 -155 74.5t-64 185.5q0 89 52 167q21 23 85 52t90 29q47 0 82 -17.5t53.5 -45.5t27 -58t8.5 -60q0 -34 -12 -34l-83 -10h-211q1 -98 49.5 -153t118.5 -55q61 0 109 49zM238 434q-49 0 -75.5 -28t-32.5 -93h207v26
q0 42 -28 68.5t-71 26.5zM191 638q0 27 18.5 46t45.5 19t46.5 -19t19.5 -46t-19.5 -45.5t-46.5 -18.5t-45.5 18.5t-18.5 45.5z" />
    <glyph glyph-name="Eogonek" unicode="&#x118;" horiz-adv-x="593" 
d="M217 50h261l44 121h41l-15 -176l-36 2q-55 -42 -55 -99q0 -62 45 -62q6 0 16 2v-32q-18 -5 -34 -5q-39 0 -68 20.5t-29 57.5q0 67 76 119l-67 2h-363v43l80 14v549l-80 14v43h346l126 4l11 -157h-36l-44 102h-219v-256l178 6l19 95h38v-242h-38l-19 95l-178 3v-263z" />
    <glyph glyph-name="eogonek" unicode="&#x119;" horiz-adv-x="472" 
d="M406 111l23 -28q-17 -26 -49.5 -48.5t-67.5 -35.5q-59 -41 -59 -101q0 -62 45 -62q6 0 16 2v-32q-18 -5 -34 -5q-39 0 -68 20.5t-29 57.5q0 60 61 109q-87 5 -147 78.5t-60 180.5q0 89 52 167q21 23 85 52t90 29q47 0 82 -17.5t53.5 -45.5t27 -58t8.5 -60q0 -34 -12 -34
l-83 -10h-211q1 -98 49.5 -153t118.5 -55q61 0 109 49zM238 434q-49 0 -75.5 -28t-32.5 -93h207v26q0 42 -28 68.5t-71 26.5z" />
    <glyph glyph-name="Ecaron" unicode="&#x11a;" horiz-adv-x="593" 
d="M217 50h261l44 121h41l-15 -176l-152 5h-363v43l80 14v549l-80 14v43h346l126 4l11 -157h-36l-44 102h-219v-256l178 6l19 95h38v-242h-38l-19 95l-178 3v-263zM444 858v-8l-121 -129h-48l-121 129v8h46l99 -69l99 69h46z" />
    <glyph glyph-name="ecaron" unicode="&#x11b;" horiz-adv-x="472" 
d="M406 111l23 -28q-25 -38 -79.5 -67t-93.5 -29q-91 0 -155 74.5t-64 185.5q0 89 52 167q21 23 85 52t90 29q47 0 82 -17.5t53.5 -45.5t27 -58t8.5 -60q0 -34 -12 -34l-83 -10h-211q1 -98 49.5 -153t118.5 -55q61 0 109 49zM238 434q-49 0 -75.5 -28t-32.5 -93h207v26
q0 42 -28 68.5t-71 26.5zM401 724v-8l-121 -164h-48l-121 164v8h46l99 -99l99 99h46z" />
    <glyph glyph-name="Gbreve" unicode="&#x11e;" horiz-adv-x="736" 
d="M414 41q78 0 125 41v159l-92 14v43h244v-43l-54 -14v-189q-107 -63 -238 -63q-92 0 -170.5 36.5t-129.5 112.5t-51 178q0 94 30 165.5t82 112t114 60.5t133 20q102 0 219 -39l15 -167h-45l-43 109q-60 50 -160 50t-166 -67.5t-66 -204.5q0 -87 24 -151.5t63 -98t80.5 -49
t85.5 -15.5zM409 721q-50 0 -85 33.5t-35 98.5h40q0 -30 22.5 -51.5t57.5 -21.5q32 0 56 21t24 52h40q0 -65 -35 -98.5t-85 -33.5z" />
    <glyph glyph-name="gbreve" unicode="&#x11f;" horiz-adv-x="533" 
d="M138 12v14q-38 21 -55.5 60.5t6.5 57.5l46 39v18q-35 18 -57 49.5t-22 69.5q0 75 55.5 122.5t140.5 47.5q84 0 134 -37l132 21v-76l-100 1q23 -32 23 -80q0 -64 -51.5 -104.5t-139.5 -40.5q-32 0 -43 4q-12 -4 -21.5 -18.5t-9.5 -24.5q0 -25 16.5 -42t40.5 -17h124
q72 0 108 -25t36 -96q0 -80 -73 -139t-195 -59q-96 0 -151 35.5t-55 97.5q0 88 111 122zM411 -76q0 39 -20 56t-63 17h-130q-87 -24 -87 -102q0 -43 34.5 -68.5t98.5 -25.5q83 0 125 38t42 85zM345 325q0 48 -26 84t-71 36q-39 0 -67.5 -32t-28.5 -85q0 -56 27.5 -85
t73.5 -29q43 0 67.5 28.5t24.5 82.5zM254 557q-50 0 -85 39t-35 113h40q0 -35 22.5 -61.5t57.5 -26.5q32 0 56 25.5t24 62.5h40q0 -74 -35 -113t-85 -39z" />
    <glyph glyph-name="Gdotaccent" unicode="&#x120;" horiz-adv-x="736" 
d="M414 41q78 0 125 41v159l-92 14v43h244v-43l-54 -14v-189q-107 -63 -238 -63q-92 0 -170.5 36.5t-129.5 112.5t-51 178q0 94 30 165.5t82 112t114 60.5t133 20q102 0 219 -39l15 -167h-45l-43 109q-60 50 -160 50t-166 -67.5t-66 -204.5q0 -87 24 -151.5t63 -98t80.5 -49
t85.5 -15.5zM344 792q0 27 18.5 46t45.5 19t46.5 -19t19.5 -46t-19.5 -45.5t-46.5 -18.5t-45.5 18.5t-18.5 45.5z" />
    <glyph glyph-name="gdotaccent" unicode="&#x121;" horiz-adv-x="533" 
d="M138 12v14q-38 21 -55.5 60.5t6.5 57.5l46 39v18q-35 18 -57 49.5t-22 69.5q0 75 55.5 122.5t140.5 47.5q84 0 134 -37l132 21v-76l-100 1q23 -32 23 -80q0 -64 -51.5 -104.5t-139.5 -40.5q-32 0 -43 4q-12 -4 -21.5 -18.5t-9.5 -24.5q0 -25 16.5 -42t40.5 -17h124
q72 0 108 -25t36 -96q0 -80 -73 -139t-195 -59q-96 0 -151 35.5t-55 97.5q0 88 111 122zM411 -76q0 39 -20 56t-63 17h-130q-87 -24 -87 -102q0 -43 34.5 -68.5t98.5 -25.5q83 0 125 38t42 85zM345 325q0 48 -26 84t-71 36q-39 0 -67.5 -32t-28.5 -85q0 -56 27.5 -85
t73.5 -29q43 0 67.5 28.5t24.5 82.5zM189 638q0 27 18.5 46t45.5 19t46.5 -19t19.5 -46t-19.5 -45.5t-46.5 -18.5t-45.5 18.5t-18.5 45.5z" />
    <glyph glyph-name="Gcommaaccent" unicode="&#x122;" horiz-adv-x="736" 
d="M414 41q78 0 125 41v159l-92 14v43h244v-43l-54 -14v-189q-107 -63 -238 -63q-92 0 -170.5 36.5t-129.5 112.5t-51 178q0 94 30 165.5t82 112t114 60.5t133 20q102 0 219 -39l15 -167h-45l-43 109q-60 50 -160 50t-166 -67.5t-66 -204.5q0 -87 24 -151.5t63 -98t80.5 -49
t85.5 -15.5zM386 -242l-41 13l44 91l19 84l74 -21l-38 -82z" />
    <glyph glyph-name="gcommaaccent" unicode="&#x123;" horiz-adv-x="533" 
d="M138 12v14q-38 21 -55.5 60.5t6.5 57.5l46 39v18q-35 18 -57 49.5t-22 69.5q0 75 55.5 122.5t140.5 47.5q84 0 134 -37l132 21v-76l-100 1q23 -32 23 -80q0 -64 -51.5 -104.5t-139.5 -40.5q-32 0 -43 4q-12 -4 -21.5 -18.5t-9.5 -24.5q0 -25 16.5 -42t40.5 -17h124
q72 0 108 -25t36 -96q0 -80 -73 -139t-195 -59q-96 0 -151 35.5t-55 97.5q0 88 111 122zM411 -76q0 39 -20 56t-63 17h-130q-87 -24 -87 -102q0 -43 34.5 -68.5t98.5 -25.5q83 0 125 38t42 85zM345 325q0 48 -26 84t-71 36q-39 0 -67.5 -32t-28.5 -85q0 -56 27.5 -85
t73.5 -29q43 0 67.5 28.5t24.5 82.5zM298 734l45 -14l-51 -86l-26 -91l-75 24l43 89z" />
    <glyph glyph-name="Hbar" unicode="&#x126;" horiz-adv-x="771" 
d="M49 514h64v92l-80 14v43h265v-43l-81 -14v-92h337v92l-81 14v43h265v-43l-80 -14v-92h68v-52h-68v-405l80 -14v-43h-265v43l81 14v265h-337v-265l81 -14v-43h-265v43l80 14v405h-64v52zM217 374h337v88h-337v-88z" />
    <glyph glyph-name="hbar" unicode="&#x127;" horiz-adv-x="604" 
d="M30 599h70l-2 71l-75 14v27l158 39h25l-7 -151h123v-50h-124v-133h11l61 52q29 27 90 27t102 -42t41 -119v-276l78 -21v-37h-242v37l67 19l1 246q0 60 -25 86t-73 26q-9 0 -17 -1t-16.5 -3.5t-14 -4t-15.5 -7t-13.5 -7.5t-16.5 -10t-18 -11v-312l72 -21v-37h-247v37
l80 21v449l-2 42h-71v50z" />
    <glyph glyph-name="Imacron" unicode="&#x12a;" horiz-adv-x="369" 
d="M52 663h265v-43l-81 -14v-549l81 -14v-43h-265v43l80 14v549l-80 14v43zM312 743h-254v58h254v-58z" />
    <glyph glyph-name="imacron" unicode="&#x12b;" horiz-adv-x="307" 
d="M204 495v-437l76 -21v-37h-249v37l77 21v351l-82 17v28l152 41h26zM280 563h-254v58h254v-58z" />
    <glyph glyph-name="Iogonek" unicode="&#x12e;" horiz-adv-x="369" 
d="M52 663h265v-43l-81 -14v-549l81 -14v-43h-33q-60 -42 -60 -102q0 -62 45 -62q6 0 16 2v-32q-18 -5 -34 -5q-39 0 -68 20.5t-29 57.5q0 68 79 121h-181v43l80 14v549l-80 14v43z" />
    <glyph glyph-name="iogonek" unicode="&#x12f;" horiz-adv-x="307" 
d="M204 495v-437l76 -21v-37h-33q-60 -42 -60 -102q0 -62 45 -62q6 0 16 2v-32q-18 -5 -34 -5q-39 0 -68 20.5t-29 57.5q0 68 79 121h-165v37l77 21v351l-82 17v28l152 41h26zM85 666q0 26 19.5 46t45.5 20q27 0 46.5 -20t19.5 -46t-19.5 -45.5t-46.5 -19.5
q-26 0 -45.5 19.5t-19.5 45.5z" />
    <glyph glyph-name="Idotaccent" unicode="&#x130;" horiz-adv-x="369" 
d="M52 663h265v-43l-81 -14v-549l81 -14v-43h-265v43l80 14v549l-80 14v43zM120 792q0 27 18.5 46t45.5 19t46.5 -19t19.5 -46t-19.5 -45.5t-46.5 -18.5t-45.5 18.5t-18.5 45.5z" />
    <glyph glyph-name="dotlessi" unicode="&#x131;" horiz-adv-x="307" 
d="M204 495v-437l76 -21v-37h-249v37l77 21v351l-82 17v28l152 41h26z" />
    <glyph glyph-name="Kcommaaccent" unicode="&#x136;" horiz-adv-x="691" 
d="M217 606v-233h35l220 224l-71 23v43h231v-43l-89 -31l-219 -219l274 -313l68 -14v-43h-268v43l72 14l-216 254h-37v-254l80 -14v-43h-264v43l80 14v549l-80 14v43h264v-43zM325 -242l-41 13l44 91l19 84l74 -21l-38 -82z" />
    <glyph glyph-name="kcommaaccent" unicode="&#x137;" horiz-adv-x="577" 
d="M382 422v10l-48 12v37h213v-37l-86 -30l-147 -130l200 -235l54 -11v-37l-134 -10l-212 258v13zM211 750l-5 -188v-504l76 -21v-37h-252v37l80 21v479l-5 127l-82 15v27l158 44h30zM283 -242l-41 13l44 91l19 84l74 -21l-38 -82z" />
    <glyph glyph-name="Lacute" unicode="&#x139;" horiz-adv-x="552" 
d="M510 -5l-142 5h-335v43l80 14v549l-80 14v43h268v-43l-84 -14v-556h217l50 137h41zM107 721v8l86 129h94v-10l-129 -127h-51z" />
    <glyph glyph-name="lacute" unicode="&#x13a;" horiz-adv-x="304" 
d="M211 750l-5 -188v-504l76 -21v-37h-252v37l80 21v479l-5 127l-82 15v27l158 44h30zM102 837v8l86 129h94v-10l-129 -127h-51z" />
    <glyph glyph-name="Lcommaaccent" unicode="&#x13b;" horiz-adv-x="552" 
d="M510 -5l-142 5h-335v43l80 14v549l-80 14v43h268v-43l-84 -14v-556h217l50 137h41zM267 -242l-41 13l44 91l19 84l74 -21l-38 -82z" />
    <glyph glyph-name="lcommaaccent" unicode="&#x13c;" horiz-adv-x="304" 
d="M211 750l-5 -188v-504l76 -21v-37h-252v37l80 21v479l-5 127l-82 15v27l158 44h30zM132 -242l-41 13l44 91l19 84l74 -21l-38 -82z" />
    <glyph glyph-name="Lcaron" unicode="&#x13d;" horiz-adv-x="552" 
d="M510 -5l-142 5h-335v43l80 14v549l-80 14v43h268v-43l-84 -14v-556h217l50 137h41zM432 456v8l16 199h84v-10l-59 -197h-41z" />
    <glyph glyph-name="lcaron" unicode="&#x13e;" horiz-adv-x="334" 
d="M211 750l-5 -188v-504l76 -21v-37h-252v37l80 21v479l-5 127l-82 15v27l158 44h30zM268 541v8l16 199h84v-10l-59 -197h-41z" />
    <glyph glyph-name="Ldot" unicode="&#x13f;" horiz-adv-x="552" 
d="M510 -5l-142 5h-335v43l80 14v549l-80 14v43h268v-43l-84 -14v-556h217l50 137h41zM376 346q0 27 18.5 46t45.5 19t46 -19t19 -46t-19 -45.5t-46 -18.5t-45.5 18.5t-18.5 45.5z" />
    <glyph glyph-name="ldot" unicode="&#x140;" horiz-adv-x="452" 
d="M211 750l-5 -188v-504l76 -21v-37h-252v37l80 21v479l-5 127l-82 15v27l158 44h30zM272 359q0 27 18.5 46t45.5 19t46 -19t19 -46t-19 -45.5t-46 -18.5t-45.5 18.5t-18.5 45.5z" />
    <glyph glyph-name="Lslash" unicode="&#x141;" horiz-adv-x="552" 
d="M510 -5l-142 5h-335v43l80 14v193l-60 -34l-25 45l85 49v296l-80 14v43h268v-43l-84 -14v-236l147 85l25 -45l-172 -100v-260h217l50 137h41z" />
    <glyph glyph-name="lslash" unicode="&#x142;" horiz-adv-x="304" 
d="M211 750l-5 -188v-116l56 53l31 -36l-87 -82v-323l76 -21v-37h-252v37l80 21v233l-52 -48l-31 36l83 77v181l-5 127l-82 15v27l158 44h30z" />
    <glyph glyph-name="Nacute" unicode="&#x143;" horiz-adv-x="755" 
d="M575 183h14v276l-4 147l-78 14v43h215v-43l-76 -14l-5 -152v-456h-38l-427 509h-12v-284l5 -166l86 -14v-43h-222v43l75 14l4 163v391l-79 9v43h149zM311 721v8l86 129h94v-10l-129 -127h-51z" />
    <glyph glyph-name="nacute" unicode="&#x144;" horiz-adv-x="604" 
d="M581 0h-242v37l68 19v246q0 60 -25 86t-73 26q-9 0 -17 -1t-16.5 -3.5t-14 -4t-15.5 -7t-13.5 -7.5t-16.5 -10t-18 -11v-312l72 -21v-37h-247v37l80 21v351l-80 14v27l152 39h26l-12 -84h10l71 63q27 27 85 27q64 0 106 -42t42 -119v-276h1l77 -21v-37zM241 552v8l86 164
h94v-10l-129 -162h-51z" />
    <glyph glyph-name="Ncommaaccent" unicode="&#x145;" horiz-adv-x="755" 
d="M575 183h14v276l-4 147l-78 14v43h215v-43l-76 -14l-5 -152v-456h-38l-427 509h-12v-284l5 -166l86 -14v-43h-222v43l75 14l4 163v391l-79 9v43h149zM350 -242l-41 13l44 91l19 84l74 -21l-38 -82z" />
    <glyph glyph-name="ncommaaccent" unicode="&#x146;" horiz-adv-x="604" 
d="M581 0h-242v37l68 19v246q0 60 -25 86t-73 26q-9 0 -17 -1t-16.5 -3.5t-14 -4t-15.5 -7t-13.5 -7.5t-16.5 -10t-18 -11v-312l72 -21v-37h-247v37l80 21v351l-80 14v27l152 39h26l-12 -84h10l71 63q27 27 85 27q64 0 106 -42t42 -119v-276h1l77 -21v-37zM278 -242l-41 13
l44 91l19 84l74 -21l-38 -82z" />
    <glyph glyph-name="Ncaron" unicode="&#x147;" horiz-adv-x="755" 
d="M575 183h14v276l-4 147l-78 14v43h215v-43l-76 -14l-5 -152v-456h-38l-427 509h-12v-284l5 -166l86 -14v-43h-222v43l75 14l4 163v391l-79 9v43h149zM516 858v-8l-121 -129h-48l-121 129v8h46l99 -69l99 69h46z" />
    <glyph glyph-name="ncaron" unicode="&#x148;" horiz-adv-x="604" 
d="M581 0h-242v37l68 19v246q0 60 -25 86t-73 26q-9 0 -17 -1t-16.5 -3.5t-14 -4t-15.5 -7t-13.5 -7.5t-16.5 -10t-18 -11v-312l72 -21v-37h-247v37l80 21v351l-80 14v27l152 39h26l-12 -84h10l71 63q27 27 85 27q64 0 106 -42t42 -119v-276h1l77 -21v-37zM446 724v-8
l-121 -164h-48l-121 164v8h46l99 -99l99 99h46z" />
    <glyph glyph-name="Omacron" unicode="&#x14c;" horiz-adv-x="785" 
d="M48 316q0 89 29 159.5t78.5 113t109 64t124.5 21.5q154 0 251 -87.5t97 -237.5q0 -168 -97.5 -264t-260.5 -96q-143 0 -237 87t-94 240zM157 369q0 -165 70.5 -248t175.5 -83q41 0 79.5 15t72 45t53.5 84.5t20 125.5q0 160 -76 239.5t-183 79.5q-25 0 -51 -7t-55.5 -25.5
t-52.5 -46t-38 -74t-15 -105.5zM514 743h-254v58h254v-58z" />
    <glyph glyph-name="omacron" unicode="&#x14d;" horiz-adv-x="546" 
d="M37 225q0 75 21.5 130t57 84t73 42.5t77.5 13.5q114 0 178.5 -62.5t64.5 -171.5q0 -138 -69.5 -206t-173.5 -68q-105 0 -167 63.5t-62 174.5zM135 268q0 -233 146 -233q125 0 125 185q0 70 -11.5 117t-32.5 70t-43 31.5t-52 8.5q-58 0 -95 -47t-37 -132zM394 574h-254v58
h254v-58z" />
    <glyph glyph-name="Ohungarumlaut" unicode="&#x150;" horiz-adv-x="785" 
d="M48 316q0 89 29 159.5t78.5 113t109 64t124.5 21.5q154 0 251 -87.5t97 -237.5q0 -168 -97.5 -264t-260.5 -96q-143 0 -237 87t-94 240zM157 369q0 -165 70.5 -248t175.5 -83q41 0 79.5 15t72 45t53.5 84.5t20 125.5q0 160 -76 239.5t-183 79.5q-25 0 -51 -7t-55.5 -25.5
t-52.5 -46t-38 -74t-15 -105.5zM412 731v8l86 129h94v-10l-139 -127h-41zM272 731v8l86 129h94v-10l-139 -127h-41z" />
    <glyph glyph-name="ohungarumlaut" unicode="&#x151;" horiz-adv-x="546" 
d="M37 225q0 75 21.5 130t57 84t73 42.5t77.5 13.5q114 0 178.5 -62.5t64.5 -171.5q0 -138 -69.5 -206t-173.5 -68q-105 0 -167 63.5t-62 174.5zM135 268q0 -233 146 -233q125 0 125 185q0 70 -11.5 117t-32.5 70t-43 31.5t-52 8.5q-58 0 -95 -47t-37 -132zM297 542v8
l86 164h94v-10l-139 -162h-41zM157 542v8l86 164h94v-10l-139 -162h-41z" />
    <glyph glyph-name="OE" unicode="&#x152;" horiz-adv-x="958" 
d="M582 50h261l44 121h41l-15 -176l-152 5h-282q-49 -11 -100 -11q-143 0 -237 87t-94 240q0 89 29 159.5t78.5 113t109 64t124.5 21.5q51 0 101 -11h254l126 4l11 -157h-36l-44 102h-219v-256l178 6l19 95h38v-242h-38l-19 95l-178 3v-263zM403 38q37 0 75 12v553
q-52 24 -109 24q-25 0 -51 -7t-55.5 -25.5t-52.5 -46t-38 -74t-15 -105.5q0 -165 70.5 -248t175.5 -83z" />
    <glyph glyph-name="oe" unicode="&#x153;" horiz-adv-x="853" 
d="M787 111l23 -28q-25 -38 -79.5 -67t-93.5 -29q-52 0 -97.5 26t-75.5 72q-65 -98 -198 -98q-105 0 -167 63.5t-62 174.5q0 75 21.5 130t57 84t73 42.5t77.5 13.5q136 0 200 -88q3 6 4 7q21 23 85 52t90 29q47 0 82 -17.5t53.5 -45.5t27 -58t8.5 -60q0 -34 -12 -34l-83 -10
h-211q1 -98 49.5 -153t118.5 -55q61 0 109 49zM135 268q0 -233 146 -233q125 0 125 185q0 70 -11.5 117t-32.5 70t-43 31.5t-52 8.5q-58 0 -95 -47t-37 -132zM619 434q-49 0 -75.5 -28t-32.5 -93h207v26q0 42 -28 68.5t-71 26.5z" />
    <glyph glyph-name="Racute" unicode="&#x154;" horiz-adv-x="674" 
d="M297 282h-80v-225l90 -14v-43h-274v43l80 14v549l-80 14v43h286q31 0 63.5 -7t66 -23t54.5 -48.5t21 -76.5q0 -60 -28.5 -114t-87.5 -84v-11l188 -247l64 -29l-10 -37l-153 28q-150 211 -200 268zM217 606v-273h85q55 1 83.5 31t28.5 108q0 134 -126 134h-71zM235 721v8
l86 129h94v-10l-129 -127h-51z" />
    <glyph glyph-name="racute" unicode="&#x155;" horiz-adv-x="365" 
d="M351 371h-22q-21 15 -49 15q-48 0 -95 -68v-260l96 -21v-37h-258v37l66 21v341l-66 24v27l134 34h30l-9 -101h10q55 72 74.5 89.5t50.5 17.5q6 0 38 -4v-115zM150 552v8l86 164h94v-10l-129 -162h-51z" />
    <glyph glyph-name="Rcaron" unicode="&#x158;" horiz-adv-x="674" 
d="M297 282h-80v-225l90 -14v-43h-274v43l80 14v549l-80 14v43h286q31 0 63.5 -7t66 -23t54.5 -48.5t21 -76.5q0 -60 -28.5 -114t-87.5 -84v-11l188 -247l64 -29l-10 -37l-153 28q-150 211 -200 268zM217 606v-273h85q55 1 83.5 31t28.5 108q0 134 -126 134h-71zM440 858v-8
l-121 -129h-48l-121 129v8h46l99 -69l99 69h46z" />
    <glyph glyph-name="rcaron" unicode="&#x159;" horiz-adv-x="365" 
d="M351 371h-22q-21 15 -49 15q-48 0 -95 -68v-260l96 -21v-37h-258v37l66 21v341l-66 24v27l134 34h30l-9 -101h10q55 72 74.5 89.5t50.5 17.5q6 0 38 -4v-115zM355 724v-8l-121 -164h-48l-121 164v8h46l99 -99l99 99h46z" />
    <glyph glyph-name="Sacute" unicode="&#x15a;" horiz-adv-x="543" 
d="M80 27l-13 180h54q13 -88 47.5 -124.5t94.5 -36.5q61 0 97 31t36 87q0 49 -36 77.5t-102 51.5q-39 14 -67 28t-56.5 37t-43.5 57t-15 77q0 88 62 135t145 47q70 0 169 -30l5 -165h-43q-15 76 -48 107.5t-85 31.5q-53 0 -81.5 -30.5t-28.5 -82.5q0 -42 33.5 -69.5
t92.5 -49.5q44 -16 73 -31t59.5 -38.5t45.5 -56t15 -74.5q0 -80 -58 -138.5t-160 -58.5q-56 0 -111.5 12t-80.5 26zM227 721v8l86 129h94v-10l-129 -127h-51z" />
    <glyph glyph-name="sacute" unicode="&#x15b;" horiz-adv-x="424" 
d="M57 16l-15 136h46q8 -43 29 -73q31 -24 85 -24q47 0 73.5 19t26.5 55q0 64 -106 82q-149 24 -149 140q0 20 11 44t30 37q97 63 139 63q90 0 134 -30l5 -123h-41q-7 38 -22 61q-10 14 -36 23.5t-53 9.5q-42 0 -64 -17t-22 -48q0 -63 126 -85q65 -12 98.5 -42.5t33.5 -87.5
q0 -39 -30 -77q-19 -25 -69 -58.5t-92 -33.5q-30 0 -75.5 9t-62.5 20zM166 552v8l86 164h94v-10l-129 -162h-51z" />
    <glyph glyph-name="Scedilla" unicode="&#x15e;" horiz-adv-x="543" 
d="M223 -224l-8 25q39 6 63 22.5t24 39.5q0 42 -71 42q-16 0 -30 -2l-5 7l42 80q-111 8 -158 37l-13 180h54q13 -88 47.5 -124.5t94.5 -36.5q61 0 97 31t36 87q0 49 -36 77.5t-102 51.5q-39 14 -67 28t-56.5 37t-43.5 57t-15 77q0 88 62 135t145 47q70 0 169 -30l5 -165h-43
q-15 76 -48 107.5t-85 31.5q-53 0 -81.5 -30.5t-28.5 -82.5q0 -42 33.5 -69.5t92.5 -49.5q44 -16 73 -31t59.5 -38.5t45.5 -56t15 -74.5q0 -78 -55.5 -135.5t-152.5 -61.5l-21 -39q46 0 75.5 -18t29.5 -54q0 -38 -42 -66t-101 -36z" />
    <glyph glyph-name="scedilla" unicode="&#x15f;" horiz-adv-x="424" 
d="M151 -224l-8 25q39 6 63 22.5t24 39.5q0 42 -71 42q-16 0 -30 -2l-5 7l41 79q-82 8 -108 27l-15 136h46q8 -43 29 -73q31 -24 85 -24q47 0 73.5 19t26.5 55q0 64 -106 82q-149 24 -149 140q0 20 11 44t30 37q97 63 139 63q90 0 134 -30l5 -123h-41q-7 38 -22 61
q-10 14 -36 23.5t-53 9.5q-42 0 -64 -17t-22 -48q0 -63 126 -85q65 -12 98.5 -42.5t33.5 -87.5q0 -39 -30 -77q-17 -22 -62 -53.5t-85 -37.5l-20 -38q46 0 75.5 -18t29.5 -54q0 -38 -42 -66t-101 -36z" />
    <glyph glyph-name="Scaron" unicode="&#x160;" horiz-adv-x="543" 
d="M80 27l-13 180h54q13 -88 47.5 -124.5t94.5 -36.5q61 0 97 31t36 87q0 49 -36 77.5t-102 51.5q-39 14 -67 28t-56.5 37t-43.5 57t-15 77q0 88 62 135t145 47q70 0 169 -30l5 -165h-43q-15 76 -48 107.5t-85 31.5q-53 0 -81.5 -30.5t-28.5 -82.5q0 -42 33.5 -69.5
t92.5 -49.5q44 -16 73 -31t59.5 -38.5t45.5 -56t15 -74.5q0 -80 -58 -138.5t-160 -58.5q-56 0 -111.5 12t-80.5 26zM432 858v-8l-121 -129h-48l-121 129v8h46l99 -69l99 69h46z" />
    <glyph glyph-name="scaron" unicode="&#x161;" horiz-adv-x="424" 
d="M57 16l-15 136h46q8 -43 29 -73q31 -24 85 -24q47 0 73.5 19t26.5 55q0 64 -106 82q-149 24 -149 140q0 20 11 44t30 37q97 63 139 63q90 0 134 -30l5 -123h-41q-7 38 -22 61q-10 14 -36 23.5t-53 9.5q-42 0 -64 -17t-22 -48q0 -63 126 -85q65 -12 98.5 -42.5t33.5 -87.5
q0 -39 -30 -77q-19 -25 -69 -58.5t-92 -33.5q-30 0 -75.5 9t-62.5 20zM371 724v-8l-121 -164h-48l-121 164v8h46l99 -99l99 99h46z" />
    <glyph glyph-name="Tcommaaccent" unicode="&#x162;" horiz-adv-x="666" 
d="M48 667l157 -4h246l167 4l11 -187h-47l-36 133h-162v-561l85 -14v-38h-272v38l84 14v561h-161l-36 -133h-47zM308 -242l-41 13l44 91l19 84l74 -21l-38 -82z" />
    <glyph glyph-name="Tcommaaccent" unicode="&#x21a;" horiz-adv-x="666" 
d="M48 667l157 -4h246l167 4l11 -187h-47l-36 133h-162v-561l85 -14v-38h-272v38l84 14v561h-161l-36 -133h-47zM308 -242l-41 13l44 91l19 84l74 -21l-38 -82z" />
    <glyph glyph-name="tcommaaccent" unicode="&#x163;" horiz-adv-x="357" 
d="M183 631l18 -18l-9 -153l135 5v-65h-135v-283q0 -60 52 -60q30 0 76 22l14 -33q-19 -20 -59 -39.5t-76 -19.5q-48 0 -75 34t-27 96v283h-80v34l80 30v105zM170 -242l-41 13l44 91l19 84l74 -21l-38 -82z" />
    <glyph glyph-name="tcommaaccent" unicode="&#x21b;" horiz-adv-x="357" 
d="M183 631l18 -18l-9 -153l135 5v-65h-135v-283q0 -60 52 -60q30 0 76 22l14 -33q-19 -20 -59 -39.5t-76 -19.5q-48 0 -75 34t-27 96v283h-80v34l80 30v105zM170 -242l-41 13l44 91l19 84l74 -21l-38 -82z" />
    <glyph glyph-name="Tcaron" unicode="&#x164;" horiz-adv-x="666" 
d="M48 667l157 -4h246l167 4l11 -187h-47l-36 133h-162v-561l85 -14v-38h-272v38l84 14v561h-161l-36 -133h-47zM477 858v-8l-121 -129h-48l-121 129v8h46l99 -69l99 69h46z" />
    <glyph glyph-name="tcaron" unicode="&#x165;" horiz-adv-x="357" 
d="M183 631l18 -18l-9 -153l135 5v-65h-135v-283q0 -60 52 -60q30 0 76 22l14 -33q-19 -20 -59 -39.5t-76 -19.5q-48 0 -75 34t-27 96v283h-80v34l80 30v105zM273 551v8l16 199h84v-10l-59 -197h-41z" />
    <glyph glyph-name="Umacron" unicode="&#x16a;" horiz-adv-x="736" 
d="M488 663h220v-43l-67 -14l-9 -127v-268q0 -37 -15 -74.5t-44.5 -71t-81.5 -55t-117 -21.5q-122 0 -194 62t-72 142v413l-80 14v43h265v-43l-81 -14v-395q0 -67 47.5 -111.5t133.5 -44.5q80 0 132 48.5t52 137.5v243l-7 122l-82 14v43zM525 743h-254v58h254v-58z" />
    <glyph glyph-name="umacron" unicode="&#x16b;" horiz-adv-x="597" 
d="M20 469l181 17l-6 -144v-178q0 -56 22 -78.5t69 -22.5q27 0 64 23t54 53v279l-79 11v40l180 17l-5 -141v-294l74 -16v-35h-169l6 87h-9q-36 -45 -79.5 -72.5t-71.5 -27.5q-66 0 -108.5 41t-42.5 120v270l-80 11v40zM418 574h-254v58h254v-58z" />
    <glyph glyph-name="Ubreve" unicode="&#x16c;" horiz-adv-x="736" 
d="M488 663h220v-43l-67 -14l-9 -127v-268q0 -37 -15 -74.5t-44.5 -71t-81.5 -55t-117 -21.5q-122 0 -194 62t-72 142v413l-80 14v43h265v-43l-81 -14v-395q0 -67 47.5 -111.5t133.5 -44.5q80 0 132 48.5t52 137.5v243l-7 122l-82 14v43zM398 721q-50 0 -85 33.5t-35 98.5
h40q0 -30 22.5 -51.5t57.5 -21.5q32 0 56 21t24 52h40q0 -65 -35 -98.5t-85 -33.5z" />
    <glyph glyph-name="ubreve" unicode="&#x16d;" horiz-adv-x="597" 
d="M20 469l181 17l-6 -144v-178q0 -56 22 -78.5t69 -22.5q27 0 64 23t54 53v279l-79 11v40l180 17l-5 -141v-294l74 -16v-35h-169l6 87h-9q-36 -45 -79.5 -72.5t-71.5 -27.5q-66 0 -108.5 41t-42.5 120v270l-80 11v40zM291 557q-50 0 -85 39t-35 113h40q0 -35 22.5 -61.5
t57.5 -26.5q32 0 56 25.5t24 62.5h40q0 -74 -35 -113t-85 -39z" />
    <glyph glyph-name="Uring" unicode="&#x16e;" horiz-adv-x="736" 
d="M488 663h220v-43l-67 -14l-9 -127v-268q0 -37 -15 -74.5t-44.5 -71t-81.5 -55t-117 -21.5q-122 0 -194 62t-72 142v413l-80 14v43h265v-43l-81 -14v-395q0 -67 47.5 -111.5t133.5 -44.5q80 0 132 48.5t52 137.5v243l-7 122l-82 14v43zM304 795q0 39 27.5 66.5t66.5 27.5
t66.5 -27.5t27.5 -66.5t-27.5 -66.5t-66.5 -27.5t-66.5 27.5t-27.5 66.5zM350 795q0 -22 13 -36.5t34 -14.5t34.5 14.5t13.5 36.5t-13.5 37.5t-34.5 15.5t-34 -15.5t-13 -37.5z" />
    <glyph glyph-name="uring" unicode="&#x16f;" horiz-adv-x="597" 
d="M20 469l181 17l-6 -144v-178q0 -56 22 -78.5t69 -22.5q27 0 64 23t54 53v279l-79 11v40l180 17l-5 -141v-294l74 -16v-35h-169l6 87h-9q-36 -45 -79.5 -72.5t-71.5 -27.5q-66 0 -108.5 41t-42.5 120v270l-80 11v40zM197 626q0 39 27.5 66.5t66.5 27.5t66.5 -27.5
t27.5 -66.5t-27.5 -66.5t-66.5 -27.5t-66.5 27.5t-27.5 66.5zM243 626q0 -22 13 -36.5t34 -14.5t34.5 14.5t13.5 36.5t-13.5 37.5t-34.5 15.5t-34 -15.5t-13 -37.5z" />
    <glyph glyph-name="Uhungarumlaut" unicode="&#x170;" horiz-adv-x="736" 
d="M488 663h220v-43l-67 -14l-9 -127v-268q0 -37 -15 -74.5t-44.5 -71t-81.5 -55t-117 -21.5q-122 0 -194 62t-72 142v413l-80 14v43h265v-43l-81 -14v-395q0 -67 47.5 -111.5t133.5 -44.5q80 0 132 48.5t52 137.5v243l-7 122l-82 14v43zM423 731v8l86 129h94v-10l-139 -127
h-41zM283 731v8l86 129h94v-10l-139 -127h-41z" />
    <glyph glyph-name="uhungarumlaut" unicode="&#x171;" horiz-adv-x="597" 
d="M20 469l181 17l-6 -144v-178q0 -56 22 -78.5t69 -22.5q27 0 64 23t54 53v279l-79 11v40l180 17l-5 -141v-294l74 -16v-35h-169l6 87h-9q-36 -45 -79.5 -72.5t-71.5 -27.5q-66 0 -108.5 41t-42.5 120v270l-80 11v40zM321 542v8l86 164h94v-10l-139 -162h-41zM181 542v8
l86 164h94v-10l-139 -162h-41z" />
    <glyph glyph-name="Uogonek" unicode="&#x172;" horiz-adv-x="736" 
d="M488 663h220v-43l-67 -14l-9 -127v-268q0 -55 -32.5 -109.5t-94.5 -84.5q-51 -39 -51 -95q0 -62 45 -62q6 0 16 2v-32q-18 -5 -34 -5q-39 0 -68 20.5t-29 57.5q0 49 41 90q-21 -4 -51 -4q-122 0 -194 62t-72 142v413l-80 14v43h265v-43l-81 -14v-395q0 -67 47.5 -111.5
t133.5 -44.5q80 0 132 48.5t52 137.5v243l-7 122l-82 14v43z" />
    <glyph glyph-name="uogonek" unicode="&#x173;" horiz-adv-x="597" 
d="M20 469l181 17l-6 -144v-178q0 -56 22 -78.5t69 -22.5q27 0 64 23t54 53v279l-79 11v40l180 17l-5 -141v-294l74 -16v-35h-122q-60 -42 -60 -102q0 -62 45 -62q6 0 16 2v-32q-18 -5 -34 -5q-39 0 -68 20.5t-29 57.5q0 70 83 123l6 85h-9q-36 -45 -79.5 -72.5t-71.5 -27.5
q-66 0 -108.5 41t-42.5 120v270l-80 11v40z" />
    <glyph glyph-name="Wcircumflex" unicode="&#x174;" horiz-adv-x="970" 
d="M496 530h-3l-149 -530h-67l-186 606l-72 14v43h253v-43l-73 -14l131 -446h7l141 508h72l160 -508h5l124 441l-104 23v39h216v-39l-48 -27l-28 -75l-154 -522h-63zM662 729v-8h-46l-99 69l-99 -69h-46v8l121 129h48z" />
    <glyph glyph-name="wcircumflex" unicode="&#x175;" horiz-adv-x="777" 
d="M374 481h70l108 -350h11l92 292l-73 21v37h189v-37l-51 -20l-158 -437h-57l-119 365l-124 -365h-57l-137 436l-62 21v37h238v-37l-72 -21l81 -292h11zM550 560v-8h-46l-99 99l-99 -99h-46v8l121 164h48z" />
    <glyph glyph-name="Ycircumflex" unicode="&#x176;" horiz-adv-x="647" 
d="M363 354l141 247l-97 23v39h216v-39l-58 -27l-173 -306v-234l80 -14v-43h-265v43l81 14v233l-192 316l-72 14v43h248v-43l-73 -14l151 -252h13zM494 729v-8h-46l-99 69l-99 -69h-46v8l121 129h48z" />
    <glyph glyph-name="ycircumflex" unicode="&#x177;" horiz-adv-x="533" 
d="M6 481h233v-37l-66 -16l125 -329h11l114 329l-70 16v37h174v-37l-42 -16l-190 -511q-25 -65 -67.5 -112.5t-99.5 -47.5q-35 0 -45 15l-44 61l19 16q22 -8 60 -8q57 0 96.5 43t59.5 119h-33l-175 425l-60 16v37zM439 560v-8h-46l-99 99l-99 -99h-46v8l121 164h48z" />
    <glyph glyph-name="Ydieresis" unicode="&#x178;" horiz-adv-x="647" 
d="M363 354l141 247l-97 23v39h216v-39l-58 -27l-173 -306v-234l80 -14v-43h-265v43l81 14v233l-192 316l-72 14v43h248v-43l-73 -14l151 -252h13zM487 792q0 -20 -16 -35.5t-36 -15.5q-21 0 -37 15.5t-16 35.5q0 21 16 37t37 16q20 0 36 -16t16 -37zM316 792
q0 -20 -15 -35.5t-37 -15.5q-21 0 -37 15.5t-16 35.5q0 21 16 37t37 16t36.5 -16t15.5 -37z" />
    <glyph glyph-name="Zacute" unicode="&#x179;" horiz-adv-x="633" 
d="M575 -5l-255 5h-272l-17 34l418 529l-6 14h-305l-39 -99h-38l11 189l154 -4h351l15 -21l-430 -544l5 -12h350l41 103h37zM250 721v8l86 129h94v-10l-129 -127h-51z" />
    <glyph glyph-name="zacute" unicode="&#x17a;" horiz-adv-x="485" 
d="M432 0h-381l-12 37l285 351l-5 11h-199l-27 -76h-37l17 158h361l11 -31l-286 -356l4 -10h218l31 86h31zM194 552v8l86 164h94v-10l-129 -162h-51z" />
    <glyph glyph-name="Zdotaccent" unicode="&#x17b;" horiz-adv-x="633" 
d="M575 -5l-255 5h-272l-17 34l418 529l-6 14h-305l-39 -99h-38l11 189l154 -4h351l15 -21l-430 -544l5 -12h350l41 103h37zM245 792q0 27 18.5 46t45.5 19t46.5 -19t19.5 -46t-19.5 -45.5t-46.5 -18.5t-45.5 18.5t-18.5 45.5z" />
    <glyph glyph-name="zdotaccent" unicode="&#x17c;" horiz-adv-x="485" 
d="M432 0h-381l-12 37l285 351l-5 11h-199l-27 -76h-37l17 158h361l11 -31l-286 -356l4 -10h218l31 86h31zM189 638q0 27 18.5 46t45.5 19t46.5 -19t19.5 -46t-19.5 -45.5t-46.5 -18.5t-45.5 18.5t-18.5 45.5z" />
    <glyph glyph-name="Zcaron" unicode="&#x17d;" horiz-adv-x="633" 
d="M575 -5l-255 5h-272l-17 34l418 529l-6 14h-305l-39 -99h-38l11 189l154 -4h351l15 -21l-430 -544l5 -12h350l41 103h37zM455 858v-8l-121 -129h-48l-121 129v8h46l99 -69l99 69h46z" />
    <glyph glyph-name="zcaron" unicode="&#x17e;" horiz-adv-x="485" 
d="M432 0h-381l-12 37l285 351l-5 11h-199l-27 -76h-37l17 158h361l11 -31l-286 -356l4 -10h218l31 86h31zM399 724v-8l-121 -164h-48l-121 164v8h46l99 -99l99 99h46z" />
    <glyph glyph-name="florin" unicode="&#x192;" horiz-adv-x="540" 
d="M94 309l14 49h94l25 100q17 70 68 125t125 55q55 0 90 -21.5t35 -51.5q0 -20 -11 -33.5t-34 -13.5q-17 0 -28.5 11t-16.5 25t-17.5 25t-31.5 11q-31 0 -50.5 -34t-39.5 -105l-26 -93h120l-14 -49h-117l-88 -327q-23 -85 -65.5 -137t-99.5 -52q-41 0 -69.5 19.5
t-28.5 49.5q0 19 10 32t27 13q14 0 25 -10.5t17 -23.5t15.5 -23.5t20.5 -10.5q32 0 64 130l86 340h-99z" />
    <glyph glyph-name="Scommaaccent" unicode="&#x218;" horiz-adv-x="543" 
d="M80 27l-13 180h54q13 -88 47.5 -124.5t94.5 -36.5q61 0 97 31t36 87q0 49 -36 77.5t-102 51.5q-39 14 -67 28t-56.5 37t-43.5 57t-15 77q0 88 62 135t145 47q70 0 169 -30l5 -165h-43q-15 76 -48 107.5t-85 31.5q-53 0 -81.5 -30.5t-28.5 -82.5q0 -42 33.5 -69.5
t92.5 -49.5q44 -16 73 -31t59.5 -38.5t45.5 -56t15 -74.5q0 -80 -58 -138.5t-160 -58.5q-56 0 -111.5 12t-80.5 26zM243 -242l-41 13l44 91l19 84l74 -21l-38 -82z" />
    <glyph glyph-name="scommaaccent" unicode="&#x219;" horiz-adv-x="424" 
d="M57 16l-15 136h46q8 -43 29 -73q31 -24 85 -24q47 0 73.5 19t26.5 55q0 64 -106 82q-149 24 -149 140q0 20 11 44t30 37q97 63 139 63q90 0 134 -30l5 -123h-41q-7 38 -22 61q-10 14 -36 23.5t-53 9.5q-42 0 -64 -17t-22 -48q0 -63 126 -85q65 -12 98.5 -42.5t33.5 -87.5
q0 -39 -30 -77q-19 -25 -69 -58.5t-92 -33.5q-30 0 -75.5 9t-62.5 20zM171 -242l-41 13l44 91l19 84l74 -21l-38 -82z" />
    <glyph glyph-name="schwa" unicode="&#x259;" horiz-adv-x="472" 
d="M66 371l-23 28q25 38 79.5 67t93.5 29q91 0 155 -74.5t64 -185.5q0 -89 -52 -167q-21 -23 -85 -52t-90 -29q-47 0 -82 17.5t-53.5 45.5t-27 58t-8.5 60q0 34 12 34l83 10h211q-1 98 -49.5 153t-118.5 55q-61 0 -109 -49zM234 48q49 0 75.5 28t31.5 93h-206v-26
q0 -42 28 -68.5t71 -26.5z" />
    <glyph glyph-name="quoteleft" unicode="&#x2bb;" horiz-adv-x="381" 
d="M254 724l48 -29l-83 -157l-20 -135l-104 42l56 132z" />
    <glyph glyph-name="quoteleft" unicode="&#x2018;" horiz-adv-x="381" 
d="M254 724l48 -29l-83 -157l-20 -135l-104 42l56 132z" />
    <glyph glyph-name="circumflex" unicode="&#x2c6;" horiz-adv-x="500" 
d="M395 506v-8h-46l-99 99l-99 -99h-46v8l121 164h48z" />
    <glyph glyph-name="caron" unicode="&#x2c7;" horiz-adv-x="500" 
d="M395 670v-8l-121 -164h-48l-121 164v8h46l99 -99l99 99h46z" />
    <glyph glyph-name="breve" unicode="&#x2d8;" horiz-adv-x="500" 
d="M250 503q-50 0 -85 39t-35 113h40q0 -35 22.5 -61.5t57.5 -26.5q32 0 56 25.5t24 62.5h40q0 -74 -35 -113t-85 -39z" />
    <glyph glyph-name="dotaccent" unicode="&#x2d9;" horiz-adv-x="500" 
d="M185 584q0 27 18.5 46t45.5 19t46.5 -19t19.5 -46t-19.5 -45.5t-46.5 -18.5t-45.5 18.5t-18.5 45.5z" />
    <glyph glyph-name="ring" unicode="&#x2da;" horiz-adv-x="500" 
d="M156 572q0 39 27.5 66.5t66.5 27.5t66.5 -27.5t27.5 -66.5t-27.5 -66.5t-66.5 -27.5t-66.5 27.5t-27.5 66.5zM202 572q0 -22 13 -36.5t34 -14.5t34.5 14.5t13.5 36.5t-13.5 37.5t-34.5 15.5t-34 -15.5t-13 -37.5z" />
    <glyph glyph-name="ogonek" unicode="&#x2db;" horiz-adv-x="500" 
d="M291 24v-6q-90 -49 -90 -120q0 -62 45 -62q6 0 16 2v-32q-18 -5 -34 -5q-39 0 -68 20.5t-29 57.5q0 91 141 155z" />
    <glyph glyph-name="tilde" unicode="&#x2dc;" horiz-adv-x="500" 
d="M383 638l26 -10q-14 -49 -43 -87t-55 -38q-15 0 -63.5 30t-63.5 30q-16 0 -27.5 -16t-25.5 -47l-29 12q11 40 41 81.5t48 41.5q19 0 65 -30.5t64 -30.5q17 0 36 21t27 43z" />
    <glyph glyph-name="hungarumlaut" unicode="&#x2dd;" horiz-adv-x="500" 
d="M280 488v8l86 164h94v-10l-139 -162h-41zM140 488v8l86 164h94v-10l-139 -162h-41z" />
    <glyph glyph-name="Delta" unicode="&#x394;" horiz-adv-x="540" 
d="M530 0h-520l223 631h45zM237 494l-150 -439h320z" />
    <glyph glyph-name="Delta" unicode="&#x2206;" horiz-adv-x="540" 
d="M530 0h-520l223 631h45zM237 494l-150 -439h320z" />
    <glyph glyph-name="Omega" unicode="&#x3a9;" horiz-adv-x="540" 
d="M269 588q-72 0 -110 -69.5t-38 -155.5q0 -133 38 -228t91 -112l-6 -23h-223l-20 146h29l43 -94h54l6 10q-43 49 -72 128t-29 162q0 114 66.5 200t171.5 86t171.5 -86t66.5 -200q0 -83 -29 -162t-72 -128l6 -10h54l43 94h29l-20 -146h-223l-6 23q53 17 91 112t38 228
q0 53 -15 102.5t-50.5 86t-84.5 36.5z" />
    <glyph glyph-name="Omega" unicode="&#x2126;" horiz-adv-x="540" 
d="M269 588q-72 0 -110 -69.5t-38 -155.5q0 -133 38 -228t91 -112l-6 -23h-223l-20 146h29l43 -94h54l6 10q-43 49 -72 128t-29 162q0 114 66.5 200t171.5 86t171.5 -86t66.5 -200q0 -83 -29 -162t-72 -128l6 -10h54l43 94h29l-20 -146h-223l-6 23q53 17 91 112t38 228
q0 53 -15 102.5t-50.5 86t-84.5 36.5z" />
    <glyph glyph-name="lambda" unicode="&#x3bb;" horiz-adv-x="524" 
d="M256 608l115 -454q16 -65 24 -83.5t23 -18.5q12 0 27 27t32 27q16 0 25 -12t9 -30q0 -32 -25 -52.5t-60 -20.5q-77 0 -100 111l-55 224l-150 -326h-101l217 467l-33 135q-18 79 -58 79q-16 0 -41 -32.5t-43 -32.5q-36 0 -36 39q0 31 31 55t80 24q48 0 78 -35.5t41 -90.5z
" />
    <glyph glyph-name="pi" unicode="&#x3c0;" horiz-adv-x="540" 
d="M167 22q-26 -43 -65 -32q-28 8 -33 34q-5 24 19 43q56 57 80 127t24 183h-31q-35 0 -53 -13t-27 -48l-27 5q15 64 37.5 91t62.5 27h332v-62h-101l-21 -254q-4 -51 32 -51q42 0 65 62l25 -3q-36 -138 -112 -138q-43 0 -63 29t-15 79l27 276h-84q-5 -239 -72 -355z" />
    <glyph glyph-name="Wgrave" unicode="&#x1e80;" horiz-adv-x="970" 
d="M496 530h-3l-149 -530h-67l-186 606l-72 14v43h253v-43l-73 -14l131 -446h7l141 508h72l160 -508h5l124 441l-104 23v39h216v-39l-48 -27l-28 -75l-154 -522h-63zM577 729v-8h-51l-129 127v10h94z" />
    <glyph glyph-name="wgrave" unicode="&#x1e81;" horiz-adv-x="777" 
d="M374 481h70l108 -350h11l92 292l-73 21v37h189v-37l-51 -20l-158 -437h-57l-119 365l-124 -365h-57l-137 436l-62 21v37h238v-37l-72 -21l81 -292h11zM465 560v-8h-51l-129 162v10h94z" />
    <glyph glyph-name="Wacute" unicode="&#x1e82;" horiz-adv-x="970" 
d="M496 530h-3l-149 -530h-67l-186 606l-72 14v43h253v-43l-73 -14l131 -446h7l141 508h72l160 -508h5l124 441l-104 23v39h216v-39l-48 -27l-28 -75l-154 -522h-63zM457 721v8l86 129h94v-10l-129 -127h-51z" />
    <glyph glyph-name="wacute" unicode="&#x1e83;" horiz-adv-x="777" 
d="M374 481h70l108 -350h11l92 292l-73 21v37h189v-37l-51 -20l-158 -437h-57l-119 365l-124 -365h-57l-137 436l-62 21v37h238v-37l-72 -21l81 -292h11zM345 552v8l86 164h94v-10l-129 -162h-51z" />
    <glyph glyph-name="Wdieresis" unicode="&#x1e84;" horiz-adv-x="970" 
d="M496 530h-3l-149 -530h-67l-186 606l-72 14v43h253v-43l-73 -14l131 -446h7l141 508h72l160 -508h5l124 441l-104 23v39h216v-39l-48 -27l-28 -75l-154 -522h-63zM655 792q0 -20 -16 -35.5t-36 -15.5q-21 0 -37 15.5t-16 35.5q0 21 16 37t37 16q20 0 36 -16t16 -37z
M484 792q0 -20 -15 -35.5t-37 -15.5q-21 0 -37 15.5t-16 35.5q0 21 16 37t37 16t36.5 -16t15.5 -37z" />
    <glyph glyph-name="wdieresis" unicode="&#x1e85;" horiz-adv-x="777" 
d="M374 481h70l108 -350h11l92 292l-73 21v37h189v-37l-51 -20l-158 -437h-57l-119 365l-124 -365h-57l-137 436l-62 21v37h238v-37l-72 -21l81 -292h11zM543 623q0 -20 -16 -35.5t-36 -15.5q-21 0 -37 15.5t-16 35.5q0 21 16 37t37 16q20 0 36 -16t16 -37zM372 623
q0 -21 -15 -36t-37 -15q-21 0 -37 15.5t-16 35.5q0 21 16 37t37 16t36.5 -16t15.5 -37z" />
    <glyph glyph-name="uni1e9e" unicode="&#x1e9e;" horiz-adv-x="735" 
d="M503 -12q-87 0 -155 35l-11 153h48q24 -140 117 -140q50 0 79.5 39.5t29.5 117.5q0 62 -32.5 104.5t-92.5 41.5q-49 0 -96 -29l-54 55l193 237l-5 12h-307v-558l81 -16v-40h-265v40l80 18v545l-80 21v39h615l10 -41l-184 -221l7 -11q101 19 166.5 -35t65.5 -154
t-65 -156.5t-145 -56.5z" />
    <glyph glyph-name="Ygrave" unicode="&#x1ef2;" horiz-adv-x="647" 
d="M363 354l141 247l-97 23v39h216v-39l-58 -27l-173 -306v-234l80 -14v-43h-265v43l81 14v233l-192 316l-72 14v43h248v-43l-73 -14l151 -252h13zM409 729v-8h-51l-129 127v10h94z" />
    <glyph glyph-name="ygrave" unicode="&#x1ef3;" horiz-adv-x="533" 
d="M6 481h233v-37l-66 -16l125 -329h11l114 329l-70 16v37h174v-37l-42 -16l-190 -511q-25 -65 -67.5 -112.5t-99.5 -47.5q-35 0 -45 15l-44 61l19 16q22 -8 60 -8q57 0 96.5 43t59.5 119h-33l-175 425l-60 16v37zM354 560v-8h-51l-129 162v10h94z" />
    <glyph glyph-name="uni2011" unicode="&#x2011;" horiz-adv-x="335" 
d="M50 303l64 -3h109l77 3l-15 -83l-61 3h-126l-63 -3z" />
    <glyph glyph-name="endash" unicode="&#x2013;" horiz-adv-x="484" 
d="M42 298h400v-73h-400v73z" />
    <glyph glyph-name="emdash" unicode="&#x2014;" horiz-adv-x="1000" 
d="M92 293h816v-63h-816v63z" />
    <glyph glyph-name="quoteright" unicode="&#x2019;" horiz-adv-x="381" 
d="M127 403l-48 29l83 157l20 135l104 -42l-56 -132z" />
    <glyph glyph-name="quotesinglbase" unicode="&#x201a;" horiz-adv-x="381" 
d="M127 -192l-48 29l83 157l20 135l104 -42l-56 -132z" />
    <glyph glyph-name="quotedblleft" unicode="&#x201c;" horiz-adv-x="581" 
d="M254 724l48 -29l-83 -157l-20 -135l-104 42l56 132zM454 724l48 -29l-83 -157l-20 -135l-104 42l56 132z" />
    <glyph glyph-name="quotedblright" unicode="&#x201d;" horiz-adv-x="581" 
d="M327 403l-48 29l83 157l20 135l104 -42l-56 -132zM127 403l-48 29l83 157l20 135l104 -42l-56 -132z" />
    <glyph glyph-name="quotedblbase" unicode="&#x201e;" horiz-adv-x="581" 
d="M327 -192l-48 29l83 157l20 135l104 -42l-56 -132zM127 -192l-48 29l83 157l20 135l104 -42l-56 -132z" />
    <glyph glyph-name="dagger" unicode="&#x2020;" horiz-adv-x="548" 
d="M322 713l-8 -210l168 26v-100l-171 15l-18 -481h-39l-20 481l-168 -17v99l165 -23l-8 210h99z" />
    <glyph glyph-name="daggerdbl" unicode="&#x2021;" horiz-adv-x="548" 
d="M322 713l-8 -210l168 26v-100l-171 15l-6 -172l177 27v-100l-179 16l-10 -252h-39l-11 252l-177 -18v99l175 -25l-7 173l-168 -17v99l165 -23l-8 210h99z" />
    <glyph glyph-name="bullet" unicode="&#x2022;" horiz-adv-x="572" 
d="M150 264q0 56 40 96t96 40t96 -40t40 -96t-40 -96t-96 -40t-96 40t-40 96z" />
    <glyph glyph-name="ellipsis" unicode="&#x2026;" horiz-adv-x="993" 
d="M122 57q0 27 18.5 46t45.5 19t46 -19t19 -46t-19 -45.5t-46 -18.5t-45.5 18.5t-18.5 45.5zM432 57q0 27 18.5 46t45.5 19t46 -19t19 -46t-19 -45.5t-46 -18.5t-45.5 18.5t-18.5 45.5zM742 57q0 27 18.5 46t45.5 19t46 -19t19 -46t-19 -45.5t-46 -18.5t-45.5 18.5
t-18.5 45.5z" />
    <glyph glyph-name="perthousand" unicode="&#x2030;" horiz-adv-x="828" 
d="M536 115q0 74 47 129t101 55q46 0 75 -32t29 -86q0 -86 -44 -139.5t-98 -53.5q-49 0 -79.5 36t-30.5 91zM701 254q-33 0 -62 -52.5t-29 -113.5q0 -28 11.5 -43.5t29.5 -15.5q34 0 62 41.5t28 120.5q0 30 -11.5 46.5t-28.5 16.5zM295 517l-3 -1q-1 -82 -44 -135.5
t-100 -53.5q-48 0 -78 36t-30 91q0 74 47 129t101 55q34 0 59.5 -18.5t36.5 -51.5q6 -15 25 -24.5t42 -9.5q48 0 84 31q24 67 55 67q24 0 24 -23q0 -30 -44 -61l-210 -286l-197 -282l-33 26l205 275l159 227l-2 2q-21 -12 -48 -12q-30 0 -49 19zM264 115q0 74 47 129t101 55
q46 0 75 -32t29 -86q0 -86 -44 -139.5t-98 -53.5q-49 0 -79.5 36t-30.5 91zM429 254q-33 0 -62 -52.5t-29 -113.5q0 -28 11.5 -43.5t29.5 -15.5q34 0 62 41.5t28 120.5q0 30 -11.5 46.5t-28.5 16.5zM205 593q-33 0 -62 -52.5t-29 -113.5q0 -59 43 -59q33 0 60.5 42.5
t27.5 119.5q0 30 -11.5 46.5t-28.5 16.5z" />
    <glyph glyph-name="uni2032" unicode="&#x2032;" horiz-adv-x="290" 
d="M63 376l70 266l96 -34l-114 -250z" />
    <glyph glyph-name="uni2033" unicode="&#x2033;" horiz-adv-x="480" 
d="M63 376l70 266l96 -34l-114 -250zM253 376l70 266l96 -34l-114 -250z" />
    <glyph glyph-name="guilsinglleft" unicode="&#x2039;" horiz-adv-x="445" 
d="M100 240l192 204l38 -30l-128 -176v-15l128 -178l-38 -34l-192 206v23z" />
    <glyph glyph-name="guilsinglright" unicode="&#x203a;" horiz-adv-x="445" 
d="M153 444l192 -204v-23l-192 -206l-38 34l128 178v15l-128 176z" />
    <glyph glyph-name="uni2042" unicode="&#x2042;" horiz-adv-x="896" 
d="M582 483l-128 41l51 -118q17 -40 -16 -58q-28 -15 -51 1q-15 11 -13 31l-8 139l-116 -84q-27 -18 -47 7q-20 24 -4 48q10 15 32 21l119 40l-110 90q-26 20 -9 46q15 23 41 18q17 -3 28 -20l77 -112l52 117q10 34 44 29q30 -5 39 -29q7 -20 -8 -39l-95 -94l122 2
q38 1 45 -29q7 -27 -14 -42q-13 -10 -31 -5zM379 103l-128 41l51 -118q17 -40 -16 -58q-28 -15 -51 1q-15 11 -13 31l-8 139l-116 -84q-27 -18 -47 7q-20 24 -4 48q10 15 32 21l119 40l-110 90q-26 20 -9 46q15 23 41 18q17 -3 28 -20l77 -112l52 117q10 34 44 29
q30 -5 39 -29q7 -20 -8 -39l-95 -94l122 2q38 1 45 -29q7 -27 -14 -42q-13 -10 -31 -5zM809 103l-128 41l51 -118q17 -40 -16 -58q-28 -15 -51 1q-15 11 -13 31l-8 139l-116 -84q-27 -18 -47 7q-20 24 -4 48q10 15 32 21l119 40l-110 90q-26 20 -9 46q15 23 41 18
q17 -4 28 -20l77 -112l52 117q10 34 44 29q30 -5 39 -29q7 -20 -8 -39l-95 -94l122 2q38 1 45 -29q7 -27 -14 -42q-13 -10 -31 -5z" />
    <glyph glyph-name="fraction" unicode="&#x2044;" 
d="M109 -34l241 370l223 353l40 -26l-234 -349l-231 -375z" />
    <glyph glyph-name="zero.sups" unicode="&#x2070;" horiz-adv-x="333" 
d="M24 580q0 92 41 139.5t106 47.5q62 0 100.5 -48t38.5 -139q0 -84 -38.5 -128t-100.5 -44q-65 0 -106 43.5t-41 128.5zM98 580q0 -74 20.5 -108t52.5 -34q65 0 65 142q0 80 -18 119t-47 39q-31 0 -52 -40.5t-21 -117.5z" />
    <glyph glyph-name="four.sups" unicode="&#x2074;" horiz-adv-x="322" 
d="M172 450v73h-148l-10 23q31 57 85 120.5t107 106.5l34 -12l-3 -81v-123h63v-33h-63v-73q10 -1 30.5 -4.5t28.5 -4.5v-27h-177v27zM74 557h98v132q-57 -53 -100 -130z" />
    <glyph glyph-name="five.sups" unicode="&#x2075;" horiz-adv-x="285" 
d="M118 408q-40 0 -76 17l-18 9l-12 74h39q17 -41 28 -53l-2 1q24 -16 37 -16q33 0 57 23.5t24 73.5q0 26 -12.5 41t-33.5 15q-39 0 -77 -29l-32 9l21 188h105l81 6l-8 -64l-62 3h-77q-2 -16 -8 -46t-7 -45q36 17 69 17q45 0 78 -24.5t33 -67.5q0 -48 -31 -76
q-62 -56 -116 -56z" />
    <glyph glyph-name="six.sups" unicode="&#x2076;" horiz-adv-x="304" 
d="M263 754q-69 -31 -104.5 -63.5t-54.5 -83.5q42 24 76 24q39 0 71.5 -26t32.5 -75t-26 -71v1q-56 -52 -108 -52q-57 0 -92.5 33.5t-35.5 94.5q0 48 22 96t58 79q55 42 154 72zM158 594q-40 0 -67 -32l2 1q-1 -7 -1 -19q0 -46 19.5 -74t49.5 -28q25 0 39 19.5t14 52.5
q0 39 -17 59.5t-39 20.5z" />
    <glyph glyph-name="seven.sups" unicode="&#x2077;" horiz-adv-x="268" 
d="M260 761l16 -19q-57 -78 -87 -149.5t-39 -164.5q-2 -17 -46 -17q-20 0 -30.5 4.5t-7.5 14.5q31 98 63.5 156t79.5 118l-5 7h-124q-8 0 -19 -49q0 -1 -1 -4.5t-1 -4.5h-44l21 110l72 -2h152z" />
    <glyph glyph-name="eight.sups" unicode="&#x2078;" horiz-adv-x="303" 
d="M22 506q0 35 66 82l-1 4q-49 31 -49 83q0 39 33.5 65.5t79.5 26.5q51 0 82.5 -22t31.5 -58q0 -40 -55 -80l3 2v-5q68 -32 68 -89q0 -41 -36 -74t-94 -33q-53 0 -91 27t-38 71zM82 505q0 -30 18.5 -48t52.5 -18q31 0 49 17t18 46q0 28 -24.5 44t-75.5 30q-38 -30 -38 -71z
M95 689q0 -26 19 -41.5t65 -30.5q25 32 25 71q0 23 -14.5 36.5t-38.5 13.5q-26 0 -41 -14.5t-15 -34.5z" />
    <glyph glyph-name="nine.sups" unicode="&#x2079;" horiz-adv-x="304" 
d="M41 423q73 33 105.5 62t51.5 84q-40 -24 -74 -24q-39 0 -72 26t-33 74q0 50 27 72v-1q53 51 109 51t91 -33t35 -94q0 -50 -20.5 -97t-59.5 -78q-55 -42 -153 -71zM146 582q35 0 66 33l-2 -1q0 2 0.5 5.5t0.5 4.5v9q0 46 -19.5 73.5t-48.5 27.5q-26 0 -40 -19t-14 -52
q0 -39 17 -60t40 -21z" />
    <glyph glyph-name="Euro" unicode="&#x20ac;" horiz-adv-x="652" 
d="M70 389h58q20 114 92.5 181.5t169.5 67.5q106 0 192 -63l-30 -126h-29q1 40 -11.5 70t-34.5 45t-44 22t-43 7q-60 0 -103 -51.5t-55 -152.5h300l-10 -41h-293q-1 -12 -1 -35v-14h284l-10 -41h-272q11 -106 56.5 -163.5t101.5 -57.5q114 0 155 125l39 -13
q-52 -161 -204 -161q-99 0 -169.5 71.5t-83.5 198.5h-65l10 41h52v13q0 24 1 36h-63z" />
    <glyph glyph-name="uni2117" unicode="&#x2117;" horiz-adv-x="703" 
d="M358 261v26q28 0 44.5 21t16.5 58q0 61 -55 61h-28v-264l47 -7v-28h-154v28l39 7v264l-39 7v29h145q64 0 90 -23.5t26 -68.5q0 -48 -38.5 -79t-93.5 -31zM44 296q0 126 90.5 216.5t217.5 90.5q131 0 219 -89.5t88 -217.5q0 -127 -90.5 -217.5t-216.5 -90.5
q-129 0 -218.5 87t-89.5 221zM103 294q0 -110 70 -183t180 -73t178.5 72.5t68.5 183.5q0 114 -70.5 187.5t-177.5 73.5q-109 0 -179 -74.5t-70 -186.5z" />
    <glyph glyph-name="trademark" unicode="&#x2122;" horiz-adv-x="670" 
d="M535 634h-7l-78 -179h-17l-74 179h-5l-15 -150l33 -6v-23h-92v23l33 6l19 193l-38 6v23h94l62 -165h7l71 165h92v-23l-35 -6l12 -193l31 -6v-23h-118v23l34 6zM55 706h210l14 -74h-20l-32 47h-38v-195l32 -6v-23h-121v23l32 6v195h-37l-32 -47h-21z" />
    <glyph glyph-name="oneseventh" unicode="&#x2150;" 
d="M109 -34l241 370l223 353l40 -26l-234 -349l-231 -375zM66 609l-10 33q87 27 115 50l38 -4v-310q12 -1 39 -4.5t39 -4.5v-27h-225v27l76 9v253q-8 -3 -12 -4q-22 -9 -60 -18zM687 327l16 -19q-57 -78 -87 -149.5t-39 -164.5q-2 -17 -46 -17q-20 0 -30.5 4.5t-7.5 14.5
q31 98 63.5 156t79.5 118l-5 7h-124q-8 0 -19 -49q0 -1 -1 -4.5t-1 -4.5h-44l21 110l72 -2h152z" />
    <glyph glyph-name="oneninth" unicode="&#x2151;" 
d="M109 -34l241 370l223 353l40 -26l-234 -349l-231 -375zM66 609l-10 33q87 27 115 50l38 -4v-310q12 -1 39 -4.5t39 -4.5v-27h-225v27l76 9v253q-8 -3 -12 -4q-22 -9 -60 -18zM468 -11q73 33 105.5 62t51.5 84q-40 -24 -74 -24q-39 0 -72 26t-33 74q0 50 27 72v-1
q53 51 109 51t91 -33t35 -94q0 -50 -20.5 -97t-59.5 -78q-55 -42 -153 -71zM573 148q35 0 66 33l-2 -1q0 2 0.5 5.5t0.5 4.5v9q0 46 -19.5 73.5t-48.5 27.5q-26 0 -40 -19t-14 -52q0 -39 17 -60t40 -21z" />
    <glyph glyph-name="onethird" unicode="&#x2153;" 
d="M109 -34l241 370l223 353l40 -26l-234 -349l-231 -375zM66 609l-10 33q87 27 115 50l38 -4v-310q12 -1 39 -4.5t39 -4.5v-27h-225v27l76 9v253q-8 -3 -12 -4q-22 -9 -60 -18zM569 5q20 0 36 16.5t16 46.5q0 34 -24.5 54.5t-45.5 17.5l-47 -6l-9 31q45 7 79.5 29.5
t34.5 48.5q0 48 -50 48q-30 0 -47 -15h2q-12 -17 -12 -41h-43l14 66q18 13 49 22.5t49 9.5q50 0 79.5 -20t29.5 -51q0 -44 -70 -86v-5q35 -9 59.5 -34.5t24.5 -56.5q0 -45 -40.5 -75.5t-92.5 -30.5q-60 0 -105 26l-20 77h39q18 -40 38 -58l-1 1q30 -15 57 -15z" />
    <glyph glyph-name="twothirds" unicode="&#x2154;" 
d="M109 -34l241 370l223 353l40 -26l-234 -349l-231 -375zM132 649q-31 0 -49 -20h1q-12 -19 -12 -46h-46l15 73q17 16 48.5 27t48.5 11q53 0 87.5 -28.5t34.5 -74.5q0 -35 -50 -91t-120 -110v-2.5t1 -2.5l90 6t88 5v-57l-247 3l-7 27q94 83 132.5 130.5t38.5 85.5
q0 28 -16.5 46t-37.5 18zM569 5q20 0 36 16.5t16 46.5q0 34 -24.5 54.5t-45.5 17.5l-47 -6l-9 31q45 7 79.5 29.5t34.5 48.5q0 48 -50 48q-30 0 -47 -15h2q-12 -17 -12 -41h-43l14 66q18 13 49 22.5t49 9.5q50 0 79.5 -20t29.5 -51q0 -44 -70 -86v-5q35 -9 59.5 -34.5
t24.5 -56.5q0 -45 -40.5 -75.5t-92.5 -30.5q-60 0 -105 26l-20 77h39q18 -40 38 -58l-1 1q30 -15 57 -15z" />
    <glyph glyph-name="onefifth" unicode="&#x2155;" 
d="M109 -34l241 370l223 353l40 -26l-234 -349l-231 -375zM66 609l-10 33q87 27 115 50l38 -4v-310q12 -1 39 -4.5t39 -4.5v-27h-225v27l76 9v253q-8 -3 -12 -4q-22 -9 -60 -18zM545 -26q-40 0 -76 17l-18 9l-12 74h39q17 -41 28 -53l-2 1q24 -16 37 -16q33 0 57 23.5
t24 73.5q0 26 -12.5 41t-33.5 15q-39 0 -77 -29l-32 9l21 188h105l81 6l-8 -64l-62 3h-77q-2 -16 -8 -46.5t-7 -44.5q36 17 69 17q45 0 78 -24.5t33 -67.5q0 -48 -31 -76q-62 -56 -116 -56z" />
    <glyph glyph-name="twofifths" unicode="&#x2156;" 
d="M109 -34l241 370l223 353l40 -26l-234 -349l-231 -375zM132 649q-31 0 -49 -20h1q-12 -19 -12 -46h-46l15 73q17 16 48.5 27t48.5 11q53 0 87.5 -28.5t34.5 -74.5q0 -35 -50 -91t-120 -110v-2.5t1 -2.5l90 6t88 5v-57l-247 3l-7 27q94 83 132.5 130.5t38.5 85.5
q0 28 -16.5 46t-37.5 18zM545 -26q-40 0 -76 17l-18 9l-12 74h39q17 -41 28 -53l-2 1q24 -16 37 -16q33 0 57 23.5t24 73.5q0 26 -12.5 41t-33.5 15q-39 0 -77 -29l-32 9l21 188h105l81 6l-8 -64l-62 3h-77q-2 -16 -8 -46.5t-7 -44.5q36 17 69 17q45 0 78 -24.5t33 -67.5
q0 -48 -31 -76q-62 -56 -116 -56z" />
    <glyph glyph-name="threefifths" unicode="&#x2157;" 
d="M109 -34l241 370l223 353l40 -26l-234 -349l-231 -375zM166 366q20 0 36 16.5t16 46.5q0 34 -24.5 54.5t-45.5 17.5l-47 -6l-9 31q45 7 79.5 29.5t34.5 48.5q0 48 -50 48q-30 0 -47 -15h2q-12 -17 -12 -41h-43l14 66q18 13 49 22.5t49 9.5q50 0 79.5 -20t29.5 -51
q0 -44 -70 -86v-5q35 -9 59.5 -34.5t24.5 -56.5q0 -45 -40.5 -75.5t-92.5 -30.5q-60 0 -105 26l-20 77h39q18 -40 38 -58l-1 1q30 -15 57 -15zM545 -26q-40 0 -76 17l-18 9l-12 74h39q17 -41 28 -53l-2 1q24 -16 37 -16q33 0 57 23.5t24 73.5q0 26 -12.5 41t-33.5 15
q-39 0 -77 -29l-32 9l21 188h105l81 6l-8 -64l-62 3h-77q-2 -16 -8 -46.5t-7 -44.5q36 17 69 17q45 0 78 -24.5t33 -67.5q0 -48 -31 -76q-62 -56 -116 -56z" />
    <glyph glyph-name="fourfifths" unicode="&#x2158;" 
d="M109 -34l241 370l223 353l40 -26l-234 -349l-231 -375zM141 377v73h-148l-10 23q31 57 85 120.5t107 106.5l34 -12l-3 -81v-123h63v-33h-63v-73q10 -1 30.5 -4.5t28.5 -4.5v-27h-177v27zM43 484h98v132q-57 -53 -100 -130zM545 -26q-40 0 -76 17l-18 9l-12 74h39
q17 -41 28 -53l-2 1q24 -16 37 -16q33 0 57 23.5t24 73.5q0 26 -12.5 41t-33.5 15q-39 0 -77 -29l-32 9l21 188h105l81 6l-8 -64l-62 3h-77q-2 -16 -8 -46.5t-7 -44.5q36 17 69 17q45 0 78 -24.5t33 -67.5q0 -48 -31 -76q-62 -56 -116 -56z" />
    <glyph glyph-name="onesixth" unicode="&#x2159;" 
d="M109 -34l241 370l223 353l40 -26l-234 -349l-231 -375zM66 609l-10 33q87 27 115 50l38 -4v-310q12 -1 39 -4.5t39 -4.5v-27h-225v27l76 9v253q-8 -3 -12 -4q-22 -9 -60 -18zM670 320q-69 -31 -104.5 -63.5t-54.5 -83.5q42 24 76 24q39 0 71.5 -26t32.5 -75t-26 -71v1
q-56 -52 -108 -52q-57 0 -92.5 33.5t-35.5 94.5q0 48 22 96t58 79q55 42 154 72zM565 160q-40 0 -67 -32l2 1q-1 -7 -1 -19q0 -46 19.5 -74t49.5 -28q25 0 39 19.5t14 52.5q0 39 -17 59.5t-39 20.5z" />
    <glyph glyph-name="fivesixths" unicode="&#x215a;" 
d="M109 -34l241 370l223 353l40 -26l-234 -349l-231 -375zM144 335q-40 0 -76 17l-18 9l-12 74h39q17 -41 28 -53l-2 1q24 -16 37 -16q33 0 57 23.5t24 73.5q0 26 -12.5 41t-33.5 15q-39 0 -77 -29l-32 9l21 188h105l81 6l-8 -64l-62 3h-77q-2 -16 -8 -46.5t-7 -44.5
q36 17 69 17q45 0 78 -24.5t33 -67.5q0 -48 -31 -76q-62 -56 -116 -56zM670 320q-69 -31 -104.5 -63.5t-54.5 -83.5q42 24 76 24q39 0 71.5 -26t32.5 -75t-26 -71v1q-56 -52 -108 -52q-57 0 -92.5 33.5t-35.5 94.5q0 48 22 96t58 79q55 42 154 72zM565 160q-40 0 -67 -32
l2 1q-1 -7 -1 -19q0 -46 19.5 -74t49.5 -28q25 0 39 19.5t14 52.5q0 39 -17 59.5t-39 20.5z" />
    <glyph glyph-name="oneeighth" unicode="&#x215b;" 
d="M109 -34l241 370l223 353l40 -26l-234 -349l-231 -375zM66 609l-10 33q87 27 115 50l38 -4v-310q12 -1 39 -4.5t39 -4.5v-27h-225v27l76 9v253q-8 -3 -12 -4q-22 -9 -60 -18zM449 72q0 35 66 82l-1 4q-49 31 -49 83q0 39 33.5 65.5t79.5 26.5q51 0 82.5 -22t31.5 -58
q0 -40 -55 -80l3 2v-5q68 -32 68 -89q0 -41 -36 -74t-94 -33q-53 0 -91 27t-38 71zM509 71q0 -30 18.5 -48t52.5 -18q31 0 49 17t18 46q0 28 -24.5 44t-75.5 30q-38 -30 -38 -71zM522 255q0 -26 19 -41.5t65 -30.5q25 32 25 71q0 23 -14.5 36.5t-38.5 13.5q-26 0 -41 -14.5
t-15 -34.5z" />
    <glyph glyph-name="threeeighths" unicode="&#x215c;" 
d="M109 -34l241 370l223 353l40 -26l-234 -349l-231 -375zM166 366q20 0 36 16.5t16 46.5q0 34 -24.5 54.5t-45.5 17.5l-47 -6l-9 31q45 7 79.5 29.5t34.5 48.5q0 48 -50 48q-30 0 -47 -15h2q-12 -17 -12 -41h-43l14 66q18 13 49 22.5t49 9.5q50 0 79.5 -20t29.5 -51
q0 -44 -70 -86v-5q35 -9 59.5 -34.5t24.5 -56.5q0 -45 -40.5 -75.5t-92.5 -30.5q-60 0 -105 26l-20 77h39q18 -40 38 -58l-1 1q30 -15 57 -15zM449 72q0 35 66 82l-1 4q-49 31 -49 83q0 39 33.5 65.5t79.5 26.5q51 0 82.5 -22t31.5 -58q0 -40 -55 -80l3 2v-5q68 -32 68 -89
q0 -41 -36 -74t-94 -33q-53 0 -91 27t-38 71zM509 71q0 -30 18.5 -48t52.5 -18q31 0 49 17t18 46q0 28 -24.5 44t-75.5 30q-38 -30 -38 -71zM522 255q0 -26 19 -41.5t65 -30.5q25 32 25 71q0 23 -14.5 36.5t-38.5 13.5q-26 0 -41 -14.5t-15 -34.5z" />
    <glyph glyph-name="fiveeighths" unicode="&#x215d;" 
d="M109 -34l241 370l223 353l40 -26l-234 -349l-231 -375zM144 335q-40 0 -76 17l-18 9l-12 74h39q17 -41 28 -53l-2 1q24 -16 37 -16q33 0 57 23.5t24 73.5q0 26 -12.5 41t-33.5 15q-39 0 -77 -29l-32 9l21 188h105l81 6l-8 -64l-62 3h-77q-2 -16 -8 -46.5t-7 -44.5
q36 17 69 17q45 0 78 -24.5t33 -67.5q0 -48 -31 -76q-62 -56 -116 -56zM449 72q0 35 66 82l-1 4q-49 31 -49 83q0 39 33.5 65.5t79.5 26.5q51 0 82.5 -22t31.5 -58q0 -40 -55 -80l3 2v-5q68 -32 68 -89q0 -41 -36 -74t-94 -33q-53 0 -91 27t-38 71zM509 71q0 -30 18.5 -48
t52.5 -18q31 0 49 17t18 46q0 28 -24.5 44t-75.5 30q-38 -30 -38 -71zM522 255q0 -26 19 -41.5t65 -30.5q25 32 25 71q0 23 -14.5 36.5t-38.5 13.5q-26 0 -41 -14.5t-15 -34.5z" />
    <glyph glyph-name="seveneighths" unicode="&#x215e;" 
d="M109 -34l241 370l223 353l40 -26l-234 -349l-231 -375zM317 688l16 -19q-57 -78 -87 -149.5t-39 -164.5q-2 -17 -46 -17q-20 0 -30.5 4.5t-7.5 14.5q31 98 63.5 156t79.5 118l-5 7h-124q-8 0 -19 -49q0 -1 -1 -4.5t-1 -4.5h-44l21 110l72 -2h152zM449 72q0 35 66 82l-1 4
q-49 31 -49 83q0 39 33.5 65.5t79.5 26.5q51 0 82.5 -22t31.5 -58q0 -40 -55 -80l3 2v-5q68 -32 68 -89q0 -41 -36 -74t-94 -33q-53 0 -91 27t-38 71zM509 71q0 -30 18.5 -48t52.5 -18q31 0 49 17t18 46q0 28 -24.5 44t-75.5 30q-38 -30 -38 -71zM522 255q0 -26 19 -41.5
t65 -30.5q25 32 25 71q0 23 -14.5 36.5t-38.5 13.5q-26 0 -41 -14.5t-15 -34.5z" />
    <glyph glyph-name="uni2191" unicode="&#x2191;" horiz-adv-x="700" 
d="M357 605l264 -237l-46 -61l-183 163v-420h-84v420l-183 -163l-47 61l266 237h13z" />
    <glyph glyph-name="uni2193" unicode="&#x2193;" horiz-adv-x="700" 
d="M621 287l-264 -237h-13l-266 237l47 61l183 -163v420h84v-420l183 163z" />
    <glyph glyph-name="partialdiff" unicode="&#x2202;" horiz-adv-x="540" 
d="M283 594q-84 0 -109 -130h-40l12 113q20 25 62 43t86 18q94 0 143 -78t49 -201q0 -179 -71 -275t-190 -96q-71 0 -121 48t-50 134q0 105 66 167t146 62q39 0 75 -18t53 -51l5 3v39q0 113 -27.5 167.5t-88.5 54.5zM381 270q-10 33 -37 55t-58 22q-55 0 -92.5 -48.5
t-37.5 -129.5q0 -60 21.5 -94.5t62.5 -34.5q57 0 99 63t42 167z" />
    <glyph glyph-name="product" unicode="&#x220f;" horiz-adv-x="540" 
d="M2 626h536v-40l-78 -15v-516l78 -15v-40h-252v40l78 15v516h-188v-516l78 -15v-40h-252v40l78 15v516l-78 15v40z" />
    <glyph glyph-name="summation" unicode="&#x2211;" horiz-adv-x="540" 
d="M146 89l5 -10h250l86 111h41l-50 -190h-465l-8 15l262 270v12l-242 317l8 12h441l26 -171h-36l-89 131h-210l-5 -7l198 -256v-16z" />
    <glyph glyph-name="minus" unicode="&#x2212;" horiz-adv-x="620" 
d="M570 230h-520v60h520v-60z" />
    <glyph glyph-name="radical" unicode="&#x221a;" horiz-adv-x="540" 
d="M317 61h13l152 695l49 -10l-184 -883h-37l-195 526l-98 -35l-16 37l175 59z" />
    <glyph glyph-name="infinity" unicode="&#x221e;" horiz-adv-x="540" 
d="M127 149q-60 0 -92 38.5t-32 88.5q0 54 36.5 92.5t87.5 38.5q74 0 141 -92q33 43 66.5 67.5t77.5 24.5q61 0 92.5 -38t31.5 -89q0 -54 -36.5 -92.5t-87.5 -38.5q-75 0 -141 91q-70 -91 -144 -91zM144 357q-33 0 -54 -22t-21 -59q0 -36 20.5 -57.5t50.5 -21.5q18 0 37 13
t31.5 28t33.5 43q-27 37 -49.5 56.5t-48.5 19.5zM395 199q33 0 54 22t21 59q0 35 -21 57t-50 22q-18 0 -37 -13.5t-31.5 -28t-33.5 -43.5q26 -37 48.5 -56t49.5 -19z" />
    <glyph glyph-name="integral" unicode="&#x222b;" horiz-adv-x="540" 
d="M303 497l12 -487q2 -94 -48 -154t-127 -60q-31 0 -53 17t-22 49q0 21 12.5 37.5t36.5 16.5q50 0 57 -64l26 -7q19 18 31 63.5t10 91.5l-12 487q-2 95 47.5 154t125.5 59q32 0 54.5 -16.5t22.5 -48.5q0 -21 -13 -37.5t-37 -16.5q-49 0 -56 64l-26 7q-44 -41 -41 -155z" />
    <glyph glyph-name="approxequal" unicode="&#x2248;" horiz-adv-x="540" 
d="M429 388l53 -22q-16 -49 -48.5 -82.5t-82.5 -33.5q-35 0 -89.5 36t-79.5 36q-24 0 -43 -10.5t-26.5 -20.5t-20.5 -31l-44 32q17 33 53.5 61t80.5 28q34 0 89 -35t81 -35q28 0 49.5 23t27.5 54zM445 229l47 -23q-14 -40 -51 -68t-78 -28q-43 0 -100.5 35.5t-80.5 35.5
q-39 0 -72 -64l-46 30q52 93 118 93q32 0 90 -35t91 -35q30 0 51.5 17t30.5 42z" />
    <glyph glyph-name="notequal" unicode="&#x2260;" horiz-adv-x="620" 
d="M482 491l-65 -121h153v-60h-185l-64 -120h249v-60h-281l-86 -160l-56 27l71 133h-168v60h200l64 120h-264v60h296l80 148z" />
    <glyph glyph-name="lessequal" unicode="&#x2264;" horiz-adv-x="620" 
d="M570 0h-520v60h520v-60zM570 545l-454 -179l454 -179v-57l-520 205v62l520 205v-57z" />
    <glyph glyph-name="greaterequal" unicode="&#x2265;" horiz-adv-x="620" 
d="M570 0h-520v60h520v-60zM504 366l-454 179v57l520 -205v-62l-520 -205v57z" />
    <glyph glyph-name="lozenge" unicode="&#x25ca;" horiz-adv-x="540" 
d="M269 -98l-245 373l245 375l246 -375zM108 275l161 -246l162 246l-162 248z" />
    <glyph glyph-name="uni2605" unicode="&#x2605;" horiz-adv-x="570" 
d="M127 -8l-4 3l66 186l-166 118l2 5l201 -7l57 193h6l58 -193l199 5l1 -4l-163 -117l66 -188l-3 -1l-161 118z" />
    <glyph glyph-name="commaaccent" unicode="&#xf6c3;" horiz-adv-x="500" 
d="M222 -242l-41 13l44 91l19 84l74 -21l-38 -82z" />
    <glyph glyph-name="apple" unicode="&#xf8ff;" horiz-adv-x="540" 
d="M209 720h11l32 -121l-3 -82l68 -8l64 99l8 99h12l7 -99l-17 -129l36 -85l35 -38l1 -6l-7 -8v-18l8 -4l-1 -9l-17 -36l-36 7l-11 101l-34 56l-13 -2l26 -60l4 -99l-37 -46l3 -22l26 -37l7 -71l-64 -23l-33 16l-35 57l-75 25l-28 47l-3 42l-30 41l-2 58l4 27l-11 44z
M487 244l6 -9l-3 -37l-12 -17l-5 -33l23 -8l-3 -10l-23 7l-43 -26l-5 10l39 23l5 36l-36 14l-13 31l-1 10l14 15l24 4zM270 305l36 -14l11 13l-3 14l-11 10l-30 -10zM327 64l3 -4l-7 -21l-40 -43l-68 -23l-97 14l-55 48l-18 62l34 95l11 -1l-9 -71l22 -41l37 -33l88 -16
l48 3zM142 438l9 -9l33 34l11 76h-18z" />
    <glyph glyph-name="zero.tnum" horiz-adv-x="550" 
d="M37 298q0 167 68.5 253.5t176.5 86.5q103 0 167.5 -87t64.5 -253q0 -152 -64.5 -231.5t-167.5 -79.5q-108 0 -176.5 79t-68.5 232zM141 299q0 -138 39 -201t102 -63q58 0 93.5 64t35.5 200q0 148 -36 220t-93 72q-61 0 -101 -74.5t-40 -217.5z" />
    <glyph glyph-name="one.tnum" horiz-adv-x="550" 
d="M103 493l-16 53q152 45 202 88l49 -5v-571l144 -15v-43h-385v43l140 15v477q-110 -37 -134 -42z" />
    <glyph glyph-name="two.tnum" horiz-adv-x="550" 
d="M240 562q-67 0 -100 -39q-24 -41 -24 -82h-56l27 131q30 27 82.5 46.5t81.5 19.5q89 0 149 -52t60 -133q0 -65 -91.5 -168t-220.5 -201l7 -14l321 20v-95l-424 5l-13 47q174 154 244.5 240t70.5 155q0 53 -35 86.5t-79 33.5z" />
    <glyph glyph-name="three.tnum" horiz-adv-x="550" 
d="M277 36q41 0 76 31t35 88q0 64 -51 102.5t-95 33.5l-71 -10l-14 50q83 12 146 54t63 91q0 91 -107 91q-63 0 -94 -29q-24 -34 -24 -72h-51l26 116q31 22 84 39t81 17q85 0 135.5 -36t50.5 -91q0 -47 -38.5 -88t-89.5 -70v-10q62 -12 107 -59.5t45 -107.5q0 -81 -69 -135
t-159 -54q-99 0 -179 43l-36 137h44q29 -61 74 -103q54 -28 111 -28z" />
    <glyph glyph-name="four.tnum" horiz-adv-x="550" 
d="M316 58v141h-272l-18 37q56 102 152.5 217.5t190.5 192.5l44 -17l-5 -147v-230h113v-52h-113v-142l106 -15v-43h-295v43zM316 503l-12 6q-110 -100 -196 -247l6 -10h202v251z" />
    <glyph glyph-name="five.tnum" horiz-adv-x="550" 
d="M237 -13q-28 0 -53 4.5t-37.5 9t-36.5 15.5t-32 14l-21 132h44q23 -63 53 -95q43 -29 76 -29q65 0 114 44t49 138q0 48 -27.5 76.5t-73.5 28.5q-83 0 -144 -51l-41 12l41 340h177l133 10l-14 -108l-101 5h-153l-21 -174l10 -5q20 12 59.5 23.5t63.5 11.5q77 0 133 -44
t56 -120q0 -92 -50 -138q-108 -100 -204 -100z" />
    <glyph glyph-name="six.tnum" horiz-adv-x="550" 
d="M165 336l5 -5q89 57 152 57q41 0 80 -17.5t68 -60t29 -103.5q0 -92 -42 -127q-105 -93 -190 -93q-97 0 -158 60.5t-61 170.5q0 93 37 178.5t105 138.5q104 80 260 126l10 -44q-138 -62 -198.5 -118t-96.5 -163zM282 328q-80 0 -133 -61q-2 -24 -2 -35q0 -86 40 -138.5
t100 -52.5q54 0 84 37t30 98q0 73 -35 112.5t-84 39.5z" />
    <glyph glyph-name="seven.tnum" horiz-adv-x="550" 
d="M492 626l26 -31q-105 -146 -160.5 -277t-72.5 -298q-1 -11 -19 -19t-50 -8q-29 0 -44 6.5t-10 21.5q40 129 87.5 230.5t80.5 151t91 124.5l-8 14l-241 1q-12 0 -22 -15t-16.5 -35t-12.5 -43q-2 -9 -3 -13h-51l39 195l118 -5h268z" />
    <glyph glyph-name="eight.tnum" horiz-adv-x="550" 
d="M52 161q0 66 119 150v9q-90 54 -90 152q0 70 57 118t135 48q88 0 141.5 -40t53.5 -103q0 -36 -27 -75t-68 -70v-8q63 -28 93.5 -65t30.5 -98q0 -75 -61.5 -133.5t-162.5 -58.5q-90 0 -155.5 48t-65.5 126zM134 160q0 -56 37.5 -90t106.5 -34q63 0 100.5 32.5t37.5 86.5
q0 36 -28 63t-68.5 43.5t-107.5 35.5q-78 -58 -78 -137zM158 499q0 -50 38 -80t135 -59q55 62 55 137q0 43 -30.5 68t-81.5 25q-55 0 -85.5 -27t-30.5 -64z" />
    <glyph glyph-name="nine.tnum" horiz-adv-x="550" 
d="M380 290l-5 5q-88 -57 -152 -57q-41 0 -80 17.5t-68 60t-29 103.5q0 91 42 127q104 92 191 92q97 0 157.5 -60t60.5 -170q0 -93 -36.5 -179t-104.5 -138q-105 -80 -260 -126l-11 45q138 62 198.5 117.5t96.5 162.5zM264 299q79 0 132 61q2 24 2 35q0 85 -40 137t-100 52
q-54 0 -83.5 -36.5t-29.5 -97.5q0 -73 35 -112t84 -39z" />
    <glyph glyph-name="exclamdown.case" horiz-adv-x="333" 
d="M231 611q0 -27 -18.5 -46t-45.5 -19t-46 19t-19 46t19 45.5t46 18.5t45.5 -18.5t18.5 -45.5zM130 -32l-22 11l39 484l40 5l35 -455z" />
    <glyph glyph-name="questiondown.case" horiz-adv-x="443" 
d="M308 611q0 -27 -18.5 -46t-45.5 -19t-46 19t-19 46t19 45.5t46 18.5t45.5 -18.5t18.5 -45.5zM195 416v22l37 31q88 -13 88 -68q0 -32 -30 -69t-65.5 -65t-65.5 -62t-30 -61q0 -36 41 -62t81 -26q23 0 38 9l30 68l46 -20q-11 -55 -37 -108q-19 -37 -63 -37
q-82 0 -152.5 43t-70.5 110q0 34 31 73.5t67.5 68.5t67.5 60.5t31 51.5q0 28 -44 41z" />
    <glyph glyph-name="hyphen.case" horiz-adv-x="335" 
d="M50 353l64 -3h109l77 3l-15 -83l-61 3h-126l-63 -3z" />
    <glyph glyph-name="endash.case" horiz-adv-x="484" 
d="M42 348h400v-73h-400v73z" />
    <glyph glyph-name="emdash.case" horiz-adv-x="1000" 
d="M92 343h816v-63h-816v63z" />
    <glyph glyph-name="guilsinglleft.case" horiz-adv-x="445" 
d="M100 330l192 204l38 -30l-128 -176v-15l128 -178l-38 -34l-192 206v23z" />
    <glyph glyph-name="guilsinglright.case" horiz-adv-x="445" 
d="M153 534l192 -204v-23l-192 -206l-38 34l128 178v15l-128 176z" />
    <glyph glyph-name="guillemotleft.case" horiz-adv-x="652" 
d="M100 330l192 204l38 -30l-128 -176v-15l128 -178l-38 -34l-192 206v23zM307 330l192 204l38 -30l-128 -176v-15l128 -178l-38 -34l-192 206v23z" />
    <glyph glyph-name="guillemotright.case" horiz-adv-x="652" 
d="M360 534l192 -204v-23l-192 -206l-38 34l128 178v15l-128 176zM153 534l192 -204v-23l-192 -206l-38 34l128 178v15l-128 176z" />
    <glyph glyph-name="zero.onum" horiz-adv-x="601" 
d="M50 241q0 109 72 181.5t180 72.5q49 0 92 -14t79 -43t57 -79.5t21 -117.5q0 -116 -76 -185t-178 -69q-110 0 -178.5 71.5t-68.5 182.5zM148 241q0 -99 43.5 -150.5t105.5 -51.5q69 0 112.5 51t43.5 151q0 98 -41.5 150t-114.5 52q-66 0 -107.5 -52t-41.5 -150z" />
    <glyph glyph-name="one.onum" horiz-adv-x="425" 
d="M246 495l32 -14v-419l117 -20v-42h-326v42l118 20v344q-65 -24 -136 -33l-13 56q138 27 208 66z" />
    <glyph glyph-name="two.onum" horiz-adv-x="497" 
d="M58 0l-20 54q60 42 98 70.5t85.5 69t71 76t23.5 66.5q0 38 -23 58.5t-64 20.5q-88 0 -150 -74l-30 31q87 123 206 123q74 0 116.5 -37.5t42.5 -97.5q0 -40 -30 -83.5t-63.5 -71t-86 -66t-68.5 -52.5l6 -14l275 20l-4 -93h-385z" />
    <glyph glyph-name="three.onum" horiz-adv-x="442" 
d="M74 361l-32 31l72 77q45 26 89 26q64 0 105 -36.5t41 -90.5q0 -78 -74 -124l5 -10q57 1 89 -30.5t32 -85.5q0 -61 -41 -121.5t-98 -101.5t-114 -67t-92 -26l-65 76l22 37l83 -34q35 4 70 18t67 37.5t52 61.5t20 84q0 51 -37 80t-71 13l-67 -36l-24 44q12 8 39 24.5
t38 23.5t29 21.5t25.5 25t14 26.5t6.5 34q0 37 -22 60t-55 23q-58 0 -107 -60z" />
    <glyph glyph-name="four.onum" horiz-adv-x="558" 
d="M330 -198l-22 25l7 91v121h-265l-18 23l331 433l48 -17l-5 -147v-234h34l77 5v-67l-73 5h-38v-109l5 -93zM315 327l-12 6l-169 -226l6 -10h175v230z" />
    <glyph glyph-name="five.onum" horiz-adv-x="472" 
d="M395 93q0 -61 -39.5 -117.5t-95 -93t-112 -58.5t-93.5 -22l-65 86l22 32l83 -39q36 2 70.5 13t67.5 31t53.5 55.5t20.5 81.5q0 34 -19.5 57t-47.5 30.5t-58 11t-52 -1.5l-36 27l11 299h197l133 10l-14 -108l-101 5h-170l-4 -133l15 -13q100 8 167 -30t67 -123z" />
    <glyph glyph-name="six.onum" horiz-adv-x="552" 
d="M170 336l5 -5q89 57 152 57q41 0 80 -17.5t68 -60t29 -103.5q0 -92 -42 -127q-105 -93 -190 -93q-97 0 -158 60.5t-61 170.5q0 93 37 178.5t105 138.5q104 80 260 126l10 -44q-138 -62 -198.5 -118t-96.5 -163zM287 328q-80 0 -133 -61q-2 -24 -2 -35q0 -86 40 -138.5
t100 -52.5q54 0 84 37t30 98q0 73 -35 112.5t-84 39.5z" />
    <glyph glyph-name="seven.onum" horiz-adv-x="483" 
d="M42 -187l-13 31q75 111 120 180t105.5 172t102.5 190l-8 14l-302 1l4 89l128 -5h253l26 -31q-204 -380 -328 -642z" />
    <glyph glyph-name="eight.onum" horiz-adv-x="551" 
d="M53 161q0 68 119 155v9q-90 53 -90 147q0 70 57 118t135 48q88 0 141.5 -40t53.5 -103q0 -50 -90 -140v-8q61 -29 90 -67t29 -101q0 -75 -61.5 -133.5t-162.5 -58.5q-90 0 -155.5 48t-65.5 126zM135 160q0 -56 37.5 -90t106.5 -34q63 0 100.5 32.5t37.5 86.5t-50.5 86
t-153.5 61q-78 -60 -78 -142zM159 499q0 -49 38 -77.5t135 -56.5q55 59 55 132q0 43 -30.5 68t-81.5 25q-55 0 -85.5 -27t-30.5 -64z" />
    <glyph glyph-name="nine.onum" horiz-adv-x="540" 
d="M374 147l-5 5q-88 -57 -152 -57q-41 0 -80 17.5t-68 60t-29 103.5q0 91 42 127q104 92 191 92q97 0 157.5 -60t60.5 -170q0 -93 -36.5 -179t-104.5 -138q-55 -48 -133.5 -91t-161.5 -70l-11 45q154 67 221.5 130t108.5 185zM258 156q79 0 132 61q2 24 2 35q0 85 -40 137
t-100 52q-54 0 -83.5 -36.5t-29.5 -97.5q0 -73 35 -112t84 -39z" />
    <glyph glyph-name="acute.case" horiz-adv-x="500" 
d="M190 498v8l86 129h94v-10l-129 -127h-51z" />
    <glyph glyph-name="grave.case" horiz-adv-x="500" 
d="M310 506v-8h-51l-129 127v10h94z" />
    <glyph glyph-name="circumflex.case" horiz-adv-x="500" 
d="M395 506v-8h-46l-99 69l-99 -69h-46v8l121 129h48z" />
    <glyph glyph-name="breve.case" horiz-adv-x="500" 
d="M250 498q-50 0 -85 33.5t-35 98.5h40q0 -30 22.5 -51.5t57.5 -21.5q32 0 56 21t24 52h40q0 -65 -35 -98.5t-85 -33.5z" />
    <glyph glyph-name="caron.case" horiz-adv-x="500" 
d="M395 635v-8l-121 -129h-48l-121 129v8h46l99 -69l99 69h46z" />
    <glyph glyph-name="hungarumlaut.case" horiz-adv-x="500" 
d="M275 508v8l86 129h94v-10l-139 -127h-41zM135 508v8l86 129h94v-10l-139 -127h-41z" />
    <glyph glyph-name="dollar.onum" horiz-adv-x="459" 
d="M64 20l-10 136h52q10 -63 36 -89.5t70 -28.5v177q-150 49 -150 148q0 59 44 94t106 41v77h43v-77q51 -2 123 -22l5 -124h-44q-21 89 -84 100v-168q71 -25 113 -58t42 -88q0 -54 -41 -96.5t-114 -49.5v-83h-43v82q-96 3 -148 29zM324 122q0 47 -69 77v-158q69 16 69 81z
M148 373q0 -44 64 -72v151q-64 -12 -64 -79z" />
    <glyph glyph-name="cent.onum" horiz-adv-x="364" 
d="M297 166l23 -28q-44 -43 -109 -56v-82h-43v79q-60 6 -97.5 50.5t-37.5 103.5q0 78 40 115q41 36 95 56v84h43v-75h2q56 0 88 -14l2 -100h-41q-3 32 -11 51l-2 1q-19 10 -38 13v-232h7q41 0 79 34zM107 266q0 -93 61 -123v218q-61 -19 -61 -95z" />
    <glyph glyph-name="sterling.onum" horiz-adv-x="460" 
d="M55 262h71v68q0 83 90 135q59 33 104 33q37 0 81 -16v-116h-39q-16 82 -76 82q-26 0 -48 -22.5t-22 -76.5v-87h108v-38h-108q-3 -84 -80 -153l2 -3q51 -4 165 -4q35 0 49.5 13.5t18.5 55.5h39l-8 -134q-20 -8 -64 -8q-30 0 -106 16q-75 16 -111 20q-19 -36 -55 -36
q-30 0 -30 24q0 16 16 31.5t38 24.5q36 39 36 97v56h-71v38z" />
    <glyph glyph-name="yen.onum" horiz-adv-x="465" 
d="M249 247l108 188l-80 19v33h188v-33l-49 -22q-5 -9 -58 -99.5t-79 -137.5l1 1v-1h108v-35h-108v-34h108v-36h-108v-42l66 -10v-38h-229v38l67 10v42h-106v36h106v34h-106v35h106l-134 244q-7 1 -24 6t-25 6v36h201v-37l-59 -11l100 -192h6z" />
    <glyph glyph-name="Euro.onum" horiz-adv-x="548" 
d="M57 304h47q17 89 79 141.5t144 52.5q91 0 164 -51l-26 -100h-32q3 59 -31.5 85.5t-74.5 26.5q-49 0 -83.5 -39t-44.5 -116h251l-10 -35h-244v-25v-9h236l-8 -36h-226q9 -80 45.5 -123t81.5 -43q92 0 126 97l41 -12q-46 -127 -175 -127q-84 0 -144 55t-72 153h-54l10 36
h42v8q0 17 1 26h-53z" />
    <glyph glyph-name="numbersign.onum" horiz-adv-x="428" 
d="M70 384l81 -11l35 154l52 -7l-35 -154l72 -9l38 170l51 -7l-38 -170l88 -11l-6 -49l-93 11l-27 -121l76 -10l-6 -49l-80 10l-35 -158l-53 5l36 160l-72 9l-39 -174l-52 5l39 176l-86 11l6 49l91 -12l27 121l-76 10zM192 317l-27 -121l72 -10l27 122z" />
    <glyph glyph-name="percent.onum" horiz-adv-x="467" 
d="M289 385q-20 0 -40 12q-2 -63 -39 -103.5t-85 -40.5q-41 0 -67 28.5t-26 71.5q0 58 40 101.5t87 43.5q63 0 84 -56q10 -24 52 -24q35 0 65 22q22 53 51 53q23 0 23 -20q0 -11 -12 -26t-26 -24q-32 -39 -91 -114.5t-84 -105.5l-165 -221l-33 25l171 213q47 63 125 170
q-12 -5 -30 -5zM218 91q0 58 40.5 101t86.5 43q40 0 65 -25t25 -68q0 -67 -37.5 -109t-84.5 -42q-42 0 -68.5 28.5t-26.5 71.5zM359 196q-26 0 -48.5 -39.5t-22.5 -86.5q0 -43 29 -43q27 0 49.5 31t22.5 92q0 46 -30 46zM173 459q-26 0 -49 -40.5t-23 -86.5q0 -43 32 -43
q26 0 47.5 32t21.5 91q0 22 -8 34.5t-21 12.5z" />
    <glyph glyph-name="perthousand.onum" horiz-adv-x="696" 
d="M445 91q0 58 40.5 101t87.5 43q40 0 65.5 -25t25.5 -68q0 -67 -38 -109t-84 -42q-43 0 -70 28.5t-27 71.5zM587 196q-26 0 -49 -40t-23 -86q0 -21 8.5 -32t21.5 -11q27 0 49 31t22 92q0 46 -29 46zM290 385q-20 0 -40 12q-2 -63 -39 -103.5t-85 -40.5q-41 0 -67 28.5
t-26 71.5q0 58 40 101.5t87 43.5q63 0 84 -56q10 -24 52 -24q35 0 65 22q22 53 51 53q23 0 23 -20q0 -11 -12 -26t-26 -24q-32 -39 -91 -114.5t-84 -105.5l-165 -221l-33 25l171 213q47 63 125 170q-12 -5 -30 -5zM219 91q0 58 40.5 101t86.5 43q40 0 65 -25t25 -68
q0 -67 -37.5 -109t-84.5 -42q-42 0 -68.5 28.5t-26.5 71.5zM360 196q-26 0 -48.5 -39.5t-22.5 -86.5q0 -43 29 -43q27 0 49.5 31t22.5 92q0 46 -30 46zM174 459q-26 0 -49 -40.5t-23 -86.5q0 -43 32 -43q26 0 47.5 32t21.5 91q0 22 -8 34.5t-21 12.5z" />
    <glyph glyph-name="ordfeminine.onum" horiz-adv-x="315" 
d="M196 306v57q-49 -6 -92 -22q-17 -9 -17 -21q0 -48 39 -48q18 0 38.5 10.5t32.5 24.5zM59 412l-16 14q-2 10 -2 14q0 25 25 40q63 39 92 39q47 0 74.5 -20.5t27.5 -52.5v-176l44 -2v-25l-98 -18l-11 10v33h-3q-69 -43 -95 -43q-31 0 -52 21.5t-21 57.5q0 26 7.5 37.5
t34.5 20.5q45 15 130 27v35q0 55 -56 55q-26 0 -39 -9v-52z" />
    <glyph glyph-name="ordmasculine.onum" horiz-adv-x="349" 
d="M21 363q0 43 14 75t37 49t47.5 24.5t50.5 7.5q74 0 116 -36t42 -99q0 -79 -45.5 -119t-112.5 -40q-68 0 -108.5 37t-40.5 101zM90 388q0 -132 90 -132q75 0 75 104q0 75 -23 102t-61 27q-36 0 -58.5 -26.5t-22.5 -74.5z" />
    <glyph glyph-name="degree.onum" horiz-adv-x="367" 
d="M40 374q0 59 42 101.5t101 42.5t101.5 -42.5t42.5 -101.5t-42.5 -101t-101.5 -42t-101 42.5t-42 100.5zM100 374q0 -39 22.5 -65.5t59.5 -26.5t60.5 26.5t23.5 65.5t-23.5 66.5t-60.5 27.5t-59.5 -27.5t-22.5 -66.5z" />
    <glyph glyph-name="zero.numr" horiz-adv-x="333" 
d="M24 480q0 92 41 139.5t106 47.5q62 0 100.5 -48t38.5 -139q0 -84 -38.5 -128t-100.5 -44q-65 0 -106 43.5t-41 128.5zM98 480q0 -74 20.5 -108t52.5 -34q65 0 65 142q0 80 -18 119t-47 39q-31 0 -52 -40.5t-21 -117.5z" />
    <glyph glyph-name="one.numr" horiz-adv-x="261" 
d="M36 582l-10 33q87 27 115 50l38 -4v-310q12 -1 39 -4.5t39 -4.5v-27h-225v27l76 9v253q-8 -3 -12 -4q-22 -9 -60 -18z" />
    <glyph glyph-name="two.numr" horiz-adv-x="287" 
d="M128 622q-31 0 -49 -20h1q-12 -19 -12 -46h-46l15 73q17 16 48.5 27t48.5 11q53 0 87.5 -28.5t34.5 -74.5q0 -35 -50 -91t-120 -110v-2.5t1 -2.5l90 6t88 5v-57l-247 3l-7 27q94 83 132.5 130.5t38.5 85.5q0 28 -16.5 46t-37.5 18z" />
    <glyph glyph-name="three.numr" horiz-adv-x="287" 
d="M142 339q20 0 36 16.5t16 46.5q0 34 -24.5 54.5t-45.5 17.5l-47 -6l-9 31q45 7 79.5 29.5t34.5 48.5q0 48 -50 48q-30 0 -47 -15h2q-12 -17 -12 -41h-43l14 66q18 13 49 22.5t49 9.5q50 0 79.5 -20t29.5 -51q0 -44 -70 -86v-5q35 -9 59.5 -34.5t24.5 -56.5
q0 -45 -40.5 -75.5t-92.5 -30.5q-60 0 -105 26l-20 77h39q18 -40 38 -58l-1 1q30 -15 57 -15z" />
    <glyph glyph-name="four.numr" horiz-adv-x="322" 
d="M172 350v73h-148l-10 23q31 57 85 120.5t107 106.5l34 -12l-3 -81v-123h63v-33h-63v-73q10 -1 30.5 -4.5t28.5 -4.5v-27h-177v27zM74 457h98v132q-57 -53 -100 -130z" />
    <glyph glyph-name="five.numr" horiz-adv-x="285" 
d="M118 308q-40 0 -76 17l-18 9l-12 74h39q17 -41 28 -53l-2 1q24 -16 37 -16q33 0 57 23.5t24 73.5q0 26 -12.5 41t-33.5 15q-39 0 -77 -29l-32 9l21 188h105l81 6l-8 -64l-62 3h-77q-2 -16 -8 -46t-7 -45q36 17 69 17q45 0 78 -24.5t33 -67.5q0 -48 -31 -76
q-62 -56 -116 -56z" />
    <glyph glyph-name="six.numr" horiz-adv-x="304" 
d="M263 654q-69 -31 -104.5 -63.5t-54.5 -83.5q42 24 76 24q39 0 71.5 -26t32.5 -75t-26 -71v1q-56 -52 -108 -52q-57 0 -92.5 33.5t-35.5 94.5q0 48 22 96t58 79q55 42 154 72zM158 494q-40 0 -67 -32l2 1q-1 -7 -1 -19q0 -46 19.5 -74t49.5 -28q25 0 39 19.5t14 52.5
q0 39 -17 59.5t-39 20.5z" />
    <glyph glyph-name="seven.numr" horiz-adv-x="268" 
d="M260 661l16 -19q-57 -78 -87 -149.5t-39 -164.5q-2 -17 -46 -17q-20 0 -30.5 4.5t-7.5 14.5q31 98 63.5 156t79.5 118l-5 7h-124q-8 0 -19 -49q0 -1 -1 -4.5t-1 -4.5h-44l21 110l72 -2h152z" />
    <glyph glyph-name="eight.numr" horiz-adv-x="303" 
d="M22 406q0 35 66 82l-1 4q-49 31 -49 83q0 39 33.5 65.5t79.5 26.5q51 0 82.5 -22t31.5 -58q0 -40 -55 -80l3 2v-5q68 -32 68 -89q0 -41 -36 -74t-94 -33q-53 0 -91 27t-38 71zM82 405q0 -30 18.5 -48t52.5 -18q31 0 49 17t18 46q0 28 -24.5 44t-75.5 30q-38 -30 -38 -71z
M95 589q0 -26 19 -41.5t65 -30.5q25 32 25 71q0 23 -14.5 36.5t-38.5 13.5q-26 0 -41 -14.5t-15 -34.5z" />
    <glyph glyph-name="nine.numr" horiz-adv-x="304" 
d="M41 323q73 33 105.5 62t51.5 84q-40 -24 -74 -24q-39 0 -72 26t-33 74q0 50 27 72v-1q53 51 109 51t91 -33t35 -94q0 -50 -20.5 -97t-59.5 -78q-55 -42 -153 -71zM146 482q35 0 66 33l-2 -1q0 2 0.5 5.5t0.5 4.5v9q0 46 -19.5 73.5t-48.5 27.5q-26 0 -40 -19t-14 -52
q0 -39 17 -60t40 -21z" />
    <glyph glyph-name="zero.dnom" horiz-adv-x="333" 
d="M24 125q0 92 41 139.5t106 47.5q62 0 100.5 -48t38.5 -139q0 -84 -38.5 -128t-100.5 -44q-65 0 -106 43.5t-41 128.5zM98 125q0 -74 20.5 -108t52.5 -34q65 0 65 142q0 80 -18 119t-47 39q-31 0 -52 -40.5t-21 -117.5z" />
    <glyph glyph-name="one.dnom" horiz-adv-x="261" 
d="M36 227l-10 33q87 27 115 50l38 -4v-310q12 -1 39 -4.5t39 -4.5v-27h-225v27l76 9v253q-8 -3 -12 -4q-22 -9 -60 -18z" />
    <glyph glyph-name="two.dnom" horiz-adv-x="287" 
d="M128 267q-31 0 -49 -20h1q-12 -19 -12 -46h-46l15 73q17 16 48.5 27t48.5 11q53 0 87.5 -28.5t34.5 -74.5q0 -35 -50 -91t-120 -110v-2.5t1 -2.5l90 6t88 5v-57l-247 3l-7 27q94 83 132.5 130.5t38.5 85.5q0 28 -16.5 46t-37.5 18z" />
    <glyph glyph-name="three.dnom" horiz-adv-x="287" 
d="M142 -16q20 0 36 16.5t16 46.5q0 34 -24.5 54.5t-45.5 17.5l-47 -6l-9 31q45 7 79.5 29.5t34.5 48.5q0 48 -50 48q-30 0 -47 -15h2q-12 -17 -12 -41h-43l14 66q18 13 49 22.5t49 9.5q50 0 79.5 -20t29.5 -51q0 -44 -70 -86v-5q35 -9 59.5 -34.5t24.5 -56.5
q0 -45 -40.5 -75.5t-92.5 -30.5q-60 0 -105 26l-20 77h39q18 -40 38 -58l-1 1q30 -15 57 -15z" />
    <glyph glyph-name="four.dnom" horiz-adv-x="322" 
d="M172 -5v73h-148l-10 23q31 57 85 120.5t107 106.5l34 -12l-3 -81v-123h63v-33h-63v-73q10 -1 30.5 -4.5t28.5 -4.5v-27h-177v27zM74 102h98v132q-57 -53 -100 -130z" />
    <glyph glyph-name="five.dnom" horiz-adv-x="285" 
d="M118 -47q-40 0 -76 17l-18 9l-12 74h39q17 -41 28 -53l-2 1q24 -16 37 -16q33 0 57 23.5t24 73.5q0 26 -12.5 41t-33.5 15q-39 0 -77 -29l-32 9l21 188h105l81 6l-8 -64l-62 3h-77q-2 -16 -8 -46t-7 -45q36 17 69 17q45 0 78 -24.5t33 -67.5q0 -48 -31 -76
q-62 -56 -116 -56z" />
    <glyph glyph-name="six.dnom" horiz-adv-x="304" 
d="M263 299q-69 -31 -104.5 -63.5t-54.5 -83.5q42 24 76 24q39 0 71.5 -26t32.5 -75t-26 -71v1q-56 -52 -108 -52q-57 0 -92.5 33.5t-35.5 94.5q0 48 22 96t58 79q55 42 154 72zM158 139q-40 0 -67 -32l2 1q-1 -7 -1 -19q0 -46 19.5 -74t49.5 -28q25 0 39 19.5t14 52.5
q0 39 -17 59.5t-39 20.5z" />
    <glyph glyph-name="seven.dnom" horiz-adv-x="268" 
d="M260 306l16 -19q-57 -78 -87 -149.5t-39 -164.5q-2 -17 -46 -17q-20 0 -30.5 4.5t-7.5 14.5q31 98 63.5 156t79.5 118l-5 7h-124q-8 0 -19 -49q0 -1 -1 -4.5t-1 -4.5h-44l21 110l72 -2h152z" />
    <glyph glyph-name="eight.dnom" horiz-adv-x="303" 
d="M22 51q0 35 66 82l-1 4q-49 31 -49 83q0 39 33.5 65.5t79.5 26.5q51 0 82.5 -22t31.5 -58q0 -40 -55 -80l3 2v-5q68 -32 68 -89q0 -41 -36 -74t-94 -33q-53 0 -91 27t-38 71zM82 50q0 -30 18.5 -48t52.5 -18q31 0 49 17t18 46q0 28 -24.5 44t-75.5 30q-38 -30 -38 -71z
M95 234q0 -26 19 -41.5t65 -30.5q25 32 25 71q0 23 -14.5 36.5t-38.5 13.5q-26 0 -41 -14.5t-15 -34.5z" />
    <glyph glyph-name="nine.dnom" horiz-adv-x="304" 
d="M41 -32q73 33 105.5 62t51.5 84q-40 -24 -74 -24q-39 0 -72 26t-33 74q0 50 27 72v-1q53 51 109 51t91 -33t35 -94q0 -50 -20.5 -97t-59.5 -78q-55 -42 -153 -71zM146 127q35 0 66 33l-2 -1q0 2 0.5 5.5t0.5 4.5v9q0 46 -19.5 73.5t-48.5 27.5q-26 0 -40 -19t-14 -52
q0 -39 17 -60t40 -21z" />
    <glyph glyph-name="zero.subs" horiz-adv-x="333" 
d="M24 5q0 92 41 139.5t106 47.5q62 0 100.5 -48t38.5 -139q0 -84 -38.5 -128t-100.5 -44q-65 0 -106 43.5t-41 128.5zM98 5q0 -74 20.5 -108t52.5 -34q65 0 65 142q0 80 -18 119t-47 39q-31 0 -52 -40.5t-21 -117.5z" />
    <glyph glyph-name="one.subs" horiz-adv-x="261" 
d="M36 107l-10 33q87 27 115 50l38 -4v-310q12 -1 39 -4.5t39 -4.5v-27h-225v27l76 9v253q-8 -3 -12 -4q-22 -9 -60 -18z" />
    <glyph glyph-name="two.subs" horiz-adv-x="287" 
d="M128 147q-31 0 -49 -20h1q-12 -19 -12 -46h-46l15 73q17 16 48.5 27t48.5 11q53 0 87.5 -28.5t34.5 -74.5q0 -35 -50 -91t-120 -110v-2.5t1 -2.5l90 6t88 5v-57l-247 3l-7 27q94 83 132.5 130.5t38.5 85.5q0 28 -16.5 46t-37.5 18z" />
    <glyph glyph-name="three.subs" horiz-adv-x="287" 
d="M142 -136q20 0 36 16.5t16 46.5q0 34 -24.5 54.5t-45.5 17.5l-47 -6l-9 31q45 7 79.5 29.5t34.5 48.5q0 48 -50 48q-30 0 -47 -15h2q-12 -17 -12 -41h-43l14 66q18 13 49 22.5t49 9.5q50 0 79.5 -20t29.5 -51q0 -44 -70 -86v-5q35 -9 59.5 -34.5t24.5 -56.5
q0 -45 -40.5 -75.5t-92.5 -30.5q-60 0 -105 26l-20 77h39q18 -40 38 -58l-1 1q30 -15 57 -15z" />
    <glyph glyph-name="four.subs" horiz-adv-x="322" 
d="M172 -125v73h-148l-10 23q31 57 85 120.5t107 106.5l34 -12l-3 -81v-123h63v-33h-63v-73q10 -1 30.5 -4.5t28.5 -4.5v-27h-177v27zM74 -18h98v132q-57 -53 -100 -130z" />
    <glyph glyph-name="five.subs" horiz-adv-x="285" 
d="M118 -167q-40 0 -76 17l-18 9l-12 74h39q17 -41 28 -53l-2 1q24 -16 37 -16q33 0 57 23.5t24 73.5q0 26 -12.5 41t-33.5 15q-39 0 -77 -29l-32 9l21 188h105l81 6l-8 -64l-62 3h-77q-2 -16 -8 -46.5t-7 -44.5q36 17 69 17q45 0 78 -24.5t33 -67.5q0 -48 -31 -76
q-62 -56 -116 -56z" />
    <glyph glyph-name="six.subs" horiz-adv-x="304" 
d="M263 179q-69 -31 -104.5 -63.5t-54.5 -83.5q42 24 76 24q39 0 71.5 -26t32.5 -75t-26 -71v1q-56 -52 -108 -52q-57 0 -92.5 33.5t-35.5 94.5q0 48 22 96t58 79q55 42 154 72zM158 19q-40 0 -67 -32l2 1q-1 -7 -1 -19q0 -46 19.5 -74t49.5 -28q25 0 39 19.5t14 52.5
q0 39 -17 59.5t-39 20.5z" />
    <glyph glyph-name="seven.subs" horiz-adv-x="268" 
d="M260 186l16 -19q-57 -78 -87 -149.5t-39 -164.5q-2 -17 -46 -17q-20 0 -30.5 4.5t-7.5 14.5q31 98 63.5 156t79.5 118l-5 7h-124q-8 0 -19 -49q0 -1 -1 -4.5t-1 -4.5h-44l21 110l72 -2h152z" />
    <glyph glyph-name="eight.subs" horiz-adv-x="303" 
d="M22 -69q0 35 66 82l-1 4q-49 31 -49 83q0 39 33.5 65.5t79.5 26.5q51 0 82.5 -22t31.5 -58q0 -40 -55 -80l3 2v-5q68 -32 68 -89q0 -41 -36 -74t-94 -33q-53 0 -91 27t-38 71zM82 -70q0 -30 18.5 -48t52.5 -18q31 0 49 17t18 46q0 28 -24.5 44t-75.5 30q-38 -30 -38 -71z
M95 114q0 -26 19 -41.5t65 -30.5q25 32 25 71q0 23 -14.5 36.5t-38.5 13.5q-26 0 -41 -14.5t-15 -34.5z" />
    <glyph glyph-name="nine.subs" horiz-adv-x="304" 
d="M41 -152q73 33 105.5 62t51.5 84q-40 -24 -74 -24q-39 0 -72 26t-33 74q0 50 27 72v-1q53 51 109 51t91 -33t35 -94q0 -50 -20.5 -97t-59.5 -78q-55 -42 -153 -71zM146 7q35 0 66 33l-2 -1q0 2 0.5 5.5t0.5 4.5v9q0 46 -19.5 73.5t-48.5 27.5q-26 0 -40 -19t-14 -52
q0 -39 17 -60t40 -21z" />
    <glyph glyph-name="uni2011.case" horiz-adv-x="335" 
d="M50 353l64 -3h109l77 3l-15 -83l-61 3h-126l-63 -3z" />
    <glyph glyph-name="zero.onum.tnum" horiz-adv-x="550" 
d="M30 241q0 109 71 181.5t176 72.5q48 0 90 -14t77.5 -43t56 -79.5t20.5 -117.5q0 -116 -74.5 -185t-174.5 -69q-107 0 -174.5 71.5t-67.5 182.5zM126 241q0 -99 43 -150.5t103 -51.5q68 0 110.5 51t42.5 151q0 98 -40.5 150t-112.5 52q-65 0 -105.5 -52t-40.5 -150z" />
    <glyph glyph-name="one.onum.tnum" horiz-adv-x="550" 
d="M304 495l32 -14v-419l117 -20v-42h-326v42l118 20v344q-65 -24 -136 -33l-13 56q138 27 208 66z" />
    <glyph glyph-name="two.onum.tnum" horiz-adv-x="550" 
d="M90 0l-20 54q60 42 98 70.5t85.5 69t71 76t23.5 66.5q0 38 -23 58.5t-64 20.5q-88 0 -150 -74l-30 31q87 123 206 123q74 0 116.5 -37.5t42.5 -97.5q0 -40 -30 -83.5t-63.5 -71t-86 -66t-68.5 -52.5l6 -14l275 20l-4 -93h-385z" />
    <glyph glyph-name="three.onum.tnum" horiz-adv-x="550" 
d="M127 361l-32 31l72 77q45 26 89 26q64 0 105 -36.5t41 -90.5q0 -78 -74 -124l5 -10q57 1 89 -30.5t32 -85.5q0 -61 -41 -121.5t-98 -101.5t-114 -67t-92 -26l-65 76l22 37l83 -34q35 4 70 18t67 37.5t52 61.5t20 84q0 51 -37 80t-71 13l-67 -36l-24 44q12 8 39 24.5
t38 23.5t29 21.5t25.5 25t14 26.5t6.5 34q0 37 -22 60t-55 23q-58 0 -107 -60z" />
    <glyph glyph-name="four.onum.tnum" horiz-adv-x="550" 
d="M329 -198l-22 25l7 91v121h-265l-18 23l331 433l48 -17l-5 -147v-234h34l77 5v-67l-73 5h-38v-109l5 -93zM314 327l-12 6l-169 -226l6 -10h175v230z" />
    <glyph glyph-name="five.onum.tnum" horiz-adv-x="550" 
d="M427 93q0 -61 -39.5 -117.5t-95 -93t-112 -58.5t-93.5 -22l-65 86l22 32l83 -39q36 2 70.5 13t67.5 31t53.5 55.5t20.5 81.5q0 34 -19.5 57t-47.5 30.5t-58 11t-52 -1.5l-36 27l11 299h197l133 10l-14 -108l-101 5h-170l-4 -133l15 -13q100 8 167 -30t67 -123z" />
    <glyph glyph-name="six.onum.tnum" horiz-adv-x="550" 
d="M167 336l5 -5q89 57 152 57q41 0 80 -17.5t68 -60t29 -103.5q0 -92 -42 -127q-105 -93 -190 -93q-97 0 -158 60.5t-61 170.5q0 93 37 178.5t105 138.5q104 80 260 126l10 -44q-138 -62 -198.5 -118t-96.5 -163zM284 328q-80 0 -133 -61q-2 -24 -2 -35q0 -86 40 -138.5
t100 -52.5q54 0 84 37t30 98q0 73 -35 112.5t-84 39.5z" />
    <glyph glyph-name="seven.onum.tnum" horiz-adv-x="550" 
d="M86 -187l-13 31q75 111 120 180t105.5 172t102.5 190l-8 14l-302 1l4 89l128 -5h253l26 -31q-204 -380 -328 -642z" />
    <glyph glyph-name="eight.onum.tnum" horiz-adv-x="550" 
d="M52 161q0 68 119 155v9q-90 53 -90 147q0 70 57 118t135 48q88 0 141.5 -40t53.5 -103q0 -50 -90 -140v-8q61 -29 90 -67t29 -101q0 -75 -61.5 -133.5t-162.5 -58.5q-90 0 -155.5 48t-65.5 126zM134 160q0 -56 37.5 -90t106.5 -34q63 0 100.5 32.5t37.5 86.5t-50.5 86
t-153.5 61q-78 -60 -78 -142zM158 499q0 -49 38 -77.5t135 -56.5q55 59 55 132q0 43 -30.5 68t-81.5 25q-55 0 -85.5 -27t-30.5 -64z" />
    <glyph glyph-name="nine.onum.tnum" horiz-adv-x="550" 
d="M384 147l-5 5q-88 -57 -152 -57q-41 0 -80 17.5t-68 60t-29 103.5q0 91 42 127q104 92 191 92q97 0 157.5 -60t60.5 -170q0 -93 -36.5 -179t-104.5 -138q-55 -48 -133.5 -91t-161.5 -70l-11 45q154 67 221.5 130t108.5 185zM268 156q79 0 132 61q2 24 2 35q0 85 -40 137
t-100 52q-54 0 -83.5 -36.5t-29.5 -97.5q0 -73 35 -112t84 -39z" />
    <glyph glyph-name="sidecaron.part" horiz-adv-x="500" 
d="M265 499v8l16 199h84v-10l-59 -197h-41z" />
    <glyph glyph-name="gcomma.part" horiz-adv-x="500" 
d="M294 680l45 -14l-51 -86l-26 -91l-75 24l43 89z" />
    <glyph glyph-name="Stroke.part" horiz-adv-x="430" 
d="M49 514h677v-52h-677v52z" />
    <glyph glyph-name="stroke.part" horiz-adv-x="430" 
d="M49 545h292v-50h-292v50z" />
    <glyph glyph-name="parenleft.case" horiz-adv-x="352" 
d="M336 -148l-29 -34q-88 56 -138 124t-70 159q-19 101 -18.5 222t20.5 216q37 161 205 268l30 -39q-129 -99 -154 -242q-22 -152 -9 -390q11 -178 163 -284z" />
    <glyph glyph-name="parenright.case" horiz-adv-x="352" 
d="M45 -182l-29 34q152 106 163 284q13 238 -9 390q-25 143 -154 242l30 39q168 -107 205 -268q20 -95 20.5 -216t-18.5 -222q-20 -91 -70 -159t-138 -124z" />
    <glyph glyph-name="bracketleft.case" horiz-adv-x="335" 
d="M312 797v-45l-165 -15v-841l165 -15v-45h-243v961h243z" />
    <glyph glyph-name="bracketright.case" horiz-adv-x="335" 
d="M23 752v45h243v-961h-243v45l165 15v841z" />
    <glyph glyph-name="braceleft.case" horiz-adv-x="435" 
d="M127 343v-16q63 -9 107 -51.5t44 -104.5q0 -27 -22.5 -95t-22.5 -108q0 -94 156 -94v-42q-137 0 -187.5 35t-50.5 111l43 201q0 59 -43.5 90t-114.5 31v66q67 0 112.5 35t45.5 82l-41 185q0 71 51.5 100.5t178.5 29.5v-42q-150 0 -150 -79l45 -189q0 -53 -43.5 -92.5
t-107.5 -52.5z" />
    <glyph glyph-name="braceright.case" horiz-adv-x="435" 
d="M308 327v16q-64 13 -107.5 52.5t-43.5 92.5l45 189q0 79 -150 79v42q127 0 178.5 -29.5t51.5 -100.5l-41 -185q0 -47 45.5 -82t112.5 -35v-66q-71 0 -114.5 -31t-43.5 -90l43 -201q0 -76 -50.5 -111t-187.5 -35v42q156 0 156 94q0 40 -22.5 108t-22.5 95q0 62 44 104.5
t107 51.5z" />
    <glyph glyph-name="dotaccent.case" horiz-adv-x="500" 
d="M185 569q0 27 18.5 46t45.5 19t46.5 -19t19.5 -46t-19.5 -45.5t-46.5 -18.5t-45.5 18.5t-18.5 45.5z" />
    <glyph glyph-name="Iacute_Jacute" horiz-adv-x="737" 
d="M512 15v591l-96 14v43h289v-43l-89 -14v-541q0 -44 -6 -70t-25 -54q-69 -103 -132 -170l-44 40q57 71 82 113q21 33 21 91zM52 663h265v-43l-80 -14v-549l80 -14v-43h-265v43l80 14v549l-80 14v43zM506 721v8l86 129h94v-10l-129 -127h-51zM125 721v8l86 129h94v-10
l-129 -127h-51z" />
    <glyph glyph-name="iacute_jacute" horiz-adv-x="597" 
d="M426 409l-82 17v28l152 41h25v-482q0 -83 -48.5 -143.5t-146.5 -112.5l-22 41q36 25 50.5 35.5t35.5 32t28.5 45t7.5 54.5v444zM204 495v-437l76 -21v-37h-249v37l77 21v351l-82 17v28l152 41h26zM93 541v8l86 164h94v-10l-129 -162h-51zM406 541v8l86 164h94v-10
l-129 -162h-51z" />
    <glyph glyph-name="idotaccent" horiz-adv-x="307" 
d="M204 495v-437l76 -21v-37h-249v37l77 21v351l-82 17v28l152 41h26zM85 666q0 26 19.5 46t45.5 20q27 0 46.5 -20t19.5 -46t-19.5 -45.5t-46.5 -19.5q-26 0 -45.5 19.5t-19.5 45.5z" />
    <glyph glyph-name="acute.plk" horiz-adv-x="500" 
d="M220 498v8l41 164h84v-10l-79 -162h-46z" />
    <glyph glyph-name="acute.case.plk" horiz-adv-x="500" 
d="M220 498v8l51 129h79v-10l-79 -127h-51z" />
    <glyph glyph-name="Dotlessi" horiz-adv-x="369" 
d="M52 663h265v-43l-81 -14v-549l81 -14v-43h-265v43l80 14v549l-80 14v43z" />
    <glyph glyph-name="zero.tallfig" horiz-adv-x="623" 
d="M58 314q0 176 73 268t187 92q110 0 179 -92.5t69 -267.5q0 -160 -69 -244t-179 -84q-114 0 -187 83.5t-73 244.5zM164 315q0 -146 43 -213t111 -67q64 0 103.5 68t39.5 212q0 159 -39.5 235.5t-103.5 76.5q-66 0 -110 -80t-44 -232z" />
    <glyph glyph-name="one.tallfig" horiz-adv-x="489" 
d="M80 523l-16 54q158 49 208 93q8 0 23 -2t22 -3v-606l150 -16v-43h-393v43l145 16v508l-44 -15q-46 -17 -95 -29z" />
    <glyph glyph-name="two.tallfig" horiz-adv-x="537" 
d="M240 595q-71 0 -106 -43q-24 -44 -26 -85h-51l27 138q32 28 85.5 48.5t81.5 20.5q91 0 152.5 -55t61.5 -140q0 -69 -95 -178t-228 -213l7 -16l332 21v-98q-73 1 -217 3t-216 2l-13 49q173 157 249.5 252t76.5 166q0 56 -37 92t-84 36z" />
    <glyph glyph-name="three.tallfig" horiz-adv-x="537" 
d="M266 36q44 0 81 33.5t37 94.5q0 68 -54 108.5t-100 35.5l-71 -11l-14 51q86 14 151 58.5t65 96.5q0 97 -114 97q-65 0 -101 -32q-21 -35 -23 -74h-48l27 122q33 23 86.5 40.5t81.5 17.5q86 0 137.5 -38t51.5 -96q0 -49 -39.5 -92.5t-92.5 -74.5v-11q64 -13 110.5 -63.5
t46.5 -112.5q0 -85 -70.5 -142.5t-162.5 -57.5q-103 0 -184 46l2 -1l-37 144h39q31 -67 77 -108q60 -31 118 -31z" />
    <glyph glyph-name="four.tallfig" horiz-adv-x="603" 
d="M340 59v152h-281l-19 38q57 103 159 228t194 205l42 -16l-5 -156v-245h116v-53h-116v-153l109 -16v-43h-299v43zM340 532l-17 8q-115 -107 -203 -264l7 -11h213v267z" />
    <glyph glyph-name="five.tallfig" horiz-adv-x="534" 
d="M221 -14q-64 0 -134 33l-27 12l-22 139h39q25 -68 57 -101q45 -31 80 -31q68 0 120 47t52 147q0 52 -29.5 82t-78.5 30q-86 0 -149 -53l-39 12l43 358h179q22 1 67.5 5.5t67.5 5.5q-2 -19 -7 -56.5t-7 -56.5l-102 5h-161l-22 -184l14 -8q21 13 61.5 25.5t64.5 12.5
q78 0 135.5 -46.5t57.5 -126.5q0 -98 -50 -145q-112 -106 -210 -106z" />
    <glyph glyph-name="six.tallfig" horiz-adv-x="569" 
d="M172 354l8 -8q94 63 157 63q68 0 124 -49t56 -142q0 -98 -42 -134q-111 -98 -195 -98q-98 0 -160.5 64t-62.5 180q0 92 40 184.5t106 149.5q110 86 264 133l10 -44q-143 -66 -205.5 -125.5t-99.5 -173.5zM296 347q-85 0 -140 -65q-2 -26 -2 -37q0 -92 41.5 -148
t105.5 -56q58 0 89.5 39.5t31.5 105.5q0 77 -37.5 119t-88.5 42z" />
    <glyph glyph-name="seven.tallfig" horiz-adv-x="503" 
d="M476 661l26 -31q-102 -150 -163.5 -297.5t-77.5 -312.5q-1 -11 -19 -19t-49 -8q-29 0 -43.5 6.5t-9.5 21.5q41 137 89.5 243.5t84.5 161.5t94 131l-8 16l-253 1q-31 0 -56 -99l-3 -13h-47l40 205l120 -6h275z" />
    <glyph glyph-name="eight.tallfig" horiz-adv-x="568" 
d="M57 170q0 70 123 158v10q-94 58 -94 161q0 73 58.5 124t137.5 51q90 0 144.5 -42t54.5 -109q0 -38 -28 -79t-70 -74v-8q66 -30 97 -69.5t31 -103.5q0 -79 -62.5 -141t-166.5 -62q-91 0 -158 51t-67 133zM136 169q0 -60 39.5 -96.5t111.5 -36.5q67 0 107 35t40 93
q0 55 -54 88.5t-162 62.5q-82 -62 -82 -146zM161 527q0 -53 40 -85t142 -63q60 68 60 146q0 47 -33 73.5t-87 26.5q-58 0 -90 -29t-32 -69z" />
    <glyph glyph-name="nine.tallfig" horiz-adv-x="569" 
d="M397 306l-8 8q-94 -62 -157 -62q-68 0 -124.5 49t-56.5 142q0 95 43 133q106 98 195 98q99 0 161 -63.5t62 -179.5q0 -93 -39.5 -185.5t-104.5 -149.5q-113 -83 -265 -132q-2 8 -5.5 23t-5.5 23q143 66 205.5 124.5t99.5 171.5zM274 314q84 0 140 67q2 24 2 37
q0 90 -42 145.5t-106 55.5q-57 0 -88.5 -39t-31.5 -104q0 -78 37.5 -120t88.5 -42z" />
    <glyph glyph-name="zero.tallfig.tnum" horiz-adv-x="560" 
d="M32 314q0 176 71.5 268t183.5 92q108 0 175.5 -92.5t67.5 -267.5q0 -160 -67.5 -244t-175.5 -84q-112 0 -183.5 83.5t-71.5 244.5zM136 315q0 -146 41.5 -213t109.5 -67q63 0 101.5 68t38.5 212q0 158 -39 235t-101 77q-66 0 -108.5 -80t-42.5 -232z" />
    <glyph glyph-name="one.tallfig.tnum" horiz-adv-x="560" 
d="M110 523l-16 54q158 49 208 93q8 0 23 -2t22 -3v-606l150 -16v-43h-393v43l145 16v508l-44 -15q-46 -17 -95 -29z" />
    <glyph glyph-name="two.tallfig.tnum" horiz-adv-x="560" 
d="M256 595q-71 0 -106 -43q-24 -44 -26 -85h-51l27 138q32 28 85.5 48.5t81.5 20.5q91 0 152.5 -55t61.5 -140q0 -69 -95 -178t-228 -213l7 -16l332 21v-98q-73 1 -217 3t-216 2l-13 49q173 157 249.5 252t76.5 166q0 56 -37 92t-84 36z" />
    <glyph glyph-name="three.tallfig.tnum" horiz-adv-x="560" 
d="M279 36q44 0 81 33.5t37 94.5q0 68 -54 108.5t-100 35.5l-71 -11l-14 51q86 14 151 58.5t65 96.5q0 97 -114 97q-65 0 -101 -32q-21 -35 -23 -74h-48l27 122q33 23 86.5 40.5t81.5 17.5q86 0 137.5 -38t51.5 -96q0 -49 -39.5 -92.5t-92.5 -74.5v-11q64 -13 110.5 -63.5
t46.5 -112.5q0 -85 -70.5 -142.5t-162.5 -57.5q-104 0 -184 46l2 -1l-37 144h39q31 -67 77 -108q60 -31 118 -31z" />
    <glyph glyph-name="four.tallfig.tnum" horiz-adv-x="560" 
d="M325 59v152h-281l-19 38q57 103 159 228t194 205l42 -16l-5 -156v-245h116v-53h-116v-153l109 -16v-43h-299v43zM325 532l-17 8q-115 -107 -203 -264l7 -11h213v267z" />
    <glyph glyph-name="five.tallfig.tnum" horiz-adv-x="560" 
d="M242 -14q-64 0 -134 33l-27 12l-22 139h39q25 -68 57 -101q45 -31 80 -31q68 0 120 47t52 147q0 52 -29.5 82t-78.5 30q-86 0 -149 -53l-39 12l43 358h179q22 1 67.5 5.5t67.5 5.5q-2 -19 -7 -56.5t-7 -56.5l-102 5h-161l-22 -184l14 -8q21 13 61.5 25.5t64.5 12.5
q78 0 135.5 -46.5t57.5 -126.5q0 -98 -50 -145q-112 -106 -210 -106z" />
    <glyph glyph-name="six.tallfig.tnum" horiz-adv-x="560" 
d="M166 354l8 -8q94 63 157 63q68 0 124 -49t56 -142q0 -98 -42 -134q-111 -98 -195 -98q-98 0 -160.5 64t-62.5 180q0 92 40 184.5t106 149.5q110 86 264 133l10 -44q-143 -66 -205.5 -125.5t-99.5 -173.5zM290 347q-85 0 -140 -65q-2 -26 -2 -37q0 -92 41.5 -148
t105.5 -56q58 0 89.5 39.5t31.5 105.5q0 77 -37.5 119t-88.5 42z" />
    <glyph glyph-name="seven.tallfig.tnum" horiz-adv-x="560" 
d="M509 661l26 -31q-102 -150 -163.5 -297.5t-77.5 -312.5q-1 -11 -19 -19t-49 -8q-29 0 -43.5 6.5t-9.5 21.5q41 137 89.5 243.5t84.5 161.5t94 131l-8 16l-253 1q-31 0 -56 -99l-3 -13h-47l40 205l120 -6h275z" />
    <glyph glyph-name="eight.tallfig.tnum" horiz-adv-x="560" 
d="M53 170q0 70 123 158v10q-94 58 -94 161q0 73 58.5 124t137.5 51q90 0 144.5 -42t54.5 -109q0 -38 -28 -79t-70 -74v-8q66 -30 97 -69.5t31 -103.5q0 -79 -62.5 -141t-166.5 -62q-91 0 -158 51t-67 133zM132 169q0 -60 39.5 -96.5t111.5 -36.5q67 0 107 35t40 93
q0 55 -54 88.5t-162 62.5q-82 -62 -82 -146zM157 527q0 -53 40 -85t142 -63q60 68 60 146q0 47 -33 73.5t-87 26.5q-58 0 -90 -29t-32 -69z" />
    <glyph glyph-name="nine.tallfig.tnum" horiz-adv-x="560" 
d="M404 306l-8 8q-94 -62 -157 -62q-68 0 -124.5 49t-56.5 142q0 95 43 133q106 98 195 98q99 0 161 -63.5t62 -179.5q0 -93 -39.5 -185.5t-104.5 -149.5q-113 -83 -265 -132q-2 8 -5.5 23t-5.5 23q143 66 205.5 124.5t99.5 171.5zM281 314q84 0 140 67q2 24 2 37
q0 90 -42 145.5t-106 55.5q-57 0 -88.5 -39t-31.5 -104q0 -78 37.5 -120t88.5 -42z" />
    <glyph glyph-name="at.tallfig" horiz-adv-x="816" 
d="M699 450q0 35 -9 71.5t-29.5 75t-62.5 63t-99 24.5q-96 0 -181 -72.5t-133.5 -185.5t-48.5 -230q0 -118 43.5 -177t122.5 -59q89 0 167 63l21 -42q-44 -35 -97.5 -54.5t-99.5 -19.5q-114 0 -172.5 76t-58.5 214q0 92 35 187t93 171t141 124.5t171 48.5q123 0 195.5 -76.5
t72.5 -201.5q0 -84 -32.5 -154.5t-80 -111.5t-95.5 -63.5t-85 -22.5q-34 0 -37.5 34t22.5 93l-13 9q-19 -28 -34.5 -47t-38 -42.5t-47 -36t-48.5 -12.5q-29 0 -45 24.5t-16 56.5q0 82 59 183q46 77 106.5 128.5t115.5 51.5q29 0 42 -28h5q6 16 13.5 21.5t27.5 5.5t27 -4
t4 -12l-108 -331q-7 -31 13 -31q18 0 46 20t57 54t50 92t21 123zM300 210q0 -44 24 -44q34 0 93.5 79t102.5 182q9 70 -29 70q-33 0 -70.5 -34.5t-67.5 -87.5q-53 -94 -53 -165z" />
    <glyph glyph-name="dollar.tallfig" horiz-adv-x="562" 
d="M84 25l-13 181h50q14 -88 50 -125.5t97 -37.5v250q-2 0 -3 1q-39 13 -67.5 27.5t-57.5 38t-44.5 57.5t-15.5 77q0 82 55 128.5t133 52.5v105h37v-104q61 -2 153 -29l6 -165h-38q-29 128 -121 139v-236q44 -16 73.5 -31t59.5 -38t45 -55.5t15 -74.5q0 -75 -51.5 -132
t-141.5 -65v-114h-37v113q-53 1 -106.5 12.5t-77.5 24.5zM408 164q0 71 -103 115v-233q48 8 75.5 38.5t27.5 79.5zM172 506q0 -64 96 -107v222q-47 -5 -71.5 -35.5t-24.5 -79.5z" />
    <glyph glyph-name="cent.tallfig" horiz-adv-x="433" 
d="M354 237l23 -31q-24 -25 -60.5 -45t-70.5 -27v-104h-42v102q-73 6 -117.5 62.5t-44.5 134.5q0 103 47 147q54 51 115 72v108h42v-98h7q65 0 100 -17l3 -125h-39q-5 42 -14 65q-30 18 -57 20v-304q4 -1 14 -1q51 0 94 41zM121 371q0 -129 83 -164v291q-83 -19 -83 -127z
" />
    <glyph glyph-name="sterling.tallfig" horiz-adv-x="564" 
d="M72 350h89v99q0 111 109 181q70 44 124 44q44 0 92 -19v-154h-32q-22 114 -104 114q-33 0 -63 -32t-30 -108v-125h134v-43h-134q-1 -71 -26.5 -118t-72.5 -95l4 -8q64 -6 212 -6q47 0 67 19t24 76h33q-2 -30 -6 -90.5t-5 -88.5q-24 -9 -70 -9q-45 0 -131 22
q-89 22 -145 28q-22 -50 -63 -50q-13 0 -21.5 8.5t-8.5 21.5q0 22 20 43t46 31q47 56 47 135v81h-89v43z" />
    <glyph glyph-name="yen.tallfig" horiz-adv-x="571" 
d="M310 330l139 265l-101 26v39h218v-40l-60 -29l-171 -326v-4h135v-42h-135v-53h135v-42h-135v-66l83 -15v-43h-268v43l84 15v66h-133v42h133v53h-133v42h133v3l-170 338q-9 2 -29.5 7t-29.5 7v44h235v-43l-75 -15l127 -272h18z" />
    <glyph glyph-name="Euro.tallfig" horiz-adv-x="672" 
d="M74 410h61q20 121 94 192.5t174 71.5q104 0 194 -65l-30 -133h-24q-1 77 -46 115t-94 38q-64 0 -109 -55t-58 -164h310l-10 -41h-303q-1 -13 -1 -39v-16h293l-10 -41h-281q11 -113 59 -174.5t108 -61.5q119 0 161 132q7 -2 17.5 -6.5t17.5 -6.5q-28 -82 -81 -125.5
t-126 -43.5q-102 0 -173.5 75.5t-84.5 210.5h-68l10 41h55v15q0 27 1 40h-66z" />
    <glyph glyph-name="numbersign.tallfig" horiz-adv-x="525" 
d="M92 517l101 -15l42 210l48 -7l-43 -209l105 -15l47 231l49 -7l-47 -231l108 -15q-1 -10 -4 -30.5t-4 -30.5l-112 16l-36 -174l95 -13l-7 -61l-100 14l-44 -215q-8 1 -24.5 2t-24.5 2l44 218l-104 14l-48 -236q-9 1 -25 2t-25 2l49 239l-108 16l7 61l114 -16l35 173
l-96 14q1 10 4 30.5t4 30.5zM228 435l-35 -173l104 -15l36 174z" />
    <glyph glyph-name="percent.tallfig" horiz-adv-x="573" 
d="M306 547l-8 -2q-1 -86 -45 -142.5t-101 -56.5q-48 0 -78.5 38.5t-30.5 95.5q0 78 48 136t103 58q33 0 58.5 -19.5t37.5 -54.5q6 -17 26.5 -27t46.5 -10q50 0 89 34q24 71 54 71q8 0 14.5 -6t6.5 -18q0 -16 -13.5 -34.5t-30.5 -29.5l-217 -303q-21 -31 -203 -296l-30 24
l211 290l168 245q-37 -13 -58 -13q-28 0 -48 20zM275 121q0 78 47.5 135.5t102.5 57.5q46 0 75 -33t29 -90q0 -91 -44 -147.5t-99 -56.5q-50 0 -80.5 38t-30.5 96zM443 269q-35 0 -66.5 -56.5t-31.5 -120.5q0 -30 13 -46.5t33 -16.5q36 0 66 44t30 129q0 33 -12 50t-32 17z
M211 629q-35 0 -66.5 -57t-31.5 -121q0 -63 49 -63q35 0 64 45t29 127q0 33 -12 51t-32 18z" />
    <glyph glyph-name="perthousand.tallfig" horiz-adv-x="853" 
d="M556 121q0 78 47.5 135.5t103.5 57.5q45 0 74.5 -33.5t29.5 -89.5q0 -91 -44.5 -147.5t-99.5 -56.5q-49 0 -80 38t-31 96zM724 269q-35 0 -66 -56.5t-31 -120.5q0 -30 13 -46.5t33 -16.5q35 0 65 44t30 129q0 33 -12 50t-32 17zM306 547l-8 -2q-1 -86 -45 -142.5
t-101 -56.5q-48 0 -78.5 38.5t-30.5 95.5q0 78 48 136t103 58q33 0 58.5 -19.5t37.5 -54.5q6 -17 26.5 -27t46.5 -10q50 0 89 34q24 71 54 71q8 0 14.5 -6t6.5 -18q0 -16 -13.5 -34.5t-30.5 -29.5l-217 -303q-21 -31 -203 -296l-30 24l211 290l168 245q-37 -13 -58 -13
q-28 0 -48 20zM275 121q0 78 47.5 135.5t102.5 57.5q46 0 75 -33t29 -90q0 -91 -44 -147.5t-99 -56.5q-50 0 -80.5 38t-30.5 96zM443 269q-35 0 -66.5 -56.5t-31.5 -120.5q0 -30 13 -46.5t33 -16.5q36 0 66 44t30 129q0 33 -12 50t-32 17zM211 629q-35 0 -66.5 -57
t-31.5 -121q0 -63 49 -63q35 0 64 45t29 127q0 33 -12 51t-32 18z" />
    <glyph glyph-name="ordfeminine.tallfig" horiz-adv-x="375" 
d="M233 412v74q-63 -10 -109 -29q-20 -11 -20 -27q0 -61 46 -61q21 0 46 13.5t38 30.5zM70 548l-19 18q-2 14 -2 18q0 32 29 51q78 51 110 51q56 0 88.5 -26.5t32.5 -67.5v-226l53 -3v-32l-117 -23l-13 13v43h-4q-80 -56 -113 -56q-36 0 -61 28t-25 74q0 33 9 47.5t40 26.5
q55 20 155 35v45q0 35 -18 52.5t-48 17.5q-31 0 -47 -11v-67z" />
    <glyph glyph-name="ordmasculine.tallfig" horiz-adv-x="415" 
d="M25 486q0 56 16.5 97t44 62t56.5 31t60 10q88 0 138 -46.5t50 -127.5q0 -102 -54 -153t-134 -51q-81 0 -129 47.5t-48 130.5zM107 517q0 -169 107 -169q90 0 90 134q0 96 -28 130.5t-73 34.5q-43 0 -69.5 -34.5t-26.5 -95.5z" />
    <glyph glyph-name="degree.tallfig" horiz-adv-x="367" 
d="M40 524q0 59 42 101.5t101 42.5t101.5 -42.5t42.5 -101.5t-42.5 -101t-101.5 -42t-101 42.5t-42 100.5zM100 524q0 -39 22.5 -65.5t59.5 -26.5t60.5 26.5t23.5 65.5t-23.5 66.5t-60.5 27.5t-59.5 -27.5t-22.5 -66.5z" />
    <glyph glyph-name="zero.numr.tallfig" horiz-adv-x="333" 
d="M24 520q0 92 41 139.5t106 47.5q62 0 100.5 -48t38.5 -139q0 -84 -38.5 -128t-100.5 -44q-65 0 -106 43.5t-41 128.5zM98 520q0 -74 20.5 -108t52.5 -34q65 0 65 142q0 80 -18 119t-47 39q-31 0 -52 -40.5t-21 -117.5z" />
    <glyph glyph-name="one.numr.tallfig" horiz-adv-x="261" 
d="M36 622l-10 33q87 27 115 50l38 -4v-310q12 -1 39 -4.5t39 -4.5v-27h-225v27l76 9v253q-8 -3 -12 -4q-22 -9 -60 -18z" />
    <glyph glyph-name="two.numr.tallfig" horiz-adv-x="287" 
d="M128 662q-31 0 -49 -20h1q-12 -19 -12 -46h-46l15 73q17 16 48.5 27t48.5 11q53 0 87.5 -28.5t34.5 -74.5q0 -35 -50 -91t-120 -110v-2.5t1 -2.5l90 6t88 5v-57l-247 3l-7 27q94 83 132.5 130.5t38.5 85.5q0 28 -16.5 46t-37.5 18z" />
    <glyph glyph-name="three.numr.tallfig" horiz-adv-x="287" 
d="M142 379q20 0 36 16.5t16 46.5q0 34 -24.5 54.5t-45.5 17.5l-47 -6l-9 31q45 7 79.5 29.5t34.5 48.5q0 48 -50 48q-30 0 -47 -15h2q-12 -17 -12 -41h-43l14 66q18 13 49 22.5t49 9.5q50 0 79.5 -20t29.5 -51q0 -44 -70 -86v-5q35 -9 59.5 -34.5t24.5 -56.5
q0 -45 -40.5 -75.5t-92.5 -30.5q-60 0 -105 26l-20 77h39q18 -40 38 -58l-1 1q30 -15 57 -15z" />
    <glyph glyph-name="four.numr.tallfig" horiz-adv-x="322" 
d="M172 390v73h-148l-10 23q31 57 85 120.5t107 106.5l34 -12l-3 -81v-123h63v-33h-63v-73q10 -1 30.5 -4.5t28.5 -4.5v-27h-177v27zM74 497h98v132q-57 -53 -100 -130z" />
    <glyph glyph-name="five.numr.tallfig" horiz-adv-x="285" 
d="M118 348q-40 0 -76 17l-18 9l-12 74h39q17 -41 28 -53l-2 1q24 -16 37 -16q33 0 57 23.5t24 73.5q0 26 -12.5 41t-33.5 15q-39 0 -77 -29l-32 9l21 188h105l81 6l-8 -64l-62 3h-77q-2 -16 -8 -46t-7 -45q36 17 69 17q45 0 78 -24.5t33 -67.5q0 -48 -31 -76
q-62 -56 -116 -56z" />
    <glyph glyph-name="six.numr.tallfig" horiz-adv-x="304" 
d="M263 694q-69 -31 -104.5 -63.5t-54.5 -83.5q42 24 76 24q39 0 71.5 -26t32.5 -75t-26 -71v1q-56 -52 -108 -52q-57 0 -92.5 33.5t-35.5 94.5q0 48 22 96t58 79q55 42 154 72zM158 534q-40 0 -67 -32l2 1q-1 -7 -1 -19q0 -46 19.5 -74t49.5 -28q25 0 39 19.5t14 52.5
q0 39 -17 59.5t-39 20.5z" />
    <glyph glyph-name="seven.numr.tallfig" horiz-adv-x="268" 
d="M260 701l16 -19q-57 -78 -87 -149.5t-39 -164.5q-2 -17 -46 -17q-20 0 -30.5 4.5t-7.5 14.5q31 98 63.5 156t79.5 118l-5 7h-124q-8 0 -19 -49q0 -1 -1 -4.5t-1 -4.5h-44l21 110l72 -2h152z" />
    <glyph glyph-name="eight.numr.tallfig" horiz-adv-x="303" 
d="M22 446q0 35 66 82l-1 4q-49 31 -49 83q0 39 33.5 65.5t79.5 26.5q51 0 82.5 -22t31.5 -58q0 -40 -55 -80l3 2v-5q68 -32 68 -89q0 -41 -36 -74t-94 -33q-53 0 -91 27t-38 71zM82 445q0 -30 18.5 -48t52.5 -18q31 0 49 17t18 46q0 28 -24.5 44t-75.5 30q-38 -30 -38 -71z
M95 629q0 -26 19 -41.5t65 -30.5q25 32 25 71q0 23 -14.5 36.5t-38.5 13.5q-26 0 -41 -14.5t-15 -34.5z" />
    <glyph glyph-name="nine.numr.tallfig" horiz-adv-x="304" 
d="M41 363q73 33 105.5 62t51.5 84q-40 -24 -74 -24q-39 0 -72 26t-33 74q0 50 27 72v-1q53 51 109 51t91 -33t35 -94q0 -50 -20.5 -97t-59.5 -78q-55 -42 -153 -71zM146 522q35 0 66 33l-2 -1q0 2 0.5 5.5t0.5 4.5v9q0 46 -19.5 73.5t-48.5 27.5q-26 0 -40 -19t-14 -52
q0 -39 17 -60t40 -21z" />
    <glyph glyph-name="zero.dnom.tallfig" horiz-adv-x="333" 
d="M24 165q0 92 41 139.5t106 47.5q62 0 100.5 -48t38.5 -139q0 -84 -38.5 -128t-100.5 -44q-65 0 -106 43.5t-41 128.5zM98 165q0 -74 20.5 -108t52.5 -34q65 0 65 142q0 80 -18 119t-47 39q-31 0 -52 -40.5t-21 -117.5z" />
    <glyph glyph-name="one.dnom.tallfig" horiz-adv-x="261" 
d="M36 267l-10 33q87 27 115 50l38 -4v-310q12 -1 39 -4.5t39 -4.5v-27h-225v27l76 9v253q-8 -3 -12 -4q-22 -9 -60 -18z" />
    <glyph glyph-name="two.dnom.tallfig" horiz-adv-x="287" 
d="M128 307q-31 0 -49 -20h1q-12 -19 -12 -46h-46l15 73q17 16 48.5 27t48.5 11q53 0 87.5 -28.5t34.5 -74.5q0 -35 -50 -91t-120 -110v-2.5t1 -2.5l90 6t88 5v-57l-247 3l-7 27q94 83 132.5 130.5t38.5 85.5q0 28 -16.5 46t-37.5 18z" />
    <glyph glyph-name="three.dnom.tallfig" horiz-adv-x="287" 
d="M142 24q20 0 36 16.5t16 46.5q0 34 -24.5 54.5t-45.5 17.5l-47 -6l-9 31q45 7 79.5 29.5t34.5 48.5q0 48 -50 48q-30 0 -47 -15h2q-12 -17 -12 -41h-43l14 66q18 13 49 22.5t49 9.5q50 0 79.5 -20t29.5 -51q0 -44 -70 -86v-5q35 -9 59.5 -34.5t24.5 -56.5
q0 -45 -40.5 -75.5t-92.5 -30.5q-60 0 -105 26l-20 77h39q18 -40 38 -58l-1 1q30 -15 57 -15z" />
    <glyph glyph-name="four.dnom.tallfig" horiz-adv-x="322" 
d="M172 35v73h-148l-10 23q31 57 85 120.5t107 106.5l34 -12l-3 -81v-123h63v-33h-63v-73q10 -1 30.5 -4.5t28.5 -4.5v-27h-177v27zM74 142h98v132q-57 -53 -100 -130z" />
    <glyph glyph-name="five.dnom.tallfig" horiz-adv-x="285" 
d="M118 -7q-40 0 -76 17l-18 9l-12 74h39q17 -41 28 -53l-2 1q24 -16 37 -16q33 0 57 23.5t24 73.5q0 26 -12.5 41t-33.5 15q-39 0 -77 -29l-32 9l21 188h105l81 6l-8 -64l-62 3h-77q-2 -16 -8 -46t-7 -45q36 17 69 17q45 0 78 -24.5t33 -67.5q0 -48 -31 -76
q-62 -56 -116 -56z" />
    <glyph glyph-name="six.dnom.tallfig" horiz-adv-x="304" 
d="M263 339q-69 -31 -104.5 -63.5t-54.5 -83.5q42 24 76 24q39 0 71.5 -26t32.5 -75t-26 -71v1q-56 -52 -108 -52q-57 0 -92.5 33.5t-35.5 94.5q0 48 22 96t58 79q55 42 154 72zM158 179q-40 0 -67 -32l2 1q-1 -7 -1 -19q0 -46 19.5 -74t49.5 -28q25 0 39 19.5t14 52.5
q0 39 -17 59.5t-39 20.5z" />
    <glyph glyph-name="seven.dnom.tallfig" horiz-adv-x="268" 
d="M260 346l16 -19q-57 -78 -87 -149.5t-39 -164.5q-2 -17 -46 -17q-20 0 -30.5 4.5t-7.5 14.5q31 98 63.5 156t79.5 118l-5 7h-124q-8 0 -19 -49q0 -1 -1 -4.5t-1 -4.5h-44l21 110l72 -2h152z" />
    <glyph glyph-name="eight.dnom.tallfig" horiz-adv-x="303" 
d="M22 91q0 35 66 82l-1 4q-49 31 -49 83q0 39 33.5 65.5t79.5 26.5q51 0 82.5 -22t31.5 -58q0 -40 -55 -80l3 2v-5q68 -32 68 -89q0 -41 -36 -74t-94 -33q-53 0 -91 27t-38 71zM82 90q0 -30 18.5 -48t52.5 -18q31 0 49 17t18 46q0 28 -24.5 44t-75.5 30q-38 -30 -38 -71z
M95 274q0 -26 19 -41.5t65 -30.5q25 32 25 71q0 23 -14.5 36.5t-38.5 13.5q-26 0 -41 -14.5t-15 -34.5z" />
    <glyph glyph-name="nine.dnom.tallfig" horiz-adv-x="304" 
d="M41 8q73 33 105.5 62t51.5 84q-40 -24 -74 -24q-39 0 -72 26t-33 74q0 50 27 72v-1q53 51 109 51t91 -33t35 -94q0 -50 -20.5 -97t-59.5 -78q-55 -42 -153 -71zM146 167q35 0 66 33l-2 -1q0 2 0.5 5.5t0.5 4.5v9q0 46 -19.5 73.5t-48.5 27.5q-26 0 -40 -19t-14 -52
q0 -39 17 -60t40 -21z" />
    <glyph glyph-name="uni2032.tallfig" horiz-adv-x="290" 
d="M63 456l70 266l96 -34l-114 -250z" />
    <glyph glyph-name="uni2033.tallfig" horiz-adv-x="480" 
d="M63 456l70 266l96 -34l-114 -250zM253 456l70 266l96 -34l-114 -250z" />
    <glyph glyph-name="dotaccentlow" horiz-adv-x="500" 
d="M185 -126q0 27 18.5 46t45.5 19t46.5 -19t19.5 -46t-19.5 -45.5t-46.5 -18.5t-45.5 18.5t-18.5 45.5z" />
    <glyph glyph-name="acute.lchigh" horiz-adv-x="500" 
d="M190 508v8l86 129h94v-10l-129 -127h-51z" />
    <glyph glyph-name="twosevenths" 
d="M109 -34l241 370l223 353l40 -26l-234 -349l-231 -375zM132 649q-31 0 -49 -20h1q-12 -19 -12 -46h-46l15 73q17 16 48.5 27t48.5 11q53 0 87.5 -28.5t34.5 -74.5q0 -35 -50 -91t-120 -110v-2.5t1 -2.5l90 6t88 5v-57l-247 3l-7 27q94 83 132.5 130.5t38.5 85.5
q0 28 -16.5 46t-37.5 18zM687 327l16 -19q-57 -78 -87 -149.5t-39 -164.5q-2 -17 -46 -17q-20 0 -30.5 4.5t-7.5 14.5q31 98 63.5 156t79.5 118l-5 7h-124q-8 0 -19 -49q0 -1 -1 -4.5t-1 -4.5h-44l21 110l72 -2h152z" />
    <glyph glyph-name="twoninths" 
d="M109 -34l241 370l223 353l40 -26l-234 -349l-231 -375zM132 649q-31 0 -49 -20h1q-12 -19 -12 -46h-46l15 73q17 16 48.5 27t48.5 11q53 0 87.5 -28.5t34.5 -74.5q0 -35 -50 -91t-120 -110v-2.5t1 -2.5l90 6t88 5v-57l-247 3l-7 27q94 83 132.5 130.5t38.5 85.5
q0 28 -16.5 46t-37.5 18zM468 -11q73 33 105.5 62t51.5 84q-40 -24 -74 -24q-39 0 -72 26t-33 74q0 50 27 72v-1q53 51 109 51t91 -33t35 -94q0 -50 -20.5 -97t-59.5 -78q-55 -42 -153 -71zM573 148q35 0 66 33l-2 -1q0 2 0.5 5.5t0.5 4.5v9q0 46 -19.5 73.5t-48.5 27.5
q-26 0 -40 -19t-14 -52q0 -39 17 -60t40 -21z" />
    <glyph glyph-name="threesevenths" 
d="M109 -34l241 370l223 353l40 -26l-234 -349l-231 -375zM166 366q20 0 36 16.5t16 46.5q0 34 -24.5 54.5t-45.5 17.5l-47 -6l-9 31q45 7 79.5 29.5t34.5 48.5q0 48 -50 48q-30 0 -47 -15h2q-12 -17 -12 -41h-43l14 66q18 13 49 22.5t49 9.5q50 0 79.5 -20t29.5 -51
q0 -44 -70 -86v-5q35 -9 59.5 -34.5t24.5 -56.5q0 -45 -40.5 -75.5t-92.5 -30.5q-60 0 -105 26l-20 77h39q18 -40 38 -58l-1 1q30 -15 57 -15zM687 327l16 -19q-57 -78 -87 -149.5t-39 -164.5q-2 -17 -46 -17q-20 0 -30.5 4.5t-7.5 14.5q31 98 63.5 156t79.5 118l-5 7h-124
q-8 0 -19 -49q0 -1 -1 -4.5t-1 -4.5h-44l21 110l72 -2h152z" />
    <glyph glyph-name="foursevenths" 
d="M109 -34l241 370l223 353l40 -26l-234 -349l-231 -375zM141 377v73h-148l-10 23q31 57 85 120.5t107 106.5l34 -12l-3 -81v-123h63v-33h-63v-73q10 -1 30.5 -4.5t28.5 -4.5v-27h-177v27zM43 484h98v132q-57 -53 -100 -130zM687 327l16 -19q-57 -78 -87 -149.5t-39 -164.5
q-2 -17 -46 -17q-20 0 -30.5 4.5t-7.5 14.5q31 98 63.5 156t79.5 118l-5 7h-124q-8 0 -19 -49q0 -1 -1 -4.5t-1 -4.5h-44l21 110l72 -2h152z" />
    <glyph glyph-name="fourninths" 
d="M109 -34l241 370l223 353l40 -26l-234 -349l-231 -375zM141 377v73h-148l-10 23q31 57 85 120.5t107 106.5l34 -12l-3 -81v-123h63v-33h-63v-73q10 -1 30.5 -4.5t28.5 -4.5v-27h-177v27zM43 484h98v132q-57 -53 -100 -130zM468 -11q73 33 105.5 62t51.5 84
q-40 -24 -74 -24q-39 0 -72 26t-33 74q0 50 27 72v-1q53 51 109 51t91 -33t35 -94q0 -50 -20.5 -97t-59.5 -78q-55 -42 -153 -71zM573 148q35 0 66 33l-2 -1q0 2 0.5 5.5t0.5 4.5v9q0 46 -19.5 73.5t-48.5 27.5q-26 0 -40 -19t-14 -52q0 -39 17 -60t40 -21z" />
    <glyph glyph-name="fivesevenths" 
d="M109 -34l241 370l223 353l40 -26l-234 -349l-231 -375zM144 335q-40 0 -76 17l-18 9l-12 74h39q17 -41 28 -53l-2 1q24 -16 37 -16q33 0 57 23.5t24 73.5q0 26 -12.5 41t-33.5 15q-39 0 -77 -29l-32 9l21 188h105l81 6l-8 -64l-62 3h-77q-2 -16 -8 -46.5t-7 -44.5
q36 17 69 17q45 0 78 -24.5t33 -67.5q0 -48 -31 -76q-62 -56 -116 -56zM687 327l16 -19q-57 -78 -87 -149.5t-39 -164.5q-2 -17 -46 -17q-20 0 -30.5 4.5t-7.5 14.5q31 98 63.5 156t79.5 118l-5 7h-124q-8 0 -19 -49q0 -1 -1 -4.5t-1 -4.5h-44l21 110l72 -2h152z" />
    <glyph glyph-name="fiveninths" 
d="M109 -34l241 370l223 353l40 -26l-234 -349l-231 -375zM144 335q-40 0 -76 17l-18 9l-12 74h39q17 -41 28 -53l-2 1q24 -16 37 -16q33 0 57 23.5t24 73.5q0 26 -12.5 41t-33.5 15q-39 0 -77 -29l-32 9l21 188h105l81 6l-8 -64l-62 3h-77q-2 -16 -8 -46.5t-7 -44.5
q36 17 69 17q45 0 78 -24.5t33 -67.5q0 -48 -31 -76q-62 -56 -116 -56zM468 -11q73 33 105.5 62t51.5 84q-40 -24 -74 -24q-39 0 -72 26t-33 74q0 50 27 72v-1q53 51 109 51t91 -33t35 -94q0 -50 -20.5 -97t-59.5 -78q-55 -42 -153 -71zM573 148q35 0 66 33l-2 -1
q0 2 0.5 5.5t0.5 4.5v9q0 46 -19.5 73.5t-48.5 27.5q-26 0 -40 -19t-14 -52q0 -39 17 -60t40 -21z" />
    <glyph glyph-name="sixsevenths" 
d="M109 -34l241 370l223 353l40 -26l-234 -349l-231 -375zM270 681q-69 -31 -104.5 -63.5t-54.5 -83.5q42 24 76 24q39 0 71.5 -26t32.5 -75t-26 -71v1q-56 -52 -108 -52q-57 0 -92.5 33.5t-35.5 94.5q0 48 22 96t58 79q55 42 154 72zM165 521q-40 0 -67 -32l2 1
q-1 -7 -1 -19q0 -46 19.5 -74t49.5 -28q25 0 39 19.5t14 52.5q0 39 -17 59.5t-39 20.5zM687 327l16 -19q-57 -78 -87 -149.5t-39 -164.5q-2 -17 -46 -17q-20 0 -30.5 4.5t-7.5 14.5q31 98 63.5 156t79.5 118l-5 7h-124q-8 0 -19 -49q0 -1 -1 -4.5t-1 -4.5h-44l21 110l72 -2
h152z" />
    <glyph glyph-name="sevenninths" 
d="M109 -34l241 370l223 353l40 -26l-234 -349l-231 -375zM317 688l16 -19q-57 -78 -87 -149.5t-39 -164.5q-2 -17 -46 -17q-20 0 -30.5 4.5t-7.5 14.5q31 98 63.5 156t79.5 118l-5 7h-124q-8 0 -19 -49q0 -1 -1 -4.5t-1 -4.5h-44l21 110l72 -2h152zM468 -11q73 33 105.5 62
t51.5 84q-40 -24 -74 -24q-39 0 -72 26t-33 74q0 50 27 72v-1q53 51 109 51t91 -33t35 -94q0 -50 -20.5 -97t-59.5 -78q-55 -42 -153 -71zM573 148q35 0 66 33l-2 -1q0 2 0.5 5.5t0.5 4.5v9q0 46 -19.5 73.5t-48.5 27.5q-26 0 -40 -19t-14 -52q0 -39 17 -60t40 -21z" />
    <glyph glyph-name="eightninths" 
d="M109 -34l241 370l223 353l40 -26l-234 -349l-231 -375zM30 433q0 35 66 82l-1 4q-49 31 -49 83q0 39 33.5 65.5t79.5 26.5q51 0 82.5 -22t31.5 -58q0 -40 -55 -80l3 2v-5q68 -32 68 -89q0 -41 -36 -74t-94 -33q-53 0 -91 27t-38 71zM90 432q0 -30 18.5 -48t52.5 -18
q31 0 49 17t18 46q0 28 -24.5 44t-75.5 30q-38 -30 -38 -71zM103 616q0 -26 19 -41.5t65 -30.5q25 32 25 71q0 23 -14.5 36.5t-38.5 13.5q-26 0 -41 -14.5t-15 -34.5zM468 -11q73 33 105.5 62t51.5 84q-40 -24 -74 -24q-39 0 -72 26t-33 74q0 50 27 72v-1q53 51 109 51
t91 -33t35 -94q0 -50 -20.5 -97t-59.5 -78q-55 -42 -153 -71zM573 148q35 0 66 33l-2 -1q0 2 0.5 5.5t0.5 4.5v9q0 46 -19.5 73.5t-48.5 27.5q-26 0 -40 -19t-14 -52q0 -39 17 -60t40 -21z" />
    <glyph glyph-name="Cacute.plk" horiz-adv-x="654" 
d="M402 41q64 0 117 21l67 120h40l-33 -154q-43 -15 -60 -20t-57.5 -12t-85.5 -7q-148 0 -245 90.5t-97 250.5q0 162 98 253t257 91q44 0 99.5 -12.5t91.5 -30.5l10 -156h-41l-40 107q-41 45 -134 45q-29 0 -59 -8t-61 -28t-54.5 -49.5t-38.5 -77t-15 -105.5
q0 -74 16.5 -132t41 -92t58 -56t64 -30t61.5 -8zM371 721v8l51 129h79v-10l-79 -127h-51z" />
    <glyph glyph-name="Nacute.plk" horiz-adv-x="755" 
d="M575 183h14v276l-4 147l-78 14v43h215v-43l-76 -14l-5 -152v-456h-38l-427 509h-12v-284l5 -166l86 -14v-43h-222v43l75 14l4 163v391l-79 9v43h149zM341 721v8l51 129h79v-10l-79 -127h-51z" />
    <glyph glyph-name="Oacute.plk" horiz-adv-x="785" 
d="M48 316q0 89 29 159.5t78.5 113t109 64t124.5 21.5q154 0 251 -87.5t97 -237.5q0 -168 -97.5 -264t-260.5 -96q-143 0 -237 87t-94 240zM157 369q0 -165 70.5 -248t175.5 -83q41 0 79.5 15t72 45t53.5 84.5t20 125.5q0 160 -76 239.5t-183 79.5q-25 0 -51 -7t-55.5 -25.5
t-52.5 -46t-38 -74t-15 -105.5zM357 721v8l51 129h79v-10l-79 -127h-51z" />
    <glyph glyph-name="Sacute.plk" horiz-adv-x="543" 
d="M80 27l-13 180h54q13 -88 47.5 -124.5t94.5 -36.5q61 0 97 31t36 87q0 49 -36 77.5t-102 51.5q-39 14 -67 28t-56.5 37t-43.5 57t-15 77q0 88 62 135t145 47q70 0 169 -30l5 -165h-43q-15 76 -48 107.5t-85 31.5q-53 0 -81.5 -30.5t-28.5 -82.5q0 -42 33.5 -69.5
t92.5 -49.5q44 -16 73 -31t59.5 -38.5t45.5 -56t15 -74.5q0 -80 -58 -138.5t-160 -58.5q-56 0 -111.5 12t-80.5 26zM257 721v8l51 129h79v-10l-79 -127h-51z" />
    <glyph glyph-name="Zacute.plk" horiz-adv-x="633" 
d="M575 -5l-255 5h-272l-17 34l418 529l-6 14h-305l-39 -99h-38l11 189l154 -4h351l15 -21l-430 -544l5 -12h350l41 103h37zM280 721v8l51 129h79v-10l-79 -127h-51z" />
    <glyph glyph-name="cacute.plk" horiz-adv-x="464" 
d="M409 112l27 -37q-35 -36 -89 -62t-99 -26q-93 0 -152 69t-59 166q0 123 55 175q42 41 98.5 69.5t97.5 28.5q76 0 119 -20l4 -149h-46q-6 49 -17 77q-36 25 -84 25q-54 0 -93.5 -36.5t-39.5 -119.5q0 -106 47.5 -157.5t117.5 -51.5q60 0 113 49zM230 552v8l41 164h84v-10
l-79 -162h-46z" />
    <glyph glyph-name="nacute.plk" horiz-adv-x="604" 
d="M581 0h-242v37l68 19v246q0 60 -25 86t-73 26q-9 0 -17 -1t-16.5 -3.5t-14 -4t-15.5 -7t-13.5 -7.5t-16.5 -10t-18 -11v-312l72 -21v-37h-247v37l80 21v351l-80 14v27l152 39h26l-12 -84h10l71 63q27 27 85 27q64 0 106 -42t42 -119v-276h1l77 -21v-37zM271 552v8l41 164
h84v-10l-79 -162h-46z" />
    <glyph glyph-name="oacute.plk" horiz-adv-x="546" 
d="M37 225q0 75 21.5 130t57 84t73 42.5t77.5 13.5q114 0 178.5 -62.5t64.5 -171.5q0 -138 -69.5 -206t-173.5 -68q-105 0 -167 63.5t-62 174.5zM135 268q0 -233 146 -233q125 0 125 185q0 70 -11.5 117t-32.5 70t-43 31.5t-52 8.5q-58 0 -95 -47t-37 -132zM237 552v8
l41 164h84v-10l-79 -162h-46z" />
    <glyph glyph-name="sacute.plk" horiz-adv-x="424" 
d="M57 16l-15 136h46q8 -43 29 -73q31 -24 85 -24q47 0 73.5 19t26.5 55q0 64 -106 82q-149 24 -149 140q0 20 11 44t30 37q97 63 139 63q90 0 134 -30l5 -123h-41q-7 38 -22 61q-10 14 -36 23.5t-53 9.5q-42 0 -64 -17t-22 -48q0 -63 126 -85q65 -12 98.5 -42.5t33.5 -87.5
q0 -39 -30 -77q-19 -25 -69 -58.5t-92 -33.5q-30 0 -75.5 9t-62.5 20zM196 552v8l41 164h84v-10l-79 -162h-46z" />
    <glyph glyph-name="zacute.plk" horiz-adv-x="485" 
d="M432 0h-381l-12 37l285 351l-5 11h-199l-27 -76h-37l17 158h361l11 -31l-286 -356l4 -10h218l31 86h31zM224 552v8l41 164h84v-10l-79 -162h-46z" />
    </font>
</defs>
</svg>
