<?xml version="1.0" standalone="no"?>
<!DOCTYPE svg PUBLIC "-//W3C//DTD SVG 1.1//EN" "http://www.w3.org/Graphics/SVG/1.1/DTD/svg11.dtd" >
<svg xmlns="http://www.w3.org/2000/svg" xmlns:xlink="http://www.w3.org/1999/xlink" version="1.1">
<metadata>
Created by FontForge 20170731 at Sun Mar  3 17:32:09 2019
 By Aleksey,,,
Copyright 2018-2019 Matthew Butterick
</metadata>
<defs>
<font id="ValkyrieC3" horiz-adv-x="500" >
  <font-face 
    font-family="Valkyrie C3"
    font-weight="300"
    font-stretch="normal"
    units-per-em="1000"
    panose-1="0 0 0 0 0 0 0 0 0 0"
    ascent="755"
    descent="-245"
    x-height="535"
    cap-height="663"
    bbox="-72 -242 1034 890"
    underline-thickness="50"
    underline-position="-175"
    unicode-range="U+000D-FB02"
  />
<missing-glyph horiz-adv-x="540" 
d="M20 0v700h500v-700h-500zM70 650v-600h400v600h-400zM201 137q0 20 13.5 34t33.5 14t34 -14t14 -34t-14 -33.5t-34 -13.5t-33.5 14t-13.5 33zM284 281v-16l-27 -23q-65 10 -65 50q0 22 21.5 48.5t47.5 46.5t47.5 44.5t21.5 43.5q0 27 -30.5 46t-59.5 19q-15 0 -28 -7
l-19 -43l-34 14q8 44 27 80q14 27 47 27q60 0 112 -32t52 -81q0 -32 -36.5 -69t-72.5 -68.5t-36 -49.5q0 -20 32 -30z" />
    <glyph glyph-name="uni2190" unicode="&#x3c;&#x2d;" horiz-adv-x="700" 
d="M74 272l237 264l61 -46l-163 -183h420v-84h-420l163 -183l-61 -47l-237 266v13z" />
    <glyph glyph-name="uni2192" unicode="&#x2d;&#x3e;" horiz-adv-x="700" 
d="M389 536l237 -264v-13l-237 -266l-61 47l163 183h-420v84h420l-163 183z" />
    <glyph glyph-name="fi" unicode="fi" horiz-adv-x="933" 
d="M225 52l78 -12v-40h-237v40l67 12v432q-11 1 -34 5.5t-33 6.5v39h288l109 3l5 -131h-24l-29 82h-190v-202l140 6l23 78h24v-210h-24l-23 83l-140 3v-195zM623 535h227v-39l-67 -12v-433q11 -1 34 -5.5t33 -6.5v-39h-227v39l67 12v433q-10 1 -33 5.5t-34 6.5v39z" />
    <glyph glyph-name="fl" unicode="fl" horiz-adv-x="1093" 
d="M224 52l78 -12v-40h-237v40l67 12v432q-10 1 -33 5.5t-34 6.5v39h288l109 3l5 -131h-24l-29 82h-190v-202l140 6l23 78h24v-210h-24l-23 83l-140 3v-195zM1022 -4l-122 4h-296v39l67 12v433q-11 1 -33.5 5.5t-33.5 6.5v39h230v-39l-71 -12v-439h201l43 110h27z" />
    <glyph glyph-name="uni2192.circle" unicode="&#x28;&#x2d;&#x3e;&#x29;" horiz-adv-x="880" 
d="M718 272l-237 264l-61 -46l163 -183h-420v-84h420l-163 -183l61 -47l237 266v13zM58 263q0 159 111.5 271t268.5 112q159 0 271.5 -112t112.5 -271q0 -157 -112.5 -268.5t-271.5 -111.5q-157 0 -268.5 111.5t-111.5 268.5z" />
    <glyph glyph-name="uni2190.circle" unicode="&#x28;&#x3c;&#x2d;&#x29;" horiz-adv-x="880" 
d="M399 536l-237 -264v-13l237 -266l61 47l-163 183h420v84h-420l163 183zM822 263q0 -157 -111.5 -268.5t-268.5 -111.5q-159 0 -271.5 111.5t-112.5 268.5q0 159 112.5 271t271.5 112q157 0 268.5 -112t111.5 -271z" />
    <glyph glyph-name="uni2193.circle" unicode="&#x28;&#x2193;&#x29;" horiz-adv-x="880" 
d="M447 -14l264 237l-46 61l-183 -163v420h-84v-420l-183 163l-47 -61l266 -237h13zM438 646q159 0 271.5 -111.5t112.5 -268.5q0 -159 -112.5 -271.5t-271.5 -112.5q-157 0 -268.5 112.5t-111.5 271.5q0 157 111.5 268.5t268.5 111.5z" />
    <glyph glyph-name="uni2191.circle" unicode="&#x28;&#x2191;&#x29;" horiz-adv-x="880" 
d="M711 305l-264 237h-13l-266 -237l47 -61l183 163v-420h84v420l183 -163zM438 -118q-157 0 -268.5 111.5t-111.5 268.5q0 159 111.5 271.5t268.5 112.5q159 0 271.5 -112.5t112.5 -271.5q0 -157 -112.5 -268.5t-271.5 -111.5z" />
    <glyph glyph-name=".notdef" horiz-adv-x="540" 
d="M20 0v700h500v-700h-500zM70 650v-600h400v600h-400zM201 137q0 20 13.5 34t33.5 14t34 -14t14 -34t-14 -33.5t-34 -13.5t-33.5 14t-13.5 33zM284 281v-16l-27 -23q-65 10 -65 50q0 22 21.5 48.5t47.5 46.5t47.5 44.5t21.5 43.5q0 27 -30.5 46t-59.5 19q-15 0 -28 -7
l-19 -43l-34 14q8 44 27 80q14 27 47 27q60 0 112 -32t52 -81q0 -32 -36.5 -69t-72.5 -68.5t-36 -49.5q0 -20 32 -30z" />
    <glyph glyph-name=".null" horiz-adv-x="0" 
 />
    <glyph glyph-name="nonmarkingreturn" horiz-adv-x="333" 
 />
    <glyph glyph-name="NULL" horiz-adv-x="0" 
 />
    <glyph glyph-name="NULL" horiz-adv-x="0" 
 />
    <glyph glyph-name="CR" unicode="&#xd;" horiz-adv-x="290" 
 />
    <glyph glyph-name="space" unicode=" " horiz-adv-x="290" 
 />
    <glyph glyph-name="exclam" unicode="!" horiz-adv-x="423" 
d="M152 55q0 27 17 45.5t42 18.5t43 -18.5t18 -45.5q0 -26 -18 -44t-43 -18t-42 18t-17 44zM249 699l17 -8l-40 -485q-6 0 -15 -2t-15 -3q-6 86 -20 264.5t-15 191.5z" />
    <glyph glyph-name="quotedbl" unicode="&#x22;" horiz-adv-x="507" 
d="M149 412l-27 306h84l-22 -306h-35zM329 412l-27 306h84l-22 -306h-35z" />
    <glyph glyph-name="numbersign" unicode="#" horiz-adv-x="560" 
d="M117 488l96 -14q8 38 23.5 110.5t19.5 89.5q8 -1 22 -3.5t21 -3.5l-41 -198l104 -15l45 220q9 -1 23 -3.5t22 -3.5l-46 -218q16 -2 52.5 -7.5t52.5 -7.5l-7 -56l-110 15l-34 -167l92 -13l-7 -56l-97 14l-42 -204q-8 1 -22 2t-22 2l42 205l-105 15l-46 -224q-8 1 -22 2
t-22 2l46 225l-105 16l7 56l110 -15l34 166l-91 14zM245 413l-34 -166l105 -15l34 166z" />
    <glyph glyph-name="dollar" unicode="$" horiz-adv-x="596" 
d="M109 23l-13 170h43q12 -83 48.5 -118t99.5 -36v239q-39 13 -67.5 27t-56.5 35.5t-43 54t-15 73.5q0 76 53 120t129 51v99h32v-98q59 -2 149 -28q1 -27 3 -77.5t2 -76.5h-32q-14 64 -44 95.5t-78 37.5v-228q88 -31 137.5 -72.5t49.5 -115.5q0 -70 -49.5 -123t-137.5 -61
v-110h-32v108q-55 1 -105 11t-73 23zM423 154q0 38 -27 64t-77 49v-226q48 10 76 39.5t28 73.5zM189 480q0 -61 98 -104v214q-48 -7 -73 -36t-25 -74z" />
    <glyph glyph-name="percent" unicode="%" horiz-adv-x="606" 
d="M324 520l-11 -2q-1 -82 -43 -135.5t-97 -53.5q-46 0 -75 35.5t-29 90.5q0 74 45.5 128.5t98.5 54.5q68 0 92 -70q6 -16 26.5 -25.5t45.5 -9.5q52 0 90 33q24 66 50 66q19 0 19 -21q0 -14 -13 -31t-30 -29l-211 -288l-195 -280q-5 3 -9.5 7t-10 8.5t-8.5 6.5l206 275
l165 235q-40 -14 -60 -14q-27 0 -46 19zM295 114q0 74 45.5 128.5t98.5 54.5q44 0 71.5 -31.5t27.5 -85.5q0 -86 -42.5 -139t-95.5 -53q-47 0 -76 35.5t-29 90.5zM230 597q-35 0 -65.5 -54t-30.5 -115q0 -62 48 -62q35 0 64.5 43.5t29.5 121.5q0 31 -13 48.5t-33 17.5z
M456 256q-35 0 -66 -54t-31 -115q0 -30 13 -46t33 -16q36 0 66 42.5t30 122.5q0 31 -12.5 48.5t-32.5 17.5z" />
    <glyph glyph-name="ampersand" unicode="&#x26;" horiz-adv-x="923" 
d="M800 347l-158 8q19 -47 19 -95q0 -90 -57 -161q56 -25 116 -25l84 35l19 -30l-90 -92q-89 0 -194 55q-82 -55 -193 -55q-119 0 -182.5 50.5t-63.5 131.5q0 104 122 197q-42 89 -42 166q0 62 36 102t99 40q55 0 87 -35.5t32 -100.5q0 -39 -20.5 -77t-40.5 -58t-61 -56
q43 -62 105.5 -121.5t130.5 -99.5q38 57 38 119q0 57 -31 116l-109 6q1 8 4.5 21t5.5 21l344 16v-78zM357 33q74 0 134 37q-144 94 -232 230q-72 -76 -72 -147q0 -59 47.5 -89.5t122.5 -30.5zM249 495q0 -34 26 -91q40 29 60.5 46t38.5 42t18 48q0 33 -18 51.5t-45 18.5
q-37 0 -58.5 -32.5t-21.5 -82.5z" />
    <glyph glyph-name="quotesingle" unicode="'" horiz-adv-x="328" 
d="M149 412l-27 306h84l-22 -306h-35z" />
    <glyph glyph-name="parenleft" unicode="(" horiz-adv-x="442" 
d="M376 -212l-25 -29q-159 100 -203 280q-18 106 -18 217q0 109 20 224q20 76 73.5 145.5t126.5 118.5l26 -34q-130 -101 -155 -243q-14 -102 -14 -224q0 -76 5 -169q11 -178 164 -286z" />
    <glyph glyph-name="parenright" unicode=")" horiz-adv-x="442" 
d="M92 -240l-26 29q153 108 164 285q5 93 5 169q0 122 -14 224q-26 145 -155 244q4 6 14 16.5t14 16.5q73 -49 126 -118.5t73 -145.5q20 -115 20 -224q0 -111 -18 -217q-41 -174 -203 -279z" />
    <glyph glyph-name="asterisk" unicode="*" horiz-adv-x="566" 
d="M425 486l-138 44l54 -125q12 -27 -1.5 -44t-35.5 -17q-15 0 -24.5 9t-8.5 27l-8 148l-125 -90q-17 -8 -33 3t-16 29q0 32 34 40l125 41l-114 94q-13 9 -13 25q0 14 10.5 25t24.5 11q18 0 31 -20l83 -121l56 126q8 28 32 28t37.5 -20t-3.5 -45l-98 -98l130 2q20 1 31 -10
t11 -27q0 -17 -12 -28t-29 -7z" />
    <glyph glyph-name="plus" unicode="+" horiz-adv-x="620" 
d="M570 230h-230v-230h-60v230h-230v60h230v230h60v-230h230v-60z" />
    <glyph glyph-name="comma" unicode="," horiz-adv-x="357" 
d="M96 -199l-33 17l73 148q3 20 10 64.5t10 67.5q16 -5 44.5 -14t44.5 -14q-9 -22 -27.5 -65t-27.5 -65h1z" />
    <glyph glyph-name="hyphen" unicode="-" horiz-adv-x="425" 
d="M100 301l59 -3h110l71 3l-14 -80l-56 3h-127l-58 -3z" />
    <glyph glyph-name="period" unicode="." horiz-adv-x="343" 
d="M112 55q0 27 17 45.5t42 18.5t42.5 -18.5t17.5 -45.5q0 -26 -17.5 -44t-42.5 -18t-42 18t-17 44z" />
    <glyph glyph-name="slash" unicode="/" horiz-adv-x="550" 
d="M474 734l-341 -857h-56l342 857h55z" />
    <glyph glyph-name="zero" unicode="0" horiz-adv-x="655" 
d="M83 298q0 167 70 253.5t181 86.5q106 0 172 -87t66 -253q0 -152 -66 -231.5t-172 -79.5q-111 0 -181 79t-70 232zM181 299q0 -139 42.5 -203.5t110.5 -64.5q63 0 102 65.5t39 202.5q0 150 -39.5 223t-101.5 73q-66 0 -109.5 -76t-43.5 -220z" />
    <glyph glyph-name="one" unicode="1" horiz-adv-x="525" 
d="M105 497l-15 49q149 46 200 88l21 -3t20 -2v-575q23 -2 72.5 -7t72.5 -7v-40h-377v40l140 14v487l-42 -15q-57 -22 -92 -29z" />
    <glyph glyph-name="two" unicode="2" horiz-adv-x="571" 
d="M259 565q-69 0 -105 -40q-25 -44 -25 -81h-45l26 129l-2 -1q30 27 82 46.5t80 19.5q87 0 146 -51.5t59 -132.5q0 -65 -92.5 -168.5t-221.5 -201.5l9 -18q21 1 321 21v-92q-71 1 -209 3t-208 2l-13 46q174 153 245.5 240.5t71.5 156.5q0 54 -36.5 88t-82.5 34z" />
    <glyph glyph-name="three" unicode="3" horiz-adv-x="571" 
d="M283 32q43 0 79.5 32t36.5 90q0 66 -53 105t-100 34l-66 -10l-13 47q84 13 147 55.5t63 91.5q0 93 -112 93q-66 0 -101 -33q-21 -29 -23 -68h-41q4 17 13 55.5t13 58.5q31 22 82.5 38.5t78.5 16.5q83 0 132.5 -35.5t49.5 -90.5q0 -47 -39 -88.5t-90 -70.5v-11
q62 -12 107.5 -59.5t45.5 -107.5q0 -81 -68 -134.5t-156 -53.5q-98 0 -178 43l3 -1l-36 135h34q27 -56 77 -104q54 -28 114 -28z" />
    <glyph glyph-name="four" unicode="4" horiz-adv-x="635" 
d="M358 55v145h-275l-17 35q59 103 156 219.5t185 190.5l39 -15l-5 -147v-233h113v-49h-113v-146l106 -16v-39h-286v40zM358 504l-18 9q-118 -108 -201 -251l8 -12h211v254z" />
    <glyph glyph-name="five" unicode="5" horiz-adv-x="568" 
d="M240 -13q-61 0 -129 31l-25 11l-22 130h35q21 -60 55 -96q43 -29 79 -29q68 0 118.5 44.5t50.5 140.5q0 50 -29 79t-77 29q-85 0 -147 -50l-34 9q6 55 20 168t21 172h173l129 10q-2 -18 -7 -52.5t-7 -52.5l-97 5h-159l-21 -178l16 -7q20 12 60 24t63 12q75 0 130 -43.5
t55 -119.5q0 -93 -48 -137q-108 -100 -203 -100z" />
    <glyph glyph-name="six" unicode="6" horiz-adv-x="602" 
d="M189 336l9 -9q93 59 154 59q41 0 78.5 -17t66 -59.5t28.5 -103.5q0 -92 -40 -127q-102 -92 -188 -92q-95 0 -155 60t-60 170q0 92 37 178.5t103 138.5q107 82 254 125l10 -39q-137 -63 -199 -120.5t-98 -163.5zM312 330q-84 0 -139 -63q-2 -24 -2 -36q0 -87 41.5 -140.5
t104.5 -53.5q56 0 88 38t32 100q0 74 -37.5 114.5t-87.5 40.5z" />
    <glyph glyph-name="seven" unicode="7" horiz-adv-x="538" 
d="M486 626l25 -29q-103 -143 -160 -280t-74 -299q-2 -25 -65 -25q-27 0 -40 5.5t-9 19.5q40 131 88 233t81.5 151.5t91.5 125.5l-10 16l-246 1q-21 0 -33 -25.5t-23 -69.5l-2 -11h-43l40 192l113 -5h266z" />
    <glyph glyph-name="eight" unicode="8" horiz-adv-x="601" 
d="M82 160q0 66 119 150v11q-90 54 -90 152q0 69 56 117t132 48q86 0 138.5 -39.5t52.5 -102.5q0 -36 -27.5 -75.5t-68.5 -70.5v-9q64 -28 94.5 -65t30.5 -98q0 -74 -60 -132.5t-160 -58.5q-89 0 -153 47.5t-64 125.5zM154 159q0 -57 39 -92t111 -35q65 0 104.5 33.5
t39.5 88.5q0 53 -53.5 85t-159.5 61q-81 -59 -81 -141zM178 500q0 -51 40 -82t141 -61q59 66 59 141q0 44 -32.5 70t-85.5 26q-57 0 -89.5 -28t-32.5 -66z" />
    <glyph glyph-name="nine" unicode="9" horiz-adv-x="602" 
d="M414 290l-10 9q-91 -60 -153 -60q-41 0 -79 17.5t-66.5 60t-28.5 103.5q0 90 41 125q103 93 189 93q95 0 154.5 -60t59.5 -170q0 -92 -37 -178t-103 -138q-106 -81 -253 -125q-2 8 -6 20.5t-5 19.5q94 43 147 78t89 83t61 122zM292 297q82 0 138 63q2 24 2 35
q0 87 -41.5 140t-104.5 53q-57 0 -88 -37.5t-31 -99.5q0 -75 37 -114.5t88 -39.5z" />
    <glyph glyph-name="colon" unicode=":" horiz-adv-x="391" 
d="M136 55q0 27 17 45.5t42 18.5t43 -18.5t18 -45.5q0 -26 -18 -44t-43 -18t-42 18t-17 44zM136 388q0 27 17 45.5t42 18.5t43 -18.5t18 -45.5q0 -26 -18 -44t-43 -18t-42 18t-17 44z" />
    <glyph glyph-name="semicolon" unicode=";" horiz-adv-x="417" 
d="M162 388q0 27 17 45.5t42 18.5q26 0 43.5 -18.5t17.5 -45.5q0 -26 -17.5 -44t-43.5 -18q-25 0 -42 18t-17 44zM123 -199l-32 18l72 147q3 20 10 64.5t10 67.5q15 -4 44 -13.5t46 -14.5q-9 -22 -28 -65t-28 -65h1z" />
    <glyph glyph-name="less" unicode="&#x3c;" horiz-adv-x="594" 
d="M544 470l-428 -204l428 -204v-62l-494 235v62l494 235v-62z" />
    <glyph glyph-name="equal" unicode="=" horiz-adv-x="620" 
d="M570 310h-520v60h520v-60zM570 130h-520v60h520v-60z" />
    <glyph glyph-name="greater" unicode="&#x3e;" horiz-adv-x="594" 
d="M478 266l-428 204v62l494 -235v-62l-494 -235v62z" />
    <glyph glyph-name="question" unicode="?" horiz-adv-x="533" 
d="M184 55q0 27 17 45.5t42 18.5q26 0 43.5 -18.5t17.5 -45.5q0 -26 -17.5 -44t-43.5 -18q-25 0 -42 18t-17 44zM288 251v-21q-24 -22 -34 -30q-82 11 -82 67q0 33 25.5 64t74.5 73q31 28 46.5 43t30.5 37.5t15 40.5q0 37 -43 64t-85 27q-26 0 -43 -10l-28 -66q-7 3 -19.5 9
t-18.5 8q11 60 36 107q19 36 59 36q82 0 151 -43t69 -109q0 -20 -9 -40.5t-30 -43t-34.5 -35.5t-42.5 -38q-63 -55 -75 -74q-8 -13 -8 -24q0 -28 45 -42z" />
    <glyph glyph-name="at" unicode="@" horiz-adv-x="906" 
d="M751 390q0 36 -9.5 73t-31 76t-64.5 64t-102 25q-98 0 -184.5 -73.5t-136 -187.5t-49.5 -232q0 -120 45 -180t127 -60q87 0 166 60l18 -35q-44 -35 -96.5 -54.5t-96.5 -19.5q-112 0 -169.5 76t-57.5 214q0 124 58 246.5t160.5 204t218.5 81.5q121 0 193 -76.5t72 -201.5
q0 -68 -21.5 -127.5t-54.5 -99.5t-72.5 -69t-76 -42.5t-65.5 -13.5q-33 0 -33 40q0 32 23 86l-19 14q-27 -39 -48 -65t-55.5 -51.5t-64.5 -25.5q-27 0 -41.5 24t-14.5 56q0 79 58 183q46 76 106.5 128t112.5 52q24 0 38 -28h15q6 16 12.5 21.5t23.5 5.5t22.5 -3t3.5 -10
l-108 -331q-5 -20 -1 -28t18 -8q18 0 47.5 20t60 55t52 93t21.5 124zM339 149q0 -28 7.5 -37t21.5 -9q36 0 97.5 79t104.5 184q9 74 -34 74q-31 0 -71.5 -37t-71.5 -87q-54 -102 -54 -167z" />
    <glyph glyph-name="A" unicode="A" horiz-adv-x="750" 
d="M544 54l-62 179h-243l-74 -179q13 -2 43 -7.5t45 -7.5v-39h-213v39l72 15q46 106 137 312t130 297h40l221 -609q11 -2 35 -7.5t35 -7.5v-39h-239v39zM363 527l-102 -245h204l-84 245h-18z" />
    <glyph glyph-name="B" unicode="B" horiz-adv-x="691" 
d="M383 0h-312v39l81 15v555q-12 2 -39.5 7.5t-41.5 7.5v39h297q89 0 138.5 -36.5t49.5 -109.5q0 -48 -28 -93t-86 -65v-10q74 -11 117.5 -53.5t43.5 -107.5q0 -85 -60 -136.5t-160 -51.5zM502 183q0 64 -43 99t-108 35h-105v-269h121q135 0 135 135zM246 615v-245h107
q57 0 84 42.5t27 87.5q0 53 -29.5 84t-81.5 31h-107z" />
    <glyph glyph-name="C" unicode="C" horiz-adv-x="742" 
d="M436 37q66 0 121 22q9 16 32 57t35 63h31l-32 -152l-7 -2q-37 -13 -56.5 -18.5t-56.5 -11.5t-79 -6q-147 0 -243 90.5t-96 250.5q0 162 96.5 253t255.5 91q43 0 97 -11.5t90 -29.5l10 -155h-31l-40 105q-44 48 -140 48q-39 0 -77.5 -14t-75 -44t-59.5 -85.5t-23 -128.5
q0 -75 16.5 -133.5t42.5 -93t60 -57t65.5 -30.5t63.5 -8z" />
    <glyph glyph-name="D" unicode="D" horiz-adv-x="815" 
d="M364 0h-293v39l79 15v555q-12 2 -39 7.5t-40 7.5v39h369q136 0 213.5 -79.5t77.5 -218.5q0 -172 -102 -268.5t-265 -96.5zM245 48h129q111 0 184.5 73.5t73.5 226.5q0 133 -60 200t-176 67h-151v-567z" />
    <glyph glyph-name="E" unicode="E" horiz-adv-x="681" 
d="M246 46h273l44 122h32l-15 -173l-148 5h-361v39l81 15v555q-12 2 -39.5 7.5t-41.5 7.5v39h344l121 4q2 -26 5.5 -77t5.5 -77h-26l-44 103h-231v-262l190 6q2 12 9 46.5t10 49.5h28v-240h-28l-19 96l-190 3v-269z" />
    <glyph glyph-name="F" unicode="F" horiz-adv-x="588" 
d="M247 55l94 -15v-40h-269v40l81 15v554q-12 2 -39.5 7.5t-41.5 7.5v39h330l122 4q0 -26 2 -77t3 -77h-25l-35 103h-222v-266l175 7q4 15 10.5 47t9.5 46h28v-240h-28l-20 97l-175 4v-256z" />
    <glyph glyph-name="G" unicode="G" horiz-adv-x="777" 
d="M448 37q79 0 131 43v161q-15 2 -47 8t-46 8v39h235v-40l-54 -15v-190q-106 -62 -234 -62q-142 0 -245 88t-103 239q0 94 30 165.5t81 112t112.5 60.5t132.5 20q101 0 215 -38l15 -165h-35l-43 107q-63 53 -166 53t-171 -69t-68 -207q0 -88 24.5 -153t65 -99.5t83 -50
t87.5 -15.5z" />
    <glyph glyph-name="H" unicode="H" horiz-adv-x="841" 
d="M514 663h257v-39l-81 -15v-555q12 -2 40 -7.5t41 -7.5v-39h-257v39l82 15v270h-350v-270q14 -2 42 -7.5t40 -7.5v-39h-257v39l81 15v555q-12 2 -39.5 7.5t-41.5 7.5v39h257v-39l-82 -15v-237h350v237q-14 2 -42 7.5t-40 7.5v39z" />
    <glyph glyph-name="I" unicode="I" horiz-adv-x="441" 
d="M93 663h256v-39l-81 -15v-555q13 -2 40.5 -7.5t40.5 -7.5v-39h-256v39l80 15v555q-12 2 -39.5 7.5t-40.5 7.5v39z" />
    <glyph glyph-name="J" unicode="J" horiz-adv-x="426" 
d="M171 13v596q-15 2 -48 7.5t-49 7.5v39h281v-39l-89 -15v-546q0 -44 -6 -70t-25 -53q-71 -107 -129 -168l-40 35q55 66 83 114q22 35 22 92z" />
    <glyph glyph-name="K" unicode="K" horiz-adv-x="746" 
d="M246 609v-238h44l224 229q-9 3 -21.5 7t-28 9t-22.5 7v40h222v-40l-89 -31l-221 -222l277 -317l67 -14v-39h-259v39l73 15l-220 259h-46v-259q14 -2 41.5 -7.5t39.5 -7.5v-39h-256v39l81 15v555q-12 2 -39.5 7.5t-41.5 7.5v39h256v-39z" />
    <glyph glyph-name="L" unicode="L" horiz-adv-x="615" 
d="M542 -5l-138 5h-332v39l81 15v555q-12 2 -39.5 7.5t-41.5 7.5v39h260v-39l-85 -15v-563h229l50 138h31z" />
    <glyph glyph-name="M" unicode="M" horiz-adv-x="991" 
d="M728 510h-22q-36 -84 -113 -259t-114 -260h-30l-218 520h-20l-17 -457q12 -2 39 -7.5t39 -7.5v-39h-202v39l75 15l36 548q-15 3 -46.5 10.5t-46.5 10.5v40h181l212 -518h21l229 518h179v-41l-92 -22l19 -546q12 -2 40 -7.5t42 -7.5v-39h-258v39l81 15z" />
    <glyph glyph-name="N" unicode="N" horiz-adv-x="801" 
d="M597 180h22v280l-4 149q-12 2 -39 7.5t-40 7.5v39h206v-39l-76 -15l-5 -154v-457h-30l-430 512h-20v-288l5 -168q13 -2 42.5 -7.5t44.5 -7.5v-39h-214v39l76 15l4 165v396q-13 2 -40.5 4.5t-39.5 3.5v40h142z" />
    <glyph glyph-name="O" unicode="O" horiz-adv-x="851" 
d="M84 316q0 90 29 160t77.5 112.5t107.5 64t124 21.5q153 0 249 -87.5t96 -237.5q0 -168 -96.5 -264t-258.5 -96q-142 0 -235 86.5t-93 240.5zM183 369q0 -166 72.5 -250.5t180.5 -84.5q42 0 81 15t73.5 46t55.5 86t21 127q0 84 -23 148t-61.5 101t-84.5 55.5t-97 18.5
q-33 0 -67.5 -12.5t-70 -40t-58 -82t-22.5 -127.5z" />
    <glyph glyph-name="P" unicode="P" horiz-adv-x="624" 
d="M302 280v30q69 2 111 47t42 121q0 135 -132 135h-76v-559q15 -2 46 -7.5t45 -7.5v-39h-266v39l81 15v555q-12 2 -39.5 7.5t-41.5 7.5v39h270q116 0 163 -44t47 -130q0 -96 -66 -152t-184 -57z" />
    <glyph glyph-name="Q" unicode="Q" horiz-adv-x="851" 
d="M84 316q0 90 29 160t77.5 112.5t107.5 64t124 21.5q153 0 249 -87.5t96 -237.5q0 -132 -67 -222.5t-178 -122.5q119 -97 219 -101q0 -9 0.5 -25t0.5 -25q-89 2 -185 42t-173 95q-131 9 -215.5 95t-84.5 231zM183 369q0 -146 57 -229t148 -102l61 32q2 -3 34 -31
q78 17 131 84t53 185q0 84 -23 148t-61.5 101t-84.5 55.5t-97 18.5q-33 0 -67.5 -12.5t-70 -40t-58 -82t-22.5 -127.5z" />
    <glyph glyph-name="R" unicode="R" horiz-adv-x="723" 
d="M335 284h-89v-230q15 -2 46 -7.5t45 -7.5v-39h-266v39l81 15v555q-12 2 -39.5 7.5t-41.5 7.5v39h283q24 0 49 -4t53 -14.5t49.5 -27t35.5 -44.5t14 -64q0 -60 -28.5 -114.5t-87.5 -84.5v-11l190 -250q7 -3 29 -13.5t34 -15.5l-9 -33l-146 27l-17 23q-116 164 -185 247z
M246 610v-279h91q57 1 87.5 31.5t30.5 110.5q0 137 -132 137h-77z" />
    <glyph glyph-name="S" unicode="S" horiz-adv-x="596" 
d="M112 26l-13 178h44q13 -89 49 -125.5t99 -36.5q64 0 101.5 32.5t37.5 88.5q0 49 -37 78.5t-105 53.5q-38 13 -66 27.5t-56 37t-43 56.5t-15 77q0 88 60.5 134.5t142.5 46.5q66 0 165 -29q0 -28 2 -81.5t3 -81.5h-33q-15 76 -49.5 108t-89.5 32q-56 0 -86 -31.5t-30 -84.5
q0 -69 130 -122q42 -16 71 -31t59 -38.5t45.5 -56t15.5 -73.5q0 -79 -57 -137.5t-157 -58.5q-54 0 -108 11.5t-80 25.5z" />
    <glyph glyph-name="T" unicode="T" horiz-adv-x="714" 
d="M75 667l153 -4h248l163 4q1 -31 5 -92t6 -92h-37l-37 134h-173v-568q15 -2 44 -7.5t42 -7.5v-34h-264v34l85 15v568h-172l-36 -134h-38q2 31 5.5 92t5.5 92z" />
    <glyph glyph-name="U" unicode="U" horiz-adv-x="790" 
d="M521 663h211v-39l-67 -15l-9 -129v-270q0 -36 -15 -73.5t-44 -71t-80 -55t-116 -21.5q-121 0 -191.5 62t-70.5 141v417q-12 2 -39.5 7.5t-41.5 7.5v39h257v-39l-82 -15v-399q0 -68 49.5 -113.5t138.5 -45.5q82 0 136 50t54 139v245l-7 124q-14 2 -42.5 7.5t-40.5 7.5v39z
" />
    <glyph glyph-name="V" unicode="V" horiz-adv-x="739" 
d="M406 133l174 471l-94 23v36h207v-37l-63 -26l-35 -78l-195 -522h-52l-229 609l-73 14v40h240v-39l-75 -15l179 -476h16z" />
    <glyph glyph-name="W" unicode="W" horiz-adv-x="1018" 
d="M525 532l-13 1l-150 -533h-57l-187 609l-73 14v40h245v-39l-75 -15l133 -452h17l142 511h62l161 -511h16l125 447l-105 23v36h207v-37l-48 -27l-29 -75l-155 -524h-53z" />
    <glyph glyph-name="X" unicode="X" horiz-adv-x="731" 
d="M128 53l197 275l-183 282l-76 14v39h249v-39l-69 -15l134 -205l147 205q-15 2 -47 7.5t-47 7.5v39h224v-39l-80 -14l-173 -244l207 -313q12 -2 37 -7t37 -7v-39h-248v39l66 15l-154 235l-167 -235q12 -2 41.5 -7.5t43.5 -7.5v-39h-221v39z" />
    <glyph glyph-name="Y" unicode="Y" horiz-adv-x="685" 
d="M385 352l144 252l-97 23v36h207v-37l-57 -26l-176 -310v-236q14 -2 41.5 -7.5t39.5 -7.5v-39h-257v39l82 15v235l-194 321l-72 14v39h240v-39l-74 -15l154 -257h19z" />
    <glyph glyph-name="Z" unicode="Z" horiz-adv-x="715" 
d="M614 -5l-252 5h-269l-8 14q-8 14 -9 18l421 532l-8 17h-315l-39 -100h-28q1 32 5 93.5t6 92.5l150 -4h349l14 -19l-433 -547l5 -15h362l42 104h27q-3 -32 -10 -95.5t-10 -95.5z" />
    <glyph glyph-name="bracketleft" unicode="[" horiz-adv-x="425" 
d="M353 737v-41l-166 -15v-850q26 -3 82.5 -7.5t83.5 -6.5v-42h-234v962h234z" />
    <glyph glyph-name="backslash" unicode="\" horiz-adv-x="550" 
d="M419 -123l-342 857h56q60 -153 175.5 -441.5t165.5 -415.5h-55z" />
    <glyph glyph-name="bracketright" unicode="]" horiz-adv-x="425" 
d="M72 695v42h235v-962h-235v41l166 15v850q-27 3 -83.5 7.5t-82.5 6.5z" />
    <glyph glyph-name="asciicircum" unicode="^" horiz-adv-x="540" 
d="M284 691l221 -377l-58 -33l-172 300h-8l-175 -300l-57 33l222 377h27z" />
    <glyph glyph-name="underscore" unicode="_" horiz-adv-x="604" 
d="M0 -195h604v-38h-604v38z" />
    <glyph glyph-name="grave" unicode="`" 
d="M306 507v-6h-43l-129 162l1 -1v8h85l87 -164z" />
    <glyph glyph-name="a" unicode="a" horiz-adv-x="658" 
d="M462 51l-51 134h-195l-58 -134q10 -1 35.5 -5.5t37.5 -6.5v-39h-190v40l63 12l220 483h43l190 -483l61 -13v-39h-216v39zM329 400h-21l-71 -167h156z" />
    <glyph glyph-name="b" unicode="b" horiz-adv-x="606" 
d="M407 293v-11q58 -12 91.5 -45.5t33.5 -82.5q0 -69 -54 -111.5t-142 -42.5h-269v39l68 12v433q-10 1 -33.5 5.5t-34.5 6.5v39h255q78 0 122 -30.5t44 -89.5q0 -34 -20.5 -68.5t-60.5 -53.5zM434 150q0 49 -36 75.5t-90 26.5h-82v-205h95q113 0 113 103zM226 488v-186h84
q45 0 66 32.5t21 66.5q0 41 -23 64t-64 23h-84z" />
    <glyph glyph-name="c" unicode="c" horiz-adv-x="643" 
d="M377 38q56 0 105 16l58 102h29q-4 -21 -14 -65t-15 -68l-5 -2q-92 -30 -168 -30q-126 0 -209 73t-83 202q0 131 83 204.5t219 73.5q88 0 165 -35q1 -23 4 -67.5t4 -66.5h-30l-31 88q-36 38 -123 38q-25 0 -50 -6.5t-51 -22t-46 -39t-32.5 -60.5t-12.5 -83
q0 -73 20 -125.5t52.5 -78t64.5 -37t66 -11.5z" />
    <glyph glyph-name="d" unicode="d" horiz-adv-x="708" 
d="M317 0h-251v39l65 12v433l-32.5 6.5t-32.5 5.5v39h316q117 0 184.5 -64t67.5 -176q0 -140 -88 -217.5t-229 -77.5zM224 47h102q91 0 151 57.5t60 176.5q0 207 -192 207h-121v-441z" />
    <glyph glyph-name="e" unicode="e" horiz-adv-x="586" 
d="M226 45h229l36 98h29l-13 -147l-131 4h-309v39l68 12v433q-10 1 -33.5 5.5t-34.5 6.5v39h299l110 3l9 -131h-23l-37 82h-199v-202l147 5l23 81h24v-210h-24l-23 82l-147 3v-203z" />
    <glyph glyph-name="f" unicode="f" horiz-adv-x="535" 
d="M226 52l78 -12v-40h-237v40l67 12v432q-11 1 -33.5 5.5t-33.5 6.5v39h288l109 3l5 -131h-24l-29 82h-190v-202l140 6l23 78h24v-210h-24l-23 83l-140 3v-195z" />
    <glyph glyph-name="g" unicode="g" horiz-adv-x="689" 
d="M387 38q63 0 103 30v129l-78 14v38h216v-38l-51 -13v-156q-97 -51 -203 -51q-123 0 -211.5 71t-88.5 193q0 76 25.5 133.5t70 90.5t97.5 49t114 16q85 0 181 -31l13 -144h-30l-37 91q-54 41 -139 41q-84 0 -140 -53.5t-56 -160.5q0 -69 20 -120t53.5 -77.5t68.5 -39
t72 -12.5z" />
    <glyph glyph-name="h" unicode="h" horiz-adv-x="733" 
d="M438 535h229v-39l-69 -12v-433q11 -2 35 -6.5t34 -5.5v-39h-229v39l69 12v206h-282v-205l69 -13v-39h-228v39l67 12v433q-11 1 -34 5.5t-33 6.5v39h228v-39l-69 -12v-180h282v180q-11 2 -34.5 6.5t-34.5 5.5v39z" />
    <glyph glyph-name="i" unicode="i" horiz-adv-x="398" 
d="M86 535h227v-39l-67 -12v-433q11 -1 33.5 -5.5t33.5 -6.5v-39h-227v39l67 12v433q-10 1 -33 5.5t-34 6.5v39z" />
    <glyph glyph-name="j" unicode="j" horiz-adv-x="376" 
d="M151 15v470q-13 1 -40.5 5t-40.5 6v39h248v-39l-75 -11v-430q0 -66 -26 -101q-59 -83 -113 -137q-7 5 -20.5 17t-20.5 18q37 39 70 92q18 27 18 71z" />
    <glyph glyph-name="k" unicode="k" horiz-adv-x="653" 
d="M224 484v-181h46l172 177q-8 3 -28 7.5t-28 6.5v41h191v-40l-77 -21l-164 -168l220 -254l51 -12v-40h-226v39l62 12l-168 198h-51v-198q10 -1 33 -5.5t34 -6.5v-39h-225v39l68 12v433q-11 1 -34.5 5.5t-33.5 6.5v39h225v-39z" />
    <glyph glyph-name="l" unicode="l" horiz-adv-x="558" 
d="M485 -4l-122 4h-296v39l67 12v433q-11 1 -33.5 5.5t-33.5 6.5v39h230v-39l-71 -12v-439h201l43 110h27z" />
    <glyph glyph-name="m" unicode="m" horiz-adv-x="857" 
d="M415 135h24l186 400h161v-40l-79 -17q2 -72 8 -214l9 -213q11 -2 34.5 -6.5t33.5 -5.5v-39h-228v39l68 12l-11 332h-19l-181 -390h-34l-175 390h-18l-12 -332q11 -2 33 -6.5t32 -5.5v-39h-181v39l63 12l29 428q-12 3 -39 8t-38 7v41h162z" />
    <glyph glyph-name="n" unicode="n" horiz-adv-x="709" 
d="M513 162h20v208l-4 114q-10 1 -33 5.5t-34 6.5v39h187v-39l-65 -12l-4 -118v-368h-37l-349 398h-19v-215l5 -129l73 -13v-39h-192v39l63 12l4 127v310l-67 8v39h131z" />
    <glyph glyph-name="o" unicode="o" horiz-adv-x="736" 
d="M74 255q0 72 25 129t66.5 91t92 51.5t106.5 17.5q131 0 214.5 -71t83.5 -191q0 -135 -83.5 -213t-222.5 -78q-121 0 -201.5 70t-80.5 194zM169 298q0 -130 59 -196t148 -66q75 0 132 52.5t57 160.5q0 126 -64 189t-153 63q-27 0 -55.5 -9.5t-57.5 -31t-47.5 -63.5
t-18.5 -99z" />
    <glyph glyph-name="p" unicode="p" horiz-adv-x="555" 
d="M270 222v33q55 1 87 35.5t32 93.5q0 102 -106 102h-58v-434l77 -13v-39h-235v39l66 12v433l-33 6l-33 6v39h233q100 0 142 -36t42 -107q0 -77 -57 -123t-157 -47z" />
    <glyph glyph-name="q" unicode="q" horiz-adv-x="736" 
d="M74 255q0 72 25 129t66.5 91t92 51.5t106.5 17.5q131 0 214.5 -71t83.5 -191q0 -104 -54.5 -176.5t-146.5 -100.5q94 -67 179 -74q0 -8 0.5 -23.5t0.5 -23.5q-149 3 -308 108q-114 7 -186.5 76t-72.5 187zM169 298q0 -113 46.5 -178t120.5 -80q9 5 28 13.5t26 12.5
q13 -14 28 -26q63 14 105 66t42 143q0 126 -64 189t-153 63q-27 0 -55.5 -9.5t-57.5 -31t-47.5 -63.5t-18.5 -99z" />
    <glyph glyph-name="r" unicode="r" horiz-adv-x="640" 
d="M299 235h-75v-183l78 -13v-39h-236v39l68 12v433q-11 1 -34.5 5.5t-33.5 6.5v39h254q28 0 55.5 -6t56 -19.5t46.5 -41t18 -65.5q0 -43 -25 -81.5t-78 -61.5v-7l157 -205q10 -4 31 -13t27 -12l-10 -34l-135 22zM224 485v-203h81q94 2 94 103q0 100 -105 100h-70z" />
    <glyph glyph-name="s" unicode="s" horiz-adv-x="541" 
d="M101 22l-11 149h39q13 -71 45 -100t89 -29q56 0 88.5 24.5t32.5 67.5q0 37 -32 58t-94 40h1q-72 23 -116.5 60.5t-44.5 103.5q0 71 54.5 109.5t127.5 38.5q62 0 150 -23q0 -24 2 -71.5t3 -71.5h-30q-17 63 -48 89.5t-79 26.5t-74.5 -24t-26.5 -64q0 -31 30 -51.5
t85 -38.5q80 -28 125 -64t45 -100q0 -66 -51 -113.5t-141 -47.5q-46 0 -95 9.5t-74 21.5z" />
    <glyph glyph-name="t" unicode="t" horiz-adv-x="634" 
d="M74 538l135 -3h209l143 3l9 -159h-32l-35 111h-140v-442l71 -12v-36h-234v35l72 12v443h-139q-5 -15 -17 -53.5t-19 -57.5h-33z" />
    <glyph glyph-name="u" unicode="u" horiz-adv-x="692" 
d="M449 535h188v-39l-57 -12l-4 -50q-2 -16 -4 -48v-215q0 -29 -13 -59.5t-38 -58t-69 -45t-100 -17.5q-105 0 -166.5 50.5t-61.5 115.5v327q-10 1 -33.5 5.5t-34.5 6.5v39h229v-39l-68 -12v-313q0 -54 39.5 -89t111.5 -35q69 0 113.5 38.5t44.5 109.5v195l-6 94
q-11 1 -35 5.5t-36 6.5v39z" />
    <glyph glyph-name="v" unicode="v" horiz-adv-x="649" 
d="M342 120h21l135 362l-76 16v37h182v-37l-51 -20l-29 -61l-168 -417h-55l-193 484q-9 1 -30.5 5.5t-31.5 6.5v39h220v-39l-61 -12z" />
    <glyph glyph-name="w" unicode="w" horiz-adv-x="885" 
d="M462 388h-22q-15 -56 -34 -122t-42 -144.5t-35 -121.5h-57l-162 484q-10 1 -32 5.5t-33 6.5v39h220v-39l-61 -12l105 -327h19q21 71 59 206t50 176h63l121 -382h21l99 325l-85 16v37h184v-36l-41 -21l-24 -59l-68 -210q-10 -34 -33 -104.5t-34 -104.5h-54z" />
    <glyph glyph-name="x" unicode="x" horiz-adv-x="643" 
d="M117 51l163 214l-151 220q-10 1 -32 5t-34 6v39h222v-39l-55 -12l104 -148l114 148q-11 1 -37 5.5t-38 6.5v39h200v-39l-68 -11l-143 -191l171 -242l64 -13v-39h-221v39l51 12l-119 173l-131 -173q9 -1 32.5 -5.5t34.5 -6.5v-39h-198v40z" />
    <glyph glyph-name="y" unicode="y" horiz-adv-x="604" 
d="M323 291h23l109 191l-79 16v37h182v-37l-49 -20l-147 -249v-178q11 -1 34.5 -6t33.5 -6v-39h-228v39l68 12v176l-162 258l-62 11v39h220v-39l-59 -12z" />
    <glyph glyph-name="z" unicode="z" horiz-adv-x="624" 
d="M532 -4l-213 4h-231l-16 30l353 414l-5 8h-267l-31 -78h-24q1 27 4 82t4 82l133 -3h297l15 -19l-364 -427l2 -6h302q7 18 34 82h23z" />
    <glyph glyph-name="braceleft" unicode="{" horiz-adv-x="525" 
d="M166 284v-18q63 -9 107.5 -51.5t44.5 -104.5q0 -27 -20 -89q-25 -73 -25 -116q0 -93 157 -96v-38q-86 0 -138 18.5t-71.5 48.5t-20.5 77l43 203q0 58 -43.5 89.5t-114.5 33.5v63q67 1 112.5 37t45.5 83l-41 186q2 67 53 97.5t169 30.5v-38q-151 -2 -151 -81l45 -190
q-1 -53 -45 -92.5t-107 -52.5z" />
    <glyph glyph-name="bar" unicode="|" horiz-adv-x="540" 
d="M238 -231v982h65v-982h-65z" />
    <glyph glyph-name="braceright" unicode="}" horiz-adv-x="525" 
d="M358 266v18q-63 13 -107 52.5t-45 92.5l46 190q0 81 -151 81v38q118 0 168.5 -30.5t52.5 -97.5l-41 -186q0 -47 45.5 -83t113.5 -37v-63q-72 -2 -115.5 -33.5t-43.5 -89.5l43 -203q-2 -72 -51.5 -107.5t-177.5 -36.5v38q157 3 157 96q0 40 -26 116q-20 60 -20 89
q0 62 44.5 104.5t107.5 51.5z" />
    <glyph glyph-name="asciitilde" unicode="~" horiz-adv-x="540" 
d="M469 373l36 -14q-21 -62 -63.5 -109.5t-80.5 -47.5q-23 0 -105 39.5t-105 39.5q-15 0 -30 -13.5t-23.5 -27.5t-22.5 -42l-40 16q17 53 61 106t71 53q30 0 107.5 -40t106.5 -40q24 0 50.5 25t37.5 55z" />
    <glyph glyph-name="uni00A0" unicode="&#xa0;" horiz-adv-x="290" 
 />
    <glyph glyph-name="exclamdown" unicode="&#xa1;" horiz-adv-x="423" 
d="M272 481q0 -26 -17.5 -44.5t-42.5 -18.5t-42.5 18.5t-17.5 44.5t17.5 44t42.5 18t42.5 -18t17.5 -44zM175 -163l-17 8l39 485q6 0 15 2t15 3q6 -82 19 -244.5t17 -211.5z" />
    <glyph glyph-name="cent" unicode="&#xa2;" horiz-adv-x="483" 
d="M379 201l19 -26q-24 -24 -61.5 -44t-69.5 -27v-104h-33v103q-73 6 -118 62t-45 134q0 104 46 147q52 50 117 72v108h33v-99h12q59 0 95 -16l3 -123h-29q-5 44 -14 66q-3 0 -7 2h2q-22 15 -62 18v-309q8 -2 19 -2q47 0 93 38zM141 341q0 -130 93 -170v301
q-40 -9 -66.5 -41t-26.5 -90z" />
    <glyph glyph-name="sterling" unicode="&#xa3;" horiz-adv-x="598" 
d="M98 331h85v95q0 105 106 170q68 42 119 42q38 0 88 -18v-144h-27q-19 108 -103 108q-33 0 -63 -31t-30 -103v-119h130v-39h-130q-2 -70 -26.5 -115.5t-69.5 -87.5l4 -10q62 -5 207 -5q49 0 68.5 17.5t23.5 72.5h27l-10 -168q-27 -8 -66 -8q-42 0 -128 21q-88 21 -143 27
q-21 -48 -58 -48q-12 0 -20 7.5t-8 19.5q0 21 19.5 41t45.5 30q44 52 44 127v79h-85v39z" />
    <glyph glyph-name="currency" unicode="&#xa4;" horiz-adv-x="674" 
d="M116 272q0 69 40 127l-45 44q-11 11 -2 29.5t25 26t28 -0.5l46 -47q58 42 129 42t126 -39l43 45q10 11 29 0t29.5 -30.5t0.5 -29.5l-45 -43q38 -55 38 -124q0 -70 -42 -130l48 -46q11 -11 2 -29.5t-25 -26.5t-28 1l-50 50q-55 -40 -126 -40q-69 0 -124 36l-42 -44
q-11 -12 -31 -2.5t-29 27t1 30.5l44 43q-40 55 -40 131zM186 271q0 -70 42 -115.5t110 -45.5q63 0 105.5 46t42.5 115q0 71 -42.5 116.5t-106.5 45.5q-70 0 -110.5 -46t-40.5 -116z" />
    <glyph glyph-name="yen" unicode="&#xa5;" horiz-adv-x="604" 
d="M328 312l136 253l-98 24v36h207v-37l-57 -27l-168 -313l132 -3v-37h-131v-53h131v-37h-131v-64q12 -2 39.5 -7.5t41.5 -7.5v-39h-257v39l82 15v64h-129v37h129v53h-129v37h130l-167 325l-57 15v40h225v-39l-74 -16l125 -258h20z" />
    <glyph glyph-name="brokenbar" unicode="&#xa6;" horiz-adv-x="540" 
d="M303 402h-65v349h65v-349zM238 117h65v-348h-65v348z" />
    <glyph glyph-name="section" unicode="&#xa7;" horiz-adv-x="645" 
d="M462 271q0 34 -34 54.5t-104 43.5q-30 9 -79 29q-59 -21 -59 -76q0 -17 8.5 -31t20 -23.5t33.5 -19t37 -14.5t43 -14q51 -16 81 -29q53 41 53 80zM322 -105q56 0 91.5 36.5t35.5 98.5q0 20 -9.5 37t-22 28.5t-36 22t-40.5 16.5t-45 15q-37 11 -61 21t-52.5 27.5
t-42.5 42.5t-14 58q0 83 85 125q-51 42 -51 84q0 75 64.5 143t159.5 68q19 0 48.5 -14t49.5 -36h-1q10 -35 -13.5 -62t-45.5 -28q-17 35 -43.5 53.5t-54.5 18.5q-38 0 -71 -33t-33 -72q0 -19 11 -34t35 -28.5t42 -21.5t52 -21q33 -13 48 -19.5t41.5 -20.5t38.5 -26t22.5 -30
t10.5 -39q0 -79 -77 -128q74 -52 74 -114q0 -85 -67.5 -155.5t-124.5 -70.5q-52 0 -112 26.5t-89 86.5l1 -1q9 69 48 76q21 -68 60.5 -99t87.5 -31z" />
    <glyph glyph-name="dieresis" unicode="&#xa8;" 
d="M384 570q0 -19 -14.5 -34t-32.5 -15q-19 0 -33.5 15t-14.5 34q0 21 14.5 36.5t33.5 15.5q18 0 32.5 -15.5t14.5 -36.5zM212 570q0 -20 -14 -34.5t-33 -14.5t-33.5 15t-14.5 34q0 21 14.5 36.5t33.5 15.5t33 -15.5t14 -36.5z" />
    <glyph glyph-name="copyright" unicode="&#xa9;" horiz-adv-x="793" 
d="M414 158q26 0 50 8l34 60h34l-17 -83l-16 -5q-50 -16 -91 -16q-76 0 -125.5 45.5t-49.5 126.5t49.5 127t131.5 46q56 0 102 -24l4 -83h-34l-21 55l2 -1q-19 21 -60 21q-38 0 -70.5 -31t-32.5 -95q0 -82 34 -116.5t76 -34.5zM89 296q0 126 90.5 216.5t217.5 90.5
q131 0 219 -89.5t88 -217.5q0 -127 -90.5 -217.5t-216.5 -90.5q-129 0 -218.5 87t-89.5 221zM148 294q0 -110 70 -183t180 -73t178.5 72.5t68.5 183.5q0 114 -70.5 187.5t-177.5 73.5q-109 0 -179 -74.5t-70 -186.5z" />
    <glyph glyph-name="ordfeminine" unicode="&#xaa;" 
d="M348 341l-37 95h-144l-42 -95q18 -2 33 -5l21 -4v-32h-148v32l47 9l166 355h38l144 -354l45 -11v-31h-168v32zM243 605l-58 -131h110z" />
    <glyph glyph-name="guillemotleft" unicode="&#xab;" horiz-adv-x="672" 
d="M114 239l188 201q6 -5 16.5 -12.5t16.5 -12.5l-129 -178v-15q6 -8 56 -76t74 -103l-34 -30q-35 36 -98.5 105.5t-89.5 97.5v23zM322 239l188 201q6 -5 16.5 -12.5t16.5 -12.5l-128 -178v-15q18 -25 62.5 -86t66.5 -93l-34 -30q-31 33 -94 101.5t-94 101.5v23z" />
    <glyph glyph-name="logicalnot" unicode="&#xac;" horiz-adv-x="540" 
d="M426 52v197h-388v64h457v-261h-69z" />
    <glyph glyph-name="registered" unicode="&#xae;" horiz-adv-x="598" 
d="M295 488h-16v-76l32 -4v-20h-113v20l28 4v192l-28 5v20h109q29 0 55 -13.5t26 -44.5q0 -46 -41 -71v-3q46 -68 57 -84l12 -7l-5 -18l-54 8zM279 603v-90h22q16 1 24 10.5t8 34.5q0 45 -38 45h-16zM85 503q0 88 63 151t151 63q91 0 152.5 -62.5t61.5 -151.5
q0 -88 -63 -151t-151 -63q-89 0 -151.5 61t-62.5 153zM129 502q0 -76 48 -125.5t123 -49.5q70 0 119.5 50.5t49.5 124.5q0 77 -49 126.5t-121 49.5q-78 0 -124 -49.5t-46 -126.5z" />
    <glyph glyph-name="macron" unicode="&#xaf;" 
d="M373 523h-245v54h245v-54z" />
    <glyph glyph-name="degree" unicode="&#xb0;" horiz-adv-x="417" 
d="M65 494q0 59 42 101.5t101 42.5t101.5 -42.5t42.5 -101.5t-42.5 -101t-101.5 -42q-58 0 -100.5 42.5t-42.5 100.5zM125 494q0 -39 22.5 -65.5t59.5 -26.5t60.5 26.5t23.5 65.5t-23.5 66.5t-60.5 27.5t-59.5 -27.5t-22.5 -66.5z" />
    <glyph glyph-name="plusminus" unicode="&#xb1;" horiz-adv-x="620" 
d="M570 320h-230v-210h-60v210h-230v60h230v210h60v-210h230v-60zM570 0h-520v60h520v-60z" />
    <glyph glyph-name="two.sups" unicode="&#xb2;" horiz-adv-x="314" 
d="M143 726q-34 0 -53 -21q-13 -18 -13 -44h-36l15 69l-2 -1q16 16 47 28t48 12q49 0 83.5 -29t34.5 -73q0 -36 -50 -92t-122 -111q0 -3 4 -7l94 6q61 4 83 5v-52l-240 3l-7 24l-2 -1q97 85 136.5 133t39.5 86q0 29 -18.5 47t-41.5 18z" />
    <glyph glyph-name="three.sups" unicode="&#xb3;" horiz-adv-x="314" 
d="M156 438q22 0 39.5 17t17.5 48q0 36 -27 57t-50 17l-41 -5q-1 6 -4 15t-4 13q45 8 80 31t35 49q0 49 -56 49q-30 0 -50 -15q-12 -18 -12 -40h-34q2 10 7 31t7 31q18 14 47.5 23.5t46.5 9.5q47 0 76 -20.5t29 -49.5q0 -46 -79 -91q5 0 9 1l2 -3q34 -9 57.5 -34t23.5 -57
q0 -44 -39 -74t-89 -30q-55 0 -101 25q-3 13 -10 37.5t-10 36.5h29q16 -35 40 -57q26 -15 60 -15z" />
    <glyph glyph-name="acute" unicode="&#xb4;" 
d="M195 501v6l-1 -1l86 164h86v-8l1 1l-129 -162h-43z" />
    <glyph glyph-name="mu" unicode="&#xb5;" horiz-adv-x="540" 
d="M366 27l-8 6q-68 -45 -134 -45q-41 0 -71 27q1 -26 4 -64.5t4.5 -64t1.5 -38.5q0 -60 -46 -60q-40 0 -40 52q0 17 6 120.5t8 159.5q-1 7 -1 21v257l-63 11v38l154 18v-309q0 -56 21 -78.5t65 -22.5q58 0 93 37v306l-63 11v38l154 18v-364q0 -43 21 -43q20 0 34 34l28 -11
q-16 -47 -46 -68.5t-58 -21.5q-26 0 -37.5 7t-26.5 29z" />
    <glyph glyph-name="mu" unicode="&#x3bc;" horiz-adv-x="540" 
d="M366 27l-8 6q-68 -45 -134 -45q-41 0 -71 27q1 -26 4 -64.5t4.5 -64t1.5 -38.5q0 -60 -46 -60q-40 0 -40 52q0 17 6 120.5t8 159.5q-1 7 -1 21v257l-63 11v38l154 18v-309q0 -56 21 -78.5t65 -22.5q58 0 93 37v306l-63 11v38l154 18v-364q0 -43 21 -43q20 0 34 34l28 -11
q-16 -47 -46 -68.5t-58 -21.5q-26 0 -37.5 7t-26.5 29z" />
    <glyph glyph-name="paragraph" unicode="&#xb6;" horiz-adv-x="645" 
d="M568 706v-63h-58v-801h-50v801h-76v-801h-50v402q-128 0 -198 62t-70 170q0 105 68 167.5t175 62.5h259zM334 298v345q-76 0 -123 -47t-47 -123q0 -79 45 -127t125 -48z" />
    <glyph glyph-name="periodcentered" unicode="&#xb7;" horiz-adv-x="343" 
d="M112 264q0 26 17 44.5t42 18.5t42.5 -18.5t17.5 -44.5q0 -27 -17.5 -45t-42.5 -18t-42 18t-17 45z" />
    <glyph glyph-name="cedilla" unicode="&#xb8;" 
d="M206 -224l-6 21q39 8 63 24.5t24 38.5q0 44 -77 44q-19 0 -27 -1l-3 4q8 15 27 52.5t29 56.5h37l-39 -70q48 0 77.5 -17.5t29.5 -53.5t-39 -63t-96 -36z" />
    <glyph glyph-name="one.sups" unicode="&#xb9;" horiz-adv-x="289" 
d="M54 688l-9 28q76 24 112 51l31 -4v-313l43 -5l36 -4v-22h-218v23l77 8v257l-15 -2q-16 -8 -57 -17z" />
    <glyph glyph-name="ordmasculine" unicode="&#xba;" horiz-adv-x="559" 
d="M56 489q0 104 65.5 159t156.5 55q100 0 163.5 -52.5t63.5 -141.5q0 -100 -64 -158t-169 -58q-93 0 -154.5 52t-61.5 144zM134 521q0 -95 43.5 -143t109.5 -48q56 0 98 38t42 116q0 93 -47.5 138.5t-114.5 45.5q-47 0 -89 -35t-42 -112z" />
    <glyph glyph-name="guillemotright" unicode="&#xbb;" horiz-adv-x="672" 
d="M371 440l188 -201v-23l-189 -203l-33 30l130 179v15l-129 178q6 4 17 12t16 13zM163 440l188 -201v-23l-189 -203l-33 30l130 179v15l-129 178q6 4 17 12t16 13z" />
    <glyph glyph-name="onequarter" unicode="&#xbc;" horiz-adv-x="770" 
d="M580 12v79h-149l-10 22q29 54 82.5 116.5t107.5 107.5l27 -11l-3 -80v-125h62v-29h-62v-79q32 -4 37 -5q8 -2 22 -4v-22h-169v22zM138 -35l241 370l223 351q5 -3 16.5 -11t16.5 -11l-235 -349q-19 -31 -101 -166t-128 -207q-30 21 -33 23zM83 613l-11 28q80 26 113 50
l31 -4v-313l44 -5l35 -4v-22h-218v23l77 8v258l-15 -2q-17 -8 -56 -17zM468 123l112 -2v144q-69 -65 -112 -142z" />
    <glyph glyph-name="onehalf" unicode="&#xbd;" horiz-adv-x="770" 
d="M138 -35l241 370l223 351q5 -3 16.5 -11t16.5 -11l-235 -349q-19 -31 -101 -166t-128 -207q-30 21 -33 23zM83 613l-11 28q80 26 113 50l31 -4v-313l44 -5l35 -4v-22h-218v23l77 8v258l-15 -2q-17 -8 -56 -17zM570 290q-34 0 -53 -21q-12 -19 -12 -45h-36l15 70l-2 -1
q17 16 47.5 27.5t46.5 11.5q50 0 84 -28.5t34 -73.5q0 -36 -49.5 -91.5t-122.5 -111.5q0 -3 4 -7l95 6q61 4 82 5v-52l-239 3l-7 24l-2 -1q98 87 137 134t39 85q0 30 -18.5 48t-42.5 18z" />
    <glyph glyph-name="threequarters" unicode="&#xbe;" horiz-adv-x="770" 
d="M580 12v79h-149l-10 22q29 54 82.5 116.5t107.5 107.5l27 -11l-3 -80v-125h62v-29h-62v-79q32 -4 37 -5q8 -2 22 -4v-22h-169v22zM178 362q22 0 39.5 17t17.5 49q0 36 -26.5 56.5t-50.5 17.5l-41 -5q-1 5 -4 14t-4 13q46 8 80.5 31t34.5 50q0 49 -56 49q-30 0 -50 -15
q-12 -18 -12 -40h-34q2 11 7.5 31t7.5 31q17 13 46.5 22.5t46.5 9.5q48 0 76.5 -20t28.5 -49q0 -25 -24 -49.5t-55 -42.5q5 0 9 1l2 -3q34 -9 57.5 -33.5t23.5 -56.5q0 -45 -39 -74.5t-89 -29.5q-55 0 -101 24q-3 12 -10 36.5t-10 38.5h29q18 -38 40 -58q26 -15 60 -15z
M138 -35l241 370l223 351q5 -3 16.5 -11t16.5 -11l-235 -349q-19 -31 -101 -166t-128 -207q-30 21 -33 23zM468 123l112 -2v144q-69 -65 -112 -142z" />
    <glyph glyph-name="questiondown" unicode="&#xbf;" horiz-adv-x="533" 
d="M349 481q0 -26 -17 -44.5t-42 -18.5t-43 18.5t-18 44.5t18 44t43 18t42 -18t17 -44zM245 286v20l35 30q38 -5 59.5 -22.5t21.5 -43.5q0 -23 -16.5 -49.5t-33.5 -43.5t-49 -45q-30 -25 -47 -41.5t-31.5 -39t-14.5 -40.5q0 -37 43 -63.5t85 -26.5q25 0 43 10l28 65l38 -17
q-12 -61 -36 -107q-19 -36 -59 -36q-81 0 -150 42.5t-69 109.5q0 27 19.5 57.5t40 50t55.5 49.5q30 26 43 38t26.5 29.5t13.5 30.5q0 17 -11 26.5t-34 16.5z" />
    <glyph glyph-name="Agrave" unicode="&#xc0;" horiz-adv-x="750" 
d="M544 54l-62 179h-243l-74 -179q13 -2 43 -7.5t45 -7.5v-39h-213v39l72 15q46 106 137 312t130 297h40l221 -609q11 -2 35 -7.5t35 -7.5v-39h-239v39zM363 527l-102 -245h204l-84 245h-18zM448 731v-6h-45l-128 127l2 -1v8h86l86 -129z" />
    <glyph glyph-name="Aacute" unicode="&#xc1;" horiz-adv-x="750" 
d="M544 54l-62 179h-243l-74 -179q13 -2 43 -7.5t45 -7.5v-39h-213v39l72 15q46 106 137 312t130 297h40l221 -609q11 -2 35 -7.5t35 -7.5v-39h-239v39zM363 527l-102 -245h204l-84 245h-18zM337 725v6l-1 -1l86 129h86v-8l2 1l-129 -127h-44z" />
    <glyph glyph-name="Acircumflex" unicode="&#xc2;" horiz-adv-x="750" 
d="M544 54l-62 179h-243l-74 -179q13 -2 43 -7.5t45 -7.5v-39h-213v39l72 15q46 106 137 312t130 297h40l221 -609q11 -2 35 -7.5t35 -7.5v-39h-239v39zM363 527l-102 -245h204l-84 245h-18zM533 731v-6h-38l-103 72l-102 -72h-38v6l-1 -1l120 129h43z" />
    <glyph glyph-name="Atilde" unicode="&#xc3;" horiz-adv-x="750" 
d="M544 54l-62 179h-243l-74 -179q13 -2 43 -7.5t45 -7.5v-39h-213v39l72 15q46 106 137 312t130 297h40l221 -609q11 -2 35 -7.5t35 -7.5v-39h-239v39zM363 527l-102 -245h204l-84 245h-18zM530 860l17 -7q-14 -49 -41.5 -86t-51.5 -37q-14 0 -62 31q-48 30 -66 30
q-31 0 -57 -61q-3 1 -10 3t-10 4q12 40 40 81t44 41q14 0 62 -31q48 -30 68 -30q18 0 38 20t29 42z" />
    <glyph glyph-name="Adieresis" unicode="&#xc4;" horiz-adv-x="750" 
d="M544 54l-62 179h-243l-74 -179q13 -2 43 -7.5t45 -7.5v-39h-213v39l72 15q46 106 137 312t130 297h40l221 -609q11 -2 35 -7.5t35 -7.5v-39h-239v39zM363 527l-102 -245h204l-84 245h-18zM526 795q0 -19 -15 -34.5t-32 -15.5q-19 0 -33.5 15t-14.5 35t14.5 35.5
t33.5 15.5q18 0 32.5 -15.5t14.5 -35.5zM354 795q0 -20 -14 -35t-33 -15t-33.5 15t-14.5 35t14.5 35.5t33.5 15.5t33 -15.5t14 -35.5z" />
    <glyph glyph-name="Aring" unicode="&#xc5;" horiz-adv-x="750" 
d="M544 54l-62 179h-243l-74 -179q13 -2 43 -7.5t45 -7.5v-39h-213v39l72 15q46 106 137 312t130 297h40l221 -609q11 -2 35 -7.5t35 -7.5v-39h-239v39zM303 798q0 38 26 65t63 27t63.5 -27t26.5 -65t-26.5 -65.5t-63.5 -27.5t-63 27.5t-26 65.5zM363 527l-102 -245h204
l-84 245h-18zM339 798q0 -23 14.5 -38.5t37.5 -15.5q24 0 39 15.5t15 38.5t-15 39t-39 16q-23 0 -37.5 -16t-14.5 -39z" />
    <glyph glyph-name="AE" unicode="&#xc6;" horiz-adv-x="1010" 
d="M576 46h273l44 122h32l-15 -173l-148 5h-361v39l81 15v179h-208l-106 -179q13 -2 42.5 -7.5t44.5 -7.5v-39h-213v39l71 14l340 561l-52 10v39h344l121 4q2 -26 6 -77t5 -77h-26l-44 103h-231v-262l190 6q2 12 9 46.5t10 49.5h28v-240h-28l-19 96l-190 3v-269zM468 562
l-167 -280h181v280h-14z" />
    <glyph glyph-name="Ccedilla" unicode="&#xc7;" horiz-adv-x="742" 
d="M390 -224l-7 21q88 18 88 63q0 44 -77 44q-19 0 -27 -1l-3 4l42 83q-141 7 -231 96.5t-90 243.5q0 162 96.5 253t255.5 91q43 0 97 -11.5t90 -29.5l10 -155h-31l-40 105q-44 48 -140 48q-39 0 -77.5 -14t-75 -44t-59.5 -85.5t-23 -128.5q0 -75 16.5 -133.5t42.5 -93
t60 -57t65.5 -30.5t63.5 -8q66 0 121 22q9 16 32 57t35 63h31l-32 -152q-98 -35 -181 -37l-23 -44q47 0 76.5 -17.5t29.5 -53.5t-39 -63t-96 -36z" />
    <glyph glyph-name="Egrave" unicode="&#xc8;" horiz-adv-x="681" 
d="M246 46h273l44 122h32l-15 -173l-148 5h-361v39l81 15v555q-12 2 -39.5 7.5t-41.5 7.5v39h344l121 4q2 -26 5.5 -77t5.5 -77h-26l-44 103h-231v-262l190 6q2 12 9 46.5t10 49.5h28v-240h-28l-19 96l-190 3v-269zM389 731v-6h-44l-129 127l2 -1v8h87l85 -129z" />
    <glyph glyph-name="Eacute" unicode="&#xc9;" horiz-adv-x="681" 
d="M246 46h273l44 122h32l-15 -173l-148 5h-361v39l81 15v555q-12 2 -39.5 7.5t-41.5 7.5v39h344l121 4q2 -26 5.5 -77t5.5 -77h-26l-44 103h-231v-262l190 6q2 12 9 46.5t10 49.5h28v-240h-28l-19 96l-190 3v-269zM279 725v6l-1 -1l85 129h87v-8l2 1l-129 -127h-44z" />
    <glyph glyph-name="Ecircumflex" unicode="&#xca;" horiz-adv-x="681" 
d="M246 46h273l44 122h32l-15 -173l-148 5h-361v39l81 15v555q-12 2 -39.5 7.5t-41.5 7.5v39h344l121 4q2 -26 5.5 -77t5.5 -77h-26l-44 103h-231v-262l190 6q2 12 9 46.5t10 49.5h28v-240h-28l-19 96l-190 3v-269zM475 731v-6h-38l-103 72l-103 -72h-38v6l-1 -1l121 129h42
z" />
    <glyph glyph-name="Edieresis" unicode="&#xcb;" horiz-adv-x="681" 
d="M246 46h273l44 122h32l-15 -173l-148 5h-361v39l81 15v555q-12 2 -39.5 7.5t-41.5 7.5v39h344l121 4q2 -26 5.5 -77t5.5 -77h-26l-44 103h-231v-262l190 6q2 12 9 46.5t10 49.5h28v-240h-28l-19 96l-190 3v-269zM468 795q0 -19 -15 -34.5t-32 -15.5q-19 0 -34 15t-15 35
t15 35.5t34 15.5q18 0 32.5 -15.5t14.5 -35.5zM296 795q0 -20 -14 -35t-33 -15t-34 15t-15 35t15 35.5t34 15.5t33 -15.5t14 -35.5z" />
    <glyph glyph-name="Igrave" unicode="&#xcc;" horiz-adv-x="441" 
d="M93 663h256v-39l-81 -15v-555q13 -2 40.5 -7.5t40.5 -7.5v-39h-256v39l80 15v555q-12 2 -39.5 7.5t-40.5 7.5v39zM277 731v-6h-45l-128 127l2 -1v8h86l86 -129z" />
    <glyph glyph-name="Iacute" unicode="&#xcd;" horiz-adv-x="441" 
d="M93 663h256v-39l-81 -15v-555q13 -2 40.5 -7.5t40.5 -7.5v-39h-256v39l80 15v555q-12 2 -39.5 7.5t-40.5 7.5v39zM166 725v6l-1 -1l86 129h86v-8l2 1l-129 -127h-44z" />
    <glyph glyph-name="Icircumflex" unicode="&#xce;" horiz-adv-x="441" 
d="M94 663h256v-39l-81 -15v-555q13 -2 40.5 -7.5t40.5 -7.5v-39h-256v39l80 15v555q-13 2 -40 7.5t-40 7.5v39zM363 731v-6h-38l-103 72l-102 -72h-39v6l-1 -1l121 129h42z" />
    <glyph glyph-name="Idieresis" unicode="&#xcf;" horiz-adv-x="441" 
d="M93 663h256v-39l-81 -15v-555q13 -2 40.5 -7.5t40.5 -7.5v-39h-256v39l80 15v555q-12 2 -39.5 7.5t-40.5 7.5v39zM355 795q0 -19 -15 -34.5t-32 -15.5q-19 0 -33.5 15t-14.5 35t14.5 35.5t33.5 15.5q18 0 32.5 -15.5t14.5 -35.5zM183 795q0 -20 -14 -35t-33 -15t-33.5 15
t-14.5 35t14.5 35.5t33.5 15.5t33 -15.5t14 -35.5z" />
    <glyph glyph-name="Eth" unicode="&#xd0;" horiz-adv-x="815" 
d="M364 0h-293v39l79 15v251h-79v51h79v253q-12 2 -39 7.5t-40 7.5v39h369q136 0 213.5 -79.5t77.5 -218.5q0 -172 -102 -268.5t-265 -96.5zM245 48h129q111 0 184.5 73.5t73.5 226.5q0 133 -60 200t-176 67h-151v-259h171v-51h-171v-257z" />
    <glyph glyph-name="Ntilde" unicode="&#xd1;" horiz-adv-x="801" 
d="M597 180h22v280l-4 149q-12 2 -39 7.5t-40 7.5v39h206v-39l-76 -15l-5 -154v-457h-30l-430 512h-20v-288l5 -168q13 -2 42.5 -7.5t44.5 -7.5v-39h-214v39l76 15l4 165v396q-13 2 -40.5 4.5t-39.5 3.5v40h142zM532 860l17 -7q-14 -49 -41.5 -86t-51.5 -37q-14 0 -62 31
q-48 30 -66 30q-31 0 -57 -61q-3 1 -10 3t-10 4q12 40 40 81t44 41q14 0 62 -31q48 -30 68 -30q18 0 38 20t29 42z" />
    <glyph glyph-name="Ograve" unicode="&#xd2;" horiz-adv-x="851" 
d="M84 316q0 90 29 160t77.5 112.5t107.5 64t124 21.5q153 0 249 -87.5t96 -237.5q0 -168 -96.5 -264t-258.5 -96q-142 0 -235 86.5t-93 240.5zM183 369q0 -166 72.5 -250.5t180.5 -84.5q42 0 81 15t73.5 46t55.5 86t21 127q0 84 -23 148t-61.5 101t-84.5 55.5t-97 18.5
q-33 0 -67.5 -12.5t-70 -40t-58 -82t-22.5 -127.5zM475 731v-6h-44l-129 127l2 -1v8h86l86 -129z" />
    <glyph glyph-name="Oacute" unicode="&#xd3;" horiz-adv-x="851" 
d="M84 316q0 90 29 160t77.5 112.5t107.5 64t124 21.5q153 0 249 -87.5t96 -237.5q0 -168 -96.5 -264t-258.5 -96q-142 0 -235 86.5t-93 240.5zM183 369q0 -166 72.5 -250.5t180.5 -84.5q42 0 81 15t73.5 46t55.5 86t21 127q0 84 -23 148t-61.5 101t-84.5 55.5t-97 18.5
q-33 0 -67.5 -12.5t-70 -40t-58 -82t-22.5 -127.5zM364 725v6l-1 -1l86 129h86v-8l2 1l-129 -127h-44z" />
    <glyph glyph-name="Ocircumflex" unicode="&#xd4;" horiz-adv-x="851" 
d="M84 316q0 90 29 160t77.5 112.5t107.5 64t124 21.5q153 0 249 -87.5t96 -237.5q0 -168 -96.5 -264t-258.5 -96q-142 0 -235 86.5t-93 240.5zM183 369q0 -166 72.5 -250.5t180.5 -84.5q42 0 81 15t73.5 46t55.5 86t21 127q0 84 -23 148t-61.5 101t-84.5 55.5t-97 18.5
q-33 0 -67.5 -12.5t-70 -40t-58 -82t-22.5 -127.5zM560 731v-6h-38l-102 72l-103 -72h-38v6l-1 -1l120 129h43z" />
    <glyph glyph-name="Otilde" unicode="&#xd5;" horiz-adv-x="851" 
d="M84 316q0 90 29 160t77.5 112.5t107.5 64t124 21.5q153 0 249 -87.5t96 -237.5q0 -168 -96.5 -264t-258.5 -96q-142 0 -235 86.5t-93 240.5zM183 369q0 -166 72.5 -250.5t180.5 -84.5q42 0 81 15t73.5 46t55.5 86t21 127q0 84 -23 148t-61.5 101t-84.5 55.5t-97 18.5
q-33 0 -67.5 -12.5t-70 -40t-58 -82t-22.5 -127.5zM557 860l17 -7q-14 -49 -41.5 -86t-51.5 -37q-15 0 -61 31q-50 30 -67 30q-31 0 -57 -61q-3 1 -10 3t-10 4q12 40 40 81t44 41q13 0 63 -31q46 -30 67 -30q18 0 38 20t29 42z" />
    <glyph glyph-name="Odieresis" unicode="&#xd6;" horiz-adv-x="851" 
d="M84 316q0 90 29 160t77.5 112.5t107.5 64t124 21.5q153 0 249 -87.5t96 -237.5q0 -168 -96.5 -264t-258.5 -96q-142 0 -235 86.5t-93 240.5zM183 369q0 -166 72.5 -250.5t180.5 -84.5q42 0 81 15t73.5 46t55.5 86t21 127q0 84 -23 148t-61.5 101t-84.5 55.5t-97 18.5
q-33 0 -67.5 -12.5t-70 -40t-58 -82t-22.5 -127.5zM553 795q0 -19 -15 -34.5t-32 -15.5q-19 0 -33.5 15t-14.5 35t14.5 35.5t33.5 15.5q18 0 32.5 -15.5t14.5 -35.5zM381 795q0 -20 -14 -35t-33 -15t-33.5 15t-14.5 35t14.5 35.5t33.5 15.5t33 -15.5t14 -35.5z" />
    <glyph glyph-name="multiply" unicode="&#xd7;" horiz-adv-x="620" 
d="M493 35l-183 183l-183 -183l-42 42l183 183l-183 183l42 42l183 -183l183 183l42 -42l-183 -183l183 -183z" />
    <glyph glyph-name="Oslash" unicode="&#xd8;" horiz-adv-x="851" 
d="M84 316q0 90 29 160t77.5 112.5t107.5 64t124 21.5q110 0 200 -52l67 88q7 -4 17.5 -13t14.5 -12l-65 -86q111 -92 111 -250q0 -168 -96.5 -264t-258.5 -96q-101 0 -182 45l-75 -100q-7 4 -17.5 13.5t-15.5 12.5l74 98q-112 91 -112 258zM183 369q0 -149 66 -241l327 433
q-71 70 -175 70q-33 0 -67.5 -12.5t-70 -40t-58 -82t-22.5 -127.5zM667 308q0 133 -62 223l-328 -435q63 -62 159 -62q42 0 81 15t73.5 46t55.5 86t21 127z" />
    <glyph glyph-name="Ugrave" unicode="&#xd9;" horiz-adv-x="790" 
d="M521 663h211v-39l-67 -15l-9 -129v-270q0 -36 -15 -73.5t-44 -71t-80 -55t-116 -21.5q-121 0 -191.5 62t-70.5 141v417q-12 2 -39.5 7.5t-41.5 7.5v39h257v-39l-82 -15v-399q0 -68 49.5 -113.5t138.5 -45.5q82 0 136 50t54 139v245l-7 124q-14 2 -42.5 7.5t-40.5 7.5v39z
M481 731v-6h-44l-129 127l2 -1v8h86l86 -129z" />
    <glyph glyph-name="Uacute" unicode="&#xda;" horiz-adv-x="790" 
d="M521 663h211v-39l-67 -15l-9 -129v-270q0 -36 -15 -73.5t-44 -71t-80 -55t-116 -21.5q-121 0 -191.5 62t-70.5 141v417q-12 2 -39.5 7.5t-41.5 7.5v39h257v-39l-82 -15v-399q0 -68 49.5 -113.5t138.5 -45.5q82 0 136 50t54 139v245l-7 124q-14 2 -42.5 7.5t-40.5 7.5v39z
M370 725v6l-1 -1l86 129h86v-8l2 1l-128 -127h-45z" />
    <glyph glyph-name="Ucircumflex" unicode="&#xdb;" horiz-adv-x="790" 
d="M521 663h211v-39l-67 -15l-9 -129v-270q0 -36 -15 -73.5t-44 -71t-80 -55t-116 -21.5q-121 0 -191.5 62t-70.5 141v417q-12 2 -39.5 7.5t-41.5 7.5v39h257v-39l-82 -15v-399q0 -68 49.5 -113.5t138.5 -45.5q82 0 136 50t54 139v245l-7 124q-14 2 -42.5 7.5t-40.5 7.5v39z
M566 731v-6h-38l-102 72l-103 -72h-38v6l-1 -1l120 129h43z" />
    <glyph glyph-name="Udieresis" unicode="&#xdc;" horiz-adv-x="790" 
d="M521 663h211v-39l-67 -15l-9 -129v-270q0 -36 -15 -73.5t-44 -71t-80 -55t-116 -21.5q-121 0 -191.5 62t-70.5 141v417q-12 2 -39.5 7.5t-41.5 7.5v39h257v-39l-82 -15v-399q0 -68 49.5 -113.5t138.5 -45.5q82 0 136 50t54 139v245l-7 124q-14 2 -42.5 7.5t-40.5 7.5v39z
M559 795q0 -19 -15 -34.5t-32 -15.5q-19 0 -33.5 15t-14.5 35t14.5 35.5t33.5 15.5q18 0 32.5 -15.5t14.5 -35.5zM387 795q0 -20 -14 -35t-33 -15t-33.5 15t-14.5 35t14.5 35.5t33.5 15.5t33 -15.5t14 -35.5z" />
    <glyph glyph-name="Yacute" unicode="&#xdd;" horiz-adv-x="685" 
d="M385 352l144 252l-97 23v36h207v-37l-57 -26l-176 -310v-236q14 -2 41.5 -7.5t39.5 -7.5v-39h-257v39l82 15v235l-194 321l-72 14v39h240v-39l-74 -15l154 -257h19zM313 725v6l-1 -1l85 129h87v-8l2 1l-129 -127h-44z" />
    <glyph glyph-name="Thorn" unicode="&#xde;" horiz-adv-x="624" 
d="M72 663h256v-39l-81 -15v-67h95q116 0 163 -44t47 -130q0 -96 -66 -152t-184 -57v30q69 2 111 47.5t42 120.5q0 135 -132 135h-76v-438q15 -2 46 -7.5t45 -7.5v-39h-266v39l81 15v555q-12 2 -39.5 7.5t-41.5 7.5v39z" />
    <glyph glyph-name="germandbls" unicode="&#xdf;" horiz-adv-x="710" 
d="M471 -12q-72 0 -130 29l-9 127h42q21 -112 96 -112q44 0 70 31.5t26 91.5q0 49 -29 82t-81 32q-37 0 -78 -28l-49 52l167 191l-2 6h-269v-439q11 -1 34.5 -5.5t34.5 -5.5v-40h-228v39l67 12v433l-67 11v40h535l8 -35l-159 -180h41q75 0 121 -43.5t46 -114.5
q0 -82 -58.5 -128t-128.5 -46z" />
    <glyph glyph-name="agrave" unicode="&#xe0;" horiz-adv-x="658" 
d="M462 51l-51 134h-195l-58 -134q10 -1 35.5 -5.5t37.5 -6.5v-39h-190v40l63 12l220 483h43l190 -483l61 -13v-39h-216v39zM329 400h-21l-71 -167h156zM403 608v-7h-43l-129 163l1 -1v8h85l87 -164z" />
    <glyph glyph-name="aacute" unicode="&#xe1;" horiz-adv-x="658" 
d="M462 51l-51 134h-195l-58 -134q10 -1 35.5 -5.5t37.5 -6.5v-39h-190v40l63 12l220 483h43l190 -483l61 -13v-39h-216v39zM329 400h-21l-71 -167h156zM292 601v7l-1 -1l86 164h86v-8l1 1l-128 -163h-44z" />
    <glyph glyph-name="acircumflex" unicode="&#xe2;" horiz-adv-x="658" 
d="M462 51l-51 134h-195l-58 -134q10 -1 35.5 -5.5t37.5 -6.5v-39h-190v40l63 12l220 483h43l190 -483l61 -13v-39h-216v39zM489 608v-7h-39l-102 103l-103 -103h-38v7l-1 -1l120 164h43l121 -164zM329 400h-21l-71 -167h156z" />
    <glyph glyph-name="atilde" unicode="&#xe3;" horiz-adv-x="658" 
d="M462 51l-51 134h-195l-58 -134q10 -1 35.5 -5.5t37.5 -6.5v-39h-190v40l63 12l220 483h43l190 -483l61 -13v-39h-216v39zM329 400h-21l-71 -167h156zM486 737l17 -8q-14 -48 -42 -85t-52 -37q-13 0 -61 30q-50 30 -67 30q-31 0 -57 -60q-3 1 -10 3t-10 4q12 40 40 80.5
t44 40.5q13 0 63 -31q46 -30 67 -30q18 0 38.5 20t29.5 43z" />
    <glyph glyph-name="adieresis" unicode="&#xe4;" horiz-adv-x="658" 
d="M462 51l-51 134h-195l-58 -134q10 -1 35.5 -5.5t37.5 -6.5v-39h-190v40l63 12l220 483h43l190 -483l61 -13v-39h-216v39zM329 400h-21l-71 -167h156zM482 671q0 -19 -15 -34t-33 -15q-19 0 -33.5 15t-14.5 34q0 20 14.5 35.5t33.5 15.5q18 0 33 -15.5t15 -35.5zM309 671
q0 -20 -14 -34.5t-33 -14.5t-33.5 15t-14.5 34q0 20 14.5 35.5t33.5 15.5t33 -15.5t14 -35.5z" />
    <glyph glyph-name="aring" unicode="&#xe5;" horiz-adv-x="658" 
d="M462 51l-51 134h-195l-58 -134q10 -1 35.5 -5.5t37.5 -6.5v-39h-190v40l63 12l220 483h43l190 -483l61 -13v-39h-216v39zM258 674q0 38 26.5 65.5t63.5 27.5t63 -27.5t26 -65.5t-26 -65.5t-63 -27.5t-63.5 27.5t-26.5 65.5zM329 400h-21l-71 -167h156zM294 674
q0 -23 14.5 -38t38.5 -15t38.5 15t14.5 38t-15 39t-38 16q-24 0 -38.5 -16t-14.5 -39z" />
    <glyph glyph-name="ae" unicode="&#xe6;" horiz-adv-x="874" 
d="M515 45h230l35 98h29l-13 -147l-131 4h-309v39l68 12v134h-175l-92 -134q10 -1 35.5 -5.5t37.5 -6.5v-39h-190v40l62 12l302 435q-7 1 -23.5 4.5t-24.5 4.5v39h299l110 3l9 -131h-22l-38 82h-199v-202l147 5l23 81h24v-210h-24l-23 82l-147 3v-203zM280 233h144v210z" />
    <glyph glyph-name="ccedilla" unicode="&#xe7;" horiz-adv-x="643" 
d="M324 -220l-7 22q88 18 88 63q0 44 -77 44q-19 0 -27 -1l-3 4l41 80q-117 9 -190.5 81.5t-73.5 192.5q0 131 83 204.5t219 73.5q88 0 165 -35q1 -23 4 -67.5t4 -66.5h-30l-31 88q-36 38 -123 38q-25 0 -50 -6.5t-51 -22t-46 -39t-32.5 -60.5t-12.5 -83q0 -73 20 -125.5
t52.5 -78t64.5 -37t66 -11.5q56 0 105 16l58 102h29q-4 -21 -14 -65t-15 -68l-6 -2q-82 -28 -160 -30l-21 -40q47 0 76.5 -17.5t29.5 -53.5t-39 -63.5t-96 -36.5z" />
    <glyph glyph-name="egrave" unicode="&#xe8;" horiz-adv-x="586" 
d="M226 45h229l36 98h29l-13 -147l-131 4h-309v39l68 12v433q-10 1 -33.5 5.5t-34.5 6.5v39h299l110 3l9 -131h-23l-37 82h-199v-202l147 5l23 81h24v-210h-24l-23 82l-147 3v-203zM353 608v-7h-44l-129 163l1 -1v8h86l87 -164z" />
    <glyph glyph-name="eacute" unicode="&#xe9;" horiz-adv-x="586" 
d="M226 45h229l36 98h29l-13 -147l-131 4h-309v39l68 12v433q-10 1 -33.5 5.5t-34.5 6.5v39h299l110 3l9 -131h-23l-37 82h-199v-202l147 5l23 81h24v-210h-24l-23 82l-147 3v-203zM242 601v7l-1 -1l85 164h87v-8l1 1l-129 -163h-43z" />
    <glyph glyph-name="ecircumflex" unicode="&#xea;" horiz-adv-x="586" 
d="M226 45h229l36 98h29l-13 -147l-131 4h-309v39l68 12v433q-10 1 -33.5 5.5t-34.5 6.5v39h299l110 3l9 -131h-23l-37 82h-199v-202l147 5l23 81h24v-210h-24l-23 82l-147 3v-203zM438 608v-7h-38l-103 103l-103 -103h-38v7l-1 -1l121 164h42l121 -164z" />
    <glyph glyph-name="edieresis" unicode="&#xeb;" horiz-adv-x="586" 
d="M226 45h229l36 98h29l-13 -147l-131 4h-309v39l68 12v433q-10 1 -33.5 5.5t-34.5 6.5v39h299l110 3l9 -131h-23l-37 82h-199v-202l147 5l23 81h24v-210h-24l-23 82l-147 3v-203zM431 671q0 -19 -14.5 -34t-32.5 -15q-19 0 -33.5 15t-14.5 34q0 20 14.5 35.5t33.5 15.5
q18 0 32.5 -15.5t14.5 -35.5zM259 671q0 -20 -14 -34.5t-33 -14.5q-20 0 -34.5 15t-14.5 34q0 20 15 35.5t34 15.5t33 -15.5t14 -35.5z" />
    <glyph glyph-name="igrave" unicode="&#xec;" horiz-adv-x="398" 
d="M86 535h227v-39l-67 -12v-433q11 -1 33.5 -5.5t33.5 -6.5v-39h-227v39l67 12v433q-10 1 -33 5.5t-34 6.5v39zM255 606v-7h-43l-129 163l1 -1v8h85l87 -164z" />
    <glyph glyph-name="iacute" unicode="&#xed;" horiz-adv-x="398" 
d="M85 535h227v-39l-67 -12v-433q10 -1 33 -5.5t34 -6.5v-39h-227v39l67 12v433q-11 1 -34 5.5t-33 6.5v39zM143 599v7l-1 -1l86 164h86v-8l1 1l-129 -163h-43z" />
    <glyph glyph-name="icircumflex" unicode="&#xee;" horiz-adv-x="398" 
d="M86 535h227v-39l-67 -12v-433q11 -1 33.5 -5.5t33.5 -6.5v-39h-227v39l67 12v433q-10 1 -33 5.5t-34 6.5v39zM341 606v-7h-39l-103 103l-102 -103h-39v7l-1 -1l121 164h43l121 -164z" />
    <glyph glyph-name="idieresis" unicode="&#xef;" horiz-adv-x="398" 
d="M86 535h227v-39l-67 -12v-433q11 -1 33.5 -5.5t33.5 -6.5v-39h-227v39l67 12v433q-10 1 -33 5.5t-34 6.5v39zM334 669q0 -19 -15 -34t-33 -15q-19 0 -33.5 15t-14.5 34q0 20 14.5 35.5t33.5 15.5q18 0 33 -15.5t15 -35.5zM161 669q0 -20 -14 -34.5t-33 -14.5t-34 15
t-15 34q0 20 15 35.5t34 15.5t33 -15.5t14 -35.5z" />
    <glyph glyph-name="eth" unicode="&#xf0;" horiz-adv-x="708" 
d="M66 297h65v187l-32.5 6.5t-32.5 5.5v39h316q117 0 184.5 -64t67.5 -176q0 -140 -88 -217.5t-229 -77.5h-251v39l65 12v195h-65v51zM224 47h102q91 0 151 57.5t60 176.5q0 207 -192 207h-121v-191h135v-51h-135v-199z" />
    <glyph glyph-name="ntilde" unicode="&#xf1;" horiz-adv-x="709" 
d="M513 162h20v208l-4 114q-10 1 -33 5.5t-34 6.5v39h187v-39l-65 -12l-4 -118v-368h-37l-349 398h-19v-215l5 -129l73 -13v-39h-192v39l63 12l4 127v310l-67 8v39h131zM491 737l17 -8q-14 -48 -42 -85t-52 -37q-13 0 -61 30q-50 30 -67 30q-31 0 -57 -60q-3 1 -10 3t-10 4
q12 40 40 80.5t44 40.5q15 0 63 -31q46 -30 67 -30q18 0 38.5 20t29.5 43z" />
    <glyph glyph-name="ograve" unicode="&#xf2;" horiz-adv-x="736" 
d="M74 255q0 72 25 129t66.5 91t92 51.5t106.5 17.5q131 0 214.5 -71t83.5 -191q0 -135 -83.5 -213t-222.5 -78q-121 0 -201.5 70t-80.5 194zM169 298q0 -130 59 -196t148 -66q75 0 132 52.5t57 160.5q0 126 -64 189t-153 63q-27 0 -55.5 -9.5t-57.5 -31t-47.5 -63.5
t-18.5 -99zM414 608v-7h-43l-129 163l1 -1v8h85l87 -164z" />
    <glyph glyph-name="oacute" unicode="&#xf3;" horiz-adv-x="736" 
d="M74 255q0 72 25 129t66.5 91t92 51.5t106.5 17.5q131 0 214.5 -71t83.5 -191q0 -135 -83.5 -213t-222.5 -78q-121 0 -201.5 70t-80.5 194zM169 298q0 -130 59 -196t148 -66q75 0 132 52.5t57 160.5q0 126 -64 189t-153 63q-27 0 -55.5 -9.5t-57.5 -31t-47.5 -63.5
t-18.5 -99zM303 601v7l-1 -1l86 164h87v-8l1 1l-129 -163h-44z" />
    <glyph glyph-name="ocircumflex" unicode="&#xf4;" horiz-adv-x="736" 
d="M74 255q0 72 25 129t66.5 91t92 51.5t106.5 17.5q131 0 214.5 -71t83.5 -191q0 -135 -83.5 -213t-222.5 -78q-121 0 -201.5 70t-80.5 194zM169 298q0 -130 59 -196t148 -66q75 0 132 52.5t57 160.5q0 126 -64 189t-153 63q-27 0 -55.5 -9.5t-57.5 -31t-47.5 -63.5
t-18.5 -99zM500 608v-7h-39l-102 103l-103 -103h-38v7l-1 -1l121 164h42l121 -164z" />
    <glyph glyph-name="otilde" unicode="&#xf5;" horiz-adv-x="736" 
d="M74 255q0 72 25 129t66.5 91t92 51.5t106.5 17.5q131 0 214.5 -71t83.5 -191q0 -135 -83.5 -213t-222.5 -78q-121 0 -201.5 70t-80.5 194zM169 298q0 -130 59 -196t148 -66q75 0 132 52.5t57 160.5q0 126 -64 189t-153 63q-27 0 -55.5 -9.5t-57.5 -31t-47.5 -63.5
t-18.5 -99zM497 737l17 -8q-14 -48 -42 -85t-52 -37q-13 0 -61 30t-67 30q-31 0 -57 -60q-3 1 -10 3t-10 4q12 40 40 80.5t44 40.5q15 0 63 -31q46 -30 67 -30q18 0 38.5 20t29.5 43z" />
    <glyph glyph-name="odieresis" unicode="&#xf6;" horiz-adv-x="736" 
d="M74 255q0 72 25 129t66.5 91t92 51.5t106.5 17.5q131 0 214.5 -71t83.5 -191q0 -135 -83.5 -213t-222.5 -78q-121 0 -201.5 70t-80.5 194zM169 298q0 -130 59 -196t148 -66q75 0 132 52.5t57 160.5q0 126 -64 189t-153 63q-27 0 -55.5 -9.5t-57.5 -31t-47.5 -63.5
t-18.5 -99zM493 671q0 -19 -15 -34t-33 -15q-19 0 -33.5 15t-14.5 34q0 20 14.5 35.5t33.5 15.5q18 0 33 -15.5t15 -35.5zM320 671q0 -20 -14 -34.5t-33 -14.5t-33.5 15t-14.5 34q0 20 14.5 35.5t33.5 15.5t33 -15.5t14 -35.5z" />
    <glyph glyph-name="divide" unicode="&#xf7;" horiz-adv-x="620" 
d="M570 230h-520v60h520v-60zM258 109q0 22 14.5 37t36.5 15t37 -15t15 -37t-15 -36.5t-37 -14.5t-36.5 14.5t-14.5 36.5zM258 411q0 22 14.5 37t36.5 15t37 -15t15 -37t-15 -36.5t-37 -14.5t-36.5 14.5t-14.5 36.5z" />
    <glyph glyph-name="oslash" unicode="&#xf8;" horiz-adv-x="736" 
d="M74 255q0 72 25 129t66.5 91t92 51.5t106.5 17.5q114 0 199 -58l70 70l30 -29l-69 -70q68 -70 68 -175q0 -135 -83.5 -213t-222.5 -78q-98 0 -175 47l-74 -75l-30 29l71 73q-74 72 -74 190zM169 298q0 -99 41 -170l298 302q-61 71 -160 71q-27 0 -55.5 -9.5t-57.5 -31
t-47.5 -63.5t-18.5 -99zM565 249q0 77 -33 145l-296 -300q54 -58 140 -58q75 0 132 52.5t57 160.5z" />
    <glyph glyph-name="ugrave" unicode="&#xf9;" horiz-adv-x="692" 
d="M449 535h188v-39l-57 -12l-4 -50q-2 -16 -4 -48v-215q0 -29 -13 -59.5t-38 -58t-69 -45t-100 -17.5q-105 0 -166.5 50.5t-61.5 115.5v327q-10 1 -33.5 5.5t-34.5 6.5v39h229v-39l-68 -12v-313q0 -54 39.5 -89t111.5 -35q69 0 113.5 38.5t44.5 109.5v195l-6 94
q-11 1 -35 5.5t-36 6.5v39zM426 608v-7h-43l-129 163l1 -1v8h86l86 -164z" />
    <glyph glyph-name="uacute" unicode="&#xfa;" horiz-adv-x="692" 
d="M449 535h188v-39l-57 -12l-4 -50q-2 -16 -4 -48v-215q0 -29 -13 -59.5t-38 -58t-69 -45t-100 -17.5q-105 0 -166.5 50.5t-61.5 115.5v327q-10 1 -33.5 5.5t-34.5 6.5v39h229v-39l-68 -12v-313q0 -54 39.5 -89t111.5 -35q69 0 113.5 38.5t44.5 109.5v195l-6 94
q-11 1 -35 5.5t-36 6.5v39zM315 601v7l-1 -1l86 164h87v-8l1 1l-129 -163h-44z" />
    <glyph glyph-name="ucircumflex" unicode="&#xfb;" horiz-adv-x="692" 
d="M449 535h188v-39l-57 -12l-4 -50q-2 -16 -4 -48v-215q0 -29 -13 -59.5t-38 -58t-69 -45t-100 -17.5q-105 0 -166.5 50.5t-61.5 115.5v327q-10 1 -33.5 5.5t-34.5 6.5v39h229v-39l-68 -12v-313q0 -54 39.5 -89t111.5 -35q69 0 113.5 38.5t44.5 109.5v195l-6 94
q-11 1 -35 5.5t-36 6.5v39zM512 608v-7h-38l-103 103l-103 -103h-38v7l-1 -1l121 164h42l121 -164z" />
    <glyph glyph-name="udieresis" unicode="&#xfc;" horiz-adv-x="692" 
d="M449 535h188v-39l-57 -12l-4 -50q-2 -16 -4 -48v-215q0 -29 -13 -59.5t-38 -58t-69 -45t-100 -17.5q-105 0 -166.5 50.5t-61.5 115.5v327q-10 1 -33.5 5.5t-34.5 6.5v39h229v-39l-68 -12v-313q0 -54 39.5 -89t111.5 -35q69 0 113.5 38.5t44.5 109.5v195l-6 94
q-11 1 -35 5.5t-36 6.5v39zM333 671q0 -20 -14.5 -34.5t-33.5 -14.5t-33.5 15t-14.5 34q0 20 14.5 35.5t33.5 15.5t33.5 -15.5t14.5 -35.5zM505 671q0 -19 -15 -34t-33 -15q-19 0 -33.5 15t-14.5 34q0 20 14.5 35.5t33.5 15.5q18 0 33 -15.5t15 -35.5z" />
    <glyph glyph-name="yacute" unicode="&#xfd;" horiz-adv-x="604" 
d="M323 291h23l109 191l-79 16v37h182v-37l-49 -20l-147 -249v-178q11 -1 34.5 -6t33.5 -6v-39h-228v39l68 12v176l-162 258l-62 11v39h220v-39l-59 -12zM272 601v7l-1 -1l86 164h86v-8l1 1l-129 -163h-43z" />
    <glyph glyph-name="thorn" unicode="&#xfe;" horiz-adv-x="555" 
d="M225 484v-45h75q100 0 142 -36t42 -107q0 -77 -57 -123t-157 -47v33q55 1 87 35.5t32 93.5q0 102 -106 102h-58v-338l77 -13v-39h-235v39l66 12v433l-33 6l-33 6v39h228v-39z" />
    <glyph glyph-name="ydieresis" unicode="&#xff;" horiz-adv-x="604" 
d="M323 291h23l109 191l-79 16v37h182v-37l-49 -20l-147 -249v-178q11 -1 34.5 -6t33.5 -6v-39h-228v39l68 12v176l-162 258l-62 11v39h220v-39l-59 -12zM461 671q0 -19 -14.5 -34t-32.5 -15q-19 0 -33.5 15t-14.5 34q0 20 14.5 35.5t33.5 15.5q18 0 32.5 -15.5t14.5 -35.5z
M289 671q0 -20 -14 -34.5t-33 -14.5t-34 15t-15 34q0 20 15 35.5t34 15.5t33 -15.5t14 -35.5z" />
    <glyph glyph-name="Amacron" unicode="&#x100;" horiz-adv-x="750" 
d="M544 54l-62 179h-243l-74 -179q13 -2 43 -7.5t45 -7.5v-39h-213v39l72 15q46 106 137 312t130 297h40l221 -609q11 -2 35 -7.5t35 -7.5v-39h-239v39zM363 527l-102 -245h204l-84 245h-18zM515 748h-245v54h245v-54z" />
    <glyph glyph-name="amacron" unicode="&#x101;" horiz-adv-x="658" 
d="M462 51l-51 134h-195l-58 -134q10 -1 35.5 -5.5t37.5 -6.5v-39h-190v40l63 12l220 483h43l190 -483l61 -13v-39h-216v39zM471 624h-246v54h246v-54zM329 400h-21l-71 -167h156z" />
    <glyph glyph-name="Abreve" unicode="&#x102;" horiz-adv-x="750" 
d="M544 54l-62 179h-243l-74 -179q13 -2 43 -7.5t45 -7.5v-39h-213v39l72 15q46 106 137 312t130 297h40l221 -609q11 -2 35 -7.5t35 -7.5v-39h-239v39zM363 527l-102 -245h204l-84 245h-18zM392 725q-48 0 -81 32.5t-34 96.5h30q1 -30 25 -51.5t60 -21.5q34 0 59.5 21
t26.5 52h30q-1 -64 -34.5 -96.5t-81.5 -32.5z" />
    <glyph glyph-name="abreve" unicode="&#x103;" horiz-adv-x="658" 
d="M462 51l-51 134h-195l-58 -134q10 -1 35.5 -5.5t37.5 -6.5v-39h-190v40l63 12l220 483h43l190 -483l61 -13v-39h-216v39zM329 400h-21l-71 -167h156zM348 607q-48 0 -82 38t-34 111h30q1 -36 25 -62.5t61 -26.5q35 0 60 25t25 64h30q-1 -72 -34.5 -110.5t-80.5 -38.5z
" />
    <glyph glyph-name="Aogonek" unicode="&#x104;" horiz-adv-x="750" 
d="M544 54l-62 179h-243l-74 -179q13 -2 43 -7.5t45 -7.5v-39h-213v39l72 15q46 106 137 312t130 297h40l221 -609q11 -2 35 -7.5t35 -7.5v-39h-199q-52 -42 -52 -97q0 -64 50 -64q8 0 11 1v-29q-14 -3 -29 -3q-38 0 -65.5 20t-27.5 56q0 64 73 116v39zM363 527l-102 -245
h204l-84 245h-18z" />
    <glyph glyph-name="aogonek" unicode="&#x105;" horiz-adv-x="658" 
d="M462 51l-51 134h-195l-58 -134q10 -1 35.5 -5.5t37.5 -6.5v-39h-190v40l63 12l220 483h43l190 -483l61 -13v-39h-178q-48 -40 -48 -94q0 -64 50 -64q8 0 11 1v-29q-14 -3 -29 -3q-38 0 -65.5 20t-27.5 56q0 64 71 114v38zM329 400h-21l-71 -167h156z" />
    <glyph glyph-name="Cacute" unicode="&#x106;" horiz-adv-x="742" 
d="M436 37q66 0 121 22q9 16 32 57t35 63h31l-32 -152l-7 -2q-37 -13 -56.5 -18.5t-56.5 -11.5t-79 -6q-147 0 -243 90.5t-96 250.5q0 162 96.5 253t255.5 91q43 0 97 -11.5t90 -29.5l10 -155h-31l-40 105q-44 48 -140 48q-39 0 -77.5 -14t-75 -44t-59.5 -85.5t-23 -128.5
q0 -75 16.5 -133.5t42.5 -93t60 -57t65.5 -30.5t63.5 -8zM379 725v6l-1 -1l86 129h86v-8l2 1l-128 -127h-45z" />
    <glyph glyph-name="cacute" unicode="&#x107;" horiz-adv-x="643" 
d="M377 38q56 0 105 16l58 102h29q-4 -21 -14 -65t-15 -68l-5 -2q-92 -30 -168 -30q-126 0 -209 73t-83 202q0 131 83 204.5t219 73.5q88 0 165 -35q1 -23 4 -67.5t4 -66.5h-30l-31 88q-36 38 -123 38q-25 0 -50 -6.5t-51 -22t-46 -39t-32.5 -60.5t-12.5 -83
q0 -73 20 -125.5t52.5 -78t64.5 -37t66 -11.5zM306 601v7l-1 -1l86 164h87v-8l1 1l-129 -163h-44z" />
    <glyph glyph-name="Cdotaccent" unicode="&#x10a;" horiz-adv-x="742" 
d="M436 37q66 0 121 22q9 16 32 57t35 63h31l-32 -152l-7 -2q-37 -13 -56.5 -18.5t-56.5 -11.5t-79 -6q-147 0 -243 90.5t-96 250.5q0 162 96.5 253t255.5 91q43 0 97 -11.5t90 -29.5l10 -155h-31l-40 105q-44 48 -140 48q-39 0 -77.5 -14t-75 -44t-59.5 -85.5t-23 -128.5
q0 -75 16.5 -133.5t42.5 -93t60 -57t65.5 -30.5t63.5 -8zM374 795q0 26 17.5 44.5t42.5 18.5t43 -18.5t18 -44.5t-18 -44.5t-43 -18.5t-42.5 18.5t-17.5 44.5z" />
    <glyph glyph-name="cdotaccent" unicode="&#x10b;" horiz-adv-x="643" 
d="M377 38q56 0 105 16l58 102h29q-4 -21 -14 -65t-15 -68l-5 -2q-92 -30 -168 -30q-126 0 -209 73t-83 202q0 131 83 204.5t219 73.5q88 0 165 -35q1 -23 4 -67.5t4 -66.5h-30l-31 88q-36 38 -123 38q-25 0 -50 -6.5t-51 -22t-46 -39t-32.5 -60.5t-12.5 -83
q0 -73 20 -125.5t52.5 -78t64.5 -37t66 -11.5zM301 686q0 26 17.5 45t42.5 19t43 -19t18 -45t-18 -44t-43 -18t-42.5 18t-17.5 44z" />
    <glyph glyph-name="Ccaron" unicode="&#x10c;" horiz-adv-x="742" 
d="M436 37q66 0 121 22q9 16 32 57t35 63h31l-32 -152l-7 -2q-37 -13 -56.5 -18.5t-56.5 -11.5t-79 -6q-147 0 -243 90.5t-96 250.5q0 162 96.5 253t255.5 91q43 0 97 -11.5t90 -29.5l10 -155h-31l-40 105q-44 48 -140 48q-39 0 -77.5 -14t-75 -44t-59.5 -85.5t-23 -128.5
q0 -75 16.5 -133.5t42.5 -93t60 -57t65.5 -30.5t63.5 -8zM575 859v-6l-119 -128h-42l-120 128v6h38l103 -71l102 71h38z" />
    <glyph glyph-name="ccaron" unicode="&#x10d;" horiz-adv-x="643" 
d="M377 38q56 0 105 16l58 102h29q-4 -21 -14 -65t-15 -68l-5 -2q-92 -30 -168 -30q-126 0 -209 73t-83 202q0 131 83 204.5t219 73.5q88 0 165 -35q1 -23 4 -67.5t4 -66.5h-30l-31 88q-36 38 -123 38q-25 0 -50 -6.5t-51 -22t-46 -39t-32.5 -60.5t-12.5 -83
q0 -73 20 -125.5t52.5 -78t64.5 -37t66 -11.5zM503 771v-6l1 1l-121 -165h-42l-121 165l1 -1v6h38l103 -103l102 103h39z" />
    <glyph glyph-name="Dcaron" unicode="&#x10e;" horiz-adv-x="815" 
d="M364 0h-293v39l79 15v555q-12 2 -39 7.5t-40 7.5v39h369q136 0 213.5 -79.5t77.5 -218.5q0 -172 -102 -268.5t-265 -96.5zM245 48h129q111 0 184.5 73.5t73.5 226.5q0 133 -60 200t-176 67h-151v-567zM518 859v-6l-120 -128h-42l-120 128v6h39l102 -71l103 71h38z" />
    <glyph glyph-name="dcaron" unicode="&#x10f;" horiz-adv-x="708" 
d="M317 0h-251v39l65 12v433l-32.5 6.5t-32.5 5.5v39h316q117 0 184.5 -64t67.5 -176q0 -140 -88 -217.5t-229 -77.5zM224 47h102q91 0 151 57.5t60 176.5q0 207 -192 207h-121v-441zM474 771v-6l1 1l-121 -165h-43l-121 165l1 -1v6h39l103 -103l102 103h39z" />
    <glyph glyph-name="Dcroat" unicode="&#x110;" horiz-adv-x="815" 
d="M364 0h-293v39l79 15v251h-79v51h79v253q-12 2 -39 7.5t-40 7.5v39h369q136 0 213.5 -79.5t77.5 -218.5q0 -172 -102 -268.5t-265 -96.5zM245 48h129q111 0 184.5 73.5t73.5 226.5q0 133 -60 200t-176 67h-151v-259h171v-51h-171v-257z" />
    <glyph glyph-name="dcroat" unicode="&#x111;" horiz-adv-x="708" 
d="M66 297h65v187l-32.5 6.5t-32.5 5.5v39h316q117 0 184.5 -64t67.5 -176q0 -140 -88 -217.5t-229 -77.5h-251v39l65 12v195h-65v51zM224 47h102q91 0 151 57.5t60 176.5q0 207 -192 207h-121v-191h135v-51h-135v-199z" />
    <glyph glyph-name="Emacron" unicode="&#x112;" horiz-adv-x="681" 
d="M246 46h273l44 122h32l-15 -173l-148 5h-361v39l81 15v555q-12 2 -39.5 7.5t-41.5 7.5v39h344l121 4q2 -26 5.5 -77t5.5 -77h-26l-44 103h-231v-262l190 6q2 12 9 46.5t10 49.5h28v-240h-28l-19 96l-190 3v-269zM457 748h-246v54h246v-54z" />
    <glyph glyph-name="emacron" unicode="&#x113;" horiz-adv-x="586" 
d="M226 45h229l36 98h29l-13 -147l-131 4h-309v39l68 12v433q-10 1 -33.5 5.5t-34.5 6.5v39h299l110 3l9 -131h-23l-37 82h-199v-202l147 5l23 81h24v-210h-24l-23 82l-147 3v-203zM420 624h-246v54h246v-54z" />
    <glyph glyph-name="Edotaccent" unicode="&#x116;" horiz-adv-x="681" 
d="M246 46h273l44 122h32l-15 -173l-148 5h-361v39l81 15v555q-12 2 -39.5 7.5t-41.5 7.5v39h344l121 4q2 -26 5.5 -77t5.5 -77h-26l-44 103h-231v-262l190 6q2 12 9 46.5t10 49.5h28v-240h-28l-19 96l-190 3v-269zM274 795q0 26 17 44.5t42 18.5t43 -18.5t18 -44.5
t-18 -44.5t-43 -18.5t-42 18.5t-17 44.5z" />
    <glyph glyph-name="edotaccent" unicode="&#x117;" horiz-adv-x="586" 
d="M226 45h229l36 98h29l-13 -147l-131 4h-309v39l68 12v433q-10 1 -33.5 5.5t-34.5 6.5v39h299l110 3l9 -131h-23l-37 82h-199v-202l147 5l23 81h24v-210h-24l-23 82l-147 3v-203zM237 686q0 26 17 45t42 19t43.5 -19t18.5 -45t-18.5 -44t-43.5 -18t-42 18t-17 44z" />
    <glyph glyph-name="Eogonek" unicode="&#x118;" horiz-adv-x="681" 
d="M246 46h273l44 122h32l-15 -173l-35 2q-57 -43 -57 -102q0 -64 50 -64q8 0 11 1v-29q-13 -3 -29 -3q-37 0 -64.5 20t-27.5 56q0 66 80 122l-76 2h-361v39l81 15v555q-12 2 -39.5 7.5t-41.5 7.5v39h344l121 4q2 -26 5.5 -77t5.5 -77h-26l-44 103h-231v-262l190 6
q2 12 9 46.5t10 49.5h28v-240h-28l-19 96l-190 3v-269z" />
    <glyph glyph-name="eogonek" unicode="&#x119;" horiz-adv-x="586" 
d="M226 45h229l36 98h29l-13 -147h-3q-88 -50 -88 -119q0 -64 51 -64q8 0 11 1v-30q-13 -3 -30 -3q-37 0 -64.5 20.5t-27.5 56.5q0 77 103 136l-2 4l-81 2h-309v39l68 12v433q-10 1 -33.5 5.5t-34.5 6.5v39h299l110 3l9 -131h-23l-37 82h-199v-202l147 5l23 81h24v-210h-24
l-23 82l-147 3v-203z" />
    <glyph glyph-name="Ecaron" unicode="&#x11a;" horiz-adv-x="681" 
d="M246 46h273l44 122h32l-15 -173l-148 5h-361v39l81 15v555q-12 2 -39.5 7.5t-41.5 7.5v39h344l121 4q2 -26 5.5 -77t5.5 -77h-26l-44 103h-231v-262l190 6q2 12 9 46.5t10 49.5h28v-240h-28l-19 96l-190 3v-269zM475 859v-6l-120 -128h-42l-120 128v6h38l103 -71l103 71
h38z" />
    <glyph glyph-name="ecaron" unicode="&#x11b;" horiz-adv-x="586" 
d="M226 45h229l36 98h29l-13 -147l-131 4h-309v39l68 12v433q-10 1 -33.5 5.5t-34.5 6.5v39h299l110 3l9 -131h-23l-37 82h-199v-202l147 5l23 81h24v-210h-24l-23 82l-147 3v-203zM438 771v-6l1 1l-121 -165h-42l-121 165l1 -1v6h38l103 -103l103 103h38z" />
    <glyph glyph-name="Gbreve" unicode="&#x11e;" horiz-adv-x="777" 
d="M448 37q79 0 131 43v161q-15 2 -47 8t-46 8v39h235v-40l-54 -15v-190q-106 -62 -234 -62q-142 0 -245 88t-103 239q0 94 30 165.5t81 112t112.5 60.5t132.5 20q101 0 215 -38l15 -165h-35l-43 107q-63 53 -166 53t-171 -69t-68 -207q0 -88 24.5 -153t65 -99.5t83 -50
t87.5 -15.5zM443 725q-48 0 -81.5 32.5t-34.5 96.5h30q1 -30 25 -51.5t61 -21.5q34 0 59 21t26 52h30q-1 -63 -34 -96t-81 -33z" />
    <glyph glyph-name="gbreve" unicode="&#x11f;" horiz-adv-x="689" 
d="M387 38q63 0 103 30v129l-78 14v38h216v-38l-51 -13v-156q-97 -51 -203 -51q-123 0 -211.5 71t-88.5 193q0 76 25.5 133.5t70 90.5t97.5 49t114 16q85 0 181 -31l13 -144h-30l-37 91q-54 41 -139 41q-84 0 -140 -53.5t-56 -160.5q0 -69 20 -120t53.5 -77.5t68.5 -39
t72 -12.5zM374 607q-48 0 -82 38t-34 111h30q1 -36 25 -62.5t61 -26.5q35 0 60 25t25 64h31q-1 -72 -35 -110.5t-81 -38.5z" />
    <glyph glyph-name="Gdotaccent" unicode="&#x120;" horiz-adv-x="777" 
d="M448 37q79 0 131 43v161q-15 2 -47 8t-46 8v39h235v-40l-54 -15v-190q-106 -62 -234 -62q-142 0 -245 88t-103 239q0 94 30 165.5t81 112t112.5 60.5t132.5 20q101 0 215 -38l15 -165h-35l-43 107q-63 53 -166 53t-171 -69t-68 -207q0 -88 24.5 -153t65 -99.5t83 -50
t87.5 -15.5zM382 795q0 26 17.5 44.5t42.5 18.5t43 -18.5t18 -44.5t-18 -44.5t-43 -18.5t-42.5 18.5t-17.5 44.5z" />
    <glyph glyph-name="gdotaccent" unicode="&#x121;" horiz-adv-x="689" 
d="M387 38q63 0 103 30v129l-78 14v38h216v-38l-51 -13v-156q-97 -51 -203 -51q-123 0 -211.5 71t-88.5 193q0 76 25.5 133.5t70 90.5t97.5 49t114 16q85 0 181 -31l13 -144h-30l-37 91q-54 41 -139 41q-84 0 -140 -53.5t-56 -160.5q0 -69 20 -120t53.5 -77.5t68.5 -39
t72 -12.5zM313 686q0 26 17.5 45t42.5 19t43 -19t18 -45t-18 -44t-43 -18t-42.5 18t-17.5 44z" />
    <glyph glyph-name="Gcommaaccent" unicode="&#x122;" horiz-adv-x="777" 
d="M448 37q79 0 131 43v161q-15 2 -47 8t-46 8v39h235v-40l-54 -15v-190q-106 -62 -234 -62q-142 0 -245 88t-103 239q0 94 30 165.5t81 112t112.5 60.5t132.5 20q101 0 215 -38l15 -165h-35l-43 107q-63 53 -166 53t-171 -69t-68 -207q0 -88 24.5 -153t65 -99.5t83 -50
t87.5 -15.5zM417 -242l-33 11l44 88l19 83q14 -4 36.5 -10t26.5 -7l-37 -82h1z" />
    <glyph glyph-name="gcommaaccent" unicode="&#x123;" horiz-adv-x="689" 
d="M387 38q63 0 103 30v129l-78 14v38h216v-38l-51 -13v-156q-97 -51 -203 -51q-123 0 -211.5 71t-88.5 193q0 76 25.5 133.5t70 90.5t97.5 49t114 16q85 0 181 -31l13 -144h-30l-37 91q-54 41 -139 41q-84 0 -140 -53.5t-56 -160.5q0 -69 20 -120t53.5 -77.5t68.5 -39
t72 -12.5zM344 -238l-33 11l44 89l19 83q10 -3 30.5 -8.5t32.5 -9.5l-37 -81h1z" />
    <glyph glyph-name="Hbar" unicode="&#x126;" horiz-adv-x="841" 
d="M88 513h64v96q-12 2 -39.5 7.5t-41.5 7.5v39h257v-39l-82 -15v-96h350v96q-14 2 -42 7.5t-40 7.5v39h257v-39l-81 -15v-96h69v-48h-69v-411q12 -2 40 -7.5t41 -7.5v-39h-257v39l82 15v270h-350v-270q14 -2 42 -7.5t40 -7.5v-39h-257v39l81 15v411h-64v48zM246 372h350v93
h-350v-93z" />
    <glyph glyph-name="hbar" unicode="&#x127;" horiz-adv-x="733" 
d="M438 535h229v-39l-69 -12v-67h65v-46h-65v-320q11 -2 35 -6.5t34 -5.5v-39h-229v39l69 12v206h-282v-205l69 -13v-39h-228v39l67 12v320h-60v46h60v67q-11 1 -34 5.5t-33 6.5v39h228v-39l-69 -12v-67h282v67q-11 2 -34.5 6.5t-34.5 5.5v39zM225 304h282v67h-282v-67z" />
    <glyph glyph-name="Imacron" unicode="&#x12a;" horiz-adv-x="441" 
d="M93 663h256v-39l-81 -15v-555q13 -2 40.5 -7.5t40.5 -7.5v-39h-256v39l80 15v555q-12 2 -39.5 7.5t-40.5 7.5v39zM344 748h-245v54h245v-54z" />
    <glyph glyph-name="imacron" unicode="&#x12b;" horiz-adv-x="398" 
d="M86 535h227v-39l-67 -12v-433q11 -1 33.5 -5.5t33.5 -6.5v-39h-227v39l67 12v433q-10 1 -33 5.5t-34 6.5v39zM322 622h-245v54h245v-54z" />
    <glyph glyph-name="Iogonek" unicode="&#x12e;" horiz-adv-x="441" 
d="M93 663h256v-39l-81 -15v-555q13 -2 40.5 -7.5t40.5 -7.5v-39h-31q-62 -43 -62 -105q0 -64 50 -64q8 0 11 1v-29q-13 -3 -29 -3q-38 0 -65.5 20t-27.5 56q0 70 84 124h-186v39l80 15v555q-12 2 -39.5 7.5t-40.5 7.5v39z" />
    <glyph glyph-name="iogonek" unicode="&#x12f;" horiz-adv-x="398" 
d="M86 535h227v-39l-67 -12v-433q11 -1 33.5 -5.5t33.5 -6.5v-39h-3q-89 -49 -89 -121q0 -64 50 -64q8 0 11 1v-30q-13 -3 -29 -3q-37 0 -65 20.5t-28 56.5q0 78 105 136l-2 4h-177v39l67 12v433q-10 1 -33 5.5t-34 6.5v39z" />
    <glyph glyph-name="Idotaccent" unicode="&#x130;" horiz-adv-x="441" 
d="M93 663h256v-39l-81 -15v-555q13 -2 40.5 -7.5t40.5 -7.5v-39h-256v39l80 15v555q-12 2 -39.5 7.5t-40.5 7.5v39zM161 795q0 26 17 44.5t42 18.5q26 0 44 -18.5t18 -44.5t-18 -44.5t-44 -18.5q-25 0 -42 18.5t-17 44.5z" />
    <glyph glyph-name="dotlessi" unicode="&#x131;" horiz-adv-x="398" 
d="M86 535h227v-39l-67 -12v-433q11 -1 33.5 -5.5t33.5 -6.5v-39h-227v39l67 12v433q-10 1 -33 5.5t-34 6.5v39z" />
    <glyph glyph-name="Kcommaaccent" unicode="&#x136;" horiz-adv-x="746" 
d="M246 609v-238h44l224 229q-9 3 -21.5 7t-28 9t-22.5 7v40h222v-40l-89 -31l-221 -222l277 -317l67 -14v-39h-259v39l73 15l-220 259h-46v-259q14 -2 41.5 -7.5t39.5 -7.5v-39h-256v39l81 15v555q-12 2 -39.5 7.5t-41.5 7.5v39h256v-39zM357 -242l-32 11l43 88l19 83
q13 -4 35.5 -9.5t28.5 -7.5l-37 -82h1z" />
    <glyph glyph-name="kcommaaccent" unicode="&#x137;" horiz-adv-x="653" 
d="M224 484v-181h46l172 177q-8 3 -28 7.5t-28 6.5v41h191v-40l-77 -21l-164 -168l220 -254l51 -12v-40h-226v39l62 12l-168 198h-51v-198q10 -1 33 -5.5t34 -6.5v-39h-225v39l68 12v433q-11 1 -34.5 5.5t-33.5 6.5v39h225v-39zM311 -238l-32 11l43 89l20 83
q10 -3 30.5 -8.5t32.5 -9.5l-37 -81h1z" />
    <glyph glyph-name="Lacute" unicode="&#x139;" horiz-adv-x="615" 
d="M542 -5l-138 5h-332v39l81 15v555q-12 2 -39.5 7.5t-41.5 7.5v39h260v-39l-85 -15v-563h229l50 138h31zM147 725v6l-1 -1l85 129h87v-8l2 1l-129 -127h-44z" />
    <glyph glyph-name="lacute" unicode="&#x13a;" horiz-adv-x="558" 
d="M485 -4l-122 4h-296v39l67 12v433q-11 1 -33.5 5.5t-33.5 6.5v39h230v-39l-71 -12v-439h201l43 110h27zM127 612v6l-1 -1l86 129h86v-8l2 1l-129 -127h-44z" />
    <glyph glyph-name="Lcommaaccent" unicode="&#x13b;" horiz-adv-x="615" 
d="M542 -5l-138 5h-332v39l81 15v555q-12 2 -39.5 7.5t-41.5 7.5v39h260v-39l-85 -15v-563h229l50 138h31zM300 -242l-32 11l43 88l19 83q14 -4 36.5 -10t26.5 -7l-37 -82h1z" />
    <glyph glyph-name="lcommaaccent" unicode="&#x13c;" horiz-adv-x="558" 
d="M485 -4l-122 4h-296v39l67 12v433q-11 1 -33.5 5.5t-33.5 6.5v39h230v-39l-71 -12v-439h201l43 110h27zM262 -238l-32 11l43 89l19 83q11 -3 31.5 -8.5t32.5 -9.5l-38 -81h1z" />
    <glyph glyph-name="Lcaron" unicode="&#x13d;" horiz-adv-x="615" 
d="M542 -5l-138 5h-332v39l81 15v555q-12 2 -39.5 7.5t-41.5 7.5v39h260v-39l-85 -15v-563h229l50 138h31zM474 459v6l16 198h74v-7l-59 -197h-31z" />
    <glyph glyph-name="lcaron" unicode="&#x13e;" horiz-adv-x="558" 
d="M485 -4l-122 4h-296v39l67 12v433q-11 1 -33.5 5.5t-33.5 6.5v39h230v-39l-71 -12v-439h201l43 110h27zM433 329v7l16 198h75v-7l-60 -198h-31z" />
    <glyph glyph-name="Ldot" unicode="&#x13f;" horiz-adv-x="615" 
d="M542 -5l-138 5h-332v39l81 15v555q-12 2 -39.5 7.5t-41.5 7.5v39h260v-39l-85 -15v-563h229l50 138h31zM418 346q0 26 17 44.5t42 18.5t42.5 -18.5t17.5 -44.5t-17.5 -44t-42.5 -18t-42 18t-17 44z" />
    <glyph glyph-name="ldot" unicode="&#x140;" horiz-adv-x="558" 
d="M485 -4l-122 4h-296v39l67 12v433q-11 1 -33.5 5.5t-33.5 6.5v39h230v-39l-71 -12v-439h201l43 110h27zM397 296q0 26 17 45t42 19t43 -19t18 -45t-17.5 -44t-43.5 -18q-25 0 -42 18t-17 44z" />
    <glyph glyph-name="Lslash" unicode="&#x141;" horiz-adv-x="615" 
d="M542 -5l-138 5h-332v39l81 15v202q-62 -37 -63 -37l-23 41l86 50v299q-12 2 -39.5 7.5t-41.5 7.5v39h260v-39l-85 -15v-245l151 88l23 -41l-174 -100v-265h229l50 138h31z" />
    <glyph glyph-name="lslash" unicode="&#x142;" horiz-adv-x="558" 
d="M53 192l81 46v246q-11 1 -33.5 5.5t-33.5 6.5v39h230v-39l-71 -12v-195q21 11 63.5 35.5t59.5 33.5l19 -44l-142 -80v-189h201l43 110h27l-12 -159l-122 4h-296v39l67 12v133l-61 -34z" />
    <glyph glyph-name="Nacute" unicode="&#x143;" horiz-adv-x="801" 
d="M597 180h22v280l-4 149q-12 2 -39 7.5t-40 7.5v39h206v-39l-76 -15l-5 -154v-457h-30l-430 512h-20v-288l5 -168q13 -2 42.5 -7.5t44.5 -7.5v-39h-214v39l76 15l4 165v396q-13 2 -40.5 4.5t-39.5 3.5v40h142zM339 725v6l-1 -1l86 129h86v-8l2 1l-129 -127h-44z" />
    <glyph glyph-name="nacute" unicode="&#x144;" horiz-adv-x="709" 
d="M513 162h20v208l-4 114q-10 1 -33 5.5t-34 6.5v39h187v-39l-65 -12l-4 -118v-368h-37l-349 398h-19v-215l5 -129l73 -13v-39h-192v39l63 12l4 127v310l-67 8v39h131zM297 601v7l-1 -1l86 164h87v-8l1 1l-129 -163h-44z" />
    <glyph glyph-name="Ncommaaccent" unicode="&#x145;" horiz-adv-x="801" 
d="M597 180h22v280l-4 149q-12 2 -39 7.5t-40 7.5v39h206v-39l-76 -15l-5 -154v-457h-30l-430 512h-20v-288l5 -168q13 -2 42.5 -7.5t44.5 -7.5v-39h-214v39l76 15l4 165v396q-13 2 -40.5 4.5t-39.5 3.5v40h142zM370 -242l-32 11l43 88l19 83q14 -4 35.5 -9.5t28.5 -7.5
l-37 -82h1z" />
    <glyph glyph-name="ncommaaccent" unicode="&#x146;" horiz-adv-x="709" 
d="M513 162h20v208l-4 114q-10 1 -33 5.5t-34 6.5v39h187v-39l-65 -12l-4 -118v-368h-37l-349 398h-19v-215l5 -129l73 -13v-39h-192v39l63 12l4 127v310l-67 8v39h131zM335 -238l-33 11l44 89l19 83q10 -3 30.5 -8.5t32.5 -9.5l-37 -81h1z" />
    <glyph glyph-name="Ncaron" unicode="&#x147;" horiz-adv-x="801" 
d="M597 180h22v280l-4 149q-12 2 -39 7.5t-40 7.5v39h206v-39l-76 -15l-5 -154v-457h-30l-430 512h-20v-288l5 -168q13 -2 42.5 -7.5t44.5 -7.5v-39h-214v39l76 15l4 165v396q-13 2 -40.5 4.5t-39.5 3.5v40h142zM535 859v-6l-119 -128h-43l-119 128v6h38l102 -71l103 71h38z
" />
    <glyph glyph-name="ncaron" unicode="&#x148;" horiz-adv-x="709" 
d="M513 162h20v208l-4 114q-10 1 -33 5.5t-34 6.5v39h187v-39l-65 -12l-4 -118v-368h-37l-349 398h-19v-215l5 -129l73 -13v-39h-192v39l63 12l4 127v310l-67 8v39h131zM494 771v-6l1 1l-121 -165h-43l-120 165l1 -1v6h38l103 -103l102 103h39z" />
    <glyph glyph-name="Omacron" unicode="&#x14c;" horiz-adv-x="851" 
d="M84 316q0 90 29 160t77.5 112.5t107.5 64t124 21.5q153 0 249 -87.5t96 -237.5q0 -168 -96.5 -264t-258.5 -96q-142 0 -235 86.5t-93 240.5zM183 369q0 -166 72.5 -250.5t180.5 -84.5q42 0 81 15t73.5 46t55.5 86t21 127q0 84 -23 148t-61.5 101t-84.5 55.5t-97 18.5
q-33 0 -67.5 -12.5t-70 -40t-58 -82t-22.5 -127.5zM542 748h-245v54h245v-54z" />
    <glyph glyph-name="omacron" unicode="&#x14d;" horiz-adv-x="736" 
d="M74 255q0 72 25 129t66.5 91t92 51.5t106.5 17.5q131 0 214.5 -71t83.5 -191q0 -135 -83.5 -213t-222.5 -78q-121 0 -201.5 70t-80.5 194zM169 298q0 -130 59 -196t148 -66q75 0 132 52.5t57 160.5q0 126 -64 189t-153 63q-27 0 -55.5 -9.5t-57.5 -31t-47.5 -63.5
t-18.5 -99zM482 624h-246v54h246v-54z" />
    <glyph glyph-name="Ohungarumlaut" unicode="&#x150;" horiz-adv-x="851" 
d="M84 316q0 90 29 160t77.5 112.5t107.5 64t124 21.5q153 0 249 -87.5t96 -237.5q0 -168 -96.5 -264t-258.5 -96q-142 0 -235 86.5t-93 240.5zM183 369q0 -166 72.5 -250.5t180.5 -84.5q42 0 81 15t73.5 46t55.5 86t21 127q0 84 -23 148t-61.5 101t-84.5 55.5t-97 18.5
q-33 0 -67.5 -12.5t-70 -40t-58 -82t-22.5 -127.5zM450 735v6l-1 -1l85 129h87v-8l2 1l-139 -127h-34zM309 735v6l-1 -1l85 129h87v-8l2 1l-139 -127h-34z" />
    <glyph glyph-name="ohungarumlaut" unicode="&#x151;" horiz-adv-x="736" 
d="M74 255q0 72 25 129t66.5 91t92 51.5t106.5 17.5q131 0 214.5 -71t83.5 -191q0 -135 -83.5 -213t-222.5 -78q-121 0 -201.5 70t-80.5 194zM169 298q0 -130 59 -196t148 -66q75 0 132 52.5t57 160.5q0 126 -64 189t-153 63q-27 0 -55.5 -9.5t-57.5 -31t-47.5 -63.5
t-18.5 -99zM394 591v6l-1 -1l86 165h86v-8l-138 -162h-33zM253 591v6l-1 -1l86 165h86v-8l-138 -162h-33z" />
    <glyph glyph-name="OE" unicode="&#x152;" horiz-adv-x="1044" 
d="M611 46h272l45 122h31l-15 -173l-148 5h-285q-49 -11 -99 -11q-142 0 -235 86.5t-93 240.5q0 90 29 160t77.5 112.5t107.5 64t124 21.5q50 0 100 -11h257l121 4q2 -31 7 -89t5 -65h-27l-44 103h-230v-262l189 6q2 12 9 46.5t10 49.5h28v-240h-28l-19 96l-189 3v-269z
M436 34q41 0 80 13v559q-53 25 -115 25q-33 0 -67.5 -12.5t-70 -40t-58 -82t-22.5 -127.5q0 -166 72.5 -250.5t180.5 -84.5z" />
    <glyph glyph-name="oe" unicode="&#x153;" horiz-adv-x="895" 
d="M536 45h230l35 98h29l-13 -147l-131 4h-242q-42 -9 -88 -9q-121 0 -201.5 70t-80.5 194q0 72 25 129t66.5 91t92 51.5t106.5 17.5q43 0 84 -9h228l110 3l9 -131h-22l-37 82h-200v-202l147 5l23 81h24v-210h-24l-23 82l-147 3v-203zM376 36q37 0 69 11v433q-43 21 -97 21
q-27 0 -55.5 -9.5t-57.5 -31t-47.5 -63.5t-18.5 -99q0 -130 59 -196t148 -66z" />
    <glyph glyph-name="Racute" unicode="&#x154;" horiz-adv-x="723" 
d="M335 284h-89v-230q15 -2 46 -7.5t45 -7.5v-39h-266v39l81 15v555q-12 2 -39.5 7.5t-41.5 7.5v39h283q24 0 49 -4t53 -14.5t49.5 -27t35.5 -44.5t14 -64q0 -60 -28.5 -114.5t-87.5 -84.5v-11l190 -250q7 -3 29 -13.5t34 -15.5l-9 -33l-146 27l-17 23q-116 164 -185 247z
M246 610v-279h91q57 1 87.5 31.5t30.5 110.5q0 137 -132 137h-77zM275 725v6l-1 -1l85 129h87v-8l2 1l-129 -127h-44z" />
    <glyph glyph-name="racute" unicode="&#x155;" horiz-adv-x="640" 
d="M299 235h-75v-183l78 -13v-39h-236v39l68 12v433q-11 1 -34.5 5.5t-33.5 6.5v39h254q28 0 55.5 -6t56 -19.5t46.5 -41t18 -65.5q0 -43 -25 -81.5t-78 -61.5v-7l157 -205q10 -4 31 -13t27 -12l-10 -34l-135 22zM224 485v-203h81q94 2 94 103q0 100 -105 100h-70zM237 601
v7l-1 -1l85 164h87v-8l1 1l-129 -163h-43z" />
    <glyph glyph-name="Rcaron" unicode="&#x158;" horiz-adv-x="723" 
d="M335 284h-89v-230q15 -2 46 -7.5t45 -7.5v-39h-266v39l81 15v555q-12 2 -39.5 7.5t-41.5 7.5v39h283q24 0 49 -4t53 -14.5t49.5 -27t35.5 -44.5t14 -64q0 -60 -28.5 -114.5t-87.5 -84.5v-11l190 -250q7 -3 29 -13.5t34 -15.5l-9 -33l-146 27l-17 23q-116 164 -185 247z
M246 610v-279h91q57 1 87.5 31.5t30.5 110.5q0 137 -132 137h-77zM471 859v-6l-120 -128h-42l-120 128v6h38l103 -71l103 71h38z" />
    <glyph glyph-name="rcaron" unicode="&#x159;" horiz-adv-x="640" 
d="M299 235h-75v-183l78 -13v-39h-236v39l68 12v433q-11 1 -34.5 5.5t-33.5 6.5v39h254q28 0 55.5 -6t56 -19.5t46.5 -41t18 -65.5q0 -43 -25 -81.5t-78 -61.5v-7l157 -205q10 -4 31 -13t27 -12l-10 -34l-135 22zM224 485v-203h81q94 2 94 103q0 100 -105 100h-70zM433 771
v-6l1 1l-121 -165h-42l-121 165l1 -1v6h38l103 -103l103 103h38z" />
    <glyph glyph-name="Sacute" unicode="&#x15a;" horiz-adv-x="596" 
d="M112 26l-13 178h44q13 -89 49 -125.5t99 -36.5q64 0 101.5 32.5t37.5 88.5q0 49 -37 78.5t-105 53.5q-38 13 -66 27.5t-56 37t-43 56.5t-15 77q0 88 60.5 134.5t142.5 46.5q66 0 165 -29q0 -28 2 -81.5t3 -81.5h-33q-15 76 -49.5 108t-89.5 32q-56 0 -86 -31.5t-30 -84.5
q0 -69 130 -122q42 -16 71 -31t59 -38.5t45.5 -56t15.5 -73.5q0 -79 -57 -137.5t-157 -58.5q-54 0 -108 11.5t-80 25.5zM260 725v6l-1 -1l85 129h87v-8l2 1l-129 -127h-44z" />
    <glyph glyph-name="sacute" unicode="&#x15b;" horiz-adv-x="541" 
d="M101 22l-11 149h39q13 -71 45 -100t89 -29q56 0 88.5 24.5t32.5 67.5q0 37 -32 58t-94 40h1q-72 23 -116.5 60.5t-44.5 103.5q0 71 54.5 109.5t127.5 38.5q62 0 150 -23q0 -24 2 -71.5t3 -71.5h-30q-17 63 -48 89.5t-79 26.5t-74.5 -24t-26.5 -64q0 -31 30 -51.5
t85 -38.5q80 -28 125 -64t45 -100q0 -66 -51 -113.5t-141 -47.5q-46 0 -95 9.5t-74 21.5zM233 601v7l-1 -1l85 164h87v-8l1 1l-129 -163h-43z" />
    <glyph glyph-name="Scedilla" unicode="&#x15e;" horiz-adv-x="596" 
d="M255 -224l-7 21q87 18 87 63q0 22 -21 33t-55 11q-20 0 -28 -1l-3 4l43 83q-114 8 -159 36l-13 178h44q13 -89 49 -125.5t99 -36.5q64 0 101.5 32.5t37.5 88.5q0 49 -37 78.5t-105 53.5q-38 13 -66 27.5t-56 37t-43 56.5t-15 77q0 88 60.5 134.5t142.5 46.5q66 0 165 -29
q0 -28 2 -81.5t3 -81.5h-33q-15 76 -49.5 108t-89.5 32q-56 0 -86 -31.5t-30 -84.5q0 -69 130 -122q42 -16 71 -31t59 -38.5t45.5 -56t15.5 -73.5q0 -77 -55.5 -134.5t-152.5 -61.5l-23 -43q47 0 76.5 -17.5t29.5 -53.5t-39 -63t-95 -36z" />
    <glyph glyph-name="scedilla" unicode="&#x15f;" horiz-adv-x="541" 
d="M231 -220l-6 22q86 18 86 63q0 22 -21 33t-55 11q-19 0 -27 -1l-3 4l40 80q-90 6 -144 30q-2 26 -6 75t-5 74h39q13 -71 45 -100t89 -29q56 0 88.5 24.5t32.5 67.5q0 37 -32 58t-94 40h1q-72 23 -116.5 60.5t-44.5 103.5q0 71 54.5 109.5t127.5 38.5q62 0 150 -23
q0 -24 2 -71.5t3 -71.5h-30q-17 63 -48 89.5t-79 26.5t-74.5 -24t-26.5 -64q0 -31 30 -51.5t85 -38.5q80 -28 125 -64t45 -100q0 -63 -48 -109.5t-134 -50.5l-21 -41q47 0 77 -17.5t30 -53.5t-39.5 -63.5t-95.5 -36.5z" />
    <glyph glyph-name="Scaron" unicode="&#x160;" horiz-adv-x="596" 
d="M112 26l-13 178h44q13 -89 49 -125.5t99 -36.5q64 0 101.5 32.5t37.5 88.5q0 49 -37 78.5t-105 53.5q-38 13 -66 27.5t-56 37t-43 56.5t-15 77q0 88 60.5 134.5t142.5 46.5q66 0 165 -29q0 -28 2 -81.5t3 -81.5h-33q-15 76 -49.5 108t-89.5 32q-56 0 -86 -31.5t-30 -84.5
q0 -69 130 -122q42 -16 71 -31t59 -38.5t45.5 -56t15.5 -73.5q0 -79 -57 -137.5t-157 -58.5q-54 0 -108 11.5t-80 25.5zM456 859v-6l-120 -128h-42l-120 128v6h38l103 -71l103 71h38z" />
    <glyph glyph-name="scaron" unicode="&#x161;" horiz-adv-x="541" 
d="M101 22l-11 149h39q13 -71 45 -100t89 -29q56 0 88.5 24.5t32.5 67.5q0 37 -32 58t-94 40h1q-72 23 -116.5 60.5t-44.5 103.5q0 71 54.5 109.5t127.5 38.5q62 0 150 -23q0 -24 2 -71.5t3 -71.5h-30q-17 63 -48 89.5t-79 26.5t-74.5 -24t-26.5 -64q0 -31 30 -51.5
t85 -38.5q80 -28 125 -64t45 -100q0 -66 -51 -113.5t-141 -47.5q-46 0 -95 9.5t-74 21.5zM429 771v-6l1 1l-121 -165h-42l-121 165l1 -1v6h38l103 -103l103 103h38z" />
    <glyph glyph-name="Tcommaaccent" unicode="&#x162;" horiz-adv-x="714" 
d="M75 667l153 -4h248l163 4q1 -31 5 -92t6 -92h-37l-37 134h-173v-568q15 -2 44 -7.5t42 -7.5v-34h-264v34l85 15v568h-172l-36 -134h-38q2 31 5.5 92t5.5 92zM329 -242l-32 11l43 88l19 83q7 -2 64 -17l-38 -82h1z" />
    <glyph glyph-name="Tcommaaccent" unicode="&#x21a;" horiz-adv-x="714" 
d="M75 667l153 -4h248l163 4q1 -31 5 -92t6 -92h-37l-37 134h-173v-568q15 -2 44 -7.5t42 -7.5v-34h-264v34l85 15v568h-172l-36 -134h-38q2 31 5.5 92t5.5 92zM329 -242l-32 11l43 88l19 83q7 -2 64 -17l-38 -82h1z" />
    <glyph glyph-name="tcommaaccent" unicode="&#x163;" horiz-adv-x="634" 
d="M74 538l135 -3h209l143 3l9 -159h-32l-35 111h-140v-442l71 -12v-36h-234v35l72 12v443h-139q-5 -15 -17 -53.5t-19 -57.5h-33zM292 -238l-32 11l43 89l19 83q9 -3 30.5 -8.5t33.5 -9.5l-37 -81h1z" />
    <glyph glyph-name="tcommaaccent" unicode="&#x21b;" horiz-adv-x="634" 
d="M74 538l135 -3h209l143 3l9 -159h-32l-35 111h-140v-442l71 -12v-36h-234v35l72 12v443h-139q-5 -15 -17 -53.5t-19 -57.5h-33zM292 -238l-32 11l43 89l19 83q9 -3 30.5 -8.5t33.5 -9.5l-37 -81h1z" />
    <glyph glyph-name="Tcaron" unicode="&#x164;" horiz-adv-x="714" 
d="M75 667l153 -4h248l163 4q1 -31 5 -92t6 -92h-37l-37 134h-173v-568q15 -2 44 -7.5t42 -7.5v-34h-264v34l85 15v568h-172l-36 -134h-38q2 31 5.5 92t5.5 92zM497 859v-6l-120 -128h-42l-120 128v6h39l102 -71l103 71h38z" />
    <glyph glyph-name="tcaron" unicode="&#x165;" horiz-adv-x="634" 
d="M74 538l135 -3h209l143 3l9 -159h-32l-35 111h-140v-442l71 -12v-36h-234v35l72 12v443h-139q-5 -15 -17 -53.5t-19 -57.5h-33zM461 771v-6l1 1l-120 -165h-43l-121 165l1 -1v6h39l102 -103l103 103h38z" />
    <glyph glyph-name="Umacron" unicode="&#x16a;" horiz-adv-x="790" 
d="M521 663h211v-39l-67 -15l-9 -129v-270q0 -36 -15 -73.5t-44 -71t-80 -55t-116 -21.5q-121 0 -191.5 62t-70.5 141v417q-12 2 -39.5 7.5t-41.5 7.5v39h257v-39l-82 -15v-399q0 -68 49.5 -113.5t138.5 -45.5q82 0 136 50t54 139v245l-7 124q-14 2 -42.5 7.5t-40.5 7.5v39z
M548 748h-245v54h245v-54z" />
    <glyph glyph-name="umacron" unicode="&#x16b;" horiz-adv-x="692" 
d="M449 535h188v-39l-57 -12l-4 -50q-2 -16 -4 -48v-215q0 -29 -13 -59.5t-38 -58t-69 -45t-100 -17.5q-105 0 -166.5 50.5t-61.5 115.5v327q-10 1 -33.5 5.5t-34.5 6.5v39h229v-39l-68 -12v-313q0 -54 39.5 -89t111.5 -35q69 0 113.5 38.5t44.5 109.5v195l-6 94
q-11 1 -35 5.5t-36 6.5v39zM494 624h-246v54h246v-54z" />
    <glyph glyph-name="Ubreve" unicode="&#x16c;" horiz-adv-x="790" 
d="M521 663h211v-39l-67 -15l-9 -129v-270q0 -36 -15 -73.5t-44 -71t-80 -55t-116 -21.5q-121 0 -191.5 62t-70.5 141v417q-12 2 -39.5 7.5t-41.5 7.5v39h257v-39l-82 -15v-399q0 -68 49.5 -113.5t138.5 -45.5q82 0 136 50t54 139v245l-7 124q-14 2 -42.5 7.5t-40.5 7.5v39z
M426 725q-48 0 -81.5 32.5t-34.5 96.5h30q1 -30 25 -51.5t61 -21.5q34 0 59 21t26 52h30q-1 -63 -34 -96t-81 -33z" />
    <glyph glyph-name="ubreve" unicode="&#x16d;" horiz-adv-x="692" 
d="M449 535h188v-39l-57 -12l-4 -50q-2 -16 -4 -48v-215q0 -29 -13 -59.5t-38 -58t-69 -45t-100 -17.5q-105 0 -166.5 50.5t-61.5 115.5v327q-10 1 -33.5 5.5t-34.5 6.5v39h229v-39l-68 -12v-313q0 -54 39.5 -89t111.5 -35q69 0 113.5 38.5t44.5 109.5v195l-6 94
q-11 1 -35 5.5t-36 6.5v39zM371 607q-48 0 -82 38t-34 111h30q1 -36 25 -62.5t61 -26.5q35 0 60 25t25 64h31q-1 -72 -35 -110.5t-81 -38.5z" />
    <glyph glyph-name="Uring" unicode="&#x16e;" horiz-adv-x="790" 
d="M521 663h211v-39l-67 -15l-9 -129v-270q0 -36 -15 -73.5t-44 -71t-80 -55t-116 -21.5q-121 0 -191.5 62t-70.5 141v417q-12 2 -39.5 7.5t-41.5 7.5v39h257v-39l-82 -15v-399q0 -68 49.5 -113.5t138.5 -45.5q82 0 136 50t54 139v245l-7 124q-14 2 -42.5 7.5t-40.5 7.5v39z
M336 798q0 38 26.5 65t63.5 27t63 -27t26 -65t-26 -65.5t-63 -27.5t-63.5 27.5t-26.5 65.5zM372 798q0 -23 14.5 -38.5t38.5 -15.5t38.5 15.5t14.5 38.5t-15 39t-38 16q-24 0 -38.5 -16t-14.5 -39z" />
    <glyph glyph-name="uring" unicode="&#x16f;" horiz-adv-x="692" 
d="M449 535h188v-39l-57 -12l-4 -50q-2 -16 -4 -48v-215q0 -29 -13 -59.5t-38 -58t-69 -45t-100 -17.5q-105 0 -166.5 50.5t-61.5 115.5v327q-10 1 -33.5 5.5t-34.5 6.5v39h229v-39l-68 -12v-313q0 -54 39.5 -89t111.5 -35q69 0 113.5 38.5t44.5 109.5v195l-6 94
q-11 1 -35 5.5t-36 6.5v39zM281 674q0 38 26.5 65.5t63.5 27.5t63 -27.5t26 -65.5t-26 -65.5t-63 -27.5t-63.5 27.5t-26.5 65.5zM317 674q0 -23 14.5 -38t38.5 -15t38.5 15t14.5 38t-15 39t-38 16t-38 -16t-15 -39z" />
    <glyph glyph-name="Uhungarumlaut" unicode="&#x170;" horiz-adv-x="790" 
d="M521 663h211v-39l-67 -15l-9 -129v-270q0 -36 -15 -73.5t-44 -71t-80 -55t-116 -21.5q-121 0 -191.5 62t-70.5 141v417q-12 2 -39.5 7.5t-41.5 7.5v39h257v-39l-82 -15v-399q0 -68 49.5 -113.5t138.5 -45.5q82 0 136 50t54 139v245l-7 124q-14 2 -42.5 7.5t-40.5 7.5v39z
M456 735v6l-1 -1l85 129h87v-8l2 1l-139 -127h-34zM315 735v6l-1 -1l85 129h87v-8l2 1l-139 -127h-34z" />
    <glyph glyph-name="uhungarumlaut" unicode="&#x171;" horiz-adv-x="692" 
d="M449 535h188v-39l-57 -12l-4 -50q-2 -16 -4 -48v-215q0 -29 -13 -59.5t-38 -58t-69 -45t-100 -17.5q-105 0 -166.5 50.5t-61.5 115.5v327q-10 1 -33.5 5.5t-34.5 6.5v39h229v-39l-68 -12v-313q0 -54 39.5 -89t111.5 -35q69 0 113.5 38.5t44.5 109.5v195l-6 94
q-11 1 -35 5.5t-36 6.5v39zM265 591v6l-1 -1l86 165h86v-8l1 1l-139 -163h-33zM406 591v6l-1 -1l86 165h86v-8l-138 -162h-33z" />
    <glyph glyph-name="Uogonek" unicode="&#x172;" horiz-adv-x="790" 
d="M521 663h211v-39l-67 -15l-9 -129v-270q0 -54 -32.5 -109t-95.5 -85q-51 -39 -51 -96q0 -65 50 -65q8 0 11 1v-29q-14 -3 -29 -3q-37 0 -64.5 20t-27.5 56q0 50 45 95q-29 -6 -61 -6q-121 0 -191.5 62t-70.5 141v417q-12 2 -39.5 7.5t-41.5 7.5v39h257v-39l-82 -15v-399
q0 -68 49.5 -113.5t138.5 -45.5q82 0 136 50t54 139v245l-7 124q-14 2 -42.5 7.5t-40.5 7.5v39z" />
    <glyph glyph-name="uogonek" unicode="&#x173;" horiz-adv-x="692" 
d="M449 535h188v-39l-57 -12l-4 -50q-2 -16 -4 -48v-215q0 -46 -29.5 -91t-87.5 -70q-66 -43 -66 -108q0 -64 50 -64q8 0 11 1v-29q-14 -3 -29 -3q-38 0 -65.5 20t-27.5 56q0 57 64 111q-22 -3 -40 -3q-105 0 -166.5 50.5t-61.5 115.5v327q-10 1 -33.5 5.5t-34.5 6.5v39h229
v-39l-68 -12v-313q0 -54 39.5 -89t111.5 -35q69 0 113.5 38.5t44.5 109.5v195l-6 94q-11 1 -35 5.5t-36 6.5v39z" />
    <glyph glyph-name="Wcircumflex" unicode="&#x174;" horiz-adv-x="1018" 
d="M525 532l-13 1l-150 -533h-57l-187 609l-73 14v40h245v-39l-75 -15l133 -452h17l142 511h62l161 -511h16l125 447l-105 23v36h207v-37l-48 -27l-29 -75l-155 -524h-53zM682 731v-6h-38l-103 72l-102 -72h-39v6l-1 -1l121 129h42z" />
    <glyph glyph-name="wcircumflex" unicode="&#x175;" horiz-adv-x="885" 
d="M462 388h-22q-15 -56 -34 -122t-42 -144.5t-35 -121.5h-57l-162 484q-10 1 -32 5.5t-33 6.5v39h220v-39l-61 -12l105 -327h19q21 71 59 206t50 176h63l121 -382h21l99 325l-85 16v37h184v-36l-41 -21l-24 -59l-68 -210q-10 -34 -33 -104.5t-34 -104.5h-54zM613 608v-7
h-39l-102 103l-103 -103h-39v7l-1 -1l121 164h43l121 -164z" />
    <glyph glyph-name="Ycircumflex" unicode="&#x176;" horiz-adv-x="685" 
d="M385 352l144 252l-97 23v36h207v-37l-57 -26l-176 -310v-236q14 -2 41.5 -7.5t39.5 -7.5v-39h-257v39l82 15v235l-194 321l-72 14v39h240v-39l-74 -15l154 -257h19zM509 731v-6h-38l-103 72l-102 -72h-39v6l-1 -1l121 129h42z" />
    <glyph glyph-name="ycircumflex" unicode="&#x177;" horiz-adv-x="604" 
d="M323 291h23l109 191l-79 16v37h182v-37l-49 -20l-147 -249v-178q11 -1 34.5 -6t33.5 -6v-39h-228v39l68 12v176l-162 258l-62 11v39h220v-39l-59 -12zM469 608v-7h-39l-103 103l-102 -103h-39v7l-1 -1l121 164h43l121 -164z" />
    <glyph glyph-name="Ydieresis" unicode="&#x178;" horiz-adv-x="685" 
d="M385 352l144 252l-97 23v36h207v-37l-57 -26l-176 -310v-236q14 -2 41.5 -7.5t39.5 -7.5v-39h-257v39l82 15v235l-194 321l-72 14v39h240v-39l-74 -15l154 -257h19zM330 795q0 -20 -14 -35t-33 -15t-34 15.5t-15 34.5q0 20 15 35.5t34 15.5t33 -15.5t14 -35.5zM502 795
q0 -19 -15 -34.5t-32 -15.5q-19 0 -34 15.5t-15 34.5q0 20 15 35.5t34 15.5q18 0 32.5 -15.5t14.5 -35.5z" />
    <glyph glyph-name="Zacute" unicode="&#x179;" horiz-adv-x="715" 
d="M614 -5l-252 5h-269l-8 14q-8 14 -9 18l421 532l-8 17h-315l-39 -100h-28q1 32 5 93.5t6 92.5l150 -4h349l14 -19l-433 -547l5 -15h362l42 104h27q-3 -32 -10 -95.5t-10 -95.5zM297 725v6l-1 -1l85 129h87v-8l2 1l-129 -127h-44z" />
    <glyph glyph-name="zacute" unicode="&#x17a;" horiz-adv-x="624" 
d="M532 -4l-213 4h-231l-16 30l353 414l-5 8h-267l-31 -78h-24q1 27 4 82t4 82l133 -3h297l15 -19l-364 -427l2 -6h302q7 18 34 82h23zM270 601v7l-1 -1l86 164h86v-8l1 1l-129 -163h-43z" />
    <glyph glyph-name="Zdotaccent" unicode="&#x17b;" horiz-adv-x="715" 
d="M614 -5l-252 5h-269l-8 14q-8 14 -9 18l421 532l-8 17h-315l-39 -100h-28q1 32 5 93.5t6 92.5l150 -4h349l14 -19l-433 -547l5 -15h362l42 104h27q-3 -32 -10 -95.5t-10 -95.5zM292 795q0 26 17 44.5t42 18.5t43.5 -18.5t18.5 -44.5t-18.5 -44.5t-43.5 -18.5t-42 18.5
t-17 44.5z" />
    <glyph glyph-name="zdotaccent" unicode="&#x17c;" horiz-adv-x="624" 
d="M532 -4l-213 4h-231l-16 30l353 414l-5 8h-267l-31 -78h-24q1 27 4 82t4 82l133 -3h297l15 -19l-364 -427l2 -6h302q7 18 34 82h23zM265 686q0 26 17 45t42 19t43.5 -19t18.5 -45t-18 -44t-44 -18q-25 0 -42 18t-17 44z" />
    <glyph glyph-name="Zcaron" unicode="&#x17d;" horiz-adv-x="715" 
d="M614 -5l-252 5h-269l-8 14q-8 14 -9 18l421 532l-8 17h-315l-39 -100h-28q1 32 5 93.5t6 92.5l150 -4h349l14 -19l-433 -547l5 -15h362l42 104h27q-3 -32 -10 -95.5t-10 -95.5zM493 859v-6l-120 -128h-42l-120 128v6h39l102 -71l103 71h38z" />
    <glyph glyph-name="zcaron" unicode="&#x17e;" horiz-adv-x="624" 
d="M532 -4l-213 4h-231l-16 30l353 414l-5 8h-267l-31 -78h-24q1 27 4 82t4 82l133 -3h297l15 -19l-364 -427l2 -6h302q7 18 34 82h23zM467 771v-6l1 1l-121 -165h-43l-121 165l1 -1v6h39l102 -103l103 103h39z" />
    <glyph glyph-name="florin" unicode="&#x192;" horiz-adv-x="540" 
d="M94 309l14 49h94l25 100q17 70 68 125t125 55q55 0 90 -21.5t35 -51.5q0 -20 -11 -33.5t-34 -13.5q-17 0 -28.5 11t-16.5 25t-17.5 25t-31.5 11q-31 0 -50.5 -34t-39.5 -105l-26 -93h120l-14 -49h-117l-88 -327q-23 -85 -65.5 -137t-99.5 -52q-41 0 -69.5 19.5
t-28.5 49.5q0 19 10 32t27 13q14 0 25 -10.5t17 -23.5t15.5 -23.5t20.5 -10.5q32 0 64 130l86 340h-99z" />
    <glyph glyph-name="Scommaaccent" unicode="&#x218;" horiz-adv-x="596" 
d="M112 26l-13 178h44q13 -89 49 -125.5t99 -36.5q64 0 101.5 32.5t37.5 88.5q0 49 -37 78.5t-105 53.5q-38 13 -66 27.5t-56 37t-43 56.5t-15 77q0 88 60.5 134.5t142.5 46.5q66 0 165 -29q0 -28 2 -81.5t3 -81.5h-33q-15 76 -49.5 108t-89.5 32q-56 0 -86 -31.5t-30 -84.5
q0 -69 130 -122q42 -16 71 -31t59 -38.5t45.5 -56t15.5 -73.5q0 -79 -57 -137.5t-157 -58.5q-54 0 -108 11.5t-80 25.5zM268 -242l-33 11l44 88l19 83q14 -4 36.5 -10t26.5 -7l-37 -82h1z" />
    <glyph glyph-name="scommaaccent" unicode="&#x219;" horiz-adv-x="541" 
d="M101 22l-11 149h39q13 -71 45 -100t89 -29q56 0 88.5 24.5t32.5 67.5q0 37 -32 58t-94 40h1q-72 23 -116.5 60.5t-44.5 103.5q0 71 54.5 109.5t127.5 38.5q62 0 150 -23q0 -24 2 -71.5t3 -71.5h-30q-17 63 -48 89.5t-79 26.5t-74.5 -24t-26.5 -64q0 -31 30 -51.5
t85 -38.5q80 -28 125 -64t45 -100q0 -66 -51 -113.5t-141 -47.5q-46 0 -95 9.5t-74 21.5zM244 -238l-32 11l43 89l19 83q11 -4 31.5 -9t32.5 -9l-38 -81h1z" />
    <glyph glyph-name="quoteleft" unicode="&#x2bb;" horiz-adv-x="401" 
d="M266 722l41 -26l-84 -158q-3 -21 -10 -64t-10 -66l-93 39q9 22 27.5 65t27.5 65h-1z" />
    <glyph glyph-name="quoteleft" unicode="&#x2018;" horiz-adv-x="401" 
d="M266 722l41 -26l-84 -158q-3 -21 -10 -64t-10 -66l-93 39q9 22 27.5 65t27.5 65h-1z" />
    <glyph glyph-name="circumflex" unicode="&#x2c6;" 
d="M391 507v-6h-38l-102 103l-103 -103h-38v6l-1 -1l120 164h43l120 -164z" />
    <glyph glyph-name="caron" unicode="&#x2c7;" 
d="M391 670v-6l1 1l-120 -164h-43l-120 164l1 -1v6h38l103 -103l102 103h38z" />
    <glyph glyph-name="breve" unicode="&#x2d8;" 
d="M251 506q-48 0 -82 38t-34 111h30q1 -35 25 -62t61 -27q35 0 60 25.5t25 63.5h30q-1 -72 -34.5 -110.5t-80.5 -38.5z" />
    <glyph glyph-name="dotaccent" unicode="&#x2d9;" 
d="M190 586q0 26 17.5 44.5t42.5 18.5t43 -18.5t18 -44.5q0 -27 -18 -45t-43 -18q-26 0 -43 18t-17 45z" />
    <glyph glyph-name="ring" unicode="&#x2da;" 
d="M161 573q0 39 26 66t64 27q37 0 63 -27t26 -66q0 -38 -26 -65t-63 -27t-63.5 27t-26.5 65zM197 573q0 -23 14.5 -38t38.5 -15t38.5 15t14.5 38q0 24 -14.5 40t-38.5 16t-38.5 -16t-14.5 -40z" />
    <glyph glyph-name="ogonek" unicode="&#x2db;" 
d="M287 21v-5q-91 -50 -91 -121q0 -64 50 -64q9 0 12 1v-29q-14 -3 -30 -3q-37 0 -64.5 20t-27.5 56q0 92 137 153z" />
    <glyph glyph-name="tilde" unicode="&#x2dc;" 
d="M388 636l17 -7q-14 -49 -41.5 -86t-51.5 -37q-13 0 -61 30q-50 30 -67 30q-31 0 -57 -60q-3 1 -10 3t-10 4q12 40 40 81t44 41q13 0 63 -31q48 -31 67 -31q18 0 38 20t29 43z" />
    <glyph glyph-name="hungarumlaut" unicode="&#x2dd;" 
d="M144 491v6l-1 -1l85 164h87v-8l1 1l-139 -162h-33zM285 491v6l-1 -1l85 164h87v-8l-138 -161h-33z" />
    <glyph glyph-name="Delta" unicode="&#x394;" horiz-adv-x="540" 
d="M530 0h-520l223 631h45zM237 494l-150 -439h320z" />
    <glyph glyph-name="Delta" unicode="&#x2206;" horiz-adv-x="540" 
d="M530 0h-520l223 631h45zM237 494l-150 -439h320z" />
    <glyph glyph-name="Omega" unicode="&#x3a9;" horiz-adv-x="540" 
d="M269 588q-72 0 -110 -69.5t-38 -155.5q0 -133 38 -228t91 -112l-6 -23h-223l-20 146h29l43 -94h54l6 10q-43 49 -72 128t-29 162q0 114 66.5 200t171.5 86t171.5 -86t66.5 -200q0 -83 -29 -162t-72 -128l6 -10h54l43 94h29l-20 -146h-223l-6 23q53 17 91 112t38 228
q0 53 -15 102.5t-50.5 86t-84.5 36.5z" />
    <glyph glyph-name="Omega" unicode="&#x2126;" horiz-adv-x="540" 
d="M269 588q-72 0 -110 -69.5t-38 -155.5q0 -133 38 -228t91 -112l-6 -23h-223l-20 146h29l43 -94h54l6 10q-43 49 -72 128t-29 162q0 114 66.5 200t171.5 86t171.5 -86t66.5 -200q0 -83 -29 -162t-72 -128l6 -10h54l43 94h29l-20 -146h-223l-6 23q53 17 91 112t38 228
q0 53 -15 102.5t-50.5 86t-84.5 36.5z" />
    <glyph glyph-name="lambda" unicode="&#x3bb;" horiz-adv-x="524" 
d="M256 608l115 -454q16 -65 24 -83.5t23 -18.5q12 0 27 27t32 27q16 0 25 -12t9 -30q0 -32 -25 -52.5t-60 -20.5q-77 0 -100 111l-55 224l-150 -326h-101l217 467l-33 135q-18 79 -58 79q-16 0 -41 -32.5t-43 -32.5q-36 0 -36 39q0 31 31 55t80 24q48 0 78 -35.5t41 -90.5z
" />
    <glyph glyph-name="pi" unicode="&#x3c0;" horiz-adv-x="540" 
d="M167 22q-26 -43 -65 -32q-28 8 -33 34q-5 24 19 43q56 57 80 127t24 183h-31q-35 0 -53 -13t-27 -48l-27 5q15 64 37.5 91t62.5 27h332v-62h-101l-21 -254q-4 -51 32 -51q42 0 65 62l25 -3q-36 -138 -112 -138q-43 0 -63 29t-15 79l27 276h-84q-5 -239 -72 -355z" />
    <glyph glyph-name="Wgrave" unicode="&#x1e80;" horiz-adv-x="1018" 
d="M525 532l-13 1l-150 -533h-57l-187 609l-73 14v40h245v-39l-75 -15l133 -452h17l142 511h62l161 -511h16l125 447l-105 23v36h207v-37l-48 -27l-29 -75l-155 -524h-53zM597 731v-6h-45l-128 127l2 -1v8h86l86 -129z" />
    <glyph glyph-name="wgrave" unicode="&#x1e81;" horiz-adv-x="885" 
d="M462 388h-22q-15 -56 -34 -122t-42 -144.5t-35 -121.5h-57l-162 484q-10 1 -32 5.5t-33 6.5v39h220v-39l-61 -12l105 -327h19q21 71 59 206t50 176h63l121 -382h21l99 325l-85 16v37h184v-36l-41 -21l-24 -59l-68 -210q-10 -34 -33 -104.5t-34 -104.5h-54zM527 608v-7
h-43l-129 163l1 -1v8h85l87 -164z" />
    <glyph glyph-name="Wacute" unicode="&#x1e82;" horiz-adv-x="1018" 
d="M525 532l-13 1l-150 -533h-57l-187 609l-73 14v40h245v-39l-75 -15l133 -452h17l142 511h62l161 -511h16l125 447l-105 23v36h207v-37l-48 -27l-29 -75l-155 -524h-53zM486 725v6l-1 -1l85 129h87v-8l2 1l-129 -127h-44z" />
    <glyph glyph-name="wacute" unicode="&#x1e83;" horiz-adv-x="885" 
d="M462 388h-22q-15 -56 -34 -122t-42 -144.5t-35 -121.5h-57l-162 484q-10 1 -32 5.5t-33 6.5v39h220v-39l-61 -12l105 -327h19q21 71 59 206t50 176h63l121 -382h21l99 325l-85 16v37h184v-36l-41 -21l-24 -59l-68 -210q-10 -34 -33 -104.5t-34 -104.5h-54zM416 601v7
l-1 -1l86 164h86v-8l1 1l-129 -163h-43z" />
    <glyph glyph-name="Wdieresis" unicode="&#x1e84;" horiz-adv-x="1018" 
d="M525 532l-13 1l-150 -533h-57l-187 609l-73 14v40h245v-39l-75 -15l133 -452h17l142 511h62l161 -511h16l125 447l-105 23v36h207v-37l-48 -27l-29 -75l-155 -524h-53zM675 795q0 -19 -15 -34.5t-32 -15.5q-19 0 -33.5 15t-14.5 35t14.5 35.5t33.5 15.5q18 0 32.5 -15.5
t14.5 -35.5zM503 795q0 -20 -14 -35t-33 -15t-34 15.5t-15 34.5q0 20 15 35.5t34 15.5t33 -15.5t14 -35.5z" />
    <glyph glyph-name="wdieresis" unicode="&#x1e85;" horiz-adv-x="885" 
d="M462 388h-22q-15 -56 -34 -122t-42 -144.5t-35 -121.5h-57l-162 484q-10 1 -32 5.5t-33 6.5v39h220v-39l-61 -12l105 -327h19q21 71 59 206t50 176h63l121 -382h21l99 325l-85 16v37h184v-36l-41 -21l-24 -59l-68 -210q-10 -34 -33 -104.5t-34 -104.5h-54zM606 671
q0 -19 -15 -34t-33 -15q-19 0 -33.5 15t-14.5 34q0 20 14.5 35.5t33.5 15.5q18 0 33 -15.5t15 -35.5zM433 671q0 -20 -14 -34.5t-33 -14.5t-33.5 15t-14.5 34q0 20 14.5 35.5t33.5 15.5t33 -15.5t14 -35.5z" />
    <glyph glyph-name="uni1e9e" unicode="&#x1e9e;" horiz-adv-x="806" 
d="M539 -12q-81 0 -151 33q-2 25 -6 75.5t-5 76.5h39q24 -141 122 -141q53 0 84 40.5t31 119.5q0 64 -34 107t-97 42q-50 0 -95 -27l-51 51l194 239l-6 14h-318v-565l82 -17v-36h-257v37l81 18v551q-13 4 -41.5 10.5t-39.5 9.5v37h609l10 -39l-185 -223l9 -14q32 6 51 6
q81 0 131 -53t50 -140q0 -100 -64 -156t-143 -56z" />
    <glyph glyph-name="Ygrave" unicode="&#x1ef2;" horiz-adv-x="685" 
d="M385 352l144 252l-97 23v36h207v-37l-57 -26l-176 -310v-236q14 -2 41.5 -7.5t39.5 -7.5v-39h-257v39l82 15v235l-194 321l-72 14v39h240v-39l-74 -15l154 -257h19zM424 731v-6h-45l-128 127l2 -1v8h86l86 -129z" />
    <glyph glyph-name="ygrave" unicode="&#x1ef3;" horiz-adv-x="604" 
d="M323 291h23l109 191l-79 16v37h182v-37l-49 -20l-147 -249v-178q11 -1 34.5 -6t33.5 -6v-39h-228v39l68 12v176l-162 258l-62 11v39h220v-39l-59 -12zM383 608v-7h-43l-129 163l1 -1v8h85l87 -164z" />
    <glyph glyph-name="uni2011" unicode="&#x2011;" horiz-adv-x="425" 
d="M100 301l59 -3h110l71 3l-14 -80l-56 3h-127l-58 -3z" />
    <glyph glyph-name="endash" unicode="&#x2013;" horiz-adv-x="574" 
d="M91 296h392v-70h-392v70z" />
    <glyph glyph-name="emdash" unicode="&#x2014;" horiz-adv-x="1090" 
d="M140 291h811v-60h-811v60z" />
    <glyph glyph-name="quoteright" unicode="&#x2019;" horiz-adv-x="401" 
d="M135 407l-41 26l83 159q3 22 10 64.5t10 64.5l94 -38q-10 -25 -29.5 -70t-26.5 -61h1z" />
    <glyph glyph-name="quotesinglbase" unicode="&#x201a;" horiz-adv-x="401" 
d="M135 -191l-41 25l83 159q3 21 10 64t10 66l94 -38q-7 -18 -56 -131h1z" />
    <glyph glyph-name="quotedblleft" unicode="&#x201c;" horiz-adv-x="601" 
d="M266 722l41 -26l-84 -158q-3 -21 -10 -64t-10 -66l-93 39q9 22 27.5 65t27.5 65h-1zM467 722l41 -26l-83 -158q-3 -21 -10.5 -64t-10.5 -66l-93 39q9 22 27.5 65t27.5 65h-1z" />
    <glyph glyph-name="quotedblright" unicode="&#x201d;" horiz-adv-x="601" 
d="M336 407l-41 27l83 158q3 22 10 64.5t10 64.5l94 -38q-8 -19 -26.5 -63t-28.5 -68h1zM135 407l-41 27l83 158q3 22 10 64.5t10 64.5l94 -38q-10 -25 -29.5 -70t-26.5 -61h1z" />
    <glyph glyph-name="quotedblbase" unicode="&#x201e;" horiz-adv-x="601" 
d="M336 -191l-41 25l83 159q3 21 10 64t10 66l94 -38q-10 -24 -28.5 -68t-26.5 -63h1zM135 -191l-41 26l83 158q3 21 10 64t10 66l94 -38q-7 -18 -56 -131h1z" />
    <glyph glyph-name="dagger" unicode="&#x2020;" horiz-adv-x="638" 
d="M362 713l-8 -212l169 26v-95l-172 15l-18 -484h-29l-20 484l-169 -17v94l166 -23q-1 35 -4 106t-4 106h89z" />
    <glyph glyph-name="daggerdbl" unicode="&#x2021;" horiz-adv-x="638" 
d="M362 713l-8 -212l169 26v-95l-172 15l-6 -178l178 27v-96l-180 16l-10 -253h-29l-11 254l-178 -19v95l176 -25l-7 179l-169 -17v94l166 -23q-1 35 -4 106t-4 106h89z" />
    <glyph glyph-name="bullet" unicode="&#x2022;" horiz-adv-x="662" 
d="M195 264q0 56 40 96t96 40t96 -40t40 -96t-40 -96t-96 -40t-96 40t-40 96z" />
    <glyph glyph-name="ellipsis" unicode="&#x2026;" horiz-adv-x="1083" 
d="M170 55q0 27 17 45.5t42 18.5q26 0 43.5 -18.5t17.5 -45.5q0 -26 -17.5 -44t-43.5 -18q-25 0 -42 18t-17 44zM482 55q0 27 17 45.5t42 18.5t43 -18.5t18 -45.5q0 -26 -18 -44t-43 -18t-42 18t-17 44zM794 55q0 27 17 45.5t42 18.5t43 -18.5t18 -45.5q0 -26 -18 -44
t-43 -18t-42 18t-17 44z" />
    <glyph glyph-name="perthousand" unicode="&#x2030;" horiz-adv-x="878" 
d="M323 520l-11 -2q-1 -82 -43 -135.5t-97 -53.5q-46 0 -75 35.5t-29 90.5q0 74 45.5 128.5t98.5 54.5q68 0 92 -70q6 -16 26.5 -25.5t45.5 -9.5q52 0 90 33q24 66 50 66q19 0 19 -21q0 -14 -13 -31t-30 -29l-211 -288l-195 -280q-5 3 -9.5 7t-10 8.5t-8.5 6.5l206 275
l165 235q-40 -14 -60 -14q-27 0 -46 19zM567 114q0 74 45.5 128.5t98.5 54.5q44 0 72 -31.5t28 -85.5q0 -86 -43 -139t-95 -53q-47 0 -76.5 35.5t-29.5 90.5zM294 114q0 74 45.5 128.5t98.5 54.5q44 0 71.5 -31.5t27.5 -85.5q0 -86 -42.5 -139t-95.5 -53q-47 0 -76 35.5
t-29 90.5zM229 597q-35 0 -65.5 -54t-30.5 -115q0 -62 48 -62q35 0 64.5 43.5t29.5 121.5q0 31 -13 48.5t-33 17.5zM455 256q-35 0 -66 -54t-31 -115q0 -30 13 -46t33 -16q36 0 66 42.5t30 122.5q0 31 -12.5 48.5t-32.5 17.5zM728 256q-35 0 -65.5 -54t-30.5 -115
q0 -30 13 -46t33 -16q35 0 65.5 42.5t30.5 122.5q0 31 -13 48.5t-33 17.5z" />
    <glyph glyph-name="uni2032" unicode="&#x2032;" horiz-adv-x="310" 
d="M78 377l70 263q15 -5 43 -15.5t43 -15.5l-111 -247z" />
    <glyph glyph-name="uni2033" unicode="&#x2033;" 
d="M77 377l70 263q15 -5 43 -15.5t43 -15.5l-111 -247zM269 377l69 263q14 -5 42.5 -15.5t44.5 -15.5l-112 -247q-6 2 -21.5 7t-22.5 8z" />
    <glyph glyph-name="guilsinglleft" unicode="&#x2039;" horiz-adv-x="465" 
d="M114 239l188 201q6 -5 16.5 -12.5t16.5 -12.5l-129 -178v-15q6 -8 56 -76t74 -103l-34 -30q-35 36 -98.5 105.5t-89.5 97.5v23z" />
    <glyph glyph-name="guilsinglright" unicode="&#x203a;" horiz-adv-x="465" 
d="M163 440l188 -201v-23l-189 -203l-33 30l130 179v15l-129 178q6 4 17 12t16 13z" />
    <glyph glyph-name="uni2042" unicode="&#x2042;" horiz-adv-x="986" 
d="M857 104l-138 44l55 -125q12 -27 -1.5 -44t-36.5 -17q-15 0 -24.5 9t-8.5 27l-8 148q-55 -41 -125 -91q-17 -8 -33 3.5t-16 29.5q0 32 34 40l125 41l-114 94q-13 9 -13 25q0 14 11 25t25 11q18 0 31 -20l82 -121l57 126q8 28 32 28t37 -20t-3 -45l-99 -98l130 2
q20 1 31 -10t11 -27q0 -17 -12 -28t-29 -7zM629 486l-138 44l54 -125q12 -27 -1.5 -44t-35.5 -17q-15 0 -24.5 9t-8.5 27l-8 148q-20 -15 -65.5 -47.5l-59.5 -42.5q-17 -8 -33 3t-16 29q0 32 34 40l125 41l-114 94q-13 9 -13 25q0 14 10.5 25t24.5 11q18 0 31 -20l83 -121
l56 126q8 28 32 28t37.5 -20t-2.5 -45l-99 -98l130 2q20 1 31 -10t11 -27q0 -17 -12 -28t-29 -7zM425 104l-138 44l54 -125q12 -27 -1.5 -44t-35.5 -17q-15 0 -24.5 9t-8.5 27l-8 148l-125 -91q-17 -8 -33 3.5t-16 29.5q0 32 34 40l125 41l-114 94q-13 9 -13 25
q0 14 10.5 25t24.5 11q18 0 31 -20l83 -121l56 126q8 28 32 28t37.5 -20t-3.5 -45l-98 -98l130 2q20 1 31 -10t11 -27q0 -17 -12 -28t-29 -7z" />
    <glyph glyph-name="fraction" unicode="&#x2044;" horiz-adv-x="770" 
d="M138 -35l241 370l223 351q5 -3 16.5 -11t16.5 -11l-235 -349q-19 -31 -101 -166t-128 -207q-30 21 -33 23z" />
    <glyph glyph-name="zero.sups" unicode="&#x2070;" horiz-adv-x="360" 
d="M40 582q0 91 40.5 139t103.5 48q60 0 98 -48.5t38 -138.5q0 -84 -37.5 -127.5t-98.5 -43.5q-63 0 -103.5 43.5t-40.5 127.5zM106 582q0 -145 78 -145q31 0 51 35.5t20 109.5q0 81 -20 120.5t-51 39.5q-34 0 -56 -40.5t-22 -119.5z" />
    <glyph glyph-name="four.sups" unicode="&#x2074;" horiz-adv-x="349" 
d="M191 449v78h-149l-10 22q28 53 81.5 115.5t108.5 109.5l28 -11l-4 -80v-126h63v-29h-63v-78q32 -4 38 -5q8 -2 22 -4v-22h-169v22zM79 559l112 -2v144q-67 -64 -112 -142z" />
    <glyph glyph-name="five.sups" unicode="&#x2075;" horiz-adv-x="312" 
d="M132 411q-38 0 -76 19l-14 6l-12 71h30q12 -36 29 -53q21 -15 39 -15q34 0 60 24t26 76q0 26 -14 42t-38 16q-43 0 -79 -29l-25 7l21 187h100l78 7q-1 -11 -4 -31t-4 -31l-59 3h-81q-3 -21 -8 -48q-6 -28 -7 -50q44 20 74 20q43 0 75 -24t32 -66q0 -50 -30 -76
q-63 -55 -113 -55z" />
    <glyph glyph-name="six.sups" unicode="&#x2076;" horiz-adv-x="331" 
d="M119 711q65 48 147 72l7 -26q-69 -32 -106 -66.5t-59 -90.5q51 31 86 31q37 0 68.5 -25.5t31.5 -73.5q0 -49 -24 -71q-58 -50 -107 -50q-55 0 -89 33t-34 94q0 46 22 94.5t57 78.5zM172 598q-42 0 -73 -34q1 -1 1 -5v-13q0 -47 21 -76t53 -29q28 0 43.5 20t15.5 54
q0 39 -18 61t-43 22z" />
    <glyph glyph-name="seven.sups" unicode="&#x2077;" horiz-adv-x="296" 
d="M270 762l16 -18q-105 -144 -127 -314q-4 -15 -41 -15q-19 0 -27.5 3.5t-5.5 12.5q21 69 47 123.5t44.5 82.5t50.5 69l-6 9h-128q-12 0 -26 -52q0 -1 -1 -3q-7 0 -16.5 -1t-15.5 -1q4 19 10 54.5t9 52.5l69 -3h148z" />
    <glyph glyph-name="eight.sups" unicode="&#x2078;" horiz-adv-x="331" 
d="M40 507q0 36 66 82l-1 6q-49 32 -49 83q0 38 32.5 64.5t75.5 26.5q49 0 80 -22.5t31 -56.5q0 -38 -54 -79v-6q70 -31 70 -89q0 -40 -35 -72.5t-92 -32.5q-50 0 -87 26.5t-37 69.5zM91 506q0 -31 19.5 -49.5t56.5 -18.5q32 0 52 18t20 47t-26 46t-81 32q-41 -33 -41 -75z
M104 692q0 -26 21 -43.5t69 -32.5q29 38 29 75q0 23 -16 37t-42 14q-28 0 -44.5 -15t-16.5 -35z" />
    <glyph glyph-name="nine.sups" unicode="&#x2079;" horiz-adv-x="331" 
d="M56 423l3 2v-1q74 33 107.5 64t53.5 90q-52 -29 -82 -29q-38 0 -69.5 25t-31.5 74t24 69q58 52 107 52q54 0 88.5 -33.5t34.5 -93.5q0 -51 -20.5 -97.5t-58.5 -76.5q-49 -36 -147 -70l-6 26h-1zM160 582q38 0 71 35q-1 0 -1 5v13q0 47 -20.5 75t-52.5 28
q-28 0 -43.5 -19.5t-15.5 -52.5q0 -41 18.5 -62.5t43.5 -21.5z" />
    <glyph glyph-name="Euro" unicode="&#x20ac;" horiz-adv-x="702" 
d="M99 387h58q20 115 92 183t167 68q102 0 188 -62l-30 -124h-20q1 76 -43 110.5t-95 34.5q-64 0 -108 -53t-56 -157h300l-8 -37h-295q-1 -12 -1 -37v-16h284l-8 -37h-274q11 -109 58.5 -168t105.5 -59q119 0 159 125l30 -11q-54 -159 -200 -159q-97 0 -166.5 72t-82.5 200
h-65l10 37h52v15q0 26 1 38h-63z" />
    <glyph glyph-name="uni2117" unicode="&#x2117;" horiz-adv-x="793" 
d="M403 261v26q28 0 44.5 21t16.5 58q0 61 -55 61h-28v-264l47 -7v-28h-154v28l39 7v264l-39 7v29h145q64 0 90 -23.5t26 -68.5q0 -48 -38.5 -79t-93.5 -31zM89 296q0 126 90.5 216.5t217.5 90.5q131 0 219 -89.5t88 -217.5q0 -127 -90.5 -217.5t-216.5 -90.5
q-129 0 -218.5 87t-89.5 221zM148 294q0 -110 70 -183t180 -73t178.5 72.5t68.5 183.5q0 114 -70.5 187.5t-177.5 73.5q-109 0 -179 -74.5t-70 -186.5z" />
    <glyph glyph-name="trademark" unicode="&#x2122;" horiz-adv-x="760" 
d="M580 634h-7l-78 -179h-17l-74 179h-5l-15 -150l33 -6v-23h-92v23l33 6l19 193l-38 6v23h94l62 -165h7l71 165h92v-23l-35 -6l12 -193l31 -6v-23h-118v23l34 6zM100 706h210l14 -74h-20l-32 47h-38v-195l32 -6v-23h-121v23l32 6v195h-37l-32 -47h-21z" />
    <glyph glyph-name="oneseventh" unicode="&#x2150;" horiz-adv-x="770" 
d="M138 -35l241 370l223 351q5 -3 16.5 -11t16.5 -11l-235 -349q-19 -31 -101 -166t-128 -207q-30 21 -33 23zM83 613l-11 28q80 26 113 50l31 -4v-313l44 -5l35 -4v-22h-218v23l77 8v258l-15 -2q-17 -8 -56 -17zM698 325l16 -17q-105 -147 -126 -315q-4 -15 -42 -15
q-18 0 -27 3.5t-6 12.5q21 69 47.5 124.5t44.5 81.5t51 70l-6 9h-129q-12 0 -25 -53v-1q-1 -1 -1 -2q-7 0 -16.5 -1t-15.5 -1q3 17 9 52.5t10 54.5l68 -3h148z" />
    <glyph glyph-name="oneninth" unicode="&#x2151;" horiz-adv-x="770" 
d="M494 -38l-6 26q74 32 107.5 63t53.5 91q-52 -29 -83 -29q-38 0 -69 25t-31 73q0 50 24 70q55 51 107 51q54 0 88 -33t34 -94q0 -50 -20 -97t-58 -77q-49 -36 -147 -69zM138 -35l241 370l223 351q5 -3 16.5 -11t16.5 -11l-235 -349q-19 -31 -101 -166t-128 -207
q-30 21 -33 23zM83 613l-11 28q80 26 113 50l31 -4v-313l44 -5l35 -4v-22h-218v23l77 8v258l-15 -2q-17 -8 -56 -17zM589 145q38 0 71 35q-1 0 -1 5v13q0 48 -20.5 76t-52.5 28q-29 0 -44.5 -19.5t-15.5 -53.5q0 -41 18.5 -62.5t44.5 -21.5z" />
    <glyph glyph-name="onethird" unicode="&#x2153;" horiz-adv-x="770" 
d="M138 -35l241 370l223 351q5 -3 16.5 -11t16.5 -11l-235 -349q-19 -31 -101 -166t-128 -207q-30 21 -33 23zM83 613l-11 28q80 26 113 50l31 -4v-313l44 -5l35 -4v-22h-218v23l77 8v258l-15 -2q-17 -8 -56 -17zM585 1q22 0 39.5 17t17.5 48q0 37 -26.5 57.5t-51.5 17.5
l-41 -5q-1 5 -4 14t-4 13q46 8 81 31t35 49q0 50 -57 50q-30 0 -50 -15q-12 -18 -12 -41h-33q2 12 7 32.5t7 30.5q18 13 47.5 22.5t46.5 9.5q47 0 75.5 -20t28.5 -49q0 -47 -78 -92q5 0 9 1l2 -3q34 -9 57 -33.5t23 -57.5q0 -44 -38.5 -73.5t-89.5 -29.5q-56 0 -100 24
q-3 13 -10 37.5t-10 36.5h29q17 -36 39 -57q26 -15 61 -15z" />
    <glyph glyph-name="twothirds" unicode="&#x2154;" horiz-adv-x="770" 
d="M139 -35l241 370l223 351q5 -3 16.5 -11t16.5 -11l-235 -349q-19 -31 -101 -166t-128 -207q-30 21 -33 23zM145 651q-34 0 -53 -21q-13 -20 -13 -44h-36l15 69l-2 -1q17 16 47.5 27.5t47.5 11.5q49 0 83.5 -28.5t34.5 -72.5q0 -36 -49.5 -91.5t-122.5 -112.5q0 -3 4 -7
l94 6q60 4 83 5v-52l-240 3l-7 24l-2 -1q98 87 137 134.5t39 85.5q0 29 -18.5 47t-41.5 18zM586 1q22 0 39.5 17t17.5 48q0 37 -26.5 57.5t-51.5 17.5l-41 -5q-1 5 -4 14t-4 13q46 8 81 31t35 49q0 50 -57 50q-30 0 -50 -15q-12 -18 -12 -41h-33q2 12 7 32.5t7 30.5
q18 13 47.5 22.5t46.5 9.5q47 0 75.5 -20t28.5 -49q0 -47 -78 -92q5 0 9 1l2 -3q34 -9 57 -33.5t23 -57.5q0 -44 -38.5 -73.5t-89.5 -29.5q-56 0 -100 24q-3 13 -10 37.5t-10 36.5h29q17 -36 39 -57q26 -15 61 -15z" />
    <glyph glyph-name="onefifth" unicode="&#x2155;" horiz-adv-x="770" 
d="M138 -35l241 370l223 351q5 -3 16.5 -11t16.5 -11l-235 -349q-19 -31 -101 -166t-128 -207q-30 21 -33 23zM83 613l-11 28q80 26 113 50l31 -4v-313l44 -5l35 -4v-22h-218v23l77 8v258l-15 -2q-17 -8 -56 -17zM560 -25q-39 0 -75 18l-14 6l-12 71h30q12 -36 28 -53
q21 -15 39 -15q35 0 61 24t26 77q0 26 -14 41.5t-38 15.5q-43 0 -80 -28l-24 7l21 186h100l77 7q-1 -10 -4 -30.5t-4 -30.5l-58 3h-82q-3 -24 -8 -49q-6 -28 -7 -50q44 20 75 20q43 0 74.5 -24t31.5 -65q0 -51 -29 -77q-62 -54 -114 -54z" />
    <glyph glyph-name="twofifths" unicode="&#x2156;" horiz-adv-x="770" 
d="M139 -35l241 370l223 351q5 -3 16.5 -11t16.5 -11l-235 -349q-19 -31 -101 -166t-128 -207q-30 21 -33 23zM145 651q-34 0 -53 -21q-13 -20 -13 -44h-36l15 69l-2 -1q17 16 47.5 27.5t47.5 11.5q49 0 83.5 -28.5t34.5 -72.5q0 -36 -49.5 -91.5t-122.5 -112.5q0 -3 4 -7
l94 6q60 4 83 5v-52l-240 3l-7 24l-2 -1q98 87 137 134.5t39 85.5q0 29 -18.5 47t-41.5 18zM561 -25q-39 0 -75 18l-14 6l-12 71h30q12 -36 28 -53q21 -15 39 -15q35 0 61 24t26 77q0 26 -14 41.5t-38 15.5q-43 0 -80 -28l-24 7l21 186h100l77 7q-1 -10 -4 -30.5t-4 -30.5
l-58 3h-82q-3 -24 -8 -49q-6 -28 -7 -50q44 20 75 20q43 0 74.5 -24t31.5 -65q0 -51 -29 -77q-62 -54 -114 -54z" />
    <glyph glyph-name="threefifths" unicode="&#x2157;" horiz-adv-x="770" 
d="M138 -35l241 370l223 351q5 -3 16.5 -11t16.5 -11l-235 -349q-19 -31 -101 -166t-128 -207q-30 21 -33 23zM178 362q22 0 39.5 17t17.5 49q0 36 -26.5 56.5t-50.5 17.5l-41 -5q-1 5 -4 14t-4 13q46 8 80.5 31t34.5 50q0 49 -56 49q-30 0 -50 -15q-12 -18 -12 -40h-34
q2 11 7.5 31t7.5 31q17 13 46.5 22.5t46.5 9.5q48 0 76.5 -20t28.5 -49q0 -25 -24 -49.5t-55 -42.5q5 0 9 1l2 -3q34 -9 57.5 -33.5t23.5 -56.5q0 -45 -39 -74.5t-89 -29.5q-55 0 -101 24q-3 12 -10 36.5t-10 38.5h29q18 -38 40 -58q26 -15 60 -15zM560 -25q-39 0 -75 18
l-14 6l-12 71h30q12 -36 28 -53q21 -15 39 -15q35 0 61 24t26 77q0 26 -14 41.5t-38 15.5q-43 0 -80 -28l-24 7l21 186h100l77 7q-1 -10 -4 -30.5t-4 -30.5l-58 3h-82q-3 -24 -8 -49q-6 -28 -7 -50q44 20 75 20q43 0 74.5 -24t31.5 -65q0 -51 -29 -77q-62 -54 -114 -54z" />
    <glyph glyph-name="fourfifths" unicode="&#x2158;" horiz-adv-x="770" 
d="M158 373v79h-149l-10 22q29 54 83 116.5t107 107.5l27 -11l-3 -79v-126h63v-29h-63v-79q33 -4 38 -5q8 -2 22 -4v-22h-169v22zM560 -25q-39 0 -75 18l-14 6l-12 71h30q12 -36 28 -53q21 -15 39 -15q35 0 61 24t26 77q0 26 -14 41.5t-38 15.5q-43 0 -80 -28l-24 7l21 186
h100l77 7q-1 -10 -4 -30.5t-4 -30.5l-58 3h-82q-3 -24 -8 -49q-6 -28 -7 -50q44 20 75 20q43 0 74.5 -24t31.5 -65q0 -51 -29 -77q-62 -54 -114 -54zM138 -35l241 370l223 351q5 -3 16.5 -11t16.5 -11l-235 -349q-19 -31 -101 -166t-128 -207q-30 21 -33 23zM46 484l112 -2
v144q-68 -65 -112 -142z" />
    <glyph glyph-name="onesixth" unicode="&#x2159;" horiz-adv-x="770" 
d="M527 275q61 46 147 71l7 -26q-69 -31 -106 -66t-59 -91q51 31 87 31q37 0 68 -25t31 -73q0 -50 -24 -72q-55 -49 -107 -49q-55 0 -88.5 32.5t-33.5 94.5q0 45 22 93.5t56 79.5zM138 -35l241 370l223 351q5 -3 16.5 -11t16.5 -11l-235 -349q-19 -31 -101 -166t-128 -207
q-30 21 -33 23zM83 613l-11 28q80 26 113 50l31 -4v-313l44 -5l35 -4v-22h-218v23l77 8v258l-15 -2q-17 -8 -56 -17zM581 161q-43 0 -74 -33q1 -1 1 -5v-13q0 -48 21 -77t54 -29q28 0 43.5 20t15.5 54q0 40 -18 61.5t-43 21.5z" />
    <glyph glyph-name="fivesixths" unicode="&#x215a;" horiz-adv-x="770" 
d="M527 275q61 46 147 71l7 -26q-69 -31 -106 -66t-59 -91q51 31 87 31q37 0 68 -25t31 -73q0 -50 -24 -72q-55 -49 -107 -49q-55 0 -88.5 32.5t-33.5 94.5q0 45 22 93.5t56 79.5zM156 336q-38 0 -76 18l-14 6l-12 72h31q12 -37 28 -54q21 -15 39 -15q34 0 60 24t26 77
q0 26 -14 41.5t-38 15.5q-42 0 -79 -28l-24 7l21 186h99l78 7q-1 -11 -4 -31t-4 -30l-59 3h-81q-3 -21 -8 -48q-6 -30 -7 -51q44 20 74 20q43 0 75 -24t32 -65q0 -51 -29 -77q-64 -54 -114 -54zM138 -35l241 370l223 351q5 -3 16.5 -11t16.5 -11l-235 -349
q-19 -31 -101 -166t-128 -207q-30 21 -33 23zM581 161q-43 0 -74 -33q1 -1 1 -5v-13q0 -48 21 -77t54 -29q28 0 43.5 20t15.5 54q0 40 -18 61.5t-43 21.5z" />
    <glyph glyph-name="oneeighth" unicode="&#x215b;" horiz-adv-x="770" 
d="M138 -35l241 370l223 351q5 -3 16.5 -11t16.5 -11l-235 -349q-19 -31 -101 -166t-128 -207q-30 21 -33 23zM83 613l-11 28q80 26 113 50l31 -4v-313l44 -5l35 -4v-22h-218v23l77 8v258l-15 -2q-17 -8 -56 -17zM469 70q0 37 65 82l-1 6q-48 32 -48 83q0 38 32 64.5
t76 26.5q49 0 79.5 -22t30.5 -56q0 -38 -53 -80v-6q69 -31 69 -89q0 -40 -34.5 -72t-91.5 -32q-51 0 -87.5 26t-36.5 69zM519 69q0 -31 20 -49.5t57 -18.5q32 0 52 18t20 47q0 30 -26.5 47t-81.5 31q-41 -31 -41 -75zM532 256q0 -27 21 -44.5t70 -32.5q29 38 29 76
q0 23 -16 37t-42 14q-29 0 -45.5 -15t-16.5 -35z" />
    <glyph glyph-name="threeeighths" unicode="&#x215c;" horiz-adv-x="770" 
d="M138 -35l241 370l223 351q5 -3 16.5 -11t16.5 -11l-235 -349q-19 -31 -101 -166t-128 -207q-30 21 -33 23zM178 362q22 0 39.5 17t17.5 49q0 36 -26.5 56.5t-50.5 17.5l-41 -5q-1 5 -4 14t-4 13q46 8 80.5 31t34.5 50q0 49 -56 49q-30 0 -50 -15q-12 -18 -12 -40h-34
q2 11 7.5 31t7.5 31q17 13 46.5 22.5t46.5 9.5q48 0 76.5 -20t28.5 -49q0 -25 -24 -49.5t-55 -42.5q5 0 9 1l2 -3q34 -9 57.5 -33.5t23.5 -56.5q0 -45 -39 -74.5t-89 -29.5q-55 0 -101 24q-3 12 -10 36.5t-10 38.5h29q18 -38 40 -58q26 -15 60 -15zM469 70q0 37 65 82l-1 6
q-48 32 -48 83q0 38 32 64.5t76 26.5q49 0 79.5 -22t30.5 -56q0 -38 -53 -80v-6q69 -31 69 -89q0 -40 -34.5 -72t-91.5 -32q-51 0 -87.5 26t-36.5 69zM519 69q0 -31 20 -49.5t57 -18.5q32 0 52 18t20 47q0 30 -26.5 47t-81.5 31q-41 -31 -41 -75zM532 256q0 -27 21 -44.5
t70 -32.5q29 38 29 76q0 23 -16 37t-42 14q-29 0 -45.5 -15t-16.5 -35z" />
    <glyph glyph-name="fiveeighths" unicode="&#x215d;" horiz-adv-x="770" 
d="M138 -35l241 370l223 351q5 -3 16.5 -11t16.5 -11l-235 -349q-19 -31 -101 -166t-128 -207q-30 21 -33 23zM156 336q-38 0 -76 18l-14 6l-12 72h31q12 -37 28 -54q21 -15 39 -15q34 0 60 24t26 77q0 26 -14 41.5t-38 15.5q-42 0 -79 -28l-24 7l21 186h99l78 7
q-1 -11 -4 -31t-4 -30l-59 3h-81q-3 -21 -8 -48q-6 -30 -7 -51q44 20 74 20q43 0 75 -24t32 -65q0 -51 -29 -77q-64 -54 -114 -54zM469 70q0 37 65 82l-1 6q-48 32 -48 83q0 38 32 64.5t76 26.5q49 0 79.5 -22t30.5 -56q0 -38 -53 -80v-6q69 -31 69 -89q0 -40 -34.5 -72
t-91.5 -32q-51 0 -87.5 26t-36.5 69zM519 69q0 -31 20 -49.5t57 -18.5q32 0 52 18t20 47q0 30 -26.5 47t-81.5 31q-41 -31 -41 -75zM532 256q0 -27 21 -44.5t70 -32.5q29 38 29 76q0 23 -16 37t-42 14q-29 0 -45.5 -15t-16.5 -35z" />
    <glyph glyph-name="seveneighths" unicode="&#x215e;" horiz-adv-x="770" 
d="M137 -35l241 370l223 351q5 -3 16.5 -11t16.5 -11l-235 -349q-19 -31 -101 -166t-128 -207q-30 21 -33 23zM323 686l16 -17q-106 -148 -127 -315q-4 -15 -41 -15q-18 0 -27 3.5t-6 12.5q21 69 47 124t45 82.5t51 69.5l-6 9h-129q-11 0 -25 -52l-1 -1v-2q-7 0 -16.5 -1
t-15.5 -1q4 18 10 53t9 53l68 -3h148zM468 70q0 37 65 82l-1 6q-48 32 -48 83q0 38 32 64.5t76 26.5q49 0 79.5 -22t30.5 -56q0 -38 -53 -80v-6q69 -31 69 -89q0 -40 -34.5 -72t-91.5 -32q-51 0 -87.5 26t-36.5 69zM518 69q0 -31 20 -49.5t57 -18.5q32 0 52 18t20 47
q0 30 -26.5 47t-81.5 31q-41 -31 -41 -75zM531 256q0 -27 21 -44.5t70 -32.5q29 38 29 76q0 23 -16 37t-42 14q-29 0 -45.5 -15t-16.5 -35z" />
    <glyph glyph-name="uni2191" unicode="&#x2191;" horiz-adv-x="700" 
d="M357 605l264 -237l-46 -61l-183 163v-420h-84v420l-183 -163l-47 61l266 237h13z" />
    <glyph glyph-name="uni2193" unicode="&#x2193;" horiz-adv-x="700" 
d="M621 287l-264 -237h-13l-266 237l47 61l183 -163v420h84v-420l183 163z" />
    <glyph glyph-name="partialdiff" unicode="&#x2202;" horiz-adv-x="540" 
d="M283 594q-84 0 -109 -130h-40l12 113q20 25 62 43t86 18q94 0 143 -78t49 -201q0 -179 -71 -275t-190 -96q-71 0 -121 48t-50 134q0 105 66 167t146 62q39 0 75 -18t53 -51l5 3v39q0 113 -27.5 167.5t-88.5 54.5zM381 270q-10 33 -37 55t-58 22q-55 0 -92.5 -48.5
t-37.5 -129.5q0 -60 21.5 -94.5t62.5 -34.5q57 0 99 63t42 167z" />
    <glyph glyph-name="product" unicode="&#x220f;" horiz-adv-x="540" 
d="M2 626h536v-40l-78 -15v-516l78 -15v-40h-252v40l78 15v516h-188v-516l78 -15v-40h-252v40l78 15v516l-78 15v40z" />
    <glyph glyph-name="summation" unicode="&#x2211;" horiz-adv-x="540" 
d="M146 89l5 -10h250l86 111h41l-50 -190h-465l-8 15l262 270v12l-242 317l8 12h441l26 -171h-36l-89 131h-210l-5 -7l198 -256v-16z" />
    <glyph glyph-name="minus" unicode="&#x2212;" horiz-adv-x="620" 
d="M570 230h-520v60h520v-60z" />
    <glyph glyph-name="radical" unicode="&#x221a;" horiz-adv-x="540" 
d="M317 61h13l152 695l49 -10l-184 -883h-37l-195 526l-98 -35l-16 37l175 59z" />
    <glyph glyph-name="infinity" unicode="&#x221e;" horiz-adv-x="540" 
d="M127 149q-60 0 -92 38.5t-32 88.5q0 54 36.5 92.5t87.5 38.5q74 0 141 -92q33 43 66.5 67.5t77.5 24.5q61 0 92.5 -38t31.5 -89q0 -54 -36.5 -92.5t-87.5 -38.5q-75 0 -141 91q-70 -91 -144 -91zM144 357q-33 0 -54 -22t-21 -59q0 -36 20.5 -57.5t50.5 -21.5q18 0 37 13
t31.5 28t33.5 43q-27 37 -49.5 56.5t-48.5 19.5zM395 199q33 0 54 22t21 59q0 35 -21 57t-50 22q-18 0 -37 -13.5t-31.5 -28t-33.5 -43.5q26 -37 48.5 -56t49.5 -19z" />
    <glyph glyph-name="integral" unicode="&#x222b;" horiz-adv-x="540" 
d="M303 497l12 -487q2 -94 -48 -154t-127 -60q-31 0 -53 17t-22 49q0 21 12.5 37.5t36.5 16.5q50 0 57 -64l26 -7q19 18 31 63.5t10 91.5l-12 487q-2 95 47.5 154t125.5 59q32 0 54.5 -16.5t22.5 -48.5q0 -21 -13 -37.5t-37 -16.5q-49 0 -56 64l-26 7q-44 -41 -41 -155z" />
    <glyph glyph-name="approxequal" unicode="&#x2248;" horiz-adv-x="540" 
d="M429 388l53 -22q-16 -49 -48.5 -82.5t-82.5 -33.5q-35 0 -89.5 36t-79.5 36q-24 0 -43 -10.5t-26.5 -20.5t-20.5 -31l-44 32q17 33 53.5 61t80.5 28q34 0 89 -35t81 -35q28 0 49.5 23t27.5 54zM445 229l47 -23q-14 -40 -51 -68t-78 -28q-43 0 -100.5 35.5t-80.5 35.5
q-39 0 -72 -64l-46 30q52 93 118 93q32 0 90 -35t91 -35q30 0 51.5 17t30.5 42z" />
    <glyph glyph-name="notequal" unicode="&#x2260;" horiz-adv-x="620" 
d="M482 491l-65 -121h153v-60h-185l-64 -120h249v-60h-281l-86 -160l-56 27l71 133h-168v60h200l64 120h-264v60h296l80 148z" />
    <glyph glyph-name="lessequal" unicode="&#x2264;" horiz-adv-x="620" 
d="M570 0h-520v60h520v-60zM570 545l-454 -179l454 -179v-57l-520 205v62l520 205v-57z" />
    <glyph glyph-name="greaterequal" unicode="&#x2265;" horiz-adv-x="620" 
d="M570 0h-520v60h520v-60zM504 366l-454 179v57l520 -205v-62l-520 -205v57z" />
    <glyph glyph-name="lozenge" unicode="&#x25ca;" horiz-adv-x="540" 
d="M269 -98l-245 373l245 375l246 -375zM108 275l161 -246l162 246l-162 248z" />
    <glyph glyph-name="uni2605" unicode="&#x2605;" horiz-adv-x="570" 
d="M127 -8l-4 3l66 186l-166 118l2 5l201 -7l57 193h6l58 -193l199 5l1 -4l-163 -117l66 -188l-3 -1l-161 118z" />
    <glyph glyph-name="commaaccent" unicode="&#xf6c3;" 
d="M219 -242l-32 11l43 88l20 83q14 -4 36.5 -10t26.5 -7l-37 -82h1z" />
    <glyph glyph-name="apple" unicode="&#xf8ff;" horiz-adv-x="540" 
d="M209 720h11l32 -121l-3 -82l68 -8l64 99l8 99h12l7 -99l-17 -129l36 -85l35 -38l1 -6l-7 -8v-18l8 -4l-1 -9l-17 -36l-36 7l-11 101l-34 56l-13 -2l26 -60l4 -99l-37 -46l3 -22l26 -37l7 -71l-64 -23l-33 16l-35 57l-75 25l-28 47l-3 42l-30 41l-2 58l4 27l-11 44z
M487 244l6 -9l-3 -37l-12 -17l-5 -33l23 -8l-3 -10l-23 7l-43 -26l-5 10l39 23l5 36l-36 14l-13 31l-1 10l14 15l24 4zM270 305l36 -14l11 13l-3 14l-11 10l-30 -10zM327 64l3 -4l-7 -21l-40 -43l-68 -23l-97 14l-55 48l-18 62l34 95l11 -1l-9 -71l22 -41l37 -33l88 -16
l48 3zM142 438l9 -9l33 34l11 76h-18z" />
    <glyph glyph-name="zero.tnum" horiz-adv-x="600" 
d="M66 298q0 168 67.5 254.5t173.5 86.5q102 0 165.5 -87.5t63.5 -253.5q0 -152 -63.5 -231.5t-165.5 -79.5q-107 0 -174 79t-67 232zM160 299q0 -139 41 -203.5t106 -64.5q61 0 98 65t37 203q0 151 -37.5 223.5t-97.5 72.5q-63 0 -105 -75.5t-42 -220.5z" />
    <glyph glyph-name="one.tnum" horiz-adv-x="600" 
d="M131 498l-15 49q148 45 200 88q7 -1 21.5 -3t20.5 -2v-576q24 -3 73 -7.5t72 -6.5v-40h-378v40l141 14v488l-42 -15q-60 -22 -93 -29z" />
    <glyph glyph-name="two.tnum" horiz-adv-x="600" 
d="M265 566q-69 0 -105 -40q-25 -44 -25 -82h-45l26 130l-2 -1q30 26 82 46t80 20q88 0 147 -52t59 -133q0 -64 -92.5 -167.5t-222.5 -202.5l9 -18q294 19 322 21v-92q-70 1 -208 3t-209 2l-13 46q175 154 246 241.5t71 155.5q0 54 -37 88.5t-83 34.5z" />
    <glyph glyph-name="three.tnum" horiz-adv-x="600" 
d="M301 32q44 0 80.5 32.5t36.5 89.5q0 66 -53.5 105t-99.5 34l-66 -10l-14 47q84 14 147.5 56.5t63.5 91.5q0 93 -113 93q-64 0 -101 -33q-21 -29 -23 -68h-41q4 19 13 57t13 56q31 22 82.5 39t78.5 17q83 0 133 -36t50 -90q0 -47 -38.5 -88.5t-90.5 -70.5v-11
q62 -12 107.5 -60t45.5 -108q0 -81 -68 -134.5t-157 -53.5q-98 0 -178 43l3 -1l-35 135h33q27 -56 77 -104q56 -28 114 -28z" />
    <glyph glyph-name="four.tnum" horiz-adv-x="600" 
d="M347 55v145h-276l-17 36q59 103 156 220t186 190l38 -15l-5 -147v-234h114v-48h-114v-147l107 -16v-39h-287v40zM347 505l-19 9q-120 -112 -201 -252l8 -12h212v255z" />
    <glyph glyph-name="five.tnum" horiz-adv-x="600" 
d="M262 -13q-62 0 -130 31l-25 11l-21 130h34q21 -60 55 -96q43 -29 80 -29q67 0 118 45t51 141q0 49 -29 78t-78 29q-84 0 -147 -50l-34 9q7 57 21 170.5t20 170.5h174l129 10q-2 -22 -8 -59.5t-7 -45.5l-96 5h-159l-22 -178l17 -7q20 12 59.5 24t62.5 12q75 0 130.5 -43.5
t55.5 -119.5q0 -95 -49 -138q-106 -100 -202 -100z" />
    <glyph glyph-name="six.tnum" horiz-adv-x="600" 
d="M184 337l9 -10q93 60 155 60q65 0 119 -46t54 -134q0 -93 -40 -127q-103 -93 -189 -93q-95 0 -155 60t-60 171q0 92 37 178t104 139q108 83 254 125l10 -39q-138 -63 -199.5 -120t-98.5 -164zM307 330q-83 0 -139 -63q-2 -24 -2 -35q0 -87 41.5 -141t104.5 -54
q57 0 88.5 38t31.5 100q0 75 -37 115t-88 40z" />
    <glyph glyph-name="seven.tnum" horiz-adv-x="600" 
d="M515 627l25 -30q-103 -144 -160.5 -280.5t-74.5 -298.5q-2 -25 -64 -25q-27 0 -40.5 5.5t-9.5 19.5q40 131 88.5 233.5t81 151.5t91.5 126l-10 16l-246 1q-33 0 -56 -96l-2 -11h-42l39 193l114 -5h266z" />
    <glyph glyph-name="eight.tnum" horiz-adv-x="600" 
d="M81 160q0 67 120 150v11q-91 55 -91 153q0 69 56 117t132 48q86 0 139 -39.5t53 -102.5q0 -36 -27.5 -75t-68.5 -71v-9q64 -29 94.5 -66t30.5 -98q0 -74 -60.5 -132.5t-160.5 -58.5q-89 0 -153 47.5t-64 125.5zM153 159q0 -57 39.5 -92t110.5 -35q65 0 104.5 34t39.5 88
q0 53 -52.5 85t-159.5 61q-82 -59 -82 -141zM177 501q0 -51 40 -81.5t142 -61.5q58 65 58 141q0 44 -32 69.5t-86 25.5q-57 0 -89.5 -27.5t-32.5 -65.5z" />
    <glyph glyph-name="nine.tnum" horiz-adv-x="600" 
d="M411 290l-9 9q-92 -59 -154 -59q-41 0 -78.5 17t-66 59.5t-28.5 103.5q0 92 40 126q105 93 189 93q95 0 155 -60t60 -170q0 -92 -37 -178.5t-103 -138.5q-109 -82 -254 -125q-2 8 -6 20.5t-5 19.5q139 63 200 119.5t97 163.5zM289 297q84 0 138 64q2 24 2 35
q0 87 -41.5 139.5t-104.5 52.5q-56 0 -87.5 -37t-31.5 -100q0 -74 37.5 -114t87.5 -40z" />
    <glyph glyph-name="exclamdown.case" horiz-adv-x="423" 
d="M272 614q0 -27 -17 -45.5t-42 -18.5q-26 0 -43.5 18.5t-17.5 45.5q0 26 17.5 44t43.5 18q25 0 42 -18t17 -44zM175 -31l-17 8l39 485q7 1 16 3t15 2q6 -86 20 -264t15 -192z" />
    <glyph glyph-name="questiondown.case" horiz-adv-x="533" 
d="M349 614q0 -27 -17.5 -45.5t-42.5 -18.5t-42.5 18.5t-17.5 45.5q0 26 17.5 44t42.5 18t42.5 -18t17.5 -44zM245 418v20l34 31q82 -13 82 -67q0 -23 -16.5 -49.5t-34 -43.5t-49.5 -45q-30 -26 -46.5 -42t-31.5 -38.5t-15 -40.5q0 -37 43.5 -64t84.5 -27q25 0 44 10l28 66
l38 -17q-11 -60 -36 -107q-19 -36 -60 -36q-81 0 -150 43t-69 109q0 27 19.5 57t40.5 50.5t56 49.5q29 26 42 38t26.5 30t13.5 31q0 16 -10.5 25.5t-33.5 16.5z" />
    <glyph glyph-name="hyphen.case" horiz-adv-x="425" 
d="M100 352l59 -3h110l72 3l-15 -80l-56 3h-127l-58 -3z" />
    <glyph glyph-name="endash.case" horiz-adv-x="574" 
d="M91 347h393v-70h-393v70z" />
    <glyph glyph-name="emdash.case" horiz-adv-x="1090" 
d="M139 342h812v-60h-812v60z" />
    <glyph glyph-name="guilsinglleft.case" horiz-adv-x="465" 
d="M114 330l188 201q7 -6 18 -13.5t16 -11.5l-129 -178v-15q24 -34 72.5 -100.5t57.5 -78.5l-35 -30q-31 33 -94 101.5t-94 101.5v23z" />
    <glyph glyph-name="guilsinglright.case" horiz-adv-x="465" 
d="M163 531l189 -201v-23l-190 -203l-33 30l130 179v15l-129 178q6 5 17 13t16 12z" />
    <glyph glyph-name="guillemotleft.case" horiz-adv-x="672" 
d="M113 330l188 201q7 -6 18 -13.5t16 -11.5l-129 -178v-15q24 -34 72.5 -100.5t57.5 -78.5l-35 -30q-31 33 -94 101.5t-94 101.5v23zM321 330l189 201q6 -5 16.5 -12.5t16.5 -12.5l-129 -178v-15q21 -29 65 -89.5t65 -89.5l-34 -30q-32 33 -94.5 101.5t-94.5 101.5v23z" />
    <glyph glyph-name="guillemotright.case" horiz-adv-x="672" 
d="M371 531l188 -201v-23l-189 -203l-33 30l130 179v15l-129 178q6 5 17 13t16 12zM162 531l189 -201v-23l-190 -203l-33 30l130 179v15l-129 178q6 5 17 13t16 12z" />
    <glyph glyph-name="zero.onum" horiz-adv-x="651" 
d="M79 241q0 109 71 181.5t177 72.5q48 0 90.5 -14t78 -43t56.5 -79.5t21 -117.5q0 -116 -75.5 -185t-175.5 -69q-108 0 -175.5 71.5t-67.5 182.5zM167 241q0 -100 45.5 -153t109.5 -53q72 0 117.5 52t45.5 154q0 99 -43.5 152t-119.5 53q-69 0 -112 -53t-43 -152z" />
    <glyph glyph-name="one.onum" horiz-adv-x="475" 
d="M271 494l27 -11v-424q20 -3 60 -10.5t58 -10.5v-38h-318v38l119 21v353q-80 -28 -137 -36l-13 53q139 27 204 65z" />
    <glyph glyph-name="two.onum" horiz-adv-x="547" 
d="M86 0l-19 52q64 45 99 71.5t84 69t72.5 78t23.5 66.5q0 39 -25 60t-68 21q-36 0 -78.5 -20t-73.5 -51l-24 26q41 50 95 86t107 36q72 0 113.5 -37.5t41.5 -96.5q0 -32 -15.5 -63.5t-49 -63.5t-56.5 -50t-65 -49l-64 -48l8 -17q46 3 138 10t138 10l-5 -90h-377z" />
    <glyph glyph-name="three.onum" horiz-adv-x="492" 
d="M98 368l-27 24l72 78l-2 -1q45 26 88 26q62 0 102 -36.5t40 -89.5q0 -79 -75 -125l5 -12q58 1 90 -30.5t32 -84.5q0 -60 -40 -120.5t-96 -101.5t-112 -67t-91 -27l-64 74l20 33l80 -32q81 9 149 62.5t68 142.5q0 52 -40 82t-76 13l-64 -34l-21 39l35 23q33 20 48.5 30.5
t35 27.5t27 35.5t7.5 41.5q0 38 -23.5 61.5t-58.5 23.5q-61 0 -109 -56z" />
    <glyph glyph-name="four.onum" horiz-adv-x="608" 
d="M358 -197l-19 21l7 91v124h-269l-17 21l332 434q4 -1 40 -15l-5 -148v-237h40q11 0 35.5 2t36.5 3v-64l-68 5h-44v-112q1 -15 3 -47t2 -46q-13 -6 -37 -16t-37 -16zM346 327l-20 11l-173 -232l8 -12h185v233z" />
    <glyph glyph-name="five.onum" horiz-adv-x="522" 
d="M417 92q0 -61 -38.5 -117.5t-93 -93t-110 -58.5t-92.5 -22l-64 84q3 5 9.5 14t9.5 14l80 -37q37 2 73.5 13t71 31.5t55.5 56.5t21 83q0 39 -25.5 63t-56.5 31.5t-68 7.5q-12 0 -32 -2q-5 4 -16 13t-17 13q2 50 5.5 149.5t5.5 149.5h193l129 10q-2 -19 -7 -53.5t-7 -51.5
l-96 5h-177l-4 -136l17 -15q11 1 37 1q86 0 141.5 -38.5t55.5 -114.5z" />
    <glyph glyph-name="six.onum" horiz-adv-x="602" 
d="M189 337l9 -10q93 60 155 60q65 0 119 -46t54 -134q0 -93 -40 -127q-103 -93 -189 -93q-95 0 -155 60t-60 171q0 92 37 178t104 139q108 83 254 125l10 -39q-138 -63 -199.5 -120t-98.5 -164zM312 330q-83 0 -139 -63q-2 -24 -2 -35q0 -87 41.5 -141t104.5 -54
q57 0 88.5 38t31.5 100q0 75 -37 115t-88 40z" />
    <glyph glyph-name="seven.onum" horiz-adv-x="533" 
d="M71 -188l-14 29q241 357 331 545l-10 17q-50 0 -151.5 0.5t-150.5 0.5l4 86l124 -5h250l26 -30q-210 -391 -331 -644q-14 0 -39 0.5t-39 0.5z" />
    <glyph glyph-name="eight.onum" horiz-adv-x="601" 
d="M82 160q0 68 120 155v11q-91 54 -91 148q0 69 56 117t132 48q86 0 139 -39.5t53 -102.5q0 -23 -16.5 -51t-32 -45.5t-42.5 -44.5v-9q61 -30 90.5 -68t29.5 -101q0 -74 -60.5 -132.5t-160.5 -58.5q-89 0 -153 47.5t-64 125.5zM154 159q0 -57 39.5 -92t110.5 -35
q65 0 104.5 34t39.5 88q0 55 -52.5 88t-159.5 63q-82 -61 -82 -146zM178 501q0 -50 40 -79.5t142 -58.5q58 62 58 136q0 44 -32 69.5t-86 25.5q-57 0 -89.5 -27.5t-32.5 -65.5z" />
    <glyph glyph-name="nine.onum" horiz-adv-x="590" 
d="M405 146l-9 9q-92 -59 -154 -59q-41 0 -78.5 17t-66 59.5t-28.5 103.5q0 92 40 126q105 93 189 93q95 0 155 -60t60 -170q0 -93 -36.5 -179t-103.5 -138q-117 -103 -289 -161q-2 9 -6 22t-5 19q154 67 222.5 131t109.5 187zM283 153q84 0 138 64q2 24 2 35
q0 87 -41.5 139.5t-104.5 52.5q-56 0 -87.5 -37t-31.5 -100q0 -74 37.5 -114t87.5 -40z" />
    <glyph glyph-name="acute.case" 
d="M194 502v6l-1 -1l86 129h87v-8l2 1l-129 -127h-45z" />
    <glyph glyph-name="grave.case" 
d="M306 508v-6h-44l-129 127l2 -1v8h87l85 -129z" />
    <glyph glyph-name="circumflex.case" 
d="M392 508v-6h-38l-103 71l-103 -71h-38v6l-1 -1l121 129h42z" />
    <glyph glyph-name="breve.case" 
d="M250 502q-49 0 -82 32t-34 97h30q1 -30 25 -52t61 -22q34 0 59.5 21t26.5 53h30q-1 -64 -34.5 -96.5t-81.5 -32.5z" />
    <glyph glyph-name="caron.case" 
d="M391 636v-6l-120 -128h-42l-120 128v6h38l103 -72l103 72h38z" />
    <glyph glyph-name="hungarumlaut.case" 
d="M280 512v6l-1 -1l86 129h86v-8l2 1l-139 -127h-34zM139 512v6l-1 -1l86 129h86v-8l2 1l-139 -127h-34z" />
    <glyph glyph-name="dollar.onum" horiz-adv-x="501" 
d="M89 18l-11 135h43q10 -64 38.5 -90.5t78.5 -28.5v182q-152 49 -152 148q0 59 44.5 93.5t107.5 40.5v78h33v-78q55 -2 124 -21q1 -21 3 -61.5t2 -60.5h-34q-20 89 -95 102v-174q72 -25 114 -58t42 -88q0 -53 -41.5 -95.5t-114.5 -49.5v-84h-33v83q-99 3 -149 27zM351 121
q0 48 -80 84v-169q37 8 58.5 30.5t21.5 54.5zM163 374q0 -43 75 -78v161q-75 -13 -75 -83z" />
    <glyph glyph-name="cent.onum" horiz-adv-x="406" 
d="M318 160l20 -24q-46 -41 -110 -54v-82h-34v80q-60 6 -98 50t-38 103q0 79 39 115q39 35 97 56v84h34v-76q58 0 90 -13q0 -16 1 -48.5t1 -49.5h-31q-3 33 -11 50q-25 12 -50 17v-239h12q37 0 78 31zM123 266q0 -96 71 -129v229q-71 -23 -71 -100z" />
    <glyph glyph-name="sterling.onum" horiz-adv-x="502" 
d="M80 260h72v71q0 83 88 134q61 33 103 33q36 0 76 -15v-114h-29q-9 45 -29 64t-53 19q-28 0 -51.5 -23t-23.5 -79v-90h109v-34h-109q-3 -87 -81 -157l2 -5q52 -3 172 -3q39 0 54 13t19 56h29q-1 -21 -4 -66t-4 -66q-22 -7 -59 -7q-32 0 -93 13l-13 3q-1 0 -4 1t-4 1
q-41 10 -108 18q-19 -36 -52 -36q-26 0 -26 22q0 16 16 31.5t38 24.5q37 40 37 98v59h-72v34z" />
    <glyph glyph-name="yen.onum" horiz-adv-x="507" 
d="M273 245l111 193l-81 19v30h180v-30l-49 -22l-63 -110l-77 -132h111v-32h-109v-38h109v-32h-109v-46l67 -11v-34h-221v34l68 11v46h-107v32h107v38h-107v32h108l-138 250l-26 5q-2 0 -22 6v33h193v-33l-60 -12q34 -68 52 -99l51 -98h12z" />
    <glyph glyph-name="Euro.onum" horiz-adv-x="590" 
d="M79 303h49q18 89 79 142t141 53q88 0 160 -50q-4 -17 -13 -49.5t-13 -48.5h-22q2 60 -34 86.5t-78 26.5q-51 0 -87.5 -40.5t-46.5 -119.5h252q-3 -8 -8 -32h-247v-38h238q-1 -5 -4 -15.5t-4 -15.5h-228q10 -84 48 -128.5t85 -44.5q96 0 131 96l32 -8q-47 -126 -171 -126
q-83 0 -142 55.5t-71 155.5h-53q1 6 3.5 16t3.5 15h44v10q0 19 1 28h-52q2 6 7 32z" />
    <glyph glyph-name="numbersign.onum" horiz-adv-x="470" 
d="M96 383l80 -12q5 25 18.5 78t18.5 78l42 -7l-35 -154l81 -11l40 172q7 -1 20.5 -3.5t20.5 -3.5l-38 -171l88 -11l-6 -45l-92 12l-29 -127l77 -11l-6 -45l-80 11q-6 -26 -18 -80t-18 -80q-7 1 -22 3t-21 2l36 160l-82 11l-40 -176q-7 1 -21.5 3t-20.5 2l39 177l-87 11
l6 45l91 -13l28 127l-76 12zM210 320l-29 -126l82 -12l28 127z" />
    <glyph glyph-name="percent.onum" horiz-adv-x="509" 
d="M311 388q-19 0 -45 17q-2 -66 -37.5 -108t-82.5 -42q-39 0 -64 28t-25 71q0 58 39 101t84 43q59 0 80 -55q10 -26 57 -26q36 0 71 25q23 51 46 51q19 0 19 -18q0 -11 -11.5 -25t-25.5 -23l-90 -113l-87 -110l-164 -219l-27 20l172 214q28 37 80 109l47 63l-5 2
q-12 -5 -31 -5zM245 90q0 58 39 100.5t84 42.5q38 0 62 -24.5t24 -67.5q0 -67 -36 -108.5t-81 -41.5q-41 0 -66.5 28t-25.5 71zM382 198q-28 0 -52.5 -41t-24.5 -88q0 -46 35 -46q28 0 52.5 32t24.5 94q0 49 -35 49zM194 463q-28 0 -52.5 -41.5t-24.5 -88.5q0 -46 37 -46
q28 0 51.5 33t23.5 93q0 24 -9.5 37t-25.5 13z" />
    <glyph glyph-name="perthousand.onum" horiz-adv-x="738" 
d="M474 90q0 58 39 100.5t84 42.5q38 0 62 -24.5t24 -67.5q0 -67 -36.5 -108.5t-81.5 -41.5q-41 0 -66 28t-25 71zM611 198q-28 0 -53 -41t-25 -88q0 -22 10 -34t26 -12q29 0 52.5 32t23.5 94q0 24 -9.5 36.5t-24.5 12.5zM311 388q-19 0 -45 17q-2 -66 -37.5 -108t-82.5 -42
q-39 0 -64 28t-25 71q0 58 39 101t84 43q59 0 80 -55q10 -26 57 -26q36 0 71 25q23 51 46 51q19 0 19 -18q0 -11 -11.5 -25t-25.5 -23l-90 -113l-87 -110l-164 -219l-27 20l172 214q28 37 80 109l47 63l-5 2q-11 -5 -31 -5zM245 90q0 58 39 100.5t84 42.5q38 0 62 -24.5
t24 -67.5q0 -67 -36 -108.5t-81 -41.5q-41 0 -66.5 28t-25.5 71zM382 198q-28 0 -52.5 -41t-24.5 -88q0 -46 35 -46q28 0 52.5 32t24.5 94q0 49 -35 49zM194 463q-28 0 -52.5 -41.5t-24.5 -88.5q0 -46 37 -46q28 0 51.5 33t23.5 93q0 24 -9.5 37t-25.5 13z" />
    <glyph glyph-name="ordfeminine.onum" 
d="M348 190l-38 95h-144l-42 -95q18 -2 33 -5l21 -4v-32h-148v32l48 9l166 356h37l144 -355l46 -11v-31h-169v32zM243 454l-59 -131h110z" />
    <glyph glyph-name="ordmasculine.onum" horiz-adv-x="559" 
d="M55 339q0 104 65.5 159t156.5 55q101 0 164.5 -52.5t63.5 -141.5q0 -100 -64 -158.5t-170 -58.5q-93 0 -154.5 52.5t-61.5 144.5zM133 371q0 -95 44 -143.5t109 -48.5q56 0 98 38t42 116q0 93 -47.5 139t-114.5 46q-46 0 -88.5 -35t-42.5 -112z" />
    <glyph glyph-name="degree.onum" horiz-adv-x="417" 
d="M69 375q0 59 41 101t98 42t98.5 -42.5t41.5 -100.5t-41.5 -100t-98.5 -42t-98 42t-41 100zM119 375q0 -40 24.5 -67.5t63.5 -27.5q40 0 64.5 27.5t24.5 67.5t-25 68.5t-64 28.5t-63.5 -28.5t-24.5 -68.5z" />
    <glyph glyph-name="zero.numr" horiz-adv-x="360" 
d="M40 482q0 92 40.5 139.5t103.5 47.5q61 0 98.5 -48t37.5 -139q0 -84 -37.5 -127.5t-98.5 -43.5q-63 0 -103.5 43.5t-40.5 127.5zM106 482q0 -145 78 -145q32 0 51.5 35.5t19.5 109.5q0 82 -19.5 121.5t-51.5 39.5q-34 0 -56 -41t-22 -120z" />
    <glyph glyph-name="one.numr" horiz-adv-x="289" 
d="M54 588l-9 29q79 25 112 50l31 -4v-313l44 -5l35 -4v-23h-218v24l77 8v258l-15 -2q-17 -9 -57 -18z" />
    <glyph glyph-name="two.numr" horiz-adv-x="314" 
d="M143 627q-34 0 -53 -21q-12 -21 -12 -45h-37l15 70l-2 -1q17 16 48 27.5t47 11.5q50 0 84 -28.5t34 -73.5q0 -36 -50 -92t-122 -111q0 -3 4 -7l94 6q65 4 83 5v-53l-240 3l-7 25l-2 -1q97 86 137 133.5t40 85.5q0 30 -19 48t-42 18z" />
    <glyph glyph-name="three.numr" horiz-adv-x="314" 
d="M156 338q22 0 40 17t18 48q0 36 -27 57t-51 18l-41 -5q-1 5 -4 14t-4 13q46 8 81 31t35 49q0 50 -57 50q-30 0 -50 -15q-12 -18 -12 -41h-34q2 10 7 31t7 32q18 13 47.5 22.5t46.5 9.5q48 0 76.5 -20t28.5 -50q0 -47 -79 -91q5 0 9 1l2 -3q34 -9 57.5 -34t23.5 -57
q0 -44 -38.5 -74t-89.5 -30q-56 0 -101 25q-3 12 -10 37t-10 37h29q19 -38 40 -57q26 -15 60 -15z" />
    <glyph glyph-name="four.numr" horiz-adv-x="349" 
d="M191 349v78h-149l-10 22q29 54 83 117t108 108l27 -11l-3 -80v-126h62v-29h-62v-78q32 -4 37 -5q8 -2 22 -4v-23h-169v23zM80 459l111 -2v144q-68 -65 -111 -142z" />
    <glyph glyph-name="five.numr" horiz-adv-x="312" 
d="M132 311q-38 0 -76 18l-14 7l-12 71h30q14 -37 29 -53q21 -15 39 -15q34 0 60.5 24t26.5 76q0 27 -14.5 42.5t-38.5 15.5q-42 0 -79 -28l-25 7l22 186h99l78 7q-1 -11 -4 -31t-4 -30l-59 3h-81q-3 -22 -8 -49q-6 -28 -7 -50q44 20 74 20q44 0 75.5 -24t31.5 -66
q0 -50 -29 -76q-63 -55 -114 -55z" />
    <glyph glyph-name="six.numr" horiz-adv-x="331" 
d="M119 612q61 46 147 71l7 -26q-69 -31 -106 -66t-59 -91q51 31 86 31q37 0 68.5 -25t31.5 -74t-24 -71q-56 -50 -107 -50q-55 0 -89 33t-34 94q0 46 22.5 94.5t56.5 79.5zM172 498q-42 0 -73 -34q1 -1 1 -5v-13q0 -47 21 -76t53 -29q29 0 44.5 20t15.5 54q0 40 -18.5 61.5
t-43.5 21.5z" />
    <glyph glyph-name="seven.numr" horiz-adv-x="296" 
d="M270 662l16 -17q-106 -148 -127 -316q-4 -15 -41 -15q-18 0 -27 3.5t-6 12.5q21 69 47 124t45 83t51 70l-6 9h-129q-11 0 -25 -53v-1l-1 -2q-7 0 -17 -1t-16 -1q3 18 9 53.5t10 53.5l69 -3h148z" />
    <glyph glyph-name="eight.numr" horiz-adv-x="331" 
d="M40 407q0 34 66 82l-1 6q-49 33 -49 83q0 38 32 64.5t76 26.5q50 0 80.5 -22t30.5 -57q0 -37 -53 -79v-6q69 -31 69 -89q0 -41 -35 -73t-92 -32q-50 0 -87 26.5t-37 69.5zM91 406q0 -31 19.5 -49.5t56.5 -18.5q33 0 53 18t20 47t-26.5 46t-81.5 32q-41 -33 -41 -75z
M104 592q0 -26 21 -43.5t69 -32.5q30 37 30 75q0 24 -16 38t-43 14q-29 0 -45 -15t-16 -36z" />
    <glyph glyph-name="nine.numr" horiz-adv-x="331" 
d="M56 322l3 2v-1q74 34 107.5 65t54.5 91q-53 -30 -83 -30q-38 0 -69.5 25.5t-31.5 73.5t24 70q57 51 107 51q55 0 89 -33t34 -94q0 -50 -20 -97t-58 -77q-55 -39 -148 -70l-6 25q-1 0 -3 -1zM160 482q39 0 72 35q-1 0 -1 5v13q0 47 -21 75.5t-53 28.5q-28 0 -43.5 -19.5
t-15.5 -53.5q0 -41 18.5 -62.5t43.5 -21.5z" />
    <glyph glyph-name="zero.dnom" horiz-adv-x="360" 
d="M40 124q0 92 40.5 139.5t103.5 47.5q61 0 98.5 -48t37.5 -139q0 -84 -37.5 -127t-98.5 -43q-63 0 -103.5 43t-40.5 127zM106 124q0 -145 78 -145q32 0 51.5 35.5t19.5 109.5q0 82 -19.5 121.5t-51.5 39.5q-34 0 -56 -41t-22 -120z" />
    <glyph glyph-name="one.dnom" horiz-adv-x="289" 
d="M54 231l-9 28q79 25 112 50l31 -4v-313l44 -5l35 -4v-22h-218v23l77 8v258l-15 -2q-18 -8 -57 -17z" />
    <glyph glyph-name="two.dnom" horiz-adv-x="314" 
d="M143 269q-34 0 -53 -21q-12 -19 -12 -44h-37l15 69l-2 -1q17 16 48 27.5t47 11.5q50 0 84 -28.5t34 -72.5q0 -36 -49.5 -91.5t-122.5 -112.5q0 -3 4 -7l94 6q65 4 83 5v-52l-240 3l-7 24l-2 -1q98 87 137.5 134.5t39.5 85.5q0 29 -19 47t-42 18z" />
    <glyph glyph-name="three.dnom" horiz-adv-x="314" 
d="M156 -20q22 0 40 17t18 48q0 37 -27 57.5t-51 17.5l-41 -5q-1 5 -4 14t-4 13q46 8 81 31t35 50q0 49 -57 49q-30 0 -50 -15q-12 -18 -12 -40h-34q2 11 7 31t7 31q18 13 47.5 22.5t46.5 9.5q48 0 76.5 -20t28.5 -49q0 -25 -24 -50t-55 -42q5 0 9 1l2 -3q34 -9 57.5 -33.5
t23.5 -57.5q0 -44 -38.5 -73.5t-89.5 -29.5q-55 0 -101 24q-3 13 -10 37t-10 37h29q19 -38 40 -57q26 -15 60 -15z" />
    <glyph glyph-name="four.dnom" horiz-adv-x="349" 
d="M191 -9v79h-149l-10 22q29 54 83 117t108 107l27 -11l-3 -79v-126h62v-29h-62v-79q32 -4 37 -5q8 -2 22 -4v-22h-169v22zM80 102l111 -2v144q-66 -63 -111 -142z" />
    <glyph glyph-name="five.dnom" horiz-adv-x="312" 
d="M132 -46q-38 0 -76 18l-14 6l-12 71h30q14 -37 29 -53q21 -15 39 -15q34 0 60.5 24.5t26.5 76.5q0 26 -14.5 41.5t-38.5 15.5q-42 0 -79 -28l-25 7l22 186h99l78 7q-1 -11 -4 -30.5t-4 -30.5l-59 3h-81q-3 -21 -8 -48q-6 -30 -7 -51q44 20 74 20q43 0 75 -24t32 -65
q0 -51 -29 -77q-62 -54 -114 -54z" />
    <glyph glyph-name="six.dnom" horiz-adv-x="331" 
d="M119 254q61 46 147 71l7 -26q-69 -31 -106 -65.5t-59 -91.5q51 31 86 31q37 0 68.5 -25t31.5 -73q0 -50 -24 -72q-55 -49 -107 -49q-55 0 -89 32.5t-34 94.5q0 45 22.5 94t56.5 79zM172 140q-42 0 -73 -33q1 -1 1 -5v-13q0 -48 21 -77t53 -29q29 0 44.5 20t15.5 54
q0 40 -18.5 61.5t-43.5 21.5z" />
    <glyph glyph-name="seven.dnom" horiz-adv-x="296" 
d="M270 304l16 -17q-106 -148 -127 -315q-4 -15 -41 -15q-18 0 -27 3.5t-6 12.5q21 69 47 124t45 82.5t51 69.5l-6 9h-129q-11 0 -25 -52v-1q-1 -1 -1 -2q-7 0 -17 -1.5t-16 -1.5q3 17 9 52.5t10 54.5l69 -3h148z" />
    <glyph glyph-name="eight.dnom" horiz-adv-x="331" 
d="M40 49q0 36 66 82l-1 6q-49 33 -49 84q0 38 32.5 64t75.5 26q50 0 80.5 -22t30.5 -56q0 -38 -53 -80v-6q69 -31 69 -89q0 -40 -35 -72t-92 -32q-51 0 -87.5 26t-36.5 69zM91 48q0 -31 19.5 -49.5t56.5 -18.5q33 0 53 18t20 47q0 30 -26.5 47t-81.5 31q-41 -31 -41 -75z
M104 235q0 -27 21 -44.5t69 -32.5q30 37 30 76q0 23 -16 37t-43 14q-28 0 -44.5 -15t-16.5 -35z" />
    <glyph glyph-name="nine.dnom" horiz-adv-x="331" 
d="M65 -59l-6 26q73 32 107 63t55 91q-53 -29 -83 -29q-38 0 -69.5 25t-31.5 73q0 50 24 70q57 51 107 51q55 0 89 -33t34 -94q0 -50 -20 -97t-58 -77q-52 -38 -148 -69zM160 124q39 0 72 35q-1 0 -1 5v13q0 48 -21 76t-53 28q-28 0 -43.5 -19.5t-15.5 -52.5q0 -41 18.5 -63
t43.5 -22z" />
    <glyph glyph-name="zero.subs" horiz-adv-x="360" 
d="M40 3q0 92 40.5 139.5t103.5 47.5q61 0 98.5 -48t37.5 -139q0 -84 -37.5 -127t-98.5 -43q-63 0 -103.5 43t-40.5 127zM106 3q0 -145 78 -145q32 0 51.5 35.5t19.5 109.5q0 82 -19.5 121.5t-51.5 39.5q-34 0 -56 -41t-22 -120z" />
    <glyph glyph-name="one.subs" horiz-adv-x="289" 
d="M54 110l-9 28q79 25 112 50l31 -4v-313l44 -5l35 -4v-22h-218v23l77 8v258l-15 -2q-18 -8 -57 -17z" />
    <glyph glyph-name="two.subs" horiz-adv-x="314" 
d="M143 148q-34 0 -53 -21q-12 -19 -12 -44h-37l15 69l-2 -1q17 16 48 27.5t47 11.5q50 0 84 -28.5t34 -72.5q0 -36 -49.5 -91.5t-122.5 -112.5q0 -3 4 -7l94 6q65 4 83 5v-52l-240 3l-7 24l-2 -1q98 87 137.5 134.5t39.5 85.5q0 29 -19 47t-42 18z" />
    <glyph glyph-name="three.subs" horiz-adv-x="314" 
d="M156 -141q22 0 40 17t18 48q0 37 -27 57.5t-51 17.5l-41 -5q-1 5 -4 14t-4 13q46 8 81 31t35 50q0 49 -57 49q-30 0 -50 -15q-12 -18 -12 -40h-34q2 11 7 31.5t7 30.5q18 13 47.5 22.5t46.5 9.5q48 0 76.5 -20t28.5 -49q0 -25 -24 -50t-55 -42q5 0 9 1l2 -3
q34 -9 57.5 -33.5t23.5 -56.5q0 -45 -38.5 -74.5t-89.5 -29.5q-55 0 -101 24q-3 13 -10 37t-10 37h29q19 -38 40 -57q26 -15 60 -15z" />
    <glyph glyph-name="four.subs" horiz-adv-x="349" 
d="M191 -130v79h-149l-10 22q29 54 83 117t108 107l27 -11l-3 -79v-126h62v-29h-62v-79q32 -4 37 -5q8 -2 22 -4v-22h-169v22zM80 -19l111 -2v144q-66 -63 -111 -142z" />
    <glyph glyph-name="five.subs" horiz-adv-x="312" 
d="M132 -167q-38 0 -76 18l-14 6l-12 71h30q14 -37 29 -53q21 -15 39 -15q34 0 60.5 24.5t26.5 76.5q0 26 -14.5 41.5t-38.5 15.5q-42 0 -79 -28l-25 7l22 186h99l78 7q-1 -11 -4 -30.5t-4 -30.5l-59 3h-81q-3 -21 -8 -48q-6 -28 -7 -51q44 20 74 20q43 0 75 -24t32 -65
q0 -51 -29 -77q-62 -54 -114 -54z" />
    <glyph glyph-name="six.subs" horiz-adv-x="331" 
d="M119 133q60 45 147 72l7 -27q-69 -31 -106 -65.5t-59 -91.5q51 31 86 31q37 0 68.5 -25t31.5 -73q0 -50 -24 -72q-55 -49 -107 -49q-55 0 -89 32.5t-34 94.5q0 45 22.5 94t56.5 79zM172 19q-42 0 -73 -33q1 -1 1 -5v-13q0 -48 21 -77t53 -29q29 0 44.5 20.5t15.5 54.5
q0 40 -18.5 61t-43.5 21z" />
    <glyph glyph-name="seven.subs" horiz-adv-x="296" 
d="M270 183l16 -17q-106 -147 -127 -315q-4 -15 -41 -15q-18 0 -27 3.5t-6 12.5q21 69 47 124t45 82.5t51 69.5l-6 9h-129q-11 0 -25 -52v-1l-1 -2q-7 0 -17 -1t-16 -1q4 18 9.5 53t9.5 53l69 -3h148z" />
    <glyph glyph-name="eight.subs" horiz-adv-x="331" 
d="M40 -72q0 36 66 82l-1 6q-49 33 -49 84q0 38 32.5 64t75.5 26q50 0 80.5 -22t30.5 -56q0 -38 -53 -80v-6q69 -31 69 -88q0 -41 -34.5 -73t-92.5 -32q-51 0 -87.5 26t-36.5 69zM91 -73q0 -31 19.5 -49.5t56.5 -18.5q33 0 53 18t20 47q0 30 -26.5 47t-81.5 31
q-41 -31 -41 -75zM104 114q0 -27 21 -44.5t69 -32.5q30 37 30 76q0 23 -16 37t-43 14q-28 0 -44.5 -15t-16.5 -35z" />
    <glyph glyph-name="nine.subs" horiz-adv-x="331" 
d="M65 -180l-6 26q73 32 107 63t55 91q-53 -29 -83 -29q-38 0 -69.5 25t-31.5 74t24 69q57 51 107 51q55 0 89 -33t34 -94q0 -50 -20 -97t-58 -77q-52 -38 -148 -69zM160 3q39 0 72 35q-1 0 -1 5v13q0 48 -21 76t-53 28q-28 0 -43.5 -19.5t-15.5 -52.5q0 -41 18.5 -63
t43.5 -22z" />
    <glyph glyph-name="uni2011.case" horiz-adv-x="425" 
d="M100 352l59 -3h110l72 3l-15 -80l-56 3h-127l-58 -3z" />
    <glyph glyph-name="zero.onum.tnum" horiz-adv-x="600" 
d="M58 241q0 109 70 181.5t174 72.5q47 0 88.5 -14t76.5 -43t55.5 -79.5t20.5 -117.5q0 -116 -74 -185t-172 -69q-106 0 -172.5 71.5t-66.5 182.5zM145 241q0 -100 45 -153t107 -53q71 0 115 52t44 154q0 99 -42 152t-117 53q-67 0 -109.5 -53t-42.5 -152z" />
    <glyph glyph-name="one.onum.tnum" horiz-adv-x="600" 
d="M329 494l28 -12v-423q18 -3 58 -10.5t60 -10.5v-38h-319v38l119 21v353q-77 -28 -137 -36l-13 53q139 27 204 65z" />
    <glyph glyph-name="two.onum.tnum" horiz-adv-x="600" 
d="M118 0l-19 52q62 44 99 71.5t85 69t71.5 77.5t23.5 67q0 39 -25 60t-68 21q-36 0 -78.5 -20t-73.5 -51l-24 26q41 50 95 86t107 36q72 0 114 -37.5t42 -96.5q0 -32 -16 -63.5t-49 -63t-56.5 -50.5t-65.5 -49q-46 -34 -63 -48l8 -17q44 3 136.5 10t138.5 10l-4 -90h-378z
" />
    <glyph glyph-name="three.onum.tnum" horiz-adv-x="600" 
d="M150 368l-27 24l72 78l-2 -1q47 26 88 26q62 0 102 -36.5t40 -89.5q0 -79 -74 -125l5 -12q57 1 89.5 -30.5t32.5 -84.5q0 -60 -40 -120.5t-96 -101.5t-112.5 -67t-91.5 -27l-63 74l20 33l79 -32q81 9 149 62.5t68 142.5q0 52 -40 82t-76 13l-63 -34l-22 39l36 23
q34 21 48.5 30.5t34.5 27t27.5 36t7.5 41.5q0 38 -24 61.5t-59 23.5q-61 0 -109 -56z" />
    <glyph glyph-name="four.onum.tnum" horiz-adv-x="600" 
d="M357 -197l-19 21l7 91v124h-269l-17 21l332 434q4 -1 40 -15l-5 -148v-237h39q12 1 37 3t36 2v-64l-68 5h-44v-112q0 -15 2 -47t3 -46q-13 -6 -37 -16t-37 -16zM345 327l-20 11l-173 -232l8 -12h185v233z" />
    <glyph glyph-name="five.onum.tnum" horiz-adv-x="600" 
d="M448 92q0 -61 -38.5 -117.5t-93 -93t-109.5 -58.5t-93 -22q-44 60 -64 84q3 3 9.5 13t10.5 15l79 -37q37 2 73.5 13t71 31.5t55.5 56.5t21 83q0 39 -25.5 63t-56 31.5t-67.5 7.5q-13 0 -33 -2q-6 4 -17 13t-16 13q1 50 5.5 149.5t5.5 149.5h194l129 10q-2 -19 -7 -53.5
t-7 -51.5l-97 5h-176l-5 -136l18 -15q11 1 36 1q87 0 142 -38.5t55 -114.5z" />
    <glyph glyph-name="six.onum.tnum" horiz-adv-x="600" 
d="M186 337l9 -10q93 60 155 60q65 0 119 -46t54 -134q0 -93 -40 -127q-103 -93 -189 -93q-95 0 -155 60t-60 171q0 92 37 178t104 139q108 83 254 125l10 -39q-138 -63 -199.5 -120t-98.5 -164zM309 330q-83 0 -139 -63q-2 -24 -2 -35q0 -87 41.5 -141t104.5 -54
q57 0 88.5 38t31.5 100q0 75 -37 115t-88 40z" />
    <glyph glyph-name="seven.onum.tnum" horiz-adv-x="600" 
d="M115 -188l-13 29q241 357 330 545l-10 17q-50 0 -151 0.5t-151 0.5l4 86l124 -5h251l25 -30q-210 -391 -331 -644q-14 0 -39 0.5t-39 0.5z" />
    <glyph glyph-name="eight.onum.tnum" horiz-adv-x="600" 
d="M81 160q0 68 120 155v11q-91 54 -91 148q0 69 56 117t132 48q86 0 139 -39.5t53 -102.5q0 -23 -16.5 -51t-32 -45.5t-42.5 -44.5v-9q61 -30 90.5 -68t29.5 -101q0 -74 -60.5 -132.5t-160.5 -58.5q-89 0 -153 47.5t-64 125.5zM153 159q0 -57 39.5 -92t110.5 -35
q65 0 104.5 34t39.5 88q0 55 -52.5 88t-159.5 63q-82 -61 -82 -146zM177 501q0 -50 40 -79.5t142 -58.5q58 62 58 136q0 44 -32 69.5t-86 25.5q-57 0 -89.5 -27.5t-32.5 -65.5z" />
    <glyph glyph-name="nine.onum.tnum" horiz-adv-x="600" 
d="M415 146l-9 9q-92 -59 -154 -59q-41 0 -78.5 17t-66 59.5t-28.5 103.5q0 92 40 126q105 93 189 93q95 0 155 -60t60 -170q0 -94 -36.5 -179.5t-103.5 -137.5q-118 -104 -289 -161q-2 9 -6 22t-5 19q154 67 222.5 131t109.5 187zM293 153q84 0 138 64q2 24 2 35
q0 87 -41.5 139.5t-104.5 52.5q-56 0 -87.5 -37t-31.5 -100q0 -74 37.5 -114t87.5 -40z" />
    <glyph glyph-name="Stroke.part" horiz-adv-x="430" 
d="M52 513h671v-48h-671v48z" />
    <glyph glyph-name="stroke.part" horiz-adv-x="430" 
d="M53 545h285v-46h-285v46z" />
    <glyph glyph-name="parenleft.case" horiz-adv-x="442" 
d="M377 -152l-25 -29q-161 101 -204 281q-18 105 -18 216q0 110 20 225q20 76 73.5 146t127.5 119l26 -34q-130 -102 -155 -244q-14 -102 -14 -224q0 -77 5 -169q11 -180 164 -287z" />
    <glyph glyph-name="parenright.case" horiz-adv-x="442" 
d="M92 -180l-26 29q154 109 165 286q5 92 5 169q0 122 -14 224q-25 144 -156 245q3 3 13 14.5t15 18.5q73 -49 126 -119t73 -146q20 -115 20 -225q0 -111 -18 -216q-41 -176 -203 -280z" />
    <glyph glyph-name="bracketleft.case" horiz-adv-x="425" 
d="M353 799v-41l-167 -15v-852l167 -14v-42h-235v964h235z" />
    <glyph glyph-name="bracketright.case" horiz-adv-x="425" 
d="M73 757v42h234v-964h-234v41l166 15v852q-26 2 -82.5 6.5t-83.5 7.5z" />
    <glyph glyph-name="braceleft.case" horiz-adv-x="525" 
d="M166 345v-19q63 -9 107.5 -51t44.5 -105q0 -26 -20 -88q-25 -75 -25 -116q0 -94 157 -97v-38q-127 1 -177 37t-52 108l43 202q0 59 -44 90.5t-115 33.5v63q67 1 113 37t46 83l-41 186q2 68 52.5 98.5t168.5 30.5v-38q-151 -2 -151 -82l45 -190q-1 -54 -45 -93t-107 -52z
" />
    <glyph glyph-name="braceright.case" horiz-adv-x="525" 
d="M359 326v19q-63 12 -107 52t-45 93l45 190q0 82 -151 82v38q118 0 168.5 -30.5t52.5 -98.5l-41 -186q0 -47 46 -83t113 -37v-63q-71 -2 -115 -33.5t-44 -90.5l43 -202q-2 -73 -51.5 -108.5t-177.5 -36.5v38q157 3 157 97q0 41 -25 116q-20 60 -20 88q0 63 44.5 105
t107.5 51z" />
    <glyph glyph-name="dotaccent.case" 
d="M190 571q0 27 17.5 45.5t42.5 18.5t43 -18.5t18 -45.5q0 -26 -18 -44t-43 -18t-42.5 18t-17.5 44z" />
    <glyph glyph-name="Iacute_Jacute" horiz-adv-x="884" 
d="M622 13v597q-16 2 -49 7.5t-48 7.5v39h281v-39l-90 -15v-547q0 -44 -6 -69.5t-24 -53.5q-72 -107 -130 -169l-39 36q58 73 83 113q22 36 22 93zM91 664h257v-39l-82 -15v-556q12 -2 40 -7.5t42 -7.5v-39h-257v39l80 15v556q-13 2 -40 7.5t-40 7.5v39zM622 726v6l-1 -1
l85 129h87v-8l2 1l-129 -127h-44zM164 726v6l-1 -1l86 129h87v-8l2 1l-129 -127h-45z" />
    <glyph glyph-name="iacute_jacute" horiz-adv-x="774" 
d="M84 535h227v-39l-67 -12v-433q10 -1 33.5 -5.5t33.5 -6.5v-39h-227v39l67 12v433q-10 1 -33.5 5.5t-33.5 6.5v39zM142 599v7l-1 -1l86 164h86v-8l1 1l-129 -163h-43zM550 15v470q-13 1 -40.5 5t-40.5 6v39h248v-39l-75 -11v-430q0 -66 -26 -101q-59 -83 -113 -137
q-7 6 -20.5 17.5t-20.5 17.5q37 39 70 92q18 27 18 71zM538 599v7l-1 -1l86 164h86v-8l1 1l-129 -163h-43z" />
    <glyph glyph-name="acute.plk" 
d="M225 502v6q6 27 20 81.5t21 81.5h75v-7l-80 -162h-36z" />
    <glyph glyph-name="acute.case.plk" 
d="M224 502v5l51 129h70v-8l1 1l-79 -127h-43z" />
    <glyph glyph-name="Dotlessi" horiz-adv-x="441" 
d="M93 663h256v-39l-81 -15v-555q13 -2 40.5 -7.5t40.5 -7.5v-39h-256v39l80 15v555q-12 2 -39.5 7.5t-40.5 7.5v39z" />
    <glyph glyph-name="zero.tallfig" horiz-adv-x="675" 
d="M87 314q0 177 72.5 269t185.5 92q108 0 175.5 -92.5t67.5 -268.5q0 -160 -67 -244t-176 -84q-113 0 -185.5 83.5t-72.5 244.5zM184 315q0 -148 44.5 -216t116.5 -68q67 0 108 69t41 215q0 161 -41.5 238.5t-107.5 77.5q-70 0 -115.5 -81t-45.5 -235z" />
    <glyph glyph-name="one.tallfig" horiz-adv-x="541" 
d="M110 528l-16 50q159 51 206 93q6 -2 12 -2q6 -2 27 -4v-610l150 -16v-39h-385v39l146 16v518l-52 -17q-40 -16 -88 -28z" />
    <glyph glyph-name="two.tallfig" horiz-adv-x="588" 
d="M267 599q-76 0 -114 -47q-21 -35 -23 -81h-43l28 136q33 27 84.5 47.5t78.5 20.5q89 0 149.5 -55t60.5 -139q0 -70 -95 -179.5t-230 -214.5l8 -18l334 20v-94q-68 0 -214 2l-213 3l-13 47l-2 -1q180 163 255 256.5t75 166.5q0 57 -39 93.5t-87 36.5z" />
    <glyph glyph-name="three.tallfig" horiz-adv-x="588" 
d="M291 32q47 0 86 34.5t39 96.5q0 70 -56.5 111t-105.5 36q-11 -1 -32.5 -5t-33.5 -6l-13 49q87 15 152 59.5t65 97.5q0 100 -119 100q-64 0 -107 -36q-22 -34 -24 -71h-36l26 119q33 23 85.5 40.5t78.5 17.5q85 0 135.5 -38t50.5 -95q0 -49 -40 -92.5t-94 -75.5v-13
q65 -12 112 -63t47 -113q0 -84 -70 -141.5t-160 -57.5q-94 0 -178 43l-38 143h30q27 -59 80 -109q60 -31 120 -31z" />
    <glyph glyph-name="four.tallfig" horiz-adv-x="654" 
d="M372 56v157h-287q-8 17 -15 37q56 101 158 225.5t194 206.5l34 -15l-5 -155v-249h118v-49h-118v-158l110 -17v-39h-290v39zM372 535l-23 10q-117 -108 -210 -269l9 -13h224v272z" />
    <glyph glyph-name="five.tallfig" horiz-adv-x="585" 
d="M247 -14q-65 0 -133 33q-3 0 -7 2h2l-20 10l-21 136h29q23 -64 59 -102q43 -31 84 -31q70 0 124 48t54 150q0 53 -31 84t-83 31q-87 0 -152 -53l-33 9q7 59 22 178.5t22 179.5h176l96 8l35 4l-16 -110l-97 5h-167l-22 -188l19 -11q23 13 64 26.5t63 13.5q77 0 133.5 -46
t56.5 -126q0 -101 -50 -145q-112 -106 -207 -106z" />
    <glyph glyph-name="six.tallfig" horiz-adv-x="620" 
d="M192 355l13 -12q96 65 159 65q67 0 121.5 -48.5t54.5 -141.5q0 -99 -40 -134q-111 -98 -194 -98q-97 0 -158.5 64t-61.5 180q0 89 41.5 182.5t104.5 151.5q115 89 257 132q2 -12 5 -20l5 -21q-144 -68 -207 -127t-100 -173zM321 350q-86 0 -146 -68q-2 -26 -2 -37
q0 -94 43.5 -151t110.5 -57q60 0 93.5 40.5t33.5 107.5q0 79 -39.5 122t-93.5 43z" />
    <glyph glyph-name="seven.tallfig" horiz-adv-x="554" 
d="M500 661l24 -29q-213 -317 -243 -614q-2 -25 -63 -25q-27 0 -39.5 5.5t-8.5 19.5q42 140 91 248t84.5 162.5t94.5 131.5l-11 17l-257 1q-12 0 -21.5 -8t-17 -25t-11.5 -29t-10 -34l-3 -9q-2 -6 -2 -8h-36l20 101q3 17 10 50.5t10 50.5l116 -6h273z" />
    <glyph glyph-name="eight.tallfig" horiz-adv-x="619" 
d="M86 169q0 68 125 158v13q-95 57 -95 161q0 72 58 123t134 51q89 0 142.5 -41.5t53.5 -108.5q0 -37 -28.5 -79t-70.5 -76v-9q66 -30 97.5 -69.5t31.5 -103.5q0 -79 -62 -140.5t-164 -61.5q-90 0 -156 50.5t-66 132.5zM156 168q0 -61 41 -98.5t116 -37.5q70 0 111 36t41 95
q0 57 -55.5 90.5t-167.5 64.5q-86 -63 -86 -150zM181 529q0 -54 42 -87t149 -66q62 73 62 151q0 47 -34 74.5t-91 27.5q-60 0 -94 -29.5t-34 -70.5z" />
    <glyph glyph-name="nine.tallfig" horiz-adv-x="620" 
d="M429 306l-12 12q-98 -64 -160 -64q-67 0 -121.5 48.5t-54.5 141.5q0 97 40 133q106 98 194 98q97 0 158.5 -63.5t61.5 -179.5q0 -91 -40 -184.5t-105 -150.5q-119 -89 -258 -131q-2 8 -6 21t-5 20q146 67 208.5 126t99.5 173zM300 312q87 0 146 69q2 24 2 38
q0 92 -43.5 148t-110.5 56q-60 0 -93 -39.5t-33 -105.5q0 -80 39.5 -123t92.5 -43z" />
    <glyph glyph-name="zero.tallfig.tnum" horiz-adv-x="610" 
d="M60 314q0 177 71.5 269t181.5 92q106 0 172.5 -92.5t66.5 -268.5q0 -160 -66.5 -244t-172.5 -84q-110 0 -181.5 83.5t-71.5 244.5zM156 315q0 -148 44 -216t113 -68q66 0 106 69t40 215q0 161 -40 238.5t-106 77.5q-67 0 -112 -81t-45 -235z" />
    <glyph glyph-name="one.tallfig.tnum" horiz-adv-x="610" 
d="M140 528l-16 50q158 50 206 93q8 -2 13 -2q5 -1 26 -4v-610l150 -16v-39h-385v39l146 16v518l-51 -17q-39 -16 -89 -28z" />
    <glyph glyph-name="two.tallfig.tnum" horiz-adv-x="610" 
d="M283 599q-76 0 -114 -47q-21 -35 -23 -81h-43l28 136q33 27 84.5 47.5t78.5 20.5q89 0 149.5 -55t60.5 -139q0 -70 -95 -179.5t-230 -214.5l8 -18l334 20v-94q-68 0 -214 2l-213 3l-12 47l-2 -1q179 164 254 257t75 166q0 57 -39 93.5t-87 36.5z" />
    <glyph glyph-name="three.tallfig.tnum" horiz-adv-x="610" 
d="M304 32q47 0 86 34.5t39 96.5q0 70 -56.5 111t-105.5 36q-11 -2 -32.5 -6t-32.5 -5l-14 49q87 15 152 59.5t65 97.5q0 100 -119 100q-64 0 -107 -36q-22 -34 -24 -71h-36l26 119q33 23 85.5 40.5t78.5 17.5q85 0 135.5 -38t50.5 -95q0 -49 -40 -92.5t-94 -75.5v-13
q65 -12 112 -63t47 -113q0 -84 -70 -141.5t-160 -57.5q-94 0 -178 43l-37 143h29q27 -59 80 -109q62 -31 120 -31z" />
    <glyph glyph-name="four.tallfig.tnum" horiz-adv-x="610" 
d="M357 56v157h-287q-8 14 -16 37q57 101 159 225.5t194 206.5l34 -15l-5 -155v-249h118v-49h-118v-158l110 -17v-39h-290v39zM357 535l-23 10q-120 -111 -210 -269l9 -13h224v272z" />
    <glyph glyph-name="five.tallfig.tnum" horiz-adv-x="610" 
d="M268 -14q-65 0 -133 33q-3 0 -7 2h2l-20 10l-21 136h29q23 -64 59 -102q45 -31 84 -31q32 0 61.5 10.5t56.5 32t43.5 61.5t16.5 94q0 53 -31 84t-83 31q-85 0 -152 -53l-33 9q7 59 22 178.5t22 179.5h176l96 8l35 4l-15 -110l-98 5h-166l-23 -188l20 -11q22 13 63 26.5
t64 13.5q76 0 132.5 -46t56.5 -126q0 -100 -49 -145q-114 -106 -208 -106z" />
    <glyph glyph-name="six.tallfig.tnum" horiz-adv-x="610" 
d="M186 355l12 -12q98 65 160 65q67 0 121.5 -48.5t54.5 -141.5q0 -99 -40 -134q-111 -98 -194 -98q-97 0 -158.5 64t-61.5 180q0 89 41.5 182.5t104.5 151.5q115 89 257 132q2 -12 5 -20l5 -21q-144 -68 -207 -127t-100 -173zM315 350q-86 0 -146 -68q-2 -26 -2 -37
q0 -94 43.5 -151t110.5 -57q60 0 93.5 40.5t33.5 107.5q0 79 -39.5 122t-93.5 43z" />
    <glyph glyph-name="seven.tallfig.tnum" horiz-adv-x="610" 
d="M533 661l24 -29q-211 -315 -243 -614q-2 -25 -63 -25q-26 0 -39 5.5t-8 19.5q41 140 90 248t85 163t95 131l-12 17l-256 1q-16 0 -28.5 -17t-18.5 -33t-14 -46l-3 -9q-2 -6 -2 -8h-36l20 101q3 17 10 50.5t10 50.5l116 -6h273z" />
    <glyph glyph-name="eight.tallfig.tnum" horiz-adv-x="610" 
d="M82 169q0 68 125 158v13q-95 57 -95 161q0 72 58 123t134 51q89 0 142.5 -41.5t53.5 -108.5q0 -37 -28.5 -79t-70.5 -76v-9q66 -30 97.5 -69.5t31.5 -103.5q0 -79 -62 -140.5t-164 -61.5q-90 0 -156 50.5t-66 132.5zM152 168q0 -61 41 -98.5t116 -37.5q70 0 111 36t41 95
q0 57 -55.5 90.5t-167.5 64.5q-86 -63 -86 -150zM177 529q0 -54 42 -87t149 -66q62 73 62 151q0 47 -34 74.5t-91 27.5q-60 0 -94 -29.5t-34 -70.5z" />
    <glyph glyph-name="nine.tallfig.tnum" horiz-adv-x="610" 
d="M436 306l-12 12q-97 -64 -160 -64q-67 0 -121.5 48.5t-54.5 141.5q0 97 40 133q106 98 194 98q97 0 158.5 -63.5t61.5 -179.5q0 -91 -40 -184.5t-105 -150.5q-119 -89 -258 -131q-2 8 -6 21t-5 20q146 67 208.5 126t99.5 173zM307 312q87 0 146 69q2 24 2 38
q0 92 -43.5 148t-110.5 56q-60 0 -93 -39.5t-33 -105.5q0 -80 39.5 -123t92.5 -43z" />
    <glyph glyph-name="at.tallfig" horiz-adv-x="906" 
d="M752 451q0 36 -9.5 73t-31 76t-64.5 64t-102 25q-98 0 -184.5 -73.5t-136.5 -187.5t-50 -233t45.5 -179t127.5 -60q88 0 166 59l18 -35q-44 -35 -96.5 -54.5t-96.5 -19.5q-113 0 -170.5 76t-57.5 214q0 124 58 247t161 204.5t219 81.5q121 0 193 -76.5t72 -201.5
q0 -68 -21.5 -127.5t-54.5 -99.5t-72.5 -69t-76 -42.5t-65.5 -13.5q-33 0 -33 40q0 31 23 86l-19 14q-28 -40 -48.5 -65.5t-55 -51t-65.5 -25.5q-27 0 -41.5 24t-14.5 55q0 80 58 184q47 76 107.5 128t112.5 52q24 0 37 -28h16q6 16 12.5 21.5t23.5 5.5t22.5 -3t3.5 -10
l-108 -332q-5 -20 -1 -28t18 -8q18 0 47.5 20t60 55t52 93.5t21.5 124.5zM340 210q0 -29 7.5 -38t21.5 -9q35 0 97 80t105 184q9 74 -34 74q-31 0 -72 -37.5t-71 -86.5q-54 -104 -54 -167z" />
    <glyph glyph-name="dollar.tallfig" horiz-adv-x="614" 
d="M114 23l-13 181h39q15 -88 53.5 -126.5t104.5 -38.5v256h-4q-38 14 -66 28t-57.5 37.5t-45 57.5t-15.5 78q0 81 55 127t133 53v106h28v-105q57 -2 155 -29q0 -26 2 -82l3 -80h-28q-30 126 -132 140v-242q44 -16 74 -31t60 -38t45 -55.5t15 -74.5q0 -74 -51.5 -131
t-142.5 -65v-114h-28v113q-53 1 -105.5 11.5t-78.5 23.5zM440 163q0 72 -114 120v-242q53 9 83.5 40.5t30.5 81.5zM192 508q0 -64 106 -113v230q-52 -6 -79 -36.5t-27 -80.5z" />
    <glyph glyph-name="cent.tallfig" horiz-adv-x="483" 
d="M379 232l19 -26q-24 -24 -61.5 -44.5t-70.5 -27.5v-104h-32v103q-73 6 -118 62.5t-45 133.5q0 104 45 148q52 51 118 72v108h32v-99h12q60 0 96 -16l3 -123h-29q-5 44 -14 66q-4 0 -8 2h2q-22 15 -62 18v-310q8 -2 19 -2q47 0 94 39zM140 372q0 -131 94 -170v301
q-41 -9 -67.5 -41.5t-26.5 -89.5z" />
    <glyph glyph-name="sterling.tallfig" horiz-adv-x="616" 
d="M102 349h88v101q0 105 109 180q74 45 122 45q41 0 88 -19v-151h-22q-23 114 -110 114q-36 0 -68 -32.5t-32 -109.5v-128h136v-40h-136q-1 -73 -26.5 -121t-73.5 -95l6 -10q64 -6 217 -6q50 0 72 19t26 76h22l-10 -177q-27 -8 -66 -8q-45 0 -133 22q-1 0 -3.5 1t-3.5 1h1
q-78 20 -143 27q-23 -51 -59 -51q-25 0 -25 28q0 22 20 43t46 31q46 55 46 137v83h-88v40z" />
    <glyph glyph-name="yen.tallfig" horiz-adv-x="622" 
d="M340 328l142 270l-102 26v36h208v-37l-58 -29l-173 -330v-5h135v-38h-135v-58h135v-39h-135v-69l83 -15v-40h-260v40l84 15v69h-133v39h133v58h-133v38h133l-171 346l-34 8q-11 1 -25 6v41h227v-40l-77 -15l128 -277h28z" />
    <glyph glyph-name="Euro.tallfig" horiz-adv-x="723" 
d="M103 409h60q21 121 94.5 193.5t170.5 72.5q100 0 192 -64l-32 -131h-14q-3 74 -50 113.5t-96 39.5q-65 0 -111.5 -56.5t-60.5 -167.5h311l-5 -20q-4 -13 -5 -18h-304q-1 -13 -1 -41v-18h294l-8 -37h-284q11 -116 61 -179t111 -63q126 0 167 131l12 -5q3 -1 8 -2t7 -2
q-30 -79 -82.5 -123.5t-121.5 -44.5q-100 0 -171.5 76.5t-84.5 211.5h-67l10 37h54v17q0 29 1 42h-65q1 7 4.5 19t5.5 19z" />
    <glyph glyph-name="numbersign.tallfig" horiz-adv-x="577" 
d="M121 516l100 -14l44 210l39 -6l-43 -209l115 -17q7 39 23.5 116.5t24.5 115.5l39 -6l-47 -231l108 -17l-7 -57l-113 16l-36 -178l95 -14l-4 -30q-2 -8 -4 -28l-99 15l-45 -217l-39 4l44 218l-113 17l-50 -239l-20 2q-13 0 -20 1l48 241q-14 2 -51.5 8t-57.5 9q2 16 4 28
l4 28l113 -16l37 178q-16 2 -49 7.5t-47 7.5zM250 439l-36 -178l113 -17l37 178z" />
    <glyph glyph-name="percent.tallfig" horiz-adv-x="624" 
d="M336 551l-17 -3q-2 -86 -44.5 -142.5t-97.5 -56.5q-46 0 -75 37.5t-29 95.5q0 78 46 135.5t100 57.5q32 0 56 -19.5t35 -54.5q7 -17 29 -27.5t49 -10.5q55 0 97 36q24 69 48 69q17 0 17 -22q0 -30 -43 -62l-219 -306l-145 -212l-56 -82l-25 20l212 290l174 254
q-49 -17 -67 -17q-25 0 -45 20zM306 119q0 79 46 136t100 57q44 0 72 -32.5t28 -89.5q0 -91 -42.5 -147t-96.5 -56q-48 0 -77.5 37t-29.5 95zM471 271q-38 0 -71 -57.5t-33 -122.5q0 -32 14 -49t37 -17q37 0 69.5 45.5t32.5 131.5q0 33 -14 51t-35 18zM237 633
q-37 0 -70 -57.5t-33 -123.5q0 -32 14 -49t38 -17q38 0 69 46t31 130q0 34 -13.5 52.5t-35.5 18.5z" />
    <glyph glyph-name="perthousand.tallfig" horiz-adv-x="904" 
d="M588 119q0 79 46 136t101 57q44 0 71.5 -32.5t27.5 -89.5q0 -91 -42.5 -147t-96.5 -56q-48 0 -77.5 37t-29.5 95zM753 271q-38 0 -71 -57.5t-33 -122.5q0 -32 14.5 -49t36.5 -17q38 0 70 45.5t32 131.5q0 33 -14 51t-35 18zM335 551l-17 -3q-2 -86 -44.5 -142.5
t-97.5 -56.5q-46 0 -75 37.5t-29 95.5q0 78 46 135.5t100 57.5q32 0 56 -19.5t35 -54.5q7 -17 29 -27.5t49 -10.5q55 0 97 36q24 69 48 69q17 0 17 -22q0 -30 -43 -62l-219 -306l-145 -212l-56 -82l-25 20l212 290l174 254q-49 -17 -67 -17q-25 0 -45 20zM305 119
q0 79 46 136t100 57q44 0 72 -32.5t28 -89.5q0 -91 -42.5 -147t-96.5 -56q-48 0 -77.5 37t-29.5 95zM470 271q-38 0 -71 -57.5t-33 -122.5q0 -32 14 -49t37 -17q37 0 69.5 45.5t32.5 131.5q0 33 -14 51t-35 18zM236 633q-37 0 -70 -57.5t-33 -123.5q0 -32 14 -49t38 -17
q38 0 69 46t31 130q0 34 -13.5 52.5t-35.5 18.5z" />
    <glyph glyph-name="ordfeminine.tallfig" 
d="M348 362l-38 94h-144l-42 -94q18 -2 33 -5l21 -4v-33h-148v33l48 9l166 355h37l144 -354l46 -11v-32h-169v33zM243 626l-59 -131h110z" />
    <glyph glyph-name="ordmasculine.tallfig" horiz-adv-x="559" 
d="M55 510q0 104 65.5 159t156.5 55q101 0 164.5 -52.5t63.5 -141.5q0 -100 -64 -158.5t-170 -58.5q-93 0 -154.5 52.5t-61.5 144.5zM133 542q0 -95 44 -143t109 -48q56 0 98 37.5t42 116.5q0 93 -47.5 138.5t-114.5 45.5q-46 0 -88.5 -35t-42.5 -112z" />
    <glyph glyph-name="degree.tallfig" horiz-adv-x="417" 
d="M69 526q0 59 41 101t98 42t98.5 -42t41.5 -101q0 -58 -41.5 -100t-98.5 -42t-98 42t-41 100zM119 526q0 -40 24.5 -67.5t63.5 -27.5t64 28t25 67q0 40 -25 68.5t-64 28.5t-63.5 -28.5t-24.5 -68.5z" />
    <glyph glyph-name="zero.numr.tallfig" horiz-adv-x="360" 
d="M40 522q0 92 40.5 139.5t103.5 47.5q61 0 98.5 -48t37.5 -139q0 -84 -37.5 -127t-98.5 -43q-63 0 -103.5 43t-40.5 127zM106 522q0 -145 78 -145q32 0 51.5 35.5t19.5 109.5q0 82 -19.5 121.5t-51.5 39.5q-34 0 -56 -41t-22 -120z" />
    <glyph glyph-name="one.numr.tallfig" horiz-adv-x="289" 
d="M54 629l-9 28q79 25 112 50l31 -4v-313l44 -5l35 -4v-22h-218v23l77 8v258l-15 -2q-18 -8 -57 -17z" />
    <glyph glyph-name="two.numr.tallfig" horiz-adv-x="314" 
d="M143 667q-34 0 -53 -21q-12 -19 -12 -45h-37l15 70l-2 -1q17 16 48 27.5t47 11.5q50 0 84 -28.5t34 -72.5q0 -36 -49.5 -91.5t-122.5 -112.5q0 -3 4 -7l94 6q65 4 83 5v-52l-240 3l-7 24l-2 -1q98 87 137.5 134.5t39.5 84.5q0 30 -19 48t-42 18z" />
    <glyph glyph-name="three.numr.tallfig" horiz-adv-x="314" 
d="M156 378q22 0 40 17t18 48q0 37 -27 57.5t-51 17.5l-41 -5q-1 5 -4 14t-4 13q46 8 81 31t35 50q0 49 -57 49q-30 0 -50 -15q-12 -18 -12 -40h-34q2 11 7 31.5t7 30.5q18 13 47.5 22.5t46.5 9.5q48 0 76.5 -20t28.5 -49q0 -25 -24 -50t-55 -42q5 0 9 1l2 -3
q34 -9 57.5 -33.5t23.5 -57.5q0 -44 -38.5 -73.5t-89.5 -29.5q-55 0 -101 24q-3 12 -10 37t-10 37h29q19 -38 40 -57q26 -15 60 -15z" />
    <glyph glyph-name="four.numr.tallfig" horiz-adv-x="349" 
d="M191 389v78h-149l-10 23q29 54 83 117t108 107l27 -11l-3 -79v-126h62v-29h-62v-79q32 -4 37 -5q8 -2 22 -4v-22h-169v22zM80 500l111 -2v144q-66 -63 -111 -142z" />
    <glyph glyph-name="five.numr.tallfig" horiz-adv-x="312" 
d="M132 352q-38 0 -76 18l-14 6l-12 71h30q14 -37 29 -53q21 -15 39 -15q34 0 60.5 24.5t26.5 76.5q0 26 -14.5 41.5t-38.5 15.5q-42 0 -79 -28l-25 7l22 186h99l78 7q-1 -11 -4 -31t-4 -30l-59 3h-81q-3 -21 -8 -48q-6 -30 -7 -51q44 20 74 20q43 0 75 -24t32 -65
q0 -51 -29 -77q-62 -54 -114 -54z" />
    <glyph glyph-name="six.numr.tallfig" horiz-adv-x="331" 
d="M119 652q61 46 147 71l7 -26q-69 -31 -106 -65.5t-59 -91.5q51 31 86 31q37 0 68.5 -25t31.5 -73q0 -50 -24 -72q-55 -49 -107 -49q-55 0 -89 32.5t-34 94.5q0 45 22.5 94t56.5 79zM172 538q-42 0 -73 -33q1 -1 1 -5v-13q0 -48 21 -77t53 -29q29 0 44.5 20t15.5 54
q0 40 -18.5 61.5t-43.5 21.5z" />
    <glyph glyph-name="seven.numr.tallfig" horiz-adv-x="296" 
d="M270 702l16 -17q-106 -148 -127 -315q-4 -15 -41 -15q-18 0 -27 3.5t-6 12.5q21 69 47 124t45 82.5t51 69.5l-6 9h-129q-11 0 -25 -52v-2l-1 -2q-7 0 -17 -1t-16 -1q3 17 9 52.5t10 54.5l69 -3h148z" />
    <glyph glyph-name="eight.numr.tallfig" horiz-adv-x="331" 
d="M40 447q0 36 66 82l-1 6q-49 33 -49 84q0 38 32.5 64t75.5 26q50 0 80.5 -22t30.5 -56q0 -38 -53 -80v-6q69 -31 69 -89q0 -40 -35 -72t-92 -32q-51 0 -87.5 26t-36.5 69zM91 446q0 -31 19.5 -49.5t56.5 -18.5q33 0 53 18t20 47q0 30 -26.5 47t-81.5 31q-41 -31 -41 -75z
M104 633q0 -27 21 -44.5t69 -32.5q30 37 30 76q0 23 -16 37t-43 14q-28 0 -44.5 -15t-16.5 -35z" />
    <glyph glyph-name="nine.numr.tallfig" horiz-adv-x="331" 
d="M56 363l3 2v-1q74 33 107.5 64t54.5 91q-53 -29 -83 -29q-38 0 -69.5 25t-31.5 73q0 50 24 70q57 51 107 51q55 0 89 -33t34 -94q0 -50 -20 -97t-58 -77q-52 -38 -148 -69l-6 25h-1zM160 522q39 0 72 35q-1 0 -1 5v13q0 48 -21 76t-53 28q-28 0 -43.5 -19.5t-15.5 -52.5
q0 -41 18.5 -63t43.5 -22z" />
    <glyph glyph-name="zero.dnom.tallfig" horiz-adv-x="360" 
d="M40 164q0 92 40.5 140t103.5 48q60 0 98 -48.5t38 -139.5q0 -84 -37.5 -127t-98.5 -43q-63 0 -103.5 43t-40.5 127zM106 164q0 -145 78 -145q32 0 51.5 35.5t19.5 109.5q0 82 -19.5 121.5t-51.5 39.5q-34 0 -56 -41t-22 -120z" />
    <glyph glyph-name="one.dnom.tallfig" horiz-adv-x="289" 
d="M54 271l-9 28q76 24 112 51l31 -4v-314l44 -5l35 -4v-22h-218v23l77 8v258l-15 -2q-18 -8 -57 -17z" />
    <glyph glyph-name="two.dnom.tallfig" horiz-adv-x="314" 
d="M143 309q-34 0 -53 -21q-12 -19 -12 -44h-37l15 69l-2 -1q17 17 47.5 28.5t47.5 11.5q50 0 84 -29t34 -73q0 -36 -49.5 -91.5t-122.5 -112.5q0 -3 4 -7l94 6q65 4 83 5v-52l-240 3l-7 24l-2 -1q98 87 137.5 134.5t39.5 85.5q0 29 -19 47t-42 18z" />
    <glyph glyph-name="three.dnom.tallfig" horiz-adv-x="314" 
d="M156 20q22 0 40 17t18 49q0 36 -27 56.5t-51 17.5l-41 -5q-1 5 -4 14t-4 13q45 8 80.5 31.5t35.5 49.5q0 49 -57 49q-30 0 -50 -15q-12 -18 -12 -40h-34q2 11 7 31.5t7 30.5q18 14 47.5 23.5t46.5 9.5q48 0 76.5 -20t28.5 -50q0 -46 -79 -92q5 0 9 1l2 -3
q34 -9 57.5 -33.5t23.5 -56.5q0 -45 -38.5 -74.5t-89.5 -29.5q-55 0 -101 24q-3 12 -10 37t-10 38h29q20 -39 40 -58q26 -15 60 -15z" />
    <glyph glyph-name="four.dnom.tallfig" horiz-adv-x="349" 
d="M191 31v79h-149l-10 22q29 54 83 116.5t108 108.5l27 -11l-3 -80v-126h62v-29h-62v-79q32 -4 37 -5q8 -2 22 -4v-22h-169v22zM80 142l111 -2v144q-66 -63 -111 -142z" />
    <glyph glyph-name="five.dnom.tallfig" horiz-adv-x="312" 
d="M132 -6q-38 0 -76 18l-14 6l-12 72h30q13 -37 29 -54q21 -15 39 -15q34 0 60.5 24.5t26.5 76.5q0 26 -14.5 41.5t-38.5 15.5q-42 0 -79 -28l-25 7l22 187h99l78 7q-1 -11 -4 -31.5t-4 -30.5l-59 3h-81q-3 -21 -8 -48q-6 -28 -7 -51q42 21 74 21q43 0 75 -24.5t32 -65.5
q0 -51 -29 -77q-62 -54 -114 -54z" />
    <glyph glyph-name="six.dnom.tallfig" horiz-adv-x="331" 
d="M119 294q64 47 147 72l7 -26q-70 -32 -106.5 -66.5t-58.5 -91.5q51 32 86 32q37 0 68.5 -25.5t31.5 -73.5q0 -50 -24 -72q-55 -49 -107 -49q-55 0 -89 32.5t-34 94.5q0 45 22.5 94t56.5 79zM172 180q-42 0 -73 -33q1 -1 1 -5v-13q0 -48 21 -77t53 -29q29 0 44.5 20.5
t15.5 54.5q0 39 -18.5 60.5t-43.5 21.5z" />
    <glyph glyph-name="seven.dnom.tallfig" horiz-adv-x="296" 
d="M270 345l16 -18q-106 -147 -127 -315q-4 -15 -41 -15q-18 0 -27 3.5t-6 12.5q30 99 62.5 157t80.5 119l-6 9h-129q-11 0 -25 -52v-1q-1 -1 -1 -2q-7 0 -17 -1t-16 -1q4 19 10 54.5t9 52.5l69 -3h148z" />
    <glyph glyph-name="eight.dnom.tallfig" horiz-adv-x="331" 
d="M40 90q0 35 66 81l-1 6q-49 33 -49 84q0 38 32.5 64.5t75.5 26.5q50 0 80.5 -22.5t30.5 -56.5q0 -36 -53 -80v-6q69 -31 69 -88q0 -41 -34.5 -73t-92.5 -32q-51 0 -87.5 26t-36.5 70zM91 89q0 -32 19.5 -50.5t56.5 -18.5q33 0 53 18t20 48q0 29 -26.5 46t-81.5 31
q-41 -31 -41 -74zM104 275q0 -26 21 -43.5t69 -33.5q30 39 30 76q0 23 -16 37t-43 14q-28 0 -44.5 -15t-16.5 -35z" />
    <glyph glyph-name="nine.dnom.tallfig" horiz-adv-x="331" 
d="M56 5l3 2v-1q73 33 107 64t55 91q-53 -29 -83 -29q-38 0 -69.5 25t-31.5 74t24 69q58 52 107 52q55 0 89 -33t34 -94q0 -51 -20 -97.5t-58 -77.5q-52 -38 -148 -69l-6 25h-1zM160 164q39 0 72 35q-1 0 -1 6v13q0 47 -21 75t-53 28q-28 0 -43.5 -19.5t-15.5 -52.5
q0 -41 18.5 -63t43.5 -22z" />
    <glyph glyph-name="uni2032.tallfig" horiz-adv-x="310" 
d="M78 458l69 263q15 -5 43.5 -15.5t43.5 -15.5l-112 -247q-6 2 -21.5 7t-22.5 8z" />
    <glyph glyph-name="uni2033.tallfig" 
d="M78 458l69 263q15 -5 43.5 -15.5t43.5 -15.5l-112 -247q-6 2 -21.5 7t-22.5 8zM269 458l70 263q15 -5 43 -15.5t43 -15.5l-112 -247q-6 2 -21.5 7t-22.5 8z" />
    <glyph glyph-name="dotaccentlow" 
d="M190 -129q0 26 17.5 45t42.5 19t43 -19t18 -45t-18 -44t-43 -18t-42.5 18t-17.5 44z" />
    <glyph glyph-name="acute.lchigh" 
d="M194 512v6l-1 -1l86 129h87v-8l2 1l-129 -127h-45z" />
    <glyph glyph-name="parenleft.c2sc" horiz-adv-x="362" 
d="M313 -105l-25 -27q-133 76 -169 209q-15 72 -15 159q0 83 17 163q16 58 59.5 109.5t105.5 87.5q4 -6 13 -15.5t13 -15.5q-100 -72 -127 -177q-10 -71 -10 -158q0 -74 4 -127q10 -126 134 -208z" />
    <glyph glyph-name="parenright.c2sc" horiz-adv-x="362" 
d="M76 -132l-27 28q124 81 134 207q4 55 4 127q0 87 -10 158q-25 105 -127 177q4 6 14 16.5t13 14.5q132 -78 165 -197q17 -80 17 -163q0 -87 -15 -159q-33 -131 -168 -209z" />
    <glyph glyph-name="bracketleft.c2sc" horiz-adv-x="349" 
d="M293 589v-38l-135 -11v-610l71 -5l64 -6v-39h-198v709h198z" />
    <glyph glyph-name="bracketright.c2sc" horiz-adv-x="349" 
d="M56 551v38h199v-709h-199v39l65 6l70 5v610q-21 1 -66.5 5t-68.5 6z" />
    <glyph glyph-name="braceleft.c2sc" horiz-adv-x="431" 
d="M145 252l-4 -6q51 -8 87 -40t36 -77q0 -24 -17 -67l-1 -2q-1 -2 -1 -3q-17 -45 -17 -77q0 -65 126 -66v-37q-108 0 -149.5 27.5t-43.5 83.5l34 147q-1 39 -36 62t-91 24v53q54 1 89.5 25.5t37.5 56.5l-33 136q2 51 45 74.5t142 23.5v-36q-118 0 -121 -54l36 -139
q-2 -39 -36.5 -69t-82.5 -40z" />
    <glyph glyph-name="braceright.c2sc" horiz-adv-x="431" 
d="M285 245l4 6q-49 10 -85 40.5t-38 69.5l37 139q-3 54 -121 54v36q98 -1 141 -24.5t45 -73.5l-33 -136q2 -32 38 -56.5t90 -25.5v-53q-57 -1 -92 -24t-36 -62l34 -147q-2 -56 -43 -83t-149 -28v37q126 1 126 66q0 27 -18 77v-1l-2 6q-17 43 -17 67q0 45 35 77t84 39z" />
    <glyph glyph-name="quotesingle.c2sc" horiz-adv-x="328" 
d="M149 262l-27 306h85l-23 -306h-35z" />
    <glyph glyph-name="quotedbl.c2sc" horiz-adv-x="507" 
d="M148 262l-27 306h85l-23 -306h-35zM328 262l-27 306h85l-22 -306h-36z" />
    <glyph glyph-name="uni2032.c2sc" horiz-adv-x="310" 
d="M78 307l69 263q15 -5 43.5 -15.5t43.5 -15.5l-112 -247q-6 2 -21.5 7t-22.5 8z" />
    <glyph glyph-name="uni2033.c2sc" 
d="M78 307l69 263q15 -5 43.5 -15.5t43.5 -15.5l-112 -247q-6 2 -21.5 7t-22.5 8zM269 307l70 263q15 -5 43 -15.5t43 -15.5l-112 -247q-6 2 -21.5 7t-22.5 8z" />
    <glyph glyph-name="ampersand.c2sc" horiz-adv-x="803" 
d="M698 270l-135 6q15 -34 15 -70q0 -71 -48 -125q51 -18 93 -18l74 30q3 -5 10.5 -14.5t11.5 -16.5l-80 -74q-79 1 -168 43q-75 -43 -168 -43q-105 0 -161 40t-56 106q0 78 104 154q-35 68 -35 131q0 51 32.5 83t88.5 32q51 0 79 -28.5t28 -81.5q0 -44 -27 -77.5t-78 -73.5
q76 -100 197 -167q29 43 29 88q0 43 -25 87q-16 1 -49 3t-48 2l9 40l307 13v-69zM311 30q58 0 109 27q-116 71 -192 174q-57 -57 -57 -110q0 -44 39.5 -67.5t100.5 -23.5zM225 390q0 -23 20 -65q25 17 37 26t27.5 23t22 26.5t6.5 25.5q0 23 -14.5 37t-35.5 14
q-30 0 -46.5 -24.5t-16.5 -62.5z" />
    <glyph glyph-name="asterisk.c2sc" horiz-adv-x="509" 
d="M384 338l-127 40l49 -114q10 -24 -1 -39t-31 -15q-14 0 -22.5 8t-7.5 24l-7 134l-113 -83q-15 -7 -29.5 3t-14.5 26q0 29 31 37l113 37l-103 85q-20 15 -11 34.5t30 19.5q16 0 28 -18l76 -109l50 114q7 26 28 26q22 0 34.5 -18.5t-3.5 -40.5l-89 -89l118 2q18 1 27.5 -9
t9.5 -24q0 -15 -10 -25.5t-26 -5.5h1z" />
    <glyph glyph-name="uni2042.c2sc" horiz-adv-x="789" 
d="M505 369l-114 36l44 -101q9 -22 -1 -35.5t-27 -13.5q-12 0 -19.5 7.5t-6.5 21.5l-6 119l-102 -73q-13 -6 -25.5 3t-12.5 23q0 25 27 32l101 33l-92 76q-17 13 -9.5 30.5t26.5 17.5q12 0 24 -16l67 -99l46 103q5 22 24 22t29.5 -16.5t-1.5 -34.5l-80 -79l106 1
q15 1 23.5 -8t8.5 -21q0 -13 -9 -22.5t-22 -5.5h1zM341 62l-113 37l44 -101q9 -22 -1 -35.5t-28 -13.5q-11 0 -18.5 7.5t-6.5 21.5l-7 119l-102 -73q-13 -6 -25 3t-12 23q0 25 26 32l101 33l-92 75q-17 14 -8.5 31.5t26.5 17.5q11 0 23 -16l68 -99l46 103q6 22 24 22
t29 -16.5t-2 -35.5l-79 -78l105 1q15 1 23.5 -8t8.5 -21q0 -13 -9 -23t-22 -6h1zM687 62l-113 37l45 -101q9 -22 -1.5 -35.5t-28.5 -13.5q-11 0 -18.5 7.5t-6.5 21.5l-7 119l-102 -73q-13 -6 -25 3t-12 23q0 25 26 32l101 33l-92 75q-17 14 -8.5 31.5t27.5 17.5q11 0 23 -16
l67 -99l47 103q5 22 24 22q18 0 28.5 -16.5t-1.5 -35.5l-80 -78l105 1q15 1 23.5 -8t8.5 -21q0 -13 -9 -23t-22 -6h1z" />
    <glyph glyph-name="slash.c2sc" horiz-adv-x="451" 
d="M395 543l-278 -631h-59q47 108 144 326t135 305h58z" />
    <glyph glyph-name="backslash.c2sc" horiz-adv-x="451" 
d="M336 -88l-279 631h59l278 -631h-58z" />
    <glyph glyph-name="at.c2sc" horiz-adv-x="743" 
d="M608 339q0 25 -7.5 51.5t-24.5 54t-51 45t-80 17.5q-77 0 -146.5 -53t-109 -135t-39.5 -167t36 -127.5t100 -42.5q70 0 134 45q5 -6 11.5 -17.5t8.5 -15.5q-79 -56 -162 -56q-92 0 -139.5 56t-47.5 158q0 92 47 182t131 150t179 60q99 0 158 -56.5t59 -148.5
q0 -63 -26.5 -115.5t-65 -82.5t-77.5 -46.5t-69 -16.5t-30 33q0 23 17 60l-8 7q-82 -101 -138 -101q-23 0 -36 18.5t-13 42.5q0 58 48 136q38 55 88 93.5t92 38.5q19 0 35 -26q7 14 14 19.5t22 5.5q18 0 23.5 -4t-0.5 -14l-84 -237q-3 -12 -1 -16t10 -4q37 0 89.5 59.5
t52.5 149.5zM284 162q0 -30 19 -30q29 0 77 57t82 132q9 48 -23 48q-54 0 -113 -88q-42 -71 -42 -119z" />
    <glyph glyph-name="section.c2sc" horiz-adv-x="529" 
d="M373 222q0 20 -23.5 33t-74.5 30l-8 3l-19 5q-18 5 -45 15q-44 -14 -44 -50q0 -17 18.5 -31.5t36.5 -20.5t56 -18q38 -9 66 -20q37 30 37 54zM264 -47q44 0 71 25t27 68q0 17 -9 30.5t-29 23t-36 15.5t-45 14q-27 7 -42 11.5t-36.5 14t-33 20t-20.5 28t-9 38.5
q0 60 64 91q-36 31 -36 61q0 56 53 107t131 51q17 0 42 -10.5t43 -28.5h-2q8 -27 -13 -48t-42 -23q-28 52 -76 52q-30 0 -55 -22.5t-25 -49.5q0 -32 102 -69q7 -3 10 -4q42 -15 64 -24.5t44.5 -30.5t22.5 -47q0 -55 -59 -93q56 -36 56 -82q0 -64 -55.5 -117t-103.5 -53
q-42 0 -91.5 20.5t-74.5 66.5l1 -1q8 54 47 60q19 -46 50 -70t65 -24z" />
    <glyph glyph-name="paragraph.c2sc" horiz-adv-x="529" 
d="M466 537v-54h-46v-583h-49v583h-53v-583h-48v292q-103 1 -159.5 47.5t-56.5 126.5q0 78 56 124.5t144 46.5h212zM270 240v243q-59 -1 -94 -34t-35 -86q0 -54 34 -88t95 -35z" />
    <glyph glyph-name="registered.c2sc" horiz-adv-x="598" 
d="M298 381h-24v-81l32 -4v-16h-103v16l28 4v198q-4 0 -13.5 2t-14.5 3v16h104q28 0 52.5 -13.5t24.5 -43.5q0 -45 -41 -70l13 -23q4 -6 20 -30.5t25 -36.5l11 -7q-1 -3 -3 -8t-2 -7q-9 1 -23.5 4t-22.5 4zM274 497v-95h27q19 1 28.5 11t9.5 36q0 48 -44 48h-21zM89 394
q0 88 62 151t148 63q90 0 150.5 -62.5t60.5 -151.5q0 -88 -62.5 -151t-148.5 -63q-88 0 -149 61t-61 153zM123 393q0 -77 49.5 -127.5t127.5 -50.5q73 0 124.5 51t51.5 127q0 78 -51 128.5t-126 50.5q-81 0 -128.5 -50.5t-47.5 -128.5z" />
    <glyph glyph-name="copyright.c2sc" horiz-adv-x="793" 
d="M414 125q28 0 55 9q5 9 16.5 29.5t16.5 29.5h26q-2 -14 -8.5 -40.5t-8.5 -39.5l-13 -4q-50 -16 -90 -16q-75 0 -123 45t-48 126t48.5 126.5t128.5 45.5q54 0 98 -23l4 -81h-25l-19 52q-22 24 -65 24q-40 0 -74.5 -32t-34.5 -97q0 -84 36 -119t80 -35zM92 266
q0 126 90 216.5t215 90.5q130 0 217 -89.5t87 -217.5q0 -127 -89.5 -217.5t-214.5 -90.5q-127 0 -216 87t-89 221zM141 264q0 -112 72 -186t185 -74t183.5 73.5t70.5 186.5q0 115 -72.5 190t-182.5 75q-112 0 -184 -76t-72 -189z" />
    <glyph glyph-name="uni2117.c2sc" horiz-adv-x="793" 
d="M408 233v22q29 1 45.5 22.5t16.5 59.5q0 63 -61 63h-33v-269q6 -1 22.5 -4t24.5 -4v-24h-145v24l39 8v268l-39 8v25h141q62 0 87 -23t25 -67q0 -48 -35 -78t-88 -31zM92 266q0 126 90 216.5t215 90.5q130 0 217 -89.5t87 -217.5q0 -127 -89.5 -217.5t-214.5 -90.5
q-127 0 -216 87t-89 221zM141 264q0 -112 72 -186t185 -74t183.5 73.5t70.5 186.5q0 115 -72.5 190t-182.5 75q-112 0 -184 -76t-72 -189z" />
    <glyph glyph-name="trademark.c2sc" horiz-adv-x="760" 
d="M586 498h-17q-13 -30 -39 -90.5t-39 -90.5h-7l-75 181h-15l-15 -154l33 -7v-20h-83v21l34 6l19 196l-38 6v20h84l63 -166h17q13 32 40 94.5t31 71.5h83v-20l-35 -6l12 -196l31 -6v-21h-109v21l34 6zM103 566h201l14 -70h-12l-32 47h-46v-199l32 -6v-21h-112v21l32 6v199
h-45l-33 -47h-12z" />
    <glyph glyph-name="zero.c2sc" horiz-adv-x="576" 
d="M72 255q0 143 62.5 216.5t160.5 73.5q94 0 153 -74.5t59 -215.5q0 -130 -59 -198t-153 -68q-98 0 -160.5 67.5t-62.5 198.5zM167 256q0 -116 35.5 -169.5t92.5 -53.5q53 0 85 54.5t32 168.5q0 125 -32.5 185.5t-84.5 60.5q-55 0 -91.5 -63t-36.5 -183z" />
    <glyph glyph-name="one.c2sc" horiz-adv-x="462" 
d="M91 419l-15 48q136 44 177 75l44 -4v-485l125 -13v-40h-337v39l122 15v398l-36 -11q-34 -12 -80 -22z" />
    <glyph glyph-name="two.c2sc" horiz-adv-x="502" 
d="M229 478q-52 0 -87 -35q-21 -30 -21 -69h-50l23 115q27 23 73.5 39.5t71.5 16.5q78 0 130.5 -44.5t52.5 -114.5q0 -55 -79.5 -141.5t-192.5 -170.5l3 -11q258 17 283 18v-85l-372 4l-14 42q152 131 214 204.5t62 130.5q0 44 -30 72.5t-67 28.5z" />
    <glyph glyph-name="three.c2sc" horiz-adv-x="502" 
d="M251 34q36 0 66.5 26t30.5 74q0 50 -43.5 81t-83.5 32l-63 -10l-13 48q73 12 127.5 46.5t54.5 74.5q0 76 -91 76q-53 0 -82 -25q-21 -32 -21 -62h-46l23 102q28 19 74.5 33.5t70.5 14.5q75 0 119 -30.5t44 -78.5q0 -41 -34.5 -78t-79.5 -60q57 -14 95.5 -54.5t38.5 -92.5
q0 -69 -60 -115.5t-138 -46.5q-91 0 -158 37q-5 20 -16.5 60t-16.5 60h40q22 -47 67 -89q46 -23 95 -23z" />
    <glyph glyph-name="four.c2sc" horiz-adv-x="559" 
d="M309 54v114h-236q-14 26 -18 36q48 84 133.5 182t168.5 166l38 -14l-4 -127v-193h99v-49h-99v-115l50 -8q12 -3 43 -7v-39h-260v39zM309 429l-8 4q-97 -86 -172 -209q0 -1 5 -6h175v211z" />
    <glyph glyph-name="five.c2sc" 
d="M213 -11q-58 0 -116 27l-24 10l-20 116h42q19 -53 46 -83q33 -24 66 -24q55 0 98 37t43 116q0 41 -24 64.5t-63 23.5q-71 0 -126 -43q-5 2 -11 3.5t-13.5 3t-11.5 2.5q6 49 18 146.5t17 146.5h156l118 10l-14 -98l-89 5h-133l-18 -142q2 -5 10 -5q20 10 53 20t52 10
q68 0 117.5 -38t49.5 -105q0 -80 -44 -118q-91 -85 -179 -85z" />
    <glyph glyph-name="six.c2sc" horiz-adv-x="530" 
d="M193 456q99 73 228 109l11 -41q-118 -52 -173 -102t-89 -141q88 52 139 52q60 0 108 -39.5t48 -116.5q0 -74 -36 -109v1q-97 -80 -168 -80q-85 0 -138 51t-53 146q0 72 35 147.5t88 122.5zM275 278q-69 0 -115 -51q-2 -18 -2 -29q0 -72 34 -116t87 -44q46 0 72.5 31
t26.5 82q0 60 -31 93.5t-72 33.5z" />
    <glyph glyph-name="seven.c2sc" horiz-adv-x="473" 
d="M428 535l25 -27q-171 -233 -204 -489q-4 -25 -61 -25q-24 0 -37.5 6.5t-10.5 19.5q51 151 104.5 247t122.5 182l-7 10h-210q-24 0 -43 -74q-1 -2 -3 -6.5t-2 -7.5h-47l38 169l102 -5h233z" />
    <glyph glyph-name="eight.c2sc" horiz-adv-x="529" 
d="M70 139q0 57 103 127v8q-78 45 -78 129q0 60 49.5 101t118.5 41q78 0 125 -34t47 -89q0 -30 -24 -64t-60 -61q56 -27 82 -58.5t26 -84.5q0 -64 -53.5 -114.5t-142.5 -50.5q-79 0 -136 41t-57 109zM143 138q0 -47 32.5 -75.5t92.5 -28.5q54 0 86.5 27.5t32.5 72.5
q0 42 -45 68.5t-133 49.5q-66 -45 -66 -114zM164 426q0 -40 33.5 -66t115.5 -51q49 53 49 115q0 35 -27.5 56t-70.5 21q-47 0 -73.5 -22.5t-26.5 -52.5z" />
    <glyph glyph-name="nine.c2sc" horiz-adv-x="530" 
d="M97 11l3 2v-1q119 53 172.5 101t87.5 140q-87 -51 -138 -51q-60 0 -108.5 39.5t-48.5 116.5q0 74 38 108q91 79 167 79q85 0 138 -50.5t53 -145.5q0 -80 -31.5 -153t-90.5 -117q-91 -69 -229 -109l-10 42h-1q-1 -1 -2 -1zM257 258q66 0 115 51q2 18 2 29q0 71 -35 114.5
t-87 43.5q-46 0 -72 -30.5t-26 -81.5q0 -60 31 -93t72 -33z" />
    <glyph glyph-name="zero.c2sc.tnum" 
d="M42 255q0 142 60.5 216t154.5 74q90 0 146.5 -74.5t56.5 -215.5q0 -130 -56.5 -198t-146.5 -68q-94 0 -154.5 67.5t-60.5 198.5zM134 256q0 -116 34 -169.5t89 -53.5q50 0 81.5 54.5t31.5 168.5q0 124 -31.5 185t-81.5 61q-53 0 -88 -63t-35 -183z" />
    <glyph glyph-name="one.c2sc.tnum" 
d="M103 419l-15 48q136 44 177 75l44 -4v-485l125 -13v-40h-337v39l122 15v398l-36 -11q-34 -12 -80 -22z" />
    <glyph glyph-name="two.c2sc.tnum" 
d="M227 478q-52 0 -87 -35q-21 -30 -21 -69h-50l23 115q27 23 73.5 39.5t71.5 16.5q78 0 130.5 -44.5t52.5 -114.5q0 -55 -79.5 -141.5t-192.5 -170.5l3 -11q258 17 283 18v-85l-372 4l-14 42q152 131 214 204.5t62 130.5q0 44 -30 72.5t-67 28.5z" />
    <glyph glyph-name="three.c2sc.tnum" 
d="M254 34q36 0 66.5 26t30.5 74q0 50 -43.5 81t-83.5 32l-63 -10l-13 48q73 12 127.5 46.5t54.5 74.5q0 76 -91 76q-53 0 -82 -25q-21 -32 -21 -62h-46l23 102q28 19 74.5 33.5t70.5 14.5q75 0 119 -30.5t44 -78.5q0 -41 -34.5 -78t-79.5 -60q57 -14 95.5 -54.5t38.5 -92.5
q0 -69 -60 -115.5t-138 -46.5q-91 0 -158 37q-5 20 -16.5 60t-16.5 60h40q22 -47 67 -89q46 -23 95 -23z" />
    <glyph glyph-name="four.c2sc.tnum" 
d="M281 54v114h-237q-11 20 -17 36q48 84 133 182t168 166l39 -14l-4 -127v-193h98v-49h-98v-115l50 -8q14 -3 42 -7v-39h-260v39zM281 429l-8 4q-97 -86 -172 -209q0 -1 5 -6h175v211z" />
    <glyph glyph-name="five.c2sc.tnum" 
d="M217 -11q-58 0 -116 27l-24 10l-20 116h42q19 -53 46 -83q33 -24 66 -24q55 0 98 37t43 116q0 41 -24 64.5t-63 23.5q-71 0 -126 -43l-36 9q5 49 17 146.5t18 146.5h156l118 10l-14 -98l-89 5h-133l-18 -142q2 -5 10 -5q20 10 53 20t52 10q68 0 117.5 -38t49.5 -105
q0 -80 -44 -118q-91 -85 -179 -85z" />
    <glyph glyph-name="six.c2sc.tnum" 
d="M181 456q100 74 228 109l11 -41q-118 -52 -173 -102t-89 -141q88 52 139 52q60 0 108 -39.5t48 -116.5q0 -74 -36 -109v1q-97 -80 -168 -80q-85 0 -138.5 51t-53.5 146q0 72 35.5 147.5t88.5 122.5zM263 278q-69 0 -115 -51q-2 -18 -2 -29q0 -72 34 -116t87 -44
q46 0 72.5 31.5t26.5 81.5q0 60 -31 93.5t-72 33.5z" />
    <glyph glyph-name="seven.c2sc.tnum" 
d="M444 535l26 -27q-172 -232 -205 -489q-4 -25 -60 -25q-25 0 -38.5 6t-10.5 20q51 151 104.5 247t122.5 182l-7 10h-210q-24 0 -43 -74q-1 -2 -3 -6.5t-2 -7.5h-46l37 169l103 -5h232z" />
    <glyph glyph-name="eight.c2sc.tnum" 
d="M55 139q0 56 104 127v8q-78 45 -78 129q0 60 49.5 101t118.5 41q78 0 125 -34t47 -89q0 -30 -24 -64t-60 -61q56 -27 82 -58.5t26 -84.5q0 -64 -53.5 -114.5t-142.5 -50.5q-79 0 -136.5 41t-57.5 109zM129 138q0 -47 32.5 -75.5t92.5 -28.5q53 0 86 28t33 72
q0 42 -45 68.5t-134 49.5q-65 -46 -65 -114zM150 426q0 -41 33.5 -66.5t115.5 -50.5q49 53 49 115q0 35 -27.5 56t-70.5 21q-47 0 -73.5 -22.5t-26.5 -52.5z" />
    <glyph glyph-name="nine.c2sc.tnum" 
d="M89 11l3 2v-1q119 53 172.5 101t87.5 140q-87 -51 -138 -51q-60 0 -108.5 39.5t-48.5 116.5q0 75 38 108q91 79 167 79q85 0 138 -50.5t53 -145.5q0 -80 -32 -153t-91 -117q-89 -69 -228 -109l-10 42h-1q-1 -1 -2 -1zM249 258q66 0 115 51q2 18 2 29q0 71 -35 114.5
t-87 43.5q-46 0 -72 -30.5t-26 -81.5q0 -61 30.5 -93.5t72.5 -32.5z" />
    <glyph glyph-name="dollar.c2sc" horiz-adv-x="513" 
d="M91 19l-11 140h44q10 -67 39.5 -94.5t80.5 -29.5v189q-70 23 -113 58t-43 96t45.5 96.5t110.5 42.5v81h34v-81q69 -4 127 -22l4 -126h-34q-21 89 -97 105v-180q75 -25 117.5 -59t42.5 -92q0 -56 -42.5 -99.5t-117.5 -50.5v-89h-34v87q-95 3 -153 28zM360 126q0 50 -82 87
v-176q82 18 82 89zM167 388q0 -42 77 -81v167q-77 -13 -77 -86z" />
    <glyph glyph-name="cent.c2sc" horiz-adv-x="483" 
d="M379 101l19 -26q-24 -24 -61.5 -44.5t-70.5 -27.5v-104h-32v103q-73 6 -118 62.5t-45 133.5q0 104 45 148q52 51 118 72v108h32v-99h12q60 0 96 -16l3 -123h-29q-5 44 -14 66q-4 0 -8 2h2q-22 15 -62 18v-310q8 -2 19 -2q47 0 94 39zM140 241q0 -131 94 -170v301
q-41 -9 -67.5 -41.5t-26.5 -89.5z" />
    <glyph glyph-name="sterling.c2sc" horiz-adv-x="514" 
d="M82 270h73v74q0 83 92 139q58 34 104 34q30 0 78 -16v-118h-30q-18 88 -84 88q-28 0 -52.5 -25t-24.5 -82v-94h112v-35h-112q-3 -90 -82 -163l5 -6q53 -3 174 -3q39 0 54.5 14t19.5 58h30l-9 -137q-27 -8 -60 -8q-38 0 -108 17l-18 4q-62 13 -101 17q-20 -38 -54 -38
q-27 0 -27 24q0 16 17 32.5t40 25.5q36 41 36 101v62h-73v35z" />
    <glyph glyph-name="yen.c2sc" horiz-adv-x="519" 
d="M280 254l113 201l-82 20v31h183v-31l-51 -23l-142 -252h113v-32h-111v-40h111v-33h-111v-48q11 -1 34.5 -6t33.5 -6v-35h-226v35l70 12v48h-110v33h110v40h-110v32h110l-141 259l-21 5q-22 7 -28 8v34h198v-34l-60 -13l103 -205h14z" />
    <glyph glyph-name="Euro.c2sc" horiz-adv-x="604" 
d="M83 315h51q18 92 80 147t144 55q92 0 164 -50q-4 -17 -13 -51t-13 -52h-22q2 62 -35 89t-81 27q-52 0 -89 -42t-47 -123h257l-9 -33h-252v-40h244l-9 -33h-233q10 -86 49.5 -132.5t86.5 -46.5q102 0 134 101l32 -10q-46 -131 -174 -131q-85 0 -145.5 57.5t-72.5 161.5
h-56l9 33h45v11q0 20 1 29h-55z" />
    <glyph glyph-name="numbersign.c2sc" horiz-adv-x="482" 
d="M98 398l83 -12q6 26 19 80t18 81q8 -1 22 -3.5t21 -3.5l-35 -159l82 -12l40 178q8 -1 22 -3.5t21 -3.5l-39 -176q13 -1 44.5 -5.5l45.5 -6.5l-6 -47l-94 12l-29 -131l78 -11l-6 -50l-83 12q-5 -27 -18 -82.5t-18 -82.5q-7 1 -22.5 3t-21.5 2l36 165l-83 11l-40 -181
q-7 1 -22.5 3t-21.5 2l40 181l-89 13l6 49l93 -12l29 131l-78 10zM215 332l-29 -129l83 -13l29 131z" />
    <glyph glyph-name="percent.c2sc" horiz-adv-x="521" 
d="M318 403q-18 0 -45 18q-3 -68 -39.5 -112t-83.5 -44q-40 0 -66 29t-26 74q0 60 40 104.5t86 44.5q28 0 50 -15.5t32 -41.5q11 -27 58 -27q40 0 74 26q20 53 46 53q20 0 20 -19q0 -24 -38 -49l-181 -232l-168 -227l-28 21l177 222l82 114l52 70q-26 -9 -42 -9zM251 93
q0 61 39.5 105t86.5 44q39 0 63.5 -25.5t24.5 -69.5q0 -70 -37.5 -113.5t-83.5 -43.5q-42 0 -67.5 29t-25.5 74zM391 206q-28 0 -53.5 -43t-25.5 -92q0 -23 10 -35.5t26 -12.5q29 0 54 34t25 98q0 25 -10 38t-26 13zM199 480q-29 0 -54 -42.5t-25 -91.5q0 -48 38 -48
q28 0 52 34.5t24 96.5q0 51 -35 51z" />
    <glyph glyph-name="perthousand.c2sc" horiz-adv-x="755" 
d="M318 403q-18 0 -45 18q-3 -68 -39.5 -112t-83.5 -44q-40 0 -66 29t-26 74q0 60 40 104.5t86 44.5q28 0 50 -15.5t32 -41.5q11 -27 58 -27q40 0 74 26q20 53 46 53q20 0 20 -19q0 -24 -38 -49l-181 -232l-168 -227l-28 21l177 222l82 114l52 70q-26 -9 -42 -9zM484 93
q0 61 40 105t87 44q39 0 63.5 -25.5t24.5 -69.5q0 -70 -37.5 -113.5t-83.5 -43.5q-42 0 -68 29t-26 74zM251 93q0 61 39.5 105t86.5 44q39 0 63.5 -25.5t24.5 -69.5q0 -70 -37.5 -113.5t-83.5 -43.5q-42 0 -67.5 29t-25.5 74zM625 206q-28 0 -53.5 -43t-25.5 -92
q0 -23 10 -35.5t26 -12.5q29 0 54 34t25 98q0 25 -10 38t-26 13zM391 206q-28 0 -53.5 -43t-25.5 -92q0 -23 10 -35.5t26 -12.5q29 0 54 34t25 98q0 25 -10 38t-26 13zM200 480q-29 0 -54.5 -42.5t-25.5 -91.5q0 -48 38 -48q28 0 52 34.5t24 96.5q0 25 -9.5 38t-24.5 13z
" />
    <glyph glyph-name="ordfeminine.c2sc" horiz-adv-x="390" 
d="M272 282l-31 71h-109l-33 -71l36 -5l1 -1h3q1 -1 3 -1v-22h-120v20l40 9q20 43 62.5 131t63.5 132h34l113 -262q5 -1 17 -4.5t18 -4.5v-21h-135v23zM190 475l-43 -94h82z" />
    <glyph glyph-name="ordmasculine.c2sc" horiz-adv-x="436" 
d="M42 392q0 77 51.5 117.5t123.5 40.5q79 0 129 -38.5t50 -104.5q0 -74 -50.5 -117t-133.5 -43q-73 0 -121.5 38.5t-48.5 106.5zM106 416q0 -71 33.5 -106.5t84.5 -35.5q43 0 75 28t32 86q0 69 -36.5 103t-87.5 34q-36 0 -68.5 -26t-32.5 -83z" />
    <glyph glyph-name="degree.c2sc" horiz-adv-x="417" 
d="M69 425q0 59 41 101t98 42t98.5 -42t41.5 -101q0 -58 -41.5 -100t-98.5 -42t-98 42t-41 100zM119 425q0 -40 24.5 -67.5t63.5 -27.5t64 28t25 67q0 41 -24.5 69t-64.5 28q-39 0 -63.5 -28t-24.5 -69z" />
    <glyph glyph-name="exclam.c2sc" horiz-adv-x="372" 
d="M131 47q0 22 16.5 38t39.5 16t39.5 -16t16.5 -38t-16.5 -37.5t-39.5 -15.5t-39.5 15.5t-16.5 37.5zM219 581l19 -9q-6 -67 -18 -200.5t-17 -201.5q-7 -1 -17 -2.5t-16 -1.5l-31 379q15 7 41.5 18.5t38.5 17.5z" />
    <glyph glyph-name="exclamdown.c2sc" horiz-adv-x="372" 
d="M242 492q0 -23 -16.5 -38.5t-40.5 -15.5q-22 0 -38.5 16t-16.5 38t16.5 37.5t38.5 15.5q24 0 40.5 -15.5t16.5 -37.5zM154 -42l-19 9q6 68 18 201.5t17 200.5q6 0 16 1.5t17 2.5l31 -379q-14 -7 -40.5 -18.5t-39.5 -17.5z" />
    <glyph glyph-name="question.c2sc" horiz-adv-x="469" 
d="M159 47q0 22 16.5 38t39.5 16t39.5 -16t16.5 -38t-16.5 -37.5t-39.5 -15.5t-39.5 15.5t-16.5 37.5zM257 209v-18l-33 -26q-75 11 -75 57q0 40 88 115q58 50 70 70q10 15 10 28q0 30 -36.5 51.5t-71.5 21.5q-15 0 -35 -9l-26 -54q-5 2 -18 7.5t-21 8.5q10 45 32 89
q17 31 55 31q72 0 133.5 -36t61.5 -91q0 -22 -18 -48t-34.5 -41t-49.5 -42q-57 -48 -67 -65q-4 -8 -4 -15q0 -22 39 -34z" />
    <glyph glyph-name="questiondown.c2sc" horiz-adv-x="469" 
d="M309 491q0 -22 -16 -38t-39 -16t-40 16t-17 38t17 37.5t40 15.5t39 -15.5t16 -37.5zM212 329v18l33 26q74 -11 74 -57q0 -40 -87 -114q-58 -51 -71 -70q-10 -16 -10 -29q0 -30 37 -51.5t72 -21.5q14 0 34 9l26 54q8 -3 20.5 -8t19.5 -8q-11 -51 -33 -89q-17 -31 -55 -31
q-72 0 -133 36t-61 91q0 22 18.5 48t34 40.5t48.5 42.5q20 16 28 23t21 19.5t18 21t5 16.5q0 22 -39 34z" />
    <glyph glyph-name="quoteleft.c2sc" horiz-adv-x="329" 
d="M215 584l41 -21l-70 -119q-7 -47 -10 -65l-7 -34q-15 5 -41.5 15.5t-41.5 15.5l46 99h-1z" />
    <glyph glyph-name="quoteright.c2sc" horiz-adv-x="329" 
d="M114 345l-41 21l69 119q7 47 10 65l7 34q15 -5 42.5 -15.5t41.5 -15.5l-47 -99h1z" />
    <glyph glyph-name="quotedblleft.c2sc" horiz-adv-x="529" 
d="M215 584l41 -21l-70 -119q-7 -47 -10 -65l-7 -34q-15 5 -41.5 15.5t-41.5 15.5l46 99h-1zM416 584l41 -22l-69 -118q-7 -47 -10 -65l-7 -34q-14 5 -41.5 15.5t-42.5 15.5l47 99h-1z" />
    <glyph glyph-name="quotedblright.c2sc" horiz-adv-x="529" 
d="M315 345l-41 21l70 119q7 47 10 65l7 34q15 -5 41.5 -15.5t41.5 -15.5l-46 -99h1zM114 345l-41 22l69 118q7 47 10 65l7 34q15 -5 42.5 -15.5t41.5 -15.5l-47 -99h1z" />
    <glyph glyph-name="guilsinglleft.c2sc" horiz-adv-x="465" 
d="M114 260l188 200q7 -6 18 -13.5t16 -11.5l-129 -177v-15q23 -33 68.5 -95t61.5 -85l-35 -30l-188 204v23z" />
    <glyph glyph-name="guilsinglright.c2sc" horiz-adv-x="465" 
d="M352 235l-189 -201q-6 5 -16.5 12.5t-16.5 12.5l129 178v15q-21 29 -65 89.5t-65 89.5l33 29l190 -202v-23z" />
    <glyph glyph-name="guillemotleft.c2sc" horiz-adv-x="675" 
d="M113 260l188 200q7 -6 18 -13.5t16 -11.5l-129 -177v-15q23 -33 68.5 -95t61.5 -85l-35 -30l-188 204v23zM324 260l189 200q6 -5 16.5 -12.5t16.5 -12.5l-129 -177v-15q20 -30 64.5 -90t65.5 -90l-34 -30q-32 33 -95 102t-94 102v23z" />
    <glyph glyph-name="guillemotright.c2sc" horiz-adv-x="675" 
d="M562 235l-188 -201q-6 5 -16.5 12.5t-16.5 12.5l129 178v15q-9 12 -57.5 78.5t-72.5 100.5l33 29l189 -202v-23zM351 235l-189 -201q-6 5 -16.5 12.5t-16.5 12.5l129 178v15q-20 29 -65 89.5t-65 89.5l33 29l190 -202v-23z" />
    <glyph glyph-name="twosevenths" horiz-adv-x="770" 
d="M139 -35l242 371l223 351q5 -3 16.5 -11t16.5 -11l-235 -350q-35 -56 -111.5 -181.5t-118.5 -191.5q-30 21 -33 23zM145 652q-34 0 -53 -21q-12 -19 -12 -45h-37l15 70l-2 -1q17 16 48 27.5t47 11.5q50 0 84 -28.5t34 -73.5q0 -36 -50 -92t-122 -111q0 -3 4 -7l94 6
q65 4 83 5v-52l-240 3l-7 24l-2 -1q98 87 137.5 134.5t39.5 84.5q0 30 -19 48t-42 18zM700 325l16 -17q-104 -144 -127 -315q-4 -15 -41 -15q-18 0 -27 3.5t-6 12.5q21 69 47.5 124t45 82.5t50.5 69.5l-6 9h-129q-11 0 -25 -52v-1l-1 -2q-7 0 -17 -1t-16 -1q5 21 11.5 58.5
t8.5 47.5l68 -3h148z" />
    <glyph glyph-name="twoninths" horiz-adv-x="770" 
d="M496 -38l-6 26q73 32 107 63t54 91q-52 -29 -83 -29q-38 0 -69 25t-31 74t24 69q55 51 106 51q55 0 89 -33t34 -93q0 -51 -20 -97.5t-58 -77.5q-49 -36 -147 -69zM145 652q-34 0 -53 -21q-12 -19 -12 -45h-37l15 70l-2 -1q17 16 48 27.5t47 11.5q50 0 84 -28.5t34 -73.5
q0 -36 -50 -92t-122 -111q0 -3 4 -7l94 6q65 4 83 5v-52l-240 3l-7 24l-2 -1q98 87 137.5 134.5t39.5 84.5q0 30 -19 48t-42 18zM139 -35l242 371l223 351q5 -3 16.5 -11t16.5 -11l-235 -350q-35 -56 -111.5 -181.5t-118.5 -191.5q-30 21 -33 23zM590 145q39 0 72 35
q-1 0 -1 5v13q0 48 -20.5 76t-53.5 28q-28 0 -43.5 -19.5t-15.5 -52.5q0 -41 18.5 -63t43.5 -22z" />
    <glyph glyph-name="threesevenths" horiz-adv-x="770" 
d="M138 -35l242 371l223 351q5 -3 16.5 -11t16.5 -11l-235 -350q-35 -56 -111.5 -181.5t-118.5 -191.5q-30 21 -33 23zM178 363q22 0 40 17t18 48q0 37 -27 57.5t-51 17.5l-41 -5q-1 5 -4 14t-4 13q46 8 81 31t35 50q0 49 -57 49q-30 0 -50 -15q-12 -18 -12 -41h-33
q2 12 7 32.5t7 30.5q17 13 46.5 22.5t46.5 9.5q48 0 76.5 -20t28.5 -49q0 -47 -78 -92q5 0 9 1l2 -3q34 -9 57 -33.5t23 -57.5q0 -44 -38.5 -73.5t-89.5 -29.5q-56 0 -100 24q-1 5 -9 32t-12 42h30q17 -36 39 -57q26 -15 60 -15zM699 325l16 -17q-104 -144 -127 -315
q-4 -15 -41 -15q-18 0 -27 3.5t-6 12.5q21 69 47.5 124t45 82.5t50.5 69.5l-6 9h-129q-11 0 -25 -52q0 -1 -1 -3q-6 0 -16 -1t-17 -1q5 21 11.5 58.5t8.5 47.5l68 -3h148z" />
    <glyph glyph-name="foursevenths" horiz-adv-x="770" 
d="M138 -35l242 371l223 351q5 -3 16.5 -11t16.5 -11l-235 -350q-35 -56 -111.5 -181.5t-118.5 -191.5q-30 21 -33 23zM158 374v78h-149l-10 23q29 54 83 116.5t107 107.5l28 -11l-3 -79v-126h62v-30h-62v-78q32 -4 37 -5q8 -2 22 -4v-22h-169v22zM46 485l112 -2v144
q-67 -66 -112 -142zM699 325l16 -17q-104 -144 -127 -315q-4 -15 -41 -15q-18 0 -27 3.5t-6 12.5q21 69 47.5 124t45 82.5t50.5 69.5l-6 9h-129q-11 0 -25 -52q0 -1 -1 -3q-6 0 -16 -1t-17 -1q5 21 11.5 58.5t8.5 47.5l68 -3h148z" />
    <glyph glyph-name="fourninths" horiz-adv-x="770" 
d="M495 -38l-6 26q73 32 107 63t54 91q-52 -29 -83 -29q-38 0 -69 25t-31 74t24 69q55 51 106 51q55 0 89 -33t34 -93q0 -51 -20 -97.5t-58 -77.5q-49 -36 -147 -69zM158 374v78h-149l-10 23q29 54 83 116.5t107 107.5l28 -11l-3 -79v-126h62v-30h-62v-78q32 -4 37 -5
q8 -2 22 -4v-22h-169v22zM138 -35l242 371l223 351q5 -3 16.5 -11t16.5 -11l-235 -350q-35 -56 -111.5 -181.5t-118.5 -191.5q-30 21 -33 23zM589 145q39 0 72 35q-1 0 -1 5v13q0 48 -20.5 76t-53.5 28q-28 0 -43.5 -19.5t-15.5 -52.5q0 -41 18.5 -63t43.5 -22zM46 485
l112 -2v144q-67 -66 -112 -142z" />
    <glyph glyph-name="fivesevenths" horiz-adv-x="770" 
d="M138 -35l242 371l223 351q5 -3 16.5 -11t16.5 -11l-235 -350q-35 -56 -111.5 -181.5t-118.5 -191.5q-30 21 -33 23zM156 337q-39 0 -75 18l-14 6l-13 71h31q12 -36 28 -53q21 -15 39 -15q34 0 60.5 24t26.5 76q0 27 -14 42.5t-39 15.5q-42 0 -79 -28l-24 7l21 186h100
l77 7q-1 -10 -4 -30t-4 -31l-58 3h-82q-2 -19 -8 -49q-6 -28 -7 -50q44 20 74 20q44 0 75.5 -24t31.5 -66q0 -50 -29 -76q-62 -54 -114 -54zM699 325l16 -17q-104 -144 -127 -315q-4 -15 -41 -15q-18 0 -27 3.5t-6 12.5q21 69 47.5 124t45 82.5t50.5 69.5l-6 9h-129
q-11 0 -25 -52q0 -1 -1 -3q-6 0 -16 -1t-17 -1q5 21 11.5 58.5t8.5 47.5l68 -3h148z" />
    <glyph glyph-name="fiveninths" horiz-adv-x="770" 
d="M495 -38l-6 26q73 32 107 63t54 91q-52 -29 -83 -29q-38 0 -69 25t-31 74t24 69q55 51 106 51q55 0 89 -33t34 -93q0 -51 -20 -97.5t-58 -77.5q-49 -36 -147 -69zM156 337q-39 0 -75 18l-14 6l-13 71h31q12 -36 28 -53q21 -15 39 -15q34 0 60.5 24t26.5 76q0 27 -14 42.5
t-39 15.5q-42 0 -79 -28l-24 7l21 186h100l77 7q-1 -10 -4 -30t-4 -31l-58 3h-82q-2 -19 -8 -49q-6 -28 -7 -50q44 20 74 20q44 0 75.5 -24t31.5 -66q0 -50 -29 -76q-62 -54 -114 -54zM138 -35l242 371l223 351q5 -3 16.5 -11t16.5 -11l-235 -350q-35 -56 -111.5 -181.5
t-118.5 -191.5q-30 21 -33 23zM589 145q39 0 72 35q-1 0 -1 5v13q0 48 -20.5 76t-53.5 28q-28 0 -43.5 -19.5t-15.5 -52.5q0 -41 18.5 -63t43.5 -22z" />
    <glyph glyph-name="sixsevenths" horiz-adv-x="770" 
d="M124 637q61 46 147 71l7 -26q-69 -31 -106 -66t-59 -91q51 31 87 31q37 0 68 -25t31 -74t-24 -71q-55 -49 -107 -49q-55 0 -89 32.5t-34 93.5q0 46 22.5 94.5t56.5 79.5zM138 -35l242 371l223 351q5 -3 16.5 -11t16.5 -11l-235 -350q-35 -56 -111.5 -181.5t-118.5 -191.5
q-30 21 -33 23zM699 325l16 -17q-104 -144 -127 -315q-4 -15 -41 -15q-18 0 -27 3.5t-6 12.5q21 69 47.5 124t45 82.5t50.5 69.5l-6 9h-129q-11 0 -25 -52q0 -1 -1 -3q-6 0 -16 -1t-17 -1q5 21 11.5 58.5t8.5 47.5l68 -3h148zM177 523q-42 0 -73 -33q1 -1 1 -5v-13
q0 -48 21 -77t53 -29q29 0 44.5 20t15.5 54q0 40 -18.5 61.5t-43.5 21.5z" />
    <glyph glyph-name="sevenninths" horiz-adv-x="770" 
d="M494 -38l-6 26q73 32 107 63t54 91q-52 -29 -83 -29q-38 0 -69 25t-31 74t24 69q55 51 106 51q55 0 89 -33t34 -93q0 -51 -20 -97.5t-58 -77.5q-49 -36 -147 -69zM137 -35l242 371l223 351q5 -3 16.5 -11t16.5 -11l-235 -350q-35 -56 -111.5 -181.5t-118.5 -191.5
q-30 21 -33 23zM323 687l17 -17q-105 -146 -127 -315q-4 -15 -42 -15q-18 0 -27 3.5t-6 12.5q21 69 47.5 124.5t44.5 81.5t51 70l-6 9h-129q-12 0 -25 -53l-1 -1v-2q-7 0 -16.5 -1t-15.5 -1q3 17 9 52.5t10 54.5l68 -3h148zM588 145q39 0 72 35q-1 0 -1 5v13q0 48 -20.5 76
t-53.5 28q-28 0 -43.5 -19.5t-15.5 -52.5q0 -41 18.5 -63t43.5 -22z" />
    </font>
</defs>
</svg>
