<?xml version="1.0" standalone="no"?>
<!DOCTYPE svg PUBLIC "-//W3C//DTD SVG 1.1//EN" "http://www.w3.org/Graphics/SVG/1.1/DTD/svg11.dtd" >
<svg xmlns="http://www.w3.org/2000/svg" xmlns:xlink="http://www.w3.org/1999/xlink" version="1.1">
<metadata>
Created by FontForge 20170731 at Sun Mar  3 17:32:07 2019
 By Aleksey,,,
Copyright 2018-2019 Matthew Butterick
</metadata>
<defs>
<font id="ValkyrieT3-BoldItalic" horiz-adv-x="720" >
  <font-face 
    font-family="Valkyrie T3"
    font-weight="600"
    font-style="italic"
    font-stretch="normal"
    units-per-em="1000"
    panose-1="0 0 0 0 0 0 0 0 0 0"
    ascent="755"
    descent="-245"
    x-height="509"
    cap-height="663"
    bbox="-92 -268 1037 943"
    underline-thickness="50"
    underline-position="-175"
    slope="-17"
    unicode-range="U+000D-FB02"
  />
<missing-glyph horiz-adv-x="540" 
d="M20 0v700h500v-700h-500zM70 650v-600h400v600h-400zM201 137q0 20 13.5 34t33.5 14t34 -14t14 -34t-14 -33.5t-34 -13.5t-33.5 14t-13.5 33zM284 281v-16l-27 -23q-65 10 -65 50q0 22 21.5 48.5t47.5 46.5t47.5 44.5t21.5 43.5q0 27 -30.5 46t-59.5 19q-15 0 -28 -7
l-19 -43l-34 14q8 44 27 80q14 27 47 27q60 0 112 -32t52 -81q0 -32 -36.5 -69t-72.5 -68.5t-36 -49.5q0 -20 32 -30z" />
    <glyph glyph-name="uni2190" unicode="&#x3c;&#x2d;" horiz-adv-x="700" 
d="M74 272l237 264l61 -46l-163 -183h420v-84h-420l163 -183l-61 -47l-237 266v13z" />
    <glyph glyph-name="uni2192" unicode="&#x2d;&#x3e;" horiz-adv-x="700" 
d="M389 536l237 -264v-13l-237 -266l-61 47l163 183h-420v84h420l-163 183z" />
    <glyph glyph-name="fi" unicode="fi" horiz-adv-x="650" 
d="M-57 -125l100 27q61 264 71 494h-85l10 59l80 25l-1 55q-3 42 38.5 95.5t90.5 88t73 36.5l77 -5q0 -28 -0.5 -81t-0.5 -80h-36q-27 40 -68 59q-25 -25 -32 -61.5t-7 -105.5h103l-14 -85h-93q-32 -261 -100 -431t-159 -204h-47v114zM634 95l-155 -101l-78 29q-1 8 -4 25.5
t-4 26.5l84 322l-91 -29q-3 9 -10.5 27t-10.5 25l132 90l93 -12l22 -48l-84 -339l85 32q3 -9 11 -26.5t10 -21.5zM514 659q0 37 22.5 63.5t55.5 26.5q28 0 48 -20t20 -57q0 -42 -21 -66.5t-54 -24.5t-52 21t-19 57z" />
    <glyph glyph-name="fl" unicode="fl" horiz-adv-x="618" 
d="M-57 -125l100 27q61 264 71 494h-85l10 59l80 25l-1 55q-3 42 38.5 95.5t90.5 88t73 36.5l77 -5q0 -28 -0.5 -81t-0.5 -80h-36q-27 40 -68 59q-25 -25 -32 -61.5t-7 -105.5h103l-14 -85h-93q-32 -261 -100 -431t-159 -204h-47v114zM438 -10l-72 39q0 9 -0.5 34t-0.5 33
l90 387l28 146q-14 3 -44 11.5t-32 8.5q1 9 4 26t4 27l187 52l37 -29l-54 -227l-89 -387l81 30l26 -51z" />
    <glyph glyph-name="uni2190.circle" unicode="&#x28;&#x3c;&#x2d;&#x29;" horiz-adv-x="880" 
d="M399 536l-237 -264v-13l237 -266l61 47l-163 183h420v84h-420l163 183zM822 263q0 -157 -111.5 -268.5t-268.5 -111.5q-159 0 -271.5 111.5t-112.5 268.5q0 159 112.5 271t271.5 112q157 0 268.5 -112t111.5 -271z" />
    <glyph glyph-name="uni2192.circle" unicode="&#x28;&#x2d;&#x3e;&#x29;" horiz-adv-x="880" 
d="M718 272l-237 264l-61 -46l163 -183h-420v-84h420l-163 -183l61 -47l237 266v13zM58 263q0 159 111.5 271t268.5 112q159 0 271.5 -112t112.5 -271q0 -157 -112.5 -268.5t-271.5 -111.5q-157 0 -268.5 111.5t-111.5 268.5z" />
    <glyph glyph-name="uni2191.circle" unicode="&#x28;&#x2191;&#x29;" horiz-adv-x="880" 
d="M711 305l-264 237h-13l-266 -237l47 -61l183 163v-420h84v420l183 -163zM438 -118q-157 0 -268.5 111.5t-111.5 268.5q0 159 111.5 271.5t268.5 112.5q159 0 271.5 -112.5t112.5 -271.5q0 -157 -112.5 -268.5t-271.5 -111.5z" />
    <glyph glyph-name="uni2193.circle" unicode="&#x28;&#x2193;&#x29;" horiz-adv-x="880" 
d="M447 -14l264 237l-46 61l-183 -163v420h-84v-420l-183 163l-47 -61l266 -237h13zM438 646q159 0 271.5 -111.5t112.5 -268.5q0 -159 -112.5 -271.5t-271.5 -112.5q-157 0 -268.5 112.5t-111.5 271.5q0 157 111.5 268.5t268.5 111.5z" />
    <glyph glyph-name=".notdef" horiz-adv-x="540" 
d="M20 0v700h500v-700h-500zM70 650v-600h400v600h-400zM201 137q0 20 13.5 34t33.5 14t34 -14t14 -34t-14 -33.5t-34 -13.5t-33.5 14t-13.5 33zM284 281v-16l-27 -23q-65 10 -65 50q0 22 21.5 48.5t47.5 46.5t47.5 44.5t21.5 43.5q0 27 -30.5 46t-59.5 19q-15 0 -28 -7
l-19 -43l-34 14q8 44 27 80q14 27 47 27q60 0 112 -32t52 -81q0 -32 -36.5 -69t-72.5 -68.5t-36 -49.5q0 -20 32 -30z" />
    <glyph glyph-name=".null" horiz-adv-x="0" 
 />
    <glyph glyph-name="nonmarkingreturn" horiz-adv-x="333" 
 />
    <glyph glyph-name="NULL" horiz-adv-x="0" 
 />
    <glyph glyph-name="NULL" horiz-adv-x="0" 
 />
    <glyph glyph-name="CR" unicode="&#xd;" horiz-adv-x="210" 
 />
    <glyph glyph-name="space" unicode=" " horiz-adv-x="210" 
 />
    <glyph glyph-name="exclam" unicode="!" horiz-adv-x="333" 
d="M52 63q0 30 22.5 51t54.5 21t55 -20.5t23 -51.5q0 -30 -22.5 -50t-55.5 -20q-32 0 -54.5 20t-22.5 50zM329 699l32 -25l-168 -474q-11 2 -32 6t-32 5q14 85 43.5 260t33.5 197z" />
    <glyph glyph-name="quotedbl" unicode="&#x22;" horiz-adv-x="487" 
d="M156 423l35 304l112 -23l-83 -295zM336 423l35 304l112 -23l-83 -295z" />
    <glyph glyph-name="numbersign" unicode="#" horiz-adv-x="510" 
d="M96 492l94 -13q6 32 20.5 98t21.5 98q10 -1 27 -4t26 -4l-42 -196l94 -12l46 216q9 -1 26.5 -4t26.5 -4l-46 -215q17 -2 52.5 -7.5t50.5 -7.5q-1 -11 -4 -32.5t-4 -32.5l-108 15l-32 -155l90 -13q-1 -11 -4 -32t-4 -32l-95 13l-43 -203q-9 1 -26 4t-27 4l43 203l-94 12
l-47 -223q-9 1 -26 4t-26 4l46 222q-16 2 -51.5 7.5t-51.5 7.5q1 11 4 32.5t4 32.5l108 -15l32 153l-89 15q1 11 4 32t4 32zM230 407l-32 -155l94 -13l32 154z" />
    <glyph glyph-name="dollar" unicode="$" horiz-adv-x="546" 
d="M24 32l17 165h52q4 -57 36.5 -87.5t86.5 -32.5l32 185l-25 14q-32 17 -51 28.5t-42.5 32.5t-34.5 48t-11 62q0 81 70.5 131.5t160.5 58.5l18 101h37l-18 -101q106 -3 150 -35l-19 -160h-50q-11 97 -95 113l-31 -172l23 -12q34 -16 53 -27t44.5 -32t37.5 -49t12 -65
q0 -76 -65.5 -135t-174.5 -71l-19 -111h-37l19 108q-46 0 -102.5 13t-75.5 31zM330 171q0 35 -48 71l-28 -162q34 12 55 35.5t21 55.5zM224 473q0 -38 50 -73l26 153q-35 -9 -55.5 -30.5t-20.5 -49.5z" />
    <glyph glyph-name="percent" unicode="%" horiz-adv-x="556" 
d="M290 521l-11 -3q0 -81 -42.5 -135t-97.5 -54q-46 0 -75 35.5t-29 90.5q0 74 45.5 128.5t98.5 54.5q64 0 88 -60q6 -16 26.5 -25.5t45.5 -9.5q51 0 93 32q31 57 71 57q7 0 13 -6.5t6 -17.5q0 -29 -43 -57l-211 -288q-37 -54 -105 -154t-89 -130q-9 6 -25.5 17.5
t-21.5 14.5l203 269l161 229l-7 7q-27 -15 -48 -15q-26 0 -46 20zM282 114q0 74 45.5 128.5t98.5 54.5q44 0 71.5 -31.5t27.5 -85.5q0 -86 -42.5 -139t-95.5 -53q-47 0 -76 35.5t-29 90.5zM449 228q-30 0 -56.5 -45.5t-26.5 -97.5q0 -25 11 -39t29 -14q31 0 56.5 36
t25.5 105q0 26 -11 40.5t-28 14.5zM202 566q-29 0 -55.5 -45.5t-26.5 -97.5q0 -53 41 -53q29 0 54.5 41t25.5 100q0 26 -11 40.5t-28 14.5z" />
    <glyph glyph-name="ampersand" unicode="&#x26;" horiz-adv-x="736" 
d="M515 276q-133 -34 -133 -90q0 -17 14 -37l-14 -26q-38 6 -62.5 29.5t-24.5 62.5q0 52 43.5 83t159.5 50q168 34 198 100l-13 13q-22 -19 -46 -19q-20 0 -37 15t-17 40q0 21 18.5 38.5t49.5 17.5q35 0 59.5 -25.5t24.5 -69.5q0 -57 -28.5 -92.5t-93.5 -60.5q29 -34 29 -87
q0 -82 -93.5 -153.5t-229.5 -71.5q-146 0 -216.5 56.5t-70.5 145.5q0 80 60.5 136.5t134.5 80.5v10q-24 18 -40 45.5t-16 51.5q0 73 71 120.5t165 47.5q91 0 126 -35l-19 -103q-6 0 -16.5 -0.5t-15.5 -0.5q-3 34 -27.5 49.5t-53.5 15.5q-39 0 -63.5 -28t-24.5 -60
q0 -43 20.5 -66t75.5 -25l-19 -64q-110 1 -160 -46t-50 -113q0 -67 45.5 -108t130.5 -41q46 0 90.5 15.5t78 53t33.5 89.5q0 36 -25 61z" />
    <glyph glyph-name="quotesingle" unicode="'" horiz-adv-x="308" 
d="M156 423l35 304l112 -23l-83 -295z" />
    <glyph glyph-name="parenleft" unicode="(" horiz-adv-x="352" 
d="M269 -201l-50 -41q-84 61 -124.5 130.5t-44.5 157.5q-1 89 19 213q25 127 60 218q65 158 267 277l32 -59q-150 -102 -195 -236q-29 -92 -51 -218q-11 -63 -22 -150q0 -2 -1 -6.5t-1 -6.5q-2 -22 -2 -35q0 -154 113 -244z" />
    <glyph glyph-name="parenright" unicode=")" horiz-adv-x="352" 
d="M84 712l48 42q85 -62 125.5 -131.5t44.5 -157.5q1 -89 -19 -212q-21 -115 -60 -219q-32 -78 -102 -149.5t-165 -126.5l-31 58q151 103 194 236q29 92 51 218q12 65 22 151q0 2 1 6t1 6q2 22 2 35q0 154 -112 244z" />
    <glyph glyph-name="asterisk" unicode="*" horiz-adv-x="476" 
d="M470 476l-134 48l54 -119q9 -26 -5.5 -44t-36.5 -18q-18 0 -30.5 9.5t-12.5 27.5l-8 142l-110 -94q-23 -16 -40 -1.5t-17 40.5q0 38 37 48l110 34l-104 86q-16 12 -16 32q0 17 12.5 30t29.5 13q19 0 37 -24l73 -113l56 118q11 30 40 30q20 0 35.5 -13t15.5 -30
q0 -15 -14 -29h1l-100 -90l125 4q20 1 30.5 -12t10.5 -32q0 -21 -10.5 -35t-28.5 -8z" />
    <glyph glyph-name="plus" unicode="+" horiz-adv-x="620" 
d="M573 221h-219v-221h-87v221h-220v86h220v221h87v-221h219v-86z" />
    <glyph glyph-name="comma" unicode="," horiz-adv-x="297" 
d="M43 -204l-65 49l86 153l37 155q22 -9 63 -27.5t58 -25.5q-12 -27 -35 -76t-32 -70h1z" />
    <glyph glyph-name="hyphen" unicode="-" horiz-adv-x="335" 
d="M71 317l55 -2h105q13 0 37 1t36 1q-3 -17 -10 -51t-10 -53l-52 2h-121l-59 -3q3 18 9.5 52.5t9.5 52.5z" />
    <glyph glyph-name="period" unicode="." horiz-adv-x="253" 
d="M30 73q0 35 22.5 58.5t54.5 23.5t54.5 -23.5t22.5 -58.5q0 -34 -22.5 -57t-54.5 -23t-54.5 23t-22.5 57z" />
    <glyph glyph-name="slash" unicode="/" horiz-adv-x="460" 
d="M514 734l-451 -857h-88l450 857h89z" />
    <glyph glyph-name="zero" unicode="0" horiz-adv-x="605" 
d="M267 -13q-222 0 -222 242q0 88 29.5 166t76.5 130.5t106.5 82.5t119.5 30q97 0 153 -62.5t56 -183.5q0 -171 -92.5 -288t-226.5 -117zM367 554q-41 0 -75.5 -38t-54.5 -94.5t-31.5 -114t-11.5 -103.5q0 -68 24.5 -100.5t63.5 -32.5q42 0 79 53.5t58 133t21 158.5
q0 138 -73 138z" />
    <glyph glyph-name="one" unicode="1" horiz-adv-x="475" 
d="M105 467l-6 79q158 46 222 93l80 -10l-97 -543l113 -17l-13 -69h-377l12 69l118 16l74 416q-28 -11 -110 -30z" />
    <glyph glyph-name="two" unicode="2" horiz-adv-x="521" 
d="M295 540q-121 0 -142 -121h-76l53 143l-2 -1q37 31 100 54t95 23q87 0 144 -45.5t57 -117.5q0 -37 -26 -79t-77.5 -89t-94 -80.5t-108.5 -81.5l-30 -22l6 -16q46 3 137 10t137 10q-4 -21 -11 -63.5t-11 -63.5h-446v69q211 164 288 246t77 155q0 32 -20.5 51t-49.5 19z
" />
    <glyph glyph-name="three" unicode="3" horiz-adv-x="521" 
d="M223 59q38 0 73 33t35 91q-1 52 -30.5 77.5t-58.5 25.5l-79 -17q-1 12 -5 33.5t-6 32.5q212 48 212 157q0 58 -75 58q-26 0 -45 -8.5t-31.5 -25.5t-18.5 -29.5t-13 -32.5h-75l48 129l-2 -1q39 23 104 39.5t104 16.5q76 0 120.5 -34.5t44.5 -89.5q0 -49 -37.5 -84.5
t-111.5 -76.5l1 -11q44 -17 77 -57t33 -91q0 -87 -85.5 -147t-190.5 -60q-103 0 -183 41l-12 161h70q9 -28 16 -44.5t22 -39.5t40 -34.5t59 -11.5z" />
    <glyph glyph-name="four" unicode="4" horiz-adv-x="585" 
d="M283 86l19 106h-239q-1 2 -23 53q69 95 182 206.5t216 186.5q14 -3 40.5 -9t41.5 -8l-31 -148l-35 -202h104l-15 -78h-104l-19 -107l92 -16l-12 -70h-319l12 70zM350 455l-17 9l-13 -12h1q-120 -108 -166 -170l4 -11h158z" />
    <glyph glyph-name="five" unicode="5" horiz-adv-x="518" 
d="M169 -13q-63 0 -125 31l-23 10q0 26 1 78t1 78h65q5 -25 8 -36.5t11 -29.5t18.5 -26.5t30 -15.5t46.5 -7q49 0 95 44t46 114q0 43 -18.5 66.5t-52.5 23.5q-69 0 -128 -45l-67 25q86 277 102 329h218l129 10l-38 -135l-96 5h-174l-39 -128l15 -7q20 10 56.5 18t57.5 8
q77 0 129.5 -39t52.5 -108q0 -55 -29 -107t-76 -81q-121 -74 -216 -75z" />
    <glyph glyph-name="six" unicode="6" horiz-adv-x="552" 
d="M241 371l8 -9q71 34 120 34q61 0 107.5 -37.5t49.5 -111.5q0 -42 -14 -91t-51 -76q-134 -93 -226 -93t-145.5 46.5t-53.5 135.5q0 170 143 306t372 194l6 -73q-137 -51 -202 -96.5t-114 -128.5zM309 315q-61 0 -114 -53l-4 -21q-10 -44 -8 -64q2 -49 26.5 -77t62.5 -28
q50 0 79 42t27 103q-1 48 -20.5 73t-48.5 25z" />
    <glyph glyph-name="seven" unicode="7" horiz-adv-x="488" 
d="M522 626l14 -95q-227 -256 -300 -493q-18 -45 -100 -45q-39 0 -56 8t-7 32q140 293 321 450l-8 16l-190 1q-20 0 -35.5 -19t-33.5 -53q-1 -2 -2 -3h-0.5t-0.5 -1h-56q7 20 32.5 93.5t38.5 113.5l114 -5h269z" />
    <glyph glyph-name="eight" unicode="8" horiz-adv-x="551" 
d="M31 139q0 99 141 167l1 10q-64 49 -64 118q0 85 68 144.5t173 59.5q84 0 134 -37t52 -98q0 -40 -33.5 -81t-92.5 -70l-1 -9q101 -52 104 -143q0 -36 -18 -72.5t-51 -68.5t-88 -52t-122 -20q-84 0 -142.5 41.5t-60.5 110.5zM231 284h-5q-80 -60 -80 -135q0 -40 27 -63.5
t81 -23.5q47 0 81 29.5t34 74.5q0 39 -36 67t-102 51zM332 563q-41 0 -64.5 -22t-23.5 -56q0 -32 24.5 -57t78.5 -51q67 53 67 115q0 33 -21.5 52t-60.5 19z" />
    <glyph glyph-name="nine" unicode="9" horiz-adv-x="552" 
d="M354 255l-9 9q-77 -40 -126 -40q-65 0 -113.5 39t-48.5 117q0 42 15 88t51 72q120 98 226 98q91 0 144.5 -47.5t53.5 -136.5q0 -97 -57 -200.5t-144 -161.5q-132 -81 -316 -126v71q143 50 208.5 93.5t115.5 124.5zM277 307q59 0 109 43q13 42 13 91q0 53 -23.5 84.5
t-62.5 31.5q-47 0 -77 -43t-30 -109q0 -48 19.5 -73t51.5 -25z" />
    <glyph glyph-name="colon" unicode=":" horiz-adv-x="333" 
d="M135 370q0 35 22 58.5t54 23.5q33 0 55.5 -23.5t22.5 -58.5q0 -34 -22.5 -57t-55.5 -23q-32 0 -54 23t-22 57zM77 73q0 35 22.5 58.5t54.5 23.5t54.5 -23.5t22.5 -58.5q0 -34 -22.5 -57t-54.5 -23t-54.5 23t-22.5 57z" />
    <glyph glyph-name="semicolon" unicode=";" horiz-adv-x="337" 
d="M132 370q0 35 22 58.5t54 23.5q33 0 55.5 -23.5t22.5 -58.5q0 -34 -22.5 -57t-55.5 -23q-32 0 -54 23t-22 57zM57 -204l-65 49l86 153l37 155q22 -9 63 -27.5t58 -25.5q-12 -27 -35 -76t-32 -70h1z" />
    <glyph glyph-name="less" unicode="&#x3c;" horiz-adv-x="594" 
d="M548 456l-391 -186q58 -28 190.5 -91t200.5 -96v-92l-502 239v79l502 239v-92z" />
    <glyph glyph-name="equal" unicode="=" horiz-adv-x="620" 
d="M573 297h-526v87h526v-87zM573 125h-526v86h526v-86z" />
    <glyph glyph-name="greater" unicode="&#x3e;" horiz-adv-x="594" 
d="M437 270l-391 186v92l502 -239v-79l-502 -239v92q68 33 200.5 96t190.5 91z" />
    <glyph glyph-name="question" unicode="?" horiz-adv-x="443" 
d="M34 63q0 31 22.5 51.5t55.5 20.5q32 0 54.5 -21t22.5 -51t-22.5 -50t-54.5 -20q-33 0 -55.5 20t-22.5 50zM229 260l-10 -28l-55 -20q-83 44 -83 91q0 24 21.5 45.5t43.5 32.5t64 28q43 19 61 28t38 27t20 38q0 31 -34.5 57t-61.5 26q-8 -10 -25 -29t-23 -26l-59 53
q71 117 128 117q71 0 139.5 -62.5t68.5 -122.5q0 -28 -13.5 -51.5t-42 -42t-50 -29t-58.5 -25.5q-29 -12 -40.5 -17t-29 -15t-24 -18.5t-6.5 -18.5q0 -16 31 -38z" />
    <glyph glyph-name="at" unicode="@" horiz-adv-x="816" 
d="M707 389q0 27 -5 55t-18.5 60.5t-35 57t-57.5 41t-82 16.5q-95 0 -179 -71.5t-132.5 -182.5t-48.5 -227t43.5 -174t121.5 -58q83 0 164 61l23 -43q-45 -36 -98 -56t-98 -20q-113 0 -171.5 76.5t-58.5 214.5q0 123 58 245t160.5 203.5t218.5 81.5q122 0 194 -77t72 -203
q0 -68 -21.5 -127.5t-54.5 -99.5t-73 -69t-76.5 -42.5t-65.5 -13.5q-37 0 -37 45q0 31 21 83l-11 10q-96 -140 -167 -140q-29 0 -45 25.5t-16 58.5q0 79 59 184q46 75 106.5 127t113.5 52q25 0 43 -36q9 21 17 28t28 7q18 0 25 -5t5 -15l-106 -325q-7 -30 12 -30
q17 0 44.5 19.5t57 53t50 90t20.5 120.5zM312 152q0 -25 6 -33t17 -8q34 0 94 78t101 179q8 66 -29 66q-32 0 -70 -34.5t-67 -84.5q-52 -97 -52 -163z" />
    <glyph glyph-name="A" unicode="A" horiz-adv-x="718" 
d="M453 79l-19 115h-226l-66 -109q4 -1 36.5 -7.5t48.5 -8.5l-12 -69h-236l12 70l55 15l363 578h87l109 -584q10 -2 32 -7.5t32 -7.5l-11 -64h-289q2 11 5.5 32t5.5 32zM367 455l-111 -183h164l-32 183h-21z" />
    <glyph glyph-name="B" unicode="B" horiz-adv-x="620" 
d="M283 0h-299l12 69l77 16l87 493l-71 15l12 70h329q85 0 132.5 -33t47.5 -98q0 -30 -12.5 -63t-44 -66.5t-77.5 -48.5v-10q108 -32 108 -129q0 -95 -83.5 -155t-217.5 -60zM223 78h78q65 0 97.5 41t33.5 92q1 45 -22.5 73t-69.5 28h-76zM312 585l-34 -200h68q42 0 75.5 33
t33.5 83q0 40 -19.5 62t-55.5 22h-68z" />
    <glyph glyph-name="C" unicode="C" horiz-adv-x="654" 
d="M369 67q65 0 116 23l85 109h52l-64 -177l4 1q-110 -34 -214 -34q-138 0 -221.5 68t-83.5 193t61.5 223t161 149.5t216.5 51.5q45 0 99.5 -15t88.5 -37l-24 -189h-56l-20 114q-51 49 -126 49q-91 0 -165 -87t-74 -228q0 -107 51 -160.5t113 -53.5z" />
    <glyph glyph-name="D" unicode="D" horiz-adv-x="747" 
d="M304 0h-320l12 69l78 16l87 493l-72 15l12 70h385q123 0 190 -63.5t67 -178.5q0 -126 -61.5 -223.5t-160.5 -147.5t-217 -50zM225 78h83q110 0 194 96.5t84 241.5q0 87 -37.5 128t-114.5 41h-120z" />
    <glyph glyph-name="E" unicode="E" horiz-adv-x="593" 
d="M224 76h212q17 27 80 122h47l-49 -203l-153 5h-377l12 69l77 16l87 493l-71 15l12 70h370l128 4q-4 -27 -8.5 -57t-10 -65.5t-8.5 -56.5h-46l-32 98h-181l-38 -221l118 6l55 85h45q-7 -42 -22 -125t-22 -125h-45l-23 87l-119 3z" />
    <glyph glyph-name="F" unicode="F" horiz-adv-x="534" 
d="M225 86l89 -17l-12 -69h-317l13 70l76 16l87 492l-71 15l12 70h342l127 4q-4 -32 -14 -94.5t-15 -94.5h-50l-20 108h-159l-40 -236l110 7l39 75h44l-42 -235h-43l-10 90l-110 4z" />
    <glyph glyph-name="G" unicode="G" horiz-adv-x="736" 
d="M376 67q58 0 103 33l24 136q-15 2 -47 8.5t-35 7.5l12 69h291l-12 -69l-64 -16l-31 -181q-125 -66 -269 -66q-84 0 -151 26.5t-110.5 88t-43.5 149.5q0 97 37 177.5t99 133t141.5 81.5t165.5 29q106 0 217 -48l-12 -175h-66l-23 96q-41 49 -129 49q-51 0 -97 -19.5
t-85 -57.5t-62.5 -103t-23.5 -148q0 -105 51 -153t120 -48z" />
    <glyph glyph-name="H" unicode="H" horiz-adv-x="771" 
d="M523 663h301l-12 -69l-78 -16l-86 -493l71 -15l-12 -70h-301l13 69l78 16l38 221h-272l-39 -221l73 -15l-12 -70h-301l12 69l77 16l87 493l-71 15l12 70h300l-12 -69l-78 -16l-32 -187h272l33 187l-73 15z" />
    <glyph glyph-name="I" unicode="I" horiz-adv-x="369" 
d="M108 663h307l-13 -69l-80 -16l-87 -493q6 -1 34 -7.5t41 -8.5l-12 -69h-307l12 69l81 16l86 493q-72 16 -74 16z" />
    <glyph glyph-name="J" unicode="J" horiz-adv-x="368" 
d="M76 33l96 545q-4 1 -36.5 7.5t-48.5 8.5l12 69h321l-13 -69l-84 -16l-84 -474q-9 -52 -20 -83t-35 -61q-62 -70 -228 -187l-35 45q86 83 117 123q28 35 38 92z" />
    <glyph glyph-name="K" unicode="K" horiz-adv-x="691" 
d="M311 578l-36 -208h39l215 199l-65 24l12 70h254l-12 -70l-91 -29l-198 -183l167 -296q6 -2 21 -7.5t23 -7.5l-12 -70h-277l12 69l48 12l-111 219h-38l-38 -215l73 -15l-12 -70h-301l12 69l77 16l87 493l-71 15l12 70h300l-12 -69z" />
    <glyph glyph-name="L" unicode="L" horiz-adv-x="552" 
d="M476 -5l-147 5h-344l12 69l75 16l87 493l-30 7.5t-39 8.5l12 69h304l-12 -69l-84 -16l-88 -502h170l83 128h53z" />
    <glyph glyph-name="M" unicode="M" horiz-adv-x="911" 
d="M689 445h-20l-251 -454h-78l-97 455h-20l-85 -361q6 -1 37 -7.5t47 -8.5l-12 -69h-238l12 69l84 16l122 486q-16 3 -50 11t-50 11l13 70h235l101 -454h19l255 454h252l-13 -71l-96 -23l-65 -484q5 -1 34 -7.5t44 -8.5l-12 -69h-313l12 69l85 16z" />
    <glyph glyph-name="N" unicode="N" horiz-adv-x="755" 
d="M555 229h22l34 201l22 148q-9 2 -26 5.5t-31 6t-26 4.5l12 69h246l-12 -69l-77 -16l-32 -153q-12 -71 -37 -212.5t-37 -212.5h-91l-287 451h-21l-33 -198l-24 -168q6 -1 36 -7.5t45 -8.5l-12 -69h-242l12 69l74 16l34 165l57 326q-5 1 -34 7.5t-44 8.5l13 71h194z" />
    <glyph glyph-name="O" unicode="O" horiz-adv-x="785" 
d="M43 258q0 73 25 139.5t68 116t97.5 86.5t115 55.5t119.5 18.5q142 0 226.5 -72t84.5 -198q0 -90 -37 -168.5t-98 -132t-140 -84t-162 -30.5q-132 0 -215.5 72.5t-83.5 196.5zM447 596q-76 0 -132.5 -48t-83.5 -120.5t-27 -155.5q0 -98 48 -150.5t123 -52.5q41 0 81.5 18
t77.5 53.5t60 100.5t23 148q0 102 -49.5 154.5t-120.5 52.5z" />
    <glyph glyph-name="P" unicode="P" horiz-adv-x="559" 
d="M304 256l8 60q44 11 75 55t31 117q0 95 -78 95h-27l-88 -498q8 -2 39 -8t47 -8l-12 -69h-314l12 69l77 16l87 493l-71 15l12 70h291q95 0 136.5 -39t41.5 -115q0 -106 -76.5 -171.5t-190.5 -81.5z" />
    <glyph glyph-name="Q" unicode="Q" horiz-adv-x="785" 
d="M43 258q0 73 25 139.5t68 116t97.5 86.5t115 55.5t119.5 18.5q142 0 226.5 -72t84.5 -198q0 -139 -83 -244t-211 -148q70 -73 166 -87l-12 -72q-194 10 -327 137q-121 8 -195 79.5t-74 188.5zM447 596q-76 0 -132.5 -48t-83.5 -120.5t-27 -155.5q0 -82 34.5 -132
t91.5 -66q12 6 40.5 21t44.5 23l3 -5h-1l3.5 -7t7.5 -13.5t9 -15.5q76 27 128 104t52 208q0 102 -49.5 154.5t-120.5 52.5z" />
    <glyph glyph-name="R" unicode="R" horiz-adv-x="674" 
d="M295 269h-42l-32 -184q9 -2 41 -8t48 -8l-12 -69h-314l12 69l80 16l87 493q-72 16 -74 16l12 69h315q189 0 189 -155q0 -55 -41.5 -111t-119.5 -86l-1 -11l151 -241l42 -18l-19 -50l-175 18zM308 579l-41 -238h45q57 0 96.5 38.5t39.5 103.5q0 96 -99 96h-41z" />
    <glyph glyph-name="S" unicode="S" horiz-adv-x="543" 
d="M25 35l18 174h55q12 -127 135 -127q47 0 81 27t34 72q0 34 -28.5 58.5t-82.5 51.5q-32 16 -53.5 29.5t-46 35.5t-37 51t-12.5 65q0 63 43 110.5t101.5 69.5t119.5 22q123 0 178 -39q-3 -29 -10 -85t-10 -83h-53q-7 59 -37.5 89.5t-75.5 30.5q-47 0 -77 -24.5t-30 -62.5
q0 -24 18 -45t37.5 -32.5t56.5 -29.5q33 -16 55 -29t47.5 -35t39 -52t13.5 -67q0 -90 -82.5 -155.5t-215.5 -65.5q-46 0 -103.5 13.5t-77.5 32.5z" />
    <glyph glyph-name="T" unicode="T" horiz-adv-x="666" 
d="M118 667l167 -4h247l169 4q-3 -35 -10 -102t-10 -102h-57l-16 119h-140l-87 -497q9 -2 26 -5.5t31 -6t26 -4.5l-12 -69h-320l12 69l87 16l87 497h-139q-7 -16 -25.5 -57t-28.5 -62h-58q5 21 23.5 92.5t27.5 111.5z" />
    <glyph glyph-name="U" unicode="U" horiz-adv-x="735" 
d="M563 663h226l-12 -69l-68 -16l-38 -158l-36 -210q-8 -37 -30 -74t-58 -71t-92 -55t-123 -21q-121 0 -185 46t-64 128q0 13 4 39l66 376q-69 15 -75 16l13 69h306l-12 -69l-81 -16l-64 -358q-3 -15 -3 -31q0 -52 32.5 -85t96.5 -33q74 0 131 47t72 133l31 174l18 153
l-67 15z" />
    <glyph glyph-name="V" unicode="V" horiz-adv-x="691" 
d="M391 211l208 362l-92 24l12 66h239l-12 -67l-60 -27l-48 -77l-285 -492h-89l-128 578l-62 15l13 70h302l-12 -69l-76 -16l69 -367h21z" />
    <glyph glyph-name="W" unicode="W" horiz-adv-x="970" 
d="M546 456h-26q-35 -85 -103.5 -246.5t-88.5 -209.5h-113l-75 578l-67 15l13 70h284l-12 -69l-73 -16l33 -353h22l185 442q23 0 66.5 1t66.5 1l41 -444h20l155 348q-14 3 -44 12l-40 12l12 66h235l-12 -67l-64 -27l-37 -75l-222 -494h-106z" />
    <glyph glyph-name="X" unicode="X" horiz-adv-x="683" 
d="M60 84l234 237l-130 257l-67 15l12 70h296l-12 -69l-62 -16l71 -146l145 146q-1 0 -35.5 7t-50.5 9l12 69h264l-12 -69l-79 -15l-210 -213l137 -281l60 -15l-12 -70h-289l12 69l70 16l-88 171l-168 -171q2 0 32 -7t44 -9l-12 -69h-240l12 69z" />
    <glyph glyph-name="Y" unicode="Y" horiz-adv-x="647" 
d="M396 379h22q37 80 95 157t113 120q19 12 32 12q33 0 53 -27q18 -27 -8 -41q-134 -75 -271 -311l-36 -204q8 -1 37 -7.5t43 -8.5l-12 -69h-312l12 69l83 16l37 211q-16 75 -60.5 156.5t-95.5 123.5l-57 5v50l125 41q38 -6 72 -35.5t58 -74t40.5 -89t29.5 -94.5z" />
    <glyph glyph-name="Z" unicode="Z" horiz-adv-x="633" 
d="M545 -5l-265 5h-280q-2 5 -5.5 16t-5.5 16l476 488l-5 16h-246q-9 -17 -29.5 -53t-30.5 -53h-49q9 39 26.5 118.5t26.5 118.5l164 -4h359l11 -19l-493 -503l2 -14h287q21 34 70 108h49z" />
    <glyph glyph-name="bracketleft" unicode="[" horiz-adv-x="335" 
d="M390 737l-8 -52l-137 -21l-143 -816q20 -3 64 -10.5t65 -10.5l-10 -52h-238l170 962h237z" />
    <glyph glyph-name="backslash" unicode="\" horiz-adv-x="460" 
d="M341 -123l-261 857h86l261 -857h-86z" />
    <glyph glyph-name="bracketright" unicode="]" horiz-adv-x="335" 
d="M-55 -225l9 52l137 21l143 816q-21 3 -65 10.5t-64 10.5l10 52h238q-28 -160 -85 -481t-85 -481h-238z" />
    <glyph glyph-name="asciicircum" unicode="^" horiz-adv-x="540" 
d="M284 691l221 -377l-78 -46l-152 273h-8l-155 -273l-77 46l222 377h27z" />
    <glyph glyph-name="underscore" unicode="_" horiz-adv-x="604" 
d="M-50 -181h604v-66h-604v66z" />
    <glyph glyph-name="grave" unicode="`" horiz-adv-x="500" 
d="M290 517v-16h-64l-137 151v18h115q14 -26 43.5 -77t43.5 -77z" />
    <glyph glyph-name="a" unicode="a" horiz-adv-x="507" 
d="M351 -6l-74 17l-1 70l-15 7q-42 -40 -88.5 -67.5t-74.5 -27.5q-80 0 -80 134q0 80 36.5 166.5t94.5 138.5q98 73 141 73q37 0 81 -30q5 5 17.5 17t17.5 17q18 -4 75 -18l-87 -388q13 5 42.5 17t35.5 14q3 -6 10 -21t12 -24zM149 174q0 -60 31 -60q14 0 49 19.5t58 41.5
l46 223q-24 22 -52 22q-47 0 -89.5 -79.5t-42.5 -166.5z" />
    <glyph glyph-name="b" unicode="b" horiz-adv-x="495" 
d="M145 -11q-56 0 -82 31.5t-27 78.5l100 542l-85 16l6 55l201 42l25 -29l-55 -271l13 -8q99 59 151 59q85 0 85 -124q0 -107 -39 -192.5t-114 -126.5q-119 -73 -179 -73zM347 342q0 59 -34 59q-33 0 -97 -39l-45 -232q-3 -17 5.5 -28.5t30.5 -11.5q47 0 93.5 75t46.5 177z
" />
    <glyph glyph-name="c" unicode="c" horiz-adv-x="399" 
d="M304 515q36 0 62 -23.5t39 -58.5v-29l1 1l-47 -72h-37q-7 90 -58 90q-50 0 -83 -76.5t-33 -172.5q0 -50 15 -70t45 -20q56 0 112 54l33 -42q-103 -103 -198 -103q-61 0 -99 38.5t-38 109.5q0 94 29 167t80 112q113 95 177 95z" />
    <glyph glyph-name="d" unicode="d" horiz-adv-x="508" 
d="M345 -6l-68 17l-1 65l-14 9q-118 -92 -164 -92q-38 0 -59 33t-21 75q0 104 35 188t81 128q50 44 87 66t72 22q16 0 61 -15l26 141l-90 21q1 8 4 24.5t4 25.5l189 52l41 -28l-134 -625q12 4 40.5 15t39.5 15l21 -47zM150 183q0 -32 10 -50t26 -18q32 0 104 65l46 223
q-21 16 -49 16q-54 0 -95.5 -74t-41.5 -162z" />
    <glyph glyph-name="e" unicode="e" horiz-adv-x="429" 
d="M409 414q0 -89 -67.5 -143.5t-192.5 -93.5v-16q0 -42 14 -58.5t44 -16.5q71 0 156 75l38 -39q-48 -54 -114 -91.5t-130 -37.5q-63 0 -100.5 35.5t-37.5 101.5q0 103 38 191.5t100 128.5q97 65 150 65q102 0 102 -101zM251 415q-35 -2 -61.5 -48.5t-36.5 -122.5
q71 24 104.5 56.5t33.5 78.5q0 36 -40 36z" />
    <glyph glyph-name="f" unicode="f" horiz-adv-x="340" 
d="M-56 -125l100 27q61 264 71 494h-85l10 59l80 25l-1 55q-3 42 38.5 95.5t90.5 88t73 36.5l77 -5q0 -28 -0.5 -81t-0.5 -80h-36q-27 40 -68 59q-25 -25 -32 -61.5t-7 -105.5h103l-14 -85h-93q-32 -261 -100 -431t-159 -204h-47v114z" />
    <glyph glyph-name="g" unicode="g" horiz-adv-x="471" 
d="M489 493v-88h-72q0 -8 1 -11v1q2 -10 2 -18q0 -91 -68 -154.5t-180 -63.5q-18 -27 -9 -41.5t32 -18.5q200 -34 200 -151q0 -89 -80.5 -141t-184.5 -52q-91 0 -142 32.5t-51 89.5q0 88 133 143q-17 25 -17 57q0 53 60 96q-83 40 -83 127q0 90 72 150t159 60q77 0 122 -50
l45 33h61zM271 -90q0 68 -154 76q-71 -32 -71 -94q0 -70 99 -70q50 0 88 24.5t38 63.5zM162 284q0 -58 44 -58q35 0 64 45t29 104t-49 59q-34 0 -61 -44.5t-27 -105.5z" />
    <glyph glyph-name="h" unicode="h" horiz-adv-x="529" 
d="M373 -6l-87 27q0 8 0.5 33.5t0.5 34.5l65 268q8 40 -24 40q-36 0 -107 -42q-12 -61 -37 -179t-32 -152l-55 -24h-77l102 486l26 144l-81 20l9 52l174 52l45 -39l-41 -195l-17 -79l15 -7q38 26 60.5 39.5t56.5 27.5t59 14q66 0 66 -80q0 -32 -10 -75v1l-71 -253l78 29
q3 -7 11 -24.5t11 -24.5z" />
    <glyph glyph-name="i" unicode="i" horiz-adv-x="310" 
d="M292 95l-155 -101l-78 29q-1 8 -4 25.5t-4 26.5l84 322l-91 -29q-3 9 -10.5 27t-10.5 25l132 90l93 -12l22 -48l-84 -339l85 32q3 -9 11 -26.5t10 -21.5zM172 659q0 36 22.5 63t55.5 27q28 0 48.5 -20t20.5 -57q0 -42 -21.5 -66.5t-54.5 -24.5t-52 21.5t-19 56.5z" />
    <glyph glyph-name="j" unicode="j" horiz-adv-x="299" 
d="M156 510l100 -15l17 -47l-96 -489l1 1l-71 -103q-25 -17 -70 -51t-65 -48l-37 59l109 117l92 463q-14 -4 -47 -15t-44 -15l-19 54q22 16 66.5 45.5t63.5 43.5zM169 659q0 36 22.5 63t55.5 27q28 0 48 -20t20 -57q0 -42 -21 -66.5t-54 -24.5t-52 21.5t-19 56.5z" />
    <glyph glyph-name="k" unicode="k" horiz-adv-x="484" 
d="M439 357h-13l-37 33q-41 0 -92 -71l-1 -20l98 -195l51 23l28 -40l-124 -96l-71 31l3 -1l-76 186h-22l-38 -188l-50 -19h-76l112 536l19 94l-81 20l7 55l178 49l42 -38l-50 -225l-42 -170h24q39 74 100 128.5t97 60.5l73 -53q-8 -14 -28 -48t-31 -52z" />
    <glyph glyph-name="l" unicode="l" horiz-adv-x="278" 
d="M97 -10l-73 39q0 9 -0.5 34t-0.5 33l90 387l28 146q-14 3 -42 11t-33 9q1 9 4 26t4 27l186 52l37 -29l-54 -227l-89 -387l81 30l26 -51z" />
    <glyph glyph-name="m" unicode="m" horiz-adv-x="800" 
d="M759 136l26 -43l-147 -99l-87 32q1 11 3 36t2 36l61 263q7 36 -25 36q-15 0 -47.5 -11.5t-54.5 -26.5q-24 -127 -69 -341l-50 -18h-83l72 342q3 18 3 31q0 29 -22 29q-32 0 -96 -38l-9 -3l-70 -340l-63 -21h-68l84 403l-85 -33l-19 51l139 88q16 -3 45.5 -7t45.5 -6
l-8 -63h20q120 82 177 82q17 0 25.5 -2t19 -9t14.5 -24.5t3 -46.5h17q133 82 183 82q30 0 46 -12.5t16 -50.5q0 -32 -8 -65l-65 -274z" />
    <glyph glyph-name="n" unicode="n" horiz-adv-x="545" 
d="M386 -6l-88 28q0 7 0.5 28.5t0.5 28.5l65 268q4 23 -2.5 36.5t-20.5 13.5q-42 0 -102 -39q-20 -104 -69 -330q-9 -4 -27.5 -13t-25.5 -12h-79l80 397l-83 -32l-18 53l142 89q15 -2 43.5 -8t43.5 -9l-3 -60h22q37 26 59 40.5t53.5 28t55.5 13.5q36 0 54 -16t18 -59
q0 -34 -12 -85l-61 -246q2 1 75 26l22 -46z" />
    <glyph glyph-name="o" unicode="o" horiz-adv-x="469" 
d="M317 515q57 0 95.5 -36t38.5 -111q0 -85 -24.5 -160.5t-71.5 -120.5v1q-114 -95 -201 -95q-65 0 -100.5 42t-35.5 105q0 90 25.5 165.5t76.5 119.5q51 39 106 64.5t91 25.5zM149 194q0 -102 51 -102q39 0 67.5 42.5t40 92.5t11.5 93q0 48 -10.5 72.5t-36.5 24.5
q-53 0 -88 -66t-35 -157z" />
    <glyph glyph-name="p" unicode="p" horiz-adv-x="516" 
d="M150 510l86 -15l-1 -51l19 -9q100 75 163 75q40 0 60.5 -40t20.5 -104q0 -94 -30 -173t-77 -117q-88 -80 -146 -80q-27 0 -85 20q-7 -35 -22.5 -113t-22.5 -117l-56 -23h-74q9 46 27 134.5t26 129.5l77 379l-80 -26q-3 8 -11 25.5t-11 25.5q130 75 137 79zM367 338
q0 63 -37 63q-15 0 -43 -10.5t-54 -29.5l-51 -249q11 -26 55 -26q57 0 93.5 76.5t36.5 175.5z" />
    <glyph glyph-name="q" unicode="q" horiz-adv-x="478" 
d="M379 8l-42 -224l-46 -21h-80l41 203l15 75l-13 8q-116 -56 -145 -56q-46 0 -68.5 34t-22.5 79q0 91 33 178t83 132q113 93 162 93q24 0 86 -28l47 23q10 -3 30.5 -9.5t28.5 -8.5l-46 -159zM149 173q0 -44 12 -60t35 -16q33 0 82 39l58 266q-26 15 -52 15q-56 0 -95.5 -81
t-39.5 -163z" />
    <glyph glyph-name="r" unicode="r" horiz-adv-x="379" 
d="M159 509l58 -20l-6 -80l20 -7q33 54 61 81t62 27q28 0 44 -8l-37 -157h-28l-16 23q-28 -2 -54.5 -19t-40.5 -47l-59 -278q-7 -4 -21 -12.5t-21 -11.5h-89l79 394q-11 -4 -37.5 -13.5t-36.5 -13.5l-20 51q21 14 68.5 44.5t73.5 46.5z" />
    <glyph glyph-name="s" unicode="s" horiz-adv-x="370" 
d="M4 47v30l40 83h12q46 -58 117 -58q22 0 37.5 8.5t15.5 25.5t-12.5 28t-46.5 30q-2 1 -19 11q-87 49 -87 126q0 51 68.5 117.5t109.5 66.5q40 0 76 -14.5t53 -36.5l-1 1v-26l1 1l-41 -85h-17q-48 47 -102 47q-50 0 -50 -31q0 -19 56 -55l19 -12q49 -30 72 -60t23 -71
q0 -55 -68.5 -117.5t-132.5 -62.5q-36 0 -70 15t-54 40z" />
    <glyph glyph-name="t" unicode="t" horiz-adv-x="338" 
d="M147 -6l-106 28q0 9 -1 32t-1 32l67 309h-74q3 12 7 33t6 32l82 22l26 133l103 47q6 -7 17.5 -18.5t17.5 -18.5l-46 -144h109l-14 -85l-106 -1l-63 -294q20 6 61.5 21t50.5 18q4 -8 11 -24t11 -24z" />
    <glyph glyph-name="u" unicode="u" horiz-adv-x="539" 
d="M386 -6l-84 30l-1 58l-16 5q-115 -94 -176 -94q-64 0 -64 69q0 28 9 64l67 270l-79 -35l-26 51l141 97l76 -13l13 -67q-9 -42 -20 -89.5t-25 -105.5t-21 -90v1q-11 -39 22 -39q16 0 49 24.5t59 56.5q10 46 33 142.5t33 142.5l55 28h77l-90 -397l83 35l22 -44z" />
    <glyph glyph-name="v" unicode="v" horiz-adv-x="507" 
d="M49 470l54 30h157q5 -12 17.5 -39t14.5 -31q-52 -55 -76 -131t-24 -137q0 -53 44 -53q51 0 98 73t47 153q0 65 -37 84v41l79 50h32q34 -40 34 -95q0 -96 -45 -191.5t-116 -149.5q-47 -37 -98 -59t-87 -22q-49 0 -67.5 32.5t-18.5 90.5q0 67 28.5 137t71.5 118l-7 22h-58
q-7 -10 -23.5 -32.5t-23.5 -33.5q-12 7 -32 17l39 127z" />
    <glyph glyph-name="w" unicode="w" horiz-adv-x="747" 
d="M664 510h32q34 -34 34 -95q0 -87 -36.5 -173t-95.5 -146h1q-116 -103 -197 -103q-85 0 -78 89l-14 6q-99 -95 -173 -95q-81 0 -81 123q0 63 28.5 133t71.5 117l-8 27h-57l-43 -67l-37 17q5 18 19.5 61.5t20.5 65.5l47 30h161q5 -12 17.5 -39t14.5 -31q-53 -54 -79.5 -136
t-26.5 -131q0 -35 10 -47t37 -12q16 0 41.5 20t46.5 49q15 35 31.5 121.5t19.5 172.5q9 7 27.5 20.5t20.5 14.5q18 -2 49.5 -6.5t47.5 -6.5q-41 -134 -63 -280q-4 -31 -4 -54q0 -49 27 -49q48 0 96.5 74.5t48.5 154.5q0 59 -46 90v30z" />
    <glyph glyph-name="x" unicode="x" horiz-adv-x="492" 
d="M317 -6l-82 30l-26 117q-4 -6 -34.5 -46.5t-44.5 -59.5l-72 -41l-68 48q9 18 27.5 49.5t25.5 44.5l70 -24l79 105l-42 189l-81 -38l-19 47l118 94l90 -22l30 -138l95 127l58 33q12 -8 33 -24.5t30 -22.5l-46 -96l-66 24l-87 -117l38 -166l90 30q2 -6 9.5 -21t9.5 -21
q-23 -18 -68.5 -51.5t-66.5 -49.5z" />
    <glyph glyph-name="y" unicode="y" horiz-adv-x="526" 
d="M144 509l81 -24l15 -45l-1 -296q0 -20 7.5 -29t18.5 -6q16 5 41 18q57 129 77 280l-26 57q15 6 49.5 22t54.5 24h47l17 -62q-39 -138 -86 -258.5t-102 -220t-118 -157t-124 -57.5q-32 0 -62.5 20t-48.5 49q9 15 26 46t26 46h23q25 -51 76 -51q36 0 79.5 45t70.5 120
l-11 13q-23 -18 -54.5 -31.5t-50.5 -13.5q-40 0 -45 95l-14 308l-68 -35q-4 8 -13.5 26t-13.5 26z" />
    <glyph glyph-name="z" unicode="z" horiz-adv-x="440" 
d="M48 -6l-64 48l201 226l83 91l-3 10l-131 20l-33 -78q-8 1 -21.5 4.5t-18.5 4.5l26 150l76 40l203 -33q7 5 21 18t20 19l58 -49l-186 -206l-95 -97l6 -13l140 -32l52 87l37 -9l-36 -168l-68 -33l-219 54z" />
    <glyph glyph-name="braceleft" unicode="{" horiz-adv-x="435" 
d="M188 287l-2 -16q53 -16 82.5 -57.5t20.5 -95.5q-5 -32 -36 -99q-34 -64 -41 -106q-13 -82 140 -83l-10 -53q-132 1 -186 29t-54 87q0 15 3 35q5 38 36 100q33 72 37 101q7 51 -30.5 80t-105.5 30l13 81q62 1 111.5 33.5t59.5 73.5q3 13 3 29q0 21 -8 61q-11 56 -6 86
q13 71 76 102t201 32l-9 -60q-146 -2 -158 -69q-5 -35 7 -95q12 -58 7 -85q-8 -47 -49.5 -84t-101.5 -57z" />
    <glyph glyph-name="bar" unicode="|" horiz-adv-x="540" 
d="M228 -231v982h85v-982h-85z" />
    <glyph glyph-name="braceright" unicode="}" horiz-adv-x="435" 
d="M247 227l3 16q-53 17 -82.5 58t-20.5 95q5 35 36 99q33 66 40 106q6 37 -25.5 59.5t-113.5 23.5l10 53q132 -1 186 -29t54 -87q0 -16 -3 -34q-5 -35 -37 -101q-31 -67 -36 -101q-8 -51 29.5 -80t105.5 -30l-13 -81q-61 -1 -111 -33.5t-60 -72.5q-3 -15 -3 -30
q0 -21 8 -61q11 -56 6 -86q-13 -71 -75.5 -102t-200.5 -32l9 60q146 2 158 69q5 35 -7 95q-12 58 -7 86q8 47 49.5 83.5t100.5 56.5z" />
    <glyph glyph-name="asciitilde" unicode="~" horiz-adv-x="540" 
d="M469 383l36 -14q-21 -69 -63.5 -123t-80.5 -54q-23 0 -105 39.5t-105 39.5q-15 0 -30 -13.5t-23.5 -27.5t-22.5 -42l-40 16q17 59 61 119t71 60q30 0 107.5 -40t106.5 -40q24 0 50.5 25t37.5 55z" />
    <glyph glyph-name="uni00A0" unicode="&#xa0;" horiz-adv-x="210" 
 />
    <glyph glyph-name="exclamdown" unicode="&#xa1;" horiz-adv-x="333" 
d="M281 444q0 -30 -22.5 -51t-54.5 -21t-55 20.5t-23 51.5q0 30 22.5 50t55.5 20q32 0 54.5 -20t22.5 -50zM4 -192l-32 25l167 473q12 -2 32.5 -5t32.5 -5q-14 -85 -44 -261t-33 -196z" />
    <glyph glyph-name="cent" unicode="&#xa2;" horiz-adv-x="433" 
d="M300 527q61 0 88 -67v-24l1 1q-7 -10 -20.5 -31t-20.5 -30h-32q-4 58 -40 76l-51 -282q53 11 89 44q5 -6 13.5 -18.5t14.5 -18.5q-60 -59 -129 -77l-17 -100h-38l16 94q-57 0 -91.5 32t-34.5 90q0 78 25.5 138.5t70.5 93.5q58 47 105 67q3 19 10 56t10 55h38l-17 -99h10z
M162 244q0 -50 27 -72l47 275q-34 -28 -54 -85t-20 -118z" />
    <glyph glyph-name="sterling" unicode="&#xa3;" horiz-adv-x="548" 
d="M90 356h80l11 65q20 93 145 170q90 47 139 47q42 0 84 -17q-5 -28 -15 -81.5t-14 -78.5h-47q4 92 -62 92q-33 0 -62 -23t-38 -80l-16 -94h121q-11 -51 -12 -59h-121q-11 -52 -35 -87.5t-70 -83.5l5 -9q29 3 92 -5q44 -6 66 -6q35 0 59 20.5t38 73.5h48q-15 -70 -46 -204
q-27 -8 -64 -8q-55 0 -160 30q-50 17 -94 22q-33 -52 -80 -52q-17 0 -25 11.5t-4 30.5q4 22 27.5 43t49.5 26q45 59 61 155l7 43h-80q2 10 6 29.5t6 29.5z" />
    <glyph glyph-name="currency" unicode="&#xa4;" horiz-adv-x="624" 
d="M91 272q0 69 40 127l-45 44q-11 11 -2 29.5t25 26t28 -0.5l46 -47q58 42 129 42t126 -39l43 45q10 11 29 0t29.5 -30.5t0.5 -29.5l-45 -43q38 -55 38 -124q0 -70 -42 -130l48 -46q11 -11 2 -29.5t-25 -26.5t-28 1l-50 50q-55 -40 -126 -40q-69 0 -124 36l-42 -44
q-11 -12 -31 -2.5t-29 27t1 30.5l44 43q-40 55 -40 131zM179 271q0 -62 37 -102t97 -40q56 0 93 40.5t37 101.5q0 63 -37 103t-94 40q-62 0 -97.5 -40.5t-35.5 -102.5z" />
    <glyph glyph-name="yen" unicode="&#xa5;" horiz-adv-x="554" 
d="M311 379h22q31 68 80 135t93 107q19 12 32 12q35 0 55 -28q19 -27 -9 -41q-107 -59 -237 -275l-5 -28h121l-8 -43h-121l-6 -43h120l-8 -42h-120l-8 -48q3 -1 33.5 -7.5t45.5 -8.5l-12 -69h-312l12 69l83 16l8 48h-115l8 42h115l7 43h-115l8 43h115l6 35q-11 63 -45.5 133
t-76.5 107q-7 1 -22.5 3.5t-22.5 4.5v67l119 31q38 -8 72 -53t55 -98.5t33 -111.5z" />
    <glyph glyph-name="brokenbar" unicode="&#xa6;" horiz-adv-x="540" 
d="M313 402h-85v349h85v-349zM228 117h85v-348h-85v348z" />
    <glyph glyph-name="section" unicode="&#xa7;" horiz-adv-x="488" 
d="M460 296q-3 -30 -28 -65t-62 -63q32 -40 28 -95q-6 -79 -93 -157.5t-153 -78.5q-43 0 -93.5 21t-76.5 64l73 145q7 -2 36 -9l-8 -57q30 -50 85 -50q45 0 80 24t39 65q1 19 -5 34t-24 30t-28 21.5t-39 23.5q-28 16 -43 26t-34.5 28.5t-27.5 42t-6 52.5q8 84 103 148
q-19 36 -15 76q5 70 78 133t173 63q20 0 49.5 -12t52.5 -31l-56 -138q-6 1 -15 3t-15 2q-3 29 -18.5 45t-31 19.5t-38.5 3.5q-39 0 -61.5 -18t-24.5 -42q-1 -19 13 -38t28 -29.5t45 -31.5q37 -26 57 -42.5t39.5 -48t16.5 -64.5zM184 322q-1 -14 4.5 -26t21 -23.5t27 -18
t35.5 -19.5q29 -16 41 -23q41 32 43 58q2 28 -73 82q-41 28 -53 38q-41 -27 -46 -68z" />
    <glyph glyph-name="dieresis" unicode="&#xa8;" horiz-adv-x="500" 
d="M418 577q0 -26 -20 -46t-44 -20q-26 0 -45.5 20t-19.5 46q0 28 19.5 48.5t45.5 20.5q24 0 44 -21t20 -48zM236 577q0 -27 -18.5 -46.5t-45.5 -19.5q-25 0 -44.5 20t-19.5 46q0 28 19.5 48.5t44.5 20.5q27 0 45.5 -20.5t18.5 -48.5z" />
    <glyph glyph-name="copyright" unicode="&#xa9;" horiz-adv-x="703" 
d="M369 158q26 0 50 8l34 60h34l-17 -83l-16 -5q-50 -16 -91 -16q-76 0 -125.5 45.5t-49.5 126.5t49.5 127t131.5 46q56 0 102 -24l4 -83h-34l-21 55l2 -1q-19 21 -60 21q-38 0 -70.5 -31t-32.5 -95q0 -82 34 -116.5t76 -34.5zM44 296q0 126 90.5 216.5t217.5 90.5
q131 0 219 -89.5t88 -217.5q0 -127 -90.5 -217.5t-216.5 -90.5q-129 0 -218.5 87t-89.5 221zM103 294q0 -110 70 -183t180 -73t178.5 72.5t68.5 183.5q0 114 -70.5 187.5t-177.5 73.5q-109 0 -179 -74.5t-70 -186.5z" />
    <glyph glyph-name="ordfeminine" unicode="&#xaa;" horiz-adv-x="385" 
d="M267 295l-59 14l-1 60q-87 -74 -132 -74q-63 0 -63 100q0 60 27.5 123.5t72.5 101.5q72 54 108 54q27 0 61 -21l26 23l60 -13l-65 -282q9 3 30 11t27 10l19 -35q-21 -13 -59 -38t-52 -34zM117 430q0 -43 21 -43q9 0 34.5 14t42.5 29l13 59l23 106q-22 14 -37 14
q-35 0 -66 -58t-31 -121z" />
    <glyph glyph-name="guillemotleft" unicode="&#xab;" horiz-adv-x="652" 
d="M306 243l240 216l50 -46l-180 -189l-2 -12q21 -28 65 -93l46 -67l-64 -49q-118 159 -159 216l1 -1q1 4 3 13t2 13zM98 243l240 217q10 -9 26.5 -25t22.5 -22l-180 -189l-2 -12q31 -41 66 -93l46 -67l-64 -49q-118 159 -159 216l1 -1q1 4 3 13t2 13z" />
    <glyph glyph-name="logicalnot" unicode="&#xac;" horiz-adv-x="540" 
d="M406 52v177h-368v84h457v-261h-89z" />
    <glyph glyph-name="registered" unicode="&#xae;" horiz-adv-x="508" 
d="M310 488h-16v-76l32 -4v-20h-113v20l28 4v192l-28 5v20h109q29 0 55 -13.5t26 -44.5q0 -46 -41 -71v-3q46 -68 57 -84l12 -7l-5 -18l-54 8zM294 603v-90h22q16 1 24 10.5t8 34.5q0 45 -38 45h-16zM100 503q0 88 63 151t151 63q91 0 152.5 -62.5t61.5 -151.5
q0 -88 -63 -151t-151 -63q-89 0 -151.5 61t-62.5 153zM144 502q0 -76 48 -125.5t123 -49.5q70 0 119.5 50.5t49.5 124.5q0 77 -49 126.5t-121 49.5q-78 0 -124 -49.5t-46 -126.5z" />
    <glyph glyph-name="macron" unicode="&#xaf;" horiz-adv-x="500" 
d="M383 526h-265v67h265v-67z" />
    <glyph glyph-name="degree" unicode="&#xb0;" horiz-adv-x="367" 
d="M60 494q0 59 42 101.5t101 42.5t101.5 -42.5t42.5 -101.5t-42.5 -101t-101.5 -42t-101 42.5t-42 100.5zM132 494q0 -32 19.5 -55t50.5 -23q32 0 52 23t20 55q0 33 -20 56.5t-52 23.5q-31 0 -50.5 -23.5t-19.5 -56.5z" />
    <glyph glyph-name="plusminus" unicode="&#xb1;" horiz-adv-x="620" 
d="M573 307h-219v-201h-87v201h-220v86h220v202h87v-202h219v-86zM573 0h-526v86h526v-86z" />
    <glyph glyph-name="two.sups" unicode="&#xb2;" horiz-adv-x="287" 
d="M253 712q-59 0 -73 -65h-52l28 77l-2 -1q21 19 57.5 32.5t56.5 13.5q49 0 82 -25.5t33 -65.5q0 -58 -152 -169q-22 -15 -32 -22q0 -5 3 -8l82 6q8 1 22 2.5t25.5 2.5t21.5 1l-14 -72h-253v38q114 88 156.5 133.5t42.5 85.5q0 17 -9.5 26.5t-22.5 9.5z" />
    <glyph glyph-name="three.sups" unicode="&#xb3;" horiz-adv-x="287" 
d="M213 453q19 0 36.5 17.5t17.5 48.5q-1 26 -15.5 39.5t-28.5 14.5l-48 -11l-7 41q117 28 117 84q0 31 -36 31q-16 0 -27 -8t-16 -17t-10 -24v-1l-1 -2h-51l26 70l-2 -1q22 14 59.5 24t59.5 10q44 0 70 -19.5t26 -50.5q0 -26 -20 -45t-61 -42l2 -6q23 -12 41 -34t18 -47
q0 -48 -48.5 -81t-108.5 -33q-62 0 -105 25l-6 88h49q19 -71 69 -71z" />
    <glyph glyph-name="acute" unicode="&#xb4;" horiz-adv-x="500" 
d="M190 501v16l-1 -1l101 154h116v-18l-152 -151h-64z" />
    <glyph glyph-name="mu" unicode="&#xb5;" horiz-adv-x="540" 
d="M366 27l-8 6q-59 -45 -119 -45q-44 0 -76 27q1 -26 4 -64.5t4.5 -64t1.5 -38.5q0 -60 -56 -60q-50 0 -50 52q0 17 6 120.5t8 159.5q-1 7 -1 21v257l-63 11v38l174 18v-304q0 -56 17 -78.5t54 -22.5q54 0 88 32v306l-63 11v38l174 18v-364q0 -43 21 -43q20 0 34 34l28 -11
q-18 -47 -51 -68.5t-63 -21.5q-26 0 -37.5 7t-26.5 29z" />
    <glyph glyph-name="mu" unicode="&#x3bc;" horiz-adv-x="540" 
d="M366 27l-8 6q-59 -45 -119 -45q-44 0 -76 27q1 -26 4 -64.5t4.5 -64t1.5 -38.5q0 -60 -56 -60q-50 0 -50 52q0 17 6 120.5t8 159.5q-1 7 -1 21v257l-63 11v38l174 18v-304q0 -56 17 -78.5t54 -22.5q54 0 88 32v306l-63 11v38l174 18v-364q0 -43 21 -43q20 0 34 34l28 -11
q-18 -47 -51 -68.5t-63 -21.5q-26 0 -37.5 7t-26.5 29z" />
    <glyph glyph-name="paragraph" unicode="&#xb6;" horiz-adv-x="555" 
d="M626 704l-16 -76h-53l-167 -784h-73l167 784h-54l-167 -784h-73l84 391q-104 3 -158.5 49t-54.5 126q0 32 7 61q23 107 105 170t191 63h262zM289 307l69 321q-59 -5 -105 -50t-62 -110q-5 -21 -5 -48q0 -49 26.5 -78.5t76.5 -34.5z" />
    <glyph glyph-name="periodcentered" unicode="&#xb7;" horiz-adv-x="253" 
d="M96 282q0 34 22 57.5t54 23.5t55 -23.5t23 -57.5q0 -35 -22.5 -58t-55.5 -23q-32 0 -54 23t-22 58z" />
    <glyph glyph-name="cedilla" unicode="&#xb8;" horiz-adv-x="500" 
d="M182 -244l-8 35q88 16 88 54q0 19 -19 29t-48 10q-19 0 -27 -1l-3 4l80 129h47l-46 -75q80 0 80 -71q0 -42 -42 -74t-102 -40z" />
    <glyph glyph-name="one.sups" unicode="&#xb9;" horiz-adv-x="261" 
d="M143 673l-3 43q83 27 123 53l53 -6l-53 -296q5 -1 17 -3t17 -3l27 -4l-7 -38h-216l6 39l64 9l40 219l-37 -8q-14 -2 -21 -4q-2 -1 -7 -1h-3z" />
    <glyph glyph-name="ordmasculine" unicode="&#xba;" horiz-adv-x="356" 
d="M240 681q44 0 74 -26.5t30 -82.5q0 -139 -74 -209v1q-86 -69 -152 -69q-51 0 -78.5 31t-27.5 78q0 150 79 211q91 66 149 66zM117 444q0 -74 35 -74q29 0 50 31t29 67t8 68q0 36 -6.5 53t-25.5 17q-39 0 -64.5 -48t-25.5 -114z" />
    <glyph glyph-name="guillemotright" unicode="&#xbb;" horiz-adv-x="652" 
d="M574 217l-240 -215l-49 45l180 189l2 12q-12 16 -34.5 49t-31.5 45q-7 10 -23 32.5t-23 33.5l65 50q31 -43 87 -119.5t72 -97.5l-2 1q-1 -4 -3 -13t-2 -13zM366 217l-240 -215l-50 45l181 189l2 12q-22 29 -66 94q-7 10 -23 32.5t-23 33.5l64 50q16 -21 72 -97.5
t87 -119.5l-1 1q-1 -4 -3 -13t-2 -13z" />
    <glyph glyph-name="onequarter" unicode="&#xbc;" 
d="M515 28l10 59h-131l-11 29q38 53 100.5 114.5t118.5 102.5q9 -1 27 -5.5t27 -5.5q-2 -13 -8 -40t-9 -42l-9 -50q-7 -32 -11 -59h57l-8 -43h-57l-10 -59q5 -1 17 -3t17 -3l16 -2l-6 -39h-186l6 38zM44 -18l322 371l297 351l43 -39l-309 -350l-308 -373zM109 600l-3 43
q88 29 122 52l54 -6l-54 -296q5 -1 17.5 -3t17.5 -3l27 -4l-7 -38h-217l6 39l65 9l40 220l-37 -8q-14 -2 -21 -4q-2 -1 -7 -1h-3zM459 131h74l19 102q-75 -64 -98 -97z" />
    <glyph glyph-name="onehalf" unicode="&#xbd;" 
d="M44 -18l322 371l297 351l43 -39l-309 -350l-308 -373zM109 600l-3 43q88 29 122 52l54 -6l-54 -296q5 -1 17.5 -3t17.5 -3l27 -4l-7 -38h-217l6 39l65 9l40 220l-37 -8q-14 -2 -21 -4q-2 -1 -7 -1h-3zM567 276q-58 0 -72 -66h-52l28 78l-2 -1q21 18 57.5 31.5t56.5 13.5
q50 0 82.5 -25t32.5 -66q0 -34 -41 -75.5t-111 -93.5q-22 -15 -32 -22q0 -5 3 -8l82 6q8 1 22 2.5t25.5 2.5t21.5 1l-14 -72h-254v38q115 89 157.5 134t42.5 85q0 17 -9.5 27t-23.5 10z" />
    <glyph glyph-name="threequarters" unicode="&#xbe;" 
d="M515 28l10 59h-131l-11 29q38 53 100.5 114.5t118.5 102.5q9 -1 27 -5.5t27 -5.5q-2 -13 -8 -40t-9 -42l-9 -50q-7 -32 -11 -59h57l-8 -43h-57l-10 -59q5 -1 17 -3t17 -3l16 -2l-6 -39h-186l6 38zM44 -18l322 371l297 351l43 -39l-309 -350l-308 -373zM173 379
q19 0 36 17.5t17 49.5q-1 26 -15 39.5t-28 14.5l-48 -11l-7 40q116 27 116 85q0 31 -36 31q-15 0 -26.5 -8t-16 -17t-9.5 -24v-1q-1 -1 -1 -2h-51l26 70l-2 -1q23 13 60 23t58 10q45 0 71 -19t26 -50q0 -26 -20 -45.5t-61 -42.5l2 -6q23 -12 41 -34t18 -46q0 -48 -49 -81
t-108 -33q-63 0 -106 24l-6 89h50q19 -72 69 -72zM459 131h74l19 102q-75 -64 -98 -97z" />
    <glyph glyph-name="questiondown" unicode="&#xbf;" horiz-adv-x="443" 
d="M409 444q0 -31 -22.5 -51.5t-54.5 -20.5t-54.5 21t-22.5 51t22.5 50t54.5 20t54.5 -20t22.5 -50zM214 247l10 28l56 20q82 -44 82 -91q0 -24 -21 -45.5t-44 -32.5t-64 -28q-81 -37 -101 -56q-17 -18 -17 -37q0 -31 34 -56.5t61 -25.5q9 10 26.5 29t22.5 25l59 -52
q-35 -58 -69 -88t-59 -30q-71 0 -139.5 62.5t-68.5 122.5q0 28 13.5 51.5t41.5 42t50.5 29t58.5 25.5q29 12 39.5 17t28.5 15t24.5 18.5t6.5 18.5q0 16 -31 38z" />
    <glyph glyph-name="Agrave" unicode="&#xc0;" horiz-adv-x="718" 
d="M453 79l-19 115h-226l-66 -109q4 -1 36.5 -7.5t48.5 -8.5l-12 -69h-236l12 70l55 15l363 578h87l109 -584q10 -2 32 -7.5t32 -7.5l-11 -64h-289q2 11 5.5 32t5.5 32zM515 740v-15h-63l-108 116v18h115zM367 455l-111 -183h164l-32 183h-21z" />
    <glyph glyph-name="Aacute" unicode="&#xc1;" horiz-adv-x="718" 
d="M453 79l-19 115h-226l-66 -109q4 -1 36.5 -7.5t48.5 -8.5l-12 -69h-236l12 70l55 15l363 578h87l109 -584q10 -2 32 -7.5t32 -7.5l-11 -64h-289q2 11 5.5 32t5.5 32zM404 725v16l-1 -1l86 119h117v-18q-16 -14 -64 -54t-74 -62h-64zM367 455l-111 -183h164l-32 183h-21z
" />
    <glyph glyph-name="Acircumflex" unicode="&#xc2;" horiz-adv-x="718" 
d="M453 79l-19 115h-226l-66 -109q4 -1 36.5 -7.5t48.5 -8.5l-12 -69h-236l12 70l55 15l363 578h87l109 -584q10 -2 32 -7.5t32 -7.5l-11 -64h-289q2 11 5.5 32t5.5 32zM367 455l-111 -183h164l-32 183h-21zM605 741v-16h-30l-83 60l-131 -60h-38v15l162 119h52l69 -119z
" />
    <glyph glyph-name="Atilde" unicode="&#xc3;" horiz-adv-x="718" 
d="M453 79l-19 115h-226l-66 -109q4 -1 36.5 -7.5t48.5 -8.5l-12 -69h-236l12 70l55 15l363 578h87l109 -584q10 -2 32 -7.5t32 -7.5l-11 -64h-289q2 11 5.5 32t5.5 32zM367 455l-111 -183h164l-32 183h-21zM597 873l27 -8q-14 -53 -41.5 -94t-51.5 -41q-17 0 -69 31
q-54 30 -74 30q-18 0 -28.5 -15t-23.5 -48l-30 10q12 45 40 90.5t44 45.5q18 0 72 -31h-1q50 -30 74 -30q17 0 36 19.5t26 40.5z" />
    <glyph glyph-name="Adieresis" unicode="&#xc4;" horiz-adv-x="718" 
d="M453 79l-19 115h-226l-66 -109q4 -1 36.5 -7.5t48.5 -8.5l-12 -69h-236l12 70l55 15l363 578h87l109 -584q10 -2 32 -7.5t32 -7.5l-11 -64h-289q2 11 5.5 32t5.5 32zM367 455l-111 -183h164l-32 183h-21zM633 802q0 -26 -20 -46.5t-44 -20.5q-26 0 -45.5 20.5t-19.5 46.5
q0 27 19.5 47.5t45.5 20.5q24 0 44 -20.5t20 -47.5zM452 802q0 -27 -19 -47t-46 -20q-25 0 -44.5 20.5t-19.5 46.5q0 27 19.5 47.5t44.5 20.5q27 0 46 -20.5t19 -47.5z" />
    <glyph glyph-name="Aring" unicode="&#xc5;" horiz-adv-x="718" 
d="M453 79l-19 115h-226l-66 -109q4 -1 36.5 -7.5t48.5 -8.5l-12 -69h-236l12 70l55 15l363 578h87l109 -584q10 -2 32 -7.5t32 -7.5l-11 -64h-289q2 11 5.5 32t5.5 32zM375 822q0 43 29 73t70 30t70 -30t29 -73q0 -42 -29 -72t-70 -30t-70 30t-29 72zM367 455l-111 -183
h164l-32 183h-21zM422 822q0 -22 14 -37t37 -15q24 0 39 15t15 37q0 23 -15 38.5t-39 15.5q-23 0 -37 -15.5t-14 -38.5z" />
    <glyph glyph-name="AE" unicode="&#xc6;" horiz-adv-x="947" 
d="M580 76h211q17 27 80 122h48l-50 -203l-153 5h-377l12 69l78 16l18 109h-212l-95 -109q1 0 35.5 -7t50.5 -9l-12 -69h-236l12 70l55 15l448 498l-49 10l12 70h370l128 4q-4 -30 -13 -89.5t-13 -89.5h-47l-32 98h-181l-38 -221l119 6l54 85h45q-7 -42 -22 -125t-22 -125
h-44l-24 87l-119 3zM476 470l-173 -198h159l34 198h-20z" />
    <glyph glyph-name="Ccedilla" unicode="&#xc7;" horiz-adv-x="654" 
d="M276 -244l-8 36q87 16 87 53q0 19 -18.5 29t-47.5 10q-19 0 -27 -1l-3 4l64 103q-128 8 -204 75.5t-76 184.5q0 125 61.5 223t161 149.5t216.5 51.5q45 0 99.5 -15t88.5 -37l-24 -189h-56l-20 114q-51 49 -126 49q-91 0 -165 -87t-74 -228q0 -107 51 -160.5t113 -53.5
q65 0 116 23l85 109h52l-64 -177l4 1q-98 -31 -194 -33l-28 -49q80 0 80 -71q0 -42 -42 -73.5t-102 -40.5z" />
    <glyph glyph-name="Egrave" unicode="&#xc8;" horiz-adv-x="593" 
d="M224 76h212q17 27 80 122h47l-49 -203l-153 5h-377l12 69l77 16l87 493l-71 15l12 70h370l128 4q-4 -27 -8.5 -57t-10 -65.5t-8.5 -56.5h-46l-32 98h-181l-38 -221l118 6l55 85h45q-7 -42 -22 -125t-22 -125h-45l-23 87l-119 3zM425 740v-15h-64l-107 116v18h114z" />
    <glyph glyph-name="Eacute" unicode="&#xc9;" horiz-adv-x="593" 
d="M224 76h212q17 27 80 122h47l-49 -203l-153 5h-377l12 69l77 16l87 493l-71 15l12 70h370l128 4q-4 -27 -8.5 -57t-10 -65.5t-8.5 -56.5h-46l-32 98h-181l-38 -221l118 6l55 85h45q-7 -42 -22 -125t-22 -125h-45l-23 87l-119 3zM314 725v16l-1 -1l85 119h117v-18
q-26 -22 -74 -62t-64 -54h-63z" />
    <glyph glyph-name="Ecircumflex" unicode="&#xca;" horiz-adv-x="593" 
d="M224 76h212q17 27 80 122h47l-49 -203l-153 5h-377l12 69l77 16l87 493l-71 15l12 70h370l128 4q-4 -27 -8.5 -57t-10 -65.5t-8.5 -56.5h-46l-32 98h-181l-38 -221l118 6l55 85h45q-7 -42 -22 -125t-22 -125h-45l-23 87l-119 3zM514 741v-16h-29l-84 60l-130 -60h-39v15
l162 119h53l68 -119z" />
    <glyph glyph-name="Edieresis" unicode="&#xcb;" horiz-adv-x="593" 
d="M224 76h212q17 27 80 122h47l-49 -203l-153 5h-377l12 69l77 16l87 493l-71 15l12 70h370l128 4q-4 -27 -8.5 -57t-10 -65.5t-8.5 -56.5h-46l-32 98h-181l-38 -221l118 6l55 85h45q-7 -42 -22 -125t-22 -125h-45l-23 87l-119 3zM542 802q0 -26 -19.5 -46.5t-43.5 -20.5
q-26 0 -45.5 20.5t-19.5 46.5q0 27 19.5 47.5t45.5 20.5q24 0 43.5 -20.5t19.5 -47.5zM361 802q0 -27 -18.5 -47t-45.5 -20q-25 0 -45 20.5t-20 46.5q0 27 20 47.5t45 20.5q27 0 45.5 -20.5t18.5 -47.5z" />
    <glyph glyph-name="Igrave" unicode="&#xcc;" horiz-adv-x="369" 
d="M108 663h307l-13 -69l-80 -16l-87 -493q6 -1 34 -7.5t41 -8.5l-12 -69h-307l12 69l81 16l86 493q-72 16 -74 16zM320 740v-15h-63l-108 116v18h115z" />
    <glyph glyph-name="Iacute" unicode="&#xcd;" horiz-adv-x="369" 
d="M108 663h307l-13 -69l-80 -16l-87 -493q6 -1 34 -7.5t41 -8.5l-12 -69h-307l12 69l81 16l86 493q-72 16 -74 16zM209 725v16l-1 -1l86 119h116v-18q-22 -19 -68 -57.5t-69 -58.5h-64z" />
    <glyph glyph-name="Icircumflex" unicode="&#xce;" horiz-adv-x="369" 
d="M108 663h307l-13 -69l-80 -16l-87 -493q6 -1 34 -7.5t41 -8.5l-12 -69h-307l12 69l81 16l86 493q-72 16 -74 16zM409 741v-16h-29l-83 60l-131 -60h-38v15l162 119h52l68 -119z" />
    <glyph glyph-name="Idieresis" unicode="&#xcf;" horiz-adv-x="369" 
d="M108 663h307l-13 -69l-80 -16l-87 -493q6 -1 34 -7.5t41 -8.5l-12 -69h-307l12 69l81 16l86 493q-72 16 -74 16zM438 802q0 -26 -20 -46.5t-44 -20.5q-26 0 -45.5 20.5t-19.5 46.5q0 27 19.5 47.5t45.5 20.5q24 0 44 -21t20 -47zM257 802q0 -27 -19 -47t-46 -20
q-25 0 -44.5 20.5t-19.5 46.5q0 27 19.5 47.5t44.5 20.5q27 0 46 -20.5t19 -47.5z" />
    <glyph glyph-name="Eth" unicode="&#xd0;" horiz-adv-x="747" 
d="M304 0h-320l12 69l78 16l38 215h-81l10 61h82l38 217l-72 15l12 70h385q123 0 190 -63.5t67 -178.5q0 -126 -61.5 -223.5t-160.5 -147.5t-217 -50zM225 78h83q110 0 194 96.5t84 241.5q0 87 -37.5 128t-114.5 41h-120l-39 -224h117l-10 -61h-118z" />
    <glyph glyph-name="Ntilde" unicode="&#xd1;" horiz-adv-x="755" 
d="M555 229h22l34 201l22 148q-9 2 -26 5.5t-31 6t-26 4.5l12 69h246l-12 -69l-77 -16l-32 -153q-12 -71 -37 -212.5t-37 -212.5h-91l-287 451h-21l-33 -198l-24 -168q6 -1 36 -7.5t45 -8.5l-12 -69h-242l12 69l74 16l34 165l57 326q-5 1 -34 7.5t-44 8.5l13 71h194z
M588 873l27 -8q-14 -53 -41.5 -94t-51.5 -41q-17 0 -69 31q-54 30 -74 30q-18 0 -28.5 -15t-23.5 -48l-30 10q12 45 40 90.5t44 45.5q18 0 72 -31h-1q50 -30 74 -30q17 0 36 19.5t26 40.5z" />
    <glyph glyph-name="Ograve" unicode="&#xd2;" horiz-adv-x="785" 
d="M43 258q0 73 25 139.5t68 116t97.5 86.5t115 55.5t119.5 18.5q142 0 226.5 -72t84.5 -198q0 -90 -37 -168.5t-98 -132t-140 -84t-162 -30.5q-132 0 -215.5 72.5t-83.5 196.5zM447 596q-76 0 -132.5 -48t-83.5 -120.5t-27 -155.5q0 -98 48 -150.5t123 -52.5q41 0 81.5 18
t77.5 53.5t60 100.5t23 148q0 102 -49.5 154.5t-120.5 52.5zM532 740v-15h-63l-108 116v18h115z" />
    <glyph glyph-name="Oacute" unicode="&#xd3;" horiz-adv-x="785" 
d="M43 258q0 73 25 139.5t68 116t97.5 86.5t115 55.5t119.5 18.5q142 0 226.5 -72t84.5 -198q0 -90 -37 -168.5t-98 -132t-140 -84t-162 -30.5q-132 0 -215.5 72.5t-83.5 196.5zM447 596q-76 0 -132.5 -48t-83.5 -120.5t-27 -155.5q0 -98 48 -150.5t123 -52.5q41 0 81.5 18
t77.5 53.5t60 100.5t23 148q0 102 -49.5 154.5t-120.5 52.5zM422 725v16l-1 -1l85 119h117v-18q-16 -14 -64 -54t-74 -62h-63z" />
    <glyph glyph-name="Ocircumflex" unicode="&#xd4;" horiz-adv-x="785" 
d="M43 258q0 73 25 139.5t68 116t97.5 86.5t115 55.5t119.5 18.5q142 0 226.5 -72t84.5 -198q0 -90 -37 -168.5t-98 -132t-140 -84t-162 -30.5q-132 0 -215.5 72.5t-83.5 196.5zM447 596q-76 0 -132.5 -48t-83.5 -120.5t-27 -155.5q0 -98 48 -150.5t123 -52.5q41 0 81.5 18
t77.5 53.5t60 100.5t23 148q0 102 -49.5 154.5t-120.5 52.5zM622 741v-16h-29l-84 60l-131 -60h-38v15l162 119h52l69 -119z" />
    <glyph glyph-name="Otilde" unicode="&#xd5;" horiz-adv-x="785" 
d="M43 258q0 73 25 139.5t68 116t97.5 86.5t115 55.5t119.5 18.5q142 0 226.5 -72t84.5 -198q0 -90 -37 -168.5t-98 -132t-140 -84t-162 -30.5q-132 0 -215.5 72.5t-83.5 196.5zM447 596q-76 0 -132.5 -48t-83.5 -120.5t-27 -155.5q0 -98 48 -150.5t123 -52.5q41 0 81.5 18
t77.5 53.5t60 100.5t23 148q0 102 -49.5 154.5t-120.5 52.5zM614 873l27 -8q-14 -54 -41 -94.5t-52 -40.5q-17 0 -69 31q-54 30 -74 30q-18 0 -28.5 -15t-23.5 -48l-30 10q12 45 40 90.5t44 45.5q18 0 72 -31h-1q50 -30 74 -30q17 0 36 19.5t26 40.5z" />
    <glyph glyph-name="Odieresis" unicode="&#xd6;" horiz-adv-x="785" 
d="M43 258q0 73 25 139.5t68 116t97.5 86.5t115 55.5t119.5 18.5q142 0 226.5 -72t84.5 -198q0 -90 -37 -168.5t-98 -132t-140 -84t-162 -30.5q-132 0 -215.5 72.5t-83.5 196.5zM447 596q-76 0 -132.5 -48t-83.5 -120.5t-27 -155.5q0 -98 48 -150.5t123 -52.5q41 0 81.5 18
t77.5 53.5t60 100.5t23 148q0 102 -49.5 154.5t-120.5 52.5zM650 802q0 -26 -19.5 -46.5t-43.5 -20.5q-27 0 -46.5 20t-19.5 47t19.5 47.5t46.5 20.5q24 0 43.5 -20.5t19.5 -47.5zM469 802q0 -27 -19 -47t-46 -20q-25 0 -44.5 20.5t-19.5 46.5q0 27 19.5 47.5t44.5 20.5
q27 0 46 -20.5t19 -47.5z" />
    <glyph glyph-name="multiply" unicode="&#xd7;" horiz-adv-x="620" 
d="M486 27l-176 175l-175 -175l-62 61l176 176l-176 175l62 62l175 -176l176 176l61 -62l-175 -175l175 -176z" />
    <glyph glyph-name="Oslash" unicode="&#xd8;" horiz-adv-x="785" 
d="M43 258q0 73 25 139.5t68 116t97.5 86.5t115 55.5t119.5 18.5q109 0 193 -48l61 61q7 -7 19.5 -20t20.5 -20l-56 -55q73 -73 73 -188q0 -90 -37 -168.5t-98 -132t-140 -84t-162 -30.5q-106 0 -185 48l-80 -79q-8 7 -19.5 20t-19.5 20l75 75q-70 72 -70 185zM617 389
q0 49 -15 97l-356 -358q48 -59 129 -59q41 0 81.5 18t77.5 53.5t60 100.5t23 148zM447 596q-76 0 -132.5 -48t-83.5 -120.5t-27 -155.5q0 -48 13 -93l355 357q-48 60 -125 60z" />
    <glyph glyph-name="Ugrave" unicode="&#xd9;" horiz-adv-x="735" 
d="M563 663h226l-12 -69l-68 -16l-38 -158l-36 -210q-8 -37 -30 -74t-58 -71t-92 -55t-123 -21q-121 0 -185 46t-64 128q0 13 4 39l66 376q-69 15 -75 16l13 69h306l-12 -69l-81 -16l-64 -358q-3 -15 -3 -31q0 -52 32.5 -85t96.5 -33q74 0 131 47t72 133l31 174l18 153
l-67 15zM532 740v-15h-63l-108 116v18h115z" />
    <glyph glyph-name="Uacute" unicode="&#xda;" horiz-adv-x="735" 
d="M563 663h226l-12 -69l-68 -16l-38 -158l-36 -210q-8 -37 -30 -74t-58 -71t-92 -55t-123 -21q-121 0 -185 46t-64 128q0 13 4 39l66 376q-69 15 -75 16l13 69h306l-12 -69l-81 -16l-64 -358q-3 -15 -3 -31q0 -52 32.5 -85t96.5 -33q74 0 131 47t72 133l31 174l18 153
l-67 15zM422 725v16l-1 -1l85 119h117v-18q-16 -14 -64 -54t-74 -62h-63z" />
    <glyph glyph-name="Ucircumflex" unicode="&#xdb;" horiz-adv-x="735" 
d="M563 663h226l-12 -69l-68 -16l-38 -158l-36 -210q-8 -37 -30 -74t-58 -71t-92 -55t-123 -21q-121 0 -185 46t-64 128q0 13 4 39l66 376q-69 15 -75 16l13 69h306l-12 -69l-81 -16l-64 -358q-3 -15 -3 -31q0 -52 32.5 -85t96.5 -33q74 0 131 47t72 133l31 174l18 153
l-67 15zM622 741v-16h-29l-84 60l-131 -60h-38v15l162 119h52l69 -119z" />
    <glyph glyph-name="Udieresis" unicode="&#xdc;" horiz-adv-x="735" 
d="M563 663h226l-12 -69l-68 -16l-38 -158l-36 -210q-8 -37 -30 -74t-58 -71t-92 -55t-123 -21q-121 0 -185 46t-64 128q0 13 4 39l66 376q-69 15 -75 16l13 69h306l-12 -69l-81 -16l-64 -358q-3 -15 -3 -31q0 -52 32.5 -85t96.5 -33q74 0 131 47t72 133l31 174l18 153
l-67 15zM650 802q0 -26 -19.5 -46.5t-43.5 -20.5q-27 0 -46.5 20t-19.5 47t19.5 47.5t46.5 20.5q24 0 43.5 -20.5t19.5 -47.5zM469 802q0 -27 -19 -47t-46 -20q-25 0 -44.5 20.5t-19.5 46.5q0 27 19.5 47.5t44.5 20.5q27 0 46 -20.5t19 -47.5z" />
    <glyph glyph-name="Yacute" unicode="&#xdd;" horiz-adv-x="647" 
d="M396 379h22q37 80 95 157t113 120q19 12 32 12q33 0 53 -27q18 -27 -8 -41q-134 -75 -271 -311l-36 -204q8 -1 37 -7.5t43 -8.5l-12 -69h-312l12 69l83 16l37 211q-16 75 -60.5 156.5t-95.5 123.5l-57 5v50l125 41q38 -6 72 -35.5t58 -74t40.5 -89t29.5 -94.5zM372 721
v16l-1 -1l86 119h116v-18q-22 -20 -68 -58.5t-69 -57.5h-64z" />
    <glyph glyph-name="Thorn" unicode="&#xde;" horiz-adv-x="559" 
d="M291 127l8 60q48 9 82 53t34 119q0 95 -78 95h-47l-65 -369q8 -2 39 -8t47 -8l-12 -69h-314l12 69l77 16l87 493l-71 15l12 70h300l-12 -69l-78 -16l-7 -44h85q95 0 136.5 -39t41.5 -115q0 -106 -79 -171.5t-198 -81.5z" />
    <glyph glyph-name="germandbls" unicode="&#xdf;" horiz-adv-x="573" 
d="M434 384q0 -24 48 -85q65 -82 65 -138q0 -54 -67.5 -113.5t-137.5 -59.5q-61 0 -104 39v30l-1 -1l44 81h27q14 -34 26.5 -50t34.5 -16q21 0 36 13t15 39q0 22 -11 48t-20 39.5t-30 42.5q-42 58 -49 84q-2 9 -2 18q0 15 10 32t19.5 26.5l30.5 30.5q29 29 42 43.5t28.5 43
t15.5 54.5q0 29 -17.5 51.5t-48.5 22.5q-49 0 -78 -55t-49 -199q-82 -610 -227 -634h-48v114l88 27q48 271 58 473h-90q0 9 2 26.5t3 26.5l89 22l1 62q-3 45 55.5 101.5t129 93.5t106.5 37q66 0 100 -45.5t34 -103.5q0 -26 -12 -52t-25 -42t-35 -39q-4 -4 -13.5 -15
t-13.5 -15.5t-11 -13.5t-10 -15t-5.5 -14t-2.5 -15z" />
    <glyph glyph-name="agrave" unicode="&#xe0;" horiz-adv-x="507" 
d="M351 -6l-74 17l-1 70l-15 7q-42 -40 -88.5 -67.5t-74.5 -27.5q-80 0 -80 134q0 80 36.5 166.5t94.5 138.5q98 73 141 73q37 0 81 -30q5 5 17.5 17t17.5 17q18 -4 75 -18l-87 -388q13 5 42.5 17t35.5 14q3 -6 10 -21t12 -24zM149 174q0 -60 31 -60q14 0 49 19.5t58 41.5
l46 223q-24 22 -52 22q-47 0 -89.5 -79.5t-42.5 -166.5zM393 578v-17h-63l-138 152v18h115q12 -22 42 -74t45 -80z" />
    <glyph glyph-name="aacute" unicode="&#xe1;" horiz-adv-x="507" 
d="M351 -6l-74 17l-1 70l-15 7q-42 -40 -88.5 -67.5t-74.5 -27.5q-80 0 -80 134q0 80 36.5 166.5t94.5 138.5q98 73 141 73q37 0 81 -30q5 5 17.5 17t17.5 17q18 -4 75 -18l-87 -388q13 5 42.5 17t35.5 14q3 -6 10 -21t12 -24zM149 174q0 -60 31 -60q14 0 49 19.5t58 41.5
l46 223q-24 22 -52 22q-47 0 -89.5 -79.5t-42.5 -166.5zM292 561v17l-1 -1l101 154h117v-18l-153 -152h-64z" />
    <glyph glyph-name="acircumflex" unicode="&#xe2;" horiz-adv-x="507" 
d="M351 -6l-74 17l-1 70l-15 7q-42 -40 -88.5 -67.5t-74.5 -27.5q-80 0 -80 134q0 80 36.5 166.5t94.5 138.5q98 73 141 73q37 0 81 -30q5 5 17.5 17t17.5 17q18 -4 75 -18l-87 -388q13 5 42.5 17t35.5 14q3 -6 10 -21t12 -24zM149 174q0 -60 31 -60q14 0 49 19.5t58 41.5
l46 223q-24 22 -52 22q-47 0 -89.5 -79.5t-42.5 -166.5zM473 577v-16h-29l-69 82l-107 -82h-37v17l-1 -1l143 154h50z" />
    <glyph glyph-name="atilde" unicode="&#xe3;" horiz-adv-x="507" 
d="M351 -6l-74 17l-1 70l-15 7q-42 -40 -88.5 -67.5t-74.5 -27.5q-80 0 -80 134q0 80 36.5 166.5t94.5 138.5q98 73 141 73q37 0 81 -30q5 5 17.5 17t17.5 17q18 -4 75 -18l-87 -388q13 5 42.5 17t35.5 14q3 -6 10 -21t12 -24zM149 174q0 -60 31 -60q14 0 49 19.5t58 41.5
l46 223q-24 22 -52 22q-47 0 -89.5 -79.5t-42.5 -166.5zM485 710l27 -8q-14 -54 -41 -95t-52 -41q-13 0 -69 31q-54 30 -74 30q-18 0 -28.5 -15t-23.5 -48l-30 11q12 44 40 90t44 46q17 0 72 -32h-1q50 -30 74 -30q18 0 36.5 19.5t25.5 41.5z" />
    <glyph glyph-name="adieresis" unicode="&#xe4;" horiz-adv-x="507" 
d="M351 -6l-74 17l-1 70l-15 7q-42 -40 -88.5 -67.5t-74.5 -27.5q-80 0 -80 134q0 80 36.5 166.5t94.5 138.5q98 73 141 73q37 0 81 -30q5 5 17.5 17t17.5 17q18 -4 75 -18l-87 -388q13 5 42.5 17t35.5 14q3 -6 10 -21t12 -24zM149 174q0 -60 31 -60q14 0 49 19.5t58 41.5
l46 223q-24 22 -52 22q-47 0 -89.5 -79.5t-42.5 -166.5zM521 638q0 -26 -19.5 -46.5t-43.5 -20.5q-27 0 -46.5 20t-19.5 47t19.5 48t46.5 21q24 0 43.5 -21t19.5 -48zM340 638q0 -27 -19 -47t-46 -20q-25 0 -44.5 20.5t-19.5 46.5q0 27 19.5 48t44.5 21q27 0 46 -21t19 -48z
" />
    <glyph glyph-name="aring" unicode="&#xe5;" horiz-adv-x="507" 
d="M351 -6l-74 17l-1 70l-15 7q-42 -40 -88.5 -67.5t-74.5 -27.5q-80 0 -80 134q0 80 36.5 166.5t94.5 138.5q98 73 141 73q37 0 81 -30q5 5 17.5 17t17.5 17q18 -4 75 -18l-87 -388q13 5 42.5 17t35.5 14q3 -6 10 -21t12 -24zM149 174q0 -60 31 -60q14 0 49 19.5t58 41.5
l46 223q-24 22 -52 22q-47 0 -89.5 -79.5t-42.5 -166.5zM263 658q0 43 29 73t70 30t70.5 -30t29.5 -73q0 -42 -29.5 -72t-70.5 -30t-70 30t-29 72zM309 658q0 -22 14.5 -37t37.5 -15q24 0 39 15t15 37q0 23 -15 39t-39 16q-23 0 -37.5 -16t-14.5 -39z" />
    <glyph glyph-name="ae" unicode="&#xe6;" horiz-adv-x="712" 
d="M466 495l-8 -34q92 54 134 54q101 0 101 -101q0 -47 -19 -84.5t-56.5 -65.5t-81 -48t-103.5 -39v-16q0 -42 14 -58.5t44 -16.5q72 0 156 75l38 -39q-48 -54 -114 -91.5t-130 -37.5q-55 0 -91 28t-45 81h-20q-48 -46 -101.5 -77.5t-85.5 -31.5q-80 0 -80 134
q0 80 36.5 166.5t94.5 138.5q98 73 141 73q37 0 81 -30q5 5 17.5 17t17.5 17q10 -2 30 -7t30 -7zM149 174q0 -60 31 -60q15 0 51.5 19.5t60.5 41.5l46 224q-25 21 -57 21q-47 0 -89.5 -79.5t-42.5 -166.5zM535 415q-34 -1 -60.5 -47.5t-37.5 -123.5q71 24 105 56.5t34 78.5
q0 36 -41 36z" />
    <glyph glyph-name="ccedilla" unicode="&#xe7;" horiz-adv-x="399" 
d="M97 -230l-8 36q87 18 87 54q0 19 -18.5 29t-47.5 10q-19 0 -27 -1l-3 4l56 92q-53 6 -85.5 44.5t-32.5 102.5q0 94 29 167t80 112q113 95 177 95q36 0 62 -23.5t39 -58.5v-29l1 1l-47 -72h-37q-7 90 -58 90q-50 0 -83 -76.5t-33 -172.5q0 -50 15 -70t45 -20q56 0 112 54
l33 -42q-90 -85 -169 -100l-23 -40q80 0 80 -71q0 -42 -42 -74t-102 -41z" />
    <glyph glyph-name="egrave" unicode="&#xe8;" horiz-adv-x="429" 
d="M409 414q0 -89 -67.5 -143.5t-192.5 -93.5v-16q0 -42 14 -58.5t44 -16.5q71 0 156 75l38 -39q-48 -54 -114 -91.5t-130 -37.5q-63 0 -100.5 35.5t-37.5 101.5q0 103 38 191.5t100 128.5q97 65 150 65q102 0 102 -101zM349 578v-17h-64l-138 152v18h116q15 -28 44.5 -79.5
t42.5 -74.5zM251 415q-35 -2 -61.5 -48.5t-36.5 -122.5q71 24 104.5 56.5t33.5 78.5q0 36 -40 36z" />
    <glyph glyph-name="eacute" unicode="&#xe9;" horiz-adv-x="429" 
d="M408 414q0 -89 -67.5 -143.5t-192.5 -93.5v-16q0 -42 14 -58.5t44 -16.5q71 0 156 75l38 -39q-48 -54 -114 -91.5t-130 -37.5q-63 0 -100.5 35.5t-37.5 101.5q0 103 38 191.5t100 128.5q97 65 150 65q102 0 102 -101zM247 561v17l-1 -1l101 154h117v-18l-154 -152h-63z
M250 415q-35 -2 -61.5 -48.5t-36.5 -122.5q71 24 104.5 56.5t33.5 78.5q0 36 -40 36z" />
    <glyph glyph-name="ecircumflex" unicode="&#xea;" horiz-adv-x="429" 
d="M409 414q0 -89 -67.5 -143.5t-192.5 -93.5v-16q0 -42 14 -58.5t44 -16.5q71 0 156 75l38 -39q-48 -54 -114 -91.5t-130 -37.5q-63 0 -100.5 35.5t-37.5 101.5q0 103 38 191.5t100 128.5q97 65 150 65q102 0 102 -101zM428 577v-16h-29l-68 82l-107 -82h-38v17l-1 -1
l144 154h50zM251 415q-35 -2 -61.5 -48.5t-36.5 -122.5q71 24 104.5 56.5t33.5 78.5q0 36 -40 36z" />
    <glyph glyph-name="edieresis" unicode="&#xeb;" horiz-adv-x="429" 
d="M408 414q0 -89 -67.5 -143.5t-192.5 -93.5v-16q0 -42 14 -58.5t44 -16.5q71 0 156 75l38 -39q-48 -54 -114 -91.5t-130 -37.5q-63 0 -100.5 35.5t-37.5 101.5q0 103 38 191.5t100 128.5q97 65 150 65q102 0 102 -101zM294 638q0 -27 -18.5 -47t-45.5 -20q-25 0 -45 20.5
t-20 46.5q0 27 20 48t45 21q27 0 45.5 -21t18.5 -48zM476 638q0 -26 -20 -46.5t-44 -20.5q-26 0 -45.5 20.5t-19.5 46.5q0 27 19.5 48t45.5 21q24 0 44 -21t20 -48zM250 415q-35 -2 -61.5 -48.5t-36.5 -122.5q71 24 104.5 56.5t33.5 78.5q0 36 -40 36z" />
    <glyph glyph-name="igrave" unicode="&#xec;" horiz-adv-x="310" 
d="M292 95l-155 -101l-78 29q-1 8 -4 25.5t-4 26.5l84 322l-91 -29q-3 9 -10.5 27t-10.5 25l132 90l93 -12l22 -48l-84 -339l85 32q3 -9 11 -26.5t10 -21.5zM251 591v-16h-64l-138 151v18h116q12 -22 42 -74t45 -80z" />
    <glyph glyph-name="iacute" unicode="&#xed;" horiz-adv-x="310" 
d="M292 95l-155 -101l-78 29q-1 8 -4 25.5t-4 26.5l84 322l-91 -29q-3 9 -10.5 27t-10.5 25l132 90l93 -12l22 -48l-84 -339l85 32q3 -9 11 -26.5t10 -21.5zM150 575v16l-1 -1l101 154h117v-18l-153 -151h-64z" />
    <glyph glyph-name="icircumflex" unicode="&#xee;" horiz-adv-x="310" 
d="M292 95l-155 -101l-78 29q-1 8 -4 25.5t-4 26.5l84 322l-91 -29q-3 9 -10.5 27t-10.5 25l132 90l93 -12l22 -48l-84 -339l85 32q3 -9 11 -26.5t10 -21.5zM331 590v-15h-30l-68 81l-107 -81h-37v16l-1 -1l143 154h50z" />
    <glyph glyph-name="idieresis" unicode="&#xef;" horiz-adv-x="310" 
d="M292 95l-155 -101l-78 29q-1 8 -4 25.5t-4 26.5l84 322l-91 -29q-3 9 -10.5 27t-10.5 25l132 90l93 -12l22 -48l-84 -339l85 32q3 -9 11 -26.5t10 -21.5zM379 651q0 -26 -20 -46t-44 -20q-26 0 -45.5 20t-19.5 46q0 27 19.5 48t45.5 21q24 0 44 -21t20 -48zM198 651
q0 -27 -19 -46.5t-46 -19.5q-25 0 -44.5 20t-19.5 46q0 27 19.5 48t44.5 21q27 0 46 -21t19 -48z" />
    <glyph glyph-name="eth" unicode="&#xf0;" horiz-adv-x="469" 
d="M149 583l80 53q-32 32 -71 58q4 6 40 55q51 -32 95 -71l93 62q4 -7 14.5 -21t14.5 -21l-84 -57q120 -130 120 -273q0 -85 -24.5 -160.5t-71.5 -120.5v1q-114 -95 -201 -95q-65 0 -100.5 42t-35.5 105q0 202 102 285q44 39 91.5 64.5t79.5 25.5q12 0 24 -2q-14 35 -51 85
l-86 -58q-4 6 -14 20.5t-15 22.5zM149 194q0 -102 51 -102q39 0 67.5 42.5t40 92.5t11.5 93q0 48 -10.5 72.5t-36.5 24.5q-53 0 -88 -66t-35 -157z" />
    <glyph glyph-name="ntilde" unicode="&#xf1;" horiz-adv-x="545" 
d="M386 -6l-88 28q0 7 0.5 28.5t0.5 28.5l65 268q4 23 -2.5 36.5t-20.5 13.5q-42 0 -102 -39q-20 -104 -69 -330q-9 -4 -27.5 -13t-25.5 -12h-79l80 397l-83 -32l-18 53l142 89q15 -2 43.5 -8t43.5 -9l-3 -60h22q37 26 59 40.5t53.5 28t55.5 13.5q36 0 54 -16t18 -59
q0 -34 -12 -85l-61 -246q2 1 75 26l22 -46zM474 710l27 -8q-14 -54 -41.5 -95t-51.5 -41q-13 0 -69 31q-56 30 -74 30t-28.5 -15t-23.5 -48l-31 11q13 44 41.5 90t43.5 46q14 0 72 -32h-1q50 -30 74 -30q17 0 36 19.5t26 41.5z" />
    <glyph glyph-name="ograve" unicode="&#xf2;" horiz-adv-x="469" 
d="M317 515q57 0 95.5 -36t38.5 -111q0 -85 -24.5 -160.5t-71.5 -120.5v1q-114 -95 -201 -95q-65 0 -100.5 42t-35.5 105q0 90 25.5 165.5t76.5 119.5q51 39 106 64.5t91 25.5zM149 194q0 -102 51 -102q39 0 67.5 42.5t40 92.5t11.5 93q0 48 -10.5 72.5t-36.5 24.5
q-53 0 -88 -66t-35 -157zM351 578v-17h-64l-138 152v18h116q15 -28 44.5 -79.5t42.5 -74.5z" />
    <glyph glyph-name="oacute" unicode="&#xf3;" horiz-adv-x="469" 
d="M317 515q57 0 95.5 -36t38.5 -111q0 -85 -24.5 -160.5t-71.5 -120.5v1q-114 -95 -201 -95q-65 0 -100.5 42t-35.5 105q0 90 25.5 165.5t76.5 119.5q51 39 106 64.5t91 25.5zM149 194q0 -102 51 -102q39 0 67.5 42.5t40 92.5t11.5 93q0 48 -10.5 72.5t-36.5 24.5
q-53 0 -88 -66t-35 -157zM250 561v17l-1 -1l101 154h117v-18l-154 -152h-63z" />
    <glyph glyph-name="ocircumflex" unicode="&#xf4;" horiz-adv-x="469" 
d="M317 515q57 0 95.5 -36t38.5 -111q0 -85 -24.5 -160.5t-71.5 -120.5v1q-114 -95 -201 -95q-65 0 -100.5 42t-35.5 105q0 90 25.5 165.5t76.5 119.5q51 39 106 64.5t91 25.5zM149 194q0 -102 51 -102q39 0 67.5 42.5t40 92.5t11.5 93q0 48 -10.5 72.5t-36.5 24.5
q-53 0 -88 -66t-35 -157zM430 577v-16h-29l-68 82l-107 -82h-38v17l-1 -1l144 154h50z" />
    <glyph glyph-name="otilde" unicode="&#xf5;" horiz-adv-x="469" 
d="M317 515q57 0 95.5 -36t38.5 -111q0 -85 -24.5 -160.5t-71.5 -120.5v1q-114 -95 -201 -95q-65 0 -100.5 42t-35.5 105q0 90 25.5 165.5t76.5 119.5q51 39 106 64.5t91 25.5zM149 194q0 -102 51 -102q39 0 67.5 42.5t40 92.5t11.5 93q0 48 -10.5 72.5t-36.5 24.5
q-53 0 -88 -66t-35 -157zM442 710l28 -8q-14 -54 -41.5 -95t-51.5 -41q-12 0 -70 31q-54 30 -73 30q-18 0 -28.5 -15t-24.5 -48l-30 11q12 44 40.5 90t44.5 46t71 -32h-1q52 -30 75 -30q17 0 35.5 19.5t25.5 41.5z" />
    <glyph glyph-name="odieresis" unicode="&#xf6;" horiz-adv-x="469" 
d="M317 515q57 0 95.5 -36t38.5 -111q0 -85 -24.5 -160.5t-71.5 -120.5v1q-114 -95 -201 -95q-65 0 -100.5 42t-35.5 105q0 90 25.5 165.5t76.5 119.5q51 39 106 64.5t91 25.5zM149 194q0 -102 51 -102q39 0 67.5 42.5t40 92.5t11.5 93q0 48 -10.5 72.5t-36.5 24.5
q-53 0 -88 -66t-35 -157zM479 638q0 -26 -20 -46.5t-44 -20.5q-26 0 -45.5 20.5t-19.5 46.5q0 27 19.5 48t45.5 21q24 0 44 -21t20 -48zM297 638q0 -27 -18.5 -47t-45.5 -20q-25 0 -45 20.5t-20 46.5q0 27 20 48t45 21q27 0 45.5 -21t18.5 -48z" />
    <glyph glyph-name="divide" unicode="&#xf7;" horiz-adv-x="620" 
d="M573 221h-526v86h526v-86zM246 409q0 27 18 45.5t45 18.5t46 -19t19 -45q0 -27 -19 -45.5t-46 -18.5t-45 18t-18 46zM246 119q0 27 18 45.5t45 18.5t46 -19t19 -45q0 -27 -19 -45t-46 -18t-45 17.5t-18 45.5z" />
    <glyph glyph-name="oslash" unicode="&#xf8;" horiz-adv-x="469" 
d="M317 515q40 0 79 -24q8 10 27 35l40 -32l-33 -39q21 -40 21 -87q0 -85 -24.5 -160.5t-71.5 -120.5v1q-114 -95 -201 -95q-40 0 -79 21l-35 -44l-39 32l40 49q-23 37 -23 89q0 90 25.5 165.5t76.5 119.5q51 39 106 64.5t91 25.5zM272 417q-52 0 -87 -68.5t-36 -163.5
l162 201q-11 31 -39 31zM200 92q28 0 50.5 22.5t36.5 58t22 72t10 70.5l-159 -196q11 -27 40 -27z" />
    <glyph glyph-name="ugrave" unicode="&#xf9;" horiz-adv-x="539" 
d="M386 -6l-84 30l-1 58l-16 5q-115 -94 -176 -94q-64 0 -64 69q0 28 9 64l67 270l-79 -35l-26 51l141 97l76 -13l13 -67q-9 -42 -20 -89.5t-25 -105.5t-21 -90v1q-11 -39 22 -39q16 0 49 24.5t59 56.5q10 46 33 142.5t33 142.5l55 28h77l-90 -397l83 35l22 -44zM367 578
v-17h-64l-138 152v18h116q15 -28 44.5 -79.5t42.5 -74.5z" />
    <glyph glyph-name="uacute" unicode="&#xfa;" horiz-adv-x="539" 
d="M386 -6l-84 30l-1 58l-16 5q-115 -94 -176 -94q-64 0 -64 69q0 28 9 64l67 270l-79 -35l-26 51l141 97l76 -13l13 -67q-9 -42 -20 -89.5t-25 -105.5t-21 -90v1q-11 -39 22 -39q16 0 49 24.5t59 56.5q10 46 33 142.5t33 142.5l55 28h77l-90 -397l83 35l22 -44zM266 561v17
l-1 -1l101 154h117v-18l-153 -152h-64z" />
    <glyph glyph-name="ucircumflex" unicode="&#xfb;" horiz-adv-x="539" 
d="M386 -6l-84 30l-1 58l-16 5q-115 -94 -176 -94q-64 0 -64 69q0 28 9 64l67 270l-79 -35l-26 51l141 97l76 -13l13 -67q-9 -42 -20 -89.5t-25 -105.5t-21 -90v1q-11 -39 22 -39q16 0 49 24.5t59 56.5q10 46 33 142.5t33 142.5l55 28h77l-90 -397l83 35l22 -44zM447 577
v-16h-30l-68 82l-107 -82h-37v17l-1 -1l143 154h50z" />
    <glyph glyph-name="udieresis" unicode="&#xfc;" horiz-adv-x="539" 
d="M386 -6l-84 30l-1 58l-16 5q-115 -94 -176 -94q-64 0 -64 69q0 28 9 64l67 270l-79 -35l-26 51l141 97l76 -13l13 -67q-9 -42 -20 -89.5t-25 -105.5t-21 -90v1q-11 -39 22 -39q16 0 49 24.5t59 56.5q10 46 33 142.5t33 142.5l55 28h77l-90 -397l83 35l22 -44zM495 638
q0 -26 -20 -46.5t-44 -20.5q-26 0 -45.5 20.5t-19.5 46.5q0 27 19.5 48t45.5 21q24 0 44 -21t20 -48zM313 638q0 -27 -18.5 -47t-45.5 -20q-25 0 -45 20.5t-20 46.5q0 27 20 48t45 21q27 0 45.5 -21t18.5 -48z" />
    <glyph glyph-name="yacute" unicode="&#xfd;" horiz-adv-x="526" 
d="M144 509l81 -24l15 -45l-1 -296q0 -20 7.5 -29t18.5 -6q16 5 41 18q57 129 77 280l-26 57q15 6 49.5 22t54.5 24h47l17 -62q-39 -138 -86 -258.5t-102 -220t-118 -157t-124 -57.5q-32 0 -62.5 20t-48.5 49q9 15 26 46t26 46h23q25 -51 76 -51q36 0 79.5 45t70.5 120
l-11 13q-23 -18 -54.5 -31.5t-50.5 -13.5q-40 0 -45 95l-14 308l-68 -35q-4 8 -13.5 26t-13.5 26zM255 561v17l-1 -1l101 154h117v-18l-153 -152h-64z" />
    <glyph glyph-name="thorn" unicode="&#xfe;" horiz-adv-x="516" 
d="M127 486l21 144l-81 20l9 52l174 52l45 -39l-46 -200l-14 -75l19 -10q98 80 163 80q40 0 60.5 -40t20.5 -104q0 -94 -30 -173t-77 -117q-88 -80 -146 -80q-27 0 -85 20l-41 -230l-55 -23h-79zM367 338q0 63 -37 63q-15 0 -43 -10.5t-54 -29.5l-51 -249q11 -26 55 -26
q57 0 93.5 76.5t36.5 175.5z" />
    <glyph glyph-name="ydieresis" unicode="&#xff;" horiz-adv-x="526" 
d="M144 509l81 -24l15 -45l-1 -296q0 -20 7.5 -29t18.5 -6q16 5 41 18q57 129 77 280l-26 57q15 6 49.5 22t54.5 24h47l17 -62q-39 -138 -86 -258.5t-102 -220t-118 -157t-124 -57.5q-32 0 -62.5 20t-48.5 49q9 15 26 46t26 46h23q25 -51 76 -51q36 0 79.5 45t70.5 120
l-11 13q-23 -18 -54.5 -31.5t-50.5 -13.5q-40 0 -45 95l-14 308l-68 -35q-4 8 -13.5 26t-13.5 26zM484 638q0 -26 -20 -46.5t-44 -20.5q-26 0 -45.5 20.5t-19.5 46.5q0 27 19.5 48t45.5 21q24 0 44 -21t20 -48zM302 638q0 -27 -18.5 -47t-45.5 -20q-25 0 -45 20.5t-20 46.5
q0 27 20 48t45 21q27 0 45.5 -21t18.5 -48z" />
    <glyph glyph-name="Amacron" unicode="&#x100;" horiz-adv-x="718" 
d="M453 79l-19 115h-226l-66 -109q4 -1 36.5 -7.5t48.5 -8.5l-12 -69h-236l12 70l55 15l363 578h87l109 -584q10 -2 32 -7.5t32 -7.5l-11 -64h-289q2 11 5.5 32t5.5 32zM367 455l-111 -183h164l-32 183h-21zM598 751h-266v66h266v-66z" />
    <glyph glyph-name="amacron" unicode="&#x101;" horiz-adv-x="507" 
d="M351 -6l-74 17l-1 70l-15 7q-42 -40 -88.5 -67.5t-74.5 -27.5q-80 0 -80 134q0 80 36.5 166.5t94.5 138.5q98 73 141 73q37 0 81 -30q5 5 17.5 17t17.5 17q18 -4 75 -18l-87 -388q13 5 42.5 17t35.5 14q3 -6 10 -21t12 -24zM149 174q0 -60 31 -60q14 0 49 19.5t58 41.5
l46 223q-24 22 -52 22q-47 0 -89.5 -79.5t-42.5 -166.5zM486 587h-266v66h266v-66z" />
    <glyph glyph-name="Abreve" unicode="&#x102;" horiz-adv-x="718" 
d="M453 79l-19 115h-226l-66 -109q4 -1 36.5 -7.5t48.5 -8.5l-12 -69h-236l12 70l55 15l363 578h87l109 -584q10 -2 32 -7.5t32 -7.5l-11 -64h-289q2 11 5.5 32t5.5 32zM458 715q-47 0 -74.5 23.5t-27.5 71.5q0 14 5 39h40q-5 -26 15 -44.5t58 -18.5q40 0 73 18t41 45h44
q-16 -65 -66 -99.5t-108 -34.5zM367 455l-111 -183h164l-32 183h-21z" />
    <glyph glyph-name="abreve" unicode="&#x103;" horiz-adv-x="507" 
d="M351 -6l-74 17l-1 70l-15 7q-42 -40 -88.5 -67.5t-74.5 -27.5q-80 0 -80 134q0 80 36.5 166.5t94.5 138.5q98 73 141 73q37 0 81 -30q5 5 17.5 17t17.5 17q18 -4 75 -18l-87 -388q13 5 42.5 17t35.5 14q3 -6 10 -21t12 -24zM149 174q0 -60 31 -60q14 0 49 19.5t58 41.5
l46 223q-24 22 -52 22q-47 0 -89.5 -79.5t-42.5 -166.5zM346 551q-39 0 -62.5 31t-23.5 90q0 25 4 49h40q-3 -35 13 -62t45 -27q35 0 63.5 25t35.5 64h45q-13 -80 -60 -125t-100 -45z" />
    <glyph glyph-name="Aogonek" unicode="&#x104;" horiz-adv-x="718" 
d="M453 79l-19 115h-226l-66 -109q4 -1 36.5 -7.5t48.5 -8.5l-12 -69h-236l12 70l55 15l363 578h87l109 -584q10 -2 32 -7.5t32 -7.5l-11 -64h-249q-61 -46 -61 -109q0 -23 13.5 -38.5t31.5 -15.5q10 0 14 1q0 -6 1 -19.5t1 -18.5q-22 -4 -34 -4q-41 0 -71.5 20t-30.5 56
q0 71 96 129q1 10 5 31t6 32zM367 455l-111 -183h164l-32 183h-21z" />
    <glyph glyph-name="aogonek" unicode="&#x105;" horiz-adv-x="507" 
d="M350 -7h-1q-32 -37 -32 -83q0 -23 13.5 -38.5t31.5 -15.5q10 0 14 1q0 -6 1 -19.5t1 -18.5q-22 -4 -34 -4q-42 0 -72.5 20t-30.5 56q0 58 71 112q-1 0 -14.5 3.5t-20.5 4.5l-1 70l-15 7q-42 -40 -88.5 -67.5t-74.5 -27.5q-80 0 -80 134q0 80 36.5 166.5t94.5 138.5
q98 73 141 73q37 0 81 -30q5 5 17.5 17t17.5 17q18 -4 75 -18l-87 -388q13 5 42.5 17t35.5 14q3 -6 10 -21t12 -24zM149 174q0 -60 31 -60q14 0 49 19.5t58 41.5l46 223q-24 22 -52 22q-47 0 -89.5 -79.5t-42.5 -166.5z" />
    <glyph glyph-name="Cacute" unicode="&#x106;" horiz-adv-x="654" 
d="M369 67q65 0 116 23l85 109h52l-64 -177l4 1q-110 -34 -214 -34q-138 0 -221.5 68t-83.5 193t61.5 223t161 149.5t216.5 51.5q45 0 99.5 -15t88.5 -37l-24 -189h-56l-20 114q-51 49 -126 49q-91 0 -165 -87t-74 -228q0 -107 51 -160.5t113 -53.5zM420 725v16l-1 -1
l85 119h117v-18q-16 -14 -64 -54t-74 -62h-63z" />
    <glyph glyph-name="cacute" unicode="&#x107;" horiz-adv-x="399" 
d="M304 515q36 0 62 -23.5t39 -58.5v-29l1 1l-47 -72h-37q-7 90 -58 90q-50 0 -83 -76.5t-33 -172.5q0 -50 15 -70t45 -20q56 0 112 54l33 -42q-103 -103 -198 -103q-61 0 -99 38.5t-38 109.5q0 94 29 167t80 112q113 95 177 95zM239 561v17l-1 -1l101 154h117v-18
l-154 -152h-63z" />
    <glyph glyph-name="Cdotaccent" unicode="&#x10a;" horiz-adv-x="654" 
d="M369 67q65 0 116 23l85 109h52l-64 -177l4 1q-110 -34 -214 -34q-138 0 -221.5 68t-83.5 193t61.5 223t161 149.5t216.5 51.5q45 0 99.5 -15t88.5 -37l-24 -189h-56l-20 114q-51 49 -126 49q-91 0 -165 -87t-74 -228q0 -107 51 -160.5t113 -53.5zM441 777q0 34 20.5 60.5
t50.5 26.5q23 0 36.5 -18.5t13.5 -45.5q0 -34 -21 -59t-48 -25q-23 0 -37.5 18t-14.5 43z" />
    <glyph glyph-name="cdotaccent" unicode="&#x10b;" horiz-adv-x="399" 
d="M304 515q36 0 62 -23.5t39 -58.5v-29l1 1l-47 -72h-37q-7 90 -58 90q-50 0 -83 -76.5t-33 -172.5q0 -50 15 -70t45 -20q56 0 112 54l33 -42q-103 -103 -198 -103q-61 0 -99 38.5t-38 109.5q0 94 29 167t80 112q113 95 177 95zM258 634q0 37 23 67t57 30q25 0 40 -20.5
t15 -51.5q0 -37 -23 -64.5t-53 -27.5q-26 0 -42.5 20t-16.5 47z" />
    <glyph glyph-name="Ccaron" unicode="&#x10c;" horiz-adv-x="654" 
d="M369 67q65 0 116 23l85 109h52l-64 -177l4 1q-110 -34 -214 -34q-138 0 -221.5 68t-83.5 193t61.5 223t161 149.5t216.5 51.5q45 0 99.5 -15t88.5 -37l-24 -189h-56l-20 114q-51 49 -126 49q-91 0 -165 -87t-74 -228q0 -107 51 -160.5t113 -53.5zM390 843v16h30l78 -59
l136 59h38v-15l-162 -119h-52l-69 119z" />
    <glyph glyph-name="ccaron" unicode="&#x10d;" horiz-adv-x="399" 
d="M304 515q36 0 62 -23.5t39 -58.5v-29l1 1l-47 -72h-37q-7 90 -58 90q-50 0 -83 -76.5t-33 -172.5q0 -50 15 -70t45 -20q56 0 112 54l33 -42q-103 -103 -198 -103q-61 0 -99 38.5t-38 109.5q0 94 29 167t80 112q113 95 177 95zM224 716v15h29l66 -82l109 82h38v-16
l-142 -154h-51z" />
    <glyph glyph-name="Dcaron" unicode="&#x10e;" horiz-adv-x="747" 
d="M304 0h-320l12 69l78 16l87 493l-72 15l12 70h385q123 0 190 -63.5t67 -178.5q0 -126 -61.5 -223.5t-160.5 -147.5t-217 -50zM225 78h83q110 0 194 96.5t84 241.5q0 87 -37.5 128t-114.5 41h-120zM331 843v16h29l79 -59l135 59h39v-15l-162 -119h-53l-68 119z" />
    <glyph glyph-name="dcaron" unicode="&#x10f;" horiz-adv-x="508" 
d="M344 -6l-68 17l-1 65l-14 9q-118 -92 -164 -92q-38 0 -59 33t-21 75q0 104 35 188t81 128q50 44 87 66t72 22q16 0 61 -15l26 141l-90 21q1 8 4 24.5t4 25.5l189 52l41 -28l-134 -625q12 4 40.5 15t39.5 15l21 -47zM149 183q0 -32 10 -50t26 -18q32 0 104 65l46 223
q-21 16 -49 16q-54 0 -95.5 -74t-41.5 -162zM571 533v5q1 2 71 210h97v-8l1 1l-110 -208h-59z" />
    <glyph glyph-name="Dcroat" unicode="&#x110;" horiz-adv-x="747" 
d="M304 0h-320l12 69l78 16l38 215h-81l10 61h82l38 217l-72 15l12 70h385q123 0 190 -63.5t67 -178.5q0 -126 -61.5 -223.5t-160.5 -147.5t-217 -50zM225 78h83q110 0 194 96.5t84 241.5q0 87 -37.5 128t-114.5 41h-120l-39 -224h117l-10 -61h-118z" />
    <glyph glyph-name="dcroat" unicode="&#x111;" horiz-adv-x="508" 
d="M271 608h105l4 23l-90 21q1 8 4 24.5t4 25.5l189 52l41 -28l-25 -118h52l-10 -57h-55l-96 -450q12 4 40.5 15t39.5 15l21 -47l-150 -90l-68 17l-1 65l-14 9q-118 -92 -164 -92q-38 0 -59 33t-21 75q0 104 35 188t81 128q50 44 87 66t72 22q16 0 61 -15l11 61h-104z
M150 183q0 -32 10 -50t26 -18q32 0 104 65l46 223q-21 16 -49 16q-54 0 -95.5 -74t-41.5 -162z" />
    <glyph glyph-name="Emacron" unicode="&#x112;" horiz-adv-x="593" 
d="M224 76h212q17 27 80 122h47l-49 -203l-153 5h-377l12 69l77 16l87 493l-71 15l12 70h370l128 4q-4 -27 -8.5 -57t-10 -65.5t-8.5 -56.5h-46l-32 98h-181l-38 -221l118 6l55 85h45q-7 -42 -22 -125t-22 -125h-45l-23 87l-119 3zM507 751h-266v66h266v-66z" />
    <glyph glyph-name="emacron" unicode="&#x113;" horiz-adv-x="429" 
d="M409 414q0 -89 -67.5 -143.5t-192.5 -93.5v-16q0 -42 14 -58.5t44 -16.5q71 0 156 75l38 -39q-48 -54 -114 -91.5t-130 -37.5q-63 0 -100.5 35.5t-37.5 101.5q0 103 38 191.5t100 128.5q97 65 150 65q102 0 102 -101zM441 587h-266v66h266v-66zM251 415
q-35 -2 -61.5 -48.5t-36.5 -122.5q71 24 104.5 56.5t33.5 78.5q0 36 -40 36z" />
    <glyph glyph-name="Edotaccent" unicode="&#x116;" horiz-adv-x="593" 
d="M224 76h212q17 27 80 122h47l-49 -203l-153 5h-377l12 69l77 16l87 493l-71 15l12 70h370l128 4q-4 -27 -8.5 -57t-10 -65.5t-8.5 -56.5h-46l-32 98h-181l-38 -221l118 6l55 85h45q-7 -42 -22 -125t-22 -125h-45l-23 87l-119 3zM335 777q0 34 20.5 60.5t50.5 26.5
q24 0 37.5 -18.5t13.5 -45.5q0 -34 -21.5 -59t-48.5 -25q-23 0 -37.5 18t-14.5 43z" />
    <glyph glyph-name="edotaccent" unicode="&#x117;" horiz-adv-x="429" 
d="M409 414q0 -89 -67.5 -143.5t-192.5 -93.5v-16q0 -42 14 -58.5t44 -16.5q71 0 156 75l38 -39q-48 -54 -114 -91.5t-130 -37.5q-63 0 -100.5 35.5t-37.5 101.5q0 103 38 191.5t100 128.5q97 65 150 65q102 0 102 -101zM267 634q0 37 23 67t57 30q25 0 40 -20.5t15 -51.5
q0 -37 -23 -64.5t-53 -27.5q-26 0 -42.5 20t-16.5 47zM251 415q-35 -2 -61.5 -48.5t-36.5 -122.5q71 24 104.5 56.5t33.5 78.5q0 36 -40 36z" />
    <glyph glyph-name="Eogonek" unicode="&#x118;" horiz-adv-x="593" 
d="M224 76h212q17 27 80 122h47l-49 -203l-14 1q-68 -46 -68 -115q0 -23 13.5 -38.5t31.5 -15.5q10 0 14 1q0 -6 1 -19.5t1 -18.5q-22 -4 -34 -4q-42 0 -72.5 20t-30.5 56q0 37 29.5 72.5t76.5 62.5l-101 3h-377l12 69l77 16l87 493l-71 15l12 70h370l128 4q-4 -27 -8.5 -57
t-10 -65.5t-8.5 -56.5h-46l-32 98h-181l-38 -221l118 6l55 85h45q-7 -42 -22 -125t-22 -125h-45l-23 87l-119 3z" />
    <glyph glyph-name="eogonek" unicode="&#x119;" horiz-adv-x="429" 
d="M409 414q0 -89 -67.5 -143.5t-192.5 -93.5v-16q0 -42 14 -58.5t44 -16.5q71 0 156 75l38 -39q-51 -59 -117 -93q-50 -43 -50 -101q0 -23 13.5 -38.5t31.5 -15.5q10 0 14 1q0 -6 1 -19.5t1 -18.5q-22 -4 -34 -4q-41 0 -72 20t-31 56q0 46 43 89q-35 -5 -44 -5
q-63 0 -100.5 35.5t-37.5 101.5q0 103 38 191.5t100 128.5q97 65 150 65q102 0 102 -101zM251 415q-35 -2 -61.5 -48.5t-36.5 -122.5q71 24 104.5 56.5t33.5 78.5q0 36 -40 36z" />
    <glyph glyph-name="Ecaron" unicode="&#x11a;" horiz-adv-x="593" 
d="M224 76h212q17 27 80 122h47l-49 -203l-153 5h-377l12 69l77 16l87 493l-71 15l12 70h370l128 4q-4 -27 -8.5 -57t-10 -65.5t-8.5 -56.5h-46l-32 98h-181l-38 -221l118 6l55 85h45q-7 -42 -22 -125t-22 -125h-45l-23 87l-119 3zM285 843v16h29l78 -59l136 59h38v-15
l-162 -119h-52l-68 119z" />
    <glyph glyph-name="ecaron" unicode="&#x11b;" horiz-adv-x="429" 
d="M408 414q0 -89 -67.5 -143.5t-192.5 -93.5v-16q0 -42 14 -58.5t44 -16.5q71 0 156 75l38 -39q-48 -54 -114 -91.5t-130 -37.5q-63 0 -100.5 35.5t-37.5 101.5q0 103 38 191.5t100 128.5q97 65 150 65q102 0 102 -101zM232 716v15h29l66 -82l109 82h38v-16l-142 -154h-51z
M250 415q-35 -2 -61.5 -48.5t-36.5 -122.5q71 24 104.5 56.5t33.5 78.5q0 36 -40 36z" />
    <glyph glyph-name="Gbreve" unicode="&#x11e;" horiz-adv-x="736" 
d="M376 67q58 0 103 33l24 136q-15 2 -47 8.5t-35 7.5l12 69h291l-12 -69l-64 -16l-31 -181q-125 -66 -269 -66q-84 0 -151 26.5t-110.5 88t-43.5 149.5q0 97 37 177.5t99 133t141.5 81.5t165.5 29q106 0 217 -48l-12 -175h-66l-23 96q-41 49 -129 49q-51 0 -97 -19.5
t-85 -57.5t-62.5 -103t-23.5 -148q0 -105 51 -153t120 -48zM481 715q-46 0 -74 24t-28 71q0 14 5 39h41q-5 -26 14.5 -44.5t57.5 -18.5q40 0 73.5 18t40.5 45h44q-16 -65 -66 -99.5t-108 -34.5z" />
    <glyph glyph-name="gbreve" unicode="&#x11f;" horiz-adv-x="471" 
d="M489 493v-88h-72q0 -8 1 -11v1q2 -10 2 -18q0 -91 -68 -154.5t-180 -63.5q-18 -27 -9 -41.5t32 -18.5q200 -34 200 -151q0 -89 -80.5 -141t-184.5 -52q-91 0 -142 32.5t-51 89.5q0 88 133 143q-17 25 -17 57q0 53 60 96q-83 40 -83 127q0 90 72 150t159 60q77 0 122 -50
l45 33h61zM271 -90q0 68 -154 76q-71 -32 -71 -94q0 -70 99 -70q50 0 88 24.5t38 63.5zM162 284q0 -58 44 -58q35 0 64 45t29 104t-49 59q-34 0 -61 -44.5t-27 -105.5zM264 551q-38 0 -62 31t-24 90q0 25 4 49h41q-3 -36 12.5 -62.5t44.5 -26.5q36 0 63.5 25t35.5 64h45
q-13 -81 -59.5 -125.5t-100.5 -44.5z" />
    <glyph glyph-name="Gdotaccent" unicode="&#x120;" horiz-adv-x="736" 
d="M376 67q58 0 103 33l24 136q-15 2 -47 8.5t-35 7.5l12 69h291l-12 -69l-64 -16l-31 -181q-125 -66 -269 -66q-84 0 -151 26.5t-110.5 88t-43.5 149.5q0 97 37 177.5t99 133t141.5 81.5t165.5 29q106 0 217 -48l-12 -175h-66l-23 96q-41 49 -129 49q-51 0 -97 -19.5
t-85 -57.5t-62.5 -103t-23.5 -148q0 -105 51 -153t120 -48zM449 777q0 34 20.5 60.5t50.5 26.5q23 0 36.5 -18.5t13.5 -45.5q0 -34 -21 -59t-48 -25q-23 0 -37.5 18t-14.5 43z" />
    <glyph glyph-name="gdotaccent" unicode="&#x121;" horiz-adv-x="471" 
d="M489 493v-88h-72q0 -8 1 -11v1q2 -10 2 -18q0 -91 -68 -154.5t-180 -63.5q-18 -27 -9 -41.5t32 -18.5q200 -34 200 -151q0 -89 -80.5 -141t-184.5 -52q-91 0 -142 32.5t-51 89.5q0 88 133 143q-17 25 -17 57q0 53 60 96q-83 40 -83 127q0 90 72 150t159 60q77 0 122 -50
l45 33h61zM271 -90q0 68 -154 76q-71 -32 -71 -94q0 -70 99 -70q50 0 88 24.5t38 63.5zM162 284q0 -58 44 -58q35 0 64 45t29 104t-49 59q-34 0 -61 -44.5t-27 -105.5zM230 634q0 37 22.5 67t56.5 30q26 0 41 -20.5t15 -51.5q0 -37 -23.5 -64.5t-53.5 -27.5q-25 0 -41.5 20
t-16.5 47z" />
    <glyph glyph-name="Gcommaaccent" unicode="&#x122;" horiz-adv-x="736" 
d="M376 67q58 0 103 33l24 136q-15 2 -47 8.5t-35 7.5l12 69h291l-12 -69l-64 -16l-31 -181q-125 -66 -269 -66q-84 0 -151 26.5t-110.5 88t-43.5 149.5q0 97 37 177.5t99 133t141.5 81.5t165.5 29q106 0 217 -48l-12 -175h-66l-23 96q-41 49 -129 49q-51 0 -97 -19.5
t-85 -57.5t-62.5 -103t-23.5 -148q0 -105 51 -153t120 -48zM298 -268l-44 31l48 85q3 15 10.5 46t11.5 48q11 -5 37 -15t42 -17l-41 -91h1q-9 -12 -31 -41.5t-34 -45.5z" />
    <glyph glyph-name="gcommaaccent" unicode="&#x123;" horiz-adv-x="471" 
d="M489 493v-88h-72q0 -8 1 -11v1q2 -10 2 -18q0 -91 -68 -154.5t-180 -63.5q-18 -27 -9 -41.5t32 -18.5q200 -34 200 -151q0 -89 -80.5 -141t-184.5 -52q-91 0 -142 32.5t-51 89.5q0 88 133 143q-17 25 -17 57q0 53 60 96q-83 40 -83 127q0 90 72 150t159 60q77 0 122 -50
l45 33h61zM271 -90q0 68 -154 76q-71 -32 -71 -94q0 -70 99 -70q50 0 88 24.5t38 63.5zM162 284q0 -58 44 -58q35 0 64 45t29 104t-49 59q-34 0 -61 -44.5t-27 -105.5zM321 773l45 -31l-48 -86q-20 -81 -23 -94q-16 7 -42 17t-37 15l41 91h-1z" />
    <glyph glyph-name="Hbar" unicode="&#x126;" horiz-adv-x="771" 
d="M79 518h71l10 60l-71 15l12 70h300l-12 -69l-78 -16l-10 -60h272l11 60l-73 15l12 70h301l-12 -69l-78 -16l-10 -60h82l-10 -60h-84l-64 -373l71 -15l-12 -70h-301l13 69l78 16l38 221h-272l-39 -221l73 -15l-12 -70h-301l12 69l77 16l65 373h-69zM279 391h272l11 67
h-272z" />
    <glyph glyph-name="hbar" unicode="&#x127;" horiz-adv-x="529" 
d="M83 587h57l8 43l-81 20l9 52l174 52l45 -39l-27 -128h99l-10 -57h-102q0 -1 -0.5 -5t-0.5 -5l-17 -79l15 -7q38 26 60.5 39.5t56.5 27.5t59 14q66 0 66 -80q0 -32 -10 -75v1l-71 -253l78 29q3 -7 11 -24.5t11 -24.5l-140 -94l-87 27q0 8 0.5 33.5t0.5 34.5l65 268
q8 40 -24 40q-36 0 -107 -42q-12 -61 -37 -179t-32 -152l-55 -24h-77l102 486l7 44h-56z" />
    <glyph glyph-name="Imacron" unicode="&#x12a;" horiz-adv-x="369" 
d="M108 663h307l-13 -69l-80 -16l-87 -493q6 -1 34 -7.5t41 -8.5l-12 -69h-307l12 69l81 16l86 493q-72 16 -74 16zM402 751h-265v66h265v-66z" />
    <glyph glyph-name="imacron" unicode="&#x12b;" horiz-adv-x="310" 
d="M292 95l-156 -101l-77 29q-1 8 -4 25.5t-4 26.5l84 322l-91 -29q-3 9 -10.5 27t-10.5 25l132 90l93 -12l22 -48l-84 -339l85 32q3 -9 11 -26.5t10 -21.5zM344 600h-266v66h266v-66z" />
    <glyph glyph-name="Iogonek" unicode="&#x12e;" horiz-adv-x="369" 
d="M108 663h307l-13 -69l-80 -16l-87 -493q6 -1 34 -7.5t41 -8.5l-12 -69h-9q-73 -47 -73 -117q0 -24 13.5 -39t32.5 -15q10 0 14 1q0 -6 1 -19.5t1 -18.5q-22 -4 -35 -4q-41 0 -71.5 20t-30.5 56t30 72t78 64h-258l12 69l81 16l86 493q-72 16 -74 16z" />
    <glyph glyph-name="iogonek" unicode="&#x12f;" horiz-adv-x="310" 
d="M291 96l-149 -98q-38 -38 -38 -90q0 -23 13.5 -38.5t31.5 -15.5q10 0 14 1q0 -6 1 -19.5t1 -18.5q-22 -4 -34 -4q-41 0 -72 20t-31 56q0 61 79 116q-4 2 -21.5 8.5t-26.5 9.5q-1 8 -4 25.5t-4 26.5l84 322l-91 -29q-3 9 -10.5 27t-10.5 25l132 90l93 -12l22 -48l-84 -339
l85 32zM172 659q0 36 22.5 63t55.5 27q28 0 48.5 -20t20.5 -57q0 -42 -21.5 -66.5t-54.5 -24.5t-52 21.5t-19 56.5z" />
    <glyph glyph-name="Idotaccent" unicode="&#x130;" horiz-adv-x="369" 
d="M108 663h307l-13 -69l-80 -16l-87 -493q6 -1 34 -7.5t41 -8.5l-12 -69h-307l12 69l81 16l86 493q-72 16 -74 16zM230 777q0 34 21 60.5t51 26.5q23 0 36.5 -18.5t13.5 -45.5q0 -34 -21 -59t-48 -25q-23 0 -38 18t-15 43z" />
    <glyph glyph-name="dotlessi" unicode="&#x131;" horiz-adv-x="310" 
d="M292 95l-156 -101l-77 29q-1 8 -4 25.5t-4 26.5l84 322l-91 -29q-3 9 -10.5 27t-10.5 25l132 90l93 -12l22 -48l-84 -339l85 32q3 -9 11 -26.5t10 -21.5z" />
    <glyph glyph-name="Kcommaaccent" unicode="&#x136;" horiz-adv-x="691" 
d="M311 578l-36 -208h39l215 199l-65 24l12 70h254l-12 -70l-91 -29l-198 -183l167 -296q6 -2 21 -7.5t23 -7.5l-12 -70h-277l12 69l48 12l-111 219h-38l-38 -215l73 -15l-12 -70h-301l12 69l77 16l87 493l-71 15l12 70h300l-12 -69zM254 -268l-45 31l49 85q3 15 10.5 46
t11.5 48q11 -5 37 -15t42 -17l-41 -91h1q-9 -12 -31 -41.5t-34 -45.5z" />
    <glyph glyph-name="kcommaaccent" unicode="&#x137;" horiz-adv-x="484" 
d="M439 357h-13l-37 33q-41 0 -92 -71l-1 -20l98 -195l51 23l28 -40l-124 -96l-71 31l3 -1l-76 186h-22l-38 -188l-50 -19h-76l112 536l19 94l-81 20l7 55l178 49l42 -38l-50 -225l-42 -170h24q39 74 100 128.5t97 60.5l73 -53q-8 -14 -28 -48t-31 -52zM143 -253l-44 30
l48 86q3 15 10.5 46t11.5 48q10 -4 37 -14.5t43 -17.5l-41 -91h1q-10 -14 -32.5 -43t-33.5 -44z" />
    <glyph glyph-name="Lacute" unicode="&#x139;" horiz-adv-x="552" 
d="M476 -5l-147 5h-344l12 69l75 16l87 493l-30 7.5t-39 8.5l12 69h304l-12 -69l-84 -16l-88 -502h170l83 128h53zM193 725v16l-1 -1l86 119h116v-18q-22 -19 -68.5 -57.5t-68.5 -58.5h-64z" />
    <glyph glyph-name="lacute" unicode="&#x13a;" horiz-adv-x="278" 
d="M97 -10l-73 39q0 9 -0.5 34t-0.5 33l90 387l28 146q-14 3 -42 11t-33 9q1 9 4 26t4 27l186 52l37 -29l-54 -227l-89 -387l81 30l26 -51zM176 809v16l-1 -1l86 119h117v-18q-22 -19 -69 -57.5t-69 -58.5h-64z" />
    <glyph glyph-name="Lcommaaccent" unicode="&#x13b;" horiz-adv-x="552" 
d="M476 -5l-147 5h-344l12 69l75 16l87 493l-30 7.5t-39 8.5l12 69h304l-12 -69l-84 -16l-88 -502h170l83 128h53zM196 -268l-44 31l48 85q3 15 10.5 46t11.5 48q10 -4 37 -14.5t43 -17.5l-41 -91h1z" />
    <glyph glyph-name="lcommaaccent" unicode="&#x13c;" horiz-adv-x="278" 
d="M97 -10l-73 39q0 9 -0.5 34t-0.5 33l90 387l28 146q-14 3 -42 11t-33 9q1 9 4 26t4 27l186 52l37 -29l-54 -227l-89 -387l81 30l26 -51zM37 -263l-44 30l48 86q4 19 12.5 53t10.5 41q16 -7 42 -17t37 -15l-41 -91h1q-11 -16 -34 -45t-32 -42z" />
    <glyph glyph-name="Lcaron" unicode="&#x13d;" horiz-adv-x="552" 
d="M475 -5l-147 5h-344l12 69l75 16l87 493l-30 7.5t-39 8.5l12 69h304l-12 -69l-84 -16l-88 -502h170l83 128h53zM467 445v5q16 50 71 209h97v-8l1 1l-110 -207h-59z" />
    <glyph glyph-name="lcaron" unicode="&#x13e;" horiz-adv-x="313" 
d="M96 -10l-73 39q0 9 -0.5 34t-0.5 33l90 387l28 146q-14 3 -42 11t-33 9q1 9 4 26t4 27l186 52l37 -29l-54 -227l-89 -387l81 30l26 -51zM295 532v5l72 210h97v-8l1 1l-110 -208h-60z" />
    <glyph glyph-name="Ldot" unicode="&#x13f;" horiz-adv-x="552" 
d="M476 -5l-147 5h-344l12 69l75 16l87 493l-30 7.5t-39 8.5l12 69h304l-12 -69l-84 -16l-88 -502h170l83 128h53zM398 354q0 34 22.5 58t54.5 24t54.5 -24t22.5 -58t-22.5 -57t-54.5 -23t-54.5 23t-22.5 57z" />
    <glyph glyph-name="ldot" unicode="&#x140;" horiz-adv-x="410" 
d="M97 -10l-73 39q0 9 -0.5 34t-0.5 33l90 387l28 146q-14 3 -42 11t-33 9q1 9 4 26t4 27l186 52l37 -29l-54 -227l-89 -387l81 30l26 -51zM234 303q0 35 22 58.5t54 23.5q33 0 55.5 -23.5t22.5 -58.5q0 -34 -22.5 -57t-55.5 -23q-32 0 -54 23t-22 57z" />
    <glyph glyph-name="Lslash" unicode="&#x141;" horiz-adv-x="552" 
d="M476 -5l-147 5h-344l12 69l75 16l27 153q-8 -4 -26 -14.5t-24 -13.5q-5 9 -14 25t-13 23l90 51l47 269l-30 7.5t-39 8.5l12 69h304l-12 -69l-84 -16l-30 -173q3 2 94 54l26 -48l-132 -76l-46 -259h170l83 128h53z" />
    <glyph glyph-name="lslash" unicode="&#x142;" horiz-adv-x="278" 
d="M97 -10l-73 39q0 9 -0.5 34t-0.5 33l45 190q-2 -1 -15.5 -8.5t-19.5 -10.5l-28 43l79 47l29 126l28 146q-14 3 -42 11t-33 9q1 9 4 26t4 27l186 52l37 -29l-54 -227l-12 -56q7 4 27.5 17t30.5 19l29 -45l-104 -60l-60 -262l81 30l26 -51z" />
    <glyph glyph-name="Nacute" unicode="&#x143;" horiz-adv-x="755" 
d="M555 229h22l34 201l22 148q-9 2 -26 5.5t-31 6t-26 4.5l12 69h246l-12 -69l-77 -16l-32 -153q-12 -71 -37 -212.5t-37 -212.5h-91l-287 451h-21l-33 -198l-24 -168q6 -1 36 -7.5t45 -8.5l-12 -69h-242l12 69l74 16l34 165l57 326q-5 1 -34 7.5t-44 8.5l13 71h194z
M395 725v16l-1 -1l86 119h117v-18q-16 -14 -64 -54t-74 -62h-64z" />
    <glyph glyph-name="nacute" unicode="&#x144;" horiz-adv-x="545" 
d="M386 -6l-88 28q0 7 0.5 28.5t0.5 28.5l65 268q4 23 -2.5 36.5t-20.5 13.5q-42 0 -102 -39q-20 -104 -69 -330q-9 -4 -27.5 -13t-25.5 -12h-79l80 397l-83 -32l-18 53l142 89q15 -2 43.5 -8t43.5 -9l-3 -60h22q37 26 59 40.5t53.5 28t55.5 13.5q36 0 54 -16t18 -59
q0 -34 -12 -85l-61 -246q2 1 75 26l22 -46zM281 561v17l-1 -1l101 154h117v-18l-153 -152h-64z" />
    <glyph glyph-name="Ncommaaccent" unicode="&#x145;" horiz-adv-x="755" 
d="M555 229h22l34 201l22 148q-9 2 -26 5.5t-31 6t-26 4.5l12 69h246l-12 -69l-77 -16l-32 -153q-12 -71 -37 -212.5t-37 -212.5h-91l-287 451h-21l-33 -198l-24 -168q6 -1 36 -7.5t45 -8.5l-12 -69h-242l12 69l74 16l34 165l57 326q-5 1 -34 7.5t-44 8.5l13 71h194z
M279 -268l-45 31l49 85q3 15 10.5 46t11.5 48q11 -5 37 -15t42 -17l-41 -91h1q-9 -12 -31 -41.5t-34 -45.5z" />
    <glyph glyph-name="ncommaaccent" unicode="&#x146;" horiz-adv-x="545" 
d="M386 -6l-88 28q0 7 0.5 28.5t0.5 28.5l65 268q4 23 -2.5 36.5t-20.5 13.5q-42 0 -102 -39q-20 -104 -69 -330q-9 -4 -27.5 -13t-25.5 -12h-79l80 397l-83 -32l-18 53l142 89q15 -2 43.5 -8t43.5 -9l-3 -60h22q37 26 59 40.5t53.5 28t55.5 13.5q36 0 54 -16t18 -59
q0 -34 -12 -85l-61 -246q2 1 75 26l22 -46zM175 -253l-44 30l48 86q3 15 11 46t12 48q11 -5 37 -15t42 -17l-41 -91h1q-9 -13 -20 -27.5t-25 -32t-21 -27.5z" />
    <glyph glyph-name="Ncaron" unicode="&#x147;" horiz-adv-x="755" 
d="M555 229h22l34 201l22 148q-9 2 -26 5.5t-31 6t-26 4.5l12 69h246l-12 -69l-77 -16l-32 -153q-12 -71 -37 -212.5t-37 -212.5h-91l-287 451h-21l-33 -198l-24 -168q6 -1 36 -7.5t45 -8.5l-12 -69h-242l12 69l74 16l34 165l57 326q-5 1 -34 7.5t-44 8.5l13 71h194z
M366 843v16h29l79 -59l136 59h38v-15l-162 -119h-52l-69 119z" />
    <glyph glyph-name="ncaron" unicode="&#x148;" horiz-adv-x="545" 
d="M386 -6l-88 28q0 7 0.5 28.5t0.5 28.5l65 268q4 23 -2.5 36.5t-20.5 13.5q-42 0 -102 -39q-20 -104 -69 -330q-9 -4 -27.5 -13t-25.5 -12h-79l80 397l-83 -32l-18 53l142 89q15 -2 43.5 -8t43.5 -9l-3 -60h22q37 26 59 40.5t53.5 28t55.5 13.5q36 0 54 -16t18 -59
q0 -34 -12 -85l-61 -246q2 1 75 26l22 -46zM266 716v15h29l66 -82l110 82h37v-16l-142 -154h-51z" />
    <glyph glyph-name="Omacron" unicode="&#x14c;" horiz-adv-x="785" 
d="M43 258q0 73 25 139.5t68 116t97.5 86.5t115 55.5t119.5 18.5q142 0 226.5 -72t84.5 -198q0 -90 -37 -168.5t-98 -132t-140 -84t-162 -30.5q-132 0 -215.5 72.5t-83.5 196.5zM447 596q-76 0 -132.5 -48t-83.5 -120.5t-27 -155.5q0 -98 48 -150.5t123 -52.5q41 0 81.5 18
t77.5 53.5t60 100.5t23 148q0 102 -49.5 154.5t-120.5 52.5zM615 751h-266v66h266v-66z" />
    <glyph glyph-name="omacron" unicode="&#x14d;" horiz-adv-x="469" 
d="M317 515q57 0 95.5 -36t38.5 -111q0 -85 -24.5 -160.5t-71.5 -120.5v1q-114 -95 -201 -95q-65 0 -100.5 42t-35.5 105q0 90 25.5 165.5t76.5 119.5q51 39 106 64.5t91 25.5zM149 194q0 -102 51 -102q39 0 67.5 42.5t40 92.5t11.5 93q0 48 -10.5 72.5t-36.5 24.5
q-53 0 -88 -66t-35 -157zM444 587h-267v66h267v-66z" />
    <glyph glyph-name="Ohungarumlaut" unicode="&#x150;" horiz-adv-x="785" 
d="M43 258q0 73 25 139.5t68 116t97.5 86.5t115 55.5t119.5 18.5q142 0 226.5 -72t84.5 -198q0 -90 -37 -168.5t-98 -132t-140 -84t-162 -30.5q-132 0 -215.5 72.5t-83.5 196.5zM447 596q-76 0 -132.5 -48t-83.5 -120.5t-27 -155.5q0 -98 48 -150.5t123 -52.5q41 0 81.5 18
t77.5 53.5t60 100.5t23 148q0 102 -49.5 154.5t-120.5 52.5zM331 725v16l-1 -1l86 119h116v-18q-26 -22 -74 -62t-64 -54h-63zM502 725v16l-1 -1l86 119h116v-18q-26 -22 -74 -62t-64 -54h-63z" />
    <glyph glyph-name="ohungarumlaut" unicode="&#x151;" horiz-adv-x="469" 
d="M317 515q57 0 95.5 -36t38.5 -111q0 -85 -24.5 -160.5t-71.5 -120.5v1q-114 -95 -201 -95q-65 0 -100.5 42t-35.5 105q0 90 25.5 165.5t76.5 119.5q51 39 106 64.5t91 25.5zM149 194q0 -102 51 -102q39 0 67.5 42.5t40 92.5t11.5 93q0 48 -10.5 72.5t-36.5 24.5
q-53 0 -88 -66t-35 -157zM346 561v17l-1 -1l95 154h117v-18l-153 -152h-58zM174 561v17l-1 -1l96 154h117v-18l-153 -152h-59z" />
    <glyph glyph-name="OE" unicode="&#x152;" horiz-adv-x="950" 
d="M583 76h211q17 27 80 122h48l-50 -203l-153 5h-280q-52 -11 -98 -11q-132 0 -215.5 72.5t-83.5 196.5q0 73 25 139.5t68 116t97.5 86.5t115 55.5t119.5 18.5q51 0 100 -11h262l128 4q-4 -30 -13 -89.5t-13 -89.5h-47l-32 98h-181l-38 -221l119 6l54 85h45
q-7 -42 -22 -125t-22 -125h-44l-24 87l-119 3zM374 69q29 0 58 8l85 504q-33 15 -71 15q-76 0 -132.5 -48t-83.5 -120.5t-27 -155.5q0 -98 48 -150.5t123 -52.5z" />
    <glyph glyph-name="oe" unicode="&#x153;" horiz-adv-x="726" 
d="M316 515q86 0 119 -83l20 18q97 65 150 65q102 0 102 -101q0 -90 -69.5 -144.5t-196.5 -93.5v-15q0 -42 15.5 -58.5t47.5 -16.5q72 0 156 75l39 -39q-49 -55 -115 -92t-129 -37q-90 0 -119 79q-108 -79 -183 -79q-65 0 -100.5 42t-35.5 105q0 90 25.5 165.5t76.5 119.5
q51 39 106 64.5t91 25.5zM148 194q0 -102 51 -102q41 0 70.5 42.5t41.5 92.5t12 93q0 48 -11.5 72.5t-40.5 24.5q-53 0 -88 -66t-35 -157zM548 415q-36 -1 -63.5 -47.5t-38.5 -124.5q143 46 143 136q0 36 -41 36z" />
    <glyph glyph-name="Racute" unicode="&#x154;" horiz-adv-x="674" 
d="M295 269h-42l-32 -184q9 -2 41 -8t48 -8l-12 -69h-314l12 69l80 16l87 493q-72 16 -74 16l12 69h315q189 0 189 -155q0 -55 -41.5 -111t-119.5 -86l-1 -11l151 -241l42 -18l-19 -50l-175 18zM308 579l-41 -238h45q57 0 96.5 38.5t39.5 103.5q0 96 -99 96h-41zM303 725v16
l-1 -1l85 119h117v-18q-23 -19 -69.5 -57.5t-68.5 -58.5h-63z" />
    <glyph glyph-name="racute" unicode="&#x155;" horiz-adv-x="379" 
d="M159 509l58 -20l-6 -80l20 -7q33 54 61 81t62 27q28 0 44 -8l-37 -157h-28l-16 23q-28 -2 -54.5 -19t-40.5 -47l-59 -278q-7 -4 -21 -12.5t-21 -11.5h-89l79 394q-11 -4 -37.5 -13.5t-36.5 -13.5l-20 51q21 14 68.5 44.5t73.5 46.5zM201 561v17l-1 -1l100 154h117v-18
l-153 -152h-63z" />
    <glyph glyph-name="Rcaron" unicode="&#x158;" horiz-adv-x="674" 
d="M295 269h-42l-32 -184q9 -2 41 -8t48 -8l-12 -69h-314l12 69l80 16l87 493q-72 16 -74 16l12 69h315q189 0 189 -155q0 -55 -41.5 -111t-119.5 -86l-1 -11l151 -241l42 -18l-19 -50l-175 18zM308 579l-41 -238h45q57 0 96.5 38.5t39.5 103.5q0 96 -99 96h-41zM274 843v16
h29l78 -59l136 59h38v-15l-162 -119h-52l-68 119z" />
    <glyph glyph-name="rcaron" unicode="&#x159;" horiz-adv-x="379" 
d="M159 509l58 -20l-6 -80l20 -7q33 54 61 81t62 27q28 0 44 -8l-37 -157h-28l-16 23q-28 -2 -54.5 -19t-40.5 -47l-59 -278q-7 -4 -21 -12.5t-21 -11.5h-89l79 394q-11 -4 -37.5 -13.5t-36.5 -13.5l-20 51q21 14 68.5 44.5t73.5 46.5zM185 716v15h30l65 -82l110 82h37v-16
l-142 -154h-50z" />
    <glyph glyph-name="Sacute" unicode="&#x15a;" horiz-adv-x="543" 
d="M25 35l18 174h55q12 -127 135 -127q47 0 81 27t34 72q0 34 -28.5 58.5t-82.5 51.5q-32 16 -53.5 29.5t-46 35.5t-37 51t-12.5 65q0 63 43 110.5t101.5 69.5t119.5 22q123 0 178 -39q-3 -29 -10 -85t-10 -83h-53q-7 59 -37.5 89.5t-75.5 30.5q-47 0 -77 -24.5t-30 -62.5
q0 -24 18 -45t37.5 -32.5t56.5 -29.5q33 -16 55 -29t47.5 -35t39 -52t13.5 -67q0 -90 -82.5 -155.5t-215.5 -65.5q-46 0 -103.5 13.5t-77.5 32.5zM317 725v16l-1 -1l85 119h117v-18q-26 -22 -74 -62t-64 -54h-63z" />
    <glyph glyph-name="sacute" unicode="&#x15b;" horiz-adv-x="370" 
d="M4 47v30l40 83h12q46 -58 117 -58q22 0 37.5 8.5t15.5 25.5t-12.5 28t-46.5 30q-2 1 -19 11q-87 49 -87 126q0 51 68.5 117.5t109.5 66.5q40 0 76 -14.5t53 -36.5l-1 1v-26l1 1l-41 -85h-17q-48 47 -102 47q-50 0 -50 -31q0 -19 56 -55l19 -12q49 -30 72 -60t23 -71
q0 -55 -68.5 -117.5t-132.5 -62.5q-36 0 -70 15t-54 40zM204 561v17l-1 -1l100 154h117v-18l-153 -152h-63z" />
    <glyph glyph-name="Scedilla" unicode="&#x15e;" horiz-adv-x="543" 
d="M150 -244l-8 36q87 16 87 53q0 19 -18.5 29t-47.5 10q-19 0 -27 -1l-3 4l63 103q-48 2 -100 15t-71 30l18 174h55q12 -127 135 -127q47 0 81 27t34 72q0 34 -28.5 58.5t-82.5 51.5q-32 16 -53.5 29.5t-46 35.5t-37 51t-12.5 65q0 63 43 110.5t101.5 69.5t119.5 22
q123 0 178 -39q-3 -29 -10 -85t-10 -83h-53q-7 59 -37.5 89.5t-75.5 30.5q-47 0 -77 -24.5t-30 -62.5q0 -24 18 -45t37.5 -32.5t56.5 -29.5q33 -16 55 -29t47.5 -35t39 -52t13.5 -67q0 -82 -71.5 -145.5t-189.5 -73.5l-29 -50q80 0 80 -71q0 -42 -42 -73.5t-102 -40.5z" />
    <glyph glyph-name="scedilla" unicode="&#x15f;" horiz-adv-x="370" 
d="M58 -230l-8 36q88 18 88 54q0 19 -18.5 29t-47.5 10q-20 0 -28 -1l-3 4l58 93q-60 11 -96 53l1 -1v30l40 83h12q46 -58 117 -58q22 0 37.5 8.5t15.5 25.5t-12.5 28t-46.5 30q-2 1 -19 11q-87 49 -87 126q0 51 68.5 117.5t109.5 66.5q40 0 76 -14.5t53 -36.5l-1 1v-26l1 1
l-41 -85h-17q-48 47 -102 47q-50 0 -50 -31q0 -19 56 -55l19 -12q49 -30 72 -60t23 -71q0 -50 -59.5 -108t-122.5 -69l-23 -40q80 0 80 -71q0 -42 -42.5 -74.5t-102.5 -40.5z" />
    <glyph glyph-name="Scaron" unicode="&#x160;" horiz-adv-x="543" 
d="M25 35l18 174h55q12 -127 135 -127q47 0 81 27t34 72q0 34 -28.5 58.5t-82.5 51.5q-32 16 -53.5 29.5t-46 35.5t-37 51t-12.5 65q0 63 43 110.5t101.5 69.5t119.5 22q123 0 178 -39q-3 -29 -10 -85t-10 -83h-53q-7 59 -37.5 89.5t-75.5 30.5q-47 0 -77 -24.5t-30 -62.5
q0 -24 18 -45t37.5 -32.5t56.5 -29.5q33 -16 55 -29t47.5 -35t39 -52t13.5 -67q0 -90 -82.5 -155.5t-215.5 -65.5q-46 0 -103.5 13.5t-77.5 32.5zM288 843v16h29l78 -59l136 59h38v-15l-162 -119h-52l-68 119z" />
    <glyph glyph-name="scaron" unicode="&#x161;" horiz-adv-x="370" 
d="M4 47v30l40 83h12q46 -58 117 -58q22 0 37.5 8.5t15.5 25.5t-12.5 28t-46.5 30q-2 1 -19 11q-87 49 -87 126q0 51 68.5 117.5t109.5 66.5q40 0 76 -14.5t53 -36.5l-1 1v-26l1 1l-41 -85h-17q-48 47 -102 47q-50 0 -50 -31q0 -19 56 -55l19 -12q49 -30 72 -60t23 -71
q0 -55 -68.5 -117.5t-132.5 -62.5q-36 0 -70 15t-54 40zM188 716v15h30l65 -82l110 82h37v-16l-142 -154h-50z" />
    <glyph glyph-name="Tcommaaccent" unicode="&#x162;" horiz-adv-x="666" 
d="M118 667l167 -4h247l169 4q-3 -35 -10 -102t-10 -102h-57l-16 119h-140l-87 -497q9 -2 26 -5.5t31 -6t26 -4.5l-12 -69h-320l12 69l87 16l87 497h-139q-7 -16 -25.5 -57t-28.5 -62h-58q5 21 23.5 92.5t27.5 111.5zM236 -268l-44 31l48 85q20 81 23 94q11 -5 37 -15
t42 -17l-41 -91h1q-11 -15 -33.5 -44t-32.5 -43z" />
    <glyph glyph-name="Tcommaaccent" unicode="&#x21a;" horiz-adv-x="666" 
d="M118 667l167 -4h247l169 4q-3 -35 -10 -102t-10 -102h-57l-16 119h-140l-87 -497q9 -2 26 -5.5t31 -6t26 -4.5l-12 -69h-320l12 69l87 16l87 497h-139q-7 -16 -25.5 -57t-28.5 -62h-58q5 21 23.5 92.5t27.5 111.5zM236 -268l-44 31l48 85q20 81 23 94q11 -5 37 -15
t42 -17l-41 -91h1q-11 -15 -33.5 -44t-32.5 -43z" />
    <glyph glyph-name="tcommaaccent" unicode="&#x163;" horiz-adv-x="338" 
d="M148 -6l-106 28q0 9 -1 32t-1 32l67 309h-74q3 12 7 33t6 32l82 22l26 133l103 47q6 -7 17.5 -18.5t17.5 -18.5l-46 -144h109l-14 -85l-106 -1l-63 -294q20 6 61.5 21t50.5 18q4 -8 11 -24t11 -24zM54 -253l-44 30l48 86q20 81 23 94q11 -5 37 -15t42 -17l-41 -91h1
q-9 -13 -20 -27.5t-25 -32t-21 -27.5z" />
    <glyph glyph-name="tcommaaccent" unicode="&#x21b;" horiz-adv-x="338" 
d="M148 -6l-106 28q0 9 -1 32t-1 32l67 309h-74q3 12 7 33t6 32l82 22l26 133l103 47q6 -7 17.5 -18.5t17.5 -18.5l-46 -144h109l-14 -85l-106 -1l-63 -294q20 6 61.5 21t50.5 18q4 -8 11 -24t11 -24zM54 -253l-44 30l48 86q20 81 23 94q11 -5 37 -15t42 -17l-41 -91h1
q-9 -13 -20 -27.5t-25 -32t-21 -27.5z" />
    <glyph glyph-name="Tcaron" unicode="&#x164;" horiz-adv-x="666" 
d="M118 667l167 -4h247l169 4q-3 -35 -10 -102t-10 -102h-57l-16 119h-140l-87 -497q9 -2 26 -5.5t31 -6t26 -4.5l-12 -69h-320l12 69l87 16l87 497h-139q-7 -16 -25.5 -57t-28.5 -62h-58q5 21 23.5 92.5t27.5 111.5zM320 843v16h29l79 -59l135 59h39v-15l-162 -119h-53
l-68 119z" />
    <glyph glyph-name="tcaron" unicode="&#x165;" horiz-adv-x="338" 
d="M146 -6l-106 28q0 9 -1 32t-1 32l67 309h-74q3 12 7 33t6 32l82 22l26 133l103 47q6 -7 17.5 -18.5t17.5 -18.5l-46 -144h109l-14 -85l-106 -1l-63 -294q20 6 61.5 21t50.5 18q4 -8 11 -24t11 -24zM338 542v5q1 2 71 210h97v-8l1 1l-110 -208h-59z" />
    <glyph glyph-name="Umacron" unicode="&#x16a;" horiz-adv-x="735" 
d="M563 663h226l-12 -69l-68 -16l-38 -158l-36 -210q-8 -37 -30 -74t-58 -71t-92 -55t-123 -21q-121 0 -185 46t-64 128q0 13 4 39l66 376q-69 15 -75 16l13 69h306l-12 -69l-81 -16l-64 -358q-3 -15 -3 -31q0 -52 32.5 -85t96.5 -33q74 0 131 47t72 133l31 174l18 153
l-67 15zM615 751h-266v66h266v-66z" />
    <glyph glyph-name="umacron" unicode="&#x16b;" horiz-adv-x="539" 
d="M386 -6l-84 30l-1 58l-16 5q-115 -94 -176 -94q-64 0 -64 69q0 28 9 64l67 270l-79 -35l-26 51l141 97l76 -13l13 -67q-9 -42 -20 -89.5t-25 -105.5t-21 -90v1q-11 -39 22 -39q16 0 49 24.5t59 56.5q10 46 33 142.5t33 142.5l55 28h77l-90 -397l83 35l22 -44zM460 587
h-266v66h266v-66z" />
    <glyph glyph-name="Ubreve" unicode="&#x16c;" horiz-adv-x="735" 
d="M563 663h226l-12 -69l-68 -16l-38 -158l-36 -210q-8 -37 -30 -74t-58 -71t-92 -55t-123 -21q-121 0 -185 46t-64 128q0 13 4 39l66 376q-69 15 -75 16l13 69h306l-12 -69l-81 -16l-64 -358q-3 -15 -3 -31q0 -52 32.5 -85t96.5 -33q74 0 131 47t72 133l31 174l18 153
l-67 15zM475 715q-46 0 -74 24t-28 71q0 14 5 39h41q-5 -26 14.5 -44.5t57.5 -18.5q40 0 73.5 18t40.5 45h44q-16 -65 -66 -99.5t-108 -34.5z" />
    <glyph glyph-name="ubreve" unicode="&#x16d;" horiz-adv-x="539" 
d="M386 -6l-84 30l-1 58l-16 5q-115 -94 -176 -94q-64 0 -64 69q0 28 9 64l67 270l-79 -35l-26 51l141 97l76 -13l13 -67q-9 -42 -20 -89.5t-25 -105.5t-21 -90v1q-11 -39 22 -39q16 0 49 24.5t59 56.5q10 46 33 142.5t33 142.5l55 28h77l-90 -397l83 35l22 -44zM320 551
q-39 0 -62.5 31t-23.5 90q0 25 4 49h40q-3 -36 13 -62.5t45 -26.5q35 0 63 25t35 64h46q-13 -80 -60 -125t-100 -45z" />
    <glyph glyph-name="Uring" unicode="&#x16e;" horiz-adv-x="735" 
d="M563 663h226l-12 -69l-68 -16l-38 -158l-36 -210q-8 -37 -30 -74t-58 -71t-92 -55t-123 -21q-121 0 -185 46t-64 128q0 13 4 39l66 376q-69 15 -75 16l13 69h306l-12 -69l-81 -16l-64 -358q-3 -15 -3 -31q0 -52 32.5 -85t96.5 -33q74 0 131 47t72 133l31 174l18 153
l-67 15zM392 822q0 43 29 73t70 30t70.5 -30t29.5 -73q0 -42 -29.5 -72t-70.5 -30t-70 30t-29 72zM439 822q0 -22 14 -37t37 -15q24 0 39 15t15 37q0 23 -15 38.5t-39 15.5q-23 0 -37 -15.5t-14 -38.5z" />
    <glyph glyph-name="uring" unicode="&#x16f;" horiz-adv-x="539" 
d="M386 -6l-84 30l-1 58l-16 5q-115 -94 -176 -94q-64 0 -64 69q0 28 9 64l67 270l-79 -35l-26 51l141 97l76 -13l13 -67q-9 -42 -20 -89.5t-25 -105.5t-21 -90v1q-11 -39 22 -39q16 0 49 24.5t59 56.5q10 46 33 142.5t33 142.5l55 28h77l-90 -397l83 35l22 -44zM237 658
q0 43 29 73t70 30t70 -30t29 -73q0 -42 -29 -72t-70 -30t-70 30t-29 72zM283 658q0 -22 14.5 -37t37.5 -15q24 0 39 15t15 37q0 23 -15 39t-39 16q-23 0 -37.5 -16t-14.5 -39z" />
    <glyph glyph-name="Uhungarumlaut" unicode="&#x170;" horiz-adv-x="735" 
d="M563 663h226l-12 -69l-68 -16l-38 -158l-36 -210q-8 -37 -30 -74t-58 -71t-92 -55t-123 -21q-121 0 -185 46t-64 128q0 13 4 39l66 376q-69 15 -75 16l13 69h306l-12 -69l-81 -16l-64 -358q-3 -15 -3 -31q0 -52 32.5 -85t96.5 -33q74 0 131 47t72 133l31 174l18 153
l-67 15zM331 725v16l-1 -1l86 119h116v-18q-26 -22 -74 -62t-64 -54h-63zM502 725v16l-1 -1l86 119h116v-18q-26 -22 -74 -62t-64 -54h-63z" />
    <glyph glyph-name="uhungarumlaut" unicode="&#x171;" horiz-adv-x="539" 
d="M386 -6l-84 30l-1 58l-16 5q-115 -94 -176 -94q-64 0 -64 69q0 28 9 64l67 270l-79 -35l-26 51l141 97l76 -13l13 -67q-9 -42 -20 -89.5t-25 -105.5t-21 -90v1q-11 -39 22 -39q16 0 49 24.5t59 56.5q10 46 33 142.5t33 142.5l55 28h77l-90 -397l83 35l22 -44zM362 561v17
l-1 -1l96 154h117v-18l-154 -152h-58zM191 561v17l-1 -1l95 154h117v-18l-153 -152h-58z" />
    <glyph glyph-name="Uogonek" unicode="&#x172;" horiz-adv-x="735" 
d="M563 663h226l-12 -69l-68 -16l-38 -158l-36 -210q-10 -55 -52 -109t-109 -83q-58 -44 -58 -107q0 -23 13.5 -38.5t31.5 -15.5q10 0 14 1q0 -6 1 -19.5t1 -18.5q-22 -4 -34 -4q-42 0 -72.5 20t-30.5 56q0 51 58 102q-38 -5 -66 -5q-121 0 -185 46t-64 128q0 13 4 39
l66 376q-69 15 -75 16l13 69h306l-12 -69l-81 -16l-64 -358q-3 -15 -3 -31q0 -52 32.5 -85t96.5 -33q74 0 131 47t72 133l31 174l18 153l-67 15z" />
    <glyph glyph-name="uogonek" unicode="&#x173;" horiz-adv-x="539" 
d="M523 94l-135 -98q-34 -38 -34 -86q0 -23 13.5 -38.5t31.5 -15.5q10 0 14 1q0 -6 1 -19.5t1 -18.5q-22 -4 -34 -4q-41 0 -72 20t-31 56q0 59 75 114l-51 19l-1 58l-16 5q-115 -94 -176 -94q-64 0 -64 69q0 28 9 64l67 270l-79 -35l-26 51l141 97l76 -13l13 -67
q-9 -42 -20 -89.5t-25 -105.5t-21 -90v1q-11 -39 22 -39q16 0 49 24.5t59 56.5q10 46 33 142.5t33 142.5l55 28h77l-90 -397l83 35z" />
    <glyph glyph-name="Wcircumflex" unicode="&#x174;" horiz-adv-x="970" 
d="M546 456h-26q-35 -85 -103.5 -246.5t-88.5 -209.5h-113l-75 578l-67 15l13 70h284l-12 -69l-73 -16l33 -353h22l185 442q23 0 66.5 1t66.5 1l41 -444h20l155 348q-14 3 -44 12l-40 12l12 66h235l-12 -67l-64 -27l-37 -75l-222 -494h-106zM731 741v-16h-29l-83 60
l-131 -60h-38v15l162 119h52l68 -119z" />
    <glyph glyph-name="wcircumflex" unicode="&#x175;" horiz-adv-x="747" 
d="M664 510h32q34 -34 34 -95q0 -87 -36.5 -173t-95.5 -146h1q-116 -103 -197 -103q-85 0 -78 89l-14 6q-99 -95 -173 -95q-81 0 -81 123q0 63 28.5 133t71.5 117l-8 27h-57l-43 -67l-37 17q5 18 19.5 61.5t20.5 65.5l47 30h161q5 -12 17.5 -39t14.5 -31q-53 -54 -79.5 -136
t-26.5 -131q0 -35 10 -47t37 -12q16 0 41.5 20t46.5 49q15 35 31.5 121.5t19.5 172.5q9 7 27.5 20.5t20.5 14.5q18 -2 49.5 -6.5t47.5 -6.5q-41 -134 -63 -280q-4 -31 -4 -54q0 -49 27 -49q48 0 96.5 74.5t48.5 154.5q0 59 -46 90v30zM576 577v-16h-30l-68 82l-107 -82h-37
v17l-1 -1l143 154h50z" />
    <glyph glyph-name="Ycircumflex" unicode="&#x176;" horiz-adv-x="647" 
d="M396 379h22q37 80 95 157t113 120q19 12 32 12q33 0 53 -27q18 -27 -8 -41q-134 -75 -271 -311l-36 -204q8 -1 37 -7.5t43 -8.5l-12 -69h-312l12 69l83 16l37 211q-16 75 -60.5 156.5t-95.5 123.5l-57 5v50l125 41q38 -6 72 -35.5t58 -74t40.5 -89t29.5 -94.5zM572 737
v-16h-29l-83 60l-131 -60h-38v15l162 119h52l68 -119z" />
    <glyph glyph-name="ycircumflex" unicode="&#x177;" horiz-adv-x="526" 
d="M144 509l81 -24l15 -45l-1 -296q0 -20 7.5 -29t18.5 -6q16 5 41 18q57 129 77 280l-26 57q15 6 49.5 22t54.5 24h47l17 -62q-39 -138 -86 -258.5t-102 -220t-118 -157t-124 -57.5q-32 0 -62.5 20t-48.5 49q9 15 26 46t26 46h23q25 -51 76 -51q36 0 79.5 45t70.5 120
l-11 13q-23 -18 -54.5 -31.5t-50.5 -13.5q-40 0 -45 95l-14 308l-68 -35q-4 8 -13.5 26t-13.5 26zM435 577v-16h-29l-68 82l-107 -82h-37v17l-1 -1l143 154h50z" />
    <glyph glyph-name="Ydieresis" unicode="&#x178;" horiz-adv-x="647" 
d="M396 379h22q37 80 95 157t113 120q19 12 32 12q33 0 53 -27q18 -27 -8 -41q-134 -75 -271 -311l-36 -204q8 -1 37 -7.5t43 -8.5l-12 -69h-312l12 69l83 16l37 211q-16 75 -60.5 156.5t-95.5 123.5l-57 5v50l125 41q38 -6 72 -35.5t58 -74t40.5 -89t29.5 -94.5zM601 798
q0 -26 -20 -46.5t-44 -20.5q-26 0 -45.5 20.5t-19.5 46.5q0 27 19.5 47.5t45.5 20.5q24 0 44 -21t20 -47zM420 798q0 -27 -19 -47t-46 -20q-25 0 -44.5 20.5t-19.5 46.5q0 27 19.5 47.5t44.5 20.5q27 0 46 -20.5t19 -47.5z" />
    <glyph glyph-name="Zacute" unicode="&#x179;" horiz-adv-x="633" 
d="M545 -5l-265 5h-280q-2 5 -5.5 16t-5.5 16l476 488l-5 16h-246q-9 -17 -29.5 -53t-30.5 -53h-49q9 39 26.5 118.5t26.5 118.5l164 -4h359l11 -19l-493 -503l2 -14h287q21 34 70 108h49zM360 725v16l-1 -1l86 119h116v-18q-23 -19 -68.5 -57.5t-68.5 -58.5h-64z" />
    <glyph glyph-name="zacute" unicode="&#x17a;" horiz-adv-x="440" 
d="M48 -6l-64 48l201 226l83 91l-3 10l-131 20l-33 -78q-8 1 -21.5 4.5t-18.5 4.5l26 150l76 40l203 -33q7 5 21 18t20 19l58 -49l-186 -206l-95 -97l6 -13l140 -32l52 87l37 -9l-36 -168l-68 -33l-219 54zM234 561v17l-1 -1l101 154h117v-18l-154 -152h-63z" />
    <glyph glyph-name="Zdotaccent" unicode="&#x17b;" horiz-adv-x="633" 
d="M545 -5l-265 5h-280q-2 5 -5.5 16t-5.5 16l476 488l-5 16h-246q-9 -17 -29.5 -53t-30.5 -53h-49q9 39 26.5 118.5t26.5 118.5l164 -4h359l11 -19l-493 -503l2 -14h287q21 34 70 108h49zM381 777q0 34 20.5 60.5t51.5 26.5q23 0 36.5 -18.5t13.5 -45.5q0 -34 -21 -59
t-48 -25q-23 0 -38 18t-15 43z" />
    <glyph glyph-name="zdotaccent" unicode="&#x17c;" horiz-adv-x="440" 
d="M48 -6l-64 48l201 226l83 91l-3 10l-131 20l-33 -78q-8 1 -21.5 4.5t-18.5 4.5l26 150l76 40l203 -33q7 5 21 18t20 19l58 -49l-186 -206l-95 -97l6 -13l140 -32l52 87l37 -9l-36 -168l-68 -33l-219 54zM253 634q0 37 23 67t57 30q25 0 40 -20.5t15 -51.5
q0 -37 -23.5 -64.5t-53.5 -27.5q-25 0 -41.5 20t-16.5 47z" />
    <glyph glyph-name="Zcaron" unicode="&#x17d;" horiz-adv-x="633" 
d="M545 -5l-265 5h-280q-2 5 -5.5 16t-5.5 16l476 488l-5 16h-246q-9 -17 -29.5 -53t-30.5 -53h-49q9 39 26.5 118.5t26.5 118.5l164 -4h359l11 -19l-493 -503l2 -14h287q21 34 70 108h49zM331 843v16h29l79 -59l135 59h39v-15l-162 -119h-53l-68 119z" />
    <glyph glyph-name="zcaron" unicode="&#x17e;" horiz-adv-x="440" 
d="M48 -6l-64 48l201 226l83 91l-3 10l-131 20l-33 -78q-8 1 -21.5 4.5t-18.5 4.5l26 150l76 40l203 -33q7 5 21 18t20 19l58 -49l-186 -206l-95 -97l6 -13l140 -32l52 87l37 -9l-36 -168l-68 -33l-219 54zM219 716v15h29l65 -82l110 82h38v-16l-142 -154h-51z" />
    <glyph glyph-name="florin" unicode="&#x192;" horiz-adv-x="540" 
d="M74 309l14 49h94l25 100q17 70 76.5 125t146.5 55q59 0 97 -27t38 -66q0 -20 -11.5 -33.5t-33.5 -13.5q-21 0 -34 14.5t-18 31.5t-15.5 31.5t-26.5 14.5q-32 0 -51 -34t-39 -105l-26 -93h120l-14 -49h-117l-88 -327q-23 -84 -75.5 -136.5t-119.5 -52.5q-45 0 -76.5 19.5
t-31.5 49.5q0 19 10 32t27 13q14 0 25 -10.5t17 -23.5t15.5 -23.5t20.5 -10.5q32 0 64 130l86 340h-99z" />
    <glyph glyph-name="Scommaaccent" unicode="&#x218;" horiz-adv-x="543" 
d="M25 35l18 174h55q12 -127 135 -127q47 0 81 27t34 72q0 34 -28.5 58.5t-82.5 51.5q-32 16 -53.5 29.5t-46 35.5t-37 51t-12.5 65q0 63 43 110.5t101.5 69.5t119.5 22q123 0 178 -39q-3 -29 -10 -85t-10 -83h-53q-7 59 -37.5 89.5t-75.5 30.5q-47 0 -77 -24.5t-30 -62.5
q0 -24 18 -45t37.5 -32.5t56.5 -29.5q33 -16 55 -29t47.5 -35t39 -52t13.5 -67q0 -90 -82.5 -155.5t-215.5 -65.5q-46 0 -103.5 13.5t-77.5 32.5zM159 -268l-44 31l48 85q3 15 10.5 46t11.5 48q12 -5 38 -15t42 -17l-42 -91h1q-9 -12 -31 -41.5t-34 -45.5z" />
    <glyph glyph-name="scommaaccent" unicode="&#x219;" horiz-adv-x="370" 
d="M4 47v30l40 83h12q46 -58 117 -58q22 0 37.5 8.5t15.5 25.5t-12.5 28t-46.5 30q-2 1 -19 11q-87 49 -87 126q0 51 68.5 117.5t109.5 66.5q40 0 76 -14.5t53 -36.5l-1 1v-26l1 1l-41 -85h-17q-48 47 -102 47q-50 0 -50 -31q0 -19 56 -55l19 -12q49 -30 72 -60t23 -71
q0 -55 -68.5 -117.5t-132.5 -62.5q-36 0 -70 15t-54 40zM68 -253l-45 30l49 86q3 15 10.5 46t11.5 48q11 -5 37 -15t42 -17l-41 -91h1q-12 -16 -34 -45.5t-31 -41.5z" />
    <glyph glyph-name="schwa" unicode="&#x259;" horiz-adv-x="429" 
d="M46 94q0 47 19 84.5t56.5 65t81 47.5t103.5 39v17q0 42 -13.5 58.5t-43.5 16.5q-72 0 -156 -75l-39 39q49 55 115 92t129 37q64 0 101 -35.5t37 -101.5q0 -103 -38 -192t-100 -128q-95 -65 -150 -65q-102 0 -102 101zM205 93q34 1 60 47t36 123q-137 -46 -137 -134
q0 -36 41 -36z" />
    <glyph glyph-name="quoteleft" unicode="&#x2bb;" horiz-adv-x="381" 
d="M313 729l54 -35l-89 -169l-35 -134q-23 10 -65 29t-61 27q11 20 34.5 61t34.5 61z" />
    <glyph glyph-name="quoteleft" unicode="&#x2018;" horiz-adv-x="381" 
d="M313 729l54 -35l-89 -169l-35 -134q-23 10 -65 29t-61 27q11 20 34.5 61t34.5 61z" />
    <glyph glyph-name="circumflex" unicode="&#x2c6;" horiz-adv-x="500" 
d="M370 516v-15h-29l-68 82l-107 -82h-37v16l-1 -1l143 154h50z" />
    <glyph glyph-name="caron" unicode="&#x2c7;" horiz-adv-x="500" 
d="M174 655v15h29l66 -81l109 81h38v-16l-142 -153h-51z" />
    <glyph glyph-name="breve" unicode="&#x2d8;" horiz-adv-x="500" 
d="M242 491q-38 0 -61.5 30.5t-23.5 90.5q0 24 4 48h40q-3 -35 13 -62t45 -27q35 0 62.5 25.5t35.5 63.5h45q-13 -80 -59.5 -124.5t-100.5 -44.5z" />
    <glyph glyph-name="dotaccent" unicode="&#x2d9;" horiz-adv-x="500" 
d="M209 573q0 38 22.5 67.5t57.5 29.5q25 0 40 -20.5t15 -50.5q0 -38 -23 -65t-53 -27q-26 0 -42.5 19.5t-16.5 46.5z" />
    <glyph glyph-name="ring" unicode="&#x2da;" horiz-adv-x="500" 
d="M161 598q0 43 29 72.5t70 29.5t70 -29.5t29 -72.5t-29 -72.5t-70 -29.5t-70 29.5t-29 72.5zM207 598q0 -23 14 -38t38 -15t39 15t15 38t-15 38.5t-39 15.5q-23 0 -37.5 -15.5t-14.5 -38.5z" />
    <glyph glyph-name="ogonek" unicode="&#x2db;" horiz-adv-x="500" 
d="M287 21v-4q-81 -49 -81 -122q0 -24 13.5 -39t32.5 -15q10 0 14 1q0 -6 1 -19.5t1 -18.5q-22 -4 -35 -4q-41 0 -71.5 20t-30.5 56q0 46 41 87t101 66z" />
    <glyph glyph-name="tilde" unicode="&#x2dc;" horiz-adv-x="500" 
d="M382 649l27 -8q-14 -54 -41 -94.5t-51 -40.5q-14 0 -70 30q-54 30 -73 30q-18 0 -28.5 -15t-23.5 -47l-30 10q12 44 40 90t44 46q17 0 71 -31h-1q52 -30 75 -30q17 0 35.5 19.5t25.5 40.5z" />
    <glyph glyph-name="hungarumlaut" unicode="&#x2dd;" horiz-adv-x="500" 
d="M286 501v16l-1 -1l95 154h117v-18l-153 -151h-58zM115 501v16l-1 -1l95 154h117v-18l-153 -151h-58z" />
    <glyph glyph-name="Delta" unicode="&#x394;" horiz-adv-x="540" 
d="M530 0h-520l223 631h45zM224 457l-137 -402h293z" />
    <glyph glyph-name="Delta" unicode="&#x2206;" horiz-adv-x="540" 
d="M530 0h-520l223 631h45zM224 457l-137 -402h293z" />
    <glyph glyph-name="Omega" unicode="&#x3a9;" horiz-adv-x="540" 
d="M273 578q-57 0 -87.5 -66.5t-30.5 -148.5q0 -133 29 -228t70 -112l-6 -23h-233l-30 156h29l53 -94h64l6 10q-48 48 -79.5 124t-31.5 156q0 114 69.5 200t178.5 86t178.5 -86t69.5 -200q0 -80 -31.5 -156t-79.5 -124l6 -10h64l53 94h29l-30 -156h-233l-6 23q41 17 70 112
t29 228q0 82 -31 148.5t-89 66.5z" />
    <glyph glyph-name="Omega" unicode="&#x2126;" horiz-adv-x="540" 
d="M273 578q-57 0 -87.5 -66.5t-30.5 -148.5q0 -133 29 -228t70 -112l-6 -23h-233l-30 156h29l53 -94h64l6 10q-48 48 -79.5 124t-31.5 156q0 114 69.5 200t178.5 86t178.5 -86t69.5 -200q0 -80 -31.5 -156t-79.5 -124l6 -10h64l53 94h29l-30 -156h-233l-6 23q41 17 70 112
t29 228q0 82 -31 148.5t-89 66.5z" />
    <glyph glyph-name="lambda" unicode="&#x3bb;" horiz-adv-x="524" 
d="M259 608l115 -454q16 -62 24 -79.5t23 -17.5q12 0 27 27t32 27q18 0 28.5 -13.5t10.5 -33.5q0 -32 -26.5 -52.5t-63.5 -20.5q-86 0 -115 111l-50 204l-141 -306h-125l223 481l-29 121q-18 74 -58 74q-16 0 -41 -35t-43 -35q-41 0 -41 44q0 33 32.5 58.5t83.5 25.5
q54 0 87.5 -35.5t46.5 -90.5z" />
    <glyph glyph-name="pi" unicode="&#x3c0;" horiz-adv-x="540" 
d="M172 22q-32 -44 -78 -33q-33 8 -38 34q-5 23 22 44q64 48 89 115.5t25 179.5h-31q-35 0 -53 -13t-27 -48l-27 5q15 73 37.5 103t62.5 30h332v-77h-91l-21 -229q-3 -51 27 -51q34 0 55 62l30 -3q-13 -78 -43 -113t-69 -35q-48 0 -70.5 29t-17.5 79l27 261h-69
q-5 -227 -72 -340z" />
    <glyph glyph-name="Wgrave" unicode="&#x1e80;" horiz-adv-x="970" 
d="M546 456h-26q-35 -85 -103.5 -246.5t-88.5 -209.5h-113l-75 578l-67 15l13 70h284l-12 -69l-73 -16l33 -353h22l185 442q23 0 66.5 1t66.5 1l41 -444h20l155 348q-14 3 -44 12l-40 12l12 66h235l-12 -67l-64 -27l-37 -75l-222 -494h-106zM642 740v-15h-63l-108 116v18
h115z" />
    <glyph glyph-name="wgrave" unicode="&#x1e81;" horiz-adv-x="747" 
d="M664 510h32q34 -34 34 -95q0 -87 -36.5 -173t-95.5 -146h1q-116 -103 -197 -103q-85 0 -78 89l-14 6q-99 -95 -173 -95q-81 0 -81 123q0 63 28.5 133t71.5 117l-8 27h-57l-43 -67l-37 17q5 18 19.5 61.5t20.5 65.5l47 30h161q5 -12 17.5 -39t14.5 -31q-53 -54 -79.5 -136
t-26.5 -131q0 -35 10 -47t37 -12q16 0 41.5 20t46.5 49q15 35 31.5 121.5t19.5 172.5q9 7 27.5 20.5t20.5 14.5q18 -2 49.5 -6.5t47.5 -6.5q-41 -134 -63 -280q-4 -31 -4 -54q0 -49 27 -49q48 0 96.5 74.5t48.5 154.5q0 59 -46 90v30zM496 578v-17h-64l-138 152v18h116
q15 -28 44.5 -79.5t42.5 -74.5z" />
    <glyph glyph-name="Wacute" unicode="&#x1e82;" horiz-adv-x="970" 
d="M546 456h-26q-35 -85 -103.5 -246.5t-88.5 -209.5h-113l-75 578l-67 15l13 70h284l-12 -69l-73 -16l33 -353h22l185 442q23 0 66.5 1t66.5 1l41 -444h20l155 348q-14 3 -44 12l-40 12l12 66h235l-12 -67l-64 -27l-37 -75l-222 -494h-106zM531 725v16l-1 -1l86 119h116
v-18q-23 -19 -69 -57.5t-68 -58.5h-64z" />
    <glyph glyph-name="wacute" unicode="&#x1e83;" horiz-adv-x="747" 
d="M664 510h32q34 -34 34 -95q0 -87 -36.5 -173t-95.5 -146h1q-116 -103 -197 -103q-85 0 -78 89l-14 6q-99 -95 -173 -95q-81 0 -81 123q0 63 28.5 133t71.5 117l-8 27h-57l-43 -67l-37 17q5 18 19.5 61.5t20.5 65.5l47 30h161q5 -12 17.5 -39t14.5 -31q-53 -54 -79.5 -136
t-26.5 -131q0 -35 10 -47t37 -12q16 0 41.5 20t46.5 49q15 35 31.5 121.5t19.5 172.5q9 7 27.5 20.5t20.5 14.5q18 -2 49.5 -6.5t47.5 -6.5q-41 -134 -63 -280q-4 -31 -4 -54q0 -49 27 -49q48 0 96.5 74.5t48.5 154.5q0 59 -46 90v30zM395 561v17l-1 -1l101 154h117v-18
l-153 -152h-64z" />
    <glyph glyph-name="Wdieresis" unicode="&#x1e84;" horiz-adv-x="970" 
d="M546 456h-26q-35 -85 -103.5 -246.5t-88.5 -209.5h-113l-75 578l-67 15l13 70h284l-12 -69l-73 -16l33 -353h22l185 442q23 0 66.5 1t66.5 1l41 -444h20l155 348q-14 3 -44 12l-40 12l12 66h235l-12 -67l-64 -27l-37 -75l-222 -494h-106zM579 802q0 -27 -19 -47t-46 -20
q-25 0 -44.5 20.5t-19.5 46.5q0 27 19.5 47.5t44.5 20.5q27 0 46 -20.5t19 -47.5zM760 802q0 -26 -20 -46.5t-44 -20.5q-26 0 -45.5 20.5t-19.5 46.5q0 27 19.5 47.5t45.5 20.5q24 0 44 -21t20 -47z" />
    <glyph glyph-name="wdieresis" unicode="&#x1e85;" horiz-adv-x="747" 
d="M664 510h32q34 -34 34 -95q0 -87 -36.5 -173t-95.5 -146h1q-116 -103 -197 -103q-85 0 -78 89l-14 6q-99 -95 -173 -95q-81 0 -81 123q0 63 28.5 133t71.5 117l-8 27h-57l-43 -67l-37 17q5 18 19.5 61.5t20.5 65.5l47 30h161q5 -12 17.5 -39t14.5 -31q-53 -54 -79.5 -136
t-26.5 -131q0 -35 10 -47t37 -12q16 0 41.5 20t46.5 49q15 35 31.5 121.5t19.5 172.5q9 7 27.5 20.5t20.5 14.5q18 -2 49.5 -6.5t47.5 -6.5q-41 -134 -63 -280q-4 -31 -4 -54q0 -49 27 -49q48 0 96.5 74.5t48.5 154.5q0 59 -46 90v30zM624 638q0 -26 -20 -46.5t-44 -20.5
q-26 0 -45.5 20.5t-19.5 46.5q0 27 19.5 48t45.5 21q24 0 44 -21t20 -48zM443 638q0 -27 -19 -47t-46 -20q-25 0 -45 20.5t-20 46.5q0 27 20 48t45 21q27 0 46 -21t19 -48z" />
    <glyph glyph-name="uni1e9e" unicode="&#x1e9e;" horiz-adv-x="735" 
d="M466 -12q-85 0 -144 34q3 27 9 80.5t8 80.5h53q4 -55 24.5 -80.5t60.5 -25.5q32 0 64 31.5t32 96.5q0 51 -21 81t-65 30q-45 0 -89 -36q-11 16 -31 45.5t-31 44.5l179 201l-4 15h-199l-88 -500l58 -17l-12 -69h-286l13 70l76 16l87 492l-72 15l13 70h620v-49l1 1
l-190 -204l6 -14q24 4 43 4q66 0 104.5 -46.5t38.5 -126.5q0 -51 -17.5 -93t-44.5 -68.5t-62 -45t-68.5 -26t-65.5 -7.5z" />
    <glyph glyph-name="Ygrave" unicode="&#x1ef2;" horiz-adv-x="647" 
d="M396 379h22q37 80 95 157t113 120q19 12 32 12q33 0 53 -27q18 -27 -8 -41q-134 -75 -271 -311l-36 -204q8 -1 37 -7.5t43 -8.5l-12 -69h-312l12 69l83 16l37 211q-16 75 -60.5 156.5t-95.5 123.5l-57 5v50l125 41q38 -6 72 -35.5t58 -74t40.5 -89t29.5 -94.5zM483 736
v-15h-63l-108 116v18h115z" />
    <glyph glyph-name="ygrave" unicode="&#x1ef3;" horiz-adv-x="526" 
d="M144 509l81 -24l15 -45l-1 -296q0 -20 7.5 -29t18.5 -6q16 5 41 18q57 129 77 280l-26 57q15 6 49.5 22t54.5 24h47l17 -62q-39 -138 -86 -258.5t-102 -220t-118 -157t-124 -57.5q-32 0 -62.5 20t-48.5 49q9 15 26 46t26 46h23q25 -51 76 -51q36 0 79.5 45t70.5 120
l-11 13q-23 -18 -54.5 -31.5t-50.5 -13.5q-40 0 -45 95l-14 308l-68 -35q-4 8 -13.5 26t-13.5 26zM356 578v-17h-64l-138 152v18h116q15 -28 44.5 -79.5t42.5 -74.5z" />
    <glyph glyph-name="uni2011" unicode="&#x2011;" horiz-adv-x="335" 
d="M71 317l55 -2h105q13 0 37 1t36 1q-3 -17 -10 -51t-10 -53l-52 2h-121l-59 -3q3 18 9.5 52.5t9.5 52.5z" />
    <glyph glyph-name="endash" unicode="&#x2013;" horiz-adv-x="484" 
d="M64 313h377v-96h-377v96z" />
    <glyph glyph-name="emdash" unicode="&#x2014;" horiz-adv-x="1020" 
d="M132 308h778v-86h-778v86z" />
    <glyph glyph-name="quoteright" unicode="&#x2019;" horiz-adv-x="381" 
d="M177 386l-54 36l89 169l34 133q26 -10 70.5 -30t56.5 -25q-9 -16 -33 -58t-36 -65q-69 -85 -127 -160z" />
    <glyph glyph-name="quotesinglbase" unicode="&#x201a;" horiz-adv-x="381" 
d="M80 -206l-54 35l90 169l34 134q5 -2 127 -56q-11 -20 -35 -61t-35 -61q-118 -149 -127 -160z" />
    <glyph glyph-name="quotedblleft" unicode="&#x201c;" horiz-adv-x="581" 
d="M513 729l54 -35l-89 -169l-34 -134q-25 10 -68 29.5t-59 26.5q11 20 34.5 61t34.5 61q9 11 127 160zM312 729l54 -35l-89 -169l-35 -134q-23 10 -65 29t-61 27q11 20 34.5 61t34.5 61z" />
    <glyph glyph-name="quotedblright" unicode="&#x201d;" horiz-adv-x="581" 
d="M377 386l-54 36l90 169l34 133q24 -10 66.5 -29t59.5 -26q-9 -16 -33 -58t-36 -65q-24 -30 -69 -87t-58 -73zM176 386l-54 36l89 169l34 133q26 -10 70.5 -30t56.5 -25q-9 -16 -33 -58t-36 -65q-69 -85 -127 -160z" />
    <glyph glyph-name="quotedblbase" unicode="&#x201e;" horiz-adv-x="581" 
d="M282 -206l-55 35l90 169l34 134q43 -18 127 -56q-3 -6 -70 -122zM80 -206l-54 35l90 169l34 134q5 -2 127 -56q-11 -20 -35 -61t-35 -61q-118 -149 -127 -160z" />
    <glyph glyph-name="dagger" unicode="&#x2020;" horiz-adv-x="548" 
d="M438 713l-55 -204l167 25q-4 -21 -12.5 -58.5t-12.5 -55.5l-162 14l-124 -470h-48l75 469l-167 -17q4 20 13 58t13 57l154 -22q5 34 16 102.5t16 101.5h127z" />
    <glyph glyph-name="daggerdbl" unicode="&#x2021;" horiz-adv-x="548" 
d="M439 713l-55 -204l167 25q-4 -21 -12.5 -58.5t-12.5 -55.5l-161 14l-40 -152l178 27l-24 -114l-174 14q-32 -127 -65 -245h-48l38 244l-178 -17l24 115l167 -24l24 151l-167 -17q4 20 13 58t13 57l154 -22q5 34 16 102.5t16 101.5h127z" />
    <glyph glyph-name="bullet" unicode="&#x2022;" horiz-adv-x="572" 
d="M150 264q0 56 40 96t96 40t96 -40t40 -96t-40 -96t-96 -40t-96 40t-40 96z" />
    <glyph glyph-name="ellipsis" unicode="&#x2026;" horiz-adv-x="993" 
d="M92 73q0 35 22 58.5t54 23.5t54.5 -23.5t22.5 -58.5q0 -34 -22.5 -57t-54.5 -23t-54 23t-22 57zM403 73q0 35 22.5 58.5t54.5 23.5t54.5 -23.5t22.5 -58.5q0 -34 -22.5 -57t-54.5 -23t-54.5 23t-22.5 57zM715 73q0 35 22.5 58.5t54.5 23.5t54.5 -23.5t22.5 -58.5
q0 -34 -22.5 -57t-54.5 -23t-54.5 23t-22.5 57z" />
    <glyph glyph-name="perthousand" unicode="&#x2030;" horiz-adv-x="828" 
d="M557 114q0 74 45.5 128.5t98.5 54.5q44 0 72 -31.5t28 -85.5q0 -86 -43 -139t-95 -53q-47 0 -76.5 35.5t-29.5 90.5zM724 228q-29 0 -55.5 -45.5t-26.5 -97.5q0 -25 11 -39t29 -14q30 0 56 36.5t26 104.5q0 26 -11 40.5t-29 14.5zM289 521l-11 -3q0 -81 -42.5 -135
t-97.5 -54q-46 0 -75 35.5t-29 90.5q0 74 45.5 128.5t98.5 54.5q64 0 88 -60q6 -16 26.5 -25.5t45.5 -9.5q51 0 93 32q31 57 71 57q7 0 13 -6.5t6 -17.5q0 -29 -43 -57l-211 -288q-37 -54 -105 -154t-89 -130q-9 6 -25.5 17.5t-21.5 14.5l203 269l161 229l-7 7
q-27 -15 -48 -15q-26 0 -46 20zM281 114q0 74 45.5 128.5t98.5 54.5q44 0 71.5 -31.5t27.5 -85.5q0 -86 -42.5 -139t-95.5 -53q-47 0 -76 35.5t-29 90.5zM448 228q-30 0 -56.5 -45.5t-26.5 -97.5q0 -25 11 -39t29 -14q31 0 56.5 36t25.5 105q0 26 -11 40.5t-28 14.5z
M201 566q-29 0 -55.5 -45.5t-26.5 -97.5q0 -53 41 -53q29 0 54.5 41t25.5 100q0 26 -11 40.5t-28 14.5z" />
    <glyph glyph-name="uni2032" unicode="&#x2032;" horiz-adv-x="290" 
d="M135 380l70 266l113 -40l-114 -250z" />
    <glyph glyph-name="uni2033" unicode="&#x2033;" horiz-adv-x="480" 
d="M326 380l70 266q21 -7 58.5 -20.5t54.5 -19.5l-114 -250zM135 380l70 266l113 -40l-114 -250z" />
    <glyph glyph-name="guilsinglleft" unicode="&#x2039;" horiz-adv-x="445" 
d="M99 243l240 216l49 -46l-180 -189l-2 -12q31 -41 66 -93l46 -67l-64 -49q-118 159 -159 216l1 -1q0 4 2 13t3 13z" />
    <glyph glyph-name="guilsinglright" unicode="&#x203a;" horiz-adv-x="445" 
d="M367 217l-240 -216q-7 6 -23 21.5t-27 24.5l181 189l2 12q-22 29 -66 94q-7 10 -23 32.5t-23 33.5l64 50q16 -21 72 -97.5t87 -119.5l-1 1q0 -4 -2 -13t-3 -13z" />
    <glyph glyph-name="uni2042" unicode="&#x2042;" horiz-adv-x="896" 
d="M588 476l-134 48l54 -119q9 -26 -5.5 -44t-36.5 -18q-18 0 -30.5 9.5t-12.5 27.5l-8 142l-110 -94q-23 -16 -40 -1.5t-17 40.5q0 38 37 48l109 34l-103 86q-16 12 -16 32q0 17 12.5 30t29.5 13q19 0 37 -24l73 -113l56 118q11 30 40 30q19 0 34.5 -13t15.5 -30
q0 -15 -14 -29h1l-99 -90l125 4q20 1 30.5 -12t10.5 -32q0 -21 -10.5 -35t-28.5 -8zM387 99l-133 48l54 -119q9 -26 -5.5 -44t-36.5 -18q-19 0 -31.5 9.5t-12.5 27.5l-8 142l-109 -95q-23 -15 -40.5 -0.5t-17.5 40.5q0 38 38 48l109 34l-103 86q-17 12 -17 32q0 17 13 30
t30 13q19 0 37 -24l72 -113l57 118q11 30 40 30q19 0 34.5 -13t15.5 -30q0 -15 -14 -29h1l-99 -90l124 4q21 1 31.5 -12t10.5 -32q0 -21 -11 -35t-29 -8zM811 99l-134 48l54 -119q9 -26 -5.5 -44t-36.5 -18q-18 0 -30.5 9.5t-12.5 27.5l-8 142l-110 -95q-22 -15 -39.5 -0.5
t-17.5 40.5q0 38 37 48l110 34l-104 86q-16 12 -16 32q0 17 12.5 30t29.5 13q19 0 37 -24l73 -113l56 118q11 30 41 30q19 0 34.5 -13t15.5 -30q0 -15 -14 -29h1l-100 -90l125 4q20 1 30.5 -12t10.5 -32q0 -21 -10.5 -35t-28.5 -8z" />
    <glyph glyph-name="fraction" unicode="&#x2044;" 
d="M44 -18l322 371l297 351l43 -39l-309 -350l-308 -373z" />
    <glyph glyph-name="zero.sups" unicode="&#x2070;" horiz-adv-x="333" 
d="M237 411q-126 0 -126 134q0 95 57.5 159.5t128.5 64.5q55 0 87.5 -34.5t32.5 -100.5q0 -94 -52.5 -158.5t-127.5 -64.5zM292 720q-40 0 -64.5 -65.5t-24.5 -123.5q0 -72 42 -72q32 0 56.5 59.5t24.5 127.5q0 74 -34 74z" />
    <glyph glyph-name="four.sups" unicode="&#x2074;" horiz-adv-x="322" 
d="M240 465l11 58h-131l-11 29q37 52 98.5 113t119.5 105q9 -2 27 -5.5t27 -5.5q-3 -15 -9 -42t-8 -40l-9 -50q-7 -33 -11 -60h57l-8 -43h-57l-10 -58q5 -1 17 -3.5t17 -2.5l16 -2l-6 -39h-186l6 38zM184 567h75l19 103q-74 -62 -99 -98z" />
    <glyph glyph-name="five.sups" unicode="&#x2075;" horiz-adv-x="285" 
d="M183 411q-33 0 -71 17q-3 2 -8 4t-7 3q0 15 0.5 43.5t0.5 42.5h47q3 -15 5.5 -24t8.5 -19.5t16.5 -15t25.5 -4.5q25 0 48.5 23.5t23.5 61.5q0 48 -34 48q-33 0 -68 -27l-43 18l55 180h124l78 7l-22 -78l-58 3h-90l-21 -69q38 12 66 12q44 0 74 -21.5t30 -60.5
q0 -29 -17 -58t-43 -45q-66 -41 -121 -41z" />
    <glyph glyph-name="six.sups" unicode="&#x2076;" horiz-adv-x="304" 
d="M104 512q0 93 79.5 168t212.5 108l3 -44q-72 -27 -110 -54t-66 -72q45 19 67 19q36 0 63.5 -21t28.5 -63q0 -63 -38 -91q-74 -51 -127 -51q-52 0 -82.5 26t-30.5 75zM402 745l-3 -2v1q2 0 3 1zM258 590q-29 0 -59 -30q1 -1 1 -5l1 1q-2 -3 -2 -5q-6 -19 -5 -35
q1 -26 13 -41t30 -15q25 0 39.5 22.5t13.5 55.5q-1 25 -10 38.5t-22 13.5z" />
    <glyph glyph-name="seven.sups" unicode="&#x2077;" horiz-adv-x="268" 
d="M382 762l8 -52q-123 -136 -164 -271q-10 -24 -61 -24q-23 0 -33 5t-4 18q75 158 174 244q-3 3 -3 8h-101q-13 0 -34 -40h-41l38 115l68 -3h153z" />
    <glyph glyph-name="eight.sups" unicode="&#x2078;" horiz-adv-x="303" 
d="M103 495q0 51 80 92l-2 4h-2v1q-34 26 -34 64q0 47 39 80t99 33q48 0 76.5 -21t29.5 -55q0 -47 -68 -82l-1 -4q56 -31 57 -78q0 -44 -42.5 -81t-115.5 -37q-48 0 -81.5 23t-34.5 61zM288 510q0 36 -71 61q-41 -34 -41 -70q0 -47 53 -47q24 0 41.5 16t17.5 40zM273 725
q-20 0 -31.5 -11.5t-11.5 -30.5q0 -32 50 -56q31 26 31 60q0 38 -38 38z" />
    <glyph glyph-name="nine.sups" unicode="&#x2079;" horiz-adv-x="304" 
d="M100 438l3 2v-1q70 24 107.5 49.5t69.5 70.5q-44 -18 -69 -18q-38 0 -65.5 21t-27.5 65q0 59 38 88q65 54 127 54q51 0 82.5 -27t31.5 -75q0 -51 -32.5 -108t-81.5 -91q-62 -38 -180 -70v41q-1 -1 -3 -1zM243 588q28 0 58 27h-2q5 16 5 45q0 28 -11 45t-29 17
q-24 0 -39 -23t-15 -58q0 -53 33 -53z" />
    <glyph glyph-name="Euro" unicode="&#x20ac;" horiz-adv-x="652" 
d="M88 392h60q42 113 130.5 179.5t189.5 66.5t177 -62l-52 -124h-30q11 64 -21 91.5t-76 27.5q-57 0 -104.5 -44.5t-75.5 -134.5h280l-18 -47h-274l-6 -32l-3 -21h263l-18 -48h-251q-6 -96 27 -141t88 -45q44 0 83 27.5t65 81.5q10 -4 25 -10.5t22 -9.5q-81 -159 -229 -159
q-101 0 -163 67.5t-59 188.5h-67l18 48h54l3 20l6 33h-63z" />
    <glyph glyph-name="uni2117" unicode="&#x2117;" horiz-adv-x="703" 
d="M358 261v26q28 0 44.5 21t16.5 58q0 61 -55 61h-28v-264l47 -7v-28h-154v28l39 7v264l-39 7v29h145q64 0 90 -23.5t26 -68.5q0 -48 -38.5 -79t-93.5 -31zM44 296q0 126 90.5 216.5t217.5 90.5q131 0 219 -89.5t88 -217.5q0 -127 -90.5 -217.5t-216.5 -90.5
q-129 0 -218.5 87t-89.5 221zM103 294q0 -110 70 -183t180 -73t178.5 72.5t68.5 183.5q0 114 -70.5 187.5t-177.5 73.5q-109 0 -179 -74.5t-70 -186.5z" />
    <glyph glyph-name="trademark" unicode="&#x2122;" horiz-adv-x="670" 
d="M618 634h-7l-109 -179h-17l-43 179h-5l-41 -150l32 -6l-4 -23h-92l4 23l34 6l53 193l-37 6l4 23h94l33 -165h7l100 165h92l-4 -23l-36 -6l-22 -193l30 -6l-4 -23h-118l4 23l35 6zM151 706h210l1 -74h-20l-24 47h-38l-34 -195l31 -6l-4 -23h-121l4 23l33 6l34 195h-37
l-40 -47h-21z" />
    <glyph glyph-name="oneseventh" unicode="&#x2150;" 
d="M44 -18l322 371l297 351l43 -39l-309 -350l-308 -373zM109 600l-3 43q88 29 122 52l54 -6l-54 -296q5 -1 17.5 -3t17.5 -3l27 -4l-7 -38h-217l6 39l65 9l40 220l-37 -8q-14 -2 -21 -4q-2 -1 -7 -1h-3zM698 325l8 -51q-126 -141 -164 -272q-10 -24 -61 -24q-23 0 -33 5
t-4 18q74 156 174 244q-3 3 -3 9h-101q-12 0 -34 -41h-41l38 115l68 -3h153z" />
    <glyph glyph-name="oneninth" unicode="&#x2151;" 
d="M414 1l3 2v-1q71 24 108.5 49.5t68.5 71.5q-44 -18 -69 -18q-38 0 -65.5 21t-27.5 64q0 60 38 89q64 53 127 53q52 0 83 -26.5t31 -75.5q0 -51 -32.5 -108t-81.5 -91q-64 -39 -180 -69v40q-1 -1 -3 -1zM44 -18l322 371l297 351l43 -39l-309 -350l-308 -373zM109 600
l-3 43q88 29 122 52l54 -6l-54 -296q5 -1 17.5 -3t17.5 -3l27 -4l-7 -38h-217l6 39l65 9l40 220l-37 -8q-14 -2 -21 -4q-2 -1 -7 -1h-3zM557 151q28 0 58 27h-2q5 16 5 45t-11.5 46t-29.5 17q-23 0 -38 -23.5t-15 -58.5q0 -53 33 -53z" />
    <glyph glyph-name="onethird" unicode="&#x2153;" 
d="M44 -18l322 371l297 351l43 -39l-309 -350l-308 -373zM109 600l-3 43q88 29 122 52l54 -6l-54 -296q5 -1 17.5 -3t17.5 -3l27 -4l-7 -38h-217l6 39l65 9l40 220l-37 -8q-14 -2 -21 -4q-2 -1 -7 -1h-3zM528 16q19 0 36.5 17.5t17.5 48.5q-1 27 -15.5 40.5t-28.5 14.5
l-48 -11l-7 40q117 28 117 85q0 31 -37 31q-15 0 -26 -8t-16 -17.5t-10 -24.5l-1 -1v-2h-51l26 71l-2 -1q23 13 60 23t59 10q44 0 70 -19t26 -50q0 -27 -20 -46t-61 -42l2 -6q23 -12 41 -34t18 -46q0 -48 -48.5 -81t-108.5 -33q-64 0 -105 24l-7 89h50q5 -20 11 -33.5
t21 -26t37 -12.5z" />
    <glyph glyph-name="twothirds" unicode="&#x2154;" 
d="M43 -18l322 371l297 351l43 -39l-309 -350l-308 -373zM191 639q-58 0 -72 -66h-53l29 78l-2 -1q21 18 57.5 31.5t55.5 13.5q50 0 83 -25t33 -65q0 -35 -41 -76t-111 -93q-22 -15 -32 -23q0 -5 3 -8l81 6q8 1 32.5 3.5t37.5 3.5l-14 -73h-254v38q114 88 156.5 133.5
t42.5 86.5q0 17 -9.5 26.5t-22.5 9.5zM527 16q19 0 36.5 17.5t17.5 48.5q-1 27 -15.5 40.5t-28.5 14.5l-48 -11l-7 40q117 28 117 85q0 31 -37 31q-15 0 -26 -8t-16 -17.5t-10 -24.5v-1q-1 -1 -1 -2h-51l26 71l-2 -1q23 13 60 23t59 10q44 0 70 -19t26 -50q0 -27 -20 -46
t-61 -42l2 -6q23 -12 41 -34t18 -46q0 -48 -48.5 -81t-108.5 -33q-64 0 -105 24l-7 89h50q5 -20 11 -33.5t21 -26t37 -12.5z" />
    <glyph glyph-name="onefifth" unicode="&#x2155;" 
d="M44 -18l322 371l297 351l43 -39l-309 -350l-308 -373zM109 600l-3 43q88 29 122 52l54 -6l-54 -296q5 -1 17.5 -3t17.5 -3l27 -4l-7 -38h-217l6 39l65 9l40 220l-37 -8q-14 -2 -21 -4q-2 -1 -7 -1h-3zM498 -25q-35 0 -71 16q-3 2 -8 4t-8 3q0 14 0.5 43t0.5 44h48
q3 -16 5.5 -25t8.5 -19.5t16.5 -15t25.5 -4.5q25 0 48.5 23.5t23.5 62.5q0 47 -34 47q-32 0 -68 -26l-43 17l55 180h124l78 7l-22 -77l-58 3h-90l-21 -70q38 12 65 12q44 0 74.5 -21.5t30.5 -59.5q0 -30 -17 -59t-43 -45q-65 -40 -121 -40z" />
    <glyph glyph-name="twofifths" unicode="&#x2156;" 
d="M43 -18l322 371l297 351l43 -39l-309 -350l-308 -373zM191 639q-58 0 -72 -66h-53l29 78l-2 -1q21 18 57.5 31.5t55.5 13.5q50 0 83 -25t33 -65q0 -35 -41 -76t-111 -93q-22 -15 -32 -23q0 -5 3 -8l81 6q8 1 32.5 3.5t37.5 3.5l-14 -73h-254v38q114 88 156.5 133.5
t42.5 86.5q0 17 -9.5 26.5t-22.5 9.5zM497 -25q-35 0 -71 16q-3 2 -8 4t-8 3q0 14 0.5 43t0.5 44h48q3 -16 5.5 -25t8.5 -19.5t16.5 -15t25.5 -4.5q25 0 48.5 23.5t23.5 62.5q0 47 -34 47q-32 0 -68 -26l-43 17l55 180h124l78 7l-22 -77l-58 3h-90l-21 -70q38 12 65 12
q44 0 74.5 -21.5t30.5 -59.5q0 -30 -17 -59t-43 -45q-65 -40 -121 -40z" />
    <glyph glyph-name="threefifths" unicode="&#x2157;" 
d="M44 -18l322 371l297 351l43 -39l-309 -350l-308 -373zM173 379q19 0 36 17.5t17 49.5q-1 26 -15 39.5t-28 14.5l-48 -11l-7 40q116 27 116 85q0 31 -36 31q-15 0 -26.5 -8t-16 -17t-9.5 -24v-1q-1 -1 -1 -2h-51l26 70l-2 -1q23 13 60 23t58 10q45 0 71 -19t26 -50
q0 -26 -20 -45.5t-61 -42.5l2 -6q23 -12 41 -34t18 -46q0 -48 -49 -81t-108 -33q-63 0 -106 24l-6 89h50q19 -72 69 -72zM498 -25q-35 0 -71 16q-3 2 -8 4t-8 3q0 14 0.5 43t0.5 44h48q3 -16 5.5 -25t8.5 -19.5t16.5 -15t25.5 -4.5q25 0 48.5 23.5t23.5 62.5q0 47 -34 47
q-32 0 -68 -26l-43 17l55 180h124l78 7l-22 -77l-58 3h-90l-21 -70q38 12 65 12q44 0 74.5 -21.5t30.5 -59.5q0 -30 -17 -59t-43 -45q-65 -40 -121 -40z" />
    <glyph glyph-name="fourfifths" unicode="&#x2158;" 
d="M43 -18l322 371l297 351l43 -39l-309 -350l-308 -373zM144 391l10 59h-131l-11 29q37 53 99 114t119 103q10 -2 28 -6t27 -5q-3 -14 -9 -41t-8 -40l-9 -51q-7 -32 -11 -59h57l-8 -43h-58l-10 -59q5 0 17.5 -3t17.5 -3l16 -2l-6 -39h-186l6 38zM88 494h74l19 103
q-77 -68 -98 -98zM497 -25q-35 0 -71 16q-3 2 -8 4t-8 3q0 14 0.5 43t0.5 44h48q3 -16 5.5 -25t8.5 -19.5t16.5 -15t25.5 -4.5q25 0 48.5 23.5t23.5 62.5q0 47 -34 47q-32 0 -68 -26l-43 17l55 180h124l78 7l-22 -77l-58 3h-90l-21 -70q38 12 65 12q44 0 74.5 -21.5
t30.5 -59.5q0 -30 -17 -59t-43 -45q-65 -40 -121 -40z" />
    <glyph glyph-name="onesixth" unicode="&#x2159;" 
d="M44 -18l322 371l297 351l43 -39l-309 -350l-308 -373zM109 600l-3 43q88 29 122 52l54 -6l-54 -296q5 -1 17.5 -3t17.5 -3l27 -4l-7 -38h-217l6 39l65 9l40 220l-37 -8q-14 -2 -21 -4q-2 -1 -7 -1h-3zM400 75q0 93 80 168.5t213 107.5l3 -43q-72 -27 -110 -54.5
t-66 -72.5q44 19 67 19q36 0 63.5 -21t28.5 -62q0 -64 -38 -92q-73 -50 -127 -50q-53 0 -83.5 25.5t-30.5 74.5zM699 309l-3 -2v1q2 0 3 1zM554 153q-29 0 -58 -29q1 -1 1 -5l1 1q-2 -3 -2 -5q-6 -19 -5 -36q1 -26 13 -41t30 -15q25 0 39.5 23t13.5 56q-1 25 -10 38t-23 13z
" />
    <glyph glyph-name="fivesixths" unicode="&#x215a;" 
d="M44 -18l322 371l297 351l43 -39l-309 -350l-308 -373zM145 338q-34 0 -72 16q-2 2 -7 3.5t-8 3.5q0 15 0.5 44t0.5 43h48q4 -21 7.5 -32.5t16 -21.5t32.5 -10q25 0 48 24t23 62q0 47 -33 47q-32 0 -68 -26l-43 17l55 180h124l78 7l-22 -77l-58 3h-90l-21 -70q38 12 65 12
q44 0 74.5 -21.5t30.5 -59.5q0 -29 -17 -58.5t-43 -45.5q-67 -40 -121 -40zM400 75q0 93 80 168.5t213 107.5l3 -43q-72 -27 -110 -54.5t-66 -72.5q44 19 67 19q36 0 63.5 -21t28.5 -62q0 -64 -38 -92q-73 -50 -127 -50q-53 0 -83.5 25.5t-30.5 74.5zM699 309l-3 -2v1
q2 0 3 1zM554 153q-29 0 -58 -29q1 -1 1 -5l1 1q-2 -3 -2 -5q-6 -19 -5 -36q1 -26 13 -41t30 -15q25 0 39.5 23t13.5 56q-1 25 -10 38t-23 13z" />
    <glyph glyph-name="oneeighth" unicode="&#x215b;" 
d="M418 58q0 53 80 92l-2 4h-2v1q-34 26 -34 64q0 47 39 80t99 33q48 0 76.5 -20.5t29.5 -54.5q0 -48 -68 -83l-1 -4q56 -31 57 -77q0 -45 -42.5 -81.5t-115.5 -36.5q-48 0 -81.5 22.5t-34.5 60.5zM44 -18l322 371l297 351l43 -39l-309 -350l-308 -373zM109 600l-3 43
q88 29 122 52l54 -6l-54 -296q5 -1 17.5 -3t17.5 -3l27 -4l-7 -38h-217l6 39l65 9l40 220l-37 -8q-14 -2 -21 -4q-2 -1 -7 -1h-3zM603 73q0 36 -71 62q-41 -34 -41 -71q0 -47 53 -47q24 0 41.5 16t17.5 40zM588 289q-20 0 -31.5 -12t-11.5 -31q0 -32 50 -56q31 26 31 61
q0 38 -38 38z" />
    <glyph glyph-name="threeeighths" unicode="&#x215c;" 
d="M44 -18l322 371l297 351l43 -39l-309 -350l-308 -373zM173 379q19 0 36 17.5t17 49.5q-1 26 -15 39.5t-28 14.5l-48 -11l-7 40q116 27 116 85q0 31 -36 31q-15 0 -26.5 -8t-16 -17t-9.5 -24v-1q-1 -1 -1 -2h-51l26 70l-2 -1q23 13 60 23t58 10q45 0 71 -19t26 -50
q0 -26 -20 -45.5t-61 -42.5l2 -6q23 -12 41 -34t18 -46q0 -48 -49 -81t-108 -33q-63 0 -106 24l-6 89h50q19 -72 69 -72zM418 58q0 53 80 92l-2 4h-2v1q-34 26 -34 64q0 47 39 80t99 33q48 0 76.5 -20.5t29.5 -54.5q0 -48 -68 -83l-1 -4q56 -31 57 -77q0 -45 -42.5 -81.5
t-115.5 -36.5q-48 0 -81.5 22.5t-34.5 60.5zM603 73q0 36 -71 62q-41 -34 -41 -71q0 -47 53 -47q24 0 41.5 16t17.5 40zM588 289q-20 0 -31.5 -12t-11.5 -31q0 -32 50 -56q31 26 31 61q0 38 -38 38z" />
    <glyph glyph-name="fiveeighths" unicode="&#x215d;" 
d="M44 -18l322 371l297 351l43 -39l-309 -350l-308 -373zM145 338q-34 0 -72 16q-2 2 -7 3.5t-8 3.5q0 15 0.5 44t0.5 43h48q4 -21 7.5 -32.5t16 -21.5t32.5 -10q25 0 48 24t23 62q0 47 -33 47q-32 0 -68 -26l-43 17l55 180h124l78 7l-22 -77l-58 3h-90l-21 -70q38 12 65 12
q44 0 74.5 -21.5t30.5 -59.5q0 -29 -17 -58.5t-43 -45.5q-67 -40 -121 -40zM418 58q0 53 80 92l-2 4h-2v1q-34 26 -34 64q0 47 39 80t99 33q48 0 76.5 -20.5t29.5 -54.5q0 -48 -68 -83l-1 -4q56 -31 57 -77q0 -45 -42.5 -81.5t-115.5 -36.5q-48 0 -81.5 22.5t-34.5 60.5z
M603 73q0 36 -71 62q-41 -34 -41 -71q0 -47 53 -47q24 0 41.5 16t17.5 40zM588 289q-20 0 -31.5 -12t-11.5 -31q0 -32 50 -56q31 26 31 61q0 38 -38 38z" />
    <glyph glyph-name="seveneighths" unicode="&#x215e;" 
d="M418 58q0 53 80 92l-2 4h-2v1q-34 26 -34 64q0 47 39 80t99 33q48 0 76.5 -20.5t29.5 -54.5q0 -48 -68 -83l-1 -4q56 -31 57 -77q0 -45 -42.5 -81.5t-115.5 -36.5q-48 0 -81.5 22.5t-34.5 60.5zM44 -18l322 371l297 351l43 -39l-309 -350l-308 -373zM376 688l8 -51
q-124 -139 -164 -272q-10 -24 -61 -24q-23 0 -33 5t-4 18q73 155 174 245q-3 3 -3 8h-101q-14 0 -34 -41h-41l38 115l68 -3h153zM603 73q0 36 -71 62q-41 -34 -41 -71q0 -47 53 -47q24 0 41.5 16t17.5 40zM588 289q-20 0 -31.5 -12t-11.5 -31q0 -32 50 -56q31 26 31 61
q0 38 -38 38z" />
    <glyph glyph-name="uni2191" unicode="&#x2191;" horiz-adv-x="700" 
d="M357 605l264 -237l-46 -61l-183 163v-420h-84v420l-183 -163l-47 61l266 237h13z" />
    <glyph glyph-name="uni2193" unicode="&#x2193;" horiz-adv-x="700" 
d="M621 287l-264 -237h-13l-266 237l47 61l183 -163v420h84v-420l183 163z" />
    <glyph glyph-name="partialdiff" unicode="&#x2202;" horiz-adv-x="540" 
d="M283 584q-77 0 -99 -120h-50l12 113q20 25 62 43t86 18q98 0 150 -78t52 -201q0 -179 -74 -275t-197 -96q-76 0 -128.5 48t-52.5 134q0 105 69.5 167t152.5 62q36 0 69 -15.5t49 -43.5l5 3v39q0 103 -25.5 152.5t-80.5 49.5zM371 270q-8 28 -32.5 47.5t-52.5 19.5
q-51 0 -85.5 -45.5t-34.5 -122.5q0 -56 19 -87.5t55 -31.5q53 0 92 60t39 160z" />
    <glyph glyph-name="product" unicode="&#x220f;" horiz-adv-x="540" 
d="M7 626h526v-40l-63 -15v-516l53 -15v-40h-232v40l53 15v516h-148v-516l53 -15v-40h-232v40l53 15v516l-63 15v40z" />
    <glyph glyph-name="summation" unicode="&#x2211;" horiz-adv-x="540" 
d="M188 119l5 -10h230l64 81h41l-50 -190h-465l-8 15l262 270v12l-242 317l8 12h441l26 -171h-36l-89 131h-180l-5 -7l191 -245v-16z" />
    <glyph glyph-name="minus" unicode="&#x2212;" horiz-adv-x="620" 
d="M573 221h-526v86h526v-86z" />
    <glyph glyph-name="radical" unicode="&#x221a;" horiz-adv-x="540" 
d="M324 96h13l145 660l60 -10l-195 -883h-57l-194 519l-79 -28l-18 43l194 67z" />
    <glyph glyph-name="infinity" unicode="&#x221e;" horiz-adv-x="540" 
d="M127 149q-60 0 -92 38.5t-32 88.5q0 54 36.5 92.5t87.5 38.5q74 0 141 -92q33 43 66.5 67.5t77.5 24.5q61 0 92.5 -38t31.5 -89q0 -54 -36.5 -92.5t-87.5 -38.5q-75 0 -141 91q-70 -91 -144 -91zM145 347q-29 0 -47.5 -19.5t-18.5 -51.5q0 -31 18.5 -50t44.5 -19
q23 0 43 18.5t47 55.5q-25 33 -44 49.5t-43 16.5zM394 209q29 0 47.5 19.5t18.5 51.5q0 31 -18.5 50t-44.5 19q-23 0 -42.5 -18.5t-47.5 -55.5q24 -33 43.5 -49.5t43.5 -16.5z" />
    <glyph glyph-name="integral" unicode="&#x222b;" horiz-adv-x="540" 
d="M323 497l12 -487q2 -94 -52 -154t-138 -60q-37 0 -61 16.5t-24 50.5q0 21 12.5 37.5t36.5 16.5q50 0 57 -64l26 -7q13 18 20.5 63.5t5.5 90.5l-12 487q-2 95 48.5 154t129.5 59q38 0 67.5 -19.5t29.5 -55.5q0 -21 -13 -37.5t-37 -16.5q-49 0 -56 64l-26 7
q-29 -38 -26 -145z" />
    <glyph glyph-name="approxequal" unicode="&#x2248;" horiz-adv-x="540" 
d="M429 408l63 -12q-17 -62 -52 -104t-89 -42q-35 0 -89.5 36t-79.5 36q-24 0 -43 -10.5t-26.5 -20.5t-20.5 -31l-54 22q18 44 57 81.5t87 37.5q34 0 89 -35t81 -35q28 0 49.5 23t27.5 54zM445 229l57 -13q-14 -51 -54.5 -88.5t-84.5 -37.5q-43 0 -100.5 35.5t-80.5 35.5
q-39 0 -72 -64l-56 20q2 3 10 19t12.5 23.5t14.5 22.5t18.5 23t20 17.5t24.5 13.5t28 4q32 0 90 -35t91 -35q30 0 51.5 17t30.5 42z" />
    <glyph glyph-name="notequal" unicode="&#x2260;" horiz-adv-x="620" 
d="M495 491l-58 -107h136v-87h-183l-46 -86h229v-86h-275l-85 -159l-78 40l64 119h-152v86h198l46 86h-244v87h290l79 146z" />
    <glyph glyph-name="lessequal" unicode="&#x2264;" horiz-adv-x="620" 
d="M574 0h-527v86h527v-86zM574 528l-409 -163q74 -29 214 -84.5t195 -77.5v-85l-527 208v79l527 208v-85z" />
    <glyph glyph-name="greaterequal" unicode="&#x2265;" horiz-adv-x="620" 
d="M573 0h-527v86h527v-86zM455 365l-409 163v85l527 -208v-79l-527 -208v85q55 22 195 77.5t214 84.5z" />
    <glyph glyph-name="lozenge" unicode="&#x25ca;" horiz-adv-x="540" 
d="M269 -98l-245 373l245 375l246 -375zM127 275l142 -216l143 216l-143 218z" />
    <glyph glyph-name="uni2605" unicode="&#x2605;" horiz-adv-x="570" 
d="M127 -8l-4 3l66 186l-166 118l2 5l201 -7l57 193h6l58 -193l199 5l1 -4l-163 -117l66 -188l-3 -1l-161 118z" />
    <glyph glyph-name="commaaccent" unicode="&#xf6c3;" horiz-adv-x="500" 
d="M191 -268l-44 31l48 85q3 15 10.5 46t11.5 48q12 -5 38.5 -15t41.5 -17l-41 -91h1z" />
    <glyph glyph-name="apple" unicode="&#xf8ff;" horiz-adv-x="540" 
d="M209 720h11l32 -121l-3 -82l68 -8l64 99l8 99h12l7 -99l-17 -129l36 -85l35 -38l1 -6l-7 -8v-18l8 -4l-1 -9l-17 -36l-36 7l-11 101l-34 56l-13 -2l26 -60l4 -99l-37 -46l3 -22l26 -37l7 -71l-64 -23l-33 16l-35 57l-75 25l-28 47l-3 42l-30 41l-2 58l4 27l-11 44z
M487 244l6 -9l-3 -37l-12 -17l-5 -33l23 -8l-3 -10l-23 7l-43 -26l-5 10l39 23l5 36l-36 14l-13 31l-1 10l14 15l24 4zM270 305l36 -14l11 13l-3 14l-11 10l-30 -10zM327 64l3 -4l-7 -21l-40 -43l-68 -23l-97 14l-55 48l-18 62l34 95l11 -1l-9 -71l22 -41l37 -33l88 -16
l48 3zM142 438l9 -9l33 34l11 76h-18z" />
    <glyph glyph-name="zero.tnum" horiz-adv-x="550" 
d="M221 -13q-209 0 -209 243q0 175 96.5 292t216.5 117q91 0 143.5 -62.5t52.5 -183.5q0 -171 -87 -288.5t-213 -117.5zM315 555q-50 0 -89.5 -65.5t-56.5 -143.5t-17 -141q0 -68 23 -100.5t60 -32.5q40 0 75 53.5t54.5 132.5t19.5 158q0 139 -69 139z" />
    <glyph glyph-name="one.tnum" horiz-adv-x="550" 
d="M124 468l-6 79q68 20 132 47t91 46l80 -10l-97 -544l112 -16l-12 -70h-378l12 70l118 15l75 417q-26 -11 -111 -30z" />
    <glyph glyph-name="two.tnum" horiz-adv-x="550" 
d="M278 541q-121 0 -142 -122h-76l53 144l-2 -1q37 31 100 54t95 23q87 0 144.5 -45t57.5 -118q0 -30 -20 -65t-46.5 -65.5t-73 -70.5t-80 -65.5t-86.5 -64.5l-31 -22l6 -16q46 3 137.5 10t137.5 10l-23 -127h-446v70q211 163 288.5 245.5t77.5 155.5q0 32 -21 51t-50 19z
" />
    <glyph glyph-name="three.tnum" horiz-adv-x="550" 
d="M203 59q37 0 72 33t35 91q-1 51 -30 77t-58 26l-80 -17q-1 11 -5 33t-6 34q213 48 213 157q0 58 -76 58q-25 0 -44.5 -8.5t-32 -25t-18.5 -29.5t-13 -33h-75l48 129l-2 -1q39 23 104.5 39.5t104.5 16.5q75 0 120 -34.5t45 -89.5q0 -49 -37 -84t-112 -77l1 -11
q43 -17 76.5 -57.5t33.5 -90.5q0 -87 -85.5 -147.5t-190.5 -60.5q-104 0 -184 41l-12 161h70q9 -28 16 -44.5t22.5 -39.5t40.5 -34.5t59 -11.5z" />
    <glyph glyph-name="four.tnum" horiz-adv-x="550" 
d="M242 86l19 107h-239q-1 2 -23 53q69 95 182 206.5t216 186.5q15 -3 42 -9t41 -8l-31 -148l-36 -203h105l-15 -77h-105l-19 -108l93 -15l-12 -71h-320l12 71zM309 456l-17 9l-13 -12h1q-2 -2 -15.5 -14t-17 -15.5t-16.5 -15t-17.5 -16.5t-16.5 -16t-18 -17.5t-16 -17.5
t-17.5 -19.5t-16 -19t-15.5 -20.5l4 -11h158z" />
    <glyph glyph-name="five.tnum" horiz-adv-x="550" 
d="M158 -13q-61 0 -125 31l-23 10q0 26 1 78.5t1 77.5h65q6 -30 10.5 -44.5t16 -34t33.5 -27.5t55 -8q48 0 94.5 44t46.5 114q0 42 -19 65.5t-53 23.5q-69 0 -128 -45l-66 25l51 165t50 165h219l129 10l-38 -135l-96 5h-174l-40 -128l15 -7q21 10 57 18t57 8q78 0 130.5 -39
t52.5 -109q0 -55 -29.5 -107t-75.5 -81q-123 -74 -217 -75z" />
    <glyph glyph-name="six.tnum" horiz-adv-x="550" 
d="M219 372l7 -9q71 34 121 34q60 0 107 -37.5t50 -111.5q0 -43 -14 -92t-52 -75q-131 -94 -225 -94q-93 0 -146.5 46.5t-53.5 135.5q0 170 143 306.5t373 194.5l6 -73q-138 -52 -203 -97t-113 -128zM286 315q-59 0 -114 -53l-4 -20q-10 -44 -8 -65q2 -48 26.5 -76t62.5 -28
q51 0 80 42t27 103q-1 47 -21 72t-49 25z" />
    <glyph glyph-name="seven.tnum" horiz-adv-x="550" 
d="M538 627l14 -95q-112 -127 -186 -245t-114 -249q-18 -45 -101 -45q-39 0 -55.5 8t-6.5 32q139 294 321 451l-8 16l-190 1q-21 0 -36.5 -19t-33.5 -54q-1 -2 -2 -3q-1 0 -1 -1h-55q11 34 35 104t35 104l114 -5h270z" />
    <glyph glyph-name="eight.tnum" horiz-adv-x="550" 
d="M8 139q0 57 37.5 96t103.5 71l1 10q-64 50 -64 118q0 86 68 145.5t174 59.5q83 0 133.5 -37t52.5 -98q0 -40 -33.5 -81t-92.5 -70l-1 -9q101 -54 104 -143q0 -79 -75 -146.5t-204 -67.5q-85 0 -143.5 41.5t-60.5 110.5zM209 284h-5q-81 -58 -81 -135q0 -40 27 -63.5
t81 -23.5q47 0 81.5 29.5t34.5 74.5q0 40 -36 67t-102 51zM309 564q-40 0 -63.5 -21.5t-23.5 -56.5q0 -33 24 -57.5t79 -50.5q66 51 66 115q0 33 -21.5 52t-60.5 19z" />
    <glyph glyph-name="nine.tnum" horiz-adv-x="550" 
d="M328 255l-9 9q-78 -39 -126 -39q-66 0 -114.5 39t-48.5 117q0 42 15 88t51 72q120 98 227 98q90 0 144 -47.5t54 -136.5q0 -97 -57.5 -201t-143.5 -162q-134 -82 -317 -126v71q143 50 208.5 93.5t116.5 124.5zM250 307q59 0 110 44q13 42 13 90q0 54 -24 85.5t-63 31.5
q-47 0 -77 -43t-30 -109q0 -48 20 -73.5t51 -25.5z" />
    <glyph glyph-name="exclamdown.case" horiz-adv-x="333" 
d="M311 616q0 -30 -22 -51t-54 -21t-55.5 21t-23.5 51t23 50t56 20q32 0 54 -20t22 -50zM34 -21l-32 25l167 474q13 -2 34 -5.5t32 -4.5q-13 -83 -42 -248t-36 -210z" />
    <glyph glyph-name="questiondown.case" horiz-adv-x="443" 
d="M440 616q0 -30 -22.5 -51t-54.5 -21t-55 21t-23 51t23 50t55 20t54.5 -20t22.5 -50zM245 419l10 28l55 20q83 -45 83 -91q0 -35 -33.5 -58.5t-95.5 -48.5q-33 -14 -46 -20.5t-34.5 -19t-30 -25.5t-8.5 -28q0 -31 34.5 -56.5t61.5 -25.5q8 9 24.5 27t23.5 27l60 -52
q-36 -59 -69.5 -88.5t-58.5 -29.5q-71 0 -140 62.5t-69 122.5q0 23 11 43.5t24.5 34.5t39.5 28.5t42.5 22t46.5 19.5q75 33 90 48q10 11 10 22q0 16 -31 38z" />
    <glyph glyph-name="hyphen.case" horiz-adv-x="335" 
d="M91 368l54 -2h106q12 0 36 1t37 1q-3 -18 -10.5 -52t-10.5 -52l-51 2h-122l-58 -3q3 18 9.5 52.5t9.5 52.5z" />
    <glyph glyph-name="endash.case" horiz-adv-x="484" 
d="M84 364h377v-96h-377v96z" />
    <glyph glyph-name="emdash.case" horiz-adv-x="1020" 
d="M151 359h779v-86h-779v86z" />
    <glyph glyph-name="guilsinglleft.case" horiz-adv-x="445" 
d="M119 335l241 216q9 -8 24.5 -23t24.5 -23l-180 -190l-2 -12q21 -28 65 -93q8 -12 24.5 -35t22.5 -32l-65 -49q-26 37 -79 108t-80 108l1 -1l5 27z" />
    <glyph glyph-name="guilsinglright.case" horiz-adv-x="445" 
d="M387 308l-241 -215l-49 45l180 190l2 12q-21 28 -65 93q-8 12 -24.5 35t-22.5 32l65 49q26 -37 79.5 -108t79.5 -108l-1 1l-5 -27z" />
    <glyph glyph-name="guillemotleft.case" horiz-adv-x="652" 
d="M118 335l241 216q9 -8 24.5 -23t24.5 -23l-180 -190l-2 -12q21 -28 65 -93q8 -12 24.5 -35t22.5 -32l-65 -49q-27 37 -79.5 108t-79.5 108l1 -1l5 27zM327 335l240 215l50 -45l-181 -190l-2 -12q22 -28 66 -93q8 -12 24.5 -35.5t21.5 -31.5l-64 -49q-118 159 -159 216
l1 -1l5 27z" />
    <glyph glyph-name="guillemotright.case" horiz-adv-x="652" 
d="M595 308l-241 -216q-7 6 -23 21.5t-27 24.5l181 190l2 12q-9 12 -20 27.5t-25 35.5l-21 30q-8 12 -24.5 35.5t-21.5 31.5l64 49l160 -216l-1 1l-5 -27zM386 308l-241 -215l-49 45l180 190l2 12q-21 28 -65 93q-8 12 -24.5 35t-22.5 32l65 49q26 -37 79 -108t80 -108l-1 1
l-5 -27z" />
    <glyph glyph-name="parenleft.case" horiz-adv-x="352" 
d="M279 -141l-48 -41q-85 61 -125.5 130.5t-45.5 158.5q-1 83 20 213q22 123 59 218q32 79 102 150.5t166 126.5l31 -58q-152 -106 -194 -237q-28 -89 -51 -218q-12 -61 -23 -151q0 -2 -1 -6t-1 -6q-2 -22 -2 -35q0 -154 113 -245z" />
    <glyph glyph-name="parenright.case" horiz-adv-x="352" 
d="M95 774l48 41q85 -61 125.5 -130.5t44.5 -158.5q1 -89 -19 -213q-22 -123 -59 -218q-33 -79 -103 -150.5t-165 -126.5l-32 58q153 105 195 237q28 89 51 218q15 81 23 151q0 2 1 6t1 6q2 22 2 35q0 154 -113 245z" />
    <glyph glyph-name="bracketleft.case" horiz-adv-x="335" 
d="M410 799l-8 -52l-137 -21l-144 -818q21 -3 65.5 -10.5t64.5 -10.5l-10 -52h-239l170 964h238z" />
    <glyph glyph-name="bracketright.case" horiz-adv-x="335" 
d="M-35 -165l9 52l137 21l144 818q-20 3 -64.5 10.5t-65.5 10.5l10 52h239q-29 -167 -86 -489t-84 -475h-239z" />
    <glyph glyph-name="braceleft.case" horiz-adv-x="435" 
d="M198 348l-2 -16q52 -17 81.5 -58t20.5 -96q-5 -31 -36 -98q-33 -69 -40 -106q-13 -83 140 -84l-10 -53q-133 1 -187 29.5t-54 87.5q0 16 3 34q5 37 36 101q33 72 37 100q8 52 -29.5 81t-106.5 30l14 81q61 1 111 33.5t60 73.5q3 14 3 29q0 20 -8 62q-11 56 -6 85
q13 72 76 103t201 32l-9 -60q-146 -2 -158 -70q-5 -34 7 -94q12 -59 7 -86q-8 -47 -50 -84t-101 -57z" />
    <glyph glyph-name="braceright.case" horiz-adv-x="435" 
d="M258 288l2 16q-52 17 -82 58t-21 96q5 37 37 98q33 69 40 106q13 83 -140 84l10 53q132 -1 186.5 -29.5t54.5 -87.5q0 -16 -3 -34q-5 -35 -38 -101q-31 -67 -36 -100q-7 -52 30.5 -81t105.5 -30l-13 -81q-62 -1 -111.5 -33.5t-59.5 -73.5q-3 -14 -3 -29q0 -20 8 -62
q11 -56 6 -85q-13 -72 -76 -103t-201 -32l9 60q146 2 158 70q5 34 -7 94q-12 59 -7 86q8 47 49.5 84t101.5 57z" />
    <glyph glyph-name="zero.onum" horiz-adv-x="601" 
d="M32 197q1 80 32.5 143.5t79.5 100t100.5 55.5t103.5 19q96 0 158 -49t62 -152q0 -98 -49.5 -175t-121.5 -114.5t-148 -37.5q-100 0 -158.5 57.5t-58.5 152.5zM333 431q-71 0 -112 -74.5t-41 -163.5q0 -60 25.5 -91t64.5 -31q56 0 102.5 62.5t46.5 181.5q0 116 -86 116z
" />
    <glyph glyph-name="one.onum" horiz-adv-x="425" 
d="M289 515l54 -13l-74 -417q11 -2 99 -22l-11 -63h-339q2 11 6 31.5t5 31.5l108 22l55 311q-47 -15 -116 -20l-4 74q113 21 217 65z" />
    <glyph glyph-name="two.onum" horiz-adv-x="497" 
d="M15 0l-11 77q123 75 214 156t91 136q0 44 -63 44q-62 0 -148 -64l-27 41q47 54 110.5 89.5t127.5 35.5q68 0 106.5 -31.5t38.5 -83.5q0 -26 -9 -50.5t-29.5 -49t-37.5 -42.5t-50 -42t-49.5 -35.5t-51.5 -34.5l-53 -35l5 -11q42 3 126.5 10t123.5 10l-25 -120h-389z" />
    <glyph glyph-name="three.onum" horiz-adv-x="442" 
d="M92 366l-44 47l90 76h-1q55 26 102 26q66 0 106 -30.5t40 -77.5q0 -46 -30.5 -85t-78.5 -63l3 -12q55 0 84 -25t29 -71q0 -66 -51.5 -133t-122 -113t-140.5 -75t-110 -30l-60 100l37 41l73 -38q46 6 94.5 30.5t87 73t38.5 106.5q0 30 -13.5 47t-35.5 17q-13 0 -25 -6
l-74 -38l-24 65l32 18q31 18 48 28.5t40 28t34.5 32t20 34.5t8.5 41q0 20 -13.5 32t-34.5 12q-45 0 -109 -58z" />
    <glyph glyph-name="four.onum" horiz-adv-x="558" 
d="M226 -199l-19 23l27 89l20 121h-252q-1 9 -4 26.5t-4 25.5l-1 -1l397 429l78 -20l-31 -142l-41 -238h19q13 0 39.5 2t39.5 3l-16 -89l-73 5h-23l-19 -107q-1 -15 -5 -46t-6 -46zM302 303l-17 9l-161 -186l4 -12h141z" />
    <glyph glyph-name="five.onum" horiz-adv-x="472" 
d="M-28 -200h-2l-60 105l43 46l79 -48q32 2 66 13t68 30.5t55.5 54t21.5 76.5q0 40 -28.5 63.5t-78.5 23.5q-11 0 -35 -4l-40 41q62 286 66 304h224l129 10l-37 -130l-95 5h-167l-22 -101l15 -15q10 1 35 1q79 0 127.5 -35t48.5 -107q0 -108 -117.5 -203.5t-295.5 -129.5z
" />
    <glyph glyph-name="six.onum" horiz-adv-x="552" 
d="M221 372l7 -9q71 34 121 34q60 0 107 -37.5t50 -111.5q0 -43 -14 -92t-52 -75q-131 -94 -225 -94q-93 0 -146.5 46.5t-53.5 135.5q0 170 143 306.5t373 194.5l6 -73q-138 -52 -203 -97t-113 -128zM288 315q-59 0 -114 -53l-4 -20q-10 -44 -8 -65q2 -48 26.5 -76t62.5 -28
q51 0 80 42t27 103q-1 47 -21 72t-49 25z" />
    <glyph glyph-name="seven.onum" horiz-adv-x="483" 
d="M-60 -188l-9 29q227 273 403 526l-6 16q-44 0 -134.5 0.5t-134.5 0.5l27 126l134 -5h251l26 -49q-269 -394 -428 -645q-22 0 -65 0.5t-64 0.5z" />
    <glyph glyph-name="eight.onum" horiz-adv-x="551" 
d="M16 139q0 57 37.5 96t103.5 71l1 10q-64 50 -64 118q0 86 68.5 145.5t173.5 59.5q84 0 134 -37t52 -98q0 -40 -33.5 -81t-92.5 -70l-1 -9q101 -54 104 -143q0 -79 -75 -146.5t-204 -67.5q-85 0 -143.5 41.5t-60.5 110.5zM217 284h-5q-81 -58 -81 -135q0 -40 27 -63.5
t81 -23.5q47 0 81.5 29.5t34.5 74.5q0 40 -36 67t-102 51zM318 564q-41 0 -64.5 -21.5t-23.5 -56.5q0 -33 24 -57.5t79 -50.5q66 51 66 115q0 33 -21 52t-60 19z" />
    <glyph glyph-name="nine.onum" horiz-adv-x="540" 
d="M323 131l-10 9q-77 -39 -126 -39q-65 0 -113.5 39t-48.5 117q0 42 15 88t51 72q120 98 227 98q90 0 144 -47.5t54 -136.5q0 -98 -60 -207t-147 -176q-142 -102 -297 -152l-14 58q135 65 205.5 121.5t119.5 155.5zM245 183q59 0 110 44q13 42 13 90q0 54 -24 85.5
t-63 31.5q-47 0 -77 -43t-30 -109q0 -48 20 -73.5t51 -25.5z" />
    <glyph glyph-name="zero.onum.tnum" horiz-adv-x="550" 
d="M18 197q1 80 31 143.5t76 100t96.5 55.5t99.5 19q91 0 151 -49t60 -152q0 -98 -47.5 -175t-116.5 -114.5t-142 -37.5q-96 0 -152 57.5t-56 152.5zM306 431q-68 0 -107 -75t-39 -163q0 -60 24.5 -91t61.5 -31q53 0 98 62.5t45 181.5q0 116 -83 116z" />
    <glyph glyph-name="one.onum.tnum" horiz-adv-x="550" 
d="M348 515l53 -13l-73 -417q4 -1 98 -22l-11 -63h-338q1 11 5 31.5t6 31.5l108 22l54 311q-46 -14 -116 -20l-4 74q110 20 218 65z" />
    <glyph glyph-name="two.onum.tnum" horiz-adv-x="550" 
d="M41 0l-11 77q123 75 214.5 156t91.5 136q0 44 -64 44q-62 0 -148 -64l-27 41q47 54 111 89.5t128 35.5q67 0 105.5 -31.5t38.5 -83.5q0 -26 -9 -50.5t-29.5 -49t-37.5 -42.5t-50 -42t-49.5 -35.5t-51.5 -34.5l-52 -35l5 -11q39 3 123.5 10t126.5 10l-26 -120h-389z" />
    <glyph glyph-name="three.onum.tnum" horiz-adv-x="550" 
d="M145 366l-43 47l90 76h-1q55 26 101 26q66 0 106 -30.5t40 -77.5q0 -46 -30.5 -85t-77.5 -63l3 -12q55 0 84 -25t29 -71q0 -66 -51.5 -133t-122.5 -113t-141 -75t-110 -30l-59 100l36 41l74 -38q46 6 94 30.5t86.5 73t38.5 106.5q0 30 -13.5 47t-34.5 17q-13 0 -25 -6
l-75 -38l-24 65l32 18q38 22 59.5 36t46 35t35 43.5t10.5 49.5q0 20 -13.5 32t-34.5 12q-45 0 -109 -58z" />
    <glyph glyph-name="four.onum.tnum" horiz-adv-x="550" 
d="M233 -199l-19 23l27 89l20 121h-252q-1 9 -4 26.5t-4 25.5l-1 -1l397 429l78 -20l-30 -142l-42 -238h19q13 1 40 3t39 2l-16 -89l-73 5h-23l-19 -107q-2 -15 -6 -46t-5 -46zM309 303l-17 9l-161 -186l4 -12h141z" />
    <glyph glyph-name="five.onum.tnum" horiz-adv-x="550" 
d="M14 -200h-2l-59 105l42 46l80 -48q32 2 65.5 13t67.5 30.5t55.5 54t21.5 76.5q0 40 -28.5 63.5t-78.5 23.5q-11 0 -35 -4q-28 28 -39 41q10 48 32 149.5t33 154.5h224l129 10l-36 -130l-96 5h-166l-22 -101l15 -15q10 1 34 1q79 0 127.5 -35t48.5 -107
q0 -108 -117.5 -203.5t-295.5 -129.5z" />
    <glyph glyph-name="six.onum.tnum" horiz-adv-x="550" 
d="M249 372l7 -9q72 34 121 34q61 0 107.5 -37.5t49.5 -111.5q0 -43 -14 -92t-51 -75q-133 -94 -226 -94t-146.5 46.5t-53.5 135.5q0 170 143 306.5t373 194.5l6 -73q-138 -52 -203 -97t-113 -128zM317 315q-61 0 -114 -53l-4 -20q-11 -47 -8 -65q2 -48 26 -76t62 -28
q51 0 80 42t27 103q-1 47 -20.5 72t-48.5 25z" />
    <glyph glyph-name="seven.onum.tnum" horiz-adv-x="550" 
d="M-20 -188l-8 29q229 278 402 526l-6 16q-44 0 -134.5 0.5t-133.5 0.5q4 21 13 63t13 63l134 -5h251l26 -49q-269 -394 -428 -645q-21 0 -64 0.5t-65 0.5z" />
    <glyph glyph-name="eight.onum.tnum" horiz-adv-x="550" 
d="M37 139q0 57 37.5 96t103.5 71l1 10q-64 50 -64 118q0 86 68.5 145.5t173.5 59.5q84 0 134 -37t52 -98q0 -40 -33.5 -81t-92.5 -70l-1 -9q101 -54 104 -143q0 -79 -75 -146.5t-204 -67.5q-85 0 -143.5 41.5t-60.5 110.5zM238 284h-5q-81 -58 -81 -135q0 -40 27 -63.5
t81 -23.5q48 0 82 29.5t34 74.5q0 40 -35.5 67t-102.5 51zM339 564q-41 0 -64.5 -21.5t-23.5 -56.5q0 -33 24 -57.5t79 -50.5q66 51 66 115q0 33 -21 52t-60 19z" />
    <glyph glyph-name="nine.onum.tnum" horiz-adv-x="550" 
d="M339 111l-9 9q-78 -39 -126 -39q-66 0 -114.5 39t-48.5 117q0 42 15 88t51 72q120 98 227 98q91 0 144.5 -48t53.5 -137q0 -97 -57 -200.5t-144 -161.5q-134 -82 -317 -126v71q143 50 208.5 93t116.5 125zM261 163q61 0 110 44q13 42 13 90q0 54 -24 85.5t-63 31.5
q-47 0 -76.5 -43t-29.5 -109q0 -48 19.5 -73.5t50.5 -25.5z" />
    <glyph glyph-name="dollar.onum" horiz-adv-x="459" 
d="M19 27l14 129h49q4 -42 30 -66t68 -28l27 142l-18 9q-28 13 -43.5 22t-36 25.5t-30 38t-9.5 49.5q0 63 58.5 102.5t133.5 46.5q3 13 7.5 40l6.5 39h37l-14 -78q85 -3 125 -29l-16 -127h-48q-10 75 -73 88l-25 -130l17 -8q28 -12 45 -21t38 -25.5t31 -39t10 -51.5
q0 -60 -54 -106t-145 -55l-17 -86h-37l15 83q-40 1 -86 11.5t-62 25.5zM274 134q0 24 -34 51l-22 -118q56 22 56 67zM193 368q0 -25 35 -52l21 114q-56 -18 -56 -62z" />
    <glyph glyph-name="cent.onum" horiz-adv-x="433" 
d="M284 448q62 0 89 -68v-24l1 1q-7 -10 -20.5 -31t-20.5 -30h-33q-4 58 -40 76l-50 -282q52 11 88 44q5 -5 13.5 -17.5t15.5 -19.5q-60 -58 -129 -78l-18 -100h-38l16 94q-57 0 -91.5 32t-34.5 91q0 78 25.5 139t70.5 93q56 46 105 67q3 20 10 56.5t10 54.5h38l-17 -98h10z
M146 164q0 -50 27 -72l48 275q-35 -27 -55 -84t-20 -119z" />
    <glyph glyph-name="sterling.onum" horiz-adv-x="460" 
d="M72 279h68l9 49q14 77 122 133q74 37 118 37q38 0 74 -14q-1 -6 -10 -54t-14 -73h-47q3 72 -48 72q-24 0 -48 -18.5t-32 -60.5l-13 -71h99l-8 -49h-102q-10 -39 -30 -67t-57 -64q0 -2 3 -5q26 2 74 -4q2 0 7.5 -1t7.5 -1q18 -3 41 -3q57 0 78 73h45l-38 -160
q-22 -7 -56 -7q-48 0 -134 23l-12 3q-52 12 -65 14q-30 -40 -68 -40q-15 0 -23 9.5t-4 24.5q4 17 23.5 33.5t41.5 21.5q35 43 50 118l6 32h-66z" />
    <glyph glyph-name="yen.onum" horiz-adv-x="465" 
d="M265 299l11 -2q28 53 69 106t79 81q12 9 28 9q31 0 47 -24q14 -21 -8 -31q-97 -53 -196 -214l-3 -19h100l-7 -36h-101l-5 -30h101l-7 -36h-101l-6 -34l66 -12l-10 -57h-266q2 10 6 28.5t5 28.5l68 12l6 34h-95l6 36h97l5 30h-96q0 4 1.5 10.5t3.5 14.5t3 11h95l5 26
q-11 46 -40 101t-60 84l-40 7v53l103 25q49 -10 84.5 -70.5t51.5 -131.5z" />
    <glyph glyph-name="Euro.onum" horiz-adv-x="548" 
d="M73 307h51q36 87 110.5 139t158.5 52q86 0 151 -50l-43 -98h-31q9 50 -17 71.5t-61 21.5q-46 0 -85 -34t-62 -102h235l-16 -39h-231l-4 -24l-4 -15h223q-2 -6 -8 -19t-8 -20h-210v-20q0 -64 25.5 -93t67.5 -29q76 0 120 85q8 -3 23 -8.5t24 -9.5q-69 -124 -195 -124
q-84 0 -136.5 50t-52.5 140v9h-57q1 2 16 39h45q0 6 2 14q2 12 4 18v4l1 3h-52z" />
    <glyph glyph-name="numbersign.onum" horiz-adv-x="428" 
d="M78 386l81 -12q5 24 36 152q9 -1 24.5 -3.5t23.5 -3.5l-34 -150l72 -11q7 32 22.5 95t17.5 73q9 -1 24.5 -3.5t23.5 -3.5l-38 -167l86 -11l-7 -53l-90 11l-28 -117l76 -10l-7 -53l-80 11q-5 -25 -18 -78.5t-18 -78.5q-9 1 -24.5 3.5t-23.5 3.5l35 156l-74 9
q-6 -29 -19.5 -86t-19.5 -86q-9 1 -24.5 3.5t-23.5 3.5l38 173l-86 11l7 53l91 -12l26 116q-12 1 -37.5 5t-37.5 6zM197 314l-27 -115l73 -10l27 116z" />
    <glyph glyph-name="percent.onum" horiz-adv-x="467" 
d="M281 388q-20 0 -44 17q-1 -65 -37.5 -107.5t-82.5 -42.5q-39 0 -64.5 28t-25.5 71q0 58 39 101t84 43q53 0 77 -47q5 -12 22 -19.5t35 -7.5q41 0 75 23q26 46 62 46q7 0 13 -5.5t6 -14.5q0 -23 -36 -46l-90 -113q-35 -44 -87 -110l-162 -221l-45 25l172 211l137 182
q-34 -13 -48 -13zM233 90q0 58 39 100.5t84 42.5q38 0 63 -24.5t25 -67.5q0 -67 -37 -108.5t-83 -41.5q-40 0 -65.5 28t-25.5 71zM375 177q-23 0 -44 -35t-21 -75q0 -39 30 -39q24 0 44.5 27.5t20.5 80.5q0 41 -30 41zM170 439q-23 0 -44.5 -35t-21.5 -75q0 -39 31 -39
q23 0 43.5 31t20.5 77q0 41 -29 41z" />
    <glyph glyph-name="perthousand.onum" horiz-adv-x="696" 
d="M282 388q-20 0 -44 17q-1 -65 -37.5 -107.5t-82.5 -42.5q-39 0 -64.5 28t-25.5 71q0 58 39 101t84 43q53 0 77 -47q5 -12 22 -19.5t35 -7.5q41 0 75 23q26 46 62 46q7 0 13 -5.5t6 -14.5q0 -23 -36 -46l-90 -113q-35 -44 -87 -110l-162 -221l-45 25l172 211l137 182
q-34 -13 -48 -13zM234 90q0 58 39 100.5t84 42.5q39 0 63.5 -24.5t24.5 -67.5q0 -67 -37 -108.5t-83 -41.5q-40 0 -65.5 28t-25.5 71zM465 90q0 58 39 100.5t84 42.5q38 0 62.5 -24.5t24.5 -67.5q0 -67 -36.5 -108.5t-82.5 -41.5q-40 0 -65.5 28t-25.5 71zM376 177
q-23 0 -44 -35t-21 -75q0 -39 30 -39q24 0 44.5 27.5t20.5 80.5q0 41 -30 41zM607 177q-23 0 -44 -35t-21 -75q0 -39 31 -39q23 0 43.5 27.5t20.5 80.5q0 41 -30 41zM171 439q-23 0 -44.5 -35t-21.5 -75q0 -39 31 -39q23 0 43.5 31t20.5 77q0 41 -29 41z" />
    <glyph glyph-name="ordfeminine.onum" horiz-adv-x="347" 
d="M269 164l-50 13l-1 56q-83 -68 -120 -68q-57 0 -57 90q0 53 25 111t65 92q65 49 98 49q22 0 54 -20l25 22q11 -2 28.5 -6.5t24.5 -6.5l-60 -253l53 18l17 -31zM135 286q0 -38 19 -38q9 0 32.5 12.5t38.5 25.5l7 31l24 118q-20 13 -32 13q-33 0 -61 -52t-28 -110z" />
    <glyph glyph-name="ordmasculine.onum" horiz-adv-x="320" 
d="M247 513q39 0 66 -24t27 -74q0 -127 -67 -188v1q-77 -63 -137 -63q-45 0 -70 28.5t-25 70.5q0 133 71 189q84 60 135 60zM135 299q0 -66 32 -66q38 0 59 50.5t21 98.5q0 64 -30 64q-36 0 -59 -43t-23 -104z" />
    <glyph glyph-name="degree.onum" horiz-adv-x="367" 
d="M94 395q0 59 41 101t98 42t98.5 -42t41.5 -101q0 -58 -41.5 -100t-98.5 -42t-98 42t-41 100zM156 395q0 -33 21 -57t55 -24t55.5 24t21.5 57q0 34 -21.5 58.5t-55.5 24.5t-55 -24.5t-21 -58.5z" />
    <glyph glyph-name="zero.numr" horiz-adv-x="333" 
d="M148 311q-127 0 -127 135q0 95 58 159t129 64q56 0 88 -34.5t32 -100.5q0 -94 -52.5 -158.5t-127.5 -64.5zM203 621q-40 0 -64.5 -66t-24.5 -124q0 -72 42 -72q32 0 56.5 60t24.5 127q0 75 -34 75z" />
    <glyph glyph-name="one.numr" horiz-adv-x="261" 
d="M52 574l-3 43q88 28 123 52l54 -6l-54 -296q5 -1 17.5 -3t17.5 -3l27 -4l-7 -38h-217l6 39l65 9l40 220l-37 -8q-14 -2 -22 -4q-2 -1 -7 -1h-3z" />
    <glyph glyph-name="two.numr" horiz-adv-x="287" 
d="M162 613q-58 0 -72 -66h-53l29 78l-2 -1q21 18 57.5 31.5t55.5 13.5q50 0 83 -25t33 -65q0 -35 -41 -76.5t-111 -93.5q-22 -15 -32 -22q0 -5 3 -8l82 6q8 1 22 2.5t25.5 2.5t21.5 1l-14 -72h-254v38q115 89 157.5 134t42.5 86q0 17 -9.5 26.5t-23.5 9.5z" />
    <glyph glyph-name="three.numr" horiz-adv-x="287" 
d="M123 353q19 0 36 17.5t17 48.5q-1 27 -15 40.5t-28 14.5l-48 -11l-7 40q117 28 117 85q0 31 -37 31q-15 0 -26 -8t-16 -17.5t-10 -24.5v-1l-1 -2h-52l27 71l-2 -1q23 13 60 23t59 10q44 0 70 -19t26 -50q0 -27 -20 -46t-61 -42l2 -6q24 -12 41.5 -34t17.5 -47
q0 -48 -48.5 -81t-108.5 -33q-63 0 -106 25l-6 88h49q19 -71 70 -71z" />
    <glyph glyph-name="four.numr" horiz-adv-x="322" 
d="M151 365l10 58h-131l-11 30q38 53 100.5 114.5t118.5 102.5q10 -2 27.5 -6t26.5 -5q-2 -13 -8.5 -40.5t-8.5 -40.5l-9 -51q-7 -32 -11 -59h57l-8 -44h-57l-10 -58q5 0 17 -3t17 -3l16 -2l-6 -39h-186l6 38zM95 468h74l19 102q-75 -64 -98 -97z" />
    <glyph glyph-name="five.numr" horiz-adv-x="285" 
d="M94 311q-34 0 -72 17q-3 1 -8 3.5l-7 3.5q0 15 0.5 43t0.5 43h47q4 -20 8 -31.5t16.5 -21.5t32.5 -10q25 0 48 23.5t23 61.5q0 48 -33 48q-32 0 -68 -26l-44 17l56 180h124l78 7l-22 -77l-58 3h-90l-21 -70q38 12 65 12q44 0 74.5 -21.5t30.5 -59.5q0 -30 -17 -59
t-43 -45q-68 -41 -121 -41z" />
    <glyph glyph-name="six.numr" horiz-adv-x="304" 
d="M14 412q0 93 80 168.5t213 107.5l3 -43q-72 -27 -110.5 -54.5t-65.5 -72.5q44 19 67 19q36 0 63.5 -21t28.5 -62q0 -64 -38 -92q-74 -51 -127 -51t-83.5 26t-30.5 75zM313 646l-3 -2v1q2 0 3 1zM168 490q-29 0 -58 -29q1 -1 1 -5l1 1q-2 -3 -2 -5q-6 -21 -5 -36
q1 -26 13 -41t30 -15q25 0 39.5 22.5t13.5 55.5q-1 26 -10 39t-23 13z" />
    <glyph glyph-name="seven.numr" horiz-adv-x="268" 
d="M293 662l8 -51q-125 -140 -164 -272q-11 -25 -61 -25q-23 0 -33.5 5.5t-4.5 18.5q76 157 175 245q-3 3 -3 8h-101q-12 0 -34 -41h-42l39 115l68 -3h153z" />
    <glyph glyph-name="eight.numr" horiz-adv-x="303" 
d="M12 395q0 53 81 92l-2 4h-2v1q-35 27 -35 64q0 47 39 80t100 33q48 0 76.5 -20.5t29.5 -54.5q0 -48 -68 -83l-1 -4q56 -31 57 -78q0 -44 -42.5 -81t-115.5 -37q-48 0 -82 23t-35 61zM198 410q0 36 -71 62q-41 -34 -41 -71q0 -47 53 -47q24 0 41.5 16t17.5 40zM182 626
q-20 0 -31 -11.5t-11 -30.5q0 -18 11.5 -31t37.5 -26q32 25 32 61q0 38 -39 38z" />
    <glyph glyph-name="nine.numr" horiz-adv-x="304" 
d="M10 338l3 2v-1q71 24 108.5 49.5t68.5 71.5q-43 -19 -68 -19q-38 0 -66 21.5t-28 64.5q0 60 39 89q64 53 127 53q52 0 83 -26.5t31 -75.5q0 -51 -32.5 -108t-81.5 -91q-68 -41 -181 -70v41q-1 -1 -3 -1zM154 488q28 0 58 27h-2q5 16 5 45t-11.5 46t-29.5 17
q-23 0 -38 -23.5t-15 -58.5q0 -53 33 -53z" />
    <glyph glyph-name="zero.dnom" horiz-adv-x="333" 
d="M148 -46q-127 0 -127 134q0 95 58 159t129 64q56 0 88 -34.5t32 -100.5q0 -94 -52.5 -158t-127.5 -64zM203 263q-40 0 -64.5 -65.5t-24.5 -123.5q0 -73 42 -73q32 0 56.5 60t24.5 127q0 75 -34 75z" />
    <glyph glyph-name="one.dnom" horiz-adv-x="261" 
d="M52 216l-3 43q88 28 123 52l54 -6l-54 -296q5 -1 17.5 -3t17.5 -3l27 -4l-7 -38h-217l6 39l65 9l40 220l-37 -8q-14 -2 -22 -4q-2 -1 -7 -1h-3z" />
    <glyph glyph-name="two.dnom" horiz-adv-x="287" 
d="M162 255q-58 0 -72 -66h-53l29 78l-2 -1q21 18 57.5 31.5t55.5 13.5q50 0 83 -25t33 -65q0 -35 -41 -76.5t-111 -93.5q-22 -15 -32 -22q0 -5 3 -8l82 6q8 1 22 2.5t25.5 2.5t21.5 1l-14 -72h-254v38q115 89 157.5 134t42.5 86q0 17 -9.5 26.5t-23.5 9.5z" />
    <glyph glyph-name="three.dnom" horiz-adv-x="287" 
d="M123 -5q19 0 36 17.5t17 48.5q-1 27 -15 40.5t-28 14.5l-48 -11l-7 40q117 28 117 85q0 31 -37 31q-15 0 -26.5 -8t-16 -17t-9.5 -24v-1q-1 -1 -1 -2h-52l27 70l-2 -1q23 13 60 23t59 10q44 0 70 -19t26 -50q0 -26 -20 -45.5t-61 -42.5l2 -6q23 -12 41 -34t18 -46
q0 -48 -48.5 -81t-108.5 -33q-65 0 -106 24l-6 89h49q19 -72 70 -72z" />
    <glyph glyph-name="four.dnom" horiz-adv-x="322" 
d="M151 7l10 59h-131l-11 29q38 53 100.5 114.5t118.5 102.5q10 -1 27 -5.5t27 -5.5q-2 -13 -8.5 -40t-8.5 -41l-9 -51q-7 -32 -11 -59h57l-8 -43h-57l-10 -59q5 0 17 -3t17 -3l16 -2l-6 -39h-186l6 38zM95 110h74l19 103q-77 -68 -98 -98z" />
    <glyph glyph-name="five.dnom" horiz-adv-x="285" 
d="M94 -46q-36 0 -72 16q-3 1 -8 3.5l-7 3.5q0 14 0.5 42.5t0.5 43.5h47q4 -20 8 -31.5t16.5 -21.5t32.5 -10q25 0 48 23.5t23 62.5q0 47 -33 47q-32 0 -68 -26l-44 17l56 180h124l78 7l-22 -77l-58 3h-90l-21 -70q38 12 65 12q44 0 74.5 -21.5t30.5 -59.5q0 -30 -17 -59
t-43 -45q-67 -40 -121 -40z" />
    <glyph glyph-name="six.dnom" horiz-adv-x="304" 
d="M14 54q0 93 80 168.5t213 108.5l3 -44q-72 -27 -110.5 -54.5t-65.5 -72.5q44 19 67 19q36 0 63.5 -21t28.5 -62q0 -64 -38 -92q-73 -50 -127 -50q-53 0 -83.5 25.5t-30.5 74.5zM313 288l-3 -2v1q2 0 3 1zM168 132q-29 0 -58 -29q1 -1 1 -5l1 1q-2 -3 -2 -5q-6 -19 -5 -36
q1 -26 13 -41t30 -15q25 0 39.5 23t13.5 56q-1 25 -10 38t-23 13z" />
    <glyph glyph-name="seven.dnom" horiz-adv-x="268" 
d="M293 304l8 -51q-126 -141 -164 -272q-11 -24 -61 -24q-23 0 -33.5 5t-4.5 18q75 156 175 245q-3 3 -3 8h-101q-13 0 -34 -40h-42l39 114l68 -3h153z" />
    <glyph glyph-name="eight.dnom" horiz-adv-x="303" 
d="M12 37q0 53 81 92l-2 4h-2v1q-35 27 -35 65q0 47 39.5 79.5t99.5 32.5q48 0 76.5 -20.5t29.5 -54.5q0 -21 -17.5 -43.5t-50.5 -39.5l-1 -4q56 -31 57 -77q0 -45 -42.5 -81.5t-115.5 -36.5q-48 0 -82 22.5t-35 60.5zM198 52q0 36 -71 62q-41 -34 -41 -71q0 -47 53 -47
q24 0 41.5 16t17.5 40zM182 268q-20 0 -31 -11.5t-11 -30.5q0 -32 49 -57q32 25 32 61q0 38 -39 38z" />
    <glyph glyph-name="nine.dnom" horiz-adv-x="304" 
d="M10 -20l3 2v-1q71 24 108.5 49.5t68.5 71.5q-43 -18 -68 -18q-38 0 -66 21t-28 64q0 60 39 89q64 53 127 53q52 0 83 -26.5t31 -74.5q0 -52 -32.5 -109t-81.5 -91q-65 -40 -181 -69v40q-2 0 -3 -1zM154 130q28 0 58 27h-2q5 16 5 46q0 28 -11.5 45t-29.5 17
q-23 0 -38 -23.5t-15 -58.5q0 -53 33 -53z" />
    <glyph glyph-name="zero.subs" horiz-adv-x="333" 
d="M88 -167q-127 0 -127 134q0 95 57.5 159t128.5 64q56 0 88 -34t32 -101q0 -94 -52 -158t-127 -64zM142 142q-27 0 -48.5 -35.5t-31 -77.5t-9.5 -76q0 -73 43 -73q32 0 56 60t24 128q0 74 -34 74z" />
    <glyph glyph-name="one.subs" horiz-adv-x="261" 
d="M-7 95l-3 43q90 29 123 52l53 -6l-53 -296q5 0 17 -3t17 -3l27 -4l-7 -38h-216l6 39l64 9l40 220l-37 -8q-14 -2 -21 -4q-2 -1 -7 -1h-3z" />
    <glyph glyph-name="two.subs" horiz-adv-x="287" 
d="M103 134q-59 0 -73 -65h-52l28 77l-2 -1q21 18 58 31.5t56 13.5q50 0 83 -25t33 -65q0 -35 -40.5 -75.5t-111.5 -94.5q-23 -15 -33 -22q0 -5 3 -8l82 6q68 6 70 6l-15 -72h-254v38q115 88 157.5 133.5t42.5 86.5q0 17 -9.5 26.5t-22.5 9.5z" />
    <glyph glyph-name="three.subs" horiz-adv-x="287" 
d="M62 -126q20 0 37 17.5t17 49.5q-1 26 -15 39.5t-28 14.5l-49 -11l-7 40q117 27 117 85q0 31 -36 31t-53 -49q0 -1 -1 -3h-51l26 70l-2 -1q23 13 60.5 23t58.5 10q45 0 71 -19t26 -50q0 -26 -20.5 -45.5t-61.5 -42.5l2 -6q24 -12 42 -34t18 -46q0 -48 -49 -81t-109 -33
q-64 0 -105 24l-6 89h49q5 -20 11 -33.5t21 -26t37 -12.5z" />
    <glyph glyph-name="four.subs" horiz-adv-x="322" 
d="M91 -114l10 59h-131l-11 29q37 52 99 113.5t119 104.5q8 -2 26 -6t29 -6q-2 -13 -8.5 -40.5t-8.5 -40.5l-9 -51q-7 -32 -11 -59h57l-8 -43h-58l-10 -59q5 -1 17.5 -3t17.5 -3l16 -2l-6 -39h-187l6 38zM34 -11h75l19 103q-80 -70 -99 -98z" />
    <glyph glyph-name="five.subs" horiz-adv-x="285" 
d="M33 -167q-35 0 -71 16q-3 1 -8 3t-7 4q0 14 0.5 43t0.5 44h47q3 -16 5.5 -25t8.5 -19.5t16.5 -15t25.5 -4.5q26 0 49 23.5t23 62.5q0 47 -33 47t-69 -26l-43 17l55 180h124l79 7l-22 -77l-59 3h-89l-22 -70q38 12 66 12q44 0 74.5 -21.5t30.5 -59.5q0 -29 -17.5 -58.5
t-43.5 -45.5q-65 -40 -121 -40z" />
    <glyph glyph-name="six.subs" horiz-adv-x="304" 
d="M-46 -67q0 93 80 168.5t213 108.5l3 -44q-73 -27 -110.5 -54.5t-65.5 -72.5q44 19 66 19q36 0 64 -21t29 -62q0 -64 -38 -92q-75 -50 -127 -50q-53 0 -83.5 25.5t-30.5 74.5zM253 167l-3 -2v1q2 0 3 1zM108 11q-28 0 -59 -29q1 -1 1 -5l1 1q-2 -3 -2 -5q-6 -19 -5 -35
q1 -27 13.5 -42t30.5 -15q25 0 39 22.5t13 56.5q-1 51 -32 51z" />
    <glyph glyph-name="seven.subs" horiz-adv-x="268" 
d="M233 183l8 -51q-125 -138 -164 -272q-11 -24 -62 -24q-23 0 -33 5t-4 18q72 153 174 245q-3 3 -3 8h-101q-13 0 -34 -40h-41l38 114l69 -3h153z" />
    <glyph glyph-name="eight.subs" horiz-adv-x="303" 
d="M-48 -84q0 53 80 92l-2 4h-2v1q-34 26 -34 65q0 47 39 79.5t99 32.5q48 0 77 -20.5t30 -54.5q0 -21 -18 -43.5t-51 -39.5l-1 -4q57 -31 58 -77q0 -44 -42.5 -81t-115.5 -37q-49 0 -82.5 22.5t-34.5 60.5zM137 -69q0 36 -70 62q-42 -34 -42 -71q0 -47 54 -47q24 0 41 16
t17 40zM122 147q-20 0 -31 -11.5t-11 -30.5q0 -31 49 -57q31 27 31 61q0 38 -38 38z" />
    <glyph glyph-name="nine.subs" horiz-adv-x="304" 
d="M-50 -141l3 2v-1q71 25 108.5 50.5t68.5 70.5q-43 -18 -69 -18q-38 0 -65.5 21t-27.5 64q0 60 38 89q64 53 127 53q52 0 83.5 -26.5t31.5 -74.5q0 -52 -33 -109t-82 -91q-62 -39 -180 -69v40q-2 0 -3 -1zM94 9q27 0 57 27h-2q5 16 5 46q0 28 -11 45t-29 17
q-23 0 -38.5 -23.5t-15.5 -58.5q0 -53 34 -53z" />
    <glyph glyph-name="acute.case" horiz-adv-x="500" 
d="M191 502v16l-2 -1l86 119h117v-18q-26 -23 -76.5 -64.5t-61.5 -51.5h-63z" />
    <glyph glyph-name="grave.case" horiz-adv-x="500" 
d="M301 517v-15h-63l-108 116v18h115z" />
    <glyph glyph-name="circumflex.case" horiz-adv-x="500" 
d="M390 518v-16h-29l-84 59l-131 -59h-38v15l162 119h53l68 -119z" />
    <glyph glyph-name="breve.case" horiz-adv-x="500" 
d="M244 492q-47 0 -74.5 23.5t-27.5 71.5q0 14 5 39h40q-5 -26 15 -45t58 -19q40 0 73.5 18.5t40.5 45.5h44q-15 -65 -65 -99.5t-109 -34.5z" />
    <glyph glyph-name="caron.case" horiz-adv-x="500" 
d="M161 620v16h30l78 -59l136 59h38v-15l-162 -119h-52l-69 119z" />
    <glyph glyph-name="dotaccent.case" horiz-adv-x="500" 
d="M211 553q0 34 20.5 61t50.5 27q23 0 37 -18.5t14 -45.5q0 -34 -21.5 -59t-48.5 -25q-23 0 -37.5 18t-14.5 42z" />
    <glyph glyph-name="hungarumlaut.case" horiz-adv-x="500" 
d="M99 502v16l-1 -1l85 119h117v-18q-49 -43 -138 -116h-63zM270 502v16l-1 -1l86 119h117v-18l-138 -116h-64z" />
    <glyph glyph-name="sidecaron.part" horiz-adv-x="500" 
d="M219 493v5q1 3 71 210h97v-9l-109 -206h-59z" />
    <glyph glyph-name="gcomma.part" horiz-adv-x="500" 
d="M298 714l46 -32l-49 -85q-4 -17 -11.5 -48t-10.5 -46q-14 6 -39.5 15.5t-39.5 15.5l41 92h-1z" />
    <glyph glyph-name="Stroke.part" horiz-adv-x="430" 
d="M79 518h727l-10 -60h-727z" />
    <glyph glyph-name="stroke.part" horiz-adv-x="430" 
d="M68 552h284l-10 -56h-285z" />
    <glyph glyph-name="uni2011.case" horiz-adv-x="335" 
d="M91 368l54 -2h106q12 0 36 1t37 1q-3 -18 -10.5 -52t-10.5 -52l-51 2h-122l-58 -3q3 18 9.5 52.5t9.5 52.5z" />
    <glyph glyph-name="acute.plk" horiz-adv-x="500" 
d="M219 502v15q11 30 61 154h100v-18l1 1l-104 -152h-58z" />
    <glyph glyph-name="acute.case.plk" horiz-adv-x="500" 
d="M215 502v16l-1 -1l60 119h92v-18l1 1l-94 -117h-58z" />
    <glyph glyph-name="Iacute_Jacute" horiz-adv-x="737" 
d="M106 664h307l-12 -69l-80 -15l-87 -495q12 -2 37 -7.5t37 -7.5l-12 -70h-307l12 70l81 15l86 495q-12 2 -37 7.5t-37 7.5zM208 727v16l-1 -1l85 119h117v-18q-32 -28 -138 -116h-63zM447 33l95 547q-14 2 -42.5 7.5t-42.5 7.5l12 69h321l-12 -69l-85 -15l-83 -476
q-9 -53 -20 -83.5t-36 -60.5q-60 -68 -228 -188l-36 46q81 76 118 123q29 37 39 92zM579 727v16l-1 -1l85 119h117v-18q-27 -24 -79 -67t-59 -49h-63z" />
    <glyph glyph-name="iacute_jacute" horiz-adv-x="609" 
d="M467 510l99 -15l18 -47q-10 -49 -44 -222t-52 -267l1 1l-72 -103q-20 -14 -65 -48t-70 -51l-36 59l109 117l92 463q-9 -3 -91 -30l-19 54q24 18 72.5 50t57.5 39zM291 95l-155 -101l-78 29q-1 8 -4 25.5t-4 26.5l84 322l-91 -29q-3 9 -10.5 27t-10.5 25l132 90l93 -12
l22 -48l-84 -339l85 32q3 -9 11 -26.5t10 -21.5zM149 575v16l-1 -1l101 154h117v-18l-153 -151h-64zM467 575v16l-1 -1l100 154h117v-18l-153 -151h-63z" />
    <glyph glyph-name="idotaccent" horiz-adv-x="310" 
d="M292 95l-156 -101l-77 29q-1 8 -4 25.5t-4 26.5l84 322l-91 -29q-3 9 -10.5 27t-10.5 25l132 90l93 -12l22 -48l-84 -339l85 32q3 -9 11 -26.5t10 -21.5zM172 659q0 36 22.5 63t55.5 27q28 0 48.5 -20t20.5 -57q0 -42 -21.5 -66.5t-54.5 -24.5t-52 21.5t-19 56.5z" />
    <glyph glyph-name="Dotlessi" horiz-adv-x="369" 
d="M108 663h307l-13 -69l-80 -16l-87 -493q6 -1 34 -7.5t41 -8.5l-12 -69h-307l12 69l81 16l86 493q-72 16 -74 16z" />
    <glyph glyph-name="zero.tallfig" horiz-adv-x="623" 
d="M275 -14q-227 0 -227 257q0 93 30 175.5t79 137.5t110 87t123 32q98 0 155.5 -65.5t57.5 -193.5q0 -181 -95 -305.5t-233 -124.5zM379 588q-43 0 -79 -40.5t-57.5 -101t-33 -121.5t-11.5 -109q0 -73 25.5 -107.5t66.5 -34.5q45 0 84.5 57t61.5 141t22 168q0 148 -79 148z
" />
    <glyph glyph-name="one.tallfig" horiz-adv-x="489" 
d="M110 497l-6 82q65 19 130.5 47t99.5 50l78 -10l-102 -577l118 -17l-13 -72h-385l12 72l123 17l77 444q-42 -15 -92 -28l-18 -4q-4 -1 -11 -2t-11 -2z" />
    <glyph glyph-name="two.tallfig" horiz-adv-x="537" 
d="M303 574q-69 0 -104.5 -39t-44.5 -91h-73q9 26 27.5 76t27.5 76l-2 -1q40 31 104 55.5t95 24.5q89 0 147 -48t58 -124q0 -32 -20 -69t-46 -68t-74.5 -73.5t-82 -68t-90.5 -68.5l-34 -26l5 -19l285 22l-25 -133h-455v74q204 162 291 256.5t87 167.5q0 34 -22 55t-54 21z
" />
    <glyph glyph-name="three.tallfig" horiz-adv-x="537" 
d="M230 60q40 0 77 35.5t37 98.5q-1 54 -33 81.5t-63 27.5l-79 -18l-11 68q220 53 220 168q0 63 -81 63q-27 0 -47.5 -9t-33.5 -27t-19 -31t-14 -35h-73l50 135q42 24 107.5 41t103.5 17q77 0 122.5 -36.5t45.5 -94.5q0 -50 -38.5 -87.5t-115.5 -82.5l1 -12q45 -17 79.5 -60
t34.5 -96q0 -92 -88 -156t-195 -64q-99 0 -187 43l-13 171h67q8 -29 16 -47.5t24.5 -43t43 -37t62.5 -12.5z" />
    <glyph glyph-name="four.tallfig" horiz-adv-x="603" 
d="M293 90l20 115h-247q-3 8 -11.5 27t-12.5 27q66 94 185 212.5t226 202.5l81 -16l-32 -157l-36 -216h108l-17 -79h-107l-20 -117l95 -17l-12 -72h-324q2 12 6.5 35t6.5 37zM363 482l-20 10q-133 -120 -187 -193l4 -14h169z" />
    <glyph glyph-name="five.tallfig" horiz-adv-x="534" 
d="M174 -14q-62 0 -128 33l-22 10q0 53 1 83q0 16 0.5 43.5t0.5 38.5h61q6 -31 11 -47.5t17.5 -36.5t35.5 -29t58 -9q51 0 99.5 47t48.5 122q0 46 -20 70.5t-57 24.5q-62 0 -134 -47l-64 24q2 8 52 174l53 175h224q22 1 68 5l62 5l-39 -141l-96 6h-183l-40 -135l18 -9
q21 10 58 18.5t59 8.5q78 0 132 -41.5t54 -114.5q0 -58 -30 -113.5t-77 -84.5q-125 -79 -223 -80z" />
    <glyph glyph-name="six.tallfig" horiz-adv-x="569" 
d="M245 393l9 -11q76 37 126 37q62 0 109.5 -39.5t50.5 -117.5q0 -42 -15 -95t-51 -82q-138 -99 -232 -99q-95 0 -149.5 49.5t-54.5 142.5q0 180 145.5 323.5t382.5 206.5l7 -77q-145 -56 -212 -104t-116 -134zM318 334q-65 0 -120 -58l-4 -22q-12 -41 -9 -67
q4 -51 29.5 -81.5t64.5 -30.5q54 0 85 45t29 110q-1 51 -22.5 77.5t-52.5 26.5z" />
    <glyph glyph-name="seven.tallfig" horiz-adv-x="503" 
d="M536 662l14 -100q-231 -266 -310 -523q-18 -46 -101 -46q-35 0 -52 9t-10 32q143 309 333 478l-8 17l-200 1q-38 0 -74 -75l-3 -5h-53q9 30 45 137l28 81l115 -6h276z" />
    <glyph glyph-name="eight.tallfig" horiz-adv-x="568" 
d="M33 147q0 60 38.5 101.5t107.5 75.5l1 10q-67 53 -67 126q0 90 70 152.5t177 62.5q86 0 137 -39t53 -103q0 -43 -34.5 -87t-95.5 -75l-1 -8q104 -55 107 -151q0 -38 -18 -77t-52 -73t-90.5 -55t-124.5 -21q-86 0 -146 43.5t-62 117.5zM239 301h-8q-84 -61 -84 -144
q0 -92 114 -92q50 0 86 31t36 79q0 41 -36.5 69.5t-107.5 56.5zM342 598q-44 0 -69 -23.5t-25 -60.5q0 -35 25.5 -61.5t84.5 -55.5q71 54 71 124q0 36 -23 56.5t-64 20.5z" />
    <glyph glyph-name="nine.tallfig" horiz-adv-x="569" 
d="M367 269l-11 11q-81 -42 -130 -42q-67 0 -116.5 41t-49.5 124q0 43 15.5 91.5t51.5 76.5q128 104 232 104q93 0 147.5 -50t54.5 -144q0 -100 -59.5 -210t-147.5 -174q-149 -88 -322 -132v73q146 53 214.5 99.5t120.5 131.5zM284 324q64 0 117 46q14 45 14 97
q0 57 -25.5 90.5t-67.5 33.5q-50 0 -81.5 -46t-31.5 -116q0 -52 21 -78.5t54 -26.5z" />
    <glyph glyph-name="zero.tallfig.tnum" horiz-adv-x="560" 
d="M247 -14q-218 0 -218 257q0 93 29 175.5t75.5 137.5t105.5 87t118 32q94 0 149 -65.5t55 -193.5q0 -181 -91 -305.5t-223 -124.5zM347 588q-54 0 -96 -69.5t-60.5 -152.5t-18.5 -150q0 -73 24.5 -107.5t64.5 -34.5q43 0 81 57t59 141t21 168q0 148 -75 148z" />
    <glyph glyph-name="one.tallfig.tnum" horiz-adv-x="560" 
d="M149 497l-6 82q66 19 131.5 47t98.5 50l79 -10l-102 -577l118 -17l-13 -72h-385l12 72l123 17l76 444q-44 -16 -91 -28l-19 -4q-4 -1 -11 -2t-11 -2z" />
    <glyph glyph-name="two.tallfig.tnum" horiz-adv-x="560" 
d="M312 574q-69 0 -104.5 -39t-44.5 -91h-73q9 26 27.5 76t27.5 76l-2 -1q40 31 104 55.5t95 24.5q89 0 147 -48t58 -124q0 -32 -20 -69t-46 -68t-74.5 -73.5t-82 -68t-90.5 -68.5l-34 -26l5 -19l285 22l-25 -133h-455v74q204 162 291 256.5t87 167.5q0 34 -22 55t-54 21z
" />
    <glyph glyph-name="three.tallfig.tnum" horiz-adv-x="560" 
d="M239 60q40 0 77 35.5t37 98.5q-1 54 -33 81.5t-63 27.5l-79 -18l-11 68q220 53 220 168q0 63 -81 63q-27 0 -47.5 -9t-33 -26.5t-19 -31.5t-13.5 -35h-74l50 135q42 24 107.5 41t103.5 17q77 0 122.5 -36.5t45.5 -94.5q0 -50 -38.5 -87.5t-115.5 -82.5l1 -12
q45 -17 79.5 -60t34.5 -96q0 -92 -88 -156t-195 -64q-99 0 -187 43l-13 171h67q8 -29 16 -47.5t24.5 -43t43 -37t62.5 -12.5z" />
    <glyph glyph-name="four.tallfig.tnum" horiz-adv-x="560" 
d="M276 90l20 115h-248q-3 10 -12 29.5t-11 24.5q66 95 184.5 213.5t225.5 201.5l82 -16l-32 -157l-36 -216h107l-16 -79h-108l-19 -117l95 -17l-12 -72h-325q2 12 6.5 35t6.5 37zM346 482l-20 10q-133 -120 -187 -193l4 -14h168z" />
    <glyph glyph-name="five.tallfig.tnum" horiz-adv-x="560" 
d="M184 -14q-62 0 -128 33l-22 10q0 53 1 83q0 16 0.5 43.5t0.5 38.5h61q6 -31 11 -47.5t17.5 -36.5t35.5 -29t58 -9q51 0 99.5 47t48.5 122q0 46 -20 70.5t-57 24.5q-60 0 -134 -47l-64 24q2 8 52 174l54 175h223q22 1 68 5l62 5l-39 -141l-96 6h-183l-39 -135l17 -9
q21 10 58 18.5t59 8.5q78 0 132 -41.5t54 -114.5q0 -58 -30 -113.5t-77 -84.5q-125 -79 -223 -80z" />
    <glyph glyph-name="six.tallfig.tnum" horiz-adv-x="560" 
d="M238 393l9 -11q76 37 126 37q62 0 109.5 -39.5t50.5 -117.5q0 -42 -15 -95t-51 -82q-138 -99 -232 -99q-95 0 -149.5 49.5t-54.5 142.5q0 180 145.5 323.5t382.5 206.5l6 -77q-144 -56 -211 -104t-116 -134zM310 334q-64 0 -119 -58l-5 -22q-10 -43 -8 -67
q3 -51 29 -81.5t65 -30.5q54 0 85 45t29 110q-1 51 -22.5 77.5t-53.5 26.5z" />
    <glyph glyph-name="seven.tallfig.tnum" horiz-adv-x="560" 
d="M571 662l14 -100q-231 -265 -311 -523q-18 -46 -101 -46q-35 0 -52 9t-10 32q145 309 334 478l-9 17l-200 1q-38 0 -74 -75l-3 -5h-53q9 30 45 137l28 81l115 -6h277z" />
    <glyph glyph-name="eight.tallfig.tnum" horiz-adv-x="560" 
d="M29 147q0 60 38.5 101.5t107.5 75.5l1 10q-67 53 -67 126q0 90 70 152.5t177 62.5q86 0 137 -39t53 -103q0 -43 -34.5 -87t-95.5 -75l-1 -8q104 -55 107 -151q0 -38 -18 -77t-52 -73t-90.5 -55t-124.5 -21q-86 0 -146 43.5t-62 117.5zM235 301h-8q-84 -61 -84 -144
q0 -92 114 -92q50 0 86 31t36 79q0 41 -36.5 69.5t-107.5 56.5zM338 598q-44 0 -69 -23.5t-25 -60.5q0 -35 25.5 -61.5t84.5 -55.5q71 54 71 124q0 36 -23 56.5t-64 20.5z" />
    <glyph glyph-name="nine.tallfig.tnum" horiz-adv-x="560" 
d="M371 269l-11 11q-81 -42 -130 -42q-67 0 -116 41t-49 124q0 44 15 92t51 76q128 104 232 104q93 0 147.5 -50t54.5 -144q0 -100 -59.5 -210t-147.5 -174q-149 -88 -322 -132v73q146 53 214.5 99.5t120.5 131.5zM288 324q64 0 117 46q14 45 14 97q0 57 -25.5 90.5
t-67.5 33.5q-50 0 -81.5 -46t-31.5 -116q0 -52 21 -78.5t54 -26.5z" />
    <glyph glyph-name="at.tallfig" horiz-adv-x="816" 
d="M708 451q0 26 -5 54t-19 60.5t-35 57t-57.5 41t-82.5 16.5q-95 0 -179.5 -71.5t-133 -182.5t-48.5 -227t43.5 -174t121.5 -58q84 0 165 60l23 -43q-45 -36 -98.5 -56t-98.5 -20q-113 0 -171 76.5t-58 215.5q0 92 35 187t92.5 171t139.5 124.5t170 48.5q122 0 194 -77
t72 -203q0 -84 -32 -154.5t-79.5 -112t-95 -64t-84.5 -22.5t-37 45q0 31 21 83l-11 10q-20 -29 -36 -49t-38.5 -43.5t-46.5 -35.5t-47 -12q-29 0 -44.5 25.5t-15.5 57.5q0 81 58 185q46 76 106.5 127.5t114.5 51.5q25 0 43 -36q9 21 17.5 28t27.5 7q18 0 25 -5t5 -15
l-106 -325q-7 -31 12 -31q18 0 45.5 19.5t57 53.5t50 91t20.5 121zM311 213q0 -42 24 -42q34 0 94 78.5t101 179.5q8 66 -29 66q-32 0 -70 -34.5t-67 -84.5q-53 -98 -53 -163z" />
    <glyph glyph-name="dollar.tallfig" horiz-adv-x="562" 
d="M26 33l17 175h48q6 -60 41 -93t93 -35l33 196l-9 5h1q-1 1 -3 2l-12 7l1 -1q-36 20 -54.5 31.5t-44.5 34.5t-38 52.5t-12 66.5q0 86 74.5 139.5t166.5 60.5l18 108h32l-19 -107q109 -4 156 -39l-19 -167h-46q-10 50 -38.5 82t-67.5 38l-32 -184l27 -12q32 -16 53 -29
t46 -35t38 -52t13 -67q0 -81 -68 -144t-180 -75l-19 -116h-34l20 113q-49 0 -107 13.5t-77 32.5zM343 180q0 41 -56 80l-30 -177q37 10 61.5 35.5t24.5 61.5zM228 501q0 -40 55 -80l29 166q-39 -7 -61.5 -30.5t-22.5 -55.5z" />
    <glyph glyph-name="cent.tallfig" horiz-adv-x="433" 
d="M299 558q62 0 89 -67v-24l1 1q-7 -9 -20.5 -30t-20.5 -31h-33q-4 58 -40 76l-50 -282q52 11 88 44q7 -7 15.5 -19.5t13.5 -17.5q-61 -60 -129 -78l-17 -100h-39l16 94q-57 0 -91.5 32t-34.5 91q0 78 25.5 138.5t70.5 93.5q56 46 105 67q3 20 10 56.5t10 54.5h38l-17 -99
h10zM161 275q0 -49 27 -72l48 275q-35 -28 -55 -84.5t-20 -118.5z" />
    <glyph glyph-name="sterling.tallfig" horiz-adv-x="564" 
d="M94 376h82l12 70q18 102 151 179h-1q88 50 142 50q44 0 84 -17l-30 -169h-43q-1 46 -19 72t-48 26q-35 0 -65.5 -25t-41.5 -85l-18 -101h126l-11 -62h-126q-20 -94 -109 -181l6 -12q36 5 90 -3q1 0 4 -0.5t4 -0.5q3 0 8 -1t7 -1q43 -5 53 -5q74 0 105 101h43l-48 -216
q-29 -8 -63 -8q-54 0 -164 32h1l-10 3q-54 16 -94 21q-36 -56 -80 -56q-15 0 -23 12t-4 32q4 22 28 44t51 28q47 64 64 165l7 46h-82z" />
    <glyph glyph-name="yen.tallfig" horiz-adv-x="571" 
d="M320 401h28q33 74 82.5 145t95.5 112v-1q16 12 31 12q22 0 40.5 -15.5t18.5 -33.5q0 -16 -12 -21q-121 -69 -247 -294l-5 -31h125l-4 -21q-1 -3 -4 -21h-125l-7 -48h124l-8 -43h-124l-8 -53q13 -2 41 -7.5t41 -7.5l-12 -73h-318l12 73l86 15l8 53h-119q0 2 5 21l4 22h118
l9 48h-120q1 10 4 21l4 21h120l6 38q-12 67 -48.5 142t-79.5 114l-46 11v69l121 31q54 -19 99 -103.5t64 -174.5z" />
    <glyph glyph-name="Euro.tallfig" horiz-adv-x="672" 
d="M92 415h64q45 118 135.5 189t191.5 71q100 0 180 -64l-54 -131h-24q2 9 2 26q0 54 -33 77t-73 23q-59 0 -108.5 -48.5t-80.5 -142.5h290l-19 -49h-285l-6 -35v1q-2 -10 -4 -25h274l-9 -23q-2 -5 -5.5 -14t-4.5 -11h-261v-29q0 -88 34.5 -129.5t89.5 -41.5q99 0 155 114
q5 -3 20 -8q4 -2 12 -5t12 -5q-42 -80 -103 -124t-132 -44q-100 0 -163.5 68t-63.5 189v15h-70l10 23l10 25h55q2 15 4 22q0 1 0.5 3l0.5 2q1 4 1 14.5t2 15.5q-10 0 -31.5 1t-31.5 1z" />
    <glyph glyph-name="numbersign.tallfig" horiz-adv-x="525" 
d="M99 521l100 -15l42 209l24 -4l25 -4l-42 -208l102 -15q7 36 23.5 113.5t24.5 117.5q5 -1 12 -2.5t11 -1.5l26 -4l-48 -229l107 -16l-4 -35q-2 -8 -4 -32l-112 15l-34 -165q14 -2 46 -7t48 -7l-5 -34q-1 -7 -4 -34q-15 2 -31 4.5t-36 5.5t-31 5l-44 -213l-25 2
q-2 0 -5.5 0.5t-6 0.5t-6 0.5t-6.5 1.5l43 214l-85 14l-18 2l-47 -235l-25 2q-1 0 -10 1t-15 2l48 237l-106 16q2 24 4 33l4 33l111 -16l34 166q-45 6 -93 14zM337 417l-102 15l-34 -166l101 -15z" />
    <glyph glyph-name="percent.tallfig" horiz-adv-x="573" 
d="M299 553l-16 -5q0 -85 -43 -142t-98 -57q-46 0 -75.5 38t-29.5 95q0 78 46 135.5t100 57.5q63 0 88 -62q7 -17 29 -27.5t49 -10.5q53 0 100 35q31 59 70 59q7 0 12 -7t5 -18q0 -29 -44 -59l-220 -307l-143 -215l-55 -82l-45 29l210 284l168 245l-11 8q-27 -16 -50 -16
q-25 0 -47 22zM292 119q0 79 46.5 136t100.5 57q44 0 72 -32.5t28 -89.5q0 -91 -42.5 -147t-96.5 -56q-48 0 -78 37.5t-30 94.5zM463 242q-32 0 -60.5 -48.5t-28.5 -104.5q0 -27 12.5 -42t32.5 -15q33 0 60 39t27 112q0 28 -12 43.5t-31 15.5zM208 601q-32 0 -60.5 -49
t-28.5 -104q0 -57 46 -57q31 0 58.5 43t27.5 107q0 29 -12 44.5t-31 15.5z" />
    <glyph glyph-name="perthousand.tallfig" horiz-adv-x="853" 
d="M298 553l-16 -5q0 -85 -43 -142t-98 -57q-46 0 -75.5 38t-29.5 95q0 78 46 135.5t100 57.5q63 0 88 -62q7 -17 29 -27.5t49 -10.5q53 0 100 35q31 59 70 59q7 0 12 -7t5 -18q0 -29 -44 -59l-220 -307l-143 -215l-55 -82l-45 29l210 284l168 245l-11 8q-27 -16 -50 -16
q-25 0 -47 22zM291 119q0 79 46.5 136t100.5 57q44 0 72 -32.5t28 -89.5q0 -91 -42.5 -147t-96.5 -56q-48 0 -78 37.5t-30 94.5zM579 119q0 79 46 136t100 57q44 0 72 -33t28 -89q0 -91 -43 -147t-97 -56q-47 0 -76.5 37t-29.5 95zM462 242q-32 0 -60.5 -48.5t-28.5 -104.5
q0 -27 12.5 -42t32.5 -15q33 0 60 39t27 112q0 28 -12 43.5t-31 15.5zM749 242q-31 0 -60 -48.5t-29 -104.5q0 -28 12.5 -42.5t32.5 -14.5q32 0 59.5 39t27.5 112q0 28 -12 43.5t-31 15.5zM207 601q-32 0 -60.5 -49t-28.5 -104q0 -57 46 -57q31 0 58.5 43t27.5 107
q0 29 -12 44.5t-31 15.5z" />
    <glyph glyph-name="ordfeminine.tallfig" horiz-adv-x="385" 
d="M297 315l-58 15l-1 60q-90 -75 -132 -75q-64 0 -64 101q0 59 27.5 123.5t72.5 101.5q72 54 109 54q26 0 60 -21l27 23l60 -13l-65 -282q9 3 30 11t27 10l19 -35q-22 -14 -63.5 -41t-48.5 -32zM147 451q0 -43 21 -43q10 0 35.5 14t42.5 29l13 59q15 67 22 106
q-20 14 -36 14q-35 0 -66.5 -58t-31.5 -121z" />
    <glyph glyph-name="ordmasculine.tallfig" horiz-adv-x="356" 
d="M271 703q44 0 74 -27t30 -82q0 -141 -75 -210v1q-86 -70 -152 -70q-51 0 -78.5 31.5t-27.5 78.5q0 150 79 211q92 67 150 67zM147 465q0 -74 35 -74q29 0 50 31t29.5 67t8.5 68q0 36 -7 53t-25 17q-40 0 -65.5 -47.5t-25.5 -114.5z" />
    <glyph glyph-name="degree.tallfig" horiz-adv-x="367" 
d="M94 526q0 59 41 101t98 42t98.5 -42t41.5 -101q0 -58 -41.5 -100t-98.5 -42t-98 42t-41 100zM156 526q0 -33 21 -56.5t55 -23.5t55.5 23.5t21.5 56.5q0 34 -21.5 58.5t-55.5 24.5t-55 -24.5t-21 -58.5z" />
    <glyph glyph-name="zero.numr.tallfig" horiz-adv-x="333" 
d="M148 352q-127 0 -127 134q0 95 58 159.5t129 64.5q56 0 88 -34.5t32 -100.5q0 -94 -52.5 -158.5t-127.5 -64.5zM203 661q-40 0 -64.5 -65.5t-24.5 -123.5q0 -73 42 -73q32 0 56.5 60t24.5 128q0 74 -34 74z" />
    <glyph glyph-name="one.numr.tallfig" horiz-adv-x="261" 
d="M52 614l-3 43q90 29 123 53l54 -6l-54 -297q5 -1 17.5 -3t17.5 -3l27 -4l-7 -38h-217l6 39l65 9l40 220l-37 -8q-14 -2 -22 -4q-2 -1 -7 -1h-3z" />
    <glyph glyph-name="two.numr.tallfig" horiz-adv-x="287" 
d="M162 653q-58 0 -72 -65h-53l29 77l-2 -1q21 18 57.5 32t55.5 14q50 0 83 -25.5t33 -65.5q0 -35 -41 -76.5t-111 -92.5q-22 -16 -32 -23q0 -5 3 -8l82 6q8 1 22 2.5t25.5 2.5t21.5 1l-14 -72h-254v38q115 89 157.5 134t42.5 86q0 17 -9.5 26.5t-23.5 9.5z" />
    <glyph glyph-name="three.numr.tallfig" horiz-adv-x="287" 
d="M123 393q19 0 36 17.5t17 49.5q-1 26 -15 39.5t-28 14.5l-48 -11l-7 40q117 28 117 85q0 31 -37 31q-15 0 -26.5 -8t-16 -17t-9.5 -24v-1q-1 -1 -1 -2h-52l27 70l-2 -1q23 14 60 24t59 10q44 0 70 -19.5t26 -50.5q0 -26 -19.5 -45t-61.5 -43l2 -6q23 -12 41 -34t18 -46
q0 -48 -48.5 -81t-108.5 -33q-65 0 -106 24l-6 89h49q19 -72 70 -72z" />
    <glyph glyph-name="four.numr.tallfig" horiz-adv-x="322" 
d="M151 405l10 59h-131l-11 29q38 53 100 114.5t119 103.5q11 -2 29.5 -6.5t24.5 -5.5q-2 -13 -8.5 -40.5t-8.5 -40.5l-9 -51q-7 -32 -11 -59h57l-8 -43h-57l-10 -59q5 0 17 -2.5t17 -3.5l16 -2l-6 -39h-186l6 38zM95 508h74l19 103q-73 -62 -98 -98z" />
    <glyph glyph-name="five.numr.tallfig" horiz-adv-x="285" 
d="M94 352q-36 0 -72 16q-3 2 -8 4t-7 3q0 14 0.5 43t0.5 44h47q4 -21 8 -32.5t16.5 -21.5t32.5 -10q25 0 48 23.5t23 62.5q0 47 -33 47q-32 0 -68 -26l-44 17l56 181h124l78 7l-22 -78l-58 3h-90l-21 -70q41 13 65 13q44 0 74.5 -22t30.5 -60q0 -29 -17 -58.5t-43 -45.5
q-67 -40 -121 -40z" />
    <glyph glyph-name="six.numr.tallfig" horiz-adv-x="304" 
d="M14 453q0 93 80 168t213 108l3 -44q-72 -27 -110.5 -54.5t-65.5 -72.5q44 20 67 20q35 0 63 -21.5t29 -62.5q0 -64 -38 -92q-73 -50 -127 -50q-53 0 -83.5 25.5t-30.5 75.5zM313 686l-3 -2v1q2 0 3 1zM168 530q-29 0 -58 -29q1 -1 1 -5l1 1q-2 -3 -2 -5q-6 -19 -5 -35
q1 -27 13 -42t30 -15q25 0 39.5 23t13.5 56q-1 25 -10 38t-23 13z" />
    <glyph glyph-name="seven.numr.tallfig" horiz-adv-x="268" 
d="M293 703l8 -52q-126 -141 -164 -272q-11 -24 -61 -24q-23 0 -33.5 5t-4.5 18q75 156 175 245q-3 3 -3 8h-101q-13 0 -34 -40h-42l39 115l68 -3h153z" />
    <glyph glyph-name="eight.numr.tallfig" horiz-adv-x="303" 
d="M12 435q0 53 81 92l-2 4h-2v1q-35 27 -35 65q0 47 39.5 80t99.5 33q48 0 76.5 -21t29.5 -55q0 -47 -68 -83l-1 -4q56 -31 57 -77q0 -45 -42.5 -81.5t-115.5 -36.5q-48 0 -82 22.5t-35 60.5zM198 451q0 35 -71 61q-41 -34 -41 -71q0 -47 53 -47q24 0 41.5 16t17.5 41z
M182 666q-20 0 -31 -11.5t-11 -30.5q0 -31 49 -57q32 27 32 61q0 38 -39 38z" />
    <glyph glyph-name="nine.numr.tallfig" horiz-adv-x="304" 
d="M10 378l3 2v-1q71 24 108.5 49.5t68.5 71.5q-43 -18 -68 -18q-38 0 -66 21t-28 64q0 60 39 89q65 54 127 54q52 0 83 -27t31 -75q0 -52 -32.5 -108.5t-81.5 -91.5q-65 -40 -181 -69v40q-1 -1 -3 -1zM154 528q28 0 58 27h-2q5 16 5 46q0 28 -11.5 45t-29.5 17
q-23 0 -38 -23t-15 -58q0 -54 33 -54z" />
    <glyph glyph-name="zero.dnom.tallfig" horiz-adv-x="333" 
d="M148 -6q-127 0 -127 134q0 95 58 159.5t129 64.5q56 0 88 -34.5t32 -100.5q0 -94 -52.5 -158.5t-127.5 -64.5zM203 303q-40 0 -64.5 -65.5t-24.5 -123.5q0 -73 42 -73q32 0 56.5 60t24.5 128q0 74 -34 74z" />
    <glyph glyph-name="one.dnom.tallfig" horiz-adv-x="261" 
d="M52 256l-3 43q86 27 123 53l54 -6l-54 -297q5 -1 17.5 -3t17.5 -3l27 -4l-7 -38h-217l6 39l65 9l40 220l-37 -8q-14 -2 -22 -4q-2 -1 -7 -1h-3z" />
    <glyph glyph-name="two.dnom.tallfig" horiz-adv-x="287" 
d="M162 295q-58 0 -72 -65h-53l29 77l-2 -1q21 19 57.5 32.5t55.5 13.5q50 0 83 -25.5t33 -65.5q0 -58 -152 -169q-22 -15 -32 -22q0 -5 3 -9l82 7q8 1 22 2.5t25.5 2.5t21.5 1l-14 -73h-254v38q114 88 157 134t43 86q0 17 -9.5 26.5t-23.5 9.5z" />
    <glyph glyph-name="three.dnom.tallfig" horiz-adv-x="287" 
d="M123 35q19 0 36 17.5t17 49.5q-1 26 -15 39.5t-28 14.5l-48 -11l-7 40q117 29 117 85q0 31 -37 31q-15 0 -26.5 -8t-16 -17t-9.5 -24v-1q-1 -1 -1 -2h-52l27 71l-2 -1q23 13 60 23t59 10q44 0 70 -19.5t26 -50.5q0 -26 -20 -45t-61 -42l2 -7q23 -12 41 -34t18 -46
q0 -48 -48.5 -81t-108.5 -33q-65 0 -106 24l-6 89h49q19 -72 70 -72z" />
    <glyph glyph-name="four.dnom.tallfig" horiz-adv-x="322" 
d="M151 47l10 59h-131l-11 29q38 53 100 114t119 104q10 -1 27 -5t27 -6q-3 -15 -9 -42t-8 -40l-9 -50l-11 -60h57l-8 -43h-57l-10 -59q5 0 17 -3t17 -3l16 -2l-6 -39h-186l6 38zM95 150h74l19 103q-73 -62 -98 -98z" />
    <glyph glyph-name="five.dnom.tallfig" horiz-adv-x="285" 
d="M94 -6q-36 0 -72 16q-3 1 -8 3t-7 4q0 15 0.5 44t0.5 43h47q4 -20 8 -32t16.5 -22t32.5 -10q25 0 48 24t23 62q0 47 -33 47q-32 0 -68 -26l-44 17l56 181h124l78 7l-22 -78l-58 3h-90l-21 -69q38 12 65 12q44 0 74.5 -21.5t30.5 -60.5q0 -29 -17 -58.5t-43 -45.5
q-67 -40 -121 -40z" />
    <glyph glyph-name="six.dnom.tallfig" horiz-adv-x="304" 
d="M14 95q0 93 80 168.5t213 107.5l3 -43q-72 -28 -110.5 -55.5t-65.5 -71.5q44 19 67 19q36 0 63.5 -21t28.5 -63q0 -63 -38 -92q-73 -50 -127 -50q-53 0 -83.5 25.5t-30.5 75.5zM313 329l-3 -2v1q2 0 3 1zM168 172q-29 0 -58 -29q1 -1 1 -5l1 1q-2 -3 -2 -5q-6 -19 -5 -35
q1 -27 13 -42t30 -15q25 0 39.5 23t13.5 56q-1 25 -10 38t-23 13z" />
    <glyph glyph-name="seven.dnom.tallfig" horiz-adv-x="268" 
d="M293 345l8 -52q-125 -138 -164 -272q-11 -24 -61 -24q-23 0 -33.5 5t-4.5 18q76 159 175 245q-3 3 -3 8h-101q-13 0 -34 -40h-42l39 115l68 -3h153z" />
    <glyph glyph-name="eight.dnom.tallfig" horiz-adv-x="303" 
d="M12 78q0 52 81 91l-2 4h-2v1q-35 29 -35 65q0 47 39.5 80t99.5 33q48 0 76.5 -20.5t29.5 -55.5q0 -47 -68 -82l-1 -5q56 -31 57 -77q0 -45 -42.5 -81.5t-115.5 -36.5q-48 0 -82 22.5t-35 61.5zM198 93q0 35 -71 61q-41 -34 -41 -70q0 -48 53 -48q24 0 41.5 16t17.5 41z
M182 308q-20 0 -31 -11.5t-11 -30.5q0 -32 49 -56q32 25 32 60q0 38 -39 38z" />
    <glyph glyph-name="nine.dnom.tallfig" horiz-adv-x="304" 
d="M10 20l3 2v-1q71 24 108.5 50t68.5 71q-43 -18 -68 -18q-38 0 -66 21t-28 65q0 59 39 88q63 54 127 54q52 0 83 -27t31 -75q0 -52 -32.5 -108.5t-81.5 -91.5q-65 -40 -181 -69v40q-1 -1 -3 -1zM154 170q28 0 58 28h-2q5 16 5 45q0 28 -11.5 45t-29.5 17q-23 0 -38 -23
t-15 -58q0 -54 33 -54z" />
    <glyph glyph-name="uni2032.tallfig" horiz-adv-x="290" 
d="M135 462l71 266q22 -7 61.5 -22t51.5 -19l-114 -250z" />
    <glyph glyph-name="uni2033.tallfig" horiz-adv-x="480" 
d="M134 462l71 266q22 -7 61.5 -22t51.5 -19l-114 -250zM326 462l70 266q24 -8 113 -41l-114 -250z" />
    <glyph glyph-name="dotaccentlow" horiz-adv-x="500" 
d="M153 -155q0 37 23 67t57 30q25 0 40 -21t15 -51q0 -37 -23 -64.5t-53 -27.5q-26 0 -42.5 20t-16.5 47z" />
    <glyph glyph-name="acute.lchigh" horiz-adv-x="500" 
d="M191 502v16l-2 -1l86 119h117v-18q-26 -23 -76.5 -64.5t-61.5 -51.5h-63z" />
    <glyph glyph-name="twosevenths" 
d="M42 -18l323 372l297 352l44 -40l-310 -351l-309 -373zM191 640q-59 0 -73 -65h-52l28 77l-2 -1q21 18 57.5 31.5t56.5 13.5q50 0 83 -25t33 -65q0 -35 -41 -76t-112 -94q-22 -15 -32 -22q0 -5 3 -8l82 6l69 6l-14 -72h-254v38q115 89 157.5 134t42.5 86q0 17 -9.5 26.5
t-22.5 9.5zM698 326l8 -52q-125 -138 -165 -272q-11 -24 -61 -24q-23 0 -33 5t-4 18q73 155 174 245q-3 3 -3 8h-101q-13 0 -34 -40h-42l39 115l68 -3h154z" />
    <glyph glyph-name="twoninths" 
d="M412 1l3 2v-1q71 24 108.5 49.5t69.5 71.5q-44 -18 -69 -18q-38 0 -66 21t-28 64q0 60 39 89q65 54 127 54q52 0 83.5 -27t31.5 -75q0 -51 -33 -108t-82 -92q-65 -40 -181 -69v40q-1 -1 -3 -1zM42 -18l323 372l297 352l44 -40l-310 -351l-309 -373zM191 640
q-59 0 -73 -65h-52l28 77l-2 -1q21 18 57.5 31.5t56.5 13.5q50 0 83 -25t33 -65q0 -35 -41 -76t-112 -94q-22 -15 -32 -22q0 -5 3 -8l82 6l69 6l-14 -72h-254v38q115 89 157.5 134t42.5 86q0 17 -9.5 26.5t-22.5 9.5zM556 151q28 0 58 27h-2q5 17 5 46q0 28 -11 45t-29 17
q-24 0 -39 -23t-15 -58q0 -54 33 -54z" />
    <glyph glyph-name="threesevenths" 
d="M43 -18l323 372l297 352l44 -40l-310 -351l-309 -373zM172 380q20 0 37 17.5t17 49.5q-1 26 -15 39.5t-29 14.5l-48 -11l-7 40q117 27 117 85q0 31 -36 31q-16 0 -27 -8t-16 -17t-10 -24q0 -1 -1 -3h-51l26 70l-2 -1q23 13 60.5 23t58.5 10q44 0 70.5 -19.5t26.5 -49.5
q0 -26 -20.5 -45.5t-61.5 -42.5l2 -6q24 -12 42 -34t18 -46q0 -48 -49 -81t-109 -33q-63 0 -106 24l-6 89h50q5 -20 11 -33.5t21 -26t37 -12.5zM699 326l8 -52q-125 -138 -165 -272q-10 -24 -61 -24q-23 0 -33 5t-4 18q73 155 174 245q-3 3 -3 8h-101q-13 0 -34 -40h-42
l39 115l68 -3h154z" />
    <glyph glyph-name="foursevenths" 
d="M42 -18l323 372l297 352l44 -40l-310 -351l-309 -373zM143 392l10 59h-131l-11 29q38 53 100.5 114.5t118.5 102.5q10 -1 27 -5.5t27 -5.5q-2 -13 -8 -40t-9 -41l-9 -51q-7 -32 -11 -59h57l-8 -43h-57l-10 -59q5 -1 17 -3t17 -3l16 -2l-6 -39h-186l6 38zM87 495h74
l19 103q-77 -68 -98 -98zM698 326l8 -52q-125 -138 -165 -272q-11 -24 -61 -24q-23 0 -33 5t-4 18q73 155 174 245q-3 3 -3 8h-101q-13 0 -34 -40h-42l39 115l68 -3h154z" />
    <glyph glyph-name="fourninths" 
d="M412 1l3 2v-1q71 24 108.5 49.5t69.5 71.5q-44 -18 -69 -18q-38 0 -66 21t-28 64q0 60 39 89q65 54 127 54q52 0 83.5 -27t31.5 -75q0 -51 -33 -108t-82 -92q-65 -40 -181 -69v40q-1 -1 -3 -1zM143 392l10 59h-131l-11 29q38 53 100.5 114.5t118.5 102.5q10 -1 27 -5.5
t27 -5.5q-2 -13 -8 -40t-9 -41l-9 -51q-7 -32 -11 -59h57l-8 -43h-57l-10 -59q5 -1 17 -3t17 -3l16 -2l-6 -39h-186l6 38zM42 -18l323 372l297 352l44 -40l-310 -351l-309 -373zM556 151q28 0 58 27h-2q5 17 5 46q0 28 -11 45t-29 17q-24 0 -39 -23t-15 -58q0 -54 33 -54z
M87 495h74l19 103q-77 -68 -98 -98z" />
    <glyph glyph-name="fivesevenths" 
d="M43 -18l323 372l297 352l44 -40l-310 -351l-309 -373zM144 339q-35 0 -71 16q-3 2 -8 4t-8 3q0 14 0.5 43t0.5 44h48q3 -16 5.5 -25t8.5 -19.5t16.5 -15t25.5 -4.5q26 0 49 23.5t23 62.5q0 47 -33 47t-69 -26l-43 17l55 180h124l79 7l-22 -77l-59 3h-90l-21 -70
q38 12 66 12q44 0 74.5 -21.5t30.5 -59.5q0 -30 -17.5 -59t-43.5 -45q-65 -40 -121 -40zM699 326l8 -52q-125 -138 -165 -272q-10 -24 -61 -24q-23 0 -33 5t-4 18q73 155 174 245q-3 3 -3 8h-101q-13 0 -34 -40h-42l39 115l68 -3h154z" />
    <glyph glyph-name="fiveninths" 
d="M413 1l3 2v-1q71 24 108.5 49.5t69.5 71.5q-44 -18 -69 -18q-38 0 -66 21t-28 64q0 60 39 89q65 54 127 54q52 0 83.5 -27t31.5 -75q0 -51 -33 -108t-82 -92q-65 -40 -181 -69v40q-1 -1 -3 -1zM43 -18l323 372l297 352l44 -40l-310 -351l-309 -373zM144 339q-35 0 -71 16
q-3 2 -8 4t-8 3q0 14 0.5 43t0.5 44h48q3 -16 5.5 -25t8.5 -19.5t16.5 -15t25.5 -4.5q26 0 49 23.5t23 62.5q0 47 -33 47t-69 -26l-43 17l55 180h124l79 7l-22 -77l-59 3h-90l-21 -70q38 12 66 12q44 0 74.5 -21.5t30.5 -59.5q0 -30 -17.5 -59t-43.5 -45q-65 -40 -121 -40z
M557 151q28 0 58 27h-2q5 17 5 46q0 28 -11 45t-29 17q-24 0 -39 -23t-15 -58q0 -54 33 -54z" />
    <glyph glyph-name="sixsevenths" 
d="M43 -18l323 372l297 352l44 -40l-310 -351l-309 -373zM47 439q0 93 80.5 168.5t213.5 108.5l3 -44q-73 -27 -111 -54.5t-66 -72.5q45 19 67 19q36 0 64 -21t29 -62q0 -64 -39 -92q-73 -50 -127 -50q-53 0 -83.5 25.5t-30.5 74.5zM347 673l-3 -2v1q2 0 3 1zM202 517
q-30 0 -59 -29q1 -1 1 -5l1 1q-2 -3 -2 -5q-6 -19 -5 -36q1 -26 13 -41t30 -15q25 0 39.5 22.5t13.5 56.5q-1 51 -32 51zM699 326l8 -52q-125 -138 -165 -272q-10 -24 -61 -24q-23 0 -33 5t-4 18q73 155 174 245q-3 3 -3 8h-101q-13 0 -34 -40h-42l39 115l68 -3h154z" />
    <glyph glyph-name="sevenninths" 
d="M413 1l3 2v-1q71 24 108.5 49.5t69.5 71.5q-44 -18 -69 -18q-38 0 -66 21t-28 64q0 60 39 89q65 54 127 54q52 0 83.5 -27t31.5 -75q0 -51 -33 -108t-82 -92q-65 -40 -181 -69v40q-1 -1 -3 -1zM43 -18l323 372l297 352l44 -40l-310 -351l-309 -373zM376 689l8 -51
q-125 -138 -164 -272q-10 -24 -62 -24q-23 0 -33 5t-4 18q72 153 174 245q-3 3 -3 8h-100q-14 0 -35 -40h-41l38 114l69 -3h153zM557 151q28 0 58 27h-2q5 17 5 46q0 28 -11 45t-29 17q-24 0 -39 -23t-15 -58q0 -54 33 -54z" />
    <glyph glyph-name="eightninths" 
d="M45 422q0 31 21.5 52t59.5 40l-2 4h-2v1q-34 26 -34 65q0 47 39 79.5t99 32.5q48 0 77 -20.5t30 -54.5q0 -21 -18 -43.5t-51 -39.5l-1 -4q57 -32 58 -77q0 -44 -43 -81t-116 -37q-48 0 -82 22.5t-35 60.5zM413 1l3 2v-1q71 24 108.5 49.5t69.5 71.5q-44 -18 -69 -18
q-38 0 -66 21t-28 64q0 60 39 89q65 54 127 54q52 0 83.5 -27t31.5 -75q0 -51 -33 -108t-82 -92q-65 -40 -181 -69v40q-1 -1 -3 -1zM43 -18l323 372l297 352l44 -40l-310 -351l-309 -373zM557 151q28 0 58 27h-2q5 17 5 46q0 28 -11 45t-29 17q-24 0 -39 -23t-15 -58
q0 -54 33 -54zM231 437q0 37 -71 62q-41 -34 -41 -71q0 -47 53 -47q24 0 41.5 16t17.5 40zM216 653q-20 0 -31.5 -11.5t-11.5 -30.5q0 -33 50 -57q31 27 31 61q0 38 -38 38z" />
    <glyph glyph-name="Cacute.plk" horiz-adv-x="654" 
d="M370 68q64 0 116 22l86 110h51l-64 -178l4 1q-110 -34 -214 -34q-138 0 -222 68.5t-84 192.5q0 125 61.5 223.5t161 150t217.5 51.5q45 0 99.5 -15t88.5 -37l-24 -190h-56l-19 115q-53 49 -127 49q-91 0 -165 -87.5t-74 -228.5q0 -107 50.5 -160t113.5 -53zM446 727v16
l-1 -1l60 119h92v-18l-93 -116h-58z" />
    <glyph glyph-name="Nacute.plk" horiz-adv-x="755" 
d="M555 230h23l33 200l22 150q-12 2 -40.5 7.5t-42.5 7.5l12 69h246l-12 -69l-76 -15l-33 -155q-12 -71 -37 -212.5t-37 -212.5h-91l-287 452h-21l-34 -199l-24 -168q13 -2 41 -7.5t41 -7.5l-12 -70h-243l12 70l75 15l33 165l57 328q-13 2 -39.5 7.5t-38.5 7.5l13 71h194z
M420 727v16l-1 -1l61 119h92v-18l-93 -116h-59z" />
    <glyph glyph-name="Oacute.plk" horiz-adv-x="785" 
d="M42 258q0 91 38.5 171t100 133t137 83t150.5 30q142 0 226.5 -72t84.5 -198q0 -120 -63 -216.5t-162.5 -148t-211.5 -51.5q-133 0 -216.5 72.5t-83.5 196.5zM447 597q-113 0 -178 -97t-65 -228q0 -98 48 -150t123 -52q41 0 81.5 17.5t77.5 53.5t60 100.5t23 148.5
q0 102 -49.5 154.5t-120.5 52.5zM447 727v16l-1 -1l60 119h92v-18l-93 -116h-58z" />
    <glyph glyph-name="Sacute.plk" horiz-adv-x="543" 
d="M24 35l18 175h55q12 -127 136 -127q46 0 80.5 26.5t34.5 71.5q0 24 -18 45.5t-37.5 33.5t-55.5 31q-33 17 -54 30.5t-46 35.5t-37.5 51t-12.5 65q0 63 43 110.5t102 69.5t120 22q123 0 178 -39q-3 -28 -10 -84t-10 -84h-53q-7 59 -37.5 89.5t-75.5 30.5
q-48 0 -77.5 -24.5t-29.5 -62.5q0 -34 29 -58t83 -49q33 -16 54.5 -29t47.5 -35.5t39.5 -52t13.5 -66.5q0 -90 -82.5 -156t-215.5 -66q-47 0 -104.5 13.5t-77.5 32.5zM342 727v16l-1 -1l60 119h92v-18l1 1l-94 -117h-58z" />
    <glyph glyph-name="Zacute.plk" horiz-adv-x="633" 
d="M546 -5l-266 5h-280q-2 5 -5.5 16t-5.5 16l477 489l-5 16h-246q-9 -16 -30 -52t-31 -55h-49q9 42 27 121.5t26 116.5l165 -4h359l11 -19l-493 -504l2 -14h287l70 109h49zM386 727v16l-1 -1l61 119h91v-18l1 1l-93 -117h-59z" />
    <glyph glyph-name="cacute.plk" horiz-adv-x="399" 
d="M304 515q36 0 62 -23.5t39 -58.5v-29l1 1l-47 -72h-37q-7 90 -58 90q-50 0 -83 -76.5t-33 -172.5q0 -50 15 -70t45 -20q56 0 112 54l33 -42q-103 -103 -198 -103q-61 0 -99 38.5t-38 109.5q0 94 29 167t80 112q113 95 177 95zM269 561v16q17 44 62 154h99v-18l1 1
l-103 -153h-59z" />
    <glyph glyph-name="nacute.plk" horiz-adv-x="545" 
d="M386 -6l-88 28q0 7 0.5 28.5t0.5 28.5l65 268q4 23 -2.5 36.5t-20.5 13.5q-42 0 -102 -39q-20 -104 -69 -330q-9 -4 -27.5 -13t-25.5 -12h-79l80 397l-83 -32l-18 53l142 89q15 -2 43.5 -8t43.5 -9l-3 -60h22q37 26 59 40.5t53.5 28t55.5 13.5q36 0 54 -16t18 -59
q0 -34 -12 -85l-61 -246q2 1 75 26l22 -46zM311 561v16l62 154h100v-18l1 1l-104 -153h-59z" />
    <glyph glyph-name="oacute.plk" horiz-adv-x="469" 
d="M317 515q57 0 95.5 -36t38.5 -111q0 -85 -24.5 -160.5t-71.5 -120.5v1q-114 -95 -201 -95q-65 0 -100.5 42t-35.5 105q0 90 25.5 165.5t76.5 119.5q51 39 106 64.5t91 25.5zM149 194q0 -102 51 -102q39 0 67.5 42.5t40 92.5t11.5 93q0 48 -10.5 72.5t-36.5 24.5
q-53 0 -88 -66t-35 -157zM280 561v16q10 27 32 79.5t30 74.5h99v-18l1 1l-103 -153h-59z" />
    <glyph glyph-name="sacute.plk" horiz-adv-x="370" 
d="M4 47v30l40 83h12q46 -58 117 -58q22 0 37.5 8.5t15.5 25.5t-12.5 28t-46.5 30q-2 1 -19 11q-87 49 -87 126q0 51 68.5 117.5t109.5 66.5q40 0 76 -14.5t53 -36.5l-1 1v-26l1 1l-41 -85h-17q-48 47 -102 47q-50 0 -50 -31q0 -19 56 -55l19 -12q49 -30 72 -60t23 -71
q0 -55 -68.5 -117.5t-132.5 -62.5q-36 0 -70 15t-54 40zM234 561v16q11 29 32.5 83t28.5 71h100v-18l1 1l-104 -153h-58z" />
    <glyph glyph-name="zacute.plk" horiz-adv-x="440" 
d="M48 -6l-64 49l201 225l83 91l-3 10l-131 20l-33 -78q-8 1 -21.5 4.5t-18.5 4.5l26 150l76 40l203 -33q7 5 21 18t20 19l58 -49l-186 -206l-95 -97l6 -13l140 -32l52 87l37 -9l-36 -168l-68 -33l-219 54zM264 561v16q17 44 62 154h99v-18l1 1l-103 -153h-59z" />
    </font>
</defs>
</svg>
