<?xml version="1.0" standalone="no"?>
<!DOCTYPE svg PUBLIC "-//W3C//DTD SVG 1.1//EN" "http://www.w3.org/Graphics/SVG/1.1/DTD/svg11.dtd" >
<svg xmlns="http://www.w3.org/2000/svg" xmlns:xlink="http://www.w3.org/1999/xlink" version="1.1">
<metadata>
Created by FontForge 20170731 at Sun Mar  3 17:31:51 2019
 By Aleksey,,,
Copyright 2018-2019 Matthew Butterick
</metadata>
<defs>
<font id="ValkyrieT4-Italic" horiz-adv-x="720" >
  <font-face 
    font-family="Valkyrie T4"
    font-weight="400"
    font-style="italic"
    font-stretch="normal"
    units-per-em="1000"
    panose-1="0 0 0 0 0 0 0 0 0 0"
    ascent="755"
    descent="-245"
    x-height="490"
    cap-height="663"
    bbox="-81 -253 1022 973"
    underline-thickness="50"
    underline-position="-175"
    slope="-17"
    unicode-range="U+000D-FB02"
  />
<missing-glyph horiz-adv-x="540" 
d="M20 0v700h500v-700h-500zM70 650v-600h400v600h-400zM201 137q0 20 13.5 34t33.5 14t34 -14t14 -34t-14 -33.5t-34 -13.5t-33.5 14t-13.5 33zM284 281v-16l-27 -23q-65 10 -65 50q0 22 21.5 48.5t47.5 46.5t47.5 44.5t21.5 43.5q0 27 -30.5 46t-59.5 19q-15 0 -28 -7
l-19 -43l-34 14q8 44 27 80q14 27 47 27q60 0 112 -32t52 -81q0 -32 -36.5 -69t-72.5 -68.5t-36 -49.5q0 -20 32 -30z" />
    <glyph glyph-name="uni2190" unicode="&#x3c;&#x2d;" horiz-adv-x="700" 
d="M74 272l237 264l61 -46l-163 -183h420v-84h-420l163 -183l-61 -47l-237 266v13z" />
    <glyph glyph-name="uni2192" unicode="&#x2d;&#x3e;" horiz-adv-x="700" 
d="M389 536l237 -264v-13l-237 -266l-61 47l163 183h-420v84h420l-163 183z" />
    <glyph glyph-name="fi" unicode="fi" horiz-adv-x="650" 
d="M-55 -146l102 27q72 285 93 518h-99l5 40l98 20l1 79q-3 42 38 94.5t89.5 86.5t71.5 34l52 -6l-1 -118h-39q-25 32 -63 47q-36 -31 -48.5 -78.5t-12.5 -136.5h111l-5 -62h-105q-47 -290 -108 -459t-131 -177h-49v91zM631 86l-153 -98l-68 31l2 52l86 343l-113 -53l-16 33
l139 96l79 -12l2 -49l-87 -359l116 43zM517 674q0 27 18.5 49t43.5 22q53 0 53 -63q0 -26 -18 -48t-42 -22q-26 0 -40.5 17t-14.5 45z" />
    <glyph glyph-name="fl" unicode="fl" horiz-adv-x="618" 
d="M-55 -146l102 27q72 285 93 518h-99l5 40l98 20l1 79q-3 42 38 94.5t89.5 86.5t71.5 34l52 -6l-1 -118h-39q-25 32 -63 47q-36 -31 -48.5 -78.5t-12.5 -136.5h111l-5 -62h-105q-47 -290 -108 -459t-131 -177h-49v91zM447 -16l-62 37l4 71l87 391l34 179l-101 20v27
l180 44l28 -31l-52 -225l-91 -433l108 38l13 -27z" />
    <glyph glyph-name="uni2190.circle" unicode="&#x28;&#x3c;&#x2d;&#x29;" horiz-adv-x="880" 
d="M399 536l-237 -264v-13l237 -266l61 47l-163 183h420v84h-420l163 183zM822 263q0 -157 -111.5 -268.5t-268.5 -111.5q-159 0 -271.5 111.5t-112.5 268.5q0 159 112.5 271t271.5 112q157 0 268.5 -112t111.5 -271z" />
    <glyph glyph-name="uni2192.circle" unicode="&#x28;&#x2d;&#x3e;&#x29;" horiz-adv-x="880" 
d="M718 272l-237 264l-61 -46l163 -183h-420v-84h420l-163 -183l61 -47l237 266v13zM58 263q0 159 111.5 271t268.5 112q159 0 271.5 -112t112.5 -271q0 -157 -112.5 -268.5t-271.5 -111.5q-157 0 -268.5 111.5t-111.5 268.5z" />
    <glyph glyph-name="uni2191.circle" unicode="&#x28;&#x2191;&#x29;" horiz-adv-x="880" 
d="M711 305l-264 237h-13l-266 -237l47 -61l183 163v-420h84v420l183 -163zM438 -118q-157 0 -268.5 111.5t-111.5 268.5q0 159 111.5 271.5t268.5 112.5q159 0 271.5 -112.5t112.5 -271.5q0 -157 -112.5 -268.5t-271.5 -111.5z" />
    <glyph glyph-name="uni2193.circle" unicode="&#x28;&#x2193;&#x29;" horiz-adv-x="880" 
d="M447 -14l264 237l-46 61l-183 -163v420h-84v-420l-183 163l-47 -61l266 -237h13zM438 646q159 0 271.5 -111.5t112.5 -268.5q0 -159 -112.5 -271.5t-271.5 -112.5q-157 0 -268.5 112.5t-111.5 271.5q0 157 111.5 268.5t268.5 111.5z" />
    <glyph glyph-name=".notdef" horiz-adv-x="540" 
d="M20 0v700h500v-700h-500zM70 650v-600h400v600h-400zM201 137q0 20 13.5 34t33.5 14t34 -14t14 -34t-14 -33.5t-34 -13.5t-33.5 14t-13.5 33zM284 281v-16l-27 -23q-65 10 -65 50q0 22 21.5 48.5t47.5 46.5t47.5 44.5t21.5 43.5q0 27 -30.5 46t-59.5 19q-15 0 -28 -7
l-19 -43l-34 14q8 44 27 80q14 27 47 27q60 0 112 -32t52 -81q0 -32 -36.5 -69t-72.5 -68.5t-36 -49.5q0 -20 32 -30z" />
    <glyph glyph-name=".null" horiz-adv-x="0" 
 />
    <glyph glyph-name="nonmarkingreturn" horiz-adv-x="333" 
 />
    <glyph glyph-name="NULL" horiz-adv-x="0" 
 />
    <glyph glyph-name="NULL" horiz-adv-x="0" 
 />
    <glyph glyph-name="CR" unicode="&#xd;" horiz-adv-x="210" 
 />
    <glyph glyph-name="space" unicode=" " horiz-adv-x="210" 
 />
    <glyph glyph-name="exclam" unicode="!" horiz-adv-x="333" 
d="M47 57q0 27 18.5 46t45.5 19t46 -19t19 -46t-19 -45.5t-46 -18.5t-45.5 18.5t-18.5 45.5zM296 700l20 -15l-157 -479l-40 4l66 460z" />
    <glyph glyph-name="quotedbl" unicode="&#x22;" horiz-adv-x="487" 
d="M167 417l36 307l92 -18l-84 -298zM346 417l36 307l92 -18l-84 -298z" />
    <glyph glyph-name="numbersign" unicode="#" horiz-adv-x="510" 
d="M87 490l97 -14l41 198l53 -7l-41 -198l95 -13l45 218l53 -7l-45 -218l104 -14l-7 -60l-110 15l-33 -162l91 -12l-7 -60l-97 13l-42 -203l-53 6l42 204l-95 13l-46 -223l-53 6l46 224l-104 15l7 60l110 -15l33 161l-91 13zM224 410l-33 -161l95 -13l33 161z" />
    <glyph glyph-name="dollar" unicode="$" horiz-adv-x="546" 
d="M34 25l17 171h53q-1 -83 26 -117.5t84 -35.5l42 234l-1 1q-36 13 -61.5 26.5t-50 35t-33.5 54t-2 73.5q13 77 74 121t137 51l18 99h42l-18 -99q62 -2 143 -28l-22 -156h-42q-5 120 -88 131l-39 -222q39 -15 65 -29.5t51 -36.5t34 -52.5t3 -69.5q-13 -70 -71.5 -123.5
t-147.5 -61.5l-19 -109h-42l19 107q-53 1 -102 12t-69 24zM369 155q11 67 -74 107l-38 -216q45 9 74.5 37t37.5 72zM204 479q-10 -61 70 -99l36 205q-43 -5 -70.5 -33.5t-35.5 -72.5z" />
    <glyph glyph-name="percent" unicode="%" horiz-adv-x="556" 
d="M295 517l-3 -1q-1 -82 -44 -135.5t-100 -53.5q-48 0 -78 36t-30 91q0 74 47 129t101 55q34 0 59.5 -18.5t36.5 -51.5q6 -15 25 -24.5t42 -9.5q48 0 84 31q24 67 55 67q24 0 24 -23q0 -30 -44 -61l-210 -286l-197 -282l-33 26l205 275l159 227l-2 2q-21 -12 -48 -12
q-30 0 -49 19zM264 115q0 74 47 129t101 55q46 0 75 -32t29 -86q0 -86 -44 -139.5t-98 -53.5q-49 0 -79.5 36t-30.5 91zM429 254q-33 0 -62 -52.5t-29 -113.5q0 -28 11.5 -43.5t29.5 -15.5q34 0 62 41.5t28 120.5q0 30 -11.5 46.5t-28.5 16.5zM205 593q-33 0 -62 -52.5
t-29 -113.5q0 -59 43 -59q33 0 60.5 42.5t27.5 119.5q0 30 -11.5 46.5t-28.5 16.5z" />
    <glyph glyph-name="ampersand" unicode="&#x26;" horiz-adv-x="736" 
d="M217 392v8q-18 16 -29.5 39t-11.5 43q0 72 78 132t147 60q46 0 74.5 -8.5t25.5 -28.5q-8 -51 -19 -84l-32 -1q4 25 -21.5 39.5t-61.5 14.5q-51 0 -75.5 -29t-24.5 -76q0 -74 102 -77l-15 -52q-118 3 -171 -46.5t-53 -119.5q0 -61 47.5 -108.5t132.5 -47.5
q59 0 111.5 16.5t91 56.5t38.5 97q0 27 -21 45.5t-57 21.5q-160 -41 -103 -118l-11 -24q-55 14 -55 80q0 52 42 83t154 51q81 15 130.5 32.5t65 32t12.5 27.5l-3 3q-18 -16 -41 -16q-22 0 -40.5 14.5t-18.5 37.5q0 21 15.5 37t42.5 16q35 0 59.5 -24.5t24.5 -67.5
q0 -54 -40 -86t-134 -55q36 -35 36 -79q0 -89 -96.5 -166.5t-229.5 -77.5q-123 0 -184 57t-61 146q0 75 56 128t123 74z" />
    <glyph glyph-name="quotesingle" unicode="'" horiz-adv-x="308" 
d="M167 417l36 307l92 -18l-84 -298z" />
    <glyph glyph-name="parenleft" unicode="(" horiz-adv-x="352" 
d="M249 -208l-35 -34q-78 56 -116 124t-42 159q-1 101 21 222t58 216q64 160 252 268l23 -39q-145 -99 -196 -242q-48 -151 -78 -390q-21 -178 113 -284z" />
    <glyph glyph-name="parenright" unicode=")" horiz-adv-x="352" 
d="M103 713l35 34q78 -56 116 -124t42 -159q1 -101 -21 -222t-58 -216q-64 -160 -252 -268l-23 39q145 99 196 242q48 151 78 390q21 178 -113 284z" />
    <glyph glyph-name="asterisk" unicode="*" horiz-adv-x="476" 
d="M458 483l-128 41l51 -118q17 -40 -16 -58q-28 -15 -51 1q-15 11 -13 31l-8 139l-116 -84q-27 -18 -47 7q-20 24 -4 48q10 15 32 21l119 40l-110 90q-26 20 -9 46q15 23 41 18q17 -3 28 -20l77 -112l52 117q10 34 44 29q30 -5 39 -29q7 -20 -8 -39l-95 -94l122 2
q38 1 45 -29q7 -27 -14 -42q-13 -10 -31 -5z" />
    <glyph glyph-name="plus" unicode="+" horiz-adv-x="620" 
d="M570 230h-230v-230h-60v230h-230v60h230v230h60v-230h230v-60z" />
    <glyph glyph-name="comma" unicode="," horiz-adv-x="297" 
d="M-1 -200l-36 21l90 146l35 135l97 -34l-71 -132z" />
    <glyph glyph-name="hyphen" unicode="-" horiz-adv-x="335" 
d="M50 303l64 -3h109l77 3l-15 -83l-61 3h-126l-63 -3z" />
    <glyph glyph-name="period" unicode="." horiz-adv-x="253" 
d="M36 57q0 27 18.5 46t45.5 19t46 -19t19 -46t-19 -45.5t-46 -18.5t-45.5 18.5t-18.5 45.5z" />
    <glyph glyph-name="slash" unicode="/" horiz-adv-x="460" 
d="M503 734l-450 -856h-68l450 856h68z" />
    <glyph glyph-name="zero" unicode="0" horiz-adv-x="605" 
d="M47 211q0 113 42.5 211t117.5 157t164 59q88 0 140 -59.5t52 -173.5q0 -190 -92.5 -304t-214.5 -114q-95 0 -152 56.5t-57 167.5zM363 591q-83 0 -146.5 -121t-63.5 -277q0 -82 30.5 -120t81.5 -38q54 0 99 55.5t70 146.5t25 195q0 81 -26 120t-70 39z" />
    <glyph glyph-name="one" unicode="1" horiz-adv-x="475" 
d="M112 493l-6 53q161 45 217 88l48 -5l-100 -571l141 -15l-7 -43h-385l7 43l143 15l84 477q-118 -37 -142 -42z" />
    <glyph glyph-name="two" unicode="2" horiz-adv-x="521" 
d="M282 562q-38 0 -66 -11.5t-44 -31t-24 -38.5t-12 -40h-56l50 131q35 27 91 46.5t85 19.5q79 0 129 -42t50 -110q0 -44 -29.5 -94t-88.5 -105t-114 -99t-138 -104l5 -14l314 20l-16 -90h-423l-5 52q216 163 301 251.5t85 161.5q0 43 -28 70t-66 27z" />
    <glyph glyph-name="three" unicode="3" horiz-adv-x="521" 
d="M214 36q45 0 89.5 38t44.5 104q0 51 -38.5 82t-78.5 31h-7l-73 -10l-5 50q99 14 167.5 62.5t68.5 105.5q0 68 -93 68q-121 0 -135 -101h-51l46 116q35 22 91 39t84 17q77 0 121 -30.5t44 -79.5q0 -52 -47.5 -99t-109.5 -79l-2 -10q53 -11 89 -50t36 -90q0 -59 -41 -109.5
t-101.5 -77t-121.5 -26.5q-99 0 -171 43l-12 137h44q9 -30 17.5 -49t26 -40t47 -31.5t71.5 -10.5z" />
    <glyph glyph-name="four" unicode="4" horiz-adv-x="585" 
d="M287 58l25 141h-272l-12 37q73 102 190 217.5t225 192.5l41 -17l-31 -147l-40 -230h113l-9 -52h-113l-25 -142l103 -15l-7 -43h-295l7 43zM365 503l-11 6q-132 -101 -244 -247l4 -10h207z" />
    <glyph glyph-name="five" unicode="5" horiz-adv-x="518" 
d="M162 -13q-28 0 -52.5 4.5t-36 9t-33.5 15.5t-29 14l2 132h44q7 -37 16 -61t32.5 -43.5t58.5 -19.5q69 0 131 54.5t62 147.5q0 44 -20.5 69.5t-57.5 25.5q-84 0 -155 -61l-39 12l101 340h177l135 10l-33 -108l-101 5h-153l-52 -179l9 -5q23 15 65.5 30t65.5 15
q68 0 115 -38t47 -104q0 -48 -21.5 -93.5t-55.5 -71.5q-126 -100 -222 -100z" />
    <glyph glyph-name="six" unicode="6" horiz-adv-x="552" 
d="M185 341l4 -5q98 52 162 52q58 0 103 -36.5t45 -106.5q0 -40 -15.5 -89t-51.5 -76q-124 -93 -207 -93t-133 45.5t-50 129.5q0 102 53.5 202.5t144.5 167.5q112 78 287 129l7 -40q-151 -62 -222.5 -118t-126.5 -162zM300 328q-80 0 -143 -61q-14 -48 -14 -86
q0 -64 30.5 -102t81.5 -38q61 0 101 49.5t40 124.5q0 55 -27.5 84t-68.5 29z" />
    <glyph glyph-name="seven" unicode="7" horiz-adv-x="488" 
d="M522 626l20 -31q-131 -146 -209 -277t-125 -298q-2 -11 -22 -19t-52 -8q-29 0 -43 6.5t-6 21.5q62 129 127 231t105.5 150.5t110.5 124.5l-5 14l-226 1q-18 0 -33.5 -25t-34.5 -69q-3 -8 -5 -12h-51l74 195l117 -5h258z" />
    <glyph glyph-name="eight" unicode="8" horiz-adv-x="551" 
d="M28 134q0 60 42.5 107.5t100.5 75.5l2 9q-61 46 -61 113q0 82 67.5 140.5t156.5 58.5q79 0 125.5 -34.5t46.5 -90.5q0 -44 -34.5 -89t-84.5 -76l-1 -8q95 -51 95 -134q0 -80 -72.5 -149.5t-189.5 -69.5q-82 0 -137.5 40t-55.5 107zM215 303q-105 -61 -105 -164
q0 -47 32 -75t93 -28q67 0 114 37.5t47 94.5q0 47 -46 77.5t-135 57.5zM329 590q-49 0 -92 -29t-43 -76q0 -45 31.5 -72.5t113.5 -54.5q46 35 66.5 70t20.5 80q0 39 -25.5 60.5t-71.5 21.5z" />
    <glyph glyph-name="nine" unicode="9" horiz-adv-x="552" 
d="M376 290l-4 5q-98 -57 -163 -57q-58 0 -103 36.5t-45 106.5q0 40 16 89t52 76q121 92 207 92q83 0 132.5 -45t49.5 -129q0 -100 -56.5 -206.5t-144.5 -166.5q-111 -77 -283 -126l-3 45q149 62 219.5 117.5t125.5 162.5zM261 304q79 0 143 61q13 49 13 81q0 64 -31 101
t-81 37q-62 0 -101 -49t-39 -125q0 -52 27.5 -79t68.5 -27z" />
    <glyph glyph-name="colon" unicode=":" horiz-adv-x="333" 
d="M56 57q0 27 18.5 46t45.5 19t46 -19t19 -46t-19 -45.5t-46 -18.5t-45.5 18.5t-18.5 45.5zM114 368q0 27 18.5 46t45.5 19t46 -19t19 -46t-19 -45.5t-46 -18.5t-45.5 18.5t-18.5 45.5z" />
    <glyph glyph-name="semicolon" unicode=";" horiz-adv-x="337" 
d="M120 368q0 27 18.5 46t45.5 19t46 -19t19 -46t-19 -45.5t-46 -18.5t-45.5 18.5t-18.5 45.5zM-1 -200l-36 21l90 146l35 135l97 -34l-71 -132z" />
    <glyph glyph-name="less" unicode="&#x3c;" horiz-adv-x="594" 
d="M544 470l-428 -204l428 -204v-62l-494 235v62l494 235v-62z" />
    <glyph glyph-name="equal" unicode="=" horiz-adv-x="620" 
d="M570 310h-520v60h520v-60zM570 130h-520v60h520v-60z" />
    <glyph glyph-name="greater" unicode="&#x3e;" horiz-adv-x="594" 
d="M478 266l-428 204v62l494 -235v-62l-494 -235v62z" />
    <glyph glyph-name="question" unicode="?" horiz-adv-x="443" 
d="M224 254l-4 -21l-43 -22q-70 26 -73 71q-2 30 23 57.5t62 47.5l74 40t62.5 44.5t23.5 51.5q-2 35 -44.5 63.5t-74.5 25.5q-12 0 -16 -3l-43 -61l-40 29q48 118 104 122q4 1 24 -2q69 -15 123.5 -60t58.5 -99q2 -36 -23.5 -67.5t-63.5 -53.5t-76 -42t-64.5 -40.5
t-25.5 -40.5t36 -40zM64 57q0 27 18.5 46t45.5 19t46 -19t19 -46t-19 -45.5t-46 -18.5t-45.5 18.5t-18.5 45.5z" />
    <glyph glyph-name="at" unicode="@" horiz-adv-x="816" 
d="M699 390q0 35 -9 71.5t-29.5 75t-62.5 63t-99 24.5q-96 0 -181 -72.5t-133.5 -185.5t-48.5 -230q0 -118 43.5 -177t122.5 -59q89 0 167 63l21 -42q-44 -35 -97.5 -54.5t-99.5 -19.5q-114 0 -172.5 76t-58.5 214q0 92 35 187t93 171t141 124.5t171 48.5q123 0 195.5 -76.5
t72.5 -201.5q0 -84 -32.5 -154.5t-80 -111.5t-95.5 -63.5t-85 -22.5q-34 0 -37.5 34t22.5 93l-13 9q-19 -28 -34.5 -47t-38 -42.5t-47 -36t-48.5 -12.5q-29 0 -45 24.5t-16 56.5q0 82 59 183q46 77 106.5 128.5t115.5 51.5q29 0 42 -28h5q6 16 13.5 21.5t27.5 5.5t27 -4
t4 -12l-108 -331q-7 -31 13 -31q18 0 46 20t57 54t50 92t21 123zM300 150q0 -44 24 -44q34 0 93.5 79t102.5 182q9 70 -29 70q-33 0 -70.5 -34.5t-67.5 -87.5q-53 -94 -53 -165z" />
    <glyph glyph-name="A" unicode="A" horiz-adv-x="718" 
d="M486 57l-30 175h-231l-104 -175l83 -14l-7 -43h-221l8 43l69 14l372 606h49l114 -606l71 -14l-7 -43h-248l7 43zM394 517l-138 -233h191l-40 233h-13z" />
    <glyph glyph-name="B" unicode="B" horiz-adv-x="620" 
d="M313 0h-325l8 43l82 14l96 549l-77 14l7 43h305q78 0 121 -32t43 -94q0 -52 -36 -104t-103 -80l-2 -8q61 -10 95 -44.5t34 -87.5q0 -93 -72 -153t-176 -60zM181 52h115q86 1 121 48t35 105q0 53 -33 81.5t-84 28.5h-109zM279 611l-41 -239h101q63 0 96 44.5t33 99.5
q0 45 -23 70t-65 25h-101z" />
    <glyph glyph-name="C" unicode="C" horiz-adv-x="654" 
d="M360 41q64 0 121 21l88 120h40l-60 -154q-46 -15 -63.5 -20t-59.5 -12t-87 -7q-129 0 -208.5 70t-79.5 196q0 97 34.5 177.5t93 132.5t134.5 80.5t161 28.5q44 0 97.5 -12.5t85.5 -30.5l-18 -156h-41l-21 107q-33 45 -125 45q-34 0 -70 -10.5t-75 -37.5t-69.5 -67
t-50.5 -104.5t-20 -144.5q0 -63 18 -109t48.5 -69.5t61.5 -33.5t65 -10z" />
    <glyph glyph-name="D" unicode="D" horiz-adv-x="747" 
d="M299 0h-311l8 43l80 14l96 549l-75 14l7 43h361q123 0 191 -64t68 -179q0 -188 -122.5 -304t-302.5 -116zM180 52h123q124 0 217 99.5t93 262.5q0 197 -190 197h-145z" />
    <glyph glyph-name="E" unicode="E" horiz-adv-x="593" 
d="M180 50h261l66 121h41l-47 -176l-150 5h-363l8 43l82 14l96 549l-77 14l7 43h346l127 4l-16 -157h-36l-27 101l-218 1l-46 -256l179 6l37 95h38l-44 -242h-38l-2 95l-177 3z" />
    <glyph glyph-name="F" unicode="F" horiz-adv-x="534" 
d="M181 58l91 -15l-7 -43h-277l8 44l81 14l97 548l-77 14l7 43h333l127 4l-22 -157h-35l-17 102h-210l-47 -260l165 7l37 92h37l-43 -242h-37l-4 96l-162 4z" />
    <glyph glyph-name="G" unicode="G" horiz-adv-x="736" 
d="M374 41q79 0 133 41l28 159l-89 14l7 43h244l-7 -43l-57 -14l-33 -189q-119 -63 -250 -63q-128 0 -213.5 70t-85.5 194q0 103 39.5 186t103 133t137.5 76t149 26q101 0 211 -39l-14 -167h-45l-24 109q-50 50 -150 50q-53 0 -102.5 -20.5t-92 -62t-68.5 -113t-26 -164.5
q0 -62 18.5 -108t49.5 -70.5t65 -36t72 -11.5z" />
    <glyph glyph-name="H" unicode="H" horiz-adv-x="771" 
d="M544 663h265l-7 -43l-83 -14l-96 -549l77 -14l-7 -43h-265l7 43l84 14l46 265h-337l-46 -265l78 -14l-7 -43h-265l8 43l82 14l96 549l-77 14l7 43h265l-7 -43l-84 -14l-41 -232h337l41 232l-78 14z" />
    <glyph glyph-name="I" unicode="I" horiz-adv-x="369" 
d="M123 663h265l-7 -43l-83 -14l-96 -549l77 -14l-7 -43h-265l7 43l83 14l96 549l-77 14z" />
    <glyph glyph-name="J" unicode="J" horiz-adv-x="368" 
d="M99 15l104 591l-93 14l7 43h289l-7 -43l-92 -14l-96 -541q-8 -44 -18.5 -70t-33.5 -54q-100 -114 -162 -170l-36 40q65 68 100 113q27 33 38 91z" />
    <glyph glyph-name="K" unicode="K" horiz-adv-x="691" 
d="M278 606l-41 -233h35l253 224l-67 23l7 43h238l-7 -43l-93 -26l-259 -224l219 -313l65 -14l-7 -43h-263l7 43l75 14l-171 254h-43l-44 -254l77 -14l-7 -43h-264l8 43l82 14l96 549l-77 14l7 43h264l-7 -43z" />
    <glyph glyph-name="L" unicode="L" horiz-adv-x="552" 
d="M463 -5l-140 5h-335l8 43l82 14l96 549l-77 14l7 43h268l-7 -43l-87 -14l-98 -556h217l74 137h41z" />
    <glyph glyph-name="M" unicode="M" horiz-adv-x="911" 
d="M725 507h-12l-317 -516h-40l-125 517h-10l-96 -451l74 -14l-7 -43h-210l8 43l76 14l132 542l-90 20l7 44h185l120 -515h11l319 515h192l-7 -44l-95 -22l-76 -540l78 -14l-7 -43h-266l7 43l84 14z" />
    <glyph glyph-name="N" unicode="N" horiz-adv-x="755" 
d="M560 179h14l50 280l22 147l-75 14l7 43h215l-7 -43l-79 -14l-31 -152l-81 -456h-33l-340 513h-12l-52 -288l-24 -166l83 -14l-7 -43h-222l8 43l77 14l32 163l69 391l-77 9l7 43h144z" />
    <glyph glyph-name="O" unicode="O" horiz-adv-x="785" 
d="M51 256q0 81 29.5 156t82 133.5t132.5 93.5t173 35q133 0 212 -67.5t79 -185.5q0 -191 -126 -311.5t-307 -120.5q-122 0 -198.5 70.5t-76.5 196.5zM435 627q-81 0 -144 -54.5t-93.5 -133.5t-30.5 -165q0 -236 197 -236q36 0 73 11t75 38t67 66t47.5 101t18.5 137
q0 236 -210 236z" />
    <glyph glyph-name="P" unicode="P" horiz-adv-x="559" 
d="M263 272l8 40q78 0 133.5 53t55.5 139q0 105 -111 105h-71l-97 -552l88 -14l-7 -43h-274l8 43l81 14l96 549l-76 14l7 43h278q97 0 140 -35t43 -102q0 -114 -83.5 -184t-218.5 -70z" />
    <glyph glyph-name="Q" unicode="Q" horiz-adv-x="785" 
d="M51 256q0 81 29.5 156t82 133.5t132.5 93.5t173 35q133 0 212 -67.5t79 -185.5q0 -156 -86.5 -267t-223.5 -149q101 -94 201 -97l-9 -54q-91 0 -180.5 39.5t-158.5 96.5q-113 7 -182 76.5t-69 189.5zM435 627q-81 0 -144 -54.5t-93.5 -133.5t-30.5 -165q0 -207 149 -232
l70 34q4 -5 8.5 -10.5t10 -12t8.5 -10.5q43 9 82 33t74 64t55.5 105t20.5 146q0 236 -210 236z" />
    <glyph glyph-name="R" unicode="R" horiz-adv-x="674" 
d="M291 282h-70l-39 -225l87 -14l-7 -43h-274l8 43l82 14l96 549l-77 14l7 43h286q28 0 56.5 -6t58 -19t47.5 -39.5t18 -62.5q0 -64 -45 -130.5t-123 -100.5l-2 -11l160 -242l58 -29l-16 -37l-144 28zM278 606l-47 -268h85q60 0 99.5 44.5t39.5 127.5q0 96 -106 96h-71z" />
    <glyph glyph-name="S" unicode="S" horiz-adv-x="543" 
d="M39 27l18 180h54q0 -89 28 -125t91 -36t107.5 35.5t44.5 95.5q0 43 -27 67.5t-88 51.5q-38 17 -57 26.5t-45.5 30t-38.5 48.5t-12 65q0 52 22.5 93t58 65.5t76 37t81.5 12.5q70 0 168 -30l-24 -165h-43q-1 75 -29.5 107t-83.5 32q-54 0 -91.5 -36t-37.5 -93
q0 -36 28 -60.5t78 -45.5q32 -13 49 -21t42.5 -24.5t38.5 -32.5t23 -40.5t10 -54.5q0 -84 -72.5 -152.5t-183.5 -68.5q-56 0 -109.5 12t-75.5 26z" />
    <glyph glyph-name="T" unicode="T" horiz-adv-x="666" 
d="M120 667l156 -4h246l168 4l-21 -187h-47l-13 133h-162l-99 -561l82 -14l-6 -38h-272l6 38l87 14l99 561h-161l-59 -133h-47z" />
    <glyph glyph-name="U" unicode="U" horiz-adv-x="735" 
d="M554 663h220l-7 -43l-70 -14l-28 -112l-51 -283q-6 -37 -27.5 -74.5t-56.5 -71t-89.5 -55t-118.5 -21.5q-120 0 -179.5 62t-44.5 142l72 413l-77 14l7 43h265l-7 -43l-84 -14l-70 -395q-12 -67 26.5 -111.5t122.5 -44.5q77 0 136.5 48.5t75.5 137.5l46 258l11 107l-79 14
z" />
    <glyph glyph-name="V" unicode="V" horiz-adv-x="691" 
d="M357 145l247 456l-86 23l6 39h219l-6 -39l-63 -27l-49 -77l-289 -520h-62l-122 606l-69 14l7 43h245l-7 -43l-76 -14l92 -461h13z" />
    <glyph glyph-name="W" unicode="W" horiz-adv-x="970" 
d="M546 523h-8l-234 -523h-67l-85 606l-69 14l7 43h252l-7 -43l-76 -14l56 -438h12l224 500h68l66 -500h10l200 433l-96 23l6 39h217l-6 -39l-53 -27l-42 -75l-250 -522h-61z" />
    <glyph glyph-name="X" unicode="X" horiz-adv-x="683" 
d="M62 57l245 274l-131 275l-73 14l7 43h253l-7 -43l-71 -14l94 -195l174 195l-90 14l7 43h237l-7 -43l-83 -14l-215 -243l148 -306l76 -14l-7 -43h-257l7 43l69 14l-108 225l-200 -225l80 -14l-7 -43h-229l8 43z" />
    <glyph glyph-name="Y" unicode="Y" horiz-adv-x="647" 
d="M374 356h12q37 79 106.5 164.5t131.5 135.5q27 22 57 1q25 -17 16 -37q-4 -8 -15 -14q-139 -74 -273 -298l-46 -251l79 -14l-5 -43h-265l5 43l82 14l44 239q-18 81 -64 167t-99 130l-63 9l5 38l98 32q37 -6 69.5 -38t56.5 -81t40 -97t28 -100z" />
    <glyph glyph-name="Z" unicode="Z" horiz-adv-x="633" 
d="M528 -5l-253 5h-272l-11 34l513 529l-4 14h-307l-56 -99h-38l44 189l153 -4h351l12 -21l-529 -544l3 -12h352l60 103h37z" />
    <glyph glyph-name="bracketleft" unicode="[" horiz-adv-x="335" 
d="M374 737l-7 -45l-153 -15l-148 -841l147 -15l-8 -45h-228l169 961h228z" />
    <glyph glyph-name="backslash" unicode="\" horiz-adv-x="460" 
d="M340 -122l-260 856h66l260 -856h-66z" />
    <glyph glyph-name="bracketright" unicode="]" horiz-adv-x="335" 
d="M-39 -224l7 45l153 15l148 841l-147 15l8 45h228l-169 -961h-228z" />
    <glyph glyph-name="asciicircum" unicode="^" horiz-adv-x="540" 
d="M284 691l221 -377l-58 -33l-172 300h-8l-175 -300l-57 33l222 377h27z" />
    <glyph glyph-name="underscore" unicode="_" horiz-adv-x="604" 
d="M-53 -190h610v-42h-610v42z" />
    <glyph glyph-name="grave" unicode="`" horiz-adv-x="500" 
d="M296 506v-8h-44l-114 162v10h92z" />
    <glyph glyph-name="a" unicode="a" horiz-adv-x="507" 
d="M352 -12l-60 19l9 89l-9 5q-44 -42 -102.5 -77.5t-90.5 -35.5q-34 0 -51.5 33t-17.5 76q0 91 31.5 173.5t85.5 132.5q53 44 88.5 65.5t69.5 21.5q41 0 80 -33l29 32l49 -14l-83 -404l90 38l14 -27zM123 120q0 -58 36 -58q21 0 69 34.5t78 76.5l54 223q-30 44 -64 44
q-39 0 -80 -50t-67 -125t-26 -145z" />
    <glyph glyph-name="b" unicode="b" horiz-adv-x="495" 
d="M146 -16q-43 0 -66 27t-22.5 58.5t2.5 56.5l103 541l-89 15v27l169 44l28 -32l-70 -309l7 -5q121 88 183 88q74 0 74 -125q0 -98 -39.5 -182t-99.5 -126q-122 -78 -180 -78zM371 356q0 67 -30 67q-21 0 -66 -22.5t-86 -60.5l-40 -212q-6 -30 6 -51.5t46 -21.5
q62 0 116 84.5t54 216.5z" />
    <glyph glyph-name="c" unicode="c" horiz-adv-x="399" 
d="M291 495q33 0 62.5 -25t37.5 -62v-30l-47 -48h-31q0 58 -12.5 81.5t-40.5 23.5q-54 0 -96.5 -85.5t-42.5 -184.5q0 -108 67 -108q26 0 65.5 20t72.5 49l17 -38q-48 -44 -103 -72t-99 -28q-49 0 -80 40.5t-31 113.5q0 188 90 264q4 3 21 15.5t21 15.5t18.5 13t19.5 13
l17.5 10.5t19.5 9.5t17 6t19 5t18 1z" />
    <glyph glyph-name="d" unicode="d" horiz-adv-x="508" 
d="M351 -12l-64 24l9 65l-8 5q-52 -41 -106 -67.5t-83 -26.5q-33 0 -51 33.5t-18 75.5q0 183 104 300q93 93 164 93q18 0 78 -17l35 189l-93 14v28l170 49l29 -31l-141 -648l95 27l13 -27zM123 124q0 -29 9 -45t22 -16q21 0 64.5 21t82.5 56l62 281q-30 19 -69 19
q-45 0 -85.5 -49t-63 -122t-22.5 -145z" />
    <glyph glyph-name="e" unicode="e" horiz-adv-x="429" 
d="M407 413q0 -142 -281 -214q-2 -28 -2 -42q0 -59 17.5 -81t59.5 -22q26 0 71.5 21.5t89.5 65.5l27 -33q-48 -49 -113 -84.5t-124 -35.5q-56 0 -89 36t-33 102q0 94 34.5 175.5t89.5 123.5q39 30 83 50t74 20q96 0 96 -82zM275 441q-49 -1 -88 -60.5t-55 -140.5
q178 46 178 160q0 18 -9.5 29.5t-25.5 11.5z" />
    <glyph glyph-name="f" unicode="f" horiz-adv-x="340" 
d="M-55 -146l102 27q72 285 93 518h-99l5 40l98 20l1 79q-3 42 38 94.5t89.5 86.5t71.5 34l52 -6l-1 -118h-39q-25 32 -63 47q-36 -31 -48.5 -78.5t-12.5 -136.5h111l-5 -62h-105q-47 -290 -108 -459t-131 -177h-49v91z" />
    <glyph glyph-name="g" unicode="g" horiz-adv-x="471" 
d="M477 483v-71h-74q6 -12 6 -56q0 -71 -58.5 -129t-151.5 -64q-55 -75 10 -85q112 -18 155 -50.5t43 -85.5q0 -83 -77.5 -134t-183.5 -51q-87 0 -136 34.5t-49 88.5q0 97 144 148q-42 73 45 138q-45 11 -69 46.5t-24 74.5q0 90 64 146.5t145 56.5q80 0 122 -42l41 35h48z
M324 -77q0 38 -45 57t-134 26q-50 -17 -80 -48t-30 -73t33.5 -62.5t87.5 -20.5q69 0 118.5 33.5t49.5 87.5zM148 289q0 -86 58 -86q43 0 78 47.5t35 114.5q0 39 -17 60t-47 21q-41 0 -74 -48.5t-33 -108.5z" />
    <glyph glyph-name="h" unicode="h" horiz-adv-x="529" 
d="M364 -12l-63 34l6 68l66 276q12 53 -24 53q-22 0 -70.5 -27t-91.5 -64l-61 -303l-43 -25h-53l101 484l35 180l-91 14v26l179 49l23 -31l-60 -224l-22 -97l9 -5q139 99 219 99q68 0 32 -156l-62 -275l95 38l13 -23z" />
    <glyph glyph-name="i" unicode="i" horiz-adv-x="310" 
d="M291 86l-153 -98l-68 31l2 52l86 343l-113 -53l-16 33l139 96l79 -12l2 -49l-87 -359l116 43zM177 674q0 27 18.5 49t43.5 22q53 0 53 -63q0 -26 -18 -48t-42 -22q-26 0 -40.5 17t-14.5 45z" />
    <glyph glyph-name="j" unicode="j" horiz-adv-x="299" 
d="M177 490l76 -11l2 -52l-94 -465l-52 -108l-134 -96l-19 40l104 105l105 518l-111 -55l-18 34zM184 674q0 27 18.5 49t43.5 22q53 0 53 -63q0 -26 -18 -48t-42 -22q-26 0 -40.5 17t-14.5 45z" />
    <glyph glyph-name="k" unicode="k" horiz-adv-x="484" 
d="M437 364h-18l-32 33q-50 0 -125 -99l-1 -20l100 -203l90 44l20 -24l-126 -107l-57 32l-101 225h-22l-44 -230l-41 -15h-50l104 534l20 135l-84 15v25l165 44l25 -31l-51 -233l-35 -199h23q54 76 127.5 138t98.5 62l64 -45z" />
    <glyph glyph-name="l" unicode="l" horiz-adv-x="278" 
d="M107 -16l-62 37l4 71l87 391l34 179l-101 20v27l180 44l28 -31l-52 -225l-91 -433l108 38l13 -27z" />
    <glyph glyph-name="m" unicode="m" horiz-adv-x="800" 
d="M765 107l13 -24l-121 -95l-82 34l9 72l64 266q12 54 -19 54q-22 0 -67 -26.5t-90 -65.5l-67 -303l-38 -19h-59l76 341q18 78 -4 78q-23 0 -75 -24.5t-95 -56.5l-67 -316l-41 -22h-54l90 417l-100 -42l-16 31l127 84l77 -20l-13 -69l12 -5q63 47 128 73t96 26
q52 0 25 -104l9 -5q56 41 123.5 75t102.5 34q57 0 28 -129q-51 -200 -70 -301z" />
    <glyph glyph-name="n" unicode="n" horiz-adv-x="545" 
d="M379 -12l-58 30l6 57l66 291q9 53 -25 53q-21 0 -68.5 -24.5t-87.5 -56.5l-68 -322l-41 -16h-50l87 416l-104 -37l-14 28l134 83l68 -17l-8 -72h14q136 94 211 94q21 0 31.5 -12t13.5 -46.5t-12 -97.5l-60 -273l95 39l14 -26z" />
    <glyph glyph-name="o" unicode="o" horiz-adv-x="469" 
d="M316 495q51 0 87 -34t36 -99q0 -181 -77 -265q-116 -109 -207 -109q-61 0 -93 39.5t-32 98.5q0 192 83 275q54 41 109.5 67.5t93.5 26.5zM120 171q0 -58 18 -89.5t47 -31.5q52 0 91 46.5t55.5 105t16.5 113.5q0 114 -71 114q-62 0 -109.5 -74.5t-47.5 -183.5z" />
    <glyph glyph-name="p" unicode="p" horiz-adv-x="516" 
d="M154 490l59 -21l-6 -60l13 -6q118 87 196 87q34 0 52 -33.5t18 -76.5q0 -101 -27.5 -177.5t-70.5 -116.5q-45 -41 -90 -65.5t-73 -24.5q-35 0 -85 23l-43 -230l-40 -24h-55l44 203l89 452l-99 -43l-12 32zM393 337q0 40 -8.5 58t-28.5 18q-25 0 -66.5 -17t-82.5 -52
l-49 -244q3 -23 28.5 -36.5t49.5 -13.5q48 0 84.5 43.5t54.5 108t18 135.5z" />
    <glyph glyph-name="q" unicode="q" horiz-adv-x="478" 
d="M368 10l-38 -223l-48 -22h-49l46 203l15 85l-8 5q-137 -65 -171 -65q-43 0 -64 33t-21 76q0 190 97 280q112 108 184 108q25 0 85 -28l41 22l34 -14l-46 -167zM125 128q0 -68 46 -68q21 0 57 14.5t72 43.5l57 288q-32 30 -68 30q-50 0 -88.5 -48.5t-57 -117.5t-18.5 -142
z" />
    <glyph glyph-name="r" unicode="r" horiz-adv-x="379" 
d="M154 490l63 -27l-16 -74l12 -5q38 52 70 79t70 27q25 0 39 -10l-27 -128h-36l-21 43q-29 -4 -61 -29.5t-52 -66.5l-61 -279l-33 -20h-62l92 413l-92 -45l-17 34z" />
    <glyph glyph-name="s" unicode="s" horiz-adv-x="370" 
d="M7 49v30l40 56h15q41 -83 104 -83q29 0 50.5 17t21.5 53q0 19 -12 36t-22.5 25t-35.5 26q-4 3 -17 11.5t-18 12t-16 12t-15.5 13.5t-12 14t-10.5 17t-5.5 18.5t-2.5 22.5q0 46 63 105.5t102 59.5q38 0 72.5 -15t49.5 -37v-25l-42 -58h-26q-11 33 -28 47.5t-52 14.5
q-33 0 -48.5 -18.5t-15.5 -43.5q0 -14 9.5 -27.5t18.5 -20.5t32.5 -22t32.5 -21q38 -27 59 -53.5t21 -63.5q0 -52 -63.5 -108t-130.5 -56q-34 0 -66.5 16.5t-51.5 44.5z" />
    <glyph glyph-name="t" unicode="t" horiz-adv-x="338" 
d="M145 -12l-87 30l3 64l69 317h-80l9 45l86 17l24 142l80 40l23 -22l-46 -160h119l-9 -61l-119 -1l-72 -337l140 64l15 -32z" />
    <glyph glyph-name="u" unicode="u" horiz-adv-x="539" 
d="M385 -12l-70 37l14 82l-9 3q-137 -122 -217 -122q-27 0 -37.5 33t3.5 101l70 294l-100 -48l-16 34l135 88l63 -20l-2 -62l-62 -291q-12 -51 20 -51q21 0 74 39.5t89 84.5l57 266l48 24h48l-92 -416l103 39l14 -24z" />
    <glyph glyph-name="v" unicode="v" horiz-adv-x="507" 
d="M64 450l54 30h117l27 -56q-45 -58 -69 -137.5t-24 -137.5q0 -87 27 -87q71 0 142 88t71 179q0 66 -62 84v26l56 51h37q41 -39 41 -96q0 -90 -43.5 -180t-112.5 -141q-46 -38 -97.5 -61.5t-88.5 -23.5t-51 33.5t-14 95.5q0 73 28 148t71 125l-7 20h-65l-42 -63l-29 11z
" />
    <glyph glyph-name="w" unicode="w" horiz-adv-x="747" 
d="M659 490h32q31 -29 31 -81q0 -89 -36 -176t-96 -147q-103 -98 -183 -98q-34 0 -52 31t-12 89l-7 3q-41 -52 -100.5 -87.5t-96.5 -35.5q-43 0 -59 34t-16 95q0 73 30.5 148t78.5 125l-7 20h-65l-43 -64l-29 11l30 92l48 31h123l27 -61q-53 -57 -76.5 -130t-23.5 -140
q0 -35 10.5 -58.5t30.5 -23.5q25 0 60 27.5t64 71.5q19 27 37.5 111t20.5 168l45 32l66 -13q-4 -21 -11.5 -55.5t-21 -94.5t-26.5 -120q-16 -125 33 -125q68 0 126 86t58 169q0 35 -12.5 54.5t-38.5 34.5v31z" />
    <glyph glyph-name="x" unicode="x" horiz-adv-x="492" 
d="M308 -12l-62 21l-28 163l-121 -153l-54 -31l-57 37l45 80l66 -17l111 141l-32 193l-99 -54l-14 32l123 90l69 -17l26 -153l113 143l48 31l65 -44l-39 -81l-75 25l-103 -130l33 -193l105 45l13 -26z" />
    <glyph glyph-name="y" unicode="y" horiz-adv-x="526" 
d="M150 490l58 -26l15 -44l5 -307q0 -18 4 -28t9.5 -10.5t10.5 0.5q43 21 67 43q71 143 83 277l-22 58l67 37h44l17 -65q-40 -131 -85 -243.5t-98 -211.5t-112.5 -156t-116.5 -57q-29 0 -57 18.5t-38 46.5l39 69h27q21 -63 61 -63q37 0 85.5 55t87.5 159l-6 8
q-71 -52 -112 -52q-31 0 -36 96l-14 320l-94 -48l-20 31z" />
    <glyph glyph-name="z" unicode="z" horiz-adv-x="440" 
d="M31 -3l-40 32l211 235l111 107l-3 9l-161 28l-37 -81l-29 4l20 135l60 27l220 -37l38 38l37 -33l-205 -218l-108 -107l5 -12l176 -50l57 97l25 -5l-31 -153l-51 -25l-247 69z" />
    <glyph glyph-name="braceleft" unicode="{" horiz-adv-x="435" 
d="M146 283l-2 -16q61 -9 97.5 -51t25.5 -105q-5 -28 -39.5 -95.5t-41.5 -107.5q-8 -44 23 -69t117 -25l-8 -42q-137 0 -181.5 35t-30.5 111q7 37 40 103t38 98q11 59 -27 90t-109 31l11 66q67 0 119 35t60 82q6 35 -4 93.5t-4 91.5q12 71 69 100.5t184 29.5l-8 -42
q-149 0 -164 -79q-7 -40 4.5 -102.5t7.5 -86.5q-9 -53 -60 -92.5t-117 -52.5z" />
    <glyph glyph-name="bar" unicode="|" horiz-adv-x="540" 
d="M233 -230v980h74v-980h-74z" />
    <glyph glyph-name="braceright" unicode="}" horiz-adv-x="435" 
d="M289 227l2 16q-61 9 -97.5 51t-25.5 105q5 28 39.5 95.5t41.5 107.5q8 44 -23 69t-117 25l8 42q137 0 181.5 -35t30.5 -111q-7 -37 -40 -103t-38 -98q-11 -59 27 -90t109 -31l-11 -66q-67 0 -119 -35t-60 -82q-6 -35 4 -93.5t4 -91.5q-12 -71 -69 -100.5t-184 -29.5l8 42
q149 0 164 79q7 40 -4.5 102.5t-7.5 86.5q9 53 60 92.5t117 52.5z" />
    <glyph glyph-name="asciitilde" unicode="~" horiz-adv-x="540" 
d="M469 373l36 -14q-21 -62 -63.5 -109.5t-80.5 -47.5q-23 0 -105 39.5t-105 39.5q-15 0 -30 -13.5t-23.5 -27.5t-22.5 -42l-40 16q17 53 61 106t71 53q30 0 107.5 -40t106.5 -40q24 0 50.5 25t37.5 55z" />
    <glyph glyph-name="uni00A0" unicode="&#xa0;" horiz-adv-x="210" 
 />
    <glyph glyph-name="exclamdown" unicode="&#xa1;" horiz-adv-x="333" 
d="M286 431q0 -27 -18.5 -46t-45.5 -19t-46 19t-19 46t19 45.5t46 18.5t45.5 -18.5t18.5 -45.5zM37 -212l-20 15l157 479l40 -4l-66 -460z" />
    <glyph glyph-name="cent" unicode="&#xa2;" horiz-adv-x="433" 
d="M343 207l18 -31q-65 -57 -144 -71l-18 -105h-42l18 102q-72 6 -106.5 62.5t-21.5 134.5q18 103 73 147q61 50 128 72l19 108h42l-17 -98h7q64 0 97 -17l-19 -125h-39q2 42 -3 65q-27 18 -53 20l-54 -304q5 -1 14 -1q51 0 101 41zM134 341q-24 -129 54 -164l51 291
q-87 -20 -105 -127z" />
    <glyph glyph-name="sterling" unicode="&#xa3;" horiz-adv-x="548" 
d="M86 333h85l16 92q20 110 138 171q69 42 129 42q40 0 89 -19l-26 -146h-37q1 112 -77 112q-31 0 -63.5 -31t-43.5 -105l-21 -116h125l-7 -43h-126q-14 -67 -48.5 -112.5t-88.5 -88.5l3 -7q63 -5 201 -5q45 0 66.5 17.5t35.5 71.5h37l-39 -169q-26 -9 -73 -9
q-42 0 -123.5 20.5t-132.5 26.5q-30 -47 -71 -47q-14 0 -21.5 8t-5.5 21q4 21 27 41t50 29q52 51 66 127l13 76h-84z" />
    <glyph glyph-name="currency" unicode="&#xa4;" horiz-adv-x="624" 
d="M91 272q0 69 40 127l-45 44q-11 11 -2 29.5t25 26t28 -0.5l46 -47q58 42 129 42t126 -39l43 45q10 11 29 0t29.5 -30.5t0.5 -29.5l-45 -43q38 -55 38 -124q0 -70 -42 -130l48 -46q11 -11 2 -29.5t-25 -26.5t-28 1l-50 50q-55 -40 -126 -40q-69 0 -124 36l-42 -44
q-11 -12 -31 -2.5t-29 27t1 30.5l44 43q-40 55 -40 131zM161 271q0 -70 42 -115.5t110 -45.5q63 0 105.5 46t42.5 115q0 71 -42.5 116.5t-106.5 45.5q-70 0 -110.5 -46t-40.5 -116z" />
    <glyph glyph-name="yen" unicode="&#xa5;" horiz-adv-x="554" 
d="M312 333h12q37 87 118 193t119 106q17 0 31 -11t14 -25q0 -13 -16 -22q-120 -68 -244 -287l-6 -39h132l-7 -41h-131l-7 -49h129l-7 -41h-128l-9 -62l76 -14l-5 -41h-256l5 41l79 14l9 62h-133l7 41h132l8 49h-131l7 41h130l4 27q-15 78 -55 161t-87 126l-61 8l5 37l95 31
q32 -6 61.5 -37t50 -77.5t35.5 -94t24 -96.5z" />
    <glyph glyph-name="brokenbar" unicode="&#xa6;" horiz-adv-x="540" 
d="M307 400h-74v350h74v-350zM233 120h74v-350h-74v350z" />
    <glyph glyph-name="section" unicode="&#xa7;" horiz-adv-x="488" 
d="M428 300q0 -31 -24.5 -69t-60.5 -67q36 -36 36 -84q0 -52 -42.5 -110.5t-98.5 -95t-98 -36.5q-40 0 -82 18t-65 58l55 123l27 -7l-8 -73q27 -47 84 -47q58 0 105 37.5t47 97.5q0 33 -23 59.5t-55.5 45t-64.5 38t-55 50t-23 69.5q0 95 95 159q-13 23 -13 51
q0 70 66.5 135.5t160.5 65.5q20 0 47.5 -9.5t46.5 -26.5l-38 -108l-31 5q3 11 3 20q0 52 -73 52q-55 0 -88 -32.5t-33 -75.5q0 -27 21 -50.5t50.5 -42t59.5 -38t51 -48.5t21 -64zM147 342v-6q0 -32 23.5 -55t74 -51t69.5 -41q47 41 47 80q0 22 -18 44.5t-41.5 39t-55 40.5
t-48.5 44q-48 -35 -51 -95z" />
    <glyph glyph-name="dieresis" unicode="&#xa8;" horiz-adv-x="500" 
d="M408 569q0 -20 -16.5 -35.5t-35.5 -15.5q-21 0 -37 15.5t-16 35.5q0 21 16 37t37 16q19 0 35.5 -16t16.5 -37zM247 569q0 -21 -15.5 -36t-36.5 -15t-37 15.5t-16 35.5q0 21 16 37t37 16t36.5 -16t15.5 -37z" />
    <glyph glyph-name="copyright" unicode="&#xa9;" horiz-adv-x="703" 
d="M369 158q26 0 50 8l34 60h34l-17 -83l-16 -5q-50 -16 -91 -16q-76 0 -125.5 45.5t-49.5 126.5t49.5 127t131.5 46q56 0 102 -24l4 -83h-34l-21 55l2 -1q-19 21 -60 21q-38 0 -70.5 -31t-32.5 -95q0 -82 34 -116.5t76 -34.5zM44 296q0 126 90.5 216.5t217.5 90.5
q131 0 219 -89.5t88 -217.5q0 -127 -90.5 -217.5t-216.5 -90.5q-129 0 -218.5 87t-89.5 221zM103 294q0 -110 70 -183t180 -73t178.5 72.5t68.5 183.5q0 114 -70.5 187.5t-177.5 73.5q-109 0 -179 -74.5t-70 -186.5z" />
    <glyph glyph-name="ordfeminine" unicode="&#xaa;" horiz-adv-x="385" 
d="M268 288l-50 16l7 67l-2 1q-34 -32 -78.5 -57.5t-68.5 -25.5q-28 0 -42 25t-14 58q0 66 24 127t65 98q41 33 68.5 49.5t54.5 16.5q30 0 60 -22l20 22l43 -12l-62 -293l66 27l13 -24zM97 389q0 -41 24 -41q15 0 50.5 25t58.5 55l-1 -1l40 164q-24 31 -44 31
q-44 0 -86 -77.5t-42 -155.5z" />
    <glyph glyph-name="guillemotleft" unicode="&#xab;" horiz-adv-x="652" 
d="M112 244l229 201l35 -35l-177 -177l-3 -14l101 -170l-42 -32l-149 205zM319 244l229 201l35 -35l-177 -177l-3 -14l101 -170l-42 -32l-149 205z" />
    <glyph glyph-name="logicalnot" unicode="&#xac;" horiz-adv-x="540" 
d="M426 52v197h-388v64h457v-261h-69z" />
    <glyph glyph-name="registered" unicode="&#xae;" horiz-adv-x="508" 
d="M310 488h-16v-76l32 -4v-20h-113v20l28 4v192l-28 5v20h109q29 0 55 -13.5t26 -44.5q0 -46 -41 -71v-3q46 -68 57 -84l12 -7l-5 -18l-54 8zM294 603v-90h22q16 1 24 10.5t8 34.5q0 45 -38 45h-16zM100 503q0 88 63 151t151 63q91 0 152.5 -62.5t61.5 -151.5
q0 -88 -63 -151t-151 -63q-89 0 -151.5 61t-62.5 153zM144 502q0 -76 48 -125.5t123 -49.5q70 0 119.5 50.5t49.5 124.5q0 77 -49 126.5t-121 49.5q-78 0 -124 -49.5t-46 -126.5z" />
    <glyph glyph-name="macron" unicode="&#xaf;" horiz-adv-x="500" 
d="M390 520h-254v58h254v-58z" />
    <glyph glyph-name="degree" unicode="&#xb0;" horiz-adv-x="367" 
d="M55 494q0 59 42 101.5t101 42.5t101.5 -42.5t42.5 -101.5t-42.5 -101t-101.5 -42q-58 0 -100.5 42.5t-42.5 100.5zM115 494q0 -39 22.5 -65.5t59.5 -26.5t60.5 26.5t23.5 65.5t-23.5 66.5t-60.5 27.5t-59.5 -27.5t-22.5 -66.5z" />
    <glyph glyph-name="plusminus" unicode="&#xb1;" horiz-adv-x="620" 
d="M570 320h-230v-210h-60v210h-230v60h230v210h60v-210h230v-60zM570 0h-520v60h520v-60z" />
    <glyph glyph-name="two.sups" unicode="&#xb2;" horiz-adv-x="287" 
d="M245 722q-60 0 -72 -66h-46l28 74q20 15 53.5 26.5t49.5 11.5q47 0 76.5 -23.5t29.5 -62.5q0 -45 -53 -97t-150 -122q1 -1 1 -2.5v-2.5q29 2 88 6t86 5l-9 -54h-247l-3 31q118 88 164.5 137t46.5 88q0 23 -12.5 37t-30.5 14z" />
    <glyph glyph-name="three.sups" unicode="&#xb3;" horiz-adv-x="287" 
d="M208 439q22 0 43.5 20t21.5 56q0 27 -18.5 43t-37.5 16h-3q-6 0 -24.5 -3t-24.5 -3l-3 31q54 8 91.5 34t37.5 56q0 36 -42 36q-59 0 -66 -56h-43l24 66q20 13 53.5 23t50.5 10q46 0 72 -17.5t26 -45.5q0 -48 -86 -96q0 -1 -0.5 -3l-0.5 -2q29 -8 48.5 -29.5t19.5 -47.5
q0 -49 -48 -83.5t-104 -34.5q-61 0 -101 26l-7 76h41q6 -22 12.5 -35.5t24 -25t43.5 -11.5z" />
    <glyph glyph-name="acute" unicode="&#xb4;" horiz-adv-x="500" 
d="M198 498v8l113 164h90v-10l-149 -162h-54z" />
    <glyph glyph-name="mu" unicode="&#xb5;" horiz-adv-x="540" 
d="M366 27l-8 6q-68 -45 -134 -45q-41 0 -71 27q1 -26 4 -64.5t4.5 -64t1.5 -38.5q0 -60 -46 -60q-40 0 -40 52q0 17 6 120.5t8 159.5q-1 7 -1 21v257l-63 11v38l154 18v-309q0 -56 21 -78.5t65 -22.5q58 0 93 37v306l-63 11v38l154 18v-364q0 -43 21 -43q20 0 34 34l28 -11
q-16 -47 -46 -68.5t-58 -21.5q-26 0 -37.5 7t-26.5 29z" />
    <glyph glyph-name="mu" unicode="&#x3bc;" horiz-adv-x="540" 
d="M366 27l-8 6q-68 -45 -134 -45q-41 0 -71 27q1 -26 4 -64.5t4.5 -64t1.5 -38.5q0 -60 -46 -60q-40 0 -40 52q0 17 6 120.5t8 159.5q-1 7 -1 21v257l-63 11v38l154 18v-309q0 -56 21 -78.5t65 -22.5q58 0 93 37v306l-63 11v38l154 18v-364q0 -43 21 -43q20 0 34 34l28 -11
q-16 -47 -46 -68.5t-58 -21.5q-26 0 -37.5 7t-26.5 29z" />
    <glyph glyph-name="paragraph" unicode="&#xb6;" horiz-adv-x="555" 
d="M619 706l-15 -67h-58l-175 -796h-60l175 796h-65l-175 -796h-60l88 400q-127 0 -183 62t-31 170q23 105 105.5 168t190.5 63h263zM286 300l75 339q-71 0 -125.5 -46t-70.5 -121q-17 -77 15 -124.5t106 -47.5z" />
    <glyph glyph-name="periodcentered" unicode="&#xb7;" horiz-adv-x="253" 
d="M102 264q0 27 18.5 46t45.5 19t46 -19t19 -46t-19 -45.5t-46 -18.5t-45.5 18.5t-18.5 45.5z" />
    <glyph glyph-name="cedilla" unicode="&#xb8;" horiz-adv-x="500" 
d="M182 -224l-8 25q39 6 63 22.5t24 39.5q0 21 -14.5 31.5t-36.5 10.5q-16 0 -30 -2l-5 7l73 110h45l-48 -70q34 0 57 -18t23 -54q0 -38 -42 -66t-101 -36z" />
    <glyph glyph-name="one.sups" unicode="&#xb9;" horiz-adv-x="261" 
d="M146 682l-5 33q89 26 123 52l37 -5l-54 -311q13 -1 39 -4.5t38 -4.5l-4 -27h-226l4 27l78 9l45 252l-14 -4q-33 -10 -61 -17z" />
    <glyph glyph-name="ordmasculine" unicode="&#xba;" horiz-adv-x="356" 
d="M240 666q40 0 68.5 -25.5t28.5 -73.5q0 -133 -60 -196q-87 -82 -159 -82q-48 0 -73 29.5t-25 74.5q0 140 64 204q40 30 83.5 49.5t72.5 19.5zM95 426q0 -42 12.5 -64.5t33.5 -22.5q38 0 66.5 34t40 76.5t11.5 82.5q0 81 -48 81q-46 0 -81 -54t-35 -133z" />
    <glyph glyph-name="guillemotright" unicode="&#xbb;" horiz-adv-x="652" 
d="M560 218l-229 -201l-35 35l177 177l3 14l-101 170l42 32l149 -205zM353 218l-229 -201l-35 35l177 177l3 14l-101 170l42 32l149 -205z" />
    <glyph glyph-name="onequarter" unicode="&#xbc;" 
d="M50 -29l320 370l298 353l40 -31l-308 -349l-310 -375zM112 609l-5 33q89 26 123 52l37 -5l-54 -311q13 -1 39 -4.5t38 -4.5l-4 -27h-226l4 27l78 9l45 252l-14 -4q-33 -10 -61 -17zM513 16l14 74h-149l-7 20q41 57 107 121.5t126 108.5l32 -13l-17 -81l-22 -123h62
l-5 -32h-62q-2 -12 -7 -37t-7 -37q9 -1 29 -4.5t28 -4.5l-4 -27h-177l4 27zM433 123h100l21 130q-72 -58 -124 -128l2 1q0 -2 1 -3z" />
    <glyph glyph-name="onehalf" unicode="&#xbd;" 
d="M50 -29l320 370l298 353l40 -31l-308 -349l-310 -375zM112 609l-5 33q89 26 123 52l37 -5l-54 -311q13 -1 39 -4.5t38 -4.5l-4 -27h-226l4 27l78 9l45 252l-14 -4q-33 -10 -61 -17zM558 288q-60 0 -72 -66h-46l28 74q20 15 53.5 26.5t49.5 11.5q47 0 76.5 -23.5
t29.5 -62.5q0 -45 -53 -97t-150 -122v-2.5t1 -2.5q29 2 88 6t86 5l-9 -54h-247l-3 31q118 88 164.5 137t46.5 88q0 23 -12.5 37t-30.5 14z" />
    <glyph glyph-name="threequarters" unicode="&#xbe;" 
d="M50 -29l320 370l298 353l40 -31l-308 -349l-310 -375zM168 366q22 0 43.5 20t21.5 56q0 27 -18.5 43t-37.5 16h-3q-6 0 -24.5 -2.5t-24.5 -3.5l-3 31q54 8 91.5 34t37.5 56q0 36 -42 36q-59 0 -66 -56h-43l24 66q20 13 53.5 23t50.5 10q46 0 72 -17.5t26 -45.5
q0 -48 -86 -96v-2q-1 -2 -1 -3q29 -8 48.5 -29.5t19.5 -47.5q0 -49 -48 -83.5t-104 -34.5q-61 0 -101 26l-7 76h41q6 -22 12.5 -35.5t24 -25t43.5 -11.5zM513 16l14 74h-149l-7 20q41 57 107 121.5t126 108.5l32 -13l-17 -81l-22 -123h62l-5 -32h-62q-2 -12 -7 -37t-7 -37
q9 -1 29 -4.5t28 -4.5l-4 -27h-177l4 27zM433 123h100l21 130q-72 -58 -124 -128l2 1q0 -2 1 -3z" />
    <glyph glyph-name="questiondown" unicode="&#xbf;" horiz-adv-x="443" 
d="M249 234l4 21l43 22q70 -26 73 -71q2 -30 -23 -57.5t-62 -47.5l-74 -40t-62.5 -44.5t-23.5 -51.5q2 -35 44.5 -63.5t74.5 -25.5q12 0 16 3l43 61l40 -29q-48 -118 -104 -122q-4 -1 -24 2q-69 15 -123.5 60t-58.5 99q-2 36 23.5 67.5t63.5 53.5t76 42t64.5 40.5t25.5 40.5
t-36 40zM409 431q0 -27 -18.5 -46t-45.5 -19t-46 19t-19 46t19 45.5t46 18.5t45.5 -18.5t18.5 -45.5z" />
    <glyph glyph-name="Agrave" unicode="&#xc0;" horiz-adv-x="718" 
d="M486 57l-30 175h-231l-104 -175l83 -14l-7 -43h-221l8 43l69 14l372 606h49l114 -606l71 -14l-7 -43h-248l7 43zM394 517l-138 -233h191l-40 233h-13zM503 729v-8h-48l-104 127v10h91z" />
    <glyph glyph-name="Aacute" unicode="&#xc1;" horiz-adv-x="718" 
d="M486 57l-30 175h-231l-104 -175l83 -14l-7 -43h-221l8 43l69 14l372 606h49l114 -606l71 -14l-7 -43h-248l7 43zM394 517l-138 -233h191l-40 233h-13zM393 721v8l101 129h94v-10l-144 -127h-51z" />
    <glyph glyph-name="Acircumflex" unicode="&#xc2;" horiz-adv-x="718" 
d="M486 57l-30 175h-231l-104 -175l83 -14l-7 -43h-221l8 43l69 14l372 606h49l114 -606l71 -14l-7 -43h-248l7 43zM394 517l-138 -233h191l-40 233h-13zM608 729v-8h-46l-70 76l-128 -76h-46v8l161 129h48z" />
    <glyph glyph-name="Atilde" unicode="&#xc3;" horiz-adv-x="718" 
d="M486 57l-30 175h-231l-104 -175l83 -14l-7 -43h-221l8 43l69 14l372 606h49l114 -606l71 -14l-7 -43h-248l7 43zM394 517l-138 -233h191l-40 233h-13zM590 866l26 -10q-14 -47 -42.5 -82t-54.5 -35q-14 0 -60.5 30t-61.5 30q-8 0 -14 -4t-12.5 -15.5t-10 -18.5t-11.5 -25
l-29 12q11 39 41 78.5t48 39.5q19 0 62.5 -30.5t61.5 -30.5q16 0 33 19.5t24 41.5z" />
    <glyph glyph-name="Adieresis" unicode="&#xc4;" horiz-adv-x="718" 
d="M486 57l-30 175h-231l-104 -175l83 -14l-7 -43h-221l8 43l69 14l372 606h49l114 -606l71 -14l-7 -43h-248l7 43zM394 517l-138 -233h191l-40 233h-13zM611 802q0 -20 -16.5 -35.5t-35.5 -15.5q-21 0 -37 15.5t-16 35.5q0 21 16 37t37 16q19 0 35.5 -16t16.5 -37zM450 802
q0 -20 -15 -35.5t-37 -15.5q-21 0 -37 15.5t-16 35.5q0 21 16 37t37 16t36.5 -16t15.5 -37z" />
    <glyph glyph-name="Aring" unicode="&#xc5;" horiz-adv-x="718" 
d="M486 57l-30 175h-231l-104 -175l83 -14l-7 -43h-221l8 43l69 14l372 606h49l114 -606l71 -14l-7 -43h-248l7 43zM394 517l-138 -233h191l-40 233h-13zM379 815q0 39 27.5 66.5t66.5 27.5t66.5 -27.5t27.5 -66.5t-27.5 -66.5t-66.5 -27.5t-66.5 27.5t-27.5 66.5zM425 815
q0 -22 13 -36.5t34 -14.5t34.5 14.5t13.5 36.5t-13.5 37.5t-34.5 15.5t-34 -15.5t-13 -37.5z" />
    <glyph glyph-name="AE" unicode="&#xc6;" horiz-adv-x="947" 
d="M534 50h261l66 121h41l-47 -176l-150 5h-363l8 43l82 14l30 175h-200l-141 -175l83 -14l-7 -43h-221l8 43l69 14l451 553l-53 10l7 43h346l127 4l-16 -157h-36l-27 101l-218 1l-46 -256l179 6l37 95h38l-44 -242h-38l-2 95l-177 3zM504 532l-200 -248h167l44 248h-11z
" />
    <glyph glyph-name="Ccedilla" unicode="&#xc7;" horiz-adv-x="654" 
d="M271 -224l-8 25q39 6 63 22.5t24 39.5q0 21 -14.5 31.5t-36.5 10.5q-16 0 -30 -2l-5 7l52 80q-120 6 -192.5 75t-72.5 190q0 97 34.5 177.5t93 132.5t134.5 80.5t161 28.5q44 0 97.5 -12.5t85.5 -30.5l-18 -156h-41l-21 107q-33 45 -125 45q-34 0 -70 -10.5t-75 -37.5
t-69.5 -67t-50.5 -104.5t-20 -144.5q0 -63 18 -109t48.5 -69.5t61.5 -33.5t65 -10q64 0 121 21l88 120h40l-60 -154q-108 -36 -188 -38l-27 -40q34 0 57 -18t23 -54q0 -38 -42 -66t-101 -36z" />
    <glyph glyph-name="Egrave" unicode="&#xc8;" horiz-adv-x="593" 
d="M180 50h261l66 121h41l-47 -176l-150 5h-363l8 43l82 14l96 549l-77 14l7 43h346l127 4l-16 -157h-36l-27 101l-218 1l-46 -256l179 6l37 95h38l-44 -242h-38l-2 95l-177 3zM420 729v-8h-48l-104 127v10h91z" />
    <glyph glyph-name="Eacute" unicode="&#xc9;" horiz-adv-x="593" 
d="M180 50h261l66 121h41l-47 -176l-150 5h-363l8 43l82 14l96 549l-77 14l7 43h346l127 4l-16 -157h-36l-27 101l-218 1l-46 -256l179 6l37 95h38l-44 -242h-38l-2 95l-177 3zM310 721v8l101 129h94v-10l-144 -127h-51z" />
    <glyph glyph-name="Ecircumflex" unicode="&#xca;" horiz-adv-x="593" 
d="M180 50h261l66 121h41l-47 -176l-150 5h-363l8 43l82 14l96 549l-77 14l7 43h346l127 4l-16 -157h-36l-27 101l-218 1l-46 -256l179 6l37 95h38l-44 -242h-38l-2 95l-177 3zM525 729v-8h-46l-70 76l-128 -76h-46v8l161 129h48z" />
    <glyph glyph-name="Edieresis" unicode="&#xcb;" horiz-adv-x="593" 
d="M180 50h261l66 121h41l-47 -176l-150 5h-363l8 43l82 14l96 549l-77 14l7 43h346l127 4l-16 -157h-36l-27 101l-218 1l-46 -256l179 6l37 95h38l-44 -242h-38l-2 95l-177 3zM528 802q0 -20 -16.5 -35.5t-35.5 -15.5q-21 0 -37 15.5t-16 35.5q0 21 16 37t37 16
q19 0 35.5 -16t16.5 -37zM367 802q0 -20 -15.5 -35.5t-36.5 -15.5t-37 15.5t-16 35.5q0 21 16 37t37 16t36.5 -16t15.5 -37z" />
    <glyph glyph-name="Igrave" unicode="&#xcc;" horiz-adv-x="369" 
d="M123 663h265l-7 -43l-83 -14l-96 -549l77 -14l-7 -43h-265l7 43l83 14l96 549l-77 14zM314 729v-8h-48l-104 127v10h91z" />
    <glyph glyph-name="Iacute" unicode="&#xcd;" horiz-adv-x="369" 
d="M123 663h265l-7 -43l-83 -14l-96 -549l77 -14l-7 -43h-265l7 43l83 14l96 549l-77 14zM204 721v8l101 129h94v-10l-144 -127h-51z" />
    <glyph glyph-name="Icircumflex" unicode="&#xce;" horiz-adv-x="369" 
d="M123 663h265l-7 -43l-83 -14l-96 -549l77 -14l-7 -43h-265l7 43l83 14l96 549l-77 14zM419 729v-8h-46l-70 76l-128 -76h-46v8l161 129h48z" />
    <glyph glyph-name="Idieresis" unicode="&#xcf;" horiz-adv-x="369" 
d="M123 663h265l-7 -43l-83 -14l-96 -549l77 -14l-7 -43h-265l7 43l83 14l96 549l-77 14zM422 802q0 -20 -16.5 -35.5t-35.5 -15.5q-21 0 -37 15.5t-16 35.5q0 21 16 37t37 16q19 0 35.5 -16t16.5 -37zM261 802q0 -20 -15.5 -35.5t-36.5 -15.5t-37 15.5t-16 35.5q0 21 16 37
t37 16t36.5 -16t15.5 -37z" />
    <glyph glyph-name="Eth" unicode="&#xd0;" horiz-adv-x="747" 
d="M299 0h-311l8 43l80 14l43 246h-93l10 55h92l44 248l-75 14l7 43h361q123 0 191 -64t68 -179q0 -188 -122.5 -304t-302.5 -116zM180 52h123q124 0 217 99.5t93 262.5q0 197 -190 197h-145l-45 -253h162l-10 -55h-161z" />
    <glyph glyph-name="Ntilde" unicode="&#xd1;" horiz-adv-x="755" 
d="M560 179h14l50 280l22 147l-75 14l7 43h215l-7 -43l-79 -14l-31 -152l-81 -456h-33l-340 513h-12l-52 -288l-24 -166l83 -14l-7 -43h-222l8 43l77 14l32 163l69 391l-77 9l7 43h144zM587 866l26 -10q-14 -47 -42.5 -82t-54.5 -35q-14 0 -60.5 30t-61.5 30q-8 0 -14 -4
t-12.5 -15.5t-10 -18.5t-11.5 -25l-29 12q11 39 41 78.5t48 39.5q19 0 62.5 -30.5t61.5 -30.5q16 0 33 19.5t24 41.5z" />
    <glyph glyph-name="Ograve" unicode="&#xd2;" horiz-adv-x="785" 
d="M51 256q0 81 29.5 156t82 133.5t132.5 93.5t173 35q133 0 212 -67.5t79 -185.5q0 -191 -126 -311.5t-307 -120.5q-122 0 -198.5 70.5t-76.5 196.5zM435 627q-81 0 -144 -54.5t-93.5 -133.5t-30.5 -165q0 -236 197 -236q36 0 73 11t75 38t67 66t47.5 101t18.5 137
q0 236 -210 236zM526 729v-8h-48l-104 127v10h91z" />
    <glyph glyph-name="Oacute" unicode="&#xd3;" horiz-adv-x="785" 
d="M51 256q0 81 29.5 156t82 133.5t132.5 93.5t173 35q133 0 212 -67.5t79 -185.5q0 -191 -126 -311.5t-307 -120.5q-122 0 -198.5 70.5t-76.5 196.5zM435 627q-81 0 -144 -54.5t-93.5 -133.5t-30.5 -165q0 -236 197 -236q36 0 73 11t75 38t67 66t47.5 101t18.5 137
q0 236 -210 236zM416 721v8l101 129h94v-10l-144 -127h-51z" />
    <glyph glyph-name="Ocircumflex" unicode="&#xd4;" horiz-adv-x="785" 
d="M51 256q0 81 29.5 156t82 133.5t132.5 93.5t173 35q133 0 212 -67.5t79 -185.5q0 -191 -126 -311.5t-307 -120.5q-122 0 -198.5 70.5t-76.5 196.5zM435 627q-81 0 -144 -54.5t-93.5 -133.5t-30.5 -165q0 -236 197 -236q36 0 73 11t75 38t67 66t47.5 101t18.5 137
q0 236 -210 236zM631 729v-8h-46l-70 76l-128 -76h-46v8l161 129h48z" />
    <glyph glyph-name="Otilde" unicode="&#xd5;" horiz-adv-x="785" 
d="M51 256q0 81 29.5 156t82 133.5t132.5 93.5t173 35q133 0 212 -67.5t79 -185.5q0 -191 -126 -311.5t-307 -120.5q-122 0 -198.5 70.5t-76.5 196.5zM435 627q-81 0 -144 -54.5t-93.5 -133.5t-30.5 -165q0 -236 197 -236q36 0 73 11t75 38t67 66t47.5 101t18.5 137
q0 236 -210 236zM613 866l26 -10q-14 -47 -42.5 -82t-54.5 -35q-14 0 -61 30t-61 30q-8 0 -14 -4t-12.5 -15.5t-10 -18.5t-11.5 -25l-29 12q11 39 41 78.5t48 39.5q19 0 62.5 -30.5t61.5 -30.5q16 0 33 19.5t24 41.5z" />
    <glyph glyph-name="Odieresis" unicode="&#xd6;" horiz-adv-x="785" 
d="M51 256q0 81 29.5 156t82 133.5t132.5 93.5t173 35q133 0 212 -67.5t79 -185.5q0 -191 -126 -311.5t-307 -120.5q-122 0 -198.5 70.5t-76.5 196.5zM435 627q-81 0 -144 -54.5t-93.5 -133.5t-30.5 -165q0 -236 197 -236q36 0 73 11t75 38t67 66t47.5 101t18.5 137
q0 236 -210 236zM634 802q0 -20 -16.5 -35.5t-35.5 -15.5q-21 0 -37 15.5t-16 35.5q0 21 16 37t37 16q19 0 35.5 -16t16.5 -37zM473 802q0 -20 -15.5 -35.5t-36.5 -15.5t-37 15.5t-16 35.5q0 21 16 37t37 16t36.5 -16t15.5 -37z" />
    <glyph glyph-name="multiply" unicode="&#xd7;" horiz-adv-x="620" 
d="M493 35l-183 183l-183 -183l-42 42l183 183l-183 183l42 42l183 -183l183 183l42 -42l-183 -183l183 -183z" />
    <glyph glyph-name="Oslash" unicode="&#xd8;" horiz-adv-x="785" 
d="M51 256q0 81 29.5 156t82 133.5t132.5 93.5t173 35q117 0 193 -53l63 63l35 -34l-61 -61q61 -66 61 -168q0 -191 -126 -311.5t-307 -120.5q-103 0 -174 50l-77 -78l-35 34l75 76q-64 72 -64 185zM435 627q-81 0 -144 -54.5t-93.5 -133.5t-30.5 -165q0 -78 20 -130
l412 414q-53 69 -164 69zM645 391q0 73 -21 123l-411 -414q48 -62 151 -62q36 0 73 11t75 38t67 66t47.5 101t18.5 137z" />
    <glyph glyph-name="Ugrave" unicode="&#xd9;" horiz-adv-x="735" 
d="M554 663h220l-7 -43l-70 -14l-28 -112l-51 -283q-6 -37 -27.5 -74.5t-56.5 -71t-89.5 -55t-118.5 -21.5q-120 0 -179.5 62t-44.5 142l72 413l-77 14l7 43h265l-7 -43l-84 -14l-70 -395q-12 -67 26.5 -111.5t122.5 -44.5q77 0 136.5 48.5t75.5 137.5l46 258l11 107l-79 14
zM518 729v-8h-48l-104 127v10h91z" />
    <glyph glyph-name="Uacute" unicode="&#xda;" horiz-adv-x="735" 
d="M554 663h220l-7 -43l-70 -14l-28 -112l-51 -283q-6 -37 -27.5 -74.5t-56.5 -71t-89.5 -55t-118.5 -21.5q-120 0 -179.5 62t-44.5 142l72 413l-77 14l7 43h265l-7 -43l-84 -14l-70 -395q-12 -67 26.5 -111.5t122.5 -44.5q77 0 136.5 48.5t75.5 137.5l46 258l11 107l-79 14
zM408 721v8l101 129h94v-10l-144 -127h-51z" />
    <glyph glyph-name="Ucircumflex" unicode="&#xdb;" horiz-adv-x="735" 
d="M554 663h220l-7 -43l-70 -14l-28 -112l-51 -283q-6 -37 -27.5 -74.5t-56.5 -71t-89.5 -55t-118.5 -21.5q-120 0 -179.5 62t-44.5 142l72 413l-77 14l7 43h265l-7 -43l-84 -14l-70 -395q-12 -67 26.5 -111.5t122.5 -44.5q77 0 136.5 48.5t75.5 137.5l46 258l11 107l-79 14
zM623 729v-8h-46l-70 76l-128 -76h-46v8l161 129h48z" />
    <glyph glyph-name="Udieresis" unicode="&#xdc;" horiz-adv-x="735" 
d="M554 663h220l-7 -43l-70 -14l-28 -112l-51 -283q-6 -37 -27.5 -74.5t-56.5 -71t-89.5 -55t-118.5 -21.5q-120 0 -179.5 62t-44.5 142l72 413l-77 14l7 43h265l-7 -43l-84 -14l-70 -395q-12 -67 26.5 -111.5t122.5 -44.5q77 0 136.5 48.5t75.5 137.5l46 258l11 107l-79 14
zM626 802q0 -20 -16.5 -35.5t-35.5 -15.5q-21 0 -37 15.5t-16 35.5q0 21 16 37t37 16q19 0 35.5 -16t16.5 -37zM465 802q0 -20 -15.5 -35.5t-36.5 -15.5t-37 15.5t-16 35.5q0 21 16 37t37 16t36.5 -16t15.5 -37z" />
    <glyph glyph-name="Yacute" unicode="&#xdd;" horiz-adv-x="647" 
d="M374 356h12q37 79 106.5 164.5t131.5 135.5q27 22 57 1q25 -17 16 -37q-4 -8 -15 -14q-139 -74 -273 -298l-46 -251l79 -14l-5 -43h-265l5 43l82 14l44 239q-18 81 -64 167t-99 130l-63 9l5 38l98 32q37 -6 69.5 -38t56.5 -81t40 -97t28 -100zM354 721v8l101 129h94v-10
l-144 -127h-51z" />
    <glyph glyph-name="Thorn" unicode="&#xde;" horiz-adv-x="559" 
d="M278 606l-11 -63h105q97 0 140 -35t43 -102q0 -114 -86 -184t-226 -70l8 40q82 0 140.5 53t58.5 139q0 105 -111 105h-82l-75 -432l78 -14l-7 -43h-265l8 43l82 14l96 549l-77 14l7 43h265l-7 -43z" />
    <glyph glyph-name="germandbls" unicode="&#xdf;" horiz-adv-x="573" 
d="M418 383q0 -23 29 -58.5t58.5 -78.5t29.5 -84q0 -55 -63.5 -114.5t-130.5 -59.5q-70 0 -108 46v30l40 56h15q32 -71 75 -71q36 0 61 18t25 57q0 31 -18 64t-40 57.5t-40 54.5t-18 54q0 19 14.5 40t34.5 41t40.5 41.5t35 49t14.5 56.5q0 42 -23 74.5t-62 32.5
q-40 0 -68 -22t-50.5 -87t-32.5 -176q-22 -265 -79.5 -444t-119.5 -187h-49v91l97 27q52 291 63 511h-99l5 37l98 20l1 76q-3 42 52 95t121 87.5t101 34.5q62 0 95 -42.5t33 -97.5q0 -35 -21.5 -70t-47 -58t-47 -51t-21.5 -50z" />
    <glyph glyph-name="agrave" unicode="&#xe0;" horiz-adv-x="507" 
d="M352 -12l-60 19l9 89l-9 5q-44 -42 -102.5 -77.5t-90.5 -35.5q-34 0 -51.5 33t-17.5 76q0 91 31.5 173.5t85.5 132.5q53 44 88.5 65.5t69.5 21.5q41 0 80 -33l29 32l49 -14l-83 -404l90 38l14 -27zM123 120q0 -58 36 -58q21 0 69 34.5t78 76.5l54 223q-30 44 -64 44
q-39 0 -80 -50t-67 -125t-26 -145zM383 560v-8h-44l-114 162v10h92z" />
    <glyph glyph-name="aacute" unicode="&#xe1;" horiz-adv-x="507" 
d="M352 -12l-60 19l9 89l-9 5q-44 -42 -102.5 -77.5t-90.5 -35.5q-34 0 -51.5 33t-17.5 76q0 91 31.5 173.5t85.5 132.5q53 44 88.5 65.5t69.5 21.5q41 0 80 -33l29 32l49 -14l-83 -404l90 38l14 -27zM123 120q0 -58 36 -58q21 0 69 34.5t78 76.5l54 223q-30 44 -64 44
q-39 0 -80 -50t-67 -125t-26 -145zM285 552v8l113 164h90v-10l-149 -162h-54z" />
    <glyph glyph-name="acircumflex" unicode="&#xe2;" horiz-adv-x="507" 
d="M352 -12l-60 19l9 89l-9 5q-44 -42 -102.5 -77.5t-90.5 -35.5q-34 0 -51.5 33t-17.5 76q0 91 31.5 173.5t85.5 132.5q53 44 88.5 65.5t69.5 21.5q41 0 80 -33l29 32l49 -14l-83 -404l90 38l14 -27zM123 120q0 -58 36 -58q21 0 69 34.5t78 76.5l54 223q-30 44 -64 44
q-39 0 -80 -50t-67 -125t-26 -145zM463 560v-8h-39l-52 99l-106 -99h-53v8l151 164h48z" />
    <glyph glyph-name="atilde" unicode="&#xe3;" horiz-adv-x="507" 
d="M352 -12l-60 19l9 89l-9 5q-44 -42 -102.5 -77.5t-90.5 -35.5q-34 0 -51.5 33t-17.5 76q0 91 31.5 173.5t85.5 132.5q53 44 88.5 65.5t69.5 21.5q41 0 80 -33l29 32l49 -14l-83 -404l90 38l14 -27zM123 120q0 -58 36 -58q21 0 69 34.5t78 76.5l54 223q-30 44 -64 44
q-39 0 -80 -50t-67 -125t-26 -145zM474 687l26 -10q-14 -47 -42.5 -82t-54.5 -35q-15 0 -61 30t-61 30q-8 0 -14 -4t-12.5 -15.5t-10 -18.5t-11.5 -25l-29 12q11 39 41 78.5t48 39.5q19 0 62.5 -30.5t61.5 -30.5q16 0 33 19.5t24 41.5z" />
    <glyph glyph-name="adieresis" unicode="&#xe4;" horiz-adv-x="507" 
d="M352 -12l-60 19l9 89l-9 5q-44 -42 -102.5 -77.5t-90.5 -35.5q-34 0 -51.5 33t-17.5 76q0 91 31.5 173.5t85.5 132.5q53 44 88.5 65.5t69.5 21.5q41 0 80 -33l29 32l49 -14l-83 -404l90 38l14 -27zM123 120q0 -58 36 -58q21 0 69 34.5t78 76.5l54 223q-30 44 -64 44
q-39 0 -80 -50t-67 -125t-26 -145zM495 623q0 -20 -16.5 -35.5t-35.5 -15.5q-21 0 -37 15.5t-16 35.5q0 21 16 37t37 16q19 0 35.5 -16t16.5 -37zM334 623q0 -21 -15 -36t-37 -15q-21 0 -37 15.5t-16 35.5q0 21 16 37t37 16t36.5 -16t15.5 -37z" />
    <glyph glyph-name="aring" unicode="&#xe5;" horiz-adv-x="507" 
d="M352 -12l-60 19l9 89l-9 5q-44 -42 -102.5 -77.5t-90.5 -35.5q-34 0 -51.5 33t-17.5 76q0 91 31.5 173.5t85.5 132.5q53 44 88.5 65.5t69.5 21.5q41 0 80 -33l29 32l49 -14l-83 -404l90 38l14 -27zM123 120q0 -58 36 -58q21 0 69 34.5t78 76.5l54 223q-30 44 -64 44
q-39 0 -80 -50t-67 -125t-26 -145zM263 636q0 39 27.5 66.5t66.5 27.5t66.5 -27.5t27.5 -66.5t-27.5 -66.5t-66.5 -27.5t-66.5 27.5t-27.5 66.5zM309 636q0 -22 13 -36.5t34 -14.5t34.5 14.5t13.5 36.5t-13.5 37.5t-34.5 15.5t-34 -15.5t-13 -37.5z" />
    <glyph glyph-name="ae" unicode="&#xe6;" horiz-adv-x="712" 
d="M463 475l-8 -37q81 57 139 57q96 0 96 -82q0 -142 -281 -214q-2 -28 -2 -42q0 -59 17.5 -81t59.5 -22q26 0 71.5 21.5t89.5 65.5l27 -33q-48 -49 -113 -84.5t-124 -35.5q-53 0 -85.5 32t-36.5 91l-8 2q-45 -45 -109 -85t-97 -40q-34 0 -51.5 33t-17.5 76q0 91 31.5 173.5
t85.5 132.5q53 44 88.5 65.5t69.5 21.5q41 0 80 -33l29 32zM123 120q0 -58 36 -58q21 0 69 34.5t78 76.5l54 223q-30 44 -64 44q-39 0 -80 -50t-67 -125t-26 -145zM558 441q-49 -1 -88 -60.5t-55 -140.5q178 46 178 160q0 18 -9.5 29.5t-25.5 11.5z" />
    <glyph glyph-name="ccedilla" unicode="&#xe7;" horiz-adv-x="399" 
d="M85 -224l-8 25q39 6 63 22.5t24 39.5q0 21 -14.5 31.5t-36.5 10.5q-16 0 -30 -2l-5 7l52 79q-46 5 -73 44.5t-27 108.5q0 188 90 264q4 3 21 15.5t21 15.5t18.5 13t19.5 13l17.5 10.5t19.5 9.5t17 6t19 5t18 1q33 0 62.5 -25t37.5 -62v-30l-47 -48h-31q0 58 -12.5 81.5
t-40.5 23.5q-54 0 -96.5 -85.5t-42.5 -184.5q0 -108 67 -108q26 0 65.5 20t72.5 49l17 -38q-83 -77 -166 -95l-29 -43q34 0 57 -18t23 -54q0 -38 -42 -66t-101 -36z" />
    <glyph glyph-name="egrave" unicode="&#xe8;" horiz-adv-x="429" 
d="M407 413q0 -142 -281 -214q-2 -28 -2 -42q0 -59 17.5 -81t59.5 -22q26 0 71.5 21.5t89.5 65.5l27 -33q-48 -49 -113 -84.5t-124 -35.5q-56 0 -89 36t-33 102q0 94 34.5 175.5t89.5 123.5q39 30 83 50t74 20q96 0 96 -82zM275 441q-49 -1 -88 -60.5t-55 -140.5
q178 46 178 160q0 18 -9.5 29.5t-25.5 11.5zM359 560v-8h-44l-114 162v10h92z" />
    <glyph glyph-name="eacute" unicode="&#xe9;" horiz-adv-x="429" 
d="M407 413q0 -142 -281 -214q-2 -28 -2 -42q0 -59 17.5 -81t59.5 -22q26 0 71.5 21.5t89.5 65.5l27 -33q-48 -49 -113 -84.5t-124 -35.5q-56 0 -89 36t-33 102q0 94 34.5 175.5t89.5 123.5q39 30 83 50t74 20q96 0 96 -82zM275 441q-49 -1 -88 -60.5t-55 -140.5
q178 46 178 160q0 18 -9.5 29.5t-25.5 11.5zM261 552v8l113 164h90v-10l-149 -162h-54z" />
    <glyph glyph-name="ecircumflex" unicode="&#xea;" horiz-adv-x="429" 
d="M407 413q0 -142 -281 -214q-2 -28 -2 -42q0 -59 17.5 -81t59.5 -22q26 0 71.5 21.5t89.5 65.5l27 -33q-48 -49 -113 -84.5t-124 -35.5q-56 0 -89 36t-33 102q0 94 34.5 175.5t89.5 123.5q39 30 83 50t74 20q96 0 96 -82zM275 441q-49 -1 -88 -60.5t-55 -140.5
q178 46 178 160q0 18 -9.5 29.5t-25.5 11.5zM439 560v-8h-39l-52 99l-106 -99h-53v8l151 164h48z" />
    <glyph glyph-name="edieresis" unicode="&#xeb;" horiz-adv-x="429" 
d="M407 413q0 -142 -281 -214q-2 -28 -2 -42q0 -59 17.5 -81t59.5 -22q26 0 71.5 21.5t89.5 65.5l27 -33q-48 -49 -113 -84.5t-124 -35.5q-56 0 -89 36t-33 102q0 94 34.5 175.5t89.5 123.5q39 30 83 50t74 20q96 0 96 -82zM275 441q-49 -1 -88 -60.5t-55 -140.5
q178 46 178 160q0 18 -9.5 29.5t-25.5 11.5zM471 623q0 -20 -16.5 -35.5t-35.5 -15.5q-21 0 -37 15.5t-16 35.5q0 21 16 37t37 16q19 0 35.5 -16t16.5 -37zM310 623q0 -21 -15 -36t-37 -15q-21 0 -37 15.5t-16 35.5q0 21 16 37t37 16t36.5 -16t15.5 -37z" />
    <glyph glyph-name="igrave" unicode="&#xec;" horiz-adv-x="310" 
d="M291 86l-153 -98l-68 31l2 52l86 343l-113 -53l-16 33l139 96l79 -12l2 -49l-87 -359l116 43zM262 572v-8h-44l-114 162v10h92z" />
    <glyph glyph-name="iacute" unicode="&#xed;" horiz-adv-x="310" 
d="M291 86l-153 -98l-68 31l2 52l86 343l-113 -53l-16 33l139 96l79 -12l2 -49l-87 -359l116 43zM164 564v8l113 164h90v-10l-149 -162h-54z" />
    <glyph glyph-name="icircumflex" unicode="&#xee;" horiz-adv-x="310" 
d="M291 86l-153 -98l-68 31l2 52l86 343l-113 -53l-16 33l139 96l79 -12l2 -49l-87 -359l116 43zM342 572v-8h-39l-52 99l-106 -99h-53v8l151 164h48z" />
    <glyph glyph-name="idieresis" unicode="&#xef;" horiz-adv-x="310" 
d="M291 86l-153 -98l-68 31l2 52l86 343l-113 -53l-16 33l139 96l79 -12l2 -49l-87 -359l116 43zM374 635q0 -20 -16.5 -35.5t-35.5 -15.5q-21 0 -37 15.5t-16 35.5q0 21 16 37t37 16q19 0 35.5 -16t16.5 -37zM213 635q0 -21 -15.5 -36t-36.5 -15t-37 15.5t-16 35.5
q0 21 16 37t37 16t36.5 -16t15.5 -37z" />
    <glyph glyph-name="eth" unicode="&#xf0;" horiz-adv-x="469" 
d="M178 572l90 60q-37 47 -89 88l17 30q67 -33 120 -86l104 69l29 -39l-101 -67q91 -117 91 -265q0 -181 -77 -265q-116 -109 -207 -109q-61 0 -93 39.5t-32 98.5q0 192 83 275q54 41 109.5 67.5t93.5 26.5q6 0 25 -7q-15 55 -45 104l-89 -59zM120 171q0 -58 18 -89.5
t47 -31.5q52 0 91 46.5t55.5 105t16.5 113.5q0 114 -71 114q-62 0 -109.5 -74.5t-47.5 -183.5z" />
    <glyph glyph-name="ntilde" unicode="&#xf1;" horiz-adv-x="545" 
d="M379 -12l-58 30l6 57l66 291q9 53 -25 53q-21 0 -68.5 -24.5t-87.5 -56.5l-68 -322l-41 -16h-50l87 416l-104 -37l-14 28l134 83l68 -17l-8 -72h14q136 94 211 94q21 0 31.5 -12t13.5 -46.5t-12 -97.5l-60 -273l95 39l14 -26zM476 687l26 -10q-14 -47 -42.5 -82
t-54.5 -35q-15 0 -61 30t-61 30q-8 0 -14 -4t-12.5 -15.5t-10 -18.5t-11.5 -25l-29 12q11 39 41 78.5t48 39.5q19 0 62.5 -30.5t61.5 -30.5q16 0 33 19.5t24 41.5z" />
    <glyph glyph-name="ograve" unicode="&#xf2;" horiz-adv-x="469" 
d="M316 495q51 0 87 -34t36 -99q0 -181 -77 -265q-116 -109 -207 -109q-61 0 -93 39.5t-32 98.5q0 192 83 275q54 41 109.5 67.5t93.5 26.5zM120 171q0 -58 18 -89.5t47 -31.5q52 0 91 46.5t55.5 105t16.5 113.5q0 114 -71 114q-62 0 -109.5 -74.5t-47.5 -183.5zM352 560v-8
h-44l-114 162v10h92z" />
    <glyph glyph-name="oacute" unicode="&#xf3;" horiz-adv-x="469" 
d="M316 495q51 0 87 -34t36 -99q0 -181 -77 -265q-116 -109 -207 -109q-61 0 -93 39.5t-32 98.5q0 192 83 275q54 41 109.5 67.5t93.5 26.5zM120 171q0 -58 18 -89.5t47 -31.5q52 0 91 46.5t55.5 105t16.5 113.5q0 114 -71 114q-62 0 -109.5 -74.5t-47.5 -183.5zM254 552v8
l113 164h90v-10l-149 -162h-54z" />
    <glyph glyph-name="ocircumflex" unicode="&#xf4;" horiz-adv-x="469" 
d="M316 495q51 0 87 -34t36 -99q0 -181 -77 -265q-116 -109 -207 -109q-61 0 -93 39.5t-32 98.5q0 192 83 275q54 41 109.5 67.5t93.5 26.5zM120 171q0 -58 18 -89.5t47 -31.5q52 0 91 46.5t55.5 105t16.5 113.5q0 114 -71 114q-62 0 -109.5 -74.5t-47.5 -183.5zM432 560v-8
h-39l-52 99l-106 -99h-53v8l151 164h48z" />
    <glyph glyph-name="otilde" unicode="&#xf5;" horiz-adv-x="469" 
d="M316 495q51 0 87 -34t36 -99q0 -181 -77 -265q-116 -109 -207 -109q-61 0 -93 39.5t-32 98.5q0 192 83 275q54 41 109.5 67.5t93.5 26.5zM120 171q0 -58 18 -89.5t47 -31.5q52 0 91 46.5t55.5 105t16.5 113.5q0 114 -71 114q-62 0 -109.5 -74.5t-47.5 -183.5zM443 687
l26 -10q-14 -47 -42.5 -82t-54.5 -35q-14 0 -61 30t-61 30q-8 0 -14 -4t-12.5 -15.5t-10 -18.5t-11.5 -25l-29 12q11 39 41 78.5t48 39.5q19 0 62.5 -30.5t61.5 -30.5q16 0 33 19.5t24 41.5z" />
    <glyph glyph-name="odieresis" unicode="&#xf6;" horiz-adv-x="469" 
d="M316 495q51 0 87 -34t36 -99q0 -181 -77 -265q-116 -109 -207 -109q-61 0 -93 39.5t-32 98.5q0 192 83 275q54 41 109.5 67.5t93.5 26.5zM120 171q0 -58 18 -89.5t47 -31.5q52 0 91 46.5t55.5 105t16.5 113.5q0 114 -71 114q-62 0 -109.5 -74.5t-47.5 -183.5zM464 623
q0 -20 -16.5 -35.5t-35.5 -15.5q-21 0 -37 15.5t-16 35.5q0 21 16 37t37 16q19 0 35.5 -16t16.5 -37zM303 623q0 -21 -15.5 -36t-36.5 -15t-37 15.5t-16 35.5q0 21 16 37t37 16t36.5 -16t15.5 -37z" />
    <glyph glyph-name="divide" unicode="&#xf7;" horiz-adv-x="620" 
d="M570 230h-520v60h520v-60zM258 109q0 22 14.5 37t36.5 15t37 -15t15 -37t-15 -36.5t-37 -14.5t-36.5 14.5t-14.5 36.5zM258 411q0 22 14.5 37t36.5 15t37 -15t15 -37t-15 -36.5t-37 -14.5t-36.5 14.5t-14.5 36.5z" />
    <glyph glyph-name="oslash" unicode="&#xf8;" horiz-adv-x="469" 
d="M316 495q46 0 79 -27l40 50l34 -27l-46 -57q16 -30 16 -72q0 -181 -77 -265q-116 -109 -207 -109q-45 0 -75 22l-35 -44l-34 27l40 49q-21 36 -21 84q0 192 83 275q54 41 109.5 67.5t93.5 26.5zM120 171q0 -16 2 -40l213 263q-18 35 -58 35q-62 0 -109.5 -74.5
t-47.5 -183.5zM348 315q0 17 -1 25l-209 -259q16 -31 47 -31q52 0 91 46.5t55.5 105t16.5 113.5z" />
    <glyph glyph-name="ugrave" unicode="&#xf9;" horiz-adv-x="539" 
d="M385 -12l-70 37l14 82l-9 3q-137 -122 -217 -122q-27 0 -37.5 33t3.5 101l70 294l-100 -48l-16 34l135 88l63 -20l-2 -62l-62 -291q-12 -51 20 -51q21 0 74 39.5t89 84.5l57 266l48 24h48l-92 -416l103 39l14 -24zM365 560v-8h-44l-114 162v10h92z" />
    <glyph glyph-name="uacute" unicode="&#xfa;" horiz-adv-x="539" 
d="M385 -12l-70 37l14 82l-9 3q-137 -122 -217 -122q-27 0 -37.5 33t3.5 101l70 294l-100 -48l-16 34l135 88l63 -20l-2 -62l-62 -291q-12 -51 20 -51q21 0 74 39.5t89 84.5l57 266l48 24h48l-92 -416l103 39l14 -24zM267 552v8l113 164h90v-10l-149 -162h-54z" />
    <glyph glyph-name="ucircumflex" unicode="&#xfb;" horiz-adv-x="539" 
d="M385 -12l-70 37l14 82l-9 3q-137 -122 -217 -122q-27 0 -37.5 33t3.5 101l70 294l-100 -48l-16 34l135 88l63 -20l-2 -62l-62 -291q-12 -51 20 -51q21 0 74 39.5t89 84.5l57 266l48 24h48l-92 -416l103 39l14 -24zM445 560v-8h-39l-52 99l-106 -99h-53v8l151 164h48z" />
    <glyph glyph-name="udieresis" unicode="&#xfc;" horiz-adv-x="539" 
d="M385 -12l-70 37l14 82l-9 3q-137 -122 -217 -122q-27 0 -37.5 33t3.5 101l70 294l-100 -48l-16 34l135 88l63 -20l-2 -62l-62 -291q-12 -51 20 -51q21 0 74 39.5t89 84.5l57 266l48 24h48l-92 -416l103 39l14 -24zM477 623q0 -20 -16.5 -35.5t-35.5 -15.5q-21 0 -37 15.5
t-16 35.5q0 21 16 37t37 16q19 0 35.5 -16t16.5 -37zM316 623q0 -21 -15 -36t-37 -15q-21 0 -37 15.5t-16 35.5q0 21 16 37t37 16t36.5 -16t15.5 -37z" />
    <glyph glyph-name="yacute" unicode="&#xfd;" horiz-adv-x="526" 
d="M150 490l58 -26l15 -44l5 -307q0 -18 4 -28t9.5 -10.5t10.5 0.5q43 21 67 43q71 143 83 277l-22 58l67 37h44l17 -65q-40 -131 -85 -243.5t-98 -211.5t-112.5 -156t-116.5 -57q-29 0 -57 18.5t-38 46.5l39 69h27q21 -63 61 -63q37 0 85.5 55t87.5 159l-6 8
q-71 -52 -112 -52q-31 0 -36 96l-14 320l-94 -48l-20 31zM264 552v8l113 164h90v-10l-149 -162h-54z" />
    <glyph glyph-name="thorn" unicode="&#xfe;" horiz-adv-x="516" 
d="M272 753l27 -31l-84 -321l13 -6q114 95 188 95q34 0 52 -33.5t18 -76.5q0 -101 -27.5 -177.5t-70.5 -116.5q-45 -41 -90 -65.5t-73 -24.5q-35 0 -85 23l-43 -230l-40 -24h-55l44 203l140 696l-91 15v28zM393 337q0 40 -8.5 58t-28.5 18q-25 0 -66.5 -18.5t-82.5 -55.5
l-49 -239q3 -23 28.5 -36.5t49.5 -13.5q48 0 84.5 43.5t54.5 108t18 135.5z" />
    <glyph glyph-name="ydieresis" unicode="&#xff;" horiz-adv-x="526" 
d="M150 490l58 -26l15 -44l5 -307q0 -18 4 -28t9.5 -10.5t10.5 0.5q43 21 67 43q71 143 83 277l-22 58l67 37h44l17 -65q-40 -131 -85 -243.5t-98 -211.5t-112.5 -156t-116.5 -57q-29 0 -57 18.5t-38 46.5l39 69h27q21 -63 61 -63q37 0 85.5 55t87.5 159l-6 8
q-71 -52 -112 -52q-31 0 -36 96l-14 320l-94 -48l-20 31zM474 623q0 -20 -16.5 -35.5t-35.5 -15.5q-21 0 -37 15.5t-16 35.5q0 21 16 37t37 16q19 0 35.5 -16t16.5 -37zM313 623q0 -21 -15.5 -36t-36.5 -15t-37 15.5t-16 35.5q0 21 16 37t37 16t36.5 -16t15.5 -37z" />
    <glyph glyph-name="Amacron" unicode="&#x100;" horiz-adv-x="718" 
d="M486 57l-30 175h-231l-104 -175l83 -14l-7 -43h-221l8 43l69 14l372 606h49l114 -606l71 -14l-7 -43h-248l7 43zM394 517l-138 -233h191l-40 233h-13zM593 753h-254v58h254v-58z" />
    <glyph glyph-name="amacron" unicode="&#x101;" horiz-adv-x="507" 
d="M352 -12l-60 19l9 89l-9 5q-44 -42 -102.5 -77.5t-90.5 -35.5q-34 0 -51.5 33t-17.5 76q0 91 31.5 173.5t85.5 132.5q53 44 88.5 65.5t69.5 21.5q41 0 80 -33l29 32l49 -14l-83 -404l90 38l14 -27zM123 120q0 -58 36 -58q21 0 69 34.5t78 76.5l54 223q-30 44 -64 44
q-39 0 -80 -50t-67 -125t-26 -145zM477 574h-254v58h254v-58z" />
    <glyph glyph-name="Abreve" unicode="&#x102;" horiz-adv-x="718" 
d="M486 57l-30 175h-231l-104 -175l83 -14l-7 -43h-221l8 43l69 14l372 606h49l114 -606l71 -14l-7 -43h-248l7 43zM394 517l-138 -233h191l-40 233h-13zM458 711q-52 0 -76.5 38t-10.5 99h40q-7 -30 7.5 -51.5t46.5 -21.5q33 0 63 20.5t44 52.5h39q-22 -67 -65 -102
t-88 -35z" />
    <glyph glyph-name="abreve" unicode="&#x103;" horiz-adv-x="507" 
d="M352 -12l-60 19l9 89l-9 5q-44 -42 -102.5 -77.5t-90.5 -35.5q-34 0 -51.5 33t-17.5 76q0 91 31.5 173.5t85.5 132.5q53 44 88.5 65.5t69.5 21.5q41 0 80 -33l29 32l49 -14l-83 -404l90 38l14 -27zM123 120q0 -58 36 -58q21 0 69 34.5t78 76.5l54 223q-30 44 -64 44
q-39 0 -80 -50t-67 -125t-26 -145zM347 547q-43 0 -63.5 42t-8.5 110h40q-6 -37 5.5 -62.5t38.5 -25.5t52 25t35 63h39q-20 -73 -59 -112.5t-79 -39.5z" />
    <glyph glyph-name="Aogonek" unicode="&#x104;" horiz-adv-x="718" 
d="M486 57l-30 175h-231l-104 -175l83 -14l-7 -43h-221l8 43l69 14l372 606h49l114 -606l71 -14l-7 -43h-211q-50 -40 -50 -94q0 -62 45 -62q6 0 16 2v-32q-18 -5 -34 -5q-39 0 -68 20.5t-29 57.5q0 70 85 125l5 31zM394 517l-138 -233h191l-40 233h-13z" />
    <glyph glyph-name="aogonek" unicode="&#x105;" horiz-adv-x="507" 
d="M352 -12l-28 9q-56 -41 -56 -99q0 -62 45 -62q6 0 16 2v-32q-18 -5 -34 -5q-39 0 -68 20.5t-29 57.5q0 74 94 130l9 87l-9 5q-44 -42 -102.5 -77.5t-90.5 -35.5q-34 0 -51.5 33t-17.5 76q0 91 31.5 173.5t85.5 132.5q53 44 88.5 65.5t69.5 21.5q41 0 80 -33l29 32l49 -14
l-83 -404l90 38l14 -27zM123 120q0 -58 36 -58q21 0 69 34.5t78 76.5l54 223q-30 44 -64 44q-39 0 -80 -50t-67 -125t-26 -145z" />
    <glyph glyph-name="Cacute" unicode="&#x106;" horiz-adv-x="654" 
d="M360 41q64 0 121 21l88 120h40l-60 -154q-46 -15 -63.5 -20t-59.5 -12t-87 -7q-129 0 -208.5 70t-79.5 196q0 97 34.5 177.5t93 132.5t134.5 80.5t161 28.5q44 0 97.5 -12.5t85.5 -30.5l-18 -156h-41l-21 107q-33 45 -125 45q-34 0 -70 -10.5t-75 -37.5t-69.5 -67
t-50.5 -104.5t-20 -144.5q0 -63 18 -109t48.5 -69.5t61.5 -33.5t65 -10zM411 721v8l101 129h94v-10l-144 -127h-51z" />
    <glyph glyph-name="cacute" unicode="&#x107;" horiz-adv-x="399" 
d="M291 495q33 0 62.5 -25t37.5 -62v-30l-47 -48h-31q0 58 -12.5 81.5t-40.5 23.5q-54 0 -96.5 -85.5t-42.5 -184.5q0 -108 67 -108q26 0 65.5 20t72.5 49l17 -38q-48 -44 -103 -72t-99 -28q-49 0 -80 40.5t-31 113.5q0 188 90 264q4 3 21 15.5t21 15.5t18.5 13t19.5 13
l17.5 10.5t19.5 9.5t17 6t19 5t18 1zM234 552v8l113 164h90v-10l-149 -162h-54z" />
    <glyph glyph-name="Cdotaccent" unicode="&#x10a;" horiz-adv-x="654" 
d="M360 41q64 0 121 21l88 120h40l-60 -154q-46 -15 -63.5 -20t-59.5 -12t-87 -7q-129 0 -208.5 70t-79.5 196q0 97 34.5 177.5t93 132.5t134.5 80.5t161 28.5q44 0 97.5 -12.5t85.5 -30.5l-18 -156h-41l-21 107q-33 45 -125 45q-34 0 -70 -10.5t-75 -37.5t-69.5 -67
t-50.5 -104.5t-20 -144.5q0 -63 18 -109t48.5 -69.5t61.5 -33.5t65 -10zM439 777q0 27 18.5 50.5t45.5 23.5q19 0 32.5 -16t13.5 -39q0 -27 -20 -49t-44 -22q-20 0 -33 15.5t-13 36.5z" />
    <glyph glyph-name="cdotaccent" unicode="&#x10b;" horiz-adv-x="399" 
d="M291 495q33 0 62.5 -25t37.5 -62v-30l-47 -48h-31q0 58 -12.5 81.5t-40.5 23.5q-54 0 -96.5 -85.5t-42.5 -184.5q0 -108 67 -108q26 0 65.5 20t72.5 49l17 -38q-48 -44 -103 -72t-99 -28q-49 0 -80 40.5t-31 113.5q0 188 90 264q4 3 21 15.5t21 15.5t18.5 13t19.5 13
l17.5 10.5t19.5 9.5t17 6t19 5t18 1zM252 623q0 27 18.5 50.5t45.5 23.5q19 0 32.5 -16t13.5 -39q0 -27 -20 -49t-44 -22q-20 0 -33 15.5t-13 36.5z" />
    <glyph glyph-name="Ccaron" unicode="&#x10c;" horiz-adv-x="654" 
d="M360 41q64 0 121 21l88 120h40l-60 -154q-46 -15 -63.5 -20t-59.5 -12t-87 -7q-129 0 -208.5 70t-79.5 196q0 97 34.5 177.5t93 132.5t134.5 80.5t161 28.5q44 0 97.5 -12.5t85.5 -30.5l-18 -156h-41l-21 107q-33 45 -125 45q-34 0 -70 -10.5t-75 -37.5t-69.5 -67
t-50.5 -104.5t-20 -144.5q0 -63 18 -109t48.5 -69.5t61.5 -33.5t65 -10zM376 850v8h46l70 -76l128 76h46v-8l-161 -129h-48z" />
    <glyph glyph-name="ccaron" unicode="&#x10d;" horiz-adv-x="399" 
d="M291 495q33 0 62.5 -25t37.5 -62v-30l-47 -48h-31q0 58 -12.5 81.5t-40.5 23.5q-54 0 -96.5 -85.5t-42.5 -184.5q0 -108 67 -108q26 0 65.5 20t72.5 49l17 -38q-48 -44 -103 -72t-99 -28q-49 0 -80 40.5t-31 113.5q0 188 90 264q4 3 21 15.5t21 15.5t18.5 13t19.5 13
l17.5 10.5t19.5 9.5t17 6t19 5t18 1zM209 716v8h39l52 -99l106 99h53v-8l-151 -164h-48z" />
    <glyph glyph-name="Dcaron" unicode="&#x10e;" horiz-adv-x="747" 
d="M299 0h-311l8 43l80 14l96 549l-75 14l7 43h361q123 0 191 -64t68 -179q0 -188 -122.5 -304t-302.5 -116zM180 52h123q124 0 217 99.5t93 262.5q0 197 -190 197h-145zM312 850v8h46l70 -76l128 76h46v-8l-161 -129h-48z" />
    <glyph glyph-name="dcaron" unicode="&#x10f;" horiz-adv-x="508" 
d="M351 -12l-64 24l9 65l-8 5q-52 -41 -106 -67.5t-83 -26.5q-33 0 -51 33.5t-18 75.5q0 183 104 300q93 93 164 93q18 0 78 -17l35 189l-93 14v28l170 49l29 -31l-141 -648l95 27l13 -27zM123 124q0 -29 9 -45t22 -16q21 0 64.5 21t82.5 56l62 281q-30 19 -69 19
q-45 0 -85.5 -49t-63 -122t-22.5 -145zM550 545v8l56 199h84v-10l-94 -197h-46z" />
    <glyph glyph-name="Dcroat" unicode="&#x110;" horiz-adv-x="747" 
d="M299 0h-311l8 43l80 14l43 246h-93l10 55h92l44 248l-75 14l7 43h361q123 0 191 -64t68 -179q0 -188 -122.5 -304t-302.5 -116zM180 52h123q124 0 217 99.5t93 262.5q0 197 -190 197h-145l-45 -253h162l-10 -55h-161z" />
    <glyph glyph-name="dcroat" unicode="&#x111;" horiz-adv-x="508" 
d="M256 607h145l10 55l-93 14v28l170 49l29 -31l-25 -115h56v-50h-67l-105 -483l95 27l13 -27l-133 -86l-64 24l9 65l-8 5q-52 -41 -106 -67.5t-83 -26.5q-33 0 -51 33.5t-18 75.5q0 183 104 300q93 93 164 93q18 0 78 -17l15 84h-135v50zM123 124q0 -29 9 -45t22 -16
q21 0 64.5 21t82.5 56l62 281q-30 19 -69 19q-45 0 -85.5 -49t-63 -122t-22.5 -145z" />
    <glyph glyph-name="Emacron" unicode="&#x112;" horiz-adv-x="593" 
d="M180 50h261l66 121h41l-47 -176l-150 5h-363l8 43l82 14l96 549l-77 14l7 43h346l127 4l-16 -157h-36l-27 101l-218 1l-46 -256l179 6l37 95h38l-44 -242h-38l-2 95l-177 3zM510 753h-254v58h254v-58z" />
    <glyph glyph-name="emacron" unicode="&#x113;" horiz-adv-x="429" 
d="M407 413q0 -142 -281 -214q-2 -28 -2 -42q0 -59 17.5 -81t59.5 -22q26 0 71.5 21.5t89.5 65.5l27 -33q-48 -49 -113 -84.5t-124 -35.5q-56 0 -89 36t-33 102q0 94 34.5 175.5t89.5 123.5q39 30 83 50t74 20q96 0 96 -82zM275 441q-49 -1 -88 -60.5t-55 -140.5
q178 46 178 160q0 18 -9.5 29.5t-25.5 11.5zM453 574h-254v58h254v-58z" />
    <glyph glyph-name="Edotaccent" unicode="&#x116;" horiz-adv-x="593" 
d="M180 50h261l66 121h41l-47 -176l-150 5h-363l8 43l82 14l96 549l-77 14l7 43h346l127 4l-16 -157h-36l-27 101l-218 1l-46 -256l179 6l37 95h38l-44 -242h-38l-2 95l-177 3zM338 777q0 27 18.5 50.5t45.5 23.5q19 0 32.5 -16t13.5 -39q0 -27 -20 -49t-44 -22
q-20 0 -33 15.5t-13 36.5z" />
    <glyph glyph-name="edotaccent" unicode="&#x117;" horiz-adv-x="429" 
d="M407 413q0 -142 -281 -214q-2 -28 -2 -42q0 -59 17.5 -81t59.5 -22q26 0 71.5 21.5t89.5 65.5l27 -33q-48 -49 -113 -84.5t-124 -35.5q-56 0 -89 36t-33 102q0 94 34.5 175.5t89.5 123.5q39 30 83 50t74 20q96 0 96 -82zM275 441q-49 -1 -88 -60.5t-55 -140.5
q178 46 178 160q0 18 -9.5 29.5t-25.5 11.5zM279 623q0 27 18.5 50.5t45.5 23.5q19 0 32.5 -16t13.5 -39q0 -27 -20 -49t-44 -22q-20 0 -33 15.5t-13 36.5z" />
    <glyph glyph-name="Eogonek" unicode="&#x118;" horiz-adv-x="593" 
d="M180 50h261l66 121h41l-47 -176l-13 1q-75 -46 -75 -112q0 -62 45 -62q6 0 16 2v-32q-18 -5 -34 -5q-39 0 -68 20.5t-29 57.5q0 76 96 132l-88 3h-363l8 43l82 14l96 549l-77 14l7 43h346l127 4l-16 -157h-36l-27 101l-218 1l-46 -256l179 6l37 95h38l-44 -242h-38l-2 95
l-177 3z" />
    <glyph glyph-name="eogonek" unicode="&#x119;" horiz-adv-x="429" 
d="M407 413q0 -142 -281 -214q-2 -28 -2 -42q0 -59 17.5 -81t59.5 -22q26 0 71.5 21.5t89.5 65.5l27 -33q-55 -56 -122 -90q-63 -42 -63 -103q0 -62 45 -62q6 0 16 2v-32q-18 -5 -34 -5q-39 0 -68 20.5t-29 57.5q0 51 45 94q-18 -2 -27 -2q-56 0 -89 36t-33 102
q0 94 34.5 175.5t89.5 123.5q39 30 83 50t74 20q96 0 96 -82zM275 441q-49 -1 -88 -60.5t-55 -140.5q178 46 178 160q0 18 -9.5 29.5t-25.5 11.5z" />
    <glyph glyph-name="Ecaron" unicode="&#x11a;" horiz-adv-x="593" 
d="M180 50h261l66 121h41l-47 -176l-150 5h-363l8 43l82 14l96 549l-77 14l7 43h346l127 4l-16 -157h-36l-27 101l-218 1l-46 -256l179 6l37 95h38l-44 -242h-38l-2 95l-177 3zM275 850v8h46l70 -76l128 76h46v-8l-161 -129h-48z" />
    <glyph glyph-name="ecaron" unicode="&#x11b;" horiz-adv-x="429" 
d="M407 413q0 -142 -281 -214q-2 -28 -2 -42q0 -59 17.5 -81t59.5 -22q26 0 71.5 21.5t89.5 65.5l27 -33q-48 -49 -113 -84.5t-124 -35.5q-56 0 -89 36t-33 102q0 94 34.5 175.5t89.5 123.5q39 30 83 50t74 20q96 0 96 -82zM275 441q-49 -1 -88 -60.5t-55 -140.5
q178 46 178 160q0 18 -9.5 29.5t-25.5 11.5zM236 716v8h39l52 -99l106 99h53v-8l-151 -164h-48z" />
    <glyph glyph-name="Gbreve" unicode="&#x11e;" horiz-adv-x="736" 
d="M374 41q79 0 133 41l28 159l-89 14l7 43h244l-7 -43l-57 -14l-33 -189q-119 -63 -250 -63q-128 0 -213.5 70t-85.5 194q0 103 39.5 186t103 133t137.5 76t149 26q101 0 211 -39l-14 -167h-45l-24 109q-50 50 -150 50q-53 0 -102.5 -20.5t-92 -62t-68.5 -113t-26 -164.5
q0 -62 18.5 -108t49.5 -70.5t65 -36t72 -11.5zM487 711q-52 0 -76.5 38t-10.5 99h40q-7 -30 7.5 -51.5t46.5 -21.5q33 0 63 20.5t44 52.5h39q-22 -67 -65 -102t-88 -35z" />
    <glyph glyph-name="gbreve" unicode="&#x11f;" horiz-adv-x="471" 
d="M477 483v-71h-74q6 -12 6 -56q0 -71 -58.5 -129t-151.5 -64q-55 -75 10 -85q112 -18 155 -50.5t43 -85.5q0 -83 -77.5 -134t-183.5 -51q-87 0 -136 34.5t-49 88.5q0 97 144 148q-42 73 45 138q-45 11 -69 46.5t-24 74.5q0 90 64 146.5t145 56.5q80 0 122 -42l41 35h48z
M324 -77q0 38 -45 57t-134 26q-50 -17 -80 -48t-30 -73t33.5 -62.5t87.5 -20.5q69 0 118.5 33.5t49.5 87.5zM148 289q0 -86 58 -86q43 0 78 47.5t35 114.5q0 39 -17 60t-47 21q-41 0 -74 -48.5t-33 -108.5zM286 547q-43 0 -63.5 42t-8.5 110h40q-6 -37 5.5 -62.5t38.5 -25.5
t52 25t35 63h39q-20 -73 -59 -112.5t-79 -39.5z" />
    <glyph glyph-name="Gdotaccent" unicode="&#x120;" horiz-adv-x="736" 
d="M374 41q79 0 133 41l28 159l-89 14l7 43h244l-7 -43l-57 -14l-33 -189q-119 -63 -250 -63q-128 0 -213.5 70t-85.5 194q0 103 39.5 186t103 133t137.5 76t149 26q101 0 211 -39l-14 -167h-45l-24 109q-50 50 -150 50q-53 0 -102.5 -20.5t-92 -62t-68.5 -113t-26 -164.5
q0 -62 18.5 -108t49.5 -70.5t65 -36t72 -11.5zM450 777q0 27 18.5 50.5t45.5 23.5q19 0 32.5 -16t13.5 -39q0 -27 -20 -49t-44 -22q-20 0 -33 15.5t-13 36.5z" />
    <glyph glyph-name="gdotaccent" unicode="&#x121;" horiz-adv-x="471" 
d="M477 483v-71h-74q6 -12 6 -56q0 -71 -58.5 -129t-151.5 -64q-55 -75 10 -85q112 -18 155 -50.5t43 -85.5q0 -83 -77.5 -134t-183.5 -51q-87 0 -136 34.5t-49 88.5q0 97 144 148q-42 73 45 138q-45 11 -69 46.5t-24 74.5q0 90 64 146.5t145 56.5q80 0 122 -42l41 35h48z
M324 -77q0 38 -45 57t-134 26q-50 -17 -80 -48t-30 -73t33.5 -62.5t87.5 -20.5q69 0 118.5 33.5t49.5 87.5zM148 289q0 -86 58 -86q43 0 78 47.5t35 114.5q0 39 -17 60t-47 21q-41 0 -74 -48.5t-33 -108.5zM242 623q0 27 18.5 50.5t45.5 23.5q19 0 32.5 -16t13.5 -39
q0 -27 -20 -49t-44 -22q-20 0 -33 15.5t-13 36.5z" />
    <glyph glyph-name="Gcommaaccent" unicode="&#x122;" horiz-adv-x="736" 
d="M374 41q79 0 133 41l28 159l-89 14l7 43h244l-7 -43l-57 -14l-33 -189q-119 -63 -250 -63q-128 0 -213.5 70t-85.5 194q0 103 39.5 186t103 133t137.5 76t149 26q101 0 211 -39l-14 -167h-45l-24 109q-50 50 -150 50q-53 0 -102.5 -20.5t-92 -62t-68.5 -113t-26 -164.5
q0 -62 18.5 -108t49.5 -70.5t65 -36t72 -11.5zM299 -253l-32 16l45 88l22 99l78 -26l-50 -97z" />
    <glyph glyph-name="gcommaaccent" unicode="&#x123;" horiz-adv-x="471" 
d="M477 483v-71h-74q6 -12 6 -56q0 -71 -58.5 -129t-151.5 -64q-55 -75 10 -85q112 -18 155 -50.5t43 -85.5q0 -83 -77.5 -134t-183.5 -51q-87 0 -136 34.5t-49 88.5q0 97 144 148q-42 73 45 138q-45 11 -69 46.5t-24 74.5q0 90 64 146.5t145 56.5q80 0 122 -42l41 35h48z
M324 -77q0 38 -45 57t-134 26q-50 -17 -80 -48t-30 -73t33.5 -62.5t87.5 -20.5q69 0 118.5 33.5t49.5 87.5zM148 289q0 -86 58 -86q43 0 78 47.5t35 114.5q0 39 -17 60t-47 21q-41 0 -74 -48.5t-33 -108.5zM343 764l32 -16l-45 -88l-22 -99l-78 26l50 97z" />
    <glyph glyph-name="Hbar" unicode="&#x126;" horiz-adv-x="771" 
d="M81 516h77l16 90l-77 14l7 43h265l-7 -43l-84 -14l-16 -90h337l16 90l-78 14l7 43h265l-7 -43l-83 -14l-16 -90h70v-50h-79l-71 -409l77 -14l-7 -43h-265l7 43l84 14l46 265h-337l-46 -265l78 -14l-7 -43h-265l8 43l82 14l71 409h-68v50zM237 374h337l16 92h-337z" />
    <glyph glyph-name="hbar" unicode="&#x127;" horiz-adv-x="529" 
d="M72 591h80l14 73l-91 14v26l179 49l23 -31l-35 -131h122v-50h-136l-11 -43l-22 -97l9 -5q139 99 219 99q68 0 32 -156l-62 -275l95 38l13 -23l-137 -91l-63 34l6 68l66 276q12 53 -24 53q-22 0 -70.5 -27t-91.5 -64l-61 -303l-43 -25h-53l101 484l11 57h-70v50z" />
    <glyph glyph-name="Imacron" unicode="&#x12a;" horiz-adv-x="369" 
d="M123 663h265l-7 -43l-83 -14l-96 -549l77 -14l-7 -43h-265l7 43l83 14l96 549l-77 14zM404 753h-254v58h254v-58z" />
    <glyph glyph-name="imacron" unicode="&#x12b;" horiz-adv-x="310" 
d="M291 86l-153 -98l-68 31l2 52l86 343l-113 -53l-16 33l139 96l79 -12l2 -49l-87 -359l116 43zM356 586h-254v58h254v-58z" />
    <glyph glyph-name="Iogonek" unicode="&#x12e;" horiz-adv-x="369" 
d="M311 24v-6q-90 -49 -90 -120q0 -62 45 -62q6 0 16 2v-32q-18 -5 -34 -5q-39 0 -68 20.5t-29 57.5q0 68 79 121h-223l7 43l83 14l96 549l-77 14l7 43h265l-7 -43l-83 -14l-96 -549l77 -14l-3 -17l16 8z" />
    <glyph glyph-name="iogonek" unicode="&#x12f;" horiz-adv-x="310" 
d="M291 86l-153 -98q-45 -38 -45 -90q0 -62 45 -62q6 0 16 2v-32q-18 -5 -34 -5q-39 0 -68 20.5t-29 57.5q0 70 83 123l-36 17l2 52l86 343l-113 -53l-16 33l139 96l79 -12l2 -49l-87 -359l116 43zM177 674q0 27 18.5 49t43.5 22q53 0 53 -63q0 -26 -18 -48t-42 -22
q-26 0 -40.5 17t-14.5 45z" />
    <glyph glyph-name="Idotaccent" unicode="&#x130;" horiz-adv-x="369" 
d="M123 663h265l-7 -43l-83 -14l-96 -549l77 -14l-7 -43h-265l7 43l83 14l96 549l-77 14zM232 777q0 27 18.5 50.5t45.5 23.5q19 0 32.5 -16t13.5 -39q0 -27 -20 -49t-44 -22q-20 0 -33 15.5t-13 36.5z" />
    <glyph glyph-name="dotlessi" unicode="&#x131;" horiz-adv-x="310" 
d="M291 86l-153 -98l-68 31l2 52l86 343l-113 -53l-16 33l139 96l79 -12l2 -49l-87 -359l116 43z" />
    <glyph glyph-name="Kcommaaccent" unicode="&#x136;" horiz-adv-x="691" 
d="M278 606l-41 -233h35l253 224l-67 23l7 43h238l-7 -43l-93 -26l-259 -224l219 -313l65 -14l-7 -43h-263l7 43l75 14l-171 254h-43l-44 -254l77 -14l-7 -43h-264l8 43l82 14l96 549l-77 14l7 43h264l-7 -43zM255 -253l-32 16l45 88l22 99l78 -26l-50 -97z" />
    <glyph glyph-name="kcommaaccent" unicode="&#x137;" horiz-adv-x="484" 
d="M437 364h-18l-32 33q-50 0 -125 -99l-1 -20l100 -203l90 44l20 -24l-126 -107l-57 32l-101 225h-22l-44 -230l-41 -15h-50l104 534l20 135l-84 15v25l165 44l25 -31l-51 -233l-35 -199h23q54 76 127.5 138t98.5 62l64 -45zM134 -253l-32 16l45 88l22 99l78 -26l-50 -97z
" />
    <glyph glyph-name="Lacute" unicode="&#x139;" horiz-adv-x="552" 
d="M463 -5l-140 5h-335l8 43l82 14l96 549l-77 14l7 43h268l-7 -43l-87 -14l-98 -556h217l74 137h41zM183 721v8l101 129h94v-10l-144 -127h-51z" />
    <glyph glyph-name="lacute" unicode="&#x13a;" horiz-adv-x="278" 
d="M107 -16l-62 37l4 71l87 391l34 179l-101 20v27l180 44l28 -31l-52 -225l-91 -433l108 38l13 -27zM184 836v8l101 129h94v-10l-144 -127h-51z" />
    <glyph glyph-name="Lcommaaccent" unicode="&#x13b;" horiz-adv-x="552" 
d="M463 -5l-140 5h-335l8 43l82 14l96 549l-77 14l7 43h268l-7 -43l-87 -14l-98 -556h217l74 137h41zM197 -253l-32 16l45 88l22 99l78 -26l-50 -97z" />
    <glyph glyph-name="lcommaaccent" unicode="&#x13c;" horiz-adv-x="278" 
d="M107 -16l-62 37l4 71l87 391l34 179l-101 20v27l180 44l28 -31l-52 -225l-91 -433l108 38l13 -27zM47 -253l-32 16l45 88l22 99l78 -26l-50 -97z" />
    <glyph glyph-name="Lcaron" unicode="&#x13d;" horiz-adv-x="552" 
d="M463 -5l-140 5h-335l8 43l82 14l96 549l-77 14l7 43h268l-7 -43l-87 -14l-98 -556h217l74 137h41zM455 456v8l56 199h84v-10l-94 -197h-46z" />
    <glyph glyph-name="lcaron" unicode="&#x13e;" horiz-adv-x="313" 
d="M107 -16l-62 37l4 71l87 391l34 179l-101 20v27l180 44l28 -31l-52 -225l-91 -433l108 38l13 -27zM296 538v8l56 199h84v-10l-94 -197h-46z" />
    <glyph glyph-name="Ldot" unicode="&#x13f;" horiz-adv-x="552" 
d="M463 -5l-140 5h-335l8 43l82 14l96 549l-77 14l7 43h268l-7 -43l-87 -14l-98 -556h217l74 137h41zM398 362q0 27 18.5 46t45.5 19t46 -19t19 -46t-19 -45.5t-46 -18.5t-45.5 18.5t-18.5 45.5z" />
    <glyph glyph-name="ldot" unicode="&#x140;" horiz-adv-x="410" 
d="M107 -16l-62 37l4 71l87 391l34 179l-101 20v27l180 44l28 -31l-52 -225l-91 -433l108 38l13 -27zM239 285q0 27 18.5 46t45.5 19t46 -19t19 -46t-19 -45.5t-46 -18.5t-45.5 18.5t-18.5 45.5z" />
    <glyph glyph-name="Lslash" unicode="&#x141;" horiz-adv-x="552" 
d="M463 -5l-140 5h-335l8 43l82 14l33 191l-61 -35l-22 48l95 55l51 290l-77 14l7 43h268l-7 -43l-87 -14l-40 -224l126 73l22 -48l-160 -92l-46 -265h217l74 137h41z" />
    <glyph glyph-name="lslash" unicode="&#x142;" horiz-adv-x="278" 
d="M107 -16l-62 37l4 71l43 191l-42 -34l-28 38l86 71l28 125l34 179l-101 20v27l180 44l28 -31l-52 -225l-11 -50l56 46l28 -38l-99 -83l-65 -308l108 38l13 -27z" />
    <glyph glyph-name="Nacute" unicode="&#x143;" horiz-adv-x="755" 
d="M560 179h14l50 280l22 147l-75 14l7 43h215l-7 -43l-79 -14l-31 -152l-81 -456h-33l-340 513h-12l-52 -288l-24 -166l83 -14l-7 -43h-222l8 43l77 14l32 163l69 391l-77 9l7 43h144zM390 721v8l101 129h94v-10l-144 -127h-51z" />
    <glyph glyph-name="nacute" unicode="&#x144;" horiz-adv-x="545" 
d="M379 -12l-58 30l6 57l66 291q9 53 -25 53q-21 0 -68.5 -24.5t-87.5 -56.5l-68 -322l-41 -16h-50l87 416l-104 -37l-14 28l134 83l68 -17l-8 -72h14q136 94 211 94q21 0 31.5 -12t13.5 -46.5t-12 -97.5l-60 -273l95 39l14 -26zM287 552v8l113 164h90v-10l-149 -162h-54z
" />
    <glyph glyph-name="Ncommaaccent" unicode="&#x145;" horiz-adv-x="755" 
d="M560 179h14l50 280l22 147l-75 14l7 43h215l-7 -43l-79 -14l-31 -152l-81 -456h-33l-340 513h-12l-52 -288l-24 -166l83 -14l-7 -43h-222l8 43l77 14l32 163l69 391l-77 9l7 43h144zM280 -253l-32 16l45 88l22 99l78 -26l-50 -97z" />
    <glyph glyph-name="ncommaaccent" unicode="&#x146;" horiz-adv-x="545" 
d="M379 -12l-58 30l6 57l66 291q9 53 -25 53q-21 0 -68.5 -24.5t-87.5 -56.5l-68 -322l-41 -16h-50l87 416l-104 -37l-14 28l134 83l68 -17l-8 -72h14q136 94 211 94q21 0 31.5 -12t13.5 -46.5t-12 -97.5l-60 -273l95 39l14 -26zM175 -253l-32 16l45 88l22 99l78 -26
l-50 -97z" />
    <glyph glyph-name="Ncaron" unicode="&#x147;" horiz-adv-x="755" 
d="M560 179h14l50 280l22 147l-75 14l7 43h215l-7 -43l-79 -14l-31 -152l-81 -456h-33l-340 513h-12l-52 -288l-24 -166l83 -14l-7 -43h-222l8 43l77 14l32 163l69 391l-77 9l7 43h144zM355 850v8h46l70 -76l128 76h46v-8l-161 -129h-48z" />
    <glyph glyph-name="ncaron" unicode="&#x148;" horiz-adv-x="545" 
d="M379 -12l-58 30l6 57l66 291q9 53 -25 53q-21 0 -68.5 -24.5t-87.5 -56.5l-68 -322l-41 -16h-50l87 416l-104 -37l-14 28l134 83l68 -17l-8 -72h14q136 94 211 94q21 0 31.5 -12t13.5 -46.5t-12 -97.5l-60 -273l95 39l14 -26zM262 716v8h39l52 -99l106 99h53v-8
l-151 -164h-48z" />
    <glyph glyph-name="Omacron" unicode="&#x14c;" horiz-adv-x="785" 
d="M51 256q0 81 29.5 156t82 133.5t132.5 93.5t173 35q133 0 212 -67.5t79 -185.5q0 -191 -126 -311.5t-307 -120.5q-122 0 -198.5 70.5t-76.5 196.5zM435 627q-81 0 -144 -54.5t-93.5 -133.5t-30.5 -165q0 -236 197 -236q36 0 73 11t75 38t67 66t47.5 101t18.5 137
q0 236 -210 236zM616 753h-254v58h254v-58z" />
    <glyph glyph-name="omacron" unicode="&#x14d;" horiz-adv-x="469" 
d="M316 495q51 0 87 -34t36 -99q0 -181 -77 -265q-116 -109 -207 -109q-61 0 -93 39.5t-32 98.5q0 192 83 275q54 41 109.5 67.5t93.5 26.5zM120 171q0 -58 18 -89.5t47 -31.5q52 0 91 46.5t55.5 105t16.5 113.5q0 114 -71 114q-62 0 -109.5 -74.5t-47.5 -183.5zM446 574
h-254v58h254v-58z" />
    <glyph glyph-name="Ohungarumlaut" unicode="&#x150;" horiz-adv-x="785" 
d="M51 256q0 81 29.5 156t82 133.5t132.5 93.5t173 35q133 0 212 -67.5t79 -185.5q0 -191 -126 -311.5t-307 -120.5q-122 0 -198.5 70.5t-76.5 196.5zM435 627q-81 0 -144 -54.5t-93.5 -133.5t-30.5 -165q0 -236 197 -236q36 0 73 11t75 38t67 66t47.5 101t18.5 137
q0 236 -210 236zM506 721v8l106 129h89v-10l-149 -127h-46zM366 721v8l106 129h89v-10l-149 -127h-46z" />
    <glyph glyph-name="ohungarumlaut" unicode="&#x151;" horiz-adv-x="469" 
d="M316 495q51 0 87 -34t36 -99q0 -181 -77 -265q-116 -109 -207 -109q-61 0 -93 39.5t-32 98.5q0 192 83 275q54 41 109.5 67.5t93.5 26.5zM120 171q0 -58 18 -89.5t47 -31.5q52 0 91 46.5t55.5 105t16.5 113.5q0 114 -71 114q-62 0 -109.5 -74.5t-47.5 -183.5zM336 552v8
l106 164h89v-10l-154 -162h-41zM196 552v8l106 164h89v-10l-154 -162h-41z" />
    <glyph glyph-name="OE" unicode="&#x152;" horiz-adv-x="950" 
d="M537 50h261l66 121h41l-47 -176l-150 5h-279q-52 -11 -103 -11q-122 0 -198.5 70.5t-76.5 196.5q0 81 29.5 156t82 133.5t132.5 93.5t173 35q51 0 98 -11h241l127 4l-16 -157h-36l-27 101l-218 1l-46 -256l179 6l37 95h38l-44 -242h-38l-2 95l-177 3zM364 38q34 0 68 10
l99 562q-43 17 -96 17q-81 0 -144 -54.5t-93.5 -133.5t-30.5 -165q0 -236 197 -236z" />
    <glyph glyph-name="oe" unicode="&#x153;" horiz-adv-x="726" 
d="M316 495q40 0 72 -22t44 -64q8 9 19 16q39 30 83 50t74 20q96 0 96 -82q0 -142 -281 -214q-2 -28 -2 -42q0 -59 17.5 -81t59.5 -22q26 0 71.5 21.5t89.5 65.5l27 -33q-48 -49 -113 -84.5t-124 -35.5q-91 0 -115 84q-101 -84 -179 -84q-61 0 -93 39.5t-32 98.5
q0 192 83 275q54 41 109.5 67.5t93.5 26.5zM120 171q0 -58 18 -89.5t47 -31.5q52 0 91 46.5t55.5 105t16.5 113.5q0 114 -71 114q-62 0 -109.5 -74.5t-47.5 -183.5zM572 441q-49 -1 -88 -60.5t-55 -140.5q178 46 178 160q0 18 -9.5 29.5t-25.5 11.5z" />
    <glyph glyph-name="Racute" unicode="&#x154;" horiz-adv-x="674" 
d="M291 282h-70l-39 -225l87 -14l-7 -43h-274l8 43l82 14l96 549l-77 14l7 43h286q28 0 56.5 -6t58 -19t47.5 -39.5t18 -62.5q0 -64 -45 -130.5t-123 -100.5l-2 -11l160 -242l58 -29l-16 -37l-144 28zM278 606l-47 -268h85q60 0 99.5 44.5t39.5 127.5q0 96 -106 96h-71z
M297 721v8l101 129h94v-10l-144 -127h-51z" />
    <glyph glyph-name="racute" unicode="&#x155;" horiz-adv-x="379" 
d="M154 490l63 -27l-16 -74l12 -5q38 52 70 79t70 27q25 0 39 -10l-27 -128h-36l-21 43q-29 -4 -61 -29.5t-52 -66.5l-61 -279l-33 -20h-62l92 413l-92 -45l-17 34zM196 552v8l113 164h90v-10l-149 -162h-54z" />
    <glyph glyph-name="Rcaron" unicode="&#x158;" horiz-adv-x="674" 
d="M291 282h-70l-39 -225l87 -14l-7 -43h-274l8 43l82 14l96 549l-77 14l7 43h286q28 0 56.5 -6t58 -19t47.5 -39.5t18 -62.5q0 -64 -45 -130.5t-123 -100.5l-2 -11l160 -242l58 -29l-16 -37l-144 28zM278 606l-47 -268h85q60 0 99.5 44.5t39.5 127.5q0 96 -106 96h-71z
M262 850v8h46l70 -76l128 76h46v-8l-161 -129h-48z" />
    <glyph glyph-name="rcaron" unicode="&#x159;" horiz-adv-x="379" 
d="M154 490l63 -27l-16 -74l12 -5q38 52 70 79t70 27q25 0 39 -10l-27 -128h-36l-21 43q-29 -4 -61 -29.5t-52 -66.5l-61 -279l-33 -20h-62l92 413l-92 -45l-17 34zM171 716v8h39l52 -99l106 99h53v-8l-151 -164h-48z" />
    <glyph glyph-name="Sacute" unicode="&#x15a;" horiz-adv-x="543" 
d="M39 27l18 180h54q0 -89 28 -125t91 -36t107.5 35.5t44.5 95.5q0 43 -27 67.5t-88 51.5q-38 17 -57 26.5t-45.5 30t-38.5 48.5t-12 65q0 52 22.5 93t58 65.5t76 37t81.5 12.5q70 0 168 -30l-24 -165h-43q-1 75 -29.5 107t-83.5 32q-54 0 -91.5 -36t-37.5 -93
q0 -36 28 -60.5t78 -45.5q32 -13 49 -21t42.5 -24.5t38.5 -32.5t23 -40.5t10 -54.5q0 -84 -72.5 -152.5t-183.5 -68.5q-56 0 -109.5 12t-75.5 26zM311 721v8l101 129h94v-10l-144 -127h-51z" />
    <glyph glyph-name="sacute" unicode="&#x15b;" horiz-adv-x="370" 
d="M7 49v30l40 56h15q41 -83 104 -83q29 0 50.5 17t21.5 53q0 19 -12 36t-22.5 25t-35.5 26q-4 3 -17 11.5t-18 12t-16 12t-15.5 13.5t-12 14t-10.5 17t-5.5 18.5t-2.5 22.5q0 46 63 105.5t102 59.5q38 0 72.5 -15t49.5 -37v-25l-42 -58h-26q-11 33 -28 47.5t-52 14.5
q-33 0 -48.5 -18.5t-15.5 -43.5q0 -14 9.5 -27.5t18.5 -20.5t32.5 -22t32.5 -21q38 -27 59 -53.5t21 -63.5q0 -52 -63.5 -108t-130.5 -56q-34 0 -66.5 16.5t-51.5 44.5zM200 552v8l113 164h90v-10l-149 -162h-54z" />
    <glyph glyph-name="Scedilla" unicode="&#x15e;" horiz-adv-x="543" 
d="M145 -224l-8 25q39 6 63 22.5t24 39.5q0 21 -14.5 31.5t-36.5 10.5q-16 0 -30 -2l-5 7l53 80q-111 8 -152 37l18 180h54q0 -89 28 -125t91 -36t107.5 35.5t44.5 95.5q0 43 -27 67.5t-88 51.5q-38 17 -57 26.5t-45.5 30t-38.5 48.5t-12 65q0 52 22.5 93t58 65.5t76 37
t81.5 12.5q70 0 168 -30l-24 -165h-43q-1 75 -29.5 107t-83.5 32q-54 0 -91.5 -36t-37.5 -93q0 -36 28 -60.5t78 -45.5q32 -13 49 -21t42.5 -24.5t38.5 -32.5t23 -40.5t10 -54.5q0 -82 -69.5 -149.5t-176.5 -71.5l-26 -39q34 0 57 -18t23 -54q0 -38 -42 -66t-101 -36z" />
    <glyph glyph-name="scedilla" unicode="&#x15f;" horiz-adv-x="370" 
d="M58 -224l-8 25q39 6 63 22.5t24 39.5q0 21 -14.5 31.5t-36.5 10.5q-16 0 -30 -2l-5 7l53 80q-63 10 -97 59v30l40 56h15q41 -83 104 -83q29 0 50.5 17t21.5 53q0 19 -12 36t-22.5 25t-35.5 26q-4 3 -17 11.5t-18 12t-16 12t-15.5 13.5t-12 14t-10.5 17t-5.5 18.5
t-2.5 22.5q0 46 63 105.5t102 59.5q38 0 72.5 -15t49.5 -37v-25l-42 -58h-26q-11 33 -28 47.5t-52 14.5q-33 0 -48.5 -18.5t-15.5 -43.5q0 -14 9.5 -27.5t18.5 -20.5t32.5 -22t32.5 -21q38 -27 59 -53.5t21 -63.5q0 -47 -54 -99.5t-117 -62.5l-27 -40q34 0 57 -18t23 -54
q0 -38 -42 -66t-101 -36z" />
    <glyph glyph-name="Scaron" unicode="&#x160;" horiz-adv-x="543" 
d="M39 27l18 180h54q0 -89 28 -125t91 -36t107.5 35.5t44.5 95.5q0 43 -27 67.5t-88 51.5q-38 17 -57 26.5t-45.5 30t-38.5 48.5t-12 65q0 52 22.5 93t58 65.5t76 37t81.5 12.5q70 0 168 -30l-24 -165h-43q-1 75 -29.5 107t-83.5 32q-54 0 -91.5 -36t-37.5 -93
q0 -36 28 -60.5t78 -45.5q32 -13 49 -21t42.5 -24.5t38.5 -32.5t23 -40.5t10 -54.5q0 -84 -72.5 -152.5t-183.5 -68.5q-56 0 -109.5 12t-75.5 26zM276 850v8h46l70 -76l128 76h46v-8l-161 -129h-48z" />
    <glyph glyph-name="scaron" unicode="&#x161;" horiz-adv-x="370" 
d="M7 49v30l40 56h15q41 -83 104 -83q29 0 50.5 17t21.5 53q0 19 -12 36t-22.5 25t-35.5 26q-4 3 -17 11.5t-18 12t-16 12t-15.5 13.5t-12 14t-10.5 17t-5.5 18.5t-2.5 22.5q0 46 63 105.5t102 59.5q38 0 72.5 -15t49.5 -37v-25l-42 -58h-26q-11 33 -28 47.5t-52 14.5
q-33 0 -48.5 -18.5t-15.5 -43.5q0 -14 9.5 -27.5t18.5 -20.5t32.5 -22t32.5 -21q38 -27 59 -53.5t21 -63.5q0 -52 -63.5 -108t-130.5 -56q-34 0 -66.5 16.5t-51.5 44.5zM175 716v8h39l52 -99l106 99h53v-8l-151 -164h-48z" />
    <glyph glyph-name="Tcommaaccent" unicode="&#x162;" horiz-adv-x="666" 
d="M120 667l156 -4h246l168 4l-21 -187h-47l-13 133h-162l-99 -561l82 -14l-6 -38h-272l6 38l87 14l99 561h-161l-59 -133h-47zM232 -253l-32 16l45 88l22 99l78 -26l-50 -97z" />
    <glyph glyph-name="Tcommaaccent" unicode="&#x21a;" horiz-adv-x="666" 
d="M120 667l156 -4h246l168 4l-21 -187h-47l-13 133h-162l-99 -561l82 -14l-6 -38h-272l6 38l87 14l99 561h-161l-59 -133h-47zM232 -253l-32 16l45 88l22 99l78 -26l-50 -97z" />
    <glyph glyph-name="tcommaaccent" unicode="&#x163;" horiz-adv-x="338" 
d="M145 -12l-87 30l3 64l69 317h-80l9 45l86 17l24 142l80 40l23 -22l-46 -160h119l-9 -61l-119 -1l-72 -337l140 64l15 -32zM49 -253l-32 16l45 88l22 99l78 -26l-50 -97z" />
    <glyph glyph-name="tcommaaccent" unicode="&#x21b;" horiz-adv-x="338" 
d="M145 -12l-87 30l3 64l69 317h-80l9 45l86 17l24 142l80 40l23 -22l-46 -160h119l-9 -61l-119 -1l-72 -337l140 64l15 -32zM49 -253l-32 16l45 88l22 99l78 -26l-50 -97z" />
    <glyph glyph-name="Tcaron" unicode="&#x164;" horiz-adv-x="666" 
d="M120 667l156 -4h246l168 4l-21 -187h-47l-13 133h-162l-99 -561l82 -14l-6 -38h-272l6 38l87 14l99 561h-161l-59 -133h-47zM309 850v8h46l70 -76l128 76h46v-8l-161 -129h-48z" />
    <glyph glyph-name="tcaron" unicode="&#x165;" horiz-adv-x="338" 
d="M145 -12l-87 30l3 64l69 317h-80l9 45l86 17l24 142l80 40l23 -22l-46 -160h119l-9 -61l-119 -1l-72 -337l140 64l15 -32zM332 528v8l56 199h84v-10l-94 -197h-46z" />
    <glyph glyph-name="Umacron" unicode="&#x16a;" horiz-adv-x="735" 
d="M554 663h220l-7 -43l-70 -14l-28 -112l-51 -283q-6 -37 -27.5 -74.5t-56.5 -71t-89.5 -55t-118.5 -21.5q-120 0 -179.5 62t-44.5 142l72 413l-77 14l7 43h265l-7 -43l-84 -14l-70 -395q-12 -67 26.5 -111.5t122.5 -44.5q77 0 136.5 48.5t75.5 137.5l46 258l11 107l-79 14
zM608 753h-254v58h254v-58z" />
    <glyph glyph-name="umacron" unicode="&#x16b;" horiz-adv-x="539" 
d="M385 -12l-70 37l14 82l-9 3q-137 -122 -217 -122q-27 0 -37.5 33t3.5 101l70 294l-100 -48l-16 34l135 88l63 -20l-2 -62l-62 -291q-12 -51 20 -51q21 0 74 39.5t89 84.5l57 266l48 24h48l-92 -416l103 39l14 -24zM459 574h-254v58h254v-58z" />
    <glyph glyph-name="Ubreve" unicode="&#x16c;" horiz-adv-x="735" 
d="M554 663h220l-7 -43l-70 -14l-28 -112l-51 -283q-6 -37 -27.5 -74.5t-56.5 -71t-89.5 -55t-118.5 -21.5q-120 0 -179.5 62t-44.5 142l72 413l-77 14l7 43h265l-7 -43l-84 -14l-70 -395q-12 -67 26.5 -111.5t122.5 -44.5q77 0 136.5 48.5t75.5 137.5l46 258l11 107l-79 14
zM473 711q-52 0 -76.5 38t-10.5 99h40q-7 -30 7.5 -51.5t46.5 -21.5q33 0 63 20.5t44 52.5h39q-22 -67 -65 -102t-88 -35z" />
    <glyph glyph-name="ubreve" unicode="&#x16d;" horiz-adv-x="539" 
d="M385 -12l-70 37l14 82l-9 3q-137 -122 -217 -122q-27 0 -37.5 33t3.5 101l70 294l-100 -48l-16 34l135 88l63 -20l-2 -62l-62 -291q-12 -51 20 -51q21 0 74 39.5t89 84.5l57 266l48 24h48l-92 -416l103 39l14 -24zM329 547q-43 0 -63.5 42t-8.5 110h40q-6 -37 5.5 -62.5
t38.5 -25.5t52 25t35 63h39q-20 -73 -59 -112.5t-79 -39.5z" />
    <glyph glyph-name="Uring" unicode="&#x16e;" horiz-adv-x="735" 
d="M554 663h220l-7 -43l-70 -14l-28 -112l-51 -283q-6 -37 -27.5 -74.5t-56.5 -71t-89.5 -55t-118.5 -21.5q-120 0 -179.5 62t-44.5 142l72 413l-77 14l7 43h265l-7 -43l-84 -14l-70 -395q-12 -67 26.5 -111.5t122.5 -44.5q77 0 136.5 48.5t75.5 137.5l46 258l11 107l-79 14
zM394 815q0 39 27.5 66.5t66.5 27.5t66.5 -27.5t27.5 -66.5t-27.5 -66.5t-66.5 -27.5t-66.5 27.5t-27.5 66.5zM440 815q0 -22 13 -36.5t34 -14.5t34.5 14.5t13.5 36.5t-13.5 37.5t-34.5 15.5t-34 -15.5t-13 -37.5z" />
    <glyph glyph-name="uring" unicode="&#x16f;" horiz-adv-x="539" 
d="M385 -12l-70 37l14 82l-9 3q-137 -122 -217 -122q-27 0 -37.5 33t3.5 101l70 294l-100 -48l-16 34l135 88l63 -20l-2 -62l-62 -291q-12 -51 20 -51q21 0 74 39.5t89 84.5l57 266l48 24h48l-92 -416l103 39l14 -24zM245 636q0 39 27.5 66.5t66.5 27.5t66.5 -27.5
t27.5 -66.5t-27.5 -66.5t-66.5 -27.5t-66.5 27.5t-27.5 66.5zM291 636q0 -22 13 -36.5t34 -14.5t34.5 14.5t13.5 36.5t-13.5 37.5t-34.5 15.5t-34 -15.5t-13 -37.5z" />
    <glyph glyph-name="Uhungarumlaut" unicode="&#x170;" horiz-adv-x="735" 
d="M554 663h220l-7 -43l-70 -14l-28 -112l-51 -283q-6 -37 -27.5 -74.5t-56.5 -71t-89.5 -55t-118.5 -21.5q-120 0 -179.5 62t-44.5 142l72 413l-77 14l7 43h265l-7 -43l-84 -14l-70 -395q-12 -67 26.5 -111.5t122.5 -44.5q77 0 136.5 48.5t75.5 137.5l46 258l11 107l-79 14
zM498 721v8l106 129h89v-10l-149 -127h-46zM358 721v8l106 129h89v-10l-149 -127h-46z" />
    <glyph glyph-name="uhungarumlaut" unicode="&#x171;" horiz-adv-x="539" 
d="M385 -12l-70 37l14 82l-9 3q-137 -122 -217 -122q-27 0 -37.5 33t3.5 101l70 294l-100 -48l-16 34l135 88l63 -20l-2 -62l-62 -291q-12 -51 20 -51q21 0 74 39.5t89 84.5l57 266l48 24h48l-92 -416l103 39l14 -24zM349 552v8l106 164h89v-10l-154 -162h-41zM209 552v8
l106 164h89v-10l-154 -162h-41z" />
    <glyph glyph-name="Uogonek" unicode="&#x172;" horiz-adv-x="735" 
d="M554 663h220l-7 -43l-70 -14l-28 -112l-51 -283q-10 -59 -56.5 -116.5t-121.5 -85.5q-64 -43 -64 -105t45 -62q6 0 16 2v-32q-18 -5 -34 -5q-39 0 -68 20.5t-29 57.5q0 59 59 106q-26 -2 -39 -2q-120 0 -179.5 62t-44.5 142l72 413l-77 14l7 43h265l-7 -43l-84 -14
l-70 -395q-12 -67 26.5 -111.5t122.5 -44.5q77 0 136.5 48.5t75.5 137.5l46 258l11 107l-79 14z" />
    <glyph glyph-name="uogonek" unicode="&#x173;" horiz-adv-x="539" 
d="M385 -12l-1 1q-46 -40 -46 -91q0 -62 45 -62q6 0 16 2v-32q-18 -5 -34 -5q-39 0 -68 20.5t-29 57.5q0 71 86 125l-39 21l14 82l-9 3q-137 -122 -217 -122q-27 0 -37.5 33t3.5 101l70 294l-100 -48l-16 34l135 88l63 -20l-2 -62l-62 -291q-12 -51 20 -51q21 0 74 39.5
t89 84.5l57 266l48 24h48l-92 -416l103 39l14 -24z" />
    <glyph glyph-name="Wcircumflex" unicode="&#x174;" horiz-adv-x="970" 
d="M546 523h-8l-234 -523h-67l-85 606l-69 14l7 43h252l-7 -43l-76 -14l56 -438h12l224 500h68l66 -500h10l200 433l-96 23l6 39h217l-6 -39l-53 -27l-42 -75l-250 -522h-61zM741 729v-8h-46l-70 76l-128 -76h-46v8l161 129h48z" />
    <glyph glyph-name="wcircumflex" unicode="&#x175;" horiz-adv-x="747" 
d="M659 490h32q31 -29 31 -81q0 -89 -36 -176t-96 -147q-103 -98 -183 -98q-34 0 -52 31t-12 89l-7 3q-41 -52 -100.5 -87.5t-96.5 -35.5q-43 0 -59 34t-16 95q0 73 30.5 148t78.5 125l-7 20h-65l-43 -64l-29 11l30 92l48 31h123l27 -61q-53 -57 -76.5 -130t-23.5 -140
q0 -35 10.5 -58.5t30.5 -23.5q25 0 60 27.5t64 71.5q19 27 37.5 111t20.5 168l45 32l66 -13q-4 -21 -11.5 -55.5t-21 -94.5t-26.5 -120q-16 -125 33 -125q68 0 126 86t58 169q0 35 -12.5 54.5t-38.5 34.5v31zM570 560v-8h-39l-52 99l-106 -99h-53v8l151 164h48z" />
    <glyph glyph-name="Ycircumflex" unicode="&#x176;" horiz-adv-x="647" 
d="M374 356h12q37 79 106.5 164.5t131.5 135.5q27 22 57 1q25 -17 16 -37q-4 -8 -15 -14q-139 -74 -273 -298l-46 -251l79 -14l-5 -43h-265l5 43l82 14l44 239q-18 81 -64 167t-99 130l-63 9l5 38l98 32q37 -6 69.5 -38t56.5 -81t40 -97t28 -100zM569 729v-8h-46l-70 76
l-128 -76h-46v8l161 129h48z" />
    <glyph glyph-name="ycircumflex" unicode="&#x177;" horiz-adv-x="526" 
d="M150 490l58 -26l15 -44l5 -307q0 -18 4 -28t9.5 -10.5t10.5 0.5q43 21 67 43q71 143 83 277l-22 58l67 37h44l17 -65q-40 -131 -85 -243.5t-98 -211.5t-112.5 -156t-116.5 -57q-29 0 -57 18.5t-38 46.5l39 69h27q21 -63 61 -63q37 0 85.5 55t87.5 159l-6 8
q-71 -52 -112 -52q-31 0 -36 96l-14 320l-94 -48l-20 31zM442 560v-8h-39l-52 99l-106 -99h-53v8l151 164h48z" />
    <glyph glyph-name="Ydieresis" unicode="&#x178;" horiz-adv-x="647" 
d="M374 356h12q37 79 106.5 164.5t131.5 135.5q27 22 57 1q25 -17 16 -37q-4 -8 -15 -14q-139 -74 -273 -298l-46 -251l79 -14l-5 -43h-265l5 43l82 14l44 239q-18 81 -64 167t-99 130l-63 9l5 38l98 32q37 -6 69.5 -38t56.5 -81t40 -97t28 -100zM572 802q0 -20 -16.5 -35.5
t-35.5 -15.5q-21 0 -37 15.5t-16 35.5q0 21 16 37t37 16q19 0 35.5 -16t16.5 -37zM411 802q0 -20 -15.5 -35.5t-36.5 -15.5t-37 15.5t-16 35.5q0 21 16 37t37 16t36.5 -16t15.5 -37z" />
    <glyph glyph-name="Zacute" unicode="&#x179;" horiz-adv-x="633" 
d="M528 -5l-253 5h-272l-11 34l513 529l-4 14h-307l-56 -99h-38l44 189l153 -4h351l12 -21l-529 -544l3 -12h352l60 103h37zM338 721v8l101 129h94v-10l-144 -127h-51z" />
    <glyph glyph-name="zacute" unicode="&#x17a;" horiz-adv-x="440" 
d="M31 -3l-40 32l211 235l111 107l-3 9l-161 28l-37 -81l-29 4l20 135l60 27l220 -37l38 38l37 -33l-205 -218l-108 -107l5 -12l176 -50l57 97l25 -5l-31 -153l-51 -25l-247 69zM234 552v8l113 164h90v-10l-149 -162h-54z" />
    <glyph glyph-name="Zdotaccent" unicode="&#x17b;" horiz-adv-x="633" 
d="M528 -5l-253 5h-272l-11 34l513 529l-4 14h-307l-56 -99h-38l44 189l153 -4h351l12 -21l-529 -544l3 -12h352l60 103h37zM366 777q0 27 18.5 50.5t45.5 23.5q19 0 32.5 -16t13.5 -39q0 -27 -20 -49t-44 -22q-20 0 -33 15.5t-13 36.5z" />
    <glyph glyph-name="zdotaccent" unicode="&#x17c;" horiz-adv-x="440" 
d="M31 -3l-40 32l211 235l111 107l-3 9l-161 28l-37 -81l-29 4l20 135l60 27l220 -37l38 38l37 -33l-205 -218l-108 -107l5 -12l176 -50l57 97l25 -5l-31 -153l-51 -25l-247 69zM252 623q0 27 18.5 50.5t45.5 23.5q19 0 32.5 -16t13.5 -39q0 -27 -20 -49t-44 -22
q-20 0 -33 15.5t-13 36.5z" />
    <glyph glyph-name="Zcaron" unicode="&#x17d;" horiz-adv-x="633" 
d="M528 -5l-253 5h-272l-11 34l513 529l-4 14h-307l-56 -99h-38l44 189l153 -4h351l12 -21l-529 -544l3 -12h352l60 103h37zM303 850v8h46l70 -76l128 76h46v-8l-161 -129h-48z" />
    <glyph glyph-name="zcaron" unicode="&#x17e;" horiz-adv-x="440" 
d="M31 -3l-40 32l211 235l111 107l-3 9l-161 28l-37 -81l-29 4l20 135l60 27l220 -37l38 38l37 -33l-205 -218l-108 -107l5 -12l176 -50l57 97l25 -5l-31 -153l-51 -25l-247 69zM209 716v8h39l52 -99l106 99h53v-8l-151 -164h-48z" />
    <glyph glyph-name="florin" unicode="&#x192;" horiz-adv-x="540" 
d="M94 309l14 49h94l25 100q17 70 68 125t125 55q55 0 90 -21.5t35 -51.5q0 -20 -11 -33.5t-34 -13.5q-17 0 -28.5 11t-16.5 25t-17.5 25t-31.5 11q-31 0 -50.5 -34t-39.5 -105l-26 -93h120l-14 -49h-117l-88 -327q-23 -85 -65.5 -137t-99.5 -52q-41 0 -69.5 19.5
t-28.5 49.5q0 19 10 32t27 13q14 0 25 -10.5t17 -23.5t15.5 -23.5t20.5 -10.5q32 0 64 130l86 340h-99z" />
    <glyph glyph-name="Scommaaccent" unicode="&#x218;" horiz-adv-x="543" 
d="M39 27l18 180h54q0 -89 28 -125t91 -36t107.5 35.5t44.5 95.5q0 43 -27 67.5t-88 51.5q-38 17 -57 26.5t-45.5 30t-38.5 48.5t-12 65q0 52 22.5 93t58 65.5t76 37t81.5 12.5q70 0 168 -30l-24 -165h-43q-1 75 -29.5 107t-83.5 32q-54 0 -91.5 -36t-37.5 -93
q0 -36 28 -60.5t78 -45.5q32 -13 49 -21t42.5 -24.5t38.5 -32.5t23 -40.5t10 -54.5q0 -84 -72.5 -152.5t-183.5 -68.5q-56 0 -109.5 12t-75.5 26zM160 -253l-32 16l45 88l22 99l78 -26l-50 -97z" />
    <glyph glyph-name="scommaaccent" unicode="&#x219;" horiz-adv-x="370" 
d="M7 49v30l40 56h15q41 -83 104 -83q29 0 50.5 17t21.5 53q0 19 -12 36t-22.5 25t-35.5 26q-4 3 -17 11.5t-18 12t-16 12t-15.5 13.5t-12 14t-10.5 17t-5.5 18.5t-2.5 22.5q0 46 63 105.5t102 59.5q38 0 72.5 -15t49.5 -37v-25l-42 -58h-26q-11 33 -28 47.5t-52 14.5
q-33 0 -48.5 -18.5t-15.5 -43.5q0 -14 9.5 -27.5t18.5 -20.5t32.5 -22t32.5 -21q38 -27 59 -53.5t21 -63.5q0 -52 -63.5 -108t-130.5 -56q-34 0 -66.5 16.5t-51.5 44.5zM73 -253l-32 16l45 88l22 99l78 -26l-50 -97z" />
    <glyph glyph-name="schwa" unicode="&#x259;" horiz-adv-x="429" 
d="M47 70q0 42 25 77.5t68 61.5t88.5 43.5t98.5 31.5q3 21 3 42q0 59 -17.5 81t-59.5 22q-26 0 -71.5 -21.5t-89.5 -65.5l-27 33q48 49 113 84.5t124 35.5q56 0 89 -36t33 -102q0 -94 -34.5 -175.5t-89.5 -123.5q-39 -30 -83 -50t-74 -20q-96 0 -96 82zM179 42q49 1 87.5 60
t54.5 141q-177 -48 -177 -160q0 -18 9.5 -29.5t25.5 -11.5z" />
    <glyph glyph-name="quoteleft" unicode="&#x2bb;" horiz-adv-x="381" 
d="M316 733l36 -21l-85 -146l-40 -135l-97 34l76 132z" />
    <glyph glyph-name="quoteleft" unicode="&#x2018;" horiz-adv-x="381" 
d="M316 733l36 -21l-85 -146l-40 -135l-97 34l76 132z" />
    <glyph glyph-name="circumflex" unicode="&#x2c6;" horiz-adv-x="500" 
d="M376 506v-8h-39l-52 99l-106 -99h-53v8l151 164h48z" />
    <glyph glyph-name="caron" unicode="&#x2c7;" horiz-adv-x="500" 
d="M173 662v8h39l52 -99l106 99h53v-8l-151 -164h-48z" />
    <glyph glyph-name="breve" unicode="&#x2d8;" horiz-adv-x="500" 
d="M260 493q-43 0 -63.5 42t-8.5 110h40q-6 -37 5.5 -62.5t38.5 -25.5t52 25t35 63h39q-20 -73 -59 -112.5t-79 -39.5z" />
    <glyph glyph-name="dotaccent" unicode="&#x2d9;" horiz-adv-x="500" 
d="M216 569q0 27 18.5 50.5t45.5 23.5q19 0 32.5 -16t13.5 -39q0 -27 -20 -49t-44 -22q-20 0 -33 15.5t-13 36.5z" />
    <glyph glyph-name="ring" unicode="&#x2da;" horiz-adv-x="500" 
d="M176 582q0 39 27.5 66.5t66.5 27.5t66.5 -27.5t27.5 -66.5t-27.5 -66.5t-66.5 -27.5t-66.5 27.5t-27.5 66.5zM222 582q0 -22 13 -36.5t34 -14.5t34.5 14.5t13.5 36.5t-13.5 37.5t-34.5 15.5t-34 -15.5t-13 -37.5z" />
    <glyph glyph-name="ogonek" unicode="&#x2db;" horiz-adv-x="500" 
d="M289 24v-6q-90 -49 -90 -120q0 -62 45 -62q6 0 16 2v-32q-18 -5 -34 -5q-39 0 -68 20.5t-29 57.5q0 91 141 155z" />
    <glyph glyph-name="tilde" unicode="&#x2dc;" horiz-adv-x="500" 
d="M387 633l26 -10q-14 -47 -42.5 -82t-54.5 -35q-14 0 -61 30t-61 30q-8 0 -14 -4t-12.5 -15.5t-10 -18.5t-11.5 -25l-29 12q11 39 41 78.5t48 39.5q19 0 62.5 -30.5t61.5 -30.5q16 0 33 19.5t24 41.5z" />
    <glyph glyph-name="hungarumlaut" unicode="&#x2dd;" horiz-adv-x="500" 
d="M280 498v8l106 164h89v-10l-154 -162h-41zM140 498v8l106 164h89v-10l-154 -162h-41z" />
    <glyph glyph-name="Delta" unicode="&#x394;" horiz-adv-x="540" 
d="M530 0h-520l223 631h45zM237 494l-150 -439h320z" />
    <glyph glyph-name="Delta" unicode="&#x2206;" horiz-adv-x="540" 
d="M530 0h-520l223 631h45zM237 494l-150 -439h320z" />
    <glyph glyph-name="Omega" unicode="&#x3a9;" horiz-adv-x="540" 
d="M269 588q-72 0 -110 -69.5t-38 -155.5q0 -133 38 -228t91 -112l-6 -23h-223l-20 146h29l43 -94h54l6 10q-43 49 -72 128t-29 162q0 114 66.5 200t171.5 86t171.5 -86t66.5 -200q0 -83 -29 -162t-72 -128l6 -10h54l43 94h29l-20 -146h-223l-6 23q53 17 91 112t38 228
q0 53 -15 102.5t-50.5 86t-84.5 36.5z" />
    <glyph glyph-name="Omega" unicode="&#x2126;" horiz-adv-x="540" 
d="M269 588q-72 0 -110 -69.5t-38 -155.5q0 -133 38 -228t91 -112l-6 -23h-223l-20 146h29l43 -94h54l6 10q-43 49 -72 128t-29 162q0 114 66.5 200t171.5 86t171.5 -86t66.5 -200q0 -83 -29 -162t-72 -128l6 -10h54l43 94h29l-20 -146h-223l-6 23q53 17 91 112t38 228
q0 53 -15 102.5t-50.5 86t-84.5 36.5z" />
    <glyph glyph-name="lambda" unicode="&#x3bb;" horiz-adv-x="524" 
d="M256 608l115 -454q16 -65 24 -83.5t23 -18.5q12 0 27 27t32 27q16 0 25 -12t9 -30q0 -32 -25 -52.5t-60 -20.5q-77 0 -100 111l-55 224l-150 -326h-101l217 467l-33 135q-18 79 -58 79q-16 0 -41 -32.5t-43 -32.5q-36 0 -36 39q0 31 31 55t80 24q48 0 78 -35.5t41 -90.5z
" />
    <glyph glyph-name="pi" unicode="&#x3c0;" horiz-adv-x="540" 
d="M167 22q-26 -43 -65 -32q-28 8 -33 34q-5 24 19 43q56 57 80 127t24 183h-31q-35 0 -53 -13t-27 -48l-27 5q15 64 37.5 91t62.5 27h332v-62h-101l-21 -254q-4 -51 32 -51q42 0 65 62l25 -3q-36 -138 -112 -138q-43 0 -63 29t-15 79l27 276h-84q-5 -239 -72 -355z" />
    <glyph glyph-name="Wgrave" unicode="&#x1e80;" horiz-adv-x="970" 
d="M546 523h-8l-234 -523h-67l-85 606l-69 14l7 43h252l-7 -43l-76 -14l56 -438h12l224 500h68l66 -500h10l200 433l-96 23l6 39h217l-6 -39l-53 -27l-42 -75l-250 -522h-61zM636 729v-8h-48l-104 127v10h91z" />
    <glyph glyph-name="wgrave" unicode="&#x1e81;" horiz-adv-x="747" 
d="M659 490h32q31 -29 31 -81q0 -89 -36 -176t-96 -147q-103 -98 -183 -98q-34 0 -52 31t-12 89l-7 3q-41 -52 -100.5 -87.5t-96.5 -35.5q-43 0 -59 34t-16 95q0 73 30.5 148t78.5 125l-7 20h-65l-43 -64l-29 11l30 92l48 31h123l27 -61q-53 -57 -76.5 -130t-23.5 -140
q0 -35 10.5 -58.5t30.5 -23.5q25 0 60 27.5t64 71.5q19 27 37.5 111t20.5 168l45 32l66 -13q-4 -21 -11.5 -55.5t-21 -94.5t-26.5 -120q-16 -125 33 -125q68 0 126 86t58 169q0 35 -12.5 54.5t-38.5 34.5v31zM490 560v-8h-44l-114 162v10h92z" />
    <glyph glyph-name="Wacute" unicode="&#x1e82;" horiz-adv-x="970" 
d="M546 523h-8l-234 -523h-67l-85 606l-69 14l7 43h252l-7 -43l-76 -14l56 -438h12l224 500h68l66 -500h10l200 433l-96 23l6 39h217l-6 -39l-53 -27l-42 -75l-250 -522h-61zM526 721v8l101 129h94v-10l-144 -127h-51z" />
    <glyph glyph-name="wacute" unicode="&#x1e83;" horiz-adv-x="747" 
d="M659 490h32q31 -29 31 -81q0 -89 -36 -176t-96 -147q-103 -98 -183 -98q-34 0 -52 31t-12 89l-7 3q-41 -52 -100.5 -87.5t-96.5 -35.5q-43 0 -59 34t-16 95q0 73 30.5 148t78.5 125l-7 20h-65l-43 -64l-29 11l30 92l48 31h123l27 -61q-53 -57 -76.5 -130t-23.5 -140
q0 -35 10.5 -58.5t30.5 -23.5q25 0 60 27.5t64 71.5q19 27 37.5 111t20.5 168l45 32l66 -13q-4 -21 -11.5 -55.5t-21 -94.5t-26.5 -120q-16 -125 33 -125q68 0 126 86t58 169q0 35 -12.5 54.5t-38.5 34.5v31zM392 552v8l113 164h90v-10l-149 -162h-54z" />
    <glyph glyph-name="Wdieresis" unicode="&#x1e84;" horiz-adv-x="970" 
d="M546 523h-8l-234 -523h-67l-85 606l-69 14l7 43h252l-7 -43l-76 -14l56 -438h12l224 500h68l66 -500h10l200 433l-96 23l6 39h217l-6 -39l-53 -27l-42 -75l-250 -522h-61zM744 802q0 -20 -16.5 -35.5t-35.5 -15.5q-21 0 -37 15.5t-16 35.5q0 21 16 37t37 16
q19 0 35.5 -16t16.5 -37zM583 802q0 -20 -15.5 -35.5t-36.5 -15.5t-37 15.5t-16 35.5q0 21 16 37t37 16t36.5 -16t15.5 -37z" />
    <glyph glyph-name="wdieresis" unicode="&#x1e85;" horiz-adv-x="747" 
d="M659 490h32q31 -29 31 -81q0 -89 -36 -176t-96 -147q-103 -98 -183 -98q-34 0 -52 31t-12 89l-7 3q-41 -52 -100.5 -87.5t-96.5 -35.5q-43 0 -59 34t-16 95q0 73 30.5 148t78.5 125l-7 20h-65l-43 -64l-29 11l30 92l48 31h123l27 -61q-53 -57 -76.5 -130t-23.5 -140
q0 -35 10.5 -58.5t30.5 -23.5q25 0 60 27.5t64 71.5q19 27 37.5 111t20.5 168l45 32l66 -13q-4 -21 -11.5 -55.5t-21 -94.5t-26.5 -120q-16 -125 33 -125q68 0 126 86t58 169q0 35 -12.5 54.5t-38.5 34.5v31zM602 623q0 -20 -16.5 -35.5t-35.5 -15.5q-21 0 -37 15.5
t-16 35.5q0 21 16 37t37 16q19 0 35.5 -16t16.5 -37zM441 623q0 -21 -15.5 -36t-36.5 -15t-37 15.5t-16 35.5q0 21 16 37t37 16t36.5 -16t15.5 -37z" />
    <glyph glyph-name="uni1e9e" unicode="&#x1e9e;" horiz-adv-x="735" 
d="M455 -12q-88 0 -148 35l16 153h48q0 -140 92 -140q53 0 96.5 47.5t43.5 134.5q0 55 -25.5 88t-77.5 33q-48 0 -101 -29l-44 55l235 237l-3 12h-307l-99 -558l79 -16l-7 -40h-265l7 40l83 18l96 545l-76 21l6 39h615l3 -41l-223 -221l5 -11q28 5 49 5q72 0 113 -43.5
t41 -117.5q0 -78 -43 -136.5t-99 -84t-110 -25.5z" />
    <glyph glyph-name="Ygrave" unicode="&#x1ef2;" horiz-adv-x="647" 
d="M374 356h12q37 79 106.5 164.5t131.5 135.5q27 22 57 1q25 -17 16 -37q-4 -8 -15 -14q-139 -74 -273 -298l-46 -251l79 -14l-5 -43h-265l5 43l82 14l44 239q-18 81 -64 167t-99 130l-63 9l5 38l98 32q37 -6 69.5 -38t56.5 -81t40 -97t28 -100zM464 729v-8h-48l-104 127
v10h91z" />
    <glyph glyph-name="ygrave" unicode="&#x1ef3;" horiz-adv-x="526" 
d="M150 490l58 -26l15 -44l5 -307q0 -18 4 -28t9.5 -10.5t10.5 0.5q43 21 67 43q71 143 83 277l-22 58l67 37h44l17 -65q-40 -131 -85 -243.5t-98 -211.5t-112.5 -156t-116.5 -57q-29 0 -57 18.5t-38 46.5l39 69h27q21 -63 61 -63q37 0 85.5 55t87.5 159l-6 8
q-71 -52 -112 -52q-31 0 -36 96l-14 320l-94 -48l-20 31zM362 560v-8h-44l-114 162v10h92z" />
    <glyph glyph-name="uni2011" unicode="&#x2011;" horiz-adv-x="335" 
d="M50 303l64 -3h109l77 3l-15 -83l-61 3h-126l-63 -3z" />
    <glyph glyph-name="endash" unicode="&#x2013;" horiz-adv-x="484" 
d="M42 298h400v-73h-400v73z" />
    <glyph glyph-name="emdash" unicode="&#x2014;" horiz-adv-x="1020" 
d="M102 293h816v-63h-816v63z" />
    <glyph glyph-name="quoteright" unicode="&#x2019;" horiz-adv-x="381" 
d="M173 425l-36 21l85 146l40 135l97 -34l-76 -132z" />
    <glyph glyph-name="quotesinglbase" unicode="&#x201a;" horiz-adv-x="381" 
d="M77 -164l-36 21l85 146l40 135l97 -34l-76 -132z" />
    <glyph glyph-name="quotedblleft" unicode="&#x201c;" horiz-adv-x="581" 
d="M316 733l36 -21l-85 -146l-40 -135l-97 34l76 132zM516 733l36 -21l-85 -146l-40 -135l-97 34l76 132z" />
    <glyph glyph-name="quotedblright" unicode="&#x201d;" horiz-adv-x="581" 
d="M373 425l-36 21l85 146l40 135l97 -34l-76 -132zM173 425l-36 21l85 146l40 135l97 -34l-76 -132z" />
    <glyph glyph-name="quotedblbase" unicode="&#x201e;" horiz-adv-x="581" 
d="M277 -164l-36 21l85 146l40 135l97 -34l-76 -132zM77 -164l-36 21l85 146l40 135l97 -34l-76 -132z" />
    <glyph glyph-name="dagger" unicode="&#x2020;" horiz-adv-x="548" 
d="M417 713l-45 -210l173 26l-18 -100l-168 15l-103 -481h-39l65 481l-171 -17l17 99l162 -23l28 210h99z" />
    <glyph glyph-name="daggerdbl" unicode="&#x2021;" horiz-adv-x="548" 
d="M417 713l-46 -210l174 26l-18 -100l-168 15l-37 -173l182 28l-17 -100l-177 16l-54 -252h-39l34 252l-181 -18l18 99l170 -25l23 173l-170 -17l17 99l161 -23l29 210h99z" />
    <glyph glyph-name="bullet" unicode="&#x2022;" horiz-adv-x="572" 
d="M150 264q0 56 40 96t96 40t96 -40t40 -96t-40 -96t-96 -40t-96 40t-40 96z" />
    <glyph glyph-name="ellipsis" unicode="&#x2026;" horiz-adv-x="993" 
d="M100 57q0 27 18.5 46t45.5 19t46 -19t19 -46t-19 -45.5t-46 -18.5t-45.5 18.5t-18.5 45.5zM410 57q0 27 18.5 46t45.5 19t46 -19t19 -46t-19 -45.5t-46 -18.5t-45.5 18.5t-18.5 45.5zM720 57q0 27 18.5 46t45.5 19t46 -19t19 -46t-19 -45.5t-46 -18.5t-45.5 18.5
t-18.5 45.5z" />
    <glyph glyph-name="perthousand" unicode="&#x2030;" horiz-adv-x="828" 
d="M536 115q0 74 47 129t101 55q46 0 75 -32t29 -86q0 -86 -44 -139.5t-98 -53.5q-49 0 -79.5 36t-30.5 91zM701 254q-33 0 -62 -52.5t-29 -113.5q0 -28 11.5 -43.5t29.5 -15.5q34 0 62 41.5t28 120.5q0 30 -11.5 46.5t-28.5 16.5zM295 517l-3 -1q-1 -82 -44 -135.5
t-100 -53.5q-48 0 -78 36t-30 91q0 74 47 129t101 55q34 0 59.5 -18.5t36.5 -51.5q6 -15 25 -24.5t42 -9.5q48 0 84 31q24 67 55 67q24 0 24 -23q0 -30 -44 -61l-210 -286l-197 -282l-33 26l205 275l159 227l-2 2q-21 -12 -48 -12q-30 0 -49 19zM264 115q0 74 47 129t101 55
q46 0 75 -32t29 -86q0 -86 -44 -139.5t-98 -53.5q-49 0 -79.5 36t-30.5 91zM429 254q-33 0 -62 -52.5t-29 -113.5q0 -28 11.5 -43.5t29.5 -15.5q34 0 62 41.5t28 120.5q0 30 -11.5 46.5t-28.5 16.5zM205 593q-33 0 -62 -52.5t-29 -113.5q0 -59 43 -59q33 0 60.5 42.5
t27.5 119.5q0 30 -11.5 46.5t-28.5 16.5z" />
    <glyph glyph-name="uni2032" unicode="&#x2032;" horiz-adv-x="290" 
d="M143 376l70 266l96 -34l-114 -250z" />
    <glyph glyph-name="uni2033" unicode="&#x2033;" horiz-adv-x="480" 
d="M143 376l70 266l96 -34l-114 -250zM333 376l70 266l96 -34l-114 -250z" />
    <glyph glyph-name="guilsinglleft" unicode="&#x2039;" horiz-adv-x="445" 
d="M112 244l229 201l35 -35l-177 -177l-3 -14l101 -170l-42 -32l-149 205z" />
    <glyph glyph-name="guilsinglright" unicode="&#x203a;" horiz-adv-x="445" 
d="M353 218l-229 -201l-35 35l177 177l3 14l-101 170l42 32l149 -205z" />
    <glyph glyph-name="uni2042" unicode="&#x2042;" horiz-adv-x="896" 
d="M582 483l-128 41l51 -118q17 -40 -16 -58q-28 -15 -51 1q-15 11 -13 31l-8 139l-116 -84q-27 -18 -47 7q-20 24 -4 48q10 15 32 21l119 40l-110 90q-26 20 -9 46q15 23 41 18q17 -3 28 -20l77 -112l52 117q10 34 44 29q30 -5 39 -29q7 -20 -8 -39l-95 -94l122 2
q38 1 45 -29q7 -27 -14 -42q-13 -10 -31 -5zM379 103l-128 41l51 -118q17 -40 -16 -58q-28 -15 -51 1q-15 11 -13 31l-8 139l-116 -84q-27 -18 -47 7q-20 24 -4 48q10 15 32 21l119 40l-110 90q-26 20 -9 46q15 23 41 18q17 -3 28 -20l77 -112l52 117q10 34 44 29
q30 -5 39 -29q7 -20 -8 -39l-95 -94l122 2q38 1 45 -29q7 -27 -14 -42q-13 -10 -31 -5zM809 103l-128 41l51 -118q17 -40 -16 -58q-28 -15 -51 1q-15 11 -13 31l-8 139l-116 -84q-27 -18 -47 7q-20 24 -4 48q10 15 32 21l119 40l-110 90q-26 20 -9 46q15 23 41 18
q17 -4 28 -20l77 -112l52 117q10 34 44 29q30 -5 39 -29q7 -20 -8 -39l-95 -94l122 2q38 1 45 -29q7 -27 -14 -42q-13 -10 -31 -5z" />
    <glyph glyph-name="fraction" unicode="&#x2044;" 
d="M50 -29l320 370l298 353l40 -31l-308 -349l-310 -375z" />
    <glyph glyph-name="zero.sups" unicode="&#x2070;" horiz-adv-x="333" 
d="M110 532q0 96 53 166t131 70q52 0 82.5 -33t30.5 -96q0 -105 -53 -167.5t-122 -62.5q-56 0 -89 31t-33 92zM290 738q-42 0 -74.5 -65.5t-32.5 -149.5q0 -85 54 -85q41 0 69 64t28 152q0 84 -44 84z" />
    <glyph glyph-name="four.sups" unicode="&#x2074;" horiz-adv-x="322" 
d="M240 450l14 74h-149l-7 20q41 57 107 121.5t126 108.5l32 -13l-17 -81l-22 -123h62l-5 -32h-62q-2 -12 -7 -37t-7 -37q9 -1 29 -4.5t28 -4.5l-4 -27h-177l4 27zM160 557h100l21 130q-72 -58 -124 -128l2 1q0 -2 1 -3z" />
    <glyph glyph-name="five.sups" unicode="&#x2075;" horiz-adv-x="285" 
d="M179 409q-39 0 -73 17l-17 8l1 74h40q4 -21 8.5 -33.5t15.5 -23.5t26 -11q35 0 66 29t31 79t-34 50q-39 0 -82 -34l-31 9l54 188h104l84 7l-19 -65l-64 3h-75l-28 -92q40 21 68 21q40 0 68.5 -21.5t28.5 -58.5q0 -26 -13 -51.5t-33 -40.5q-67 -54 -126 -54z" />
    <glyph glyph-name="six.sups" unicode="&#x2076;" horiz-adv-x="304" 
d="M391 757q-78 -31 -118.5 -62.5t-69.5 -85.5q47 22 79 22q35 0 62 -20.5t27 -59.5q0 -62 -39 -92q-66 -50 -118 -50q-49 0 -78.5 25t-29.5 72q0 55 30 110t81 94q61 42 169 73zM255 594q-39 0 -73 -32h2q-7 -24 -7 -45q0 -35 14.5 -55t38.5 -20q30 0 49.5 26t19.5 66
q0 30 -12.5 45t-31.5 15z" />
    <glyph glyph-name="seven.sups" unicode="&#x2077;" horiz-adv-x="268" 
d="M383 761l12 -19q-132 -145 -182 -315q-4 -16 -48 -16q-20 0 -29 4t-4 15q33 69 68.5 124.5t58 82.5t60.5 69l-2 -1q0 1 -1 3t-1 3h-116q-8 0 -30 -51l-4 -6h-41l41 110l71 -3h147z" />
    <glyph glyph-name="eight.sups" unicode="&#x2078;" horiz-adv-x="303" 
d="M98 491q0 30 23 56t55 43v2q1 2 1 3l3 -2q-35 28 -35 63q0 47 39 79.5t91 32.5q47 0 74 -19.5t27 -51.5q0 -23 -19 -48t-47 -43l1 1q0 -1 -0.5 -2t-0.5 -2q53 -31 53 -73q0 -44 -42 -82.5t-109 -38.5q-48 0 -81 22t-33 60zM299 509q0 25 -22.5 41t-66.5 30
q-51 -31 -51 -87q0 -54 60 -54q34 0 57 20t23 50zM271 738q-24 0 -45 -15.5t-21 -40.5q0 -23 15.5 -37t53.5 -28q41 32 41 77q0 44 -44 44z" />
    <glyph glyph-name="nine.sups" unicode="&#x2079;" horiz-adv-x="304" 
d="M100 423q74 31 115 63t70 83q-46 -24 -80 -24q-35 0 -61.5 20.5t-26.5 60.5q0 20 10 47.5t29 43.5q65 51 119 51q49 0 78 -25.5t29 -72.5q0 -52 -32.5 -111t-80.5 -94q-68 -44 -167 -71zM234 585q38 0 71 33h-2q7 22 7 42q0 34 -14.5 54t-37.5 20q-31 0 -50 -26t-19 -66
q0 -28 13 -42.5t32 -14.5z" />
    <glyph glyph-name="Euro" unicode="&#x20ac;" horiz-adv-x="652" 
d="M98 389h59q40 114 124 181.5t181 67.5q106 0 181 -63l-52 -126h-29q16 76 -21 110t-87 34q-60 0 -112 -51.5t-82 -152.5h300l-17 -41h-293q-4 -14 -7 -35l-3 -14h284l-17 -41h-271q-8 -106 27 -163.5t91 -57.5q114 0 177 125l37 -13q-80 -161 -233 -161q-99 0 -156.5 71
t-48.5 199h-65l17 41h53q0 3 2 13q4 24 7 36h-63z" />
    <glyph glyph-name="uni2117" unicode="&#x2117;" horiz-adv-x="703" 
d="M358 261v26q28 0 44.5 21t16.5 58q0 61 -55 61h-28v-264l47 -7v-28h-154v28l39 7v264l-39 7v29h145q64 0 90 -23.5t26 -68.5q0 -48 -38.5 -79t-93.5 -31zM44 296q0 126 90.5 216.5t217.5 90.5q131 0 219 -89.5t88 -217.5q0 -127 -90.5 -217.5t-216.5 -90.5
q-129 0 -218.5 87t-89.5 221zM103 294q0 -110 70 -183t180 -73t178.5 72.5t68.5 183.5q0 114 -70.5 187.5t-177.5 73.5q-109 0 -179 -74.5t-70 -186.5z" />
    <glyph glyph-name="trademark" unicode="&#x2122;" horiz-adv-x="670" 
d="M618 634h-7l-109 -179h-17l-43 179h-5l-41 -150l32 -6l-4 -23h-92l4 23l34 6l53 193l-37 6l4 23h94l33 -165h7l100 165h92l-4 -23l-36 -6l-22 -193l30 -6l-4 -23h-118l4 23l35 6zM151 706h210l1 -74h-20l-24 47h-38l-34 -195l31 -6l-4 -23h-121l4 23l33 6l34 195h-37
l-40 -47h-21z" />
    <glyph glyph-name="oneseventh" unicode="&#x2150;" 
d="M50 -29l320 370l298 353l40 -31l-308 -349l-310 -375zM112 609l-5 33q89 26 123 52l37 -5l-54 -311q13 -1 39 -4.5t38 -4.5l-4 -27h-226l4 27l78 9l45 252l-14 -4q-33 -10 -61 -17zM696 327l12 -19q-132 -145 -182 -315q-4 -16 -48 -16q-20 0 -29 4t-4 15
q33 69 68.5 124.5t58 82.5t60.5 69l-2 -1q0 1 -1 3t-1 3h-116q-8 0 -30 -51l-4 -6h-41l41 110l71 -3h147z" />
    <glyph glyph-name="oneninth" unicode="&#x2151;" 
d="M50 -29l320 370l298 353l40 -31l-308 -349l-310 -375zM112 609l-5 33q89 26 123 52l37 -5l-54 -311q13 -1 39 -4.5t38 -4.5l-4 -27h-226l4 27l78 9l45 252l-14 -4q-33 -10 -61 -17zM413 -11q74 31 115 63t70 83q-46 -24 -80 -24q-35 0 -61.5 20.5t-26.5 60.5
q0 20 10 47.5t29 43.5q65 51 119 51q49 0 78 -25.5t29 -72.5q0 -52 -32.5 -111t-80.5 -94q-68 -44 -167 -71zM547 151q38 0 71 33h-2q7 22 7 42q0 34 -14.5 54t-37.5 20q-31 0 -50 -26t-19 -66q0 -28 13 -42.5t32 -14.5z" />
    <glyph glyph-name="onethird" unicode="&#x2153;" 
d="M50 -29l320 370l298 353l40 -31l-308 -349l-310 -375zM112 609l-5 33q89 26 123 52l37 -5l-54 -311q13 -1 39 -4.5t38 -4.5l-4 -27h-226l4 27l78 9l45 252l-14 -4q-33 -10 -61 -17zM521 5q22 0 43.5 20t21.5 56q0 27 -18.5 43t-37.5 16h-3q-7 0 -25 -3t-24 -3l-3 31
q54 8 91.5 34t37.5 56q0 36 -42 36q-59 0 -66 -56h-43l24 66q20 13 53.5 23t50.5 10q46 0 72 -17.5t26 -45.5q0 -48 -86 -96q0 -1 -0.5 -3l-0.5 -2q29 -8 48.5 -29.5t19.5 -47.5q0 -49 -48 -83.5t-104 -34.5q-61 0 -101 26l-7 76h41q6 -22 12.5 -35.5t24 -25t43.5 -11.5z
" />
    <glyph glyph-name="twothirds" unicode="&#x2154;" 
d="M50 -29l320 370l298 353l40 -31l-308 -349l-310 -375zM185 649q-60 0 -72 -66h-46l28 74q20 15 53.5 26.5t49.5 11.5q47 0 76.5 -23.5t29.5 -62.5q0 -45 -53 -97t-150 -122q1 -1 1 -2.5v-2.5q29 2 88 6t86 5l-9 -54h-247l-3 31q118 88 164.5 137t46.5 88q0 23 -12.5 37
t-30.5 14zM521 5q22 0 43.5 20t21.5 56q0 27 -18.5 43t-37.5 16h-3q-7 0 -25 -3t-24 -3l-3 31q54 8 91.5 34t37.5 56q0 36 -42 36q-59 0 -66 -56h-43l24 66q20 13 53.5 23t50.5 10q46 0 72 -17.5t26 -45.5q0 -48 -86 -96q0 -1 -0.5 -3l-0.5 -2q29 -8 48.5 -29.5t19.5 -47.5
q0 -49 -48 -83.5t-104 -34.5q-61 0 -101 26l-7 76h41q6 -22 12.5 -35.5t24 -25t43.5 -11.5z" />
    <glyph glyph-name="onefifth" unicode="&#x2155;" 
d="M50 -29l320 370l298 353l40 -31l-308 -349l-310 -375zM112 609l-5 33q89 26 123 52l37 -5l-54 -311q13 -1 39 -4.5t38 -4.5l-4 -27h-226l4 27l78 9l45 252l-14 -4q-33 -10 -61 -17zM492 -25q-39 0 -73 17l-17 8l1 74h40q4 -21 8.5 -33.5t15.5 -23.5t26 -11q35 0 66 29
t31 79t-34 50q-40 0 -82 -34l-31 9l54 188h104l84 7l-19 -65l-64 3h-75l-28 -92q40 21 68 21q40 0 68.5 -21.5t28.5 -58.5q0 -26 -13 -51.5t-33 -40.5q-67 -54 -126 -54z" />
    <glyph glyph-name="twofifths" unicode="&#x2156;" 
d="M50 -29l320 370l298 353l40 -31l-308 -349l-310 -375zM185 649q-60 0 -72 -66h-46l28 74q20 15 53.5 26.5t49.5 11.5q47 0 76.5 -23.5t29.5 -62.5q0 -45 -53 -97t-150 -122q1 -1 1 -2.5v-2.5q29 2 88 6t86 5l-9 -54h-247l-3 31q118 88 164.5 137t46.5 88q0 23 -12.5 37
t-30.5 14zM492 -25q-39 0 -73 17l-17 8l1 74h40q4 -21 8.5 -33.5t15.5 -23.5t26 -11q35 0 66 29t31 79t-34 50q-40 0 -82 -34l-31 9l54 188h104l84 7l-19 -65l-64 3h-75l-28 -92q40 21 68 21q40 0 68.5 -21.5t28.5 -58.5q0 -26 -13 -51.5t-33 -40.5q-67 -54 -126 -54z" />
    <glyph glyph-name="threefifths" unicode="&#x2157;" 
d="M50 -29l320 370l298 353l40 -31l-308 -349l-310 -375zM168 366q22 0 43.5 20t21.5 56q0 27 -18.5 43t-37.5 16h-3q-6 0 -24.5 -2.5t-24.5 -3.5l-3 31q54 8 91.5 34t37.5 56q0 36 -42 36q-59 0 -66 -56h-43l24 66q20 13 53.5 23t50.5 10q46 0 72 -17.5t26 -45.5
q0 -48 -86 -96v-2q-1 -2 -1 -3q29 -8 48.5 -29.5t19.5 -47.5q0 -49 -48 -83.5t-104 -34.5q-61 0 -101 26l-7 76h41q6 -22 12.5 -35.5t24 -25t43.5 -11.5zM492 -25q-39 0 -73 17l-17 8l1 74h40q4 -21 8.5 -33.5t15.5 -23.5t26 -11q35 0 66 29t31 79t-34 50q-40 0 -82 -34
l-31 9l54 188h104l84 7l-19 -65l-64 3h-75l-28 -92q40 21 68 21q40 0 68.5 -21.5t28.5 -58.5q0 -26 -13 -51.5t-33 -40.5q-67 -54 -126 -54z" />
    <glyph glyph-name="fourfifths" unicode="&#x2158;" 
d="M50 -29l320 370l298 353l40 -31l-308 -349l-310 -375zM145 377l14 74h-149l-7 20q41 57 107 121.5t126 108.5l32 -13l-17 -81l-22 -123h62l-5 -32h-62q-2 -12 -7 -37t-7 -37q9 -1 29 -4.5t28 -4.5l-4 -27h-177l4 27zM65 484h100l21 130q-72 -58 -124 -128l2 1q0 -2 1 -3z
M492 -25q-39 0 -73 17l-17 8l1 74h40q4 -21 8.5 -33.5t15.5 -23.5t26 -11q35 0 66 29t31 79t-34 50q-40 0 -82 -34l-31 9l54 188h104l84 7l-19 -65l-64 3h-75l-28 -92q40 21 68 21q40 0 68.5 -21.5t28.5 -58.5q0 -26 -13 -51.5t-33 -40.5q-67 -54 -126 -54z" />
    <glyph glyph-name="onesixth" unicode="&#x2159;" 
d="M50 -29l320 370l298 353l40 -31l-308 -349l-310 -375zM112 609l-5 33q89 26 123 52l37 -5l-54 -311q13 -1 39 -4.5t38 -4.5l-4 -27h-226l4 27l78 9l45 252l-14 -4q-33 -10 -61 -17zM684 323q-78 -31 -118.5 -62.5t-69.5 -85.5q47 22 79 22q35 0 62 -20.5t27 -59.5
q0 -62 -39 -92q-66 -50 -118 -50q-49 0 -78.5 25t-29.5 72q0 55 30 110t81 94q61 42 169 73zM548 160q-39 0 -73 -32h2q-7 -24 -7 -45q0 -35 14.5 -55t38.5 -20q30 0 49.5 26t19.5 66q0 30 -12.5 45t-31.5 15z" />
    <glyph glyph-name="fivesixths" unicode="&#x215a;" 
d="M50 -29l320 370l298 353l40 -31l-308 -349l-310 -375zM141 336q-39 0 -73 17l-17 8l1 74h40q4 -21 8.5 -33.5t15.5 -23.5t26 -11q35 0 66 29t31 79t-34 50q-39 0 -82 -34l-31 9l54 188h104l84 7l-19 -65l-64 3h-75l-28 -92q40 21 68 21q40 0 68.5 -21.5t28.5 -58.5
q0 -26 -13 -51.5t-33 -40.5q-67 -54 -126 -54zM684 323q-78 -31 -118.5 -62.5t-69.5 -85.5q47 22 79 22q35 0 62 -20.5t27 -59.5q0 -62 -39 -92q-66 -50 -118 -50q-49 0 -78.5 25t-29.5 72q0 55 30 110t81 94q61 42 169 73zM548 160q-39 0 -73 -32h2q-7 -24 -7 -45
q0 -35 14.5 -55t38.5 -20q30 0 49.5 26t19.5 66q0 30 -12.5 45t-31.5 15z" />
    <glyph glyph-name="oneeighth" unicode="&#x215b;" 
d="M411 57q0 30 23 56t55 43l1 2v3l3 -2q-35 28 -35 63q0 47 39 79.5t91 32.5q47 0 74 -19.5t27 -51.5q0 -23 -18.5 -48t-46.5 -43v-1q-1 -1 -1 -2q53 -31 53 -73q0 -44 -42 -82.5t-109 -38.5q-48 0 -81 22t-33 60zM50 -29l320 370l298 353l40 -31l-308 -349l-310 -375z
M112 609l-5 33q89 26 123 52l37 -5l-54 -311q13 -1 39 -4.5t38 -4.5l-4 -27h-226l4 27l78 9l45 252l-14 -4q-33 -10 -61 -17zM612 75q0 25 -22.5 41t-66.5 30q-51 -31 -51 -87q0 -54 60 -54q34 0 57 20t23 50zM584 304q-24 0 -45 -15.5t-21 -40.5q0 -23 15.5 -37t53.5 -28
q41 32 41 77q0 44 -44 44z" />
    <glyph glyph-name="threeeighths" unicode="&#x215c;" 
d="M411 57q0 30 23 56t55 43l1 2v3l3 -2q-35 28 -35 63q0 47 39 79.5t91 32.5q47 0 74 -19.5t27 -51.5q0 -23 -18.5 -48t-46.5 -43v-1q-1 -1 -1 -2q53 -31 53 -73q0 -44 -42 -82.5t-109 -38.5q-48 0 -81 22t-33 60zM50 -29l320 370l298 353l40 -31l-308 -349l-310 -375z
M168 366q22 0 43.5 20t21.5 56q0 27 -18.5 43t-37.5 16h-3q-6 0 -24.5 -2.5t-24.5 -3.5l-3 31q54 8 91.5 34t37.5 56q0 36 -42 36q-59 0 -66 -56h-43l24 66q20 13 53.5 23t50.5 10q46 0 72 -17.5t26 -45.5q0 -48 -86 -96v-2q-1 -2 -1 -3q29 -8 48.5 -29.5t19.5 -47.5
q0 -49 -48 -83.5t-104 -34.5q-61 0 -101 26l-7 76h41q6 -22 12.5 -35.5t24 -25t43.5 -11.5zM612 75q0 25 -22.5 41t-66.5 30q-51 -31 -51 -87q0 -54 60 -54q34 0 57 20t23 50zM584 304q-24 0 -45 -15.5t-21 -40.5q0 -23 15.5 -37t53.5 -28q41 32 41 77q0 44 -44 44z" />
    <glyph glyph-name="fiveeighths" unicode="&#x215d;" 
d="M411 57q0 30 23 56t55 43l1 2v3l3 -2q-35 28 -35 63q0 47 39 79.5t91 32.5q47 0 74 -19.5t27 -51.5q0 -23 -18.5 -48t-46.5 -43v-1q-1 -1 -1 -2q53 -31 53 -73q0 -44 -42 -82.5t-109 -38.5q-48 0 -81 22t-33 60zM50 -29l320 370l298 353l40 -31l-308 -349l-310 -375z
M141 336q-39 0 -73 17l-17 8l1 74h40q4 -21 8.5 -33.5t15.5 -23.5t26 -11q35 0 66 29t31 79t-34 50q-39 0 -82 -34l-31 9l54 188h104l84 7l-19 -65l-64 3h-75l-28 -92q40 21 68 21q40 0 68.5 -21.5t28.5 -58.5q0 -26 -13 -51.5t-33 -40.5q-67 -54 -126 -54zM612 75
q0 25 -22.5 41t-66.5 30q-51 -31 -51 -87q0 -54 60 -54q34 0 57 20t23 50zM584 304q-24 0 -45 -15.5t-21 -40.5q0 -23 15.5 -37t53.5 -28q41 32 41 77q0 44 -44 44z" />
    <glyph glyph-name="seveneighths" unicode="&#x215e;" 
d="M411 57q0 30 23 56t55 43l1 2v3l3 -2q-35 28 -35 63q0 47 39 79.5t91 32.5q47 0 74 -19.5t27 -51.5q0 -23 -18.5 -48t-46.5 -43v-1q-1 -1 -1 -2q53 -31 53 -73q0 -44 -42 -82.5t-109 -38.5q-48 0 -81 22t-33 60zM50 -29l320 370l298 353l40 -31l-308 -349l-310 -375z
M376 688l12 -19q-132 -145 -182 -315q-4 -16 -48 -16q-20 0 -29 4t-4 15q33 69 68.5 124.5t58 82.5t60.5 69l-2 -1q0 1 -1 3t-1 3h-116q-8 0 -30 -51l-4 -6h-41l41 110l71 -3h147zM612 75q0 25 -22.5 41t-66.5 30q-51 -31 -51 -87q0 -54 60 -54q34 0 57 20t23 50zM584 304
q-24 0 -45 -15.5t-21 -40.5q0 -23 15.5 -37t53.5 -28q41 32 41 77q0 44 -44 44z" />
    <glyph glyph-name="uni2191" unicode="&#x2191;" horiz-adv-x="700" 
d="M357 605l264 -237l-46 -61l-183 163v-420h-84v420l-183 -163l-47 61l266 237h13z" />
    <glyph glyph-name="uni2193" unicode="&#x2193;" horiz-adv-x="700" 
d="M621 287l-264 -237h-13l-266 237l47 61l183 -163v420h84v-420l183 163z" />
    <glyph glyph-name="partialdiff" unicode="&#x2202;" horiz-adv-x="540" 
d="M283 594q-84 0 -109 -130h-40l12 113q20 25 62 43t86 18q94 0 143 -78t49 -201q0 -179 -71 -275t-190 -96q-71 0 -121 48t-50 134q0 105 66 167t146 62q39 0 75 -18t53 -51l5 3v39q0 113 -27.5 167.5t-88.5 54.5zM381 270q-10 33 -37 55t-58 22q-55 0 -92.5 -48.5
t-37.5 -129.5q0 -60 21.5 -94.5t62.5 -34.5q57 0 99 63t42 167z" />
    <glyph glyph-name="product" unicode="&#x220f;" horiz-adv-x="540" 
d="M2 626h536v-40l-78 -15v-516l78 -15v-40h-252v40l78 15v516h-188v-516l78 -15v-40h-252v40l78 15v516l-78 15v40z" />
    <glyph glyph-name="summation" unicode="&#x2211;" horiz-adv-x="540" 
d="M146 89l5 -10h250l86 111h41l-50 -190h-465l-8 15l262 270v12l-242 317l8 12h441l26 -171h-36l-89 131h-210l-5 -7l198 -256v-16z" />
    <glyph glyph-name="minus" unicode="&#x2212;" horiz-adv-x="620" 
d="M570 230h-520v60h520v-60z" />
    <glyph glyph-name="radical" unicode="&#x221a;" horiz-adv-x="540" 
d="M317 61h13l152 695l49 -10l-184 -883h-37l-195 526l-98 -35l-16 37l175 59z" />
    <glyph glyph-name="infinity" unicode="&#x221e;" horiz-adv-x="540" 
d="M127 149q-60 0 -92 38.5t-32 88.5q0 54 36.5 92.5t87.5 38.5q74 0 141 -92q33 43 66.5 67.5t77.5 24.5q61 0 92.5 -38t31.5 -89q0 -54 -36.5 -92.5t-87.5 -38.5q-75 0 -141 91q-70 -91 -144 -91zM144 357q-33 0 -54 -22t-21 -59q0 -36 20.5 -57.5t50.5 -21.5q18 0 37 13
t31.5 28t33.5 43q-27 37 -49.5 56.5t-48.5 19.5zM395 199q33 0 54 22t21 59q0 35 -21 57t-50 22q-18 0 -37 -13.5t-31.5 -28t-33.5 -43.5q26 -37 48.5 -56t49.5 -19z" />
    <glyph glyph-name="integral" unicode="&#x222b;" horiz-adv-x="540" 
d="M303 497l12 -487q2 -94 -48 -154t-127 -60q-31 0 -53 17t-22 49q0 21 12.5 37.5t36.5 16.5q50 0 57 -64l26 -7q19 18 31 63.5t10 91.5l-12 487q-2 95 47.5 154t125.5 59q32 0 54.5 -16.5t22.5 -48.5q0 -21 -13 -37.5t-37 -16.5q-49 0 -56 64l-26 7q-44 -41 -41 -155z" />
    <glyph glyph-name="approxequal" unicode="&#x2248;" horiz-adv-x="540" 
d="M429 388l53 -22q-16 -49 -48.5 -82.5t-82.5 -33.5q-35 0 -89.5 36t-79.5 36q-24 0 -43 -10.5t-26.5 -20.5t-20.5 -31l-44 32q17 33 53.5 61t80.5 28q34 0 89 -35t81 -35q28 0 49.5 23t27.5 54zM445 229l47 -23q-14 -40 -51 -68t-78 -28q-43 0 -100.5 35.5t-80.5 35.5
q-39 0 -72 -64l-46 30q52 93 118 93q32 0 90 -35t91 -35q30 0 51.5 17t30.5 42z" />
    <glyph glyph-name="notequal" unicode="&#x2260;" horiz-adv-x="620" 
d="M482 491l-65 -121h153v-60h-185l-64 -120h249v-60h-281l-86 -160l-56 27l71 133h-168v60h200l64 120h-264v60h296l80 148z" />
    <glyph glyph-name="lessequal" unicode="&#x2264;" horiz-adv-x="620" 
d="M570 0h-520v60h520v-60zM570 545l-454 -179l454 -179v-57l-520 205v62l520 205v-57z" />
    <glyph glyph-name="greaterequal" unicode="&#x2265;" horiz-adv-x="620" 
d="M570 0h-520v60h520v-60zM504 366l-454 179v57l520 -205v-62l-520 -205v57z" />
    <glyph glyph-name="lozenge" unicode="&#x25ca;" horiz-adv-x="540" 
d="M269 -98l-245 373l245 375l246 -375zM108 275l161 -246l162 246l-162 248z" />
    <glyph glyph-name="uni2605" unicode="&#x2605;" horiz-adv-x="570" 
d="M127 -8l-4 3l66 186l-166 118l2 5l201 -7l57 193h6l58 -193l199 5l1 -4l-163 -117l66 -188l-3 -1l-161 118z" />
    <glyph glyph-name="commaaccent" unicode="&#xf6c3;" horiz-adv-x="500" 
d="M197 -253l-32 16l45 88l22 99l78 -26l-50 -97z" />
    <glyph glyph-name="apple" unicode="&#xf8ff;" horiz-adv-x="540" 
d="M209 720h11l32 -121l-3 -82l68 -8l64 99l8 99h12l7 -99l-17 -129l36 -85l35 -38l1 -6l-7 -8v-18l8 -4l-1 -9l-17 -36l-36 7l-11 101l-34 56l-13 -2l26 -60l4 -99l-37 -46l3 -22l26 -37l7 -71l-64 -23l-33 16l-35 57l-75 25l-28 47l-3 42l-30 41l-2 58l4 27l-11 44z
M487 244l6 -9l-3 -37l-12 -17l-5 -33l23 -8l-3 -10l-23 7l-43 -26l-5 10l39 23l5 36l-36 14l-13 31l-1 10l14 15l24 4zM270 305l36 -14l11 13l-3 14l-11 10l-30 -10zM327 64l3 -4l-7 -21l-40 -43l-68 -23l-97 14l-55 48l-18 62l34 95l11 -1l-9 -71l22 -41l37 -33l88 -16
l48 3zM142 438l9 -9l33 34l11 76h-18z" />
    <glyph glyph-name="zero.tnum" horiz-adv-x="550" 
d="M27 211q0 174 90.5 300.5t220.5 126.5q85 0 134.5 -59t49.5 -174q0 -190 -88.5 -304t-205.5 -114q-91 0 -146 56.5t-55 167.5zM330 591q-52 0 -99 -56t-74.5 -148.5t-27.5 -193.5q0 -82 29 -120t78 -38q52 0 95.5 55.5t67.5 146.5t24 195q0 81 -25 120t-68 39z" />
    <glyph glyph-name="one.tnum" horiz-adv-x="550" 
d="M140 493l-6 53q161 45 217 88l48 -5l-100 -571l141 -15l-7 -43h-385l7 43l143 15l84 477q-118 -37 -142 -42z" />
    <glyph glyph-name="two.tnum" horiz-adv-x="550" 
d="M298 562q-38 0 -66 -11.5t-44 -31t-24 -38.5t-12 -40h-56l50 131q35 27 91 46.5t85 19.5q79 0 129 -42t50 -110q0 -44 -29.5 -94t-88.5 -105t-114 -99t-138 -104l5 -14l314 20l-16 -90h-423l-5 52q216 163 301 251.5t85 161.5q0 43 -28 70t-66 27z" />
    <glyph glyph-name="three.tnum" horiz-adv-x="550" 
d="M233 36q45 0 89.5 38t44.5 104q0 51 -38.5 82t-78.5 31h-7l-73 -10l-5 50q99 14 167.5 62.5t68.5 105.5q0 68 -93 68q-121 0 -135 -101h-51l46 116q35 22 91 39t84 17q77 0 121 -30.5t44 -79.5q0 -52 -47.5 -99t-109.5 -79l-2 -10q53 -11 89 -50t36 -90q0 -59 -41 -109.5
t-101.5 -77t-121.5 -26.5q-99 0 -171 43l-12 137h44q9 -30 17.5 -49t26 -40t47 -31.5t71.5 -10.5z" />
    <glyph glyph-name="four.tnum" horiz-adv-x="550" 
d="M277 58l25 141h-272l-12 37q73 102 190 217.5t225 192.5l41 -17l-31 -147l-40 -230h113l-9 -52h-113l-25 -142l103 -15l-7 -43h-295l7 43zM355 503l-11 6q-132 -101 -244 -247l4 -10h207z" />
    <glyph glyph-name="five.tnum" horiz-adv-x="550" 
d="M175 -13q-28 0 -52.5 4.5t-36 9t-33.5 15.5t-29 14l2 132h44q7 -37 16 -61t32.5 -43.5t58.5 -19.5q69 0 131 54.5t62 147.5q0 44 -20.5 69.5t-57.5 25.5q-84 0 -155 -61l-39 12l101 340h177l135 10l-33 -108l-101 5h-153l-52 -179l9 -5q23 15 65.5 30t65.5 15
q68 0 115 -38t47 -104q0 -48 -21.5 -93.5t-55.5 -71.5q-126 -100 -222 -100z" />
    <glyph glyph-name="six.tnum" horiz-adv-x="550" 
d="M185 341l4 -5q98 52 162 52q58 0 103 -36.5t45 -106.5q0 -40 -15.5 -89t-51.5 -76q-124 -93 -207 -93t-133 45.5t-50 129.5q0 102 53.5 202.5t144.5 167.5q112 78 287 129l7 -40q-151 -62 -222.5 -118t-126.5 -162zM300 328q-80 0 -143 -61q-14 -48 -14 -86
q0 -64 30.5 -102t81.5 -38q61 0 101 49.5t40 124.5q0 55 -27.5 84t-68.5 29z" />
    <glyph glyph-name="seven.tnum" horiz-adv-x="550" 
d="M558 626l20 -31q-131 -146 -209 -277t-125 -298q-2 -11 -22 -19t-52 -8q-29 0 -43 6.5t-6 21.5q62 129 127 231t105.5 150.5t110.5 124.5l-5 14l-226 1q-18 0 -33.5 -25t-34.5 -69q-3 -8 -5 -12h-51l74 195l117 -5h258z" />
    <glyph glyph-name="eight.tnum" horiz-adv-x="550" 
d="M25 134q0 60 42.5 107.5t100.5 75.5l2 9q-61 46 -61 113q0 82 67.5 140.5t156.5 58.5q79 0 125.5 -34.5t46.5 -90.5q0 -44 -34.5 -89t-84.5 -76l-1 -8q95 -51 95 -134q0 -80 -72.5 -149.5t-189.5 -69.5q-82 0 -137.5 40t-55.5 107zM212 303q-105 -61 -105 -164
q0 -47 32 -75t93 -28q67 0 114 37.5t47 94.5q0 47 -46 77.5t-135 57.5zM326 590q-49 0 -92 -29t-43 -76q0 -45 31.5 -72.5t113.5 -54.5q46 35 66.5 70t20.5 80q0 39 -25.5 60.5t-71.5 21.5z" />
    <glyph glyph-name="nine.tnum" horiz-adv-x="550" 
d="M392 290l-4 5q-98 -57 -163 -57q-58 0 -103 36.5t-45 106.5q0 40 16 89t52 76q121 92 207 92q83 0 132.5 -45t49.5 -129q0 -100 -56.5 -206.5t-144.5 -166.5q-111 -77 -283 -126l-3 45q149 62 219.5 117.5t125.5 162.5zM277 304q79 0 143 61q13 49 13 81q0 64 -31 101
t-81 37q-62 0 -101 -49t-39 -125q0 -52 27.5 -79t68.5 -27z" />
    <glyph glyph-name="exclamdown.case" horiz-adv-x="333" 
d="M316 621q0 -27 -18.5 -46t-45.5 -19t-46 19t-19 46t19 45.5t46 18.5t45.5 -18.5t18.5 -45.5zM67 -22l-20 15l157 479l40 -4l-66 -460z" />
    <glyph glyph-name="questiondown.case" horiz-adv-x="443" 
d="M249 424l4 21l43 22q70 -26 73 -71q2 -30 -23 -57.5t-62 -47.5l-74 -40t-62.5 -44.5t-23.5 -51.5q2 -35 44.5 -63.5t74.5 -25.5q12 0 16 3l43 61l40 -29q-48 -118 -104 -122q-4 -1 -24 2q-69 15 -123.5 60t-58.5 99q-2 36 23.5 67.5t63.5 53.5t76 42t64.5 40.5t25.5 40.5
t-36 40zM409 621q0 -27 -18.5 -46t-45.5 -19t-46 19t-19 46t19 45.5t46 18.5t45.5 -18.5t18.5 -45.5z" />
    <glyph glyph-name="hyphen.case" horiz-adv-x="335" 
d="M70 353l64 -3h109l77 3l-15 -83l-61 3h-126l-63 -3z" />
    <glyph glyph-name="endash.case" horiz-adv-x="484" 
d="M62 348h400v-73h-400v73z" />
    <glyph glyph-name="emdash.case" horiz-adv-x="1020" 
d="M122 343h816v-63h-816v63z" />
    <glyph glyph-name="guilsinglleft.case" horiz-adv-x="445" 
d="M132 334l229 201l35 -35l-177 -177l-3 -14l101 -170l-42 -32l-149 205z" />
    <glyph glyph-name="guilsinglright.case" horiz-adv-x="445" 
d="M373 308l-229 -201l-35 35l177 177l3 14l-101 170l42 32l149 -205z" />
    <glyph glyph-name="guillemotleft.case" horiz-adv-x="652" 
d="M132 334l229 201l35 -35l-177 -177l-3 -14l101 -170l-42 -32l-149 205zM339 334l229 201l35 -35l-177 -177l-3 -14l101 -170l-42 -32l-149 205z" />
    <glyph glyph-name="guillemotright.case" horiz-adv-x="652" 
d="M580 308l-229 -201l-35 35l177 177l3 14l-101 170l42 32l149 -205zM373 308l-229 -201l-35 35l177 177l3 14l-101 170l42 32l149 -205z" />
    <glyph glyph-name="parenleft.case" horiz-adv-x="352" 
d="M259 -148l-35 -34q-78 56 -116 124t-42 159q-1 101 21 222t58 216q64 160 252 268l23 -39q-145 -99 -196 -242q-48 -151 -78 -390q-21 -178 113 -284z" />
    <glyph glyph-name="parenright.case" horiz-adv-x="352" 
d="M113 773l35 34q78 -56 116 -124t42 -159q1 -101 -21 -222t-58 -216q-64 -160 -252 -268l-23 39q145 99 196 242q48 151 78 390q21 178 -113 284z" />
    <glyph glyph-name="bracketleft.case" horiz-adv-x="335" 
d="M394 797l-7 -45l-153 -15l-148 -841l147 -15l-8 -45h-228l169 961h228z" />
    <glyph glyph-name="bracketright.case" horiz-adv-x="335" 
d="M-19 -164l7 45l153 15l148 841l-147 15l8 45h228l-169 -961h-228z" />
    <glyph glyph-name="braceleft.case" horiz-adv-x="435" 
d="M156 343l-2 -16q61 -9 97.5 -51t25.5 -105q-5 -28 -39.5 -95.5t-41.5 -107.5q-8 -44 23 -69t117 -25l-8 -42q-137 0 -181.5 35t-30.5 111q7 37 40 103t38 98q11 59 -27 90t-109 31l11 66q67 0 119 35t60 82q6 35 -4 93.5t-4 91.5q12 71 69 100.5t184 29.5l-8 -42
q-149 0 -164 -79q-7 -40 4.5 -102.5t7.5 -86.5q-9 -53 -60 -92.5t-117 -52.5z" />
    <glyph glyph-name="braceright.case" horiz-adv-x="435" 
d="M299 287l2 16q-61 9 -97.5 51t-25.5 105q5 28 39.5 95.5t41.5 107.5q8 44 -23 69t-117 25l8 42q137 0 181.5 -35t30.5 -111q-7 -37 -40 -103t-38 -98q-11 -59 27 -90t109 -31l-11 -66q-67 0 -119 -35t-60 -82q-6 -35 4 -93.5t4 -91.5q-12 -71 -69 -100.5t-184 -29.5l8 42
q149 0 164 79q7 40 -4.5 102.5t-7.5 86.5q9 53 60 92.5t117 52.5z" />
    <glyph glyph-name="zero.onum" horiz-adv-x="601" 
d="M47 188q0 125 91 216t211 91q91 0 150.5 -47t59.5 -145q0 -72 -27.5 -133t-71.5 -100.5t-98 -61t-108 -21.5q-96 0 -151.5 55.5t-55.5 145.5zM335 443q-81 0 -133.5 -74.5t-52.5 -186.5q0 -70 32.5 -106.5t81.5 -36.5q76 0 134.5 68t58.5 195q0 69 -31.5 105t-89.5 36z
" />
    <glyph glyph-name="one.onum" horiz-adv-x="425" 
d="M293 495l30 -14l-75 -419l114 -20l-7 -42h-326l7 42l121 20l62 344q-70 -24 -142 -33l-3 56q144 27 219 66z" />
    <glyph glyph-name="two.onum" horiz-adv-x="497" 
d="M21 0l-11 59q70 43 120 76.5t103.5 75.5t82 80.5t28.5 71.5q0 29 -20 44.5t-55 15.5q-40 0 -85.5 -23t-83.5 -62l-28 36q49 55 110 88t123 33q65 0 101 -30t36 -80q0 -37 -20.5 -73t-57 -68.5t-71 -57.5t-79.5 -54.5t-65 -44.5l3 -14l274 20l-20 -93h-385z" />
    <glyph glyph-name="three.onum" horiz-adv-x="442" 
d="M85 361l-26 31l85 77q51 26 94 26q57 0 91 -29.5t34 -75.5q0 -47 -27.5 -86.5t-69.5 -64.5l3 -10q50 0 76.5 -23.5t26.5 -65.5q0 -64 -49.5 -129t-117 -109t-133.5 -72t-103 -28l-50 76l28 37l76 -34q27 3 58.5 13t65 29t61 44t45 61t17.5 76q0 35 -20.5 57.5t-48.5 22.5
q-11 0 -24 -5l-73 -36l-16 44q13 8 46 26t45.5 25.5t34.5 23.5t30.5 28.5t16.5 30.5t8 39q0 30 -18 47.5t-46 17.5q-56 0 -120 -64z" />
    <glyph glyph-name="four.onum" horiz-adv-x="558" 
d="M259 -198l-22 25l27 91l21 121h-275l-14 23l415 433l49 -17l-31 -147l-43 -239h34l78 5l-11 -62l-72 5h-38l-20 -109l-11 -93zM339 332l-11 6l-228 -236l5 -10h190z" />
    <glyph glyph-name="five.onum" horiz-adv-x="472" 
d="M-17 -198h-5l-49 86l27 32l76 -39q55 4 110 26t97.5 68.5t42.5 106.5q0 87 -139 87q-15 0 -37 -2l-32 27l73 291h192l135 10l-33 -108l-100 5h-165l-37 -133l13 -13q12 1 35 1q83 0 134 -30.5t51 -92.5q0 -39 -21.5 -83.5t-65 -90.5t-122.5 -86t-180 -62z" />
    <glyph glyph-name="six.onum" horiz-adv-x="552" 
d="M193 341l4 -5q98 52 162 52q58 0 103 -36.5t45 -106.5q0 -40 -15.5 -89t-51.5 -76q-124 -93 -207 -93t-133 45.5t-50 129.5q0 102 53.5 202.5t144.5 167.5q112 78 287 129l7 -40q-151 -62 -222.5 -118t-126.5 -162zM308 328q-80 0 -143 -61q-14 -48 -14 -86
q0 -64 30.5 -102t81.5 -38q61 0 101 49.5t40 124.5q0 55 -27.5 84t-68.5 29z" />
    <glyph glyph-name="seven.onum" horiz-adv-x="483" 
d="M-31 -187l-8 31q276 329 421 542l-6 14l-299 1l19 89l127 -5h253l21 -31q-262 -371 -436 -642z" />
    <glyph glyph-name="eight.onum" horiz-adv-x="551" 
d="M36 134q0 60 42.5 107.5t100.5 75.5l2 9q-61 46 -61 113q0 82 67.5 140.5t156.5 58.5q79 0 125.5 -34.5t46.5 -90.5q0 -44 -34.5 -89t-84.5 -76l-1 -8q95 -51 95 -134q0 -80 -72.5 -149.5t-189.5 -69.5q-82 0 -137.5 40t-55.5 107zM223 303q-105 -61 -105 -164
q0 -47 32 -75t93 -28q67 0 114 37.5t47 94.5q0 47 -46 77.5t-135 57.5zM337 590q-49 0 -92 -29t-43 -76q0 -45 31.5 -72.5t113.5 -54.5q46 35 66.5 70t20.5 80q0 39 -25.5 60.5t-71.5 21.5z" />
    <glyph glyph-name="nine.onum" horiz-adv-x="540" 
d="M358 147l-4 5q-98 -57 -163 -57q-58 0 -103 36.5t-45 106.5q0 40 16 89t52 76q121 92 207 92q83 0 132.5 -45t49.5 -129q0 -101 -57 -208.5t-144 -174.5q-128 -97 -278 -149l-13 40q152 68 223.5 131t126.5 187zM243 161q79 0 143 61q13 49 13 81q0 64 -31 101t-81 37
q-62 0 -101 -49t-39 -125q0 -52 27.5 -79t68.5 -27z" />
    <glyph glyph-name="zero.onum.tnum" horiz-adv-x="550" 
d="M29 188q0 125 87 216t203 91q87 0 144.5 -47t57.5 -145q0 -141 -90.5 -228.5t-202.5 -87.5q-92 0 -145.5 55.5t-53.5 145.5zM306 443q-78 0 -128.5 -74.5t-50.5 -186.5q0 -70 31 -106.5t78 -36.5q73 0 129.5 68t56.5 195q0 69 -30 105t-86 36z" />
    <glyph glyph-name="one.onum.tnum" horiz-adv-x="550" 
d="M354 495l30 -14l-75 -419l114 -20l-7 -42h-326l7 42l121 20l62 344q-70 -24 -142 -33l-3 56q144 27 219 66z" />
    <glyph glyph-name="two.onum.tnum" horiz-adv-x="550" 
d="M46 0l-11 59q70 43 120 76.5t103.5 75.5t82 80.5t28.5 71.5q0 29 -20 44.5t-55 15.5q-40 0 -85.5 -23t-83.5 -62l-28 36q49 55 110 88t123 33q65 0 101 -30t36 -80q0 -37 -20.5 -73t-57 -68.5t-71 -57.5t-79.5 -54.5t-65 -44.5l3 -14l274 20l-20 -93h-385z" />
    <glyph glyph-name="three.onum.tnum" horiz-adv-x="550" 
d="M149 361l-26 31l85 77q51 26 94 26q57 0 91 -29.5t34 -75.5q0 -47 -27.5 -86.5t-69.5 -64.5l3 -10q50 0 76.5 -23.5t26.5 -65.5q0 -64 -49.5 -129t-117 -109t-133.5 -72t-103 -28l-50 76l28 37l76 -34q27 3 58.5 13t65 29t61 44t45 61t17.5 76q0 35 -20.5 57.5
t-48.5 22.5q-11 0 -24 -5l-73 -36l-16 44q13 8 46 26t45.5 25.5t34.5 23.5t30.5 28.5t16.5 30.5t8 39q0 30 -18 47.5t-46 17.5q-56 0 -120 -64z" />
    <glyph glyph-name="four.onum.tnum" horiz-adv-x="550" 
d="M251 -198l-22 25l27 91l21 121h-275l-14 23l415 433l49 -17l-31 -147l-43 -239h34l78 5l-11 -62l-72 5h-38l-20 -109l-11 -93zM331 332l-11 6l-228 -236l5 -10h190z" />
    <glyph glyph-name="five.onum.tnum" horiz-adv-x="550" 
d="M27 -198h-5l-49 86l27 32l76 -39q55 4 110 26t97.5 68.5t42.5 106.5q0 87 -139 87q-15 0 -37 -2l-32 27l73 291h192l135 10l-33 -108l-100 5h-165l-37 -133l13 -13q12 1 35 1q83 0 134 -30.5t51 -92.5q0 -39 -21.5 -83.5t-65 -90.5t-122.5 -86t-180 -62z" />
    <glyph glyph-name="six.onum.tnum" horiz-adv-x="550" 
d="M193 341l4 -5q98 52 162 52q58 0 103 -36.5t45 -106.5q0 -40 -15.5 -89t-51.5 -76q-124 -93 -207 -93t-133 45.5t-50 129.5q0 102 53.5 202.5t144.5 167.5q112 78 287 129l7 -40q-151 -62 -222.5 -118t-126.5 -162zM308 328q-80 0 -143 -61q-14 -48 -14 -86
q0 -64 30.5 -102t81.5 -38q61 0 101 49.5t40 124.5q0 55 -27.5 84t-68.5 29z" />
    <glyph glyph-name="seven.onum.tnum" horiz-adv-x="550" 
d="M10 -187l-8 31q276 329 421 542l-6 14l-299 1l19 89l127 -5h253l21 -31q-262 -371 -436 -642z" />
    <glyph glyph-name="eight.onum.tnum" horiz-adv-x="550" 
d="M35 134q0 60 42.5 107.5t100.5 75.5l2 9q-61 46 -61 113q0 82 67.5 140.5t156.5 58.5q79 0 125.5 -34.5t46.5 -90.5q0 -44 -34.5 -89t-84.5 -76l-1 -8q95 -51 95 -134q0 -80 -72.5 -149.5t-189.5 -69.5q-82 0 -137.5 40t-55.5 107zM222 303q-105 -61 -105 -164
q0 -47 32 -75t93 -28q67 0 114 37.5t47 94.5q0 47 -46 77.5t-135 57.5zM336 590q-49 0 -92 -29t-43 -76q0 -45 31.5 -72.5t113.5 -54.5q46 35 66.5 70t20.5 80q0 39 -25.5 60.5t-71.5 21.5z" />
    <glyph glyph-name="nine.onum.tnum" horiz-adv-x="550" 
d="M372 147l-4 5q-98 -57 -163 -57q-58 0 -103 36.5t-45 106.5q0 40 16 89t52 76q121 92 207 92q83 0 132.5 -45t49.5 -129q0 -100 -56.5 -206.5t-144.5 -166.5q-111 -77 -283 -126l-3 45q149 62 219.5 117.5t125.5 162.5zM257 161q79 0 143 61q13 49 13 81q0 64 -31 101
t-81 37q-62 0 -101 -49t-39 -125q0 -52 27.5 -79t68.5 -27z" />
    <glyph glyph-name="dollar.onum" horiz-adv-x="459" 
d="M27 20l14 136h51q-1 -64 19.5 -90t65.5 -28l34 177q-59 20 -95 56.5t-28 91.5q12 58 62.5 93t113.5 41l15 78h42l-15 -77q52 -2 120 -22l-18 -124h-43q-5 91 -67 100l-32 -168q67 -26 102 -59t26 -87q-10 -55 -59 -97t-124 -49l-15 -83h-43l15 82q-99 3 -141 29zM306 122
q5 43 -56 76l-29 -156q67 18 85 80zM176 373q-8 -44 51 -72l28 151q-32 -6 -52.5 -27t-26.5 -52z" />
    <glyph glyph-name="cent.onum" horiz-adv-x="433" 
d="M328 127l18 -31q-65 -57 -144 -71l-18 -105h-42l18 102q-72 6 -106.5 62.5t-21.5 134.5q18 103 73 147q61 50 128 72l19 108h42l-17 -98h7q64 0 97 -17l-19 -125h-39q2 42 -3 65q-27 18 -53 20l-54 -304q5 -1 14 -1q51 0 101 41zM119 261q-24 -129 54 -164l51 291
q-87 -20 -105 -127z" />
    <glyph glyph-name="sterling.onum" horiz-adv-x="460" 
d="M69 262h72l13 68q16 83 117 135q61 33 109 33q35 0 78 -16l-22 -116h-38q1 86 -60 86q-25 0 -50.5 -23.5t-34.5 -79.5l-17 -87h103l-6 -38h-105q-23 -87 -114 -155l2 -2q53 -4 165 -4q34 0 51 13.5t29 55.5h39l-32 -133q-23 -8 -65 -8q-31 0 -103 16q-61 15 -109 20
q-26 -36 -60 -36q-14 0 -21.5 6.5t-5.5 17.5q3 16 23 32.5t43 23.5q42 40 53 97l10 56h-69z" />
    <glyph glyph-name="yen.onum" horiz-adv-x="465" 
d="M266 262h2q34 68 102.5 149.5t98.5 81.5q16 0 29 -9.5t13 -20.5t-15 -19q-100 -53 -202 -221l1 1l-5 -29h109l-5 -35h-110l-5 -34h107l-6 -36h-108l-6 -43l63 -11l-4 -36h-221l4 36l66 11l7 43h-111l6 36h111l5 34h-108l5 35h109l3 19q-12 58 -46 122.5t-71 97.5l-52 7
l5 31l82 26q37 -6 68.5 -47t49.5 -88.5t29 -100.5z" />
    <glyph glyph-name="Euro.onum" horiz-adv-x="548" 
d="M80 305h51q35 88 106 140.5t151 52.5q89 0 155 -52l-44 -99h-32q4 22 4 32q0 41 -28 60.5t-62 19.5q-48 0 -90 -39t-66 -115h249l-15 -36h-245q-4 -15 -5 -25q-2 -6 -2 -9h237l-14 -36h-227q-1 -9 -1 -25q0 -69 27.5 -105t68.5 -36q92 0 144 97l39 -12
q-69 -127 -199 -127q-78 0 -127 49t-49 137v22h-53l14 36h44l2 8l6 26h-54z" />
    <glyph glyph-name="numbersign.onum" horiz-adv-x="428" 
d="M70 384l82 -11l35 154l51 -7l-35 -154l72 -9l38 170l51 -7l-38 -170l88 -11l-6 -49l-93 11l-27 -121l76 -10l-6 -49l-80 10l-35 -158l-53 5l36 160l-72 9l-39 -174l-51 5l39 176l-87 11l6 49l92 -12l27 121l-77 10zM192 317l-27 -122l72 -9l27 122z" />
    <glyph glyph-name="percent.onum" horiz-adv-x="467" 
d="M289 385q-20 0 -40 12q-2 -63 -39 -103.5t-85 -40.5q-41 0 -67 28.5t-26 71.5q0 58 40 101.5t87 43.5q63 0 84 -56q4 -10 19.5 -17t32.5 -7q33 0 65 22q22 53 51 53q23 0 23 -20q0 -12 -12 -26.5t-26 -22.5q-29 -36 -87.5 -110.5t-87.5 -110.5l-165 -221l-33 25l171 213
q47 63 125 170q-11 -5 -30 -5zM218 91q0 58 40.5 101t86.5 43q40 0 65 -25t25 -68q0 -67 -37.5 -109t-84.5 -42q-42 0 -68.5 28.5t-26.5 71.5zM359 196q-26 0 -48.5 -39.5t-22.5 -86.5q0 -43 29 -43q27 0 49.5 31.5t22.5 91.5q0 46 -30 46zM173 459q-26 0 -49 -40.5
t-23 -86.5q0 -43 32 -43q26 0 47.5 32t21.5 91q0 22 -8 34.5t-21 12.5z" />
    <glyph glyph-name="perthousand.onum" horiz-adv-x="696" 
d="M445 91q0 58 40.5 101t87.5 43q40 0 65.5 -25t25.5 -68q0 -67 -38 -109t-84 -42q-43 0 -70 28.5t-27 71.5zM587 196q-26 0 -49 -40t-23 -86q0 -21 9 -32t22 -11q26 0 48 31.5t22 91.5q0 46 -29 46zM290 385q-20 0 -40 12q-2 -63 -39 -103.5t-85 -40.5q-41 0 -67 28.5
t-26 71.5q0 58 40 101.5t87 43.5q63 0 84 -56q4 -10 19.5 -17t32.5 -7q33 0 65 22q22 53 51 53q23 0 23 -20q0 -12 -12 -26.5t-26 -22.5q-29 -36 -87.5 -110.5t-87.5 -110.5l-165 -221l-33 25l171 213q47 63 125 170q-11 -5 -30 -5zM219 91q0 58 40.5 101t86.5 43
q40 0 65 -25t25 -68q0 -67 -37.5 -109t-84.5 -42q-42 0 -68.5 28.5t-26.5 71.5zM360 196q-26 0 -48.5 -39.5t-22.5 -86.5q0 -43 29 -43q27 0 49.5 31.5t22.5 91.5q0 46 -30 46zM174 459q-26 0 -49 -40.5t-23 -86.5q0 -43 32 -43q26 0 47.5 32t21.5 91q0 22 -8 34.5t-21 12.5
z" />
    <glyph glyph-name="ordfeminine.onum" horiz-adv-x="347" 
d="M271 159l-45 15l6 60l-1 1q-31 -29 -71 -52t-62 -23q-25 0 -37.5 23t-12.5 52q0 59 21.5 114t58.5 88q73 60 111 60q27 0 54 -20l18 20l38 -11l-55 -264l59 24l12 -21zM117 250q0 -37 22 -37q13 0 45 22.5t53 49.5l-1 -1l36 148q-21 28 -40 28q-40 0 -77.5 -69.5
t-37.5 -140.5z" />
    <glyph glyph-name="ordmasculine.onum" horiz-adv-x="320" 
d="M246 499q36 0 61.5 -22.5t25.5 -66.5q0 -119 -54 -176q-79 -74 -143 -74q-43 0 -65.5 26.5t-22.5 67.5q0 126 58 183q35 27 74.5 44.5t65.5 17.5zM115 283q0 -38 11.5 -58t30.5 -20q50 0 78 57t28 117q0 73 -43 73q-41 0 -73 -49t-32 -120z" />
    <glyph glyph-name="degree.onum" horiz-adv-x="367" 
d="M85 394q0 59 42 101.5t101 42.5t101.5 -42.5t42.5 -101.5t-42.5 -101t-101.5 -42q-58 0 -100.5 42.5t-42.5 100.5zM145 394q0 -39 22.5 -65.5t59.5 -26.5t60.5 26.5t23.5 65.5t-23.5 66.5t-60.5 27.5t-59.5 -27.5t-22.5 -66.5z" />
    <glyph glyph-name="zero.numr" horiz-adv-x="333" 
d="M20 432q0 96 53 166t131 70q52 0 82.5 -33t30.5 -96q0 -105 -53 -167.5t-122 -62.5q-56 0 -89 31t-33 92zM200 638q-42 0 -74.5 -65.5t-32.5 -149.5q0 -85 54 -85q41 0 69 64t28 152q0 84 -44 84z" />
    <glyph glyph-name="one.numr" horiz-adv-x="261" 
d="M56 582l-5 33q89 26 123 52l37 -5l-54 -311q13 -1 39 -4.5t38 -4.5l-4 -27h-226l4 27l78 9l45 252l-14 -4q-33 -10 -61 -17z" />
    <glyph glyph-name="two.numr" horiz-adv-x="287" 
d="M155 622q-60 0 -72 -66h-46l28 74q20 15 53.5 26.5t49.5 11.5q47 0 76.5 -23.5t29.5 -62.5q0 -45 -53 -97t-150 -122q1 -1 1 -2.5v-2.5q29 2 88 6t86 5l-9 -54h-247l-3 31q118 88 164.5 137t46.5 88q0 23 -12.5 37t-30.5 14z" />
    <glyph glyph-name="three.numr" horiz-adv-x="287" 
d="M118 339q22 0 43.5 20t21.5 56q0 27 -18.5 43t-37.5 16h-3q-7 -1 -25 -3.5t-24 -2.5l-3 31q54 8 91.5 34t37.5 56q0 36 -42 36q-59 0 -66 -56h-43l24 66q20 13 53.5 23t50.5 10q46 0 72 -17.5t26 -45.5q0 -48 -86 -96q0 -1 -0.5 -3l-0.5 -2q29 -8 48.5 -29.5t19.5 -47.5
q0 -49 -48 -83.5t-104 -34.5q-61 0 -101 26l-7 76h41q6 -22 12.5 -35.5t24 -25t43.5 -11.5z" />
    <glyph glyph-name="four.numr" horiz-adv-x="322" 
d="M150 350l14 74h-149l-7 20q41 57 107 121.5t126 108.5l32 -13l-17 -81l-22 -123h62l-5 -32h-62q-2 -12 -7 -37t-7 -37q9 -1 29 -4.5t28 -4.5l-4 -27h-177l4 27zM70 457h100l21 130q-72 -58 -124 -128l2 1q0 -2 1 -3z" />
    <glyph glyph-name="five.numr" horiz-adv-x="285" 
d="M89 309q-39 0 -73 17l-17 8l1 74h40q4 -21 8.5 -33.5t15.5 -23.5t26 -11q35 0 66 29t31 79t-34 50q-39 0 -82 -34l-31 9l54 188h104l84 7l-19 -65l-64 3h-75l-28 -92q40 21 68 21q40 0 68.5 -21.5t28.5 -58.5q0 -26 -13 -51.5t-33 -40.5q-67 -54 -126 -54z" />
    <glyph glyph-name="six.numr" horiz-adv-x="304" 
d="M301 657q-78 -31 -118.5 -62.5t-69.5 -85.5q47 22 79 22q35 0 62 -20.5t27 -59.5q0 -62 -39 -92q-66 -50 -118 -50q-49 0 -78.5 25t-29.5 72q0 55 30 110t81 94q61 42 169 73zM165 494q-39 0 -73 -32h2q-7 -24 -7 -45q0 -35 14.5 -55t38.5 -20q30 0 49.5 26t19.5 66
q0 30 -12.5 45t-31.5 15z" />
    <glyph glyph-name="seven.numr" horiz-adv-x="268" 
d="M293 661l12 -19q-132 -145 -182 -315q-4 -16 -48 -16q-20 0 -29 4t-4 15q33 69 68.5 124.5t58 82.5t60.5 69l-2 -1q0 1 -1 3t-1 3h-116q-8 0 -30 -51l-4 -6h-41l41 110l71 -3h147z" />
    <glyph glyph-name="eight.numr" horiz-adv-x="303" 
d="M8 391q0 30 23 56t55 43v2q1 2 1 3l3 -2q-35 28 -35 63q0 47 39 79.5t91 32.5q47 0 74 -19.5t27 -51.5q0 -23 -19 -48t-47 -43l1 1q0 -1 -1 -4q53 -31 53 -73q0 -44 -42 -82.5t-109 -38.5q-48 0 -81 22t-33 60zM209 409q0 25 -22.5 41t-66.5 30q-51 -31 -51 -87
q0 -54 60 -54q34 0 57 20t23 50zM181 638q-24 0 -45 -15.5t-21 -40.5q0 -23 15.5 -37t53.5 -28q41 32 41 77q0 44 -44 44z" />
    <glyph glyph-name="nine.numr" horiz-adv-x="304" 
d="M10 323q74 31 115 63t70 83q-46 -24 -80 -24q-35 0 -61.5 20.5t-26.5 60.5q0 20 10 47.5t29 43.5q65 51 119 51q49 0 78 -25.5t29 -72.5q0 -52 -32.5 -111t-80.5 -94q-68 -44 -167 -71zM144 485q38 0 71 33h-2q7 22 7 42q0 34 -14.5 54t-37.5 20q-31 0 -50 -26t-19 -66
q0 -28 13 -42.5t32 -14.5z" />
    <glyph glyph-name="zero.dnom" horiz-adv-x="333" 
d="M20 77q0 96 53 166t131 70q52 0 82.5 -33t30.5 -96q0 -105 -53 -167.5t-122 -62.5q-56 0 -89 31t-33 92zM200 283q-42 0 -74.5 -65.5t-32.5 -149.5q0 -85 54 -85q41 0 69 64t28 152q0 84 -44 84z" />
    <glyph glyph-name="one.dnom" horiz-adv-x="261" 
d="M56 227l-5 33q89 26 123 52l37 -5l-54 -311q13 -1 39 -4.5t38 -4.5l-4 -27h-226l4 27l78 9l45 252l-14 -4q-33 -10 -61 -17z" />
    <glyph glyph-name="two.dnom" horiz-adv-x="287" 
d="M155 267q-60 0 -72 -66h-46l28 74q20 15 53.5 26.5t49.5 11.5q47 0 76.5 -23.5t29.5 -62.5q0 -45 -53 -97t-150 -122q1 -1 1 -2.5v-2.5q29 2 88 6t86 5l-9 -54h-247l-3 31q118 88 164.5 137t46.5 88q0 23 -12.5 37t-30.5 14z" />
    <glyph glyph-name="three.dnom" horiz-adv-x="287" 
d="M118 -16q22 0 43.5 20t21.5 56q0 27 -18.5 43t-37.5 16h-3q-6 -1 -24.5 -3t-24.5 -3l-3 31q54 8 91.5 34t37.5 56q0 36 -42 36q-59 0 -66 -56h-43l24 66q20 13 53.5 23t50.5 10q46 0 72 -17.5t26 -45.5q0 -48 -86 -96v-2q-1 -2 -1 -3q29 -8 48.5 -29.5t19.5 -47.5
q0 -49 -48 -83.5t-104 -34.5q-61 0 -101 26l-7 76h41q6 -22 12.5 -35.5t24 -25t43.5 -11.5z" />
    <glyph glyph-name="four.dnom" horiz-adv-x="322" 
d="M150 -5l14 74h-149l-7 20q41 57 107 121.5t126 108.5l32 -13l-17 -81l-22 -123h62l-5 -32h-62q-2 -12 -7 -37t-7 -37q9 -1 29 -4.5t28 -4.5l-4 -27h-177l4 27zM70 102h100l21 130q-72 -58 -124 -128l2 1q0 -2 1 -3z" />
    <glyph glyph-name="five.dnom" horiz-adv-x="285" 
d="M89 -46q-39 0 -73 17l-17 8l1 74h40q4 -21 8.5 -33.5t15.5 -23.5t26 -11q35 0 66 29t31 79t-34 50q-39 0 -82 -34l-31 9l54 188h104l84 7l-19 -65l-64 3h-75l-28 -92q40 21 68 21q40 0 68.5 -21.5t28.5 -58.5q0 -26 -13 -51.5t-33 -40.5q-67 -54 -126 -54z" />
    <glyph glyph-name="six.dnom" horiz-adv-x="304" 
d="M301 302q-78 -31 -118.5 -62.5t-69.5 -85.5q47 22 79 22q35 0 62 -20.5t27 -59.5q0 -62 -39 -92q-66 -50 -118 -50q-49 0 -78.5 25t-29.5 72q0 55 30 110t81 94q61 42 169 73zM165 139q-39 0 -73 -32h2q-7 -24 -7 -45q0 -35 14.5 -55t38.5 -20q30 0 49.5 26t19.5 66
q0 30 -12.5 45t-31.5 15z" />
    <glyph glyph-name="seven.dnom" horiz-adv-x="268" 
d="M293 306l12 -19q-132 -145 -182 -315q-4 -16 -48 -16q-20 0 -29 4t-4 15q33 69 68.5 124.5t58 82.5t60.5 69l-2 -1q0 1 -1 3t-1 3h-116q-8 0 -30 -51l-4 -6h-41l41 110l71 -3h147z" />
    <glyph glyph-name="eight.dnom" horiz-adv-x="303" 
d="M8 36q0 30 23 56t55 43q0 1 0.5 3l0.5 2l3 -2q-35 28 -35 63q0 47 39 79.5t91 32.5q47 0 74 -19.5t27 -51.5q0 -23 -19 -48t-47 -43l1 1l-1 -2v-2q53 -31 53 -73q0 -44 -42 -82.5t-109 -38.5q-48 0 -81 22t-33 60zM209 54q0 25 -22.5 41t-66.5 30q-51 -31 -51 -87
q0 -54 60 -54q34 0 57 20t23 50zM181 283q-24 0 -45 -15.5t-21 -40.5q0 -23 15.5 -37t53.5 -28q41 32 41 77q0 44 -44 44z" />
    <glyph glyph-name="nine.dnom" horiz-adv-x="304" 
d="M10 -32q74 31 115 63t70 83q-46 -24 -80 -24q-35 0 -61.5 20.5t-26.5 60.5q0 20 10 47.5t29 43.5q65 51 119 51q49 0 78 -25.5t29 -72.5q0 -52 -32.5 -111t-80.5 -94q-68 -44 -167 -71zM144 130q38 0 71 33h-2q7 22 7 42q0 34 -14.5 54t-37.5 20q-31 0 -50 -26t-19 -66
q0 -28 13 -42.5t32 -14.5z" />
    <glyph glyph-name="zero.subs" horiz-adv-x="333" 
d="M-40 -43q0 96 53 166t131 70q52 0 82.5 -33t30.5 -96q0 -105 -53 -167.5t-122 -62.5q-56 0 -89 31t-33 92zM140 163q-42 0 -74.5 -65.5t-32.5 -149.5q0 -85 54 -85q41 0 69 64t28 152q0 84 -44 84z" />
    <glyph glyph-name="one.subs" horiz-adv-x="261" 
d="M-4 107l-5 33q89 26 123 52l37 -5l-54 -311q13 -1 39 -4.5t38 -4.5l-4 -27h-226l4 27l78 9l45 252l-14 -4q-33 -10 -61 -17z" />
    <glyph glyph-name="two.subs" horiz-adv-x="287" 
d="M95 147q-60 0 -72 -66h-46l28 74q20 15 53.5 26.5t49.5 11.5q47 0 76.5 -23.5t29.5 -62.5q0 -45 -53 -97t-150 -122q1 -1 1 -2.5v-2.5q29 2 88 6t86 5l-9 -54h-247l-3 31q118 88 164.5 137t46.5 88q0 23 -12.5 37t-30.5 14z" />
    <glyph glyph-name="three.subs" horiz-adv-x="287" 
d="M58 -136q22 0 43.5 20t21.5 56q0 27 -18.5 43t-37.5 16h-3q-6 -1 -24 -3.5t-25 -2.5l-3 31q54 8 91.5 34t37.5 56q0 36 -42 36q-59 0 -66 -56h-43l24 66q20 13 53.5 23t50.5 10q46 0 72 -17.5t26 -45.5q0 -48 -86 -96v-2q-1 -2 -1 -3q29 -8 48.5 -29.5t19.5 -47.5
q0 -49 -48 -83.5t-104 -34.5q-61 0 -101 26l-7 76h41q6 -22 12.5 -35.5t24 -25t43.5 -11.5z" />
    <glyph glyph-name="four.subs" horiz-adv-x="322" 
d="M90 -125l14 74h-149l-7 20q41 57 107 121.5t126 108.5l32 -13l-17 -81l-22 -123h62l-5 -32h-62q-2 -12 -7 -37t-7 -37q9 -1 29 -4.5t28 -4.5l-4 -27h-177l4 27zM10 -18h100l21 130q-72 -58 -124 -128l2 1q0 -2 1 -3z" />
    <glyph glyph-name="five.subs" horiz-adv-x="285" 
d="M29 -166q-39 0 -73 17l-17 8l1 74h40q4 -21 8.5 -33.5t15.5 -23.5t26 -11q35 0 66 29t31 79t-34 50q-40 0 -82 -34l-31 9l54 188h104l84 7l-19 -65l-64 3h-75l-28 -92q40 21 68 21q40 0 68.5 -21.5t28.5 -58.5q0 -26 -13 -51.5t-33 -40.5q-67 -54 -126 -54z" />
    <glyph glyph-name="six.subs" horiz-adv-x="304" 
d="M241 182q-78 -31 -118.5 -62.5t-69.5 -85.5q47 22 79 22q35 0 62 -20.5t27 -59.5q0 -62 -39 -92q-66 -50 -118 -50q-49 0 -78.5 25t-29.5 72q0 55 30 110t81 94q61 42 169 73zM105 19q-39 0 -73 -32h2q-7 -24 -7 -45q0 -35 14.5 -55t38.5 -20q30 0 49.5 26t19.5 66
q0 30 -12.5 45t-31.5 15z" />
    <glyph glyph-name="seven.subs" horiz-adv-x="268" 
d="M233 186l12 -19q-132 -145 -182 -315q-4 -16 -48 -16q-20 0 -29 4t-4 15q33 69 68.5 124.5t58 82.5t60.5 69l-2 -1q0 1 -1 3t-1 3h-116q-8 0 -30 -51l-4 -6h-41l41 110l71 -3h147z" />
    <glyph glyph-name="eight.subs" horiz-adv-x="303" 
d="M-52 -84q0 30 23 56t55 43q0 1 0.5 3l0.5 2l3 -2q-35 28 -35 63q0 47 39 79.5t91 32.5q47 0 74 -19.5t27 -51.5q0 -23 -19 -48t-47 -43l1 1l-1 -2v-2q53 -31 53 -73q0 -44 -42 -82.5t-109 -38.5q-48 0 -81 22t-33 60zM149 -66q0 25 -22.5 41t-66.5 30q-51 -31 -51 -87
q0 -54 60 -54q34 0 57 20t23 50zM121 163q-24 0 -45 -15.5t-21 -40.5q0 -23 15.5 -37t53.5 -28q41 32 41 77q0 44 -44 44z" />
    <glyph glyph-name="nine.subs" horiz-adv-x="304" 
d="M-50 -152q74 31 115 63t70 83q-46 -24 -80 -24q-35 0 -61.5 20.5t-26.5 60.5q0 20 10 47.5t29 43.5q65 51 119 51q49 0 78 -25.5t29 -72.5q0 -52 -32.5 -111t-80.5 -94q-68 -44 -167 -71zM84 10q38 0 71 33h-2q7 22 7 42q0 34 -14.5 54t-37.5 20q-31 0 -50 -26t-19 -66
q0 -28 13 -42.5t32 -14.5z" />
    <glyph glyph-name="acute.case" horiz-adv-x="500" 
d="M190 498v8l101 129h94v-10l-144 -127h-51z" />
    <glyph glyph-name="grave.case" horiz-adv-x="500" 
d="M300 506v-8h-48l-104 127v10h91z" />
    <glyph glyph-name="circumflex.case" horiz-adv-x="500" 
d="M405 506v-8h-46l-70 76l-128 -76h-46v8l161 129h48z" />
    <glyph glyph-name="breve.case" horiz-adv-x="500" 
d="M255 488q-52 0 -76.5 38t-10.5 99h40q-7 -30 7.5 -51.5t46.5 -21.5q33 0 63 20.5t44 52.5h39q-22 -67 -65 -102t-88 -35z" />
    <glyph glyph-name="caron.case" horiz-adv-x="500" 
d="M155 627v8h46l70 -76l128 76h46v-8l-161 -129h-48z" />
    <glyph glyph-name="dotaccent.case" horiz-adv-x="500" 
d="M218 554q0 27 18.5 50.5t45.5 23.5q19 0 32.5 -16t13.5 -39q0 -27 -20 -49t-44 -22q-20 0 -33 15.5t-13 36.5z" />
    <glyph glyph-name="hungarumlaut.case" horiz-adv-x="500" 
d="M280 498v8l106 129h89v-10l-149 -127h-46zM140 498v8l106 129h89v-10l-149 -127h-46z" />
    <glyph glyph-name="sidecaron.part" horiz-adv-x="500" 
d="M226 494v8l56 199h84v-10l-94 -197h-46z" />
    <glyph glyph-name="gcomma.part" horiz-adv-x="500" 
d="M317 720l32 -16l-45 -88l-22 -99l-78 26l50 97z" />
    <glyph glyph-name="Stroke.part" horiz-adv-x="430" 
d="M86 516h692v-50h-692v50z" />
    <glyph glyph-name="stroke.part" horiz-adv-x="430" 
d="M22 544h292v-50h-292v50z" />
    <glyph glyph-name="uni2011.case" horiz-adv-x="335" 
d="M70 353l64 -3h109l77 3l-15 -83l-61 3h-126l-63 -3z" />
    <glyph glyph-name="acute.plk" horiz-adv-x="500" 
d="M223 498v8l73 164h90v-10l-109 -162h-54z" />
    <glyph glyph-name="acute.case.plk" horiz-adv-x="500" 
d="M219 498v8l61 129h89v-10l-104 -127h-46z" />
    <glyph glyph-name="idotaccent" horiz-adv-x="310" 
d="M291 86l-153 -98l-68 31l2 52l86 343l-113 -53l-16 33l139 96l79 -12l2 -49l-87 -359l116 43zM177 674q0 27 18.5 49t43.5 22q53 0 53 -63q0 -26 -18 -48t-42 -22q-26 0 -40.5 17t-14.5 45z" />
    <glyph glyph-name="Dotlessi" horiz-adv-x="369" 
d="M123 663h265l-7 -43l-83 -14l-96 -549l77 -14l-7 -43h-265l7 43l83 14l96 549l-77 14z" />
    <glyph glyph-name="zero.tallfig" horiz-adv-x="623" 
d="M50 223q0 119 44 223t121 166t168 62q90 0 142.5 -63t52.5 -183q0 -102 -27 -187t-71.5 -140t-100.5 -85t-115 -30q-96 0 -155 60t-59 177zM375 627q-58 0 -109 -59.5t-81 -157.5t-30 -206q0 -169 118 -169q86 0 145 125.5t59 296.5q0 86 -27.5 128t-74.5 42z" />
    <glyph glyph-name="one.tallfig" horiz-adv-x="489" 
d="M117 523l-6 54q65 18 129.5 45t94.5 48q7 0 22 -2t23 -3l-104 -606l146 -16l-7 -43h-392l7 43l148 16l87 508l-50 -16q-52 -18 -98 -28z" />
    <glyph glyph-name="two.tallfig" horiz-adv-x="537" 
d="M290 595q-72 0 -107.5 -38.5t-45.5 -89.5h-53l53 137q36 27 93.5 48.5t84.5 21.5q81 0 132 -44t51 -116q0 -38 -22.5 -82t-56 -83t-88.5 -88t-102 -86t-115 -87l6 -16l325 21l-16 -93h-432q-1 9 -3 27.5t-2 26.5q214 166 306.5 265t92.5 173q0 46 -29.5 74.5t-71.5 28.5z
" />
    <glyph glyph-name="three.tallfig" horiz-adv-x="537" 
d="M220 36q48 0 94.5 40t46.5 112q0 55 -40.5 87.5t-82.5 32.5h-7q-11 -1 -36 -5.5t-36 -5.5l-6 51q101 16 172.5 67.5t71.5 111.5q0 73 -99 73q-72 0 -104 -31.5t-38 -74.5h-48l48 121q36 24 93 41.5t85 17.5q79 0 123.5 -32t44.5 -84q0 -55 -49 -104.5t-114 -84.5l-2 -11
q55 -11 92.5 -52.5t37.5 -94.5q0 -94 -86 -159.5t-184 -65.5q-100 0 -174 45l-13 144h40q8 -31 17.5 -52t28 -43t49.5 -33t75 -11z" />
    <glyph glyph-name="four.tallfig" horiz-adv-x="603" 
d="M300 59l25 152h-282l-11 38l-1 -1q75 107 196 229t232 205l39 -16l-32 -156l-42 -245h117l-9 -53h-117l-26 -153l106 -16l-7 -43h-299q1 7 4 21.5t4 21.5zM381 532l-16 8q-134 -104 -255 -264l4 -11h221z" />
    <glyph glyph-name="five.tallfig" horiz-adv-x="534" 
d="M167 -14q-69 0 -129 33l-25 13q0 20 1 69t1 69h40q25 -132 114 -132q72 0 137.5 58t65.5 157q0 47 -22.5 74t-62.5 27q-87 0 -160 -63l-37 12q11 38 48.5 164.5t56.5 193.5h180q23 1 68.5 5t67.5 6l-34 -113l-101 5h-162l-53 -190l13 -8q24 17 67.5 33.5t66.5 16.5
q69 0 117 -40.5t48 -109.5q0 -51 -22 -98.5t-56 -75.5q-133 -106 -228 -106z" />
    <glyph glyph-name="six.tallfig" horiz-adv-x="569" 
d="M188 360l6 -8q102 57 168 57q59 0 104.5 -38.5t45.5 -112.5q0 -41 -16 -92.5t-52 -81.5q-129 -98 -212 -98q-84 0 -135.5 48.5t-51.5 136.5q0 105 56.5 212t147.5 178q118 84 292 136l7 -40q-156 -66 -230 -125.5t-130 -171.5zM309 347q-85 0 -150 -65q-15 -50 -15 -91
q0 -69 32.5 -109.5t86.5 -40.5q65 0 107 52.5t42 133.5q0 58 -29.5 89t-73.5 31z" />
    <glyph glyph-name="seven.tallfig" horiz-adv-x="503" 
d="M536 661l20 -32q-135 -155 -216 -294t-129 -315q-6 -27 -73 -27q-29 0 -42.5 6.5t-5.5 21.5q64 137 130.5 244t110 160.5t114.5 131.5l-5 16l-237 1q-14 0 -29 -18t-23 -35t-21 -49l-5 -10h-48q13 36 40 107.5t37 97.5l118 -6h264z" />
    <glyph glyph-name="eight.tallfig" horiz-adv-x="568" 
d="M31 141q0 64 44 114.5t104 78.5l2 10q-64 52 -64 120q0 86 70 148t159 62q81 0 128 -36.5t47 -95.5q0 -46 -35 -94t-87 -81l-1 -8q97 -54 97 -142q0 -85 -73.5 -158t-193.5 -73q-84 0 -140.5 42t-56.5 113zM222 321h-3q-110 -67 -110 -174q0 -51 34 -81t99 -30
q71 0 120.5 39.5t49.5 101.5q0 50 -48.5 83t-141.5 61zM339 625q-52 0 -97 -31t-45 -81q0 -49 33 -77.5t120 -58.5q49 37 71 74.5t22 85.5q0 42 -27 65t-77 23z" />
    <glyph glyph-name="nine.tallfig" horiz-adv-x="569" 
d="M391 306l-6 8q-104 -62 -170 -62q-59 0 -104.5 38.5t-45.5 112.5q0 43 16 94t54 79q122 98 211 98q85 0 135.5 -47.5t50.5 -135.5q0 -106 -58 -218.5t-149 -176.5q-116 -80 -288 -132l-3 46q153 64 226.5 124t130.5 172zM269 320q83 0 151 66q14 56 14 86q0 68 -33 107.5
t-87 39.5q-65 0 -106 -52t-41 -133q0 -56 29 -85t73 -29z" />
    <glyph glyph-name="zero.tallfig.tnum" horiz-adv-x="560" 
d="M27 223q0 183 93.5 317t226.5 134q86 0 136.5 -63t50.5 -183q0 -201 -91 -321.5t-211 -120.5q-92 0 -148.5 60t-56.5 177zM339 627q-55 0 -104 -59.5t-78 -157.5t-29 -206q0 -169 113 -169q55 0 100 58.5t70.5 155.5t25.5 208q0 86 -26 128t-72 42z" />
    <glyph glyph-name="one.tallfig.tnum" horiz-adv-x="560" 
d="M145 523l-6 54q65 18 129.5 45t94.5 48q7 0 22 -2t23 -3l-104 -606l146 -16l-7 -43h-392l7 43l148 16l87 508l-50 -16q-52 -18 -98 -28z" />
    <glyph glyph-name="two.tallfig.tnum" horiz-adv-x="560" 
d="M295 595q-72 0 -107.5 -38.5t-45.5 -89.5h-53l53 137q36 27 93.5 48.5t84.5 21.5q81 0 132 -44t51 -116q0 -38 -22.5 -82t-56 -83t-88.5 -88t-102 -86t-115 -87l6 -16l325 21l-16 -93h-432q0 9 -2 27.5t-3 26.5q214 166 306.5 265t92.5 173q0 46 -29.5 74.5t-71.5 28.5z
" />
    <glyph glyph-name="three.tallfig.tnum" horiz-adv-x="560" 
d="M229 36q48 0 94.5 40t46.5 112q0 55 -40.5 87.5t-82.5 32.5h-7q-11 -1 -36 -5.5t-36 -5.5l-6 51q101 16 172.5 67.5t71.5 111.5q0 73 -99 73q-72 0 -104 -31.5t-38 -74.5h-48l48 121q36 24 93 41.5t85 17.5q79 0 123.5 -32t44.5 -84q0 -55 -49 -104.5t-114 -84.5l-2 -11
q55 -11 92.5 -52.5t37.5 -94.5q0 -94 -86 -159.5t-184 -65.5q-100 0 -174 45l-13 144h40q8 -31 17.5 -52t28 -43t49.5 -33t75 -11z" />
    <glyph glyph-name="four.tallfig.tnum" horiz-adv-x="560" 
d="M279 59l25 152h-282l-11 38l-1 -1q75 107 196 229t232 205l39 -16l-32 -156l-42 -245h117l-9 -53h-117l-26 -153l106 -16l-7 -43h-299q1 7 4 21.5t4 21.5zM360 532l-16 8q-134 -104 -255 -264l4 -11h221z" />
    <glyph glyph-name="five.tallfig.tnum" horiz-adv-x="560" 
d="M176 -14q-69 0 -129 33l-25 13q0 20 1 69t1 69h40q25 -132 114 -132q72 0 137.5 58t65.5 157q0 47 -22.5 74t-62.5 27q-87 0 -160 -63l-37 12q11 38 48.5 164.5t56.5 193.5h180q22 1 68 5t68 6l-34 -113l-101 5h-162l-53 -190l13 -8q24 17 67.5 33.5t66.5 16.5
q69 0 117 -40.5t48 -109.5q0 -51 -22 -98.5t-56 -75.5q-132 -106 -228 -106z" />
    <glyph glyph-name="six.tallfig.tnum" horiz-adv-x="560" 
d="M181 360l6 -8q102 57 168 57q59 0 104.5 -38.5t45.5 -112.5q0 -41 -16 -92.5t-52 -81.5q-129 -98 -212 -98q-84 0 -135.5 48.5t-51.5 136.5q0 105 56.5 212t147.5 178q118 84 292 136l7 -40q-156 -66 -230 -125.5t-130 -171.5zM302 347q-85 0 -150 -65q-15 -50 -15 -91
q0 -69 32.5 -109.5t86.5 -40.5q65 0 107 52.5t42 133.5q0 58 -29.5 89t-73.5 31z" />
    <glyph glyph-name="seven.tallfig.tnum" horiz-adv-x="560" 
d="M557 661l20 -32q-135 -155 -216 -294t-129 -315q-6 -27 -73 -27q-29 0 -42.5 6.5t-5.5 21.5q64 137 130.5 244t110 160.5t114.5 131.5l-5 16l-237 1q-14 0 -29 -18t-23 -35t-21 -49l-5 -10h-48q13 36 40 107.5t37 97.5l118 -6h264z" />
    <glyph glyph-name="eight.tallfig.tnum" horiz-adv-x="560" 
d="M32 141q0 64 44 114.5t104 78.5l2 10q-64 52 -64 120q0 86 70 148t159 62q81 0 128 -36.5t47 -95.5q0 -46 -35 -94t-87 -81l-1 -8q97 -54 97 -142q0 -85 -73.5 -158t-193.5 -73q-84 0 -140.5 42t-56.5 113zM223 321h-3q-110 -67 -110 -174q0 -51 34 -81t99 -30
q71 0 120.5 39.5t49.5 101.5q0 50 -48.5 83t-141.5 61zM340 625q-52 0 -97 -31t-45 -81q0 -49 33 -77.5t120 -58.5q49 37 71 74.5t22 85.5q0 42 -27 65t-77 23z" />
    <glyph glyph-name="nine.tallfig.tnum" horiz-adv-x="560" 
d="M392 306l-6 8q-104 -62 -170 -62q-59 0 -104.5 38.5t-45.5 112.5q0 43 16 94t54 79q122 98 211 98q85 0 135.5 -47.5t50.5 -135.5q0 -106 -58 -218.5t-149 -176.5q-116 -80 -288 -132l-3 46q153 64 226.5 124t130.5 172zM270 320q83 0 151 66q14 56 14 86q0 68 -33 107.5
t-87 39.5q-65 0 -106 -52t-41 -133q0 -56 29 -85t73 -29z" />
    <glyph glyph-name="at.tallfig" horiz-adv-x="816" 
d="M699 450q0 35 -9 71.5t-29.5 75t-62.5 63t-99 24.5q-96 0 -181 -72.5t-133.5 -185.5t-48.5 -230q0 -118 43.5 -177t122.5 -59q89 0 167 63l21 -42q-44 -35 -97.5 -54.5t-99.5 -19.5q-114 0 -172.5 76t-58.5 214q0 92 35 187t93 171t141 124.5t171 48.5q123 0 195.5 -76.5
t72.5 -201.5q0 -84 -32.5 -154.5t-80 -111.5t-95.5 -63.5t-85 -22.5q-34 0 -37.5 34t22.5 93l-13 9q-19 -28 -34.5 -47t-38 -42.5t-47 -36t-48.5 -12.5q-29 0 -45 24.5t-16 56.5q0 82 59 183q46 77 106.5 128.5t115.5 51.5q29 0 42 -28h5q6 16 13.5 21.5t27.5 5.5t27 -4
t4 -12l-108 -331q-7 -31 13 -31q18 0 46 20t57 54t50 92t21 123zM300 210q0 -44 24 -44q34 0 93.5 79t102.5 182q9 70 -29 70q-33 0 -70.5 -34.5t-67.5 -87.5q-53 -94 -53 -165z" />
    <glyph glyph-name="dollar.tallfig" horiz-adv-x="562" 
d="M37 25l18 181h48q1 -161 120 -163q36 210 43 250l-2 1q-33 12 -57 24.5t-48 32t-36.5 47t-12.5 62.5q0 18 3 34q19 76 82.5 125t136.5 56l18 105h38l-18 -104q58 -2 147 -29q-4 -29 -12 -84t-11 -81h-37q-7 128 -97 139l-40 -237q36 -14 61 -27.5t50 -33t37.5 -46
t12.5 -59.5q0 -16 -3 -32q-14 -75 -75 -132t-152 -65l-19 -114h-37q13 82 19 113q-54 1 -104.5 12.5t-72.5 24.5zM384 164q12 72 -83 114l-40 -232q50 8 82.5 38.5t40.5 79.5zM284 399l39 222q-48 -5 -78 -35.5t-38 -79.5q-11 -65 77 -107z" />
    <glyph glyph-name="cent.tallfig" horiz-adv-x="433" 
d="M343 237l18 -31q-65 -57 -144 -71l-18 -105h-42l18 102q-72 6 -106.5 62.5t-21.5 134.5q18 103 73 147q61 50 128 72l19 108h42l-17 -98h7q64 0 97 -17l-19 -125h-39q2 42 -3 65q-27 18 -53 20l-54 -304q5 -1 14 -1q51 0 101 41zM134 371q-24 -129 54 -164l51 291
q-87 -20 -105 -127z" />
    <glyph glyph-name="sterling.tallfig" horiz-adv-x="564" 
d="M91 350h87l18 99q20 116 140 181q73 44 133 44q43 0 88 -19l-26 -154h-33q-1 119 -82 119q-32 0 -67 -34.5t-47 -110.5l-22 -125h130l-7 -43h-131q-26 -113 -141 -214l3 -8q65 -6 210 -6q46 0 70 19.5t39 75.5h32l-40 -178q-25 -9 -72 -9q-45 0 -128 22q-80 21 -141 28
q-31 -50 -70 -50q-12 0 -19 8.5t-6 21.5q4 23 27.5 44t52.5 30q54 54 68 135l14 81h-88q1 8 4 21.5t4 21.5z" />
    <glyph glyph-name="yen.tallfig" horiz-adv-x="571" 
d="M318 350h19q39 93 121.5 205.5t120.5 112.5q16 0 30 -11.5t14 -25.5q0 -16 -16 -23q-124 -73 -254 -305l-6 -42h137l-7 -42h-136l-8 -53h135q-1 -7 -4 -21t-4 -21h-133l-9 -68q12 -3 40 -7.5t40 -6.5l-6 -42h-258q0 6 2 20l3 21l81 15l10 68h-138l7 42h137l7 53h-135
l7 42h134l5 29q-15 83 -56.5 171t-91.5 134q-10 1 -31 4t-31 4q0 6 2 19.5t3 19.5l96 32q41 -11 78 -67.5t60 -122.5t35 -134z" />
    <glyph glyph-name="Euro.tallfig" horiz-adv-x="672" 
d="M102 410h62q41 121 127 192.5t186 71.5q104 0 184 -66l-54 -132h-24q5 30 5 40q0 59 -37 86t-82 27q-64 0 -118.5 -55.5t-85.5 -163.5h309q-9 -19 -17 -42h-303l-7 -38l-3 -16h293q-7 -16 -17 -41h-281q-1 -13 -1 -38q0 -95 36.5 -146.5t90.5 -51.5q121 0 185 132l33 -12
q-86 -170 -238 -170q-93 0 -151 66.5t-58 185.5q0 22 1 34h-68l17 41h55l3 15q2 13 8 39h-67z" />
    <glyph glyph-name="numbersign.tallfig" horiz-adv-x="525" 
d="M92 517l101 -15l42 210l48 -7l-43 -209l105 -15l47 231l49 -7l-47 -231l108 -15q-1 -10 -4 -30.5t-4 -30.5l-112 16l-36 -174l95 -13l-7 -61l-100 14l-44 -215q-8 1 -24.5 2t-24.5 2l44 218l-104 14l-48 -236q-9 1 -25 2t-25 2l49 239l-108 16l7 61l114 -16l35 173
l-96 14q1 10 4 30.5t4 30.5zM228 435l-35 -173l104 -15l36 174z" />
    <glyph glyph-name="percent.tallfig" horiz-adv-x="573" 
d="M306 547l-8 -2q-1 -86 -45 -142.5t-101 -56.5q-48 0 -78.5 38.5t-30.5 95.5q0 78 48 136t103 58q33 0 58.5 -19.5t37.5 -54.5q6 -17 26.5 -27t45.5 -10q51 0 90 34q24 71 54 71q8 0 14.5 -6t6.5 -18q0 -16 -13.5 -34.5t-30.5 -29.5l-217 -303q-21 -31 -203 -296l-30 24
l211 290l168 245q-37 -13 -58 -13q-28 0 -48 20zM275 120q0 79 47 136.5t103 57.5q46 0 75 -33t29 -90q0 -91 -44 -147.5t-99 -56.5q-50 0 -80.5 37.5t-30.5 95.5zM443 269q-35 0 -66.5 -56.5t-31.5 -120.5q0 -30 13 -46.5t33 -16.5q36 0 66 44t30 129q0 33 -12 50t-32 17z
M211 629q-35 0 -66.5 -57t-31.5 -121q0 -63 49 -63q35 0 64 45t29 127q0 33 -12.5 51t-31.5 18z" />
    <glyph glyph-name="perthousand.tallfig" horiz-adv-x="853" 
d="M556 120q0 79 47.5 136.5t103.5 57.5q45 0 74.5 -33.5t29.5 -89.5q0 -91 -44.5 -147.5t-99.5 -56.5q-50 0 -80.5 37.5t-30.5 95.5zM724 269q-35 0 -66 -56.5t-31 -120.5q0 -30 13 -46.5t33 -16.5q35 0 65 44t30 129q0 33 -12 50t-32 17zM306 547l-8 -2q-1 -86 -45 -142.5
t-101 -56.5q-48 0 -78.5 38.5t-30.5 95.5q0 78 48 136t103 58q33 0 58.5 -19.5t37.5 -54.5q6 -17 26.5 -27t45.5 -10q51 0 90 34q24 71 54 71q8 0 14.5 -6t6.5 -18q0 -16 -13.5 -34.5t-30.5 -29.5l-217 -303q-21 -31 -203 -296l-30 24l211 290l168 245q-37 -13 -58 -13
q-28 0 -48 20zM275 120q0 79 47 136.5t103 57.5q46 0 75 -33t29 -90q0 -91 -44 -147.5t-99 -56.5q-50 0 -80.5 37.5t-30.5 95.5zM443 269q-35 0 -66.5 -56.5t-31.5 -120.5q0 -30 13 -46.5t33 -16.5q36 0 66 44t30 129q0 33 -12 50t-32 17zM211 629q-35 0 -66.5 -57
t-31.5 -121q0 -63 49 -63q35 0 64 45t29 127q0 33 -12.5 51t-31.5 18z" />
    <glyph glyph-name="ordfeminine.tallfig" horiz-adv-x="385" 
d="M298 308l-50 16l7 67l-2 1q-34 -32 -78.5 -57.5t-68.5 -25.5q-28 0 -42 25t-14 58q0 66 24 127t65 98q41 33 68.5 49.5t54.5 16.5q30 0 60 -22l20 22l43 -12l-62 -293l66 27l13 -24zM127 409q0 -41 24 -41q15 0 50.5 25t58.5 55l-1 -1l40 164q-24 31 -44 31
q-44 0 -86 -77.5t-42 -155.5z" />
    <glyph glyph-name="ordmasculine.tallfig" horiz-adv-x="356" 
d="M270 686q40 0 68.5 -25.5t28.5 -73.5q0 -133 -60 -196q-87 -82 -159 -82q-48 0 -73 29.5t-25 74.5q0 140 64 204q40 30 83.5 49.5t72.5 19.5zM125 446q0 -42 12.5 -64.5t33.5 -22.5q38 0 66.5 34t40 76.5t11.5 82.5q0 81 -48 81q-46 0 -81 -54t-35 -133z" />
    <glyph glyph-name="degree.tallfig" horiz-adv-x="367" 
d="M85 524q0 59 42 101.5t101 42.5t101.5 -42.5t42.5 -101.5t-42.5 -101t-101.5 -42q-58 0 -100.5 42.5t-42.5 100.5zM145 524q0 -39 22.5 -65.5t59.5 -26.5t60.5 26.5t23.5 65.5t-23.5 66.5t-60.5 27.5t-59.5 -27.5t-22.5 -66.5z" />
    <glyph glyph-name="zero.numr.tallfig" horiz-adv-x="333" 
d="M20 472q0 96 53 166t131 70q52 0 82.5 -33t30.5 -96q0 -105 -53 -167.5t-122 -62.5q-56 0 -89 31t-33 92zM200 678q-42 0 -74.5 -65.5t-32.5 -149.5q0 -85 54 -85q41 0 69 64t28 152q0 84 -44 84z" />
    <glyph glyph-name="one.numr.tallfig" horiz-adv-x="261" 
d="M56 622l-5 33q89 26 123 52l37 -5l-54 -311q13 -1 39 -4.5t38 -4.5l-4 -27h-226l4 27l78 9l45 252l-14 -4q-33 -10 -61 -17z" />
    <glyph glyph-name="two.numr.tallfig" horiz-adv-x="287" 
d="M155 662q-60 0 -72 -66h-46l28 74q20 15 53.5 26.5t49.5 11.5q47 0 76.5 -23.5t29.5 -62.5q0 -45 -53 -97t-150 -122q1 -1 1 -2.5v-2.5q29 2 88 6t86 5l-9 -54h-247l-3 31q118 88 164.5 137t46.5 88q0 23 -12.5 37t-30.5 14z" />
    <glyph glyph-name="three.numr.tallfig" horiz-adv-x="287" 
d="M118 379q22 0 43.5 20t21.5 56q0 27 -18.5 43t-37.5 16h-3q-7 0 -25 -3t-24 -3l-3 31q54 8 91.5 34t37.5 56q0 36 -42 36q-59 0 -66 -56h-43l24 66q20 13 53.5 23t50.5 10q46 0 72 -17.5t26 -45.5q0 -48 -86 -96q0 -1 -0.5 -3l-0.5 -2q29 -8 48.5 -29.5t19.5 -47.5
q0 -49 -48 -83.5t-104 -34.5q-61 0 -101 26l-7 76h41q6 -22 12.5 -35.5t24 -25t43.5 -11.5z" />
    <glyph glyph-name="four.numr.tallfig" horiz-adv-x="322" 
d="M150 390l14 74h-149l-7 20q41 57 107 121.5t126 108.5l32 -13l-17 -81l-22 -123h62l-5 -32h-62q-2 -12 -7 -37t-7 -37q9 -1 29 -4.5t28 -4.5l-4 -27h-177l4 27zM70 497h100l21 130q-72 -58 -124 -128l2 1q0 -2 1 -3z" />
    <glyph glyph-name="five.numr.tallfig" horiz-adv-x="285" 
d="M89 349q-39 0 -73 17l-17 8l1 74h40q4 -21 8.5 -33.5t15.5 -23.5t26 -11q35 0 66 29t31 79t-34 50q-39 0 -82 -34l-31 9l54 188h104l84 7l-19 -65l-64 3h-75l-28 -92q40 21 68 21q40 0 68.5 -21.5t28.5 -58.5q0 -26 -13 -51.5t-33 -40.5q-67 -54 -126 -54z" />
    <glyph glyph-name="six.numr.tallfig" horiz-adv-x="304" 
d="M301 697q-78 -31 -118.5 -62.5t-69.5 -85.5q47 22 79 22q35 0 62 -20.5t27 -59.5q0 -62 -39 -92q-66 -50 -118 -50q-49 0 -78.5 25t-29.5 72q0 55 30 110t81 94q61 42 169 73zM165 534q-39 0 -73 -32h2q-7 -24 -7 -45q0 -35 14.5 -55t38.5 -20q30 0 49.5 26t19.5 66
q0 30 -12.5 45t-31.5 15z" />
    <glyph glyph-name="seven.numr.tallfig" horiz-adv-x="268" 
d="M293 701l12 -19q-132 -145 -182 -315q-4 -16 -48 -16q-20 0 -29 4t-4 15q33 69 68.5 124.5t58 82.5t60.5 69l-2 -1q0 1 -1 3t-1 3h-116q-8 0 -30 -51l-4 -6h-41l41 110l71 -3h147z" />
    <glyph glyph-name="eight.numr.tallfig" horiz-adv-x="303" 
d="M8 431q0 30 23 56t55 43v2q1 2 1 3l3 -2q-35 28 -35 63q0 47 39 79.5t91 32.5q47 0 74 -19.5t27 -51.5q0 -23 -19 -48t-47 -43l1 1q0 -1 -0.5 -2t-0.5 -2q53 -31 53 -73q0 -44 -42 -82.5t-109 -38.5q-48 0 -81 22t-33 60zM209 449q0 25 -22.5 41t-66.5 30
q-51 -31 -51 -87q0 -54 60 -54q34 0 57 20t23 50zM181 678q-24 0 -45 -15.5t-21 -40.5q0 -23 15.5 -37t53.5 -28q41 32 41 77q0 44 -44 44z" />
    <glyph glyph-name="nine.numr.tallfig" horiz-adv-x="304" 
d="M10 363q74 31 115 63t70 83q-46 -24 -80 -24q-35 0 -61.5 20.5t-26.5 60.5q0 20 10 47.5t29 43.5q65 51 119 51q49 0 78 -25.5t29 -72.5q0 -52 -32.5 -111t-80.5 -94q-68 -44 -167 -71zM144 525q38 0 71 33h-2q7 22 7 42q0 34 -14.5 54t-37.5 20q-31 0 -50 -26t-19 -66
q0 -28 13 -42.5t32 -14.5z" />
    <glyph glyph-name="zero.dnom.tallfig" horiz-adv-x="333" 
d="M20 117q0 96 53 166t131 70q52 0 82.5 -33t30.5 -96q0 -105 -53 -167.5t-122 -62.5q-56 0 -89 31t-33 92zM200 323q-42 0 -74.5 -65.5t-32.5 -149.5q0 -85 54 -85q41 0 69 64t28 152q0 84 -44 84z" />
    <glyph glyph-name="one.dnom.tallfig" horiz-adv-x="261" 
d="M56 267l-5 33q89 26 123 52l37 -5l-54 -311q13 -1 39 -4.5t38 -4.5l-4 -27h-226l4 27l78 9l45 252l-14 -4q-33 -10 -61 -17z" />
    <glyph glyph-name="two.dnom.tallfig" horiz-adv-x="287" 
d="M155 307q-60 0 -72 -66h-46l28 74q20 15 53.5 26.5t49.5 11.5q47 0 76.5 -23.5t29.5 -62.5q0 -45 -53 -97t-150 -122q1 -1 1 -2.5v-2.5q29 2 88 6t86 5l-9 -54h-247l-3 31q118 88 164.5 137t46.5 88q0 23 -12.5 37t-30.5 14z" />
    <glyph glyph-name="three.dnom.tallfig" horiz-adv-x="287" 
d="M118 24q22 0 43.5 20t21.5 56q0 27 -18.5 43t-37.5 16h-3q-7 -1 -25 -3t-24 -3l-3 31q54 8 91.5 34t37.5 56q0 36 -42 36q-59 0 -66 -56h-43l24 66q20 13 53.5 23t50.5 10q46 0 72 -17.5t26 -45.5q0 -48 -86 -96v-2q-1 -2 -1 -3q29 -8 48.5 -29.5t19.5 -47.5
q0 -49 -48 -83.5t-104 -34.5q-61 0 -101 26l-7 76h41q6 -22 12.5 -35.5t24 -25t43.5 -11.5z" />
    <glyph glyph-name="four.dnom.tallfig" horiz-adv-x="322" 
d="M150 35l14 74h-149l-7 20q41 57 107 121.5t126 108.5l32 -13l-17 -81l-22 -123h62l-5 -32h-62q-2 -12 -7 -37t-7 -37q9 -1 29 -4.5t28 -4.5l-4 -27h-177l4 27zM70 142h100l21 130q-72 -58 -124 -128l2 1q0 -2 1 -3z" />
    <glyph glyph-name="five.dnom.tallfig" horiz-adv-x="285" 
d="M89 -6q-39 0 -73 17l-17 8l1 74h40q4 -21 8.5 -33.5t15.5 -23.5t26 -11q35 0 66 29t31 79t-34 50q-39 0 -82 -34l-31 9l54 188h104l84 7l-19 -65l-64 3h-75l-28 -92q40 21 68 21q40 0 68.5 -21.5t28.5 -58.5q0 -26 -13 -51.5t-33 -40.5q-67 -54 -126 -54z" />
    <glyph glyph-name="six.dnom.tallfig" horiz-adv-x="304" 
d="M301 342q-78 -31 -118.5 -62.5t-69.5 -85.5q47 22 79 22q35 0 62 -20.5t27 -59.5q0 -62 -39 -92q-66 -50 -118 -50q-49 0 -78.5 25t-29.5 72q0 55 30 110t81 94q61 42 169 73zM165 179q-39 0 -73 -32h2q-7 -24 -7 -45q0 -35 14.5 -55t38.5 -20q30 0 49.5 26t19.5 66
q0 30 -12.5 45t-31.5 15z" />
    <glyph glyph-name="seven.dnom.tallfig" horiz-adv-x="268" 
d="M293 346l12 -19q-132 -145 -182 -315q-4 -16 -48 -16q-20 0 -29 4t-4 15q33 69 68.5 124.5t58 82.5t60.5 69l-2 -1q0 1 -1 3t-1 3h-116q-8 0 -30 -51l-4 -6h-41l41 110l71 -3h147z" />
    <glyph glyph-name="eight.dnom.tallfig" horiz-adv-x="303" 
d="M8 76q0 30 23 56t55 43q0 1 0.5 3l0.5 2l3 -2q-35 28 -35 63q0 47 39 79.5t91 32.5q47 0 74 -19.5t27 -51.5q0 -23 -19 -48t-47 -43l1 1l-1 -2v-2q53 -31 53 -73q0 -44 -42 -82.5t-109 -38.5q-48 0 -81 22t-33 60zM209 94q0 25 -22.5 41t-66.5 30q-51 -31 -51 -87
q0 -54 60 -54q34 0 57 20t23 50zM181 323q-24 0 -45 -15.5t-21 -40.5q0 -23 15.5 -37t53.5 -28q41 32 41 77q0 44 -44 44z" />
    <glyph glyph-name="nine.dnom.tallfig" horiz-adv-x="304" 
d="M10 8q74 31 115 63t70 83q-46 -24 -80 -24q-35 0 -61.5 20.5t-26.5 60.5q0 20 10 47.5t29 43.5q65 51 119 51q49 0 78 -25.5t29 -72.5q0 -52 -32.5 -111t-80.5 -94q-68 -44 -167 -71zM144 170q38 0 71 33h-2q7 22 7 42q0 34 -14.5 54t-37.5 20q-31 0 -50 -26t-19 -66
q0 -28 13 -42.5t32 -14.5z" />
    <glyph glyph-name="uni2032.tallfig" horiz-adv-x="290" 
d="M143 456l70 266l96 -34l-114 -250z" />
    <glyph glyph-name="uni2033.tallfig" horiz-adv-x="480" 
d="M143 456l70 266l96 -34l-114 -250zM333 456l70 266l96 -34l-114 -250z" />
    <glyph glyph-name="dotaccentlow" horiz-adv-x="500" 
d="M168 -135q0 27 18.5 50.5t45.5 23.5q19 0 32.5 -16t13.5 -39q0 -27 -20 -49t-44 -22q-20 0 -33 15.5t-13 36.5z" />
    <glyph glyph-name="acute.lchigh" horiz-adv-x="500" 
d="M190 498v8l101 129h94v-10l-144 -127h-51z" />
    <glyph glyph-name="Iacute_Jacute" horiz-adv-x="737" 
d="M123 663h265l-7 -43l-83 -14l-96 -549l77 -14l-7 -43h-265l7 43l83 14l96 549l-77 14zM204 721v8l101 129h94v-10l-144 -127h-51zM468 15l104 591l-93 14l7 43h289l-7 -43l-92 -14l-96 -541q-8 -44 -18.5 -70t-33.5 -54q-100 -114 -162 -170l-36 40q65 68 100 113
q27 33 38 91zM599 720v8l101 129h94v-10l-144 -127h-51z" />
    <glyph glyph-name="iacute_jacute" horiz-adv-x="609" 
d="M487 490l76 -11l2 -52l-94 -465l-52 -108l-134 -96l-19 40l104 105l105 518l-111 -55l-18 34zM291 86l-153 -98l-68 31l2 52l86 343l-113 -53l-16 33l139 96l79 -12l2 -49l-87 -359l116 43zM164 564v8l113 164h90v-10l-149 -162h-54zM482 564v8l113 164h90v-10l-149 -162
h-54z" />
    <glyph glyph-name="twosevenths" 
d="M50 -29l320 370l298 353l40 -31l-308 -349l-310 -375zM185 649q-60 0 -72 -66h-46l28 74q20 15 53.5 26.5t49.5 11.5q47 0 76.5 -23.5t29.5 -62.5q0 -45 -53 -97t-150 -122q1 -1 1 -2.5v-2.5q29 2 88 6t86 5l-9 -54h-247l-3 31q118 88 164.5 137t46.5 88q0 23 -12.5 37
t-30.5 14zM696 327l12 -19q-132 -145 -182 -315q-4 -16 -48 -16q-20 0 -29 4t-4 15q33 69 68.5 124.5t58 82.5t60.5 69l-2 -1q0 1 -1 3t-1 3h-116q-8 0 -30 -51l-4 -6h-41l41 110l71 -3h147z" />
    <glyph glyph-name="twoninths" 
d="M50 -29l320 370l298 353l40 -31l-308 -349l-310 -375zM185 649q-60 0 -72 -66h-46l28 74q20 15 53.5 26.5t49.5 11.5q47 0 76.5 -23.5t29.5 -62.5q0 -45 -53 -97t-150 -122q1 -1 1 -2.5v-2.5q29 2 88 6t86 5l-9 -54h-247l-3 31q118 88 164.5 137t46.5 88q0 23 -12.5 37
t-30.5 14zM413 -11q74 31 115 63t70 83q-46 -24 -80 -24q-35 0 -61.5 20.5t-26.5 60.5q0 20 10 47.5t29 43.5q65 51 119 51q49 0 78 -25.5t29 -72.5q0 -52 -32.5 -111t-80.5 -94q-68 -44 -167 -71zM547 151q38 0 71 33h-2q7 22 7 42q0 34 -14.5 54t-37.5 20q-31 0 -50 -26
t-19 -66q0 -28 13 -42.5t32 -14.5z" />
    <glyph glyph-name="threesevenths" 
d="M50 -29l320 370l298 353l40 -31l-308 -349l-310 -375zM168 366q22 0 43.5 20t21.5 56q0 27 -18.5 43t-37.5 16h-3q-6 0 -24.5 -2.5t-24.5 -3.5l-3 31q54 8 91.5 34t37.5 56q0 36 -42 36q-59 0 -66 -56h-43l24 66q20 13 53.5 23t50.5 10q46 0 72 -17.5t26 -45.5
q0 -48 -86 -96v-2q-1 -2 -1 -3q29 -8 48.5 -29.5t19.5 -47.5q0 -49 -48 -83.5t-104 -34.5q-61 0 -101 26l-7 76h41q6 -22 12.5 -35.5t24 -25t43.5 -11.5zM696 327l12 -19q-132 -145 -182 -315q-4 -16 -48 -16q-20 0 -29 4t-4 15q33 69 68.5 124.5t58 82.5t60.5 69l-2 -1
q0 1 -1 3t-1 3h-116q-8 0 -30 -51l-4 -6h-41l41 110l71 -3h147z" />
    <glyph glyph-name="foursevenths" 
d="M50 -29l320 370l298 353l40 -31l-308 -349l-310 -375zM145 377l14 74h-149l-7 20q41 57 107 121.5t126 108.5l32 -13l-17 -81l-22 -123h62l-5 -32h-62q-2 -12 -7 -37t-7 -37q9 -1 29 -4.5t28 -4.5l-4 -27h-177l4 27zM65 484h100l21 130q-72 -58 -124 -128l2 1q0 -2 1 -3z
M696 327l12 -19q-132 -145 -182 -315q-4 -16 -48 -16q-20 0 -29 4t-4 15q33 69 68.5 124.5t58 82.5t60.5 69l-2 -1q0 1 -1 3t-1 3h-116q-8 0 -30 -51l-4 -6h-41l41 110l71 -3h147z" />
    <glyph glyph-name="fourninths" 
d="M50 -29l320 370l298 353l40 -31l-308 -349l-310 -375zM145 377l14 74h-149l-7 20q41 57 107 121.5t126 108.5l32 -13l-17 -81l-22 -123h62l-5 -32h-62q-2 -12 -7 -37t-7 -37q9 -1 29 -4.5t28 -4.5l-4 -27h-177l4 27zM65 484h100l21 130q-72 -58 -124 -128l2 1q0 -2 1 -3z
M413 -11q74 31 115 63t70 83q-46 -24 -80 -24q-35 0 -61.5 20.5t-26.5 60.5q0 20 10 47.5t29 43.5q65 51 119 51q49 0 78 -25.5t29 -72.5q0 -52 -32.5 -111t-80.5 -94q-68 -44 -167 -71zM547 151q38 0 71 33h-2q7 22 7 42q0 34 -14.5 54t-37.5 20q-31 0 -50 -26t-19 -66
q0 -28 13 -42.5t32 -14.5z" />
    <glyph glyph-name="fivesevenths" 
d="M50 -29l320 370l298 353l40 -31l-308 -349l-310 -375zM141 336q-39 0 -73 17l-17 8l1 74h40q4 -21 8.5 -33.5t15.5 -23.5t26 -11q35 0 66 29t31 79t-34 50q-39 0 -82 -34l-31 9l54 188h104l84 7l-19 -65l-64 3h-75l-28 -92q40 21 68 21q40 0 68.5 -21.5t28.5 -58.5
q0 -26 -13 -51.5t-33 -40.5q-67 -54 -126 -54zM696 327l12 -19q-132 -145 -182 -315q-4 -16 -48 -16q-20 0 -29 4t-4 15q33 69 68.5 124.5t58 82.5t60.5 69l-2 -1q0 1 -1 3t-1 3h-116q-8 0 -30 -51l-4 -6h-41l41 110l71 -3h147z" />
    <glyph glyph-name="fiveninths" 
d="M50 -29l320 370l298 353l40 -31l-308 -349l-310 -375zM141 336q-39 0 -73 17l-17 8l1 74h40q4 -21 8.5 -33.5t15.5 -23.5t26 -11q35 0 66 29t31 79t-34 50q-39 0 -82 -34l-31 9l54 188h104l84 7l-19 -65l-64 3h-75l-28 -92q40 21 68 21q40 0 68.5 -21.5t28.5 -58.5
q0 -26 -13 -51.5t-33 -40.5q-67 -54 -126 -54zM413 -11q74 31 115 63t70 83q-46 -24 -80 -24q-35 0 -61.5 20.5t-26.5 60.5q0 20 10 47.5t29 43.5q65 51 119 51q49 0 78 -25.5t29 -72.5q0 -52 -32.5 -111t-80.5 -94q-68 -44 -167 -71zM547 151q38 0 71 33h-2q7 22 7 42
q0 34 -14.5 54t-37.5 20q-31 0 -50 -26t-19 -66q0 -28 13 -42.5t32 -14.5z" />
    <glyph glyph-name="sixsevenths" 
d="M50 -29l320 370l298 353l40 -31l-308 -349l-310 -375zM334 684q-78 -31 -118.5 -62.5t-69.5 -85.5q47 22 79 22q35 0 62 -20.5t27 -59.5q0 -62 -39 -92q-66 -50 -118 -50q-49 0 -78.5 25t-29.5 72q0 55 30 110t81 94q61 42 169 73zM198 521q-39 0 -73 -32h2
q-7 -24 -7 -45q0 -35 14.5 -55t38.5 -20q30 0 49.5 26t19.5 66q0 30 -12.5 45t-31.5 15zM696 327l12 -19q-132 -145 -182 -315q-4 -16 -48 -16q-20 0 -29 4t-4 15q33 69 68.5 124.5t58 82.5t60.5 69l-2 -1q0 1 -1 3t-1 3h-116q-8 0 -30 -51l-4 -6h-41l41 110l71 -3h147z" />
    <glyph glyph-name="sevenninths" 
d="M50 -29l320 370l298 353l40 -31l-308 -349l-310 -375zM376 688l12 -19q-132 -145 -182 -315q-4 -16 -48 -16q-20 0 -29 4t-4 15q33 69 68.5 124.5t58 82.5t60.5 69l-2 -1q0 1 -1 3t-1 3h-116q-8 0 -30 -51l-4 -6h-41l41 110l71 -3h147zM413 -11q74 31 115 63t70 83
q-46 -24 -80 -24q-35 0 -61.5 20.5t-26.5 60.5q0 20 10 47.5t29 43.5q65 51 119 51q49 0 78 -25.5t29 -72.5q0 -52 -32.5 -111t-80.5 -94q-68 -44 -167 -71zM547 151q38 0 71 33h-2q7 22 7 42q0 34 -14.5 54t-37.5 20q-31 0 -50 -26t-19 -66q0 -28 13 -42.5t32 -14.5z" />
    <glyph glyph-name="eightninths" 
d="M42 418q0 30 23 56t55 43q0 1 0.5 3l0.5 2l3 -2q-35 28 -35 63q0 47 39 79.5t91 32.5q47 0 74 -19.5t27 -51.5q0 -23 -18.5 -48t-46.5 -43q0 -1 -1 -3q53 -31 53 -73q0 -44 -42 -82.5t-109 -38.5q-48 0 -81 22t-33 60zM413 -11q74 31 115 63t70 83q-46 -24 -80 -24
q-35 0 -61.5 20.5t-26.5 60.5q0 20 10 47.5t29 43.5q65 51 119 51q49 0 78 -25.5t29 -72.5q0 -52 -32.5 -111t-80.5 -94q-68 -44 -167 -71zM50 -29l320 370l298 353l40 -31l-308 -349l-310 -375zM243 436q0 25 -22.5 41t-66.5 30q-51 -31 -51 -87q0 -54 60 -54q34 0 57 20
t23 50zM547 151q38 0 71 33h-2q7 22 7 42q0 34 -14.5 54t-37.5 20q-31 0 -50 -26t-19 -66q0 -28 13 -42.5t32 -14.5zM215 665q-24 0 -45 -15.5t-21 -40.5q0 -23 15.5 -37t53.5 -28q41 32 41 77q0 44 -44 44z" />
    <glyph glyph-name="Cacute.plk" horiz-adv-x="654" 
d="M360 41q64 0 121 21l88 120h40l-60 -154q-46 -15 -63.5 -20t-59.5 -12t-87 -7q-129 0 -208.5 70t-79.5 196q0 97 34.5 177.5t93 132.5t134.5 80.5t161 28.5q44 0 97.5 -12.5t85.5 -30.5l-18 -156h-41l-21 107q-33 45 -125 45q-34 0 -70 -10.5t-75 -37.5t-69.5 -67
t-50.5 -104.5t-20 -144.5q0 -63 18 -109t48.5 -69.5t61.5 -33.5t65 -10zM440 721v8l61 129h89v-10l-104 -127h-46z" />
    <glyph glyph-name="Nacute.plk" horiz-adv-x="755" 
d="M560 179h14l50 280l22 147l-75 14l7 43h215l-7 -43l-79 -14l-31 -152l-81 -456h-33l-340 513h-12l-52 -288l-24 -166l83 -14l-7 -43h-222l8 43l77 14l32 163l69 391l-77 9l7 43h144zM419 721v8l61 129h89v-10l-104 -127h-46z" />
    <glyph glyph-name="Oacute.plk" horiz-adv-x="785" 
d="M51 256q0 81 29.5 156t82 133.5t132.5 93.5t173 35q133 0 212 -67.5t79 -185.5q0 -191 -126 -311.5t-307 -120.5q-122 0 -198.5 70.5t-76.5 196.5zM435 627q-81 0 -144 -54.5t-93.5 -133.5t-30.5 -165q0 -236 197 -236q36 0 73 11t75 38t67 66t47.5 101t18.5 137
q0 236 -210 236zM445 721v8l61 129h89v-10l-104 -127h-46z" />
    <glyph glyph-name="Sacute.plk" horiz-adv-x="543" 
d="M39 27l18 180h54q0 -89 28 -125t91 -36t107.5 35.5t44.5 95.5q0 43 -27 67.5t-88 51.5q-38 17 -57 26.5t-45.5 30t-38.5 48.5t-12 65q0 52 22.5 93t58 65.5t76 37t81.5 12.5q70 0 168 -30l-24 -165h-43q-1 75 -29.5 107t-83.5 32q-54 0 -91.5 -36t-37.5 -93
q0 -36 28 -60.5t78 -45.5q32 -13 49 -21t42.5 -24.5t38.5 -32.5t23 -40.5t10 -54.5q0 -84 -72.5 -152.5t-183.5 -68.5q-56 0 -109.5 12t-75.5 26zM340 721v8l61 129h89v-10l-104 -127h-46z" />
    <glyph glyph-name="Zacute.plk" horiz-adv-x="633" 
d="M528 -5l-253 5h-272l-11 34l513 529l-4 14h-307l-56 -99h-38l44 189l153 -4h351l12 -21l-529 -544l3 -12h352l60 103h37zM367 721v8l61 129h89v-10l-104 -127h-46z" />
    <glyph glyph-name="cacute.plk" horiz-adv-x="399" 
d="M291 495q33 0 62.5 -25t37.5 -62v-30l-47 -48h-31q0 58 -12.5 81.5t-40.5 23.5q-54 0 -96.5 -85.5t-42.5 -184.5q0 -108 67 -108q26 0 65.5 20t72.5 49l17 -38q-48 -44 -103 -72t-99 -28q-49 0 -80 40.5t-31 113.5q0 188 90 264q4 3 21 15.5t21 15.5t18.5 13t19.5 13
l17.5 10.5t19.5 9.5t17 6t19 5t18 1zM259 552v8l73 164h90v-10l-109 -162h-54z" />
    <glyph glyph-name="nacute.plk" horiz-adv-x="545" 
d="M379 -12l-58 30l6 57l66 291q9 53 -25 53q-21 0 -68.5 -24.5t-87.5 -56.5l-68 -322l-41 -16h-50l87 416l-104 -37l-14 28l134 83l68 -17l-8 -72h14q136 94 211 94q21 0 31.5 -12t13.5 -46.5t-12 -97.5l-60 -273l95 39l14 -26zM312 552v8l73 164h90v-10l-109 -162h-54z
" />
    <glyph glyph-name="oacute.plk" horiz-adv-x="469" 
d="M316 495q51 0 87 -34t36 -99q0 -181 -77 -265q-116 -109 -207 -109q-61 0 -93 39.5t-32 98.5q0 192 83 275q54 41 109.5 67.5t93.5 26.5zM120 171q0 -58 18 -89.5t47 -31.5q52 0 91 46.5t55.5 105t16.5 113.5q0 114 -71 114q-62 0 -109.5 -74.5t-47.5 -183.5zM279 552v8
l73 164h90v-10l-109 -162h-54z" />
    <glyph glyph-name="sacute.plk" horiz-adv-x="370" 
d="M7 49v30l40 56h15q41 -83 104 -83q29 0 50.5 17t21.5 53q0 19 -12 36t-22.5 25t-35.5 26q-4 3 -17 11.5t-18 12t-16 12t-15.5 13.5t-12 14t-10.5 17t-5.5 18.5t-2.5 22.5q0 46 63 105.5t102 59.5q38 0 72.5 -15t49.5 -37v-25l-42 -58h-26q-11 33 -28 47.5t-52 14.5
q-33 0 -48.5 -18.5t-15.5 -43.5q0 -14 9.5 -27.5t18.5 -20.5t32.5 -22t32.5 -21q38 -27 59 -53.5t21 -63.5q0 -52 -63.5 -108t-130.5 -56q-34 0 -66.5 16.5t-51.5 44.5zM225 552v8l73 164h90v-10l-109 -162h-54z" />
    <glyph glyph-name="zacute.plk" horiz-adv-x="440" 
d="M31 -3l-40 32l211 235l111 107l-3 9l-161 28l-37 -81l-29 4l20 135l60 27l220 -37l38 38l37 -33l-205 -218l-108 -107l5 -12l176 -50l57 97l25 -5l-31 -153l-51 -25l-247 69zM259 552v8l73 164h90v-10l-109 -162h-54z" />
    </font>
</defs>
</svg>
