<?xml version="1.0" standalone="no"?>
<!DOCTYPE svg PUBLIC "-//W3C//DTD SVG 1.1//EN" "http://www.w3.org/Graphics/SVG/1.1/DTD/svg11.dtd" >
<svg xmlns="http://www.w3.org/2000/svg" xmlns:xlink="http://www.w3.org/1999/xlink" version="1.1">
<metadata>
Created by FontForge 20170731 at Sun Mar  3 17:31:54 2019
 By Aleksey,,,
Copyright 2018-2019 Matthew Butterick
</metadata>
<defs>
<font id="ValkyrieT4-BoldItalic" horiz-adv-x="720" >
  <font-face 
    font-family="Valkyrie T4"
    font-weight="700"
    font-style="italic"
    font-stretch="normal"
    units-per-em="1000"
    panose-1="0 0 0 0 0 0 0 0 0 0"
    ascent="755"
    descent="-245"
    x-height="510"
    cap-height="663"
    bbox="-95 -269 1039 940"
    underline-thickness="50"
    underline-position="-175"
    slope="-17"
    unicode-range="U+000D-FB02"
  />
<missing-glyph horiz-adv-x="540" 
d="M20 0v700h500v-700h-500zM70 650v-600h400v600h-400zM201 137q0 20 13.5 34t33.5 14t34 -14t14 -34t-14 -33.5t-34 -13.5t-33.5 14t-13.5 33zM284 281v-16l-27 -23q-65 10 -65 50q0 22 21.5 48.5t47.5 46.5t47.5 44.5t21.5 43.5q0 27 -30.5 46t-59.5 19q-15 0 -28 -7
l-19 -43l-34 14q8 44 27 80q14 27 47 27q60 0 112 -32t52 -81q0 -32 -36.5 -69t-72.5 -68.5t-36 -49.5q0 -20 32 -30z" />
    <glyph glyph-name="uni2190" unicode="&#x3c;&#x2d;" horiz-adv-x="700" 
d="M74 272l237 264l61 -46l-163 -183h420v-84h-420l163 -183l-61 -47l-237 266v13z" />
    <glyph glyph-name="uni2192" unicode="&#x2d;&#x3e;" horiz-adv-x="700" 
d="M389 536l237 -264v-13l-237 -266l-61 47l163 183h-420v84h420l-163 183z" />
    <glyph glyph-name="fi" unicode="fi" horiz-adv-x="650" 
d="M-60 -121l100 27q60 264 70 487h-84l10 61l79 25l-1 54q-2 33 23 73.5t60.5 72t70.5 53t51 21.5l82 -6l-1 -163h-44q-26 40 -63 57q-22 -22 -28.5 -57t-6.5 -103h103l-15 -88h-92q-33 -263 -100 -431t-160 -199h-54v116zM636 96l-158 -103l-83 31l-8 52l82 316l-88 -28
l-22 55l134 91l99 -12l22 -49l-82 -332l82 31zM507 656q0 37 23.5 64t58.5 27q29 0 51 -20.5t22 -57.5q0 -43 -22.5 -68t-57.5 -25t-55 22t-20 58z" />
    <glyph glyph-name="fl" unicode="fl" horiz-adv-x="618" 
d="M-60 -121l100 27q60 264 70 487h-84l10 61l79 25l-1 54q-2 33 23 73.5t60.5 72t70.5 53t51 21.5l82 -6l-1 -163h-44q-26 40 -63 57q-22 -22 -28.5 -57t-6.5 -103h103l-15 -88h-92q-33 -263 -100 -431t-160 -199h-54v116zM437 -11l-77 42l-1 66l89 384l28 144l-75 20l8 54
l192 54l40 -31l-54 -226l-87 -379l77 28l28 -55z" />
    <glyph glyph-name="uni2190.circle" unicode="&#x28;&#x3c;&#x2d;&#x29;" horiz-adv-x="880" 
d="M399 536l-237 -264v-13l237 -266l61 47l-163 183h420v84h-420l163 183zM822 263q0 -157 -111.5 -268.5t-268.5 -111.5q-159 0 -271.5 111.5t-112.5 268.5q0 159 112.5 271t271.5 112q157 0 268.5 -112t111.5 -271z" />
    <glyph glyph-name="uni2192.circle" unicode="&#x28;&#x2d;&#x3e;&#x29;" horiz-adv-x="880" 
d="M718 272l-237 264l-61 -46l163 -183h-420v-84h420l-163 -183l61 -47l237 266v13zM58 263q0 159 111.5 271t268.5 112q159 0 271.5 -112t112.5 -271q0 -157 -112.5 -268.5t-271.5 -111.5q-157 0 -268.5 111.5t-111.5 268.5z" />
    <glyph glyph-name="uni2191.circle" unicode="&#x28;&#x2191;&#x29;" horiz-adv-x="880" 
d="M711 305l-264 237h-13l-266 -237l47 -61l183 163v-420h84v420l183 -163zM438 -118q-157 0 -268.5 111.5t-111.5 268.5q0 159 111.5 271.5t268.5 112.5q159 0 271.5 -112.5t112.5 -271.5q0 -157 -112.5 -268.5t-271.5 -111.5z" />
    <glyph glyph-name="uni2193.circle" unicode="&#x28;&#x2193;&#x29;" horiz-adv-x="880" 
d="M447 -14l264 237l-46 61l-183 -163v420h-84v-420l-183 163l-47 -61l266 -237h13zM438 646q159 0 271.5 -111.5t112.5 -268.5q0 -159 -112.5 -271.5t-271.5 -112.5q-157 0 -268.5 112.5t-111.5 271.5q0 157 111.5 268.5t268.5 111.5z" />
    <glyph glyph-name=".notdef" horiz-adv-x="540" 
d="M20 0v700h500v-700h-500zM70 650v-600h400v600h-400zM201 137q0 20 13.5 34t33.5 14t34 -14t14 -34t-14 -33.5t-34 -13.5t-33.5 14t-13.5 33zM284 281v-16l-27 -23q-65 10 -65 50q0 22 21.5 48.5t47.5 46.5t47.5 44.5t21.5 43.5q0 27 -30.5 46t-59.5 19q-15 0 -28 -7
l-19 -43l-34 14q8 44 27 80q14 27 47 27q60 0 112 -32t52 -81q0 -32 -36.5 -69t-72.5 -68.5t-36 -49.5q0 -20 32 -30z" />
    <glyph glyph-name=".null" horiz-adv-x="0" 
 />
    <glyph glyph-name="nonmarkingreturn" horiz-adv-x="333" 
 />
    <glyph glyph-name="NULL" horiz-adv-x="0" 
 />
    <glyph glyph-name="NULL" horiz-adv-x="0" 
 />
    <glyph glyph-name="CR" unicode="&#xd;" horiz-adv-x="210" 
 />
    <glyph glyph-name="space" unicode=" " horiz-adv-x="210" 
 />
    <glyph glyph-name="exclam" unicode="!" horiz-adv-x="333" 
d="M48 65q0 31 23.5 52t57.5 21q35 0 59 -21t24 -52t-24 -51.5t-59 -20.5q-34 0 -57.5 20.5t-23.5 51.5zM330 700l35 -28l-167 -473l-74 11l77 457z" />
    <glyph glyph-name="quotedbl" unicode="&#x22;" horiz-adv-x="487" 
d="M151 421l35 307l122 -25l-84 -297zM330 421l35 307l122 -25l-84 -297z" />
    <glyph glyph-name="numbersign" unicode="#" horiz-adv-x="510" 
d="M91 494l95 -13l41 194l62 -8l-41 -195l84 -11l45 214l62 -8l-45 -215l102 -14l-8 -69l-108 15l-31 -150l89 -12l-8 -69l-95 13l-42 -201l-62 8l42 202l-84 11l-46 -221l-62 8l46 222l-102 14l8 69l108 -15l31 149l-89 13zM234 404l-31 -150l84 -11l31 149z" />
    <glyph glyph-name="dollar" unicode="$" horiz-adv-x="546" 
d="M19 34l17 166h61q4 -57 34 -87t79 -32l32 181q-6 3 -27 14t-29.5 16t-26.5 16.5t-26.5 20t-21 22t-18.5 27t-10.5 31t-4.5 37.5q0 82 70.5 132.5t159.5 58.5l18 101h47l-18 -101q102 -3 149 -37l-19 -161h-60q-12 100 -85 112l-30 -168q3 -1 27.5 -13t30.5 -15.5
t27 -15.5t28 -19.5t21 -22t19.5 -27.5t10.5 -31.5t5 -39.5q0 -77 -65 -136t-173 -71l-19 -110h-47l19 107q-46 0 -101 13t-74 32zM323 172q0 35 -39 64l-26 -149q65 22 65 85zM228 472q0 -37 40 -65l24 141q-29 -8 -46.5 -28t-17.5 -48z" />
    <glyph glyph-name="percent" unicode="%" horiz-adv-x="556" 
d="M286 518l-3 -2q0 -81 -43.5 -135t-100.5 -54q-48 0 -78 36t-30 91q0 74 47 129t101 55q68 0 92 -60q6 -15 25 -24.5t42 -9.5q50 0 88 31q31 57 75 57q9 0 16.5 -7t7.5 -19q0 -29 -44 -58l-210 -286l-194 -285l-54 35l203 269l159 227l-3 3q-23 -13 -47 -13q-29 0 -49 20z
M276 115q0 74 47 129t101 55q46 0 75 -32t29 -86q0 -86 -44 -139.5t-98 -53.5q-49 0 -79.5 36t-30.5 91zM447 227q-28 0 -52.5 -44.5t-24.5 -96.5q0 -24 9.5 -37t25.5 -13q28 0 52 35.5t24 102.5q0 25 -9.5 39t-24.5 14zM202 563q-28 0 -52.5 -44.5t-24.5 -96.5
q0 -50 36 -50q27 0 51 39.5t24 98.5q0 25 -9.5 39t-24.5 14z" />
    <glyph glyph-name="ampersand" unicode="&#x26;" horiz-adv-x="736" 
d="M515 274q-61 -15 -93 -35.5t-34 -42.5t13 -46l-16 -29q-42 6 -68.5 30t-26.5 65q0 52 44 83t162 51q73 15 118.5 36t56 33t18.5 28l-8 8q-19 -16 -46 -16q-22 0 -40.5 16t-18.5 41q0 22 20 40t53 18q38 0 63.5 -26t25.5 -71q0 -57 -28.5 -92.5t-93.5 -60.5q29 -34 29 -85
q0 -83 -94.5 -154.5t-231.5 -71.5q-148 0 -219 56.5t-71 146.5q0 80 60 136.5t134 80.5v8q-24 18 -40 45.5t-16 51.5q0 73 72 121t168 48q95 0 130 -37l-19 -104l-42 -1q-3 33 -25.5 48.5t-49.5 15.5q-37 0 -60 -27t-23 -58q0 -42 21.5 -65t75.5 -24l-20 -67
q-110 3 -159.5 -43.5t-49.5 -112.5t44 -106t126 -40q45 0 88 15t75.5 52t32.5 88q0 35 -22 57z" />
    <glyph glyph-name="quotesingle" unicode="'" horiz-adv-x="308" 
d="M151 421l35 307l122 -25l-84 -297z" />
    <glyph glyph-name="parenleft" unicode="(" horiz-adv-x="352" 
d="M273 -197l-53 -46q-87 62 -128.5 132t-45.5 159q-1 94 19 211q23 128 59 218q63 157 273 278l34 -63q-150 -101 -193 -235q-29 -91 -51 -215q-9 -49 -24 -162q-8 -81 20 -154t90 -123z" />
    <glyph glyph-name="parenright" unicode=")" horiz-adv-x="352" 
d="M79 709l53 46q87 -62 128.5 -132t45.5 -159q1 -94 -19 -211q-23 -128 -59 -218q-63 -157 -273 -278l-34 63q150 101 193 235q29 91 51 215q9 49 24 162q8 81 -20 154t-90 123z" />
    <glyph glyph-name="asterisk" unicode="*" horiz-adv-x="476" 
d="M466 473l-123 44l51 -111q18 -41 -19 -59q-32 -15 -59 3q-17 10 -17 30l-8 132l-101 -87q-29 -23 -52 4q-21 26 -9 56q9 23 37 31l104 33l-100 82q-29 24 -12 55q15 27 44 24q22 -2 38 -25l67 -104l52 109q16 37 56 30q32 -7 41 -32q9 -22 -12 -42l-95 -86l117 4
q37 2 45 -33q7 -32 -13 -52q-13 -13 -32 -6z" />
    <glyph glyph-name="plus" unicode="+" horiz-adv-x="620" 
d="M573 221h-219v-221h-87v221h-220v86h220v221h87v-221h219v-86z" />
    <glyph glyph-name="comma" unicode="," horiz-adv-x="297" 
d="M44 -206l-71 53l86 152l37 159l131 -56l-68 -147z" />
    <glyph glyph-name="hyphen" unicode="-" horiz-adv-x="335" 
d="M67 319l59 -2h105l77 2l-20 -108l-56 3h-121l-63 -3z" />
    <glyph glyph-name="period" unicode="." horiz-adv-x="253" 
d="M25 75q0 35 23.5 59t57.5 24q35 0 58.5 -24t23.5 -59t-23.5 -58.5t-58.5 -23.5q-34 0 -57.5 23.5t-23.5 58.5z" />
    <glyph glyph-name="slash" unicode="/" horiz-adv-x="460" 
d="M518 734l-450 -856h-98l450 856h98z" />
    <glyph glyph-name="zero" unicode="0" horiz-adv-x="605" 
d="M267 -13q-225 0 -225 243q0 88 29.5 166t77.5 130t108 82t120 30q98 0 155 -62.5t57 -183.5q0 -171 -93 -288t-229 -117zM367 551q-40 0 -73 -38t-52.5 -93.5t-30.5 -112.5t-11 -102q0 -67 22.5 -98.5t59.5 -31.5q40 0 76 53t56 131t20 156q0 136 -67 136z" />
    <glyph glyph-name="one" unicode="1" horiz-adv-x="475" 
d="M100 463l-6 83q69 20 133 46.5t90 46.5l88 -10l-97 -541l112 -15l-12 -73h-385l12 73l117 15l73 407q-31 -11 -125 -32z" />
    <glyph glyph-name="two" unicode="2" horiz-adv-x="521" 
d="M294 537q-114 0 -136 -121h-86l53 146q37 31 101 53.5t96 22.5q89 0 147 -45.5t58 -118.5q0 -38 -25.5 -80t-75 -87t-95 -80.5t-110.5 -82.5q-19 -13 -28 -20l5 -14l274 20l-24 -130h-452v72q209 163 286 244t77 153q0 31 -19 49.5t-46 18.5z" />
    <glyph glyph-name="three" unicode="3" horiz-adv-x="521" 
d="M223 63q36 0 69 32t33 89q-1 50 -28 75t-54 25l-85 -18l-11 70q100 22 155.5 61.5t55.5 93.5q0 56 -70 56q-25 0 -43 -8t-30 -26t-16.5 -28.5t-12.5 -33.5h-86l49 131q39 23 104.5 39.5t105.5 16.5q77 0 123 -35t46 -90q0 -48 -37 -83t-111 -77l1 -10q43 -17 76 -57
t33 -91q0 -87 -87 -147.5t-192 -60.5q-109 0 -187 43l-12 162h79q7 -23 11.5 -35t15.5 -33t23.5 -32t34 -20t47.5 -9z" />
    <glyph glyph-name="four" unicode="4" horiz-adv-x="585" 
d="M277 88l19 103h-237l-23 54q70 97 182.5 208t214.5 185l90 -17l-31 -149l-35 -199h104l-15 -81h-104l-19 -104l92 -15l-12 -73h-327l12 73zM344 453l-11 6q-124 -110 -173 -176l4 -10h147z" />
    <glyph glyph-name="five" unicode="5" horiz-adv-x="518" 
d="M169 -13q-28 0 -52.5 4.5t-36 9t-33.5 15.5t-30 14l2 157h74q6 -31 10 -44.5t15.5 -33.5t31.5 -28t52 -8q47 0 91 43t44 112q0 42 -17 64.5t-49 22.5q-65 0 -126 -46l-72 27l101 330h222l134 10l-39 -138l-100 5h-168l-38 -124l9 -5q20 9 55.5 17t57.5 8
q79 0 132.5 -39.5t53.5 -109.5q0 -55 -29.5 -107t-76.5 -81q-121 -74 -218 -75z" />
    <glyph glyph-name="six" unicode="6" horiz-adv-x="552" 
d="M246 371l4 -5q67 32 118 32q62 0 110 -38t51 -112q0 -43 -14 -92t-53 -76q-132 -93 -227 -93q-94 0 -148.5 47t-54.5 136q0 171 144 307.5t378 193.5l6 -78q-136 -50 -201 -95.5t-113 -126.5zM308 313q-57 0 -108 -51q-13 -67 -12 -84q2 -48 24.5 -75t58.5 -27
q48 0 75.5 41t25.5 101q-1 46 -19.5 70.5t-44.5 24.5z" />
    <glyph glyph-name="seven" unicode="7" horiz-adv-x="488" 
d="M526 626l14 -96q-114 -129 -186.5 -243.5t-111.5 -247.5q-15 -46 -105 -46q-14 0 -23.5 0.5t-20 2t-16 4t-9 7.5t-3 12t4.5 17q136 288 319 446l-6 14l-186 1q-5 0 -9.5 -1.5t-9 -4.5t-8 -6t-7.5 -9t-7 -9.5t-7 -11t-6.5 -11.5t-6.5 -12t-6 -11h-66l71 210l118 -5h273z
" />
    <glyph glyph-name="eight" unicode="8" horiz-adv-x="551" 
d="M27 140q0 57 37 96t103 71l1 9q-64 49 -64 117q0 86 69.5 145.5t175.5 59.5q85 0 136.5 -37.5t53.5 -98.5q0 -41 -33 -81.5t-92 -69.5l-1 -8q100 -53 103 -142q0 -36 -18 -73t-52 -69t-89.5 -52t-122.5 -20q-86 0 -145.5 42t-61.5 111zM229 282q-78 -56 -78 -132
q0 -39 25.5 -61.5t76.5 -22.5q45 0 77.5 28.5t32.5 72.5q0 38 -34.5 64.5t-99.5 50.5zM331 560q-38 0 -60 -21t-22 -55q0 -32 22.5 -55.5t73.5 -48.5q62 48 62 111q0 33 -20 51t-56 18z" />
    <glyph glyph-name="nine" unicode="9" horiz-adv-x="552" 
d="M348 255l-5 5q-73 -37 -124 -37q-67 0 -116.5 39.5t-49.5 117.5q0 41 15 87.5t52 73.5q121 97 228 97q92 0 147 -48t55 -137q0 -96 -57.5 -199.5t-144.5 -162.5q-131 -79 -322 -126v75q140 49 206 92.5t116 122.5zM276 309q56 0 104 41q13 42 13 90q0 53 -22.5 83.5
t-58.5 30.5q-45 0 -73 -42.5t-28 -106.5q0 -47 18 -71.5t47 -24.5z" />
    <glyph glyph-name="colon" unicode=":" horiz-adv-x="333" 
d="M130 370q0 35 23.5 59t57.5 24q35 0 58.5 -24t23.5 -59t-23.5 -58.5t-58.5 -23.5q-34 0 -57.5 23.5t-23.5 58.5zM73 75q0 35 23.5 59t57.5 24q35 0 58.5 -24t23.5 -59t-23.5 -58.5t-58.5 -23.5q-34 0 -57.5 23.5t-23.5 58.5z" />
    <glyph glyph-name="semicolon" unicode=";" horiz-adv-x="337" 
d="M127 370q0 35 23.5 59t57.5 24q35 0 58.5 -24t23.5 -59t-23.5 -58.5t-58.5 -23.5q-34 0 -57.5 23.5t-23.5 58.5zM59 -206l-71 53l86 152l37 159l131 -56l-68 -147z" />
    <glyph glyph-name="less" unicode="&#x3c;" horiz-adv-x="594" 
d="M548 456l-391 -186q58 -28 190.5 -91t200.5 -96v-92l-502 239v79l502 239v-92z" />
    <glyph glyph-name="equal" unicode="=" horiz-adv-x="620" 
d="M573 297h-526v87h526v-87zM573 125h-526v86h526v-86z" />
    <glyph glyph-name="greater" unicode="&#x3e;" horiz-adv-x="594" 
d="M437 270l-391 186v92l502 -239v-79l-502 -239v92q68 33 200.5 96t190.5 91z" />
    <glyph glyph-name="question" unicode="?" horiz-adv-x="443" 
d="M30 65q0 31 23.5 52t58.5 21q34 0 58 -21t24 -52q0 -30 -24 -51t-58 -21q-35 0 -58.5 20.5t-23.5 51.5zM234 261l-10 -29l-61 -22q-86 42 -86 93q0 34 38.5 61.5t84.5 43.5t84.5 40t38.5 53q0 30 -31.5 55t-55.5 25l-50 -57l-64 57q68 119 131 119q72 0 142 -63t70 -123
q0 -37 -27 -67.5t-65.5 -49t-77 -34t-65.5 -31.5t-27 -34q0 -17 31 -37z" />
    <glyph glyph-name="at" unicode="@" horiz-adv-x="816" 
d="M700 389q0 34 -8.5 69t-28.5 72.5t-60 61t-95 23.5q-93 0 -175.5 -70.5t-130 -180.5t-47.5 -225q0 -114 41.5 -171t117.5 -57q86 0 165 64l26 -50q-45 -36 -99.5 -56t-100.5 -20q-114 0 -173.5 76.5t-59.5 214.5q0 123 58 245t161 203t220 81q123 0 196 -77t73 -203
q0 -68 -21.5 -127.5t-55 -99.5t-74 -69t-77.5 -42.5t-66 -13.5q-42 0 -42 47q0 30 21 82l-5 4q-27 -38 -47.5 -63t-54 -48.5t-65.5 -23.5q-31 0 -48 26t-17 59q0 83 59 184q46 77 107 128t116 51q28 0 42 -27q7 16 14.5 21t30.5 5q22 0 30 -5.5t5 -17.5l-106 -326v1
q-6 -25 8 -25q17 0 43.5 19t54.5 52.5t48 89.5t20 119zM317 153q0 -39 18 -39q32 0 90 77t99 178v-1q8 63 -24 63t-68 -33t-64 -84q-51 -91 -51 -161z" />
    <glyph glyph-name="A" unicode="A" horiz-adv-x="718" 
d="M447 82l-19 111h-216l-64 -106l85 -14l-12 -73h-245l12 73l56 14l362 576h94l108 -581l64 -14l-11 -68h-297l11 68zM370 452l-108 -178h152l-31 178h-13z" />
    <glyph glyph-name="B" unicode="B" horiz-adv-x="620" 
d="M283 0h-302l12 73l77 14l86 489l-71 14l12 73h332q87 0 135.5 -33.5t48.5 -98.5q0 -31 -12 -63.5t-43.5 -66t-77.5 -48.5v-8q107 -31 107 -129q0 -96 -84 -156t-220 -60zM229 82h72q62 0 93 39.5t32 90.5q1 44 -20.5 71t-65.5 27h-71zM317 581l-34 -194h63
q40 0 71.5 31.5t31.5 81.5q0 39 -18 60t-51 21h-63z" />
    <glyph glyph-name="C" unicode="C" horiz-adv-x="654" 
d="M369 71q59 0 111 21l86 110h60l-64 -179q-110 -34 -214 -34q-139 0 -223.5 68.5t-84.5 192.5q0 187 129.5 305.5t311.5 118.5q47 0 102.5 -15.5t89.5 -37.5l-24 -191h-66l-19 117q-47 45 -121 45q-88 0 -160 -86t-72 -225q0 -105 49 -157.5t109 -52.5z" />
    <glyph glyph-name="D" unicode="D" horiz-adv-x="747" 
d="M304 0h-323l12 73l78 14l86 489l-72 14l12 73h388q125 0 193 -64t68 -179q0 -126 -61.5 -223t-161.5 -147t-219 -50zM231 82h77q107 0 189 95t82 238q0 86 -35.5 126t-110.5 40h-114z" />
    <glyph glyph-name="E" unicode="E" horiz-adv-x="593" 
d="M230 80h202l80 121h56l-51 -206l-156 5h-380l12 73l77 14l86 489l-71 14l12 73h373l132 4l-26 -182h-56l-32 97h-170l-38 -215l110 6l54 84h53l-44 -252h-53l-24 86l-109 3z" />
    <glyph glyph-name="F" unicode="F" horiz-adv-x="534" 
d="M230 88l88 -15l-12 -73h-325l13 74l76 14l86 488l-71 14l12 73h345l132 4l-29 -192h-60l-20 107h-148l-40 -230l101 7l39 74h52l-42 -237h-52l-10 89l-100 4z" />
    <glyph glyph-name="G" unicode="G" horiz-adv-x="736" 
d="M376 71q52 0 97 31l24 134l-82 14l12 73h300l-12 -73l-64 -14l-31 -179q-124 -68 -272 -68q-132 0 -220 67t-88 197q0 97 37 177.5t99 133t142 81.5t167 29q109 0 221 -49l-12 -177h-75l-24 98q-39 46 -123 46q-106 0 -183.5 -82.5t-77.5 -241.5q0 -103 49 -150t116 -47z
" />
    <glyph glyph-name="H" unicode="H" horiz-adv-x="771" 
d="M517 663h309l-12 -73l-77 -14l-86 -489l71 -14l-12 -73h-309l12 73l78 14l38 217h-261l-38 -217l72 -14l-12 -73h-309l12 73l77 14l86 489l-71 14l12 73h309l-12 -73l-78 -14l-32 -183h261l32 183l-72 14z" />
    <glyph glyph-name="I" unicode="I" horiz-adv-x="369" 
d="M103 663h315l-12 -73l-80 -14l-86 -489l74 -14l-12 -73h-315l12 73l80 14l86 489l-74 14z" />
    <glyph glyph-name="J" unicode="J" horiz-adv-x="368" 
d="M72 35l95 541l-85 14l12 73h329l-12 -73l-84 -14l-83 -471q-9 -54 -19.5 -83.5t-36.5 -60.5q-60 -69 -232 -190l-39 50q87 84 118 123q26 33 37 91z" />
    <glyph glyph-name="K" unicode="K" horiz-adv-x="691" 
d="M316 576l-36 -204h32l211 195l-65 23l12 73h263l-12 -73l-94 -29l-195 -180l166 -294l45 -14l-12 -73h-285l12 73l48 11l-109 214h-30l-37 -211l72 -14l-12 -73h-309l12 73l77 14l86 489l-71 14l12 73h309l-12 -73z" />
    <glyph glyph-name="L" unicode="L" horiz-adv-x="552" 
d="M479 -5l-151 5h-347l12 73l75 14l86 489l-69 14l12 73h313l-12 -73l-84 -14l-87 -496h161l82 127h61z" />
    <glyph glyph-name="M" unicode="M" horiz-adv-x="911" 
d="M683 442h-12l-250 -451h-85l-96 452h-10l-85 -356l84 -14l-12 -73h-247l12 73l84 14l121 482l-100 20l13 74h244l100 -451h11l254 451h258l-13 -74l-95 -22l-65 -480l78 -14l-12 -73h-321l12 73l84 14z" />
    <glyph glyph-name="N" unicode="N" horiz-adv-x="755" 
d="M557 232h14l33 197l22 147l-82 14l12 73h254l-12 -73l-76 -14l-32 -152l-74 -424h-98l-285 448h-13l-33 -195l-24 -166l81 -14l-12 -73h-251l12 73l74 14l33 163l57 324l-78 14l13 75h201z" />
    <glyph glyph-name="O" unicode="O" horiz-adv-x="785" 
d="M40 258q0 91 39 171t100.5 132.5t137 82.5t150.5 30q144 0 229 -72t85 -198q0 -119 -63 -215.5t-163 -148t-213 -51.5q-134 0 -218 72.5t-84 196.5zM446 592q-74 0 -129 -47.5t-81 -119t-26 -153.5q0 -97 46.5 -148t118.5 -51q40 0 79 17.5t75 53t58.5 99t22.5 146.5
q0 101 -47.5 152t-116.5 51z" />
    <glyph glyph-name="P" unicode="P" horiz-adv-x="559" 
d="M298 253l8 64q43 8 74 51.5t31 118.5q0 92 -72 92h-22l-87 -492l85 -14l-12 -73h-322l12 73l77 14l86 489l-71 14l12 73h295q97 0 139.5 -39.5t42.5 -115.5q0 -108 -79 -174t-197 -81z" />
    <glyph glyph-name="Q" unicode="Q" horiz-adv-x="785" 
d="M40 258q0 91 39 171t100.5 132.5t137 82.5t150.5 30q144 0 229 -72t85 -198q0 -139 -82 -243.5t-209 -147.5q68 -71 164 -85l-12 -74q-194 9 -332 136q-122 8 -196 79.5t-74 188.5zM446 592q-74 0 -129 -47.5t-81 -119t-26 -153.5q0 -81 32.5 -130t86.5 -63l88 44
q16 -31 21 -40q73 25 122.5 101t49.5 205q0 101 -47.5 152t-116.5 51z" />
    <glyph glyph-name="R" unicode="R" horiz-adv-x="674" 
d="M292 267h-34l-31 -180l88 -14l-12 -73h-322l12 73l80 14l86 489l-74 14l12 73h318q193 0 193 -156q0 -55 -41.5 -111t-118.5 -86l-1 -11l149 -237l43 -19l-19 -52l-182 18zM313 576l-41 -233h40q54 0 92 37.5t38 101.5q0 94 -93 94h-36z" />
    <glyph glyph-name="S" unicode="S" horiz-adv-x="543" 
d="M21 37l18 175h64q12 -126 130 -126q44 0 76.5 26t32.5 70q0 27 -19 49t-48 36.5t-62.5 33.5t-62.5 39t-48 54t-19 77q0 63 43.5 111t103.5 70t121 22q128 0 182 -40l-20 -170h-63q-7 59 -36 89t-71 30q-45 0 -73 -23.5t-28 -60.5q0 -32 27.5 -56t66 -41.5t77.5 -38.5
t66.5 -59.5t27.5 -92.5q0 -90 -83.5 -156t-217.5 -66q-49 0 -107 14t-78 34z" />
    <glyph glyph-name="T" unicode="T" horiz-adv-x="666" 
d="M114 667l171 -4h246l173 4l-20 -207h-67l-16 118h-129l-86 -491l82 -14l-12 -73h-328l12 73l87 14l86 491h-128l-54 -118h-67z" />
    <glyph glyph-name="U" unicode="U" horiz-adv-x="735" 
d="M557 663h234l-12 -73l-67 -14l-38 -157l-36 -208q-7 -37 -29 -74.5t-58 -71t-93.5 -55t-125.5 -21.5q-137 0 -202 57.5t-47 156.5l66 373l-74 14l12 73h315l-12 -73l-81 -14l-63 -355q-10 -63 19.5 -104.5t100.5 -41.5t126.5 46t70.5 130l30 173l18 152l-66 14z" />
    <glyph glyph-name="V" unicode="V" horiz-adv-x="691" 
d="M388 214l204 357l-91 23l12 69h247l-12 -69l-60 -27l-48 -77l-284 -490h-97l-127 576l-61 14l12 73h311l-12 -73l-76 -14l69 -362h13z" />
    <glyph glyph-name="W" unicode="W" horiz-adv-x="970" 
d="M541 453h-16l-191 -453h-122l-75 576l-66 14l12 73h293l-12 -73l-73 -14l33 -348h12l184 439l142 2l41 -441h10l153 343l-83 23l12 69h244l-12 -69l-64 -27l-37 -75l-220 -492h-116z" />
    <glyph glyph-name="X" unicode="X" horiz-adv-x="683" 
d="M59 87l230 234l-128 255l-68 14l12 73h305l-12 -73l-61 -14l67 -138l136 138l-85 14l12 73h273l-12 -73l-81 -14l-207 -210l137 -279l59 -14l-12 -73h-297l12 73l69 14l-83 163l-160 -163l75 -14l-12 -73h-249l12 73z" />
    <glyph glyph-name="Y" unicode="Y" horiz-adv-x="647" 
d="M401 381h12q37 79 95 155t114 120q33 25 72 1q30 -19 26 -42q-2 -12 -16 -19q-132 -72 -267 -306l-35 -203l79 -14l-12 -73h-320l12 73l82 14l37 209q-16 75 -59.5 155.5t-93.5 121.5l-58 4v53l128 42q39 -6 73.5 -35t59 -73.5t41.5 -89t30 -93.5z" />
    <glyph glyph-name="Z" unicode="Z" horiz-adv-x="633" 
d="M549 -5l-269 5h-282l-12 34l473 485l-4 14h-237l-59 -106h-58l53 240l168 -4h361l12 -21l-490 -500l2 -12h277l70 108h57z" />
    <glyph glyph-name="bracketleft" unicode="[" horiz-adv-x="335" 
d="M394 737l-9 -56l-136 -20l-143 -809l129 -20l-10 -56h-247l169 961h247z" />
    <glyph glyph-name="backslash" unicode="\" horiz-adv-x="460" 
d="M335 -122l-260 856h96l260 -856h-96z" />
    <glyph glyph-name="bracketright" unicode="]" horiz-adv-x="335" 
d="M-59 -224l9 56l136 20l143 809l-129 20l10 56h247l-169 -961h-247z" />
    <glyph glyph-name="asciicircum" unicode="^" horiz-adv-x="540" 
d="M284 691l221 -377l-78 -46l-152 273h-8l-155 -273l-77 46l222 377h27z" />
    <glyph glyph-name="underscore" unicode="_" horiz-adv-x="604" 
d="M-54 -176h611v-70h-611v70z" />
    <glyph glyph-name="grave" unicode="`" horiz-adv-x="500" 
d="M295 516v-18h-71l-139 152v20h124z" />
    <glyph glyph-name="a" unicode="a" horiz-adv-x="507" 
d="M352 -7l-80 19l-1 69l-9 5q-41 -39 -88 -66t-75 -27q-84 0 -84 135q0 81 36 167t96 138q48 36 80.5 54t62.5 18q40 0 80 -28l34 32l80 -19l-85 -381l74 29l24 -49zM155 175q0 -58 26 -58q13 0 46 18.5t55 39.5l45 223q-21 19 -46 19q-45 0 -85.5 -78t-40.5 -164z" />
    <glyph glyph-name="b" unicode="b" horiz-adv-x="495" 
d="M146 -11q-62 0 -88.5 30.5t-24.5 80.5l99 537l-84 15l6 57l206 44l28 -32l-55 -269l7 -5q99 58 151 58q44 0 66.5 -33t22.5 -92q0 -107 -39.5 -192t-114.5 -126q-118 -73 -180 -73zM341 341q0 57 -28 57t-92 -38l-44 -229q-9 -38 30 -38q46 0 90 73.5t44 174.5z" />
    <glyph glyph-name="c" unicode="c" horiz-adv-x="399" 
d="M304 515q39 0 66 -23t39 -59v-30l-47 -73h-46q-7 90 -52 90q-47 0 -78.5 -75t-31.5 -170q0 -49 13.5 -68.5t40.5 -19.5q24 0 55 16t57 42l37 -48q-100 -104 -201 -104q-63 0 -102 39t-39 110q0 93 29 166t81 113q112 94 179 94z" />
    <glyph glyph-name="d" unicode="d" horiz-adv-x="508" 
d="M346 -7l-74 19l-1 65l-8 5q-115 -89 -164 -89q-40 0 -62 33.5t-22 75.5q0 102 35.5 186t81.5 129q100 88 161 88q19 0 56 -13l25 135l-89 21l8 51l194 54l44 -31l-132 -615l77 29l23 -52zM156 184q0 -31 9 -48.5t22 -17.5q29 0 98 62l45 222q-19 14 -43 14q-51 0 -91 -73
t-40 -159z" />
    <glyph glyph-name="e" unicode="e" horiz-adv-x="429" 
d="M412 413q0 -90 -67.5 -144t-190.5 -92v-15q0 -41 12.5 -57t39.5 -16q71 0 156 77l42 -43q-48 -55 -114.5 -92.5t-132.5 -37.5q-65 0 -103.5 36t-38.5 102q0 102 38.5 191t100.5 128q95 65 152 65q106 0 106 -102zM250 412q-32 -1 -56.5 -45.5t-34.5 -117.5
q126 43 126 129q0 34 -35 34z" />
    <glyph glyph-name="f" unicode="f" horiz-adv-x="340" 
d="M-60 -121l100 27q60 264 70 487h-84l10 61l79 25l-1 54q-2 33 23 73.5t60.5 72t70.5 53t51 21.5l82 -6l-1 -163h-44q-26 40 -63 57q-22 -22 -28.5 -57t-6.5 -103h103l-15 -88h-92q-33 -263 -100 -431t-160 -199h-54v116z" />
    <glyph glyph-name="g" unicode="g" horiz-adv-x="471" 
d="M492 493v-91h-71q0 -1 1.5 -10.5t1.5 -15.5q0 -90 -68.5 -154t-179.5 -64h-1q-16 -26 -8 -38.5t29 -17.5q203 -36 203 -152q0 -60 -41 -105.5t-101 -66.5t-126 -21q-92 0 -144.5 33t-52.5 90q0 88 132 143q-23 40 -12 80t54 71q-81 38 -81 126q0 90 73 150t161 60
q80 0 122 -47l41 30h68zM266 -87q0 65 -146 73q-67 -30 -67 -91q0 -68 93 -68q48 0 84 24t36 62zM168 284q0 -56 38 -56q33 0 60.5 44t27.5 102q0 57 -44 57q-32 0 -57 -44t-25 -103z" />
    <glyph glyph-name="h" unicode="h" horiz-adv-x="529" 
d="M374 -7l-93 29l1 68l64 266q8 38 -19 38q-31 0 -101 -41l-68 -328l-58 -25h-83l101 484l26 142l-81 20l9 53l180 54l48 -41l-41 -194l-17 -77l9 -5q38 25 60 38.5t56 27t60 13.5q96 0 60 -156l-68 -245l74 28l23 -53z" />
    <glyph glyph-name="i" unicode="i" horiz-adv-x="310" 
d="M296 96l-158 -103l-83 31l-8 52l82 316l-88 -28l-22 55l134 91l99 -12l22 -49l-82 -332l82 31zM167 656q0 37 23.5 64t58.5 27q29 0 51 -20.5t22 -57.5q0 -43 -22.5 -68t-57.5 -25t-55 22t-20 58z" />
    <glyph glyph-name="j" unicode="j" horiz-adv-x="299" 
d="M152 510l107 -16l17 -47l-95 -486l-72 -103l-139 -101l-39 63l108 117l90 455l-88 -29l-20 57zM163 656q0 37 23.5 64t58.5 27q29 0 51 -20.5t22 -57.5q0 -43 -22.5 -68t-57.5 -25t-55 22t-20 58z" />
    <glyph glyph-name="k" unicode="k" horiz-adv-x="484" 
d="M441 354h-18l-37 33q-36 0 -84 -69l-1 -20l95 -189l50 23l30 -45l-127 -97l-73 32l-76 183h-11l-38 -185l-53 -20h-82l111 534l19 92l-81 20l7 56l184 51l45 -41l-50 -223l-42 -167h16q41 78 105 133t97 55l74 -55z" />
    <glyph glyph-name="l" unicode="l" horiz-adv-x="278" 
d="M97 -11l-77 42l-1 66l89 384l28 144l-75 20l8 54l192 54l40 -31l-54 -226l-87 -379l77 28l28 -55z" />
    <glyph glyph-name="m" unicode="m" horiz-adv-x="800" 
d="M759 140l28 -47l-150 -100l-92 34l5 72l60 261q7 34 -20 34q-14 0 -44.5 -11.5t-51.5 -25.5l-68 -338l-53 -19h-89l71 341q10 58 -14 58q-27 0 -99 -41l-69 -336l-66 -22h-74l82 397l-82 -32l-20 56l141 89l97 -15l-8 -61h12q119 81 179 81q17 0 26.5 -2t20.5 -9
t15.5 -24.5t3.5 -45.5h9q133 81 185 81q42 0 59 -25t-1 -104l-63 -268z" />
    <glyph glyph-name="n" unicode="n" horiz-adv-x="545" 
d="M385 -7l-93 30l1 57l64 266q4 22 -1 35t-17 13q-37 0 -96 -38l-68 -327l-56 -26h-85l78 391l-80 -31l-19 58l144 89l93 -17l-3 -59h14q36 26 58 40t54 27.5t58 13.5q34 0 51 -11.5t24 -47.5t-11 -102l-59 -239l72 25l24 -51z" />
    <glyph glyph-name="o" unicode="o" horiz-adv-x="469" 
d="M316 515q59 0 98.5 -36t39.5 -112q0 -84 -25 -159t-72 -121q-113 -94 -202 -94q-67 0 -103.5 42t-36.5 106q0 201 103 285q52 39 106.5 64t91.5 25zM155 194q0 -99 45 -99q28 0 51 24t36 60.5t19.5 73t6.5 66.5q0 48 -9 71.5t-32 23.5q-51 0 -84 -65t-33 -155z" />
    <glyph glyph-name="p" unicode="p" horiz-adv-x="516" 
d="M149 510l92 -16l-1 -50l13 -6q96 72 163 72q42 0 63.5 -40.5t21.5 -104.5q0 -92 -30.5 -171t-77.5 -118q-89 -80 -148 -80q-30 0 -80 18l-44 -225l-58 -24h-81l53 264l75 371l-77 -25l-23 55zM361 337q0 61 -32 61q-35 0 -91 -39l-50 -245q8 -25 49 -25q36 0 65 37t44 93
t15 118z" />
    <glyph glyph-name="q" unicode="q" horiz-adv-x="478" 
d="M383 10l-42 -223l-48 -22h-87l41 203l15 75l-8 5q-112 -55 -144 -55q-48 0 -71.5 34.5t-23.5 79.5q0 92 33 179t84 131q35 29 58 45.5t53 31.5t53 15q27 0 85 -27l46 22l64 -19l-46 -162zM155 174q0 -43 10.5 -58.5t30.5 -15.5q29 0 77 38l57 262q-22 14 -46 14
q-36 0 -67 -40t-46.5 -95t-15.5 -105z" />
    <glyph glyph-name="r" unicode="r" horiz-adv-x="379" 
d="M159 510l63 -22l-6 -79l12 -5q33 54 61 80t64 26q29 0 49 -10l-37 -158h-36l-16 23q-24 -2 -48.5 -18t-37.5 -43l-58 -279l-45 -25h-95l77 388l-71 -26l-22 56z" />
    <glyph glyph-name="s" unicode="s" horiz-adv-x="370" 
d="M0 49v30l40 84h20q44 -58 113 -58q47 0 47 32q0 6 -1.5 11t-5.5 9.5t-7 8t-11 8.5t-13 8t-17 10t-19 11q-47 26 -68 56t-21 71q0 52 70 118.5t111 66.5t78 -15t54 -37v-25l-42 -86h-21q-48 47 -100 47q-44 0 -44 -29q0 -4 2 -8.5t6 -9t8 -8t11.5 -9t13 -9t15.5 -10
t16 -10.5q51 -31 73.5 -60.5t22.5 -71.5q0 -56 -69.5 -118.5t-134.5 -62.5q-82 0 -127 56z" />
    <glyph glyph-name="t" unicode="t" horiz-adv-x="338" 
d="M150 -7l-112 30l-2 64l66 305h-74l15 67l80 22l26 132l109 50l38 -42l-45 -140h107l-14 -88l-105 -1l-61 -285l109 38l24 -52z" />
    <glyph glyph-name="u" unicode="u" horiz-adv-x="539" 
d="M387 -7l-90 32l-1 57l-9 3q-115 -92 -177 -92q-92 0 -59 134l65 262l-75 -33l-28 56l143 98l82 -15l13 -67l-65 -283q-10 -36 16 -36q14 0 46 24t57 55l65 283l58 29h83l-88 -391l79 34l24 -49z" />
    <glyph glyph-name="v" unicode="v" horiz-adv-x="507" 
d="M49 470l54 30h162l32 -71q-54 -54 -77 -129t-23 -137q0 -51 39 -51q49 0 94 71.5t45 150.5q0 66 -37 84v41l81 51h37q36 -40 36 -96q0 -96 -45 -191t-117 -150q-46 -36 -97.5 -58t-88.5 -22q-51 0 -70.5 32.5t-19.5 91.5q0 67 28 136.5t71 116.5l-7 20h-50l-47 -68
l-39 21z" />
    <glyph glyph-name="w" unicode="w" horiz-adv-x="747" 
d="M659 510h37q36 -34 36 -96q0 -86 -36.5 -171.5t-95.5 -146.5q-116 -103 -198 -103q-90 0 -83 90l-7 3q-97 -93 -173 -93q-85 0 -85 124q0 62 28.5 132.5t70.5 115.5l-7 25h-50l-43 -69l-44 21l40 127l48 31h168l32 -71q-54 -53 -79.5 -133.5t-25.5 -131.5
q0 -34 8.5 -45.5t32.5 -11.5q14 0 37.5 18.5t42.5 45.5q16 35 33.5 122t19.5 172l50 37l105 -13q-42 -134 -64 -280q-13 -100 18 -100q47 0 93 73t46 152q0 35 -11.5 54.5t-34.5 34.5v31z" />
    <glyph glyph-name="x" unicode="x" horiz-adv-x="492" 
d="M318 -7l-88 32l-24 107l-71 -96l-76 -43l-72 50l55 98l70 -25l75 101l-40 183l-81 -38l-19 52l120 96l96 -24l28 -128l87 117l63 35l66 -49l-48 -100l-66 25l-83 -113l36 -161l90 30l19 -46z" />
    <glyph glyph-name="y" unicode="y" horiz-adv-x="526" 
d="M143 510l87 -26l15 -44l-1 -295q0 -19 5.5 -27.5t13.5 -5.5q20 6 38 16q56 128 76 277l-27 58l107 47h54l17 -65q-38 -141 -85 -261.5t-101.5 -218t-118 -153t-127.5 -55.5q-34 0 -66.5 20.5t-48.5 49.5l54 94h31q21 -51 70 -51q35 0 76 44t68 118l-6 8
q-22 -17 -53.5 -29.5t-50.5 -12.5q-45 0 -50 96l-14 300l-64 -33l-30 56z" />
    <glyph glyph-name="z" unicode="z" horiz-adv-x="440" 
d="M51 -8l-70 52l201 225l81 89l-3 9l-121 18l-32 -76l-49 8l25 151l80 42l200 -32l43 38l62 -53l-185 -205l-93 -95l5 -12l131 -30l52 85l45 -10l-36 -168l-71 -35l-217 54z" />
    <glyph glyph-name="braceleft" unicode="{" horiz-adv-x="435" 
d="M193 286l-2 -14q52 -17 81.5 -57.5t20.5 -95.5q-5 -33 -37.5 -100t-38.5 -103q-6 -37 24.5 -59t114.5 -22l-10 -57q-155 0 -207.5 36.5t-38.5 115.5q5 35 36.5 100.5t36.5 99.5q9 52 -28.5 80t-106.5 28l13 84q65 0 114 31t56 73q6 33 -5 88.5t-6 86.5q12 74 76.5 105
t208.5 31l-9 -64q-146 0 -157 -67q-6 -33 6.5 -92t7.5 -87q-8 -47 -49.5 -84t-100.5 -57z" />
    <glyph glyph-name="bar" unicode="|" horiz-adv-x="540" 
d="M223 -230v980h94v-980h-94z" />
    <glyph glyph-name="braceright" unicode="}" horiz-adv-x="435" 
d="M242 229l2 14q-52 17 -81.5 57.5t-20.5 95.5q5 33 37.5 100t38.5 103q6 37 -24.5 59t-114.5 22l10 57q155 0 207.5 -36.5t38.5 -115.5q-5 -35 -36.5 -100.5t-36.5 -99.5q-9 -52 28.5 -80t106.5 -28l-13 -84q-65 0 -114 -31t-56 -73q-6 -33 5 -88.5t6 -86.5
q-12 -74 -76.5 -105t-208.5 -31l9 64q146 0 157 67q6 33 -6.5 92t-7.5 87q8 47 49.5 84t100.5 57z" />
    <glyph glyph-name="asciitilde" unicode="~" horiz-adv-x="540" 
d="M469 383l36 -14q-21 -69 -63.5 -123t-80.5 -54q-23 0 -105 39.5t-105 39.5q-15 0 -30 -13.5t-23.5 -27.5t-22.5 -42l-40 16q17 59 61 119t71 60q30 0 107.5 -40t106.5 -40q24 0 50.5 25t37.5 55z" />
    <glyph glyph-name="uni00A0" unicode="&#xa0;" horiz-adv-x="210" 
 />
    <glyph glyph-name="exclamdown" unicode="&#xa1;" horiz-adv-x="333" 
d="M285 443q0 -31 -23.5 -52t-57.5 -21q-35 0 -59 21t-24 52t24 51.5t59 20.5q34 0 57.5 -20.5t23.5 -51.5zM3 -192l-35 28l167 473l74 -11l-77 -457z" />
    <glyph glyph-name="cent" unicode="&#xa2;" horiz-adv-x="433" 
d="M299 528q67 0 93 -68v-25l-42 -61h-40q-4 59 -31 72l-48 -272q45 9 82 46l33 -41q-63 -62 -128 -79l-17 -100h-48l16 93h-1q-56 0 -90 32.5t-34 91.5q0 162 97 232q56 45 102 66l20 111h48l-17 -98h5zM167 245q0 -49 18 -64l44 255q-28 -23 -45 -76.5t-17 -114.5z" />
    <glyph glyph-name="sterling" unicode="&#xa3;" horiz-adv-x="548" 
d="M85 358h80l11 62q10 56 48.5 96.5t98.5 74.5q87 47 140 47q40 0 89 -19l-29 -161h-57q4 92 -56 92q-31 0 -58.5 -22.5t-36.5 -78.5l-16 -91h120l-11 -63h-121q-7 -35 -24 -66t-33 -50.5t-47 -51.5l3 -7q29 3 82 -4t72 -7q33 0 56 21t36 73h57l-46 -206q-24 -9 -68 -9
q-55 0 -141 24.5t-109 27.5q-33 -52 -82 -52q-19 0 -28.5 12t-5.5 32q4 22 27.5 43t49.5 26q44 58 60 153l7 41h-79z" />
    <glyph glyph-name="currency" unicode="&#xa4;" horiz-adv-x="624" 
d="M91 272q0 69 40 127l-45 44q-11 11 -2 29.5t25 26t28 -0.5l46 -47q58 42 129 42t126 -39l43 45q10 11 29 0t29.5 -30.5t0.5 -29.5l-45 -43q38 -55 38 -124q0 -70 -42 -130l48 -46q11 -11 2 -29.5t-25 -26.5t-28 1l-50 50q-55 -40 -126 -40q-69 0 -124 36l-42 -44
q-11 -12 -31 -2.5t-29 27t1 30.5l44 43q-40 55 -40 131zM179 271q0 -62 37 -102t97 -40q56 0 93 40.5t37 101.5q0 63 -37 103t-94 40q-62 0 -97.5 -40.5t-35.5 -102.5z" />
    <glyph glyph-name="yen" unicode="&#xa5;" horiz-adv-x="554" 
d="M317 381h12q32 69 80.5 135t93.5 105q33 25 72 1q30 -19 26 -42q-2 -12 -16 -19q-108 -60 -232 -271l-5 -27h120l-8 -46h-120l-6 -39h119l-8 -46h-119l-8 -45l79 -14l-12 -73h-320l12 73l82 14l8 45h-114l8 46h114l7 39h-114l8 46h114l6 33q-11 63 -44.5 132.5
t-73.5 104.5l-48 9v68l123 32q40 -7 75.5 -52t56 -98t32.5 -111z" />
    <glyph glyph-name="brokenbar" unicode="&#xa6;" horiz-adv-x="540" 
d="M317 400h-94v350h94v-350zM223 120h94v-350h-94v350z" />
    <glyph glyph-name="section" unicode="&#xa7;" horiz-adv-x="488" 
d="M463 296q-3 -30 -27.5 -64t-61.5 -63q32 -40 28 -94q-6 -79 -94.5 -158t-155.5 -79q-47 0 -97.5 20.5t-76.5 65.5l75 148l43 -12l-8 -58q27 -47 80 -47q42 0 75.5 23.5t37.5 63.5q2 30 -19 54t-53 41.5t-63.5 37t-52 51t-17.5 72.5q6 85 102 148q-19 36 -15 75
q5 70 79 133.5t175 63.5q21 0 52.5 -12.5t54.5 -33.5l-56 -138l-40 5q-7 67 -82 67q-37 0 -58 -17t-23 -40q-2 -24 18.5 -46.5t51.5 -42t61 -41.5t50 -53.5t17 -69.5zM189 322q-1 -14 5 -26t20 -22.5t27 -18t35.5 -19t35.5 -19.5q36 28 38 53q1 19 -14 36t-53 42.5t-53 37.5
q-36 -23 -41 -64z" />
    <glyph glyph-name="dieresis" unicode="&#xa8;" horiz-adv-x="500" 
d="M422 576q0 -27 -21 -47.5t-47 -20.5q-28 0 -49 20.5t-21 47.5q0 28 21 49t49 21q26 0 47 -21.5t21 -48.5zM242 576q0 -27 -20 -47.5t-49 -20.5q-27 0 -48 20.5t-21 47.5q0 28 21 49t48 21q29 0 49 -21t20 -49z" />
    <glyph glyph-name="copyright" unicode="&#xa9;" horiz-adv-x="703" 
d="M369 158q26 0 50 8l34 60h34l-17 -83l-16 -5q-50 -16 -91 -16q-76 0 -125.5 45.5t-49.5 126.5t49.5 127t131.5 46q56 0 102 -24l4 -83h-34l-21 55l2 -1q-19 21 -60 21q-38 0 -70.5 -31t-32.5 -95q0 -82 34 -116.5t76 -34.5zM44 296q0 126 90.5 216.5t217.5 90.5
q131 0 219 -89.5t88 -217.5q0 -127 -90.5 -217.5t-216.5 -90.5q-129 0 -218.5 87t-89.5 221zM103 294q0 -110 70 -183t180 -73t178.5 72.5t68.5 183.5q0 114 -70.5 187.5t-177.5 73.5q-109 0 -179 -74.5t-70 -186.5z" />
    <glyph glyph-name="ordfeminine" unicode="&#xaa;" horiz-adv-x="385" 
d="M268 292l-65 16l-1 52l-2 1q-32 -29 -67.5 -48.5t-56.5 -19.5q-68 0 -68 102q0 60 27.5 124t73.5 101q71 54 111 54q30 0 60 -19l24 22l67 -15l-64 -276l54 19l21 -39zM122 429q0 -40 16 -40q8 0 32 13t40 27q2 10 15.5 72t19.5 92q-16 12 -31 12q-33 0 -62.5 -56.5
t-29.5 -119.5z" />
    <glyph glyph-name="guillemotleft" unicode="&#xab;" horiz-adv-x="652" 
d="M96 245l242 217l54 -49l-179 -188l-2 -12q20 -28 58.5 -84t52.5 -76l-70 -53l-161 219zM303 245l242 217l54 -49l-179 -188l-2 -12q20 -28 58.5 -84t52.5 -76l-70 -53l-161 219z" />
    <glyph glyph-name="logicalnot" unicode="&#xac;" horiz-adv-x="540" 
d="M406 52v177h-368v84h457v-261h-89z" />
    <glyph glyph-name="registered" unicode="&#xae;" horiz-adv-x="508" 
d="M310 488h-16v-76l32 -4v-20h-113v20l28 4v192l-28 5v20h109q29 0 55 -13.5t26 -44.5q0 -46 -41 -71v-3q46 -68 57 -84l12 -7l-5 -18l-54 8zM294 603v-90h22q16 1 24 10.5t8 34.5q0 45 -38 45h-16zM100 503q0 88 63 151t151 63q91 0 152.5 -62.5t61.5 -151.5
q0 -88 -63 -151t-151 -63q-89 0 -151.5 61t-62.5 153zM144 502q0 -76 48 -125.5t123 -49.5q70 0 119.5 50.5t49.5 124.5q0 77 -49 126.5t-121 49.5q-78 0 -124 -49.5t-46 -126.5z" />
    <glyph glyph-name="macron" unicode="&#xaf;" horiz-adv-x="500" 
d="M387 523h-274v70h274v-70z" />
    <glyph glyph-name="degree" unicode="&#xb0;" horiz-adv-x="367" 
d="M60 494q0 59 42 101.5t101 42.5t101.5 -42.5t42.5 -101.5t-42.5 -101t-101.5 -42t-101 42.5t-42 100.5zM132 494q0 -32 19.5 -55t50.5 -23q32 0 52 23t20 55q0 33 -20 56.5t-52 23.5q-31 0 -50.5 -23.5t-19.5 -56.5z" />
    <glyph glyph-name="plusminus" unicode="&#xb1;" horiz-adv-x="620" 
d="M573 307h-219v-201h-87v201h-220v86h220v202h87v-202h219v-86zM573 0h-526v86h526v-86z" />
    <glyph glyph-name="two.sups" unicode="&#xb2;" horiz-adv-x="287" 
d="M252 708q-55 0 -67 -65h-63l29 80q21 18 58.5 31.5t57.5 13.5q52 0 86 -25.5t34 -66.5q0 -26 -30 -61.5t-60.5 -60t-82.5 -62.5q1 1 -2 -1t-8 -6v-2.5t1 -2.5q25 2 76.5 6.5t75.5 5.5l-14 -76h-262v41q113 87 155.5 132t42.5 85q0 16 -8 25t-19 9z" />
    <glyph glyph-name="three.sups" unicode="&#xb3;" horiz-adv-x="287" 
d="M213 454q17 0 32.5 16.5t15.5 47.5q-1 25 -13 38t-24 14l-54 -12l-7 44q116 26 116 83q0 29 -31 29q-11 0 -19 -4t-14 -14.5t-8 -15t-7 -18.5h-62l27 73q23 13 61 23t60 10q46 0 73.5 -20t27.5 -51q0 -26 -20 -45t-61 -42v-2q1 -2 1 -3q24 -12 42 -34.5t18 -46.5
q0 -48 -50 -81.5t-111 -33.5q-67 0 -110 25l-6 91h59q5 -20 10.5 -33t19.5 -25.5t34 -12.5z" />
    <glyph glyph-name="acute" unicode="&#xb4;" horiz-adv-x="500" 
d="M185 498v18l101 154h124v-20l-154 -152h-71z" />
    <glyph glyph-name="mu" unicode="&#xb5;" horiz-adv-x="540" 
d="M366 27l-8 6q-59 -45 -119 -45q-44 0 -76 27q1 -26 4 -64.5t4.5 -64t1.5 -38.5q0 -60 -56 -60q-50 0 -50 52q0 17 6 120.5t8 159.5q-1 7 -1 21v257l-63 11v38l174 18v-304q0 -56 17 -78.5t54 -22.5q54 0 88 32v306l-63 11v38l174 18v-364q0 -43 21 -43q20 0 34 34l28 -11
q-18 -47 -51 -68.5t-63 -21.5q-26 0 -37.5 7t-26.5 29z" />
    <glyph glyph-name="mu" unicode="&#x3bc;" horiz-adv-x="540" 
d="M366 27l-8 6q-59 -45 -119 -45q-44 0 -76 27q1 -26 4 -64.5t4.5 -64t1.5 -38.5q0 -60 -56 -60q-50 0 -50 52q0 17 6 120.5t8 159.5q-1 7 -1 21v257l-63 11v38l174 18v-304q0 -56 17 -78.5t54 -22.5q54 0 88 32v306l-63 11v38l174 18v-364q0 -43 21 -43q20 0 34 34l28 -11
q-18 -47 -51 -68.5t-63 -21.5q-26 0 -37.5 7t-26.5 29z" />
    <glyph glyph-name="paragraph" unicode="&#xb6;" horiz-adv-x="555" 
d="M629 704l-17 -80h-51l-166 -779h-83l166 779h-44l-166 -779h-82l83 389q-121 4 -174 67t-30 169q22 106 105.5 170t193.5 64h265zM285 309l67 315q-56 -4 -98.5 -47t-56.5 -110t9 -110t79 -48z" />
    <glyph glyph-name="periodcentered" unicode="&#xb7;" horiz-adv-x="253" 
d="M91 282q0 35 23.5 59t57.5 24q35 0 58.5 -24t23.5 -59t-23.5 -58.5t-58.5 -23.5q-34 0 -57.5 23.5t-23.5 58.5z" />
    <glyph glyph-name="cedilla" unicode="&#xb8;" horiz-adv-x="500" 
d="M177 -244l-8 40q87 16 87 52q0 18 -17 27.5t-44 9.5q-16 0 -30 -2l-5 7l82 130h55l-45 -75q78 0 78 -72q0 -43 -45 -75.5t-108 -41.5z" />
    <glyph glyph-name="one.sups" unicode="&#xb9;" horiz-adv-x="261" 
d="M138 669l-3 46q89 27 124 53l61 -6l-53 -295q9 -1 30.5 -4.5t30.5 -4.5l-7 -42h-225l6 42l64 9l39 214q-9 -2 -27.5 -6t-23.5 -5q-1 0 -8 -0.5t-8 -0.5z" />
    <glyph glyph-name="ordmasculine" unicode="&#xba;" horiz-adv-x="356" 
d="M240 681q46 0 77 -27t31 -83q0 -137 -76 -209q-85 -69 -154 -69q-53 0 -81.5 31.5t-28.5 79.5q0 149 80 211q91 66 152 66zM122 443q0 -71 30 -71q27 0 46.5 30.5t27.5 66t8 66.5q0 67 -27 67q-37 0 -61 -46.5t-24 -112.5z" />
    <glyph glyph-name="guillemotright" unicode="&#xbb;" horiz-adv-x="652" 
d="M576 217l-242 -217l-54 49l179 188l2 12q-20 28 -58.5 84t-52.5 76l70 53l161 -219zM369 217l-242 -217l-54 49l179 188l2 12q-20 28 -58.5 84t-52.5 76l70 53l161 -219z" />
    <glyph glyph-name="onequarter" unicode="&#xbc;" 
d="M41 -16l320 370l298 353l49 -44l-308 -349l-310 -375zM104 596l-3 46q89 27 124 53l61 -6l-53 -295q9 -1 30.5 -4.5t30.5 -4.5l-7 -42h-225l6 42l64 9l39 214q-9 -2 -27.5 -6t-23.5 -5q-1 0 -8 -0.5t-8 -0.5zM508 32l10 54h-129l-12 30q38 54 100.5 115.5t118.5 103.5
l62 -11l-17 -83q-3 -16 -10 -52t-10 -55h58l-9 -47h-57l-10 -55q9 -1 27 -4t23 -4l-6 -42h-195l6 42zM460 134h66l17 90q-62 -53 -86 -87l2 1q0 -3 1 -4z" />
    <glyph glyph-name="onehalf" unicode="&#xbd;" 
d="M41 -16l320 370l298 353l49 -44l-308 -349l-310 -375zM104 596l-3 46q89 27 124 53l61 -6l-53 -295q9 -1 30.5 -4.5t30.5 -4.5l-7 -42h-225l6 42l64 9l39 214q-9 -2 -27.5 -6t-23.5 -5q-1 0 -8 -0.5t-8 -0.5zM565 274q-55 0 -67 -65h-63l29 80q21 18 58.5 31.5t57.5 13.5
q52 0 86 -25.5t34 -66.5q0 -26 -30 -61.5t-60.5 -60t-82.5 -62.5q1 1 -2 -1t-8 -6q1 -1 1 -2.5v-2.5q25 2 76.5 6.5t75.5 5.5l-14 -76h-262v41q113 87 155.5 132t42.5 85q0 16 -8 25t-19 9z" />
    <glyph glyph-name="threequarters" unicode="&#xbe;" 
d="M41 -16l320 370l298 353l49 -44l-308 -349l-310 -375zM173 381q17 0 32.5 16.5t15.5 47.5q-1 25 -13 38t-24 14l-54 -12l-7 44q116 26 116 83q0 29 -31 29q-11 0 -19 -4t-14 -14.5t-8 -15t-7 -18.5h-62l27 73q23 13 61 23t60 10q46 0 73.5 -20t27.5 -51q0 -26 -20 -45
t-61 -42q0 -1 0.5 -3l0.5 -2q24 -12 42 -34.5t18 -46.5q0 -48 -50 -81.5t-111 -33.5q-67 0 -110 25l-6 91h59q5 -20 10.5 -33t19.5 -25.5t34 -12.5zM508 32l10 54h-129l-12 30q38 54 100.5 115.5t118.5 103.5l62 -11l-17 -83q-3 -16 -10 -52t-10 -55h58l-9 -47h-57l-10 -55
q9 -1 27 -4t23 -4l-6 -42h-195l6 42zM460 134h66l17 90q-62 -53 -86 -87l2 1q0 -3 1 -4z" />
    <glyph glyph-name="questiondown" unicode="&#xbf;" horiz-adv-x="443" 
d="M413 443q0 -31 -23.5 -52t-58.5 -21q-34 0 -58 21t-24 52q0 30 24 51t58 21q35 0 58.5 -20.5t23.5 -51.5zM209 247l10 29l61 22q86 -42 86 -93q0 -34 -38.5 -61.5t-84.5 -43.5t-84.5 -40t-38.5 -53q0 -30 31.5 -55t55.5 -25l50 57l64 -57q-68 -119 -131 -119
q-72 0 -142 63t-70 123q0 37 27 67.5t65.5 49t77 34t65.5 31.5t27 34q0 17 -31 37z" />
    <glyph glyph-name="Agrave" unicode="&#xc0;" horiz-adv-x="718" 
d="M447 82l-19 111h-216l-64 -106l85 -14l-12 -73h-245l12 73l56 14l362 576h94l108 -581l64 -14l-11 -68h-297l11 68zM370 452l-108 -178h152l-31 178h-13zM519 739v-18h-71l-109 117v20h124z" />
    <glyph glyph-name="Aacute" unicode="&#xc1;" horiz-adv-x="718" 
d="M447 82l-19 111h-216l-64 -106l85 -14l-12 -73h-245l12 73l56 14l362 576h94l108 -581l64 -14l-11 -68h-297l11 68zM370 452l-108 -178h152l-31 178h-13zM399 721v18l86 119h124v-20l-139 -117h-71z" />
    <glyph glyph-name="Acircumflex" unicode="&#xc2;" horiz-adv-x="718" 
d="M447 82l-19 111h-216l-64 -106l85 -14l-12 -73h-245l12 73l56 14l362 576h94l108 -581l64 -14l-11 -68h-297l11 68zM370 452l-108 -178h152l-31 178h-13zM608 739v-18h-37l-81 58l-127 -58h-45v18l163 119h58z" />
    <glyph glyph-name="Atilde" unicode="&#xc3;" horiz-adv-x="718" 
d="M447 82l-19 111h-216l-64 -106l85 -14l-12 -73h-245l12 73l56 14l362 576h94l108 -581l64 -14l-11 -68h-297l11 68zM370 452l-108 -178h152l-31 178h-13zM591 873l36 -10q-14 -54 -42.5 -95.5t-54.5 -41.5q-16 0 -71 30t-71 30q-14 0 -24.5 -15.5t-23.5 -47.5l-39 12
q11 45 41 91.5t48 46.5q21 0 72.5 -30.5t71.5 -30.5q16 0 33.5 20t23.5 41z" />
    <glyph glyph-name="Adieresis" unicode="&#xc4;" horiz-adv-x="718" 
d="M447 82l-19 111h-216l-64 -106l85 -14l-12 -73h-245l12 73l56 14l362 576h94l108 -581l64 -14l-11 -68h-297l11 68zM370 452l-108 -178h152l-31 178h-13zM636 799q0 -27 -21 -47.5t-47 -20.5q-28 0 -49 20.5t-21 47.5q0 28 21 49t49 21q26 0 47 -21.5t21 -48.5zM456 799
q0 -27 -20 -47.5t-49 -20.5q-27 0 -48 20.5t-21 47.5q0 28 21 49t48 21q29 0 49 -21t20 -49z" />
    <glyph glyph-name="Aring" unicode="&#xc5;" horiz-adv-x="718" 
d="M447 82l-19 111h-216l-64 -106l85 -14l-12 -73h-245l12 73l56 14l362 576h94l108 -581l64 -14l-11 -68h-297l11 68zM370 452l-108 -178h152l-31 178h-13zM370 819q0 43 30 73.5t73 30.5t73.5 -30.5t30.5 -73.5t-30.5 -73t-73.5 -30t-73 30t-30 73zM426 819
q0 -21 12.5 -35.5t33.5 -14.5q22 0 35.5 14.5t13.5 35.5q0 22 -13.5 37t-35.5 15q-21 0 -33.5 -15t-12.5 -37z" />
    <glyph glyph-name="AE" unicode="&#xc6;" horiz-adv-x="947" 
d="M584 80h202l80 121h56l-51 -206l-156 5h-380l12 73l77 14l18 106h-202l-92 -106l85 -14l-12 -73h-245l12 73l56 14l443 493l-48 10l12 73h373l132 4l-26 -182h-56l-32 97h-170l-38 -215l110 6l54 84h53l-44 -252h-53l-24 86l-109 3zM479 467l-168 -193h146l34 193h-12z
" />
    <glyph glyph-name="Ccedilla" unicode="&#xc7;" horiz-adv-x="654" 
d="M271 -244l-8 40q87 16 87 52q0 18 -17 27.5t-44 9.5q-16 0 -30 -2l-5 7l63 100q-126 8 -201.5 75.5t-75.5 184.5q0 187 129.5 305.5t311.5 118.5q47 0 102.5 -15.5t89.5 -37.5l-24 -191h-66l-19 117q-47 45 -121 45q-88 0 -160 -86t-72 -225q0 -105 49 -157.5t109 -52.5
q59 0 111 21l86 110h60l-64 -179q-98 -31 -190 -33l-26 -45q78 0 78 -72q0 -43 -45 -75.5t-108 -41.5z" />
    <glyph glyph-name="Egrave" unicode="&#xc8;" horiz-adv-x="593" 
d="M230 80h202l80 121h56l-51 -206l-156 5h-380l12 73l77 14l86 489l-71 14l12 73h373l132 4l-26 -182h-56l-32 97h-170l-38 -215l110 6l54 84h53l-44 -252h-53l-24 86l-109 3zM429 739v-18h-71l-109 117v20h124z" />
    <glyph glyph-name="Eacute" unicode="&#xc9;" horiz-adv-x="593" 
d="M230 80h202l80 121h56l-51 -206l-156 5h-380l12 73l77 14l86 489l-71 14l12 73h373l132 4l-26 -182h-56l-32 97h-170l-38 -215l110 6l54 84h53l-44 -252h-53l-24 86l-109 3zM309 721v18l86 119h124v-20l-139 -117h-71z" />
    <glyph glyph-name="Ecircumflex" unicode="&#xca;" horiz-adv-x="593" 
d="M230 80h202l80 121h56l-51 -206l-156 5h-380l12 73l77 14l86 489l-71 14l12 73h373l132 4l-26 -182h-56l-32 97h-170l-38 -215l110 6l54 84h53l-44 -252h-53l-24 86l-109 3zM518 739v-18h-37l-81 58l-127 -58h-45v18l163 119h58z" />
    <glyph glyph-name="Edieresis" unicode="&#xcb;" horiz-adv-x="593" 
d="M230 80h202l80 121h56l-51 -206l-156 5h-380l12 73l77 14l86 489l-71 14l12 73h373l132 4l-26 -182h-56l-32 97h-170l-38 -215l110 6l54 84h53l-44 -252h-53l-24 86l-109 3zM546 799q0 -27 -21 -47.5t-47 -20.5q-28 0 -49 20.5t-21 47.5q0 28 21 49t49 21q26 0 47 -21.5
t21 -48.5zM366 799q0 -27 -20 -47.5t-49 -20.5q-27 0 -48 20.5t-21 47.5q0 28 21 49t48 21q29 0 49 -21t20 -49z" />
    <glyph glyph-name="Igrave" unicode="&#xcc;" horiz-adv-x="369" 
d="M103 663h315l-12 -73l-80 -14l-86 -489l74 -14l-12 -73h-315l12 73l80 14l86 489l-74 14zM324 739v-18h-71l-109 117v20h124z" />
    <glyph glyph-name="Iacute" unicode="&#xcd;" horiz-adv-x="369" 
d="M103 663h315l-12 -73l-80 -14l-86 -489l74 -14l-12 -73h-315l12 73l80 14l86 489l-74 14zM204 721v18l86 119h124v-20l-139 -117h-71z" />
    <glyph glyph-name="Icircumflex" unicode="&#xce;" horiz-adv-x="369" 
d="M103 663h315l-12 -73l-80 -14l-86 -489l74 -14l-12 -73h-315l12 73l80 14l86 489l-74 14zM413 739v-18h-37l-81 58l-127 -58h-45v18l163 119h58z" />
    <glyph glyph-name="Idieresis" unicode="&#xcf;" horiz-adv-x="369" 
d="M103 663h315l-12 -73l-80 -14l-86 -489l74 -14l-12 -73h-315l12 73l80 14l86 489l-74 14zM441 799q0 -27 -21 -47.5t-47 -20.5q-28 0 -49 20.5t-21 47.5q0 28 21 49t49 21q26 0 47 -21.5t21 -48.5zM261 799q0 -27 -20 -47.5t-49 -20.5q-27 0 -48 20.5t-21 47.5
q0 28 21 49t48 21q29 0 49 -21t20 -49z" />
    <glyph glyph-name="Eth" unicode="&#xd0;" horiz-adv-x="747" 
d="M304 0h-323l12 73l78 14l37 211h-80l10 65h81l38 213l-72 14l12 73h388q125 0 193 -64t68 -179q0 -126 -61.5 -223t-161.5 -147t-219 -50zM231 82h77q107 0 189 95t82 238q0 86 -35.5 126t-110.5 40h-114l-39 -218h117l-10 -65h-118z" />
    <glyph glyph-name="Ntilde" unicode="&#xd1;" horiz-adv-x="755" 
d="M557 232h14l33 197l22 147l-82 14l12 73h254l-12 -73l-76 -14l-32 -152l-74 -424h-98l-285 448h-13l-33 -195l-24 -166l81 -14l-12 -73h-251l12 73l74 14l33 163l57 324l-78 14l13 75h201zM582 873l36 -10q-14 -54 -42.5 -95.5t-54.5 -41.5q-17 0 -71 30t-71 30
q-14 0 -24.5 -15.5t-23.5 -47.5l-39 12q11 45 41 91.5t48 46.5q21 0 72.5 -30.5t71.5 -30.5q16 0 33.5 20t23.5 41z" />
    <glyph glyph-name="Ograve" unicode="&#xd2;" horiz-adv-x="785" 
d="M40 258q0 91 39 171t100.5 132.5t137 82.5t150.5 30q144 0 229 -72t85 -198q0 -119 -63 -215.5t-163 -148t-213 -51.5q-134 0 -218 72.5t-84 196.5zM446 592q-74 0 -129 -47.5t-81 -119t-26 -153.5q0 -97 46.5 -148t118.5 -51q40 0 79 17.5t75 53t58.5 99t22.5 146.5
q0 101 -47.5 152t-116.5 51zM536 739v-18h-71l-109 117v20h124z" />
    <glyph glyph-name="Oacute" unicode="&#xd3;" horiz-adv-x="785" 
d="M40 258q0 91 39 171t100.5 132.5t137 82.5t150.5 30q144 0 229 -72t85 -198q0 -119 -63 -215.5t-163 -148t-213 -51.5q-134 0 -218 72.5t-84 196.5zM446 592q-74 0 -129 -47.5t-81 -119t-26 -153.5q0 -97 46.5 -148t118.5 -51q40 0 79 17.5t75 53t58.5 99t22.5 146.5
q0 101 -47.5 152t-116.5 51zM416 721v18l86 119h124v-20l-139 -117h-71z" />
    <glyph glyph-name="Ocircumflex" unicode="&#xd4;" horiz-adv-x="785" 
d="M40 258q0 91 39 171t100.5 132.5t137 82.5t150.5 30q144 0 229 -72t85 -198q0 -119 -63 -215.5t-163 -148t-213 -51.5q-134 0 -218 72.5t-84 196.5zM446 592q-74 0 -129 -47.5t-81 -119t-26 -153.5q0 -97 46.5 -148t118.5 -51q40 0 79 17.5t75 53t58.5 99t22.5 146.5
q0 101 -47.5 152t-116.5 51zM625 739v-18h-37l-81 58l-127 -58h-45v18l163 119h58z" />
    <glyph glyph-name="Otilde" unicode="&#xd5;" horiz-adv-x="785" 
d="M40 258q0 91 39 171t100.5 132.5t137 82.5t150.5 30q144 0 229 -72t85 -198q0 -119 -63 -215.5t-163 -148t-213 -51.5q-134 0 -218 72.5t-84 196.5zM446 592q-74 0 -129 -47.5t-81 -119t-26 -153.5q0 -97 46.5 -148t118.5 -51q40 0 79 17.5t75 53t58.5 99t22.5 146.5
q0 101 -47.5 152t-116.5 51zM608 873l36 -10q-14 -54 -42.5 -95.5t-54.5 -41.5q-17 0 -71 30t-71 30q-14 0 -24.5 -15.5t-23.5 -47.5l-39 12q11 45 41 91.5t48 46.5q21 0 72.5 -30.5t71.5 -30.5q16 0 33.5 20t23.5 41z" />
    <glyph glyph-name="Odieresis" unicode="&#xd6;" horiz-adv-x="785" 
d="M40 258q0 91 39 171t100.5 132.5t137 82.5t150.5 30q144 0 229 -72t85 -198q0 -119 -63 -215.5t-163 -148t-213 -51.5q-134 0 -218 72.5t-84 196.5zM446 592q-74 0 -129 -47.5t-81 -119t-26 -153.5q0 -97 46.5 -148t118.5 -51q40 0 79 17.5t75 53t58.5 99t22.5 146.5
q0 101 -47.5 152t-116.5 51zM653 799q0 -27 -21 -47.5t-47 -20.5q-28 0 -49 20.5t-21 47.5q0 28 21 49t49 21q26 0 47 -21.5t21 -48.5zM473 799q0 -27 -20 -47.5t-49 -20.5q-27 0 -48 20.5t-21 47.5q0 28 21 49t48 21q29 0 49 -21t20 -49z" />
    <glyph glyph-name="multiply" unicode="&#xd7;" horiz-adv-x="620" 
d="M486 27l-176 175l-175 -175l-62 61l176 176l-176 175l62 62l175 -176l176 176l61 -62l-175 -175l175 -176z" />
    <glyph glyph-name="Oslash" unicode="&#xd8;" horiz-adv-x="785" 
d="M40 258q0 91 39 171t100.5 132.5t137 82.5t150.5 30q113 0 191 -46l61 61l45 -44l-55 -55q72 -72 72 -186q0 -119 -63 -215.5t-163 -148t-213 -51.5q-108 0 -183 46l-79 -79l-45 44l74 75q-69 71 -69 183zM610 389q0 47 -13 88l-345 -348q44 -56 123 -56q40 0 79 17.5
t75 53t58.5 99t22.5 146.5zM446 592q-74 0 -129 -47.5t-81 -119t-26 -153.5q0 -46 11 -84l345 347q-45 57 -120 57z" />
    <glyph glyph-name="Ugrave" unicode="&#xd9;" horiz-adv-x="735" 
d="M557 663h234l-12 -73l-67 -14l-38 -157l-36 -208q-7 -37 -29 -74.5t-58 -71t-93.5 -55t-125.5 -21.5q-137 0 -202 57.5t-47 156.5l66 373l-74 14l12 73h315l-12 -73l-81 -14l-63 -355q-10 -63 19.5 -104.5t100.5 -41.5t126.5 46t70.5 130l30 173l18 152l-66 14zM536 739
v-18h-71l-109 117v20h124z" />
    <glyph glyph-name="Uacute" unicode="&#xda;" horiz-adv-x="735" 
d="M557 663h234l-12 -73l-67 -14l-38 -157l-36 -208q-7 -37 -29 -74.5t-58 -71t-93.5 -55t-125.5 -21.5q-137 0 -202 57.5t-47 156.5l66 373l-74 14l12 73h315l-12 -73l-81 -14l-63 -355q-10 -63 19.5 -104.5t100.5 -41.5t126.5 46t70.5 130l30 173l18 152l-66 14zM416 721
v18l86 119h124v-20l-139 -117h-71z" />
    <glyph glyph-name="Ucircumflex" unicode="&#xdb;" horiz-adv-x="735" 
d="M557 663h234l-12 -73l-67 -14l-38 -157l-36 -208q-7 -37 -29 -74.5t-58 -71t-93.5 -55t-125.5 -21.5q-137 0 -202 57.5t-47 156.5l66 373l-74 14l12 73h315l-12 -73l-81 -14l-63 -355q-10 -63 19.5 -104.5t100.5 -41.5t126.5 46t70.5 130l30 173l18 152l-66 14zM625 739
v-18h-37l-81 58l-127 -58h-45v18l163 119h58z" />
    <glyph glyph-name="Udieresis" unicode="&#xdc;" horiz-adv-x="735" 
d="M557 663h234l-12 -73l-67 -14l-38 -157l-36 -208q-7 -37 -29 -74.5t-58 -71t-93.5 -55t-125.5 -21.5q-137 0 -202 57.5t-47 156.5l66 373l-74 14l12 73h315l-12 -73l-81 -14l-63 -355q-10 -63 19.5 -104.5t100.5 -41.5t126.5 46t70.5 130l30 173l18 152l-66 14zM653 799
q0 -27 -21 -47.5t-47 -20.5q-28 0 -49 20.5t-21 47.5q0 28 21 49t49 21q26 0 47 -21.5t21 -48.5zM473 799q0 -27 -20 -47.5t-49 -20.5q-27 0 -48 20.5t-21 47.5q0 28 21 49t48 21q29 0 49 -21t20 -49z" />
    <glyph glyph-name="Yacute" unicode="&#xdd;" horiz-adv-x="647" 
d="M401 381h12q37 79 95 155t114 120q33 25 72 1q30 -19 26 -42q-2 -12 -16 -19q-132 -72 -267 -306l-35 -203l79 -14l-12 -73h-320l12 73l82 14l37 209q-16 75 -59.5 155.5t-93.5 121.5l-58 4v53l128 42q39 -6 73.5 -35t59 -73.5t41.5 -89t30 -93.5zM368 717v18l86 119h124
v-20l-139 -117h-71z" />
    <glyph glyph-name="Thorn" unicode="&#xde;" horiz-adv-x="559" 
d="M285 125l8 64q47 8 81 51.5t34 118.5q0 92 -72 92h-42l-64 -364l85 -14l-12 -73h-322l12 73l77 14l86 489l-71 14l12 73h309l-12 -73l-78 -14l-7 -41h80q97 0 139.5 -39.5t42.5 -115.5q0 -109 -82 -174.5t-204 -80.5z" />
    <glyph glyph-name="germandbls" unicode="&#xdf;" horiz-adv-x="573" 
d="M438 383q0 -19 17.5 -45.5t38.5 -50.5t38.5 -58.5t17.5 -66.5q0 -55 -68.5 -114.5t-140.5 -59.5q-70 0 -108 41v30l45 81h35q8 -22 14.5 -34.5t17 -22t23.5 -9.5q19 0 32.5 12.5t13.5 37.5q0 31 -17.5 64t-38 57.5t-38 54.5t-17.5 54q0 23 22.5 50.5t49.5 50.5t49.5 57.5
t22.5 69.5q0 29 -15.5 50.5t-44.5 21.5q-48 0 -75 -52.5t-46 -197.5q-44 -337 -99 -479.5t-130 -151.5h-54v116l87 27q48 270 58 466h-89l5 57l88 20l1 61q-3 45 56 101.5t130 93.5t108 37q68 0 103 -46t35 -104q0 -34 -20 -67t-43.5 -55t-43.5 -48.5t-20 -48.5z" />
    <glyph glyph-name="agrave" unicode="&#xe0;" horiz-adv-x="507" 
d="M352 -7l-80 19l-1 69l-9 5q-41 -39 -88 -66t-75 -27q-84 0 -84 135q0 81 36 167t96 138q48 36 80.5 54t62.5 18q40 0 80 -28l34 32l80 -19l-85 -381l74 29l24 -49zM155 175q0 -58 26 -58q13 0 46 18.5t55 39.5l45 223q-21 19 -46 19q-45 0 -85.5 -78t-40.5 -164zM397 575
v-18h-71l-139 152v20h124z" />
    <glyph glyph-name="aacute" unicode="&#xe1;" horiz-adv-x="507" 
d="M352 -7l-80 19l-1 69l-9 5q-41 -39 -88 -66t-75 -27q-84 0 -84 135q0 81 36 167t96 138q48 36 80.5 54t62.5 18q40 0 80 -28l34 32l80 -19l-85 -381l74 29l24 -49zM155 175q0 -58 26 -58q13 0 46 18.5t55 39.5l45 223q-21 19 -46 19q-45 0 -85.5 -78t-40.5 -164zM287 557
v18l101 154h124v-20l-154 -152h-71z" />
    <glyph glyph-name="acircumflex" unicode="&#xe2;" horiz-adv-x="507" 
d="M352 -7l-80 19l-1 69l-9 5q-41 -39 -88 -66t-75 -27q-84 0 -84 135q0 81 36 167t96 138q48 36 80.5 54t62.5 18q40 0 80 -28l34 32l80 -19l-85 -381l74 29l24 -49zM155 175q0 -58 26 -58q13 0 46 18.5t55 39.5l45 223q-21 19 -46 19q-45 0 -85.5 -78t-40.5 -164zM476 575
v-18h-37l-66 78l-102 -78h-45v18l143 154h58z" />
    <glyph glyph-name="atilde" unicode="&#xe3;" horiz-adv-x="507" 
d="M352 -7l-80 19l-1 69l-9 5q-41 -39 -88 -66t-75 -27q-84 0 -84 135q0 81 36 167t96 138q48 36 80.5 54t62.5 18q40 0 80 -28l34 32l80 -19l-85 -381l74 29l24 -49zM155 175q0 -58 26 -58q13 0 46 18.5t55 39.5l45 223q-21 19 -46 19q-45 0 -85.5 -78t-40.5 -164zM479 709
l36 -10q-14 -54 -42.5 -95.5t-54.5 -41.5q-16 0 -71 30t-71 30q-14 0 -24.5 -15.5t-23.5 -47.5l-39 12q11 45 41 91.5t48 46.5q21 0 72.5 -30.5t71.5 -30.5q16 0 33.5 20t23.5 41z" />
    <glyph glyph-name="adieresis" unicode="&#xe4;" horiz-adv-x="507" 
d="M352 -7l-80 19l-1 69l-9 5q-41 -39 -88 -66t-75 -27q-84 0 -84 135q0 81 36 167t96 138q48 36 80.5 54t62.5 18q40 0 80 -28l34 32l80 -19l-85 -381l74 29l24 -49zM155 175q0 -58 26 -58q13 0 46 18.5t55 39.5l45 223q-21 19 -46 19q-45 0 -85.5 -78t-40.5 -164zM524 635
q0 -27 -21 -47.5t-47 -20.5q-28 0 -49 20.5t-21 47.5q0 28 21 49t49 21q26 0 47 -21.5t21 -48.5zM344 635q0 -27 -20 -47.5t-49 -20.5q-27 0 -48 20.5t-21 47.5q0 28 21 49t48 21q29 0 49 -21t20 -49z" />
    <glyph glyph-name="aring" unicode="&#xe5;" horiz-adv-x="507" 
d="M352 -7l-80 19l-1 69l-9 5q-41 -39 -88 -66t-75 -27q-84 0 -84 135q0 81 36 167t96 138q48 36 80.5 54t62.5 18q40 0 80 -28l34 32l80 -19l-85 -381l74 29l24 -49zM155 175q0 -58 26 -58q13 0 46 18.5t55 39.5l45 223q-21 19 -46 19q-45 0 -85.5 -78t-40.5 -164zM258 655
q0 43 30 73.5t73 30.5t73.5 -30.5t30.5 -73.5t-30.5 -73t-73.5 -30t-73 30t-30 73zM314 655q0 -21 12.5 -35.5t33.5 -14.5q22 0 35.5 14.5t13.5 35.5q0 22 -13.5 37t-35.5 15q-21 0 -33.5 -15t-12.5 -37z" />
    <glyph glyph-name="ae" unicode="&#xe6;" horiz-adv-x="712" 
d="M469 495l-6 -28q80 48 126 48q106 0 106 -102q0 -90 -67.5 -144t-190.5 -92v-15q0 -41 12.5 -57t39.5 -16q71 0 156 77l42 -43q-48 -55 -114.5 -92.5t-132.5 -37.5q-57 0 -94.5 28t-45.5 80h-13q-48 -46 -102 -77t-86 -31q-84 0 -84 135q0 81 36 167t96 138
q48 36 80.5 54t62.5 18q40 0 80 -28l34 32zM155 175q0 -58 26 -58q14 0 48.5 18.5t57.5 39.5l45 223q-23 19 -51 19q-45 0 -85.5 -78t-40.5 -164zM533 412q-32 -1 -56.5 -45.5t-34.5 -117.5q126 43 126 129q0 34 -35 34z" />
    <glyph glyph-name="ccedilla" unicode="&#xe7;" horiz-adv-x="399" 
d="M93 -229l-8 40q87 16 87 52q0 18 -17 27.5t-44 9.5q-16 0 -30 -2l-5 7l56 90q-53 6 -85 44.5t-32 102.5q0 93 29 166t81 113q112 94 179 94q39 0 66 -23t39 -59v-30l-47 -73h-46q-7 90 -52 90q-47 0 -78.5 -75t-31.5 -170q0 -49 13.5 -68.5t40.5 -19.5q24 0 55 16t57 42
l37 -48q-84 -87 -168 -101l-21 -36q78 0 78 -72q0 -43 -45 -75.5t-108 -41.5z" />
    <glyph glyph-name="egrave" unicode="&#xe8;" horiz-adv-x="429" 
d="M412 413q0 -90 -67.5 -144t-190.5 -92v-15q0 -41 12.5 -57t39.5 -16q71 0 156 77l42 -43q-48 -55 -114.5 -92.5t-132.5 -37.5q-65 0 -103.5 36t-38.5 102q0 102 38.5 191t100.5 128q95 65 152 65q106 0 106 -102zM250 412q-32 -1 -56.5 -45.5t-34.5 -117.5
q126 43 126 129q0 34 -35 34zM352 575v-18h-71l-139 152v20h124z" />
    <glyph glyph-name="eacute" unicode="&#xe9;" horiz-adv-x="429" 
d="M412 413q0 -90 -67.5 -144t-190.5 -92v-15q0 -41 12.5 -57t39.5 -16q71 0 156 77l42 -43q-48 -55 -114.5 -92.5t-132.5 -37.5q-65 0 -103.5 36t-38.5 102q0 102 38.5 191t100.5 128q95 65 152 65q106 0 106 -102zM250 412q-32 -1 -56.5 -45.5t-34.5 -117.5
q126 43 126 129q0 34 -35 34zM242 557v18l101 154h124v-20l-154 -152h-71z" />
    <glyph glyph-name="ecircumflex" unicode="&#xea;" horiz-adv-x="429" 
d="M412 413q0 -90 -67.5 -144t-190.5 -92v-15q0 -41 12.5 -57t39.5 -16q71 0 156 77l42 -43q-48 -55 -114.5 -92.5t-132.5 -37.5q-65 0 -103.5 36t-38.5 102q0 102 38.5 191t100.5 128q95 65 152 65q106 0 106 -102zM250 412q-32 -1 -56.5 -45.5t-34.5 -117.5
q126 43 126 129q0 34 -35 34zM431 575v-18h-37l-66 78l-102 -78h-45v18l143 154h58z" />
    <glyph glyph-name="edieresis" unicode="&#xeb;" horiz-adv-x="429" 
d="M412 413q0 -90 -67.5 -144t-190.5 -92v-15q0 -41 12.5 -57t39.5 -16q71 0 156 77l42 -43q-48 -55 -114.5 -92.5t-132.5 -37.5q-65 0 -103.5 36t-38.5 102q0 102 38.5 191t100.5 128q95 65 152 65q106 0 106 -102zM250 412q-32 -1 -56.5 -45.5t-34.5 -117.5
q126 43 126 129q0 34 -35 34zM479 635q0 -27 -21 -47.5t-47 -20.5q-28 0 -49 20.5t-21 47.5q0 28 21 49t49 21q26 0 47 -21.5t21 -48.5zM299 635q0 -27 -20 -47.5t-49 -20.5q-27 0 -48 20.5t-21 47.5q0 28 21 49t48 21q29 0 49 -21t20 -49z" />
    <glyph glyph-name="igrave" unicode="&#xec;" horiz-adv-x="310" 
d="M296 96l-158 -103l-83 31l-8 52l82 316l-88 -28l-22 55l134 91l99 -12l22 -49l-82 -332l82 31zM255 588v-18h-71l-139 152v20h124z" />
    <glyph glyph-name="iacute" unicode="&#xed;" horiz-adv-x="310" 
d="M296 96l-158 -103l-83 31l-8 52l82 316l-88 -28l-22 55l134 91l99 -12l22 -49l-82 -332l82 31zM145 570v18l101 154h124v-20l-154 -152h-71z" />
    <glyph glyph-name="icircumflex" unicode="&#xee;" horiz-adv-x="310" 
d="M296 96l-158 -103l-83 31l-8 52l82 316l-88 -28l-22 55l134 91l99 -12l22 -49l-82 -332l82 31zM334 588v-18h-37l-66 78l-102 -78h-45v18l143 154h58z" />
    <glyph glyph-name="idieresis" unicode="&#xef;" horiz-adv-x="310" 
d="M296 96l-158 -103l-83 31l-8 52l82 316l-88 -28l-22 55l134 91l99 -12l22 -49l-82 -332l82 31zM382 648q0 -27 -21 -47.5t-47 -20.5q-28 0 -49 20.5t-21 47.5q0 28 21 49t49 21q26 0 47 -21.5t21 -48.5zM202 648q0 -27 -20 -47.5t-49 -20.5q-27 0 -48 20.5t-21 47.5
q0 28 21 49t48 21q29 0 49 -21t20 -49z" />
    <glyph glyph-name="eth" unicode="&#xf0;" horiz-adv-x="469" 
d="M145 581l79 52q-29 29 -70 57l42 60q58 -36 97 -71l94 63l32 -48l-84 -56q119 -127 119 -271q0 -84 -25 -159t-72 -121q-113 -94 -202 -94q-67 0 -103.5 42t-36.5 106q0 201 103 285q44 39 92 64t81 25q11 0 17 -1q-14 35 -45 76l-86 -57zM155 194q0 -99 45 -99
q28 0 51 24t36 60.5t19.5 73t6.5 66.5q0 48 -9 71.5t-32 23.5q-51 0 -84 -65t-33 -155z" />
    <glyph glyph-name="ntilde" unicode="&#xf1;" horiz-adv-x="545" 
d="M385 -7l-93 30l1 57l64 266q4 22 -1 35t-17 13q-37 0 -96 -38l-68 -327l-56 -26h-85l78 391l-80 -31l-19 58l144 89l93 -17l-3 -59h14q36 26 58 40t54 27.5t58 13.5q34 0 51 -11.5t24 -47.5t-11 -102l-59 -239l72 25l24 -51zM467 709l36 -10q-14 -54 -42.5 -95.5
t-54.5 -41.5q-16 0 -71 30t-71 30q-14 0 -24.5 -15.5t-23.5 -47.5l-39 12q11 45 41 91.5t48 46.5q21 0 72.5 -30.5t71.5 -30.5q16 0 33.5 20t23.5 41z" />
    <glyph glyph-name="ograve" unicode="&#xf2;" horiz-adv-x="469" 
d="M316 515q59 0 98.5 -36t39.5 -112q0 -84 -25 -159t-72 -121q-113 -94 -202 -94q-67 0 -103.5 42t-36.5 106q0 201 103 285q52 39 106.5 64t91.5 25zM155 194q0 -99 45 -99q28 0 51 24t36 60.5t19.5 73t6.5 66.5q0 48 -9 71.5t-32 23.5q-51 0 -84 -65t-33 -155zM355 575
v-18h-71l-139 152v20h124z" />
    <glyph glyph-name="oacute" unicode="&#xf3;" horiz-adv-x="469" 
d="M316 515q59 0 98.5 -36t39.5 -112q0 -84 -25 -159t-72 -121q-113 -94 -202 -94q-67 0 -103.5 42t-36.5 106q0 201 103 285q52 39 106.5 64t91.5 25zM155 194q0 -99 45 -99q28 0 51 24t36 60.5t19.5 73t6.5 66.5q0 48 -9 71.5t-32 23.5q-51 0 -84 -65t-33 -155zM245 557
v18l101 154h124v-20l-154 -152h-71z" />
    <glyph glyph-name="ocircumflex" unicode="&#xf4;" horiz-adv-x="469" 
d="M316 515q59 0 98.5 -36t39.5 -112q0 -84 -25 -159t-72 -121q-113 -94 -202 -94q-67 0 -103.5 42t-36.5 106q0 201 103 285q52 39 106.5 64t91.5 25zM155 194q0 -99 45 -99q28 0 51 24t36 60.5t19.5 73t6.5 66.5q0 48 -9 71.5t-32 23.5q-51 0 -84 -65t-33 -155zM434 575
v-18h-37l-66 78l-102 -78h-45v18l143 154h58z" />
    <glyph glyph-name="otilde" unicode="&#xf5;" horiz-adv-x="469" 
d="M316 515q59 0 98.5 -36t39.5 -112q0 -84 -25 -159t-72 -121q-113 -94 -202 -94q-67 0 -103.5 42t-36.5 106q0 201 103 285q52 39 106.5 64t91.5 25zM155 194q0 -99 45 -99q28 0 51 24t36 60.5t19.5 73t6.5 66.5q0 48 -9 71.5t-32 23.5q-51 0 -84 -65t-33 -155zM437 709
l36 -10q-14 -54 -42.5 -95.5t-54.5 -41.5q-16 0 -71 30t-71 30q-14 0 -24.5 -15.5t-23.5 -47.5l-39 12q11 45 41 91.5t48 46.5q21 0 72.5 -30.5t71.5 -30.5q16 0 33.5 20t23.5 41z" />
    <glyph glyph-name="odieresis" unicode="&#xf6;" horiz-adv-x="469" 
d="M316 515q59 0 98.5 -36t39.5 -112q0 -84 -25 -159t-72 -121q-113 -94 -202 -94q-67 0 -103.5 42t-36.5 106q0 201 103 285q52 39 106.5 64t91.5 25zM155 194q0 -99 45 -99q28 0 51 24t36 60.5t19.5 73t6.5 66.5q0 48 -9 71.5t-32 23.5q-51 0 -84 -65t-33 -155zM482 635
q0 -27 -21 -47.5t-47 -20.5q-28 0 -49 20.5t-21 47.5q0 28 21 49t49 21q26 0 47 -21.5t21 -48.5zM302 635q0 -27 -20 -47.5t-49 -20.5q-27 0 -48 20.5t-21 47.5q0 28 21 49t48 21q29 0 49 -21t20 -49z" />
    <glyph glyph-name="divide" unicode="&#xf7;" horiz-adv-x="620" 
d="M573 221h-526v86h526v-86zM246 409q0 27 18 45.5t45 18.5t46 -19t19 -45q0 -27 -19 -45.5t-46 -18.5t-45 18t-18 46zM246 119q0 27 18 45.5t45 18.5t46 -19t19 -45q0 -27 -19 -45t-46 -18t-45 17.5t-18 45.5z" />
    <glyph glyph-name="oslash" unicode="&#xf8;" horiz-adv-x="469" 
d="M316 515q44 0 78 -21l28 35l44 -37l-32 -39q20 -37 20 -86q0 -84 -25 -159t-72 -121q-113 -94 -202 -94q-44 0 -77 19l-36 -45l-44 37l40 49q-23 36 -23 88q0 201 103 285q52 39 106.5 64t91.5 25zM272 414q-50 0 -83 -64t-34 -152l151 187q-9 29 -34 29zM200 95
q34 0 60.5 37t38 81.5t13.5 88.5l-146 -181q11 -26 34 -26z" />
    <glyph glyph-name="ugrave" unicode="&#xf9;" horiz-adv-x="539" 
d="M387 -7l-90 32l-1 57l-9 3q-115 -92 -177 -92q-92 0 -59 134l65 262l-75 -33l-28 56l143 98l82 -15l13 -67l-65 -283q-10 -36 16 -36q14 0 46 24t57 55l65 283l58 29h83l-88 -391l79 34l24 -49zM371 575v-18h-71l-139 152v20h124z" />
    <glyph glyph-name="uacute" unicode="&#xfa;" horiz-adv-x="539" 
d="M387 -7l-90 32l-1 57l-9 3q-115 -92 -177 -92q-92 0 -59 134l65 262l-75 -33l-28 56l143 98l82 -15l13 -67l-65 -283q-10 -36 16 -36q14 0 46 24t57 55l65 283l58 29h83l-88 -391l79 34l24 -49zM261 557v18l101 154h124v-20l-154 -152h-71z" />
    <glyph glyph-name="ucircumflex" unicode="&#xfb;" horiz-adv-x="539" 
d="M387 -7l-90 32l-1 57l-9 3q-115 -92 -177 -92q-92 0 -59 134l65 262l-75 -33l-28 56l143 98l82 -15l13 -67l-65 -283q-10 -36 16 -36q14 0 46 24t57 55l65 283l58 29h83l-88 -391l79 34l24 -49zM450 575v-18h-37l-66 78l-102 -78h-45v18l143 154h58z" />
    <glyph glyph-name="udieresis" unicode="&#xfc;" horiz-adv-x="539" 
d="M387 -7l-90 32l-1 57l-9 3q-115 -92 -177 -92q-92 0 -59 134l65 262l-75 -33l-28 56l143 98l82 -15l13 -67l-65 -283q-10 -36 16 -36q14 0 46 24t57 55l65 283l58 29h83l-88 -391l79 34l24 -49zM498 635q0 -27 -21 -47.5t-47 -20.5q-28 0 -49 20.5t-21 47.5q0 28 21 49
t49 21q26 0 47 -21.5t21 -48.5zM318 635q0 -27 -20 -47.5t-49 -20.5q-27 0 -48 20.5t-21 47.5q0 28 21 49t48 21q29 0 49 -21t20 -49z" />
    <glyph glyph-name="yacute" unicode="&#xfd;" horiz-adv-x="526" 
d="M143 510l87 -26l15 -44l-1 -295q0 -19 5.5 -27.5t13.5 -5.5q20 6 38 16q56 128 76 277l-27 58l107 47h54l17 -65q-38 -141 -85 -261.5t-101.5 -218t-118 -153t-127.5 -55.5q-34 0 -66.5 20.5t-48.5 49.5l54 94h31q21 -51 70 -51q35 0 76 44t68 118l-6 8
q-22 -17 -53.5 -29.5t-50.5 -12.5q-45 0 -50 96l-14 300l-64 -33l-30 56zM250 557v18l101 154h124v-20l-154 -152h-71z" />
    <glyph glyph-name="thorn" unicode="&#xfe;" horiz-adv-x="516" 
d="M123 484l21 142l-81 20l9 53l180 54l48 -41l-46 -199l-14 -74l13 -6q95 77 163 77q42 0 63.5 -40.5t21.5 -104.5q0 -92 -30.5 -171t-77.5 -118q-89 -80 -148 -80q-30 0 -80 18l-40 -225l-58 -24h-85zM361 337q0 61 -32 61q-35 0 -91 -39l-50 -245q8 -25 49 -25
q36 0 65 37t44 93t15 118z" />
    <glyph glyph-name="ydieresis" unicode="&#xff;" horiz-adv-x="526" 
d="M143 510l87 -26l15 -44l-1 -295q0 -19 5.5 -27.5t13.5 -5.5q20 6 38 16q56 128 76 277l-27 58l107 47h54l17 -65q-38 -141 -85 -261.5t-101.5 -218t-118 -153t-127.5 -55.5q-34 0 -66.5 20.5t-48.5 49.5l54 94h31q21 -51 70 -51q35 0 76 44t68 118l-6 8
q-22 -17 -53.5 -29.5t-50.5 -12.5q-45 0 -50 96l-14 300l-64 -33l-30 56zM487 635q0 -27 -21 -47.5t-47 -20.5q-28 0 -49 20.5t-21 47.5q0 28 21 49t49 21q26 0 47 -21.5t21 -48.5zM307 635q0 -27 -20 -47.5t-49 -20.5q-27 0 -48 20.5t-21 47.5q0 28 21 49t48 21
q29 0 49 -21t20 -49z" />
    <glyph glyph-name="Amacron" unicode="&#x100;" horiz-adv-x="718" 
d="M447 82l-19 111h-216l-64 -106l85 -14l-12 -73h-245l12 73l56 14l362 576h94l108 -581l64 -14l-11 -68h-297l11 68zM370 452l-108 -178h152l-31 178h-13zM601 746h-274v70h274v-70z" />
    <glyph glyph-name="amacron" unicode="&#x101;" horiz-adv-x="507" 
d="M352 -7l-80 19l-1 69l-9 5q-41 -39 -88 -66t-75 -27q-84 0 -84 135q0 81 36 167t96 138q48 36 80.5 54t62.5 18q40 0 80 -28l34 32l80 -19l-85 -381l74 29l24 -49zM155 175q0 -58 26 -58q13 0 46 18.5t55 39.5l45 223q-21 19 -46 19q-45 0 -85.5 -78t-40.5 -164zM489 582
h-274v70h274v-70z" />
    <glyph glyph-name="Abreve" unicode="&#x102;" horiz-adv-x="718" 
d="M447 82l-19 111h-216l-64 -106l85 -14l-12 -73h-245l12 73l56 14l362 576h94l108 -581l64 -14l-11 -68h-297l11 68zM370 452l-108 -178h152l-31 178h-13zM457 711q-58 0 -87 34t-14 103h50q-5 -26 13 -44.5t54 -18.5q39 0 70.5 18t38.5 45h54q-15 -66 -67 -101.5
t-112 -35.5z" />
    <glyph glyph-name="abreve" unicode="&#x103;" horiz-adv-x="507" 
d="M352 -7l-80 19l-1 69l-9 5q-41 -39 -88 -66t-75 -27q-84 0 -84 135q0 81 36 167t96 138q48 36 80.5 54t62.5 18q40 0 80 -28l34 32l80 -19l-85 -381l74 29l24 -49zM155 175q0 -58 26 -58q13 0 46 18.5t55 39.5l45 223q-21 19 -46 19q-45 0 -85.5 -78t-40.5 -164zM345 547
q-49 0 -74 44t-12 128h50q-4 -35 10.5 -61.5t41.5 -26.5q34 0 60.5 25t33.5 63h54q-13 -81 -61 -126.5t-103 -45.5z" />
    <glyph glyph-name="Aogonek" unicode="&#x104;" horiz-adv-x="718" 
d="M447 82l-19 111h-216l-64 -106l85 -14l-12 -73h-245l12 73l56 14l362 576h94l108 -581l64 -14l-11 -68h-249q-59 -44 -59 -106q0 -23 12 -37.5t28 -14.5q7 0 21 2v-42q-22 -5 -39 -5q-43 0 -75 20.5t-32 57.5q0 71 96 129l11 64zM370 452l-108 -178h152l-31 178h-13z" />
    <glyph glyph-name="aogonek" unicode="&#x105;" horiz-adv-x="507" 
d="M352 -7h-1q-30 -34 -30 -80q0 -23 12 -37.5t28 -14.5q7 0 21 2v-42q-22 -5 -39 -5q-43 0 -75 20.5t-32 57.5q0 58 69 110l-33 8l-1 69l-9 5q-41 -39 -88 -66t-75 -27q-84 0 -84 135q0 81 36 167t96 138q48 36 80.5 54t62.5 18q40 0 80 -28l34 32l80 -19l-85 -381l74 29
l24 -49zM155 175q0 -58 26 -58q13 0 46 18.5t55 39.5l45 223q-21 19 -46 19q-45 0 -85.5 -78t-40.5 -164z" />
    <glyph glyph-name="Cacute" unicode="&#x106;" horiz-adv-x="654" 
d="M369 71q59 0 111 21l86 110h60l-64 -179q-110 -34 -214 -34q-139 0 -223.5 68.5t-84.5 192.5q0 187 129.5 305.5t311.5 118.5q47 0 102.5 -15.5t89.5 -37.5l-24 -191h-66l-19 117q-47 45 -121 45q-88 0 -160 -86t-72 -225q0 -105 49 -157.5t109 -52.5zM414 721v18l86 119
h124v-20l-139 -117h-71z" />
    <glyph glyph-name="cacute" unicode="&#x107;" horiz-adv-x="399" 
d="M304 515q39 0 66 -23t39 -59v-30l-47 -73h-46q-7 90 -52 90q-47 0 -78.5 -75t-31.5 -170q0 -49 13.5 -68.5t40.5 -19.5q24 0 55 16t57 42l37 -48q-100 -104 -201 -104q-63 0 -102 39t-39 110q0 93 29 166t81 113q112 94 179 94zM234 557v18l101 154h124v-20l-154 -152
h-71z" />
    <glyph glyph-name="Cdotaccent" unicode="&#x10a;" horiz-adv-x="654" 
d="M369 71q59 0 111 21l86 110h60l-64 -179q-110 -34 -214 -34q-139 0 -223.5 68.5t-84.5 192.5q0 187 129.5 305.5t311.5 118.5q47 0 102.5 -15.5t89.5 -37.5l-24 -191h-66l-19 117q-47 45 -121 45q-88 0 -160 -86t-72 -225q0 -105 49 -157.5t109 -52.5zM435 774
q0 35 21.5 62t54.5 27q25 0 40 -19t15 -47q0 -35 -22.5 -60t-51.5 -25q-25 0 -41 18.5t-16 43.5z" />
    <glyph glyph-name="cdotaccent" unicode="&#x10b;" horiz-adv-x="399" 
d="M304 515q39 0 66 -23t39 -59v-30l-47 -73h-46q-7 90 -52 90q-47 0 -78.5 -75t-31.5 -170q0 -49 13.5 -68.5t40.5 -19.5q24 0 55 16t57 42l37 -48q-100 -104 -201 -104q-63 0 -102 39t-39 110q0 93 29 166t81 113q112 94 179 94zM253 631q0 38 24 68t60 30q28 0 44 -21
t16 -52q0 -38 -24.5 -65.5t-56.5 -27.5q-28 0 -45.5 20t-17.5 48z" />
    <glyph glyph-name="Ccaron" unicode="&#x10c;" horiz-adv-x="654" 
d="M369 71q59 0 111 21l86 110h60l-64 -179q-110 -34 -214 -34q-139 0 -223.5 68.5t-84.5 192.5q0 187 129.5 305.5t311.5 118.5q47 0 102.5 -15.5t89.5 -37.5l-24 -191h-66l-19 117q-47 45 -121 45q-88 0 -160 -86t-72 -225q0 -105 49 -157.5t109 -52.5zM385 840v18h37
l76 -58l132 58h45v-18l-163 -119h-58z" />
    <glyph glyph-name="ccaron" unicode="&#x10d;" horiz-adv-x="399" 
d="M304 515q39 0 66 -23t39 -59v-30l-47 -73h-46q-7 90 -52 90q-47 0 -78.5 -75t-31.5 -170q0 -49 13.5 -68.5t40.5 -19.5q24 0 55 16t57 42l37 -48q-100 -104 -201 -104q-63 0 -102 39t-39 110q0 93 29 166t81 113q112 94 179 94zM219 711v18h37l63 -78l105 78h45v-18
l-143 -154h-58z" />
    <glyph glyph-name="Dcaron" unicode="&#x10e;" horiz-adv-x="747" 
d="M304 0h-323l12 73l78 14l86 489l-72 14l12 73h388q125 0 193 -64t68 -179q0 -126 -61.5 -223t-161.5 -147t-219 -50zM231 82h77q107 0 189 95t82 238q0 86 -35.5 126t-110.5 40h-114zM326 840v18h37l76 -58l132 58h45v-18l-163 -119h-58z" />
    <glyph glyph-name="dcaron" unicode="&#x10f;" horiz-adv-x="508" 
d="M346 -7l-74 19l-1 65l-8 5q-115 -89 -164 -89q-40 0 -62 33.5t-22 75.5q0 102 35.5 186t81.5 129q100 88 161 88q19 0 56 -13l25 135l-89 21l8 51l194 54l44 -31l-132 -615l77 29l23 -52zM156 184q0 -31 9 -48.5t22 -17.5q29 0 98 62l45 222q-19 14 -43 14q-51 0 -91 -73
t-40 -159zM564 529v8l71 209h106v-10l-109 -207h-68z" />
    <glyph glyph-name="Dcroat" unicode="&#x110;" horiz-adv-x="747" 
d="M304 0h-323l12 73l78 14l37 211h-80l10 65h81l38 213l-72 14l12 73h388q125 0 193 -64t68 -179q0 -126 -61.5 -223t-161.5 -147t-219 -50zM231 82h77q107 0 189 95t82 238q0 86 -35.5 126t-110.5 40h-114l-39 -218h117l-10 -65h-118z" />
    <glyph glyph-name="dcroat" unicode="&#x111;" horiz-adv-x="508" 
d="M266 607h104l4 20l-89 21l8 51l194 54l44 -31l-25 -115h52l-10 -60h-55l-94 -440l77 29l23 -52l-153 -91l-74 19l-1 65l-8 5q-115 -89 -164 -89q-40 0 -62 33.5t-22 75.5q0 102 35.5 186t81.5 129q100 88 161 88q19 0 56 -13l10 55h-103zM156 184q0 -31 9 -48.5t22 -17.5
q29 0 98 62l45 222q-19 14 -43 14q-51 0 -91 -73t-40 -159z" />
    <glyph glyph-name="Emacron" unicode="&#x112;" horiz-adv-x="593" 
d="M230 80h202l80 121h56l-51 -206l-156 5h-380l12 73l77 14l86 489l-71 14l12 73h373l132 4l-26 -182h-56l-32 97h-170l-38 -215l110 6l54 84h53l-44 -252h-53l-24 86l-109 3zM511 746h-274v70h274v-70z" />
    <glyph glyph-name="emacron" unicode="&#x113;" horiz-adv-x="429" 
d="M412 413q0 -90 -67.5 -144t-190.5 -92v-15q0 -41 12.5 -57t39.5 -16q71 0 156 77l42 -43q-48 -55 -114.5 -92.5t-132.5 -37.5q-65 0 -103.5 36t-38.5 102q0 102 38.5 191t100.5 128q95 65 152 65q106 0 106 -102zM250 412q-32 -1 -56.5 -45.5t-34.5 -117.5
q126 43 126 129q0 34 -35 34zM444 582h-274v70h274v-70z" />
    <glyph glyph-name="Edotaccent" unicode="&#x116;" horiz-adv-x="593" 
d="M230 80h202l80 121h56l-51 -206l-156 5h-380l12 73l77 14l86 489l-71 14l12 73h373l132 4l-26 -182h-56l-32 97h-170l-38 -215l110 6l54 84h53l-44 -252h-53l-24 86l-109 3zM330 774q0 35 21.5 62t54.5 27q25 0 40 -19t15 -47q0 -35 -22.5 -60t-51.5 -25q-25 0 -41 18.5
t-16 43.5z" />
    <glyph glyph-name="edotaccent" unicode="&#x117;" horiz-adv-x="429" 
d="M412 413q0 -90 -67.5 -144t-190.5 -92v-15q0 -41 12.5 -57t39.5 -16q71 0 156 77l42 -43q-48 -55 -114.5 -92.5t-132.5 -37.5q-65 0 -103.5 36t-38.5 102q0 102 38.5 191t100.5 128q95 65 152 65q106 0 106 -102zM250 412q-32 -1 -56.5 -45.5t-34.5 -117.5
q126 43 126 129q0 34 -35 34zM261 631q0 38 24 68t60 30q28 0 44 -21t16 -52q0 -38 -24.5 -65.5t-56.5 -27.5q-28 0 -45.5 20t-17.5 48z" />
    <glyph glyph-name="Eogonek" unicode="&#x118;" horiz-adv-x="593" 
d="M230 80h202l80 121h56l-51 -206l-15 1q-66 -45 -66 -112q0 -23 12 -37.5t28 -14.5q7 0 21 2v-42q-22 -5 -39 -5q-43 0 -75 20.5t-32 57.5q0 72 101 132l-91 3h-380l12 73l77 14l86 489l-71 14l12 73h373l132 4l-26 -182h-56l-32 97h-170l-38 -215l110 6l54 84h53
l-44 -252h-53l-24 86l-109 3z" />
    <glyph glyph-name="eogonek" unicode="&#x119;" horiz-adv-x="429" 
d="M412 413q0 -90 -67.5 -144t-190.5 -92v-15q0 -41 12.5 -57t39.5 -16q71 0 156 77l42 -43q-52 -59 -116 -93q-50 -43 -50 -99q0 -23 12 -37.5t28 -14.5q7 0 21 2v-42q-22 -5 -39 -5q-43 0 -75 20.5t-32 57.5q0 43 39 84q-18 -3 -35 -3q-65 0 -103.5 36t-38.5 102
q0 102 38.5 191t100.5 128q95 65 152 65q106 0 106 -102zM250 412q-32 -1 -56.5 -45.5t-34.5 -117.5q126 43 126 129q0 34 -35 34z" />
    <glyph glyph-name="Ecaron" unicode="&#x11a;" horiz-adv-x="593" 
d="M230 80h202l80 121h56l-51 -206l-156 5h-380l12 73l77 14l86 489l-71 14l12 73h373l132 4l-26 -182h-56l-32 97h-170l-38 -215l110 6l54 84h53l-44 -252h-53l-24 86l-109 3zM280 840v18h37l76 -58l132 58h45v-18l-163 -119h-58z" />
    <glyph glyph-name="ecaron" unicode="&#x11b;" horiz-adv-x="429" 
d="M412 413q0 -90 -67.5 -144t-190.5 -92v-15q0 -41 12.5 -57t39.5 -16q71 0 156 77l42 -43q-48 -55 -114.5 -92.5t-132.5 -37.5q-65 0 -103.5 36t-38.5 102q0 102 38.5 191t100.5 128q95 65 152 65q106 0 106 -102zM250 412q-32 -1 -56.5 -45.5t-34.5 -117.5
q126 43 126 129q0 34 -35 34zM227 711v18h37l63 -78l105 78h45v-18l-143 -154h-58z" />
    <glyph glyph-name="Gbreve" unicode="&#x11e;" horiz-adv-x="736" 
d="M376 71q52 0 97 31l24 134l-82 14l12 73h300l-12 -73l-64 -14l-31 -179q-124 -68 -272 -68q-132 0 -220 67t-88 197q0 97 37 177.5t99 133t142 81.5t167 29q109 0 221 -49l-12 -177h-75l-24 98q-39 46 -123 46q-106 0 -183.5 -82.5t-77.5 -241.5q0 -103 49 -150t116 -47z
M480 711q-58 0 -87 34t-14 103h50q-5 -26 13 -44.5t54 -18.5q39 0 70.5 18t38.5 45h54q-15 -66 -67 -101.5t-112 -35.5z" />
    <glyph glyph-name="gbreve" unicode="&#x11f;" horiz-adv-x="471" 
d="M492 493v-91h-71q0 -1 1.5 -10.5t1.5 -15.5q0 -90 -68.5 -154t-179.5 -64h-1q-16 -26 -8 -38.5t29 -17.5q203 -36 203 -152q0 -60 -41 -105.5t-101 -66.5t-126 -21q-92 0 -144.5 33t-52.5 90q0 88 132 143q-23 40 -12 80t54 71q-81 38 -81 126q0 90 73 150t161 60
q80 0 122 -47l41 30h68zM266 -87q0 65 -146 73q-67 -30 -67 -91q0 -68 93 -68q48 0 84 24t36 62zM168 284q0 -56 38 -56q33 0 60.5 44t27.5 102q0 57 -44 57q-32 0 -57 -44t-25 -103zM264 547q-49 0 -74 44t-12 128h50q-4 -35 10.5 -61.5t41.5 -26.5q34 0 60.5 25t33.5 63
h54q-13 -81 -61 -126.5t-103 -45.5z" />
    <glyph glyph-name="Gdotaccent" unicode="&#x120;" horiz-adv-x="736" 
d="M376 71q52 0 97 31l24 134l-82 14l12 73h300l-12 -73l-64 -14l-31 -179q-124 -68 -272 -68q-132 0 -220 67t-88 197q0 97 37 177.5t99 133t142 81.5t167 29q109 0 221 -49l-12 -177h-75l-24 98q-39 46 -123 46q-106 0 -183.5 -82.5t-77.5 -241.5q0 -103 49 -150t116 -47z
M443 774q0 35 21.5 62t54.5 27q25 0 40 -19t15 -47q0 -35 -22.5 -60t-51.5 -25q-25 0 -41 18.5t-16 43.5z" />
    <glyph glyph-name="gdotaccent" unicode="&#x121;" horiz-adv-x="471" 
d="M492 493v-91h-71q0 -1 1.5 -10.5t1.5 -15.5q0 -90 -68.5 -154t-179.5 -64h-1q-16 -26 -8 -38.5t29 -17.5q203 -36 203 -152q0 -60 -41 -105.5t-101 -66.5t-126 -21q-92 0 -144.5 33t-52.5 90q0 88 132 143q-23 40 -12 80t54 71q-81 38 -81 126q0 90 73 150t161 60
q80 0 122 -47l41 30h68zM266 -87q0 65 -146 73q-67 -30 -67 -91q0 -68 93 -68q48 0 84 24t36 62zM168 284q0 -56 38 -56q33 0 60.5 44t27.5 102q0 57 -44 57q-32 0 -57 -44t-25 -103zM225 631q0 38 24 68t60 30q28 0 44 -21t16 -52q0 -38 -24.5 -65.5t-56.5 -27.5
q-28 0 -45.5 20t-17.5 48z" />
    <glyph glyph-name="Gcommaaccent" unicode="&#x122;" horiz-adv-x="736" 
d="M376 71q52 0 97 31l24 134l-82 14l12 73h300l-12 -73l-64 -14l-31 -179q-124 -68 -272 -68q-132 0 -220 67t-88 197q0 97 37 177.5t99 133t142 81.5t167 29q109 0 221 -49l-12 -177h-75l-24 98q-39 46 -123 46q-106 0 -183.5 -82.5t-77.5 -241.5q0 -103 49 -150t116 -47z
M300 -269l-51 34l48 85l23 99l89 -36l-42 -92z" />
    <glyph glyph-name="gcommaaccent" unicode="&#x123;" horiz-adv-x="471" 
d="M492 493v-91h-71q0 -1 1.5 -10.5t1.5 -15.5q0 -90 -68.5 -154t-179.5 -64h-1q-16 -26 -8 -38.5t29 -17.5q203 -36 203 -152q0 -60 -41 -105.5t-101 -66.5t-126 -21q-92 0 -144.5 33t-52.5 90q0 88 132 143q-23 40 -12 80t54 71q-81 38 -81 126q0 90 73 150t161 60
q80 0 122 -47l41 30h68zM266 -87q0 65 -146 73q-67 -30 -67 -91q0 -68 93 -68q48 0 84 24t36 62zM168 284q0 -56 38 -56q33 0 60.5 44t27.5 102q0 57 -44 57q-32 0 -57 -44t-25 -103zM319 773l51 -34l-48 -85l-23 -99l-89 36l42 92z" />
    <glyph glyph-name="Hbar" unicode="&#x126;" horiz-adv-x="771" 
d="M76 519h70l10 57l-71 14l12 73h309l-12 -73l-78 -14l-10 -57h261l10 57l-72 14l12 73h309l-12 -73l-77 -14l-10 -57h81l-10 -64h-83l-64 -368l71 -14l-12 -73h-309l12 73l78 14l38 217h-261l-38 -217l72 -14l-12 -73h-309l12 73l77 14l64 368h-68zM284 393h261l11 62
h-261z" />
    <glyph glyph-name="hbar" unicode="&#x127;" horiz-adv-x="529" 
d="M79 586h57l8 40l-81 20l9 53l180 54l48 -41l-27 -126h98l-10 -60h-101l-1 -8l-17 -77l9 -5q38 25 60 38.5t56 27t60 13.5q96 0 60 -156l-68 -245l74 28l23 -53l-142 -96l-93 29l1 68l64 266q8 38 -19 38q-31 0 -101 -41l-68 -328l-58 -25h-83l101 484l7 42h-56z" />
    <glyph glyph-name="Imacron" unicode="&#x12a;" horiz-adv-x="369" 
d="M103 663h315l-12 -73l-80 -14l-86 -489l74 -14l-12 -73h-315l12 73l80 14l86 489l-74 14zM406 746h-274v70h274v-70z" />
    <glyph glyph-name="imacron" unicode="&#x12b;" horiz-adv-x="310" 
d="M296 96l-158 -103l-83 31l-8 52l82 316l-88 -28l-22 55l134 91l99 -12l22 -49l-82 -332l82 31zM347 595h-274v70h274v-70z" />
    <glyph glyph-name="Iogonek" unicode="&#x12e;" horiz-adv-x="369" 
d="M103 663h315l-12 -73l-80 -14l-86 -489l74 -14l-12 -73h-11q-70 -45 -70 -114q0 -23 12 -37.5t28 -14.5q7 0 21 2v-42q-22 -5 -39 -5q-43 0 -75 20.5t-32 57.5q0 73 102 133h-251l12 73l80 14l86 489l-74 14z" />
    <glyph glyph-name="iogonek" unicode="&#x12f;" horiz-adv-x="310" 
d="M296 96l-151 -98q-36 -36 -36 -87q0 -23 12 -37.5t28 -14.5q7 0 21 2v-42q-22 -5 -39 -5q-43 0 -75 20.5t-32 57.5q0 61 76 115l-45 17l-8 52l82 316l-88 -28l-22 55l134 91l99 -12l22 -49l-82 -332l82 31zM167 656q0 37 23.5 64t58.5 27q29 0 51 -20.5t22 -57.5
q0 -43 -22.5 -68t-57.5 -25t-55 22t-20 58z" />
    <glyph glyph-name="Idotaccent" unicode="&#x130;" horiz-adv-x="369" 
d="M103 663h315l-12 -73l-80 -14l-86 -489l74 -14l-12 -73h-315l12 73l80 14l86 489l-74 14zM225 774q0 35 21.5 62t54.5 27q25 0 40 -19t15 -47q0 -35 -22.5 -60t-51.5 -25q-25 0 -41 18.5t-16 43.5z" />
    <glyph glyph-name="dotlessi" unicode="&#x131;" horiz-adv-x="310" 
d="M296 96l-158 -103l-83 31l-8 52l82 316l-88 -28l-22 55l134 91l99 -12l22 -49l-82 -332l82 31z" />
    <glyph glyph-name="Kcommaaccent" unicode="&#x136;" horiz-adv-x="691" 
d="M316 576l-36 -204h32l211 195l-65 23l12 73h263l-12 -73l-94 -29l-195 -180l166 -294l45 -14l-12 -73h-285l12 73l48 11l-109 214h-30l-37 -211l72 -14l-12 -73h-309l12 73l77 14l86 489l-71 14l12 73h309l-12 -73zM256 -269l-51 34l48 85l23 99l89 -36l-42 -92z" />
    <glyph glyph-name="kcommaaccent" unicode="&#x137;" horiz-adv-x="484" 
d="M441 354h-18l-37 33q-36 0 -84 -69l-1 -20l95 -189l50 23l30 -45l-127 -97l-73 32l-76 183h-11l-38 -185l-53 -20h-82l111 534l19 92l-81 20l7 56l184 51l45 -41l-50 -223l-42 -167h16q41 78 105 133t97 55l74 -55zM146 -254l-51 34l48 85l23 99l89 -36l-42 -92z" />
    <glyph glyph-name="Lacute" unicode="&#x139;" horiz-adv-x="552" 
d="M479 -5l-151 5h-347l12 73l75 14l86 489l-69 14l12 73h313l-12 -73l-84 -14l-87 -496h161l82 127h61zM188 721v18l86 119h124v-20l-139 -117h-71z" />
    <glyph glyph-name="lacute" unicode="&#x13a;" horiz-adv-x="278" 
d="M97 -11l-77 42l-1 66l89 384l28 144l-75 20l8 54l192 54l40 -31l-54 -226l-87 -379l77 28l28 -55zM171 803v18l86 119h124v-20l-139 -117h-71z" />
    <glyph glyph-name="Lcommaaccent" unicode="&#x13b;" horiz-adv-x="552" 
d="M479 -5l-151 5h-347l12 73l75 14l86 489l-69 14l12 73h313l-12 -73l-84 -14l-87 -496h161l82 127h61zM198 -269l-51 34l48 85l23 99l89 -36l-42 -92z" />
    <glyph glyph-name="lcommaaccent" unicode="&#x13c;" horiz-adv-x="278" 
d="M97 -11l-77 42l-1 66l89 384l28 144l-75 20l8 54l192 54l40 -31l-54 -226l-87 -379l77 28l28 -55zM40 -264l-51 34l48 85l23 99l89 -36l-42 -92z" />
    <glyph glyph-name="Lcaron" unicode="&#x13d;" horiz-adv-x="552" 
d="M479 -5l-151 5h-347l12 73l75 14l86 489l-69 14l12 73h313l-12 -73l-84 -14l-87 -496h161l82 127h61zM461 442v8l71 209h106v-10l-109 -207h-68z" />
    <glyph glyph-name="lcaron" unicode="&#x13e;" horiz-adv-x="313" 
d="M97 -11l-77 42l-1 66l89 384l28 144l-75 20l8 54l192 54l40 -31l-54 -226l-87 -379l77 28l28 -55zM290 528v8l71 209h106v-10l-109 -207h-68z" />
    <glyph glyph-name="Ldot" unicode="&#x13f;" horiz-adv-x="552" 
d="M479 -5l-151 5h-347l12 73l75 14l86 489l-69 14l12 73h313l-12 -73l-84 -14l-87 -496h161l82 127h61zM392 354q0 35 23.5 59t57.5 24q35 0 58.5 -24t23.5 -59t-23.5 -58.5t-58.5 -23.5q-34 0 -57.5 23.5t-23.5 58.5z" />
    <glyph glyph-name="ldot" unicode="&#x140;" horiz-adv-x="410" 
d="M97 -11l-77 42l-1 66l89 384l28 144l-75 20l8 54l192 54l40 -31l-54 -226l-87 -379l77 28l28 -55zM228 303q0 35 23.5 59t57.5 24q35 0 58.5 -24t23.5 -59t-23.5 -58.5t-58.5 -23.5q-34 0 -57.5 23.5t-23.5 58.5z" />
    <glyph glyph-name="Lslash" unicode="&#x141;" horiz-adv-x="552" 
d="M479 -5l-151 5h-347l12 73l75 14l25 146l-45 -26l-30 52l89 51l47 266l-69 14l12 73h313l-12 -73l-84 -14l-29 -164l89 51l30 -52l-132 -76l-45 -255h161l82 127h61z" />
    <glyph glyph-name="lslash" unicode="&#x142;" horiz-adv-x="278" 
d="M97 -11l-77 42l-1 66l42 182l-29 -17l-31 49l78 45l29 125l28 144l-75 20l8 54l192 54l40 -31l-54 -226l-11 -48l54 32l31 -49l-103 -60l-58 -254l77 28l28 -55z" />
    <glyph glyph-name="Nacute" unicode="&#x143;" horiz-adv-x="755" 
d="M557 232h14l33 197l22 147l-82 14l12 73h254l-12 -73l-76 -14l-32 -152l-74 -424h-98l-285 448h-13l-33 -195l-24 -166l81 -14l-12 -73h-251l12 73l74 14l33 163l57 324l-78 14l13 75h201zM390 721v18l86 119h124v-20l-139 -117h-71z" />
    <glyph glyph-name="nacute" unicode="&#x144;" horiz-adv-x="545" 
d="M385 -7l-93 30l1 57l64 266q4 22 -1 35t-17 13q-37 0 -96 -38l-68 -327l-56 -26h-85l78 391l-80 -31l-19 58l144 89l93 -17l-3 -59h14q36 26 58 40t54 27.5t58 13.5q34 0 51 -11.5t24 -47.5t-11 -102l-59 -239l72 25l24 -51zM275 557v18l101 154h124v-20l-154 -152h-71z
" />
    <glyph glyph-name="Ncommaaccent" unicode="&#x145;" horiz-adv-x="755" 
d="M557 232h14l33 197l22 147l-82 14l12 73h254l-12 -73l-76 -14l-32 -152l-74 -424h-98l-285 448h-13l-33 -195l-24 -166l81 -14l-12 -73h-251l12 73l74 14l33 163l57 324l-78 14l13 75h201zM281 -269l-51 34l48 85l23 99l89 -36l-42 -92z" />
    <glyph glyph-name="ncommaaccent" unicode="&#x146;" horiz-adv-x="545" 
d="M385 -7l-93 30l1 57l64 266q4 22 -1 35t-17 13q-37 0 -96 -38l-68 -327l-56 -26h-85l78 391l-80 -31l-19 58l144 89l93 -17l-3 -59h14q36 26 58 40t54 27.5t58 13.5q34 0 51 -11.5t24 -47.5t-11 -102l-59 -239l72 25l24 -51zM177 -254l-51 34l48 85l23 99l89 -36l-42 -92
z" />
    <glyph glyph-name="Ncaron" unicode="&#x147;" horiz-adv-x="755" 
d="M557 232h14l33 197l22 147l-82 14l12 73h254l-12 -73l-76 -14l-32 -152l-74 -424h-98l-285 448h-13l-33 -195l-24 -166l81 -14l-12 -73h-251l12 73l74 14l33 163l57 324l-78 14l13 75h201zM361 840v18h37l76 -58l132 58h45v-18l-163 -119h-58z" />
    <glyph glyph-name="ncaron" unicode="&#x148;" horiz-adv-x="545" 
d="M385 -7l-93 30l1 57l64 266q4 22 -1 35t-17 13q-37 0 -96 -38l-68 -327l-56 -26h-85l78 391l-80 -31l-19 58l144 89l93 -17l-3 -59h14q36 26 58 40t54 27.5t58 13.5q34 0 51 -11.5t24 -47.5t-11 -102l-59 -239l72 25l24 -51zM260 711v18h37l63 -78l105 78h45v-18
l-143 -154h-58z" />
    <glyph glyph-name="Omacron" unicode="&#x14c;" horiz-adv-x="785" 
d="M40 258q0 91 39 171t100.5 132.5t137 82.5t150.5 30q144 0 229 -72t85 -198q0 -119 -63 -215.5t-163 -148t-213 -51.5q-134 0 -218 72.5t-84 196.5zM446 592q-74 0 -129 -47.5t-81 -119t-26 -153.5q0 -97 46.5 -148t118.5 -51q40 0 79 17.5t75 53t58.5 99t22.5 146.5
q0 101 -47.5 152t-116.5 51zM618 746h-274v70h274v-70z" />
    <glyph glyph-name="omacron" unicode="&#x14d;" horiz-adv-x="469" 
d="M316 515q59 0 98.5 -36t39.5 -112q0 -84 -25 -159t-72 -121q-113 -94 -202 -94q-67 0 -103.5 42t-36.5 106q0 201 103 285q52 39 106.5 64t91.5 25zM155 194q0 -99 45 -99q28 0 51 24t36 60.5t19.5 73t6.5 66.5q0 48 -9 71.5t-32 23.5q-51 0 -84 -65t-33 -155zM447 582
h-274v70h274v-70z" />
    <glyph glyph-name="Ohungarumlaut" unicode="&#x150;" horiz-adv-x="785" 
d="M40 258q0 91 39 171t100.5 132.5t137 82.5t150.5 30q144 0 229 -72t85 -198q0 -119 -63 -215.5t-163 -148t-213 -51.5q-134 0 -218 72.5t-84 196.5zM446 592q-74 0 -129 -47.5t-81 -119t-26 -153.5q0 -97 46.5 -148t118.5 -51q40 0 79 17.5t75 53t58.5 99t22.5 146.5
q0 101 -47.5 152t-116.5 51zM326 721v18l86 119h124v-20l-139 -117h-71zM496 721v18l86 119h124v-20l-139 -117h-71z" />
    <glyph glyph-name="ohungarumlaut" unicode="&#x151;" horiz-adv-x="469" 
d="M316 515q59 0 98.5 -36t39.5 -112q0 -84 -25 -159t-72 -121q-113 -94 -202 -94q-67 0 -103.5 42t-36.5 106q0 201 103 285q52 39 106.5 64t91.5 25zM155 194q0 -99 45 -99q28 0 51 24t36 60.5t19.5 73t6.5 66.5q0 48 -9 71.5t-32 23.5q-51 0 -84 -65t-33 -155zM340 557
v18l96 154h124v-20l-154 -152h-66zM170 557v18l96 154h124v-20l-154 -152h-66z" />
    <glyph glyph-name="OE" unicode="&#x152;" horiz-adv-x="950" 
d="M587 80h202l80 121h56l-51 -206l-156 5h-278q-50 -11 -98 -11q-134 0 -218 72.5t-84 196.5q0 91 39 171t100.5 132.5t137 82.5t150.5 30q52 0 101 -11h259l132 4l-26 -182h-56l-32 97h-170l-38 -215l110 6l54 84h53l-44 -252h-53l-24 86l-109 3zM375 73q27 0 52 7l85 498
q-33 14 -66 14q-74 0 -129 -47.5t-81 -119t-26 -153.5q0 -97 46.5 -148t118.5 -51z" />
    <glyph glyph-name="oe" unicode="&#x153;" horiz-adv-x="726" 
d="M316 515q90 0 121 -77l14 12q95 65 152 65q106 0 106 -102q0 -47 -19.5 -85t-57.5 -66t-82 -48t-104 -38v-14q0 -41 13.5 -57t43.5 -16q71 0 156 77l42 -43q-48 -55 -114.5 -92.5t-132.5 -37.5q-43 0 -75.5 19t-45.5 55q-101 -74 -178 -74q-67 0 -103.5 42t-36.5 106
q0 201 103 285q52 39 106.5 64t91.5 25zM155 194q0 -99 45 -99q39 0 67.5 42t39.5 91t11 91q0 48 -10 71.5t-36 23.5q-51 0 -84 -65t-33 -155zM547 412q-34 -1 -59.5 -46t-36.5 -119q131 43 131 131q0 34 -35 34z" />
    <glyph glyph-name="Racute" unicode="&#x154;" horiz-adv-x="674" 
d="M292 267h-34l-31 -180l88 -14l-12 -73h-322l12 73l80 14l86 489l-74 14l12 73h318q193 0 193 -156q0 -55 -41.5 -111t-118.5 -86l-1 -11l149 -237l43 -19l-19 -52l-182 18zM313 576l-41 -233h40q54 0 92 37.5t38 101.5q0 94 -93 94h-36zM298 721v18l86 119h124v-20
l-139 -117h-71z" />
    <glyph glyph-name="racute" unicode="&#x155;" horiz-adv-x="379" 
d="M159 510l63 -22l-6 -79l12 -5q33 54 61 80t64 26q29 0 49 -10l-37 -158h-36l-16 23q-24 -2 -48.5 -18t-37.5 -43l-58 -279l-45 -25h-95l77 388l-71 -26l-22 56zM196 557v18l101 154h124v-20l-154 -152h-71z" />
    <glyph glyph-name="Rcaron" unicode="&#x158;" horiz-adv-x="674" 
d="M292 267h-34l-31 -180l88 -14l-12 -73h-322l12 73l80 14l86 489l-74 14l12 73h318q193 0 193 -156q0 -55 -41.5 -111t-118.5 -86l-1 -11l149 -237l43 -19l-19 -52l-182 18zM313 576l-41 -233h40q54 0 92 37.5t38 101.5q0 94 -93 94h-36zM269 840v18h37l76 -58l132 58h45
v-18l-163 -119h-58z" />
    <glyph glyph-name="rcaron" unicode="&#x159;" horiz-adv-x="379" 
d="M159 510l63 -22l-6 -79l12 -5q33 54 61 80t64 26q29 0 49 -10l-37 -158h-36l-16 23q-24 -2 -48.5 -18t-37.5 -43l-58 -279l-45 -25h-95l77 388l-71 -26l-22 56zM181 711v18h37l63 -78l105 78h45v-18l-143 -154h-58z" />
    <glyph glyph-name="Sacute" unicode="&#x15a;" horiz-adv-x="543" 
d="M21 37l18 175h64q12 -126 130 -126q44 0 76.5 26t32.5 70q0 27 -19 49t-48 36.5t-62.5 33.5t-62.5 39t-48 54t-19 77q0 63 43.5 111t103.5 70t121 22q128 0 182 -40l-20 -170h-63q-7 59 -36 89t-71 30q-45 0 -73 -23.5t-28 -60.5q0 -32 27.5 -56t66 -41.5t77.5 -38.5
t66.5 -59.5t27.5 -92.5q0 -90 -83.5 -156t-217.5 -66q-49 0 -107 14t-78 34zM311 721v18l86 119h124v-20l-139 -117h-71z" />
    <glyph glyph-name="sacute" unicode="&#x15b;" horiz-adv-x="370" 
d="M0 49v30l40 84h20q44 -58 113 -58q47 0 47 32q0 6 -1.5 11t-5.5 9.5t-7 8t-11 8.5t-13 8t-17 10t-19 11q-47 26 -68 56t-21 71q0 52 70 118.5t111 66.5t78 -15t54 -37v-25l-42 -86h-21q-48 47 -100 47q-44 0 -44 -29q0 -4 2 -8.5t6 -9t8 -8t11.5 -9t13 -9t15.5 -10
t16 -10.5q51 -31 73.5 -60.5t22.5 -71.5q0 -56 -69.5 -118.5t-134.5 -62.5q-82 0 -127 56zM198 557v18l101 154h124v-20l-154 -152h-71z" />
    <glyph glyph-name="Scedilla" unicode="&#x15e;" horiz-adv-x="543" 
d="M145 -244l-8 40q87 16 87 52q0 18 -17 27.5t-44 9.5q-16 0 -30 -2l-5 7l62 100q-49 2 -100 15.5t-69 31.5l18 175h64q12 -126 130 -126q44 0 76.5 26t32.5 70q0 27 -19 49t-48 36.5t-62.5 33.5t-62.5 39t-48 54t-19 77q0 63 43.5 111t103.5 70t121 22q128 0 182 -40
l-20 -170h-63q-7 59 -36 89t-71 30q-45 0 -73 -23.5t-28 -60.5q0 -32 27.5 -56t66 -41.5t77.5 -38.5t66.5 -59.5t27.5 -92.5q0 -83 -71 -146.5t-189 -73.5l-27 -46q78 0 78 -72q0 -43 -45 -75.5t-108 -41.5z" />
    <glyph glyph-name="scedilla" unicode="&#x15f;" horiz-adv-x="370" 
d="M54 -229l-8 40q87 16 87 52q0 18 -17 27.5t-44 9.5q-16 0 -30 -2l-5 7l57 91q-60 11 -94 53v30l40 84h20q44 -58 113 -58q47 0 47 32q0 6 -1.5 11t-5.5 9.5t-7 8t-11 8.5t-13 8t-17 10t-19 11q-47 26 -68 56t-21 71q0 52 70 118.5t111 66.5t78 -15t54 -37v-25l-42 -86
h-21q-48 47 -100 47q-44 0 -44 -29q0 -4 2 -8.5t6 -9t8 -8t11.5 -9t13 -9t15.5 -10t16 -10.5q51 -31 73.5 -60.5t22.5 -71.5q0 -50 -59 -108.5t-122 -69.5l-21 -36q78 0 78 -72q0 -43 -45 -75.5t-108 -41.5z" />
    <glyph glyph-name="Scaron" unicode="&#x160;" horiz-adv-x="543" 
d="M21 37l18 175h64q12 -126 130 -126q44 0 76.5 26t32.5 70q0 27 -19 49t-48 36.5t-62.5 33.5t-62.5 39t-48 54t-19 77q0 63 43.5 111t103.5 70t121 22q128 0 182 -40l-20 -170h-63q-7 59 -36 89t-71 30q-45 0 -73 -23.5t-28 -60.5q0 -32 27.5 -56t66 -41.5t77.5 -38.5
t66.5 -59.5t27.5 -92.5q0 -90 -83.5 -156t-217.5 -66q-49 0 -107 14t-78 34zM282 840v18h37l76 -58l132 58h45v-18l-163 -119h-58z" />
    <glyph glyph-name="scaron" unicode="&#x161;" horiz-adv-x="370" 
d="M0 49v30l40 84h20q44 -58 113 -58q47 0 47 32q0 6 -1.5 11t-5.5 9.5t-7 8t-11 8.5t-13 8t-17 10t-19 11q-47 26 -68 56t-21 71q0 52 70 118.5t111 66.5t78 -15t54 -37v-25l-42 -86h-21q-48 47 -100 47q-44 0 -44 -29q0 -4 2 -8.5t6 -9t8 -8t11.5 -9t13 -9t15.5 -10
t16 -10.5q51 -31 73.5 -60.5t22.5 -71.5q0 -56 -69.5 -118.5t-134.5 -62.5q-82 0 -127 56zM183 711v18h37l63 -78l105 78h45v-18l-143 -154h-58z" />
    <glyph glyph-name="Tcommaaccent" unicode="&#x162;" horiz-adv-x="666" 
d="M114 667l171 -4h246l173 4l-20 -207h-67l-16 118h-129l-86 -491l82 -14l-12 -73h-328l12 73l87 14l86 491h-128l-54 -118h-67zM239 -269l-51 34l48 85l23 99l89 -36l-42 -92z" />
    <glyph glyph-name="Tcommaaccent" unicode="&#x21a;" horiz-adv-x="666" 
d="M114 667l171 -4h246l173 4l-20 -207h-67l-16 118h-129l-86 -491l82 -14l-12 -73h-328l12 73l87 14l86 491h-128l-54 -118h-67zM239 -269l-51 34l48 85l23 99l89 -36l-42 -92z" />
    <glyph glyph-name="tcommaaccent" unicode="&#x163;" horiz-adv-x="338" 
d="M150 -7l-112 30l-2 64l66 305h-74l15 67l80 22l26 132l109 50l38 -42l-45 -140h107l-14 -88l-105 -1l-61 -285l109 38l24 -52zM57 -254l-51 34l48 85l23 99l89 -36l-42 -92z" />
    <glyph glyph-name="tcommaaccent" unicode="&#x21b;" horiz-adv-x="338" 
d="M150 -7l-112 30l-2 64l66 305h-74l15 67l80 22l26 132l109 50l38 -42l-45 -140h107l-14 -88l-105 -1l-61 -285l109 38l24 -52zM57 -254l-51 34l48 85l23 99l89 -36l-42 -92z" />
    <glyph glyph-name="Tcaron" unicode="&#x164;" horiz-adv-x="666" 
d="M114 667l171 -4h246l173 4l-20 -207h-67l-16 118h-129l-86 -491l82 -14l-12 -73h-328l12 73l87 14l86 491h-128l-54 -118h-67zM315 840v18h37l76 -58l132 58h45v-18l-163 -119h-58z" />
    <glyph glyph-name="tcaron" unicode="&#x165;" horiz-adv-x="338" 
d="M150 -7l-112 30l-2 64l66 305h-74l15 67l80 22l26 132l109 50l38 -42l-45 -140h107l-14 -88l-105 -1l-61 -285l109 38l24 -52zM333 538v8l71 209h106v-10l-109 -207h-68z" />
    <glyph glyph-name="Umacron" unicode="&#x16a;" horiz-adv-x="735" 
d="M557 663h234l-12 -73l-67 -14l-38 -157l-36 -208q-7 -37 -29 -74.5t-58 -71t-93.5 -55t-125.5 -21.5q-137 0 -202 57.5t-47 156.5l66 373l-74 14l12 73h315l-12 -73l-81 -14l-63 -355q-10 -63 19.5 -104.5t100.5 -41.5t126.5 46t70.5 130l30 173l18 152l-66 14zM618 746
h-274v70h274v-70z" />
    <glyph glyph-name="umacron" unicode="&#x16b;" horiz-adv-x="539" 
d="M387 -7l-90 32l-1 57l-9 3q-115 -92 -177 -92q-92 0 -59 134l65 262l-75 -33l-28 56l143 98l82 -15l13 -67l-65 -283q-10 -36 16 -36q14 0 46 24t57 55l65 283l58 29h83l-88 -391l79 34l24 -49zM463 582h-274v70h274v-70z" />
    <glyph glyph-name="Ubreve" unicode="&#x16c;" horiz-adv-x="735" 
d="M557 663h234l-12 -73l-67 -14l-38 -157l-36 -208q-7 -37 -29 -74.5t-58 -71t-93.5 -55t-125.5 -21.5q-137 0 -202 57.5t-47 156.5l66 373l-74 14l12 73h315l-12 -73l-81 -14l-63 -355q-10 -63 19.5 -104.5t100.5 -41.5t126.5 46t70.5 130l30 173l18 152l-66 14zM474 711
q-58 0 -87 34t-14 103h50q-5 -26 13 -44.5t54 -18.5q39 0 70.5 18t38.5 45h54q-15 -66 -67 -101.5t-112 -35.5z" />
    <glyph glyph-name="ubreve" unicode="&#x16d;" horiz-adv-x="539" 
d="M387 -7l-90 32l-1 57l-9 3q-115 -92 -177 -92q-92 0 -59 134l65 262l-75 -33l-28 56l143 98l82 -15l13 -67l-65 -283q-10 -36 16 -36q14 0 46 24t57 55l65 283l58 29h83l-88 -391l79 34l24 -49zM319 547q-49 0 -74 44t-12 128h50q-4 -35 10.5 -61.5t41.5 -26.5
q34 0 60.5 25t33.5 63h54q-13 -81 -61 -126.5t-103 -45.5z" />
    <glyph glyph-name="Uring" unicode="&#x16e;" horiz-adv-x="735" 
d="M557 663h234l-12 -73l-67 -14l-38 -157l-36 -208q-7 -37 -29 -74.5t-58 -71t-93.5 -55t-125.5 -21.5q-137 0 -202 57.5t-47 156.5l66 373l-74 14l12 73h315l-12 -73l-81 -14l-63 -355q-10 -63 19.5 -104.5t100.5 -41.5t126.5 46t70.5 130l30 173l18 152l-66 14zM387 819
q0 43 30 73.5t73 30.5q44 0 74 -30.5t30 -73.5t-30.5 -73t-73.5 -30t-73 30t-30 73zM443 819q0 -21 12.5 -35.5t33.5 -14.5q22 0 35.5 14.5t13.5 35.5q0 22 -13.5 37t-35.5 15q-21 0 -33.5 -15t-12.5 -37z" />
    <glyph glyph-name="uring" unicode="&#x16f;" horiz-adv-x="539" 
d="M387 -7l-90 32l-1 57l-9 3q-115 -92 -177 -92q-92 0 -59 134l65 262l-75 -33l-28 56l143 98l82 -15l13 -67l-65 -283q-10 -36 16 -36q14 0 46 24t57 55l65 283l58 29h83l-88 -391l79 34l24 -49zM232 655q0 43 30 73.5t73 30.5t73.5 -30.5t30.5 -73.5t-30.5 -73t-73.5 -30
t-73 30t-30 73zM288 655q0 -21 12.5 -35.5t33.5 -14.5q22 0 35.5 14.5t13.5 35.5q0 22 -13.5 37t-35.5 15q-21 0 -33.5 -15t-12.5 -37z" />
    <glyph glyph-name="Uhungarumlaut" unicode="&#x170;" horiz-adv-x="735" 
d="M557 663h234l-12 -73l-67 -14l-38 -157l-36 -208q-7 -37 -29 -74.5t-58 -71t-93.5 -55t-125.5 -21.5q-137 0 -202 57.5t-47 156.5l66 373l-74 14l12 73h315l-12 -73l-81 -14l-63 -355q-10 -63 19.5 -104.5t100.5 -41.5t126.5 46t70.5 130l30 173l18 152l-66 14zM326 721
v18l86 119h124v-20l-139 -117h-71zM496 721v18l86 119h124v-20l-139 -117h-71z" />
    <glyph glyph-name="uhungarumlaut" unicode="&#x171;" horiz-adv-x="539" 
d="M387 -7l-90 32l-1 57l-9 3q-115 -92 -177 -92q-92 0 -59 134l65 262l-75 -33l-28 56l143 98l82 -15l13 -67l-65 -283q-10 -36 16 -36q14 0 46 24t57 55l65 283l58 29h83l-88 -391l79 34l24 -49zM356 557v18l96 154h124v-20l-154 -152h-66zM186 557v18l96 154h124v-20
l-154 -152h-66z" />
    <glyph glyph-name="Uogonek" unicode="&#x172;" horiz-adv-x="735" 
d="M557 663h234l-12 -73l-67 -14l-38 -157l-36 -208q-10 -55 -51.5 -108.5t-109.5 -83.5q-57 -42 -57 -105q0 -23 12 -37.5t28 -14.5q7 0 21 2v-42q-22 -5 -39 -5q-43 0 -75 20.5t-32 57.5q0 51 54 98q-36 -4 -57 -4q-137 0 -202 57.5t-47 156.5l66 373l-74 14l12 73h315
l-12 -73l-81 -14l-63 -355q-10 -63 19.5 -104.5t100.5 -41.5t126.5 46t70.5 130l30 173l18 152l-66 14z" />
    <glyph glyph-name="uogonek" unicode="&#x173;" horiz-adv-x="539" 
d="M526 94l-136 -98q-32 -36 -32 -83q0 -23 12 -37.5t28 -14.5q7 0 21 2v-42q-22 -5 -39 -5q-43 0 -75 20.5t-32 57.5q0 59 73 113l-49 18l-1 57l-9 3q-115 -92 -177 -92q-92 0 -59 134l65 262l-75 -33l-28 56l143 98l82 -15l13 -67l-65 -283q-10 -36 16 -36q14 0 46 24
t57 55l65 283l58 29h83l-88 -391l79 34z" />
    <glyph glyph-name="Wcircumflex" unicode="&#x174;" horiz-adv-x="970" 
d="M541 453h-16l-191 -453h-122l-75 576l-66 14l12 73h293l-12 -73l-73 -14l33 -348h12l184 439l142 2l41 -441h10l153 343l-83 23l12 69h244l-12 -69l-64 -27l-37 -75l-220 -492h-116zM735 739v-18h-37l-81 58l-127 -58h-45v18l163 119h58z" />
    <glyph glyph-name="wcircumflex" unicode="&#x175;" horiz-adv-x="747" 
d="M659 510h37q36 -34 36 -96q0 -86 -36.5 -171.5t-95.5 -146.5q-116 -103 -198 -103q-90 0 -83 90l-7 3q-97 -93 -173 -93q-85 0 -85 124q0 62 28.5 132.5t70.5 115.5l-7 25h-50l-43 -69l-44 21l40 127l48 31h168l32 -71q-54 -53 -79.5 -133.5t-25.5 -131.5
q0 -34 8.5 -45.5t32.5 -11.5q14 0 37.5 18.5t42.5 45.5q16 35 33.5 122t19.5 172l50 37l105 -13q-42 -134 -64 -280q-13 -100 18 -100q47 0 93 73t46 152q0 35 -11.5 54.5t-34.5 34.5v31zM579 575v-18h-37l-66 78l-102 -78h-45v18l143 154h58z" />
    <glyph glyph-name="Ycircumflex" unicode="&#x176;" horiz-adv-x="647" 
d="M401 381h12q37 79 95 155t114 120q33 25 72 1q30 -19 26 -42q-2 -12 -16 -19q-132 -72 -267 -306l-35 -203l79 -14l-12 -73h-320l12 73l82 14l37 209q-16 75 -59.5 155.5t-93.5 121.5l-58 4v53l128 42q39 -6 73.5 -35t59 -73.5t41.5 -89t30 -93.5zM577 735v-18h-37
l-81 58l-127 -58h-45v18l163 119h58z" />
    <glyph glyph-name="ycircumflex" unicode="&#x177;" horiz-adv-x="526" 
d="M143 510l87 -26l15 -44l-1 -295q0 -19 5.5 -27.5t13.5 -5.5q20 6 38 16q56 128 76 277l-27 58l107 47h54l17 -65q-38 -141 -85 -261.5t-101.5 -218t-118 -153t-127.5 -55.5q-34 0 -66.5 20.5t-48.5 49.5l54 94h31q21 -51 70 -51q35 0 76 44t68 118l-6 8
q-22 -17 -53.5 -29.5t-50.5 -12.5q-45 0 -50 96l-14 300l-64 -33l-30 56zM439 575v-18h-37l-66 78l-102 -78h-45v18l143 154h58z" />
    <glyph glyph-name="Ydieresis" unicode="&#x178;" horiz-adv-x="647" 
d="M401 381h12q37 79 95 155t114 120q33 25 72 1q30 -19 26 -42q-2 -12 -16 -19q-132 -72 -267 -306l-35 -203l79 -14l-12 -73h-320l12 73l82 14l37 209q-16 75 -59.5 155.5t-93.5 121.5l-58 4v53l128 42q39 -6 73.5 -35t59 -73.5t41.5 -89t30 -93.5zM605 795
q0 -27 -21 -47.5t-47 -20.5q-28 0 -49 20.5t-21 47.5q0 28 21 49t49 21q26 0 47 -21.5t21 -48.5zM425 795q0 -27 -20 -47.5t-49 -20.5q-27 0 -48 20.5t-21 47.5q0 28 21 49t48 21q29 0 49 -21t20 -49z" />
    <glyph glyph-name="Zacute" unicode="&#x179;" horiz-adv-x="633" 
d="M549 -5l-269 5h-282l-12 34l473 485l-4 14h-237l-59 -106h-58l53 240l168 -4h361l12 -21l-490 -500l2 -12h277l70 108h57zM355 721v18l86 119h124v-20l-139 -117h-71z" />
    <glyph glyph-name="zacute" unicode="&#x17a;" horiz-adv-x="440" 
d="M51 -8l-70 52l201 225l81 89l-3 9l-121 18l-32 -76l-49 8l25 151l80 42l200 -32l43 38l62 -53l-185 -205l-93 -95l5 -12l131 -30l52 85l45 -10l-36 -168l-71 -35l-217 54zM229 557v18l101 154h124v-20l-154 -152h-71z" />
    <glyph glyph-name="Zdotaccent" unicode="&#x17b;" horiz-adv-x="633" 
d="M549 -5l-269 5h-282l-12 34l473 485l-4 14h-237l-59 -106h-58l53 240l168 -4h361l12 -21l-490 -500l2 -12h277l70 108h57zM376 774q0 35 21.5 62t54.5 27q25 0 40 -19t15 -47q0 -35 -22.5 -60t-51.5 -25q-25 0 -41 18.5t-16 43.5z" />
    <glyph glyph-name="zdotaccent" unicode="&#x17c;" horiz-adv-x="440" 
d="M51 -8l-70 52l201 225l81 89l-3 9l-121 18l-32 -76l-49 8l25 151l80 42l200 -32l43 38l62 -53l-185 -205l-93 -95l5 -12l131 -30l52 85l45 -10l-36 -168l-71 -35l-217 54zM248 631q0 38 24 68t60 30q28 0 44 -21t16 -52q0 -38 -24.5 -65.5t-56.5 -27.5q-28 0 -45.5 20
t-17.5 48z" />
    <glyph glyph-name="Zcaron" unicode="&#x17d;" horiz-adv-x="633" 
d="M549 -5l-269 5h-282l-12 34l473 485l-4 14h-237l-59 -106h-58l53 240l168 -4h361l12 -21l-490 -500l2 -12h277l70 108h57zM326 840v18h37l76 -58l132 58h45v-18l-163 -119h-58z" />
    <glyph glyph-name="zcaron" unicode="&#x17e;" horiz-adv-x="440" 
d="M51 -8l-70 52l201 225l81 89l-3 9l-121 18l-32 -76l-49 8l25 151l80 42l200 -32l43 38l62 -53l-185 -205l-93 -95l5 -12l131 -30l52 85l45 -10l-36 -168l-71 -35l-217 54zM214 711v18h37l63 -78l105 78h45v-18l-143 -154h-58z" />
    <glyph glyph-name="florin" unicode="&#x192;" horiz-adv-x="540" 
d="M74 309l14 49h94l25 100q17 70 76.5 125t146.5 55q59 0 97 -27t38 -66q0 -20 -11.5 -33.5t-33.5 -13.5q-21 0 -34 14.5t-18 31.5t-15.5 31.5t-26.5 14.5q-32 0 -51 -34t-39 -105l-26 -93h120l-14 -49h-117l-88 -327q-23 -84 -75.5 -136.5t-119.5 -52.5q-45 0 -76.5 19.5
t-31.5 49.5q0 19 10 32t27 13q14 0 25 -10.5t17 -23.5t15.5 -23.5t20.5 -10.5q32 0 64 130l86 340h-99z" />
    <glyph glyph-name="Scommaaccent" unicode="&#x218;" horiz-adv-x="543" 
d="M21 37l18 175h64q12 -126 130 -126q44 0 76.5 26t32.5 70q0 27 -19 49t-48 36.5t-62.5 33.5t-62.5 39t-48 54t-19 77q0 63 43.5 111t103.5 70t121 22q128 0 182 -40l-20 -170h-63q-7 59 -36 89t-71 30q-45 0 -73 -23.5t-28 -60.5q0 -32 27.5 -56t66 -41.5t77.5 -38.5
t66.5 -59.5t27.5 -92.5q0 -90 -83.5 -156t-217.5 -66q-49 0 -107 14t-78 34zM161 -269l-51 34l48 85l23 99l89 -36l-42 -92z" />
    <glyph glyph-name="scommaaccent" unicode="&#x219;" horiz-adv-x="370" 
d="M0 49v30l40 84h20q44 -58 113 -58q47 0 47 32q0 6 -1.5 11t-5.5 9.5t-7 8t-11 8.5t-13 8t-17 10t-19 11q-47 26 -68 56t-21 71q0 52 70 118.5t111 66.5t78 -15t54 -37v-25l-42 -86h-21q-48 47 -100 47q-44 0 -44 -29q0 -4 2 -8.5t6 -9t8 -8t11.5 -9t13 -9t15.5 -10
t16 -10.5q51 -31 73.5 -60.5t22.5 -71.5q0 -56 -69.5 -118.5t-134.5 -62.5q-82 0 -127 56zM70 -254l-51 34l48 85l23 99l89 -36l-42 -92z" />
    <glyph glyph-name="schwa" unicode="&#x259;" horiz-adv-x="429" 
d="M42 95q0 47 19 84.5t56 65t80.5 47.5t102.5 38v16q0 41 -12.5 57t-39.5 16q-71 0 -156 -77l-42 43q48 55 114.5 92.5t132.5 37.5q65 0 103.5 -36t38.5 -102q0 -102 -38.5 -191t-100.5 -128q-95 -65 -152 -65q-106 0 -106 102zM204 96q32 1 56 45t34 117
q-125 -41 -125 -128q0 -34 35 -34z" />
    <glyph glyph-name="quoteleft" unicode="&#x2bb;" horiz-adv-x="381" 
d="M311 732l60 -39l-88 -166l-36 -140l-135 58l70 124z" />
    <glyph glyph-name="quoteleft" unicode="&#x2018;" horiz-adv-x="381" 
d="M311 732l60 -39l-88 -166l-36 -140l-135 58l70 124z" />
    <glyph glyph-name="circumflex" unicode="&#x2c6;" horiz-adv-x="500" 
d="M374 516v-18h-37l-66 78l-102 -78h-45v18l143 154h58z" />
    <glyph glyph-name="caron" unicode="&#x2c7;" horiz-adv-x="500" 
d="M170 652v18h37l63 -78l105 78h45v-18l-143 -154h-58z" />
    <glyph glyph-name="breve" unicode="&#x2d8;" horiz-adv-x="500" 
d="M243 488q-49 0 -74 44t-12 128h50q-4 -35 10.5 -61.5t41.5 -26.5q34 0 60.5 25t33.5 63h54q-13 -81 -61 -126.5t-103 -45.5z" />
    <glyph glyph-name="dotaccent" unicode="&#x2d9;" horiz-adv-x="500" 
d="M204 572q0 38 24 68t60 30q28 0 44 -21t16 -52q0 -38 -24.5 -65.5t-56.5 -27.5q-28 0 -45.5 20t-17.5 48z" />
    <glyph glyph-name="ring" unicode="&#x2da;" horiz-adv-x="500" 
d="M156 596q0 43 30 73.5t73 30.5t73.5 -30t30.5 -74q0 -43 -30.5 -73t-73.5 -30t-73 30t-30 73zM212 596q0 -21 12.5 -35.5t33.5 -14.5q22 0 35.5 14.5t13.5 35.5q0 22 -13.5 37t-35.5 15q-21 0 -33.5 -15t-12.5 -37z" />
    <glyph glyph-name="ogonek" unicode="&#x2db;" horiz-adv-x="500" 
d="M291 24v-6q-80 -48 -80 -120q0 -23 12 -37.5t28 -14.5q7 0 21 2v-42q-22 -5 -39 -5q-43 0 -75 20.5t-32 57.5q0 46 42.5 87.5t103.5 67.5z" />
    <glyph glyph-name="tilde" unicode="&#x2dc;" horiz-adv-x="500" 
d="M377 650l36 -10q-14 -54 -42.5 -95.5t-54.5 -41.5q-16 0 -71 30t-71 30q-14 0 -24.5 -15.5t-23.5 -47.5l-39 12q11 45 41 91.5t48 46.5q21 0 72.5 -30.5t71.5 -30.5q16 0 33.5 20t23.5 41z" />
    <glyph glyph-name="hungarumlaut" unicode="&#x2dd;" horiz-adv-x="500" 
d="M280 498v18l96 154h124v-20l-154 -152h-66zM110 498v18l96 154h124v-20l-154 -152h-66z" />
    <glyph glyph-name="Delta" unicode="&#x394;" horiz-adv-x="540" 
d="M530 0h-520l223 631h45zM224 457l-137 -402h293z" />
    <glyph glyph-name="Delta" unicode="&#x2206;" horiz-adv-x="540" 
d="M530 0h-520l223 631h45zM224 457l-137 -402h293z" />
    <glyph glyph-name="Omega" unicode="&#x3a9;" horiz-adv-x="540" 
d="M273 578q-57 0 -87.5 -66.5t-30.5 -148.5q0 -133 29 -228t70 -112l-6 -23h-233l-30 156h29l53 -94h64l6 10q-48 48 -79.5 124t-31.5 156q0 114 69.5 200t178.5 86t178.5 -86t69.5 -200q0 -80 -31.5 -156t-79.5 -124l6 -10h64l53 94h29l-30 -156h-233l-6 23q41 17 70 112
t29 228q0 82 -31 148.5t-89 66.5z" />
    <glyph glyph-name="Omega" unicode="&#x2126;" horiz-adv-x="540" 
d="M273 578q-57 0 -87.5 -66.5t-30.5 -148.5q0 -133 29 -228t70 -112l-6 -23h-233l-30 156h29l53 -94h64l6 10q-48 48 -79.5 124t-31.5 156q0 114 69.5 200t178.5 86t178.5 -86t69.5 -200q0 -80 -31.5 -156t-79.5 -124l6 -10h64l53 94h29l-30 -156h-233l-6 23q41 17 70 112
t29 228q0 82 -31 148.5t-89 66.5z" />
    <glyph glyph-name="lambda" unicode="&#x3bb;" horiz-adv-x="524" 
d="M259 608l115 -454q16 -62 24 -79.5t23 -17.5q12 0 27 27t32 27q18 0 28.5 -13.5t10.5 -33.5q0 -32 -26.5 -52.5t-63.5 -20.5q-86 0 -115 111l-50 204l-141 -306h-125l223 481l-29 121q-18 74 -58 74q-16 0 -41 -35t-43 -35q-41 0 -41 44q0 33 32.5 58.5t83.5 25.5
q54 0 87.5 -35.5t46.5 -90.5z" />
    <glyph glyph-name="pi" unicode="&#x3c0;" horiz-adv-x="540" 
d="M172 22q-32 -44 -78 -33q-33 8 -38 34q-5 23 22 44q64 48 89 115.5t25 179.5h-31q-35 0 -53 -13t-27 -48l-27 5q15 73 37.5 103t62.5 30h332v-77h-91l-21 -229q-3 -51 27 -51q34 0 55 62l30 -3q-13 -78 -43 -113t-69 -35q-48 0 -70.5 29t-17.5 79l27 261h-69
q-5 -227 -72 -340z" />
    <glyph glyph-name="Wgrave" unicode="&#x1e80;" horiz-adv-x="970" 
d="M541 453h-16l-191 -453h-122l-75 576l-66 14l12 73h293l-12 -73l-73 -14l33 -348h12l184 439l142 2l41 -441h10l153 343l-83 23l12 69h244l-12 -69l-64 -27l-37 -75l-220 -492h-116zM646 739v-18h-71l-109 117v20h124z" />
    <glyph glyph-name="wgrave" unicode="&#x1e81;" horiz-adv-x="747" 
d="M659 510h37q36 -34 36 -96q0 -86 -36.5 -171.5t-95.5 -146.5q-116 -103 -198 -103q-90 0 -83 90l-7 3q-97 -93 -173 -93q-85 0 -85 124q0 62 28.5 132.5t70.5 115.5l-7 25h-50l-43 -69l-44 21l40 127l48 31h168l32 -71q-54 -53 -79.5 -133.5t-25.5 -131.5
q0 -34 8.5 -45.5t32.5 -11.5q14 0 37.5 18.5t42.5 45.5q16 35 33.5 122t19.5 172l50 37l105 -13q-42 -134 -64 -280q-13 -100 18 -100q47 0 93 73t46 152q0 35 -11.5 54.5t-34.5 34.5v31zM500 575v-18h-71l-139 152v20h124z" />
    <glyph glyph-name="Wacute" unicode="&#x1e82;" horiz-adv-x="970" 
d="M541 453h-16l-191 -453h-122l-75 576l-66 14l12 73h293l-12 -73l-73 -14l33 -348h12l184 439l142 2l41 -441h10l153 343l-83 23l12 69h244l-12 -69l-64 -27l-37 -75l-220 -492h-116zM526 721v18l86 119h124v-20l-139 -117h-71z" />
    <glyph glyph-name="wacute" unicode="&#x1e83;" horiz-adv-x="747" 
d="M659 510h37q36 -34 36 -96q0 -86 -36.5 -171.5t-95.5 -146.5q-116 -103 -198 -103q-90 0 -83 90l-7 3q-97 -93 -173 -93q-85 0 -85 124q0 62 28.5 132.5t70.5 115.5l-7 25h-50l-43 -69l-44 21l40 127l48 31h168l32 -71q-54 -53 -79.5 -133.5t-25.5 -131.5
q0 -34 8.5 -45.5t32.5 -11.5q14 0 37.5 18.5t42.5 45.5q16 35 33.5 122t19.5 172l50 37l105 -13q-42 -134 -64 -280q-13 -100 18 -100q47 0 93 73t46 152q0 35 -11.5 54.5t-34.5 34.5v31zM390 557v18l101 154h124v-20l-154 -152h-71z" />
    <glyph glyph-name="Wdieresis" unicode="&#x1e84;" horiz-adv-x="970" 
d="M541 453h-16l-191 -453h-122l-75 576l-66 14l12 73h293l-12 -73l-73 -14l33 -348h12l184 439l142 2l41 -441h10l153 343l-83 23l12 69h244l-12 -69l-64 -27l-37 -75l-220 -492h-116zM763 799q0 -27 -21 -47.5t-47 -20.5q-28 0 -49 20.5t-21 47.5q0 28 21 49t49 21
q26 0 47 -21.5t21 -48.5zM583 799q0 -27 -20 -47.5t-49 -20.5q-27 0 -48 20.5t-21 47.5q0 28 21 49t48 21q29 0 49 -21t20 -49z" />
    <glyph glyph-name="wdieresis" unicode="&#x1e85;" horiz-adv-x="747" 
d="M659 510h37q36 -34 36 -96q0 -86 -36.5 -171.5t-95.5 -146.5q-116 -103 -198 -103q-90 0 -83 90l-7 3q-97 -93 -173 -93q-85 0 -85 124q0 62 28.5 132.5t70.5 115.5l-7 25h-50l-43 -69l-44 21l40 127l48 31h168l32 -71q-54 -53 -79.5 -133.5t-25.5 -131.5
q0 -34 8.5 -45.5t32.5 -11.5q14 0 37.5 18.5t42.5 45.5q16 35 33.5 122t19.5 172l50 37l105 -13q-42 -134 -64 -280q-13 -100 18 -100q47 0 93 73t46 152q0 35 -11.5 54.5t-34.5 34.5v31zM627 635q0 -27 -21 -47.5t-47 -20.5q-28 0 -49 20.5t-21 47.5q0 28 21 49t49 21
q26 0 47 -21.5t21 -48.5zM447 635q0 -27 -20 -47.5t-49 -20.5q-27 0 -48 20.5t-21 47.5q0 28 21 49t48 21q29 0 49 -21t20 -49z" />
    <glyph glyph-name="uni1e9e" unicode="&#x1e9e;" horiz-adv-x="735" 
d="M465 -12q-88 0 -148 35l17 163h63q4 -55 22.5 -80t56.5 -25q31 0 61 30.5t30 94.5q0 49 -20 78.5t-61 29.5q-43 0 -88 -39l-67 95l178 200l-3 12h-189l-87 -494l57 -16l-12 -72h-294l13 74l76 14l86 488l-72 13l13 74h627v-51l-188 -201l5 -11q19 3 38 3q68 0 108 -47
t40 -127q0 -63 -26 -112t-67 -76t-84 -40t-85 -13z" />
    <glyph glyph-name="Ygrave" unicode="&#x1ef2;" horiz-adv-x="647" 
d="M401 381h12q37 79 95 155t114 120q33 25 72 1q30 -19 26 -42q-2 -12 -16 -19q-132 -72 -267 -306l-35 -203l79 -14l-12 -73h-320l12 73l82 14l37 209q-16 75 -59.5 155.5t-93.5 121.5l-58 4v53l128 42q39 -6 73.5 -35t59 -73.5t41.5 -89t30 -93.5zM488 735v-18h-71
l-109 117v20h124z" />
    <glyph glyph-name="ygrave" unicode="&#x1ef3;" horiz-adv-x="526" 
d="M143 510l87 -26l15 -44l-1 -295q0 -19 5.5 -27.5t13.5 -5.5q20 6 38 16q56 128 76 277l-27 58l107 47h54l17 -65q-38 -141 -85 -261.5t-101.5 -218t-118 -153t-127.5 -55.5q-34 0 -66.5 20.5t-48.5 49.5l54 94h31q21 -51 70 -51q35 0 76 44t68 118l-6 8
q-22 -17 -53.5 -29.5t-50.5 -12.5q-45 0 -50 96l-14 300l-64 -33l-30 56zM360 575v-18h-71l-139 152v20h124z" />
    <glyph glyph-name="uni2011" unicode="&#x2011;" horiz-adv-x="335" 
d="M67 319l59 -2h105l77 2l-20 -108l-56 3h-121l-63 -3z" />
    <glyph glyph-name="endash" unicode="&#x2013;" horiz-adv-x="484" 
d="M60 315h384v-99h-384v99z" />
    <glyph glyph-name="emdash" unicode="&#x2014;" horiz-adv-x="1020" 
d="M129 310h783v-89h-783v89z" />
    <glyph glyph-name="quoteright" unicode="&#x2019;" horiz-adv-x="381" 
d="M178 381l-60 39l88 166l36 140l135 -58l-70 -124z" />
    <glyph glyph-name="quotesinglbase" unicode="&#x201a;" horiz-adv-x="381" 
d="M82 -208l-60 39l88 166l36 140l135 -58l-70 -124z" />
    <glyph glyph-name="quotedblleft" unicode="&#x201c;" horiz-adv-x="581" 
d="M311 732l60 -39l-88 -166l-36 -140l-135 58l70 124zM511 732l60 -39l-88 -166l-36 -140l-135 58l70 124z" />
    <glyph glyph-name="quotedblright" unicode="&#x201d;" horiz-adv-x="581" 
d="M378 381l-60 39l88 166l36 140l135 -58l-70 -124zM178 381l-60 39l88 166l36 140l135 -58l-70 -124z" />
    <glyph glyph-name="quotedblbase" unicode="&#x201e;" horiz-adv-x="581" 
d="M282 -208l-60 39l88 166l36 140l135 -58l-70 -124zM82 -208l-60 39l88 166l36 140l135 -58l-70 -124z" />
    <glyph glyph-name="dagger" unicode="&#x2020;" horiz-adv-x="548" 
d="M442 713l-53 -202l165 25l-25 -120l-161 15l-123 -467h-58l74 466l-166 -17l26 120l153 -22l32 202h136z" />
    <glyph glyph-name="daggerdbl" unicode="&#x2021;" horiz-adv-x="548" 
d="M442 713l-53 -202l165 25l-25 -120l-161 15l-38 -146l177 27l-25 -119l-173 15l-64 -244h-58l38 243l-177 -17l25 119l165 -24l23 145l-166 -17l26 120l153 -22l32 202h136z" />
    <glyph glyph-name="bullet" unicode="&#x2022;" horiz-adv-x="572" 
d="M150 264q0 56 40 96t96 40t96 -40t40 -96t-40 -96t-96 -40t-96 40t-40 96z" />
    <glyph glyph-name="ellipsis" unicode="&#x2026;" horiz-adv-x="993" 
d="M89 75q0 35 23.5 59t57.5 24q35 0 58.5 -24t23.5 -59t-23.5 -58.5t-58.5 -23.5q-34 0 -57.5 23.5t-23.5 58.5zM399 75q0 35 23.5 59t57.5 24q35 0 58.5 -24t23.5 -59t-23.5 -58.5t-58.5 -23.5q-34 0 -57.5 23.5t-23.5 58.5zM709 75q0 35 23.5 59t57.5 24q35 0 58.5 -24
t23.5 -59t-23.5 -58.5t-58.5 -23.5q-34 0 -57.5 23.5t-23.5 58.5z" />
    <glyph glyph-name="perthousand" unicode="&#x2030;" horiz-adv-x="828" 
d="M551 115q0 74 47 129t101 55q46 0 75 -32t29 -86q0 -86 -44 -139.5t-98 -53.5q-49 0 -79.5 36t-30.5 91zM722 227q-28 0 -52.5 -44.5t-24.5 -96.5q0 -24 9.5 -37t25.5 -13q28 0 52 35.5t24 102.5q0 25 -9.5 39t-24.5 14zM286 518l-3 -2q0 -81 -43.5 -135t-100.5 -54
q-48 0 -78 36t-30 91q0 74 47 129t101 55q68 0 92 -60q6 -15 25 -24.5t42 -9.5q50 0 88 31q31 57 75 57q9 0 16.5 -7t7.5 -19q0 -29 -44 -58l-210 -286l-194 -285l-54 35l203 269l159 227l-3 3q-23 -13 -47 -13q-29 0 -49 20zM276 115q0 74 47 129t101 55q46 0 75 -32
t29 -86q0 -86 -44 -139.5t-98 -53.5q-49 0 -79.5 36t-30.5 91zM447 227q-28 0 -52.5 -44.5t-24.5 -96.5q0 -24 9.5 -37t25.5 -13q28 0 52 35.5t24 102.5q0 25 -9.5 39t-24.5 14zM202 563q-28 0 -52.5 -44.5t-24.5 -96.5q0 -50 36 -50q27 0 51 39.5t24 98.5q0 25 -9.5 39
t-24.5 14z" />
    <glyph glyph-name="uni2032" unicode="&#x2032;" horiz-adv-x="290" 
d="M130 379l71 269l122 -43l-116 -253z" />
    <glyph glyph-name="uni2033" unicode="&#x2033;" horiz-adv-x="480" 
d="M130 379l71 269l122 -43l-116 -253zM320 379l71 269l122 -43l-116 -253z" />
    <glyph glyph-name="guilsinglleft" unicode="&#x2039;" horiz-adv-x="445" 
d="M96 245l242 217l54 -49l-179 -188l-2 -12q20 -28 58.5 -84t52.5 -76l-70 -53l-161 219z" />
    <glyph glyph-name="guilsinglright" unicode="&#x203a;" horiz-adv-x="445" 
d="M369 217l-242 -217l-54 49l179 188l2 12q-20 28 -58.5 84t-52.5 76l70 53l161 -219z" />
    <glyph glyph-name="uni2042" unicode="&#x2042;" horiz-adv-x="896" 
d="M584 473l-123 44l51 -111q18 -41 -19 -59q-32 -15 -59 3q-17 10 -17 30l-8 132l-101 -87q-29 -23 -52 4q-21 26 -9 56q9 23 37 31l104 33l-100 82q-29 24 -12 55q15 27 44 24q22 -2 38 -25l67 -104l52 109q16 37 56 30q32 -7 41 -32q9 -22 -12 -42l-95 -86l117 4
q37 2 45 -33q7 -32 -13 -52q-13 -13 -32 -6zM385 98l-123 44l51 -111q18 -41 -19 -59q-32 -15 -59 3q-17 10 -17 30l-8 132l-101 -87q-29 -23 -52 4q-21 26 -9 56q9 23 37 31l104 33l-100 82q-29 24 -12 55q15 27 44 24q22 -2 38 -25l67 -104l52 109q16 37 56 30
q32 -7 41 -32q9 -22 -12 -42l-95 -86l117 4q37 2 45 -33q7 -32 -13 -52q-13 -13 -32 -6zM806 98l-123 44l51 -111q18 -41 -19 -59q-32 -15 -59 3q-17 10 -17 30l-8 132l-101 -87q-29 -23 -52 4q-21 26 -9 56q9 23 37 31l104 33l-100 82q-29 24 -12 55q15 27 44 24
q22 -2 38 -25l67 -104l52 109q16 37 56 30q32 -7 41 -32q9 -22 -12 -42l-95 -86l117 4q37 2 45 -33q7 -32 -13 -52q-13 -13 -32 -6z" />
    <glyph glyph-name="fraction" unicode="&#x2044;" 
d="M41 -16l320 370l298 353l49 -44l-308 -349l-310 -375z" />
    <glyph glyph-name="zero.sups" unicode="&#x2070;" horiz-adv-x="333" 
d="M238 409q-131 0 -131 135q0 95 59 159.5t131 64.5q58 0 91 -34.5t33 -101.5q0 -94 -53 -158.5t-130 -64.5zM292 716q-26 0 -46 -35t-28.5 -76.5t-8.5 -74.5q0 -70 37 -70q30 0 52.5 59t22.5 125q0 72 -29 72z" />
    <glyph glyph-name="four.sups" unicode="&#x2074;" horiz-adv-x="322" 
d="M235 466l10 54h-129l-12 30q38 54 100.5 115.5t118.5 103.5l62 -11l-17 -83q-3 -16 -10 -52t-10 -55h58l-9 -47h-57l-10 -55q9 -1 26.5 -4t23.5 -4l-6 -42h-195l6 42zM187 568h66l17 90q-62 -53 -86 -87l2 1q0 -3 1 -4z" />
    <glyph glyph-name="five.sups" unicode="&#x2075;" horiz-adv-x="285" 
d="M183 409q-37 0 -73 16l-18 9l1 88h57q4 -22 7 -32t14 -20.5t30 -10.5q23 0 44.5 23t21.5 60q0 45 -28 45q-30 0 -67 -27l-49 19l55 182h128l84 7l-23 -81l-63 3h-84l-19 -63q32 10 58 10q46 0 77.5 -22t31.5 -61q0 -30 -17.5 -59t-44.5 -46q-65 -40 -123 -40z" />
    <glyph glyph-name="six.sups" unicode="&#x2076;" horiz-adv-x="304" 
d="M405 741q-72 -26 -109 -51.5t-62 -66.5q33 14 57 14q37 0 66.5 -21.5t30.5 -63.5q0 -64 -40 -93q-73 -50 -129 -50q-55 0 -86.5 26t-31.5 76q0 94 83 169t218 108zM259 586q-26 0 -53 -27l2 1q0 -2 -1 -6t-1 -5q-6 -24 -5 -34q1 -25 11.5 -39.5t26.5 -14.5q22 0 35 22
t12 54q-1 49 -27 49z" />
    <glyph glyph-name="seven.sups" unicode="&#x2077;" horiz-adv-x="268" 
d="M387 761l8 -53q-124 -137 -163 -271q-10 -25 -66 -25q-14 0 -21.5 0.5t-15.5 3.5t-7.5 8t2.5 14q70 152 173 242q-3 3 -3 6h-95q-10 0 -30 -40h-51l39 118l73 -3h157z" />
    <glyph glyph-name="eight.sups" unicode="&#x2078;" horiz-adv-x="303" 
d="M98 494q0 54 81 93l-5 -2v5q-34 26 -34 64q0 47 40 80.5t102 33.5q50 0 80 -21t31 -56q0 -47 -68 -82q0 -1 -0.5 -2t-0.5 -2q56 -31 57 -77q0 -45 -43.5 -82t-118.5 -37q-50 0 -85 23t-36 62zM282 509q0 34 -64 58q-37 -30 -37 -67q0 -45 48 -45q22 0 37.5 15.5
t15.5 38.5zM272 721q-18 0 -27.5 -11t-9.5 -29q0 -31 43 -52q27 23 27 56q0 36 -33 36z" />
    <glyph glyph-name="nine.sups" unicode="&#x2079;" horiz-adv-x="304" 
d="M97 439q72 25 108.5 49t63.5 63q-31 -13 -59 -13q-39 0 -68.5 21.5t-29.5 65.5q0 60 40 90q64 53 129 53q54 0 86.5 -27t32.5 -76q0 -52 -33 -109t-83 -91q-64 -40 -187 -70v44zM242 588q26 0 51 23l-3 -1q7 20 7 48q0 27 -10 43.5t-25 16.5q-21 0 -34.5 -22.5
t-13.5 -56.5q0 -51 28 -51z" />
    <glyph glyph-name="Euro" unicode="&#x20ac;" horiz-adv-x="652" 
d="M84 394h60q42 112 131 178t192 66q106 0 181 -63l-52 -126h-39q6 34 -1 58.5t-23 37t-33 18t-35 5.5q-54 0 -100 -43.5t-73 -130.5h279l-19 -51h-273l-6 -30l-3 -19h263l-19 -51h-250q-6 -94 25.5 -137.5t84.5 -43.5q90 0 144 110l55 -23q-81 -161 -233 -161
q-103 0 -166 67.5t-60 187.5h-67l19 51h53l3 18l6 31h-63z" />
    <glyph glyph-name="uni2117" unicode="&#x2117;" horiz-adv-x="703" 
d="M358 261v26q28 0 44.5 21t16.5 58q0 61 -55 61h-28v-264l47 -7v-28h-154v28l39 7v264l-39 7v29h145q64 0 90 -23.5t26 -68.5q0 -48 -38.5 -79t-93.5 -31zM44 296q0 126 90.5 216.5t217.5 90.5q131 0 219 -89.5t88 -217.5q0 -127 -90.5 -217.5t-216.5 -90.5
q-129 0 -218.5 87t-89.5 221zM103 294q0 -110 70 -183t180 -73t178.5 72.5t68.5 183.5q0 114 -70.5 187.5t-177.5 73.5q-109 0 -179 -74.5t-70 -186.5z" />
    <glyph glyph-name="trademark" unicode="&#x2122;" horiz-adv-x="670" 
d="M618 634h-7l-109 -179h-17l-43 179h-5l-41 -150l32 -6l-4 -23h-92l4 23l34 6l53 193l-37 6l4 23h94l33 -165h7l100 165h92l-4 -23l-36 -6l-22 -193l30 -6l-4 -23h-118l4 23l35 6zM151 706h210l1 -74h-20l-24 47h-38l-34 -195l31 -6l-4 -23h-121l4 23l33 6l34 195h-37
l-40 -47h-21z" />
    <glyph glyph-name="oneseventh" unicode="&#x2150;" 
d="M41 -16l320 370l298 353l49 -44l-308 -349l-310 -375zM104 596l-3 46q89 27 124 53l61 -6l-53 -295q9 -1 30.5 -4.5t30.5 -4.5l-7 -42h-225l6 42l64 9l39 214q-9 -2 -27.5 -6t-23.5 -5q-1 0 -8 -0.5t-8 -0.5zM700 327l8 -53q-124 -137 -163 -271q-10 -25 -66 -25
q-14 0 -21.5 0.5t-15.5 3.5t-7.5 8t2.5 14q70 152 173 242q-3 3 -3 6h-95q-10 0 -30 -40h-51l39 118l73 -3h157z" />
    <glyph glyph-name="oneninth" unicode="&#x2151;" 
d="M41 -16l320 370l298 353l49 -44l-308 -349l-310 -375zM104 596l-3 46q89 27 124 53l61 -6l-53 -295q9 -1 30.5 -4.5t30.5 -4.5l-7 -42h-225l6 42l64 9l39 214q-9 -2 -27.5 -6t-23.5 -5q-1 0 -8 -0.5t-8 -0.5zM410 5q72 25 108.5 49t63.5 63q-31 -13 -59 -13
q-39 0 -68.5 21.5t-29.5 65.5q0 60 40 90q64 53 129 53q54 0 86.5 -27t32.5 -76q0 -52 -33 -109t-83 -91q-64 -40 -187 -70v44zM555 154q26 0 51 23l-3 -1q7 20 7 48q0 27 -10 43.5t-25 16.5q-21 0 -34.5 -22.5t-13.5 -56.5q0 -51 28 -51z" />
    <glyph glyph-name="onethird" unicode="&#x2153;" 
d="M41 -16l320 370l298 353l49 -44l-308 -349l-310 -375zM104 596l-3 46q89 27 124 53l61 -6l-53 -295q9 -1 30.5 -4.5t30.5 -4.5l-7 -42h-225l6 42l64 9l39 214q-9 -2 -27.5 -6t-23.5 -5q-1 0 -8 -0.5t-8 -0.5zM526 20q17 0 32.5 16.5t15.5 47.5q-1 25 -13 38t-24 14
l-54 -12l-7 44q116 26 116 83q0 29 -31 29q-11 0 -19 -4t-14 -14.5t-8 -15t-7 -18.5h-62l27 73q23 13 61 23t60 10q46 0 73.5 -20t27.5 -51q0 -26 -20 -45t-61 -42l1 -2v-3q24 -12 42 -34.5t18 -46.5q0 -48 -50 -81.5t-111 -33.5q-67 0 -110 25l-6 91h59q5 -20 10.5 -33
t19.5 -25.5t34 -12.5z" />
    <glyph glyph-name="twothirds" unicode="&#x2154;" 
d="M41 -16l320 370l298 353l49 -44l-308 -349l-310 -375zM192 635q-55 0 -67 -65h-63l29 80q21 18 58.5 31.5t57.5 13.5q52 0 86 -25.5t34 -66.5q0 -26 -30 -61.5t-60.5 -60t-82.5 -62.5q1 1 -2 -1t-8 -6v-2.5t1 -2.5q25 2 76.5 6.5t75.5 5.5l-14 -76h-262v41
q113 87 155.5 132t42.5 85q0 16 -8 25t-19 9zM526 20q17 0 32.5 16.5t15.5 47.5q-1 25 -13 38t-24 14l-54 -12l-7 44q116 26 116 83q0 29 -31 29q-11 0 -19 -4t-14 -14.5t-8 -15t-7 -18.5h-62l27 73q23 13 61 23t60 10q46 0 73.5 -20t27.5 -51q0 -26 -20 -45t-61 -42l1 -2
v-3q24 -12 42 -34.5t18 -46.5q0 -48 -50 -81.5t-111 -33.5q-67 0 -110 25l-6 91h59q5 -20 10.5 -33t19.5 -25.5t34 -12.5z" />
    <glyph glyph-name="onefifth" unicode="&#x2155;" 
d="M41 -16l320 370l298 353l49 -44l-308 -349l-310 -375zM104 596l-3 46q89 27 124 53l61 -6l-53 -295q9 -1 30.5 -4.5t30.5 -4.5l-7 -42h-225l6 42l64 9l39 214q-9 -2 -27.5 -6t-23.5 -5q-1 0 -8 -0.5t-8 -0.5zM496 -25q-37 0 -73 16l-18 9l1 88h57q4 -22 7 -32.5t14 -20.5
t30 -10q23 0 44.5 23t21.5 60q0 45 -28 45q-30 0 -67 -27l-49 19l55 182h128l84 7l-23 -81l-63 3h-84l-19 -63q32 10 58 10q46 0 77.5 -22t31.5 -61q0 -30 -17.5 -59t-44.5 -46q-65 -40 -123 -40z" />
    <glyph glyph-name="twofifths" unicode="&#x2156;" 
d="M41 -16l320 370l298 353l49 -44l-308 -349l-310 -375zM192 635q-55 0 -67 -65h-63l29 80q21 18 58.5 31.5t57.5 13.5q52 0 86 -25.5t34 -66.5q0 -26 -30 -61.5t-60.5 -60t-82.5 -62.5q1 1 -2 -1t-8 -6v-2.5t1 -2.5q25 2 76.5 6.5t75.5 5.5l-14 -76h-262v41
q113 87 155.5 132t42.5 85q0 16 -8 25t-19 9zM496 -25q-37 0 -73 16l-18 9l1 88h57q4 -22 7 -32.5t14 -20.5t30 -10q23 0 44.5 23t21.5 60q0 45 -28 45q-30 0 -67 -27l-49 19l55 182h128l84 7l-23 -81l-63 3h-84l-19 -63q32 10 58 10q46 0 77.5 -22t31.5 -61
q0 -30 -17.5 -59t-44.5 -46q-65 -40 -123 -40z" />
    <glyph glyph-name="threefifths" unicode="&#x2157;" 
d="M41 -16l320 370l298 353l49 -44l-308 -349l-310 -375zM173 381q17 0 32.5 16.5t15.5 47.5q-1 25 -13 38t-24 14l-54 -12l-7 44q116 26 116 83q0 29 -31 29q-11 0 -19 -4t-14 -14.5t-8 -15t-7 -18.5h-62l27 73q23 13 61 23t60 10q46 0 73.5 -20t27.5 -51q0 -26 -20 -45
t-61 -42q0 -1 0.5 -3l0.5 -2q24 -12 42 -34.5t18 -46.5q0 -48 -50 -81.5t-111 -33.5q-67 0 -110 25l-6 91h59q5 -20 10.5 -33t19.5 -25.5t34 -12.5zM496 -25q-37 0 -73 16l-18 9l1 88h57q4 -22 7 -32.5t14 -20.5t30 -10q23 0 44.5 23t21.5 60q0 45 -28 45q-30 0 -67 -27
l-49 19l55 182h128l84 7l-23 -81l-63 3h-84l-19 -63q32 10 58 10q46 0 77.5 -22t31.5 -61q0 -30 -17.5 -59t-44.5 -46q-65 -40 -123 -40z" />
    <glyph glyph-name="fourfifths" unicode="&#x2158;" 
d="M41 -16l320 370l298 353l49 -44l-308 -349l-310 -375zM140 393l10 54h-129l-12 30q38 54 100.5 115.5t118.5 103.5l62 -11l-17 -83q-3 -16 -10 -52t-10 -55h58l-9 -47h-57l-10 -55q9 -1 26.5 -4t23.5 -4l-6 -42h-195l6 42zM92 495h66l17 90q-62 -53 -86 -87l2 1
q0 -3 1 -4zM496 -25q-37 0 -73 16l-18 9l1 88h57q4 -22 7 -32.5t14 -20.5t30 -10q23 0 44.5 23t21.5 60q0 45 -28 45q-30 0 -67 -27l-49 19l55 182h128l84 7l-23 -81l-63 3h-84l-19 -63q32 10 58 10q46 0 77.5 -22t31.5 -61q0 -30 -17.5 -59t-44.5 -46q-65 -40 -123 -40z
" />
    <glyph glyph-name="onesixth" unicode="&#x2159;" 
d="M41 -16l320 370l298 353l49 -44l-308 -349l-310 -375zM104 596l-3 46q89 27 124 53l61 -6l-53 -295q9 -1 30.5 -4.5t30.5 -4.5l-7 -42h-225l6 42l64 9l39 214q-9 -2 -27.5 -6t-23.5 -5q-1 0 -8 -0.5t-8 -0.5zM698 307q-72 -26 -109 -51.5t-62 -66.5q33 14 57 14
q37 0 66.5 -21.5t30.5 -63.5q0 -64 -40 -93q-73 -50 -129 -50q-55 0 -86.5 26t-31.5 76q0 94 83 169t218 108zM552 152q-26 0 -53 -27l2 1q0 -2 -1 -6t-1 -5q-6 -24 -5 -34q1 -25 11.5 -39.5t26.5 -14.5q22 0 35 22t12 54q-1 49 -27 49z" />
    <glyph glyph-name="fivesixths" unicode="&#x215a;" 
d="M41 -16l320 370l298 353l49 -44l-308 -349l-310 -375zM145 336q-37 0 -73 16l-18 9l1 88h57q4 -22 7 -32.5t14 -20.5t30 -10q23 0 44.5 23t21.5 60q0 45 -28 45q-30 0 -67 -27l-49 19l55 182h128l84 7l-23 -81l-63 3h-84l-19 -63q32 10 58 10q46 0 77.5 -22t31.5 -61
q0 -30 -17.5 -59t-44.5 -46q-65 -40 -123 -40zM698 307q-72 -26 -109 -51.5t-62 -66.5q33 14 57 14q37 0 66.5 -21.5t30.5 -63.5q0 -64 -40 -93q-73 -50 -129 -50q-55 0 -86.5 26t-31.5 76q0 94 83 169t218 108zM552 152q-26 0 -53 -27l2 1q0 -2 -1 -6t-1 -5q-6 -24 -5 -34
q1 -25 11.5 -39.5t26.5 -14.5q22 0 35 22t12 54q-1 49 -27 49z" />
    <glyph glyph-name="oneeighth" unicode="&#x215b;" 
d="M41 -16l320 370l298 353l49 -44l-308 -349l-310 -375zM104 596l-3 46q89 27 124 53l61 -6l-53 -295q9 -1 30.5 -4.5t30.5 -4.5l-7 -42h-225l6 42l64 9l39 214q-9 -2 -27.5 -6t-23.5 -5q-1 0 -8 -0.5t-8 -0.5zM411 60q0 54 81 93l-5 -2v5q-34 26 -34 64q0 47 40 80.5
t102 33.5q50 0 80 -21t31 -56q0 -47 -68 -82q0 -1 -0.5 -2t-0.5 -2q56 -31 57 -77q0 -45 -43.5 -82t-118.5 -37q-50 0 -85 23t-36 62zM595 75q0 34 -64 58q-37 -30 -37 -67q0 -45 48 -45q22 0 37.5 15.5t15.5 38.5zM585 287q-18 0 -27.5 -11t-9.5 -29q0 -31 43 -52
q27 23 27 56q0 36 -33 36z" />
    <glyph glyph-name="threeeighths" unicode="&#x215c;" 
d="M41 -16l320 370l298 353l49 -44l-308 -349l-310 -375zM173 381q17 0 32.5 16.5t15.5 47.5q-1 25 -13 38t-24 14l-54 -12l-7 44q116 26 116 83q0 29 -31 29q-11 0 -19 -4t-14 -14.5t-8 -15t-7 -18.5h-62l27 73q23 13 61 23t60 10q46 0 73.5 -20t27.5 -51q0 -26 -20 -45
t-61 -42q0 -1 0.5 -3l0.5 -2q24 -12 42 -34.5t18 -46.5q0 -48 -50 -81.5t-111 -33.5q-67 0 -110 25l-6 91h59q5 -20 10.5 -33t19.5 -25.5t34 -12.5zM411 60q0 54 81 93l-5 -2v5q-34 26 -34 64q0 47 40 80.5t102 33.5q50 0 80 -21t31 -56q0 -47 -68 -82q0 -1 -0.5 -2t-0.5 -2
q56 -31 57 -77q0 -45 -43.5 -82t-118.5 -37q-50 0 -85 23t-36 62zM595 75q0 34 -64 58q-37 -30 -37 -67q0 -45 48 -45q22 0 37.5 15.5t15.5 38.5zM585 287q-18 0 -27.5 -11t-9.5 -29q0 -31 43 -52q27 23 27 56q0 36 -33 36z" />
    <glyph glyph-name="fiveeighths" unicode="&#x215d;" 
d="M41 -16l320 370l298 353l49 -44l-308 -349l-310 -375zM145 336q-37 0 -73 16l-18 9l1 88h57q4 -22 7 -32.5t14 -20.5t30 -10q23 0 44.5 23t21.5 60q0 45 -28 45q-30 0 -67 -27l-49 19l55 182h128l84 7l-23 -81l-63 3h-84l-19 -63q32 10 58 10q46 0 77.5 -22t31.5 -61
q0 -30 -17.5 -59t-44.5 -46q-65 -40 -123 -40zM411 60q0 54 81 93l-5 -2v5q-34 26 -34 64q0 47 40 80.5t102 33.5q50 0 80 -21t31 -56q0 -47 -68 -82q0 -1 -0.5 -2t-0.5 -2q56 -31 57 -77q0 -45 -43.5 -82t-118.5 -37q-50 0 -85 23t-36 62zM595 75q0 34 -64 58
q-37 -30 -37 -67q0 -45 48 -45q22 0 37.5 15.5t15.5 38.5zM585 287q-18 0 -27.5 -11t-9.5 -29q0 -31 43 -52q27 23 27 56q0 36 -33 36z" />
    <glyph glyph-name="seveneighths" unicode="&#x215e;" 
d="M41 -16l320 370l298 353l49 -44l-308 -349l-310 -375zM380 688l8 -53q-124 -137 -163 -271q-10 -25 -66 -25q-14 0 -21.5 0.5t-15.5 3.5t-7.5 8t2.5 14q70 152 173 242q-3 3 -3 6h-95q-10 0 -30 -40h-51l39 118l73 -3h157zM411 60q0 54 81 93l-5 -2v5q-34 26 -34 64
q0 47 40 80.5t102 33.5q50 0 80 -21t31 -56q0 -47 -68 -82q0 -1 -0.5 -2t-0.5 -2q56 -31 57 -77q0 -45 -43.5 -82t-118.5 -37q-50 0 -85 23t-36 62zM595 75q0 34 -64 58q-37 -30 -37 -67q0 -45 48 -45q22 0 37.5 15.5t15.5 38.5zM585 287q-18 0 -27.5 -11t-9.5 -29
q0 -31 43 -52q27 23 27 56q0 36 -33 36z" />
    <glyph glyph-name="uni2191" unicode="&#x2191;" horiz-adv-x="700" 
d="M357 605l264 -237l-46 -61l-183 163v-420h-84v420l-183 -163l-47 61l266 237h13z" />
    <glyph glyph-name="uni2193" unicode="&#x2193;" horiz-adv-x="700" 
d="M621 287l-264 -237h-13l-266 237l47 61l183 -163v420h84v-420l183 163z" />
    <glyph glyph-name="partialdiff" unicode="&#x2202;" horiz-adv-x="540" 
d="M283 584q-77 0 -99 -120h-50l12 113q20 25 62 43t86 18q98 0 150 -78t52 -201q0 -179 -74 -275t-197 -96q-76 0 -128.5 48t-52.5 134q0 105 69.5 167t152.5 62q36 0 69 -15.5t49 -43.5l5 3v39q0 103 -25.5 152.5t-80.5 49.5zM371 270q-8 28 -32.5 47.5t-52.5 19.5
q-51 0 -85.5 -45.5t-34.5 -122.5q0 -56 19 -87.5t55 -31.5q53 0 92 60t39 160z" />
    <glyph glyph-name="product" unicode="&#x220f;" horiz-adv-x="540" 
d="M7 626h526v-40l-63 -15v-516l53 -15v-40h-232v40l53 15v516h-148v-516l53 -15v-40h-232v40l53 15v516l-63 15v40z" />
    <glyph glyph-name="summation" unicode="&#x2211;" horiz-adv-x="540" 
d="M188 119l5 -10h230l64 81h41l-50 -190h-465l-8 15l262 270v12l-242 317l8 12h441l26 -171h-36l-89 131h-180l-5 -7l191 -245v-16z" />
    <glyph glyph-name="minus" unicode="&#x2212;" horiz-adv-x="620" 
d="M573 221h-526v86h526v-86z" />
    <glyph glyph-name="radical" unicode="&#x221a;" horiz-adv-x="540" 
d="M324 96h13l145 660l60 -10l-195 -883h-57l-194 519l-79 -28l-18 43l194 67z" />
    <glyph glyph-name="infinity" unicode="&#x221e;" horiz-adv-x="540" 
d="M127 149q-60 0 -92 38.5t-32 88.5q0 54 36.5 92.5t87.5 38.5q74 0 141 -92q33 43 66.5 67.5t77.5 24.5q61 0 92.5 -38t31.5 -89q0 -54 -36.5 -92.5t-87.5 -38.5q-75 0 -141 91q-70 -91 -144 -91zM145 347q-29 0 -47.5 -19.5t-18.5 -51.5q0 -31 18.5 -50t44.5 -19
q23 0 43 18.5t47 55.5q-25 33 -44 49.5t-43 16.5zM394 209q29 0 47.5 19.5t18.5 51.5q0 31 -18.5 50t-44.5 19q-23 0 -42.5 -18.5t-47.5 -55.5q24 -33 43.5 -49.5t43.5 -16.5z" />
    <glyph glyph-name="integral" unicode="&#x222b;" horiz-adv-x="540" 
d="M323 497l12 -487q2 -94 -52 -154t-138 -60q-37 0 -61 16.5t-24 50.5q0 21 12.5 37.5t36.5 16.5q50 0 57 -64l26 -7q13 18 20.5 63.5t5.5 90.5l-12 487q-2 95 48.5 154t129.5 59q38 0 67.5 -19.5t29.5 -55.5q0 -21 -13 -37.5t-37 -16.5q-49 0 -56 64l-26 7
q-29 -38 -26 -145z" />
    <glyph glyph-name="approxequal" unicode="&#x2248;" horiz-adv-x="540" 
d="M429 408l63 -12q-17 -62 -52 -104t-89 -42q-35 0 -89.5 36t-79.5 36q-24 0 -43 -10.5t-26.5 -20.5t-20.5 -31l-54 22q18 44 57 81.5t87 37.5q34 0 89 -35t81 -35q28 0 49.5 23t27.5 54zM445 229l57 -13q-14 -51 -54.5 -88.5t-84.5 -37.5q-43 0 -100.5 35.5t-80.5 35.5
q-39 0 -72 -64l-56 20q2 3 10 19t12.5 23.5t14.5 22.5t18.5 23t20 17.5t24.5 13.5t28 4q32 0 90 -35t91 -35q30 0 51.5 17t30.5 42z" />
    <glyph glyph-name="notequal" unicode="&#x2260;" horiz-adv-x="620" 
d="M495 491l-58 -107h136v-87h-183l-46 -86h229v-86h-275l-85 -159l-78 40l64 119h-152v86h198l46 86h-244v87h290l79 146z" />
    <glyph glyph-name="lessequal" unicode="&#x2264;" horiz-adv-x="620" 
d="M574 0h-527v86h527v-86zM574 528l-409 -163q74 -29 214 -84.5t195 -77.5v-85l-527 208v79l527 208v-85z" />
    <glyph glyph-name="greaterequal" unicode="&#x2265;" horiz-adv-x="620" 
d="M573 0h-527v86h527v-86zM455 365l-409 163v85l527 -208v-79l-527 -208v85q55 22 195 77.5t214 84.5z" />
    <glyph glyph-name="lozenge" unicode="&#x25ca;" horiz-adv-x="540" 
d="M269 -98l-245 373l245 375l246 -375zM127 275l142 -216l143 216l-143 218z" />
    <glyph glyph-name="uni2605" unicode="&#x2605;" horiz-adv-x="570" 
d="M127 -8l-4 3l66 186l-166 118l2 5l201 -7l57 193h6l58 -193l199 5l1 -4l-163 -117l66 -188l-3 -1l-161 118z" />
    <glyph glyph-name="commaaccent" unicode="&#xf6c3;" horiz-adv-x="500" 
d="M193 -269l-51 34l48 85l23 99l89 -36l-42 -92z" />
    <glyph glyph-name="apple" unicode="&#xf8ff;" horiz-adv-x="540" 
d="M209 720h11l32 -121l-3 -82l68 -8l64 99l8 99h12l7 -99l-17 -129l36 -85l35 -38l1 -6l-7 -8v-18l8 -4l-1 -9l-17 -36l-36 7l-11 101l-34 56l-13 -2l26 -60l4 -99l-37 -46l3 -22l26 -37l7 -71l-64 -23l-33 16l-35 57l-75 25l-28 47l-3 42l-30 41l-2 58l4 27l-11 44z
M487 244l6 -9l-3 -37l-12 -17l-5 -33l23 -8l-3 -10l-23 7l-43 -26l-5 10l39 23l5 36l-36 14l-13 31l-1 10l14 15l24 4zM270 305l36 -14l11 13l-3 14l-11 10l-30 -10zM327 64l3 -4l-7 -21l-40 -43l-68 -23l-97 14l-55 48l-18 62l34 95l11 -1l-9 -71l22 -41l37 -33l88 -16
l48 3zM142 438l9 -9l33 34l11 76h-18z" />
    <glyph glyph-name="zero.tnum" horiz-adv-x="550" 
d="M221 -13q-212 0 -212 243q0 174 97.5 291t217.5 117q93 0 146.5 -62.5t53.5 -183.5q0 -171 -87.5 -288t-215.5 -117zM315 551q-37 0 -68.5 -38t-50 -93.5t-28.5 -112.5t-10 -102q0 -67 21.5 -98.5t55.5 -31.5q38 0 71.5 53t52.5 131t19 156q0 136 -63 136z" />
    <glyph glyph-name="one.tnum" horiz-adv-x="550" 
d="M119 463l-6 83q69 20 133 46.5t90 46.5l88 -10l-97 -541l112 -15l-12 -73h-385l12 73l117 15l73 407q-31 -11 -125 -32z" />
    <glyph glyph-name="two.tnum" horiz-adv-x="550" 
d="M278 537q-114 0 -136 -121h-86l53 146q37 31 101 53.5t96 22.5q89 0 147 -45.5t58 -118.5q0 -38 -25.5 -80t-75 -87t-95 -80.5t-110.5 -82.5q-19 -13 -28 -20l5 -14l274 20l-24 -130h-452v72q209 163 286 244t77 153q0 31 -19 49.5t-46 18.5z" />
    <glyph glyph-name="three.tnum" horiz-adv-x="550" 
d="M203 63q36 0 69 32t33 89q-1 50 -28 75t-54 25l-85 -18l-11 70q100 22 155.5 61.5t55.5 93.5q0 56 -70 56q-25 0 -43 -8t-30 -26t-16.5 -28.5t-12.5 -33.5h-86l49 131q39 23 104.5 39.5t105.5 16.5q77 0 123 -35t46 -90q0 -48 -37 -83t-111 -77l1 -10q43 -17 76 -57
t33 -91q0 -87 -87 -147.5t-192 -60.5q-109 0 -187 43l-12 162h79q7 -23 11.5 -35t15.5 -33t23.5 -32t34 -20t47.5 -9z" />
    <glyph glyph-name="four.tnum" horiz-adv-x="550" 
d="M237 88l19 103h-237l-23 54q70 97 182.5 208t214.5 185l90 -17l-31 -149l-35 -199h104l-15 -81h-104l-19 -104l92 -15l-12 -73h-327l12 73zM304 453l-11 6q-124 -110 -173 -176l4 -10h147z" />
    <glyph glyph-name="five.tnum" horiz-adv-x="550" 
d="M158 -13q-28 0 -52.5 4.5t-36 9t-33.5 15.5t-30 14l2 157h74q6 -31 10 -44.5t15.5 -33.5t31.5 -28t52 -8q47 0 91 43t44 112q0 42 -17 64.5t-49 22.5q-65 0 -126 -46l-72 27l101 330h222l134 10l-39 -138l-100 5h-168l-38 -124l9 -5q20 9 55.5 17t57.5 8
q79 0 132.5 -39.5t53.5 -109.5q0 -55 -29.5 -107t-76.5 -81q-121 -74 -218 -75z" />
    <glyph glyph-name="six.tnum" horiz-adv-x="550" 
d="M224 371l4 -5q67 32 118 32q62 0 110 -38t51 -112q0 -43 -14 -92t-53 -76q-132 -93 -227 -93q-94 0 -148.5 47t-54.5 136q0 171 144 307.5t378 193.5l6 -78q-136 -50 -201 -95.5t-113 -126.5zM286 313q-57 0 -108 -51q-13 -67 -12 -84q2 -48 24.5 -75t58.5 -27
q48 0 75.5 41t25.5 101q-1 46 -19.5 70.5t-44.5 24.5z" />
    <glyph glyph-name="seven.tnum" horiz-adv-x="550" 
d="M542 626l14 -96q-114 -129 -186.5 -243.5t-111.5 -247.5q-15 -46 -105 -46q-14 0 -23.5 0.5t-20 2t-16 4t-9 7.5t-3 12t4.5 17q136 288 319 446l-6 14l-186 1q-5 0 -9.5 -1.5t-9 -4.5t-8 -6t-7.5 -9t-7 -9.5t-7 -11t-6.5 -11.5t-6.5 -12t-6 -11h-66l71 210l118 -5h273z
" />
    <glyph glyph-name="eight.tnum" horiz-adv-x="550" 
d="M5 140q0 57 37 96t103 71l1 9q-64 49 -64 117q0 86 69.5 145.5t175.5 59.5q85 0 136.5 -37.5t53.5 -98.5q0 -41 -33 -81.5t-92 -69.5l-1 -8q100 -53 103 -142q0 -36 -18 -73t-52 -69t-89.5 -52t-122.5 -20q-86 0 -145.5 42t-61.5 111zM207 282q-78 -56 -78 -132
q0 -39 25.5 -61.5t76.5 -22.5q45 0 77.5 28.5t32.5 72.5q0 38 -34.5 64.5t-99.5 50.5zM309 560q-38 0 -60 -21t-22 -55q0 -32 22.5 -55.5t73.5 -48.5q62 48 62 111q0 33 -20 51t-56 18z" />
    <glyph glyph-name="nine.tnum" horiz-adv-x="550" 
d="M322 255l-5 5q-73 -37 -124 -37q-67 0 -116.5 39.5t-49.5 117.5q0 41 15 87.5t52 73.5q121 97 228 97q92 0 147 -48t55 -137q0 -96 -57.5 -199.5t-144.5 -162.5q-131 -79 -322 -126v75q140 49 206 92.5t116 122.5zM250 309q56 0 104 41q13 42 13 90q0 53 -22.5 83.5
t-58.5 30.5q-45 0 -73 -42.5t-28 -106.5q0 -47 18 -71.5t47 -24.5z" />
    <glyph glyph-name="exclamdown.case" horiz-adv-x="333" 
d="M315 613q0 -31 -23.5 -52t-57.5 -21q-35 0 -59 21t-24 52t24 51.5t59 20.5q34 0 57.5 -20.5t23.5 -51.5zM33 -22l-35 28l167 473l74 -11l-77 -457z" />
    <glyph glyph-name="questiondown.case" horiz-adv-x="443" 
d="M443 613q0 -31 -23.5 -52t-58.5 -21q-34 0 -58 21t-24 52q0 30 24 51t58 21q35 0 58.5 -20.5t23.5 -51.5zM239 417l10 29l61 22q86 -42 86 -93q0 -34 -38.5 -61.5t-84.5 -43.5t-84.5 -40t-38.5 -53q0 -30 31.5 -55t55.5 -25l50 57l64 -57q-68 -119 -131 -119
q-72 0 -142 63t-70 123q0 37 27 67.5t65.5 49t77 34t65.5 31.5t27 34q0 17 -31 37z" />
    <glyph glyph-name="hyphen.case" horiz-adv-x="335" 
d="M87 369l59 -2h105l77 2l-20 -108l-56 3h-121l-63 -3z" />
    <glyph glyph-name="endash.case" horiz-adv-x="484" 
d="M80 365h384v-99h-384v99z" />
    <glyph glyph-name="emdash.case" horiz-adv-x="1020" 
d="M149 360h783v-89h-783v89z" />
    <glyph glyph-name="guilsinglleft.case" horiz-adv-x="445" 
d="M116 335l242 217l54 -49l-179 -188l-2 -12q20 -28 58.5 -84t52.5 -76l-70 -53l-161 219z" />
    <glyph glyph-name="guilsinglright.case" horiz-adv-x="445" 
d="M389 307l-242 -217l-54 49l179 188l2 12q-20 28 -58.5 84t-52.5 76l70 53l161 -219z" />
    <glyph glyph-name="guillemotleft.case" horiz-adv-x="652" 
d="M116 335l242 217l54 -49l-179 -188l-2 -12q20 -28 58.5 -84t52.5 -76l-70 -53l-161 219zM323 335l242 217l54 -49l-179 -188l-2 -12q20 -28 58.5 -84t52.5 -76l-70 -53l-161 219z" />
    <glyph glyph-name="guillemotright.case" horiz-adv-x="652" 
d="M596 307l-242 -217l-54 49l179 188l2 12q-20 28 -58.5 84t-52.5 76l70 53l161 -219zM389 307l-242 -217l-54 49l179 188l2 12q-20 28 -58.5 84t-52.5 76l70 53l161 -219z" />
    <glyph glyph-name="parenleft.case" horiz-adv-x="352" 
d="M283 -137l-53 -46q-87 62 -128.5 132t-45.5 159q-1 94 19 211q23 128 59 218q63 157 273 278l34 -63q-150 -101 -193 -235q-29 -91 -51 -215q-9 -49 -24 -162q-8 -81 20 -154t90 -123z" />
    <glyph glyph-name="parenright.case" horiz-adv-x="352" 
d="M89 769l53 46q87 -62 128.5 -132t45.5 -159q1 -94 -19 -211q-23 -128 -59 -218q-63 -157 -273 -278l-34 63q150 101 193 235q29 91 51 215q9 49 24 162q8 81 -20 154t-90 123z" />
    <glyph glyph-name="bracketleft.case" horiz-adv-x="335" 
d="M414 797l-9 -56l-136 -20l-143 -809l129 -20l-10 -56h-247l169 961h247z" />
    <glyph glyph-name="bracketright.case" horiz-adv-x="335" 
d="M-39 -164l9 56l136 20l143 809l-129 20l10 56h247l-169 -961h-247z" />
    <glyph glyph-name="braceleft.case" horiz-adv-x="435" 
d="M203 346l-2 -14q52 -17 81.5 -57.5t20.5 -95.5q-5 -33 -37.5 -100t-38.5 -103q-6 -37 24.5 -59t114.5 -22l-10 -57q-155 0 -207.5 36.5t-38.5 115.5q5 35 36.5 100.5t36.5 99.5q9 52 -28.5 80t-106.5 28l13 84q65 0 114 31t56 73q6 33 -5 88.5t-6 86.5q12 74 76.5 105
t208.5 31l-9 -64q-146 0 -157 -67q-6 -33 6.5 -92t7.5 -87q-8 -47 -49.5 -84t-100.5 -57z" />
    <glyph glyph-name="braceright.case" horiz-adv-x="435" 
d="M252 289l2 14q-52 17 -81.5 57.5t-20.5 95.5q5 33 37.5 100t38.5 103q6 37 -24.5 59t-114.5 22l10 57q155 0 207.5 -36.5t38.5 -115.5q-5 -35 -36.5 -100.5t-36.5 -99.5q-9 -52 28.5 -80t106.5 -28l-13 -84q-65 0 -114 -31t-56 -73q-6 -33 5 -88.5t6 -86.5
q-12 -74 -76.5 -105t-208.5 -31l9 64q146 0 157 67q6 33 -6.5 92t-7.5 87q8 47 49.5 84t100.5 57z" />
    <glyph glyph-name="zero.onum" horiz-adv-x="601" 
d="M29 197q1 80 32.5 143.5t80 100t101.5 55.5t104 19q97 0 160.5 -49t63.5 -152q0 -74 -29 -137.5t-76 -104t-103.5 -63t-113.5 -22.5q-102 0 -161 57.5t-59 152.5zM332 428q-47 0 -81.5 -38t-49.5 -90t-15 -107q0 -59 24 -89t60 -30q53 0 98 62t45 179q0 113 -81 113z" />
    <glyph glyph-name="one.onum" horiz-adv-x="425" 
d="M286 515l60 -14l-73 -414l98 -20l-11 -67h-346l11 67l107 20l53 304q-43 -13 -114 -18l-4 76q124 23 219 66z" />
    <glyph glyph-name="two.onum" horiz-adv-x="497" 
d="M13 0l-12 79q122 75 212.5 155t90.5 134q0 42 -58 42t-148 -67l-31 46q47 55 111.5 90.5t130.5 35.5q69 0 108.5 -32t39.5 -84q0 -30 -15 -60.5t-35 -54t-54 -51.5t-58.5 -44.5t-62 -41.5l-52.5 -35l5 -9l248 20l-25 -123h-395z" />
    <glyph glyph-name="three.onum" horiz-adv-x="442" 
d="M92 361l-48 51l91 77q55 26 103 26q68 0 109 -31t41 -78q0 -46 -30.5 -84.5t-77.5 -62.5l3 -10q55 0 83.5 -25.5t28.5 -71.5q0 -66 -52.5 -133.5t-124.5 -113t-142 -74.5t-110 -29l-61 101l40 44l75 -39q45 6 91.5 30t83.5 71.5t37 104.5q0 29 -12 45.5t-31 16.5
q-11 0 -23 -6l-79 -41l-27 69q11 6 41 23.5t40 24t32.5 21.5t30.5 24.5t19.5 24.5t15.5 30t4 33q0 19 -12 30.5t-31 11.5q-46 0 -108 -60z" />
    <glyph glyph-name="four.onum" horiz-adv-x="558" 
d="M223 -198l-22 25l27 91l20 116h-250l-8 53l396 428l84 -22l-30 -142l-41 -234h14l83 5l-16 -92l-77 5h-18l-19 -104l-11 -93zM296 302l-11 6l-156 -181l4 -10h130z" />
    <glyph glyph-name="five.onum" horiz-adv-x="472" 
d="M-26 -198h-6l-61 106l46 49l83 -49q30 2 62.5 13t65 30t53 52.5t20.5 74.5q0 40 -27 62.5t-74 22.5q-12 0 -40 -4l-39 42l65 304h227l134 10l-37 -133l-100 5h-160l-22 -98l13 -13q10 1 31 1q81 0 130.5 -35.5t49.5 -107.5q0 -110 -116.5 -205t-297.5 -127z" />
    <glyph glyph-name="six.onum" horiz-adv-x="552" 
d="M226 371l4 -5q67 32 118 32q62 0 110 -38t51 -112q0 -43 -14 -92t-53 -76q-132 -93 -227 -93q-94 0 -148.5 47t-54.5 136q0 171 144 307.5t378 193.5l6 -78q-136 -50 -201 -95.5t-113 -126.5zM288 313q-57 0 -108 -51q-13 -67 -12 -84q2 -48 24.5 -75t58.5 -27
q48 0 75.5 41t25.5 101q-1 46 -19.5 70.5t-44.5 24.5z" />
    <glyph glyph-name="seven.onum" horiz-adv-x="483" 
d="M-64 -187l-8 31q238 289 399 522l-5 14l-267 1l26 129l138 -5h253l27 -51q-291 -424 -427 -642z" />
    <glyph glyph-name="eight.onum" horiz-adv-x="551" 
d="M13 140q0 57 37 96t103 71l1 9q-64 49 -64 117q0 86 69.5 145.5t175.5 59.5q85 0 136.5 -37.5t53.5 -98.5q0 -41 -33 -81.5t-92 -69.5l-1 -8q100 -53 103 -142q0 -36 -18 -73t-52 -69t-89.5 -52t-122.5 -20q-86 0 -145.5 42t-61.5 111zM215 282q-78 -56 -78 -132
q0 -39 25.5 -61.5t76.5 -22.5q45 0 77.5 28.5t32.5 72.5q0 38 -34.5 64.5t-99.5 50.5zM317 560q-38 0 -60 -21t-22 -55q0 -32 22.5 -55.5t73.5 -48.5q62 48 62 111q0 33 -20 51t-56 18z" />
    <glyph glyph-name="nine.onum" horiz-adv-x="540" 
d="M317 132l-5 5q-73 -37 -124 -37q-67 0 -116.5 39.5t-49.5 117.5q0 41 15 87.5t52 73.5q121 97 228 97q92 0 147 -48t55 -137q0 -101 -59 -208.5t-148 -173.5q-146 -103 -302 -151l-15 60q136 66 205.5 121t116.5 154zM245 186q56 0 104 41q13 42 13 90q0 53 -22.5 83.5
t-58.5 30.5q-45 0 -73 -42.5t-28 -106.5q0 -47 18 -71.5t47 -24.5z" />
    <glyph glyph-name="zero.onum.tnum" horiz-adv-x="550" 
d="M15 197q1 64 21 118.5t52 90.5t72 61t80.5 36.5t79.5 11.5q93 0 154 -49t61 -152q0 -74 -28 -137.5t-73 -104t-99.5 -63t-108.5 -22.5q-97 0 -154 57.5t-57 152.5zM306 428q-45 0 -78 -38t-47.5 -90t-14.5 -107q0 -59 22.5 -89t57.5 -30q51 0 94 62t43 179q0 113 -77 113
z" />
    <glyph glyph-name="one.onum.tnum" horiz-adv-x="550" 
d="M345 515l60 -14l-73 -414l98 -20l-11 -67h-346l11 67l107 20l53 304q-43 -13 -114 -18l-4 76q124 23 219 66z" />
    <glyph glyph-name="two.onum.tnum" horiz-adv-x="550" 
d="M39 0l-12 79q122 75 212.5 155t90.5 134q0 42 -58 42t-148 -67l-31 46q47 55 111.5 90.5t130.5 35.5q69 0 108.5 -32t39.5 -84q0 -30 -15 -60.5t-35 -54t-54 -51.5t-58.5 -44.5t-62 -41.5l-52.5 -35l5 -9l248 20l-25 -123h-395z" />
    <glyph glyph-name="three.onum.tnum" horiz-adv-x="550" 
d="M146 361l-48 51l91 77q55 26 103 26q68 0 109 -31t41 -78q0 -46 -30.5 -84.5t-77.5 -62.5l3 -10q55 0 83.5 -25.5t28.5 -71.5q0 -66 -52.5 -133.5t-124.5 -113t-142 -74.5t-110 -29l-61 101l40 44l75 -39q45 6 91.5 30t83.5 71.5t37 104.5q0 29 -12 45.5t-31 16.5
q-11 0 -23 -6l-79 -41l-27 69q11 6 41 23.5t40 24t32.5 21.5t30.5 24.5t19.5 24.5t15.5 30t4 33q0 19 -12 30.5t-31 11.5q-46 0 -108 -60z" />
    <glyph glyph-name="four.onum.tnum" horiz-adv-x="550" 
d="M230 -198l-22 25l27 91l20 116h-250l-8 53l396 428l84 -22l-30 -142l-41 -234h14l83 5l-16 -92l-77 5h-18l-19 -104l-11 -93zM303 302l-11 6l-156 -181l4 -10h130z" />
    <glyph glyph-name="five.onum.tnum" horiz-adv-x="550" 
d="M16 -198h-6l-61 106l46 49l83 -49q30 2 62.5 13t65 30t53 52.5t20.5 74.5q0 40 -27 62.5t-74 22.5q-12 0 -40 -4l-39 42l65 304h227l134 10l-37 -133l-100 5h-160l-22 -98l13 -13q10 1 31 1q81 0 130.5 -35.5t49.5 -107.5q0 -110 -116.5 -205t-297.5 -127z" />
    <glyph glyph-name="six.onum.tnum" horiz-adv-x="550" 
d="M254 371l4 -5q67 32 118 32q62 0 110 -38t51 -112q0 -43 -14 -92t-53 -76q-132 -93 -227 -93q-94 0 -148.5 47t-54.5 136q0 171 144 307.5t378 193.5l6 -78q-136 -50 -201 -95.5t-113 -126.5zM316 313q-57 0 -108 -51q-13 -67 -12 -84q2 -48 24.5 -75t58.5 -27
q48 0 75.5 41t25.5 101q-1 46 -19.5 70.5t-44.5 24.5z" />
    <glyph glyph-name="seven.onum.tnum" horiz-adv-x="550" 
d="M-23 -187l-8 31q238 289 399 522l-5 14l-267 1l26 129l138 -5h253l27 -51q-291 -424 -427 -642z" />
    <glyph glyph-name="eight.onum.tnum" horiz-adv-x="550" 
d="M34 140q0 57 37 96t103 71l1 9q-64 49 -64 117q0 86 69.5 145.5t175.5 59.5q85 0 136.5 -37.5t53.5 -98.5q0 -41 -33 -81.5t-92 -69.5l-1 -8q100 -53 103 -142q0 -36 -18 -73t-52 -69t-89.5 -52t-122.5 -20q-86 0 -145.5 42t-61.5 111zM236 282q-78 -56 -78 -132
q0 -39 25.5 -61.5t76.5 -22.5q45 0 77.5 28.5t32.5 72.5q0 38 -34.5 64.5t-99.5 50.5zM338 560q-38 0 -60 -21t-22 -55q0 -32 22.5 -55.5t73.5 -48.5q62 48 62 111q0 33 -20 51t-56 18z" />
    <glyph glyph-name="nine.onum.tnum" horiz-adv-x="550" 
d="M333 112l-5 5q-73 -37 -124 -37q-67 0 -116.5 39.5t-49.5 117.5q0 41 15 87.5t52 73.5q121 97 228 97q92 0 147 -48t55 -137q0 -96 -57.5 -199.5t-144.5 -162.5q-131 -79 -322 -126v75q140 49 206 92.5t116 122.5zM261 166q56 0 104 41q13 42 13 90q0 53 -22.5 83.5
t-58.5 30.5q-45 0 -73 -42.5t-28 -106.5q0 -47 18 -71.5t47 -24.5z" />
    <glyph glyph-name="dollar.onum" horiz-adv-x="459" 
d="M14 29l14 130h58q7 -87 88 -93l26 138l-14 7q-29 14 -44.5 23t-37 26t-31 38.5t-9.5 48.5q0 64 58 103.5t133 46.5l15 78h47l-15 -77q85 -3 124 -31l-16 -128h-58q-10 75 -63 87l-24 -126l14 -6q29 -13 45.5 -22t38 -25.5t32 -39t10.5 -51.5q0 -60 -54 -106.5t-144 -55.5
l-16 -85h-47l15 82q-39 1 -83.5 11.5t-61.5 26.5zM267 135q0 24 -25 44l-20 -106q45 18 45 62zM196 367q0 -26 26 -44l19 101q-45 -14 -45 -57z" />
    <glyph glyph-name="cent.onum" horiz-adv-x="433" 
d="M284 448q67 0 93 -68v-25l-42 -61h-40q-4 59 -31 72l-48 -272q45 9 82 46l33 -41q-63 -62 -128 -79l-17 -100h-48l16 93h-1q-56 0 -90 32.5t-34 91.5q0 162 97 232q56 45 102 66l20 111h48l-17 -98h5zM152 165q0 -49 18 -64l44 255q-28 -23 -45 -76.5t-17 -114.5z" />
    <glyph glyph-name="sterling.onum" horiz-adv-x="460" 
d="M68 281h68l9 46q15 79 124 134q74 37 119 37q37 0 78 -16l-24 -128h-56q4 72 -43 72q-23 0 -45 -17.5t-29 -59.5l-13 -68h99l-9 -53h-101q-9 -37 -29.5 -64.5t-56.5 -63.5q0 -2 1 -3q24 2 71 -4q47 -5 55 -5q26 0 43.5 16t28.5 57h56l-39 -162q-20 -8 -60 -8
q-50 0 -134 23q-57 15 -73 17q-30 -40 -70 -40q-18 0 -27 10t-5 26q4 18 23.5 34t41.5 21q35 43 49 116l6 30h-66z" />
    <glyph glyph-name="yen.onum" horiz-adv-x="465" 
d="M271 299h3q28 53 69 105t78 80q12 9 30 9q32 0 49 -25q16 -22 -8 -33q-97 -54 -191 -210l1 1l-4 -19h99l-7 -39h-100l-5 -26h100l-7 -40h-100l-6 -31l65 -10l-10 -61h-273l10 61l68 10l6 31h-94l6 40h96l5 26h-95l7 39h95l5 24q-11 46 -39 100.5t-58 81.5l-42 7v55
l107 26q51 -10 87.5 -70t52.5 -132z" />
    <glyph glyph-name="Euro.onum" horiz-adv-x="548" 
d="M69 309h51q36 87 111 138t161 51q89 0 155 -52l-43 -99h-41q9 50 -15 71.5t-57 21.5q-95 0 -140 -131h233l-17 -43h-229l-4 -22l-3 -13h221l-16 -42h-209v-18q0 -119 88 -119q73 0 117 86l53 -21q-67 -126 -198 -126q-85 0 -139 50.5t-54 140.5v7h-57l17 42h44q0 4 2 12
q1 6 5 23h-52z" />
    <glyph glyph-name="numbersign.onum" horiz-adv-x="428" 
d="M73 387l82 -11l34 150l58 -7l-34 -150l63 -9l38 166l58 -7l-38 -166l86 -11l-7 -56l-91 11l-26 -113l75 -9l-7 -57l-80 10l-35 -155l-58 7l35 156l-64 8l-38 -171l-58 7l38 172l-85 11l7 57l91 -12l25 111l-75 10zM200 312l-25 -112l63 -8l26 112z" />
    <glyph glyph-name="percent.onum" horiz-adv-x="467" 
d="M281 385q-22 0 -39 12q-1 -62 -38.5 -103t-85.5 -41q-41 0 -67.5 28.5t-26.5 71.5q0 59 40 102t87 43q59 0 81 -48q4 -11 19.5 -18t32.5 -7q35 0 70 22q26 46 66 46q9 0 16.5 -6t7.5 -16q0 -22 -38 -47q-29 -37 -87.5 -111t-87.5 -110l-164 -223l-50 30l171 210l130 173
q-19 -8 -37 -8zM228 91q0 58 40.5 101t86.5 43q41 0 66.5 -25t25.5 -68q0 -67 -38.5 -109t-85.5 -42q-42 0 -68.5 28.5t-26.5 71.5zM374 176q-22 0 -40.5 -34t-18.5 -74q0 -36 24 -36q22 0 41 27t19 78q0 39 -25 39zM171 436q-22 0 -41.5 -34.5t-19.5 -73.5q0 -36 26 -36
q21 0 39.5 30t18.5 75q0 39 -23 39z" />
    <glyph glyph-name="perthousand.onum" horiz-adv-x="696" 
d="M458 91q0 58 40.5 101t86.5 43q41 0 66.5 -25t25.5 -68q0 -67 -38.5 -109t-84.5 -42q-42 0 -69 28.5t-27 71.5zM604 176q-21 0 -40 -34.5t-19 -73.5q0 -36 25 -36q22 0 40.5 27t18.5 78q0 39 -25 39zM282 385q-22 0 -39 12q-1 -62 -38.5 -103t-85.5 -41q-41 0 -67.5 28.5
t-26.5 71.5q0 59 40 102t87 43q59 0 81 -48q4 -11 19.5 -18t32.5 -7q35 0 70 22q26 46 66 46q9 0 16.5 -6t7.5 -16q0 -22 -38 -47q-29 -37 -88 -111t-87 -110l-164 -223l-50 30l171 210l130 173q-19 -8 -37 -8zM229 91q0 58 40.5 101t86.5 43q41 0 66.5 -25t25.5 -68
q0 -67 -38.5 -109t-85.5 -42q-42 0 -68.5 28.5t-26.5 71.5zM375 176q-22 0 -40.5 -34t-18.5 -74q0 -36 24 -36q22 0 41 27t19 78q0 39 -25 39zM172 436q-22 0 -41.5 -34.5t-19.5 -73.5q0 -36 26 -36q21 0 39.5 30t18.5 75q0 39 -23 39z" />
    <glyph glyph-name="ordfeminine.onum" horiz-adv-x="347" 
d="M271 163l-58 14l-1 47l-2 1q-29 -26 -61 -43.5t-51 -17.5q-61 0 -61 91q0 55 25 112.5t66 90.5q64 49 100 49q26 0 54 -18l22 20l60 -13l-58 -249l49 17l19 -35zM140 286q0 -36 14 -36q8 0 29 11.5t36 24.5q25 119 31 148q-14 10 -27 10q-30 0 -56.5 -50.5t-26.5 -107.5z
" />
    <glyph glyph-name="ordmasculine.onum" horiz-adv-x="320" 
d="M246 513q41 0 69 -24.5t28 -74.5q0 -124 -68 -188q-76 -62 -139 -62q-47 0 -73 28.5t-26 71.5q0 134 72 189q81 60 137 60zM140 299q0 -64 27 -64q24 0 42 27.5t25 59.5t7 59q0 61 -25 61q-34 0 -55 -42t-21 -101z" />
    <glyph glyph-name="degree.onum" horiz-adv-x="367" 
d="M90 394q0 59 42 101.5t101 42.5t101.5 -42.5t42.5 -101.5t-42.5 -101t-101.5 -42t-101 42.5t-42 100.5zM162 394q0 -32 19.5 -55t50.5 -23q32 0 52 23t20 55q0 33 -20 56.5t-52 23.5q-31 0 -50.5 -23.5t-19.5 -56.5z" />
    <glyph glyph-name="zero.numr" horiz-adv-x="333" 
d="M148 309q-131 0 -131 135q0 95 59 159.5t131 64.5q58 0 91 -34.5t33 -101.5q0 -94 -53 -158.5t-130 -64.5zM202 616q-26 0 -46 -35t-28.5 -76.5t-8.5 -74.5q0 -70 37 -70q30 0 52.5 59t22.5 125q0 72 -29 72z" />
    <glyph glyph-name="one.numr" horiz-adv-x="261" 
d="M48 569l-3 46q89 27 124 53l61 -6l-53 -295q9 -1 30.5 -4.5t30.5 -4.5l-7 -42h-225l6 42l64 9l39 214q-9 -2 -27.5 -6t-23.5 -5q-1 0 -8 -0.5t-8 -0.5z" />
    <glyph glyph-name="two.numr" horiz-adv-x="287" 
d="M162 608q-55 0 -67 -65h-63l29 80q21 18 58.5 31.5t57.5 13.5q52 0 86 -25.5t34 -66.5q0 -26 -30 -61.5t-60.5 -60t-82.5 -62.5q1 1 -2 -1t-8 -6v-2.5t1 -2.5q25 2 76.5 6.5t75.5 5.5l-14 -76h-262v41q113 87 155.5 132t42.5 85q0 16 -8 25t-19 9z" />
    <glyph glyph-name="three.numr" horiz-adv-x="287" 
d="M123 354q17 0 32.5 16.5t15.5 47.5q-1 25 -13 38t-24 14l-54 -12l-7 44q116 26 116 83q0 29 -31 29q-11 0 -19 -4t-14 -14.5t-8 -15t-7 -18.5h-62l27 73q23 13 61 23t60 10q46 0 73.5 -20t27.5 -51q0 -26 -20 -45t-61 -42v-2q1 -2 1 -3q24 -12 42 -34.5t18 -46.5
q0 -48 -50 -81.5t-111 -33.5q-67 0 -110 25l-6 91h59q5 -20 10.5 -33t19.5 -25.5t34 -12.5z" />
    <glyph glyph-name="four.numr" horiz-adv-x="322" 
d="M145 366l10 54h-129l-12 30q38 54 100.5 115.5t118.5 103.5l62 -11l-17 -83q-3 -16 -10 -52t-10 -55h58l-9 -47h-57l-10 -55q9 -1 26.5 -4t23.5 -4l-6 -42h-195l6 42zM97 468h66l17 90q-62 -53 -86 -87l2 1q0 -3 1 -4z" />
    <glyph glyph-name="five.numr" horiz-adv-x="285" 
d="M93 309q-37 0 -73 16l-18 9l1 88h57q4 -22 7 -32t14 -20.5t30 -10.5q23 0 44.5 23t21.5 60q0 45 -28 45q-30 0 -67 -27l-49 19l55 182h128l84 7l-23 -81l-63 3h-84l-19 -63q32 10 58 10q46 0 77.5 -22t31.5 -61q0 -30 -17.5 -59t-44.5 -46q-65 -40 -123 -40z" />
    <glyph glyph-name="six.numr" horiz-adv-x="304" 
d="M315 641q-72 -26 -109 -51.5t-62 -66.5q33 14 57 14q37 0 66.5 -21.5t30.5 -63.5q0 -64 -40 -93q-73 -50 -129 -50q-55 0 -86.5 26t-31.5 76q0 94 83 169t218 108zM169 486q-26 0 -53 -27l2 1q0 -2 -1 -6t-1 -5q-6 -24 -5 -34q1 -25 11.5 -39.5t26.5 -14.5q22 0 35 22
t12 54q-1 49 -27 49z" />
    <glyph glyph-name="seven.numr" horiz-adv-x="268" 
d="M297 661l8 -53q-124 -137 -163 -271q-10 -25 -66 -25q-14 0 -21.5 0.5t-15.5 3.5t-7.5 8t2.5 14q70 152 173 242q-3 3 -3 6h-95q-10 0 -30 -40h-51l39 118l73 -3h157z" />
    <glyph glyph-name="eight.numr" horiz-adv-x="303" 
d="M8 394q0 54 81 93l-5 -2v5q-34 26 -34 64q0 47 40 80.5t102 33.5q50 0 80 -21t31 -56q0 -47 -68 -82q0 -1 -0.5 -2t-0.5 -2q56 -31 57 -77q0 -45 -43.5 -82t-118.5 -37q-50 0 -85 23t-36 62zM192 409q0 34 -64 58q-37 -30 -37 -67q0 -45 48 -45q22 0 37.5 15.5t15.5 38.5
zM182 621q-18 0 -27.5 -11t-9.5 -29q0 -31 43 -52q27 23 27 56q0 36 -33 36z" />
    <glyph glyph-name="nine.numr" horiz-adv-x="304" 
d="M7 339q72 25 108.5 49t63.5 63q-31 -13 -59 -13q-39 0 -68.5 21.5t-29.5 65.5q0 60 40 90q64 53 129 53q54 0 86.5 -27t32.5 -76q0 -52 -33 -109t-83 -91q-64 -40 -187 -70v44zM152 488q26 0 51 23l-3 -1q7 20 7 48q0 27 -10 43.5t-25 16.5q-21 0 -34.5 -22.5
t-13.5 -56.5q0 -51 28 -51z" />
    <glyph glyph-name="zero.dnom" horiz-adv-x="333" 
d="M148 -46q-131 0 -131 135q0 95 59 159.5t131 64.5q58 0 91 -34.5t33 -101.5q0 -94 -53 -158.5t-130 -64.5zM202 261q-26 0 -46 -35t-28.5 -76.5t-8.5 -74.5q0 -70 37 -70q30 0 52.5 59t22.5 125q0 72 -29 72z" />
    <glyph glyph-name="one.dnom" horiz-adv-x="261" 
d="M48 214l-3 46q89 27 124 53l61 -6l-53 -295q9 -1 30.5 -4.5t30.5 -4.5l-7 -42h-225l6 42l64 9l39 214q-9 -2 -27.5 -6t-23.5 -5q-1 0 -8 -0.5t-8 -0.5z" />
    <glyph glyph-name="two.dnom" horiz-adv-x="287" 
d="M162 253q-55 0 -67 -65h-63l29 80q21 18 58.5 31.5t57.5 13.5q52 0 86 -25.5t34 -66.5q0 -26 -30 -61.5t-60.5 -60t-82.5 -62.5q1 1 -2 -1t-8 -6v-2.5t1 -2.5q25 2 76.5 6.5t75.5 5.5l-14 -76h-262v41q113 87 155.5 132t42.5 85q0 16 -8 25t-19 9z" />
    <glyph glyph-name="three.dnom" horiz-adv-x="287" 
d="M123 -1q17 0 32.5 16.5t15.5 47.5q-1 25 -13 38t-24 14l-54 -12l-7 44q116 26 116 83q0 29 -31 29q-11 0 -19 -4t-14 -14.5t-8 -15t-7 -18.5h-62l27 73q23 13 61 23t60 10q46 0 73.5 -20t27.5 -51q0 -26 -20 -45t-61 -42q0 -1 0.5 -3l0.5 -2q24 -12 42 -34.5t18 -46.5
q0 -48 -50 -81.5t-111 -33.5q-67 0 -110 25l-6 91h59q5 -20 10.5 -33t19.5 -25.5t34 -12.5z" />
    <glyph glyph-name="four.dnom" horiz-adv-x="322" 
d="M145 11l10 54h-129l-12 30q38 54 100.5 115.5t118.5 103.5l62 -11l-17 -83q-3 -16 -10 -52t-10 -55h58l-9 -47h-57l-10 -55q9 -1 27 -4t23 -4l-6 -42h-195l6 42zM97 113h66l17 90q-62 -53 -86 -87l2 1q0 -3 1 -4z" />
    <glyph glyph-name="five.dnom" horiz-adv-x="285" 
d="M93 -46q-37 0 -73 16l-18 9l1 88h57q4 -22 7 -32t14 -20.5t30 -10.5q23 0 44.5 23t21.5 60q0 45 -28 45q-30 0 -67 -27l-49 19l55 182h128l84 7l-23 -81l-63 3h-84l-19 -63q32 10 58 10q46 0 77.5 -22t31.5 -61q0 -30 -17.5 -59t-44.5 -46q-65 -40 -123 -40z" />
    <glyph glyph-name="six.dnom" horiz-adv-x="304" 
d="M315 286q-72 -26 -109 -51.5t-62 -66.5q33 14 57 14q37 0 66.5 -21.5t30.5 -63.5q0 -64 -40 -93q-73 -50 -129 -50q-55 0 -86.5 26t-31.5 76q0 94 83 169t218 108zM169 131q-26 0 -53 -27l2 1q0 -1 -1 -5t-1 -6q-6 -24 -5 -34q1 -25 11.5 -39.5t26.5 -14.5q22 0 35 22
t12 54q-1 49 -27 49z" />
    <glyph glyph-name="seven.dnom" horiz-adv-x="268" 
d="M297 306l8 -53q-124 -137 -163 -271q-10 -25 -66 -25q-14 0 -21.5 0.5t-15.5 3.5t-7.5 8t2.5 14q70 152 173 242q-3 3 -3 6h-95q-10 0 -30 -40h-51l39 118l73 -3h157z" />
    <glyph glyph-name="eight.dnom" horiz-adv-x="303" 
d="M8 39q0 54 81 93l-5 -2v5q-34 26 -34 64q0 47 40 80.5t102 33.5q50 0 80 -21t31 -56q0 -47 -68 -82l-1 -2v-2q56 -31 57 -77q0 -45 -43.5 -82t-118.5 -37q-50 0 -85 23t-36 62zM192 54q0 34 -64 58q-37 -30 -37 -67q0 -45 48 -45q22 0 37.5 15.5t15.5 38.5zM182 266
q-18 0 -27.5 -11t-9.5 -29q0 -30 43 -52q27 23 27 56q0 36 -33 36z" />
    <glyph glyph-name="nine.dnom" horiz-adv-x="304" 
d="M7 -16q72 25 108.5 49t63.5 63q-31 -13 -59 -13q-39 0 -68.5 21.5t-29.5 65.5q0 60 40 90q64 53 129 53q54 0 86.5 -27t32.5 -76q0 -52 -33 -109t-83 -91q-64 -40 -187 -70v44zM152 133q26 0 51 23l-3 -1q7 20 7 48q0 27 -10 43.5t-25 16.5q-21 0 -34.5 -22.5
t-13.5 -56.5q0 -51 28 -51z" />
    <glyph glyph-name="zero.subs" horiz-adv-x="333" 
d="M88 -166q-131 0 -131 135q0 95 59 159.5t131 64.5q58 0 91 -34.5t33 -101.5q0 -94 -53 -158.5t-130 -64.5zM142 141q-26 0 -46 -35t-28.5 -76.5t-8.5 -74.5q0 -70 37 -70q30 0 52.5 59t22.5 125q0 72 -29 72z" />
    <glyph glyph-name="one.subs" horiz-adv-x="261" 
d="M-12 94l-3 46q89 27 124 53l61 -6l-53 -295q9 -1 30.5 -4.5t30.5 -4.5l-7 -42h-225l6 42l64 9l39 214q-9 -2 -27.5 -6t-23.5 -5q-1 0 -8 -0.5t-8 -0.5z" />
    <glyph glyph-name="two.subs" horiz-adv-x="287" 
d="M102 133q-55 0 -67 -65h-63l29 80q21 18 58.5 31.5t57.5 13.5q52 0 86 -25.5t34 -66.5q0 -26 -30 -61.5t-60.5 -60t-82.5 -62.5q1 1 -2 -1t-8 -6v-2.5t1 -2.5q25 2 76.5 6.5t75.5 5.5l-14 -76h-262v41q113 87 155.5 132t42.5 85q0 16 -8 25t-19 9z" />
    <glyph glyph-name="three.subs" horiz-adv-x="287" 
d="M63 -121q17 0 32.5 16.5t15.5 47.5q-1 25 -13 38t-24 14l-54 -12l-7 44q116 26 116 83q0 29 -31 29q-11 0 -19 -4t-14 -14.5t-8 -15t-7 -18.5h-62l27 73q23 13 61 23t60 10q46 0 73.5 -20t27.5 -51q0 -26 -20 -45t-61 -42q0 -1 0.5 -3l0.5 -2q24 -12 42 -34.5t18 -46.5
q0 -48 -50 -81.5t-111 -33.5q-67 0 -110 25l-6 91h59q5 -20 10.5 -33t19.5 -25.5t34 -12.5z" />
    <glyph glyph-name="four.subs" horiz-adv-x="322" 
d="M85 -109l10 54h-129l-12 30q38 54 100.5 115.5t118.5 103.5l62 -11l-17 -83q-3 -16 -10 -52t-10 -55h58l-9 -47h-57l-10 -55q9 -1 26.5 -4t23.5 -4l-6 -42h-195l6 42zM37 -7h66l17 90q-62 -53 -86 -87l2 1q0 -3 1 -4z" />
    <glyph glyph-name="five.subs" horiz-adv-x="285" 
d="M33 -166q-37 0 -73 16l-18 9l1 88h57q4 -22 7 -32.5t14 -20.5t30 -10q23 0 44.5 23t21.5 60q0 45 -28 45q-30 0 -67 -27l-49 19l55 182h128l84 7l-23 -81l-63 3h-84l-19 -63q32 10 58 10q46 0 77.5 -22t31.5 -61q0 -30 -17.5 -59t-44.5 -46q-65 -40 -123 -40z" />
    <glyph glyph-name="six.subs" horiz-adv-x="304" 
d="M255 166q-72 -26 -109 -51.5t-62 -66.5q33 14 57 14q37 0 66.5 -21.5t30.5 -63.5q0 -64 -40 -93q-73 -50 -129 -50q-55 0 -86.5 26t-31.5 76q0 94 83 169t218 108zM109 11q-26 0 -53 -27l2 1q0 -1 -1 -5t-1 -6q-6 -24 -5 -34q1 -25 11.5 -39.5t26.5 -14.5q22 0 35 22
t12 54q-1 49 -27 49z" />
    <glyph glyph-name="seven.subs" horiz-adv-x="268" 
d="M237 186l8 -53q-124 -137 -163 -271q-10 -25 -66 -25q-14 0 -21.5 0.5t-15.5 3.5t-7.5 8t2.5 14q70 152 173 242q-3 3 -3 6h-95q-10 0 -30 -40h-51l39 118l73 -3h157z" />
    <glyph glyph-name="eight.subs" horiz-adv-x="303" 
d="M-52 -81q0 54 81 93l-5 -2v5q-34 26 -34 64q0 47 40 80.5t102 33.5q50 0 80 -21t31 -56q0 -47 -68 -82l-1 -2v-2q56 -31 57 -77q0 -45 -43.5 -82t-118.5 -37q-50 0 -85 23t-36 62zM132 -66q0 34 -64 58q-37 -30 -37 -67q0 -45 48 -45q22 0 37.5 15.5t15.5 38.5zM122 146
q-18 0 -27.5 -11t-9.5 -29q0 -30 43 -52q27 23 27 56q0 36 -33 36z" />
    <glyph glyph-name="nine.subs" horiz-adv-x="304" 
d="M-53 -136q72 25 108.5 49t63.5 63q-31 -13 -59 -13q-39 0 -68.5 21.5t-29.5 65.5q0 60 40 90q64 53 129 53q54 0 86.5 -27t32.5 -76q0 -52 -33 -109t-83 -91q-64 -40 -187 -70v44zM92 13q26 0 51 23l-3 -1q7 20 7 48q0 27 -10 43.5t-25 16.5q-21 0 -34.5 -22.5
t-13.5 -56.5q0 -51 28 -51z" />
    <glyph glyph-name="acute.case" horiz-adv-x="500" 
d="M185 498v18l86 119h124v-20l-139 -117h-71z" />
    <glyph glyph-name="grave.case" horiz-adv-x="500" 
d="M305 516v-18h-71l-109 117v20h124z" />
    <glyph glyph-name="circumflex.case" horiz-adv-x="500" 
d="M394 516v-18h-37l-81 58l-127 -58h-45v18l163 119h58z" />
    <glyph glyph-name="breve.case" horiz-adv-x="500" 
d="M243 488q-58 0 -87 34t-14 103h50q-5 -26 13 -44.5t54 -18.5q39 0 70.5 18t38.5 45h54q-15 -66 -67 -101.5t-112 -35.5z" />
    <glyph glyph-name="caron.case" horiz-adv-x="500" 
d="M156 617v18h37l76 -58l132 58h45v-18l-163 -119h-58z" />
    <glyph glyph-name="dotaccent.case" horiz-adv-x="500" 
d="M206 551q0 35 21.5 62t54.5 27q25 0 40 -19t15 -47q0 -35 -22.5 -60t-51.5 -25q-25 0 -41 18.5t-16 43.5z" />
    <glyph glyph-name="hungarumlaut.case" horiz-adv-x="500" 
d="M95 498v18l86 119h124v-20l-139 -117h-71zM265 498v18l86 119h124v-20l-139 -117h-71z" />
    <glyph glyph-name="sidecaron.part" horiz-adv-x="500" 
d="M215 489v8l71 209h106v-10l-109 -207h-68z" />
    <glyph glyph-name="gcomma.part" horiz-adv-x="500" 
d="M298 714l51 -34l-48 -85l-23 -99l-89 36l42 92z" />
    <glyph glyph-name="Stroke.part" horiz-adv-x="430" 
d="M76 519h732l-10 -64h-732z" />
    <glyph glyph-name="stroke.part" horiz-adv-x="430" 
d="M63 552h292l-10 -60h-292z" />
    <glyph glyph-name="uni2011.case" horiz-adv-x="335" 
d="M87 369l59 -2h105l77 2l-20 -108l-56 3h-121l-63 -3z" />
    <glyph glyph-name="acute.plk" horiz-adv-x="500" 
d="M215 498v18l61 154h109v-20l-104 -152h-66z" />
    <glyph glyph-name="acute.case.plk" horiz-adv-x="500" 
d="M210 498v18l61 119h99v-20l-94 -117h-66z" />
    <glyph glyph-name="idotaccent" horiz-adv-x="310" 
d="M296 96l-158 -103l-83 31l-8 52l82 316l-88 -28l-22 55l134 91l99 -12l22 -49l-82 -332l82 31zM167 656q0 37 23.5 64t58.5 27q29 0 51 -20.5t22 -57.5q0 -43 -22.5 -68t-57.5 -25t-55 22t-20 58z" />
    <glyph glyph-name="Dotlessi" horiz-adv-x="369" 
d="M103 663h315l-12 -73l-80 -14l-86 -489l74 -14l-12 -73h-315l12 73l80 14l86 489l-74 14z" />
    <glyph glyph-name="zero.tallfig" horiz-adv-x="623" 
d="M275 -14q-230 0 -230 257q0 93 30.5 175t79.5 137t110.5 87t123.5 32q100 0 158 -66t58 -193q0 -181 -95.5 -305t-234.5 -124zM378 583q-41 0 -76 -40t-55.5 -99.5t-32 -120t-11.5 -107.5q0 -72 24 -105.5t63 -33.5q43 0 81 56t59 139.5t21 166.5q0 144 -73 144z" />
    <glyph glyph-name="one.tallfig" horiz-adv-x="489" 
d="M105 491l-6 86q67 19 132.5 47.5t97.5 50.5l86 -10l-101 -574l117 -16l-13 -75h-392l12 75l122 16l75 435q-28 -10 -102 -29z" />
    <glyph glyph-name="two.tallfig" horiz-adv-x="537" 
d="M303 569q-36 0 -63 -12t-43 -32.5t-24.5 -40.5t-12.5 -43h-84l56 153q39 31 104 55.5t96 24.5q90 0 149.5 -48.5t59.5 -124.5q0 -32 -20 -69t-46.5 -68.5t-74 -73t-82 -67.5t-90.5 -68l-32 -24l5 -17l283 22l-25 -136h-461v75q202 161 288.5 254.5t86.5 166.5
q0 33 -20.5 53t-49.5 20z" />
    <glyph glyph-name="three.tallfig" horiz-adv-x="537" 
d="M230 64q38 0 73 34t35 96q-1 53 -30.5 80t-58.5 27l-83 -19l-12 71q104 25 161 67.5t57 98.5q0 60 -75 60q-26 0 -45.5 -9t-31.5 -26.5t-18 -30.5t-13 -35h-84l51 137q41 24 107.5 41.5t106.5 17.5q79 0 125.5 -37t46.5 -95q0 -51 -38 -87.5t-115 -82.5l1 -10
q45 -18 79 -60t34 -96q0 -92 -89 -156t-197 -64q-110 0 -190 45l-13 171h76q9 -29 16.5 -47t23 -42t41 -36.5t59.5 -12.5z" />
    <glyph glyph-name="four.tallfig" horiz-adv-x="603" 
d="M289 92l20 111h-246l-23 55l-1 -1q69 98 187 217t224 200l88 -18l-32 -157l-36 -212h107l-16 -83h-107l-19 -113l94 -16l-12 -75h-332l13 75zM358 479l-15 8q-123 -110 -180 -188l4 -12h157z" />
    <glyph glyph-name="five.tallfig" horiz-adv-x="534" 
d="M174 -14q-65 0 -129 33l-25 12q0 23 1 82.5t1 82.5h70q6 -31 10.5 -46.5t16.5 -36t34 -29.5t55 -9q49 0 95.5 46t46.5 120q0 92 -71 92q-59 0 -131 -47l-71 26q17 57 53 174.5t52 174.5h227q23 1 68 5t67 6l-40 -145l-100 6h-177l-39 -132l12 -6q21 9 57.5 17.5t58.5 8.5
q80 0 135 -42t55 -115q0 -57 -30.5 -113t-77.5 -86q-127 -78 -224 -79z" />
    <glyph glyph-name="six.tallfig" horiz-adv-x="569" 
d="M250 392l6 -7q71 35 123 35q63 0 112 -40t52 -118q0 -44 -15 -96.5t-53 -81.5q-138 -98 -233 -98q-96 0 -151.5 49.5t-55.5 143.5q0 181 147 324t387 205l6 -81q-142 -55 -209.5 -102.5t-115.5 -132.5zM317 331q-62 0 -114 -55l-4 -22q-10 -44 -8 -66q3 -51 27 -80.5
t61 -29.5q51 0 80.5 44t27.5 108q-1 50 -21 75.5t-49 25.5z" />
    <glyph glyph-name="seven.tallfig" horiz-adv-x="503" 
d="M540 661l14 -101q-234 -268 -308 -520q-16 -47 -105 -47q-40 0 -57.5 9.5t-9.5 34.5q145 310 331 473l-8 15l-194 1q-33 0 -69 -74l-3 -6h-63q13 41 40.5 122.5t33.5 98.5l119 -6h279z" />
    <glyph glyph-name="eight.tallfig" horiz-adv-x="568" 
d="M30 148q0 60 38.5 101.5t106.5 74.5l1 9q-67 53 -67 125q0 90 71 153t179 63q87 0 139.5 -39.5t54.5 -103.5q0 -43 -34 -86.5t-95 -74.5l-1 -8q51 -28 78 -63.5t28 -86.5q0 -84 -77 -155t-211 -71q-88 0 -148.5 44t-62.5 118zM237 299h-3q-81 -60 -81 -141q0 -90 108 -90
q47 0 81.5 30.5t34.5 77.5q0 40 -36 68t-104 55zM341 593q-41 0 -64.5 -22.5t-23.5 -58.5q0 -34 23.5 -59t79.5 -53q67 51 67 119q0 35 -21.5 54.5t-60.5 19.5z" />
    <glyph glyph-name="nine.tallfig" horiz-adv-x="569" 
d="M361 269l-7 7q-77 -40 -128 -40q-68 0 -118.5 41.5t-50.5 124.5q0 44 15.5 92t52.5 77q127 103 233 103q95 0 150.5 -50.5t55.5 -144.5q0 -101 -59.5 -210t-148.5 -173q-140 -84 -327 -132v77q143 52 211.5 98.5t120.5 129.5zM284 325q60 0 111 44q14 45 14 96
q0 56 -24 88.5t-64 32.5q-47 0 -77 -44.5t-30 -113.5q0 -51 19.5 -77t50.5 -26z" />
    <glyph glyph-name="zero.tallfig.tnum" horiz-adv-x="560" 
d="M247 -14q-221 0 -221 257q0 93 29 175t76 137t106 87t119 32q96 0 152 -66t56 -193q0 -181 -91.5 -305t-225.5 -124zM346 583q-52 0 -92.5 -69t-58 -150.5t-17.5 -147.5q0 -72 23 -105.5t60 -33.5q41 0 77.5 56t57 139.5t20.5 166.5q0 144 -70 144z" />
    <glyph glyph-name="one.tallfig.tnum" horiz-adv-x="560" 
d="M145 491l-6 86q67 19 132.5 47.5t97.5 50.5l86 -10l-101 -574l117 -16l-13 -75h-392l12 75l122 16l75 435q-28 -10 -102 -29z" />
    <glyph glyph-name="two.tallfig.tnum" horiz-adv-x="560" 
d="M312 569q-36 0 -63 -12t-43 -32.5t-24.5 -40.5t-12.5 -43h-84l56 153q39 31 104 55.5t96 24.5q90 0 149.5 -48.5t59.5 -124.5q0 -32 -20 -69t-46.5 -68.5t-74 -73t-82 -67.5t-90.5 -68l-32 -24l5 -17l283 22l-25 -136h-461v75q202 161 288.5 254.5t86.5 166.5
q0 33 -20.5 53t-49.5 20z" />
    <glyph glyph-name="three.tallfig.tnum" horiz-adv-x="560" 
d="M239 64q38 0 73 34t35 96q-1 53 -30.5 80t-58.5 27l-83 -19l-12 71q104 25 161 67.5t57 98.5q0 60 -75 60q-26 0 -45.5 -9t-31.5 -26.5t-18 -30.5t-13 -35h-84l51 137q41 24 107.5 41.5t106.5 17.5q79 0 125.5 -37t46.5 -95q0 -51 -37.5 -87.5t-115.5 -82.5l1 -10
q45 -18 79 -60t34 -96q0 -92 -89 -156t-197 -64q-110 0 -190 45l-13 171h76q9 -29 16.5 -47t23 -42t41 -36.5t59.5 -12.5z" />
    <glyph glyph-name="four.tallfig.tnum" horiz-adv-x="560" 
d="M271 92l20 111h-246l-23 55l-1 -1q69 98 187 217t224 200l88 -18l-32 -157l-36 -212h107l-16 -83h-107l-19 -113l94 -16l-12 -75h-332l13 75zM340 479l-15 8q-123 -110 -180 -188l4 -12h157z" />
    <glyph glyph-name="five.tallfig.tnum" horiz-adv-x="560" 
d="M184 -14q-65 0 -129 33l-25 12q0 23 1 82.5t1 82.5h70q6 -31 10.5 -46.5t16.5 -36t34 -29.5t55 -9q49 0 95.5 46t46.5 120q0 92 -71 92q-59 0 -131 -47l-71 26q17 57 52.5 174.5t52.5 174.5h227q23 1 68 5t67 6l-40 -145l-100 6h-177l-39 -132l12 -6q21 9 57.5 17.5
t58.5 8.5q80 0 135 -42t55 -115q0 -57 -30.5 -113t-77.5 -86q-127 -78 -224 -79z" />
    <glyph glyph-name="six.tallfig.tnum" horiz-adv-x="560" 
d="M243 392l6 -7q71 35 123 35q63 0 112 -40t52 -118q0 -44 -15 -96.5t-53 -81.5q-138 -98 -233 -98q-96 0 -151.5 49.5t-55.5 143.5q0 181 147 324t387 205l6 -81q-142 -55 -209.5 -102.5t-115.5 -132.5zM310 331q-62 0 -114 -55l-4 -22q-10 -44 -8 -66q3 -51 27 -80.5
t61 -29.5q51 0 80.5 44t27.5 108q-1 50 -21 75.5t-49 25.5z" />
    <glyph glyph-name="seven.tallfig.tnum" horiz-adv-x="560" 
d="M574 661l14 -101q-234 -268 -308 -520q-16 -47 -105 -47q-40 0 -57.5 9.5t-9.5 34.5q145 310 331 473l-8 15l-194 1q-33 0 -69 -74l-3 -6h-63q13 41 40.5 122.5t33.5 98.5l119 -6h279z" />
    <glyph glyph-name="eight.tallfig.tnum" horiz-adv-x="560" 
d="M26 148q0 60 38.5 101.5t106.5 74.5l1 9q-67 53 -67 125q0 90 71 153t179 63q87 0 139.5 -39.5t54.5 -103.5q0 -43 -34 -86.5t-95 -74.5l-1 -8q51 -28 78 -63.5t28 -86.5q0 -84 -77 -155t-211 -71q-88 0 -148.5 44t-62.5 118zM233 299h-3q-81 -60 -81 -141q0 -90 108 -90
q47 0 81.5 30.5t34.5 77.5q0 40 -36 68t-104 55zM337 593q-41 0 -64.5 -22.5t-23.5 -58.5q0 -34 23.5 -59t79.5 -53q67 51 67 119q0 35 -21.5 54.5t-60.5 19.5z" />
    <glyph glyph-name="nine.tallfig.tnum" horiz-adv-x="560" 
d="M365 269l-7 7q-77 -40 -128 -40q-68 0 -118.5 41.5t-50.5 124.5q0 44 15.5 92t52.5 77q127 103 233 103q95 0 150.5 -50.5t55.5 -144.5q0 -101 -59.5 -210t-148.5 -173q-140 -84 -327 -132v77q143 52 211.5 98.5t120.5 129.5zM288 325q60 0 111 44q14 45 14 96
q0 56 -24 88.5t-64 32.5q-47 0 -77 -44.5t-30 -113.5q0 -51 19.5 -77t50.5 -26z" />
    <glyph glyph-name="at.tallfig" horiz-adv-x="816" 
d="M700 449q0 34 -8.5 69t-28.5 72.5t-60 61t-95 23.5q-93 0 -175.5 -70.5t-130 -180.5t-47.5 -225q0 -114 41.5 -171t117.5 -57q86 0 165 64l26 -50q-45 -36 -99.5 -56t-100.5 -20q-114 0 -173.5 76.5t-59.5 214.5q0 123 58 245t161 203t220 81q123 0 196 -77t73 -203
q0 -68 -21.5 -127.5t-55 -99.5t-74 -69t-77.5 -42.5t-66 -13.5q-42 0 -42 47q0 30 21 82l-5 4q-27 -38 -47.5 -63t-54 -48.5t-65.5 -23.5q-31 0 -48 26t-17 59q0 83 59 184q46 77 107 128t116 51q28 0 42 -27q7 16 14.5 21t30.5 5q22 0 30 -5.5t5 -17.5l-106 -326v1
q-6 -25 8 -25q17 0 43.5 19t54.5 52.5t48 89.5t20 119zM317 213q0 -39 18 -39q32 0 90 77t99 178v-1q8 63 -24 63t-68 -33t-64 -84q-51 -91 -51 -161z" />
    <glyph glyph-name="dollar.tallfig" horiz-adv-x="562" 
d="M22 35l17 175h57q6 -59 38.5 -92t84.5 -35l33 193q-19 11 -22 13q-28 15 -42.5 23.5t-38.5 26.5t-36 34.5t-21.5 42.5t-9.5 56q0 86 74 140t165 61l18 107h42l-19 -106q107 -4 155 -40l-19 -169h-56q-9 50 -34.5 81.5t-60.5 36.5l-31 -178l23 -11q34 -16 54.5 -29
t46.5 -35t38.5 -52t12.5 -68q0 -82 -67.5 -144.5t-178.5 -74.5l-19 -115h-43l19 112h-2q-46 0 -102 14t-76 33zM336 181q0 40 -46 72l-28 -165q32 9 53 33t21 60zM232 499q0 -40 46 -72l27 154q-34 -7 -53.5 -29t-19.5 -53z" />
    <glyph glyph-name="cent.tallfig" horiz-adv-x="433" 
d="M299 558q67 0 93 -68v-25l-42 -61h-40q-4 59 -31 72l-48 -272q45 9 82 46l33 -41q-63 -62 -128 -79l-17 -100h-48l16 93h-1q-56 0 -90 32.5t-34 91.5q0 162 97 232q56 45 102 66l20 111h48l-17 -98h5zM167 275q0 -49 18 -64l44 255q-28 -23 -45 -76.5t-17 -114.5z" />
    <glyph glyph-name="sterling.tallfig" horiz-adv-x="564" 
d="M90 377h82l12 67q10 59 49.5 101t101.5 79h-1q90 50 144 50q42 0 89 -19l-30 -170h-53q-1 46 -17.5 71.5t-43.5 25.5q-33 0 -62.5 -24t-39.5 -83l-17 -98h126l-12 -65h-125q-12 -53 -38 -93t-70 -85l5 -9q28 4 93 -5q54 -7 67 -7q71 0 99 100h53l-48 -217q-24 -9 -67 -9
q-54 0 -164 32q-67 19 -98 23q-35 -55 -82 -55q-18 0 -27 12.5t-5 33.5q4 22 28 44t51 28q47 64 63 163l7 44h-82z" />
    <glyph glyph-name="yen.tallfig" horiz-adv-x="571" 
d="M324 402h18q32 71 82 141.5t97 112.5q17 12 34 12q24 0 43.5 -16t19.5 -35q0 -16 -15 -23q-115 -65 -242 -288l-5 -30h124q-1 -8 -4 -23t-4 -23h-124l-7 -43h124l-9 -47h-123l-8 -50l82 -14l-12 -76h-326l12 75l86 15l8 50h-118q1 8 4 23.5t4 23.5h118l8 43h-119
q1 8 4 23t4 23h119l6 36q-12 67 -47 140.5t-77 111.5l-48 10v72l125 32q57 -16 102 -99.5t64 -176.5z" />
    <glyph glyph-name="Euro.tallfig" horiz-adv-x="672" 
d="M89 416h64q45 117 135.5 187.5t193.5 70.5q104 0 184 -66l-54 -132h-34q2 9 2 28q0 52 -31 74.5t-69 22.5q-56 0 -104 -47t-77 -138h287l-19 -53h-283l-6 -33q-2 -7 -4 -21h273q-3 -9 -10 -26.5t-10 -25.5h-259v-27q0 -87 32.5 -127t85.5 -40q95 0 151 116q9 -4 26 -11
t25 -11q-41 -81 -103 -125.5t-135 -44.5q-101 0 -165.5 68t-64.5 189v13h-70q3 8 10 25.5t10 26.5h55q2 14 4 20q5 25 7 34h-67z" />
    <glyph glyph-name="numbersign.tallfig" horiz-adv-x="525" 
d="M96 521l99 -14l42 206q10 -1 29 -4t29 -4l-42 -207l92 -13l47 228q10 -1 29 -4t29 -4l-47 -228l106 -15q-1 -11 -4 -35.5t-4 -35.5l-112 15l-33 -160l93 -13q-1 -11 -4 -35t-4 -36q-33 4 -99 14l-43 -212q-10 1 -29 3.5t-29 3.5l43 213q-26 3 -92 14l-48 -234
q-10 1 -29.5 3t-29.5 4l48 235l-105 15q1 12 4 35.5t4 35.5l111 -16l33 161q-62 8 -93 13zM331 415l-92 13l-33 -161l92 -13z" />
    <glyph glyph-name="percent.tallfig" horiz-adv-x="573" 
d="M297 548l-9 -3q0 -85 -44 -142t-101 -57q-48 0 -78.5 38t-30.5 96q0 78 47.5 136t102.5 58q68 0 92 -63q6 -17 26.5 -27t45.5 -10q52 0 95 34q31 60 74 60q8 0 15 -7.5t7 -19.5q0 -32 -45 -61l-218 -303q-22 -33 -200 -299l-50 34l209 283l166 242l-6 5q-27 -15 -50 -15
q-27 0 -48 21zM287 120q0 79 47.5 136.5t103.5 57.5q46 0 75 -33t29 -90q0 -91 -44 -147.5t-99 -56.5q-50 0 -81 37.5t-31 95.5zM461 240q-30 0 -56.5 -47.5t-26.5 -102.5q0 -26 11.5 -40t28.5 -14q30 0 55.5 37.5t25.5 110.5q0 27 -10.5 41.5t-27.5 14.5zM208 596
q-29 0 -56 -48t-27 -102t41 -54q29 0 54.5 42t25.5 105q0 57 -38 57z" />
    <glyph glyph-name="perthousand.tallfig" horiz-adv-x="853" 
d="M572 120q0 79 47.5 136.5t102.5 57.5q46 0 75 -33t29 -90q0 -91 -44 -147.5t-99 -56.5q-50 0 -80.5 37.5t-30.5 95.5zM746 240q-30 0 -56.5 -47.5t-26.5 -102.5q0 -26 11 -40t28 -14q30 0 56 38t26 110q0 27 -10.5 41.5t-27.5 14.5zM297 548l-9 -3q0 -85 -44 -142
t-101 -57q-48 0 -78.5 38t-30.5 96q0 78 47.5 136t102.5 58q68 0 92 -63q6 -17 26.5 -27t45.5 -10q52 0 95 34q31 60 74 60q8 0 15 -7.5t7 -19.5q0 -32 -45 -61l-218 -303q-22 -33 -200 -299l-50 34l209 283l166 242l-6 5q-27 -15 -50 -15q-27 0 -48 21zM287 120
q0 79 47.5 136.5t103.5 57.5q46 0 75 -33t29 -90q0 -91 -44 -147.5t-99 -56.5q-50 0 -81 37.5t-31 95.5zM461 240q-30 0 -56.5 -47.5t-26.5 -102.5q0 -26 11.5 -40t28.5 -14q30 0 55.5 37.5t25.5 110.5q0 27 -10.5 41.5t-27.5 14.5zM208 596q-29 0 -56 -48t-27 -102t41 -54
q29 0 54.5 42t25.5 105q0 57 -38 57z" />
    <glyph glyph-name="ordfeminine.tallfig" horiz-adv-x="385" 
d="M298 312l-65 16l-1 52l-2 1q-32 -29 -67.5 -48.5t-56.5 -19.5q-68 0 -68 102q0 60 27.5 124t73.5 101q71 54 111 54q30 0 60 -19l24 22l67 -15l-64 -276l54 19l21 -39zM152 449q0 -40 16 -40q8 0 32 13t40 27q2 10 15.5 72t19.5 92q-16 12 -31 12q-33 0 -62.5 -56.5
t-29.5 -119.5z" />
    <glyph glyph-name="ordmasculine.tallfig" horiz-adv-x="356" 
d="M270 701q46 0 77 -27t31 -83q0 -137 -76 -209q-85 -69 -154 -69q-53 0 -81.5 31.5t-28.5 79.5q0 149 80 211q91 66 152 66zM152 463q0 -71 30 -71q27 0 46.5 30.5t27.5 66t8 66.5q0 67 -27 67q-37 0 -61 -46.5t-24 -112.5z" />
    <glyph glyph-name="degree.tallfig" horiz-adv-x="367" 
d="M90 524q0 59 42 101.5t101 42.5t101.5 -42.5t42.5 -101.5t-42.5 -101t-101.5 -42t-101 42.5t-42 100.5zM162 524q0 -32 19.5 -55t50.5 -23q32 0 52 23t20 55q0 33 -20 56.5t-52 23.5q-31 0 -50.5 -23.5t-19.5 -56.5z" />
    <glyph glyph-name="zero.numr.tallfig" horiz-adv-x="333" 
d="M148 349q-131 0 -131 135q0 95 59 159.5t131 64.5q58 0 91 -34.5t33 -101.5q0 -94 -53 -158.5t-130 -64.5zM202 656q-26 0 -46 -35t-28.5 -76.5t-8.5 -74.5q0 -70 37 -70q30 0 52.5 59t22.5 125q0 72 -29 72z" />
    <glyph glyph-name="one.numr.tallfig" horiz-adv-x="261" 
d="M48 609l-3 46q89 27 124 53l61 -6l-53 -295q9 -1 30.5 -4.5t30.5 -4.5l-7 -42h-225l6 42l64 9l39 214q-9 -2 -27.5 -6t-23.5 -5q-1 0 -8 -0.5t-8 -0.5z" />
    <glyph glyph-name="two.numr.tallfig" horiz-adv-x="287" 
d="M162 648q-55 0 -67 -65h-63l29 80q21 18 58.5 31.5t57.5 13.5q52 0 86 -25.5t34 -66.5q0 -26 -30 -61.5t-60.5 -60t-82.5 -62.5q1 1 -2 -1t-8 -6v-2.5t1 -2.5q25 2 76.5 6.5t75.5 5.5l-14 -76h-262v41q113 87 155.5 132t42.5 85q0 16 -8 25t-19 9z" />
    <glyph glyph-name="three.numr.tallfig" horiz-adv-x="287" 
d="M123 394q17 0 32.5 16.5t15.5 47.5q-1 25 -13 38t-24 14l-54 -12l-7 44q116 26 116 83q0 29 -31 29q-11 0 -19 -4t-14 -14.5t-8 -15t-7 -18.5h-62l27 73q23 13 61 23t60 10q46 0 73.5 -20t27.5 -51q0 -26 -20 -45t-61 -42v-2q1 -2 1 -3q24 -12 42 -34.5t18 -46.5
q0 -48 -50 -81.5t-111 -33.5q-67 0 -110 25l-6 91h59q5 -20 10.5 -33t19.5 -25.5t34 -12.5z" />
    <glyph glyph-name="four.numr.tallfig" horiz-adv-x="322" 
d="M145 406l10 54h-129l-12 30q38 54 100.5 115.5t118.5 103.5l62 -11l-17 -83q-3 -16 -10 -52t-10 -55h58l-9 -47h-57l-10 -55q9 -1 26.5 -4t23.5 -4l-6 -42h-195l6 42zM97 508h66l17 90q-62 -53 -86 -87l2 1q0 -3 1 -4z" />
    <glyph glyph-name="five.numr.tallfig" horiz-adv-x="285" 
d="M93 349q-37 0 -73 16l-18 9l1 88h57q4 -22 7 -32t14 -20.5t30 -10.5q23 0 44.5 23t21.5 60q0 45 -28 45q-30 0 -67 -27l-49 19l55 182h128l84 7l-23 -81l-63 3h-84l-19 -63q32 10 58 10q46 0 77.5 -22t31.5 -61q0 -30 -17.5 -59t-44.5 -46q-65 -40 -123 -40z" />
    <glyph glyph-name="six.numr.tallfig" horiz-adv-x="304" 
d="M315 681q-72 -26 -109 -51.5t-62 -66.5q33 14 57 14q37 0 66.5 -21.5t30.5 -63.5q0 -64 -40 -93q-73 -50 -129 -50q-55 0 -86.5 26t-31.5 76q0 94 83 169t218 108zM169 526q-26 0 -53 -27l2 1q0 -2 -1 -6t-1 -5q-6 -24 -5 -34q1 -25 11.5 -39.5t26.5 -14.5q22 0 35 22
t12 54q-1 49 -27 49z" />
    <glyph glyph-name="seven.numr.tallfig" horiz-adv-x="268" 
d="M297 701l8 -53q-124 -137 -163 -271q-10 -25 -66 -25q-14 0 -21.5 0.5t-15.5 3.5t-7.5 8t2.5 14q70 152 173 242q-3 3 -3 6h-95q-10 0 -30 -40h-51l39 118l73 -3h157z" />
    <glyph glyph-name="eight.numr.tallfig" horiz-adv-x="303" 
d="M8 434q0 54 81 93l-5 -2v5q-34 26 -34 64q0 47 40 80.5t102 33.5q50 0 80 -21t31 -56q0 -47 -68 -82q0 -1 -0.5 -2t-0.5 -2q56 -31 57 -77q0 -45 -43.5 -82t-118.5 -37q-50 0 -85 23t-36 62zM192 449q0 34 -64 58q-37 -30 -37 -67q0 -45 48 -45q22 0 37.5 15.5t15.5 38.5
zM182 661q-18 0 -27.5 -11t-9.5 -29q0 -31 43 -52q27 23 27 56q0 36 -33 36z" />
    <glyph glyph-name="nine.numr.tallfig" horiz-adv-x="304" 
d="M7 379q72 25 108.5 49t63.5 63q-31 -13 -59 -13q-39 0 -68.5 21.5t-29.5 65.5q0 60 40 90q64 53 129 53q54 0 86.5 -27t32.5 -76q0 -52 -33 -109t-83 -91q-64 -40 -187 -70v44zM152 528q26 0 51 23l-3 -1q7 20 7 48q0 27 -10 43.5t-25 16.5q-21 0 -34.5 -22.5
t-13.5 -56.5q0 -51 28 -51z" />
    <glyph glyph-name="zero.dnom.tallfig" horiz-adv-x="333" 
d="M148 -6q-131 0 -131 135q0 95 59 159.5t131 64.5q58 0 91 -34.5t33 -101.5q0 -94 -53 -158.5t-130 -64.5zM202 301q-26 0 -46 -35t-28.5 -76.5t-8.5 -74.5q0 -70 37 -70q30 0 52.5 59t22.5 125q0 72 -29 72z" />
    <glyph glyph-name="one.dnom.tallfig" horiz-adv-x="261" 
d="M48 254l-3 46q89 27 124 53l61 -6l-53 -295q9 -1 30.5 -4.5t30.5 -4.5l-7 -42h-225l6 42l64 9l39 214q-9 -2 -27.5 -6t-23.5 -5q-1 0 -8 -0.5t-8 -0.5z" />
    <glyph glyph-name="two.dnom.tallfig" horiz-adv-x="287" 
d="M162 293q-55 0 -67 -65h-63l29 80q21 18 58.5 31.5t57.5 13.5q52 0 86 -25.5t34 -66.5q0 -26 -30 -61.5t-60.5 -60t-82.5 -62.5q1 1 -2 -1t-8 -6v-2.5t1 -2.5q25 2 76.5 6.5t75.5 5.5l-14 -76h-262v41q113 87 155.5 132t42.5 85q0 16 -8 25t-19 9z" />
    <glyph glyph-name="three.dnom.tallfig" horiz-adv-x="287" 
d="M123 39q17 0 32.5 16.5t15.5 47.5q-1 25 -13 38t-24 14l-54 -12l-7 44q116 26 116 83q0 29 -31 29q-11 0 -19 -4t-14 -14.5t-8 -15t-7 -18.5h-62l27 73q23 13 61 23t60 10q46 0 73.5 -20t27.5 -51q0 -26 -20 -45t-61 -42q0 -1 0.5 -3l0.5 -2q24 -12 42 -34.5t18 -46.5
q0 -48 -50 -81.5t-111 -33.5q-67 0 -110 25l-6 91h59q5 -20 10.5 -33t19.5 -25.5t34 -12.5z" />
    <glyph glyph-name="four.dnom.tallfig" horiz-adv-x="322" 
d="M145 51l10 54h-129l-12 30q38 54 100.5 115.5t118.5 103.5l62 -11l-17 -83q-3 -16 -10 -52t-10 -55h58l-9 -47h-57l-10 -55q9 -1 27 -4t23 -4l-6 -42h-195l6 42zM97 153h66l17 90q-62 -53 -86 -87l2 1q0 -3 1 -4z" />
    <glyph glyph-name="five.dnom.tallfig" horiz-adv-x="285" 
d="M93 -6q-37 0 -73 16l-18 9l1 88h57q4 -22 7 -32.5t14 -20.5t30 -10q23 0 44.5 23t21.5 60q0 45 -28 45q-30 0 -67 -27l-49 19l55 182h128l84 7l-23 -81l-63 3h-84l-19 -63q32 10 58 10q46 0 77.5 -22t31.5 -61q0 -30 -17.5 -59t-44.5 -46q-65 -40 -123 -40z" />
    <glyph glyph-name="six.dnom.tallfig" horiz-adv-x="304" 
d="M315 326q-72 -26 -109 -51.5t-62 -66.5q33 14 57 14q37 0 66.5 -21.5t30.5 -63.5q0 -64 -40 -93q-73 -50 -129 -50q-55 0 -86.5 26t-31.5 76q0 94 83 169t218 108zM169 171q-26 0 -53 -27l2 1q0 -1 -1 -5t-1 -6q-6 -24 -5 -34q1 -25 11.5 -39.5t26.5 -14.5q22 0 35 22
t12 54q-1 49 -27 49z" />
    <glyph glyph-name="seven.dnom.tallfig" horiz-adv-x="268" 
d="M297 346l8 -53q-124 -137 -163 -271q-10 -25 -66 -25q-14 0 -21.5 0.5t-15.5 3.5t-7.5 8t2.5 14q70 152 173 242q-3 3 -3 6h-95q-10 0 -30 -40h-51l39 118l73 -3h157z" />
    <glyph glyph-name="eight.dnom.tallfig" horiz-adv-x="303" 
d="M8 79q0 54 81 93l-5 -2v5q-34 26 -34 64q0 47 40 80.5t102 33.5q50 0 80 -21t31 -56q0 -47 -68 -82l-1 -2v-2q56 -31 57 -77q0 -45 -43.5 -82t-118.5 -37q-50 0 -85 23t-36 62zM192 94q0 34 -64 58q-37 -30 -37 -67q0 -45 48 -45q22 0 37.5 15.5t15.5 38.5zM182 306
q-18 0 -27.5 -11t-9.5 -29q0 -30 43 -52q27 23 27 56q0 36 -33 36z" />
    <glyph glyph-name="nine.dnom.tallfig" horiz-adv-x="304" 
d="M7 24q72 25 108.5 49t63.5 63q-31 -13 -59 -13q-39 0 -68.5 21.5t-29.5 65.5q0 60 40 90q64 53 129 53q54 0 86.5 -27t32.5 -76q0 -52 -33 -109t-83 -91q-64 -40 -187 -70v44zM152 173q26 0 51 23l-3 -1q7 20 7 48q0 27 -10 43.5t-25 16.5q-21 0 -34.5 -22.5t-13.5 -56.5
q0 -51 28 -51z" />
    <glyph glyph-name="uni2032.tallfig" horiz-adv-x="290" 
d="M130 459l71 269l122 -43l-116 -253z" />
    <glyph glyph-name="uni2033.tallfig" horiz-adv-x="480" 
d="M130 459l71 269l122 -43l-116 -253zM320 459l71 269l122 -43l-116 -253z" />
    <glyph glyph-name="dotaccentlow" horiz-adv-x="500" 
d="M148 -152q0 38 24 68t60 30q28 0 44 -21t16 -52q0 -38 -24.5 -65.5t-56.5 -27.5q-28 0 -45.5 20t-17.5 48z" />
    <glyph glyph-name="acute.lchigh" horiz-adv-x="500" 
d="M185 498v18l86 119h124v-20l-139 -117h-71z" />
    <glyph glyph-name="Iacute_Jacute" horiz-adv-x="737" 
d="M103 663h315l-12 -73l-80 -14l-86 -489l74 -14l-12 -73h-315l12 73l80 14l86 489l-74 14zM204 721v18l86 119h124v-20l-139 -117h-71zM441 35l95 541l-85 14l12 73h329l-12 -73l-84 -14l-83 -471q-9 -54 -19.5 -83.5t-36.5 -60.5q-60 -69 -232 -190l-39 50q87 84 118 123
q26 33 37 91zM572 721v18l86 119h124v-20l-139 -117h-71z" />
    <glyph glyph-name="iacute_jacute" horiz-adv-x="609" 
d="M462 510l107 -16l17 -47l-95 -486l-72 -103l-139 -101l-39 63l108 117l90 455l-88 -29l-20 57zM296 96l-158 -103l-83 31l-8 52l82 316l-88 -28l-22 55l134 91l99 -12l22 -49l-82 -332l82 31zM145 570v18l101 154h124v-20l-154 -152h-71zM460 570v18l101 154h124v-20
l-154 -152h-71z" />
    <glyph glyph-name="twosevenths" 
d="M41 -16l320 370l298 353l49 -44l-308 -349l-310 -375zM192 635q-55 0 -67 -65h-63l29 80q21 18 58.5 31.5t57.5 13.5q52 0 86 -25.5t34 -66.5q0 -26 -30 -61.5t-60.5 -60t-82.5 -62.5q1 1 -2 -1t-8 -6v-2.5t1 -2.5q25 2 76.5 6.5t75.5 5.5l-14 -76h-262v41
q113 87 155.5 132t42.5 85q0 16 -8 25t-19 9zM700 327l8 -53q-124 -137 -163 -271q-10 -25 -66 -25q-14 0 -21.5 0.5t-15.5 3.5t-7.5 8t2.5 14q70 152 173 242q-3 3 -3 6h-95q-10 0 -30 -40h-51l39 118l73 -3h157z" />
    <glyph glyph-name="twoninths" 
d="M41 -16l320 370l298 353l49 -44l-308 -349l-310 -375zM192 635q-55 0 -67 -65h-63l29 80q21 18 58.5 31.5t57.5 13.5q52 0 86 -25.5t34 -66.5q0 -26 -30 -61.5t-60.5 -60t-82.5 -62.5q1 1 -2 -1t-8 -6v-2.5t1 -2.5q25 2 76.5 6.5t75.5 5.5l-14 -76h-262v41
q113 87 155.5 132t42.5 85q0 16 -8 25t-19 9zM410 5q72 25 108.5 49t63.5 63q-31 -13 -59 -13q-39 0 -68.5 21.5t-29.5 65.5q0 60 40 90q64 53 129 53q54 0 86.5 -27t32.5 -76q0 -52 -33 -109t-83 -91q-64 -40 -187 -70v44zM555 154q26 0 51 23l-3 -1q7 20 7 48
q0 27 -10 43.5t-25 16.5q-21 0 -34.5 -22.5t-13.5 -56.5q0 -51 28 -51z" />
    <glyph glyph-name="threesevenths" 
d="M41 -16l320 370l298 353l49 -44l-308 -349l-310 -375zM173 381q17 0 32.5 16.5t15.5 47.5q-1 25 -13 38t-24 14l-54 -12l-7 44q116 26 116 83q0 29 -31 29q-11 0 -19 -4t-14 -14.5t-8 -15t-7 -18.5h-62l27 73q23 13 61 23t60 10q46 0 73.5 -20t27.5 -51q0 -26 -20 -45
t-61 -42q0 -1 0.5 -3l0.5 -2q24 -12 42 -34.5t18 -46.5q0 -48 -50 -81.5t-111 -33.5q-67 0 -110 25l-6 91h59q5 -20 10.5 -33t19.5 -25.5t34 -12.5zM700 327l8 -53q-124 -137 -163 -271q-10 -25 -66 -25q-14 0 -21.5 0.5t-15.5 3.5t-7.5 8t2.5 14q70 152 173 242q-3 3 -3 6
h-95q-10 0 -30 -40h-51l39 118l73 -3h157z" />
    <glyph glyph-name="foursevenths" 
d="M41 -16l320 370l298 353l49 -44l-308 -349l-310 -375zM140 393l10 54h-129l-12 30q38 54 100.5 115.5t118.5 103.5l62 -11l-17 -83q-3 -16 -10 -52t-10 -55h58l-9 -47h-57l-10 -55q9 -1 26.5 -4t23.5 -4l-6 -42h-195l6 42zM92 495h66l17 90q-62 -53 -86 -87l2 1
q0 -3 1 -4zM700 327l8 -53q-124 -137 -163 -271q-10 -25 -66 -25q-14 0 -21.5 0.5t-15.5 3.5t-7.5 8t2.5 14q70 152 173 242q-3 3 -3 6h-95q-10 0 -30 -40h-51l39 118l73 -3h157z" />
    <glyph glyph-name="fourninths" 
d="M41 -16l320 370l298 353l49 -44l-308 -349l-310 -375zM140 393l10 54h-129l-12 30q38 54 100.5 115.5t118.5 103.5l62 -11l-17 -83q-3 -16 -10 -52t-10 -55h58l-9 -47h-57l-10 -55q9 -1 26.5 -4t23.5 -4l-6 -42h-195l6 42zM92 495h66l17 90q-62 -53 -86 -87l2 1
q0 -3 1 -4zM410 5q72 25 108.5 49t63.5 63q-31 -13 -59 -13q-39 0 -68.5 21.5t-29.5 65.5q0 60 40 90q64 53 129 53q54 0 86.5 -27t32.5 -76q0 -52 -33 -109t-83 -91q-64 -40 -187 -70v44zM555 154q26 0 51 23l-3 -1q7 20 7 48q0 27 -10 43.5t-25 16.5q-21 0 -34.5 -22.5
t-13.5 -56.5q0 -51 28 -51z" />
    <glyph glyph-name="fivesevenths" 
d="M41 -16l320 370l298 353l49 -44l-308 -349l-310 -375zM145 336q-37 0 -73 16l-18 9l1 88h57q4 -22 7 -32.5t14 -20.5t30 -10q23 0 44.5 23t21.5 60q0 45 -28 45q-30 0 -67 -27l-49 19l55 182h128l84 7l-23 -81l-63 3h-84l-19 -63q32 10 58 10q46 0 77.5 -22t31.5 -61
q0 -30 -17.5 -59t-44.5 -46q-65 -40 -123 -40zM700 327l8 -53q-124 -137 -163 -271q-10 -25 -66 -25q-14 0 -21.5 0.5t-15.5 3.5t-7.5 8t2.5 14q70 152 173 242q-3 3 -3 6h-95q-10 0 -30 -40h-51l39 118l73 -3h157z" />
    <glyph glyph-name="fiveninths" 
d="M41 -16l320 370l298 353l49 -44l-308 -349l-310 -375zM145 336q-37 0 -73 16l-18 9l1 88h57q4 -22 7 -32.5t14 -20.5t30 -10q23 0 44.5 23t21.5 60q0 45 -28 45q-30 0 -67 -27l-49 19l55 182h128l84 7l-23 -81l-63 3h-84l-19 -63q32 10 58 10q46 0 77.5 -22t31.5 -61
q0 -30 -17.5 -59t-44.5 -46q-65 -40 -123 -40zM410 5q72 25 108.5 49t63.5 63q-31 -13 -59 -13q-39 0 -68.5 21.5t-29.5 65.5q0 60 40 90q64 53 129 53q54 0 86.5 -27t32.5 -76q0 -52 -33 -109t-83 -91q-64 -40 -187 -70v44zM555 154q26 0 51 23l-3 -1q7 20 7 48
q0 27 -10 43.5t-25 16.5q-21 0 -34.5 -22.5t-13.5 -56.5q0 -51 28 -51z" />
    <glyph glyph-name="sixsevenths" 
d="M41 -16l320 370l298 353l49 -44l-308 -349l-310 -375zM348 668q-72 -26 -109 -51.5t-62 -66.5q33 14 57 14q37 0 66.5 -21.5t30.5 -63.5q0 -64 -40 -93q-73 -50 -129 -50q-55 0 -86.5 26t-31.5 76q0 94 83 169t218 108zM202 513q-26 0 -53 -27l2 1q0 -1 -1 -5t-1 -6
q-6 -24 -5 -34q1 -25 11.5 -39.5t26.5 -14.5q22 0 35 22t12 54q-1 49 -27 49zM700 327l8 -53q-124 -137 -163 -271q-10 -25 -66 -25q-14 0 -21.5 0.5t-15.5 3.5t-7.5 8t2.5 14q70 152 173 242q-3 3 -3 6h-95q-10 0 -30 -40h-51l39 118l73 -3h157z" />
    <glyph glyph-name="sevenninths" 
d="M41 -16l320 370l298 353l49 -44l-308 -349l-310 -375zM380 688l8 -53q-124 -137 -163 -271q-10 -25 -66 -25q-14 0 -21.5 0.5t-15.5 3.5t-7.5 8t2.5 14q70 152 173 242q-3 3 -3 6h-95q-10 0 -30 -40h-51l39 118l73 -3h157zM410 5q72 25 108.5 49t63.5 63q-31 -13 -59 -13
q-39 0 -68.5 21.5t-29.5 65.5q0 60 40 90q64 53 129 53q54 0 86.5 -27t32.5 -76q0 -52 -33 -109t-83 -91q-64 -40 -187 -70v44zM555 154q26 0 51 23l-3 -1q7 20 7 48q0 27 -10 43.5t-25 16.5q-21 0 -34.5 -22.5t-13.5 -56.5q0 -51 28 -51z" />
    <glyph glyph-name="eightninths" 
d="M41 -16l320 370l298 353l49 -44l-308 -349l-310 -375zM42 421q0 54 81 93l-5 -2v5q-34 26 -34 64q0 47 40 80.5t102 33.5q50 0 80 -21t31 -56q0 -47 -68 -82l-1 -2v-2q56 -31 57 -77q0 -45 -43.5 -82t-118.5 -37q-50 0 -85 23t-36 62zM226 436q0 34 -64 58
q-37 -30 -37 -67q0 -45 48 -45q22 0 37.5 15.5t15.5 38.5zM216 648q-18 0 -27.5 -11t-9.5 -29q0 -30 43 -52q27 23 27 56q0 36 -33 36zM410 5q72 25 108.5 49t63.5 63q-31 -13 -59 -13q-39 0 -68.5 21.5t-29.5 65.5q0 60 40 90q64 53 129 53q54 0 86.5 -27t32.5 -76
q0 -52 -33 -109t-83 -91q-64 -40 -187 -70v44zM555 154q26 0 51 23l-3 -1q7 20 7 48q0 27 -10 43.5t-25 16.5q-21 0 -34.5 -22.5t-13.5 -56.5q0 -51 28 -51z" />
    <glyph glyph-name="Cacute.plk" horiz-adv-x="654" 
d="M369 71q59 0 111 21l86 110h60l-64 -179q-110 -34 -214 -34q-139 0 -223.5 68.5t-84.5 192.5q0 187 129.5 305.5t311.5 118.5q47 0 102.5 -15.5t89.5 -37.5l-24 -191h-66l-19 117q-47 45 -121 45q-88 0 -160 -86t-72 -225q0 -105 49 -157.5t109 -52.5zM439 721v18l61 119
h99v-20l-94 -117h-66z" />
    <glyph glyph-name="Nacute.plk" horiz-adv-x="755" 
d="M557 232h14l33 197l22 147l-82 14l12 73h254l-12 -73l-76 -14l-32 -152l-74 -424h-98l-285 448h-13l-33 -195l-24 -166l81 -14l-12 -73h-251l12 73l74 14l33 163l57 324l-78 14l13 75h201zM415 721v18l61 119h99v-20l-94 -117h-66z" />
    <glyph glyph-name="Oacute.plk" horiz-adv-x="785" 
d="M40 258q0 91 39 171t100.5 132.5t137 82.5t150.5 30q144 0 229 -72t85 -198q0 -119 -63 -215.5t-163 -148t-213 -51.5q-134 0 -218 72.5t-84 196.5zM446 592q-74 0 -129 -47.5t-81 -119t-26 -153.5q0 -97 46.5 -148t118.5 -51q40 0 79 17.5t75 53t58.5 99t22.5 146.5
q0 101 -47.5 152t-116.5 51zM441 721v18l61 119h99v-20l-94 -117h-66z" />
    <glyph glyph-name="Sacute.plk" horiz-adv-x="543" 
d="M21 37l18 175h64q12 -126 130 -126q44 0 76.5 26t32.5 70q0 27 -19 49t-48 36.5t-62.5 33.5t-62.5 39t-48 54t-19 77q0 63 43.5 111t103.5 70t121 22q128 0 182 -40l-20 -170h-63q-7 59 -36 89t-71 30q-45 0 -73 -23.5t-28 -60.5q0 -32 27.5 -56t66 -41.5t77.5 -38.5
t66.5 -59.5t27.5 -92.5q0 -90 -83.5 -156t-217.5 -66q-49 0 -107 14t-78 34zM336 721v18l61 119h99v-20l-94 -117h-66z" />
    <glyph glyph-name="Zacute.plk" horiz-adv-x="633" 
d="M549 -5l-269 5h-282l-12 34l473 485l-4 14h-237l-59 -106h-58l53 240l168 -4h361l12 -21l-490 -500l2 -12h277l70 108h57zM380 721v18l61 119h99v-20l-94 -117h-66z" />
    <glyph glyph-name="cacute.plk" horiz-adv-x="399" 
d="M304 515q39 0 66 -23t39 -59v-30l-47 -73h-46q-7 90 -52 90q-47 0 -78.5 -75t-31.5 -170q0 -49 13.5 -68.5t40.5 -19.5q24 0 55 16t57 42l37 -48q-100 -104 -201 -104q-63 0 -102 39t-39 110q0 93 29 166t81 113q112 94 179 94zM264 557v18l61 154h109v-20l-104 -152h-66
z" />
    <glyph glyph-name="nacute.plk" horiz-adv-x="545" 
d="M385 -7l-93 30l1 57l64 266q4 22 -1 35t-17 13q-37 0 -96 -38l-68 -327l-56 -26h-85l78 391l-80 -31l-19 58l144 89l93 -17l-3 -59h14q36 26 58 40t54 27.5t58 13.5q34 0 51 -11.5t24 -47.5t-11 -102l-59 -239l72 25l24 -51zM305 557v18l61 154h109v-20l-104 -152h-66z
" />
    <glyph glyph-name="oacute.plk" horiz-adv-x="469" 
d="M316 515q59 0 98.5 -36t39.5 -112q0 -84 -25 -159t-72 -121q-113 -94 -202 -94q-67 0 -103.5 42t-36.5 106q0 201 103 285q52 39 106.5 64t91.5 25zM155 194q0 -99 45 -99q28 0 51 24t36 60.5t19.5 73t6.5 66.5q0 48 -9 71.5t-32 23.5q-51 0 -84 -65t-33 -155zM275 557
v18l61 154h109v-20l-104 -152h-66z" />
    <glyph glyph-name="sacute.plk" horiz-adv-x="370" 
d="M0 49v30l40 84h20q44 -58 113 -58q47 0 47 32q0 6 -1.5 11t-5.5 9.5t-7 8t-11 8.5t-13 8t-17 10t-19 11q-47 26 -68 56t-21 71q0 52 70 118.5t111 66.5t78 -15t54 -37v-25l-42 -86h-21q-48 47 -100 47q-44 0 -44 -29q0 -4 2 -8.5t6 -9t8 -8t11.5 -9t13 -9t15.5 -10
t16 -10.5q51 -31 73.5 -60.5t22.5 -71.5q0 -56 -69.5 -118.5t-134.5 -62.5q-82 0 -127 56zM228 557v18l61 154h109v-20l-104 -152h-66z" />
    <glyph glyph-name="zacute.plk" horiz-adv-x="440" 
d="M51 -8l-70 52l201 225l81 89l-3 9l-121 18l-32 -76l-49 8l25 151l80 42l200 -32l43 38l62 -53l-185 -205l-93 -95l5 -12l131 -30l52 85l45 -10l-36 -168l-71 -35l-217 54zM259 557v18l61 154h109v-20l-104 -152h-66z" />
    </font>
</defs>
</svg>
