<?xml version="1.0" standalone="no"?>
<!DOCTYPE svg PUBLIC "-//W3C//DTD SVG 1.1//EN" "http://www.w3.org/Graphics/SVG/1.1/DTD/svg11.dtd" >
<svg xmlns="http://www.w3.org/2000/svg" xmlns:xlink="http://www.w3.org/1999/xlink" version="1.1">
<metadata>
Created by FontForge 20170731 at Wed Mar 13 13:57:07 2019
 By Aleksey,,,
Copyright 2018-2019 Matthew Butterick
</metadata>
<defs>
<font id="CenturySupraC4" horiz-adv-x="850" >
  <font-face 
    font-family="Century Supra C4"
    font-weight="400"
    font-stretch="normal"
    units-per-em="1000"
    panose-1="0 0 0 0 0 0 0 0 0 0"
    ascent="762"
    descent="-238"
    x-height="510"
    cap-height="691"
    bbox="-74 -250 1048 935"
    underline-thickness="50"
    underline-position="-175"
    unicode-range="U+000D-FB02"
  />
<missing-glyph horiz-adv-x="544" 
d="M20 0v700h508v-700h-508zM71 41h406v618h-406v-618zM200 397l8 4q36 -18 79 -18q36 0 57.5 24.5t21.5 63.5q0 40 -30.5 74t-78.5 34q-28 0 -40 -14l14 -37q0 -14 -10 -22.5t-26 -8.5q-35 0 -35 39q0 30 25 50t66 20q63 0 109.5 -45t46.5 -114q0 -56 -30 -92t-77 -36
q-45 0 -65 15l-2 -88h-30zM172 141q0 20 13 33.5t33 13.5q18 0 31.5 -13.5t13.5 -33.5q0 -18 -13.5 -31t-31.5 -13q-19 0 -32.5 13t-13.5 31z" />
    <glyph glyph-name="uni2190" unicode="&#x3c;&#x2d;" horiz-adv-x="704" 
d="M75 268l239 267l59 -44l-169 -190h434v-75h-434l169 -189l-59 -45l-239 269v7z" />
    <glyph glyph-name="uni2192" unicode="&#x2d;&#x3e;" horiz-adv-x="704" 
d="M390 535l239 -267v-7l-239 -269l-59 45l168 189h-433v75h434l-169 190z" />
    <glyph glyph-name="fi" unicode="fi" horiz-adv-x="975" 
d="M493 329h-38q-11 69 -39 106t-83 37h-92v-201h56q55 0 55 100h36v-236h-36q0 49 -12.5 72t-42.5 23h-56v-146q1 -29 17.5 -37t67.5 -8v-39h-261v39q54 0 65.5 6.5t11.5 38.5v337q0 33 -14.5 42t-62.5 9v38h423zM892 510v-38q-53 0 -66 -4t-13 -20v-382q0 -18 12.5 -22.5
t66.5 -4.5v-39h-256v39q52 0 65 4.5t13 22.5v382q0 17 -13 20.5t-65 3.5v38h256z" />
    <glyph glyph-name="fl" unicode="fl" horiz-adv-x="1118" 
d="M493 329h-38q-11 69 -39 106t-83 37h-92v-201h56q55 0 55 100h36v-236h-36q0 49 -12.5 72t-42.5 23h-56v-146q1 -29 17.5 -37t67.5 -8v-39h-261v39q54 0 65.5 6.5t11.5 38.5v337q0 33 -14.5 42t-62.5 9v38h423zM1048 185l-10 -185h-420v39q47 0 62 4.5t15 22.5v383
q0 16 -13 19.5t-64 3.5v38h262v-38q-60 0 -73 -3.5t-13 -19.5v-410h96q53 0 82.5 38.5t29.5 107.5h46z" />
    <glyph glyph-name="uni2192.circle" unicode="&#x28;&#x2d;&#x3e;&#x29;" horiz-adv-x="884" 
d="M721 276l-242 270v1l-62 -47v-7l159 -179h-422v-96h422l-159 -179v-7l62 -48v1l242 272v19zM47 264q0 160 113.5 273t274.5 113q163 0 278 -113t115 -273q0 -158 -115 -271t-278 -113q-160 0 -274 113t-114 271z" />
    <glyph glyph-name="uni2190.circle" unicode="&#x28;&#x3c;&#x2d;&#x29;" horiz-adv-x="884" 
d="M405 546l-242 -270v-19l242 -272v-1l62 48v7l-159 179h422v96h-422l159 179v7l-62 47v-1zM837 264q0 -158 -114 -271t-274 -113q-163 0 -278 113t-115 271q0 160 115 273t278 113q161 0 274.5 -113t113.5 -273z" />
    <glyph glyph-name="uni2193.circle" unicode="&#x28;&#x2193;&#x29;" horiz-adv-x="884" 
d="M454 -24l270 242v7l-47 63v1l-187 -167v431h-86v-431l-187 167v-1l-48 -63v-7l272 -242v-1h13v1zM445 650q162 0 277 -112.5t115 -271.5q0 -160 -114.5 -273.5t-277.5 -113.5q-161 0 -275 113.5t-114 273.5q0 158 114.5 271t274.5 113z" />
    <glyph glyph-name="uni2191.circle" unicode="&#x28;&#x2191;&#x29;" horiz-adv-x="884" 
d="M724 311l-270 242v1h-13v-1l-272 -242v-7l48 -63v-1l187 167v-431h86v431l187 -167v1l47 63v7zM445 -121q-160 0 -274.5 113t-114.5 271q0 160 114 273.5t275 113.5q163 0 277.5 -113.5t114.5 -273.5q0 -159 -115 -271.5t-277 -112.5z" />
    <glyph glyph-name=".notdef" horiz-adv-x="544" 
d="M20 0v700h508v-700h-508zM71 41h406v618h-406v-618zM200 397l8 4q36 -18 79 -18q36 0 57.5 24.5t21.5 63.5q0 40 -30.5 74t-78.5 34q-28 0 -40 -14l14 -37q0 -14 -10 -22.5t-26 -8.5q-35 0 -35 39q0 30 25 50t66 20q63 0 109.5 -45t46.5 -114q0 -56 -30 -92t-77 -36
q-45 0 -65 15l-2 -88h-30zM172 141q0 20 13 33.5t33 13.5q18 0 31.5 -13.5t13.5 -33.5q0 -18 -13.5 -31t-31.5 -13q-19 0 -32.5 13t-13.5 31z" />
    <glyph glyph-name=".null" horiz-adv-x="0" 
 />
    <glyph glyph-name="nonmarkingreturn" horiz-adv-x="333" 
 />
    <glyph glyph-name="NULL" horiz-adv-x="0" 
 />
    <glyph glyph-name="NULL" horiz-adv-x="0" 
 />
    <glyph glyph-name="CR" unicode="&#xd;" horiz-adv-x="290" 
 />
    <glyph glyph-name="space" unicode=" " horiz-adv-x="290" 
 />
    <glyph glyph-name="exclam" unicode="!" horiz-adv-x="449" 
d="M283 614q-1 -7 -8.5 -62.5t-12.5 -96t-10 -109t-5 -130.5h-44q0 121 -12.5 232t-26.5 166q-8 41 6.5 73.5t55.5 32.5q74 0 57 -106zM155 59q0 29 20 49.5t49 20.5t49.5 -20.5t20.5 -49.5q0 -28 -20.5 -48t-49.5 -20t-49 19.5t-20 48.5z" />
    <glyph glyph-name="quotedbl" unicode="&#x22;" horiz-adv-x="505" 
d="M140 419l-25 305h96l-25 -305h-46zM319 419l-25 305h96l-25 -305h-46z" />
    <glyph glyph-name="numbersign" unicode="#" horiz-adv-x="560" 
d="M112 510l96 -13l44 209l53 -7l-44 -210l95 -13l48 230l53 -7l-48 -230l105 -14l-7 -60l-110 15l-33 -162l91 -12l-7 -60l-97 13l-46 -224l-53 6l46 225l-95 13l-50 -244l-53 6l51 245l-105 15l7 60l110 -15l33 161l-91 13zM249 430l-33 -161l95 -13l33 161z" />
    <glyph glyph-name="dollar" unicode="$" horiz-adv-x="646" 
d="M178 69l-14 -53h-39l-7 214h35q18 -81 53 -124.5t96 -56.5v252l-11 4q-90 31 -132.5 76t-42.5 116q0 78 51.5 125t124.5 47h10v92h45v-98q53 -12 109 -52l1 1h1l-2 -1l18 38h36l2 -186h-34q-42 133 -131 160v-237q15 -6 27 -8q101 -29 141 -72t40 -116q0 -79 -55 -132
t-141 -53h-12v-102h-45v107q-78 15 -124 59zM486 157q0 39 -30 68.5t-109 59.5v-241h10q62 0 95.5 33t33.5 80zM188 522q0 -73 114 -120v229h-9q-49 0 -77 -33t-28 -76z" />
    <glyph glyph-name="percent" unicode="%" horiz-adv-x="602" 
d="M318 575l-3 -1q-1 -81 -44 -134t-100 -53q-47 0 -77 35.5t-30 90.5q0 74 46.5 128.5t100.5 54.5q70 0 96 -69q6 -15 25 -24.5t41 -9.5q48 0 84 30q23 67 55 67q8 0 16 -5.5t8 -16.5q0 -15 -13.5 -32.5t-30.5 -28.5l-190 -288l-215 -338l-33 26l223 332l140 228l-3 2
q-21 -12 -48 -12q-30 0 -48 18zM286 114q0 74 47 129t101 55q46 0 75 -31.5t29 -85.5q0 -86 -44 -139t-98 -53q-49 0 -79.5 35t-30.5 90zM450 253q-33 0 -61 -52.5t-28 -113.5q0 -28 11.5 -43t28.5 -15q34 0 62 41t28 120q0 30 -11.5 46.5t-29.5 16.5zM228 651
q-33 0 -62 -52t-29 -112t43 -60q33 0 60.5 42t27.5 120q0 29 -11.5 45.5t-28.5 16.5z" />
    <glyph glyph-name="ampersand" unicode="&#x26;" horiz-adv-x="843" 
d="M528 566q0 -20 -4.5 -37.5t-16.5 -32.5t-21 -25.5t-30 -23.5t-31 -19t-36.5 -19.5t-35.5 -18.5q76 -149 186 -251q41 57 63 146q5 29 -22 40t-81 11v45h260v-45q-83 0 -107 -66q-27 -92 -79 -161q58 -45 99 -45q32 0 43 15t11 53h36q0 -66 -26.5 -105.5t-74.5 -39.5
q-66 0 -147 62q-75 -62 -172 -62q-118 0 -177.5 56t-59.5 138q0 75 38.5 121.5t107.5 86.5q-40 88 -40 149q0 68 45.5 115.5t121.5 47.5q66 0 108 -38.5t42 -96.5zM478 79q-120 104 -203 261q-64 -56 -64 -139q0 -67 46.5 -110.5t112.5 -43.5q60 0 108 32zM299 557
q0 -50 33 -124q53 30 81 60.5t28 75.5q0 39 -17 66t-53 27q-31 0 -51.5 -28t-20.5 -77z" />
    <glyph glyph-name="quotesingle" unicode="'" horiz-adv-x="326" 
d="M140 419l-25 305h96l-25 -305h-46z" />
    <glyph glyph-name="parenleft" unicode="(" horiz-adv-x="442" 
d="M371 -208l-29 -34q-241 220 -241 505q0 148 63 264t177 220l30 -39q-180 -183 -180 -445q0 -301 180 -471z" />
    <glyph glyph-name="parenright" unicode=")" horiz-adv-x="442" 
d="M100 -242l-29 34q180 170 180 471q0 262 -180 445l30 39q114 -104 177 -220t63 -264q0 -285 -241 -505z" />
    <glyph glyph-name="asterisk" unicode="*" horiz-adv-x="566" 
d="M306 543q49 -24 120 -44q35 -9 28 -40q-6 -27 -30 -36q-21 -7 -38 10q-63 66 -93 85q5 -56 25 -124q10 -32 -20 -43q-27 -9 -44 9q-12 14 -8 34q21 96 23 124q-47 -29 -93 -85q-20 -23 -46 -2q-24 19 -18 43q4 16 26 23q84 26 119 46q-51 22 -119 37q-30 5 -26 36
q4 28 27 36q18 7 35 -9q67 -60 95 -80q-7 52 -26 121q-10 34 21 45q28 9 47 -9q13 -14 7 -36q-2 -10 -9.5 -37t-11.5 -46t-6 -38q47 31 95 80q26 28 50 4q20 -21 12 -46q-6 -17 -24 -21q-9 -2 -28 -6.5t-30.5 -7.5t-28.5 -9t-31 -14z" />
    <glyph glyph-name="plus" unicode="+" horiz-adv-x="620" 
d="M570 230h-230v-230h-60v230h-230v60h230v230h60v-230h230v-60z" />
    <glyph glyph-name="comma" unicode="," horiz-adv-x="383" 
d="M106 62q0 30 21 48.5t57 18.5q40 0 67.5 -32t27.5 -82q0 -127 -131 -216l-25 36q114 76 99 174q-28 -16 -52 -16q-27 0 -45.5 18t-18.5 51z" />
    <glyph glyph-name="hyphen" unicode="-" horiz-adv-x="408" 
d="M77 282h254v-69h-254v69z" />
    <glyph glyph-name="period" unicode="." horiz-adv-x="369" 
d="M115 59q0 29 20 49.5t49 20.5t49.5 -20.5t20.5 -49.5q0 -28 -20.5 -48t-49.5 -20t-49 19.5t-20 48.5z" />
    <glyph glyph-name="slash" unicode="/" horiz-adv-x="550" 
d="M463 734l-300 -856h-76l300 856h76z" />
    <glyph glyph-name="zero" unicode="0" horiz-adv-x="652" 
d="M573 336q0 -168 -71 -258t-178 -90q-108 0 -176.5 84t-68.5 264q0 173 70 269t175 96q107 0 178 -95t71 -270zM464 336q0 173 -29.5 247t-110.5 74q-77 0 -106.5 -73.5t-29.5 -247.5q0 -172 26.5 -237.5t109.5 -65.5q84 0 112 66t28 237z" />
    <glyph glyph-name="one" unicode="1" horiz-adv-x="541" 
d="M101 610v41q118 7 198 39h40v-576q0 -42 30.5 -61t101.5 -19v-34h-366v34q77 4 107.5 20t30.5 60v481z" />
    <glyph glyph-name="two" unicode="2" horiz-adv-x="632" 
d="M201 104l4 -16h220q30 0 52 32.5t30 86.5h45l-30 -207h-438l-15 50q6 6 55 46.5t92 81t92 96t78.5 116.5t29.5 117q0 78 -38.5 114t-92.5 36q-94 0 -126 -80l61 -86q0 -36 -19.5 -57t-49.5 -21q-33 0 -50 24.5t-17 65.5q0 88 63 143t149 55q105 0 167 -52t62 -143
q0 -45 -23 -92t-64.5 -92t-79.5 -80t-87.5 -77t-69.5 -61z" />
    <glyph glyph-name="three" unicode="3" horiz-adv-x="618" 
d="M350 379l4 -11q74 -8 127.5 -55t53.5 -129q0 -95 -81.5 -145.5t-192.5 -50.5q-84 0 -140 35t-56 99q0 37 16.5 59.5t44.5 22.5t44 -20.5t16 -55.5l-43 -66q32 -32 111 -32q33 0 61.5 7.5t55 24t41.5 49t15 77.5q0 65 -31.5 100t-80.5 36.5t-109 -16.5l-14 42
q112 42 163.5 90t51.5 114q0 105 -117 105q-73 0 -115 -40l47 -81q0 -25 -17 -42.5t-42 -17.5q-27 0 -44 22.5t-17 59.5q0 66 63.5 103.5t143.5 37.5q91 0 148.5 -40.5t57.5 -109.5q0 -54 -46.5 -98t-118.5 -74z" />
    <glyph glyph-name="four" unicode="4" horiz-adv-x="635" 
d="M64 210l-10 25l364 466l35 -5v-441h107v-45h-107v-75q0 -63 27 -82t79 -19v-34h-311v34q57 0 84.5 19t27.5 75v82h-296zM133 260l2 -5h222v287l-8 4z" />
    <glyph glyph-name="five" unicode="5" horiz-adv-x="624" 
d="M179 391l8 -5q72 45 150 45q82 0 143.5 -51.5t61.5 -145.5q0 -112 -80.5 -179t-201.5 -67q-68 0 -125 36t-57 98q0 34 18 56t48 22q27 0 43.5 -18.5t16.5 -48.5l-49 -71q32 -32 111 -32q82 0 124.5 57t42.5 140q0 145 -126 145q-85 0 -141 -64h-35l30 383
q97 -28 199.5 -25.5t159.5 31.5v-49q-48 -53 -139 -71t-187 1z" />
    <glyph glyph-name="six" unicode="6" horiz-adv-x="656" 
d="M364 701q81 0 129 -38t48 -85q0 -33 -16 -52.5t-46 -19.5q-28 0 -45.5 18t-17.5 50l45 53q-28 35 -97 35q-54 0 -95 -54t-59 -125t-19 -141l8 -4q59 93 170 93q96 0 149.5 -55.5t53.5 -143.5q0 -114 -71.5 -179t-168.5 -65q-46 0 -87 17.5t-77 54.5t-57 102t-21 152
q0 162 80 274.5t194 112.5zM464 227q0 157 -115 157q-43 0 -87 -31.5t-71 -88.5q0 -118 34.5 -174.5t107.5 -56.5q131 0 131 194z" />
    <glyph glyph-name="seven" unicode="7" horiz-adv-x="604" 
d="M470 592l-10 10q-37 -24 -103 -24q-21 0 -63 8t-65 8q-47 0 -75.5 -35t-36.5 -98h-35l33 235h37l6 -22q42 27 83 27q34 0 84 -20.5t83 -20.5q69 0 136 46l30 -34q-66 -80 -104 -135.5t-73.5 -129.5t-50.5 -158t-15 -192q0 -13 -1.5 -21.5t-6.5 -19.5t-18 -17t-33 -6
q-69 0 -60 66q42 282 258 533z" />
    <glyph glyph-name="eight" unicode="8" horiz-adv-x="635" 
d="M406 374v-6q149 -50 149 -177q0 -62 -38.5 -110t-94.5 -70.5t-118 -22.5q-100 0 -162 45t-62 122q0 55 42 101t106 72v9q-62 26 -91.5 72t-29.5 98q0 81 64 137.5t158 56.5q90 0 144.5 -43t54.5 -111q0 -100 -122 -173zM441 538q0 51 -36 85.5t-92 34.5
q-57 0 -92.5 -33.5t-35.5 -79.5q0 -54 44.5 -93t125.5 -61q86 46 86 147zM468 167q0 104 -189 144q-52 -18 -84.5 -56t-31.5 -95q1 -61 43.5 -94t109.5 -33q63 0 107.5 35.5t44.5 98.5z" />
    <glyph glyph-name="nine" unicode="9" horiz-adv-x="656" 
d="M291 -12q-81 0 -128.5 33.5t-47.5 75.5q0 34 15.5 55.5t45.5 21.5q28 0 45.5 -20t17.5 -53l-45 -43q29 -31 97 -31q82 0 127 94.5t46 225.5l-8 4q-26 -43 -70.5 -68t-99.5 -25q-95 0 -149 61t-54 157q0 99 72.5 162t168.5 63q46 0 87 -17.5t77 -54.5t57 -102t21 -152
q0 -178 -78.5 -282.5t-196.5 -104.5zM191 471q0 -87 31.5 -126.5t84.5 -39.5q42 0 86.5 31.5t70.5 88.5q0 118 -34.5 175t-107.5 57q-66 0 -98.5 -51.5t-32.5 -134.5z" />
    <glyph glyph-name="colon" unicode=":" horiz-adv-x="401" 
d="M131 377q0 29 20 49.5t49 20.5t49.5 -20.5t20.5 -49.5q0 -28 -20.5 -48t-49.5 -20t-49 19.5t-20 48.5zM131 59q0 29 20 49.5t49 20.5t49.5 -20.5t20.5 -49.5q0 -28 -20.5 -48t-49.5 -20t-49 19.5t-20 48.5z" />
    <glyph glyph-name="semicolon" unicode=";" horiz-adv-x="431" 
d="M139 377q0 29 20 49.5t49 20.5t49.5 -20.5t20.5 -49.5q0 -28 -20.5 -48t-49.5 -20t-49 19.5t-20 48.5zM130 62q0 30 21 48.5t57 18.5q40 0 67.5 -32t27.5 -82q0 -127 -131 -216l-25 36q114 76 99 174q-28 -16 -52 -16q-27 0 -45.5 18t-18.5 51z" />
    <glyph glyph-name="less" unicode="&#x3c;" horiz-adv-x="594" 
d="M544 470l-428 -204l428 -204v-62l-494 235v62l494 235v-62z" />
    <glyph glyph-name="equal" unicode="=" horiz-adv-x="620" 
d="M570 310h-520v60h520v-60zM570 130h-520v60h520v-60z" />
    <glyph glyph-name="greater" unicode="&#x3e;" horiz-adv-x="594" 
d="M478 266l-428 204v62l494 -235v-62l-494 -235v62z" />
    <glyph glyph-name="question" unicode="?" horiz-adv-x="600" 
d="M192 418l12 7q61 -28 119 -28q55 0 87.5 36t32.5 93t-45.5 105t-118.5 48q-43 0 -62 -21l31 -62q0 -22 -17 -36.5t-42 -14.5t-41 16.5t-16 48.5q0 48 38.5 79t102.5 31q93 0 162.5 -62.5t69.5 -157.5q0 -86 -45.5 -142t-116.5 -56q-68 0 -99 23l-3 -109h-44zM149 59
q0 29 20 49.5t49 20.5t49.5 -20.5t20.5 -49.5q0 -28 -20.5 -48t-49.5 -20t-49 19.5t-20 48.5z" />
    <glyph glyph-name="at" unicode="@" horiz-adv-x="906" 
d="M744 390q0 35 -9 71.5t-29.5 75t-62.5 63t-99 24.5q-96 0 -181 -72.5t-133.5 -185.5t-48.5 -230q0 -118 43.5 -177t122.5 -59q89 0 167 63l21 -42q-44 -35 -97.5 -54.5t-99.5 -19.5q-114 0 -172.5 76t-58.5 214q0 92 35 187t93 171t141 124.5t171 48.5q123 0 195.5 -76.5
t72.5 -201.5q0 -84 -32.5 -154.5t-80 -111.5t-95.5 -63.5t-85 -22.5q-34 0 -37.5 34t22.5 93l-13 9q-19 -28 -34.5 -47t-38 -42.5t-47 -36t-48.5 -12.5q-29 0 -45 24.5t-16 56.5q0 82 59 183q46 77 106.5 128.5t115.5 51.5q29 0 42 -28h5q6 16 13.5 21.5t27.5 5.5t27 -4
t4 -12l-108 -331q-7 -31 13 -31q18 0 46 20t57 54t50 92t21 123zM345 150q0 -44 24 -44q34 0 93.5 79t102.5 182q9 70 -29 70q-33 0 -70.5 -34.5t-67.5 -87.5q-53 -94 -53 -165z" />
    <glyph glyph-name="A" unicode="A" horiz-adv-x="770" 
d="M524 79l-47 125h-244l-43 -123q-7 -24 13 -32.5t82 -8.5v-40h-242v40q42 0 64 13t35 48l222 600h24l243 -607q14 -37 30.5 -45.5t65.5 -8.5v-40h-288v40h27q49 0 58 6t0 33zM354 528h-7l-98 -277h210z" />
    <glyph glyph-name="B" unicode="B" horiz-adv-x="727" 
d="M469 364v-4q176 -20 176 -177q0 -90 -65.5 -136.5t-163.5 -46.5h-351v40q62 0 82 13t20 66v446q0 61 -17.5 74t-84.5 13v39h327q93 0 150 -41.5t57 -121.5q0 -57 -33 -102t-97 -62zM491 525q0 127 -148 127h-72v-276h100q56 0 88 40t32 109zM534 187q0 75 -40 111.5
t-123 36.5h-100v-295h94q82 0 125.5 33.5t43.5 113.5z" />
    <glyph glyph-name="C" unicode="C" horiz-adv-x="746" 
d="M586 656l3 1l24 34h31l4 -261h-42q-7 41 -21.5 79t-37.5 72t-58.5 54.5t-79.5 20.5q-102 0 -158 -86t-56 -227q0 -309 219 -309q78 0 126 47t70 144h46l-23 -181q-38 -25 -98 -40.5t-123 -15.5q-152 0 -243 96.5t-91 260.5q0 147 101.5 251.5t233.5 104.5q54 0 101 -13.5
t72 -31.5z" />
    <glyph glyph-name="D" unicode="D" horiz-adv-x="821" 
d="M743 345q0 -65 -21.5 -124.5t-64 -110t-115 -80.5t-165.5 -30h-312v40q70 2 86 6.5t16 27.5v547q0 21 -16 26t-86 5v39h310q81 0 146 -22t105.5 -57t67.5 -82t38 -92.5t11 -92.5zM624 344q0 139 -66 223.5t-211 84.5h-76v-612h104q67 0 117 26.5t78 71.5t41 96.5
t13 109.5z" />
    <glyph glyph-name="E" unicode="E" horiz-adv-x="741" 
d="M656 247l-13 -247h-578v40q68 0 85 4.5t17 24.5v552q0 20 -18.5 25.5t-83.5 5.5v39h548l11 -217h-39q-18 101 -48.5 139.5t-98.5 38.5h-167v-291h74q100 0 100 137h35v-312h-35q0 81 -21.5 106.5t-84.5 25.5h-68v-278h191q71 0 112 64t41 143h41z" />
    <glyph glyph-name="F" unicode="F" horiz-adv-x="667" 
d="M614 454h-39q-13 95 -53 146.5t-118 51.5h-133v-291h79q85 0 85 137h35v-312h-35q0 68 -18.5 100t-66.5 32h-79v-209q1 -45 22.5 -57t88.5 -12v-40h-317v40q72 0 87 10.5t15 59.5v464q0 51 -19.5 64.5t-82.5 13.5v39h542z" />
    <glyph glyph-name="G" unicode="G" horiz-adv-x="787" 
d="M655 227v-233h-25l-51 83q-65 -89 -186 -89q-59 0 -113 20.5t-100.5 61.5t-74 111.5t-27.5 160.5q0 162 93.5 260.5t222.5 98.5q115 0 187 -46h7l20 31h29l4 -242h-36q-19 83 -73.5 147.5t-133.5 64.5q-203 0 -203 -316q0 -146 55 -226.5t154 -80.5q98 0 147 95v98
q0 42 -16 51.5t-80 9.5v34h282v-34q-57 0 -69 -9t-13 -51z" />
    <glyph glyph-name="H" unicode="H" horiz-adv-x="869" 
d="M804 0h-310v40q69 3 86 10t17 38v244h-326v-244q0 -32 19 -40t83 -8v-40h-308v40q63 0 82.5 8t19.5 40v515q0 31 -23.5 40t-78.5 9v39h308v-39q-62 0 -82 -7.5t-20 -41.5v-224h326v224q0 33 -19.5 41t-83.5 8v39h310v-39q-67 0 -85.5 -8.5t-18.5 -40.5v-515q0 -32 19 -40
t85 -8v-40z" />
    <glyph glyph-name="I" unicode="I" horiz-adv-x="449" 
d="M379 691v-39q-68 0 -85.5 -6.5t-17.5 -33.5v-528q0 -30 16.5 -37t86.5 -7v-40h-309v40q69 0 85.5 7t16.5 37v528q0 28 -17 34t-85 6v39h309z" />
    <glyph glyph-name="J" unicode="J" horiz-adv-x="613" 
d="M560 691v-39q-65 0 -84 -14t-19 -73v-370q0 -62 -20.5 -105.5t-54 -64t-66 -29t-67.5 -8.5q-76 0 -128.5 39t-52.5 116q0 41 21.5 68.5t52.5 27.5q67 0 67 -90l-82 -49q5 -33 35 -53t79 -20q59 0 86 38.5t27 123.5v375q0 60 -18.5 74t-83.5 14v39h308z" />
    <glyph glyph-name="K" unicode="K" horiz-adv-x="790" 
d="M552 572l-151 -166l253 -315q24 -30 41.5 -40.5t52.5 -10.5v-40h-279v40q27 1 39 2.5t21 6t6.5 13.5t-14.5 25l-190 242l-60 -66v-148q0 -50 18 -62.5t81 -12.5v-40h-305v40q70 0 86 12t16 63v465q0 50 -19 61t-83 11v39h308v-39q-66 0 -84 -11t-18 -61v-250h4l230 255
q30 28 15.5 48t-56.5 18v40h257v-40q-99 -11 -169 -79z" />
    <glyph glyph-name="L" unicode="L" horiz-adv-x="666" 
d="M609 242l-13 -242h-531v40q61 0 81.5 7.5t20.5 36.5v529q0 25 -18 32t-84 7v39h319v-39q-79 0 -96 -6t-17 -32v-574h132q74 0 116.5 53.5t42.5 148.5h47z" />
    <glyph glyph-name="M" unicode="M" horiz-adv-x="954" 
d="M217 543h-5v-421q0 -38 27.5 -60t72.5 -22v-40h-247v40q42 0 72 22.5t30 57.5v490q-13 24 -36.5 33t-65.5 9v39h205l206 -515h4l212 515h195v-39q-66 0 -85 -13.5t-19 -55.5v-457q0 -60 17.5 -73t82.5 -13v-40h-301v40q66 0 82.5 14t16.5 72v407h-4l-224 -540h-20z" />
    <glyph glyph-name="N" unicode="N" horiz-adv-x="812" 
d="M203 553h-4v-461q0 -33 27 -42.5t92 -9.5v-40h-261v40q50 0 74 10t24 42v509q-43 51 -103 51v39h173l396 -508h4v420q0 49 -121 49v39h254v-39q-52 0 -71 -11.5t-19 -37.5v-613h-27z" />
    <glyph glyph-name="O" unicode="O" horiz-adv-x="801" 
d="M723 345q0 -151 -95 -254t-227 -103q-137 0 -230 100t-93 257q0 158 92.5 257t230.5 99q133 0 227.5 -100.5t94.5 -255.5zM605 345q0 148 -47 229.5t-157 81.5q-112 0 -158.5 -79.5t-46.5 -231.5q0 -150 47.5 -230.5t157.5 -80.5q102 0 153 83t51 228z" />
    <glyph glyph-name="P" unicode="P" horiz-adv-x="674" 
d="M608 508q0 -98 -74 -146.5t-174 -48.5h-89v-187q0 -58 16.5 -72t91.5 -14v-40h-314v40q70 0 86 13.5t16 72.5v464q0 43 -18.5 52.5t-83.5 9.5v39h304q45 0 84.5 -9t76 -28.5t57.5 -56.5t21 -89zM271 652v-295h78q68 0 108 34.5t40 104.5q0 77 -41.5 116.5t-110.5 39.5
h-74z" />
    <glyph glyph-name="Q" unicode="Q" horiz-adv-x="801" 
d="M723 345q0 -106 -46 -191.5t-122 -129.5q16 -162 70 -162q53 0 53 122h36q0 -85 -31 -132t-84 -47q-123 0 -140 186q-17 -3 -33 -3q-148 0 -248 100t-100 257q0 158 92.5 257t230.5 99q133 0 227.5 -100.5t94.5 -255.5zM607 345q0 148 -47.5 229.5t-158.5 81.5
q-113 0 -160.5 -79.5t-47.5 -231.5q0 -222 114 -285q-17 32 -17 67q0 50 28 88.5t79 38.5q54 0 92.5 -41.5t55.5 -120.5q62 80 62 253zM395 219q-29 0 -42 -28t-13 -65q0 -44 24 -86q28 -6 62 -6q21 0 31 2v20q0 75 -15.5 119t-46.5 44z" />
    <glyph glyph-name="R" unicode="R" horiz-adv-x="743" 
d="M443 356v-8q72 -10 111.5 -51t50.5 -146q11 -75 31.5 -97.5t71.5 -22.5v-38q-124 0 -170.5 36.5t-46.5 129.5q0 101 -41.5 139t-122.5 38h-56v-248q0 -32 19 -40t87 -8v-40h-312v40q66 2 84 9t18 39v528q0 24 -18.5 30t-83.5 6v39h319q98 0 158 -41t60 -120
q0 -77 -46.5 -119.5t-112.5 -54.5zM496 525q0 68 -35.5 97.5t-109.5 29.5h-80v-275h89q136 0 136 148z" />
    <glyph glyph-name="S" unicode="S" horiz-adv-x="660" 
d="M171 58l-2 -1l-14 -57h-44l-7 278h39q24 -127 76.5 -187t147.5 -60q69 0 105.5 33t36.5 80q0 36 -14 60.5t-62.5 52t-137.5 54.5q-99 30 -146 79t-47 129q0 82 57 132t137 50q94 0 180 -64l3 2l17 56h39l2 -258h-36q-31 116 -80.5 169t-123.5 53q-54 0 -85 -34t-31 -79
q0 -48 48 -85t157 -70t154 -83.5t45 -126.5q0 -83 -61 -138t-155 -55q-120 0 -198 70z" />
    <glyph glyph-name="T" unicode="T" horiz-adv-x="714" 
d="M651 440h-38q0 98 -38.5 155t-108.5 57h-56v-573q-1 -26 20.5 -32.5t81.5 -6.5v-40h-310v40q56 0 79.5 7t23.5 27v578h-40q-69 0 -115.5 -58t-46.5 -154h-40v251h588v-251z" />
    <glyph glyph-name="U" unicode="U" horiz-adv-x="806" 
d="M755 691v-39q-53 0 -75 -10t-22 -33v-328q0 -145 -58 -219t-197 -74q-258 0 -258 237v387q0 27 -15 33.5t-79 6.5v39h296v-39q-65 0 -81 -6.5t-16 -33.5v-387q0 -96 46 -144.5t121 -48.5q49 0 84.5 15t55.5 37.5t31.5 57t15 66.5t3.5 73v328q0 23 -26 33t-91 10v39h265z
" />
    <glyph glyph-name="V" unicode="V" horiz-adv-x="758" 
d="M413 158h4l150 385q22 48 2 79t-84 30v39h233v-39q-21 0 -35.5 -6.5t-27 -24t-19.5 -32.5t-21 -48l-218 -557h-28l-231 592q-14 35 -22 47.5t-25.5 20.5t-50.5 8v39h266v-39q-55 0 -65.5 -18t10.5 -58z" />
    <glyph glyph-name="W" unicode="W" horiz-adv-x="1027" 
d="M712 179h5l119 364q18 54 -1 83t-82 26v39h234v-39q-42 0 -62.5 -23.5t-41.5 -87.5l-184 -557h-27l-146 443l-164 -443h-25l-196 592q-18 46 -39 61t-62 15v39h269v-39q-53 1 -63.5 -18.5t5.5 -57.5l128 -397h6l119 315l-27 82q-16 52 -32.5 64t-67.5 12v39h268v-39
q-13 0 -22.5 -0.5t-17.5 -1t-12.5 -4t-8.5 -4.5t-5 -6.5t-2 -7.5t0.5 -10.5t2 -11t4 -14.5t4.5 -16z" />
    <glyph glyph-name="X" unicode="X" horiz-adv-x="766" 
d="M726 0h-315v41q59 0 69.5 17.5t-15.5 60.5l-108 171l-129 -171q-26 -32 -10 -55t67 -24v-40h-245v40q34 0 67.5 21.5t54.5 50.5l169 221l-150 239q-28 47 -54.5 63.5t-76.5 16.5v39h301v-39q-55 -1 -66 -19.5t14 -56.5l104 -168l113 162q34 42 22 61.5t-77 20.5v39h255
v-39q-81 0 -130 -67l-156 -220l145 -232q36 -51 68.5 -72t82.5 -21v-40z" />
    <glyph glyph-name="Y" unicode="Y" horiz-adv-x="734" 
d="M694 691v-39q-68 0 -118 -79l-144 -263v-184q0 -59 19 -72.5t84 -13.5v-40h-308v40q72 0 86.5 13t14.5 73v180l-157 257q-39 57 -61 73t-70 16v39h293v-39q-58 0 -72 -14.5t12 -53.5l136 -224l123 223q17 28 4 48t-56 21v39h214z" />
    <glyph glyph-name="Z" unicode="Z" horiz-adv-x="726" 
d="M76 0v23l427 625l-3 4h-201q-64 0 -108.5 -63.5t-50.5 -147.5h-41l10 250h536v-21l-432 -624l2 -4h208q68 0 115.5 63t59.5 166h42l-19 -271h-545z" />
    <glyph glyph-name="bracketleft" unicode="[" horiz-adv-x="425" 
d="M350 738v-48q-76 -15 -150 -5v-852q68 6 156 -6v-51q-40 6 -111.5 6.5t-122.5 -5.5v960q51 -5 123 -5t105 6z" />
    <glyph glyph-name="backslash" unicode="\" horiz-adv-x="550" 
d="M387 -122l-300 856h76l300 -856h-76z" />
    <glyph glyph-name="bracketright" unicode="]" horiz-adv-x="425" 
d="M75 690v48q33 -6 105 -6t123 5v-960q-51 6 -122.5 5.5t-111.5 -6.5v51q88 12 156 6v852q-74 -10 -150 5z" />
    <glyph glyph-name="asciicircum" unicode="^" horiz-adv-x="544" 
d="M289 691l220 -376l-57 -31l-173 302v3h-8v-2l-178 -303l-54 31l221 376h29z" />
    <glyph glyph-name="underscore" unicode="_" horiz-adv-x="604" 
d="M-3 -190h610v-52h-610v52z" />
    <glyph glyph-name="grave" unicode="`" horiz-adv-x="500" 
d="M310 506v-8h-51l-129 162v10h94z" />
    <glyph glyph-name="a" unicode="a" horiz-adv-x="642" 
d="M424 60l-38 88h-176l-22 -55l-12 -31q-3 -13 13 -18t61 -5v-39h-205v39q64 0 82 41l175 438h27l191 -443q12 -25 24.5 -30.5t52.5 -5.5v-39h-239v39h30q28 0 34.5 3.5t1.5 17.5zM300 348h-10l-63 -157h140z" />
    <glyph glyph-name="b" unicode="b" horiz-adv-x="600" 
d="M492 388q0 -40 -23 -72.5t-68 -47.5q126 -20 126 -131q0 -67 -53 -102t-132 -35h-277v39q47 0 62 8.5t15 43.5v323q0 41 -13 49.5t-64 8.5v38h259q75 0 121.5 -31.5t46.5 -90.5zM390 385q0 87 -104 87h-45v-190h67q38 0 60 27.5t22 75.5zM422 140q0 103 -114 103h-67
v-204h63q118 0 118 101z" />
    <glyph glyph-name="c" unicode="c" horiz-adv-x="618" 
d="M338 520q82 0 140 -45l16 37h30l4 -199h-41q-11 66 -50 115t-102 49q-73 0 -113.5 -62t-40.5 -162q0 -222 158 -222q62 0 99 33.5t57 104.5h40l-19 -136q-72 -45 -179 -45q-120 0 -192 72.5t-72 193.5q0 109 80 187.5t185 78.5z" />
    <glyph glyph-name="d" unicode="d" horiz-adv-x="674" 
d="M601 254q0 -48 -17 -91.5t-50.5 -81t-90.5 -59.5t-130 -22h-248v39q53 1 65 4t12 16v396q0 11 -12.5 14t-64.5 3v38h246q64 0 115.5 -16.5t83.5 -42t53 -60.5t29.5 -68.5t8.5 -68.5zM492 254q0 98 -48 158t-154 60h-49v-433h70q93 0 137 63t44 152z" />
    <glyph glyph-name="e" unicode="e" horiz-adv-x="616" 
d="M531 189l-11 -189h-455v39q51 0 64 2.5t13 13.5v400q0 11 -14 14t-63 3v38h432l9 -167h-39q-13 73 -34.5 101t-67.5 28h-124v-201h52q67 0 67 100h36v-236h-36q0 58 -14.5 76.5t-57.5 18.5h-47v-191h141q50 0 79 46t29 104h41z" />
    <glyph glyph-name="f" unicode="f" horiz-adv-x="563" 
d="M493 329h-38q-11 69 -39 106t-83 37h-92v-201h56q55 0 55 100h36v-236h-36q0 49 -12.5 72t-42.5 23h-56v-146q1 -29 17.5 -37t67.5 -8v-39h-261v39q54 0 65.5 6.5t11.5 38.5v337q0 33 -14.5 42t-62.5 9v38h423z" />
    <glyph glyph-name="g" unicode="g" horiz-adv-x="652" 
d="M535 165v-173h-22l-47 62q-48 -66 -142 -66q-47 0 -90 15t-80 45t-59 82t-22 118q0 121 75.5 196.5t176.5 75.5q81 0 152 -52l15 41h29l3 -190h-36q-45 158 -160 158q-147 0 -147 -229q0 -103 40.5 -160.5t111.5 -57.5q66 0 102 64v70q0 28 -12 33.5t-61 5.5v36h235v-36
q-44 0 -53 -5.5t-9 -32.5z" />
    <glyph glyph-name="h" unicode="h" horiz-adv-x="713" 
d="M648 0h-256v39q53 2 66 6.5t13 23.5v172h-230v-172q0 -20 15 -25t63 -5v-39h-254v39q47 0 62 5t15 25v372q0 20 -17.5 25.5t-59.5 5.5v38h254v-38q-47 0 -62.5 -4.5t-15.5 -26.5v-157h230v157q0 21 -15 26t-64 5v38h256v-38q-51 0 -65 -5t-14 -26v-372q0 -20 14.5 -25
t64.5 -5v-39z" />
    <glyph glyph-name="i" unicode="i" horiz-adv-x="422" 
d="M339 510v-38q-53 0 -66 -4t-13 -20v-382q0 -18 12.5 -22.5t66.5 -4.5v-39h-256v39q52 0 65 4.5t13 22.5v382q0 17 -13 20.5t-65 3.5v38h256z" />
    <glyph glyph-name="j" unicode="j" horiz-adv-x="511" 
d="M455 510v-38q-49 0 -64 -9.5t-15 -48.5v-271q0 -46 -16.5 -78.5t-43.5 -48t-53.5 -22t-54.5 -6.5q-63 0 -105.5 29.5t-42.5 88.5q0 32 19 53t48 21q60 0 60 -71l-62 -36q8 -47 77 -47q40 0 58 27t18 86v274q0 40 -14 49.5t-64 9.5v38h255z" />
    <glyph glyph-name="k" unicode="k" horiz-adv-x="650" 
d="M453 416l-112 -117l191 -226q16 -20 30 -27t43 -7v-39h-232v39q36 2 43.5 5.5t-2.5 20.5l-138 167l-35 -36v-108q0 -32 14 -40.5t62 -8.5v-39h-252v39q53 0 65 8t12 41v337q0 33 -14 40t-63 7v38h254v-38q-46 0 -61.5 -9t-16.5 -38v-162l164 170q17 19 6 29.5t-42 9.5v38
h216v-37q-85 -8 -132 -57z" />
    <glyph glyph-name="l" unicode="l" horiz-adv-x="565" 
d="M495 185l-10 -185h-420v39q47 0 62 4.5t15 22.5v383q0 16 -13 19.5t-64 3.5v38h262v-38q-60 0 -73 -3.5t-13 -19.5v-410h96q53 0 82.5 38.5t29.5 107.5h46z" />
    <glyph glyph-name="m" unicode="m" horiz-adv-x="777" 
d="M533 364h-7l-148 -369h-25l-151 369h-6v-271q0 -25 21 -39.5t56 -14.5v-39h-208v39q32 0 54.5 15t22.5 38v354q-16 26 -77 26v38h173l148 -367l148 367h178v-38q-50 0 -64.5 -9t-14.5 -36v-331q0 -40 13 -48.5t63 -8.5v-39h-250v39q45 0 60 12t16 45z" />
    <glyph glyph-name="n" unicode="n" horiz-adv-x="689" 
d="M524 -7l-332 400v-322q0 -20 20.5 -26t70.5 -6v-39h-219v39q39 0 57 6t18 26v374q-30 27 -79 27v38h153l295 -355v286q0 31 -92 31v38h213v-38q-40 0 -54.5 -7t-14.5 -24v-448h-36z" />
    <glyph glyph-name="o" unicode="o" horiz-adv-x="657" 
d="M584 254q0 -111 -76 -188.5t-180 -77.5q-108 0 -181.5 75t-73.5 191q0 118 73 192t182 74q105 0 180.5 -75.5t75.5 -190.5zM475 254q0 223 -147 223q-79 0 -112.5 -57.5t-33.5 -165.5q0 -223 146 -223q73 0 110 60t37 163z" />
    <glyph glyph-name="p" unicode="p" horiz-adv-x="569" 
d="M499 368q0 -52 -31 -87.5t-74 -49.5t-94 -14h-59v-121q0 -38 13 -47.5t70 -9.5v-39h-259v39q53 0 65 9t12 48v337q0 27 -13.5 33t-63.5 6v38h242q80 0 136 -33t56 -109zM241 472v-214h50q47 0 75.5 25.5t28.5 75.5q0 55 -29.5 84t-77.5 29h-47z" />
    <glyph glyph-name="q" unicode="q" horiz-adv-x="657" 
d="M584 254q0 -76 -35.5 -139t-92.5 -97q12 -111 43 -111q42 0 42 88h37q0 -65 -26.5 -102t-71.5 -37q-95 0 -107 134q-16 -2 -25 -2q-117 0 -196 75t-79 191q0 118 73 192t182 74q105 0 180.5 -75.5t75.5 -190.5zM476 254q0 223 -148 223q-80 0 -114.5 -57.5t-34.5 -165.5
q0 -118 46 -174q-1 5 -1 14q0 45 27 81t74 36q87 0 119 -120q32 61 32 163zM324 176q-22 0 -32 -25t-10 -58q0 -25 16 -57q25 -5 50 -5q15 0 23 2v9q0 134 -47 134z" />
    <glyph glyph-name="r" unicode="r" horiz-adv-x="640" 
d="M395 266v-6q53 -11 85.5 -42t35.5 -98q2 -49 20.5 -67t57.5 -18v-37h-48q-63 0 -100 31.5t-37 95.5q0 69 -31 96t-89 27h-48v-179q0 -20 15 -25t66 -5v-39h-257v39q49 1 63 5.5t14 24.5v382q0 14 -13.5 17.5t-63.5 3.5v38h268q79 0 127.5 -31t48.5 -90q0 -51 -32.5 -81
t-81.5 -42zM409 385q0 46 -25 66.5t-76 20.5h-67v-185h74q94 0 94 98z" />
    <glyph glyph-name="s" unicode="s" horiz-adv-x="567" 
d="M157 30l-9 -33h-42l-5 211h38q39 -179 172 -179q48 0 73.5 23t25.5 55q0 35 -30 58t-126 56q-83 27 -118.5 63t-35.5 94q0 64 46 103t111 39q75 0 141 -39q10 22 14 34h37l2 -197h-36q-48 162 -157 162q-36 0 -57.5 -19.5t-21.5 -53.5t32.5 -58t129.5 -58
q77 -26 111.5 -63.5t34.5 -89.5q0 -64 -50.5 -107t-128.5 -43q-83 0 -151 42z" />
    <glyph glyph-name="t" unicode="t" horiz-adv-x="605" 
d="M542 319h-39q0 70 -27 111.5t-76 41.5h-47v-400q0 -16 7 -23.5t15.5 -8.5t29.5 -1h25v-39h-256v39h20q59 0 59 33v400h-36q-48 0 -81 -42t-33 -111h-40v191h479v-191z" />
    <glyph glyph-name="u" unicode="u" horiz-adv-x="677" 
d="M622 510v-38q-46 0 -62.5 -6t-16.5 -20v-242q0 -107 -46.5 -161.5t-158.5 -54.5q-211 0 -211 176v284q0 16 -11.5 20t-60.5 4v38h246v-38q-51 0 -63 -4t-12 -20v-284q0 -120 135 -120q123 0 123 160v242q0 26 -90 26v38h228z" />
    <glyph glyph-name="v" unicode="v" horiz-adv-x="628" 
d="M336 144h9l106 256q16 33 2 53t-63 19v38h198v-38q-30 0 -48 -19.5t-34 -58.5l-173 -406h-36l-178 432q-10 25 -15.5 33t-19.5 13.5t-44 5.5v38h224v-38q-41 0 -48.5 -10t5.5 -38z" />
    <glyph glyph-name="w" unicode="w" horiz-adv-x="833" 
d="M566 165h8l84 234q15 35 1 54.5t-65 18.5v38h199v-38q-34 0 -50 -16.5t-32 -61.5l-147 -406h-33l-110 306l-114 -306h-32l-155 432q-11 32 -28.5 42t-51.5 10v38h225v-38q-37 1 -47 -11t1 -37l94 -259h6l76 201l-19 54q-13 36 -25 44t-53 8v38h224v-38q-38 1 -46 -9
t1 -39z" />
    <glyph glyph-name="x" unicode="x" horiz-adv-x="633" 
d="M585 0h-253v39q47 1 56 10t-10 39l-80 117l-97 -117q-18 -23 -5.5 -35.5t51.5 -13.5v-39h-199v39q46 0 87 50l134 160l-113 167q-22 32 -42.5 44t-60.5 12v38h249v-38q-40 1 -49 -10.5t8 -36.5l71 -108l78 104q24 31 15 40.5t-59 10.5v38h215v-38q-67 0 -101 -46
l-118 -153l113 -169q22 -34 47 -49.5t63 -15.5v-39z" />
    <glyph glyph-name="y" unicode="y" horiz-adv-x="609" 
d="M569 510v-38q-57 0 -86 -54l-119 -199v-123q0 -39 14.5 -48t64.5 -9v-39h-255v39q55 0 66 8.5t11 48.5v115l-128 199q-26 38 -43 50t-54 12v38h243v-38q-25 -1 -38 -2.5t-20.5 -5.5t-5.5 -12t12 -21l106 -164l95 162q13 18 1 30.5t-47 12.5v38h183z" />
    <glyph glyph-name="z" unicode="z" horiz-adv-x="614" 
d="M204 48l3 -8h158q102 0 125 166h40l-14 -206h-436v22l323 443l-3 7h-150q-102 0 -111 -153h-41l7 191h429v-20z" />
    <glyph glyph-name="braceleft" unicode="{" horiz-adv-x="525" 
d="M192 283v-16q63 -9 107 -51.5t44 -104.5q0 -27 -22.5 -95t-22.5 -108q0 -94 156 -94v-42q-137 0 -187.5 35t-50.5 111q0 38 21.5 104t21.5 97q0 59 -43.5 90t-114.5 31v66q67 0 112.5 35t45.5 82q0 35 -20.5 93.5t-20.5 91.5q0 71 51.5 100.5t178.5 29.5v-42
q-150 0 -150 -79q0 -39 22.5 -101.5t22.5 -87.5q0 -53 -43.5 -92.5t-107.5 -52.5z" />
    <glyph glyph-name="bar" unicode="|" horiz-adv-x="544" 
d="M236 -233v984h75v-984h-75z" />
    <glyph glyph-name="braceright" unicode="}" horiz-adv-x="525" 
d="M333 267v16q-64 13 -107.5 52.5t-43.5 92.5q0 25 22.5 87.5t22.5 101.5q0 79 -150 79v42q127 0 178.5 -29.5t51.5 -100.5q0 -33 -20.5 -91.5t-20.5 -93.5q0 -47 45.5 -82t112.5 -35v-66q-71 0 -114.5 -31t-43.5 -90q0 -31 21.5 -97t21.5 -104q0 -76 -50.5 -111
t-187.5 -35v42q156 0 156 94q0 40 -22.5 108t-22.5 95q0 62 44 104.5t107 51.5z" />
    <glyph glyph-name="asciitilde" unicode="~" horiz-adv-x="544" 
d="M475 368l35 -13q-19 -59 -62 -104.5t-82 -45.5q-26 0 -106 38q-86 42 -107 42t-38 -21t-38 -63l-39 15q17 50 60.5 101t70.5 51q30 0 110 -39q76 -42 108 -42q24 0 50.5 26t37.5 55z" />
    <glyph glyph-name="uni00A0" unicode="&#xa0;" horiz-adv-x="290" 
 />
    <glyph glyph-name="exclamdown" unicode="&#xa1;" horiz-adv-x="449" 
d="M166 -110q1 7 8.5 62.5t12.5 96t10 109t5 130.5h44q0 -121 12.5 -232t26.5 -166q8 -41 -6.5 -73.5t-55.5 -32.5q-74 0 -57 106zM294 445q0 -29 -20 -49.5t-49 -20.5t-49.5 20.5t-20.5 49.5q0 28 20.5 48t49.5 20t49 -19.5t20 -48.5z" />
    <glyph glyph-name="cent" unicode="&#xa2;" horiz-adv-x="483" 
d="M397 279l32 -11q-17 -59 -57.5 -95t-97.5 -37v-96h-38v98q-74 10 -120.5 63.5t-46.5 150.5q0 87 47.5 148t119.5 74v92h38v-89q57 -2 99 -33.5t42 -76.5q0 -31 -13.5 -47.5t-36.5 -16.5q-25 0 -39.5 17.5t-13.5 43.5l24 39q-13 37 -62 37v-356h13q41 0 70 27t40 68z
M158 364q0 -136 78 -171v341q-78 -28 -78 -170z" />
    <glyph glyph-name="sterling" unicode="&#xa3;" horiz-adv-x="642" 
d="M102 378h79q-30 75 -30 118q0 86 57.5 133t133.5 47q80 0 126 -38t46 -77q0 -23 -13 -37t-30 -14q-21 0 -36 20t-23 43.5t-26 43.5t-45 20q-36 0 -61.5 -30.5t-25.5 -90.5q0 -18 4 -37.5t8.5 -32.5t13 -34.5t12.5 -33.5h150v-46h-139q4 -26 4 -42q0 -108 -54 -162l8 -13
q25 17 51 17q31 0 59 -23t53.5 -46.5t51.5 -23.5q17 0 27.5 9.5t10.5 26.5q0 14 -20.5 34t-20.5 39q0 15 10.5 27t27.5 12q26 0 41 -20.5t15 -58.5q0 -58 -38.5 -89t-89.5 -31q-68 0 -129 30t-88 64h-5q-50 -94 -105 -94q-13 0 -21 7t-8 18q0 30 34 55.5t84 41.5
q20 51 20 122q0 40 -22 100h-97v46z" />
    <glyph glyph-name="currency" unicode="&#xa4;" horiz-adv-x="678" 
d="M117 271q0 68 41 126v7l-46 44q-11 12 -2 28.5t25.5 22t28.5 -2.5l46 -48q60 42 131 42q75 0 128 -39v1l44 46q13 9 30 1t28.5 -26.5t1.5 -28.5l-46 -43v-7q38 -57 38 -123q0 -68 -42 -129v-7l49 -47q11 -11 1.5 -28t-25.5 -23.5t-28 3.5v1l-51 50q-57 -39 -128 -39
q-70 0 -126 35l-42 -44v-1q-11 -12 -31.5 -4.5t-29.5 23.5t1 29l45 44v7q-41 56 -41 130zM183 270q0 -74 44 -121.5t115 -47.5q66 0 110.5 48t44.5 121q0 74 -44.5 121.5t-111.5 47.5q-73 0 -115.5 -48t-42.5 -121z" />
    <glyph glyph-name="yen" unicode="&#xa5;" horiz-adv-x="660" 
d="M630 635v-36q-68 0 -108 -72l-122 -224h128v-46h-138v-55h138v-46h-138v-40q0 -54 17.5 -66.5t77.5 -12.5v-37h-283v37q66 0 79.5 11.5t13.5 67.5v40h-142v46h142v55h-142v46h128l-131 214q-36 53 -56 67.5t-64 14.5v36h269v-36q-53 0 -66 -13.5t11 -48.5l125 -206
l112 205q16 26 4 44t-52 19v36h197z" />
    <glyph glyph-name="brokenbar" unicode="&#xa6;" horiz-adv-x="544" 
d="M311 406h-75v345h75v-345zM236 112h75v-345h-75v345z" />
    <glyph glyph-name="section" unicode="&#xa7;" horiz-adv-x="589" 
d="M107 475q0 109 68 173.5t152 64.5q42 0 74 -20t32 -56q0 -19 -12.5 -31t-35.5 -12q-24 0 -52 31t-53 31q-22 0 -35.5 -21t-13.5 -49q0 -36 26 -82.5t63 -94.5t73.5 -100.5t62.5 -116.5t26 -127q0 -54 -24 -100.5t-60.5 -75t-77 -44t-75.5 -15.5q-46 0 -83.5 22t-37.5 62
q0 19 14 31t38 12q18 0 30.5 -10.5t18.5 -22.5t20.5 -22.5t36.5 -10.5t37.5 16.5t15.5 43.5q0 51 -23.5 102.5t-57 96t-67 91.5t-57 108t-23.5 126zM387 -39l7 -6q34 39 34 111q0 52 -25 110t-61 108.5t-71 99t-59 96t-22 83.5l-8 4q-24 -35 -24 -84q0 -56 25 -114
t60.5 -107.5t70 -97.5t56.5 -101t17 -102z" />
    <glyph glyph-name="dieresis" unicode="&#xa8;" horiz-adv-x="500" 
d="M388 569q0 -20 -16 -35.5t-36 -15.5q-21 0 -37 15.5t-16 35.5q0 21 16 37t37 16q20 0 36 -16t16 -37zM217 569q0 -21 -15.5 -36t-36.5 -15t-37 15.5t-16 35.5q0 21 16 37t37 16t36.5 -16t15.5 -37z" />
    <glyph glyph-name="copyright" unicode="&#xa9;" horiz-adv-x="865" 
d="M93 327q0 138 100.5 238t239.5 100q144 0 241.5 -99t97.5 -239q0 -143 -99.5 -242t-239.5 -99q-142 0 -241 96.5t-99 244.5zM153 324q0 -122 79 -203.5t203 -81.5q123 0 199.5 81t76.5 204q0 125 -79 208t-199 83q-122 0 -201 -83.5t-79 -207.5zM442 183q45 0 70.5 19.5
t39.5 62.5h28v-82q-67 -43 -140 -43q-82 0 -137 50t-55 138q0 84 55 135t137 51q67 0 136 -37v-85h-30q-16 46 -42.5 64t-63.5 18q-51 0 -81.5 -35t-30.5 -110q0 -71 34.5 -108.5t79.5 -37.5z" />
    <glyph glyph-name="ordfeminine" unicode="&#xaa;" horiz-adv-x="514" 
d="M335 366l-29 66h-135l-16 -40l-9 -25q0 -15 59 -15v-34h-171v34q48 0 65 31q21 52 68.5 167t71.5 174h28l153 -345q9 -15 21.5 -21t39.5 -6v-34h-199v34h28q18 0 23 3t2 11zM237 588l-50 -118h102z" />
    <glyph glyph-name="guillemotleft" unicode="&#xab;" horiz-adv-x="672" 
d="M115 240l182 219l33 -20l-118 -201v-15l118 -203l-33 -24l-182 221v23zM322 240l182 219l33 -20l-118 -201v-15l118 -203l-33 -24l-182 221v23z" />
    <glyph glyph-name="logicalnot" unicode="&#xac;" horiz-adv-x="544" 
d="M432 53v200h-393v54h463v-254h-70z" />
    <glyph glyph-name="registered" unicode="&#xae;" horiz-adv-x="598" 
d="M85 503q0 88 63 151t151 63q91 0 152.5 -62.5t61.5 -151.5q0 -88 -63 -151t-151 -63q-89 0 -151.5 61t-62.5 153zM129 502q0 -76 48 -125.5t123 -49.5q70 0 119.5 50.5t49.5 124.5q0 77 -49 126.5t-121 49.5q-78 0 -124 -49.5t-46 -126.5zM332 508v-8q14 -6 38 -39.5
t37 -42.5l15 -7v-20h-55q-14 10 -41.5 52t-47.5 50h-13v-75l37 -7v-20h-114v20l27 7v183l-27 7v20h116q29 0 57 -14t28 -48q0 -20 -15.5 -36.5t-41.5 -21.5zM265 601v-82h26q23 0 34.5 13.5t11.5 31.5q0 37 -40 37h-32z" />
    <glyph glyph-name="macron" unicode="&#xaf;" horiz-adv-x="500" 
d="M377 520h-254v58h254v-58z" />
    <glyph glyph-name="degree" unicode="&#xb0;" horiz-adv-x="417" 
d="M65 564q0 59 42 101.5t101 42.5t101.5 -42.5t42.5 -101.5t-42.5 -101t-101.5 -42q-58 0 -100.5 42.5t-42.5 100.5zM125 564q0 -39 22.5 -65.5t59.5 -26.5t60.5 26.5t23.5 65.5t-23.5 66.5t-60.5 27.5t-59.5 -27.5t-22.5 -66.5z" />
    <glyph glyph-name="plusminus" unicode="&#xb1;" horiz-adv-x="620" 
d="M570 320h-230v-210h-60v210h-230v60h230v210h60v-210h230v-60zM570 0h-520v60h520v-60z" />
    <glyph glyph-name="two.sups" unicode="&#xb2;" horiz-adv-x="348" 
d="M121 474l2 -7h110q25 0 35 66h45l-17 -117h-259l-8 29l24 20q31 26 49 43t50.5 51t49 68.5t16.5 66.5q0 42 -18 61t-43 19q-39 0 -61 -43l35 -48q0 -19 -13.5 -30.5t-34.5 -11.5q-22 0 -34 14t-12 37q0 49 37 79.5t89 30.5q62 0 98.5 -29t36.5 -80q0 -24 -12 -49
t-36.5 -51t-43 -43t-48.5 -42q-27 -22 -40 -35z" />
    <glyph glyph-name="three.sups" unicode="&#xb3;" horiz-adv-x="340" 
d="M201 624l3 -5q42 -6 70.5 -31.5t28.5 -69.5q0 -53 -47.5 -81t-111.5 -28q-51 0 -84 19.5t-33 55.5q0 21 11.5 34t30.5 13q43 0 43 -43l-24 -38q17 -14 52 -14t59.5 19t24.5 65q0 73 -59 73q-17 0 -61 -14l-8 29q61 23 89 49.5t28 62.5q0 55 -53 55q-35 0 -55 -19
q18 -29 27 -46q0 -15 -12 -24.5t-30 -9.5q-19 0 -31 13t-12 34q0 37 37.5 58t85.5 21q54 0 88 -22.5t34 -61.5q0 -53 -91 -94z" />
    <glyph glyph-name="acute" unicode="&#xb4;" horiz-adv-x="500" 
d="M190 498v8l86 164h94v-10l-129 -162h-51z" />
    <glyph glyph-name="mu" unicode="&#xb5;" horiz-adv-x="544" 
d="M373 27l-8 6q-69 -45 -137 -45q-42 0 -73 26v-4q1 -13 3 -38.5t2 -38.5q6 -76 6 -94q0 -56 -48 -56q-40 0 -40 48q0 27 5 105q7 136 9 182v1q-1 7 -1 20v268q-11 1 -32.5 5t-32.5 6v29l158 18v-311q0 -60 21.5 -84t66.5 -24q57 0 95 40v321q-11 2 -32.5 6t-31.5 5v29
l157 18v-367q0 -49 21 -49t34 35l28 -10q-16 -44 -46 -63.5t-59 -19.5q-28 0 -39.5 6.5t-25.5 28.5v1z" />
    <glyph glyph-name="mu" unicode="&#x3bc;" horiz-adv-x="544" 
d="M373 27l-8 6q-69 -45 -137 -45q-42 0 -73 26v-4q1 -13 3 -38.5t2 -38.5q6 -76 6 -94q0 -56 -48 -56q-40 0 -40 48q0 27 5 105q7 136 9 182v1q-1 7 -1 20v268q-11 1 -32.5 5t-32.5 6v29l158 18v-311q0 -60 21.5 -84t66.5 -24q57 0 95 40v321q-11 2 -32.5 6t-31.5 5v29
l157 18v-367q0 -49 21 -49t34 35l28 -10q-16 -44 -46 -63.5t-59 -19.5q-28 0 -39.5 6.5t-25.5 28.5v1z" />
    <glyph glyph-name="paragraph" unicode="&#xb6;" horiz-adv-x="649" 
d="M571 706v-72h-58v-791h-60v791h-65v-791h-60v400q-127 0 -196.5 62t-69.5 170q0 105 69 168t177 63h263zM328 300v334q-56 0 -90 -44.5t-34 -117.5q0 -78 32.5 -125t91.5 -47z" />
    <glyph glyph-name="periodcentered" unicode="&#xb7;" horiz-adv-x="369" 
d="M115 266q0 29 20 49.5t49 20.5t49.5 -20.5t20.5 -49.5q0 -28 -20.5 -48t-49.5 -20t-49 19.5t-20 48.5z" />
    <glyph glyph-name="cedilla" unicode="&#xb8;" horiz-adv-x="500" 
d="M202 -224l-8 25q39 6 63 22.5t24 39.5q0 42 -71 42q-16 0 -30 -2l-5 7l58 110h45l-38 -70q46 0 75.5 -18t29.5 -54q0 -38 -42 -66t-101 -36z" />
    <glyph glyph-name="one.sups" unicode="&#xb9;" horiz-adv-x="298" 
d="M47 750v25q67 3 113 22h35v-317q0 -23 16.5 -32.5t56.5 -9.5v-22h-219v22q41 2 58 10.5t17 31.5v261z" />
    <glyph glyph-name="ordmasculine" unicode="&#xba;" horiz-adv-x="526" 
d="M470 517q0 -87 -61.5 -147.5t-146.5 -60.5q-87 0 -146.5 59t-59.5 149q0 92 59 150.5t147 58.5q86 0 147 -59.5t61 -149.5zM376 517q0 171 -114 171q-111 0 -111 -171t111 -171q57 0 85.5 46t28.5 125z" />
    <glyph glyph-name="guillemotright" unicode="&#xbb;" horiz-adv-x="672" 
d="M375 459l182 -219v-23l-182 -221l-33 24l118 203v15l-118 201zM168 459l182 -219v-23l-182 -221l-33 24l118 203v15l-118 201z" />
    <glyph glyph-name="onequarter" unicode="&#xbc;" 
d="M173 -14l241 370l223 353l40 -26l-234 -349l-231 -375zM99 641v25q67 3 113 22h35v-317q0 -23 16.5 -32.5t56.5 -9.5v-22h-219v22q41 2 58 10.5t17 31.5v261zM423 106l-6 14l202 258l35 -4v-241h59v-27h-59v-40q0 -33 14.5 -43t43.5 -10v-22h-190v22q32 0 47 10t15 39v44
h-161zM478 135l2 -2h102v137z" />
    <glyph glyph-name="onehalf" unicode="&#xbd;" 
d="M173 -14l241 370l223 353l40 -26l-234 -349l-231 -375zM99 641v25q67 3 113 22h35v-317q0 -23 16.5 -32.5t56.5 -9.5v-22h-219v22q41 2 58 10.5t17 31.5v261zM557 49l2 -7h110q25 0 35 66h45l-17 -117h-259l-8 29l24 20q31 26 49 43t50.5 51t49 68.5t16.5 66.5
q0 42 -18 61t-43 19q-39 0 -61 -43l35 -48q0 -19 -13.5 -30.5t-34.5 -11.5q-22 0 -34 14t-12 37q0 49 37 79.5t89 30.5q62 0 98.5 -29t36.5 -80q0 -24 -12 -49t-36.5 -51t-43 -43t-48.5 -42q-27 -22 -40 -35z" />
    <glyph glyph-name="threequarters" unicode="&#xbe;" 
d="M173 -14l241 370l223 353l40 -26l-234 -349l-231 -375zM231 515l3 -5q42 -6 70.5 -31.5t28.5 -69.5q0 -53 -47.5 -81t-111.5 -28q-51 0 -84 19.5t-33 55.5q0 21 11.5 34t30.5 13q43 0 43 -43l-24 -38q17 -14 52 -14t59.5 19t24.5 65q0 73 -59 73q-17 0 -61 -14l-8 29
q61 23 89 49.5t28 62.5q0 55 -53 55q-35 0 -55 -19q18 -29 27 -46q0 -15 -12 -24.5t-30 -9.5q-19 0 -31 13t-12 34q0 37 37.5 58t85.5 21q54 0 88 -22.5t34 -61.5q0 -53 -91 -94zM423 106l-6 14l202 258l35 -4v-241h59v-27h-59v-40q0 -33 14.5 -43t43.5 -10v-22h-190v22
q32 0 47 10t15 39v44h-161zM478 135l2 -2h102v137z" />
    <glyph glyph-name="questiondown" unicode="&#xbf;" horiz-adv-x="600" 
d="M408 63l-12 -7q-61 28 -119 28q-55 0 -87.5 -36t-32.5 -93t45.5 -105t118.5 -48q43 0 62 21l-31 62q0 22 17 36.5t42 14.5t41 -16.5t16 -48.5q0 -48 -38.5 -79t-102.5 -31q-93 0 -162.5 62.5t-69.5 157.5q0 86 45.5 142t116.5 56q68 0 99 -23l3 109h44zM451 422
q0 -29 -20 -49.5t-49 -20.5t-49.5 20.5t-20.5 49.5q0 28 20.5 48t49.5 20t49 -19.5t20 -48.5z" />
    <glyph glyph-name="Agrave" unicode="&#xc0;" horiz-adv-x="770" 
d="M524 79l-47 125h-244l-43 -123q-7 -24 13 -32.5t82 -8.5v-40h-242v40q42 0 64 13t35 48l222 600h24l243 -607q14 -37 30.5 -45.5t65.5 -8.5v-40h-288v40h27q49 0 58 6t0 33zM354 528h-7l-98 -277h210zM438 755v-8h-51l-129 127v10h94z" />
    <glyph glyph-name="Aacute" unicode="&#xc1;" horiz-adv-x="770" 
d="M524 79l-47 125h-244l-43 -123q-7 -24 13 -32.5t82 -8.5v-40h-242v40q42 0 64 13t35 48l222 600h24l243 -607q14 -37 30.5 -45.5t65.5 -8.5v-40h-288v40h27q49 0 58 6t0 33zM354 528h-7l-98 -277h210zM318 747v8l86 129h94v-10l-129 -127h-51z" />
    <glyph glyph-name="Acircumflex" unicode="&#xc2;" horiz-adv-x="770" 
d="M524 79l-47 125h-244l-43 -123q-7 -24 13 -32.5t82 -8.5v-40h-242v40q42 0 64 13t35 48l222 600h24l243 -607q14 -37 30.5 -45.5t65.5 -8.5v-40h-288v40h27q49 0 58 6t0 33zM354 528h-7l-98 -277h210zM523 755v-8h-46l-99 69l-99 -69h-46v8l121 129h48z" />
    <glyph glyph-name="Atilde" unicode="&#xc3;" horiz-adv-x="770" 
d="M524 79l-47 125h-244l-43 -123q-7 -24 13 -32.5t82 -8.5v-40h-242v40q42 0 64 13t35 48l222 600h24l243 -607q14 -37 30.5 -45.5t65.5 -8.5v-40h-288v40h27q49 0 58 6t0 33zM354 528h-7l-98 -277h210zM506 907l26 -10q-14 -49 -43 -87t-55 -38q-15 0 -63.5 30t-63.5 30
q-16 0 -27.5 -16t-25.5 -47l-29 12q11 40 41 81.5t48 41.5q19 0 65 -30.5t64 -30.5q17 0 36 21t27 43z" />
    <glyph glyph-name="Adieresis" unicode="&#xc4;" horiz-adv-x="770" 
d="M524 79l-47 125h-244l-43 -123q-7 -24 13 -32.5t82 -8.5v-40h-242v40q42 0 64 13t35 48l222 600h24l243 -607q14 -37 30.5 -45.5t65.5 -8.5v-40h-288v40h27q49 0 58 6t0 33zM354 528h-7l-98 -277h210zM516 828q0 -20 -16 -35.5t-36 -15.5q-21 0 -37 15.5t-16 35.5
q0 21 16 37t37 16q20 0 36 -16t16 -37zM345 828q0 -20 -15.5 -35.5t-36.5 -15.5t-37 15.5t-16 35.5q0 21 16 37t37 16t36.5 -16t15.5 -37z" />
    <glyph glyph-name="Aring" unicode="&#xc5;" horiz-adv-x="770" 
d="M524 79l-47 125h-244l-43 -123q-7 -24 13 -32.5t82 -8.5v-40h-242v40q42 0 64 13t35 48l222 600h24l243 -607q14 -37 30.5 -45.5t65.5 -8.5v-40h-288v40h27q49 0 58 6t0 33zM354 528h-7l-98 -277h210zM284 841q0 39 27.5 66.5t66.5 27.5t66.5 -27.5t27.5 -66.5
t-27.5 -66.5t-66.5 -27.5t-66.5 27.5t-27.5 66.5zM330 841q0 -22 13 -36.5t34 -14.5t34.5 14.5t13.5 36.5t-13.5 37.5t-34.5 15.5t-34 -15.5t-13 -37.5z" />
    <glyph glyph-name="AE" unicode="&#xc6;" horiz-adv-x="1081" 
d="M996 247l-13 -247h-578v40q68 0 85 4.5t17 24.5v135h-241l-77 -123q-18 -29 24 -36q24 -5 71 -5v-40h-242v40q26 0 44.5 8.5t26 17t28.5 35.5l356 541q-15 10 -92 10v39h548l11 -217h-39q-18 101 -48.5 139.5t-98.5 38.5h-167v-291h74q100 0 100 137h35v-312h-35
q0 81 -21.5 106.5t-84.5 25.5h-68v-278h191q71 0 112 64t41 143h41zM501 576l-205 -325h211v325h-6z" />
    <glyph glyph-name="Ccedilla" unicode="&#xc7;" horiz-adv-x="746" 
d="M362 -216l-8 25q39 6 63 22.5t24 39.5q0 42 -71 42q-16 0 -30 -2l-5 7l38 72q-136 12 -215.5 107t-79.5 248q0 147 101.5 251.5t233.5 104.5q54 0 101 -13.5t72 -31.5l3 1l24 34h31l4 -261h-42q-7 41 -21.5 79t-37.5 72t-58.5 54.5t-79.5 20.5q-102 0 -158 -86t-56 -227
q0 -309 219 -309q78 0 126 47t70 144h46l-23 -181q-82 -54 -217 -56l-16 -30q46 0 75.5 -18t29.5 -54q0 -38 -42 -66t-101 -36z" />
    <glyph glyph-name="Egrave" unicode="&#xc8;" horiz-adv-x="741" 
d="M656 247l-13 -247h-578v40q68 0 85 4.5t17 24.5v552q0 20 -18.5 25.5t-83.5 5.5v39h548l11 -217h-39q-18 101 -48.5 139.5t-98.5 38.5h-167v-291h74q100 0 100 137h35v-312h-35q0 81 -21.5 106.5t-84.5 25.5h-68v-278h191q71 0 112 64t41 143h41zM434 755v-8h-51
l-129 127v10h94z" />
    <glyph glyph-name="Eacute" unicode="&#xc9;" horiz-adv-x="741" 
d="M656 247l-13 -247h-578v40q68 0 85 4.5t17 24.5v552q0 20 -18.5 25.5t-83.5 5.5v39h548l11 -217h-39q-18 101 -48.5 139.5t-98.5 38.5h-167v-291h74q100 0 100 137h35v-312h-35q0 81 -21.5 106.5t-84.5 25.5h-68v-278h191q71 0 112 64t41 143h41zM314 747v8l86 129h94
v-10l-129 -127h-51z" />
    <glyph glyph-name="Ecircumflex" unicode="&#xca;" horiz-adv-x="741" 
d="M656 247l-13 -247h-578v40q68 0 85 4.5t17 24.5v552q0 20 -18.5 25.5t-83.5 5.5v39h548l11 -217h-39q-18 101 -48.5 139.5t-98.5 38.5h-167v-291h74q100 0 100 137h35v-312h-35q0 81 -21.5 106.5t-84.5 25.5h-68v-278h191q71 0 112 64t41 143h41zM519 755v-8h-46l-99 69
l-99 -69h-46v8l121 129h48z" />
    <glyph glyph-name="Edieresis" unicode="&#xcb;" horiz-adv-x="741" 
d="M656 247l-13 -247h-578v40q68 0 85 4.5t17 24.5v552q0 20 -18.5 25.5t-83.5 5.5v39h548l11 -217h-39q-18 101 -48.5 139.5t-98.5 38.5h-167v-291h74q100 0 100 137h35v-312h-35q0 81 -21.5 106.5t-84.5 25.5h-68v-278h191q71 0 112 64t41 143h41zM512 828
q0 -20 -16 -35.5t-36 -15.5q-21 0 -37 15.5t-16 35.5q0 21 16 37t37 16q20 0 36 -16t16 -37zM341 828q0 -20 -15.5 -35.5t-36.5 -15.5t-37 15.5t-16 35.5q0 21 16 37t37 16t36.5 -16t15.5 -37z" />
    <glyph glyph-name="Igrave" unicode="&#xcc;" horiz-adv-x="449" 
d="M379 691v-39q-68 0 -85.5 -6.5t-17.5 -33.5v-528q0 -30 16.5 -37t86.5 -7v-40h-309v40q69 0 85.5 7t16.5 37v528q0 28 -17 34t-85 6v39h309zM284 755v-8h-51l-129 127v10h94z" />
    <glyph glyph-name="Iacute" unicode="&#xcd;" horiz-adv-x="449" 
d="M379 691v-39q-68 0 -85.5 -6.5t-17.5 -33.5v-528q0 -30 16.5 -37t86.5 -7v-40h-309v40q69 0 85.5 7t16.5 37v528q0 28 -17 34t-85 6v39h309zM164 747v8l86 129h94v-10l-129 -127h-51z" />
    <glyph glyph-name="Icircumflex" unicode="&#xce;" horiz-adv-x="449" 
d="M379 691v-39q-68 0 -85.5 -6.5t-17.5 -33.5v-528q0 -30 16.5 -37t86.5 -7v-40h-309v40q69 0 85.5 7t16.5 37v528q0 28 -17 34t-85 6v39h309zM369 755v-8h-46l-99 69l-99 -69h-46v8l121 129h48z" />
    <glyph glyph-name="Idieresis" unicode="&#xcf;" horiz-adv-x="449" 
d="M379 691v-39q-68 0 -85.5 -6.5t-17.5 -33.5v-528q0 -30 16.5 -37t86.5 -7v-40h-309v40q69 0 85.5 7t16.5 37v528q0 28 -17 34t-85 6v39h309zM362 828q0 -20 -16 -35.5t-36 -15.5q-21 0 -37 15.5t-16 35.5q0 21 16 37t37 16q20 0 36 -16t16 -37zM191 828
q0 -20 -15.5 -35.5t-36.5 -15.5t-37 15.5t-16 35.5q0 21 16 37t37 16t36.5 -16t15.5 -37z" />
    <glyph glyph-name="Eth" unicode="&#xd0;" horiz-adv-x="821" 
d="M743 345q0 -65 -21.5 -124.5t-64 -110t-115 -80.5t-165.5 -30h-312v40q70 2 86 6.5t16 27.5v246h-83v55h83v246q0 21 -16 26t-86 5v39h310q81 0 146 -22t105.5 -57t67.5 -82t38 -92.5t11 -92.5zM624 344q0 139 -66 223.5t-211 84.5h-76v-277h205v-55h-205v-280h104
q67 0 117 26.5t78 71.5t41 96.5t13 109.5z" />
    <glyph glyph-name="Ntilde" unicode="&#xd1;" horiz-adv-x="812" 
d="M203 553h-4v-461q0 -33 27 -42.5t92 -9.5v-40h-261v40q50 0 74 10t24 42v509q-43 51 -103 51v39h173l396 -508h4v420q0 49 -121 49v39h254v-39q-52 0 -71 -11.5t-19 -37.5v-613h-27zM540 907l26 -10q-14 -49 -43 -87t-55 -38q-15 0 -63.5 30t-63.5 30q-16 0 -27.5 -16
t-25.5 -47l-29 12q11 40 41 81.5t48 41.5q19 0 65 -30.5t64 -30.5q17 0 36 21t27 43z" />
    <glyph glyph-name="Ograve" unicode="&#xd2;" horiz-adv-x="801" 
d="M723 345q0 -151 -95 -254t-227 -103q-137 0 -230 100t-93 257q0 158 92.5 257t230.5 99q133 0 227.5 -100.5t94.5 -255.5zM605 345q0 148 -47 229.5t-157 81.5q-112 0 -158.5 -79.5t-46.5 -231.5q0 -150 47.5 -230.5t157.5 -80.5q102 0 153 83t51 228zM461 755v-8h-51
l-129 127v10h94z" />
    <glyph glyph-name="Oacute" unicode="&#xd3;" horiz-adv-x="801" 
d="M723 345q0 -151 -95 -254t-227 -103q-137 0 -230 100t-93 257q0 158 92.5 257t230.5 99q133 0 227.5 -100.5t94.5 -255.5zM605 345q0 148 -47 229.5t-157 81.5q-112 0 -158.5 -79.5t-46.5 -231.5q0 -150 47.5 -230.5t157.5 -80.5q102 0 153 83t51 228zM341 747v8l86 129
h94v-10l-129 -127h-51z" />
    <glyph glyph-name="Ocircumflex" unicode="&#xd4;" horiz-adv-x="801" 
d="M723 345q0 -151 -95 -254t-227 -103q-137 0 -230 100t-93 257q0 158 92.5 257t230.5 99q133 0 227.5 -100.5t94.5 -255.5zM605 345q0 148 -47 229.5t-157 81.5q-112 0 -158.5 -79.5t-46.5 -231.5q0 -150 47.5 -230.5t157.5 -80.5q102 0 153 83t51 228zM546 755v-8h-46
l-99 69l-99 -69h-46v8l121 129h48z" />
    <glyph glyph-name="Otilde" unicode="&#xd5;" horiz-adv-x="801" 
d="M723 345q0 -151 -95 -254t-227 -103q-137 0 -230 100t-93 257q0 158 92.5 257t230.5 99q133 0 227.5 -100.5t94.5 -255.5zM605 345q0 148 -47 229.5t-157 81.5q-112 0 -158.5 -79.5t-46.5 -231.5q0 -150 47.5 -230.5t157.5 -80.5q102 0 153 83t51 228zM529 907l26 -10
q-14 -49 -43 -87t-55 -38q-15 0 -63.5 30t-63.5 30q-16 0 -27.5 -16t-25.5 -47l-29 12q11 40 41 81.5t48 41.5q19 0 65 -30.5t64 -30.5q17 0 36 21t27 43z" />
    <glyph glyph-name="Odieresis" unicode="&#xd6;" horiz-adv-x="801" 
d="M723 345q0 -151 -95 -254t-227 -103q-137 0 -230 100t-93 257q0 158 92.5 257t230.5 99q133 0 227.5 -100.5t94.5 -255.5zM605 345q0 148 -47 229.5t-157 81.5q-112 0 -158.5 -79.5t-46.5 -231.5q0 -150 47.5 -230.5t157.5 -80.5q102 0 153 83t51 228zM539 828
q0 -20 -16 -35.5t-36 -15.5q-21 0 -37 15.5t-16 35.5q0 21 16 37t37 16q20 0 36 -16t16 -37zM368 828q0 -20 -15 -35.5t-37 -15.5q-21 0 -37 15.5t-16 35.5q0 21 16 37t37 16t36.5 -16t15.5 -37z" />
    <glyph glyph-name="multiply" unicode="&#xd7;" horiz-adv-x="620" 
d="M493 35l-183 183l-183 -183l-42 42l183 183l-183 183l42 42l183 -183l183 183l42 -42l-183 -183l183 -183z" />
    <glyph glyph-name="Oslash" unicode="&#xd8;" horiz-adv-x="801" 
d="M723 345q0 -151 -95 -254t-227 -103q-106 0 -188 62l-74 -103h-61l98 135q-98 101 -98 263q0 158 92.5 257t230.5 99q97 0 179 -58l64 89h61l-87 -121q105 -103 105 -266zM605 345q0 126 -33 202l-321 -444q52 -69 150 -69q102 0 153 83t51 228zM196 345q0 -120 29 -194
l319 442q-50 63 -143 63q-112 0 -158.5 -79.5t-46.5 -231.5z" />
    <glyph glyph-name="Ugrave" unicode="&#xd9;" horiz-adv-x="806" 
d="M755 691v-39q-53 0 -75 -10t-22 -33v-328q0 -145 -58 -219t-197 -74q-258 0 -258 237v387q0 27 -15 33.5t-79 6.5v39h296v-39q-65 0 -81 -6.5t-16 -33.5v-387q0 -96 46 -144.5t121 -48.5q49 0 84.5 15t55.5 37.5t31.5 57t15 66.5t3.5 73v328q0 23 -26 33t-91 10v39h265z
M487 755v-8h-51l-129 127v10h94z" />
    <glyph glyph-name="Uacute" unicode="&#xda;" horiz-adv-x="806" 
d="M755 691v-39q-53 0 -75 -10t-22 -33v-328q0 -145 -58 -219t-197 -74q-258 0 -258 237v387q0 27 -15 33.5t-79 6.5v39h296v-39q-65 0 -81 -6.5t-16 -33.5v-387q0 -96 46 -144.5t121 -48.5q49 0 84.5 15t55.5 37.5t31.5 57t15 66.5t3.5 73v328q0 23 -26 33t-91 10v39h265z
M367 747v8l86 129h94v-10l-129 -127h-51z" />
    <glyph glyph-name="Ucircumflex" unicode="&#xdb;" horiz-adv-x="806" 
d="M755 691v-39q-53 0 -75 -10t-22 -33v-328q0 -145 -58 -219t-197 -74q-258 0 -258 237v387q0 27 -15 33.5t-79 6.5v39h296v-39q-65 0 -81 -6.5t-16 -33.5v-387q0 -96 46 -144.5t121 -48.5q49 0 84.5 15t55.5 37.5t31.5 57t15 66.5t3.5 73v328q0 23 -26 33t-91 10v39h265z
M572 755v-8h-46l-99 69l-99 -69h-46v8l121 129h48z" />
    <glyph glyph-name="Udieresis" unicode="&#xdc;" horiz-adv-x="806" 
d="M755 691v-39q-53 0 -75 -10t-22 -33v-328q0 -145 -58 -219t-197 -74q-258 0 -258 237v387q0 27 -15 33.5t-79 6.5v39h296v-39q-65 0 -81 -6.5t-16 -33.5v-387q0 -96 46 -144.5t121 -48.5q49 0 84.5 15t55.5 37.5t31.5 57t15 66.5t3.5 73v328q0 23 -26 33t-91 10v39h265z
M565 828q0 -20 -16 -35.5t-36 -15.5q-21 0 -37 15.5t-16 35.5q0 21 16 37t37 16q20 0 36 -16t16 -37zM394 828q0 -20 -15 -35.5t-37 -15.5q-21 0 -37 15.5t-16 35.5q0 21 16 37t37 16t36.5 -16t15.5 -37z" />
    <glyph glyph-name="Yacute" unicode="&#xdd;" horiz-adv-x="734" 
d="M694 691v-39q-68 0 -118 -79l-144 -263v-184q0 -59 19 -72.5t84 -13.5v-40h-308v40q72 0 86.5 13t14.5 73v180l-157 257q-39 57 -61 73t-70 16v39h293v-39q-58 0 -72 -14.5t12 -53.5l136 -224l123 223q17 28 4 48t-56 21v39h214zM354 747v8l86 129h94v-10l-129 -127h-51z
" />
    <glyph glyph-name="Thorn" unicode="&#xde;" horiz-adv-x="674" 
d="M360 172h-89v-84q0 -32 19 -40t83 -8v-40h-308v40q63 0 82.5 8t19.5 40v515q0 31 -23.5 40t-78.5 9v39h308v-39q-62 0 -82 -7.5t-20 -41.5v-53h98q45 0 84.5 -9t76 -28.5t57.5 -56.5t21 -89q0 -98 -74 -146.5t-174 -48.5zM345 511h-74v-295h78q68 0 108 34.5t40 104.5
q0 77 -41.5 116.5t-110.5 39.5z" />
    <glyph glyph-name="germandbls" unicode="&#xdf;" horiz-adv-x="680" 
d="M446 -9q-66 0 -120 26l-5 116h48q15 -104 77 -104q34 0 53.5 29.5t19.5 87.5q0 46 -24 77t-69 30q-42 0 -83 -26l-44 47l154 187l-4 9h-208v-401q0 -20 11.5 -25t46.5 -5v-39h-234v39q77 0 77 30v372q0 20 -14.5 25.5t-62.5 5.5v38h493l8 -41l-143 -169l6 -8
q83 15 137 -26.5t54 -118.5q0 -79 -49.5 -117.5t-124.5 -38.5z" />
    <glyph glyph-name="agrave" unicode="&#xe0;" horiz-adv-x="642" 
d="M424 60l-38 88h-176l-22 -55l-12 -31q-3 -13 13 -18t61 -5v-39h-205v39q64 0 82 41l175 438h27l191 -443q12 -25 24.5 -30.5t52.5 -5.5v-39h-239v39h30q28 0 34.5 3.5t1.5 17.5zM300 348h-10l-63 -157h140zM381 578v-8h-51l-129 162v10h94z" />
    <glyph glyph-name="aacute" unicode="&#xe1;" horiz-adv-x="642" 
d="M424 60l-38 88h-176l-22 -55l-12 -31q-3 -13 13 -18t61 -5v-39h-205v39q64 0 82 41l175 438h27l191 -443q12 -25 24.5 -30.5t52.5 -5.5v-39h-239v39h30q28 0 34.5 3.5t1.5 17.5zM300 348h-10l-63 -157h140zM261 570v8l86 164h94v-10l-129 -162h-51z" />
    <glyph glyph-name="acircumflex" unicode="&#xe2;" horiz-adv-x="642" 
d="M424 60l-38 88h-176l-22 -55l-12 -31q-3 -13 13 -18t61 -5v-39h-205v39q64 0 82 41l175 438h27l191 -443q12 -25 24.5 -30.5t52.5 -5.5v-39h-239v39h30q28 0 34.5 3.5t1.5 17.5zM300 348h-10l-63 -157h140zM466 578v-8h-46l-99 99l-99 -99h-46v8l121 164h48z" />
    <glyph glyph-name="atilde" unicode="&#xe3;" horiz-adv-x="642" 
d="M424 60l-38 88h-176l-22 -55l-12 -31q-3 -13 13 -18t61 -5v-39h-205v39q64 0 82 41l175 438h27l191 -443q12 -25 24.5 -30.5t52.5 -5.5v-39h-239v39h30q28 0 34.5 3.5t1.5 17.5zM300 348h-10l-63 -157h140zM449 720l26 -10q-14 -49 -43 -87t-55 -38q-15 0 -63.5 30
t-63.5 30q-16 0 -27.5 -16t-25.5 -47l-29 12q11 40 41 81.5t48 41.5q19 0 65 -30.5t64 -30.5q17 0 36 21t27 43z" />
    <glyph glyph-name="adieresis" unicode="&#xe4;" horiz-adv-x="642" 
d="M424 60l-38 88h-176l-22 -55l-12 -31q-3 -13 13 -18t61 -5v-39h-205v39q64 0 82 41l175 438h27l191 -443q12 -25 24.5 -30.5t52.5 -5.5v-39h-239v39h30q28 0 34.5 3.5t1.5 17.5zM300 348h-10l-63 -157h140zM459 641q0 -20 -16 -35.5t-36 -15.5q-21 0 -37 15.5t-16 35.5
q0 21 16 37t37 16q20 0 36 -16t16 -37zM288 641q0 -21 -15 -36t-37 -15q-21 0 -37 15.5t-16 35.5q0 21 16 37t37 16t36.5 -16t15.5 -37z" />
    <glyph glyph-name="aring" unicode="&#xe5;" horiz-adv-x="642" 
d="M424 60l-38 88h-176l-22 -55l-12 -31q-3 -13 13 -18t61 -5v-39h-205v39q64 0 82 41l175 438h27l191 -443q12 -25 24.5 -30.5t52.5 -5.5v-39h-239v39h30q28 0 34.5 3.5t1.5 17.5zM300 348h-10l-63 -157h140zM227 654q0 39 27.5 66.5t66.5 27.5t66.5 -27.5t27.5 -66.5
t-27.5 -66.5t-66.5 -27.5t-66.5 27.5t-27.5 66.5zM273 654q0 -22 13 -36.5t34 -14.5t34.5 14.5t13.5 36.5t-13.5 37.5t-34.5 15.5t-34 -15.5t-13 -37.5z" />
    <glyph glyph-name="ae" unicode="&#xe6;" horiz-adv-x="880" 
d="M795 189l-11 -189h-455v39q51 0 64 2.5t13 13.5v93h-173l-55 -82q-12 -20 33 -25q16 -2 39 -2v-39h-205v39q55 0 82 41l266 389q-11 3 -64 3v38h432l9 -167h-39q-13 73 -34.5 101t-67.5 28h-124v-201h52q67 0 67 100h36v-236h-36q0 58 -14.5 76.5t-57.5 18.5h-47v-191
h141q50 0 79 46t29 104h41zM400 398l-139 -207h145v207h-6z" />
    <glyph glyph-name="ccedilla" unicode="&#xe7;" horiz-adv-x="618" 
d="M285 -219l-8 25q39 6 63 22.5t24 39.5q0 42 -71 42q-16 0 -30 -2l-5 7l39 76q-103 11 -163.5 81.5t-60.5 181.5q0 109 80 187.5t185 78.5q82 0 140 -45l16 37h30l4 -199h-41q-11 66 -50 115t-102 49q-73 0 -113.5 -62t-40.5 -162q0 -222 158 -222q62 0 99 33.5t57 104.5
h40l-19 -136q-68 -43 -175 -45l-18 -33q46 0 75.5 -18t29.5 -54q0 -38 -42 -66t-101 -36z" />
    <glyph glyph-name="egrave" unicode="&#xe8;" horiz-adv-x="616" 
d="M531 189l-11 -189h-455v39q51 0 64 2.5t13 13.5v400q0 11 -14 14t-63 3v38h432l9 -167h-39q-13 73 -34.5 101t-67.5 28h-124v-201h52q67 0 67 100h36v-236h-36q0 58 -14.5 76.5t-57.5 18.5h-47v-191h141q50 0 79 46t29 104h41zM373 578v-8h-51l-129 162v10h94z" />
    <glyph glyph-name="eacute" unicode="&#xe9;" horiz-adv-x="616" 
d="M531 189l-11 -189h-455v39q51 0 64 2.5t13 13.5v400q0 11 -14 14t-63 3v38h432l9 -167h-39q-13 73 -34.5 101t-67.5 28h-124v-201h52q67 0 67 100h36v-236h-36q0 58 -14.5 76.5t-57.5 18.5h-47v-191h141q50 0 79 46t29 104h41zM253 570v8l86 164h94v-10l-129 -162h-51z
" />
    <glyph glyph-name="ecircumflex" unicode="&#xea;" horiz-adv-x="616" 
d="M531 189l-11 -189h-455v39q51 0 64 2.5t13 13.5v400q0 11 -14 14t-63 3v38h432l9 -167h-39q-13 73 -34.5 101t-67.5 28h-124v-201h52q67 0 67 100h36v-236h-36q0 58 -14.5 76.5t-57.5 18.5h-47v-191h141q50 0 79 46t29 104h41zM458 578v-8h-46l-99 99l-99 -99h-46v8
l121 164h48z" />
    <glyph glyph-name="edieresis" unicode="&#xeb;" horiz-adv-x="616" 
d="M531 189l-11 -189h-455v39q51 0 64 2.5t13 13.5v400q0 11 -14 14t-63 3v38h432l9 -167h-39q-13 73 -34.5 101t-67.5 28h-124v-201h52q67 0 67 100h36v-236h-36q0 58 -14.5 76.5t-57.5 18.5h-47v-191h141q50 0 79 46t29 104h41zM451 641q0 -20 -16 -35.5t-36 -15.5
q-21 0 -37 15.5t-16 35.5q0 21 16 37t37 16q20 0 36 -16t16 -37zM280 641q0 -21 -15 -36t-37 -15q-21 0 -37 15.5t-16 35.5q0 21 16 37t37 16t36.5 -16t15.5 -37z" />
    <glyph glyph-name="igrave" unicode="&#xec;" horiz-adv-x="422" 
d="M339 510v-38q-53 0 -66 -4t-13 -20v-382q0 -18 12.5 -22.5t66.5 -4.5v-39h-256v39q52 0 65 4.5t13 22.5v382q0 17 -13 20.5t-65 3.5v38h256zM266 578v-8h-51l-129 162v10h94z" />
    <glyph glyph-name="iacute" unicode="&#xed;" horiz-adv-x="422" 
d="M339 510v-38q-53 0 -66 -4t-13 -20v-382q0 -18 12.5 -22.5t66.5 -4.5v-39h-256v39q52 0 65 4.5t13 22.5v382q0 17 -13 20.5t-65 3.5v38h256zM146 570v8l86 164h94v-10l-129 -162h-51z" />
    <glyph glyph-name="icircumflex" unicode="&#xee;" horiz-adv-x="422" 
d="M339 510v-38q-53 0 -66 -4t-13 -20v-382q0 -18 12.5 -22.5t66.5 -4.5v-39h-256v39q52 0 65 4.5t13 22.5v382q0 17 -13 20.5t-65 3.5v38h256zM351 578v-8h-46l-99 99l-99 -99h-46v8l121 164h48z" />
    <glyph glyph-name="idieresis" unicode="&#xef;" horiz-adv-x="422" 
d="M339 510v-38q-53 0 -66 -4t-13 -20v-382q0 -18 12.5 -22.5t66.5 -4.5v-39h-256v39q52 0 65 4.5t13 22.5v382q0 17 -13 20.5t-65 3.5v38h256zM344 641q0 -20 -16 -35.5t-36 -15.5q-21 0 -37 15.5t-16 35.5q0 21 16 37t37 16q20 0 36 -16t16 -37zM173 641q0 -21 -15.5 -36
t-36.5 -15t-37 15.5t-16 35.5q0 21 16 37t37 16t36.5 -16t15.5 -37z" />
    <glyph glyph-name="eth" unicode="&#xf0;" horiz-adv-x="674" 
d="M601 254q0 -48 -17 -91.5t-50.5 -81t-90.5 -59.5t-130 -22h-248v39q53 1 65 4t12 16v174h-68v50h68v172q0 11 -12.5 14t-64.5 3v38h246q64 0 115.5 -16.5t83.5 -42t53 -60.5t29.5 -68.5t8.5 -68.5zM492 254q0 98 -48 158t-154 60h-49v-189h125v-50h-125v-194h70
q93 0 137 63t44 152z" />
    <glyph glyph-name="ntilde" unicode="&#xf1;" horiz-adv-x="689" 
d="M524 -7l-332 400v-322q0 -20 20.5 -26t70.5 -6v-39h-219v39q39 0 57 6t18 26v374q-30 27 -79 27v38h153l295 -355v286q0 31 -92 31v38h213v-38q-40 0 -54.5 -7t-14.5 -24v-448h-36zM472 720l26 -10q-14 -49 -43 -87t-55 -38q-15 0 -63.5 30t-63.5 30q-16 0 -27.5 -16
t-25.5 -47l-29 12q11 40 41 81.5t48 41.5q19 0 65 -30.5t64 -30.5q17 0 36 21t27 43z" />
    <glyph glyph-name="ograve" unicode="&#xf2;" horiz-adv-x="657" 
d="M584 254q0 -111 -76 -188.5t-180 -77.5q-108 0 -181.5 75t-73.5 191q0 118 73 192t182 74q105 0 180.5 -75.5t75.5 -190.5zM475 254q0 223 -147 223q-79 0 -112.5 -57.5t-33.5 -165.5q0 -223 146 -223q73 0 110 60t37 163zM388 578v-8h-51l-129 162v10h94z" />
    <glyph glyph-name="oacute" unicode="&#xf3;" horiz-adv-x="657" 
d="M584 254q0 -111 -76 -188.5t-180 -77.5q-108 0 -181.5 75t-73.5 191q0 118 73 192t182 74q105 0 180.5 -75.5t75.5 -190.5zM475 254q0 223 -147 223q-79 0 -112.5 -57.5t-33.5 -165.5q0 -223 146 -223q73 0 110 60t37 163zM268 570v8l86 164h94v-10l-129 -162h-51z" />
    <glyph glyph-name="ocircumflex" unicode="&#xf4;" horiz-adv-x="657" 
d="M584 254q0 -111 -76 -188.5t-180 -77.5q-108 0 -181.5 75t-73.5 191q0 118 73 192t182 74q105 0 180.5 -75.5t75.5 -190.5zM475 254q0 223 -147 223q-79 0 -112.5 -57.5t-33.5 -165.5q0 -223 146 -223q73 0 110 60t37 163zM473 578v-8h-46l-99 99l-99 -99h-46v8l121 164
h48z" />
    <glyph glyph-name="otilde" unicode="&#xf5;" horiz-adv-x="657" 
d="M584 254q0 -111 -76 -188.5t-180 -77.5q-108 0 -181.5 75t-73.5 191q0 118 73 192t182 74q105 0 180.5 -75.5t75.5 -190.5zM475 254q0 223 -147 223q-79 0 -112.5 -57.5t-33.5 -165.5q0 -223 146 -223q73 0 110 60t37 163zM456 720l26 -10q-14 -49 -43 -87t-55 -38
q-15 0 -63.5 30t-63.5 30q-16 0 -27.5 -16t-25.5 -47l-29 12q11 40 41 81.5t48 41.5q19 0 65 -30.5t64 -30.5q17 0 36 21t27 43z" />
    <glyph glyph-name="odieresis" unicode="&#xf6;" horiz-adv-x="657" 
d="M584 254q0 -111 -76 -188.5t-180 -77.5q-108 0 -181.5 75t-73.5 191q0 118 73 192t182 74q105 0 180.5 -75.5t75.5 -190.5zM475 254q0 223 -147 223q-79 0 -112.5 -57.5t-33.5 -165.5q0 -223 146 -223q73 0 110 60t37 163zM466 641q0 -20 -16 -35.5t-36 -15.5
q-21 0 -37 15.5t-16 35.5q0 21 16 37t37 16q20 0 36 -16t16 -37zM295 641q0 -21 -15.5 -36t-36.5 -15t-37 15.5t-16 35.5q0 21 16 37t37 16t36.5 -16t15.5 -37z" />
    <glyph glyph-name="divide" unicode="&#xf7;" horiz-adv-x="620" 
d="M570 230h-520v60h520v-60zM258 109q0 22 14.5 37t36.5 15t37 -15t15 -37t-15 -36.5t-37 -14.5t-36.5 14.5t-14.5 36.5zM258 411q0 22 14.5 37t36.5 15t37 -15t15 -37t-15 -36.5t-37 -14.5t-36.5 14.5t-14.5 36.5z" />
    <glyph glyph-name="oslash" unicode="&#xf8;" horiz-adv-x="657" 
d="M584 254q0 -111 -76 -188.5t-180 -77.5q-72 0 -131 34l-54 -75h-61l76 105q-85 75 -85 202q0 118 73 192t182 74q75 0 139 -42l46 64h61l-69 -95q79 -77 79 -193zM182 254q0 -88 21 -140l229 316q-36 47 -104 47q-79 0 -112.5 -57.5t-33.5 -165.5zM475 254q0 77 -17 128
l-227 -313q33 -38 97 -38q73 0 110 60t37 163z" />
    <glyph glyph-name="ugrave" unicode="&#xf9;" horiz-adv-x="677" 
d="M622 510v-38q-46 0 -62.5 -6t-16.5 -20v-242q0 -107 -46.5 -161.5t-158.5 -54.5q-211 0 -211 176v284q0 16 -11.5 20t-60.5 4v38h246v-38q-51 0 -63 -4t-12 -20v-284q0 -120 135 -120q123 0 123 160v242q0 26 -90 26v38h228zM410 578v-8h-51l-129 162v10h94z" />
    <glyph glyph-name="uacute" unicode="&#xfa;" horiz-adv-x="677" 
d="M622 510v-38q-46 0 -62.5 -6t-16.5 -20v-242q0 -107 -46.5 -161.5t-158.5 -54.5q-211 0 -211 176v284q0 16 -11.5 20t-60.5 4v38h246v-38q-51 0 -63 -4t-12 -20v-284q0 -120 135 -120q123 0 123 160v242q0 26 -90 26v38h228zM290 570v8l86 164h94v-10l-129 -162h-51z" />
    <glyph glyph-name="ucircumflex" unicode="&#xfb;" horiz-adv-x="677" 
d="M622 510v-38q-46 0 -62.5 -6t-16.5 -20v-242q0 -107 -46.5 -161.5t-158.5 -54.5q-211 0 -211 176v284q0 16 -11.5 20t-60.5 4v38h246v-38q-51 0 -63 -4t-12 -20v-284q0 -120 135 -120q123 0 123 160v242q0 26 -90 26v38h228zM495 578v-8h-46l-99 99l-99 -99h-46v8
l121 164h48z" />
    <glyph glyph-name="udieresis" unicode="&#xfc;" horiz-adv-x="677" 
d="M622 510v-38q-46 0 -62.5 -6t-16.5 -20v-242q0 -107 -46.5 -161.5t-158.5 -54.5q-211 0 -211 176v284q0 16 -11.5 20t-60.5 4v38h246v-38q-51 0 -63 -4t-12 -20v-284q0 -120 135 -120q123 0 123 160v242q0 26 -90 26v38h228zM488 641q0 -20 -16 -35.5t-36 -15.5
q-21 0 -37 15.5t-16 35.5q0 21 16 37t37 16q20 0 36 -16t16 -37zM317 641q0 -21 -15.5 -36t-36.5 -15t-37 15.5t-16 35.5q0 21 16 37t37 16t36.5 -16t15.5 -37z" />
    <glyph glyph-name="yacute" unicode="&#xfd;" horiz-adv-x="609" 
d="M569 510v-38q-57 0 -86 -54l-119 -199v-123q0 -39 14.5 -48t64.5 -9v-39h-255v39q55 0 66 8.5t11 48.5v115l-128 199q-26 38 -43 50t-54 12v38h243v-38q-25 -1 -38 -2.5t-20.5 -5.5t-5.5 -12t12 -21l106 -164l95 162q13 18 1 30.5t-47 12.5v38h183zM277 570v8l86 164h94
v-10l-129 -162h-51z" />
    <glyph glyph-name="thorn" unicode="&#xfe;" horiz-adv-x="569" 
d="M499 264q0 -52 -31 -87.5t-74 -49.5t-94 -14h-59v-44q0 -20 15 -25t63 -5v-39h-254v39q47 0 62 5t15 25v372q0 20 -17.5 25.5t-59.5 5.5v38h254v-38q-47 0 -62.5 -4.5t-15.5 -26.5v-35h66q80 0 136 -33t56 -109zM288 368h-47v-214h50q47 0 75.5 25.5t28.5 75.5
q0 55 -29.5 84t-77.5 29z" />
    <glyph glyph-name="ydieresis" unicode="&#xff;" horiz-adv-x="609" 
d="M569 510v-38q-57 0 -86 -54l-119 -199v-123q0 -39 14.5 -48t64.5 -9v-39h-255v39q55 0 66 8.5t11 48.5v115l-128 199q-26 38 -43 50t-54 12v38h243v-38q-25 -1 -38 -2.5t-20.5 -5.5t-5.5 -12t12 -21l106 -164l95 162q13 18 1 30.5t-47 12.5v38h183zM475 641
q0 -20 -16 -35.5t-36 -15.5q-21 0 -37 15.5t-16 35.5q0 21 16 37t37 16q20 0 36 -16t16 -37zM304 641q0 -21 -15 -36t-37 -15q-21 0 -37 15.5t-16 35.5q0 21 16 37t37 16t36.5 -16t15.5 -37z" />
    <glyph glyph-name="Amacron" unicode="&#x100;" horiz-adv-x="770" 
d="M524 79l-47 125h-244l-43 -123q-7 -24 13 -32.5t82 -8.5v-40h-242v40q42 0 64 13t35 48l222 600h24l243 -607q14 -37 30.5 -45.5t65.5 -8.5v-40h-288v40h27q49 0 58 6t0 33zM354 528h-7l-98 -277h210zM505 779h-254v58h254v-58z" />
    <glyph glyph-name="amacron" unicode="&#x101;" horiz-adv-x="642" 
d="M424 60l-38 88h-176l-22 -55l-12 -31q-3 -13 13 -18t61 -5v-39h-205v39q64 0 82 41l175 438h27l191 -443q12 -25 24.5 -30.5t52.5 -5.5v-39h-239v39h30q28 0 34.5 3.5t1.5 17.5zM300 348h-10l-63 -157h140zM448 592h-254v58h254v-58z" />
    <glyph glyph-name="Abreve" unicode="&#x102;" horiz-adv-x="770" 
d="M524 79l-47 125h-244l-43 -123q-7 -24 13 -32.5t82 -8.5v-40h-242v40q42 0 64 13t35 48l222 600h24l243 -607q14 -37 30.5 -45.5t65.5 -8.5v-40h-288v40h27q49 0 58 6t0 33zM354 528h-7l-98 -277h210zM378 747q-50 0 -85 33.5t-35 98.5h40q0 -30 22.5 -51.5t57.5 -21.5
q32 0 56 21t24 52h40q0 -65 -35 -98.5t-85 -33.5z" />
    <glyph glyph-name="abreve" unicode="&#x103;" horiz-adv-x="642" 
d="M424 60l-38 88h-176l-22 -55l-12 -31q-3 -13 13 -18t61 -5v-39h-205v39q64 0 82 41l175 438h27l191 -443q12 -25 24.5 -30.5t52.5 -5.5v-39h-239v39h30q28 0 34.5 3.5t1.5 17.5zM300 348h-10l-63 -157h140zM321 570q-50 0 -85 39t-35 113h40q0 -35 22.5 -61.5t57.5 -26.5
q32 0 56 25.5t24 62.5h40q0 -74 -35 -113t-85 -39z" />
    <glyph glyph-name="Aogonek" unicode="&#x104;" horiz-adv-x="770" 
d="M524 79l-47 125h-244l-43 -123q-7 -24 13 -32.5t82 -8.5v-40h-242v40q42 0 64 13t35 48l222 600h24l243 -607q14 -37 30.5 -45.5t65.5 -8.5v-40h-241q-60 -42 -60 -102q0 -62 45 -62q6 0 16 2v-32q-18 -5 -34 -5q-39 0 -68 20.5t-29 57.5q0 70 83 123v38h27q49 0 58 6
t0 33zM354 528h-7l-98 -277h210z" />
    <glyph glyph-name="aogonek" unicode="&#x105;" horiz-adv-x="642" 
d="M424 60l-38 88h-176l-22 -55l-12 -31q-3 -13 13 -18t61 -5v-39h-205v39q64 0 82 41l175 438h27l191 -443q12 -25 24.5 -30.5t52.5 -5.5v-39h-207q-53 -41 -53 -97q0 -62 45 -62q6 0 16 2v-32q-18 -5 -34 -5q-39 0 -68 20.5t-29 57.5q0 73 91 128v27h30q28 0 34.5 3.5
t1.5 17.5zM300 348h-10l-63 -157h140z" />
    <glyph glyph-name="Cacute" unicode="&#x106;" horiz-adv-x="746" 
d="M586 656l3 1l24 34h31l4 -261h-42q-7 41 -21.5 79t-37.5 72t-58.5 54.5t-79.5 20.5q-102 0 -158 -86t-56 -227q0 -309 219 -309q78 0 126 47t70 144h46l-23 -181q-38 -25 -98 -40.5t-123 -15.5q-152 0 -243 96.5t-91 260.5q0 147 101.5 251.5t233.5 104.5q54 0 101 -13.5
t72 -31.5zM350 747v8l86 129h94v-10l-129 -127h-51z" />
    <glyph glyph-name="cacute" unicode="&#x107;" horiz-adv-x="618" 
d="M338 520q82 0 140 -45l16 37h30l4 -199h-41q-11 66 -50 115t-102 49q-73 0 -113.5 -62t-40.5 -162q0 -222 158 -222q62 0 99 33.5t57 104.5h40l-19 -136q-72 -45 -179 -45q-120 0 -192 72.5t-72 193.5q0 109 80 187.5t185 78.5zM278 570v8l86 164h94v-10l-129 -162h-51z
" />
    <glyph glyph-name="Ccircumflex" unicode="&#x108;" horiz-adv-x="746" 
d="M586 656l3 1l24 34h31l4 -261h-42q-7 41 -21.5 79t-37.5 72t-58.5 54.5t-79.5 20.5q-102 0 -158 -86t-56 -227q0 -309 219 -309q78 0 126 47t70 144h46l-23 -181q-38 -25 -98 -40.5t-123 -15.5q-152 0 -243 96.5t-91 260.5q0 147 101.5 251.5t233.5 104.5q54 0 101 -13.5
t72 -31.5zM555 755v-8h-46l-99 69l-99 -69h-46v8l121 129h48z" />
    <glyph glyph-name="ccircumflex" unicode="&#x109;" horiz-adv-x="618" 
d="M338 520q82 0 140 -45l16 37h30l4 -199h-41q-11 66 -50 115t-102 49q-73 0 -113.5 -62t-40.5 -162q0 -222 158 -222q62 0 99 33.5t57 104.5h40l-19 -136q-72 -45 -179 -45q-120 0 -192 72.5t-72 193.5q0 109 80 187.5t185 78.5zM483 578v-8h-46l-99 99l-99 -99h-46v8
l121 164h48z" />
    <glyph glyph-name="Cdotaccent" unicode="&#x10a;" horiz-adv-x="746" 
d="M586 656l3 1l24 34h31l4 -261h-42q-7 41 -21.5 79t-37.5 72t-58.5 54.5t-79.5 20.5q-102 0 -158 -86t-56 -227q0 -309 219 -309q78 0 126 47t70 144h46l-23 -181q-38 -25 -98 -40.5t-123 -15.5q-152 0 -243 96.5t-91 260.5q0 147 101.5 251.5t233.5 104.5q54 0 101 -13.5
t72 -31.5zM345 823q0 27 18.5 46t45.5 19t46.5 -19t19.5 -46t-19.5 -45.5t-46.5 -18.5t-45.5 18.5t-18.5 45.5z" />
    <glyph glyph-name="cdotaccent" unicode="&#x10b;" horiz-adv-x="618" 
d="M338 520q82 0 140 -45l16 37h30l4 -199h-41q-11 66 -50 115t-102 49q-73 0 -113.5 -62t-40.5 -162q0 -222 158 -222q62 0 99 33.5t57 104.5h40l-19 -136q-72 -45 -179 -45q-120 0 -192 72.5t-72 193.5q0 109 80 187.5t185 78.5zM273 666q0 27 18.5 46t45.5 19t46.5 -19
t19.5 -46t-19.5 -45.5t-46.5 -18.5t-45.5 18.5t-18.5 45.5z" />
    <glyph glyph-name="Ccaron" unicode="&#x10c;" horiz-adv-x="746" 
d="M586 656l3 1l24 34h31l4 -261h-42q-7 41 -21.5 79t-37.5 72t-58.5 54.5t-79.5 20.5q-102 0 -158 -86t-56 -227q0 -309 219 -309q78 0 126 47t70 144h46l-23 -181q-38 -25 -98 -40.5t-123 -15.5q-152 0 -243 96.5t-91 260.5q0 147 101.5 251.5t233.5 104.5q54 0 101 -13.5
t72 -31.5zM555 884v-8l-121 -129h-48l-121 129v8h46l99 -69l99 69h46z" />
    <glyph glyph-name="ccaron" unicode="&#x10d;" horiz-adv-x="618" 
d="M338 520q82 0 140 -45l16 37h30l4 -199h-41q-11 66 -50 115t-102 49q-73 0 -113.5 -62t-40.5 -162q0 -222 158 -222q62 0 99 33.5t57 104.5h40l-19 -136q-72 -45 -179 -45q-120 0 -192 72.5t-72 193.5q0 109 80 187.5t185 78.5zM483 742v-8l-121 -164h-48l-121 164v8h46
l99 -99l99 99h46z" />
    <glyph glyph-name="Dcaron" unicode="&#x10e;" horiz-adv-x="821" 
d="M743 345q0 -65 -21.5 -124.5t-64 -110t-115 -80.5t-165.5 -30h-312v40q70 2 86 6.5t16 27.5v547q0 21 -16 26t-86 5v39h310q81 0 146 -22t105.5 -57t67.5 -82t38 -92.5t11 -92.5zM624 344q0 139 -66 223.5t-211 84.5h-76v-612h104q67 0 117 26.5t78 71.5t41 96.5
t13 109.5zM503 884v-8l-121 -129h-48l-121 129v8h46l99 -69l99 69h46z" />
    <glyph glyph-name="dcaron" unicode="&#x10f;" horiz-adv-x="674" 
d="M601 254q0 -48 -17 -91.5t-50.5 -81t-90.5 -59.5t-130 -22h-248v39q53 1 65 4t12 16v396q0 11 -12.5 14t-64.5 3v38h246q64 0 115.5 -16.5t83.5 -42t53 -60.5t29.5 -68.5t8.5 -68.5zM492 254q0 98 -48 158t-154 60h-49v-433h70q93 0 137 63t44 152zM455 742v-8l-121 -164
h-48l-121 164v8h46l99 -99l99 99h46z" />
    <glyph glyph-name="Dcroat" unicode="&#x110;" horiz-adv-x="821" 
d="M743 345q0 -65 -21.5 -124.5t-64 -110t-115 -80.5t-165.5 -30h-312v40q70 2 86 6.5t16 27.5v246h-83v55h83v246q0 21 -16 26t-86 5v39h310q81 0 146 -22t105.5 -57t67.5 -82t38 -92.5t11 -92.5zM624 344q0 139 -66 223.5t-211 84.5h-76v-277h205v-55h-205v-280h104
q67 0 117 26.5t78 71.5t41 96.5t13 109.5z" />
    <glyph glyph-name="dcroat" unicode="&#x111;" horiz-adv-x="674" 
d="M601 254q0 -48 -17 -91.5t-50.5 -81t-90.5 -59.5t-130 -22h-248v39q53 1 65 4t12 16v174h-68v50h68v172q0 11 -12.5 14t-64.5 3v38h246q64 0 115.5 -16.5t83.5 -42t53 -60.5t29.5 -68.5t8.5 -68.5zM492 254q0 98 -48 158t-154 60h-49v-189h125v-50h-125v-194h70
q93 0 137 63t44 152z" />
    <glyph glyph-name="Emacron" unicode="&#x112;" horiz-adv-x="741" 
d="M656 247l-13 -247h-578v40q68 0 85 4.5t17 24.5v552q0 20 -18.5 25.5t-83.5 5.5v39h548l11 -217h-39q-18 101 -48.5 139.5t-98.5 38.5h-167v-291h74q100 0 100 137h35v-312h-35q0 81 -21.5 106.5t-84.5 25.5h-68v-278h191q71 0 112 64t41 143h41zM501 779h-254v58h254
v-58z" />
    <glyph glyph-name="emacron" unicode="&#x113;" horiz-adv-x="616" 
d="M531 189l-11 -189h-455v39q51 0 64 2.5t13 13.5v400q0 11 -14 14t-63 3v38h432l9 -167h-39q-13 73 -34.5 101t-67.5 28h-124v-201h52q67 0 67 100h36v-236h-36q0 58 -14.5 76.5t-57.5 18.5h-47v-191h141q50 0 79 46t29 104h41zM440 592h-254v58h254v-58z" />
    <glyph glyph-name="Edotaccent" unicode="&#x116;" horiz-adv-x="741" 
d="M656 247l-13 -247h-578v40q68 0 85 4.5t17 24.5v552q0 20 -18.5 25.5t-83.5 5.5v39h548l11 -217h-39q-18 101 -48.5 139.5t-98.5 38.5h-167v-291h74q100 0 100 137h35v-312h-35q0 81 -21.5 106.5t-84.5 25.5h-68v-278h191q71 0 112 64t41 143h41zM309 823q0 27 18.5 46
t45.5 19t46.5 -19t19.5 -46t-19.5 -45.5t-46.5 -18.5t-45.5 18.5t-18.5 45.5z" />
    <glyph glyph-name="edotaccent" unicode="&#x117;" horiz-adv-x="616" 
d="M531 189l-11 -189h-455v39q51 0 64 2.5t13 13.5v400q0 11 -14 14t-63 3v38h432l9 -167h-39q-13 73 -34.5 101t-67.5 28h-124v-201h52q67 0 67 100h36v-236h-36q0 58 -14.5 76.5t-57.5 18.5h-47v-191h141q50 0 79 46t29 104h41zM248 666q0 27 18.5 46t45.5 19t46.5 -19
t19.5 -46t-19.5 -45.5t-46.5 -18.5t-45.5 18.5t-18.5 45.5z" />
    <glyph glyph-name="Eogonek" unicode="&#x118;" horiz-adv-x="741" 
d="M656 247l-13 -247h-31q-60 -42 -60 -102q0 -62 45 -62q6 0 16 2v-32q-18 -5 -34 -5q-39 0 -68 20.5t-29 57.5q0 68 79 121h-496v40q68 0 85 4.5t17 24.5v552q0 20 -18.5 25.5t-83.5 5.5v39h548l11 -217h-39q-18 101 -48.5 139.5t-98.5 38.5h-167v-291h74q100 0 100 137
h35v-312h-35q0 81 -21.5 106.5t-84.5 25.5h-68v-278h191q71 0 112 64t41 143h41z" />
    <glyph glyph-name="eogonek" unicode="&#x119;" horiz-adv-x="616" 
d="M531 189l-11 -189h-8q-83 -47 -83 -116q0 -62 45 -62q6 0 16 2v-32q-18 -5 -34 -5q-39 0 -68 20.5t-29 57.5q0 76 101 135h-395v39q51 0 64 2.5t13 13.5v400q0 11 -14 14t-63 3v38h432l9 -167h-39q-13 73 -34.5 101t-67.5 28h-124v-201h52q67 0 67 100h36v-236h-36
q0 58 -14.5 76.5t-57.5 18.5h-47v-191h141q50 0 79 46t29 104h41z" />
    <glyph glyph-name="Ecaron" unicode="&#x11a;" horiz-adv-x="741" 
d="M656 247l-13 -247h-578v40q68 0 85 4.5t17 24.5v552q0 20 -18.5 25.5t-83.5 5.5v39h548l11 -217h-39q-18 101 -48.5 139.5t-98.5 38.5h-167v-291h74q100 0 100 137h35v-312h-35q0 81 -21.5 106.5t-84.5 25.5h-68v-278h191q71 0 112 64t41 143h41zM519 884v-8l-121 -129
h-48l-121 129v8h46l99 -69l99 69h46z" />
    <glyph glyph-name="ecaron" unicode="&#x11b;" horiz-adv-x="616" 
d="M531 189l-11 -189h-455v39q51 0 64 2.5t13 13.5v400q0 11 -14 14t-63 3v38h432l9 -167h-39q-13 73 -34.5 101t-67.5 28h-124v-201h52q67 0 67 100h36v-236h-36q0 58 -14.5 76.5t-57.5 18.5h-47v-191h141q50 0 79 46t29 104h41zM458 742v-8l-121 -164h-48l-121 164v8h46
l99 -99l99 99h46z" />
    <glyph glyph-name="Gcircumflex" unicode="&#x11c;" horiz-adv-x="787" 
d="M655 227v-233h-25l-51 83q-65 -89 -186 -89q-59 0 -113 20.5t-100.5 61.5t-74 111.5t-27.5 160.5q0 162 93.5 260.5t222.5 98.5q115 0 187 -46h7l20 31h29l4 -242h-36q-19 83 -73.5 147.5t-133.5 64.5q-203 0 -203 -316q0 -146 55 -226.5t154 -80.5q98 0 147 95v98
q0 42 -16 51.5t-80 9.5v34h282v-34q-57 0 -69 -9t-13 -51zM548 755v-8h-46l-99 69l-99 -69h-46v8l121 129h48z" />
    <glyph glyph-name="gcircumflex" unicode="&#x11d;" horiz-adv-x="652" 
d="M535 165v-173h-22l-47 62q-48 -66 -142 -66q-47 0 -90 15t-80 45t-59 82t-22 118q0 121 75.5 196.5t176.5 75.5q81 0 152 -52l15 41h29l3 -190h-36q-45 158 -160 158q-147 0 -147 -229q0 -103 40.5 -160.5t111.5 -57.5q66 0 102 64v70q0 28 -12 33.5t-61 5.5v36h235v-36
q-44 0 -53 -5.5t-9 -32.5zM474 578v-8h-46l-99 99l-99 -99h-46v8l121 164h48z" />
    <glyph glyph-name="Gbreve" unicode="&#x11e;" horiz-adv-x="787" 
d="M655 227v-233h-25l-51 83q-65 -89 -186 -89q-59 0 -113 20.5t-100.5 61.5t-74 111.5t-27.5 160.5q0 162 93.5 260.5t222.5 98.5q115 0 187 -46h7l20 31h29l4 -242h-36q-19 83 -73.5 147.5t-133.5 64.5q-203 0 -203 -316q0 -146 55 -226.5t154 -80.5q98 0 147 95v98
q0 42 -16 51.5t-80 9.5v34h282v-34q-57 0 -69 -9t-13 -51zM403 747q-50 0 -85 33.5t-35 98.5h40q0 -30 22.5 -51.5t57.5 -21.5q32 0 56 21t24 52h40q0 -65 -35 -98.5t-85 -33.5z" />
    <glyph glyph-name="gbreve" unicode="&#x11f;" horiz-adv-x="652" 
d="M535 165v-173h-22l-47 62q-48 -66 -142 -66q-47 0 -90 15t-80 45t-59 82t-22 118q0 121 75.5 196.5t176.5 75.5q81 0 152 -52l15 41h29l3 -190h-36q-45 158 -160 158q-147 0 -147 -229q0 -103 40.5 -160.5t111.5 -57.5q66 0 102 64v70q0 28 -12 33.5t-61 5.5v36h235v-36
q-44 0 -53 -5.5t-9 -32.5zM329 570q-50 0 -85 39t-35 113h40q0 -35 22.5 -61.5t57.5 -26.5q32 0 56 25.5t24 62.5h40q0 -74 -35 -113t-85 -39z" />
    <glyph glyph-name="Gdotaccent" unicode="&#x120;" horiz-adv-x="787" 
d="M655 227v-233h-25l-51 83q-65 -89 -186 -89q-59 0 -113 20.5t-100.5 61.5t-74 111.5t-27.5 160.5q0 162 93.5 260.5t222.5 98.5q115 0 187 -46h7l20 31h29l4 -242h-36q-19 83 -73.5 147.5t-133.5 64.5q-203 0 -203 -316q0 -146 55 -226.5t154 -80.5q98 0 147 95v98
q0 42 -16 51.5t-80 9.5v34h282v-34q-57 0 -69 -9t-13 -51zM338 823q0 27 18.5 46t45.5 19t46.5 -19t19.5 -46t-19.5 -45.5t-46.5 -18.5t-45.5 18.5t-18.5 45.5z" />
    <glyph glyph-name="gdotaccent" unicode="&#x121;" horiz-adv-x="652" 
d="M535 165v-173h-22l-47 62q-48 -66 -142 -66q-47 0 -90 15t-80 45t-59 82t-22 118q0 121 75.5 196.5t176.5 75.5q81 0 152 -52l15 41h29l3 -190h-36q-45 158 -160 158q-147 0 -147 -229q0 -103 40.5 -160.5t111.5 -57.5q66 0 102 64v70q0 28 -12 33.5t-61 5.5v36h235v-36
q-44 0 -53 -5.5t-9 -32.5zM264 666q0 27 18.5 46t45.5 19t46.5 -19t19.5 -46t-19.5 -45.5t-46.5 -18.5t-45.5 18.5t-18.5 45.5z" />
    <glyph glyph-name="Gcommaaccent" unicode="&#x122;" horiz-adv-x="787" 
d="M655 227v-233h-25l-51 83q-65 -89 -186 -89q-59 0 -113 20.5t-100.5 61.5t-74 111.5t-27.5 160.5q0 162 93.5 260.5t222.5 98.5q115 0 187 -46h7l20 31h29l4 -242h-36q-19 83 -73.5 147.5t-133.5 64.5q-203 0 -203 -316q0 -146 55 -226.5t154 -80.5q98 0 147 95v98
q0 42 -16 51.5t-80 9.5v34h282v-34q-57 0 -69 -9t-13 -51zM354 -87q0 14 12.5 25.5t32.5 11.5q28 0 47 -22.5t19 -57.5q0 -65 -85 -112l-19 28q47 27 47 58q0 18 -27 35.5t-27 33.5z" />
    <glyph glyph-name="gcommaaccent" unicode="&#x123;" horiz-adv-x="652" 
d="M535 165v-173h-22l-47 62q-48 -66 -142 -66q-47 0 -90 15t-80 45t-59 82t-22 118q0 121 75.5 196.5t176.5 75.5q81 0 152 -52l15 41h29l3 -190h-36q-45 158 -160 158q-147 0 -147 -229q0 -103 40.5 -160.5t111.5 -57.5q66 0 102 64v70q0 28 -12 33.5t-61 5.5v36h235v-36
q-44 0 -53 -5.5t-9 -32.5zM289 -90q0 14 12.5 25.5t32.5 11.5q28 0 47 -22.5t19 -57.5q0 -65 -85 -112l-19 28q47 27 47 58q0 18 -27 35.5t-27 33.5z" />
    <glyph glyph-name="Hbar" unicode="&#x126;" horiz-adv-x="869" 
d="M91 530h76v73q0 31 -23.5 40t-78.5 9v39h308v-39q-62 0 -82 -7.5t-20 -41.5v-73h326v73q0 33 -19.5 41t-83.5 8v39h310v-39q-67 0 -85.5 -8.5t-18.5 -40.5v-73h88v-46h-88v-396q0 -32 19 -40t85 -8v-40h-310v40q69 3 86 10t17 38v244h-326v-244q0 -32 19 -40t83 -8v-40
h-308v40q63 0 82.5 8t19.5 40v396h-76v46zM271 379h326v105h-326v-105z" />
    <glyph glyph-name="hbar" unicode="&#x127;" horiz-adv-x="703" 
d="M70 396h67v45q0 20 -17.5 25.5t-59.5 5.5v38h254v-38q-48 0 -63 -4.5t-15 -26.5v-45h230v45q0 21 -15 26t-64 5v38h256v-38q-51 0 -65 -5t-14 -26v-45h73v-43h-73v-284q0 -20 14.5 -25t64.5 -5v-39h-256v39q53 2 66 6.5t13 23.5v172h-230v-172q0 -20 15 -25t63 -5v-39
h-254v39q47 0 62 5t15 25v284h-67v43zM236 284h230v69h-230v-69z" />
    <glyph glyph-name="Imacron" unicode="&#x12a;" horiz-adv-x="449" 
d="M379 691v-39q-68 0 -85.5 -6.5t-17.5 -33.5v-528q0 -30 16.5 -37t86.5 -7v-40h-309v40q69 0 85.5 7t16.5 37v528q0 28 -17 34t-85 6v39h309zM351 779h-254v58h254v-58z" />
    <glyph glyph-name="imacron" unicode="&#x12b;" horiz-adv-x="422" 
d="M339 510v-38q-53 0 -66 -4t-13 -20v-382q0 -18 12.5 -22.5t66.5 -4.5v-39h-256v39q52 0 65 4.5t13 22.5v382q0 17 -13 20.5t-65 3.5v38h256zM333 592h-254v58h254v-58z" />
    <glyph glyph-name="Iogonek" unicode="&#x12e;" horiz-adv-x="449" 
d="M379 691v-39q-68 0 -85.5 -6.5t-17.5 -33.5v-528q0 -30 16.5 -37t86.5 -7v-40h-31q-60 -42 -60 -102q0 -62 45 -62q6 0 16 2v-32q-18 -5 -34 -5q-39 0 -68 20.5t-29 57.5q0 68 79 121h-227v40q69 0 85.5 7t16.5 37v528q0 28 -17 34t-85 6v39h309z" />
    <glyph glyph-name="iogonek" unicode="&#x12f;" horiz-adv-x="422" 
d="M339 510v-38q-53 0 -66 -4t-13 -20v-382q0 -18 12.5 -22.5t66.5 -4.5v-39h-9q-83 -47 -83 -116q0 -62 45 -62q6 0 16 2v-32q-18 -5 -34 -5q-39 0 -68 20.5t-29 57.5q0 76 101 135h-195v39q52 0 65 4.5t13 22.5v382q0 17 -13 20.5t-65 3.5v38h256z" />
    <glyph glyph-name="Idotaccent" unicode="&#x130;" horiz-adv-x="449" 
d="M379 691v-39q-68 0 -85.5 -6.5t-17.5 -33.5v-528q0 -30 16.5 -37t86.5 -7v-40h-309v40q69 0 85.5 7t16.5 37v528q0 28 -17 34t-85 6v39h309zM159 823q0 27 18.5 46t45.5 19t46.5 -19t19.5 -46t-19.5 -45.5t-46.5 -18.5t-45.5 18.5t-18.5 45.5z" />
    <glyph glyph-name="dotlessi" unicode="&#x131;" horiz-adv-x="422" 
d="M339 510v-38q-53 0 -66 -4t-13 -20v-382q0 -18 12.5 -22.5t66.5 -4.5v-39h-256v39q52 0 65 4.5t13 22.5v382q0 17 -13 20.5t-65 3.5v38h256z" />
    <glyph glyph-name="Kcommaaccent" unicode="&#x136;" horiz-adv-x="790" 
d="M552 572l-151 -166l253 -315q24 -30 41.5 -40.5t52.5 -10.5v-40h-279v40q27 1 39 2.5t21 6t6.5 13.5t-14.5 25l-190 242l-60 -66v-148q0 -50 18 -62.5t81 -12.5v-40h-305v40q70 0 86 12t16 63v465q0 50 -19 61t-83 11v39h308v-39q-66 0 -84 -11t-18 -61v-250h4l230 255
q30 28 15.5 48t-56.5 18v40h257v-40q-99 -11 -169 -79zM376 -87q0 14 12.5 25.5t32.5 11.5q28 0 47 -22.5t19 -57.5q0 -65 -85 -112l-19 28q47 27 47 58q0 18 -27 35.5t-27 33.5z" />
    <glyph glyph-name="kcommaaccent" unicode="&#x137;" horiz-adv-x="650" 
d="M453 416l-112 -117l191 -226q16 -20 30 -27t43 -7v-39h-232v39q36 2 43.5 5.5t-2.5 20.5l-138 167l-35 -36v-108q0 -32 14 -40.5t62 -8.5v-39h-252v39q53 0 65 8t12 41v337q0 33 -14 40t-63 7v38h254v-38q-46 0 -61.5 -9t-16.5 -38v-162l164 170q17 19 6 29.5t-42 9.5v38
h216v-37q-85 -8 -132 -57zM289 -90q0 14 12.5 25.5t32.5 11.5q28 0 47 -22.5t19 -57.5q0 -65 -85 -112l-19 28q47 27 47 58q0 18 -27 35.5t-27 33.5z" />
    <glyph glyph-name="Lacute" unicode="&#x139;" horiz-adv-x="666" 
d="M609 242l-13 -242h-531v40q61 0 81.5 7.5t20.5 36.5v529q0 25 -18 32t-84 7v39h319v-39q-79 0 -96 -6t-17 -32v-574h132q74 0 116.5 53.5t42.5 148.5h47zM159 747v8l86 129h94v-10l-129 -127h-51z" />
    <glyph glyph-name="lacute" unicode="&#x13a;" horiz-adv-x="565" 
d="M495 185l-10 -185h-420v39q47 0 62 4.5t15 22.5v383q0 16 -13 19.5t-64 3.5v38h262v-38q-60 0 -73 -3.5t-13 -19.5v-410h96q53 0 82.5 38.5t29.5 107.5h46zM135 540v8l86 129h94v-10l-129 -127h-51z" />
    <glyph glyph-name="Lcommaaccent" unicode="&#x13b;" horiz-adv-x="666" 
d="M609 242l-13 -242h-531v40q61 0 81.5 7.5t20.5 36.5v529q0 25 -18 32t-84 7v39h319v-39q-79 0 -96 -6t-17 -32v-574h132q74 0 116.5 53.5t42.5 148.5h47zM316 -87q0 14 12.5 25.5t32.5 11.5q28 0 47 -22.5t19 -57.5q0 -65 -85 -112l-19 28q47 27 47 58q0 18 -27 35.5
t-27 33.5z" />
    <glyph glyph-name="lcommaaccent" unicode="&#x13c;" horiz-adv-x="565" 
d="M495 185l-10 -185h-420v39q47 0 62 4.5t15 22.5v383q0 16 -13 19.5t-64 3.5v38h262v-38q-60 0 -73 -3.5t-13 -19.5v-410h96q53 0 82.5 38.5t29.5 107.5h46zM234 -90q0 14 12.5 25.5t32.5 11.5q28 0 47 -22.5t19 -57.5q0 -65 -85 -112l-19 28q47 27 47 58q0 18 -27 35.5
t-27 33.5z" />
    <glyph glyph-name="Lcaron" unicode="&#x13d;" horiz-adv-x="666" 
d="M609 242l-13 -242h-531v40q61 0 81.5 7.5t20.5 36.5v529q0 25 -18 32t-84 7v39h319v-39q-79 0 -96 -6t-17 -32v-574h132q74 0 116.5 53.5t42.5 148.5h47zM502 484v8l16 199h84v-10l-54 -197h-46z" />
    <glyph glyph-name="lcaron" unicode="&#x13e;" horiz-adv-x="565" 
d="M420 303v8l16 199h84v-10l-54 -197h-46zM495 185l-10 -185h-420v39q47 0 62 4.5t15 22.5v383q0 16 -13 19.5t-64 3.5v38h262v-38q-60 0 -73 -3.5t-13 -19.5v-410h96q53 0 82.5 38.5t29.5 107.5h46z" />
    <glyph glyph-name="Ldot" unicode="&#x13f;" horiz-adv-x="666" 
d="M609 242l-13 -242h-531v40q61 0 81.5 7.5t20.5 36.5v529q0 25 -18 32t-84 7v39h319v-39q-79 0 -96 -6t-17 -32v-574h132q74 0 116.5 53.5t42.5 148.5h47zM480 381q0 29 20 49.5t49 20.5t49.5 -20.5t20.5 -49.5q0 -28 -20.5 -48t-49.5 -20t-49 19.5t-20 48.5z" />
    <glyph glyph-name="ldot" unicode="&#x140;" horiz-adv-x="565" 
d="M495 185l-10 -185h-420v39q47 0 62 4.5t15 22.5v383q0 16 -13 19.5t-64 3.5v38h262v-38q-60 0 -73 -3.5t-13 -19.5v-410h96q53 0 82.5 38.5t29.5 107.5h46zM396 308q0 29 20 49.5t49 20.5t49.5 -20.5t20.5 -49.5q0 -28 -20.5 -48t-49.5 -20t-49 19.5t-20 48.5z" />
    <glyph glyph-name="Lslash" unicode="&#x141;" horiz-adv-x="666" 
d="M609 242l-13 -242h-531v40q61 0 81.5 7.5t20.5 36.5v199l-98 -46v50l98 46v280q0 25 -18 32t-84 7v39h319v-39q-79 0 -96 -6t-17 -32v-231l205 97v-50l-205 -97v-293h132q74 0 116.5 53.5t42.5 148.5h47z" />
    <glyph glyph-name="lslash" unicode="&#x142;" horiz-adv-x="565" 
d="M495 185l-10 -185h-420v39q47 0 62 4.5t15 22.5v140l-72 -37v50l72 37v193q0 16 -13 19.5t-64 3.5v38h262v-38q-60 0 -73 -3.5t-13 -19.5v-141l119 62v-50l-119 -62v-219h96q53 0 82.5 38.5t29.5 107.5h46z" />
    <glyph glyph-name="Nacute" unicode="&#x143;" horiz-adv-x="812" 
d="M203 553h-4v-461q0 -33 27 -42.5t92 -9.5v-40h-261v40q50 0 74 10t24 42v509q-43 51 -103 51v39h173l396 -508h4v420q0 49 -121 49v39h254v-39q-52 0 -71 -11.5t-19 -37.5v-613h-27zM352 747v8l86 129h94v-10l-129 -127h-51z" />
    <glyph glyph-name="nacute" unicode="&#x144;" horiz-adv-x="689" 
d="M524 -7l-332 400v-322q0 -20 20.5 -26t70.5 -6v-39h-219v39q39 0 57 6t18 26v374q-30 27 -79 27v38h153l295 -355v286q0 31 -92 31v38h213v-38q-40 0 -54.5 -7t-14.5 -24v-448h-36zM284 570v8l86 164h94v-10l-129 -162h-51z" />
    <glyph glyph-name="Ncommaaccent" unicode="&#x145;" horiz-adv-x="812" 
d="M203 553h-4v-461q0 -33 27 -42.5t92 -9.5v-40h-261v40q50 0 74 10t24 42v509q-43 51 -103 51v39h173l396 -508h4v420q0 49 -121 49v39h254v-39q-52 0 -71 -11.5t-19 -37.5v-613h-27zM387 -87q0 14 12.5 25.5t32.5 11.5q28 0 47 -22.5t19 -57.5q0 -65 -85 -112l-19 28
q47 27 47 58q0 18 -27 35.5t-27 33.5z" />
    <glyph glyph-name="ncommaaccent" unicode="&#x146;" horiz-adv-x="689" 
d="M524 -7l-332 400v-322q0 -20 20.5 -26t70.5 -6v-39h-219v39q39 0 57 6t18 26v374q-30 27 -79 27v38h153l295 -355v286q0 31 -92 31v38h213v-38q-40 0 -54.5 -7t-14.5 -24v-448h-36zM309 -90q0 14 12.5 25.5t32.5 11.5q28 0 47 -22.5t19 -57.5q0 -65 -85 -112l-19 28
q47 27 47 58q0 18 -27 35.5t-27 33.5z" />
    <glyph glyph-name="Ncaron" unicode="&#x147;" horiz-adv-x="812" 
d="M203 553h-4v-461q0 -33 27 -42.5t92 -9.5v-40h-261v40q50 0 74 10t24 42v509q-43 51 -103 51v39h173l396 -508h4v420q0 49 -121 49v39h254v-39q-52 0 -71 -11.5t-19 -37.5v-613h-27zM557 884v-8l-121 -129h-48l-121 129v8h46l99 -69l99 69h46z" />
    <glyph glyph-name="ncaron" unicode="&#x148;" horiz-adv-x="689" 
d="M524 -7l-332 400v-322q0 -20 20.5 -26t70.5 -6v-39h-219v39q39 0 57 6t18 26v374q-30 27 -79 27v38h153l295 -355v286q0 31 -92 31v38h213v-38q-40 0 -54.5 -7t-14.5 -24v-448h-36zM489 742v-8l-121 -164h-48l-121 164v8h46l99 -99l99 99h46z" />
    <glyph glyph-name="Omacron" unicode="&#x14c;" horiz-adv-x="801" 
d="M723 345q0 -151 -95 -254t-227 -103q-137 0 -230 100t-93 257q0 158 92.5 257t230.5 99q133 0 227.5 -100.5t94.5 -255.5zM605 345q0 148 -47 229.5t-157 81.5q-112 0 -158.5 -79.5t-46.5 -231.5q0 -150 47.5 -230.5t157.5 -80.5q102 0 153 83t51 228zM528 779h-254v58
h254v-58z" />
    <glyph glyph-name="omacron" unicode="&#x14d;" horiz-adv-x="657" 
d="M584 254q0 -111 -76 -188.5t-180 -77.5q-108 0 -181.5 75t-73.5 191q0 118 73 192t182 74q105 0 180.5 -75.5t75.5 -190.5zM475 254q0 223 -147 223q-79 0 -112.5 -57.5t-33.5 -165.5q0 -223 146 -223q73 0 110 60t37 163zM455 592h-254v58h254v-58z" />
    <glyph glyph-name="Ohungarumlaut" unicode="&#x150;" horiz-adv-x="801" 
d="M723 345q0 -151 -95 -254t-227 -103q-137 0 -230 100t-93 257q0 158 92.5 257t230.5 99q133 0 227.5 -100.5t94.5 -255.5zM605 345q0 148 -47 229.5t-157 81.5q-112 0 -158.5 -79.5t-46.5 -231.5q0 -150 47.5 -230.5t157.5 -80.5q102 0 153 83t51 228zM426 747v8l86 129
h94v-10l-139 -127h-41zM286 747v8l86 129h94v-10l-139 -127h-41z" />
    <glyph glyph-name="ohungarumlaut" unicode="&#x151;" horiz-adv-x="657" 
d="M584 254q0 -111 -76 -188.5t-180 -77.5q-108 0 -181.5 75t-73.5 191q0 118 73 192t182 74q105 0 180.5 -75.5t75.5 -190.5zM475 254q0 223 -147 223q-79 0 -112.5 -57.5t-33.5 -165.5q0 -223 146 -223q73 0 110 60t37 163zM358 570v8l86 164h94v-10l-139 -162h-41z
M218 570v8l86 164h94v-10l-139 -162h-41z" />
    <glyph glyph-name="OE" unicode="&#x152;" horiz-adv-x="1052" 
d="M967 247l-13 -247h-471q-39 -12 -82 -12q-137 0 -230 100t-93 257q0 158 92.5 257t230.5 99q35 0 77 -10h446l11 -217h-39q-18 101 -48.5 139.5t-98.5 38.5h-167v-291h74q100 0 100 137h35v-312h-35q0 81 -21.5 106.5t-84.5 25.5h-68v-278h191q71 0 112 64t41 143h41z
M401 34q42 0 77 15v594q-36 13 -77 13q-112 0 -158.5 -79.5t-46.5 -231.5q0 -150 47.5 -230.5t157.5 -80.5z" />
    <glyph glyph-name="oe" unicode="&#x153;" horiz-adv-x="870" 
d="M785 189l-11 -189h-370q-36 -12 -76 -12q-108 0 -181.5 75t-73.5 191q0 118 73 192t182 74q34 0 72 -10h351l9 -167h-39q-13 73 -34.5 101t-67.5 28h-124v-201h52q67 0 67 100h36v-236h-36q0 58 -14.5 76.5t-57.5 18.5h-47v-191h141q50 0 79 46t29 104h41zM328 31
q40 0 68 18v412q-30 16 -68 16q-79 0 -112.5 -57.5t-33.5 -165.5q0 -223 146 -223z" />
    <glyph glyph-name="Racute" unicode="&#x154;" horiz-adv-x="743" 
d="M443 356v-8q72 -10 111.5 -51t50.5 -146q11 -75 31.5 -97.5t71.5 -22.5v-38q-124 0 -170.5 36.5t-46.5 129.5q0 101 -41.5 139t-122.5 38h-56v-248q0 -32 19 -40t87 -8v-40h-312v40q66 2 84 9t18 39v528q0 24 -18.5 30t-83.5 6v39h319q98 0 158 -41t60 -120
q0 -77 -46.5 -119.5t-112.5 -54.5zM496 525q0 68 -35.5 97.5t-109.5 29.5h-80v-275h89q136 0 136 148zM291 747v8l86 129h94v-10l-129 -127h-51z" />
    <glyph glyph-name="racute" unicode="&#x155;" horiz-adv-x="640" 
d="M395 266v-6q53 -11 85.5 -42t35.5 -98q2 -49 20.5 -67t57.5 -18v-37h-48q-63 0 -100 31.5t-37 95.5q0 69 -31 96t-89 27h-48v-179q0 -20 15 -25t66 -5v-39h-257v39q49 1 63 5.5t14 24.5v382q0 14 -13.5 17.5t-63.5 3.5v38h268q79 0 127.5 -31t48.5 -90q0 -51 -32.5 -81
t-81.5 -42zM409 385q0 46 -25 66.5t-76 20.5h-67v-185h74q94 0 94 98zM243 570v8l86 164h94v-10l-129 -162h-51z" />
    <glyph glyph-name="Rcaron" unicode="&#x158;" horiz-adv-x="743" 
d="M443 356v-8q72 -10 111.5 -51t50.5 -146q11 -75 31.5 -97.5t71.5 -22.5v-38q-124 0 -170.5 36.5t-46.5 129.5q0 101 -41.5 139t-122.5 38h-56v-248q0 -32 19 -40t87 -8v-40h-312v40q66 2 84 9t18 39v528q0 24 -18.5 30t-83.5 6v39h319q98 0 158 -41t60 -120
q0 -77 -46.5 -119.5t-112.5 -54.5zM496 525q0 68 -35.5 97.5t-109.5 29.5h-80v-275h89q136 0 136 148zM496 884v-8l-121 -129h-48l-121 129v8h46l99 -69l99 69h46z" />
    <glyph glyph-name="rcaron" unicode="&#x159;" horiz-adv-x="640" 
d="M395 266v-6q53 -11 85.5 -42t35.5 -98q2 -49 20.5 -67t57.5 -18v-37h-48q-63 0 -100 31.5t-37 95.5q0 69 -31 96t-89 27h-48v-179q0 -20 15 -25t66 -5v-39h-257v39q49 1 63 5.5t14 24.5v382q0 14 -13.5 17.5t-63.5 3.5v38h268q79 0 127.5 -31t48.5 -90q0 -51 -32.5 -81
t-81.5 -42zM409 385q0 46 -25 66.5t-76 20.5h-67v-185h74q94 0 94 98zM448 742v-8l-121 -164h-48l-121 164v8h46l99 -99l99 99h46z" />
    <glyph glyph-name="Sacute" unicode="&#x15a;" horiz-adv-x="660" 
d="M171 58l-2 -1l-14 -57h-44l-7 278h39q24 -127 76.5 -187t147.5 -60q69 0 105.5 33t36.5 80q0 36 -14 60.5t-62.5 52t-137.5 54.5q-99 30 -146 79t-47 129q0 82 57 132t137 50q94 0 180 -64l3 2l17 56h39l2 -258h-36q-31 116 -80.5 169t-123.5 53q-54 0 -85 -34t-31 -79
q0 -48 48 -85t157 -70t154 -83.5t45 -126.5q0 -83 -61 -138t-155 -55q-120 0 -198 70zM248 747v8l86 129h94v-10l-129 -127h-51z" />
    <glyph glyph-name="sacute" unicode="&#x15b;" horiz-adv-x="567" 
d="M157 30l-9 -33h-42l-5 211h38q39 -179 172 -179q48 0 73.5 23t25.5 55q0 35 -30 58t-126 56q-83 27 -118.5 63t-35.5 94q0 64 46 103t111 39q75 0 141 -39q10 22 14 34h37l2 -197h-36q-48 162 -157 162q-36 0 -57.5 -19.5t-21.5 -53.5t32.5 -58t129.5 -58
q77 -26 111.5 -63.5t34.5 -89.5q0 -64 -50.5 -107t-128.5 -43q-83 0 -151 42zM228 570v8l86 164h94v-10l-129 -162h-51z" />
    <glyph glyph-name="Scircumflex" unicode="&#x15c;" horiz-adv-x="660" 
d="M171 58l-2 -1l-14 -57h-44l-7 278h39q24 -127 76.5 -187t147.5 -60q69 0 105.5 33t36.5 80q0 36 -14 60.5t-62.5 52t-137.5 54.5q-99 30 -146 79t-47 129q0 82 57 132t137 50q94 0 180 -64l3 2l17 56h39l2 -258h-36q-31 116 -80.5 169t-123.5 53q-54 0 -85 -34t-31 -79
q0 -48 48 -85t157 -70t154 -83.5t45 -126.5q0 -83 -61 -138t-155 -55q-120 0 -198 70zM453 755v-8h-46l-99 69l-99 -69h-46v8l121 129h48z" />
    <glyph glyph-name="scircumflex" unicode="&#x15d;" horiz-adv-x="567" 
d="M157 30l-9 -33h-42l-5 211h38q39 -179 172 -179q48 0 73.5 23t25.5 55q0 35 -30 58t-126 56q-83 27 -118.5 63t-35.5 94q0 64 46 103t111 39q75 0 141 -39q10 22 14 34h37l2 -197h-36q-48 162 -157 162q-36 0 -57.5 -19.5t-21.5 -53.5t32.5 -58t129.5 -58
q77 -26 111.5 -63.5t34.5 -89.5q0 -64 -50.5 -107t-128.5 -43q-83 0 -151 42zM433 578v-8h-46l-99 99l-99 -99h-46v8l121 164h48z" />
    <glyph glyph-name="Scedilla" unicode="&#x15e;" horiz-adv-x="660" 
d="M313 -216l-8 25q39 6 63 22.5t24 39.5q0 42 -71 42q-16 0 -30 -2l-5 7l38 73q-94 13 -153 67l-2 -1l-14 -57h-44l-7 278h39q24 -127 76.5 -187t147.5 -60q69 0 105.5 33t36.5 80q0 36 -14 60.5t-62.5 52t-137.5 54.5q-99 30 -146 79t-47 129q0 82 57 132t137 50
q94 0 180 -64l3 2l17 56h39l2 -258h-36q-31 116 -80.5 169t-123.5 53q-54 0 -85 -34t-31 -79q0 -48 48 -85t157 -70t154 -83.5t45 -126.5q0 -83 -61 -138t-155 -55h-2l-16 -30q46 0 75.5 -18t29.5 -54q0 -38 -42 -66t-101 -36z" />
    <glyph glyph-name="scedilla" unicode="&#x15f;" horiz-adv-x="567" 
d="M254 -219l-8 25q39 6 63 22.5t24 39.5q0 42 -71 42q-16 0 -30 -2l-5 7l40 76q-64 9 -110 39l-9 -33h-42l-5 211h38q39 -179 172 -179q48 0 73.5 23t25.5 55q0 35 -30 58t-126 56q-83 27 -118.5 63t-35.5 94q0 64 46 103t111 39q75 0 141 -39q10 22 14 34h37l2 -197h-36
q-48 162 -157 162q-36 0 -57.5 -19.5t-21.5 -53.5t32.5 -58t129.5 -58q77 -26 111.5 -63.5t34.5 -89.5q0 -64 -49.5 -106.5t-127.5 -43.5l-18 -33q46 0 75.5 -18t29.5 -54q0 -38 -42 -66t-101 -36z" />
    <glyph glyph-name="Scaron" unicode="&#x160;" horiz-adv-x="660" 
d="M171 58l-2 -1l-14 -57h-44l-7 278h39q24 -127 76.5 -187t147.5 -60q69 0 105.5 33t36.5 80q0 36 -14 60.5t-62.5 52t-137.5 54.5q-99 30 -146 79t-47 129q0 82 57 132t137 50q94 0 180 -64l3 2l17 56h39l2 -258h-36q-31 116 -80.5 169t-123.5 53q-54 0 -85 -34t-31 -79
q0 -48 48 -85t157 -70t154 -83.5t45 -126.5q0 -83 -61 -138t-155 -55q-120 0 -198 70zM453 884v-8l-121 -129h-48l-121 129v8h46l99 -69l99 69h46z" />
    <glyph glyph-name="scaron" unicode="&#x161;" horiz-adv-x="567" 
d="M157 30l-9 -33h-42l-5 211h38q39 -179 172 -179q48 0 73.5 23t25.5 55q0 35 -30 58t-126 56q-83 27 -118.5 63t-35.5 94q0 64 46 103t111 39q75 0 141 -39q10 22 14 34h37l2 -197h-36q-48 162 -157 162q-36 0 -57.5 -19.5t-21.5 -53.5t32.5 -58t129.5 -58
q77 -26 111.5 -63.5t34.5 -89.5q0 -64 -50.5 -107t-128.5 -43q-83 0 -151 42zM433 742v-8l-121 -164h-48l-121 164v8h46l99 -99l99 99h46z" />
    <glyph glyph-name="Tcommaaccent" unicode="&#x162;" horiz-adv-x="714" 
d="M651 440h-38q0 98 -38.5 155t-108.5 57h-56v-573q-1 -26 20.5 -32.5t81.5 -6.5v-40h-310v40q56 0 79.5 7t23.5 27v578h-40q-69 0 -115.5 -58t-46.5 -154h-40v251h588v-251zM311 -87q0 14 12.5 25.5t32.5 11.5q28 0 47 -22.5t19 -57.5q0 -65 -85 -112l-19 28q47 27 47 58
q0 18 -27 35.5t-27 33.5z" />
    <glyph glyph-name="Tcommaaccent" unicode="&#x21a;" horiz-adv-x="714" 
d="M651 440h-38q0 98 -38.5 155t-108.5 57h-56v-573q-1 -26 20.5 -32.5t81.5 -6.5v-40h-310v40q56 0 79.5 7t23.5 27v578h-40q-69 0 -115.5 -58t-46.5 -154h-40v251h588v-251zM311 -87q0 14 12.5 25.5t32.5 11.5q28 0 47 -22.5t19 -57.5q0 -65 -85 -112l-19 28q47 27 47 58
q0 18 -27 35.5t-27 33.5z" />
    <glyph glyph-name="tcommaaccent" unicode="&#x163;" horiz-adv-x="605" 
d="M542 319h-39q0 70 -27 111.5t-76 41.5h-47v-400q0 -16 7 -23.5t15.5 -8.5t29.5 -1h25v-39h-256v39h20q59 0 59 33v400h-36q-48 0 -81 -42t-33 -111h-40v191h479v-191zM256 -90q0 14 12.5 25.5t32.5 11.5q28 0 47 -22.5t19 -57.5q0 -65 -85 -112l-19 28q47 27 47 58
q0 18 -27 35.5t-27 33.5z" />
    <glyph glyph-name="tcommaaccent" unicode="&#x21b;" horiz-adv-x="605" 
d="M542 319h-39q0 70 -27 111.5t-76 41.5h-47v-400q0 -16 7 -23.5t15.5 -8.5t29.5 -1h25v-39h-256v39h20q59 0 59 33v400h-36q-48 0 -81 -42t-33 -111h-40v191h479v-191zM256 -90q0 14 12.5 25.5t32.5 11.5q28 0 47 -22.5t19 -57.5q0 -65 -85 -112l-19 28q47 27 47 58
q0 18 -27 35.5t-27 33.5z" />
    <glyph glyph-name="Tcaron" unicode="&#x164;" horiz-adv-x="714" 
d="M651 440h-38q0 98 -38.5 155t-108.5 57h-56v-573q-1 -26 20.5 -32.5t81.5 -6.5v-40h-310v40q56 0 79.5 7t23.5 27v578h-40q-69 0 -115.5 -58t-46.5 -154h-40v251h588v-251zM502 884v-8l-121 -129h-48l-121 129v8h46l99 -69l99 69h46z" />
    <glyph glyph-name="tcaron" unicode="&#x165;" horiz-adv-x="605" 
d="M542 319h-39q0 70 -27 111.5t-76 41.5h-47v-400q0 -16 7 -23.5t15.5 -8.5t29.5 -1h25v-39h-256v39h20q59 0 59 33v400h-36q-48 0 -81 -42t-33 -111h-40v191h479v-191zM447 742v-8l-121 -164h-48l-121 164v8h46l99 -99l99 99h46z" />
    <glyph glyph-name="Umacron" unicode="&#x16a;" horiz-adv-x="806" 
d="M755 691v-39q-53 0 -75 -10t-22 -33v-328q0 -145 -58 -219t-197 -74q-258 0 -258 237v387q0 27 -15 33.5t-79 6.5v39h296v-39q-65 0 -81 -6.5t-16 -33.5v-387q0 -96 46 -144.5t121 -48.5q49 0 84.5 15t55.5 37.5t31.5 57t15 66.5t3.5 73v328q0 23 -26 33t-91 10v39h265z
M554 779h-254v58h254v-58z" />
    <glyph glyph-name="umacron" unicode="&#x16b;" horiz-adv-x="677" 
d="M622 510v-38q-46 0 -62.5 -6t-16.5 -20v-242q0 -107 -46.5 -161.5t-158.5 -54.5q-211 0 -211 176v284q0 16 -11.5 20t-60.5 4v38h246v-38q-51 0 -63 -4t-12 -20v-284q0 -120 135 -120q123 0 123 160v242q0 26 -90 26v38h228zM477 592h-254v58h254v-58z" />
    <glyph glyph-name="Ubreve" unicode="&#x16c;" horiz-adv-x="806" 
d="M755 691v-39q-53 0 -75 -10t-22 -33v-328q0 -145 -58 -219t-197 -74q-258 0 -258 237v387q0 27 -15 33.5t-79 6.5v39h296v-39q-65 0 -81 -6.5t-16 -33.5v-387q0 -96 46 -144.5t121 -48.5q49 0 84.5 15t55.5 37.5t31.5 57t15 66.5t3.5 73v328q0 23 -26 33t-91 10v39h265z
M427 747q-50 0 -85 33.5t-35 98.5h40q0 -30 22.5 -51.5t57.5 -21.5q32 0 56 21t24 52h40q0 -65 -35 -98.5t-85 -33.5z" />
    <glyph glyph-name="ubreve" unicode="&#x16d;" horiz-adv-x="677" 
d="M622 510v-38q-46 0 -62.5 -6t-16.5 -20v-242q0 -107 -46.5 -161.5t-158.5 -54.5q-211 0 -211 176v284q0 16 -11.5 20t-60.5 4v38h246v-38q-51 0 -63 -4t-12 -20v-284q0 -120 135 -120q123 0 123 160v242q0 26 -90 26v38h228zM350 570q-50 0 -85 39t-35 113h40
q0 -35 22.5 -61.5t57.5 -26.5q32 0 56 25.5t24 62.5h40q0 -74 -35 -113t-85 -39z" />
    <glyph glyph-name="Uring" unicode="&#x16e;" horiz-adv-x="806" 
d="M755 691v-39q-53 0 -75 -10t-22 -33v-328q0 -145 -58 -219t-197 -74q-258 0 -258 237v387q0 27 -15 33.5t-79 6.5v39h296v-39q-65 0 -81 -6.5t-16 -33.5v-387q0 -96 46 -144.5t121 -48.5q49 0 84.5 15t55.5 37.5t31.5 57t15 66.5t3.5 73v328q0 23 -26 33t-91 10v39h265z
M333 841q0 39 27.5 66.5t66.5 27.5t66.5 -27.5t27.5 -66.5t-27.5 -66.5t-66.5 -27.5t-66.5 27.5t-27.5 66.5zM379 841q0 -22 13 -36.5t34 -14.5t34.5 14.5t13.5 36.5t-13.5 37.5t-34.5 15.5t-34 -15.5t-13 -37.5z" />
    <glyph glyph-name="uring" unicode="&#x16f;" horiz-adv-x="677" 
d="M622 510v-38q-46 0 -62.5 -6t-16.5 -20v-242q0 -107 -46.5 -161.5t-158.5 -54.5q-211 0 -211 176v284q0 16 -11.5 20t-60.5 4v38h246v-38q-51 0 -63 -4t-12 -20v-284q0 -120 135 -120q123 0 123 160v242q0 26 -90 26v38h228zM256 654q0 39 27.5 66.5t66.5 27.5
t66.5 -27.5t27.5 -66.5t-27.5 -66.5t-66.5 -27.5t-66.5 27.5t-27.5 66.5zM302 654q0 -22 13 -36.5t34 -14.5t34.5 14.5t13.5 36.5t-13.5 37.5t-34.5 15.5t-34 -15.5t-13 -37.5z" />
    <glyph glyph-name="Uhungarumlaut" unicode="&#x170;" horiz-adv-x="806" 
d="M755 691v-39q-53 0 -75 -10t-22 -33v-328q0 -145 -58 -219t-197 -74q-258 0 -258 237v387q0 27 -15 33.5t-79 6.5v39h296v-39q-65 0 -81 -6.5t-16 -33.5v-387q0 -96 46 -144.5t121 -48.5q49 0 84.5 15t55.5 37.5t31.5 57t15 66.5t3.5 73v328q0 23 -26 33t-91 10v39h265z
M452 747v8l86 129h94v-10l-139 -127h-41zM312 747v8l86 129h94v-10l-139 -127h-41z" />
    <glyph glyph-name="uhungarumlaut" unicode="&#x171;" horiz-adv-x="677" 
d="M622 510v-38q-46 0 -62.5 -6t-16.5 -20v-242q0 -107 -46.5 -161.5t-158.5 -54.5q-211 0 -211 176v284q0 16 -11.5 20t-60.5 4v38h246v-38q-51 0 -63 -4t-12 -20v-284q0 -120 135 -120q123 0 123 160v242q0 26 -90 26v38h228zM380 570v8l86 164h94v-10l-139 -162h-41z
M240 570v8l86 164h94v-10l-139 -162h-41z" />
    <glyph glyph-name="Uogonek" unicode="&#x172;" horiz-adv-x="806" 
d="M755 691v-39q-53 0 -75 -10t-22 -33v-328q0 -115 -36 -186t-120 -95q-61 -42 -61 -102q0 -62 45 -62q6 0 16 2v-32q-18 -5 -34 -5q-39 0 -68 20.5t-29 57.5q0 62 64 111q-22 -2 -32 -2q-258 0 -258 237v387q0 27 -15 33.5t-79 6.5v39h296v-39q-65 0 -81 -6.5t-16 -33.5
v-387q0 -96 46 -144.5t121 -48.5q49 0 84.5 15t55.5 37.5t31.5 57t15 66.5t3.5 73v328q0 23 -26 33t-91 10v39h265z" />
    <glyph glyph-name="uogonek" unicode="&#x173;" horiz-adv-x="677" 
d="M622 510v-38q-46 0 -62.5 -6t-16.5 -20v-242q0 -161 -105 -201q-53 -40 -53 -96q0 -62 45 -62q6 0 16 2v-32q-18 -5 -34 -5q-39 0 -68 20.5t-29 57.5q0 55 53 101q-9 -1 -30 -1q-211 0 -211 176v284q0 16 -11.5 20t-60.5 4v38h246v-38q-51 0 -63 -4t-12 -20v-284
q0 -120 135 -120q123 0 123 160v242q0 26 -90 26v38h228z" />
    <glyph glyph-name="Wcircumflex" unicode="&#x174;" horiz-adv-x="1027" 
d="M712 179h5l119 364q18 54 -1 83t-82 26v39h234v-39q-42 0 -62.5 -23.5t-41.5 -87.5l-184 -557h-27l-146 443l-164 -443h-25l-196 592q-18 46 -39 61t-62 15v39h269v-39q-53 1 -63.5 -18.5t5.5 -57.5l128 -397h6l119 315l-27 82q-16 52 -32.5 64t-67.5 12v39h268v-39
q-13 0 -22.5 -0.5t-17.5 -1t-12.5 -4t-8.5 -4.5t-5 -6.5t-2 -7.5t0.5 -10.5t2 -11t4 -14.5t4.5 -16zM674 755v-8h-46l-99 69l-99 -69h-46v8l121 129h48z" />
    <glyph glyph-name="wcircumflex" unicode="&#x175;" horiz-adv-x="833" 
d="M566 165h8l84 234q15 35 1 54.5t-65 18.5v38h199v-38q-34 0 -50 -16.5t-32 -61.5l-147 -406h-33l-110 306l-114 -306h-32l-155 432q-11 32 -28.5 42t-51.5 10v38h225v-38q-37 1 -47 -11t1 -37l94 -259h6l76 201l-19 54q-13 36 -25 44t-53 8v38h224v-38q-38 1 -46 -9
t1 -39zM566 578v-8h-46l-99 99l-99 -99h-46v8l121 164h48z" />
    <glyph glyph-name="Ycircumflex" unicode="&#x176;" horiz-adv-x="734" 
d="M694 691v-39q-68 0 -118 -79l-144 -263v-184q0 -59 19 -72.5t84 -13.5v-40h-308v40q72 0 86.5 13t14.5 73v180l-157 257q-39 57 -61 73t-70 16v39h293v-39q-58 0 -72 -14.5t12 -53.5l136 -224l123 223q17 28 4 48t-56 21v39h214zM559 755v-8h-46l-99 69l-99 -69h-46v8
l121 129h48z" />
    <glyph glyph-name="ycircumflex" unicode="&#x177;" horiz-adv-x="609" 
d="M569 510v-38q-57 0 -86 -54l-119 -199v-123q0 -39 14.5 -48t64.5 -9v-39h-255v39q55 0 66 8.5t11 48.5v115l-128 199q-26 38 -43 50t-54 12v38h243v-38q-25 -1 -38 -2.5t-20.5 -5.5t-5.5 -12t12 -21l106 -164l95 162q13 18 1 30.5t-47 12.5v38h183zM482 578v-8h-46
l-99 99l-99 -99h-46v8l121 164h48z" />
    <glyph glyph-name="Ydieresis" unicode="&#x178;" horiz-adv-x="734" 
d="M694 691v-39q-68 0 -118 -79l-144 -263v-184q0 -59 19 -72.5t84 -13.5v-40h-308v40q72 0 86.5 13t14.5 73v180l-157 257q-39 57 -61 73t-70 16v39h293v-39q-58 0 -72 -14.5t12 -53.5l136 -224l123 223q17 28 4 48t-56 21v39h214zM552 828q0 -20 -16 -35.5t-36 -15.5
q-21 0 -37 15.5t-16 35.5q0 21 16 37t37 16q20 0 36 -16t16 -37zM381 828q0 -20 -15.5 -35.5t-36.5 -15.5t-37 15.5t-16 35.5q0 21 16 37t37 16t36.5 -16t15.5 -37z" />
    <glyph glyph-name="Zacute" unicode="&#x179;" horiz-adv-x="726" 
d="M76 0v23l427 625l-3 4h-201q-64 0 -108.5 -63.5t-50.5 -147.5h-41l10 250h536v-21l-432 -624l2 -4h208q68 0 115.5 63t59.5 166h42l-19 -271h-545zM324 747v8l86 129h94v-10l-129 -127h-51z" />
    <glyph glyph-name="zacute" unicode="&#x17a;" horiz-adv-x="614" 
d="M204 48l3 -8h158q102 0 125 166h40l-14 -206h-436v22l323 443l-3 7h-150q-102 0 -111 -153h-41l7 191h429v-20zM265 570v8l86 164h94v-10l-129 -162h-51z" />
    <glyph glyph-name="Zdotaccent" unicode="&#x17b;" horiz-adv-x="726" 
d="M76 0v23l427 625l-3 4h-201q-64 0 -108.5 -63.5t-50.5 -147.5h-41l10 250h536v-21l-432 -624l2 -4h208q68 0 115.5 63t59.5 166h42l-19 -271h-545zM319 823q0 27 18.5 46t45.5 19t46.5 -19t19.5 -46t-19.5 -45.5t-46.5 -18.5t-45.5 18.5t-18.5 45.5z" />
    <glyph glyph-name="zdotaccent" unicode="&#x17c;" horiz-adv-x="614" 
d="M204 48l3 -8h158q102 0 125 166h40l-14 -206h-436v22l323 443l-3 7h-150q-102 0 -111 -153h-41l7 191h429v-20zM260 666q0 27 18.5 46t45.5 19t46.5 -19t19.5 -46t-19.5 -45.5t-46.5 -18.5t-45.5 18.5t-18.5 45.5z" />
    <glyph glyph-name="Zcaron" unicode="&#x17d;" horiz-adv-x="726" 
d="M76 0v23l427 625l-3 4h-201q-64 0 -108.5 -63.5t-50.5 -147.5h-41l10 250h536v-21l-432 -624l2 -4h208q68 0 115.5 63t59.5 166h42l-19 -271h-545zM529 884v-8l-121 -129h-48l-121 129v8h46l99 -69l99 69h46z" />
    <glyph glyph-name="zcaron" unicode="&#x17e;" horiz-adv-x="614" 
d="M204 48l3 -8h158q102 0 125 166h40l-14 -206h-436v22l323 443l-3 7h-150q-102 0 -111 -153h-41l7 191h429v-20zM470 742v-8l-121 -164h-48l-121 164v8h46l99 -99l99 99h46z" />
    <glyph glyph-name="florin" unicode="&#x192;" horiz-adv-x="544" 
d="M98 316l11 40h97v4l25 102q18 70 70 125t128 55q55 0 91.5 -21t36.5 -49q0 -18 -11.5 -30t-34.5 -12q-13 0 -22 5t-13 10.5t-10 16.5q-9 15 -13 20.5t-15 13t-24 7.5q-29 0 -50 -37.5t-42 -108.5l-26 -95v-6h120l-11 -40h-120v-4l-90 -334q-24 -86 -67 -138t-102 -52
q-41 0 -70.5 18.5t-29.5 47.5q0 17 10.5 29t27.5 12q5 0 9 -1t8 -3.5t6.5 -4t6.5 -7t5 -6.5t5 -7l5 -7q21 -34 34 -34q34 0 66 137l88 348v6h-99z" />
    <glyph glyph-name="Scommaaccent" unicode="&#x218;" horiz-adv-x="660" 
d="M171 58l-2 -1l-14 -57h-44l-7 278h39q24 -127 76.5 -187t147.5 -60q69 0 105.5 33t36.5 80q0 36 -14 60.5t-62.5 52t-137.5 54.5q-99 30 -146 79t-47 129q0 82 57 132t137 50q94 0 180 -64l3 2l17 56h39l2 -258h-36q-31 116 -80.5 169t-123.5 53q-54 0 -85 -34t-31 -79
q0 -48 48 -85t157 -70t154 -83.5t45 -126.5q0 -83 -61 -138t-155 -55q-120 0 -198 70zM315 -87q0 14 12.5 25.5t32.5 11.5q28 0 47 -22.5t19 -57.5q0 -65 -85 -112l-19 28q47 27 47 58q0 18 -27 35.5t-27 33.5z" />
    <glyph glyph-name="scommaaccent" unicode="&#x219;" horiz-adv-x="567" 
d="M157 30l-9 -33h-42l-5 211h38q39 -179 172 -179q48 0 73.5 23t25.5 55q0 35 -30 58t-126 56q-83 27 -118.5 63t-35.5 94q0 64 46 103t111 39q75 0 141 -39q10 22 14 34h37l2 -197h-36q-48 162 -157 162q-36 0 -57.5 -19.5t-21.5 -53.5t32.5 -58t129.5 -58
q77 -26 111.5 -63.5t34.5 -89.5q0 -64 -50.5 -107t-128.5 -43q-83 0 -151 42zM256 -90q0 14 12.5 25.5t32.5 11.5q28 0 47 -22.5t19 -57.5q0 -65 -85 -112l-19 28q47 27 47 58q0 18 -27 35.5t-27 33.5z" />
    <glyph glyph-name="quoteleft" unicode="&#x2bb;" horiz-adv-x="375" 
d="M264 473q0 -30 -21 -48.5t-57 -18.5q-38 0 -64 28t-26 71q0 127 126 216l25 -36q-107 -80 -94 -184q31 26 57 26q23 0 38.5 -14t15.5 -40z" />
    <glyph glyph-name="quoteleft" unicode="&#x2018;" horiz-adv-x="375" 
d="M264 473q0 -30 -21 -48.5t-57 -18.5q-38 0 -64 28t-26 71q0 127 126 216l25 -36q-107 -80 -94 -184q31 26 57 26q23 0 38.5 -14t15.5 -40z" />
    <glyph glyph-name="circumflex" unicode="&#x2c6;" horiz-adv-x="500" 
d="M395 506v-8h-46l-99 99l-99 -99h-46v8l121 164h48z" />
    <glyph glyph-name="caron" unicode="&#x2c7;" horiz-adv-x="500" 
d="M395 670v-8l-121 -164h-48l-121 164v8h46l99 -99l99 99h46z" />
    <glyph glyph-name="breve" unicode="&#x2d8;" horiz-adv-x="500" 
d="M250 498q-50 0 -85 39t-35 113h40q0 -35 22.5 -61.5t57.5 -26.5q32 0 56 25.5t24 62.5h40q0 -74 -35 -113t-85 -39z" />
    <glyph glyph-name="dotaccent" unicode="&#x2d9;" horiz-adv-x="500" 
d="M185 594q0 27 18.5 46t45.5 19t46.5 -19t19.5 -46t-19.5 -45.5t-46.5 -18.5t-45.5 18.5t-18.5 45.5z" />
    <glyph glyph-name="ring" unicode="&#x2da;" horiz-adv-x="500" 
d="M156 582q0 39 27.5 66.5t66.5 27.5t66.5 -27.5t27.5 -66.5t-27.5 -66.5t-66.5 -27.5t-66.5 27.5t-27.5 66.5zM202 582q0 -22 13 -36.5t34 -14.5t34.5 14.5t13.5 36.5t-13.5 37.5t-34.5 15.5t-34 -15.5t-13 -37.5z" />
    <glyph glyph-name="ogonek" unicode="&#x2db;" horiz-adv-x="500" 
d="M289 24v-6q-90 -49 -90 -120q0 -62 45 -62q6 0 16 2v-32q-18 -5 -34 -5q-39 0 -68 20.5t-29 57.5q0 91 141 155z" />
    <glyph glyph-name="tilde" unicode="&#x2dc;" horiz-adv-x="500" 
d="M378 648l26 -10q-14 -49 -43 -87t-55 -38q-15 0 -63.5 30t-63.5 30q-16 0 -27.5 -16t-25.5 -47l-29 12q11 40 41 81.5t48 41.5q19 0 65 -30.5t64 -30.5q17 0 36 21t27 43z" />
    <glyph glyph-name="hungarumlaut" unicode="&#x2dd;" horiz-adv-x="500" 
d="M280 498v8l86 164h94v-10l-139 -162h-41zM140 498v8l86 164h94v-10l-139 -162h-41z" />
    <glyph glyph-name="Delta" unicode="&#x394;" horiz-adv-x="544" 
d="M535 0h-523l223 630h48zM240 498l-152 -445v-7h325v7q-28 74 -86.5 222.5t-86.5 222.5z" />
    <glyph glyph-name="Delta" unicode="&#x2206;" horiz-adv-x="544" 
d="M535 0h-523l223 630h48zM240 498l-152 -445v-7h325v7q-28 74 -86.5 222.5t-86.5 222.5z" />
    <glyph glyph-name="Omega" unicode="&#x3a9;" horiz-adv-x="544" 
d="M273 596q-50 0 -85.5 -38t-50 -88.5t-14.5 -106.5q0 -137 37.5 -234.5t91.5 -114.5l-3 -14h-229l-18 138h30l42 -92v-3h55v2l6 10v6q-44 50 -73 129t-29 162q0 113 67.5 199t173.5 86t173.5 -86t67.5 -199q0 -83 -29 -162t-73 -129v-6l6 -10v-2h55v3l42 92h30l-19 -138
h-228l-3 14q54 17 91.5 114.5t37.5 234.5q0 55 -15 106.5t-51 89t-86 37.5z" />
    <glyph glyph-name="Omega" unicode="&#x2126;" horiz-adv-x="544" 
d="M273 596q-50 0 -85.5 -38t-50 -88.5t-14.5 -106.5q0 -137 37.5 -234.5t91.5 -114.5l-3 -14h-229l-18 138h30l42 -92v-3h55v2l6 10v6q-44 50 -73 129t-29 162q0 113 67.5 199t173.5 86t173.5 -86t67.5 -199q0 -83 -29 -162t-73 -129v-6l6 -10v-2h55v3l42 92h30l-19 -138
h-228l-3 14q54 17 91.5 114.5t37.5 234.5q0 55 -15 106.5t-51 89t-86 37.5z" />
    <glyph glyph-name="lambda" unicode="&#x3bb;" horiz-adv-x="528" 
d="M261 615l117 -464q17 -68 25.5 -88t22.5 -20q12 0 26 29q15 26 35 26q16 0 25 -11t9 -27q0 -30 -25 -49.5t-61 -19.5q-76 0 -103 109l-56 229l-152 -329h-101l218 471l-33 140q-22 85 -60 85q-15 0 -41 -34q-24 -32 -45 -32q-36 0 -36 35q0 29 31.5 52t81.5 23
q49 0 79 -35.5t43 -89.5z" />
    <glyph glyph-name="pi" unicode="&#x3c0;" horiz-adv-x="544" 
d="M170 20q-21 -32 -53 -32q-19 0 -33.5 11.5t-14.5 27.5q0 15 20 32q55 58 80.5 133t25.5 188v5h-31q-35 0 -53.5 -13t-27.5 -49l-28 5q14 60 37 85.5t64 25.5h340v-54h-103v-5l-22 -259q-4 -58 33 -58q41 0 65 64l25 -3q-35 -131 -113 -131q-43 0 -63.5 28.5t-15.5 76.5
l27 282v5h-86v-5q-5 -242 -73 -360z" />
    <glyph glyph-name="Wgrave" unicode="&#x1e80;" horiz-adv-x="1027" 
d="M712 179h5l119 364q18 54 -1 83t-82 26v39h234v-39q-42 0 -62.5 -23.5t-41.5 -87.5l-184 -557h-27l-146 443l-164 -443h-25l-196 592q-18 46 -39 61t-62 15v39h269v-39q-53 1 -63.5 -18.5t5.5 -57.5l128 -397h6l119 315l-27 82q-16 52 -32.5 64t-67.5 12v39h268v-39
q-13 0 -22.5 -0.5t-17.5 -1t-12.5 -4t-8.5 -4.5t-5 -6.5t-2 -7.5t0.5 -10.5t2 -11t4 -14.5t4.5 -16zM589 755v-8h-51l-129 127v10h94z" />
    <glyph glyph-name="wgrave" unicode="&#x1e81;" horiz-adv-x="833" 
d="M566 165h8l84 234q15 35 1 54.5t-65 18.5v38h199v-38q-34 0 -50 -16.5t-32 -61.5l-147 -406h-33l-110 306l-114 -306h-32l-155 432q-11 32 -28.5 42t-51.5 10v38h225v-38q-37 1 -47 -11t1 -37l94 -259h6l76 201l-19 54q-13 36 -25 44t-53 8v38h224v-38q-38 1 -46 -9
t1 -39zM481 578v-8h-51l-129 162v10h94z" />
    <glyph glyph-name="Wacute" unicode="&#x1e82;" horiz-adv-x="1027" 
d="M712 179h5l119 364q18 54 -1 83t-82 26v39h234v-39q-42 0 -62.5 -23.5t-41.5 -87.5l-184 -557h-27l-146 443l-164 -443h-25l-196 592q-18 46 -39 61t-62 15v39h269v-39q-53 1 -63.5 -18.5t5.5 -57.5l128 -397h6l119 315l-27 82q-16 52 -32.5 64t-67.5 12v39h268v-39
q-13 0 -22.5 -0.5t-17.5 -1t-12.5 -4t-8.5 -4.5t-5 -6.5t-2 -7.5t0.5 -10.5t2 -11t4 -14.5t4.5 -16zM469 747v8l86 129h94v-10l-129 -127h-51z" />
    <glyph glyph-name="wacute" unicode="&#x1e83;" horiz-adv-x="833" 
d="M566 165h8l84 234q15 35 1 54.5t-65 18.5v38h199v-38q-34 0 -50 -16.5t-32 -61.5l-147 -406h-33l-110 306l-114 -306h-32l-155 432q-11 32 -28.5 42t-51.5 10v38h225v-38q-37 1 -47 -11t1 -37l94 -259h6l76 201l-19 54q-13 36 -25 44t-53 8v38h224v-38q-38 1 -46 -9
t1 -39zM361 570v8l86 164h94v-10l-129 -162h-51z" />
    <glyph glyph-name="Wdieresis" unicode="&#x1e84;" horiz-adv-x="1027" 
d="M712 179h5l119 364q18 54 -1 83t-82 26v39h234v-39q-42 0 -62.5 -23.5t-41.5 -87.5l-184 -557h-27l-146 443l-164 -443h-25l-196 592q-18 46 -39 61t-62 15v39h269v-39q-53 1 -63.5 -18.5t5.5 -57.5l128 -397h6l119 315l-27 82q-16 52 -32.5 64t-67.5 12v39h268v-39
q-13 0 -22.5 -0.5t-17.5 -1t-12.5 -4t-8.5 -4.5t-5 -6.5t-2 -7.5t0.5 -10.5t2 -11t4 -14.5t4.5 -16zM667 828q0 -20 -16 -35.5t-36 -15.5q-21 0 -37 15.5t-16 35.5q0 21 16 37t37 16q20 0 36 -16t16 -37zM496 828q0 -20 -15 -35.5t-37 -15.5q-21 0 -37 15.5t-16 35.5
q0 21 16 37t37 16t36.5 -16t15.5 -37z" />
    <glyph glyph-name="wdieresis" unicode="&#x1e85;" horiz-adv-x="833" 
d="M566 165h8l84 234q15 35 1 54.5t-65 18.5v38h199v-38q-34 0 -50 -16.5t-32 -61.5l-147 -406h-33l-110 306l-114 -306h-32l-155 432q-11 32 -28.5 42t-51.5 10v38h225v-38q-37 1 -47 -11t1 -37l94 -259h6l76 201l-19 54q-13 36 -25 44t-53 8v38h224v-38q-38 1 -46 -9
t1 -39zM559 641q0 -20 -16 -35.5t-36 -15.5q-21 0 -37 15.5t-16 35.5q0 21 16 37t37 16q20 0 36 -16t16 -37zM388 641q0 -21 -15 -36t-37 -15q-21 0 -37 15.5t-16 35.5q0 21 16 37t37 16t36.5 -16t15.5 -37z" />
    <glyph glyph-name="uni1e9e" unicode="&#x1e9e;" horiz-adv-x="844" 
d="M557 -12q-87 0 -155 35l-6 153h43q24 -150 117 -150q49 0 77 42t28 125q0 70 -34 116t-102 45q-51 0 -101 -29l-49 50l203 265l-5 12h-302v-571q0 -24 14 -30.5t61 -9.5q10 -1 16 -1v-40h-297v40q70 7 86 17.5t16 30.5v528q0 24 -18.5 30t-83.5 6v39h622l10 -41
l-189 -239l7 -11q110 21 181 -36t71 -163q0 -55 -19.5 -98t-51 -67t-67 -36t-72.5 -12z" />
    <glyph glyph-name="Ygrave" unicode="&#x1ef2;" horiz-adv-x="734" 
d="M694 691v-39q-68 0 -118 -79l-144 -263v-184q0 -59 19 -72.5t84 -13.5v-40h-308v40q72 0 86.5 13t14.5 73v180l-157 257q-39 57 -61 73t-70 16v39h293v-39q-58 0 -72 -14.5t12 -53.5l136 -224l123 223q17 28 4 48t-56 21v39h214zM474 755v-8h-51l-129 127v10h94z" />
    <glyph glyph-name="ygrave" unicode="&#x1ef3;" horiz-adv-x="609" 
d="M569 510v-38q-57 0 -86 -54l-119 -199v-123q0 -39 14.5 -48t64.5 -9v-39h-255v39q55 0 66 8.5t11 48.5v115l-128 199q-26 38 -43 50t-54 12v38h243v-38q-25 -1 -38 -2.5t-20.5 -5.5t-5.5 -12t12 -21l106 -164l95 162q13 18 1 30.5t-47 12.5v38h183zM397 578v-8h-51
l-129 162v10h94z" />
    <glyph glyph-name="uni2011" unicode="&#x2011;" horiz-adv-x="408" 
d="M77 282h254v-69h-254v69z" />
    <glyph glyph-name="endash" unicode="&#x2013;" horiz-adv-x="578" 
d="M86 282h406v-69h-406v69z" />
    <glyph glyph-name="emdash" unicode="&#x2014;" horiz-adv-x="1090" 
d="M131 277h828v-59h-828v59z" />
    <glyph glyph-name="quoteright" unicode="&#x2019;" horiz-adv-x="375" 
d="M111 654q0 30 21 48.5t57 18.5q38 0 64 -28t26 -71q0 -127 -126 -216l-25 36q107 80 94 184q-31 -26 -57 -26q-23 0 -38.5 14t-15.5 40z" />
    <glyph glyph-name="quotesinglbase" unicode="&#x201a;" horiz-adv-x="375" 
d="M111 89q0 30 21 48.5t57 18.5q38 0 64 -28t26 -71q0 -127 -126 -216l-25 36q107 80 94 184q-31 -26 -57 -26q-23 0 -38.5 14t-15.5 40z" />
    <glyph glyph-name="quotedblleft" unicode="&#x201c;" horiz-adv-x="615" 
d="M264 473q0 -30 -21 -48.5t-57 -18.5q-38 0 -64 28t-26 71q0 127 126 216l25 -36q-107 -80 -94 -184q31 26 57 26q23 0 38.5 -14t15.5 -40zM504 473q0 -30 -21 -48.5t-57 -18.5q-38 0 -64 28t-26 71q0 127 126 216l25 -36q-107 -80 -94 -184q31 26 57 26q23 0 38.5 -14
t15.5 -40z" />
    <glyph glyph-name="quotedblright" unicode="&#x201d;" horiz-adv-x="615" 
d="M351 654q0 30 21 48.5t57 18.5q38 0 64 -28t26 -71q0 -127 -126 -216l-25 36q107 80 94 184q-31 -26 -57 -26q-23 0 -38.5 14t-15.5 40zM111 654q0 30 21 48.5t57 18.5q38 0 64 -28t26 -71q0 -127 -126 -216l-25 36q107 80 94 184q-31 -26 -57 -26q-23 0 -38.5 14
t-15.5 40z" />
    <glyph glyph-name="quotedblbase" unicode="&#x201e;" horiz-adv-x="615" 
d="M351 89q0 30 21 48.5t57 18.5q38 0 64 -28t26 -71q0 -127 -126 -216l-25 36q107 80 94 184q-31 -26 -57 -26q-23 0 -38.5 14t-15.5 40zM111 89q0 30 21 48.5t57 18.5q38 0 64 -28t26 -71q0 -127 -126 -216l-25 36q107 80 94 184q-31 -26 -57 -26q-23 0 -38.5 14t-15.5 40
z" />
    <glyph glyph-name="dagger" unicode="&#x2020;" horiz-adv-x="638" 
d="M543 479q0 -30 -23.5 -47.5t-52.5 -12.5q-5 1 -44.5 20t-84.5 19q0 -87 8.5 -130.5t36.5 -69.5q-15 -8 -23.5 -28.5t-15 -86t-6.5 -180.5h-39q0 167 -10 225.5t-34 69.5q44 45 44 200q-34 0 -55 -6.5t-41 -18t-32 -16.5q-27 -8 -51.5 12t-24.5 50q0 29 23.5 45.5
t52.5 11.5q15 -4 33.5 -14.5t40 -17.5t54.5 -7q0 36 -6.5 60.5t-18.5 48t-16 37.5q-9 27 9 51t47 24q30 0 49.5 -24t13.5 -51q-2 -10 -20.5 -54t-18.5 -92q33 0 54 6.5t42 18.5t33 17q28 7 52 -12t24 -48z" />
    <glyph glyph-name="daggerdbl" unicode="&#x2021;" horiz-adv-x="638" 
d="M383 258q-30 -33 -37.5 -75.5t-7.5 -127.5q45 0 83 18.5t46 20.5q29 5 52.5 -12t23.5 -47q0 -29 -24.5 -48.5t-51.5 -11.5q-12 4 -32.5 16t-42 18.5t-54.5 6.5q0 -48 18.5 -91.5t20.5 -53.5q6 -28 -13.5 -52t-49.5 -24q-29 0 -47 24t-9 52q4 14 16 37t18.5 47.5t6.5 60.5
q-33 0 -54.5 -7t-40 -17.5t-33.5 -14.5q-29 -5 -52.5 11.5t-23.5 46.5q0 29 24 49t52 13q12 -5 32 -17t41 -18.5t55 -6.5q0 80 -9 128t-35 75q44 47 44 200q-34 0 -55 -6.5t-41 -18t-32 -16.5q-27 -8 -51.5 12t-24.5 50t23.5 46t52.5 11q8 -2 46 -20.5t82 -18.5
q0 36 -6.5 61t-18.5 48t-16 37q-9 27 9 51t47 24q30 0 49.5 -24t13.5 -51q-2 -10 -20.5 -54t-18.5 -92q33 0 54 6.5t42 18.5t33 17q28 7 52 -12t24 -48q0 -30 -23.5 -47.5t-52.5 -12.5q-5 1 -44.5 20t-84.5 19q0 -87 8.5 -130.5t36.5 -69.5z" />
    <glyph glyph-name="bullet" unicode="&#x2022;" horiz-adv-x="662" 
d="M195 264q0 56 40 96t96 40t96 -40t40 -96t-40 -96t-96 -40t-96 40t-40 96z" />
    <glyph glyph-name="ellipsis" unicode="&#x2026;" horiz-adv-x="989" 
d="M115 59q0 29 20 49.5t49 20.5t49.5 -20.5t20.5 -49.5q0 -28 -20.5 -48t-49.5 -20t-49 19.5t-20 48.5zM425 59q0 29 20 49.5t49 20.5t49.5 -20.5t20.5 -49.5q0 -28 -20.5 -48t-49.5 -20t-49 19.5t-20 48.5zM735 59q0 29 20 49.5t49 20.5t49.5 -20.5t20.5 -49.5
q0 -28 -20.5 -48t-49.5 -20t-49 19.5t-20 48.5z" />
    <glyph glyph-name="perthousand" unicode="&#x2030;" horiz-adv-x="881" 
d="M318 575l-3 -1q-1 -81 -44 -134t-100 -53q-47 0 -77 35.5t-30 90.5q0 74 46.5 128.5t100.5 54.5q70 0 96 -69q6 -15 25 -24.5t41 -9.5q48 0 84 30q23 67 55 67q8 0 16 -5.5t8 -16.5q0 -15 -13.5 -32.5t-30.5 -28.5l-190 -288l-215 -338l-33 26l223 332l140 228l-3 2
q-21 -12 -48 -12q-30 0 -48 18zM286 114q0 74 47 129t101 55q46 0 75 -31.5t29 -85.5q0 -86 -44 -139t-98 -53q-49 0 -79.5 35t-30.5 90zM450 253q-33 0 -61 -52.5t-28 -113.5q0 -28 11.5 -43t28.5 -15q34 0 62 41t28 120q0 30 -11.5 46.5t-29.5 16.5zM228 651
q-33 0 -62 -52t-29 -112t43 -60q33 0 60.5 42t27.5 120q0 29 -11.5 45.5t-28.5 16.5zM566 114q0 74 46.5 129t99.5 55q47 0 76 -31.5t29 -85.5q0 -86 -44 -139t-98 -53q-49 0 -79 35t-30 90zM730 253q-33 0 -62 -52.5t-29 -113.5q0 -28 11.5 -43t29.5 -15q34 0 62 41t28 120
q0 30 -11.5 46.5t-28.5 16.5z" />
    <glyph glyph-name="uni2032" unicode="&#x2032;" horiz-adv-x="310" 
d="M73 456l70 266l96 -34l-114 -250z" />
    <glyph glyph-name="uni2033" unicode="&#x2033;" horiz-adv-x="500" 
d="M73 456l70 266l96 -34l-114 -250zM263 456l70 266l96 -34l-114 -250z" />
    <glyph glyph-name="guilsinglleft" unicode="&#x2039;" horiz-adv-x="465" 
d="M115 240l182 219l33 -20l-118 -201v-15l118 -203l-33 -24l-182 221v23z" />
    <glyph glyph-name="guilsinglright" unicode="&#x203a;" horiz-adv-x="465" 
d="M168 459l182 -219v-23l-182 -221l-33 24l118 203v15l-118 201z" />
    <glyph glyph-name="uni2042" unicode="&#x2042;" horiz-adv-x="986" 
d="M516 543q49 -24 120 -44q35 -9 28 -40q-6 -27 -30 -36q-21 -7 -38 10q-63 66 -93 85q5 -56 25 -124q10 -32 -20 -43q-27 -9 -44 9q-12 14 -8 34q21 96 23 124q-47 -29 -93 -85q-20 -23 -46 -2q-24 19 -18 43q4 16 26 23q84 26 119 46q-51 22 -119 37q-30 5 -26 36
q4 28 27 36q18 7 35 -9q67 -60 95 -80q-7 52 -26 121q-10 34 21 45q28 9 47 -9q13 -14 7 -36q-2 -10 -9.5 -37t-11.5 -46t-6 -38q47 31 95 80q26 28 50 4q20 -21 12 -46q-6 -17 -24 -21q-9 -2 -28 -6.5t-30.5 -7.5t-28.5 -9t-31 -14zM306 173q49 -24 120 -44q35 -9 28 -40
q-6 -27 -30 -36q-21 -7 -38 10q-63 66 -93 85q5 -56 25 -124q10 -32 -20 -43q-27 -9 -44 9q-13 13 -8 34q21 96 23 124q-47 -29 -93 -85q-20 -23 -46 -2q-24 19 -18 43q4 16 26 23q84 26 119 46q-51 22 -119 37q-30 5 -26 36q4 28 27 36q18 7 35 -9q67 -60 95 -80
q-7 52 -26 121q-10 34 21 45q28 9 47 -9q13 -14 7 -36q-2 -10 -9.5 -37t-11.5 -46t-6 -38q47 31 95 80q26 28 50 4q20 -21 12 -46q-6 -17 -24 -21q-9 -2 -28 -6.5t-30.5 -7.5t-28.5 -9t-31 -14zM726 173q49 -24 120 -44q35 -9 28 -40q-6 -27 -30 -36q-21 -7 -38 10
q-63 66 -93 85q5 -56 25 -124q10 -32 -20 -43q-27 -9 -44 9q-13 13 -8 34q21 96 23 124q-47 -29 -93 -85q-20 -23 -46 -2q-24 19 -18 43q4 16 26 23q84 26 119 46q-51 22 -119 37q-30 5 -26 36q4 28 27 36q18 7 35 -9q67 -60 95 -80q-7 52 -26 121q-10 34 21 45q28 9 47 -9
q13 -14 7 -36q-2 -10 -9.5 -37t-11.5 -46t-6 -38q47 31 95 80q26 28 50 4q20 -21 12 -46q-6 -17 -24 -21q-9 -2 -28 -6.5t-30.5 -7.5t-28.5 -9t-31 -14z" />
    <glyph glyph-name="fraction" unicode="&#x2044;" 
d="M173 -14l241 370l223 353l40 -26l-234 -349l-231 -375z" />
    <glyph glyph-name="zero.sups" unicode="&#x2070;" horiz-adv-x="359" 
d="M324 601q0 -92 -41.5 -142t-103.5 -50q-63 0 -103.5 46.5t-40.5 145.5q0 95 41.5 148t102.5 53q62 0 103.5 -52.5t41.5 -148.5zM245 601q0 93 -14 133t-52 40q-37 0 -51 -39.5t-14 -133.5q0 -93 12.5 -128.5t52.5 -35.5t53 35.5t13 128.5z" />
    <glyph glyph-name="four.sups" unicode="&#x2074;" horiz-adv-x="349" 
d="M27 531l-6 14l202 258l35 -4v-241h59v-27h-59v-40q0 -33 14.5 -43t43.5 -10v-22h-190v22q32 0 47 10t15 39v44h-161zM82 560l2 -2h102v137z" />
    <glyph glyph-name="five.sups" unicode="&#x2075;" horiz-adv-x="343" 
d="M116 729l-8 -93q33 19 77 19q49 0 85.5 -29t36.5 -80q0 -62 -46.5 -99.5t-117.5 -37.5q-41 0 -75 20t-34 55q0 20 12.5 32.5t32.5 12.5t31.5 -10t11.5 -27l-29 -41q17 -15 53 -15q40 0 60.5 30.5t20.5 75.5q0 77 -58 77q-40 0 -72 -36h-34l16 218q57 -18 110 -18
q58 0 106 23v-33q-44 -47 -134 -47q-25 0 -45 3z" />
    <glyph glyph-name="six.sups" unicode="&#x2076;" horiz-adv-x="361" 
d="M200 802q49 0 78.5 -21.5t29.5 -47.5q0 -42 -45 -42q-19 0 -31.5 10t-12.5 28l26 30q-18 18 -45 18q-24 0 -43 -25.5t-28.5 -59.5t-12.5 -71q34 34 87 34q57 0 89 -31t32 -79q0 -64 -41.5 -100t-98.5 -36q-59 0 -100.5 44t-41.5 136q0 89 46 151t112 62zM245 542
q0 83 -52 83q-20 0 -41.5 -17t-36.5 -48l1 1q0 -124 68 -124q61 0 61 105z" />
    <glyph glyph-name="seven.sups" unicode="&#x2077;" horiz-adv-x="332" 
d="M108 449q24 146 140 290q-19 -8 -52 -8q-15 0 -35 4q-30 5 -34 5q-42 0 -52 -72h-38l18 132h40l1 -5q17 7 38 7q23 0 49 -11q24 -11 41 -11q28 0 77 30l23 -25q-71 -88 -101 -156.5t-30 -180.5q0 -10 -1.5 -16t-11.5 -13t-29 -7q-46 0 -43 37z" />
    <glyph glyph-name="eight.sups" unicode="&#x2078;" horiz-adv-x="349" 
d="M232 622v-4l-7 2q89 -29 89 -98q0 -52 -45 -82.5t-102 -30.5q-59 0 -95.5 25t-36.5 68q0 29 24 54.5t62 41.5l-6 -2v5l6 -2q-71 31 -71 95q0 45 37.5 76.5t93.5 31.5q53 0 85.5 -24t32.5 -62q0 -54 -72 -96zM232 711q0 27 -17.5 45.5t-42.5 18.5q-27 0 -43.5 -18
t-16.5 -42q0 -57 80 -81q40 24 40 77zM246 509q0 54 -92 75q-55 -21 -54 -79q1 -33 21 -50.5t53 -17.5q30 0 51 19t21 53z" />
    <glyph glyph-name="nine.sups" unicode="&#x2079;" horiz-adv-x="361" 
d="M160 409q-49 0 -77.5 18.5t-28.5 42.5q0 45 43 45q20 0 32 -11t12 -29l-26 -26q15 -15 45 -15q37 0 59 45t24 110q-33 -33 -86 -33q-56 0 -88 34t-32 87q0 55 42.5 90t98.5 35q58 0 100 -44t42 -136q0 -98 -45.5 -155.5t-114.5 -57.5zM115 674q0 -88 54 -88q19 0 40.5 17
t35.5 48l-1 -1q0 124 -67 124q-31 0 -46.5 -27.5t-15.5 -72.5z" />
    <glyph glyph-name="Euro" unicode="&#x20ac;" horiz-adv-x="695" 
d="M93 402h64q20 125 92.5 199t169.5 74q105 0 194 -66l-32 -133h-31q1 44 -11.5 76t-34 48t-42.5 23t-43 7q-61 0 -105 -57.5t-56 -170.5h309l-12 -46h-301v-39v-17h286l-11 -46h-272q12 -106 58 -162.5t102 -56.5q111 0 150 128l41 -13q-48 -162 -201 -162
q-97 0 -167.5 70t-85.5 196h-72l11 46h58v16q0 27 1 40h-70z" />
    <glyph glyph-name="uni2117" unicode="&#x2117;" horiz-adv-x="865" 
d="M93 327q0 138 100.5 238t239.5 100q144 0 241.5 -99t97.5 -239t-100 -240.5t-239 -100.5q-142 0 -241 96.5t-99 244.5zM153 324q0 -122 79 -203.5t203 -81.5q123 0 199.5 81t76.5 204q0 125 -79 208t-199 83q-122 0 -201 -83.5t-79 -207.5zM457 296h-41v-119l50 -8v-27
h-176v27l47 8v299l-47 8v26h169q56 0 98 -26.5t42 -80.5q0 -49 -38 -78t-104 -29zM416 470v-136h45q23 0 40.5 18t17.5 47q0 71 -62 71h-41z" />
    <glyph glyph-name="trademark" unicode="&#x2122;" horiz-adv-x="760" 
d="M580 634h-7l-78 -179h-17l-74 179h-5l-15 -150l33 -6v-23h-92v23l33 6l19 193l-38 6v23h94l62 -165h7l71 165h92v-23l-35 -6l12 -193l31 -6v-23h-118v23l34 6zM100 706h210l14 -74h-20l-32 47h-38v-195l32 -6v-23h-121v23l32 6v195h-37l-32 -47h-21z" />
    <glyph glyph-name="oneseventh" unicode="&#x2150;" 
d="M173 -14l241 370l223 353l40 -26l-234 -349l-231 -375zM99 641v25q67 3 113 22h35v-317q0 -23 16.5 -32.5t56.5 -9.5v-22h-219v22q41 2 58 10.5t17 31.5v261zM544 24q24 146 140 290q-19 -8 -52 -8q-15 0 -35 4q-30 5 -34 5q-42 0 -52 -72h-38l18 132h40l1 -5q18 7 38 7
q23 0 49 -11q24 -11 41 -11q28 0 77 30l23 -25q-71 -88 -101 -156.5t-30 -180.5q0 -10 -1.5 -16t-11.5 -13t-29 -7q-46 0 -43 37z" />
    <glyph glyph-name="oneninth" unicode="&#x2151;" 
d="M173 -14l241 370l223 353l40 -26l-234 -349l-231 -375zM99 641v25q67 3 113 22h35v-317q0 -23 16.5 -32.5t56.5 -9.5v-22h-219v22q41 2 58 10.5t17 31.5v261zM596 -16q-49 0 -77.5 18.5t-28.5 42.5q0 45 43 45q20 0 32 -11t12 -29l-26 -26q15 -15 45 -15q37 0 59 45
t24 110q-33 -33 -86 -33q-56 0 -88 34t-32 87q0 55 42.5 90t98.5 35q58 0 100 -44t42 -136q0 -98 -45.5 -155.5t-114.5 -57.5zM551 249q0 -88 54 -88q19 0 40.5 17t35.5 48l-1 -1q0 124 -67 124q-31 0 -46.5 -27.5t-15.5 -72.5z" />
    <glyph glyph-name="onethird" unicode="&#x2153;" 
d="M173 -14l241 370l223 353l40 -26l-234 -349l-231 -375zM99 641v25q67 3 113 22h35v-317q0 -23 16.5 -32.5t56.5 -9.5v-22h-219v22q41 2 58 10.5t17 31.5v261zM637 199l3 -5q42 -6 70.5 -31.5t28.5 -69.5q0 -53 -47.5 -81t-111.5 -28q-51 0 -84 19.5t-33 55.5
q0 21 11.5 34t30.5 13q43 0 43 -43l-24 -38q18 -14 52 -14q35 0 59.5 19t24.5 65q0 73 -59 73q-17 0 -61 -14l-8 29q61 23 89 49.5t28 62.5q0 55 -53 55q-35 0 -55 -19q18 -29 27 -46q0 -15 -12 -24.5t-30 -9.5q-19 0 -31 13t-12 34q0 37 37.5 58t85.5 21q54 0 88 -22.5
t34 -61.5q0 -53 -91 -94z" />
    <glyph glyph-name="twothirds" unicode="&#x2154;" 
d="M173 -14l241 370l223 353l40 -26l-234 -349l-231 -375zM123 365l2 -7h110q25 0 35 66h45l-17 -117h-259l-8 29l24 20q31 26 49 43t50.5 51t49 68.5t16.5 66.5q0 42 -18 61t-43 19q-39 0 -61 -43l35 -48q0 -19 -13.5 -30.5t-34.5 -11.5q-22 0 -34 14t-12 37q0 49 37 79.5
t89 30.5q62 0 98.5 -29t36.5 -80q0 -24 -12 -49t-36.5 -51t-43 -43t-48.5 -42q-27 -22 -40 -35zM637 199l3 -5q42 -6 70.5 -31.5t28.5 -69.5q0 -53 -47.5 -81t-111.5 -28q-51 0 -84 19.5t-33 55.5q0 21 11.5 34t30.5 13q43 0 43 -43l-24 -38q18 -14 52 -14q35 0 59.5 19
t24.5 65q0 73 -59 73q-17 0 -61 -14l-8 29q61 23 89 49.5t28 62.5q0 55 -53 55q-35 0 -55 -19q18 -29 27 -46q0 -15 -12 -24.5t-30 -9.5q-19 0 -31 13t-12 34q0 37 37.5 58t85.5 21q54 0 88 -22.5t34 -61.5q0 -53 -91 -94z" />
    <glyph glyph-name="onefifth" unicode="&#x2155;" 
d="M173 -14l241 370l223 353l40 -26l-234 -349l-231 -375zM99 641v25q67 3 113 22h35v-317q0 -23 16.5 -32.5t56.5 -9.5v-22h-219v22q41 2 58 10.5t17 31.5v261zM552 304l-8 -93q33 19 77 19q49 0 85.5 -29t36.5 -80q0 -62 -46.5 -99.5t-117.5 -37.5q-41 0 -75 20t-34 55
q0 20 12.5 32.5t32.5 12.5t31.5 -10t11.5 -27l-29 -41q17 -15 53 -15q40 0 60.5 30.5t20.5 75.5q0 77 -58 77q-40 0 -72 -36h-34l16 218q57 -18 110 -18q58 0 106 23v-33q-44 -47 -134 -47q-25 0 -45 3z" />
    <glyph glyph-name="twofifths" unicode="&#x2156;" 
d="M173 -14l241 370l223 353l40 -26l-234 -349l-231 -375zM123 365l2 -7h110q25 0 35 66h45l-17 -117h-259l-8 29l24 20q31 26 49 43t50.5 51t49 68.5t16.5 66.5q0 42 -18 61t-43 19q-39 0 -61 -43l35 -48q0 -19 -13.5 -30.5t-34.5 -11.5q-22 0 -34 14t-12 37q0 49 37 79.5
t89 30.5q62 0 98.5 -29t36.5 -80q0 -24 -12 -49t-36.5 -51t-43 -43t-48.5 -42q-27 -22 -40 -35zM552 304l-8 -93q33 19 77 19q49 0 85.5 -29t36.5 -80q0 -62 -46.5 -99.5t-117.5 -37.5q-41 0 -75 20t-34 55q0 20 12.5 32.5t32.5 12.5t31.5 -10t11.5 -27l-29 -41
q17 -15 53 -15q40 0 60.5 30.5t20.5 75.5q0 77 -58 77q-40 0 -72 -36h-34l16 218q57 -18 110 -18q58 0 106 23v-33q-44 -47 -134 -47q-25 0 -45 3z" />
    <glyph glyph-name="threefifths" unicode="&#x2157;" 
d="M173 -14l241 370l223 353l40 -26l-234 -349l-231 -375zM231 515l3 -5q42 -6 70.5 -31.5t28.5 -69.5q0 -53 -47.5 -81t-111.5 -28q-51 0 -84 19.5t-33 55.5q0 21 11.5 34t30.5 13q43 0 43 -43l-24 -38q17 -14 52 -14t59.5 19t24.5 65q0 73 -59 73q-17 0 -61 -14l-8 29
q61 23 89 49.5t28 62.5q0 55 -53 55q-35 0 -55 -19q18 -29 27 -46q0 -15 -12 -24.5t-30 -9.5q-19 0 -31 13t-12 34q0 37 37.5 58t85.5 21q54 0 88 -22.5t34 -61.5q0 -53 -91 -94zM552 304l-8 -93q33 19 77 19q49 0 85.5 -29t36.5 -80q0 -62 -46.5 -99.5t-117.5 -37.5
q-41 0 -75 20t-34 55q0 20 12.5 32.5t32.5 12.5t31.5 -10t11.5 -27l-29 -41q17 -15 53 -15q40 0 60.5 30.5t20.5 75.5q0 77 -58 77q-40 0 -72 -36h-34l16 218q57 -18 110 -18q58 0 106 23v-33q-44 -47 -134 -47q-25 0 -45 3z" />
    <glyph glyph-name="fourfifths" unicode="&#x2158;" 
d="M173 -14l241 370l223 353l40 -26l-234 -349l-231 -375zM14 422l-6 14l202 258l35 -4v-241h59v-27h-59v-40q0 -33 14.5 -43t43.5 -10v-22h-190v22q32 0 47 10t15 39v44h-161zM69 451l2 -2h102v137zM552 304l-8 -93q33 19 77 19q49 0 85.5 -29t36.5 -80q0 -62 -46.5 -99.5
t-117.5 -37.5q-41 0 -75 20t-34 55q0 20 12.5 32.5t32.5 12.5t31.5 -10t11.5 -27l-29 -41q17 -15 53 -15q40 0 60.5 30.5t20.5 75.5q0 77 -58 77q-40 0 -72 -36h-34l16 218q57 -18 110 -18q58 0 106 23v-33q-44 -47 -134 -47q-25 0 -45 3z" />
    <glyph glyph-name="onesixth" unicode="&#x2159;" 
d="M173 -14l241 370l223 353l40 -26l-234 -349l-231 -375zM99 641v25q67 3 113 22h35v-317q0 -23 16.5 -32.5t56.5 -9.5v-22h-219v22q41 2 58 10.5t17 31.5v261zM616 377q49 0 78.5 -21.5t29.5 -47.5q0 -42 -45 -42q-19 0 -31.5 10t-12.5 28l26 30q-18 18 -45 18
q-24 0 -43 -25.5t-28.5 -59.5t-12.5 -71q34 34 87 34q57 0 89 -31t32 -79q0 -64 -41.5 -100t-98.5 -36q-59 0 -100.5 44t-41.5 136q0 89 46 151t112 62zM661 117q0 83 -52 83q-20 0 -41.5 -17t-36.5 -48l1 1q0 -124 68 -124q61 0 61 105z" />
    <glyph glyph-name="fivesixths" unicode="&#x215a;" 
d="M173 -14l241 370l223 353l40 -26l-234 -349l-231 -375zM142 620l-8 -93q33 19 77 19q49 0 85.5 -29t36.5 -80q0 -62 -46.5 -99.5t-117.5 -37.5q-41 0 -75 20t-34 55q0 20 12.5 32.5t32.5 12.5t31.5 -10t11.5 -27l-29 -41q17 -15 53 -15q40 0 60.5 30.5t20.5 75.5
q0 77 -58 77q-40 0 -72 -36h-34l16 218q57 -18 110 -18q58 0 106 23v-33q-44 -47 -134 -47q-25 0 -45 3zM616 377q49 0 78.5 -21.5t29.5 -47.5q0 -42 -45 -42q-19 0 -31.5 10t-12.5 28l26 30q-18 18 -45 18q-24 0 -43 -25.5t-28.5 -59.5t-12.5 -71q34 34 87 34q57 0 89 -31
t32 -79q0 -64 -41.5 -100t-98.5 -36q-59 0 -100.5 44t-41.5 136q0 89 46 151t112 62zM661 117q0 83 -52 83q-20 0 -41.5 -17t-36.5 -48l1 1q0 -124 68 -124q61 0 61 105z" />
    <glyph glyph-name="oneeighth" unicode="&#x215b;" 
d="M173 -14l241 370l223 353l40 -26l-234 -349l-231 -375zM99 641v25q67 3 113 22h35v-317q0 -23 16.5 -32.5t56.5 -9.5v-22h-219v22q41 2 58 10.5t17 31.5v261zM668 197v-4l-7 2q89 -29 89 -98q0 -52 -45 -82.5t-102 -30.5q-59 0 -95.5 25t-36.5 68q0 29 24 54.5t62 41.5
l-6 -2v5l6 -2q-71 31 -71 95q0 45 37.5 76.5t93.5 31.5q53 0 85.5 -24t32.5 -62q0 -54 -72 -96zM668 286q0 27 -17.5 45.5t-42.5 18.5q-27 0 -43.5 -18t-16.5 -42q0 -57 80 -81q40 24 40 77zM682 84q0 54 -92 75q-55 -21 -54 -79q1 -33 21 -50.5t53 -17.5q30 0 51 19t21 53z
" />
    <glyph glyph-name="threeeighths" unicode="&#x215c;" 
d="M173 -14l241 370l223 353l40 -26l-234 -349l-231 -375zM231 515l3 -5q42 -6 70.5 -31.5t28.5 -69.5q0 -53 -47.5 -81t-111.5 -28q-51 0 -84 19.5t-33 55.5q0 21 11.5 34t30.5 13q43 0 43 -43l-24 -38q17 -14 52 -14t59.5 19t24.5 65q0 73 -59 73q-17 0 -61 -14l-8 29
q61 23 89 49.5t28 62.5q0 55 -53 55q-35 0 -55 -19q18 -29 27 -46q0 -15 -12 -24.5t-30 -9.5q-19 0 -31 13t-12 34q0 37 37.5 58t85.5 21q54 0 88 -22.5t34 -61.5q0 -53 -91 -94zM668 197v-4l-7 2q89 -29 89 -98q0 -52 -45 -82.5t-102 -30.5q-59 0 -95.5 25t-36.5 68
q0 29 24 54.5t62 41.5l-6 -2v5l6 -2q-71 31 -71 95q0 45 37.5 76.5t93.5 31.5q53 0 85.5 -24t32.5 -62q0 -54 -72 -96zM668 286q0 27 -17.5 45.5t-42.5 18.5q-27 0 -43.5 -18t-16.5 -42q0 -57 80 -81q40 24 40 77zM682 84q0 54 -92 75q-55 -21 -54 -79q1 -33 21 -50.5
t53 -17.5q30 0 51 19t21 53z" />
    <glyph glyph-name="fiveeighths" unicode="&#x215d;" 
d="M173 -14l241 370l223 353l40 -26l-234 -349l-231 -375zM142 620l-8 -93q33 19 77 19q49 0 85.5 -29t36.5 -80q0 -62 -46.5 -99.5t-117.5 -37.5q-41 0 -75 20t-34 55q0 20 12.5 32.5t32.5 12.5t31.5 -10t11.5 -27l-29 -41q17 -15 53 -15q40 0 60.5 30.5t20.5 75.5
q0 77 -58 77q-40 0 -72 -36h-34l16 218q57 -18 110 -18q58 0 106 23v-33q-44 -47 -134 -47q-25 0 -45 3zM668 197v-4l-7 2q89 -29 89 -98q0 -52 -45 -82.5t-102 -30.5q-59 0 -95.5 25t-36.5 68q0 29 24 54.5t62 41.5l-6 -2v5l6 -2q-71 31 -71 95q0 45 37.5 76.5t93.5 31.5
q53 0 85.5 -24t32.5 -62q0 -54 -72 -96zM668 286q0 27 -17.5 45.5t-42.5 18.5q-27 0 -43.5 -18t-16.5 -42q0 -57 80 -81q40 24 40 77zM682 84q0 54 -92 75q-55 -21 -54 -79q1 -33 21 -50.5t53 -17.5q30 0 51 19t21 53z" />
    <glyph glyph-name="seveneighths" unicode="&#x215e;" 
d="M173 -14l241 370l223 353l40 -26l-234 -349l-231 -375zM151 340q24 146 140 290q-19 -8 -52 -8q-15 0 -35 4q-30 5 -34 5q-42 0 -52 -72h-38l18 132h40l1 -5q18 7 38 7q23 0 49 -11q24 -11 41 -11q28 0 77 30l23 -25q-71 -88 -101 -156.5t-30 -180.5q0 -10 -1.5 -16
t-11.5 -13t-29 -7q-46 0 -43 37zM668 197v-4l-7 2q89 -29 89 -98q0 -52 -45 -82.5t-102 -30.5q-59 0 -95.5 25t-36.5 68q0 29 24 54.5t62 41.5l-6 -2v5l6 -2q-71 31 -71 95q0 45 37.5 76.5t93.5 31.5q53 0 85.5 -24t32.5 -62q0 -54 -72 -96zM668 286q0 27 -17.5 45.5
t-42.5 18.5q-27 0 -43.5 -18t-16.5 -42q0 -57 80 -81q40 24 40 77zM682 84q0 54 -92 75q-55 -21 -54 -79q1 -33 21 -50.5t53 -17.5q30 0 51 19t21 53z" />
    <glyph glyph-name="uni2191" unicode="&#x2191;" horiz-adv-x="704" 
d="M363 604l263 -237l-43 -57l-186 166v-425h-85v425l-186 -166l-44 57l265 237h16z" />
    <glyph glyph-name="uni2193" unicode="&#x2193;" horiz-adv-x="704" 
d="M626 288l-263 -237h-16l-265 237l44 57l186 -166v425h85v-425l186 166z" />
    <glyph glyph-name="partialdiff" unicode="&#x2202;" horiz-adv-x="544" 
d="M287 603q-84 0 -109 -132h-41l11 106q20 25 62 42.5t88 17.5q95 0 145 -78t50 -200q0 -179 -72 -275t-193 -96q-72 0 -122.5 47t-50.5 132q0 104 67 166t148 62q40 0 76.5 -17.5t53.5 -49.5v-2l5 3v43q0 117 -28.5 174t-89.5 57zM387 269v1q-11 34 -38.5 58t-58.5 24
q-56 0 -94 -50.5t-38 -135.5q0 -63 22.5 -99.5t63.5 -36.5q58 0 100.5 65.5t42.5 173.5z" />
    <glyph glyph-name="product" unicode="&#x220f;" horiz-adv-x="544" 
d="M2 625h544v-31l-79 -15v-533l79 -16v-30h-256v30l79 16v533h-190v-533l79 -16v-30h-256v30l79 16v533l-79 15v31z" />
    <glyph glyph-name="summation" unicode="&#x2211;" horiz-adv-x="544" 
d="M148 83l5 -10v-3h254v2l85 111h42l-48 -183h-474l-6 8l265 273v18l-244 320l5 6h450l24 -163h-36l-90 130v2h-213v-3l-5 -7v-5l201 -259v-11l-215 -221v-5z" />
    <glyph glyph-name="minus" unicode="&#x2212;" horiz-adv-x="620" 
d="M570 230h-520v60h520v-60z" />
    <glyph glyph-name="radical" unicode="&#x221a;" horiz-adv-x="544" 
d="M322 52h13v4l153 701l50 -10l-185 -886h-39l-197 531v3l-101 -36l-12 28l176 59l142 -391v-3z" />
    <glyph glyph-name="infinity" unicode="&#x221e;" horiz-adv-x="544" 
d="M129 151q-61 0 -93.5 37.5t-32.5 86.5q0 53 37 90.5t89 37.5q73 0 143 -92q69 92 146 92q61 0 93.5 -37t32.5 -87q0 -53 -37 -90.5t-89 -37.5q-76 0 -143 90q-70 -90 -146 -90zM146 362q-34 0 -55 -23.5t-21 -63.5q0 -38 21 -61.5t51 -23.5q18 0 37.5 13.5t31.5 28.5
t35 45v6q-20 26 -32.5 40.5t-31 26.5t-36.5 12zM401 192q34 0 55 23.5t21 63.5q0 38 -21 61.5t-51 23.5q-18 0 -37 -14t-32 -29t-35 -45v-6q28 -39 50.5 -58.5t49.5 -19.5z" />
    <glyph glyph-name="integral" unicode="&#x222b;" horiz-adv-x="544" 
d="M307 499l13 -494q2 -93 -48.5 -152.5t-129.5 -59.5q-31 0 -53.5 15.5t-22.5 46.5q0 20 13 35t37 15q51 0 58 -61v-4l26 -7v1q19 19 31 66t10 95l-12 494q-2 94 48 152.5t128 58.5q32 0 55 -15.5t23 -45.5q0 -19 -13.5 -34.5t-37.5 -15.5q-22 0 -38 15t-19 46v4l-26 7v-1
q-45 -42 -42 -161z" />
    <glyph glyph-name="approxequal" unicode="&#x2248;" horiz-adv-x="544" 
d="M434 383l53 -21q-14 -46 -46.5 -77t-84.5 -31q-37 0 -96 38q-3 2 -12.5 8t-13.5 8.5t-12 7t-13 6.5t-11.5 3.5t-12.5 1.5q-24 0 -43 -11t-27 -21t-22 -32l-42 30q15 31 51.5 57t82.5 26q34 0 93 -36q52 -35 79 -35q28 0 49.5 23.5t27.5 54.5zM450 223l47 -23
q-12 -36 -49.5 -62t-79.5 -26q-47 0 -110 40q-51 32 -73 32q-37 0 -72 -67l-46 29q49 87 118 87q31 0 91 -34q58 -37 92 -37q30 0 51.5 17.5t30.5 43.5z" />
    <glyph glyph-name="notequal" unicode="&#x2260;" horiz-adv-x="620" 
d="M482 491l-65 -121h153v-60h-185l-64 -120h249v-60h-281l-86 -160l-56 27l71 133h-168v60h200l64 120h-264v60h296l80 148z" />
    <glyph glyph-name="lessequal" unicode="&#x2264;" horiz-adv-x="620" 
d="M570 0h-520v60h520v-60zM570 545l-454 -179l454 -179v-57l-520 205v62l520 205v-57z" />
    <glyph glyph-name="greaterequal" unicode="&#x2265;" horiz-adv-x="620" 
d="M570 0h-520v60h520v-60zM504 366l-454 179v57l520 -205v-62l-520 -205v57z" />
    <glyph glyph-name="lozenge" unicode="&#x25ca;" horiz-adv-x="544" 
d="M273 -101l-247 375l247 377l247 -377zM110 271l163 -250l164 250v6l-164 251q-108 -164 -163 -251v-6z" />
    <glyph glyph-name="uni2605" unicode="&#x2605;" horiz-adv-x="574" 
d="M129 -9l-2 1l65 184v7l-163 115l200 -7v4l57 192h8l58 -192v-4q33 1 98.5 3t97.5 2l-159 -113v-7l65 -183l-2 -1l-162 119zM548 296l7 5l-1 -5h-6zM25 298l-2 4l6 -4h-4z" />
    <glyph glyph-name="commaaccent" unicode="&#xf6c3;" horiz-adv-x="500" 
d="M204 -95q0 14 12.5 25.5t32.5 11.5q28 0 47 -22.5t19 -57.5q0 -65 -85 -112l-19 28q47 27 47 58q0 18 -27 35.5t-27 33.5z" />
    <glyph glyph-name="apple" unicode="&#xf8ff;" horiz-adv-x="544" 
d="M211 720h11l32 -121l-3 -82l68 -8l64 99l8 99h12l7 -99l-17 -129l36 -85l35 -38l1 -6l-7 -8v-18l8 -4l-1 -9l-17 -36l-36 7l-11 101l-34 56l-13 -2l26 -60l4 -99l-37 -46l3 -22l26 -37l7 -71l-64 -23l-33 16l-35 57l-75 25l-28 47l-3 42l-30 41l-2 58l4 27l-11 44z
M489 244l6 -9l-3 -37l-12 -17l-5 -33l23 -8l-3 -10l-23 7l-43 -26l-5 10l39 23l5 36l-36 14l-13 31l-1 10l14 15l24 4zM272 305l36 -14l11 13l-3 14l-11 10l-30 -10zM329 64l3 -4l-7 -21l-40 -43l-68 -23l-97 14l-55 48l-18 62l34 95l11 -1l-9 -71l22 -41l37 -33l88 -16
l48 3zM144 438l9 -9l33 34l11 76h-18z" />
    <glyph glyph-name="zero.tnum" horiz-adv-x="624" 
d="M554 336q0 -167 -70 -257.5t-174 -90.5q-106 0 -173 84t-67 264q0 173 69 269t171 96q104 0 174 -95t70 -270zM447 336q0 173 -29 247t-108 74q-76 0 -104.5 -73.5t-28.5 -247.5q0 -172 26 -237.5t107 -65.5q82 0 109.5 66t27.5 237z" />
    <glyph glyph-name="one.tnum" horiz-adv-x="624" 
d="M136 610v41q118 7 198 39h40v-576q0 -42 30.5 -61t101.5 -19v-34h-366v34q77 4 107.5 20t30.5 60v481z" />
    <glyph glyph-name="two.tnum" horiz-adv-x="624" 
d="M197 104l4 -16h220q30 0 52 32.5t30 86.5h45l-30 -207h-438l-15 50q6 6 55 46.5t92 81t92 96t78.5 116.5t29.5 117q0 78 -38.5 114t-92.5 36q-94 0 -126 -80l61 -86q0 -36 -19.5 -57t-49.5 -21q-33 0 -50 24.5t-17 65.5q0 88 63 143t149 55q105 0 167 -52t62 -143
q0 -45 -23 -92t-64.5 -92t-79.5 -80t-87.5 -77t-69.5 -61z" />
    <glyph glyph-name="three.tnum" horiz-adv-x="624" 
d="M350 379l4 -11q74 -8 127.5 -55t53.5 -129q0 -95 -81.5 -145.5t-192.5 -50.5q-84 0 -140 35t-56 99q0 37 16.5 59.5t44.5 22.5t44 -20.5t16 -55.5l-43 -66q32 -32 111 -32q33 0 61.5 7.5t55 24t41.5 49t15 77.5q0 65 -31.5 100t-80.5 36.5t-109 -16.5l-14 42
q112 42 163.5 90t51.5 114q0 105 -117 105q-73 0 -115 -40l47 -81q0 -25 -17 -42.5t-42 -17.5q-27 0 -44 22.5t-17 59.5q0 66 63.5 103.5t143.5 37.5q91 0 148.5 -40.5t57.5 -109.5q0 -54 -46.5 -98t-118.5 -74z" />
    <glyph glyph-name="four.tnum" horiz-adv-x="624" 
d="M59 210l-10 25l364 466l35 -5v-441h107v-45h-107v-75q0 -63 27 -82t79 -19v-34h-311v34q57 0 84.5 19t27.5 75v82h-296zM128 260l2 -5h222v287l-8 4z" />
    <glyph glyph-name="five.tnum" horiz-adv-x="624" 
d="M173 391l8 -5q72 45 150 45q82 0 143.5 -51.5t61.5 -145.5q0 -112 -80.5 -179t-201.5 -67q-68 0 -125 36t-57 98q0 34 18 56t48 22q27 0 43.5 -18.5t16.5 -48.5l-49 -71q32 -32 111 -32q82 0 124.5 57t42.5 140q0 145 -126 145q-85 0 -141 -64h-35l30 383
q97 -28 199.5 -25.5t159.5 31.5v-49q-48 -53 -139 -71t-187 1z" />
    <glyph glyph-name="six.tnum" horiz-adv-x="624" 
d="M341 701q81 0 129 -38t48 -85q0 -33 -16 -52.5t-46 -19.5q-28 0 -45.5 18t-17.5 50l45 53q-28 35 -97 35q-54 0 -95 -54t-59 -125t-19 -141l8 -4q59 93 170 93q96 0 149.5 -55.5t53.5 -143.5q0 -114 -71.5 -179t-168.5 -65q-46 0 -87 17.5t-77 54.5t-57 102t-21 152
q0 162 80 274.5t194 112.5zM441 227q0 157 -115 157q-43 0 -87 -31.5t-71 -88.5q0 -118 34.5 -174.5t107.5 -56.5q131 0 131 194z" />
    <glyph glyph-name="seven.tnum" horiz-adv-x="624" 
d="M479 592l-10 10q-37 -24 -103 -24q-21 0 -63 8t-65 8q-47 0 -75.5 -35t-36.5 -98h-35l33 235h37l6 -22q42 27 83 27q34 0 84 -20.5t83 -20.5q69 0 136 46l30 -34q-66 -80 -104 -135.5t-73.5 -129.5t-50.5 -158t-15 -192q0 -13 -1.5 -21.5t-6.5 -19.5t-18 -17t-33 -6
q-69 0 -60 66q42 282 258 533z" />
    <glyph glyph-name="eight.tnum" horiz-adv-x="624" 
d="M400 374v-6q149 -50 149 -177q0 -62 -38.5 -110t-94.5 -70.5t-118 -22.5q-100 0 -162 45t-62 122q0 55 42 101t106 72v9q-62 26 -91.5 72t-29.5 98q0 81 64 137.5t158 56.5q90 0 144.5 -43t54.5 -111q0 -100 -122 -173zM435 538q0 51 -36 85.5t-92 34.5
q-57 0 -92.5 -33.5t-35.5 -79.5q0 -54 44.5 -93t125.5 -61q86 46 86 147zM462 167q0 104 -189 144q-52 -18 -84.5 -56t-31.5 -95q1 -61 43.5 -94t109.5 -33q63 0 107.5 35.5t44.5 98.5z" />
    <glyph glyph-name="nine.tnum" horiz-adv-x="624" 
d="M273 -12q-81 0 -128.5 33.5t-47.5 75.5q0 34 15.5 55.5t45.5 21.5q28 0 45.5 -20t17.5 -53l-45 -43q29 -31 97 -31q82 0 127 94.5t46 225.5l-8 4q-26 -43 -70.5 -68t-99.5 -25q-95 0 -149 61t-54 157q0 99 72.5 162t168.5 63q46 0 87 -17.5t77 -54.5t57 -102t21 -152
q0 -178 -78.5 -282.5t-196.5 -104.5zM173 471q0 -87 31.5 -126.5t84.5 -39.5q42 0 86.5 31.5t70.5 88.5q0 118 -34.5 175t-107.5 57q-66 0 -98.5 -51.5t-32.5 -134.5z" />
    <glyph glyph-name="exclamdown.case" horiz-adv-x="449" 
d="M166 97q1 7 8.5 62.5t12.5 96t10 109t5 130.5h44q0 -121 12.5 -232t26.5 -166q8 -41 -6.5 -73.5t-55.5 -32.5q-74 0 -57 106zM294 652q0 -29 -20 -49.5t-49 -20.5t-49.5 20.5t-20.5 49.5q0 28 20.5 48t49.5 20t49 -19.5t20 -48.5z" />
    <glyph glyph-name="questiondown.case" horiz-adv-x="600" 
d="M408 293l-12 -7q-61 28 -119 28q-55 0 -87.5 -36t-32.5 -93t45.5 -105t118.5 -48q43 0 62 21l-31 62q0 22 17 36.5t42 14.5t41 -16.5t16 -48.5q0 -48 -38.5 -79t-102.5 -31q-93 0 -162.5 62.5t-69.5 157.5q0 86 45.5 142t116.5 56q68 0 99 -23l3 109h44zM451 652
q0 -29 -20 -49.5t-49 -20.5t-49.5 20.5t-20.5 49.5q0 28 20.5 48t49.5 20t49 -19.5t20 -48.5z" />
    <glyph glyph-name="hyphen.case" horiz-adv-x="408" 
d="M77 362h254v-69h-254v69z" />
    <glyph glyph-name="endash.case" horiz-adv-x="578" 
d="M86 362h406v-69h-406v69z" />
    <glyph glyph-name="emdash.case" horiz-adv-x="1090" 
d="M131 357h828v-59h-828v59z" />
    <glyph glyph-name="guilsinglleft.case" horiz-adv-x="465" 
d="M115 330l182 219l33 -20l-118 -201v-15l118 -203l-33 -24l-182 221v23z" />
    <glyph glyph-name="guilsinglright.case" horiz-adv-x="465" 
d="M168 549l182 -219v-23l-182 -221l-33 24l118 203v15l-118 201z" />
    <glyph glyph-name="guillemotleft.case" horiz-adv-x="672" 
d="M115 330l182 219l33 -20l-118 -201v-15l118 -203l-33 -24l-182 221v23zM322 330l182 219l33 -20l-118 -201v-15l118 -203l-33 -24l-182 221v23z" />
    <glyph glyph-name="guillemotright.case" horiz-adv-x="672" 
d="M375 549l182 -219v-23l-182 -221l-33 24l118 203v15l-118 201zM168 549l182 -219v-23l-182 -221l-33 24l118 203v15l-118 201z" />
    <glyph glyph-name="zero.onum" horiz-adv-x="644" 
d="M569 266q0 -129 -73 -203.5t-181 -74.5q-103 0 -171.5 72t-68.5 206q0 108 73.5 188t174.5 80q105 0 175.5 -70t70.5 -198zM460 266q0 224 -138 224q-70 0 -104 -63.5t-34 -160.5q0 -106 32.5 -169.5t103.5 -63.5q69 0 104.5 61.5t35.5 171.5z" />
    <glyph glyph-name="one.onum" horiz-adv-x="531" 
d="M94 450v41q118 7 198 39h40v-416q0 -40 30.5 -57.5t101.5 -17.5v-39h-366v39q77 4 107.5 19t30.5 56v321z" />
    <glyph glyph-name="two.onum" horiz-adv-x="606" 
d="M223 100l4 -12h179q31 0 54.5 21t31.5 55h37l-28 -164h-408l-14 58q3 2 39.5 24.5t65.5 41t71.5 51t71 62t49.5 65.5t21 69q0 63 -34.5 91t-82.5 28q-78 0 -102 -65l47 -66q0 -30 -18 -47t-47 -17q-30 0 -46 22.5t-16 60.5q0 69 57 112.5t135 43.5q98 0 156 -43.5
t58 -120.5q0 -29 -15.5 -59t-36.5 -52.5t-55.5 -48.5t-59.5 -41.5t-62.5 -37.5t-51.5 -31z" />
    <glyph glyph-name="three.onum" horiz-adv-x="618" 
d="M350 212l4 -11q74 -8 127.5 -55t53.5 -129q0 -95 -81.5 -145.5t-192.5 -50.5q-84 0 -140 35t-56 99q0 37 16.5 59.5t44.5 22.5t44 -20.5t16 -55.5l-43 -66q32 -32 111 -32q33 0 61.5 7.5t55 24t41.5 49t15 77.5q0 65 -31.5 100t-80.5 36.5t-109 -16.5l-14 42
q112 42 163.5 90t51.5 114q0 105 -117 105q-73 0 -115 -40l47 -81q0 -25 -17 -42.5t-42 -17.5q-27 0 -44 22.5t-17 59.5q0 66 63.5 103.5t143.5 37.5q91 0 148.5 -40.5t57.5 -109.5q0 -54 -46.5 -98t-118.5 -74z" />
    <glyph glyph-name="four.onum" horiz-adv-x="635" 
d="M64 43l-10 25l364 466l35 -5v-441h107v-45h-107v-75q0 -63 27 -82t79 -19v-34h-311v34q57 0 84.5 19t27.5 75v82h-296zM133 93l2 -5h222v287l-8 4z" />
    <glyph glyph-name="five.onum" horiz-adv-x="624" 
d="M179 224l8 -5q72 45 150 45q82 0 143.5 -51.5t61.5 -145.5q0 -112 -80.5 -179t-201.5 -67q-68 0 -125 36t-57 98q0 34 18 56t48 22q27 0 43.5 -18.5t16.5 -48.5l-49 -71q32 -32 111 -32q82 0 124.5 57t42.5 140q0 145 -126 145q-85 0 -141 -64h-35l30 383
q97 -28 199.5 -25.5t159.5 31.5v-49q-48 -53 -139 -71t-187 1z" />
    <glyph glyph-name="six.onum" horiz-adv-x="656" 
d="M364 701q81 0 129 -38t48 -85q0 -33 -16 -52.5t-46 -19.5q-28 0 -45.5 18t-17.5 50l45 53q-28 35 -97 35q-54 0 -95 -54t-59 -125t-19 -141l8 -4q59 93 170 93q96 0 149.5 -55.5t53.5 -143.5q0 -114 -71.5 -179t-168.5 -65q-46 0 -87 17.5t-77 54.5t-57 102t-21 152
q0 162 80 274.5t194 112.5zM464 227q0 157 -115 157q-43 0 -87 -31.5t-71 -88.5q0 -118 34.5 -174.5t107.5 -56.5q131 0 131 194z" />
    <glyph glyph-name="seven.onum" horiz-adv-x="604" 
d="M470 425l-10 10q-37 -24 -103 -24q-21 0 -63 8t-65 8q-47 0 -75.5 -35t-36.5 -98h-35l33 235h37l6 -22q42 27 83 27q34 0 84 -20.5t83 -20.5q69 0 136 46l30 -34q-66 -80 -104 -135.5t-73.5 -129.5t-50.5 -158t-15 -192q0 -13 -1.5 -21.5t-6.5 -19.5t-18 -17t-33 -6
q-69 0 -60 66q42 282 258 533z" />
    <glyph glyph-name="eight.onum" horiz-adv-x="635" 
d="M406 374v-6q149 -50 149 -177q0 -62 -38.5 -110t-94.5 -70.5t-118 -22.5q-100 0 -162 45t-62 122q0 55 42 101t106 72v9q-62 26 -91.5 72t-29.5 98q0 81 64 137.5t158 56.5q90 0 144.5 -43t54.5 -111q0 -100 -122 -173zM441 538q0 51 -36 85.5t-92 34.5
q-57 0 -92.5 -33.5t-35.5 -79.5q0 -54 44.5 -93t125.5 -61q86 46 86 147zM468 167q0 104 -189 144q-52 -18 -84.5 -56t-31.5 -95q1 -61 43.5 -94t109.5 -33q63 0 107.5 35.5t44.5 98.5z" />
    <glyph glyph-name="nine.onum" horiz-adv-x="656" 
d="M291 -179q-81 0 -128.5 33.5t-47.5 75.5q0 34 15.5 55.5t45.5 21.5q28 0 45.5 -20t17.5 -53l-45 -43q29 -31 97 -31q82 0 127 94.5t46 225.5l-8 4q-26 -43 -70.5 -68t-99.5 -25q-95 0 -149 61t-54 157q0 99 72.5 162t168.5 63q46 0 87 -17.5t77 -54.5t57 -102t21 -152
q0 -178 -78.5 -282.5t-196.5 -104.5zM191 304q0 -87 31.5 -126.5t84.5 -39.5q42 0 86.5 31.5t70.5 88.5q0 118 -34.5 175t-107.5 57q-66 0 -98.5 -51.5t-32.5 -134.5z" />
    <glyph glyph-name="acute.case" horiz-adv-x="500" 
d="M190 488v8l86 129h94v-10l-129 -127h-51z" />
    <glyph glyph-name="grave.case" horiz-adv-x="500" 
d="M310 496v-8h-51l-129 127v10h94z" />
    <glyph glyph-name="circumflex.case" horiz-adv-x="500" 
d="M395 496v-8h-46l-99 69l-99 -69h-46v8l121 129h48z" />
    <glyph glyph-name="breve.case" horiz-adv-x="500" 
d="M250 488q-50 0 -85 33.5t-35 98.5h40q0 -30 22.5 -51.5t57.5 -21.5q32 0 56 21t24 52h40q0 -65 -35 -98.5t-85 -33.5z" />
    <glyph glyph-name="caron.case" horiz-adv-x="500" 
d="M395 625v-8l-121 -129h-48l-121 129v8h46l99 -69l99 69h46z" />
    <glyph glyph-name="hungarumlaut.case" horiz-adv-x="500" 
d="M275 488v8l86 129h94v-10l-139 -127h-41zM135 488v8l86 129h94v-10l-139 -127h-41z" />
    <glyph glyph-name="dollar.onum" horiz-adv-x="556" 
d="M156 53l-11 -40h-37l-7 174h35q14 -64 43.5 -99t79.5 -45v196l-9 3q-77 25 -113.5 61t-36.5 94q0 62 45 100t107 38h7v73h42v-78q43 -10 90 -40l15 29h35l1 -152h-33q-37 105 -108 127v-184l22 -6q85 -24 120 -59t35 -92q0 -64 -47 -106.5t-121 -42.5h-9v-81h-42v85
q-63 11 -103 45zM416 127q0 30 -25 52.5t-90 45.5v-186h7q53 0 80.5 25.5t27.5 62.5zM166 417q0 -53 93 -92v176h-6q-41 0 -64 -25.5t-23 -58.5z" />
    <glyph glyph-name="cent.onum" horiz-adv-x="415" 
d="M338 226l32 -11q-16 -47 -50 -76t-83 -31v-76h-37v78q-62 8 -102 51.5t-40 120.5q0 68 40.5 117t101.5 60v74h37v-71q49 -2 84.5 -27t35.5 -62q0 -26 -12 -40t-32 -14q-23 0 -36 15t-12 37l20 30q-13 26 -48 28v-279h9q34 0 58 21.5t34 54.5zM138 291q0 -104 62 -132v264
q-62 -24 -62 -132z" />
    <glyph glyph-name="sterling.onum" horiz-adv-x="552" 
d="M88 304h66q-24 60 -24 92q0 69 49.5 107t115.5 38q69 0 109 -31.5t40 -62.5q0 -19 -12 -30.5t-27 -11.5q-19 0 -29.5 12t-21.5 35q-9 18 -14.5 27t-17.5 18t-28 9q-31 0 -52 -23.5t-21 -70.5q0 -31 21 -81l11 -27h129v-40h-118q3 -15 3 -32q0 -80 -46 -129l5 -7
q24 13 43 13q33 0 78 -41q1 -1 9 -7.5t10.5 -8t9.5 -6.5t11 -6.5t10 -3t12 -1.5q31 0 31 27q0 8 -15 23q-20 20 -20 34q0 13 9.5 23.5t24.5 10.5q23 0 36.5 -17t13.5 -49q0 -46 -33.5 -71.5t-77.5 -25.5q-57 0 -109.5 24t-76.5 51h-2q-47 -75 -92 -75q-11 0 -19 6t-8 16
q0 48 102 79q17 42 17 96q0 32 -19 77h-83v40z" />
    <glyph glyph-name="yen.onum" horiz-adv-x="568" 
d="M542 508v-33q-56 0 -93 -55l-103 -176h108v-40h-118v-39h118v-41h-118v-30q0 -41 15 -50.5t67 -9.5v-34h-245v34q55 0 67 9t12 51v30h-121v41h121v39h-121v40h108q-12 19 -35 53t-41.5 62t-34.5 53q-29 38 -47.5 50.5t-54.5 12.5v33h233v-33q-61 0 -61 -19q0 -7 14 -26
l105 -161q13 22 45 76.5t49 83.5q11 17 0.5 31t-42.5 15v33h173z" />
    <glyph glyph-name="Euro.onum" horiz-adv-x="598" 
d="M80 323h55q18 100 80 158.5t145 58.5q90 0 168 -54l-28 -108h-30q2 65 -33 93.5t-77 28.5q-51 0 -87.5 -45t-47.5 -132h264l-12 -40h-256v-29v-12h244l-10 -41h-231q11 -81 49.5 -125t85.5 -44q93 0 127 102l39 -11q-42 -133 -175 -133q-83 0 -143.5 55.5t-73.5 155.5
h-63l10 41h50v11q0 20 1 30h-61z" />
    <glyph glyph-name="numbersign.onum" horiz-adv-x="482" 
d="M95 409l83 -11l37 167l49 -6l-37 -167l77 -10l40 183l50 -6l-41 -183l90 -11l-6 -51l-95 12l-28 -125l78 -10l-6 -51l-83 10l-39 -178l-49 5l39 180l-76 9l-43 -194l-50 5l43 196l-88 11l6 51l93 -12l28 124l-78 10zM216 341l-27 -125l76 -9l28 125z" />
    <glyph glyph-name="percent.onum" horiz-adv-x="506" 
d="M269 440l-1 1q-1 -63 -37.5 -104t-84.5 -41q-40 0 -65.5 27.5t-25.5 70.5q0 57 39 99.5t85 42.5q59 0 82 -54q12 -25 53 -25q38 0 68 22q18 52 48 52q21 0 21 -19q0 -12 -11.5 -26.5t-25.5 -22.5l-157 -218q-46 -66 -181 -261l-31 22l187 256l110 170q-20 -6 -34 -6
q-22 0 -39 14zM239 89q0 58 40 100t86 42q39 0 63.5 -24.5t24.5 -66.5q0 -66 -37 -107t-83 -41q-42 0 -68 27.5t-26 69.5zM378 193q-27 0 -49.5 -39.5t-22.5 -85.5q0 -20 9 -31t22 -11q27 0 50 31t23 90q0 46 -32 46zM194 497q-27 0 -51 -39t-24 -84q0 -44 34 -44
q27 0 49 31.5t22 90.5q0 21 -9 33t-21 12z" />
    <glyph glyph-name="perthousand.onum" horiz-adv-x="740" 
d="M268 440q-2 -63 -38.5 -103.5t-83.5 -40.5q-40 0 -65.5 27.5t-25.5 70.5q0 57 39 99.5t85 42.5q59 0 82 -54q12 -25 53 -25q38 0 68 22q18 52 48 52q21 0 21 -19q0 -12 -11.5 -26.5t-25.5 -22.5l-157 -218q-46 -66 -181 -261l-31 22l187 256l110 170q-20 -6 -34 -6
q-20 0 -40 14zM239 89q0 58 40 100t86 42q39 0 63.5 -24.5t24.5 -66.5q0 -66 -37 -107t-83 -41q-42 0 -68 27.5t-26 69.5zM378 193q-27 0 -49.5 -39.5t-22.5 -85.5q0 -20 9 -31t22 -11q27 0 50 31t23 90q0 46 -32 46zM194 497q-27 0 -51 -39t-24 -84q0 -44 34 -44
q27 0 49 31.5t22 90.5q0 21 -9 33t-21 12zM472 89q0 58 39.5 100t84.5 42q40 0 65 -24.5t25 -66.5q0 -66 -37.5 -107t-82.5 -41q-42 0 -68 27.5t-26 69.5zM611 193q-26 0 -49.5 -39.5t-23.5 -85.5q0 -42 32 -42q27 0 50 31t23 90q0 23 -9 34.5t-23 11.5z" />
    <glyph glyph-name="ordfeminine.onum" horiz-adv-x="514" 
d="M335 216l-29 66h-135l-16 -40l-9 -25q0 -15 59 -15v-34h-171v34q48 0 65 31q21 52 68.5 167t71.5 174h28l153 -345q9 -15 21.5 -21t39.5 -6v-34h-199v34h28q18 0 23 3t2 11zM237 438l-50 -118h102z" />
    <glyph glyph-name="ordmasculine.onum" horiz-adv-x="526" 
d="M470 367q0 -87 -61.5 -147.5t-146.5 -60.5q-87 0 -146.5 59t-59.5 149q0 92 59 150.5t147 58.5q86 0 147 -59.5t61 -149.5zM376 367q0 171 -114 171q-111 0 -111 -171t111 -171q57 0 85.5 46t28.5 125z" />
    <glyph glyph-name="degree.onum" horiz-adv-x="417" 
d="M65 464q0 59 42 101.5t101 42.5t101.5 -42.5t42.5 -101.5t-42.5 -101t-101.5 -42q-58 0 -100.5 42.5t-42.5 100.5zM125 464q0 -39 22.5 -65.5t59.5 -26.5t60.5 26.5t23.5 65.5t-23.5 66.5t-60.5 27.5t-59.5 -27.5t-22.5 -66.5z" />
    <glyph glyph-name="zero.numr" horiz-adv-x="359" 
d="M324 501q0 -92 -41.5 -142t-103.5 -50q-63 0 -103.5 46.5t-40.5 145.5q0 95 41.5 148t102.5 53q62 0 103.5 -52.5t41.5 -148.5zM245 501q0 93 -14 133t-52 40q-37 0 -51 -39.5t-14 -133.5q0 -93 12.5 -128.5t52.5 -35.5t53 35.5t13 128.5z" />
    <glyph glyph-name="one.numr" horiz-adv-x="298" 
d="M47 650v25q67 3 113 22h35v-317q0 -23 16.5 -32.5t56.5 -9.5v-22h-219v22q41 2 58 10.5t17 31.5v261z" />
    <glyph glyph-name="two.numr" horiz-adv-x="348" 
d="M121 374l2 -7h110q25 0 35 66h45l-17 -117h-259l-8 29l24 20q31 26 49 43t50.5 51t49 68.5t16.5 66.5q0 42 -18 61t-43 19q-39 0 -61 -43l35 -48q0 -19 -13.5 -30.5t-34.5 -11.5q-22 0 -34 14t-12 37q0 49 37 79.5t89 30.5q62 0 98.5 -29t36.5 -80q0 -24 -12 -49
t-36.5 -51t-43 -43t-48.5 -42q-27 -22 -40 -35z" />
    <glyph glyph-name="three.numr" horiz-adv-x="340" 
d="M201 524l3 -5q42 -6 70.5 -31.5t28.5 -69.5q0 -53 -47.5 -81t-111.5 -28q-51 0 -84 19.5t-33 55.5q0 21 11.5 34t30.5 13q43 0 43 -43l-24 -38q17 -14 52 -14t59.5 19t24.5 65q0 73 -59 73q-17 0 -61 -14l-8 29q61 23 89 49.5t28 62.5q0 55 -53 55q-35 0 -55 -19
q18 -29 27 -46q0 -15 -12 -24.5t-30 -9.5q-19 0 -31 13t-12 34q0 37 37.5 58t85.5 21q54 0 88 -22.5t34 -61.5q0 -53 -91 -94z" />
    <glyph glyph-name="four.numr" horiz-adv-x="349" 
d="M27 431l-6 14l202 258l35 -4v-241h59v-27h-59v-40q0 -33 14.5 -43t43.5 -10v-22h-190v22q32 0 47 10t15 39v44h-161zM82 460l2 -2h102v137z" />
    <glyph glyph-name="five.numr" horiz-adv-x="343" 
d="M116 629l-8 -93q33 19 77 19q49 0 85.5 -29t36.5 -80q0 -62 -46.5 -99.5t-117.5 -37.5q-41 0 -75 20t-34 55q0 20 12.5 32.5t32.5 12.5t31.5 -10t11.5 -27l-29 -41q17 -15 53 -15q40 0 60.5 30.5t20.5 75.5q0 77 -58 77q-40 0 -72 -36h-34l16 218q57 -18 110 -18
q58 0 106 23v-33q-44 -47 -134 -47q-25 0 -45 3z" />
    <glyph glyph-name="six.numr" horiz-adv-x="361" 
d="M200 702q49 0 78.5 -21.5t29.5 -47.5q0 -42 -45 -42q-19 0 -31.5 10t-12.5 28l26 30q-18 18 -45 18q-24 0 -43 -25.5t-28.5 -59.5t-12.5 -71q34 34 87 34q57 0 89 -31t32 -79q0 -64 -41.5 -100t-98.5 -36q-59 0 -100.5 44t-41.5 136q0 89 46 151t112 62zM245 442
q0 83 -52 83q-20 0 -41.5 -17t-36.5 -48l1 1q0 -124 68 -124q61 0 61 105z" />
    <glyph glyph-name="seven.numr" horiz-adv-x="332" 
d="M108 349q24 146 140 290q-19 -8 -52 -8q-15 0 -35 4q-30 5 -34 5q-42 0 -52 -72h-38l18 132h40l1 -5q17 7 38 7q23 0 49 -11q24 -11 41 -11q28 0 77 30l23 -25q-71 -88 -101 -156.5t-30 -180.5q0 -10 -1.5 -16t-11.5 -13t-29 -7q-46 0 -43 37z" />
    <glyph glyph-name="eight.numr" horiz-adv-x="349" 
d="M232 522v-4l-7 2q89 -29 89 -98q0 -52 -45 -82.5t-102 -30.5q-59 0 -95.5 25t-36.5 68q0 29 24 54.5t62 41.5l-6 -2v5l6 -2q-71 31 -71 95q0 45 37.5 76.5t93.5 31.5q53 0 85.5 -24t32.5 -62q0 -54 -72 -96zM232 611q0 27 -17.5 45.5t-42.5 18.5q-27 0 -43.5 -18
t-16.5 -42q0 -57 80 -81q40 24 40 77zM246 409q0 54 -92 75q-55 -21 -54 -79q1 -33 21 -50.5t53 -17.5q30 0 51 19t21 53z" />
    <glyph glyph-name="nine.numr" horiz-adv-x="361" 
d="M160 309q-49 0 -77.5 18.5t-28.5 42.5q0 45 43 45q20 0 32 -11t12 -29l-26 -26q15 -15 45 -15q37 0 59 45t24 110q-33 -33 -86 -33q-56 0 -88 34t-32 87q0 55 42.5 90t98.5 35q58 0 100 -44t42 -136q0 -98 -45.5 -155.5t-114.5 -57.5zM115 574q0 -88 54 -88q19 0 40.5 17
t35.5 48l-1 -1q0 124 -67 124q-31 0 -46.5 -27.5t-15.5 -72.5z" />
    <glyph glyph-name="zero.dnom" horiz-adv-x="359" 
d="M324 146q0 -92 -41.5 -142t-103.5 -50q-63 0 -103.5 46.5t-40.5 145.5q0 95 41.5 148t102.5 53q62 0 103.5 -52.5t41.5 -148.5zM245 146q0 93 -14 133t-52 40q-37 0 -51 -39.5t-14 -133.5q0 -93 12.5 -128.5t52.5 -35.5t53 36t13 128z" />
    <glyph glyph-name="one.dnom" horiz-adv-x="298" 
d="M47 295v25q67 3 113 22h35v-317q0 -23 16.5 -32.5t56.5 -9.5v-22h-219v22q41 2 58 10.5t17 31.5v261z" />
    <glyph glyph-name="two.dnom" horiz-adv-x="348" 
d="M121 19l2 -7h110q25 0 35 66h45l-17 -117h-259l-8 29l24 20q31 26 49 43t50.5 51t49 68.5t16.5 66.5q0 42 -18 61t-43 19q-39 0 -61 -43l35 -48q0 -19 -13.5 -30.5t-34.5 -11.5q-22 0 -34 14t-12 37q0 49 37 79.5t89 30.5q62 0 98.5 -29t36.5 -80q0 -24 -12 -49
t-36.5 -51t-43 -43t-48.5 -42q-27 -22 -40 -35z" />
    <glyph glyph-name="three.dnom" horiz-adv-x="340" 
d="M201 169l3 -5q42 -6 70.5 -31.5t28.5 -69.5q0 -53 -47.5 -81t-111.5 -28q-51 0 -84 19.5t-33 55.5q0 21 11.5 34t30.5 13q43 0 43 -43l-24 -38q18 -14 52 -14q35 0 59.5 19t24.5 65q0 73 -59 73q-17 0 -61 -14l-8 29q61 23 89 49.5t28 62.5q0 55 -53 55q-35 0 -55 -19
q18 -29 27 -46q0 -15 -12 -24.5t-30 -9.5q-19 0 -31 13t-12 34q0 37 37.5 58t85.5 21q54 0 88 -22.5t34 -61.5q0 -53 -91 -94z" />
    <glyph glyph-name="four.dnom" horiz-adv-x="349" 
d="M27 76l-6 14l202 258l35 -4v-241h59v-27h-59v-40q0 -33 14.5 -43t43.5 -10v-22h-190v22q32 0 47 10t15 39v44h-161zM82 105l2 -2h102v137z" />
    <glyph glyph-name="five.dnom" horiz-adv-x="343" 
d="M116 274l-8 -93q33 19 77 19q49 0 85.5 -29t36.5 -80q0 -62 -46.5 -99.5t-117.5 -37.5q-41 0 -75 20t-34 55q0 20 12.5 32.5t32.5 12.5t31.5 -10t11.5 -27l-29 -41q17 -15 53 -15q40 0 60.5 30.5t20.5 75.5q0 77 -58 77q-40 0 -72 -36h-34l16 218q57 -18 110 -18
q58 0 106 23v-33q-44 -47 -134 -47q-25 0 -45 3z" />
    <glyph glyph-name="six.dnom" horiz-adv-x="361" 
d="M200 347q49 0 78.5 -21.5t29.5 -47.5q0 -42 -45 -42q-19 0 -31.5 10t-12.5 28l26 30q-18 18 -45 18q-24 0 -43 -25.5t-28.5 -59.5t-12.5 -71q34 34 87 34q57 0 89 -31t32 -79q0 -64 -41.5 -100t-98.5 -36q-59 0 -100.5 44t-41.5 136q0 89 46 151t112 62zM245 87
q0 83 -52 83q-20 0 -41.5 -17t-36.5 -48l1 1q0 -124 68 -124q61 0 61 105z" />
    <glyph glyph-name="seven.dnom" horiz-adv-x="332" 
d="M108 -6q24 146 140 290q-19 -8 -52 -8q-15 0 -35 4q-30 5 -34 5q-42 0 -52 -72h-38l18 132h40l1 -5q17 7 38 7q23 0 49 -11q24 -11 41 -11q28 0 77 30l23 -25q-71 -88 -101 -156.5t-30 -180.5q0 -10 -1.5 -16t-11.5 -13t-29 -7q-46 0 -43 37z" />
    <glyph glyph-name="eight.dnom" horiz-adv-x="349" 
d="M232 167v-4l-7 2q89 -29 89 -98q0 -52 -45 -82.5t-102 -30.5q-59 0 -95.5 25t-36.5 68q0 29 24 54.5t62 41.5l-6 -2v5l6 -2q-71 31 -71 95q0 45 37.5 76.5t93.5 31.5q53 0 85.5 -24t32.5 -62q0 -54 -72 -96zM232 256q0 27 -17.5 45.5t-42.5 18.5q-27 0 -43.5 -18
t-16.5 -42q0 -57 80 -81q40 24 40 77zM246 54q0 54 -92 75q-55 -21 -54 -79q1 -33 21 -50.5t53 -17.5q30 0 51 19t21 53z" />
    <glyph glyph-name="nine.dnom" horiz-adv-x="361" 
d="M160 -46q-49 0 -77.5 18.5t-28.5 42.5q0 45 43 45q20 0 32 -11t12 -29l-26 -26q15 -15 45 -15q37 0 59 45t24 110q-33 -33 -86 -33q-56 0 -88 34t-32 87q0 55 42.5 90t98.5 35q58 0 100 -44t42 -136q0 -98 -45.5 -155.5t-114.5 -57.5zM115 219q0 -88 54 -88q19 0 40.5 17
t35.5 48l-1 -1q0 124 -67 124q-31 0 -46.5 -27.5t-15.5 -72.5z" />
    <glyph glyph-name="zero.subs" horiz-adv-x="359" 
d="M324 26q0 -92 -41.5 -142t-103.5 -50q-63 0 -103.5 46.5t-40.5 145.5q0 95 41.5 148t102.5 53q62 0 103.5 -52.5t41.5 -148.5zM245 26q0 93 -14 133t-52 40q-37 0 -51 -39.5t-14 -133.5q0 -93 12.5 -128.5t52.5 -35.5t53 36t13 128z" />
    <glyph glyph-name="one.subs" horiz-adv-x="298" 
d="M47 175v25q67 3 113 22h35v-317q0 -23 16.5 -32.5t56.5 -9.5v-22h-219v22q41 2 58 10.5t17 31.5v261z" />
    <glyph glyph-name="two.subs" horiz-adv-x="348" 
d="M121 -101l2 -7h110q25 0 35 66h45l-17 -117h-259l-8 29l24 20q31 26 49 43t50.5 51t49 68.5t16.5 66.5q0 42 -18 61t-43 19q-39 0 -61 -43l35 -48q0 -19 -13.5 -30.5t-34.5 -11.5q-22 0 -34 14t-12 37q0 49 37 79.5t89 30.5q62 0 98.5 -29t36.5 -80q0 -24 -12 -49
t-36.5 -51t-43 -43t-48.5 -42q-27 -22 -40 -35z" />
    <glyph glyph-name="three.subs" horiz-adv-x="340" 
d="M201 49l3 -5q42 -6 70.5 -31.5t28.5 -69.5q0 -53 -47.5 -81t-111.5 -28q-51 0 -84 19.5t-33 55.5q0 21 11.5 34t30.5 13q43 0 43 -43l-24 -38q18 -14 52 -14q35 0 59.5 19t24.5 65q0 73 -59 73q-17 0 -61 -14l-8 29q61 23 89 49.5t28 62.5q0 55 -53 55q-35 0 -55 -19
q18 -29 27 -46q0 -15 -12 -24.5t-30 -9.5q-19 0 -31 13t-12 34q0 37 37.5 58t85.5 21q54 0 88 -22.5t34 -61.5q0 -53 -91 -94z" />
    <glyph glyph-name="four.subs" horiz-adv-x="349" 
d="M27 -44l-6 14l202 258l35 -4v-241h59v-27h-59v-40q0 -33 14.5 -43t43.5 -10v-22h-190v22q32 0 47 10t15 39v44h-161zM82 -15l2 -2h102v137z" />
    <glyph glyph-name="five.subs" horiz-adv-x="343" 
d="M116 154l-8 -93q33 19 77 19q49 0 85.5 -29t36.5 -80q0 -62 -46.5 -99.5t-117.5 -37.5q-41 0 -75 20t-34 55q0 20 12.5 32.5t32.5 12.5t31.5 -10t11.5 -27l-29 -41q17 -15 53 -15q40 0 60.5 30.5t20.5 75.5q0 77 -58 77q-40 0 -72 -36h-34l16 218q57 -18 110 -18
q58 0 106 23v-33q-44 -47 -134 -47q-25 0 -45 3z" />
    <glyph glyph-name="six.subs" horiz-adv-x="361" 
d="M200 227q49 0 78.5 -21.5t29.5 -47.5q0 -42 -45 -42q-19 0 -31.5 10t-12.5 28l26 30q-18 18 -45 18q-24 0 -43 -25.5t-28.5 -59.5t-12.5 -71q34 34 87 34q57 0 89 -31t32 -79q0 -64 -41.5 -100t-98.5 -36q-59 0 -100.5 44t-41.5 136q0 89 46 151t112 62zM245 -33
q0 83 -52 83q-20 0 -41.5 -17t-36.5 -48l1 1q0 -124 68 -124q61 0 61 105z" />
    <glyph glyph-name="seven.subs" horiz-adv-x="332" 
d="M108 -126q24 146 140 290q-19 -8 -52 -8q-15 0 -35 4q-30 5 -34 5q-42 0 -52 -72h-38l18 132h40l1 -5q18 7 38 7q23 0 49 -11q24 -11 41 -11q28 0 77 30l23 -25q-71 -88 -101 -156.5t-30 -180.5q0 -10 -1.5 -16t-11.5 -13t-29 -7q-46 0 -43 37z" />
    <glyph glyph-name="eight.subs" horiz-adv-x="349" 
d="M232 47v-4l-7 2q89 -29 89 -98q0 -52 -45 -82.5t-102 -30.5q-59 0 -95.5 25t-36.5 68q0 29 24 54.5t62 41.5l-6 -2v5l6 -2q-71 31 -71 95q0 45 37.5 76.5t93.5 31.5q53 0 85.5 -24t32.5 -62q0 -54 -72 -96zM232 136q0 27 -17.5 45.5t-42.5 18.5q-27 0 -43.5 -18
t-16.5 -42q0 -57 80 -81q40 24 40 77zM246 -66q0 54 -92 75q-55 -21 -54 -79q1 -33 21 -50.5t53 -17.5q30 0 51 19t21 53z" />
    <glyph glyph-name="nine.subs" horiz-adv-x="361" 
d="M160 -166q-49 0 -77.5 18.5t-28.5 42.5q0 45 43 45q20 0 32 -11t12 -29l-26 -26q15 -15 45 -15q37 0 59 45t24 110q-33 -33 -86 -33q-56 0 -88 34t-32 87q0 55 42.5 90t98.5 35q58 0 100 -44t42 -136q0 -98 -45.5 -155.5t-114.5 -57.5zM115 99q0 -88 54 -88q19 0 40.5 17
t35.5 48l-1 -1q0 124 -67 124q-31 0 -46.5 -27.5t-15.5 -72.5z" />
    <glyph glyph-name="uni2011.case" horiz-adv-x="408" 
d="M77 362h254v-69h-254v69z" />
    <glyph glyph-name="zero.onum.tnum" horiz-adv-x="624" 
d="M554 266q0 -129 -72 -203.5t-177 -74.5q-101 0 -168 71.5t-67 206.5q0 108 72 188t171 80q102 0 171.5 -70t69.5 -198zM447 266q0 224 -135 224q-69 0 -102.5 -63.5t-33.5 -160.5q0 -105 32 -169t102 -64q68 0 102.5 61.5t34.5 171.5z" />
    <glyph glyph-name="one.onum.tnum" horiz-adv-x="624" 
d="M134 450v41q118 7 198 39h40v-416q0 -40 30.5 -57.5t101.5 -17.5v-39h-366v39q77 4 107.5 19t30.5 56v321z" />
    <glyph glyph-name="two.onum.tnum" horiz-adv-x="624" 
d="M219 100l4 -12h179q31 0 54.5 21t31.5 55h37l-28 -164h-408l-14 58q3 2 39.5 24.5t65.5 41t71.5 51t71 62t49.5 65.5t21 69q0 63 -34.5 91t-82.5 28q-78 0 -102 -65l47 -66q0 -30 -18 -47t-47 -17q-30 0 -46 22.5t-16 60.5q0 69 57 112.5t135 43.5q98 0 156 -43.5
t58 -120.5q0 -29 -15.5 -59t-36.5 -52.5t-55.5 -48.5t-59.5 -41.5t-62.5 -37.5t-51.5 -31z" />
    <glyph glyph-name="three.onum.tnum" horiz-adv-x="624" 
d="M352 213l4 -11q74 -8 127.5 -55t53.5 -129q0 -95 -81.5 -145.5t-192.5 -50.5q-84 0 -140 35t-56 99q0 37 16.5 59.5t44.5 22.5t44 -20.5t16 -55.5l-43 -66q32 -32 111 -32q33 0 61.5 7.5t55 24t41.5 49t15 77.5q0 65 -31.5 100t-80.5 36.5t-109 -16.5l-14 42
q112 42 163.5 90t51.5 114q0 105 -117 105q-73 0 -115 -40l47 -81q0 -25 -17 -42.5t-42 -17.5q-27 0 -44 22.5t-17 59.5q0 66 63.5 103.5t143.5 37.5q91 0 148.5 -40.5t57.5 -109.5q0 -54 -46.5 -98t-118.5 -74z" />
    <glyph glyph-name="four.onum.tnum" horiz-adv-x="624" 
d="M53 44l-10 25l364 466l35 -5v-441h107v-45h-107v-75q0 -63 27 -82t79 -19v-34h-311v34q57 0 84.5 19t27.5 75v82h-296zM122 94l2 -5h222v287l-8 4z" />
    <glyph glyph-name="five.onum.tnum" horiz-adv-x="624" 
d="M164 225l8 -5q72 45 150 45q82 0 143.5 -51.5t61.5 -145.5q0 -112 -80.5 -179t-201.5 -67q-68 0 -125 36t-57 98q0 34 18 56t48 22q27 0 43.5 -18.5t16.5 -48.5l-49 -71q32 -32 111 -32q82 0 124.5 57t42.5 140q0 145 -126 145q-85 0 -141 -64h-35l30 383
q97 -28 199.5 -25.5t159.5 31.5v-49q-48 -53 -139 -71t-187 1z" />
    <glyph glyph-name="six.onum.tnum" horiz-adv-x="624" 
d="M345 701q81 0 129 -38t48 -85q0 -33 -16 -52.5t-46 -19.5q-28 0 -45.5 18t-17.5 50l45 53q-28 35 -97 35q-54 0 -95 -54t-59 -125t-19 -141l8 -4q59 93 170 93q96 0 149.5 -55.5t53.5 -143.5q0 -114 -71.5 -179t-168.5 -65q-46 0 -87 17.5t-77 54.5t-57 102t-21 152
q0 162 80 274.5t194 112.5zM445 227q0 157 -115 157q-43 0 -87 -31.5t-71 -88.5q0 -118 34.5 -174.5t107.5 -56.5q131 0 131 194z" />
    <glyph glyph-name="seven.onum.tnum" horiz-adv-x="624" 
d="M484 426l-10 10q-37 -24 -103 -24q-21 0 -63 8t-65 8q-47 0 -75.5 -35t-36.5 -98h-35l33 235h37l6 -22q42 27 83 27q34 0 84 -20.5t83 -20.5q69 0 136 46l30 -34q-66 -80 -104 -135.5t-73.5 -129.5t-50.5 -158t-15 -192q0 -13 -1.5 -21.5t-6.5 -19.5t-18 -17t-33 -6
q-69 0 -60 66q42 282 258 533z" />
    <glyph glyph-name="eight.onum.tnum" horiz-adv-x="624" 
d="M400 374v-6q149 -50 149 -177q0 -62 -38.5 -110t-94.5 -70.5t-118 -22.5q-100 0 -162 45t-62 122q0 55 42 101t106 72v9q-62 26 -91.5 72t-29.5 98q0 81 64 137.5t158 56.5q90 0 144.5 -43t54.5 -111q0 -100 -122 -173zM435 538q0 51 -36 85.5t-92 34.5
q-57 0 -92.5 -33.5t-35.5 -79.5q0 -54 44.5 -93t125.5 -61q86 46 86 147zM462 167q0 104 -189 144q-52 -18 -84.5 -56t-31.5 -95q1 -61 43.5 -94t109.5 -33q63 0 107.5 35.5t44.5 98.5z" />
    <glyph glyph-name="nine.onum.tnum" horiz-adv-x="624" 
d="M278 -178q-81 0 -128.5 33.5t-47.5 75.5q0 34 15.5 55.5t45.5 21.5q28 0 45.5 -20t17.5 -53l-45 -43q29 -31 97 -31q82 0 127 94.5t46 225.5l-8 4q-26 -43 -70.5 -68t-99.5 -25q-95 0 -149 61t-54 157q0 99 72.5 162t168.5 63q46 0 87 -17.5t77 -54.5t57 -102t21 -152
q0 -178 -78.5 -282.5t-196.5 -104.5zM178 305q0 -87 31.5 -126.5t84.5 -39.5q42 0 86.5 31.5t70.5 88.5q0 118 -34.5 175t-107.5 57q-66 0 -98.5 -51.5t-32.5 -134.5z" />
    <glyph glyph-name="Stroke.part" horiz-adv-x="430" 
d="M44 528h697v-46h-697v46z" />
    <glyph glyph-name="stroke.part" horiz-adv-x="430" 
d="M49 545h292v-50h-292v50z" />
    <glyph glyph-name="parenleft.case" horiz-adv-x="442" 
d="M371 -148l-29 -34q-241 220 -241 505q0 148 63 264t177 220l30 -39q-180 -183 -180 -445q0 -301 180 -471z" />
    <glyph glyph-name="parenright.case" horiz-adv-x="442" 
d="M100 -182l-29 34q180 170 180 471q0 262 -180 445l30 39q114 -104 177 -220t63 -264q0 -285 -241 -505z" />
    <glyph glyph-name="bracketleft.case" horiz-adv-x="425" 
d="M350 798v-48q-76 -15 -150 -5v-852q68 6 156 -6v-51q-40 6 -111.5 6.5t-122.5 -5.5v960q51 -5 123 -5t105 6z" />
    <glyph glyph-name="bracketright.case" horiz-adv-x="425" 
d="M75 750v48q33 -6 105 -6t123 5v-960q-51 6 -122.5 5.5t-111.5 -6.5v51q88 12 156 6v852q-74 -10 -150 5z" />
    <glyph glyph-name="braceleft.case" horiz-adv-x="525" 
d="M192 343v-16q63 -9 107 -51.5t44 -104.5q0 -27 -22.5 -95t-22.5 -108q0 -94 156 -94v-42q-137 0 -187.5 35t-50.5 111q0 37 21.5 103.5t21.5 97.5q0 59 -43.5 90t-114.5 31v66q67 0 112.5 35t45.5 82q0 35 -20.5 93.5t-20.5 91.5q0 71 51.5 100.5t178.5 29.5v-42
q-150 0 -150 -79q0 -39 22.5 -102t22.5 -87q0 -53 -43.5 -92.5t-107.5 -52.5z" />
    <glyph glyph-name="braceright.case" horiz-adv-x="525" 
d="M333 327v16q-64 13 -107.5 52.5t-43.5 92.5q0 24 22.5 87t22.5 102q0 79 -150 79v42q127 0 178.5 -29.5t51.5 -100.5q0 -33 -20.5 -91.5t-20.5 -93.5q0 -47 45.5 -82t112.5 -35v-66q-71 0 -114.5 -31t-43.5 -90q0 -31 21.5 -97.5t21.5 -103.5q0 -76 -50.5 -111
t-187.5 -35v42q156 0 156 94q0 40 -22.5 108t-22.5 95q0 62 44 104.5t107 51.5z" />
    <glyph glyph-name="dotaccent.case" horiz-adv-x="500" 
d="M185 564q0 27 18.5 46t45.5 19t46.5 -19t19.5 -46t-19.5 -45.5t-46.5 -18.5t-45.5 18.5t-18.5 45.5z" />
    <glyph glyph-name="acute.plk" horiz-adv-x="500" 
d="M220 498v8l36 164h89v-10l-79 -162h-46z" />
    <glyph glyph-name="acute.case.plk" horiz-adv-x="500" 
d="M223 488v8l36 129h89v-10l-79 -127h-46z" />
    <glyph glyph-name="Dotlessi" horiz-adv-x="449" 
d="M379 691v-39q-68 0 -85.5 -6.5t-17.5 -33.5v-528q0 -30 16.5 -37t86.5 -7v-40h-309v40q69 0 85.5 7t16.5 37v528q0 28 -17 34t-85 6v39h309z" />
    <glyph glyph-name="dotaccentlow" horiz-adv-x="500" 
d="M185 -126q0 27 18.5 46t45.5 19t46.5 -19t19.5 -46t-19.5 -45.5t-46.5 -18.5t-45.5 18.5t-18.5 45.5z" />
    <glyph glyph-name="acute.lchigh" horiz-adv-x="500" 
d="M190 468v8l86 129h94v-10l-129 -127h-51z" />
    <glyph glyph-name="parenleft.c2sc" horiz-adv-x="362" 
d="M308 -117l-29 -31q-200 166 -200 374q0 108 52 193t148 165l29 -36q-146 -135 -146 -322q0 -218 146 -343z" />
    <glyph glyph-name="parenright.c2sc" horiz-adv-x="362" 
d="M83 -148l-29 31q146 125 146 343q0 187 -146 322l29 36q96 -80 148 -165t52 -193q0 -208 -200 -374z" />
    <glyph glyph-name="bracketleft.c2sc" horiz-adv-x="349" 
d="M290 576v-44q-32 -7 -85 -7q-25 0 -35 1v-607h24q61 0 101 -5v-48q-41 6 -103 6q-55 0 -95 -5v708q40 -5 102 -5q65 0 91 6z" />
    <glyph glyph-name="bracketright.c2sc" horiz-adv-x="349" 
d="M59 532v44q26 -6 91 -6q62 0 102 5v-708q-40 5 -95 5q-63 0 -103 -6v48q40 5 101 5h24v607q-10 -1 -35 -1q-53 0 -85 7z" />
    <glyph glyph-name="braceleft.c2sc" horiz-adv-x="431" 
d="M164 235v-3q51 -8 86 -39.5t35 -77.5q0 -26 -16 -67q-20 -50 -20 -80q0 -64 126 -64v-40q-115 0 -158 26.5t-43 83.5q0 27 17 80q17 47 17 67q0 41 -35 62t-92 21v57q53 0 90 24t37 56q0 19 -17 66q-15 41 -15 69q0 54 44 76.5t150 22.5v-40q-121 0 -121 -52
q0 -25 21 -78q15 -39 15 -60q0 -40 -35 -70t-86 -40z" />
    <glyph glyph-name="braceright.c2sc" horiz-adv-x="431" 
d="M267 232v3q-51 10 -86 40t-35 70q0 21 15 60q21 53 21 78q0 52 -121 52v40q106 0 150 -22.5t44 -76.5q0 -28 -15 -69q-17 -47 -17 -66q0 -32 37 -56t90 -24v-57q-57 0 -92 -21t-35 -62q0 -20 17 -67q17 -53 17 -80q0 -57 -43 -83.5t-158 -26.5v40q126 0 126 64
q0 30 -20 80q-16 41 -16 67q0 46 35 77.5t86 39.5z" />
    <glyph glyph-name="quotesingle.c2sc" horiz-adv-x="326" 
d="M140 239l-25 305h96l-25 -305h-46z" />
    <glyph glyph-name="quotedbl.c2sc" horiz-adv-x="505" 
d="M140 239l-25 305h96l-25 -305h-46zM319 239l-25 305h96l-25 -305h-46z" />
    <glyph glyph-name="uni2032.c2sc" horiz-adv-x="310" 
d="M73 316l70 266l96 -34l-114 -250z" />
    <glyph glyph-name="uni2033.c2sc" horiz-adv-x="500" 
d="M73 316l70 266l96 -34l-114 -250zM263 316l70 266l96 -34l-114 -250z" />
    <glyph glyph-name="ampersand.c2sc" horiz-adv-x="691" 
d="M437 416q0 -19 -7.5 -35t-16.5 -27t-28 -23.5t-31 -18.5t-38 -18l-20 -9q61 -101 142 -171q32 42 49 99q-1 31 -84 31v42h219v-42q-62 0 -85 -45q-22 -60 -64 -114q42 -29 74 -29q23 0 31 11t8 39h39q0 -53 -23 -84.5t-63 -31.5q-51 0 -119 45q-63 -45 -138 -45
q-98 0 -147 42t-49 104q0 55 30.5 89.5t85.5 62.5q-30 65 -30 107q0 52 38 88t101 36q55 0 90.5 -29t35.5 -74zM382 64q-94 78 -155 180q-45 -37 -45 -93q0 -47 36 -77t86 -30q42 0 78 20zM252 409q0 -33 24 -84q81 41 81 93q0 26 -13 44.5t-39 18.5q-23 0 -38 -19.5
t-15 -52.5z" />
    <glyph glyph-name="asterisk.c2sc" horiz-adv-x="566" 
d="M306 373q49 -24 120 -44q35 -9 28 -40q-6 -27 -30 -36q-21 -7 -38 10q-63 66 -93 85q5 -56 25 -124q10 -32 -20 -43q-27 -9 -44 9q-13 13 -8 34q21 96 23 124q-47 -29 -93 -85q-20 -23 -46 -2q-24 19 -18 43q4 16 26 23q84 26 119 46q-51 22 -119 37q-30 5 -26 36
q4 28 27 36q18 7 35 -9q67 -60 95 -80q-7 52 -26 121q-10 34 21 45q28 9 47 -9q13 -14 7 -36q-2 -10 -9.5 -37t-11.5 -46t-6 -38q47 31 95 80q26 28 50 4q20 -21 12 -46q-7 -16 -24 -21q-9 -2 -28 -6.5t-30.5 -7.5t-28.5 -9t-31 -14z" />
    <glyph glyph-name="uni2042.c2sc" horiz-adv-x="986" 
d="M516 443q49 -24 120 -44q35 -9 28 -40q-6 -27 -30 -36q-21 -7 -38 10q-63 66 -93 85q5 -56 25 -124q10 -32 -20 -43q-27 -9 -44 9q-12 14 -8 34q21 96 23 124q-47 -29 -93 -85q-20 -23 -46 -2q-24 19 -18 43q4 16 26 23q84 26 119 46q-51 22 -119 37q-30 5 -26 36
q4 28 27 36q18 7 35 -9q67 -60 95 -80q-7 52 -26 121q-10 34 21 45q28 9 47 -9q13 -14 7 -36q-2 -10 -9.5 -37t-11.5 -46t-6 -38q47 31 95 80q26 28 50 4q20 -21 12 -46q-7 -16 -24 -21q-9 -2 -28 -6.5t-30.5 -7.5t-28.5 -9t-31 -14zM306 73q49 -24 120 -44q35 -9 28 -40
q-6 -27 -30 -36q-21 -7 -38 10q-63 66 -93 85q5 -56 25 -124q10 -32 -20 -43q-27 -9 -44 9q-13 13 -8 34q21 96 23 124q-47 -29 -93 -85q-20 -23 -46 -2q-24 19 -18 43q4 16 26 23q84 26 119 46q-51 22 -119 37q-30 5 -26 36q4 28 27 36q18 7 35 -9q67 -60 95 -80
q-7 52 -26 121q-10 34 21 45q28 9 47 -9q13 -14 7 -36q-2 -10 -9.5 -37t-11.5 -46t-6 -38q47 31 95 80q26 28 50 4q20 -21 12 -46q-6 -17 -24 -21q-9 -2 -28 -6.5t-30.5 -7.5t-28.5 -9t-31 -14zM726 73q49 -24 120 -44q35 -9 28 -40q-6 -27 -30 -36q-21 -7 -38 10
q-63 66 -93 85q5 -56 25 -124q10 -32 -20 -43q-27 -9 -44 9q-13 13 -8 34q21 96 23 124q-47 -29 -93 -85q-20 -23 -46 -2q-24 19 -18 43q4 16 26 23q84 26 119 46q-51 22 -119 37q-30 5 -26 36q4 28 27 36q18 7 35 -9q67 -60 95 -80q-7 52 -26 121q-10 34 21 45q28 9 47 -9
q13 -14 7 -36q-2 -10 -9.5 -37t-11.5 -46t-6 -38q47 31 95 80q26 28 50 4q20 -21 12 -46q-6 -17 -24 -21q-9 -2 -28 -6.5t-30.5 -7.5t-28.5 -9t-31 -14z" />
    <glyph glyph-name="slash.c2sc" horiz-adv-x="451" 
d="M385 542l-246 -630h-73l245 630h74z" />
    <glyph glyph-name="backslash.c2sc" horiz-adv-x="451" 
d="M312 -88l-246 630h74l245 -630h-73z" />
    <glyph glyph-name="at.c2sc" horiz-adv-x="743" 
d="M601 288q0 25 -7 50.5t-23 53t-48.5 44.5t-77.5 17q-114 0 -200.5 -109.5t-86.5 -239.5q0 -84 34 -125.5t96 -41.5q69 0 134 48l23 -38q-81 -58 -165 -58q-94 0 -142.5 56.5t-48.5 158.5q0 91 47.5 180.5t131.5 149.5t180 60q101 0 160.5 -56.5t59.5 -149.5
q0 -50 -18 -94.5t-45 -74t-60 -51t-63 -31.5t-54 -10q-36 0 -36 36q0 24 18 60l-4 2q-76 -99 -136 -99q-25 0 -39.5 19.5t-14.5 44.5q0 57 49 136q38 55 88 93.5t94 38.5q23 0 34 -20q5 11 12 15t25 4q20 0 26.5 -4t1.5 -14h1l-86 -240v1q-4 -17 5 -17q35 0 85 58.5
t50 146.5zM290 114q0 -28 15 -28q26 0 72.5 57t79.5 131v-1q8 44 -17 44q-26 0 -55 -24.5t-53 -62.5q-42 -68 -42 -116z" />
    <glyph glyph-name="section.c2sc" horiz-adv-x="483" 
d="M86 350q0 81 56.5 129.5t125.5 48.5q35 0 62.5 -16.5t27.5 -44.5q0 -16 -11.5 -25.5t-31.5 -9.5q-25 0 -45 22q-22 22 -39 22q-16 0 -26 -13.5t-10 -31.5q0 -20 13.5 -45.5t26 -42t41.5 -51.5q38 -45 58.5 -73t41.5 -75.5t21 -91.5q0 -78 -64.5 -127t-130.5 -49
q-39 0 -70.5 17.5t-31.5 48.5q0 16 12.5 26t33.5 10q25 0 42 -24q18 -24 44 -24q15 0 26.5 11t11.5 29q0 41 -21 78t-62 85q-34 42 -50 64.5t-33.5 66t-17.5 86.5zM321 -21q23 27 23 74q0 32 -19 72t-36.5 64.5t-51.5 67.5q-27 34 -42 55t-29 49.5t-13 49.5q-16 -28 -16 -56
q0 -48 25.5 -93t71.5 -101q59 -77 73 -109q17 -38 14 -73z" />
    <glyph glyph-name="paragraph.c2sc" horiz-adv-x="532" 
d="M469 522v-62h-46v-574h-59v574h-42v-574h-58v291q-102 1 -158 47t-56 126q0 78 56.5 125t146.5 47h216zM264 228v232q-40 -2 -65 -33.5t-25 -79.5q0 -51 23.5 -84t66.5 -35z" />
    <glyph glyph-name="registered.c2sc" horiz-adv-x="598" 
d="M85 393q0 88 63 151t151 63q91 0 152.5 -62.5t61.5 -151.5q0 -88 -63 -151t-151 -63q-89 0 -151.5 61t-62.5 153zM129 392q0 -76 48 -125.5t123 -49.5q70 0 119.5 50.5t49.5 124.5q0 77 -49 126.5t-121 49.5q-78 0 -124 -49.5t-46 -126.5zM332 398v-8q14 -6 38 -39.5
t37 -42.5l15 -7v-20h-55q-14 10 -41.5 52t-47.5 50h-13v-75l37 -7v-20h-114v20l27 7v183l-27 7v20h116q29 0 57 -14t28 -48q0 -20 -15.5 -36.5t-41.5 -21.5zM265 491v-82h26q23 0 34.5 13.5t11.5 31.5q0 37 -40 37h-32z" />
    <glyph glyph-name="copyright.c2sc" horiz-adv-x="865" 
d="M93 282q0 138 100.5 238t239.5 100q144 0 241.5 -99t97.5 -239q0 -143 -99.5 -242t-239.5 -99q-142 0 -241 96.5t-99 244.5zM153 279q0 -122 79 -203.5t203 -81.5q123 0 199.5 81t76.5 204q0 125 -79 208t-199 83q-122 0 -201 -83.5t-79 -207.5zM442 138q45 0 70.5 19.5
t39.5 62.5h28v-82q-67 -43 -140 -43q-82 0 -137 50t-55 138q0 84 55 135t137 51q67 0 136 -37v-85h-30q-16 46 -42.5 64t-63.5 18q-51 0 -81.5 -35t-30.5 -110q0 -71 34.5 -108.5t79.5 -37.5z" />
    <glyph glyph-name="uni2117.c2sc" horiz-adv-x="865" 
d="M93 282q0 138 100.5 238t239.5 100q144 0 241.5 -99t97.5 -239t-100 -240.5t-239 -100.5q-142 0 -241 96.5t-99 244.5zM153 279q0 -122 79 -203.5t203 -81.5q123 0 199.5 81t76.5 204q0 125 -79 208t-199 83q-122 0 -201 -83.5t-79 -207.5zM457 251h-41v-119l50 -8v-27
h-176v27l47 8v299l-47 8v26h169q56 0 98 -26.5t42 -80.5q0 -49 -38 -78t-104 -29zM416 425v-136h45q23 0 40.5 18t17.5 47q0 71 -62 71h-41z" />
    <glyph glyph-name="trademark.c2sc" horiz-adv-x="760" 
d="M580 484h-7l-78 -179h-17l-74 179h-5l-15 -150l33 -6v-23h-92v23l33 6l19 193l-38 6v23h94l62 -165h7l71 165h92v-23l-35 -6l12 -193l31 -6v-23h-118v23l34 6zM100 556h210l14 -74h-20l-32 47h-38v-195l32 -6v-23h-121v23l32 6v195h-37l-32 -47h-21z" />
    <glyph glyph-name="zero.c2sc" horiz-adv-x="535" 
d="M476 249q0 -124 -60 -191t-150 -67q-92 0 -149.5 62.5t-57.5 195.5q0 128 59 199t148 71q90 0 150 -70.5t60 -199.5zM368 249q0 123 -21.5 175.5t-80.5 52.5q-57 0 -78.5 -52.5t-21.5 -175.5q0 -122 19.5 -169t80.5 -47t81.5 47t20.5 169z" />
    <glyph glyph-name="one.c2sc" horiz-adv-x="444" 
d="M77 443v40q97 3 165 28h45v-424q0 -28 24.5 -40.5t81.5 -12.5v-34h-313v34q62 3 86 13.5t24 39.5v345q-21 1 -62 5.5t-51 5.5z" />
    <glyph glyph-name="two.c2sc" horiz-adv-x="518" 
d="M177 79l2 -5h167q21 0 36.5 23.5t21.5 62.5h56l-26 -160h-369l-14 42l36 28q243 179 243 303q0 54 -28.5 79t-67.5 25q-66 0 -92 -53l49 -63q0 -28 -17.5 -44.5t-46.5 -16.5q-32 0 -48 19t-16 51q0 66 53.5 107.5t126.5 41.5q89 0 141.5 -39.5t52.5 -107.5q0 -32 -18 -66
t-53 -68.5t-63 -58t-70 -54.5q-54 -45 -56 -46z" />
    <glyph glyph-name="three.c2sc" horiz-adv-x="507" 
d="M297 278v-2q61 -8 104.5 -43t43.5 -95q0 -71 -68.5 -109t-161.5 -38q-72 0 -120 26.5t-48 75.5q0 29 16 47t43 18t43 -16t16 -44l-34 -47q25 -20 78 -20q54 0 91.5 25t37.5 85q0 48 -25 71.5t-67 23.5q-29 0 -82 -15l-16 40q92 30 133.5 64.5t41.5 81.5q0 72 -85 72
q-45 0 -83 -26l38 -58q0 -20 -16 -34t-41 -14q-26 0 -42 17.5t-16 46.5q0 51 53.5 79.5t121.5 28.5q78 0 127 -31t49 -83q0 -39 -37 -71.5t-95 -55.5z" />
    <glyph glyph-name="four.c2sc" horiz-adv-x="521" 
d="M48 152l-10 25l298 343l43 -6v-319h86v-43h-86v-49q0 -43 22 -56t63 -13v-34h-270v34q46 0 68.5 13t22.5 51v54h-237zM123 195h160v190z" />
    <glyph glyph-name="five.c2sc" horiz-adv-x="512" 
d="M170 418q-2 -19 -5.5 -62t-5.5 -62q56 29 117 29q70 0 122 -39t52 -109q0 -83 -67 -133.5t-169 -50.5q-58 0 -107 27.5t-49 74.5q0 28 17 45t46 17q26 0 42 -15t16 -39l-40 -50q25 -20 80 -20q61 0 92.5 40.5t31.5 98.5q0 100 -91 100q-63 0 -109 -46h-43l26 290
q79 -22 154 -22q88 0 153 30v-46q-62 -63 -191 -63q-43 0 -72 5z" />
    <glyph glyph-name="six.c2sc" horiz-adv-x="538" 
d="M297 519q70 0 111.5 -29t41.5 -65q0 -27 -15 -42.5t-45 -15.5q-27 0 -43.5 14.5t-16.5 40.5l36 37q-20 22 -69 22q-38 0 -67 -35t-43.5 -82t-17.5 -96q50 55 133 55q81 0 127 -41.5t46 -107.5q0 -85 -60.5 -134t-142.5 -49q-84 0 -144 59t-60 182q0 120 66.5 203.5
t162.5 83.5zM368 170q0 109 -83 109q-30 0 -62.5 -22t-53.5 -61q3 -163 104 -163q95 0 95 137z" />
    <glyph glyph-name="seven.c2sc" horiz-adv-x="495" 
d="M167 49q32 199 205 384q-29 -13 -79 -13q-19 0 -53 6q-32 6 -50 6q-68 0 -81 -98h-48l28 181h49l2 -11q32 15 60 15q29 0 71 -16q36 -15 64 -15q48 0 110 38l33 -33q-53 -57 -84 -97.5t-59.5 -94t-40.5 -115t-12 -140.5q0 -14 -2 -23t-15.5 -18.5t-39.5 -9.5
q-32 0 -47 13.5t-11 40.5z" />
    <glyph glyph-name="eight.c2sc" horiz-adv-x="521" 
d="M341 276v-1q120 -36 120 -132q0 -69 -65 -110.5t-147 -41.5q-84 0 -136.5 34.5t-52.5 92.5q0 40 34.5 73.5t87.5 53.5l-3 1q-48 22 -73 57t-25 70q0 61 54.5 103.5t134.5 42.5q77 0 123 -32.5t46 -84.5q0 -72 -98 -126zM350 395q0 35 -26.5 59t-66.5 24q-42 0 -67.5 -23
t-25.5 -55q0 -71 125 -106q61 33 61 101zM372 127q0 72 -141 99q-88 -28 -85 -105q1 -42 32 -65t81 -23q47 0 80 25t33 69z" />
    <glyph glyph-name="nine.c2sc" horiz-adv-x="538" 
d="M239 -9q-70 0 -111 26t-41 59q0 27 15.5 43.5t43.5 16.5q27 0 44 -16t17 -43l-35 -30q22 -18 67 -18q57 0 90.5 62.5t37.5 149.5q-51 -54 -132 -54t-127 45.5t-46 117.5q0 74 61.5 121.5t142.5 47.5q83 0 143.5 -59t60.5 -182q0 -132 -65.5 -209.5t-165.5 -77.5zM169 347
q0 -116 83 -116q30 0 62.5 22t53.5 61q-3 163 -104 163q-48 0 -71.5 -35.5t-23.5 -94.5z" />
    <glyph glyph-name="zero.c2sc.tnum" horiz-adv-x="552" 
d="M484 249q0 -124 -60 -191t-150 -67q-92 0 -149.5 62.5t-57.5 195.5q0 128 59 199t148 71q90 0 150 -70.5t60 -199.5zM376 249q0 123 -21.5 175.5t-80.5 52.5q-57 0 -78.5 -52.5t-21.5 -175.5q0 -122 19.5 -169t80.5 -47t81.5 47t20.5 169z" />
    <glyph glyph-name="one.c2sc.tnum" horiz-adv-x="441" 
d="M72 443v40q97 3 165 28h45v-424q0 -28 24.5 -40.5t81.5 -12.5v-34h-313v34q62 3 86 13.5t24 39.5v345q-21 1 -62 5.5t-51 5.5z" />
    <glyph glyph-name="two.c2sc.tnum" horiz-adv-x="532" 
d="M180 79l2 -5h167q21 0 36.5 23.5t21.5 62.5h56l-26 -160h-369l-14 42l36 28q243 179 243 303q0 54 -28.5 79t-67.5 25q-66 0 -92 -53l49 -63q0 -28 -17.5 -44.5t-46.5 -16.5q-32 0 -48 19t-16 51q0 66 53.5 107.5t126.5 41.5q89 0 141.5 -39.5t52.5 -107.5q0 -32 -18 -66
t-53 -68.5t-63 -58t-70 -54.5q-54 -45 -56 -46z" />
    <glyph glyph-name="three.c2sc.tnum" horiz-adv-x="518" 
d="M306 278v-2q61 -8 104.5 -43t43.5 -95q0 -71 -68.5 -109t-161.5 -38q-72 0 -120 26.5t-48 75.5q0 29 16 47t43 18t43 -16t16 -44l-34 -47q25 -20 78 -20q54 0 91.5 25t37.5 85q0 48 -25 71.5t-67 23.5q-29 0 -82 -15l-16 40q92 30 133.5 64.5t41.5 81.5q0 72 -85 72
q-45 0 -83 -26l38 -58q0 -20 -16 -34t-41 -14q-26 0 -42 17.5t-16 46.5q0 51 53.5 79.5t121.5 28.5q78 0 127 -31t49 -83q0 -39 -37 -71.5t-95 -55.5z" />
    <glyph glyph-name="four.c2sc.tnum" horiz-adv-x="535" 
d="M54 152l-10 25l298 343l43 -6v-319h86v-43h-86v-49q0 -43 22 -56t63 -13v-34h-270v34q46 0 68.5 13t22.5 51v54h-237zM129 195h160v190z" />
    <glyph glyph-name="five.c2sc.tnum" horiz-adv-x="524" 
d="M171 418q-2 -19 -5.5 -62t-5.5 -62q56 29 117 29q70 0 122 -39t52 -109q0 -83 -67 -133.5t-169 -50.5q-58 0 -107 27.5t-49 74.5q0 28 17 45t46 17q26 0 42 -15t16 -39l-40 -50q25 -20 80 -20q61 0 92.5 40.5t31.5 98.5q0 100 -91 100q-63 0 -109 -46h-43l26 290
q79 -22 154 -22q88 0 153 30v-46q-62 -63 -191 -63q-43 0 -72 5z" />
    <glyph glyph-name="six.c2sc.tnum" horiz-adv-x="555" 
d="M302 519q70 0 111.5 -29t41.5 -65q0 -27 -15 -42.5t-45 -15.5q-27 0 -43.5 14.5t-16.5 40.5l36 37q-20 22 -69 22q-38 0 -67 -35t-43.5 -82t-17.5 -96q50 55 133 55q81 0 127 -41.5t46 -107.5q0 -85 -60.5 -134t-142.5 -49q-84 0 -144 59t-60 182q0 120 66.5 203.5
t162.5 83.5zM373 170q0 109 -83 109q-30 0 -62.5 -22t-53.5 -61q3 -163 104 -163q95 0 95 137z" />
    <glyph glyph-name="seven.c2sc.tnum" horiz-adv-x="504" 
d="M170 49q32 199 205 384q-29 -13 -79 -13q-19 0 -53 6q-32 6 -50 6q-68 0 -81 -98h-48l28 181h49l2 -11q32 15 60 15q29 0 71 -16q36 -15 64 -15q48 0 110 38l33 -33q-53 -57 -84 -97.5t-59.5 -94t-40.5 -115t-12 -140.5q0 -14 -2 -23t-15.5 -18.5t-39.5 -9.5
q-32 0 -47 13.5t-11 40.5z" />
    <glyph glyph-name="eight.c2sc.tnum" horiz-adv-x="535" 
d="M347 276v-1q120 -36 120 -132q0 -69 -65 -110.5t-147 -41.5q-84 0 -136.5 34.5t-52.5 92.5q0 40 34.5 73.5t87.5 53.5l-3 1q-48 22 -73 57t-25 70q0 61 54.5 103.5t134.5 42.5q77 0 123 -32.5t46 -84.5q0 -72 -98 -126zM356 395q0 35 -26.5 59t-66.5 24q-42 0 -67.5 -23
t-25.5 -55q0 -71 125 -106q61 33 61 101zM378 127q0 72 -141 99q-88 -28 -85 -105q1 -42 32 -65t81 -23q47 0 80 25t33 69z" />
    <glyph glyph-name="nine.c2sc.tnum" horiz-adv-x="556" 
d="M250 -9q-70 0 -111 26t-41 59q0 27 15.5 43.5t43.5 16.5q27 0 44 -16t17 -43l-35 -30q22 -18 67 -18q57 0 90.5 62.5t37.5 149.5q-51 -54 -132 -54t-127 45.5t-46 117.5q0 74 61.5 121.5t142.5 47.5q83 0 143.5 -59t60.5 -182q0 -132 -65.5 -209.5t-165.5 -77.5zM180 347
q0 -116 83 -116q30 0 62.5 22t53.5 61q-3 163 -104 163q-48 0 -71.5 -35.5t-23.5 -94.5z" />
    <glyph glyph-name="dollar.c2sc" horiz-adv-x="530" 
d="M149 47l-12 -35h-36l-5 162h34q14 -58 41.5 -89.5t73.5 -41.5v178q-3 0 -7 2q-74 22 -109 56t-35 88q0 58 42.5 93t102.5 35h6v67h43v-72q44 -10 84 -36l13 26h34l2 -141h-33q-32 93 -100 116v-167q12 -4 19 -5q84 -23 116.5 -55t32.5 -86q0 -60 -45.5 -99t-116.5 -39h-6
v-75h-43v79q-56 10 -96 39zM394 118q0 27 -23 47t-83 42v-168h5q49 0 75 23t26 56zM158 384q0 -51 87 -83v161h-5q-38 0 -60 -23.5t-22 -54.5z" />
    <glyph glyph-name="cent.c2sc" horiz-adv-x="483" 
d="M397 179l32 -11q-17 -59 -57.5 -95t-97.5 -37v-96h-38v98q-74 10 -120.5 63.5t-46.5 150.5q0 87 47.5 148t119.5 74v92h38v-89q57 -2 99 -33.5t42 -76.5q0 -31 -13.5 -47.5t-36.5 -16.5q-25 0 -39.5 17.5t-13.5 43.5l24 39q-13 37 -62 37v-356h13q41 0 70 27t40 68z
M158 264q0 -136 78 -171v341q-78 -28 -78 -170z" />
    <glyph glyph-name="sterling.c2sc" horiz-adv-x="526" 
d="M83 283h62q-22 49 -22 83q0 64 47.5 99t109.5 35q66 0 104 -29t38 -58q0 -18 -11.5 -29t-25.5 -11q-12 0 -22 7t-14.5 14.5t-12.5 22.5q-8 16 -13.5 24.5t-17 16.5t-25.5 8q-29 0 -48.5 -21.5t-19.5 -63.5q0 -28 19 -74q6 -16 10 -24h123v-40h-111q2 -18 2 -28
q0 -81 -43 -119l3 -4q16 11 41 11q34 0 74 -38q34 -30 58 -30q28 0 28 23q0 9 -14 21q-18 14 -18 33q0 12 8.5 21t24.5 9q49 0 49 -60q0 -43 -32.5 -67t-74.5 -24q-56 0 -105 22t-72 47h-1q-42 -69 -87 -69q-27 0 -27 22t28.5 41.5t68.5 31.5q15 35 15 87q0 29 -16 70h-80
v40z" />
    <glyph glyph-name="yen.c2sc" horiz-adv-x="541" 
d="M517 470v-32q-55 0 -88 -52q-18 -29 -51 -84l-45 -75h101v-39h-112v-35h112v-39h-112v-26q0 -37 14 -46t63 -9v-33h-235v33q53 0 64 8t11 47v26h-115v39h115v35h-115v39h102q-14 21 -49.5 73t-53.5 80q-28 35 -45.5 46.5t-52.5 11.5v32h223v-32q-57 0 -57 -17
q0 -9 12 -24l98 -146l88 146q12 17 2 29t-40 12v32h166z" />
    <glyph glyph-name="Euro.c2sc" horiz-adv-x="570" 
d="M77 299h53q16 92 75 146.5t139 54.5q86 0 161 -49l-29 -103h-29q2 60 -31 86.5t-72 26.5q-48 0 -82.5 -41t-44.5 -121h251l-12 -39h-243v-25v-10h233l-11 -39h-219q10 -74 46 -114t80 -40q89 0 120 95l39 -12q-43 -124 -167 -124q-80 0 -137 51t-70 144h-61l11 39h47v9
v26h-58z" />
    <glyph glyph-name="numbersign.c2sc" horiz-adv-x="459" 
d="M91 379l79 -10l35 153l49 -5l-35 -154l70 -8l38 167l51 -5l-39 -168l83 -10l-5 -50l-89 10l-26 -112l73 -8l-6 -51l-79 10l-37 -164l-49 5l37 165l-71 8l-40 -178l-50 5l41 179l-83 11l5 49l89 -11l26 113l-73 9zM207 314l-25 -113l70 -8l26 112z" />
    <glyph glyph-name="percent.c2sc" horiz-adv-x="494" 
d="M300 407q-26 0 -39 12q-2 -60 -37.5 -98t-82.5 -38q-39 0 -64.5 27t-25.5 69q0 55 39 95.5t84 40.5q58 0 81 -52q9 -23 50 -23q36 0 66 20q19 51 47 51q8 0 15.5 -5.5t7.5 -14.5q0 -12 -11.5 -25t-26.5 -22v1q-25 -35 -76.5 -105.5t-76.5 -105.5l-176 -249l-31 22
l182 246l110 161q-19 -7 -35 -7zM232 86q0 56 39 97t84 41q38 0 62.5 -24t24.5 -65q0 -64 -36.5 -103.5t-81.5 -39.5q-41 0 -66.5 26.5t-25.5 67.5zM188 476q-26 0 -48.5 -37t-22.5 -80q0 -41 32 -41q26 0 47 30t21 86q0 20 -8.5 31t-20.5 11zM368 185q-26 0 -47.5 -37.5
t-21.5 -81.5q0 -18 8.5 -28.5t20.5 -10.5q26 0 48 29.5t22 85.5q0 43 -30 43z" />
    <glyph glyph-name="perthousand.c2sc" horiz-adv-x="722" 
d="M302 407q-26 0 -39 12q-2 -60 -37.5 -98t-82.5 -38q-39 0 -64.5 27t-25.5 69q0 55 39 95.5t84 40.5q58 0 81 -52q9 -23 50 -23q36 0 66 20q19 51 47 51q8 0 15.5 -5.5t7.5 -14.5q0 -12 -11.5 -25t-26.5 -22v1q-25 -35 -76.5 -105.5t-76.5 -105.5l-176 -249l-31 22
l182 246l110 161q-19 -7 -35 -7zM234 86q0 56 39 97t84 41q38 0 62.5 -24t24.5 -65q0 -64 -36.5 -103.5t-81.5 -39.5q-41 0 -66.5 26.5t-25.5 67.5zM461 86q0 56 38.5 97t82.5 41q40 0 64 -24t24 -65q0 -64 -36.5 -103.5t-81.5 -39.5q-41 0 -66 26.5t-25 67.5zM190 476
q-26 0 -48.5 -37t-22.5 -80q0 -41 32 -41q26 0 47 30t21 86q0 20 -8.5 31t-20.5 11zM597 185q-26 0 -48.5 -37.5t-22.5 -81.5q0 -18 9 -28.5t22 -10.5q26 0 47.5 29.5t21.5 85.5q0 21 -8.5 32t-20.5 11zM370 185q-26 0 -47.5 -37.5t-21.5 -81.5q0 -18 8.5 -28.5t20.5 -10.5
q26 0 48 29.5t22 85.5q0 43 -30 43z" />
    <glyph glyph-name="ordfeminine.c2sc" horiz-adv-x="421" 
d="M275 271l-24 49h-110l-14 -30l-7 -18q0 -12 48 -12v-25h-140v25q38 0 53 23q17 38 56 123t59 130h23l125 -256q13 -20 50 -20v-25h-163v25h23q15 0 19 2.5t2 8.5zM194 435l-40 -87h83z" />
    <glyph glyph-name="ordmasculine.c2sc" horiz-adv-x="431" 
d="M385 383q0 -65 -50 -109.5t-120 -44.5q-72 0 -120.5 43.5t-48.5 110.5t48.5 110.5t120.5 43.5q70 0 120 -44t50 -110zM308 383q0 126 -93 126q-91 0 -91 -126q0 -127 91 -127q46 0 69.5 34t23.5 93z" />
    <glyph glyph-name="degree.c2sc" horiz-adv-x="417" 
d="M65 414q0 59 42 101.5t101 42.5t101.5 -42.5t42.5 -101.5t-42.5 -101t-101.5 -42q-58 0 -100.5 42.5t-42.5 100.5zM125 414q0 -39 22.5 -65.5t59.5 -26.5t60.5 26.5t23.5 65.5t-23.5 66.5t-60.5 27.5t-59.5 -27.5t-22.5 -66.5z" />
    <glyph glyph-name="exclam.c2sc" horiz-adv-x="350" 
d="M226 449l-3 -22q-25 -153 -25 -270h-44q0 181 -29 292q-7 32 5.5 58t46.5 26q64 0 49 -84zM118 48q0 23 16.5 39t41.5 16q23 0 40 -16t17 -39q0 -22 -17 -38.5t-40 -16.5q-25 0 -41.5 16t-16.5 39z" />
    <glyph glyph-name="exclamdown.c2sc" horiz-adv-x="350" 
d="M124 77l3 22q25 153 25 270h44q0 -181 29 -292q7 -32 -5.5 -58t-46.5 -26q-64 0 -49 84zM232 478q0 -23 -16.5 -39t-41.5 -16q-23 0 -40 16t-17 39q0 22 17 38.5t40 16.5q25 0 41.5 -16t16.5 -39z" />
    <glyph glyph-name="question.c2sc" horiz-adv-x="468" 
d="M147 311l14 9q47 -22 91 -22q40 0 63.5 24.5t23.5 63.5q0 40 -33.5 73t-86.5 33q-31 0 -42 -11q2 -5 6.5 -14t8 -16.5t7.5 -13.5q0 -18 -14 -30t-36 -12q-21 0 -34.5 13.5t-13.5 38.5q0 37 31 61.5t82 24.5q74 0 128 -47t54 -118q0 -65 -36 -107t-92 -42q-51 0 -72 13
q0 -12 -1 -38t-1 -37h-43zM114 48q0 23 16.5 39t41.5 16q24 0 41.5 -16t17.5 -39q0 -22 -17.5 -38.5t-41.5 -16.5q-25 0 -41.5 16t-16.5 39z" />
    <glyph glyph-name="questiondown.c2sc" horiz-adv-x="468" 
d="M321 215l-14 -9q-47 22 -91 22q-40 0 -63.5 -24.5t-23.5 -63.5q0 -40 33.5 -73t86.5 -33q31 0 42 11l-22 44q0 18 14 30t36 12q21 0 34.5 -13.5t13.5 -38.5q0 -37 -31 -61.5t-82 -24.5q-74 0 -128 47t-54 118q0 65 36 107t92 42q51 0 72 -13q0 12 1 38t1 37h43zM354 478
q0 -23 -16.5 -39t-41.5 -16q-24 0 -41.5 16t-17.5 39q0 22 17.5 38.5t41.5 16.5q25 0 41.5 -16t16.5 -39z" />
    <glyph glyph-name="quoteleft.c2sc" horiz-adv-x="308" 
d="M220 368q0 -24 -18 -39t-49 -15q-33 0 -55 21.5t-22 55.5q0 94 106 164l27 -34q-84 -56 -79 -124q20 15 42 15q20 0 34 -11.5t14 -32.5z" />
    <glyph glyph-name="quoteright.c2sc" horiz-adv-x="308" 
d="M88 491q0 24 18 39t49 15q33 0 55 -21.5t22 -55.5q0 -94 -106 -164l-27 34q84 56 79 124q-20 -15 -42 -15q-20 0 -34 11.5t-14 32.5z" />
    <glyph glyph-name="quotedblleft.c2sc" horiz-adv-x="528" 
d="M220 368q0 -24 -18 -39t-49 -15q-33 0 -55 21.5t-22 55.5q0 94 106 164l27 -34q-84 -56 -79 -124q20 15 42 15q20 0 34 -11.5t14 -32.5zM440 368q0 -24 -18 -39t-49 -15q-33 0 -55 21.5t-22 55.5q0 94 106 164l27 -34q-84 -56 -79 -124q20 15 42 15q20 0 34 -11.5
t14 -32.5z" />
    <glyph glyph-name="quotedblright.c2sc" horiz-adv-x="528" 
d="M308 491q0 24 18 39t49 15q33 0 55 -21.5t22 -55.5q0 -94 -106 -164l-27 34q84 56 79 124q-20 -15 -42 -15q-20 0 -34 11.5t-14 32.5zM88 491q0 24 18 39t49 15q33 0 55 -21.5t22 -55.5q0 -94 -106 -164l-27 34q84 56 79 124q-20 -15 -42 -15q-20 0 -34 11.5t-14 32.5z
" />
    <glyph glyph-name="Iacute_Jacute" horiz-adv-x="1062" 
d="M379 691v-39q-68 0 -85.5 -6.5t-17.5 -33.5v-528q0 -30 16.5 -37t86.5 -7v-40h-309v40q69 0 85.5 7t16.5 37v528q0 28 -17 34t-85 6v39h309zM164 747v8l86 129h94v-10l-129 -127h-51zM1009 691v-39q-65 0 -84 -14t-19 -73v-370q0 -62 -20.5 -105.5t-54 -64t-66 -29
t-67.5 -8.5q-76 0 -128.5 39t-52.5 116q0 41 21.5 68.5t52.5 27.5q67 0 67 -90l-82 -49q5 -33 35 -53t79 -20q59 0 86 38.5t27 123.5v375q0 60 -18.5 74t-83.5 14v39h308zM790 747v8l86 129h94v-10l-129 -127h-51z" />
    <glyph glyph-name="iacute_jacute" horiz-adv-x="923" 
d="M339 510v-38q-53 0 -66 -4t-13 -20v-382q0 -18 12.5 -22.5t66.5 -4.5v-39h-256v39q52 0 65 4.5t13 22.5v382q0 17 -13 20.5t-65 3.5v38h256zM146 570v8l86 164h94v-10l-129 -162h-51zM867 510v-38q-49 0 -64 -9.5t-15 -48.5v-271q0 -46 -16.5 -78.5t-43.5 -48t-53.5 -22
t-54.5 -6.5q-63 0 -105.5 29.5t-42.5 88.5q0 32 19 53t48 21q60 0 60 -71l-62 -36q8 -47 77 -47q40 0 58 27t18 86v274q0 40 -14 49.5t-64 9.5v38h255zM675 570v8l86 164h94v-10l-129 -162h-51z" />
    <glyph glyph-name="hyphen.c2sc" horiz-adv-x="408" 
d="M77 272h254v-69h-254v69z" />
    <glyph glyph-name="endash.c2sc" horiz-adv-x="578" 
d="M86 272h406v-69h-406v69z" />
    <glyph glyph-name="emdash.c2sc" horiz-adv-x="1090" 
d="M131 267h828v-59h-828v59z" />
    <glyph glyph-name="twosevenths" 
d="M173 -14l241 370l223 353l40 -26l-234 -349l-231 -375zM123 365l2 -7h110q25 0 35 66h45l-17 -117h-259l-8 29l24 20q31 26 49 43t50.5 51t49 68.5t16.5 66.5q0 42 -18 61t-43 19q-39 0 -61 -43l35 -48q0 -19 -13.5 -30.5t-34.5 -11.5q-22 0 -34 14t-12 37q0 49 37 79.5
t89 30.5q62 0 98.5 -29t36.5 -80q0 -24 -12 -49t-36.5 -51t-43 -43t-48.5 -42q-27 -22 -40 -35zM544 24q24 146 140 290q-19 -8 -52 -8q-15 0 -35 4q-30 5 -34 5q-42 0 -52 -72h-38l18 132h40l1 -5q18 7 38 7q23 0 49 -11q24 -11 41 -11q28 0 77 30l23 -25
q-71 -88 -101 -156.5t-30 -180.5q0 -10 -1.5 -16t-11.5 -13t-29 -7q-46 0 -43 37z" />
    <glyph glyph-name="twoninths" 
d="M173 -14l241 370l223 353l40 -26l-234 -349l-231 -375zM123 365l2 -7h110q25 0 35 66h45l-17 -117h-259l-8 29l24 20q31 26 49 43t50.5 51t49 68.5t16.5 66.5q0 42 -18 61t-43 19q-39 0 -61 -43l35 -48q0 -19 -13.5 -30.5t-34.5 -11.5q-22 0 -34 14t-12 37q0 49 37 79.5
t89 30.5q62 0 98.5 -29t36.5 -80q0 -24 -12 -49t-36.5 -51t-43 -43t-48.5 -42q-27 -22 -40 -35zM596 -16q-49 0 -77.5 18.5t-28.5 42.5q0 45 43 45q20 0 32 -11t12 -29l-26 -26q15 -15 45 -15q37 0 59 45t24 110q-33 -33 -86 -33q-56 0 -88 34t-32 87q0 55 42.5 90t98.5 35
q58 0 100 -44t42 -136q0 -98 -45.5 -155.5t-114.5 -57.5zM551 249q0 -88 54 -88q19 0 40.5 17t35.5 48l-1 -1q0 124 -67 124q-31 0 -46.5 -27.5t-15.5 -72.5z" />
    <glyph glyph-name="threesevenths" 
d="M173 -14l241 370l223 353l40 -26l-234 -349l-231 -375zM231 515l3 -5q42 -6 70.5 -31.5t28.5 -69.5q0 -53 -47.5 -81t-111.5 -28q-51 0 -84 19.5t-33 55.5q0 21 11.5 34t30.5 13q43 0 43 -43l-24 -38q17 -14 52 -14t59.5 19t24.5 65q0 73 -59 73q-17 0 -61 -14l-8 29
q61 23 89 49.5t28 62.5q0 55 -53 55q-35 0 -55 -19q18 -29 27 -46q0 -15 -12 -24.5t-30 -9.5q-19 0 -31 13t-12 34q0 37 37.5 58t85.5 21q54 0 88 -22.5t34 -61.5q0 -53 -91 -94zM544 24q24 146 140 290q-19 -8 -52 -8q-15 0 -35 4q-30 5 -34 5q-42 0 -52 -72h-38l18 132h40
l1 -5q18 7 38 7q23 0 49 -11q24 -11 41 -11q28 0 77 30l23 -25q-71 -88 -101 -156.5t-30 -180.5q0 -10 -1.5 -16t-11.5 -13t-29 -7q-46 0 -43 37z" />
    <glyph glyph-name="foursevenths" 
d="M173 -14l241 370l223 353l40 -26l-234 -349l-231 -375zM14 422l-6 14l202 258l35 -4v-241h59v-27h-59v-40q0 -33 14.5 -43t43.5 -10v-22h-190v22q32 0 47 10t15 39v44h-161zM69 451l2 -2h102v137zM544 24q24 146 140 290q-19 -8 -52 -8q-15 0 -35 4q-30 5 -34 5
q-42 0 -52 -72h-38l18 132h40l1 -5q18 7 38 7q23 0 49 -11q24 -11 41 -11q28 0 77 30l23 -25q-71 -88 -101 -156.5t-30 -180.5q0 -10 -1.5 -16t-11.5 -13t-29 -7q-46 0 -43 37z" />
    <glyph glyph-name="fourninths" 
d="M173 -14l241 370l223 353l40 -26l-234 -349l-231 -375zM14 422l-6 14l202 258l35 -4v-241h59v-27h-59v-40q0 -33 14.5 -43t43.5 -10v-22h-190v22q32 0 47 10t15 39v44h-161zM69 451l2 -2h102v137zM596 -16q-49 0 -77.5 18.5t-28.5 42.5q0 45 43 45q20 0 32 -11t12 -29
l-26 -26q15 -15 45 -15q37 0 59 45t24 110q-33 -33 -86 -33q-56 0 -88 34t-32 87q0 55 42.5 90t98.5 35q58 0 100 -44t42 -136q0 -98 -45.5 -155.5t-114.5 -57.5zM551 249q0 -88 54 -88q19 0 40.5 17t35.5 48l-1 -1q0 124 -67 124q-31 0 -46.5 -27.5t-15.5 -72.5z" />
    <glyph glyph-name="fivesevenths" 
d="M173 -14l241 370l223 353l40 -26l-234 -349l-231 -375zM142 620l-8 -93q33 19 77 19q49 0 85.5 -29t36.5 -80q0 -62 -46.5 -99.5t-117.5 -37.5q-41 0 -75 20t-34 55q0 20 12.5 32.5t32.5 12.5t31.5 -10t11.5 -27l-29 -41q17 -15 53 -15q40 0 60.5 30.5t20.5 75.5
q0 77 -58 77q-40 0 -72 -36h-34l16 218q57 -18 110 -18q58 0 106 23v-33q-44 -47 -134 -47q-25 0 -45 3zM544 24q24 146 140 290q-19 -8 -52 -8q-15 0 -35 4q-30 5 -34 5q-42 0 -52 -72h-38l18 132h40l1 -5q18 7 38 7q23 0 49 -11q24 -11 41 -11q28 0 77 30l23 -25
q-71 -88 -101 -156.5t-30 -180.5q0 -10 -1.5 -16t-11.5 -13t-29 -7q-46 0 -43 37z" />
    <glyph glyph-name="fiveninths" 
d="M173 -14l241 370l223 353l40 -26l-234 -349l-231 -375zM142 620l-8 -93q33 19 77 19q49 0 85.5 -29t36.5 -80q0 -62 -46.5 -99.5t-117.5 -37.5q-41 0 -75 20t-34 55q0 20 12.5 32.5t32.5 12.5t31.5 -10t11.5 -27l-29 -41q17 -15 53 -15q40 0 60.5 30.5t20.5 75.5
q0 77 -58 77q-40 0 -72 -36h-34l16 218q57 -18 110 -18q58 0 106 23v-33q-44 -47 -134 -47q-25 0 -45 3zM596 -16q-49 0 -77.5 18.5t-28.5 42.5q0 45 43 45q20 0 32 -11t12 -29l-26 -26q15 -15 45 -15q37 0 59 45t24 110q-33 -33 -86 -33q-56 0 -88 34t-32 87q0 55 42.5 90
t98.5 35q58 0 100 -44t42 -136q0 -98 -45.5 -155.5t-114.5 -57.5zM551 249q0 -88 54 -88q19 0 40.5 17t35.5 48l-1 -1q0 124 -67 124q-31 0 -46.5 -27.5t-15.5 -72.5z" />
    <glyph glyph-name="sixsevenths" 
d="M173 -14l241 370l223 353l40 -26l-234 -349l-231 -375zM195 693q49 0 78.5 -21.5t29.5 -47.5q0 -42 -45 -42q-19 0 -31.5 10t-12.5 28l26 30q-18 18 -45 18q-24 0 -43 -25.5t-28.5 -59.5t-12.5 -71q34 34 87 34q57 0 89 -31t32 -79q0 -64 -41.5 -100t-98.5 -36
q-59 0 -100.5 44t-41.5 136q0 89 46 151t112 62zM240 433q0 83 -52 83q-20 0 -41.5 -17t-36.5 -48l1 1q0 -124 68 -124q61 0 61 105zM544 24q24 146 140 290q-19 -8 -52 -8q-15 0 -35 4q-30 5 -34 5q-42 0 -52 -72h-38l18 132h40l1 -5q18 7 38 7q23 0 49 -11q24 -11 41 -11
q28 0 77 30l23 -25q-71 -88 -101 -156.5t-30 -180.5q0 -10 -1.5 -16t-11.5 -13t-29 -7q-46 0 -43 37z" />
    <glyph glyph-name="sevenninths" 
d="M173 -14l241 370l223 353l40 -26l-234 -349l-231 -375zM151 340q24 146 140 290q-19 -8 -52 -8q-15 0 -35 4q-30 5 -34 5q-42 0 -52 -72h-38l18 132h40l1 -5q18 7 38 7q23 0 49 -11q24 -11 41 -11q28 0 77 30l23 -25q-71 -88 -101 -156.5t-30 -180.5q0 -10 -1.5 -16
t-11.5 -13t-29 -7q-46 0 -43 37zM596 -16q-49 0 -77.5 18.5t-28.5 42.5q0 45 43 45q20 0 32 -11t12 -29l-26 -26q15 -15 45 -15q37 0 59 45t24 110q-33 -33 -86 -33q-56 0 -88 34t-32 87q0 55 42.5 90t98.5 35q58 0 100 -44t42 -136q0 -98 -45.5 -155.5t-114.5 -57.5z
M551 249q0 -88 54 -88q19 0 40.5 17t35.5 48l-1 -1q0 124 -67 124q-31 0 -46.5 -27.5t-15.5 -72.5z" />
    <glyph glyph-name="eightninths" 
d="M173 -14l241 370l223 353l40 -26l-234 -349l-231 -375zM252 513v-4l-7 2q89 -29 89 -98q0 -52 -45 -82.5t-102 -30.5q-59 0 -95.5 25t-36.5 68q0 29 24 54.5t62 41.5l-6 -2v5l6 -2q-71 31 -71 95q0 45 37.5 76.5t93.5 31.5q53 0 85.5 -24t32.5 -62q0 -54 -72 -96z
M252 602q0 27 -17.5 45.5t-42.5 18.5q-27 0 -43.5 -18t-16.5 -42q0 -57 80 -81q40 24 40 77zM266 400q0 54 -92 75q-55 -21 -54 -79q1 -33 21 -50.5t53 -17.5q30 0 51 19t21 53zM596 -16q-49 0 -77.5 18.5t-28.5 42.5q0 45 43 45q20 0 32 -11t12 -29l-26 -26q15 -15 45 -15
q37 0 59 45t24 110q-33 -33 -86 -33q-56 0 -88 34t-32 87q0 55 42.5 90t98.5 35q58 0 100 -44t42 -136q0 -98 -45.5 -155.5t-114.5 -57.5zM551 249q0 -88 54 -88q19 0 40.5 17t35.5 48l-1 -1q0 124 -67 124q-31 0 -46.5 -27.5t-15.5 -72.5z" />
    <glyph glyph-name="Cacute.plk" horiz-adv-x="746" 
d="M586 656l3 1l24 34h31l4 -261h-42q-7 41 -21.5 79t-37.5 72t-58.5 54.5t-79.5 20.5q-102 0 -158 -86t-56 -227q0 -309 219 -309q78 0 126 47t70 144h46l-23 -181q-38 -25 -98 -40.5t-123 -15.5q-152 0 -243 96.5t-91 260.5q0 147 101.5 251.5t233.5 104.5q54 0 101 -13.5
t72 -31.5zM383 747v8l36 129h89v-10l-79 -127h-46z" />
    <glyph glyph-name="Nacute.plk" horiz-adv-x="812" 
d="M203 553h-4v-461q0 -33 27 -42.5t92 -9.5v-40h-261v40q50 0 74 10t24 42v509q-43 51 -103 51v39h173l396 -508h4v420q0 49 -121 49v39h254v-39q-52 0 -71 -11.5t-19 -37.5v-613h-27zM385 747v8l36 129h89v-10l-79 -127h-46z" />
    <glyph glyph-name="Oacute.plk" horiz-adv-x="801" 
d="M723 345q0 -151 -95 -254t-227 -103q-137 0 -230 100t-93 257q0 158 92.5 257t230.5 99q133 0 227.5 -100.5t94.5 -255.5zM605 345q0 148 -47 229.5t-157 81.5q-112 0 -158.5 -79.5t-46.5 -231.5q0 -150 47.5 -230.5t157.5 -80.5q102 0 153 83t51 228zM374 747v8l36 129
h89v-10l-79 -127h-46z" />
    <glyph glyph-name="Sacute.plk" horiz-adv-x="660" 
d="M171 58l-2 -1l-14 -57h-44l-7 278h39q24 -127 76.5 -187t147.5 -60q69 0 105.5 33t36.5 80q0 36 -14 60.5t-62.5 52t-137.5 54.5q-99 30 -146 79t-47 129q0 82 57 132t137 50q94 0 180 -64l3 2l17 56h39l2 -258h-36q-31 116 -80.5 169t-123.5 53q-54 0 -85 -34t-31 -79
q0 -48 48 -85t157 -70t154 -83.5t45 -126.5q0 -83 -61 -138t-155 -55q-120 0 -198 70zM281 747v8l36 129h89v-10l-79 -127h-46z" />
    <glyph glyph-name="Zacute.plk" horiz-adv-x="726" 
d="M76 0v23l427 625l-3 4h-201q-64 0 -108.5 -63.5t-50.5 -147.5h-41l10 250h536v-21l-432 -624l2 -4h208q68 0 115.5 63t59.5 166h42l-19 -271h-545zM357 747v8l36 129h89v-10l-79 -127h-46z" />
    <glyph glyph-name="cacute.plk" horiz-adv-x="618" 
d="M338 520q82 0 140 -45l16 37h30l4 -199h-41q-11 66 -50 115t-102 49q-73 0 -113.5 -62t-40.5 -162q0 -222 158 -222q62 0 99 33.5t57 104.5h40l-19 -136q-72 -45 -179 -45q-120 0 -192 72.5t-72 193.5q0 109 80 187.5t185 78.5zM308 570v8l36 164h89v-10l-79 -162h-46z
" />
    <glyph glyph-name="idotaccent" horiz-adv-x="422" 
d="M339 510v-38q-53 0 -66 -4t-13 -20v-382q0 -18 12.5 -22.5t66.5 -4.5v-39h-256v39q52 0 65 4.5t13 22.5v382q0 17 -13 20.5t-65 3.5v38h256zM141 666q0 27 18.5 46t45.5 19t46.5 -19t19.5 -46t-19.5 -45.5t-46.5 -18.5t-45.5 18.5t-18.5 45.5z" />
    <glyph glyph-name="nacute.plk" horiz-adv-x="689" 
d="M524 -7l-332 400v-322q0 -20 20.5 -26t70.5 -6v-39h-219v39q39 0 57 6t18 26v374q-30 27 -79 27v38h153l295 -355v286q0 31 -92 31v38h213v-38q-40 0 -54.5 -7t-14.5 -24v-448h-36zM314 570v8l36 164h89v-10l-79 -162h-46z" />
    <glyph glyph-name="oacute.plk" horiz-adv-x="657" 
d="M584 254q0 -111 -76 -188.5t-180 -77.5q-108 0 -181.5 75t-73.5 191q0 118 73 192t182 74q105 0 180.5 -75.5t75.5 -190.5zM475 254q0 223 -147 223q-79 0 -112.5 -57.5t-33.5 -165.5q0 -223 146 -223q73 0 110 60t37 163zM298 570v8l36 164h89v-10l-79 -162h-46z" />
    <glyph glyph-name="sacute.plk" horiz-adv-x="567" 
d="M157 30l-9 -33h-42l-5 211h38q39 -179 172 -179q48 0 73.5 23t25.5 55q0 35 -30 58t-126 56q-83 27 -118.5 63t-35.5 94q0 64 46 103t111 39q75 0 141 -39q10 22 14 34h37l2 -197h-36q-48 162 -157 162q-36 0 -57.5 -19.5t-21.5 -53.5t32.5 -58t129.5 -58
q77 -26 111.5 -63.5t34.5 -89.5q0 -64 -50.5 -107t-128.5 -43q-83 0 -151 42zM258 570v8l36 164h89v-10l-79 -162h-46z" />
    <glyph glyph-name="zacute.plk" horiz-adv-x="614" 
d="M204 48l3 -8h158q102 0 125 166h40l-14 -206h-436v22l323 443l-3 7h-150q-102 0 -111 -153h-41l7 191h429v-20zM295 570v8l36 164h89v-10l-79 -162h-46z" />
    </font>
</defs>
</svg>
