<?xml version="1.0" standalone="no"?>
<!DOCTYPE svg PUBLIC "-//W3C//DTD SVG 1.1//EN" "http://www.w3.org/Graphics/SVG/1.1/DTD/svg11.dtd" >
<svg xmlns="http://www.w3.org/2000/svg" xmlns:xlink="http://www.w3.org/1999/xlink" version="1.1">
<metadata>
Created by FontForge 20170731 at Wed Mar 13 13:57:04 2019
 By Aleksey,,,
Copyright 2018-2019 Matthew Butterick
</metadata>
<defs>
<font id="CenturySupraT4-BoldItalic" horiz-adv-x="800" >
  <font-face 
    font-family="Century Supra T4"
    font-weight="700"
    font-style="italic"
    font-stretch="normal"
    units-per-em="1000"
    panose-1="0 0 0 0 0 0 0 0 0 0"
    ascent="762"
    descent="-238"
    x-height="505"
    cap-height="691"
    bbox="-132 -272 1071 949"
    underline-thickness="50"
    underline-position="-175"
    slope="-17"
    unicode-range="U+000D-FB04"
  />
<missing-glyph horiz-adv-x="544" 
d="M20 0v700h508v-700h-508zM71 41h406v618h-406v-618zM200 397l8 4q36 -18 79 -18q36 0 57.5 24.5t21.5 63.5q0 40 -30.5 74t-78.5 34q-28 0 -40 -14l14 -37q0 -14 -10 -22.5t-26 -8.5q-35 0 -35 39q0 30 25 50t66 20q63 0 109.5 -45t46.5 -114q0 -56 -30 -92t-77 -36
q-45 0 -65 15l-2 -88h-30zM172 141q0 20 13 33.5t33 13.5q18 0 31.5 -13.5t13.5 -33.5q0 -18 -13.5 -31t-31.5 -13q-19 0 -32.5 13t-13.5 31z" />
    <glyph glyph-name="uni2190" unicode="&#x3c;&#x2d;" horiz-adv-x="704" 
d="M76 272l237 264l61 -46l-163 -183h420v-84h-420l163 -183l-61 -47l-237 266v13z" />
    <glyph glyph-name="uni2192" unicode="&#x2d;&#x3e;" horiz-adv-x="704" 
d="M391 536l237 -264v-13l-237 -266l-61 47l163 183h-420v84h420l-163 183z" />
    <glyph glyph-name="f_f" unicode="ff" horiz-adv-x="654" 
d="M44 385l14 88h73l8 74q9 87 59.5 137.5t117.5 50.5q57 0 90 -34t33 -82q0 -38 -25.5 -62.5t-67.5 -24.5q-5 97 -10 112q-6 18 -21 18q-8 0 -16 -12t-15 -41.5t-9 -72.5l-7 -63h175l8 89q9 87 59.5 137.5t117.5 50.5q68 0 108 -34t40 -82q0 -40 -28.5 -66t-74.5 -26
q-8 135 -39 135q-40 0 -47 -126l-8 -78h97l-12 -88h-95q-24 -178 -54.5 -301t-65.5 -185.5t-68.5 -88t-73.5 -25.5q-43 0 -70 19.5t-27 60.5q0 38 24 63.5t61 25.5l31 -99q62 72 108 530h-177q-24 -181 -54.5 -306t-65.5 -188.5t-68.5 -89.5t-73.5 -26q-43 0 -70 19.5
t-27 60.5q0 38 24 63.5t61 25.5l31 -99q62 72 108 540h-78z" />
    <glyph glyph-name="fi" unicode="fi" horiz-adv-x="592" 
d="M426 537q-2 42 -7 68.5t-20.5 49t-41.5 22.5q-31 0 -55 -31.5t-27 -94.5l-8 -78h292l-85 -365q-5 -25 13 -25q32 0 55 107l50 -6q-20 -104 -53.5 -147.5t-95.5 -43.5q-58 0 -81.5 42.5t-9.5 102.5l60 246h-155q-24 -181 -54.5 -305.5t-65.5 -188t-68.5 -89.5t-73.5 -26
q-43 0 -70 19.5t-27 60.5q0 38 24 63.5t61 25.5l31 -99q62 72 108 540h-78l14 88h73l8 89q9 86 76 137t151 51q89 0 133.5 -33t44.5 -83q0 -42 -32.5 -69.5t-85.5 -27.5z" />
    <glyph glyph-name="fl" unicode="fl" horiz-adv-x="581" 
d="M599 740l-140 -610q-11 -50 16 -50q37 0 49 109l55 -3q-14 -97 -49 -145t-101 -48q-62 0 -87 38t-8 114l95 439q-24 -9 -53 -2q-8 95 -54 95q-40 0 -47 -126l-8 -78h92l-12 -88h-90q-24 -181 -54.5 -306t-65.5 -188.5t-68.5 -89.5t-73.5 -26q-43 0 -70 19.5t-27 60.5
q0 38 24 63.5t61 25.5l31 -99q62 74 108 540h-78l14 88h73l8 89q9 87 59.5 137.5t117.5 50.5q74 0 116 -42l132 32h35z" />
    <glyph glyph-name="f_f_i" unicode="ffi" horiz-adv-x="903" 
d="M44 385l14 88h73l8 74q9 87 59.5 137.5t117.5 50.5q57 0 90 -34t33 -82q0 -38 -25.5 -62.5t-67.5 -24.5q-5 97 -10 112q-6 18 -21 18q-8 0 -16 -12t-15 -41.5t-9 -72.5l-7 -63h174l8 89q9 86 76 137t151 51q89 0 133.5 -33t44.5 -83q0 -42 -32.5 -69.5t-85.5 -27.5
q-2 42 -7 68.5t-20.5 49t-41.5 22.5q-31 0 -55 -31.5t-27 -94.5l-8 -78h292l-85 -365q-5 -25 13 -25q32 0 55 107l50 -6q-20 -104 -53.5 -147.5t-95.5 -43.5q-58 0 -81.5 42.5t-9.5 102.5l60 246h-155q-24 -181 -54.5 -305.5t-65.5 -188t-68.5 -89.5t-73.5 -26
q-43 0 -70 19.5t-27 60.5q0 38 24 63.5t61 25.5l31 -99q62 72 108 540h-176q-24 -181 -54.5 -306t-65.5 -188.5t-68.5 -89.5t-73.5 -26q-43 0 -70 19.5t-27 60.5q0 38 24 63.5t61 25.5l31 -99q62 72 108 540h-78z" />
    <glyph glyph-name="f_f_l" unicode="ffl" horiz-adv-x="894" 
d="M44 385l14 88h73l8 74q9 87 59.5 137.5t117.5 50.5q57 0 90 -34t33 -82q0 -38 -25.5 -62.5t-67.5 -24.5q-5 97 -10 112q-6 18 -21 18q-8 0 -16 -12t-15 -41.5t-9 -72.5l-7 -63h176l8 89q9 87 59.5 137.5t117.5 50.5q77 0 119 -42l129 32h35l-140 -610q-11 -50 16 -50
q37 0 49 109l55 -3q-14 -97 -49 -145t-101 -48q-62 0 -87 38t-8 114l95 439q-24 -9 -53 -2q-8 95 -54 95q-40 0 -47 -126l-8 -78h87l-12 -88h-85q-24 -181 -54.5 -306t-65.5 -188.5t-68.5 -89.5t-73.5 -26q-43 0 -70 19.5t-27 60.5q0 38 24 63.5t61 25.5l31 -99
q62 74 108 540h-178q-24 -181 -54.5 -306t-65.5 -188.5t-68.5 -89.5t-73.5 -26q-43 0 -70 19.5t-27 60.5q0 38 24 63.5t61 25.5l31 -99q62 72 108 540h-78z" />
    <glyph glyph-name="uni2190.circle" unicode="&#x28;&#x3c;&#x2d;&#x29;" horiz-adv-x="884" 
d="M401 536l-237 -264v-13l237 -266l61 47l-163 183h420v84h-420l163 183zM824 263q0 -157 -111.5 -268.5t-268.5 -111.5q-159 0 -271.5 111.5t-112.5 268.5q0 159 112.5 271t271.5 112q157 0 268.5 -112t111.5 -271z" />
    <glyph glyph-name="uni2192.circle" unicode="&#x28;&#x2d;&#x3e;&#x29;" horiz-adv-x="884" 
d="M720 272l-237 264l-61 -46l163 -183h-420v-84h420l-163 -183l61 -47l237 266v13zM60 263q0 159 111.5 271t268.5 112q159 0 271.5 -112t112.5 -271q0 -157 -112.5 -268.5t-271.5 -111.5q-157 0 -268.5 111.5t-111.5 268.5z" />
    <glyph glyph-name="uni2191.circle" unicode="&#x28;&#x2191;&#x29;" horiz-adv-x="884" 
d="M713 305l-264 237h-13l-266 -237l47 -61l183 163v-420h84v420l183 -163zM440 -118q-157 0 -268.5 111.5t-111.5 268.5q0 159 111.5 271.5t268.5 112.5q159 0 271.5 -112.5t112.5 -271.5q0 -157 -112.5 -268.5t-271.5 -111.5z" />
    <glyph glyph-name="uni2193.circle" unicode="&#x28;&#x2193;&#x29;" horiz-adv-x="884" 
d="M449 -14l264 237l-46 61l-183 -163v420h-84v-420l-183 163l-47 -61l266 -237h13zM440 646q159 0 271.5 -111.5t112.5 -268.5q0 -159 -112.5 -271.5t-271.5 -112.5q-157 0 -268.5 112.5t-111.5 271.5q0 157 111.5 268.5t268.5 111.5z" />
    <glyph glyph-name="g_f" unicode="gf" horiz-adv-x="797" 
d="M256 505q67 0 115 -35l61 32h66l-20 -86h-65q11 -27 11 -55q0 -83 -49 -131t-116 -60q-62 -10 -88 -48l41 -13q121 -35 169 -67t48 -84q0 -73 -72.5 -128t-175.5 -55q-84 0 -142 31t-58 88q0 41 29.5 69.5t86.5 53.5v11q-41 34 -41 83q21 42 80 76v10q-75 33 -75 124
q0 71 57 127.5t138 56.5zM514 385l9 88h63l8 89q9 87 59.5 137.5t117.5 50.5q68 0 108 -34t40 -82q0 -40 -28.5 -66t-74.5 -26q-8 135 -39 135q-40 0 -47 -126l-8 -78h97l-12 -88h-94q-20 -181 -46 -305.5t-55 -188.5t-57 -90t-60 -26q-36 0 -59 17.5t-23 52.5q0 25 16 42
t39 17l26 -69q49 75 85 550h-65zM312 -77q0 30 -46 43l-94 27q-38 -18 -58.5 -42.5t-20.5 -46.5q0 -31 27 -46.5t66 -15.5q56 0 91 22.5t35 58.5zM298 347q0 77 -48 77q-28 0 -44 -27.5t-16 -77.5q0 -41 12 -59.5t40 -18.5q22 0 39 27.5t17 78.5z" />
    <glyph glyph-name="f_j" unicode="fj" horiz-adv-x="584" 
d="M342 -17l76 401h-161q-24 -181 -54.5 -305.5t-65.5 -188t-68.5 -89.5t-73.5 -26q-43 0 -70 19.5t-27 60.5q0 38 24 63.5t61 25.5l31 -99q62 72 108 540h-78l14 88h73l8 89q9 86 73 137t144 51q86 0 129.5 -33t43.5 -83q0 -42 -32.5 -69.5t-85.5 -27.5q-2 42 -6.5 68.5
t-19 49t-38.5 22.5q-27 0 -48 -31.5t-24 -94.5l-8 -78h298l-104 -492q-20 -95 -64 -150t-113 -56q-44 0 -78 21.5t-34 63.5q0 35 22 62t65 32l33 -116q17 0 25 26.5t25 118.5z" />
    <glyph glyph-name="f_f_j" unicode="ffj" horiz-adv-x="896" 
d="M44 385l14 88h73l8 74q9 87 59.5 137.5t117.5 50.5q57 0 90 -34t33 -82q0 -38 -25.5 -62.5t-67.5 -24.5q-5 97 -10 112q-6 18 -21 18q-8 0 -16 -12t-15 -41.5t-9 -72.5l-7 -63h175l8 89q9 86 73 137t144 51q86 0 129.5 -33t43.5 -83q0 -42 -32.5 -69.5t-85.5 -27.5
q-2 42 -6.5 68.5t-19 49t-38.5 22.5q-27 0 -48 -31.5t-24 -94.5l-8 -78h298l-104 -492q-16 -94 -62 -149.5t-115 -56.5q-43 0 -75 23t-32 67q0 33 21 58.5t61 30.5l33 -116q17 0 25 26.5t25 118.5l76 401h-161q-24 -181 -54.5 -305.5t-65.5 -188t-68.5 -89.5t-73.5 -26
q-43 0 -70 19.5t-27 60.5q0 38 24 63.5t61 25.5l31 -99q62 72 108 540h-177q-24 -181 -54.5 -306t-65.5 -188.5t-68.5 -89.5t-73.5 -26q-43 0 -70 19.5t-27 60.5q0 38 24 63.5t61 25.5l31 -99q62 72 108 540h-78z" />
    <glyph glyph-name=".notdef" horiz-adv-x="544" 
d="M20 0v700h508v-700h-508zM71 41h406v618h-406v-618zM200 397l8 4q36 -18 79 -18q36 0 57.5 24.5t21.5 63.5q0 40 -30.5 74t-78.5 34q-28 0 -40 -14l14 -37q0 -14 -10 -22.5t-26 -8.5q-35 0 -35 39q0 30 25 50t66 20q63 0 109.5 -45t46.5 -114q0 -56 -30 -92t-77 -36
q-45 0 -65 15l-2 -88h-30zM172 141q0 20 13 33.5t33 13.5q18 0 31.5 -13.5t13.5 -33.5q0 -18 -13.5 -31t-31.5 -13q-19 0 -32.5 13t-13.5 31z" />
    <glyph glyph-name=".null" horiz-adv-x="0" 
 />
    <glyph glyph-name="nonmarkingreturn" horiz-adv-x="333" 
 />
    <glyph glyph-name="NULL" horiz-adv-x="0" 
 />
    <glyph glyph-name="NULL" horiz-adv-x="0" 
 />
    <glyph glyph-name="CR" unicode="&#xd;" horiz-adv-x="210" 
 />
    <glyph glyph-name="space" unicode=" " horiz-adv-x="210" 
 />
    <glyph glyph-name="exclam" unicode="!" horiz-adv-x="359" 
d="M347 582q-85 -253 -122 -381l-63 11q24 236 24 406q0 44 22 75.5t67 31.5q36 0 56.5 -13.5t25 -36.5t2 -45.5t-11.5 -47.5zM83 68q0 34 23 58t57 24t58 -24t24 -58t-24 -57t-58 -23t-57 23t-23 57z" />
    <glyph glyph-name="quotedbl" unicode="&#x22;" horiz-adv-x="485" 
d="M147 425l47 302l125 -31l-106 -288zM326 425l47 302l125 -31l-106 -288z" />
    <glyph glyph-name="numbersign" unicode="#" horiz-adv-x="510" 
d="M112 516l95 -13l42 204l71 -15l-41 -198l72 -10l46 223l71 -15l-45 -218l99 -13l-14 -78l-101 13l-29 -137l87 -11l-14 -78l-89 12l-46 -223l-71 14l45 219l-72 9l-50 -242l-71 14l49 238l-105 15l13 77l108 -15l29 138l-93 13zM263 416l-29 -137l72 -10l29 137z" />
    <glyph glyph-name="dollar" unicode="$" horiz-adv-x="596" 
d="M146 97l-26 -52l-76 7l52 258l66 -6q-2 -67 23 -117.5t69 -70.5l33 174q-38 18 -65.5 37t-52.5 46t-33.5 63t0.5 78q16 72 79.5 111.5t141.5 35.5l22 116l58 -10l-22 -116q49 -15 85 -61q2 2 3 2l-3 -1l28 49l72 -6l-52 -237l-63 6q-12 131 -86 163l-29 -154l22 -9
q31 -14 53 -27.5t44.5 -33.5t32.5 -42t16 -53.5t-5 -67.5q-19 -77 -84.5 -122.5t-150.5 -38.5h-2l-23 -122l-58 11l23 124q-61 21 -92 66zM407 161q10 55 -65 101l-30 -158q36 -2 62 13t33 44zM274 527q-11 -48 42 -85l25 136q-28 0 -46 -15t-21 -36z" />
    <glyph glyph-name="percent" unicode="%" horiz-adv-x="552" 
d="M366 542q-22 0 -41 11q-6 -78 -49.5 -127.5t-99.5 -49.5q-50 0 -82 37t-32 96q0 76 48.5 132t104.5 56q36 0 63.5 -20t38.5 -54v1q12 -28 56 -28q36 0 73 25q20 70 62 70q12 0 23 -7.5t11 -23.5q0 -18 -14.5 -37t-31.5 -30l-184 -279v1l-215 -337l-48 37l222 330l-1 -1
l123 201q-13 -3 -27 -3zM278 121q0 77 48.5 132.5t105.5 55.5q50 0 81 -33t31 -90q0 -88 -46 -142.5t-102 -54.5q-53 0 -85.5 37t-32.5 95zM449 246q-28 0 -53 -48t-25 -104q0 -46 30 -46q28 0 52.5 37.5t24.5 109.5q0 23 -9 37t-20 14zM233 632q-29 0 -54 -47t-25 -102
q0 -47 32 -47q28 0 51.5 38t23.5 108q0 50 -28 50z" />
    <glyph glyph-name="ampersand" unicode="&#x26;" horiz-adv-x="753" 
d="M472 701q59 0 90.5 -30.5t31.5 -78.5q0 -14 -3.5 -27.5t-11.5 -25.5t-15.5 -22t-22.5 -21t-25 -18t-30 -18.5t-30.5 -17t-34 -17.5t-33.5 -17v-12q0 -172 31 -251q49 49 89 125q13 27 -3.5 37.5t-62.5 13.5v70h285v-70q-97 0 -138 -71q-66 -105 -131 -165q20 -16 45 -16
q33 0 70 29t64 82l47 -28q-37 -72 -91.5 -118.5t-122.5 -46.5q-61 0 -107 33q-69 -33 -147 -33q-96 0 -142 45t-46 117q0 47 19 88t55 73.5t72 55.5t87 49q16 129 70 207.5t141 78.5zM309 81q-53 88 -53 237v3q-66 -63 -66 -149q0 -44 22 -69.5t63 -25.5q18 0 34 4zM464 627
q-28 0 -46.5 -38.5t-25.5 -108.5q50 27 76.5 52t26.5 54q0 41 -31 41z" />
    <glyph glyph-name="quotesingle" unicode="'" horiz-adv-x="306" 
d="M147 425l47 302l125 -31l-106 -288z" />
    <glyph glyph-name="parenleft" unicode="(" horiz-adv-x="322" 
d="M233 -210l-35 -33q-70 65 -114 186t-44 233q0 96 24 177t73.5 150.5t105.5 124.5t139 119l30 -36q-255 -243 -255 -584q0 -115 18 -192t58 -145z" />
    <glyph glyph-name="parenright" unicode=")" horiz-adv-x="322" 
d="M113 714l35 33q70 -65 114 -186t44 -233q0 -96 -24 -177t-73.5 -150.5t-105.5 -124.5t-139 -119l-30 36q255 243 255 584q0 115 -18 192t-58 145z" />
    <glyph glyph-name="asterisk" unicode="*" horiz-adv-x="476" 
d="M468 431q26 -17 5 -52q-19 -32 -48 -34q-20 -2 -32 18q-5 8 -14 27.5t-22 41t-33 45.5q-5 -40 -6.5 -83.5t-2.5 -50.5q-3 -29 -41 -29q-36 0 -52 23q-10 16 -1 34q5 11 26 45t39 72q-31 -8 -53.5 -19t-39.5 -22t-27 -15q-27 -12 -46 20q-19 33 -5 59q9 15 28 17
q8 1 52 2.5t82 4.5q-30 28 -68 49t-41 23q-24 19 -3 53q18 30 45 32q18 0 29 -18q3 -5 15.5 -26.5t25 -41.5t29.5 -42q6 40 6.5 80t1.5 51q4 30 42 29q36 -1 53 -25q11 -16 2 -34q-5 -8 -18 -26t-26 -39t-24 -47q50 16 121 52q27 13 47 -21q19 -33 6 -59q-8 -15 -29 -16
q-5 0 -49.5 3.5t-81.5 -1.5q60 -52 108 -80z" />
    <glyph glyph-name="plus" unicode="+" horiz-adv-x="620" 
d="M573 221h-220v-221h-86v221h-220v86h220v221h86v-221h220v-86z" />
    <glyph glyph-name="comma" unicode="," horiz-adv-x="297" 
d="M24 79q0 26 21.5 46.5t55.5 20.5q43 0 77.5 -40t34.5 -108q0 -82 -79.5 -149.5t-195.5 -67.5v62q71 0 117 34.5t46 80.5q0 26 -19.5 45t-38.5 36.5t-19 39.5z" />
    <glyph glyph-name="hyphen" unicode="-" horiz-adv-x="318" 
d="M42 308h250v-113h-250v113z" />
    <glyph glyph-name="period" unicode="." horiz-adv-x="253" 
d="M15 75q0 35 24 59.5t58 24.5q35 0 59.5 -24.5t24.5 -59.5q0 -34 -24.5 -58t-59.5 -24t-58.5 23.5t-23.5 58.5z" />
    <glyph glyph-name="slash" unicode="/" horiz-adv-x="380" 
d="M486 732l-465 -847h-111l465 847h111z" />
    <glyph glyph-name="zero" unicode="0" horiz-adv-x="602" 
d="M617 448q0 -200 -104.5 -329t-251.5 -129q-99 0 -157 55.5t-58 175.5q0 126 51.5 237.5t135.5 177t175 65.5q101 0 155 -64t54 -189zM276 83q55 0 97 67.5t62 160t20 187.5q0 59 -17 82.5t-51 23.5q-43 0 -84.5 -62.5t-67 -158.5t-25.5 -191q0 -61 17 -85t49 -24z" />
    <glyph glyph-name="one" unicode="1" horiz-adv-x="491" 
d="M118 574l16 78q127 -11 266 33h45l-114 -537q-9 -44 16 -55t95 -11l-17 -82h-415l17 82q70 0 101 14.5t39 51.5l86 405q-88 0 -135 21z" />
    <glyph glyph-name="two" unicode="2" horiz-adv-x="582" 
d="M214 150l5 -15h166q28 0 52 21.5t38 60.5h70l-85 -217h-453l-7 84q7 5 53 36t88.5 60t99 75.5t97 89t69.5 92.5t29 92q0 84 -78 84q-65 0 -99 -51l41 -91q-8 -40 -37 -63.5t-69 -23.5q-42 0 -64.5 21.5t-22.5 58.5q0 52 27.5 97.5t69.5 75.5t90.5 47t92.5 17
q101 0 158.5 -42.5t57.5 -119.5q0 -43 -24.5 -87.5t-52 -76.5t-88.5 -77.5t-93.5 -66t-106.5 -66.5z" />
    <glyph glyph-name="three" unicode="3" horiz-adv-x="568" 
d="M395 375l2 -12q60 -7 100.5 -41.5t40.5 -94.5q0 -74 -49.5 -129t-124 -81.5t-159.5 -26.5q-88 0 -142.5 33t-54.5 95q0 47 30.5 79.5t72.5 32.5q32 0 52 -22t17 -50l-53 -70q20 -18 77 -18q64 0 116 37.5t52 110.5q0 40 -26 60.5t-71 20.5q-38 0 -86 -15l-10 66
q236 83 236 208q0 67 -66 67q-41 0 -76 -25l28 -67q-7 -32 -33.5 -53t-60.5 -21q-38 0 -60 18.5t-22 50.5q0 54 43.5 95.5t101.5 59.5t115 18q94 0 150 -38t56 -105q0 -110 -196 -183z" />
    <glyph glyph-name="four" unicode="4" horiz-adv-x="585" 
d="M38 199l-1 41l452 461l78 -10l-87 -412h95l-17 -80h-95l-9 -40q-11 -52 5 -64.5t73 -12.5l-17 -82h-330l17 82q50 0 70 13t29 57l10 47h-273zM178 284l1 -5h149l40 191l-7 4z" />
    <glyph glyph-name="five" unicode="5" horiz-adv-x="574" 
d="M213 426l7 -6q72 35 145 35q77 0 131 -46t54 -130q0 -70 -31.5 -127.5t-82 -91.5t-107.5 -52t-113 -18q-83 0 -143.5 34.5t-60.5 94.5q0 47 30 79t72 32q34 0 53 -19.5t21 -51.5l-49 -67q18 -23 73 -23q66 0 117.5 48t51.5 139q0 112 -80 112q-35 0 -61 -12.5t-73 -47.5
h-70l114 393q97 -30 199 -31t197 30l-15 -73q-103 -89 -252 -89q-48 0 -89 10z" />
    <glyph glyph-name="six" unicode="6" horiz-adv-x="606" 
d="M450 701q87 0 133 -37.5t46 -88.5q0 -39 -27.5 -66.5t-62.5 -27.5q-32 0 -57.5 16t-28.5 43l44 62q-15 22 -64 22q-50 0 -101.5 -59.5t-73.5 -158.5l6 -3q59 50 143 50q85 0 131 -47t46 -125q0 -69 -28.5 -126t-73.5 -92t-97.5 -54t-104.5 -19q-45 0 -83 11.5t-70.5 37
t-51 72.5t-18.5 112q0 125 56 236.5t147 176.5t190 65zM291 78q57 0 87.5 57t30.5 145q0 87 -60 87q-59 0 -116 -77q-15 -69 -15 -115q0 -97 73 -97z" />
    <glyph glyph-name="seven" unicode="7" horiz-adv-x="554" 
d="M454 539l-7 15q-37 -15 -77 -15q-21 0 -50.5 6t-47.5 6q-87 0 -123 -104h-59l87 254h56l7 -22q56 22 102 22q36 0 83.5 -18t81.5 -18q50 0 120 41l29 -88q-78 -65 -127.5 -114t-95 -111.5t-77.5 -136t-60 -172.5q-7 -23 -12 -35t-15.5 -26t-29 -20t-46.5 -6q-99 0 -70 90
q45 129 127.5 235.5t203.5 216.5z" />
    <glyph glyph-name="eight" unicode="8" horiz-adv-x="585" 
d="M453 375l-1 -7q106 -44 106 -143q0 -100 -92.5 -167.5t-211.5 -67.5q-104 0 -167 41t-63 113q0 58 47.5 109t114.5 81l2 9q-69 56 -69 146q0 37 17.5 73t51 68t89.5 51.5t124 19.5q94 0 147.5 -39.5t53.5 -103.5q0 -104 -149 -183zM375 414q35 22 56.5 54.5t21.5 66.5
q0 37 -22 60t-59 23q-42 0 -70.5 -28t-28.5 -62q0 -73 102 -114zM279 73q48 0 84.5 29.5t36.5 72.5q0 78 -136 118q-33 -13 -62 -52t-29 -87q0 -39 28.5 -60t77.5 -21z" />
    <glyph glyph-name="nine" unicode="9" horiz-adv-x="606" 
d="M232 -10q-87 0 -135.5 36t-48.5 85q0 45 28.5 72t66.5 27q53 0 71 -48l-33 -70q11 -22 53 -22q60 0 114.5 66t74.5 154l-7 3q-27 -21 -68.5 -35t-81.5 -14q-86 0 -132 43.5t-46 116.5q0 88 49.5 158t120.5 104.5t144 34.5q93 0 155.5 -59t62.5 -183q0 -92 -34.5 -179.5
t-89 -150t-125 -101t-139.5 -38.5zM390 613q-47 0 -86.5 -65t-39.5 -147q0 -76 64 -76q71 0 119 86q15 69 15 114q0 88 -72 88z" />
    <glyph glyph-name="colon" unicode=":" horiz-adv-x="273" 
d="M80 369q0 35 24 59.5t58 24.5t59 -24.5t25 -59.5q0 -34 -24.5 -58t-59.5 -24q-34 0 -58 23.5t-24 58.5zM23 75q0 35 24 59.5t58 24.5q35 0 59.5 -24.5t24.5 -59.5q0 -34 -24.5 -58t-59.5 -24t-58.5 23.5t-23.5 58.5z" />
    <glyph glyph-name="semicolon" unicode=";" horiz-adv-x="337" 
d="M113 369q0 35 24 59.5t58 24.5q35 0 59.5 -24.5t24.5 -59.5q0 -34 -24.5 -58t-59.5 -24t-58.5 23.5t-23.5 58.5zM41 79q0 26 21.5 46.5t55.5 20.5q43 0 77.5 -40t34.5 -108q0 -82 -79.5 -149.5t-195.5 -67.5v62q71 0 117 34.5t46 80.5q0 20 -12 37t-26.5 26.5t-26.5 24.5
t-12 33z" />
    <glyph glyph-name="less" unicode="&#x3c;" horiz-adv-x="594" 
d="M542 456l-391 -186q58 -28 190.5 -91t200.5 -96v-92l-502 239v79l502 239v-92z" />
    <glyph glyph-name="equal" unicode="=" horiz-adv-x="620" 
d="M573 297h-526v87h526v-87zM573 125h-526v86h526v-86z" />
    <glyph glyph-name="greater" unicode="&#x3e;" horiz-adv-x="594" 
d="M443 270l-391 186v92l502 -239v-79l-502 -239v92q68 33 200.5 96t190.5 91z" />
    <glyph glyph-name="question" unicode="?" horiz-adv-x="473" 
d="M498 590q0 -47 -38 -89.5t-83 -69t-83 -58t-38 -58.5q0 -33 36 -33q42 0 51 64l56 -16q-36 -132 -153 -132q-52 0 -92.5 26.5t-40.5 77.5q0 36 25.5 70t62 60.5t73 51.5t62 54.5t25.5 58.5q0 19 -12 31t-34 12q-36 0 -61 -35t-25 -109l-73 -12q-8 108 39.5 174.5
t134.5 66.5q79 0 123.5 -39t44.5 -96zM96 70q0 38 23.5 59t56.5 21q32 0 56.5 -21.5t24.5 -58.5q0 -33 -23.5 -56t-57.5 -23q-35 0 -57.5 23t-22.5 56z" />
    <glyph glyph-name="at" unicode="@" horiz-adv-x="816" 
d="M710 390q0 27 -5.5 55.5t-20 61.5t-37 58t-60.5 42t-87 17q-96 0 -181 -72.5t-133.5 -185.5t-48.5 -230q0 -114 50.5 -175t137.5 -61q40 0 87 13.5t81 34.5l23 -42q-95 -55 -193 -55q-134 0 -207 75t-73 211q0 92 36.5 187t97.5 171t147.5 124.5t178.5 48.5
q136 0 217 -76.5t81 -201.5q0 -84 -36 -154.5t-88.5 -111.5t-105 -63.5t-93.5 -22.5q-84 0 -30 125l-13 9q-91 -136 -153 -136q-29 0 -45 24.5t-16 56.5q0 81 59 187q43 77 96.5 126.5t103.5 49.5q29 0 42 -28h7q9 16 20 21.5t41 5.5q43 0 42 -12q0 -2 -1 -4l-100 -318
q-3 -12 1.5 -21.5t11.5 -9.5q18 0 44.5 17.5t54.5 50t47.5 88t19.5 120.5zM321 169q0 -33 24 -33t76 71t85 160q4 30 -3.5 47t-25.5 17q-17 0 -34 -12.5t-27.5 -26t-32.5 -44.5q-26 -38 -44 -88.5t-18 -90.5z" />
    <glyph glyph-name="A" unicode="A" horiz-adv-x="720" 
d="M450 124l-11 63h-218l-35 -61q-12 -23 2.5 -32t64.5 -9l-18 -85h-262l18 85q34 0 55 13t42 48l335 555h69l113 -562q8 -37 21 -45.5t59 -8.5l-18 -85h-318l18 85h27q41 0 51 6.5t5 32.5zM384 471l-116 -202h157l-35 202h-6z" />
    <glyph glyph-name="B" unicode="B" horiz-adv-x="657" 
d="M511 352l-1 -3q130 -23 130 -122q0 -104 -82 -165.5t-197 -61.5h-369l18 85q50 0 70.5 13t31.5 66l86 401q2 12 2 16q0 18 -15.5 22t-63.5 4l17 84h355q83 0 135 -37.5t52 -106.5q0 -65 -44.5 -119.5t-124.5 -75.5zM322 396h60q63 0 94 40.5t31 84.5q0 41 -22 63.5
t-61 22.5h-57zM256 85h64q75 0 109.5 40.5t34.5 98.5q0 40 -25 60.5t-67 20.5h-70z" />
    <glyph glyph-name="C" unicode="C" horiz-adv-x="684" 
d="M632 651l5 1l35 38h46l-52 -265h-62q0 76 -28 128.5t-89 52.5q-72 0 -130.5 -53t-88.5 -131.5t-30 -163.5t37.5 -129.5t111.5 -44.5q63 0 112.5 38t77.5 113h70v-3q-37 -117 -122 -180.5t-187 -63.5q-129 0 -201.5 71.5t-72.5 197.5q0 117 58 219.5t158 163.5t216 61
q45 0 84 -15t52 -35z" />
    <glyph glyph-name="D" unicode="D" horiz-adv-x="761" 
d="M760 408q0 -95 -38.5 -174t-101.5 -129t-138.5 -77.5t-152.5 -27.5h-337l18 85q58 2 73 6.5t20 27.5l97 457q6 22 -13 27q-10 2 -66 4l17 84h290q92 0 159 -24.5t103.5 -66.5t53 -89.5t16.5 -102.5zM255 85h65q106 0 185.5 91t79.5 237q0 89 -45 141.5t-142 52.5h-32z
" />
    <glyph glyph-name="E" unicode="E" horiz-adv-x="661" 
d="M644 257l-67 -257h-585l18 85q54 0 71.5 8.5t25.5 45.5l89 417q7 31 -9 41t-66 10l17 84h570l-38 -231h-74q5 85 -17.5 116t-87.5 31h-124l-50 -233h51q70 0 96 124h70l-66 -312h-70q14 70 3.5 92.5t-55.5 22.5h-45l-45 -216h148q64 0 103 43t66 129h71z" />
    <glyph glyph-name="F" unicode="F" horiz-adv-x="597" 
d="M643 459h-69q6 76 -19 112t-92 36h-96l-50 -235h32q41 0 66 30.5t39 95.5h70l-66 -311h-70q14 56 2 86.5t-56 30.5h-32l-32 -150q-9 -45 6 -57t64 -12l-18 -85h-330l18 85q61 0 75.5 10.5t24.5 59.5l80 374q11 51 -2.5 64.5t-66.5 13.5l17 84h550z" />
    <glyph glyph-name="G" unicode="G" horiz-adv-x="727" 
d="M647 197l-43 -204h-52l-35 77q-36 -38 -88 -60t-98 -22q-113 0 -190 67t-77 200q0 99 38.5 185t99.5 142t135 87.5t148 31.5q99 0 152 -46h7l28 40h59l-46 -261h-66q0 66 -40 119t-106 53q-97 0 -168 -103.5t-71 -248.5q0 -82 35.5 -126.5t99.5 -44.5q67 0 116 51l15 72
q8 31 -5.5 41.5t-58.5 9.5l15 79h297l-15 -79q-46 0 -62.5 -14t-23.5 -46z" />
    <glyph glyph-name="H" unicode="H" horiz-adv-x="799" 
d="M727 0h-333l18 85q58 3 73.5 10t22.5 38l37 175h-242l-37 -175q-7 -32 7.5 -40t68.5 -8l-18 -85h-332l18 85q53 0 71 8t25 40l90 424q6 31 -11 40t-65 9l18 85h332l-18 -85q-52 0 -70.5 -7.5t-25.5 -41.5l-34 -158h242l34 158q7 33 -7.5 41t-68.5 8l18 85h333l-18 -85
q-56 0 -73.5 -8.5t-24.5 -40.5l-90 -424q-7 -32 8 -40t70 -8z" />
    <glyph glyph-name="I" unicode="I" horiz-adv-x="379" 
d="M458 691l-18 -86q-57 0 -70.5 -5.5t-19.5 -32.5l-93 -438q-6 -29 6 -36.5t67 -7.5l-18 -85h-325l18 85q58 0 71.5 7t20.5 37l93 438q6 28 -5.5 34t-68.5 6l17 84h325z" />
    <glyph glyph-name="J" unicode="J" horiz-adv-x="543" 
d="M647 691l-17 -84q-62 0 -83.5 -14t-33.5 -73l-69 -325q-13 -60 -43 -103t-69.5 -64.5t-75.5 -30.5t-72 -9q-80 0 -133 32t-53 103q0 61 31 96t79 35q45 0 66.5 -28.5t14.5 -71.5l-68 -54q6 -38 58 -38q42 0 65 28t38 97l72 332q5 21 5 43q0 30 -20 37.5t-78 7.5l17 84
h369z" />
    <glyph glyph-name="K" unicode="K" horiz-adv-x="723" 
d="M595 512l-135 -112l153 -264q18 -30 32.5 -40.5t45.5 -10.5l-18 -85h-317l18 85q47 2 59.5 11.5t-1.5 35.5l-98 165l-41 -34l-21 -103q-10 -51 -2.5 -63t48.5 -12l-18 -85h-308l18 85q56 0 73.5 12.5t28.5 62.5l79 375q10 50 -4 61t-66 11l17 84h316l-17 -84
q-46 0 -60.5 -11t-25.5 -61l-36 -161h4l195 166q28 21 24 44t-51 22l18 85h282l-18 -85q-77 -9 -174 -94z" />
    <glyph glyph-name="L" unicode="L" horiz-adv-x="602" 
d="M598 282l-72 -282h-534l18 85q49 0 68.5 7.5t25.5 36.5l93 439q5 25 -8 32t-68 7l17 84h339l-17 -84q-62 0 -78.5 -6t-22.5 -32l-102 -484h79q125 0 185 197h77z" />
    <glyph glyph-name="M" unicode="M" horiz-adv-x="884" 
d="M658 438h-6l-261 -445h-65l-74 445h-4l-60 -281q-9 -41 5.5 -56.5t48.5 -15.5l-18 -85h-232l18 85q32 0 58 16.5t34 53.5l84 394q-4 57 -66 57l18 85h223l73 -465h2l270 465h252l-18 -85q-57 0 -75 -13.5t-27 -55.5l-78 -366q-13 -60 -1 -73t71 -13l-18 -85h-317l18 85
q47 0 61 13.5t27 72.5z" />
    <glyph glyph-name="N" unicode="N" horiz-adv-x="752" 
d="M265 473h-4l-71 -336q-7 -33 14.5 -42.5t78.5 -9.5l-18 -85h-284l18 85q43 0 66.5 10t30.5 42l90 424q-27 46 -76 46l17 84h201l239 -448h4l68 314q5 26 -19.5 37.5t-86.5 11.5l18 85h286l-18 -85q-46 0 -63.5 -11.5t-23.5 -37.5l-120 -565h-87z" />
    <glyph glyph-name="O" unicode="O" horiz-adv-x="751" 
d="M754 432q0 -127 -62 -230.5t-158 -158.5t-202 -55q-131 0 -199.5 71t-68.5 196q0 96 36.5 180.5t96 142t133.5 90.5t149 33q126 0 200.5 -73t74.5 -196zM352 84q57 0 103 38t72.5 97t40.5 123t14 124q0 69 -30.5 104.5t-87.5 35.5q-100 0 -164.5 -113.5t-64.5 -260.5
q0 -77 27.5 -112.5t89.5 -35.5z" />
    <glyph glyph-name="P" unicode="P" horiz-adv-x="623" 
d="M668 531q-1 -64 -29 -114t-73.5 -78t-96.5 -42t-104 -14h-66l-24 -112q-8 -34 -8 -50q0 -22 18 -29t72 -7l-18 -85h-347l18 85q57 0 74 14t30 72l79 374q4 22 4 28q0 22 -16 28t-60 6l17 84h327q54 0 97 -13t74.5 -50.5t31.5 -96.5zM368 607l-51 -240h50q57 0 95.5 38
t38.5 112q0 90 -87 90h-46z" />
    <glyph glyph-name="Q" unicode="Q" horiz-adv-x="751" 
d="M754 432q0 -144 -76 -254t-194 -159q-4 -41 6.5 -61.5t31.5 -20.5q40 0 56 72h66q-18 -87 -60.5 -135.5t-98.5 -48.5q-66 0 -94 39t-20 126q-26 -2 -39 -2q-131 0 -199.5 71t-68.5 196q0 96 36.5 180.5t96 142t133.5 90.5t149 33q126 0 200.5 -73t74.5 -196zM235 232
q0 -35 4 -58q22 56 63 95.5t92 39.5q97 0 102 -143q42 57 64 140.5t22 159.5q0 69 -30.5 104.5t-87.5 35.5q-100 0 -164.5 -113.5t-64.5 -260.5zM374 224q-17 0 -32.5 -20t-20.5 -50q-7 -41 -4 -67q15 -3 35 -3t35 4q10 57 11 87.5t-5 39.5t-19 9z" />
    <glyph glyph-name="R" unicode="R" horiz-adv-x="683" 
d="M501 525q0 44 -22.5 62.5t-78.5 18.5h-33l-44 -209h47q52 0 91.5 31.5t39.5 96.5zM418 159q13 87 -7.5 119.5t-70.5 32.5h-35l-38 -177q-7 -32 8.5 -40t73.5 -8l-18 -86h-339l18 86q56 2 73 9t23 39l93 436q5 24 -9 30t-70 6l18 85h343q192 0 192 -146
q0 -81 -55.5 -131.5t-124.5 -62.5l-2 -8q51 -10 79 -50.5t17 -111.5q-4 -26 -5.5 -39t-2.5 -30t2.5 -24t10.5 -7q25 0 34 109l57 -1q-5 -112 -43 -154t-96 -42q-75 0 -106 43t-20 123z" />
    <glyph glyph-name="S" unicode="S" horiz-adv-x="586" 
d="M126 59l-27 -59h-84l54 288h74v-11q0 -88 47.5 -142t122.5 -54q44 0 75 24t31 67q0 39 -27.5 62t-101.5 53q-40 17 -67.5 32.5t-57 40.5t-45 59t-15.5 76q0 89 76.5 147.5t166.5 58.5q106 0 166 -64l2 2l-2 -1l32 57h79l-54 -263h-71q-9 93 -45.5 135t-105.5 42
q-44 0 -66.5 -24t-22.5 -47q0 -19 9 -36t18 -27.5t33.5 -24.5t35 -19t42.5 -19q7 -3 11 -5q73 -32 114 -75t41 -119q0 -91 -77 -158t-177 -67q-69 0 -115 22t-69 49z" />
    <glyph glyph-name="T" unicode="T" horiz-adv-x="644" 
d="M672 415h-73q18 88 -1 140t-74 52h-35l-103 -483q-6 -26 10.5 -32.5t58.5 -6.5h21l-18 -85h-360l18 85h14q31 0 45 1t30 10t20 28l103 483h-33q-48 0 -91 -52t-61 -140h-75l58 276h604z" />
    <glyph glyph-name="U" unicode="U" horiz-adv-x="747" 
d="M831 691l-17 -84q-46 0 -65 -10t-24 -33l-70 -333q-51 -243 -307 -243q-133 0 -198.5 56t-38.5 181l72 342q5 27 -4.5 33.5t-62.5 6.5l17 84h321l-17 -84q-56 0 -72 -6.5t-22 -33.5l-68 -322q-17 -80 15 -119t102 -39q77 0 119 38t59 121l67 318q5 24 -13 33.5t-72 9.5
l17 84h262z" />
    <glyph glyph-name="V" unicode="V" horiz-adv-x="708" 
d="M382 218h5l189 315q22 34 10.5 54.5t-59.5 19.5l17 84h250l-17 -84q-37 0 -63 -25.5t-63 -85.5l-310 -502h-65l-102 537q-8 52 -15 61q-12 15 -50 15l17 84h300l-17 -84q-55 0 -68.5 -16.5t-3.5 -59.5z" />
    <glyph glyph-name="W" unicode="W" horiz-adv-x="977" 
d="M671 234h6l136 263q34 59 28 86t-63 23l18 85h267l-18 -85q-39 0 -64.5 -23.5t-61.5 -87.5l-269 -501h-90l-36 344l-187 -344h-82l-72 536q-7 45 -23 60.5t-52 15.5l18 85h288l-18 -85q-67 3 -59 -76l33 -296h7l133 239l-6 57q-5 44 -17.5 60t-44.5 16l18 85h275l-18 -85
q-44 -1 -55.5 -16.5t-9.5 -59.5z" />
    <glyph glyph-name="X" unicode="X" horiz-adv-x="716" 
d="M662 0h-354l18 86q113 0 72 78l-56 106l-122 -124q-23 -30 -9.5 -45.5t61.5 -15.5l-18 -85h-280l18 85q57 0 144 87l169 169l-96 186q-22 48 -41 64t-65 16l17 84h340l-17 -84q-55 -1 -65.5 -18t9.5 -53l44 -90l92 94q34 34 27.5 50t-58.5 17l17 84h290l-17 -84
q-18 0 -37.5 -5t-32.5 -10.5t-31 -17t-25 -16.5t-23 -18.5t-17 -14.5l-150 -148l102 -204q25 -51 46 -69.5t66 -18.5z" />
    <glyph glyph-name="Y" unicode="Y" horiz-adv-x="684" 
d="M753 609l-2 -2q-61 0 -120 -79l-177 -228l-27 -129q-13 -58 1.5 -72t71.5 -14l-18 -85h-333l18 85q57 0 72.5 13t28.5 73l27 129l-87 218q-17 36 -21 45t-16.5 24t-25.5 17.5t-36 2.5l17 84h331l-17 -84q-57 0 -71.5 -13.5t0.5 -54.5l52 -150l109 149q24 27 14.5 47.5
t-51.5 21.5l17 84h260z" />
    <glyph glyph-name="Z" unicode="Z" horiz-adv-x="636" 
d="M-14 0l10 48l497 555l-2 4h-118q-60 0 -115 -61t-77 -140h-86l70 285h571l-9 -46l-502 -556l2 -4h154q54 0 108.5 61.5t88.5 159.5h87l-94 -306h-585z" />
    <glyph glyph-name="bracketleft" unicode="[" horiz-adv-x="335" 
d="M430 738l-14 -64q-31 -5 -75.5 -5t-64.5 5l-189 -840q19 4 68 4t78 -4l-16 -68q-43 6 -123.5 6.5t-138.5 -5.5l217 970q57 -5 138 -5t120 6z" />
    <glyph glyph-name="backslash" unicode="\" horiz-adv-x="419" 
d="M259 -115l-153 847h102l152 -847h-101z" />
    <glyph glyph-name="bracketright" unicode="]" horiz-adv-x="335" 
d="M-78 -234l14 64q32 5 76 5t64 -5l189 840q-19 -4 -68 -4t-78 4l16 68q43 -6 123.5 -6.5t138.5 5.5l-217 -970q-57 5 -138 5t-120 -6z" />
    <glyph glyph-name="asciicircum" unicode="^" horiz-adv-x="544" 
d="M286 691l221 -377l-78 -46l-152 273h-8l-155 -273l-77 46l222 377h27z" />
    <glyph glyph-name="underscore" unicode="_" horiz-adv-x="604" 
d="M-83 -190h610v-72h-610v72z" />
    <glyph glyph-name="grave" unicode="`" horiz-adv-x="500" 
d="M315 506v-18h-71l-139 152v20h124z" />
    <glyph glyph-name="a" unicode="a" horiz-adv-x="535" 
d="M322 102h-8q-20 -55 -60.5 -84.5t-86.5 -29.5q-62 0 -97.5 39.5t-35.5 108.5q0 143 71 256t163 113q63 0 89 -60h3l28 50h109l-72 -322q-21 -93 13 -93t46 115l51 -6q-11 -101 -40 -148.5t-85 -47.5q-46 0 -69 28.5t-19 80.5zM204 80q35 0 70 73.5t60 222.5
q-6 16 -21.5 27.5t-34.5 11.5q-38 0 -72 -78t-34 -178q0 -79 32 -79z" />
    <glyph glyph-name="b" unicode="b" horiz-adv-x="501" 
d="M136 38h-1l-28 -50h-88l24 117l93 468q8 46 -3 62t-66 16l12 79l177 10h45l-24 -110l-57 -232l8 -2q64 109 138 109q49 0 85 -41.5t36 -116.5q0 -87 -32.5 -169.5t-92 -136t-129.5 -53.5q-63 0 -97 50zM348 359q0 54 -28 54q-9 0 -20 -7.5t-26.5 -28.5t-31.5 -52.5
t-35.5 -84.5t-37.5 -121q8 -49 61 -49q43 0 80.5 76.5t37.5 212.5z" />
    <glyph glyph-name="c" unicode="c" horiz-adv-x="409" 
d="M272 415q-37 0 -69 -68.5t-32 -187.5q0 -81 55 -81q26 0 53.5 31t46.5 76l61 -30q-81 -167 -203 -167q-65 0 -108 45t-43 129q0 141 78 242t171 101q52 0 87.5 -31.5t35.5 -85.5q0 -82 -93 -99q0 7 -0.5 21t-1 21.5t-1.5 19.5t-2 18t-3 15t-4.5 13.5t-6.5 9t-9 6.5t-12 2
z" />
    <glyph glyph-name="d" unicode="d" horiz-adv-x="542" 
d="M172 170q0 -52 8.5 -70.5t27.5 -18.5q37 0 77.5 78t64.5 217q-16 38 -51 38q-45 0 -86 -76.5t-41 -167.5zM331 106l-10 1q-59 -119 -161 -119q-58 0 -92 38t-34 116q0 145 77.5 254t182.5 109q48 0 73 -38h6l22 121q6 36 -10.5 50t-58.5 14l12 78l181 10h40l-38 -170
q-21 -88 -53 -248.5t-37 -181.5q-4 -27 2.5 -43.5t17.5 -16.5q31 0 38 117l54 -3q-4 -94 -40.5 -147.5t-92.5 -53.5q-46 0 -64.5 26t-14.5 87z" />
    <glyph glyph-name="e" unicode="e" horiz-adv-x="425" 
d="M428 388q0 -37 -19.5 -70.5t-57 -62t-78 -50.5t-95.5 -45q-8 -89 67 -89q71 0 126 112l50 -26q-87 -169 -215 -169q-172 0 -172 188q0 141 76.5 235t175.5 94q60 0 101 -32t41 -85zM301 383q0 18 -7.5 28.5t-18.5 10.5q-37 0 -66 -60t-32 -139q124 70 124 160z" />
    <glyph glyph-name="f" unicode="f" horiz-adv-x="342" 
d="M44 385l14 88h73l8 89q9 87 59.5 137.5t117.5 50.5q68 0 108 -34t40 -82q0 -40 -28.5 -66t-74.5 -26q-8 135 -39 135q-40 0 -47 -126l-8 -78h97l-12 -88h-95q-24 -181 -54.5 -306t-65.5 -188.5t-68.5 -89.5t-73.5 -26q-43 0 -70 19.5t-27 60.5q0 38 24 63.5t61 25.5
l31 -99q62 72 108 540h-78z" />
    <glyph glyph-name="g" unicode="g" horiz-adv-x="455" 
d="M256 505q67 0 115 -35l61 32h66l-20 -86h-65q11 -27 11 -55q0 -83 -49 -131t-116 -60q-62 -10 -88 -48l41 -13q121 -35 169 -67t48 -84q0 -73 -72.5 -128t-175.5 -55q-84 0 -142 31t-58 88q0 41 29.5 69.5t86.5 53.5v11q-41 34 -41 83q21 42 80 76v10q-75 33 -75 124
q0 71 57 127.5t138 56.5zM312 -77q0 30 -46 43l-94 27q-38 -18 -58.5 -42.5t-20.5 -46.5q0 -31 27 -46.5t66 -15.5q56 0 91 22.5t35 58.5zM298 347q0 77 -48 77q-28 0 -44 -27.5t-16 -77.5q0 -41 12 -59.5t40 -18.5q22 0 39 27.5t17 78.5z" />
    <glyph glyph-name="h" unicode="h" horiz-adv-x="539" 
d="M165 18l-30 -18h-105l118 589q7 37 -11.5 50.5t-62.5 13.5l14 78l182 10h41l-45 -191l-39 -167l9 -7q26 54 68 91.5t95 37.5q39 0 59 -30t18 -92t-28 -150q-16 -49 -22.5 -84t-3.5 -52t15 -17q18 0 32 28.5t19 85.5l47 -6q-16 -195 -142 -195q-67 0 -91 51.5t3 157.5
q46 161 36 195q-35 0 -77.5 -68.5t-64.5 -138.5z" />
    <glyph glyph-name="i" unicode="i" horiz-adv-x="320" 
d="M269 372l-63 -264q-5 -25 14 -25q29 0 50 107l50 -6q-18 -104 -49.5 -147.5t-89.5 -43.5q-64 0 -91 42.5t-11 102.5l64 227q10 40 -5 40q-30 0 -68 -121l-49 8q41 213 163 213q58 0 78 -39t7 -94zM154 663q0 36 22 59.5t56 23.5t56.5 -24t22.5 -59q0 -34 -22.5 -57.5
t-56.5 -23.5t-56 23.5t-22 57.5z" />
    <glyph glyph-name="j" unicode="j" horiz-adv-x="318" 
d="M13 -48l33 -116q18 5 28 33.5t22 111.5l69 373q9 51 -5 51q-16 0 -32.5 -30.5t-25.5 -94.5l-55 12q22 116 57.5 164.5t102.5 48.5q55 0 77 -38.5t14 -93.5l-73 -392q-19 -94 -67.5 -149.5t-124.5 -56.5q-46 0 -81.5 21.5t-35.5 63.5q0 34 24.5 60.5t72.5 31.5zM175 663
q0 36 22 59.5t56 23.5t56.5 -24t22.5 -59q0 -34 -22.5 -57.5t-56.5 -23.5t-56 23.5t-22 57.5z" />
    <glyph glyph-name="k" unicode="k" horiz-adv-x="513" 
d="M166 30l-48 -30h-85l109 573q7 42 -5 62t-58 17l12 80l146 9h69l-42 -183l-39 -183l5 -3q93 133 181 133q46 0 71.5 -22.5t25.5 -56.5q0 -69 -43 -110t-145 -89v-4q18 -10 36 -43t32.5 -60t26.5 -27q17 0 31.5 26t17.5 64l51 -4q-18 -90 -55 -138t-85 -48
q-33 0 -58.5 20.5t-38.5 46.5t-30 55.5t-32 41.5l13 75q137 79 137 155q0 18 -15 18q-21 0 -60 -41.5t-82 -109.5z" />
    <glyph glyph-name="l" unicode="l" horiz-adv-x="289" 
d="M307 740l-140 -610q-11 -50 16 -50q37 0 49 109l55 -3q-14 -97 -49 -145t-101 -48q-62 0 -87 38t-8 114l95 443q5 36 -12 50t-56 14l14 78l189 10h35z" />
    <glyph glyph-name="m" unicode="m" horiz-adv-x="827" 
d="M447 24l-43 -24h-95q3 12 20 89.5t31 135.5q31 128 17 175q-37 0 -74.5 -61t-67.5 -149l-37 -166l-47 -24h-88l69 329q15 77 -3 77q-35 0 -55 -123l-53 8q34 214 140 214q118 0 54 -184h7q38 83 85.5 133.5t95.5 50.5q42 0 64.5 -24t23 -56.5t-4.5 -65.5h8
q74 146 172 146q39 0 60 -20t25 -60t-4.5 -92t-28.5 -125q-14 -50 -17.5 -78.5t1.5 -40t19 -11.5q33 0 49 120l56 -4q-20 -201 -149 -201q-73 0 -96 57.5t7 174.5q4 14 13 46t12.5 45.5t7.5 34t3.5 32t-4.5 17.5q-30 0 -69 -61.5t-69 -154.5l-19 -90z" />
    <glyph glyph-name="n" unicode="n" horiz-adv-x="572" 
d="M202 31l-54 -31h-86l70 329q4 21 6 32.5t3 22.5t-2 16t-9 5q-8 0 -18 -12.5t-20 -42.5t-16 -73l-55 4q13 100 47.5 162t91.5 62q110 0 76 -162h9q30 78 75.5 120t98.5 42q54 0 75 -34.5t15 -97.5t-36 -165q-11 -39 -16 -60t-6.5 -38t4 -23.5t17.5 -6.5q34 0 47 114l52 -5
q-9 -91 -40.5 -143.5t-101.5 -52.5q-25 0 -46.5 8t-40.5 29t-21 57.5t10 92.5q2 7 7.5 27.5t8.5 29.5t8 27.5t7 28.5t6 25.5t5.5 25.5t3 21t1 19.5t-1.5 14.5q-35 0 -77.5 -71.5t-64.5 -142.5z" />
    <glyph glyph-name="o" unicode="o" horiz-adv-x="470" 
d="M459 309q0 -132 -72.5 -226.5t-179.5 -94.5q-82 0 -129.5 46.5t-47.5 132.5q0 148 79.5 243t175.5 95q87 0 130.5 -52t43.5 -144zM220 75q49 0 76 87.5t27 180.5q0 76 -46 76q-47 0 -78 -83t-31 -184q0 -77 52 -77z" />
    <glyph glyph-name="p" unicode="p" horiz-adv-x="529" 
d="M377 352q0 58 -26 58q-12 0 -29.5 -20t-37 -56.5t-39 -97t-32.5 -131.5q4 -11 18 -19t32 -8q40 0 77 79t37 195zM156 -194l-61 -31h-78l123 600q8 39 -9 39q-32 0 -54 -136l-56 3q22 122 56.5 173t84.5 51q95 0 64 -133h11q62 133 158 133q54 0 87 -42t33 -118
q0 -134 -71.5 -245.5t-174.5 -111.5q-25 0 -44.5 9t-26.5 21z" />
    <glyph glyph-name="q" unicode="q" horiz-adv-x="494" 
d="M176 162q0 -76 37 -76q13 0 30 16t36 48.5t38 92t32 136.5q-4 16 -19.5 25.5t-34.5 9.5q-44 0 -81.5 -75t-37.5 -177zM377 -188l-58 -37h-76l53 282h-8q-42 -69 -117 -69q-62 0 -97.5 40.5t-35.5 107.5q0 93 36 179t96 138t125 52q56 0 83 -48h4l36 38h78l-17 -115z" />
    <glyph glyph-name="r" unicode="r" horiz-adv-x="424" 
d="M208 33l-50 -33h-93l63 347q9 55 -5 55q-16 0 -29 -34t-18 -83l-52 5q6 91 42.5 153t94.5 62q44 0 52.5 -43t-12.5 -138l20 -2q22 95 55.5 139t86.5 44q38 0 58 -25t20 -69q0 -52 -27.5 -84t-76.5 -32l-12 95q-22 0 -47.5 -82.5t-69.5 -274.5z" />
    <glyph glyph-name="s" unicode="s" horiz-adv-x="385" 
d="M116 179q0 -104 59 -104q18 0 29 10.5t11 28.5q0 23 -20.5 52t-45.5 54t-46.5 61t-22.5 70q0 64 47 109t125 45q53 0 94 -30t41 -72q0 -41 -24.5 -64.5t-70.5 -23.5q1 9 1 24q0 38 -13.5 59t-37.5 21q-37 0 -37 -44q0 -27 21 -56.5t46 -53t47 -58t23 -70.5
q0 -65 -50.5 -107t-126.5 -42q-66 0 -105.5 25t-39.5 70q0 42 26.5 69t69.5 27z" />
    <glyph glyph-name="t" unicode="t" horiz-adv-x="336" 
d="M148 566l73 78h78l-38 -171h100l-16 -88h-103l-49 -225q-18 -80 9 -80q21 0 37 32.5t24 87.5l57 -1q-31 -206 -151 -206q-146 0 -111 164l50 228h-68l15 88h72z" />
    <glyph glyph-name="u" unicode="u" horiz-adv-x="565" 
d="M345 112l-7 2q-57 -126 -154 -126q-77 0 -95 65t19 198q14 49 21 77t9.5 45t0.5 22.5t-8 5.5q-16 0 -31 -33.5t-24 -86.5l-55 11q21 107 56.5 160t94.5 53q36 0 56.5 -17.5t25.5 -50.5t1 -70t-16 -87q-27 -113 -29.5 -151t14.5 -56q42 0 110 165q50 232 57 257h132
l-80 -382q-5 -33 16 -33q19 0 34.5 31.5t22.5 88.5l48 -4q-9 -95 -42.5 -149t-92.5 -54q-101 0 -84 119z" />
    <glyph glyph-name="v" unicode="v" horiz-adv-x="490" 
d="M272 424l-26 -264q-2 -25 9 -32q57 35 91.5 94.5t34.5 138.5q0 51 -12 91q-7 34 6 58l88 15q29 -6 35 -54q8 -156 -97 -298.5t-260 -184.5q-35 0 -32 41l27 351l-6 13q-31 6 -41.5 -9t-16.5 -78l-48 5q3 31 6.5 53t10 44.5t16 36.5t24.5 26t35.5 16.5t48.5 4.5t64 -7z
" />
    <glyph glyph-name="w" unicode="w" horiz-adv-x="735" 
d="M496 474l-25 -317q-2 -25 9 -32q127 78 127 231q0 51 -12 91q-7 34 6 58l87 20q29 -6 35 -64q5 -101 -41.5 -200t-132.5 -173t-190 -100q-35 0 -32 41l7 99q-87 -105 -195 -140q-35 0 -32 41l28 351l-6 13q-30 4 -40.5 -10.5t-15.5 -76.5l-49 5q3 31 6.5 53t9.5 44.5
t15.5 36.5t24 26t34.5 16.5t47.5 4.5t62.5 -7l43 -61l-21 -262q-2 -25 9 -32q55 36 86 95l18 247q0 10 88 10q49 0 49 -8z" />
    <glyph glyph-name="x" unicode="x" horiz-adv-x="513" 
d="M192 505q45 0 73.5 -25.5t36.5 -70.5l8 -48l54 85q35 59 82 59q33 0 52.5 -20.5t19.5 -55.5q0 -39 -20 -63t-49 -28l-27 89l-97 -153l23 -132q8 -53 32 -53q19 0 32 35.5t17 88.5l52 -4q-15 -113 -48 -164.5t-94 -51.5q-32 0 -63.5 23.5t-38.5 77.5l-10 58l-70 -113
q-28 -46 -68 -46q-33 0 -54.5 18t-21.5 47t19 52.5t51 34.5l27 -76l102 166l-21 125q-7 47 -27 47q-31 0 -54 -108l-56 3q19 109 53.5 156t84.5 47z" />
    <glyph glyph-name="y" unicode="y" horiz-adv-x="514" 
d="M310 59l-7 2q-57 -73 -118 -73q-42 0 -66 18.5t-30 53t-3 72t14 87.5q4 21 12.5 52.5t13.5 52t8.5 41.5t1.5 31t-10 10q-33 0 -54 -125l-53 3q21 110 55.5 165.5t94.5 55.5q34 0 55 -14t28.5 -34t7 -53t-5.5 -59t-14 -65q-16 -68 -23 -104t-7.5 -64t9.5 -39
q26 0 61.5 49.5t59.5 125.5q7 23 24 124t22 123h134l-89 -424q-20 -73 -47 -128t-54 -86.5t-59.5 -50.5t-60 -25t-59.5 -6q-49 0 -87 20t-38 62q0 37 29 61.5t77 24.5l34 -107q86 0 144 223z" />
    <glyph glyph-name="z" unicode="z" horiz-adv-x="439" 
d="M325 375l-7 6l-73 -32q-38 25 -61 25q-25 0 -43.5 -26t-21.5 -57l-56 5q11 99 46 154t90 55q63 -3 121 -50q50 2 87 51l73 -50l-189 -205l-129 -132l6 -5l73 33q30 -43 70 -43q25 0 42 24t23 62l50 -8q-36 -194 -149 -194q-40 0 -67.5 13.5t-56.5 39.5q-44 -3 -93 -53
l-59 49l219 226z" />
    <glyph glyph-name="braceleft" unicode="{" horiz-adv-x="435" 
d="M152 289l-4 -16q62 -8 100 -52t24 -105q-5 -20 -32 -80.5t-34 -97.5q-12 -53 13.5 -81t108.5 -28l-12 -57q-142 0 -205.5 45t-41.5 121q10 32 40.5 89.5t38.5 86.5q15 63 -19 102t-96 39l10 56q66 0 121 37t62 90q4 30 -3 81t-5 79q9 81 68.5 110.5t219.5 29.5l-12 -57
q-63 0 -106.5 -19.5t-49.5 -64.5q5 -66 5 -164q-8 -63 -65.5 -102.5t-125.5 -41.5z" />
    <glyph glyph-name="bar" unicode="|" horiz-adv-x="544" 
d="M225 -230v980h94v-980h-94z" />
    <glyph glyph-name="braceright" unicode="}" horiz-adv-x="435" 
d="M287 221l4 16q-62 8 -100 52t-24 105q5 20 32 80.5t34 97.5q12 53 -13.5 81t-108.5 28l12 57q142 0 205.5 -45t41.5 -121q-10 -32 -40.5 -89.5t-38.5 -86.5q-15 -63 19 -102t96 -39l-10 -56q-66 0 -121 -37t-62 -90q-4 -30 3 -81t5 -79q-9 -81 -68.5 -110.5t-219.5 -29.5
l12 57q145 0 156 84q-5 66 -5 164q8 63 65.5 102.5t125.5 41.5z" />
    <glyph glyph-name="asciitilde" unicode="~" horiz-adv-x="544" 
d="M471 383l36 -14q-21 -69 -63.5 -123t-80.5 -54q-23 0 -105 39.5t-105 39.5q-15 0 -30 -13.5t-23.5 -27.5t-22.5 -42l-40 16q17 59 61 119t71 60q30 0 107.5 -40t106.5 -40q24 0 50.5 25t37.5 55z" />
    <glyph glyph-name="uni00A0" unicode="&#xa0;" horiz-adv-x="210" 
 />
    <glyph glyph-name="exclamdown" unicode="&#xa1;" horiz-adv-x="359" 
d="M23 -129q85 253 122 381l63 -11q-24 -236 -24 -406q0 -44 -22 -75.5t-67 -31.5q-36 0 -56.5 13.5t-25 36.5t-2 45.5t11.5 47.5zM287 385q0 -34 -23 -58t-57 -24t-58 24t-24 58t24 57t58 23t57 -23t23 -57z" />
    <glyph glyph-name="cent" unicode="&#xa2;" horiz-adv-x="433" 
d="M357 261l54 -10q-19 -64 -67 -94t-110 -23l-19 -94l-42 9l19 95q-71 23 -107.5 85.5t-17.5 152.5q17 86 76.5 138t134.5 52l18 91l43 -9l-18 -87q58 -14 93.5 -58t25.5 -96q-6 -34 -29 -47.5t-52 -7.5q-36 7 -38 49l26 55q-12 27 -40 35l-56 -279q1 -1 13 -3
q31 -6 57.5 7.5t35.5 38.5zM197 367q-18 -86 15 -124l50 249q-45 -27 -65 -125z" />
    <glyph glyph-name="sterling" unicode="&#xa3;" horiz-adv-x="592" 
d="M117 387h56q-11 65 -2 105q19 88 92 136.5t157 48.5q91 0 133 -39.5t32 -87.5q-6 -27 -26 -43t-42 -16q-30 0 -46 19t-19.5 42.5t-16 42.5t-34.5 19q-23 0 -44.5 -25.5t-32.5 -76.5q-9 -42 6 -125h136l-13 -61h-119q0 -10 -4 -34q-21 -96 -88 -146l7 -13q19 15 38 15
q26 0 44 -14t26.5 -31.5t22 -31.5t30.5 -14q22 0 26 21q3 13 -10 35.5t-9 40.5q5 20 24 36t44 16q36 0 52.5 -23.5t6.5 -67.5q-13 -61 -64.5 -94t-110.5 -33q-62 0 -113 21t-81 51q-61 -72 -124 -72q-24 0 -36 12t-8 32q13 58 137 90q25 40 40 113q8 41 0 91h-80z" />
    <glyph glyph-name="currency" unicode="&#xa4;" horiz-adv-x="628" 
d="M92 271q0 68 41 126v7l-46 44q-11 12 -2 28.5t25.5 22t28.5 -2.5l46 -48q60 42 131 42q75 0 128 -39v1l44 46q13 9 30 1t28.5 -26.5t1.5 -28.5l-46 -43v-7q38 -57 38 -123q0 -68 -42 -129v-7l49 -47q11 -11 1.5 -28t-25.5 -23.5t-28 3.5v1l-51 50q-57 -39 -128 -39
q-70 0 -126 35l-42 -44v-1q-11 -12 -31.5 -4.5t-29.5 23.5t1 29l45 44v7q-41 56 -41 130zM158 270q0 -74 44 -121.5t115 -47.5q66 0 110.5 48t44.5 121q0 74 -44.5 121.5t-111.5 47.5q-73 0 -115.5 -48t-42.5 -121z" />
    <glyph glyph-name="yen" unicode="&#xa5;" horiz-adv-x="610" 
d="M715 635l-10 -51q-61 0 -119 -72l-179 -224h122l-12 -56h-124l-11 -55h123l-12 -56h-123q-9 -47 7 -58t74 -11l-11 -52h-328l11 52q64 0 80.5 10.5t26.5 58.5h-122l12 56h122l11 55h-121l12 56h117l-95 214q-21 51 -37 66.5t-55 15.5l10 51h309l-10 -51q-53 0 -69.5 -14
t0.5 -48l67 -156l116 155q22 26 13.5 44t-47.5 19l10 51h242z" />
    <glyph glyph-name="brokenbar" unicode="&#xa6;" horiz-adv-x="544" 
d="M319 400h-94v350h94v-350zM225 120h94v-350h-94v350z" />
    <glyph glyph-name="section" unicode="&#xa7;" horiz-adv-x="499" 
d="M106 371q0 67 22 125.5t55.5 97t75.5 66.5t81.5 40.5t72.5 12.5q46 0 81 -19.5t35 -54.5q0 -24 -19.5 -42t-43.5 -18t-38 9.5t-18 21.5t-14.5 21.5t-30.5 9.5q-25 0 -41 -32t-16 -63q0 -36 18 -83t40 -87.5t40 -98t18 -109.5q0 -78 -33.5 -144t-86 -107t-114 -64
t-121.5 -23q-38 0 -65.5 18.5t-27.5 52.5q0 28 20.5 49.5t47.5 21.5q20 0 33 -10.5t17.5 -22.5t17.5 -22.5t33 -10.5q29 0 45 34t16 77q0 50 -25 108.5t-50 121.5t-25 124zM277 -10l6 -6q55 63 55 156q0 55 -26 122t-52 128.5t-26 103.5q0 23 7 43l-7 4q-19 -22 -30.5 -58
t-11.5 -69q0 -62 50 -175t50 -172q0 -38 -15 -77z" />
    <glyph glyph-name="dieresis" unicode="&#xa8;" horiz-adv-x="500" 
d="M422 576q0 -27 -21 -47.5t-47 -20.5q-28 0 -49 20.5t-21 47.5q0 28 21 49t49 21q26 0 47 -21.5t21 -48.5zM242 576q0 -27 -20 -47.5t-49 -20.5q-27 0 -48 20.5t-21 47.5q0 28 21 49t48 21q29 0 49 -21t20 -49z" />
    <glyph glyph-name="copyright" unicode="&#xa9;" horiz-adv-x="775" 
d="M48 327q0 138 100.5 238t239.5 100q144 0 241.5 -99t97.5 -239q0 -143 -99.5 -242t-239.5 -99q-142 0 -241 96.5t-99 244.5zM108 324q0 -122 79 -203.5t203 -81.5q123 0 199.5 81t76.5 204q0 125 -79 208t-199 83q-122 0 -201 -83.5t-79 -207.5zM397 183q45 0 70.5 19.5
t39.5 62.5h28v-82q-67 -43 -140 -43q-82 0 -137 50t-55 138q0 84 55 135t137 51q67 0 136 -37v-85h-30q-16 46 -42.5 64t-63.5 18q-51 0 -81.5 -35t-30.5 -110q0 -71 34.5 -108.5t79.5 -37.5z" />
    <glyph glyph-name="ordfeminine" unicode="&#xaa;" horiz-adv-x="428" 
d="M378 313q-77 0 -74 82q-18 -39 -51 -62.5t-68 -23.5q-52 0 -81 31t-29 86q0 111 57.5 199.5t131.5 88.5q46 0 74 -41q17 30 19 33h94l-57 -252q-7 -31 -7 -45q0 -25 13 -25q25 0 33 89l48 -5q-8 -79 -32.5 -117t-70.5 -38zM214 384q25 0 52 58t47 168q-14 30 -41 30
q-28 0 -53.5 -60t-25.5 -137q0 -59 21 -59z" />
    <glyph glyph-name="guillemotleft" unicode="&#xab;" horiz-adv-x="652" 
d="M103 225l274 234l43 -30l-186 -221l-5 -15l46 -183l-59 -14l-120 206zM310 225l274 234l43 -30l-186 -221l-5 -15l46 -183l-59 -14l-120 206z" />
    <glyph glyph-name="logicalnot" unicode="&#xac;" horiz-adv-x="544" 
d="M408 52v177h-368v84h457v-261h-89z" />
    <glyph glyph-name="registered" unicode="&#xae;" horiz-adv-x="508" 
d="M130 503q0 88 63 151t151 63q91 0 152.5 -62.5t61.5 -151.5q0 -88 -63 -151t-151 -63q-89 0 -151.5 61t-62.5 153zM174 502q0 -76 48 -125.5t123 -49.5q70 0 119.5 50.5t49.5 124.5q0 77 -49 126.5t-121 49.5q-78 0 -124 -49.5t-46 -126.5zM377 508v-8q14 -6 38 -39.5
t37 -42.5l15 -7v-20h-55q-14 10 -41.5 52t-47.5 50h-13v-75l37 -7v-20h-114v20l27 7v183l-27 7v20h116q29 0 57 -14t28 -48q0 -20 -15.5 -36.5t-41.5 -21.5zM310 601v-82h26q23 0 34.5 13.5t11.5 31.5q0 37 -40 37h-32z" />
    <glyph glyph-name="macron" unicode="&#xaf;" horiz-adv-x="500" 
d="M382 524h-264v79h264v-79z" />
    <glyph glyph-name="degree" unicode="&#xb0;" horiz-adv-x="367" 
d="M86 555q0 63 44.5 108t106.5 45q63 0 108 -45t45 -108q0 -62 -45 -106.5t-108 -44.5q-61 0 -106 45t-45 106zM172 555q0 -31 17.5 -52t46.5 -21q30 0 48 21t18 52q0 32 -18 54t-48 22q-29 0 -46.5 -22t-17.5 -54z" />
    <glyph glyph-name="plusminus" unicode="&#xb1;" horiz-adv-x="620" 
d="M573 307h-220v-191h-86v191h-220v86h220v192h86v-192h220v-86zM573 0h-526v86h526v-86z" />
    <glyph glyph-name="two.sups" unicode="&#xb2;" horiz-adv-x="320" 
d="M219 500l2 -7h81q24 0 40 45h58l-48 -122h-266l-4 46l26 18q212 140 212 226q0 44 -33 44q-26 0 -45 -25l24 -52q-4 -22 -23 -35t-45 -13q-57 0 -57 45q0 56 53.5 94t108.5 38q60 0 94 -24t34 -67q0 -24 -14.5 -49t-32.5 -44t-53 -44t-55.5 -38t-61.5 -38z" />
    <glyph glyph-name="three.sups" unicode="&#xb3;" horiz-adv-x="312" 
d="M317 622l1 -5q34 -7 56 -26t22 -49q0 -61 -58 -96.5t-134 -35.5q-52 0 -85 18.5t-33 53.5q0 26 20 44.5t47 18.5q21 0 35 -12t12 -27l-31 -41q9 -7 34 -7q32 0 57 19.5t25 59.5q0 41 -43 41q-20 0 -56 -12l-7 43q129 45 129 113q0 35 -26 35q-13 0 -32 -12q16 -35 17 -38
q-4 -18 -21.5 -29.5t-40.5 -11.5q-25 0 -39.5 10.5t-14.5 28.5q0 45 48.5 71t102.5 26q56 0 89 -21.5t33 -58.5q0 -60 -113 -102z" />
    <glyph glyph-name="acute" unicode="&#xb4;" horiz-adv-x="500" 
d="M185 488v18l86 154h124v-20l-139 -152h-71z" />
    <glyph glyph-name="mu" unicode="&#xb5;" horiz-adv-x="544" 
d="M368 27l-8 6q-59 -45 -119 -45q-44 0 -76 27q1 -26 4 -64.5t4.5 -64t1.5 -38.5q0 -60 -56 -60q-50 0 -50 52q0 17 6 120.5t8 159.5q-1 7 -1 21v257l-63 11v38l174 18v-304q0 -56 17 -78.5t54 -22.5q54 0 88 32v306l-63 11v38l174 18v-364q0 -43 21 -43q20 0 34 34l28 -11
q-18 -47 -51 -68.5t-63 -21.5q-26 0 -37.5 7t-26.5 29z" />
    <glyph glyph-name="mu" unicode="&#x3bc;" horiz-adv-x="544" 
d="M368 27l-8 6q-59 -45 -119 -45q-44 0 -76 27q1 -26 4 -64.5t4.5 -64t1.5 -38.5q0 -60 -56 -60q-50 0 -50 52q0 17 6 120.5t8 159.5q-1 7 -1 21v257l-63 11v38l174 18v-304q0 -56 17 -78.5t54 -22.5q54 0 88 32v306l-63 11v38l174 18v-364q0 -43 21 -43q20 0 34 34l28 -11
q-18 -47 -51 -68.5t-63 -21.5q-26 0 -37.5 7t-26.5 29z" />
    <glyph glyph-name="paragraph" unicode="&#xb6;" horiz-adv-x="559" 
d="M646 706l-18 -82h-48l-166 -781h-70l166 781h-55l-166 -781h-70l85 400q-127 0 -183.5 62t-33.5 170q23 105 105.5 168t190.5 63h263zM318 310l67 314q-49 0 -88.5 -44.5t-54.5 -117.5q-15 -69 4.5 -110.5t71.5 -41.5z" />
    <glyph glyph-name="periodcentered" unicode="&#xb7;" horiz-adv-x="253" 
d="M46 282q0 35 24 59.5t58 24.5t59 -25t25 -59t-24.5 -58t-59.5 -24q-34 0 -58 24t-24 58z" />
    <glyph glyph-name="cedilla" unicode="&#xb8;" horiz-adv-x="500" 
d="M177 -244l-8 35q87 17 87 57q0 37 -61 37q-16 0 -30 -2l-5 7l82 130h55l-45 -70q78 0 78 -72q0 -45 -45 -78.5t-108 -43.5z" />
    <glyph glyph-name="one.sups" unicode="&#xb9;" horiz-adv-x="270" 
d="M146 732l9 45q20 -2 40 -2q52 0 111 19h38l-63 -296q-3 -21 11 -27.5t50 -6.5l-9 -48h-246l9 48q37 0 54.5 7.5t21.5 26.5l47 219q-45 2 -73 15z" />
    <glyph glyph-name="ordmasculine" unicode="&#xba;" horiz-adv-x="376" 
d="M420 560q0 -103 -58.5 -177t-145.5 -74q-68 0 -106.5 36.5t-38.5 103.5q0 116 64 190.5t142 74.5q71 0 107 -41t36 -113zM226 380q37 0 57 68t20 139q0 56 -32 56q-36 0 -59.5 -63.5t-23.5 -141.5q0 -58 38 -58z" />
    <glyph glyph-name="guillemotright" unicode="&#xbb;" horiz-adv-x="652" 
d="M569 230l-274 -234l-43 30l186 221l5 15l-46 183l59 14l120 -206zM362 230l-274 -234l-43 30l186 221l5 15l-46 183l59 14l120 -206z" />
    <glyph glyph-name="onequarter" unicode="&#xbc;" 
d="M120 -9l307 370l285 353l45 -36l-295 -349l-297 -375zM155 625l9 45q20 -2 40 -2q52 0 111 19h38l-63 -296q-3 -21 11 -27.5t50 -6.5l-9 -48h-246l9 48q37 0 54.5 7.5t21.5 26.5l47 219q-45 2 -73 15zM409 99l-1 22l252 257l57 -8l-47 -224h51l-8 -47h-52l-5 -20
q-6 -27 3 -33.5t40 -6.5l-10 -48h-200l9 48q25 0 37 8t18 29q1 4 3 11.5t2 11.5h-149zM495 146h72l18 86l-83 -85z" />
    <glyph glyph-name="onehalf" unicode="&#xbd;" 
d="M120 -9l307 370l285 353l45 -36l-295 -349l-297 -375zM155 625l9 45q20 -2 40 -2q52 0 111 19h38l-63 -296q-3 -21 11 -27.5t50 -6.5l-9 -48h-246l9 48q37 0 54.5 7.5t21.5 26.5l47 219q-45 2 -73 15zM565 75l2 -7h81q24 0 40 45h58l-48 -122h-266l-4 46l26 18
q212 140 212 226q0 44 -33 44q-26 0 -45 -25l24 -52q-4 -22 -23 -35t-45 -13q-57 0 -57 45q0 56 53.5 94t108.5 38q60 0 94 -24t34 -67q0 -24 -14.5 -49t-32.5 -44t-53 -44t-55.5 -38t-61.5 -38z" />
    <glyph glyph-name="threequarters" unicode="&#xbe;" 
d="M120 -9l307 370l285 353l45 -36l-295 -349l-297 -375zM291 515l1 -5q34 -7 56 -26t22 -49q0 -61 -58 -96.5t-134 -35.5q-52 0 -85 18.5t-33 53.5q0 26 20 44.5t47 18.5q21 0 35 -12t12 -27l-31 -41q9 -7 34 -7q32 0 57 19.5t25 59.5q0 41 -43 41q-20 0 -56 -12l-7 43
q129 45 129 113q0 35 -26 35q-13 0 -32 -12q16 -35 17 -38q-4 -18 -21.5 -29.5t-40.5 -11.5q-25 0 -39.5 10.5t-14.5 28.5q0 45 48.5 71t102.5 26q56 0 89 -21.5t33 -58.5q0 -60 -113 -102zM409 99l-1 22l252 257l57 -8l-47 -224h51l-8 -47h-52l-5 -20q-6 -27 3 -33.5
t40 -6.5l-10 -48h-200l9 48q25 0 37 8t18 29q1 4 3 11.5t2 11.5h-149zM495 146h72l18 86l-83 -85z" />
    <glyph glyph-name="questiondown" unicode="&#xbf;" horiz-adv-x="473" 
d="M18 -50q0 47 38 89.5t83 69t83 58t38 58.5q0 33 -36 33q-42 0 -51 -64l-56 16q36 132 153 132q52 0 92.5 -26.5t40.5 -77.5q0 -36 -25.5 -70t-62 -60.5t-73 -51.5t-62 -54.5t-25.5 -58.5q0 -19 12 -31t34 -12q36 0 61 35t25 109l73 12q8 -108 -39.5 -174.5t-134.5 -66.5
q-79 0 -123.5 39t-44.5 96zM420 470q0 -38 -23.5 -59t-56.5 -21q-32 0 -56.5 21.5t-24.5 58.5q0 33 23.5 56t57.5 23q35 0 57.5 -23t22.5 -56z" />
    <glyph glyph-name="Agrave" unicode="&#xc0;" horiz-adv-x="720" 
d="M450 124l-11 63h-218l-35 -61q-12 -23 2.5 -32t64.5 -9l-18 -85h-262l18 85q34 0 55 13t42 48l335 555h69l113 -562q8 -37 21 -45.5t59 -8.5l-18 -85h-318l18 85h27q41 0 51 6.5t5 32.5zM384 471l-116 -202h157l-35 202h-6zM519 765v-18h-71l-104 117v20h124z" />
    <glyph glyph-name="Aacute" unicode="&#xc1;" horiz-adv-x="720" 
d="M450 124l-11 63h-218l-35 -61q-12 -23 2.5 -32t64.5 -9l-18 -85h-262l18 85q34 0 55 13t42 48l335 555h69l113 -562q8 -37 21 -45.5t59 -8.5l-18 -85h-318l18 85h27q41 0 51 6.5t5 32.5zM384 471l-116 -202h157l-35 202h-6zM399 747v18l86 119h124v-20l-139 -117h-71z
" />
    <glyph glyph-name="Acircumflex" unicode="&#xc2;" horiz-adv-x="720" 
d="M450 124l-11 63h-218l-35 -61q-12 -23 2.5 -32t64.5 -9l-18 -85h-262l18 85q34 0 55 13t42 48l335 555h69l113 -562q8 -37 21 -45.5t59 -8.5l-18 -85h-318l18 85h27q41 0 51 6.5t5 32.5zM384 471l-116 -202h157l-35 202h-6zM608 765v-18h-37l-81 58l-127 -58h-45v18
l163 119h58z" />
    <glyph glyph-name="Atilde" unicode="&#xc3;" horiz-adv-x="720" 
d="M450 124l-11 63h-218l-35 -61q-12 -23 2.5 -32t64.5 -9l-18 -85h-262l18 85q34 0 55 13t42 48l335 555h69l113 -562q8 -37 21 -45.5t59 -8.5l-18 -85h-318l18 85h27q41 0 51 6.5t5 32.5zM384 471l-116 -202h157l-35 202h-6zM591 909l36 -10q-14 -54 -42.5 -95.5
t-54.5 -41.5q-16 0 -71 30t-71 30q-14 0 -24.5 -15.5t-23.5 -47.5l-39 12q11 45 41 91.5t48 46.5q21 0 72.5 -30.5t71.5 -30.5q16 0 33.5 20t23.5 41z" />
    <glyph glyph-name="Adieresis" unicode="&#xc4;" horiz-adv-x="720" 
d="M450 124l-11 63h-218l-35 -61q-12 -23 2.5 -32t64.5 -9l-18 -85h-262l18 85q34 0 55 13t42 48l335 555h69l113 -562q8 -37 21 -45.5t59 -8.5l-18 -85h-318l18 85h27q41 0 51 6.5t5 32.5zM384 471l-116 -202h157l-35 202h-6zM636 835q0 -27 -21 -47.5t-47 -20.5
q-28 0 -49 20.5t-21 47.5q0 28 21 49t49 21q26 0 47 -21.5t21 -48.5zM456 835q0 -27 -20 -47.5t-49 -20.5q-27 0 -48 20.5t-21 47.5q0 28 21 49t48 21q29 0 49 -21t20 -49z" />
    <glyph glyph-name="Aring" unicode="&#xc5;" horiz-adv-x="720" 
d="M450 124l-11 63h-218l-35 -61q-12 -23 2.5 -32t64.5 -9l-18 -85h-262l18 85q34 0 55 13t42 48l335 555h69l113 -562q8 -37 21 -45.5t59 -8.5l-18 -85h-318l18 85h27q41 0 51 6.5t5 32.5zM384 471l-116 -202h157l-35 202h-6zM370 845q0 43 30 73.5t73 30.5t73.5 -30.5
t30.5 -73.5t-30.5 -73t-73.5 -30t-73 30t-30 73zM426 845q0 -21 12.5 -35.5t33.5 -14.5q22 0 35.5 14.5t13.5 35.5q0 22 -13.5 37t-35.5 15q-21 0 -33.5 -15t-12.5 -37z" />
    <glyph glyph-name="AE" unicode="&#xc6;" horiz-adv-x="1024" 
d="M1007 257l-67 -257h-585l18 85q54 0 71.5 8.5t25.5 45.5l10 48h-234l-60 -61q-29 -32 31 -39l36 -2l-18 -85h-262l18 85q29 4 47.5 16.5t49.5 44.5l451 456q-15 5 -55 5l17 84h570l-38 -231h-74q5 85 -17.5 116t-87.5 31h-124l-50 -233h51q70 0 96 124h70l-66 -312h-70
q14 70 3.5 92.5t-55.5 22.5h-45l-45 -216h148q64 0 103 43t66 129h71zM529 471l-201 -202h169l44 202h-12z" />
    <glyph glyph-name="Ccedilla" unicode="&#xc7;" horiz-adv-x="684" 
d="M262 -236l-8 35q87 17 87 57q0 37 -61 37q-16 0 -30 -2l-5 7l57 92q-113 10 -175.5 80t-62.5 187t58 219.5t158 163.5t216 61q45 0 84 -15t52 -35l5 1l35 38h46l-52 -265h-62q0 76 -28 128.5t-89 52.5q-72 0 -130.5 -53t-88.5 -131.5t-30 -163.5t37.5 -129.5t111.5 -44.5
q63 0 112.5 38t77.5 113h70v-3q-35 -112 -114.5 -175t-176.5 -68l-19 -31q78 0 78 -72q0 -45 -45 -78.5t-108 -43.5z" />
    <glyph glyph-name="Egrave" unicode="&#xc8;" horiz-adv-x="661" 
d="M644 257l-67 -257h-585l18 85q54 0 71.5 8.5t25.5 45.5l89 417q7 31 -9 41t-66 10l17 84h570l-38 -231h-74q5 85 -17.5 116t-87.5 31h-124l-50 -233h51q70 0 96 124h70l-66 -312h-70q14 70 3.5 92.5t-55.5 22.5h-45l-45 -216h148q64 0 103 43t66 129h71zM503 765v-18h-71
l-104 117v20h124z" />
    <glyph glyph-name="Eacute" unicode="&#xc9;" horiz-adv-x="661" 
d="M644 257l-67 -257h-585l18 85q54 0 71.5 8.5t25.5 45.5l89 417q7 31 -9 41t-66 10l17 84h570l-38 -231h-74q5 85 -17.5 116t-87.5 31h-124l-50 -233h51q70 0 96 124h70l-66 -312h-70q14 70 3.5 92.5t-55.5 22.5h-45l-45 -216h148q64 0 103 43t66 129h71zM383 747v18
l86 119h124v-20l-139 -117h-71z" />
    <glyph glyph-name="Ecircumflex" unicode="&#xca;" horiz-adv-x="661" 
d="M644 257l-67 -257h-585l18 85q54 0 71.5 8.5t25.5 45.5l89 417q7 31 -9 41t-66 10l17 84h570l-38 -231h-74q5 85 -17.5 116t-87.5 31h-124l-50 -233h51q70 0 96 124h70l-66 -312h-70q14 70 3.5 92.5t-55.5 22.5h-45l-45 -216h148q64 0 103 43t66 129h71zM592 765v-18h-37
l-81 58l-127 -58h-45v18l163 119h58z" />
    <glyph glyph-name="Edieresis" unicode="&#xcb;" horiz-adv-x="661" 
d="M644 257l-67 -257h-585l18 85q54 0 71.5 8.5t25.5 45.5l89 417q7 31 -9 41t-66 10l17 84h570l-38 -231h-74q5 85 -17.5 116t-87.5 31h-124l-50 -233h51q70 0 96 124h70l-66 -312h-70q14 70 3.5 92.5t-55.5 22.5h-45l-45 -216h148q64 0 103 43t66 129h71zM620 835
q0 -27 -21 -47.5t-47 -20.5q-28 0 -49 20.5t-21 47.5q0 28 21 49t49 21q26 0 47 -21.5t21 -48.5zM440 835q0 -27 -20 -47.5t-49 -20.5q-27 0 -48 20.5t-21 47.5q0 28 21 49t48 21q29 0 49 -21t20 -49z" />
    <glyph glyph-name="Igrave" unicode="&#xcc;" horiz-adv-x="379" 
d="M458 691l-18 -86q-57 0 -70.5 -5.5t-19.5 -32.5l-93 -438q-6 -29 6 -36.5t67 -7.5l-18 -85h-325l18 85q58 0 71.5 7t20.5 37l93 438q6 28 -5.5 34t-68.5 6l17 84h325zM356 765v-18h-71l-104 117v20h124z" />
    <glyph glyph-name="Iacute" unicode="&#xcd;" horiz-adv-x="379" 
d="M458 691l-18 -86q-57 0 -70.5 -5.5t-19.5 -32.5l-93 -438q-6 -29 6 -36.5t67 -7.5l-18 -85h-325l18 85q58 0 71.5 7t20.5 37l93 438q6 28 -5.5 34t-68.5 6l17 84h325zM236 747v18l86 119h124v-20l-139 -117h-71z" />
    <glyph glyph-name="Icircumflex" unicode="&#xce;" horiz-adv-x="379" 
d="M458 691l-18 -86q-57 0 -70.5 -5.5t-19.5 -32.5l-93 -438q-6 -29 6 -36.5t67 -7.5l-18 -85h-325l18 85q58 0 71.5 7t20.5 37l93 438q6 28 -5.5 34t-68.5 6l17 84h325zM445 765v-18h-37l-81 58l-127 -58h-45v18l163 119h58z" />
    <glyph glyph-name="Idieresis" unicode="&#xcf;" horiz-adv-x="379" 
d="M458 691l-18 -86q-57 0 -70.5 -5.5t-19.5 -32.5l-93 -438q-6 -29 6 -36.5t67 -7.5l-18 -85h-325l18 85q58 0 71.5 7t20.5 37l93 438q6 28 -5.5 34t-68.5 6l17 84h325zM473 835q0 -27 -21 -47.5t-47 -20.5q-28 0 -49 20.5t-21 47.5q0 28 21 49t49 21q26 0 47 -21.5
t21 -48.5zM293 835q0 -27 -20 -47.5t-49 -20.5q-27 0 -48 20.5t-21 47.5q0 28 21 49t48 21q29 0 49 -21t20 -49z" />
    <glyph glyph-name="Eth" unicode="&#xd0;" horiz-adv-x="761" 
d="M760 408q0 -95 -38.5 -174t-101.5 -129t-138.5 -77.5t-152.5 -27.5h-337l18 85q58 2 73 6.5t20 27.5l39 187h-82l12 73h86l42 197q6 22 -13 27q-10 2 -66 4l17 84h290q92 0 159 -24.5t103.5 -66.5t53 -89.5t16.5 -102.5zM255 85h65q106 0 185.5 91t79.5 237
q0 89 -45 141.5t-142 52.5h-32l-49 -228h136l-12 -73h-139z" />
    <glyph glyph-name="Ntilde" unicode="&#xd1;" horiz-adv-x="752" 
d="M265 473h-4l-71 -336q-7 -33 14.5 -42.5t78.5 -9.5l-18 -85h-284l18 85q43 0 66.5 10t30.5 42l90 424q-27 46 -76 46l17 84h201l239 -448h4l68 314q5 26 -19.5 37.5t-86.5 11.5l18 85h286l-18 -85q-46 0 -63.5 -11.5t-23.5 -37.5l-120 -565h-87zM595 909l36 -10
q-14 -54 -42.5 -95.5t-54.5 -41.5q-16 0 -71 30t-71 30q-14 0 -24.5 -15.5t-23.5 -47.5l-39 12q11 45 41 91.5t48 46.5q21 0 72.5 -30.5t71.5 -30.5q16 0 33.5 20t23.5 41z" />
    <glyph glyph-name="Ograve" unicode="&#xd2;" horiz-adv-x="751" 
d="M754 432q0 -127 -62 -230.5t-158 -158.5t-202 -55q-131 0 -199.5 71t-68.5 196q0 96 36.5 180.5t96 142t133.5 90.5t149 33q126 0 200.5 -73t74.5 -196zM352 84q57 0 103 38t72.5 97t40.5 123t14 124q0 69 -30.5 104.5t-87.5 35.5q-100 0 -164.5 -113.5t-64.5 -260.5
q0 -77 27.5 -112.5t89.5 -35.5zM544 765v-18h-71l-104 117v20h124z" />
    <glyph glyph-name="Oacute" unicode="&#xd3;" horiz-adv-x="751" 
d="M754 432q0 -127 -62 -230.5t-158 -158.5t-202 -55q-131 0 -199.5 71t-68.5 196q0 96 36.5 180.5t96 142t133.5 90.5t149 33q126 0 200.5 -73t74.5 -196zM352 84q57 0 103 38t72.5 97t40.5 123t14 124q0 69 -30.5 104.5t-87.5 35.5q-100 0 -164.5 -113.5t-64.5 -260.5
q0 -77 27.5 -112.5t89.5 -35.5zM424 747v18l86 119h124v-20l-139 -117h-71z" />
    <glyph glyph-name="Ocircumflex" unicode="&#xd4;" horiz-adv-x="751" 
d="M754 432q0 -127 -62 -230.5t-158 -158.5t-202 -55q-131 0 -199.5 71t-68.5 196q0 96 36.5 180.5t96 142t133.5 90.5t149 33q126 0 200.5 -73t74.5 -196zM352 84q57 0 103 38t72.5 97t40.5 123t14 124q0 69 -30.5 104.5t-87.5 35.5q-100 0 -164.5 -113.5t-64.5 -260.5
q0 -77 27.5 -112.5t89.5 -35.5zM633 765v-18h-37l-81 58l-127 -58h-45v18l163 119h58z" />
    <glyph glyph-name="Otilde" unicode="&#xd5;" horiz-adv-x="751" 
d="M754 432q0 -127 -62 -230.5t-158 -158.5t-202 -55q-131 0 -199.5 71t-68.5 196q0 96 36.5 180.5t96 142t133.5 90.5t149 33q126 0 200.5 -73t74.5 -196zM352 84q57 0 103 38t72.5 97t40.5 123t14 124q0 69 -30.5 104.5t-87.5 35.5q-100 0 -164.5 -113.5t-64.5 -260.5
q0 -77 27.5 -112.5t89.5 -35.5zM616 909l36 -10q-14 -54 -42.5 -95.5t-54.5 -41.5q-17 0 -71 30t-71 30q-14 0 -24.5 -15.5t-23.5 -47.5l-39 12q11 45 41 91.5t48 46.5q21 0 72.5 -30.5t71.5 -30.5q16 0 33.5 20t23.5 41z" />
    <glyph glyph-name="Odieresis" unicode="&#xd6;" horiz-adv-x="751" 
d="M754 432q0 -127 -62 -230.5t-158 -158.5t-202 -55q-131 0 -199.5 71t-68.5 196q0 96 36.5 180.5t96 142t133.5 90.5t149 33q126 0 200.5 -73t74.5 -196zM352 84q57 0 103 38t72.5 97t40.5 123t14 124q0 69 -30.5 104.5t-87.5 35.5q-100 0 -164.5 -113.5t-64.5 -260.5
q0 -77 27.5 -112.5t89.5 -35.5zM661 835q0 -27 -21 -47.5t-47 -20.5q-28 0 -49 20.5t-21 47.5q0 28 21 49t49 21q26 0 47 -21.5t21 -48.5zM481 835q0 -27 -20 -47.5t-49 -20.5q-27 0 -48 20.5t-21 47.5q0 28 21 49t48 21q29 0 49 -21t20 -49z" />
    <glyph glyph-name="multiply" unicode="&#xd7;" horiz-adv-x="620" 
d="M485 27l-175 175l-176 -175l-61 61l175 176l-175 175l61 62l176 -176l175 176l62 -62l-176 -175l176 -176z" />
    <glyph glyph-name="Oslash" unicode="&#xd8;" horiz-adv-x="751" 
d="M754 432q0 -127 -62 -230.5t-158 -158.5t-202 -55q-92 0 -155 36l-60 -68h-88l96 110q-61 68 -61 189q0 96 36.5 180.5t96 142t133.5 90.5t149 33q97 0 163 -43l45 51h88l-83 -95q62 -71 62 -182zM235 232q0 -16 2 -38l321 367q-30 45 -94 45q-100 0 -164.5 -113.5
t-64.5 -260.5zM352 84q57 0 103 38t72.5 97t40.5 123t14 124q0 14 -1 21l-320 -366q28 -37 91 -37z" />
    <glyph glyph-name="Ugrave" unicode="&#xd9;" horiz-adv-x="747" 
d="M831 691l-17 -84q-46 0 -65 -10t-24 -33l-70 -333q-51 -243 -307 -243q-133 0 -198.5 56t-38.5 181l72 342q5 27 -4.5 33.5t-62.5 6.5l17 84h321l-17 -84q-56 0 -72 -6.5t-22 -33.5l-68 -322q-17 -80 15 -119t102 -39q77 0 119 38t59 121l67 318q5 24 -13 33.5t-72 9.5
l17 84h262zM569 765v-18h-71l-104 117v20h124z" />
    <glyph glyph-name="Uacute" unicode="&#xda;" horiz-adv-x="747" 
d="M831 691l-17 -84q-46 0 -65 -10t-24 -33l-70 -333q-51 -243 -307 -243q-133 0 -198.5 56t-38.5 181l72 342q5 27 -4.5 33.5t-62.5 6.5l17 84h321l-17 -84q-56 0 -72 -6.5t-22 -33.5l-68 -322q-17 -80 15 -119t102 -39q77 0 119 38t59 121l67 318q5 24 -13 33.5t-72 9.5
l17 84h262zM449 747v18l86 119h124v-20l-139 -117h-71z" />
    <glyph glyph-name="Ucircumflex" unicode="&#xdb;" horiz-adv-x="747" 
d="M831 691l-17 -84q-46 0 -65 -10t-24 -33l-70 -333q-51 -243 -307 -243q-133 0 -198.5 56t-38.5 181l72 342q5 27 -4.5 33.5t-62.5 6.5l17 84h321l-17 -84q-56 0 -72 -6.5t-22 -33.5l-68 -322q-17 -80 15 -119t102 -39q77 0 119 38t59 121l67 318q5 24 -13 33.5t-72 9.5
l17 84h262zM658 765v-18h-37l-81 58l-127 -58h-45v18l163 119h58z" />
    <glyph glyph-name="Udieresis" unicode="&#xdc;" horiz-adv-x="747" 
d="M831 691l-17 -84q-46 0 -65 -10t-24 -33l-70 -333q-51 -243 -307 -243q-133 0 -198.5 56t-38.5 181l72 342q5 27 -4.5 33.5t-62.5 6.5l17 84h321l-17 -84q-56 0 -72 -6.5t-22 -33.5l-68 -322q-17 -80 15 -119t102 -39q77 0 119 38t59 121l67 318q5 24 -13 33.5t-72 9.5
l17 84h262zM686 835q0 -27 -21 -47.5t-47 -20.5q-28 0 -49 20.5t-21 47.5q0 28 21 49t49 21q26 0 47 -21.5t21 -48.5zM506 835q0 -27 -20 -47.5t-49 -20.5q-27 0 -48 20.5t-21 47.5q0 28 21 49t48 21q29 0 49 -21t20 -49z" />
    <glyph glyph-name="Yacute" unicode="&#xdd;" horiz-adv-x="684" 
d="M753 609l-2 -2q-61 0 -120 -79l-177 -228l-27 -129q-13 -58 1.5 -72t71.5 -14l-18 -85h-333l18 85q57 0 72.5 13t28.5 73l27 129l-87 218q-17 36 -21 45t-16.5 24t-25.5 17.5t-36 2.5l17 84h331l-17 -84q-57 0 -71.5 -13.5t0.5 -54.5l52 -150l109 149q24 27 14.5 47.5
t-51.5 21.5l17 84h260zM424 747v18l86 119h124v-20l-139 -117h-71z" />
    <glyph glyph-name="Thorn" unicode="&#xde;" horiz-adv-x="623" 
d="M628 392q-1 -64 -29 -114t-73.5 -78t-96.5 -42t-104 -14h-57l-2 -11q-7 -32 7.5 -40t68.5 -8l-18 -85h-332l18 85q53 0 71 8t25 40l90 424q6 31 -11 40t-65 9l18 85h332l-18 -85q-52 0 -70.5 -7.5t-25.5 -41.5l-1 -5h70q54 0 97 -13t74.5 -50.5t31.5 -96.5zM374 468h-37
l-51 -240h41q57 0 95.5 38t38.5 112q0 90 -87 90z" />
    <glyph glyph-name="germandbls" unicode="&#xdf;" horiz-adv-x="513" 
d="M95 454q8 84 34.5 145.5t62.5 92.5t70 44.5t67 13.5q76 0 122 -44t46 -102q0 -39 -21 -72.5t-45.5 -51l-45.5 -32.5t-21 -22q0 -5 19.5 -20.5t43 -34.5t43 -57t19.5 -82q0 -105 -67.5 -171.5t-155.5 -67.5q-56 0 -94 18l20 82q21 -12 52 -12q39 0 69 42.5t30 107.5
q0 40 -12.5 72.5t-28 49t-28 34.5t-12.5 34q0 14 15.5 31.5t33.5 34t33.5 46t15.5 64.5t-13 55.5t-31 20.5q-44 0 -63.5 -59.5t-27.5 -164.5q-20 -162 -44 -283t-48 -195t-52 -118.5t-54 -61t-57 -16.5q-45 0 -73.5 17t-28.5 53q0 45 22.5 74.5t57.5 29.5q10 -70 41 -94
q61 75 106 599z" />
    <glyph glyph-name="agrave" unicode="&#xe0;" horiz-adv-x="535" 
d="M322 102h-8q-20 -55 -60.5 -84.5t-86.5 -29.5q-62 0 -97.5 39.5t-35.5 108.5q0 143 71 256t163 113q63 0 89 -60h3l28 50h109l-72 -322q-21 -93 13 -93t46 115l51 -6q-11 -101 -40 -148.5t-85 -47.5q-46 0 -69 28.5t-19 80.5zM204 80q35 0 70 73.5t60 222.5
q-6 16 -21.5 27.5t-34.5 11.5q-38 0 -72 -78t-34 -178q0 -79 32 -79zM391 573v-18h-71l-139 152v20h124z" />
    <glyph glyph-name="aacute" unicode="&#xe1;" horiz-adv-x="535" 
d="M322 102h-8q-20 -55 -60.5 -84.5t-86.5 -29.5q-62 0 -97.5 39.5t-35.5 108.5q0 143 71 256t163 113q63 0 89 -60h3l28 50h109l-72 -322q-21 -93 13 -93t46 115l51 -6q-11 -101 -40 -148.5t-85 -47.5q-46 0 -69 28.5t-19 80.5zM204 80q35 0 70 73.5t60 222.5
q-6 16 -21.5 27.5t-34.5 11.5q-38 0 -72 -78t-34 -178q0 -79 32 -79zM261 555v18l86 154h124v-20l-139 -152h-71z" />
    <glyph glyph-name="acircumflex" unicode="&#xe2;" horiz-adv-x="535" 
d="M322 102h-8q-20 -55 -60.5 -84.5t-86.5 -29.5q-62 0 -97.5 39.5t-35.5 108.5q0 143 71 256t163 113q63 0 89 -60h3l28 50h109l-72 -322q-21 -93 13 -93t46 115l51 -6q-11 -101 -40 -148.5t-85 -47.5q-46 0 -69 28.5t-19 80.5zM204 80q35 0 70 73.5t60 222.5
q-6 16 -21.5 27.5t-34.5 11.5q-38 0 -72 -78t-34 -178q0 -79 32 -79zM450 573v-18h-37l-66 78l-102 -78h-45v18l143 154h58z" />
    <glyph glyph-name="atilde" unicode="&#xe3;" horiz-adv-x="535" 
d="M322 102h-8q-20 -55 -60.5 -84.5t-86.5 -29.5q-62 0 -97.5 39.5t-35.5 108.5q0 143 71 256t163 113q63 0 89 -60h3l28 50h109l-72 -322q-21 -93 13 -93t46 115l51 -6q-11 -101 -40 -148.5t-85 -47.5q-46 0 -69 28.5t-19 80.5zM204 80q35 0 70 73.5t60 222.5
q-6 16 -21.5 27.5t-34.5 11.5q-38 0 -72 -78t-34 -178q0 -79 32 -79zM453 717l36 -10q-14 -54 -42.5 -95.5t-54.5 -41.5q-16 0 -71 30t-71 30q-14 0 -24.5 -15.5t-23.5 -47.5l-39 12q11 45 41 91.5t48 46.5q21 0 72.5 -30.5t71.5 -30.5q16 0 33.5 20t23.5 41z" />
    <glyph glyph-name="adieresis" unicode="&#xe4;" horiz-adv-x="535" 
d="M322 102h-8q-20 -55 -60.5 -84.5t-86.5 -29.5q-62 0 -97.5 39.5t-35.5 108.5q0 143 71 256t163 113q63 0 89 -60h3l28 50h109l-72 -322q-21 -93 13 -93t46 115l51 -6q-11 -101 -40 -148.5t-85 -47.5q-46 0 -69 28.5t-19 80.5zM204 80q35 0 70 73.5t60 222.5
q-6 16 -21.5 27.5t-34.5 11.5q-38 0 -72 -78t-34 -178q0 -79 32 -79zM498 643q0 -27 -21 -47.5t-47 -20.5q-28 0 -49 20.5t-21 47.5q0 28 21 49t49 21q26 0 47 -21.5t21 -48.5zM318 643q0 -27 -20 -47.5t-49 -20.5q-27 0 -48 20.5t-21 47.5q0 28 21 49t48 21q29 0 49 -21
t20 -49z" />
    <glyph glyph-name="aring" unicode="&#xe5;" horiz-adv-x="535" 
d="M322 102h-8q-20 -55 -60.5 -84.5t-86.5 -29.5q-62 0 -97.5 39.5t-35.5 108.5q0 143 71 256t163 113q63 0 89 -60h3l28 50h109l-72 -322q-21 -93 13 -93t46 115l51 -6q-11 -101 -40 -148.5t-85 -47.5q-46 0 -69 28.5t-19 80.5zM204 80q35 0 70 73.5t60 222.5
q-6 16 -21.5 27.5t-34.5 11.5q-38 0 -72 -78t-34 -178q0 -79 32 -79zM232 653q0 43 30 73.5t73 30.5t73.5 -30.5t30.5 -73.5t-30.5 -73t-73.5 -30t-73 30t-30 73zM288 653q0 -21 12.5 -35.5t33.5 -14.5q22 0 35.5 14.5t13.5 35.5q0 22 -13.5 37t-35.5 15q-21 0 -33.5 -15
t-12.5 -37z" />
    <glyph glyph-name="ae" unicode="&#xe6;" horiz-adv-x="709" 
d="M712 388q0 -37 -19.5 -70.5t-57 -62t-78 -50.5t-95.5 -45q-8 -89 67 -89q71 0 126 112l50 -26q-85 -169 -210 -169q-138 0 -169 114h-7q-21 -55 -63 -84.5t-89 -29.5q-62 0 -97.5 39.5t-35.5 108.5q0 143 71 256t163 113q63 0 89 -60h3l28 50h59l-9 -40q62 50 132 50
q60 0 101 -32t41 -85zM204 80q35 0 70 73.5t60 222.5q-6 16 -21.5 27.5t-34.5 11.5q-38 0 -72 -78t-34 -178q0 -79 32 -79zM585 383q0 18 -7.5 28.5t-18.5 10.5q-37 0 -66 -60t-32 -139q124 70 124 160z" />
    <glyph glyph-name="ccedilla" unicode="&#xe7;" horiz-adv-x="409" 
d="M123 -239l-8 35q87 17 87 57q0 37 -61 37q-16 0 -30 -2l-5 7l59 94q-58 6 -95 51t-37 122q0 141 78 242t171 101q52 0 87.5 -31.5t35.5 -85.5q0 -82 -93 -99q0 7 -0.5 21t-1 21.5t-1.5 19.5t-2 18t-3 15t-4.5 13.5t-6.5 9t-9 6.5t-12 2q-37 0 -69 -68.5t-32 -187.5
q0 -81 55 -81q26 0 53.5 31t46.5 76l61 -30q-68 -141 -165 -163l-24 -37q78 0 78 -72q0 -45 -45 -78.5t-108 -43.5z" />
    <glyph glyph-name="egrave" unicode="&#xe8;" horiz-adv-x="425" 
d="M428 388q0 -37 -19.5 -70.5t-57 -62t-78 -50.5t-95.5 -45q-8 -89 67 -89q71 0 126 112l50 -26q-87 -169 -215 -169q-172 0 -172 188q0 141 76.5 235t175.5 94q60 0 101 -32t41 -85zM301 383q0 18 -7.5 28.5t-18.5 10.5q-37 0 -66 -60t-32 -139q124 70 124 160zM365 573
v-18h-71l-139 152v20h124z" />
    <glyph glyph-name="eacute" unicode="&#xe9;" horiz-adv-x="425" 
d="M428 388q0 -37 -19.5 -70.5t-57 -62t-78 -50.5t-95.5 -45q-8 -89 67 -89q71 0 126 112l50 -26q-87 -169 -215 -169q-172 0 -172 188q0 141 76.5 235t175.5 94q60 0 101 -32t41 -85zM301 383q0 18 -7.5 28.5t-18.5 10.5q-37 0 -66 -60t-32 -139q124 70 124 160zM235 555
v18l86 154h124v-20l-139 -152h-71z" />
    <glyph glyph-name="ecircumflex" unicode="&#xea;" horiz-adv-x="425" 
d="M428 388q0 -37 -19.5 -70.5t-57 -62t-78 -50.5t-95.5 -45q-8 -89 67 -89q71 0 126 112l50 -26q-87 -169 -215 -169q-172 0 -172 188q0 141 76.5 235t175.5 94q60 0 101 -32t41 -85zM301 383q0 18 -7.5 28.5t-18.5 10.5q-37 0 -66 -60t-32 -139q124 70 124 160zM424 573
v-18h-37l-66 78l-102 -78h-45v18l143 154h58z" />
    <glyph glyph-name="edieresis" unicode="&#xeb;" horiz-adv-x="425" 
d="M428 388q0 -37 -19.5 -70.5t-57 -62t-78 -50.5t-95.5 -45q-8 -89 67 -89q71 0 126 112l50 -26q-87 -169 -215 -169q-172 0 -172 188q0 141 76.5 235t175.5 94q60 0 101 -32t41 -85zM301 383q0 18 -7.5 28.5t-18.5 10.5q-37 0 -66 -60t-32 -139q124 70 124 160zM472 643
q0 -27 -21 -47.5t-47 -20.5q-28 0 -49 20.5t-21 47.5q0 28 21 49t49 21q26 0 47 -21.5t21 -48.5zM292 643q0 -27 -20 -47.5t-49 -20.5q-27 0 -48 20.5t-21 47.5q0 28 21 49t48 21q29 0 49 -21t20 -49z" />
    <glyph glyph-name="igrave" unicode="&#xec;" horiz-adv-x="320" 
d="M269 372l-63 -264q-5 -25 14 -25q29 0 50 107l50 -6q-18 -104 -49.5 -147.5t-89.5 -43.5q-64 0 -91 42.5t-11 102.5l64 227q10 40 -5 40q-30 0 -68 -121l-49 8q41 213 163 213q58 0 78 -39t7 -94zM274 573v-18h-71l-139 152v20h124z" />
    <glyph glyph-name="iacute" unicode="&#xed;" horiz-adv-x="320" 
d="M269 372l-63 -264q-5 -25 14 -25q29 0 50 107l50 -6q-18 -104 -49.5 -147.5t-89.5 -43.5q-64 0 -91 42.5t-11 102.5l64 227q10 40 -5 40q-30 0 -68 -121l-49 8q41 213 163 213q58 0 78 -39t7 -94zM144 555v18l86 154h124v-20l-139 -152h-71z" />
    <glyph glyph-name="icircumflex" unicode="&#xee;" horiz-adv-x="320" 
d="M269 372l-63 -264q-5 -25 14 -25q29 0 50 107l50 -6q-18 -104 -49.5 -147.5t-89.5 -43.5q-64 0 -91 42.5t-11 102.5l64 227q10 40 -5 40q-30 0 -68 -121l-49 8q41 213 163 213q58 0 78 -39t7 -94zM333 573v-18h-37l-66 78l-102 -78h-45v18l143 154h58z" />
    <glyph glyph-name="idieresis" unicode="&#xef;" horiz-adv-x="320" 
d="M269 372l-63 -264q-5 -25 14 -25q29 0 50 107l50 -6q-18 -104 -49.5 -147.5t-89.5 -43.5q-64 0 -91 42.5t-11 102.5l64 227q10 40 -5 40q-30 0 -68 -121l-49 8q41 213 163 213q58 0 78 -39t7 -94zM381 643q0 -27 -21 -47.5t-47 -20.5q-28 0 -49 20.5t-21 47.5q0 28 21 49
t49 21q26 0 47 -21.5t21 -48.5zM201 643q0 -27 -20 -47.5t-49 -20.5q-27 0 -48 20.5t-21 47.5q0 28 21 49t48 21q29 0 49 -21t20 -49z" />
    <glyph glyph-name="eth" unicode="&#xf0;" horiz-adv-x="470" 
d="M148 567l74 49q-32 33 -83 69l37 55q66 -35 115 -78l99 66l36 -47l-91 -61q121 -136 121 -330q0 -72 -25 -139t-81 -115t-130 -48q-86 0 -136 51t-50 146q0 142 71.5 231t165.5 89q13 0 25 -6l3 6q-16 38 -38 66l-77 -51zM318 324q0 90 -51 90q-47 0 -71 -73.5
t-24 -174.5q0 -83 57 -83q42 0 65.5 71t23.5 170z" />
    <glyph glyph-name="ntilde" unicode="&#xf1;" horiz-adv-x="572" 
d="M202 31l-54 -31h-86l70 329q4 21 6 32.5t3 22.5t-2 16t-9 5q-8 0 -18 -12.5t-20 -42.5t-16 -73l-55 4q13 100 47.5 162t91.5 62q110 0 76 -162h9q30 78 75.5 120t98.5 42q54 0 75 -34.5t15 -97.5t-36 -165q-11 -39 -16 -60t-6.5 -38t4 -23.5t17.5 -6.5q34 0 47 114l52 -5
q-9 -91 -40.5 -143.5t-101.5 -52.5q-25 0 -46.5 8t-40.5 29t-21 57.5t10 92.5q2 7 7.5 27.5t8.5 29.5t8 27.5t7 28.5t6 25.5t5.5 25.5t3 21t1 19.5t-1.5 14.5q-35 0 -77.5 -71.5t-64.5 -142.5zM466 717l36 -10q-14 -54 -42.5 -95.5t-54.5 -41.5q-17 0 -71 30t-71 30
q-14 0 -24.5 -15.5t-23.5 -47.5l-39 12q11 45 41 91.5t48 46.5q21 0 72.5 -30.5t71.5 -30.5q16 0 33.5 20t23.5 41z" />
    <glyph glyph-name="ograve" unicode="&#xf2;" horiz-adv-x="470" 
d="M459 309q0 -132 -72.5 -226.5t-179.5 -94.5q-82 0 -129.5 46.5t-47.5 132.5q0 148 79.5 243t175.5 95q87 0 130.5 -52t43.5 -144zM220 75q49 0 76 87.5t27 180.5q0 76 -46 76q-47 0 -78 -83t-31 -184q0 -77 52 -77zM346 573v-18h-71l-139 152v20h124z" />
    <glyph glyph-name="oacute" unicode="&#xf3;" horiz-adv-x="470" 
d="M459 309q0 -132 -72.5 -226.5t-179.5 -94.5q-82 0 -129.5 46.5t-47.5 132.5q0 148 79.5 243t175.5 95q87 0 130.5 -52t43.5 -144zM220 75q49 0 76 87.5t27 180.5q0 76 -46 76q-47 0 -78 -83t-31 -184q0 -77 52 -77zM216 555v18l86 154h124v-20l-139 -152h-71z" />
    <glyph glyph-name="ocircumflex" unicode="&#xf4;" horiz-adv-x="470" 
d="M459 309q0 -132 -72.5 -226.5t-179.5 -94.5q-82 0 -129.5 46.5t-47.5 132.5q0 148 79.5 243t175.5 95q87 0 130.5 -52t43.5 -144zM220 75q49 0 76 87.5t27 180.5q0 76 -46 76q-47 0 -78 -83t-31 -184q0 -77 52 -77zM405 573v-18h-37l-66 78l-102 -78h-45v18l143 154h58z
" />
    <glyph glyph-name="otilde" unicode="&#xf5;" horiz-adv-x="470" 
d="M459 309q0 -132 -72.5 -226.5t-179.5 -94.5q-82 0 -129.5 46.5t-47.5 132.5q0 148 79.5 243t175.5 95q87 0 130.5 -52t43.5 -144zM220 75q49 0 76 87.5t27 180.5q0 76 -46 76q-47 0 -78 -83t-31 -184q0 -77 52 -77zM408 717l36 -10q-14 -54 -42.5 -95.5t-54.5 -41.5
q-17 0 -71 30t-71 30q-14 0 -24.5 -15.5t-23.5 -47.5l-39 12q11 45 41 91.5t48 46.5q21 0 72.5 -30.5t71.5 -30.5q16 0 33.5 20t23.5 41z" />
    <glyph glyph-name="odieresis" unicode="&#xf6;" horiz-adv-x="470" 
d="M459 309q0 -132 -72.5 -226.5t-179.5 -94.5q-82 0 -129.5 46.5t-47.5 132.5q0 148 79.5 243t175.5 95q87 0 130.5 -52t43.5 -144zM220 75q49 0 76 87.5t27 180.5q0 76 -46 76q-47 0 -78 -83t-31 -184q0 -77 52 -77zM453 643q0 -27 -21 -47.5t-47 -20.5q-28 0 -49 20.5
t-21 47.5q0 28 21 49t49 21q26 0 47 -21.5t21 -48.5zM273 643q0 -27 -20 -47.5t-49 -20.5q-27 0 -48 20.5t-21 47.5q0 28 21 49t48 21q29 0 49 -21t20 -49z" />
    <glyph glyph-name="divide" unicode="&#xf7;" horiz-adv-x="620" 
d="M573 221h-526v86h526v-86zM245 429q0 27 18.5 45.5t45.5 18.5q26 0 45 -19t19 -45q0 -27 -18.5 -45.5t-45.5 -18.5q-28 0 -46 18t-18 46zM245 99q0 27 18.5 45.5t45.5 18.5q26 0 45 -19t19 -45q0 -27 -18.5 -45t-45.5 -18q-28 0 -46 17.5t-18 45.5z" />
    <glyph glyph-name="oslash" unicode="&#xf8;" horiz-adv-x="470" 
d="M459 309q0 -132 -72.5 -226.5t-179.5 -94.5q-47 0 -82 15l-26 -40h-73l48 74q-44 47 -44 130q0 148 79.5 243t175.5 95q45 0 82 -16l13 20h73l-37 -57q43 -52 43 -143zM277 419q-43 0 -73 -71t-36 -165l142 218q-12 18 -33 18zM220 75q44 0 70.5 71t31.5 160l-140 -214
q13 -17 38 -17z" />
    <glyph glyph-name="ugrave" unicode="&#xf9;" horiz-adv-x="565" 
d="M345 112l-7 2q-57 -126 -154 -126q-77 0 -95 65t19 198q14 49 21 77t9.5 45t0.5 22.5t-8 5.5q-16 0 -31 -33.5t-24 -86.5l-55 11q21 107 56.5 160t94.5 53q36 0 56.5 -17.5t25.5 -50.5t1 -70t-16 -87q-27 -113 -29.5 -151t14.5 -56q42 0 110 165q50 232 57 257h132
l-80 -382q-5 -33 16 -33q19 0 34.5 31.5t22.5 88.5l48 -4q-9 -95 -42.5 -149t-92.5 -54q-101 0 -84 119zM391 573v-18h-71l-139 152v20h124z" />
    <glyph glyph-name="uacute" unicode="&#xfa;" horiz-adv-x="565" 
d="M345 112l-7 2q-57 -126 -154 -126q-77 0 -95 65t19 198q14 49 21 77t9.5 45t0.5 22.5t-8 5.5q-16 0 -31 -33.5t-24 -86.5l-55 11q21 107 56.5 160t94.5 53q36 0 56.5 -17.5t25.5 -50.5t1 -70t-16 -87q-27 -113 -29.5 -151t14.5 -56q42 0 110 165q50 232 57 257h132
l-80 -382q-5 -33 16 -33q19 0 34.5 31.5t22.5 88.5l48 -4q-9 -95 -42.5 -149t-92.5 -54q-101 0 -84 119zM261 555v18l86 154h124v-20l-139 -152h-71z" />
    <glyph glyph-name="ucircumflex" unicode="&#xfb;" horiz-adv-x="565" 
d="M345 112l-7 2q-57 -126 -154 -126q-77 0 -95 65t19 198q14 49 21 77t9.5 45t0.5 22.5t-8 5.5q-16 0 -31 -33.5t-24 -86.5l-55 11q21 107 56.5 160t94.5 53q36 0 56.5 -17.5t25.5 -50.5t1 -70t-16 -87q-27 -113 -29.5 -151t14.5 -56q42 0 110 165q50 232 57 257h132
l-80 -382q-5 -33 16 -33q19 0 34.5 31.5t22.5 88.5l48 -4q-9 -95 -42.5 -149t-92.5 -54q-101 0 -84 119zM450 573v-18h-37l-66 78l-102 -78h-45v18l143 154h58z" />
    <glyph glyph-name="udieresis" unicode="&#xfc;" horiz-adv-x="565" 
d="M345 112l-7 2q-57 -126 -154 -126q-77 0 -95 65t19 198q14 49 21 77t9.5 45t0.5 22.5t-8 5.5q-16 0 -31 -33.5t-24 -86.5l-55 11q21 107 56.5 160t94.5 53q36 0 56.5 -17.5t25.5 -50.5t1 -70t-16 -87q-27 -113 -29.5 -151t14.5 -56q42 0 110 165q50 232 57 257h132
l-80 -382q-5 -33 16 -33q19 0 34.5 31.5t22.5 88.5l48 -4q-9 -95 -42.5 -149t-92.5 -54q-101 0 -84 119zM498 643q0 -27 -21 -47.5t-47 -20.5q-28 0 -49 20.5t-21 47.5q0 28 21 49t49 21q26 0 47 -21.5t21 -48.5zM318 643q0 -27 -20 -47.5t-49 -20.5q-27 0 -48 20.5
t-21 47.5q0 28 21 49t48 21q29 0 49 -21t20 -49z" />
    <glyph glyph-name="yacute" unicode="&#xfd;" horiz-adv-x="514" 
d="M310 59l-7 2q-57 -73 -118 -73q-42 0 -66 18.5t-30 53t-3 72t14 87.5q4 21 12.5 52.5t13.5 52t8.5 41.5t1.5 31t-10 10q-33 0 -54 -125l-53 3q21 110 55.5 165.5t94.5 55.5q34 0 55 -14t28.5 -34t7 -53t-5.5 -59t-14 -65q-16 -68 -23 -104t-7.5 -64t9.5 -39
q26 0 61.5 49.5t59.5 125.5q7 23 24 124t22 123h134l-89 -424q-20 -73 -47 -128t-54 -86.5t-59.5 -50.5t-60 -25t-59.5 -6q-49 0 -87 20t-38 62q0 37 29 61.5t77 24.5l34 -107q86 0 144 223zM253 555v18l86 154h124v-20l-139 -152h-71z" />
    <glyph glyph-name="thorn" unicode="&#xfe;" horiz-adv-x="529" 
d="M156 -194l-61 -31h-78l86 421l73 382q9 46 -3 62t-71 16v74l194 10h45l-24 -110l-44 -196q52 71 122 71q54 0 87 -42t33 -118q0 -134 -71.5 -245.5t-174.5 -111.5q-25 0 -44.5 9t-26.5 21zM377 352q0 58 -26 58q-12 0 -29.5 -20t-37 -56.5t-39 -97t-32.5 -131.5
q4 -11 18 -19t32 -8q40 0 77 79t37 195z" />
    <glyph glyph-name="ydieresis" unicode="&#xff;" horiz-adv-x="514" 
d="M310 59l-7 2q-57 -73 -118 -73q-42 0 -66 18.5t-30 53t-3 72t14 87.5q4 21 12.5 52.5t13.5 52t8.5 41.5t1.5 31t-10 10q-33 0 -54 -125l-53 3q21 110 55.5 165.5t94.5 55.5q34 0 55 -14t28.5 -34t7 -53t-5.5 -59t-14 -65q-16 -68 -23 -104t-7.5 -64t9.5 -39
q26 0 61.5 49.5t59.5 125.5q7 23 24 124t22 123h134l-89 -424q-20 -73 -47 -128t-54 -86.5t-59.5 -50.5t-60 -25t-59.5 -6q-49 0 -87 20t-38 62q0 37 29 61.5t77 24.5l34 -107q86 0 144 223zM490 643q0 -27 -21 -47.5t-47 -20.5q-28 0 -49 20.5t-21 47.5q0 28 21 49t49 21
q26 0 47 -21.5t21 -48.5zM310 643q0 -27 -20 -47.5t-49 -20.5q-27 0 -48 20.5t-21 47.5q0 28 21 49t48 21q29 0 49 -21t20 -49z" />
    <glyph glyph-name="Amacron" unicode="&#x100;" horiz-adv-x="720" 
d="M450 124l-11 63h-218l-35 -61q-12 -23 2.5 -32t64.5 -9l-18 -85h-262l18 85q34 0 55 13t42 48l335 555h69l113 -562q8 -37 21 -45.5t59 -8.5l-18 -85h-318l18 85h27q41 0 51 6.5t5 32.5zM384 471l-116 -202h157l-35 202h-6zM596 783h-264v79h264v-79z" />
    <glyph glyph-name="amacron" unicode="&#x101;" horiz-adv-x="535" 
d="M322 102h-8q-20 -55 -60.5 -84.5t-86.5 -29.5q-62 0 -97.5 39.5t-35.5 108.5q0 143 71 256t163 113q63 0 89 -60h3l28 50h109l-72 -322q-21 -93 13 -93t46 115l51 -6q-11 -101 -40 -148.5t-85 -47.5q-46 0 -69 28.5t-19 80.5zM204 80q35 0 70 73.5t60 222.5
q-6 16 -21.5 27.5t-34.5 11.5q-38 0 -72 -78t-34 -178q0 -79 32 -79zM458 591h-264v79h264v-79z" />
    <glyph glyph-name="Abreve" unicode="&#x102;" horiz-adv-x="720" 
d="M450 124l-11 63h-218l-35 -61q-12 -23 2.5 -32t64.5 -9l-18 -85h-262l18 85q34 0 55 13t42 48l335 555h69l113 -562q8 -37 21 -45.5t59 -8.5l-18 -85h-318l18 85h27q41 0 51 6.5t5 32.5zM384 471l-116 -202h157l-35 202h-6zM457 747q-58 0 -87 34t-14 103h50
q-5 -26 13 -44.5t54 -18.5q39 0 70.5 18t38.5 45h54q-15 -66 -67 -101.5t-112 -35.5z" />
    <glyph glyph-name="abreve" unicode="&#x103;" horiz-adv-x="535" 
d="M322 102h-8q-20 -55 -60.5 -84.5t-86.5 -29.5q-62 0 -97.5 39.5t-35.5 108.5q0 143 71 256t163 113q63 0 89 -60h3l28 50h109l-72 -322q-21 -93 13 -93t46 115l51 -6q-11 -101 -40 -148.5t-85 -47.5q-46 0 -69 28.5t-19 80.5zM204 80q35 0 70 73.5t60 222.5
q-6 16 -21.5 27.5t-34.5 11.5q-38 0 -72 -78t-34 -178q0 -79 32 -79zM319 555q-49 0 -74 44t-12 128h50q-4 -35 10.5 -61.5t41.5 -26.5q34 0 60.5 25t33.5 63h54q-13 -81 -61 -126.5t-103 -45.5z" />
    <glyph glyph-name="Aogonek" unicode="&#x104;" horiz-adv-x="720" 
d="M431 -182l6 -31q-27 -11 -77 -11q-54 0 -89.5 21t-35.5 58q0 39 34 76.5t92 68.5h-12l18 85h27q41 0 51 6.5t5 32.5l-11 63h-218l-35 -61q-12 -23 2.5 -32t64.5 -9l-18 -85h-262l18 85q34 0 55 13t42 48l335 555h69l113 -562q8 -37 21 -45.5t59 -8.5l-18 -85h-244
q-84 -52 -84 -131q0 -26 15.5 -41.5t38.5 -15.5q18 0 38 6zM384 471l-116 -202h157l-35 202h-6z" />
    <glyph glyph-name="aogonek" unicode="&#x105;" horiz-adv-x="535" 
d="M471 -169l6 -31q-27 -11 -77 -11q-54 0 -89.5 21t-35.5 58q0 68 100 130q-59 19 -53 104h-8q-20 -55 -60.5 -84.5t-86.5 -29.5q-62 0 -97.5 39.5t-35.5 108.5q0 143 71 256t163 113q63 0 89 -60h3l28 50h109l-72 -322q-21 -93 13 -93t46 115l51 -6q-18 -169 -94 -191
q-62 -49 -62 -116q0 -26 15.5 -41.5t38.5 -15.5q18 0 38 6zM204 80q35 0 70 73.5t60 222.5q-6 16 -21.5 27.5t-34.5 11.5q-38 0 -72 -78t-34 -178q0 -79 32 -79z" />
    <glyph glyph-name="Cacute" unicode="&#x106;" horiz-adv-x="684" 
d="M632 651l5 1l35 38h46l-52 -265h-62q0 76 -28 128.5t-89 52.5q-72 0 -130.5 -53t-88.5 -131.5t-30 -163.5t37.5 -129.5t111.5 -44.5q63 0 112.5 38t77.5 113h70v-3q-37 -117 -122 -180.5t-187 -63.5q-129 0 -201.5 71.5t-72.5 197.5q0 117 58 219.5t158 163.5t216 61
q45 0 84 -15t52 -35zM445 747v18l86 119h124v-20l-139 -117h-71z" />
    <glyph glyph-name="cacute" unicode="&#x107;" horiz-adv-x="409" 
d="M272 415q-37 0 -69 -68.5t-32 -187.5q0 -81 55 -81q26 0 53.5 31t46.5 76l61 -30q-81 -167 -203 -167q-65 0 -108 45t-43 129q0 141 78 242t171 101q52 0 87.5 -31.5t35.5 -85.5q0 -82 -93 -99q0 7 -0.5 21t-1 21.5t-1.5 19.5t-2 18t-3 15t-4.5 13.5t-6.5 9t-9 6.5t-12 2
zM207 555v18l86 154h124v-20l-139 -152h-71z" />
    <glyph glyph-name="Ccircumflex" unicode="&#x108;" horiz-adv-x="684" 
d="M632 651l5 1l35 38h46l-52 -265h-62q0 76 -28 128.5t-89 52.5q-72 0 -130.5 -53t-88.5 -131.5t-30 -163.5t37.5 -129.5t111.5 -44.5q63 0 112.5 38t77.5 113h70v-3q-37 -117 -122 -180.5t-187 -63.5q-129 0 -201.5 71.5t-72.5 197.5q0 117 58 219.5t158 163.5t216 61
q45 0 84 -15t52 -35zM654 765v-18h-37l-81 58l-127 -58h-45v18l163 119h58z" />
    <glyph glyph-name="ccircumflex" unicode="&#x109;" horiz-adv-x="409" 
d="M272 415q-37 0 -69 -68.5t-32 -187.5q0 -81 55 -81q26 0 53.5 31t46.5 76l61 -30q-81 -167 -203 -167q-65 0 -108 45t-43 129q0 141 78 242t171 101q52 0 87.5 -31.5t35.5 -85.5q0 -82 -93 -99q0 7 -0.5 21t-1 21.5t-1.5 19.5t-2 18t-3 15t-4.5 13.5t-6.5 9t-9 6.5t-12 2
zM396 573v-18h-37l-66 78l-102 -78h-45v18l143 154h58z" />
    <glyph glyph-name="Cdotaccent" unicode="&#x10a;" horiz-adv-x="684" 
d="M632 651l5 1l35 38h46l-52 -265h-62q0 76 -28 128.5t-89 52.5q-72 0 -130.5 -53t-88.5 -131.5t-30 -163.5t37.5 -129.5t111.5 -44.5q63 0 112.5 38t77.5 113h70v-3q-37 -117 -122 -180.5t-187 -63.5q-129 0 -201.5 71.5t-72.5 197.5q0 117 58 219.5t158 163.5t216 61
q45 0 84 -15t52 -35zM466 810q0 35 21.5 62t54.5 27q25 0 40 -19t15 -47q0 -35 -22.5 -60t-51.5 -25q-25 0 -41 18.5t-16 43.5z" />
    <glyph glyph-name="cdotaccent" unicode="&#x10b;" horiz-adv-x="409" 
d="M272 415q-37 0 -69 -68.5t-32 -187.5q0 -81 55 -81q26 0 53.5 31t46.5 76l61 -30q-81 -167 -203 -167q-65 0 -108 45t-43 129q0 141 78 242t171 101q52 0 87.5 -31.5t35.5 -85.5q0 -82 -93 -99q0 7 -0.5 21t-1 21.5t-1.5 19.5t-2 18t-3 15t-4.5 13.5t-6.5 9t-9 6.5t-12 2
zM226 639q0 38 24 68t60 30q28 0 44 -21t16 -52q0 -38 -24.5 -65.5t-56.5 -27.5q-28 0 -45.5 20t-17.5 48z" />
    <glyph glyph-name="Ccaron" unicode="&#x10c;" horiz-adv-x="684" 
d="M632 651l5 1l35 38h46l-52 -265h-62q0 76 -28 128.5t-89 52.5q-72 0 -130.5 -53t-88.5 -131.5t-30 -163.5t37.5 -129.5t111.5 -44.5q63 0 112.5 38t77.5 113h70v-3q-37 -117 -122 -180.5t-187 -63.5q-129 0 -201.5 71.5t-72.5 197.5q0 117 58 219.5t158 163.5t216 61
q45 0 84 -15t52 -35zM416 866v18h37l81 -58l127 58h45v-18l-163 -119h-58z" />
    <glyph glyph-name="ccaron" unicode="&#x10d;" horiz-adv-x="409" 
d="M272 415q-37 0 -69 -68.5t-32 -187.5q0 -81 55 -81q26 0 53.5 31t46.5 76l61 -30q-81 -167 -203 -167q-65 0 -108 45t-43 129q0 141 78 242t171 101q52 0 87.5 -31.5t35.5 -85.5q0 -82 -93 -99q0 7 -0.5 21t-1 21.5t-1.5 19.5t-2 18t-3 15t-4.5 13.5t-6.5 9t-9 6.5t-12 2
zM192 709v18h37l66 -78l102 78h45v-18l-143 -154h-58z" />
    <glyph glyph-name="Dcaron" unicode="&#x10e;" horiz-adv-x="761" 
d="M760 408q0 -95 -38.5 -174t-101.5 -129t-138.5 -77.5t-152.5 -27.5h-337l18 85q58 2 73 6.5t20 27.5l97 457q6 22 -13 27q-10 2 -66 4l17 84h290q92 0 159 -24.5t103.5 -66.5t53 -89.5t16.5 -102.5zM255 85h65q106 0 185.5 91t79.5 237q0 89 -45 141.5t-142 52.5h-32z
M324 866v18h37l81 -58l127 58h45v-18l-163 -119h-58z" />
    <glyph glyph-name="dcaron" unicode="&#x10f;" horiz-adv-x="542" 
d="M172 170q0 -52 8.5 -70.5t27.5 -18.5q37 0 77.5 78t64.5 217q-16 38 -51 38q-45 0 -86 -76.5t-41 -167.5zM331 106l-10 1q-59 -119 -161 -119q-58 0 -92 38t-34 116q0 145 77.5 254t182.5 109q48 0 73 -38h6l22 121q6 36 -10.5 50t-58.5 14l12 78l181 10h40l-38 -170
q-21 -88 -53 -248.5t-37 -181.5q-4 -27 2.5 -43.5t17.5 -16.5q31 0 38 117l54 -3q-4 -94 -40.5 -147.5t-92.5 -53.5q-46 0 -64.5 26t-14.5 87zM548 523v8l71 209h106v-10l-109 -207h-68z" />
    <glyph glyph-name="Dcroat" unicode="&#x110;" horiz-adv-x="761" 
d="M760 408q0 -95 -38.5 -174t-101.5 -129t-138.5 -77.5t-152.5 -27.5h-337l18 85q58 2 73 6.5t20 27.5l39 187h-82l12 73h86l42 197q6 22 -13 27q-10 2 -66 4l17 84h290q92 0 159 -24.5t103.5 -66.5t53 -89.5t16.5 -102.5zM255 85h65q106 0 185.5 91t79.5 237
q0 89 -45 141.5t-142 52.5h-32l-49 -228h136l-12 -73h-139z" />
    <glyph glyph-name="dcroat" unicode="&#x111;" horiz-adv-x="542" 
d="M273 609h124q-1 24 -18.5 33.5t-52.5 9.5l12 78l181 10h40l-30 -131h56v-60h-69q-15 -62 -29 -129t-30 -150.5t-26 -129.5q-4 -27 2.5 -43.5t17.5 -16.5q31 0 38 117l54 -3q-4 -94 -40.5 -147.5t-92.5 -53.5q-46 0 -64.5 26t-14.5 87l-10 1q-59 -119 -161 -119
q-58 0 -92 38t-34 116q0 145 77.5 254t182.5 109q48 0 73 -38h6l15 82h-115v60zM172 170q0 -52 8.5 -70.5t27.5 -18.5q37 0 77.5 78t64.5 217q-16 38 -51 38q-45 0 -86 -76.5t-41 -167.5z" />
    <glyph glyph-name="Emacron" unicode="&#x112;" horiz-adv-x="661" 
d="M644 257l-67 -257h-585l18 85q54 0 71.5 8.5t25.5 45.5l89 417q7 31 -9 41t-66 10l17 84h570l-38 -231h-74q5 85 -17.5 116t-87.5 31h-124l-50 -233h51q70 0 96 124h70l-66 -312h-70q14 70 3.5 92.5t-55.5 22.5h-45l-45 -216h148q64 0 103 43t66 129h71zM580 783h-264v79
h264v-79z" />
    <glyph glyph-name="emacron" unicode="&#x113;" horiz-adv-x="425" 
d="M428 388q0 -37 -19.5 -70.5t-57 -62t-78 -50.5t-95.5 -45q-8 -89 67 -89q71 0 126 112l50 -26q-87 -169 -215 -169q-172 0 -172 188q0 141 76.5 235t175.5 94q60 0 101 -32t41 -85zM301 383q0 18 -7.5 28.5t-18.5 10.5q-37 0 -66 -60t-32 -139q124 70 124 160zM432 591
h-264v79h264v-79z" />
    <glyph glyph-name="Edotaccent" unicode="&#x116;" horiz-adv-x="661" 
d="M644 257l-67 -257h-585l18 85q54 0 71.5 8.5t25.5 45.5l89 417q7 31 -9 41t-66 10l17 84h570l-38 -231h-74q5 85 -17.5 116t-87.5 31h-124l-50 -233h51q70 0 96 124h70l-66 -312h-70q14 70 3.5 92.5t-55.5 22.5h-45l-45 -216h148q64 0 103 43t66 129h71zM404 810
q0 35 21.5 62t54.5 27q25 0 40 -19t15 -47q0 -35 -22.5 -60t-51.5 -25q-25 0 -41 18.5t-16 43.5z" />
    <glyph glyph-name="edotaccent" unicode="&#x117;" horiz-adv-x="425" 
d="M428 388q0 -37 -19.5 -70.5t-57 -62t-78 -50.5t-95.5 -45q-8 -89 67 -89q71 0 126 112l50 -26q-87 -169 -215 -169q-172 0 -172 188q0 141 76.5 235t175.5 94q60 0 101 -32t41 -85zM301 383q0 18 -7.5 28.5t-18.5 10.5q-37 0 -66 -60t-32 -139q124 70 124 160zM254 639
q0 38 24 68t60 30q28 0 44 -21t16 -52q0 -38 -24.5 -65.5t-56.5 -27.5q-28 0 -45.5 20t-17.5 48z" />
    <glyph glyph-name="Eogonek" unicode="&#x118;" horiz-adv-x="661" 
d="M547 -182l6 -31q-27 -11 -77 -11q-54 0 -89.5 21t-35.5 58q0 39 34 76.5t92 68.5h-485l18 85q54 0 71.5 8.5t25.5 45.5l89 417q7 31 -9 41t-66 10l17 84h570l-38 -231h-74q5 85 -17.5 116t-87.5 31h-124l-50 -233h51q70 0 96 124h70l-66 -312h-70q14 70 3.5 92.5
t-55.5 22.5h-45l-45 -216h148q64 0 103 43t66 129h71l-67 -257h-38q-84 -52 -84 -131q0 -26 15.5 -41.5t38.5 -15.5q18 0 38 6z" />
    <glyph glyph-name="eogonek" unicode="&#x119;" horiz-adv-x="425" 
d="M338 -141l6 -31q-27 -11 -77 -11q-54 0 -89.5 21t-35.5 58q0 48 50 93q-158 7 -158 187q0 141 76.5 235t175.5 94q60 0 101 -32t41 -85q0 -37 -19.5 -70.5t-57 -62t-78 -50.5t-95.5 -45q-8 -89 67 -89q71 0 126 112l50 -26q-59 -114 -134 -150q-41 -42 -41 -97
q0 -26 15.5 -41.5t38.5 -15.5q18 0 38 6zM301 383q0 18 -7.5 28.5t-18.5 10.5q-37 0 -66 -60t-32 -139q124 70 124 160z" />
    <glyph glyph-name="Ecaron" unicode="&#x11a;" horiz-adv-x="661" 
d="M644 257l-67 -257h-585l18 85q54 0 71.5 8.5t25.5 45.5l89 417q7 31 -9 41t-66 10l17 84h570l-38 -231h-74q5 85 -17.5 116t-87.5 31h-124l-50 -233h51q70 0 96 124h70l-66 -312h-70q14 70 3.5 92.5t-55.5 22.5h-45l-45 -216h148q64 0 103 43t66 129h71zM354 866v18h37
l81 -58l127 58h45v-18l-163 -119h-58z" />
    <glyph glyph-name="ecaron" unicode="&#x11b;" horiz-adv-x="425" 
d="M428 388q0 -37 -19.5 -70.5t-57 -62t-78 -50.5t-95.5 -45q-8 -89 67 -89q71 0 126 112l50 -26q-87 -169 -215 -169q-172 0 -172 188q0 141 76.5 235t175.5 94q60 0 101 -32t41 -85zM301 383q0 18 -7.5 28.5t-18.5 10.5q-37 0 -66 -60t-32 -139q124 70 124 160zM220 709
v18h37l66 -78l102 78h45v-18l-143 -154h-58z" />
    <glyph glyph-name="Gcircumflex" unicode="&#x11c;" horiz-adv-x="727" 
d="M647 197l-43 -204h-52l-35 77q-36 -38 -88 -60t-98 -22q-113 0 -190 67t-77 200q0 99 38.5 185t99.5 142t135 87.5t148 31.5q99 0 152 -46h7l28 40h59l-46 -261h-66q0 66 -40 119t-106 53q-97 0 -168 -103.5t-71 -248.5q0 -82 35.5 -126.5t99.5 -44.5q67 0 116 51l15 72
q8 31 -5.5 41.5t-58.5 9.5l15 79h297l-15 -79q-46 0 -62.5 -14t-23.5 -46zM636 765v-18h-37l-81 58l-127 -58h-45v18l163 119h58z" />
    <glyph glyph-name="gcircumflex" unicode="&#x11d;" horiz-adv-x="455" 
d="M256 505q67 0 115 -35l61 32h66l-20 -86h-65q11 -27 11 -55q0 -83 -49 -131t-116 -60q-62 -10 -88 -48l41 -13q121 -35 169 -67t48 -84q0 -73 -72.5 -128t-175.5 -55q-84 0 -142 31t-58 88q0 41 29.5 69.5t86.5 53.5v11q-41 34 -41 83q21 42 80 76v10q-75 33 -75 124
q0 71 57 127.5t138 56.5zM312 -77q0 30 -46 43l-94 27q-38 -18 -58.5 -42.5t-20.5 -46.5q0 -31 27 -46.5t66 -15.5q56 0 91 22.5t35 58.5zM298 347q0 77 -48 77q-28 0 -44 -27.5t-16 -77.5q0 -41 12 -59.5t40 -18.5q22 0 39 27.5t17 78.5zM402 573v-18h-37l-66 78l-102 -78
h-45v18l143 154h58z" />
    <glyph glyph-name="Gbreve" unicode="&#x11e;" horiz-adv-x="727" 
d="M647 197l-43 -204h-52l-35 77q-36 -38 -88 -60t-98 -22q-113 0 -190 67t-77 200q0 99 38.5 185t99.5 142t135 87.5t148 31.5q99 0 152 -46h7l28 40h59l-46 -261h-66q0 66 -40 119t-106 53q-97 0 -168 -103.5t-71 -248.5q0 -82 35.5 -126.5t99.5 -44.5q67 0 116 51l15 72
q8 31 -5.5 41.5t-58.5 9.5l15 79h297l-15 -79q-46 0 -62.5 -14t-23.5 -46zM485 747q-58 0 -87 34t-14 103h50q-5 -26 13 -44.5t54 -18.5q39 0 70.5 18t38.5 45h54q-15 -66 -67 -101.5t-112 -35.5z" />
    <glyph glyph-name="gbreve" unicode="&#x11f;" horiz-adv-x="455" 
d="M256 505q67 0 115 -35l61 32h66l-20 -86h-65q11 -27 11 -55q0 -83 -49 -131t-116 -60q-62 -10 -88 -48l41 -13q121 -35 169 -67t48 -84q0 -73 -72.5 -128t-175.5 -55q-84 0 -142 31t-58 88q0 41 29.5 69.5t86.5 53.5v11q-41 34 -41 83q21 42 80 76v10q-75 33 -75 124
q0 71 57 127.5t138 56.5zM312 -77q0 30 -46 43l-94 27q-38 -18 -58.5 -42.5t-20.5 -46.5q0 -31 27 -46.5t66 -15.5q56 0 91 22.5t35 58.5zM298 347q0 77 -48 77q-28 0 -44 -27.5t-16 -77.5q0 -41 12 -59.5t40 -18.5q22 0 39 27.5t17 78.5zM271 555q-49 0 -74 44t-12 128h50
q-4 -35 10.5 -61.5t41.5 -26.5q34 0 60.5 25t33.5 63h54q-13 -81 -61 -126.5t-103 -45.5z" />
    <glyph glyph-name="Gdotaccent" unicode="&#x120;" horiz-adv-x="727" 
d="M647 197l-43 -204h-52l-35 77q-36 -38 -88 -60t-98 -22q-113 0 -190 67t-77 200q0 99 38.5 185t99.5 142t135 87.5t148 31.5q99 0 152 -46h7l28 40h59l-46 -261h-66q0 66 -40 119t-106 53q-97 0 -168 -103.5t-71 -248.5q0 -82 35.5 -126.5t99.5 -44.5q67 0 116 51l15 72
q8 31 -5.5 41.5t-58.5 9.5l15 79h297l-15 -79q-46 0 -62.5 -14t-23.5 -46zM448 810q0 35 21.5 62t54.5 27q25 0 40 -19t15 -47q0 -35 -22.5 -60t-51.5 -25q-25 0 -41 18.5t-16 43.5z" />
    <glyph glyph-name="gdotaccent" unicode="&#x121;" horiz-adv-x="455" 
d="M256 505q67 0 115 -35l61 32h66l-20 -86h-65q11 -27 11 -55q0 -83 -49 -131t-116 -60q-62 -10 -88 -48l41 -13q121 -35 169 -67t48 -84q0 -73 -72.5 -128t-175.5 -55q-84 0 -142 31t-58 88q0 41 29.5 69.5t86.5 53.5v11q-41 34 -41 83q21 42 80 76v10q-75 33 -75 124
q0 71 57 127.5t138 56.5zM312 -77q0 30 -46 43l-94 27q-38 -18 -58.5 -42.5t-20.5 -46.5q0 -31 27 -46.5t66 -15.5q56 0 91 22.5t35 58.5zM298 347q0 77 -48 77q-28 0 -44 -27.5t-16 -77.5q0 -41 12 -59.5t40 -18.5q22 0 39 27.5t17 78.5zM232 639q0 38 24 68t60 30
q28 0 44 -21t16 -52q0 -38 -24.5 -65.5t-56.5 -27.5q-28 0 -45.5 20t-17.5 48z" />
    <glyph glyph-name="Gcommaaccent" unicode="&#x122;" horiz-adv-x="727" 
d="M647 197l-43 -204h-52l-35 77q-36 -38 -88 -60t-98 -22q-113 0 -190 67t-77 200q0 99 38.5 185t99.5 142t135 87.5t148 31.5q99 0 152 -46h7l28 40h59l-46 -261h-66q0 66 -40 119t-106 53q-97 0 -168 -103.5t-71 -248.5q0 -82 35.5 -126.5t99.5 -44.5q67 0 116 51l15 72
q8 31 -5.5 41.5t-58.5 9.5l15 79h297l-15 -79q-46 0 -62.5 -14t-23.5 -46zM269 -78q0 18 13.5 30t35.5 12q24 0 43 -21.5t19 -58.5q0 -48 -43.5 -86.5t-112.5 -38.5v31q35 0 55 21.5t20 46.5q0 17 -15 35t-15 29z" />
    <glyph glyph-name="gcommaaccent" unicode="&#x123;" horiz-adv-x="455" 
d="M256 505q67 0 115 -35l61 32h66l-20 -86h-65q11 -27 11 -55q0 -83 -49 -131t-116 -60q-62 -10 -88 -48l41 -13q121 -35 169 -67t48 -84q0 -73 -72.5 -128t-175.5 -55q-84 0 -142 31t-58 88q0 41 29.5 69.5t86.5 53.5v11q-41 34 -41 83q21 42 80 76v10q-75 33 -75 124
q0 71 57 127.5t138 56.5zM312 -77q0 30 -46 43l-94 27q-38 -18 -58.5 -42.5t-20.5 -46.5q0 -31 27 -46.5t66 -15.5q56 0 91 22.5t35 58.5zM298 347q0 77 -48 77q-28 0 -44 -27.5t-16 -77.5q0 -41 12 -59.5t40 -18.5q22 0 39 27.5t17 78.5zM337 616q0 -19 -14.5 -32
t-37.5 -13q-26 0 -46 22.5t-20 61.5q0 51 46 92t119 41v-32q-37 0 -58 -23t-21 -49q0 -19 16 -38t16 -30z" />
    <glyph glyph-name="Hbar" unicode="&#x126;" horiz-adv-x="799" 
d="M97 535h94l5 22q6 31 -11 40t-65 9l18 85h332l-18 -85q-52 0 -70.5 -7.5t-25.5 -41.5l-5 -22h242l5 22q7 33 -7.5 41t-68.5 8l18 85h333l-18 -85q-56 0 -73.5 -8.5t-24.5 -40.5l-5 -22h97l-16 -74h-97l-69 -328q-7 -32 8 -40t70 -8l-18 -85h-333l18 85q58 3 73.5 10
t22.5 38l37 175h-242l-37 -175q-7 -32 7.5 -40t68.5 -8l-18 -85h-332l18 85q53 0 71 8t25 40l69 328h-94zM322 399h242l13 62h-242z" />
    <glyph glyph-name="hbar" unicode="&#x127;" horiz-adv-x="539" 
d="M73 590h75q6 37 -12.5 50t-61.5 13l14 78l182 10h41l-36 -151h110v-60h-124l-34 -147l9 -7q26 54 68 91.5t95 37.5q39 0 59 -30t18 -92t-28 -150q-16 -49 -22.5 -84t-3.5 -52t15 -17q18 0 32 28.5t19 85.5l47 -6q-16 -195 -142 -195q-67 0 -91 51.5t3 157.5
q46 161 36 195q-35 0 -77.5 -68.5t-64.5 -138.5l-34 -172l-30 -18h-105l106 530h-63v60z" />
    <glyph glyph-name="Imacron" unicode="&#x12a;" horiz-adv-x="379" 
d="M458 691l-18 -86q-57 0 -70.5 -5.5t-19.5 -32.5l-93 -438q-6 -29 6 -36.5t67 -7.5l-18 -85h-325l18 85q58 0 71.5 7t20.5 37l93 438q6 28 -5.5 34t-68.5 6l17 84h325zM433 783h-264v79h264v-79z" />
    <glyph glyph-name="imacron" unicode="&#x12b;" horiz-adv-x="320" 
d="M269 372l-63 -264q-5 -25 14 -25q29 0 50 107l50 -6q-18 -104 -49.5 -147.5t-89.5 -43.5q-64 0 -91 42.5t-11 102.5l64 227q10 40 -5 40q-30 0 -68 -121l-49 8q41 213 163 213q58 0 78 -39t7 -94zM341 591h-264v79h264v-79z" />
    <glyph glyph-name="Iogonek" unicode="&#x12e;" horiz-adv-x="379" 
d="M283 -182l6 -31q-27 -11 -77 -11q-54 0 -89.5 21t-35.5 58q0 39 34 76.5t92 68.5h-226l18 85q58 0 71.5 7t20.5 37l93 438q6 28 -5.5 34t-68.5 6l17 84h325l-18 -86q-57 0 -70.5 -5.5t-19.5 -32.5l-93 -438q-6 -29 6 -36.5t67 -7.5l-18 -85h-37q-84 -52 -84 -131
q0 -26 15.5 -41.5t38.5 -15.5q18 0 38 6z" />
    <glyph glyph-name="iogonek" unicode="&#x12f;" horiz-adv-x="320" 
d="M251 -164l6 -31q-27 -11 -77 -11q-54 0 -89.5 21t-35.5 58q0 64 91 124q-45 12 -62.5 51.5t-4.5 89.5l64 227q10 40 -5 40q-30 0 -68 -121l-49 8q41 213 163 213q58 0 78 -39t7 -94l-63 -264q-5 -25 14 -25q29 0 50 107l50 -6q-15 -88 -39.5 -132.5t-65.5 -54.5
q-56 -47 -56 -110q0 -26 15.5 -41.5t38.5 -15.5q18 0 38 6zM154 663q0 36 22 59.5t56 23.5t56.5 -24t22.5 -59q0 -34 -22.5 -57.5t-56.5 -23.5t-56 23.5t-22 57.5z" />
    <glyph glyph-name="Idotaccent" unicode="&#x130;" horiz-adv-x="379" 
d="M458 691l-18 -86q-57 0 -70.5 -5.5t-19.5 -32.5l-93 -438q-6 -29 6 -36.5t67 -7.5l-18 -85h-325l18 85q58 0 71.5 7t20.5 37l93 438q6 28 -5.5 34t-68.5 6l17 84h325zM257 810q0 35 21.5 62t54.5 27q25 0 40 -19t15 -47q0 -35 -22.5 -60t-51.5 -25q-25 0 -41 18.5
t-16 43.5z" />
    <glyph glyph-name="dotlessi" unicode="&#x131;" horiz-adv-x="320" 
d="M269 372l-63 -264q-5 -25 14 -25q29 0 50 107l50 -6q-18 -104 -49.5 -147.5t-89.5 -43.5q-64 0 -91 42.5t-11 102.5l64 227q10 40 -5 40q-30 0 -68 -121l-49 8q41 213 163 213q58 0 78 -39t7 -94z" />
    <glyph glyph-name="Kcommaaccent" unicode="&#x136;" horiz-adv-x="723" 
d="M595 512l-135 -112l153 -264q18 -30 32.5 -40.5t45.5 -10.5l-18 -85h-317l18 85q47 2 59.5 11.5t-1.5 35.5l-98 165l-41 -34l-21 -103q-10 -51 -2.5 -63t48.5 -12l-18 -85h-308l18 85q56 0 73.5 12.5t28.5 62.5l79 375q10 50 -4 61t-66 11l17 84h316l-17 -84
q-46 0 -60.5 -11t-25.5 -61l-36 -161h4l195 166q28 21 24 44t-51 22l18 85h282l-18 -85q-77 -9 -174 -94zM281 -78q0 18 13.5 30t35.5 12q24 0 43 -21.5t19 -58.5q0 -48 -43.5 -86.5t-112.5 -38.5v31q35 0 55 21.5t20 46.5q0 17 -15 35t-15 29z" />
    <glyph glyph-name="kcommaaccent" unicode="&#x137;" horiz-adv-x="513" 
d="M166 30l-48 -30h-85l109 573q7 42 -5 62t-58 17l12 80l146 9h69l-42 -183l-39 -183l5 -3q93 133 181 133q46 0 71.5 -22.5t25.5 -56.5q0 -69 -43 -110t-145 -89v-4q18 -10 36 -43t32.5 -60t26.5 -27q17 0 31.5 26t17.5 64l51 -4q-18 -90 -55 -138t-85 -48
q-33 0 -58.5 20.5t-38.5 46.5t-30 55.5t-32 41.5l13 75q137 79 137 155q0 18 -15 18q-21 0 -60 -41.5t-82 -109.5zM173 -81q0 18 13.5 30t35.5 12q24 0 43 -21.5t19 -58.5q0 -48 -43.5 -86.5t-112.5 -38.5v31q35 0 55 21.5t20 46.5q0 17 -15 35t-15 29z" />
    <glyph glyph-name="Lacute" unicode="&#x139;" horiz-adv-x="602" 
d="M598 282l-72 -282h-534l18 85q49 0 68.5 7.5t25.5 36.5l93 439q5 25 -8 32t-68 7l17 84h339l-17 -84q-62 0 -78.5 -6t-22.5 -32l-102 -484h79q125 0 185 197h77zM224 747v18l86 119h124v-20l-139 -117h-71z" />
    <glyph glyph-name="lacute" unicode="&#x13a;" horiz-adv-x="289" 
d="M307 740l-140 -610q-11 -50 16 -50q37 0 49 109l55 -3q-14 -97 -49 -145t-101 -48q-62 0 -87 38t-8 114l95 443q5 36 -12 50t-56 14l14 78l189 10h35zM146 780v18l86 119h124v-20l-139 -117h-71z" />
    <glyph glyph-name="Lcommaaccent" unicode="&#x13b;" horiz-adv-x="602" 
d="M598 282l-72 -282h-534l18 85q49 0 68.5 7.5t25.5 36.5l93 439q5 25 -8 32t-68 7l17 84h339l-17 -84q-62 0 -78.5 -6t-22.5 -32l-102 -484h79q125 0 185 197h77zM221 -78q0 18 13.5 30t35.5 12q24 0 43 -21.5t19 -58.5q0 -48 -43.5 -86.5t-112.5 -38.5v31q35 0 55 21.5
t20 46.5q0 17 -15 35t-15 29z" />
    <glyph glyph-name="lcommaaccent" unicode="&#x13c;" horiz-adv-x="289" 
d="M307 740l-140 -610q-11 -50 16 -50q37 0 49 109l55 -3q-14 -97 -49 -145t-101 -48q-62 0 -87 38t-8 114l95 443q5 36 -12 50t-56 14l14 78l189 10h35zM68 -81q0 18 13.5 30t35.5 12q24 0 43 -21.5t19 -58.5q0 -48 -43.5 -86.5t-112.5 -38.5v31q35 0 55 21.5t20 46.5
q0 17 -15 35t-15 29z" />
    <glyph glyph-name="Lcaron" unicode="&#x13d;" horiz-adv-x="602" 
d="M598 282l-72 -282h-534l18 85q49 0 68.5 7.5t25.5 36.5l93 439q5 25 -8 32t-68 7l17 84h339l-17 -84q-62 0 -78.5 -6t-22.5 -32l-102 -484h79q125 0 185 197h77zM516 474v8l71 209h106v-10l-109 -207h-68z" />
    <glyph glyph-name="lcaron" unicode="&#x13e;" horiz-adv-x="382" 
d="M307 740l-140 -610q-11 -50 16 -50q37 0 49 109l55 -3q-14 -97 -49 -145t-101 -48q-62 0 -87 38t-8 114l95 443q5 36 -12 50t-56 14l14 78l189 10h35zM293 523v8l71 209h106v-10l-109 -207h-68z" />
    <glyph glyph-name="Ldot" unicode="&#x13f;" horiz-adv-x="602" 
d="M598 282l-72 -282h-534l18 85q49 0 68.5 7.5t25.5 36.5l93 439q5 25 -8 32t-68 7l17 84h339l-17 -84q-62 0 -78.5 -6t-22.5 -32l-102 -484h79q125 0 185 197h77zM468 420q0 35 24 59.5t58 24.5t59 -25t25 -59t-24.5 -58t-59.5 -24q-34 0 -58 24t-24 58z" />
    <glyph glyph-name="ldot" unicode="&#x140;" horiz-adv-x="419" 
d="M307 740l-140 -610q-11 -50 16 -50q37 0 49 109l55 -3q-14 -97 -49 -145t-101 -48q-62 0 -87 38t-8 114l95 443q5 36 -12 50t-56 14l14 78l189 10h35zM270 312q0 35 24 59.5t58 24.5t59 -25t25 -59t-24.5 -58t-59.5 -24q-34 0 -58 24t-24 58z" />
    <glyph glyph-name="Lslash" unicode="&#x141;" horiz-adv-x="602" 
d="M598 282l-72 -282h-534l18 85q49 0 68.5 7.5t25.5 36.5l30 145l-80 -29l18 77l78 28l47 218q5 25 -8 32t-68 7l17 84h339l-17 -84q-62 0 -78.5 -6t-22.5 -32l-33 -155l156 56l-18 -77l-154 -56l-53 -252h79q125 0 185 197h77z" />
    <glyph glyph-name="lslash" unicode="&#x142;" horiz-adv-x="289" 
d="M307 740l-60 -262l39 34l37 -44l-98 -84l-58 -254q-11 -50 16 -50q37 0 49 109l55 -3q-14 -97 -49 -145t-101 -48q-62 0 -87 38t-8 114l21 100l-34 -29l-37 44l91 78l54 250q5 36 -12 50t-56 14l14 78l189 10h35z" />
    <glyph glyph-name="Nacute" unicode="&#x143;" horiz-adv-x="752" 
d="M265 473h-4l-71 -336q-7 -33 14.5 -42.5t78.5 -9.5l-18 -85h-284l18 85q43 0 66.5 10t30.5 42l90 424q-27 46 -76 46l17 84h201l239 -448h4l68 314q5 26 -19.5 37.5t-86.5 11.5l18 85h286l-18 -85q-46 0 -63.5 -11.5t-23.5 -37.5l-120 -565h-87zM403 747v18l86 119h124
v-20l-139 -117h-71z" />
    <glyph glyph-name="nacute" unicode="&#x144;" horiz-adv-x="572" 
d="M202 31l-54 -31h-86l70 329q4 21 6 32.5t3 22.5t-2 16t-9 5q-8 0 -18 -12.5t-20 -42.5t-16 -73l-55 4q13 100 47.5 162t91.5 62q110 0 76 -162h9q30 78 75.5 120t98.5 42q54 0 75 -34.5t15 -97.5t-36 -165q-11 -39 -16 -60t-6.5 -38t4 -23.5t17.5 -6.5q34 0 47 114l52 -5
q-9 -91 -40.5 -143.5t-101.5 -52.5q-25 0 -46.5 8t-40.5 29t-21 57.5t10 92.5q2 7 7.5 27.5t8.5 29.5t8 27.5t7 28.5t6 25.5t5.5 25.5t3 21t1 19.5t-1.5 14.5q-35 0 -77.5 -71.5t-64.5 -142.5zM274 555v18l86 154h124v-20l-139 -152h-71z" />
    <glyph glyph-name="Ncommaaccent" unicode="&#x145;" horiz-adv-x="752" 
d="M265 473h-4l-71 -336q-7 -33 14.5 -42.5t78.5 -9.5l-18 -85h-284l18 85q43 0 66.5 10t30.5 42l90 424q-27 46 -76 46l17 84h201l239 -448h4l68 314q5 26 -19.5 37.5t-86.5 11.5l18 85h286l-18 -85q-46 0 -63.5 -11.5t-23.5 -37.5l-120 -565h-87zM315 -78q0 18 13.5 30
t35.5 12q24 0 43 -21.5t19 -58.5q0 -48 -43.5 -86.5t-112.5 -38.5v31q35 0 55 21.5t20 46.5q0 17 -15 35t-15 29z" />
    <glyph glyph-name="ncommaaccent" unicode="&#x146;" horiz-adv-x="572" 
d="M202 31l-54 -31h-86l70 329q4 21 6 32.5t3 22.5t-2 16t-9 5q-8 0 -18 -12.5t-20 -42.5t-16 -73l-55 4q13 100 47.5 162t91.5 62q110 0 76 -162h9q30 78 75.5 120t98.5 42q54 0 75 -34.5t15 -97.5t-36 -165q-11 -39 -16 -60t-6.5 -38t4 -23.5t17.5 -6.5q34 0 47 114l52 -5
q-9 -91 -40.5 -143.5t-101.5 -52.5q-25 0 -46.5 8t-40.5 29t-21 57.5t10 92.5q2 7 7.5 27.5t8.5 29.5t8 27.5t7 28.5t6 25.5t5.5 25.5t3 21t1 19.5t-1.5 14.5q-35 0 -77.5 -71.5t-64.5 -142.5zM240 -81q0 18 13.5 30t35.5 12q24 0 43 -21.5t19 -58.5q0 -48 -43.5 -86.5
t-112.5 -38.5v31q35 0 55 21.5t20 46.5q0 17 -15 35t-15 29z" />
    <glyph glyph-name="Ncaron" unicode="&#x147;" horiz-adv-x="752" 
d="M265 473h-4l-71 -336q-7 -33 14.5 -42.5t78.5 -9.5l-18 -85h-284l18 85q43 0 66.5 10t30.5 42l90 424q-27 46 -76 46l17 84h201l239 -448h4l68 314q5 26 -19.5 37.5t-86.5 11.5l18 85h286l-18 -85q-46 0 -63.5 -11.5t-23.5 -37.5l-120 -565h-87zM374 866v18h37l81 -58
l127 58h45v-18l-163 -119h-58z" />
    <glyph glyph-name="ncaron" unicode="&#x148;" horiz-adv-x="572" 
d="M202 31l-54 -31h-86l70 329q4 21 6 32.5t3 22.5t-2 16t-9 5q-8 0 -18 -12.5t-20 -42.5t-16 -73l-55 4q13 100 47.5 162t91.5 62q110 0 76 -162h9q30 78 75.5 120t98.5 42q54 0 75 -34.5t15 -97.5t-36 -165q-11 -39 -16 -60t-6.5 -38t4 -23.5t17.5 -6.5q34 0 47 114l52 -5
q-9 -91 -40.5 -143.5t-101.5 -52.5q-25 0 -46.5 8t-40.5 29t-21 57.5t10 92.5q2 7 7.5 27.5t8.5 29.5t8 27.5t7 28.5t6 25.5t5.5 25.5t3 21t1 19.5t-1.5 14.5q-35 0 -77.5 -71.5t-64.5 -142.5zM259 709v18h37l66 -78l102 78h45v-18l-143 -154h-58z" />
    <glyph glyph-name="Omacron" unicode="&#x14c;" horiz-adv-x="751" 
d="M754 432q0 -127 -62 -230.5t-158 -158.5t-202 -55q-131 0 -199.5 71t-68.5 196q0 96 36.5 180.5t96 142t133.5 90.5t149 33q126 0 200.5 -73t74.5 -196zM352 84q57 0 103 38t72.5 97t40.5 123t14 124q0 69 -30.5 104.5t-87.5 35.5q-100 0 -164.5 -113.5t-64.5 -260.5
q0 -77 27.5 -112.5t89.5 -35.5zM621 783h-264v79h264v-79z" />
    <glyph glyph-name="omacron" unicode="&#x14d;" horiz-adv-x="470" 
d="M459 309q0 -132 -72.5 -226.5t-179.5 -94.5q-82 0 -129.5 46.5t-47.5 132.5q0 148 79.5 243t175.5 95q87 0 130.5 -52t43.5 -144zM220 75q49 0 76 87.5t27 180.5q0 76 -46 76q-47 0 -78 -83t-31 -184q0 -77 52 -77zM413 591h-264v79h264v-79z" />
    <glyph glyph-name="Ohungarumlaut" unicode="&#x150;" horiz-adv-x="751" 
d="M754 432q0 -127 -62 -230.5t-158 -158.5t-202 -55q-131 0 -199.5 71t-68.5 196q0 96 36.5 180.5t96 142t133.5 90.5t149 33q126 0 200.5 -73t74.5 -196zM352 84q57 0 103 38t72.5 97t40.5 123t14 124q0 69 -30.5 104.5t-87.5 35.5q-100 0 -164.5 -113.5t-64.5 -260.5
q0 -77 27.5 -112.5t89.5 -35.5zM334 747v18l86 119h124v-20l-139 -117h-71zM504 747v18l86 119h124v-20l-139 -117h-71z" />
    <glyph glyph-name="ohungarumlaut" unicode="&#x151;" horiz-adv-x="470" 
d="M459 309q0 -132 -72.5 -226.5t-179.5 -94.5q-82 0 -129.5 46.5t-47.5 132.5q0 148 79.5 243t175.5 95q87 0 130.5 -52t43.5 -144zM220 75q49 0 76 87.5t27 180.5q0 76 -46 76q-47 0 -78 -83t-31 -184q0 -77 52 -77zM311 555v18l96 154h124v-20l-154 -152h-66zM141 555v18
l96 154h124v-20l-154 -152h-66z" />
    <glyph glyph-name="OE" unicode="&#x152;" horiz-adv-x="972" 
d="M955 257l-67 -257h-462q-46 -12 -94 -12q-131 0 -199.5 71t-68.5 196q0 96 36.5 180.5t96 142t133.5 90.5t149 33q43 0 86 -10h454l-38 -231h-74q5 85 -17.5 116t-87.5 31h-124l-50 -233h51q70 0 96 124h70l-66 -312h-70q14 70 3.5 92.5t-55.5 22.5h-45l-45 -216h148
q64 0 103 43t66 129h71zM352 84q25 0 51 8l110 506q-22 8 -49 8q-100 0 -164.5 -113.5t-64.5 -260.5q0 -77 27.5 -112.5t89.5 -35.5z" />
    <glyph glyph-name="oe" unicode="&#x153;" horiz-adv-x="718" 
d="M721 388q0 -37 -19.5 -70.5t-57 -62t-78 -50.5t-95.5 -45q-8 -89 67 -89q71 0 126 112l50 -26q-84 -169 -210 -169q-99 0 -144 60q-60 -60 -144 -60q-86 0 -136 51t-50 146q0 142 71.5 231t165.5 89q104 0 151 -77q72 77 161 77q60 0 101 -32t41 -85zM314 324
q0 90 -51 90q-47 0 -71 -73.5t-24 -174.5q0 -83 57 -83q42 0 65.5 71t23.5 170zM594 383q0 18 -7.5 28.5t-18.5 10.5q-37 0 -66 -60t-32 -139q124 70 124 160z" />
    <glyph glyph-name="Racute" unicode="&#x154;" horiz-adv-x="683" 
d="M501 525q0 44 -22.5 62.5t-78.5 18.5h-33l-44 -209h47q52 0 91.5 31.5t39.5 96.5zM418 159q13 87 -7.5 119.5t-70.5 32.5h-35l-38 -177q-7 -32 8.5 -40t73.5 -8l-18 -86h-339l18 86q56 2 73 9t23 39l93 436q5 24 -9 30t-70 6l18 85h343q192 0 192 -146
q0 -81 -55.5 -131.5t-124.5 -62.5l-2 -8q51 -10 79 -50.5t17 -111.5q-4 -26 -5.5 -39t-2.5 -30t2.5 -24t10.5 -7q25 0 34 109l57 -1q-5 -112 -43 -154t-96 -42q-75 0 -106 43t-20 123zM351 747v18l86 119h124v-20l-139 -117h-71z" />
    <glyph glyph-name="racute" unicode="&#x155;" horiz-adv-x="424" 
d="M208 33l-50 -33h-93l63 347q9 55 -5 55q-16 0 -29 -34t-18 -83l-52 5q6 91 42.5 153t94.5 62q44 0 52.5 -43t-12.5 -138l20 -2q22 95 55.5 139t86.5 44q38 0 58 -25t20 -69q0 -52 -27.5 -84t-76.5 -32l-12 95q-22 0 -47.5 -82.5t-69.5 -274.5zM198 555v18l86 154h124v-20
l-139 -152h-71z" />
    <glyph glyph-name="Rcaron" unicode="&#x158;" horiz-adv-x="683" 
d="M501 525q0 44 -22.5 62.5t-78.5 18.5h-33l-44 -209h47q52 0 91.5 31.5t39.5 96.5zM418 159q13 87 -7.5 119.5t-70.5 32.5h-35l-38 -177q-7 -32 8.5 -40t73.5 -8l-18 -86h-339l18 86q56 2 73 9t23 39l93 436q5 24 -9 30t-70 6l18 85h343q192 0 192 -146
q0 -81 -55.5 -131.5t-124.5 -62.5l-2 -8q51 -10 79 -50.5t17 -111.5q-4 -26 -5.5 -39t-2.5 -30t2.5 -24t10.5 -7q25 0 34 109l57 -1q-5 -112 -43 -154t-96 -42q-75 0 -106 43t-20 123zM322 866v18h37l81 -58l127 58h45v-18l-163 -119h-58z" />
    <glyph glyph-name="rcaron" unicode="&#x159;" horiz-adv-x="424" 
d="M208 33l-50 -33h-93l63 347q9 55 -5 55q-16 0 -29 -34t-18 -83l-52 5q6 91 42.5 153t94.5 62q44 0 52.5 -43t-12.5 -138l20 -2q22 95 55.5 139t86.5 44q38 0 58 -25t20 -69q0 -52 -27.5 -84t-76.5 -32l-12 95q-22 0 -47.5 -82.5t-69.5 -274.5zM183 709v18h37l66 -78
l102 78h45v-18l-143 -154h-58z" />
    <glyph glyph-name="Sacute" unicode="&#x15a;" horiz-adv-x="586" 
d="M126 59l-27 -59h-84l54 288h74v-11q0 -88 47.5 -142t122.5 -54q44 0 75 24t31 67q0 39 -27.5 62t-101.5 53q-40 17 -67.5 32.5t-57 40.5t-45 59t-15.5 76q0 89 76.5 147.5t166.5 58.5q106 0 166 -64l2 2l-2 -1l32 57h79l-54 -263h-71q-9 93 -45.5 135t-105.5 42
q-44 0 -66.5 -24t-22.5 -47q0 -19 9 -36t18 -27.5t33.5 -24.5t35 -19t42.5 -19q7 -3 11 -5q73 -32 114 -75t41 -119q0 -91 -77 -158t-177 -67q-69 0 -115 22t-69 49zM311 747v18l86 119h124v-20l-139 -117h-71z" />
    <glyph glyph-name="sacute" unicode="&#x15b;" horiz-adv-x="385" 
d="M116 179q0 -104 59 -104q18 0 29 10.5t11 28.5q0 23 -20.5 52t-45.5 54t-46.5 61t-22.5 70q0 64 47 109t125 45q53 0 94 -30t41 -72q0 -41 -24.5 -64.5t-70.5 -23.5q1 9 1 24q0 38 -13.5 59t-37.5 21q-37 0 -37 -44q0 -27 21 -56.5t46 -53t47 -58t23 -70.5
q0 -65 -50.5 -107t-126.5 -42q-66 0 -105.5 25t-39.5 70q0 42 26.5 69t69.5 27zM197 555v18l86 154h124v-20l-139 -152h-71z" />
    <glyph glyph-name="Scircumflex" unicode="&#x15c;" horiz-adv-x="586" 
d="M126 59l-27 -59h-84l54 288h74v-11q0 -88 47.5 -142t122.5 -54q44 0 75 24t31 67q0 39 -27.5 62t-101.5 53q-40 17 -67.5 32.5t-57 40.5t-45 59t-15.5 76q0 89 76.5 147.5t166.5 58.5q106 0 166 -64l2 2l-2 -1l32 57h79l-54 -263h-71q-9 93 -45.5 135t-105.5 42
q-44 0 -66.5 -24t-22.5 -47q0 -19 9 -36t18 -27.5t33.5 -24.5t35 -19t42.5 -19q7 -3 11 -5q73 -32 114 -75t41 -119q0 -91 -77 -158t-177 -67q-69 0 -115 22t-69 49zM520 765v-18h-37l-81 58l-127 -58h-45v18l163 119h58z" />
    <glyph glyph-name="scircumflex" unicode="&#x15d;" horiz-adv-x="385" 
d="M116 179q0 -104 59 -104q18 0 29 10.5t11 28.5q0 23 -20.5 52t-45.5 54t-46.5 61t-22.5 70q0 64 47 109t125 45q53 0 94 -30t41 -72q0 -41 -24.5 -64.5t-70.5 -23.5q1 9 1 24q0 38 -13.5 59t-37.5 21q-37 0 -37 -44q0 -27 21 -56.5t46 -53t47 -58t23 -70.5
q0 -65 -50.5 -107t-126.5 -42q-66 0 -105.5 25t-39.5 70q0 42 26.5 69t69.5 27zM386 573v-18h-37l-66 78l-102 -78h-45v18l143 154h58z" />
    <glyph glyph-name="Scedilla" unicode="&#x15e;" horiz-adv-x="586" 
d="M221 -236l-8 35q87 17 87 57q0 37 -61 37q-16 0 -30 -2l-5 7l59 93q-91 12 -137 68l-27 -59h-84l54 288h74v-11q0 -88 47.5 -142t122.5 -54q44 0 75 24t31 67q0 39 -27.5 62t-101.5 53q-40 17 -67.5 32.5t-57 40.5t-45 59t-15.5 76q0 89 76.5 147.5t166.5 58.5
q106 0 166 -64l2 2l-2 -1l32 57h79l-54 -263h-71q-9 93 -45.5 135t-105.5 42q-44 0 -66.5 -24t-22.5 -47q0 -19 9 -36t18 -27.5t33.5 -24.5t35 -19t42.5 -19q7 -3 11 -5q73 -32 114 -75t41 -119q0 -90 -75 -156.5t-174 -68.5l-19 -30q78 0 78 -72q0 -45 -45 -78.5
t-108 -43.5z" />
    <glyph glyph-name="scedilla" unicode="&#x15f;" horiz-adv-x="385" 
d="M86 -239l-8 35q87 17 87 57q0 37 -61 37q-16 0 -30 -2l-5 7l60 95q-51 6 -80 30t-29 63q0 42 26.5 69t69.5 27q0 -104 59 -104q18 0 29 10.5t11 28.5q0 23 -20.5 52t-45.5 54t-46.5 61t-22.5 70q0 64 47 109t125 45q53 0 94 -30t41 -72q0 -41 -24.5 -64.5t-70.5 -23.5
q1 9 1 24q0 38 -13.5 59t-37.5 21q-37 0 -37 -44q0 -27 21 -56.5t46 -53t47 -58t23 -70.5q0 -61 -45 -102t-115 -46l-21 -34q78 0 78 -72q0 -45 -45 -78.5t-108 -43.5z" />
    <glyph glyph-name="Scaron" unicode="&#x160;" horiz-adv-x="586" 
d="M126 59l-27 -59h-84l54 288h74v-11q0 -88 47.5 -142t122.5 -54q44 0 75 24t31 67q0 39 -27.5 62t-101.5 53q-40 17 -67.5 32.5t-57 40.5t-45 59t-15.5 76q0 89 76.5 147.5t166.5 58.5q106 0 166 -64l2 2l-2 -1l32 57h79l-54 -263h-71q-9 93 -45.5 135t-105.5 42
q-44 0 -66.5 -24t-22.5 -47q0 -19 9 -36t18 -27.5t33.5 -24.5t35 -19t42.5 -19q7 -3 11 -5q73 -32 114 -75t41 -119q0 -91 -77 -158t-177 -67q-69 0 -115 22t-69 49zM282 866v18h37l81 -58l127 58h45v-18l-163 -119h-58z" />
    <glyph glyph-name="scaron" unicode="&#x161;" horiz-adv-x="385" 
d="M116 179q0 -104 59 -104q18 0 29 10.5t11 28.5q0 23 -20.5 52t-45.5 54t-46.5 61t-22.5 70q0 64 47 109t125 45q53 0 94 -30t41 -72q0 -41 -24.5 -64.5t-70.5 -23.5q1 9 1 24q0 38 -13.5 59t-37.5 21q-37 0 -37 -44q0 -27 21 -56.5t46 -53t47 -58t23 -70.5
q0 -65 -50.5 -107t-126.5 -42q-66 0 -105.5 25t-39.5 70q0 42 26.5 69t69.5 27zM182 709v18h37l66 -78l102 78h45v-18l-143 -154h-58z" />
    <glyph glyph-name="Tcommaaccent" unicode="&#x162;" horiz-adv-x="644" 
d="M672 415h-73q18 88 -1 140t-74 52h-35l-103 -483q-6 -26 10.5 -32.5t58.5 -6.5h21l-18 -85h-360l18 85h14q31 0 45 1t30 10t20 28l103 483h-33q-48 0 -91 -52t-61 -140h-75l58 276h604zM216 -78q0 18 13.5 30t35.5 12q24 0 43 -21.5t19 -58.5q0 -48 -43.5 -86.5
t-112.5 -38.5v31q35 0 55 21.5t20 46.5q0 17 -15 35t-15 29z" />
    <glyph glyph-name="Tcommaaccent" unicode="&#x21a;" horiz-adv-x="644" 
d="M672 415h-73q18 88 -1 140t-74 52h-35l-103 -483q-6 -26 10.5 -32.5t58.5 -6.5h21l-18 -85h-360l18 85h14q31 0 45 1t30 10t20 28l103 483h-33q-48 0 -91 -52t-61 -140h-75l58 276h604zM216 -78q0 18 13.5 30t35.5 12q24 0 43 -21.5t19 -58.5q0 -48 -43.5 -86.5
t-112.5 -38.5v31q35 0 55 21.5t20 46.5q0 17 -15 35t-15 29z" />
    <glyph glyph-name="tcommaaccent" unicode="&#x163;" horiz-adv-x="336" 
d="M148 566l73 78h78l-38 -171h100l-16 -88h-103l-49 -225q-18 -80 9 -80q21 0 37 32.5t24 87.5l57 -1q-31 -206 -151 -206q-146 0 -111 164l50 228h-68l15 88h72zM97 -81q0 18 13.5 30t35.5 12q24 0 43 -21.5t19 -58.5q0 -48 -43.5 -86.5t-112.5 -38.5v31q35 0 55 21.5
t20 46.5q0 17 -15 35t-15 29z" />
    <glyph glyph-name="tcommaaccent" unicode="&#x21b;" horiz-adv-x="336" 
d="M148 566l73 78h78l-38 -171h100l-16 -88h-103l-49 -225q-18 -80 9 -80q21 0 37 32.5t24 87.5l57 -1q-31 -206 -151 -206q-146 0 -111 164l50 228h-68l15 88h72zM97 -81q0 18 13.5 30t35.5 12q24 0 43 -21.5t19 -58.5q0 -48 -43.5 -86.5t-112.5 -38.5v31q35 0 55 21.5
t20 46.5q0 17 -15 35t-15 29z" />
    <glyph glyph-name="Tcaron" unicode="&#x164;" horiz-adv-x="644" 
d="M672 415h-73q18 88 -1 140t-74 52h-35l-103 -483q-6 -26 10.5 -32.5t58.5 -6.5h21l-18 -85h-360l18 85h14q31 0 45 1t30 10t20 28l103 483h-33q-48 0 -91 -52t-61 -140h-75l58 276h604zM340 866v18h37l81 -58l127 58h45v-18l-163 -119h-58z" />
    <glyph glyph-name="tcaron" unicode="&#x165;" horiz-adv-x="336" 
d="M148 566l73 78h78l-38 -171h100l-16 -88h-103l-49 -225q-18 -80 9 -80q21 0 37 32.5t24 87.5l57 -1q-31 -206 -151 -206q-146 0 -111 164l50 228h-68l15 88h72zM328 523v8l71 209h106v-10l-109 -207h-68z" />
    <glyph glyph-name="Umacron" unicode="&#x16a;" horiz-adv-x="747" 
d="M831 691l-17 -84q-46 0 -65 -10t-24 -33l-70 -333q-51 -243 -307 -243q-133 0 -198.5 56t-38.5 181l72 342q5 27 -4.5 33.5t-62.5 6.5l17 84h321l-17 -84q-56 0 -72 -6.5t-22 -33.5l-68 -322q-17 -80 15 -119t102 -39q77 0 119 38t59 121l67 318q5 24 -13 33.5t-72 9.5
l17 84h262zM646 783h-264v79h264v-79z" />
    <glyph glyph-name="umacron" unicode="&#x16b;" horiz-adv-x="565" 
d="M345 112l-7 2q-57 -126 -154 -126q-77 0 -95 65t19 198q14 49 21 77t9.5 45t0.5 22.5t-8 5.5q-16 0 -31 -33.5t-24 -86.5l-55 11q21 107 56.5 160t94.5 53q36 0 56.5 -17.5t25.5 -50.5t1 -70t-16 -87q-27 -113 -29.5 -151t14.5 -56q42 0 110 165q50 232 57 257h132
l-80 -382q-5 -33 16 -33q19 0 34.5 31.5t22.5 88.5l48 -4q-9 -95 -42.5 -149t-92.5 -54q-101 0 -84 119zM458 591h-264v79h264v-79z" />
    <glyph glyph-name="Ubreve" unicode="&#x16c;" horiz-adv-x="747" 
d="M831 691l-17 -84q-46 0 -65 -10t-24 -33l-70 -333q-51 -243 -307 -243q-133 0 -198.5 56t-38.5 181l72 342q5 27 -4.5 33.5t-62.5 6.5l17 84h321l-17 -84q-56 0 -72 -6.5t-22 -33.5l-68 -322q-17 -80 15 -119t102 -39q77 0 119 38t59 121l67 318q5 24 -13 33.5t-72 9.5
l17 84h262zM507 747q-58 0 -87 34t-14 103h50q-5 -26 13 -44.5t54 -18.5q39 0 70.5 18t38.5 45h54q-15 -66 -67 -101.5t-112 -35.5z" />
    <glyph glyph-name="ubreve" unicode="&#x16d;" horiz-adv-x="565" 
d="M345 112l-7 2q-57 -126 -154 -126q-77 0 -95 65t19 198q14 49 21 77t9.5 45t0.5 22.5t-8 5.5q-16 0 -31 -33.5t-24 -86.5l-55 11q21 107 56.5 160t94.5 53q36 0 56.5 -17.5t25.5 -50.5t1 -70t-16 -87q-27 -113 -29.5 -151t14.5 -56q42 0 110 165q50 232 57 257h132
l-80 -382q-5 -33 16 -33q19 0 34.5 31.5t22.5 88.5l48 -4q-9 -95 -42.5 -149t-92.5 -54q-101 0 -84 119zM319 555q-49 0 -74 44t-12 128h50q-4 -35 10.5 -61.5t41.5 -26.5q34 0 60.5 25t33.5 63h54q-13 -81 -61 -126.5t-103 -45.5z" />
    <glyph glyph-name="Uring" unicode="&#x16e;" horiz-adv-x="747" 
d="M831 691l-17 -84q-46 0 -65 -10t-24 -33l-70 -333q-51 -243 -307 -243q-133 0 -198.5 56t-38.5 181l72 342q5 27 -4.5 33.5t-62.5 6.5l17 84h321l-17 -84q-56 0 -72 -6.5t-22 -33.5l-68 -322q-17 -80 15 -119t102 -39q77 0 119 38t59 121l67 318q5 24 -13 33.5t-72 9.5
l17 84h262zM420 845q0 43 30 73.5t73 30.5t73.5 -30.5t30.5 -73.5t-30.5 -73t-73.5 -30t-73 30t-30 73zM476 845q0 -21 12.5 -35.5t33.5 -14.5q22 0 35.5 14.5t13.5 35.5q0 22 -13.5 37t-35.5 15q-21 0 -33.5 -15t-12.5 -37z" />
    <glyph glyph-name="uring" unicode="&#x16f;" horiz-adv-x="565" 
d="M345 112l-7 2q-57 -126 -154 -126q-77 0 -95 65t19 198q14 49 21 77t9.5 45t0.5 22.5t-8 5.5q-16 0 -31 -33.5t-24 -86.5l-55 11q21 107 56.5 160t94.5 53q36 0 56.5 -17.5t25.5 -50.5t1 -70t-16 -87q-27 -113 -29.5 -151t14.5 -56q42 0 110 165q50 232 57 257h132
l-80 -382q-5 -33 16 -33q19 0 34.5 31.5t22.5 88.5l48 -4q-9 -95 -42.5 -149t-92.5 -54q-101 0 -84 119zM232 653q0 43 30 73.5t73 30.5t73.5 -30.5t30.5 -73.5t-30.5 -73t-73.5 -30t-73 30t-30 73zM288 653q0 -21 12.5 -35.5t33.5 -14.5q22 0 35.5 14.5t13.5 35.5
q0 22 -13.5 37t-35.5 15q-21 0 -33.5 -15t-12.5 -37z" />
    <glyph glyph-name="Uhungarumlaut" unicode="&#x170;" horiz-adv-x="747" 
d="M831 691l-17 -84q-46 0 -65 -10t-24 -33l-70 -333q-51 -243 -307 -243q-133 0 -198.5 56t-38.5 181l72 342q5 27 -4.5 33.5t-62.5 6.5l17 84h321l-17 -84q-56 0 -72 -6.5t-22 -33.5l-68 -322q-17 -80 15 -119t102 -39q77 0 119 38t59 121l67 318q5 24 -13 33.5t-72 9.5
l17 84h262zM359 747v18l86 119h124v-20l-139 -117h-71zM529 747v18l86 119h124v-20l-139 -117h-71z" />
    <glyph glyph-name="uhungarumlaut" unicode="&#x171;" horiz-adv-x="565" 
d="M345 112l-7 2q-57 -126 -154 -126q-77 0 -95 65t19 198q14 49 21 77t9.5 45t0.5 22.5t-8 5.5q-16 0 -31 -33.5t-24 -86.5l-55 11q21 107 56.5 160t94.5 53q36 0 56.5 -17.5t25.5 -50.5t1 -70t-16 -87q-27 -113 -29.5 -151t14.5 -56q42 0 110 165q50 232 57 257h132
l-80 -382q-5 -33 16 -33q19 0 34.5 31.5t22.5 88.5l48 -4q-9 -95 -42.5 -149t-92.5 -54q-101 0 -84 119zM356 555v18l96 154h124v-20l-154 -152h-66zM186 555v18l96 154h124v-20l-154 -152h-66z" />
    <glyph glyph-name="Uogonek" unicode="&#x172;" horiz-adv-x="747" 
d="M444 -182l6 -31q-28 -11 -77 -11q-54 0 -89.5 21t-35.5 58q0 70 105 133h-5q-133 0 -198.5 56t-38.5 181l72 342q5 27 -4.5 33.5t-62.5 6.5l17 84h321l-17 -84q-56 0 -72 -6.5t-22 -33.5l-68 -322q-17 -80 15 -119t102 -39q77 0 119 38t59 121l67 318q5 24 -13 33.5
t-72 9.5l17 84h262l-17 -84q-46 0 -65 -10t-24 -33l-70 -333q-43 -202 -227 -236q-76 -51 -76 -126q0 -26 15.5 -41.5t38.5 -15.5q18 0 38 6z" />
    <glyph glyph-name="uogonek" unicode="&#x173;" horiz-adv-x="565" 
d="M496 -164l6 -31q-28 -11 -77 -11q-54 0 -89.5 21t-35.5 58q0 64 92 125q-61 18 -47 114l-7 2q-57 -126 -154 -126q-77 0 -95 65t19 198q14 49 21 77t9.5 45t0.5 22.5t-8 5.5q-16 0 -31 -33.5t-24 -86.5l-55 11q21 107 56.5 160t94.5 53q36 0 56.5 -17.5t25.5 -50.5t1 -70
t-16 -87q-27 -113 -29.5 -151t14.5 -56q42 0 110 165q50 232 57 257h132l-80 -382q-5 -33 16 -33q19 0 34.5 31.5t22.5 88.5l48 -4q-16 -171 -104 -198q-56 -47 -56 -111q0 -26 15.5 -41.5t38.5 -15.5q18 0 38 6z" />
    <glyph glyph-name="Wcircumflex" unicode="&#x174;" horiz-adv-x="977" 
d="M671 234h6l136 263q34 59 28 86t-63 23l18 85h267l-18 -85q-39 0 -64.5 -23.5t-61.5 -87.5l-269 -501h-90l-36 344l-187 -344h-82l-72 536q-7 45 -23 60.5t-52 15.5l18 85h288l-18 -85q-67 3 -59 -76l33 -296h7l133 239l-6 57q-5 44 -17.5 60t-44.5 16l18 85h275l-18 -85
q-44 -1 -55.5 -16.5t-9.5 -59.5zM746 765v-18h-37l-81 58l-127 -58h-45v18l163 119h58z" />
    <glyph glyph-name="wcircumflex" unicode="&#x175;" horiz-adv-x="735" 
d="M496 474l-25 -317q-2 -25 9 -32q127 78 127 231q0 51 -12 91q-7 34 6 58l87 20q29 -6 35 -64q5 -101 -41.5 -200t-132.5 -173t-190 -100q-35 0 -32 41l7 99q-87 -105 -195 -140q-35 0 -32 41l28 351l-6 13q-30 4 -40.5 -10.5t-15.5 -76.5l-49 5q3 31 6.5 53t9.5 44.5
t15.5 36.5t24 26t34.5 16.5t47.5 4.5t62.5 -7l43 -61l-21 -262q-2 -25 9 -32q55 36 86 95l18 247q0 10 88 10q49 0 49 -8zM566 573v-18h-37l-66 78l-102 -78h-45v18l143 154h58z" />
    <glyph glyph-name="Ycircumflex" unicode="&#x176;" horiz-adv-x="684" 
d="M753 609l-2 -2q-61 0 -120 -79l-177 -228l-27 -129q-13 -58 1.5 -72t71.5 -14l-18 -85h-333l18 85q57 0 72.5 13t28.5 73l27 129l-87 218q-17 36 -21 45t-16.5 24t-25.5 17.5t-36 2.5l17 84h331l-17 -84q-57 0 -71.5 -13.5t0.5 -54.5l52 -150l109 149q24 27 14.5 47.5
t-51.5 21.5l17 84h260zM633 765v-18h-37l-81 58l-127 -58h-45v18l163 119h58z" />
    <glyph glyph-name="ycircumflex" unicode="&#x177;" horiz-adv-x="514" 
d="M310 59l-7 2q-57 -73 -118 -73q-42 0 -66 18.5t-30 53t-3 72t14 87.5q4 21 12.5 52.5t13.5 52t8.5 41.5t1.5 31t-10 10q-33 0 -54 -125l-53 3q21 110 55.5 165.5t94.5 55.5q34 0 55 -14t28.5 -34t7 -53t-5.5 -59t-14 -65q-16 -68 -23 -104t-7.5 -64t9.5 -39
q26 0 61.5 49.5t59.5 125.5q7 23 24 124t22 123h134l-89 -424q-20 -73 -47 -128t-54 -86.5t-59.5 -50.5t-60 -25t-59.5 -6q-49 0 -87 20t-38 62q0 37 29 61.5t77 24.5l34 -107q86 0 144 223zM442 573v-18h-37l-66 78l-102 -78h-45v18l143 154h58z" />
    <glyph glyph-name="Ydieresis" unicode="&#x178;" horiz-adv-x="684" 
d="M753 609l-2 -2q-61 0 -120 -79l-177 -228l-27 -129q-13 -58 1.5 -72t71.5 -14l-18 -85h-333l18 85q57 0 72.5 13t28.5 73l27 129l-87 218q-17 36 -21 45t-16.5 24t-25.5 17.5t-36 2.5l17 84h331l-17 -84q-57 0 -71.5 -13.5t0.5 -54.5l52 -150l109 149q24 27 14.5 47.5
t-51.5 21.5l17 84h260zM661 835q0 -27 -21 -47.5t-47 -20.5q-28 0 -49 20.5t-21 47.5q0 28 21 49t49 21q26 0 47 -21.5t21 -48.5zM481 835q0 -27 -20 -47.5t-49 -20.5q-27 0 -48 20.5t-21 47.5q0 28 21 49t48 21q29 0 49 -21t20 -49z" />
    <glyph glyph-name="Zacute" unicode="&#x179;" horiz-adv-x="636" 
d="M-14 0l10 48l497 555l-2 4h-118q-60 0 -115 -61t-77 -140h-86l70 285h571l-9 -46l-502 -556l2 -4h154q54 0 108.5 61.5t88.5 159.5h87l-94 -306h-585zM375 747v18l86 119h124v-20l-139 -117h-71z" />
    <glyph glyph-name="zacute" unicode="&#x17a;" horiz-adv-x="439" 
d="M325 375l-7 6l-73 -32q-38 25 -61 25q-25 0 -43.5 -26t-21.5 -57l-56 5q11 99 46 154t90 55q63 -3 121 -50q50 2 87 51l73 -50l-189 -205l-129 -132l6 -5l73 33q30 -43 70 -43q25 0 42 24t23 62l50 -8q-36 -194 -149 -194q-40 0 -67.5 13.5t-56.5 39.5q-44 -3 -93 -53
l-59 49l219 226zM235 555v18l86 154h124v-20l-139 -152h-71z" />
    <glyph glyph-name="Zdotaccent" unicode="&#x17b;" horiz-adv-x="636" 
d="M-14 0l10 48l497 555l-2 4h-118q-60 0 -115 -61t-77 -140h-86l70 285h571l-9 -46l-502 -556l2 -4h154q54 0 108.5 61.5t88.5 159.5h87l-94 -306h-585zM396 810q0 35 21.5 62t54.5 27q25 0 40 -19t15 -47q0 -35 -22.5 -60t-51.5 -25q-25 0 -41 18.5t-16 43.5z" />
    <glyph glyph-name="zdotaccent" unicode="&#x17c;" horiz-adv-x="439" 
d="M325 375l-7 6l-73 -32q-38 25 -61 25q-25 0 -43.5 -26t-21.5 -57l-56 5q11 99 46 154t90 55q63 -3 121 -50q50 2 87 51l73 -50l-189 -205l-129 -132l6 -5l73 33q30 -43 70 -43q25 0 42 24t23 62l50 -8q-36 -194 -149 -194q-40 0 -67.5 13.5t-56.5 39.5q-44 -3 -93 -53
l-59 49l219 226zM254 639q0 38 24 68t60 30q28 0 44 -21t16 -52q0 -38 -24.5 -65.5t-56.5 -27.5q-28 0 -45.5 20t-17.5 48z" />
    <glyph glyph-name="Zcaron" unicode="&#x17d;" horiz-adv-x="636" 
d="M-14 0l10 48l497 555l-2 4h-118q-60 0 -115 -61t-77 -140h-86l70 285h571l-9 -46l-502 -556l2 -4h154q54 0 108.5 61.5t88.5 159.5h87l-94 -306h-585zM346 866v18h37l81 -58l127 58h45v-18l-163 -119h-58z" />
    <glyph glyph-name="zcaron" unicode="&#x17e;" horiz-adv-x="439" 
d="M325 375l-7 6l-73 -32q-38 25 -61 25q-25 0 -43.5 -26t-21.5 -57l-56 5q11 99 46 154t90 55q63 -3 121 -50q50 2 87 51l73 -50l-189 -205l-129 -132l6 -5l73 33q30 -43 70 -43q25 0 42 24t23 62l50 -8q-36 -194 -149 -194q-40 0 -67.5 13.5t-56.5 39.5q-44 -3 -93 -53
l-59 49l219 226zM220 709v18h37l66 -78l102 78h45v-18l-143 -154h-58z" />
    <glyph glyph-name="florin" unicode="&#x192;" horiz-adv-x="544" 
d="M76 309l14 49h94l25 100q17 70 76.5 125t146.5 55q59 0 97 -27t38 -66q0 -20 -11.5 -33.5t-33.5 -13.5q-21 0 -34 14.5t-18 31.5t-15.5 31.5t-26.5 14.5q-32 0 -51 -34t-39 -105l-26 -93h120l-14 -49h-117l-88 -327q-23 -84 -75.5 -136.5t-119.5 -52.5q-45 0 -76.5 19.5
t-31.5 49.5q0 19 10 32t27 13q14 0 25 -10.5t17 -23.5t15.5 -23.5t20.5 -10.5q32 0 64 130l86 340h-99z" />
    <glyph glyph-name="Scommaaccent" unicode="&#x218;" horiz-adv-x="586" 
d="M126 59l-27 -59h-84l54 288h74v-11q0 -88 47.5 -142t122.5 -54q44 0 75 24t31 67q0 39 -27.5 62t-101.5 53q-40 17 -67.5 32.5t-57 40.5t-45 59t-15.5 76q0 89 76.5 147.5t166.5 58.5q106 0 166 -64l2 2l-2 -1l32 57h79l-54 -263h-71q-9 93 -45.5 135t-105.5 42
q-44 0 -66.5 -24t-22.5 -47q0 -19 9 -36t18 -27.5t33.5 -24.5t35 -19t42.5 -19q7 -3 11 -5q73 -32 114 -75t41 -119q0 -91 -77 -158t-177 -67q-69 0 -115 22t-69 49zM238 -78q0 18 13.5 30t35.5 12q24 0 43 -21.5t19 -58.5q0 -48 -43.5 -86.5t-112.5 -38.5v31q35 0 55 21.5
t20 46.5q0 17 -15 35t-15 29z" />
    <glyph glyph-name="scommaaccent" unicode="&#x219;" horiz-adv-x="385" 
d="M116 179q0 -104 59 -104q18 0 29 10.5t11 28.5q0 23 -20.5 52t-45.5 54t-46.5 61t-22.5 70q0 64 47 109t125 45q53 0 94 -30t41 -72q0 -41 -24.5 -64.5t-70.5 -23.5q1 9 1 24q0 38 -13.5 59t-37.5 21q-37 0 -37 -44q0 -27 21 -56.5t46 -53t47 -58t23 -70.5
q0 -65 -50.5 -107t-126.5 -42q-66 0 -105.5 25t-39.5 70q0 42 26.5 69t69.5 27zM103 -81q0 18 13.5 30t35.5 12q24 0 43 -21.5t19 -58.5q0 -48 -43.5 -86.5t-112.5 -38.5v31q35 0 55 21.5t20 46.5q0 17 -15 35t-15 29z" />
    <glyph glyph-name="schwa" unicode="&#x259;" horiz-adv-x="425" 
d="M22 105q0 37 19.5 70.5t57 62t78 50.5t95.5 45q8 89 -67 89q-71 0 -126 -112l-50 26q87 169 215 169q172 0 172 -188q0 -141 -76.5 -235t-175.5 -94q-60 0 -101 32t-41 85zM149 110q0 -18 7.5 -28.5t18.5 -10.5q37 0 66 60t32 139q-124 -70 -124 -160z" />
    <glyph glyph-name="quoteleft" unicode="&#x2bb;" horiz-adv-x="381" 
d="M340 432q0 -26 -21.5 -46.5t-55.5 -20.5q-43 0 -77.5 40t-34.5 108q0 79 74 143t181 64v-57q-66 0 -104.5 -31.5t-38.5 -73.5q0 -21 12 -38.5t26.5 -27.5t26.5 -26t12 -34z" />
    <glyph glyph-name="quoteleft" unicode="&#x2018;" horiz-adv-x="381" 
d="M340 432q0 -26 -21.5 -46.5t-55.5 -20.5q-43 0 -77.5 40t-34.5 108q0 79 74 143t181 64v-57q-66 0 -104.5 -31.5t-38.5 -73.5q0 -21 12 -38.5t26.5 -27.5t26.5 -26t12 -34z" />
    <glyph glyph-name="circumflex" unicode="&#x2c6;" horiz-adv-x="500" 
d="M374 506v-18h-37l-66 78l-102 -78h-45v18l143 154h58z" />
    <glyph glyph-name="caron" unicode="&#x2c7;" horiz-adv-x="500" 
d="M170 642v18h37l66 -78l102 78h45v-18l-143 -154h-58z" />
    <glyph glyph-name="breve" unicode="&#x2d8;" horiz-adv-x="500" 
d="M243 488q-49 0 -74 44t-12 128h50q-4 -35 10.5 -61.5t41.5 -26.5q34 0 60.5 25t33.5 63h54q-13 -81 -61 -126.5t-103 -45.5z" />
    <glyph glyph-name="dotaccent" unicode="&#x2d9;" horiz-adv-x="500" 
d="M204 572q0 38 24 68t60 30q28 0 44 -21t16 -52q0 -38 -24.5 -65.5t-56.5 -27.5q-28 0 -45.5 20t-17.5 48z" />
    <glyph glyph-name="ring" unicode="&#x2da;" horiz-adv-x="500" 
d="M156 586q0 43 30 73.5t73 30.5t73.5 -30t30.5 -74q0 -43 -30.5 -73t-73.5 -30t-73 30t-30 73zM212 586q0 -21 12.5 -35.5t33.5 -14.5q22 0 35.5 14.5t13.5 35.5q0 22 -13.5 37t-35.5 15q-21 0 -33.5 -15t-12.5 -37z" />
    <glyph glyph-name="ogonek" unicode="&#x2db;" horiz-adv-x="500" 
d="M279 -182l6 -31q-27 -11 -77 -11q-54 0 -89.5 21t-35.5 58q0 49 53.5 95.5t137.5 78.5l11 -21q-98 -55 -98 -139q0 -26 15.5 -41.5t38.5 -15.5q18 0 38 6z" />
    <glyph glyph-name="tilde" unicode="&#x2dc;" horiz-adv-x="500" 
d="M377 650l36 -10q-14 -54 -42.5 -95.5t-54.5 -41.5q-16 0 -71 30t-71 30q-14 0 -24.5 -15.5t-23.5 -47.5l-39 12q11 45 41 91.5t48 46.5q21 0 72.5 -30.5t71.5 -30.5q16 0 33.5 20t23.5 41z" />
    <glyph glyph-name="hungarumlaut" unicode="&#x2dd;" horiz-adv-x="500" 
d="M280 488v18l96 154h124v-20l-154 -152h-66zM110 488v18l96 154h124v-20l-154 -152h-66z" />
    <glyph glyph-name="Delta" unicode="&#x394;" horiz-adv-x="544" 
d="M532 0h-520l223 631h45zM226 457l-137 -402h293z" />
    <glyph glyph-name="Delta" unicode="&#x2206;" horiz-adv-x="544" 
d="M532 0h-520l223 631h45zM226 457l-137 -402h293z" />
    <glyph glyph-name="Omega" unicode="&#x3a9;" horiz-adv-x="544" 
d="M275 578q-57 0 -87.5 -66.5t-30.5 -148.5q0 -133 29 -228t70 -112l-6 -23h-233l-30 156h29l53 -94h64l6 10q-48 48 -79.5 124t-31.5 156q0 114 69.5 200t178.5 86t178.5 -86t69.5 -200q0 -80 -31.5 -156t-79.5 -124l6 -10h64l53 94h29l-30 -156h-233l-6 23q41 17 70 112
t29 228q0 82 -31 148.5t-89 66.5z" />
    <glyph glyph-name="Omega" unicode="&#x2126;" horiz-adv-x="544" 
d="M275 578q-57 0 -87.5 -66.5t-30.5 -148.5q0 -133 29 -228t70 -112l-6 -23h-233l-30 156h29l53 -94h64l6 10q-48 48 -79.5 124t-31.5 156q0 114 69.5 200t178.5 86t178.5 -86t69.5 -200q0 -80 -31.5 -156t-79.5 -124l6 -10h64l53 94h29l-30 -156h-233l-6 23q41 17 70 112
t29 228q0 82 -31 148.5t-89 66.5z" />
    <glyph glyph-name="lambda" unicode="&#x3bb;" horiz-adv-x="528" 
d="M283 608l115 -454q16 -62 24 -79.5t23 -17.5q12 0 27 27t32 27q18 0 28.5 -13.5t10.5 -33.5q0 -32 -26.5 -52.5t-63.5 -20.5q-86 0 -115 111l-50 204l-141 -306h-125l223 481l-29 121q-18 74 -58 74q-16 0 -41 -35t-43 -35q-41 0 -41 44q0 33 32.5 58.5t83.5 25.5
q54 0 87.5 -35.5t46.5 -90.5z" />
    <glyph glyph-name="pi" unicode="&#x3c0;" horiz-adv-x="544" 
d="M174 22q-32 -44 -78 -33q-33 8 -38 34q-5 23 22 44q64 48 89 115.5t25 179.5h-31q-35 0 -53 -13t-27 -48l-27 5q15 73 37.5 103t62.5 30h332v-77h-91l-21 -229q-3 -51 27 -51q34 0 55 62l30 -3q-13 -78 -43 -113t-69 -35q-48 0 -70.5 29t-17.5 79l27 261h-69
q-5 -227 -72 -340z" />
    <glyph glyph-name="Wgrave" unicode="&#x1e80;" horiz-adv-x="977" 
d="M671 234h6l136 263q34 59 28 86t-63 23l18 85h267l-18 -85q-39 0 -64.5 -23.5t-61.5 -87.5l-269 -501h-90l-36 344l-187 -344h-82l-72 536q-7 45 -23 60.5t-52 15.5l18 85h288l-18 -85q-67 3 -59 -76l33 -296h7l133 239l-6 57q-5 44 -17.5 60t-44.5 16l18 85h275l-18 -85
q-44 -1 -55.5 -16.5t-9.5 -59.5zM657 765v-18h-71l-104 117v20h124z" />
    <glyph glyph-name="wgrave" unicode="&#x1e81;" horiz-adv-x="735" 
d="M496 474l-25 -317q-2 -25 9 -32q127 78 127 231q0 51 -12 91q-7 34 6 58l87 20q29 -6 35 -64q5 -101 -41.5 -200t-132.5 -173t-190 -100q-35 0 -32 41l7 99q-87 -105 -195 -140q-35 0 -32 41l28 351l-6 13q-30 4 -40.5 -10.5t-15.5 -76.5l-49 5q3 31 6.5 53t9.5 44.5
t15.5 36.5t24 26t34.5 16.5t47.5 4.5t62.5 -7l43 -61l-21 -262q-2 -25 9 -32q55 36 86 95l18 247q0 10 88 10q49 0 49 -8zM507 573v-18h-71l-139 152v20h124z" />
    <glyph glyph-name="Wacute" unicode="&#x1e82;" horiz-adv-x="977" 
d="M671 234h6l136 263q34 59 28 86t-63 23l18 85h267l-18 -85q-39 0 -64.5 -23.5t-61.5 -87.5l-269 -501h-90l-36 344l-187 -344h-82l-72 536q-7 45 -23 60.5t-52 15.5l18 85h288l-18 -85q-67 3 -59 -76l33 -296h7l133 239l-6 57q-5 44 -17.5 60t-44.5 16l18 85h275l-18 -85
q-44 -1 -55.5 -16.5t-9.5 -59.5zM537 747v18l86 119h124v-20l-139 -117h-71z" />
    <glyph glyph-name="wacute" unicode="&#x1e83;" horiz-adv-x="735" 
d="M496 474l-25 -317q-2 -25 9 -32q127 78 127 231q0 51 -12 91q-7 34 6 58l87 20q29 -6 35 -64q5 -101 -41.5 -200t-132.5 -173t-190 -100q-35 0 -32 41l7 99q-87 -105 -195 -140q-35 0 -32 41l28 351l-6 13q-30 4 -40.5 -10.5t-15.5 -76.5l-49 5q3 31 6.5 53t9.5 44.5
t15.5 36.5t24 26t34.5 16.5t47.5 4.5t62.5 -7l43 -61l-21 -262q-2 -25 9 -32q55 36 86 95l18 247q0 10 88 10q49 0 49 -8zM377 555v18l86 154h124v-20l-139 -152h-71z" />
    <glyph glyph-name="Wdieresis" unicode="&#x1e84;" horiz-adv-x="977" 
d="M671 234h6l136 263q34 59 28 86t-63 23l18 85h267l-18 -85q-39 0 -64.5 -23.5t-61.5 -87.5l-269 -501h-90l-36 344l-187 -344h-82l-72 536q-7 45 -23 60.5t-52 15.5l18 85h288l-18 -85q-67 3 -59 -76l33 -296h7l133 239l-6 57q-5 44 -17.5 60t-44.5 16l18 85h275l-18 -85
q-44 -1 -55.5 -16.5t-9.5 -59.5zM774 835q0 -27 -21 -47.5t-47 -20.5q-28 0 -49 20.5t-21 47.5q0 28 21 49t49 21q26 0 47 -21.5t21 -48.5zM594 835q0 -27 -20 -47.5t-49 -20.5q-27 0 -48 20.5t-21 47.5q0 28 21 49t48 21q29 0 49 -21t20 -49z" />
    <glyph glyph-name="wdieresis" unicode="&#x1e85;" horiz-adv-x="735" 
d="M496 474l-25 -317q-2 -25 9 -32q127 78 127 231q0 51 -12 91q-7 34 6 58l87 20q29 -6 35 -64q5 -101 -41.5 -200t-132.5 -173t-190 -100q-35 0 -32 41l7 99q-87 -105 -195 -140q-35 0 -32 41l28 351l-6 13q-30 4 -40.5 -10.5t-15.5 -76.5l-49 5q3 31 6.5 53t9.5 44.5
t15.5 36.5t24 26t34.5 16.5t47.5 4.5t62.5 -7l43 -61l-21 -262q-2 -25 9 -32q55 36 86 95l18 247q0 10 88 10q49 0 49 -8zM614 643q0 -27 -21 -47.5t-47 -20.5q-28 0 -49 20.5t-21 47.5q0 28 21 49t49 21q26 0 47 -21.5t21 -48.5zM434 643q0 -27 -20 -47.5t-49 -20.5
q-27 0 -48 20.5t-21 47.5q0 28 21 49t48 21q29 0 49 -21t20 -49z" />
    <glyph glyph-name="uni1e9e" unicode="&#x1e9e;" horiz-adv-x="773" 
d="M481 -12q-92 0 -158 35l32 178h83q-3 -24 -3 -44q0 -91 52 -91q37 0 70 41t33 116q0 111 -63 111q-49 0 -108 -34l-63 70l223 235l-2 12h-207l-106 -496q-2 -7 -2 -18q0 -12 7.5 -16t26.5 -6q6 -1 10 -1l-17 -80h-297l17 80q58 8 73 18q15 11 19 30l94 443q2 10 2 13
q0 15 -15.5 19t-60.5 4l17 84h637l-4 -66l-202 -204l5 -11q28 5 48 5q65 0 101.5 -45.5t36.5 -124.5q0 -66 -28.5 -118t-72.5 -81t-90 -43.5t-88 -14.5z" />
    <glyph glyph-name="Ygrave" unicode="&#x1ef2;" horiz-adv-x="684" 
d="M753 609l-2 -2q-61 0 -120 -79l-177 -228l-27 -129q-13 -58 1.5 -72t71.5 -14l-18 -85h-333l18 85q57 0 72.5 13t28.5 73l27 129l-87 218q-17 36 -21 45t-16.5 24t-25.5 17.5t-36 2.5l17 84h331l-17 -84q-57 0 -71.5 -13.5t0.5 -54.5l52 -150l109 149q24 27 14.5 47.5
t-51.5 21.5l17 84h260zM544 765v-18h-71l-104 117v20h124z" />
    <glyph glyph-name="ygrave" unicode="&#x1ef3;" horiz-adv-x="514" 
d="M310 59l-7 2q-57 -73 -118 -73q-42 0 -66 18.5t-30 53t-3 72t14 87.5q4 21 12.5 52.5t13.5 52t8.5 41.5t1.5 31t-10 10q-33 0 -54 -125l-53 3q21 110 55.5 165.5t94.5 55.5q34 0 55 -14t28.5 -34t7 -53t-5.5 -59t-14 -65q-16 -68 -23 -104t-7.5 -64t9.5 -39
q26 0 61.5 49.5t59.5 125.5q7 23 24 124t22 123h134l-89 -424q-20 -73 -47 -128t-54 -86.5t-59.5 -50.5t-60 -25t-59.5 -6q-49 0 -87 20t-38 62q0 37 29 61.5t77 24.5l34 -107q86 0 144 223zM383 573v-18h-71l-139 152v20h124z" />
    <glyph glyph-name="uni2011" unicode="&#x2011;" horiz-adv-x="318" 
d="M42 308h250v-113h-250v113z" />
    <glyph glyph-name="endash" unicode="&#x2013;" horiz-adv-x="488" 
d="M62 308h400v-113h-400v113z" />
    <glyph glyph-name="emdash" unicode="&#x2014;" horiz-adv-x="1000" 
d="M110 291h816v-83h-816v83z" />
    <glyph glyph-name="quoteright" unicode="&#x2019;" horiz-adv-x="381" 
d="M179 653q0 26 21.5 46.5t55.5 20.5q43 0 77.5 -40t34.5 -108q0 -79 -74 -143t-181 -64v57q66 0 104.5 31.5t38.5 73.5q0 21 -12 38.5t-26.5 27.5t-26.5 26t-12 34z" />
    <glyph glyph-name="quotesinglbase" unicode="&#x201a;" horiz-adv-x="381" 
d="M53 58q0 26 21.5 46.5t55.5 20.5q43 0 77.5 -40t34.5 -108q0 -79 -74 -143t-181 -64v57q66 0 104.5 31.5t38.5 73.5q0 21 -12 38.5t-26.5 27.5t-26.5 26t-12 34z" />
    <glyph glyph-name="quotedblleft" unicode="&#x201c;" horiz-adv-x="621" 
d="M340 432q0 -26 -21.5 -46.5t-55.5 -20.5q-43 0 -77.5 40t-34.5 108q0 79 74 143t181 64v-57q-66 0 -104.5 -31.5t-38.5 -73.5q0 -21 12 -38.5t26.5 -27.5t26.5 -26t12 -34zM580 432q0 -26 -21.5 -46.5t-55.5 -20.5q-43 0 -77.5 40t-34.5 108q0 79 74 143t181 64v-57
q-66 0 -104.5 -31.5t-38.5 -73.5q0 -21 12 -38.5t26.5 -27.5t26.5 -26t12 -34z" />
    <glyph glyph-name="quotedblright" unicode="&#x201d;" horiz-adv-x="621" 
d="M419 653q0 26 21.5 46.5t55.5 20.5q43 0 77.5 -40t34.5 -108q0 -79 -74 -143t-181 -64v57q66 0 104.5 31.5t38.5 73.5q0 21 -12 38.5t-26.5 27.5t-26.5 26t-12 34zM179 653q0 26 21.5 46.5t55.5 20.5q43 0 77.5 -40t34.5 -108q0 -79 -74 -143t-181 -64v57
q66 0 104.5 31.5t38.5 73.5q0 21 -12 38.5t-26.5 27.5t-26.5 26t-12 34z" />
    <glyph glyph-name="quotedblbase" unicode="&#x201e;" horiz-adv-x="621" 
d="M293 58q0 26 21.5 46.5t55.5 20.5q43 0 77.5 -40t34.5 -108q0 -79 -74 -143t-181 -64v57q66 0 104.5 31.5t38.5 73.5q0 21 -12 38.5t-26.5 27.5t-26.5 26t-12 34zM53 58q0 26 21.5 46.5t55.5 20.5q43 0 77.5 -40t34.5 -108q0 -79 -74 -143t-181 -64v57q66 0 104.5 31.5
t38.5 73.5q0 21 -12 38.5t-26.5 27.5t-26.5 26t-12 34z" />
    <glyph glyph-name="dagger" unicode="&#x2020;" horiz-adv-x="548" 
d="M557 480q-9 -39 -35.5 -62t-51.5 -16q-13 4 -28 15.5t-33.5 19t-49.5 7.5q-17 -68 -15 -111t30 -65q-29 -11 -55 -71.5t-62 -233.5h-68q25 120 32.5 185.5t2 88.5t-23.5 31q35 23 56 65.5t35 110.5q-31 0 -52.5 -6.5t-44 -20t-32.5 -17.5q-27 -10 -44 16t-9 64
q7 35 33 55t51 15q12 -5 27.5 -16.5t34 -19t49.5 -7.5q3 49 3 61.5t-8 41t-10 38.5q-5 25 23 47.5t66 22.5t59 -22t7 -48q-4 -8 -33 -51t-39 -90q30 0 51.5 7t44 20t34.5 18q27 10 44.5 -14t10.5 -58z" />
    <glyph glyph-name="daggerdbl" unicode="&#x2021;" horiz-adv-x="548" 
d="M196 257q65 46 95 187q-31 0 -52.5 -6.5t-44 -20t-32.5 -17.5q-27 -10 -44 16t-9 64q7 35 33 55t51 15q12 -5 27.5 -16.5t34 -19t49.5 -7.5q6 48 5.5 62t-9.5 41t-11 38q-6 25 24 47.5t70 22.5q36 0 55 -22t6 -48q-4 -8 -33 -51t-39 -90q30 0 51.5 7t44 20t34.5 18
q27 10 44.5 -14t10.5 -58q-9 -39 -35.5 -62t-51.5 -16q-13 4 -28 15.5t-33.5 19t-49.5 7.5q-16 -67 -14 -115t27 -72q-35 -26 -55.5 -66.5t-37.5 -120.5q31 0 52.5 6.5t44 19.5t33.5 18q27 10 44.5 -14.5t9.5 -60.5q-8 -37 -34 -58.5t-52 -16.5q-12 5 -27.5 16.5t-34 19
t-49.5 7.5q-6 -48 -5.5 -62t9.5 -41t11 -38q5 -25 -23 -47.5t-66 -22.5t-59 22t-7 48q4 8 33 51t39 90q-30 0 -51.5 -7t-44 -20t-34.5 -18q-27 -10 -44.5 14t-9.5 58q8 39 34.5 62t51.5 16q13 -4 28 -15.5t33.5 -19t49.5 -7.5q17 73 15 118t-30 69z" />
    <glyph glyph-name="bullet" unicode="&#x2022;" horiz-adv-x="604" 
d="M187 264q0 56 40 96t96 40t96 -40t40 -96t-40 -96t-96 -40t-96 40t-40 96z" />
    <glyph glyph-name="ellipsis" unicode="&#x2026;" horiz-adv-x="993" 
d="M79 75q0 35 24 59.5t58 24.5q35 0 59.5 -24.5t24.5 -59.5q0 -34 -24.5 -58t-59.5 -24t-58.5 23.5t-23.5 58.5zM389 75q0 35 24 59.5t58 24.5q35 0 59.5 -24.5t24.5 -59.5q0 -34 -24.5 -58t-59.5 -24t-58.5 23.5t-23.5 58.5zM699 75q0 35 24 59.5t58 24.5q35 0 59.5 -24.5
t24.5 -59.5q0 -34 -24.5 -58t-59.5 -24t-58.5 23.5t-23.5 58.5z" />
    <glyph glyph-name="perthousand" unicode="&#x2030;" horiz-adv-x="831" 
d="M370 542q-22 0 -41 11q-6 -78 -49 -127.5t-99 -49.5q-51 0 -83 37t-32 96q0 76 48.5 132t104.5 56q36 0 63.5 -20t38.5 -54v1q12 -28 56 -28q36 0 73 25q20 70 62 70q12 0 23 -7.5t11 -23.5q0 -18 -14.5 -37t-31.5 -30l-184 -279v1l-215 -337l-48 37l222 330l-1 -1
l123 201q-13 -3 -27 -3zM283 121q0 77 48.5 132.5t105.5 55.5q49 0 80 -33t31 -90q0 -88 -46 -142.5t-102 -54.5q-53 0 -85 37t-32 95zM453 246q-28 0 -53 -48t-25 -104q0 -46 30 -46q29 0 53 37.5t24 109.5q0 23 -9 37t-20 14zM237 632q-29 0 -54 -47t-25 -102
q0 -47 32 -47q28 0 51.5 38t23.5 108q0 50 -28 50zM556 121q0 77 48 132.5t104 55.5q50 0 80.5 -33t30.5 -90q0 -89 -45.5 -143t-102.5 -54q-51 0 -83 37t-32 95zM725 246q-28 0 -53 -48t-25 -104q0 -46 29 -46t53.5 37.5t24.5 109.5q0 24 -8 37.5t-21 13.5z" />
    <glyph glyph-name="uni2032" unicode="&#x2032;" horiz-adv-x="290" 
d="M158 460l70 266l108 -39l-114 -250z" />
    <glyph glyph-name="uni2033" unicode="&#x2033;" horiz-adv-x="480" 
d="M158 460l70 266l108 -39l-114 -250zM348 460l70 266l108 -39l-114 -250z" />
    <glyph glyph-name="guilsinglleft" unicode="&#x2039;" horiz-adv-x="445" 
d="M103 225l274 234l43 -30l-186 -221l-5 -15l46 -183l-59 -14l-120 206z" />
    <glyph glyph-name="guilsinglright" unicode="&#x203a;" horiz-adv-x="445" 
d="M362 230l-274 -234l-43 30l186 221l5 15l-46 183l59 14l120 -206z" />
    <glyph glyph-name="uni2042" unicode="&#x2042;" horiz-adv-x="901" 
d="M611 451q26 -17 5 -52q-19 -32 -48 -34q-20 -2 -32 18q-5 8 -14 27.5t-22 41t-33 45.5q-5 -40 -6.5 -83.5t-2.5 -50.5q-3 -29 -41 -29q-36 0 -52 23q-10 16 -1 34q5 11 26 45t39 72q-31 -8 -53.5 -19t-39.5 -22t-27 -15q-27 -12 -46 20q-19 33 -5 59q9 15 28 17
q8 1 52 2.5t82 4.5q-30 28 -68 49t-41 23q-24 19 -3 53q18 30 45 32q18 0 29 -18q3 -5 15.5 -26.5t25 -41.5t29.5 -42q6 40 6.5 80t1.5 51q4 30 42 29q36 -1 53 -25q11 -16 2 -34q-5 -8 -18 -26t-26 -39t-24 -47q50 16 121 52q27 13 47 -21q19 -33 6 -59q-8 -15 -29 -16
q-5 0 -49.5 3.5t-81.5 -1.5q60 -52 108 -80zM371 61q26 -17 5 -52q-19 -32 -48 -34q-20 -2 -32 18q-5 8 -14 27.5t-22 41t-33 45.5q-5 -40 -6.5 -83.5t-2.5 -50.5q-3 -29 -41 -29q-36 0 -52 23q-10 16 -1 34q5 11 26 45t39 72q-31 -8 -53.5 -19t-39.5 -22t-27 -15
q-27 -12 -46 20q-19 33 -5 59q9 15 28 17q8 1 52 2.5t82 4.5q-30 28 -68 49t-41 23q-24 19 -3 53q18 30 45 32q18 0 29 -18q3 -5 15.5 -26.5t25 -41.5t29.5 -42q6 40 6.5 80t1.5 51q4 30 42 29q36 -1 53 -25q11 -16 2 -34q-5 -8 -18 -26t-26 -39t-24 -47q50 16 121 52
q27 13 47 -21q19 -33 6 -59q-8 -15 -29 -16q-5 0 -49.5 3.5t-81.5 -1.5q60 -52 108 -80zM811 61q26 -17 5 -52q-19 -32 -48 -34q-20 -2 -32 18q-5 8 -14 27.5t-22 41t-33 45.5q-5 -40 -6.5 -83.5t-2.5 -50.5q-3 -29 -41 -29q-36 0 -52 23q-10 16 -1 34q5 11 26 45t39 72
q-31 -8 -53.5 -19t-39.5 -22t-27 -15q-27 -12 -46 20q-19 33 -5 59q9 15 28 17q8 1 52 2.5t82 4.5q-30 28 -68 49t-41 23q-24 19 -3 53q18 30 45 32q18 0 29 -18q3 -5 15.5 -26.5t25 -41.5t29.5 -42q6 40 6.5 80t1.5 51q4 30 42 29q36 -1 53 -25q11 -16 2 -34q-5 -8 -18 -26
t-26 -39t-24 -47q50 16 121 52q27 13 47 -21q19 -33 6 -59q-8 -15 -29 -16q-5 0 -49.5 3.5t-81.5 -1.5q60 -52 108 -80z" />
    <glyph glyph-name="fraction" unicode="&#x2044;" 
d="M120 -9l307 370l285 353l45 -36l-295 -349l-297 -375z" />
    <glyph glyph-name="zero.sups" unicode="&#x2070;" horiz-adv-x="331" 
d="M438 662q0 -110 -59.5 -181t-143.5 -71q-128 0 -128 129q0 104 63.5 183.5t143.5 79.5q124 0 124 -140zM243 465q39 0 63 71.5t24 152.5q0 32 -6.5 44t-20.5 12q-32 0 -59 -71.5t-27 -150.5q0 -58 26 -58z" />
    <glyph glyph-name="four.sups" unicode="&#x2074;" horiz-adv-x="322" 
d="M103 524l-1 22l252 257l57 -8l-47 -224h51l-8 -47h-52l-5 -20q-6 -27 3 -33.5t40 -6.5l-10 -48h-200l9 48q25 0 37 8t18 29q1 4 3 11.5t2 11.5h-149zM189 571h72l18 86l-83 -85z" />
    <glyph glyph-name="five.sups" unicode="&#x2075;" horiz-adv-x="316" 
d="M237 712l-19 -58q34 14 72 14q46 0 79 -26t33 -73q0 -51 -32 -88.5t-74.5 -54t-86.5 -16.5q-49 0 -85 19.5t-36 52.5q0 27 19 45t47 18q47 0 49 -39l-28 -38q13 -11 32 -11q32 0 57 26t25 74q0 59 -33 59q-24 0 -68 -33h-55l64 223q68 -20 124 -20q49 0 112 20l-9 -45
q-58 -52 -147 -52q-21 0 -40 3z" />
    <glyph glyph-name="six.sups" unicode="&#x2076;" horiz-adv-x="333" 
d="M338 802q52 0 79.5 -21t27.5 -50q0 -22 -18 -37.5t-41 -15.5q-22 0 -39 8.5t-18 23.5l25 35q-9 11 -26 11q-23 0 -46.5 -29t-36.5 -77q31 17 69 17q52 0 79 -26t27 -70q0 -74 -55 -117.5t-120 -43.5q-58 0 -95 30t-37 100q0 104 69 183t156 79zM251 462q26 0 40 30.5
t14 77.5q0 46 -23 46q-25 0 -55 -41l2 1q-8 -42 -8 -63q0 -51 30 -51z" />
    <glyph glyph-name="seven.sups" unicode="&#x2077;" horiz-adv-x="305" 
d="M331 710l-2 4q-16 -5 -35 -5q-14 0 -30 4q-12 3 -23 3q-38 0 -59 -56h-51l47 142h51l2 -8q21 8 48 8q21 0 50 -9q26 -10 40 -10q22 0 73 28l18 -55q-84 -71 -125.5 -130t-70.5 -164q-5 -17 -9.5 -25.5t-18.5 -15.5t-39 -7q-64 0 -46 52q40 117 180 244z" />
    <glyph glyph-name="eight.sups" unicode="&#x2078;" horiz-adv-x="322" 
d="M349 622v-4l-6 2q64 -26 64 -79q0 -56 -54 -93.5t-122 -37.5q-61 0 -98.5 23t-37.5 63q0 31 27.5 59.5t66.5 46.5l-6 -2l1 2v3l4 -2q-41 33 -41 81q0 45 43.5 81.5t120.5 36.5q56 0 87.5 -22t31.5 -58q0 -57 -86 -102zM244 459q23 0 39.5 15.5t16.5 38.5q0 41 -63 61
q-15 -8 -28 -28t-13 -44q0 -43 48 -43zM251 705q0 -37 43 -57q35 23 35 61q0 20 -9 32t-25 12q-19 0 -31.5 -15t-12.5 -33z" />
    <glyph glyph-name="nine.sups" unicode="&#x2079;" horiz-adv-x="333" 
d="M219 410q-53 0 -82 20.5t-29 47.5q0 26 18.5 41.5t43.5 15.5q38 0 48 -29l-18 -38q5 -10 20 -10q27 0 52 31t38 76q-32 -17 -73 -17q-52 0 -79.5 24.5t-27.5 65.5q0 73 57 118.5t124 45.5q55 0 92 -32.5t37 -101.5q0 -101 -69.5 -179.5t-151.5 -78.5zM305 750
q-22 0 -40.5 -34.5t-18.5 -78.5q0 -40 25 -40q30 0 56 46l-1 -1q8 40 8 62q0 46 -29 46z" />
    <glyph glyph-name="Euro" unicode="&#x20ac;" horiz-adv-x="645" 
d="M113 402h50q47 125 139 199t195 74q107 0 185 -66l-62 -143h-46q9 82 -19 115.5t-71 33.5q-51 0 -99.5 -53.5t-81.5 -159.5h284l-23 -51h-275q-6 -22 -8 -34l-3 -12h265l-22 -51h-250q-11 -98 19.5 -151t81.5 -53q101 0 159 113l48 -13q-83 -162 -240 -162
q-103 0 -162.5 70t-48.5 196h-58l22 51h44q0 3 2 11q2 9 8 35h-55z" />
    <glyph glyph-name="uni2117" unicode="&#x2117;" horiz-adv-x="775" 
d="M48 327q0 138 100.5 238t239.5 100q144 0 241.5 -99t97.5 -239t-100 -240.5t-239 -100.5q-142 0 -241 96.5t-99 244.5zM108 324q0 -122 79 -203.5t203 -81.5q123 0 199.5 81t76.5 204q0 125 -79 208t-199 83q-122 0 -201 -83.5t-79 -207.5zM412 296h-41v-119l50 -8v-27
h-176v27l47 8v299l-47 8v26h169q56 0 98 -26.5t42 -80.5q0 -49 -38 -78t-104 -29zM371 470v-136h45q23 0 40.5 18t17.5 47q0 71 -62 71h-41z" />
    <glyph glyph-name="trademark" unicode="&#x2122;" horiz-adv-x="670" 
d="M631 634h-7l-116 -179h-17l-36 179h-5l-47 -150l32 -6l-5 -23h-92l5 23l34 6l60 193l-36 6l5 23h94l26 -165h7l107 165h92l-5 -23l-37 -6l-29 -193l30 -6l-5 -23h-118l5 23l35 6zM167 706h210l-2 -74h-20l-22 47h-38l-42 -195l31 -6l-5 -23h-121l5 23l33 6l42 195h-37
l-42 -47h-21z" />
    <glyph glyph-name="oneseventh" unicode="&#x2150;" 
d="M120 -9l307 370l285 353l45 -36l-295 -349l-297 -375zM155 625l9 45q20 -2 40 -2q52 0 111 19h38l-63 -296q-3 -21 11 -27.5t50 -6.5l-9 -48h-246l9 48q37 0 54.5 7.5t21.5 26.5l47 219q-45 2 -73 15zM677 285l-2 4q-16 -5 -35 -5q-14 0 -30 4q-12 3 -23 3q-38 0 -59 -56
h-51l47 142h51l2 -8q21 8 48 8q21 0 50 -9q26 -10 40 -10q22 0 73 28l18 -55q-84 -71 -125.5 -130t-70.5 -164q-5 -17 -9.5 -25.5t-18.5 -15.5t-39 -7q-64 0 -46 52q40 117 180 244z" />
    <glyph glyph-name="oneninth" unicode="&#x2151;" 
d="M120 -9l307 370l285 353l45 -36l-295 -349l-297 -375zM155 625l9 45q20 -2 40 -2q52 0 111 19h38l-63 -296q-3 -21 11 -27.5t50 -6.5l-9 -48h-246l9 48q37 0 54.5 7.5t21.5 26.5l47 219q-45 2 -73 15zM565 -15q-53 0 -82 20.5t-29 47.5q0 26 18.5 41.5t43.5 15.5
q38 0 48 -29l-18 -38q5 -10 20 -10q27 0 52 31t38 76q-32 -17 -73 -17q-52 0 -79.5 24.5t-27.5 65.5q0 73 57 118.5t124 45.5q55 0 92 -32.5t37 -101.5q0 -101 -69.5 -179.5t-151.5 -78.5zM651 325q-22 0 -40.5 -34.5t-18.5 -78.5q0 -40 25 -40q30 0 56 46l-1 -1q8 40 8 62
q0 46 -29 46z" />
    <glyph glyph-name="onethird" unicode="&#x2153;" 
d="M120 -9l307 370l285 353l45 -36l-295 -349l-297 -375zM155 625l9 45q20 -2 40 -2q52 0 111 19h38l-63 -296q-3 -21 11 -27.5t50 -6.5l-9 -48h-246l9 48q37 0 54.5 7.5t21.5 26.5l47 219q-45 2 -73 15zM663 197l1 -5q34 -7 56 -26t22 -49q0 -61 -58 -96.5t-134 -35.5
q-52 0 -85 18.5t-33 53.5q0 26 20 44.5t47 18.5q21 0 35 -12t12 -27l-31 -41q9 -7 34 -7q32 0 57 19.5t25 59.5q0 41 -43 41q-20 0 -56 -12l-7 43q129 45 129 113q0 35 -26 35q-13 0 -32 -12q16 -35 17 -38q-4 -18 -21.5 -29.5t-40.5 -11.5q-25 0 -39.5 10.5t-14.5 28.5
q0 45 48.5 71t102.5 26q56 0 89 -21.5t33 -58.5q0 -60 -113 -102z" />
    <glyph glyph-name="twothirds" unicode="&#x2154;" 
d="M120 -9l307 370l285 353l45 -36l-295 -349l-297 -375zM165 393l2 -7h81q24 0 40 45h58l-48 -122h-266l-4 46l26 18q212 140 212 226q0 44 -33 44q-26 0 -45 -25l24 -52q-4 -22 -23 -35t-45 -13q-57 0 -57 45q0 56 53.5 94t108.5 38q60 0 94 -24t34 -67q0 -24 -14.5 -49
t-32.5 -44t-53 -44t-55.5 -38t-61.5 -38zM663 197l1 -5q34 -7 56 -26t22 -49q0 -61 -58 -96.5t-134 -35.5q-52 0 -85 18.5t-33 53.5q0 26 20 44.5t47 18.5q21 0 35 -12t12 -27l-31 -41q9 -7 34 -7q32 0 57 19.5t25 59.5q0 41 -43 41q-20 0 -56 -12l-7 43q129 45 129 113
q0 35 -26 35q-13 0 -32 -12q16 -35 17 -38q-4 -18 -21.5 -29.5t-40.5 -11.5q-25 0 -39.5 10.5t-14.5 28.5q0 45 48.5 71t102.5 26q56 0 89 -21.5t33 -58.5q0 -60 -113 -102z" />
    <glyph glyph-name="onefifth" unicode="&#x2155;" 
d="M120 -9l307 370l285 353l45 -36l-295 -349l-297 -375zM155 625l9 45q20 -2 40 -2q52 0 111 19h38l-63 -296q-3 -21 11 -27.5t50 -6.5l-9 -48h-246l9 48q37 0 54.5 7.5t21.5 26.5l47 219q-45 2 -73 15zM583 287l-19 -58q34 14 72 14q46 0 79 -26t33 -73q0 -51 -32 -88.5
t-74.5 -54t-86.5 -16.5q-49 0 -85 19.5t-36 52.5q0 27 19 45t47 18q47 0 49 -39l-28 -38q13 -11 32 -11q32 0 57 26t25 74q0 59 -33 59q-24 0 -68 -33h-55l64 223q68 -20 124 -20q49 0 112 20l-9 -45q-58 -52 -147 -52q-21 0 -40 3z" />
    <glyph glyph-name="twofifths" unicode="&#x2156;" 
d="M120 -9l307 370l285 353l45 -36l-295 -349l-297 -375zM165 393l2 -7h81q24 0 40 45h58l-48 -122h-266l-4 46l26 18q212 140 212 226q0 44 -33 44q-26 0 -45 -25l24 -52q-4 -22 -23 -35t-45 -13q-57 0 -57 45q0 56 53.5 94t108.5 38q60 0 94 -24t34 -67q0 -24 -14.5 -49
t-32.5 -44t-53 -44t-55.5 -38t-61.5 -38zM583 287l-19 -58q34 14 72 14q46 0 79 -26t33 -73q0 -51 -32 -88.5t-74.5 -54t-86.5 -16.5q-49 0 -85 19.5t-36 52.5q0 27 19 45t47 18q47 0 49 -39l-28 -38q13 -11 32 -11q32 0 57 26t25 74q0 59 -33 59q-24 0 -68 -33h-55l64 223
q68 -20 124 -20q49 0 112 20l-9 -45q-58 -52 -147 -52q-21 0 -40 3z" />
    <glyph glyph-name="threefifths" unicode="&#x2157;" 
d="M120 -9l307 370l285 353l45 -36l-295 -349l-297 -375zM291 515l1 -5q34 -7 56 -26t22 -49q0 -61 -58 -96.5t-134 -35.5q-52 0 -85 18.5t-33 53.5q0 26 20 44.5t47 18.5q21 0 35 -12t12 -27l-31 -41q9 -7 34 -7q32 0 57 19.5t25 59.5q0 41 -43 41q-20 0 -56 -12l-7 43
q129 45 129 113q0 35 -26 35q-13 0 -32 -12q16 -35 17 -38q-4 -18 -21.5 -29.5t-40.5 -11.5q-25 0 -39.5 10.5t-14.5 28.5q0 45 48.5 71t102.5 26q56 0 89 -21.5t33 -58.5q0 -60 -113 -102zM583 287l-19 -58q34 14 72 14q46 0 79 -26t33 -73q0 -51 -32 -88.5t-74.5 -54
t-86.5 -16.5q-49 0 -85 19.5t-36 52.5q0 27 19 45t47 18q47 0 49 -39l-28 -38q13 -11 32 -11q32 0 57 26t25 74q0 59 -33 59q-24 0 -68 -33h-55l64 223q68 -20 124 -20q49 0 112 20l-9 -45q-58 -52 -147 -52q-21 0 -40 3z" />
    <glyph glyph-name="fourfifths" unicode="&#x2158;" 
d="M120 -9l307 370l285 353l45 -36l-295 -349l-297 -375zM47 417l-1 22l252 257l57 -8l-47 -224h51l-8 -47h-52l-5 -20q-6 -27 3 -33.5t40 -6.5l-10 -48h-200l9 48q25 0 37 8t18 29q1 4 3 11.5t2 11.5h-149zM133 464h72l18 86l-83 -85zM583 287l-19 -58q34 14 72 14
q46 0 79 -26t33 -73q0 -51 -32 -88.5t-74.5 -54t-86.5 -16.5q-49 0 -85 19.5t-36 52.5q0 27 19 45t47 18q47 0 49 -39l-28 -38q13 -11 32 -11q32 0 57 26t25 74q0 59 -33 59q-24 0 -68 -33h-55l64 223q68 -20 124 -20q49 0 112 20l-9 -45q-58 -52 -147 -52q-21 0 -40 3z" />
    <glyph glyph-name="onesixth" unicode="&#x2159;" 
d="M120 -9l307 370l285 353l45 -36l-295 -349l-297 -375zM155 625l9 45q20 -2 40 -2q52 0 111 19h38l-63 -296q-3 -21 11 -27.5t50 -6.5l-9 -48h-246l9 48q37 0 54.5 7.5t21.5 26.5l47 219q-45 2 -73 15zM664 377q52 0 79.5 -21t27.5 -50q0 -22 -18 -37.5t-41 -15.5
q-22 0 -39 8.5t-18 23.5l25 35q-9 11 -26 11q-23 0 -46.5 -29t-36.5 -77q31 17 69 17q52 0 79 -26t27 -70q0 -74 -55 -117.5t-120 -43.5q-58 0 -95 30t-37 100q0 104 69 183t156 79zM577 37q26 0 40 30.5t14 77.5q0 46 -23 46q-25 0 -55 -41l2 1q-8 -42 -8 -63q0 -51 30 -51
z" />
    <glyph glyph-name="fivesixths" unicode="&#x215a;" 
d="M120 -9l307 370l285 353l45 -36l-295 -349l-297 -375zM220 605l-19 -58q34 14 72 14q46 0 79 -26t33 -73q0 -51 -32 -88.5t-74.5 -54t-86.5 -16.5q-49 0 -85 19.5t-36 52.5q0 27 19 45t47 18q47 0 49 -39l-28 -38q13 -11 32 -11q32 0 57 26t25 74q0 59 -33 59
q-24 0 -68 -33h-55l64 223q68 -20 124 -20q49 0 112 20l-9 -45q-58 -52 -147 -52q-20 0 -40 3zM664 377q52 0 79.5 -21t27.5 -50q0 -22 -18 -37.5t-41 -15.5q-22 0 -39 8.5t-18 23.5l25 35q-9 11 -26 11q-23 0 -46.5 -29t-36.5 -77q31 17 69 17q52 0 79 -26t27 -70
q0 -74 -55 -117.5t-120 -43.5q-58 0 -95 30t-37 100q0 104 69 183t156 79zM577 37q26 0 40 30.5t14 77.5q0 46 -23 46q-25 0 -55 -41l2 1q-8 -42 -8 -63q0 -51 30 -51z" />
    <glyph glyph-name="oneeighth" unicode="&#x215b;" 
d="M120 -9l307 370l285 353l45 -36l-295 -349l-297 -375zM155 625l9 45q20 -2 40 -2q52 0 111 19h38l-63 -296q-3 -21 11 -27.5t50 -6.5l-9 -48h-246l9 48q37 0 54.5 7.5t21.5 26.5l47 219q-45 2 -73 15zM695 197v-4l-6 2q64 -26 64 -79q0 -56 -54 -93.5t-122 -37.5
q-61 0 -98.5 23t-37.5 63q0 31 27.5 59.5t66.5 46.5l-6 -2q0 1 0.5 3l0.5 2l4 -2q-41 33 -41 81q0 45 43.5 81.5t120.5 36.5q56 0 87.5 -22t31.5 -58q0 -57 -86 -102zM590 34q23 0 39.5 15.5t16.5 38.5q0 41 -63 61q-15 -8 -28 -28t-13 -44q0 -43 48 -43zM597 280
q0 -37 43 -57q35 23 35 61q0 20 -9 32t-25 12q-19 0 -31.5 -15t-12.5 -33z" />
    <glyph glyph-name="threeeighths" unicode="&#x215c;" 
d="M120 -9l307 370l285 353l45 -36l-295 -349l-297 -375zM291 515l1 -5q34 -7 56 -26t22 -49q0 -61 -58 -96.5t-134 -35.5q-52 0 -85 18.5t-33 53.5q0 26 20 44.5t47 18.5q21 0 35 -12t12 -27l-31 -41q9 -7 34 -7q32 0 57 19.5t25 59.5q0 41 -43 41q-20 0 -56 -12l-7 43
q129 45 129 113q0 35 -26 35q-13 0 -32 -12q16 -35 17 -38q-4 -18 -21.5 -29.5t-40.5 -11.5q-25 0 -39.5 10.5t-14.5 28.5q0 45 48.5 71t102.5 26q56 0 89 -21.5t33 -58.5q0 -60 -113 -102zM695 197v-4l-6 2q64 -26 64 -79q0 -56 -54 -93.5t-122 -37.5q-61 0 -98.5 23
t-37.5 63q0 31 27.5 59.5t66.5 46.5l-6 -2q0 1 0.5 3l0.5 2l4 -2q-41 33 -41 81q0 45 43.5 81.5t120.5 36.5q56 0 87.5 -22t31.5 -58q0 -57 -86 -102zM590 34q23 0 39.5 15.5t16.5 38.5q0 41 -63 61q-15 -8 -28 -28t-13 -44q0 -43 48 -43zM597 280q0 -37 43 -57q35 23 35 61
q0 20 -9 32t-25 12q-19 0 -31.5 -15t-12.5 -33z" />
    <glyph glyph-name="fiveeighths" unicode="&#x215d;" 
d="M120 -9l307 370l285 353l45 -36l-295 -349l-297 -375zM220 605l-19 -58q34 14 72 14q46 0 79 -26t33 -73q0 -51 -32 -88.5t-74.5 -54t-86.5 -16.5q-49 0 -85 19.5t-36 52.5q0 27 19 45t47 18q47 0 49 -39l-28 -38q13 -11 32 -11q32 0 57 26t25 74q0 59 -33 59
q-24 0 -68 -33h-55l64 223q68 -20 124 -20q49 0 112 20l-9 -45q-58 -52 -147 -52q-20 0 -40 3zM695 197v-4l-6 2q64 -26 64 -79q0 -56 -54 -93.5t-122 -37.5q-61 0 -98.5 23t-37.5 63q0 31 27.5 59.5t66.5 46.5l-6 -2q0 1 0.5 3l0.5 2l4 -2q-41 33 -41 81q0 45 43.5 81.5
t120.5 36.5q56 0 87.5 -22t31.5 -58q0 -57 -86 -102zM590 34q23 0 39.5 15.5t16.5 38.5q0 41 -63 61q-15 -8 -28 -28t-13 -44q0 -43 48 -43zM597 280q0 -37 43 -57q35 23 35 61q0 20 -9 32t-25 12q-19 0 -31.5 -15t-12.5 -33z" />
    <glyph glyph-name="seveneighths" unicode="&#x215e;" 
d="M120 -9l307 370l285 353l45 -36l-295 -349l-297 -375zM332 603l-2 4q-16 -5 -35 -5q-14 0 -30 4q-12 3 -23 3q-38 0 -59 -56h-51l47 142h51l2 -8q21 8 48 8q21 0 50 -9q26 -10 40 -10q22 0 73 28l18 -55q-84 -71 -125.5 -130t-70.5 -164q-5 -17 -9.5 -25.5t-18.5 -15.5
t-39 -7q-64 0 -46 52q40 117 180 244zM695 197v-4l-6 2q64 -26 64 -79q0 -56 -54 -93.5t-122 -37.5q-61 0 -98.5 23t-37.5 63q0 31 27.5 59.5t66.5 46.5l-6 -2q0 1 0.5 3l0.5 2l4 -2q-41 33 -41 81q0 45 43.5 81.5t120.5 36.5q56 0 87.5 -22t31.5 -58q0 -57 -86 -102z
M590 34q23 0 39.5 15.5t16.5 38.5q0 41 -63 61q-15 -8 -28 -28t-13 -44q0 -43 48 -43zM597 280q0 -37 43 -57q35 23 35 61q0 20 -9 32t-25 12q-19 0 -31.5 -15t-12.5 -33z" />
    <glyph glyph-name="uni2191" unicode="&#x2191;" horiz-adv-x="704" 
d="M359 605l264 -237l-46 -61l-183 163v-420h-84v420l-183 -163l-47 61l266 237h13z" />
    <glyph glyph-name="uni2193" unicode="&#x2193;" horiz-adv-x="704" 
d="M623 287l-264 -237h-13l-266 237l47 61l183 -163v420h84v-420l183 163z" />
    <glyph glyph-name="partialdiff" unicode="&#x2202;" horiz-adv-x="544" 
d="M285 584q-77 0 -99 -120h-50l12 113q20 25 62 43t86 18q98 0 150 -78t52 -201q0 -179 -74 -275t-197 -96q-76 0 -128.5 48t-52.5 134q0 105 69.5 167t152.5 62q36 0 69 -15.5t49 -43.5l5 3v39q0 103 -25.5 152.5t-80.5 49.5zM373 270q-8 28 -32.5 47.5t-52.5 19.5
q-51 0 -85.5 -45.5t-34.5 -122.5q0 -56 19 -87.5t55 -31.5q53 0 92 60t39 160z" />
    <glyph glyph-name="product" unicode="&#x220f;" horiz-adv-x="544" 
d="M9 626h526v-40l-63 -15v-516l53 -15v-40h-232v40l53 15v516h-148v-516l53 -15v-40h-232v40l53 15v516l-63 15v40z" />
    <glyph glyph-name="summation" unicode="&#x2211;" horiz-adv-x="544" 
d="M190 119l5 -10h230l64 81h41l-50 -190h-465l-8 15l262 270v12l-242 317l8 12h441l26 -171h-36l-89 131h-180l-5 -7l191 -245v-16z" />
    <glyph glyph-name="minus" unicode="&#x2212;" horiz-adv-x="620" 
d="M573 221h-526v86h526v-86z" />
    <glyph glyph-name="radical" unicode="&#x221a;" horiz-adv-x="544" 
d="M326 96h13l145 660l60 -10l-195 -883h-57l-194 519l-79 -28l-18 43l194 67z" />
    <glyph glyph-name="infinity" unicode="&#x221e;" horiz-adv-x="544" 
d="M129 149q-60 0 -92 38.5t-32 88.5q0 54 36.5 92.5t87.5 38.5q74 0 141 -92q33 43 66.5 67.5t77.5 24.5q61 0 92.5 -38t31.5 -89q0 -54 -36.5 -92.5t-87.5 -38.5q-75 0 -141 91q-70 -91 -144 -91zM147 347q-29 0 -47.5 -19.5t-18.5 -51.5q0 -31 18.5 -50t44.5 -19
q23 0 43 18.5t47 55.5q-25 33 -44 49.5t-43 16.5zM396 209q29 0 47.5 19.5t18.5 51.5q0 31 -18.5 50t-44.5 19q-23 0 -42.5 -18.5t-47.5 -55.5q24 -33 43.5 -49.5t43.5 -16.5z" />
    <glyph glyph-name="integral" unicode="&#x222b;" horiz-adv-x="544" 
d="M325 497l12 -487q2 -94 -52 -154t-138 -60q-37 0 -61 16.5t-24 50.5q0 21 12.5 37.5t36.5 16.5q50 0 57 -64l26 -7q13 18 20.5 63.5t5.5 90.5l-12 487q-2 95 48.5 154t129.5 59q38 0 67.5 -19.5t29.5 -55.5q0 -21 -13 -37.5t-37 -16.5q-49 0 -56 64l-26 7
q-29 -38 -26 -145z" />
    <glyph glyph-name="approxequal" unicode="&#x2248;" horiz-adv-x="544" 
d="M431 408l63 -12q-17 -62 -52 -104t-89 -42q-35 0 -89.5 36t-79.5 36q-24 0 -43 -10.5t-26.5 -20.5t-20.5 -31l-54 22q18 44 57 81.5t87 37.5q34 0 89 -35t81 -35q28 0 49.5 23t27.5 54zM447 229l57 -13q-14 -51 -54.5 -88.5t-84.5 -37.5q-43 0 -100.5 35.5t-80.5 35.5
q-39 0 -72 -64l-56 20q2 3 10 19t12.5 23.5t14.5 22.5t18.5 23t20 17.5t24.5 13.5t28 4q32 0 90 -35t91 -35q30 0 51.5 17t30.5 42z" />
    <glyph glyph-name="notequal" unicode="&#x2260;" horiz-adv-x="620" 
d="M494 491l-58 -107h137v-87h-183l-46 -86h229v-86h-275l-85 -159l-79 40l64 119h-151v86h197l46 86h-243v87h289l79 146z" />
    <glyph glyph-name="lessequal" unicode="&#x2264;" horiz-adv-x="620" 
d="M567 0h-527v86h527v-86zM567 518l-409 -153q72 -25 210 -77.5t199 -74.5v-85l-527 198v79l527 198v-85z" />
    <glyph glyph-name="greaterequal" unicode="&#x2265;" horiz-adv-x="620" 
d="M580 0h-527v86h527v-86zM462 365l-409 153v85l527 -198v-79l-527 -198v85q61 22 199 74.5t210 77.5z" />
    <glyph glyph-name="lozenge" unicode="&#x25ca;" horiz-adv-x="544" 
d="M271 -98l-245 373l245 375l246 -375zM129 275l142 -216l143 216l-143 218z" />
    <glyph glyph-name="uni2605" unicode="&#x2605;" horiz-adv-x="574" 
d="M129 -8l-4 3l66 186l-166 118l2 5l201 -7l57 193h6l58 -193l199 5l1 -4l-163 -117l66 -188l-3 -1l-161 118z" />
    <glyph glyph-name="commaaccent" unicode="&#xf6c3;" horiz-adv-x="500" 
d="M194 -86q0 18 13.5 30t35.5 12q24 0 43 -21.5t19 -58.5q0 -48 -43.5 -86.5t-112.5 -38.5v31q35 0 55 21.5t20 46.5q0 17 -15 35t-15 29z" />
    <glyph glyph-name="apple" unicode="&#xf8ff;" horiz-adv-x="544" 
d="M211 720h11l32 -121l-3 -82l68 -8l64 99l8 99h12l7 -99l-17 -129l36 -85l35 -38l1 -6l-7 -8v-18l8 -4l-1 -9l-17 -36l-36 7l-11 101l-34 56l-13 -2l26 -60l4 -99l-37 -46l3 -22l26 -37l7 -71l-64 -23l-33 16l-35 57l-75 25l-28 47l-3 42l-30 41l-2 58l4 27l-11 44z
M489 244l6 -9l-3 -37l-12 -17l-5 -33l23 -8l-3 -10l-23 7l-43 -26l-5 10l39 23l5 36l-36 14l-13 31l-1 10l14 15l24 4zM272 305l36 -14l11 13l-3 14l-11 10l-30 -10zM329 64l3 -4l-7 -21l-40 -43l-68 -23l-97 14l-55 48l-18 62l34 95l11 -1l-9 -71l22 -41l37 -33l88 -16
l48 3zM144 438l9 -9l33 34l11 76h-18z" />
    <glyph glyph-name="zero.tnum" horiz-adv-x="594" 
d="M571 448q0 -200 -100 -329t-241 -129q-96 0 -151.5 55.5t-55.5 175.5q0 126 49.5 237.5t130 177t168.5 65.5q96 0 148 -64t52 -189zM244 83q52 0 93 67.5t60 160.5t19 187q0 59 -16 82.5t-49 23.5q-42 0 -82 -62.5t-64 -158.5t-24 -191q0 -61 16 -85t47 -24z" />
    <glyph glyph-name="one.tnum" horiz-adv-x="594" 
d="M144 574l16 78q127 -11 266 33h45l-114 -537q-9 -44 16 -55t95 -11l-17 -82h-415l17 82q70 0 101 14.5t39 51.5l86 405q-88 0 -135 21z" />
    <glyph glyph-name="two.tnum" horiz-adv-x="594" 
d="M195 150l5 -15h166q28 0 52 21.5t38 60.5h70l-85 -217h-453l-7 84q7 5 53 36t88.5 60t99 75.5t97 89t69.5 92.5t29 92q0 84 -78 84q-65 0 -99 -51l41 -91q-8 -40 -37 -63.5t-69 -23.5q-42 0 -64.5 21.5t-22.5 58.5q0 52 27.5 97.5t69.5 75.5t90.5 47t92.5 17
q101 0 158.5 -42.5t57.5 -119.5q0 -43 -24.5 -87.5t-52 -76.5t-88.5 -77.5t-93.5 -66t-106.5 -66.5z" />
    <glyph glyph-name="three.tnum" horiz-adv-x="594" 
d="M379 375l2 -12q60 -7 100.5 -41.5t40.5 -94.5q0 -74 -49.5 -129t-124 -81.5t-159.5 -26.5q-88 0 -142.5 33t-54.5 95q0 47 30.5 79.5t72.5 32.5q32 0 52 -22t17 -50l-53 -70q20 -18 77 -18q64 0 116 37.5t52 110.5q0 40 -26 60.5t-71 20.5q-38 0 -86 -15l-10 66
q236 83 236 208q0 67 -66 67q-41 0 -76 -25l28 -67q-7 -32 -33.5 -53t-60.5 -21q-38 0 -60 18.5t-22 50.5q0 54 43.5 95.5t101.5 59.5t115 18q94 0 150 -38t56 -105q0 -110 -196 -183z" />
    <glyph glyph-name="four.tnum" horiz-adv-x="594" 
d="M3 199l-1 41l452 461l78 -10l-87 -412h95l-17 -80h-95l-9 -40q-11 -52 5 -64.5t73 -12.5l-17 -82h-330l17 82q50 0 70 13t29 57l10 47h-273zM143 284l1 -5h149l40 191l-7 4z" />
    <glyph glyph-name="five.tnum" horiz-adv-x="594" 
d="M193 426l7 -6q72 35 145 35q77 0 131 -46t54 -130q0 -70 -31.5 -127.5t-82 -91.5t-107.5 -52t-113 -18q-83 0 -143.5 34.5t-60.5 94.5q0 47 30 79t72 32q34 0 53 -19.5t21 -51.5l-49 -67q18 -23 73 -23q66 0 117.5 48t51.5 139q0 112 -80 112q-35 0 -61 -12.5t-73 -47.5
h-70l114 393q97 -30 199 -31t197 30l-15 -73q-103 -89 -252 -89q-48 0 -89 10z" />
    <glyph glyph-name="six.tnum" horiz-adv-x="594" 
d="M415 701q87 0 133 -37.5t46 -88.5q0 -39 -27.5 -66.5t-62.5 -27.5q-32 0 -57.5 16t-28.5 43l44 62q-15 22 -64 22q-50 0 -101.5 -59.5t-73.5 -158.5l6 -3q59 50 143 50q85 0 131 -47t46 -125q0 -69 -28.5 -126t-73.5 -92t-97.5 -54t-104.5 -19q-45 0 -83 11.5t-70.5 37
t-51 72.5t-18.5 112q0 125 56 236.5t147 176.5t190 65zM256 78q57 0 87.5 57t30.5 145q0 87 -60 87q-59 0 -116 -77q-15 -69 -15 -115q0 -97 73 -97z" />
    <glyph glyph-name="seven.tnum" horiz-adv-x="594" 
d="M450 539l-7 15q-37 -15 -77 -15q-21 0 -50.5 6t-47.5 6q-87 0 -123 -104h-59l87 254h56l7 -22q56 22 102 22q36 0 83.5 -18t81.5 -18q50 0 120 41l29 -88q-78 -65 -127.5 -114t-95 -111.5t-77.5 -136t-60 -172.5q-7 -23 -12 -35t-15.5 -26t-29 -20t-46.5 -6q-99 0 -70 90
q45 129 127.5 235.5t203.5 216.5z" />
    <glyph glyph-name="eight.tnum" horiz-adv-x="594" 
d="M432 375l-1 -7q106 -44 106 -143q0 -100 -92.5 -167.5t-211.5 -67.5q-104 0 -167 41t-63 113q0 58 47.5 109t114.5 81l2 9q-69 56 -69 146q0 37 17.5 73t51 68t89.5 51.5t124 19.5q94 0 147.5 -39.5t53.5 -103.5q0 -104 -149 -183zM354 414q35 22 56.5 54.5t21.5 66.5
q0 37 -22 60t-59 23q-42 0 -70.5 -28t-28.5 -62q0 -73 102 -114zM258 73q48 0 84.5 29.5t36.5 72.5q0 78 -136 118q-33 -13 -62 -52t-29 -87q0 -39 28.5 -60t77.5 -21z" />
    <glyph glyph-name="nine.tnum" horiz-adv-x="594" 
d="M184 -10q-87 0 -135.5 36t-48.5 85q0 45 28.5 72t66.5 27q53 0 71 -48l-33 -70q11 -22 53 -22q60 0 114.5 66t74.5 154l-7 3q-27 -21 -68.5 -35t-81.5 -14q-86 0 -132 43.5t-46 116.5q0 88 49.5 158t120.5 104.5t144 34.5q93 0 155.5 -59t62.5 -183q0 -92 -34.5 -179.5
t-89 -150t-125 -101t-139.5 -38.5zM342 613q-47 0 -86.5 -65t-39.5 -147q0 -76 64 -76q71 0 119 86q15 69 15 114q0 88 -72 88z" />
    <glyph glyph-name="exclamdown.case" horiz-adv-x="359" 
d="M82 131q85 253 122 381l63 -11q-24 -236 -24 -406q0 -44 -22 -75.5t-67 -31.5q-36 0 -56.5 13.5t-25 36.5t-2 45.5t11.5 47.5zM346 645q0 -34 -23 -58t-57 -24t-58 24t-24 58t24 57t58 23t57 -23t23 -57z" />
    <glyph glyph-name="questiondown.case" horiz-adv-x="473" 
d="M45 126q0 47 38 89.5t83 69t83 58t38 58.5q0 33 -36 33q-42 0 -51 -64l-56 16q36 132 153 132q52 0 92.5 -26.5t40.5 -77.5q0 -36 -25.5 -70t-62 -60.5t-73 -51.5t-62 -54.5t-25.5 -58.5q0 -19 12 -31t34 -12q36 0 61 35t25 109l73 12q8 -108 -39.5 -174.5t-134.5 -66.5
q-79 0 -123.5 39t-44.5 96zM447 646q0 -38 -23.5 -59t-56.5 -21q-32 0 -56.5 21.5t-24.5 58.5q0 33 23.5 56t57.5 23q35 0 57.5 -23t22.5 -56z" />
    <glyph glyph-name="hyphen.case" horiz-adv-x="318" 
d="M62 388h250v-113h-250v113z" />
    <glyph glyph-name="endash.case" horiz-adv-x="488" 
d="M82 388h400v-113h-400v113z" />
    <glyph glyph-name="emdash.case" horiz-adv-x="1000" 
d="M130 371h816v-83h-816v83z" />
    <glyph glyph-name="guilsinglleft.case" horiz-adv-x="445" 
d="M123 315l274 234l43 -30l-186 -221l-5 -15l46 -183l-59 -14l-120 206z" />
    <glyph glyph-name="guilsinglright.case" horiz-adv-x="445" 
d="M382 320l-274 -234l-43 30l186 221l5 15l-46 183l59 14l120 -206z" />
    <glyph glyph-name="guillemotleft.case" horiz-adv-x="652" 
d="M123 315l274 234l43 -30l-186 -221l-5 -15l46 -183l-59 -14l-120 206zM330 315l274 234l43 -30l-186 -221l-5 -15l46 -183l-59 -14l-120 206z" />
    <glyph glyph-name="guillemotright.case" horiz-adv-x="652" 
d="M589 320l-274 -234l-43 30l186 221l5 15l-46 183l59 14l120 -206zM382 320l-274 -234l-43 30l186 221l5 15l-46 183l59 14l120 -206z" />
    <glyph glyph-name="parenleft.case" horiz-adv-x="322" 
d="M243 -150l-35 -33q-70 65 -114 186t-44 233q0 96 24 177t73.5 150.5t105.5 124.5t139 119l30 -36q-255 -243 -255 -584q0 -115 18 -192t58 -145z" />
    <glyph glyph-name="parenright.case" horiz-adv-x="322" 
d="M123 774l35 33q70 -65 114 -186t44 -233q0 -96 -24 -177t-73.5 -150.5t-105.5 -124.5t-139 -119l-30 36q255 243 255 584q0 115 -18 192t-58 145z" />
    <glyph glyph-name="bracketleft.case" horiz-adv-x="335" 
d="M450 798l-14 -64q-32 -5 -76 -5t-64 5l-189 -840q19 4 68 4t78 -4l-16 -68q-43 6 -123.5 6.5t-138.5 -5.5l217 970q57 -5 138 -5t120 6z" />
    <glyph glyph-name="bracketright.case" horiz-adv-x="335" 
d="M-58 -174l14 64q32 5 76 5t64 -5l189 840q-19 -4 -68 -4t-78 4l16 68q43 -6 123.5 -6.5t138.5 5.5l-217 -970q-57 5 -138 5t-120 -6z" />
    <glyph glyph-name="braceleft.case" horiz-adv-x="435" 
d="M162 349l-4 -16q62 -8 100 -52t24 -105q-5 -20 -32 -80.5t-34 -97.5q-12 -53 13.5 -81t108.5 -28l-12 -57q-142 0 -205.5 45t-41.5 121q10 32 40.5 89.5t38.5 86.5q15 63 -19 102t-96 39l10 56q66 0 121 37t62 90q4 30 -3 81t-5 79q9 81 68.5 110.5t219.5 29.5l-12 -57
q-63 0 -106.5 -19.5t-49.5 -64.5q5 -66 5 -164q-8 -63 -65.5 -102.5t-125.5 -41.5z" />
    <glyph glyph-name="braceright.case" horiz-adv-x="435" 
d="M297 281l4 16q-62 8 -100 52t-24 105q5 20 32 80.5t34 97.5q12 53 -13.5 81t-108.5 28l12 57q142 0 205.5 -45t41.5 -121q-10 -32 -40.5 -89.5t-38.5 -86.5q-15 -63 19 -102t96 -39l-10 -56q-66 0 -121 -37t-62 -90q-4 -30 3 -81t5 -79q-9 -81 -68.5 -110.5t-219.5 -29.5
l12 57q145 0 156 84q-5 66 -5 164q8 63 65.5 102.5t125.5 41.5z" />
    <glyph glyph-name="zero.onum" horiz-adv-x="594" 
d="M579 332q0 -152 -95 -247t-226 -95q-96 0 -155 50t-59 147q0 88 42 167.5t118 129.5t167 50q92 0 150 -52.5t58 -149.5zM276 78q63 0 103 83t40 182q0 54 -16 79t-51 25q-41 0 -75.5 -42t-52.5 -102t-18 -119q0 -106 70 -106z" />
    <glyph glyph-name="one.onum" horiz-adv-x="491" 
d="M107 430l12 63q131 7 212 37h80l-86 -407q-6 -29 19 -42t90 -13l-14 -68h-401l14 66q72 4 102.5 15t36.5 42l63 293z" />
    <glyph glyph-name="two.onum" horiz-adv-x="556" 
d="M231 129l2 -6h148q16 0 33.5 17.5t31.5 47.5h72l-71 -188h-418l1 87q79 44 129.5 75.5t105 73t81.5 81t27 77.5q0 33 -16 48t-40 15q-54 0 -85 -42q12 -22 29 -59q-7 -35 -32.5 -57t-56.5 -22q-41 0 -61.5 20t-20.5 56q0 78 80.5 129.5t181.5 51.5q87 0 136.5 -34.5
t49.5 -96.5q0 -22 -9 -44t-21.5 -40t-35.5 -38.5t-41.5 -34.5t-49.5 -33t-50 -29.5t-52.5 -28.5t-47.5 -26z" />
    <glyph glyph-name="three.onum" horiz-adv-x="568" 
d="M360 208l2 -12q60 -7 100.5 -41.5t40.5 -94.5q0 -74 -49.5 -129t-124 -81.5t-159.5 -26.5q-88 0 -142.5 33t-54.5 95q0 47 30.5 79.5t72.5 32.5q32 0 52 -22t17 -50l-53 -70q20 -18 77 -18q64 0 116 37.5t52 110.5q0 40 -26 60.5t-71 20.5q-38 0 -86 -15l-10 66
q236 83 236 208q0 67 -66 67q-41 0 -76 -25l28 -67q-7 -32 -33.5 -53t-60.5 -21q-38 0 -60 18.5t-22 50.5q0 54 43.5 95.5t101.5 59.5t115 18q94 0 150 -38t56 -105q0 -110 -196 -183z" />
    <glyph glyph-name="four.onum" horiz-adv-x="585" 
d="M8 32l-1 41l452 461l78 -10l-87 -412h95l-17 -80h-95l-9 -40q-11 -52 5 -64.5t73 -12.5l-17 -82h-330l17 82q50 0 70 13t29 57l10 47h-273zM148 117l1 -5h149l40 191l-7 4z" />
    <glyph glyph-name="five.onum" horiz-adv-x="574" 
d="M178 259l7 -6q72 35 145 35q77 0 131 -46t54 -130q0 -70 -31.5 -127.5t-82 -91.5t-107.5 -52t-113 -18q-83 0 -143.5 34.5t-60.5 94.5q0 47 30 79t72 32q34 0 53 -19.5t21 -51.5l-49 -67q18 -23 73 -23q66 0 117.5 48t51.5 139q0 112 -80 112q-35 0 -61 -12.5t-73 -47.5
h-70l114 393q97 -30 199 -31t197 30l-15 -73q-103 -89 -252 -89q-48 0 -89 10z" />
    <glyph glyph-name="six.onum" horiz-adv-x="606" 
d="M450 701q87 0 133 -37.5t46 -88.5q0 -39 -27.5 -66.5t-62.5 -27.5q-32 0 -57.5 16t-28.5 43l44 62q-15 22 -64 22q-50 0 -101.5 -59.5t-73.5 -158.5l6 -3q59 50 143 50q85 0 131 -47t46 -125q0 -69 -28.5 -126t-73.5 -92t-97.5 -54t-104.5 -19q-45 0 -83 11.5t-70.5 37
t-51 72.5t-18.5 112q0 125 56 236.5t147 176.5t190 65zM291 78q57 0 87.5 57t30.5 145q0 87 -60 87q-59 0 -116 -77q-15 -69 -15 -115q0 -97 73 -97z" />
    <glyph glyph-name="seven.onum" horiz-adv-x="554" 
d="M419 372l-7 15q-37 -15 -77 -15q-21 0 -50.5 6t-47.5 6q-87 0 -123 -104h-59l87 254h56l7 -22q56 22 102 22q36 0 83.5 -18t81.5 -18q50 0 120 41l29 -88q-78 -65 -127.5 -114t-95 -111.5t-77.5 -136t-60 -172.5q-7 -23 -12 -35t-15.5 -26t-29 -20t-46.5 -6q-98 0 -70 90
q45 129 127.5 235.5t203.5 216.5z" />
    <glyph glyph-name="eight.onum" horiz-adv-x="585" 
d="M453 375l-1 -7q106 -44 106 -143q0 -100 -92.5 -167.5t-211.5 -67.5q-104 0 -167 41t-63 113q0 58 47.5 109t114.5 81l2 9q-69 56 -69 146q0 37 17.5 73t51 68t89.5 51.5t124 19.5q94 0 147.5 -39.5t53.5 -103.5q0 -104 -149 -183zM375 414q35 22 56.5 54.5t21.5 66.5
q0 37 -22 60t-59 23q-42 0 -70.5 -28t-28.5 -62q0 -73 102 -114zM279 73q48 0 84.5 29.5t36.5 72.5q0 78 -136 118q-33 -13 -62 -52t-29 -87q0 -39 28.5 -60t77.5 -21z" />
    <glyph glyph-name="nine.onum" horiz-adv-x="606" 
d="M197 -177q-87 0 -135.5 36.5t-48.5 84.5q0 45 28.5 72t66.5 27q53 0 71 -48l-33 -70q11 -22 53 -22q60 0 114.5 66t74.5 154l-7 3q-27 -21 -68 -35t-82 -14q-86 0 -132 43.5t-46 116.5q0 88 49.5 158t120.5 104.5t144 34.5q93 0 155.5 -59t62.5 -183q0 -92 -34.5 -179.5
t-89 -150t-125 -101t-139.5 -38.5zM355 446q-47 0 -86.5 -65t-39.5 -147q0 -76 64 -76q71 0 119 86q15 69 15 114q0 88 -72 88z" />
    <glyph glyph-name="zero.onum.tnum" horiz-adv-x="594" 
d="M554 332q0 -152 -91.5 -247t-216.5 -95q-92 0 -149 50t-57 147q0 136 91.5 241.5t222.5 105.5q88 0 144 -52.5t56 -149.5zM263 78q41 0 73 42t48 101.5t16 121.5q0 104 -64 104q-59 0 -99.5 -84.5t-40.5 -178.5q0 -106 67 -106z" />
    <glyph glyph-name="one.onum.tnum" horiz-adv-x="594" 
d="M157 430l12 63q131 7 212 37h80l-86 -407q-6 -29 19 -42t90 -13l-14 -68h-401l14 66q72 4 102.5 15t36.5 42l63 293z" />
    <glyph glyph-name="two.onum.tnum" horiz-adv-x="594" 
d="M241 129l2 -6h148q16 0 33.5 17.5t31.5 47.5h72l-71 -188h-418l1 87q79 44 129.5 75.5t105 73t81.5 81t27 77.5q0 33 -16 48t-40 15q-54 0 -85 -42q12 -22 29 -59q-7 -35 -32.5 -57t-56.5 -22q-41 0 -61.5 20t-20.5 56q0 78 80.5 129.5t181.5 51.5q87 0 136.5 -34.5
t49.5 -96.5q0 -22 -9 -44t-21.5 -40t-35.5 -38.5t-41.5 -34.5t-49.5 -33t-50 -29.5t-52.5 -28.5t-47.5 -26z" />
    <glyph glyph-name="three.onum.tnum" horiz-adv-x="594" 
d="M358 209l2 -12q60 -7 100.5 -41.5t40.5 -94.5q0 -74 -49.5 -129t-124 -81.5t-159.5 -26.5q-88 0 -142.5 33t-54.5 95q0 47 30.5 79.5t72.5 32.5q32 0 52 -22t17 -50l-53 -70q20 -18 77 -18q64 0 116 37.5t52 110.5q0 40 -26 60.5t-71 20.5q-38 0 -86 -15l-10 66
q236 83 236 208q0 67 -66 67q-41 0 -76 -25l28 -67q-7 -32 -33.5 -53t-60.5 -21q-38 0 -60 18.5t-22 50.5q0 54 43.5 95.5t101.5 59.5t115 18q94 0 150 -38t56 -105q0 -110 -196 -183z" />
    <glyph glyph-name="four.onum.tnum" horiz-adv-x="594" 
d="M-17 33l-1 41l452 461l78 -10l-87 -412h95l-17 -80h-95l-9 -40q-11 -52 5 -64.5t73 -12.5l-17 -82h-330l17 82q50 0 70 13t29 57l10 47h-273zM123 118l1 -5h149l40 191l-7 4z" />
    <glyph glyph-name="five.onum.tnum" horiz-adv-x="594" 
d="M174 260l7 -6q72 35 145 35q77 0 131 -46t54 -130q0 -70 -31.5 -127.5t-82 -91.5t-107.5 -52t-113 -18q-83 0 -143.5 34.5t-60.5 94.5q0 47 30 79t72 32q34 0 53 -19.5t21 -51.5l-49 -67q18 -23 73 -23q66 0 117.5 48t51.5 139q0 112 -80 112q-35 0 -61 -12.5t-73 -47.5
h-70l114 393q97 -30 199 -31t197 30l-15 -73q-103 -89 -252 -89q-48 0 -89 10z" />
    <glyph glyph-name="six.onum.tnum" horiz-adv-x="594" 
d="M427 701q87 0 133 -37.5t46 -88.5q0 -39 -27.5 -66.5t-62.5 -27.5q-32 0 -57.5 16t-28.5 43l44 62q-15 22 -64 22q-50 0 -101.5 -59.5t-73.5 -158.5l6 -3q59 50 143 50q85 0 131 -47t46 -125q0 -69 -28.5 -126t-73.5 -92t-97.5 -54t-104.5 -19q-45 0 -83 11.5t-70.5 37
t-51 72.5t-18.5 112q0 125 56 236.5t147 176.5t190 65zM268 78q57 0 87.5 57t30.5 145q0 87 -60 87q-59 0 -116 -77q-15 -69 -15 -115q0 -97 73 -97z" />
    <glyph glyph-name="seven.onum.tnum" horiz-adv-x="594" 
d="M420 373l-7 15q-37 -15 -77 -15q-21 0 -50.5 6t-47.5 6q-87 0 -123 -104h-59l87 254h56l7 -22q56 22 102 22q36 0 83.5 -18t81.5 -18q50 0 120 41l29 -88q-78 -65 -127.5 -114t-95 -111.5t-77.5 -136t-60 -172.5q-7 -23 -12 -35t-15.5 -26t-29 -20t-46.5 -6q-98 0 -70 90
q45 129 127.5 235.5t203.5 216.5z" />
    <glyph glyph-name="eight.onum.tnum" horiz-adv-x="594" 
d="M440 375l-1 -7q106 -44 106 -143q0 -100 -92.5 -167.5t-211.5 -67.5q-104 0 -167 41t-63 113q0 58 47.5 109t114.5 81l2 9q-69 56 -69 146q0 37 17.5 73t51 68t89.5 51.5t124 19.5q94 0 147.5 -39.5t53.5 -103.5q0 -104 -149 -183zM362 414q35 22 56.5 54.5t21.5 66.5
q0 37 -22 60t-59 23q-42 0 -70.5 -28t-28.5 -62q0 -73 102 -114zM266 73q48 0 84.5 29.5t36.5 72.5q0 78 -136 118q-33 -13 -62 -52t-29 -87q0 -39 28.5 -60t77.5 -21z" />
    <glyph glyph-name="nine.onum.tnum" horiz-adv-x="594" 
d="M183 -176q-87 0 -135.5 36t-48.5 85q0 45 28.5 72t66.5 27q53 0 71 -48l-33 -70q11 -22 53 -22q60 0 114.5 66t74.5 154l-7 3q-27 -21 -68 -35t-82 -14q-86 0 -132 43.5t-46 116.5q0 88 49.5 158t120.5 104.5t144 34.5q93 0 155.5 -59t62.5 -183q0 -92 -34.5 -179.5
t-89 -150t-125 -101t-139.5 -38.5zM341 447q-47 0 -86.5 -65t-39.5 -147q0 -76 64 -76q71 0 119 86q15 69 15 114q0 88 -72 88z" />
    <glyph glyph-name="dollar.onum" horiz-adv-x="513" 
d="M127 74l-22 -38l-67 6l44 208l60 -5q-2 -52 18.5 -92t57.5 -57l27 134q-61 29 -97 63.5t-36 84.5q0 18 4 33v-1q14 57 67.5 89t120.5 30l19 92l54 -8l-19 -93q41 -13 70 -46l23 38l65 -5l-45 -191l-57 3q-9 104 -70 129l-24 -118l17 -7q60 -25 93 -56.5t33 -82.5
q0 -18 -5 -41q-15 -61 -72 -98t-130 -31l-19 -96l-53 9l19 98q-50 16 -76 49zM347 130q8 40 -52 76l-24 -120q28 -1 49 11t27 33zM238 421q-10 -36 32 -65l20 102q-21 -1 -35.5 -12t-16.5 -25z" />
    <glyph glyph-name="cent.onum" horiz-adv-x="372" 
d="M305 211l50 -8q-15 -47 -50.5 -72t-82.5 -25h-18l-16 -74l-40 7l16 76q-50 16 -80.5 53.5t-30.5 92.5q0 18 5 45q14 68 64.5 109.5t114.5 41.5l16 73l41 -7l-16 -70q49 -11 78.5 -46.5t22.5 -77.5q-5 -24 -26 -36.5t-44 -8.5q-33 6 -35 42l21 43q-8 18 -29 25l-47 -217
q4 -2 8 -2q26 -4 48 6.5t30 29.5zM167 251q0 -32 15 -52l40 189q-34 -22 -50 -94q-5 -25 -5 -43z" />
    <glyph glyph-name="sterling.onum" horiz-adv-x="509" 
d="M100 312h48q-5 27 -5 50q0 16 3 31q16 70 79 109.5t135 39.5q79 0 115.5 -32t27.5 -71q-5 -22 -22.5 -35.5t-36.5 -13.5t-32.5 9.5t-17 18t-10.5 26.5q-5 14 -8.5 21.5t-12 14.5t-19.5 7q-19 0 -36.5 -19.5t-26.5 -58.5q-4 -17 -4 -36q0 -17 6 -51q0 -4 2 -10h117
l-11 -53h-101q-2 -16 -4 -25q-10 -36 -30.5 -68.5t-44.5 -48.5l4 -7q15 11 32 11q36 0 66 -42q18 -29 39 -29q15 0 20 13q0 14 -8 27q-12 19 -8 34q4 17 20.5 30.5t39.5 13.5q31 0 45 -20t7 -55q-12 -48 -57 -75.5t-94 -27.5q-101 0 -165 58q-54 -58 -106 -58
q-21 0 -32 10.5t-8 27.5q12 48 117 73q21 30 34 88q4 15 4 35q0 17 -3 35h-71z" />
    <glyph glyph-name="yen.onum" horiz-adv-x="525" 
d="M615 508l-9 -45q-51 0 -101 -55q-11 -13 -66.5 -78t-84.5 -98h102l-10 -47h-106l-9 -40h105l-10 -49h-106q-2 -9 -2 -22q0 -19 14.5 -23.5t57.5 -4.5l-10 -46h-284l10 46q54 0 69 7.5t22 42.5h-104l10 49h105l9 40h-103l10 47h98l-79 168q-17 39 -31 51t-47 12l7 45h268
l-9 -45q-44 0 -58 -10t0 -35l56 -121q16 19 48 59.5t48 60.5q14 16 14 26q0 19 -43 20l9 45h210z" />
    <glyph glyph-name="Euro.onum" horiz-adv-x="555" 
d="M97 323h45q42 98 120.5 157.5t164.5 59.5q93 0 161 -54l-54 -116h-43q7 65 -16 91.5t-59 26.5q-43 0 -83.5 -41.5t-68.5 -123.5h243l-21 -44h-235l-6 -25q-2 -6 -2 -8h226l-20 -45h-214q-1 -12 -1 -33q0 -61 24.5 -92.5t61.5 -31.5q86 0 135 89l45 -11
q-73 -132 -207 -132q-82 0 -133 48.5t-51 135.5q0 17 1 27h-50l19 45h38l2 7q3 15 7 26h-49z" />
    <glyph glyph-name="numbersign.onum" horiz-adv-x="439" 
d="M95 414l81 -10l37 162l64 -12l-35 -158l57 -7l40 177l64 -12l-38 -174l84 -10l-11 -66l-88 11l-23 -106l74 -9l-12 -65l-76 9l-39 -177l-65 11l38 175l-57 7l-43 -193l-65 11l42 190l-89 12l11 64l92 -12l24 106l-79 10zM227 330l-23 -106l57 -7l24 106z" />
    <glyph glyph-name="percent.onum" horiz-adv-x="464" 
d="M308 414q-18 0 -32 8q-6 -60 -42.5 -97t-83.5 -37q-43 0 -70 28.5t-27 74.5q0 59 41 102.5t89 43.5q29 0 53 -16t33 -42q13 -20 45 -20q27 0 59 18q15 55 54 55q11 0 20 -6.5t9 -19.5q0 -14 -11.5 -29.5t-26.5 -23.5l-153 -211l-181 -260l-43 31l185 253q20 29 55.5 84
t42.5 65q-5 -1 -16 -1zM233 94q0 60 41 103t89 43q42 0 68.5 -26t26.5 -70q0 -68 -39 -110t-86 -42q-44 0 -72 29t-28 73zM377 188q-23 0 -42.5 -36.5t-19.5 -78.5q0 -32 22 -32q23 0 43 27.5t20 82.5q0 18 -7 27.5t-16 9.5zM197 483q-23 0 -43.5 -35.5t-20.5 -76.5
q0 -34 25 -34q23 0 41.5 28.5t18.5 80.5q0 37 -21 37z" />
    <glyph glyph-name="perthousand.onum" horiz-adv-x="698" 
d="M312 414q-19 0 -33 8q-5 -60 -41.5 -97t-83.5 -37q-44 0 -71 28.5t-27 74.5q0 59 41 102.5t89 43.5q29 0 53 -16t34 -42q13 -20 45 -20q27 0 58 18q18 55 54 55q11 0 20.5 -6.5t9.5 -19.5q0 -14 -12 -29.5t-27 -23.5l-153 -211l-180 -260l-43 31l184 253q20 29 55.5 84
t42.5 65q-6 -1 -15 -1zM237 94q0 60 41 103t89 43q42 0 68 -26t26 -70q0 -68 -39 -110t-86 -42q-44 0 -71.5 29t-27.5 73zM381 188q-23 0 -43 -36.5t-20 -78.5q0 -32 22 -32q24 0 43.5 27.5t19.5 82.5q0 17 -7 27t-15 10zM200 483q-23 0 -43 -35t-20 -77q0 -34 25 -34
q22 0 41 28.5t19 80.5q0 37 -22 37zM464 94q0 60 40.5 103t88.5 43q42 0 68.5 -26t26.5 -70q0 -68 -39 -110t-86 -42q-44 0 -71.5 29t-27.5 73zM607 188q-23 0 -43 -36.5t-20 -78.5q0 -32 23 -32t42.5 27.5t19.5 82.5q0 37 -22 37z" />
    <glyph glyph-name="ordfeminine.onum" horiz-adv-x="385" 
d="M341 182q-69 0 -66 73q-16 -35 -46 -56t-62 -21q-47 0 -73 28t-26 77q0 101 52 180.5t119 79.5q40 0 66 -37q15 25 17 29h85l-51 -226q-7 -30 -7 -41q0 -22 12 -22q22 0 30 80l43 -5q-8 -71 -30 -105t-63 -34zM194 246q22 0 46.5 52t42.5 151q-15 27 -37 27
q-26 0 -48.5 -53.5t-22.5 -123.5q0 -53 19 -53z" />
    <glyph glyph-name="ordmasculine.onum" horiz-adv-x="338" 
d="M378 404q0 -93 -53 -159.5t-131 -66.5q-61 0 -95.5 32.5t-34.5 93.5q0 104 57.5 171.5t127.5 67.5q64 0 96.5 -37.5t32.5 -101.5zM203 242q33 0 51.5 61t18.5 125q0 51 -29 51q-32 0 -53.5 -57.5t-21.5 -127.5q0 -52 34 -52z" />
    <glyph glyph-name="degree.onum" horiz-adv-x="367" 
d="M86 455q0 63 44.5 108t106.5 45q63 0 108 -45t45 -108q0 -62 -45 -106.5t-108 -44.5q-61 0 -106 45t-45 106zM172 455q0 -31 17.5 -52t46.5 -21q30 0 48 21t18 52q0 32 -18 54t-48 22q-29 0 -46.5 -22t-17.5 -54z" />
    <glyph glyph-name="zero.numr" horiz-adv-x="331" 
d="M348 562q0 -110 -59.5 -181t-143.5 -71q-128 0 -128 129q0 104 63.5 183.5t143.5 79.5q124 0 124 -140zM153 365q39 0 63 71.5t24 152.5q0 32 -6.5 44t-20.5 12q-32 0 -59 -71.5t-27 -150.5q0 -58 26 -58z" />
    <glyph glyph-name="one.numr" horiz-adv-x="270" 
d="M56 632l9 45q20 -2 40 -2q52 0 111 19h38l-63 -296q-3 -21 11 -27.5t50 -6.5l-9 -48h-246l9 48q37 0 54.5 7.5t21.5 26.5l47 219q-45 2 -73 15z" />
    <glyph glyph-name="two.numr" horiz-adv-x="320" 
d="M129 400l2 -7h81q24 0 40 45h58l-48 -122h-266l-4 46l26 18q212 140 212 226q0 44 -33 44q-26 0 -45 -25l24 -52q-4 -22 -23 -35t-45 -13q-57 0 -57 45q0 56 53.5 94t108.5 38q60 0 94 -24t34 -67q0 -24 -14.5 -49t-32.5 -44t-53 -44t-55.5 -38t-61.5 -38z" />
    <glyph glyph-name="three.numr" horiz-adv-x="312" 
d="M227 522l1 -5q34 -7 56 -26t22 -49q0 -61 -58 -96.5t-134 -35.5q-52 0 -85 18.5t-33 53.5q0 26 20 44.5t47 18.5q21 0 35 -12t12 -27l-31 -41q9 -7 34 -7q32 0 57 19.5t25 59.5q0 41 -43 41q-20 0 -56 -12l-7 43q129 45 129 113q0 35 -26 35q-13 0 -32 -12q16 -35 17 -38
q-4 -18 -21.5 -29.5t-40.5 -11.5q-25 0 -39.5 10.5t-14.5 28.5q0 45 48.5 71t102.5 26q56 0 89 -21.5t33 -58.5q0 -60 -113 -102z" />
    <glyph glyph-name="four.numr" horiz-adv-x="322" 
d="M13 424l-1 22l252 257l57 -8l-47 -224h51l-8 -47h-52l-5 -20q-6 -27 3 -33.5t40 -6.5l-10 -48h-200l9 48q25 0 37 8t18 29q1 4 3 11.5t2 11.5h-149zM99 471h72l18 86l-83 -85z" />
    <glyph glyph-name="five.numr" horiz-adv-x="316" 
d="M147 612l-19 -58q34 14 72 14q46 0 79 -26t33 -73q0 -51 -32 -88.5t-74.5 -54t-86.5 -16.5q-49 0 -85 19.5t-36 52.5q0 27 19 45t47 18q47 0 49 -39l-28 -38q13 -11 32 -11q32 0 57 26t25 74q0 59 -33 59q-24 0 -68 -33h-55l64 223q68 -20 124 -20q49 0 112 20l-9 -45
q-58 -52 -147 -52q-21 0 -40 3z" />
    <glyph glyph-name="six.numr" horiz-adv-x="333" 
d="M248 702q52 0 79.5 -21t27.5 -50q0 -22 -18 -37.5t-41 -15.5q-22 0 -39 8.5t-18 23.5l25 35q-9 11 -26 11q-23 0 -46.5 -29t-36.5 -77q31 17 69 17q52 0 79 -26t27 -70q0 -74 -55 -117.5t-120 -43.5q-58 0 -95 30t-37 100q0 104 69 183t156 79zM161 362q26 0 40 30.5
t14 77.5q0 46 -23 46q-25 0 -55 -41l2 1q-8 -42 -8 -63q0 -51 30 -51z" />
    <glyph glyph-name="seven.numr" horiz-adv-x="305" 
d="M241 610l-2 4q-16 -5 -35 -5q-14 0 -30 4q-12 3 -23 3q-38 0 -59 -56h-51l47 142h51l2 -8q21 8 48 8q21 0 50 -9q26 -10 40 -10q22 0 73 28l18 -55q-84 -71 -125.5 -130t-70.5 -164q-5 -17 -9.5 -25.5t-18.5 -15.5t-39 -7q-64 0 -46 52q40 117 180 244z" />
    <glyph glyph-name="eight.numr" horiz-adv-x="322" 
d="M259 522v-4l-6 2q64 -26 64 -79q0 -56 -54 -93.5t-122 -37.5q-61 0 -98.5 23t-37.5 63q0 31 27.5 59.5t66.5 46.5l-6 -2l1 2v3l4 -2q-41 33 -41 81q0 45 43.5 81.5t120.5 36.5q56 0 87.5 -22t31.5 -58q0 -57 -86 -102zM154 359q23 0 39.5 15.5t16.5 38.5q0 41 -63 61
q-15 -8 -28 -28t-13 -44q0 -43 48 -43zM161 605q0 -37 43 -57q35 23 35 61q0 20 -9 32t-25 12q-19 0 -31.5 -15t-12.5 -33z" />
    <glyph glyph-name="nine.numr" horiz-adv-x="333" 
d="M129 310q-53 0 -82 20.5t-29 47.5q0 26 18.5 41.5t43.5 15.5q38 0 48 -29l-18 -38q5 -10 20 -10q27 0 52 31t38 76q-32 -17 -73 -17q-52 0 -79.5 24.5t-27.5 65.5q0 73 57 118.5t124 45.5q55 0 92 -32.5t37 -101.5q0 -101 -69.5 -179.5t-151.5 -78.5zM215 650
q-22 0 -40.5 -34.5t-18.5 -78.5q0 -40 25 -40q30 0 56 46l-1 -1q8 40 8 62q0 46 -29 46z" />
    <glyph glyph-name="zero.dnom" horiz-adv-x="331" 
d="M348 207q0 -110 -59.5 -181t-143.5 -71q-128 0 -128 129q0 104 63.5 183.5t143.5 79.5q124 0 124 -140zM153 10q39 0 63 71.5t24 152.5q0 32 -6.5 44t-20.5 12q-32 0 -59 -71.5t-27 -150.5q0 -58 26 -58z" />
    <glyph glyph-name="one.dnom" horiz-adv-x="270" 
d="M56 277l9 45q20 -2 40 -2q52 0 111 19h38l-63 -296q-3 -21 11 -27.5t50 -6.5l-9 -48h-246l9 48q37 0 54.5 7.5t21.5 26.5l47 219q-45 2 -73 15z" />
    <glyph glyph-name="two.dnom" horiz-adv-x="320" 
d="M129 45l2 -7h81q24 0 40 45h58l-48 -122h-266l-4 46l26 18q212 140 212 226q0 44 -33 44q-26 0 -45 -25l24 -52q-4 -22 -23 -35t-45 -13q-57 0 -57 45q0 56 53.5 94t108.5 38q60 0 94 -24t34 -67q0 -24 -14.5 -49t-32.5 -44t-53 -44t-55.5 -38t-61.5 -38z" />
    <glyph glyph-name="three.dnom" horiz-adv-x="312" 
d="M227 167l1 -5q34 -7 56 -26t22 -49q0 -61 -58 -96.5t-134 -35.5q-52 0 -85 18.5t-33 53.5q0 26 20 44.5t47 18.5q21 0 35 -12t12 -27l-31 -41q9 -7 34 -7q32 0 57 19.5t25 59.5q0 41 -43 41q-20 0 -56 -12l-7 43q129 45 129 113q0 35 -26 35q-13 0 -32 -12q16 -35 17 -38
q-4 -18 -21.5 -29.5t-40.5 -11.5q-25 0 -39.5 10.5t-14.5 28.5q0 45 48.5 71t102.5 26q56 0 89 -21.5t33 -58.5q0 -60 -113 -102z" />
    <glyph glyph-name="four.dnom" horiz-adv-x="322" 
d="M13 69l-1 22l252 257l57 -8l-47 -224h51l-8 -47h-52l-5 -20q-6 -27 3 -33.5t40 -6.5l-10 -48h-200l9 48q25 0 37 8t18 29q1 4 3 11.5t2 11.5h-149zM99 116h72l18 86l-83 -85z" />
    <glyph glyph-name="five.dnom" horiz-adv-x="316" 
d="M147 257l-19 -58q34 14 72 14q46 0 79 -26t33 -73q0 -51 -32 -88.5t-74.5 -54t-86.5 -16.5q-49 0 -85 19.5t-36 52.5q0 27 19 45t47 18q47 0 49 -39l-28 -38q13 -11 32 -11q32 0 57 26t25 74q0 59 -33 59q-24 0 -68 -33h-55l64 223q68 -20 124 -20q49 0 112 20l-9 -45
q-58 -52 -147 -52q-21 0 -40 3z" />
    <glyph glyph-name="six.dnom" horiz-adv-x="333" 
d="M248 347q52 0 79.5 -21t27.5 -50q0 -22 -18 -37.5t-41 -15.5q-22 0 -39 8.5t-18 23.5l25 35q-9 11 -26 11q-23 0 -46.5 -29t-36.5 -77q31 17 69 17q52 0 79 -26t27 -70q0 -74 -55 -117.5t-120 -43.5q-58 0 -95 30t-37 100q0 104 69 183t156 79zM161 7q26 0 40 30.5
t14 77.5q0 46 -23 46q-25 0 -55 -41l2 1q-8 -42 -8 -63q0 -51 30 -51z" />
    <glyph glyph-name="seven.dnom" horiz-adv-x="305" 
d="M241 255l-2 4q-16 -5 -35 -5q-14 0 -30 4q-12 3 -23 3q-38 0 -59 -56h-51l47 142h51l2 -8q21 8 48 8q21 0 50 -9q26 -10 40 -10q22 0 73 28l18 -55q-84 -71 -125.5 -130t-70.5 -164q-5 -17 -9.5 -25.5t-18.5 -15.5t-39 -7q-64 0 -46 52q40 117 180 244z" />
    <glyph glyph-name="eight.dnom" horiz-adv-x="322" 
d="M259 167v-4l-6 2q64 -26 64 -79q0 -56 -54 -93.5t-122 -37.5q-61 0 -98.5 23t-37.5 63q0 31 27.5 59.5t66.5 46.5l-6 -2q0 1 0.5 3l0.5 2l4 -2q-41 33 -41 81q0 45 43.5 81.5t120.5 36.5q56 0 87.5 -22t31.5 -58q0 -57 -86 -102zM154 4q23 0 39.5 15.5t16.5 38.5
q0 41 -63 61q-15 -8 -28 -28t-13 -44q0 -43 48 -43zM161 250q0 -37 43 -57q35 23 35 61q0 20 -9 32t-25 12q-19 0 -31.5 -15t-12.5 -33z" />
    <glyph glyph-name="nine.dnom" horiz-adv-x="333" 
d="M129 -45q-53 0 -82 20.5t-29 47.5q0 26 18.5 41.5t43.5 15.5q38 0 48 -29l-18 -38q5 -10 20 -10q27 0 52 31t38 76q-32 -17 -73 -17q-52 0 -79.5 24.5t-27.5 65.5q0 73 57 118.5t124 45.5q55 0 92 -32.5t37 -101.5q0 -101 -69.5 -179.5t-151.5 -78.5zM215 295
q-22 0 -40.5 -34.5t-18.5 -78.5q0 -40 25 -40q30 0 56 46l-1 -1q8 40 8 62q0 46 -29 46z" />
    <glyph glyph-name="zero.subs" horiz-adv-x="331" 
d="M288 87q0 -110 -59.5 -181t-143.5 -71q-128 0 -128 129q0 104 63.5 183.5t143.5 79.5q124 0 124 -140zM93 -110q39 0 63 71.5t24 152.5q0 32 -6.5 44t-20.5 12q-32 0 -59 -71.5t-27 -150.5q0 -58 26 -58z" />
    <glyph glyph-name="one.subs" horiz-adv-x="270" 
d="M-4 157l9 45q20 -2 40 -2q52 0 111 19h38l-63 -296q-3 -21 11 -27.5t50 -6.5l-9 -48h-246l9 48q37 0 54.5 7.5t21.5 26.5l47 219q-45 2 -73 15z" />
    <glyph glyph-name="two.subs" horiz-adv-x="320" 
d="M69 -75l2 -7h81q24 0 40 45h58l-48 -122h-266l-4 46l26 18q212 140 212 226q0 44 -33 44q-26 0 -45 -25l24 -52q-4 -22 -23 -35t-45 -13q-57 0 -57 45q0 56 53.5 94t108.5 38q60 0 94 -24t34 -67q0 -24 -14.5 -49t-32.5 -44t-53 -44t-55.5 -38t-61.5 -38z" />
    <glyph glyph-name="three.subs" horiz-adv-x="312" 
d="M167 47l1 -5q34 -7 56 -26t22 -49q0 -61 -58 -96.5t-134 -35.5q-52 0 -85 18.5t-33 53.5q0 26 20 44.5t47 18.5q21 0 35 -12t12 -27l-31 -41q9 -7 34 -7q32 0 57 19.5t25 59.5q0 41 -43 41q-20 0 -56 -12l-7 43q129 45 129 113q0 35 -26 35q-13 0 -32 -12q16 -35 17 -38
q-4 -18 -21.5 -29.5t-40.5 -11.5q-25 0 -39.5 10.5t-14.5 28.5q0 45 48.5 71t102.5 26q56 0 89 -21.5t33 -58.5q0 -60 -113 -102z" />
    <glyph glyph-name="four.subs" horiz-adv-x="322" 
d="M-47 -51l-1 22l252 257l57 -8l-47 -224h51l-8 -47h-52l-5 -20q-6 -27 3 -33.5t40 -6.5l-10 -48h-200l9 48q25 0 37 8t18 29q1 4 3 11.5t2 11.5h-149zM39 -4h72l18 86l-83 -85z" />
    <glyph glyph-name="five.subs" horiz-adv-x="316" 
d="M87 137l-19 -58q34 14 72 14q46 0 79 -26t33 -73q0 -51 -32 -88.5t-74.5 -54t-86.5 -16.5q-49 0 -85 19.5t-36 52.5q0 27 19 45t47 18q47 0 49 -39l-28 -38q13 -11 32 -11q32 0 57 26t25 74q0 59 -33 59q-24 0 -68 -33h-55l64 223q68 -20 124 -20q49 0 112 20l-9 -45
q-58 -52 -147 -52q-20 0 -40 3z" />
    <glyph glyph-name="six.subs" horiz-adv-x="333" 
d="M188 227q52 0 79.5 -21t27.5 -50q0 -22 -18 -37.5t-41 -15.5q-22 0 -39 8.5t-18 23.5l25 35q-9 11 -26 11q-23 0 -46.5 -29t-36.5 -77q31 17 69 17q52 0 79 -26t27 -70q0 -74 -55 -117.5t-120 -43.5q-58 0 -95 30t-37 100q0 104 69 183t156 79zM101 -113q26 0 40 30.5
t14 77.5q0 46 -23 46q-25 0 -55 -41l2 1q-8 -42 -8 -63q0 -51 30 -51z" />
    <glyph glyph-name="seven.subs" horiz-adv-x="305" 
d="M181 135l-2 4q-16 -5 -35 -5q-14 0 -30 4q-12 3 -23 3q-38 0 -59 -56h-51l47 142h51l2 -8q21 8 48 8q21 0 50 -9q26 -10 40 -10q22 0 73 28l18 -55q-84 -71 -125.5 -130t-70.5 -164q-5 -17 -9.5 -25.5t-18.5 -15.5t-39 -7q-64 0 -46 52q40 117 180 244z" />
    <glyph glyph-name="eight.subs" horiz-adv-x="322" 
d="M199 47v-4l-6 2q64 -26 64 -79q0 -56 -54 -93.5t-122 -37.5q-61 0 -98.5 23t-37.5 63q0 31 27.5 59.5t66.5 46.5l-6 -2q0 1 0.5 3l0.5 2l4 -2q-41 33 -41 81q0 45 43.5 81.5t120.5 36.5q56 0 87.5 -22t31.5 -58q0 -57 -86 -102zM94 -116q23 0 39.5 15.5t16.5 38.5
q0 41 -63 61q-15 -8 -28 -28t-13 -44q0 -43 48 -43zM101 130q0 -37 43 -57q35 23 35 61q0 20 -9 32t-25 12q-19 0 -31.5 -15t-12.5 -33z" />
    <glyph glyph-name="nine.subs" horiz-adv-x="333" 
d="M69 -165q-53 0 -82 20.5t-29 47.5q0 26 18.5 41.5t43.5 15.5q38 0 48 -29l-18 -38q5 -10 20 -10q27 0 52 31t38 76q-32 -17 -73 -17q-52 0 -79.5 24.5t-27.5 65.5q0 73 57 118.5t124 45.5q55 0 92 -32.5t37 -101.5q0 -101 -69.5 -179.5t-151.5 -78.5zM155 175
q-22 0 -40.5 -34.5t-18.5 -78.5q0 -40 25 -40q30 0 56 46l-1 -1q8 40 8 62q0 46 -29 46z" />
    <glyph glyph-name="acute.case" horiz-adv-x="500" 
d="M185 488v18l86 119h124v-20l-139 -117h-71z" />
    <glyph glyph-name="grave.case" horiz-adv-x="500" 
d="M305 506v-18h-71l-104 117v20h124z" />
    <glyph glyph-name="circumflex.case" horiz-adv-x="500" 
d="M394 506v-18h-37l-81 58l-127 -58h-45v18l163 119h58z" />
    <glyph glyph-name="breve.case" horiz-adv-x="500" 
d="M243 488q-58 0 -87 34t-14 103h50q-5 -26 13 -44.5t54 -18.5q39 0 70.5 18t38.5 45h54q-15 -66 -67 -101.5t-112 -35.5z" />
    <glyph glyph-name="caron.case" horiz-adv-x="500" 
d="M156 607v18h37l81 -58l127 58h45v-18l-163 -119h-58z" />
    <glyph glyph-name="dotaccent.case" horiz-adv-x="500" 
d="M206 551q0 35 21.5 62t54.5 27q25 0 40 -19t15 -47q0 -35 -22.5 -60t-51.5 -25q-25 0 -41 18.5t-16 43.5z" />
    <glyph glyph-name="hungarumlaut.case" horiz-adv-x="500" 
d="M95 488v18l86 119h124v-20l-139 -117h-71zM265 488v18l86 119h124v-20l-139 -117h-71z" />
    <glyph glyph-name="sidecaron.part" horiz-adv-x="500" 
d="M215 489v8l71 209h106v-10l-109 -207h-68z" />
    <glyph glyph-name="gcomma.part" horiz-adv-x="500" 
d="M309 549q0 -19 -14.5 -32t-37.5 -13q-26 0 -46 22.5t-20 61.5q0 51 46 92t119 41v-32q-37 0 -58 -23t-21 -49q0 -19 16 -38t16 -30z" />
    <glyph glyph-name="Stroke.part" horiz-adv-x="430" 
d="M135 533h752l-16 -74h-752z" />
    <glyph glyph-name="stroke.part" horiz-adv-x="430" 
d="M53 557h312v-60h-312v60z" />
    <glyph glyph-name="uni2011.case" horiz-adv-x="318" 
d="M62 388h250v-113h-250v113z" />
    <glyph glyph-name="acute.plk" horiz-adv-x="500" 
d="M205 488v18l66 154h124v-20l-119 -152h-71z" />
    <glyph glyph-name="acute.case.plk" horiz-adv-x="500" 
d="M205 488v18l61 119h119v-20l-114 -117h-66z" />
    <glyph glyph-name="Iacute_Jacute" horiz-adv-x="922" 
d="M458 691l-18 -86q-57 0 -70.5 -5.5t-19.5 -32.5l-93 -438q-6 -29 6 -36.5t67 -7.5l-18 -85h-325l18 85q58 0 71.5 7t20.5 37l93 438q6 28 -5.5 34t-68.5 6l17 84h325zM236 747v18l86 119h124v-20l-139 -117h-71zM1026 691l-17 -84q-62 0 -83.5 -14t-33.5 -73l-69 -325
q-13 -60 -43 -103t-69.5 -64.5t-75.5 -30.5t-72 -9q-80 0 -133 32t-53 103q0 61 31 96t79 35q45 0 66.5 -28.5t14.5 -71.5l-68 -54q6 -38 58 -38q42 0 65 28t38 97l72 332q5 21 5 43q0 30 -20 37.5t-78 7.5l17 84h369zM786 747v18l86 119h124v-20l-139 -117h-71z" />
    <glyph glyph-name="iacute_jacute" horiz-adv-x="638" 
d="M366 -147q18 0 28 27t22 103l70 376q9 51 -5 51q-16 0 -32.5 -30.5t-25.5 -94.5l-55 12q22 113 57 160.5t102 47.5q55 0 77 -38.5t14 -93.5l-73 -392q-17 -94 -64 -149.5t-118 -56.5q-46 0 -81.5 23t-35.5 67q0 37 23 65.5t69 33.5q-3 -111 28 -111zM269 372l-63 -264
q-5 -25 14 -25q29 0 50 107l50 -6q-18 -104 -49.5 -147.5t-89.5 -43.5q-64 0 -91 42.5t-11 102.5l64 227q10 40 -5 40q-30 0 -68 -121l-49 8q41 213 163 213q58 0 78 -39t7 -94zM144 555v18l86 154h124v-20l-139 -152h-71zM505 555v18l86 154h124v-20l-139 -152h-71z" />
    <glyph glyph-name="idotaccent" horiz-adv-x="320" 
d="M269 372l-63 -264q-5 -25 14 -25q29 0 50 107l50 -6q-18 -104 -49.5 -147.5t-89.5 -43.5q-64 0 -91 42.5t-11 102.5l64 227q10 40 -5 40q-30 0 -68 -121l-49 8q41 213 163 213q58 0 78 -39t7 -94zM154 663q0 36 22 59.5t56 23.5t56.5 -24t22.5 -59q0 -34 -22.5 -57.5
t-56.5 -23.5t-56 23.5t-22 57.5z" />
    <glyph glyph-name="Dotlessi" horiz-adv-x="379" 
d="M458 691l-18 -86q-57 0 -70.5 -5.5t-19.5 -32.5l-93 -438q-6 -29 6 -36.5t67 -7.5l-18 -85h-325l18 85q58 0 71.5 7t20.5 37l93 438q6 28 -5.5 34t-68.5 6l17 84h325z" />
    <glyph glyph-name="dotaccentlow" horiz-adv-x="500" 
d="M148 -152q0 38 24 68t60 30q28 0 44 -21t16 -52q0 -38 -24.5 -65.5t-56.5 -27.5q-28 0 -45.5 20t-17.5 48z" />
    <glyph glyph-name="acute.lchigh" horiz-adv-x="500" 
d="M185 488v18l86 119h124v-20l-139 -117h-71z" />
    <glyph glyph-name="hyphen.c2sc" horiz-adv-x="318" 
d="M42 298h250v-113h-250v113z" />
    <glyph glyph-name="endash.c2sc" horiz-adv-x="488" 
d="M62 298h400v-113h-400v113z" />
    <glyph glyph-name="emdash.c2sc" horiz-adv-x="1000" 
d="M110 281h816v-83h-816v83z" />
    <glyph glyph-name="twosevenths" 
d="M120 -9l307 370l285 353l45 -36l-295 -349l-297 -375zM165 393l2 -7h81q24 0 40 45h58l-48 -122h-266l-4 46l26 18q212 140 212 226q0 44 -33 44q-26 0 -45 -25l24 -52q-4 -22 -23 -35t-45 -13q-57 0 -57 45q0 56 53.5 94t108.5 38q60 0 94 -24t34 -67q0 -24 -14.5 -49
t-32.5 -44t-53 -44t-55.5 -38t-61.5 -38zM677 285l-2 4q-16 -5 -35 -5q-14 0 -30 4q-12 3 -23 3q-38 0 -59 -56h-51l47 142h51l2 -8q21 8 48 8q21 0 50 -9q26 -10 40 -10q22 0 73 28l18 -55q-84 -71 -125.5 -130t-70.5 -164q-5 -17 -9.5 -25.5t-18.5 -15.5t-39 -7
q-64 0 -46 52q40 117 180 244z" />
    <glyph glyph-name="twoninths" 
d="M120 -9l307 370l285 353l45 -36l-295 -349l-297 -375zM165 393l2 -7h81q24 0 40 45h58l-48 -122h-266l-4 46l26 18q212 140 212 226q0 44 -33 44q-26 0 -45 -25l24 -52q-4 -22 -23 -35t-45 -13q-57 0 -57 45q0 56 53.5 94t108.5 38q60 0 94 -24t34 -67q0 -24 -14.5 -49
t-32.5 -44t-53 -44t-55.5 -38t-61.5 -38zM565 -15q-53 0 -82 20.5t-29 47.5q0 26 18.5 41.5t43.5 15.5q38 0 48 -29l-18 -38q5 -10 20 -10q27 0 52 31t38 76q-32 -17 -73 -17q-52 0 -79.5 24.5t-27.5 65.5q0 73 57 118.5t124 45.5q55 0 92 -32.5t37 -101.5
q0 -101 -69.5 -179.5t-151.5 -78.5zM651 325q-22 0 -40.5 -34.5t-18.5 -78.5q0 -40 25 -40q30 0 56 46l-1 -1q8 40 8 62q0 46 -29 46z" />
    <glyph glyph-name="threesevenths" 
d="M120 -9l307 370l285 353l45 -36l-295 -349l-297 -375zM291 515l1 -5q34 -7 56 -26t22 -49q0 -61 -58 -96.5t-134 -35.5q-52 0 -85 18.5t-33 53.5q0 26 20 44.5t47 18.5q21 0 35 -12t12 -27l-31 -41q9 -7 34 -7q32 0 57 19.5t25 59.5q0 41 -43 41q-20 0 -56 -12l-7 43
q129 45 129 113q0 35 -26 35q-13 0 -32 -12q16 -35 17 -38q-4 -18 -21.5 -29.5t-40.5 -11.5q-25 0 -39.5 10.5t-14.5 28.5q0 45 48.5 71t102.5 26q56 0 89 -21.5t33 -58.5q0 -60 -113 -102zM677 285l-2 4q-16 -5 -35 -5q-14 0 -30 4q-12 3 -23 3q-38 0 -59 -56h-51l47 142
h51l2 -8q21 8 48 8q21 0 50 -9q26 -10 40 -10q22 0 73 28l18 -55q-84 -71 -125.5 -130t-70.5 -164q-5 -17 -9.5 -25.5t-18.5 -15.5t-39 -7q-64 0 -46 52q40 117 180 244z" />
    <glyph glyph-name="foursevenths" 
d="M120 -9l307 370l285 353l45 -36l-295 -349l-297 -375zM47 417l-1 22l252 257l57 -8l-47 -224h51l-8 -47h-52l-5 -20q-6 -27 3 -33.5t40 -6.5l-10 -48h-200l9 48q25 0 37 8t18 29q1 4 3 11.5t2 11.5h-149zM133 464h72l18 86l-83 -85zM677 285l-2 4q-16 -5 -35 -5
q-14 0 -30 4q-12 3 -23 3q-38 0 -59 -56h-51l47 142h51l2 -8q21 8 48 8q21 0 50 -9q26 -10 40 -10q22 0 73 28l18 -55q-84 -71 -125.5 -130t-70.5 -164q-5 -17 -9.5 -25.5t-18.5 -15.5t-39 -7q-64 0 -46 52q40 117 180 244z" />
    <glyph glyph-name="fourninths" 
d="M120 -9l307 370l285 353l45 -36l-295 -349l-297 -375zM47 417l-1 22l252 257l57 -8l-47 -224h51l-8 -47h-52l-5 -20q-6 -27 3 -33.5t40 -6.5l-10 -48h-200l9 48q25 0 37 8t18 29q1 4 3 11.5t2 11.5h-149zM133 464h72l18 86l-83 -85zM565 -15q-53 0 -82 20.5t-29 47.5
q0 26 18.5 41.5t43.5 15.5q38 0 48 -29l-18 -38q5 -10 20 -10q27 0 52 31t38 76q-32 -17 -73 -17q-52 0 -79.5 24.5t-27.5 65.5q0 73 57 118.5t124 45.5q55 0 92 -32.5t37 -101.5q0 -101 -69.5 -179.5t-151.5 -78.5zM651 325q-22 0 -40.5 -34.5t-18.5 -78.5q0 -40 25 -40
q30 0 56 46l-1 -1q8 40 8 62q0 46 -29 46z" />
    <glyph glyph-name="fivesevenths" 
d="M120 -9l307 370l285 353l45 -36l-295 -349l-297 -375zM220 605l-19 -58q34 14 72 14q46 0 79 -26t33 -73q0 -51 -32 -88.5t-74.5 -54t-86.5 -16.5q-49 0 -85 19.5t-36 52.5q0 27 19 45t47 18q47 0 49 -39l-28 -38q13 -11 32 -11q32 0 57 26t25 74q0 59 -33 59
q-24 0 -68 -33h-55l64 223q68 -20 124 -20q49 0 112 20l-9 -45q-58 -52 -147 -52q-20 0 -40 3zM677 285l-2 4q-16 -5 -35 -5q-14 0 -30 4q-12 3 -23 3q-38 0 -59 -56h-51l47 142h51l2 -8q21 8 48 8q21 0 50 -9q26 -10 40 -10q22 0 73 28l18 -55q-84 -71 -125.5 -130
t-70.5 -164q-5 -17 -9.5 -25.5t-18.5 -15.5t-39 -7q-64 0 -46 52q40 117 180 244z" />
    <glyph glyph-name="fiveninths" 
d="M120 -9l307 370l285 353l45 -36l-295 -349l-297 -375zM220 605l-19 -58q34 14 72 14q46 0 79 -26t33 -73q0 -51 -32 -88.5t-74.5 -54t-86.5 -16.5q-49 0 -85 19.5t-36 52.5q0 27 19 45t47 18q47 0 49 -39l-28 -38q13 -11 32 -11q32 0 57 26t25 74q0 59 -33 59
q-24 0 -68 -33h-55l64 223q68 -20 124 -20q49 0 112 20l-9 -45q-58 -52 -147 -52q-20 0 -40 3zM565 -15q-53 0 -82 20.5t-29 47.5q0 26 18.5 41.5t43.5 15.5q38 0 48 -29l-18 -38q5 -10 20 -10q27 0 52 31t38 76q-32 -17 -73 -17q-52 0 -79.5 24.5t-27.5 65.5q0 73 57 118.5
t124 45.5q55 0 92 -32.5t37 -101.5q0 -101 -69.5 -179.5t-151.5 -78.5zM651 325q-22 0 -40.5 -34.5t-18.5 -78.5q0 -40 25 -40q30 0 56 46l-1 -1q8 40 8 62q0 46 -29 46z" />
    <glyph glyph-name="sixsevenths" 
d="M120 -9l307 370l285 353l45 -36l-295 -349l-297 -375zM291 695q52 0 79.5 -21t27.5 -50q0 -22 -18 -37.5t-41 -15.5q-22 0 -39 8.5t-18 23.5l25 35q-9 11 -26 11q-23 0 -46.5 -29t-36.5 -77q31 17 69 17q52 0 79 -26t27 -70q0 -74 -55 -117.5t-120 -43.5q-58 0 -95 30
t-37 100q0 104 69 183t156 79zM204 355q26 0 40 30.5t14 77.5q0 46 -23 46q-25 0 -55 -41l2 1q-8 -42 -8 -63q0 -51 30 -51zM677 285l-2 4q-16 -5 -35 -5q-14 0 -30 4q-12 3 -23 3q-38 0 -59 -56h-51l47 142h51l2 -8q21 8 48 8q21 0 50 -9q26 -10 40 -10q22 0 73 28l18 -55
q-84 -71 -125.5 -130t-70.5 -164q-5 -17 -9.5 -25.5t-18.5 -15.5t-39 -7q-64 0 -46 52q40 117 180 244z" />
    <glyph glyph-name="sevenninths" 
d="M120 -9l307 370l285 353l45 -36l-295 -349l-297 -375zM332 603l-2 4q-16 -5 -35 -5q-14 0 -30 4q-12 3 -23 3q-38 0 -59 -56h-51l47 142h51l2 -8q21 8 48 8q21 0 50 -9q26 -10 40 -10q22 0 73 28l18 -55q-84 -71 -125.5 -130t-70.5 -164q-5 -17 -9.5 -25.5t-18.5 -15.5
t-39 -7q-64 0 -46 52q40 117 180 244zM565 -15q-53 0 -82 20.5t-29 47.5q0 26 18.5 41.5t43.5 15.5q38 0 48 -29l-18 -38q5 -10 20 -10q27 0 52 31t38 76q-32 -17 -73 -17q-52 0 -79.5 24.5t-27.5 65.5q0 73 57 118.5t124 45.5q55 0 92 -32.5t37 -101.5q0 -101 -69.5 -179.5
t-151.5 -78.5zM651 325q-22 0 -40.5 -34.5t-18.5 -78.5q0 -40 25 -40q30 0 56 46l-1 -1q8 40 8 62q0 46 -29 46z" />
    <glyph glyph-name="eightninths" 
d="M120 -9l307 370l285 353l45 -36l-295 -349l-297 -375zM313 515v-4l-6 2q64 -26 64 -79q0 -56 -54 -93.5t-122 -37.5q-61 0 -98.5 23t-37.5 63q0 31 27.5 59.5t66.5 46.5l-6 -2q0 1 0.5 3l0.5 2l4 -2q-41 33 -41 81q0 45 43.5 81.5t120.5 36.5q56 0 87.5 -22t31.5 -58
q0 -57 -86 -102zM208 352q23 0 39.5 15.5t16.5 38.5q0 41 -63 61q-15 -8 -28 -28t-13 -44q0 -43 48 -43zM215 598q0 -37 43 -57q35 23 35 61q0 20 -9 32t-25 12q-19 0 -31.5 -15t-12.5 -33zM565 -15q-53 0 -82 20.5t-29 47.5q0 26 18.5 41.5t43.5 15.5q38 0 48 -29l-18 -38
q5 -10 20 -10q27 0 52 31t38 76q-32 -17 -73 -17q-52 0 -79.5 24.5t-27.5 65.5q0 73 57 118.5t124 45.5q55 0 92 -32.5t37 -101.5q0 -101 -69.5 -179.5t-151.5 -78.5zM651 325q-22 0 -40.5 -34.5t-18.5 -78.5q0 -40 25 -40q30 0 56 46l-1 -1q8 40 8 62q0 46 -29 46z" />
    <glyph glyph-name="Cacute.plk" horiz-adv-x="684" 
d="M632 651l5 1l35 38h46l-52 -265h-62q0 76 -28 128.5t-89 52.5q-72 0 -130.5 -53t-88.5 -131.5t-30 -163.5t37.5 -129.5t111.5 -44.5q63 0 112.5 38t77.5 113h70v-3q-37 -117 -122 -180.5t-187 -63.5q-129 0 -201.5 71.5t-72.5 197.5q0 117 58 219.5t158 163.5t216 61
q45 0 84 -15t52 -35zM465 747v18l61 119h119v-20l-114 -117h-66z" />
    <glyph glyph-name="Nacute.plk" horiz-adv-x="752" 
d="M265 473h-4l-71 -336q-7 -33 14.5 -42.5t78.5 -9.5l-18 -85h-284l18 85q43 0 66.5 10t30.5 42l90 424q-27 46 -76 46l17 84h201l239 -448h4l68 314q5 26 -19.5 37.5t-86.5 11.5l18 85h286l-18 -85q-46 0 -63.5 -11.5t-23.5 -37.5l-120 -565h-87zM423 747v18l61 119h119
v-20l-114 -117h-66z" />
    <glyph glyph-name="Oacute.plk" horiz-adv-x="751" 
d="M754 432q0 -127 -62 -230.5t-158 -158.5t-202 -55q-131 0 -199.5 71t-68.5 196q0 96 36.5 180.5t96 142t133.5 90.5t149 33q126 0 200.5 -73t74.5 -196zM352 84q57 0 103 38t72.5 97t40.5 123t14 124q0 69 -30.5 104.5t-87.5 35.5q-100 0 -164.5 -113.5t-64.5 -260.5
q0 -77 27.5 -112.5t89.5 -35.5zM444 747v18l61 119h119v-20l-114 -117h-66z" />
    <glyph glyph-name="Sacute.plk" horiz-adv-x="586" 
d="M126 59l-27 -59h-84l54 288h74v-11q0 -88 47.5 -142t122.5 -54q44 0 75 24t31 67q0 39 -27.5 62t-101.5 53q-40 17 -67.5 32.5t-57 40.5t-45 59t-15.5 76q0 89 76.5 147.5t166.5 58.5q106 0 166 -64l2 2l-2 -1l32 57h79l-54 -263h-71q-9 93 -45.5 135t-105.5 42
q-44 0 -66.5 -24t-22.5 -47q0 -19 9 -36t18 -27.5t33.5 -24.5t35 -19t42.5 -19q7 -3 11 -5q73 -32 114 -75t41 -119q0 -91 -77 -158t-177 -67q-69 0 -115 22t-69 49zM331 747v18l61 119h119v-20l-114 -117h-66z" />
    <glyph glyph-name="Zacute.plk" horiz-adv-x="636" 
d="M-14 0l10 48l497 555l-2 4h-118q-60 0 -115 -61t-77 -140h-86l70 285h571l-9 -46l-502 -556l2 -4h154q54 0 108.5 61.5t88.5 159.5h87l-94 -306h-585zM395 747v18l61 119h119v-20l-114 -117h-66z" />
    <glyph glyph-name="cacute.plk" horiz-adv-x="409" 
d="M272 415q-37 0 -69 -68.5t-32 -187.5q0 -81 55 -81q26 0 53.5 31t46.5 76l61 -30q-81 -167 -203 -167q-65 0 -108 45t-43 129q0 141 78 242t171 101q52 0 87.5 -31.5t35.5 -85.5q0 -82 -93 -99q0 7 -0.5 21t-1 21.5t-1.5 19.5t-2 18t-3 15t-4.5 13.5t-6.5 9t-9 6.5t-12 2
zM227 555v18l66 154h124v-20l-119 -152h-71z" />
    <glyph glyph-name="nacute.plk" horiz-adv-x="572" 
d="M202 31l-54 -31h-86l70 329q4 21 6 32.5t3 22.5t-2 16t-9 5q-8 0 -18 -12.5t-20 -42.5t-16 -73l-55 4q13 100 47.5 162t91.5 62q110 0 76 -162h9q30 78 75.5 120t98.5 42q54 0 75 -34.5t15 -97.5t-36 -165q-11 -39 -16 -60t-6.5 -38t4 -23.5t17.5 -6.5q34 0 47 114l52 -5
q-9 -91 -40.5 -143.5t-101.5 -52.5q-25 0 -46.5 8t-40.5 29t-21 57.5t10 92.5q2 7 7.5 27.5t8.5 29.5t8 27.5t7 28.5t6 25.5t5.5 25.5t3 21t1 19.5t-1.5 14.5q-35 0 -77.5 -71.5t-64.5 -142.5zM294 555v18l66 154h124v-20l-119 -152h-71z" />
    <glyph glyph-name="oacute.plk" horiz-adv-x="470" 
d="M459 309q0 -132 -72.5 -226.5t-179.5 -94.5q-82 0 -129.5 46.5t-47.5 132.5q0 148 79.5 243t175.5 95q87 0 130.5 -52t43.5 -144zM220 75q49 0 76 87.5t27 180.5q0 76 -46 76q-47 0 -78 -83t-31 -184q0 -77 52 -77zM236 555v18l66 154h124v-20l-119 -152h-71z" />
    <glyph glyph-name="sacute.plk" horiz-adv-x="385" 
d="M116 179q0 -104 59 -104q18 0 29 10.5t11 28.5q0 23 -20.5 52t-45.5 54t-46.5 61t-22.5 70q0 64 47 109t125 45q53 0 94 -30t41 -72q0 -41 -24.5 -64.5t-70.5 -23.5q1 9 1 24q0 38 -13.5 59t-37.5 21q-37 0 -37 -44q0 -27 21 -56.5t46 -53t47 -58t23 -70.5
q0 -65 -50.5 -107t-126.5 -42q-66 0 -105.5 25t-39.5 70q0 42 26.5 69t69.5 27zM217 555v18l66 154h124v-20l-119 -152h-71z" />
    <glyph glyph-name="zacute.plk" horiz-adv-x="439" 
d="M325 375l-7 6l-73 -32q-38 25 -61 25q-25 0 -43.5 -26t-21.5 -57l-56 5q11 99 46 154t90 55q63 -3 121 -50q50 2 87 51l73 -50l-189 -205l-129 -132l6 -5l73 33q30 -43 70 -43q25 0 42 24t23 62l50 -8q-36 -194 -149 -194q-40 0 -67.5 13.5t-56.5 39.5q-44 -3 -93 -53
l-59 49l219 226zM255 555v18l66 154h124v-20l-119 -152h-71z" />
    </font>
</defs>
</svg>
