<?xml version="1.0" standalone="no"?>
<!DOCTYPE svg PUBLIC "-//W3C//DTD SVG 1.1//EN" "http://www.w3.org/Graphics/SVG/1.1/DTD/svg11.dtd" >
<svg xmlns="http://www.w3.org/2000/svg" xmlns:xlink="http://www.w3.org/1999/xlink" version="1.1">
<metadata>
Created by FontForge 20170731 at Wed Mar 13 13:57:10 2019
 By Aleksey,,,
Copyright 2018-2019 Matthew Butterick
</metadata>
<defs>
<font id="CenturySupraT3" horiz-adv-x="800" >
  <font-face 
    font-family="Century Supra T3"
    font-weight="300"
    font-stretch="normal"
    units-per-em="1000"
    panose-1="0 0 0 0 0 0 0 0 0 0"
    ascent="762"
    descent="-238"
    x-height="480"
    cap-height="691"
    bbox="-74 -255 969 936"
    underline-thickness="50"
    underline-position="-175"
    unicode-range="U+000D-FB04"
  />
<missing-glyph horiz-adv-x="544" 
d="M20 0v700h508v-700h-508zM71 41h406v618h-406v-618zM200 397l8 4q36 -18 79 -18q36 0 57.5 24.5t21.5 63.5q0 40 -30.5 74t-78.5 34q-28 0 -40 -14l14 -37q0 -14 -10 -22.5t-26 -8.5q-35 0 -35 39q0 30 25 50t66 20q63 0 109.5 -45t46.5 -114q0 -56 -30 -92t-77 -36
q-45 0 -65 15l-2 -88h-30zM172 141q0 20 13 33.5t33 13.5q18 0 31.5 -13.5t13.5 -33.5q0 -18 -13.5 -31t-31.5 -13q-19 0 -32.5 13t-13.5 31z" />
    <glyph glyph-name="uni2190" unicode="&#x3c;&#x2d;" horiz-adv-x="704" 
d="M75 268l239 267l59 -44l-169 -190h434v-75h-434l169 -189l-59 -45l-239 269v7z" />
    <glyph glyph-name="uni2192" unicode="&#x2d;&#x3e;" horiz-adv-x="704" 
d="M390 535l239 -267v-7l-239 -269l-59 45l168 189h-433v75h434l-169 190z" />
    <glyph glyph-name="f_f" unicode="ff" horiz-adv-x="665" 
d="M634 641v79q-72 0 -100 -41.5t-34 -129.5v-79h123v-46h-123v-365q0 -20 18 -23q13 -1 38 -3t37 -2v-31h-251v31l22 5q28 6 40 17.5t12 39.5v331h-233v-365q0 -22 17 -23q12 0 37.5 -2t37.5 -3v-31h-251v31l22 5q29 6 41 17.5t12 39.5v331h-75v46h75v53q10 97 61 158
t127 61q48 0 77 -23.5t29 -61.5q0 -24 -12.5 -40t-31.5 -16q-37 0 -54 31l1 -1v79q-60 0 -83.5 -39t-29.5 -122v-79h233v53q12 101 68.5 165t140.5 64q48 0 77 -23t29 -61q0 -25 -12.5 -41t-31.5 -16q-39 0 -54 31z" />
    <glyph glyph-name="fi" unicode="fi" horiz-adv-x="576" 
d="M477 52q0 -15 13 -15l56 -6v-31h-224v31l30 5q41 5 41 48v340h-209v-365q0 -22 17 -23q11 0 33 -2t32 -3v-31h-241v31l22 5q29 6 41 17.5t12 39.5v331h-75v46h75v53q11 102 75.5 165.5t163.5 63.5q52 0 84 -23t32 -61q0 -25 -14 -41t-36 -16q-36 0 -53 26l1 -1v79
q-92 0 -127.5 -40.5t-41.5 -125.5v-79h188l73 10h32v-428z" />
    <glyph glyph-name="fl" unicode="fl" horiz-adv-x="586" 
d="M482 524v-472q0 -16 16 -16q9 0 28.5 -2t29.5 -3v-31h-232v31l33 5q41 5 41 48v543q-49 0 -66 25l1 -1v69q-81 0 -112 -41.5t-37 -129.5v-79h112v-46h-112v-365q0 -22 17 -23q11 0 35 -2t35 -3v-31h-246v31l22 5q29 6 41 17.5t12 39.5v331h-75v46h75v53
q10 102 70.5 165.5t153.5 63.5q48 0 81 -30l46 20h36z" />
    <glyph glyph-name="f_f_i" unicode="ffi" horiz-adv-x="890" 
d="M793 52q0 -15 13 -15l55 -6v-31h-224v31l31 5q41 5 41 48v340h-210v-365q0 -22 17 -23q11 -1 33.5 -3t32.5 -2v-31h-241v31l22 5q28 6 40 17.5t12 39.5v331h-232v-365q0 -22 17 -23q12 0 37.5 -2t37.5 -3v-31h-251v31l22 5q29 6 41 17.5t12 39.5v331h-75v46h75v53
q10 97 61 158t127 61q48 0 77 -23.5t29 -61.5q0 -24 -12.5 -40t-31.5 -16q-37 0 -54 31l1 -1v79q-60 0 -83.5 -39t-29.5 -122v-79h232v53q11 102 75.5 165.5t163.5 63.5q53 0 84.5 -23t31.5 -61q0 -25 -13.5 -41t-35.5 -16q-36 0 -53 26l1 -1v79q-93 0 -128.5 -40.5
t-41.5 -125.5v-79h189l72 10h33v-428z" />
    <glyph glyph-name="f_f_l" unicode="ffl" horiz-adv-x="900" 
d="M798 524v-472q0 -16 16 -16q10 0 29 -2t28 -3v-31h-232v31l34 5q41 5 41 48v543q-49 0 -67 25l1 -1v69q-81 0 -112 -41.5t-37 -129.5v-79h113v-46h-113v-365q0 -22 17 -23l36 -3t35 -2v-31h-246v31l22 5q28 6 40 17.5t12 39.5v331h-232v-365q0 -22 17 -23q12 0 37.5 -2
t37.5 -3v-31h-251v31l22 5q29 6 41 17.5t12 39.5v331h-75v46h75v53q10 97 61 158t127 61q48 0 77 -23.5t29 -61.5q0 -24 -12.5 -40t-31.5 -16q-37 0 -54 31l1 -1v79q-60 0 -83.5 -39t-29.5 -122v-79h232v53q11 102 71.5 165.5t152.5 63.5q49 0 82 -30l45 20h37z" />
    <glyph glyph-name="uni2192.circle" unicode="&#x28;&#x2d;&#x3e;&#x29;" horiz-adv-x="884" 
d="M721 276l-242 270v1l-62 -47v-7l159 -179h-422v-96h422l-159 -179v-7l62 -48v1l242 272v19zM47 264q0 160 113.5 273t274.5 113q163 0 278 -113t115 -273q0 -158 -115 -271t-278 -113q-160 0 -274 113t-114 271z" />
    <glyph glyph-name="uni2190.circle" unicode="&#x28;&#x3c;&#x2d;&#x29;" horiz-adv-x="884" 
d="M405 546l-242 -270v-19l242 -272v-1l62 48v7l-159 179h422v96h-422l159 179v7l-62 47v-1zM837 264q0 -158 -114 -271t-274 -113q-163 0 -278 113t-115 271q0 160 115 273t278 113q161 0 274.5 -113t113.5 -273z" />
    <glyph glyph-name="uni2193.circle" unicode="&#x28;&#x2193;&#x29;" horiz-adv-x="884" 
d="M454 -24l270 242v7l-47 63v1l-187 -167v431h-86v-431l-187 167v-1l-48 -63v-7l272 -242v-1h13v1zM445 650q162 0 277 -112.5t115 -271.5q0 -160 -114.5 -273.5t-277.5 -113.5q-161 0 -275 113.5t-114 273.5q0 158 114.5 271t274.5 113z" />
    <glyph glyph-name="uni2191.circle" unicode="&#x28;&#x2191;&#x29;" horiz-adv-x="884" 
d="M724 311l-270 242v1h-13v-1l-272 -242v-7l48 -63v-1l187 167v-431h86v431l187 -167v1l47 63v7zM445 -121q-160 0 -274.5 113t-114.5 271q0 160 114 273.5t275 113.5q163 0 277.5 -113.5t114.5 -273.5q0 -159 -115 -271.5t-277 -112.5z" />
    <glyph glyph-name="f_j" unicode="fj" horiz-adv-x="572" 
d="M403 -117v541h-219v-365q0 -22 17 -23q11 0 33 -2t32 -3v-31h-241v31l22 5q29 6 41 17.5t12 39.5v331h-75v46h75v53q11 102 75.5 165.5t163.5 63.5q52 0 84 -23t32 -61q0 -25 -14 -41t-36 -16q-36 0 -53 26l1 -1v79q-92 0 -127.5 -40.5t-41.5 -125.5v-79h198l73 10h32
v-517q0 -101 -39.5 -145.5t-102.5 -44.5q-47 0 -79 23t-32 57q0 32 14.5 49t34.5 17q17 0 33 -11l-6 -96q12 -12 32 -12q27 0 44 23.5t17 59.5z" />
    <glyph glyph-name="f_f_j" unicode="ffj" horiz-adv-x="886" 
d="M719 -117v541h-220v-365q0 -22 17 -23q11 -1 33.5 -3t32.5 -2v-31h-241v31l22 5q28 6 40 17.5t12 39.5v331h-232v-365q0 -22 17 -23q12 0 37.5 -2t37.5 -3v-31h-251v31l22 5q29 6 41 17.5t12 39.5v331h-75v46h75v53q10 97 61 158t127 61q48 0 77 -23.5t29 -61.5
q0 -24 -12.5 -40t-31.5 -16q-37 0 -54 31l1 -1v79q-60 0 -83.5 -39t-29.5 -122v-79h232v53q11 102 75.5 165.5t163.5 63.5q53 0 84.5 -23t31.5 -61q0 -25 -13.5 -41t-35.5 -16q-36 0 -53 26l1 -1v79q-93 0 -128.5 -40.5t-41.5 -125.5v-79h199l72 10h33v-517q0 -100 -40 -145
t-102 -45q-47 0 -79 23t-32 57q0 32 14.5 49t34.5 17q15 0 32 -11l-6 -96q12 -12 33 -12q27 0 44 23.5t17 59.5z" />
    <glyph glyph-name=".notdef" horiz-adv-x="544" 
d="M20 0v700h508v-700h-508zM71 41h406v618h-406v-618zM200 397l8 4q36 -18 79 -18q36 0 57.5 24.5t21.5 63.5q0 40 -30.5 74t-78.5 34q-28 0 -40 -14l14 -37q0 -14 -10 -22.5t-26 -8.5q-35 0 -35 39q0 30 25 50t66 20q63 0 109.5 -45t46.5 -114q0 -56 -30 -92t-77 -36
q-45 0 -65 15l-2 -88h-30zM172 141q0 20 13 33.5t33 13.5q18 0 31.5 -13.5t13.5 -33.5q0 -18 -13.5 -31t-31.5 -13q-19 0 -32.5 13t-13.5 31z" />
    <glyph glyph-name=".null" horiz-adv-x="0" 
 />
    <glyph glyph-name="nonmarkingreturn" horiz-adv-x="333" 
 />
    <glyph glyph-name="NULL" horiz-adv-x="0" 
 />
    <glyph glyph-name="NULL" horiz-adv-x="0" 
 />
    <glyph glyph-name="CR" unicode="&#xd;" horiz-adv-x="230" 
 />
    <glyph glyph-name="space" unicode=" " horiz-adv-x="230" 
 />
    <glyph glyph-name="exclam" unicode="!" horiz-adv-x="359" 
d="M233 616q-1 -7 -3 -22.5t-3 -21.5q-29 -208 -30 -355h-34q0 116 -12.5 227t-26.5 172q-7 40 6.5 72t50.5 32q55 0 55 -67q0 -19 -3 -37zM115 57q0 29 18.5 49t45.5 20t46 -20t19 -49q0 -27 -19 -46.5t-46 -19.5t-45.5 19t-18.5 47z" />
    <glyph glyph-name="quotedbl" unicode="&#x22;" horiz-adv-x="485" 
d="M135 421l-25 303h86l-25 -303h-36zM315 421l-25 303h86l-25 -303h-36z" />
    <glyph glyph-name="numbersign" unicode="#" horiz-adv-x="510" 
d="M92 508l95 -13q7 35 22.5 105.5t22.5 105.5q8 -1 22.5 -3.5t21.5 -3.5l-45 -210l105 -15l48 232q8 -1 22 -3.5t22 -3.5l-48 -231l106 -14l-7 -56l-110 15l-34 -167l91 -13l-7 -56l-96 14l-46 -225q-8 1 -22.5 2t-22.5 2l47 226l-105 15l-50 -245q-8 1 -22.5 2t-22.5 2
l52 246l-106 16l7 56l110 -15l34 166l-92 14zM220 434l-34 -166l105 -16l34 166z" />
    <glyph glyph-name="dollar" unicode="$" horiz-adv-x="596" 
d="M149 74l-16 -58h-29l-7 211h25q18 -80 56 -124.5t104 -58.5v258l-14 5q-86 31 -129.5 76.5t-43.5 114.5q0 77 50.5 124t121.5 47h15v92h35v-97q56 -14 117 -56q3 6 9.5 21t9.5 20h28q0 -32 1 -92t1 -91h-24q-44 131 -142 163v-244q7 -3 31 -9q95 -29 136.5 -73t41.5 -114
q0 -79 -54 -131.5t-138 -52.5h-17v-103h-35v107q-79 16 -133 65zM467 156q0 40 -32 70.5t-118 63.5v-250h15q65 0 100 34t35 82zM157 523q0 -73 125 -126v238h-14q-52 0 -81.5 -34t-29.5 -78z" />
    <glyph glyph-name="percent" unicode="%" horiz-adv-x="552" 
d="M297 578l-11 -2q-1 -81 -43.5 -134t-96.5 -53q-45 0 -74 35.5t-29 89.5q0 74 45 128t98 54q66 0 92 -68q6 -16 26 -26t45 -10q49 0 90 33q23 65 50 65q7 0 13 -5t6 -15q0 -14 -13.5 -31t-29.5 -28l-191 -291l-214 -336q-6 4 -15 12t-12 10l223 332l143 232l-11 2
q-21 -12 -46 -12q-27 0 -45 18zM267 113q0 74 45.5 128.5t97.5 54.5q44 0 72 -31.5t28 -84.5q0 -86 -42.5 -138.5t-95.5 -52.5q-47 0 -76 35t-29 89zM426 254q-35 0 -64.5 -53.5t-29.5 -115.5q0 -29 12.5 -44.5t32.5 -15.5q36 0 66 42t30 122q0 31 -13 48t-34 17zM203 655
q-35 0 -65.5 -53t-30.5 -114q0 -63 48 -63q35 0 64 43t29 122q0 31 -13 48t-32 17z" />
    <glyph glyph-name="ampersand" unicode="&#x26;" horiz-adv-x="753" 
d="M479 567q0 -30 -10.5 -54t-35 -44t-42.5 -31t-55 -30l-33 -17q36 -70 87.5 -139.5t105.5 -118.5q46 65 67 152q5 30 -22 41.5t-81 11.5v41h251v-41q-84 -3 -107 -67q-28 -94 -80 -163q59 -48 105 -48q35 0 47 15.5t12 53.5h26q0 -66 -25 -104t-71 -38q-63 0 -148 64
q-79 -64 -173 -64q-116 0 -175 55.5t-59 137.5q0 40 11.5 72.5t34.5 57.5t46 42.5t56 36.5q-41 90 -41 150q0 67 44.5 114.5t118.5 47.5q64 0 105 -38t41 -96zM437 75v4q-119 104 -207 267q-70 -61 -70 -146q0 -68 48.5 -112.5t116.5 -44.5q63 0 112 32zM248 558
q0 -47 36 -130q57 33 87 65t30 77q0 40 -18.5 68t-56.5 28q-34 0 -56 -29t-22 -79z" />
    <glyph glyph-name="quotesingle" unicode="'" horiz-adv-x="306" 
d="M135 421l-25 303h86l-25 -303h-36z" />
    <glyph glyph-name="parenleft" unicode="(" horiz-adv-x="352" 
d="M323 -211l-26 -30q-237 216 -237 504q0 149 61.5 263.5t174.5 217.5l26 -34q-181 -191 -181 -447q0 -137 47 -261.5t135 -212.5z" />
    <glyph glyph-name="parenright" unicode=")" horiz-adv-x="352" 
d="M56 -240l-26 29q88 88 135 212.5t47 261.5q0 256 -181 447l26 34q113 -103 174.5 -217.5t61.5 -263.5q0 -287 -237 -503z" />
    <glyph glyph-name="asterisk" unicode="*" horiz-adv-x="476" 
d="M260 546v-4q47 -24 121 -44q25 -6 25 -30q0 -16 -11.5 -30.5t-26.5 -14.5q-12 0 -22 12l-14 14q-44 50 -90 78q7 -67 27 -134q6 -19 -4.5 -30.5t-26.5 -11.5t-26 11.5t-6 31.5l6 26q15 66 17 106q-54 -35 -102 -91q-17 -14 -37 -1t-20 33q0 21 25 29h-1l14 4
q75 23 110 44q-59 25 -124 39q-23 3 -23 29q0 21 17 34t38 -3l15 -13v1q52 -50 89 -76q-9 64 -27 132q-6 20 4.5 32t27.5 12t28 -11.5t6 -33.5v1l-9 -33q-15 -47 -20 -98q52 33 106 88q12 13 23 13q12 0 21.5 -13.5t9.5 -29.5q0 -25 -21 -31l-28 -7q-62 -14 -91 -30z" />
    <glyph glyph-name="plus" unicode="+" horiz-adv-x="620" 
d="M570 230h-230v-230h-60v230h-230v60h230v230h60v-230h230v-60z" />
    <glyph glyph-name="comma" unicode="," horiz-adv-x="293" 
d="M66 60q0 30 20 48t54 18q38 0 64 -32t26 -81q0 -126 -124 -212q-7 10 -23 30q116 74 99 181q-33 -19 -56 -19q-25 0 -42.5 17.5t-17.5 49.5z" />
    <glyph glyph-name="hyphen" unicode="-" horiz-adv-x="318" 
d="M36 280h246v-66h-246v66z" />
    <glyph glyph-name="period" unicode="." horiz-adv-x="279" 
d="M75 57q0 29 19 49t46 20t46 -20t19 -49q0 -27 -19.5 -46.5t-45.5 -19.5q-27 0 -46 19t-19 47z" />
    <glyph glyph-name="slash" unicode="/" horiz-adv-x="460" 
d="M413 734l-300 -857h-66l301 857h65z" />
    <glyph glyph-name="zero" unicode="0" horiz-adv-x="602" 
d="M545 336q0 -168 -70 -258t-175 -90q-107 0 -174.5 84t-67.5 264q0 173 69.5 269t172.5 96q105 0 175 -95t70 -270zM446 336q0 174 -31 249.5t-115 75.5q-81 0 -111.5 -74.5t-30.5 -250.5q0 -174 28 -240.5t114 -66.5q87 0 116.5 67.5t29.5 239.5z" />
    <glyph glyph-name="one" unicode="1" horiz-adv-x="491" 
d="M80 613v38q114 7 197 39h33v-577q0 -44 30 -63.5t103 -19.5v-30h-359v30q77 4 108 20.5t31 62.5v485z" />
    <glyph glyph-name="two" unicode="2" horiz-adv-x="582" 
d="M171 102l4 -18h226q33 0 56.5 33t31.5 87h35l-30 -204h-432l-14 48q10 10 38 31q44 37 71.5 61t78.5 75.5t81.5 93t55 96.5t24.5 103q0 80 -40 116.5t-96 36.5q-100 0 -132 -82l61 -87q-2 -33 -19.5 -55t-44.5 -22q-31 0 -47 24.5t-16 64.5q0 88 62 142.5t147 54.5
q103 0 164 -51.5t61 -142.5q0 -36 -17.5 -76t-38 -69.5t-61.5 -71t-64 -61.5t-69 -59q-45 -39 -76 -68z" />
    <glyph glyph-name="three" unicode="3" horiz-adv-x="568" 
d="M320 380l5 -14q75 -8 128.5 -54.5t53.5 -128.5q0 -95 -80.5 -145t-190.5 -50q-82 0 -137 34.5t-55 98.5q0 36 15 58t42 22q26 0 40.5 -19.5t14.5 -54.5l1 1l-44 -68q34 -34 116 -34q75 0 127 36.5t52 124.5q0 71 -36 105.5t-97 34.5q-40 0 -90 -15q-2 7 -6.5 19t-6.5 18
q112 42 164 91t52 115q0 108 -122 108q-76 0 -120 -42l47 -83l-1 1q0 -25 -15.5 -41.5t-38.5 -16.5q-25 0 -41 22t-16 58q0 66 62.5 103t141.5 37q89 0 145.5 -40t56.5 -109q0 -53 -47.5 -97.5t-119.5 -74.5z" />
    <glyph glyph-name="four" unicode="4" horiz-adv-x="585" 
d="M43 211l-10 24l364 466q5 -1 14 -3t13 -2v-444h108v-41h-108v-77q0 -63 27.5 -83t79.5 -21v-30h-303v30q59 0 86 19.5t27 77.5v84h-298zM103 260l2 -8h233v291l-15 8z" />
    <glyph glyph-name="five" unicode="5" horiz-adv-x="574" 
d="M149 391l13 -9q74 47 151 47q81 0 141 -51t60 -145q0 -111 -79.5 -178t-199.5 -67q-66 0 -122 35.5t-56 97.5q0 34 16.5 55t45.5 21q25 0 40 -18t15 -47l1 1l-50 -73q34 -34 116 -34q85 0 129 58t44 142q0 148 -131 148q-88 0 -145 -64h-27l30 379q80 -24 178 -24
q103 0 173 29v-44l1 1q-70 -79 -223 -79q-52 0 -106 10z" />
    <glyph glyph-name="six" unicode="6" horiz-adv-x="606" 
d="M340 701q80 0 126.5 -37.5t46.5 -84.5q0 -70 -57 -70q-25 0 -41 18.5t-18 47.5l46 54q-32 37 -103 37q-43 0 -78 -31.5t-56.5 -81t-33 -104.5t-11.5 -107l15 -8q61 95 169 95q94 0 146.5 -55t52.5 -143q0 -114 -70.5 -178.5t-165.5 -64.5q-46 0 -86.5 17.5t-75.5 54
t-56 102t-21 152.5q0 162 79 274.5t192 112.5zM446 226q0 160 -121 160q-46 0 -91.5 -31.5t-72.5 -89.5q0 -120 36 -178t112 -58q137 0 137 197z" />
    <glyph glyph-name="seven" unicode="7" horiz-adv-x="554" 
d="M452 593l-14 15q-41 -27 -105 -27q-19 0 -61 8q-44 8 -68 8q-50 0 -79.5 -35t-37.5 -98h-26l34 232h27l7 -26q45 31 87 31q30 0 83 -21q50 -20 85 -20q71 0 136 44l26 -30q-61 -75 -100.5 -134t-75 -134t-52 -161.5t-16.5 -189.5q0 -17 -2 -28t-15.5 -22.5t-37.5 -11.5
q-63 0 -55 64q49 292 260 536z" />
    <glyph glyph-name="eight" unicode="8" horiz-adv-x="585" 
d="M377 375v-8q150 -50 150 -177q0 -92 -75.5 -147t-171.5 -55q-98 0 -159.5 44.5t-61.5 121.5q0 54 42.5 100.5t106.5 72.5v11q-62 26 -91.5 72.5t-29.5 97.5q0 81 62.5 137t155.5 56q88 0 141.5 -42.5t53.5 -110.5q0 -100 -123 -173zM422 539q0 53 -37.5 88t-95.5 35
q-60 0 -97 -34t-37 -82q0 -54 46.5 -94.5t130.5 -63.5q90 47 90 151zM450 166q0 105 -197 147q-53 -19 -87 -58t-33 -96q1 -62 45 -96t114 -34q66 0 112 36.5t46 100.5z" />
    <glyph glyph-name="nine" unicode="9" horiz-adv-x="606" 
d="M267 -12q-80 0 -126 33t-46 75q0 34 14.5 54.5t41.5 20.5q25 0 41.5 -19.5t16.5 -51.5l2 1l-47 -45q31 -33 103 -33q84 0 131 95.5t48 228.5l-16 8q-27 -43 -71 -69t-97 -26q-94 0 -147 60.5t-53 156.5q0 99 72 161.5t166 62.5q45 0 85.5 -17.5t75.5 -54t56 -102
t21 -152.5q0 -178 -77.5 -282.5t-193.5 -104.5zM161 472q0 -169 122 -169q44 0 89.5 32t73.5 89q0 120 -36 178.5t-112 58.5q-70 0 -103.5 -52t-33.5 -137z" />
    <glyph glyph-name="colon" unicode=":" horiz-adv-x="311" 
d="M91 377q0 29 18.5 49t45.5 20q26 0 45.5 -20.5t19.5 -48.5q0 -27 -19 -46.5t-46 -19.5t-45.5 19t-18.5 47zM91 57q0 29 18.5 49t45.5 20t46 -20t19 -49q0 -27 -19 -46.5t-46 -19.5t-45.5 19t-18.5 47z" />
    <glyph glyph-name="semicolon" unicode=";" horiz-adv-x="341" 
d="M99 377q0 29 18.5 49t45.5 20q26 0 45.5 -20.5t19.5 -48.5q0 -27 -19 -46.5t-46 -19.5t-45.5 19t-18.5 47zM90 60q0 30 19.5 48t53.5 18q38 0 64 -32t26 -81q0 -126 -124 -212l-12.5 17.5t-9.5 12.5q114 75 98 181q-33 -19 -56 -19q-25 0 -42 17.5t-17 49.5z" />
    <glyph glyph-name="less" unicode="&#x3c;" horiz-adv-x="594" 
d="M544 470l-428 -204l428 -204v-62l-494 235v62l494 235v-62z" />
    <glyph glyph-name="equal" unicode="=" horiz-adv-x="620" 
d="M570 310h-520v60h520v-60zM570 130h-520v60h520v-60z" />
    <glyph glyph-name="greater" unicode="&#x3e;" horiz-adv-x="594" 
d="M478 266l-428 204v62l494 -235v-62l-494 -235v62z" />
    <glyph glyph-name="question" unicode="?" horiz-adv-x="510" 
d="M151 417l8 4q58 -26 119 -26q57 0 91 37t34 95t-47.5 107t-122.5 49q-46 0 -67 -23l32 -64l-1 1q0 -21 -15.5 -35t-38.5 -14q-22 0 -37 16.5t-15 47.5q0 47 37 77.5t99 30.5q92 0 160.5 -62t68.5 -157q0 -86 -45 -141.5t-113 -55.5q-65 0 -105 29l-3 -116h-34
q-1 32 -3 100.5t-2 99.5zM108 57q0 29 18.5 49t45.5 20t46 -20t19 -49q0 -27 -19.5 -46.5t-45.5 -19.5q-27 0 -45.5 19t-18.5 47z" />
    <glyph glyph-name="at" unicode="@" horiz-adv-x="816" 
d="M706 390q0 28 -5 57t-19.5 62.5t-36.5 59t-59.5 42.5t-85.5 17q-98 0 -184.5 -73.5t-136 -187.5t-49.5 -232q0 -120 45 -180t127 -60q87 0 166 60l18 -35q-45 -35 -97 -54.5t-96 -19.5q-112 0 -170 76t-58 214q0 92 35 187.5t93 171.5t140.5 124.5t169.5 48.5
q121 0 192.5 -76.5t71.5 -201.5q0 -68 -21.5 -127.5t-54.5 -99.5t-72.5 -69t-76 -42.5t-64.5 -13.5q-33 0 -33 40q0 32 23 86l-19 14q-21 -30 -35.5 -48.5t-38 -43.5t-47.5 -37.5t-47 -12.5q-28 0 -42.5 24t-14.5 56q0 81 59 183q47 76 106.5 128t112.5 52q24 0 37 -28h15
q6 16 12.5 21.5t23.5 5.5q18 0 23.5 -3t3.5 -10l-108 -331q-5 -20 -1 -28t18 -8q18 0 47 20t59.5 55t52 93t21.5 124zM295 149q0 -28 7.5 -37t21.5 -9q35 0 97 79.5t105 183.5q9 74 -34 74q-31 0 -72 -37.5t-71 -86.5q-54 -102 -54 -167z" />
    <glyph glyph-name="A" unicode="A" horiz-adv-x="720" 
d="M505 78l-47 127h-256l-43 -125q-8 -25 12.5 -34.5t82.5 -9.5v-36h-233v36q41 1 64 14.5t36 48.5l223 602h14l244 -609q15 -33 34.5 -44t62.5 -12v-36h-280v36h23q53 0 63 6.5t0 35.5zM334 531h-17l-100 -283h224z" />
    <glyph glyph-name="B" unicode="B" horiz-adv-x="657" 
d="M429 365v-7q178 -20 178 -176q0 -90 -64.5 -136t-161.5 -46h-348v36q62 0 82.5 14t20.5 68v448q0 63 -17 76.5t-86 13.5v35h324q92 0 147.5 -41t55.5 -121q0 -57 -33 -102t-98 -62zM462 526q0 130 -154 130h-78v-282h106q58 0 92 41t34 111zM505 186q0 77 -41.5 114
t-127.5 37h-106v-301h100q85 0 130 34t45 116z" />
    <glyph glyph-name="C" unicode="C" horiz-adv-x="684" 
d="M559 656l10 2q4 5 11.5 16.5t11.5 16.5h24l4 -258h-33q-15 92 -66 159.5t-137 67.5q-105 0 -162.5 -87t-57.5 -230q0 -313 225 -313q159 0 202 192h37q-4 -29 -11.5 -89.5t-11.5 -89.5q-39 -24 -98.5 -39.5t-119.5 -15.5q-151 0 -241 96.5t-90 260.5q0 147 100.5 251.5
t231.5 104.5q106 0 171 -45z" />
    <glyph glyph-name="D" unicode="D" horiz-adv-x="761" 
d="M705 345q0 -51 -13 -100t-41.5 -93.5t-70 -78t-103 -53.5t-135.5 -20h-309v36q37 1 54 2t30 5t16 10t3 19v551q0 23 -16 28t-87 5v35h307q80 0 144.5 -22t105 -57t67 -82t37.5 -92.5t11 -92.5zM595 344q0 67 -15 121.5t-47 98.5t-88 68t-133 24h-82v-620h110q69 0 120 27
t79.5 72.5t42 98t13.5 110.5z" />
    <glyph glyph-name="E" unicode="E" horiz-adv-x="661" 
d="M618 244l-13 -244h-572v36q67 0 85 5t18 26v556q0 22 -18 27.5t-85 5.5v35h541q2 -36 6 -107t5 -107h-29q-18 102 -49.5 140.5t-103.5 38.5h-173v-297h80q105 0 105 138h26v-310h-26q0 82 -22 107.5t-89 25.5h-74v-284h197q74 0 116.5 64t42.5 144h32z" />
    <glyph glyph-name="F" unicode="F" horiz-adv-x="597" 
d="M576 457h-29q-13 96 -54 147.5t-123 51.5h-139v-297h85q90 0 90 138h26v-310h-26q0 69 -19.5 101t-70.5 32h-85v-212q1 -46 23.5 -59t88.5 -13v-36h-309v36q71 0 87 11.5t16 61.5v466q0 52 -20.5 66.5t-82.5 14.5v35h535z" />
    <glyph glyph-name="G" unicode="G" horiz-adv-x="727" 
d="M627 226v-232h-17l-55 88q-67 -94 -187 -94q-58 0 -112 20.5t-99.5 61.5t-73 111.5t-27.5 160.5q0 162 93 260.5t220 98.5q113 0 185 -46h13l20 31h22l4 -239h-28q-20 84 -75.5 148.5t-136.5 64.5q-58 0 -99.5 -23t-65 -67t-34 -100.5t-10.5 -129.5q0 -147 57 -229
t158 -82q103 0 153 99v97q0 43 -17 53.5t-79 10.5v30h273v-30q-56 0 -68.5 -10t-13.5 -53z" />
    <glyph glyph-name="H" unicode="H" horiz-adv-x="799" 
d="M766 0h-301v36q68 3 85.5 10.5t17.5 40.5v247h-338v-247q0 -33 20 -42t83 -9v-36h-300v36q62 0 82.5 9t20.5 42v517q0 32 -24 42t-79 10v35h300v-35q-60 0 -81.5 -9t-21.5 -43v-227h338v227q0 34 -20.5 43t-82.5 9v35h301v-35q-65 0 -84.5 -9t-19.5 -43v-517
q0 -34 18.5 -42.5t85.5 -8.5v-36z" />
    <glyph glyph-name="I" unicode="I" horiz-adv-x="379" 
d="M340 691v-35q-67 0 -85.5 -7.5t-18.5 -34.5v-532q0 -32 16 -39t88 -7v-36h-301v36q67 0 85 8t18 38v532q0 29 -17 35.5t-86 6.5v35h301z" />
    <glyph glyph-name="J" unicode="J" horiz-adv-x="543" 
d="M522 691v-35q-64 0 -84 -15.5t-20 -74.5v-372q0 -61 -20 -104.5t-53 -64t-64.5 -29t-66.5 -8.5q-74 0 -125.5 38.5t-51.5 115.5q0 40 20 67t50 27q26 0 43.5 -22t18.5 -65l-82 -49q5 -36 36.5 -56.5t82.5 -20.5q62 0 90.5 39t28.5 126v377q0 61 -19 76t-84 15v35h300z
" />
    <glyph glyph-name="K" unicode="K" horiz-adv-x="723" 
d="M514 574l-153 -168l256 -317q23 -30 41 -41t52 -12v-36h-270v36q66 3 66 21q0 10 -15 30l-195 248l-66 -72v-149q0 -51 19 -64.5t81 -13.5v-36h-297v36q70 0 86.5 13t16.5 65v467q0 52 -19 63.5t-84 11.5v35h300v-35q-65 0 -84 -12.5t-19 -62.5v-253h12l233 257h-1
q22 21 22 36t-17 24.5t-44 9.5v36h248v-36q-97 -10 -169 -81z" />
    <glyph glyph-name="L" unicode="L" horiz-adv-x="602" 
d="M571 239l-13 -239h-524v36q61 0 82 8t21 38v533q0 27 -17.5 34t-85.5 7v35h311v-35q-81 0 -97.5 -6t-16.5 -34v-580h138q77 0 121 54t44 149h37z" />
    <glyph glyph-name="M" unicode="M" horiz-adv-x="884" 
d="M186 546h-15v-425q0 -38 28 -60.5t73 -24.5v-36h-239v36q43 2 73 25t30 58v492q-15 25 -38 35t-65 10v35h196l208 -518h14q20 50 213 518h186v-35q-66 -1 -85.5 -15t-19.5 -57v-459q0 -61 18.5 -75t82.5 -14v-36h-293v36q65 0 82.5 15t17.5 74v411h-14
q-36 -89 -113 -271.5t-113 -271.5h-10z" />
    <glyph glyph-name="N" unicode="N" horiz-adv-x="752" 
d="M176 556h-12v-465q0 -34 27.5 -44.5t92.5 -10.5v-36h-253v36q51 0 75 11t24 44v511q-44 53 -104 54v35h166l398 -511h12v424q0 52 -121 52v35h245v-35q-51 -1 -70.5 -13t-19.5 -39v-614h-19z" />
    <glyph glyph-name="O" unicode="O" horiz-adv-x="751" 
d="M695 345q0 -151 -94.5 -254t-224.5 -103q-136 0 -228 100t-92 257q0 158 92 257t228 99q131 0 225 -100.5t94 -255.5zM586 345q0 72 -10.5 127.5t-34 99t-65.5 66t-100 22.5q-115 0 -163 -80.5t-48 -234.5q0 -152 48.5 -233.5t162.5 -81.5q105 0 157.5 84t52.5 231z" />
    <glyph glyph-name="P" unicode="P" horiz-adv-x="613" 
d="M570 509q0 -98 -72.5 -146t-171.5 -48h-95v-190q0 -59 17 -74t92 -15v-36h-306v36q70 0 86.5 14.5t16.5 74.5v466q0 45 -18.5 55t-84.5 10v35h301q35 0 67 -5t63 -18t54 -33t37 -52.5t14 -73.5zM231 656v-301h84q70 0 112 35.5t42 106.5q0 78 -43.5 118.5t-114.5 40.5
h-80z" />
    <glyph glyph-name="Q" unicode="Q" horiz-adv-x="751" 
d="M695 345q0 -106 -46.5 -192t-122.5 -130q9 -93 28 -129.5t47 -36.5q29 0 44 27.5t15 95.5h26q-1 -83 -30.5 -129.5t-80.5 -46.5q-118 0 -135 188q-20 -4 -39 -4q-147 0 -246 100t-99 257q0 158 92 257t228 99q131 0 225 -100.5t94 -255.5zM588 345q0 150 -49 232.5
t-163 82.5q-116 0 -165 -80.5t-49 -234.5q0 -222 129 -295q-21 39 -21 76q0 49 26.5 87t75.5 38q52 0 90 -43.5t56 -127.5q70 92 70 265zM370 220q-31 0 -45.5 -28.5t-14.5 -66.5q0 -46 25 -88q31 -7 66 -7q21 0 37 3v21q0 76 -17.5 121t-50.5 45z" />
    <glyph glyph-name="R" unicode="R" horiz-adv-x="683" 
d="M403 357v-10q73 -10 112.5 -51t50.5 -146q11 -75 32.5 -98.5t71.5 -24.5v-34q-120 1 -164 37t-44 128q0 103 -43 141.5t-127 38.5h-62v-251q0 -34 19 -42.5t88 -8.5v-36h-304v36q65 2 84 10.5t19 40.5v531q0 25 -18 31.5t-85 6.5v35h316q97 0 155.5 -40.5t58.5 -119.5
q0 -77 -46.5 -119.5t-113.5 -54.5zM467 526q0 69 -37.5 99.5t-113.5 30.5h-86v-281h95q142 0 142 151z" />
    <glyph glyph-name="S" unicode="S" horiz-adv-x="586" 
d="M129 57l-10 -1l-14 -56h-35l-7 276h30q24 -128 78 -188.5t152 -60.5q71 0 109.5 34t38.5 82q0 53 -45 92t-175 78q-190 60 -190 207q0 82 56 131.5t134 49.5q92 0 178 -64l12 2l17 56h29q0 -43 1 -127.5t1 -127.5h-26q-32 115 -83.5 169t-127.5 54q-56 0 -88.5 -35
t-32.5 -81q0 -48 49 -85.5t161 -72.5q108 -33 152 -82.5t44 -126.5q0 -83 -59.5 -137.5t-152.5 -54.5q-119 0 -196 69z" />
    <glyph glyph-name="T" unicode="T" horiz-adv-x="644" 
d="M613 443h-29q0 98 -40 155.5t-112 57.5h-62v-579q-1 -28 20 -34.5t83 -6.5v-36h-302v36q55 0 79.5 7.5t24.5 28.5v584h-46q-71 0 -119.5 -58.5t-48.5 -154.5h-30v248h582v-248z" />
    <glyph glyph-name="U" unicode="U" horiz-adv-x="748" 
d="M723 691v-35q-54 0 -75.5 -10.5t-21.5 -34.5v-330q0 -145 -57.5 -219t-194.5 -74q-254 0 -254 236v390q0 29 -14.5 35.5t-80.5 6.5v35h288v-35q-64 0 -81 -7t-17 -35v-390q0 -97 47.5 -146.5t125.5 -49.5q50 0 87 15t57.5 38t32.5 58.5t15.5 67.5t3.5 74v330
q0 24 -25.5 34.5t-91.5 10.5v35h256z" />
    <glyph glyph-name="V" unicode="V" horiz-adv-x="708" 
d="M383 155h14l151 388q10 24 10 48q0 65 -92 65v35h224v-35q-39 -2 -58.5 -27t-45.5 -86q-42 -109 -124.5 -319t-94.5 -240h-18l-232 594q-19 48 -35.5 62.5t-63.5 15.5v35h258v-35q-70 -1 -70 -33q0 -14 14 -47z" />
    <glyph glyph-name="W" unicode="W" horiz-adv-x="977" 
d="M683 176h15l120 367q9 31 9 48q0 68 -93 65v35h226v-35q-41 -1 -62.5 -26t-42.5 -87q-18 -55 -185 -559h-17l-152 459q-28 -77 -88 -238t-82 -221h-15l-197 594q-18 45 -39.5 61t-62.5 17v35h261v-35q-39 1 -53.5 -7.5t-14.5 -28.5q0 -15 9 -44l129 -400h16l120 319
l-27 83q-17 50 -34 64t-67 14v35h260v-35q-39 0 -54 -6.5t-15 -22.5q0 -12 7 -38l5 -15z" />
    <glyph glyph-name="X" unicode="X" horiz-adv-x="716" 
d="M698 0h-307v37q74 1 74 32q0 18 -20 50l-113 178q-45 -61 -134 -178q-17 -20 -17 -39q0 -41 73 -44v-36h-236v36q35 2 69 24t53 50l171 223l-152 241q-27 45 -55 63t-76 19v35h293v-35q-70 -1 -70 -34q0 -15 19 -46l108 -175l118 169q26 34 26 52q0 33 -80 34v35h246v-35
q-85 -4 -130 -69l-158 -222l147 -234q35 -51 69 -72.5t82 -22.5v-36z" />
    <glyph glyph-name="Y" unicode="Y" horiz-adv-x="684" 
d="M666 691v-35q-70 -3 -118 -81l-146 -266v-184q0 -60 19.5 -74.5t84.5 -14.5v-36h-300v36q71 0 86.5 14t15.5 75v180l-159 260q-40 57 -61.5 73.5t-69.5 17.5v35h285v-35q-78 -2 -78 -31q0 -12 18 -41l141 -232l128 231q10 17 10 32q0 38 -61 41v35h205z" />
    <glyph glyph-name="Z" unicode="Z" horiz-adv-x="636" 
d="M35 0v21l-1 -1l431 630l-5 6h-206q-66 0 -112 -63.5t-52 -148.5h-32l10 247h529v-19l1 1l-435 -629l2 -6h214q71 0 120 63.5t61 167.5h32l-19 -269h-538z" />
    <glyph glyph-name="bracketleft" unicode="[" horiz-adv-x="335" 
d="M301 737v-44q-35 -7 -95 -7q-32 0 -56 4v-863q18 2 40 2q70 0 117 -6v-47q-42 6 -116 6q-58 0 -110 -5v959q53 -5 117 -5q67 0 103 6z" />
    <glyph glyph-name="backslash" unicode="\" horiz-adv-x="460" 
d="M348 -123l-301 857h66l300 -857h-65z" />
    <glyph glyph-name="bracketright" unicode="]" horiz-adv-x="335" 
d="M35 693v44q36 -6 103 -6q63 0 116 5v-959q-50 5 -109 5q-74 0 -116 -6v47q47 6 117 6q22 0 40 -2v863q-23 -4 -56 -4q-51 0 -95 7z" />
    <glyph glyph-name="asciicircum" unicode="^" horiz-adv-x="544" 
d="M289 691l220 -376l-57 -31l-173 302v3h-8v-2l-178 -303l-54 31l221 376h29z" />
    <glyph glyph-name="underscore" unicode="_" horiz-adv-x="604" 
d="M0 -195h604v-48h-604v48z" />
    <glyph glyph-name="grave" unicode="`" horiz-adv-x="500" 
d="M306 507v-6h-43l-129 162l1 -1v8h85l87 -164z" />
    <glyph glyph-name="a" unicode="a" horiz-adv-x="492" 
d="M427 57l47 -4q-1 -31 -22 -48t-45 -17q-69 0 -78 67h-15q-70 -67 -145 -67q-58 0 -91 33.5t-33 89.5q0 31 12.5 54.5t38 39t47.5 24t58 18.5l115 33v72q0 51 -25 76.5t-59 25.5q-56 0 -86 -20l11 -94q-19 -15 -46 -15q-47 0 -47 47q0 53 49.5 85.5t137.5 32.5
q146 0 146 -142v-263q0 -18 7 -22.5t23 -5.5zM316 91v155l-106 -33q-40 -12 -60 -34.5t-20 -63.5q0 -36 20 -55.5t50 -19.5q34 0 65.5 15.5t50.5 35.5z" />
    <glyph glyph-name="b" unicode="b" horiz-adv-x="525" 
d="M144 47l-47 -55h-21l8 233v276l-3 132q-2 36 -22 52t-65 17v30l149 10h29l-5 -207v-104h16q52 59 126 59q78 0 127 -66t49 -184q0 -108 -61 -179t-150 -71q-67 0 -115 57h-15zM167 369v-279q14 -24 40.5 -39.5t58.5 -15.5q56 0 91.5 46t35.5 154q0 111 -34 160t-82 49
q-63 0 -110 -75z" />
    <glyph glyph-name="c" unicode="c" horiz-adv-x="472" 
d="M414 147l27 -9q-20 -67 -66 -107.5t-112 -40.5q-94 0 -158 62t-64 183q0 110 65.5 182.5t156.5 72.5q66 0 114.5 -35t48.5 -88q0 -35 -14.5 -53.5t-37.5 -18.5q-27 0 -41.5 19.5t-13.5 48.5l-1 -1l28 46q-14 44 -76 44q-61 0 -99 -48t-38 -155q0 -108 42.5 -158
t108.5 -50q48 0 82 30t48 76z" />
    <glyph glyph-name="d" unicode="d" horiz-adv-x="536" 
d="M235 -10q-94 0 -144.5 62.5t-50.5 180.5q0 123 60.5 190t139.5 67q35 0 55.5 -8t44.5 -29h16v180q0 39 -18 54t-69 15v30l145 10h32l-5 -214v-451q0 -22 15.5 -28.5t64.5 -6.5v-34l-130 -13h-18l-13 62h-16q-52 -67 -109 -67zM356 114v260q-18 40 -42.5 55.5t-64.5 15.5
q-57 0 -87 -45.5t-30 -158.5q0 -205 115 -205q36 0 65 20.5t44 57.5z" />
    <glyph glyph-name="e" unicode="e" horiz-adv-x="475" 
d="M414 151l26 -9q-21 -70 -70 -111t-122 -41q-90 0 -148.5 63t-58.5 181q0 112 58.5 184t147.5 72q79 0 129 -54.5t56 -151.5v-24h-298q-1 -12 -1 -25q0 -106 34 -152.5t102 -46.5q58 0 94 32t51 83zM344 297v19q-9 131 -99 131q-50 0 -76.5 -35.5t-31.5 -114.5h207z" />
    <glyph glyph-name="f" unicode="f" horiz-adv-x="350" 
d="M319 641v79q-72 0 -100 -42.5t-34 -133.5v-74h123v-46h-123v-365q0 -22 17 -23q12 0 37.5 -2t37.5 -3v-31h-251v31l22 5q29 6 41 17.5t12 39.5v331h-75v46h75v48q9 106 65 170t144 64q48 0 76.5 -23t28.5 -61q0 -25 -12.5 -41t-31.5 -16q-37 0 -53 31z" />
    <glyph glyph-name="g" unicode="g" horiz-adv-x="518" 
d="M374 438l69 62q9 -3 26.5 -7.5t27.5 -7.5v-67h-104l-9 -11q26 -41 26 -86q0 -74 -48.5 -114.5t-123.5 -40.5q-110 0 -110 -54q0 -22 16 -31.5t57 -11.5q28 -1 84.5 -4t84.5 -4q111 -6 111 -116q0 -70 -69 -121t-178 -51q-89 0 -146 31.5t-57 87.5q0 38 25.5 68.5
t69.5 43.5v13q-60 27 -60 82q0 27 21.5 49.5t66.5 33.5v9q-48 24 -71.5 53.5t-23.5 76.5q0 78 50.5 123.5t127.5 45.5q36 0 73.5 -14.5t63.5 -37.5zM326 318q0 71 -22.5 102t-69.5 31q-91 0 -91 -133q0 -115 91 -115q49 0 70.5 24.5t21.5 90.5zM420 -84q0 30 -19 46.5
t-68 18.5l-187 8q-16 -11 -25.5 -19t-20 -28t-10.5 -45q0 -43 41 -66t107 -23q83 0 132.5 31t49.5 77z" />
    <glyph glyph-name="h" unicode="h" horiz-adv-x="555" 
d="M179 433h22q67 57 128 57q60 0 99 -37t39 -119v-289l5 -9q9 0 31 -2t32 -3v-31h-210v31l27 5q32 5 32 25l-1 319q0 61 -80 61q-69 0 -124 -59v-338q0 -6 1.5 -7t8.5 -1q9 0 28.5 -2t29.5 -3v-31h-222v31l37 5q18 2 25.5 8.5t7.5 24.5v428l-3 135q-3 69 -87 70v31l129 9
h51l-6 -188v-121z" />
    <glyph glyph-name="i" unicode="i" horiz-adv-x="296" 
d="M196 52q0 -16 10 -16t29.5 -2t28.5 -3v-31h-224v31l31 5q41 5 41 48v293q0 40 -18 51.5t-67 11.5v31l135 9h34v-428zM87 681q0 26 16.5 44t41.5 18t42.5 -18t17.5 -44q0 -25 -17.5 -42.5t-42.5 -17.5t-41.5 17.5t-16.5 42.5z" />
    <glyph glyph-name="j" unicode="j" horiz-adv-x="306" 
d="M102 681q0 26 16.5 44t41.5 18t42.5 -18t17.5 -44q0 -25 -17.5 -42.5t-42.5 -17.5t-41.5 17.5t-16.5 42.5zM127 -117v499q-1 40 -18.5 51.5t-66.5 11.5v26l135 9h34v-517q0 -100 -40 -145t-102 -45q-47 0 -79 23t-32 57q0 32 14.5 49t34.5 17q15 0 32 -11l-6 -96
q12 -12 33 -12q27 0 44 23.5t17 59.5z" />
    <glyph glyph-name="k" unicode="k" horiz-adv-x="548" 
d="M366 376l-81 -80l176 -232q10 -15 17 -19.5t28 -8.5q5 0 16.5 -2t17.5 -3v-31h-141l-169 236h-35v-180q0 -17 30 -20l44 -5v-31h-233v31l32 5q43 5 43 57v423l-3 122q-2 36 -20.5 50t-67.5 14v30l151 10h29l-5 -223v-243h37l97 112q27 30 27 46q0 19 -37 22v24h183v-35
q-70 -14 -136 -69z" />
    <glyph glyph-name="l" unicode="l" horiz-adv-x="306" 
d="M201 524v-472q0 -7 5 -11.5t11 -4.5q10 0 29 -2t28 -3v-31h-232v31l34 5q41 5 41 48v453q-1 17 -3 51.5t-2 50.5q0 40 -19 51.5t-71 11.5v31l145 9h39z" />
    <glyph glyph-name="m" unicode="m" horiz-adv-x="825" 
d="M449 419h16q61 71 141 71q56 0 93.5 -35t37.5 -111v-293q0 -15 15 -15q9 0 27.5 -2t27.5 -3v-31h-212v31l21 5q38 6 38 45v281q0 38 -19.5 58.5t-53.5 20.5q-59 0 -123 -62v-328q0 -9 3 -12t11 -3q10 0 28 -2l27 -3v-31h-212v31l26 5q34 7 34 40v286q0 79 -72 79
q-58 0 -123 -60v-325q0 -20 18 -20q10 0 27.5 -2t27.5 -3v-31h-229v31l23 5q49 7 49 52v274q0 46 -16.5 61.5t-60.5 16.5v32l117 8h26l2 -58h23q59 68 140 68q39 0 73 -18.5t49 -52.5z" />
    <glyph glyph-name="n" unicode="n" horiz-adv-x="555" 
d="M164 423h22q36 35 67 51t79 16q56 0 95.5 -37.5t39.5 -118.5v-289q0 -9 10 -9q9 0 29 -2t29 -3v-31h-210v31l27 5q18 3 25 8.5t7 16.5v314q0 66 -76 66q-40 0 -68 -14.5t-61 -45.5v-337q0 -6 1.5 -7t8.5 -1q9 0 28.5 -2t29.5 -3v-31h-222v31l37 5q18 2 25.5 8.5t7.5 24.5
v301q0 36 -16.5 52.5t-58.5 17.5v31l104 9h36z" />
    <glyph glyph-name="o" unicode="o" horiz-adv-x="519" 
d="M40 239q0 110 63.5 180.5t156.5 70.5q92 0 155.5 -70t63.5 -181q0 -117 -62.5 -183t-156.5 -66q-95 0 -157.5 66t-62.5 183zM132 240q0 -213 128 -213q29 0 49 7t39.5 28t29 65.5t9.5 112.5q0 123 -34 168t-93 45q-28 0 -49 -8t-40 -29.5t-29 -65.5t-10 -110z" />
    <glyph glyph-name="p" unicode="p" horiz-adv-x="525" 
d="M160 39v-197q0 -20 28 -23q9 -1 26.5 -3t26.5 -2v-31h-220v31l18 5q24 6 34.5 16t10.5 30v497q0 51 -13 64.5t-58 13.5v31l119 9h28v-54h15q54 64 114 64q95 0 145.5 -67t50.5 -178q0 -120 -59 -187t-137 -67q-77 0 -114 48h-15zM277 444q-66 0 -117 -86v-242
q36 -80 109 -80q123 0 123 199q0 209 -115 209z" />
    <glyph glyph-name="q" unicode="q" horiz-adv-x="518" 
d="M262 37q37 0 65 20.5t42 55.5v252q-32 82 -105 82q-56 0 -94 -53.5t-38 -152.5t37.5 -151.5t92.5 -52.5zM369 46h-19q-40 -55 -115 -55q-89 0 -142 59.5t-53 182.5q0 70 19 122t51 80t68.5 41.5t76.5 13.5q41 0 71.5 -19t43.5 -43h14q8 9 27 28.5t27 28.5h14v-617
q0 -39 40 -49q4 -1 11.5 -3t11.5 -2v-31h-223v31l38 5q39 6 39 27v200z" />
    <glyph glyph-name="r" unicode="r" horiz-adv-x="381" 
d="M302 360l-41 62q-50 -8 -81 -65v-308q0 -13 13 -13q12 0 36.5 -2t35.5 -3v-31h-239v31l25 5q45 5 45 49v292q0 30 -17 42t-58 13v40l112 8h19l3 -73h28q50 83 120 83q25 0 43 -15.5t18 -48.5q0 -27 -18.5 -46t-43.5 -20z" />
    <glyph glyph-name="s" unicode="s" horiz-adv-x="444" 
d="M67 -9v196h24q12 -80 54.5 -121t105.5 -41q44 0 71 20.5t27 57.5q0 39 -31 62t-125 47q-135 38 -135 152q0 53 40 89.5t105 36.5q35 0 70.5 -11t56.5 -27l27 36h14v-177h-22q-33 142 -150 142q-42 0 -66 -17.5t-24 -46.5q0 -35 33 -59.5t123 -48.5q75 -20 107.5 -56.5
t32.5 -93.5q0 -61 -42 -101t-116 -40q-40 0 -80 13t-62 27q-3 -6 -11.5 -20.5t-10.5 -18.5h-16z" />
    <glyph glyph-name="t" unicode="t" horiz-adv-x="359" 
d="M95 424h-78v42q58 1 88 52t30 140h43v-188h141v-46h-141v-313q0 -77 56 -77q9 0 18.5 4t22 15t20 38t7.5 66h23q0 -99 -34 -134t-90 -35q-106 0 -106 123v313z" />
    <glyph glyph-name="u" unicode="u" horiz-adv-x="555" 
d="M386 61h-22q-63 -71 -140 -71q-57 0 -96 38.5t-39 122.5v259q0 18 -20 20q-9 1 -25 3t-24 2v35l152 10v-365q0 -71 71 -71q68 0 134 63v304q0 6 -0.5 9.5t-3.5 5.5t-5 2.5t-9 1.5q-9 0 -25.5 2t-24.5 3v35l152 10v-372q0 -48 11.5 -59t62.5 -11v-32l-109 -11h-36z" />
    <glyph glyph-name="v" unicode="v" horiz-adv-x="528" 
d="M278 -14h-19l-157 374q-18 44 -42.5 65t-64.5 26v29h242v-29q-65 -6 -65 -37q0 -16 17 -58l93 -220h17l90 217q12 25 12 47q0 40 -69 51v29h201v-30q-68 -11 -101 -91q-16 -38 -71 -171t-83 -202z" />
    <glyph glyph-name="w" unicode="w" horiz-adv-x="767" 
d="M517 -5l-127 312l-130 -312h-18q-22 53 -74.5 177.5t-78.5 186.5q-19 46 -40 67t-55 25v29h218v-29q-60 -7 -60 -32q0 -11 22 -62l99 -229h16l86 214l-15 40q-16 35 -36 49.5t-64 19.5v29h242v-29q-37 -3 -52.5 -10t-15.5 -23t19 -61l90 -229h14l85 227q7 21 7 35
q0 53 -77 61v29h201v-30q-68 -13 -100 -97l-138 -358h-18z" />
    <glyph glyph-name="x" unicode="x" horiz-adv-x="512" 
d="M209 372l55 -77l51 73q27 38 27 57q0 23 -53 26v29h187v-29q-19 -1 -33.5 -5.5t-21.5 -6.5t-19.5 -15.5t-15 -16.5t-20.5 -26l-81 -114q76 -100 118 -159q27 -37 48 -53.5t48 -22.5v-32h-229v31q59 8 59 33q0 14 -22 44l-68 94l-62 -86q-25 -40 -25 -55q0 -22 53 -30v-31
h-190v32q39 7 64 21t47 48l92 130l-103 143q-35 48 -52 60.5t-50 16.5v29h227v-29q-57 -5 -57 -27q0 -17 26 -52z" />
    <glyph glyph-name="y" unicode="y" horiz-adv-x="524" 
d="M294 104h15l86 241q11 31 11 54q0 49 -75 57v24h198v-25q-61 -12 -90 -87q-165 -438 -186 -492q-43 -103 -125 -103q-43 0 -65 24.5t-22 57.5q0 28 14.5 43t36.5 15q20 0 31 -15l-1 1v-90q68 0 102 80l33 104l-157 376q-21 40 -45 61t-60 26v24h242v-24q-21 -2 -34 -5.5
t-22.5 -12t-9.5 -21.5q0 -16 12 -40z" />
    <glyph glyph-name="z" unicode="z" horiz-adv-x="484" 
d="M154 45v-6h139q48 0 80.5 48.5t48.5 117.5h24q-2 -35 -7 -102.5t-7 -102.5h-395v16l-1 -1l287 421v9h-100q-112 0 -143 -158h-26l13 193h373v-15l1 1z" />
    <glyph glyph-name="braceleft" unicode="{" horiz-adv-x="435" 
d="M142 284v-18q63 -10 107.5 -52t44.5 -104q0 -27 -20 -89q-26 -76 -26 -116q0 -93 157 -96v-38q-131 1 -180 35.5t-49 109.5q0 37 22 105q21 67 21 97q0 58 -43.5 89.5t-115.5 33.5v63q68 1 113.5 36.5t45.5 82.5q0 35 -21 96q-20 58 -20 91q0 70 49.5 99t171.5 29v-38
q-151 -2 -151 -81q0 -39 26 -111q20 -54 20 -80q0 -53 -44 -92t-108 -52z" />
    <glyph glyph-name="bar" unicode="|" horiz-adv-x="544" 
d="M241 -234v985h66v-985h-66z" />
    <glyph glyph-name="braceright" unicode="}" horiz-adv-x="435" 
d="M294 266v18q-64 13 -108 52t-44 92q0 26 20 80q25 69 25 111q0 81 -151 81v38q122 0 171.5 -29t49.5 -99q0 -33 -20 -91q-21 -61 -21 -96q0 -47 46 -82.5t113 -36.5v-63q-71 -2 -115 -33.5t-44 -89.5q0 -30 21 -97q23 -71 23 -105q0 -75 -49 -109.5t-181 -35.5v38
q157 3 157 96q0 43 -25 116q-20 60 -20 89q0 62 44.5 104t107.5 52z" />
    <glyph glyph-name="asciitilde" unicode="~" horiz-adv-x="544" 
d="M475 368l35 -13q-19 -59 -62 -104.5t-82 -45.5q-26 0 -106 38q-86 42 -107 42t-38 -21t-38 -63l-39 15q17 50 60.5 101t70.5 51q30 0 110 -39q76 -42 108 -42q24 0 50.5 26t37.5 55z" />
    <glyph glyph-name="uni00A0" unicode="&#xa0;" horiz-adv-x="230" 
 />
    <glyph glyph-name="exclamdown" unicode="&#xa1;" horiz-adv-x="359" 
d="M126 -136q1 7 3 22t3 21q29 211 30 356h34q0 -116 12.5 -227t26.5 -172q7 -40 -6.5 -72t-50.5 -32q-55 0 -55 67q0 19 3 37zM244 422q0 -29 -18.5 -48.5t-45.5 -19.5q-26 0 -45.5 20t-19.5 48t19 47.5t46 19.5t45.5 -19.5t18.5 -47.5z" />
    <glyph glyph-name="cent" unicode="&#xa2;" horiz-adv-x="433" 
d="M378 276l22 -9q-17 -58 -57 -93.5t-98 -36.5v-97h-28v98q-74 10 -121 63.5t-47 150.5q0 86 48 147.5t120 74.5v92h28v-90q58 -2 100 -32.5t42 -75.5q0 -63 -45 -63q-23 0 -36 17.5t-12 42.5l-1 -1l25 41q-13 38 -73 38v-362h19q42 0 72 27t42 68zM129 364q0 -139 88 -177
v352q-88 -31 -88 -175z" />
    <glyph glyph-name="sterling" unicode="&#xa3;" horiz-adv-x="592" 
d="M81 376h81q-31 75 -31 121q0 86 56 132.5t131 46.5q79 0 123.5 -38t44.5 -76q0 -23 -11.5 -36t-26.5 -13q-18 0 -29.5 14.5t-23.5 42.5q-10 23 -16.5 35t-23 24t-38.5 12q-39 0 -66 -31.5t-27 -92.5q0 -41 25 -106l14 -35h150v-42h-139q4 -26 4 -44q0 -108 -55 -163
l11 -18q28 20 54 20q25 0 43.5 -12.5t43.5 -37.5q2 -2 6 -5q37 -35 62 -38q5 -1 10 -1q19 0 31 10t12 28q0 15 -21 34q-20 20 -20 40q0 15 9 26t24 11q51 0 51 -77q0 -58 -37 -88.5t-87 -30.5q-67 0 -127.5 30t-87.5 64h-11q-50 -94 -102 -94q-25 0 -25 23q0 30 35 55.5
t84 41.5q20 51 20 123q0 43 -22 103h-98v42z" />
    <glyph glyph-name="currency" unicode="&#xa4;" horiz-adv-x="628" 
d="M92 271q0 68 41 126v7l-46 44q-11 12 -2 28.5t25.5 22t28.5 -2.5l46 -48q60 42 131 42q75 0 128 -39v1l44 46q13 9 30 1t28.5 -26.5t1.5 -28.5l-46 -43v-7q38 -57 38 -123q0 -68 -42 -129v-7l49 -47q11 -11 1.5 -28t-25.5 -23.5t-28 3.5v1l-51 50q-57 -39 -128 -39
q-70 0 -126 35l-42 -44v-1q-11 -12 -31.5 -4.5t-29.5 23.5t1 29l45 44v7q-41 56 -41 130zM158 270q0 -74 44 -121.5t115 -47.5q66 0 110.5 48t44.5 121q0 74 -44.5 121.5t-111.5 47.5q-73 0 -115.5 -48t-42.5 -121z" />
    <glyph glyph-name="yen" unicode="&#xa5;" horiz-adv-x="610" 
d="M602 635v-33q-65 -1 -107 -73l-125 -228h130v-43h-139v-59h139v-42h-139v-42q0 -55 18 -68.5t78 -13.5v-33h-275v33q66 0 80 12.5t14 69.5v42h-143v42h143v59h-143v43h130l-134 218q-37 52 -57 67t-63 16v33h261v-33q-72 -2 -72 -28q0 -14 17 -37l130 -214l117 213
q9 15 9 29q0 34 -57 37v33h188z" />
    <glyph glyph-name="brokenbar" unicode="&#xa6;" horiz-adv-x="544" 
d="M307 408h-66v343h66v-343zM241 109h66v-343h-66v343z" />
    <glyph glyph-name="section" unicode="&#xa7;" horiz-adv-x="499" 
d="M66 476q0 109 67 173t150 64q40 0 70.5 -19.5t30.5 -54.5q0 -19 -11.5 -30.5t-31.5 -11.5q-4 0 -8 1t-8 3t-6.5 3.5t-6.5 5.5t-6 5.5t-6.5 6.5t-5.5 6q-26 32 -59 32q-24 0 -39 -22t-15 -51q0 -27 16.5 -62.5t33 -59t53.5 -73.5q34 -45 54 -74t45.5 -74t38 -90t12.5 -91
q0 -72 -40.5 -127.5t-93 -81t-100.5 -25.5q-45 0 -81 21.5t-36 60.5q0 18 13 30t35 12t43 -30q8 -12 13.5 -18.5t18.5 -12.5t31 -6q25 0 42 17t17 46q0 41 -18 86t-35 70.5t-53 75.5q-30 41 -45.5 65t-37 64t-31.5 81t-10 85zM338 -41l12 -11q39 45 39 116q0 47 -22.5 102
t-46.5 92t-67 95q-52 70 -78.5 119.5t-24.5 91.5l-15 8q-27 -38 -27 -88q0 -47 20.5 -99.5t41.5 -86t60 -88.5q37 -50 57.5 -83t37.5 -80.5t13 -87.5z" />
    <glyph glyph-name="dieresis" unicode="&#xa8;" horiz-adv-x="500" 
d="M384 570q0 -19 -14.5 -34t-32.5 -15q-19 0 -33.5 15t-14.5 34q0 20 14.5 36t33.5 16q17 0 32 -16t15 -36zM212 570q0 -20 -14 -34.5t-33 -14.5t-33.5 15t-14.5 34q0 20 14.5 36t33.5 16t33 -15.5t14 -36.5z" />
    <glyph glyph-name="copyright" unicode="&#xa9;" horiz-adv-x="775" 
d="M48 327q0 138 100.5 238t239.5 100q144 0 241.5 -99t97.5 -239q0 -143 -99.5 -242t-239.5 -99q-142 0 -241 96.5t-99 244.5zM108 324q0 -122 79 -203.5t203 -81.5q123 0 199.5 81t76.5 204q0 125 -79 208t-199 83q-122 0 -201 -83.5t-79 -207.5zM397 183q45 0 70.5 19.5
t39.5 62.5h28v-82q-67 -43 -140 -43q-82 0 -137 50t-55 138q0 84 55 135t137 51q67 0 136 -37v-85h-30q-16 46 -42.5 64t-63.5 18q-51 0 -81.5 -35t-30.5 -110q0 -71 34.5 -108.5t79.5 -37.5z" />
    <glyph glyph-name="ordfeminine" unicode="&#xaa;" horiz-adv-x="394" 
d="M340 368l41 -4q-1 -27 -18 -40t-38 -13q-57 0 -66 57q-64 -57 -123 -57q-48 0 -74.5 26t-26.5 70q0 25 9.5 43.5t30.5 30.5t37.5 18t47.5 15l89 25v55q0 39 -18.5 58t-44.5 19q-46 0 -65 -14q2 -28 4 -37l4 -37q-17 -12 -39 -12q-41 0 -41 38q0 41 40.5 67t111.5 26
q119 0 119 -111v-204q0 -19 20 -19zM249 393v116q-39 -12 -43 -13l-37 -11q-61 -16 -61 -75q0 -28 15 -42t37 -14q48 0 89 39z" />
    <glyph glyph-name="guillemotleft" unicode="&#xab;" horiz-adv-x="652" 
d="M109 238l181 218l26 -17l-119 -203v-13l119 -204l-27 -20l-179 217v23zM317 238l181 218l26 -17l-119 -203v-13l119 -204l-27 -20l-179 217v23z" />
    <glyph glyph-name="logicalnot" unicode="&#xac;" horiz-adv-x="544" 
d="M432 53v200h-393v54h463v-254h-70z" />
    <glyph glyph-name="registered" unicode="&#xae;" horiz-adv-x="508" 
d="M40 503q0 88 63 151t151 63q91 0 152.5 -62.5t61.5 -151.5q0 -88 -63 -151t-151 -63q-89 0 -151.5 61t-62.5 153zM84 502q0 -76 48 -125.5t123 -49.5q70 0 119.5 50.5t49.5 124.5q0 77 -49 126.5t-121 49.5q-78 0 -124 -49.5t-46 -126.5zM287 508v-8q14 -6 38 -39.5
t37 -42.5l15 -7v-20h-55q-14 10 -41.5 52t-47.5 50h-13v-75l37 -7v-20h-114v20l27 7v183l-27 7v20h116q29 0 57 -14t28 -48q0 -20 -15.5 -36.5t-41.5 -21.5zM220 601v-82h26q23 0 34.5 13.5t11.5 31.5q0 37 -40 37h-32z" />
    <glyph glyph-name="macron" unicode="&#xaf;" horiz-adv-x="500" 
d="M373 523h-245v54h245v-54z" />
    <glyph glyph-name="degree" unicode="&#xb0;" horiz-adv-x="367" 
d="M40 564q0 59 42 101.5t101 42.5t101.5 -42.5t42.5 -101.5t-42.5 -101t-101.5 -42t-101 42.5t-42 100.5zM100 564q0 -39 22.5 -65.5t59.5 -26.5t60.5 26.5t23.5 65.5t-23.5 66.5t-60.5 27.5t-59.5 -27.5t-22.5 -66.5z" />
    <glyph glyph-name="plusminus" unicode="&#xb1;" horiz-adv-x="620" 
d="M570 320h-230v-210h-60v210h-230v60h230v210h60v-210h230v-60zM570 0h-520v60h520v-60z" />
    <glyph glyph-name="two.sups" unicode="&#xb2;" horiz-adv-x="320" 
d="M103 473l1 -7h115q14 0 25 18t16 47h35q-2 -19 -8 -56.5t-9 -57.5h-251q-1 5 -4 14.5t-4 13.5l22 19q31 26 50.5 44t51.5 52t49 68.5t17 67.5q0 43 -19.5 62.5t-46.5 19.5q-46 0 -66 -44l36 -50l-1 1q0 -19 -12 -30t-32 -11q-19 0 -30 14t-11 36q0 48 36.5 78.5
t85.5 30.5q59 0 95 -29t36 -79q0 -23 -12.5 -48t-36.5 -51.5t-42.5 -43t-47.5 -41.5q-27 -22 -44 -39h2q2 1 4 1z" />
    <glyph glyph-name="three.sups" unicode="&#xb3;" horiz-adv-x="312" 
d="M181 627l5 -8q42 -6 71 -31.5t29 -68.5q0 -53 -46.5 -81t-109.5 -28q-48 0 -80.5 20t-32.5 55q0 20 10.5 32t28.5 12q17 0 27.5 -10.5t10.5 -28.5l1 1l-27 -39q19 -17 58 -17q89 0 89 86q0 38 -17 56.5t-46 18.5q-19 0 -57 -12l-7 25q61 23 88.5 49.5t27.5 63.5
q0 57 -58 57q-33 0 -59 -21q4 -7 13.5 -23t13.5 -24l-1 1q0 -14 -10.5 -23t-27.5 -9t-27.5 12.5t-10.5 32.5q0 36 36.5 57t82.5 21q52 0 85.5 -22.5t33.5 -60.5q0 -27 -27 -52t-67 -41z" />
    <glyph glyph-name="acute" unicode="&#xb4;" horiz-adv-x="500" 
d="M195 501v6l-1 -1l86 164h86v-8l1 1l-129 -162h-43z" />
    <glyph glyph-name="mu" unicode="&#xb5;" horiz-adv-x="544" 
d="M373 27l-8 6q-69 -45 -137 -45q-42 0 -73 26v-4q1 -13 3 -38.5t2 -38.5q6 -76 6 -94q0 -56 -48 -56q-40 0 -40 48q0 27 5 105q7 136 9 182v1q-1 7 -1 20v268q-11 1 -32.5 5t-32.5 6v29l158 18v-311q0 -60 21.5 -84t66.5 -24q57 0 95 40v321q-11 2 -32.5 6t-31.5 5v29
l157 18v-367q0 -49 21 -49t34 35l28 -10q-16 -44 -46 -63.5t-59 -19.5q-28 0 -39.5 6.5t-25.5 28.5v1z" />
    <glyph glyph-name="mu" unicode="&#x3bc;" horiz-adv-x="544" 
d="M373 27l-8 6q-69 -45 -137 -45q-42 0 -73 26v-4q1 -13 3 -38.5t2 -38.5q6 -76 6 -94q0 -56 -48 -56q-40 0 -40 48q0 27 5 105q7 136 9 182v1q-1 7 -1 20v268q-11 1 -32.5 5t-32.5 6v29l158 18v-311q0 -60 21.5 -84t66.5 -24q57 0 95 40v321q-11 2 -32.5 6t-31.5 5v29
l157 18v-367q0 -49 21 -49t34 35l28 -10q-16 -44 -46 -63.5t-59 -19.5q-28 0 -39.5 6.5t-25.5 28.5v1z" />
    <glyph glyph-name="paragraph" unicode="&#xb6;" horiz-adv-x="559" 
d="M523 706v-68h-58v-796h-51v796h-75v-796h-50v402q-128 0 -198 62t-70 170q0 105 68 167.5t175 62.5h259zM289 298v340q-61 0 -98 -45.5t-37 -119.5q0 -79 35.5 -127t99.5 -48z" />
    <glyph glyph-name="periodcentered" unicode="&#xb7;" horiz-adv-x="279" 
d="M75 266q0 28 19 48t46 20q26 0 45.5 -20t19.5 -48t-19 -47.5t-46 -19.5t-46 19.5t-19 47.5z" />
    <glyph glyph-name="cedilla" unicode="&#xb8;" horiz-adv-x="500" 
d="M206 -224l-7 21q39 8 63.5 24.5t24.5 38.5t-21.5 33t-55.5 11q-19 0 -27 -1l-3 4q8 15 27 52.5t29 56.5h37l-39 -70q48 0 77.5 -17.5t29.5 -53.5t-39 -63t-96 -36z" />
    <glyph glyph-name="one.sups" unicode="&#xb9;" horiz-adv-x="270" 
d="M38 753v21q69 4 112 23h28v-316q0 -43 72 -44v-20h-210v20q41 2 58.5 11t17.5 33v264q-11 2 -39 4.5t-39 3.5z" />
    <glyph glyph-name="ordmasculine" unicode="&#xba;" horiz-adv-x="415" 
d="M31 506q0 86 51.5 141t125.5 55t125.5 -54.5t51.5 -141.5q0 -91 -50.5 -142.5t-126.5 -51.5t-126.5 51.5t-50.5 142.5zM109 507q0 -163 99 -163q23 0 38.5 5.5t30 21.5t22 50t7.5 86q0 94 -26 128.5t-72 34.5q-47 0 -73 -34t-26 -129z" />
    <glyph glyph-name="guillemotright" unicode="&#xbb;" horiz-adv-x="652" 
d="M155 456l180 -217v-23l-179 -217l-27 20l118 204v13l-118 203zM363 456l180 -217v-23l-179 -217l-27 20l119 204v13l-119 203z" />
    <glyph glyph-name="onequarter" unicode="&#xbc;" 
d="M413 106l-4 13l202 257q5 -1 14 -3t13 -2v-241h58v-24h-58v-42q0 -33 15 -43.5t43 -11.5v-19h-180v19q32 1 46.5 11.5t14.5 39.5v46h-164zM152 -15l241 370l223 351q5 -3 16.5 -11t16.5 -11l-235 -349q-23 -38 -103.5 -169.5t-125.5 -203.5q-30 21 -33 23zM90 646v21
q70 4 111 22h28v-316q0 -43 73 -44v-19h-210v19q40 2 57.5 11t17.5 33v265q-11 2 -38.5 4.5zM462 134l4 -4h110v155z" />
    <glyph glyph-name="onehalf" unicode="&#xbd;" 
d="M152 -15l241 370l223 351q5 -3 16.5 -11t16.5 -11l-235 -349q-23 -38 -103.5 -169.5t-125.5 -203.5q-30 21 -33 23zM90 646v21q70 4 111 22h28v-316q0 -43 73 -44v-19h-210v19q40 2 57.5 11t17.5 33v265q-11 2 -38.5 4.5zM540 45l1 -7h116q14 0 25 18.5t15 47.5h35
q-3 -21 -9 -58.5t-8 -55.5h-250q-1 5 -4 14t-4 13l22 19q32 27 50.5 44t51 52t49.5 69.5t17 67.5q0 43 -19.5 62t-47.5 19q-47 0 -65 -43l35 -51l-1 1q0 -19 -12 -30t-31 -11t-30 14t-11 37q0 48 36 78t85 30q60 0 95.5 -28.5t35.5 -78.5q0 -30 -25 -67.5t-49 -60.5t-65 -57
q-27 -22 -44 -39h2q2 1 4 1z" />
    <glyph glyph-name="threequarters" unicode="&#xbe;" 
d="M413 106l-4 13l202 257q5 -1 14 -3t13 -2v-241h58v-24h-58v-42q0 -33 15 -43.5t43 -11.5v-19h-180v19q32 1 46.5 11.5t14.5 39.5v46h-164zM211 519l5 -8q42 -6 71 -31.5t29 -68.5q0 -53 -46.5 -80.5t-109.5 -27.5q-48 0 -80.5 19.5t-32.5 54.5q0 20 10.5 32t29.5 12
q17 0 27 -10.5t10 -28.5l1 1l-26 -39q19 -17 57 -17q89 0 89 86q0 76 -63 76q-19 0 -57 -12l-7 24q61 23 88.5 49.5t27.5 64.5q0 56 -58 56q-34 0 -59 -20q3 -6 13 -22.5t14 -25.5l-1 1q0 -14 -10.5 -23t-26.5 -9q-17 0 -28 12.5t-11 33.5q0 36 36.5 56.5t82.5 20.5
q52 0 85.5 -22t33.5 -60q0 -28 -26.5 -53t-67.5 -41zM152 -15l241 370l223 351q5 -3 16.5 -11t16.5 -11l-235 -349q-23 -38 -103.5 -169.5t-125.5 -203.5q-30 21 -33 23zM462 134l4 -4h110v155z" />
    <glyph glyph-name="questiondown" unicode="&#xbf;" horiz-adv-x="510" 
d="M359 61l-8 -3q-59 26 -119 26q-58 0 -91.5 -36.5t-33.5 -94.5q0 -59 47 -107.5t123 -48.5q46 0 67 23l-32 63l1 -1q0 22 15.5 36t38.5 14q22 0 37 -16.5t15 -47.5q0 -47 -37 -77.5t-99 -30.5q-92 0 -160.5 62t-68.5 157q0 86 45 141.5t113 55.5q65 0 105 -29l3 116h34
q0 -32 2 -101t3 -101zM402 422q0 -29 -18.5 -48.5t-45.5 -19.5q-26 0 -45.5 20t-19.5 48t19 47.5t46 19.5t45.5 -19.5t18.5 -47.5z" />
    <glyph glyph-name="Agrave" unicode="&#xc0;" horiz-adv-x="720" 
d="M505 78l-47 127h-256l-43 -125q-8 -25 12.5 -34.5t82.5 -9.5v-36h-233v36q41 1 64 14.5t36 48.5l223 602h14l244 -609q15 -33 34.5 -44t62.5 -12v-36h-280v36h23q53 0 63 6.5t0 35.5zM334 531h-17l-100 -283h224zM408 757v-6h-44l-129 127l2 -1v8h87l85 -129z" />
    <glyph glyph-name="Aacute" unicode="&#xc1;" horiz-adv-x="720" 
d="M505 78l-47 127h-256l-43 -125q-8 -25 12.5 -34.5t82.5 -9.5v-36h-233v36q41 1 64 14.5t36 48.5l223 602h14l244 -609q15 -33 34.5 -44t62.5 -12v-36h-280v36h23q53 0 63 6.5t0 35.5zM334 531h-17l-100 -283h224zM298 751v6l-1 -1l85 129h87v-8l2 1l-129 -127h-44z" />
    <glyph glyph-name="Acircumflex" unicode="&#xc2;" horiz-adv-x="720" 
d="M505 78l-47 127h-256l-43 -125q-8 -25 12.5 -34.5t82.5 -9.5v-36h-233v36q41 1 64 14.5t36 48.5l223 602h14l244 -609q15 -33 34.5 -44t62.5 -12v-36h-280v36h23q53 0 63 6.5t0 35.5zM334 531h-17l-100 -283h224zM494 757v-6h-38l-103 72l-103 -72h-38v6l-1 -1l121 129
h42z" />
    <glyph glyph-name="Atilde" unicode="&#xc3;" horiz-adv-x="720" 
d="M505 78l-47 127h-256l-43 -125q-8 -25 12.5 -34.5t82.5 -9.5v-36h-233v36q41 1 64 14.5t36 48.5l223 602h14l244 -609q15 -33 34.5 -44t62.5 -12v-36h-280v36h23q53 0 63 6.5t0 35.5zM334 531h-17l-100 -283h224zM486 906l17 -7q-14 -49 -42 -86t-52 -37q-11 0 -61 31
q-48 30 -66 30q-32 0 -58 -61q-4 2 -11 4.5t-9 3.5q12 40 40.5 80.5t44.5 40.5q14 0 62 -31q46 -30 67 -30q19 0 39 20t29 42z" />
    <glyph glyph-name="Adieresis" unicode="&#xc4;" horiz-adv-x="720" 
d="M505 78l-47 127h-256l-43 -125q-8 -25 12.5 -34.5t82.5 -9.5v-36h-233v36q41 1 64 14.5t36 48.5l223 602h14l244 -609q15 -33 34.5 -44t62.5 -12v-36h-280v36h23q53 0 63 6.5t0 35.5zM334 531h-17l-100 -283h224zM487 831q0 -19 -14.5 -34t-32.5 -15q-20 0 -34.5 15
t-14.5 34q0 20 15 35.5t34 15.5q18 0 32.5 -15.5t14.5 -35.5zM315 831q0 -20 -14 -34.5t-33 -14.5q-20 0 -34.5 15t-14.5 34q0 20 15 35.5t34 15.5t33 -15.5t14 -35.5z" />
    <glyph glyph-name="Aring" unicode="&#xc5;" horiz-adv-x="720" 
d="M505 78l-47 127h-256l-43 -125q-8 -25 12.5 -34.5t82.5 -9.5v-36h-233v36q41 1 64 14.5t36 48.5l223 602h14l244 -609q15 -33 34.5 -44t62.5 -12v-36h-280v36h23q53 0 63 6.5t0 35.5zM334 531h-17l-100 -283h224zM264 844q0 38 26 65t63 27t63.5 -27t26.5 -65
t-26.5 -65.5t-63.5 -27.5t-63 27.5t-26 65.5zM300 844q0 -23 14 -38t38 -15t38.5 15t14.5 38t-15 39t-38 16t-37.5 -16t-14.5 -39z" />
    <glyph glyph-name="AE" unicode="&#xc6;" horiz-adv-x="1011" 
d="M969 244l-13 -244h-572v36q67 0 85 5t18 26v138h-251q-13 -21 -40.5 -65l-37.5 -60q-20 -32 39 -41l55 -3v-36h-233v36q36 1 52.5 12.5t41.5 44.5q4 4 5 6l359 546q-17 11 -93 11v35h541q1 -36 5 -107t6 -107h-29q-18 102 -49.5 140.5t-103.5 38.5h-173v-297h80
q105 0 105 138h26v-310h-26q0 82 -22 107.5t-89 25.5h-74v-284h198q74 0 116 64t42 144h32zM473 579l-209 -331h223v331h-14z" />
    <glyph glyph-name="Ccedilla" unicode="&#xc7;" horiz-adv-x="684" 
d="M341 -216l-6 21q86 18 86 63q0 22 -21 33t-55 11q-19 0 -27 -1l-3 5l38 74q-137 12 -217 107t-80 248q0 147 100.5 251.5t231.5 104.5q106 0 171 -45l9 1q22 32 24 34h24l4 -258h-33q-15 92 -66 159.5t-137 67.5q-105 0 -162.5 -87t-57.5 -230q0 -313 225 -313
q159 0 202 192h37q-4 -29 -11.5 -89.5t-11.5 -89.5q-84 -53 -218 -55l-18 -34q47 0 77 -17.5t30 -53.5t-39 -63t-96 -36z" />
    <glyph glyph-name="Egrave" unicode="&#xc8;" horiz-adv-x="661" 
d="M618 244l-13 -244h-572v36q67 0 85 5t18 26v556q0 22 -18 27.5t-85 5.5v35h541q2 -36 6 -107t5 -107h-29q-18 102 -49.5 140.5t-103.5 38.5h-173v-297h80q105 0 105 138h26v-310h-26q0 82 -22 107.5t-89 25.5h-74v-284h197q74 0 116.5 64t42.5 144h32zM394 757v-6h-44
l-129 127l2 -1v8h87l85 -129z" />
    <glyph glyph-name="Eacute" unicode="&#xc9;" horiz-adv-x="661" 
d="M618 244l-13 -244h-572v36q67 0 85 5t18 26v556q0 22 -18 27.5t-85 5.5v35h541q2 -36 6 -107t5 -107h-29q-18 102 -49.5 140.5t-103.5 38.5h-173v-297h80q105 0 105 138h26v-310h-26q0 82 -22 107.5t-89 25.5h-74v-284h197q74 0 116.5 64t42.5 144h32zM284 751v6l-1 -1
l85 129h87v-8l2 1l-129 -127h-44z" />
    <glyph glyph-name="Ecircumflex" unicode="&#xca;" horiz-adv-x="661" 
d="M618 244l-13 -244h-572v36q67 0 85 5t18 26v556q0 22 -18 27.5t-85 5.5v35h541q2 -36 6 -107t5 -107h-29q-18 102 -49.5 140.5t-103.5 38.5h-173v-297h80q105 0 105 138h26v-310h-26q0 82 -22 107.5t-89 25.5h-74v-284h197q74 0 116.5 64t42.5 144h32zM480 757v-6h-38
l-103 72l-103 -72h-38v6l-1 -1l121 129h42z" />
    <glyph glyph-name="Edieresis" unicode="&#xcb;" horiz-adv-x="661" 
d="M618 244l-13 -244h-572v36q67 0 85 5t18 26v556q0 22 -18 27.5t-85 5.5v35h541q2 -36 6 -107t5 -107h-29q-18 102 -49.5 140.5t-103.5 38.5h-173v-297h80q105 0 105 138h26v-310h-26q0 82 -22 107.5t-89 25.5h-74v-284h197q74 0 116.5 64t42.5 144h32zM473 831
q0 -19 -15 -34t-33 -15q-19 0 -33.5 15t-14.5 34q0 20 14.5 35.5t33.5 15.5q18 0 33 -15.5t15 -35.5zM301 831q0 -20 -14 -34.5t-34 -14.5q-19 0 -33.5 15t-14.5 34q0 20 14.5 35.5t33.5 15.5q20 0 34 -15t14 -36z" />
    <glyph glyph-name="Igrave" unicode="&#xcc;" horiz-adv-x="379" 
d="M340 691v-35q-67 0 -85.5 -7.5t-18.5 -34.5v-532q0 -32 16 -39t88 -7v-36h-301v36q67 0 85 8t18 38v532q0 29 -17 35.5t-86 6.5v35h301zM244 757v-6h-44l-129 127l2 -1v8h87l85 -129z" />
    <glyph glyph-name="Iacute" unicode="&#xcd;" horiz-adv-x="379" 
d="M340 691v-35q-67 0 -85.5 -7.5t-18.5 -34.5v-532q0 -32 16 -39t88 -7v-36h-301v36q67 0 85 8t18 38v532q0 29 -17 35.5t-86 6.5v35h301zM134 751v6l-1 -1l85 129h87v-8l2 1l-129 -127h-44z" />
    <glyph glyph-name="Icircumflex" unicode="&#xce;" horiz-adv-x="379" 
d="M340 691v-35q-67 0 -85.5 -7.5t-18.5 -34.5v-532q0 -32 16 -39t88 -7v-36h-301v36q67 0 85 8t18 38v532q0 29 -17 35.5t-86 6.5v35h301zM330 757v-6h-38l-103 72l-102 -72h-39v6l-1 -1l121 129h42z" />
    <glyph glyph-name="Idieresis" unicode="&#xcf;" horiz-adv-x="379" 
d="M340 691v-35q-67 0 -85.5 -7.5t-18.5 -34.5v-532q0 -32 16 -39t88 -7v-36h-301v36q67 0 85 8t18 38v532q0 29 -17 35.5t-86 6.5v35h301zM323 831q0 -19 -14.5 -34t-32.5 -15q-20 0 -34.5 15t-14.5 34q0 20 15 35.5t34 15.5q18 0 32.5 -15.5t14.5 -35.5zM151 831
q0 -20 -14 -34.5t-33 -14.5q-20 0 -34.5 15t-14.5 34q0 20 15 35.5t34 15.5t33 -15.5t14 -35.5z" />
    <glyph glyph-name="Eth" unicode="&#xd0;" horiz-adv-x="761" 
d="M705 345q0 -51 -13 -100t-41.5 -93.5t-70 -78t-103 -53.5t-135.5 -20h-309v36q37 1 54 2t30 5t16 10t3 19v250h-84v51h84v250q0 23 -16 28t-87 5v35h307q80 0 144.5 -22t105 -57t67 -82t37.5 -92.5t11 -92.5zM595 344q0 67 -15 121.5t-47 98.5t-88 68t-133 24h-82v-283
h207v-51h-207v-286h110q69 0 120 27t79.5 72.5t42 98t13.5 110.5z" />
    <glyph glyph-name="Ntilde" unicode="&#xd1;" horiz-adv-x="752" 
d="M176 556h-12v-465q0 -34 27.5 -44.5t92.5 -10.5v-36h-253v36q51 0 75 11t24 44v511q-44 53 -104 54v35h166l398 -511h12v424q0 52 -121 52v35h245v-35q-51 -1 -70.5 -13t-19.5 -39v-614h-19zM516 906l17 -7q-14 -49 -41.5 -86t-51.5 -37q-12 0 -62 31q-48 30 -66 30
t-31.5 -15.5t-26.5 -45.5q-4 2 -11 4.5t-9 3.5q12 40 40.5 80.5t44.5 40.5q14 0 62 -31q46 -30 68 -30q18 0 38 20t29 42z" />
    <glyph glyph-name="Ograve" unicode="&#xd2;" horiz-adv-x="751" 
d="M695 345q0 -151 -94.5 -254t-224.5 -103q-136 0 -228 100t-92 257q0 158 92 257t228 99q131 0 225 -100.5t94 -255.5zM586 345q0 72 -10.5 127.5t-34 99t-65.5 66t-100 22.5q-115 0 -163 -80.5t-48 -234.5q0 -152 48.5 -233.5t162.5 -81.5q105 0 157.5 84t52.5 231z
M432 757v-6h-45l-128 127l2 -1v8h86l86 -129z" />
    <glyph glyph-name="Oacute" unicode="&#xd3;" horiz-adv-x="751" 
d="M695 345q0 -151 -94.5 -254t-224.5 -103q-136 0 -228 100t-92 257q0 158 92 257t228 99q131 0 225 -100.5t94 -255.5zM586 345q0 72 -10.5 127.5t-34 99t-65.5 66t-100 22.5q-115 0 -163 -80.5t-48 -234.5q0 -152 48.5 -233.5t162.5 -81.5q105 0 157.5 84t52.5 231z
M321 751v6l-1 -1l85 129h87v-8l2 1l-129 -127h-44z" />
    <glyph glyph-name="Ocircumflex" unicode="&#xd4;" horiz-adv-x="751" 
d="M695 345q0 -151 -94.5 -254t-224.5 -103q-136 0 -228 100t-92 257q0 158 92 257t228 99q131 0 225 -100.5t94 -255.5zM586 345q0 72 -10.5 127.5t-34 99t-65.5 66t-100 22.5q-115 0 -163 -80.5t-48 -234.5q0 -152 48.5 -233.5t162.5 -81.5q105 0 157.5 84t52.5 231z
M517 757v-6h-38l-103 72l-102 -72h-39v6l-1 -1l121 129h42z" />
    <glyph glyph-name="Otilde" unicode="&#xd5;" horiz-adv-x="751" 
d="M695 345q0 -151 -94.5 -254t-224.5 -103q-136 0 -228 100t-92 257q0 158 92 257t228 99q131 0 225 -100.5t94 -255.5zM586 345q0 72 -10.5 127.5t-34 99t-65.5 66t-100 22.5q-115 0 -163 -80.5t-48 -234.5q0 -152 48.5 -233.5t162.5 -81.5q105 0 157.5 84t52.5 231z
M509 906l17 -7q-14 -49 -41.5 -86t-51.5 -37q-12 0 -62 31q-48 30 -66 30t-31.5 -15.5t-26.5 -45.5q-4 2 -11 4.5t-9 3.5q12 40 40.5 80.5t44.5 40.5q14 0 62 -31q46 -30 68 -30q18 0 38 20t29 42z" />
    <glyph glyph-name="Odieresis" unicode="&#xd6;" horiz-adv-x="751" 
d="M695 345q0 -151 -94.5 -254t-224.5 -103q-136 0 -228 100t-92 257q0 158 92 257t228 99q131 0 225 -100.5t94 -255.5zM586 345q0 72 -10.5 127.5t-34 99t-65.5 66t-100 22.5q-115 0 -163 -80.5t-48 -234.5q0 -152 48.5 -233.5t162.5 -81.5q105 0 157.5 84t52.5 231z
M510 831q0 -19 -14.5 -34t-32.5 -15q-19 0 -34 15t-15 34q0 20 15 35.5t34 15.5q18 0 32.5 -15.5t14.5 -35.5zM338 831q0 -20 -14 -34.5t-33 -14.5t-34 15t-15 34q0 20 15 35.5t34 15.5t33 -15.5t14 -35.5z" />
    <glyph glyph-name="multiply" unicode="&#xd7;" horiz-adv-x="620" 
d="M493 35l-183 183l-183 -183l-42 42l183 183l-183 183l42 42l183 -183l183 183l42 -42l-183 -183l183 -183z" />
    <glyph glyph-name="Oslash" unicode="&#xd8;" horiz-adv-x="751" 
d="M695 345q0 -151 -94.5 -254t-224.5 -103q-103 0 -190 65q-11 -16 -37.5 -53t-38.5 -53h-53l98 133q-99 104 -99 265q0 158 92 257t228 99q95 0 181 -61l67 92h52l-87 -119q106 -104 106 -268zM586 345q0 128 -36 212l-330 -455q53 -72 156 -72q105 0 157.5 84t52.5 231z
M165 345q0 -121 32 -204l328 453q-52 66 -149 66q-115 0 -163 -80.5t-48 -234.5z" />
    <glyph glyph-name="Ugrave" unicode="&#xd9;" horiz-adv-x="748" 
d="M723 691v-35q-54 0 -75.5 -10.5t-21.5 -34.5v-330q0 -145 -57.5 -219t-194.5 -74q-254 0 -254 236v390q0 29 -14.5 35.5t-80.5 6.5v35h288v-35q-64 0 -81 -7t-17 -35v-390q0 -97 47.5 -146.5t125.5 -49.5q50 0 87 15t57.5 38t32.5 58.5t15.5 67.5t3.5 74v330
q0 24 -25.5 34.5t-91.5 10.5v35h256zM454 757v-6h-45l-128 127l2 -1v8h86l86 -129z" />
    <glyph glyph-name="Uacute" unicode="&#xda;" horiz-adv-x="748" 
d="M723 691v-35q-54 0 -75.5 -10.5t-21.5 -34.5v-330q0 -145 -57.5 -219t-194.5 -74q-254 0 -254 236v390q0 29 -14.5 35.5t-80.5 6.5v35h288v-35q-64 0 -81 -7t-17 -35v-390q0 -97 47.5 -146.5t125.5 -49.5q50 0 87 15t57.5 38t32.5 58.5t15.5 67.5t3.5 74v330
q0 24 -25.5 34.5t-91.5 10.5v35h256zM343 751v6l-1 -1l85 129h87v-8l2 1l-129 -127h-44z" />
    <glyph glyph-name="Ucircumflex" unicode="&#xdb;" horiz-adv-x="748" 
d="M723 691v-35q-54 0 -75.5 -10.5t-21.5 -34.5v-330q0 -145 -57.5 -219t-194.5 -74q-254 0 -254 236v390q0 29 -14.5 35.5t-80.5 6.5v35h288v-35q-64 0 -81 -7t-17 -35v-390q0 -97 47.5 -146.5t125.5 -49.5q50 0 87 15t57.5 38t32.5 58.5t15.5 67.5t3.5 74v330
q0 24 -25.5 34.5t-91.5 10.5v35h256zM539 757v-6h-38l-103 72l-102 -72h-38v6l-2 -1l121 129h42z" />
    <glyph glyph-name="Udieresis" unicode="&#xdc;" horiz-adv-x="748" 
d="M723 691v-35q-54 0 -75.5 -10.5t-21.5 -34.5v-330q0 -145 -57.5 -219t-194.5 -74q-254 0 -254 236v390q0 29 -14.5 35.5t-80.5 6.5v35h288v-35q-64 0 -81 -7t-17 -35v-390q0 -97 47.5 -146.5t125.5 -49.5q50 0 87 15t57.5 38t32.5 58.5t15.5 67.5t3.5 74v330
q0 24 -25.5 34.5t-91.5 10.5v35h256zM532 831q0 -19 -14.5 -34t-32.5 -15q-19 0 -33.5 15t-14.5 34q0 20 14.5 35.5t33.5 15.5q18 0 32.5 -15.5t14.5 -35.5zM360 831q0 -20 -14 -34.5t-33 -14.5t-33.5 15t-14.5 34q0 20 14.5 35.5t33.5 15.5t33 -15.5t14 -35.5z" />
    <glyph glyph-name="Yacute" unicode="&#xdd;" horiz-adv-x="684" 
d="M666 691v-35q-70 -3 -118 -81l-146 -266v-184q0 -60 19.5 -74.5t84.5 -14.5v-36h-300v36q71 0 86.5 14t15.5 75v180l-159 260q-40 57 -61.5 73.5t-69.5 17.5v35h285v-35q-78 -2 -78 -31q0 -12 18 -41l141 -232l128 231q10 17 10 32q0 38 -61 41v35h205zM334 751v6l-1 -1
l85 129h87v-8l2 1l-129 -127h-44z" />
    <glyph glyph-name="Thorn" unicode="&#xde;" horiz-adv-x="613" 
d="M326 173h-95v-86q0 -33 20 -42t83 -9v-36h-300v36q62 0 82.5 9t20.5 42v517q0 32 -24 42t-79 10v35h300v-35q-60 0 -81.5 -9t-21.5 -43v-55h104q35 0 67 -5t63 -18t54 -33t37 -52.5t14 -73.5q0 -98 -72.5 -146t-171.5 -48zM311 514h-80v-301h84q71 0 112.5 35t41.5 107
q0 78 -43.5 118.5t-114.5 40.5z" />
    <glyph glyph-name="germandbls" unicode="&#xdf;" horiz-adv-x="581" 
d="M504 602q0 -26 -13.5 -50t-26.5 -35t-36 -28q-43 -30 -43 -46q0 -15 41 -40q24 -16 38 -27.5t35.5 -35t32 -56t10.5 -72.5q0 -91 -59 -154.5t-151 -64.5q-32 0 -70 12l-20 98h31q10 -30 26 -48t46 -18q46 0 78 45t32 116q0 29 -8.5 52.5t-27 43t-30 29t-35.5 26.5
q-19 13 -27 19t-16 17t-8 22q0 29 43 66q22 20 34 32.5t24 38.5t12 56q0 53 -30.5 83.5t-78.5 30.5q-61 0 -94.5 -49.5t-33.5 -125.5v-539h-154v31l39 5q19 2 25.5 7.5t5.5 22.5v466q0 92 58 156t152 64q90 0 144.5 -45t54.5 -105z" />
    <glyph glyph-name="agrave" unicode="&#xe0;" horiz-adv-x="492" 
d="M427 57l47 -5q-1 -32 -21.5 -48t-45.5 -16q-69 0 -78 67h-15q-70 -67 -145 -67q-58 0 -91 33.5t-33 89.5q0 31 12.5 54.5t38 39t47.5 24t58 18.5l115 33v72q0 51 -25 76.5t-59 25.5q-56 0 -86 -20l11 -94q-19 -15 -46 -15q-47 0 -47 47q0 53 49.5 85.5t137.5 32.5
q146 0 146 -142v-263q0 -18 7 -22.5t23 -5.5zM316 91v155l-106 -33q-40 -12 -60 -34.5t-20 -63.5q0 -36 20 -55.5t50 -19.5q34 0 65.5 15.5t50.5 35.5zM291 554v-6h-43l-129 162l1 -1v8h86l86 -164z" />
    <glyph glyph-name="aacute" unicode="&#xe1;" horiz-adv-x="492" 
d="M427 57l47 -5q-1 -32 -21.5 -48t-45.5 -16q-69 0 -78 67h-15q-70 -67 -145 -67q-58 0 -91 33.5t-33 89.5q0 31 12.5 54.5t38 39t47.5 24t58 18.5l115 33v72q0 51 -25 76.5t-59 25.5q-56 0 -86 -20l11 -94q-19 -15 -46 -15q-47 0 -47 47q0 53 49.5 85.5t137.5 32.5
q146 0 146 -142v-263q0 -18 7 -22.5t23 -5.5zM316 91v155l-106 -33q-40 -12 -60 -34.5t-20 -63.5q0 -36 20 -55.5t50 -19.5q34 0 65.5 15.5t50.5 35.5zM181 548v6l-1 -1l85 164h87v-8l1 1l-129 -162h-43z" />
    <glyph glyph-name="acircumflex" unicode="&#xe2;" horiz-adv-x="492" 
d="M427 57l47 -5q-1 -32 -21.5 -48t-45.5 -16q-69 0 -78 67h-15q-70 -67 -145 -67q-58 0 -91 33.5t-33 89.5q0 31 12.5 54.5t38 39t47.5 24t58 18.5l115 33v72q0 51 -25 76.5t-59 25.5q-56 0 -86 -20l11 -94q-19 -15 -46 -15q-47 0 -47 47q0 53 49.5 85.5t137.5 32.5
q146 0 146 -142v-263q0 -18 7 -22.5t23 -5.5zM316 91v155l-106 -33q-40 -12 -60 -34.5t-20 -63.5q0 -36 20 -55.5t50 -19.5q34 0 65.5 15.5t50.5 35.5zM377 554v-6h-38l-103 102l-103 -102h-38v6l-1 -1l121 164h42l121 -164z" />
    <glyph glyph-name="atilde" unicode="&#xe3;" horiz-adv-x="492" 
d="M427 57l47 -4q-1 -31 -22 -48t-45 -17q-69 0 -78 67h-15q-70 -67 -145 -67q-58 0 -91 33.5t-33 89.5q0 31 12.5 54.5t38 39t47.5 24t58 18.5l115 33v72q0 51 -25 76.5t-59 25.5q-56 0 -86 -20l11 -94q-19 -15 -46 -15q-47 0 -47 47q0 53 49.5 85.5t137.5 32.5
q146 0 146 -142v-263q0 -18 7 -22.5t23 -5.5zM316 91v155l-106 -33q-40 -12 -60 -34.5t-20 -63.5q0 -36 20 -55.5t50 -19.5q34 0 65.5 15.5t50.5 35.5zM369 693l17 -7q-14 -49 -41.5 -86t-52.5 -37q-13 0 -61 30t-67 30q-31 0 -57 -60q-3 1 -10 3t-10 4q12 40 40 81t44 41
q15 0 63 -31q45 -31 68 -31q18 0 38 20t29 43z" />
    <glyph glyph-name="adieresis" unicode="&#xe4;" horiz-adv-x="492" 
d="M427 57l47 -4q-1 -31 -22 -48t-45 -17q-69 0 -78 67h-15q-70 -67 -145 -67q-58 0 -91 33.5t-33 89.5q0 31 12.5 54.5t38 39t47.5 24t58 18.5l115 33v72q0 51 -25 76.5t-59 25.5q-56 0 -86 -20l11 -94q-19 -15 -46 -15q-47 0 -47 47q0 53 49.5 85.5t137.5 32.5
q146 0 146 -142v-263q0 -18 7 -22.5t23 -5.5zM316 91v155l-106 -33q-40 -12 -60 -34.5t-20 -63.5q0 -36 20 -55.5t50 -19.5q34 0 65.5 15.5t50.5 35.5zM370 617q0 -19 -14.5 -34t-32.5 -15q-19 0 -34 15t-15 34q0 20 15 36t34 16q17 0 32 -16t15 -36zM198 617
q0 -20 -14.5 -34.5t-33.5 -14.5t-33.5 15t-14.5 34q0 20 14.5 36t33.5 16t33.5 -16t14.5 -36z" />
    <glyph glyph-name="aring" unicode="&#xe5;" horiz-adv-x="492" 
d="M427 57l47 -4q-1 -31 -22 -48t-45 -17q-69 0 -78 67h-15q-70 -67 -145 -67q-58 0 -91 33.5t-33 89.5q0 31 12.5 54.5t38 39t47.5 24t58 18.5l115 33v72q0 51 -25 76.5t-59 25.5q-56 0 -86 -20l11 -94q-19 -15 -46 -15q-47 0 -47 47q0 53 49.5 85.5t137.5 32.5
q146 0 146 -142v-263q0 -18 7 -22.5t23 -5.5zM316 91v155l-106 -33q-40 -12 -60 -34.5t-20 -63.5q0 -36 20 -55.5t50 -19.5q34 0 65.5 15.5t50.5 35.5zM146 630q0 39 26.5 66t63.5 27t63.5 -27t26.5 -66q0 -38 -26.5 -65.5t-63.5 -27.5t-63.5 27.5t-26.5 65.5zM183 630
q0 -23 14 -38t38 -15t38.5 15t14.5 38q0 24 -14.5 40t-38.5 16q-23 0 -37.5 -16t-14.5 -40z" />
    <glyph glyph-name="ae" unicode="&#xe6;" horiz-adv-x="741" 
d="M682 152l25 -9q-20 -69 -69 -110.5t-123 -41.5q-117 0 -169 75h-23q-73 -78 -154 -78q-58 0 -91 33.5t-33 89.5q0 31 12.5 54.5t38 39t47.5 24t58 18.5l115 33v72q0 51 -25 76.5t-59 25.5q-56 0 -86 -20l11 -94q-19 -15 -46 -15q-47 0 -47 47q0 53 49.5 85.5t137.5 32.5
q89 0 127 -58q60 58 136 58q79 0 129 -54.5t56 -151.5v-24h-298q-1 -12 -1 -25q0 -106 34 -152t102 -46q58 0 94.5 32t51.5 83zM316 91v155l-106 -33q-40 -12 -60 -34.5t-20 -63.5q0 -36 20 -55.5t50 -19.5q34 0 65.5 15.5t50.5 35.5zM611 297v19q-9 131 -99 131
q-50 0 -76.5 -35.5t-31.5 -114.5h207z" />
    <glyph glyph-name="ccedilla" unicode="&#xe7;" horiz-adv-x="472" 
d="M225 -230l-7 21q39 8 63.5 25t24.5 39t-21.5 33t-55.5 11q-19 0 -27 -1l-3 4l45 89q-88 7 -145.5 68.5t-57.5 175.5q0 110 65.5 182.5t156.5 72.5q66 0 114.5 -35t48.5 -88q0 -35 -14.5 -53.5t-37.5 -18.5q-27 0 -41.5 19.5t-13.5 48.5l-1 -1l28 46q-14 44 -76 44
q-61 0 -99 -48t-38 -155q0 -108 42.5 -158t108.5 -50q48 0 82 30t48 76l27 -9q-20 -61 -61.5 -101t-99.5 -46l-27 -50q47 0 77 -17.5t30 -53.5q0 -37 -39 -64t-96 -36z" />
    <glyph glyph-name="egrave" unicode="&#xe8;" horiz-adv-x="475" 
d="M414 151l26 -9q-21 -70 -70 -111t-122 -41q-90 0 -148.5 63t-58.5 181q0 112 58.5 184t147.5 72q79 0 129 -54.5t56 -151.5v-24h-298q-1 -12 -1 -25q0 -106 34 -152.5t102 -46.5q58 0 94 32t51 83zM344 297v19q-9 131 -99 131q-50 0 -76.5 -35.5t-31.5 -114.5h207z
M301 554v-6h-44l-129 162l1 -1v8h86l87 -164z" />
    <glyph glyph-name="eacute" unicode="&#xe9;" horiz-adv-x="475" 
d="M414 151l26 -9q-21 -70 -70 -111t-122 -41q-90 0 -148.5 63t-58.5 181q0 112 58.5 184t147.5 72q79 0 129 -54.5t56 -151.5v-24h-298q-1 -12 -1 -25q0 -106 34 -152.5t102 -46.5q58 0 94 32t51 83zM344 297v19q-9 131 -99 131q-50 0 -76.5 -35.5t-31.5 -114.5h207z
M190 548v6l-1 -1l85 164h87v-8l1 1l-129 -162h-43z" />
    <glyph glyph-name="ecircumflex" unicode="&#xea;" horiz-adv-x="475" 
d="M414 151l26 -9q-21 -70 -70 -111t-122 -41q-90 0 -148.5 63t-58.5 181q0 112 58.5 184t147.5 72q79 0 129 -54.5t56 -151.5v-24h-298q-1 -12 -1 -25q0 -106 34 -152.5t102 -46.5q58 0 94 32t51 83zM344 297v19q-9 131 -99 131q-50 0 -76.5 -35.5t-31.5 -114.5h207z
M386 554v-6h-38l-103 102l-103 -102h-38v6l-1 -1l121 164h42l121 -164z" />
    <glyph glyph-name="edieresis" unicode="&#xeb;" horiz-adv-x="475" 
d="M414 151l26 -9q-21 -70 -70 -111t-122 -41q-90 0 -148.5 63t-58.5 181q0 112 58.5 184t147.5 72q79 0 129 -54.5t56 -151.5v-24h-298q-1 -12 -1 -25q0 -106 34 -152.5t102 -46.5q58 0 94 32t51 83zM344 297v19q-9 131 -99 131q-50 0 -76.5 -35.5t-31.5 -114.5h207z
M379 617q0 -19 -14.5 -34t-32.5 -15q-19 0 -34 15t-15 34q0 20 15 36t34 16q17 0 32 -16t15 -36zM207 617q0 -20 -14 -34.5t-34 -14.5q-19 0 -33.5 15t-14.5 34q0 20 14.5 36t33.5 16q20 0 34 -15.5t14 -36.5z" />
    <glyph glyph-name="igrave" unicode="&#xec;" horiz-adv-x="296" 
d="M196 52q0 -16 10 -16t29.5 -2t28.5 -3v-31h-224v31l31 5q41 5 41 48v293q0 40 -18 51.5t-67 11.5v31l135 9h34v-428zM209 551v-6h-44l-129 162l1 -1v8h86l87 -164z" />
    <glyph glyph-name="iacute" unicode="&#xed;" horiz-adv-x="296" 
d="M196 52q0 -16 10 -16t29.5 -2t28.5 -3v-31h-224v31l31 5q41 5 41 48v293q0 40 -18 51.5t-67 11.5v31l135 9h34v-428zM98 545v6l-1 -1l86 164h86v-8l1 1l-129 -162h-43z" />
    <glyph glyph-name="icircumflex" unicode="&#xee;" horiz-adv-x="296" 
d="M196 52q0 -16 10 -16t29.5 -2t28.5 -3v-31h-224v31l31 5q41 5 41 48v293q0 40 -18 51.5t-67 11.5v31l135 9h34v-428zM294 551v-6h-38l-103 102l-103 -102h-38v6l-1 -1l121 164h42l121 -164z" />
    <glyph glyph-name="idieresis" unicode="&#xef;" horiz-adv-x="296" 
d="M196 52q0 -16 10 -16t29.5 -2t28.5 -3v-31h-224v31l31 5q41 5 41 48v293q0 40 -18 51.5t-67 11.5v31l135 9h34v-428zM287 614q0 -19 -14.5 -34t-32.5 -15q-19 0 -33.5 15t-14.5 34q0 20 14.5 36t33.5 16q17 0 32 -16t15 -36zM115 614q0 -20 -14 -34.5t-33 -14.5
q-20 0 -34.5 14.5t-14.5 34.5t15 36t34 16t33 -15.5t14 -36.5z" />
    <glyph glyph-name="eth" unicode="&#xf0;" horiz-adv-x="519" 
d="M145 574l87 59q-50 54 -104 82q1 5 4.5 13t5.5 12q69 -27 138 -78l108 72l23 -30l-100 -66q172 -154 172 -399q0 -117 -62.5 -184t-156.5 -67t-157 67t-63 184q0 110 63.5 180.5t156.5 70.5q31 0 75 -22l10 11q-33 63 -87 127l-90 -60q-4 6 -11.5 14t-11.5 14zM132 240
q0 -215 128 -215q29 0 49 7.5t39.5 28.5t29 66t9.5 113q0 123 -34 168t-93 45q-28 0 -49 -8t-40 -29.5t-29 -65.5t-10 -110z" />
    <glyph glyph-name="ntilde" unicode="&#xf1;" horiz-adv-x="555" 
d="M164 423h22q36 35 67 51t79 16q56 0 95.5 -37.5t39.5 -118.5v-289q0 -9 10 -9q9 0 29 -2t29 -3v-31h-210v31l27 5q18 3 25 8.5t7 16.5v314q0 66 -76 66q-40 0 -68 -14.5t-61 -45.5v-337q0 -6 1.5 -7t8.5 -1q9 0 28.5 -2t29.5 -3v-31h-222v31l37 5q18 2 25.5 8.5t7.5 24.5
v301q0 36 -16.5 52.5t-58.5 17.5v31l104 9h36zM423 693l17 -7q-14 -49 -42 -86t-52 -37q-12 0 -62 30q-48 30 -66 30q-32 0 -58 -60q-3 1 -10 3t-10 4q12 40 40.5 81t44.5 41q14 0 62 -31q46 -31 68 -31q18 0 38 20t30 43z" />
    <glyph glyph-name="ograve" unicode="&#xf2;" horiz-adv-x="519" 
d="M40 239q0 110 63.5 180.5t156.5 70.5q92 0 155.5 -70t63.5 -181q0 -117 -62.5 -183t-156.5 -66q-95 0 -157.5 66t-62.5 183zM132 240q0 -213 128 -213q29 0 49 7t39.5 28t29 65.5t9.5 112.5q0 123 -34 168t-93 45q-28 0 -49 -8t-40 -29.5t-29 -65.5t-10 -110zM317 554v-6
h-44l-129 162l1 -1v8h86l87 -164z" />
    <glyph glyph-name="oacute" unicode="&#xf3;" horiz-adv-x="519" 
d="M40 239q0 110 63.5 180.5t156.5 70.5q92 0 155.5 -70t63.5 -181q0 -117 -62.5 -183t-156.5 -66q-95 0 -157.5 66t-62.5 183zM132 240q0 -213 128 -213q29 0 49 7t39.5 28t29 65.5t9.5 112.5q0 123 -34 168t-93 45q-28 0 -49 -8t-40 -29.5t-29 -65.5t-10 -110zM206 548v6
l-1 -1l85 164h87v-8l1 1l-129 -162h-43z" />
    <glyph glyph-name="ocircumflex" unicode="&#xf4;" horiz-adv-x="519" 
d="M40 239q0 110 63.5 180.5t156.5 70.5q92 0 155.5 -70t63.5 -181q0 -117 -62.5 -183t-156.5 -66q-95 0 -157.5 66t-62.5 183zM132 240q0 -213 128 -213q29 0 49 7t39.5 28t29 65.5t9.5 112.5q0 123 -34 168t-93 45q-28 0 -49 -8t-40 -29.5t-29 -65.5t-10 -110zM402 554v-6
h-38l-103 102l-103 -102h-38v6l-1 -1l121 164h42l121 -164z" />
    <glyph glyph-name="otilde" unicode="&#xf5;" horiz-adv-x="519" 
d="M40 239q0 110 63.5 180.5t156.5 70.5q92 0 155.5 -70t63.5 -181q0 -117 -62.5 -183t-156.5 -66q-95 0 -157.5 66t-62.5 183zM132 240q0 -213 128 -213q29 0 49 7t39.5 28t29 65.5t9.5 112.5q0 123 -34 168t-93 45q-28 0 -49 -8t-40 -29.5t-29 -65.5t-10 -110zM394 693
l17 -7q-14 -49 -41.5 -86t-51.5 -37q-14 0 -62 30t-66 30q-32 0 -58 -60q-3 1 -10 3t-10 4q12 40 40.5 81t44.5 41q14 0 62 -31q45 -31 68 -31q18 0 38 20t29 43z" />
    <glyph glyph-name="odieresis" unicode="&#xf6;" horiz-adv-x="519" 
d="M40 239q0 110 63.5 180.5t156.5 70.5q92 0 155.5 -70t63.5 -181q0 -117 -62.5 -183t-156.5 -66q-95 0 -157.5 66t-62.5 183zM132 240q0 -213 128 -213q29 0 49 7t39.5 28t29 65.5t9.5 112.5q0 123 -34 168t-93 45q-28 0 -49 -8t-40 -29.5t-29 -65.5t-10 -110zM395 617
q0 -19 -14.5 -34t-32.5 -15q-19 0 -33.5 15t-14.5 34q0 20 14.5 36t33.5 16q17 0 32 -16t15 -36zM223 617q0 -20 -14 -34.5t-34 -14.5q-19 0 -33.5 15t-14.5 34q0 20 14.5 36t33.5 16q20 0 34 -15.5t14 -36.5z" />
    <glyph glyph-name="divide" unicode="&#xf7;" horiz-adv-x="620" 
d="M570 230h-520v60h520v-60zM258 109q0 22 14.5 37t36.5 15t37 -15t15 -37t-15 -36.5t-37 -14.5t-36.5 14.5t-14.5 36.5zM258 411q0 22 14.5 37t36.5 15t37 -15t15 -37t-15 -36.5t-37 -14.5t-36.5 14.5t-14.5 36.5z" />
    <glyph glyph-name="oslash" unicode="&#xf8;" horiz-adv-x="519" 
d="M41 239q0 110 63.5 180.5t156.5 70.5q68 0 129 -45l50 67h41l-66 -90q65 -73 65 -183q0 -117 -62.5 -183t-156.5 -66q-70 0 -129 41l-49 -67h-42l66 88q-66 71 -66 187zM133 240q0 -72 15 -129l211 289q-30 53 -98 53q-28 0 -49 -8t-40 -29.5t-29 -65.5t-10 -110z
M388 240q0 71 -14 124l-209 -287q32 -50 96 -50q29 0 49 7t39.5 28t29 65.5t9.5 112.5z" />
    <glyph glyph-name="ugrave" unicode="&#xf9;" horiz-adv-x="555" 
d="M386 61h-22q-63 -71 -140 -71q-57 0 -96 38.5t-39 122.5v259q0 18 -20 20q-9 1 -25 3t-24 2v35l152 10v-365q0 -71 71 -71q68 0 134 63v304q0 6 -0.5 9.5t-3.5 5.5t-5 2.5t-9 1.5q-9 0 -25.5 2t-24.5 3v35l152 10v-372q0 -48 11.5 -59t62.5 -11v-32l-109 -11h-36z
M319 554v-6h-44l-129 162l1 -1v8h86l87 -164z" />
    <glyph glyph-name="uacute" unicode="&#xfa;" horiz-adv-x="555" 
d="M386 61h-22q-63 -71 -140 -71q-57 0 -96 38.5t-39 122.5v259q0 18 -20 20q-9 1 -25 3t-24 2v35l152 10v-365q0 -71 71 -71q68 0 134 63v304q0 6 -0.5 9.5t-3.5 5.5t-5 2.5t-9 1.5q-9 0 -25.5 2t-24.5 3v35l152 10v-372q0 -48 11.5 -59t62.5 -11v-32l-109 -11h-36z
M208 548v6l-1 -1l85 164h87v-8l1 1l-129 -162h-43z" />
    <glyph glyph-name="ucircumflex" unicode="&#xfb;" horiz-adv-x="555" 
d="M386 61h-22q-63 -71 -140 -71q-57 0 -96 38.5t-39 122.5v259q0 18 -20 20q-9 1 -25 3t-24 2v35l152 10v-365q0 -71 71 -71q68 0 134 63v304q0 6 -0.5 9.5t-3.5 5.5t-5 2.5t-9 1.5q-9 0 -25.5 2t-24.5 3v35l152 10v-372q0 -48 11.5 -59t62.5 -11v-32l-109 -11h-36z
M404 554v-6h-38l-103 102l-103 -102h-38v6l-1 -1l121 164h42l121 -164z" />
    <glyph glyph-name="udieresis" unicode="&#xfc;" horiz-adv-x="555" 
d="M386 61h-22q-63 -71 -140 -71q-57 0 -96 38.5t-39 122.5v259q0 18 -20 20q-9 1 -25 3t-24 2v35l152 10v-365q0 -71 71 -71q68 0 134 63v304q0 6 -0.5 9.5t-3.5 5.5t-5 2.5t-9 1.5q-9 0 -25.5 2t-24.5 3v35l152 10v-372q0 -48 11.5 -59t62.5 -11v-32l-109 -11h-36z
M397 617q0 -19 -14.5 -34t-32.5 -15q-19 0 -33.5 15t-14.5 34q0 20 14.5 36t33.5 16q17 0 32 -16t15 -36zM225 617q0 -20 -14 -34.5t-34 -14.5q-19 0 -33.5 15t-14.5 34q0 20 14.5 36t33.5 16q20 0 34 -15.5t14 -36.5z" />
    <glyph glyph-name="yacute" unicode="&#xfd;" horiz-adv-x="524" 
d="M294 104h15l86 241q11 31 11 54q0 49 -75 57v24h198v-25q-61 -12 -90 -87q-165 -438 -186 -492q-43 -103 -125 -103q-43 0 -65 24.5t-22 57.5q0 28 14.5 43t36.5 15q20 0 31 -15l-1 1v-90q68 0 102 80l33 104l-157 376q-21 40 -45 61t-60 26v24h242v-24q-21 -2 -34 -5.5
t-22.5 -12t-9.5 -21.5q0 -16 12 -40zM230 546v6l-1 -1l86 164h86v-8l1 1l-129 -162h-43z" />
    <glyph glyph-name="thorn" unicode="&#xfe;" horiz-adv-x="525" 
d="M160 39v-197q0 -20 28 -23q9 -1 26.5 -3t26.5 -2v-31h-220v31l18 5q24 6 34.5 16t10.5 30v640l-2 119q0 50 -17.5 64t-71.5 14v31l139 9h38l-7 -137l-3 -179h15q54 64 114 64q95 0 145.5 -67t50.5 -178q0 -120 -59 -187t-137 -67q-77 0 -114 48h-15zM277 444
q-66 0 -117 -86v-242q36 -80 109 -80q123 0 123 199q0 209 -115 209z" />
    <glyph glyph-name="ydieresis" unicode="&#xff;" horiz-adv-x="524" 
d="M294 104h15l86 241q11 31 11 54q0 49 -75 57v24h198v-25q-61 -12 -90 -87q-165 -438 -186 -492q-43 -103 -125 -103q-43 0 -65 24.5t-22 57.5q0 28 14.5 43t36.5 15q20 0 31 -15l-1 1v-90q68 0 102 80l33 104l-157 376q-21 40 -45 61t-60 26v24h242v-24q-21 -2 -34 -5.5
t-22.5 -12t-9.5 -21.5q0 -16 12 -40zM420 615q0 -19 -15 -34t-33 -15q-19 0 -33.5 15t-14.5 34q0 20 14.5 36t33.5 16q18 0 33 -16t15 -36zM247 615q0 -20 -14 -34.5t-33 -14.5q-20 0 -34.5 15t-14.5 34q0 20 15 36t34 16t33 -15.5t14 -36.5z" />
    <glyph glyph-name="Amacron" unicode="&#x100;" horiz-adv-x="720" 
d="M505 78l-47 127h-256l-43 -125q-8 -25 12.5 -34.5t82.5 -9.5v-36h-233v36q41 1 64 14.5t36 48.5l223 602h14l244 -609q15 -33 34.5 -44t62.5 -12v-36h-280v36h23q53 0 63 6.5t0 35.5zM334 531h-17l-100 -283h224zM476 784h-246v54h246v-54z" />
    <glyph glyph-name="amacron" unicode="&#x101;" horiz-adv-x="492" 
d="M427 57l47 -4q-1 -31 -22 -48t-45 -17q-69 0 -78 67h-15q-70 -67 -145 -67q-58 0 -91 33.5t-33 89.5q0 31 12.5 54.5t38 39t47.5 24t58 18.5l115 33v72q0 51 -25 76.5t-59 25.5q-56 0 -86 -20l11 -94q-19 -15 -46 -15q-47 0 -47 47q0 53 49.5 85.5t137.5 32.5
q146 0 146 -142v-263q0 -18 7 -22.5t23 -5.5zM316 91v155l-106 -33q-40 -12 -60 -34.5t-20 -63.5q0 -36 20 -55.5t50 -19.5q34 0 65.5 15.5t50.5 35.5zM359 570h-246v54h246v-54z" />
    <glyph glyph-name="Abreve" unicode="&#x102;" horiz-adv-x="720" 
d="M505 78l-47 127h-256l-43 -125q-8 -25 12.5 -34.5t82.5 -9.5v-36h-233v36q41 1 64 14.5t36 48.5l223 602h14l244 -609q15 -33 34.5 -44t62.5 -12v-36h-280v36h23q53 0 63 6.5t0 35.5zM334 531h-17l-100 -283h224zM353 751q-48 0 -81.5 32.5t-34.5 96.5h31q1 -30 25 -51.5
t60 -21.5q34 0 59.5 21t26.5 52h30q-1 -63 -34.5 -96t-81.5 -33z" />
    <glyph glyph-name="abreve" unicode="&#x103;" horiz-adv-x="492" 
d="M427 57l47 -4q-1 -31 -22 -48t-45 -17q-69 0 -78 67h-15q-70 -67 -145 -67q-58 0 -91 33.5t-33 89.5q0 31 12.5 54.5t38 39t47.5 24t58 18.5l115 33v72q0 51 -25 76.5t-59 25.5q-56 0 -86 -20l11 -94q-19 -15 -46 -15q-47 0 -47 47q0 53 49.5 85.5t137.5 32.5
q146 0 146 -142v-263q0 -18 7 -22.5t23 -5.5zM316 91v155l-106 -33q-40 -12 -60 -34.5t-20 -63.5q0 -36 20 -55.5t50 -19.5q34 0 65.5 15.5t50.5 35.5zM236 548q-48 0 -82 38t-34 111h30q1 -36 25.5 -62.5t60.5 -26.5q35 0 60.5 25t25.5 64h30q-1 -72 -35 -110.5t-81 -38.5z
" />
    <glyph glyph-name="Aogonek" unicode="&#x104;" horiz-adv-x="720" 
d="M505 78l-47 127h-256l-43 -125q-8 -25 12.5 -34.5t82.5 -9.5v-36h-233v36q41 1 64 14.5t36 48.5l223 602h14l244 -609q15 -33 34.5 -44t62.5 -12v-36h-240q-63 -43 -63 -105q0 -64 51 -64q8 0 11 1v-29q-14 -3 -30 -3q-37 0 -64.5 20t-27.5 56q0 70 83 123v37h23
q53 0 63 6.5t0 35.5zM334 531h-17l-100 -283h224z" />
    <glyph glyph-name="aogonek" unicode="&#x105;" horiz-adv-x="492" 
d="M427 57l47 -5q-1 -28 -17.5 -43.5t-39.5 -19.5q-48 -41 -48 -94q0 -64 51 -64q8 0 11 1v-30q-13 -3 -30 -3q-37 0 -64.5 20.5t-27.5 56.5q0 64 70 115q-44 13 -50 64h-15q-70 -67 -145 -67q-58 0 -91 33.5t-33 89.5q0 31 12.5 54.5t38 39t47.5 24t58 18.5l115 33v72
q0 51 -25 76.5t-59 25.5q-56 0 -86 -20l11 -94q-19 -15 -46 -15q-47 0 -47 47q0 53 49.5 85.5t137.5 32.5q146 0 146 -142v-263q0 -18 7 -22.5t23 -5.5zM316 91v155l-106 -33q-40 -12 -60 -34.5t-20 -63.5q0 -36 20 -55.5t50 -19.5q34 0 65.5 15.5t50.5 35.5z" />
    <glyph glyph-name="Cacute" unicode="&#x106;" horiz-adv-x="684" 
d="M559 656l10 2q4 5 11.5 16.5t11.5 16.5h24l4 -258h-33q-15 92 -66 159.5t-137 67.5q-105 0 -162.5 -87t-57.5 -230q0 -313 225 -313q159 0 202 192h37q-4 -29 -11.5 -89.5t-11.5 -89.5q-39 -24 -98.5 -39.5t-119.5 -15.5q-151 0 -241 96.5t-90 260.5q0 147 100.5 251.5
t231.5 104.5q106 0 171 -45zM330 751v6l-1 -1l85 129h87v-8l2 1l-129 -127h-44z" />
    <glyph glyph-name="cacute" unicode="&#x107;" horiz-adv-x="472" 
d="M414 147l27 -9q-20 -67 -66 -107.5t-112 -40.5q-94 0 -158 62t-64 183q0 110 65.5 182.5t156.5 72.5q66 0 114.5 -35t48.5 -88q0 -35 -14.5 -53.5t-37.5 -18.5q-27 0 -41.5 19.5t-13.5 48.5l-1 -1l28 46q-14 44 -76 44q-61 0 -99 -48t-38 -155q0 -108 42.5 -158
t108.5 -50q48 0 82 30t48 76zM203 548v6l-1 -1l85 164h87v-8l1 1l-129 -162h-43z" />
    <glyph glyph-name="Ccircumflex" unicode="&#x108;" horiz-adv-x="684" 
d="M559 656l10 2q4 5 11.5 16.5t11.5 16.5h24l4 -258h-33q-15 92 -66 159.5t-137 67.5q-105 0 -162.5 -87t-57.5 -230q0 -313 225 -313q159 0 202 192h37q-4 -29 -11.5 -89.5t-11.5 -89.5q-39 -24 -98.5 -39.5t-119.5 -15.5q-151 0 -241 96.5t-90 260.5q0 147 100.5 251.5
t231.5 104.5q106 0 171 -45zM526 757v-6h-38l-103 72l-102 -72h-39v6l-1 -1l121 129h42z" />
    <glyph glyph-name="ccircumflex" unicode="&#x109;" horiz-adv-x="472" 
d="M414 147l27 -9q-20 -67 -66 -107.5t-112 -40.5q-94 0 -158 62t-64 183q0 110 65.5 182.5t156.5 72.5q66 0 114.5 -35t48.5 -88q0 -35 -14.5 -53.5t-37.5 -18.5q-27 0 -41.5 19.5t-13.5 48.5l-1 -1l28 46q-14 44 -76 44q-61 0 -99 -48t-38 -155q0 -108 42.5 -158
t108.5 -50q48 0 82 30t48 76zM399 554v-6h-38l-103 102l-103 -102h-38v6l-1 -1l121 164h42l121 -164z" />
    <glyph glyph-name="Cdotaccent" unicode="&#x10a;" horiz-adv-x="684" 
d="M559 656l10 2q4 5 11.5 16.5t11.5 16.5h24l4 -258h-33q-15 92 -66 159.5t-137 67.5q-105 0 -162.5 -87t-57.5 -230q0 -313 225 -313q159 0 202 192h37q-4 -29 -11.5 -89.5t-11.5 -89.5q-39 -24 -98.5 -39.5t-119.5 -15.5q-151 0 -241 96.5t-90 260.5q0 147 100.5 251.5
t231.5 104.5q106 0 171 -45zM325 826q0 26 17 44.5t42 18.5t43.5 -18.5t18.5 -44.5t-18.5 -44.5t-43.5 -18.5t-42 18.5t-17 44.5z" />
    <glyph glyph-name="cdotaccent" unicode="&#x10b;" horiz-adv-x="472" 
d="M414 147l27 -9q-20 -67 -66 -107.5t-112 -40.5q-94 0 -158 62t-64 183q0 110 65.5 182.5t156.5 72.5q66 0 114.5 -35t48.5 -88q0 -35 -14.5 -53.5t-37.5 -18.5q-27 0 -41.5 19.5t-13.5 48.5l-1 -1l28 46q-14 44 -76 44q-61 0 -99 -48t-38 -155q0 -108 42.5 -158
t108.5 -50q48 0 82 30t48 76zM198 642q0 27 17 45.5t42 18.5t43.5 -18.5t18.5 -45.5q0 -26 -18.5 -44t-43.5 -18t-42 18t-17 44z" />
    <glyph glyph-name="Ccaron" unicode="&#x10c;" horiz-adv-x="684" 
d="M559 656l10 2q4 5 11.5 16.5t11.5 16.5h24l4 -258h-33q-15 92 -66 159.5t-137 67.5q-105 0 -162.5 -87t-57.5 -230q0 -313 225 -313q159 0 202 192h37q-4 -29 -11.5 -89.5t-11.5 -89.5q-39 -24 -98.5 -39.5t-119.5 -15.5q-151 0 -241 96.5t-90 260.5q0 147 100.5 251.5
t231.5 104.5q106 0 171 -45zM526 885v-6l-120 -128h-42l-120 128v6h39l102 -71l103 71h38z" />
    <glyph glyph-name="ccaron" unicode="&#x10d;" horiz-adv-x="472" 
d="M414 147l27 -9q-20 -67 -66 -107.5t-112 -40.5q-94 0 -158 62t-64 183q0 110 65.5 182.5t156.5 72.5q66 0 114.5 -35t48.5 -88q0 -35 -14.5 -53.5t-37.5 -18.5q-27 0 -41.5 19.5t-13.5 48.5l-1 -1l28 46q-14 44 -76 44q-61 0 -99 -48t-38 -155q0 -108 42.5 -158
t108.5 -50q48 0 82 30t48 76zM399 717v-6l1 1l-121 -164h-42l-121 164l1 -1v6h38l103 -103l103 103h38z" />
    <glyph glyph-name="Dcaron" unicode="&#x10e;" horiz-adv-x="761" 
d="M705 345q0 -51 -13 -100t-41.5 -93.5t-70 -78t-103 -53.5t-135.5 -20h-309v36q37 1 54 2t30 5t16 10t3 19v551q0 23 -16 28t-87 5v35h307q80 0 144.5 -22t105 -57t67 -82t37.5 -92.5t11 -92.5zM595 344q0 67 -15 121.5t-47 98.5t-88 68t-133 24h-82v-620h110q69 0 120 27
t79.5 72.5t42 98t13.5 110.5zM464 885v-6l-120 -128h-42l-120 128v6h38l103 -71l102 71h39z" />
    <glyph glyph-name="dcaron" unicode="&#x10f;" horiz-adv-x="536" 
d="M235 -10q-94 0 -144.5 62.5t-50.5 180.5q0 123 60.5 190t139.5 67q35 0 55.5 -8t44.5 -29h16v180q0 39 -18 54t-69 15v30l145 10h32l-5 -214v-451q0 -22 15.5 -28.5t64.5 -6.5v-34l-130 -13h-18l-13 62h-16q-52 -67 -109 -67zM356 114v260q-18 40 -42.5 55.5t-64.5 15.5
q-57 0 -87 -45.5t-30 -158.5q0 -205 115 -205q36 0 65 20.5t44 57.5zM512 538v7l16 198h75v-7q-10 -33 -28 -100.5l-26 -97.5h-37z" />
    <glyph glyph-name="Dcroat" unicode="&#x110;" horiz-adv-x="761" 
d="M705 345q0 -51 -13 -100t-41.5 -93.5t-70 -78t-103 -53.5t-135.5 -20h-309v36q37 1 54 2t30 5t16 10t3 19v250h-84v51h84v250q0 23 -16 28t-87 5v35h307q80 0 144.5 -22t105 -57t67 -82t37.5 -92.5t11 -92.5zM595 344q0 67 -15 121.5t-47 98.5t-88 68t-133 24h-82v-283
h207v-51h-207v-286h110q69 0 120 27t79.5 72.5t42 98t13.5 110.5z" />
    <glyph glyph-name="dcroat" unicode="&#x111;" horiz-adv-x="536" 
d="M217 605h139v28q0 39 -18 54t-69 15v30l145 10h32l-4 -137h59v-46h-60v-482q0 -22 15.5 -28.5t64.5 -6.5v-34l-130 -13h-18l-13 62h-16q-52 -67 -109 -67q-94 0 -144.5 62.5t-50.5 180.5q0 123 60.5 190t139.5 67q35 0 55.5 -8t44.5 -29h16v106h-139v46zM356 114v260
q-18 40 -42.5 55.5t-64.5 15.5q-57 0 -87 -45.5t-30 -158.5q0 -205 115 -205q36 0 65 20.5t44 57.5z" />
    <glyph glyph-name="Emacron" unicode="&#x112;" horiz-adv-x="661" 
d="M618 244l-13 -244h-572v36q67 0 85 5t18 26v556q0 22 -18 27.5t-85 5.5v35h541q2 -36 6 -107t5 -107h-29q-18 102 -49.5 140.5t-103.5 38.5h-173v-297h80q105 0 105 138h26v-310h-26q0 82 -22 107.5t-89 25.5h-74v-284h197q74 0 116.5 64t42.5 144h32zM462 784h-246v54
h246v-54z" />
    <glyph glyph-name="emacron" unicode="&#x113;" horiz-adv-x="475" 
d="M414 151l26 -9q-21 -70 -70 -111t-122 -41q-90 0 -148.5 63t-58.5 181q0 112 58.5 184t147.5 72q79 0 129 -54.5t56 -151.5v-24h-298q-1 -12 -1 -25q0 -106 34 -152.5t102 -46.5q58 0 94 32t51 83zM344 297v19q-9 131 -99 131q-50 0 -76.5 -35.5t-31.5 -114.5h207z
M368 570h-246v54h246v-54z" />
    <glyph glyph-name="Edotaccent" unicode="&#x116;" horiz-adv-x="661" 
d="M618 244l-13 -244h-572v36q67 0 85 5t18 26v556q0 22 -18 27.5t-85 5.5v35h541q2 -36 6 -107t5 -107h-29q-18 102 -49.5 140.5t-103.5 38.5h-173v-297h80q105 0 105 138h26v-310h-26q0 82 -22 107.5t-89 25.5h-74v-284h197q74 0 116.5 64t42.5 144h32zM279 826
q0 26 17 44.5t42 18.5t43 -18.5t18 -44.5t-18 -44.5t-43 -18.5t-42 18.5t-17 44.5z" />
    <glyph glyph-name="edotaccent" unicode="&#x117;" horiz-adv-x="475" 
d="M414 151l26 -9q-21 -70 -70 -111t-122 -41q-90 0 -148.5 63t-58.5 181q0 112 58.5 184t147.5 72q79 0 129 -54.5t56 -151.5v-24h-298q-1 -12 -1 -25q0 -106 34 -152.5t102 -46.5q58 0 94 32t51 83zM344 297v19q-9 131 -99 131q-50 0 -76.5 -35.5t-31.5 -114.5h207z
M185 642q0 27 17 45.5t42 18.5t43.5 -18.5t18.5 -45.5q0 -26 -18.5 -44t-43.5 -18t-42 18t-17 44z" />
    <glyph glyph-name="Eogonek" unicode="&#x118;" horiz-adv-x="661" 
d="M618 244l-13 -244h-30q-62 -43 -62 -105q0 -64 50 -64q8 0 11 1v-29q-14 -3 -29 -3q-37 0 -64.5 20t-27.5 56q0 69 83 124h-503v36q67 0 85 5t18 26v556q0 22 -18 27.5t-85 5.5v35h541q2 -36 6 -107t5 -107h-29q-18 102 -49.5 140.5t-103.5 38.5h-173v-297h80
q105 0 105 138h26v-310h-26q0 82 -22 107.5t-89 25.5h-74v-284h197q74 0 116.5 64t42.5 144h32z" />
    <glyph glyph-name="eogonek" unicode="&#x119;" horiz-adv-x="475" 
d="M413 151l27 -9q-31 -105 -119 -139q-68 -45 -68 -108q0 -64 51 -64q8 0 11 1v-30q-13 -3 -30 -3q-37 0 -64.5 20.5t-27.5 56.5q0 63 68 114h-14q-90 0 -148.5 63t-58.5 181q0 112 58.5 184t147.5 72q79 0 129 -54.5t56 -151.5v-24h-298q-1 -12 -1 -25q0 -106 34 -152.5
t102 -46.5q58 0 94 32t51 83zM343 297v19q-9 131 -99 131q-50 0 -76.5 -35.5t-31.5 -114.5h207z" />
    <glyph glyph-name="Ecaron" unicode="&#x11a;" horiz-adv-x="661" 
d="M618 244l-13 -244h-572v36q67 0 85 5t18 26v556q0 22 -18 27.5t-85 5.5v35h541q2 -36 6 -107t5 -107h-29q-18 102 -49.5 140.5t-103.5 38.5h-173v-297h80q105 0 105 138h26v-310h-26q0 82 -22 107.5t-89 25.5h-74v-284h197q74 0 116.5 64t42.5 144h32zM480 885v-6
l-120 -128h-42l-120 128v6h38l103 -71l103 71h38z" />
    <glyph glyph-name="ecaron" unicode="&#x11b;" horiz-adv-x="475" 
d="M414 151l26 -9q-21 -70 -70 -111t-122 -41q-90 0 -148.5 63t-58.5 181q0 112 58.5 184t147.5 72q79 0 129 -54.5t56 -151.5v-24h-298q-1 -12 -1 -25q0 -106 34 -152.5t102 -46.5q58 0 94 32t51 83zM344 297v19q-9 131 -99 131q-50 0 -76.5 -35.5t-31.5 -114.5h207z
M386 717v-6l1 1l-121 -164h-42l-121 164l1 -1v6h38l103 -103l103 103h38z" />
    <glyph glyph-name="Gcircumflex" unicode="&#x11c;" horiz-adv-x="727" 
d="M627 226v-232h-17l-55 88q-67 -94 -187 -94q-58 0 -112 20.5t-99.5 61.5t-73 111.5t-27.5 160.5q0 162 93 260.5t220 98.5q113 0 185 -46h13l20 31h22l4 -239h-28q-20 84 -75.5 148.5t-136.5 64.5q-58 0 -99.5 -23t-65 -67t-34 -100.5t-10.5 -129.5q0 -147 57 -229
t158 -82q103 0 153 99v97q0 43 -17 53.5t-79 10.5v30h273v-30q-56 0 -68.5 -10t-13.5 -53zM519 757v-6h-38l-103 72l-102 -72h-39v6l-1 -1l121 129h42z" />
    <glyph glyph-name="gcircumflex" unicode="&#x11d;" horiz-adv-x="518" 
d="M374 438l69 62q9 -3 26.5 -7.5t27.5 -7.5v-67h-104l-9 -11q26 -41 26 -86q0 -74 -48.5 -114.5t-123.5 -40.5q-110 0 -110 -54q0 -22 16 -31.5t57 -11.5q28 -1 84.5 -4t84.5 -4q111 -6 111 -116q0 -70 -69 -121t-178 -51q-89 0 -146 31.5t-57 87.5q0 38 25.5 68.5
t69.5 43.5v13q-60 27 -60 82q0 27 21.5 49.5t66.5 33.5v9q-48 24 -71.5 53.5t-23.5 76.5q0 78 50.5 123.5t127.5 45.5q36 0 73.5 -14.5t63.5 -37.5zM326 318q0 71 -22.5 102t-69.5 31q-91 0 -91 -133q0 -115 91 -115q49 0 70.5 24.5t21.5 90.5zM420 -84q0 30 -19 46.5
t-68 18.5l-187 8q-16 -11 -25.5 -19t-20 -28t-10.5 -45q0 -43 41 -66t107 -23q83 0 132.5 31t49.5 77zM375 554v-6h-38l-103 102l-103 -102h-38v6l-1 -1l121 164h42l121 -164z" />
    <glyph glyph-name="Gbreve" unicode="&#x11e;" horiz-adv-x="727" 
d="M627 226v-232h-17l-55 88q-67 -94 -187 -94q-58 0 -112 20.5t-99.5 61.5t-73 111.5t-27.5 160.5q0 162 93 260.5t220 98.5q113 0 185 -46h13l20 31h22l4 -239h-28q-20 84 -75.5 148.5t-136.5 64.5q-58 0 -99.5 -23t-65 -67t-34 -100.5t-10.5 -129.5q0 -147 57 -229
t158 -82q103 0 153 99v97q0 43 -17 53.5t-79 10.5v30h273v-30q-56 0 -68.5 -10t-13.5 -53zM378 751q-48 0 -81 32.5t-34 96.5h30q1 -30 25 -51.5t60 -21.5q34 0 59.5 21t26.5 52h30q-1 -64 -34.5 -96.5t-81.5 -32.5z" />
    <glyph glyph-name="gbreve" unicode="&#x11f;" horiz-adv-x="518" 
d="M374 438l69 62q9 -3 26.5 -7.5t27.5 -7.5v-67h-104l-9 -11q26 -41 26 -86q0 -74 -48.5 -114.5t-123.5 -40.5q-110 0 -110 -54q0 -22 16 -31.5t57 -11.5q28 -1 84.5 -4t84.5 -4q111 -6 111 -116q0 -70 -69 -121t-178 -51q-89 0 -146 31.5t-57 87.5q0 38 25.5 68.5
t69.5 43.5v13q-60 27 -60 82q0 27 21.5 49.5t66.5 33.5v9q-48 24 -71.5 53.5t-23.5 76.5q0 78 50.5 123.5t127.5 45.5q36 0 73.5 -14.5t63.5 -37.5zM326 318q0 71 -22.5 102t-69.5 31q-91 0 -91 -133q0 -115 91 -115q49 0 70.5 24.5t21.5 90.5zM420 -84q0 30 -19 46.5
t-68 18.5l-187 8q-16 -11 -25.5 -19t-20 -28t-10.5 -45q0 -43 41 -66t107 -23q83 0 132.5 31t49.5 77zM234 548q-48 0 -82 38t-34 111h30q1 -36 25.5 -62.5t60.5 -26.5q35 0 60.5 25t25.5 64h30q-1 -72 -35 -110.5t-81 -38.5z" />
    <glyph glyph-name="Gdotaccent" unicode="&#x120;" horiz-adv-x="727" 
d="M627 226v-232h-17l-55 88q-67 -94 -187 -94q-58 0 -112 20.5t-99.5 61.5t-73 111.5t-27.5 160.5q0 162 93 260.5t220 98.5q113 0 185 -46h13l20 31h22l4 -239h-28q-20 84 -75.5 148.5t-136.5 64.5q-58 0 -99.5 -23t-65 -67t-34 -100.5t-10.5 -129.5q0 -147 57 -229
t158 -82q103 0 153 99v97q0 43 -17 53.5t-79 10.5v30h273v-30q-56 0 -68.5 -10t-13.5 -53zM318 826q0 26 17 44.5t42 18.5t43.5 -18.5t18.5 -44.5t-18.5 -44.5t-43.5 -18.5t-42 18.5t-17 44.5z" />
    <glyph glyph-name="gdotaccent" unicode="&#x121;" horiz-adv-x="518" 
d="M374 438l69 62q9 -3 26.5 -7.5t27.5 -7.5v-67h-104l-9 -11q26 -41 26 -86q0 -74 -48.5 -114.5t-123.5 -40.5q-110 0 -110 -54q0 -22 16 -31.5t57 -11.5q28 -1 84.5 -4t84.5 -4q111 -6 111 -116q0 -70 -69 -121t-178 -51q-89 0 -146 31.5t-57 87.5q0 38 25.5 68.5
t69.5 43.5v13q-60 27 -60 82q0 27 21.5 49.5t66.5 33.5v9q-48 24 -71.5 53.5t-23.5 76.5q0 78 50.5 123.5t127.5 45.5q36 0 73.5 -14.5t63.5 -37.5zM326 318q0 71 -22.5 102t-69.5 31q-91 0 -91 -133q0 -115 91 -115q49 0 70.5 24.5t21.5 90.5zM420 -84q0 30 -19 46.5
t-68 18.5l-187 8q-16 -11 -25.5 -19t-20 -28t-10.5 -45q0 -43 41 -66t107 -23q83 0 132.5 31t49.5 77zM173 642q0 27 17.5 45.5t42.5 18.5t43 -18.5t18 -45.5q0 -26 -18 -44t-43 -18t-42.5 18t-17.5 44z" />
    <glyph glyph-name="Gcommaaccent" unicode="&#x122;" horiz-adv-x="727" 
d="M627 226v-232h-17l-55 88q-67 -94 -187 -94q-58 0 -112 20.5t-99.5 61.5t-73 111.5t-27.5 160.5q0 162 93 260.5t220 98.5q113 0 185 -46h13l20 31h22l4 -239h-28q-20 84 -75.5 148.5t-136.5 64.5q-58 0 -99.5 -23t-65 -67t-34 -100.5t-10.5 -129.5q0 -147 57 -229
t158 -82q103 0 153 99v97q0 43 -17 53.5t-79 10.5v30h273v-30q-56 0 -68.5 -10t-13.5 -53zM334 -90q0 14 11 25t29 11q26 0 44 -22.5t18 -56.5q0 -63 -79 -108l-16 23q47 27 47 59q0 18 -30 38q-24 16 -24 31z" />
    <glyph glyph-name="gcommaaccent" unicode="&#x123;" horiz-adv-x="518" 
d="M374 438l69 62q9 -3 26.5 -7.5t27.5 -7.5v-67h-104l-9 -11q26 -41 26 -86q0 -74 -48.5 -114.5t-123.5 -40.5q-110 0 -110 -54q0 -22 16 -31.5t57 -11.5q28 -1 84.5 -4t84.5 -4q111 -6 111 -116q0 -70 -69 -121t-178 -51q-89 0 -146 31.5t-57 87.5q0 38 25.5 68.5
t69.5 43.5v13q-60 27 -60 82q0 27 21.5 49.5t66.5 33.5v9q-48 24 -71.5 53.5t-23.5 76.5q0 78 50.5 123.5t127.5 45.5q36 0 73.5 -14.5t63.5 -37.5zM326 318q0 71 -22.5 102t-69.5 31q-91 0 -91 -133q0 -115 91 -115q49 0 70.5 24.5t21.5 90.5zM420 -84q0 30 -19 46.5
t-68 18.5l-187 8q-16 -11 -25.5 -19t-20 -28t-10.5 -45q0 -43 41 -66t107 -23q83 0 132.5 31t49.5 77zM277 592q0 -14 -11.5 -25.5t-29.5 -11.5q-27 0 -45.5 23.5t-18.5 58.5q0 68 81 115l17 -24q-48 -30 -48 -62q0 -23 30 -41q25 -15 25 -33z" />
    <glyph glyph-name="Hbar" unicode="&#x126;" horiz-adv-x="799" 
d="M59 529h77v75q0 32 -24 42t-79 10v35h300v-35q-60 0 -81.5 -9t-21.5 -43v-75h338v75q0 34 -20.5 43t-82.5 9v35h301v-35q-65 0 -84.5 -9t-19.5 -43v-75h88v-42h-88v-400q0 -34 18.5 -42.5t85.5 -8.5v-36h-301v36q68 3 85.5 10.5t17.5 40.5v247h-338v-247q0 -33 20 -42
t83 -9v-36h-300v36q62 0 82.5 9t20.5 42v400h-77v42zM230 377h338v110h-338v-110z" />
    <glyph glyph-name="hbar" unicode="&#x127;" horiz-adv-x="555" 
d="M18 595h75l-1 37q0 37 -19.5 53t-67.5 17v31l129 9h51l-5 -147h123v-46h-124v-116h22q67 57 128 57q60 0 99 -37t39 -119v-289l5 -9q9 0 31 -2t32 -3v-31h-210v31l27 5q32 5 32 25l-1 319q0 61 -80 61q-69 0 -124 -59v-338q0 -6 1.5 -7t8.5 -1q9 0 28.5 -2t29.5 -3v-31
h-222v31l37 5q18 2 25.5 8.5t7.5 24.5v428l-1 52h-76v46z" />
    <glyph glyph-name="Imacron" unicode="&#x12a;" horiz-adv-x="379" 
d="M340 691v-35q-67 0 -85.5 -7.5t-18.5 -34.5v-532q0 -32 16 -39t88 -7v-36h-301v36q67 0 85 8t18 38v532q0 29 -17 35.5t-86 6.5v35h301zM312 784h-246v54h246v-54z" />
    <glyph glyph-name="imacron" unicode="&#x12b;" horiz-adv-x="296" 
d="M196 52q0 -16 10 -16t29.5 -2t28.5 -3v-31h-224v31l31 5q41 5 41 48v293q0 40 -18 51.5t-67 11.5v31l135 9h34v-428zM276 567h-246v54h246v-54z" />
    <glyph glyph-name="Iogonek" unicode="&#x12e;" horiz-adv-x="379" 
d="M340 691v-35q-67 0 -85.5 -7.5t-18.5 -34.5v-532q0 -32 16 -39t88 -7v-36h-29q-63 -44 -63 -105q0 -64 51 -64q8 0 11 1v-29q-13 -3 -29 -3q-38 0 -65.5 20t-27.5 56q0 70 84 124h-233v36q67 0 85 8t18 38v532q0 29 -17 35.5t-86 6.5v35h301z" />
    <glyph glyph-name="iogonek" unicode="&#x12f;" horiz-adv-x="296" 
d="M196 52q0 -16 10 -16t29.5 -2t28.5 -3v-31h-29q-63 -44 -63 -105q0 -64 51 -64q8 0 11 1v-30q-14 -3 -29 -3q-38 0 -65.5 20.5t-27.5 56.5q0 70 84 124h-156v31l31 5q41 5 41 48v293q0 40 -18 51.5t-67 11.5v31l135 9h34v-428zM87 681q0 26 16.5 44t41.5 18t42.5 -18
t17.5 -44q0 -25 -17.5 -42.5t-42.5 -17.5t-41.5 17.5t-16.5 42.5z" />
    <glyph glyph-name="Idotaccent" unicode="&#x130;" horiz-adv-x="379" 
d="M340 691v-35q-67 0 -85.5 -7.5t-18.5 -34.5v-532q0 -32 16 -39t88 -7v-36h-301v36q67 0 85 8t18 38v532q0 29 -17 35.5t-86 6.5v35h301zM129 826q0 26 17 44.5t42 18.5t43 -18.5t18 -44.5t-18 -44.5t-43 -18.5t-42 18.5t-17 44.5z" />
    <glyph glyph-name="dotlessi" unicode="&#x131;" horiz-adv-x="296" 
d="M196 52q0 -16 10 -16t29.5 -2t28.5 -3v-31h-224v31l31 5q41 5 41 48v293q0 40 -18 51.5t-67 11.5v31l135 9h34v-428z" />
    <glyph glyph-name="Kcommaaccent" unicode="&#x136;" horiz-adv-x="723" 
d="M514 574l-153 -168l256 -317q23 -30 41 -41t52 -12v-36h-270v36q66 3 66 21q0 10 -15 30l-195 248l-66 -72v-149q0 -51 19 -64.5t81 -13.5v-36h-297v36q70 0 86.5 13t16.5 65v467q0 52 -19 63.5t-84 11.5v35h300v-35q-65 0 -84 -12.5t-19 -62.5v-253h12l233 257h-1
q22 21 22 36t-17 24.5t-44 9.5v36h248v-36q-97 -10 -169 -81zM346 -90q0 14 11 25t29 11q26 0 44 -22.5t18 -56.5q0 -63 -79 -108l-16 23q47 27 47 59q0 18 -30 38q-24 16 -24 31z" />
    <glyph glyph-name="kcommaaccent" unicode="&#x137;" horiz-adv-x="548" 
d="M366 376l-81 -80l176 -232q10 -15 17 -19.5t28 -8.5q5 0 16.5 -2t17.5 -3v-31h-141l-169 236h-35v-180q0 -17 30 -20l44 -5v-31h-233v31l32 5q43 5 43 57v423l-3 122q-2 36 -20.5 50t-67.5 14v30l151 10h29l-5 -223v-243h37l97 112q27 30 27 46q0 19 -37 22v24h183v-35
q-70 -14 -136 -69zM279 -103q0 14 11.5 24.5t29.5 10.5q26 0 43.5 -22t17.5 -56q0 -65 -78 -109l-17 23q48 27 48 60q0 18 -30 38q-25 15 -25 31z" />
    <glyph glyph-name="Lacute" unicode="&#x139;" horiz-adv-x="602" 
d="M571 239l-13 -239h-524v36q61 0 82 8t21 38v533q0 27 -17.5 34t-85.5 7v35h311v-35q-81 0 -97.5 -6t-16.5 -34v-580h138q77 0 121 54t44 149h37zM129 751v6l-1 -1l85 129h87v-8l2 1l-129 -127h-44z" />
    <glyph glyph-name="lacute" unicode="&#x13a;" horiz-adv-x="306" 
d="M200 524v-472q0 -7 5 -11.5t11 -4.5q10 0 29 -2t28 -3v-31h-232v31l34 5q41 5 41 48v453q-1 17 -3 51.5t-2 50.5q0 40 -19 51.5t-71 11.5v31l145 9h39zM103 792v6l-1 -1l86 129h86v-8l2 1l-129 -127h-44z" />
    <glyph glyph-name="Lcommaaccent" unicode="&#x13b;" horiz-adv-x="602" 
d="M571 239l-13 -239h-524v36q61 0 82 8t21 38v533q0 27 -17.5 34t-85.5 7v35h311v-35q-81 0 -97.5 -6t-16.5 -34v-580h138q77 0 121 54t44 149h37zM287 -90q0 14 11 25t29 11q26 0 43.5 -22.5t17.5 -56.5q0 -64 -78 -108l-16 23q47 27 47 59q0 18 -30 38q-24 16 -24 31z
" />
    <glyph glyph-name="lcommaaccent" unicode="&#x13c;" horiz-adv-x="306" 
d="M201 524v-472q0 -7 5 -11.5t11 -4.5q10 0 29 -2t28 -3v-31h-232v31l34 5q41 5 41 48v453q-1 17 -3 51.5t-2 50.5q0 40 -19 51.5t-71 11.5v31l145 9h39zM120 -103q0 14 11 24.5t29 10.5q27 0 44.5 -22t17.5 -56q0 -66 -79 -109l-16 23q47 27 47 60q0 18 -30 38
q-24 16 -24 31z" />
    <glyph glyph-name="Lcaron" unicode="&#x13d;" horiz-adv-x="602" 
d="M571 239l-13 -239h-524v36q61 0 82 8t21 38v533q0 27 -17.5 34t-85.5 7v35h311v-35q-81 0 -97.5 -6t-16.5 -34v-580h138q77 0 121 54t44 149h37zM474 487v6l16 198h74v-7q-9 -31 -27 -98.5t-27 -98.5h-36z" />
    <glyph glyph-name="lcaron" unicode="&#x13e;" horiz-adv-x="344" 
d="M201 524v-472q0 -7 5 -11.5t11 -4.5q10 0 29 -2t28 -3v-31h-232v31l34 5q41 5 41 48v453q-1 17 -3 51.5t-2 50.5q0 40 -19 51.5t-71 11.5v31l145 9h39zM275 537v7l16 198h75v-7q-10 -33 -28 -100.5l-26 -97.5h-37z" />
    <glyph glyph-name="Ldot" unicode="&#x13f;" horiz-adv-x="602" 
d="M571 239l-13 -239h-524v36q61 0 82 8t21 38v533q0 27 -17.5 34t-85.5 7v35h311v-35q-81 0 -97.5 -6t-16.5 -34v-580h138q77 0 121 54t44 149h37zM452 381q0 29 18.5 49t45.5 20q26 0 45.5 -20.5t19.5 -48.5q0 -27 -19.5 -46.5t-45.5 -19.5q-27 0 -45.5 19t-18.5 47z" />
    <glyph glyph-name="ldot" unicode="&#x140;" horiz-adv-x="478" 
d="M200 524v-472q0 -7 5 -11.5t11 -4.5q10 0 29 -2t28 -3v-31h-232v31l34 5q41 5 41 48v453q-1 17 -3 51.5t-2 50.5q0 40 -19 51.5t-71 11.5v31l145 9h39zM289 263q0 29 19 49t46 20t46.5 -20t19.5 -49q0 -27 -19.5 -46.5t-46.5 -19.5t-46 19t-19 47z" />
    <glyph glyph-name="Lslash" unicode="&#x141;" horiz-adv-x="602" 
d="M571 239l-13 -239h-524v36q61 0 82 8t21 38v206l-99 -47v45l99 46v283q0 27 -17.5 34t-85.5 7v35h311v-35q-81 0 -97.5 -6t-16.5 -34v-238l207 98v-45l-207 -97v-298h138q77 0 121 54t44 149h37z" />
    <glyph glyph-name="lslash" unicode="&#x142;" horiz-adv-x="306" 
d="M200 524v-100l74 70v-49l2 1l-76 -73v-321q0 -7 5 -11.5t11 -4.5q10 0 29 -2t28 -3v-31h-232v31l34 5q41 5 41 48v210l-74 -68v50l-2 -1l76 71v191q-1 17 -3 51.5t-2 50.5q0 40 -19 51.5t-71 11.5v31l145 9h39z" />
    <glyph glyph-name="Nacute" unicode="&#x143;" horiz-adv-x="752" 
d="M176 556h-12v-465q0 -34 27.5 -44.5t92.5 -10.5v-36h-253v36q51 0 75 11t24 44v511q-44 53 -104 54v35h166l398 -511h12v424q0 52 -121 52v35h245v-35q-51 -1 -70.5 -13t-19.5 -39v-614h-19zM328 751v6l-1 -1l85 129h87v-8l2 1l-129 -127h-44z" />
    <glyph glyph-name="nacute" unicode="&#x144;" horiz-adv-x="555" 
d="M164 423h22q36 35 67 51t79 16q56 0 95.5 -37.5t39.5 -118.5v-289q0 -9 10 -9q9 0 29 -2t29 -3v-31h-210v31l27 5q18 3 25 8.5t7 16.5v314q0 66 -76 66q-40 0 -68 -14.5t-61 -45.5v-337q0 -6 1.5 -7t8.5 -1q9 0 28.5 -2t29.5 -3v-31h-222v31l37 5q18 2 25.5 8.5t7.5 24.5
v301q0 36 -16.5 52.5t-58.5 17.5v31l104 9h36zM234 548v6l-1 -1l86 164h86v-8l1 1l-129 -162h-43z" />
    <glyph glyph-name="Ncommaaccent" unicode="&#x145;" horiz-adv-x="752" 
d="M176 556h-12v-465q0 -34 27.5 -44.5t92.5 -10.5v-36h-253v36q51 0 75 11t24 44v511q-44 53 -104 54v35h166l398 -511h12v424q0 52 -121 52v35h245v-35q-51 -1 -70.5 -13t-19.5 -39v-614h-19zM363 -90q0 14 11 25t29 11q26 0 44 -22.5t18 -56.5q0 -63 -79 -108l-16 23
q47 27 47 59q0 18 -30 38q-24 16 -24 31z" />
    <glyph glyph-name="ncommaaccent" unicode="&#x146;" horiz-adv-x="555" 
d="M164 423h22q36 35 67 51t79 16q56 0 95.5 -37.5t39.5 -118.5v-289q0 -9 10 -9q9 0 29 -2t29 -3v-31h-210v31l27 5q18 3 25 8.5t7 16.5v314q0 66 -76 66q-40 0 -68 -14.5t-61 -45.5v-337q0 -6 1.5 -7t8.5 -1q9 0 28.5 -2t29.5 -3v-31h-222v31l37 5q18 2 25.5 8.5t7.5 24.5
v301q0 36 -16.5 52.5t-58.5 17.5v31l104 9h36zM246 -103q0 14 11 24.5t29 10.5q27 0 44.5 -22t17.5 -56q0 -66 -79 -109l-16 23q48 28 48 60q0 9 -5.5 17t-9.5 10.5t-16 10.5q-24 16 -24 31z" />
    <glyph glyph-name="Ncaron" unicode="&#x147;" horiz-adv-x="752" 
d="M176 556h-12v-465q0 -34 27.5 -44.5t92.5 -10.5v-36h-253v36q51 0 75 11t24 44v511q-44 53 -104 54v35h166l398 -511h12v424q0 52 -121 52v35h245v-35q-51 -1 -70.5 -13t-19.5 -39v-614h-19zM524 885v-6l-120 -128h-42l-120 128v6h39l102 -71l103 71h38z" />
    <glyph glyph-name="ncaron" unicode="&#x148;" horiz-adv-x="555" 
d="M164 423h22q36 35 67 51t79 16q56 0 95.5 -37.5t39.5 -118.5v-289q0 -9 10 -9q9 0 29 -2t29 -3v-31h-210v31l27 5q18 3 25 8.5t7 16.5v314q0 66 -76 66q-40 0 -68 -14.5t-61 -45.5v-337q0 -6 1.5 -7t8.5 -1q9 0 28.5 -2t29.5 -3v-31h-222v31l37 5q18 2 25.5 8.5t7.5 24.5
v301q0 36 -16.5 52.5t-58.5 17.5v31l104 9h36zM431 717v-6l1 1l-121 -164h-43l-121 164l1 -1v6h39l102 -103l103 103h39z" />
    <glyph glyph-name="Omacron" unicode="&#x14c;" horiz-adv-x="751" 
d="M695 345q0 -151 -94.5 -254t-224.5 -103q-136 0 -228 100t-92 257q0 158 92 257t228 99q131 0 225 -100.5t94 -255.5zM586 345q0 72 -10.5 127.5t-34 99t-65.5 66t-100 22.5q-115 0 -163 -80.5t-48 -234.5q0 -152 48.5 -233.5t162.5 -81.5q105 0 157.5 84t52.5 231z
M499 784h-246v54h246v-54z" />
    <glyph glyph-name="omacron" unicode="&#x14d;" horiz-adv-x="519" 
d="M40 239q0 110 63.5 180.5t156.5 70.5q92 0 155.5 -70t63.5 -181q0 -117 -62.5 -183t-156.5 -66q-95 0 -157.5 66t-62.5 183zM132 240q0 -213 128 -213q29 0 49 7t39.5 28t29 65.5t9.5 112.5q0 123 -34 168t-93 45q-28 0 -49 -8t-40 -29.5t-29 -65.5t-10 -110zM384 570
h-246v54h246v-54z" />
    <glyph glyph-name="Ohungarumlaut" unicode="&#x150;" horiz-adv-x="751" 
d="M695 345q0 -151 -94.5 -254t-224.5 -103q-136 0 -228 100t-92 257q0 158 92 257t228 99q131 0 225 -100.5t94 -255.5zM586 345q0 72 -10.5 127.5t-34 99t-65.5 66t-100 22.5q-115 0 -163 -80.5t-48 -234.5q0 -152 48.5 -233.5t162.5 -81.5q105 0 157.5 84t52.5 231z
M406 751v6l-1 -1l86 129h86v-8l2 1l-138 -127h-35zM266 751v6l-1 -1l85 129h87v-8l2 1l-139 -127h-34z" />
    <glyph glyph-name="ohungarumlaut" unicode="&#x151;" horiz-adv-x="519" 
d="M40 239q0 110 63.5 180.5t156.5 70.5q92 0 155.5 -70t63.5 -181q0 -117 -62.5 -183t-156.5 -66q-95 0 -157.5 66t-62.5 183zM132 240q0 -213 128 -213q29 0 49 7t39.5 28t29 65.5t9.5 112.5q0 123 -34 168t-93 45q-28 0 -49 -8t-40 -29.5t-29 -65.5t-10 -110zM296 548v6
l-1 -1l86 164h87v-8l1 1l-139 -162h-34zM155 548v6l-1 -1l86 164h87v-8l1 1l-139 -162h-34z" />
    <glyph glyph-name="OE" unicode="&#x152;" horiz-adv-x="982" 
d="M940 244l-13 -244h-469q-39 -12 -82 -12q-136 0 -228 100t-92 257q0 158 92 257t228 99q34 0 77 -10h444q1 -36 5 -107t6 -107h-29q-18 102 -49.5 140.5t-103.5 38.5h-173v-297h80q105 0 105 138h25v-310h-25q0 82 -22 107.5t-89 25.5h-74v-284h197q74 0 116.5 64
t42.5 144h31zM376 30q48 0 83 16v600q-37 14 -83 14q-115 0 -163 -80.5t-48 -234.5q0 -152 48.5 -233.5t162.5 -81.5z" />
    <glyph glyph-name="oe" unicode="&#x153;" horiz-adv-x="816" 
d="M756 151l26 -9q-21 -70 -70 -111t-122 -41q-102 0 -161 80q-65 -80 -170 -80q-95 0 -157.5 66t-62.5 183q0 110 63.5 180.5t156.5 70.5q102 0 170 -88q64 88 160 88q79 0 128.5 -54.5t55.5 -151.5v-24h-297q-1 -12 -1 -25q0 -106 34 -152.5t102 -46.5q58 0 94 32t51 83z
M131 240q0 -213 128 -213q29 0 49 7t39.5 28t29 65.5t9.5 112.5q0 123 -34 168t-93 45q-28 0 -49 -8t-40 -29.5t-29 -65.5t-10 -110zM686 297v19q-4 58 -28 94.5t-71 36.5q-50 0 -76.5 -35.5t-31.5 -114.5h207z" />
    <glyph glyph-name="Racute" unicode="&#x154;" horiz-adv-x="683" 
d="M403 357v-10q73 -10 112.5 -51t50.5 -146q11 -75 32.5 -98.5t71.5 -24.5v-34q-120 1 -164 37t-44 128q0 103 -43 141.5t-127 38.5h-62v-251q0 -34 19 -42.5t88 -8.5v-36h-304v36q65 2 84 10.5t19 40.5v531q0 25 -18 31.5t-85 6.5v35h316q97 0 155.5 -40.5t58.5 -119.5
q0 -77 -46.5 -119.5t-113.5 -54.5zM467 526q0 69 -37.5 99.5t-113.5 30.5h-86v-281h95q142 0 142 151zM261 751v6l-1 -1l85 129h87v-8l2 1l-129 -127h-44z" />
    <glyph glyph-name="racute" unicode="&#x155;" horiz-adv-x="381" 
d="M302 360l-41 62q-50 -8 -81 -65v-308q0 -13 13 -13q12 0 36.5 -2t35.5 -3v-31h-239v31l25 5q45 5 45 49v292q0 30 -17 42t-58 13v40l112 8h19l3 -73h28q50 83 120 83q25 0 43 -15.5t18 -48.5q0 -27 -18.5 -46t-43.5 -20zM154 548v6l-1 -1l86 164h87v-8l1 1l-129 -162h-44
z" />
    <glyph glyph-name="Rcaron" unicode="&#x158;" horiz-adv-x="683" 
d="M403 357v-10q73 -10 112.5 -51t50.5 -146q11 -75 32.5 -98.5t71.5 -24.5v-34q-120 1 -164 37t-44 128q0 103 -43 141.5t-127 38.5h-62v-251q0 -34 19 -42.5t88 -8.5v-36h-304v36q65 2 84 10.5t19 40.5v531q0 25 -18 31.5t-85 6.5v35h316q97 0 155.5 -40.5t58.5 -119.5
q0 -77 -46.5 -119.5t-113.5 -54.5zM467 526q0 69 -37.5 99.5t-113.5 30.5h-86v-281h95q142 0 142 151zM457 885v-6l-120 -128h-42l-120 128v6h38l103 -71l102 71h39z" />
    <glyph glyph-name="rcaron" unicode="&#x159;" horiz-adv-x="381" 
d="M302 360l-41 62q-50 -8 -81 -65v-308q0 -13 13 -13q12 0 36.5 -2t35.5 -3v-31h-239v31l25 5q45 5 45 49v292q0 30 -17 42t-58 13v40l112 8h19l3 -73h28q50 83 120 83q25 0 43 -15.5t18 -48.5q0 -27 -18.5 -46t-43.5 -20zM351 717v-6l1 1l-121 -164h-42l-121 164l1 -1v6
h38l103 -103l103 103h38z" />
    <glyph glyph-name="Sacute" unicode="&#x15a;" horiz-adv-x="586" 
d="M129 57l-10 -1l-14 -56h-35l-7 276h30q24 -128 78 -188.5t152 -60.5q71 0 109.5 34t38.5 82q0 53 -45 92t-175 78q-190 60 -190 207q0 82 56 131.5t134 49.5q92 0 178 -64l12 2l17 56h29q0 -43 1 -127.5t1 -127.5h-26q-32 115 -83.5 169t-127.5 54q-56 0 -88.5 -35
t-32.5 -81q0 -48 49 -85.5t161 -72.5q108 -33 152 -82.5t44 -126.5q0 -83 -59.5 -137.5t-152.5 -54.5q-119 0 -196 69zM208 751v6l-1 -1l86 129h86v-8l2 1l-129 -127h-44z" />
    <glyph glyph-name="sacute" unicode="&#x15b;" horiz-adv-x="444" 
d="M67 -9v196h24q12 -80 54.5 -121t105.5 -41q44 0 71 20.5t27 57.5q0 39 -31 62t-125 47q-135 38 -135 152q0 53 40 89.5t105 36.5q35 0 70.5 -11t56.5 -27l27 36h14v-177h-22q-33 142 -150 142q-42 0 -66 -17.5t-24 -46.5q0 -35 33 -59.5t123 -48.5q75 -20 107.5 -56.5
t32.5 -93.5q0 -61 -42 -101t-116 -40q-40 0 -80 13t-62 27q-3 -6 -11.5 -20.5t-10.5 -18.5h-16zM168 548v6l-1 -1l86 164h87v-8l1 1l-129 -162h-44z" />
    <glyph glyph-name="Scircumflex" unicode="&#x15c;" horiz-adv-x="586" 
d="M129 57l-10 -1l-14 -56h-35l-7 276h30q24 -128 78 -188.5t152 -60.5q71 0 109.5 34t38.5 82q0 53 -45 92t-175 78q-190 60 -190 207q0 82 56 131.5t134 49.5q92 0 178 -64l12 2l17 56h29q0 -43 1 -127.5t1 -127.5h-26q-32 115 -83.5 169t-127.5 54q-56 0 -88.5 -35
t-32.5 -81q0 -48 49 -85.5t161 -72.5q108 -33 152 -82.5t44 -126.5q0 -83 -59.5 -137.5t-152.5 -54.5q-119 0 -196 69zM404 757v-6h-38l-102 72l-103 -72h-38v6l-1 -1l120 129h43z" />
    <glyph glyph-name="scircumflex" unicode="&#x15d;" horiz-adv-x="444" 
d="M67 -9v196h24q12 -80 54.5 -121t105.5 -41q44 0 71 20.5t27 57.5q0 39 -31 62t-125 47q-135 38 -135 152q0 53 40 89.5t105 36.5q35 0 70.5 -11t56.5 -27l27 36h14v-177h-22q-33 142 -150 142q-42 0 -66 -17.5t-24 -46.5q0 -35 33 -59.5t123 -48.5q75 -20 107.5 -56.5
t32.5 -93.5q0 -61 -42 -101t-116 -40q-40 0 -80 13t-62 27q-3 -6 -11.5 -20.5t-10.5 -18.5h-16zM365 554v-6h-38l-103 102l-103 -102h-38v6l-1 -1l121 164h42l121 -164z" />
    <glyph glyph-name="Scedilla" unicode="&#x15e;" horiz-adv-x="586" 
d="M273 -216l-6 21q86 18 86 63q0 22 -21 33t-55 11q-20 0 -28 -1l-3 5l39 74q-94 12 -162 73l-18 -63h-35l-7 276h30q24 -128 78 -188.5t152 -60.5q71 0 109.5 34t38.5 82q0 53 -45 92t-175 78q-190 60 -190 207q0 82 56 131.5t134 49.5q92 0 178 -64l12 2l17 56h29
q0 -43 1 -127.5t1 -127.5h-26q-32 115 -83.5 169t-127.5 54q-56 0 -88.5 -35t-32.5 -81q0 -48 49 -85.5t161 -72.5q108 -33 152 -82.5t44 -126.5q0 -83 -60.5 -137.5t-154.5 -54.5l-21 -34q47 0 76.5 -17.5t29.5 -53.5t-39 -63t-95 -36z" />
    <glyph glyph-name="scedilla" unicode="&#x15f;" horiz-adv-x="444" 
d="M195 -230l-6 21q38 8 62 25t24 39t-21 33t-55 11q-19 0 -28 -1l-3 4l47 90q-69 8 -110 38q-3 -6 -11.5 -20.5t-10.5 -18.5h-16v196h24q12 -80 54.5 -121t105.5 -41q44 0 71 20.5t27 57.5q0 39 -31 62t-125 47q-135 38 -135 152q0 53 40 89.5t105 36.5q35 0 70.5 -11
t56.5 -27l27 36h14v-177h-22q-33 142 -150 142q-42 0 -66 -17.5t-24 -46.5q0 -35 33 -59.5t123 -48.5q75 -20 107.5 -56.5t32.5 -93.5q0 -60 -41.5 -99.5t-114.5 -41.5l-26 -49q47 0 77 -17.5t30 -53.5q0 -37 -39 -64t-96 -36z" />
    <glyph glyph-name="Scaron" unicode="&#x160;" horiz-adv-x="586" 
d="M129 57l-10 -1l-14 -56h-35l-7 276h30q24 -128 78 -188.5t152 -60.5q71 0 109.5 34t38.5 82q0 53 -45 92t-175 78q-190 60 -190 207q0 82 56 131.5t134 49.5q92 0 178 -64l12 2l17 56h29q0 -43 1 -127.5t1 -127.5h-26q-32 115 -83.5 169t-127.5 54q-56 0 -88.5 -35
t-32.5 -81q0 -48 49 -85.5t161 -72.5q108 -33 152 -82.5t44 -126.5q0 -83 -59.5 -137.5t-152.5 -54.5q-119 0 -196 69zM404 885v-6l-119 -128h-43l-119 128v6h38l103 -71l102 71h38z" />
    <glyph glyph-name="scaron" unicode="&#x161;" horiz-adv-x="444" 
d="M67 -9v196h24q12 -80 54.5 -121t105.5 -41q44 0 71 20.5t27 57.5q0 39 -31 62t-125 47q-135 38 -135 152q0 53 40 89.5t105 36.5q35 0 70.5 -11t56.5 -27l27 36h14v-177h-22q-33 142 -150 142q-42 0 -66 -17.5t-24 -46.5q0 -35 33 -59.5t123 -48.5q75 -20 107.5 -56.5
t32.5 -93.5q0 -61 -42 -101t-116 -40q-40 0 -80 13t-62 27q-3 -6 -11.5 -20.5t-10.5 -18.5h-16zM365 717v-6l1 1l-121 -164h-42l-121 164l1 -1v6h38l103 -103l103 103h38z" />
    <glyph glyph-name="Tcommaaccent" unicode="&#x162;" horiz-adv-x="644" 
d="M613 443h-29q0 98 -40 155.5t-112 57.5h-62v-579q-1 -28 20 -34.5t83 -6.5v-36h-302v36q55 0 79.5 7.5t24.5 28.5v584h-46q-71 0 -119.5 -58.5t-48.5 -154.5h-30v248h582v-248zM281 -90q0 14 11 25t29 11q26 0 43.5 -22.5t17.5 -56.5q0 -64 -78 -108l-16 23q47 27 47 59
q0 18 -30 38q-24 16 -24 31z" />
    <glyph glyph-name="Tcommaaccent" unicode="&#x21a;" horiz-adv-x="644" 
d="M613 443h-29q0 98 -40 155.5t-112 57.5h-62v-579q-1 -28 20 -34.5t83 -6.5v-36h-302v36q55 0 79.5 7.5t24.5 28.5v584h-46q-71 0 -119.5 -58.5t-48.5 -154.5h-30v248h582v-248zM281 -90q0 14 11 25t29 11q26 0 43.5 -22.5t17.5 -56.5q0 -64 -78 -108l-16 23q47 27 47 59
q0 18 -30 38q-24 16 -24 31z" />
    <glyph glyph-name="tcommaaccent" unicode="&#x163;" horiz-adv-x="359" 
d="M95 424h-78v42q58 1 88 52t30 140h43v-188h141v-46h-141v-313q0 -77 56 -77q9 0 18.5 4t22 15t20 38t7.5 66h23q0 -99 -34 -134t-90 -35q-106 0 -106 123v313zM155 -103q0 14 11.5 24.5t29.5 10.5q26 0 43.5 -22t17.5 -56q0 -66 -79 -109l-16 23q48 27 48 60q0 18 -30 38
q-25 15 -25 31z" />
    <glyph glyph-name="tcommaaccent" unicode="&#x21b;" horiz-adv-x="359" 
d="M95 424h-78v42q58 1 88 52t30 140h43v-188h141v-46h-141v-313q0 -77 56 -77q9 0 18.5 4t22 15t20 38t7.5 66h23q0 -99 -34 -134t-90 -35q-106 0 -106 123v313zM155 -103q0 14 11.5 24.5t29.5 10.5q26 0 43.5 -22t17.5 -56q0 -66 -79 -109l-16 23q48 27 48 60q0 18 -30 38
q-25 15 -25 31z" />
    <glyph glyph-name="Tcaron" unicode="&#x164;" horiz-adv-x="644" 
d="M613 443h-29q0 98 -40 155.5t-112 57.5h-62v-579q-1 -28 20 -34.5t83 -6.5v-36h-302v36q55 0 79.5 7.5t24.5 28.5v584h-46q-71 0 -119.5 -58.5t-48.5 -154.5h-30v248h582v-248zM463 885v-6l-120 -128h-42l-120 128v6h38l103 -71l102 71h39z" />
    <glyph glyph-name="tcaron" unicode="&#x165;" horiz-adv-x="359" 
d="M95 424h-78v42q58 1 88 52t30 140h43v-188h141v-46h-141v-313q0 -77 56 -77q9 0 18.5 4t22 15t20 38t7.5 66h23q0 -99 -34 -134t-90 -35q-106 0 -106 123v313zM261 557v6l16 198h75v-7q-6 -22 -25 -91.5t-30 -105.5h-36z" />
    <glyph glyph-name="Umacron" unicode="&#x16a;" horiz-adv-x="748" 
d="M723 691v-35q-54 0 -75.5 -10.5t-21.5 -34.5v-330q0 -145 -57.5 -219t-194.5 -74q-254 0 -254 236v390q0 29 -14.5 35.5t-80.5 6.5v35h288v-35q-64 0 -81 -7t-17 -35v-390q0 -97 47.5 -146.5t125.5 -49.5q50 0 87 15t57.5 38t32.5 58.5t15.5 67.5t3.5 74v330
q0 24 -25.5 34.5t-91.5 10.5v35h256zM521 784h-245v54h245v-54z" />
    <glyph glyph-name="umacron" unicode="&#x16b;" horiz-adv-x="555" 
d="M386 61h-22q-63 -71 -140 -71q-57 0 -96 38.5t-39 122.5v259q0 18 -20 20q-9 1 -25 3t-24 2v35l152 10v-365q0 -71 71 -71q68 0 134 63v304q0 6 -0.5 9.5t-3.5 5.5t-5 2.5t-9 1.5q-9 0 -25.5 2t-24.5 3v35l152 10v-372q0 -48 11.5 -59t62.5 -11v-32l-109 -11h-36z
M386 570h-246v54h246v-54z" />
    <glyph glyph-name="Ubreve" unicode="&#x16c;" horiz-adv-x="748" 
d="M723 691v-35q-54 0 -75.5 -10.5t-21.5 -34.5v-330q0 -145 -57.5 -219t-194.5 -74q-254 0 -254 236v390q0 29 -14.5 35.5t-80.5 6.5v35h288v-35q-64 0 -81 -7t-17 -35v-390q0 -97 47.5 -146.5t125.5 -49.5q50 0 87 15t57.5 38t32.5 58.5t15.5 67.5t3.5 74v330
q0 24 -25.5 34.5t-91.5 10.5v35h256zM398 751q-48 0 -81 32.5t-34 96.5h30q1 -30 25 -51.5t60 -21.5q34 0 59.5 21t26.5 52h30q-1 -64 -34.5 -96.5t-81.5 -32.5z" />
    <glyph glyph-name="ubreve" unicode="&#x16d;" horiz-adv-x="555" 
d="M386 61h-22q-63 -71 -140 -71q-57 0 -96 38.5t-39 122.5v259q0 18 -20 20q-9 1 -25 3t-24 2v35l152 10v-365q0 -71 71 -71q68 0 134 63v304q0 6 -0.5 9.5t-3.5 5.5t-5 2.5t-9 1.5q-9 0 -25.5 2t-24.5 3v35l152 10v-372q0 -48 11.5 -59t62.5 -11v-32l-109 -11h-36z
M263 548q-48 0 -82 38t-34 111h30q2 -36 26 -62.5t60 -26.5q35 0 60.5 25t25.5 64h30q-1 -72 -35 -110.5t-81 -38.5z" />
    <glyph glyph-name="Uring" unicode="&#x16e;" horiz-adv-x="748" 
d="M723 691v-35q-54 0 -75.5 -10.5t-21.5 -34.5v-330q0 -145 -57.5 -219t-194.5 -74q-254 0 -254 236v390q0 29 -14.5 35.5t-80.5 6.5v35h288v-35q-64 0 -81 -7t-17 -35v-390q0 -97 47.5 -146.5t125.5 -49.5q50 0 87 15t57.5 38t32.5 58.5t15.5 67.5t3.5 74v330
q0 24 -25.5 34.5t-91.5 10.5v35h256zM309 844q0 38 26 65t63 27t63.5 -27t26.5 -65t-26.5 -65.5t-63.5 -27.5t-63 27.5t-26 65.5zM345 844q0 -23 14 -38t38 -15t39 15t15 38t-15 39t-39 16q-23 0 -37.5 -16t-14.5 -39z" />
    <glyph glyph-name="uring" unicode="&#x16f;" horiz-adv-x="555" 
d="M386 61h-22q-63 -71 -140 -71q-57 0 -96 38.5t-39 122.5v259q0 18 -20 20q-9 1 -25 3t-24 2v35l152 10v-365q0 -71 71 -71q68 0 134 63v304q0 6 -0.5 9.5t-3.5 5.5t-5 2.5t-9 1.5q-9 0 -25.5 2t-24.5 3v35l152 10v-372q0 -48 11.5 -59t62.5 -11v-32l-109 -11h-36z
M173 630q0 39 26.5 66t63.5 27q38 0 64 -27t26 -66q0 -38 -26.5 -65.5t-63.5 -27.5t-63.5 27.5t-26.5 65.5zM210 630q0 -23 14 -38t38 -15t39 15t15 38q0 24 -15 40t-39 16q-23 0 -37.5 -16t-14.5 -40z" />
    <glyph glyph-name="Uhungarumlaut" unicode="&#x170;" horiz-adv-x="748" 
d="M723 691v-35q-54 0 -75.5 -10.5t-21.5 -34.5v-330q0 -145 -57.5 -219t-194.5 -74q-254 0 -254 236v390q0 29 -14.5 35.5t-80.5 6.5v35h288v-35q-64 0 -81 -7t-17 -35v-390q0 -97 47.5 -146.5t125.5 -49.5q50 0 87 15t57.5 38t32.5 58.5t15.5 67.5t3.5 74v330
q0 24 -25.5 34.5t-91.5 10.5v35h256zM428 751v6l-1 -1l86 129h86v-8l2 1l-138 -127h-35zM288 751v6l-1 -1l85 129h87v-8l2 1l-139 -127h-34z" />
    <glyph glyph-name="uhungarumlaut" unicode="&#x171;" horiz-adv-x="555" 
d="M386 61h-22q-63 -71 -140 -71q-57 0 -96 38.5t-39 122.5v259q0 18 -20 20q-9 1 -25 3t-24 2v35l152 10v-365q0 -71 71 -71q68 0 134 63v304q0 6 -0.5 9.5t-3.5 5.5t-5 2.5t-9 1.5q-9 0 -25.5 2t-24.5 3v35l152 10v-372q0 -48 11.5 -59t62.5 -11v-32l-109 -11h-36z
M299 548v6l-2 -1l86 164h87v-8l1 1l-139 -162h-33zM157 548v6l-1 -1l86 164h87v-8l-138 -161h-34z" />
    <glyph glyph-name="Uogonek" unicode="&#x172;" horiz-adv-x="748" 
d="M723 691v-35q-54 0 -75.5 -10.5t-21.5 -34.5v-330q0 -236 -157 -282q-62 -41 -62 -104q0 -64 51 -64q8 0 11 1v-29q-13 -3 -29 -3q-38 0 -65.5 20t-27.5 56q0 62 68 115q-39 -3 -41 -3q-254 0 -254 236v390q0 29 -14.5 35.5t-80.5 6.5v35h288v-35q-64 0 -81 -7t-17 -35
v-390q0 -97 47.5 -146.5t125.5 -49.5q50 0 87 15t57.5 38t32.5 58.5t15.5 67.5t3.5 74v330q0 24 -25.5 34.5t-91.5 10.5v35h256z" />
    <glyph glyph-name="uogonek" unicode="&#x173;" horiz-adv-x="555" 
d="M386 61h-22q-63 -71 -140 -71q-57 0 -96 38.5t-39 122.5v259q0 18 -20 20q-9 1 -25 3t-24 2v35l152 10v-365q0 -71 71 -71q68 0 134 63v304q0 6 -0.5 9.5t-3.5 5.5t-5 2.5t-9 1.5q-9 0 -25.5 2t-24.5 3v35l152 10v-372q0 -48 11.5 -59t62.5 -11v-32l-24 -2
q-68 -43 -68 -109q0 -64 50 -64q8 0 11 1v-30q-14 -3 -29 -3q-37 0 -65 20.5t-28 56.5q0 68 77 119l-4 3l-29 -3h-36z" />
    <glyph glyph-name="Wcircumflex" unicode="&#x174;" horiz-adv-x="977" 
d="M683 176h15l120 367q9 31 9 48q0 68 -93 65v35h226v-35q-41 -1 -62.5 -26t-42.5 -87q-18 -55 -185 -559h-17l-152 459q-28 -77 -88 -238t-82 -221h-15l-197 594q-18 45 -39.5 61t-62.5 17v35h261v-35q-39 1 -53.5 -7.5t-14.5 -28.5q0 -15 9 -44l129 -400h16l120 319
l-27 83q-17 50 -34 64t-67 14v35h260v-35q-39 0 -54 -6.5t-15 -22.5q0 -12 7 -38l5 -15zM645 757v-6h-38l-103 72l-103 -72h-38v6l-1 -1l121 129h42z" />
    <glyph glyph-name="wcircumflex" unicode="&#x175;" horiz-adv-x="767" 
d="M517 -5l-127 312l-130 -312h-18q-22 53 -74.5 177.5t-78.5 186.5q-19 46 -40 67t-55 25v29h218v-29q-60 -7 -60 -32q0 -11 22 -62l99 -229h16l86 214l-15 40q-16 35 -36 49.5t-64 19.5v29h242v-29q-37 -3 -52.5 -10t-15.5 -23t19 -61l90 -229h14l85 227q7 21 7 35
q0 53 -77 61v29h201v-30q-68 -13 -100 -97l-138 -358h-18zM524 552v-6h-38l-103 102l-103 -102h-38v6l-1 -1l121 164h42l121 -164z" />
    <glyph glyph-name="Ycircumflex" unicode="&#x176;" horiz-adv-x="684" 
d="M666 691v-35q-70 -3 -118 -81l-146 -266v-184q0 -60 19.5 -74.5t84.5 -14.5v-36h-300v36q71 0 86.5 14t15.5 75v180l-159 260q-40 57 -61.5 73.5t-69.5 17.5v35h285v-35q-78 -2 -78 -31q0 -12 18 -41l141 -232l128 231q10 17 10 32q0 38 -61 41v35h205zM530 757v-6h-38
l-103 72l-102 -72h-39v6l-1 -1l121 129h42z" />
    <glyph glyph-name="ycircumflex" unicode="&#x177;" horiz-adv-x="524" 
d="M294 104h15l86 241q11 31 11 54q0 49 -75 57v24h198v-25q-61 -12 -90 -87q-165 -438 -186 -492q-43 -103 -125 -103q-43 0 -65 24.5t-22 57.5q0 28 14.5 43t36.5 15q20 0 31 -15l-1 1v-90q68 0 102 80l33 104l-157 376q-21 40 -45 61t-60 26v24h242v-24q-21 -2 -34 -5.5
t-22.5 -12t-9.5 -21.5q0 -16 12 -40zM427 552v-6h-39l-103 102l-102 -102h-39v6l-1 -1l121 164h43l121 -164z" />
    <glyph glyph-name="Ydieresis" unicode="&#x178;" horiz-adv-x="684" 
d="M666 691v-35q-70 -3 -118 -81l-146 -266v-184q0 -60 19.5 -74.5t84.5 -14.5v-36h-300v36q71 0 86.5 14t15.5 75v180l-159 260q-40 57 -61.5 73.5t-69.5 17.5v35h285v-35q-78 -2 -78 -31q0 -12 18 -41l141 -232l128 231q10 17 10 32q0 38 -61 41v35h205zM523 831
q0 -19 -14.5 -34t-32.5 -15q-19 0 -34 15t-15 34q0 20 15 35.5t34 15.5q18 0 32.5 -15.5t14.5 -35.5zM351 831q0 -20 -14 -34.5t-33 -14.5t-34 15t-15 34q0 20 15 35.5t34 15.5t33 -15.5t14 -35.5z" />
    <glyph glyph-name="Zacute" unicode="&#x179;" horiz-adv-x="636" 
d="M35 0v21l-1 -1l431 630l-5 6h-206q-66 0 -112 -63.5t-52 -148.5h-32l10 247h529v-19l1 1l-435 -629l2 -6h214q71 0 120 63.5t61 167.5h32l-19 -269h-538zM285 751v6l-1 -1l85 129h87v-8l2 1l-129 -127h-44z" />
    <glyph glyph-name="zacute" unicode="&#x17a;" horiz-adv-x="484" 
d="M154 45v-6h139q48 0 80.5 48.5t48.5 117.5h24q-2 -35 -7 -102.5t-7 -102.5h-395v16l-1 -1l287 421v9h-100q-112 0 -143 -158h-26l13 193h373v-15l1 1zM212 546v6l-1 -1l85 164h87v-8l1 1l-129 -162h-43z" />
    <glyph glyph-name="Zdotaccent" unicode="&#x17b;" horiz-adv-x="636" 
d="M35 0v21l-1 -1l431 630l-5 6h-206q-66 0 -112 -63.5t-52 -148.5h-32l10 247h529v-19l1 1l-435 -629l2 -6h214q71 0 120 63.5t61 167.5h32l-19 -269h-538zM280 826q0 26 17 44.5t42 18.5t43 -18.5t18 -44.5t-18 -44.5t-43 -18.5t-42 18.5t-17 44.5z" />
    <glyph glyph-name="zdotaccent" unicode="&#x17c;" horiz-adv-x="484" 
d="M154 45v-6h139q48 0 80.5 48.5t48.5 117.5h24q-2 -35 -7 -102.5t-7 -102.5h-395v16l-1 -1l287 421v9h-100q-112 0 -143 -158h-26l13 193h373v-15l1 1zM207 640q0 27 17 45.5t42 18.5q26 0 44 -18.5t18 -45.5q0 -26 -18 -44t-44 -18q-25 0 -42 18t-17 44z" />
    <glyph glyph-name="Zcaron" unicode="&#x17d;" horiz-adv-x="636" 
d="M35 0v21l-1 -1l431 630l-5 6h-206q-66 0 -112 -63.5t-52 -148.5h-32l10 247h529v-19l1 1l-435 -629l2 -6h214q71 0 120 63.5t61 167.5h32l-19 -269h-538zM481 885v-6l-120 -128h-42l-120 128v6h38l103 -71l103 71h38z" />
    <glyph glyph-name="zcaron" unicode="&#x17e;" horiz-adv-x="484" 
d="M154 45v-6h139q48 0 80.5 48.5t48.5 117.5h24q-2 -35 -7 -102.5t-7 -102.5h-395v16l-1 -1l287 421v9h-100q-112 0 -143 -158h-26l13 193h373v-15l1 1zM408 715v-6l1 1l-121 -164h-42l-121 164l1 -1v6h38l103 -103l103 103h38z" />
    <glyph glyph-name="florin" unicode="&#x192;" horiz-adv-x="544" 
d="M98 316l11 40h97v4l25 102q18 70 70 125t128 55q55 0 91.5 -21t36.5 -49q0 -18 -11.5 -30t-34.5 -12q-13 0 -22 5t-13 10.5t-10 16.5q-9 15 -13 20.5t-15 13t-24 7.5q-29 0 -50 -37.5t-42 -108.5l-26 -95v-6h120l-11 -40h-120v-4l-90 -334q-24 -86 -67 -138t-102 -52
q-41 0 -70.5 18.5t-29.5 47.5q0 17 10.5 29t27.5 12q5 0 9 -1t8 -3.5t6.5 -4t6.5 -7t5 -6.5t5 -7l5 -7q21 -34 34 -34q34 0 66 137l88 348v6h-99z" />
    <glyph glyph-name="Scommaaccent" unicode="&#x218;" horiz-adv-x="586" 
d="M129 57l-10 -1l-14 -56h-35l-7 276h30q24 -128 78 -188.5t152 -60.5q71 0 109.5 34t38.5 82q0 53 -45 92t-175 78q-190 60 -190 207q0 82 56 131.5t134 49.5q92 0 178 -64l12 2l17 56h29q0 -43 1 -127.5t1 -127.5h-26q-32 115 -83.5 169t-127.5 54q-56 0 -88.5 -35
t-32.5 -81q0 -48 49 -85.5t161 -72.5q108 -33 152 -82.5t44 -126.5q0 -83 -59.5 -137.5t-152.5 -54.5q-119 0 -196 69zM276 -90q0 14 11 25t29 11q26 0 43.5 -22.5t17.5 -56.5q0 -64 -78 -108l-16 23q47 27 47 59q0 18 -30 38q-24 16 -24 31z" />
    <glyph glyph-name="scommaaccent" unicode="&#x219;" horiz-adv-x="444" 
d="M67 -9v196h24q12 -80 54.5 -121t105.5 -41q44 0 71 20.5t27 57.5q0 39 -31 62t-125 47q-135 38 -135 152q0 53 40 89.5t105 36.5q35 0 70.5 -11t56.5 -27l27 36h14v-177h-22q-33 142 -150 142q-42 0 -66 -17.5t-24 -46.5q0 -35 33 -59.5t123 -48.5q75 -20 107.5 -56.5
t32.5 -93.5q0 -61 -42 -101t-116 -40q-40 0 -80 13t-62 27q-3 -6 -11.5 -20.5t-10.5 -18.5h-16zM198 -103q0 14 11 24.5t29 10.5q26 0 44 -22t18 -56q0 -64 -79 -109l-16 23q47 27 47 60q0 18 -30 38q-24 16 -24 31z" />
    <glyph glyph-name="schwa" unicode="&#x259;" horiz-adv-x="475" 
d="M62 330l-26 8q21 70 70 111t122 41q90 0 148.5 -63t58.5 -181q0 -112 -58.5 -184t-147.5 -72q-79 0 -129 54.5t-56 151.5v24h298q1 12 1 25q0 106 -34 152.5t-102 46.5q-59 0 -95 -32t-50 -82zM132 183v-19q9 -131 99 -131q50 0 76.5 35.5t31.5 114.5h-207z" />
    <glyph glyph-name="quoteleft" unicode="&#x2bb;" horiz-adv-x="355" 
d="M249 474q0 -29 -19.5 -47.5t-53.5 -18.5q-35 0 -60 27.5t-25 70.5q0 127 119 212l12.5 -17.5t9.5 -12.5q-108 -79 -93 -194q37 32 61 32q20 0 34.5 -13.5t14.5 -38.5z" />
    <glyph glyph-name="quoteleft" unicode="&#x2018;" horiz-adv-x="355" 
d="M249 474q0 -29 -19.5 -47.5t-53.5 -18.5q-35 0 -60 27.5t-25 70.5q0 127 119 212l12.5 -17.5t9.5 -12.5q-108 -79 -93 -194q37 32 61 32q20 0 34.5 -13.5t14.5 -38.5z" />
    <glyph glyph-name="circumflex" unicode="&#x2c6;" horiz-adv-x="500" 
d="M391 507v-6h-38l-103 102l-102 -102h-38v6l-1 -1l120 164h43l120 -164z" />
    <glyph glyph-name="caron" unicode="&#x2c7;" horiz-adv-x="500" 
d="M391 670v-6l1 1l-120 -164h-43l-120 164l1 -1v6h38l102 -103l103 103h38z" />
    <glyph glyph-name="breve" unicode="&#x2d8;" horiz-adv-x="500" 
d="M250 501q-48 0 -81.5 38t-33.5 111h30q1 -36 25 -62.5t60 -26.5q35 0 60.5 25t25.5 64h30q-1 -72 -35 -110.5t-81 -38.5z" />
    <glyph glyph-name="dotaccent" unicode="&#x2d9;" horiz-adv-x="500" 
d="M190 595q0 27 17 45.5t42 18.5q26 0 44 -18.5t18 -45.5q0 -26 -18 -44t-44 -18q-25 0 -42 18t-17 44z" />
    <glyph glyph-name="ring" unicode="&#x2da;" horiz-adv-x="500" 
d="M161 583q0 39 26 66t63 27q38 0 64 -27t26 -66q0 -38 -26.5 -65t-63.5 -27t-63 27t-26 65zM197 583q0 -23 14 -38t38 -15t39 15t15 38q0 24 -15 40t-39 16q-23 0 -37.5 -16t-14.5 -40z" />
    <glyph glyph-name="ogonek" unicode="&#x2db;" horiz-adv-x="500" 
d="M285 21v-5q-91 -50 -91 -121q0 -64 50 -64q8 0 11 1v-29q-14 -3 -29 -3q-37 0 -64.5 20t-27.5 56q0 92 137 153z" />
    <glyph glyph-name="tilde" unicode="&#x2dc;" horiz-adv-x="500" 
d="M383 646l17 -7q-14 -49 -41.5 -86t-51.5 -37q-12 0 -62 30q-48 30 -66 30q-31 0 -57 -60q-3 1 -10 3t-10 4q12 40 40 81t44 41q14 0 62 -31q46 -31 68 -31q18 0 38 20t29 43z" />
    <glyph glyph-name="hungarumlaut" unicode="&#x2dd;" horiz-adv-x="500" 
d="M144 501v6l-1 -1l85 164h87v-8l1 1l-139 -162h-33zM285 501v6l-1 -1l85 164h87v-8l-138 -161h-33z" />
    <glyph glyph-name="Delta" unicode="&#x394;" horiz-adv-x="544" 
d="M535 0h-523l223 630h48zM240 498l-152 -445v-7h325v7q-28 74 -86.5 222.5t-86.5 222.5z" />
    <glyph glyph-name="Delta" unicode="&#x2206;" horiz-adv-x="544" 
d="M535 0h-523l223 630h48zM240 498l-152 -445v-7h325v7q-28 74 -86.5 222.5t-86.5 222.5z" />
    <glyph glyph-name="Omega" unicode="&#x3a9;" horiz-adv-x="544" 
d="M273 596q-50 0 -85.5 -38t-50 -88.5t-14.5 -106.5q0 -137 37.5 -234.5t91.5 -114.5l-3 -14h-229l-18 138h30l42 -92v-3h55v2l6 10v6q-44 50 -73 129t-29 162q0 113 67.5 199t173.5 86t173.5 -86t67.5 -199q0 -83 -29 -162t-73 -129v-6l6 -10v-2h55v3l42 92h30l-19 -138
h-228l-3 14q54 17 91.5 114.5t37.5 234.5q0 55 -15 106.5t-51 89t-86 37.5z" />
    <glyph glyph-name="Omega" unicode="&#x2126;" horiz-adv-x="544" 
d="M273 596q-50 0 -85.5 -38t-50 -88.5t-14.5 -106.5q0 -137 37.5 -234.5t91.5 -114.5l-3 -14h-229l-18 138h30l42 -92v-3h55v2l6 10v6q-44 50 -73 129t-29 162q0 113 67.5 199t173.5 86t173.5 -86t67.5 -199q0 -83 -29 -162t-73 -129v-6l6 -10v-2h55v3l42 92h30l-19 -138
h-228l-3 14q54 17 91.5 114.5t37.5 234.5q0 55 -15 106.5t-51 89t-86 37.5z" />
    <glyph glyph-name="lambda" unicode="&#x3bb;" horiz-adv-x="528" 
d="M261 615l117 -464q17 -68 25.5 -88t22.5 -20q12 0 26 29q15 26 35 26q16 0 25 -11t9 -27q0 -30 -25 -49.5t-61 -19.5q-76 0 -103 109l-56 229l-152 -329h-101l218 471l-33 140q-22 85 -60 85q-15 0 -41 -34q-24 -32 -45 -32q-36 0 -36 35q0 29 31.5 52t81.5 23
q49 0 79 -35.5t43 -89.5z" />
    <glyph glyph-name="pi" unicode="&#x3c0;" horiz-adv-x="544" 
d="M170 20q-21 -32 -53 -32q-19 0 -33.5 11.5t-14.5 27.5q0 15 20 32q55 58 80.5 133t25.5 188v5h-31q-35 0 -53.5 -13t-27.5 -49l-28 5q14 60 37 85.5t64 25.5h340v-54h-103v-5l-22 -259q-4 -58 33 -58q41 0 65 64l25 -3q-35 -131 -113 -131q-43 0 -63.5 28.5t-15.5 76.5
l27 282v5h-86v-5q-5 -242 -73 -360z" />
    <glyph glyph-name="Wgrave" unicode="&#x1e80;" horiz-adv-x="977" 
d="M683 176h15l120 367q9 31 9 48q0 68 -93 65v35h226v-35q-41 -1 -62.5 -26t-42.5 -87q-18 -55 -185 -559h-17l-152 459q-28 -77 -88 -238t-82 -221h-15l-197 594q-18 45 -39.5 61t-62.5 17v35h261v-35q-39 1 -53.5 -7.5t-14.5 -28.5q0 -15 9 -44l129 -400h16l120 319
l-27 83q-17 50 -34 64t-67 14v35h260v-35q-39 0 -54 -6.5t-15 -22.5q0 -12 7 -38l5 -15zM559 757v-6h-44l-129 127l2 -1v8h87l85 -129z" />
    <glyph glyph-name="wgrave" unicode="&#x1e81;" horiz-adv-x="767" 
d="M517 -5l-127 312l-130 -312h-18q-22 53 -74.5 177.5t-78.5 186.5q-19 46 -40 67t-55 25v29h218v-29q-60 -7 -60 -32q0 -11 22 -62l99 -229h16l86 214l-15 40q-16 35 -36 49.5t-64 19.5v29h242v-29q-37 -3 -52.5 -10t-15.5 -23t19 -61l90 -229h14l85 227q7 21 7 35
q0 53 -77 61v29h201v-30q-68 -13 -100 -97l-138 -358h-18zM439 552v-6h-44l-129 162l1 -1v8h86l87 -164z" />
    <glyph glyph-name="Wacute" unicode="&#x1e82;" horiz-adv-x="977" 
d="M683 176h15l120 367q9 31 9 48q0 68 -93 65v35h226v-35q-41 -1 -62.5 -26t-42.5 -87q-18 -55 -185 -559h-17l-152 459q-28 -77 -88 -238t-82 -221h-15l-197 594q-18 45 -39.5 61t-62.5 17v35h261v-35q-39 1 -53.5 -7.5t-14.5 -28.5q0 -15 9 -44l129 -400h16l120 319
l-27 83q-17 50 -34 64t-67 14v35h260v-35q-39 0 -54 -6.5t-15 -22.5q0 -12 7 -38l5 -15zM449 751v6l-1 -1l85 129h87v-8l2 1l-129 -127h-44z" />
    <glyph glyph-name="wacute" unicode="&#x1e83;" horiz-adv-x="767" 
d="M517 -5l-127 312l-130 -312h-18q-22 53 -74.5 177.5t-78.5 186.5q-19 46 -40 67t-55 25v29h218v-29q-60 -7 -60 -32q0 -11 22 -62l99 -229h16l86 214l-15 40q-16 35 -36 49.5t-64 19.5v29h242v-29q-37 -3 -52.5 -10t-15.5 -23t19 -61l90 -229h14l85 227q7 21 7 35
q0 53 -77 61v29h201v-30q-68 -13 -100 -97l-138 -358h-18zM328 546v6l-1 -1l85 164h87v-8l1 1l-129 -162h-43z" />
    <glyph glyph-name="Wdieresis" unicode="&#x1e84;" horiz-adv-x="977" 
d="M683 176h15l120 367q9 31 9 48q0 68 -93 65v35h226v-35q-41 -1 -62.5 -26t-42.5 -87q-18 -55 -185 -559h-17l-152 459q-28 -77 -88 -238t-82 -221h-15l-197 594q-18 45 -39.5 61t-62.5 17v35h261v-35q-39 1 -53.5 -7.5t-14.5 -28.5q0 -15 9 -44l129 -400h16l120 319
l-27 83q-17 50 -34 64t-67 14v35h260v-35q-39 0 -54 -6.5t-15 -22.5q0 -12 7 -38l5 -15zM638 831q0 -19 -15 -34t-33 -15q-19 0 -33.5 15t-14.5 34q0 20 14.5 35.5t33.5 15.5q18 0 33 -15.5t15 -35.5zM466 831q0 -20 -14 -34.5t-34 -14.5q-19 0 -33.5 15t-14.5 34
q0 20 14.5 35.5t33.5 15.5q20 0 34 -15t14 -36z" />
    <glyph glyph-name="wdieresis" unicode="&#x1e85;" horiz-adv-x="767" 
d="M517 -5l-127 312l-130 -312h-18q-22 53 -74.5 177.5t-78.5 186.5q-19 46 -40 67t-55 25v29h218v-29q-60 -7 -60 -32q0 -11 22 -62l99 -229h16l86 214l-15 40q-16 35 -36 49.5t-64 19.5v29h242v-29q-37 -3 -52.5 -10t-15.5 -23t19 -61l90 -229h14l85 227q7 21 7 35
q0 53 -77 61v29h201v-30q-68 -13 -100 -97l-138 -358h-18zM345 615q0 -20 -14 -34.5t-33 -14.5q-20 0 -34.5 15t-14.5 34q0 20 15 36t34 16t33 -15.5t14 -36.5zM517 615q0 -19 -14.5 -34t-32.5 -15q-19 0 -33.5 15t-14.5 34q0 20 14.5 36t33.5 16q17 0 32 -16t15 -36z" />
    <glyph glyph-name="uni1e9e" unicode="&#x1e9e;" horiz-adv-x="773" 
d="M523 -12q-83 0 -151 33l-6 152h33q24 -151 123 -151q52 0 81.5 43t29.5 127q0 72 -35.5 118.5t-106.5 45.5q-55 0 -101 -27l-45 46l204 267l-6 14h-313v-577q0 -25 14.5 -31.5t66.5 -10.5q1 0 5 -0.5t6 -0.5v-36h-289v37h5q27 2 40.5 4t29 7t22 14.5t6.5 24.5v531
q0 25 -18 31.5t-85 6.5v35h616l10 -39l-190 -241l9 -14q26 6 57 6q88 0 141 -55.5t53 -147.5q0 -106 -62.5 -159t-143.5 -53z" />
    <glyph glyph-name="Ygrave" unicode="&#x1ef2;" horiz-adv-x="684" 
d="M666 691v-35q-70 -3 -118 -81l-146 -266v-184q0 -60 19.5 -74.5t84.5 -14.5v-36h-300v36q71 0 86.5 14t15.5 75v180l-159 260q-40 57 -61.5 73.5t-69.5 17.5v35h285v-35q-78 -2 -78 -31q0 -12 18 -41l141 -232l128 231q10 17 10 32q0 38 -61 41v35h205zM445 757v-6h-45
l-128 127l2 -1v8h86l86 -129z" />
    <glyph glyph-name="ygrave" unicode="&#x1ef3;" horiz-adv-x="524" 
d="M294 104h15l86 241q11 31 11 54q0 49 -75 57v24h198v-25q-61 -12 -90 -87q-165 -438 -186 -492q-43 -103 -125 -103q-43 0 -65 24.5t-22 57.5q0 28 14.5 43t36.5 15q20 0 31 -15l-1 1v-90q68 0 102 80l33 104l-157 376q-21 40 -45 61t-60 26v24h242v-24q-21 -2 -34 -5.5
t-22.5 -12t-9.5 -21.5q0 -16 12 -40zM341 552v-6h-44l-129 162l1 -1v8h86l87 -164z" />
    <glyph glyph-name="uni2011" unicode="&#x2011;" horiz-adv-x="318" 
d="M36 280h246v-66h-246v66z" />
    <glyph glyph-name="endash" unicode="&#x2013;" horiz-adv-x="488" 
d="M45 280h399v-66h-399v66z" />
    <glyph glyph-name="emdash" unicode="&#x2014;" horiz-adv-x="1000" 
d="M89 275h822v-56h-822v56z" />
    <glyph glyph-name="quoteright" unicode="&#x2019;" horiz-adv-x="355" 
d="M106 656q0 29 19.5 47t53.5 18q35 0 60.5 -27.5t25.5 -69.5q0 -125 -120 -213l-22 31q108 78 93 194q-38 -33 -61 -33q-20 0 -34.5 14t-14.5 39z" />
    <glyph glyph-name="quotesinglbase" unicode="&#x201a;" horiz-adv-x="355" 
d="M106 88q0 29 19.5 47t53.5 18q36 0 61 -27.5t25 -70.5q0 -126 -120 -212l-12.5 17.5t-9.5 12.5q108 79 93 194q-37 -32 -61 -32q-21 0 -35 13.5t-14 39.5z" />
    <glyph glyph-name="quotedblleft" unicode="&#x201c;" horiz-adv-x="595" 
d="M248 474q0 -29 -19.5 -47.5t-53.5 -18.5q-35 0 -60 27.5t-25 70.5q0 127 119 212l12.5 -17.5t9.5 -12.5q-108 -79 -93 -194q37 32 61 32q20 0 34.5 -13.5t14.5 -38.5zM490 474q0 -29 -20 -47.5t-54 -18.5q-35 0 -60 27.5t-25 70.5q0 127 120 212l12.5 -17.5t9.5 -12.5
q-109 -78 -94 -194q37 32 62 32q20 0 34.5 -13.5t14.5 -38.5z" />
    <glyph glyph-name="quotedblright" unicode="&#x201d;" horiz-adv-x="595" 
d="M105 656q0 29 19.5 47t53.5 18q35 0 60.5 -27.5t25.5 -69.5q0 -125 -120 -213l-22 31q108 78 93 194q-38 -33 -61 -33q-20 0 -34.5 14t-14.5 39zM346 656q0 29 19.5 47t53.5 18q36 0 61 -27t25 -70q0 -126 -120 -213l-22 31q109 79 94 194q-38 -33 -62 -33
q-20 0 -34.5 14t-14.5 39z" />
    <glyph glyph-name="quotedblbase" unicode="&#x201e;" horiz-adv-x="595" 
d="M346 88q0 29 19.5 47t53.5 18q36 0 61 -27.5t25 -70.5q0 -127 -120 -212l-12.5 17.5t-9.5 12.5q109 79 94 194q-37 -32 -62 -32q-21 0 -35 13.5t-14 39.5zM105 88q0 29 19.5 47t53.5 18q36 0 61 -27.5t25 -70.5q0 -126 -120 -212l-12.5 17.5t-9.5 12.5q108 79 93 194
q-37 -32 -61 -32q-21 0 -35 13.5t-14 39.5z" />
    <glyph glyph-name="dagger" unicode="&#x2020;" horiz-adv-x="548" 
d="M495 480q0 -28 -22 -45t-49 -14q-22 7 -37 17q-44 23 -98 23q0 -89 8.5 -132.5t36.5 -70.5q-23 -14 -34 -72.5t-11 -222.5h-29q0 157 -10.5 218t-34.5 76q45 49 45 204q-63 0 -105 -25q-14 -10 -31 -17h1q-25 -7 -48 13t-23 48q0 27 22.5 42.5t48.5 12.5q20 -7 37 -16
q44 -23 98 -23q0 58 -27 112q-10 17 -15 38q-9 26 7.5 49t44.5 23q27 0 45 -23t13 -50q-2 -8 -16 -44q-23 -50 -23 -105q58 0 104 26q15 9 32 16h-1q26 7 48.5 -12t22.5 -46z" />
    <glyph glyph-name="daggerdbl" unicode="&#x2021;" horiz-adv-x="548" 
d="M289 461q0 -87 8.5 -131.5t36.5 -72.5q-30 -34 -37.5 -77t-7.5 -129q53 0 97 23q24 13 38 17q27 5 49 -12t22 -46q0 -27 -22.5 -46t-48.5 -12h1q-21 9 -33 16q-44 25 -103 25q0 -55 23 -105q14 -33 16 -43q5 -27 -13 -50.5t-45 -23.5q-28 0 -44.5 23.5t-7.5 49.5
q6 19 15 37q27 54 27 112q-54 0 -98 -23q-17 -9 -37 -16q-26 -3 -48.5 13t-22.5 43q0 28 23 48t48 13h-1q12 -5 31 -17q44 -26 105 -26q0 156 -45 206q45 50 45 204q-63 0 -105 -25q-14 -10 -31 -17h1q-25 -7 -48 13t-23 48t22 44t49 11q15 -5 38 -16q42 -23 97 -23
q0 53 -28 113q-7 13 -14 37q-9 26 7.5 49t44.5 23q27 0 45 -23t13 -50q-2 -8 -16 -44q-23 -50 -23 -105q58 0 104 26q15 9 32 16h-1q26 7 48.5 -12t22.5 -46t-22 -44t-49 -15q-22 7 -37 17q-44 23 -98 23zM335 258l1 -2h-1l-1 1z" />
    <glyph glyph-name="bullet" unicode="&#x2022;" horiz-adv-x="572" 
d="M150 264q0 56 40 96t96 40t96 -40t40 -96t-40 -96t-96 -40t-96 40t-40 96z" />
    <glyph glyph-name="ellipsis" unicode="&#x2026;" horiz-adv-x="899" 
d="M73 57q0 29 19 49t46 20t46 -20t19 -49q0 -27 -19.5 -46.5t-45.5 -19.5q-27 0 -46 19t-19 47zM385 57q0 29 18.5 49t46.5 20q27 0 46 -20t19 -49q0 -27 -19.5 -46.5t-45.5 -19.5q-28 0 -46.5 19t-18.5 47zM697 57q0 29 18.5 49t45.5 20t46.5 -20t19.5 -49
q0 -28 -19.5 -47t-46.5 -19t-45.5 19t-18.5 47z" />
    <glyph glyph-name="perthousand" unicode="&#x2030;" horiz-adv-x="831" 
d="M296 578l-11 -2q-1 -81 -43.5 -134t-96.5 -53q-45 0 -74 35.5t-29 89.5q0 74 45 128t98 54q66 0 92 -68q6 -16 26 -26t45 -10q49 0 90 33q23 65 50 65q7 0 13 -5t6 -15q0 -14 -13.5 -31t-29.5 -28l-191 -291l-214 -336q-6 4 -15 12t-12 10l223 332l143 232l-11 2
q-21 -12 -46 -12q-27 0 -45 18zM266 113q0 74 45.5 128.5t97.5 54.5q44 0 72 -31.5t28 -84.5q0 -86 -42.5 -138.5t-95.5 -52.5q-47 0 -76 35t-29 89zM425 254q-35 0 -64.5 -53.5t-29.5 -115.5q0 -29 12.5 -44.5t32.5 -15.5q36 0 66 42t30 122q0 31 -13 48t-34 17zM202 655
q-35 0 -65.5 -53t-30.5 -114q0 -63 48 -63q35 0 64 43t29 122q0 31 -13 48t-32 17zM547 113q0 74 45 128.5t97 54.5q44 0 72.5 -31.5t28.5 -84.5q0 -86 -43 -138.5t-95 -52.5q-47 0 -76 34.5t-29 89.5zM707 254q-35 0 -65.5 -53.5t-30.5 -115.5q0 -29 13 -44.5t33 -15.5
q35 0 65 42t30 122q0 31 -13 48t-32 17z" />
    <glyph glyph-name="uni2032" unicode="&#x2032;" horiz-adv-x="290" 
d="M68 458l70 262q15 -5 43 -15.5t43 -15.5l-111 -246q-6 2 -22 7t-23 8z" />
    <glyph glyph-name="uni2033" unicode="&#x2033;" horiz-adv-x="480" 
d="M68 458l70 262q15 -5 43 -15.5t43 -15.5l-111 -246q-6 2 -22 7t-23 8zM260 458l69 262q15 -5 43 -15.5t43 -15.5l-111 -246q-6 2 -21.5 7t-22.5 8z" />
    <glyph glyph-name="guilsinglleft" unicode="&#x2039;" horiz-adv-x="445" 
d="M109 238l180 218l27 -17l-119 -203v-13l119 -204l-27 -20l-179 217v23z" />
    <glyph glyph-name="guilsinglright" unicode="&#x203a;" horiz-adv-x="445" 
d="M155 456l180 -217v-23l1 1l-180 -218l-27 20l118 204v13l-118 203z" />
    <glyph glyph-name="uni2042" unicode="&#x2042;" horiz-adv-x="896" 
d="M470 546v-4q47 -24 121 -44q26 -5 26 -30q0 -16 -12 -30.5t-27 -14.5q-12 0 -22 12l-14 14q-44 49 -89 78q6 -64 26 -134q6 -19 -4 -30.5t-26 -11.5t-26.5 11.5t-6.5 31.5l6 26q16 73 18 106q-55 -34 -103 -91q-17 -14 -36.5 -1t-19.5 33q0 21 24 29h-1l14 4
q75 23 110 44q-59 25 -124 39q-22 3 -22 29q0 21 16.5 34t37.5 -3l15 -13v1q52 -50 90 -76q-8 56 -28 132q-6 20 4.5 32t28.5 12q17 0 27.5 -11.5t5.5 -33.5v1l-9 -33q-14 -51 -19 -98q51 33 105 88q12 13 23 13q12 0 22 -14t10 -29q0 -26 -22 -31l-28 -7q-62 -14 -91 -30z
M259 174v-4q47 -24 121 -44q25 -6 25 -30q0 -17 -11.5 -31t-26.5 -14q-11 0 -22 11l-14 14q-43 50 -90 79q7 -69 27 -134q6 -19 -4.5 -30.5t-26.5 -11.5t-26 11.5t-6 31.5l6 26q14 64 17 106q-55 -35 -102 -92q-16 -14 -36.5 -1t-20.5 34t25 29h-1l14 4q75 23 110 44
q-59 25 -124 39q-23 3 -23 28q0 22 17 35t38 -3l15 -14v1q55 -52 89 -75q-10 66 -27 132q-6 20 4.5 32t27.5 12t28 -11.5t6 -33.5v1l-9 -33q-15 -50 -20 -98q56 35 106 88q12 13 23 13q12 0 21.5 -14t9.5 -30q0 -24 -21 -30l-28 -7q-62 -14 -91 -30zM681 174v-4
q48 -25 122 -44q25 -6 25 -30q0 -17 -11.5 -31t-26.5 -14q-12 0 -23 11l-14 14q-42 49 -89 79q7 -66 26 -134q6 -19 -4 -30.5t-26 -11.5t-26 11.5t-6 31.5l6 26q14 64 17 106q-57 -37 -103 -92q-16 -14 -36 -1t-20 34t24 29h-1l14 4q75 23 111 44q-60 25 -125 39
q-22 3 -22 28q0 22 16.5 35t37.5 -3l15 -14v1q52 -49 90 -75q-10 66 -27 132q-6 20 4.5 32t27.5 12t27.5 -11.5t5.5 -33.5v1l-9 -33q-14 -54 -19 -98q56 35 105 88q13 13 24 13q12 0 21.5 -14t9.5 -30q0 -24 -21 -30l-29 -7q-62 -14 -91 -30z" />
    <glyph glyph-name="fraction" unicode="&#x2044;" 
d="M152 -15l241 370l223 351q5 -3 16.5 -11t16.5 -11l-235 -349q-23 -38 -103.5 -169.5t-125.5 -203.5q-30 21 -33 23z" />
    <glyph glyph-name="zero.sups" unicode="&#x2070;" horiz-adv-x="331" 
d="M306 602q0 -92 -40.5 -142t-100.5 -50q-61 0 -100 47t-39 145q0 95 40 148t99 53q60 0 100.5 -52.5t40.5 -148.5zM236 602q0 95 -15 135.5t-56 40.5q-39 0 -54 -40t-15 -136q0 -94 13.5 -130t55.5 -36q43 0 57 36.5t14 129.5z" />
    <glyph glyph-name="four.sups" unicode="&#x2074;" horiz-adv-x="322" 
d="M16 533l-4 13l201 258q5 -1 14 -3t13 -2v-242h59v-24h-59v-41q0 -33 15.5 -43.5t43.5 -11.5v-20h-180v20q32 1 46.5 11.5t14.5 39.5v45h-164zM64 561l4 -4h111v155z" />
    <glyph glyph-name="five.sups" unicode="&#x2075;" horiz-adv-x="316" 
d="M104 733l-6 -2q-2 -32 -4 -48l-4 -51q42 22 82 22q47 0 82 -28t35 -80q0 -61 -46 -98.5t-114 -37.5q-39 0 -72 20.5t-33 54.5q0 19 11 30.5t29 11.5q39 0 39 -36l1 1l-29 -41q23 -16 58 -16q41 0 63 31t22 76q0 81 -63 81q-40 0 -74 -37h-28l16 213q55 -16 107 -16
q57 0 101 20v-29q-49 -44 -129 -44q-23 0 -44 3z" />
    <glyph glyph-name="six.sups" unicode="&#x2076;" horiz-adv-x="333" 
d="M186 803q47 0 75.5 -21.5t28.5 -46.5q0 -40 -40 -40q-18 0 -29 9.5t-11 26.5l-1 -1l27 31q-22 20 -50 20q-37 0 -61.5 -52.5t-28.5 -116.5q42 42 93 42q56 0 86.5 -30t30.5 -79q0 -62 -41 -98.5t-95 -36.5q-57 0 -97.5 44t-40.5 136q0 89 45 151t109 62zM236 542
q0 87 -57 87q-21 0 -44 -18t-39 -51q1 -124 74 -124q66 0 66 106z" />
    <glyph glyph-name="seven.sups" unicode="&#x2077;" horiz-adv-x="305" 
d="M99 450q22 148 145 298q-34 -13 -61 -13q-14 0 -34 4q-6 0 -7 1q-17 4 -29 4q-49 0 -57 -73h-29l19 129h29l1 -8q29 11 44 11q20 0 48 -12q24 -11 43 -11q33 0 76 28l19 -21q-69 -85 -100.5 -157t-31.5 -181q0 -9 -1.5 -15.5t-10 -13.5t-25.5 -7q-21 0 -30.5 9.5
t-7.5 27.5z" />
    <glyph glyph-name="eight.sups" unicode="&#x2078;" horiz-adv-x="322" 
d="M211 622l3 1v-2q83 -30 83 -99q0 -50 -44.5 -81t-99.5 -31q-57 0 -92.5 25.5t-35.5 67.5q0 28 23 53t59 40v2h3l2 4q-72 32 -72 94q0 45 36.5 76t90.5 31q51 0 83 -24t32 -61q0 -53 -72 -94l2 -4h2v1q-2 0 -3 1zM238 510q0 55 -98 77q-61 -24 -60 -81q1 -34 22.5 -52
t57.5 -18q33 0 55.5 19.5t22.5 54.5zM223 713q0 28 -18.5 47t-46.5 19q-29 0 -47 -18.5t-18 -43.5q0 -60 88 -84q42 24 42 80z" />
    <glyph glyph-name="nine.sups" unicode="&#x2079;" horiz-adv-x="333" 
d="M147 410q-47 0 -74 19t-27 42q0 43 37 43q18 0 29.5 -10.5t11.5 -27.5l2 1l-29 -27q17 -17 50 -17q39 0 62.5 49t25.5 118q-41 -41 -90 -41q-55 0 -86 33.5t-31 86.5q0 55 41.5 89.5t95.5 34.5q57 0 97.5 -44t40.5 -135q0 -98 -44.5 -156t-111.5 -58zM97 676
q0 -91 59 -91q21 0 44 17.5t37 48.5q-1 127 -73 127q-67 0 -67 -102z" />
    <glyph glyph-name="Euro" unicode="&#x20ac;" horiz-adv-x="645" 
d="M72 400h65q20 126 91.5 200.5t166.5 74.5q102 0 190 -64q-5 -24 -16 -67.5t-16 -64.5h-21q1 44 -12 76t-35.5 48.5t-44.5 23.5t-45 7q-64 0 -109.5 -59.5t-57.5 -174.5h310l-11 -42h-303v-60h288q-2 -7 -6 -21.5t-5 -21.5h-274q12 -108 60 -166t106 -58q116 0 155 128
q3 -1 14 -5t17 -6q-48 -160 -196 -160q-95 0 -164.5 70t-84.5 197h-73l11 43h59v18q0 29 1 42h-71z" />
    <glyph glyph-name="uni2117" unicode="&#x2117;" horiz-adv-x="775" 
d="M48 327q0 138 100.5 238t239.5 100q144 0 241.5 -99t97.5 -239t-100 -240.5t-239 -100.5q-142 0 -241 96.5t-99 244.5zM108 324q0 -122 79 -203.5t203 -81.5q123 0 199.5 81t76.5 204q0 125 -79 208t-199 83q-122 0 -201 -83.5t-79 -207.5zM412 296h-41v-119l50 -8v-27
h-176v27l47 8v299l-47 8v26h169q56 0 98 -26.5t42 -80.5q0 -49 -38 -78t-104 -29zM371 470v-136h45q23 0 40.5 18t17.5 47q0 71 -62 71h-41z" />
    <glyph glyph-name="trademark" unicode="&#x2122;" horiz-adv-x="670" 
d="M535 634h-7l-78 -179h-17l-74 179h-5l-15 -150l33 -6v-23h-92v23l33 6l19 193l-38 6v23h94l62 -165h7l71 165h92v-23l-35 -6l12 -193l31 -6v-23h-118v23l34 6zM55 706h210l14 -74h-20l-32 47h-38v-195l32 -6v-23h-121v23l32 6v195h-37l-32 -47h-21z" />
    <glyph glyph-name="oneseventh" unicode="&#x2150;" 
d="M152 -15l241 370l223 351q5 -3 16.5 -11t16.5 -11l-235 -349q-23 -38 -103.5 -169.5t-125.5 -203.5q-30 21 -33 23zM90 646v21q70 4 111 22h28v-316q0 -43 73 -44v-19h-210v19q40 2 57.5 11t17.5 33v265q-11 2 -38.5 4.5zM536 22q22 145 146 299q-34 -13 -61 -13
q-15 0 -35 4q-6 0 -7 1q-17 4 -29 4q-48 0 -56 -74h-29l19 129h29l1 -8q26 11 43 11q19 0 49 -12q24 -11 43 -11q32 0 75 28l19 -21q-68 -84 -99.5 -156.5t-31.5 -181.5q0 -9 -1.5 -15.5t-10.5 -13t-26 -6.5q-20 0 -30 9t-8 27z" />
    <glyph glyph-name="oneninth" unicode="&#x2151;" 
d="M152 -15l241 370l223 351q5 -3 16.5 -11t16.5 -11l-235 -349q-23 -38 -103.5 -169.5t-125.5 -203.5q-30 21 -33 23zM90 646v21q70 4 111 22h28v-316q0 -43 73 -44v-19h-210v19q40 2 57.5 11t17.5 33v265q-11 2 -38.5 4.5zM584 -17q-47 0 -73.5 18.5t-26.5 41.5
q0 44 37 44q17 0 28.5 -11t11.5 -28l2 1l-29 -27q17 -17 50 -17q40 0 63.5 49t25.5 119q-41 -41 -91 -41q-55 0 -85.5 33t-30.5 86q0 55 41 89.5t95 34.5q57 0 97.5 -43.5t40.5 -135.5q0 -98 -44.5 -155.5t-111.5 -57.5zM534 248q0 -90 59 -90q22 0 45 17t37 48
q-1 127 -74 127q-67 0 -67 -102z" />
    <glyph glyph-name="onethird" unicode="&#x2153;" 
d="M152 -15l241 370l223 351q5 -3 16.5 -11t16.5 -11l-235 -349q-23 -38 -103.5 -169.5t-125.5 -203.5q-30 21 -33 23zM90 646v21q70 4 111 22h28v-316q0 -43 73 -44v-19h-210v19q40 2 57.5 11t17.5 33v265q-11 2 -38.5 4.5zM619 199l5 -8q42 -6 70.5 -31t28.5 -68
q0 -53 -46 -81t-110 -28q-48 0 -80 19.5t-32 54.5q0 20 10.5 32.5t28.5 12.5q37 0 37 -40l1 1l-26 -39q19 -17 57 -17q90 0 90 87q0 75 -64 75q-19 0 -57 -12l-7 24q61 23 89 49.5t28 64.5q0 56 -59 56q-34 0 -59 -20q4 -7 13.5 -23.5t13.5 -23.5l-1 1q0 -14 -10.5 -23.5
t-26.5 -9.5q-17 0 -27.5 13t-10.5 33q0 36 36 56.5t82 20.5q53 0 86 -22t33 -60q0 -28 -26.5 -53t-66.5 -41z" />
    <glyph glyph-name="twothirds" unicode="&#x2154;" 
d="M152 -15l241 370l223 351q5 -3 16.5 -11t16.5 -11l-235 -349q-23 -38 -103.5 -169.5t-125.5 -203.5q-30 21 -33 23zM105 365l1 -7h115q14 0 25 18t16 47h35q-3 -20 -9 -57.5t-8 -55.5h-251q-1 5 -4 14t-4 13l22 19q168 139 168 232q0 44 -19.5 63t-46.5 19q-46 0 -66 -43
l36 -51l-1 1q0 -19 -12 -30t-32 -11q-19 0 -30 14t-11 36q0 49 36.5 79t85.5 30q59 0 95 -29t36 -79q0 -23 -12 -47.5t-37.5 -51.5t-42 -42.5t-47.5 -42.5q-27 -22 -44 -39h2q2 1 4 1zM619 199l5 -8q42 -6 70.5 -31t28.5 -68q0 -53 -46 -81t-110 -28q-48 0 -80 19.5
t-32 54.5q0 20 10.5 32.5t28.5 12.5q37 0 37 -40l1 1l-26 -39q19 -17 57 -17q90 0 90 87q0 75 -64 75q-19 0 -57 -12l-7 24q61 23 89 49.5t28 64.5q0 56 -59 56q-34 0 -59 -20q4 -7 13.5 -23.5t13.5 -23.5l-1 1q0 -14 -10.5 -23.5t-26.5 -9.5q-17 0 -27.5 13t-10.5 33
q0 36 36 56.5t82 20.5q53 0 86 -22t33 -60q0 -28 -26.5 -53t-66.5 -41z" />
    <glyph glyph-name="onefifth" unicode="&#x2155;" 
d="M152 -15l241 370l223 351q5 -3 16.5 -11t16.5 -11l-235 -349q-23 -38 -103.5 -169.5t-125.5 -203.5q-30 21 -33 23zM90 646v21q70 4 111 22h28v-316q0 -43 73 -44v-19h-210v19q40 2 57.5 11t17.5 33v265q-11 2 -38.5 4.5zM541 306l-6 -2q-2 -32 -4 -49l-4 -51
q42 22 83 22q47 0 81.5 -28t34.5 -79q0 -62 -45.5 -99t-114.5 -37q-39 0 -71.5 20t-32.5 54q0 19 11 31t29 12t28 -10t10 -27l1 1l-28 -41q21 -16 57 -16q42 0 64 31.5t22 76.5q0 80 -64 80q-40 0 -73 -36h-28l16 212q53 -16 107 -16q57 0 100 20v-28q-47 -44 -129 -44
q-23 0 -44 3z" />
    <glyph glyph-name="twofifths" unicode="&#x2156;" 
d="M152 -15l241 370l223 351q5 -3 16.5 -11t16.5 -11l-235 -349q-23 -38 -103.5 -169.5t-125.5 -203.5q-30 21 -33 23zM105 365l1 -7h115q14 0 25 18t16 47h35q-3 -20 -9 -57.5t-8 -55.5h-251q-1 5 -4 14t-4 13l22 19q168 139 168 232q0 44 -19.5 63t-46.5 19q-46 0 -66 -43
l36 -51l-1 1q0 -19 -12 -30t-32 -11q-19 0 -30 14t-11 36q0 49 36.5 79t85.5 30q59 0 95 -29t36 -79q0 -23 -12 -47.5t-37.5 -51.5t-42 -42.5t-47.5 -42.5q-27 -22 -44 -39h2q2 1 4 1zM541 306l-6 -2q-2 -32 -4 -49l-4 -51q42 22 83 22q47 0 81.5 -28t34.5 -79
q0 -62 -45.5 -99t-114.5 -37q-39 0 -71.5 20t-32.5 54q0 19 11 31t29 12t28 -10t10 -27l1 1l-28 -41q21 -16 57 -16q42 0 64 31.5t22 76.5q0 80 -64 80q-40 0 -73 -36h-28l16 212q53 -16 107 -16q57 0 100 20v-28q-47 -44 -129 -44q-23 0 -44 3z" />
    <glyph glyph-name="threefifths" unicode="&#x2157;" 
d="M152 -15l241 370l223 351q5 -3 16.5 -11t16.5 -11l-235 -349q-23 -38 -103.5 -169.5t-125.5 -203.5q-30 21 -33 23zM211 519l5 -8q42 -6 71 -31.5t29 -68.5q0 -53 -46.5 -80.5t-109.5 -27.5q-48 0 -80.5 19.5t-32.5 54.5q0 20 10.5 32t29.5 12q17 0 27 -10.5t10 -28.5
l1 1l-26 -39q19 -17 57 -17q89 0 89 86q0 76 -63 76q-19 0 -57 -12l-7 24q61 23 88.5 49.5t27.5 64.5q0 56 -58 56q-34 0 -59 -20q3 -6 13 -22.5t14 -25.5l-1 1q0 -14 -10.5 -23t-26.5 -9q-17 0 -28 12.5t-11 33.5q0 36 36.5 56.5t82.5 20.5q52 0 85.5 -22t33.5 -60
q0 -28 -26.5 -53t-67.5 -41zM541 306l-6 -2q-2 -32 -4 -49l-4 -51q42 22 83 22q47 0 81.5 -28t34.5 -79q0 -62 -45.5 -99t-114.5 -37q-39 0 -71.5 20t-32.5 54q0 19 11 31t29 12t28 -10t10 -27l1 1l-28 -41q21 -16 57 -16q42 0 64 31.5t22 76.5q0 80 -64 80q-40 0 -73 -36
h-28l16 212q53 -16 107 -16q57 0 100 20v-28q-47 -44 -129 -44q-23 0 -44 3z" />
    <glyph glyph-name="fourfifths" unicode="&#x2158;" 
d="M152 -15l241 370l223 351q5 -3 16.5 -11t16.5 -11l-235 -349q-23 -38 -103.5 -169.5t-125.5 -203.5q-30 21 -33 23zM3 425l-4 14l201 257q5 -1 14 -3t13 -2v-241h59v-25h-59v-41q0 -33 15 -43.5t44 -11.5v-19h-180v19q32 1 46.5 11.5t14.5 39.5v45h-164zM51 454l4 -4h111
v154zM541 306l-6 -2q-2 -32 -4 -49l-4 -51q42 22 83 22q47 0 81.5 -28t34.5 -79q0 -62 -45.5 -99t-114.5 -37q-39 0 -71.5 20t-32.5 54q0 19 11 31t29 12t28 -10t10 -27l1 1l-28 -41q21 -16 57 -16q42 0 64 31.5t22 76.5q0 80 -64 80q-40 0 -73 -36h-28l16 212
q53 -16 107 -16q57 0 100 20v-28q-47 -44 -129 -44q-23 0 -44 3z" />
    <glyph glyph-name="onesixth" unicode="&#x2159;" 
d="M152 -15l241 370l223 351q5 -3 16.5 -11t16.5 -11l-235 -349q-23 -38 -103.5 -169.5t-125.5 -203.5q-30 21 -33 23zM90 646v21q70 4 111 22h28v-316q0 -43 73 -44v-19h-210v19q40 2 57.5 11t17.5 33v265q-11 2 -38.5 4.5zM604 375q47 0 75 -21t28 -46q0 -40 -39 -40
q-18 0 -29 9.5t-11 26.5l-1 -1l27 31q-21 19 -50 19q-38 0 -62.5 -52.5t-28.5 -116.5q42 42 94 42q55 0 85.5 -30t30.5 -78q0 -63 -40.5 -99t-95.5 -36q-57 0 -97 44t-40 136q0 89 44.5 150.5t109.5 61.5zM654 115q0 86 -58 86q-21 0 -44 -18t-39 -50q1 -125 74 -125
q67 0 67 107z" />
    <glyph glyph-name="fivesixths" unicode="&#x215a;" 
d="M152 -15l241 370l223 351q5 -3 16.5 -11t16.5 -11l-235 -349q-23 -38 -103.5 -169.5t-125.5 -203.5q-30 21 -33 23zM130 626l-6 -2q-2 -34 -4 -49l-4 -51q42 22 82 22q47 0 82 -28t35 -79q0 -62 -45.5 -99t-114.5 -37q-39 0 -72 20t-33 54q0 19 11 30.5t30 11.5
q38 0 38 -36l1 1l-28 -41q21 -16 57 -16q41 0 63 31.5t22 76.5q0 80 -63 80q-40 0 -73 -36h-29l17 212q53 -16 106 -16q58 0 101 20v-28q-47 -44 -129 -44q-23 0 -44 3zM604 375q47 0 75 -21t28 -46q0 -40 -39 -40q-18 0 -29 9.5t-11 26.5l-1 -1l27 31q-21 19 -50 19
q-38 0 -62.5 -52.5t-28.5 -116.5q42 42 94 42q55 0 85.5 -30t30.5 -78q0 -63 -40.5 -99t-95.5 -36q-57 0 -97 44t-40 136q0 89 44.5 150.5t109.5 61.5zM654 115q0 86 -58 86q-21 0 -44 -18t-39 -50q1 -125 74 -125q67 0 67 107z" />
    <glyph glyph-name="oneeighth" unicode="&#x215b;" 
d="M649 194l3 1v-2q82 -28 82 -98q0 -51 -44 -81.5t-100 -30.5q-57 0 -92 25t-35 67q0 28 23 53.5t58 40.5v2h3l2 4q-71 31 -71 94q0 45 36.5 75.5t90.5 30.5q51 0 82.5 -23.5t31.5 -60.5q0 -55 -71 -95l2 -4h2v1q-2 0 -3 1zM152 -15l241 370l223 351q5 -3 16.5 -11
t16.5 -11l-235 -349q-23 -38 -103.5 -169.5t-125.5 -203.5q-30 21 -33 23zM90 646v21q70 4 111 22h28v-316q0 -43 73 -44v-19h-210v19q40 2 57.5 11t17.5 33v265q-11 2 -38.5 4.5zM676 82q0 56 -99 78q-60 -23 -59 -82q1 -34 22.5 -52t56.5 -18q33 0 56 19.5t23 54.5z
M661 286q0 28 -18.5 46.5t-47.5 18.5t-47 -18t-18 -43q0 -61 89 -85q42 24 42 81z" />
    <glyph glyph-name="threeeighths" unicode="&#x215c;" 
d="M649 194l3 1v-2q82 -28 82 -98q0 -51 -44 -81.5t-100 -30.5q-57 0 -92 25t-35 67q0 28 23 53.5t58 40.5v2h3l2 4q-71 31 -71 94q0 45 36.5 75.5t90.5 30.5q51 0 82.5 -23.5t31.5 -60.5q0 -55 -71 -95l2 -4h2v1q-2 0 -3 1zM211 519l5 -8q42 -6 71 -31.5t29 -68.5
q0 -53 -46.5 -80.5t-109.5 -27.5q-48 0 -80.5 19.5t-32.5 54.5q0 20 10.5 32t29.5 12q17 0 27 -10.5t10 -28.5l1 1l-26 -39q19 -17 57 -17q89 0 89 86q0 76 -63 76q-19 0 -57 -12l-7 24q61 23 88.5 49.5t27.5 64.5q0 56 -58 56q-34 0 -59 -20q3 -6 13 -22.5t14 -25.5l-1 1
q0 -14 -10.5 -23t-26.5 -9q-17 0 -28 12.5t-11 33.5q0 36 36.5 56.5t82.5 20.5q52 0 85.5 -22t33.5 -60q0 -28 -26.5 -53t-67.5 -41zM152 -15l241 370l223 351q5 -3 16.5 -11t16.5 -11l-235 -349q-23 -38 -103.5 -169.5t-125.5 -203.5q-30 21 -33 23zM676 82q0 56 -99 78
q-60 -23 -59 -82q1 -34 22.5 -52t56.5 -18q33 0 56 19.5t23 54.5zM661 286q0 28 -18.5 46.5t-47.5 18.5t-47 -18t-18 -43q0 -61 89 -85q42 24 42 81z" />
    <glyph glyph-name="fiveeighths" unicode="&#x215d;" 
d="M649 194l3 1v-2q82 -28 82 -98q0 -51 -44 -81.5t-100 -30.5q-57 0 -92 25t-35 67q0 28 23 53.5t58 40.5v2h3l2 4q-71 31 -71 94q0 45 36.5 75.5t90.5 30.5q51 0 82.5 -23.5t31.5 -60.5q0 -55 -71 -95l2 -4h2v1q-2 0 -3 1zM130 626l-6 -2q-2 -34 -4 -49l-4 -51
q42 22 82 22q47 0 82 -28t35 -79q0 -62 -45.5 -99t-114.5 -37q-39 0 -72 20t-33 54q0 19 11 30.5t30 11.5q38 0 38 -36l1 1l-28 -41q21 -16 57 -16q41 0 63 31.5t22 76.5q0 80 -63 80q-40 0 -73 -36h-29l17 212q53 -16 106 -16q58 0 101 20v-28q-47 -44 -129 -44
q-23 0 -44 3zM152 -15l241 370l223 351q5 -3 16.5 -11t16.5 -11l-235 -349q-23 -38 -103.5 -169.5t-125.5 -203.5q-30 21 -33 23zM676 82q0 56 -99 78q-60 -23 -59 -82q1 -34 22.5 -52t56.5 -18q33 0 56 19.5t23 54.5zM661 286q0 28 -18.5 46.5t-47.5 18.5t-47 -18t-18 -43
q0 -61 89 -85q42 24 42 81z" />
    <glyph glyph-name="seveneighths" unicode="&#x215e;" 
d="M649 194l3 1v-2q82 -28 82 -98q0 -51 -44 -81.5t-100 -30.5q-57 0 -92 25t-35 67q0 28 23 53.5t58 40.5v2h3l2 4q-71 31 -71 94q0 45 36.5 75.5t90.5 30.5q51 0 82.5 -23.5t31.5 -60.5q0 -55 -71 -95l2 -4h2v1q-2 0 -3 1zM143 342q22 147 146 299q-34 -13 -62 -13
q-14 0 -34 4q-6 0 -7 1q-17 4 -29 4q-48 0 -56 -74h-30l20 129h29l1 -8q26 11 43 11q20 0 48 -12q24 -11 43 -11q33 0 76 28l19 -21q-69 -86 -100.5 -157.5t-31.5 -180.5q0 -9 -1.5 -15.5t-10 -13t-25.5 -6.5q-21 0 -30.5 9t-7.5 27zM152 -15l241 370l223 351q5 -3 16.5 -11
t16.5 -11l-235 -349q-23 -38 -103.5 -169.5t-125.5 -203.5q-30 21 -33 23zM676 82q0 56 -99 78q-60 -23 -59 -82q1 -34 22.5 -52t56.5 -18q33 0 56 19.5t23 54.5zM661 286q0 28 -18.5 46.5t-47.5 18.5t-47 -18t-18 -43q0 -61 89 -85q42 24 42 81z" />
    <glyph glyph-name="uni2191" unicode="&#x2191;" horiz-adv-x="704" 
d="M363 604l263 -237l-43 -57l-186 166v-425h-85v425l-186 -166l-44 57l265 237h16z" />
    <glyph glyph-name="uni2193" unicode="&#x2193;" horiz-adv-x="704" 
d="M626 288l-263 -237h-16l-265 237l44 57l186 -166v425h85v-425l186 166z" />
    <glyph glyph-name="partialdiff" unicode="&#x2202;" horiz-adv-x="544" 
d="M287 603q-84 0 -109 -132h-41l11 106q20 25 62 42.5t88 17.5q95 0 145 -78t50 -200q0 -179 -72 -275t-193 -96q-72 0 -122.5 47t-50.5 132q0 104 67 166t148 62q40 0 76.5 -17.5t53.5 -49.5v-2l5 3v43q0 117 -28.5 174t-89.5 57zM387 269v1q-11 34 -38.5 58t-58.5 24
q-56 0 -94 -50.5t-38 -135.5q0 -63 22.5 -99.5t63.5 -36.5q58 0 100.5 65.5t42.5 173.5z" />
    <glyph glyph-name="product" unicode="&#x220f;" horiz-adv-x="544" 
d="M2 625h544v-31l-79 -15v-533l79 -16v-30h-256v30l79 16v533h-190v-533l79 -16v-30h-256v30l79 16v533l-79 15v31z" />
    <glyph glyph-name="summation" unicode="&#x2211;" horiz-adv-x="544" 
d="M148 83l5 -10v-3h254v2l85 111h42l-48 -183h-474l-6 8l265 273v18l-244 320l5 6h450l24 -163h-36l-90 130v2h-213v-3l-5 -7v-5l201 -259v-11l-215 -221v-5z" />
    <glyph glyph-name="minus" unicode="&#x2212;" horiz-adv-x="620" 
d="M570 230h-520v60h520v-60z" />
    <glyph glyph-name="radical" unicode="&#x221a;" horiz-adv-x="544" 
d="M322 52h13v4l153 701l50 -10l-185 -886h-39l-197 531v3l-101 -36l-12 28l176 59l142 -391v-3z" />
    <glyph glyph-name="infinity" unicode="&#x221e;" horiz-adv-x="544" 
d="M129 151q-61 0 -93.5 37.5t-32.5 86.5q0 53 37 90.5t89 37.5q73 0 143 -92q69 92 146 92q61 0 93.5 -37t32.5 -87q0 -53 -37 -90.5t-89 -37.5q-76 0 -143 90q-70 -90 -146 -90zM146 362q-34 0 -55 -23.5t-21 -63.5q0 -38 21 -61.5t51 -23.5q18 0 37.5 13.5t31.5 28.5
t35 45v6q-20 26 -32.5 40.5t-31 26.5t-36.5 12zM401 192q34 0 55 23.5t21 63.5q0 38 -21 61.5t-51 23.5q-18 0 -37 -14t-32 -29t-35 -45v-6q28 -39 50.5 -58.5t49.5 -19.5z" />
    <glyph glyph-name="integral" unicode="&#x222b;" horiz-adv-x="544" 
d="M307 499l13 -494q2 -93 -48.5 -152.5t-129.5 -59.5q-31 0 -53.5 15.5t-22.5 46.5q0 20 13 35t37 15q51 0 58 -61v-4l26 -7v1q19 19 31 66t10 95l-12 494q-2 94 48 152.5t128 58.5q32 0 55 -15.5t23 -45.5q0 -19 -13.5 -34.5t-37.5 -15.5q-22 0 -38 15t-19 46v4l-26 7v-1
q-45 -42 -42 -161z" />
    <glyph glyph-name="approxequal" unicode="&#x2248;" horiz-adv-x="544" 
d="M434 383l53 -21q-14 -46 -46.5 -77t-84.5 -31q-37 0 -96 38q-3 2 -12.5 8t-13.5 8.5t-12 7t-13 6.5t-11.5 3.5t-12.5 1.5q-24 0 -43 -11t-27 -21t-22 -32l-42 30q15 31 51.5 57t82.5 26q34 0 93 -36q52 -35 79 -35q28 0 49.5 23.5t27.5 54.5zM450 223l47 -23
q-12 -36 -49.5 -62t-79.5 -26q-47 0 -110 40q-51 32 -73 32q-37 0 -72 -67l-46 29q49 87 118 87q31 0 91 -34q58 -37 92 -37q30 0 51.5 17.5t30.5 43.5z" />
    <glyph glyph-name="notequal" unicode="&#x2260;" horiz-adv-x="620" 
d="M482 491l-65 -121h153v-60h-185l-64 -120h249v-60h-281l-86 -160l-56 27l71 133h-168v60h200l64 120h-264v60h296l80 148z" />
    <glyph glyph-name="lessequal" unicode="&#x2264;" horiz-adv-x="620" 
d="M570 0h-520v60h520v-60zM570 545l-454 -179l454 -179v-57l-520 205v62l520 205v-57z" />
    <glyph glyph-name="greaterequal" unicode="&#x2265;" horiz-adv-x="620" 
d="M570 0h-520v60h520v-60zM504 366l-454 179v57l520 -205v-62l-520 -205v57z" />
    <glyph glyph-name="lozenge" unicode="&#x25ca;" horiz-adv-x="544" 
d="M273 -101l-247 375l247 377l247 -377zM110 271l163 -250l164 250v6l-164 251q-108 -164 -163 -251v-6z" />
    <glyph glyph-name="uni2605" unicode="&#x2605;" horiz-adv-x="574" 
d="M129 -9l-2 1l65 184v7l-163 115l200 -7v4l57 192h8l58 -192v-4q33 1 98.5 3t97.5 2l-159 -113v-7l65 -183l-2 -1l-162 119zM548 296l7 5l-1 -5h-6zM25 298l-2 4l6 -4h-4z" />
    <glyph glyph-name="commaaccent" unicode="&#xf6c3;" horiz-adv-x="500" 
d="M209 -98q0 14 11 25t29 11q26 0 44 -22.5t18 -56.5q0 -65 -79 -108l-16 23q48 28 48 59q0 9 -5.5 17t-9.5 10.5t-16 10.5q-24 16 -24 31z" />
    <glyph glyph-name="apple" unicode="&#xf8ff;" horiz-adv-x="544" 
d="M211 720h11l32 -121l-3 -82l68 -8l64 99l8 99h12l7 -99l-17 -129l36 -85l35 -38l1 -6l-7 -8v-18l8 -4l-1 -9l-17 -36l-36 7l-11 101l-34 56l-13 -2l26 -60l4 -99l-37 -46l3 -22l26 -37l7 -71l-64 -23l-33 16l-35 57l-75 25l-28 47l-3 42l-30 41l-2 58l4 27l-11 44z
M489 244l6 -9l-3 -37l-12 -17l-5 -33l23 -8l-3 -10l-23 7l-43 -26l-5 10l39 23l5 36l-36 14l-13 31l-1 10l14 15l24 4zM272 305l36 -14l11 13l-3 14l-11 10l-30 -10zM329 64l3 -4l-7 -21l-40 -43l-68 -23l-97 14l-55 48l-18 62l34 95l11 -1l-9 -71l22 -41l37 -33l88 -16
l48 3zM144 438l9 -9l33 34l11 76h-18z" />
    <glyph glyph-name="zero.tnum" horiz-adv-x="574" 
d="M526 337q0 -168 -69 -258.5t-172 -90.5q-104 0 -170.5 84.5t-66.5 264.5q0 174 68 270t169 96q103 0 172 -95.5t69 -270.5zM429 337q0 175 -30.5 250.5t-113.5 75.5q-79 0 -109 -74.5t-30 -251.5q0 -175 27 -241.5t112 -66.5q86 0 115 67.5t29 240.5z" />
    <glyph glyph-name="one.tnum" horiz-adv-x="574" 
d="M115 614v38q111 7 197 40h33v-579q0 -44 30 -63.5t103 -19.5v-30h-359v30q77 4 108 20.5t31 62.5v487q-23 3 -72 7.5t-71 6.5z" />
    <glyph glyph-name="two.tnum" horiz-adv-x="574" 
d="M166 102l4 -17h227q33 0 56.5 33t31.5 87h35l-30 -205h-433l-14 48q8 8 38 32q41 34 71.5 60.5t79.5 76t81 92.5t56 97.5t24 102.5q0 80 -40.5 117t-96.5 37q-100 0 -132 -82l62 -88q-2 -33 -20 -55t-45 -22q-30 0 -46 24.5t-16 64.5q0 88 61.5 143t146.5 55
q103 0 164.5 -52t61.5 -143q0 -36 -17 -76t-38.5 -70t-62 -71t-64 -62t-68.5 -59q-35 -30 -77 -68z" />
    <glyph glyph-name="three.tnum" horiz-adv-x="574" 
d="M320 381l5 -14q75 -8 128.5 -54.5t53.5 -128.5q0 -65 -41 -111t-100.5 -65.5t-129.5 -19.5q-83 0 -138 34.5t-55 98.5q0 36 15.5 58.5t41.5 22.5t40.5 -20t14.5 -55l1 1l-44 -67q33 -35 117 -35q34 0 63.5 7.5t57 24.5t43 50t15.5 80q0 71 -36 105.5t-98 34.5
q-39 0 -89 -15q-2 7 -7 19t-7 18q113 42 165 91t52 116q0 108 -123 108q-75 0 -120 -43l47 -82q0 -25 -16 -41.5t-39 -16.5q-25 0 -40.5 22t-15.5 59q0 66 62.5 103t140.5 37q90 0 146.5 -40.5t56.5 -108.5q0 -54 -47.5 -98.5t-119.5 -74.5zM192 540v1l1 -2z" />
    <glyph glyph-name="four.tnum" horiz-adv-x="574" 
d="M37 212l-10 23l365 468q5 -1 14 -3t14 -2v-445h107v-41h-107v-78q0 -63 27 -83t79 -21v-30h-303v30q58 0 85.5 19.5t27.5 77.5v85h-299zM97 260l2 -7h234v292l-15 8z" />
    <glyph glyph-name="five.tnum" horiz-adv-x="574" 
d="M142 392l13 -9q75 48 152 48q81 0 141 -51.5t60 -145.5q0 -111 -79.5 -178.5t-199.5 -67.5q-67 0 -123 35.5t-56 97.5q0 34 17 55.5t45 21.5q25 0 40 -18.5t15 -47.5l1 1l-50 -72q33 -35 117 -35q85 0 129 58t44 143q0 148 -132 148q-88 0 -145 -64h-27l30 380
q82 -24 179 -24q103 0 173 29v-45l1 1q-71 -78 -224 -78q-50 0 -106 10z" />
    <glyph glyph-name="six.tnum" horiz-adv-x="574" 
d="M317 703q79 0 126 -38t47 -84q0 -71 -57 -71q-25 0 -41.5 18.5t-17.5 48.5l46 53q-33 38 -103 38q-43 0 -78.5 -32t-56.5 -81.5t-33 -104.5t-12 -107l15 -8q63 96 170 96q94 0 146.5 -55.5t52.5 -143.5q0 -114 -70.5 -179t-166.5 -65q-45 0 -86 17.5t-76 54.5t-56 102.5
t-21 152.5q0 162 79.5 275t192.5 113zM423 227q0 160 -121 160q-46 0 -92 -31.5t-73 -90.5q0 -236 148 -236q138 0 138 198z" />
    <glyph glyph-name="seven.tnum" horiz-adv-x="574" 
d="M460 595l-14 14q-41 -26 -105 -26q-18 0 -62 8q-42 8 -67 8q-50 0 -80 -35t-38 -99h-25l33 233h27l7 -26q45 31 88 31q28 0 83 -21q50 -20 85 -20q71 0 136 44l27 -30q-62 -75 -101 -134t-75 -134.5t-52.5 -162t-16.5 -190.5q0 -17 -2 -28t-15.5 -22.5t-37.5 -11.5
q-63 0 -55 64q49 292 260 538z" />
    <glyph glyph-name="eight.tnum" horiz-adv-x="574" 
d="M371 376v-8q150 -50 150 -177q0 -93 -75.5 -148t-172.5 -55q-98 0 -159.5 44.5t-61.5 121.5q0 54 42.5 100.5t107.5 73.5v11q-62 26 -92 72.5t-30 97.5q0 81 63 137.5t156 56.5q89 0 142 -43t53 -110q0 -101 -123 -174zM416 541q0 52 -37.5 87.5t-96.5 35.5t-96.5 -34.5
t-37.5 -81.5q0 -110 178 -159q90 49 90 152zM444 166q0 105 -197 148q-54 -20 -88 -59t-33 -96q1 -61 45.5 -95.5t113.5 -34.5q66 0 112.5 36.5t46.5 100.5z" />
    <glyph glyph-name="nine.tnum" horiz-adv-x="574" 
d="M248 -12q-80 0 -126 33t-46 75q0 34 14.5 54.5t41.5 20.5q25 0 42 -19.5t17 -51.5l2 1l-48 -45q31 -33 103 -33q57 0 99 48t61 120t20 157l-16 8q-27 -44 -71 -70t-98 -26q-94 0 -147 61t-53 157q0 99 72 162t166 63q45 0 86 -17.5t76 -54.5t56 -102.5t21 -152.5
q0 -179 -77.5 -283.5t-194.5 -104.5zM142 473q0 -89 33.5 -129t88.5 -40q45 0 90.5 32t73.5 90q0 120 -36.5 178.5t-112.5 58.5q-69 0 -103 -52.5t-34 -137.5z" />
    <glyph glyph-name="exclamdown.case" horiz-adv-x="359" 
d="M126 96q1 7 3 22t3 21q29 211 30 356h35q0 -116 12.5 -227.5t26.5 -171.5q7 -41 -6.5 -73t-51.5 -32q-55 0 -55 67q0 20 3 38zM245 655q0 -29 -18.5 -48.5t-45.5 -19.5t-46.5 20t-19.5 48t19.5 47.5t46.5 19.5t45.5 -19.5t18.5 -47.5z" />
    <glyph glyph-name="questiondown.case" horiz-adv-x="510" 
d="M359 293l-8 -3q-58 27 -119 27q-58 0 -92 -37t-34 -95q0 -59 47 -108t123 -49q47 0 68 23l-32 64l1 -1q0 21 15.5 35t38.5 14t38 -16t15 -47q0 -47 -37.5 -78t-100.5 -31q-92 0 -160.5 62.5t-68.5 157.5q0 86 45 141.5t114 55.5q64 0 105 -29l3 116h34q0 -31 2 -100.5
t3 -101.5zM402 655q0 -29 -18.5 -48.5t-45.5 -19.5t-46.5 20t-19.5 48t19.5 47.5t46.5 19.5t45.5 -19.5t18.5 -47.5z" />
    <glyph glyph-name="hyphen.case" horiz-adv-x="318" 
d="M36 361h246v-66h-246v66z" />
    <glyph glyph-name="endash.case" horiz-adv-x="488" 
d="M44 361h400v-66h-400v66z" />
    <glyph glyph-name="emdash.case" horiz-adv-x="1000" 
d="M88 356h825v-55h-825v55z" />
    <glyph glyph-name="guilsinglleft.case" horiz-adv-x="445" 
d="M109 330l180 218l28 -18l-119 -202v-13l119 -205l-28 -20l-179 218v23z" />
    <glyph glyph-name="guilsinglright.case" horiz-adv-x="445" 
d="M155 548l181 -217v-23l1 1l-181 -219l-27 20l119 205v13l-119 202z" />
    <glyph glyph-name="guillemotleft.case" horiz-adv-x="652" 
d="M108 330l180 218l28 -18l-119 -202v-13l119 -205l-28 -20l-179 218v23zM317 330l181 218l26 -18l-119 -202v-13l119 -205l-27 -20l-179 218v23z" />
    <glyph glyph-name="guillemotright.case" horiz-adv-x="652" 
d="M363 548l181 -217v-23l-180 -218l-27 20l119 205v13l-119 202zM154 548l181 -217v-23l-180 -218l-27 20l119 205v13l-119 202z" />
    <glyph glyph-name="zero.onum" horiz-adv-x="594" 
d="M542 266q0 -129 -72.5 -203.5t-179.5 -74.5q-102 0 -169.5 72t-67.5 206q0 108 73 188t173 80q103 0 173 -69.5t70 -198.5zM442 266q0 228 -145 228q-73 0 -108.5 -64.5t-35.5 -163.5q0 -107 34 -172t108 -65q72 0 109.5 63t37.5 174z" />
    <glyph glyph-name="one.onum" horiz-adv-x="481" 
d="M73 453v38q115 7 196 39h34v-417q0 -41 30 -59.5t103 -18.5v-35h-359v35q76 4 107.5 19.5t31.5 58.5v326z" />
    <glyph glyph-name="two.onum" horiz-adv-x="556" 
d="M193 100l4 -15h185q33 0 58 21t33 55h28l-28 -161h-401q-2 11 -8 30.5t-7 24.5q4 3 13 8.5t12 7.5q296 175 296 301q0 65 -36 93.5t-87 28.5q-84 0 -108 -66l49 -69l-1 1q0 -29 -17 -46t-44 -17q-28 0 -42.5 22.5t-14.5 59.5q0 69 56 112t132 43q96 0 153.5 -43.5
t57.5 -119.5q0 -30 -16 -60t-36 -52t-57.5 -49.5t-59.5 -41t-63 -37.5z" />
    <glyph glyph-name="three.onum" horiz-adv-x="568" 
d="M320 213l5 -14q74 -8 128 -55t54 -129q0 -95 -80.5 -145.5t-190.5 -50.5q-83 0 -138 35t-55 99q0 36 15.5 58t41.5 22t40.5 -19.5t14.5 -54.5l1 1l-44 -68q34 -34 117 -34q75 0 127 36.5t52 124.5q0 71 -36 105.5t-98 34.5q-39 0 -89 -15q-2 7 -7 19t-7 19q113 43 165 91
t52 115q0 108 -123 108q-76 0 -120 -42l48 -83l-1 1q0 -25 -16 -41.5t-39 -16.5q-25 0 -40.5 22t-15.5 58q0 66 62 103t141 37q90 0 146.5 -40t56.5 -109q0 -53 -47.5 -97.5t-119.5 -74.5z" />
    <glyph glyph-name="four.onum" horiz-adv-x="585" 
d="M42 43l-10 24l365 467q5 0 14 -2t14 -3v-444h107v-42h-107v-77q0 -63 27 -83t79 -21v-30h-303v30q59 0 86 19.5t27 77.5v84h-299zM102 92l2 -7h234v291l-15 8z" />
    <glyph glyph-name="five.onum" horiz-adv-x="574" 
d="M148 224l13 -9q75 47 152 47q81 0 141 -51t60 -145q0 -112 -79.5 -179.5t-199.5 -67.5q-67 0 -123 36t-56 98q0 33 17 54.5t45 21.5q25 0 40 -18t15 -47l1 1l-50 -73q34 -34 117 -34q85 0 129 58t44 142q0 149 -132 149q-86 0 -145 -65h-27l30 380q82 -24 179 -24
q103 0 173 29v-44l1 1q-71 -79 -224 -79q-50 0 -106 10z" />
    <glyph glyph-name="six.onum" horiz-adv-x="606" 
d="M339 703q79 0 126 -38t47 -84q0 -71 -57 -71q-24 0 -41 18.5t-18 48.5l46 53q-31 38 -103 38q-43 0 -78.5 -32t-56.5 -81.5t-33 -104.5t-12 -107l15 -8q63 96 170 96q94 0 147 -55.5t53 -143.5q0 -114 -70.5 -179t-166.5 -65q-45 0 -86 17.5t-76 54.5t-56 102.5
t-21 152.5q0 162 79 275t192 113zM445 227q0 160 -121 160q-46 0 -91.5 -31.5t-73.5 -90.5q0 -236 149 -236q137 0 137 198z" />
    <glyph glyph-name="seven.onum" horiz-adv-x="554" 
d="M451 427l-14 14q-44 -27 -105 -27q-24 0 -62 9q-42 8 -67 8q-50 0 -80 -35.5t-38 -99.5h-25l33 233h27l7 -26q45 31 88 31q28 0 83 -21q50 -20 85 -20q71 0 136 44l27 -30q-61 -75 -101 -134t-75.5 -134.5t-52 -162t-16.5 -189.5q0 -17 -2 -28t-15.5 -22.5t-37.5 -11.5
q-63 0 -55 64q49 290 260 538z" />
    <glyph glyph-name="eight.onum" horiz-adv-x="585" 
d="M377 376v-8q150 -50 150 -177q0 -93 -75.5 -148t-172.5 -55q-98 0 -159 44.5t-61 121.5q0 55 42 101t107 73v11q-62 26 -92 72.5t-30 97.5q0 81 63 137.5t156 56.5q89 0 142 -43t53 -110q0 -101 -123 -174zM423 541q0 52 -38 87.5t-97 35.5t-96.5 -34.5t-37.5 -81.5
q0 -110 178 -159q91 49 91 152zM450 166q0 105 -197 148q-54 -20 -88 -59t-33 -96q1 -61 45.5 -95.5t113.5 -34.5q66 0 112.5 36.5t46.5 100.5z" />
    <glyph glyph-name="nine.onum" horiz-adv-x="606" 
d="M265 -181q-79 0 -125.5 33.5t-46.5 74.5q0 34 14 55t42 21q26 0 42.5 -19.5t16.5 -52.5l2 1l-48 -44q33 -33 103 -33q57 0 99 48t61 119.5t20 156.5l-15 9q-61 -96 -170 -96q-94 0 -146.5 60.5t-52.5 157.5q0 99 72 161.5t166 62.5q45 0 85.5 -17.5t76 -54t56.5 -102
t21 -152.5q0 -179 -78 -284t-195 -105zM159 305q0 -89 33.5 -129.5t88.5 -40.5q45 0 90.5 32t73.5 90q0 120 -36.5 178.5t-112.5 58.5q-69 0 -103 -52.5t-34 -136.5z" />
    <glyph glyph-name="acute.case" horiz-adv-x="500" 
d="M194 492v6l-1 -1l85 129h87v-8l2 1l-129 -127h-44z" />
    <glyph glyph-name="grave.case" horiz-adv-x="500" 
d="M307 498v-6h-45l-129 127l2 -1v8h87l86 -129z" />
    <glyph glyph-name="circumflex.case" horiz-adv-x="500" 
d="M392 498v-6h-38l-103 72l-103 -72h-38v6l-1 -1l121 129h42z" />
    <glyph glyph-name="breve.case" horiz-adv-x="500" 
d="M250 492q-48 0 -81.5 32t-34.5 97h30q1 -29 25.5 -51t60.5 -22q34 0 59.5 21t26.5 52h30q-1 -64 -34.5 -96.5t-81.5 -32.5z" />
    <glyph glyph-name="caron.case" horiz-adv-x="500" 
d="M391 626v-6l-120 -128h-42l-120 128v6h38l103 -71l103 71h38z" />
    <glyph glyph-name="hungarumlaut.case" horiz-adv-x="500" 
d="M279 492v6l-1 -1l86 129h87v-8l2 1l-139 -127h-35zM138 492v6l-1 -1l86 129h87v-8l2 1l-140 -127h-34z" />
    <glyph glyph-name="dollar.onum" horiz-adv-x="513" 
d="M131 58l-13 -45h-28l-6 171h24q14 -63 46 -98.5t88 -47.5v201l-11 5q-76 24 -112.5 60t-36.5 94q0 62 44 99.5t105 37.5h11v74h33v-78q43 -9 99 -45l16 33h25q0 -25 1 -75t1 -74h-23q-20 49 -50.5 83.5t-68.5 46.5v-191l27 -7q83 -23 117.5 -58t34.5 -92
q0 -63 -47 -105.5t-119 -42.5h-13v-82h-33v85q-65 12 -111 51zM400 126q0 31 -27 54.5t-98 48.5v-194h12q55 0 84 26.5t29 64.5zM138 418q0 -55 104 -97v184h-11q-44 0 -68.5 -26.5t-24.5 -60.5z" />
    <glyph glyph-name="cent.onum" horiz-adv-x="372" 
d="M323 223l22 -9q-15 -46 -49.5 -74.5t-84.5 -30.5v-77h-26v78q-63 8 -103.5 51.5t-40.5 120.5q0 68 41.5 117.5t102.5 60.5v73h26v-71q49 -2 85 -27t36 -61q0 -25 -11 -38.5t-29 -13.5q-20 0 -31.5 14.5t-10.5 35.5l-1 -1l21 32q-11 27 -59 29v-285h14q37 0 63 21.5
t35 54.5zM111 291q0 -107 74 -139v277q-74 -28 -74 -138z" />
    <glyph glyph-name="sterling.onum" horiz-adv-x="509" 
d="M69 302h69q-27 62 -27 95q0 69 48.5 106.5t113.5 37.5q67 0 106.5 -31t39.5 -61q0 -18 -10.5 -29.5t-24.5 -11.5q-11 0 -19.5 7t-13 14t-11.5 22q-1 3 -2 4q-9 18 -14.5 27.5t-19.5 18.5t-32 9q-33 0 -55.5 -24t-22.5 -73q0 -29 21 -82l11 -29h130v-36h-119q3 -15 3 -34
q0 -80 -47 -130q0 -1 4 -5l6 -6q24 15 44 15q26 0 71 -37l3 -3l6 -5q34 -30 61 -30q16 0 26.5 7.5t10.5 20.5q0 14 -18 27l-3 2q-16 16 -16 30q0 13 8.5 22.5t22.5 9.5q20 0 32 -16.5t12 -47.5q0 -46 -32 -71t-75 -25q-57 0 -110 25.5t-79 54.5q-51 -80 -92 -80
q-9 0 -15.5 5.5t-6.5 14.5q0 24 29.5 45t71.5 34q18 40 18 97q0 33 -18 80h-85v36z" />
    <glyph glyph-name="yen.onum" horiz-adv-x="525" 
d="M517 508v-29q-58 -4 -92 -56l-105 -181h110v-36h-119v-44h119v-37h-119v-32q0 -42 15.5 -52.5t66.5 -10.5v-30h-238v30q56 0 68 10t12 53v32h-122v37h122v44h-122v36h109q-5 6 -15 22.5t-12 18.5q-58 88 -85 131q-30 39 -47.5 51.5t-55.5 13.5v29h226v-29q-61 -2 -61 -21
q0 -6 14 -28l110 -168l44 74l54 93q11 18 0.5 33.5t-40.5 16.5v29h163z" />
    <glyph glyph-name="Euro.onum" horiz-adv-x="555" 
d="M63 322h54q18 100 80 159.5t143 59.5q87 0 164 -53q-4 -18 -14 -53.5t-15 -53.5h-19q1 66 -35.5 94.5t-80.5 28.5q-54 0 -92 -46t-49 -136h264l-10 -37h-258v-45h245l-10 -37h-232q10 -84 50 -129.5t90 -45.5q99 0 132 102l30 -7q-43 -133 -170 -133q-82 0 -141.5 56
t-73.5 157h-63l11 37h49v13q0 22 1 32h-61q2 6 6 18.5t5 18.5z" />
    <glyph glyph-name="numbersign.onum" horiz-adv-x="439" 
d="M78 408l82 -12l37 168q7 -1 20.5 -2t20.5 -2l-37 -168l86 -11l41 183q8 -1 21 -2t20 -2l-41 -184q12 -1 44 -5.5t47 -6.5l-7 -47l-94 12l-30 -130l79 -10l-6 -48l-83 11l-40 -180q-7 1 -20.5 3t-19.5 2l39 179l-86 12l-44 -196q-7 1 -20 3t-19 2l43 196l-90 12l6 47
l94 -12l28 129l-77 11zM191 345l-30 -129l87 -12l28 129z" />
    <glyph glyph-name="percent.onum" horiz-adv-x="464" 
d="M250 443l-8 -2q-2 -63 -37 -103t-81 -40q-38 0 -62.5 27.5t-24.5 69.5q0 57 37.5 99t82.5 42q56 0 78 -53q11 -26 58 -26q40 0 74 24q18 50 43 50q17 0 17 -17q0 -24 -36 -47l-159 -221l-55 -79l-124 -180l-26 17l188 257l115 177q-27 -9 -43 -9q-17 0 -37 14zM223 88
q0 57 38.5 99t83.5 42q37 0 60.5 -24t23.5 -66q0 -66 -36 -106.5t-80 -40.5q-40 0 -65 27t-25 69zM358 195q-29 0 -53.5 -40.5t-24.5 -87.5q0 -22 10.5 -33.5t26.5 -11.5q29 0 53.5 31.5t24.5 92.5q0 24 -10.5 36.5t-26.5 12.5zM172 501q-29 0 -54.5 -40t-25.5 -86t39 -46
q29 0 53 32.5t24 92.5q0 22 -10.5 34.5t-25.5 12.5z" />
    <glyph glyph-name="perthousand.onum" horiz-adv-x="698" 
d="M251 443l-9 9q-1 -67 -36.5 -110.5t-81.5 -43.5q-38 0 -62.5 27.5t-24.5 69.5q0 57 37.5 99t82.5 42q56 0 78 -53q11 -26 58 -26q40 0 74 24q18 50 43 50q17 0 17 -17q0 -24 -36 -47l-159 -221q-18 -25 -54 -79l-125 -180l-26 17l188 257l115 177q-27 -9 -43 -9
q-19 0 -36 14zM223 88q0 57 38.5 99t83.5 42q37 0 60.5 -24t23.5 -66q0 -66 -36 -106.5t-80 -40.5q-40 0 -65 27t-25 69zM358 195q-29 0 -53.5 -40.5t-24.5 -87.5q0 -22 10.5 -33.5t26.5 -11.5q29 0 53.5 31.5t24.5 92.5q0 24 -10.5 36.5t-26.5 12.5zM172 501
q-29 0 -54.5 -40t-25.5 -86t39 -46q29 0 53 32.5t24 92.5q0 22 -10.5 34.5t-25.5 12.5zM458 88q0 57 38 99t82 42q38 0 61.5 -24t23.5 -66q0 -66 -36 -106.5t-80 -40.5q-40 0 -64.5 27t-24.5 69zM593 195q-29 0 -54 -41t-25 -87q0 -22 10.5 -33.5t26.5 -11.5q29 0 54 31.5
t25 92.5q0 24 -10.5 36.5t-26.5 12.5z" />
    <glyph glyph-name="ordfeminine.onum" horiz-adv-x="355" 
d="M307 231l36 -3q-1 -23 -16.5 -36t-33.5 -13q-50 0 -59 53q-58 -53 -112 -53q-43 0 -66.5 24t-23.5 63q0 43 28.5 62.5t83.5 33.5l82 23v51q0 34 -17.5 51t-41.5 17q-43 0 -59 -12q3 -29 4 -35l4 -31q-15 -12 -35 -12q-18 0 -27.5 9.5t-9.5 24.5q0 38 36.5 61t101.5 23
q54 0 80 -26.5t26 -72.5v-185q0 -17 19 -17zM226 254v106q-11 -4 -45 -15l-29 -8q-55 -14 -55 -68q0 -25 13.5 -38t33.5 -13q44 0 82 36z" />
    <glyph glyph-name="ordmasculine.onum" horiz-adv-x="374" 
d="M28 355q0 78 46.5 127.5t113.5 49.5q66 0 112.5 -49.5t46.5 -127.5q0 -82 -45.5 -128t-113.5 -46q-69 0 -114.5 46.5t-45.5 127.5zM98 356q0 -83 24 -115t66 -32t65 29t23 118q0 85 -23.5 116t-64.5 31q-43 0 -66.5 -30t-23.5 -117z" />
    <glyph glyph-name="degree.onum" horiz-adv-x="367" 
d="M44 466q0 59 41.5 101t98.5 42t98.5 -42t41.5 -101q0 -58 -41.5 -100t-98.5 -42t-98.5 42t-41.5 100zM95 466q0 -40 24.5 -67.5t63.5 -27.5q40 0 64.5 27.5t24.5 67.5t-25 68.5t-64 28.5t-63.5 -28.5t-24.5 -68.5z" />
    <glyph glyph-name="zero.numr" horiz-adv-x="331" 
d="M307 503q0 -92 -40.5 -142t-101.5 -50t-100 46.5t-39 145.5q0 95 40 148t99 53q61 0 101.5 -52.5t40.5 -148.5zM237 503q0 95 -15 135.5t-57 40.5q-39 0 -54 -40t-15 -136q0 -94 13.5 -130.5t55.5 -36.5q43 0 57.5 36.5t14.5 130.5z" />
    <glyph glyph-name="one.numr" horiz-adv-x="270" 
d="M37 654v22q71 4 112 22h28v-317q0 -43 73 -44v-19h-211v19q41 2 58.5 11t17.5 33v265q-12 2 -39.5 4.5z" />
    <glyph glyph-name="two.numr" horiz-adv-x="320" 
d="M103 373l1 -7h116q14 0 25 18.5t15 47.5h35q-3 -21 -9 -58.5t-8 -55.5h-251q-1 5 -4 14t-4 13l22 19q24 20 39 33t42.5 40.5t44 50.5t30 53t13.5 56q0 44 -19.5 63t-47.5 19q-47 0 -65 -44l35 -50l-1 1q0 -19 -12 -30t-31 -11q-20 0 -31 14t-11 36q0 49 36.5 79t85.5 30
q60 0 95.5 -29t35.5 -79q0 -30 -25 -67.5t-49 -60.5t-65 -57q-27 -22 -44 -39h2q2 1 4 1z" />
    <glyph glyph-name="three.numr" horiz-adv-x="312" 
d="M182 527l5 -8q42 -6 70.5 -31.5t28.5 -68.5q0 -53 -46 -80.5t-110 -27.5q-48 0 -80.5 19.5t-32.5 54.5q0 20 10.5 32.5t28.5 12.5q17 0 27.5 -10.5t10.5 -29.5l1 1l-26 -39q19 -17 57 -17q90 0 90 87q0 75 -64 75q-19 0 -57 -12l-7 24q61 23 89 50t28 64q0 57 -59 57
q-35 0 -59 -21q4 -7 13.5 -23t13.5 -24l-1 1q0 -14 -10.5 -23t-26.5 -9q-17 0 -28 12.5t-11 32.5q0 36 36.5 57t82.5 21q53 0 86 -22.5t33 -60.5q0 -27 -26.5 -52t-66.5 -42z" />
    <glyph glyph-name="four.numr" horiz-adv-x="322" 
d="M16 434l-4 13l202 258q5 -1 14 -3t13 -2v-242h59v-24h-59v-42q0 -33 15 -43.5t44 -11.5v-19h-181v19q32 1 47 11.5t15 39.5v46h-165zM65 462l4 -4h111v155z" />
    <glyph glyph-name="five.numr" horiz-adv-x="316" 
d="M104 634l-6 -2q-2 -32 -4 -48l-4 -52q41 23 82 23q47 0 82 -28t35 -80q0 -62 -45.5 -99t-114.5 -37q-39 0 -72 20t-33 54q0 19 11 31t30 12q18 0 28 -10t10 -27l1 1l-28 -41q21 -16 57 -16q42 0 64 31.5t22 76.5q0 80 -64 80q-40 0 -73 -36h-29l17 213q53 -16 106 -16
q58 0 101 20v-28q-47 -45 -129 -45q-23 0 -44 3z" />
    <glyph glyph-name="six.numr" horiz-adv-x="333" 
d="M187 704q48 0 75.5 -21t27.5 -47q0 -40 -39 -40q-18 0 -29 9.5t-11 26.5l-1 -1l27 32q-21 19 -50 19q-38 0 -62.5 -53t-28.5 -117q43 43 94 43q55 0 86 -30.5t31 -78.5q0 -63 -41 -99t-96 -36q-57 0 -97.5 44t-40.5 136q0 89 45 151t110 62zM237 443q0 86 -57 86
q-21 0 -44.5 -18t-39.5 -50q1 -125 74 -125q67 0 67 107z" />
    <glyph glyph-name="seven.numr" horiz-adv-x="305" 
d="M99 350q23 150 146 299q-34 -13 -61 -13q-15 0 -35 4q-6 0 -7 1q-17 4 -29 4q-47 0 -57 -73h-29l19 129h30l1 -8q26 11 43 11q20 0 48 -12q26 -11 44 -11q32 0 75 28l20 -21q-69 -86 -101 -158t-32 -181q0 -9 -1.5 -15.5t-10 -13t-25.5 -6.5q-21 0 -30.5 9t-7.5 27z" />
    <glyph glyph-name="eight.numr" horiz-adv-x="322" 
d="M212 522l3 1v-2q82 -28 82 -98q0 -51 -44 -81.5t-100 -30.5q-57 0 -92.5 25t-35.5 67q0 28 23.5 53.5t58.5 40.5v2h3l2 4q-72 31 -72 94q0 45 36.5 76t90.5 31q52 0 83.5 -24t31.5 -61q0 -53 -71 -95l2 -4h2v1q-2 0 -3 1zM239 410q0 56 -99 78q-60 -23 -59 -82
q1 -34 22.5 -52t56.5 -18q33 0 56 19.5t23 54.5zM224 614q0 28 -18.5 47t-47.5 19t-47 -18.5t-18 -43.5q0 -59 89 -85q42 25 42 81z" />
    <glyph glyph-name="nine.numr" horiz-adv-x="333" 
d="M147 311q-47 0 -74 18.5t-27 41.5q0 43 38 43q17 0 28.5 -10.5t11.5 -27.5l2 1l-29 -27q17 -17 50 -17q40 0 63.5 49t25.5 119q-41 -41 -91 -41q-55 0 -86 33.5t-31 86.5q0 55 41.5 89.5t95.5 34.5q57 0 98 -44t41 -136q0 -98 -45 -155.5t-112 -57.5zM97 577
q0 -91 59 -91q22 0 45 17.5t37 48.5q-1 127 -74 127q-67 0 -67 -102z" />
    <glyph glyph-name="zero.dnom" horiz-adv-x="331" 
d="M307 145q0 -92 -40.5 -142t-101.5 -50t-100 46.5t-39 145.5q0 95 40 148t99 53q61 0 101.5 -52.5t40.5 -148.5zM237 145q0 95 -15 135.5t-57 40.5q-39 0 -54 -40t-15 -136q0 -94 13.5 -130.5t55.5 -36.5q43 0 57.5 36.5t14.5 130.5z" />
    <glyph glyph-name="one.dnom" horiz-adv-x="270" 
d="M37 296v22q71 4 112 22h28v-317q0 -43 73 -44v-19h-211v19q41 2 58.5 11t17.5 33v265q-11 2 -39 4.5t-39 3.5z" />
    <glyph glyph-name="two.dnom" horiz-adv-x="320" 
d="M103 15l1 -7h116q14 0 25 18.5t15 47.5h35q-3 -21 -9 -58.5t-8 -55.5h-251q-1 5 -4 14t-4 13l22 19q24 20 39 33t42.5 40.5t44 50.5t30 53t13.5 56q0 44 -19.5 63t-47.5 19q-47 0 -65 -44l35 -50l-1 1q0 -19 -12 -30t-31 -11q-20 0 -31 14t-11 36q0 49 36.5 79t85.5 30
q60 0 95.5 -29t35.5 -79q0 -30 -25 -67.5t-49 -60.5t-65 -57q-27 -22 -44 -39h2q2 1 4 1z" />
    <glyph glyph-name="three.dnom" horiz-adv-x="312" 
d="M182 169l5 -8q42 -6 70.5 -31t28.5 -68q0 -53 -46 -81t-110 -28q-48 0 -80.5 19.5t-32.5 54.5q0 20 10.5 32.5t28.5 12.5q17 0 27.5 -10.5t10.5 -29.5l1 1l-26 -39q19 -17 57 -17q90 0 90 87q0 75 -64 75q-19 0 -57 -12l-7 24q61 24 89 50.5t28 63.5q0 57 -59 57
q-34 0 -59 -20q4 -9 14 -25.5t13 -22.5l-1 1q0 -14 -10.5 -23t-26.5 -9q-17 0 -28 12.5t-11 32.5q0 36 36.5 57t82.5 21q53 0 86 -22.5t33 -60.5q0 -27 -26.5 -52t-66.5 -42z" />
    <glyph glyph-name="four.dnom" horiz-adv-x="322" 
d="M16 76l-4 13l202 258q5 -1 14 -3t13 -2v-242h59v-24h-59v-42q0 -33 15 -43.5t44 -11.5v-19h-181v19q32 1 47 11.5t15 39.5v46h-165zM65 104l4 -4h111v155z" />
    <glyph glyph-name="five.dnom" horiz-adv-x="316" 
d="M104 276l-6 -2q-2 -32 -4 -48l-4 -52q41 23 82 23q47 0 82 -28t35 -80q0 -62 -45.5 -99t-114.5 -37q-39 0 -72 20t-33 54q0 19 11 31t30 12q18 0 28 -10t10 -27l1 1l-28 -41q21 -16 57 -16q42 0 64 31.5t22 76.5q0 80 -64 80q-40 0 -73 -36h-29l17 213q53 -16 106 -16
q58 0 101 20v-28q-47 -45 -129 -45q-23 0 -44 3z" />
    <glyph glyph-name="six.dnom" horiz-adv-x="333" 
d="M187 346q48 0 75.5 -21t27.5 -47q0 -40 -39 -40q-18 0 -29 9.5t-11 26.5l-1 -1l27 32q-21 19 -50 19q-38 0 -62.5 -53t-28.5 -117q43 43 94 43q55 0 86 -30.5t31 -78.5q0 -63 -41 -99t-96 -36q-57 0 -97.5 44t-40.5 136q0 89 45 151t110 62zM237 85q0 86 -57 86
q-21 0 -44.5 -18t-39.5 -50q1 -125 74 -125q67 0 67 107z" />
    <glyph glyph-name="seven.dnom" horiz-adv-x="305" 
d="M99 -8q23 150 146 299q-34 -13 -61 -13q-15 0 -35 4q-6 0 -7 1q-17 4 -29 4q-47 0 -57 -73h-29l19 129h30l1 -8q26 11 43 11q20 0 48 -12q26 -11 44 -11q32 0 75 28l20 -21q-69 -86 -101 -158t-32 -181q0 -9 -1.5 -15.5t-10 -13t-25.5 -6.5q-21 0 -30.5 9t-7.5 27z" />
    <glyph glyph-name="eight.dnom" horiz-adv-x="322" 
d="M212 164l3 1v-2q82 -28 82 -98q0 -51 -44 -81.5t-100 -30.5q-57 0 -92.5 25t-35.5 67q0 28 23.5 53.5t58.5 40.5v2h3l2 4q-72 31 -72 94q0 45 36.5 76t90.5 31q52 0 83.5 -24t31.5 -61q0 -53 -71 -95l2 -4h2v1q-2 0 -3 1zM239 52q0 56 -99 78q-60 -23 -59 -82
q1 -34 22.5 -52t56.5 -18q33 0 56 19.5t23 54.5zM224 256q0 28 -18.5 47t-47.5 19t-47 -18.5t-18 -43.5q0 -59 89 -85q42 26 42 81z" />
    <glyph glyph-name="nine.dnom" horiz-adv-x="333" 
d="M147 -47q-47 0 -74 18.5t-27 41.5q0 43 38 43q17 0 28.5 -10.5t11.5 -27.5l2 1l-29 -27q17 -17 50 -17q40 0 63.5 49t25.5 119q-41 -41 -91 -41q-55 0 -86 33.5t-31 86.5q0 55 41.5 89.5t95.5 34.5q57 0 98 -44t41 -136q0 -98 -45 -155.5t-112 -57.5zM97 219
q0 -91 59 -91q22 0 45 17.5t37 48.5q-1 127 -74 127q-67 0 -67 -102z" />
    <glyph glyph-name="zero.subs" horiz-adv-x="331" 
d="M307 24q0 -92 -40.5 -142t-101.5 -50t-100 46.5t-39 145.5q0 95 40 148t99 53q61 0 101.5 -52.5t40.5 -148.5zM237 24q0 95 -15 135.5t-57 40.5q-39 0 -54 -40t-15 -136q0 -94 13.5 -130.5t55.5 -36.5q43 0 57.5 36.5t14.5 130.5z" />
    <glyph glyph-name="one.subs" horiz-adv-x="270" 
d="M37 175v22q71 4 112 22h28v-317q0 -43 73 -44v-19h-211v19q41 2 58.5 11t17.5 33v265q-11 2 -39 4.5t-39 3.5z" />
    <glyph glyph-name="two.subs" horiz-adv-x="320" 
d="M103 -106l1 -7h116q14 0 25 18.5t15 47.5h35q-3 -21 -9 -58.5t-8 -55.5h-251q-1 5 -4 14t-4 13l22 19q24 20 39 33t42.5 40.5t44 50.5t30 53t13.5 56q0 44 -19.5 63t-47.5 19q-47 0 -65 -44l35 -50l-1 1q0 -19 -12 -30t-31 -11q-20 0 -31 14t-11 36q0 49 36.5 79t85.5 30
q60 0 95.5 -29t35.5 -79q0 -30 -25 -67.5t-49 -60.5t-65 -57q-27 -22 -44 -39l2 1h4z" />
    <glyph glyph-name="three.subs" horiz-adv-x="312" 
d="M182 48l5 -8q42 -6 70.5 -31t28.5 -68q0 -53 -46 -81t-110 -28q-48 0 -80.5 19.5t-32.5 54.5q0 20 10.5 32.5t28.5 12.5q17 0 27.5 -10.5t10.5 -29.5l1 1l-26 -39q19 -17 57 -17q90 0 90 87q0 75 -64 75q-19 0 -57 -12l-7 24q61 24 89 50.5t28 63.5q0 57 -59 57
q-34 0 -59 -20q4 -9 14 -25.5t13 -22.5l-1 1q0 -14 -10.5 -23t-26.5 -9q-17 0 -28 12.5t-11 32.5q0 37 36.5 57.5t82.5 20.5q53 0 86 -22.5t33 -60.5q0 -27 -26.5 -52t-66.5 -42z" />
    <glyph glyph-name="four.subs" horiz-adv-x="322" 
d="M16 -45l-4 13l202 258q5 -1 14 -3t13 -2v-242h59v-24h-59v-42q0 -33 15 -43.5t44 -11.5v-19h-181v19q32 1 47 11.5t15 39.5v46h-165zM65 -17l4 -4h111v155z" />
    <glyph glyph-name="five.subs" horiz-adv-x="316" 
d="M104 155l-6 -2q-2 -32 -4 -48l-4 -52q41 23 82 23q47 0 82 -28t35 -80q0 -62 -45.5 -99t-114.5 -37q-39 0 -72 20t-33 54q0 19 11 31t30 12q18 0 28 -10t10 -27l1 1l-28 -41q21 -16 57 -16q42 0 64 31.5t22 76.5q0 80 -64 80q-40 0 -73 -36h-29l17 213q53 -16 106 -16
q58 0 101 20v-28q-47 -45 -129 -45q-23 0 -44 3z" />
    <glyph glyph-name="six.subs" horiz-adv-x="333" 
d="M187 225q48 0 75.5 -21t27.5 -47q0 -40 -39 -40q-18 0 -29 9.5t-11 26.5l-1 -1l27 32q-21 19 -50 19q-38 0 -62.5 -53t-28.5 -117q43 43 94 43q55 0 86 -30.5t31 -78.5q0 -63 -41 -99t-96 -36q-57 0 -97.5 44t-40.5 136q0 89 45 151t110 62zM237 -36q0 86 -57 86
q-21 0 -44.5 -18t-39.5 -50q1 -125 74 -125q67 0 67 107z" />
    <glyph glyph-name="seven.subs" horiz-adv-x="305" 
d="M99 -129q23 150 146 299q-34 -13 -61 -13q-15 0 -35 4q-6 0 -7 1q-17 4 -29 4q-47 0 -57 -73h-29l19 129h30l1 -8q26 11 43 11q20 0 48 -12q26 -11 44 -11q32 0 75 28l20 -21q-69 -86 -101 -158t-32 -181q0 -9 -1.5 -15.5t-10 -13t-25.5 -6.5q-21 0 -30.5 9t-7.5 27z" />
    <glyph glyph-name="eight.subs" horiz-adv-x="322" 
d="M212 43l3 1v-2q82 -28 82 -98q0 -51 -44 -81.5t-100 -30.5q-57 0 -92.5 25t-35.5 67q0 28 23.5 53.5t58.5 40.5v2h3l2 4q-72 31 -72 94q0 45 36.5 76t90.5 31q52 0 83.5 -24t31.5 -61q0 -53 -71 -95l2 -4h2v1q-2 0 -3 1zM239 -69q0 56 -99 78q-60 -23 -59 -82
q1 -34 22.5 -52t56.5 -18q33 0 56 19.5t23 54.5zM224 135q0 28 -18.5 47t-47.5 19t-47 -18.5t-18 -43.5q0 -59 89 -85q42 26 42 81z" />
    <glyph glyph-name="nine.subs" horiz-adv-x="333" 
d="M147 -168q-47 0 -74 18.5t-27 41.5q0 43 38 43q17 0 28.5 -10.5t11.5 -27.5l2 1l-29 -27q17 -17 50 -17q40 0 63.5 49t25.5 119q-41 -41 -91 -41q-55 0 -86 33.5t-31 86.5q0 55 41.5 89.5t95.5 34.5q57 0 98 -44t41 -136q0 -98 -45 -155.5t-112 -57.5zM97 98
q0 -91 59 -91q22 0 45 17.5t37 48.5q-1 127 -74 127q-67 0 -67 -102z" />
    <glyph glyph-name="uni2011.case" horiz-adv-x="318" 
d="M36 361h246v-66h-246v66z" />
    <glyph glyph-name="zero.onum.tnum" horiz-adv-x="574" 
d="M526 266q0 -129 -71 -203.5t-175 -74.5q-99 0 -165.5 72t-66.5 206q0 108 71.5 188t168.5 80q101 0 169.5 -69.5t68.5 -198.5zM429 266q0 228 -142 228q-71 0 -106 -64.5t-35 -163.5q0 -107 33 -172t106 -65q71 0 107.5 63t36.5 174z" />
    <glyph glyph-name="one.onum.tnum" horiz-adv-x="574" 
d="M113 453v38q114 7 197 39h33v-417q0 -41 30 -59.5t103 -18.5v-35h-359v35q77 4 108 19.5t31 58.5v326q-23 3 -72 7.5t-71 6.5z" />
    <glyph glyph-name="two.onum.tnum" horiz-adv-x="574" 
d="M189 100l4 -15h185q33 0 58 21t33 55h28l-28 -161h-401q-2 10 -7.5 27.5t-7.5 27.5q4 3 13 8.5t12 7.5q296 175 296 301q0 65 -36 93.5t-87 28.5q-84 0 -108 -66l49 -69l-1 1q0 -29 -17 -46t-44 -17q-28 0 -42.5 22.5t-14.5 59.5q0 69 56 112t132 43q96 0 153.5 -43.5
t57.5 -119.5q0 -30 -16 -60t-36 -52t-57.5 -49.5t-59.5 -41t-63 -37.5z" />
    <glyph glyph-name="three.onum.tnum" horiz-adv-x="574" 
d="M322 214l5 -14q74 -8 128 -55t54 -129q0 -95 -80.5 -145t-190.5 -50q-83 0 -138 34.5t-55 98.5q0 36 15.5 58t41.5 22t40.5 -19.5t14.5 -54.5l1 1l-44 -68q34 -34 117 -34q75 0 127 36.5t52 124.5q0 71 -36 105.5t-98 34.5q-39 0 -89 -15q-2 7 -7 19t-7 19q113 43 165 91
t52 115q0 108 -123 108q-76 0 -120 -42l48 -83l-1 1q0 -25 -16 -41.5t-39 -16.5q-25 0 -40.5 22t-15.5 58q0 66 62 103t141 37q90 0 146.5 -40t56.5 -109q0 -53 -47.5 -97.5t-119.5 -74.5z" />
    <glyph glyph-name="four.onum.tnum" horiz-adv-x="574" 
d="M31 44l-10 24l365 467q5 -1 14 -3t13 -2v-444h108v-42h-108v-77q0 -63 27.5 -83t79.5 -21v-30h-303v30q58 0 85.5 19.5t27.5 77.5v84h-299zM91 93l2 -7h234v291l-15 8z" />
    <glyph glyph-name="five.onum.tnum" horiz-adv-x="574" 
d="M133 225l13 -9q75 47 151 47q82 0 142 -51t60 -145q0 -112 -79.5 -179t-199.5 -67q-67 0 -123 35.5t-56 97.5q0 33 17 54.5t45 21.5q25 0 40 -18t15 -47l1 1l-50 -73q34 -34 117 -34q85 0 129 58t44 142q0 149 -132 149q-88 0 -145 -65h-27l30 380q82 -24 179 -24
q103 0 173 29v-44l1 1q-71 -79 -224 -79q-50 0 -106 10z" />
    <glyph glyph-name="six.onum.tnum" horiz-adv-x="574" 
d="M321 703q79 0 126 -38t47 -84q0 -71 -57 -71q-25 0 -41.5 18.5t-17.5 48.5l46 53q-33 38 -103 38q-43 0 -78.5 -32t-56.5 -81.5t-33 -104.5t-12 -107l15 -8q63 96 170 96q94 0 146.5 -55.5t52.5 -143.5q0 -114 -70.5 -179t-166.5 -65q-45 0 -86 17.5t-76 54.5t-56 102.5
t-21 152.5q0 162 79.5 275t192.5 113zM427 227q0 160 -121 160q-46 0 -91.5 -31.5t-73.5 -90.5q0 -236 148 -236q138 0 138 198z" />
    <glyph glyph-name="seven.onum.tnum" horiz-adv-x="574" 
d="M465 428l-14 14q-42 -27 -105 -27q-22 0 -62 9q-42 8 -67 8q-50 0 -80 -35.5t-38 -99.5h-25l33 233h27l7 -26q45 31 88 31q28 0 83 -21q50 -20 85 -20q71 0 136 44l27 -30q-61 -75 -101 -134t-75.5 -134.5t-52 -162t-16.5 -189.5q0 -17 -2 -28t-15.5 -22.5t-37.5 -11.5
q-63 0 -55 64q49 290 260 538z" />
    <glyph glyph-name="eight.onum.tnum" horiz-adv-x="574" 
d="M371 376v-8q150 -50 150 -177q0 -93 -75.5 -148t-172.5 -55q-98 0 -159.5 44.5t-61.5 121.5q0 54 42.5 100.5t107.5 73.5v11q-62 26 -92 72.5t-30 97.5q0 81 63 137.5t156 56.5q89 0 142 -43t53 -110q0 -101 -123 -174zM416 541q0 52 -37.5 87.5t-96.5 35.5t-96.5 -34.5
t-37.5 -81.5q0 -110 178 -159q90 49 90 152zM444 166q0 105 -197 148q-54 -20 -88 -59t-33 -96q1 -61 45.5 -95.5t113.5 -34.5q66 0 112.5 36.5t46.5 100.5z" />
    <glyph glyph-name="nine.onum.tnum" horiz-adv-x="574" 
d="M253 -179q-79 0 -125.5 33t-46.5 74q0 34 14 55t42 21q25 0 42 -19.5t17 -52.5l2 1l-48 -44q31 -33 103 -33q57 0 99 48t61 120t20 157l-16 8q-27 -44 -71 -70t-98 -26q-94 0 -147 61t-53 157q0 99 72 161.5t166 62.5q45 0 85.5 -17.5t76 -54t56.5 -102t21 -152.5
q0 -179 -77.5 -283.5t-194.5 -104.5zM147 306q0 -89 33.5 -129.5t88.5 -40.5q45 0 90.5 32t73.5 90q0 120 -36.5 178.5t-112.5 58.5q-69 0 -103 -52.5t-34 -136.5z" />
    <glyph glyph-name="sidecaron.part" horiz-adv-x="500" 
d="M265 503v6l16 199h75v-7q-9 -32 -27 -99t-27 -99h-37z" />
    <glyph glyph-name="gcomma.part" horiz-adv-x="500" 
d="M293 547q0 -15 -11 -26.5t-30 -11.5q-27 0 -45 23.5t-18 59.5q0 69 80 115l17 -24q-48 -30 -48 -63q0 -22 30 -40q25 -15 25 -33z" />
    <glyph glyph-name="Stroke.part" horiz-adv-x="430" 
d="M47 527h691v-42h-691v42z" />
    <glyph glyph-name="stroke.part" horiz-adv-x="430" 
d="M53 546h285v-47h-285v47z" />
    <glyph glyph-name="parenleft.case" horiz-adv-x="352" 
d="M323 -151l-27 -31q-236 217 -236 506q0 149 61.5 264.5t173.5 218.5l27 -35q-182 -193 -182 -448q0 -137 47 -261.5t136 -213.5z" />
    <glyph glyph-name="parenright.case" horiz-adv-x="352" 
d="M56 -181l-26 30q89 89 136 213.5t47 261.5q0 255 -182 448l26 35q113 -103 174.5 -218.5t61.5 -264.5q0 -289 -237 -505z" />
    <glyph glyph-name="bracketleft.case" horiz-adv-x="335" 
d="M301 800v-45q-36 -7 -95 -7q-33 0 -57 4v-865q18 2 41 2q69 0 117 -6v-47q-44 6 -116 6q-60 0 -110 -5v962q52 -5 117 -5q66 0 103 6z" />
    <glyph glyph-name="bracketright.case" horiz-adv-x="335" 
d="M34 755v45q36 -6 103 -6q64 0 117 5v-962q-50 5 -110 5q-74 0 -116 -6v47q48 6 117 6q22 0 41 -2v865q-24 -4 -57 -4q-50 0 -95 7z" />
    <glyph glyph-name="braceleft.case" horiz-adv-x="435" 
d="M141 345v-18q63 -9 107.5 -51.5t44.5 -105.5q0 -26 -20 -88q-25 -75 -25 -116q0 -94 157 -97v-38q-131 1 -180.5 35.5t-49.5 109.5q0 33 23 106q21 67 21 96q0 59 -44 91t-115 34v62q67 1 113 37t46 83q0 35 -21 96t-21 91q0 70 50 99.5t172 29.5v-39q-151 -2 -151 -81
q0 -42 25 -111q20 -54 20 -80q0 -53 -44 -92.5t-108 -52.5z" />
    <glyph glyph-name="braceright.case" horiz-adv-x="435" 
d="M294 327v18q-64 13 -108 52.5t-44 92.5q0 26 20 80q26 72 26 111q0 81 -152 81v39q123 0 172.5 -29.5t49.5 -99.5q0 -33 -20 -91q-21 -61 -21 -96q0 -47 45.5 -83t113.5 -37v-62q-72 -2 -115.5 -34t-43.5 -91q0 -29 21 -96q22 -70 22 -106q0 -75 -49 -109.5t-181 -35.5
v38q158 3 158 97q0 38 -26 116q-20 60 -20 88q0 62 44.5 105t107.5 52z" />
    <glyph glyph-name="dotaccent.case" horiz-adv-x="500" 
d="M190 567q0 26 17 44.5t42 18.5t43.5 -18.5t18.5 -44.5q0 -27 -18.5 -45t-43.5 -18t-42 18t-17 45z" />
    <glyph glyph-name="Iacute_Jacute" horiz-adv-x="922" 
d="M338 693v-36q-67 0 -85.5 -7.5t-18.5 -34.5v-532q0 -32 16 -39.5t88 -7.5v-36h-302v36q67 0 85 8t18 39v532q0 29 -17 35.5t-86 6.5v36h302zM131 753v6l-1 -1l86 129h87v-8l2 1l-130 -127h-44zM903 693v-36q-64 0 -84 -15t-20 -74v-373q0 -50 -14 -88t-35 -60t-49.5 -36
t-54 -18.5t-52.5 -4.5q-75 0 -126 38.5t-51 115.5q0 40 20 67.5t49 27.5q26 0 44 -22t19 -66l-83 -49q5 -36 36.5 -56.5t83.5 -20.5q62 0 90.5 39.5t28.5 126.5v378q0 60 -19 75t-84 15v36h301zM700 752v6l-1 -1l86 129h86v-8l2 1l-129 -127h-44z" />
    <glyph glyph-name="iacute_jacute" horiz-adv-x="602" 
d="M424 -117v499q-1 40 -19 51.5t-66 11.5v26l135 9h33v-517q0 -101 -39.5 -145.5t-102.5 -44.5q-46 0 -78.5 23t-32.5 57q0 32 14.5 49t35.5 17q16 0 32 -11l-6 -96q12 -12 32 -12q28 0 45 23.5t17 59.5zM194 52q0 -16 10 -16t29 -2t29 -3v-31h-224v31l31 5q41 5 41 48v293
q0 40 -18 51.5t-67 11.5v31l135 9h34v-428zM96 545v6l-1 -1l86 164h86v-8l1 1l-129 -162h-43zM419 544v6l-1 -1l85 164h87v-8l1 1l-129 -162h-43z" />
    <glyph glyph-name="idotaccent" horiz-adv-x="296" 
d="M196 52q0 -16 10 -16t29.5 -2t28.5 -3v-31h-224v31l31 5q41 5 41 48v293q0 40 -18 51.5t-67 11.5v31l135 9h34v-428zM87 681q0 26 16.5 44t41.5 18t42.5 -18t17.5 -44q0 -25 -17.5 -42.5t-42.5 -17.5t-41.5 17.5t-16.5 42.5z" />
    <glyph glyph-name="acute.plk" horiz-adv-x="500" 
d="M225 502v6l35 164h81v-7l-80 -163h-36z" />
    <glyph glyph-name="acute.case.plk" horiz-adv-x="500" 
d="M227 492v5l36 129h80v-8l1 1l-79 -127h-38z" />
    <glyph glyph-name="Dotlessi" horiz-adv-x="379" 
d="M340 691v-35q-67 0 -85.5 -7.5t-18.5 -34.5v-532q0 -32 16 -39t88 -7v-36h-301v36q67 0 85 8t18 38v532q0 29 -17 35.5t-86 6.5v35h301z" />
    <glyph glyph-name="dotaccentlow" horiz-adv-x="500" 
d="M190 -129q0 26 17 44.5t42 18.5t43.5 -18.5t18.5 -44.5t-18.5 -44.5t-43.5 -18.5t-42 18.5t-17 44.5z" />
    <glyph glyph-name="acute.lchigh" horiz-adv-x="500" 
d="M194 472v6l-1 -1l85 129h87v-8l2 1l-129 -127h-44z" />
    <glyph glyph-name="twosevenths" 
d="M104 366l1 -7h116q14 0 25 18.5t15 47.5h35q-3 -21 -9 -58.5t-8 -55.5h-251q-1 5 -4 14t-4 13l22 19q24 20 39 33t42.5 40.5t44 50.5t30 53t13.5 56q0 43 -20 62.5t-47 19.5q-46 0 -65 -44l35 -50l-1 1q0 -19 -12 -30.5t-31 -11.5q-20 0 -31 14.5t-11 36.5
q0 48 36.5 78.5t85.5 30.5q60 0 95.5 -29t35.5 -79q0 -30 -25 -67.5t-49 -60.5t-65 -57q-27 -22 -44 -39l2 1h4zM536 22q24 149 147 300q-34 -13 -62 -13q-14 0 -34 4q-6 0 -7 1q-17 4 -29 4q-24 0 -38.5 -20t-18.5 -54h-29l19 129h29l1 -8q26 11 44 11q20 0 48 -12
q24 -11 43 -11q33 0 76 28l19 -21q-69 -86 -100.5 -158t-31.5 -181q0 -9 -1.5 -15.5t-10 -13t-25.5 -6.5q-21 0 -31 9t-8 27zM151 -15l242 371l223 352q5 -3 16.5 -11t16.5 -11l-235 -350l-229 -374q-23 15 -34 23z" />
    <glyph glyph-name="twoninths" 
d="M585 -17q-48 0 -74.5 18.5t-26.5 41.5q0 44 37 44q18 0 29.5 -10.5t11.5 -28.5l2 1l-30 -27q19 -17 51 -17q39 0 63 49.5t26 118.5q-43 -41 -91 -41q-55 0 -86 33.5t-31 86.5q0 55 41 89.5t96 34.5q57 0 97.5 -43.5t40.5 -135.5q0 -98 -44.5 -156t-111.5 -58zM104 366
l1 -7h116q14 0 25 18.5t15 47.5h35q-3 -21 -9 -58.5t-8 -55.5h-251q-1 5 -4 14t-4 13l22 19q24 20 39 33t42.5 40.5t44 50.5t30 53t13.5 56q0 43 -20 62.5t-47 19.5q-46 0 -65 -44l35 -50l-1 1q0 -19 -12 -30.5t-31 -11.5q-20 0 -31 14.5t-11 36.5q0 48 36.5 78.5t85.5 30.5
q60 0 95.5 -29t35.5 -79q0 -30 -25 -67.5t-49 -60.5t-65 -57q-27 -22 -44 -39l2 1h4zM151 -15l242 371l223 352q5 -3 16.5 -11t16.5 -11l-235 -350l-229 -374q-23 15 -34 23zM534 249q0 -91 60 -91q21 0 44 17.5t38 48.5q-1 127 -74 127q-34 0 -51 -28t-17 -74z" />
    <glyph glyph-name="threesevenths" 
d="M211 520l5 -8q42 -6 71 -31.5t29 -68.5q0 -53 -46.5 -80.5t-110.5 -27.5q-48 0 -80.5 19.5t-32.5 54.5q0 20 11 32.5t29 12.5q17 0 27 -10.5t10 -29.5l1 1l-26 -39q19 -17 57 -17q90 0 90 86q0 76 -63 76q-20 0 -58 -12l-7 24q61 23 89 50t28 64q0 57 -59 57
q-35 0 -59 -21q4 -8 13.5 -24t13.5 -23l-1 1q0 -14 -10.5 -23t-26.5 -9q-17 0 -27.5 12.5t-10.5 32.5q0 37 36 57.5t83 20.5q52 0 85.5 -22.5t33.5 -60.5q0 -27 -26.5 -52t-67.5 -42zM536 22q24 149 147 300q-34 -13 -62 -13q-14 0 -34 4q-6 0 -7 1q-17 4 -29 4
q-24 0 -38.5 -20t-18.5 -54h-29l19 129h29l1 -8q26 11 44 11q20 0 48 -12q24 -11 43 -11q33 0 76 28l19 -21q-69 -86 -100.5 -158t-31.5 -181q0 -9 -1.5 -15.5t-10 -13t-25.5 -6.5q-21 0 -31 9t-8 27zM151 -15l242 371l223 352q5 -3 16.5 -11t16.5 -11l-235 -350l-229 -374
q-23 15 -34 23z" />
    <glyph glyph-name="foursevenths" 
d="M2 427l-4 13l202 258q5 -1 14 -3t13 -2v-242h58v-24h-58v-42q0 -33 15 -43.5t43 -11.5v-19h-180v19q32 1 46.5 11.5t14.5 39.5v46h-164zM536 22q24 149 147 300q-34 -13 -62 -13q-14 0 -34 4q-6 0 -7 1q-17 4 -29 4q-24 0 -38.5 -20t-18.5 -54h-29l19 129h29l1 -8
q26 11 44 11q20 0 48 -12q24 -11 43 -11q33 0 76 28l19 -21q-69 -86 -100.5 -158t-31.5 -181q0 -9 -1.5 -15.5t-10 -13t-25.5 -6.5q-21 0 -31 9t-8 27zM151 -15l242 371l223 352q5 -3 16.5 -11t16.5 -11l-235 -350l-229 -374q-23 15 -34 23zM50 455l4 -4h111v155z" />
    <glyph glyph-name="fourninths" 
d="M585 -17q-48 0 -74.5 18.5t-26.5 41.5q0 44 37 44q18 0 29.5 -10.5t11.5 -28.5l2 1l-30 -27q19 -17 51 -17q39 0 63 49.5t26 118.5q-43 -41 -91 -41q-55 0 -86 33.5t-31 86.5q0 55 41 89.5t96 34.5q57 0 97.5 -43.5t40.5 -135.5q0 -98 -44.5 -156t-111.5 -58zM2 427
l-4 13l202 258q5 -1 14 -3t13 -2v-242h58v-24h-58v-42q0 -33 15 -43.5t43 -11.5v-19h-180v19q32 1 46.5 11.5t14.5 39.5v46h-164zM151 -15l242 371l223 352q5 -3 16.5 -11t16.5 -11l-235 -350l-229 -374q-23 15 -34 23zM534 249q0 -91 60 -91q21 0 44 17.5t38 48.5
q-1 127 -74 127q-34 0 -51 -28t-17 -74zM50 455l4 -4h111v155z" />
    <glyph glyph-name="fivesevenths" 
d="M129 627l-6 -2q-2 -32 -4 -48l-4 -52q41 23 83 23q47 0 82 -28.5t35 -79.5q0 -62 -46 -99t-115 -37q-39 0 -72 20t-33 54q0 19 11.5 31t29.5 12t28 -10t10 -27l1 1l-28 -41q21 -16 57 -16q42 0 64 31.5t22 76.5q0 80 -63 80q-41 0 -74 -36h-28l16 213q53 -16 107 -16
q57 0 101 20v-28q-48 -45 -130 -45q-23 0 -44 3zM536 22q24 149 147 300q-34 -13 -62 -13q-14 0 -34 4q-6 0 -7 1q-17 4 -29 4q-24 0 -38.5 -20t-18.5 -54h-29l19 129h29l1 -8q26 11 44 11q20 0 48 -12q24 -11 43 -11q33 0 76 28l19 -21q-69 -86 -100.5 -158t-31.5 -181
q0 -9 -1.5 -15.5t-10 -13t-25.5 -6.5q-21 0 -31 9t-8 27zM151 -15l242 371l223 352q5 -3 16.5 -11t16.5 -11l-235 -350l-229 -374q-23 15 -34 23z" />
    <glyph glyph-name="fiveninths" 
d="M585 -17q-48 0 -74.5 18.5t-26.5 41.5q0 44 37 44q18 0 29.5 -10.5t11.5 -28.5l2 1l-30 -27q19 -17 51 -17q39 0 63 49.5t26 118.5q-43 -41 -91 -41q-55 0 -86 33.5t-31 86.5q0 55 41 89.5t96 34.5q57 0 97.5 -43.5t40.5 -135.5q0 -98 -44.5 -156t-111.5 -58zM129 627
l-6 -2q-2 -32 -4 -48l-4 -52q41 23 83 23q47 0 82 -28.5t35 -79.5q0 -62 -46 -99t-115 -37q-39 0 -72 20t-33 54q0 19 11.5 31t29.5 12t28 -10t10 -27l1 1l-28 -41q21 -16 57 -16q42 0 64 31.5t22 76.5q0 80 -63 80q-41 0 -74 -36h-28l16 213q53 -16 107 -16q57 0 101 20
v-28q-48 -45 -130 -45q-23 0 -44 3zM151 -15l242 371l223 352q5 -3 16.5 -11t16.5 -11l-235 -350l-229 -374q-23 15 -34 23zM534 249q0 -91 60 -91q21 0 44 17.5t38 48.5q-1 127 -74 127q-34 0 -51 -28t-17 -74z" />
    <glyph glyph-name="sixsevenths" 
d="M182 697q47 0 75 -21.5t28 -46.5q0 -40 -39 -40q-18 0 -29 9.5t-11 26.5l-1 -1l27 31q-20 20 -50 20q-38 0 -62.5 -53t-28.5 -117q43 43 94 43q55 0 86 -30.5t31 -78.5q0 -63 -41 -99t-96 -36q-57 0 -97.5 44t-40.5 136q0 89 45 151t110 62zM536 22q24 149 147 300
q-34 -13 -62 -13q-14 0 -34 4q-6 0 -7 1q-17 4 -29 4q-24 0 -38.5 -20t-18.5 -54h-29l19 129h29l1 -8q26 11 44 11q20 0 48 -12q24 -11 43 -11q33 0 76 28l19 -21q-69 -86 -100.5 -158t-31.5 -181q0 -9 -1.5 -15.5t-10 -13t-25.5 -6.5q-21 0 -31 9t-8 27zM151 -15l242 371
l223 352q5 -3 16.5 -11t16.5 -11l-235 -350l-229 -374q-23 15 -34 23zM232 436q0 86 -58 86q-21 0 -44 -18t-39 -50q1 -125 74 -125q67 0 67 107z" />
    <glyph glyph-name="sevenninths" 
d="M585 -17q-48 0 -74.5 18.5t-26.5 41.5q0 44 37 44q18 0 29.5 -10.5t11.5 -28.5l2 1l-30 -27q19 -17 51 -17q39 0 63 49.5t26 118.5q-43 -41 -91 -41q-55 0 -86 33.5t-31 86.5q0 55 41 89.5t96 34.5q57 0 97.5 -43.5t40.5 -135.5q0 -98 -44.5 -156t-111.5 -58zM142 343
q22 147 146 299q-34 -13 -61 -13q-14 0 -34 4q-6 0 -7 1q-19 4 -30 4q-48 0 -56 -73h-29l19 129h29l1 -8q26 11 43 11q21 0 49 -12q24 -11 43 -11q33 0 76 28l19 -21q-69 -85 -100.5 -157.5t-31.5 -181.5q0 -9 -1.5 -15.5t-10 -13t-25.5 -6.5q-21 0 -31 9t-8 27zM151 -15
l242 371l223 352q5 -3 16.5 -11t16.5 -11l-235 -350l-229 -374q-23 15 -34 23zM534 249q0 -91 60 -91q21 0 44 17.5t38 48.5q-1 127 -74 127q-34 0 -51 -28t-17 -74z" />
    <glyph glyph-name="eightninths" 
d="M231 515l3 1v-2q83 -29 83 -99q0 -50 -44.5 -80.5t-100.5 -30.5q-57 0 -92.5 25t-35.5 67q0 28 23.5 53.5t58.5 40.5v2h3l2 4q-71 31 -71 94q0 45 36.5 76t90.5 31q51 0 83 -24t32 -61q0 -54 -72 -95l2 -4h2v1q-2 0 -3 1zM585 -17q-48 0 -74.5 18.5t-26.5 41.5
q0 44 37 44q18 0 29.5 -10.5t11.5 -28.5l2 1l-30 -27q19 -17 51 -17q39 0 63 49.5t26 118.5q-43 -41 -91 -41q-55 0 -86 33.5t-31 86.5q0 55 41 89.5t96 34.5q57 0 97.5 -43.5t40.5 -135.5q0 -98 -44.5 -156t-111.5 -58zM151 -15l242 371l223 352q5 -3 16.5 -11t16.5 -11
l-235 -350l-229 -374q-23 15 -34 23zM534 249q0 -91 60 -91q21 0 44 17.5t38 48.5q-1 127 -74 127q-34 0 -51 -28t-17 -74zM258 403q0 56 -99 78q-60 -23 -59 -82q1 -34 22.5 -52t57.5 -18q33 0 55.5 19.5t22.5 54.5zM243 607q0 28 -18.5 47t-46.5 19q-30 0 -48 -18.5
t-18 -43.5q0 -59 89 -85q42 26 42 81z" />
    <glyph glyph-name="Cacute.plk" horiz-adv-x="684" 
d="M561 657l10 2q3 5 11 17t12 17h23l4 -259h-32q-15 92 -66.5 160t-137.5 68q-105 0 -163 -87.5t-58 -230.5q0 -314 226 -314q160 0 203 193h36q-4 -31 -12 -91.5t-11 -88.5q-38 -24 -97.5 -39.5t-120.5 -15.5q-151 0 -241.5 97t-90.5 261q0 148 101 252.5t232 104.5
q106 0 172 -46zM364 753v5l36 129h80v-8l1 1l-79 -127h-38z" />
    <glyph glyph-name="Nacute.plk" horiz-adv-x="752" 
d="M175 558h-12v-467q0 -34 28 -44.5t92 -10.5v-36h-253v36q51 0 75 11t24 44v513q-23 26 -45.5 39t-58.5 14v36h167l399 -512h12v425q0 51 -122 51v36h246v-36q-52 -1 -71.5 -13t-19.5 -38v-616h-19zM361 753v5l36 129h80v-8l1 1l-79 -127h-38z" />
    <glyph glyph-name="Oacute.plk" horiz-adv-x="751" 
d="M696 346q0 -152 -94.5 -255t-225.5 -103q-136 0 -228.5 100t-92.5 258q0 159 92.5 258t228.5 99q132 0 226 -100.5t94 -256.5zM587 346q0 316 -211 316q-116 0 -164 -81t-48 -235q0 -152 49 -234t163 -82q105 0 158 84.5t53 231.5zM354 753v5l36 129h80v-8l1 1l-79 -127
h-38z" />
    <glyph glyph-name="Sacute.plk" horiz-adv-x="586" 
d="M128 57l-10 -1l-14 -56h-34l-7 276h29q24 -128 78 -188.5t153 -60.5q71 0 109.5 34t38.5 82q0 54 -45 92.5t-175 78.5q-190 59 -190 207q0 82 56 132t134 50q92 0 179 -65l11 2l17 57h29q0 -44 1 -128.5t1 -127.5h-26q-31 115 -83 169.5t-128 54.5q-57 0 -89.5 -35
t-32.5 -81q0 -49 49.5 -86.5t161.5 -72.5q108 -33 152 -83t44 -126q0 -83 -60 -138t-152 -55q-120 0 -197 69zM241 753v5l36 129h80v-8l1 1l-79 -127h-38z" />
    <glyph glyph-name="Zacute.plk" horiz-adv-x="636" 
d="M34 0v21l-1 -1l432 631l-5 6h-206q-67 0 -113.5 -63t-51.5 -149h-32l11 248h530v-19l1 1l-437 -631l2 -6h215q71 0 120.5 63.5t61.5 167.5h32l-19 -269h-540zM318 753v5l36 129h80v-8l1 1l-79 -127h-38z" />
    <glyph glyph-name="cacute.plk" horiz-adv-x="472" 
d="M414 147l27 -9q-20 -67 -66 -107.5t-112 -40.5q-94 0 -158 62t-64 183q0 110 65.5 182.5t156.5 72.5q66 0 114.5 -35t48.5 -88q0 -35 -14.5 -53.5t-37.5 -18.5q-27 0 -41.5 19.5t-13.5 48.5l-1 -1l28 46q-14 44 -76 44q-61 0 -99 -48t-38 -155q0 -108 42.5 -158
t108.5 -50q48 0 82 30t48 76zM233 548v6q6 26 17.5 81t17.5 82h81v-7l-80 -162h-36z" />
    <glyph glyph-name="nacute.plk" horiz-adv-x="555" 
d="M164 423h22q36 35 67 51t79 16q56 0 95.5 -37.5t39.5 -118.5v-289q0 -9 10 -9q9 0 29 -2t29 -3v-31h-210v31l27 5q18 3 25 8.5t7 16.5v314q0 66 -76 66q-40 0 -68 -14.5t-61 -45.5v-337q0 -6 1.5 -7t8.5 -1q9 0 28.5 -2t29.5 -3v-31h-222v31l37 5q18 2 25.5 8.5t7.5 24.5
v301q0 36 -16.5 52.5t-58.5 17.5v31l104 9h36zM264 548v6q4 17 16.5 75t19.5 88h80v-7l-79 -162h-37z" />
    <glyph glyph-name="oacute.plk" horiz-adv-x="519" 
d="M40 239q0 110 63.5 180.5t156.5 70.5q92 0 155.5 -70t63.5 -181q0 -117 -62.5 -183t-156.5 -66q-95 0 -157.5 66t-62.5 183zM132 240q0 -213 128 -213q29 0 49 7t39.5 28t29 65.5t9.5 112.5q0 123 -34 168t-93 45q-28 0 -49 -8t-40 -29.5t-29 -65.5t-10 -110zM236 548v6
q6 26 17.5 81t17.5 82h81v-7l-80 -162h-36z" />
    <glyph glyph-name="sacute.plk" horiz-adv-x="444" 
d="M67 -9v196h24q12 -80 54.5 -121t105.5 -41q44 0 71 20.5t27 57.5q0 39 -31 62t-125 47q-135 38 -135 152q0 53 40 89.5t105 36.5q35 0 70.5 -11t56.5 -27l27 36h14v-177h-22q-33 142 -150 142q-42 0 -66 -17.5t-24 -46.5q0 -35 33 -59.5t123 -48.5q75 -20 107.5 -56.5
t32.5 -93.5q0 -61 -42 -101t-116 -40q-40 0 -80 13t-62 27q-3 -6 -11.5 -20.5t-10.5 -18.5h-16zM199 548v6q6 26 17.5 81t17.5 82h81v-7l-80 -162h-36z" />
    <glyph glyph-name="zacute.plk" horiz-adv-x="484" 
d="M154 45v-6h139q48 0 80.5 48.5t48.5 117.5h24q-2 -35 -7 -102.5t-7 -102.5h-395v16l-1 -1l287 421v9h-100q-112 0 -143 -158h-26l13 193h373v-15l1 1zM242 546v6q6 27 17.5 81.5t17.5 81.5h81v-7l-80 -162h-36z" />
    <glyph glyph-name="hyphen.c2sc" horiz-adv-x="318" 
d="M36 270h246v-65h-246v65z" />
    <glyph glyph-name="endash.c2sc" horiz-adv-x="488" 
d="M44 270h400v-65h-400v65z" />
    <glyph glyph-name="emdash.c2sc" horiz-adv-x="1000" 
d="M88 265h825v-55h-825v55z" />
    </font>
</defs>
</svg>
