<?xml version="1.0" standalone="no"?>
<!DOCTYPE svg PUBLIC "-//W3C//DTD SVG 1.1//EN" "http://www.w3.org/Graphics/SVG/1.1/DTD/svg11.dtd" >
<svg xmlns="http://www.w3.org/2000/svg" xmlns:xlink="http://www.w3.org/1999/xlink" version="1.1">
<metadata>
Created by FontForge 20170731 at Wed Mar 13 13:57:12 2019
 By Aleksey,,,
Copyright 2018-2019 Matthew Butterick
</metadata>
<defs>
<font id="CenturySupraT3-Italic" horiz-adv-x="800" >
  <font-face 
    font-family="Century Supra T3"
    font-weight="300"
    font-style="italic"
    font-stretch="normal"
    units-per-em="1000"
    panose-1="0 0 0 0 0 0 0 0 0 0"
    ascent="762"
    descent="-238"
    x-height="490"
    cap-height="691"
    bbox="-139 -271 1056 963"
    underline-thickness="50"
    underline-position="-175"
    slope="-17"
    unicode-range="U+000D-FB04"
  />
<missing-glyph horiz-adv-x="544" 
d="M20 0v700h508v-700h-508zM71 41h406v618h-406v-618zM200 397l8 4q36 -18 79 -18q36 0 57.5 24.5t21.5 63.5q0 40 -30.5 74t-78.5 34q-28 0 -40 -14l14 -37q0 -14 -10 -22.5t-26 -8.5q-35 0 -35 39q0 30 25 50t66 20q63 0 109.5 -45t46.5 -114q0 -56 -30 -92t-77 -36
q-45 0 -65 15l-2 -88h-30zM172 141q0 20 13 33.5t33 13.5q18 0 31.5 -13.5t13.5 -33.5q0 -18 -13.5 -31t-31.5 -13q-19 0 -32.5 13t-13.5 31z" />
    <glyph glyph-name="uni2190" unicode="&#x3c;&#x2d;" horiz-adv-x="704" 
d="M76 272l237 264l61 -46l-163 -183h420v-84h-420l163 -183l-61 -47l-237 266v13z" />
    <glyph glyph-name="uni2192" unicode="&#x2d;&#x3e;" horiz-adv-x="704" 
d="M391 536l237 -264v-13l-237 -266l-61 47l163 183h-420v84h420l-163 183z" />
    <glyph glyph-name="f_f" unicode="ff" horiz-adv-x="654" 
d="M55 418l8 45h92l9 86q9 86 55.5 137t108.5 51q55 0 87 -29.5t32 -70.5q0 -32 -17.5 -53t-46.5 -22q-5 79 -16 112.5t-38 33.5q-29 0 -52 -44t-31 -126l-9 -75h233l9 102q9 84 56 135.5t107 51.5q62 0 98 -29.5t36 -70.5q0 -32 -17 -53t-46 -22q-8 146 -65 146
q-30 0 -54 -43.5t-33 -125.5l-9 -91h108q-1 -7 -4 -22t-4 -23h-106q-24 -189 -51.5 -318.5t-58 -196t-59.5 -93.5t-63 -27q-39 0 -63.5 17t-24.5 52q0 27 16 46t39 21q12 -73 53 -102q78 85 131 601h-233q-24 -192 -52 -323.5t-58 -199.5t-59 -95t-64 -27q-39 0 -63.5 17
t-24.5 52q0 27 16 46t40 21q11 -72 52 -103q78 86 131 612h-95z" />
    <glyph glyph-name="fi" unicode="fi" horiz-adv-x="592" 
d="M425 418h-193q-24 -192 -52 -323.5t-58 -199.5t-59 -95t-64 -27q-39 0 -63.5 17t-24.5 52q0 27 16 46t40 21q11 -72 52 -103q78 86 131 612h-95l8 45h92l9 102q10 84 68.5 135.5t130.5 51.5q80 0 119.5 -30t39.5 -75q0 -31 -23 -52.5t-60 -22.5q-8 151 -79 151
q-39 0 -70.5 -41t-43.5 -128l-9 -91h279q-13 -58 -40.5 -178t-39.5 -178q-7 -30 5.5 -53t29.5 -20q19 3 40 35.5t23 92.5q5 0 14 -0.5t13 -0.5q-14 -91 -40 -129.5t-75 -38.5q-43 0 -65.5 28t-22.5 72q0 21 6 43z" />
    <glyph glyph-name="fl" unicode="fl" horiz-adv-x="581" 
d="M573 742l-148 -654q-4 -22 4.5 -37.5t22.5 -15.5q13 0 23 3.5t22.5 15.5t21.5 39.5t14 70.5l26 -4q-13 -80 -40.5 -123.5t-85.5 -43.5q-80 0 -80 84q0 28 9 67l99 460q-25 -9 -46 -5q-2 29 -8 53.5t-24.5 47.5t-47.5 23q-31 0 -55 -43.5t-33 -125.5l-9 -91h109
q-1 -7 -4 -22t-4 -23h-106q-24 -192 -52 -323.5t-58 -199.5t-59 -95t-64 -27q-39 0 -63.5 17t-24.5 52q0 27 16 46t40 21q11 -72 52 -103q78 86 131 612h-95l8 45h92l9 102q9 85 56.5 136t107.5 51q71 0 121 -45l95 35h28z" />
    <glyph glyph-name="f_f_i" unicode="ffi" horiz-adv-x="903" 
d="M382 560l-5 2h5q-5 79 -16 112.5t-38 33.5q-29 0 -52 -44t-31 -126l-9 -75h232l9 102q10 84 68.5 135.5t130.5 51.5q79 0 119 -30t40 -75q0 -31 -23 -52.5t-61 -22.5q-8 151 -78 151q-40 0 -71 -40.5t-43 -128.5l-9 -91h279q-13 -58 -40.5 -178t-40.5 -178
q-7 -30 5.5 -53t29.5 -20q20 3 41 35.5t23 92.5q5 0 13.5 -0.5t12.5 -0.5q-14 -91 -39.5 -129.5t-75.5 -38.5q-42 0 -65 28t-23 72q0 17 7 43l61 282h-194q-24 -189 -51.5 -318.5t-58 -196t-59.5 -93.5t-63 -27q-39 0 -63.5 17t-24.5 52q0 27 16 46t39 21q12 -73 53 -102
q78 85 131 601h-232q-24 -192 -52 -323.5t-58 -199.5t-59 -95t-64 -27q-39 0 -63.5 17t-24.5 52q0 27 16 46t40 21q11 -72 52 -103q78 86 131 612h-95l8 45h92l9 86q9 86 55.5 137t108.5 51q55 0 87 -29.5t32 -70.5q0 -31 -18 -52.5t-46 -22.5v-2z" />
    <glyph glyph-name="f_f_l" unicode="ffl" horiz-adv-x="894" 
d="M55 418l8 45h92l9 86q9 86 55.5 137t108.5 51q55 0 87 -29.5t32 -70.5q0 -32 -17.5 -53t-46.5 -22q-5 79 -16 112.5t-38 33.5q-29 0 -52 -44t-31 -126l-9 -75h234l9 102q9 84 56 135.5t107 51.5q73 0 121 -45l96 35h27l-147 -654q-4 -22 4 -37.5t22 -15.5t24 3.5
t22.5 15.5t21.5 39.5t14 70.5l25 -4q-12 -80 -40 -123.5t-86 -43.5q-80 0 -80 84q0 30 10 67l98 460q-26 -9 -45 -5q-2 29 -8 53.5t-25 47.5t-48 23q-30 0 -54 -43.5t-33 -125.5l-9 -91h108q-1 -7 -4 -22t-4 -23h-106q-24 -189 -51.5 -318.5t-58 -196t-59.5 -93.5t-63 -27
q-39 0 -63.5 17t-24.5 52q0 27 16 46t39 21q11 -71 53 -102q78 83 131 601h-234q-24 -192 -52 -323.5t-58 -199.5t-59 -95t-64 -27q-39 0 -63.5 17t-24.5 52q0 27 16 46t40 21q11 -72 52 -103q78 86 131 612h-95z" />
    <glyph glyph-name="uni2190.circle" unicode="&#x28;&#x3c;&#x2d;&#x29;" horiz-adv-x="884" 
d="M401 536l-237 -264v-13l237 -266l61 47l-163 183h420v84h-420l163 183zM824 263q0 -157 -111.5 -268.5t-268.5 -111.5q-159 0 -271.5 111.5t-112.5 268.5q0 159 112.5 271t271.5 112q157 0 268.5 -112t111.5 -271z" />
    <glyph glyph-name="uni2192.circle" unicode="&#x28;&#x2d;&#x3e;&#x29;" horiz-adv-x="884" 
d="M720 272l-237 264l-61 -46l163 -183h-420v-84h420l-163 -183l61 -47l237 266v13zM60 263q0 159 111.5 271t268.5 112q159 0 271.5 -112t112.5 -271q0 -157 -112.5 -268.5t-271.5 -111.5q-157 0 -268.5 111.5t-111.5 268.5z" />
    <glyph glyph-name="uni2191.circle" unicode="&#x28;&#x2191;&#x29;" horiz-adv-x="884" 
d="M713 305l-264 237h-13l-266 -237l47 -61l183 163v-420h84v420l183 -163zM440 -118q-157 0 -268.5 111.5t-111.5 268.5q0 159 111.5 271.5t268.5 112.5q159 0 271.5 -112.5t112.5 -271.5q0 -157 -112.5 -268.5t-271.5 -111.5z" />
    <glyph glyph-name="uni2193.circle" unicode="&#x28;&#x2193;&#x29;" horiz-adv-x="884" 
d="M449 -14l264 237l-46 61l-183 -163v420h-84v-420l-183 163l-47 -61l266 -237h13zM440 646q159 0 271.5 -111.5t112.5 -268.5q0 -159 -112.5 -271.5t-271.5 -112.5q-157 0 -268.5 112.5t-111.5 271.5q0 157 111.5 268.5t268.5 111.5z" />
    <glyph glyph-name="g_f" unicode="gf" horiz-adv-x="797" 
d="M244 490q67 0 116 -41l64 38h43q-2 -6 -13 -57h-77q21 -33 21 -73q0 -77 -43 -122t-104 -57q-53 -10 -80.5 -30t-47.5 -51l45 -14q39 -12 57.5 -17.5t49 -16t44 -16.5t34 -15.5t29.5 -17.5t19 -18.5t13.5 -22t3.5 -24.5q0 -64 -69.5 -113t-175.5 -49q-82 0 -139 27.5
t-57 80.5q0 41 41 74.5t97 57.5v13q-42 29 -42 74l-1 -1q22 42 86 77v12q-45 15 -71 46t-26 73q0 70 54 126.5t129 56.5zM512 418l7 45h93l9 102q9 84 56 135.5t107 51.5q62 0 98.5 -29.5t36.5 -70.5q0 -32 -17.5 -53t-46.5 -22q-8 146 -65 146q-30 0 -54 -43.5t-33 -125.5
l-9 -91h109q-1 -7 -4 -22t-4 -23h-106q-22 -192 -47 -323.5t-52 -199.5t-53 -95t-56 -27q-73 0 -73 54q0 19 13 32t33 15q8 -49 42 -73q67 93 112 617h-96zM346 -95q0 21 -18.5 36.5t-62.5 29.5l-112 34q-57 -20 -85.5 -54t-28.5 -63q0 -43 42.5 -63.5t107.5 -20.5
q70 0 113.5 29t43.5 72zM317 343q0 56 -21 85.5t-58 29.5q-45 0 -70.5 -41t-25.5 -113q0 -95 78 -95q39 0 68 34t29 100z" />
    <glyph glyph-name="f_j" unicode="fj" horiz-adv-x="584" 
d="M367 -19l88 437h-222q-24 -192 -52 -323.5t-58 -199.5t-59 -95t-64 -27q-39 0 -63.5 17t-24.5 52q0 27 16 46t40 21q11 -72 52 -103q78 86 131 612h-95l8 45h92l9 102q10 84 68.5 135.5t130.5 51.5q80 0 119.5 -30t39.5 -75q0 -31 -23 -52.5t-60 -22.5q-8 151 -79 151
q-39 0 -70.5 -41t-43.5 -128l-9 -91h304l-103 -484q-23 -92 -66.5 -148.5t-107.5 -57.5q-34 0 -58.5 17.5t-24.5 51.5q0 56 68 71q-1 -62 6 -86.5t28 -24.5q28 0 44.5 36.5t38.5 142.5z" />
    <glyph glyph-name="f_f_j" unicode="ffj" horiz-adv-x="896" 
d="M54 418l7 45h93l9 86q9 86 55.5 137t108.5 51q55 0 87 -29.5t32 -70.5q0 -32 -17.5 -53t-46.5 -22q-5 79 -16 112.5t-38 33.5q-29 0 -52 -44t-31 -126l-9 -75h233l9 102q10 84 68.5 135.5t130.5 51.5q79 0 119 -30t40 -75q0 -31 -23 -52.5t-61 -22.5q-8 151 -78 151
q-40 0 -71 -40.5t-43 -128.5l-9 -91h304l-104 -484q-22 -87 -65.5 -141t-107.5 -55q-34 0 -58.5 17.5t-24.5 51.5q0 57 68 71q-1 -62 6 -86.5t28 -24.5q27 0 43.5 34.5t39.5 134.5l87 437h-222q-24 -189 -51.5 -318.5t-58 -196t-59.5 -93.5t-63 -27q-39 0 -63.5 17t-24.5 52
q0 27 16 46t39 21q12 -73 53 -102q78 85 131 601h-233q-24 -192 -52 -323.5t-58 -199.5t-59 -95t-64 -27q-39 0 -63.5 17t-24.5 52q0 27 16 46t40 21q11 -72 52 -103q78 86 131 612h-95z" />
    <glyph glyph-name=".notdef" horiz-adv-x="544" 
d="M20 0v700h508v-700h-508zM71 41h406v618h-406v-618zM200 397l8 4q36 -18 79 -18q36 0 57.5 24.5t21.5 63.5q0 40 -30.5 74t-78.5 34q-28 0 -40 -14l14 -37q0 -14 -10 -22.5t-26 -8.5q-35 0 -35 39q0 30 25 50t66 20q63 0 109.5 -45t46.5 -114q0 -56 -30 -92t-77 -36
q-45 0 -65 15l-2 -88h-30zM172 141q0 20 13 33.5t33 13.5q18 0 31.5 -13.5t13.5 -33.5q0 -18 -13.5 -31t-31.5 -13q-19 0 -32.5 13t-13.5 31z" />
    <glyph glyph-name=".null" horiz-adv-x="0" 
 />
    <glyph glyph-name="nonmarkingreturn" horiz-adv-x="333" 
 />
    <glyph glyph-name="NULL" horiz-adv-x="0" 
 />
    <glyph glyph-name="NULL" horiz-adv-x="0" 
 />
    <glyph glyph-name="CR" unicode="&#xd;" horiz-adv-x="210" 
 />
    <glyph glyph-name="space" unicode=" " horiz-adv-x="210" 
 />
    <glyph glyph-name="exclam" unicode="!" horiz-adv-x="359" 
d="M95 52q0 28 16.5 46t42.5 18t43.5 -18t17.5 -46q0 -26 -17.5 -43.5t-43.5 -17.5q-25 0 -42 17.5t-17 43.5zM323 606l-11 -32q-73 -198 -111 -367q-7 1 -17.5 4t-16.5 4q48 232 48 405q0 100 61 100q31 0 45 -16.5t14 -39.5q0 -12 -9 -48v1z" />
    <glyph glyph-name="quotedbl" unicode="&#x22;" horiz-adv-x="485" 
d="M166 425l51 300l84 -25l-100 -284zM346 425l52 300l83 -25l-100 -284z" />
    <glyph glyph-name="numbersign" unicode="#" horiz-adv-x="510" 
d="M102 508l95 -13q7 35 22.5 105.5t22.5 105.5q9 -1 23 -3.5t21 -3.5l-45 -210l105 -15l48 232q8 -1 22 -3.5t23 -3.5l-49 -231l106 -14l-7 -56l-110 15l-34 -167l92 -13l-8 -56l-96 14l-46 -225q-8 1 -22.5 2t-22.5 2l47 226l-105 15l-50 -245q-8 1 -22 2t-22 2l51 246
l-106 16l7 56l110 -15l34 166l-91 14zM230 434l-34 -166l105 -16l34 166z" />
    <glyph glyph-name="dollar" unicode="$" horiz-adv-x="596" 
d="M120 122l-28 -56l-29 6l35 209l25 -6q2 -82 30.5 -133t89.5 -79l50 247l-14 7q-70 39 -103 81.5t-33 98.5q0 21 4 40q12 61 56.5 94.5t103.5 33.5q22 0 39 -4h-1l16 -5l22 110q6 -1 17.5 -3t17.5 -4l-23 -114q52 -22 102 -77l28 36l28 -4q-5 -29 -17 -88.5t-18 -91.5
q-22 5 -23 5q-14 136 -107 187l-45 -231l27 -14q76 -39 110.5 -80.5t34.5 -93.5q0 -19 -5 -44q-13 -61 -61 -99t-114 -38q-20 0 -47 5l-17 2l-24 -120q-7 1 -18 4t-17 4l25 125q-75 29 -117 90zM446 130q7 39 -18.5 75t-102.5 85l-47 -236q4 -3 14 -3q24 -4 38 -4
q49 0 79 23.5t37 59.5zM212 548q-14 -71 99 -148l44 224l-12 4q-52 10 -87.5 -15t-43.5 -65z" />
    <glyph glyph-name="percent" unicode="%" horiz-adv-x="552" 
d="M317 578l-11 -2q-1 -81 -43 -134t-97 -53q-45 0 -74 35.5t-29 89.5q0 74 45.5 128t97.5 54q31 0 56 -18t36 -50q6 -16 26.5 -26t44.5 -10q52 0 91 33q21 65 49 65q7 0 13 -5t6 -15q0 -14 -13 -31t-29 -28l-191 -291l-215 -336q-6 4 -15 12t-12 10l224 332l142 232l-12 2
q-20 -12 -45 -12q-27 0 -45 18zM288 113q0 74 45 128.5t97 54.5q45 0 72.5 -31.5t27.5 -84.5q0 -86 -42.5 -138.5t-94.5 -52.5q-47 0 -76 34.5t-29 89.5zM448 254q-35 0 -65.5 -53.5t-30.5 -115.5q0 -29 13 -44.5t33 -15.5q36 0 66 42t30 122q0 31 -13 48t-33 17zM223 655
q-34 0 -64.5 -53.5t-30.5 -113.5q0 -63 47 -63q35 0 64.5 43t29.5 122q0 31 -13 48t-33 17z" />
    <glyph glyph-name="ampersand" unicode="&#x26;" horiz-adv-x="753" 
d="M625 108l21 -17q-76 -104 -170 -104q-59 0 -104 39q-76 -39 -157 -39q-85 0 -127 45.5t-42 117.5q0 49 19 90t56.5 72.5t74 53t89.5 45.5q13 131 62.5 210.5t130.5 79.5q48 0 77.5 -23.5t33.5 -63.5v-13q0 -26 -12 -50t-28 -40.5t-46 -35t-53 -30t-61 -28.5l-30 -13v-31
q0 -196 46 -283q78 60 142 179q13 29 -6 43.5t-68 15.5v41h251v-41q-94 -2 -138 -73q-78 -128 -160 -193q27 -27 61 -27q75 0 138 73zM277 43q33 0 68 12q-64 92 -64 269v41q-137 -79 -137 -195q0 -58 35.5 -92.5t97.5 -34.5zM477 666q-47 0 -77 -57.5t-38 -161.5
q85 38 128.5 72t43.5 80q0 31 -15 49t-42 18zM650 96l-20 17q10 13 27 41l19 -13q-13 -27 -26 -45z" />
    <glyph glyph-name="quotesingle" unicode="'" horiz-adv-x="306" 
d="M166 425l51 300l84 -25l-100 -284z" />
    <glyph glyph-name="parenleft" unicode="(" horiz-adv-x="322" 
d="M223 -214l-31 -31q-65 66 -105.5 171.5t-40.5 218.5q0 101 25 189t74 163.5t100.5 132.5t125.5 124l26 -31q-274 -264 -274 -606q0 -113 24 -190.5t76 -140.5z" />
    <glyph glyph-name="parenright" unicode=")" horiz-adv-x="322" 
d="M123 723l31 31q65 -66 105.5 -171.5t40.5 -218.5q0 -101 -25 -189.5t-74 -164t-100.5 -132t-125.5 -123.5l-26 31q274 264 274 606q0 113 -24 190.5t-76 140.5z" />
    <glyph glyph-name="asterisk" unicode="*" horiz-adv-x="476" 
d="M327 535l-2 -3q39 -38 102 -78q18 -10 18 -28q0 -16 -13.5 -28.5t-28.5 -12.5q-17 0 -27 19l-10 20q-34 66 -61 98q-14 -65 -14 -136q0 -33 -28 -33q-21 0 -33.5 15.5t0.5 37.5l17 31q27 43 45 87q-65 -18 -125 -56q-16 -8 -30.5 6t-14.5 32q0 30 31 30h11q75 0 122 10
q-41 35 -107 75q-15 7 -15 24q0 14 11.5 27t24.5 13q16 0 26 -18l16 -26q42 -66 59 -88q11 69 13 134q0 17 9 26t21 9q21 0 33 -16t-1 -40l-19 -32q-34 -57 -46 -81q71 20 125 50q22 11 34.5 0t12.5 -32q0 -16 -7.5 -26t-23.5 -9q-8 0 -32 2q-28 2 -42 2q-30 0 -51 -5z" />
    <glyph glyph-name="plus" unicode="+" horiz-adv-x="620" 
d="M570 230h-230v-230h-60v230h-230v60h230v230h60v-230h230v-60z" />
    <glyph glyph-name="comma" unicode="," horiz-adv-x="297" 
d="M59 72q0 22 14.5 36.5t37.5 14.5q28 0 50 -31t22 -78q0 -92 -67.5 -157.5t-178.5 -66.5v38q82 2 127 40t45 83q0 34 -29 71q-21 27 -21 50z" />
    <glyph glyph-name="hyphen" unicode="-" horiz-adv-x="318" 
d="M47 280h246v-66h-246v66z" />
    <glyph glyph-name="period" unicode="." horiz-adv-x="253" 
d="M41 55q0 27 17.5 45.5t42.5 18.5t42.5 -18.5t17.5 -45.5q0 -26 -17.5 -44t-42.5 -18t-42.5 18t-17.5 44z" />
    <glyph glyph-name="slash" unicode="/" horiz-adv-x="380" 
d="M498 734l-511 -857h-61q72 121 245 412t265 445h62z" />
    <glyph glyph-name="zero" unicode="0" horiz-adv-x="602" 
d="M581 492q0 -136 -43 -251.5t-121.5 -184t-175.5 -68.5q-81 0 -129.5 49.5t-48.5 154.5q0 131 49.5 249.5t130 189t166.5 70.5q73 0 122.5 -54t49.5 -155zM256 29q72 0 128 72.5t83 179t27 222.5q0 80 -25 119t-80 39q-66 0 -123 -85t-86 -195.5t-29 -203.5q0 -80 24 -114
t81 -34z" />
    <glyph glyph-name="one" unicode="1" horiz-adv-x="491" 
d="M161 613l8 38q116 7 204 39h33q-20 -94 -61.5 -288.5t-60.5 -288.5q-8 -42 18.5 -62t96.5 -21l-7 -30h-358l7 30q77 4 111.5 20.5t44.5 62.5l103 485z" />
    <glyph glyph-name="two" unicode="2" horiz-adv-x="582" 
d="M153 103v-19h216q29 0 59.5 34t48.5 86h34l-57 -204h-441q-1 8 -3 24.5t-2 23.5q4 3 9.5 7t14 9.5t14.5 9.5q45 31 77 54t87 65t93 80t77 83t59.5 90.5t20.5 87.5q0 67 -31.5 97t-78.5 30q-98 0 -149 -83l49 -82l-1 1q-5 -37 -25.5 -59.5t-45.5 -22.5q-30 0 -46 19.5
t-16 53.5q0 62 39.5 112t95 75.5t110.5 25.5q93 0 145.5 -41.5t52.5 -116.5q0 -41 -21.5 -85t-47 -76t-77 -77t-79.5 -66.5t-87 -64.5q-68 -50 -94 -71z" />
    <glyph glyph-name="three" unicode="3" horiz-adv-x="568" 
d="M351 377l2 -14q63 -7 105 -44.5t42 -104.5q0 -101 -88.5 -163.5t-228.5 -62.5q-73 0 -120 31t-47 89q0 38 20.5 65.5t46.5 27.5q30 0 44.5 -22.5t5.5 -50.5h1l-59 -68q24 -34 100 -34q56 0 105 17t85.5 61.5t36.5 110.5q0 112 -108 112q-40 0 -93 -15l-10 37
q138 45 203.5 97t65.5 125q0 92 -109 92q-71 0 -125 -42q9 -25 36 -83q-7 -24 -23.5 -40.5t-34.5 -16.5q-28 0 -44.5 14t-16.5 39q0 78 74.5 122.5t161.5 44.5q81 0 129.5 -33t48.5 -91q0 -63 -58.5 -115t-147.5 -85z" />
    <glyph glyph-name="four" unicode="4" horiz-adv-x="585" 
d="M37 211l-5 23l465 467q5 -1 13 -3t12 -2l-94 -444h108l-10 -41h-108l-16 -77q-5 -25 -5 -38q0 -39 24 -52t67 -14l-7 -30h-303l7 30q59 0 90 19.5t43 77.5l17 84h-298zM113 260l1 -8h228l60 284l-13 8z" />
    <glyph glyph-name="five" unicode="5" horiz-adv-x="574" 
d="M190 406l11 -9q83 48 156 48q67 0 114.5 -42.5t47.5 -119.5q0 -87 -49 -155.5t-125.5 -104t-162.5 -35.5q-59 0 -105.5 29.5t-46.5 81.5q0 40 21 69t50 29q49 0 51 -65l-64 -72q26 -34 109 -34q100 0 161 76.5t61 172.5q0 60 -26 87t-78 27q-87 0 -158 -64h-27l106 364
q79 -24 173 -24q106 0 180 28l-8 -33l2 1q-88 -85 -242 -85q-51 0 -98 11z" />
    <glyph glyph-name="six" unicode="6" horiz-adv-x="606" 
d="M440 701q70 0 107 -37.5t37 -87.5q0 -35 -18 -58.5t-46 -23.5q-32 0 -47 19t-7 46h-2l59 56q-17 51 -93 51q-56 0 -109.5 -53t-87.5 -122.5t-50 -138.5l13 -8q82 85 190 85q79 0 120.5 -44t41.5 -118q0 -87 -49 -153t-114.5 -96t-130.5 -30q-78 0 -130 53t-52 164
q0 128 56 244.5t141 184t171 67.5zM266 29q56 0 100 39t64.5 90t20.5 98q0 130 -95 130q-44 0 -96 -32t-93 -91q-14 -67 -14 -107q0 -127 113 -127z" />
    <glyph glyph-name="seven" unicode="7" horiz-adv-x="554" 
d="M508 593l-11 15q-43 -27 -110 -27q-17 0 -51 8q-36 8 -58 8q-49 0 -87.5 -36t-59.5 -97h-24l82 232h27l2 -27q54 32 94 32q30 0 78 -21q46 -20 82 -20q69 0 145 43l20 -29q-151 -148 -238.5 -284t-137.5 -335q-4 -14 -7 -21t-10.5 -18.5t-20.5 -17t-31 -5.5q-47 0 -47 35
q0 12 6 28q102 290 357 537z" />
    <glyph glyph-name="eight" unicode="8" horiz-adv-x="585" 
d="M406 371l-1 -8q116 -48 116 -143q0 -106 -87.5 -169t-197.5 -63q-91 0 -145 39.5t-54 108.5q0 60 55.5 113.5t134.5 81.5l2 10q-89 50 -89 150q0 84 72.5 147t167.5 63q96 0 142.5 -38t46.5 -105q0 -108 -163 -187zM358 385h3q72 34 100.5 74.5t28.5 89.5q0 51 -31 82
t-88 31q-62 0 -109.5 -43.5t-47.5 -96.5q0 -45 37.5 -81t106.5 -56zM248 29q84 0 138 45t54 103q0 48 -42.5 84t-121.5 56q-64 -19 -113 -64t-49 -107q0 -56 36.5 -86.5t97.5 -30.5z" />
    <glyph glyph-name="nine" unicode="9" horiz-adv-x="606" 
d="M213 -12q-71 0 -109.5 31t-38.5 74q0 38 18.5 65.5t42.5 27.5q33 0 49 -20.5t8 -49.5l-54 -45q21 -48 92 -48q85 0 152 93t96 221l-13 8q-82 -85 -190 -85q-77 0 -118 44.5t-41 120.5q0 119 91 197.5t201 78.5q78 0 129.5 -54t51.5 -169q0 -126 -54 -240.5t-139 -182
t-174 -67.5zM387 661q-84 0 -135 -77.5t-51 -169.5q0 -111 96 -111q44 0 96.5 32.5t92.5 90.5q13 62 13 108q0 127 -112 127z" />
    <glyph glyph-name="colon" unicode=":" horiz-adv-x="273" 
d="M41 55q0 27 17.5 45.5t42.5 18.5t42.5 -18.5t17.5 -45.5q0 -26 -17.5 -44t-42.5 -18t-42.5 18t-17.5 44zM120 378q0 26 17 45t42 19t42.5 -19t17.5 -45t-17.5 -44t-42.5 -18t-42 18t-17 44z" />
    <glyph glyph-name="semicolon" unicode=";" horiz-adv-x="337" 
d="M147 378q0 26 17 45t42 19t43 -19t18 -45t-18 -44t-43 -18t-42 18t-17 44zM70 72q0 22 15 36.5t37 14.5q28 0 50 -31t22 -78q0 -92 -67.5 -157.5t-178.5 -66.5v38q82 2 127 40t45 83q0 33 -28 71q-22 26 -22 50z" />
    <glyph glyph-name="less" unicode="&#x3c;" horiz-adv-x="594" 
d="M544 470l-428 -204l428 -204v-62l-494 235v62l494 235v-62z" />
    <glyph glyph-name="equal" unicode="=" horiz-adv-x="620" 
d="M570 310h-520v60h520v-60zM570 130h-520v60h520v-60z" />
    <glyph glyph-name="greater" unicode="&#x3e;" horiz-adv-x="594" 
d="M478 266l-428 204v62l494 -235v-62l-494 -235v62z" />
    <glyph glyph-name="question" unicode="?" horiz-adv-x="473" 
d="M103 52q0 30 17.5 46.5t41.5 16.5t42.5 -16.5t18.5 -46.5q0 -26 -17.5 -43.5t-43.5 -17.5q-25 0 -42 17.5t-17 43.5zM470 601q0 -26 -12 -50.5t-38.5 -49t-45.5 -39t-55 -39.5q-44 -30 -61 -42.5t-37 -36t-20 -44.5q0 -46 57 -46q56 0 70 69l31 -9q-28 -105 -118 -105
q-44 0 -78.5 23.5t-34.5 69.5q0 23 10 44t33 42.5t39 33.5t50 36q32 22 49.5 35.5t40 34t32.5 42t10 44.5q0 29 -17.5 47t-48.5 18q-48 0 -81.5 -40.5t-35.5 -121.5q-7 -2 -19 -4.5t-14 -3.5q-1 8 -1 22q0 87 41.5 138t114.5 51q65 0 102 -34t37 -85z" />
    <glyph glyph-name="at" unicode="@" horiz-adv-x="816" 
d="M720 390q0 28 -5 57t-19.5 62.5t-36.5 59t-59.5 42.5t-85.5 17q-98 0 -184.5 -73.5t-136 -187.5t-49.5 -232q0 -120 45 -180t127 -60q87 0 166 60l18 -35q-44 -35 -96.5 -54.5t-96.5 -19.5q-112 0 -170 76t-58 214q0 92 35 187.5t93 171.5t140.5 124.5t169.5 48.5
q121 0 193 -76.5t72 -201.5q0 -68 -21.5 -127.5t-54.5 -99.5t-73 -69t-76.5 -42.5t-64.5 -13.5q-33 0 -33 40q0 32 23 86l-19 14q-21 -30 -35.5 -48.5t-38 -43.5t-47.5 -37.5t-47 -12.5q-28 0 -42.5 24t-14.5 56q0 78 59 183q46 76 106.5 128t112.5 52q24 0 37 -28h15
q6 16 12.5 21.5t24.5 5.5q17 0 22.5 -3t3.5 -10l-108 -331q-5 -20 -1 -28t18 -8q18 0 47 20t59.5 55t52 93t21.5 124zM309 149q0 -28 7.5 -37t21.5 -9q35 0 97 79.5t105 183.5q9 74 -34 74q-31 0 -72 -37.5t-71 -86.5q-54 -102 -54 -167z" />
    <glyph glyph-name="A" unicode="A" horiz-adv-x="720" 
d="M476 77l-22 128h-257l-71 -125q-6 -12 -6 -20.5t11 -14t30 -7.5t50 -2l-8 -36h-233l8 36q40 1 65.5 14.5t46.5 48.5q65 113 190.5 327t160.5 275h15l113 -608q8 -39 22.5 -48t64.5 -9l-8 -36h-280l8 36h22q57 0 69.5 6.5t8.5 34.5zM395 534l-10 1q-22 -38 -69.5 -121.5
t-72.5 -126.5l-22 -39h224z" />
    <glyph glyph-name="B" unicode="B" horiz-adv-x="657" 
d="M457 364l-2 -5q67 -7 105 -46t38 -101q0 -71 -41.5 -120.5t-100 -70.5t-125.5 -21h-348l8 36q61 0 85 14t35 68l95 448q6 30 6 47q0 29 -17.5 36t-72.5 7q1 5 4 17.5t4 17.5h324q77 0 125 -36t48 -103q0 -63 -46 -117t-124 -71zM260 374h105q45 0 79 18t51 46t24.5 53.5
t7.5 47.5q0 57 -35.5 87t-95.5 30h-77zM188 36h100q99 -3 154.5 43t55.5 125q0 64 -38.5 98.5t-102.5 34.5h-106z" />
    <glyph glyph-name="C" unicode="C" horiz-adv-x="684" 
d="M623 626l10 2l35 63h28l-51 -258h-32q4 95 -28.5 161t-111.5 66q-82 0 -152 -59t-110.5 -157t-40.5 -209q0 -205 175 -205q161 0 247 192h36l-61 -179l3 1q-44 -25 -108.5 -40.5t-128.5 -15.5q-126 0 -196 68t-70 189q0 94 35.5 179.5t93 145.5t132 95.5t149.5 35.5
q43 0 83 -20t63 -55z" />
    <glyph glyph-name="D" unicode="D" horiz-adv-x="761" 
d="M736 424q0 -190 -124.5 -307t-319.5 -117h-309l8 36q68 2 86 7.5t24 28.5q19 92 58 276t58 275q1 4 1 11q0 15 -17.5 18.5t-78.5 3.5q1 5 4 17.5t4 17.5h307q82 0 142.5 -23t93.5 -62t48 -84.5t15 -97.5zM188 36h110q73 2 131 27.5t95 66t61.5 93.5t34.5 105.5t10 106.5
q0 103 -55 162t-175 59h-81z" />
    <glyph glyph-name="E" unicode="E" horiz-adv-x="661" 
d="M619 244l-65 -244h-571l8 36q66 0 85 5t24 26l117 556q4 20 -15 26.5t-80 6.5q1 5 4 17.5t4 17.5h541q-6 -36 -18 -107t-17 -107h-29q1 13 1 34q0 81 -25.5 113t-90.5 32h-173l-63 -297h80q107 0 135 138h24l-66 -310h-24q8 37 8 67q0 39 -20.5 52.5t-71.5 13.5h-74
l-59 -284h197q74 0 130 64t73 144h31z" />
    <glyph glyph-name="F" unicode="F" horiz-adv-x="597" 
d="M622 457h-30q2 26 2 37q0 162 -136 162h-139l-63 -297h85q92 0 120 138h24l-66 -310h-24q8 38 8 63q0 70 -71 70h-85q-4 -20 -44 -212q-9 -45 11 -58.5t86 -13.5l-8 -36h-309l8 36q70 0 88.5 11.5t29.5 61.5l99 466q4 17 4 35q0 29 -19 37.5t-71 8.5q1 5 4 17.5t4 17.5
h535q-7 -39 -21.5 -117t-21.5 -117z" />
    <glyph glyph-name="G" unicode="G" horiz-adv-x="727" 
d="M627 226l-51 -231h-16l-35 88q-90 -95 -208 -95q-103 0 -176.5 64.5t-73.5 179.5q0 108 37.5 199.5t97.5 149t130 89t139 31.5q100 0 160 -71h13l36 56h26q-8 -40 -23.5 -119.5t-23.5 -119.5h-26q-2 53 -18.5 99t-55.5 80t-94 34q-84 0 -152.5 -65t-104.5 -161.5
t-36 -199.5q0 -98 43 -151.5t123 -53.5q101 0 173 98l21 98q0 1 0.5 3.5t0.5 3.5q3 12 3 22q0 24 -16.5 29.5t-70.5 5.5l7 30h273l-7 -30q-55 0 -70 -10t-25 -53z" />
    <glyph glyph-name="H" unicode="H" horiz-adv-x="799" 
d="M716 0h-302l8 36q69 3 88.5 10.5t25.5 40.5l52 247h-338l-52 -247q-6 -33 12 -42t81 -9l-8 -36h-300l8 36q59 0 82.5 10t30.5 41l110 517q6 32 -16 42t-76 10q1 5 4 17.5t4 17.5h299q-1 -5 -4 -17t-4 -18q-59 0 -81.5 -9t-30.5 -43l-48 -227h337l49 227q6 34 -12.5 43
t-81.5 9q1 6 4 18t4 17h302q-1 -5 -4 -17t-4 -18q-63 0 -85.5 -10t-29.5 -42l-110 -517q-7 -34 10 -42.5t84 -8.5z" />
    <glyph glyph-name="I" unicode="I" horiz-adv-x="379" 
d="M437 691l-8 -35q-70 0 -88.5 -7t-23.5 -35l-114 -532q-6 -32 8.5 -39t86.5 -7l-8 -36h-301l8 36q64 0 85 8.5t27 37.5l113 532q7 29 -9 35.5t-85 6.5q1 5 4 17.5t4 17.5h301z" />
    <glyph glyph-name="J" unicode="J" horiz-adv-x="543" 
d="M618 691l-7 -35q-63 0 -87 -16t-36 -74l-80 -372q-11 -58 -39.5 -100.5t-64 -64t-69.5 -31.5t-65 -10q-68 0 -113 33.5t-45 98.5q0 49 25 82.5t59 33.5q24 0 40.5 -14.5t16.5 -38.5q0 -17 -4 -34l-93 -56q0 -33 27.5 -51.5t76.5 -18.5q120 0 154 165q13 64 40 192t39 185
q6 24 6 44q0 29 -18.5 39.5t-70.5 7.5q1 5 4 17.5t4 17.5h300z" />
    <glyph glyph-name="K" unicode="K" horiz-adv-x="723" 
d="M586 574l-192 -171l186 -315q16 -28 35 -39.5t53 -12.5l-8 -36h-271l8 36q51 2 67 12.5t0 40.5l-142 249l-87 -76l-31 -148q-5 -22 -5 -37q0 -26 18.5 -33.5t70.5 -7.5l-8 -36h-297l8 36q70 0 89 13t30 65l99 467q4 16 4 34q0 28 -18 34.5t-73 6.5q1 5 4 17.5t4 17.5h299
q-1 -5 -4 -17t-4 -18q-61 0 -84 -14t-33 -61l-54 -253h12l286 257v-1q30 24 30 42q0 13 -15 21t-40 8l8 36h249q-1 -6 -4.5 -17.5t-4.5 -18.5q-99 -10 -185 -81z" />
    <glyph glyph-name="L" unicode="L" horiz-adv-x="602" 
d="M571 239l-63 -239h-524l8 36q57 0 81.5 9t30.5 37l113 533q5 27 -11 34t-83 7q1 5 4 17.5t4 17.5h311q-1 -5 -4 -17t-4 -18q-78 0 -97.5 -7t-24.5 -33l-123 -580h138q76 0 132 54t76 149h36z" />
    <glyph glyph-name="M" unicode="M" horiz-adv-x="884" 
d="M251 546h-15l-90 -425q-8 -38 15 -60.5t68 -24.5l-8 -36h-238l8 36q43 2 78 25t42 58l104 494q-8 24 -29.5 33.5t-63.5 9.5q1 5 4 17.5t4 17.5h186l100 -542l342 542h188q-1 -5 -4 -17t-4 -18q-65 -1 -87 -15t-32 -57l-98 -459q-6 -29 -6 -47q0 -28 17.5 -35t71.5 -7
l-8 -36h-293l8 36q64 0 84.5 15t33.5 74l87 411h-12l-341 -543h-12z" />
    <glyph glyph-name="N" unicode="N" horiz-adv-x="752" 
d="M242 556h-12l-98 -465q-6 -33 19.5 -44t88.5 -11l-8 -36h-252l8 36q49 0 74 10.5t33 44.5l108 511q-17 28 -35 40.5t-54 13.5q1 5 4 17.5t4 17.5h151l302 -532h12l93 445q4 25 -24 38t-88 14q1 6 4 18t4 17h246q-1 -5 -4 -17t-4 -18q-51 -1 -71.5 -13t-26.5 -39
q-25 -121 -75 -352t-57 -262h-22z" />
    <glyph glyph-name="O" unicode="O" horiz-adv-x="751" 
d="M726 433q0 -97 -37.5 -182.5t-96.5 -142t-130 -88.5t-140 -32q-114 0 -184.5 72.5t-70.5 193.5q0 96 36 181t94 142.5t131 90.5t147 33q111 0 181 -74t70 -194zM332 30q72 0 130.5 43.5t93 111t52.5 141t18 141.5q0 93 -42 143t-119 50q-86 0 -155 -63t-105 -160
t-36 -206q0 -201 163 -201z" />
    <glyph glyph-name="P" unicode="P" horiz-adv-x="623" 
d="M632 542q1 -61 -25.5 -107.5t-71 -71t-93.5 -36.5t-101 -12h-95l-40 -190q-7 -35 -7 -48q0 -25 20 -33t78 -8l-8 -36h-306l8 36q69 0 88.5 14.5t32.5 74.5l99 466q3 17 3 28q0 25 -18 31t-74 6q1 5 4 17.5t4 17.5h301q39 0 72.5 -7.5t63.5 -23.5t47.5 -46t17.5 -72z
M319 656l-64 -301h84q80 0 134.5 46t54.5 136q0 58 -35 88.5t-95 30.5h-79z" />
    <glyph glyph-name="Q" unicode="Q" horiz-adv-x="751" 
d="M725 433q0 -131 -70.5 -239t-174.5 -165q-6 -64 -6 -84q0 -88 45 -88q58 0 85 123h26q-30 -176 -144 -176q-105 0 -105 130q0 23 5 60q-27 -6 -50 -6q-131 0 -200 71t-69 195q0 96 36.5 181t94.5 142.5t130.5 90.5t145.5 33q111 0 181 -74t70 -194zM373 251
q105 0 110 -161q63 67 103.5 170t40.5 201q0 93 -42 146t-121 53q-70 0 -128 -38t-94 -101t-55.5 -139.5t-19.5 -157.5q0 -124 85 -175q-7 32 -7 52q0 52 37 101t91 49zM356 30q22 0 38 5q14 80 14 112q0 73 -44 73q-38 0 -60.5 -42.5t-22.5 -83.5q0 -35 8 -57q29 -7 67 -7z
" />
    <glyph glyph-name="R" unicode="R" horiz-adv-x="683" 
d="M261 375h94q72 0 125 49.5t53 123.5q0 58 -31.5 83t-97.5 25h-85zM445 158q10 40 10 71q0 61 -37 85t-105 24h-62l-53 -251q-7 -34 10.5 -42.5t86.5 -8.5l-8 -36h-304l8 36q63 2 84.5 10.5t28.5 40.5l112 531q5 25 -11.5 31.5t-82.5 6.5q1 5 4 17.5t4 17.5h316
q182 0 184 -144q0 -76 -64 -128t-138 -61l-2 -11q61 -10 90.5 -36t29.5 -87q0 -35 -8 -74q-11 -61 -11 -78q0 -35 30 -35q22 0 45 32.5t27 92.5q5 0 10.5 -0.5t9.5 -0.5q-10 -95 -39.5 -131.5t-75.5 -36.5q-45 0 -70.5 29.5t-25.5 80.5q0 27 7 55z" />
    <glyph glyph-name="S" unicode="S" horiz-adv-x="586" 
d="M84 65l-30 -65h-34l52 276h30v-22q0 -116 41.5 -171.5t135.5 -55.5q83 0 129.5 42t46.5 94q0 48 -42.5 82.5t-143.5 70.5q-153 55 -153 171q0 94 72 154t163 60q94 0 169 -67q3 5 15.5 28t17.5 33h31q-9 -42 -27 -127t-26 -128h-26q-6 116 -45.5 169.5t-116.5 53.5
q-64 0 -106 -40.5t-42 -86.5q0 -48 43 -83t135 -67q158 -58 158 -173q0 -92 -76.5 -158.5t-182.5 -66.5q-65 0 -113.5 24t-74.5 53z" />
    <glyph glyph-name="T" unicode="T" horiz-adv-x="644" 
d="M656 443h-27q8 37 8 76q0 64 -30 100.5t-87 36.5h-61l-123 -579q-6 -27 12.5 -34t65.5 -7h17l-9 -36h-301l8 36h9q45 0 70 7.5t32 33.5l123 579h-45q-72 0 -132.5 -58t-80.5 -155h-31q47 212 54 248h581q-9 -41 -27 -124t-26 -124z" />
    <glyph glyph-name="U" unicode="U" horiz-adv-x="747" 
d="M814 656h-1q-98 -1 -107 -45l-69 -330q-33 -140 -107.5 -216.5t-207.5 -76.5q-212 0 -212 163q0 32 9 73l82 390q5 29 -8 35.5t-78 6.5q1 5 4 17.5t4 17.5h287q-1 -5 -4 -17t-4 -18q-63 0 -81.5 -7t-23.5 -35l-83 -390q-7 -32 -7 -63q0 -67 37.5 -100t101.5 -33
q50 0 90 15t65.5 38t45 58.5t29.5 67.5t19 74l70 330q5 24 -19 34.5t-90 10.5q1 6 4 18t4 17h257z" />
    <glyph glyph-name="V" unicode="V" horiz-adv-x="708" 
d="M358 165h16l19 30l214 348q21 36 21 63q0 50 -75 50q1 6 4 18t4 17h225q-1 -5 -4 -17t-4 -18q-40 -2 -67 -28t-63 -85l-337 -559h-17l-106 593q-10 49 -23 63.5t-59 15.5q1 5 4 17.5t4 17.5h257q-1 -5 -4 -17.5t-4 -17.5q-82 -1 -82 -44q0 -16 6 -36v1z" />
    <glyph glyph-name="W" unicode="W" horiz-adv-x="977" 
d="M664 173l9 -2l204 372q21 37 21 64q0 52 -75 49q1 6 4 18t4 17h225q-1 -5 -4 -17t-4 -18q-41 -1 -68.5 -26t-61.5 -87l-302 -559h-18l-55 464l-267 -464h-14l-71 593q-9 46 -27 62t-58 17q1 5 4 17.5t4 17.5h260q-1 -5 -4 -17.5t-4 -17.5q-54 1 -68.5 -18t-10.5 -61
l45 -418l205 347l-8 71q-5 53 -19 66t-65 13q1 6 4 18t4 17h259q-1 -5 -4 -17t-4 -18q-30 0 -47.5 -4t-24 -12t-8 -20.5t0.5 -28.5q0 -2 0.5 -6.5t0.5 -7.5z" />
    <glyph glyph-name="X" unicode="X" horiz-adv-x="716" 
d="M648 0h-307l8 37q83 1 83 41q0 14 -11 41l-75 179l-173 -179h1q-27 -25 -27 -46q0 -35 65 -37l-8 -36h-236l8 36q34 2 72.5 24t64.5 50l218 224l-99 240q-18 47 -42 64t-73 18q1 5 4 17.5t4 17.5h292q-1 -5 -4 -17t-4 -18q-44 -1 -63.5 -11t-19.5 -31q0 -18 9 -38
l74 -181l158 175q32 37 32 55q0 30 -69 31q1 6 4 18t4 17h247q-1 -5 -4 -17t-4 -18q-83 -4 -144 -69l-210 -226l95 -230q21 -51 53 -72.5t85 -22.5z" />
    <glyph glyph-name="Y" unicode="Y" horiz-adv-x="684" 
d="M762 691l-7 -35h-1q-70 -1 -134 -81l-203 -265l-39 -185q-6 -25 -6 -44q0 -29 19.5 -37t72.5 -8l-8 -36h-300l8 36q70 0 88 14t32 75l39 182l-104 258q-27 57 -45.5 73.5t-66.5 17.5q1 5 4 17.5t4 17.5h284q-1 -5 -4 -17t-4 -18q-89 0 -89 -37q0 -16 11 -35h-1l91 -233
l177 232q15 23 15 40q0 30 -46 33q1 6 4 18t4 17h205z" />
    <glyph glyph-name="Z" unicode="Z" horiz-adv-x="636" 
d="M-16 0l4 21l558 629l-2 6h-182q-80 0 -140.5 -62t-89.5 -150h-30q11 41 30.5 123.5t30.5 123.5h530l-4 -19l-563 -628l1 -6h209q70 0 130 58.5t100 172.5h31q-12 -46 -38.5 -138.5t-36.5 -130.5h-538z" />
    <glyph glyph-name="bracketleft" unicode="[" horiz-adv-x="335" 
d="M405 737l-10 -44q-36 -7 -95 -7q-31 0 -56 4l-182 -863q18 2 42 2q70 0 116 -6l-11 -47q-41 6 -113 6q-71 0 -110 -5l199 959q52 -5 117 -5q67 0 103 6z" />
    <glyph glyph-name="backslash" unicode="\" horiz-adv-x="419" 
d="M288 -123l-155 857h56q24 -137 76.5 -423t78.5 -434h-56z" />
    <glyph glyph-name="bracketright" unicode="]" horiz-adv-x="335" 
d="M-52 -224l10 44q36 7 95 7q33 0 56 -4l182 863q-18 -2 -42 -2q-69 0 -116 6l11 47q41 -6 113 -6q71 0 110 5l-199 -959q-43 4 -117 4q-73 0 -103 -5z" />
    <glyph glyph-name="asciicircum" unicode="^" horiz-adv-x="544" 
d="M286 691l221 -377l-58 -33l-172 300h-8l-175 -300l-57 33l222 377h27z" />
    <glyph glyph-name="underscore" unicode="_" horiz-adv-x="604" 
d="M-79 -195h603v-48h-603v48z" />
    <glyph glyph-name="grave" unicode="`" horiz-adv-x="500" 
d="M292 506v-5h-37l-113 162l1 -1v8h82z" />
    <glyph glyph-name="a" unicode="a" horiz-adv-x="535" 
d="M344 183h-24q-91 -195 -174 -195q-50 0 -79.5 37.5t-29.5 98.5q0 147 69.5 256.5t167.5 109.5q31 0 54.5 -27.5t33.5 -77.5l42 95h63l-79 -348q-6 -25 -6 -47q0 -51 35 -51q62 0 70 129q5 -1 13 -1h12q-9 -86 -35.5 -127.5t-75.5 -41.5q-79 0 -79 84q0 41 22 106zM168 42
q48 0 101.5 93t76.5 212q-14 112 -72 112q-53 0 -100.5 -102.5t-47.5 -242.5q0 -72 42 -72z" />
    <glyph glyph-name="b" unicode="b" horiz-adv-x="501" 
d="M110 63l-11 1q-3 -10 -17 -40l-15 -36h-38l26 116l95 518q3 27 3 29q0 28 -16 40.5t-56 13.5v27l135 10h39l-23 -109q-13 -60 -37 -162q-21 -84 -38 -164l18 -3q84 186 174 186q55 0 85 -40t30 -114q0 -87 -31 -167t-87 -130.5t-123 -50.5q-83 0 -113 75zM372 345
q0 107 -47 107q-46 0 -103.5 -108t-93.5 -240q3 -33 28 -58t59 -25q54 0 105.5 91.5t51.5 232.5z" />
    <glyph glyph-name="c" unicode="c" horiz-adv-x="409" 
d="M271 454q-56 0 -97.5 -74.5t-47.5 -208.5q-8 -142 72 -142q45 0 85.5 41.5t61.5 90.5q7 -5 23 -13q-32 -65 -80 -112.5t-107 -47.5q-154 0 -144 185q7 132 82.5 224.5t167.5 92.5q46 0 75 -33t26 -83q-1 -27 -22 -43.5t-52 -20.5v37q0 107 -43 107z" />
    <glyph glyph-name="d" unicode="d" horiz-adv-x="542" 
d="M342 182l-19 1q-37 -89 -84 -142t-90 -53q-51 0 -81.5 34.5t-30.5 101.5q0 151 72 258.5t170 107.5q28 0 51 -25t29 -65h16q4 25 22 136q4 29 17 104q6 37 -12 51.5t-60 15.5v25l141 10h35l-38 -169q-41 -184 -76 -403l-12 -73q-4 -28 7.5 -45.5t28.5 -17.5q27 0 46 35.5
t22 93.5q5 -1 12.5 -1h11.5q-6 -77 -35.5 -123t-69.5 -46q-85 0 -85 97q0 41 12 92zM126 109q0 -72 46 -72q43 0 99 95.5t80 214.5q-21 111 -72 111q-55 0 -104 -103.5t-49 -245.5z" />
    <glyph glyph-name="e" unicode="e" horiz-adv-x="425" 
d="M400 389q0 -115 -272 -224q-5 -71 24 -103.5t71 -32.5q40 0 82 40t65 86q5 -4 11.5 -7.5t10.5 -6.5q-33 -63 -81.5 -108t-108.5 -45q-164 0 -164 187q0 135 74.5 225t169.5 90q56 0 87 -27t31 -74zM323 405q0 51 -52 51q-57 0 -99 -78t-45 -185q103 46 149.5 97.5
t46.5 114.5z" />
    <glyph glyph-name="f" unicode="f" horiz-adv-x="342" 
d="M56 418l7 45h93l9 102q9 85 56.5 136t107.5 51q61 0 97.5 -29.5t36.5 -70.5q0 -32 -17 -53t-47 -22q-8 146 -64 146q-31 0 -55 -43.5t-33 -125.5l-9 -91h109q-1 -7 -4 -22t-4 -23h-106q-24 -192 -52 -323.5t-58 -199.5t-59 -95t-64 -27q-39 0 -63.5 17t-24.5 52
q0 27 16 46t40 21q11 -72 52 -103q78 86 131 612h-95z" />
    <glyph glyph-name="g" unicode="g" horiz-adv-x="455" 
d="M247 490q67 0 116 -41l64 38h43q-2 -6 -13 -57h-77q21 -33 21 -73q0 -77 -43 -122t-104 -57q-53 -10 -80.5 -30t-47.5 -51l45 -14q39 -12 57.5 -17.5t49 -16t44 -16.5t34 -15.5t29.5 -17.5t19 -18.5t13.5 -22t3.5 -24.5q0 -64 -69.5 -113t-175.5 -49q-82 0 -139 27.5
t-57 80.5q0 41 41 74.5t97 57.5v13q-42 29 -42 74l-1 -1q22 42 86 77v12q-45 15 -71 46t-26 73q0 70 54 126.5t129 56.5zM349 -95q0 21 -18.5 36.5t-62.5 29.5l-112 34q-57 -20 -85.5 -54t-28.5 -63q0 -43 42.5 -63.5t107.5 -20.5q70 0 113.5 29t43.5 72zM320 343
q0 56 -21 85.5t-58 29.5q-45 0 -70.5 -41t-25.5 -113q0 -95 78 -95q39 0 68 34t29 100z" />
    <glyph glyph-name="h" unicode="h" horiz-adv-x="539" 
d="M119 17l-27 -17h-59l130 640q8 37 -13 51.5t-69 15.5v25l149 10h36l-45 -190l-58 -225l16 -11q34 67 83.5 120.5t95.5 53.5q92 0 92 -104q0 -49 -39 -183q-28 -84 -28 -123q0 -45 35 -45q27 1 49 34.5t28 91.5q5 0 11.5 -0.5t10.5 -0.5q-8 -73 -38.5 -120t-77.5 -47
q-91 0 -91 94q0 43 23 135v-1q32 124 32 167t-22 61q-48 0 -104 -84.5t-86 -172.5z" />
    <glyph glyph-name="i" unicode="i" horiz-adv-x="320" 
d="M227 358l-65 -251q-7 -30 5.5 -53t30.5 -20q19 3 40 35.5t23 92.5q5 0 13.5 -0.5t12.5 -0.5q-14 -91 -39.5 -129.5t-75.5 -38.5q-42 0 -64.5 28t-22.5 72q0 21 6 43q6 24 61 233q3 11 3 32q0 47 -20 47q-53 0 -81 -135q-5 1 -11.5 3t-9.5 3q13 73 46 122t74 49
q40 0 59.5 -25.5t19.5 -65.5q0 -19 -5 -41zM171 667q0 28 15.5 47t38.5 19q24 0 39.5 -18.5t15.5 -47.5q0 -26 -15.5 -44t-39.5 -18q-23 0 -38.5 18t-15.5 44z" />
    <glyph glyph-name="j" unicode="j" horiz-adv-x="318" 
d="M22 -198q35 0 53 36.5t38 142.5l75 384q4 24 4 34q0 40 -32 40q-27 0 -52 -32t-33 -89l-22 6q6 28 11 47t15.5 43.5t22.5 39.5t32 25.5t44 10.5q49 0 72.5 -32t17.5 -78l-75 -401q-17 -94 -61.5 -149.5t-112.5 -56.5q-43 0 -75.5 20t-32.5 59q0 49 68 61q-6 -111 43 -111
zM192 667q0 29 15 47.5t38 18.5q24 0 39.5 -18.5t15.5 -47.5q0 -26 -15.5 -44t-39.5 -18q-23 0 -38 18t-15 44z" />
    <glyph glyph-name="k" unicode="k" horiz-adv-x="513" 
d="M121 23l-39 -23h-42l120 629q3 17 3 30q0 27 -15.5 40t-55.5 12v23l108 8h64l-42 -182l-48 -255h16q39 72 95.5 128.5t112.5 56.5q41 0 62 -22t21 -56q0 -87 -200 -171l-20 -8v-6q36 -16 81 -102q13 -25 20 -36.5t18 -23t22 -11.5q38 0 70 91l20 -3q-47 -149 -115 -149
q-57 0 -111 112q-37 78 -69 98l17 38l-3 -1q192 77 192 168q0 41 -35 41t-97.5 -77t-119.5 -192z" />
    <glyph glyph-name="l" unicode="l" horiz-adv-x="289" 
d="M279 742l-147 -654q-4 -22 4 -37.5t22 -15.5t24 3.5t22.5 15.5t21.5 39.5t14 70.5l25 -4q-12 -80 -40 -123.5t-86 -43.5q-80 0 -80 84q0 24 10 67l107 496q6 37 -11.5 51.5t-59.5 15.5v25l145 10h29z" />
    <glyph glyph-name="m" unicode="m" horiz-adv-x="827" 
d="M414 16l-29 -16h-59l8 30q28 105 46 195q15 75 15 133q0 67 -23 91q-48 0 -96.5 -75.5t-82.5 -180.5l-39 -171l-35 -22h-53q13 64 76 370q3 21 3 30q0 50 -28 50q-24 0 -43.5 -37.5t-31.5 -100.5q-5 1 -11.5 3t-9.5 3q12 65 42 118.5t65 53.5q73 0 73 -93q0 -58 -29 -138
h19q37 93 90.5 162t98.5 69q42 0 63.5 -38t21.5 -91q0 -26 -7 -53h17q41 81 87 131.5t85 50.5q92 0 92 -117q0 -67 -33 -164q-28 -87 -28 -133q0 -47 31 -47q28 0 49.5 38t25.5 103l12.5 -2.5t10.5 -1.5q0 -69 -29 -121t-74 -52q-55 0 -78 26t-23 73q0 46 24 135l12 42
q22 72 22 114q0 43 -26 66q-41 0 -92.5 -73.5t-92.5 -189.5l-19 -93z" />
    <glyph glyph-name="n" unicode="n" horiz-adv-x="572" 
d="M154 21l-40 -21h-47l76 370q4 26 4 39q0 40 -28 40q-21 0 -44 -36.5t-33 -101.5l-20 3q12 78 40 127t74 49q71 0 71 -88q0 -49 -24 -121h20q37 82 89 145.5t98 63.5q89 0 89 -110q0 -62 -32 -171q-28 -98 -28 -134q0 -46 34 -46q28 0 51 45t24 89q14 -2 23 -2
q-6 -68 -33.5 -118t-79.5 -50q-95 0 -95 103q0 42 17 102q38 132 38 189q0 43 -19 62q-35 0 -75 -46.5t-68 -102.5t-47 -112z" />
    <glyph glyph-name="o" unicode="o" horiz-adv-x="470" 
d="M435 307q0 -124 -68 -221.5t-166 -97.5q-79 0 -124 46t-45 132q0 129 73.5 226.5t167.5 97.5q77 0 119.5 -50.5t42.5 -132.5zM348 330v18q0 105 -71 105q-49 0 -86 -49.5t-54 -120t-17 -146.5q0 -113 77 -113q47 0 81.5 51t50 117t19.5 138z" />
    <glyph glyph-name="p" unicode="p" horiz-adv-x="529" 
d="M400 360q0 89 -48 89q-38 0 -96 -101.5t-94 -258.5q9 -28 33.5 -46t57.5 -18q55 0 101 89.5t46 245.5zM107 -198l-40 -19h-42l117 578q5 27 5 45q0 42 -24 42q-19 0 -39.5 -35t-35.5 -102l-25 3q24 87 48.5 131.5t57.5 44.5q75 0 75 -85q0 -32 -11 -78h21q77 163 159 163
q56 0 87.5 -38t31.5 -111q0 -85 -29 -165.5t-84 -134t-120 -53.5q-69 0 -107 54z" />
    <glyph glyph-name="q" unicode="q" horiz-adv-x="494" 
d="M124 121q0 -43 13.5 -66t35.5 -23q37 0 91.5 83.5t93.5 221.5q-7 52 -26 86.5t-46 34.5q-58 0 -110 -99.5t-52 -237.5zM360 -191l-36 -26h-49l73 400h-18q-85 -195 -175 -195q-56 0 -87 37t-31 92q0 151 76 262t173 111q30 0 53 -27t31 -72h12q20 40 48 89h35
q-2 -19 -8.5 -57t-8.5 -57z" />
    <glyph glyph-name="r" unicode="r" horiz-adv-x="424" 
d="M163 22l-33 -22h-55l68 365q4 23 4 43q0 40 -19 40q-25 0 -49.5 -39t-33.5 -95q-5 1 -11.5 3t-9.5 3q8 72 41 121t89 49q57 0 57 -71q0 -47 -31 -142l32 -2q58 215 141 215q30 0 49 -21t19 -57q0 -34 -20.5 -56t-57.5 -23q4 28 4 56q0 55 -22 55q-32 0 -76 -114t-86 -308
z" />
    <glyph glyph-name="s" unicode="s" horiz-adv-x="385" 
d="M22 67q0 31 18 51.5t46 22.5q-2 -59 13 -89.5t57 -30.5q36 0 60 25.5t24 58.5q0 21 -11.5 42t-23.5 33.5t-36 34.5q-24 21 -37.5 36.5t-26.5 43t-13 57.5q0 55 44 96.5t113 41.5q48 0 83 -26.5t35 -64.5q0 -29 -15.5 -46.5t-42.5 -19.5q0 125 -65 125q-32 0 -54.5 -22
t-22.5 -59q0 -21 12 -42.5t24 -34t35 -33.5q25 -22 38 -35.5t26.5 -40t13.5 -55.5q0 -64 -50.5 -106t-122.5 -42q-52 0 -86.5 22t-34.5 57zM86 143l5 -2h-5v2z" />
    <glyph glyph-name="t" unicode="t" horiz-adv-x="336" 
d="M169 585l54 60h42l-42 -182h124q-1 -7 -4 -22t-4 -23h-127l-69 -296q-6 -30 -6 -43q0 -45 35 -45q27 0 51.5 36.5t29.5 96.5q6 0 15.5 -0.5t14.5 -0.5q-25 -173 -127 -173q-93 0 -93 98q0 23 6 52l62 275h-75l8 45h78z" />
    <glyph glyph-name="u" unicode="u" horiz-adv-x="565" 
d="M356 158l-15 3q-38 -75 -84.5 -124t-82.5 -49q-43 0 -69 32.5t-26 87.5q0 48 38 175l3 9q26 87 26 117q0 41 -31 41q-23 0 -44 -37.5t-32 -97.5q-4 1 -9.5 1h-7.5q34 174 106 174q88 0 88 -96q0 -46 -23 -128q-36 -124 -36 -179q0 -44 23 -63q34 0 73.5 48t67.5 106
t46 114q11 46 35 165q0 4 2 12t3 11h85l-78 -368q-4 -22 -4 -32q0 -44 36 -44q29 0 50 34.5t30 94.5q10 -2 17 -2q-8 -76 -36 -123t-76 -47q-82 0 -82 102q0 32 7 63z" />
    <glyph glyph-name="v" unicode="v" horiz-adv-x="490" 
d="M235 410l-26 -314q-2 -25 14 -36q79 45 126 119t47 168q0 52 -12 93v-1q-7 34 5 57l50 14q23 -4 29 -52q8 -150 -88 -289.5t-235 -180.5q-24 2 -21 39l28 373l-7 16q-52 7 -71.5 -8t-29.5 -78l-19 4q9 74 30.5 108t82.5 34q29 0 55 -5l43 -62z" />
    <glyph glyph-name="w" unicode="w" horiz-adv-x="735" 
d="M480 461l-30 -365q-2 -25 14 -36q81 45 129.5 119t48.5 168q0 52 -12 93v-1q-7 34 5 57l50 14q23 -4 29 -52q7 -150 -90 -289t-238 -181q-24 2 -21 39l10 137q-47 -64 -108 -110.5t-123 -65.5q-24 2 -21 39l28 373l-7 16q-52 7 -71.5 -8t-29.5 -78l-19 4q9 74 30.5 108
t82.5 34q29 0 55 -5l43 -62l-1 1l-26 -314q0 -26 15 -36q57 34 99.5 84.5t59.5 113.5l15 201q0 8 49 8q32 0 34 -6z" />
    <glyph glyph-name="x" unicode="x" horiz-adv-x="513" 
d="M167 490q38 0 64.5 -26t34.5 -69l16 -101l84 137q35 59 83 59q24 0 38 -14.5t14 -39.5q0 -58 -44 -69q-8 47 -49 77l-119 -188l24 -140q7 -42 15.5 -59t28.5 -17q29 0 49 39.5t26 100.5l27 -4q-13 -96 -42 -139.5t-81 -43.5q-29 0 -58.5 23.5t-36.5 76.5l-16 97l-92 -152
q-31 -45 -75 -45q-24 0 -40 13t-16 35q0 45 39 64q13 -44 59 -61l119 183l-24 144q-12 70 -46 70q-50 0 -78 -123h-12t-11 1q16 83 47 127t72 44z" />
    <glyph glyph-name="y" unicode="y" horiz-adv-x="514" 
d="M356 158l-15 3q-38 -75 -84.5 -124t-82.5 -49q-90 0 -90 117q0 66 32 176q0 3 2.5 9t3.5 9q24 72 24 107q0 39 -31 39q-23 0 -44 -36.5t-32 -93.5q-4 1 -9.5 1h-7.5q34 174 106 174q90 0 90 -100q0 -42 -22 -124q-36 -124 -36 -175q0 -40 20 -67q34 0 73.5 48t67.5 106
t46 114q11 46 35 165q0 4 2 12t3 11h85q-15 -73 -43.5 -208.5t-34.5 -164.5v1q-21 -80 -51 -141t-61 -97t-67.5 -58.5t-67 -30.5t-62.5 -8q-31 0 -56 17.5t-25 48.5q0 24 15.5 40.5t41.5 18.5q12 -58 56 -88q66 0 119 77t100 271z" />
    <glyph glyph-name="z" unicode="z" horiz-adv-x="439" 
d="M361 406l-11 9l-100 -42l-8 4q-52 25 -89 25q-26 0 -46 -28.5t-24 -64.5q-4 1 -11 2.5t-10 1.5q10 75 44.5 126t82.5 51q31 -1 53.5 -11t70.5 -39q59 2 97 47l37 -29l-188 -213l-143 -152l10 -8q11 3 25.5 7t31.5 9t25 7q13 -17 38 -29.5t45 -12.5q32 0 54 25.5t31 59.5
q5 -1 10.5 -3t9.5 -3q-20 -73 -54 -115t-77 -42q-56 0 -126 63q-55 -3 -104 -60l-10 8t-11 9t-10 8l217 239z" />
    <glyph glyph-name="braceleft" unicode="{" horiz-adv-x="435" 
d="M144 268l-2 -20q48 -7 81.5 -38.5t37.5 -74.5q5 -41 -46 -131q-49 -86 -46 -127q7 -67 141 -68l-9 -38q-94 1 -144.5 29.5t-57.5 75.5q1 62 47 143q46 83 43 123q-4 41 -40.5 63t-95.5 24l14 63q90 3 138.5 61t45.5 127l-2 21q-2 32 -4 42q-7 96 52.5 145.5t202.5 49.5
l-9 -38q-97 -2 -139 -37.5t-35 -115.5l7 -69q7 -73 -46 -138t-134 -72z" />
    <glyph glyph-name="bar" unicode="|" horiz-adv-x="544" 
d="M240 -231v981h65v-981h-65z" />
    <glyph glyph-name="braceright" unicode="}" horiz-adv-x="435" 
d="M296 242l2 20q-48 7 -81.5 38.5t-37.5 74.5q-6 44 45 131q1 3 7.5 14.5t8.5 15t7 14t7 15l6 13.5t5.5 15t3.5 13.5t2 14v12.5q-7 67 -141 68l9 38q94 -1 144.5 -29.5t57.5 -75.5q-1 -62 -47 -143q-47 -84 -44 -123q4 -41 41 -63t95 -24l-14 -63q-90 -3 -138.5 -61
t-45.5 -127l2 -21q2 -32 4 -42q7 -96 -52 -145.5t-202 -49.5l9 38q96 2 138.5 37.5t35.5 115.5l-7 69q-7 74 45.5 138.5t134.5 71.5z" />
    <glyph glyph-name="asciitilde" unicode="~" horiz-adv-x="544" 
d="M471 373l36 -14q-21 -62 -63.5 -109.5t-80.5 -47.5q-23 0 -105 39.5t-105 39.5q-15 0 -30 -13.5t-23.5 -27.5t-22.5 -42l-40 16q17 53 61 106t71 53q30 0 107.5 -40t106.5 -40q24 0 50.5 25t37.5 55z" />
    <glyph glyph-name="uni00A0" unicode="&#xa0;" horiz-adv-x="210" 
 />
    <glyph glyph-name="exclamdown" unicode="&#xa1;" horiz-adv-x="359" 
d="M276 397q0 -27 -17 -45t-43 -18t-43.5 18t-17.5 45t17.5 44.5t43.5 17.5t43 -17.5t17 -44.5zM47 -156l11 31q70 185 111 367q7 -1 17.5 -4t16.5 -4q-48 -232 -48 -404q0 -41 -13.5 -71t-46.5 -30q-32 0 -46 16.5t-14 40.5q0 12 9 48v-1z" />
    <glyph glyph-name="cent" unicode="&#xa2;" horiz-adv-x="433" 
d="M375 245l22 -14q-25 -44 -62.5 -69.5t-81.5 -25.5q-16 0 -36 4q-3 -13 -10.5 -46t-10.5 -49l-26 6l20 97q-56 21 -90.5 67t-34.5 113q0 32 7 64q21 84 81 133.5t132 47.5q3 14 10 44.5t10 44.5q8 -2 27 -6l-20 -88q55 -14 89.5 -54t25.5 -84q-7 -25 -23 -38.5t-34 -10.5
q-22 7 -31.5 26t-2.5 43h-1l32 34q-5 41 -62 52l-78 -353l17 -4q40 -9 75 10.5t56 55.5zM152 385q-9 -41 -9 -71q0 -78 58 -119l76 343q-93 -10 -125 -153z" />
    <glyph glyph-name="sterling" unicode="&#xa3;" horiz-adv-x="592" 
d="M112 376h79q-9 47 -9 80q0 22 4 41q18 86 84 132.5t141 46.5q78 0 115 -38t29 -76q-4 -23 -18.5 -36t-30.5 -13q-13 0 -21 9.5t-10.5 17.5t-7.5 29q-4 18 -7 26.5t-10 21.5t-19 18.5t-29 5.5q-37 0 -71 -32t-47 -92q-4 -17 -4 -37q0 -13 7 -64q4 -21 5 -40h152l-10 -42
h-140q0 -21 -5 -44q-25 -107 -89 -163l6 -18q36 20 60 20q16 0 31 -8.5t23 -17t21 -24.5q34 -44 69 -44q19 0 33.5 10.5t17.5 27.5q2 17 -13 34q-17 17 -12 40q3 15 14.5 26t26.5 11q38 0 38 -47q0 -15 -4 -30q-11 -57 -55 -88t-94 -31q-67 0 -121 30t-74 64h-11
q-70 -94 -123 -94q-10 0 -15.5 6.5t-3.5 16.5q8 29 48 55t91 42q32 54 47 123q4 19 4 43q0 28 -5 60h-97z" />
    <glyph glyph-name="currency" unicode="&#xa4;" horiz-adv-x="628" 
d="M92 271q0 68 41 126v7l-46 44q-11 12 -2 28.5t25.5 22t28.5 -2.5l46 -48q60 42 131 42q75 0 128 -39v1l44 46q13 9 30 1t28.5 -26.5t1.5 -28.5l-46 -43v-7q38 -57 38 -123q0 -68 -42 -129v-7l49 -47q11 -11 1.5 -28t-25.5 -23.5t-28 3.5v1l-51 50q-57 -39 -128 -39
q-70 0 -126 35l-42 -44v-1q-11 -12 -31.5 -4.5t-29.5 23.5t1 29l45 44v7q-41 56 -41 130zM163 270q0 -74 42.5 -121.5t111.5 -47.5q64 0 107 48t43 121q0 74 -43 121.5t-108 47.5q-71 0 -112 -48t-41 -121z" />
    <glyph glyph-name="yen" unicode="&#xa5;" horiz-adv-x="610" 
d="M680 602q-65 -1 -123 -73l-174 -228h120l-10 -43h-129l-12 -59h129l-9 -42h-130l-8 -42q-5 -33 -5 -41q0 -27 17.5 -34t65.5 -7l-7 -33h-274l7 33q64 0 80.5 12.5t29.5 69.5l8 42h-151l9 42h153l12 59h-153l10 43h140l-88 218q-24 52 -41 67t-61 16l7 33h260l-7 -33
q-77 -2 -77 -34q0 -12 10 -31h-1l84 -215l163 214q17 24 17 36q0 27 -50 30l7 33h188z" />
    <glyph glyph-name="brokenbar" unicode="&#xa6;" horiz-adv-x="544" 
d="M305 402h-65v348h65v-348zM240 117h65v-348h-65v348z" />
    <glyph glyph-name="section" unicode="&#xa7;" horiz-adv-x="499" 
d="M120 407q2 76 30.5 138.5t72 100t93 57.5t97.5 20q36 0 62 -17.5t26 -48.5q0 -21 -13 -35t-35 -14q-12 0 -21 6t-12 9t-11 15q-21 32 -54 32q-35 0 -57 -32t-22 -82q0 -48 50 -161q22 -48 33 -76.5t23 -75.5t12 -89q0 -59 -21.5 -111t-55.5 -88.5t-77 -63t-86.5 -39.5
t-83.5 -13q-34 0 -58.5 16.5t-24.5 46.5q0 26 15.5 43.5t44.5 17.5q8 0 13.5 -2t9.5 -7.5t5.5 -9t4.5 -11.5q5 -12 9.5 -18.5t16 -12.5t29.5 -6q39 0 62 37t23 91q0 67 -47 177q-18 44 -26 66.5t-17.5 63t-9.5 76.5zM256 -30l10 -12q82 69 82 186q0 36 -10.5 78.5t-21 69
t-30.5 72.5q-52 120 -52 168q0 22 7 42l-10 9q-31 -31 -48 -76t-17 -88q0 -70 54 -199q51 -121 51 -176q0 -39 -15 -74z" />
    <glyph glyph-name="dieresis" unicode="&#xa8;" horiz-adv-x="500" 
d="M404 570q0 -19 -14.5 -34t-32.5 -15q-19 0 -33.5 15t-14.5 34q0 20 14.5 36t33.5 16q17 0 32 -16t15 -36zM242 570q0 -20 -14 -34.5t-33 -14.5t-33.5 15t-14.5 34q0 20 14.5 36t33.5 16t33 -15.5t14 -36.5z" />
    <glyph glyph-name="copyright" unicode="&#xa9;" horiz-adv-x="775" 
d="M48 327q0 138 100.5 238t239.5 100q144 0 241.5 -99t97.5 -239q0 -143 -99.5 -242t-239.5 -99q-142 0 -241 96.5t-99 244.5zM108 324q0 -122 79 -203.5t203 -81.5q123 0 199.5 81t76.5 204q0 125 -79 208t-199 83q-122 0 -201 -83.5t-79 -207.5zM397 183q45 0 70.5 19.5
t39.5 62.5h28v-82q-67 -43 -140 -43q-82 0 -137 50t-55 138q0 84 55 135t137 51q67 0 136 -37v-85h-30q-16 46 -42.5 64t-63.5 18q-51 0 -81.5 -35t-30.5 -110q0 -71 34.5 -108.5t79.5 -37.5z" />
    <glyph glyph-name="ordfeminine" unicode="&#xaa;" horiz-adv-x="428" 
d="M321 459l-11 3q-76 -151 -141 -151q-42 0 -66 29t-24 77q0 114 56 199.5t135 85.5q22 0 41.5 -19t32.5 -52l14 33q1 3 13 30h55l-62 -270q-5 -22 -5 -37q0 -37 25 -37q46 0 53 100q16 -2 25 -2q-8 -70 -29 -101.5t-62 -31.5q-66 0 -66 66q0 33 16 78zM186 356q34 0 76 73
t62 161q-11 85 -54 85q-41 0 -77.5 -79t-36.5 -186q0 -54 30 -54z" />
    <glyph glyph-name="guillemotleft" unicode="&#xab;" horiz-adv-x="652" 
d="M129 238l241 218l28 -27l-188 -205l-5 -15l49 -200q-3 -1 -14 -6.5t-17 -6.5l-99 220l7 22h-2zM337 238l241 218l29 -27l-189 -205l-5 -15l50 -200q-3 -1 -14 -6.5t-17 -6.5l-100 220l7 22h-2z" />
    <glyph glyph-name="logicalnot" unicode="&#xac;" horiz-adv-x="544" 
d="M428 52v197h-388v64h457v-261h-69z" />
    <glyph glyph-name="registered" unicode="&#xae;" horiz-adv-x="508" 
d="M130 503q0 88 63 151t151 63q91 0 152.5 -62.5t61.5 -151.5q0 -88 -63 -151t-151 -63q-89 0 -151.5 61t-62.5 153zM174 502q0 -76 48 -125.5t123 -49.5q70 0 119.5 50.5t49.5 124.5q0 77 -49 126.5t-121 49.5q-78 0 -124 -49.5t-46 -126.5zM377 508v-8q14 -6 38 -39.5
t37 -42.5l15 -7v-20h-55q-14 10 -41.5 52t-47.5 50h-13v-75l37 -7v-20h-114v20l27 7v183l-27 7v20h116q29 0 57 -14t28 -48q0 -20 -15.5 -36.5t-41.5 -21.5zM310 601v-82h26q23 0 34.5 13.5t11.5 31.5q0 37 -40 37h-32z" />
    <glyph glyph-name="macron" unicode="&#xaf;" horiz-adv-x="500" 
d="M386 533h-245v54h245v-54z" />
    <glyph glyph-name="degree" unicode="&#xb0;" horiz-adv-x="367" 
d="M91 564q0 59 42 101.5t101 42.5t101.5 -42.5t42.5 -101.5t-42.5 -101t-101.5 -42q-58 0 -100.5 42.5t-42.5 100.5zM151 564q0 -39 22.5 -65.5t59.5 -26.5t60.5 26.5t23.5 65.5t-23.5 66.5t-60.5 27.5t-59.5 -27.5t-22.5 -66.5z" />
    <glyph glyph-name="plusminus" unicode="&#xb1;" horiz-adv-x="620" 
d="M570 320h-230v-210h-60v210h-230v60h230v210h60v-210h230v-60zM570 0h-520v60h520v-60z" />
    <glyph glyph-name="two.sups" unicode="&#xb2;" horiz-adv-x="320" 
d="M183 472v-6h110q13 0 27.5 18.5t25.5 46.5h33l-32 -114h-255l-3 27l21 15q225 147 225 251q0 69 -52 69q-46 0 -75 -46l29 -46l-1 1q-3 -20 -16 -31.5t-31 -11.5q-41 0 -41 40q0 50 45.5 84t95.5 34q54 0 84.5 -23t30.5 -65q0 -49 -47.5 -97.5t-124.5 -104.5l-11 -8
q-22 -14 -42 -34q3 1 4 1z" />
    <glyph glyph-name="three.sups" unicode="&#xb3;" horiz-adv-x="312" 
d="M292 622v-3q81 -13 81 -84q0 -55 -51 -90t-130 -35q-43 0 -70.5 18t-27.5 50q0 21 13.5 36t30.5 15q18 0 28.5 -12t5.5 -27h1l-32 -38q12 -17 46 -17q46 0 81.5 25t35.5 76q0 60 -52 60q-20 0 -58 -12l-6 26q77 25 112 52.5t35 68.5q0 48 -51 48q-34 0 -63 -21
q13 -25 21 -47q-9 -31 -39 -31q-41 0 -41 30q0 43 43.5 68t93.5 25q47 0 75.5 -19t28.5 -50q0 -64 -118 -109l2 -4q3 0 5 1z" />
    <glyph glyph-name="acute" unicode="&#xb4;" horiz-adv-x="500" 
d="M203 501v6l-1 -1l113 164h82v-8l1 1q-37 -41 -149 -162h-46z" />
    <glyph glyph-name="mu" unicode="&#xb5;" horiz-adv-x="544" 
d="M368 27l-8 6q-68 -45 -134 -45q-41 0 -71 27q1 -26 4 -64.5t4.5 -64t1.5 -38.5q0 -60 -46 -60q-40 0 -40 52q0 17 6 120.5t8 159.5q-1 7 -1 21v257l-63 11v38l154 18v-309q0 -56 21 -78.5t65 -22.5q58 0 93 37v306l-63 11v38l154 18v-364q0 -43 21 -43q20 0 34 34l28 -11
q-16 -47 -46 -68.5t-58 -21.5q-26 0 -37.5 7t-26.5 29z" />
    <glyph glyph-name="mu" unicode="&#x3bc;" horiz-adv-x="544" 
d="M368 27l-8 6q-68 -45 -134 -45q-41 0 -71 27q1 -26 4 -64.5t4.5 -64t1.5 -38.5q0 -60 -46 -60q-40 0 -40 52q0 17 6 120.5t8 159.5q-1 7 -1 21v257l-63 11v38l154 18v-309q0 -56 21 -78.5t65 -22.5q58 0 93 37v306l-63 11v38l154 18v-364q0 -43 21 -43q20 0 34 34l28 -11
q-16 -47 -46 -68.5t-58 -21.5q-26 0 -37.5 7t-26.5 29z" />
    <glyph glyph-name="paragraph" unicode="&#xb6;" horiz-adv-x="559" 
d="M633 706l-15 -68h-60l-169 -796h-50l169 796h-75l-169 -796h-51l86 402q-109 0 -167 46t-58 128q0 28 6 58q24 105 105 167.5t188 62.5h260zM311 298l71 340q-57 0 -104.5 -47t-64.5 -118q-7 -31 -7 -62q0 -53 26.5 -83t78.5 -30z" />
    <glyph glyph-name="periodcentered" unicode="&#xb7;" horiz-adv-x="253" 
d="M72 264q0 26 17.5 44.5t42.5 18.5t42.5 -18.5t17.5 -44.5q0 -27 -17.5 -45t-42.5 -18t-42.5 18t-17.5 45z" />
    <glyph glyph-name="cedilla" unicode="&#xb8;" horiz-adv-x="500" 
d="M185 -224l-6 21q87 18 87 63q0 21 -16 32.5t-41 11.5q-19 0 -27 -1l-3 4l71 109h37l-49 -70q36 0 59 -17.5t23 -53.5t-39 -63t-96 -36z" />
    <glyph glyph-name="one.sups" unicode="&#xb9;" horiz-adv-x="270" 
d="M170 754l4 20q68 3 118 23h29l-68 -316q-4 -21 12 -32t52 -12l-4 -20h-210l3 20q41 1 60 10.5t25 32.5l26 123l30 141z" />
    <glyph glyph-name="ordmasculine" unicode="&#xba;" horiz-adv-x="376" 
d="M399 559q0 -96 -54.5 -172t-133.5 -76q-63 0 -100 36t-37 103q0 100 59 176t135 76q63 0 97 -39.5t34 -103.5zM325 577v14q0 79 -53 79q-56 0 -89 -75t-33 -167q0 -86 58 -86q28 0 50 22t35.5 58.5t21.5 75.5t10 79z" />
    <glyph glyph-name="guillemotright" unicode="&#xbb;" horiz-adv-x="652" 
d="M544 215l-241 -217l-28 26l188 205l5 15l-50 201q3 1 14.5 6.5t17.5 6.5l99 -221l-7 -22h2zM336 215l-241 -217l-29 26l188 205l6 15l-50 201q3 1 14 6.5t17 6.5l100 -221l-7 -22h2z" />
    <glyph glyph-name="onequarter" unicode="&#xbc;" 
d="M409 106l-2 11l259 259q5 -1 13 -3t12 -2l-51 -241h58q-1 -4 -3 -12.5t-2 -11.5h-59l-9 -42q-6 -33 6.5 -43.5t40.5 -11.5l-4 -19h-181l4 19q31 1 48.5 12t24.5 39l9 46h-164zM122 -16l307 371q56 68 159.5 196.5t124.5 154.5l29 -22l-295 -349l-296 -373q-6 5 -14.5 11
t-14.5 11zM178 647l5 20q70 3 117 22h29l-67 -316q-5 -21 11 -32t52 -12l-4 -19h-210l3 19q41 1 60 10.5t25 32.5l26 124l30 141zM462 130h115l32 151l-142 -146l-5 -1v-4z" />
    <glyph glyph-name="onehalf" unicode="&#xbd;" 
d="M122 -16l307 371q56 68 159.5 196.5t124.5 154.5l29 -22l-295 -349l-296 -373q-6 5 -14.5 11t-14.5 11zM178 647l5 20q70 3 117 22h29l-67 -316q-5 -21 11 -32t52 -12l-4 -19h-210l3 19q41 1 60 10.5t25 32.5l26 124l30 141zM530 44v-6h110q13 0 27.5 18.5t25.5 47.5h33
l-32 -114h-255l-3 26l21 15q225 147 225 252q0 68 -52 68q-47 0 -75 -45l29 -46l-1 1q-3 -20 -16 -32t-31 -12q-41 0 -41 40q0 51 45.5 84.5t95.5 33.5q54 0 84.5 -22.5t30.5 -64.5q0 -26 -14.5 -53.5t-44 -56t-53 -47.5t-60.5 -46l-11 -8q-22 -14 -42 -34q3 1 4 1z" />
    <glyph glyph-name="threequarters" unicode="&#xbe;" 
d="M409 106l-2 11l259 259q5 -1 13 -3t12 -2l-51 -241h58q-1 -4 -3 -12.5t-2 -11.5h-59l-9 -42q-6 -33 6.5 -43.5t40.5 -11.5l-4 -19h-181l4 19q31 1 48.5 12t24.5 39l9 46h-164zM265 514v-3q81 -13 81 -84q0 -55 -50.5 -89.5t-130.5 -34.5q-43 0 -71 17.5t-28 49.5
q0 21 14 36t31 15q18 0 28.5 -12t5.5 -27h1l-32 -38q12 -17 46 -17q46 0 81.5 25t35.5 76q0 61 -52 61q-20 0 -58 -12l-6 25q77 25 112 53t35 69q0 47 -52 47q-35 0 -62 -20q14 -27 21 -48q-9 -31 -39 -31q-41 0 -41 30q0 44 43 68.5t94 24.5q47 0 75.5 -18.5t28.5 -49.5
q0 -65 -118 -110l2 -4q3 0 5 1zM122 -16l307 371q56 68 159.5 196.5t124.5 154.5l29 -22l-295 -349l-296 -373q-6 5 -14.5 11t-14.5 11zM462 130h115l32 151l-142 -146l-5 -1v-4z" />
    <glyph glyph-name="questiondown" unicode="&#xbf;" horiz-adv-x="473" 
d="M413 482q0 -30 -17.5 -46.5t-41.5 -16.5q-25 0 -43 17t-18 46q0 26 17.5 43.5t43.5 17.5q25 0 42 -17.5t17 -43.5zM46 -67q0 26 12 50.5t38.5 49t45.5 39t55 39.5q42 28 60.5 42t38 37t19.5 44q0 46 -56 46q-57 0 -71 -69l-31 9q28 105 118 105q44 0 78.5 -23.5
t34.5 -69.5q0 -23 -10 -44t-33 -42.5t-39 -33.5t-50 -36q-45 -31 -66.5 -48t-43.5 -47t-22 -60q0 -29 17.5 -47.5t48.5 -18.5q48 0 81.5 40.5t35.5 121.5q7 2 18.5 4.5t14.5 3.5q1 -8 1 -22q0 -87 -41.5 -138t-114.5 -51q-65 0 -102 34t-37 85z" />
    <glyph glyph-name="Agrave" unicode="&#xc0;" horiz-adv-x="720" 
d="M476 77l-22 128h-257l-71 -125q-6 -12 -6 -20.5t11 -14t30 -7.5t50 -2l-8 -36h-233l8 36q40 1 65.5 14.5t46.5 48.5q65 113 190.5 327t160.5 275h15l113 -608q8 -39 22.5 -48t64.5 -9l-8 -36h-280l8 36h22q57 0 69.5 6.5t8.5 34.5zM395 534l-10 1q-22 -38 -69.5 -121.5
t-72.5 -126.5l-22 -39h224zM498 754v-5h-40l-103 126v8h82q11 -23 32 -67.5t29 -61.5z" />
    <glyph glyph-name="Aacute" unicode="&#xc1;" horiz-adv-x="720" 
d="M476 77l-22 128h-257l-71 -125q-6 -12 -6 -20.5t11 -14t30 -7.5t50 -2l-8 -36h-233l8 36q40 1 65.5 14.5t46.5 48.5q65 113 190.5 327t160.5 275h15l113 -608q8 -39 22.5 -48t64.5 -9l-8 -36h-280l8 36h22q57 0 69.5 6.5t8.5 34.5zM395 534l-10 1q-22 -38 -69.5 -121.5
t-72.5 -126.5l-22 -39h224zM397 749v6l-1 -1l101 129h86v-8l-142 -126h-44z" />
    <glyph glyph-name="Acircumflex" unicode="&#xc2;" horiz-adv-x="720" 
d="M476 77l-22 128h-257l-71 -125q-6 -12 -6 -20.5t11 -14t30 -7.5t50 -2l-8 -36h-233l8 36q40 1 65.5 14.5t46.5 48.5q65 113 190.5 327t160.5 275h15l113 -608q8 -39 22.5 -48t64.5 -9l-8 -36h-280l8 36h22q57 0 69.5 6.5t8.5 34.5zM395 534l-10 1q-22 -38 -69.5 -121.5
t-72.5 -126.5l-22 -39h224zM593 755v-6h-38l-72 79q-86 -50 -133 -79h-38v6l160 128h42l80 -129z" />
    <glyph glyph-name="Atilde" unicode="&#xc3;" horiz-adv-x="720" 
d="M476 77l-22 128h-257l-71 -125q-6 -12 -6 -20.5t11 -14t30 -7.5t50 -2l-8 -36h-233l8 36q40 1 65.5 14.5t46.5 48.5q65 113 190.5 327t160.5 275h15l113 -608q8 -39 22.5 -48t64.5 -9l-8 -36h-280l8 36h22q57 0 69.5 6.5t8.5 34.5zM395 534l-10 1q-22 -38 -69.5 -121.5
t-72.5 -126.5l-22 -39h224zM594 889l18 -7q-15 -46 -42 -80.5t-51 -34.5q-10 0 -58 31q-46 30 -65 30q-12 0 -22 -9.5t-15 -19t-15 -32.5q-3 1 -10 3t-10 4q12 39 40 78t44 39t61 -31q44 -30 64 -30q16 0 34.5 18.5t26.5 40.5z" />
    <glyph glyph-name="Adieresis" unicode="&#xc4;" horiz-adv-x="720" 
d="M476 77l-22 128h-257l-71 -125q-6 -12 -6 -20.5t11 -14t30 -7.5t50 -2l-8 -36h-233l8 36q40 1 65.5 14.5t46.5 48.5q65 113 190.5 327t160.5 275h15l113 -608q8 -39 22.5 -48t64.5 -9l-8 -36h-280l8 36h22q57 0 69.5 6.5t8.5 34.5zM395 534l-10 1q-22 -38 -69.5 -121.5
t-72.5 -126.5l-22 -39h224zM607 829q0 -19 -15 -34t-33 -15q-19 0 -33.5 15t-14.5 34q0 20 14.5 35.5t33.5 15.5q18 0 33 -15.5t15 -35.5zM445 829q0 -20 -14.5 -34.5t-33.5 -14.5t-33.5 15t-14.5 34q0 20 14.5 35.5t33.5 15.5t33.5 -15.5t14.5 -35.5z" />
    <glyph glyph-name="Aring" unicode="&#xc5;" horiz-adv-x="720" 
d="M476 77l-22 128h-257l-71 -125q-6 -12 -6 -20.5t11 -14t30 -7.5t50 -2l-8 -36h-233l8 36q40 1 65.5 14.5t46.5 48.5q65 113 190.5 327t160.5 275h15l113 -608q8 -39 22.5 -48t64.5 -9l-8 -36h-280l8 36h22q57 0 69.5 6.5t8.5 34.5zM395 534l-10 1q-22 -38 -69.5 -121.5
t-72.5 -126.5l-22 -39h224zM383 832q0 38 26.5 65t63.5 27t63 -27t26 -65t-26 -65.5t-63 -27.5t-63.5 27.5t-26.5 65.5zM419 832q0 -23 14.5 -38t38.5 -15t38.5 15t14.5 38t-15 39t-38 16t-38 -16t-15 -39z" />
    <glyph glyph-name="AE" unicode="&#xc6;" horiz-adv-x="1024" 
d="M983 244l-65 -244h-571l8 36q66 0 85 5t24 26l28 138h-257l-110 -125q-28 -32 39 -41q19 -3 46 -3l-8 -36h-233l8 36q27 0 47 9.5t30 18t35 35.5l485 548q-15 9 -88 9q1 6 4 18t4 17h541q-6 -36 -18 -107t-17 -107h-29q1 13 1 34q0 81 -25.5 113t-90.5 32h-173l-62 -297
h79q107 0 135 138h24l-65 -310h-25q9 36 9 67q0 39 -21 52.5t-72 13.5h-73l-60 -284h197q74 0 130 64t74 144h30zM546 556l-273 -308h229l64 308h-20z" />
    <glyph glyph-name="Ccedilla" unicode="&#xc7;" horiz-adv-x="684" 
d="M271 -216l-6 21q86 18 86 63q0 22 -15.5 33t-40.5 11q-19 0 -27 -1l-3 5l48 73q-117 7 -181.5 74.5t-64.5 181.5q0 94 35.5 179.5t93 145.5t132 95.5t149.5 35.5q43 0 83 -20t63 -55l9 1l36 64h28l-51 -258h-32q4 95 -28.5 161t-111.5 66q-82 0 -152 -59t-110.5 -157
t-40.5 -209q0 -205 175 -205q161 0 247 192h36l-61 -179l3 1q-91 -51 -223 -56l-23 -34q35 0 58 -17.5t23 -53.5t-39 -63t-95 -36z" />
    <glyph glyph-name="Egrave" unicode="&#xc8;" horiz-adv-x="661" 
d="M619 244l-65 -244h-571l8 36q66 0 85 5t24 26l117 556q4 20 -15 26.5t-80 6.5q1 5 4 17.5t4 17.5h541q-6 -36 -18 -107t-17 -107h-29q1 13 1 34q0 81 -25.5 113t-90.5 32h-173l-63 -297h80q107 0 135 138h24l-66 -310h-24q8 37 8 67q0 39 -20.5 52.5t-71.5 13.5h-74
l-59 -284h197q74 0 130 64t73 144h31zM483 754v-5h-40l-103 126v8h81q7 -15 29 -60t33 -69z" />
    <glyph glyph-name="Eacute" unicode="&#xc9;" horiz-adv-x="661" 
d="M619 244l-65 -244h-571l8 36q66 0 85 5t24 26l117 556q4 20 -15 26.5t-80 6.5q1 5 4 17.5t4 17.5h541q-6 -36 -18 -107t-17 -107h-29q1 13 1 34q0 81 -25.5 113t-90.5 32h-173l-63 -297h80q107 0 135 138h24l-66 -310h-24q8 37 8 67q0 39 -20.5 52.5t-71.5 13.5h-74
l-59 -284h197q74 0 130 64t73 144h31zM382 749v6l-1 -1l101 129h86v-8l-143 -126h-43z" />
    <glyph glyph-name="Ecircumflex" unicode="&#xca;" horiz-adv-x="661" 
d="M619 244l-65 -244h-571l8 36q66 0 85 5t24 26l117 556q4 20 -15 26.5t-80 6.5q1 5 4 17.5t4 17.5h541q-6 -36 -18 -107t-17 -107h-29q1 13 1 34q0 81 -25.5 113t-90.5 32h-173l-63 -297h80q107 0 135 138h24l-66 -310h-24q8 37 8 67q0 39 -20.5 52.5t-71.5 13.5h-74
l-59 -284h197q74 0 130 64t73 144h31zM578 755v-6h-38l-72 79q-55 -31 -133 -79h-38v6l160 128h42l80 -129z" />
    <glyph glyph-name="Edieresis" unicode="&#xcb;" horiz-adv-x="661" 
d="M619 244l-65 -244h-571l8 36q66 0 85 5t24 26l117 556q4 20 -15 26.5t-80 6.5q1 5 4 17.5t4 17.5h541q-6 -36 -18 -107t-17 -107h-29q1 13 1 34q0 81 -25.5 113t-90.5 32h-173l-63 -297h80q107 0 135 138h24l-66 -310h-24q8 37 8 67q0 39 -20.5 52.5t-71.5 13.5h-74
l-59 -284h197q74 0 130 64t73 144h31zM591 829q0 -19 -14.5 -34t-32.5 -15q-19 0 -33.5 15t-14.5 34q0 20 14.5 35.5t33.5 15.5q18 0 32.5 -15.5t14.5 -35.5zM429 829q0 -20 -14 -34.5t-33 -14.5t-33.5 15t-14.5 34q0 20 14.5 35.5t33.5 15.5t33 -15.5t14 -35.5z" />
    <glyph glyph-name="Igrave" unicode="&#xcc;" horiz-adv-x="379" 
d="M437 691l-9 -35q-66 0 -86 -7.5t-25 -34.5l-114 -532q-6 -32 8.5 -39t86.5 -7l-8 -36h-301l8 36q64 0 85 8.5t27 37.5l113 532q7 29 -9 35.5t-85 6.5q1 5 4 17.5t4 17.5h301zM339 754v-5h-40l-103 126v8h82q11 -23 32 -67.5t29 -61.5z" />
    <glyph glyph-name="Iacute" unicode="&#xcd;" horiz-adv-x="379" 
d="M437 691l-8 -35q-70 0 -88.5 -7t-23.5 -35l-114 -532q-6 -32 8.5 -39t86.5 -7l-8 -36h-301l8 36q64 0 85 8.5t27 37.5l113 532q7 29 -9 35.5t-85 6.5q1 5 4 17.5t4 17.5h301zM238 749v6l-1 -1l101 129h86v-8l-142 -126h-44z" />
    <glyph glyph-name="Icircumflex" unicode="&#xce;" horiz-adv-x="379" 
d="M437 691l-8 -35q-70 0 -88.5 -7t-23.5 -35l-114 -532q-6 -32 8.5 -39t86.5 -7l-8 -36h-301l8 36q64 0 85 8.5t27 37.5l113 532q7 29 -9 35.5t-85 6.5q1 5 4 17.5t4 17.5h301zM435 755v-6h-39l-72 79q-86 -50 -133 -79h-38v6l160 128h42l81 -129z" />
    <glyph glyph-name="Idieresis" unicode="&#xcf;" horiz-adv-x="379" 
d="M437 691l-8 -35q-70 0 -88.5 -7t-23.5 -35l-114 -532q-6 -32 8.5 -39t86.5 -7l-8 -36h-301l8 36q64 0 85 8.5t27 37.5l113 532q7 29 -9 35.5t-85 6.5q1 5 4 17.5t4 17.5h301zM448 829q0 -19 -15 -34t-33 -15q-19 0 -33.5 15t-14.5 34q0 20 14.5 35.5t33.5 15.5
q18 0 33 -15.5t15 -35.5zM286 829q0 -20 -14 -34.5t-34 -14.5q-19 0 -33.5 15t-14.5 34q0 20 14.5 35.5t33.5 15.5q20 0 34 -15t14 -36z" />
    <glyph glyph-name="Eth" unicode="&#xd0;" horiz-adv-x="761" 
d="M736 424q0 -190 -124.5 -307t-319.5 -117h-309l8 36q68 2 86 7.5t24 28.5l53 256h-90q2 8 5 24.5t5 24.5h91l52 246q1 3 1 11q0 15 -17.5 18.5t-78.5 3.5q1 5 4 17.5t4 17.5h307q82 0 142.5 -23t93.5 -62t48 -84.5t15 -97.5zM188 36h110q73 2 131 27.5t95 66t61.5 93.5
t34.5 105.5t10 106.5q0 103 -55 162t-175 59h-81l-58 -279h187q-2 -8 -5 -24.5t-5 -24.5h-189z" />
    <glyph glyph-name="Ntilde" unicode="&#xd1;" horiz-adv-x="752" 
d="M242 556h-12l-98 -465q-6 -33 19.5 -44t88.5 -11l-8 -36h-252l8 36q49 0 74 10.5t33 44.5l108 511q-17 28 -35 40.5t-54 13.5q1 5 4 17.5t4 17.5h151l302 -532h12l93 445q4 25 -24 38t-88 14q1 6 4 18t4 17h246q-1 -5 -4 -17t-4 -18q-51 -1 -71.5 -13t-26.5 -39
q-25 -121 -75 -352t-57 -262h-22zM601 889l18 -7q-15 -46 -42 -80.5t-51 -34.5q-10 0 -58 31q-46 30 -65 30q-12 0 -22 -9.5t-15 -19t-15 -32.5q-3 1 -10 3t-10 4q12 39 40 78t44 39t61 -31q44 -30 64 -30q16 0 34.5 18.5t26.5 40.5z" />
    <glyph glyph-name="Ograve" unicode="&#xd2;" horiz-adv-x="751" 
d="M726 433q0 -97 -37.5 -182.5t-96.5 -142t-130 -88.5t-140 -32q-114 0 -184.5 72.5t-70.5 193.5q0 96 36 181t94 142.5t131 90.5t147 33q111 0 181 -74t70 -194zM332 30q72 0 130.5 43.5t93 111t52.5 141t18 141.5q0 93 -42 143t-119 50q-86 0 -155 -63t-105 -160
t-36 -206q0 -201 163 -201zM536 754v-5h-40l-103 126v8h82q11 -23 32 -67.5t29 -61.5z" />
    <glyph glyph-name="Oacute" unicode="&#xd3;" horiz-adv-x="751" 
d="M726 433q0 -97 -37.5 -182.5t-96.5 -142t-130 -88.5t-140 -32q-114 0 -184.5 72.5t-70.5 193.5q0 96 36 181t94 142.5t131 90.5t147 33q111 0 181 -74t70 -194zM332 30q72 0 130.5 43.5t93 111t52.5 141t18 141.5q0 93 -42 143t-119 50q-86 0 -155 -63t-105 -160
t-36 -206q0 -201 163 -201zM436 749v6l-1 -1l100 129h87v-8l-143 -126h-43z" />
    <glyph glyph-name="Ocircumflex" unicode="&#xd4;" horiz-adv-x="751" 
d="M726 433q0 -97 -37.5 -182.5t-96.5 -142t-130 -88.5t-140 -32q-114 0 -184.5 72.5t-70.5 193.5q0 96 36 181t94 142.5t131 90.5t147 33q111 0 181 -74t70 -194zM332 30q72 0 130.5 43.5t93 111t52.5 141t18 141.5q0 93 -42 143t-119 50q-86 0 -155 -63t-105 -160
t-36 -206q0 -201 163 -201zM632 755v-6h-39l-72 79q-86 -50 -133 -79h-38v6l160 128h42l81 -129z" />
    <glyph glyph-name="Otilde" unicode="&#xd5;" horiz-adv-x="751" 
d="M726 433q0 -97 -37.5 -182.5t-96.5 -142t-130 -88.5t-140 -32q-114 0 -184.5 72.5t-70.5 193.5q0 96 36 181t94 142.5t131 90.5t147 33q111 0 181 -74t70 -194zM332 30q72 0 130.5 43.5t93 111t52.5 141t18 141.5q0 93 -42 143t-119 50q-86 0 -155 -63t-105 -160
t-36 -206q0 -201 163 -201zM633 889l17 -7q-14 -46 -41.5 -80.5t-51.5 -34.5q-10 0 -58 31q-46 30 -64 30q-13 0 -23 -9.5t-15 -19t-15 -32.5q-3 1 -10 3t-10 4q12 39 40.5 78t44.5 39q15 0 60 -31q44 -30 64 -30q17 0 35.5 19t26.5 40z" />
    <glyph glyph-name="Odieresis" unicode="&#xd6;" horiz-adv-x="751" 
d="M726 433q0 -97 -37.5 -182.5t-96.5 -142t-130 -88.5t-140 -32q-114 0 -184.5 72.5t-70.5 193.5q0 96 36 181t94 142.5t131 90.5t147 33q111 0 181 -74t70 -194zM332 30q72 0 130.5 43.5t93 111t52.5 141t18 141.5q0 93 -42 143t-119 50q-86 0 -155 -63t-105 -160
t-36 -206q0 -201 163 -201zM645 829q0 -19 -15 -34t-33 -15q-19 0 -33.5 15t-14.5 34q0 20 14.5 35.5t33.5 15.5q18 0 33 -15.5t15 -35.5zM483 829q0 -20 -14 -34.5t-33 -14.5q-20 0 -34.5 15t-14.5 34q0 20 15 35.5t34 15.5t33 -15.5t14 -35.5z" />
    <glyph glyph-name="multiply" unicode="&#xd7;" horiz-adv-x="620" 
d="M493 35l-183 183l-183 -183l-42 42l183 183l-183 183l42 42l183 -183l183 183l42 -42l-183 -183l183 -183z" />
    <glyph glyph-name="Oslash" unicode="&#xd8;" horiz-adv-x="751" 
d="M726 433q0 -97 -37.5 -182.5t-96.5 -142t-130 -88.5t-140 -32q-93 0 -163 53l-77 -85h-58l104 115q-61 74 -61 183q0 96 36 181t94 142.5t131 90.5t147 33q94 0 166 -60q11 12 33.5 37.5t27.5 30.5h58l-89 -99q55 -74 55 -177zM169 231q0 -56 13 -99l414 459
q-41 69 -131 69q-86 0 -155 -63t-105 -160t-36 -206zM332 30q72 0 130.5 43.5t93 111t52.5 141t18 141.5q0 34 -10 81l-413 -458q41 -60 129 -60z" />
    <glyph glyph-name="Ugrave" unicode="&#xd9;" horiz-adv-x="747" 
d="M814 656h-1q-98 -1 -107 -45l-69 -330q-33 -140 -107.5 -216.5t-207.5 -76.5q-212 0 -212 163q0 32 9 73l82 390q5 29 -8 35.5t-78 6.5q1 5 4 17.5t4 17.5h287q-1 -5 -4 -17t-4 -18q-63 0 -81.5 -7t-23.5 -35l-83 -390q-7 -32 -7 -63q0 -67 37.5 -100t101.5 -33
q50 0 90 15t65.5 38t45 58.5t29.5 67.5t19 74l70 330q5 24 -19 34.5t-90 10.5q1 6 4 18t4 17h257zM544 754v-5h-40l-103 126v8h82q11 -23 32 -67.5t29 -61.5z" />
    <glyph glyph-name="Uacute" unicode="&#xda;" horiz-adv-x="747" 
d="M814 656h-1q-98 -1 -107 -45l-69 -330q-33 -140 -107.5 -216.5t-207.5 -76.5q-212 0 -212 163q0 32 9 73l82 390q5 29 -8 35.5t-78 6.5q1 5 4 17.5t4 17.5h287q-1 -5 -4 -17t-4 -18q-63 0 -81.5 -7t-23.5 -35l-83 -390q-7 -32 -7 -63q0 -67 37.5 -100t101.5 -33
q50 0 90 15t65.5 38t45 58.5t29.5 67.5t19 74l70 330q5 24 -19 34.5t-90 10.5q1 6 4 18t4 17h257zM444 749v6l-1 -1l100 129h87v-8l-143 -126h-43z" />
    <glyph glyph-name="Ucircumflex" unicode="&#xdb;" horiz-adv-x="747" 
d="M814 656h-1q-98 -1 -107 -45l-69 -330q-33 -140 -107.5 -216.5t-207.5 -76.5q-212 0 -212 163q0 32 9 73l82 390q5 29 -8 35.5t-78 6.5q1 5 4 17.5t4 17.5h287q-1 -5 -4 -17t-4 -18q-63 0 -81.5 -7t-23.5 -35l-83 -390q-7 -32 -7 -63q0 -67 37.5 -100t101.5 -33
q50 0 90 15t65.5 38t45 58.5t29.5 67.5t19 74l70 330q5 24 -19 34.5t-90 10.5q1 6 4 18t4 17h257zM640 755v-6h-39l-72 79l-133 -79h-38v6l160 128h42l81 -129z" />
    <glyph glyph-name="Udieresis" unicode="&#xdc;" horiz-adv-x="747" 
d="M821 691l-7 -35h-1q-98 -1 -107 -45l-69 -330q-33 -140 -107.5 -216.5t-207.5 -76.5q-212 0 -212 163q0 32 9 73l82 390q5 29 -8 35.5t-78 6.5q1 5 4 17.5t4 17.5h287q-1 -5 -4 -17t-4 -18q-63 0 -81.5 -7t-23.5 -35l-83 -390q-7 -32 -7 -63q0 -67 37.5 -100t101.5 -33
q50 0 90 15t65.5 38t45 58.5t29.5 67.5t19 74l70 330q5 24 -19 34.5t-90 10.5q1 6 4 18t4 17h257zM491 829q0 -20 -14 -34.5t-33 -14.5q-20 0 -34.5 15t-14.5 34q0 20 15 35.5t34 15.5t33 -15.5t14 -35.5zM653 829q0 -19 -14.5 -34t-32.5 -15q-20 0 -34.5 15t-14.5 34
q0 20 15 35.5t34 15.5q18 0 32.5 -15.5t14.5 -35.5z" />
    <glyph glyph-name="Yacute" unicode="&#xdd;" horiz-adv-x="684" 
d="M762 691l-7 -35h-1q-70 -1 -134 -81l-203 -265l-39 -185q-6 -25 -6 -44q0 -29 19.5 -37t72.5 -8l-8 -36h-300l8 36q70 0 88 14t32 75l39 182l-104 258q-27 57 -45.5 73.5t-66.5 17.5q1 5 4 17.5t4 17.5h284q-1 -5 -4 -17t-4 -18q-89 0 -89 -37q0 -16 11 -35h-1l91 -233
l177 232q15 23 15 40q0 30 -46 33q1 6 4 18t4 17h205zM434 749v6l-1 -1l100 129h87v-8l-143 -126h-43z" />
    <glyph glyph-name="Thorn" unicode="&#xde;" horiz-adv-x="623" 
d="M613 394q1 -61 -25.5 -107.5t-71 -71t-93.5 -36.5t-101 -12h-108l-16 -80q-6 -32 12.5 -41.5t80.5 -9.5l-8 -36h-300l8 36q59 0 82.5 10t30.5 41l110 517q6 32 -16 42t-76 10q1 5 4 17.5t4 17.5h299q-1 -5 -4 -17t-4 -18q-59 0 -81.5 -9t-30.5 -43l-13 -61h115
q39 0 73 -7.5t64 -23.5t47.5 -46t17.5 -72zM379 508h-91l-64 -301h96q79 0 134 46t55 136q0 58 -35 88.5t-95 30.5z" />
    <glyph glyph-name="germandbls" unicode="&#xdf;" horiz-adv-x="513" 
d="M100 456q8 84 34 145.5t62 92.5t69.5 44.5t65.5 13.5q71 0 112.5 -43.5t41.5 -101.5q0 -31 -16 -57.5t-31.5 -38.5t-41.5 -29q-40 -27 -40 -39q0 -9 28 -33q19 -16 29 -26t26.5 -31t24.5 -47.5t8 -58.5q0 -112 -71.5 -182.5t-163.5 -71.5q-35 0 -69 16q1 4 12 41
q26 -13 60 -13q59 0 102 54.5t43 139.5q0 34 -13 63.5t-25 44t-34 35.5q-35 32 -35 53q0 28 48 61q20 15 28 22t22 22.5t20 33t6 39.5q0 50 -21 79.5t-53 29.5q-36 0 -63 -21t-43.5 -60t-26 -82t-15.5 -100q-23 -196 -50.5 -333t-58 -210t-59.5 -104t-63 -31q-39 0 -63.5 17
t-24.5 52q0 27 16 46t39 21q11 -71 53 -103q78 92 131 650z" />
    <glyph glyph-name="agrave" unicode="&#xe0;" horiz-adv-x="535" 
d="M344 183h-24q-91 -195 -174 -195q-50 0 -79.5 37.5t-29.5 98.5q0 147 69.5 256.5t167.5 109.5q31 0 54.5 -27.5t33.5 -77.5l42 95h63l-79 -348q-6 -25 -6 -47q0 -51 35 -51q62 0 70 129q5 -1 13 -1h12q-9 -86 -35.5 -127.5t-75.5 -41.5q-79 0 -79 84q0 41 22 106zM168 42
q48 0 101.5 93t76.5 212q-14 112 -72 112q-53 0 -100.5 -102.5t-47.5 -242.5q0 -72 42 -72zM346 550v-5h-36l-114 163l1 -1v8h82z" />
    <glyph glyph-name="aacute" unicode="&#xe1;" horiz-adv-x="535" 
d="M344 183h-24q-91 -195 -174 -195q-50 0 -79.5 37.5t-29.5 98.5q0 147 69.5 256.5t167.5 109.5q31 0 54.5 -27.5t33.5 -77.5l42 95h63l-79 -348q-6 -25 -6 -47q0 -51 35 -51q62 0 70 129q5 -1 13 -1h12q-9 -86 -35.5 -127.5t-75.5 -41.5q-79 0 -79 84q0 41 22 106zM168 42
q48 0 101.5 93t76.5 212q-14 112 -72 112q-53 0 -100.5 -102.5t-47.5 -242.5q0 -72 42 -72zM257 545v6l112 164h83v-8l1 1q-24 -27 -74.5 -81.5t-75.5 -81.5h-46zM256 550l1 2v-1z" />
    <glyph glyph-name="acircumflex" unicode="&#xe2;" horiz-adv-x="535" 
d="M344 183h-24q-91 -195 -174 -195q-50 0 -79.5 37.5t-29.5 98.5q0 147 69.5 256.5t167.5 109.5q31 0 54.5 -27.5t33.5 -77.5l42 95h63l-79 -348q-6 -25 -6 -47q0 -51 35 -51q62 0 70 129q5 -1 13 -1h12q-9 -86 -35.5 -127.5t-75.5 -41.5q-79 0 -79 84q0 41 22 106zM168 42
q48 0 101.5 93t76.5 212q-14 112 -72 112q-53 0 -100.5 -102.5t-47.5 -242.5q0 -72 42 -72zM426 550v-5h-31l-53 103l-111 -103h-46v7l150 163h40z" />
    <glyph glyph-name="atilde" unicode="&#xe3;" horiz-adv-x="535" 
d="M344 183h-24q-91 -195 -174 -195q-50 0 -79.5 37.5t-29.5 98.5q0 147 69.5 256.5t167.5 109.5q31 0 54.5 -27.5t33.5 -77.5l42 95h63l-79 -348q-6 -25 -6 -47q0 -51 35 -51q62 0 70 129q5 -1 13 -1h12q-9 -86 -35.5 -127.5t-75.5 -41.5q-79 0 -79 84q0 41 22 106zM168 42
q48 0 101.5 93t76.5 212q-14 112 -72 112q-53 0 -100.5 -102.5t-47.5 -242.5q0 -72 42 -72zM447 676l17 -8q-14 -46 -41.5 -80t-51.5 -34q-12 0 -58 30q-48 30 -65 30q-12 0 -22 -9.5t-15 -18.5t-15 -32q-3 1 -10.5 3t-10.5 4q13 39 41 78t44 39q12 0 61 -32q44 -30 64 -30
q17 0 35.5 19t26.5 41z" />
    <glyph glyph-name="adieresis" unicode="&#xe4;" horiz-adv-x="535" 
d="M344 183h-24q-91 -195 -174 -195q-50 0 -79.5 37.5t-29.5 98.5q0 147 69.5 256.5t167.5 109.5q31 0 54.5 -27.5t33.5 -77.5l42 95h63l-79 -348q-6 -25 -6 -47q0 -51 35 -51q62 0 70 129q5 -1 13 -1h12q-9 -86 -35.5 -127.5t-75.5 -41.5q-79 0 -79 84q0 41 22 106zM168 42
q48 0 101.5 93t76.5 212q-14 112 -72 112q-53 0 -100.5 -102.5t-47.5 -242.5q0 -72 42 -72zM459 615q0 -19 -15 -34t-33 -15q-19 0 -33.5 15t-14.5 34q0 20 14.5 35.5t33.5 15.5q18 0 33 -15.5t15 -35.5zM296 615q0 -20 -14 -34.5t-33 -14.5t-33.5 15t-14.5 34
q0 20 14.5 35.5t33.5 15.5t33 -15.5t14 -35.5z" />
    <glyph glyph-name="aring" unicode="&#xe5;" horiz-adv-x="535" 
d="M344 183h-24q-91 -195 -174 -195q-50 0 -79.5 37.5t-29.5 98.5q0 147 69.5 256.5t167.5 109.5q31 0 54.5 -27.5t33.5 -77.5l42 95h63l-79 -348q-6 -25 -6 -47q0 -51 35 -51q62 0 70 129q5 -1 13 -1h12q-9 -86 -35.5 -127.5t-75.5 -41.5q-79 0 -79 84q0 41 22 106zM168 42
q48 0 101.5 93t76.5 212q-14 112 -72 112q-53 0 -100.5 -102.5t-47.5 -242.5q0 -72 42 -72zM235 618q0 38 26.5 65.5t63.5 27.5t63 -27.5t26 -65.5t-26 -65.5t-63 -27.5t-63.5 27.5t-26.5 65.5zM271 618q0 -23 14.5 -38t38.5 -15t38.5 15t14.5 38t-15 39t-38 16
q-24 0 -38.5 -16t-14.5 -39z" />
    <glyph glyph-name="ae" unicode="&#xe6;" horiz-adv-x="709" 
d="M685 389q0 -114 -273 -224q-5 -71 24 -103.5t71 -32.5q41 0 82.5 40t64.5 86q5 -4 12 -8t11 -6q-82 -153 -191 -153q-152 0 -163 165h-17q-41 -77 -79.5 -121t-81.5 -44q-50 0 -79.5 37.5t-29.5 98.5q0 147 69.5 256.5t167.5 109.5q31 0 54.5 -28t33.5 -79l38 97h42
l-10 -45q69 55 136 55q55 0 86.5 -27t31.5 -74zM167 42q48 0 101.5 93t76.5 212q-14 112 -72 112q-53 0 -100.5 -102.5t-47.5 -242.5q0 -72 42 -72zM607 405q0 51 -51 51q-57 0 -99.5 -78t-45.5 -185q103 46 149.5 97.5t46.5 114.5z" />
    <glyph glyph-name="ccedilla" unicode="&#xe7;" horiz-adv-x="409" 
d="M130 -220l-7 21q39 8 63.5 25t24.5 39t-16 33t-41 11q-19 0 -27 -1l-3 4l49 77q-146 8 -136 184q7 132 82.5 224.5t167.5 92.5q46 0 75 -33t26 -83q-1 -27 -22 -43.5t-52 -20.5v37q0 107 -43 107q-56 0 -97.5 -74.5t-47.5 -208.5q-8 -142 72 -142q45 0 85.5 41.5
t61.5 90.5q7 -5 23 -13q-66 -133 -157 -156l-27 -41q35 0 58 -18t23 -53q0 -36 -39 -63.5t-96 -36.5z" />
    <glyph glyph-name="egrave" unicode="&#xe8;" horiz-adv-x="425" 
d="M400 389q0 -115 -272 -224q-5 -71 24 -103.5t71 -32.5q40 0 82 40t65 86q5 -4 11.5 -7.5t10.5 -6.5q-33 -63 -81.5 -108t-108.5 -45q-164 0 -164 187q0 135 74.5 225t169.5 90q56 0 87 -27t31 -74zM323 405q0 51 -52 51q-57 0 -99 -78t-45 -185q103 46 149.5 97.5
t46.5 114.5zM321 550v-5h-37l-114 163l1 -1v8h83q3 -8 28 -70.5t39 -94.5z" />
    <glyph glyph-name="eacute" unicode="&#xe9;" horiz-adv-x="425" 
d="M399 389q0 -115 -272 -224q-5 -71 24 -103.5t71 -32.5q40 0 82 40t65 86q5 -4 11.5 -7.5t10.5 -6.5q-33 -63 -81.5 -108t-108.5 -45q-164 0 -164 187q0 135 74.5 225t169.5 90q56 0 87 -27t31 -74zM322 405q0 51 -52 51q-57 0 -99 -78t-45 -185q103 46 149.5 97.5
t46.5 114.5zM231 545v6l112 164h82v-8l1 1q-27 -31 -79.5 -88t-69.5 -75h-46zM230 550l1 2v-1z" />
    <glyph glyph-name="ecircumflex" unicode="&#xea;" horiz-adv-x="425" 
d="M400 389q0 -115 -272 -224q-5 -71 24 -103.5t71 -32.5q40 0 82 40t65 86q5 -4 11.5 -7.5t10.5 -6.5q-33 -63 -81.5 -108t-108.5 -45q-164 0 -164 187q0 135 74.5 225t169.5 90q56 0 87 -27t31 -74zM323 405q0 51 -52 51q-57 0 -99 -78t-45 -185q103 46 149.5 97.5
t46.5 114.5zM401 550v-5h-31l-53 103l-111 -103h-47v7l151 163h40z" />
    <glyph glyph-name="edieresis" unicode="&#xeb;" horiz-adv-x="425" 
d="M399 389q0 -115 -272 -224q-5 -71 24 -103.5t71 -32.5q40 0 82 40t65 86q5 -4 11.5 -7.5t10.5 -6.5q-33 -63 -81.5 -108t-108.5 -45q-164 0 -164 187q0 135 74.5 225t169.5 90q56 0 87 -27t31 -74zM322 405q0 51 -52 51q-57 0 -99 -78t-45 -185q103 46 149.5 97.5
t46.5 114.5zM433 615q0 -19 -15 -34t-33 -15q-19 0 -33.5 15t-14.5 34q0 20 14.5 35.5t33.5 15.5q18 0 33 -15.5t15 -35.5zM270 615q0 -20 -14 -34.5t-33 -14.5t-34 15t-15 34q0 20 15 35.5t34 15.5t33 -15.5t14 -35.5z" />
    <glyph glyph-name="igrave" unicode="&#xec;" horiz-adv-x="320" 
d="M227 358l-65 -251q-7 -30 5.5 -53t30.5 -20q19 3 40 35.5t23 92.5q5 0 13.5 -0.5t12.5 -0.5q-14 -91 -39.5 -129.5t-75.5 -38.5q-42 0 -64.5 28t-22.5 72q0 21 6 43q6 24 61 233q3 11 3 32q0 47 -20 47q-53 0 -81 -135q-5 1 -11.5 3t-9.5 3q13 73 46 122t74 49
q40 0 59.5 -25.5t19.5 -65.5q0 -19 -5 -41zM245 550v-5h-36l-114 163l1 -1v8h82q14 -32 39 -94.5t28 -70.5z" />
    <glyph glyph-name="iacute" unicode="&#xed;" horiz-adv-x="320" 
d="M226 358l-65 -251q-7 -30 5.5 -53t30.5 -20q19 3 40 35.5t23 92.5q5 0 13.5 -0.5t12.5 -0.5q-14 -91 -39.5 -129.5t-75.5 -38.5q-42 0 -64.5 28t-22.5 72q0 21 6 43q6 24 61 233q3 11 3 32q0 47 -20 47q-53 0 -81 -135q-5 1 -11.5 3t-9.5 3q13 73 46 122t74 49
q40 0 59.5 -25.5t19.5 -65.5q0 -19 -5 -41zM155 545v6l112 164h83v-8l1 1q-17 -18 -69.5 -75t-79.5 -88h-47zM154 550l1 2v-1z" />
    <glyph glyph-name="icircumflex" unicode="&#xee;" horiz-adv-x="320" 
d="M227 358l-65 -251q-7 -30 5.5 -53t30.5 -20q19 3 40 35.5t23 92.5q5 0 13.5 -0.5t12.5 -0.5q-14 -91 -39.5 -129.5t-75.5 -38.5q-42 0 -64.5 28t-22.5 72q0 21 6 43q6 24 61 233q3 11 3 32q0 47 -20 47q-53 0 -81 -135q-5 1 -11.5 3t-9.5 3q13 73 46 122t74 49
q40 0 59.5 -25.5t19.5 -65.5q0 -19 -5 -41zM326 550v-5h-32l-53 103l-111 -103h-46v7l150 163h40z" />
    <glyph glyph-name="idieresis" unicode="&#xef;" horiz-adv-x="320" 
d="M227 358l-65 -251q-7 -30 5.5 -53t30.5 -20q19 3 40 35.5t23 92.5q5 0 13.5 -0.5t12.5 -0.5q-14 -91 -39.5 -129.5t-75.5 -38.5q-42 0 -64.5 28t-22.5 72q0 21 6 43q6 24 61 233q3 11 3 32q0 47 -20 47q-53 0 -81 -135q-5 1 -11.5 3t-9.5 3q13 73 46 122t74 49
q40 0 59.5 -25.5t19.5 -65.5q0 -19 -5 -41zM358 615q0 -19 -14.5 -34t-32.5 -15q-19 0 -34 15t-15 34q0 20 15 35.5t34 15.5q18 0 32.5 -15.5t14.5 -35.5zM196 615q0 -20 -14.5 -34.5t-33.5 -14.5t-33.5 15t-14.5 34q0 20 14.5 35.5t33.5 15.5t33.5 -15.5t14.5 -35.5z" />
    <glyph glyph-name="eth" unicode="&#xf0;" horiz-adv-x="470" 
d="M152 569l97 65q-46 53 -86 81l14 25q65 -34 111 -81l101 68q5 -8 13 -19.5t10 -14.5l-95 -64q116 -139 116 -339q0 -49 -13 -100t-38.5 -97.5t-69 -75.5t-97.5 -29q-83 0 -130.5 50.5t-47.5 146.5q0 123 66.5 214t157.5 91q33 0 70 -14q-15 63 -57 126l-99 -67
q-5 8 -13 19.5t-10 14.5zM344 330q0 123 -77 123q-47 0 -80.5 -45.5t-47 -109.5t-13.5 -138q0 -73 21 -104.5t62 -31.5q36 0 63.5 29t42.5 76t22 97.5t7 103.5z" />
    <glyph glyph-name="ntilde" unicode="&#xf1;" horiz-adv-x="572" 
d="M154 21l-39 -21h-48l76 370q4 26 4 39q0 40 -28 40q-21 0 -44 -36.5t-33 -101.5l-20 3q12 78 40 127t74 49q71 0 71 -88q0 -49 -24 -121h20q37 82 89 145.5t98 63.5q89 0 89 -110q0 -62 -32 -171q-28 -98 -28 -134q0 -46 34 -46q28 0 51 45t24 89q14 -2 23 -2
q-6 -68 -33.5 -118t-79.5 -50q-95 0 -95 103q0 42 17 102q38 132 38 189q0 43 -19 62q-35 0 -75 -46.5t-68 -102.5t-47 -112zM460 676l17 -8q-14 -46 -41.5 -80t-51.5 -34q-12 0 -58 30q-48 30 -65 30q-12 0 -22 -9.5t-15 -18.5t-15 -32q-3 1 -10 3t-10 4q12 38 40 77.5
t44 39.5q14 0 61 -32q44 -30 64 -30q17 0 35.5 19t26.5 41z" />
    <glyph glyph-name="ograve" unicode="&#xf2;" horiz-adv-x="470" 
d="M435 307q0 -124 -68 -221.5t-166 -97.5q-79 0 -124 46t-45 132q0 129 73.5 226.5t167.5 97.5q77 0 119.5 -50.5t42.5 -132.5zM348 330v18q0 105 -71 105q-49 0 -86 -49.5t-54 -120t-17 -146.5q0 -113 77 -113q47 0 81.5 51t50 117t19.5 138zM309 550v-5h-37l-114 163
l1 -1v8h83q3 -8 28 -70.5t39 -94.5z" />
    <glyph glyph-name="oacute" unicode="&#xf3;" horiz-adv-x="470" 
d="M435 307q0 -124 -68 -221.5t-166 -97.5q-79 0 -124 46t-45 132q0 129 73.5 226.5t167.5 97.5q77 0 119.5 -50.5t42.5 -132.5zM348 330v18q0 105 -71 105q-49 0 -86 -49.5t-54 -120t-17 -146.5q0 -113 77 -113q47 0 81.5 51t50 117t19.5 138zM220 545v6l112 164h82v-8l1 1
q-27 -31 -79.5 -88t-69.5 -75h-46zM219 550l1 2v-1z" />
    <glyph glyph-name="ocircumflex" unicode="&#xf4;" horiz-adv-x="470" 
d="M435 307q0 -124 -68 -221.5t-166 -97.5q-79 0 -124 46t-45 132q0 129 73.5 226.5t167.5 97.5q77 0 119.5 -50.5t42.5 -132.5zM348 330v18q0 105 -71 105q-49 0 -86 -49.5t-54 -120t-17 -146.5q0 -113 77 -113q47 0 81.5 51t50 117t19.5 138zM389 550v-5h-31l-53 103
l-111 -103h-47v7l150 163h41z" />
    <glyph glyph-name="otilde" unicode="&#xf5;" horiz-adv-x="470" 
d="M435 307q0 -124 -68 -221.5t-166 -97.5q-79 0 -124 46t-45 132q0 129 73.5 226.5t167.5 97.5q77 0 119.5 -50.5t42.5 -132.5zM348 330v18q0 105 -71 105q-49 0 -86 -49.5t-54 -120t-17 -146.5q0 -113 77 -113q47 0 81.5 51t50 117t19.5 138zM409 676l17 -8
q-14 -46 -41 -80t-51 -34q-13 0 -59 30t-64 30q-17 0 -28 -14t-25 -46q-3 1 -10 3t-10 4q12 38 40.5 77.5t44.5 39.5q13 0 60 -32q46 -30 65 -30q17 0 35 19t26 41z" />
    <glyph glyph-name="odieresis" unicode="&#xf6;" horiz-adv-x="470" 
d="M435 307q0 -124 -68 -221.5t-166 -97.5q-79 0 -124 46t-45 132q0 129 73.5 226.5t167.5 97.5q77 0 119.5 -50.5t42.5 -132.5zM348 330v18q0 105 -71 105q-49 0 -86 -49.5t-54 -120t-17 -146.5q0 -113 77 -113q47 0 81.5 51t50 117t19.5 138zM259 615q0 -20 -14 -34.5
t-33 -14.5t-34 15t-15 34q0 20 15 35.5t34 15.5t33 -15.5t14 -35.5zM421 615q0 -19 -14.5 -34t-32.5 -15q-19 0 -33.5 15t-14.5 34q0 20 14.5 35.5t33.5 15.5q18 0 32.5 -15.5t14.5 -35.5z" />
    <glyph glyph-name="divide" unicode="&#xf7;" horiz-adv-x="620" 
d="M570 230h-520v60h520v-60zM258 109q0 22 14.5 37t36.5 15t37 -15t15 -37t-15 -36.5t-37 -14.5t-36.5 14.5t-14.5 36.5zM258 411q0 22 14.5 37t36.5 15t37 -15t15 -37t-15 -36.5t-37 -14.5t-36.5 14.5t-14.5 36.5z" />
    <glyph glyph-name="oslash" unicode="&#xf8;" horiz-adv-x="470" 
d="M435 307q0 -124 -68 -221.5t-166 -97.5q-50 0 -94 22l-33 -47h-44l49 69q-47 47 -47 134q0 129 73.5 226.5t167.5 97.5q52 0 97 -31l34 50h45l-53 -75q39 -51 39 -127zM120 137q0 -22 2 -40l216 315q-15 41 -61 41q-49 0 -86 -49.5t-54 -120t-17 -146.5zM348 330v32
l-212 -308q19 -30 61 -30q47 0 81.5 51t50 117t19.5 138z" />
    <glyph glyph-name="ugrave" unicode="&#xf9;" horiz-adv-x="565" 
d="M356 158l-15 3q-38 -75 -84.5 -124t-82.5 -49q-43 0 -69 32.5t-26 87.5q0 48 38 175l3 9q26 87 26 117q0 41 -31 41q-23 0 -44 -37.5t-32 -97.5q-4 1 -9.5 1h-7.5q34 174 106 174q88 0 88 -96q0 -46 -23 -128q-36 -124 -36 -179q0 -44 23 -63q34 0 73.5 48t67.5 106
t46 114q11 46 35 165q0 4 2 12t3 11h85l-78 -368q-4 -22 -4 -32q0 -44 36 -44q29 0 50 34.5t30 94.5q10 -2 17 -2q-8 -76 -36 -123t-76 -47q-82 0 -82 102q0 32 7 63zM345 550v-5h-36l-114 163l1 -1v8h82z" />
    <glyph glyph-name="uacute" unicode="&#xfa;" horiz-adv-x="565" 
d="M356 158l-15 3q-38 -75 -84.5 -124t-82.5 -49q-43 0 -69 32.5t-26 87.5q0 48 38 175l3 9q26 87 26 117q0 41 -31 41q-23 0 -44 -37.5t-32 -97.5q-4 1 -9.5 1h-7.5q34 174 106 174q88 0 88 -96q0 -46 -23 -128q-36 -124 -36 -179q0 -44 23 -63q34 0 73.5 48t67.5 106
t46 114q11 46 35 165q0 4 2 12t3 11h85l-78 -368q-4 -22 -4 -32q0 -44 36 -44q29 0 50 34.5t30 94.5q10 -2 17 -2q-8 -76 -36 -123t-76 -47q-82 0 -82 102q0 32 7 63zM256 545v6l112 164h83v-8l1 1q-24 -27 -75 -81.5t-75 -81.5h-46zM255 550l1 2v-1z" />
    <glyph glyph-name="ucircumflex" unicode="&#xfb;" horiz-adv-x="565" 
d="M356 158l-15 3q-38 -75 -84.5 -124t-82.5 -49q-43 0 -69 32.5t-26 87.5q0 48 38 175l3 9q26 87 26 117q0 41 -31 41q-23 0 -44 -37.5t-32 -97.5q-4 1 -9.5 1h-7.5q34 174 106 174q88 0 88 -96q0 -46 -23 -128q-36 -124 -36 -179q0 -44 23 -63q34 0 73.5 48t67.5 106
t46 114q11 46 35 165q0 4 2 12t3 11h85l-78 -368q-4 -22 -4 -32q0 -44 36 -44q29 0 50 34.5t30 94.5q10 -2 17 -2q-8 -76 -36 -123t-76 -47q-82 0 -82 102q0 32 7 63zM425 550v-5h-31l-53 103l-111 -103h-46v7l150 163h40z" />
    <glyph glyph-name="udieresis" unicode="&#xfc;" horiz-adv-x="565" 
d="M356 158l-15 3q-38 -75 -84.5 -124t-82.5 -49q-43 0 -69 32.5t-26 87.5q0 48 38 175l3 9q26 87 26 117q0 41 -31 41q-23 0 -44 -37.5t-32 -97.5q-4 1 -9.5 1h-7.5q34 174 106 174q88 0 88 -96q0 -46 -23 -128q-36 -124 -36 -179q0 -44 23 -63q34 0 73.5 48t67.5 106
t46 114q11 46 35 165q0 4 2 12t3 11h85l-78 -368q-4 -22 -4 -32q0 -44 36 -44q29 0 50 34.5t30 94.5q10 -2 17 -2q-8 -76 -36 -123t-76 -47q-82 0 -82 102q0 32 7 63zM458 615q0 -19 -15 -34t-33 -15q-19 0 -33.5 15t-14.5 34q0 20 14.5 35.5t33.5 15.5q18 0 33 -15.5
t15 -35.5zM295 615q0 -20 -14 -34.5t-33 -14.5t-33.5 15t-14.5 34q0 20 14.5 35.5t33.5 15.5t33 -15.5t14 -35.5z" />
    <glyph glyph-name="yacute" unicode="&#xfd;" horiz-adv-x="514" 
d="M356 158l-15 3q-38 -75 -84.5 -124t-82.5 -49q-90 0 -90 117q0 66 32 176q0 3 2.5 9t3.5 9q24 72 24 107q0 39 -31 39q-23 0 -44 -36.5t-32 -93.5q-4 1 -9.5 1h-7.5q34 174 106 174q90 0 90 -100q0 -42 -22 -124q-36 -124 -36 -175q0 -40 20 -67q34 0 73.5 48t67.5 106
t46 114q11 46 35 165q0 4 2 12t3 11h85q-15 -73 -43.5 -208.5t-34.5 -164.5v1q-21 -80 -51 -141t-61 -97t-67.5 -58.5t-67 -30.5t-62.5 -8q-31 0 -56 17.5t-25 48.5q0 24 15.5 40.5t41.5 18.5q12 -58 56 -88q66 0 119 77t100 271zM261 545v6l112 164h83v-8l1 1
q-17 -18 -69.5 -75t-79.5 -88h-47zM260 550l1 2v-1z" />
    <glyph glyph-name="thorn" unicode="&#xfe;" horiz-adv-x="529" 
d="M107 -198l-40 -19h-42l117 578l49 261q6 44 -8 63t-62 20v27l135 10h39l-23 -109l-70 -304l8 -1q80 162 163 162q56 0 87.5 -38t31.5 -111q0 -85 -29 -165.5t-84 -134t-120 -53.5q-69 0 -107 54zM400 360q0 89 -48 89q-38 0 -96 -101.5t-94 -258.5q9 -28 33.5 -46
t57.5 -18q55 0 101 89.5t46 245.5z" />
    <glyph glyph-name="ydieresis" unicode="&#xff;" horiz-adv-x="514" 
d="M356 158l-15 3q-38 -75 -84.5 -124t-82.5 -49q-90 0 -90 117q0 66 32 176q0 3 2.5 9t3.5 9q24 72 24 107q0 39 -31 39q-23 0 -44 -36.5t-32 -93.5q-4 1 -9.5 1h-7.5q34 174 106 174q90 0 90 -100q0 -42 -22 -124q-36 -124 -36 -175q0 -40 20 -67q34 0 73.5 48t67.5 106
t46 114q11 46 35 165q0 4 2 12t3 11h85q-15 -73 -43.5 -208.5t-34.5 -164.5v1q-21 -80 -51 -141t-61 -97t-67.5 -58.5t-67 -30.5t-62.5 -8q-31 0 -56 17.5t-25 48.5q0 24 15.5 40.5t41.5 18.5q12 -58 56 -88q66 0 119 77t100 271zM463 615q0 -19 -15 -34t-33 -15
q-19 0 -33.5 15t-14.5 34q0 20 14.5 35.5t33.5 15.5q18 0 33 -15.5t15 -35.5zM300 615q0 -20 -14 -34.5t-33 -14.5t-33.5 15t-14.5 34q0 20 14.5 35.5t33.5 15.5t33 -15.5t14 -35.5z" />
    <glyph glyph-name="Amacron" unicode="&#x100;" horiz-adv-x="720" 
d="M476 77l-22 128h-257l-71 -125q-6 -12 -6 -20.5t11 -14t30 -7.5t50 -2l-8 -36h-233l8 36q40 1 65.5 14.5t46.5 48.5q65 113 190.5 327t160.5 275h15l113 -608q8 -39 22.5 -48t64.5 -9l-8 -36h-280l8 36h22q57 0 69.5 6.5t8.5 34.5zM395 534l-10 1q-22 -38 -69.5 -121.5
t-72.5 -126.5l-22 -39h224zM588 792h-245v54h245v-54z" />
    <glyph glyph-name="amacron" unicode="&#x101;" horiz-adv-x="535" 
d="M344 183h-24q-91 -195 -174 -195q-50 0 -79.5 37.5t-29.5 98.5q0 147 69.5 256.5t167.5 109.5q31 0 54.5 -27.5t33.5 -77.5l42 95h63l-79 -348q-6 -25 -6 -47q0 -51 35 -51q62 0 70 129q5 -1 13 -1h12q-9 -86 -35.5 -127.5t-75.5 -41.5q-79 0 -79 84q0 41 22 106zM168 42
q48 0 101.5 93t76.5 212q-14 112 -72 112q-53 0 -100.5 -102.5t-47.5 -242.5q0 -72 42 -72zM441 578h-246v54h246v-54z" />
    <glyph glyph-name="Abreve" unicode="&#x102;" horiz-adv-x="720" 
d="M476 77l-22 128h-257l-71 -125q-6 -12 -6 -20.5t11 -14t30 -7.5t50 -2l-8 -36h-233l8 36q40 1 65.5 14.5t46.5 48.5q65 113 190.5 327t160.5 275h15l113 -608q8 -39 22.5 -48t64.5 -9l-8 -36h-280l8 36h22q57 0 69.5 6.5t8.5 34.5zM395 534l-10 1q-22 -38 -69.5 -121.5
t-72.5 -126.5l-22 -39h224zM458 749q-41 0 -64.5 25.5t-23.5 69.5q0 16 5 39h29q-6 -30 10 -51.5t51 -21.5q34 0 66 21t46 52h29q-23 -65 -64 -99.5t-84 -34.5z" />
    <glyph glyph-name="abreve" unicode="&#x103;" horiz-adv-x="535" 
d="M344 183h-24q-91 -195 -174 -195q-50 0 -79.5 37.5t-29.5 98.5q0 147 69.5 256.5t167.5 109.5q31 0 54.5 -27.5t33.5 -77.5l42 95h63l-79 -348q-6 -25 -6 -47q0 -51 35 -51q62 0 70 129q5 -1 13 -1h12q-9 -86 -35.5 -127.5t-75.5 -41.5q-79 0 -79 84q0 41 22 106zM168 42
q48 0 101.5 93t76.5 212q-14 112 -72 112q-53 0 -100.5 -102.5t-47.5 -242.5q0 -72 42 -72zM315 540q-33 0 -52.5 28.5t-19.5 77.5q0 21 4 44h30q-4 -38 7.5 -63.5t37.5 -25.5q30 0 57.5 25.5t39.5 63.5h29q-21 -72 -58 -111t-75 -39z" />
    <glyph glyph-name="Aogonek" unicode="&#x104;" horiz-adv-x="720" 
d="M476 77l-22 128h-257l-71 -125q-6 -12 -6 -20.5t11 -14t30 -7.5t50 -2l-8 -36h-233l8 36q40 1 65.5 14.5t46.5 48.5q65 113 190.5 327t160.5 275h15l113 -608q8 -39 22.5 -48t64.5 -9l-8 -36h-240q-62 -43 -62 -105q0 -64 50 -64q8 0 11 1v-29q-13 -3 -29 -3
q-37 0 -64.5 20t-27.5 56q0 68 82 123l8 37h22q57 0 69.5 6.5t8.5 34.5zM395 534l-10 1q-22 -38 -69.5 -121.5t-72.5 -126.5l-22 -39h224z" />
    <glyph glyph-name="aogonek" unicode="&#x105;" horiz-adv-x="535" 
d="M344 183h-24q-91 -195 -174 -195q-50 0 -79.5 37.5t-29.5 98.5q0 147 69.5 256.5t167.5 109.5q31 0 54.5 -27.5t33.5 -77.5l42 95h63l-79 -348q-6 -25 -6 -47q0 -51 35 -51q62 0 70 129q5 -1 13 -1h12q-17 -149 -88 -167q-56 -41 -56 -100q0 -64 50 -64q8 0 12 1v-30
q-15 -3 -30 -3q-37 0 -64.5 20.5t-27.5 56.5q0 64 74 119q-60 11 -60 81q0 42 22 107zM168 42q48 0 101.5 93t76.5 212q-14 112 -72 112q-53 0 -100.5 -102.5t-47.5 -242.5q0 -72 42 -72z" />
    <glyph glyph-name="Cacute" unicode="&#x106;" horiz-adv-x="684" 
d="M623 626l10 2l35 63h28l-51 -258h-32q4 95 -28.5 161t-111.5 66q-82 0 -152 -59t-110.5 -157t-40.5 -209q0 -205 175 -205q161 0 247 192h36l-61 -179l3 1q-44 -25 -108.5 -40.5t-128.5 -15.5q-126 0 -196 68t-70 189q0 94 35.5 179.5t93 145.5t132 95.5t149.5 35.5
q43 0 83 -20t63 -55zM438 749v6l-1 -1l100 129h87v-8l-143 -126h-43z" />
    <glyph glyph-name="cacute" unicode="&#x107;" horiz-adv-x="409" 
d="M270 454q-56 0 -97.5 -74.5t-47.5 -208.5q-8 -142 72 -142q45 0 85.5 41.5t61.5 90.5q7 -5 23 -13q-32 -65 -80 -112.5t-107 -47.5q-154 0 -144 185q7 132 82.5 224.5t167.5 92.5q46 0 75 -33t26 -83q-1 -27 -22 -43.5t-52 -20.5v37q0 107 -43 107zM232 545v6l112 164h82
v-8l2 1q-25 -27 -75.5 -81.5t-74.5 -81.5h-46zM231 550l1 2v-1z" />
    <glyph glyph-name="Ccircumflex" unicode="&#x108;" horiz-adv-x="684" 
d="M623 626l10 2l35 63h28l-51 -258h-32q4 95 -28.5 161t-111.5 66q-82 0 -152 -59t-110.5 -157t-40.5 -209q0 -205 175 -205q161 0 247 192h36l-61 -179l3 1q-44 -25 -108.5 -40.5t-128.5 -15.5q-126 0 -196 68t-70 189q0 94 35.5 179.5t93 145.5t132 95.5t149.5 35.5
q43 0 83 -20t63 -55zM634 755v-6h-39l-72 79l-133 -79h-38v6l160 128h42l81 -129z" />
    <glyph glyph-name="ccircumflex" unicode="&#x109;" horiz-adv-x="409" 
d="M271 454q-56 0 -97.5 -74.5t-47.5 -208.5q-8 -142 72 -142q45 0 85.5 41.5t61.5 90.5q7 -5 23 -13q-32 -65 -80 -112.5t-107 -47.5q-154 0 -144 185q7 132 82.5 224.5t167.5 92.5q46 0 75 -33t26 -83q-1 -27 -22 -43.5t-52 -20.5v37q0 107 -43 107zM402 550v-5h-31
l-53 103l-111 -103h-47v7l151 163h40z" />
    <glyph glyph-name="Cdotaccent" unicode="&#x10a;" horiz-adv-x="684" 
d="M623 626l10 2l35 63h28l-51 -258h-32q4 95 -28.5 161t-111.5 66q-82 0 -152 -59t-110.5 -157t-40.5 -209q0 -205 175 -205q161 0 247 192h36l-61 -179l3 1q-44 -25 -108.5 -40.5t-128.5 -15.5q-126 0 -196 68t-70 189q0 94 35.5 179.5t93 145.5t132 95.5t149.5 35.5
q43 0 83 -20t63 -55zM466 814q0 26 17 49t42 23q17 0 29 -15.5t12 -37.5q0 -26 -18.5 -48t-40.5 -22q-18 0 -29.5 15t-11.5 36z" />
    <glyph glyph-name="cdotaccent" unicode="&#x10b;" horiz-adv-x="409" 
d="M271 454q-56 0 -97.5 -74.5t-47.5 -208.5q-8 -142 72 -142q45 0 85.5 41.5t61.5 90.5q7 -5 23 -13q-32 -65 -80 -112.5t-107 -47.5q-154 0 -144 185q7 132 82.5 224.5t167.5 92.5q46 0 75 -33t26 -83q-1 -27 -22 -43.5t-52 -20.5v37q0 107 -43 107zM251 615
q0 26 17.5 49.5t42.5 23.5q17 0 29 -16t12 -38q0 -26 -18.5 -47.5t-41.5 -21.5q-18 0 -29.5 14.5t-11.5 35.5z" />
    <glyph glyph-name="Ccaron" unicode="&#x10c;" horiz-adv-x="684" 
d="M623 626l10 2l35 63h28l-51 -258h-32q4 95 -28.5 161t-111.5 66q-82 0 -152 -59t-110.5 -157t-40.5 -209q0 -205 175 -205q161 0 247 192h36l-61 -179l3 1q-44 -25 -108.5 -40.5t-128.5 -15.5q-126 0 -196 68t-70 189q0 94 35.5 179.5t93 145.5t132 95.5t149.5 35.5
q43 0 83 -20t63 -55zM392 877v6h39l72 -78l133 78h38v-6l-160 -128h-42l-81 129z" />
    <glyph glyph-name="ccaron" unicode="&#x10d;" horiz-adv-x="409" 
d="M270 454q-56 0 -97.5 -74.5t-47.5 -208.5q-8 -142 72 -142q45 0 85.5 41.5t61.5 90.5q7 -5 23 -13q-32 -65 -80 -112.5t-107 -47.5q-154 0 -144 185q7 132 82.5 224.5t167.5 92.5q46 0 75 -33t26 -83q-1 -27 -22 -43.5t-52 -20.5v37q0 107 -43 107zM207 710v5h30l54 -103
l111 103h47v-6l-151 -164h-40z" />
    <glyph glyph-name="Dcaron" unicode="&#x10e;" horiz-adv-x="761" 
d="M736 424q0 -190 -124.5 -307t-319.5 -117h-309l8 36q68 2 86 7.5t24 28.5q19 92 58 276t58 275q1 4 1 11q0 15 -17.5 18.5t-78.5 3.5q1 5 4 17.5t4 17.5h307q82 0 142.5 -23t93.5 -62t48 -84.5t15 -97.5zM188 36h110q73 2 131 27.5t95 66t61.5 93.5t34.5 105.5t10 106.5
q0 103 -55 162t-175 59h-81zM333 877v6h38l73 -78q102 60 132 78h39v-6l-160 -128h-43l-80 129z" />
    <glyph glyph-name="dcaron" unicode="&#x10f;" horiz-adv-x="542" 
d="M341 182l-19 1q-37 -89 -84 -142t-90 -53q-51 0 -81.5 34.5t-30.5 101.5q0 151 72 258.5t170 107.5q28 0 51 -25t29 -65h16q4 25 22 136q4 29 17 104q6 37 -12 51.5t-60 15.5v25l141 10h35l-38 -169q-41 -184 -76 -403l-12 -73q-4 -28 7.5 -45.5t28.5 -17.5q27 0 46 35.5
t22 93.5q5 -1 12.5 -1h11.5q-6 -77 -35.5 -123t-69.5 -46q-85 0 -85 97q0 41 12 92zM125 109q0 -72 46 -72q43 0 99 95.5t80 214.5q-21 111 -72 111q-55 0 -104 -103.5t-49 -245.5zM549 531v5l56 200h75v-7l-95 -198h-36z" />
    <glyph glyph-name="Dcroat" unicode="&#x110;" horiz-adv-x="761" 
d="M736 424q0 -190 -124.5 -307t-319.5 -117h-309l8 36q68 2 86 7.5t24 28.5l53 256h-90q2 8 5 24.5t5 24.5h91l52 246q1 3 1 11q0 15 -17.5 18.5t-78.5 3.5q1 5 4 17.5t4 17.5h307q82 0 142.5 -23t93.5 -62t48 -84.5t15 -97.5zM188 36h110q73 2 131 27.5t95 66t61.5 93.5
t34.5 105.5t10 106.5q0 103 -55 162t-175 59h-81l-58 -279h187q-2 -8 -5 -24.5t-5 -24.5h-189z" />
    <glyph glyph-name="dcroat" unicode="&#x111;" horiz-adv-x="542" 
d="M255 603h153l6 37q6 37 -12 51.5t-60 15.5v25l141 10h35l-31 -139h52v-46h-63q-30 -136 -71 -382l-13 -78q-4 -28 7.5 -45.5t28.5 -17.5q27 0 46 35.5t22 93.5q5 -1 12.5 -1h11.5q-6 -77 -35.5 -123t-69.5 -46q-85 0 -85 97q0 41 12 92l-20 1q-37 -89 -84 -142t-89 -53
q-51 0 -81.5 34.5t-30.5 101.5q0 151 72 258.5t170 107.5q28 0 51 -25t29 -65h16q4 23 25 157h-145v46zM126 109q0 -72 46 -72q43 0 99 95.5t80 214.5q-21 111 -72 111q-55 0 -104 -103.5t-49 -245.5z" />
    <glyph glyph-name="Emacron" unicode="&#x112;" horiz-adv-x="661" 
d="M619 244l-65 -244h-571l8 36q66 0 85 5t24 26l117 556q4 20 -15 26.5t-80 6.5q1 5 4 17.5t4 17.5h541q-6 -36 -18 -107t-17 -107h-29q1 13 1 34q0 81 -25.5 113t-90.5 32h-173l-63 -297h80q107 0 135 138h24l-66 -310h-24q8 37 8 67q0 39 -20.5 52.5t-71.5 13.5h-74
l-59 -284h197q74 0 130 64t73 144h31zM573 792h-245v54h245v-54z" />
    <glyph glyph-name="emacron" unicode="&#x113;" horiz-adv-x="425" 
d="M400 389q0 -115 -272 -224q-5 -71 24 -103.5t71 -32.5q40 0 82 40t65 86q5 -4 11.5 -7.5t10.5 -6.5q-33 -63 -81.5 -108t-108.5 -45q-164 0 -164 187q0 135 74.5 225t169.5 90q56 0 87 -27t31 -74zM323 405q0 51 -52 51q-57 0 -99 -78t-45 -185q103 46 149.5 97.5
t46.5 114.5zM415 578h-246v54h246v-54z" />
    <glyph glyph-name="Edotaccent" unicode="&#x116;" horiz-adv-x="661" 
d="M619 244l-65 -244h-571l8 36q66 0 85 5t24 26l117 556q4 20 -15 26.5t-80 6.5q1 5 4 17.5t4 17.5h541q-6 -36 -18 -107t-17 -107h-29q1 13 1 34q0 81 -25.5 113t-90.5 32h-173l-63 -297h80q107 0 135 138h24l-66 -310h-24q8 37 8 67q0 39 -20.5 52.5t-71.5 13.5h-74
l-59 -284h197q74 0 130 64t73 144h31zM410 814q0 26 17.5 49t42.5 23q17 0 29 -15.5t12 -37.5q0 -26 -18.5 -48t-40.5 -22q-18 0 -30 15t-12 36z" />
    <glyph glyph-name="edotaccent" unicode="&#x117;" horiz-adv-x="425" 
d="M400 389q0 -115 -272 -224q-5 -71 24 -103.5t71 -32.5q40 0 82 40t65 86q5 -4 11.5 -7.5t10.5 -6.5q-33 -63 -81.5 -108t-108.5 -45q-164 0 -164 187q0 135 74.5 225t169.5 90q56 0 87 -27t31 -74zM323 405q0 51 -52 51q-57 0 -99 -78t-45 -185q103 46 149.5 97.5
t46.5 114.5zM250 615q0 26 17.5 49.5t42.5 23.5q17 0 29 -16t12 -38q0 -26 -18.5 -47.5t-41.5 -21.5q-18 0 -29.5 14.5t-11.5 35.5z" />
    <glyph glyph-name="Eogonek" unicode="&#x118;" horiz-adv-x="661" 
d="M619 244l-65 -244h-29q-62 -43 -62 -105q0 -64 50 -64q8 0 11 1v-29q-13 -3 -29 -3q-38 0 -65.5 20t-27.5 56q0 69 84 124h-503l8 36q66 0 85 5t24 26l117 556q4 20 -15 26.5t-80 6.5q1 5 4 17.5t4 17.5h541q-6 -36 -18 -107t-17 -107h-29q1 13 1 34q0 81 -25.5 113
t-90.5 32h-173l-63 -297h80q107 0 135 138h24l-66 -310h-24q8 37 8 67q0 39 -20.5 52.5t-71.5 13.5h-74l-59 -284h197q74 0 130 64t73 144h31z" />
    <glyph glyph-name="eogonek" unicode="&#x119;" horiz-adv-x="425" 
d="M400 389q0 -115 -272 -224q-5 -71 24 -103.5t71 -32.5q40 0 82 40t65 86q5 -4 11.5 -7.5t10.5 -6.5q-60 -111 -133 -141q-63 -42 -63 -106t50 -64q8 0 11 1v-30q-14 -3 -29 -3q-38 0 -65.5 20.5t-27.5 56.5q0 61 67 113q-164 5 -164 187q0 135 74.5 225t169.5 90
q56 0 87 -27t31 -74zM323 405q0 51 -52 51q-57 0 -99 -78t-45 -185q103 46 149.5 97.5t46.5 114.5z" />
    <glyph glyph-name="Ecaron" unicode="&#x11a;" horiz-adv-x="661" 
d="M619 244l-65 -244h-571l8 36q66 0 85 5t24 26l117 556q4 20 -15 26.5t-80 6.5q1 5 4 17.5t4 17.5h541q-6 -36 -18 -107t-17 -107h-29q1 13 1 34q0 81 -25.5 113t-90.5 32h-173l-63 -297h80q107 0 135 138h24l-66 -310h-24q8 37 8 67q0 39 -20.5 52.5t-71.5 13.5h-74
l-59 -284h197q74 0 130 64t73 144h31zM337 877v6h38l73 -78q102 60 132 78h39v-6l-160 -128h-43l-80 129z" />
    <glyph glyph-name="ecaron" unicode="&#x11b;" horiz-adv-x="425" 
d="M399 389q0 -115 -272 -224q-5 -71 24 -103.5t71 -32.5q40 0 82 40t65 86q5 -4 11.5 -7.5t10.5 -6.5q-33 -63 -81.5 -108t-108.5 -45q-164 0 -164 187q0 135 74.5 225t169.5 90q56 0 87 -27t31 -74zM322 405q0 51 -52 51q-57 0 -99 -78t-45 -185q103 46 149.5 97.5
t46.5 114.5zM206 710v5h30l54 -103l111 103h47v-6l-151 -164h-40z" />
    <glyph glyph-name="Gcircumflex" unicode="&#x11c;" horiz-adv-x="727" 
d="M627 226l-51 -231h-16l-35 88q-90 -95 -208 -95q-103 0 -176.5 64.5t-73.5 179.5q0 108 37.5 199.5t97.5 149t130 89t139 31.5q100 0 160 -71h13l36 56h26q-8 -40 -23.5 -119.5t-23.5 -119.5h-26q-2 53 -18.5 99t-55.5 80t-94 34q-84 0 -152.5 -65t-104.5 -161.5
t-36 -199.5q0 -98 43 -151.5t123 -53.5q101 0 173 98l21 98q0 1 0.5 3.5t0.5 3.5q3 12 3 22q0 24 -16.5 29.5t-70.5 5.5l7 30h273l-7 -30q-55 0 -70 -10t-25 -53zM609 755v-6h-39l-72 79q-86 -50 -133 -79h-38v6l160 128h42l81 -129z" />
    <glyph glyph-name="gcircumflex" unicode="&#x11d;" horiz-adv-x="455" 
d="M247 490q67 0 116 -41l64 38h43q-2 -6 -13 -57h-77q21 -33 21 -73q0 -77 -43 -122t-104 -57q-53 -10 -80.5 -30t-47.5 -51l45 -14q39 -12 57.5 -17.5t49 -16t44 -16.5t34 -15.5t29.5 -17.5t19 -18.5t13.5 -22t3.5 -24.5q0 -64 -69.5 -113t-175.5 -49q-82 0 -139 27.5
t-57 80.5q0 41 41 74.5t97 57.5v13q-42 29 -42 74l-1 -1q22 42 86 77v12q-45 15 -71 46t-26 73q0 70 54 126.5t129 56.5zM349 -95q0 21 -18.5 36.5t-62.5 29.5l-112 34q-57 -20 -85.5 -54t-28.5 -63q0 -43 42.5 -63.5t107.5 -20.5q70 0 113.5 29t43.5 72zM320 343
q0 56 -21 85.5t-58 29.5q-45 0 -70.5 -41t-25.5 -113q0 -95 78 -95q39 0 68 34t29 100zM390 550v-5h-31l-53 103l-111 -103h-47v7l150 163h41z" />
    <glyph glyph-name="Gbreve" unicode="&#x11e;" horiz-adv-x="727" 
d="M627 226l-51 -231h-16l-35 88q-90 -95 -208 -95q-103 0 -176.5 64.5t-73.5 179.5q0 108 37.5 199.5t97.5 149t130 89t139 31.5q100 0 160 -71h13l36 56h26q-8 -40 -23.5 -119.5t-23.5 -119.5h-26q-2 53 -18.5 99t-55.5 80t-94 34q-84 0 -152.5 -65t-104.5 -161.5
t-36 -199.5q0 -98 43 -151.5t123 -53.5q101 0 173 98l21 98q0 1 0.5 3.5t0.5 3.5q3 12 3 22q0 24 -16.5 29.5t-70.5 5.5l7 30h273l-7 -30q-55 0 -70 -10t-25 -53zM473 749q-41 0 -64.5 25.5t-23.5 69.5q0 16 5 39h29q-6 -30 10 -51.5t51 -21.5q34 0 66 21t46 52h29
q-23 -65 -64 -99.5t-84 -34.5z" />
    <glyph glyph-name="gbreve" unicode="&#x11f;" horiz-adv-x="455" 
d="M247 490q67 0 116 -41l64 38h43q-2 -6 -13 -57h-77q21 -33 21 -73q0 -77 -43 -122t-104 -57q-53 -10 -80.5 -30t-47.5 -51l45 -14q39 -12 57.5 -17.5t49 -16t44 -16.5t34 -15.5t29.5 -17.5t19 -18.5t13.5 -22t3.5 -24.5q0 -64 -69.5 -113t-175.5 -49q-82 0 -139 27.5
t-57 80.5q0 41 41 74.5t97 57.5v13q-42 29 -42 74l-1 -1q22 42 86 77v12q-45 15 -71 46t-26 73q0 70 54 126.5t129 56.5zM349 -95q0 21 -18.5 36.5t-62.5 29.5l-112 34q-57 -20 -85.5 -54t-28.5 -63q0 -43 42.5 -63.5t107.5 -20.5q70 0 113.5 29t43.5 72zM320 343
q0 56 -21 85.5t-58 29.5q-45 0 -70.5 -41t-25.5 -113q0 -95 78 -95q39 0 68 34t29 100zM278 540q-32 0 -51.5 28.5t-19.5 77.5q0 21 4 44h30q-4 -38 7.5 -63.5t36.5 -25.5q31 0 58.5 25.5t39.5 63.5h28q-20 -73 -57 -111.5t-76 -38.5z" />
    <glyph glyph-name="Gdotaccent" unicode="&#x120;" horiz-adv-x="727" 
d="M627 226l-50 -231h-17l-35 88q-90 -95 -208 -95q-103 0 -176.5 64.5t-73.5 179.5q0 108 37.5 199.5t97.5 149t130 89t139 31.5q100 0 160 -71h13l36 56h26q-8 -40 -23.5 -119.5t-23.5 -119.5h-26q-2 53 -18.5 99t-55.5 80t-94 34q-84 0 -152.5 -65t-104.5 -161.5
t-36 -199.5q0 -98 43 -151.5t123 -53.5q101 0 173 98l21 98q0 1 0.5 3.5t0.5 3.5q3 12 3 22q0 24 -16.5 29.5t-70.5 5.5l7 30h273l-7 -30q-55 0 -70 -10t-25 -53zM441 814q0 26 17 49t42 23q17 0 29 -15.5t12 -37.5q0 -26 -18.5 -48t-40.5 -22q-18 0 -29.5 15t-11.5 36z" />
    <glyph glyph-name="gdotaccent" unicode="&#x121;" horiz-adv-x="455" 
d="M247 490q67 0 116 -41l64 38h43q-2 -6 -13 -57h-77q21 -33 21 -73q0 -77 -43 -122t-104 -57q-53 -10 -80.5 -30t-47.5 -51l45 -14q39 -12 57.5 -17.5t49 -16t44 -16.5t34 -15.5t29.5 -17.5t19 -18.5t13.5 -22t3.5 -24.5q0 -64 -69.5 -113t-175.5 -49q-82 0 -139 27.5
t-57 80.5q0 41 41 74.5t97 57.5v13q-42 29 -42 74l-1 -1q22 42 86 77v12q-45 15 -71 46t-26 73q0 70 54 126.5t129 56.5zM349 -95q0 21 -18.5 36.5t-62.5 29.5l-112 34q-57 -20 -85.5 -54t-28.5 -63q0 -43 42.5 -63.5t107.5 -20.5q70 0 113.5 29t43.5 72zM320 343
q0 56 -21 85.5t-58 29.5q-45 0 -70.5 -41t-25.5 -113q0 -95 78 -95q39 0 68 34t29 100zM239 615q0 26 17 49.5t42 23.5q18 0 30 -16t12 -38q0 -26 -18.5 -47.5t-41.5 -21.5q-18 0 -29.5 14.5t-11.5 35.5z" />
    <glyph glyph-name="Gcommaaccent" unicode="&#x122;" horiz-adv-x="727" 
d="M627 226l-51 -231h-16l-35 88q-90 -95 -208 -95q-103 0 -176.5 64.5t-73.5 179.5q0 108 37.5 199.5t97.5 149t130 89t139 31.5q100 0 160 -71h13l36 56h26q-8 -40 -23.5 -119.5t-23.5 -119.5h-26q-2 53 -18.5 99t-55.5 80t-94 34q-84 0 -152.5 -65t-104.5 -161.5
t-36 -199.5q0 -98 43 -151.5t123 -53.5q101 0 173 98l21 98q0 1 0.5 3.5t0.5 3.5q3 12 3 22q0 24 -16.5 29.5t-70.5 5.5l7 30h273l-7 -30q-55 0 -70 -10t-25 -53zM276 -82q0 13 9.5 21.5t24.5 8.5q18 0 32.5 -18.5t14.5 -47.5q0 -51 -31.5 -88t-85.5 -38v27q31 1 48.5 20
t17.5 40q0 19 -18 44q-12 16 -12 31z" />
    <glyph glyph-name="gcommaaccent" unicode="&#x123;" horiz-adv-x="455" 
d="M247 490q67 0 116 -41l64 38h43q-2 -6 -13 -57h-77q21 -33 21 -73q0 -77 -43 -122t-104 -57q-53 -10 -80.5 -30t-47.5 -51l45 -14q39 -12 57.5 -17.5t49 -16t44 -16.5t34 -15.5t29.5 -17.5t19 -18.5t13.5 -22t3.5 -24.5q0 -64 -69.5 -113t-175.5 -49q-82 0 -139 27.5
t-57 80.5q0 41 41 74.5t97 57.5v13q-42 29 -42 74l-1 -1q22 42 86 77v12q-45 15 -71 46t-26 73q0 70 54 126.5t129 56.5zM349 -95q0 21 -18.5 36.5t-62.5 29.5l-112 34q-57 -20 -85.5 -54t-28.5 -63q0 -43 42.5 -63.5t107.5 -20.5q70 0 113.5 29t43.5 72zM320 343
q0 56 -21 85.5t-58 29.5q-45 0 -70.5 -41t-25.5 -113q0 -95 78 -95q39 0 68 34t29 100zM294 607q0 -13 -9.5 -21.5t-24.5 -8.5q-18 0 -32.5 18.5t-14.5 46.5q0 52 34.5 89t92.5 38v-27q-35 -1 -55.5 -20t-20.5 -40q0 -20 18 -45q12 -16 12 -30z" />
    <glyph glyph-name="Hbar" unicode="&#x126;" horiz-adv-x="799" 
d="M119 556h85l10 48q6 31 -16 41.5t-76 10.5q1 5 4 17.5t4 17.5h299q-1 -5 -4 -17t-4 -18q-59 0 -81.5 -9t-30.5 -43l-10 -48h338l10 48q6 34 -12.5 43t-81.5 9q1 6 4 18t4 17h302q-1 -5 -4 -17t-4 -18q-66 0 -87 -9t-28 -43l-10 -48h75v-46h-86l-89 -423q-7 -34 10 -42.5
t84 -8.5l-8 -36h-302l8 36q69 3 88.5 10.5t25.5 40.5l52 247h-338l-52 -247q-6 -33 12 -42t81 -9l-8 -36h-300l8 36q59 0 82.5 10t30.5 41l89 423h-74v46zM261 377h337l28 133h-338z" />
    <glyph glyph-name="hbar" unicode="&#x127;" horiz-adv-x="539" 
d="M75 603h81l7 37q8 37 -13 51.5t-69 15.5v25l149 10h35l-32 -139h126v-46h-137l-59 -230l16 -11q34 67 83.5 120.5t95.5 53.5q92 0 92 -104q0 -49 -39 -183q-28 -84 -28 -123q0 -45 35 -45q27 1 49 34.5t28 91.5q5 0 11.5 -0.5t10.5 -0.5q-8 -73 -38.5 -120t-77.5 -47
q-91 0 -91 94q0 43 23 135v-1q32 124 32 167t-22 61q-48 0 -104 -84.5t-86 -172.5l-34 -175l-28 -17h-58l113 557h-71v46z" />
    <glyph glyph-name="Imacron" unicode="&#x12a;" horiz-adv-x="379" 
d="M437 691l-8 -35q-70 0 -88.5 -7t-23.5 -35l-114 -532q-6 -32 8.5 -39t86.5 -7l-8 -36h-301l8 36q64 0 85 8.5t27 37.5l113 532q7 29 -9 35.5t-85 6.5q1 5 4 17.5t4 17.5h301zM429 792h-245v54h245v-54z" />
    <glyph glyph-name="imacron" unicode="&#x12b;" horiz-adv-x="320" 
d="M227 358l-65 -251q-7 -30 5.5 -53t30.5 -20q19 3 40 35.5t23 92.5q5 0 13.5 -0.5t12.5 -0.5q-14 -91 -39.5 -129.5t-75.5 -38.5q-42 0 -64.5 28t-22.5 72q0 21 6 43q6 24 61 233q3 11 3 32q0 47 -20 47q-53 0 -81 -135q-5 1 -11.5 3t-9.5 3q13 73 46 122t74 49
q40 0 59.5 -25.5t19.5 -65.5q0 -19 -5 -41zM340 578h-246v54h246v-54z" />
    <glyph glyph-name="Iogonek" unicode="&#x12e;" horiz-adv-x="379" 
d="M437 691l-8 -35q-70 0 -88.5 -7t-23.5 -35l-114 -532q-6 -32 8.5 -39t86.5 -7l-8 -36h-29q-63 -43 -63 -105q0 -64 50 -64q8 0 12 1v-29q-15 -3 -30 -3q-37 0 -64.5 20t-27.5 56q0 69 83 124h-232l8 36q64 0 85 8.5t27 37.5l113 532q7 29 -9 35.5t-85 6.5q1 5 4 17.5
t4 17.5h301z" />
    <glyph glyph-name="iogonek" unicode="&#x12f;" horiz-adv-x="320" 
d="M227 358l-65 -251q-7 -30 5.5 -53t30.5 -20q19 3 40 35.5t23 92.5q5 0 13.5 -0.5t12.5 -0.5q-11 -76 -32 -115.5t-56 -49.5q-57 -41 -57 -100q0 -64 51 -64q8 0 11 1v-30q-14 -3 -30 -3q-37 0 -64.5 20.5t-27.5 56.5q0 64 73 118q-34 7 -52 33.5t-18 64.5q0 21 6 43
q6 24 61 233q3 11 3 32q0 47 -20 47q-53 0 -81 -135q-5 1 -11.5 3t-9.5 3q13 73 46 122t74 49q40 0 59.5 -25.5t19.5 -65.5q0 -19 -5 -41zM171 667q0 28 15.5 47t38.5 19q24 0 39.5 -18.5t15.5 -47.5q0 -26 -15.5 -44t-39.5 -18q-23 0 -38.5 18t-15.5 44z" />
    <glyph glyph-name="Idotaccent" unicode="&#x130;" horiz-adv-x="379" 
d="M437 691l-9 -35q-66 0 -86 -7.5t-25 -34.5l-114 -532q-6 -32 8.5 -39t86.5 -7l-8 -36h-301l8 36q64 0 85 8.5t27 37.5l113 532q7 29 -9 35.5t-85 6.5q1 5 4 17.5t4 17.5h301zM267 814q0 26 17 49t42 23q17 0 29 -15.5t12 -37.5q0 -26 -18.5 -48t-40.5 -22q-18 0 -29.5 15
t-11.5 36z" />
    <glyph glyph-name="dotlessi" unicode="&#x131;" horiz-adv-x="320" 
d="M227 358l-65 -251q-7 -30 5.5 -53t30.5 -20q19 3 40 35.5t23 92.5q5 0 13.5 -0.5t12.5 -0.5q-14 -91 -39.5 -129.5t-75.5 -38.5q-42 0 -64.5 28t-22.5 72q0 21 6 43q6 24 61 233q3 11 3 32q0 47 -20 47q-53 0 -81 -135q-5 1 -11.5 3t-9.5 3q13 73 46 122t74 49
q40 0 59.5 -25.5t19.5 -65.5q0 -19 -5 -41z" />
    <glyph glyph-name="Kcommaaccent" unicode="&#x136;" horiz-adv-x="723" 
d="M586 574l-192 -171l186 -315q16 -28 35 -39.5t53 -12.5l-8 -36h-271l8 36q51 2 67 12.5t0 40.5l-142 249l-87 -76l-31 -148q-5 -22 -5 -37q0 -26 18.5 -33.5t70.5 -7.5l-8 -36h-297l8 36q70 0 89 13t30 65l99 467q4 16 4 34q0 28 -18 34.5t-73 6.5q1 5 4 17.5t4 17.5h299
q-1 -5 -4 -17t-4 -18q-61 0 -84 -14t-33 -61l-54 -253h12l286 257v-1q30 24 30 42q0 13 -15 21t-40 8l8 36h249q-1 -6 -4.5 -17.5t-4.5 -18.5q-99 -10 -185 -81zM288 -82q0 13 9.5 21.5t24.5 8.5q18 0 32.5 -18.5t14.5 -47.5q0 -51 -31.5 -88t-85.5 -38v27q31 1 48.5 20
t17.5 40q0 19 -18 44q-12 16 -12 31z" />
    <glyph glyph-name="kcommaaccent" unicode="&#x137;" horiz-adv-x="513" 
d="M121 23l-39 -23h-42l120 629q3 17 3 30q0 27 -15.5 40t-55.5 12v23l108 8h64l-42 -182l-48 -255h16q39 72 95.5 128.5t112.5 56.5q41 0 62 -22t21 -56q0 -87 -200 -171l-20 -8v-6q36 -16 81 -102q13 -25 20 -36.5t18 -23t22 -11.5q38 0 70 91l20 -3q-47 -149 -115 -149
q-57 0 -111 112q-37 78 -69 98l17 38l-3 -1q192 77 192 168q0 41 -35 41t-97.5 -77t-119.5 -192zM171 -86q0 13 10 22t25 9q18 0 32.5 -19t14.5 -47q0 -52 -31.5 -89t-85.5 -38v27q31 1 48.5 20t17.5 41q0 19 -18 44q-13 15 -13 30z" />
    <glyph glyph-name="Lacute" unicode="&#x139;" horiz-adv-x="602" 
d="M571 239l-63 -239h-524l8 36q57 0 81.5 9t30.5 37l113 533q5 27 -11 34t-83 7q1 5 4 17.5t4 17.5h311q-1 -5 -4 -17t-4 -18q-78 0 -97.5 -7t-24.5 -33l-123 -580h138q76 0 132 54t76 149h36zM224 749v6l-1 -1l101 129h86v-8l-142 -126h-44z" />
    <glyph glyph-name="lacute" unicode="&#x13a;" horiz-adv-x="289" 
d="M278 742l-147 -654q-4 -22 4 -37.5t22 -15.5t24 3.5t22.5 15.5t21.5 39.5t14 70.5l25 -4q-12 -80 -40 -123.5t-86 -43.5q-80 0 -80 84q0 24 10 67l107 496q6 37 -11.5 51.5t-59.5 15.5v25l145 10h29zM163 829v6l-1 -1l101 129h87v-8l-143 -126h-44z" />
    <glyph glyph-name="Lcommaaccent" unicode="&#x13b;" horiz-adv-x="602" 
d="M571 239l-63 -239h-524l8 36q57 0 81.5 9t30.5 37l113 533q5 27 -11 34t-83 7q1 5 4 17.5t4 17.5h311q-1 -5 -4 -17t-4 -18q-78 0 -97.5 -7t-24.5 -33l-123 -580h138q76 0 132 54t76 149h36zM228 -82q0 13 9.5 21.5t25.5 8.5q18 0 32.5 -18.5t14.5 -47.5q0 -51 -31.5 -88
t-85.5 -38v27q31 1 48.5 20t17.5 40q0 18 -19 44q-12 16 -12 31z" />
    <glyph glyph-name="lcommaaccent" unicode="&#x13c;" horiz-adv-x="289" 
d="M279 742l-147 -654q-4 -22 4 -37.5t22 -15.5t24 3.5t22.5 15.5t21.5 39.5t14 70.5l25 -4q-12 -80 -40 -123.5t-86 -43.5q-80 0 -80 84q0 24 10 67l107 496q6 37 -11.5 51.5t-59.5 15.5v25l145 10h29zM94 -86q0 13 9.5 22t24.5 9q18 0 32.5 -19t14.5 -47q0 -52 -31.5 -89
t-85.5 -38v27q31 1 48.5 20t17.5 41q0 19 -18 44q-12 16 -12 30z" />
    <glyph glyph-name="Lcaron" unicode="&#x13d;" horiz-adv-x="602" 
d="M570 239l-63 -239h-524l8 36q57 0 81.5 9t30.5 37l113 533q5 27 -11 34t-83 7q1 5 4 17.5t4 17.5h311q-1 -5 -4 -17t-4 -18q-78 0 -97.5 -7t-24.5 -33l-123 -580h138q76 0 132 54t76 149h36zM535 484v5l56 199h75v-7l-95 -197h-36z" />
    <glyph glyph-name="lcaron" unicode="&#x13e;" horiz-adv-x="382" 
d="M277 742l-147 -654q-4 -22 4 -37.5t22 -15.5t24 3.5t22.5 15.5t21.5 39.5t14 70.5l25 -4q-12 -80 -40 -123.5t-86 -43.5q-80 0 -80 84q0 24 10 67l107 496q6 37 -11.5 51.5t-59.5 15.5v25l145 10h29zM306 537v5l56 200h75v-7l-95 -198h-36z" />
    <glyph glyph-name="Ldot" unicode="&#x13f;" horiz-adv-x="602" 
d="M570 239l-63 -239h-524l8 36q57 0 81.5 9t30.5 37l113 533q5 27 -11 34t-83 7q1 5 4 17.5t4 17.5h311q-1 -5 -4 -17t-4 -18q-78 0 -97.5 -7t-24.5 -33l-123 -580h138q76 0 132 54t76 149h36zM495 372q0 26 17 45t42 19t43 -19t18 -45t-18 -44t-43 -18t-42 18t-17 44z" />
    <glyph glyph-name="ldot" unicode="&#x140;" horiz-adv-x="419" 
d="M278 742l-147 -654q-4 -22 4 -37.5t22 -15.5t24 3.5t22.5 15.5t21.5 39.5t14 70.5l25 -4q-12 -80 -40 -123.5t-86 -43.5q-80 0 -80 84q0 24 10 67l107 496q6 37 -11.5 51.5t-59.5 15.5v25l145 10h29zM269 280q0 27 17.5 45.5t42.5 18.5t42.5 -18.5t17.5 -45.5
q0 -26 -17.5 -44t-42.5 -18t-42.5 18t-17.5 44z" />
    <glyph glyph-name="Lslash" unicode="&#x141;" horiz-adv-x="602" 
d="M571 239l-63 -239h-524l8 36q57 0 81.5 9t30.5 37l41 195q-15 -6 -45 -19.5t-41 -18.5l11 52l86 37l61 287q5 27 -11 34t-83 7q1 5 4 17.5t4 17.5h311q-1 -5 -4 -17t-4 -18q-78 0 -97.5 -7t-24.5 -33l-51 -241q21 9 88.5 39t102.5 45l-11 -53l-192 -83l-60 -287h138
q76 0 132 54t76 149h36z" />
    <glyph glyph-name="lslash" unicode="&#x142;" horiz-adv-x="289" 
d="M278 742l-70 -318q45 39 78 65l24 -30l-116 -96l-63 -275q-4 -22 4 -37.5t22 -15.5t24 3.5t22.5 15.5t21.5 39.5t14 70.5l25 -4q-12 -80 -40 -123.5t-86 -43.5q-80 0 -80 84q0 24 10 67l30 142q-8 -7 -30 -24t-29 -23l-23 30l96 79l63 292q6 37 -11.5 51.5t-59.5 15.5v25
l145 10h29z" />
    <glyph glyph-name="Nacute" unicode="&#x143;" horiz-adv-x="752" 
d="M242 556h-12l-98 -465q-6 -33 19.5 -44t88.5 -11l-8 -36h-252l8 36q49 0 74 10.5t33 44.5l108 511q-17 28 -35 40.5t-54 13.5q1 5 4 17.5t4 17.5h151l302 -532h12l93 445q4 25 -24 38t-88 14q1 6 4 18t4 17h246q-1 -5 -4 -17t-4 -18q-51 -1 -71.5 -13t-26.5 -39
q-25 -121 -75 -352t-57 -262h-22zM404 749v6l-1 -1l101 129h86v-8l-142 -126h-44z" />
    <glyph glyph-name="nacute" unicode="&#x144;" horiz-adv-x="572" 
d="M154 21l-40 -21h-47l76 370q4 26 4 39q0 40 -28 40q-21 0 -44 -36.5t-33 -101.5l-20 3q12 78 40 127t74 49q71 0 71 -88q0 -49 -24 -121h20q37 82 89 145.5t98 63.5q89 0 89 -110q0 -62 -32 -171q-28 -98 -28 -134q0 -46 34 -46q28 0 51 45t24 89q14 -2 23 -2
q-6 -68 -33.5 -118t-79.5 -50q-95 0 -95 103q0 42 17 102q38 132 38 189q0 43 -19 62q-35 0 -75 -46.5t-68 -102.5t-47 -112zM270 545v6l112 164h83v-8q-16 -18 -68.5 -75t-79.5 -87h-47zM269 550l1 2v-1z" />
    <glyph glyph-name="Ncommaaccent" unicode="&#x145;" horiz-adv-x="752" 
d="M242 556h-12l-98 -465q-6 -33 19.5 -44t88.5 -11l-8 -36h-252l8 36q49 0 74 10.5t33 44.5l108 511q-17 28 -35 40.5t-54 13.5q1 5 4 17.5t4 17.5h151l302 -532h12l93 445q4 25 -24 38t-88 14q1 6 4 18t4 17h246q-1 -5 -4 -17t-4 -18q-51 -1 -71.5 -13t-26.5 -39
q-25 -121 -75 -352t-57 -262h-22zM305 -82q0 13 9.5 21.5t24.5 8.5q18 0 32.5 -18.5t14.5 -47.5q0 -51 -31.5 -88t-84.5 -38v27q31 1 48 20t17 40q0 19 -18 44q-12 16 -12 31z" />
    <glyph glyph-name="ncommaaccent" unicode="&#x146;" horiz-adv-x="572" 
d="M154 21l-40 -21h-47l76 370q4 26 4 39q0 40 -28 40q-21 0 -44 -36.5t-33 -101.5l-20 3q12 78 40 127t74 49q71 0 71 -88q0 -49 -24 -121h20q37 82 89 145.5t98 63.5q89 0 89 -110q0 -62 -32 -171q-28 -98 -28 -134q0 -46 34 -46q28 0 51 45t24 89q14 -2 23 -2
q-6 -68 -33.5 -118t-79.5 -50q-95 0 -95 103q0 42 17 102q38 132 38 189q0 43 -19 62q-35 0 -75 -46.5t-68 -102.5t-47 -112zM222 -86q0 13 9.5 22t24.5 9q18 0 32.5 -19t14.5 -47q0 -52 -31.5 -89t-84.5 -38v27q31 1 48 20t17 41q0 19 -18 44q-12 16 -12 30z" />
    <glyph glyph-name="Ncaron" unicode="&#x147;" horiz-adv-x="752" 
d="M242 556h-12l-98 -465q-6 -33 19.5 -44t88.5 -11l-8 -36h-252l8 36q49 0 74 10.5t33 44.5l108 511q-17 28 -35 40.5t-54 13.5q1 5 4 17.5t4 17.5h151l302 -532h12l93 445q4 25 -24 38t-88 14q1 6 4 18t4 17h246q-1 -5 -4 -17t-4 -18q-51 -1 -71.5 -13t-26.5 -39
q-25 -121 -75 -352t-57 -262h-22zM359 877v6h38l73 -78q102 60 132 78h39v-6l-160 -128h-42l-81 129z" />
    <glyph glyph-name="ncaron" unicode="&#x148;" horiz-adv-x="572" 
d="M154 21l-40 -21h-47l76 370q4 26 4 39q0 40 -28 40q-21 0 -44 -36.5t-33 -101.5l-20 3q12 78 40 127t74 49q71 0 71 -88q0 -49 -24 -121h20q37 82 89 145.5t98 63.5q89 0 89 -110q0 -62 -32 -171q-28 -98 -28 -134q0 -46 34 -46q28 0 51 45t24 89q14 -2 23 -2
q-6 -68 -33.5 -118t-79.5 -50q-95 0 -95 103q0 42 17 102q38 132 38 189q0 43 -19 62q-35 0 -75 -46.5t-68 -102.5t-47 -112zM245 710v5h30l55 -103l111 103h46v-6l-150 -164h-41z" />
    <glyph glyph-name="Omacron" unicode="&#x14c;" horiz-adv-x="751" 
d="M726 433q0 -97 -37.5 -182.5t-96.5 -142t-130 -88.5t-140 -32q-114 0 -184.5 72.5t-70.5 193.5q0 96 36 181t94 142.5t131 90.5t147 33q111 0 181 -74t70 -194zM332 30q72 0 130.5 43.5t93 111t52.5 141t18 141.5q0 93 -42 143t-119 50q-86 0 -155 -63t-105 -160
t-36 -206q0 -201 163 -201zM627 792h-246v54h246v-54z" />
    <glyph glyph-name="omacron" unicode="&#x14d;" horiz-adv-x="470" 
d="M435 307q0 -124 -68 -221.5t-166 -97.5q-79 0 -124 46t-45 132q0 129 73.5 226.5t167.5 97.5q77 0 119.5 -50.5t42.5 -132.5zM348 330v18q0 105 -71 105q-49 0 -86 -49.5t-54 -120t-17 -146.5q0 -113 77 -113q47 0 81.5 51t50 117t19.5 138zM403 578h-246v54h246v-54z
" />
    <glyph glyph-name="Ohungarumlaut" unicode="&#x150;" horiz-adv-x="751" 
d="M726 433q0 -97 -37.5 -182.5t-96.5 -142t-130 -88.5t-140 -32q-114 0 -184.5 72.5t-70.5 193.5q0 96 36 181t94 142.5t131 90.5t147 33q111 0 181 -74t70 -194zM332 30q72 0 130.5 43.5t93 111t52.5 141t18 141.5q0 93 -42 143t-119 50q-86 0 -155 -63t-105 -160
t-36 -206q0 -201 163 -201zM526 749v6l-1 -1l106 129h81v-8l-148 -126h-38zM385 749v6l-1 -1l106 129h81v-8l-148 -126h-38z" />
    <glyph glyph-name="ohungarumlaut" unicode="&#x151;" horiz-adv-x="470" 
d="M435 307q0 -124 -68 -221.5t-166 -97.5q-79 0 -124 46t-45 132q0 129 73.5 226.5t167.5 97.5q77 0 119.5 -50.5t42.5 -132.5zM348 330v18q0 105 -71 105q-49 0 -86 -49.5t-54 -120t-17 -146.5q0 -113 77 -113q47 0 81.5 51t50 117t19.5 138zM161 545v6l105 164h82v-8l1 1
l-154 -163h-34zM302 545v6l105 164h82v-8l1 1l-154 -163h-34zM302 552l-1 -2q0 1 1 1v1zM161 552l-1 -2q0 1 1 1v1z" />
    <glyph glyph-name="OE" unicode="&#x152;" horiz-adv-x="972" 
d="M930 244l-64 -244h-461q-43 -12 -84 -12q-114 0 -184.5 72.5t-70.5 193.5q0 96 36 181t94 142.5t131 90.5t147 33q35 0 75 -10h434q-5 -36 -17 -107t-18 -107h-30q1 13 1 34q0 81 -25 113t-90 32h-173l-63 -297h80q106 0 135 138h24l-66 -310h-24q8 37 8 67
q0 39 -20.5 52.5t-71.5 13.5h-74l-59 -284h197q74 0 130 64t73 144h30zM331 30q42 0 74 13l128 604q-29 13 -69 13q-86 0 -155 -63t-105 -160t-36 -206q0 -201 163 -201z" />
    <glyph glyph-name="oe" unicode="&#x153;" horiz-adv-x="718" 
d="M694 389q0 -114 -273 -224q-5 -71 24 -103.5t71 -32.5q41 0 82.5 40t64.5 86q5 -3 12 -7t11 -7q-82 -153 -191 -153q-99 0 -141 75q-62 -75 -145 -75t-130.5 50.5t-47.5 146.5q0 123 66.5 214t157.5 91q101 0 149 -92q79 92 172 92q55 0 86.5 -27t31.5 -74zM338 330
q0 123 -77 123q-47 0 -80.5 -45.5t-47 -109.5t-13.5 -138q0 -73 21 -104.5t62 -31.5q36 0 63.5 29t42.5 76t22 97.5t7 103.5zM616 405q0 51 -51 51q-57 0 -99.5 -78t-45.5 -185q103 46 149.5 97.5t46.5 114.5z" />
    <glyph glyph-name="Racute" unicode="&#x154;" horiz-adv-x="683" 
d="M261 375h94q72 0 125 49.5t53 123.5q0 58 -31.5 83t-97.5 25h-85zM445 158q10 40 10 71q0 61 -37 85t-105 24h-62l-53 -251q-7 -34 10.5 -42.5t86.5 -8.5l-8 -36h-304l8 36q63 2 84.5 10.5t28.5 40.5l112 531q5 25 -11.5 31.5t-82.5 6.5q1 5 4 17.5t4 17.5h316
q182 0 184 -144q0 -76 -64 -128t-138 -61l-2 -11q61 -10 90.5 -36t29.5 -87q0 -35 -8 -74q-11 -61 -11 -78q0 -35 30 -35q22 0 45 32.5t27 92.5q5 0 10.5 -0.5t9.5 -0.5q-10 -95 -39.5 -131.5t-75.5 -36.5q-45 0 -70.5 29.5t-25.5 80.5q0 27 7 55zM361 749v6l-1 -1l101 129
h86v-8l-143 -126h-43z" />
    <glyph glyph-name="racute" unicode="&#x155;" horiz-adv-x="424" 
d="M163 22l-33 -22h-55l68 365q4 23 4 43q0 40 -19 40q-25 0 -49.5 -39t-33.5 -95q-5 1 -11.5 3t-9.5 3q8 72 41 121t89 49q57 0 57 -71q0 -47 -31 -142l32 -2q58 215 141 215q30 0 49 -21t19 -57q0 -34 -20.5 -56t-57.5 -23q4 28 4 56q0 55 -22 55q-32 0 -76 -114t-86 -308
zM210 545v6l112 164h82v-8q-24 -27 -74 -81t-74 -81h-46zM209 550l1 2v-1z" />
    <glyph glyph-name="Rcaron" unicode="&#x158;" horiz-adv-x="683" 
d="M261 375h94q72 0 125 49.5t53 123.5q0 58 -31.5 83t-97.5 25h-85zM445 158q10 40 10 71q0 61 -37 85t-105 24h-62l-53 -251q-7 -34 10.5 -42.5t86.5 -8.5l-8 -36h-304l8 36q63 2 84.5 10.5t28.5 40.5l112 531q5 25 -11.5 31.5t-82.5 6.5q1 5 4 17.5t4 17.5h316
q182 0 184 -144q0 -76 -64 -128t-138 -61l-2 -11q61 -10 90.5 -36t29.5 -87q0 -35 -8 -74q-11 -61 -11 -78q0 -35 30 -35q22 0 45 32.5t27 92.5q5 0 10.5 -0.5t9.5 -0.5q-10 -95 -39.5 -131.5t-75.5 -36.5q-45 0 -70.5 29.5t-25.5 80.5q0 27 7 55zM316 877v6h38l72 -78
q81 46 133 78h38v-6l-159 -128h-43l-80 129z" />
    <glyph glyph-name="rcaron" unicode="&#x159;" horiz-adv-x="424" 
d="M163 22l-33 -22h-55l68 365q4 23 4 43q0 40 -19 40q-25 0 -49.5 -39t-33.5 -95q-5 1 -11.5 3t-9.5 3q8 72 41 121t89 49q57 0 57 -71q0 -47 -31 -142l32 -2q58 215 141 215q30 0 49 -21t19 -57q0 -34 -20.5 -56t-57.5 -23q4 28 4 56q0 55 -22 55q-32 0 -76 -114t-86 -308
zM185 710v5h30l54 -103l111 103h46v-6l-150 -164h-40z" />
    <glyph glyph-name="Sacute" unicode="&#x15a;" horiz-adv-x="586" 
d="M84 65l-30 -65h-34l52 276h30v-22q0 -116 41.5 -171.5t135.5 -55.5q83 0 129.5 42t46.5 94q0 48 -42.5 82.5t-143.5 70.5q-153 55 -153 171q0 94 72 154t163 60q94 0 169 -67q3 5 15.5 28t17.5 33h31q-9 -42 -27 -127t-26 -128h-26q-6 116 -45.5 169.5t-116.5 53.5
q-64 0 -106 -40.5t-42 -86.5q0 -48 43 -83t135 -67q158 -58 158 -173q0 -92 -76.5 -158.5t-182.5 -66.5q-65 0 -113.5 24t-74.5 53zM314 749v6l-1 -1l100 129h87v-8l-143 -126h-43z" />
    <glyph glyph-name="sacute" unicode="&#x15b;" horiz-adv-x="385" 
d="M21 67q0 31 18 51.5t46 22.5q-2 -59 13 -89.5t57 -30.5q36 0 60 25.5t24 58.5q0 21 -11.5 42t-23.5 33.5t-36 34.5q-24 21 -37.5 36.5t-26.5 43t-13 57.5q0 55 44 96.5t113 41.5q48 0 83 -26.5t35 -64.5q0 -29 -15.5 -46.5t-42.5 -19.5q0 125 -65 125q-32 0 -54.5 -22
t-22.5 -59q0 -21 12 -42.5t24 -34t35 -33.5q25 -22 38 -35.5t26.5 -40t13.5 -55.5q0 -64 -50.5 -106t-122.5 -42q-52 0 -86.5 22t-34.5 57zM216 545v6l112 164h82v-8q-27 -31 -79 -87t-69 -75h-46zM85 143l5 -2h-5v2zM215 550l1 2v-1z" />
    <glyph glyph-name="Scircumflex" unicode="&#x15c;" horiz-adv-x="586" 
d="M84 65l-30 -65h-34l52 276h30v-22q0 -116 41.5 -171.5t135.5 -55.5q83 0 129.5 42t46.5 94q0 48 -42.5 82.5t-143.5 70.5q-153 55 -153 171q0 94 72 154t163 60q94 0 169 -67q3 5 15.5 28t17.5 33h31q-9 -42 -27 -127t-26 -128h-26q-6 116 -45.5 169.5t-116.5 53.5
q-64 0 -106 -40.5t-42 -86.5q0 -48 43 -83t135 -67q158 -58 158 -173q0 -92 -76.5 -158.5t-182.5 -66.5q-65 0 -113.5 24t-74.5 53zM510 755v-6h-38l-73 79l-132 -79h-39v6l160 128h42l81 -129z" />
    <glyph glyph-name="scircumflex" unicode="&#x15d;" horiz-adv-x="385" 
d="M22 67q0 31 18 51.5t46 22.5q-2 -59 13 -89.5t57 -30.5q36 0 60 25.5t24 58.5q0 21 -11.5 42t-23.5 33.5t-36 34.5q-24 21 -37.5 36.5t-26.5 43t-13 57.5q0 55 44 96.5t113 41.5q48 0 83 -26.5t35 -64.5q0 -29 -15.5 -46.5t-42.5 -19.5q0 125 -65 125q-32 0 -54.5 -22
t-22.5 -59q0 -21 12 -42.5t24 -34t35 -33.5q25 -22 38 -35.5t26.5 -40t13.5 -55.5q0 -64 -50.5 -106t-122.5 -42q-52 0 -86.5 22t-34.5 57zM86 143l5 -2h-5v2zM386 550v-5h-31l-54 103l-110 -103h-47v7l150 163h41z" />
    <glyph glyph-name="Scedilla" unicode="&#x15e;" horiz-adv-x="586" 
d="M202 -216l-6 21q87 18 87 63q0 21 -16 32.5t-41 11.5q-19 0 -27 -1l-3 5l48 73q-56 5 -97 27.5t-63 48.5l-30 -65h-34l52 276h30v-22q0 -116 41.5 -171.5t135.5 -55.5q83 0 129.5 42t46.5 94q0 48 -42.5 82.5t-143.5 70.5q-153 55 -153 171q0 94 72 154t163 60
q94 0 169 -67q3 5 15.5 28t17.5 33h31q-9 -42 -27 -127t-26 -128h-26q-6 116 -45.5 169.5t-116.5 53.5q-64 0 -106 -40.5t-42 -86.5q0 -48 43 -83t135 -67q158 -58 158 -173q0 -90 -74 -155.5t-178 -69.5l-24 -34q36 0 59 -17.5t23 -53.5t-39 -63t-96 -36z" />
    <glyph glyph-name="scedilla" unicode="&#x15f;" horiz-adv-x="385" 
d="M80 -220l-6 21q38 8 62 25t24 39t-15.5 33t-40.5 11q-19 0 -27 -1l-3 4l50 78q-46 5 -74 25.5t-28 51.5q0 32 18 52.5t46 21.5q-2 -58 12 -88.5t54 -31.5h7q35 1 58 26.5t23 57.5q0 21 -11.5 42t-23.5 33.5t-36 34.5q-24 21 -37.5 36.5t-26.5 43t-13 57.5q0 55 44 96.5
t113 41.5q48 0 83 -26.5t35 -64.5q0 -29 -15.5 -46.5t-42.5 -19.5q0 125 -65 125q-32 0 -54.5 -22t-22.5 -59q0 -21 12 -42.5t24 -34t35 -33.5q25 -22 38 -35.5t26.5 -40t13.5 -55.5q0 -60 -45 -100.5t-113 -46.5l-25 -38q35 0 58.5 -18t23.5 -53q0 -36 -39.5 -63.5
t-95.5 -36.5z" />
    <glyph glyph-name="Scaron" unicode="&#x160;" horiz-adv-x="586" 
d="M84 65l-30 -65h-34l52 276h30v-22q0 -116 41.5 -171.5t135.5 -55.5q83 0 129.5 42t46.5 94q0 48 -42.5 82.5t-143.5 70.5q-153 55 -153 171q0 94 72 154t163 60q94 0 169 -67q3 5 15.5 28t17.5 33h31q-9 -42 -27 -127t-26 -128h-26q-6 116 -45.5 169.5t-116.5 53.5
q-64 0 -106 -40.5t-42 -86.5q0 -48 43 -83t135 -67q158 -58 158 -173q0 -92 -76.5 -158.5t-182.5 -66.5q-65 0 -113.5 24t-74.5 53zM269 877v6h38l72 -78q127 74 133 78h38v-6l-160 -128h-42l-80 129z" />
    <glyph glyph-name="scaron" unicode="&#x161;" horiz-adv-x="385" 
d="M21 67q0 31 18 51.5t46 22.5q-2 -59 13 -89.5t57 -30.5q36 0 60 25.5t24 58.5q0 21 -11.5 42t-23.5 33.5t-36 34.5q-24 21 -37.5 36.5t-26.5 43t-13 57.5q0 55 44 96.5t113 41.5q48 0 83 -26.5t35 -64.5q0 -29 -15.5 -46.5t-42.5 -19.5q0 125 -65 125q-32 0 -54.5 -22
t-22.5 -59q0 -21 12 -42.5t24 -34t35 -33.5q25 -22 38 -35.5t26.5 -40t13.5 -55.5q0 -64 -50.5 -106t-122.5 -42q-52 0 -86.5 22t-34.5 57zM85 143l5 -2h-5v2zM191 710v5h30l54 -103l111 103h47v-6l-151 -164h-40z" />
    <glyph glyph-name="Tcommaaccent" unicode="&#x162;" horiz-adv-x="644" 
d="M656 443h-27q8 37 8 76q0 64 -30 100.5t-87 36.5h-61l-123 -579q-6 -27 12.5 -34t65.5 -7h17l-9 -36h-301l8 36h9q45 0 70 7.5t32 33.5l123 579h-45q-72 0 -132.5 -58t-80.5 -155h-31q47 212 54 248h581q-9 -41 -27 -124t-26 -124zM222 -82q0 13 9.5 21.5t24.5 8.5
q19 0 33.5 -18.5t14.5 -47.5q0 -51 -31.5 -88t-85.5 -38v27q31 1 48 20t17 40q0 19 -18 44q-12 16 -12 31z" />
    <glyph glyph-name="Tcommaaccent" unicode="&#x21a;" horiz-adv-x="644" 
d="M656 443h-27q8 37 8 76q0 64 -30 100.5t-87 36.5h-61l-123 -579q-6 -27 12.5 -34t65.5 -7h17l-9 -36h-301l8 36h9q45 0 70 7.5t32 33.5l123 579h-45q-72 0 -132.5 -58t-80.5 -155h-31q47 212 54 248h581q-9 -41 -27 -124t-26 -124zM222 -82q0 13 9.5 21.5t24.5 8.5
q19 0 33.5 -18.5t14.5 -47.5q0 -51 -31.5 -88t-85.5 -38v27q31 1 48 20t17 40q0 19 -18 44q-12 16 -12 31z" />
    <glyph glyph-name="tcommaaccent" unicode="&#x163;" horiz-adv-x="336" 
d="M169 585l54 60h42l-42 -182h124q-1 -7 -4 -22t-4 -23h-127l-69 -296q-6 -30 -6 -43q0 -45 35 -45q27 0 51.5 36.5t29.5 96.5q6 0 15.5 -0.5t14.5 -0.5q-25 -173 -127 -173q-93 0 -93 98q0 23 6 52l62 275h-75l8 45h78zM99 -86q0 13 9.5 22t24.5 9q18 0 32.5 -19t14.5 -47
q0 -52 -31.5 -89t-84.5 -38v27q31 1 48 20t17 41q0 19 -18 44q-12 16 -12 30z" />
    <glyph glyph-name="tcommaaccent" unicode="&#x21b;" horiz-adv-x="336" 
d="M169 585l54 60h42l-42 -182h124q-1 -7 -4 -22t-4 -23h-127l-69 -296q-6 -30 -6 -43q0 -45 35 -45q27 0 51.5 36.5t29.5 96.5q6 0 15.5 -0.5t14.5 -0.5q-25 -173 -127 -173q-93 0 -93 98q0 23 6 52l62 275h-75l8 45h78zM99 -86q0 13 9.5 22t24.5 9q18 0 32.5 -19t14.5 -47
q0 -52 -31.5 -89t-84.5 -38v27q31 1 48 20t17 41q0 19 -18 44q-12 16 -12 30z" />
    <glyph glyph-name="Tcaron" unicode="&#x164;" horiz-adv-x="644" 
d="M656 443h-27q8 37 8 76q0 64 -30 100.5t-87 36.5h-61l-123 -579q-6 -27 12.5 -34t65.5 -7h17l-9 -36h-301l8 36h9q45 0 70 7.5t32 33.5l123 579h-45q-72 0 -132.5 -58t-80.5 -155h-31q47 212 54 248h581q-9 -41 -27 -124t-26 -124zM331 877v6h38l73 -78q102 60 132 78h39
v-6l-160 -128h-43l-80 129z" />
    <glyph glyph-name="tcaron" unicode="&#x165;" horiz-adv-x="336" 
d="M168 585l54 60h42l-42 -182h124q-1 -7 -4 -22t-4 -23h-127l-69 -296q-6 -30 -6 -43q0 -45 35 -45q27 0 51.5 36.5t29.5 96.5q6 0 15.5 -0.5t14.5 -0.5q-25 -173 -127 -173q-93 0 -93 98q0 23 6 52l62 275h-75l8 45h78zM329 576v5l56 199h75v-7l-95 -197h-36z" />
    <glyph glyph-name="Umacron" unicode="&#x16a;" horiz-adv-x="747" 
d="M814 656h-1q-98 -1 -107 -45l-69 -330q-33 -140 -107.5 -216.5t-207.5 -76.5q-212 0 -212 163q0 32 9 73l82 390q5 29 -8 35.5t-78 6.5q1 5 4 17.5t4 17.5h287q-1 -5 -4 -17t-4 -18q-63 0 -81.5 -7t-23.5 -35l-83 -390q-7 -32 -7 -63q0 -67 37.5 -100t101.5 -33
q50 0 90 15t65.5 38t45 58.5t29.5 67.5t19 74l70 330q5 24 -19 34.5t-90 10.5q1 6 4 18t4 17h257zM635 792h-246v54h246v-54z" />
    <glyph glyph-name="umacron" unicode="&#x16b;" horiz-adv-x="565" 
d="M356 158l-15 3q-38 -75 -84.5 -124t-82.5 -49q-43 0 -69 32.5t-26 87.5q0 48 38 175l3 9q26 87 26 117q0 41 -31 41q-23 0 -44 -37.5t-32 -97.5q-4 1 -9.5 1h-7.5q34 174 106 174q88 0 88 -96q0 -46 -23 -128q-36 -124 -36 -179q0 -44 23 -63q34 0 73.5 48t67.5 106
t46 114q11 46 35 165q0 4 2 12t3 11h85l-78 -368q-4 -22 -4 -32q0 -44 36 -44q29 0 50 34.5t30 94.5q10 -2 17 -2q-8 -76 -36 -123t-76 -47q-82 0 -82 102q0 32 7 63zM440 578h-246v54h246v-54z" />
    <glyph glyph-name="Ubreve" unicode="&#x16c;" horiz-adv-x="747" 
d="M814 656h-1q-98 -1 -107 -45l-69 -330q-33 -140 -107.5 -216.5t-207.5 -76.5q-212 0 -212 163q0 32 9 73l82 390q5 29 -8 35.5t-78 6.5q1 5 4 17.5t4 17.5h287q-1 -5 -4 -17t-4 -18q-63 0 -81.5 -7t-23.5 -35l-83 -390q-7 -32 -7 -63q0 -67 37.5 -100t101.5 -33
q50 0 90 15t65.5 38t45 58.5t29.5 67.5t19 74l70 330q5 24 -19 34.5t-90 10.5q1 6 4 18t4 17h257zM504 749q-40 0 -64 25.5t-24 69.5q0 16 5 39h30q-6 -30 9.5 -51.5t50.5 -21.5q34 0 66.5 21t46.5 52h28q-22 -65 -63.5 -99.5t-84.5 -34.5z" />
    <glyph glyph-name="ubreve" unicode="&#x16d;" horiz-adv-x="565" 
d="M356 158l-15 3q-38 -75 -84.5 -124t-82.5 -49q-43 0 -69 32.5t-26 87.5q0 48 38 175l3 9q26 87 26 117q0 41 -31 41q-23 0 -44 -37.5t-32 -97.5q-4 1 -9.5 1h-7.5q34 174 106 174q88 0 88 -96q0 -46 -23 -128q-36 -124 -36 -179q0 -44 23 -63q34 0 73.5 48t67.5 106
t46 114q11 46 35 165q0 4 2 12t3 11h85l-78 -368q-4 -22 -4 -32q0 -44 36 -44q29 0 50 34.5t30 94.5q10 -2 17 -2q-8 -76 -36 -123t-76 -47q-82 0 -82 102q0 32 7 63zM314 540q-33 0 -52.5 28.5t-19.5 77.5q0 21 4 44h30q-4 -38 7.5 -63.5t37.5 -25.5q30 0 57.5 25.5
t39.5 63.5h29q-21 -72 -58 -111t-75 -39z" />
    <glyph glyph-name="Uring" unicode="&#x16e;" horiz-adv-x="747" 
d="M821 691l-7 -35h-1q-98 -1 -107 -45l-69 -330q-33 -140 -107.5 -216.5t-207.5 -76.5q-212 0 -212 163q0 32 9 73l82 390q5 29 -8 35.5t-78 6.5q1 5 4 17.5t4 17.5h287q-1 -5 -4 -17t-4 -18q-63 0 -81.5 -7t-23.5 -35l-83 -390q-7 -32 -7 -63q0 -67 37.5 -100t101.5 -33
q50 0 90 15t65.5 38t45 58.5t29.5 67.5t19 74l70 330q5 24 -19 34.5t-90 10.5q1 6 4 18t4 17h257zM430 832q0 38 26 65t63 27t63.5 -27t26.5 -65t-26.5 -65.5t-63.5 -27.5t-63 27.5t-26 65.5zM466 832q0 -23 14 -38t38 -15t38.5 15t14.5 38t-15 39t-38 16t-37.5 -16
t-14.5 -39z" />
    <glyph glyph-name="uring" unicode="&#x16f;" horiz-adv-x="565" 
d="M356 158l-15 3q-38 -75 -84.5 -124t-82.5 -49q-43 0 -69 32.5t-26 87.5q0 48 38 175l3 9q26 87 26 117q0 41 -31 41q-23 0 -44 -37.5t-32 -97.5q-4 1 -9.5 1h-7.5q34 174 106 174q88 0 88 -96q0 -46 -23 -128q-36 -124 -36 -179q0 -44 23 -63q34 0 73.5 48t67.5 106
t46 114q11 46 35 165q0 4 2 12t3 11h85l-78 -368q-4 -22 -4 -32q0 -44 36 -44q29 0 50 34.5t30 94.5q10 -2 17 -2q-8 -76 -36 -123t-76 -47q-82 0 -82 102q0 32 7 63zM234 618q0 38 26.5 65.5t63.5 27.5t63 -27.5t26 -65.5t-26 -65.5t-63 -27.5t-63.5 27.5t-26.5 65.5z
M270 618q0 -23 14.5 -38t38.5 -15t38.5 15t14.5 38t-15 39t-38 16q-24 0 -38.5 -16t-14.5 -39z" />
    <glyph glyph-name="Uhungarumlaut" unicode="&#x170;" horiz-adv-x="747" 
d="M821 691l-7 -35h-1q-98 -1 -107 -45l-69 -330q-33 -140 -107.5 -216.5t-207.5 -76.5q-212 0 -212 163q0 32 9 73l82 390q5 29 -8 35.5t-78 6.5q1 5 4 17.5t4 17.5h287q-1 -5 -4 -17t-4 -18q-63 0 -81.5 -7t-23.5 -35l-83 -390q-7 -32 -7 -63q0 -67 37.5 -100t101.5 -33
q50 0 90 15t65.5 38t45 58.5t29.5 67.5t19 74l70 330q5 24 -19 34.5t-90 10.5q1 6 4 18t4 17h257zM393 749v6l-1 -1l106 129h81v-8l-147 -126h-39zM534 749v6l-1 -1l106 129h81v-8l-148 -126h-38z" />
    <glyph glyph-name="uhungarumlaut" unicode="&#x171;" horiz-adv-x="565" 
d="M356 158l-15 3q-38 -75 -84.5 -124t-82.5 -49q-43 0 -69 32.5t-26 87.5q0 48 38 175l3 9q26 87 26 117q0 41 -31 41q-23 0 -44 -37.5t-32 -97.5q-4 1 -9.5 1h-7.5q34 174 106 174q88 0 88 -96q0 -46 -23 -128q-36 -124 -36 -179q0 -44 23 -63q34 0 73.5 48t67.5 106
t46 114q11 46 35 165q0 4 2 12t3 11h85l-78 -368q-4 -22 -4 -32q0 -44 36 -44q29 0 50 34.5t30 94.5q10 -2 17 -2q-8 -76 -36 -123t-76 -47q-82 0 -82 102q0 32 7 63zM198 545v6q78 124 104 164h82v-8l-153 -162h-33zM339 545v6q74 117 105 164h81v-8l1 1l-154 -163h-33z
M339 552l-1 -2q0 1 1 1v1zM198 552l-1 -2q0 1 1 1v1z" />
    <glyph glyph-name="Uogonek" unicode="&#x172;" horiz-adv-x="747" 
d="M821 691l-7 -35h-1q-98 -1 -107 -45l-69 -330q-53 -236 -217 -282q-62 -41 -62 -104q0 -64 50 -64q8 0 11 1v-29q-14 -3 -29 -3q-37 0 -64.5 20t-27.5 56q0 61 68 115q-26 -3 -44 -3q-212 0 -212 163q0 32 9 73l82 390q5 29 -8 35.5t-78 6.5q1 5 4 17.5t4 17.5h287
q-1 -5 -4 -17t-4 -18q-63 0 -81.5 -7t-23.5 -35l-83 -390q-7 -32 -7 -63q0 -67 37.5 -100t101.5 -33q50 0 90 15t65.5 38t45 58.5t29.5 67.5t19 74l70 330q5 24 -19 34.5t-90 10.5q1 6 4 18t4 17h257z" />
    <glyph glyph-name="uogonek" unicode="&#x173;" horiz-adv-x="565" 
d="M356 158l-15 3q-38 -75 -84.5 -124t-82.5 -49q-43 0 -69 32.5t-26 87.5q0 48 38 175l3 9q26 87 26 117q0 41 -31 41q-23 0 -44 -37.5t-32 -97.5q-4 1 -9.5 1h-7.5q34 174 106 174q88 0 88 -96q0 -46 -23 -128q-36 -124 -36 -179q0 -44 23 -63q34 0 73.5 48t67.5 106
t46 114q11 46 35 165q0 4 2 12t3 11h85l-78 -368q-4 -22 -4 -32q0 -44 36 -44q29 0 50 34.5t30 94.5q10 -2 17 -2q-12 -104 -53 -145l-3 -3h1q-14 -11 -31 -18q-59 -42 -59 -102q0 -64 51 -64q8 0 11 1v-30q-13 -3 -29 -3q-38 0 -65.5 20.5t-27.5 56.5q0 65 75 119
q-64 15 -64 100q0 32 7 63z" />
    <glyph glyph-name="Wcircumflex" unicode="&#x174;" horiz-adv-x="977" 
d="M664 173l9 -2l204 372q21 37 21 64q0 52 -75 49q1 6 4 18t4 17h225q-1 -5 -4 -17t-4 -18q-41 -1 -68.5 -26t-61.5 -87l-302 -559h-18l-55 464l-267 -464h-14l-71 593q-9 46 -27 62t-58 17q1 5 4 17.5t4 17.5h260q-1 -5 -4 -17.5t-4 -17.5q-54 1 -68.5 -18t-10.5 -61
l45 -418l205 347l-8 71q-5 53 -19 66t-65 13q1 6 4 18t4 17h259q-1 -5 -4 -17t-4 -18q-30 0 -47.5 -4t-24 -12t-8 -20.5t0.5 -28.5q0 -2 0.5 -6.5t0.5 -7.5zM730 755v-6h-38l-72 79q-55 -31 -133 -79h-38v6l160 128h42l80 -129z" />
    <glyph glyph-name="wcircumflex" unicode="&#x175;" horiz-adv-x="735" 
d="M480 461l-30 -365q-2 -25 14 -36q81 45 129.5 119t48.5 168q0 52 -12 93v-1q-7 34 5 57l50 14q23 -4 29 -52q7 -150 -90 -289t-238 -181q-24 2 -21 39l10 137q-47 -64 -108 -110.5t-123 -65.5q-24 2 -21 39l28 373l-7 16q-52 7 -71.5 -8t-29.5 -78l-19 4q9 74 30.5 108
t82.5 34q29 0 55 -5l43 -62l-1 1l-26 -314q0 -26 15 -36q57 34 99.5 84.5t59.5 113.5l15 201q0 8 49 8q32 0 34 -6zM559 550v-5h-32l-53 103l-111 -103h-46v7l150 163h40z" />
    <glyph glyph-name="Ycircumflex" unicode="&#x176;" horiz-adv-x="684" 
d="M755 656h-1q-70 -1 -134 -81l-203 -265l-39 -185q-6 -25 -6 -44q0 -29 19.5 -37t72.5 -8l-8 -36h-300l8 36q70 0 88 14t32 75l39 182l-104 258q-27 57 -45.5 73.5t-66.5 17.5q1 5 4 17.5t4 17.5h284q-1 -5 -4 -17t-4 -18q-89 0 -89 -37q0 -16 11 -35h-1l91 -233l177 232
q15 23 15 40q0 30 -46 33q1 6 4 18t4 17h205zM630 755v-6h-39l-72 79q-86 -50 -133 -79h-38v6l160 128h42l81 -129z" />
    <glyph glyph-name="ycircumflex" unicode="&#x177;" horiz-adv-x="514" 
d="M356 158l-15 3q-38 -75 -84.5 -124t-82.5 -49q-90 0 -90 117q0 66 32 176q0 3 2.5 9t3.5 9q24 72 24 107q0 39 -31 39q-23 0 -44 -36.5t-32 -93.5q-4 1 -9.5 1h-7.5q34 174 106 174q90 0 90 -100q0 -42 -22 -124q-36 -124 -36 -175q0 -40 20 -67q34 0 73.5 48t67.5 106
t46 114q11 46 35 165q0 4 2 12t3 11h85q-15 -73 -43.5 -208.5t-34.5 -164.5v1q-21 -80 -51 -141t-61 -97t-67.5 -58.5t-67 -30.5t-62.5 -8q-31 0 -56 17.5t-25 48.5q0 24 15.5 40.5t41.5 18.5q12 -58 56 -88q66 0 119 77t100 271zM431 550v-5h-32l-53 103l-111 -103h-46v7
l150 163h40z" />
    <glyph glyph-name="Ydieresis" unicode="&#x178;" horiz-adv-x="684" 
d="M762 691l-7 -35h-1q-70 -1 -134 -81l-203 -265l-39 -185q-6 -25 -6 -44q0 -29 19.5 -37t72.5 -8l-8 -36h-300l8 36q70 0 88 14t32 75l39 182l-104 258q-27 57 -45.5 73.5t-66.5 17.5q1 5 4 17.5t4 17.5h284q-1 -5 -4 -17t-4 -18q-89 0 -89 -37q0 -16 11 -35h-1l91 -233
l177 232q15 23 15 40q0 30 -46 33q1 6 4 18t4 17h205zM481 829q0 -20 -14 -34.5t-33 -14.5q-20 0 -34.5 15t-14.5 34q0 20 15 35.5t34 15.5t33 -15.5t14 -35.5zM643 829q0 -19 -15 -34t-33 -15q-19 0 -33.5 15t-14.5 34q0 20 14.5 35.5t33.5 15.5q18 0 33 -15.5t15 -35.5z
" />
    <glyph glyph-name="Zacute" unicode="&#x179;" horiz-adv-x="636" 
d="M-16 0l4 21l558 629l-2 6h-182q-80 0 -140.5 -62t-89.5 -150h-30q11 41 30.5 123.5t30.5 123.5h530l-4 -19l-563 -628l1 -6h209q70 0 130 58.5t100 172.5h31q-12 -46 -38.5 -138.5t-36.5 -130.5h-538zM385 749v6l-1 -1l101 129h86v-8l-143 -126h-43z" />
    <glyph glyph-name="zacute" unicode="&#x17a;" horiz-adv-x="439" 
d="M361 406l-11 9l-100 -42l-8 4q-52 25 -89 25q-26 0 -46 -28.5t-24 -64.5q-4 1 -11 2.5t-10 1.5q10 75 44.5 126t82.5 51q31 -1 53.5 -11t70.5 -39q59 2 97 47l37 -29l-188 -213l-143 -152l10 -8q11 3 25.5 7t31.5 9t25 7q13 -17 38 -29.5t45 -12.5q32 0 54 25.5t31 59.5
q5 -1 10.5 -3t9.5 -3q-20 -73 -54 -115t-77 -42q-56 0 -126 63q-55 -3 -104 -60l-10 8t-11 9t-10 8l217 239zM231 545v6l112 164h82v-8l1 1q-27 -31 -79.5 -88t-69.5 -75h-46zM230 550l1 2v-1z" />
    <glyph glyph-name="Zdotaccent" unicode="&#x17b;" horiz-adv-x="636" 
d="M-16 0l4 21l558 629l-2 6h-182q-80 0 -140.5 -62t-89.5 -150h-30q11 41 30.5 123.5t30.5 123.5h530l-4 -19l-563 -628l1 -6h209q70 0 130 58.5t100 172.5h31q-12 -46 -38.5 -138.5t-36.5 -130.5h-538zM413 814q0 26 17.5 49t42.5 23q17 0 29 -15.5t12 -37.5
q0 -26 -18.5 -48t-40.5 -22q-18 0 -30 15t-12 36z" />
    <glyph glyph-name="zdotaccent" unicode="&#x17c;" horiz-adv-x="439" 
d="M361 406l-11 9l-100 -42l-8 4q-52 25 -89 25q-26 0 -46 -28.5t-24 -64.5q-4 1 -11 2.5t-10 1.5q10 75 44.5 126t82.5 51q31 -1 53.5 -11t70.5 -39q59 2 97 47l37 -29l-188 -213l-143 -152l10 -8q11 3 25.5 7t31.5 9t25 7q13 -17 38 -29.5t45 -12.5q32 0 54 25.5t31 59.5
q5 -1 10.5 -3t9.5 -3q-20 -73 -54 -115t-77 -42q-56 0 -126 63q-55 -3 -104 -60l-10 8t-11 9t-10 8l217 239zM249 615q0 26 17.5 49.5t42.5 23.5q17 0 29 -16t12 -38q0 -26 -18.5 -47.5t-41.5 -21.5q-18 0 -29.5 14.5t-11.5 35.5z" />
    <glyph glyph-name="Zcaron" unicode="&#x17d;" horiz-adv-x="636" 
d="M-16 0l4 21l558 629l-2 6h-182q-80 0 -140.5 -62t-89.5 -150h-30q11 41 30.5 123.5t30.5 123.5h530l-4 -19l-563 -628l1 -6h209q70 0 130 58.5t100 172.5h31q-12 -46 -38.5 -138.5t-36.5 -130.5h-538zM340 877v6h38l73 -78q102 60 132 78h39v-6l-160 -128h-43l-80 129z
" />
    <glyph glyph-name="zcaron" unicode="&#x17e;" horiz-adv-x="439" 
d="M361 406l-11 9l-100 -42l-8 4q-52 25 -89 25q-26 0 -46 -28.5t-24 -64.5q-4 1 -11 2.5t-10 1.5q10 75 44.5 126t82.5 51q31 -1 53.5 -11t70.5 -39q59 2 97 47l37 -29l-188 -213l-143 -152l10 -8q11 3 25.5 7t31.5 9t25 7q13 -17 38 -29.5t45 -12.5q32 0 54 25.5t31 59.5
q5 -1 10.5 -3t9.5 -3q-20 -73 -54 -115t-77 -42q-56 0 -126 63q-55 -3 -104 -60l-10 8t-11 9t-10 8l217 239zM206 710v5h30l54 -103l111 103h47v-6l-151 -164h-40z" />
    <glyph glyph-name="florin" unicode="&#x192;" horiz-adv-x="544" 
d="M96 309l14 49h94l25 100q17 70 68 125t125 55q55 0 90 -21.5t35 -51.5q0 -20 -11 -33.5t-34 -13.5q-17 0 -28.5 11t-16.5 25t-17.5 25t-31.5 11q-31 0 -50.5 -34t-39.5 -105l-26 -93h120l-14 -49h-117l-88 -327q-23 -85 -65.5 -137t-99.5 -52q-41 0 -69.5 19.5
t-28.5 49.5q0 19 10 32t27 13q14 0 25 -10.5t17 -23.5t15.5 -23.5t20.5 -10.5q32 0 64 130l86 340h-99z" />
    <glyph glyph-name="Scommaaccent" unicode="&#x218;" horiz-adv-x="586" 
d="M84 65l-30 -65h-34l52 276h30v-22q0 -116 41.5 -171.5t135.5 -55.5q83 0 129.5 42t46.5 94q0 48 -42.5 82.5t-143.5 70.5q-153 55 -153 171q0 94 72 154t163 60q94 0 169 -67q3 5 15.5 28t17.5 33h31q-9 -42 -27 -127t-26 -128h-26q-6 116 -45.5 169.5t-116.5 53.5
q-64 0 -106 -40.5t-42 -86.5q0 -48 43 -83t135 -67q158 -58 158 -173q0 -92 -76.5 -158.5t-182.5 -66.5q-65 0 -113.5 24t-74.5 53zM217 -82q0 13 9.5 21.5t24.5 8.5q19 0 33.5 -18.5t14.5 -47.5q0 -51 -32 -88t-85 -38v27q31 1 48 20t17 40q0 19 -18 44q-12 16 -12 31z" />
    <glyph glyph-name="scommaaccent" unicode="&#x219;" horiz-adv-x="385" 
d="M22 67q0 31 18 51.5t46 22.5q-2 -59 13 -89.5t57 -30.5q36 0 60 25.5t24 58.5q0 21 -11.5 42t-23.5 33.5t-36 34.5q-24 21 -37.5 36.5t-26.5 43t-13 57.5q0 55 44 96.5t113 41.5q48 0 83 -26.5t35 -64.5q0 -29 -15.5 -46.5t-42.5 -19.5q0 125 -65 125q-32 0 -54.5 -22
t-22.5 -59q0 -21 12 -42.5t24 -34t35 -33.5q25 -22 38 -35.5t26.5 -40t13.5 -55.5q0 -64 -50.5 -106t-122.5 -42q-52 0 -86.5 22t-34.5 57zM86 143l5 -2h-5v2zM95 -86q0 13 9.5 22t24.5 9q18 0 32.5 -19t14.5 -47q0 -52 -31.5 -89t-85.5 -38v27q31 1 48.5 20t17.5 41
q0 19 -18 44q-12 16 -12 30z" />
    <glyph glyph-name="schwa" unicode="&#x259;" horiz-adv-x="425" 
d="M51 89q0 114 273 224q5 71 -24 103.5t-71 32.5q-41 0 -82.5 -40t-64.5 -87q-5 4 -13 8.5t-10 6.5q82 153 191 153q163 0 163 -188q0 -134 -74.5 -224t-169.5 -90q-55 0 -86.5 27t-31.5 74zM129 73q0 -51 51 -51q57 0 99.5 78t45.5 185q-103 -46 -149.5 -97.5
t-46.5 -114.5z" />
    <glyph glyph-name="quoteleft" unicode="&#x2bb;" horiz-adv-x="381" 
d="M301 433q0 -21 -15.5 -33.5t-39.5 -12.5q-31 0 -52.5 30t-21.5 79q0 90 61 156.5t155 67.5v-38q-69 -2 -110.5 -44t-41.5 -89q0 -33 37 -64q28 -28 28 -52z" />
    <glyph glyph-name="quoteleft" unicode="&#x2018;" horiz-adv-x="381" 
d="M301 433q0 -21 -15.5 -33.5t-39.5 -12.5q-31 0 -52.5 30t-21.5 79q0 90 61 156.5t155 67.5v-38q-69 -2 -110.5 -44t-41.5 -89q0 -33 37 -64q28 -28 28 -52z" />
    <glyph glyph-name="circumflex" unicode="&#x2c6;" horiz-adv-x="500" 
d="M372 506v-5h-31l-53 102l-111 -102h-46v6l150 163h40z" />
    <glyph glyph-name="caron" unicode="&#x2c7;" horiz-adv-x="500" 
d="M178 665v5h30l55 -103l110 103h46v-6l-149 -163h-41z" />
    <glyph glyph-name="breve" unicode="&#x2d8;" horiz-adv-x="500" 
d="M261 496q-33 0 -52.5 28t-19.5 77q0 23 4 44h30q-4 -38 7.5 -63.5t37.5 -25.5q30 0 57.5 25.5t39.5 63.5h28q-20 -72 -57 -110.5t-75 -38.5z" />
    <glyph glyph-name="dotaccent" unicode="&#x2d9;" horiz-adv-x="500" 
d="M221 570q0 26 17.5 49.5t42.5 23.5q17 0 29 -15.5t12 -38.5q0 -26 -18.5 -47.5t-40.5 -21.5q-18 0 -30 14.5t-12 35.5z" />
    <glyph glyph-name="ring" unicode="&#x2da;" horiz-adv-x="500" 
d="M181 573q0 39 26 66t64 27q37 0 63 -27t26 -66q0 -38 -26 -65t-63 -27t-63.5 27t-26.5 65zM217 573q0 -23 14.5 -38t38.5 -15t38.5 15t14.5 38t-15 39.5t-38 16.5q-24 0 -38.5 -16.5t-14.5 -39.5z" />
    <glyph glyph-name="ogonek" unicode="&#x2db;" horiz-adv-x="500" 
d="M285 21v-5q-91 -50 -91 -121q0 -64 50 -64q8 0 11 1v-29q-14 -3 -29 -3q-37 0 -64.5 20t-27.5 56q0 92 137 153z" />
    <glyph glyph-name="tilde" unicode="&#x2dc;" horiz-adv-x="500" 
d="M392 631l17 -6q-14 -46 -41 -81t-51 -35q-12 0 -58 30q-48 30 -65 30q-12 0 -22 -9.5t-15 -18.5t-15 -32q-3 1 -10 3t-10 4q12 38 40 77.5t44 39.5q15 0 61 -32q44 -30 64 -30q17 0 35 19t26 41z" />
    <glyph glyph-name="hungarumlaut" unicode="&#x2dd;" horiz-adv-x="500" 
d="M285 501v6l-1 -1q18 26 53 81.5t52 82.5h82v-8l-153 -161h-33zM144 501v6l-1 -1q18 26 53 81.5t52 82.5h82v-8l-153 -161h-33z" />
    <glyph glyph-name="Delta" unicode="&#x394;" horiz-adv-x="544" 
d="M532 0h-520l223 631h45zM239 494l-150 -439h320z" />
    <glyph glyph-name="Delta" unicode="&#x2206;" horiz-adv-x="544" 
d="M532 0h-520l223 631h45zM239 494l-150 -439h320z" />
    <glyph glyph-name="Omega" unicode="&#x3a9;" horiz-adv-x="544" 
d="M271 588q-72 0 -110 -69.5t-38 -155.5q0 -133 38 -228t91 -112l-6 -23h-223l-20 146h29l43 -94h54l6 10q-43 49 -72 128t-29 162q0 114 66.5 200t171.5 86t171.5 -86t66.5 -200q0 -83 -29 -162t-72 -128l6 -10h54l43 94h29l-20 -146h-223l-6 23q53 17 91 112t38 228
q0 53 -15 102.5t-50.5 86t-84.5 36.5z" />
    <glyph glyph-name="Omega" unicode="&#x2126;" horiz-adv-x="544" 
d="M271 588q-72 0 -110 -69.5t-38 -155.5q0 -133 38 -228t91 -112l-6 -23h-223l-20 146h29l43 -94h54l6 10q-43 49 -72 128t-29 162q0 114 66.5 200t171.5 86t171.5 -86t66.5 -200q0 -83 -29 -162t-72 -128l6 -10h54l43 94h29l-20 -146h-223l-6 23q53 17 91 112t38 228
q0 53 -15 102.5t-50.5 86t-84.5 36.5z" />
    <glyph glyph-name="lambda" unicode="&#x3bb;" horiz-adv-x="528" 
d="M258 608l115 -454q16 -65 24 -83.5t23 -18.5q12 0 27 27t32 27q16 0 25 -12t9 -30q0 -32 -25 -52.5t-60 -20.5q-77 0 -100 111l-55 224l-150 -326h-101l217 467l-33 135q-18 79 -58 79q-16 0 -41 -32.5t-43 -32.5q-36 0 -36 39q0 31 31 55t80 24q48 0 78 -35.5t41 -90.5z
" />
    <glyph glyph-name="pi" unicode="&#x3c0;" horiz-adv-x="544" 
d="M169 22q-26 -43 -65 -32q-28 8 -33 34q-5 24 19 43q56 57 80 127t24 183h-31q-35 0 -53 -13t-27 -48l-27 5q15 64 37.5 91t62.5 27h332v-62h-101l-21 -254q-4 -51 32 -51q42 0 65 62l25 -3q-36 -138 -112 -138q-43 0 -63 29t-15 79l27 276h-84q-5 -239 -72 -355z" />
    <glyph glyph-name="Wgrave" unicode="&#x1e80;" horiz-adv-x="977" 
d="M664 173l9 -2l204 372q21 37 21 64q0 52 -75 49q1 6 4 18t4 17h225q-1 -5 -4 -17t-4 -18q-41 -1 -68.5 -26t-61.5 -87l-302 -559h-18l-55 464l-267 -464h-14l-71 593q-9 46 -27 62t-58 17q1 5 4 17.5t4 17.5h260q-1 -5 -4 -17.5t-4 -17.5q-54 1 -68.5 -18t-10.5 -61
l45 -418l205 347l-8 71q-5 53 -19 66t-65 13q1 6 4 18t4 17h259q-1 -5 -4 -17t-4 -18q-30 0 -47.5 -4t-24 -12t-8 -20.5t0.5 -28.5q0 -2 0.5 -6.5t0.5 -7.5zM635 754v-5h-41l-102 126v8h81q10 -23 31.5 -66.5t30.5 -62.5z" />
    <glyph glyph-name="wgrave" unicode="&#x1e81;" horiz-adv-x="735" 
d="M480 461l-30 -365q-2 -25 14 -36q81 45 129.5 119t48.5 168q0 52 -12 93v-1q-7 34 5 57l50 14q23 -4 29 -52q7 -150 -90 -289t-238 -181q-24 2 -21 39l10 137q-47 -64 -108 -110.5t-123 -65.5q-24 2 -21 39l28 373l-7 16q-52 7 -71.5 -8t-29.5 -78l-19 4q9 74 30.5 108
t82.5 34q29 0 55 -5l43 -62l-1 1l-26 -314q0 -26 15 -36q57 34 99.5 84.5t59.5 113.5l15 201q0 8 49 8q32 0 34 -6zM478 550v-5h-36l-114 163l1 -1v8h82q14 -32 39 -94.5t28 -70.5z" />
    <glyph glyph-name="Wacute" unicode="&#x1e82;" horiz-adv-x="977" 
d="M664 173l9 -2l204 372q21 37 21 64q0 52 -75 49q1 6 4 18t4 17h225q-1 -5 -4 -17t-4 -18q-41 -1 -68.5 -26t-61.5 -87l-302 -559h-18l-55 464l-267 -464h-14l-71 593q-9 46 -27 62t-58 17q1 5 4 17.5t4 17.5h260q-1 -5 -4 -17.5t-4 -17.5q-54 1 -68.5 -18t-10.5 -61
l45 -418l205 347l-8 71q-5 53 -19 66t-65 13q1 6 4 18t4 17h259q-1 -5 -4 -17t-4 -18q-30 0 -47.5 -4t-24 -12t-8 -20.5t0.5 -28.5q0 -2 0.5 -6.5t0.5 -7.5zM534 749v6l-1 -1l101 129h86v-8l-143 -126h-43z" />
    <glyph glyph-name="wacute" unicode="&#x1e83;" horiz-adv-x="735" 
d="M480 461l-30 -365q-2 -25 14 -36q81 45 129.5 119t48.5 168q0 52 -12 93v-1q-7 34 5 57l50 14q23 -4 29 -52q7 -150 -90 -289t-238 -181q-24 2 -21 39l10 137q-47 -64 -108 -110.5t-123 -65.5q-24 2 -21 39l28 373l-7 16q-52 7 -71.5 -8t-29.5 -78l-19 4q9 74 30.5 108
t82.5 34q29 0 55 -5l43 -62l-1 1l-26 -314q0 -26 15 -36q57 34 99.5 84.5t59.5 113.5l15 201q0 8 49 8q32 0 34 -6zM389 545v6l112 164h83v-8q-16 -18 -68.5 -75t-79.5 -87h-47zM388 550l1 2v-1z" />
    <glyph glyph-name="Wdieresis" unicode="&#x1e84;" horiz-adv-x="977" 
d="M664 173l9 -2l204 372q21 37 21 64q0 52 -75 49q1 6 4 18t4 17h225q-1 -5 -4 -17t-4 -18q-41 -1 -68.5 -26t-61.5 -87l-302 -559h-18l-55 464l-267 -464h-14l-71 593q-9 46 -27 62t-58 17q1 5 4 17.5t4 17.5h260q-1 -5 -4 -17.5t-4 -17.5q-54 1 -68.5 -18t-10.5 -61
l45 -418l205 347l-8 71q-5 53 -19 66t-65 13q1 6 4 18t4 17h259q-1 -5 -4 -17t-4 -18q-30 0 -47.5 -4t-24 -12t-8 -20.5t0.5 -28.5q0 -2 0.5 -6.5t0.5 -7.5zM743 829q0 -19 -14.5 -34t-32.5 -15q-19 0 -33.5 15t-14.5 34q0 20 14.5 35.5t33.5 15.5q18 0 32.5 -15.5
t14.5 -35.5zM581 829q0 -20 -14 -34.5t-33 -14.5t-33.5 15t-14.5 34q0 20 14.5 35.5t33.5 15.5t33 -15.5t14 -35.5z" />
    <glyph glyph-name="wdieresis" unicode="&#x1e85;" horiz-adv-x="735" 
d="M480 461l-30 -365q-2 -25 14 -36q81 45 129.5 119t48.5 168q0 52 -12 93v-1q-7 34 5 57l50 14q23 -4 29 -52q7 -150 -90 -289t-238 -181q-24 2 -21 39l10 137q-47 -64 -108 -110.5t-123 -65.5q-24 2 -21 39l28 373l-7 16q-52 7 -71.5 -8t-29.5 -78l-19 4q9 74 30.5 108
t82.5 34q29 0 55 -5l43 -62l-1 1l-26 -314q0 -26 15 -36q57 34 99.5 84.5t59.5 113.5l15 201q0 8 49 8q32 0 34 -6zM591 615q0 -19 -15 -34t-33 -15q-19 0 -33.5 15t-14.5 34q0 20 14.5 35.5t33.5 15.5q18 0 33 -15.5t15 -35.5zM429 615q0 -20 -14.5 -34.5t-33.5 -14.5
t-33.5 15t-14.5 34q0 20 14.5 35.5t33.5 15.5t33.5 -15.5t14.5 -35.5z" />
    <glyph glyph-name="uni1e9e" unicode="&#x1e9e;" horiz-adv-x="773" 
d="M470 -12q-82 0 -144 33l26 152h34q0 -2 -0.5 -4.5t-0.5 -4.5v-10q0 -132 92 -132q62 0 107 53.5t45 146.5q0 134 -113 134q-53 0 -107 -27l-45 46l257 267l-4 14h-298l-122 -577v1q-2 -6 -2 -14q0 -17 14.5 -21.5t60.5 -7.5q2 0 5 -0.5t5 -0.5l-8 -36h-289q1 7 4 18.5
t4 18.5h5q27 2 40.5 4t30.5 7t25.5 14.5t11.5 24.5l112 531q1 4 1 11q0 17 -18.5 22t-76.5 5q1 5 4 17.5t4 17.5h615v-39l-239 -241l6 -14q26 6 59 6q73 0 114 -44.5t41 -122.5q0 -114 -74 -181t-182 -67z" />
    <glyph glyph-name="Ygrave" unicode="&#x1ef2;" horiz-adv-x="684" 
d="M762 691l-7 -35h-1q-70 -1 -134 -81l-203 -265l-39 -185q-6 -25 -6 -44q0 -29 19.5 -37t72.5 -8l-8 -36h-300l8 36q70 0 88 14t32 75l39 182l-104 258q-27 57 -45.5 73.5t-66.5 17.5q1 5 4 17.5t4 17.5h284q-1 -5 -4 -17t-4 -18q-89 0 -89 -37q0 -16 11 -35h-1l91 -233
l177 232q15 23 15 40q0 30 -46 33q1 6 4 18t4 17h205zM534 754v-5h-40l-103 126v8h82q11 -23 32 -67.5t29 -61.5z" />
    <glyph glyph-name="ygrave" unicode="&#x1ef3;" horiz-adv-x="514" 
d="M356 158l-15 3q-38 -75 -84.5 -124t-82.5 -49q-90 0 -90 117q0 66 32 176q0 3 2.5 9t3.5 9q24 72 24 107q0 39 -31 39q-23 0 -44 -36.5t-32 -93.5q-4 1 -9.5 1h-7.5q34 174 106 174q90 0 90 -100q0 -42 -22 -124q-36 -124 -36 -175q0 -40 20 -67q34 0 73.5 48t67.5 106
t46 114q11 46 35 165q0 4 2 12t3 11h85q-15 -73 -43.5 -208.5t-34.5 -164.5v1q-21 -80 -51 -141t-61 -97t-67.5 -58.5t-67 -30.5t-62.5 -8q-31 0 -56 17.5t-25 48.5q0 24 15.5 40.5t41.5 18.5q12 -58 56 -88q66 0 119 77t100 271zM350 550v-5h-36l-114 163l1 -1v8h82
q14 -32 39 -94.5t28 -70.5z" />
    <glyph glyph-name="uni2011" unicode="&#x2011;" horiz-adv-x="318" 
d="M47 280h246v-66h-246v66z" />
    <glyph glyph-name="endash" unicode="&#x2013;" horiz-adv-x="488" 
d="M56 280h399v-66h-399v66z" />
    <glyph glyph-name="emdash" unicode="&#x2014;" horiz-adv-x="1000" 
d="M99 275h822v-56h-822v56z" />
    <glyph glyph-name="quoteright" unicode="&#x2019;" horiz-adv-x="381" 
d="M219 675q0 20 15.5 32.5t39.5 12.5q31 0 52.5 -30t21.5 -78q0 -91 -61 -157.5t-155 -67.5v38q69 2 110.5 44t41.5 89q0 34 -37 65q-28 28 -28 52z" />
    <glyph glyph-name="quotesinglbase" unicode="&#x201a;" horiz-adv-x="381" 
d="M94 76q0 21 15 33.5t39 12.5q31 0 52.5 -30.5t21.5 -78.5q0 -91 -61 -157t-155 -67v38q70 2 111 44t41 89q0 32 -36 64q-28 28 -28 52z" />
    <glyph glyph-name="quotedblleft" unicode="&#x201c;" horiz-adv-x="621" 
d="M300 433q0 -21 -15.5 -33.5t-39.5 -12.5q-31 0 -52.5 30t-21.5 79q0 90 61 156.5t155 67.5v-38q-69 -2 -110.5 -44t-41.5 -89q0 -33 37 -64q28 -28 28 -52zM541 433q0 -21 -15 -33.5t-39 -12.5q-32 0 -53.5 30.5t-21.5 78.5q0 90 61.5 156.5t155.5 67.5v-38
q-70 -2 -111 -44t-41 -89q0 -32 36 -64q28 -28 28 -52z" />
    <glyph glyph-name="quotedblright" unicode="&#x201d;" horiz-adv-x="621" 
d="M460 675q0 20 15.5 32.5t38.5 12.5q31 0 52.5 -30t21.5 -78q0 -91 -61 -157.5t-155 -67.5v38q70 2 111 44t41 89q0 33 -36 65q-28 28 -28 52zM218 675q0 20 15.5 32.5t39.5 12.5q31 0 52.5 -30t21.5 -78q0 -91 -61 -157.5t-155 -67.5v38q69 2 110.5 44t41.5 89
q0 34 -37 65q-28 28 -28 52z" />
    <glyph glyph-name="quotedblbase" unicode="&#x201e;" horiz-adv-x="621" 
d="M334 76q0 21 15 33.5t39 12.5q31 0 53 -30.5t22 -78.5q0 -90 -61.5 -156.5t-155.5 -67.5v38q70 2 111 44t41 89q0 32 -36 64q-28 28 -28 52zM93 76q0 21 15 33.5t39 12.5q31 0 52.5 -30.5t21.5 -78.5q0 -91 -61 -157t-155 -67v38q70 2 111 44t41 89q0 32 -36 64
q-28 28 -28 52z" />
    <glyph glyph-name="dagger" unicode="&#x2020;" horiz-adv-x="548" 
d="M554 480q-5 -28 -30.5 -45t-52.5 -14q-18 6 -32 17q-1 0 -6 3t-6 3.5l-6 3t-7.5 3.5t-8 3t-9 2.5t-10 1.5t-12.5 1.5t-14 1t-17 0.5q-18 -92 -18 -132q0 -45 21 -71q-25 -14 -48.5 -72t-59.5 -223h-29q38 183 38 242q0 40 -18 53q55 50 85 203q-61 0 -107 -25
q-14 -9 -37 -17h1q-26 -7 -44 13t-13 48q7 26 32 42t50 13q10 -3 33 -16q38 -23 94 -23q6 26 6 56q0 21 -8 55q-6 25 -8 38q-4 26 17.5 49.5t49.5 23.5q27 0 40 -22.5t2 -49.5q-7 -19 -24 -44q-32 -49 -46 -106q57 0 111 26l13 6q14 7 22 10h-1q27 7 45 -12t12 -46z" />
    <glyph glyph-name="daggerdbl" unicode="&#x2021;" horiz-adv-x="548" 
d="M326 331q0 -46 22 -75q-36 -33 -53 -75.5t-36 -129.5q54 0 102 23q23 12 42 17q27 3 46 -14t13 -44q-7 -28 -33.5 -46.5t-49.5 -11.5q-12 5 -28 16q-38 25 -101 25q-6 -30 -6 -51q0 -22 8 -54q8 -26 8 -43q0 -27 -24 -50.5t-52 -23.5q-19 0 -30.5 13t-11.5 32q0 12 7 28
q9 17 23 36q36 54 49 113q-57 0 -101 -22q-31 -14 -42 -17q-28 -3 -45.5 13t-11.5 43q6 29 32 48.5t52 12.5h-1q13 -7 27 -17q38 -26 98 -26q19 90 19 133q0 45 -19 73q55 49 86 204q-61 0 -107 -25q-14 -9 -37 -17h1q-27 -7 -45 13t-12 48q6 27 31 42.5t51 12.5l34 -16
q38 -23 93 -23q6 26 6 56q0 21 -8 55q-6 24 -8 38q-4 26 17.5 49.5t49.5 23.5q27 0 40 -22.5t2 -49.5q-7 -19 -24 -44q-32 -49 -46 -106q57 0 111 26l14 6q13 7 21 10h-1q27 7 45 -12t12 -46q-6 -28 -31.5 -45t-51.5 -14q-18 6 -32 17q-1 0 -6 3t-6 3.5l-6 3t-7.5 3.5t-8 3
t-9 2.5t-10 1.5t-12.5 1.5t-14 1t-17 0.5q-18 -90 -18 -130zM350 258l-1 -2h-1z" />
    <glyph glyph-name="bullet" unicode="&#x2022;" horiz-adv-x="604" 
d="M187 264q0 56 40 96t96 40t96 -40t40 -96t-40 -96t-96 -40t-96 40t-40 96z" />
    <glyph glyph-name="ellipsis" unicode="&#x2026;" horiz-adv-x="993" 
d="M103 55q0 27 17 45.5t42 18.5t42.5 -18.5t17.5 -45.5q0 -26 -17.5 -44t-42.5 -18t-42 18t-17 44zM414 55q0 27 17.5 45.5t42.5 18.5t42.5 -18.5t17.5 -45.5q0 -26 -17.5 -44t-42.5 -18t-42.5 18t-17.5 44zM726 55q0 27 17.5 45.5t42.5 18.5t42.5 -18.5t17.5 -45.5
q0 -26 -17.5 -44t-42.5 -18t-42.5 18t-17.5 44z" />
    <glyph glyph-name="perthousand" unicode="&#x2030;" horiz-adv-x="831" 
d="M316 578l-11 -2q-1 -81 -43 -134t-97 -53q-45 0 -74 35.5t-29 89.5q0 74 45.5 128t97.5 54q31 0 56 -18t36 -50q6 -16 26.5 -26t44.5 -10q52 0 91 33q21 65 49 65q7 0 13 -5t6 -15q0 -14 -13 -31t-29 -28l-191 -291l-215 -336q-6 4 -15 12t-12 10l224 332l142 232l-12 2
q-20 -12 -45 -12q-27 0 -45 18zM287 113q0 74 45 128.5t97 54.5q45 0 72.5 -31.5t27.5 -84.5q0 -86 -42.5 -138.5t-94.5 -52.5q-47 0 -76 34.5t-29 89.5zM447 254q-35 0 -65.5 -53.5t-30.5 -115.5q0 -29 13 -44.5t33 -15.5q36 0 66 42t30 122q0 31 -13 48t-33 17zM222 655
q-34 0 -64.5 -53.5t-30.5 -113.5q0 -63 47 -63q35 0 64.5 43t29.5 122q0 31 -13 48t-33 17zM568 113q0 74 45.5 128.5t97.5 54.5q44 0 72 -31.5t28 -84.5q0 -86 -43 -138.5t-95 -52.5q-46 0 -75.5 35t-29.5 89zM728 254q-35 0 -65.5 -53.5t-30.5 -115.5q0 -29 13 -44.5
t33 -15.5q35 0 65 42t30 122q0 31 -12.5 48t-32.5 17z" />
    <glyph glyph-name="uni2032" unicode="&#x2032;" horiz-adv-x="290" 
d="M168 458l69 262q16 -5 44.5 -15.5t42.5 -15.5l-112 -246q-6 2 -21.5 7t-22.5 8z" />
    <glyph glyph-name="uni2033" unicode="&#x2033;" horiz-adv-x="480" 
d="M168 458l69 262q16 -5 44.5 -15.5t42.5 -15.5l-112 -246q-6 2 -21.5 7t-22.5 8zM359 458l69 262q16 -5 44.5 -15.5t42.5 -15.5l-112 -246q-6 2 -21.5 7t-22.5 8z" />
    <glyph glyph-name="guilsinglleft" unicode="&#x2039;" horiz-adv-x="445" 
d="M130 238l241 217q4 -4 13.5 -12t14.5 -14l-188 -205l-5 -15l49 -200q-3 -1 -14 -6.5t-17 -6.5l-99 220l7 22h-2z" />
    <glyph glyph-name="guilsinglright" unicode="&#x203a;" horiz-adv-x="445" 
d="M336 215l-241 -217l-29 26l188 205l6 15l-50 201q3 1 14 6.5t17 6.5l100 -221l-7 -22h2z" />
    <glyph glyph-name="uni2042" unicode="&#x2042;" horiz-adv-x="901" 
d="M672 163l-2 -3q36 -35 102 -79q18 -10 18 -27q0 -16 -13.5 -28.5t-28.5 -12.5q-17 0 -27 19l-10 20q-37 70 -61 98q-14 -65 -14 -136q0 -33 -28 -33q-21 0 -33.5 15.5t0.5 37.5q5 10 17 30q28 46 45 88q-65 -18 -125 -56q-16 -9 -30.5 5t-14.5 33q0 30 31 30h11
q75 0 122 10q-44 37 -107 74q-15 7 -15 25q0 14 11.5 27t24.5 13q16 0 26 -18l16 -26q25 -44 59 -88q11 68 13 134q0 17 8.5 26t21.5 9q21 0 33 -16t-1 -40l-19 -32q-40 -68 -46 -81q71 20 125 50q21 12 34 0.5t13 -32.5q0 -16 -7.5 -26t-23.5 -9q-8 0 -32 2q-28 2 -42 2
q-30 0 -51 -5zM249 163l-2 -3q37 -35 103 -79q17 -10 17 -27q0 -16 -13 -28.5t-28 -12.5q-17 0 -27 19l-10 20q-3 5 -9 17.5t-10 19.5t-10.5 18t-14.5 21.5t-18 21.5q-14 -65 -14 -136q0 -33 -28 -33q-20 0 -32.5 15.5t0.5 37.5q5 10 17 30q28 50 44 88q-65 -18 -124 -56
q-17 -8 -31.5 5.5t-14.5 32.5q0 30 31 30h12q75 0 121 10q-43 37 -106 74q-15 7 -15 25q0 14 11.5 27t24.5 13q16 0 26 -18l16 -26q28 -49 58 -88q11 68 13 134q0 35 31 35q21 0 33 -16t-1 -40l-19 -32q-45 -77 -47 -81q73 20 125 50q21 12 34 0.5t13 -32.5q0 -16 -7.5 -26
t-23.5 -9q-9 0 -31 2q-28 2 -42 2q-29 0 -52 -5zM481 535l-2 -3q39 -38 102 -78q17 -10 17 -28q0 -16 -13 -28.5t-28 -12.5q-17 0 -27 19l-10 20q-34 66 -61 98q-14 -65 -14 -136q0 -33 -29 -33q-20 0 -32.5 15.5t0.5 37.5l17 31q31 52 45 87q-65 -18 -125 -56
q-16 -8 -30.5 6t-14.5 32q0 30 31 30h11q75 0 122 10q-41 35 -107 75q-15 7 -15 24q0 14 11.5 27t24.5 13q16 0 26 -18l16 -26q33 -55 59 -88q11 69 13 134q0 17 9 26t21 9q21 0 33 -16t-1 -40l-19 -32q-34 -57 -46 -81q72 20 124 50q23 11 35.5 0t12.5 -32q0 -16 -7.5 -26
t-23.5 -9q-10 0 -32 2q-28 2 -42 2q-30 0 -51 -5z" />
    <glyph glyph-name="fraction" unicode="&#x2044;" 
d="M122 -16l307 371q56 68 159.5 196.5t124.5 154.5l29 -22l-295 -349l-296 -373q-6 5 -14.5 11t-14.5 11z" />
    <glyph glyph-name="zero.sups" unicode="&#x2070;" horiz-adv-x="331" 
d="M416 687q0 -115 -54.5 -196t-137.5 -81q-48 0 -76.5 28t-28.5 86q0 109 60.5 194t135.5 85q43 0 72 -30t29 -86zM232 436q55 0 88.5 78.5t33.5 178.5q0 86 -50 86q-34 0 -63 -46t-44 -106t-15 -111q0 -44 11 -62t39 -18z" />
    <glyph glyph-name="four.sups" unicode="&#x2074;" horiz-adv-x="322" 
d="M103 533l-2 11l258 260q5 -1 13 -3t12 -2l-51 -242h58q-1 -4 -3 -12.5t-2 -11.5h-59l-9 -41q-6 -33 6.5 -43.5t40.5 -11.5l-4 -20h-181l4 20q31 1 48.5 12t24.5 39l10 45h-164zM155 557h116l31 151l-142 -146l-5 -1v-4z" />
    <glyph glyph-name="five.sups" unicode="&#x2075;" horiz-adv-x="316" 
d="M231 736l-29 -94q46 20 84 20q40 0 68 -23t28 -66q0 -71 -58 -117t-134 -46q-35 0 -62.5 17t-27.5 46q0 22 14.5 38.5t32.5 16.5q34 0 34 -36l1 1l-36 -41q17 -17 52 -17q52 0 83 41t31 92q0 63 -48 63q-43 0 -83 -36h-27l59 204q51 -16 101 -16q54 0 106 21
q-3 -12 -5 -23l2 1q-52 -50 -140 -50q-22 0 -46 4z" />
    <glyph glyph-name="six.sups" unicode="&#x2076;" horiz-adv-x="333" 
d="M332 803q42 0 64 -21t22 -49q0 -20 -12 -33t-30 -13q-21 0 -32 10t-7 23h-2l36 34q-12 27 -44 27q-39 0 -74.5 -52t-53.5 -115q53 40 104 40q47 0 71 -24t24 -66q0 -69 -54 -111.5t-113 -42.5q-45 0 -76 30t-31 90q0 107 66 190t142 83zM237 436q41 0 67 40.5t26 81.5
q0 71 -44 71q-21 0 -48.5 -18t-48.5 -51q-6 -44 -6 -56q0 -68 54 -68z" />
    <glyph glyph-name="seven.sups" unicode="&#x2077;" horiz-adv-x="305" 
d="M167 450q51 146 196 291l-6 2q-22 -8 -54 -8q-11 0 -29 4h-5q-25 5 -26 5q-23 0 -42.5 -19.5t-30.5 -53.5h-26l44 129h30v-8q29 11 45 11q19 0 45 -12q24 -11 42 -11q30 0 82 27l14 -20q-81 -79 -128 -154.5t-76 -183.5q-8 -36 -45 -36q-42 0 -30 37z" />
    <glyph glyph-name="eight.sups" unicode="&#x2078;" horiz-adv-x="322" 
d="M211 601l-7 2l5 3v-3q1 0 2 1h1v-1l1 3q-53 29 -53 81q0 46 42.5 81t96.5 35q111 0 111 -80q0 -57 -93 -101l2 -4h2v1q-1 0 -2 1l3 1l-1 -2q63 -29 63 -80q0 -58 -50 -93.5t-113 -35.5q-53 0 -84.5 22.5t-31.5 60.5q0 32 32 61t77 46l-2 3zM227 436q43 0 70 24t27 56
q0 53 -81 73q-32 -9 -57 -33.5t-25 -56.5q0 -30 18 -46.5t48 -16.5zM216 704q0 -25 19 -44t53 -29q64 31 64 87q0 28 -15 44.5t-42 16.5q-32 0 -55.5 -23.5t-23.5 -51.5z" />
    <glyph glyph-name="nine.sups" unicode="&#x2079;" horiz-adv-x="333" 
d="M208 410q-42 0 -64.5 18t-22.5 42q0 21 12 36.5t27 15.5q22 0 32.5 -11t7.5 -25l-31 -27q13 -26 44 -26q40 0 74 48.5t53 117.5q-53 -40 -103 -40q-47 0 -70.5 25t-23.5 68q0 65 51.5 108t115.5 43q45 0 75.5 -30t30.5 -94q0 -105 -65 -187t-143 -82zM303 779
q-43 0 -68.5 -42t-25.5 -91q0 -61 45 -61q21 0 48 18.5t49 50.5q6 42 6 56q0 69 -54 69z" />
    <glyph glyph-name="Euro" unicode="&#x20ac;" horiz-adv-x="645" 
d="M105 400h65q47 126 134.5 200.5t182.5 74.5q100 0 176 -64l-28 -63t-31 -69h-22q6 25 6 48q0 57 -34.5 82t-76.5 25q-64 0 -121 -59t-95 -175h310l-21 -42h-302l-9 -41l-4 -19h286q-9 -18 -19 -43h-273q-2 -16 -2 -47q0 -85 34.5 -131t86.5 -46q114 0 181 128l30 -11
q-81 -160 -231 -160q-87 0 -140.5 59t-53.5 166q0 14 2 42h-73l19 43h61l3 18l9 42h-69z" />
    <glyph glyph-name="uni2117" unicode="&#x2117;" horiz-adv-x="775" 
d="M48 327q0 138 100.5 238t239.5 100q144 0 241.5 -99t97.5 -239t-100 -240.5t-239 -100.5q-142 0 -241 96.5t-99 244.5zM108 324q0 -122 79 -203.5t203 -81.5q123 0 199.5 81t76.5 204q0 125 -79 208t-199 83q-122 0 -201 -83.5t-79 -207.5zM412 296h-41v-119l50 -8v-27
h-176v27l47 8v299l-47 8v26h169q56 0 98 -26.5t42 -80.5q0 -49 -38 -78t-104 -29zM371 470v-136h45q23 0 40.5 18t17.5 47q0 71 -62 71h-41z" />
    <glyph glyph-name="trademark" unicode="&#x2122;" horiz-adv-x="670" 
d="M619 634h-7l-116 -179h-17l-36 179h-5l-47 -150l32 -6l-5 -23h-92l5 23l34 6l60 193l-36 6l5 23h94l26 -165h7l107 165h92l-5 -23l-37 -6l-29 -193l30 -6l-5 -23h-118l5 23l35 6zM155 706h210l-2 -74h-20l-22 47h-38l-42 -195l31 -6l-5 -23h-121l5 23l33 6l42 195h-37
l-42 -47h-21z" />
    <glyph glyph-name="oneseventh" unicode="&#x2150;" 
d="M121 -16l307 371q56 68 159.5 196.5t124.5 154.5l29 -22l-295 -349l-296 -373q-6 5 -15 11t-14 11zM177 647l5 20q70 3 117 22h29l-67 -316q-5 -21 11 -32t52 -12l-4 -19h-210l3 19q41 1 60 10.5t25 32.5l26 124l30 141zM515 22q50 144 196 292l-6 2q-22 -8 -54 -8
q-11 0 -29 4h-5q-25 5 -26 5q-23 0 -42.5 -20t-30.5 -54h-26l44 129h30v-8q29 11 45 11q19 0 45 -12q24 -11 42 -11q30 0 82 27l14 -20q-81 -78 -128 -153.5t-76 -184.5q-8 -35 -45 -35q-42 0 -30 36z" />
    <glyph glyph-name="oneninth" unicode="&#x2151;" 
d="M122 -16l307 371q56 68 159.5 196.5t124.5 154.5l29 -22l-295 -349l-296 -373q-6 5 -14.5 11t-14.5 11zM178 647l5 20q70 3 117 22h29l-67 -316q-5 -21 11 -32t52 -12l-4 -19h-210l3 19q41 1 60 10.5t25 32.5l26 124l30 141zM555 -17q-42 0 -64.5 17.5t-22.5 41.5
q0 21 12 37t27 16q21 0 32 -11.5t8 -25.5l-31 -27q13 -26 44 -26q40 0 74 49t53 118q-53 -40 -103 -40q-47 0 -70.5 24.5t-23.5 67.5q0 66 51.5 108.5t115.5 42.5q45 0 75.5 -30t30.5 -94q0 -104 -65 -186t-143 -82zM650 351q-43 0 -68.5 -41.5t-25.5 -91.5q0 -60 45 -60
q22 0 49 18t48 50q6 42 6 57q0 68 -54 68z" />
    <glyph glyph-name="onethird" unicode="&#x2153;" 
d="M122 -16l307 371q56 68 159.5 196.5t124.5 154.5l29 -22l-295 -349l-296 -373q-6 5 -14.5 11t-14.5 11zM178 647l5 20q70 3 117 22h29l-67 -316q-5 -21 11 -32t52 -12l-4 -19h-210l3 19q41 1 60 10.5t25 32.5l26 124l30 141zM639 194v-3q81 -13 81 -83q0 -55 -50.5 -90
t-130.5 -35q-43 0 -70.5 17.5t-27.5 49.5q0 21 13.5 36.5t30.5 15.5q18 0 28.5 -12.5t5.5 -27.5h1l-32 -38q12 -17 46 -17q46 0 81.5 25t35.5 77q0 60 -52 60q-20 0 -58 -12l-6 25q77 25 112 53t35 69q0 47 -51 47q-36 0 -63 -20q13 -25 21 -47q-9 -32 -39 -32q-41 0 -41 31
q0 43 43 67.5t94 24.5q47 0 75.5 -18.5t28.5 -49.5q0 -65 -118 -110l2 -4q3 0 5 1z" />
    <glyph glyph-name="twothirds" unicode="&#x2154;" 
d="M122 -16l307 371q56 68 159.5 196.5t124.5 154.5l29 -22l-295 -349l-296 -373q-6 5 -14.5 11t-14.5 11zM128 364v-6h109q13 0 28 18.5t26 46.5h33l-32 -113h-256l-3 26l21 15q226 145 226 251q0 69 -53 69q-46 0 -74 -45l29 -47l-1 1q-3 -20 -16 -31.5t-31 -11.5
q-41 0 -41 40q0 51 45 84.5t95 33.5q55 0 85.5 -22.5t30.5 -64.5q0 -26 -14.5 -53.5t-45 -56.5t-52.5 -46.5t-60 -46.5l-11 -8q-22 -14 -42 -34q3 1 4 1zM639 194v-3q81 -13 81 -83q0 -55 -50.5 -90t-130.5 -35q-43 0 -70.5 17.5t-27.5 49.5q0 21 13.5 36.5t30.5 15.5
q18 0 28.5 -12.5t5.5 -27.5h1l-32 -38q12 -17 46 -17q46 0 81.5 25t35.5 77q0 60 -52 60q-20 0 -58 -12l-6 25q77 25 112 53t35 69q0 47 -51 47q-36 0 -63 -20q13 -25 21 -47q-9 -32 -39 -32q-41 0 -41 31q0 43 43 67.5t94 24.5q47 0 75.5 -18.5t28.5 -49.5q0 -65 -118 -110
l2 -4q3 0 5 1z" />
    <glyph glyph-name="onefifth" unicode="&#x2155;" 
d="M122 -16l307 371q56 68 159.5 196.5t124.5 154.5l29 -22l-295 -349l-296 -373q-6 5 -14.5 11t-14.5 11zM178 647l5 20q70 3 117 22h29l-67 -316q-5 -21 11 -32t52 -12l-4 -19h-210l3 19q41 1 60 10.5t25 32.5l26 124l30 141zM578 309l-29 -95q46 20 84 20q40 0 68 -23
t28 -65q0 -71 -58 -117t-134 -46q-35 0 -62.5 16.5t-27.5 45.5q0 22 14.5 39t32.5 17q34 0 34 -37l1 1l-36 -41q17 -17 52 -17q52 0 83 41t31 93q0 62 -48 62q-43 0 -83 -35h-27l59 203q51 -16 101 -16q54 0 106 21q-3 -12 -5 -23l2 1q-52 -49 -140 -49q-22 0 -46 4z" />
    <glyph glyph-name="twofifths" unicode="&#x2156;" 
d="M129 364v-6h109q13 0 28 18.5t26 46.5h33l-32 -113h-256l-3 26l21 15q226 145 226 251q0 69 -53 69q-46 0 -74 -45l29 -47l-1 1q-3 -20 -16 -31.5t-31 -11.5q-41 0 -41 40q0 51 45 84.5t95 33.5q55 0 85.5 -22.5t30.5 -64.5q0 -26 -14.5 -53.5t-45 -56.5t-52.5 -46.5
t-60 -46.5l-11 -8q-22 -14 -42 -34q3 1 4 1zM579 309l-29 -95q46 20 84 20q40 0 68 -23t28 -65q0 -71 -58 -117t-134 -46q-35 0 -62.5 16.5t-27.5 45.5q0 22 14.5 39t32.5 17q34 0 34 -37l-35 -40q17 -17 52 -17q52 0 83 41t31 93q0 62 -48 62q-43 0 -83 -35h-27l59 203
q51 -16 101 -16q54 0 106 21q-3 -12 -5 -23l2 1q-52 -49 -140 -49q-22 0 -46 4zM123 -16l307 371q56 68 159.5 196.5t124.5 154.5l29 -22l-295 -349l-296 -373q-6 5 -15 11t-14 11z" />
    <glyph glyph-name="threefifths" unicode="&#x2157;" 
d="M123 -16l307 371q56 68 159.5 196.5t124.5 154.5l29 -22l-295 -349l-296 -373q-6 5 -15 11t-14 11zM266 514v-3q81 -13 81 -84q0 -55 -50.5 -89.5t-130.5 -34.5q-43 0 -71 17.5t-28 49.5q0 21 14 36t31 15q18 0 28.5 -12t5.5 -27h1l-32 -38q12 -17 46 -17q46 0 81.5 25
t35.5 76q0 61 -52 61q-20 0 -58 -12l-6 25q77 25 112 53t35 69q0 47 -52 47q-35 0 -62 -20q13 -27 21 -48q-9 -31 -39 -31q-41 0 -41 30q0 44 43 68.5t94 24.5q47 0 75.5 -18.5t28.5 -49.5q0 -65 -118 -110l2 -4q3 0 5 1zM579 309l-29 -95q46 20 84 20q40 0 68 -23t28 -65
q0 -71 -58 -117t-134 -46q-35 0 -62.5 16.5t-27.5 45.5q0 22 14.5 39t32.5 17q34 0 34 -37l1 1l-36 -41q17 -17 52 -17q52 0 83 41t31 93q0 62 -48 62q-43 0 -83 -35h-27l59 203q51 -16 101 -16q54 0 106 21q-3 -12 -5 -23l2 1q-52 -49 -140 -49q-22 0 -46 4z" />
    <glyph glyph-name="fourfifths" unicode="&#x2158;" 
d="M59 425l-2 12l259 259q5 -1 13 -3t12 -2l-51 -241h58q0 -4 -2 -12.5t-3 -12.5h-59l-9 -41q-6 -33 6.5 -43.5t40.5 -11.5l-4 -19h-181l4 19q31 1 48.5 12t24.5 39l9 45h-164zM579 309l-29 -95q46 20 84 20q40 0 68 -23t28 -65q0 -71 -58 -117t-134 -46q-35 0 -62.5 16.5
t-27.5 45.5q0 22 14.5 39t32.5 17q34 0 34 -37l-35 -40q17 -17 52 -17q52 0 83 41t31 93q0 62 -48 62q-43 0 -83 -35h-27l59 203q51 -16 101 -16q54 0 106 21q-3 -12 -5 -23l2 1q-52 -49 -140 -49q-22 0 -46 4zM123 -16l307 371q56 68 159.5 196.5t124.5 154.5l29 -22
l-295 -349l-296 -373q-6 5 -15 11t-14 11zM112 450h115l32 150l-142 -145l-5 -1v-4z" />
    <glyph glyph-name="onesixth" unicode="&#x2159;" 
d="M122 -16l307 371q56 68 159.5 196.5t124.5 154.5l29 -22l-295 -349l-296 -373q-6 5 -14.5 11t-14.5 11zM178 647l5 20q70 3 117 22h29l-67 -316q-5 -21 11 -32t52 -12l-4 -19h-210l3 19q41 1 60 10.5t25 32.5l26 124l30 141zM659 375q42 0 64 -20.5t22 -48.5
q0 -20 -12 -33t-30 -13q-21 0 -32 10t-7 23h-2l36 34q-11 26 -44 26q-39 0 -74.5 -52t-53.5 -115q53 40 104 40q47 0 71 -24t24 -65q0 -70 -54 -112t-113 -42q-46 0 -76.5 29.5t-30.5 90.5q0 106 66 189t142 83zM564 8q41 0 67 40.5t26 82.5q0 70 -44 70q-22 0 -49 -18
t-48 -50q-6 -44 -6 -57q0 -68 54 -68z" />
    <glyph glyph-name="fivesixths" unicode="&#x215a;" 
d="M122 -16l307 371q56 68 159.5 196.5t124.5 154.5l29 -22l-295 -349l-296 -373q-6 5 -14.5 11t-14.5 11zM213 629l-29 -95q46 20 84 20q40 0 68 -23t28 -65q0 -71 -58 -117t-134 -46q-35 0 -63 16.5t-28 45.5q0 22 15 38.5t33 16.5q34 0 34 -36l1 1l-36 -41q17 -17 52 -17
q52 0 83 41.5t31 92.5q0 62 -49 62q-42 0 -82 -35h-27l59 203q51 -16 101 -16q54 0 106 21q-3 -12 -5 -23l2 1q-52 -49 -140 -49q-22 0 -46 4zM659 375q42 0 64 -20.5t22 -48.5q0 -20 -12 -33t-30 -13q-21 0 -32 10t-7 23h-2l36 34q-11 26 -44 26q-39 0 -74.5 -52
t-53.5 -115q53 40 104 40q47 0 71 -24t24 -65q0 -70 -54 -112t-113 -42q-46 0 -76.5 29.5t-30.5 90.5q0 106 66 189t142 83zM564 8q41 0 67 40.5t26 82.5q0 70 -44 70q-22 0 -49 -18t-48 -50q-6 -44 -6 -57q0 -68 54 -68z" />
    <glyph glyph-name="oneeighth" unicode="&#x215b;" 
d="M558 174l-7 2l5 2v-2h2l1 1v-1l1 2q-53 29 -53 82q0 46 42 80.5t97 34.5q111 0 111 -79q0 -58 -93 -102l2 -4h2v1q-1 0 -2 1l3 1l-1 -2q63 -27 63 -79q0 -59 -50 -94t-113 -35q-53 0 -84.5 22t-31.5 60q0 33 31.5 62t77.5 46l-2 3zM178 647l5 20q70 3 117 22h29l-67 -316
q-5 -21 11 -32t52 -12l-4 -19h-210l3 19q41 1 60 10.5t25 32.5l26 124l30 141zM122 -16l307 371q56 68 159.5 196.5t124.5 154.5l29 -22l-295 -349l-296 -373q-6 5 -14.5 11t-14.5 11zM574 8q43 0 70 24.5t27 56.5q0 53 -81 73q-32 -9 -57 -33.5t-25 -57.5q0 -30 18 -46.5
t48 -16.5zM563 277q0 -54 72 -74q64 31 64 88q0 28 -15 44t-42 16q-32 0 -55.5 -23t-23.5 -51z" />
    <glyph glyph-name="threeeighths" unicode="&#x215c;" 
d="M558 174l-7 2l5 2v-2h2l1 1v-1l1 2q-53 29 -53 82q0 46 42 80.5t97 34.5q111 0 111 -79q0 -58 -93 -102l2 -4h2v1q-1 0 -2 1l3 1l-1 -2q63 -27 63 -79q0 -59 -50 -94t-113 -35q-53 0 -84.5 22t-31.5 60q0 33 31.5 62t77.5 46l-2 3zM265 514v-3q81 -13 81 -84
q0 -55 -50.5 -89.5t-130.5 -34.5q-43 0 -71 17.5t-28 49.5q0 21 14 36t31 15q18 0 28.5 -12t5.5 -27h1l-32 -38q12 -17 46 -17q46 0 81.5 25t35.5 76q0 61 -52 61q-20 0 -58 -12l-6 25q77 25 112 53t35 69q0 47 -52 47q-35 0 -62 -20q14 -27 21 -48q-9 -31 -39 -31
q-41 0 -41 30q0 44 43 68.5t94 24.5q47 0 75.5 -18.5t28.5 -49.5q0 -65 -118 -110l2 -4q3 0 5 1zM122 -16l307 371q56 68 159.5 196.5t124.5 154.5l29 -22l-295 -349l-296 -373q-6 5 -14.5 11t-14.5 11zM574 8q43 0 70 24.5t27 56.5q0 53 -81 73q-32 -9 -57 -33.5t-25 -57.5
q0 -30 18 -46.5t48 -16.5zM563 277q0 -54 72 -74q64 31 64 88q0 28 -15 44t-42 16q-32 0 -55.5 -23t-23.5 -51z" />
    <glyph glyph-name="fiveeighths" unicode="&#x215d;" 
d="M558 174l-7 2l5 2v-2h2l1 1v-1l1 2q-53 29 -53 82q0 46 42 80.5t97 34.5q111 0 111 -79q0 -58 -93 -102l2 -4h2v1q-1 0 -2 1l3 1l-1 -2q63 -27 63 -79q0 -59 -50 -94t-113 -35q-53 0 -84.5 22t-31.5 60q0 33 31.5 62t77.5 46l-2 3zM213 629l-29 -95q46 20 84 20
q40 0 68 -23t28 -65q0 -71 -58 -117t-134 -46q-35 0 -63 16.5t-28 45.5q0 22 15 38.5t33 16.5q34 0 34 -36l1 1l-36 -41q17 -17 52 -17q52 0 83 41.5t31 92.5q0 62 -49 62q-42 0 -82 -35h-27l59 203q51 -16 101 -16q54 0 106 21q-3 -12 -5 -23l2 1q-52 -49 -140 -49
q-22 0 -46 4zM122 -16l307 371q56 68 159.5 196.5t124.5 154.5l29 -22l-295 -349l-296 -373q-6 5 -14.5 11t-14.5 11zM574 8q43 0 70 24.5t27 56.5q0 53 -81 73q-32 -9 -57 -33.5t-25 -57.5q0 -30 18 -46.5t48 -16.5zM563 277q0 -54 72 -74q64 31 64 88q0 28 -15 44t-42 16
q-32 0 -55.5 -23t-23.5 -51z" />
    <glyph glyph-name="seveneighths" unicode="&#x215e;" 
d="M558 174l-7 2l5 2v-2h2l1 1v-1l1 2q-53 29 -53 82q0 46 42 80.5t97 34.5q111 0 111 -79q0 -58 -93 -102l2 -4h2v1q-1 0 -2 1l3 1l-1 -2q63 -27 63 -79q0 -59 -50 -94t-113 -35q-53 0 -84.5 22t-31.5 60q0 33 31.5 62t77.5 46l-2 3zM156 342q50 144 196 292l-6 2
q-22 -8 -54 -8q-11 0 -29 4h-5q-4 1 -10 2t-10 2t-6 1q-23 0 -42.5 -20t-30.5 -54h-26l44 129h30v-8q29 11 44 11q20 0 46 -12q24 -11 42 -11q31 0 81 27l15 -20q-81 -80 -128.5 -155t-75.5 -183q-8 -35 -45 -35q-42 0 -30 36zM122 -16l307 371q56 68 159.5 196.5
t124.5 154.5l29 -22l-295 -349l-296 -373q-6 5 -14.5 11t-14.5 11zM574 8q43 0 70 24.5t27 56.5q0 53 -81 73q-32 -9 -57 -33.5t-25 -57.5q0 -30 18 -46.5t48 -16.5zM563 277q0 -54 72 -74q64 31 64 88q0 28 -15 44t-42 16q-32 0 -55.5 -23t-23.5 -51z" />
    <glyph glyph-name="uni2191" unicode="&#x2191;" horiz-adv-x="704" 
d="M359 605l264 -237l-46 -61l-183 163v-420h-84v420l-183 -163l-47 61l266 237h13z" />
    <glyph glyph-name="uni2193" unicode="&#x2193;" horiz-adv-x="704" 
d="M623 287l-264 -237h-13l-266 237l47 61l183 -163v420h84v-420l183 163z" />
    <glyph glyph-name="partialdiff" unicode="&#x2202;" horiz-adv-x="544" 
d="M285 594q-84 0 -109 -130h-40l12 113q20 25 62 43t86 18q94 0 143 -78t49 -201q0 -179 -71 -275t-190 -96q-71 0 -121 48t-50 134q0 105 66 167t146 62q39 0 75 -18t53 -51l5 3v39q0 113 -27.5 167.5t-88.5 54.5zM383 270q-10 33 -37 55t-58 22q-55 0 -92.5 -48.5
t-37.5 -129.5q0 -60 21.5 -94.5t62.5 -34.5q57 0 99 63t42 167z" />
    <glyph glyph-name="product" unicode="&#x220f;" horiz-adv-x="544" 
d="M4 626h536v-40l-78 -15v-516l78 -15v-40h-252v40l78 15v516h-188v-516l78 -15v-40h-252v40l78 15v516l-78 15v40z" />
    <glyph glyph-name="summation" unicode="&#x2211;" horiz-adv-x="544" 
d="M148 89l5 -10h250l86 111h41l-50 -190h-465l-8 15l262 270v12l-242 317l8 12h441l26 -171h-36l-89 131h-210l-5 -7l198 -256v-16z" />
    <glyph glyph-name="minus" unicode="&#x2212;" horiz-adv-x="620" 
d="M570 230h-520v60h520v-60z" />
    <glyph glyph-name="radical" unicode="&#x221a;" horiz-adv-x="544" 
d="M319 61h13l152 695l49 -10l-184 -883h-37l-195 526l-98 -35l-16 37l175 59z" />
    <glyph glyph-name="infinity" unicode="&#x221e;" horiz-adv-x="544" 
d="M129 149q-60 0 -92 38.5t-32 88.5q0 54 36.5 92.5t87.5 38.5q74 0 141 -92q33 43 66.5 67.5t77.5 24.5q61 0 92.5 -38t31.5 -89q0 -54 -36.5 -92.5t-87.5 -38.5q-75 0 -141 91q-70 -91 -144 -91zM146 357q-33 0 -54 -22t-21 -59q0 -36 20.5 -57.5t50.5 -21.5q18 0 37 13
t31.5 28t33.5 43q-27 37 -49.5 56.5t-48.5 19.5zM397 199q33 0 54 22t21 59q0 35 -21 57t-50 22q-18 0 -37 -13.5t-31.5 -28t-33.5 -43.5q26 -37 48.5 -56t49.5 -19z" />
    <glyph glyph-name="integral" unicode="&#x222b;" horiz-adv-x="544" 
d="M305 497l12 -487q2 -94 -48 -154t-127 -60q-31 0 -53 17t-22 49q0 21 12.5 37.5t36.5 16.5q50 0 57 -64l26 -7q19 18 31 63.5t10 91.5l-12 487q-2 95 47.5 154t125.5 59q32 0 54.5 -16.5t22.5 -48.5q0 -21 -13 -37.5t-37 -16.5q-49 0 -56 64l-26 7q-44 -41 -41 -155z" />
    <glyph glyph-name="approxequal" unicode="&#x2248;" horiz-adv-x="544" 
d="M431 388l53 -22q-16 -49 -48.5 -82.5t-82.5 -33.5q-35 0 -89.5 36t-79.5 36q-24 0 -43 -10.5t-26.5 -20.5t-20.5 -31l-44 32q17 33 53.5 61t80.5 28q34 0 89 -35t81 -35q28 0 49.5 23t27.5 54zM447 229l47 -23q-14 -40 -51 -68t-78 -28q-43 0 -100.5 35.5t-80.5 35.5
q-39 0 -72 -64l-46 30q52 93 118 93q32 0 90 -35t91 -35q30 0 51.5 17t30.5 42z" />
    <glyph glyph-name="notequal" unicode="&#x2260;" horiz-adv-x="620" 
d="M482 491l-65 -121h153v-60h-185l-64 -120h249v-60h-281l-86 -160l-56 27l71 133h-168v60h200l64 120h-264v60h296l80 148z" />
    <glyph glyph-name="lessequal" unicode="&#x2264;" horiz-adv-x="620" 
d="M570 0h-520v60h520v-60zM570 545l-454 -179l454 -179v-57l-520 205v62l520 205v-57z" />
    <glyph glyph-name="greaterequal" unicode="&#x2265;" horiz-adv-x="620" 
d="M570 0h-520v60h520v-60zM504 366l-454 179v57l520 -205v-62l-520 -205v57z" />
    <glyph glyph-name="lozenge" unicode="&#x25ca;" horiz-adv-x="544" 
d="M271 -98l-245 373l245 375l246 -375zM110 275l161 -246l162 246l-162 248z" />
    <glyph glyph-name="uni2605" unicode="&#x2605;" horiz-adv-x="574" 
d="M129 -8l-4 3l66 186l-166 118l2 5l201 -7l57 193h6l58 -193l199 5l1 -4l-163 -117l66 -188l-3 -1l-161 118z" />
    <glyph glyph-name="commaaccent" unicode="&#xf6c3;" horiz-adv-x="500" 
d="M201 -91q0 14 9.5 22.5t24.5 8.5q19 0 33.5 -19t14.5 -47q0 -51 -32 -88t-85 -38v27q31 1 48 20t17 40q0 19 -18 44q-12 16 -12 30z" />
    <glyph glyph-name="apple" unicode="&#xf8ff;" horiz-adv-x="544" 
d="M211 720h11l32 -121l-3 -82l68 -8l64 99l8 99h12l7 -99l-17 -129l36 -85l35 -38l1 -6l-7 -8v-18l8 -4l-1 -9l-17 -36l-36 7l-11 101l-34 56l-13 -2l26 -60l4 -99l-37 -46l3 -22l26 -37l7 -71l-64 -23l-33 16l-35 57l-75 25l-28 47l-3 42l-30 41l-2 58l4 27l-11 44z
M489 244l6 -9l-3 -37l-12 -17l-5 -33l23 -8l-3 -10l-23 7l-43 -26l-5 10l39 23l5 36l-36 14l-13 31l-1 10l14 15l24 4zM272 305l36 -14l11 13l-3 14l-11 10l-30 -10zM329 64l3 -4l-7 -21l-40 -43l-68 -23l-97 14l-55 48l-18 62l34 95l11 -1l-9 -71l22 -41l37 -33l88 -16
l48 3zM144 438l9 -9l33 34l11 76h-18z" />
    <glyph glyph-name="zero.tnum" horiz-adv-x="594" 
d="M578 493q0 -136 -43.5 -251.5t-122 -184.5t-175.5 -69q-81 0 -130 50t-49 155q0 131 50 249.5t130.5 189.5t166.5 71q73 0 123 -54.5t50 -155.5zM252 29q72 0 128 72.5t83 179t27 223.5q0 80 -25 119t-80 39q-66 0 -123 -85t-86.5 -195.5t-29.5 -204.5q0 -80 24 -114
t82 -34z" />
    <glyph glyph-name="one.tnum" horiz-adv-x="594" 
d="M209 614l8 38q117 7 204 40h34q-10 -50 -55 -260t-68 -319q-8 -42 18.5 -62t97.5 -21l-7 -30h-359l7 30q77 4 111.5 20.5t44.5 62.5l103 487q-22 2 -69 6.5t-70 7.5z" />
    <glyph glyph-name="two.tnum" horiz-adv-x="594" 
d="M152 103v-18h217q29 0 59.5 33.5t48.5 86.5h34l-57 -205h-442q0 8 -2 24.5t-3 23.5l38 27q54 37 94.5 66t106 83t107.5 100t74.5 104t32.5 107q0 67 -31.5 97t-78.5 30q-98 0 -149 -82l49 -83l-1 1q-5 -37 -25.5 -59.5t-46.5 -22.5q-30 0 -46 19.5t-16 53.5
q0 62 39.5 112.5t95.5 76t111 25.5q93 0 146 -42t53 -117q0 -41 -21.5 -85t-47.5 -76.5t-77.5 -77.5t-79.5 -66.5t-87 -64.5q-79 -58 -95 -71z" />
    <glyph glyph-name="three.tnum" horiz-adv-x="594" 
d="M369 378l2 -14q63 -7 105 -44t42 -105q0 -101 -89 -164t-228 -63q-74 0 -121 31t-47 89q0 38 21 66t47 28q30 0 44 -23t5 -51h1l-58 -68q23 -34 100 -34q56 0 105 17.5t85.5 62t36.5 110.5q0 57 -29 84.5t-79 27.5q-40 0 -93 -15l-10 37q138 45 203.5 97t65.5 126
q0 91 -109 91q-72 0 -125 -42q6 -14 18.5 -43t16.5 -40q-6 -24 -22 -40.5t-35 -16.5q-29 0 -45.5 14t-16.5 39q0 78 74.5 123t162.5 45q81 0 130 -33t49 -91q0 -64 -59 -116t-148 -85z" />
    <glyph glyph-name="four.tnum" horiz-adv-x="594" 
d="M42 212l-5 23l466 468q5 -1 13 -3t12 -2l-93 -445h107l-10 -41h-108l-16 -78q-5 -25 -5 -38q0 -39 24 -52t67 -14l-7 -30h-303l7 30q59 0 90 19.5t43 77.5l17 85h-299zM118 260l1 -7h229l60 284l-13 8z" />
    <glyph glyph-name="five.tnum" horiz-adv-x="594" 
d="M200 407l11 -9q82 48 156 48q68 0 115 -42.5t47 -120.5q0 -87 -49 -155.5t-125.5 -104t-162.5 -35.5q-60 0 -106.5 29t-46.5 82q0 40 21.5 69.5t49.5 29.5q49 0 51 -66l-64 -72q26 -34 110 -34q100 0 161.5 77t61.5 172q0 115 -105 115q-87 0 -159 -64h-27l107 365
q81 -25 173 -25q104 0 181 29l-8 -34l2 1q-90 -84 -243 -84q-53 0 -98 11z" />
    <glyph glyph-name="six.tnum" horiz-adv-x="594" 
d="M434 703q69 0 107 -37.5t38 -87.5q0 -36 -18 -59.5t-47 -23.5q-32 0 -47 19t-7 47h-2l59 55q-17 51 -93 51q-56 0 -110 -53t-88 -122.5t-50 -138.5l14 -8q83 86 190 86q79 0 120.5 -44.5t41.5 -119.5q0 -66 -28.5 -121t-73 -88t-95 -51.5t-97.5 -18.5q-78 0 -130 53
t-52 165q0 128 55.5 244.5t141 184.5t171.5 68zM259 29q56 0 100.5 39t65 90t20.5 99q0 130 -95 130q-44 0 -96 -32t-94 -92q-14 -65 -14 -107q0 -127 113 -127z" />
    <glyph glyph-name="seven.tnum" horiz-adv-x="594" 
d="M526 595l-11 14q-45 -26 -110 -26q-17 0 -51 8q-36 8 -59 8q-48 0 -87 -36.5t-60 -97.5h-24q12 35 40.5 114t42.5 119h27l2 -28q52 33 94 33q30 0 78 -21q46 -21 82 -21q69 0 145 44l20 -29q-151 -149 -238.5 -285.5t-138.5 -335.5q-3 -13 -6 -20.5t-10.5 -19t-20.5 -17
t-31 -5.5q-48 0 -48 35q0 12 6 28q103 291 358 539z" />
    <glyph glyph-name="eight.tnum" horiz-adv-x="594" 
d="M410 372l-1 -8q116 -48 116 -143q0 -106 -87.5 -169.5t-197.5 -63.5q-92 0 -146 39.5t-54 108.5q0 61 55.5 114t135.5 82l2 10q-90 49 -90 150q0 84 72.5 147.5t168.5 63.5t143 -38.5t47 -104.5q0 -108 -164 -188zM362 386h3q72 34 100.5 74.5t28.5 89.5q0 51 -31 82
t-88 31q-63 0 -110 -43.5t-47 -96.5q0 -46 37.5 -81.5t106.5 -55.5zM252 29q84 0 138 45t54 103q0 99 -165 141q-65 -20 -113.5 -65t-48.5 -107q0 -55 36.5 -86t98.5 -31z" />
    <glyph glyph-name="nine.tnum" horiz-adv-x="594" 
d="M209 -12q-72 0 -110 31t-38 74q0 38 18 66t42 28q33 0 49 -21t8 -50l-54 -44q20 -49 93 -49q85 0 152 93t96 222l-13 8q-81 -86 -191 -86q-77 0 -118 45t-41 121q0 120 91 198.5t202 78.5q78 0 130 -54.5t52 -169.5q0 -126 -54 -241t-139.5 -182.5t-174.5 -67.5zM383 662
q-57 0 -101 -39.5t-64.5 -94.5t-20.5 -113q0 -112 95 -112q44 0 97.5 33t92.5 91q13 62 13 108q0 127 -112 127z" />
    <glyph glyph-name="exclamdown.case" horiz-adv-x="359" 
d="M335 660q0 -27 -17 -45t-43 -18t-43.5 18t-17.5 45t17.5 44.5t43.5 17.5t43 -17.5t17 -44.5zM106 106l11 31q74 203 111 368q7 -1 17.5 -4t16.5 -4q-48 -232 -48 -405q0 -101 -61 -101q-31 0 -45 16.5t-14 39.5q0 13 9 49v-1z" />
    <glyph glyph-name="questiondown.case" horiz-adv-x="473" 
d="M441 660q0 -30 -18 -46t-42 -16q-25 0 -43 16.5t-18 45.5q0 27 17.5 44.5t43.5 17.5t43 -17.5t17 -44.5zM73 110q0 27 12 52t37.5 48.5t46 39t55.5 38.5q79 56 98 78q20 24 20 46q0 46 -57 46q-56 0 -70 -69l-31 9q28 105 117 105q45 0 79.5 -23.5t34.5 -69.5
q0 -23 -10 -44.5t-32.5 -42t-40 -34t-49.5 -35.5q-45 -31 -66.5 -48t-44 -47.5t-22.5 -60.5q0 -29 18 -47.5t49 -18.5q48 0 81.5 41t35.5 122q7 2 19 4.5t14 3.5q1 -8 1 -23q0 -86 -41.5 -137.5t-114.5 -51.5q-66 0 -102.5 34t-36.5 85z" />
    <glyph glyph-name="hyphen.case" horiz-adv-x="318" 
d="M67 361h246v-66h-246v66z" />
    <glyph glyph-name="endash.case" horiz-adv-x="488" 
d="M76 361h399v-66h-399v66z" />
    <glyph glyph-name="emdash.case" horiz-adv-x="1000" 
d="M118 356h825v-56h-825v56z" />
    <glyph glyph-name="guilsinglleft.case" horiz-adv-x="445" 
d="M149 330l242 217l28 -26l-188 -205l-5 -16l49 -200q-3 -1 -14 -6.5t-17 -6.5l-100 221l7 22h-2z" />
    <glyph glyph-name="guilsinglright.case" horiz-adv-x="445" 
d="M356 307l-243 -218l-27 26l188 206l5 15l-49 200q3 1 14 6.5t17 6.5l100 -220l-7 -22h2z" />
    <glyph glyph-name="guillemotleft.case" horiz-adv-x="652" 
d="M148 330l242 217l28 -26l-188 -205l-5 -16l49 -200q-3 -1 -14 -6.5t-17 -6.5l-100 221l7 22h-2zM357 330l242 217l28 -26l-188 -205l-5 -16l49 -200q-3 -1 -14 -6.5t-17 -6.5l-100 221l7 22h-2z" />
    <glyph glyph-name="guillemotright.case" horiz-adv-x="652" 
d="M564 307l-243 -218l-28 26l189 206l5 15l-49 200q3 1 14 6.5t17 6.5l100 -220l-7 -22h2zM355 307l-242 -218l-28 26l188 206l5 15l-49 200q3 1 14 6.5t17 6.5l100 -220l-7 -22h2z" />
    <glyph glyph-name="parenleft.case" horiz-adv-x="322" 
d="M234 -154l-31 -32q-66 67 -106.5 172.5t-40.5 219.5q0 82 18 157t46 133.5t73 118.5t87.5 104.5t101.5 97.5l26 -32q-275 -265 -275 -608q0 -114 24 -191t77 -140z" />
    <glyph glyph-name="parenright.case" horiz-adv-x="322" 
d="M133 785l31 32q66 -67 106.5 -172.5t40.5 -219.5q0 -82 -18 -157t-46 -133.5t-73 -118.5t-87.5 -104.5t-101.5 -97.5l-26 32q275 265 275 608q0 114 -24 191t-77 140z" />
    <glyph glyph-name="bracketleft.case" horiz-adv-x="335" 
d="M425 800l-10 -45q-36 -7 -95 -7q-32 0 -56 4l-182 -865q18 2 41 2q71 0 117 -6l-11 -47q-41 6 -114 6q-71 0 -110 -5l200 962q47 -6 117 -6q69 0 103 7z" />
    <glyph glyph-name="bracketright.case" horiz-adv-x="335" 
d="M-33 -164l10 44q36 7 96 7q32 0 55 -4l183 865q-19 -2 -42 -2q-69 0 -117 6l11 48q39 -7 114 -7q73 0 110 6l-199 -962q-44 4 -117 4q-74 0 -104 -5z" />
    <glyph glyph-name="braceleft.case" horiz-adv-x="435" 
d="M153 329l-2 -19q48 -8 81.5 -39.5t37.5 -74.5q5 -43 -45 -131q-50 -90 -47 -128q9 -67 142 -68l-9 -38q-95 1 -145.5 29.5t-57.5 75.5q1 61 47 144q47 84 44 123q-4 41 -41 63t-95 24q2 11 7 32.5t7 30.5q89 3 138 61t46 127l-2 22q-2 32 -4 42q-7 96 52.5 146t202.5 50
l-9 -39q-97 -2 -139 -37.5t-35 -115.5l7 -70q7 -73 -46 -138t-135 -72z" />
    <glyph glyph-name="braceright.case" horiz-adv-x="435" 
d="M307 303l2 20q-48 7 -81.5 38.5t-37.5 75.5q-5 42 45 131q49 91 46 127q-7 67 -141 68l9 39q94 -1 145 -30t58 -76q-1 -63 -48 -143q-46 -85 -43 -123q4 -41 41 -63.5t95 -24.5l-14 -63q-89 -3 -138 -61t-46 -127l2 -21q2 -32 4 -43q7 -96 -52.5 -145.5t-202.5 -49.5
l9 38q97 2 139 37.5t35 115.5l-7 70q-7 74 46 138.5t135 71.5z" />
    <glyph glyph-name="zero.onum" horiz-adv-x="594" 
d="M560 351q0 -72 -19.5 -133.5t-52 -103t-74 -70.5t-84 -42.5t-84.5 -13.5q-92 0 -142.5 49t-50.5 140q0 145 93.5 251t219.5 106q194 0 194 -183zM256 29q88 0 148 93.5t60 230.5q0 141 -108 141q-59 0 -108 -54t-73 -125.5t-24 -137.5q0 -148 105 -148z" />
    <glyph glyph-name="one.onum" horiz-adv-x="491" 
d="M129 453l8 38q115 7 205 39h33q-12 -60 -27.5 -130.5t-33.5 -155.5t-28 -131q-8 -42 19 -62t97 -21l-7 -30h-359l7 30q77 4 112 20.5t45 62.5l68 326q-22 2 -69.5 6.5t-69.5 7.5z" />
    <glyph glyph-name="two.onum" horiz-adv-x="556" 
d="M179 99l1 -14h171q32 0 62 21.5t46 54.5h26l-62 -161h-401q0 8 -1 28t-1 28q3 1 12 6t16 9h-1q40 22 65.5 36.5t75 44.5t83 57.5t69 61t53.5 68.5t18 68q0 45 -29 66t-71 21q-82 0 -122 -68l34 -67l-1 1q-4 -27 -20.5 -42.5t-39.5 -15.5q-57 0 -57 62q0 70 69 120t151 50
q86 0 135 -33.5t49 -94.5q0 -33 -21 -69t-46.5 -62t-73 -59.5t-74.5 -49.5t-77 -45h1z" />
    <glyph glyph-name="three.onum" horiz-adv-x="568" 
d="M316 210l2 -14q63 -7 105 -44.5t42 -105.5q0 -101 -89 -163.5t-229 -62.5q-74 0 -120.5 31t-46.5 89q0 38 20.5 65.5t46.5 27.5q30 0 44.5 -22.5t5.5 -50.5h1l-59 -68q23 -34 100 -34q56 0 105.5 17t86 61.5t36.5 110.5q0 112 -109 112q-38 0 -93 -15l-10 37
q139 46 204 97.5t65 125.5q0 92 -108 92q-72 0 -125 -42q1 -2 35 -83q-6 -24 -22.5 -40.5t-35.5 -16.5q-28 0 -44.5 14t-16.5 39q0 78 74.5 122.5t162.5 44.5q81 0 129.5 -33t48.5 -91q0 -63 -58.5 -115t-147.5 -85z" />
    <glyph glyph-name="four.onum" horiz-adv-x="585" 
d="M6 43l-5 24l466 467q5 -1 13 -3t12 -2l-94 -444h108l-10 -42h-108l-16 -77q-5 -25 -5 -39q0 -38 23.5 -51t67.5 -14l-7 -30h-304l7 30q59 0 90 19.5t43 77.5l18 84h-299zM82 92l1 -7h229l60 284l-13 8z" />
    <glyph glyph-name="five.onum" horiz-adv-x="574" 
d="M154 239l11 -9q83 47 157 47q67 0 114.5 -42.5t47.5 -119.5q0 -130 -101.5 -212.5t-236.5 -82.5q-59 0 -105.5 29t-46.5 81q0 41 21 70t50 29q49 0 51 -65l-65 -72q28 -34 110 -34q100 0 161.5 77t61.5 172q0 60 -26 87.5t-79 27.5q-88 0 -158 -65h-27q11 36 48.5 165
t58.5 200q78 -24 173 -24q105 0 181 28l-9 -33l2 1q-90 -85 -242 -85q-53 0 -98 11z" />
    <glyph glyph-name="six.onum" horiz-adv-x="606" 
d="M439 703q69 0 107 -37.5t38 -87.5q0 -36 -18 -59.5t-47 -23.5q-32 0 -47 19t-7 47h-2l59 55q-17 51 -92 51q-56 0 -110 -53t-88 -122.5t-50 -138.5l13 -8q83 86 190 86q79 0 120.5 -44.5t41.5 -119.5q0 -66 -28.5 -121t-73 -88t-95 -51.5t-97.5 -18.5q-78 0 -130 53
t-52 165q0 128 55.5 244.5t141 184.5t171.5 68zM264 29q56 0 100.5 39t65 90t20.5 99q0 130 -95 130q-44 0 -96 -32t-94 -92q-14 -65 -14 -107q0 -127 113 -127z" />
    <glyph glyph-name="seven.onum" horiz-adv-x="554" 
d="M473 426l-11 15q-43 -27 -110 -27q-16 0 -52 8q-41 9 -58 9q-48 0 -86.5 -36.5t-60.5 -98.5h-24q14 41 42.5 120.5t39.5 112.5h28l2 -27q54 32 93 32q31 0 79 -21q46 -20 82 -20q69 0 145 43l20 -29q-74 -73 -126.5 -133.5t-102 -135t-86 -161t-62.5 -190.5
q-3 -13 -6 -20.5t-10.5 -19t-20.5 -17t-32 -5.5q-47 0 -47 35q0 12 6 28q103 290 358 538z" />
    <glyph glyph-name="eight.onum" horiz-adv-x="585" 
d="M406 372l-1 -8q116 -48 116 -143q0 -106 -87.5 -169.5t-197.5 -63.5q-92 0 -146 39.5t-54 108.5q0 61 55.5 114t135.5 82l2 10q-90 49 -90 150q0 84 72.5 147.5t168.5 63.5t143 -38.5t47 -104.5q0 -108 -164 -188zM358 386h3q72 34 100.5 74.5t28.5 89.5q0 51 -31 82
t-88 31q-63 0 -110 -43.5t-47 -96.5q0 -46 37.5 -81.5t106.5 -55.5zM248 29q84 0 138 45t54 103q0 99 -165 141q-65 -20 -113.5 -65t-48.5 -107q0 -55 36.5 -86t98.5 -31z" />
    <glyph glyph-name="nine.onum" horiz-adv-x="606" 
d="M177 -180q-71 0 -109.5 31t-38.5 73q0 39 18.5 66.5t42.5 27.5q33 0 49 -20.5t8 -49.5l-54 -45q21 -48 93 -48q57 0 109 46.5t86 116t53 151.5l-14 8q-80 -85 -190 -85q-78 0 -118.5 45t-40.5 121q0 119 91 197.5t202 78.5q78 0 129.5 -54t51.5 -169q0 -127 -54 -241.5
t-139 -182t-175 -67.5zM352 494q-57 0 -101.5 -39t-65 -94.5t-20.5 -113.5q0 -112 96 -112q45 0 97.5 32.5t92.5 91.5q13 61 13 108q0 127 -112 127z" />
    <glyph glyph-name="zero.onum.tnum" horiz-adv-x="594" 
d="M560 351q0 -72 -19.5 -133.5t-52 -103t-74 -70.5t-84 -42.5t-84.5 -13.5q-92 0 -142.5 49t-50.5 140q0 145 93.5 251t219.5 106q194 0 194 -183zM256 29q88 0 148 93.5t60 230.5q0 141 -108 141q-59 0 -108 -54t-73 -125.5t-24 -137.5q0 -148 105 -148z" />
    <glyph glyph-name="one.onum.tnum" horiz-adv-x="594" 
d="M178 453l9 38q116 7 204 39h33q-14 -68 -44 -208.5t-44 -208.5q-8 -42 18.5 -62t97.5 -21l-7 -30h-359l7 30q77 4 111.5 20.5t44.5 62.5l69 326z" />
    <glyph glyph-name="two.onum.tnum" horiz-adv-x="594" 
d="M202 99l1 -14h170q32 0 62 21.5t46 54.5h26l-61 -161h-402q0 8 -1 28t-1 28l29 15h-1q36 20 54.5 30t63 37t71.5 46.5t64 50t58.5 56t37 56.5t15.5 60q0 45 -29.5 66t-71.5 21q-82 0 -122 -68l34 -67l-1 1q-4 -27 -20 -42.5t-39 -15.5q-58 0 -58 62q0 70 69 120t151 50
q86 0 135 -33.5t49 -94.5q0 -33 -21 -69t-46.5 -62t-73 -59.5t-74.5 -49.5t-77 -45h1z" />
    <glyph glyph-name="three.onum.tnum" horiz-adv-x="594" 
d="M344 211l2 -14q63 -7 105 -44.5t42 -105.5q0 -101 -89 -163.5t-229 -62.5q-73 0 -120 31t-47 89q0 38 20.5 65.5t47.5 27.5q30 0 44 -22.5t5 -50.5h1l-58 -68q23 -34 99 -34q56 0 105.5 17t86 61.5t36.5 110.5q0 112 -109 112q-39 0 -92 -15l-10 37q139 46 204 97.5
t65 125.5q0 92 -109 92q-72 0 -125 -42q1 -2 35 -83q-6 -24 -22 -40.5t-35 -16.5q-29 0 -45.5 14t-16.5 39q0 78 74.5 122.5t162.5 44.5q82 0 130.5 -33t48.5 -91q0 -63 -59 -115t-148 -85z" />
    <glyph glyph-name="four.onum.tnum" horiz-adv-x="594" 
d="M29 44l-5 24l466 467q5 -1 13 -3t12 -2l-94 -444h108l-10 -42h-108l-16 -77q-5 -25 -5 -39q0 -38 24 -51t67 -14l-7 -30h-304l7 30q59 0 90 19.5t44 77.5l17 84h-299zM105 93l1 -7h229l60 284l-13 8z" />
    <glyph glyph-name="five.onum.tnum" horiz-adv-x="594" 
d="M162 240l11 -9q83 47 157 47q67 0 114.5 -42.5t47.5 -119.5q0 -130 -101.5 -212.5t-236.5 -82.5q-59 0 -105.5 29t-46.5 81q0 41 21 70t50 29q49 0 51 -65l-64 -72q26 -34 109 -34q101 0 162 76.5t61 172.5q0 60 -26 87.5t-79 27.5q-87 0 -158 -65h-27q11 36 48.5 165
t58.5 200q78 -24 173 -24q105 0 181 28l-8 -33l2 1q-91 -85 -243 -85q-53 0 -98 11z" />
    <glyph glyph-name="six.onum.tnum" horiz-adv-x="594" 
d="M432 703q69 0 107 -37.5t38 -87.5q0 -36 -18 -59.5t-47 -23.5q-32 0 -47 19t-7 47h-2l59 55q-17 51 -93 51q-56 0 -110 -53t-88 -122.5t-50 -138.5l14 -8q83 86 190 86q79 0 120.5 -44.5t41.5 -119.5q0 -66 -28.5 -121t-73 -88t-95 -51.5t-97.5 -18.5q-78 0 -130 53
t-52 165q0 128 55.5 244.5t141 184.5t171.5 68zM257 29q56 0 100.5 39t65 90t20.5 99q0 130 -95 130q-44 0 -96 -32t-94 -92q-14 -65 -14 -107q0 -127 113 -127z" />
    <glyph glyph-name="seven.onum.tnum" horiz-adv-x="594" 
d="M494 427l-11 15q-43 -27 -110 -27q-17 0 -51 8q-41 9 -59 9q-48 0 -87 -36.5t-60 -98.5h-24q14 41 42.5 120.5t39.5 112.5h28l2 -27q54 32 93 32q31 0 79 -21q46 -20 82 -20q71 0 145 43l20 -29q-100 -98 -164 -178.5t-121 -192.5t-92 -249q-3 -13 -6 -20.5t-10.5 -19
t-20.5 -17t-32 -5.5q-47 0 -47 35q0 11 6 28q103 290 358 538z" />
    <glyph glyph-name="eight.onum.tnum" horiz-adv-x="594" 
d="M413 372l-1 -8q116 -48 116 -143q0 -106 -87.5 -169.5t-197.5 -63.5q-92 0 -146 39.5t-54 108.5q0 61 55.5 114t135.5 82l2 10q-90 49 -90 150q0 84 72.5 147.5t168.5 63.5t143 -38.5t47 -104.5q0 -108 -164 -188zM365 386h3q72 34 100.5 74.5t28.5 89.5q0 51 -31 82
t-88 31q-63 0 -110 -43.5t-47 -96.5q0 -46 37.5 -81.5t106.5 -55.5zM255 29q84 0 138 45t54 103q0 99 -165 141q-65 -20 -113.5 -65t-48.5 -107q0 -55 36.5 -86t98.5 -31z" />
    <glyph glyph-name="nine.onum.tnum" horiz-adv-x="594" 
d="M177 -179q-71 0 -109.5 31t-38.5 73q0 39 18.5 66.5t42.5 27.5q33 0 49 -20.5t8 -49.5l-54 -45q21 -48 93 -48q57 0 109 46.5t86 116t53 151.5l-14 8q-80 -85 -190 -85q-78 0 -118.5 45t-40.5 121q0 119 91 197.5t202 78.5q78 0 129.5 -54t51.5 -169q0 -127 -54 -241.5
t-139 -182t-175 -67.5zM352 495q-57 0 -101.5 -39t-65 -94.5t-20.5 -113.5q0 -112 96 -112q45 0 97.5 32.5t92.5 91.5q13 61 13 108q0 127 -112 127z" />
    <glyph glyph-name="dollar.onum" horiz-adv-x="513" 
d="M103 95l-22 -42l-27 4l29 170q5 -1 12.5 -3t11.5 -2q1 -127 102 -169l40 193l-3 2q-2 1 -4.5 2.5t-3.5 1.5q-116 63 -116 145q0 15 3 33q10 49 48.5 75.5t89.5 26.5q16 0 34 -3l13 -2q3 13 8.5 43t8.5 44q7 -1 17 -4t16 -4l-20 -91q47 -21 86 -59l23 29q5 -1 13.5 -3
t12.5 -2l-29 -146q-4 0 -11.5 2t-11.5 2q-13 105 -89 147l-39 -178l23 -12q124 -60 124 -139q0 -19 -4 -36q-13 -47 -54.5 -78.5t-95.5 -31.5q-15 0 -41 4h-5h-4q-4 1 -5 1l-20 -94l-30 4l20 101q-64 22 -100 69zM381 104v1q6 29 -16.5 58t-85.5 67l-39 -183q6 -3 10 -3
q15 -3 33 -3q40 0 65.5 18t32.5 45zM184 438q-11 -50 82 -114l36 174q-6 0 -7 1q-45 8 -74.5 -11t-36.5 -50z" />
    <glyph glyph-name="cent.onum" horiz-adv-x="372" 
d="M322 200l22 -14q-48 -78 -126 -78q-16 0 -29 3q-3 -11 -10 -37.5t-9 -37.5l-24 5l17 77q-48 17 -77.5 54.5t-29.5 91.5q0 25 7 50q15 66 63.5 105.5t108.5 39.5h10l17 71l25 -6l-17 -69q48 -11 77.5 -43.5t21.5 -67.5v1q-13 -47 -51 -42q-19 6 -27 21.5t-3 34.5h-1l28 27
q-3 31 -51 41l-66 -278q4 -3 13 -3q33 -8 63 8t48 46zM126 252q0 -63 46 -94l65 270q-35 -6 -63 -36t-41 -84q-7 -29 -7 -56z" />
    <glyph glyph-name="sterling.onum" horiz-adv-x="509" 
d="M96 302h67q-7 35 -7 63q0 19 4 32q16 68 73 106t121 38q67 0 98.5 -30.5t25.5 -61.5v1q-6 -18 -19 -30t-25 -12q-11 0 -18 8t-9.5 15t-6.5 23q-5 19 -8.5 27.5t-15 18.5t-30.5 10q-30 0 -59.5 -25.5t-40.5 -71.5q-4 -15 -4 -33q0 -19 6 -49l4 -29h130l-8 -36h-119
q-1 -18 -5 -34q-20 -88 -75 -130l6 -11q28 15 48 15q30 0 66 -40q26 -35 58 -35q36 0 41 31q4 9 -11 24t-10 33q2 13 12.5 22t24.5 9q20 0 28.5 -17t1.5 -47q-13 -44 -51 -70t-78 -26q-57 0 -103.5 25.5t-66.5 54.5q-69 -80 -111 -80q-9 0 -14 6t-3 14q7 23 42.5 45t76.5 34
q23 33 40 96q4 16 4 35q0 15 -4 43l-86 3q1 6 5 18t5 18z" />
    <glyph glyph-name="yen.onum" horiz-adv-x="525" 
d="M590 508l-5 -29h-1q-53 -1 -103 -57l-147 -180h99q-1 -5 -4 -17.5t-4 -18.5h-110l-8 -44h108l-8 -37h-111l-6 -32q-5 -20 -5 -33q0 -20 15 -25t56 -5l-5 -30h-238l6 30q49 1 67.5 14.5t27.5 47.5l7 33h-130l8 37h131l9 44h-131q1 7 5 18.5t5 17.5h118l-75 172
q-19 38 -34.5 51t-51.5 14l6 29h225q0 -5 -3 -15t-3 -14q-43 -1 -57 -12t-1 -37h-1l72 -168l137 168q14 17 14 27q0 21 -42 22l7 29h161z" />
    <glyph glyph-name="Euro.onum" horiz-adv-x="555" 
d="M90 322h58q42 99 116.5 158.5t153.5 59.5q88 0 153 -52q-8 -18 -26 -53.5t-27 -53.5h-20q5 16 5 39q0 44 -29 64t-65 20q-54 0 -102.5 -46t-80.5 -136h266l-19 -37h-258l-7 -31l-4 -14h246q-4 -9 -19 -37h-233q-1 -12 -1 -37q0 -67 29 -102.5t73 -35.5q97 0 155 102
l28 -10q-70 -130 -200 -130q-74 0 -120.5 47.5t-46.5 133.5q0 22 1 32h-63q2 4 9 17.5t10 19.5h50l2 10q2 13 10 35h-62q7 16 18 37z" />
    <glyph glyph-name="numbersign.onum" horiz-adv-x="439" 
d="M87 408l82 -12l38 168l40 -4l-37 -169l87 -11l41 184l40 -4l-41 -184q13 -1 44.5 -5.5l45.5 -6.5l-6 -47l-94 12l-30 -130l79 -10l-6 -48l-83 11l-40 -180q-7 1 -20 3t-19 2l40 179l-87 12l-44 -196q-7 1 -20.5 3t-19.5 2l43 197l-89 12l6 46l93 -12l29 130l-78 10z
M200 345l-29 -130l87 -11l28 129z" />
    <glyph glyph-name="percent.onum" horiz-adv-x="464" 
d="M267 442l-9 1q-1 -62 -36.5 -103.5t-81.5 -41.5q-37 0 -61.5 27.5t-24.5 69.5q0 57 38 99t82 42q57 0 78 -53q4 -12 21 -19t37 -7q41 0 75 23q15 51 43 51q5 0 10.5 -4t5.5 -13q0 -11 -11 -25.5t-24 -21.5l-160 -221l-178 -259l-27 17l187 257l41 62q55 82 73 112
q-1 0 -5 -0.5t-5 -0.5q-20 -4 -30 -4q-24 0 -38 12zM241 88q0 57 38 99t82 42q38 0 61.5 -24t23.5 -66q0 -66 -36 -106.5t-80 -40.5q-40 0 -64.5 27t-24.5 69zM376 195q-29 0 -54 -41t-25 -87q0 -22 10.5 -33.5t26.5 -11.5q29 0 54 32t25 92q0 24 -10.5 36.5t-26.5 12.5z
M188 501q-28 0 -53 -40t-25 -86t38 -46q29 0 53 32.5t24 92.5q0 22 -10.5 34.5t-26.5 12.5z" />
    <glyph glyph-name="perthousand.onum" horiz-adv-x="698" 
d="M267 442l-9 1q-1 -62 -36.5 -103.5t-81.5 -41.5q-37 0 -61.5 27.5t-24.5 69.5q0 57 38 99t82 42q57 0 78 -53q4 -12 21 -19t37 -7q41 0 75 23q15 51 43 51q5 0 10.5 -4t5.5 -13q0 -11 -11 -25.5t-24 -21.5l-160 -221l-178 -259l-27 17l187 257l41 62q55 82 73 112
q-1 0 -5 -0.5t-5 -0.5q-20 -4 -30 -4q-24 0 -38 12zM241 88q0 57 38 99t82 42q38 0 61.5 -24t23.5 -66q0 -66 -36 -106.5t-80 -40.5q-40 0 -64.5 27t-24.5 69zM376 195q-29 0 -54 -41t-25 -87q0 -22 10.5 -33.5t26.5 -11.5q29 0 54 32t25 92q0 24 -10.5 36.5t-26.5 12.5z
M188 501q-28 0 -53 -40t-25 -86t38 -46q29 0 53 32.5t24 92.5q0 22 -10.5 34.5t-26.5 12.5zM476 88q0 57 38 99t83 42q37 0 60.5 -24t23.5 -66q0 -66 -36 -106.5t-80 -40.5q-40 0 -64.5 27t-24.5 69zM611 195q-29 0 -54.5 -41t-25.5 -87q0 -21 11 -33t27 -12q29 0 53.5 32
t24.5 92q0 24 -10 36.5t-26 12.5z" />
    <glyph glyph-name="ordfeminine.onum" horiz-adv-x="385" 
d="M289 313l-10 3q-70 -137 -127 -137q-37 0 -58.5 26.5t-21.5 69.5q0 103 50 180t121 77q40 0 68 -66q1 2 3.5 8l5 12t3.5 9q6 12 12 30h49q-8 -37 -27 -118.5t-29 -124.5q-4 -16 -4 -34q0 -33 23 -33q40 0 47 89q12 -2 21 -2q-7 -63 -25.5 -91t-54.5 -28q-60 0 -60 60
q0 26 14 70zM167 220q32 0 69.5 65.5t55.5 146.5q-4 33 -17 54.5t-32 21.5q-37 0 -70 -71.5t-33 -167.5q0 -49 27 -49z" />
    <glyph glyph-name="ordmasculine.onum" horiz-adv-x="338" 
d="M359 403q0 -87 -49.5 -155.5t-119.5 -68.5q-58 0 -90.5 32.5t-32.5 92.5q0 91 52.5 159.5t120.5 68.5q57 0 88 -35.5t31 -93.5zM292 419v14q0 70 -48 70q-51 0 -81 -67.5t-30 -150.5q0 -42 13.5 -59.5t40.5 -17.5q33 0 57 35.5t34.5 80.5t13.5 95z" />
    <glyph glyph-name="degree.onum" horiz-adv-x="367" 
d="M95 466q0 59 41 101t98 42q58 0 99 -42t41 -101t-41 -100.5t-99 -41.5q-57 0 -98 42t-41 100zM145 466q0 -40 24.5 -67.5t63.5 -27.5q40 0 65 27.5t25 67.5t-25 68.5t-65 28.5q-39 0 -63.5 -28.5t-24.5 -68.5z" />
    <glyph glyph-name="zero.numr" horiz-adv-x="331" 
d="M327 588q0 -114 -55 -195.5t-138 -81.5q-48 0 -77 27.5t-29 85.5q0 109 61 194.5t136 85.5q43 0 72.5 -30t29.5 -86zM142 336q55 0 88.5 79t33.5 179q0 86 -50 86q-34 0 -63 -46.5t-44 -106.5t-15 -111q0 -44 11 -62t39 -18z" />
    <glyph glyph-name="one.numr" horiz-adv-x="270" 
d="M80 655l4 21q70 3 118 22h29l-68 -317q-8 -43 64 -44l-4 -19h-211l3 19q42 1 61 10.5t25 32.5l26 124l30 141z" />
    <glyph glyph-name="two.numr" horiz-adv-x="320" 
d="M93 372v-6h110q13 0 27.5 18.5t25.5 47.5h33l-32 -114h-256l-3 26l21 15q226 145 226 252q0 69 -52 69q-46 0 -75 -46l29 -46l-1 1q-3 -20 -16 -32t-31 -12q-42 0 -42 41q0 50 46 84t96 34q54 0 85 -23t31 -65q0 -26 -15 -53.5t-45 -56t-52.5 -47t-60.5 -46.5l-11 -8
q-22 -14 -42 -34q3 1 4 1z" />
    <glyph glyph-name="three.numr" horiz-adv-x="312" 
d="M202 522v-3q81 -13 81 -83q0 -55 -50.5 -90t-130.5 -35q-44 0 -71.5 17.5t-27.5 49.5q0 21 13.5 36.5t30.5 15.5q19 0 29.5 -12.5t5.5 -27.5h1l-33 -38q12 -17 47 -17q46 0 81.5 25t35.5 77q0 60 -52 60q-20 0 -58 -12l-6 25q77 25 112 53t35 69q0 48 -51 48
q-34 0 -63 -21q13 -25 21 -47q-9 -31 -39 -31q-41 0 -41 30q0 43 43.5 68t93.5 25q48 0 76.5 -18.5t28.5 -50.5q0 -34 -33.5 -62t-85.5 -48l2 -4q3 0 5 1z" />
    <glyph glyph-name="four.numr" horiz-adv-x="322" 
d="M12 434l-2 11l259 260q5 -1 13 -3t12 -2l-51 -242h58q-1 -4 -3 -12.5t-2 -11.5h-59l-9 -42q-6 -33 6.5 -43.5t40.5 -11.5l-4 -19h-181l4 19q31 1 48.5 12t24.5 39l9 46h-164zM65 458h115l32 151l-142 -146l-5 -1v-4z" />
    <glyph glyph-name="five.numr" horiz-adv-x="316" 
d="M141 637l-29 -95q46 21 84 21q40 0 68 -23t28 -66q0 -71 -58 -117t-134 -46q-35 0 -63 16.5t-28 45.5q0 22 14.5 38.5t32.5 16.5q35 0 35 -36l1 1l-37 -41q19 -17 53 -17q52 0 83 41.5t31 92.5q0 62 -49 62q-42 0 -82 -35h-27l59 204q51 -16 101 -16q54 0 107 21
q-3 -12 -5 -23l2 1q-53 -50 -141 -50q-22 0 -46 4z" />
    <glyph glyph-name="six.numr" horiz-adv-x="333" 
d="M242 704q42 0 64.5 -21t22.5 -49q0 -20 -12 -33t-31 -13q-21 0 -32 10t-7 23h-2l36 34q-12 27 -44 27q-39 0 -74.5 -52t-53.5 -116q55 41 104 41q47 0 71.5 -24.5t24.5 -65.5q0 -70 -54.5 -112t-113.5 -42q-46 0 -77 29.5t-31 90.5q0 107 66.5 190t142.5 83zM147 336
q41 0 67 40.5t26 82.5q0 70 -44 70q-22 0 -49 -18t-48 -50q-6 -44 -6 -57q0 -68 54 -68z" />
    <glyph glyph-name="seven.numr" horiz-adv-x="305" 
d="M78 350q51 147 196 292l-6 2q-22 -8 -54 -8q-11 0 -29 4h-6q-4 1 -10 2t-9.5 2t-5.5 1q-23 0 -42.5 -19.5t-30.5 -53.5h-27l45 129h30v-8q29 11 44 11q20 0 46 -12q24 -11 42 -11q32 0 82 27l14 -20q-80 -79 -127.5 -154.5t-76.5 -184.5q-8 -35 -45 -35q-42 0 -30 36z
" />
    <glyph glyph-name="eight.numr" horiz-adv-x="322" 
d="M121 502l-7 2l5 2v-2h2l1 1v-1l1 2q-53 29 -53 82q0 46 42.5 81t96.5 35q56 0 84 -21.5t28 -58.5q0 -57 -94 -102l2 -4h2v1q-1 0 -2 1l3 1l-1 -2q63 -27 63 -79q0 -59 -50 -94t-113 -35q-53 0 -85 22t-32 60q0 32 32 61.5t78 46.5l-2 3zM137 336q43 0 70 24t27 56
q0 54 -81 74q-32 -9 -57 -33.5t-25 -57.5q0 -30 18 -46.5t48 -16.5zM126 605q0 -25 19 -44.5t53 -29.5q64 33 64 88q0 28 -15 44.5t-42 16.5q-32 0 -55.5 -23.5t-23.5 -51.5z" />
    <glyph glyph-name="nine.numr" horiz-adv-x="333" 
d="M118 311q-43 0 -65.5 17.5t-22.5 41.5q0 21 12 36.5t28 15.5q22 0 32.5 -11t7.5 -25l-31 -27q13 -26 44 -26q40 0 74 49t53 118q-53 -40 -103 -40q-47 0 -71 25t-24 68q0 65 52 108t116 43q45 0 76 -30.5t31 -93.5q0 -105 -65.5 -187t-143.5 -82zM213 680
q-43 0 -68.5 -42t-25.5 -92q0 -60 45 -60q22 0 49 18t48 51q6 42 6 56q0 69 -54 69z" />
    <glyph glyph-name="zero.dnom" horiz-adv-x="331" 
d="M327 230q0 -114 -55 -195.5t-138 -81.5q-48 0 -77 28t-29 86q0 109 61 194t136 85q43 0 72.5 -30t29.5 -86zM142 -22q55 0 88.5 79t33.5 179q0 86 -50 86q-34 0 -63 -46.5t-44 -106.5t-15 -111q0 -44 11 -62t39 -18z" />
    <glyph glyph-name="one.dnom" horiz-adv-x="270" 
d="M80 297l5 21q68 3 117 22h29l-68 -317q-8 -43 64 -44l-4 -19h-211l3 19q42 1 61 10.5t25 32.5l26 124l30 141z" />
    <glyph glyph-name="two.dnom" horiz-adv-x="320" 
d="M93 14v-6h110q13 0 27.5 18.5t25.5 47.5h33l-32 -114h-256l-3 26l21 15q226 145 226 252q0 69 -52 69q-46 0 -75 -46l29 -46l-1 1q-3 -20 -16 -31.5t-31 -11.5q-42 0 -42 40q0 50 46 84t96 34q55 0 85.5 -23t30.5 -65q0 -26 -15 -53.5t-44.5 -56t-53 -47.5t-60.5 -46
l-11 -8q-22 -14 -42 -34q3 1 4 1z" />
    <glyph glyph-name="three.dnom" horiz-adv-x="312" 
d="M202 164v-3q81 -13 81 -83q0 -55 -50.5 -90t-130.5 -35q-44 0 -71.5 17.5t-27.5 49.5q0 21 13.5 36.5t30.5 15.5q19 0 29.5 -12.5t5.5 -27.5h1l-33 -38q12 -17 47 -17q46 0 81.5 25t35.5 77q0 60 -52 60q-20 0 -58 -12l-6 25q77 26 112 53.5t35 68.5q0 48 -51 48
q-36 0 -63 -21q13 -25 21 -47q-9 -31 -39 -31q-41 0 -41 30q0 44 43 68.5t94 24.5q48 0 76.5 -18.5t28.5 -50.5q0 -63 -119 -110l2 -4q3 0 5 1z" />
    <glyph glyph-name="four.dnom" horiz-adv-x="322" 
d="M12 76l-2 11l259 260q5 -1 13 -3t12 -2l-51 -242h58q-1 -4 -3 -12.5t-2 -11.5h-59l-9 -42q-6 -33 6.5 -43.5t40.5 -11.5l-4 -19h-181l4 19q31 1 48.5 12t24.5 39l9 46h-164zM65 100h115l32 151l-142 -146l-5 -1v-4z" />
    <glyph glyph-name="five.dnom" horiz-adv-x="316" 
d="M141 279l-29 -94q46 20 84 20q40 0 68 -23t28 -66q0 -71 -58 -117t-134 -46q-35 0 -63 16.5t-28 45.5q0 22 14.5 39t32.5 17q35 0 35 -37l1 1l-37 -41q19 -17 53 -17q52 0 83 41.5t31 92.5q0 62 -49 62q-42 0 -82 -35h-27l59 204q51 -16 101 -16q54 0 107 21
q-3 -12 -5 -23l2 1q-53 -50 -141 -50q-22 0 -46 4z" />
    <glyph glyph-name="six.dnom" horiz-adv-x="333" 
d="M242 346q42 0 64.5 -20.5t22.5 -49.5q0 -20 -12 -33t-31 -13q-21 0 -32 10t-7 23h-2l36 34q-11 27 -44 27q-39 0 -74.5 -52t-53.5 -116q55 41 104 41q47 0 71.5 -24.5t24.5 -65.5q0 -70 -54.5 -112t-113.5 -42q-46 0 -77 29.5t-31 90.5q0 107 66.5 190t142.5 83zM147 -22
q41 0 67 40.5t26 82.5q0 70 -44 70q-22 0 -49 -18t-48 -50q-6 -44 -6 -57q0 -68 54 -68z" />
    <glyph glyph-name="seven.dnom" horiz-adv-x="305" 
d="M78 -8q51 147 196 292l-6 2q-22 -8 -54 -8q-11 0 -29 4h-6l-25 5q-23 0 -42.5 -19.5t-30.5 -53.5h-27l45 129h30v-8q29 11 44 11q20 0 46 -12q24 -11 42 -11q32 0 82 27l14 -20q-80 -79 -127.5 -154.5t-76.5 -184.5q-8 -35 -45 -35q-42 0 -30 36z" />
    <glyph glyph-name="eight.dnom" horiz-adv-x="322" 
d="M121 144l-7 2l5 2v-2h2l1 1v-1l1 2q-53 29 -53 82q0 46 42.5 81t96.5 35q112 0 112 -80q0 -55 -94 -102l2 -4h2v1q-1 0 -2 1l3 1l-1 -2q63 -27 63 -79q0 -59 -50 -94t-113 -35q-53 0 -85 22t-32 60q0 32 32 61.5t78 46.5l-2 3zM137 -22q43 0 70 24t27 56q0 54 -81 74
q-32 -9 -57 -33.5t-25 -57.5q0 -30 18 -46.5t48 -16.5zM126 247q0 -52 72 -74q64 33 64 88q0 28 -15 44.5t-42 16.5q-32 0 -55.5 -23.5t-23.5 -51.5z" />
    <glyph glyph-name="nine.dnom" horiz-adv-x="333" 
d="M118 -47q-43 0 -65.5 17.5t-22.5 41.5q0 22 12 37.5t28 15.5q21 0 32 -11.5t8 -25.5l-31 -27q13 -26 44 -26q40 0 74 49t53 118q-53 -40 -103 -40q-47 0 -71 25t-24 68q0 65 52 108t116 43q46 0 76.5 -30t30.5 -94q0 -105 -65.5 -187t-143.5 -82zM213 322
q-43 0 -68.5 -42t-25.5 -91q0 -61 45 -61q22 0 49 18t48 51q6 42 6 56q0 69 -54 69z" />
    <glyph glyph-name="zero.subs" horiz-adv-x="331" 
d="M266 109q0 -115 -54.5 -196t-137.5 -81q-49 0 -77.5 27.5t-28.5 86.5q0 108 61 193.5t135 85.5q44 0 73 -30t29 -86zM82 -143q37 0 65.5 39.5t42.5 97.5t14 121q0 86 -51 86q-49 0 -85.5 -90.5t-36.5 -173.5q0 -44 11.5 -62t39.5 -18z" />
    <glyph glyph-name="one.subs" horiz-adv-x="270" 
d="M20 176l4 21q71 3 118 22h29l-67 -317q-8 -43 63 -44l-4 -19h-210l3 19q41 1 60 10.5t25 32.5l27 124l30 141z" />
    <glyph glyph-name="two.subs" horiz-adv-x="320" 
d="M33 -107v-6h110q13 0 28 18.5t26 47.5h33l-32 -114h-256l-4 26l22 15q226 147 226 252q0 69 -53 69q-44 0 -75 -46l30 -46l-1 1q-3 -20 -16.5 -31.5t-31.5 -11.5q-41 0 -41 40q0 50 46 84t95 34q55 0 85.5 -23t30.5 -65q0 -34 -30.5 -74.5t-60.5 -65.5t-81 -63l-11 -8
q-21 -13 -43 -34q3 1 4 1z" />
    <glyph glyph-name="three.subs" horiz-adv-x="312" 
d="M141 43v-3q37 -6 59.5 -26.5t22.5 -56.5q0 -55 -51 -90t-131 -35q-43 0 -70.5 17.5t-27.5 49.5q0 21 13.5 36.5t30.5 15.5q18 0 28.5 -12.5t5.5 -27.5h1l-32 -38q12 -17 46 -17q47 0 82 25t35 77q0 60 -51 60q-20 0 -59 -12l-6 25q77 26 112.5 53.5t35.5 68.5
q0 48 -52 48q-35 0 -62 -21q13 -25 21 -47q-9 -31 -40 -31q-41 0 -41 30q0 44 43.5 68.5t93.5 24.5q48 0 76.5 -18.5t28.5 -50.5q0 -64 -119 -110l2 -4q3 0 5 1z" />
    <glyph glyph-name="four.subs" horiz-adv-x="322" 
d="M-48 -45l-2 11l259 260q5 -1 13 -3t12 -2l-52 -242h59q-1 -4 -3 -12.5t-2 -11.5h-60l-9 -42q-6 -33 7 -43.5t41 -11.5l-4 -19h-182l4 19q32 1 49.5 12t24.5 39l9 46h-164zM4 -21h116l31 151l-142 -146l-5 -1v-4z" />
    <glyph glyph-name="five.subs" horiz-adv-x="316" 
d="M82 158l-30 -94q48 20 84 20q40 0 68.5 -23t28.5 -66q0 -71 -58.5 -117t-134.5 -46q-35 0 -62.5 16.5t-27.5 45.5q0 22 14.5 39t32.5 17q34 0 34 -37l1 1l-36 -41q17 -17 52 -17q52 0 83 41t31 93q0 62 -48 62q-42 0 -83 -35h-27l60 204q51 -16 100 -16q55 0 107 21
q-3 -12 -5 -23l2 1q-52 -50 -141 -50q-21 0 -45 4z" />
    <glyph glyph-name="six.subs" horiz-adv-x="333" 
d="M181 225q43 0 65 -20.5t22 -49.5q0 -20 -12 -33t-30 -13q-21 0 -32.5 10t-6.5 23h-2l36 34q-11 27 -45 27q-38 0 -73.5 -52t-54.5 -116q56 41 104 41t72 -24.5t24 -65.5q0 -70 -54 -112t-113 -42q-46 0 -77 29.5t-31 90.5q0 107 66 190t142 83zM87 -143q41 0 66.5 40.5
t25.5 82.5q0 70 -44 70q-21 0 -48 -18t-49 -50q-6 -44 -6 -57q0 -68 55 -68z" />
    <glyph glyph-name="seven.subs" horiz-adv-x="305" 
d="M17 -129q52 149 197 292l-6 2q-22 -8 -55 -8q-11 0 -29 4h-5l-25 5q-23 0 -43 -20t-31 -53h-26l44 129h31v-8q29 11 44 11q19 0 45 -12q24 -11 43 -11q31 0 81 27l14 -20q-80 -80 -127 -155.5t-76 -183.5q-8 -35 -46 -35q-42 0 -30 36z" />
    <glyph glyph-name="eight.subs" horiz-adv-x="322" 
d="M61 23l-8 2l5 2v-2q2 0 3 1h1v-1l1 2q-54 29 -54 82q0 46 42.5 81t96.5 35q112 0 112 -80q0 -56 -94 -102l2 -4h2v1q-1 0 -2 1l3 1l-1 -2q64 -27 64 -79q0 -59 -50 -94t-113 -35q-54 0 -85.5 22t-31.5 60q0 33 32 62t78 46l-2 3zM77 -143q42 0 69 24.5t27 55.5
q0 54 -80 74q-33 -9 -58 -33.5t-25 -57.5q0 -30 18 -46.5t49 -16.5zM66 126q0 -52 71 -74q65 32 65 88q0 28 -15.5 44.5t-42.5 16.5q-31 0 -54.5 -23.5t-23.5 -51.5z" />
    <glyph glyph-name="nine.subs" horiz-adv-x="333" 
d="M57 -168q-42 0 -64.5 17.5t-22.5 41.5q0 21 12 37t27 16q21 0 32 -11.5t8 -25.5l-31 -27q13 -26 45 -26q39 0 73 48.5t54 118.5q-55 -40 -103 -40q-47 0 -71 25t-24 68q0 65 52 108t115 43q46 0 76.5 -30t30.5 -94q0 -105 -65.5 -187t-143.5 -82zM152 201q-42 0 -68 -42
t-26 -91q0 -61 46 -61q21 0 48 18t49 51q6 42 6 56q0 69 -55 69z" />
    <glyph glyph-name="acute.case" horiz-adv-x="500" 
d="M195 492v6l-1 -1l100 129h87v-8l-143 -126h-43z" />
    <glyph glyph-name="grave.case" horiz-adv-x="500" 
d="M296 497v-5h-40l-103 126v8h82q8 -18 61 -129z" />
    <glyph glyph-name="circumflex.case" horiz-adv-x="500" 
d="M391 498v-6h-38l-73 79q-24 -15 -75.5 -45t-57.5 -34h-38v6l160 128h43l80 -129z" />
    <glyph glyph-name="breve.case" horiz-adv-x="500" 
d="M256 492q-40 0 -64 25t-24 70q0 16 5 39h30q-6 -30 9.5 -51.5t50.5 -21.5t67 21t46 52h28q-22 -66 -63 -100t-85 -34z" />
    <glyph glyph-name="caron.case" horiz-adv-x="500" 
d="M149 620v6h39l72 -79q20 13 66.5 40t66.5 39h39v-6l-161 -128h-42l-81 129z" />
    <glyph glyph-name="dotaccent.case" horiz-adv-x="500" 
d="M223 557q0 26 17 49t42 23q18 0 30 -15.5t12 -37.5q0 -27 -19 -48.5t-41 -21.5q-18 0 -29.5 15t-11.5 36z" />
    <glyph glyph-name="hungarumlaut.case" horiz-adv-x="500" 
d="M285 492v6l-1 -1l106 129h82v-8l-148 -126h-39zM144 492v6l-1 -1l106 129h82v-8l-148 -126h-39z" />
    <glyph glyph-name="sidecaron.part" horiz-adv-x="500" 
d="M231 498v5l56 200h75v-7l-95 -198h-36z" />
    <glyph glyph-name="gcomma.part" horiz-adv-x="500" 
d="M276 562q0 -14 -9.5 -22.5t-24.5 -8.5q-18 0 -32.5 19t-14.5 47q0 51 34.5 88.5t92.5 38.5v-27q-35 -1 -55.5 -20.5t-20.5 -40.5q0 -19 18 -44q12 -16 12 -30z" />
    <glyph glyph-name="Stroke.part" horiz-adv-x="430" 
d="M156 554h686v-46h-686v46z" />
    <glyph glyph-name="stroke.part" horiz-adv-x="430" 
d="M26 544h285v-46h-285v46z" />
    <glyph glyph-name="uni2011.case" horiz-adv-x="318" 
d="M67 361h246v-66h-246v66z" />
    <glyph glyph-name="acute.plk" horiz-adv-x="500" 
d="M218 502v6l-1 -1l83 164h77v-8l1 1l-114 -162h-46z" />
    <glyph glyph-name="acute.case.plk" horiz-adv-x="500" 
d="M215 492v6l-1 -1q14 27 70 129h87v-8q-19 -20 -57 -63t-56 -63h-43z" />
    </font>
</defs>
</svg>
