<?xml version="1.0" standalone="no"?>
<!DOCTYPE svg PUBLIC "-//W3C//DTD SVG 1.1//EN" "http://www.w3.org/Graphics/SVG/1.1/DTD/svg11.dtd" >
<svg xmlns="http://www.w3.org/2000/svg" xmlns:xlink="http://www.w3.org/1999/xlink" version="1.1">
<metadata>
Created by FontForge 20170731 at Wed Mar 13 13:57:16 2019
 By Aleksey,,,
Copyright 2018-2019 Matthew Butterick
</metadata>
<defs>
<font id="CenturySupraT3-BoldItalic" horiz-adv-x="800" >
  <font-face 
    font-family="Century Supra T3"
    font-weight="600"
    font-style="italic"
    font-stretch="normal"
    units-per-em="1000"
    panose-1="0 0 0 0 0 0 0 0 0 0"
    ascent="762"
    descent="-238"
    x-height="505"
    cap-height="691"
    bbox="-129 -274 1069 951"
    underline-thickness="50"
    underline-position="-175"
    slope="-17"
    unicode-range="U+000D-FB04"
  />
<missing-glyph horiz-adv-x="544" 
d="M20 0v700h508v-700h-508zM71 41h406v618h-406v-618zM200 397l8 4q36 -18 79 -18q36 0 57.5 24.5t21.5 63.5q0 40 -30.5 74t-78.5 34q-28 0 -40 -14l14 -37q0 -14 -10 -22.5t-26 -8.5q-35 0 -35 39q0 30 25 50t66 20q63 0 109.5 -45t46.5 -114q0 -56 -30 -92t-77 -36
q-45 0 -65 15l-2 -88h-30zM172 141q0 20 13 33.5t33 13.5q18 0 31.5 -13.5t13.5 -33.5q0 -18 -13.5 -31t-31.5 -13q-19 0 -32.5 13t-13.5 31z" />
    <glyph glyph-name="uni2190" unicode="&#x3c;&#x2d;" horiz-adv-x="704" 
d="M76 272l237 264l61 -46l-163 -183h420v-84h-420l163 -183l-61 -47l-237 266v13z" />
    <glyph glyph-name="uni2192" unicode="&#x2d;&#x3e;" horiz-adv-x="704" 
d="M391 536l237 -264v-13l-237 -266l-61 47l163 183h-420v84h420l-163 183z" />
    <glyph glyph-name="f_f" unicode="ff" horiz-adv-x="654" 
d="M47 388l13 85h75q1 11 4 37.5t4 38.5q9 85 59.5 136.5t114.5 51.5q55 0 86.5 -33.5t31.5 -81.5q0 -36 -23 -60t-60 -26q0 5 -0.5 13.5t-0.5 12.5q-1 34 -2 47t-4.5 30t-10.5 22.5t-18 5.5q-10 0 -19 -12t-17 -42.5t-10 -74.5l-7 -65h187l8 91q9 85 59 136.5t114 51.5
q66 0 105 -33.5t39 -81.5q0 -38 -26 -63.5t-68 -27.5q-8 136 -44 136q-45 0 -52 -129l-8 -80h97l-12 -85h-95q-24 -180 -55 -303.5t-65.5 -187t-67.5 -89t-72 -25.5q-41 0 -66.5 19t-25.5 60q0 36 21 61.5t54 26.5l34 -107q69 80 117 545h-189q-24 -183 -54.5 -308.5
t-65 -190t-67.5 -90.5t-72 -26q-41 0 -67 19t-26 60q0 36 21.5 61.5t54.5 26.5l33 -107q71 81 117 555h-79z" />
    <glyph glyph-name="fi" unicode="fi" horiz-adv-x="592" 
d="M432 539l-5 2h5q-4 65 -19 103t-55 38q-32 0 -58.5 -32.5t-29.5 -96.5l-8 -80h294l-85 -366q-5 -27 18 -27q34 0 59 106q8 -1 21.5 -2t20.5 -2q-20 -98 -54 -143.5t-91 -45.5q-45 0 -68.5 28t-23.5 74q0 20 5 42l60 250h-166q-24 -182 -54.5 -307.5t-65 -190t-67.5 -90.5
t-72 -26q-41 0 -67 19t-26 60q0 36 21.5 61.5t54.5 26.5l33 -107q71 81 117 555h-79l15 85h73l8 91q10 84 76.5 136t147.5 52q87 0 130.5 -32.5t43.5 -82.5q0 -41 -30 -68t-79 -28v-2z" />
    <glyph glyph-name="fl" unicode="fl" horiz-adv-x="581" 
d="M597 742l-141 -613q-13 -52 21 -52q42 0 54 109l46 -3q-15 -97 -49 -143.5t-98 -46.5q-97 0 -97 97q0 21 7 54l96 448q-29 -11 -54 -6q-8 96 -59 96q-46 0 -53 -129l-8 -80h93l-12 -85h-91q-24 -183 -54.5 -308.5t-65 -190t-67.5 -90.5t-72 -26q-41 0 -67 19t-26 60
q0 36 21.5 61.5t54.5 26.5l33 -107q71 83 117 555h-79l15 85h73l8 91q9 85 59.5 136.5t114.5 51.5q71 0 114 -43l137 33h29z" />
    <glyph glyph-name="f_f_i" unicode="ffi" horiz-adv-x="903" 
d="M46 388l13 85h75q1 11 4 37.5t4 38.5q9 85 59.5 136.5t114.5 51.5q55 0 86.5 -33.5t31.5 -81.5q0 -36 -23 -60t-60 -26q0 5 -0.5 13.5t-0.5 12.5q-1 34 -2 47t-4.5 30t-10.5 22.5t-18 5.5q-10 0 -19 -12t-17 -42.5t-10 -74.5l-7 -65h186l8 91q10 84 76.5 136t146.5 52
q87 0 131 -32.5t44 -82.5q0 -41 -30 -68t-79 -28q-2 31 -5 52.5t-10.5 43.5t-22.5 33.5t-37 11.5q-32 0 -58 -32t-29 -97l-8 -80h294l-86 -366q-5 -27 18 -27q35 0 60 106q8 -1 20.5 -2t20.5 -2q-19 -98 -53 -143.5t-92 -45.5q-45 0 -68.5 28t-23.5 74q0 20 5 42l61 250
h-167q-24 -182 -54.5 -307.5t-65 -190t-67.5 -90.5t-72 -26q-41 0 -66.5 19t-25.5 60q0 36 21 61.5t54 26.5l34 -107q70 82 116 555h-187q-24 -183 -54.5 -308.5t-65 -190t-67.5 -90.5t-72 -26q-41 0 -67 19t-26 60q0 36 21.5 61.5t54.5 26.5l33 -107q71 81 117 555h-79z
" />
    <glyph glyph-name="f_f_l" unicode="ffl" horiz-adv-x="894" 
d="M46 388l13 85h75q1 11 4 37.5t4 38.5q9 85 59.5 136.5t114.5 51.5q55 0 86.5 -33.5t31.5 -81.5q0 -36 -23 -60t-60 -26q0 5 -0.5 13.5t-0.5 12.5q-1 34 -2 47t-4.5 30t-10.5 22.5t-18 5.5q-10 0 -19 -12t-17 -42.5t-10 -74.5l-7 -65h188l8 91q9 85 59 136.5t114 51.5
q75 0 118 -43l133 33h29l-141 -613q-13 -52 21 -52q43 0 55 109l45 -3q-14 -96 -48 -143t-98 -47q-98 0 -98 97q0 21 7 54l97 448q-29 -11 -54 -6q-8 96 -60 96q-45 0 -52 -129l-8 -80h87l-12 -85h-85q-24 -183 -55 -308.5t-65.5 -190t-67.5 -90.5t-72 -26q-41 0 -66.5 19
t-25.5 60q0 36 21 61.5t54 26.5l34 -107q69 82 117 555h-190q-24 -183 -54.5 -308.5t-65 -190t-67.5 -90.5t-72 -26q-41 0 -67 19t-26 60q0 36 21.5 61.5t54.5 26.5l33 -107q71 81 117 555h-79z" />
    <glyph glyph-name="uni2190.circle" unicode="&#x28;&#x3c;&#x2d;&#x29;" horiz-adv-x="884" 
d="M401 536l-237 -264v-13l237 -266l61 47l-163 183h420v84h-420l163 183zM824 263q0 -157 -111.5 -268.5t-268.5 -111.5q-159 0 -271.5 111.5t-112.5 268.5q0 159 112.5 271t271.5 112q157 0 268.5 -112t111.5 -271z" />
    <glyph glyph-name="uni2192.circle" unicode="&#x28;&#x2d;&#x3e;&#x29;" horiz-adv-x="884" 
d="M720 272l-237 264l-61 -46l163 -183h-420v-84h420l-163 -183l61 -47l237 266v13zM60 263q0 159 111.5 271t268.5 112q159 0 271.5 -112t112.5 -271q0 -157 -112.5 -268.5t-271.5 -111.5q-157 0 -268.5 111.5t-111.5 268.5z" />
    <glyph glyph-name="uni2191.circle" unicode="&#x28;&#x2191;&#x29;" horiz-adv-x="884" 
d="M713 305l-264 237h-13l-266 -237l47 -61l183 163v-420h84v420l183 -163zM440 -118q-157 0 -268.5 111.5t-111.5 268.5q0 159 111.5 271.5t268.5 112.5q159 0 271.5 -112.5t112.5 -271.5q0 -157 -112.5 -268.5t-271.5 -111.5z" />
    <glyph glyph-name="uni2193.circle" unicode="&#x28;&#x2193;&#x29;" horiz-adv-x="884" 
d="M449 -14l264 237l-46 61l-183 -163v420h-84v-420l-183 163l-47 -61l266 -237h13zM440 646q159 0 271.5 -111.5t112.5 -268.5q0 -159 -112.5 -271.5t-271.5 -112.5q-157 0 -268.5 112.5t-111.5 271.5q0 157 111.5 268.5t268.5 111.5z" />
    <glyph glyph-name="g_f" unicode="gf" horiz-adv-x="797" 
d="M255 505q66 0 115 -36q10 4 33.5 17t30.5 16h60l-20 -83h-67q12 -27 12 -57q0 -83 -48 -131t-114 -60q-65 -12 -93 -51l46 -14q119 -35 166.5 -67t47.5 -83q0 -73 -71.5 -128t-173.5 -55q-82 0 -139 30.5t-57 87.5q0 41 30 69.5t87 53.5v12q-42 35 -42 84l-1 -1
q23 44 82 77v12q-75 33 -75 124q0 70 56 126.5t135 56.5zM520 388l9 85h64l8 91q9 85 59.5 136.5t113.5 51.5q66 0 105 -33.5t39 -81.5q0 -38 -26 -63.5t-67 -27.5q-8 136 -45 136q-45 0 -52 -129l-8 -80h97l-12 -85h-94q-21 -182 -46.5 -308t-54 -190t-56 -90.5
t-58.5 -26.5q-34 0 -56 17t-22 52q0 23 13 39.5t33 17.5l29 -77q57 87 93 566h-66zM317 -80q0 29 -51 46l-97 28q-40 -19 -61.5 -44.5t-21.5 -48.5q0 -32 28.5 -48t69.5 -16q59 0 96 23.5t37 59.5zM302 348q0 79 -53 79q-30 0 -48 -28t-18 -79q0 -42 13.5 -61.5t44.5 -19.5
q24 0 42.5 28.5t18.5 80.5z" />
    <glyph glyph-name="f_j" unicode="fj" horiz-adv-x="584" 
d="M349 -19l76 406h-172q-24 -182 -54.5 -307.5t-65 -190t-67.5 -90.5t-72 -26q-41 0 -67 19t-26 60q0 36 21.5 61.5t54.5 26.5l33 -107q71 81 117 555h-79l15 85h73l8 91q10 84 73.5 136t140.5 52q84 0 126.5 -32.5t42.5 -82.5q0 -41 -29.5 -68t-79.5 -28q-2 32 -5 53
t-10 43.5t-20.5 33.5t-33.5 11q-29 0 -52 -32t-26 -97l-8 -80h300l-104 -494q-20 -95 -64 -150t-110 -56q-43 0 -75.5 21t-32.5 63q0 32 20.5 59t58.5 33l32 -116q24 0 34.5 29t26.5 119z" />
    <glyph glyph-name="f_f_j" unicode="ffj" horiz-adv-x="896" 
d="M46 388l13 85h75q1 11 4 37.5t4 38.5q9 85 59.5 136.5t114.5 51.5q55 0 86.5 -33.5t31.5 -81.5q0 -36 -23 -60t-60 -26q0 5 -0.5 13.5t-0.5 12.5q-1 34 -2 47t-4.5 30t-10.5 22.5t-18 5.5q-10 0 -19 -12t-17 -42.5t-10 -74.5l-7 -65h187l8 91q10 84 73 136t140 52
q84 0 127 -33t43 -82q0 -41 -30 -68t-79 -28q-2 32 -5 53t-10 43.5t-21 33.5t-34 11q-29 0 -51.5 -32t-25.5 -97l-8 -80h300l-105 -494q-16 -93 -61 -149t-112 -57q-42 0 -72.5 22.5t-30.5 66.5q0 31 19 56t55 31l32 -116q23 0 33.5 29t26.5 119l77 406h-172
q-24 -182 -55 -307.5t-65.5 -190t-67.5 -90.5t-72 -26q-41 0 -66.5 19t-25.5 60q0 36 21 61.5t54 26.5l34 -107q69 80 117 555h-189q-24 -183 -54.5 -308.5t-65 -190t-67.5 -90.5t-72 -26q-41 0 -67 19t-26 60q0 36 21.5 61.5t54.5 26.5l33 -107q71 81 117 555h-79z" />
    <glyph glyph-name=".notdef" horiz-adv-x="544" 
d="M20 0v700h508v-700h-508zM71 41h406v618h-406v-618zM200 397l8 4q36 -18 79 -18q36 0 57.5 24.5t21.5 63.5q0 40 -30.5 74t-78.5 34q-28 0 -40 -14l14 -37q0 -14 -10 -22.5t-26 -8.5q-35 0 -35 39q0 30 25 50t66 20q63 0 109.5 -45t46.5 -114q0 -56 -30 -92t-77 -36
q-45 0 -65 15l-2 -88h-30zM172 141q0 20 13 33.5t33 13.5q18 0 31.5 -13.5t13.5 -33.5q0 -18 -13.5 -31t-31.5 -13q-19 0 -32.5 13t-13.5 31z" />
    <glyph glyph-name=".null" horiz-adv-x="0" 
 />
    <glyph glyph-name="nonmarkingreturn" horiz-adv-x="333" 
 />
    <glyph glyph-name="NULL" horiz-adv-x="0" 
 />
    <glyph glyph-name="NULL" horiz-adv-x="0" 
 />
    <glyph glyph-name="CR" unicode="&#xd;" horiz-adv-x="210" 
 />
    <glyph glyph-name="space" unicode=" " horiz-adv-x="210" 
 />
    <glyph glyph-name="exclam" unicode="!" horiz-adv-x="359" 
d="M343 584l-15 -45q-61 -176 -108 -336q-10 2 -27 5.5t-26 4.5q24 236 24 407q0 43 21 74t64 31q80 0 80 -74q0 -26 -13 -67zM88 66q0 34 22 57.5t53 23.5q32 0 54.5 -23.5t22.5 -57.5q0 -33 -22.5 -55.5t-54.5 -22.5t-53.5 22.5t-21.5 55.5z" />
    <glyph glyph-name="quotedbl" unicode="&#x22;" horiz-adv-x="485" 
d="M152 426l46 300q21 -5 60 -15t56 -14l-105 -286q-10 2 -28.5 7t-28.5 8zM332 426l47 300q21 -5 59 -15t56 -14l-105 -286q-10 2 -28 7t-29 8z" />
    <glyph glyph-name="numbersign" unicode="#" horiz-adv-x="510" 
d="M117 514l94 -13l42 205l63 -13l-41 -199l81 -12l46 224l63 -13l-46 -219q17 -2 51 -7t49 -7l-14 -75l-101 14l-30 -143l88 -11q-2 -12 -7 -36.5t-7 -36.5l-89 12q-7 -37 -23.5 -112t-23.5 -112q-11 2 -31 6.5t-31 6.5l46 219l-82 11q-8 -40 -25.5 -121.5t-25.5 -121.5
q-12 2 -31.5 6.5t-29.5 6.5l49 238l-106 16l13 73l108 -15l30 142q-15 2 -46.5 7.5t-46.5 7.5zM260 419l-31 -141l82 -12l30 141z" />
    <glyph glyph-name="dollar" unicode="$" horiz-adv-x="596" 
d="M145 105l-28 -60l-69 7l53 256l56 -6q-2 -68 25.5 -119t76.5 -73l34 180q-71 34 -114 77.5t-43 106.5q0 19 5 41q19 68 83.5 109t138.5 37l22 115l49 -9l-23 -115q51 -15 91 -66q4 4 3 5h1l27 49l64 -6q-9 -42 -26.5 -120t-25.5 -115l-53 6q-11 131 -96 167l-30 -161
q3 -2 12.5 -5.5t12.5 -4.5q68 -32 106.5 -71.5t38.5 -101.5q0 -23 -6 -50q-21 -75 -87.5 -121t-148.5 -39l-25 -122q-10 2 -26 5.5t-23 4.5l23 124q-64 23 -98 75zM413 160q10 55 -74 108l-31 -167q40 -2 69 13.5t36 45.5zM270 528q-12 -49 51 -92l26 145q-33 0 -53.5 -15.5
t-23.5 -37.5zM505 595v-4l-3 3h1q1 1 2 1z" />
    <glyph glyph-name="percent" unicode="%" horiz-adv-x="552" 
d="M367 545q-19 0 -46 15q-6 -79 -48.5 -130.5t-96.5 -51.5q-48 0 -79 37t-31 95q0 76 47.5 131.5t101.5 55.5q35 0 61 -19.5t37 -53.5q5 -13 22.5 -21t38.5 -8q38 0 79 27q20 69 57 69q10 0 19.5 -7t9.5 -22q0 -17 -14 -35.5t-31 -30.5l-185 -281l-214 -334l-42 33l223 330
l125 206q-25 -5 -34 -5zM284 120q0 76 47 131.5t103 55.5q48 0 77.5 -32.5t29.5 -89.5q0 -88 -44.5 -142t-99.5 -54q-51 0 -82 36.5t-31 94.5zM451 247q-31 0 -57.5 -49t-26.5 -105q0 -49 35 -49q31 0 57 38.5t26 111.5q0 24 -10.5 38.5t-23.5 14.5zM233 636q-30 0 -57 -48
t-27 -104q0 -49 37 -49q30 0 55.5 38.5t25.5 109.5q0 26 -10 39.5t-24 13.5z" />
    <glyph glyph-name="ampersand" unicode="&#x26;" horiz-adv-x="753" 
d="M473 701q56 0 86.5 -30t30.5 -78q0 -28 -13 -51.5t-41 -45t-52.5 -35.5t-66.5 -35l-34 -18v-12q0 -172 34 -259q56 54 96 132q13 27 -4.5 39t-60.5 15v66h276v-66q-94 -2 -138 -73q-65 -104 -132 -168q21 -17 50 -17q34 0 72 28.5t65 80.5l40 -24q-36 -71 -90.5 -117
t-119.5 -46q-61 0 -107 34q-70 -34 -149 -34q-94 0 -139 44.5t-45 116.5q0 47 19 88t55.5 73.5t73 55.5t87.5 49q16 130 69 208.5t138 78.5zM310 77l3 3q-52 89 -52 247q-77 -67 -77 -156q0 -45 24 -71.5t67 -26.5q19 0 35 4zM465 631q-31 0 -51.5 -41t-27.5 -115
q57 30 86 56.5t29 55.5q0 44 -36 44z" />
    <glyph glyph-name="quotesingle" unicode="'" horiz-adv-x="306" 
d="M152 426l46 300q21 -5 60 -15t56 -14l-105 -286q-10 2 -28.5 7t-28.5 8z" />
    <glyph glyph-name="parenleft" unicode="(" horiz-adv-x="322" 
d="M228 -213l-30 -29q-68 65 -111 185.5t-43 231.5q0 95 24 176t72.5 150.5t104.5 124t137 118.5l27 -31q-128 -130 -192.5 -282t-64.5 -305q0 -207 76 -339z" />
    <glyph glyph-name="parenright" unicode=")" horiz-adv-x="322" 
d="M119 716l30 29q68 -65 111 -185.5t43 -231.5q0 -96 -24 -177t-72.5 -150t-104.5 -124t-137 -118l-27 31q128 130 192.5 282t64.5 305q0 207 -76 339z" />
    <glyph glyph-name="asterisk" unicode="*" horiz-adv-x="476" 
d="M466 429q24 -17 4.5 -49.5t-48.5 -32.5q-14 0 -25 17l-15 28q-28 56 -62 96q-6 -49 -8 -107q0 -14 -2 -38q-4 -27 -36 -27q-26 0 -43.5 16t-6.5 38q4 8 20 36q32 52 50 87q-55 -15 -104 -43q-21 -13 -27 -15q-18 -9 -33.5 10.5t-15.5 44.5q0 33 29 37h-1l38 2q75 3 103 5
q-38 35 -84 59q-23 13 -29 18q-18 19 -1.5 50t41.5 31q12 0 24 -17l13 -22q43 -68 65 -99q8 58 8 102q0 27 2 41q4 27 35 27q27 0 45.5 -17t7.5 -39q-9 -15 -18 -26q-36 -51 -54 -93q75 25 116 47l16 8q19 10 34.5 -10.5t15.5 -46.5q0 -34 -28 -35q-9 0 -33 2q-39 3 -50 3
q-21 0 -56 -4q64 -54 113 -84z" />
    <glyph glyph-name="plus" unicode="+" horiz-adv-x="620" 
d="M573 221h-220v-221h-86v221h-220v86h220v221h86v-221h220v-86z" />
    <glyph glyph-name="comma" unicode="," horiz-adv-x="297" 
d="M29 77q0 26 20 46t53 20q42 0 74.5 -39.5t32.5 -107.5q0 -82 -76.5 -148.5t-189.5 -67.5v58q72 1 118 36.5t46 81.5q0 15 -8 29t-13.5 19t-22.5 19q-34 26 -34 54z" />
    <glyph glyph-name="hyphen" unicode="-" horiz-adv-x="318" 
d="M46 306h242v-110h-242v110z" />
    <glyph glyph-name="period" unicode="." horiz-adv-x="253" 
d="M20 73q0 35 22.5 59t55.5 24q32 0 55.5 -24.5t23.5 -58.5q0 -33 -23.5 -56.5t-55.5 -23.5q-33 0 -55.5 23t-22.5 57z" />
    <glyph glyph-name="slash" unicode="/" horiz-adv-x="380" 
d="M482 732l-466 -848h-101q401 735 464 848h103z" />
    <glyph glyph-name="zero" unicode="0" horiz-adv-x="602" 
d="M614 449q0 -201 -103.5 -330t-249.5 -129q-98 0 -155 55t-57 175q0 126 51.5 238t134.5 177.5t173 65.5q99 0 152.5 -63.5t53.5 -188.5zM276 79q56 0 100 68t64.5 162.5t20.5 189.5q0 61 -18.5 85t-55.5 24q-45 0 -88 -63.5t-69 -160.5t-26 -193q0 -62 18 -87t54 -25z
" />
    <glyph glyph-name="one" unicode="1" horiz-adv-x="491" 
d="M123 576l15 75q9 -1 49 -1q105 0 215 35h40l-115 -538q-9 -44 17 -56.5t95 -12.5l-18 -78h-407l17 78q71 0 102 15.5t39 53.5l87 409q-88 0 -136 20z" />
    <glyph glyph-name="two" unicode="2" horiz-adv-x="582" 
d="M209 150l5 -18h172q30 0 56 21.5t40 60.5h59l-84 -214h-446l-7 82q10 9 36 25q55 36 89 59.5t101 76t107 94t73 95t33 98.5q0 87 -84 87q-67 0 -105 -55l42 -91q-9 -38 -37 -61.5t-65 -23.5q-40 0 -61 21t-21 58q0 68 46 124t108.5 84t121.5 28q100 0 156 -42t56 -119
q0 -43 -22.5 -86t-55.5 -78.5t-84.5 -74.5t-96.5 -68.5t-104 -65.5q-19 -11 -28 -17z" />
    <glyph glyph-name="three" unicode="3" horiz-adv-x="568" 
d="M391 376l2 -15q60 -7 101 -41t41 -94q0 -109 -99 -172.5t-231 -63.5q-86 0 -139.5 33t-53.5 94q0 46 29.5 78t69.5 32q29 0 48 -21t16 -49l1 1l-53 -71q21 -21 81 -21q66 0 120 38.5t54 112.5q0 41 -27 62.5t-75 21.5q-39 0 -82 -13q-2 12 -5.5 31.5t-4.5 29.5
q237 84 237 210q0 70 -71 70q-43 0 -81 -28q9 -24 28 -68q-8 -30 -34 -50.5t-56 -20.5q-36 0 -56.5 18t-20.5 49q0 54 43 95t100 59t113 18q93 0 147.5 -37.5t54.5 -104.5q0 -111 -197 -183z" />
    <glyph glyph-name="four" unicode="4" horiz-adv-x="585" 
d="M42 200l-1 39l453 462q13 -2 36 -5.5t34 -4.5l-87 -414h95q-3 -14 -9 -39.5t-8 -37.5h-95l-9 -42q-4 -19 -4 -35q0 -29 18 -37t64 -8l-17 -78h-322l17 78q49 1 70 15t30 58l10 49h-275zM173 284l1 -7h160l40 194l-13 8z" />
    <glyph glyph-name="five" unicode="5" horiz-adv-x="574" 
d="M208 426l11 -10q77 38 147 38q75 0 128 -45.5t53 -129.5q0 -71 -31 -128t-81 -91t-106.5 -52t-112.5 -18q-81 0 -140.5 34t-59.5 94q0 46 28.5 77.5t69.5 31.5q32 0 49.5 -18.5t19.5 -50.5l1 1l-50 -68q19 -26 78 -26q68 0 121.5 49t53.5 141q0 115 -85 115
q-35 0 -64.5 -14t-73.5 -46h-61l112 389q98 -29 205 -29q103 0 183 27l-14 -68q-103 -88 -248 -88q-47 0 -94 11z" />
    <glyph glyph-name="six" unicode="6" horiz-adv-x="606" 
d="M451 701q85 0 130 -37t45 -88q0 -38 -26.5 -65t-59.5 -27q-30 0 -54 15.5t-27 41.5l-1 -1l45 63q-16 25 -69 25t-106 -60.5t-76 -161.5l13 -7q62 53 142 53q84 0 128.5 -46.5t44.5 -124.5q0 -91 -48.5 -159.5t-115 -100t-136.5 -31.5q-44 0 -81.5 11.5t-69.5 37
t-50.5 72.5t-18.5 111q0 126 56 237.5t146 176.5t189 65zM291 74q59 0 91 58t32 148q0 89 -65 89q-62 0 -122 -80q-15 -70 -15 -115q0 -100 79 -100z" />
    <glyph glyph-name="seven" unicode="7" horiz-adv-x="554" 
d="M459 541l-9 18q-45 -17 -81 -17q-21 0 -51 6q-28 6 -47 6q-43 0 -76.5 -28t-52.5 -76h-48l86 251h46l8 -24q63 24 107 24q34 0 82 -18t84 -18q51 0 117 37q4 -14 13.5 -41t14.5 -41q-148 -123 -228 -238.5t-134 -298.5q-7 -22 -12 -34t-15.5 -26t-28 -20t-43.5 -6
q-71 0 -71 52q0 15 6 35q84 230 333 457z" />
    <glyph glyph-name="eight" unicode="8" horiz-adv-x="585" 
d="M450 375l-1 -8q106 -44 106 -143t-92 -166.5t-209 -67.5q-102 0 -164 40.5t-62 112.5q0 57 48 108.5t115 81.5l2 10q-69 56 -69 147q0 79 73.5 145t204.5 66q93 0 145 -39t52 -103q0 -105 -149 -184zM374 412h5q36 24 58.5 57.5t22.5 66.5q0 38 -24 62t-63 24
q-44 0 -74 -29.5t-30 -63.5q0 -73 105 -117zM280 69q50 0 88 30.5t38 74.5q0 40 -37.5 71.5t-104.5 50.5q-35 -14 -65.5 -54t-30.5 -89q0 -40 30.5 -62t81.5 -22z" />
    <glyph glyph-name="nine" unicode="9" horiz-adv-x="606" 
d="M231 -10q-85 0 -132.5 36t-47.5 84q0 44 27.5 70.5t63.5 26.5q20 0 37.5 -13.5t27.5 -32.5l-32 -69q12 -26 58 -26q63 0 119 67t76 157l-13 7q-29 -23 -69.5 -37.5t-79.5 -14.5q-84 0 -129 43.5t-45 115.5q0 88 49 158t119 104.5t142 34.5q92 0 153.5 -58.5t61.5 -182.5
q0 -92 -34.5 -179.5t-89 -150.5t-124 -101.5t-138.5 -38.5zM390 617q-49 0 -90 -66t-41 -150q0 -78 69 -78q74 0 125 89q15 70 15 114q0 91 -78 91z" />
    <glyph glyph-name="colon" unicode=":" horiz-adv-x="273" 
d="M85 369q0 34 23 58.5t55 24.5t55.5 -24.5t23.5 -58.5q0 -33 -23 -56.5t-56 -23.5q-32 0 -55 23t-23 57zM28 73q0 35 22.5 59t55.5 24q32 0 55.5 -24.5t23.5 -58.5q0 -33 -23.5 -56.5t-55.5 -23.5q-33 0 -55.5 23t-22.5 57z" />
    <glyph glyph-name="semicolon" unicode=";" horiz-adv-x="337" 
d="M118 369q0 34 22.5 58.5t54.5 24.5t56 -24.5t24 -58.5q0 -33 -23.5 -56.5t-56.5 -23.5q-32 0 -54.5 23t-22.5 57zM45 77q0 26 20 46t53 20q42 0 74.5 -39.5t32.5 -107.5q0 -82 -76.5 -148.5t-189.5 -67.5v58q72 1 118 36.5t46 81.5q0 15 -7.5 28.5t-14.5 19.5t-22 19
q-34 26 -34 54z" />
    <glyph glyph-name="less" unicode="&#x3c;" horiz-adv-x="594" 
d="M542 456l-391 -186q58 -28 190.5 -91t200.5 -96v-92l-502 239v79l502 239v-92z" />
    <glyph glyph-name="equal" unicode="=" horiz-adv-x="620" 
d="M573 297h-526v87h526v-87zM573 125h-526v86h526v-86z" />
    <glyph glyph-name="greater" unicode="&#x3e;" horiz-adv-x="594" 
d="M443 270l-391 186v92l502 -239v-79l-502 -239v92q68 33 200.5 96t190.5 91z" />
    <glyph glyph-name="question" unicode="?" horiz-adv-x="473" 
d="M494 591q0 -28 -11 -52t-37.5 -48.5t-42.5 -36t-52 -36.5q-71 -48 -87 -68q-14 -18 -14 -35q0 -35 42 -35q46 0 56 63l45 -14q-36 -130 -148 -130q-50 0 -89 26t-39 77q0 32 22 63.5t44 49.5t65 49q32 22 46 33t34.5 29.5t29 35.5t8.5 36q0 20 -13.5 33t-37.5 13
q-37 0 -64 -37t-28 -109q-26 -5 -63 -10q-6 107 40 172t130 65q77 0 120.5 -38.5t43.5 -95.5zM100 68q0 38 22 58.5t53 20.5t53.5 -21t22.5 -58q0 -32 -22 -54.5t-54 -22.5q-33 0 -54 22t-21 55z" />
    <glyph glyph-name="at" unicode="@" horiz-adv-x="816" 
d="M717 390q0 28 -5.5 57t-20.5 62.5t-38 59t-62.5 42.5t-89.5 17q-98 0 -184.5 -73.5t-136 -187.5t-49.5 -232q0 -116 52 -178t142 -62q89 0 167 46l20 -37q-96 -54 -189 -54q-132 0 -204.5 75t-72.5 211q0 124 60.5 246.5t168 204t229.5 81.5q135 0 215 -76.5t80 -201.5
q0 -68 -24 -127.5t-60.5 -99.5t-80.5 -69t-84 -42.5t-71 -13.5q-45 0 -45 45q0 34 20 79l-19 14q-95 -140 -153 -140q-28 0 -42.5 24t-14.5 56q0 81 59 187q42 77 95 126.5t102 49.5q24 0 37 -28h15q9 16 19.5 21.5t38.5 5.5q38 0 38 -10q0 -1 -1 -3l-101 -321
q-3 -12 3 -22.5t15 -10.5q18 0 45.5 18t56.5 50.5t49.5 88.5t20.5 122zM316 168q0 -35 29 -35q26 0 80 71.5t87 160.5q5 32 -4.5 50.5t-29.5 18.5q-19 0 -37 -12.5t-29 -27t-33 -45.5q-26 -39 -44.5 -90t-18.5 -91z" />
    <glyph glyph-name="A" unicode="A" horiz-adv-x="720" 
d="M457 123l-11 65h-228l-36 -62q-12 -24 2.5 -34t62.5 -11l-17 -81h-253l18 81q33 1 54 15t43 48l335 557h62l113 -563q9 -39 22 -48t58 -9l-17 -81h-310l18 81h22q43 0 55 8t7 34zM382 474l-119 -207h169l-36 207h-14z" />
    <glyph glyph-name="B" unicode="B" horiz-adv-x="657" 
d="M507 353l-2 -5q132 -23 132 -122q0 -104 -81 -165t-195 -61h-366l18 81q51 0 71.5 14t31.5 68l86 403l2 16q0 20 -15 24.5t-64 4.5q2 13 8 40t9 40h352q81 0 132 -37t51 -106q0 -64 -45 -119t-125 -76zM317 394h65q66 0 98.5 41.5t32.5 86.5q0 42 -24 65.5t-65 23.5h-62z
M250 81h70q79 0 114.5 41t35.5 101q0 42 -27 63t-71 21h-75z" />
    <glyph glyph-name="C" unicode="C" horiz-adv-x="684" 
d="M631 651l12 2l34 37h38l-52 -263h-52q0 77 -30 130t-93 53q-74 0 -134 -53.5t-91 -133.5t-31 -166q0 -85 39.5 -131t115.5 -46q65 0 116.5 39t79.5 113h60q-38 -117 -122 -180.5t-183 -63.5q-128 0 -199.5 71.5t-71.5 196.5q0 118 58 220.5t157.5 163.5t214.5 61
q43 0 82 -15t52 -35z" />
    <glyph glyph-name="D" unicode="D" horiz-adv-x="761" 
d="M757 408q0 -95 -38.5 -174t-100.5 -129t-137 -77.5t-152 -27.5h-334l18 81q57 2 72.5 7.5t21.5 29.5l97 459q5 22 -8.5 27.5t-61.5 6.5h-9q2 13 8 40t9 40h286q91 0 158 -24.5t102.5 -66.5t52 -89.5t16.5 -102.5zM249 81h71q108 0 189.5 92t81.5 240q0 91 -46.5 144.5
t-146.5 53.5h-37z" />
    <glyph glyph-name="E" unicode="E" horiz-adv-x="661" 
d="M640 254l-67 -254h-578l18 81q52 0 70.5 9.5t27.5 47.5q14 69 44.5 210t44.5 209q6 32 -10 43t-65 11q2 13 8 40t9 40h563q-6 -39 -19 -114.5t-19 -113.5h-65q2 11 2 30q0 67 -25 92.5t-87 25.5h-130l-50 -239h56q75 0 102 125h59l-65 -310h-60q8 35 8 62
q0 31 -15.5 42.5t-50.5 11.5h-50l-46 -222h154q66 0 106.5 44.5t68.5 128.5h61z" />
    <glyph glyph-name="F" unicode="F" horiz-adv-x="597" 
d="M640 462h-60q1 10 1 28q0 61 -27 91t-90 30h-102l-50 -241h37q44 0 70.5 31t40.5 96h59l-65 -309h-60q6 25 6 54q0 32 -15.5 48t-50.5 16h-37l-32 -153q-3 -17 -3 -29q0 -25 16.5 -33.5t55.5 -9.5l-17 -81h-322l18 81q59 0 75 12t26 61l80 376q5 27 5 39q0 27 -15 34.5
t-59 7.5q2 13 8 40t9 40h543z" />
    <glyph glyph-name="G" unicode="G" horiz-adv-x="727" 
d="M645 196l-44 -203h-42l-38 82q-39 -40 -91.5 -63.5t-97.5 -23.5q-112 0 -188 66.5t-76 199.5q0 100 38 186t99 142t135 87.5t147 31.5q97 0 150 -46h13l28 40h51l-46 -258h-56q-1 67 -42.5 120t-109.5 53q-100 0 -173 -105t-73 -252q0 -83 37.5 -128.5t103.5 -45.5
q70 0 122 54l15 72q8 31 -6 42.5t-58 10.5l15 76h287l-14 -76q-46 -1 -62.5 -15.5t-23.5 -46.5z" />
    <glyph glyph-name="H" unicode="H" horiz-adv-x="799" 
d="M724 0h-325l18 81q58 3 74 10.5t23 40.5l37 178h-253l-37 -178q-7 -32 7.5 -41.5t67.5 -9.5l-17 -81h-324l18 81q52 0 71 9t26 42l90 426q6 32 -11.5 42t-64.5 10l18 81h323l-17 -81q-50 0 -69.5 -9t-27.5 -43l-34 -161h253l35 161q7 33 -9 42.5t-68 9.5l18 81h324
l-17 -81q-52 0 -72 -10.5t-27 -41.5l-90 -426q-7 -32 8.5 -41.5t68.5 -9.5z" />
    <glyph glyph-name="I" unicode="I" horiz-adv-x="379" 
d="M454 691l-17 -82q-55 0 -69.5 -6.5t-21.5 -34.5l-94 -440q-6 -31 6 -39t67 -8l-17 -81h-317l18 81q57 0 71.5 8t21.5 39l93 440q7 31 -4 37t-70 6q3 13 9 40t8 40h316z" />
    <glyph glyph-name="J" unicode="J" horiz-adv-x="543" 
d="M644 691l-16 -80q-60 0 -83.5 -16.5t-35.5 -73.5l-69 -327q-13 -60 -43 -102.5t-68.5 -64t-74 -30.5t-71.5 -9q-78 0 -130 31.5t-52 102.5q0 60 29.5 94.5t76.5 34.5q42 0 62 -28t14 -70l-68 -54q6 -41 63 -41q43 0 68 30.5t41 97.5l72 334q5 20 5 43q0 32 -19.5 40
t-78.5 8q2 13 8.5 40t8.5 40h361z" />
    <glyph glyph-name="K" unicode="K" horiz-adv-x="723" 
d="M593 515l-137 -115l155 -266q18 -31 32 -41.5t44 -11.5l-17 -81h-309l18 81q48 2 60.5 13t-2.5 38l-102 171l-47 -40l-21 -104q-7 -33 -7 -45q0 -19 12 -26t40 -7l-17 -81h-300l18 81q55 0 73.5 13.5t29.5 64.5q13 61 39.5 188t39.5 189q4 17 4 34q0 27 -16 34t-58 7
q2 13 8 40t9 40h308q-3 -13 -9 -40t-8 -40q-44 0 -60 -13.5t-27 -61.5l-36 -164h12l196 167q26 23 26 42q0 29 -51 29l18 81h273l-18 -81q-75 -11 -173 -95z" />
    <glyph glyph-name="L" unicode="L" horiz-adv-x="602" 
d="M594 280l-71 -280h-527l18 81q49 0 69 8.5t26 38.5l93 441q5 26 -9 34t-67 8q3 13 8.5 40t8.5 40h331q-2 -13 -8 -40t-9 -40q-61 0 -78.5 -7t-23.5 -34l-103 -489h85q63 0 112 52.5t79 146.5h66z" />
    <glyph glyph-name="M" unicode="M" horiz-adv-x="884" 
d="M665 441h-14l-263 -448h-57l-75 448h-14l-60 -285q-8 -41 6 -57.5t47 -17.5l-17 -81h-223l18 81q32 2 58.5 20t34.5 53l84 396q-2 33 -18.5 46t-47.5 14l18 81h214l76 -479q34 59 132 227l147 252h245l-18 -81q-53 0 -73 -16t-29 -56l-79 -368q-7 -28 -7 -49
q0 -27 15.5 -33.5t61.5 -6.5l-17 -81h-309l18 81q47 0 61 15t28 74z" />
    <glyph glyph-name="N" unicode="N" horiz-adv-x="752" 
d="M268 476h-13q-14 -67 -71 -340q-6 -33 15.5 -44t77.5 -11l-17 -81h-276l18 81q42 1 66.5 12t31.5 43l90 425q-15 25 -31 37t-45 13q3 13 9 40t8 40h194l240 -451h12l69 318q5 27 -19.5 39.5t-87.5 12.5l18 81h277l-17 -81q-77 -1 -88 -52l-120 -566h-80z" />
    <glyph glyph-name="O" unicode="O" horiz-adv-x="751" 
d="M751 433q0 -96 -36 -180.5t-95 -141.5t-134.5 -90t-153.5 -33q-129 0 -197 71t-68 195q0 96 36.5 181t95.5 142.5t132.5 90.5t148.5 33q125 0 198 -73t73 -195zM352 80q59 0 106 38.5t74.5 98.5t41.5 124.5t14 125.5q0 70 -32 106.5t-91 36.5q-69 0 -124 -55.5
t-83.5 -141.5t-28.5 -182q0 -78 29 -114.5t94 -36.5z" />
    <glyph glyph-name="P" unicode="P" horiz-adv-x="623" 
d="M665 532q-1 -64 -29 -114t-73 -77.5t-95.5 -41.5t-102.5 -14h-71l-24 -115q-8 -34 -8 -50q0 -23 18 -31t71 -8l-17 -81h-339l18 81q56 0 74 15t31 74l79 376l1 2v2q3 14 3 24q0 24 -16.5 30.5t-59.5 6.5q2 13 8 40t9 40h324q84 0 141.5 -37t57.5 -122zM363 611l-51 -246
h55q60 0 100 38.5t40 114.5q0 93 -93 93h-51z" />
    <glyph glyph-name="Q" unicode="Q" horiz-adv-x="751" 
d="M751 433q0 -145 -76 -255.5t-195 -159.5q-4 -42 8 -63.5t35 -21.5q44 0 60 72h58q-18 -86 -59.5 -133.5t-95.5 -47.5q-57 0 -84.5 30t-27.5 97q0 13 2 39q-26 -2 -44 -2q-129 0 -197 71t-68 195q0 96 36.5 181t95.5 142.5t132.5 90.5t148.5 33q125 0 198 -73t73 -195z
M229 231q0 -35 7 -77q25 64 67 108.5t91 44.5q93 0 98 -155q47 64 71.5 151t24.5 164q0 70 -32 106.5t-91 36.5q-69 0 -124 -55.5t-83.5 -141.5t-28.5 -182zM374 225q-19 0 -36 -20.5t-22 -51.5q-7 -41 -4 -69q17 -4 40 -4q24 0 40 5q11 63 11 97q0 25 -7 34t-22 9z" />
    <glyph glyph-name="R" unicode="R" horiz-adv-x="683" 
d="M507 526q0 46 -24 65t-83 19h-38l-44 -215h52q54 0 95.5 32.5t41.5 98.5zM423 158q5 37 5 57q0 56 -22 77t-66 21h-40l-38 -180q-7 -32 8.5 -41.5t72.5 -9.5l-17 -82h-331l18 82q54 2 72 10.5t25 40.5l93 438q5 27 -8.5 33t-70.5 6l18 81h340q188 0 188 -145
q0 -81 -56 -131.5t-125 -62.5l-2 -10q44 -9 71.5 -40.5t27.5 -86.5q0 -17 -3 -35q-8 -54 -8 -72q0 -31 18 -31q16 0 25.5 23.5t14.5 86.5q9 0 24 -0.5t23 -0.5q-3 -58 -15 -98t-32 -59.5t-40.5 -27.5t-47.5 -8q-125 0 -125 125q0 19 3 40z" />
    <glyph glyph-name="S" unicode="S" horiz-adv-x="586" 
d="M123 65l-30 -65h-75l54 286h65v-9q0 -90 49 -145t127 -55q46 0 78.5 25t32.5 69q0 37 -31 62.5t-101 55.5q-39 17 -66.5 32.5t-56.5 40.5t-44.5 58.5t-15.5 75.5q0 89 75 147t164 58q104 0 168 -68l34 62h72l-55 -260h-61q-9 93 -47 135.5t-110 42.5q-47 0 -71 -25
t-24 -49q0 -23 10.5 -42t32 -34t41.5 -25.5t51 -24.5q12 -5 18 -8q72 -32 112.5 -75t40.5 -118q0 -91 -75.5 -157.5t-174.5 -66.5q-67 0 -114.5 24t-72.5 53z" />
    <glyph glyph-name="T" unicode="T" horiz-adv-x="644" 
d="M669 417h-62q8 39 8 76q0 55 -23 86.5t-67 31.5h-40l-104 -488q-6 -27 12 -34.5t63 -7.5h15l-17 -81h-352l18 81h9q25 0 36 0.5t28 4t25 13t11 24.5l104 488h-38q-51 0 -95.5 -52.5t-62.5 -141.5h-66l59 274h597z" />
    <glyph glyph-name="U" unicode="U" horiz-adv-x="747" 
d="M828 691l-16 -80q-47 0 -66 -10.5t-25 -35.5q-10 -51 -34 -164.5t-36 -170.5q-27 -113 -103 -177.5t-201 -64.5q-240 0 -240 172q0 32 7 64l72 344q5 28 -5 35.5t-62 7.5q3 13 9 40t8 40h313q-2 -13 -8.5 -40t-8.5 -40q-55 0 -72 -7.5t-23 -35.5q-9 -46 -20.5 -101
t-25.5 -121t-22 -102q-6 -27 -6 -49q0 -56 34 -84t94 -28q80 0 123 38.5t61 123.5q11 54 34.5 162.5t33.5 157.5q4 24 -14.5 35t-71.5 11q3 13 9 40t8 40h254z" />
    <glyph glyph-name="V" unicode="V" horiz-adv-x="708" 
d="M376 215h13l191 318q15 24 15 41q0 37 -63 37q2 13 8.5 40t8.5 40h242q-2 -12 -18 -80q-37 -2 -63 -28t-62 -85l-311 -504h-57l-103 538l-2 12q-3 22 -5.5 31.5t-9 19.5t-17.5 13t-31 3q2 13 8.5 40t8.5 40h291q-3 -13 -9 -40t-8 -40q-77 -1 -77 -45q0 -12 5 -34z" />
    <glyph glyph-name="W" unicode="W" horiz-adv-x="977" 
d="M667 231h14q22 44 69 133.5t69 132.5q30 57 30 79q0 38 -63 35l17 80h257l-17 -81q-39 -1 -65 -26t-61 -87l-269 -503h-83l-38 359l-194 -359h-74l-73 537q-7 46 -23 62t-52 17l18 81h278l-17 -81q-67 -1 -59 -79l33 -300h15l136 244l-6 56q-5 46 -17 62t-45 17l18 81
h265l-17 -81q-42 -2 -54.5 -18.5t-10.5 -60.5z" />
    <glyph glyph-name="X" unicode="X" horiz-adv-x="716" 
d="M659 0h-346l18 82q83 2 83 46q0 14 -12 36l-59 112l-128 -130q-16 -19 -16 -33q0 -31 67 -32l-18 -81h-271l18 81q60 5 144 89l171 171l-98 188h1q-21 48 -40.5 64.5t-65.5 17.5q2 13 8.5 40t8.5 40h332q-2 -13 -8 -40t-9 -40q-70 -1 -70 -34q0 -15 14 -41h-1l47 -96
l99 100q30 32 30 45q0 25 -60 26q2 13 8 40t9 40h282q-2 -13 -8.5 -40t-8.5 -40q-33 0 -66 -14.5t-47 -25.5t-40 -33q-6 -6 -8 -7l-156 -154q17 -34 51 -103.5t51 -102.5q25 -50 46 -69.5t65 -20.5z" />
    <glyph glyph-name="Y" unicode="Y" horiz-adv-x="684" 
d="M750 611q-57 -1 -121 -81l-179 -230l-28 -130q-6 -27 -6 -44q0 -29 17 -37t62 -8l-17 -81h-325l18 81q56 0 72 14t30 75l27 131l-88 219l-5 11q-15 35 -23.5 48t-25 22.5t-45.5 9.5q3 13 8.5 40t8.5 40h323q-3 -13 -8.5 -40t-8.5 -40q-45 0 -62.5 -8t-17.5 -29
q0 -9 8 -35l55 -159q16 21 36 48.5l44 60.5t36 49q18 21 18 38q0 32 -54 35q3 13 9 40t8 40h251z" />
    <glyph glyph-name="Z" unicode="Z" horiz-adv-x="636" 
d="M-11 0l10 46l500 558l-2 7h-124q-61 0 -118 -61.5t-80 -141.5h-76q11 48 35 141.5t35 141.5h564l-9 -44l-505 -559l2 -7h160q56 0 112.5 63t90.5 160h77l-94 -304h-578z" />
    <glyph glyph-name="bracketleft" unicode="[" horiz-adv-x="335" 
d="M426 737l-13 -60q-21 -4 -72 -4q-46 0 -68 7l-193 -853q28 6 75 6q45 0 73 -3l-15 -64q-62 6 -130 6q-79 0 -123 -5l216 969q45 -5 133 -5q77 0 117 6z" />
    <glyph glyph-name="backslash" unicode="\" horiz-adv-x="419" 
d="M265 -116l-154 848h92q24 -138 75.5 -420t77.5 -428h-91z" />
    <glyph glyph-name="bracketright" unicode="]" horiz-adv-x="335" 
d="M-73 -234l13 60q28 4 72 4q42 0 68 -6l193 852q-33 -7 -75 -7q-35 0 -73 4l15 64q62 -6 130 -6q79 0 123 5l-216 -970q-62 5 -133 5q-83 0 -117 -5z" />
    <glyph glyph-name="asciicircum" unicode="^" horiz-adv-x="544" 
d="M286 691l221 -377l-78 -46l-152 273h-8l-155 -273l-77 46l222 377h27z" />
    <glyph glyph-name="underscore" unicode="_" horiz-adv-x="604" 
d="M-79 -195h603v-69h-603v69z" />
    <glyph glyph-name="grave" unicode="`" horiz-adv-x="500" 
d="M310 507v-16h-64l-137 151v18h115q14 -25 43.5 -76.5t43.5 -77.5z" />
    <glyph glyph-name="a" unicode="a" horiz-adv-x="535" 
d="M328 103h-19q-20 -55 -59.5 -85t-83.5 -30q-60 0 -94.5 39t-34.5 108q0 144 70.5 257t160.5 113q60 0 89 -68l35 58h101l-72 -323q-8 -31 -8 -59q0 -36 26 -36q40 0 52 115l41 -5q-11 -98 -39.5 -146t-81.5 -48q-44 0 -65.5 28.5t-17.5 81.5zM204 77q37 0 74 74.5
t62 226.5q-6 17 -23.5 28.5t-38.5 11.5q-40 0 -76 -79t-36 -181q0 -81 38 -81z" />
    <glyph glyph-name="b" unicode="b" horiz-adv-x="501" 
d="M139 37l-8 1q-8 -15 -29 -50h-79l23 116l94 472q4 19 4 37q0 22 -16 32t-57 11l12 76l173 10h39l-23 -109l-58 -236l17 -2q63 110 136 110q47 0 82 -41t35 -116q0 -137 -73.5 -248.5t-177.5 -111.5q-63 0 -94 49zM354 360q0 56 -33 56q-18 0 -40 -22.5t-55 -93
t-63 -181.5q3 -23 20 -37.5t47 -14.5q45 0 84.5 77.5t39.5 215.5z" />
    <glyph glyph-name="c" unicode="c" horiz-adv-x="409" 
d="M273 418q-39 0 -73 -69.5t-34 -190.5q0 -83 61 -83q27 0 55.5 30t48.5 74q7 -4 52 -25q-82 -166 -199 -166q-63 0 -105 44.5t-42 128.5q0 141 77 242.5t169 101.5q50 0 84.5 -31t34.5 -85q0 -75 -83 -97q0 4 -0.5 10t-0.5 9q-1 27 -2.5 42.5t-5.5 32.5t-13.5 24.5
t-23.5 7.5z" />
    <glyph glyph-name="d" unicode="d" horiz-adv-x="542" 
d="M166 169q0 -54 10 -72.5t32 -18.5q39 0 81.5 79t66.5 221q-7 16 -22 27.5t-35 11.5q-47 0 -90 -78t-43 -170zM337 107l-18 1q-60 -120 -160 -120q-56 0 -89 37.5t-33 115.5q0 146 76.5 255t180.5 109q46 0 71 -38h14l22 124q6 35 -11 50t-58 16l12 75l177 10h35
q-6 -28 -19.5 -87t-18.5 -82q-26 -110 -59 -280l-32 -154q-5 -28 3.5 -45t22.5 -17q17 0 28.5 32t14.5 86l44 -3q-4 -93 -39 -146t-90 -53q-44 0 -61 26.5t-13 87.5z" />
    <glyph glyph-name="e" unicode="e" horiz-adv-x="425" 
d="M425 389q0 -70 -67.5 -124t-184.5 -105q-8 -92 73 -92q72 0 129 110l43 -23q-86 -167 -211 -167q-169 0 -169 187q0 141 75.5 235.5t173.5 94.5q59 0 98.5 -31.5t39.5 -84.5zM307 384q0 19 -8.5 30t-22.5 11q-39 0 -70 -62.5t-34 -145.5q135 75 135 167z" />
    <glyph glyph-name="f" unicode="f" horiz-adv-x="342" 
d="M48 388l13 85h75l8 91q9 85 59.5 136.5t114.5 51.5q66 0 105 -33.5t39 -81.5q0 -38 -26.5 -63.5t-67.5 -27.5q-8 136 -44 136q-46 0 -53 -129l-8 -80h98l-12 -85h-96q-24 -183 -54.5 -308.5t-65 -190t-67.5 -90.5t-72 -26q-41 0 -67 19t-26 60q0 36 21.5 61.5t54.5 26.5
l33 -107q71 81 117 555h-79z" />
    <glyph glyph-name="g" unicode="g" horiz-adv-x="455" 
d="M256 505q66 0 115 -36q10 4 33.5 17t30.5 16h60l-20 -83h-67q12 -27 12 -57q0 -83 -48 -131t-114 -60q-65 -12 -93 -51l46 -14q119 -35 166.5 -67t47.5 -83q0 -73 -71.5 -128t-173.5 -55q-82 0 -139 30.5t-57 87.5q0 41 30 69.5t87 53.5v12q-42 35 -42 84l-1 -1
q23 44 82 77v12q-75 33 -75 124q0 70 56 126.5t135 56.5zM318 -80q0 29 -51 46l-97 28q-40 -19 -61.5 -44.5t-21.5 -48.5q0 -32 28.5 -48t69.5 -16q59 0 96 23.5t37 59.5zM303 348q0 79 -53 79q-30 0 -48 -28t-18 -79q0 -42 13.5 -61.5t44.5 -19.5q24 0 42.5 28.5t18.5 80.5
z" />
    <glyph glyph-name="h" unicode="h" horiz-adv-x="539" 
d="M159 17l-27 -17h-99l119 592q7 37 -12 51t-62 15l14 75l178 10h36l-45 -191l-39 -169l17 -12q27 56 69 95t92 39q74 0 74 -111q0 -64 -29 -160q-28 -86 -28 -124q0 -33 21 -33q47 0 57 114l37 -5q-9 -89 -44 -141t-94 -52q-47 0 -73 28.5t-26 84.5q0 38 15 95
q48 162 37 199q-40 0 -85 -68.5t-68 -138.5z" />
    <glyph glyph-name="i" unicode="i" horiz-adv-x="320" 
d="M265 373l-63 -266q-5 -27 19 -27q33 0 54 106q8 -1 21 -2t21 -2q-19 -97 -51 -143t-85 -46q-50 0 -76.5 28.5t-26.5 74.5q0 19 6 40l64 229q10 43 -10 43q-36 0 -73 -121q-9 1 -21.5 3.5t-18.5 3.5q41 211 159 211q44 0 65 -25t21 -66q0 -19 -5 -41zM159 666
q0 35 21 58.5t53 23.5t53 -23.5t21 -58.5q0 -33 -21 -56t-53 -23t-53 23t-21 56z" />
    <glyph glyph-name="j" unicode="j" horiz-adv-x="318" 
d="M8 -53l33 -118q23 7 36 38.5t24 111.5l69 376q5 23 3.5 34.5t-4.5 15t-9 3.5q-18 0 -35.5 -31t-26.5 -93q-12 3 -47 9q23 111 58.5 161.5t98.5 50.5q45 0 66.5 -28.5t21.5 -73.5q0 -11 -2 -29l-73 -395q-20 -91 -69 -148t-120 -58q-45 0 -79 21t-34 63q0 31 23 57.5
t66 32.5zM180 666q0 35 21 58.5t53 23.5t53.5 -23.5t21.5 -58.5q0 -33 -21.5 -56t-53.5 -23t-53 23t-21 56z" />
    <glyph glyph-name="k" unicode="k" horiz-adv-x="513" 
d="M160 29l-45 -29h-79l110 576q3 16 3 30q0 26 -14.5 39t-51.5 12l12 77l142 9h64l-42 -183l-39 -184l11 -9q96 138 181 138q45 0 69 -22t24 -56q0 -36 -11.5 -64t-38.5 -51.5t-57.5 -41.5t-81.5 -42v-6q24 -14 55 -77h-1q9 -19 15 -28.5t14.5 -18t16.5 -8.5q20 0 36 25.5
t19 64.5l41 -4q-18 -89 -53.5 -136t-82.5 -47q-21 0 -38 7.5t-31 25.5t-21.5 30t-20.5 36q-25 48 -44 65l13 74q70 41 104 78.5t34 78.5q0 20 -20 20q-23 0 -64 -42.5t-84 -112.5z" />
    <glyph glyph-name="l" unicode="l" horiz-adv-x="289" 
d="M303 742l-141 -613q-13 -52 21 -52q43 0 55 109l45 -3q-14 -96 -48 -143t-98 -47q-98 0 -98 97q0 21 7 54l96 447q5 36 -12 50.5t-56 15.5l14 75l185 10h30z" />
    <glyph glyph-name="m" unicode="m" horiz-adv-x="827" 
d="M443 22l-41 -22h-87q0 1 13 62q11 54 37 163q21 84 21 142q0 24 -4 36q-42 0 -82 -61t-70 -149l-38 -171l-45 -22h-81l69 330q6 30 6 50q0 29 -14 29q-40 0 -60 -123q-9 1 -23 3.5t-21 3.5q34 212 136 212q72 0 72 -77q0 -46 -23 -108h18q38 83 84.5 134t92.5 51
q84 0 84 -96q0 -24 -5 -51h16q74 147 170 147q82 0 82 -105q0 -65 -34 -191q-19 -70 -19 -101q0 -33 27 -33q38 0 54 121l47 -4q-22 -199 -146 -199q-102 0 -102 118q0 47 18 113l12 42q8 30 12.5 46.5t8.5 37t3 33t-6 20.5q-33 0 -74.5 -61.5t-71.5 -155.5l-20 -93z" />
    <glyph glyph-name="n" unicode="n" horiz-adv-x="572" 
d="M197 30l-52 -30h-79q11 53 35 164.5t35 165.5q9 34 8.5 56t-15.5 22q-9 0 -20 -12.5t-22 -43t-17 -73.5l-46 4q13 99 47 160.5t88 61.5q80 0 80 -92q0 -36 -8 -71h19q30 78 74.5 120.5t95.5 42.5q87 0 87 -102q0 -69 -37 -194q-23 -84 -23 -105q0 -27 27 -27q39 0 52 115
q7 0 21.5 -3t21.5 -3q-9 -89 -40.5 -141t-98.5 -52q-42 0 -73 26.5t-31 85.5q0 33 11 73l7 26v-1q46 158 38 199q-39 0 -84.5 -72t-67.5 -143z" />
    <glyph glyph-name="o" unicode="o" horiz-adv-x="470" 
d="M456 309q0 -132 -71.5 -226.5t-177.5 -94.5q-81 0 -127.5 46t-46.5 132q0 149 78.5 244t173.5 95q85 0 128 -52t43 -144zM220 72q36 0 62 48t36.5 107.5t10.5 116.5q0 78 -52 78q-49 0 -82 -84t-33 -187q0 -79 58 -79z" />
    <glyph glyph-name="p" unicode="p" horiz-adv-x="529" 
d="M383 353q0 60 -31 60q-18 0 -43.5 -33.5t-54.5 -107.5t-46 -169q4 -11 19.5 -19.5t35.5 -8.5q43 0 81.5 80t38.5 198zM150 -197l-58 -30h-72l124 603q8 41 -14 41q-37 0 -59 -136l-47 2q22 121 55.5 171.5t81.5 50.5q35 0 51.5 -17t16.5 -55q0 -25 -8 -62h21
q62 134 154 134q52 0 84 -41.5t32 -117.5q0 -86 -30.5 -167.5t-87.5 -136t-125 -54.5q-23 0 -44 12t-30 28z" />
    <glyph glyph-name="q" unicode="q" horiz-adv-x="494" 
d="M170 161q0 -78 43 -78q20 0 44 26.5t52.5 97.5t45.5 174q-4 16 -21 26t-39 10q-46 0 -85.5 -76t-39.5 -180zM373 -191l-56 -36h-69l53 284h-16q-42 -69 -115 -69q-60 0 -94.5 40t-34.5 107q0 143 78 256.5t176 113.5q54 0 81 -48h10l36 38h71l-9 -57t-8 -57z" />
    <glyph glyph-name="r" unicode="r" horiz-adv-x="424" 
d="M204 32l-49 -32h-85l63 348q9 57 -10 57q-18 0 -32.5 -34.5t-19.5 -83.5q-8 1 -22.5 3t-20.5 2q6 90 42 151.5t91 61.5q27 0 39 -16.5t12 -53.5q0 -43 -15 -112l30 -2q22 95 54.5 139.5t83.5 44.5q35 0 54 -24.5t19 -68.5q0 -49 -25.5 -81t-68.5 -34l-12 96
q-27 0 -56.5 -89.5t-71.5 -271.5z" />
    <glyph glyph-name="s" unicode="s" horiz-adv-x="385" 
d="M24 82q0 40 23.5 66t63.5 28q0 -104 64 -104q20 0 33 11t13 30q0 30 -53 91q-5 5 -7 8q-74 80 -76 140q0 63 46 108t122 45q51 0 91 -29.5t40 -71.5q0 -39 -22.5 -62t-63.5 -24q1 8 1 22q0 39 -15 60.5t-41 21.5q-42 0 -42 -46q0 -18 10 -37.5t21 -32.5t31 -35
q23 -25 35.5 -40.5t26 -42.5t14.5 -52q0 -65 -50 -106.5t-124 -41.5q-64 0 -102.5 24.5t-38.5 69.5zM111 178l5 -2h-5v2z" />
    <glyph glyph-name="t" unicode="t" horiz-adv-x="336" 
d="M59 473h73l20 95l73 77h70l-38 -172h101l-16 -85h-104l-49 -229q-8 -32 -8 -53q0 -29 22 -29q23 0 41 33t25 88q9 0 24 -0.5t24 -0.5q-32 -204 -148 -204q-114 0 -114 107q0 26 8 56l50 232h-69z" />
    <glyph glyph-name="u" unicode="u" horiz-adv-x="565" 
d="M351 113l-16 3q-60 -128 -152 -128q-49 0 -72.5 27.5t-23.5 85.5q0 56 25 149q14 48 20.5 77t9 47t-0.5 24t-11 6q-18 0 -34 -33t-25 -87q-10 2 -25 5.5t-22 4.5q21 105 56 158t91 53q81 0 81 -102q0 -49 -18 -123q-30 -123 -30 -164q0 -27 17 -46q23 0 48 32t38 59.5
t33 74.5l9 45q41 185 48 214h123l-81 -383q-5 -35 22 -35q21 0 38 31.5t24 89.5l38 -4q-9 -93 -42 -147t-89 -54q-82 0 -82 84q0 18 3 36z" />
    <glyph glyph-name="v" unicode="v" horiz-adv-x="490" 
d="M267 425l-26 -266q-2 -25 15 -35q60 36 95.5 97t35.5 141q0 52 -12 93v-1q-8 34 5 57l86 14q23 -4 29 -52q7 -155 -98 -298t-258 -187q-29 2 -26 39l27 353l-7 15q-37 7 -49 -8t-18 -79q-8 1 -21 3t-18 2q9 94 34.5 136.5t97.5 42.5q30 0 66 -6l43 -62z" />
    <glyph glyph-name="w" unicode="w" horiz-adv-x="735" 
d="M492 476l-25 -320q0 -27 15 -35q60 36 96 96t36 140q0 52 -12 93v-1q-7 33 4 56l83 20q26 -5 32 -62q5 -99 -42 -198.5t-132.5 -174t-188.5 -102.5q-29 2 -26 39l8 113q-98 -116 -205 -152q-28 2 -25 39l28 353l-7 16q-36 5 -48 -9.5t-17 -78.5l-21 3t-19 2
q9 94 33.5 136.5t94.5 42.5q29 0 65 -6l43 -62l-1 1l-21 -264q0 -28 15 -36q59 40 91 101l18 248q0 8 84 8q42 0 44 -6z" />
    <glyph glyph-name="x" unicode="x" horiz-adv-x="513" 
d="M192 505q42 0 69.5 -26t35.5 -69l10 -61l62 98q35 58 79 58q30 0 48.5 -20t18.5 -55q0 -37 -17 -59.5t-43 -28.5l-30 97l-104 -165l23 -133q10 -55 37 -55q21 0 35.5 36t18.5 89l43 -4q-15 -112 -47.5 -163t-90.5 -51q-32 0 -61.5 23.5t-36.5 76.5l-12 70l-78 -125
q-27 -45 -64 -45q-31 0 -51.5 17t-20.5 46q0 28 16.5 50.5t45.5 33.5l29 -83l110 178l-21 126q-7 49 -33 49q-37 0 -59 -108l-47 2q20 109 53.5 155t81.5 46z" />
    <glyph glyph-name="y" unicode="y" horiz-adv-x="514" 
d="M317 59l-16 3q-57 -74 -117 -74q-95 0 -95 114q0 47 15 117q6 28 17 68q22 93 18 111q-4 11 -14 11q-18 0 -34 -34.5t-25 -90.5l-44 2q21 109 54.5 164t91.5 55q87 0 87 -98q0 -41 -20 -127q-31 -133 -31 -171q0 -27 12 -39q30 0 67.5 50t62.5 127q3 9 26 141
q16 91 19 107h126q-17 -84 -51.5 -244t-38.5 -181v1q-20 -74 -46.5 -129t-53 -86.5t-59 -51t-59.5 -25.5t-59 -6q-48 0 -84.5 19.5t-36.5 61.5q0 35 27 58.5t70 26.5l34 -108q46 0 85 51.5t72 176.5z" />
    <glyph glyph-name="z" unicode="z" horiz-adv-x="439" 
d="M332 376l-11 9l-74 -32q-37 24 -63 24q-27 0 -46.5 -25.5t-23.5 -58.5q-7 1 -23 3t-23 2q11 98 45 152.5t87 54.5q60 -3 119 -50q52 2 92 48l66 -46l-189 -205l-131 -134l11 -8l72 32q30 -41 72 -41q28 0 46.5 24t24.5 61q8 -1 20.5 -3.5t19.5 -3.5q-34 -191 -145 -191
q-39 0 -66 13t-57 40q-45 -3 -96 -50q-8 6 -26 20.5t-28 23.5l220 227z" />
    <glyph glyph-name="braceleft" unicode="{" horiz-adv-x="435" 
d="M147 291l-4 -19q54 -7 91 -42t37 -85q0 -17 -3 -30q-5 -20 -28 -71q-30 -63 -39 -108q-4 -16 -4 -34q0 -77 127 -78l-12 -53q-121 1 -182.5 34.5t-61.5 93.5q0 21 5 36q11 34 41 90q32 60 39 87q4 16 4 36q0 49 -33 78t-87 30l10 53q68 2 122.5 39.5t61.5 90.5q2 20 2 29
q0 26 -5 54q-6 46 -5 77q10 78 69.5 108t210.5 31l-12 -53q-147 -2 -157 -87q5 -64 5 -164q-11 -60 -69 -100.5t-123 -42.5z" />
    <glyph glyph-name="bar" unicode="|" horiz-adv-x="544" 
d="M230 -231v981h85v-981h-85z" />
    <glyph glyph-name="braceright" unicode="}" horiz-adv-x="435" 
d="M293 218l4 19q-54 7 -91 42t-37 85q0 16 3 30q7 25 27 71q30 63 39 108q4 16 4 34q0 77 -126 78l12 53q121 -1 182 -34.5t61 -93.5q0 -21 -5 -36q-12 -38 -40 -90q-30 -56 -39 -88q-4 -16 -4 -35q0 -49 32.5 -78.5t86.5 -30.5l-10 -52q-67 -2 -122 -39.5t-62 -90.5
q-2 -20 -2 -29q0 -26 5 -54q6 -45 5 -78q-7 -52 -33.5 -81t-84.5 -42.5t-161 -14.5l12 53q64 1 107.5 21.5t49.5 64.5q-5 65 -5 165q11 61 69 101t123 42z" />
    <glyph glyph-name="asciitilde" unicode="~" horiz-adv-x="544" 
d="M471 383l36 -14q-21 -69 -63.5 -123t-80.5 -54q-23 0 -105 39.5t-105 39.5q-15 0 -30 -13.5t-23.5 -27.5t-22.5 -42l-40 16q17 59 61 119t71 60q30 0 107.5 -40t106.5 -40q24 0 50.5 25t37.5 55z" />
    <glyph glyph-name="uni00A0" unicode="&#xa0;" horiz-adv-x="210" 
 />
    <glyph glyph-name="exclamdown" unicode="&#xa1;" horiz-adv-x="359" 
d="M27 -133l15 45q70 205 108 336q10 -2 27 -5.5t26 -4.5q-24 -236 -24 -406q0 -43 -21 -74.5t-63 -31.5q-81 0 -81 75q0 27 13 66zM283 385q0 -33 -22.5 -56.5t-53.5 -23.5q-32 0 -54.5 23.5t-22.5 56.5t22.5 56t54.5 23t54 -23t22 -56z" />
    <glyph glyph-name="cent" unicode="&#xa2;" horiz-adv-x="433" 
d="M362 257l44 -8q-19 -63 -66.5 -91.5t-109.5 -21.5l-20 -95l-32 7l19 96q-59 19 -95.5 66t-36.5 116q0 26 6 56q18 86 77.5 137.5t135.5 51.5q3 15 8.5 45.5t8.5 45.5q6 -1 17 -3t17 -4l-18 -88q59 -14 94.5 -58t25.5 -96q-6 -32 -27.5 -45.5t-48.5 -7.5q-30 5 -34 46
l26 57q-12 28 -49 39l-58 -286q6 -3 15 -3q2 -1 3 -1q33 -6 60.5 7t37.5 38zM192 367q-6 -31 -6 -54q0 -46 29 -80l54 268q-58 -34 -77 -134z" />
    <glyph glyph-name="sterling" unicode="&#xa3;" horiz-adv-x="592" 
d="M122 385h56q-6 33 -6 66q0 23 4 42q19 88 91 136t154 48q90 0 130.5 -39t30.5 -87q-6 -26 -24.5 -41.5t-38.5 -15.5t-33 11t-17.5 22t-11.5 33q-4 14 -7.5 22t-9.5 17.5t-15.5 14t-22.5 4.5q-25 0 -48 -26.5t-34 -78.5q-5 -27 -5 -44q0 -22 9 -71l2 -13h137l-13 -57h-120
q0 -11 -4 -33q-11 -48 -35.5 -88t-53.5 -61l10 -20q25 19 41 19q18 0 32 -8.5t21 -17.5t17 -25q24 -41 53 -41q28 0 32 23q2 14 -10 36q-14 19 -10 41q5 19 23 34.5t41 15.5q57 0 57 -60q0 -14 -3 -29q-13 -60 -63.5 -93t-107.5 -33q-61 0 -112.5 22t-82.5 53
q-65 -75 -125 -75q-21 0 -31.5 12t-7.5 30q8 28 44 51.5t93 38.5q23 38 41 114q4 17 4 44q0 29 -4 50h-80z" />
    <glyph glyph-name="currency" unicode="&#xa4;" horiz-adv-x="628" 
d="M92 271q0 68 41 126v7l-46 44q-11 12 -2 28.5t25.5 22t28.5 -2.5l46 -48q60 42 131 42q75 0 128 -39v1l44 46q13 9 30 1t28.5 -26.5t1.5 -28.5l-46 -43v-7q38 -57 38 -123q0 -68 -42 -129v-7l49 -47q11 -11 1.5 -28t-25.5 -23.5t-28 3.5v1l-51 50q-57 -39 -128 -39
q-70 0 -126 35l-42 -44v-1q-11 -12 -31.5 -4.5t-29.5 23.5t1 29l45 44v7q-41 56 -41 130zM158 270q0 -74 44 -121.5t115 -47.5q66 0 110.5 48t44.5 121q0 74 -44.5 121.5t-111.5 47.5q-73 0 -115.5 -48t-42.5 -121z" />
    <glyph glyph-name="yen" unicode="&#xa5;" horiz-adv-x="610" 
d="M712 635l-9 -48q-62 -1 -120 -73l-182 -228h123l-11 -53h-125l-11 -59h123l-11 -52h-124q-3 -16 -3 -31q0 -28 18 -35.5t67 -7.5l-11 -48h-320l11 48q61 0 78.5 11.5t28.5 62.5h-122l12 52h122l12 59h-122l12 53h119l-97 218q-20 52 -36 67t-57 16l11 48h300l-10 -48
q-78 -2 -78 -34q0 -12 10 -31h-1l70 -165l123 164q16 22 16 36q0 27 -49 30l10 48h233z" />
    <glyph glyph-name="brokenbar" unicode="&#xa6;" horiz-adv-x="544" 
d="M315 402h-85v348h85v-348zM230 117h85v-348h-85v348z" />
    <glyph glyph-name="section" unicode="&#xa7;" horiz-adv-x="499" 
d="M111 371q0 83 32.5 152t80.5 108.5t98 60.5t92 21q45 0 78.5 -19t33.5 -53q0 -24 -18 -41.5t-40 -17.5q-16 0 -27.5 5.5t-16 11t-10.5 16.5q-15 30 -48 30q-27 0 -44.5 -33t-17.5 -65q0 -23 8.5 -52.5t16 -47t25.5 -56.5q21 -45 32 -71t22.5 -70t11.5 -83q0 -78 -33 -144
t-85 -107t-113 -64t-121 -23q-36 0 -62 18t-26 51q0 28 19 49t44 21q12 0 22 -6t13 -10l12 -16q19 -35 55 -35q31 0 48.5 35t17.5 79q0 59 -47 163q-53 118 -53 193zM273 -12l11 -11q60 68 60 162q0 70 -57 201q-48 111 -48 155q0 23 7 43l-14 8q-45 -53 -45 -132
q0 -29 9 -64t16.5 -53.5t25.5 -60.5q50 -108 50 -171q0 -38 -15 -77z" />
    <glyph glyph-name="dieresis" unicode="&#xa8;" horiz-adv-x="500" 
d="M418 577q0 -26 -19.5 -46t-43.5 -20q-26 0 -45.5 20t-19.5 46q0 28 19.5 48.5t45.5 20.5q24 0 43.5 -21t19.5 -48zM237 577q0 -27 -18.5 -46.5t-45.5 -19.5q-25 0 -44.5 20t-19.5 46q0 28 19.5 48.5t44.5 20.5q27 0 45.5 -20.5t18.5 -48.5z" />
    <glyph glyph-name="copyright" unicode="&#xa9;" horiz-adv-x="775" 
d="M48 327q0 138 100.5 238t239.5 100q144 0 241.5 -99t97.5 -239q0 -143 -99.5 -242t-239.5 -99q-142 0 -241 96.5t-99 244.5zM108 324q0 -122 79 -203.5t203 -81.5q123 0 199.5 81t76.5 204q0 125 -79 208t-199 83q-122 0 -201 -83.5t-79 -207.5zM397 183q45 0 70.5 19.5
t39.5 62.5h28v-82q-67 -43 -140 -43q-82 0 -137 50t-55 138q0 84 55 135t137 51q67 0 136 -37v-85h-30q-16 46 -42.5 64t-63.5 18q-51 0 -81.5 -35t-30.5 -110q0 -71 34.5 -108.5t79.5 -37.5z" />
    <glyph glyph-name="ordfeminine" unicode="&#xaa;" horiz-adv-x="428" 
d="M379 315q-72 0 -69 81l-9 1q-18 -39 -50.5 -62.5t-65.5 -23.5q-50 0 -78 30.5t-28 84.5q0 111 56.5 199.5t129.5 88.5q42 0 74 -46l10 16l12 22h87l-58 -251q-7 -32 -7 -46q0 -27 18 -27q31 0 39 90q7 -1 20 -3t18 -2q-16 -152 -99 -152zM214 382q27 0 55.5 59.5
t49.5 171.5q-6 12 -18.5 21.5t-27.5 9.5q-30 0 -57.5 -61t-27.5 -139q0 -62 26 -62z" />
    <glyph glyph-name="guillemotleft" unicode="&#xab;" horiz-adv-x="652" 
d="M105 222l272 234l38 -27l-187 -222l-5 -15l47 -182l-52 -13q-20 33 -59 101t-59 102l7 23zM313 222l272 234l39 -27l-187 -222l-5 -15l46 -182l-52 -13q-20 33 -59 101t-59 102l7 23z" />
    <glyph glyph-name="logicalnot" unicode="&#xac;" horiz-adv-x="544" 
d="M408 52v177h-368v84h457v-261h-89z" />
    <glyph glyph-name="registered" unicode="&#xae;" horiz-adv-x="508" 
d="M130 503q0 88 63 151t151 63q91 0 152.5 -62.5t61.5 -151.5q0 -88 -63 -151t-151 -63q-89 0 -151.5 61t-62.5 153zM174 502q0 -76 48 -125.5t123 -49.5q70 0 119.5 50.5t49.5 124.5q0 77 -49 126.5t-121 49.5q-78 0 -124 -49.5t-46 -126.5zM377 508v-8q14 -6 38 -39.5
t37 -42.5l15 -7v-20h-55q-14 10 -41.5 52t-47.5 50h-13v-75l37 -7v-20h-114v20l27 7v183l-27 7v20h116q29 0 57 -14t28 -48q0 -20 -15.5 -36.5t-41.5 -21.5zM310 601v-82h26q23 0 34.5 13.5t11.5 31.5q0 37 -40 37h-32z" />
    <glyph glyph-name="macron" unicode="&#xaf;" horiz-adv-x="500" 
d="M378 527h-255v75h255v-75z" />
    <glyph glyph-name="degree" unicode="&#xb0;" horiz-adv-x="367" 
d="M86 555q0 63 44.5 108t106.5 45q63 0 108 -45t45 -108q0 -62 -45 -106.5t-108 -44.5q-61 0 -106 45t-45 106zM172 555q0 -31 17.5 -52t46.5 -21q30 0 48 21t18 52q0 32 -18 54t-48 22q-29 0 -46.5 -22t-17.5 -54z" />
    <glyph glyph-name="plusminus" unicode="&#xb1;" horiz-adv-x="620" 
d="M573 307h-220v-191h-86v191h-220v86h220v192h86v-192h220v-86zM573 0h-526v86h526v-86z" />
    <glyph glyph-name="two.sups" unicode="&#xb2;" horiz-adv-x="320" 
d="M215 499l1 -7h87q29 0 45 45h47l-47 -119h-257l-4 45q4 3 13 8.5t11 7.5q215 144 215 229q0 46 -38 46q-31 0 -51 -28l25 -52q-5 -20 -22.5 -32.5t-41.5 -12.5q-52 0 -52 43q0 55 52 93t106 38q58 0 90.5 -23.5t32.5 -66.5q0 -24 -14.5 -49t-33.5 -44.5t-53.5 -44.5
t-58 -39.5t-63.5 -38.5q7 1 11 2z" />
    <glyph glyph-name="three.sups" unicode="&#xb3;" horiz-adv-x="312" 
d="M314 621v-3q33 -7 55.5 -26t22.5 -49q0 -60 -56.5 -95.5t-131.5 -35.5q-50 0 -81.5 18.5t-31.5 52.5q0 26 18.5 43.5t43.5 17.5q19 0 31.5 -11t10.5 -26l1 1l-32 -42q11 -9 39 -9q34 0 61 20.5t27 60.5q0 43 -49 43q-20 0 -51 -10q-1 7 -3.5 19.5t-3.5 19.5
q65 24 97.5 51t32.5 63q0 37 -31 37q-13 0 -38 -14l5 -11l13 -28q-5 -17 -21 -27.5t-37 -10.5q-49 0 -49 37q0 44 47 70t100 26q54 0 85.5 -21t31.5 -58q0 -58 -112 -100l2 -4q2 0 4 1z" />
    <glyph glyph-name="acute" unicode="&#xb4;" horiz-adv-x="500" 
d="M190 491v16l-1 -1q6 12 86 154h116v-18l-138 -151h-63z" />
    <glyph glyph-name="mu" unicode="&#xb5;" horiz-adv-x="544" 
d="M368 27l-8 6q-59 -45 -119 -45q-44 0 -76 27q1 -26 4 -64.5t4.5 -64t1.5 -38.5q0 -60 -56 -60q-50 0 -50 52q0 17 6 120.5t8 159.5q-1 7 -1 21v257l-63 11v38l174 18v-304q0 -56 17 -78.5t54 -22.5q54 0 88 32v306l-63 11v38l174 18v-364q0 -43 21 -43q20 0 34 34l28 -11
q-18 -47 -51 -68.5t-63 -21.5q-26 0 -37.5 7t-26.5 29z" />
    <glyph glyph-name="mu" unicode="&#x3bc;" horiz-adv-x="544" 
d="M368 27l-8 6q-59 -45 -119 -45q-44 0 -76 27q1 -26 4 -64.5t4.5 -64t1.5 -38.5q0 -60 -56 -60q-50 0 -50 52q0 17 6 120.5t8 159.5q-1 7 -1 21v257l-63 11v38l174 18v-304q0 -56 17 -78.5t54 -22.5q54 0 88 32v306l-63 11v38l174 18v-364q0 -43 21 -43q20 0 34 34l28 -11
q-18 -47 -51 -68.5t-63 -21.5q-26 0 -37.5 7t-26.5 29z" />
    <glyph glyph-name="paragraph" unicode="&#xb6;" horiz-adv-x="559" 
d="M642 706l-17 -78h-50l-167 -786h-60l167 786h-65l-167 -786h-61l86 402q-109 0 -166.5 46t-57.5 128q0 28 6 58q23 105 104 167.5t188 62.5h260zM322 308l67 320q-50 0 -93.5 -47t-60.5 -118q-6 -27 -6 -55q0 -46 24 -73t69 -27z" />
    <glyph glyph-name="periodcentered" unicode="&#xb7;" horiz-adv-x="253" 
d="M51 282q0 34 22.5 58t55.5 24q32 0 55.5 -24t23.5 -58t-23 -57.5t-56 -23.5t-55.5 23.5t-22.5 57.5z" />
    <glyph glyph-name="cedilla" unicode="&#xb8;" horiz-adv-x="500" 
d="M182 -244l-8 31q88 18 88 58q0 39 -67 39q-19 0 -27 -1l-3 4l80 129h47l-46 -70q80 0 80 -71q0 -43 -41.5 -75.5t-102.5 -43.5z" />
    <glyph glyph-name="one.sups" unicode="&#xb9;" horiz-adv-x="270" 
d="M151 734l8 42q9 -1 36 -1q49 0 114 20h30l-62 -296q-3 -22 11 -29t50 -7l-9 -45h-237l9 45q66 1 76 36l47 222q-48 2 -73 13z" />
    <glyph glyph-name="ordmasculine" unicode="&#xba;" horiz-adv-x="376" 
d="M416 561q0 -103 -57.5 -176.5t-142.5 -73.5q-66 0 -103.5 36t-37.5 103q0 116 63 190t140 74q69 0 103.5 -40.5t34.5 -112.5zM226 378q40 0 61.5 68.5t21.5 141.5q0 59 -37 59q-39 0 -64 -64.5t-25 -143.5q0 -61 43 -61z" />
    <glyph glyph-name="guillemotright" unicode="&#xbb;" horiz-adv-x="652" 
d="M568 231l-272 -233l-39 26l188 222l5 16l-47 182l52 13l118 -204l-7 -23zM360 231l-272 -233l-39 26l187 222l5 16l-46 182l51 13l119 -204l-7 -23z" />
    <glyph glyph-name="onequarter" unicode="&#xbc;" 
d="M414 100l-1 20l252 256q9 -1 25 -4t24 -4l-47 -225h51l-8 -43h-52l-5 -23q-6 -27 3 -34.5t40 -7.5l-10 -44h-191l9 44q25 1 37 9t18 29q0 4 2 12l4 15h-151zM159 627l9 42q9 -1 35 -1q52 0 114 19h30l-62 -296q-3 -22 11 -29t50 -7l-9 -44h-237l9 44q66 1 76 36l47 223
q-48 2 -73 13zM124 -11l308 371l283 351l39 -31l-295 -350l-296 -373zM496 143h77l21 101l-95 -97h-3v-4z" />
    <glyph glyph-name="onehalf" unicode="&#xbd;" 
d="M562 71l1 -7h87q30 0 45 46h47l-47 -119h-257l-4 44q4 3 13 8.5t11 7.5q33 23 48.5 34t53 40.5t57.5 51t38 51t18 53.5q0 46 -38 46q-31 0 -51 -28l25 -53q-5 -20 -22.5 -32.5t-41.5 -12.5q-52 0 -52 43q0 56 52 93.5t106 37.5q58 0 90.5 -23t32.5 -66q0 -24 -15 -49.5
t-33 -44.5t-54 -45t-57.5 -39.5t-63.5 -38.5q7 1 11 2zM159 627l9 42q9 -1 35 -1q52 0 114 19h30l-62 -296q-3 -22 11 -29t50 -7l-9 -44h-237l9 44q66 1 76 36l47 223q-48 2 -73 13zM124 -11l308 371l283 351l39 -31l-295 -350l-296 -373z" />
    <glyph glyph-name="threequarters" unicode="&#xbe;" 
d="M287 513v-3q34 -7 56 -25.5t22 -48.5q0 -61 -56.5 -96t-131.5 -35q-50 0 -82 18t-32 52q0 26 19 44t44 18q19 0 31.5 -11.5t10.5 -26.5l1 1l-32 -42q11 -9 39 -9q34 0 61 20.5t27 60.5q0 44 -49 44q-20 0 -51 -10q-1 7 -3.5 19.5t-3.5 18.5q65 24 97.5 51t32.5 64t-32 37
q-14 0 -37 -14l5 -11q2 -4 6 -14.5t6 -14.5q-4 -17 -19.5 -27.5t-37.5 -10.5q-49 0 -49 37q0 45 47 70.5t100 25.5q54 0 85.5 -21t31.5 -57q0 -59 -112 -101l2 -4q2 0 4 1zM414 100l-1 20l252 256q9 -1 25 -4t24 -4l-47 -225h51l-8 -43h-52l-5 -23q-6 -27 3 -34.5t40 -7.5
l-10 -44h-191l9 44q25 1 37 9t18 29q0 4 2 12l4 15h-151zM124 -11l308 371l283 351l39 -31l-295 -350l-296 -373zM496 143h77l21 101l-95 -97h-3v-4z" />
    <glyph glyph-name="questiondown" unicode="&#xbf;" horiz-adv-x="473" 
d="M22 -52q0 28 11 52t37.5 48.5t42.5 36t52 36.5q71 48 87 68q14 18 14 35q0 36 -42 36q-46 0 -56 -64l-45 14q36 130 148 130q50 0 89 -26t39 -77q0 -32 -22 -63.5t-44 -49.5t-65 -49q-32 -22 -46 -33t-34.5 -29.5t-29 -35.5t-8.5 -36q0 -20 13.5 -33t37.5 -13q37 0 64 37
t28 109q26 5 63 10q6 -107 -40 -172t-130 -65q-77 0 -120.5 38.5t-43.5 95.5zM416 471q0 -38 -22 -58.5t-53 -20.5t-53.5 21t-22.5 58q0 32 22 54.5t54 22.5q33 0 54 -22t21 -55z" />
    <glyph glyph-name="Agrave" unicode="&#xc0;" horiz-adv-x="720" 
d="M457 123l-11 65h-228l-36 -62q-12 -24 2.5 -34t62.5 -11l-17 -81h-253l18 81q33 1 54 15t43 48l335 557h62l113 -563q9 -39 22 -48t58 -9l-17 -81h-310l18 81h22q43 0 55 8t7 34zM382 474l-119 -207h169l-36 207h-14zM516 766v-15h-63l-103 116v18h115q9 -21 26.5 -62
t24.5 -57z" />
    <glyph glyph-name="Aacute" unicode="&#xc1;" horiz-adv-x="720" 
d="M457 123l-11 65h-228l-36 -62q-12 -24 2.5 -34t62.5 -11l-17 -81h-253l18 81q33 1 54 15t43 48l335 557h62l113 -563q9 -39 22 -48t58 -9l-17 -81h-310l18 81h22q43 0 55 8t7 34zM382 474l-119 -207h169l-36 207h-14zM405 751v16l-1 -1l86 119h117v-18q-16 -14 -64 -54
t-74 -62h-64z" />
    <glyph glyph-name="Acircumflex" unicode="&#xc2;" horiz-adv-x="720" 
d="M457 123l-11 65h-228l-36 -62q-12 -24 2.5 -34t62.5 -11l-17 -81h-253l18 81q33 1 54 15t43 48l335 557h62l113 -563q9 -39 22 -48t58 -9l-17 -81h-310l18 81h22q43 0 55 8t7 34zM382 474l-119 -207h169l-36 207h-14zM606 767v-16h-30l-83 60l-131 -60h-38v15l162 119h52
l69 -119z" />
    <glyph glyph-name="Atilde" unicode="&#xc3;" horiz-adv-x="720" 
d="M457 123l-11 65h-228l-36 -62q-12 -24 2.5 -34t62.5 -11l-17 -81h-253l18 81q33 1 54 15t43 48l335 557h62l113 -563q9 -39 22 -48t58 -9l-17 -81h-310l18 81h22q43 0 55 8t7 34zM382 474l-119 -207h169l-36 207h-14zM597 909l28 -8q-14 -53 -41.5 -94t-51.5 -41
q-13 0 -69 31q-54 30 -74 30q-18 0 -28.5 -15t-23.5 -48l-30 10q12 45 40 90.5t44 45.5q18 0 72 -31h-1q50 -30 74 -30q17 0 35.5 19.5t25.5 40.5z" />
    <glyph glyph-name="Adieresis" unicode="&#xc4;" horiz-adv-x="720" 
d="M457 123l-11 65h-228l-36 -62q-12 -24 2.5 -34t62.5 -11l-17 -81h-253l18 81q33 1 54 15t43 48l335 557h62l113 -563q9 -39 22 -48t58 -9l-17 -81h-310l18 81h22q43 0 55 8t7 34zM382 474l-119 -207h169l-36 207h-14zM634 838q0 -26 -20 -46.5t-44 -20.5
q-26 0 -45.5 20.5t-19.5 46.5q0 27 19.5 47.5t45.5 20.5q24 0 44 -21t20 -47zM453 838q0 -27 -19 -47t-46 -20q-25 0 -44.5 20.5t-19.5 46.5q0 27 19.5 47.5t44.5 20.5q27 0 46 -20.5t19 -47.5z" />
    <glyph glyph-name="Aring" unicode="&#xc5;" horiz-adv-x="720" 
d="M457 123l-11 65h-228l-36 -62q-12 -24 2.5 -34t62.5 -11l-17 -81h-253l18 81q33 1 54 15t43 48l335 557h62l113 -563q9 -39 22 -48t58 -9l-17 -81h-310l18 81h22q43 0 55 8t7 34zM376 848q0 43 29 73t70 30t70 -30t29 -73q0 -42 -29 -72t-70 -30t-70 30t-29 72zM382 474
l-119 -207h169l-36 207h-14zM422 848q0 -22 14.5 -37t37.5 -15q24 0 39 15t15 37q0 23 -15 38.5t-39 15.5q-23 0 -37.5 -15.5t-14.5 -38.5z" />
    <glyph glyph-name="AE" unicode="&#xc6;" horiz-adv-x="1024" 
d="M1004 254l-67 -254h-578l18 81q53 0 71 9.5t27 47.5l10 50h-244l-61 -62q-28 -30 23 -41l42 -4l-17 -81h-253l18 82q28 6 48 19.5t49 42.5l455 460q-15 7 -56 7q3 13 9 40t8 40h563q-6 -39 -19 -114.5t-19 -113.5h-64q1 11 1 30q0 67 -25 92.5t-87 25.5h-130l-50 -239h56
q75 0 102 125h59l-65 -310h-60q9 33 9 62q0 31 -16 42.5t-51 11.5h-50l-45 -222h153q66 0 106.5 44.5t68.5 128.5h61zM526 474l-206 -207h182l44 207h-20z" />
    <glyph glyph-name="Ccedilla" unicode="&#xc7;" horiz-adv-x="684" 
d="M267 -236l-8 31q87 17 87 58q0 39 -66 39q-19 0 -28 -1l-3 4l59 95q-114 10 -177.5 80.5t-63.5 185.5q0 118 58 220.5t157.5 163.5t214.5 61q43 0 82 -15t52 -35l11 1l35 38h38l-52 -263h-52q0 77 -30 130t-93 53q-74 0 -134 -53.5t-91 -133.5t-31 -166q0 -85 39.5 -131
t115.5 -46q65 0 116.5 39t79.5 113h60q-37 -112 -116 -175t-175 -68l-21 -35q79 0 79 -71q0 -43 -41 -75.5t-102 -43.5z" />
    <glyph glyph-name="Egrave" unicode="&#xc8;" horiz-adv-x="661" 
d="M640 254l-67 -254h-578l18 81q52 0 70.5 9.5t27.5 47.5q14 69 44.5 210t44.5 209q6 32 -10 43t-65 11q2 13 8 40t9 40h563q-6 -39 -19 -114.5t-19 -113.5h-65q2 11 2 30q0 67 -25 92.5t-87 25.5h-130l-50 -239h56q75 0 102 125h59l-65 -310h-60q8 35 8 62
q0 31 -15.5 42.5t-50.5 11.5h-50l-46 -222h154q66 0 106.5 44.5t68.5 128.5h61zM499 766v-15h-63l-103 116v18h115q9 -21 26.5 -62t24.5 -57z" />
    <glyph glyph-name="Eacute" unicode="&#xc9;" horiz-adv-x="661" 
d="M640 254l-67 -254h-578l18 81q52 0 70.5 9.5t27.5 47.5q14 69 44.5 210t44.5 209q6 32 -10 43t-65 11q2 13 8 40t9 40h563q-6 -39 -19 -114.5t-19 -113.5h-65q2 11 2 30q0 67 -25 92.5t-87 25.5h-130l-50 -239h56q75 0 102 125h59l-65 -310h-60q8 35 8 62
q0 31 -15.5 42.5t-50.5 11.5h-50l-46 -222h154q66 0 106.5 44.5t68.5 128.5h61zM388 751v16l-1 -1l86 119h116v-18q-23 -19 -69 -57.5t-68 -58.5h-64z" />
    <glyph glyph-name="Ecircumflex" unicode="&#xca;" horiz-adv-x="661" 
d="M640 254l-67 -254h-578l18 81q52 0 70.5 9.5t27.5 47.5q14 69 44.5 210t44.5 209q6 32 -10 43t-65 11q2 13 8 40t9 40h563q-6 -39 -19 -114.5t-19 -113.5h-65q2 11 2 30q0 67 -25 92.5t-87 25.5h-130l-50 -239h56q75 0 102 125h59l-65 -310h-60q8 35 8 62
q0 31 -15.5 42.5t-50.5 11.5h-50l-46 -222h154q66 0 106.5 44.5t68.5 128.5h61zM588 767v-16h-29l-83 60l-131 -60h-38v15l162 119h52l68 -119z" />
    <glyph glyph-name="Edieresis" unicode="&#xcb;" horiz-adv-x="661" 
d="M640 254l-67 -254h-578l18 81q52 0 70.5 9.5t27.5 47.5q14 69 44.5 210t44.5 209q6 32 -10 43t-65 11q2 13 8 40t9 40h563q-6 -39 -19 -114.5t-19 -113.5h-65q2 11 2 30q0 67 -25 92.5t-87 25.5h-130l-50 -239h56q75 0 102 125h59l-65 -310h-60q8 35 8 62
q0 31 -15.5 42.5t-50.5 11.5h-50l-46 -222h154q66 0 106.5 44.5t68.5 128.5h61zM617 838q0 -26 -20 -46.5t-44 -20.5q-26 0 -45.5 20.5t-19.5 46.5q0 27 19.5 47.5t45.5 20.5q24 0 44 -21t20 -47zM436 838q0 -27 -19 -47t-46 -20q-25 0 -44.5 20.5t-19.5 46.5
q0 27 19.5 47.5t44.5 20.5q27 0 46 -20.5t19 -47.5z" />
    <glyph glyph-name="Igrave" unicode="&#xcc;" horiz-adv-x="379" 
d="M454 691l-17 -82q-55 0 -69.5 -6.5t-21.5 -34.5l-94 -440q-6 -31 6 -39t67 -8l-17 -81h-317l18 81q57 0 71.5 8t21.5 39l93 440q7 31 -4 37t-70 6q3 13 9 40t8 40h316zM352 766v-15h-63l-103 116v18h115q9 -21 26.5 -62t24.5 -57z" />
    <glyph glyph-name="Iacute" unicode="&#xcd;" horiz-adv-x="379" 
d="M454 691l-17 -82q-55 0 -69.5 -6.5t-21.5 -34.5l-94 -440q-6 -31 6 -39t67 -8l-17 -81h-317l18 81q57 0 71.5 8t21.5 39l93 440q7 31 -4 37t-70 6q3 13 9 40t8 40h316zM241 751v16l-1 -1l86 119h117v-18q-16 -14 -64 -54t-74 -62h-64z" />
    <glyph glyph-name="Icircumflex" unicode="&#xce;" horiz-adv-x="379" 
d="M454 691l-17 -82q-55 0 -69.5 -6.5t-21.5 -34.5l-94 -440q-6 -31 6 -39t67 -8l-17 -81h-317l18 81q57 0 71.5 8t21.5 39l93 440q7 31 -4 37t-70 6q3 13 9 40t8 40h316zM442 767v-16h-30l-83 60l-131 -60h-38v15l162 119h52l69 -119z" />
    <glyph glyph-name="Idieresis" unicode="&#xcf;" horiz-adv-x="379" 
d="M454 691l-17 -82q-55 0 -69.5 -6.5t-21.5 -34.5l-94 -440q-6 -31 6 -39t67 -8l-17 -81h-317l18 81q57 0 71.5 8t21.5 39l93 440q7 31 -4 37t-70 6q3 13 9 40t8 40h316zM470 838q0 -26 -20 -46.5t-44 -20.5q-26 0 -45.5 20.5t-19.5 46.5q0 27 19.5 47.5t45.5 20.5
q24 0 44 -20.5t20 -47.5zM289 838q0 -27 -19 -47t-46 -20q-25 0 -44.5 20.5t-19.5 46.5q0 27 19.5 47.5t44.5 20.5q27 0 46 -20.5t19 -47.5z" />
    <glyph glyph-name="Eth" unicode="&#xd0;" horiz-adv-x="761" 
d="M757 408q0 -95 -38.5 -174t-100.5 -129t-137 -77.5t-152 -27.5h-334l18 81q57 2 72.5 7.5t21.5 29.5l39 190h-83l12 69h87l42 200q5 22 -8.5 27.5t-61.5 6.5h-9q2 13 8 40t9 40h286q91 0 158 -24.5t102.5 -66.5t52 -89.5t16.5 -102.5zM249 81h71q108 0 189.5 92t81.5 240
q0 91 -46.5 144.5t-146.5 53.5h-37l-49 -234h137l-12 -69h-140z" />
    <glyph glyph-name="Ntilde" unicode="&#xd1;" horiz-adv-x="752" 
d="M268 476h-13q-14 -67 -71 -340q-6 -33 15.5 -44t77.5 -11l-17 -81h-276l18 81q42 1 66.5 12t31.5 43l90 425q-15 25 -31 37t-45 13q3 13 9 40t8 40h194l240 -451h12l69 318q5 27 -19.5 39.5t-87.5 12.5l18 81h277l-17 -81q-77 -1 -88 -52l-120 -566h-80zM600 909l28 -8
q-14 -53 -41.5 -94t-51.5 -41q-13 0 -69 31q-54 30 -74 30q-18 0 -28.5 -15t-23.5 -48l-30 10q12 45 40 90.5t44 45.5q18 0 72 -31h-1q50 -30 74 -30q17 0 35.5 19.5t25.5 40.5z" />
    <glyph glyph-name="Ograve" unicode="&#xd2;" horiz-adv-x="751" 
d="M751 433q0 -96 -36 -180.5t-95 -141.5t-134.5 -90t-153.5 -33q-129 0 -197 71t-68 195q0 96 36.5 181t95.5 142.5t132.5 90.5t148.5 33q125 0 198 -73t73 -195zM352 80q59 0 106 38.5t74.5 98.5t41.5 124.5t14 125.5q0 70 -32 106.5t-91 36.5q-69 0 -124 -55.5
t-83.5 -141.5t-28.5 -182q0 -78 29 -114.5t94 -36.5zM540 766v-15h-63l-103 116v18h115q9 -21 26.5 -62t24.5 -57z" />
    <glyph glyph-name="Oacute" unicode="&#xd3;" horiz-adv-x="751" 
d="M751 433q0 -96 -36 -180.5t-95 -141.5t-134.5 -90t-153.5 -33q-129 0 -197 71t-68 195q0 96 36.5 181t95.5 142.5t132.5 90.5t148.5 33q125 0 198 -73t73 -195zM352 80q59 0 106 38.5t74.5 98.5t41.5 124.5t14 125.5q0 70 -32 106.5t-91 36.5q-69 0 -124 -55.5
t-83.5 -141.5t-28.5 -182q0 -78 29 -114.5t94 -36.5zM429 751v16l-1 -1l86 119h117v-18q-16 -14 -64 -54t-74 -62h-64z" />
    <glyph glyph-name="Ocircumflex" unicode="&#xd4;" horiz-adv-x="751" 
d="M751 433q0 -96 -36 -180.5t-95 -141.5t-134.5 -90t-153.5 -33q-129 0 -197 71t-68 195q0 96 36.5 181t95.5 142.5t132.5 90.5t148.5 33q125 0 198 -73t73 -195zM352 80q59 0 106 38.5t74.5 98.5t41.5 124.5t14 125.5q0 70 -32 106.5t-91 36.5q-69 0 -124 -55.5
t-83.5 -141.5t-28.5 -182q0 -78 29 -114.5t94 -36.5zM630 767v-16h-30l-83 60l-131 -60h-38v15l162 119h52l69 -119z" />
    <glyph glyph-name="Otilde" unicode="&#xd5;" horiz-adv-x="751" 
d="M751 433q0 -96 -36 -180.5t-95 -141.5t-134.5 -90t-153.5 -33q-129 0 -197 71t-68 195q0 96 36.5 181t95.5 142.5t132.5 90.5t148.5 33q125 0 198 -73t73 -195zM352 80q59 0 106 38.5t74.5 98.5t41.5 124.5t14 125.5q0 70 -32 106.5t-91 36.5q-69 0 -124 -55.5
t-83.5 -141.5t-28.5 -182q0 -78 29 -114.5t94 -36.5zM622 909l27 -8q-14 -53 -41.5 -94t-51.5 -41q-13 0 -69 31q-54 30 -74 30q-18 0 -28.5 -15t-23.5 -48l-30 10q12 45 40 90.5t44 45.5q18 0 72 -31h-1q50 -30 74 -30q17 0 36 19.5t26 40.5z" />
    <glyph glyph-name="Odieresis" unicode="&#xd6;" horiz-adv-x="751" 
d="M751 433q0 -96 -36 -180.5t-95 -141.5t-134.5 -90t-153.5 -33q-129 0 -197 71t-68 195q0 96 36.5 181t95.5 142.5t132.5 90.5t148.5 33q125 0 198 -73t73 -195zM352 80q59 0 106 38.5t74.5 98.5t41.5 124.5t14 125.5q0 70 -32 106.5t-91 36.5q-69 0 -124 -55.5
t-83.5 -141.5t-28.5 -182q0 -78 29 -114.5t94 -36.5zM658 838q0 -26 -20 -46.5t-44 -20.5q-26 0 -45.5 20.5t-19.5 46.5q0 27 19.5 47.5t45.5 20.5q24 0 44 -20.5t20 -47.5zM477 838q0 -27 -19 -47t-46 -20q-25 0 -44.5 20.5t-19.5 46.5q0 27 19.5 47.5t44.5 20.5
q27 0 46 -20.5t19 -47.5z" />
    <glyph glyph-name="multiply" unicode="&#xd7;" horiz-adv-x="620" 
d="M485 27l-175 175l-176 -175l-61 61l175 176l-175 175l61 62l176 -176l175 176l62 -62l-176 -175l176 -176z" />
    <glyph glyph-name="Oslash" unicode="&#xd8;" horiz-adv-x="751" 
d="M751 433q0 -96 -36 -180.5t-95 -141.5t-134.5 -90t-153.5 -33q-90 0 -157 38l-62 -70h-79l95 108q-62 71 -62 190q0 96 36.5 181t95.5 142.5t132.5 90.5t148.5 33q93 0 165 -46q9 9 26 29t21 25h79l-82 -93q62 -73 62 -183zM229 231q0 -24 3 -48l332 379q-33 48 -99 48
q-69 0 -124 -55.5t-83.5 -141.5t-28.5 -182zM352 80q59 0 106 38.5t74.5 98.5t41.5 124.5t14 125.5q0 17 -2 31l-331 -378q32 -40 97 -40z" />
    <glyph glyph-name="Ugrave" unicode="&#xd9;" horiz-adv-x="747" 
d="M828 691l-17 -80q-45 -1 -65 -12t-25 -34q-10 -51 -34 -164.5t-36 -170.5q-27 -113 -103 -177.5t-201 -64.5q-240 0 -240 172q0 32 7 64l72 344q5 28 -5 35.5t-62 7.5q3 13 9 40t8 40h313q-2 -13 -8.5 -40t-8.5 -40q-55 0 -72 -7.5t-23 -35.5q-9 -46 -20.5 -101
t-25.5 -121t-22 -102q-6 -27 -6 -49q0 -56 34 -84t94 -28q80 0 123 38.5t61 123.5q11 54 34.5 162.5t33.5 157.5q4 24 -14.5 35t-71.5 11q3 13 9 40t8 40h254zM564 766v-15h-63l-103 116v18h115q9 -21 26.5 -62t24.5 -57z" />
    <glyph glyph-name="Uacute" unicode="&#xda;" horiz-adv-x="747" 
d="M828 691l-16 -80q-47 0 -66 -10.5t-25 -35.5q-10 -51 -34 -164.5t-36 -170.5q-27 -113 -103 -177.5t-201 -64.5q-240 0 -240 172q0 32 7 64l72 344q5 28 -5 35.5t-62 7.5q3 13 9 40t8 40h313q-2 -13 -8.5 -40t-8.5 -40q-55 0 -72 -7.5t-23 -35.5q-9 -46 -20.5 -101
t-25.5 -121t-22 -102q-6 -27 -6 -49q0 -56 34 -84t94 -28q80 0 123 38.5t61 123.5q11 54 34.5 162.5t33.5 157.5q4 24 -14.5 35t-71.5 11q3 13 9 40t8 40h254zM454 751v16l-1 -1l85 119h117v-18q-22 -19 -68.5 -57.5t-69.5 -58.5h-63z" />
    <glyph glyph-name="Ucircumflex" unicode="&#xdb;" horiz-adv-x="747" 
d="M828 691l-16 -80q-47 0 -66 -10.5t-25 -35.5q-10 -51 -34 -164.5t-36 -170.5q-27 -113 -103 -177.5t-201 -64.5q-240 0 -240 172q0 32 7 64l72 344q5 28 -5 35.5t-62 7.5q3 13 9 40t8 40h313q-2 -13 -8.5 -40t-8.5 -40q-55 0 -72 -7.5t-23 -35.5q-9 -46 -20.5 -101
t-25.5 -121t-22 -102q-6 -27 -6 -49q0 -56 34 -84t94 -28q80 0 123 38.5t61 123.5q11 54 34.5 162.5t33.5 157.5q4 24 -14.5 35t-71.5 11q3 13 9 40t8 40h254zM654 767v-16h-29l-84 60l-131 -60h-38v15l162 119h52l69 -119z" />
    <glyph glyph-name="Udieresis" unicode="&#xdc;" horiz-adv-x="747" 
d="M828 691l-17 -80q-45 -1 -65 -12t-25 -34q-10 -51 -34 -164.5t-36 -170.5q-27 -113 -103 -177.5t-201 -64.5q-240 0 -240 172q0 32 7 64l72 344q5 28 -5 35.5t-62 7.5q3 13 9 40t8 40h313q-2 -13 -8.5 -40t-8.5 -40q-55 0 -72 -7.5t-23 -35.5q-9 -46 -20.5 -101
t-25.5 -121t-22 -102q-6 -27 -6 -49q0 -56 34 -84t94 -28q80 0 123 38.5t61 123.5q11 54 34.5 162.5t33.5 157.5q4 24 -14.5 35t-71.5 11q3 13 9 40t8 40h254zM682 838q0 -26 -19.5 -46.5t-43.5 -20.5q-27 0 -46.5 20t-19.5 47t19.5 47.5t46.5 20.5q24 0 43.5 -20.5
t19.5 -47.5zM501 838q0 -27 -18.5 -47t-45.5 -20q-25 0 -45 20.5t-20 46.5q0 27 19.5 47.5t45.5 20.5q27 0 45.5 -20.5t18.5 -47.5z" />
    <glyph glyph-name="Yacute" unicode="&#xdd;" horiz-adv-x="684" 
d="M750 611q-57 -1 -121 -81l-179 -230l-28 -130q-6 -27 -6 -44q0 -29 17 -37t62 -8l-17 -81h-325l18 81q56 0 72 14t30 75l27 131l-88 219l-5 11q-15 35 -23.5 48t-25 22.5t-45.5 9.5q3 13 8.5 40t8.5 40h323q-3 -13 -8.5 -40t-8.5 -40q-45 0 -62.5 -8t-17.5 -29
q0 -9 8 -35l55 -159q16 21 36 48.5l44 60.5t36 49q18 21 18 38q0 32 -54 35q3 13 9 40t8 40h251zM429 751v16l-1 -1l86 119h117v-18q-16 -14 -64 -54t-74 -62h-64z" />
    <glyph glyph-name="Thorn" unicode="&#xde;" horiz-adv-x="623" 
d="M625 392q-1 -64 -29 -114t-73 -77.5t-95.5 -41.5t-102.5 -14h-62q0 -1 -1 -6t-1 -7q-7 -32 7.5 -41.5t67.5 -9.5l-17 -81h-324l18 81q52 0 71 9t26 42l90 426q6 32 -11.5 42t-64.5 10l18 81h323l-17 -81q-50 0 -69.5 -9t-27.5 -43l-1 -7h75q85 0 142.5 -37t57.5 -122z
M374 471h-42l-51 -246h46q59 0 99.5 39t40.5 114q0 93 -93 93z" />
    <glyph glyph-name="germandbls" unicode="&#xdf;" horiz-adv-x="513" 
d="M100 456q6 68 25 121.5t43.5 85.5t55 53t56.5 28.5t51 7.5q74 0 119 -44t45 -101q0 -35 -20 -67.5t-37 -47t-45 -34.5q-32 -21 -32 -31q0 -6 25 -25q20 -15 31.5 -26t31 -33t29 -50t9.5 -61q0 -106 -66.5 -172t-153.5 -67q-52 0 -90 16l20 78q23 -9 48 -9q40 0 72.5 43.5
t32.5 109.5q0 33 -10 62.5t-19 43t-26 33.5q-27 33 -27 52q0 18 32 50q21 20 31.5 32.5t23 39t12.5 56.5q0 36 -14.5 57t-34.5 21q-79 0 -97 -227q-25 -196 -55 -333t-63 -210t-65 -104t-69 -31q-98 0 -98 69q0 44 20 73t51 30q10 -70 47 -98q66 82 111 609z" />
    <glyph glyph-name="agrave" unicode="&#xe0;" horiz-adv-x="535" 
d="M328 103h-19q-20 -55 -59.5 -85t-83.5 -30q-60 0 -94.5 39t-34.5 108q0 144 70.5 257t160.5 113q60 0 89 -68l35 58h101l-72 -323q-8 -31 -8 -59q0 -36 26 -36q40 0 52 115l41 -5q-11 -98 -39.5 -146t-81.5 -48q-44 0 -65.5 28.5t-17.5 81.5zM204 77q37 0 74 74.5
t62 226.5q-6 17 -23.5 28.5t-38.5 11.5q-40 0 -76 -79t-36 -181q0 -81 38 -81zM387 576v-17h-63l-139 152v18h116q12 -22 42 -74t45 -80z" />
    <glyph glyph-name="aacute" unicode="&#xe1;" horiz-adv-x="535" 
d="M328 103h-19q-20 -55 -59.5 -85t-83.5 -30q-60 0 -94.5 39t-34.5 108q0 144 70.5 257t160.5 113q60 0 89 -68l35 58h101l-72 -323q-8 -31 -8 -59q0 -36 26 -36q40 0 52 115l41 -5q-11 -98 -39.5 -146t-81.5 -48q-44 0 -65.5 28.5t-17.5 81.5zM204 77q37 0 74 74.5
t62 226.5q-6 17 -23.5 28.5t-38.5 11.5q-40 0 -76 -79t-36 -181q0 -81 38 -81zM266 559v17l-1 -1q12 23 42 75t44 79h117v-18l-138 -152h-64z" />
    <glyph glyph-name="acircumflex" unicode="&#xe2;" horiz-adv-x="535" 
d="M328 103h-19q-20 -55 -59.5 -85t-83.5 -30q-60 0 -94.5 39t-34.5 108q0 144 70.5 257t160.5 113q60 0 89 -68l35 58h101l-72 -323q-8 -31 -8 -59q0 -36 26 -36q40 0 52 115l41 -5q-11 -98 -39.5 -146t-81.5 -48q-44 0 -65.5 28.5t-17.5 81.5zM204 77q37 0 74 74.5
t62 226.5q-6 17 -23.5 28.5t-38.5 11.5q-40 0 -76 -79t-36 -181q0 -81 38 -81zM447 575v-16h-30l-68 82l-107 -82h-37v17l-1 -1l143 154h50z" />
    <glyph glyph-name="atilde" unicode="&#xe3;" horiz-adv-x="535" 
d="M328 103h-19q-20 -55 -59.5 -85t-83.5 -30q-60 0 -94.5 39t-34.5 108q0 144 70.5 257t160.5 113q60 0 89 -68l35 58h101l-72 -323q-8 -31 -8 -59q0 -36 26 -36q40 0 52 115l41 -5q-11 -98 -39.5 -146t-81.5 -48q-44 0 -65.5 28.5t-17.5 81.5zM204 77q37 0 74 74.5
t62 226.5q-6 17 -23.5 28.5t-38.5 11.5q-40 0 -76 -79t-36 -181q0 -81 38 -81zM459 718l27 -8q-14 -54 -41.5 -94.5t-51.5 -40.5q-15 0 -69 30q-56 30 -74 30t-28.5 -15t-23.5 -47l-31 10q12 44 40.5 90t44.5 46q18 0 72 -32h-1q50 -30 74 -30q17 0 36 19.5t26 41.5z" />
    <glyph glyph-name="adieresis" unicode="&#xe4;" horiz-adv-x="535" 
d="M328 103h-19q-20 -55 -59.5 -85t-83.5 -30q-60 0 -94.5 39t-34.5 108q0 144 70.5 257t160.5 113q60 0 89 -68l35 58h101l-72 -323q-8 -31 -8 -59q0 -36 26 -36q40 0 52 115l41 -5q-11 -98 -39.5 -146t-81.5 -48q-44 0 -65.5 28.5t-17.5 81.5zM204 77q37 0 74 74.5
t62 226.5q-6 17 -23.5 28.5t-38.5 11.5q-40 0 -76 -79t-36 -181q0 -81 38 -81zM313 646q0 -27 -18.5 -46.5t-45.5 -19.5q-25 0 -45 20t-20 46q0 27 20 48t45 21q27 0 45.5 -21t18.5 -48zM495 646q0 -26 -20 -46t-44 -20q-26 0 -45.5 20t-19.5 46q0 27 19.5 48t45.5 21
q24 0 44 -21t20 -48z" />
    <glyph glyph-name="aring" unicode="&#xe5;" horiz-adv-x="535" 
d="M328 103h-19q-20 -55 -59.5 -85t-83.5 -30q-60 0 -94.5 39t-34.5 108q0 144 70.5 257t160.5 113q60 0 89 -68l35 58h101l-72 -323q-8 -31 -8 -59q0 -36 26 -36q40 0 52 115l41 -5q-11 -98 -39.5 -146t-81.5 -48q-44 0 -65.5 28.5t-17.5 81.5zM204 77q37 0 74 74.5
t62 226.5q-6 17 -23.5 28.5t-38.5 11.5q-40 0 -76 -79t-36 -181q0 -81 38 -81zM237 656q0 43 29 73t70 30t70 -30t29 -73q0 -42 -29 -72t-70 -30t-70 30t-29 72zM283 656q0 -22 14.5 -37t37.5 -15q24 0 39 15t15 37q0 23 -15 39t-39 16q-23 0 -37.5 -16t-14.5 -39z" />
    <glyph glyph-name="ae" unicode="&#xe6;" horiz-adv-x="709" 
d="M710 389q0 -70 -67.5 -124t-184.5 -105q-8 -92 72 -92q72 0 129 110l44 -23q-86 -167 -207 -167q-134 0 -165 115h-17q-22 -56 -62.5 -85.5t-86.5 -29.5q-60 0 -94.5 39t-34.5 108q0 144 70.5 257t160.5 113q60 0 89 -68l35 58h51l-12 -48q74 58 142 58q58 0 98 -32
t40 -84zM203 77q37 0 74 74.5t62 226.5q-6 17 -23.5 28.5t-38.5 11.5q-40 0 -76 -79t-36 -181q0 -81 38 -81zM592 384q0 19 -9 30t-23 11q-39 0 -69.5 -62.5t-33.5 -145.5q135 76 135 167z" />
    <glyph glyph-name="ccedilla" unicode="&#xe7;" horiz-adv-x="409" 
d="M128 -240l-8 31q88 18 88 59q0 39 -67 39q-19 0 -27 -1l-3 4l60 97q-59 6 -96.5 50.5t-37.5 121.5q0 141 77 242.5t169 101.5q50 0 84.5 -31t34.5 -85q0 -75 -83 -97q0 4 -0.5 10t-0.5 9q-1 27 -2.5 42.5t-5.5 32.5t-13.5 24.5t-23.5 7.5q-39 0 -73 -69.5t-34 -190.5
q0 -83 61 -83q27 0 55.5 30t48.5 74q7 -4 52 -25q-70 -142 -164 -163l-26 -40q79 0 79 -71q0 -43 -41.5 -76t-102.5 -44z" />
    <glyph glyph-name="egrave" unicode="&#xe8;" horiz-adv-x="425" 
d="M425 389q0 -70 -67.5 -124t-184.5 -105q-8 -92 73 -92q72 0 129 110l43 -23q-86 -167 -211 -167q-169 0 -169 187q0 141 75.5 235.5t173.5 94.5q59 0 98.5 -31.5t39.5 -84.5zM307 384q0 19 -8.5 30t-22.5 11q-39 0 -70 -62.5t-34 -145.5q135 75 135 167zM362 576v-17h-64
l-138 152v18h116q15 -28 44.5 -79.5t42.5 -74.5z" />
    <glyph glyph-name="eacute" unicode="&#xe9;" horiz-adv-x="425" 
d="M424 389q0 -70 -67.5 -124t-184.5 -105q-8 -92 73 -92q72 0 129 110l43 -23q-86 -167 -211 -167q-169 0 -169 187q0 141 75.5 235.5t173.5 94.5q59 0 98.5 -31.5t39.5 -84.5zM306 384q0 19 -8.5 30t-22.5 11q-39 0 -70 -62.5t-34 -145.5q135 75 135 167zM240 559v17
l-1 -1q15 27 44.5 79.5t41.5 74.5h117v-18l-139 -152h-63z" />
    <glyph glyph-name="ecircumflex" unicode="&#xea;" horiz-adv-x="425" 
d="M425 389q0 -70 -67.5 -124t-184.5 -105q-8 -92 73 -92q72 0 129 110l43 -23q-86 -167 -211 -167q-169 0 -169 187q0 141 75.5 235.5t173.5 94.5q59 0 98.5 -31.5t39.5 -84.5zM307 384q0 19 -8.5 30t-22.5 11q-39 0 -70 -62.5t-34 -145.5q135 75 135 167zM421 575v-16h-29
l-68 82l-107 -82h-38v17l-1 -1l144 154h50z" />
    <glyph glyph-name="edieresis" unicode="&#xeb;" horiz-adv-x="425" 
d="M424 389q0 -70 -67.5 -124t-184.5 -105q-8 -92 73 -92q72 0 129 110l43 -23q-86 -167 -211 -167q-169 0 -169 187q0 141 75.5 235.5t173.5 94.5q59 0 98.5 -31.5t39.5 -84.5zM306 384q0 19 -8.5 30t-22.5 11q-39 0 -70 -62.5t-34 -145.5q135 75 135 167zM469 646
q0 -26 -20 -46t-44 -20q-26 0 -45.5 20t-19.5 46q0 27 19.5 48t45.5 21q24 0 44 -21t20 -48zM287 646q0 -27 -18.5 -46.5t-45.5 -19.5q-25 0 -45 20t-20 46q0 27 20 48t45 21q27 0 45.5 -21t18.5 -48z" />
    <glyph glyph-name="igrave" unicode="&#xec;" horiz-adv-x="320" 
d="M265 373l-63 -266q-5 -27 19 -27q33 0 54 106q8 -1 21 -2t21 -2q-19 -97 -51 -143t-85 -46q-50 0 -76.5 28.5t-26.5 74.5q0 19 6 40l64 229q10 43 -10 43q-36 0 -73 -121q-9 1 -21.5 3.5t-18.5 3.5q41 211 159 211q44 0 65 -25t21 -66q0 -19 -5 -41zM270 576v-17h-63
l-138 152v18h115q12 -22 42 -74t45 -80z" />
    <glyph glyph-name="iacute" unicode="&#xed;" horiz-adv-x="320" 
d="M265 373l-63 -266q-5 -27 19 -27q33 0 54 106q8 -1 21 -2t21 -2q-19 -97 -51 -143t-85 -46q-50 0 -76.5 28.5t-26.5 74.5q0 19 6 40l64 229q10 43 -10 43q-36 0 -73 -121q-9 1 -21.5 3.5t-18.5 3.5q41 211 159 211q44 0 65 -25t21 -66q0 -19 -5 -41zM149 559v17l-1 -1
q12 23 42 75t44 79h117v-18l-138 -152h-64z" />
    <glyph glyph-name="icircumflex" unicode="&#xee;" horiz-adv-x="320" 
d="M265 373l-63 -266q-5 -27 19 -27q33 0 54 106q8 -1 21 -2t21 -2q-19 -97 -51 -143t-85 -46q-50 0 -76.5 28.5t-26.5 74.5q0 19 6 40l64 229q10 43 -10 43q-36 0 -73 -121q-9 1 -21.5 3.5t-18.5 3.5q41 211 159 211q44 0 65 -25t21 -66q0 -19 -5 -41zM330 575v-16h-30
l-68 82l-107 -82h-37v17l-1 -1l143 154h50z" />
    <glyph glyph-name="idieresis" unicode="&#xef;" horiz-adv-x="320" 
d="M265 373l-63 -266q-5 -27 19 -27q33 0 54 106q8 -1 21 -2t21 -2q-19 -97 -51 -143t-85 -46q-50 0 -76.5 28.5t-26.5 74.5q0 19 6 40l64 229q10 43 -10 43q-36 0 -73 -121q-9 1 -21.5 3.5t-18.5 3.5q41 211 159 211q44 0 65 -25t21 -66q0 -19 -5 -41zM378 646
q0 -26 -20 -46t-44 -20q-26 0 -45.5 20t-19.5 46q0 27 19.5 48t45.5 21q24 0 44 -21t20 -48zM197 646q0 -27 -19 -46.5t-46 -19.5q-25 0 -44.5 20t-19.5 46q0 27 19.5 48t44.5 21q27 0 46 -21t19 -48z" />
    <glyph glyph-name="eth" unicode="&#xf0;" horiz-adv-x="470" 
d="M152 570l75 49q-37 37 -84 70l34 51q61 -32 114 -79l99 66l32 -42l-91 -62q122 -138 122 -333q0 -53 -15 -105.5t-43 -97t-73.5 -72t-101.5 -27.5q-85 0 -134 50.5t-49 145.5q0 143 70.5 232t163.5 89q9 0 27 -8l6 11q-15 34 -42 71q-10 -8 -78 -52zM324 325q0 92 -57 92
q-50 0 -75.5 -74.5t-25.5 -177.5q0 -85 63 -85q45 0 70 72.5t25 172.5z" />
    <glyph glyph-name="ntilde" unicode="&#xf1;" horiz-adv-x="572" 
d="M197 30l-51 -30h-80q11 53 35 164.5t35 165.5q9 34 8.5 56t-15.5 22q-9 0 -20 -12.5t-22 -43t-17 -73.5l-46 4q13 99 47 160.5t88 61.5q80 0 80 -92q0 -36 -8 -71h19q30 78 74.5 120.5t95.5 42.5q87 0 87 -102q0 -69 -37 -194q-23 -84 -23 -105q0 -27 27 -27q39 0 52 115
q7 0 21.5 -3t21.5 -3q-9 -89 -40.5 -141t-98.5 -52q-42 0 -73 26.5t-31 85.5q0 33 11 73l7 26v-1q46 158 38 199q-39 0 -84.5 -72t-67.5 -143zM472 718l27 -8q-14 -54 -41.5 -94.5t-51.5 -40.5q-15 0 -69 30q-56 30 -74 30t-28.5 -15t-23.5 -47l-31 10q13 44 41.5 90
t43.5 46q18 0 72 -32h-1q50 -30 74 -30q17 0 36 19.5t26 41.5z" />
    <glyph glyph-name="ograve" unicode="&#xf2;" horiz-adv-x="470" 
d="M456 309q0 -132 -71.5 -226.5t-177.5 -94.5q-81 0 -127.5 46t-46.5 132q0 149 78.5 244t173.5 95q85 0 128 -52t43 -144zM220 72q36 0 62 48t36.5 107.5t10.5 116.5q0 78 -52 78q-49 0 -82 -84t-33 -187q0 -79 58 -79zM342 576v-17h-64l-138 152v18h116
q15 -28 44.5 -79.5t42.5 -74.5z" />
    <glyph glyph-name="oacute" unicode="&#xf3;" horiz-adv-x="470" 
d="M456 309q0 -132 -71.5 -226.5t-177.5 -94.5q-81 0 -127.5 46t-46.5 132q0 149 78.5 244t173.5 95q85 0 128 -52t43 -144zM220 72q36 0 62 48t36.5 107.5t10.5 116.5q0 78 -52 78q-49 0 -82 -84t-33 -187q0 -79 58 -79zM221 559v17l-1 -1q12 22 41 74t44 80h117v-18
l-138 -152h-63z" />
    <glyph glyph-name="ocircumflex" unicode="&#xf4;" horiz-adv-x="470" 
d="M456 309q0 -132 -71.5 -226.5t-177.5 -94.5q-81 0 -127.5 46t-46.5 132q0 149 78.5 244t173.5 95q85 0 128 -52t43 -144zM220 72q36 0 62 48t36.5 107.5t10.5 116.5q0 78 -52 78q-49 0 -82 -84t-33 -187q0 -79 58 -79zM401 575v-16h-29l-69 82l-106 -82h-38v17l-1 -1
l143 154h51z" />
    <glyph glyph-name="otilde" unicode="&#xf5;" horiz-adv-x="470" 
d="M456 309q0 -132 -71.5 -226.5t-177.5 -94.5q-81 0 -127.5 46t-46.5 132q0 149 78.5 244t173.5 95q85 0 128 -52t43 -144zM220 72q36 0 62 48t36.5 107.5t10.5 116.5q0 78 -52 78q-49 0 -82 -84t-33 -187q0 -79 58 -79zM413 718l28 -8q-15 -54 -42 -94.5t-51 -40.5
q-16 0 -70 30t-73 30q-18 0 -29 -15t-24 -47l-30 10q12 44 40.5 90t44.5 46q19 0 71 -32h-1q50 -30 75 -30q17 0 35.5 19.5t25.5 41.5z" />
    <glyph glyph-name="odieresis" unicode="&#xf6;" horiz-adv-x="470" 
d="M456 309q0 -132 -71.5 -226.5t-177.5 -94.5q-81 0 -127.5 46t-46.5 132q0 149 78.5 244t173.5 95q85 0 128 -52t43 -144zM220 72q36 0 62 48t36.5 107.5t10.5 116.5q0 78 -52 78q-49 0 -82 -84t-33 -187q0 -79 58 -79zM450 646q0 -26 -20 -46t-44 -20q-26 0 -45.5 20
t-19.5 46q0 27 19.5 48t45.5 21q24 0 44 -21t20 -48zM268 646q0 -27 -18.5 -46.5t-45.5 -19.5q-26 0 -45.5 20t-19.5 46q0 27 20 48t45 21q27 0 45.5 -21t18.5 -48z" />
    <glyph glyph-name="divide" unicode="&#xf7;" horiz-adv-x="620" 
d="M573 221h-526v86h526v-86zM245 429q0 27 18.5 45.5t45.5 18.5q26 0 45 -19t19 -45q0 -27 -18.5 -45.5t-45.5 -18.5q-28 0 -46 18t-18 46zM245 99q0 27 18.5 45.5t45.5 18.5q26 0 45 -19t19 -45q0 -27 -18.5 -45t-45.5 -18q-28 0 -46 17.5t-18 45.5z" />
    <glyph glyph-name="oslash" unicode="&#xf8;" horiz-adv-x="470" 
d="M456 309q0 -132 -71.5 -226.5t-177.5 -94.5q-45 0 -85 17l-14 -21l-14 -21h-64l48 72q-45 48 -45 131q0 149 78.5 244t173.5 95q42 0 85 -18q2 3 7.5 11.5t6.5 10.5h65l-37 -55q44 -53 44 -145zM277 422q-46 0 -77.5 -73t-37.5 -168l8 -1l146 222q-15 20 -39 20zM220 72
q47 0 75 72.5t33 162.5l-8 1l-144 -217q15 -19 44 -19z" />
    <glyph glyph-name="ugrave" unicode="&#xf9;" horiz-adv-x="565" 
d="M351 113l-16 3q-60 -128 -152 -128q-49 0 -72.5 27.5t-23.5 85.5q0 56 25 149q14 48 20.5 77t9 47t-0.5 24t-11 6q-18 0 -34 -33t-25 -87q-10 2 -25 5.5t-22 4.5q21 105 56 158t91 53q81 0 81 -102q0 -49 -18 -123q-30 -123 -30 -164q0 -27 17 -46q23 0 48 32t38 59.5
t33 74.5l9 45q41 185 48 214h123l-81 -383q-5 -35 22 -35q21 0 38 31.5t24 89.5l38 -4q-9 -93 -42 -147t-89 -54q-82 0 -82 84q0 18 3 36zM387 576v-17h-63l-139 152v18h116q12 -22 42 -74t45 -80z" />
    <glyph glyph-name="uacute" unicode="&#xfa;" horiz-adv-x="565" 
d="M351 113l-16 3q-60 -128 -152 -128q-49 0 -72.5 27.5t-23.5 85.5q0 56 25 149q14 48 20.5 77t9 47t-0.5 24t-11 6q-18 0 -34 -33t-25 -87q-10 2 -25 5.5t-22 4.5q21 105 56 158t91 53q81 0 81 -102q0 -49 -18 -123q-30 -123 -30 -164q0 -27 17 -46q23 0 48 32t38 59.5
t33 74.5l9 45q41 185 48 214h123l-81 -383q-5 -35 22 -35q21 0 38 31.5t24 89.5l38 -4q-9 -93 -42 -147t-89 -54q-82 0 -82 84q0 18 3 36zM266 559v17l-1 -1q12 23 42 75t44 79h117v-18l-138 -152h-64z" />
    <glyph glyph-name="ucircumflex" unicode="&#xfb;" horiz-adv-x="565" 
d="M351 113l-16 3q-60 -128 -152 -128q-49 0 -72.5 27.5t-23.5 85.5q0 56 25 149q14 48 20.5 77t9 47t-0.5 24t-11 6q-18 0 -34 -33t-25 -87q-10 2 -25 5.5t-22 4.5q21 105 56 158t91 53q81 0 81 -102q0 -49 -18 -123q-30 -123 -30 -164q0 -27 17 -46q23 0 48 32t38 59.5
t33 74.5l9 45q41 185 48 214h123l-81 -383q-5 -35 22 -35q21 0 38 31.5t24 89.5l38 -4q-9 -93 -42 -147t-89 -54q-82 0 -82 84q0 18 3 36zM447 575v-16h-30l-68 82l-107 -82h-37v17l-1 -1l143 154h50z" />
    <glyph glyph-name="udieresis" unicode="&#xfc;" horiz-adv-x="565" 
d="M351 113l-16 3q-60 -128 -152 -128q-49 0 -72.5 27.5t-23.5 85.5q0 56 25 149q14 48 20.5 77t9 47t-0.5 24t-11 6q-18 0 -34 -33t-25 -87q-10 2 -25 5.5t-22 4.5q21 105 56 158t91 53q81 0 81 -102q0 -49 -18 -123q-30 -123 -30 -164q0 -27 17 -46q23 0 48 32t38 59.5
t33 74.5l9 45q41 185 48 214h123l-81 -383q-5 -35 22 -35q21 0 38 31.5t24 89.5l38 -4q-9 -93 -42 -147t-89 -54q-82 0 -82 84q0 18 3 36zM495 646q0 -26 -20 -46t-44 -20q-26 0 -45.5 20t-19.5 46q0 27 19.5 48t45.5 21q24 0 44 -21t20 -48zM313 646q0 -27 -18.5 -46.5
t-45.5 -19.5q-25 0 -45 20t-20 46q0 27 20 48t45 21q27 0 45.5 -21t18.5 -48z" />
    <glyph glyph-name="yacute" unicode="&#xfd;" horiz-adv-x="514" 
d="M317 59l-16 3q-57 -74 -117 -74q-95 0 -95 114q0 47 15 117q6 28 17 68q22 93 18 111q-4 11 -14 11q-18 0 -34 -34.5t-25 -90.5l-44 2q21 109 54.5 164t91.5 55q87 0 87 -98q0 -41 -20 -127q-31 -133 -31 -171q0 -27 12 -39q30 0 67.5 50t62.5 127q3 9 26 141
q16 91 19 107h126q-17 -84 -51.5 -244t-38.5 -181v1q-20 -74 -46.5 -129t-53 -86.5t-59 -51t-59.5 -25.5t-59 -6q-48 0 -84.5 19.5t-36.5 61.5q0 35 27 58.5t70 26.5l34 -108q46 0 85 51.5t72 176.5zM258 559v17l-1 -1q12 23 42 75t44 79h117v-18l-138 -152h-64z" />
    <glyph glyph-name="thorn" unicode="&#xfe;" horiz-adv-x="529" 
d="M150 -197l-58 -30h-72l87 423l73 385q5 23 5 37q0 24 -16.5 33.5t-62.5 9.5v71l190 10h40l-24 -109l-44 -199l8 -1q52 72 120 72q52 0 84 -41.5t32 -117.5q0 -86 -30.5 -167.5t-87.5 -136t-125 -54.5q-23 0 -44 12t-30 28zM383 353q0 60 -31 60q-18 0 -43.5 -33.5
t-54.5 -107.5t-46 -169q4 -11 19.5 -19.5t35.5 -8.5q43 0 81.5 80t38.5 198z" />
    <glyph glyph-name="ydieresis" unicode="&#xff;" horiz-adv-x="514" 
d="M317 59l-16 3q-57 -74 -117 -74q-95 0 -95 114q0 47 15 117q6 28 17 68q22 93 18 111q-4 11 -14 11q-18 0 -34 -34.5t-25 -90.5l-44 2q21 109 54.5 164t91.5 55q87 0 87 -98q0 -41 -20 -127q-31 -133 -31 -171q0 -27 12 -39q30 0 67.5 50t62.5 127q3 9 26 141
q16 91 19 107h126q-17 -84 -51.5 -244t-38.5 -181v1q-20 -74 -46.5 -129t-53 -86.5t-59 -51t-59.5 -25.5t-59 -6q-48 0 -84.5 19.5t-36.5 61.5q0 35 27 58.5t70 26.5l34 -108q46 0 85 51.5t72 176.5zM487 646q0 -26 -20 -46t-44 -20q-26 0 -45.5 20t-19.5 46q0 27 19.5 48
t45.5 21q24 0 44 -21t20 -48zM305 646q0 -27 -18.5 -46.5t-45.5 -19.5q-25 0 -45 20t-20 46q0 27 20 48t45 21q27 0 45.5 -21t18.5 -48z" />
    <glyph glyph-name="Amacron" unicode="&#x100;" horiz-adv-x="720" 
d="M457 123l-11 65h-228l-36 -62q-12 -24 2.5 -34t62.5 -11l-17 -81h-253l18 81q33 1 54 15t43 48l335 557h62l113 -563q9 -39 22 -48t58 -9l-17 -81h-310l18 81h22q43 0 55 8t7 34zM382 474l-119 -207h169l-36 207h-14zM593 788h-255v75h255v-75z" />
    <glyph glyph-name="amacron" unicode="&#x101;" horiz-adv-x="535" 
d="M328 103h-19q-20 -55 -59.5 -85t-83.5 -30q-60 0 -94.5 39t-34.5 108q0 144 70.5 257t160.5 113q60 0 89 -68l35 58h101l-72 -323q-8 -31 -8 -59q0 -36 26 -36q40 0 52 115l41 -5q-11 -98 -39.5 -146t-81.5 -48q-44 0 -65.5 28.5t-17.5 81.5zM204 77q37 0 74 74.5
t62 226.5q-6 17 -23.5 28.5t-38.5 11.5q-40 0 -76 -79t-36 -181q0 -81 38 -81zM455 596h-256v75h256v-75z" />
    <glyph glyph-name="Abreve" unicode="&#x102;" horiz-adv-x="720" 
d="M457 123l-11 65h-228l-36 -62q-12 -24 2.5 -34t62.5 -11l-17 -81h-253l18 81q33 1 54 15t43 48l335 557h62l113 -563q9 -39 22 -48t58 -9l-17 -81h-310l18 81h22q43 0 55 8t7 34zM459 751q-46 0 -74 24t-28 71q0 14 5 39h40q-5 -26 14.5 -44.5t58.5 -18.5q40 0 73 18
t40 45h45q-16 -65 -66 -99.5t-108 -34.5zM382 474l-119 -207h169l-36 207h-14z" />
    <glyph glyph-name="abreve" unicode="&#x103;" horiz-adv-x="535" 
d="M328 103h-19q-20 -55 -59.5 -85t-83.5 -30q-60 0 -94.5 39t-34.5 108q0 144 70.5 257t160.5 113q60 0 89 -68l35 58h101l-72 -323q-8 -31 -8 -59q0 -36 26 -36q40 0 52 115l41 -5q-11 -98 -39.5 -146t-81.5 -48q-44 0 -65.5 28.5t-17.5 81.5zM204 77q37 0 74 74.5
t62 226.5q-6 17 -23.5 28.5t-38.5 11.5q-40 0 -76 -79t-36 -181q0 -81 38 -81zM320 559q-39 0 -62.5 31t-23.5 90q0 25 4 49h40q-3 -36 13 -62.5t45 -26.5q35 0 63 25t35 64h46q-13 -80 -60 -125t-100 -45z" />
    <glyph glyph-name="Aogonek" unicode="&#x104;" horiz-adv-x="720" 
d="M428 -189l6 -27q-24 -9 -73 -9q-52 0 -86.5 20.5t-34.5 56.5q0 38 34 75.5t92 68.5l-2 4h-9l18 81h22q43 0 55 8t7 34l-11 65h-228l-36 -62q-12 -24 2.5 -34t62.5 -11l-17 -81h-253l18 81q33 1 54 15t43 48l335 557h62l113 -563q9 -39 22 -48t58 -9l-17 -81h-244
q-86 -53 -86 -134q0 -26 17 -42.5t42 -16.5q16 0 34 4zM382 474l-119 -207h169l-36 207h-14z" />
    <glyph glyph-name="aogonek" unicode="&#x105;" horiz-adv-x="535" 
d="M469 -176l5 -28q-22 -9 -73 -9q-52 0 -86.5 21t-34.5 57q0 67 103 131q-61 19 -55 107h-19q-20 -55 -59.5 -85t-83.5 -30q-60 0 -94.5 39t-34.5 108q0 144 70.5 257t160.5 113q60 0 89 -68l35 58h101l-72 -323q-8 -31 -8 -59q0 -36 26 -36q40 0 52 115l41 -5
q-22 -171 -94 -190q-63 -50 -63 -118q0 -26 17 -42.5t42 -16.5q17 0 35 4zM204 77q37 0 74 74.5t62 226.5q-6 17 -23.5 28.5t-38.5 11.5q-40 0 -76 -79t-36 -181q0 -81 38 -81z" />
    <glyph glyph-name="Cacute" unicode="&#x106;" horiz-adv-x="684" 
d="M631 651l12 2l34 37h38l-52 -263h-52q0 77 -30 130t-93 53q-74 0 -134 -53.5t-91 -133.5t-31 -166q0 -85 39.5 -131t115.5 -46q65 0 116.5 39t79.5 113h60q-38 -117 -122 -180.5t-183 -63.5q-128 0 -199.5 71.5t-71.5 196.5q0 118 58 220.5t157.5 163.5t214.5 61
q43 0 82 -15t52 -35zM451 751v16l-1 -1l85 119h117v-18q-22 -19 -69 -57.5t-69 -58.5h-63z" />
    <glyph glyph-name="cacute" unicode="&#x107;" horiz-adv-x="409" 
d="M273 418q-39 0 -73 -69.5t-34 -190.5q0 -83 61 -83q27 0 55.5 30t48.5 74q7 -4 52 -25q-82 -166 -199 -166q-63 0 -105 44.5t-42 128.5q0 141 77 242.5t169 101.5q50 0 84.5 -31t34.5 -85q0 -75 -83 -97q0 4 -0.5 10t-0.5 9q-1 27 -2.5 42.5t-5.5 32.5t-13.5 24.5
t-23.5 7.5zM213 559v17l-1 -1q12 22 41 74t44 80h117v-18l-138 -152h-63z" />
    <glyph glyph-name="Ccircumflex" unicode="&#x108;" horiz-adv-x="684" 
d="M631 651l12 2l34 37h38l-52 -263h-52q0 77 -30 130t-93 53q-74 0 -134 -53.5t-91 -133.5t-31 -166q0 -85 39.5 -131t115.5 -46q65 0 116.5 39t79.5 113h60q-38 -117 -122 -180.5t-183 -63.5q-128 0 -199.5 71.5t-71.5 196.5q0 118 58 220.5t157.5 163.5t214.5 61
q43 0 82 -15t52 -35zM651 767v-16h-29l-84 60l-131 -60h-38v15l162 119h52l69 -119z" />
    <glyph glyph-name="ccircumflex" unicode="&#x109;" horiz-adv-x="409" 
d="M273 418q-39 0 -73 -69.5t-34 -190.5q0 -83 61 -83q27 0 55.5 30t48.5 74q7 -4 52 -25q-82 -166 -199 -166q-63 0 -105 44.5t-42 128.5q0 141 77 242.5t169 101.5q50 0 84.5 -31t34.5 -85q0 -75 -83 -97q0 4 -0.5 10t-0.5 9q-1 27 -2.5 42.5t-5.5 32.5t-13.5 24.5
t-23.5 7.5zM393 575v-16h-29l-69 82l-106 -82h-38v17l-1 -1l143 154h51z" />
    <glyph glyph-name="Cdotaccent" unicode="&#x10a;" horiz-adv-x="684" 
d="M631 651l12 2l34 37h38l-52 -263h-52q0 77 -30 130t-93 53q-74 0 -134 -53.5t-91 -133.5t-31 -166q0 -85 39.5 -131t115.5 -46q65 0 116.5 39t79.5 113h60q-38 -117 -122 -180.5t-183 -63.5q-128 0 -199.5 71.5t-71.5 196.5q0 118 58 220.5t157.5 163.5t214.5 61
q43 0 82 -15t52 -35zM472 813q0 34 20.5 60.5t50.5 26.5q23 0 36.5 -18.5t13.5 -45.5q0 -34 -21 -59t-48 -25q-22 0 -37 18.5t-15 42.5z" />
    <glyph glyph-name="cdotaccent" unicode="&#x10b;" horiz-adv-x="409" 
d="M273 418q-39 0 -73 -69.5t-34 -190.5q0 -83 61 -83q27 0 55.5 30t48.5 74q7 -4 52 -25q-82 -166 -199 -166q-63 0 -105 44.5t-42 128.5q0 141 77 242.5t169 101.5q50 0 84.5 -31t34.5 -85q0 -75 -83 -97q0 4 -0.5 10t-0.5 9q-1 27 -2.5 42.5t-5.5 32.5t-13.5 24.5
t-23.5 7.5zM232 642q0 37 22.5 67t56.5 30q26 0 41 -20.5t15 -51.5q0 -37 -23.5 -64t-53.5 -27q-26 0 -42 19.5t-16 46.5z" />
    <glyph glyph-name="Ccaron" unicode="&#x10c;" horiz-adv-x="684" 
d="M631 651l12 2l34 37h38l-52 -263h-52q0 77 -30 130t-93 53q-74 0 -134 -53.5t-91 -133.5t-31 -166q0 -85 39.5 -131t115.5 -46q65 0 116.5 39t79.5 113h60q-38 -117 -122 -180.5t-183 -63.5q-128 0 -199.5 71.5t-71.5 196.5q0 118 58 220.5t157.5 163.5t214.5 61
q43 0 82 -15t52 -35zM421 869v16h30l83 -59l131 59h38v-15l-162 -119h-52l-69 119z" />
    <glyph glyph-name="ccaron" unicode="&#x10d;" horiz-adv-x="409" 
d="M273 418q-39 0 -73 -69.5t-34 -190.5q0 -83 61 -83q27 0 55.5 30t48.5 74q7 -4 52 -25q-82 -166 -199 -166q-63 0 -105 44.5t-42 128.5q0 141 77 242.5t169 101.5q50 0 84.5 -31t34.5 -85q0 -75 -83 -97q0 4 -0.5 10t-0.5 9q-1 27 -2.5 42.5t-5.5 32.5t-13.5 24.5
t-23.5 7.5zM198 714v15h29l68 -82l107 82h37v-16l-142 -154h-50z" />
    <glyph glyph-name="Dcaron" unicode="&#x10e;" horiz-adv-x="761" 
d="M757 408q0 -95 -38.5 -174t-100.5 -129t-137 -77.5t-152 -27.5h-334l18 81q57 2 72.5 7.5t21.5 29.5l97 459q5 22 -8.5 27.5t-61.5 6.5h-9q2 13 8 40t9 40h286q91 0 158 -24.5t102.5 -66.5t52 -89.5t16.5 -102.5zM249 81h71q108 0 189.5 92t81.5 240q0 91 -46.5 144.5
t-146.5 53.5h-37zM329 869v16h29l84 -59l130 59h39v-15l-162 -119h-53l-68 119z" />
    <glyph glyph-name="dcaron" unicode="&#x10f;" horiz-adv-x="542" 
d="M336 107l-18 1q-60 -120 -160 -120q-56 0 -89 37.5t-33 115.5q0 146 76.5 255t180.5 109q46 0 71 -38h14l22 124q6 35 -11 50t-58 16l12 75l177 10h35q-6 -28 -19.5 -87t-18.5 -82q-26 -110 -59 -280l-32 -154q-5 -28 3.5 -45t22.5 -17q17 0 28.5 32t14.5 86l44 -3
q-4 -93 -39 -146t-90 -53q-44 0 -61 26.5t-13 87.5zM165 169q0 -54 10 -72.5t32 -18.5q39 0 81.5 79t66.5 221q-7 16 -22 27.5t-35 11.5q-47 0 -90 -78t-43 -170zM554 527v5l72 210h97v-8l1 1l-110 -208h-60z" />
    <glyph glyph-name="Dcroat" unicode="&#x110;" horiz-adv-x="761" 
d="M757 408q0 -95 -38.5 -174t-100.5 -129t-137 -77.5t-152 -27.5h-334l18 81q57 2 72.5 7.5t21.5 29.5l39 190h-83l12 69h87l42 200q5 22 -8.5 27.5t-61.5 6.5h-9q2 13 8 40t9 40h286q91 0 158 -24.5t102.5 -66.5t52 -89.5t16.5 -102.5zM249 81h71q108 0 189.5 92t81.5 240
q0 91 -46.5 144.5t-146.5 53.5h-37l-49 -234h137l-12 -69h-140z" />
    <glyph glyph-name="dcroat" unicode="&#x111;" horiz-adv-x="542" 
d="M278 610h125q-1 25 -18.5 35.5t-52.5 11.5l12 75l177 10h34l-29 -132h57v-57h-70q-18 -78 -58 -278q-25 -122 -28 -136q-5 -28 3.5 -45t22.5 -17q17 0 28.5 32t14.5 86l44 -3q-4 -93 -39 -146t-90 -53q-44 0 -61 26.5t-13 87.5l-19 1q-60 -120 -159 -120q-56 0 -89 37.5
t-33 115.5q0 146 76.5 255t180.5 109q46 0 71 -38h14l15 86h-116v57zM166 169q0 -54 10 -72.5t32 -18.5q39 0 81.5 79t66.5 221q-7 16 -22 27.5t-35 11.5q-47 0 -90 -78t-43 -170z" />
    <glyph glyph-name="Emacron" unicode="&#x112;" horiz-adv-x="661" 
d="M640 254l-67 -254h-578l18 81q52 0 70.5 9.5t27.5 47.5q14 69 44.5 210t44.5 209q6 32 -10 43t-65 11q2 13 8 40t9 40h563q-6 -39 -19 -114.5t-19 -113.5h-65q2 11 2 30q0 67 -25 92.5t-87 25.5h-130l-50 -239h56q75 0 102 125h59l-65 -310h-60q8 35 8 62
q0 31 -15.5 42.5t-50.5 11.5h-50l-46 -222h154q66 0 106.5 44.5t68.5 128.5h61zM576 788h-255v75h255v-75z" />
    <glyph glyph-name="emacron" unicode="&#x113;" horiz-adv-x="425" 
d="M425 389q0 -70 -67.5 -124t-184.5 -105q-8 -92 73 -92q72 0 129 110l43 -23q-86 -167 -211 -167q-169 0 -169 187q0 141 75.5 235.5t173.5 94.5q59 0 98.5 -31.5t39.5 -84.5zM307 384q0 19 -8.5 30t-22.5 11q-39 0 -70 -62.5t-34 -145.5q135 75 135 167zM429 596h-256v75
h256v-75z" />
    <glyph glyph-name="Edotaccent" unicode="&#x116;" horiz-adv-x="661" 
d="M640 254l-67 -254h-578l18 81q52 0 70.5 9.5t27.5 47.5q14 69 44.5 210t44.5 209q6 32 -10 43t-65 11q2 13 8 40t9 40h563q-6 -39 -19 -114.5t-19 -113.5h-65q2 11 2 30q0 67 -25 92.5t-87 25.5h-130l-50 -239h56q75 0 102 125h59l-65 -310h-60q8 35 8 62
q0 31 -15.5 42.5t-50.5 11.5h-50l-46 -222h154q66 0 106.5 44.5t68.5 128.5h61zM409 813q0 34 21 60.5t51 26.5q23 0 36.5 -18.5t13.5 -45.5q0 -34 -21 -59t-48 -25q-23 0 -38 18.5t-15 42.5z" />
    <glyph glyph-name="edotaccent" unicode="&#x117;" horiz-adv-x="425" 
d="M425 389q0 -70 -67.5 -124t-184.5 -105q-8 -92 73 -92q72 0 129 110l43 -23q-86 -167 -211 -167q-169 0 -169 187q0 141 75.5 235.5t173.5 94.5q59 0 98.5 -31.5t39.5 -84.5zM307 384q0 19 -8.5 30t-22.5 11q-39 0 -70 -62.5t-34 -145.5q135 75 135 167zM260 642
q0 37 23 67t57 30q25 0 40 -20.5t15 -51.5q0 -37 -23 -64t-53 -27q-26 0 -42.5 19.5t-16.5 46.5z" />
    <glyph glyph-name="Eogonek" unicode="&#x118;" horiz-adv-x="661" 
d="M544 -189l5 -27q-23 -9 -72 -9q-52 0 -86.5 20.5t-34.5 56.5q0 38 34 75.5t92 68.5l-2 4h-485l18 81q52 0 70.5 9.5t27.5 47.5q14 69 44.5 210t44.5 209q6 32 -10 43t-65 11q2 13 8 40t9 40h563q-6 -39 -19 -114.5t-19 -113.5h-65q2 11 2 30q0 67 -25 92.5t-87 25.5h-130
l-50 -239h56q75 0 102 125h59l-65 -310h-60q8 35 8 62q0 31 -15.5 42.5t-50.5 11.5h-50l-46 -222h154q66 0 106.5 44.5t68.5 128.5h61q-10 -42 -33 -127.5t-34 -126.5h-36q-86 -53 -86 -134q0 -26 17 -42.5t42 -16.5q16 0 34 4z" />
    <glyph glyph-name="eogonek" unicode="&#x119;" horiz-adv-x="425" 
d="M336 -148l5 -27q-23 -9 -73 -9q-52 0 -86.5 20.5t-34.5 56.5q0 50 52 96q-161 7 -161 186q0 141 75.5 235.5t173.5 94.5q59 0 98.5 -31.5t39.5 -84.5q0 -70 -67.5 -124t-184.5 -105q-8 -92 73 -92q72 0 129 110l43 -23q-62 -117 -134 -149q-42 -43 -42 -99
q0 -26 17 -42.5t42 -16.5q17 0 35 4zM307 384q0 19 -8.5 30t-22.5 11q-39 0 -70 -62.5t-34 -145.5q135 75 135 167z" />
    <glyph glyph-name="Ecaron" unicode="&#x11a;" horiz-adv-x="661" 
d="M640 254l-67 -254h-578l18 81q52 0 70.5 9.5t27.5 47.5q14 69 44.5 210t44.5 209q6 32 -10 43t-65 11q2 13 8 40t9 40h563q-6 -39 -19 -114.5t-19 -113.5h-65q2 11 2 30q0 67 -25 92.5t-87 25.5h-130l-50 -239h56q75 0 102 125h59l-65 -310h-60q8 35 8 62
q0 31 -15.5 42.5t-50.5 11.5h-50l-46 -222h154q66 0 106.5 44.5t68.5 128.5h61zM359 869v16h29l84 -59l130 59h39v-15l-162 -119h-53l-68 119z" />
    <glyph glyph-name="ecaron" unicode="&#x11b;" horiz-adv-x="425" 
d="M424 389q0 -70 -67.5 -124t-184.5 -105q-8 -92 73 -92q72 0 129 110l43 -23q-86 -167 -211 -167q-169 0 -169 187q0 141 75.5 235.5t173.5 94.5q59 0 98.5 -31.5t39.5 -84.5zM306 384q0 19 -8.5 30t-22.5 11q-39 0 -70 -62.5t-34 -145.5q135 75 135 167zM225 714v15h29
l69 -82l106 82h38v-16l-142 -154h-51z" />
    <glyph glyph-name="Gcircumflex" unicode="&#x11c;" horiz-adv-x="727" 
d="M645 196l-44 -203h-42l-38 82q-39 -40 -91.5 -63.5t-97.5 -23.5q-112 0 -188 66.5t-76 199.5q0 100 38 186t99 142t135 87.5t147 31.5q97 0 150 -46h13l28 40h51l-46 -258h-56q-1 67 -42.5 120t-109.5 53q-100 0 -173 -105t-73 -252q0 -83 37.5 -128.5t103.5 -45.5
q70 0 122 54l15 72q8 31 -6 42.5t-58 10.5l15 76h287l-14 -76q-46 -1 -62.5 -15.5t-23.5 -46.5zM634 767v-16h-29l-84 60l-131 -60h-38v15l162 119h52l69 -119z" />
    <glyph glyph-name="gcircumflex" unicode="&#x11d;" horiz-adv-x="455" 
d="M256 505q66 0 115 -36q10 4 33.5 17t30.5 16h60l-20 -83h-67q12 -27 12 -57q0 -83 -48 -131t-114 -60q-65 -12 -93 -51l46 -14q119 -35 166.5 -67t47.5 -83q0 -73 -71.5 -128t-173.5 -55q-82 0 -139 30.5t-57 87.5q0 41 30 69.5t87 53.5v12q-42 35 -42 84l-1 -1
q23 44 82 77v12q-75 33 -75 124q0 70 56 126.5t135 56.5zM318 -80q0 29 -51 46l-97 28q-40 -19 -61.5 -44.5t-21.5 -48.5q0 -32 28.5 -48t69.5 -16q59 0 96 23.5t37 59.5zM398 575v-16h-29l-69 82l-106 -82h-38v17l-1 -1l143 154h51zM303 348q0 79 -53 79q-30 0 -48 -28
t-18 -79q0 -42 13.5 -61.5t44.5 -19.5q24 0 42.5 28.5t18.5 80.5z" />
    <glyph glyph-name="Gbreve" unicode="&#x11e;" horiz-adv-x="727" 
d="M645 196l-44 -203h-42l-38 82q-39 -40 -91.5 -63.5t-97.5 -23.5q-112 0 -188 66.5t-76 199.5q0 100 38 186t99 142t135 87.5t147 31.5q97 0 150 -46h13l28 40h51l-46 -258h-56q-1 67 -42.5 120t-109.5 53q-100 0 -173 -105t-73 -252q0 -83 37.5 -128.5t103.5 -45.5
q70 0 122 54l15 72q8 31 -6 42.5t-58 10.5l15 76h287l-14 -76q-46 -1 -62.5 -15.5t-23.5 -46.5zM487 751q-46 0 -74 24t-28 71q0 14 5 39h40q-5 -26 15 -44.5t58 -18.5q40 0 73.5 18t40.5 45h44q-16 -65 -66 -99.5t-108 -34.5z" />
    <glyph glyph-name="gbreve" unicode="&#x11f;" horiz-adv-x="455" 
d="M256 505q66 0 115 -36q10 4 33.5 17t30.5 16h60l-20 -83h-67q12 -27 12 -57q0 -83 -48 -131t-114 -60q-65 -12 -93 -51l46 -14q119 -35 166.5 -67t47.5 -83q0 -73 -71.5 -128t-173.5 -55q-82 0 -139 30.5t-57 87.5q0 41 30 69.5t87 53.5v12q-42 35 -42 84l-1 -1
q23 44 82 77v12q-75 33 -75 124q0 70 56 126.5t135 56.5zM318 -80q0 29 -51 46l-97 28q-40 -19 -61.5 -44.5t-21.5 -48.5q0 -32 28.5 -48t69.5 -16q59 0 96 23.5t37 59.5zM303 348q0 79 -53 79q-30 0 -48 -28t-18 -79q0 -42 13.5 -61.5t44.5 -19.5q24 0 42.5 28.5t18.5 80.5
zM271 559q-38 0 -62 31t-24 90q0 26 5 49h40q-3 -36 12.5 -62.5t44.5 -26.5q36 0 63.5 25t35.5 64h45q-13 -81 -59.5 -125.5t-100.5 -44.5z" />
    <glyph glyph-name="Gdotaccent" unicode="&#x120;" horiz-adv-x="727" 
d="M645 196l-44 -203h-42l-38 82q-39 -40 -91.5 -63.5t-97.5 -23.5q-112 0 -188 66.5t-76 199.5q0 100 38 186t99 142t135 87.5t147 31.5q97 0 150 -46h13l28 40h51l-46 -258h-56q-1 67 -42.5 120t-109.5 53q-100 0 -173 -105t-73 -252q0 -83 37.5 -128.5t103.5 -45.5
q70 0 122 54l15 72q8 31 -6 42.5t-58 10.5l15 76h287l-14 -76q-46 -1 -62.5 -15.5t-23.5 -46.5zM455 813q0 34 20.5 60.5t50.5 26.5q23 0 36.5 -18.5t13.5 -45.5q0 -34 -21 -59t-48 -25q-22 0 -37 18.5t-15 42.5z" />
    <glyph glyph-name="gdotaccent" unicode="&#x121;" horiz-adv-x="455" 
d="M256 505q66 0 115 -36q10 4 33.5 17t30.5 16h60l-20 -83h-67q12 -27 12 -57q0 -83 -48 -131t-114 -60q-65 -12 -93 -51l46 -14q119 -35 166.5 -67t47.5 -83q0 -73 -71.5 -128t-173.5 -55q-82 0 -139 30.5t-57 87.5q0 41 30 69.5t87 53.5v12q-42 35 -42 84l-1 -1
q23 44 82 77v12q-75 33 -75 124q0 70 56 126.5t135 56.5zM318 -80q0 29 -51 46l-97 28q-40 -19 -61.5 -44.5t-21.5 -48.5q0 -32 28.5 -48t69.5 -16q59 0 96 23.5t37 59.5zM303 348q0 79 -53 79q-30 0 -48 -28t-18 -79q0 -42 13.5 -61.5t44.5 -19.5q24 0 42.5 28.5t18.5 80.5
zM237 642q0 37 23 67t57 30q25 0 40 -20.5t15 -51.5q0 -37 -23.5 -64t-53.5 -27q-26 0 -42 19.5t-16 46.5z" />
    <glyph glyph-name="Gcommaaccent" unicode="&#x122;" horiz-adv-x="727" 
d="M645 196l-44 -203h-42l-38 82q-39 -40 -91.5 -63.5t-97.5 -23.5q-112 0 -188 66.5t-76 199.5q0 100 38 186t99 142t135 87.5t147 31.5q97 0 150 -46h13l28 40h51l-46 -258h-56q-1 67 -42.5 120t-109.5 53q-100 0 -173 -105t-73 -252q0 -83 37.5 -128.5t103.5 -45.5
q70 0 122 54l15 72q8 31 -6 42.5t-58 10.5l15 76h287l-14 -76q-46 -1 -62.5 -15.5t-23.5 -46.5zM275 -80q0 17 12.5 28.5t31.5 11.5q22 0 39.5 -21t17.5 -58q0 -46 -41 -84t-106 -39v27q35 2 55.5 23.5t20.5 46.5q0 16 -18 38q-12 14 -12 27z" />
    <glyph glyph-name="gcommaaccent" unicode="&#x123;" horiz-adv-x="455" 
d="M256 505q66 0 115 -36q10 4 33.5 17t30.5 16h60l-20 -83h-67q12 -27 12 -57q0 -83 -48 -131t-114 -60q-65 -12 -93 -51l46 -14q119 -35 166.5 -67t47.5 -83q0 -73 -71.5 -128t-173.5 -55q-82 0 -139 30.5t-57 87.5q0 41 30 69.5t87 53.5v12q-42 35 -42 84l-1 -1
q23 44 82 77v12q-75 33 -75 124q0 70 56 126.5t135 56.5zM318 -80q0 29 -51 46l-97 28q-40 -19 -61.5 -44.5t-21.5 -48.5q0 -32 28.5 -48t69.5 -16q59 0 96 23.5t37 59.5zM303 348q0 79 -53 79q-30 0 -48 -28t-18 -79q0 -42 13.5 -61.5t44.5 -19.5q24 0 42.5 28.5t18.5 80.5
zM333 619q0 -19 -14 -31t-34 -12q-25 0 -43 21.5t-18 60.5q0 50 43.5 90t112.5 42v-28q-36 -2 -58 -25.5t-22 -49.5q0 -23 20 -41q13 -20 13 -27z" />
    <glyph glyph-name="Hbar" unicode="&#x126;" horiz-adv-x="799" 
d="M101 534h94l5 24q6 31 -12 41.5t-64 10.5l18 81h323l-17 -81q-50 0 -69.5 -9t-27.5 -43l-5 -24h253l6 24q7 33 -9 42.5t-68 9.5l18 81h324l-17 -81q-55 0 -73.5 -9.5t-25.5 -42.5l-5 -24h98l-16 -70h-98l-69 -332q-7 -32 8.5 -41.5t68.5 -9.5l-17 -81h-325l18 81
q58 3 74 10.5t23 40.5l37 178h-253l-37 -178q-7 -32 7.5 -41.5t67.5 -9.5l-17 -81h-324l18 81q52 0 71 9t26 42l69 332h-94zM317 397h253l13 67h-253z" />
    <glyph glyph-name="hbar" unicode="&#x127;" horiz-adv-x="539" 
d="M77 591h75q7 37 -12 51.5t-62 15.5l14 75l178 10h35l-35 -152h111v-57h-125l-34 -151l17 -12q27 56 69 95t92 39q74 0 74 -111q0 -64 -29 -160q-28 -86 -28 -124q0 -33 21 -33q47 0 57 114l37 -5q-9 -89 -44 -141t-94 -52q-47 0 -73 28.5t-26 84.5q0 38 15 95
q48 162 37 199q-40 0 -85 -68.5t-68 -138.5l-35 -176l-28 -17h-98l107 534h-63v57z" />
    <glyph glyph-name="Imacron" unicode="&#x12a;" horiz-adv-x="379" 
d="M454 691l-17 -82q-55 0 -69.5 -6.5t-21.5 -34.5l-94 -440q-6 -31 6 -39t67 -8l-17 -81h-317l18 81q57 0 71.5 8t21.5 39l93 440q7 31 -4 37t-70 6q3 13 9 40t8 40h316zM429 788h-255v75h255v-75z" />
    <glyph glyph-name="imacron" unicode="&#x12b;" horiz-adv-x="320" 
d="M265 373l-63 -266q-5 -27 19 -27q33 0 54 106q8 -1 21 -2t21 -2q-19 -97 -51 -143t-85 -46q-50 0 -76.5 28.5t-26.5 74.5q0 19 6 40l64 229q10 43 -10 43q-36 0 -73 -121q-9 1 -21.5 3.5t-18.5 3.5q41 211 159 211q44 0 65 -25t21 -66q0 -19 -5 -41zM338 596h-256v75h256
v-75z" />
    <glyph glyph-name="Iogonek" unicode="&#x12e;" horiz-adv-x="379" 
d="M280 -189l5 -27q-23 -9 -73 -9q-52 0 -86 20.5t-34 56.5q0 76 125 144l-2 4h-224l18 81q57 0 71.5 8t21.5 39l93 440q7 31 -4 37t-70 6q3 13 9 40t8 40h316l-17 -82q-55 0 -69.5 -6.5t-21.5 -34.5l-94 -440q-6 -31 6 -39t67 -8l-17 -81h-35q-87 -53 -87 -134
q0 -26 17 -42.5t42 -16.5q17 0 35 4z" />
    <glyph glyph-name="iogonek" unicode="&#x12f;" horiz-adv-x="320" 
d="M248 -171l5 -28q-23 -9 -73 -9q-52 0 -86.5 21t-34.5 57q0 63 94 125q-36 9 -55.5 36.5t-19.5 64.5q0 19 6 40l64 229q10 43 -10 43q-36 0 -73 -121q-9 1 -21.5 3.5t-18.5 3.5q41 211 159 211q44 0 65 -25t21 -66q0 -19 -5 -41l-63 -266q-5 -27 19 -27q33 0 54 106
q8 -1 21 -2t21 -2q-15 -86 -40 -131t-65 -55q-58 -48 -58 -112q0 -27 17 -43t43 -16q16 0 34 4zM159 666q0 35 21 58.5t53 23.5t53 -23.5t21 -58.5q0 -33 -21 -56t-53 -23t-53 23t-21 56z" />
    <glyph glyph-name="Idotaccent" unicode="&#x130;" horiz-adv-x="379" 
d="M454 691l-17 -82q-55 0 -69.5 -6.5t-21.5 -34.5l-94 -440q-6 -31 6 -39t67 -8l-17 -81h-317l18 81q57 0 71.5 8t21.5 39l93 440q7 31 -4 37t-70 6q3 13 9 40t8 40h316zM263 813q0 34 20.5 60.5t50.5 26.5q23 0 36.5 -18.5t13.5 -45.5q0 -34 -21 -59t-48 -25
q-22 0 -37 18.5t-15 42.5z" />
    <glyph glyph-name="dotlessi" unicode="&#x131;" horiz-adv-x="320" 
d="M265 373l-63 -266q-5 -27 19 -27q33 0 54 106q8 -1 21 -2t21 -2q-19 -97 -51 -143t-85 -46q-50 0 -76.5 28.5t-26.5 74.5q0 19 6 40l64 229q10 43 -10 43q-36 0 -73 -121q-9 1 -21.5 3.5t-18.5 3.5q41 211 159 211q44 0 65 -25t21 -66q0 -19 -5 -41z" />
    <glyph glyph-name="Kcommaaccent" unicode="&#x136;" horiz-adv-x="723" 
d="M593 515l-137 -115l155 -266q18 -31 32 -41.5t44 -11.5l-17 -81h-309l18 81q48 2 60.5 13t-2.5 38l-102 171l-47 -40l-21 -104q-7 -33 -7 -45q0 -19 12 -26t40 -7l-17 -81h-300l18 81q55 0 73.5 13.5t29.5 64.5q13 61 39.5 188t39.5 189q4 17 4 34q0 27 -16 34t-58 7
q2 13 8 40t9 40h308q-3 -13 -9 -40t-8 -40q-44 0 -60 -13.5t-27 -61.5l-36 -164h12l196 167q26 23 26 42q0 29 -51 29l18 81h273l-18 -81q-75 -11 -173 -95zM286 -80q0 17 12.5 28.5t31.5 11.5q22 0 39.5 -21t17.5 -58q0 -46 -41 -84t-106 -39v27q35 2 55.5 23.5t20.5 46.5
q0 16 -18 38q-12 14 -12 27z" />
    <glyph glyph-name="kcommaaccent" unicode="&#x137;" horiz-adv-x="513" 
d="M160 29l-45 -29h-79l110 576q3 16 3 30q0 26 -14.5 39t-51.5 12l12 77l142 9h64l-42 -183l-39 -184l11 -9q96 138 181 138q45 0 69 -22t24 -56q0 -36 -11.5 -64t-38.5 -51.5t-57.5 -41.5t-81.5 -42v-6q24 -14 55 -77h-1q9 -19 15 -28.5t14.5 -18t16.5 -8.5q20 0 36 25.5
t19 64.5l41 -4q-18 -89 -53.5 -136t-82.5 -47q-21 0 -38 7.5t-31 25.5t-21.5 30t-20.5 36q-25 48 -44 65l13 74q70 41 104 78.5t34 78.5q0 20 -20 20q-23 0 -64 -42.5t-84 -112.5zM177 -84q0 18 12.5 29.5t32.5 11.5q22 0 39.5 -21t17.5 -58q0 -46 -41 -84.5t-106 -39.5v27
q35 2 55.5 24.5t20.5 46.5q0 16 -18 38q-13 13 -13 26z" />
    <glyph glyph-name="Lacute" unicode="&#x139;" horiz-adv-x="602" 
d="M594 280l-71 -280h-527l18 81q49 0 69 8.5t26 38.5l93 441q5 26 -9 34t-67 8q3 13 8.5 40t8.5 40h331q-2 -13 -8 -40t-9 -40q-61 0 -78.5 -7t-23.5 -34l-103 -489h85q63 0 112 52.5t79 146.5h66zM229 751v16l-1 -1l86 119h116v-18q-23 -19 -69 -57.5t-68 -58.5h-64z" />
    <glyph glyph-name="lacute" unicode="&#x13a;" horiz-adv-x="289" 
d="M303 742l-141 -613q-13 -52 21 -52q43 0 55 109l45 -3q-14 -96 -48 -143t-98 -47q-98 0 -98 97q0 21 7 54l96 447q5 36 -12 50.5t-56 15.5l14 75l185 10h30zM151 786v16l-1 -1l86 119h117v-18q-16 -14 -64 -54t-74 -62h-64z" />
    <glyph glyph-name="Lcommaaccent" unicode="&#x13b;" horiz-adv-x="602" 
d="M594 280l-71 -280h-527l18 81q49 0 69 8.5t26 38.5l93 441q5 26 -9 34t-67 8q3 13 8.5 40t8.5 40h331q-2 -13 -8 -40t-9 -40q-61 0 -78.5 -7t-23.5 -34l-103 -489h85q63 0 112 52.5t79 146.5h66zM226 -80q0 17 12.5 28.5t32.5 11.5q22 0 39.5 -21t17.5 -58q0 -46 -41 -84
t-106 -39v27q35 2 55 23.5t20 46.5q0 16 -18 38q-12 14 -12 27z" />
    <glyph glyph-name="lcommaaccent" unicode="&#x13c;" horiz-adv-x="289" 
d="M303 742l-141 -613q-13 -52 21 -52q43 0 55 109l45 -3q-14 -96 -48 -143t-98 -47q-98 0 -98 97q0 21 7 54l96 447q5 36 -12 50.5t-56 15.5l14 75l185 10h30zM73 -84q0 18 12.5 29.5t31.5 11.5q22 0 39.5 -21t17.5 -58q0 -46 -41 -84.5t-106 -39.5v27q35 2 55.5 24
t20.5 47q0 16 -18 38q-12 14 -12 26z" />
    <glyph glyph-name="Lcaron" unicode="&#x13d;" horiz-adv-x="602" 
d="M593 280l-71 -280h-527l18 81q49 0 69 8.5t26 38.5l93 441q5 26 -9 34t-67 8q2 13 8 40t9 40h331q-3 -13 -8.5 -40t-8.5 -40q-61 0 -78.5 -7t-23.5 -34l-103 -489h85q63 0 112 52.5t79 146.5h66zM522 477v5q16 50 71 209h97v-8l1 1l-110 -207h-59z" />
    <glyph glyph-name="lcaron" unicode="&#x13e;" horiz-adv-x="382" 
d="M302 742l-141 -613q-13 -52 21 -52q43 0 55 109l45 -3q-14 -96 -48 -143t-98 -47q-98 0 -98 97q0 21 7 54l96 447q5 36 -12 50.5t-56 15.5l14 75l185 10h30zM298 527v5l72 210h97v-8l1 1l-110 -208h-60z" />
    <glyph glyph-name="Ldot" unicode="&#x13f;" horiz-adv-x="602" 
d="M593 280l-70 -280h-528l18 81q49 0 69 8.5t26 38.5l93 441q5 26 -9 34t-67 8q2 13 8 40t9 40h331q-3 -13 -8.5 -40t-8.5 -40q-61 0 -78.5 -7t-23.5 -34l-103 -489h85q63 0 112 52.5t79 146.5h66zM474 420q0 35 22.5 59t54.5 24t56 -24.5t24 -58.5q0 -33 -23.5 -56.5
t-56.5 -23.5q-32 0 -54.5 23t-22.5 57z" />
    <glyph glyph-name="ldot" unicode="&#x140;" horiz-adv-x="419" 
d="M303 742l-141 -613q-13 -52 21 -52q43 0 55 109l45 -3q-14 -96 -48 -143t-98 -47q-98 0 -98 97q0 21 7 54l96 447q5 36 -12 50.5t-56 15.5l14 75l185 10h30zM276 312q0 35 22.5 59t55.5 24q32 0 55.5 -24.5t23.5 -58.5t-23.5 -57t-55.5 -23q-33 0 -55.5 23t-22.5 57z" />
    <glyph glyph-name="Lslash" unicode="&#x141;" horiz-adv-x="602" 
d="M594 280l-71 -280h-527l18 81q49 0 69 8.5t26 38.5l31 151l-80 -30q3 12 7.5 35.5t7.5 36.5l80 28l47 220q5 26 -9 34t-67 8q3 13 8.5 40t8.5 40h331q-2 -13 -8 -40t-9 -40q-61 0 -78.5 -7t-23.5 -34l-34 -161q21 7 74.5 27.5t81.5 29.5q-3 -13 -7.5 -36t-7.5 -36
l-156 -56l-54 -257h85q63 0 112 52.5t79 146.5h66z" />
    <glyph glyph-name="lslash" unicode="&#x142;" horiz-adv-x="289" 
d="M303 742l-62 -273l45 40l34 -39l-99 -85l-59 -256q-13 -52 21 -52q43 0 55 109l45 -3q-14 -96 -48 -143t-98 -47q-98 0 -98 97q0 21 7 54l24 111l-41 -34l-33 39l92 79l54 252q5 36 -12 50.5t-56 15.5l14 75l185 10h30z" />
    <glyph glyph-name="Nacute" unicode="&#x143;" horiz-adv-x="752" 
d="M268 476h-13q-14 -67 -71 -340q-6 -33 15.5 -44t77.5 -11l-17 -81h-276l18 81q42 1 66.5 12t31.5 43l90 425q-15 25 -31 37t-45 13q3 13 9 40t8 40h194l240 -451h12l69 318q5 27 -19.5 39.5t-87.5 12.5l18 81h277l-17 -81q-77 -1 -88 -52l-120 -566h-80zM408 751v16
l-1 -1l86 119h117v-18q-16 -14 -64 -54t-74 -62h-64z" />
    <glyph glyph-name="nacute" unicode="&#x144;" horiz-adv-x="572" 
d="M197 30l-51 -30h-80q11 53 35 164.5t35 165.5q9 34 8.5 56t-15.5 22q-9 0 -20 -12.5t-22 -43t-17 -73.5l-46 4q13 99 47 160.5t88 61.5q80 0 80 -92q0 -36 -8 -71h19q30 78 74.5 120.5t95.5 42.5q87 0 87 -102q0 -69 -37 -194q-23 -84 -23 -105q0 -27 27 -27q39 0 52 115
q7 0 21.5 -3t21.5 -3q-9 -89 -40.5 -141t-98.5 -52q-42 0 -73 26.5t-31 85.5q0 33 11 73l7 26v-1q46 158 38 199q-39 0 -84.5 -72t-67.5 -143zM279 559v17l-1 -1q12 23 42 75t44 79h117v-18l-138 -152h-64z" />
    <glyph glyph-name="Ncommaaccent" unicode="&#x145;" horiz-adv-x="752" 
d="M268 476h-13q-14 -67 -71 -340q-6 -33 15.5 -44t77.5 -11l-17 -81h-276l18 81q42 1 66.5 12t31.5 43l90 425q-15 25 -31 37t-45 13q3 13 9 40t8 40h194l240 -451h12l69 318q5 27 -19.5 39.5t-87.5 12.5l18 81h277l-17 -81q-77 -1 -88 -52l-120 -566h-80zM320 -80
q0 17 12.5 28.5t31.5 11.5q22 0 39.5 -21t17.5 -58q0 -46 -40.5 -84t-105.5 -39v27q35 2 55 23.5t20 46.5q0 16 -18 38q-12 14 -12 27z" />
    <glyph glyph-name="ncommaaccent" unicode="&#x146;" horiz-adv-x="572" 
d="M197 30l-52 -30h-79q11 53 35 164.5t35 165.5q9 34 8.5 56t-15.5 22q-9 0 -20 -12.5t-22 -43t-17 -73.5l-46 4q13 99 47 160.5t88 61.5q80 0 80 -92q0 -36 -8 -71h19q30 78 74.5 120.5t95.5 42.5q87 0 87 -102q0 -69 -37 -194q-23 -84 -23 -105q0 -27 27 -27q39 0 52 115
q7 0 21.5 -3t21.5 -3q-9 -89 -40.5 -141t-98.5 -52q-42 0 -73 26.5t-31 85.5q0 33 11 73l7 26v-1q46 158 38 199q-39 0 -84.5 -72t-67.5 -143zM245 -84q0 18 12.5 29.5t31.5 11.5q23 0 40.5 -21t17.5 -58q0 -46 -41 -84.5t-106 -39.5v27q35 2 55 24t20 47q0 16 -18 38
q-12 14 -12 26z" />
    <glyph glyph-name="Ncaron" unicode="&#x147;" horiz-adv-x="752" 
d="M268 476h-13q-14 -67 -71 -340q-6 -33 15.5 -44t77.5 -11l-17 -81h-276l18 81q42 1 66.5 12t31.5 43l90 425q-15 25 -31 37t-45 13q3 13 9 40t8 40h194l240 -451h12l69 318q5 27 -19.5 39.5t-87.5 12.5l18 81h277l-17 -81q-77 -1 -88 -52l-120 -566h-80zM379 869v16h29
l84 -59l131 59h38v-15l-162 -119h-52l-69 119z" />
    <glyph glyph-name="ncaron" unicode="&#x148;" horiz-adv-x="572" 
d="M197 30l-52 -30h-79q11 53 35 164.5t35 165.5q9 34 8.5 56t-15.5 22q-9 0 -20 -12.5t-22 -43t-17 -73.5l-46 4q13 99 47 160.5t88 61.5q80 0 80 -92q0 -36 -8 -71h19q30 78 74.5 120.5t95.5 42.5q87 0 87 -102q0 -69 -37 -194q-23 -84 -23 -105q0 -27 27 -27q39 0 52 115
q7 0 21.5 -3t21.5 -3q-9 -89 -40.5 -141t-98.5 -52q-42 0 -73 26.5t-31 85.5q0 33 11 73l7 26v-1q46 158 38 199q-39 0 -84.5 -72t-67.5 -143zM264 714v15h29l69 -82l107 82h37v-16l-142 -154h-51z" />
    <glyph glyph-name="Omacron" unicode="&#x14c;" horiz-adv-x="751" 
d="M751 433q0 -96 -36 -180.5t-95 -141.5t-134.5 -90t-153.5 -33q-129 0 -197 71t-68 195q0 96 36.5 181t95.5 142.5t132.5 90.5t148.5 33q125 0 198 -73t73 -195zM352 80q59 0 106 38.5t74.5 98.5t41.5 124.5t14 125.5q0 70 -32 106.5t-91 36.5q-69 0 -124 -55.5
t-83.5 -141.5t-28.5 -182q0 -78 29 -114.5t94 -36.5zM618 788h-256v75h256v-75z" />
    <glyph glyph-name="omacron" unicode="&#x14d;" horiz-adv-x="470" 
d="M456 309q0 -132 -71.5 -226.5t-177.5 -94.5q-81 0 -127.5 46t-46.5 132q0 149 78.5 244t173.5 95q85 0 128 -52t43 -144zM220 72q36 0 62 48t36.5 107.5t10.5 116.5q0 78 -52 78q-49 0 -82 -84t-33 -187q0 -79 58 -79zM409 596h-256v75h256v-75z" />
    <glyph glyph-name="Ohungarumlaut" unicode="&#x150;" horiz-adv-x="751" 
d="M751 433q0 -96 -36 -180.5t-95 -141.5t-134.5 -90t-153.5 -33q-129 0 -197 71t-68 195q0 96 36.5 181t95.5 142.5t132.5 90.5t148.5 33q125 0 198 -73t73 -195zM352 80q59 0 106 38.5t74.5 98.5t41.5 124.5t14 125.5q0 70 -32 106.5t-91 36.5q-69 0 -124 -55.5
t-83.5 -141.5t-28.5 -182q0 -78 29 -114.5t94 -36.5zM339 751v16l-1 -1l85 119h117v-18q-26 -22 -74 -62t-64 -54h-63zM510 751v16l-1 -1l85 119h117v-18q-26 -22 -74 -62t-64 -54h-63z" />
    <glyph glyph-name="ohungarumlaut" unicode="&#x151;" horiz-adv-x="470" 
d="M456 309q0 -132 -71.5 -226.5t-177.5 -94.5q-81 0 -127.5 46t-46.5 132q0 149 78.5 244t173.5 95q85 0 128 -52t43 -144zM220 72q36 0 62 48t36.5 107.5t10.5 116.5q0 78 -52 78q-49 0 -82 -84t-33 -187q0 -79 58 -79zM317 559v17l-1 -1l95 154h117v-18l-153 -152h-58z
M145 559v17l-1 -1l96 154h117v-18l-153 -152h-59z" />
    <glyph glyph-name="OE" unicode="&#x152;" horiz-adv-x="972" 
d="M952 254l-67 -254h-461q-48 -12 -93 -12q-129 0 -197 71t-68 195q0 96 36.5 181t95.5 142.5t132.5 90.5t148.5 33q42 0 85 -10h453q-6 -39 -19 -114.5t-19 -113.5h-65q1 11 1 30q0 67 -25 92.5t-86 25.5h-130l-50 -239h56q73 0 102 125h59l-65 -310h-60q8 35 8 62
q0 31 -15.5 42.5t-50.5 11.5h-50l-46 -222h154q66 0 106.5 44.5t68.5 128.5h61zM351 80q30 0 56 10l111 510q-23 10 -54 10q-69 0 -124 -55.5t-83.5 -141.5t-28.5 -182q0 -78 29 -114.5t94 -36.5z" />
    <glyph glyph-name="oe" unicode="&#x153;" horiz-adv-x="718" 
d="M719 389q0 -70 -67.5 -124t-184.5 -105q-8 -92 72 -92q72 0 129 110l44 -23q-86 -167 -207 -167q-97 0 -144 64q-64 -64 -146 -64q-85 0 -134 50.5t-49 145.5q0 143 70.5 232t163.5 89q101 0 151 -82q76 82 164 82q58 0 98 -32t40 -84zM319 325q0 92 -57 92
q-50 0 -75.5 -74.5t-25.5 -177.5q0 -85 63 -85q45 0 70 72.5t25 172.5zM601 384q0 19 -8.5 30t-22.5 11q-40 0 -70.5 -62.5t-33.5 -145.5q135 76 135 167z" />
    <glyph glyph-name="Racute" unicode="&#x154;" horiz-adv-x="683" 
d="M507 526q0 46 -24 65t-83 19h-38l-44 -215h52q54 0 95.5 32.5t41.5 98.5zM423 158q5 37 5 57q0 56 -22 77t-66 21h-40l-38 -180q-7 -32 8.5 -41.5t72.5 -9.5l-17 -82h-331l18 82q54 2 72 10.5t25 40.5l93 438q5 27 -8.5 33t-70.5 6l18 81h340q188 0 188 -145
q0 -81 -56 -131.5t-125 -62.5l-2 -10q44 -9 71.5 -40.5t27.5 -86.5q0 -17 -3 -35q-8 -54 -8 -72q0 -31 18 -31q16 0 25.5 23.5t14.5 86.5q9 0 24 -0.5t23 -0.5q-3 -58 -15 -98t-32 -59.5t-40.5 -27.5t-47.5 -8q-125 0 -125 125q0 19 3 40zM356 751v16l-1 -1l86 119h116v-18
q-26 -22 -74 -62t-64 -54h-63z" />
    <glyph glyph-name="racute" unicode="&#x155;" horiz-adv-x="424" 
d="M204 32l-49 -32h-85l63 348q9 57 -10 57q-18 0 -32.5 -34.5t-19.5 -83.5q-8 1 -22.5 3t-20.5 2q6 90 42 151.5t91 61.5q27 0 39 -16.5t12 -53.5q0 -43 -15 -112l30 -2q22 95 54.5 139.5t83.5 44.5q35 0 54 -24.5t19 -68.5q0 -49 -25.5 -81t-68.5 -34l-12 96
q-27 0 -56.5 -89.5t-71.5 -271.5zM204 559v17l-1 -1q12 22 41 74t44 80h117v-18l-138 -152h-63z" />
    <glyph glyph-name="Rcaron" unicode="&#x158;" horiz-adv-x="683" 
d="M507 526q0 46 -24 65t-83 19h-38l-44 -215h52q54 0 95.5 32.5t41.5 98.5zM423 158q5 37 5 57q0 56 -22 77t-66 21h-40l-38 -180q-7 -32 8.5 -41.5t72.5 -9.5l-17 -82h-331l18 82q54 2 72 10.5t25 40.5l93 438q5 27 -8.5 33t-70.5 6l18 81h340q188 0 188 -145
q0 -81 -56 -131.5t-125 -62.5l-2 -10q44 -9 71.5 -40.5t27.5 -86.5q0 -17 -3 -35q-8 -54 -8 -72q0 -31 18 -31q16 0 25.5 23.5t14.5 86.5q9 0 24 -0.5t23 -0.5q-3 -58 -15 -98t-32 -59.5t-40.5 -27.5t-47.5 -8q-125 0 -125 125q0 19 3 40zM327 869v16h29l84 -59l130 59h39
v-15l-162 -119h-53l-68 119z" />
    <glyph glyph-name="rcaron" unicode="&#x159;" horiz-adv-x="424" 
d="M204 32l-48 -32h-86l63 348q9 57 -10 57q-18 0 -32.5 -34.5t-19.5 -83.5q-8 1 -22.5 3t-20.5 2q6 90 42 151.5t91 61.5q27 0 39 -16.5t12 -53.5q0 -43 -15 -112l30 -2q22 95 54.5 139.5t83.5 44.5q35 0 54 -24.5t19 -68.5q0 -49 -25.5 -81t-68.5 -34l-12 96
q-27 0 -56.5 -89.5t-71.5 -271.5zM189 714v15h29l68 -82l107 82h37v-16l-142 -154h-50z" />
    <glyph glyph-name="Sacute" unicode="&#x15a;" horiz-adv-x="586" 
d="M123 65l-30 -65h-75l54 286h65v-9q0 -90 49 -145t127 -55q46 0 78.5 25t32.5 69q0 37 -31 62.5t-101 55.5q-39 17 -66.5 32.5t-56.5 40.5t-44.5 58.5t-15.5 75.5q0 89 75 147t164 58q104 0 168 -68l34 62h72l-55 -260h-61q-9 93 -47 135.5t-110 42.5q-47 0 -71 -25
t-24 -49q0 -23 10.5 -42t32 -34t41.5 -25.5t51 -24.5q12 -5 18 -8q72 -32 112.5 -75t40.5 -118q0 -91 -75.5 -157.5t-174.5 -66.5q-67 0 -114.5 24t-72.5 53zM316 751v16l-1 -1l85 119h117v-18q-23 -19 -69 -57.5t-69 -58.5h-63z" />
    <glyph glyph-name="sacute" unicode="&#x15b;" horiz-adv-x="385" 
d="M24 82q0 40 23.5 66t63.5 28q0 -104 64 -104q20 0 33 11t13 30q0 30 -53 91q-5 5 -7 8q-74 80 -76 140q0 63 46 108t122 45q51 0 91 -29.5t40 -71.5q0 -39 -22.5 -62t-63.5 -24q1 8 1 22q0 39 -15 60.5t-41 21.5q-42 0 -42 -46q0 -18 10 -37.5t21 -32.5t31 -35
q23 -25 35.5 -40.5t26 -42.5t14.5 -52q0 -65 -50 -106.5t-124 -41.5q-64 0 -102.5 24.5t-38.5 69.5zM111 178l5 -2h-5v2zM203 559v17l-1 -1q12 22 41 74t44 80h117v-18l-138 -152h-63z" />
    <glyph glyph-name="Scircumflex" unicode="&#x15c;" horiz-adv-x="586" 
d="M123 65l-30 -65h-75l54 286h65v-9q0 -90 49 -145t127 -55q46 0 78.5 25t32.5 69q0 37 -31 62.5t-101 55.5q-39 17 -66.5 32.5t-56.5 40.5t-44.5 58.5t-15.5 75.5q0 89 75 147t164 58q104 0 168 -68l34 62h72l-55 -260h-61q-9 93 -47 135.5t-110 42.5q-47 0 -71 -25
t-24 -49q0 -23 10.5 -42t32 -34t41.5 -25.5t51 -24.5q12 -5 18 -8q72 -32 112.5 -75t40.5 -118q0 -91 -75.5 -157.5t-174.5 -66.5q-67 0 -114.5 24t-72.5 53zM516 767v-16h-29l-84 60l-130 -60h-39v15l162 119h53l68 -119z" />
    <glyph glyph-name="scircumflex" unicode="&#x15d;" horiz-adv-x="385" 
d="M24 82q0 40 23.5 66t63.5 28q0 -104 64 -104q20 0 33 11t13 30q0 30 -53 91q-5 5 -7 8q-74 80 -76 140q0 63 46 108t122 45q51 0 91 -29.5t40 -71.5q0 -39 -22.5 -62t-63.5 -24q1 8 1 22q0 39 -15 60.5t-41 21.5q-42 0 -42 -46q0 -18 10 -37.5t21 -32.5t31 -35
q23 -25 35.5 -40.5t26 -42.5t14.5 -52q0 -65 -50 -106.5t-124 -41.5q-64 0 -102.5 24.5t-38.5 69.5zM111 178l5 -2h-5v2zM383 575v-16h-29l-69 82l-107 -82h-37v17l-1 -1l143 154h51z" />
    <glyph glyph-name="Scedilla" unicode="&#x15e;" horiz-adv-x="586" 
d="M225 -236l-8 31q88 17 88 58q0 39 -67 39q-19 0 -27 -1l-3 4l60 95q-94 12 -145 75l-30 -65h-75l54 286h65v-9q0 -90 49 -145t127 -55q46 0 78.5 25t32.5 69q0 37 -31 62.5t-101 55.5q-39 17 -66.5 32.5t-56.5 40.5t-44.5 58.5t-15.5 75.5q0 89 75 147t164 58
q104 0 168 -68l34 62h72l-55 -260h-61q-9 93 -47 135.5t-110 42.5q-47 0 -71 -25t-24 -49q0 -23 10.5 -42t32 -34t41.5 -25.5t51 -24.5q12 -5 18 -8q72 -32 112.5 -75t40.5 -118q0 -90 -74.5 -156t-173.5 -68l-22 -34q79 0 79 -71q0 -43 -41.5 -75.5t-102.5 -43.5z" />
    <glyph glyph-name="scedilla" unicode="&#x15f;" horiz-adv-x="385" 
d="M91 -240l-8 31q87 17 87 59q0 39 -66 39q-19 0 -27 -1l-3 4l61 97q-52 6 -81.5 30t-29.5 63q0 40 23.5 66t63.5 28q2 -104 64 -104q20 0 33 11t13 30q0 30 -53 91q-5 5 -7 8q-74 80 -76 140q0 63 46 108t122 45q51 0 91 -29.5t40 -71.5q0 -39 -22.5 -62t-63.5 -24
q1 8 1 22q0 39 -15 60.5t-41 21.5q-42 0 -42 -46q0 -18 10 -37.5t21 -32.5t31 -35q23 -25 35.5 -40.5t26 -42.5t14.5 -52q0 -61 -45.5 -101.5t-115.5 -45.5l-23 -38q80 0 80 -71q0 -43 -41.5 -76t-102.5 -44z" />
    <glyph glyph-name="Scaron" unicode="&#x160;" horiz-adv-x="586" 
d="M123 65l-30 -65h-75l54 286h65v-9q0 -90 49 -145t127 -55q46 0 78.5 25t32.5 69q0 37 -31 62.5t-101 55.5q-39 17 -66.5 32.5t-56.5 40.5t-44.5 58.5t-15.5 75.5q0 89 75 147t164 58q104 0 168 -68l34 62h72l-55 -260h-61q-9 93 -47 135.5t-110 42.5q-47 0 -71 -25
t-24 -49q0 -23 10.5 -42t32 -34t41.5 -25.5t51 -24.5q12 -5 18 -8q72 -32 112.5 -75t40.5 -118q0 -91 -75.5 -157.5t-174.5 -66.5q-67 0 -114.5 24t-72.5 53zM287 869v16h29l83 -59l131 59h38v-15l-162 -119h-52l-68 119z" />
    <glyph glyph-name="scaron" unicode="&#x161;" horiz-adv-x="385" 
d="M24 82q0 40 23.5 66t63.5 28q0 -104 64 -104q20 0 33 11t13 30q0 30 -53 91q-5 5 -7 8q-74 80 -76 140q0 63 46 108t122 45q51 0 91 -29.5t40 -71.5q0 -39 -22.5 -62t-63.5 -24q1 8 1 22q0 39 -15 60.5t-41 21.5q-42 0 -42 -46q0 -18 10 -37.5t21 -32.5t31 -35
q23 -25 35.5 -40.5t26 -42.5t14.5 -52q0 -65 -50 -106.5t-124 -41.5q-64 0 -102.5 24.5t-38.5 69.5zM111 178l5 -2h-5v2zM187 714v15h30l68 -82l107 82h37v-16l-142 -154h-50z" />
    <glyph glyph-name="Tcommaaccent" unicode="&#x162;" horiz-adv-x="644" 
d="M669 417h-62q8 39 8 76q0 55 -23 86.5t-67 31.5h-40l-104 -488q-6 -27 12 -34.5t63 -7.5h15l-17 -81h-352l18 81h9q25 0 36 0.5t28 4t25 13t11 24.5l104 488h-38q-51 0 -95.5 -52.5t-62.5 -141.5h-66l59 274h597zM220 -80q0 17 12.5 28.5t32.5 11.5q22 0 39.5 -21
t17.5 -58q0 -46 -41 -84t-106 -39v27q35 2 55 23.5t20 46.5q0 16 -18 38q-12 14 -12 27z" />
    <glyph glyph-name="Tcommaaccent" unicode="&#x21a;" horiz-adv-x="644" 
d="M669 417h-62q8 39 8 76q0 55 -23 86.5t-67 31.5h-40l-104 -488q-6 -27 12 -34.5t63 -7.5h15l-17 -81h-352l18 81h9q25 0 36 0.5t28 4t25 13t11 24.5l104 488h-38q-51 0 -95.5 -52.5t-62.5 -141.5h-66l59 274h597zM220 -80q0 17 12.5 28.5t32.5 11.5q22 0 39.5 -21
t17.5 -58q0 -46 -41 -84t-106 -39v27q35 2 55 23.5t20 46.5q0 16 -18 38q-12 14 -12 27z" />
    <glyph glyph-name="tcommaaccent" unicode="&#x163;" horiz-adv-x="336" 
d="M59 473h73l20 95l73 77h70l-38 -172h101l-16 -85h-104l-49 -229q-8 -32 -8 -53q0 -29 22 -29q23 0 41 33t25 88q9 0 24 -0.5t24 -0.5q-32 -204 -148 -204q-114 0 -114 107q0 26 8 56l50 232h-69zM102 -84q0 18 12.5 29.5t31.5 11.5q22 0 40 -21t18 -58q0 -46 -41.5 -84.5
t-106.5 -39.5v27q35 2 55.5 24t20.5 47q0 16 -18 38q-12 14 -12 26z" />
    <glyph glyph-name="tcommaaccent" unicode="&#x21b;" horiz-adv-x="336" 
d="M59 473h73l20 95l73 77h70l-38 -172h101l-16 -85h-104l-49 -229q-8 -32 -8 -53q0 -29 22 -29q23 0 41 33t25 88q9 0 24 -0.5t24 -0.5q-32 -204 -148 -204q-114 0 -114 107q0 26 8 56l50 232h-69zM102 -84q0 18 12.5 29.5t31.5 11.5q22 0 40 -21t18 -58q0 -46 -41.5 -84.5
t-106.5 -39.5v27q35 2 55.5 24t20.5 47q0 16 -18 38q-12 14 -12 26z" />
    <glyph glyph-name="Tcaron" unicode="&#x164;" horiz-adv-x="644" 
d="M669 417h-62q8 39 8 76q0 55 -23 86.5t-67 31.5h-40l-104 -488q-6 -27 12 -34.5t63 -7.5h15l-17 -81h-352l18 81h9q25 0 36 0.5t28 4t25 13t11 24.5l104 488h-38q-51 0 -95.5 -52.5t-62.5 -141.5h-66l59 274h597zM345 869v16h29l84 -59l130 59h39v-15l-162 -119h-53
l-68 119z" />
    <glyph glyph-name="tcaron" unicode="&#x165;" horiz-adv-x="336" 
d="M58 473h73l20 95l73 77h70l-38 -172h101l-16 -85h-104l-49 -229q-8 -32 -8 -53q0 -29 22 -29q23 0 41 33t25 88q9 0 24 -0.5t24 -0.5q-32 -204 -148 -204q-114 0 -114 107q0 26 8 56l50 232h-69zM334 527v5q1 2 71 210h97v-8l1 1l-110 -208h-59z" />
    <glyph glyph-name="Umacron" unicode="&#x16a;" horiz-adv-x="747" 
d="M828 691l-17 -80q-45 -1 -65 -12t-25 -34q-10 -51 -34 -164.5t-36 -170.5q-27 -113 -103 -177.5t-201 -64.5q-240 0 -240 172q0 32 7 64l72 344q5 28 -5 35.5t-62 7.5q3 13 9 40t8 40h313q-2 -13 -8.5 -40t-8.5 -40q-55 0 -72 -7.5t-23 -35.5q-9 -46 -20.5 -101
t-25.5 -121t-22 -102q-6 -27 -6 -49q0 -56 34 -84t94 -28q80 0 123 38.5t61 123.5q11 54 34.5 162.5t33.5 157.5q4 24 -14.5 35t-71.5 11q3 13 9 40t8 40h254zM642 788h-256v75h256v-75z" />
    <glyph glyph-name="umacron" unicode="&#x16b;" horiz-adv-x="565" 
d="M351 113l-16 3q-60 -128 -152 -128q-49 0 -72.5 27.5t-23.5 85.5q0 56 25 149q14 48 20.5 77t9 47t-0.5 24t-11 6q-18 0 -34 -33t-25 -87q-10 2 -25 5.5t-22 4.5q21 105 56 158t91 53q81 0 81 -102q0 -49 -18 -123q-30 -123 -30 -164q0 -27 17 -46q23 0 48 32t38 59.5
t33 74.5l9 45q41 185 48 214h123l-81 -383q-5 -35 22 -35q21 0 38 31.5t24 89.5l38 -4q-9 -93 -42 -147t-89 -54q-82 0 -82 84q0 18 3 36zM455 596h-256v75h256v-75z" />
    <glyph glyph-name="Ubreve" unicode="&#x16c;" horiz-adv-x="747" 
d="M828 691l-16 -80q-47 0 -66 -10.5t-25 -35.5q-10 -51 -34 -164.5t-36 -170.5q-27 -113 -103 -177.5t-201 -64.5q-240 0 -240 172q0 32 7 64l72 344q5 28 -5 35.5t-62 7.5q3 13 9 40t8 40h313q-2 -13 -8.5 -40t-8.5 -40q-55 0 -72 -7.5t-23 -35.5q-9 -46 -20.5 -101
t-25.5 -121t-22 -102q-6 -27 -6 -49q0 -56 34 -84t94 -28q80 0 123 38.5t61 123.5q11 54 34.5 162.5t33.5 157.5q4 24 -14.5 35t-71.5 11q3 13 9 40t8 40h254zM507 751q-46 0 -74 24t-28 71q0 14 5 39h41q-5 -26 14.5 -44.5t57.5 -18.5q40 0 73.5 18t40.5 45h44
q-16 -65 -66 -99.5t-108 -34.5z" />
    <glyph glyph-name="ubreve" unicode="&#x16d;" horiz-adv-x="565" 
d="M351 113l-16 3q-60 -128 -152 -128q-49 0 -72.5 27.5t-23.5 85.5q0 56 25 149q14 48 20.5 77t9 47t-0.5 24t-11 6q-18 0 -34 -33t-25 -87q-10 2 -25 5.5t-22 4.5q21 105 56 158t91 53q81 0 81 -102q0 -49 -18 -123q-30 -123 -30 -164q0 -27 17 -46q23 0 48 32t38 59.5
t33 74.5l9 45q41 185 48 214h123l-81 -383q-5 -35 22 -35q21 0 38 31.5t24 89.5l38 -4q-9 -93 -42 -147t-89 -54q-82 0 -82 84q0 18 3 36zM320 559q-39 0 -62.5 31t-23.5 90q0 25 4 49h40q-3 -36 13 -62.5t45 -26.5q35 0 63 25t35 64h46q-13 -80 -60 -125t-100 -45z" />
    <glyph glyph-name="Uring" unicode="&#x16e;" horiz-adv-x="747" 
d="M828 691l-16 -80q-47 0 -66 -10.5t-25 -35.5q-10 -51 -34 -164.5t-36 -170.5q-27 -113 -103 -177.5t-201 -64.5q-240 0 -240 172q0 32 7 64l72 344q5 28 -5 35.5t-62 7.5q3 13 9 40t8 40h313q-2 -13 -8.5 -40t-8.5 -40q-55 0 -72 -7.5t-23 -35.5q-9 -46 -20.5 -101
t-25.5 -121t-22 -102q-6 -27 -6 -49q0 -56 34 -84t94 -28q80 0 123 38.5t61 123.5q11 54 34.5 162.5t33.5 157.5q4 24 -14.5 35t-71.5 11q3 13 9 40t8 40h254zM424 848q0 43 29 73t70 30t70.5 -30t29.5 -73q0 -42 -29.5 -72t-70.5 -30t-70 30t-29 72zM471 848q0 -22 14 -37
t37 -15q24 0 39 15t15 37q0 23 -15 38.5t-39 15.5q-23 0 -37 -15.5t-14 -38.5z" />
    <glyph glyph-name="uring" unicode="&#x16f;" horiz-adv-x="565" 
d="M351 113l-16 3q-60 -128 -152 -128q-49 0 -72.5 27.5t-23.5 85.5q0 56 25 149q14 48 20.5 77t9 47t-0.5 24t-11 6q-18 0 -34 -33t-25 -87q-10 2 -25 5.5t-22 4.5q21 105 56 158t91 53q81 0 81 -102q0 -49 -18 -123q-30 -123 -30 -164q0 -27 17 -46q23 0 48 32t38 59.5
t33 74.5l9 45q41 185 48 214h123l-81 -383q-5 -35 22 -35q21 0 38 31.5t24 89.5l38 -4q-9 -93 -42 -147t-89 -54q-82 0 -82 84q0 18 3 36zM237 656q0 43 29 73t70 30t70 -30t29 -73q0 -42 -29 -72t-70 -30t-70 30t-29 72zM283 656q0 -22 14.5 -37t37.5 -15q24 0 39 15t15 37
q0 23 -15 39t-39 16q-23 0 -37.5 -16t-14.5 -39z" />
    <glyph glyph-name="Uhungarumlaut" unicode="&#x170;" horiz-adv-x="747" 
d="M828 691l-16 -80q-47 0 -66 -10.5t-25 -35.5q-10 -51 -34 -164.5t-36 -170.5q-27 -113 -103 -177.5t-201 -64.5q-240 0 -240 172q0 32 7 64l72 344q5 28 -5 35.5t-62 7.5q3 13 9 40t8 40h313q-2 -13 -8.5 -40t-8.5 -40q-55 0 -72 -7.5t-23 -35.5q-9 -46 -20.5 -101
t-25.5 -121t-22 -102q-6 -27 -6 -49q0 -56 34 -84t94 -28q80 0 123 38.5t61 123.5q11 54 34.5 162.5t33.5 157.5q4 24 -14.5 35t-71.5 11q3 13 9 40t8 40h254zM363 751v16l-1 -1l86 119h116v-18q-26 -22 -74 -62t-64 -54h-63zM534 751v16l-1 -1l86 119h116v-18
q-26 -22 -74 -62t-64 -54h-63z" />
    <glyph glyph-name="uhungarumlaut" unicode="&#x171;" horiz-adv-x="565" 
d="M351 113l-16 3q-60 -128 -152 -128q-49 0 -72.5 27.5t-23.5 85.5q0 56 25 149q14 48 20.5 77t9 47t-0.5 24t-11 6q-18 0 -34 -33t-25 -87q-10 2 -25 5.5t-22 4.5q21 105 56 158t91 53q81 0 81 -102q0 -49 -18 -123q-30 -123 -30 -164q0 -27 17 -46q23 0 48 32t38 59.5
t33 74.5l9 45q41 185 48 214h123l-81 -383q-5 -35 22 -35q21 0 38 31.5t24 89.5l38 -4q-9 -93 -42 -147t-89 -54q-82 0 -82 84q0 18 3 36zM362 559v17l-1 -1l96 154h117v-18l-154 -152h-58zM191 559v17l-1 -1l95 154h117v-18l-153 -152h-58z" />
    <glyph glyph-name="Uogonek" unicode="&#x172;" horiz-adv-x="747" 
d="M440 -189l5 -27q-23 -9 -73 -9q-52 0 -86.5 20.5t-34.5 56.5q0 69 111 136h-15q-240 0 -240 172q0 32 7 64l72 344q5 28 -5 35.5t-62 7.5q3 13 9 40t8 40h313q-2 -13 -8.5 -40t-8.5 -40q-55 0 -72 -7.5t-23 -35.5q-9 -46 -20.5 -101t-25.5 -121t-22 -102q-6 -27 -6 -49
q0 -56 34 -84t94 -28q80 0 123 38.5t61 123.5q11 54 34.5 162.5t33.5 157.5q4 24 -14.5 35t-71.5 11q3 13 9 40t8 40h254q-2 -13 -8.5 -40t-8.5 -40q-45 -1 -65 -12t-25 -34q-10 -51 -34 -164.5t-36 -170.5q-22 -96 -79 -157.5t-149 -78.5q-77 -52 -77 -128q0 -26 17 -42.5
t42 -16.5q17 0 35 4z" />
    <glyph glyph-name="uogonek" unicode="&#x173;" horiz-adv-x="565" 
d="M494 -171l5 -28q-22 -9 -73 -9q-52 0 -86.5 21t-34.5 57q0 63 95 126q-52 16 -52 80q0 19 3 37l-17 2q-58 -127 -151 -127q-49 0 -72.5 27.5t-23.5 85.5q0 56 25 149q14 48 20.5 77t9 47t-0.5 24t-11 6q-18 0 -34 -33t-25 -87q-10 2 -25 5.5t-22 4.5q21 105 56 158t91 53
q81 0 81 -102q0 -49 -18 -123q-30 -123 -30 -164q0 -27 17 -46q23 0 48 32t38 59.5t33 74.5l9 45q41 185 48 214h123l-81 -383q-5 -35 22 -35q21 0 38 31.5t24 89.5l38 -4q-16 -170 -103 -197q-58 -48 -58 -113q0 -27 17 -43t43 -16q16 0 34 4z" />
    <glyph glyph-name="Wcircumflex" unicode="&#x174;" horiz-adv-x="977" 
d="M667 231h14q22 44 69 133.5t69 132.5q30 57 30 79q0 38 -63 35l17 80h257l-17 -81q-39 -1 -65 -26t-61 -87l-269 -503h-83l-38 359l-194 -359h-74l-73 537q-7 46 -23 62t-52 17l18 81h278l-17 -81q-67 -1 -59 -79l33 -300h15l136 244l-6 56q-5 46 -17 62t-45 17l18 81
h265l-17 -81q-42 -2 -54.5 -18.5t-10.5 -60.5zM742 767v-16h-29l-83 60l-131 -60h-38v15l162 119h52l68 -119z" />
    <glyph glyph-name="wcircumflex" unicode="&#x175;" horiz-adv-x="735" 
d="M492 476l-25 -320q0 -27 15 -35q60 36 96 96t36 140q0 52 -12 93v-1q-7 33 4 56l83 20q26 -5 32 -62q5 -99 -42 -198.5t-132.5 -174t-188.5 -102.5q-29 2 -26 39l8 113q-98 -116 -205 -152q-28 2 -25 39l28 353l-7 16q-36 5 -48 -9.5t-17 -78.5l-21 3t-19 2
q9 94 33.5 136.5t94.5 42.5q29 0 65 -6l43 -62l-1 1l-21 -264q0 -28 15 -36q59 40 91 101l18 248q0 8 84 8q42 0 44 -6zM562 575v-16h-29l-68 82l-107 -82h-37v17l-1 -1l143 154h50z" />
    <glyph glyph-name="Ycircumflex" unicode="&#x176;" horiz-adv-x="684" 
d="M750 611q-57 -1 -121 -81l-179 -230l-28 -130q-6 -27 -6 -44q0 -29 17 -37t62 -8l-17 -81h-325l18 81q56 0 72 14t30 75l27 131l-88 219l-5 11q-15 35 -23.5 48t-25 22.5t-45.5 9.5q3 13 8.5 40t8.5 40h323q-3 -13 -8.5 -40t-8.5 -40q-45 0 -62.5 -8t-17.5 -29
q0 -9 8 -35l55 -159q16 21 36 48.5l44 60.5t36 49q18 21 18 38q0 32 -54 35q3 13 9 40t8 40h251zM630 767v-16h-30l-83 60l-131 -60h-38v15l162 119h52l69 -119z" />
    <glyph glyph-name="ycircumflex" unicode="&#x177;" horiz-adv-x="514" 
d="M317 59l-16 3q-57 -74 -117 -74q-95 0 -95 114q0 47 15 117q6 28 17 68q22 93 18 111q-4 11 -14 11q-18 0 -34 -34.5t-25 -90.5l-44 2q21 109 54.5 164t91.5 55q87 0 87 -98q0 -41 -20 -127q-31 -133 -31 -171q0 -27 12 -39q30 0 67.5 50t62.5 127q3 9 26 141
q16 91 19 107h126q-17 -84 -51.5 -244t-38.5 -181v1q-20 -74 -46.5 -129t-53 -86.5t-59 -51t-59.5 -25.5t-59 -6q-48 0 -84.5 19.5t-36.5 61.5q0 35 27 58.5t70 26.5l34 -108q46 0 85 51.5t72 176.5zM438 575v-16h-29l-68 82l-107 -82h-37v17l-1 -1l143 154h50z" />
    <glyph glyph-name="Ydieresis" unicode="&#x178;" horiz-adv-x="684" 
d="M750 611q-57 -1 -121 -81l-179 -230l-28 -130q-6 -27 -6 -44q0 -29 17 -37t62 -8l-17 -81h-325l18 81q56 0 72 14t30 75l27 131l-88 219l-5 11q-15 35 -23.5 48t-25 22.5t-45.5 9.5q3 13 8.5 40t8.5 40h323q-3 -13 -8.5 -40t-8.5 -40q-45 0 -62.5 -8t-17.5 -29
q0 -9 8 -35l55 -159q16 21 36 48.5l44 60.5t36 49q18 21 18 38q0 32 -54 35q3 13 9 40t8 40h251zM658 838q0 -26 -20 -46.5t-44 -20.5q-26 0 -45.5 20.5t-19.5 46.5q0 27 19.5 47.5t45.5 20.5q24 0 44 -20.5t20 -47.5zM477 838q0 -27 -19 -47t-46 -20q-25 0 -44.5 20.5
t-19.5 46.5q0 27 19.5 47.5t44.5 20.5q27 0 46 -20.5t19 -47.5z" />
    <glyph glyph-name="Zacute" unicode="&#x179;" horiz-adv-x="636" 
d="M-11 0l10 46l500 558l-2 7h-124q-61 0 -118 -61.5t-80 -141.5h-76q11 48 35 141.5t35 141.5h564l-9 -44l-505 -559l2 -7h160q56 0 112.5 63t90.5 160h77l-94 -304h-578zM380 751v16l-1 -1l86 119h116v-18q-22 -19 -68.5 -57.5t-68.5 -58.5h-64z" />
    <glyph glyph-name="zacute" unicode="&#x17a;" horiz-adv-x="439" 
d="M332 376l-11 9l-74 -32q-37 24 -63 24q-27 0 -46.5 -25.5t-23.5 -58.5q-7 1 -23 3t-23 2q11 98 45 152.5t87 54.5q60 -3 119 -50q52 2 92 48l66 -46l-189 -205l-131 -134l11 -8l72 32q30 -41 72 -41q28 0 46.5 24t24.5 61q8 -1 20.5 -3.5t19.5 -3.5q-34 -191 -145 -191
q-39 0 -66 13t-57 40q-45 -3 -96 -50q-8 6 -26 20.5t-28 23.5l220 227zM241 559v17l-1 -1q15 27 44.5 79.5t41.5 74.5h117v-18l-139 -152h-63z" />
    <glyph glyph-name="Zdotaccent" unicode="&#x17b;" horiz-adv-x="636" 
d="M-11 0l10 46l500 558l-2 7h-124q-61 0 -118 -61.5t-80 -141.5h-76q11 48 35 141.5t35 141.5h564l-9 -44l-505 -559l2 -7h160q56 0 112.5 63t90.5 160h77l-94 -304h-578zM401 813q0 34 21 60.5t51 26.5q23 0 36.5 -18.5t13.5 -45.5q0 -34 -21 -59t-48 -25q-23 0 -38 18.5
t-15 42.5z" />
    <glyph glyph-name="zdotaccent" unicode="&#x17c;" horiz-adv-x="439" 
d="M332 376l-11 9l-74 -32q-37 24 -63 24q-27 0 -46.5 -25.5t-23.5 -58.5q-7 1 -23 3t-23 2q11 98 45 152.5t87 54.5q60 -3 119 -50q52 2 92 48l66 -46l-189 -205l-131 -134l11 -8l72 32q30 -41 72 -41q28 0 46.5 24t24.5 61q8 -1 20.5 -3.5t19.5 -3.5q-34 -191 -145 -191
q-39 0 -66 13t-57 40q-45 -3 -96 -50q-8 6 -26 20.5t-28 23.5l220 227zM260 642q0 37 23 67t57 30q25 0 40 -20.5t15 -51.5q0 -37 -23 -64t-53 -27q-26 0 -42.5 19.5t-16.5 46.5z" />
    <glyph glyph-name="Zcaron" unicode="&#x17d;" horiz-adv-x="636" 
d="M-11 0l10 46l500 558l-2 7h-124q-61 0 -118 -61.5t-80 -141.5h-76q11 48 35 141.5t35 141.5h564l-9 -44l-505 -559l2 -7h160q56 0 112.5 63t90.5 160h77l-94 -304h-578zM351 869v16h29l84 -59l130 59h39v-15l-162 -119h-53l-68 119z" />
    <glyph glyph-name="zcaron" unicode="&#x17e;" horiz-adv-x="439" 
d="M332 376l-11 9l-74 -32q-37 24 -63 24q-27 0 -46.5 -25.5t-23.5 -58.5q-7 1 -23 3t-23 2q11 98 45 152.5t87 54.5q60 -3 119 -50q52 2 92 48l66 -46l-189 -205l-131 -134l11 -8l72 32q30 -41 72 -41q28 0 46.5 24t24.5 61q8 -1 20.5 -3.5t19.5 -3.5q-34 -191 -145 -191
q-39 0 -66 13t-57 40q-45 -3 -96 -50q-8 6 -26 20.5t-28 23.5l220 227zM226 714v15h29l69 -82l106 82h38v-16l-142 -154h-51z" />
    <glyph glyph-name="florin" unicode="&#x192;" horiz-adv-x="544" 
d="M76 309l14 49h94l25 100q17 70 76.5 125t146.5 55q59 0 97 -27t38 -66q0 -20 -11.5 -33.5t-33.5 -13.5q-21 0 -34 14.5t-18 31.5t-15.5 31.5t-26.5 14.5q-32 0 -51 -34t-39 -105l-26 -93h120l-14 -49h-117l-88 -327q-23 -84 -75.5 -136.5t-119.5 -52.5q-45 0 -76.5 19.5
t-31.5 49.5q0 19 10 32t27 13q14 0 25 -10.5t17 -23.5t15.5 -23.5t20.5 -10.5q32 0 64 130l86 340h-99z" />
    <glyph glyph-name="Scommaaccent" unicode="&#x218;" horiz-adv-x="586" 
d="M123 65l-30 -65h-75l54 286h65v-9q0 -90 49 -145t127 -55q46 0 78.5 25t32.5 69q0 37 -31 62.5t-101 55.5q-39 17 -66.5 32.5t-56.5 40.5t-44.5 58.5t-15.5 75.5q0 89 75 147t164 58q104 0 168 -68l34 62h72l-55 -260h-61q-9 93 -47 135.5t-110 42.5q-47 0 -71 -25
t-24 -49q0 -23 10.5 -42t32 -34t41.5 -25.5t51 -24.5q12 -5 18 -8q72 -32 112.5 -75t40.5 -118q0 -91 -75.5 -157.5t-174.5 -66.5q-67 0 -114.5 24t-72.5 53zM242 -80q0 17 13 28.5t32 11.5q22 0 39.5 -21t17.5 -58q0 -46 -41 -84t-106 -39v27q35 2 55.5 24t20.5 46
q0 17 -19 38q-12 14 -12 27z" />
    <glyph glyph-name="scommaaccent" unicode="&#x219;" horiz-adv-x="385" 
d="M24 82q0 40 23.5 66t63.5 28q0 -104 64 -104q20 0 33 11t13 30q0 30 -53 91q-5 5 -7 8q-74 80 -76 140q0 63 46 108t122 45q51 0 91 -29.5t40 -71.5q0 -39 -22.5 -62t-63.5 -24q1 8 1 22q0 39 -15 60.5t-41 21.5q-42 0 -42 -46q0 -18 10 -37.5t21 -32.5t31 -35
q23 -25 35.5 -40.5t26 -42.5t14.5 -52q0 -65 -50 -106.5t-124 -41.5q-64 0 -102.5 24.5t-38.5 69.5zM111 178l5 -2h-5v2zM108 -84q0 18 12.5 29.5t31.5 11.5q22 0 40 -21t18 -58q0 -46 -41 -84.5t-106 -39.5v27q35 2 55 24t20 47q0 16 -18 38q-12 14 -12 26z" />
    <glyph glyph-name="schwa" unicode="&#x259;" horiz-adv-x="425" 
d="M26 104q0 70 67.5 124t184.5 105q8 92 -72 92q-73 0 -129 -111l-44 24q87 167 212 167q168 0 168 -187q0 -141 -75.5 -235.5t-173.5 -94.5q-58 0 -98 32t-40 84zM144 109q0 -19 8.5 -30t22.5 -11q40 0 70.5 62.5t33.5 145.5q-135 -75 -135 -167z" />
    <glyph glyph-name="quoteleft" unicode="&#x2bb;" horiz-adv-x="381" 
d="M336 433q0 -26 -20 -46t-52 -20q-42 0 -75 39.5t-33 107.5q0 78 71 141.5t175 64.5v-53q-66 -1 -104.5 -33t-38.5 -75q0 -15 7.5 -29t14.5 -21.5t21 -19.5v1q34 -30 34 -57z" />
    <glyph glyph-name="quoteleft" unicode="&#x2018;" horiz-adv-x="381" 
d="M336 433q0 -26 -20 -46t-52 -20q-42 0 -75 39.5t-33 107.5q0 78 71 141.5t175 64.5v-53q-66 -1 -104.5 -33t-38.5 -75q0 -15 7.5 -29t14.5 -21.5t21 -19.5v1q34 -30 34 -57z" />
    <glyph glyph-name="circumflex" unicode="&#x2c6;" horiz-adv-x="500" 
d="M370 506v-15h-29l-68 81l-107 -81h-37v16l-1 -1l143 154h50z" />
    <glyph glyph-name="caron" unicode="&#x2c7;" horiz-adv-x="500" 
d="M175 645v15h29l69 -82l106 82h37v-16l-141 -153h-51z" />
    <glyph glyph-name="breve" unicode="&#x2d8;" horiz-adv-x="500" 
d="M242 491q-38 0 -61.5 30.5t-23.5 90.5q0 24 4 48h40q-3 -35 13 -62t45 -27q35 0 62.5 25.5t35.5 63.5h45q-13 -80 -59.5 -124.5t-100.5 -44.5z" />
    <glyph glyph-name="dotaccent" unicode="&#x2d9;" horiz-adv-x="500" 
d="M209 573q0 38 22.5 67.5t57.5 29.5q25 0 40 -20.5t15 -51.5q0 -37 -23 -64t-53 -27q-26 0 -42.5 19.5t-16.5 46.5z" />
    <glyph glyph-name="ring" unicode="&#x2da;" horiz-adv-x="500" 
d="M161 587q0 43 29 73t70 30t70 -30t29 -73q0 -42 -29 -71.5t-70 -29.5t-70 29.5t-29 71.5zM207 587q0 -22 14.5 -37t37.5 -15q24 0 39 15t15 37q0 24 -15 39.5t-39 15.5t-38 -15.5t-14 -39.5z" />
    <glyph glyph-name="ogonek" unicode="&#x2db;" horiz-adv-x="500" 
d="M276 -189l5 -27q-23 -9 -73 -9q-52 0 -86 20.5t-34 56.5q0 48 51 94t133 77q2 -8 8 -17q-98 -55 -98 -140q0 -26 17 -42.5t42 -16.5q17 0 35 4z" />
    <glyph glyph-name="tilde" unicode="&#x2dc;" horiz-adv-x="500" 
d="M382 649l27 -8q-14 -54 -41 -94.5t-51 -40.5q-14 0 -70 30q-54 30 -73 30q-18 0 -28.5 -15t-23.5 -47l-30 10q12 44 40 90t44 46q17 0 71 -31h-1q50 -31 75 -31q17 0 35.5 20t25.5 41z" />
    <glyph glyph-name="hungarumlaut" unicode="&#x2dd;" horiz-adv-x="500" 
d="M286 491v16l-1 -1l95 154h117v-18l-153 -151h-58zM115 491v16l-1 -1l95 154h117v-18l-153 -151h-58z" />
    <glyph glyph-name="Delta" unicode="&#x394;" horiz-adv-x="544" 
d="M532 0h-520l223 631h45zM226 457l-137 -402h293z" />
    <glyph glyph-name="Delta" unicode="&#x2206;" horiz-adv-x="544" 
d="M532 0h-520l223 631h45zM226 457l-137 -402h293z" />
    <glyph glyph-name="Omega" unicode="&#x3a9;" horiz-adv-x="544" 
d="M275 578q-57 0 -87.5 -66.5t-30.5 -148.5q0 -133 29 -228t70 -112l-6 -23h-233l-30 156h29l53 -94h64l6 10q-48 48 -79.5 124t-31.5 156q0 114 69.5 200t178.5 86t178.5 -86t69.5 -200q0 -80 -31.5 -156t-79.5 -124l6 -10h64l53 94h29l-30 -156h-233l-6 23q41 17 70 112
t29 228q0 82 -31 148.5t-89 66.5z" />
    <glyph glyph-name="Omega" unicode="&#x2126;" horiz-adv-x="544" 
d="M275 578q-57 0 -87.5 -66.5t-30.5 -148.5q0 -133 29 -228t70 -112l-6 -23h-233l-30 156h29l53 -94h64l6 10q-48 48 -79.5 124t-31.5 156q0 114 69.5 200t178.5 86t178.5 -86t69.5 -200q0 -80 -31.5 -156t-79.5 -124l6 -10h64l53 94h29l-30 -156h-233l-6 23q41 17 70 112
t29 228q0 82 -31 148.5t-89 66.5z" />
    <glyph glyph-name="lambda" unicode="&#x3bb;" horiz-adv-x="528" 
d="M283 608l115 -454q16 -62 24 -79.5t23 -17.5q12 0 27 27t32 27q18 0 28.5 -13.5t10.5 -33.5q0 -32 -26.5 -52.5t-63.5 -20.5q-86 0 -115 111l-50 204l-141 -306h-125l223 481l-29 121q-18 74 -58 74q-16 0 -41 -35t-43 -35q-41 0 -41 44q0 33 32.5 58.5t83.5 25.5
q54 0 87.5 -35.5t46.5 -90.5z" />
    <glyph glyph-name="pi" unicode="&#x3c0;" horiz-adv-x="544" 
d="M174 22q-32 -44 -78 -33q-33 8 -38 34q-5 23 22 44q64 48 89 115.5t25 179.5h-31q-35 0 -53 -13t-27 -48l-27 5q15 73 37.5 103t62.5 30h332v-77h-91l-21 -229q-3 -51 27 -51q34 0 55 62l30 -3q-13 -78 -43 -113t-69 -35q-48 0 -70.5 29t-17.5 79l27 261h-69
q-5 -227 -72 -340z" />
    <glyph glyph-name="Wgrave" unicode="&#x1e80;" horiz-adv-x="977" 
d="M667 231h14q22 44 69 133.5t69 132.5q30 57 30 79q0 38 -63 35l17 80h257l-17 -81q-39 -1 -65 -26t-61 -87l-269 -503h-83l-38 359l-194 -359h-74l-73 537q-7 46 -23 62t-52 17l18 81h278l-17 -81q-67 -1 -59 -79l33 -300h15l136 244l-6 56q-5 46 -17 62t-45 17l18 81
h265l-17 -81q-42 -2 -54.5 -18.5t-10.5 -60.5zM653 766v-15h-64l-102 116v18h114q2 -3 52 -119z" />
    <glyph glyph-name="wgrave" unicode="&#x1e81;" horiz-adv-x="735" 
d="M492 476l-25 -320q0 -27 15 -35q60 36 96 96t36 140q0 52 -12 93v-1q-7 33 4 56l83 20q26 -5 32 -62q5 -99 -42 -198.5t-132.5 -174t-188.5 -102.5q-29 2 -26 39l8 113q-98 -116 -205 -152q-28 2 -25 39l28 353l-7 16q-36 5 -48 -9.5t-17 -78.5l-21 3t-19 2
q9 94 33.5 136.5t94.5 42.5q29 0 65 -6l43 -62l-1 1l-21 -264q0 -28 15 -36q59 40 91 101l18 248q0 8 84 8q42 0 44 -6zM503 576v-17h-63l-139 152v18h116q12 -22 42 -74t45 -80z" />
    <glyph glyph-name="Wacute" unicode="&#x1e82;" horiz-adv-x="977" 
d="M667 231h14q22 44 69 133.5t69 132.5q30 57 30 79q0 38 -63 35l17 80h257l-17 -81q-39 -1 -65 -26t-61 -87l-269 -503h-83l-38 359l-194 -359h-74l-73 537q-7 46 -23 62t-52 17l18 81h278l-17 -81q-67 -1 -59 -79l33 -300h15l136 244l-6 56q-5 46 -17 62t-45 17l18 81
h265l-17 -81q-42 -2 -54.5 -18.5t-10.5 -60.5zM542 751v16l-1 -1l86 119h116v-18q-22 -19 -68 -57.5t-69 -58.5h-64z" />
    <glyph glyph-name="wacute" unicode="&#x1e83;" horiz-adv-x="735" 
d="M492 476l-25 -320q-2 -25 15 -35q60 36 96 96t36 140q0 52 -12 93v-1q-7 33 4 56l83 20q26 -5 32 -62q5 -99 -42 -198.5t-132.5 -174t-188.5 -102.5q-29 2 -26 39l8 113q-98 -116 -205 -152q-28 2 -25 39l28 353l-7 16q-36 5 -48 -9.5t-17 -78.5l-21 3t-19 2
q9 94 33.5 136.5t94.5 42.5q29 0 65 -6l43 -62l-1 1l-21 -264q0 -28 15 -36q59 40 91 101l18 248q0 8 84 8q42 0 44 -6zM382 559v17l-1 -1q12 23 42 75t44 79h117v-18l-138 -152h-64z" />
    <glyph glyph-name="Wdieresis" unicode="&#x1e84;" horiz-adv-x="977" 
d="M667 231h14q22 44 69 133.5t69 132.5q30 57 30 79q0 38 -63 35l17 80h257l-17 -81q-39 -1 -65 -26t-61 -87l-269 -503h-83l-38 359l-194 -359h-74l-73 537q-7 46 -23 62t-52 17l18 81h278l-17 -81q-67 -1 -59 -79l33 -300h15l136 244l-6 56q-5 46 -17 62t-45 17l18 81
h265l-17 -81q-42 -2 -54.5 -18.5t-10.5 -60.5zM770 838q0 -26 -19.5 -46.5t-43.5 -20.5q-26 0 -45.5 20.5t-19.5 46.5q0 27 19.5 47.5t45.5 20.5q24 0 43.5 -20.5t19.5 -47.5zM589 838q0 -27 -18.5 -47t-45.5 -20q-25 0 -44.5 20.5t-19.5 46.5q0 27 19.5 47.5t44.5 20.5
q27 0 45.5 -20.5t18.5 -47.5z" />
    <glyph glyph-name="wdieresis" unicode="&#x1e85;" horiz-adv-x="735" 
d="M492 476l-25 -320q0 -27 15 -35q60 36 96 96t36 140q0 52 -12 93v-1q-7 33 4 56l83 20q26 -5 32 -62q5 -99 -42 -198.5t-132.5 -174t-188.5 -102.5q-29 2 -26 39l8 113q-98 -116 -205 -152q-28 2 -25 39l28 353l-7 16q-36 5 -48 -9.5t-17 -78.5l-21 3t-19 2
q9 94 33.5 136.5t94.5 42.5q29 0 65 -6l43 -62l-1 1l-21 -264q0 -28 15 -36q59 40 91 101l18 248q0 8 84 8q42 0 44 -6zM611 646q0 -26 -20 -46t-44 -20q-26 0 -45.5 20t-19.5 46q0 27 19.5 48t45.5 21q24 0 44 -21t20 -48zM429 646q0 -27 -18.5 -46.5t-45.5 -19.5
q-25 0 -45 20t-20 46q0 27 20 48t45 21q27 0 45.5 -21t18.5 -48z" />
    <glyph glyph-name="uni1e9e" unicode="&#x1e9e;" horiz-adv-x="773" 
d="M482 -12q-86 0 -154 33l32 177h74q-3 -24 -3 -42q0 -94 57 -94q39 0 73.5 42t34.5 118q0 114 -68 114q-49 0 -108 -32l-59 66l224 237l-2 14h-218l-106 -501v1q-3 -7 -3 -19q0 -14 8.5 -18t30.5 -7l3 -1h3q-3 -12 -9 -37.5t-8 -38.5h-289q3 13 9 38.5t8 38.5h5
q27 3 41.5 6.5t28.5 14.5t18 29l94 445v-1q2 6 2 14q0 16 -16 21t-60 5q2 13 8 40t9 40h630l-4 -64l-203 -206l6 -14q31 6 53 6q63 0 98 -45.5t35 -123.5q0 -66 -28 -118t-71.5 -80.5t-88.5 -43t-87 -14.5z" />
    <glyph glyph-name="Ygrave" unicode="&#x1ef2;" horiz-adv-x="684" 
d="M750 611q-57 -1 -121 -81l-179 -230l-28 -130q-6 -27 -6 -44q0 -29 17 -37t62 -8l-17 -81h-325l18 81q56 0 72 14t30 75l27 131l-88 219l-5 11q-15 35 -23.5 48t-25 22.5t-45.5 9.5q3 13 8.5 40t8.5 40h323q-3 -13 -8.5 -40t-8.5 -40q-45 0 -62.5 -8t-17.5 -29
q0 -9 8 -35l55 -159q16 21 36 48.5l44 60.5t36 49q18 21 18 38q0 32 -54 35q3 13 9 40t8 40h251zM540 766v-15h-63l-103 116v18h115q9 -21 26.5 -62t24.5 -57z" />
    <glyph glyph-name="ygrave" unicode="&#x1ef3;" horiz-adv-x="514" 
d="M317 59l-16 3q-57 -74 -117 -74q-95 0 -95 114q0 47 15 117q6 28 17 68q22 93 18 111q-4 11 -14 11q-18 0 -34 -34.5t-25 -90.5l-44 2q21 109 54.5 164t91.5 55q87 0 87 -98q0 -41 -20 -127q-31 -133 -31 -171q0 -27 12 -39q30 0 67.5 50t62.5 127q3 9 26 141
q16 91 19 107h126q-17 -84 -51.5 -244t-38.5 -181v1q-20 -74 -46.5 -129t-53 -86.5t-59 -51t-59.5 -25.5t-59 -6q-48 0 -84.5 19.5t-36.5 61.5q0 35 27 58.5t70 26.5l34 -108q46 0 85 51.5t72 176.5zM379 576v-17h-63l-139 152v18h116q12 -22 42 -74t45 -80z" />
    <glyph glyph-name="uni2011" unicode="&#x2011;" horiz-adv-x="318" 
d="M46 306h242v-110h-242v110z" />
    <glyph glyph-name="endash" unicode="&#x2013;" horiz-adv-x="488" 
d="M66 306h393v-110h-393v110z" />
    <glyph glyph-name="emdash" unicode="&#x2014;" horiz-adv-x="1000" 
d="M113 289h810v-80h-810v80z" />
    <glyph glyph-name="quoteright" unicode="&#x2019;" horiz-adv-x="381" 
d="M184 655q0 26 20 45.5t52 19.5q42 0 75 -39.5t33 -107.5q0 -77 -71 -141t-175 -65v53q66 1 105 33.5t39 74.5q0 15 -7.5 29.5t-14.5 21t-22 19.5v-1q-34 32 -34 58z" />
    <glyph glyph-name="quotesinglbase" unicode="&#x201a;" horiz-adv-x="381" 
d="M58 56q0 26 20 46t53 20q42 0 74.5 -40t32.5 -107q0 -78 -71 -141.5t-175 -64.5v53q66 1 105 33.5t39 74.5q0 15 -7.5 29t-14.5 21.5t-21 19.5v-1q-35 29 -35 57z" />
    <glyph glyph-name="quotedblleft" unicode="&#x201c;" horiz-adv-x="621" 
d="M335 433q0 -26 -20 -46t-52 -20q-42 0 -75 39.5t-33 107.5q0 78 71 141.5t175 64.5v-53q-66 -1 -104.5 -33t-38.5 -75q0 -15 7.5 -29t14.5 -21.5t21 -19.5v1q34 -30 34 -57zM576 433q0 -26 -20 -46t-52 -20q-42 0 -75 39.5t-33 107.5q0 78 71 141.5t176 64.5v-53
q-67 -1 -105.5 -33t-38.5 -75q0 -15 7.5 -29t14.5 -21.5t21 -19.5v1q34 -30 34 -57z" />
    <glyph glyph-name="quotedblright" unicode="&#x201d;" horiz-adv-x="621" 
d="M424 655q0 25 20.5 45t52.5 20q42 0 75 -39.5t33 -107.5q0 -77 -71.5 -141t-175.5 -65v53q67 1 105.5 33.5t38.5 74.5q0 15 -7.5 29t-14.5 21.5t-21 19.5v-1q-13 12 -17.5 17t-11 16.5t-6.5 24.5zM183 655q0 26 20 45.5t52 19.5q42 0 75 -39.5t33 -107.5q0 -77 -71 -141
t-175 -65v53q66 1 105 33.5t39 74.5q0 15 -7.5 29.5t-14.5 21t-22 19.5v-1q-34 32 -34 58z" />
    <glyph glyph-name="quotedblbase" unicode="&#x201e;" horiz-adv-x="621" 
d="M299 56q0 26 20 46t52 20q42 0 75 -40t33 -107q0 -78 -71 -141.5t-176 -64.5v53q67 1 105.5 33t38.5 75q0 15 -7.5 29t-14.5 21.5t-21 19.5v-1q-34 30 -34 57zM57 56q0 26 20 46t53 20q42 0 74.5 -40t32.5 -107q0 -78 -71 -141.5t-175 -64.5v53q66 1 105 33.5t39 74.5
q0 15 -7.5 29t-14.5 21.5t-21 19.5v-1q-35 29 -35 57z" />
    <glyph glyph-name="dagger" unicode="&#x2020;" horiz-adv-x="548" 
d="M553 481q-9 -37 -33.5 -59.5t-47.5 -17.5q-13 4 -30 17q-36 26 -88 26q-15 -73 -15 -106q0 -47 29 -73q-29 -15 -54.5 -76t-62.5 -229h-58q37 178 37 241q0 47 -25 64q63 43 91 179q-62 0 -108 -29q-20 -12 -29 -16q-24 -8 -39 18t-7 61q7 33 31 53t47 15h-1
q5 -2 16 -9.5t13 -8.5q33 -25 90 -25q4 36 4 47q0 30 -11 67l-8 30q-5 25 21.5 46.5t62.5 21.5t55.5 -21t6.5 -46q-10 -22 -26 -42q-36 -51 -47 -103q54 0 104 28q11 8 34 17q24 7 39.5 -15.5t8.5 -54.5z" />
    <glyph glyph-name="daggerdbl" unicode="&#x2021;" horiz-adv-x="548" 
d="M232 178q0 48 -31 78q67 50 96 191q-62 0 -108 -29q-20 -12 -29 -16q-24 -8 -39 18t-7 61q7 33 31 53t47 15h-1q5 -2 16 -9.5t13 -8.5q33 -25 90 -25q6 30 6 51q0 25 -12 61q-6 18 -9 32q-6 25 22.5 46.5t66.5 21.5q33 0 51 -21t6 -46q-10 -22 -26 -42q-36 -51 -47 -103
q54 0 104 28q11 8 34 17q24 7 39 -16t9 -54q-10 -36 -34.5 -59t-46.5 -18q-13 4 -30 17q-36 26 -88 26q-14 -67 -14 -110q0 -53 27 -81q-35 -26 -55.5 -68t-37.5 -122q57 0 105 29l32 16q24 8 39.5 -16.5t8.5 -57.5q-8 -35 -32.5 -56t-48.5 -17h1q-5 2 -16 9.5t-13 8.5
q-33 25 -89 25q-7 -28 -7 -51q0 -24 13 -61q6 -18 9 -32q5 -25 -22 -46.5t-63 -21.5t-55.5 21t-6.5 46q9 19 26 42q36 51 47 103q-54 0 -104 -28q-17 -10 -34 -17q-23 -8 -39 15t-8 55q7 37 32 59.5t49 17.5q13 -4 30 -17q34 -26 87 -26q16 74 16 112zM199 254v4l2 -2z" />
    <glyph glyph-name="bullet" unicode="&#x2022;" horiz-adv-x="604" 
d="M187 264q0 56 40 96t96 40t96 -40t40 -96t-40 -96t-96 -40t-96 40t-40 96z" />
    <glyph glyph-name="ellipsis" unicode="&#x2026;" horiz-adv-x="993" 
d="M82 73q0 34 23 58.5t55 24.5t55.5 -24.5t23.5 -58.5q0 -33 -23.5 -56.5t-55.5 -23.5t-55 23t-23 57zM394 73q0 35 22.5 59t55.5 24q32 0 55.5 -24.5t23.5 -58.5q0 -33 -23.5 -56.5t-55.5 -23.5q-33 0 -55.5 23t-22.5 57zM706 73q0 35 22.5 59t55.5 24q32 0 55.5 -24.5
t23.5 -58.5q0 -33 -23.5 -56.5t-55.5 -23.5q-33 0 -55.5 23t-22.5 57z" />
    <glyph glyph-name="perthousand" unicode="&#x2030;" horiz-adv-x="831" 
d="M370 545q-19 0 -46 15q-6 -79 -48.5 -130.5t-95.5 -51.5q-49 0 -80 37t-31 95q0 76 47.5 131.5t101.5 55.5q35 0 61 -19.5t37 -53.5q5 -13 22.5 -21t38.5 -8q40 0 79 27q20 69 57 69q10 0 19.5 -7t9.5 -22q0 -17 -14 -35.5t-31 -30.5l-185 -281l-214 -334q-7 5 -14 10.5
t-15 12t-13 10.5l223 330l125 206q-25 -5 -34 -5zM288 120q0 76 47 131.5t103 55.5q47 0 76.5 -32.5t29.5 -89.5q0 -88 -44.5 -142t-99.5 -54q-50 0 -81 36.5t-31 94.5zM454 247q-31 0 -57.5 -49t-26.5 -105q0 -49 35 -49q31 0 57 38.5t26 111.5q0 24 -10.5 38.5t-23.5 14.5
zM236 636q-30 0 -57 -48t-27 -104q0 -49 37 -49q30 0 55.5 38.5t25.5 109.5q0 26 -10 39.5t-24 13.5zM562 120q0 76 46.5 131.5t101.5 55.5q48 0 77.5 -32.5t29.5 -89.5q0 -88 -44.5 -142t-99.5 -54q-49 0 -80 37t-31 94zM727 247q-30 0 -56.5 -49t-26.5 -105
q0 -24 9.5 -36.5t24.5 -12.5q31 0 57 38.5t26 111.5q0 25 -9.5 39t-24.5 14z" />
    <glyph glyph-name="uni2032" unicode="&#x2032;" horiz-adv-x="290" 
d="M163 462l69 262l99 -36l-113 -246z" />
    <glyph glyph-name="uni2033" unicode="&#x2033;" horiz-adv-x="480" 
d="M163 462l69 262l99 -36l-113 -246zM354 462l69 262l99 -36l-113 -246z" />
    <glyph glyph-name="guilsinglleft" unicode="&#x2039;" horiz-adv-x="445" 
d="M106 222l272 234l38 -27l-187 -222l-5 -15l47 -182l-52 -13q-20 33 -59 101t-59 102l7 23z" />
    <glyph glyph-name="guilsinglright" unicode="&#x203a;" horiz-adv-x="445" 
d="M360 231l-272 -233l-39 26l187 222l5 16l-46 182l51 13l119 -204l-7 -23z" />
    <glyph glyph-name="uni2042" unicode="&#x2042;" horiz-adv-x="901" 
d="M610 450q24 -17 4 -50t-48 -33q-14 0 -25 17l-15 28q-25 53 -62 96q-6 -49 -8 -107q0 -14 -2 -38q-4 -27 -37 -27q-26 0 -43 16t-6 38q4 8 20 36l50 87q-55 -15 -104 -43q-21 -13 -27 -15q-18 -8 -33.5 11.5t-15.5 43.5q0 31 28 37l38 2q74 3 102 5q-34 32 -83 60
q-25 14 -29 17q-18 19 -1.5 50t41.5 31q12 0 24 -17l13 -22q30 -51 65 -99q8 58 8 102q0 27 2 41q4 27 35 27q27 0 45.5 -17t7.5 -39q-9 -15 -18 -26q-37 -53 -54 -93q76 25 115 48l17 8q19 9 34.5 -11.5t15.5 -46.5q0 -34 -28 -35q-8 0 -34 2q-39 3 -49 3q-21 0 -56 -4
q70 -59 113 -83zM811 57q24 -17 4.5 -49.5t-48.5 -32.5q-14 0 -25 17l-15 28q-27 54 -62 96q-6 -51 -8 -107q0 -14 -2 -38q-5 -27 -36 -27q-26 0 -43.5 16t-6.5 38q4 8 20 36q32 52 50 87q-59 -16 -104 -44q-21 -13 -27 -15q-18 -8 -33.5 12t-15.5 44q0 33 29 37h-1l38 2
q75 3 103 5q-38 35 -84 59q-25 14 -29 17q-18 20 -1.5 51t41.5 31q12 0 24 -17l13 -22q33 -55 65 -99q8 57 8 102q0 27 2 41q4 27 35 27q26 0 45 -17t8 -39q-9 -15 -18 -26q-39 -57 -54 -93q75 25 116 47l16 8q19 9 34.5 -11.5t15.5 -45.5q0 -34 -28 -35q-9 0 -33 2
q-39 3 -50 3q-21 0 -56 -4q70 -60 113 -84zM368 57q24 -17 4.5 -49.5t-47.5 -32.5q-14 0 -25 17l-15 28q-27 54 -63 96q-6 -51 -8 -107q0 -14 -2 -38q-4 -27 -36 -27q-26 0 -43 16t-6 38q4 8 20 36q38 66 49 87q-58 -16 -103 -44q-24 -14 -28 -15q-18 -8 -33.5 12t-15.5 44
q0 33 29 37h-1l38 2q73 3 103 5q-37 35 -83 59q-28 16 -30 17q-18 20 -1.5 51t42.5 31q12 0 24 -17l13 -22q27 -48 64 -99q8 57 8 102q0 27 2 41q4 27 36 27q26 0 45 -17t8 -39q-9 -15 -18 -26q-39 -57 -55 -93q73 24 116 47l16 8q19 9 34.5 -11.5t15.5 -45.5q0 -34 -28 -35
q-9 0 -33 2q-39 3 -49 3q-21 0 -57 -4q74 -62 113 -84z" />
    <glyph glyph-name="fraction" unicode="&#x2044;" 
d="M124 -11l308 371l283 351l39 -31l-295 -350l-296 -373z" />
    <glyph glyph-name="zero.sups" unicode="&#x2070;" horiz-adv-x="331" 
d="M434 664q0 -110 -59 -181t-141 -71q-123 0 -123 128q0 104 62.5 183.5t140.5 79.5q58 0 89 -35.5t31 -103.5zM242 464q42 0 67.5 72t25.5 155q0 33 -7.5 45.5t-24.5 12.5q-35 0 -63.5 -72.5t-28.5 -152.5q0 -60 31 -60z" />
    <glyph glyph-name="four.sups" unicode="&#x2074;" horiz-adv-x="322" 
d="M108 527l-1 20l251 257q9 -1 25 -4t24 -4l-47 -226h51l-8 -43h-52l-5 -22q-6 -27 3 -34.5t40 -7.5l-10 -45h-191l9 45q25 1 37 9t18 29q0 4 2 12l5 14h-151zM189 570h78l21 102l-96 -98h-3v-4z" />
    <glyph glyph-name="five.sups" unicode="&#x2075;" horiz-adv-x="316" 
d="M233 717l-22 -67q44 18 80 18q44 0 75.5 -25.5t31.5 -72.5q0 -74 -59.5 -116t-129.5 -42q-47 0 -81.5 19t-34.5 52q0 26 17.5 43.5t43.5 17.5q42 0 44 -37l1 1l-29 -39q15 -13 37 -13q34 0 61 26.5t27 75.5q0 62 -39 62q-27 0 -71 -34h-46l62 219q63 -18 121 -18
q49 0 106 17l-8 -41l2 1q-57 -51 -144 -51q-21 0 -45 4z" />
    <glyph glyph-name="six.sups" unicode="&#x2076;" horiz-adv-x="333" 
d="M338 803q50 0 76.5 -21t26.5 -49q0 -21 -17 -36t-38 -15q-20 0 -35.5 8t-16.5 22l-1 -1l26 36q-11 13 -31 13q-24 0 -50 -31t-41 -84q41 22 77 22q50 0 75.5 -25.5t25.5 -69.5q0 -73 -53.5 -116.5t-117.5 -43.5q-55 0 -91 30t-36 99q0 104 67.5 183t153.5 79zM250 461
q29 0 44.5 31t15.5 79q0 49 -28 49t-61 -44q-6 -50 -6 -62q0 -53 35 -53z" />
    <glyph glyph-name="seven.sups" unicode="&#x2077;" horiz-adv-x="305" 
d="M336 713l-4 6q-18 -6 -38 -6q-13 0 -29 4q-13 3 -25 3q-43 0 -64 -56h-40l46 139h41l2 -11q28 11 54 11q21 0 45 -8q2 -1 3 -1q26 -10 42 -10q21 0 71 25q3 -8 8 -25t8 -26q-82 -70 -125 -131t-72 -163q-6 -17 -10.5 -24.5t-17.5 -15.5t-35 -8q-57 0 -41 50
q43 122 181 247z" />
    <glyph glyph-name="eight.sups" unicode="&#x2078;" horiz-adv-x="322" 
d="M184 604l5 3v-1h2q-39 35 -39 80q0 44 42 80.5t118 36.5q54 0 84 -22t30 -57q0 -55 -85 -100v-1l1 1h3v-4h-2l-2 3l-1 -3q63 -28 63 -78q0 -55 -52.5 -92.5t-119.5 -37.5q-59 0 -95 23t-36 62q0 31 27.5 58.5t65.5 45.5l-1 1h4q-4 2 -5 4l1 -4zM244 458q26 0 44 16t18 40
q0 43 -69 64q-17 -9 -31.5 -29.5t-14.5 -45.5q0 -22 14.5 -33.5t38.5 -11.5zM246 707q0 -37 50 -60q39 26 39 64q0 20 -10.5 33t-28.5 13q-21 0 -35.5 -15.5t-14.5 -34.5z" />
    <glyph glyph-name="nine.sups" unicode="&#x2079;" horiz-adv-x="333" 
d="M218 412q-50 0 -78 20t-28 47q0 25 17 40t40 15q30 0 43 -28l-18 -37q7 -12 25 -12q30 0 57 33.5t41 82.5q-42 -22 -81 -22q-50 0 -76 24t-26 65q0 72 55.5 117.5t121.5 45.5q53 0 89 -32.5t36 -100.5q0 -101 -68.5 -179.5t-149.5 -78.5zM305 754q-24 0 -44.5 -35.5
t-20.5 -79.5q0 -43 31 -43q33 0 61 50q7 42 7 60q0 48 -34 48z" />
    <glyph glyph-name="Euro" unicode="&#x20ac;" horiz-adv-x="645" 
d="M117 400h50q47 126 138.5 200.5t192.5 74.5q104 0 181 -64l-62 -142h-37q2 22 2 32q0 65 -28.5 91.5t-68.5 26.5q-54 0 -104 -55t-84 -164h285l-22 -47h-276q-2 -6 -8 -36l-4 -14h266q-3 -7 -10.5 -23.5t-10.5 -24.5h-251q-3 -24 -3 -47q0 -78 31 -120t78 -42
q106 0 163 113l40 -11q-84 -160 -236 -160q-94 0 -151.5 59.5t-57.5 169.5q0 14 2 38h-58q3 9 11.5 26t10.5 22h44q0 5 2 13l6 29q0 4 2 8h-54q3 8 11 25t10 22z" />
    <glyph glyph-name="uni2117" unicode="&#x2117;" horiz-adv-x="775" 
d="M48 327q0 138 100.5 238t239.5 100q144 0 241.5 -99t97.5 -239t-100 -240.5t-239 -100.5q-142 0 -241 96.5t-99 244.5zM108 324q0 -122 79 -203.5t203 -81.5q123 0 199.5 81t76.5 204q0 125 -79 208t-199 83q-122 0 -201 -83.5t-79 -207.5zM412 296h-41v-119l50 -8v-27
h-176v27l47 8v299l-47 8v26h169q56 0 98 -26.5t42 -80.5q0 -49 -38 -78t-104 -29zM371 470v-136h45q23 0 40.5 18t17.5 47q0 71 -62 71h-41z" />
    <glyph glyph-name="trademark" unicode="&#x2122;" horiz-adv-x="670" 
d="M631 634h-7l-116 -179h-17l-36 179h-5l-47 -150l32 -6l-5 -23h-92l5 23l34 6l60 193l-36 6l5 23h94l26 -165h7l107 165h92l-5 -23l-37 -6l-29 -193l30 -6l-5 -23h-118l5 23l35 6zM167 706h210l-2 -74h-20l-22 47h-38l-42 -195l31 -6l-5 -23h-121l5 23l33 6l42 195h-37
l-42 -47h-21z" />
    <glyph glyph-name="oneseventh" unicode="&#x2150;" 
d="M683 286l-4 6q-18 -6 -38 -6q-13 0 -29 4q-12 3 -25 3q-43 0 -64 -57h-40l46 139h41l2 -11q28 11 54 11q21 0 45 -8q2 -1 3 -1q26 -10 42 -10q21 0 71 25q3 -7 8 -24t8 -26q-82 -70 -125 -131.5t-72 -163.5q-6 -16 -10.5 -24t-17.5 -15.5t-35 -7.5q-56 0 -41 49
q42 120 181 248zM158 627l9 42q9 -1 35 -1q52 0 114 19h30l-62 -296q-3 -22 11 -29t50 -7l-9 -44h-237l9 44q66 1 76 36l47 223q-48 2 -73 13zM123 -11l308 371l283 351l39 -31l-295 -350l-296 -373z" />
    <glyph glyph-name="oneninth" unicode="&#x2151;" 
d="M565 -15q-51 0 -78.5 20t-27.5 46t17 41t40 15q30 0 43 -29l-18 -37q7 -12 25 -12q30 0 57 33.5t41 83.5q-42 -22 -81 -22q-50 0 -76 24t-26 64q0 73 55.5 118t121.5 45q53 0 89 -32.5t36 -100.5q0 -101 -68.5 -179t-149.5 -78zM158 627l9 42q9 -1 35 -1q52 0 114 19h30
l-62 -296q-3 -22 11 -29t50 -7l-9 -44h-237l9 44q66 1 76 36l47 223q-48 2 -73 13zM123 -11l308 371l283 351l39 -31l-295 -350l-296 -373zM652 327q-24 0 -44.5 -35.5t-20.5 -80.5q0 -42 31 -42q34 0 61 49q7 42 7 61q0 48 -34 48z" />
    <glyph glyph-name="onethird" unicode="&#x2153;" 
d="M661 193v-3q34 -7 56 -25.5t22 -48.5q0 -61 -56.5 -96t-131.5 -35q-50 0 -81.5 18t-31.5 52q0 26 18.5 44t43.5 18q19 0 31.5 -11.5t10.5 -26.5l1 1l-32 -42q11 -9 39 -9q34 0 61 20.5t27 61.5q0 43 -49 43q-20 0 -51 -10q-1 7 -3.5 19.5t-3.5 18.5q65 24 97.5 51
t32.5 64t-31 37q-14 0 -38 -14l5 -11l13 -28q-4 -17 -20 -28t-38 -11q-49 0 -49 38q0 44 47 69.5t100 25.5q54 0 85.5 -21t31.5 -57q0 -59 -112 -101l2 -4q2 0 4 1zM159 627l9 42q9 -1 35 -1q52 0 114 19h30l-62 -296q-3 -22 11 -29t50 -7l-9 -44h-237l9 44q66 1 76 36
l47 223q-48 2 -73 13zM124 -11l308 371l283 351l39 -31l-295 -350l-296 -373z" />
    <glyph glyph-name="twothirds" unicode="&#x2154;" 
d="M160 391l1 -7h86q30 0 46 45h47l-47 -118h-258l-4 44q4 3 13 8.5t11 7.5q216 143 216 229q0 47 -39 47q-30 0 -50 -28l24 -53q-5 -20 -22 -32.5t-41 -12.5q-52 0 -52 43q0 56 51.5 93.5t105.5 37.5q59 0 91.5 -23t32.5 -66q0 -29 -18 -58t-59 -60.5t-66.5 -48.5
t-79.5 -50q7 1 11 2zM661 193v-3q34 -7 56 -25.5t22 -48.5q0 -61 -56.5 -96t-131.5 -35q-50 0 -81.5 18t-31.5 52q0 26 18.5 44t43.5 18q19 0 31.5 -11.5t10.5 -26.5l1 1l-32 -42q11 -9 39 -9q34 0 61 20.5t27 61.5q0 43 -49 43q-20 0 -51 -10q-1 7 -3.5 19.5t-3.5 18.5
q65 24 97.5 51t32.5 64t-31 37q-14 0 -38 -14l5 -11l13 -28q-4 -17 -20 -28t-38 -11q-49 0 -49 38q0 44 47 69.5t100 25.5q54 0 85.5 -21t31.5 -57q0 -59 -112 -101l2 -4q2 0 4 1zM124 -11l308 371l283 351l39 -31l-295 -350l-296 -373z" />
    <glyph glyph-name="onefifth" unicode="&#x2155;" 
d="M580 290l-22 -68q44 18 80 18q44 0 75.5 -25t31.5 -72q0 -51 -31 -88.5t-73 -53.5t-85 -16q-47 0 -81.5 18.5t-34.5 51.5q0 27 17.5 44.5t43.5 17.5q42 0 44 -38l1 1l-29 -39q15 -13 37 -13q34 0 61 26.5t27 76.5q0 61 -38 61q-28 0 -72 -33h-46l62 218q63 -18 121 -18
q48 0 107 17l-9 -40l2 1q-57 -51 -144 -51q-21 0 -45 4zM159 627l9 42q9 -1 35 -1q52 0 114 19h30l-62 -296q-3 -22 11 -29t50 -7l-9 -44h-237l9 44q66 1 76 36l47 223q-48 2 -73 13zM124 -11l308 371l283 351l39 -31l-295 -350l-296 -373z" />
    <glyph glyph-name="twofifths" unicode="&#x2156;" 
d="M160 391l1 -7h86q30 0 46 45h47l-47 -118h-258l-4 44q4 3 13 8.5t11 7.5q216 143 216 229q0 47 -39 47q-30 0 -50 -28l24 -53q-5 -20 -22 -32.5t-41 -12.5q-52 0 -52 43q0 56 51.5 93.5t105.5 37.5q59 0 91.5 -23t32.5 -66q0 -29 -18 -58t-59 -60.5t-66.5 -48.5
t-79.5 -50q7 1 11 2zM580 290l-22 -68q44 18 80 18q44 0 75.5 -25t31.5 -72q0 -51 -31 -88.5t-73 -53.5t-85 -16q-47 0 -81.5 18.5t-34.5 51.5q0 27 17.5 44.5t43.5 17.5q42 0 44 -38l1 1l-29 -39q15 -13 37 -13q34 0 61 26.5t27 76.5q0 61 -38 61q-28 0 -72 -33h-46l62 218
q63 -18 121 -18q48 0 107 17l-9 -40l2 1q-57 -51 -144 -51q-21 0 -45 4zM124 -11l308 371l283 351l39 -31l-295 -350l-296 -373z" />
    <glyph glyph-name="threefifths" unicode="&#x2157;" 
d="M287 513v-3q34 -7 56 -25.5t22 -48.5q0 -61 -56.5 -96t-131.5 -35q-50 0 -82 18t-32 52q0 26 19 44t44 18q19 0 31.5 -11.5t10.5 -26.5l1 1l-32 -42q11 -9 39 -9q34 0 61 20.5t27 60.5q0 44 -49 44q-20 0 -51 -10q-1 7 -3.5 19.5t-3.5 18.5q65 24 97.5 51t32.5 64t-32 37
q-14 0 -37 -14l5 -11q2 -4 6 -14.5t6 -14.5q-4 -17 -19.5 -27.5t-37.5 -10.5q-49 0 -49 37q0 45 47 70.5t100 25.5q54 0 85.5 -21t31.5 -57q0 -59 -112 -101l2 -4q2 0 4 1zM580 290l-22 -68q44 18 80 18q44 0 75.5 -25t31.5 -72q0 -51 -31 -88.5t-73 -53.5t-85 -16
q-47 0 -81.5 18.5t-34.5 51.5q0 27 17.5 44.5t43.5 17.5q42 0 44 -38l1 1l-29 -39q15 -13 37 -13q34 0 61 26.5t27 76.5q0 61 -38 61q-28 0 -72 -33h-46l62 218q63 -18 121 -18q48 0 107 17l-9 -40l2 1q-57 -51 -144 -51q-21 0 -45 4zM124 -11l308 371l283 351l39 -31
l-295 -350l-296 -373z" />
    <glyph glyph-name="fourfifths" unicode="&#x2158;" 
d="M580 290l-22 -68q44 18 80 18q44 0 75.5 -25t31.5 -72q0 -51 -31 -88.5t-73 -53.5t-85 -16q-47 0 -81.5 18.5t-34.5 51.5q0 27 17.5 44.5t43.5 17.5q42 0 44 -38l1 1l-29 -39q15 -13 37 -13q34 0 61 26.5t27 76.5q0 61 -38 61q-28 0 -72 -33h-46l62 218q63 -18 121 -18
q48 0 107 17l-9 -40l2 1q-57 -51 -144 -51q-21 0 -45 4zM50 419l-1 21l252 256q9 -1 25 -4t24 -4l-47 -225h51l-8 -44h-52l-5 -22q-6 -27 3 -34.5t40 -7.5l-10 -44h-191l9 44q25 1 37 9t18 29q0 4 2 12l4 14h-151zM124 -11l308 371l283 351l39 -31l-295 -350l-296 -373z
M132 463h77l21 101l-95 -97h-3v-4z" />
    <glyph glyph-name="onesixth" unicode="&#x2159;" 
d="M666 375q50 0 76 -20.5t26 -48.5q0 -21 -16.5 -36.5t-37.5 -15.5q-20 0 -35.5 8.5t-16.5 22.5l-1 -1l26 36q-11 13 -31 13q-25 0 -51 -31.5t-40 -84.5q39 22 77 22q49 0 75 -25.5t26 -68.5q0 -74 -53.5 -117t-117.5 -43q-55 0 -91 30t-36 99q0 103 67.5 182t153.5 79z
M159 627l9 42q9 -1 35 -1q52 0 114 19h30l-62 -296q-3 -22 11 -29t50 -7l-9 -44h-237l9 44q66 1 76 36l47 223q-48 2 -73 13zM124 -11l308 371l283 351l39 -31l-295 -350l-296 -373zM578 33q29 0 44.5 31t15.5 80q0 48 -28 48q-29 0 -61 -43q-6 -50 -6 -62q0 -54 35 -54z
" />
    <glyph glyph-name="fivesixths" unicode="&#x215a;" 
d="M666 375q50 0 76 -20.5t26 -48.5q0 -21 -16.5 -36.5t-37.5 -15.5q-20 0 -35.5 8.5t-16.5 22.5l-1 -1l26 36q-11 13 -31 13q-25 0 -51 -31.5t-40 -84.5q39 22 77 22q49 0 75 -25.5t26 -68.5q0 -74 -53.5 -117t-117.5 -43q-55 0 -91 30t-36 99q0 103 67.5 182t153.5 79z
M215 610l-22 -68q44 18 80 18q44 0 75.5 -25t31.5 -72q0 -51 -31 -88.5t-73 -53.5t-85 -16q-47 0 -82 18.5t-35 51.5q0 26 18 44t44 18q42 0 44 -38l1 1l-29 -39q15 -13 37 -13q34 0 61 26.5t27 76.5q0 61 -39 61q-27 0 -71 -33h-46l62 218q63 -18 121 -18q49 0 106 17
l-8 -40l2 1q-57 -51 -144 -51q-21 0 -45 4zM124 -11l308 371l283 351l39 -31l-295 -350l-296 -373zM578 33q29 0 44.5 31t15.5 80q0 48 -28 48q-29 0 -61 -43q-6 -50 -6 -62q0 -54 35 -54z" />
    <glyph glyph-name="oneeighth" unicode="&#x215b;" 
d="M692 196v-4h-2l-2 3l-1 -3q63 -26 63 -77q0 -56 -52.5 -93t-119.5 -37q-59 0 -95 22.5t-36 61.5q0 31 27.5 59t65.5 46l-1 1h4q-44 36 -44 83q0 45 42 81t118 36q54 0 84 -21.5t30 -56.5q0 -56 -85 -101v-1l1 1h3zM159 627l9 42q9 -1 35 -1q52 0 114 19h30l-62 -296
q-3 -22 11 -29t50 -7l-9 -44h-237l9 44q66 1 76 36l47 223q-48 2 -73 13zM124 -11l308 371l283 351l39 -31l-295 -350l-296 -373zM591 30q26 0 44 16.5t18 40.5q0 43 -69 64q-17 -9 -31.5 -29.5t-14.5 -46.5q0 -22 14.5 -33.5t38.5 -11.5zM593 280q0 -38 50 -61q39 26 39 65
q0 20 -10.5 33t-28.5 13q-21 0 -35.5 -15.5t-14.5 -34.5zM531 177l5 2v-1h2l1 -3z" />
    <glyph glyph-name="threeeighths" unicode="&#x215c;" 
d="M692 196v-4h-2l-2 3l-1 -3q63 -26 63 -77q0 -56 -52.5 -93t-119.5 -37q-59 0 -95 22.5t-36 61.5q0 31 27.5 59t65.5 46l-1 1h4q-44 36 -44 83q0 45 42 81t118 36q54 0 84 -21.5t30 -56.5q0 -56 -85 -101v-1l1 1h3zM287 513v-3q34 -7 56 -25.5t22 -48.5q0 -61 -56.5 -96
t-131.5 -35q-50 0 -82 18t-32 52q0 26 19 44t44 18q19 0 31.5 -11.5t10.5 -26.5l1 1l-32 -42q11 -9 39 -9q34 0 61 20.5t27 60.5q0 44 -49 44q-20 0 -51 -10q-1 7 -3.5 19.5t-3.5 18.5q65 24 97.5 51t32.5 64t-32 37q-14 0 -37 -14l5 -11q2 -4 6 -14.5t6 -14.5
q-4 -17 -19.5 -27.5t-37.5 -10.5q-49 0 -49 37q0 45 47 70.5t100 25.5q54 0 85.5 -21t31.5 -57q0 -59 -112 -101l2 -4q2 0 4 1zM124 -11l308 371l283 351l39 -31l-295 -350l-296 -373zM591 30q26 0 44 16.5t18 40.5q0 43 -69 64q-17 -9 -31.5 -29.5t-14.5 -46.5
q0 -22 14.5 -33.5t38.5 -11.5zM593 280q0 -38 50 -61q39 26 39 65q0 20 -10.5 33t-28.5 13q-21 0 -35.5 -15.5t-14.5 -34.5zM531 177l5 2v-1h2l1 -3z" />
    <glyph glyph-name="fiveeighths" unicode="&#x215d;" 
d="M692 196v-4h-2l-2 3l-1 -3q63 -26 63 -77q0 -56 -52.5 -93t-119.5 -37q-59 0 -95 22.5t-36 61.5q0 31 27.5 59t65.5 46l-1 1h4q-44 36 -44 83q0 45 42 81t118 36q54 0 84 -21.5t30 -56.5q0 -56 -85 -101v-1l1 1h3zM215 610l-22 -68q44 18 80 18q44 0 75.5 -25t31.5 -72
q0 -51 -31 -88.5t-73 -53.5t-85 -16q-47 0 -82 18.5t-35 51.5q0 26 18 44t44 18q42 0 44 -38l1 1l-29 -39q15 -13 37 -13q34 0 61 26.5t27 76.5q0 61 -39 61q-27 0 -71 -33h-46l62 218q63 -18 121 -18q49 0 106 17l-8 -40l2 1q-57 -51 -144 -51q-21 0 -45 4zM124 -11
l308 371l283 351l39 -31l-295 -350l-296 -373zM591 30q26 0 44 16.5t18 40.5q0 43 -69 64q-17 -9 -31.5 -29.5t-14.5 -46.5q0 -22 14.5 -33.5t38.5 -11.5zM593 280q0 -38 50 -61q39 26 39 65q0 20 -10.5 33t-28.5 13q-21 0 -35.5 -15.5t-14.5 -34.5zM531 177l5 2v-1h2l1 -3z
" />
    <glyph glyph-name="seveneighths" unicode="&#x215e;" 
d="M692 196v-4h-2l-2 3l-1 -3q63 -26 63 -77q0 -56 -52.5 -93t-119.5 -37q-59 0 -95 22.5t-36 61.5q0 31 27.5 59t65.5 46l-1 1h4q-44 36 -44 83q0 45 42 81t118 36q54 0 84 -21.5t30 -56.5q0 -56 -85 -101v-1l1 1h3zM337 606l-4 6q-18 -6 -38 -6q-13 0 -29 4q-12 3 -25 3
q-43 0 -64 -57h-40l46 139h41l2 -11q28 11 54 11q21 0 45 -8q2 -1 3 -1q26 -10 42 -10q21 0 71 25q3 -8 8 -24.5t8 -25.5q-82 -70 -125 -131.5t-72 -163.5q-6 -16 -10.5 -24t-17.5 -15.5t-35 -7.5q-56 0 -41 49q42 120 181 248zM124 -11l308 371l283 351l39 -31l-295 -350
l-296 -373zM591 30q26 0 44 16.5t18 40.5q0 43 -69 64q-17 -9 -31.5 -29.5t-14.5 -46.5q0 -22 14.5 -33.5t38.5 -11.5zM593 280q0 -38 50 -61q39 26 39 65q0 20 -10.5 33t-28.5 13q-21 0 -35.5 -15.5t-14.5 -34.5zM531 177l5 2v-1h2l1 -3z" />
    <glyph glyph-name="uni2191" unicode="&#x2191;" horiz-adv-x="704" 
d="M359 605l264 -237l-46 -61l-183 163v-420h-84v420l-183 -163l-47 61l266 237h13z" />
    <glyph glyph-name="uni2193" unicode="&#x2193;" horiz-adv-x="704" 
d="M623 287l-264 -237h-13l-266 237l47 61l183 -163v420h84v-420l183 163z" />
    <glyph glyph-name="partialdiff" unicode="&#x2202;" horiz-adv-x="544" 
d="M285 584q-77 0 -99 -120h-50l12 113q20 25 62 43t86 18q98 0 150 -78t52 -201q0 -179 -74 -275t-197 -96q-76 0 -128.5 48t-52.5 134q0 105 69.5 167t152.5 62q36 0 69 -15.5t49 -43.5l5 3v39q0 103 -25.5 152.5t-80.5 49.5zM373 270q-8 28 -32.5 47.5t-52.5 19.5
q-51 0 -85.5 -45.5t-34.5 -122.5q0 -56 19 -87.5t55 -31.5q53 0 92 60t39 160z" />
    <glyph glyph-name="product" unicode="&#x220f;" horiz-adv-x="544" 
d="M9 626h526v-40l-63 -15v-516l53 -15v-40h-232v40l53 15v516h-148v-516l53 -15v-40h-232v40l53 15v516l-63 15v40z" />
    <glyph glyph-name="summation" unicode="&#x2211;" horiz-adv-x="544" 
d="M190 119l5 -10h230l64 81h41l-50 -190h-465l-8 15l262 270v12l-242 317l8 12h441l26 -171h-36l-89 131h-180l-5 -7l191 -245v-16z" />
    <glyph glyph-name="minus" unicode="&#x2212;" horiz-adv-x="620" 
d="M573 221h-526v86h526v-86z" />
    <glyph glyph-name="radical" unicode="&#x221a;" horiz-adv-x="544" 
d="M326 96h13l145 660l60 -10l-195 -883h-57l-194 519l-79 -28l-18 43l194 67z" />
    <glyph glyph-name="infinity" unicode="&#x221e;" horiz-adv-x="544" 
d="M129 149q-60 0 -92 38.5t-32 88.5q0 54 36.5 92.5t87.5 38.5q74 0 141 -92q33 43 66.5 67.5t77.5 24.5q61 0 92.5 -38t31.5 -89q0 -54 -36.5 -92.5t-87.5 -38.5q-75 0 -141 91q-70 -91 -144 -91zM147 347q-29 0 -47.5 -19.5t-18.5 -51.5q0 -31 18.5 -50t44.5 -19
q23 0 43 18.5t47 55.5q-25 33 -44 49.5t-43 16.5zM396 209q29 0 47.5 19.5t18.5 51.5q0 31 -18.5 50t-44.5 19q-23 0 -42.5 -18.5t-47.5 -55.5q24 -33 43.5 -49.5t43.5 -16.5z" />
    <glyph glyph-name="integral" unicode="&#x222b;" horiz-adv-x="544" 
d="M325 497l12 -487q2 -94 -52 -154t-138 -60q-37 0 -61 16.5t-24 50.5q0 21 12.5 37.5t36.5 16.5q50 0 57 -64l26 -7q13 18 20.5 63.5t5.5 90.5l-12 487q-2 95 48.5 154t129.5 59q38 0 67.5 -19.5t29.5 -55.5q0 -21 -13 -37.5t-37 -16.5q-49 0 -56 64l-26 7
q-29 -38 -26 -145z" />
    <glyph glyph-name="approxequal" unicode="&#x2248;" horiz-adv-x="544" 
d="M431 408l63 -12q-17 -62 -52 -104t-89 -42q-35 0 -89.5 36t-79.5 36q-24 0 -43 -10.5t-26.5 -20.5t-20.5 -31l-54 22q18 44 57 81.5t87 37.5q34 0 89 -35t81 -35q28 0 49.5 23t27.5 54zM447 229l57 -13q-14 -51 -54.5 -88.5t-84.5 -37.5q-43 0 -100.5 35.5t-80.5 35.5
q-39 0 -72 -64l-56 20q2 3 10 19t12.5 23.5t14.5 22.5t18.5 23t20 17.5t24.5 13.5t28 4q32 0 90 -35t91 -35q30 0 51.5 17t30.5 42z" />
    <glyph glyph-name="notequal" unicode="&#x2260;" horiz-adv-x="620" 
d="M494 491l-58 -107h137v-87h-183l-46 -86h229v-86h-275l-85 -159l-79 40l64 119h-151v86h197l46 86h-243v87h289l79 146z" />
    <glyph glyph-name="lessequal" unicode="&#x2264;" horiz-adv-x="620" 
d="M567 0h-527v86h527v-86zM567 518l-409 -153q72 -25 210 -77.5t199 -74.5v-85l-527 198v79l527 198v-85z" />
    <glyph glyph-name="greaterequal" unicode="&#x2265;" horiz-adv-x="620" 
d="M580 0h-527v86h527v-86zM462 365l-409 153v85l527 -198v-79l-527 -198v85q61 22 199 74.5t210 77.5z" />
    <glyph glyph-name="lozenge" unicode="&#x25ca;" horiz-adv-x="544" 
d="M271 -98l-245 373l245 375l246 -375zM129 275l142 -216l143 216l-143 218z" />
    <glyph glyph-name="uni2605" unicode="&#x2605;" horiz-adv-x="574" 
d="M129 -8l-4 3l66 186l-166 118l2 5l201 -7l57 193h6l58 -193l199 5l1 -4l-163 -117l66 -188l-3 -1l-161 118z" />
    <glyph glyph-name="commaaccent" unicode="&#xf6c3;" horiz-adv-x="500" 
d="M199 -89q0 18 12.5 29.5t31.5 11.5q23 0 40.5 -21t17.5 -58q0 -46 -41 -84t-106 -39v27q35 2 55 23.5t20 46.5q0 16 -18 38q-12 14 -12 26z" />
    <glyph glyph-name="apple" unicode="&#xf8ff;" horiz-adv-x="544" 
d="M211 720h11l32 -121l-3 -82l68 -8l64 99l8 99h12l7 -99l-17 -129l36 -85l35 -38l1 -6l-7 -8v-18l8 -4l-1 -9l-17 -36l-36 7l-11 101l-34 56l-13 -2l26 -60l4 -99l-37 -46l3 -22l26 -37l7 -71l-64 -23l-33 16l-35 57l-75 25l-28 47l-3 42l-30 41l-2 58l4 27l-11 44z
M489 244l6 -9l-3 -37l-12 -17l-5 -33l23 -8l-3 -10l-23 7l-43 -26l-5 10l39 23l5 36l-36 14l-13 31l-1 10l14 15l24 4zM272 305l36 -14l11 13l-3 14l-11 10l-30 -10zM329 64l3 -4l-7 -21l-40 -43l-68 -23l-97 14l-55 48l-18 62l34 95l11 -1l-9 -71l22 -41l37 -33l88 -16
l48 3zM144 438l9 -9l33 34l11 76h-18z" />
    <glyph glyph-name="zero.tnum" horiz-adv-x="594" 
d="M569 450q0 -201 -99.5 -330.5t-239.5 -129.5q-94 0 -149 55t-55 176q0 126 49.5 238.5t129.5 178t167 65.5q95 0 146 -64t51 -189zM244 80q54 0 96.5 68t62 162t19.5 190q0 61 -17.5 85t-52.5 24q-44 0 -85.5 -63.5t-66.5 -160.5t-25 -193q0 -63 17.5 -87.5t51.5 -24.5z
" />
    <glyph glyph-name="one.tnum" horiz-adv-x="594" 
d="M148 578l15 74q9 -1 50 -1q105 0 215 35h40l-115 -539q-9 -44 17 -56t95 -12l-17 -79h-409l17 79q71 0 102 15t40 53l86 410q-89 0 -136 21z" />
    <glyph glyph-name="two.tnum" horiz-adv-x="594" 
d="M190 150l5 -18h172q30 0 56 21.5t40 61.5h59q-16 -42 -48.5 -123.5t-36.5 -91.5h-446l-7 83q12 9 36 24q54 36 88.5 60t101 76t107 94t73.5 95.5t33 98.5q0 87 -83 87q-70 0 -105 -55l41 -91q-9 -38 -37 -61.5t-65 -23.5q-40 0 -61 21t-21 58q0 68 46 124.5t109 84.5
t122 28q100 0 156.5 -42.5t56.5 -119.5q0 -43 -23.5 -87t-54.5 -77.5t-87 -76t-95.5 -68t-105.5 -66.5q-17 -11 -26 -16z" />
    <glyph glyph-name="three.tnum" horiz-adv-x="594" 
d="M375 377l2 -15q60 -7 101 -41t41 -94q0 -109 -99 -173t-231 -64q-86 0 -140 33t-54 94q0 46 29.5 78.5t69.5 32.5q30 0 48.5 -21.5t15.5 -49.5l1 1l-53 -71q22 -20 82 -20q40 0 78 14t67 50t29 87q0 40 -27.5 61.5t-75.5 21.5q-37 0 -82 -13q-2 12 -5.5 32t-4.5 30
q238 84 238 210q0 70 -71 70q-43 0 -82 -27l28 -69q-8 -30 -33.5 -50.5t-55.5 -20.5q-37 0 -57.5 18t-20.5 49q0 54 43 95.5t100 59.5t114 18q93 0 148 -38t55 -105q0 -110 -198 -183z" />
    <glyph glyph-name="four.tnum" horiz-adv-x="594" 
d="M6 201l-1 39l454 463q14 -2 70 -11l-87 -415h95q-3 -12 -9 -37.5t-8 -38.5h-96l-9 -43q-4 -19 -4 -35q0 -29 18 -36.5t65 -7.5l-17 -79h-323l17 79q50 1 70.5 14.5t29.5 57.5l10 50h-275zM137 284l1 -7h160l41 195l-13 8z" />
    <glyph glyph-name="five.tnum" horiz-adv-x="594" 
d="M188 427l11 -10q76 38 147 38q75 0 128 -46t53 -130q0 -70 -31.5 -127.5t-81 -91.5t-106 -52t-112.5 -18q-82 0 -141.5 34t-59.5 94q0 46 28.5 78t69.5 32q32 0 49.5 -19t19.5 -51l1 1l-50 -68q20 -25 79 -25q68 0 121.5 49t53.5 141q0 115 -86 115q-34 0 -64 -14.5
t-74 -46.5h-61l113 391q95 -30 205 -30q104 0 184 28l-14 -69q-107 -88 -249 -88q-49 0 -94 11z" />
    <glyph glyph-name="six.tnum" horiz-adv-x="594" 
d="M416 703q85 0 130.5 -37.5t45.5 -87.5q0 -38 -26.5 -65.5t-59.5 -27.5q-31 0 -55 15.5t-27 41.5l-1 -1l46 64q-17 24 -70 24t-106 -61t-75 -161l12 -7q62 53 143 53q84 0 128.5 -47t44.5 -125q0 -91 -48.5 -159.5t-115.5 -100t-137 -31.5q-44 0 -81.5 11.5t-69.5 37
t-50.5 72.5t-18.5 112q0 126 56 237.5t146.5 177t188.5 65.5zM256 75q60 0 92 57.5t32 147.5t-65 90q-64 0 -122 -81q-16 -67 -16 -115q0 -99 79 -99z" />
    <glyph glyph-name="seven.tnum" horiz-adv-x="594" 
d="M456 542l-9 18q-45 -17 -81 -17q-21 0 -51 6t-48 6q-43 0 -77 -28t-52 -76h-48l86 252h47l8 -25q64 25 107 25q31 0 82 -19q48 -18 84 -18q54 0 117 38q5 -16 14.5 -43.5t13.5 -39.5q-148 -123 -228.5 -238.5t-134.5 -298.5q-7 -23 -12 -35t-15.5 -26t-27.5 -20t-43 -6
q-72 0 -72 52q0 17 6 36q86 231 334 457z" />
    <glyph glyph-name="eight.tnum" horiz-adv-x="594" 
d="M428 376l-1 -8q107 -43 107 -143t-92 -167.5t-209 -67.5q-102 0 -164.5 40.5t-62.5 112.5q0 58 48 109t115 82l2 10q-69 56 -69 147q0 80 74 146t205 66q93 0 145.5 -39.5t52.5 -103.5q0 -105 -151 -184zM353 413h5q36 24 58 57t22 67q0 39 -23.5 62.5t-62.5 23.5
q-45 0 -75 -29t-30 -64q0 -75 106 -117zM258 70q51 0 89 30t38 74q0 81 -143 122q-35 -14 -65.5 -54t-30.5 -89q0 -40 30.5 -61.5t81.5 -21.5z" />
    <glyph glyph-name="nine.tnum" horiz-adv-x="594" 
d="M183 -10q-85 0 -132.5 36t-47.5 84q0 44 27 71t64 27q40 0 65 -47l-32 -69q13 -25 58 -25q63 0 119.5 67t76.5 156l-13 7q-28 -22 -69.5 -36.5t-80.5 -14.5q-85 0 -130 43t-45 116q0 89 49 159t119.5 104.5t143.5 34.5q91 0 153 -59t62 -183q0 -92 -34.5 -180t-89 -151
t-124.5 -101.5t-139 -38.5zM343 618q-49 0 -90.5 -66t-41.5 -150q0 -78 69 -78q75 0 125 89q15 71 15 114q0 91 -77 91z" />
    <glyph glyph-name="exclamdown.case" horiz-adv-x="359" 
d="M86 129l15 45q63 184 108 337q10 -2 27 -5.5t26 -4.5q-24 -236 -24 -407q0 -43 -21 -74.5t-64 -31.5q-80 0 -80 74q0 28 13 67zM342 648q0 -33 -22.5 -57t-53.5 -24t-54 24t-23 57t22.5 56t54.5 23t54 -23t22 -56z" />
    <glyph glyph-name="questiondown.case" horiz-adv-x="473" 
d="M48 125q0 28 11.5 53t37 48t43 36t52.5 36q70 49 86 68q14 19 14 36q0 35 -41 35q-46 0 -56 -63l-46 14q36 130 148 130q51 0 90 -26t39 -77q0 -32 -21.5 -63.5t-45 -50.5t-65.5 -48q-32 -23 -45.5 -33.5t-34.5 -29.5t-29.5 -36t-8.5 -36t14 -32t38 -13q37 0 64 37
t28 109q26 5 63 10q6 -107 -40 -172.5t-130 -65.5q-77 0 -121 38.5t-44 95.5zM444 649q0 -37 -22.5 -57.5t-53.5 -20.5t-54 21t-23 57q0 32 22.5 55t54.5 23q33 0 54.5 -22.5t21.5 -55.5z" />
    <glyph glyph-name="hyphen.case" horiz-adv-x="318" 
d="M67 387h241v-110h-241v110z" />
    <glyph glyph-name="endash.case" horiz-adv-x="488" 
d="M86 387h393v-110h-393v110z" />
    <glyph glyph-name="emdash.case" horiz-adv-x="1000" 
d="M132 370h813v-80h-813v80z" />
    <glyph glyph-name="guilsinglleft.case" horiz-adv-x="445" 
d="M125 313l273 234l38 -26l-187 -223l-5 -15l46 -182l-51 -13q-20 34 -59.5 101.5t-59.5 101.5l7 23z" />
    <glyph glyph-name="guilsinglright.case" horiz-adv-x="445" 
d="M380 323l-273 -234l-38 26l187 223l5 15l-46 182l51 13l119 -203l-7 -23z" />
    <glyph glyph-name="guillemotleft.case" horiz-adv-x="652" 
d="M124 313l273 234l38 -26l-187 -223l-5 -15l46 -182l-51 -13q-20 34 -59.5 101.5t-59.5 101.5l7 23zM333 313l273 234l38 -26l-187 -223l-5 -15l46 -182l-51 -13q-23 37 -63 106.5t-56 96.5l7 23z" />
    <glyph glyph-name="guillemotright.case" horiz-adv-x="652" 
d="M588 323l-273 -234l-39 26l188 223l5 15l-47 182l52 13l119 -203l-7 -23zM379 323l-273 -234l-38 26l187 223l5 15l-46 182l51 13l119 -203l-7 -23z" />
    <glyph glyph-name="parenleft.case" horiz-adv-x="322" 
d="M238 -153l-30 -29q-69 65 -112 185.5t-43 232.5q0 95 24 176.5t73 150.5t105 124t137 119l27 -31q-129 -130 -193.5 -282.5t-64.5 -306.5q0 -205 77 -339z" />
    <glyph glyph-name="parenright.case" horiz-adv-x="322" 
d="M129 778l30 29q68 -65 111 -185.5t43 -232.5q0 -96 -24 -177t-72.5 -150.5t-104 -124t-137.5 -118.5l-27 31q128 130 193 282.5t65 305.5q0 204 -77 340z" />
    <glyph glyph-name="bracketleft.case" horiz-adv-x="335" 
d="M447 799l-14 -60q-21 -4 -72 -4q-47 0 -69 7l-192 -855q27 6 74 6q46 0 74 -3l-15 -64q-62 6 -130 6q-80 0 -124 -5l217 971q45 -5 133 -5q76 0 118 6z" />
    <glyph glyph-name="bracketright.case" horiz-adv-x="335" 
d="M-54 -174l13 60q28 4 72 4q43 0 69 -6l192 854q-31 -7 -74 -7q-36 0 -74 4l15 64q64 -6 130 -6q80 0 124 5l-216 -972q-63 5 -133 5q-84 0 -118 -5z" />
    <glyph glyph-name="braceleft.case" horiz-adv-x="435" 
d="M156 352l-4 -19q54 -7 91 -42t37 -85q0 -18 -3 -31q-6 -23 -27 -70q-30 -62 -39 -109q-4 -16 -4 -33q0 -78 127 -79l-12 -53q-122 1 -183 34.5t-61 94.5q0 20 5 35q11 35 40 91q32 60 39 86q4 16 4 37q0 49 -33 78.5t-87 30.5l10 52q68 2 123 39.5t62 90.5q2 20 2 29
q0 25 -5 55q-6 46 -5 77q10 78 69 108t211 31l-12 -53q-147 -2 -157 -87q5 -64 5 -165q-11 -60 -69 -100.5t-124 -42.5z" />
    <glyph glyph-name="braceright.case" horiz-adv-x="435" 
d="M303 279l4 19q-54 7 -91 42t-37 85q0 17 3 31q5 17 28 70q30 62 39 109q4 16 4 33q0 78 -127 79l12 53q121 -1 182.5 -34.5t61.5 -94.5q0 -20 -5 -35q-11 -35 -40 -91q-33 -61 -40 -87q-4 -16 -4 -36q0 -49 33 -78.5t87 -30.5l-10 -52q-68 -2 -122.5 -39.5t-61.5 -90.5
q-2 -20 -2 -29q0 -25 5 -55q6 -46 5 -77q-10 -78 -69.5 -108t-210.5 -31l12 53q146 2 157 87q-5 64 -5 165q11 60 69 100.5t123 42.5z" />
    <glyph glyph-name="zero.onum" horiz-adv-x="594" 
d="M577 333q0 -153 -95 -248t-224 -95q-95 0 -153 49.5t-58 146.5q0 137 94.5 242.5t230.5 105.5q91 0 148 -52t57 -149zM276 75q66 0 107.5 84.5t41.5 184.5q0 55 -17 81t-55 26q-64 0 -108 -86t-44 -182q0 -108 75 -108z" />
    <glyph glyph-name="one.onum" horiz-adv-x="491" 
d="M112 433l12 60q125 7 211 37h73l-86 -408q-6 -29 19 -43t90 -14l-14 -65h-394q2 10 7 31t7 31q122 9 140 60l64 296q-20 2 -64.5 7.5t-64.5 7.5z" />
    <glyph glyph-name="two.onum" horiz-adv-x="556" 
d="M226 128l2 -8h154q39 0 71 65h61q-11 -30 -35 -92.5t-35 -92.5h-412q0 11 0.5 43.5t0.5 42.5q80 44 131.5 76t106 73.5t81.5 81t27 78.5q0 34 -17.5 50t-43.5 16q-58 0 -91 -45l29 -60q-7 -35 -31.5 -56t-53.5 -21q-77 0 -77 75q0 78 79.5 129t179.5 51q85 0 133.5 -34
t48.5 -96q0 -31 -17.5 -62.5t-39 -53.5t-64 -50.5t-67 -42.5t-74.5 -41z" />
    <glyph glyph-name="three.onum" horiz-adv-x="568" 
d="M356 209l2 -15q60 -8 101 -42t41 -94q0 -74 -49 -129t-123 -81t-159 -26q-86 0 -139.5 32.5t-53.5 94.5q0 46 29.5 78t69.5 32q29 0 48 -21t16 -49l1 1l-53 -72q22 -20 81 -20q66 0 120.5 38.5t54.5 112.5q0 41 -27.5 62.5t-75.5 21.5q-37 0 -82 -13q-2 12 -5.5 31.5
t-4.5 29.5q238 86 238 211q0 70 -71 70q-44 0 -82 -28q9 -24 28 -68q-8 -30 -33.5 -51t-56.5 -21q-36 0 -56.5 18.5t-20.5 49.5q0 54 43 95t100 59t114 18q93 0 147.5 -37.5t54.5 -104.5q0 -111 -197 -183z" />
    <glyph glyph-name="four.onum" horiz-adv-x="585" 
d="M11 32l-1 40l454 462q13 -2 36 -5.5t34 -4.5l-87 -415h95q-2 -12 -8 -38l-9 -39h-96l-9 -42q-4 -19 -4 -35q0 -29 18 -37t65 -8l-17 -78h-323l17 78q50 1 70.5 14.5t29.5 58.5l10 49h-275zM142 116l1 -7h160l41 194l-13 8z" />
    <glyph glyph-name="five.onum" horiz-adv-x="574" 
d="M172 259l11 -10q77 37 148 37q75 0 128 -45.5t53 -129.5q0 -71 -31.5 -128t-81 -91t-106.5 -52t-113 -18q-81 0 -140.5 34t-59.5 94q0 46 28.5 77.5t69.5 31.5q32 0 49.5 -18.5t19.5 -50.5l1 1l-50 -69q20 -25 78 -25q68 0 122 49.5t54 141.5q0 115 -86 115
q-34 0 -64 -14.5t-74 -46.5h-61l112 390q98 -29 206 -29q103 0 184 27l-15 -68q-103 -88 -249 -88q-48 0 -93 11z" />
    <glyph glyph-name="six.onum" horiz-adv-x="606" 
d="M452 703q85 0 130 -37.5t45 -87.5q0 -39 -26.5 -66t-59.5 -27q-30 0 -54 15.5t-27 41.5l-1 -1l45 64q-17 24 -70 24t-106 -61t-75 -161l12 -7q62 53 143 53q84 0 129 -47t45 -125q0 -69 -28 -126t-73 -92t-97.5 -54t-103.5 -19q-44 0 -81.5 11.5t-69.5 37t-50.5 72.5
t-18.5 112q0 126 56 237.5t146.5 177t189.5 65.5zM291 75q60 0 92 57.5t32 147.5t-65 90q-64 0 -122 -81q-15 -69 -15 -115q0 -99 78 -99z" />
    <glyph glyph-name="seven.onum" horiz-adv-x="554" 
d="M424 374l-9 18q-44 -17 -80 -17q-22 0 -52 6q-28 6 -47 6q-43 0 -77 -28.5t-52 -76.5h-49l87 252h47l8 -24q62 24 106 24q35 0 83 -18q46 -18 84 -18q51 0 117 37q5 -14 14.5 -41t13.5 -41q-148 -123 -228.5 -239t-134.5 -299q-7 -22 -12 -34t-15.5 -26t-28 -20t-43.5 -6
q-71 0 -71 52q0 15 6 35q85 232 333 458z" />
    <glyph glyph-name="eight.onum" horiz-adv-x="585" 
d="M450 376l-1 -8q106 -44 106 -143q0 -100 -92 -167.5t-209 -67.5q-102 0 -164.5 40.5t-62.5 112.5q0 58 48 109t116 82l2 10q-70 56 -70 147q0 80 74 146t205 66q93 0 145.5 -39.5t52.5 -103.5q0 -105 -150 -184zM374 413h5q36 24 58.5 57.5t22.5 66.5q0 39 -24 62.5
t-63 23.5q-45 0 -75 -29t-30 -64q0 -75 106 -117zM279 70q51 0 89 30t38 74q0 81 -143 122q-35 -14 -65.5 -54t-30.5 -89q0 -40 30.5 -61.5t81.5 -21.5z" />
    <glyph glyph-name="nine.onum" horiz-adv-x="606" 
d="M197 -178q-86 0 -133.5 36t-47.5 84q0 44 27.5 70.5t63.5 26.5q20 0 37.5 -13.5t27.5 -32.5l-32 -70q12 -25 59 -25q62 0 118.5 67.5t76.5 156.5l-13 7q-28 -22 -69.5 -36.5t-80.5 -14.5q-85 0 -130 43t-45 116q0 88 49 158t119.5 104.5t143.5 34.5q92 0 153.5 -58.5
t61.5 -183.5q0 -92 -34.5 -179.5t-89 -150.5t-124 -101.5t-138.5 -38.5zM356 450q-49 0 -90.5 -66t-41.5 -150q0 -79 69 -79q75 0 125 90q15 69 15 114q0 91 -77 91z" />
    <glyph glyph-name="zero.onum.tnum" horiz-adv-x="594" 
d="M551 333q0 -153 -90.5 -248t-214.5 -95q-91 0 -147 50t-56 146q0 137 91 242.5t221 105.5q87 0 141.5 -52t54.5 -149zM263 75q63 0 103 84.5t40 184.5q0 55 -16.5 81t-52.5 26q-62 0 -104 -86t-42 -182q0 -108 72 -108z" />
    <glyph glyph-name="one.onum.tnum" horiz-adv-x="594" 
d="M161 433l12 60q127 7 211 37h74l-87 -408q-5 -29 19.5 -43t90.5 -14l-14 -65h-394q2 10 7 31t7 31q122 9 140 60l63 296q-20 2 -63.5 7.5t-65.5 7.5z" />
    <glyph glyph-name="two.onum.tnum" horiz-adv-x="594" 
d="M236 128l2 -8h154q19 0 38 18t33 47h61q-11 -30 -35 -92.5t-35 -92.5h-412q0 11 0.5 43.5t0.5 42.5q80 44 131.5 76t106 73.5t81.5 81t27 78.5q0 34 -17.5 50t-43.5 16q-58 0 -91 -45l29 -60q-7 -35 -31.5 -56t-53.5 -21q-77 0 -77 75q0 78 79.5 129t179.5 51
q85 0 133.5 -34t48.5 -96q0 -31 -17.5 -62.5t-39 -53.5t-64 -50.5t-67 -42.5t-74.5 -41z" />
    <glyph glyph-name="three.onum.tnum" horiz-adv-x="594" 
d="M354 210l2 -15q60 -8 101 -42t41 -94q0 -74 -49 -129t-123 -81t-159 -26q-86 0 -139.5 32.5t-53.5 94.5q0 46 29.5 78t69.5 32q29 0 48 -21t16 -49l1 1l-53 -72q22 -20 81 -20q66 0 120.5 38.5t54.5 112.5q0 41 -27.5 62.5t-75.5 21.5q-39 0 -82 -13q-2 12 -5.5 31.5
t-4.5 29.5q238 86 238 211q0 70 -72 70q-43 0 -81 -28q9 -24 28 -68q-8 -30 -33.5 -51t-56.5 -21q-36 0 -56.5 18.5t-20.5 49.5q0 54 43 95t100 59t114 18q93 0 147.5 -37.5t54.5 -104.5q0 -111 -197 -183z" />
    <glyph glyph-name="four.onum.tnum" horiz-adv-x="594" 
d="M-14 33l-1 40l453 462q14 -2 37 -5.5t34 -4.5l-88 -415h96q-3 -12 -9 -38.5t-8 -38.5h-96l-9 -42q-4 -19 -4 -35q0 -29 18 -37t65 -8l-17 -78h-323l17 78q50 1 70.5 14.5t29.5 58.5l10 49h-275zM117 117l1 -7h160l41 194l-14 8z" />
    <glyph glyph-name="five.onum.tnum" horiz-adv-x="594" 
d="M169 260l11 -10q77 37 148 37q75 0 128 -45.5t53 -129.5q0 -71 -31.5 -128t-81 -91t-106.5 -52t-113 -18q-81 0 -140.5 34t-59.5 94q0 46 28.5 77.5t69.5 31.5q32 0 49.5 -18.5t19.5 -50.5l1 1l-50 -69q20 -25 78 -25q68 0 122 49.5t54 141.5q0 115 -86 115
q-34 0 -64 -14.5t-74 -46.5h-61l112 390q98 -29 206 -29q103 0 183 27l-14 -68q-103 -88 -249 -88q-48 0 -93 11z" />
    <glyph glyph-name="six.onum.tnum" horiz-adv-x="594" 
d="M428 703q85 0 130.5 -37.5t45.5 -87.5q0 -38 -26.5 -65.5t-59.5 -27.5q-30 0 -54 15.5t-28 41.5l-1 -1l46 64q-17 24 -70 24t-106 -61t-75 -161l12 -7q62 53 143 53q84 0 128.5 -47t44.5 -125q0 -91 -48.5 -159.5t-115.5 -100t-137 -31.5q-44 0 -81.5 11.5t-69.5 37
t-50.5 72.5t-18.5 112q0 126 56 237.5t146.5 177t188.5 65.5zM268 75q60 0 92 57.5t32 147.5t-65 90q-64 0 -122 -81q-15 -69 -15 -115q0 -99 78 -99z" />
    <glyph glyph-name="seven.onum.tnum" horiz-adv-x="594" 
d="M425 375l-9 18q-44 -17 -80 -17q-22 0 -52 6q-28 6 -47 6q-43 0 -77 -28.5t-52 -76.5h-49l87 252h47l8 -24q62 24 106 24q35 0 83 -18q46 -18 84 -18q51 0 117 37q5 -14 14.5 -41t13.5 -41q-148 -123 -228.5 -239t-134.5 -299q-7 -22 -12 -34t-15.5 -26t-28 -20t-43.5 -6
q-71 0 -71 52q0 16 6 35q85 232 333 458z" />
    <glyph glyph-name="eight.onum.tnum" horiz-adv-x="594" 
d="M436 376l-1 -8q107 -43 107 -143t-92 -167.5t-209 -67.5q-102 0 -164.5 40.5t-62.5 112.5q0 58 48 109t115 82l2 10q-69 56 -69 147q0 80 74 146t205 66q93 0 145.5 -39.5t52.5 -103.5q0 -105 -151 -184zM361 413h5q36 24 58.5 57.5t22.5 66.5q0 39 -23.5 62.5
t-63.5 23.5q-45 0 -75 -29t-30 -64q0 -75 106 -117zM266 70q51 0 89 30t38 74q0 81 -143 122q-35 -14 -65.5 -54t-30.5 -89q0 -40 30.5 -61.5t81.5 -21.5z" />
    <glyph glyph-name="nine.onum.tnum" horiz-adv-x="594" 
d="M182 -177q-86 0 -133 36t-47 84q0 44 27 70.5t64 26.5q20 0 37.5 -13.5t27.5 -32.5l-32 -70q12 -25 58 -25q63 0 119.5 67.5t76.5 156.5l-13 7q-28 -22 -69.5 -36.5t-80.5 -14.5q-85 0 -130 43t-45 116q0 88 49 158t119.5 104.5t143.5 34.5q92 0 153.5 -58.5t61.5 -183.5
q0 -122 -57.5 -232t-147 -174t-182.5 -64zM342 451q-49 0 -90.5 -66t-41.5 -150q0 -79 69 -79q75 0 125 90q15 69 15 114q0 91 -77 91z" />
    <glyph glyph-name="dollar.onum" horiz-adv-x="513" 
d="M125 80l-24 -44l-60 6q7 35 22.5 103t22.5 103q9 -1 25.5 -3t24.5 -2q-1 -54 21.5 -94t64.5 -59l28 141q-62 29 -98 63.5t-36 84.5q0 17 4 32q14 57 68 88.5t121 29.5l20 93q8 -1 22.5 -4t21.5 -4l-19 -93q43 -13 76 -51l26 42q10 -1 29 -3t28 -2l-45 -188l-48 3
q-9 101 -79 132l-25 -124l20 -8q57 -25 90.5 -57.5t33.5 -81.5q0 -19 -5 -41q-18 -59 -75.5 -96.5t-128.5 -31.5l-19 -96l-43 7l19 99q-53 18 -83 56zM353 128v1q8 41 -62 83l-25 -129q33 -1 57 11t30 34zM233 422v1q-11 -38 41 -73l21 112q-26 -1 -43 -13t-19 -27z" />
    <glyph glyph-name="cent.onum" horiz-adv-x="372" 
d="M310 209l41 -7q-15 -47 -49 -71t-79 -24h-23l-17 -74l-30 6l16 76q-50 16 -81 53.5t-31 92.5q0 23 6 45q16 66 67 108.5t113 42.5l16 72l31 -6l-16 -69q48 -11 78 -47t24 -77q-6 -21 -25.5 -33.5t-39.5 -10.5q-29 8 -31 41l-1 -1l22 45q-8 18 -38 28l-48 -223q8 -4 12 -4
q27 -4 51 7t32 30zM162 251q0 -30 23 -63l45 209q-48 -32 -63 -103q-5 -25 -5 -43z" />
    <glyph glyph-name="sterling.onum" horiz-adv-x="509" 
d="M103 310h49q-5 28 -5 53q0 17 3 31q20 67 82.5 107.5t128.5 40.5q76 0 111.5 -31.5t27.5 -70.5q-6 -20 -22 -33.5t-32 -13.5q-18 0 -30 9.5t-16 18t-10 26.5q-5 15 -9 22t-13 14.5t-23 7.5q-21 0 -40.5 -20.5t-28.5 -60.5q-4 -17 -4 -36q0 -16 6 -48q0 -10 2 -16h118
q-2 -8 -5.5 -24.5t-5.5 -24.5h-102l-4 -27v1q-10 -37 -30.5 -69.5t-44.5 -48.5l7 -14q21 15 34 15q32 0 62 -41q21 -31 44 -31q20 0 25 14q0 12 -9 30q-11 18 -7 32q4 17 19 30t36 13q28 0 41.5 -19.5t6.5 -53.5q-12 -47 -56 -74.5t-91 -27.5q-51 0 -96 17.5t-72 42.5
q-56 -60 -106 -60q-18 0 -27.5 10.5t-7.5 25.5q14 47 117 73q21 30 35 89v-1q4 16 4 37q0 19 -3 37h-71z" />
    <glyph glyph-name="yen.onum" horiz-adv-x="525" 
d="M612 508l-9 -41q-52 -4 -101 -57l-56 -65q-76 -90 -99 -115h105l-10 -44h-107l-9 -44h105l-10 -45h-106q-3 -9 -3 -24q0 -20 15.5 -25.5t57.5 -5.5l-10 -42h-276l10 42q53 0 69 9t23 46h-105l10 45h106l9 44h-104l10 44h100l-81 172q-16 37 -31 50.5t-47 14.5l7 41h260
l-9 -41q-44 -1 -58 -12t0 -37h-1l60 -129q9 11 30 37.5t24 30.5l48 60q16 20 16 28q0 21 -44 22l9 41h202z" />
    <glyph glyph-name="Euro.onum" horiz-adv-x="555" 
d="M99 322h46q42 99 120.5 158.5t161.5 59.5q90 0 158 -52l-55 -115h-33q7 66 -17.5 92.5t-63.5 26.5q-45 0 -87.5 -43t-71.5 -127h245l-19 -41h-238l-6 -27v1q-2 -6 -2 -11h227l-19 -41h-216q-1 -12 -1 -36q0 -62 26 -94.5t66 -32.5q87 0 139 90l37 -10q-73 -130 -204 -130
q-80 0 -130 48t-50 135q0 20 1 30h-49q2 7 9 21t9 20h38q0 1 1 4.5t1 4.5q3 12 8 28h-49z" />
    <glyph glyph-name="numbersign.onum" horiz-adv-x="439" 
d="M99 413l80 -11l38 163l55 -10l-35 -160l66 -8l41 178l55 -10l-38 -176l85 -10q-1 -10 -5.5 -31t-6.5 -32l-87 13l-24 -111l74 -10l-12 -61l-76 9l-39 -179q-10 2 -28 5.5t-28 5.5l38 176l-67 8l-44 -195q-10 2 -28 6t-27 5l42 190l-90 13q2 11 6 31t5 29l92 -12l25 111
l-79 11zM223 334l-24 -112l66 -8l25 112z" />
    <glyph glyph-name="percent.onum" horiz-adv-x="464" 
d="M308 417q-15 0 -36 12q-6 -62 -41.5 -100.5t-81.5 -38.5q-41 0 -67 28.5t-26 73.5q0 59 40 102t86 43q28 0 50.5 -15t30.5 -38q16 -25 52 -25q28 0 64 20q15 53 49 53q9 0 17 -6t8 -18q0 -14 -12 -29t-26 -23l-154 -213l-179 -258l-38 27l186 253q1 2 62 96l40 59
q-15 -3 -24 -3zM238 93q0 59 39.5 102t86.5 43q40 0 65.5 -25.5t25.5 -69.5q0 -68 -37.5 -109.5t-83.5 -41.5q-43 0 -69.5 28.5t-26.5 72.5zM378 190q-25 0 -46.5 -37.5t-21.5 -80.5q0 -35 28 -35q25 0 46.5 29t21.5 84q0 18 -8.5 29t-19.5 11zM197 487q-25 0 -47.5 -36.5
t-22.5 -78.5q0 -36 30 -36q24 0 45 29t21 83q0 39 -26 39z" />
    <glyph glyph-name="perthousand.onum" horiz-adv-x="698" 
d="M312 417q-17 0 -38 12q-5 -61 -40 -100t-81 -39q-41 0 -67.5 28.5t-26.5 73.5q0 59 40 102t86 43q27 0 49.5 -14.5t31.5 -38.5q16 -25 53 -25q29 0 63 19q17 54 49 54q26 0 26 -24q0 -14 -12 -28.5t-27 -23.5l-154 -213l-178 -258l-38 27l185 253q1 2 62 96l40 58
q-12 -2 -23 -2zM242 93q0 59 39.5 102t86.5 43q40 0 65 -25.5t25 -69.5q0 -68 -37.5 -109.5t-83.5 -41.5q-43 0 -69 28.5t-26 72.5zM471 93q0 59 39 102t86 43q40 0 65 -25.5t25 -69.5q0 -68 -37.5 -109.5t-83.5 -41.5q-42 0 -68 28.5t-26 72.5zM610 190q-25 0 -47 -37.5
t-22 -80.5q0 -35 29 -35q25 0 46 29t21 84q0 19 -7.5 29.5t-19.5 10.5zM382 190q-25 0 -47 -37.5t-22 -80.5q0 -35 28 -35q26 0 47 28.5t21 84.5q0 18 -8.5 29t-18.5 11zM200 487q-25 0 -47 -36.5t-22 -78.5q0 -36 30 -36q24 0 45 29t21 83q0 39 -27 39z" />
    <glyph glyph-name="ordfeminine.onum" horiz-adv-x="385" 
d="M342 183q-65 0 -62 73l-9 1q-16 -35 -45.5 -56.5t-59.5 -21.5q-45 0 -69.5 28t-24.5 76q0 101 50.5 180.5t116.5 79.5q37 0 67 -43l9 15q2 3 5.5 10t5.5 10h76q-9 -38 -25.5 -114.5t-24.5 -111.5q-7 -28 -7 -41q0 -24 17 -24q27 0 35 81q6 -1 17 -3t16 -2
q-8 -70 -29 -103.5t-59 -33.5zM194 244q24 0 50 52.5t44 153.5q-17 30 -42 30q-27 0 -52 -55t-25 -126q0 -55 25 -55z" />
    <glyph glyph-name="ordmasculine.onum" horiz-adv-x="338" 
d="M374 405q0 -93 -52 -159.5t-128 -66.5q-59 0 -92.5 32.5t-33.5 92.5q0 105 56 172t125 67q63 0 94 -36.5t31 -101.5zM203 240q35 0 55 62t20 127q0 54 -34 54t-57.5 -59t-23.5 -130q0 -54 40 -54z" />
    <glyph glyph-name="degree.onum" horiz-adv-x="367" 
d="M90 457q0 62 43.5 107t103.5 45q61 0 105 -45t44 -107t-44 -106.5t-105 -44.5q-60 0 -103.5 44.5t-43.5 106.5zM166 457q0 -32 19.5 -54t50.5 -22q32 0 51.5 22t19.5 54q0 33 -19.5 55.5t-51.5 22.5q-31 0 -50.5 -22.5t-19.5 -55.5z" />
    <glyph glyph-name="zero.numr" horiz-adv-x="331" 
d="M345 564q0 -110 -59 -181t-141 -71q-57 0 -90.5 31t-33.5 97q0 104 63 184t141 80q120 0 120 -140zM153 364q42 0 67.5 72.5t25.5 155.5q0 33 -7.5 45.5t-24.5 12.5q-35 0 -63.5 -72.5t-28.5 -153.5q0 -60 31 -60z" />
    <glyph glyph-name="one.numr" horiz-adv-x="270" 
d="M61 635l9 42q9 -1 36 -1q52 0 114 20h30l-63 -297q-3 -22 11.5 -29t50.5 -7l-9 -44h-238l9 44q67 1 77 36l47 223q-48 2 -74 13z" />
    <glyph glyph-name="two.numr" horiz-adv-x="320" 
d="M125 399l1 -7h87q29 0 45 45h47l-47 -118h-258l-4 44q4 3 13 8.5t11 7.5q216 143 216 230q0 46 -38 46q-31 0 -51 -28l24 -52q-4 -21 -21.5 -33.5t-41.5 -12.5q-53 0 -53 44q0 55 52.5 93t106.5 38q58 0 91 -23.5t33 -66.5q0 -24 -15 -49.5t-33 -44.5t-55 -45t-57.5 -39
t-63.5 -39q7 1 11 2z" />
    <glyph glyph-name="three.numr" horiz-adv-x="312" 
d="M224 521v-3q34 -7 56 -25.5t22 -48.5q0 -61 -56.5 -96.5t-131.5 -35.5q-51 0 -82.5 18.5t-31.5 52.5q0 26 19 44t44 18q19 0 31.5 -11.5t10.5 -26.5l1 1l-32 -42q11 -9 39 -9q34 0 61 20.5t27 60.5q0 44 -49 44q-20 0 -51 -10q-1 7 -3.5 19.5t-3.5 18.5q130 48 130 115
q0 37 -31 37q-15 0 -38 -14l5 -11q2 -4 6 -14t6 -14q-4 -17 -19.5 -27.5t-37.5 -10.5q-49 0 -49 37q0 44 47 70t100 26q54 0 86 -21.5t32 -57.5q0 -58 -113 -101l2 -4q2 0 4 1z" />
    <glyph glyph-name="four.numr" horiz-adv-x="322" 
d="M17 427l-1 21l252 257q9 -1 25 -4t25 -4l-48 -226h52l-9 -44h-52l-5 -22q-6 -27 3 -34.5t40 -7.5l-10 -44h-191l9 44q25 1 37 9t18 29q0 4 2 12l4 14h-151zM99 471h77l22 102l-96 -98h-3v-4z" />
    <glyph glyph-name="five.numr" horiz-adv-x="316" 
d="M143 618l-22 -68q47 19 80 19q44 0 75.5 -25.5t31.5 -72.5q0 -51 -31 -88.5t-73 -54t-85 -16.5q-47 0 -82 19t-35 52q0 26 18 44t44 18q42 0 44 -38l1 1l-29 -39q15 -13 37 -13q34 0 61 26.5t27 76.5q0 61 -39 61q-27 0 -71 -33h-47l63 219q61 -19 121 -19q50 0 107 18
l-8 -41l2 1q-59 -51 -146 -51q-20 0 -44 4z" />
    <glyph glyph-name="six.numr" horiz-adv-x="333" 
d="M249 704q50 0 76.5 -21t26.5 -49q0 -21 -16.5 -36t-38.5 -15q-20 0 -35.5 8t-16.5 22l-1 -1l26 36q-11 13 -31 13q-25 0 -51 -31.5t-40 -84.5q39 22 77 22q50 0 76 -25.5t26 -68.5q0 -74 -54 -117.5t-118 -43.5q-55 0 -91.5 30t-36.5 99q0 105 68 184t154 79zM161 361
q29 0 44.5 31t15.5 80q0 48 -28 48q-29 0 -61 -43q-6 -50 -6 -63q0 -53 35 -53z" />
    <glyph glyph-name="seven.numr" horiz-adv-x="305" 
d="M246 614l-4 6q-18 -6 -38 -6q-14 0 -30 4q-12 3 -24 3q-43 0 -64 -57h-41l47 140h41l2 -12q27 12 54 12q21 0 45 -8q2 -1 3 -1q24 -11 42 -11q21 0 71 26q1 -4 6.5 -22.5t9.5 -28.5q-82 -69 -125 -131t-73 -164q-5 -16 -9.5 -24t-17.5 -15.5t-35 -7.5q-58 0 -41 49
q42 122 181 248z" />
    <glyph glyph-name="eight.numr" horiz-adv-x="322" 
d="M255 524v-4h-2l-2 3l-1 -3q63 -26 63 -77q0 -56 -52.5 -93.5t-119.5 -37.5q-59 0 -95.5 23t-36.5 62q0 31 28 59t66 46l-1 1h4q-45 37 -45 84q0 44 42.5 80.5t118.5 36.5q54 0 84.5 -22t30.5 -57q0 -56 -86 -101v-1l1 1h3zM154 358q25 0 43.5 16t18.5 40q0 44 -69 65
q-17 -9 -31.5 -30t-14.5 -46q0 -22 14.5 -33.5t38.5 -11.5zM156 608q0 -38 50 -61q39 26 39 65q0 20 -10.5 33t-28.5 13q-22 0 -36 -15.5t-14 -34.5zM94 505l5 2v-1h2l1 -3z" />
    <glyph glyph-name="nine.numr" horiz-adv-x="333" 
d="M129 312q-51 0 -79 20t-28 47q0 25 17 40t41 15q30 0 43 -28l-18 -37q7 -12 25 -12q30 0 57 34t41 83q-42 -22 -81 -22q-50 0 -76.5 24t-26.5 64q0 73 56 118.5t122 45.5q53 0 89 -32.5t36 -100.5q0 -102 -68.5 -180.5t-149.5 -78.5zM216 655q-24 0 -44.5 -35.5
t-20.5 -80.5q0 -42 30 -42q35 0 62 49q7 44 7 61q0 48 -34 48z" />
    <glyph glyph-name="zero.dnom" horiz-adv-x="331" 
d="M345 207q0 -110 -58.5 -181t-141.5 -71q-124 0 -124 128q0 104 63 183.5t141 79.5q58 0 89 -35.5t31 -103.5zM153 6q42 0 67.5 72.5t25.5 155.5q0 33 -7.5 45.5t-24.5 12.5q-35 0 -63.5 -72.5t-28.5 -152.5q0 -61 31 -61z" />
    <glyph glyph-name="one.dnom" horiz-adv-x="270" 
d="M61 277l9 43q9 -1 36 -1q50 0 114 19h30l-63 -297q-3 -22 11.5 -29t50.5 -7l-9 -44h-238l9 44q67 1 77 36l47 223q-48 2 -74 13z" />
    <glyph glyph-name="two.dnom" horiz-adv-x="320" 
d="M125 41l1 -7h87q30 0 45 46h47l-47 -119h-258l-4 44q4 3 13 8.5t11 7.5q39 27 63.5 45t66.5 53t64 68.5t22 63.5q0 46 -38 46q-31 0 -51 -28l24 -52q-5 -20 -22 -33t-41 -13q-26 0 -39.5 12t-13.5 32q0 55 52.5 93t106.5 38q58 0 91 -23.5t33 -66.5q0 -24 -15 -49.5
t-33 -44.5t-55 -45t-57.5 -39t-63.5 -39q7 1 11 2z" />
    <glyph glyph-name="three.dnom" horiz-adv-x="312" 
d="M224 163v-3q34 -7 56 -25.5t22 -48.5q0 -61 -56.5 -96t-131.5 -35q-51 0 -82.5 18t-31.5 52q0 26 19 44t44 18q19 0 31.5 -11.5t10.5 -26.5l1 1l-32 -42q11 -9 39 -9q34 0 61 20.5t27 61.5q0 43 -49 43q-20 0 -51 -10q-1 7 -3.5 19.5t-3.5 18.5q130 48 130 115
q0 37 -31 37q-15 0 -38 -14l5 -11q2 -4 6 -14t6 -14q-4 -17 -19.5 -27.5t-37.5 -10.5q-49 0 -49 37q0 44 47 70t100 26q54 0 86 -21t32 -58q0 -56 -113 -101l2 -4q2 0 4 1z" />
    <glyph glyph-name="four.dnom" horiz-adv-x="322" 
d="M17 70l-1 20l252 257q9 -1 25 -4t25 -4l-48 -226h52l-9 -43h-52l-5 -23q-6 -27 3 -34.5t40 -7.5l-10 -44h-191l9 44q25 1 37 9t18 29q0 4 2 12l4 15h-151zM99 113h77l22 102l-96 -98h-3v-4z" />
    <glyph glyph-name="five.dnom" horiz-adv-x="316" 
d="M143 260l-22 -67q44 18 80 18q44 0 75.5 -25.5t31.5 -72.5q0 -51 -31 -88.5t-73 -53.5t-85 -16q-48 0 -82.5 18.5t-34.5 51.5q0 26 18 44t44 18q42 0 44 -38l1 1l-29 -39q15 -13 37 -13q34 0 61 26.5t27 76.5q0 61 -39 61q-27 0 -71 -33h-47l63 219q63 -18 121 -18
q48 0 107 17l-8 -41l2 1q-59 -51 -146 -51q-20 0 -44 4z" />
    <glyph glyph-name="six.dnom" horiz-adv-x="333" 
d="M249 346q50 0 76.5 -21t26.5 -49q0 -21 -16.5 -36t-38.5 -15q-20 0 -35.5 8t-16.5 22l-1 -1l26 36q-11 13 -31 13q-25 0 -51 -31.5t-40 -84.5q38 23 77 23q49 0 75.5 -26t26.5 -69q0 -74 -54 -117t-118 -43q-55 0 -91.5 30t-36.5 99q0 104 68 183t154 79zM161 3
q29 0 44.5 31t15.5 80q0 48 -28 48q-29 0 -61 -43q-6 -50 -6 -63q0 -53 35 -53z" />
    <glyph glyph-name="seven.dnom" horiz-adv-x="305" 
d="M246 256l-4 6q-18 -6 -38 -6q-14 0 -30 4q-12 3 -24 3q-43 0 -64 -56h-41l47 139h41l2 -11q28 11 54 11q21 0 45 -8q2 -1 3 -1q26 -10 42 -10q23 0 71 25l16 -51q-82 -69 -125 -131t-73 -164q-5 -16 -9.5 -24t-17.5 -15.5t-35 -7.5q-58 0 -41 49q42 122 181 248z" />
    <glyph glyph-name="eight.dnom" horiz-adv-x="322" 
d="M255 166v-4h-2l-2 3l-1 -3q63 -26 63 -77q0 -56 -52.5 -93t-119.5 -37q-59 0 -95.5 22.5t-36.5 61.5q0 31 27.5 59t66.5 46l-1 1h4q-45 37 -45 84q0 44 42.5 80.5t118.5 36.5q54 0 84.5 -22t30.5 -57q0 -56 -86 -101v-1l1 1h3zM154 0q25 0 43.5 16t18.5 40q0 44 -69 65
q-17 -9 -31.5 -29.5t-14.5 -46.5q0 -22 14.5 -33.5t38.5 -11.5zM156 250q0 -37 50 -60q39 26 39 64q0 20 -10.5 33t-28.5 13q-22 0 -36 -15.5t-14 -34.5zM94 147l5 2v-1h2l1 -3z" />
    <glyph glyph-name="nine.dnom" horiz-adv-x="333" 
d="M129 -45q-51 0 -79 20t-28 46q0 25 17 40.5t41 15.5q30 0 43 -29l-18 -37q7 -12 25 -12q30 0 57 34t41 83q-42 -22 -81 -22q-50 0 -76.5 24t-26.5 64q0 73 56 118.5t122 45.5q53 0 89 -32.5t36 -100.5q0 -101 -68.5 -179.5t-149.5 -78.5zM216 297q-24 0 -44.5 -35.5
t-20.5 -80.5q0 -42 30 -42q35 0 62 49q7 44 7 61q0 48 -34 48z" />
    <glyph glyph-name="zero.subs" horiz-adv-x="331" 
d="M284 86q0 -111 -58.5 -181.5t-140.5 -70.5q-124 0 -124 128q0 104 62.5 183.5t140.5 79.5q120 0 120 -139zM93 -115q41 0 66.5 72.5t25.5 155.5q0 33 -7.5 45.5t-24.5 12.5q-34 0 -63 -73t-29 -152q0 -61 32 -61z" />
    <glyph glyph-name="one.subs" horiz-adv-x="270" 
d="M1 156l8 43q9 -1 36 -1q52 0 114 19h31l-63 -297q-3 -22 11 -29t50 -7l-9 -44h-237l9 44q66 1 76 36l48 223q-49 2 -74 13z" />
    <glyph glyph-name="two.subs" horiz-adv-x="320" 
d="M66 -80l1 -7h86q29 0 46 46h47l-47 -119h-258l-5 44q4 3 13 8.5t12 7.5q33 23 48.5 34t53 40.5t57.5 51t38 51t18 53.5q0 46 -38 46q-30 0 -50 -28l24 -52q-5 -20 -22.5 -33t-41.5 -13q-52 0 -52 44q0 55 52 93t106 38q59 0 91.5 -23.5t32.5 -66.5q0 -24 -15 -49.5
t-33 -44.5t-55 -45t-57.5 -39t-63.5 -39q7 1 12 2z" />
    <glyph glyph-name="three.subs" horiz-adv-x="312" 
d="M163 42v-3q34 -7 56.5 -25.5t22.5 -48.5q0 -61 -56.5 -96t-132.5 -35q-50 0 -81.5 18t-31.5 52q0 26 18.5 44t43.5 18q19 0 31.5 -11.5t10.5 -26.5l1 1l-32 -42q11 -9 39 -9q34 0 61 20.5t27 61.5q0 43 -48 43q-19 0 -52 -10q-1 7 -3.5 19.5t-3.5 18.5q130 47 130 115
q0 37 -31 37q-14 0 -37 -14l5 -11q2 -4 6 -14t6 -14q-4 -17 -20 -27.5t-38 -10.5q-49 0 -49 37q0 45 47.5 70.5t99.5 25.5q54 0 86 -21t32 -58q0 -57 -113 -101l2 -4q2 0 4 1z" />
    <glyph glyph-name="four.subs" horiz-adv-x="322" 
d="M-43 -51l-1 20l252 257q9 -1 25 -4t24 -4l-47 -226h51l-8 -43h-52l-5 -23q-7 -27 2 -34.5t41 -7.5l-10 -44h-192l9 44q26 1 38 9t18 29q0 4 2 12l4 15h-151zM38 -8h78l21 102l-96 -98h-3v-4z" />
    <glyph glyph-name="five.subs" horiz-adv-x="316" 
d="M84 139l-23 -67q46 18 80 18q45 0 76.5 -25.5t31.5 -72.5q0 -51 -31.5 -88.5t-73.5 -53.5t-85 -16q-47 0 -81.5 18.5t-34.5 51.5q0 27 17.5 44.5t43.5 17.5q42 0 44 -38l1 1l-29 -39q15 -13 37 -13q34 0 61 26.5t27 76.5q0 61 -38 61q-17 0 -31 -7t-41 -26h-46l62 219
q65 -18 121 -18q50 0 107 17l-8 -41l2 1q-57 -51 -145 -51q-20 0 -44 4z" />
    <glyph glyph-name="six.subs" horiz-adv-x="333" 
d="M189 225q50 0 76 -20.5t26 -49.5q0 -21 -16.5 -36t-37.5 -15q-20 0 -36 8t-17 22l-1 -1l27 36q-11 13 -32 13q-24 0 -50 -31t-40 -84q39 22 76 22q50 0 76 -26t26 -69q0 -74 -54 -117t-117 -43q-56 0 -92 30t-36 99q0 104 68 183t154 79zM101 -118q28 0 43.5 31t15.5 80
q0 48 -28 48t-60 -43q-6 -50 -6 -63q0 -53 35 -53z" />
    <glyph glyph-name="seven.subs" horiz-adv-x="305" 
d="M186 135l-4 6q-18 -6 -38 -6q-13 0 -29 4q-12 3 -24 3q-44 0 -65 -56h-40l46 139h42l2 -11q28 11 53 11q21 0 45 -8q2 -1 3 -1q28 -10 43 -10q22 0 70 25l16 -51q-82 -70 -125 -131.5t-72 -163.5q-5 -16 -9.5 -24t-18 -15.5t-35.5 -7.5q-56 0 -41 49q42 123 181 248z" />
    <glyph glyph-name="eight.subs" horiz-adv-x="322" 
d="M195 45v-4h-2l-2 3l-1 -3q63 -26 63 -77q0 -56 -52.5 -93t-119.5 -37q-59 0 -95.5 22.5t-36.5 61.5q0 31 27.5 59t65.5 46l-1 1h4q-44 36 -44 84q0 44 42 80.5t118 36.5q55 0 85 -21.5t30 -57.5q0 -54 -85 -101v-1l1 1h3zM94 -121q25 0 43 16t18 40q0 43 -68 65
q-18 -9 -32.5 -30t-14.5 -46q0 -22 15 -33.5t39 -11.5zM96 129q0 -37 49 -60q39 26 39 64q0 20 -10.5 33t-28.5 13q-21 0 -35 -15.5t-14 -34.5zM33 26l5 2v-1h2l1 -3z" />
    <glyph glyph-name="nine.subs" horiz-adv-x="333" 
d="M69 -166q-51 0 -79 20t-28 46q0 25 17 40.5t40 15.5q29 0 44 -29l-19 -37q7 -12 26 -12q30 0 56.5 33.5t40.5 83.5q-42 -22 -80 -22q-51 0 -77 24t-26 64q0 73 55.5 118.5t121.5 45.5q54 0 89.5 -32.5t35.5 -100.5q0 -101 -68.5 -179.5t-148.5 -78.5zM155 176
q-24 0 -44 -35.5t-20 -80.5q0 -42 30 -42q34 0 61 50q8 48 8 60q0 48 -35 48z" />
    <glyph glyph-name="acute.case" horiz-adv-x="500" 
d="M190 492v16l-1 -1l85 119h117v-18q-26 -23 -76.5 -64.5t-61.5 -51.5h-63z" />
    <glyph glyph-name="grave.case" horiz-adv-x="500" 
d="M301 507v-15h-63l-103 116v18h115q8 -19 25 -59.5t26 -59.5z" />
    <glyph glyph-name="circumflex.case" horiz-adv-x="500" 
d="M390 508v-16h-29l-84 59l-131 -59h-38v15l162 119h53l68 -119z" />
    <glyph glyph-name="breve.case" horiz-adv-x="500" 
d="M244 492q-47 0 -74.5 23.5t-27.5 71.5q0 14 5 39h40q-5 -26 15 -45t58 -19q40 0 73.5 18.5t40.5 45.5h44q-16 -66 -65.5 -100t-108.5 -34z" />
    <glyph glyph-name="caron.case" horiz-adv-x="500" 
d="M160 610v16h30l83 -60l131 60h39v-15l-163 -119h-52l-69 119z" />
    <glyph glyph-name="dotaccent.case" horiz-adv-x="500" 
d="M211 553q0 34 20.5 61t50.5 27q24 0 37.5 -18.5t13.5 -45.5q0 -34 -21.5 -59t-48.5 -25q-23 0 -37.5 18t-14.5 42z" />
    <glyph glyph-name="hungarumlaut.case" horiz-adv-x="500" 
d="M99 492v16l-1 -1l85 119h117v-18q-49 -43 -138 -116h-63zM270 492v16l-1 -1l86 119h117v-18l-138 -116h-64z" />
    <glyph glyph-name="sidecaron.part" horiz-adv-x="500" 
d="M219 493v5q1 3 71 210h97v-8l1 1l-110 -208h-59z" />
    <glyph glyph-name="gcomma.part" horiz-adv-x="500" 
d="M304 551q0 -19 -13.5 -31t-33.5 -12q-25 0 -43 22t-18 61q0 49 43.5 89.5t112.5 42.5v-28q-37 -3 -58.5 -26.5t-21.5 -48.5q0 -22 19 -41q13 -19 13 -28z" />
    <glyph glyph-name="Stroke.part" horiz-adv-x="430" 
d="M138 532h746l-16 -70h-746z" />
    <glyph glyph-name="stroke.part" horiz-adv-x="430" 
d="M57 557h305v-56h-305v56z" />
    <glyph glyph-name="uni2011.case" horiz-adv-x="318" 
d="M67 387h241v-110h-241v110z" />
    <glyph glyph-name="acute.plk" horiz-adv-x="500" 
d="M209 492v15q11 25 32.5 77t32.5 77h116v-18l1 1l-119 -152h-63z" />
    <glyph glyph-name="acute.case.plk" horiz-adv-x="500" 
d="M210 492v16l-1 -1l60 119h112v-18l-113 -116h-58z" />
    <glyph glyph-name="Iacute_Jacute" horiz-adv-x="922" 
d="M1025 692l-17 -80q-60 0 -83 -16t-35 -74l-69 -327q-13 -60 -43 -103t-69 -64.5t-74.5 -30.5t-71.5 -9q-78 0 -130 31.5t-52 102.5q0 61 29.5 95.5t76.5 34.5q42 0 62.5 -28.5t13.5 -70.5l-68 -54q7 -41 63 -41q43 0 68 30t41 98l73 335q5 20 5 43q0 32 -19.5 40t-79.5 8
q3 13 8.5 40t8.5 40h362zM452 692l-17 -82q-58 0 -71 -6t-20 -34l-94 -442q-6 -30 6 -38t67 -8l-18 -82h-317l18 82q57 0 71.5 7.5t21.5 38.5l94 442q7 30 -4 36t-71 6q2 13 8 40t9 40h317zM793 753v16l-1 -1l86 119h117v-18q-26 -23 -76.5 -64.5t-61.5 -51.5h-64zM239 753
v16l-1 -1l86 119h117v-18l-139 -116h-63z" />
    <glyph glyph-name="iacute_jacute" horiz-adv-x="638" 
d="M366 -152q20 0 31.5 29.5t23.5 103.5l71 379q5 23 3.5 34.5t-4.5 15t-9 3.5q-18 0 -36 -31t-27 -93q-8 2 -46 9q22 110 57 158.5t98 48.5q45 0 67 -28.5t22 -73.5q0 -11 -2 -29l-74 -395q-17 -94 -62.5 -149.5t-115.5 -56.5q-45 0 -79 22.5t-34 66.5q0 35 21 63t62 34
q-3 -111 33 -111zM263 373l-63 -266q-5 -27 19 -27q33 0 54 106q8 -1 21 -2t21 -2q-19 -97 -51 -143t-85 -46q-50 0 -76.5 28.5t-26.5 74.5q0 19 6 40l64 229q10 43 -10 43q-36 0 -73 -121q-9 1 -21.5 3.5t-18.5 3.5q41 211 159 211q44 0 65 -25t21 -66q0 -19 -5 -41z
M147 559v17l-1 -1q12 23 42 75t44 79h117v-18l-138 -152h-64zM511 559v17l-1 -1q12 23 42 75t44 79h117v-18l-138 -152h-64z" />
    <glyph glyph-name="idotaccent" horiz-adv-x="320" 
d="M265 373l-63 -266q-5 -27 19 -27q33 0 54 106q8 -1 21 -2t21 -2q-19 -97 -51 -143t-85 -46q-50 0 -76.5 28.5t-26.5 74.5q0 19 6 40l64 229q10 43 -10 43q-36 0 -73 -121q-9 1 -21.5 3.5t-18.5 3.5q41 211 159 211q44 0 65 -25t21 -66q0 -19 -5 -41zM159 666
q0 35 21 58.5t53 23.5t53 -23.5t21 -58.5q0 -33 -21 -56t-53 -23t-53 23t-21 56z" />
    <glyph glyph-name="Dotlessi" horiz-adv-x="379" 
d="M454 691l-16 -82q-59 0 -72 -6t-20 -35l-94 -440q-6 -31 6 -39t67 -8l-17 -81h-317l18 81q57 0 71.5 8t21.5 39l93 440q7 31 -4 37t-70 6q3 13 9 40t8 40h316z" />
    <glyph glyph-name="dotaccentlow" horiz-adv-x="500" 
d="M153 -155q0 37 23 67t57 30q25 0 40 -21t15 -51q0 -37 -23 -64.5t-53 -27.5q-26 0 -42.5 19.5t-16.5 47.5z" />
    <glyph glyph-name="acute.lchigh" horiz-adv-x="500" 
d="M190 492v16l-1 -1l85 119h117v-18q-26 -23 -76.5 -64.5t-61.5 -51.5h-63z" />
    <glyph glyph-name="twosevenths" 
d="M123 -11l308 372q48 58 143 176t142 176l39 -32l-296 -350l-297 -374zM159 392l1 -7h87q29 0 45 45h48l-48 -119h-258l-4 45q4 3 13 8.5t11 7.5q216 143 216 230q0 46 -38 46q-29 0 -51 -28l25 -53q-4 -20 -22 -32.5t-42 -12.5q-52 0 -52 43q0 56 52 94t106 38
q59 0 91.5 -23.5t32.5 -66.5q0 -24 -15 -49.5t-33 -44.5t-55 -45t-57.5 -39t-63.5 -39q7 1 11 2zM684 286l-4 6q-18 -6 -38 -6q-13 0 -29 4q-12 3 -24 3q-44 0 -65 -56h-40l46 139h42l2 -11q28 11 53 11q21 0 45 -8q2 -1 3 -1q26 -10 43 -10q22 0 70 25q2 -7 7.5 -24
t8.5 -26q-82 -71 -125 -132.5t-72 -163.5q-5 -16 -9.5 -24t-18 -15.5t-35.5 -7.5q-56 0 -41 49q42 123 181 248z" />
    <glyph glyph-name="twoninths" 
d="M123 -11l308 372q48 58 143 176t142 176l39 -32l-296 -350l-297 -374zM159 392l1 -7h87q29 0 45 45h48l-48 -119h-258l-4 45q4 3 13 8.5t11 7.5q216 143 216 230q0 46 -38 46q-29 0 -51 -28l25 -53q-4 -20 -22 -32.5t-42 -12.5q-52 0 -52 43q0 56 52 94t106 38
q59 0 91.5 -23.5t32.5 -66.5q0 -24 -15 -49.5t-33 -44.5t-55 -45t-57.5 -39t-63.5 -39q7 1 11 2zM567 -15q-51 0 -79 20t-28 46t17 41t40 15q30 0 43 -28l-18 -38q7 -12 26 -12q29 0 56 34t41 83q-42 -22 -80 -22q-51 0 -77 24t-26 65q0 72 55.5 117.5t121.5 45.5
q54 0 89.5 -32.5t35.5 -100.5q0 -101 -68.5 -179.5t-148.5 -78.5zM653 328q-24 0 -44 -36t-20 -80q0 -43 30 -43q34 0 61 50q7 42 7 60q0 49 -34 49z" />
    </font>
</defs>
</svg>
