<?xml version="1.0" standalone="no"?>
<!DOCTYPE svg PUBLIC "-//W3C//DTD SVG 1.1//EN" "http://www.w3.org/Graphics/SVG/1.1/DTD/svg11.dtd" >
<svg xmlns="http://www.w3.org/2000/svg" xmlns:xlink="http://www.w3.org/1999/xlink" version="1.1">
<metadata>
Created by FontForge 20170731 at Wed Mar 13 13:57:00 2019
 By Aleksey,,,
Copyright 2018-2019 Matthew Butterick
</metadata>
<defs>
<font id="CenturySupraT4-Italic" horiz-adv-x="800" >
  <font-face 
    font-family="Century Supra T4"
    font-weight="400"
    font-style="italic"
    font-stretch="normal"
    units-per-em="1000"
    panose-1="0 0 0 0 0 0 0 0 0 0"
    ascent="762"
    descent="-238"
    x-height="490"
    cap-height="691"
    bbox="-142 -269 1058 959"
    underline-thickness="50"
    underline-position="-175"
    slope="-17"
    unicode-range="U+000D-FB04"
  />
<missing-glyph horiz-adv-x="544" 
d="M20 0v700h508v-700h-508zM71 41h406v618h-406v-618zM200 397l8 4q36 -18 79 -18q36 0 57.5 24.5t21.5 63.5q0 40 -30.5 74t-78.5 34q-28 0 -40 -14l14 -37q0 -14 -10 -22.5t-26 -8.5q-35 0 -35 39q0 30 25 50t66 20q63 0 109.5 -45t46.5 -114q0 -56 -30 -92t-77 -36
q-45 0 -65 15l-2 -88h-30zM172 141q0 20 13 33.5t33 13.5q18 0 31.5 -13.5t13.5 -33.5q0 -18 -13.5 -31t-31.5 -13q-19 0 -32.5 13t-13.5 31z" />
    <glyph glyph-name="uni2190" unicode="&#x3c;&#x2d;" horiz-adv-x="704" 
d="M76 272l237 264l61 -46l-163 -183h420v-84h-420l163 -183l-61 -47l-237 266v13z" />
    <glyph glyph-name="uni2192" unicode="&#x2d;&#x3e;" horiz-adv-x="704" 
d="M391 536l237 -264v-13l-237 -266l-61 47l163 183h-420v84h420l-163 183z" />
    <glyph glyph-name="f_f" unicode="ff" horiz-adv-x="654" 
d="M52 415l7 48h92l9 84q9 86 56.5 137t110.5 51q57 0 90 -30t33 -71q0 -33 -20 -55t-53 -22q-5 80 -15 112.5t-34 32.5q-28 0 -49 -40t-28 -126l-9 -73h221l9 99q9 86 56.5 137t110.5 51t100.5 -30t37.5 -71q0 -33 -20 -55t-53 -22q-8 145 -59 145q-67 0 -82 -166l-9 -88
h108l-8 -48h-105q-24 -188 -51.5 -316.5t-58.5 -194.5t-61 -92.5t-65 -26.5q-41 0 -66.5 17.5t-25.5 52.5q0 29 18.5 49t46.5 20q12 -74 46 -99q73 80 126 590h-221q-24 -191 -51.5 -321.5t-58.5 -197.5t-61 -94t-65 -27q-41 0 -66.5 17.5t-25.5 52.5q0 29 18.5 49t46.5 20
q12 -74 46 -99q73 81 126 600h-94z" />
    <glyph glyph-name="fi" unicode="fi" horiz-adv-x="592" 
d="M419 415h-182q-24 -191 -51.5 -321.5t-58.5 -197.5t-61 -94t-65 -27q-41 0 -66.5 17.5t-25.5 52.5q0 29 18.5 49t46.5 20q12 -74 46 -99q73 81 126 600h-94l7 48h92l9 99q9 86 68 137t134 51q82 0 122.5 -30.5t40.5 -75.5q0 -33 -25.5 -55t-67.5 -22q-8 150 -73 150
q-37 0 -66.5 -40t-41.5 -126l-9 -88h277l-80 -355q-7 -29 3.5 -50.5t25.5 -19.5q18 3 37.5 35.5t21.5 91.5l36 -1q-14 -91 -41 -131t-78 -40q-55 0 -78 43t-8 102z" />
    <glyph glyph-name="fl" unicode="fl" horiz-adv-x="581" 
d="M575 740l-147 -651q-5 -22 1.5 -36t19.5 -14q12 0 21.5 4t21 15.5t20 39t13.5 69.5l35 -4q-12 -82 -41 -126t-89 -44q-55 0 -74 36.5t-1 115.5l97 451q-21 -8 -44 -1q-8 122 -75 122t-82 -166l-9 -88h108l-8 -48h-105q-24 -191 -51.5 -321.5t-58.5 -197.5t-61 -94
t-65 -27q-41 0 -66.5 17.5t-25.5 52.5q0 29 18.5 49t46.5 20q12 -74 46 -99q73 81 126 600h-94l7 48h92l9 99q9 86 56.5 137t110.5 51q75 0 121 -44l92 34h35z" />
    <glyph glyph-name="f_f_i" unicode="ffi" horiz-adv-x="903" 
d="M377 557q-5 80 -15 112.5t-34 32.5q-28 0 -49 -40t-28 -126l-9 -73h220l9 99q9 86 68 137t134 51q82 0 122.5 -30.5t40.5 -75.5q0 -33 -26 -55t-67 -22q-8 150 -73 150q-37 0 -66.5 -40t-41.5 -126l-9 -88h277l-80 -355q-7 -29 3.5 -50.5t25.5 -19.5q18 3 37.5 35.5
t21.5 91.5l36 -1q-14 -91 -41 -131t-78 -40q-55 0 -78 43t-8 102l61 277h-182q-24 -188 -51.5 -316.5t-58.5 -194.5t-61 -92.5t-65 -26.5q-41 0 -66.5 17.5t-25.5 52.5q0 29 18.5 49t46.5 20q12 -74 46 -99q73 80 126 590h-220q-24 -191 -51.5 -321.5t-58.5 -197.5t-61 -94
t-65 -27q-41 0 -66.5 17.5t-25.5 52.5q0 29 18.5 49t46.5 20q12 -74 46 -99q73 81 126 600h-94l7 48h92l9 84q9 86 56.5 137t110.5 51q57 0 90 -30t33 -71q0 -33 -20 -55t-53 -22z" />
    <glyph glyph-name="f_f_l" unicode="ffl" horiz-adv-x="894" 
d="M52 415l7 48h92l9 84q9 86 56.5 137t110.5 51q57 0 90 -30t33 -71q0 -33 -20 -55t-53 -22q-5 80 -15 112.5t-34 32.5q-28 0 -49 -40t-28 -126l-9 -73h222l9 99q9 86 56.5 137t110.5 51q75 0 121 -44l92 34h35l-147 -651q-5 -22 1.5 -36t19.5 -14q12 0 21.5 4t21 15.5
t20 39t13.5 69.5l35 -4q-12 -82 -41 -126t-89 -44q-55 0 -74 36.5t-1 115.5l97 451q-21 -8 -44 -1q-8 122 -75 122t-82 -166l-9 -88h108l-8 -48h-105q-24 -188 -51.5 -316.5t-58.5 -194.5t-61 -92.5t-65 -26.5q-41 0 -66.5 17.5t-25.5 52.5q0 29 18.5 49t46.5 20
q12 -74 46 -99q73 78 126 590h-222q-24 -191 -51.5 -321.5t-58.5 -197.5t-61 -94t-65 -27q-41 0 -66.5 17.5t-25.5 52.5q0 29 18.5 49t46.5 20q12 -74 46 -99q73 81 126 600h-94z" />
    <glyph glyph-name="uni2190.circle" unicode="&#x28;&#x3c;&#x2d;&#x29;" horiz-adv-x="884" 
d="M401 536l-237 -264v-13l237 -266l61 47l-163 183h420v84h-420l163 183zM824 263q0 -157 -111.5 -268.5t-268.5 -111.5q-159 0 -271.5 111.5t-112.5 268.5q0 159 112.5 271t271.5 112q157 0 268.5 -112t111.5 -271z" />
    <glyph glyph-name="uni2192.circle" unicode="&#x28;&#x2d;&#x3e;&#x29;" horiz-adv-x="884" 
d="M720 272l-237 264l-61 -46l163 -183h-420v-84h420l-163 -183l61 -47l237 266v13zM60 263q0 159 111.5 271t268.5 112q159 0 271.5 -112t112.5 -271q0 -157 -112.5 -268.5t-271.5 -111.5q-157 0 -268.5 111.5t-111.5 268.5z" />
    <glyph glyph-name="uni2191.circle" unicode="&#x28;&#x2191;&#x29;" horiz-adv-x="884" 
d="M713 305l-264 237h-13l-266 -237l47 -61l183 163v-420h84v420l183 -163zM440 -118q-157 0 -268.5 111.5t-111.5 268.5q0 159 111.5 271.5t268.5 112.5q159 0 271.5 -112.5t112.5 -271.5q0 -157 -112.5 -268.5t-271.5 -111.5z" />
    <glyph glyph-name="uni2193.circle" unicode="&#x28;&#x2193;&#x29;" horiz-adv-x="884" 
d="M449 -14l264 237l-46 61l-183 -163v420h-84v-420l-183 163l-47 -61l266 -237h13zM440 646q159 0 271.5 -111.5t112.5 -268.5q0 -159 -112.5 -271.5t-271.5 -112.5q-157 0 -268.5 112.5t-111.5 271.5q0 157 111.5 268.5t268.5 111.5z" />
    <glyph glyph-name="f_j" unicode="fj" horiz-adv-x="584" 
d="M360 -17l87 432h-210q-24 -191 -51.5 -321.5t-58.5 -197.5t-61 -94t-65 -27q-41 0 -66.5 17.5t-25.5 52.5q0 29 18.5 49t46.5 20q12 -74 46 -99q73 81 126 600h-94l7 48h92l9 99q9 86 68 137t134 51q82 0 122.5 -30.5t40.5 -75.5q0 -33 -25.5 -55t-67.5 -22
q-8 150 -73 150q-37 0 -66.5 -40t-41.5 -126l-9 -88h302l-103 -482q-44 -203 -177 -206q-35 0 -61 18t-26 52q0 27 20 47t57 27q-1 -64 5 -87.5t24 -23.5q24 0 39.5 35.5t37.5 139.5z" />
    <glyph glyph-name="f_f_j" unicode="ffj" horiz-adv-x="896" 
d="M52 415l7 48h92l9 84q9 86 56.5 137t110.5 51q57 0 90 -30t33 -71q0 -33 -20 -55t-53 -22q-5 80 -15 112.5t-34 32.5q-28 0 -49 -40t-28 -126l-9 -73h221l9 99q9 86 68 137t134 51q82 0 122.5 -30.5t40.5 -75.5q0 -33 -25.5 -55t-67.5 -22q-8 150 -73 150
q-37 0 -66.5 -40t-41.5 -126l-9 -88h302l-103 -482q-44 -193 -177 -196q-35 0 -61 18t-26 52q0 27 20 47t57 27q-1 -64 5 -87.5t24 -23.5q24 0 39.5 33.5t37.5 131.5l87 432h-210q-24 -188 -51.5 -316.5t-58.5 -194.5t-61 -92.5t-65 -26.5q-41 0 -66.5 17.5t-25.5 52.5
q0 29 18.5 49t46.5 20q12 -74 46 -99q73 80 126 590h-221q-24 -191 -51.5 -321.5t-58.5 -197.5t-61 -94t-65 -27q-41 0 -66.5 17.5t-25.5 52.5q0 29 18.5 49t46.5 20q12 -74 46 -99q73 81 126 600h-94z" />
    <glyph glyph-name="g_f" unicode="gf" horiz-adv-x="797" 
d="M246 490q71 0 116 -39l60 36h51l-15 -61h-74q20 -31 20 -70q0 -77 -44 -122t-106 -57q-51 -10 -77.5 -29.5t-45.5 -48.5l41 -13q158 -48 200 -73q51 -31 52 -75q0 -65 -70.5 -114t-177.5 -49q-84 0 -142 28t-58 81q0 73 137 132v11q-42 29 -42 74q23 42 85 76v10
q-45 15 -71 46t-26 73q0 70 55 127t132 57zM507 415l7 48h92l9 99q9 86 56.5 137t110.5 51t100.5 -30t37.5 -71q0 -33 -20 -55t-53 -22q-8 145 -59 145q-67 0 -82 -166l-9 -88h108l-8 -48h-105q-21 -191 -46.5 -321.5t-53 -197.5t-54 -94t-57.5 -27q-34 0 -55.5 13.5
t-21.5 41.5q0 20 16 34.5t39 14.5q8 -51 36 -69q62 87 107 605h-95zM342 -92q0 20 -17 35t-59 28l-109 34q-55 -19 -82 -52t-27 -62q0 -42 40.5 -61.5t102.5 -19.5q67 0 109 27.5t42 70.5zM313 342q0 112 -73 112q-42 0 -66 -39.5t-24 -110.5q0 -93 72 -93q37 0 64 33.5
t27 97.5z" />
    <glyph glyph-name=".notdef" horiz-adv-x="544" 
d="M20 0v700h508v-700h-508zM71 41h406v618h-406v-618zM200 397l8 4q36 -18 79 -18q36 0 57.5 24.5t21.5 63.5q0 40 -30.5 74t-78.5 34q-28 0 -40 -14l14 -37q0 -14 -10 -22.5t-26 -8.5q-35 0 -35 39q0 30 25 50t66 20q63 0 109.5 -45t46.5 -114q0 -56 -30 -92t-77 -36
q-45 0 -65 15l-2 -88h-30zM172 141q0 20 13 33.5t33 13.5q18 0 31.5 -13.5t13.5 -33.5q0 -18 -13.5 -31t-31.5 -13q-19 0 -32.5 13t-13.5 31z" />
    <glyph glyph-name=".null" horiz-adv-x="0" 
 />
    <glyph glyph-name="nonmarkingreturn" horiz-adv-x="333" 
 />
    <glyph glyph-name="NULL" horiz-adv-x="0" 
 />
    <glyph glyph-name="NULL" horiz-adv-x="0" 
 />
    <glyph glyph-name="CR" unicode="&#xd;" horiz-adv-x="210" 
 />
    <glyph glyph-name="space" unicode=" " horiz-adv-x="210" 
 />
    <glyph glyph-name="exclam" unicode="!" horiz-adv-x="359" 
d="M90 54q0 28 18 46.5t46 18.5t47 -18.5t19 -46.5q0 -27 -19 -45t-47 -18t-46 18t-18 45zM327 603q-1 -3 -17 -46.5t-25.5 -72t-25 -77t-29.5 -99.5t-25 -102l-43 8q48 232 48 404q0 42 15 72t50 30q34 0 49 -17t15 -41q0 -13 -12 -59z" />
    <glyph glyph-name="quotedbl" unicode="&#x22;" horiz-adv-x="485" 
d="M161 424l52 302l93 -27l-101 -286zM340 424l52 302l93 -27l-101 -286z" />
    <glyph glyph-name="numbersign" unicode="#" horiz-adv-x="510" 
d="M97 510l96 -13l44 209l53 -7l-44 -210l95 -13l48 230l53 -7l-48 -230l105 -14l-7 -60l-110 15l-33 -162l91 -12l-7 -60l-97 13l-46 -224l-53 6l46 225l-95 13l-50 -244l-53 6l51 245l-105 15l7 60l110 -15l33 161l-91 13zM234 430l-33 -161l95 -13l33 161z" />
    <glyph glyph-name="dollar" unicode="$" horiz-adv-x="596" 
d="M121 115l-24 -50l-38 7l34 212l35 -7q1 -160 111 -207l48 239l-11 6q-82 47 -115 99t-19 122q14 72 73 105.5t131 19.5l10 -3l22 109l44 -9l-23 -114q53 -24 96 -71l25 33l36 -6l-35 -183l-33 6q-14 137 -97 182l-44 -223q13 -8 24 -13q94 -48 125 -97.5t17 -121.5
q-14 -73 -78.5 -111.5t-148.5 -21.5l-11 2l-24 -119l-44 8l25 125q-75 30 -111 82zM439 131q7 39 -16.5 74t-94.5 79l-46 -227q6 -2 10 -2q62 -11 100.5 12t46.5 64zM217 547q-14 -71 89 -140l43 214l-10 3q-49 9 -81.5 -14.5t-40.5 -62.5z" />
    <glyph glyph-name="percent" unicode="%" horiz-adv-x="552" 
d="M313 575l-3 -1q-1 -82 -44 -134.5t-100 -52.5q-47 0 -77 35.5t-30 90.5q0 74 47 128.5t100 54.5q34 0 59.5 -18.5t36.5 -50.5q6 -15 25 -24.5t41 -9.5q47 0 85 30q21 67 54 67q8 0 16 -5.5t8 -16.5q0 -15 -13.5 -32.5t-29.5 -28.5l-190 -288l-215 -338l-34 26l223 332
l140 228l-3 2q-19 -12 -48 -12q-30 0 -48 18zM282 114q0 75 46.5 129.5t100.5 54.5q46 0 75 -31.5t29 -85.5q0 -86 -44 -139t-97 -53q-50 0 -80 35t-30 90zM446 253q-33 0 -61.5 -52.5t-28.5 -113.5q0 -28 11.5 -43t29.5 -15q34 0 62 41t28 120q0 30 -11.5 46.5t-29.5 16.5z
M223 651q-32 0 -61 -52t-29 -112t42 -60q33 0 60.5 42t27.5 120q0 30 -11.5 46t-28.5 16z" />
    <glyph glyph-name="ampersand" unicode="&#x26;" horiz-adv-x="753" 
d="M622 113l27 -20q-78 -106 -174 -106q-61 0 -104 37q-71 -37 -155 -37q-88 0 -130.5 45.5t-42.5 118.5q0 49 19 90t56 72.5t73 53t89 45.5q13 130 64 209.5t133 79.5q50 0 81 -24.5t35 -64.5v-12q0 -33 -15.5 -60.5t-47.5 -50t-62.5 -38t-76.5 -36.5l-27 -12v-30
q0 -193 43 -276q71 56 135 173q12 28 -7.5 41.5t-67.5 14.5v45h260v-45q-97 0 -138 -71q-79 -129 -158 -191q24 -25 55 -25q73 0 136 74zM277 47q30 0 63 11q-64 90 -64 266v34q-126 -75 -126 -187q0 -57 34 -90.5t93 -33.5zM476 662q-44 0 -72.5 -55.5t-36.5 -155.5
q79 36 120 68.5t41 78.5q0 30 -13.5 47t-38.5 17zM649 93l-27 20q14 16 32 47l25 -18q-13 -27 -30 -49z" />
    <glyph glyph-name="quotesingle" unicode="'" horiz-adv-x="306" 
d="M161 424l52 302l93 -27l-101 -286z" />
    <glyph glyph-name="parenleft" unicode="(" horiz-adv-x="322" 
d="M228 -211l-35 -35q-68 66 -109.5 172t-41.5 220q0 81 18 156t46.5 133.5t74 118.5t88.5 104.5t102 97.5l30 -35q-273 -263 -273 -603q0 -114 23.5 -190t76.5 -139z" />
    <glyph glyph-name="parenright" unicode=")" horiz-adv-x="322" 
d="M118 721l35 35q68 -66 109.5 -172t41.5 -220q0 -81 -18 -156t-46.5 -133.5t-74 -118.5t-88.5 -104.5t-102 -97.5l-30 35q273 263 273 603q0 114 -23.5 190t-76.5 139z" />
    <glyph glyph-name="asterisk" unicode="*" horiz-adv-x="476" 
d="M328 532q41 -39 102 -77q32 -19 13 -49q-16 -25 -42 -23q-19 1 -29 20q-3 7 -11 22.5t-12 23.5t-11 20t-14.5 22.5t-15.5 20.5q-12 -57 -12 -126q1 -32 -28 -35q-27 -3 -42 19q-11 16 1 37q5 9 19 33.5t23 42.5t16 36q-52 -14 -114 -54q-26 -16 -44 12q-18 26 -4 47
q10 13 31 13q86 0 127 9q-40 35 -103 71q-27 13 -14 41q11 25 35 27q20 0 32 -19q54 -87 67 -104q9 59 11 123q0 33 31 37q27 2 42 -19q12 -18 -2 -40q-6 -11 -20 -33t-23.5 -39.5t-17.5 -34.5q58 16 114 48q33 19 49 -10q13 -26 -2 -48q-9 -14 -29 -13q-9 0 -36 2t-47 1.5
t-40 -4.5z" />
    <glyph glyph-name="plus" unicode="+" horiz-adv-x="620" 
d="M570 230h-230v-230h-60v230h-230v60h230v230h60v-230h230v-60z" />
    <glyph glyph-name="comma" unicode="," horiz-adv-x="297" 
d="M54 74q0 22 16 37t40 15q30 0 53.5 -31t23.5 -79q0 -92 -70.5 -158.5t-184.5 -66.5v42q82 0 126.5 37.5t44.5 82.5q0 32 -24.5 66t-24.5 55z" />
    <glyph glyph-name="hyphen" unicode="-" horiz-adv-x="318" 
d="M43 282h254v-69h-254v69z" />
    <glyph glyph-name="period" unicode="." horiz-adv-x="253" 
d="M36 57q0 27 18.5 46t45.5 19t46 -19t19 -46t-19 -45.5t-46 -18.5t-45.5 18.5t-18.5 45.5z" />
    <glyph glyph-name="slash" unicode="/" horiz-adv-x="380" 
d="M502 734l-510 -856h-71l510 856h71z" />
    <glyph glyph-name="zero" unicode="0" horiz-adv-x="602" 
d="M584 491q0 -136 -43.5 -251t-123 -183.5t-176.5 -68.5q-83 0 -132.5 50t-49.5 155q0 130 50 248.5t131 189t168 70.5q75 0 125.5 -54.5t50.5 -155.5zM256 33q70 0 124 71.5t80.5 177t26.5 220.5q0 79 -23.5 117t-75.5 38q-64 0 -119.5 -84t-84 -193.5t-28.5 -201.5
q0 -79 23 -112t77 -33z" />
    <glyph glyph-name="one" unicode="1" horiz-adv-x="491" 
d="M155 610l9 41q119 7 206 39h40l-122 -576q-9 -42 17.5 -61t97.5 -19l-7 -34h-366l7 34q78 4 112 20t43 60l102 481z" />
    <glyph glyph-name="two" unicode="2" horiz-adv-x="582" 
d="M158 104v-16h210q28 0 56 32.5t46 86.5h45l-58 -207h-448l-5 50q7 5 58 39.5t92.5 64.5t100.5 80t99 95t69.5 100t29.5 104q0 65 -30 94.5t-74 29.5q-93 0 -143 -80l48 -81q-5 -37 -26.5 -60t-49.5 -23q-32 0 -49.5 20t-17.5 54q0 62 40 112.5t96.5 76t112.5 25.5
q95 0 148.5 -42t53.5 -117q0 -50 -28 -101.5t-79 -100.5t-97 -86t-110 -83t-90 -67z" />
    <glyph glyph-name="three" unicode="3" horiz-adv-x="568" 
d="M355 376l2 -11q62 -7 104 -44.5t42 -105.5q0 -101 -89.5 -164t-230.5 -63q-75 0 -123 31.5t-48 89.5q0 39 22 67t50 28q32 0 47.5 -23.5t6.5 -52.5l-57 -66q21 -32 94 -32q40 0 77 10t70.5 31t53.5 58.5t20 86.5q0 109 -103 109q-43 0 -97 -17l-10 42q137 44 202 96
t65 124q0 89 -103 89q-70 0 -119 -40l35 -81q-5 -26 -22.5 -43t-39.5 -17q-31 0 -48.5 14.5t-17.5 40.5q0 78 75.5 123t164.5 45q83 0 132.5 -33t49.5 -92q0 -64 -58 -115.5t-147 -84.5z" />
    <glyph glyph-name="four" unicode="4" horiz-adv-x="585" 
d="M33 210l-5 25l464 466l33 -5l-93 -441h107l-10 -45h-107l-16 -75q-14 -63 9.5 -82t75.5 -19l-7 -34h-311l7 34q57 0 88.5 19t43.5 75l17 82h-296zM118 260l1 -5h217l60 280l-7 4z" />
    <glyph glyph-name="five" unicode="5" horiz-adv-x="574" 
d="M195 406l7 -5q79 45 154 45q69 0 117.5 -42.5t48.5 -120.5q0 -130 -102.5 -212.5t-237.5 -82.5q-61 0 -108.5 29.5t-47.5 82.5q0 41 22.5 70.5t52.5 29.5q56 0 56 -67l-64 -71q24 -32 104 -32q66 0 116.5 38t75 93t24.5 114t-24.5 85.5t-74.5 26.5q-84 0 -155 -64h-35
l108 368q78 -26 176 -26q113 0 185 32l-9 -39q-89 -85 -244 -85q-50 0 -93 10z" />
    <glyph glyph-name="six" unicode="6" horiz-adv-x="606" 
d="M438 701q72 0 110.5 -37.5t38.5 -88.5q0 -36 -19.5 -60t-49.5 -24q-35 0 -51 19.5t-8 48.5l57 53q-17 50 -87 50q-54 0 -106.5 -52.5t-85.5 -121t-49 -136.5l7 -4q80 83 190 83q81 0 123.5 -44.5t42.5 -119.5q0 -66 -29 -121t-74 -88t-95.5 -51.5t-98.5 -18.5
q-80 0 -133 53.5t-53 164.5q0 96 33.5 188.5t86 158.5t119.5 107t131 41zM265 33q54 0 97 38.5t62.5 88.5t19.5 97q0 127 -89 127q-43 0 -93.5 -31.5t-89.5 -88.5q-14 -65 -14 -107q0 -124 107 -124z" />
    <glyph glyph-name="seven" unicode="7" horiz-adv-x="554" 
d="M504 592l-8 10q-41 -24 -108 -24q-18 0 -53.5 8t-55.5 8q-96 0 -141 -133h-35l83 235h37l2 -22q47 27 88 27q34 0 80 -20.5t79 -20.5q68 0 146 46l22 -34q-79 -76 -130 -134.5t-99 -131t-82 -156.5t-62 -193q-4 -18 -8.5 -29t-21.5 -23t-43 -12q-69 0 -46 66
q100 284 356 533z" />
    <glyph glyph-name="eight" unicode="8" horiz-adv-x="585" 
d="M410 370l-1 -6q115 -48 115 -143q0 -71 -44.5 -126t-109 -81t-134.5 -26q-93 0 -148 40t-55 109q0 61 55 114t134 81l2 9q-89 50 -89 149q0 85 73.5 148t170.5 63q98 0 145.5 -38.5t47.5 -105.5q0 -107 -162 -187zM358 387q125 58 125 161q0 49 -29.5 79.5t-83.5 30.5
q-60 0 -105.5 -42.5t-45.5 -94.5q0 -45 36.5 -79.5t102.5 -54.5zM248 33q81 0 133 44t52 101q0 48 -41 83t-117 54q-62 -18 -109 -62.5t-47 -105.5q0 -54 35 -84t94 -30z" />
    <glyph glyph-name="nine" unicode="9" horiz-adv-x="606" 
d="M213 -12q-73 0 -112.5 31.5t-39.5 74.5q0 39 19.5 67t45.5 28q37 0 53.5 -21t8.5 -52l-54 -43q19 -46 87 -46q82 0 147 91.5t94 218.5l-7 4q-78 -83 -190 -83q-79 0 -121 45.5t-42 121.5q0 119 92 197.5t204 78.5q79 0 132 -54.5t53 -169.5q0 -126 -54.5 -240
t-140 -181.5t-175.5 -67.5zM386 657q-55 0 -97.5 -38.5t-62.5 -93t-20 -111.5q0 -109 90 -109q42 0 93 31.5t90 88.5q13 61 13 108q0 124 -106 124z" />
    <glyph glyph-name="colon" unicode=":" horiz-adv-x="273" 
d="M36 57q0 27 18.5 46t45.5 19t46 -19t19 -46t-19 -45.5t-46 -18.5t-45.5 18.5t-18.5 45.5zM114 378q0 27 18.5 46t45.5 19t46 -19t19 -46t-19 -45.5t-46 -18.5t-45.5 18.5t-18.5 45.5z" />
    <glyph glyph-name="semicolon" unicode=";" horiz-adv-x="337" 
d="M142 378q0 27 18.5 46t45.5 19t46 -19t19 -46t-19 -45.5t-46 -18.5t-45.5 18.5t-18.5 45.5zM66 74q0 22 16 37t40 15q30 0 53.5 -31t23.5 -79q0 -92 -70.5 -158.5t-184.5 -66.5v42q82 0 126.5 37.5t44.5 82.5q0 32 -24.5 66t-24.5 55z" />
    <glyph glyph-name="less" unicode="&#x3c;" horiz-adv-x="594" 
d="M544 470l-428 -204l428 -204v-62l-494 235v62l494 235v-62z" />
    <glyph glyph-name="equal" unicode="=" horiz-adv-x="620" 
d="M570 310h-520v60h520v-60zM570 130h-520v60h520v-60z" />
    <glyph glyph-name="greater" unicode="&#x3e;" horiz-adv-x="594" 
d="M478 266l-428 204v62l494 -235v-62l-494 -235v62z" />
    <glyph glyph-name="question" unicode="?" horiz-adv-x="473" 
d="M99 54q0 30 19 47t45 17q27 0 46.5 -17t19.5 -47q0 -27 -19 -45t-47 -18t-46 18t-18 45zM474 600q0 -38 -27.5 -74t-67 -64t-78.5 -54.5t-66.5 -54t-27.5 -53.5q0 -43 51 -43q20 0 39.5 15t26.5 54l41 -11q-29 -107 -123 -107q-46 0 -82 24t-36 70q0 35 27 68.5
t65.5 60.5t77.5 54t66 59.5t27 67.5q0 28 -16 45.5t-45 17.5q-49 0 -80 -38t-31 -121l-43 -12q-1 9 -1 26q0 87 43 138.5t117 51.5q67 0 105 -34.5t38 -85.5z" />
    <glyph glyph-name="at" unicode="@" horiz-adv-x="816" 
d="M713 390q0 35 -9 71.5t-29.5 75t-62.5 63t-99 24.5q-96 0 -181 -72.5t-133.5 -185.5t-48.5 -230q0 -118 43.5 -177t122.5 -59q89 0 167 63l21 -42q-44 -35 -97.5 -54.5t-99.5 -19.5q-114 0 -172.5 76t-58.5 214q0 92 35 187t93 171t141 124.5t171 48.5q123 0 195.5 -76.5
t72.5 -201.5q0 -84 -32.5 -154.5t-80 -111.5t-95.5 -63.5t-85 -22.5q-34 0 -37.5 34t22.5 93l-13 9q-19 -28 -34.5 -47t-38 -42.5t-47 -36t-48.5 -12.5q-29 0 -45 24.5t-16 56.5q0 82 59 183q46 77 106.5 128.5t115.5 51.5q29 0 42 -28h5q6 16 13.5 21.5t27.5 5.5t27 -4
t4 -12l-108 -331q-7 -31 13 -31q18 0 46 20t57 54t50 92t21 123zM314 150q0 -44 24 -44q34 0 93.5 79t102.5 182q9 70 -29 70q-33 0 -70.5 -34.5t-67.5 -87.5q-53 -94 -53 -165z" />
    <glyph glyph-name="A" unicode="A" horiz-adv-x="720" 
d="M470 79l-22 125h-247l-70 -123q-5 -12 -5 -20t10.5 -12.5t29.5 -6.5t51 -2l-8 -40h-242l8 40q42 0 66.5 13t45.5 48l350 600h23l113 -607q8 -38 21.5 -46t64.5 -8l-8 -40h-288l8 40h27q53 0 64.5 6t7.5 33zM389 533q-44 -75 -161 -282h211l-49 282h-1z" />
    <glyph glyph-name="B" unicode="B" horiz-adv-x="657" 
d="M461 363l-1 -3q67 -7 104.5 -46t37.5 -101q0 -54 -24 -96t-64 -67t-86.5 -37.5t-96.5 -12.5h-351l8 40q62 0 85 13t34 66l95 446q6 30 6 46q0 28 -18 34.5t-72 6.5l8 39h327q79 0 128 -36t49 -104q0 -64 -45.5 -117.5t-123.5 -70.5zM265 376h100q44 0 76.5 18t48.5 45
t23.5 52.5t7.5 46.5q0 55 -34 84.5t-91 29.5h-72zM194 40h94q97 -3 150.5 42t53.5 123q0 63 -37 96.5t-98 33.5h-100z" />
    <glyph glyph-name="C" unicode="C" horiz-adv-x="684" 
d="M624 626l3 1l36 64h36l-51 -261h-42q3 60 -7 108t-42 83t-85 35q-80 0 -148.5 -58.5t-108 -155.5t-39.5 -206q0 -202 169 -202q157 0 241 191h46l-61 -181q-100 -56 -238 -56q-127 0 -198 68.5t-71 189.5q0 93 36 179t93.5 145.5t132 95t150.5 35.5q45 0 85 -20t63 -55z
" />
    <glyph glyph-name="D" unicode="D" horiz-adv-x="761" 
d="M739 424q0 -190 -125 -307t-322 -117h-312l8 40q70 2 87 6.5t22 27.5l116 547q1 4 1 11q0 13 -17.5 16.5t-78.5 3.5l8 39h310q83 0 144.5 -23t94.5 -62t48.5 -84.5t15.5 -97.5zM194 40h104q71 2 128 27.5t93 65t60 92t34 104t10 105.5q0 102 -53.5 160t-169.5 58h-76z
" />
    <glyph glyph-name="E" unicode="E" horiz-adv-x="661" 
d="M623 247l-65 -247h-578l8 40q68 0 86 4.5t22 24.5l117 552q4 20 -13 25.5t-82 5.5l8 39h548l-35 -217h-39q5 101 -18 139.5t-91 38.5h-167l-62 -291h74q101 0 129 137h35l-66 -312h-35q16 82 0.5 107t-78.5 25h-68l-59 -278h191q71 0 125.5 64t71.5 143h41z" />
    <glyph glyph-name="F" unicode="F" horiz-adv-x="597" 
d="M625 454h-39q7 95 -22 146.5t-107 51.5h-133l-62 -291h79q86 0 114 137h35l-66 -312h-35q16 65 3.5 98.5t-60.5 33.5h-79l-44 -209q-9 -45 10 -57t86 -12l-8 -40h-317l8 40q52 0 72 4.5t28.5 17.5t16.5 48l99 464q10 51 -6.5 64.5t-79.5 13.5l8 39h542z" />
    <glyph glyph-name="G" unicode="G" horiz-adv-x="727" 
d="M630 227l-50 -232h-25l-33 82q-84 -89 -205 -89q-104 0 -178.5 65t-74.5 180q0 108 38 199.5t98 148.5t130.5 88.5t139.5 31.5q102 0 162 -71h7l36 56h34l-47 -242h-36q-1 52 -17 98t-53.5 80t-91.5 34q-82 0 -149 -64t-102 -160t-35 -197q0 -97 41.5 -149.5t118.5 -52.5
q97 0 167 95l21 98q4 24 4 29q0 21 -17 26.5t-70 5.5l7 34h282l-7 -34q-57 0 -71.5 -9t-23.5 -51z" />
    <glyph glyph-name="H" unicode="H" horiz-adv-x="799" 
d="M719 0h-310l8 40q70 3 88.5 10t24.5 38l52 244h-326l-52 -244q-7 -32 10.5 -40t81.5 -8l-8 -40h-308l8 40q63 0 84.5 8t27.5 40l110 515q6 31 -15.5 40t-76.5 9l8 39h308l-8 -39q-62 0 -83.5 -7.5t-28.5 -41.5l-48 -224h326l48 224q6 33 -11.5 41t-81.5 8l8 39h310
l-8 -39q-67 0 -87 -8.5t-27 -40.5l-110 -515q-7 -32 10.5 -40t83.5 -8z" />
    <glyph glyph-name="I" unicode="I" horiz-adv-x="379" 
d="M440 691l-8 -39q-68 0 -87 -6.5t-24 -33.5l-113 -528q-6 -30 9 -37t85 -7l-8 -40h-309l8 40q69 0 87 7t24 37l113 528q6 28 -10 34t-84 6l8 39h309z" />
    <glyph glyph-name="J" unicode="J" horiz-adv-x="543" 
d="M621 691l-8 -39q-65 0 -87 -14t-34 -73l-79 -370q-12 -58 -40.5 -101t-65 -64.5t-70.5 -31.5t-66 -10q-70 0 -116 34t-46 99q0 50 26 84t62 34q27 0 44.5 -15.5t17.5 -39.5q0 -18 -4 -35l-92 -56q0 -30 25.5 -48t72.5 -18q114 0 148 162l79 375q11 53 -3.5 73t-79.5 15
l8 39h308z" />
    <glyph glyph-name="K" unicode="K" horiz-adv-x="723" 
d="M588 572l-190 -169l185 -313q17 -29 34.5 -39.5t53.5 -10.5l-8 -40h-279l8 40q18 1 28.5 2t21.5 3t15.5 5t7.5 8t1.5 13t-7.5 18l-139 244l-79 -70l-31 -148q-11 -50 4.5 -62.5t78.5 -12.5l-8 -40h-305l8 40q70 0 88.5 12t29.5 63l99 465q11 50 -6 61t-81 11l8 39h308
l-8 -39q-66 0 -86.5 -11t-30.5 -61l-53 -250h4l284 255q36 28 25.5 48t-52.5 18l8 40h257l-8 -40q-102 -11 -186 -79z" />
    <glyph glyph-name="L" unicode="L" horiz-adv-x="602" 
d="M575 242l-64 -242h-531l8 40q62 0 83.5 7.5t27.5 36.5l113 529q5 25 -11.5 32t-82.5 7l8 39h319l-8 -39q-79 0 -97.5 -6t-23.5 -32l-122 -574h132q74 0 128 53.5t74 148.5h47z" />
    <glyph glyph-name="M" unicode="M" horiz-adv-x="884" 
d="M247 543h-5l-90 -421q-8 -38 15 -60t68 -22l-8 -40h-247l8 40q42 0 77 22.5t42 57.5l104 490q-8 24 -29.5 33t-63.5 9l8 39h195l98 -529l334 529h195l-8 -39q-66 0 -88 -13.5t-31 -55.5l-97 -457q-13 -60 2 -73t80 -13l-8 -40h-301l8 40q66 0 85 14t32 72l87 407h-4
l-339 -540h-20z" />
    <glyph glyph-name="N" unicode="N" horiz-adv-x="752" 
d="M240 553h-4l-98 -461q-7 -33 18 -42.5t90 -9.5l-8 -40h-261l8 40q50 0 74.5 10t31.5 42l108 509q-15 26 -34.5 38.5t-54.5 12.5l8 39h158l301 -529h4l92 441q5 25 -22 37t-89 12l8 39h254l-8 -39q-51 0 -71 -11.5t-26 -37.5l-131 -613h-30z" />
    <glyph glyph-name="O" unicode="O" horiz-adv-x="751" 
d="M729 432q0 -97 -38 -182.5t-97.5 -141.5t-131 -88t-140.5 -32q-116 0 -187 73t-71 194q0 96 36 180.5t94.5 142t132 90.5t147.5 33q112 0 183.5 -74t71.5 -195zM332 34q70 0 127.5 43t91 109.5t51 139t17.5 140.5q0 92 -40.5 141t-114.5 49q-84 0 -151.5 -62
t-102.5 -158.5t-35 -203.5q0 -198 157 -198z" />
    <glyph glyph-name="P" unicode="P" horiz-adv-x="623" 
d="M635 541q1 -62 -25.5 -108t-72 -71t-95 -37t-101.5 -12h-89l-40 -187q-7 -35 -7 -47q0 -24 19.5 -31.5t77.5 -7.5l-8 -40h-314l8 40q70 0 88.5 13.5t31.5 72.5l99 464q3 16 3 27q0 24 -18.5 29.5t-73.5 5.5l8 39h304q87 0 146 -35t59 -115zM324 652l-63 -295h78
q77 0 130 45.5t53 133.5q0 57 -33.5 86.5t-90.5 29.5h-74z" />
    <glyph glyph-name="Q" unicode="Q" horiz-adv-x="751" 
d="M728 432q0 -129 -70.5 -236.5t-173.5 -164.5q-6 -64 -6 -84q0 -85 40 -85q53 0 79 122h36q-16 -93 -55 -136t-93 -43q-109 0 -109 131q0 20 5 57q-25 -5 -45 -5q-132 0 -202 71t-70 196q0 96 36.5 180.5t95 142t131.5 90.5t146 33q112 0 183.5 -74t71.5 -195zM373 254
q53 0 82.5 -39t31.5 -114q59 63 96 162.5t37 196.5q0 92 -40 144t-117 52q-91 0 -158.5 -65.5t-99.5 -161.5t-32 -204q0 -122 73 -166q-5 22 -5 43q0 53 38 102.5t94 49.5zM356 34q18 0 33 4q14 80 14 110q0 71 -39 71q-36 0 -57 -41.5t-21 -82.5q0 -33 8 -55q27 -6 62 -6z
" />
    <glyph glyph-name="R" unicode="R" horiz-adv-x="683" 
d="M266 377h89q69 0 120.5 48.5t51.5 121.5q0 56 -30 80.5t-93 24.5h-80zM439 159q25 100 -9.5 138.5t-116.5 38.5h-56l-53 -248q-7 -32 10.5 -40t85.5 -8l-8 -40h-312l8 40q29 1 43 2t29 3t21 7.5t11 13.5t8 22l112 528q5 24 -12 30t-82 6l8 39h319q186 0 188 -145
q0 -77 -63.5 -129t-136.5 -61l-2 -8q29 -5 48.5 -12t37.5 -20.5t24.5 -34.5t9 -53.5t-8.5 -76.5q-13 -55 -11 -82.5t25 -27.5q20 0 41 32t25 92l30 -1q-10 -96 -40.5 -133.5t-78.5 -37.5q-59 0 -86 46t-8 120z" />
    <glyph glyph-name="S" unicode="S" horiz-adv-x="586" 
d="M87 59l-27 -59h-44l52 278h39v-23q0 -115 40 -169.5t131 -54.5q81 0 125.5 41t44.5 92q0 50 -37.5 81.5t-144.5 68.5q-79 28 -117 69t-38 103q0 94 73.5 154.5t165.5 60.5q94 0 166 -64l2 2l-2 -1l32 57h39l-53 -258h-36q-6 116 -44 169t-112 53q-61 0 -101.5 -39.5
t-40.5 -84.5q0 -49 40 -82t134 -65q85 -30 122.5 -72t37.5 -102q0 -93 -77 -159.5t-186 -66.5q-67 0 -114 22t-70 49z" />
    <glyph glyph-name="T" unicode="T" horiz-adv-x="644" 
d="M659 440h-38q21 98 -5.5 155t-96.5 57h-56l-122 -573q-6 -26 11 -32.5t62 -6.5h21l-8 -40h-310l8 40h14q24 0 34.5 0.5t27 4t24.5 12t11 22.5l122 573h-40q-69 0 -128 -58t-79 -154h-40l53 251h588z" />
    <glyph glyph-name="U" unicode="U" horiz-adv-x="747" 
d="M817 654l-3 -2q-52 0 -75.5 -10t-28.5 -33l-69 -328q-31 -145 -105 -219t-213 -74q-258 0 -207 237l82 387q5 27 -8.5 33.5t-77.5 6.5l8 39h296l-8 -39q-65 0 -82.5 -6.5t-22.5 -33.5l-82 -387q-21 -96 15 -144.5t111 -48.5q60 0 104.5 20.5t71 59.5t41.5 77.5t26 91.5
l69 328q5 23 -19 33t-89 10l8 39h265z" />
    <glyph glyph-name="V" unicode="V" horiz-adv-x="708" 
d="M364 168h8q165 267 230 375q29 49 16.5 79.5t-70.5 29.5l8 39h233l-8 -39q-39 0 -65.5 -25t-64.5 -86l-336 -557h-25l-105 592q-10 49 -22.5 62.5t-59.5 13.5l8 39h266l-8 -39q-59 0 -73 -16.5t-3 -59.5z" />
    <glyph glyph-name="W" unicode="W" horiz-adv-x="977" 
d="M668 174h1l202 369q30 50 17 81t-72 28l8 39h234l-8 -39q-42 0 -68.5 -23.5t-61.5 -87.5l-302 -557h-25l-53 449l-260 -449h-22l-70 592q-9 46 -26.5 61t-58.5 15l8 39h269l-8 -39q-55 1 -69.5 -16t-9.5 -60l44 -402h2l193 330l-8 72q-5 51 -19 63.5t-65 12.5l8 39h268
l-8 -39q-44 0 -61 -7t-18 -24t1 -45z" />
    <glyph glyph-name="X" unicode="X" horiz-adv-x="716" 
d="M651 0h-315l8 41q59 0 74.5 18t-2.5 60l-72 172l-166 -172q-33 -32 -22 -55t62 -24l-8 -40h-245l8 40q33 0 72.5 22t64.5 50l216 222l-98 238q-19 47 -42 63.5t-73 16.5l8 39h301l-8 -39q-60 -1 -76 -19.5t2 -56.5l71 -173l151 167q38 42 29 61.5t-67 20.5l8 39h255
l-8 -39q-82 0 -144 -67l-207 -224l94 -228q21 -51 52.5 -72t84.5 -21z" />
    <glyph glyph-name="Y" unicode="Y" horiz-adv-x="684" 
d="M758 654l-3 -2q-68 0 -133 -79l-200 -263l-39 -184q-12 -59 4 -72.5t81 -13.5l-8 -40h-308l8 40q51 0 71 5.5t29.5 21t18.5 59.5l39 180l-103 257q-27 57 -45.5 73t-66.5 16l8 39h293l-8 -39q-62 0 -80 -14.5t1 -53.5l88 -224l170 223q20 28 12.5 48t-44.5 21l8 39h214z
" />
    <glyph glyph-name="Z" unicode="Z" horiz-adv-x="636" 
d="M-19 0l4 23l555 625l-2 4h-176q-79 0 -137.5 -61t-86.5 -150h-41l63 250h536l-4 -21l-560 -624l1 -4h203q148 0 224 229h42l-76 -271h-545z" />
    <glyph glyph-name="bracketleft" unicode="[" horiz-adv-x="335" 
d="M409 738l-10 -48q-79 -15 -151 -5l-179 -852q68 6 156 -6l-11 -51q-39 6 -110 6.5t-123 -5.5l200 960q50 -5 121.5 -5t106.5 6z" />
    <glyph glyph-name="backslash" unicode="\" horiz-adv-x="419" 
d="M282 -122l-154 856h66l154 -856h-66z" />
    <glyph glyph-name="bracketright" unicode="]" horiz-adv-x="335" 
d="M-57 -224l10 48q79 15 151 5l179 852q-68 -6 -156 6l11 51q39 -6 110 -6.5t123 5.5l-200 -960q-50 5 -121.5 5t-106.5 -6z" />
    <glyph glyph-name="asciicircum" unicode="^" horiz-adv-x="544" 
d="M286 691l221 -377l-58 -33l-172 300h-8l-175 -300l-57 33l222 377h27z" />
    <glyph glyph-name="underscore" unicode="_" horiz-adv-x="604" 
d="M-83 -190h610v-52h-610v52z" />
    <glyph glyph-name="grave" unicode="`" horiz-adv-x="500" 
d="M296 506v-8h-44l-114 162v10h92z" />
    <glyph glyph-name="a" unicode="a" horiz-adv-x="535" 
d="M337 182h-13q-89 -194 -177 -194q-53 0 -83 37.5t-30 99.5q0 146 70 255.5t170 109.5q32 0 56.5 -23.5t32.5 -66.5h3l33 80h71l-78 -347q-10 -41 -4 -68t28 -27q56 0 64 129l35 -3q-9 -88 -36 -129.5t-79 -41.5q-126 0 -63 189zM169 46q45 0 96.5 91.5t74.5 208.5
q-14 109 -66 109q-51 0 -96.5 -101t-45.5 -239q0 -69 37 -69z" />
    <glyph glyph-name="b" unicode="b" horiz-adv-x="501" 
d="M106 63h-1q-5 -10 -16.5 -37t-16.5 -38h-47l27 117l94 514q8 44 -6.5 62t-62.5 18v31l139 10h45l-24 -110q-11 -53 -37 -161t-37 -161l8 -2q82 184 177 184q57 0 88 -40.5t31 -114.5q0 -135 -71 -241t-173 -106q-87 0 -117 75zM366 344q0 104 -42 104q-43 0 -98.5 -106.5
t-91.5 -237.5q3 -31 26.5 -55t54.5 -24q52 0 101.5 90t49.5 229z" />
    <glyph glyph-name="c" unicode="c" horiz-adv-x="409" 
d="M270 450q-53 0 -93 -73.5t-46 -204.5q-7 -139 66 -139q43 0 83 42.5t60 91.5l31 -17q-32 -66 -81 -114t-109 -48q-158 0 -148 186q7 131 83 223.5t170 92.5q48 0 78 -33.5t27 -83.5q-1 -28 -25 -45.5t-59 -20.5q1 21 0.5 45.5t-3 46.5t-11 36.5t-23.5 14.5z" />
    <glyph glyph-name="d" unicode="d" horiz-adv-x="542" 
d="M132 110q0 -69 41 -69t94.5 93.5t77.5 211.5q-21 108 -66 108q-53 0 -100 -102t-47 -242zM336 181l-10 1q-36 -88 -84 -141t-92 -53q-53 0 -84.5 35t-31.5 102q0 150 72.5 257.5t172.5 107.5q30 0 54 -25t30 -64h6q8 44 20.5 123.5t18.5 112.5q6 36 -12 50t-60 14v29
l145 10h40l-38 -170q-29 -126 -87 -472q-5 -27 4.5 -43.5t25.5 -16.5q24 0 42 35.5t21 93.5l34 -3q-4 -80 -35 -125.5t-74 -45.5q-67 0 -84 52.5t6 135.5z" />
    <glyph glyph-name="e" unicode="e" horiz-adv-x="425" 
d="M403 388q0 -116 -270 -223q-5 -69 22 -100.5t67 -31.5t81.5 42t62.5 88l29 -21q-79 -154 -194 -154q-167 0 -167 188q0 134 75 224t172 90q57 0 89.5 -27t32.5 -75zM316 404q0 48 -46 48q-55 0 -95 -75t-43 -179q97 44 140.5 93.5t43.5 112.5z" />
    <glyph glyph-name="f" unicode="f" horiz-adv-x="342" 
d="M52 415l7 48h92l9 99q9 86 56.5 137t110.5 51t100.5 -30t37.5 -71q0 -33 -20 -55t-53 -22q-8 145 -59 145q-67 0 -82 -166l-9 -88h108l-8 -48h-105q-24 -191 -51.5 -321.5t-58.5 -197.5t-61 -94t-65 -27q-41 0 -66.5 17.5t-25.5 52.5q0 29 18.5 49t46.5 20q12 -74 46 -99
q73 81 126 600h-94z" />
    <glyph glyph-name="g" unicode="g" horiz-adv-x="455" 
d="M246 490q71 0 116 -39l60 36h51l-15 -61h-74q20 -31 20 -70q0 -77 -44 -122t-106 -57q-51 -10 -77.5 -29.5t-45.5 -48.5l41 -13q158 -48 200 -73q51 -31 52 -75q0 -65 -70.5 -114t-177.5 -49q-84 0 -142 28t-58 81q0 73 137 132v11q-42 29 -42 74q23 42 85 76v10
q-45 15 -71 46t-26 73q0 70 55 127t132 57zM342 -92q0 20 -17 35t-59 28l-109 34q-55 -19 -82 -52t-27 -62q0 -42 40.5 -61.5t102.5 -19.5q67 0 109 27.5t42 70.5zM313 342q0 112 -73 112q-42 0 -66 -39.5t-24 -110.5q0 -93 72 -93q37 0 64 33.5t27 97.5z" />
    <glyph glyph-name="h" unicode="h" horiz-adv-x="539" 
d="M125 18l-30 -18h-65l129 637q8 37 -12 50.5t-70 13.5v29l153 10h41l-45 -191l-57 -222l9 -7q33 66 82.5 118t96.5 52q41 0 64 -19.5t28.5 -49t1 -68t-13 -72t-18.5 -67.5q-3 -8 -4 -12q-54 -163 2 -163q25 1 45 34.5t26 90.5l32 -1q-7 -74 -39 -122t-81 -48
q-43 0 -66 16.5t-27.5 50.5t1 70.5t19.5 91.5q13 49 18 72t11 60t1.5 58.5t-18.5 32.5q-44 0 -97.5 -84t-82.5 -171z" />
    <glyph glyph-name="i" unicode="i" horiz-adv-x="320" 
d="M231 357l-64 -249q-7 -29 3.5 -50.5t25.5 -19.5q18 3 37.5 35.5t21.5 91.5l36 -1q-14 -91 -41 -131t-78 -40q-55 0 -78 43t-8 102l61 231q5 16 2 45.5t-14 29.5q-49 0 -75 -135l-31 8q12 75 46.5 124t77.5 49q52 0 71.5 -40t6.5 -93zM166 664q0 29 16.5 48t41.5 19
q26 0 43 -19t17 -48q0 -27 -17 -45.5t-43 -18.5q-25 0 -41.5 18.5t-16.5 45.5z" />
    <glyph glyph-name="j" unicode="j" horiz-adv-x="318" 
d="M185 664q0 29 16.5 48t41.5 19q26 0 43 -19t17 -48q0 -27 -17 -45.5t-43 -18.5q-25 0 -41.5 18.5t-16.5 45.5zM22 -192q32 0 48.5 35.5t36.5 139.5l74 381q13 71 -22 71q-25 0 -48.5 -31.5t-31.5 -89.5l-31 8q7 36 14.5 60t21.5 51.5t37.5 42t55.5 14.5q51 0 75.5 -32.5
t18.5 -78.5l-75 -398q-16 -94 -62 -149.5t-115 -56.5q-44 0 -78 20t-34 60q0 24 20 41.5t57 22.5q-6 -111 38 -111z" />
    <glyph glyph-name="k" unicode="k" horiz-adv-x="513" 
d="M126 24l-41 -24h-49l119 626q8 42 -5.5 62t-62.5 17v26l112 9h69l-42 -183l-47 -250h7q40 72 96 127.5t114 55.5q42 0 64.5 -22.5t22.5 -56.5q0 -25 -12.5 -48t-30.5 -39t-47.5 -33t-53 -27.5t-57.5 -24.5q-4 -1 -6 -2l-5 -2.5t-6 -2.5v-4q21 -10 42 -39t34.5 -57.5
t29 -51t29.5 -22.5q33 0 64 90l31 -4q-47 -151 -120 -151q-37 0 -64 27.5t-40.5 62t-34.5 70.5t-46 49l18 40q188 76 188 165q0 38 -30 38q-33 0 -94 -75t-116 -187z" />
    <glyph glyph-name="l" unicode="l" horiz-adv-x="289" 
d="M283 740l-147 -651q-5 -22 1.5 -36t19.5 -14q12 0 21.5 4t21 15.5t20 39t13.5 69.5l35 -4q-12 -82 -41 -126t-89 -44q-55 0 -74 36.5t-1 115.5l107 492q6 37 -11.5 50.5t-59.5 13.5v29l149 10h35z" />
    <glyph glyph-name="m" unicode="m" horiz-adv-x="827" 
d="M419 18l-33 -18h-66q1 5 12.5 46.5t22.5 87t20 91.5q35 176 -6 220q-44 0 -90.5 -75.5t-80.5 -179.5l-37 -167l-37 -23h-61l76 369q6 20 1.5 48.5t-21.5 28.5q-44 0 -69 -138l-31 8q10 67 41 120.5t70 53.5q37 0 56 -22t20 -58t-6 -72.5t-20 -76.5h7q37 93 91.5 161
t101.5 68q38 0 61.5 -30.5t25.5 -71t-4 -79.5h8q40 81 87 131t87 50q42 0 65.5 -23.5t28 -63.5t-3 -89t-27.5 -106q-7 -21 -13.5 -46.5t-12 -56.5t0 -51.5t23.5 -20.5q26 0 46 38t24 102l32 -4q0 -71 -29.5 -123.5t-77.5 -52.5q-33 0 -55.5 9t-33 27t-15 37.5t-0.5 49.5
t9 53.5t14 58.5q3 13 12 44.5t13.5 51.5t7.5 45.5t-2.5 44.5t-20.5 31q-38 0 -86.5 -73t-89.5 -188l-19 -90z" />
    <glyph glyph-name="n" unicode="n" horiz-adv-x="572" 
d="M160 22l-43 -22h-54l76 369q14 76 -19 76q-19 0 -40 -36t-31 -101l-30 3q26 179 118 179q34 0 52.5 -18.5t21 -50t-3 -65.5t-18.5 -73h9q37 82 90 144.5t101 62.5q45 0 68 -24.5t24 -68.5t-6.5 -88.5t-24.5 -100.5q-52 -175 1 -175q26 0 47.5 44.5t22.5 88.5l32 -2
q-5 -68 -33.5 -119.5t-83.5 -51.5q-141 0 -82 206q13 44 19.5 71.5t14 67.5t4 67t-16.5 40q-32 0 -70 -46t-65.5 -102.5t-46.5 -111.5z" />
    <glyph glyph-name="o" unicode="o" horiz-adv-x="470" 
d="M438 306q0 -80 -30 -152.5t-85.5 -119t-121.5 -46.5q-80 0 -126 46.5t-46 132.5q0 128 74 225.5t170 97.5q78 0 121.5 -50.5t43.5 -133.5zM342 329v18q0 102 -65 102q-47 0 -82.5 -49t-52 -118t-16.5 -144q0 -110 71 -110q35 0 62.5 28.5t44 74.5t26 96t12.5 102z" />
    <glyph glyph-name="p" unicode="p" horiz-adv-x="529" 
d="M394 359q0 86 -43 86q-37 0 -92.5 -100t-90.5 -254q10 -27 32 -44.5t53 -17.5q52 0 96.5 88t44.5 242zM113 -195l-43 -20h-48l116 575q8 34 4.5 59t-18.5 25q-17 0 -36.5 -34.5t-32.5 -101.5l-36 3q24 88 50 133.5t61 45.5q109 0 68 -162h11q77 162 163 162
q58 0 90.5 -38.5t32.5 -111.5q0 -84 -29.5 -164.5t-85 -134t-121.5 -53.5q-69 0 -103 46z" />
    <glyph glyph-name="q" unicode="q" horiz-adv-x="494" 
d="M130 122q0 -42 12 -64t32 -22q35 0 88 82.5t90 218.5q-7 51 -24.5 84t-41.5 33q-56 0 -106 -98t-50 -234zM364 -188l-38 -27h-56l72 397h-8q-19 -46 -42 -85.5t-61 -74t-75 -34.5q-58 0 -90 37.5t-32 92.5q0 150 76.5 261t175.5 111q31 0 55.5 -27t32.5 -71h4l46 88h44
l-17 -115z" />
    <glyph glyph-name="r" unicode="r" horiz-adv-x="424" 
d="M168 23l-35 -23h-63l68 364q4 26 4 43.5t-3.5 27t-10.5 9.5q-22 0 -45 -39t-32 -95l-31 7q9 74 41.5 123.5t92.5 49.5q22 0 36 -9t19 -26t6 -35.5t-4.5 -45.5t-11 -47t-13.5 -48l20 -2q29 107 64 160t81 53q32 0 52.5 -21.5t20.5 -57.5t-23 -58.5t-65 -22.5
q13 110 -13 110q-30 0 -71.5 -110.5t-83.5 -306.5z" />
    <glyph glyph-name="s" unicode="s" horiz-adv-x="385" 
d="M91 144q-2 -59 12 -89t53 -30q33 0 55.5 24.5t22.5 56.5q0 33 -23 63t-50.5 50.5t-50.5 55t-23 76.5q0 56 45.5 97.5t115.5 41.5q49 0 85.5 -27t36.5 -65q0 -32 -18 -50t-50 -18q0 124 -59 124q-30 0 -50.5 -21t-20.5 -57q0 -33 23 -62.5t50.5 -49.5t50.5 -53.5t23 -73.5
q0 -64 -51 -106.5t-125 -42.5q-54 0 -89.5 22.5t-35.5 57.5q0 33 21 54.5t52 21.5z" />
    <glyph glyph-name="t" unicode="t" horiz-adv-x="336" 
d="M164 582l55 62h50l-42 -181h123l-8 -48h-126l-68 -292q-19 -85 24 -85q25 0 47.5 36t27.5 96l40 -1q-26 -176 -131 -176q-59 0 -83.5 38t-8.5 113l62 271h-74l7 48h78z" />
    <glyph glyph-name="u" unicode="u" horiz-adv-x="565" 
d="M350 157l-7 2q-37 -75 -84 -123t-84 -48q-46 0 -73 33t-27 88q0 46 38 175q34 106 28 138q-5 24 -25 24q-21 0 -39.5 -37.5t-30.5 -97.5l-27 3q32 176 110 176q43 0 65.5 -20t24.5 -56.5t-3 -70t-18 -78.5q-20 -71 -28 -112.5t-6 -75.5t20 -49q45 0 96 86t81 179
q9 33 40 187h94l-77 -367q-15 -73 26 -73q27 0 46.5 34t28.5 94l27 -2q-8 -78 -36.5 -125.5t-80.5 -47.5q-57 0 -76 46t-3 118z" />
    <glyph glyph-name="v" unicode="v" horiz-adv-x="490" 
d="M240 409l-26 -312q-2 -25 9 -32q76 43 121.5 115t45.5 166q0 51 -12 91q-7 34 6 58l52 15q29 -6 35 -54q8 -152 -87.5 -290t-236.5 -178q-30 0 -27 41l28 371l-6 13q-46 6 -63.5 -9.5t-27.5 -77.5l-29 5q3 25 6 42t8.5 35.5t13.5 29t21 20.5t30 13.5t41 3.5t55 -5z" />
    <glyph glyph-name="w" unicode="w" horiz-adv-x="735" 
d="M484 459l-30 -362q-2 -25 9 -32q78 43 125 115t47 166q0 51 -12 91q-7 34 6 58l52 15q29 -6 35 -54q8 -152 -89 -290t-240 -178q-30 0 -27 41l9 121q-92 -125 -222 -162q-30 0 -27 41l28 371l-6 13q-46 6 -63.5 -9.5t-27.5 -77.5l-29 5q3 25 6 42t8.5 35.5t13.5 29
t21 20.5t30 13.5t41 3.5t55 -5l43 -61l-26 -312q-2 -25 9 -32q119 69 154 194l15 198q0 10 53 10q39 0 39 -8z" />
    <glyph glyph-name="x" unicode="x" horiz-adv-x="513" 
d="M168 490q41 0 68 -25.5t35 -70.5l14 -87l76 123q35 60 86 60q26 0 41.5 -15t15.5 -41q0 -30 -15.5 -48.5t-38.5 -22.5q-7 48 -42 74l-114 -181l23 -139q7 -41 14.5 -57t24.5 -16q27 0 45 39.5t24 99.5l37 -4q-13 -98 -42.5 -142t-84.5 -44q-31 0 -61.5 23.5t-37.5 77.5
l-14 83l-84 -138q-32 -46 -78 -46q-26 0 -43.5 13.5t-17.5 36.5q0 50 48 68q14 -48 52 -61l115 177l-24 143q-12 67 -40 67q-48 0 -74 -123l-31 3q31 173 123 173z" />
    <glyph glyph-name="y" unicode="y" horiz-adv-x="514" 
d="M350 157l-7 2q-37 -75 -84 -123t-84 -48q-152 0 -62 296q1 3 6.5 20.5t8.5 28.5t7.5 29t5.5 30t0 24.5t-7.5 18.5t-17.5 6q-21 0 -39.5 -36t-30.5 -94l-27 3q32 176 110 176q43 0 66 -20t26 -56t-2.5 -70t-17.5 -79q-19 -69 -27 -104t-7.5 -73.5t17.5 -59.5q45 0 96 86
t81 179q9 33 40 187h94l-77 -372q-21 -79 -51 -140t-61.5 -96.5t-68.5 -58t-68 -30.5t-63 -8q-33 0 -59 18t-26 49q0 26 18 43.5t48 17.5q6 -29 21.5 -53t32.5 -34q62 0 112.5 75.5t96.5 265.5z" />
    <glyph glyph-name="z" unicode="z" horiz-adv-x="439" 
d="M355 405l-7 6l-98 -42q-2 1 -13.5 6.5t-14 6.5t-12 5t-14 5.5t-12.5 3.5t-15 2.5t-15 0.5q-24 0 -43 -29t-22 -64l-31 5q9 78 44 128.5t87 50.5q33 -1 56 -11t70 -39q58 2 93 50l42 -34l-187 -212l-141 -150l6 -5l83 23q14 -17 37.5 -30t42.5 -13q30 0 51 26t29 60l30 -8
q-20 -74 -55.5 -116.5t-80.5 -42.5q-57 0 -127 63q-52 -3 -100 -63l-37 29l216 239z" />
    <glyph glyph-name="braceleft" unicode="{" horiz-adv-x="435" 
d="M149 266l-2 -16q48 -7 81 -38.5t37 -75.5q4 -34 -20.5 -81.5t-49 -94.5t-21.5 -80q7 -66 140 -66l-9 -42q-199 0 -211 107q-3 31 11.5 69.5t33 68t33 65t12.5 61.5q-4 42 -40 63.5t-95 21.5l14 66q92 0 141 57.5t42 127.5q-1 7 -2 20t-2 23.5t-2 19.5q-9 99 52 148
t211 48l-9 -42q-97 0 -138.5 -34.5t-34.5 -115.5l7 -69q7 -74 -45.5 -139t-133.5 -72z" />
    <glyph glyph-name="bar" unicode="|" horiz-adv-x="544" 
d="M235 -230v980h74v-980h-74z" />
    <glyph glyph-name="braceright" unicode="}" horiz-adv-x="435" 
d="M290 245l2 16q-48 7 -81 38.5t-37 75.5q-4 34 20.5 81.5t49 94.5t21.5 80q-7 66 -140 66l9 42q199 0 211 -107q3 -31 -11.5 -69.5t-33 -68t-33 -65t-12.5 -61.5q4 -42 40 -63.5t95 -21.5l-14 -66q-92 0 -141 -57.5t-42 -127.5l6 -63q9 -99 -52 -148t-211 -48l9 42
q97 0 138.5 34.5t34.5 115.5l-7 69q-7 74 45.5 139t133.5 72z" />
    <glyph glyph-name="asciitilde" unicode="~" horiz-adv-x="544" 
d="M471 373l36 -14q-21 -62 -63.5 -109.5t-80.5 -47.5q-23 0 -105 39.5t-105 39.5q-15 0 -30 -13.5t-23.5 -27.5t-22.5 -42l-40 16q17 53 61 106t71 53q30 0 107.5 -40t106.5 -40q24 0 50.5 25t37.5 55z" />
    <glyph glyph-name="uni00A0" unicode="&#xa0;" horiz-adv-x="210" 
 />
    <glyph glyph-name="exclamdown" unicode="&#xa1;" horiz-adv-x="359" 
d="M280 397q0 -28 -18 -46.5t-46 -18.5t-47 18.5t-19 46.5q0 27 19 45t47 18t46 -18t18 -45zM43 -152q1 3 17 46.5t25.5 72t25 77t29.5 99.5t25 102l43 -8q-48 -232 -48 -404q0 -42 -15 -72t-50 -30q-34 0 -49 17t-15 41q0 13 12 59z" />
    <glyph glyph-name="cent" unicode="&#xa2;" horiz-adv-x="433" 
d="M372 251l29 -18q-29 -54 -76 -80t-104 -15l-20 -94l-37 8l21 96q-70 26 -104 88t-13 156q19 85 78.5 134.5t132.5 47.5l20 90l37 -9l-20 -87q56 -14 90.5 -53.5t24.5 -84.5q-7 -30 -24 -43t-39 -8q-25 6 -35 26t-3 45l31 33q-5 40 -53 49l-76 -347l13 -3q39 -9 73.5 11
t53.5 58zM157 385q-30 -133 40 -182l73 331q-82 -9 -113 -149z" />
    <glyph glyph-name="sterling" unicode="&#xa3;" horiz-adv-x="592" 
d="M107 378h79q-15 73 -5 118q18 86 85.5 133t143.5 47q80 0 118 -38.5t30 -76.5q-5 -23 -21 -37t-33 -14q-22 0 -32.5 20t-13 43.5t-16.5 43.5t-41 20q-37 0 -68.5 -30.5t-44.5 -90.5q-4 -37 -4 -48t5.5 -45t6.5 -45h151l-10 -46h-139q0 -17 -5 -42q-22 -107 -88 -162
l5 -13q30 17 55 17t45 -14.5t31.5 -32t29 -32t38.5 -14.5q17 0 29.5 9.5t15.5 26.5q3 14 -13 34t-12 39q3 15 16 27t30 12q26 0 37 -20.5t2 -58.5q-12 -58 -57 -89t-96 -31q-68 0 -122.5 30t-74.5 64h-5q-70 -94 -125 -94q-13 0 -19.5 7t-4.5 18q13 58 139 97q30 50 46 122
q8 39 -1 100h-97z" />
    <glyph glyph-name="currency" unicode="&#xa4;" horiz-adv-x="628" 
d="M92 271q0 68 41 126v7l-46 44q-11 12 -2 28.5t25.5 22t28.5 -2.5l46 -48q60 42 131 42q75 0 128 -39v1l44 46q13 9 30 1t28.5 -26.5t1.5 -28.5l-46 -43v-7q38 -57 38 -123q0 -68 -42 -129v-7l49 -47q11 -11 1.5 -28t-25.5 -23.5t-28 3.5v1l-51 50q-57 -39 -128 -39
q-70 0 -126 35l-42 -44v-1q-11 -12 -31.5 -4.5t-29.5 23.5t1 29l45 44v7q-41 56 -41 130zM163 270q0 -74 42.5 -121.5t111.5 -47.5q64 0 107 48t43 121q0 74 -43 121.5t-108 47.5q-71 0 -112 -48t-41 -121z" />
    <glyph glyph-name="yen" unicode="&#xa5;" horiz-adv-x="610" 
d="M683 601l-2 -2q-64 0 -121 -72l-171 -224h118l-10 -46h-128l-12 -55h128l-9 -46h-129l-8 -40q-11 -54 3.5 -66.5t74.5 -12.5l-7 -37h-283l7 37q66 0 82 11.5t28 67.5l8 40h-151l9 46h152l12 55h-152l10 46h138l-86 214q-25 53 -41.5 67.5t-60.5 14.5l7 36h269l-7 -36
q-53 0 -68.5 -13.5t0.5 -48.5l81 -206l156 205q22 26 14 44t-48 19l7 36h197z" />
    <glyph glyph-name="brokenbar" unicode="&#xa6;" horiz-adv-x="544" 
d="M309 400h-74v350h74v-350zM235 120h74v-350h-74v350z" />
    <glyph glyph-name="section" unicode="&#xa7;" horiz-adv-x="499" 
d="M115 407q2 75 31 137.5t73 100t94.5 58t98.5 20.5q38 0 65 -18t27 -50q0 -22 -14.5 -36.5t-38.5 -14.5q-18 0 -30 9.5t-17.5 21.5t-18 21.5t-31.5 9.5q-33 0 -53.5 -31t-20.5 -80q0 -35 18.5 -85t40.5 -94t40.5 -105t18.5 -116q0 -73 -32.5 -135t-82.5 -100t-106 -59
t-106 -21q-36 0 -62 17t-26 48q0 26 17 44t48 18q18 0 27.5 -10.5t12 -22.5t14 -22.5t33.5 -10.5q36 0 58 36t22 89q0 54 -25 117.5t-50 131t-25 132.5zM261 -29l5 -6q76 64 76 180q0 48 -17.5 105t-39 100.5t-39 94t-17.5 86.5q0 22 7 42l-5 4q-28 -28 -44 -71.5t-16 -86.5
q0 -71 52 -192t52 -181q0 -39 -14 -75z" />
    <glyph glyph-name="dieresis" unicode="&#xa8;" horiz-adv-x="500" 
d="M408 569q0 -20 -16.5 -35.5t-35.5 -15.5q-21 0 -37 15.5t-16 35.5q0 21 16 37t37 16q19 0 35.5 -16t16.5 -37zM247 569q0 -21 -15.5 -36t-36.5 -15t-37 15.5t-16 35.5q0 21 16 37t37 16t36.5 -16t15.5 -37z" />
    <glyph glyph-name="copyright" unicode="&#xa9;" horiz-adv-x="775" 
d="M48 327q0 138 100.5 238t239.5 100q144 0 241.5 -99t97.5 -239q0 -143 -99.5 -242t-239.5 -99q-142 0 -241 96.5t-99 244.5zM108 324q0 -122 79 -203.5t203 -81.5q123 0 199.5 81t76.5 204q0 125 -79 208t-199 83q-122 0 -201 -83.5t-79 -207.5zM397 183q45 0 70.5 19.5
t39.5 62.5h28v-82q-67 -43 -140 -43q-82 0 -137 50t-55 138q0 84 55 135t137 51q67 0 136 -37v-85h-30q-16 46 -42.5 64t-63.5 18q-51 0 -81.5 -35t-30.5 -110q0 -71 34.5 -108.5t79.5 -37.5z" />
    <glyph glyph-name="ordfeminine" unicode="&#xaa;" horiz-adv-x="428" 
d="M315 459h-3q-76 -150 -143 -150q-44 0 -69 29.5t-25 78.5q0 114 56.5 199.5t137.5 85.5q51 0 74 -60q2 6 10.5 24.5t11.5 27.5h65l-62 -270q-5 -22 -5 -37q0 -35 20 -35q40 0 47 99l35 -2q-8 -71 -30 -103.5t-65 -32.5q-71 0 -71 68q0 34 16 78zM186 358q32 0 72 71.5
t60 159.5q-11 82 -49 82q-39 0 -73.5 -77.5t-34.5 -183.5q0 -52 25 -52z" />
    <glyph glyph-name="guillemotleft" unicode="&#xab;" horiz-adv-x="652" 
d="M127 240l244 219l32 -30l-187 -204l-5 -15l49 -200l-40 -14l-100 221zM334 240l244 219l32 -30l-187 -204l-5 -15l49 -200l-40 -14l-100 221z" />
    <glyph glyph-name="logicalnot" unicode="&#xac;" horiz-adv-x="544" 
d="M428 52v197h-388v64h457v-261h-69z" />
    <glyph glyph-name="registered" unicode="&#xae;" horiz-adv-x="508" 
d="M130 503q0 88 63 151t151 63q91 0 152.5 -62.5t61.5 -151.5q0 -88 -63 -151t-151 -63q-89 0 -151.5 61t-62.5 153zM174 502q0 -76 48 -125.5t123 -49.5q70 0 119.5 50.5t49.5 124.5q0 77 -49 126.5t-121 49.5q-78 0 -124 -49.5t-46 -126.5zM377 508v-8q14 -6 38 -39.5
t37 -42.5l15 -7v-20h-55q-14 10 -41.5 52t-47.5 50h-13v-75l37 -7v-20h-114v20l27 7v183l-27 7v20h116q29 0 57 -14t28 -48q0 -20 -15.5 -36.5t-41.5 -21.5zM310 601v-82h26q23 0 34.5 13.5t11.5 31.5q0 37 -40 37h-32z" />
    <glyph glyph-name="macron" unicode="&#xaf;" horiz-adv-x="500" 
d="M390 530h-254v58h254v-58z" />
    <glyph glyph-name="degree" unicode="&#xb0;" horiz-adv-x="367" 
d="M91 564q0 59 42 101.5t101 42.5t101.5 -42.5t42.5 -101.5t-42.5 -101t-101.5 -42q-58 0 -100.5 42.5t-42.5 100.5zM151 564q0 -39 22.5 -65.5t59.5 -26.5t60.5 26.5t23.5 65.5t-23.5 66.5t-60.5 27.5t-59.5 -27.5t-22.5 -66.5z" />
    <glyph glyph-name="plusminus" unicode="&#xb1;" horiz-adv-x="620" 
d="M570 320h-230v-210h-60v210h-230v60h230v210h60v-210h230v-60zM570 0h-520v60h520v-60z" />
    <glyph glyph-name="two.sups" unicode="&#xb2;" horiz-adv-x="320" 
d="M188 474v-7h104q24 0 48 65h44l-33 -117h-264l-3 29l23 16q39 26 64 44.5t68 55.5t66.5 75t23.5 73q0 66 -47 66q-43 0 -69 -43l28 -45q-3 -21 -17.5 -33t-34.5 -12q-46 0 -46 42q0 51 47 85t98 34q57 0 88.5 -23t31.5 -66q0 -35 -30.5 -75.5t-61 -65.5t-81.5 -62
q-40 -30 -50 -38z" />
    <glyph glyph-name="three.sups" unicode="&#xb3;" horiz-adv-x="312" 
d="M295 623l1 -5q81 -13 81 -84q0 -55 -52 -90.5t-133 -35.5q-45 0 -74 18t-29 51q0 22 15 37.5t34 15.5q21 0 32.5 -13t6.5 -29l-31 -37q10 -15 41 -15q44 0 77.5 24t33.5 75q0 58 -46 58q-16 0 -62 -14l-7 30q75 24 110.5 52t35.5 68q0 45 -46 45q-31 0 -56 -18
q14 -30 20 -46q-3 -15 -15.5 -24.5t-28.5 -9.5q-46 0 -46 32q0 44 45 69t96 25q50 0 79.5 -19t29.5 -51q0 -66 -119 -111z" />
    <glyph glyph-name="acute" unicode="&#xb4;" horiz-adv-x="500" 
d="M198 498v8l113 164h90v-10l-149 -162h-54z" />
    <glyph glyph-name="mu" unicode="&#xb5;" horiz-adv-x="544" 
d="M368 27l-8 6q-68 -45 -134 -45q-41 0 -71 27q1 -26 4 -64.5t4.5 -64t1.5 -38.5q0 -60 -46 -60q-40 0 -40 52q0 17 6 120.5t8 159.5q-1 7 -1 21v257l-63 11v38l154 18v-309q0 -56 21 -78.5t65 -22.5q58 0 93 37v306l-63 11v38l154 18v-364q0 -43 21 -43q20 0 34 34l28 -11
q-16 -47 -46 -68.5t-58 -21.5q-26 0 -37.5 7t-26.5 29z" />
    <glyph glyph-name="mu" unicode="&#x3bc;" horiz-adv-x="544" 
d="M368 27l-8 6q-68 -45 -134 -45q-41 0 -71 27q1 -26 4 -64.5t4.5 -64t1.5 -38.5q0 -60 -46 -60q-40 0 -40 52q0 17 6 120.5t8 159.5q-1 7 -1 21v257l-63 11v38l154 18v-309q0 -56 21 -78.5t65 -22.5q58 0 93 37v306l-63 11v38l154 18v-364q0 -43 21 -43q20 0 34 34l28 -11
q-16 -47 -46 -68.5t-58 -21.5q-26 0 -37.5 7t-26.5 29z" />
    <glyph glyph-name="paragraph" unicode="&#xb6;" horiz-adv-x="559" 
d="M636 706l-16 -72h-58l-168 -791h-60l168 791h-65l-168 -791h-60l85 400q-127 0 -183.5 62t-33.5 170q23 105 105.5 168t190.5 63h263zM306 300l71 334q-56 0 -99.5 -44.5t-58.5 -117.5q-17 -78 5.5 -125t81.5 -47z" />
    <glyph glyph-name="periodcentered" unicode="&#xb7;" horiz-adv-x="253" 
d="M67 264q0 27 18.5 46t45.5 19t46 -19t19 -46t-19 -45.5t-46 -18.5t-45.5 18.5t-18.5 45.5z" />
    <glyph glyph-name="cedilla" unicode="&#xb8;" horiz-adv-x="500" 
d="M182 -224l-8 25q39 6 63 22.5t24 39.5q0 21 -14.5 31.5t-36.5 10.5q-16 0 -30 -2l-5 7l73 110h45l-48 -70q34 0 57 -18t23 -54q0 -38 -42 -66t-101 -36z" />
    <glyph glyph-name="one.sups" unicode="&#xb9;" horiz-adv-x="270" 
d="M165 750l5 24q70 3 119 22h36l-67 -316q-8 -42 63 -42l-4 -23h-219l3 23q40 1 59.5 10.5t25.5 31.5q8 40 27 127.5t29 133.5z" />
    <glyph glyph-name="ordmasculine" unicode="&#xba;" horiz-adv-x="376" 
d="M403 558q0 -97 -56 -173t-136 -76q-66 0 -103.5 36.5t-37.5 103.5q0 101 60 177t137 76q65 0 100.5 -40t35.5 -104zM319 576v14q0 76 -48 76q-53 0 -84.5 -74t-31.5 -164q0 -84 53 -84q34 0 59.5 39t37 88.5t14.5 104.5z" />
    <glyph glyph-name="guillemotright" unicode="&#xbb;" horiz-adv-x="652" 
d="M545 215l-244 -219l-32 30l187 204l5 15l-49 200l40 14l100 -221zM338 215l-244 -219l-32 30l187 204l5 15l-49 200l40 14l100 -221z" />
    <glyph glyph-name="onequarter" unicode="&#xbc;" 
d="M118 -14l307 370l285 353l35 -26l-295 -349l-297 -375zM174 643l5 24q70 3 119 22h36l-67 -316q-4 -21 11 -31.5t52 -10.5l-4 -23h-219l3 23q40 1 59.5 10.5t25.5 31.5q8 40 27 127.5t29 133.5zM405 105l-3 13l259 260l33 -5l-51 -240h58l-5 -28h-59l-9 -39q-7 -33 6 -43
t41 -10l-4 -23h-190l4 23q62 0 73 49l9 43h-162zM461 133h110l28 135l-130 -134z" />
    <glyph glyph-name="onehalf" unicode="&#xbd;" 
d="M118 -14l307 370l285 353l35 -26l-295 -349l-297 -375zM174 643l5 24q70 3 119 22h36l-67 -316q-4 -21 11 -31.5t52 -10.5l-4 -23h-219l3 23q40 1 59.5 10.5t25.5 31.5q8 40 27 127.5t29 133.5zM534 49v-7h104q24 0 48 65h44l-33 -117h-264l-3 29l23 16q39 26 64 44.5
t68 55.5t66.5 75t23.5 73q0 66 -47 66q-43 0 -69 -43l28 -45q-3 -21 -17.5 -33t-34.5 -12q-46 0 -46 42q0 51 47 85t98 34q57 0 88.5 -23.5t31.5 -65.5q0 -35 -30.5 -75.5t-61 -65.5t-81.5 -62q-40 -30 -50 -38z" />
    <glyph glyph-name="threequarters" unicode="&#xbe;" 
d="M118 -14l307 370l285 353l35 -26l-295 -349l-297 -375zM269 516l1 -5q81 -13 81 -84q0 -55 -52 -90.5t-133 -35.5q-45 0 -74 18t-29 51q0 22 15 37.5t34 15.5q21 0 32.5 -13t6.5 -29l-31 -37q10 -15 41 -15q44 0 77.5 24t33.5 75q0 58 -46 58q-16 0 -62 -14l-7 30
q75 24 110.5 52t35.5 68q0 45 -46 45q-30 0 -56 -18q14 -30 20 -46q-3 -15 -15.5 -24.5t-28.5 -9.5q-46 0 -46 32q0 44 45 69t96 25q50 0 79.5 -19t29.5 -51q0 -66 -119 -111zM405 105l-3 13l259 260l33 -5l-51 -240h58l-5 -28h-59l-9 -39q-7 -33 6 -43t41 -10l-4 -23h-190
l4 23q62 0 73 49l9 43h-162zM461 133h110l28 135l-130 -134z" />
    <glyph glyph-name="questiondown" unicode="&#xbf;" horiz-adv-x="473" 
d="M417 481q0 -30 -19 -47t-45 -17q-27 0 -46.5 17t-19.5 47q0 27 19 45t47 18t46 -18t18 -45zM42 -65q0 38 27.5 74t67 64t78.5 54.5t66.5 54t27.5 53.5q0 43 -51 43q-20 0 -39.5 -15t-26.5 -54l-41 11q29 107 123 107q46 0 82 -24t36 -70q0 -35 -27 -68.5t-66 -60.5
t-77.5 -54t-65.5 -59.5t-27 -67.5q0 -28 16 -45.5t45 -17.5q49 0 80 38t31 121l43 12q1 -9 1 -26q0 -87 -43 -138.5t-117 -51.5q-67 0 -105 34.5t-38 85.5z" />
    <glyph glyph-name="Agrave" unicode="&#xc0;" horiz-adv-x="720" 
d="M470 79l-22 125h-247l-70 -123q-5 -12 -5 -20t10.5 -12.5t29.5 -6.5t51 -2l-8 -40h-242l8 40q42 0 66.5 13t45.5 48l350 600h23l113 -607q8 -38 21.5 -46t64.5 -8l-8 -40h-288l8 40h27q53 0 64.5 6t7.5 33zM389 533q-44 -75 -161 -282h211l-49 282h-1zM502 753v-8h-48
l-104 127v10h91z" />
    <glyph glyph-name="Aacute" unicode="&#xc1;" horiz-adv-x="720" 
d="M470 79l-22 125h-247l-70 -123q-5 -12 -5 -20t10.5 -12.5t29.5 -6.5t51 -2l-8 -40h-242l8 40q42 0 66.5 13t45.5 48l350 600h23l113 -607q8 -38 21.5 -46t64.5 -8l-8 -40h-288l8 40h27q53 0 64.5 6t7.5 33zM389 533q-44 -75 -161 -282h211l-49 282h-1zM392 745v8l101 129
h94v-10l-144 -127h-51z" />
    <glyph glyph-name="Acircumflex" unicode="&#xc2;" horiz-adv-x="720" 
d="M470 79l-22 125h-247l-70 -123q-5 -12 -5 -20t10.5 -12.5t29.5 -6.5t51 -2l-8 -40h-242l8 40q42 0 66.5 13t45.5 48l350 600h23l113 -607q8 -38 21.5 -46t64.5 -8l-8 -40h-288l8 40h27q53 0 64.5 6t7.5 33zM389 533q-44 -75 -161 -282h211l-49 282h-1zM597 753v-8h-46
l-70 76l-128 -76h-46v8l161 129h48z" />
    <glyph glyph-name="Atilde" unicode="&#xc3;" horiz-adv-x="720" 
d="M470 79l-22 125h-247l-70 -123q-5 -12 -5 -20t10.5 -12.5t29.5 -6.5t51 -2l-8 -40h-242l8 40q42 0 66.5 13t45.5 48l350 600h23l113 -607q8 -38 21.5 -46t64.5 -8l-8 -40h-288l8 40h27q53 0 64.5 6t7.5 33zM389 533q-44 -75 -161 -282h211l-49 282h-1zM589 890l26 -10
q-14 -47 -42.5 -82t-54.5 -35q-14 0 -61 30t-61 30q-8 0 -14 -4t-12.5 -15.5t-10 -18.5t-11.5 -25l-29 12q11 39 41 78.5t48 39.5q19 0 62.5 -30.5t61.5 -30.5q16 0 33 19.5t24 41.5z" />
    <glyph glyph-name="Adieresis" unicode="&#xc4;" horiz-adv-x="720" 
d="M470 79l-22 125h-247l-70 -123q-5 -12 -5 -20t10.5 -12.5t29.5 -6.5t51 -2l-8 -40h-242l8 40q42 0 66.5 13t45.5 48l350 600h23l113 -607q8 -38 21.5 -46t64.5 -8l-8 -40h-288l8 40h27q53 0 64.5 6t7.5 33zM389 533q-44 -75 -161 -282h211l-49 282h-1zM610 826
q0 -20 -16.5 -35.5t-35.5 -15.5q-21 0 -37 15.5t-16 35.5q0 21 16 37t37 16q19 0 35.5 -16t16.5 -37zM449 826q0 -20 -15.5 -35.5t-36.5 -15.5t-37 15.5t-16 35.5q0 21 16 37t37 16t36.5 -16t15.5 -37z" />
    <glyph glyph-name="Aring" unicode="&#xc5;" horiz-adv-x="720" 
d="M470 79l-22 125h-247l-70 -123q-5 -12 -5 -20t10.5 -12.5t29.5 -6.5t51 -2l-8 -40h-242l8 40q42 0 66.5 13t45.5 48l350 600h23l113 -607q8 -38 21.5 -46t64.5 -8l-8 -40h-288l8 40h27q53 0 64.5 6t7.5 33zM389 533q-44 -75 -161 -282h211l-49 282h-1zM378 829
q0 39 27.5 66.5t66.5 27.5t66.5 -27.5t27.5 -66.5t-27.5 -66.5t-66.5 -27.5t-66.5 27.5t-27.5 66.5zM424 829q0 -22 13 -36.5t34 -14.5t34.5 14.5t13.5 36.5t-13.5 37.5t-34.5 15.5t-34 -15.5t-13 -37.5z" />
    <glyph glyph-name="AE" unicode="&#xc6;" horiz-adv-x="1024" 
d="M986 247l-65 -247h-578l8 40q68 0 86 4.5t22 24.5l28 135h-247l-109 -123q-30 -31 37 -39q20 -2 49 -2l-8 -40h-242l8 40q26 0 46.5 8.5t30.5 17.5t35 35l482 543q-14 8 -88 8l8 39h548l-35 -217h-39q5 101 -18 139.5t-91 38.5h-167l-62 -291h74q101 0 129 137h35
l-66 -312h-35q16 82 0.5 107t-78.5 25h-68l-59 -278h191q71 0 125.5 64t71.5 143h41zM549 553l-268 -302h216l64 302h-12z" />
    <glyph glyph-name="Ccedilla" unicode="&#xc7;" horiz-adv-x="684" 
d="M267 -216l-8 25q39 6 63 22.5t24 39.5q0 21 -14.5 31.5t-36.5 10.5q-16 0 -30 -2l-5 7l47 71q-115 7 -179 74.5t-64 182.5q0 93 36 179t93.5 145.5t132 95t150.5 35.5q45 0 85 -20t63 -55l3 1l36 64h36l-51 -261h-42q3 60 -7 108t-42 83t-85 35q-80 0 -148.5 -58.5
t-108 -155.5t-39.5 -206q0 -202 169 -202q157 0 241 191h46l-61 -181q-91 -51 -221 -56l-20 -30q34 0 57 -18t23 -54q0 -38 -42 -66t-101 -36z" />
    <glyph glyph-name="Egrave" unicode="&#xc8;" horiz-adv-x="661" 
d="M623 247l-65 -247h-578l8 40q68 0 86 4.5t22 24.5l117 552q4 20 -13 25.5t-82 5.5l8 39h548l-35 -217h-39q5 101 -18 139.5t-91 38.5h-167l-62 -291h74q101 0 129 137h35l-66 -312h-35q16 82 0.5 107t-78.5 25h-68l-59 -278h191q71 0 125.5 64t71.5 143h41zM487 753v-8
h-48l-104 127v10h91z" />
    <glyph glyph-name="Eacute" unicode="&#xc9;" horiz-adv-x="661" 
d="M623 247l-65 -247h-578l8 40q68 0 86 4.5t22 24.5l117 552q4 20 -13 25.5t-82 5.5l8 39h548l-35 -217h-39q5 101 -18 139.5t-91 38.5h-167l-62 -291h74q101 0 129 137h35l-66 -312h-35q16 82 0.5 107t-78.5 25h-68l-59 -278h191q71 0 125.5 64t71.5 143h41zM377 745v8
l101 129h94v-10l-144 -127h-51z" />
    <glyph glyph-name="Ecircumflex" unicode="&#xca;" horiz-adv-x="661" 
d="M623 247l-65 -247h-578l8 40q68 0 86 4.5t22 24.5l117 552q4 20 -13 25.5t-82 5.5l8 39h548l-35 -217h-39q5 101 -18 139.5t-91 38.5h-167l-62 -291h74q101 0 129 137h35l-66 -312h-35q16 82 0.5 107t-78.5 25h-68l-59 -278h191q71 0 125.5 64t71.5 143h41zM582 753v-8
h-46l-70 76l-128 -76h-46v8l161 129h48z" />
    <glyph glyph-name="Edieresis" unicode="&#xcb;" horiz-adv-x="661" 
d="M623 247l-65 -247h-578l8 40q68 0 86 4.5t22 24.5l117 552q4 20 -13 25.5t-82 5.5l8 39h548l-35 -217h-39q5 101 -18 139.5t-91 38.5h-167l-62 -291h74q101 0 129 137h35l-66 -312h-35q16 82 0.5 107t-78.5 25h-68l-59 -278h191q71 0 125.5 64t71.5 143h41zM595 826
q0 -20 -16.5 -35.5t-35.5 -15.5q-21 0 -37 15.5t-16 35.5q0 21 16 37t37 16q19 0 35.5 -16t16.5 -37zM434 826q0 -20 -15 -35.5t-37 -15.5q-21 0 -37 15.5t-16 35.5q0 21 16 37t37 16t36.5 -16t15.5 -37z" />
    <glyph glyph-name="Igrave" unicode="&#xcc;" horiz-adv-x="379" 
d="M440 691l-8 -39q-68 0 -87 -6.5t-24 -33.5l-113 -528q-6 -30 9 -37t85 -7l-8 -40h-309l8 40q69 0 87 7t24 37l113 528q6 28 -10 34t-84 6l8 39h309zM343 753v-8h-48l-104 127v10h91z" />
    <glyph glyph-name="Iacute" unicode="&#xcd;" horiz-adv-x="379" 
d="M440 691l-8 -39q-68 0 -87 -6.5t-24 -33.5l-113 -528q-6 -30 9 -37t85 -7l-8 -40h-309l8 40q69 0 87 7t24 37l113 528q6 28 -10 34t-84 6l8 39h309zM233 745v8l101 129h94v-10l-144 -127h-51z" />
    <glyph glyph-name="Icircumflex" unicode="&#xce;" horiz-adv-x="379" 
d="M440 691l-8 -39q-68 0 -87 -6.5t-24 -33.5l-113 -528q-6 -30 9 -37t85 -7l-8 -40h-309l8 40q69 0 87 7t24 37l113 528q6 28 -10 34t-84 6l8 39h309zM438 753v-8h-46l-70 76l-128 -76h-46v8l161 129h48z" />
    <glyph glyph-name="Idieresis" unicode="&#xcf;" horiz-adv-x="379" 
d="M440 691l-8 -39q-68 0 -87 -6.5t-24 -33.5l-113 -528q-6 -30 9 -37t85 -7l-8 -40h-309l8 40q69 0 87 7t24 37l113 528q6 28 -10 34t-84 6l8 39h309zM451 826q0 -20 -16.5 -35.5t-35.5 -15.5q-21 0 -37 15.5t-16 35.5q0 21 16 37t37 16q19 0 35.5 -16t16.5 -37zM290 826
q0 -20 -15 -35.5t-37 -15.5q-21 0 -37 15.5t-16 35.5q0 21 16 37t37 16t36.5 -16t15.5 -37z" />
    <glyph glyph-name="Eth" unicode="&#xd0;" horiz-adv-x="761" 
d="M739 424q0 -190 -125 -307t-322 -117h-312l8 40q70 2 87 6.5t22 27.5l53 252h-90l12 53h89l52 242q1 4 1 11q0 13 -17.5 16.5t-78.5 3.5l8 39h310q83 0 144.5 -23t94.5 -62t48.5 -84.5t15.5 -97.5zM194 40h104q71 2 128 27.5t93 65t60 92t34 104t10 105.5
q0 102 -53.5 160t-169.5 58h-76l-58 -273h187l-12 -53h-186z" />
    <glyph glyph-name="Ntilde" unicode="&#xd1;" horiz-adv-x="752" 
d="M240 553h-4l-98 -461q-7 -33 18 -42.5t90 -9.5l-8 -40h-261l8 40q50 0 74.5 10t31.5 42l108 509q-15 26 -34.5 38.5t-54.5 12.5l8 39h158l301 -529h4l92 441q5 25 -22 37t-89 12l8 39h254l-8 -39q-51 0 -71 -11.5t-26 -37.5l-131 -613h-30zM596 890l26 -10
q-14 -47 -42.5 -82t-54.5 -35q-14 0 -60.5 30t-61.5 30q-8 0 -14 -4t-12.5 -15.5t-10 -18.5t-11.5 -25l-29 12q11 39 41 78.5t48 39.5q19 0 62.5 -30.5t61.5 -30.5q16 0 33 19.5t24 41.5z" />
    <glyph glyph-name="Ograve" unicode="&#xd2;" horiz-adv-x="751" 
d="M729 432q0 -97 -38 -182.5t-97.5 -141.5t-131 -88t-140.5 -32q-116 0 -187 73t-71 194q0 96 36 180.5t94.5 142t132 90.5t147.5 33q112 0 183.5 -74t71.5 -195zM332 34q70 0 127.5 43t91 109.5t51 139t17.5 140.5q0 92 -40.5 141t-114.5 49q-84 0 -151.5 -62
t-102.5 -158.5t-35 -203.5q0 -198 157 -198zM540 753v-8h-48l-104 127v10h91z" />
    <glyph glyph-name="Oacute" unicode="&#xd3;" horiz-adv-x="751" 
d="M729 432q0 -97 -38 -182.5t-97.5 -141.5t-131 -88t-140.5 -32q-116 0 -187 73t-71 194q0 96 36 180.5t94.5 142t132 90.5t147.5 33q112 0 183.5 -74t71.5 -195zM332 34q70 0 127.5 43t91 109.5t51 139t17.5 140.5q0 92 -40.5 141t-114.5 49q-84 0 -151.5 -62
t-102.5 -158.5t-35 -203.5q0 -198 157 -198zM430 745v8l101 129h94v-10l-144 -127h-51z" />
    <glyph glyph-name="Ocircumflex" unicode="&#xd4;" horiz-adv-x="751" 
d="M729 432q0 -97 -38 -182.5t-97.5 -141.5t-131 -88t-140.5 -32q-116 0 -187 73t-71 194q0 96 36 180.5t94.5 142t132 90.5t147.5 33q112 0 183.5 -74t71.5 -195zM332 34q70 0 127.5 43t91 109.5t51 139t17.5 140.5q0 92 -40.5 141t-114.5 49q-84 0 -151.5 -62
t-102.5 -158.5t-35 -203.5q0 -198 157 -198zM635 753v-8h-46l-70 76l-128 -76h-46v8l161 129h48z" />
    <glyph glyph-name="Otilde" unicode="&#xd5;" horiz-adv-x="751" 
d="M729 432q0 -97 -38 -182.5t-97.5 -141.5t-131 -88t-140.5 -32q-116 0 -187 73t-71 194q0 96 36 180.5t94.5 142t132 90.5t147.5 33q112 0 183.5 -74t71.5 -195zM332 34q70 0 127.5 43t91 109.5t51 139t17.5 140.5q0 92 -40.5 141t-114.5 49q-84 0 -151.5 -62
t-102.5 -158.5t-35 -203.5q0 -198 157 -198zM627 890l26 -10q-14 -47 -42.5 -82t-54.5 -35q-14 0 -60.5 30t-61.5 30q-8 0 -14 -4t-12.5 -15.5t-10 -18.5t-11.5 -25l-29 12q11 39 41 78.5t48 39.5q19 0 62.5 -30.5t61.5 -30.5q16 0 33 19.5t24 41.5z" />
    <glyph glyph-name="Odieresis" unicode="&#xd6;" horiz-adv-x="751" 
d="M729 432q0 -97 -38 -182.5t-97.5 -141.5t-131 -88t-140.5 -32q-116 0 -187 73t-71 194q0 96 36 180.5t94.5 142t132 90.5t147.5 33q112 0 183.5 -74t71.5 -195zM332 34q70 0 127.5 43t91 109.5t51 139t17.5 140.5q0 92 -40.5 141t-114.5 49q-84 0 -151.5 -62
t-102.5 -158.5t-35 -203.5q0 -198 157 -198zM648 826q0 -20 -16.5 -35.5t-35.5 -15.5q-21 0 -37 15.5t-16 35.5q0 21 16 37t37 16q19 0 35.5 -16t16.5 -37zM487 826q0 -20 -15.5 -35.5t-36.5 -15.5t-37 15.5t-16 35.5q0 21 16 37t37 16t36.5 -16t15.5 -37z" />
    <glyph glyph-name="multiply" unicode="&#xd7;" horiz-adv-x="620" 
d="M493 35l-183 183l-183 -183l-42 42l183 183l-183 183l42 42l183 -183l183 183l42 -42l-183 -183l183 -183z" />
    <glyph glyph-name="Oslash" unicode="&#xd8;" horiz-adv-x="751" 
d="M729 432q0 -97 -38 -182.5t-97.5 -141.5t-131 -88t-140.5 -32q-96 0 -161 50l-74 -82h-68l105 117q-60 71 -60 182q0 96 36 180.5t94.5 142t132 90.5t147.5 33q97 0 165 -57l58 65h68l-91 -101q55 -72 55 -176zM175 232q0 -55 11 -91l404 449q-40 66 -126 66
q-84 0 -151.5 -62t-102.5 -158.5t-35 -203.5zM332 34q70 0 127.5 43t91 109.5t51 139t17.5 140.5q0 37 -8 72l-402 -447q39 -57 123 -57z" />
    <glyph glyph-name="Ugrave" unicode="&#xd9;" horiz-adv-x="747" 
d="M817 654l-3 -2q-52 0 -75.5 -10t-28.5 -33l-69 -328q-31 -145 -105 -219t-213 -74q-258 0 -207 237l82 387q5 27 -8.5 33.5t-77.5 6.5l8 39h296l-8 -39q-65 0 -82.5 -6.5t-22.5 -33.5l-82 -387q-21 -96 15 -144.5t111 -48.5q60 0 104.5 20.5t71 59.5t41.5 77.5t26 91.5
l69 328q5 23 -19 33t-89 10l8 39h265zM549 753v-8h-48l-104 127v10h91z" />
    <glyph glyph-name="Uacute" unicode="&#xda;" horiz-adv-x="747" 
d="M817 654l-3 -2q-52 0 -75.5 -10t-28.5 -33l-69 -328q-31 -145 -105 -219t-213 -74q-258 0 -207 237l82 387q5 27 -8.5 33.5t-77.5 6.5l8 39h296l-8 -39q-65 0 -82.5 -6.5t-22.5 -33.5l-82 -387q-21 -96 15 -144.5t111 -48.5q60 0 104.5 20.5t71 59.5t41.5 77.5t26 91.5
l69 328q5 23 -19 33t-89 10l8 39h265zM439 745v8l101 129h94v-10l-144 -127h-51z" />
    <glyph glyph-name="Ucircumflex" unicode="&#xdb;" horiz-adv-x="747" 
d="M817 654l-3 -2q-52 0 -75.5 -10t-28.5 -33l-69 -328q-31 -145 -105 -219t-213 -74q-258 0 -207 237l82 387q5 27 -8.5 33.5t-77.5 6.5l8 39h296l-8 -39q-65 0 -82.5 -6.5t-22.5 -33.5l-82 -387q-21 -96 15 -144.5t111 -48.5q60 0 104.5 20.5t71 59.5t41.5 77.5t26 91.5
l69 328q5 23 -19 33t-89 10l8 39h265zM644 753v-8h-46l-70 76l-128 -76h-46v8l161 129h48z" />
    <glyph glyph-name="Udieresis" unicode="&#xdc;" horiz-adv-x="747" 
d="M817 654l-3 -2q-52 0 -75.5 -10t-28.5 -33l-69 -328q-31 -145 -105 -219t-213 -74q-258 0 -207 237l82 387q5 27 -8.5 33.5t-77.5 6.5l8 39h296l-8 -39q-65 0 -82.5 -6.5t-22.5 -33.5l-82 -387q-21 -96 15 -144.5t111 -48.5q60 0 104.5 20.5t71 59.5t41.5 77.5t26 91.5
l69 328q5 23 -19 33t-89 10l8 39h265zM657 826q0 -20 -16.5 -35.5t-35.5 -15.5q-21 0 -37 15.5t-16 35.5q0 21 16 37t37 16q19 0 35.5 -16t16.5 -37zM496 826q0 -20 -15 -35.5t-37 -15.5q-21 0 -37 15.5t-16 35.5q0 21 16 37t37 16t36.5 -16t15.5 -37z" />
    <glyph glyph-name="Yacute" unicode="&#xdd;" horiz-adv-x="684" 
d="M758 654l-3 -2q-68 0 -133 -79l-200 -263l-39 -184q-12 -59 4 -72.5t81 -13.5l-8 -40h-308l8 40q51 0 71 5.5t29.5 21t18.5 59.5l39 180l-103 257q-27 57 -45.5 73t-66.5 16l8 39h293l-8 -39q-62 0 -80 -14.5t1 -53.5l88 -224l170 223q20 28 12.5 48t-44.5 21l8 39h214z
M428 745v8l101 129h94v-10l-144 -127h-51z" />
    <glyph glyph-name="Thorn" unicode="&#xde;" horiz-adv-x="623" 
d="M616 394q1 -62 -25.5 -108t-72 -71t-95 -37t-101.5 -12h-102l-16 -78q-7 -32 10.5 -40t81.5 -8l-8 -40h-308l8 40q63 0 84.5 8t27.5 40l110 515q6 31 -15.5 40t-76.5 9l8 39h308l-8 -39q-62 0 -83.5 -7.5t-28.5 -41.5l-13 -59h110q87 0 146 -35t59 -115zM379 505h-86
l-63 -295h90q77 0 130 45t53 134q0 57 -33.5 86.5t-90.5 29.5z" />
    <glyph glyph-name="germandbls" unicode="&#xdf;" horiz-adv-x="513" 
d="M95 454q8 84 34.5 145.5t62.5 92.5t70 44.5t67 13.5q72 0 115 -44t43 -102q0 -36 -20 -65t-44 -43.5t-44 -29t-20 -25.5q0 -8 18 -23.5t39.5 -34t39.5 -55.5t18 -81q0 -112 -72.5 -182.5t-165.5 -71.5q-38 0 -74 18l15 47q28 -17 62 -17q57 0 98 53.5t41 136.5
q0 41 -16.5 74t-36.5 50t-36.5 36t-16.5 35q0 19 19 38t42.5 33.5t42.5 42t19 62.5q0 49 -19.5 77.5t-49.5 28.5q-35 0 -61 -20t-41.5 -58t-24.5 -81t-14 -100q-23 -201 -51 -338.5t-58.5 -208t-60.5 -99t-65 -28.5q-41 0 -66.5 17.5t-25.5 52.5q0 29 18.5 49t46.5 20
q12 -74 46 -99q73 85 126 639z" />
    <glyph glyph-name="agrave" unicode="&#xe0;" horiz-adv-x="535" 
d="M337 182h-13q-89 -194 -177 -194q-53 0 -83 37.5t-30 99.5q0 146 70 255.5t170 109.5q32 0 56.5 -23.5t32.5 -66.5h3l33 80h71l-78 -347q-10 -41 -4 -68t28 -27q56 0 64 129l35 -3q-9 -88 -36 -129.5t-79 -41.5q-126 0 -63 189zM169 46q45 0 96.5 91.5t74.5 208.5
q-14 109 -66 109q-51 0 -96.5 -101t-45.5 -239q0 -69 37 -69zM350 549v-8h-44l-114 162v10h92z" />
    <glyph glyph-name="aacute" unicode="&#xe1;" horiz-adv-x="535" 
d="M337 182h-13q-89 -194 -177 -194q-53 0 -83 37.5t-30 99.5q0 146 70 255.5t170 109.5q32 0 56.5 -23.5t32.5 -66.5h3l33 80h71l-78 -347q-10 -41 -4 -68t28 -27q56 0 64 129l35 -3q-9 -88 -36 -129.5t-79 -41.5q-126 0 -63 189zM169 46q45 0 96.5 91.5t74.5 208.5
q-14 109 -66 109q-51 0 -96.5 -101t-45.5 -239q0 -69 37 -69zM252 541v8l113 164h90v-10l-149 -162h-54z" />
    <glyph glyph-name="acircumflex" unicode="&#xe2;" horiz-adv-x="535" 
d="M337 182h-13q-89 -194 -177 -194q-53 0 -83 37.5t-30 99.5q0 146 70 255.5t170 109.5q32 0 56.5 -23.5t32.5 -66.5h3l33 80h71l-78 -347q-10 -41 -4 -68t28 -27q56 0 64 129l35 -3q-9 -88 -36 -129.5t-79 -41.5q-126 0 -63 189zM169 46q45 0 96.5 91.5t74.5 208.5
q-14 109 -66 109q-51 0 -96.5 -101t-45.5 -239q0 -69 37 -69zM430 549v-8h-39l-52 99l-106 -99h-53v8l151 164h48z" />
    <glyph glyph-name="atilde" unicode="&#xe3;" horiz-adv-x="535" 
d="M337 182h-13q-89 -194 -177 -194q-53 0 -83 37.5t-30 99.5q0 146 70 255.5t170 109.5q32 0 56.5 -23.5t32.5 -66.5h3l33 80h71l-78 -347q-10 -41 -4 -68t28 -27q56 0 64 129l35 -3q-9 -88 -36 -129.5t-79 -41.5q-126 0 -63 189zM169 46q45 0 96.5 91.5t74.5 208.5
q-14 109 -66 109q-51 0 -96.5 -101t-45.5 -239q0 -69 37 -69zM441 676l26 -10q-14 -47 -42.5 -82t-54.5 -35q-14 0 -61 30t-61 30q-8 0 -14 -4t-12.5 -15.5t-10 -18.5t-11.5 -25l-29 12q11 39 41 78.5t48 39.5q19 0 62.5 -30.5t61.5 -30.5q16 0 33 19.5t24 41.5z" />
    <glyph glyph-name="adieresis" unicode="&#xe4;" horiz-adv-x="535" 
d="M337 182h-13q-89 -194 -177 -194q-53 0 -83 37.5t-30 99.5q0 146 70 255.5t170 109.5q32 0 56.5 -23.5t32.5 -66.5h3l33 80h71l-78 -347q-10 -41 -4 -68t28 -27q56 0 64 129l35 -3q-9 -88 -36 -129.5t-79 -41.5q-126 0 -63 189zM169 46q45 0 96.5 91.5t74.5 208.5
q-14 109 -66 109q-51 0 -96.5 -101t-45.5 -239q0 -69 37 -69zM462 612q0 -20 -16.5 -35.5t-35.5 -15.5q-21 0 -37 15.5t-16 35.5q0 21 16 37t37 16q19 0 35.5 -16t16.5 -37zM301 612q0 -20 -15.5 -35.5t-36.5 -15.5t-37 15.5t-16 35.5q0 21 16 37t37 16t36.5 -16t15.5 -37z
" />
    <glyph glyph-name="aring" unicode="&#xe5;" horiz-adv-x="535" 
d="M337 182h-13q-89 -194 -177 -194q-53 0 -83 37.5t-30 99.5q0 146 70 255.5t170 109.5q32 0 56.5 -23.5t32.5 -66.5h3l33 80h71l-78 -347q-10 -41 -4 -68t28 -27q56 0 64 129l35 -3q-9 -88 -36 -129.5t-79 -41.5q-126 0 -63 189zM169 46q45 0 96.5 91.5t74.5 208.5
q-14 109 -66 109q-51 0 -96.5 -101t-45.5 -239q0 -69 37 -69zM230 615q0 39 27.5 66.5t66.5 27.5t66.5 -27.5t27.5 -66.5t-27.5 -66.5t-66.5 -27.5t-66.5 27.5t-27.5 66.5zM276 615q0 -22 13 -36.5t34 -14.5t34.5 14.5t13.5 36.5t-13.5 37.5t-34.5 15.5t-34 -15.5t-13 -37.5
z" />
    <glyph glyph-name="ae" unicode="&#xe6;" horiz-adv-x="709" 
d="M687 388q0 -116 -270 -223q-5 -69 22 -100.5t67 -31.5t81.5 42t62.5 88l29 -21q-79 -154 -194 -154q-156 0 -167 164h-9q-85 -164 -162 -164q-53 0 -83 37.5t-30 99.5q0 146 70 255.5t170 109.5q32 0 56.5 -23.5t32.5 -66.5h3l28 80h51l-8 -37q60 47 128 47
q57 0 89.5 -27t32.5 -75zM169 46q45 0 96.5 91.5t74.5 208.5q-14 109 -66 109q-51 0 -96.5 -101t-45.5 -239q0 -69 37 -69zM600 404q0 48 -46 48q-55 0 -95 -75t-43 -179q97 44 140.5 93.5t43.5 112.5z" />
    <glyph glyph-name="ccedilla" unicode="&#xe7;" horiz-adv-x="409" 
d="M126 -219l-8 25q39 6 63 22.5t24 39.5q0 21 -14.5 31.5t-36.5 10.5q-16 0 -30 -2l-5 7l48 74q-144 8 -134 185q7 131 83 223.5t170 92.5q48 0 78 -33.5t27 -83.5q-1 -28 -25 -45.5t-59 -20.5q1 21 0.5 45.5t-3 46.5t-11 36.5t-23.5 14.5q-53 0 -93 -73.5t-46 -204.5
q-7 -139 66 -139q43 0 83 42.5t60 91.5l31 -17q-66 -134 -157 -157l-25 -38q34 0 57 -18t23 -54q0 -38 -42 -66t-101 -36z" />
    <glyph glyph-name="egrave" unicode="&#xe8;" horiz-adv-x="425" 
d="M403 388q0 -116 -270 -223q-5 -69 22 -100.5t67 -31.5t81.5 42t62.5 88l29 -21q-79 -154 -194 -154q-167 0 -167 188q0 134 75 224t172 90q57 0 89.5 -27t32.5 -75zM316 404q0 48 -46 48q-55 0 -95 -75t-43 -179q97 44 140.5 93.5t43.5 112.5zM324 549v-8h-44l-114 162
v10h92z" />
    <glyph glyph-name="eacute" unicode="&#xe9;" horiz-adv-x="425" 
d="M403 388q0 -116 -270 -223q-5 -69 22 -100.5t67 -31.5t81.5 42t62.5 88l29 -21q-79 -154 -194 -154q-167 0 -167 188q0 134 75 224t172 90q57 0 89.5 -27t32.5 -75zM316 404q0 48 -46 48q-55 0 -95 -75t-43 -179q97 44 140.5 93.5t43.5 112.5zM226 541v8l113 164h90v-10
l-149 -162h-54z" />
    <glyph glyph-name="ecircumflex" unicode="&#xea;" horiz-adv-x="425" 
d="M403 388q0 -116 -270 -223q-5 -69 22 -100.5t67 -31.5t81.5 42t62.5 88l29 -21q-79 -154 -194 -154q-167 0 -167 188q0 134 75 224t172 90q57 0 89.5 -27t32.5 -75zM316 404q0 48 -46 48q-55 0 -95 -75t-43 -179q97 44 140.5 93.5t43.5 112.5zM404 549v-8h-39l-52 99
l-106 -99h-53v8l151 164h48z" />
    <glyph glyph-name="edieresis" unicode="&#xeb;" horiz-adv-x="425" 
d="M403 388q0 -116 -270 -223q-5 -69 22 -100.5t67 -31.5t81.5 42t62.5 88l29 -21q-79 -154 -194 -154q-167 0 -167 188q0 134 75 224t172 90q57 0 89.5 -27t32.5 -75zM316 404q0 48 -46 48q-55 0 -95 -75t-43 -179q97 44 140.5 93.5t43.5 112.5zM436 612q0 -20 -16.5 -35.5
t-35.5 -15.5q-21 0 -37 15.5t-16 35.5q0 21 16 37t37 16q19 0 35.5 -16t16.5 -37zM275 612q0 -20 -15.5 -35.5t-36.5 -15.5t-37 15.5t-16 35.5q0 21 16 37t37 16t36.5 -16t15.5 -37z" />
    <glyph glyph-name="igrave" unicode="&#xec;" horiz-adv-x="320" 
d="M231 357l-64 -249q-7 -29 3.5 -50.5t25.5 -19.5q18 3 37.5 35.5t21.5 91.5l36 -1q-14 -91 -41 -131t-78 -40q-55 0 -78 43t-8 102l61 231q5 16 2 45.5t-14 29.5q-49 0 -75 -135l-31 8q12 75 46.5 124t77.5 49q52 0 71.5 -40t6.5 -93zM249 549v-8h-44l-114 162v10h92z" />
    <glyph glyph-name="iacute" unicode="&#xed;" horiz-adv-x="320" 
d="M231 357l-64 -249q-7 -29 3.5 -50.5t25.5 -19.5q18 3 37.5 35.5t21.5 91.5l36 -1q-14 -91 -41 -131t-78 -40q-55 0 -78 43t-8 102l61 231q5 16 2 45.5t-14 29.5q-49 0 -75 -135l-31 8q12 75 46.5 124t77.5 49q52 0 71.5 -40t6.5 -93zM151 541v8l113 164h90v-10l-149 -162
h-54z" />
    <glyph glyph-name="icircumflex" unicode="&#xee;" horiz-adv-x="320" 
d="M231 357l-64 -249q-7 -29 3.5 -50.5t25.5 -19.5q18 3 37.5 35.5t21.5 91.5l36 -1q-14 -91 -41 -131t-78 -40q-55 0 -78 43t-8 102l61 231q5 16 2 45.5t-14 29.5q-49 0 -75 -135l-31 8q12 75 46.5 124t77.5 49q52 0 71.5 -40t6.5 -93zM329 549v-8h-39l-52 99l-106 -99h-53
v8l151 164h48z" />
    <glyph glyph-name="idieresis" unicode="&#xef;" horiz-adv-x="320" 
d="M231 357l-64 -249q-7 -29 3.5 -50.5t25.5 -19.5q18 3 37.5 35.5t21.5 91.5l36 -1q-14 -91 -41 -131t-78 -40q-55 0 -78 43t-8 102l61 231q5 16 2 45.5t-14 29.5q-49 0 -75 -135l-31 8q12 75 46.5 124t77.5 49q52 0 71.5 -40t6.5 -93zM361 612q0 -20 -16.5 -35.5
t-35.5 -15.5q-21 0 -37 15.5t-16 35.5q0 21 16 37t37 16q19 0 35.5 -16t16.5 -37zM200 612q0 -20 -15 -35.5t-37 -15.5q-21 0 -37 15.5t-16 35.5q0 21 16 37t37 16t36.5 -16t15.5 -37z" />
    <glyph glyph-name="eth" unicode="&#xf0;" horiz-adv-x="470" 
d="M148 567l96 64q-41 47 -85 79l17 30q66 -35 112 -80l102 68l26 -39l-95 -63q115 -136 115 -336q0 -49 -13.5 -100t-39 -97.5t-69.5 -75.5t-99 -29q-84 0 -132.5 51t-48.5 146q0 123 67 214t160 91q33 0 63 -11q-15 62 -51 115l-99 -66zM338 329q0 120 -71 120
q-45 0 -76.5 -44.5t-45 -107.5t-13.5 -136q0 -71 19.5 -102t57.5 -31q35 0 61 28.5t40 74.5t21 96t7 102z" />
    <glyph glyph-name="ntilde" unicode="&#xf1;" horiz-adv-x="572" 
d="M160 22l-43 -22h-54l76 369q14 76 -19 76q-19 0 -40 -36t-31 -101l-30 3q26 179 118 179q34 0 52.5 -18.5t21 -50t-3 -65.5t-18.5 -73h9q37 82 90 144.5t101 62.5q45 0 68 -24.5t24 -68.5t-6.5 -88.5t-24.5 -100.5q-52 -175 1 -175q26 0 47.5 44.5t22.5 88.5l32 -2
q-5 -68 -33.5 -119.5t-83.5 -51.5q-141 0 -82 206q13 44 19.5 71.5t14 67.5t4 67t-16.5 40q-32 0 -70 -46t-65.5 -102.5t-46.5 -111.5zM454 676l26 -10q-14 -47 -42.5 -82t-54.5 -35q-15 0 -61 30t-61 30q-8 0 -14 -4t-12.5 -15.5t-10 -18.5t-11.5 -25l-29 12q11 39 41 78.5
t48 39.5q19 0 62.5 -30.5t61.5 -30.5q16 0 33 19.5t24 41.5z" />
    <glyph glyph-name="ograve" unicode="&#xf2;" horiz-adv-x="470" 
d="M438 306q0 -80 -30 -152.5t-85.5 -119t-121.5 -46.5q-80 0 -126 46.5t-46 132.5q0 128 74 225.5t170 97.5q78 0 121.5 -50.5t43.5 -133.5zM342 329v18q0 102 -65 102q-47 0 -82.5 -49t-52 -118t-16.5 -144q0 -110 71 -110q35 0 62.5 28.5t44 74.5t26 96t12.5 102z
M313 549v-8h-44l-114 162v10h92z" />
    <glyph glyph-name="oacute" unicode="&#xf3;" horiz-adv-x="470" 
d="M438 306q0 -80 -30 -152.5t-85.5 -119t-121.5 -46.5q-80 0 -126 46.5t-46 132.5q0 128 74 225.5t170 97.5q78 0 121.5 -50.5t43.5 -133.5zM342 329v18q0 102 -65 102q-47 0 -82.5 -49t-52 -118t-16.5 -144q0 -110 71 -110q35 0 62.5 28.5t44 74.5t26 96t12.5 102z
M215 541v8l113 164h90v-10l-149 -162h-54z" />
    <glyph glyph-name="ocircumflex" unicode="&#xf4;" horiz-adv-x="470" 
d="M438 306q0 -80 -30 -152.5t-85.5 -119t-121.5 -46.5q-80 0 -126 46.5t-46 132.5q0 128 74 225.5t170 97.5q78 0 121.5 -50.5t43.5 -133.5zM342 329v18q0 102 -65 102q-47 0 -82.5 -49t-52 -118t-16.5 -144q0 -110 71 -110q35 0 62.5 28.5t44 74.5t26 96t12.5 102z
M393 549v-8h-39l-52 99l-106 -99h-53v8l151 164h48z" />
    <glyph glyph-name="otilde" unicode="&#xf5;" horiz-adv-x="470" 
d="M438 306q0 -80 -30 -152.5t-85.5 -119t-121.5 -46.5q-80 0 -126 46.5t-46 132.5q0 128 74 225.5t170 97.5q78 0 121.5 -50.5t43.5 -133.5zM342 329v18q0 102 -65 102q-47 0 -82.5 -49t-52 -118t-16.5 -144q0 -110 71 -110q35 0 62.5 28.5t44 74.5t26 96t12.5 102z
M404 676l26 -10q-14 -47 -42.5 -82t-54.5 -35q-15 0 -61.5 30t-60.5 30q-8 0 -14 -4t-12.5 -15.5t-10 -18.5t-11.5 -25l-29 12q11 39 41 78.5t48 39.5q19 0 62.5 -30.5t61.5 -30.5q16 0 33 19.5t24 41.5z" />
    <glyph glyph-name="odieresis" unicode="&#xf6;" horiz-adv-x="470" 
d="M438 306q0 -80 -30 -152.5t-85.5 -119t-121.5 -46.5q-80 0 -126 46.5t-46 132.5q0 128 74 225.5t170 97.5q78 0 121.5 -50.5t43.5 -133.5zM342 329v18q0 102 -65 102q-47 0 -82.5 -49t-52 -118t-16.5 -144q0 -110 71 -110q35 0 62.5 28.5t44 74.5t26 96t12.5 102z
M425 612q0 -20 -16.5 -35.5t-35.5 -15.5q-21 0 -37 15.5t-16 35.5q0 21 16 37t37 16q19 0 35.5 -16t16.5 -37zM264 612q0 -20 -15 -35.5t-37 -15.5q-21 0 -37 15.5t-16 35.5q0 21 16 37t37 16t36.5 -16t15.5 -37z" />
    <glyph glyph-name="divide" unicode="&#xf7;" horiz-adv-x="620" 
d="M570 230h-520v60h520v-60zM258 109q0 22 14.5 37t36.5 15t37 -15t15 -37t-15 -36.5t-37 -14.5t-36.5 14.5t-14.5 36.5zM258 411q0 22 14.5 37t36.5 15t37 -15t15 -37t-15 -36.5t-37 -14.5t-36.5 14.5t-14.5 36.5z" />
    <glyph glyph-name="oslash" unicode="&#xf8;" horiz-adv-x="470" 
d="M438 306q0 -80 -30 -152.5t-85.5 -119t-121.5 -46.5q-53 0 -91 20l-31 -45h-53l49 71q-46 46 -46 133q0 128 74 225.5t170 97.5q55 0 95 -28l32 47h53l-53 -77q38 -49 38 -126zM126 138q0 -19 1 -28l205 300q-16 39 -55 39q-47 0 -82.5 -49t-52 -118t-16.5 -144zM342 329
v18l-200 -291q17 -28 55 -28q35 0 62.5 28.5t44 74.5t26 96t12.5 102z" />
    <glyph glyph-name="ugrave" unicode="&#xf9;" horiz-adv-x="565" 
d="M350 157l-7 2q-37 -75 -84 -123t-84 -48q-46 0 -73 33t-27 88q0 46 38 175q34 106 28 138q-5 24 -25 24q-21 0 -39.5 -37.5t-30.5 -97.5l-27 3q32 176 110 176q43 0 65.5 -20t24.5 -56.5t-3 -70t-18 -78.5q-20 -71 -28 -112.5t-6 -75.5t20 -49q45 0 96 86t81 179
q9 33 40 187h94l-77 -367q-15 -73 26 -73q27 0 46.5 34t28.5 94l27 -2q-8 -78 -36.5 -125.5t-80.5 -47.5q-57 0 -76 46t-3 118zM349 549v-8h-44l-114 162v10h92z" />
    <glyph glyph-name="uacute" unicode="&#xfa;" horiz-adv-x="565" 
d="M350 157l-7 2q-37 -75 -84 -123t-84 -48q-46 0 -73 33t-27 88q0 46 38 175q34 106 28 138q-5 24 -25 24q-21 0 -39.5 -37.5t-30.5 -97.5l-27 3q32 176 110 176q43 0 65.5 -20t24.5 -56.5t-3 -70t-18 -78.5q-20 -71 -28 -112.5t-6 -75.5t20 -49q45 0 96 86t81 179
q9 33 40 187h94l-77 -367q-15 -73 26 -73q27 0 46.5 34t28.5 94l27 -2q-8 -78 -36.5 -125.5t-80.5 -47.5q-57 0 -76 46t-3 118zM251 541v8l113 164h90v-10l-149 -162h-54z" />
    <glyph glyph-name="ucircumflex" unicode="&#xfb;" horiz-adv-x="565" 
d="M350 157l-7 2q-37 -75 -84 -123t-84 -48q-46 0 -73 33t-27 88q0 46 38 175q34 106 28 138q-5 24 -25 24q-21 0 -39.5 -37.5t-30.5 -97.5l-27 3q32 176 110 176q43 0 65.5 -20t24.5 -56.5t-3 -70t-18 -78.5q-20 -71 -28 -112.5t-6 -75.5t20 -49q45 0 96 86t81 179
q9 33 40 187h94l-77 -367q-15 -73 26 -73q27 0 46.5 34t28.5 94l27 -2q-8 -78 -36.5 -125.5t-80.5 -47.5q-57 0 -76 46t-3 118zM429 549v-8h-39l-52 99l-106 -99h-53v8l151 164h48z" />
    <glyph glyph-name="udieresis" unicode="&#xfc;" horiz-adv-x="565" 
d="M350 157l-7 2q-37 -75 -84 -123t-84 -48q-46 0 -73 33t-27 88q0 46 38 175q34 106 28 138q-5 24 -25 24q-21 0 -39.5 -37.5t-30.5 -97.5l-27 3q32 176 110 176q43 0 65.5 -20t24.5 -56.5t-3 -70t-18 -78.5q-20 -71 -28 -112.5t-6 -75.5t20 -49q45 0 96 86t81 179
q9 33 40 187h94l-77 -367q-15 -73 26 -73q27 0 46.5 34t28.5 94l27 -2q-8 -78 -36.5 -125.5t-80.5 -47.5q-57 0 -76 46t-3 118zM461 612q0 -20 -16.5 -35.5t-35.5 -15.5q-21 0 -37 15.5t-16 35.5q0 21 16 37t37 16q19 0 35.5 -16t16.5 -37zM300 612q0 -20 -15 -35.5
t-37 -15.5q-21 0 -37 15.5t-16 35.5q0 21 16 37t37 16t36.5 -16t15.5 -37z" />
    <glyph glyph-name="yacute" unicode="&#xfd;" horiz-adv-x="514" 
d="M350 157l-7 2q-37 -75 -84 -123t-84 -48q-152 0 -62 296q1 3 6.5 20.5t8.5 28.5t7.5 29t5.5 30t0 24.5t-7.5 18.5t-17.5 6q-21 0 -39.5 -36t-30.5 -94l-27 3q32 176 110 176q43 0 66 -20t26 -56t-2.5 -70t-17.5 -79q-19 -69 -27 -104t-7.5 -73.5t17.5 -59.5q45 0 96 86
t81 179q9 33 40 187h94l-77 -372q-21 -79 -51 -140t-61.5 -96.5t-68.5 -58t-68 -30.5t-63 -8q-33 0 -59 18t-26 49q0 26 18 43.5t48 17.5q6 -29 21.5 -53t32.5 -34q62 0 112.5 75.5t96.5 265.5zM256 541v8l113 164h90v-10l-149 -162h-54z" />
    <glyph glyph-name="thorn" unicode="&#xfe;" horiz-adv-x="529" 
d="M113 -195l-43 -20h-48l116 575l48 259q6 44 -7.5 62t-61.5 18v31l139 10h45l-24 -110l-70 -302h2q77 162 163 162q58 0 90.5 -38.5t32.5 -111.5q0 -84 -29.5 -164.5t-85 -134t-121.5 -53.5q-69 0 -103 46zM394 359q0 86 -43 86q-37 0 -92.5 -100t-90.5 -254
q10 -27 32 -44.5t53 -17.5q52 0 96.5 88t44.5 242z" />
    <glyph glyph-name="ydieresis" unicode="&#xff;" horiz-adv-x="514" 
d="M350 157l-7 2q-37 -75 -84 -123t-84 -48q-152 0 -62 296q1 3 6.5 20.5t8.5 28.5t7.5 29t5.5 30t0 24.5t-7.5 18.5t-17.5 6q-21 0 -39.5 -36t-30.5 -94l-27 3q32 176 110 176q43 0 66 -20t26 -56t-2.5 -70t-17.5 -79q-19 -69 -27 -104t-7.5 -73.5t17.5 -59.5q45 0 96 86
t81 179q9 33 40 187h94l-77 -372q-21 -79 -51 -140t-61.5 -96.5t-68.5 -58t-68 -30.5t-63 -8q-33 0 -59 18t-26 49q0 26 18 43.5t48 17.5q6 -29 21.5 -53t32.5 -34q62 0 112.5 75.5t96.5 265.5zM466 612q0 -20 -16.5 -35.5t-35.5 -15.5q-21 0 -37 15.5t-16 35.5q0 21 16 37
t37 16q19 0 35.5 -16t16.5 -37zM305 612q0 -20 -15.5 -35.5t-36.5 -15.5t-37 15.5t-16 35.5q0 21 16 37t37 16t36.5 -16t15.5 -37z" />
    <glyph glyph-name="Amacron" unicode="&#x100;" horiz-adv-x="720" 
d="M470 79l-22 125h-247l-70 -123q-5 -12 -5 -20t10.5 -12.5t29.5 -6.5t51 -2l-8 -40h-242l8 40q42 0 66.5 13t45.5 48l350 600h23l113 -607q8 -38 21.5 -46t64.5 -8l-8 -40h-288l8 40h27q53 0 64.5 6t7.5 33zM389 533q-44 -75 -161 -282h211l-49 282h-1zM592 787h-254v58
h254v-58z" />
    <glyph glyph-name="amacron" unicode="&#x101;" horiz-adv-x="535" 
d="M337 182h-13q-89 -194 -177 -194q-53 0 -83 37.5t-30 99.5q0 146 70 255.5t170 109.5q32 0 56.5 -23.5t32.5 -66.5h3l33 80h71l-78 -347q-10 -41 -4 -68t28 -27q56 0 64 129l35 -3q-9 -88 -36 -129.5t-79 -41.5q-126 0 -63 189zM169 46q45 0 96.5 91.5t74.5 208.5
q-14 109 -66 109q-51 0 -96.5 -101t-45.5 -239q0 -69 37 -69zM444 573h-254v58h254v-58z" />
    <glyph glyph-name="Abreve" unicode="&#x102;" horiz-adv-x="720" 
d="M470 79l-22 125h-247l-70 -123q-5 -12 -5 -20t10.5 -12.5t29.5 -6.5t51 -2l-8 -40h-242l8 40q42 0 66.5 13t45.5 48l350 600h23l113 -607q8 -38 21.5 -46t64.5 -8l-8 -40h-288l8 40h27q53 0 64.5 6t7.5 33zM389 533q-44 -75 -161 -282h211l-49 282h-1zM457 745
q-52 0 -76.5 38t-10.5 99h40q-7 -30 7.5 -51.5t46.5 -21.5q33 0 63 20.5t44 52.5h39q-22 -67 -65 -102t-88 -35z" />
    <glyph glyph-name="abreve" unicode="&#x103;" horiz-adv-x="535" 
d="M337 182h-13q-89 -194 -177 -194q-53 0 -83 37.5t-30 99.5q0 146 70 255.5t170 109.5q32 0 56.5 -23.5t32.5 -66.5h3l33 80h71l-78 -347q-10 -41 -4 -68t28 -27q56 0 64 129l35 -3q-9 -88 -36 -129.5t-79 -41.5q-126 0 -63 189zM169 46q45 0 96.5 91.5t74.5 208.5
q-14 109 -66 109q-51 0 -96.5 -101t-45.5 -239q0 -69 37 -69zM314 536q-43 0 -63.5 42t-8.5 110h40q-5 -37 5 -62.5t34 -25.5q29 0 55 25t37 63h39q-20 -73 -59 -112.5t-79 -39.5z" />
    <glyph glyph-name="Aogonek" unicode="&#x104;" horiz-adv-x="720" 
d="M470 79l-22 125h-247l-70 -123q-5 -12 -5 -20t10.5 -12.5t29.5 -6.5t51 -2l-8 -40h-242l8 40q42 0 66.5 13t45.5 48l350 600h23l113 -607q8 -38 21.5 -46t64.5 -8l-8 -40h-240q-60 -42 -60 -102q0 -62 45 -62q6 0 16 2v-32q-18 -5 -34 -5q-39 0 -68 20.5t-29 57.5
q0 68 82 123l8 38h27q53 0 64.5 6t7.5 33zM389 533q-44 -75 -161 -282h211l-49 282h-1z" />
    <glyph glyph-name="aogonek" unicode="&#x105;" horiz-adv-x="535" 
d="M337 182h-13q-89 -194 -177 -194q-53 0 -83 37.5t-30 99.5q0 146 70 255.5t170 109.5q32 0 56.5 -23.5t32.5 -66.5h3l33 80h71l-78 -347q-10 -41 -4 -68t28 -27q56 0 64 129l35 -3q-16 -150 -88 -168q-55 -42 -55 -98q0 -62 45 -62q6 0 16 2v-32q-18 -5 -34 -5
q-39 0 -68 20.5t-29 57.5q0 64 72 117q-94 17 -37 186zM169 46q45 0 96.5 91.5t74.5 208.5q-14 109 -66 109q-51 0 -96.5 -101t-45.5 -239q0 -69 37 -69z" />
    <glyph glyph-name="Cacute" unicode="&#x106;" horiz-adv-x="684" 
d="M624 626l3 1l36 64h36l-51 -261h-42q3 60 -7 108t-42 83t-85 35q-80 0 -148.5 -58.5t-108 -155.5t-39.5 -206q0 -202 169 -202q157 0 241 191h46l-61 -181q-100 -56 -238 -56q-127 0 -198 68.5t-71 189.5q0 93 36 179t93.5 145.5t132 95t150.5 35.5q45 0 85 -20t63 -55z
M432 745v8l101 129h94v-10l-144 -127h-51z" />
    <glyph glyph-name="cacute" unicode="&#x107;" horiz-adv-x="409" 
d="M270 450q-53 0 -93 -73.5t-46 -204.5q-7 -139 66 -139q43 0 83 42.5t60 91.5l31 -17q-32 -66 -81 -114t-109 -48q-158 0 -148 186q7 131 83 223.5t170 92.5q48 0 78 -33.5t27 -83.5q-1 -28 -25 -45.5t-59 -20.5q1 21 0.5 45.5t-3 46.5t-11 36.5t-23.5 14.5zM227 541v8
l113 164h90v-10l-149 -162h-54z" />
    <glyph glyph-name="Ccircumflex" unicode="&#x108;" horiz-adv-x="684" 
d="M624 626l3 1l36 64h36l-51 -261h-42q3 60 -7 108t-42 83t-85 35q-80 0 -148.5 -58.5t-108 -155.5t-39.5 -206q0 -202 169 -202q157 0 241 191h46l-61 -181q-100 -56 -238 -56q-127 0 -198 68.5t-71 189.5q0 93 36 179t93.5 145.5t132 95t150.5 35.5q45 0 85 -20t63 -55z
M637 753v-8h-46l-70 76l-128 -76h-46v8l161 129h48z" />
    <glyph glyph-name="ccircumflex" unicode="&#x109;" horiz-adv-x="409" 
d="M270 450q-53 0 -93 -73.5t-46 -204.5q-7 -139 66 -139q43 0 83 42.5t60 91.5l31 -17q-32 -66 -81 -114t-109 -48q-158 0 -148 186q7 131 83 223.5t170 92.5q48 0 78 -33.5t27 -83.5q-1 -28 -25 -45.5t-59 -20.5q1 21 0.5 45.5t-3 46.5t-11 36.5t-23.5 14.5zM405 549v-8
h-39l-52 99l-106 -99h-53v8l151 164h48z" />
    <glyph glyph-name="Cdotaccent" unicode="&#x10a;" horiz-adv-x="684" 
d="M624 626l3 1l36 64h36l-51 -261h-42q3 60 -7 108t-42 83t-85 35q-80 0 -148.5 -58.5t-108 -155.5t-39.5 -206q0 -202 169 -202q157 0 241 191h46l-61 -181q-100 -56 -238 -56q-127 0 -198 68.5t-71 189.5q0 93 36 179t93.5 145.5t132 95t150.5 35.5q45 0 85 -20t63 -55z
M460 811q0 27 18.5 50.5t45.5 23.5q19 0 32.5 -16t13.5 -39q0 -27 -20 -49t-44 -22q-20 0 -33 15.5t-13 36.5z" />
    <glyph glyph-name="cdotaccent" unicode="&#x10b;" horiz-adv-x="409" 
d="M270 450q-53 0 -93 -73.5t-46 -204.5q-7 -139 66 -139q43 0 83 42.5t60 91.5l31 -17q-32 -66 -81 -114t-109 -48q-158 0 -148 186q7 131 83 223.5t170 92.5q48 0 78 -33.5t27 -83.5q-1 -28 -25 -45.5t-59 -20.5q1 21 0.5 45.5t-3 46.5t-11 36.5t-23.5 14.5zM245 612
q0 27 18.5 50.5t45.5 23.5q19 0 32.5 -16t13.5 -39q0 -27 -20 -49t-44 -22q-20 0 -33 15.5t-13 36.5z" />
    <glyph glyph-name="Ccaron" unicode="&#x10c;" horiz-adv-x="684" 
d="M624 626l3 1l36 64h36l-51 -261h-42q3 60 -7 108t-42 83t-85 35q-80 0 -148.5 -58.5t-108 -155.5t-39.5 -206q0 -202 169 -202q157 0 241 191h46l-61 -181q-100 -56 -238 -56q-127 0 -198 68.5t-71 189.5q0 93 36 179t93.5 145.5t132 95t150.5 35.5q45 0 85 -20t63 -55z
M387 874v8h46l70 -76l128 76h46v-8l-161 -129h-48z" />
    <glyph glyph-name="ccaron" unicode="&#x10d;" horiz-adv-x="409" 
d="M270 450q-53 0 -93 -73.5t-46 -204.5q-7 -139 66 -139q43 0 83 42.5t60 91.5l31 -17q-32 -66 -81 -114t-109 -48q-158 0 -148 186q7 131 83 223.5t170 92.5q48 0 78 -33.5t27 -83.5q-1 -28 -25 -45.5t-59 -20.5q1 21 0.5 45.5t-3 46.5t-11 36.5t-23.5 14.5zM202 705v8h39
l52 -99l106 99h53v-8l-151 -164h-48z" />
    <glyph glyph-name="Dcaron" unicode="&#x10e;" horiz-adv-x="761" 
d="M739 424q0 -190 -125 -307t-322 -117h-312l8 40q70 2 87 6.5t22 27.5l116 547q1 4 1 11q0 13 -17.5 16.5t-78.5 3.5l8 39h310q83 0 144.5 -23t94.5 -62t48.5 -84.5t15.5 -97.5zM194 40h104q71 2 128 27.5t93 65t60 92t34 104t10 105.5q0 102 -53.5 160t-169.5 58h-76z
M328 874v8h46l70 -76l128 76h46v-8l-161 -129h-48z" />
    <glyph glyph-name="dcaron" unicode="&#x10f;" horiz-adv-x="542" 
d="M132 110q0 -69 41 -69t94.5 93.5t77.5 211.5q-21 108 -66 108q-53 0 -100 -102t-47 -242zM336 181l-10 1q-36 -88 -84 -141t-92 -53q-53 0 -84.5 35t-31.5 102q0 150 72.5 257.5t172.5 107.5q30 0 54 -25t30 -64h6q8 44 20.5 123.5t18.5 112.5q6 36 -12 50t-60 14v29
l145 10h40l-38 -170q-29 -126 -87 -472q-5 -27 4.5 -43.5t25.5 -16.5q24 0 42 35.5t21 93.5l34 -3q-4 -80 -35 -125.5t-74 -45.5q-67 0 -84 52.5t6 135.5zM542 527v8l56 199h84v-10l-94 -197h-46z" />
    <glyph glyph-name="Dcroat" unicode="&#x110;" horiz-adv-x="761" 
d="M739 424q0 -190 -125 -307t-322 -117h-312l8 40q70 2 87 6.5t22 27.5l53 252h-90l12 53h89l52 242q1 4 1 11q0 13 -17.5 16.5t-78.5 3.5l8 39h310q83 0 144.5 -23t94.5 -62t48.5 -84.5t15.5 -97.5zM194 40h104q71 2 128 27.5t93 65t60 92t34 104t10 105.5
q0 102 -53.5 160t-169.5 58h-76l-58 -273h187l-12 -53h-186z" />
    <glyph glyph-name="dcroat" unicode="&#x111;" horiz-adv-x="542" 
d="M250 602h152l6 35q6 36 -12 50t-60 14v29l145 10h40l-31 -138h52v-50h-63q-26 -115 -83 -454q-5 -27 4.5 -43.5t25.5 -16.5q24 0 42 35.5t21 93.5l34 -3q-4 -80 -35 -125.5t-74 -45.5q-67 0 -84 52.5t6 135.5l-10 1q-36 -88 -84 -141t-92 -53q-53 0 -84.5 35t-31.5 102
q0 150 72.5 257.5t172.5 107.5q30 0 54 -25t30 -64h6q9 51 25 151h-144v50zM132 110q0 -69 41 -69t94.5 93.5t77.5 211.5q-21 108 -66 108q-53 0 -100 -102t-47 -242z" />
    <glyph glyph-name="Emacron" unicode="&#x112;" horiz-adv-x="661" 
d="M623 247l-65 -247h-578l8 40q68 0 86 4.5t22 24.5l117 552q4 20 -13 25.5t-82 5.5l8 39h548l-35 -217h-39q5 101 -18 139.5t-91 38.5h-167l-62 -291h74q101 0 129 137h35l-66 -312h-35q16 82 0.5 107t-78.5 25h-68l-59 -278h191q71 0 125.5 64t71.5 143h41zM577 787h-254
v58h254v-58z" />
    <glyph glyph-name="emacron" unicode="&#x113;" horiz-adv-x="425" 
d="M403 388q0 -116 -270 -223q-5 -69 22 -100.5t67 -31.5t81.5 42t62.5 88l29 -21q-79 -154 -194 -154q-167 0 -167 188q0 134 75 224t172 90q57 0 89.5 -27t32.5 -75zM316 404q0 48 -46 48q-55 0 -95 -75t-43 -179q97 44 140.5 93.5t43.5 112.5zM418 573h-254v58h254v-58z
" />
    <glyph glyph-name="Edotaccent" unicode="&#x116;" horiz-adv-x="661" 
d="M623 247l-65 -247h-578l8 40q68 0 86 4.5t22 24.5l117 552q4 20 -13 25.5t-82 5.5l8 39h548l-35 -217h-39q5 101 -18 139.5t-91 38.5h-167l-62 -291h74q101 0 129 137h35l-66 -312h-35q16 82 0.5 107t-78.5 25h-68l-59 -278h191q71 0 125.5 64t71.5 143h41zM405 811
q0 27 18.5 50.5t45.5 23.5q19 0 32.5 -16t13.5 -39q0 -27 -20 -49t-44 -22q-20 0 -33 15.5t-13 36.5z" />
    <glyph glyph-name="edotaccent" unicode="&#x117;" horiz-adv-x="425" 
d="M403 388q0 -116 -270 -223q-5 -69 22 -100.5t67 -31.5t81.5 42t62.5 88l29 -21q-79 -154 -194 -154q-167 0 -167 188q0 134 75 224t172 90q57 0 89.5 -27t32.5 -75zM316 404q0 48 -46 48q-55 0 -95 -75t-43 -179q97 44 140.5 93.5t43.5 112.5zM244 612q0 27 18.5 50.5
t45.5 23.5q19 0 32.5 -16t13.5 -39q0 -27 -20 -49t-44 -22q-20 0 -33 15.5t-13 36.5z" />
    <glyph glyph-name="Eogonek" unicode="&#x118;" horiz-adv-x="661" 
d="M623 247l-65 -247h-31q-60 -42 -60 -102q0 -62 45 -62q6 0 16 2v-32q-18 -5 -34 -5q-39 0 -68 20.5t-29 57.5q0 68 79 121h-496l8 40q68 0 86 4.5t22 24.5l117 552q4 20 -13 25.5t-82 5.5l8 39h548l-35 -217h-39q5 101 -18 139.5t-91 38.5h-167l-62 -291h74
q101 0 129 137h35l-66 -312h-35q16 82 0.5 107t-78.5 25h-68l-59 -278h191q71 0 125.5 64t71.5 143h41z" />
    <glyph glyph-name="eogonek" unicode="&#x119;" horiz-adv-x="425" 
d="M403 388q0 -116 -270 -223q-5 -69 22 -100.5t67 -31.5t81.5 42t62.5 88l29 -21q-58 -109 -132 -141q-63 -42 -63 -104t45 -62q6 0 16 2v-32q-18 -5 -34 -5q-39 0 -68 20.5t-29 57.5q0 61 63 110q-159 5 -159 188q0 134 75 224t172 90q57 0 89.5 -27t32.5 -75zM316 404
q0 48 -46 48q-55 0 -95 -75t-43 -179q97 44 140.5 93.5t43.5 112.5z" />
    <glyph glyph-name="Ecaron" unicode="&#x11a;" horiz-adv-x="661" 
d="M623 247l-65 -247h-578l8 40q68 0 86 4.5t22 24.5l117 552q4 20 -13 25.5t-82 5.5l8 39h548l-35 -217h-39q5 101 -18 139.5t-91 38.5h-167l-62 -291h74q101 0 129 137h35l-66 -312h-35q16 82 0.5 107t-78.5 25h-68l-59 -278h191q71 0 125.5 64t71.5 143h41zM332 874v8h46
l70 -76l128 76h46v-8l-161 -129h-48z" />
    <glyph glyph-name="ecaron" unicode="&#x11b;" horiz-adv-x="425" 
d="M403 388q0 -116 -270 -223q-5 -69 22 -100.5t67 -31.5t81.5 42t62.5 88l29 -21q-79 -154 -194 -154q-167 0 -167 188q0 134 75 224t172 90q57 0 89.5 -27t32.5 -75zM316 404q0 48 -46 48q-55 0 -95 -75t-43 -179q97 44 140.5 93.5t43.5 112.5zM201 705v8h39l52 -99
l106 99h53v-8l-151 -164h-48z" />
    <glyph glyph-name="Gcircumflex" unicode="&#x11c;" horiz-adv-x="727" 
d="M630 227l-50 -232h-25l-33 82q-84 -89 -205 -89q-104 0 -178.5 65t-74.5 180q0 108 38 199.5t98 148.5t130.5 88.5t139.5 31.5q102 0 162 -71h7l36 56h34l-47 -242h-36q-1 52 -17 98t-53.5 80t-91.5 34q-82 0 -149 -64t-102 -160t-35 -197q0 -97 41.5 -149.5t118.5 -52.5
q97 0 167 95l21 98q4 24 4 29q0 21 -17 26.5t-70 5.5l7 34h282l-7 -34q-57 0 -71.5 -9t-23.5 -51zM612 753v-8h-46l-70 76l-128 -76h-46v8l161 129h48z" />
    <glyph glyph-name="gcircumflex" unicode="&#x11d;" horiz-adv-x="455" 
d="M246 490q71 0 116 -39l60 36h51l-15 -61h-74q20 -31 20 -70q0 -77 -44 -122t-106 -57q-51 -10 -77.5 -29.5t-45.5 -48.5l41 -13q158 -48 200 -73q51 -31 52 -75q0 -65 -70.5 -114t-177.5 -49q-84 0 -142 28t-58 81q0 73 137 132v11q-42 29 -42 74q23 42 85 76v10
q-45 15 -71 46t-26 73q0 70 55 127t132 57zM342 -92q0 20 -17 35t-59 28l-109 34q-55 -19 -82 -52t-27 -62q0 -42 40.5 -61.5t102.5 -19.5q67 0 109 27.5t42 70.5zM313 342q0 112 -73 112q-42 0 -66 -39.5t-24 -110.5q0 -93 72 -93q37 0 64 33.5t27 97.5zM393 549v-8h-39
l-52 99l-106 -99h-53v8l151 164h48z" />
    <glyph glyph-name="Gbreve" unicode="&#x11e;" horiz-adv-x="727" 
d="M630 227l-50 -232h-25l-33 82q-84 -89 -205 -89q-104 0 -178.5 65t-74.5 180q0 108 38 199.5t98 148.5t130.5 88.5t139.5 31.5q102 0 162 -71h7l36 56h34l-47 -242h-36q-1 52 -17 98t-53.5 80t-91.5 34q-82 0 -149 -64t-102 -160t-35 -197q0 -97 41.5 -149.5t118.5 -52.5
q97 0 167 95l21 98q4 24 4 29q0 21 -17 26.5t-70 5.5l7 34h282l-7 -34q-57 0 -71.5 -9t-23.5 -51zM472 745q-52 0 -76.5 38t-10.5 99h40q-7 -30 7.5 -51.5t46.5 -21.5q33 0 63 20.5t44 52.5h39q-22 -67 -65 -102t-88 -35z" />
    <glyph glyph-name="gbreve" unicode="&#x11f;" horiz-adv-x="455" 
d="M246 490q71 0 116 -39l60 36h51l-15 -61h-74q20 -31 20 -70q0 -77 -44 -122t-106 -57q-51 -10 -77.5 -29.5t-45.5 -48.5l41 -13q158 -48 200 -73q51 -31 52 -75q0 -65 -70.5 -114t-177.5 -49q-84 0 -142 28t-58 81q0 73 137 132v11q-42 29 -42 74q23 42 85 76v10
q-45 15 -71 46t-26 73q0 70 55 127t132 57zM342 -92q0 20 -17 35t-59 28l-109 34q-55 -19 -82 -52t-27 -62q0 -42 40.5 -61.5t102.5 -19.5q67 0 109 27.5t42 70.5zM313 342q0 112 -73 112q-42 0 -66 -39.5t-24 -110.5q0 -93 72 -93q37 0 64 33.5t27 97.5zM277 536
q-43 0 -63.5 42t-8.5 110h40q-5 -37 5 -62.5t34 -25.5q29 0 55 25t37 63h39q-20 -73 -59 -112.5t-79 -39.5z" />
    <glyph glyph-name="Gdotaccent" unicode="&#x120;" horiz-adv-x="727" 
d="M630 227l-50 -232h-25l-33 82q-84 -89 -205 -89q-104 0 -178.5 65t-74.5 180q0 108 38 199.5t98 148.5t130.5 88.5t139.5 31.5q102 0 162 -71h7l36 56h34l-47 -242h-36q-1 52 -17 98t-53.5 80t-91.5 34q-82 0 -149 -64t-102 -160t-35 -197q0 -97 41.5 -149.5t118.5 -52.5
q97 0 167 95l21 98q4 24 4 29q0 21 -17 26.5t-70 5.5l7 34h282l-7 -34q-57 0 -71.5 -9t-23.5 -51zM435 811q0 27 18.5 50.5t45.5 23.5q19 0 32.5 -16t13.5 -39q0 -27 -20 -49t-44 -22q-20 0 -33 15.5t-13 36.5z" />
    <glyph glyph-name="gdotaccent" unicode="&#x121;" horiz-adv-x="455" 
d="M246 490q71 0 116 -39l60 36h51l-15 -61h-74q20 -31 20 -70q0 -77 -44 -122t-106 -57q-51 -10 -77.5 -29.5t-45.5 -48.5l41 -13q158 -48 200 -73q51 -31 52 -75q0 -65 -70.5 -114t-177.5 -49q-84 0 -142 28t-58 81q0 73 137 132v11q-42 29 -42 74q23 42 85 76v10
q-45 15 -71 46t-26 73q0 70 55 127t132 57zM342 -92q0 20 -17 35t-59 28l-109 34q-55 -19 -82 -52t-27 -62q0 -42 40.5 -61.5t102.5 -19.5q67 0 109 27.5t42 70.5zM313 342q0 112 -73 112q-42 0 -66 -39.5t-24 -110.5q0 -93 72 -93q37 0 64 33.5t27 97.5zM233 612
q0 27 18.5 50.5t45.5 23.5q19 0 32.5 -16t13.5 -39q0 -27 -20 -49t-44 -22q-20 0 -33 15.5t-13 36.5z" />
    <glyph glyph-name="Gcommaaccent" unicode="&#x122;" horiz-adv-x="727" 
d="M630 227l-50 -232h-25l-33 82q-84 -89 -205 -89q-104 0 -178.5 65t-74.5 180q0 108 38 199.5t98 148.5t130.5 88.5t139.5 31.5q102 0 162 -71h7l36 56h34l-47 -242h-36q-1 52 -17 98t-53.5 80t-91.5 34q-82 0 -149 -64t-102 -160t-35 -197q0 -97 41.5 -149.5t118.5 -52.5
q97 0 167 95l21 98q4 24 4 29q0 21 -17 26.5t-70 5.5l7 34h282l-7 -34q-57 0 -71.5 -9t-23.5 -51zM271 -80q0 14 11 23t28 9q20 0 36 -19t16 -48q0 -52 -34.5 -90t-91.5 -38v31q31 0 48 18t17 40q0 20 -15 40.5t-15 33.5z" />
    <glyph glyph-name="gcommaaccent" unicode="&#x123;" horiz-adv-x="455" 
d="M246 490q71 0 116 -39l60 36h51l-15 -61h-74q20 -31 20 -70q0 -77 -44 -122t-106 -57q-51 -10 -77.5 -29.5t-45.5 -48.5l41 -13q158 -48 200 -73q51 -31 52 -75q0 -65 -70.5 -114t-177.5 -49q-84 0 -142 28t-58 81q0 73 137 132v11q-42 29 -42 74q23 42 85 76v10
q-45 15 -71 46t-26 73q0 70 55 127t132 57zM342 -92q0 20 -17 35t-59 28l-109 34q-55 -19 -82 -52t-27 -62q0 -42 40.5 -61.5t102.5 -19.5q67 0 109 27.5t42 70.5zM313 342q0 112 -73 112q-42 0 -66 -39.5t-24 -110.5q0 -93 72 -93q37 0 64 33.5t27 97.5zM298 604
q0 -14 -11 -23t-28 -9q-20 0 -36 19t-16 48q0 52 37.5 90t98.5 38v-31q-35 0 -55 -18.5t-20 -39.5q0 -20 15 -40.5t15 -33.5z" />
    <glyph glyph-name="Hbar" unicode="&#x126;" horiz-adv-x="799" 
d="M115 557h85l10 46q6 31 -15.5 40t-76.5 9l8 39h308l-8 -39q-62 0 -83.5 -7.5t-28.5 -41.5l-10 -46h326l10 46q6 33 -11.5 41t-81.5 8l8 39h310l-8 -39q-67 0 -87 -8.5t-27 -40.5l-10 -46h74v-50h-85l-89 -419q-7 -32 10.5 -40t83.5 -8l-8 -40h-310l8 40q70 3 88.5 10
t24.5 38l52 244h-326l-52 -244q-7 -32 10.5 -40t81.5 -8l-8 -40h-308l8 40q63 0 84.5 8t27.5 40l89 419h-74v50zM266 379h326l27 128h-326z" />
    <glyph glyph-name="hbar" unicode="&#x127;" horiz-adv-x="539" 
d="M71 602h81l7 35q8 37 -12 50.5t-70 13.5v29l153 10h41l-33 -138h125v-50h-137v-3l-57 -222l9 -7q33 66 82.5 118t96.5 52q41 0 64 -19.5t28.5 -49t1 -68t-13 -72t-18.5 -67.5q-3 -8 -4 -12q-54 -163 2 -163q25 1 45 34.5t26 90.5l32 -1q-7 -74 -39 -122t-81 -48
q-43 0 -66 16.5t-27.5 50.5t1 70.5t19.5 91.5q13 49 18 72t11 60t1.5 58.5t-18.5 32.5q-44 0 -97.5 -84t-82.5 -171l-34 -172l-30 -18h-65l112 552h-71v50z" />
    <glyph glyph-name="Imacron" unicode="&#x12a;" horiz-adv-x="379" 
d="M440 691l-8 -39q-68 0 -87 -6.5t-24 -33.5l-113 -528q-6 -30 9 -37t85 -7l-8 -40h-309l8 40q69 0 87 7t24 37l113 528q6 28 -10 34t-84 6l8 39h309zM433 787h-254v58h254v-58z" />
    <glyph glyph-name="imacron" unicode="&#x12b;" horiz-adv-x="320" 
d="M231 357l-64 -249q-7 -29 3.5 -50.5t25.5 -19.5q18 3 37.5 35.5t21.5 91.5l36 -1q-14 -91 -41 -131t-78 -40q-55 0 -78 43t-8 102l61 231q5 16 2 45.5t-14 29.5q-49 0 -75 -135l-31 8q12 75 46.5 124t77.5 49q52 0 71.5 -40t6.5 -93zM343 573h-254v58h254v-58z" />
    <glyph glyph-name="Iogonek" unicode="&#x12e;" horiz-adv-x="379" 
d="M440 691l-8 -39q-68 0 -87 -6.5t-24 -33.5l-113 -528q-6 -30 9 -37t85 -7l-8 -40h-31q-60 -42 -60 -102q0 -62 45 -62q6 0 16 2v-32q-18 -5 -34 -5q-39 0 -68 20.5t-29 57.5q0 68 79 121h-227l8 40q69 0 87 7t24 37l113 528q6 28 -10 34t-84 6l8 39h309z" />
    <glyph glyph-name="iogonek" unicode="&#x12f;" horiz-adv-x="320" 
d="M231 357l-64 -249q-7 -29 3.5 -50.5t25.5 -19.5q18 3 37.5 35.5t21.5 91.5l36 -1q-11 -77 -32 -117t-57 -50q-55 -42 -55 -98q0 -62 45 -62q6 0 16 2v-32q-18 -5 -34 -5q-39 0 -68 20.5t-29 57.5q0 64 71 116q-42 9 -58.5 49.5t-3.5 92.5l61 231q5 16 2 45.5t-14 29.5
q-49 0 -75 -135l-31 8q12 75 46.5 124t77.5 49q52 0 71.5 -40t6.5 -93zM166 664q0 29 16.5 48t41.5 19q26 0 43 -19t17 -48q0 -27 -17 -45.5t-43 -18.5q-25 0 -41.5 18.5t-16.5 45.5z" />
    <glyph glyph-name="Idotaccent" unicode="&#x130;" horiz-adv-x="379" 
d="M440 691l-8 -39q-68 0 -87 -6.5t-24 -33.5l-113 -528q-6 -30 9 -37t85 -7l-8 -40h-309l8 40q69 0 87 7t24 37l113 528q6 28 -10 34t-84 6l8 39h309zM261 811q0 27 18.5 50.5t45.5 23.5q19 0 32.5 -16t13.5 -39q0 -27 -20 -49t-44 -22q-20 0 -33 15.5t-13 36.5z" />
    <glyph glyph-name="dotlessi" unicode="&#x131;" horiz-adv-x="320" 
d="M231 357l-64 -249q-7 -29 3.5 -50.5t25.5 -19.5q18 3 37.5 35.5t21.5 91.5l36 -1q-14 -91 -41 -131t-78 -40q-55 0 -78 43t-8 102l61 231q5 16 2 45.5t-14 29.5q-49 0 -75 -135l-31 8q12 75 46.5 124t77.5 49q52 0 71.5 -40t6.5 -93z" />
    <glyph glyph-name="Kcommaaccent" unicode="&#x136;" horiz-adv-x="723" 
d="M588 572l-190 -169l185 -313q17 -29 34.5 -39.5t53.5 -10.5l-8 -40h-279l8 40q18 1 28.5 2t21.5 3t15.5 5t7.5 8t1.5 13t-7.5 18l-139 244l-79 -70l-31 -148q-11 -50 4.5 -62.5t78.5 -12.5l-8 -40h-305l8 40q70 0 88.5 12t29.5 63l99 465q11 50 -6 61t-81 11l8 39h308
l-8 -39q-66 0 -86.5 -11t-30.5 -61l-53 -250h4l284 255q36 28 25.5 48t-52.5 18l8 40h257l-8 -40q-102 -11 -186 -79zM283 -80q0 14 11 23t28 9q20 0 36 -19t16 -48q0 -52 -34.5 -90t-91.5 -38v31q31 0 48 18t17 40q0 20 -15 40.5t-15 33.5z" />
    <glyph glyph-name="kcommaaccent" unicode="&#x137;" horiz-adv-x="513" 
d="M126 24l-41 -24h-49l119 626q8 42 -5.5 62t-62.5 17v26l112 9h69l-42 -183l-47 -250h7q40 72 96 127.5t114 55.5q42 0 64.5 -22.5t22.5 -56.5q0 -25 -12.5 -48t-30.5 -39t-47.5 -33t-53 -27.5t-57.5 -24.5q-4 -1 -6 -2l-5 -2.5t-6 -2.5v-4q21 -10 42 -39t34.5 -57.5
t29 -51t29.5 -22.5q33 0 64 90l31 -4q-47 -151 -120 -151q-37 0 -64 27.5t-40.5 62t-34.5 70.5t-46 49l18 40q188 76 188 165q0 38 -30 38q-33 0 -94 -75t-116 -187zM166 -83q0 14 11 23t28 9q20 0 36 -19t16 -48q0 -52 -34.5 -90t-91.5 -38v31q31 0 48 18t17 40
q0 20 -15 40.5t-15 33.5z" />
    <glyph glyph-name="Lacute" unicode="&#x139;" horiz-adv-x="602" 
d="M575 242l-64 -242h-531l8 40q62 0 83.5 7.5t27.5 36.5l113 529q5 25 -11.5 32t-82.5 7l8 39h319l-8 -39q-79 0 -97.5 -6t-23.5 -32l-122 -574h132q74 0 128 53.5t74 148.5h47zM219 745v8l101 129h94v-10l-144 -127h-51z" />
    <glyph glyph-name="lacute" unicode="&#x13a;" horiz-adv-x="289" 
d="M283 740l-147 -651q-5 -22 1.5 -36t19.5 -14q12 0 21.5 4t21 15.5t20 39t13.5 69.5l35 -4q-12 -82 -41 -126t-89 -44q-55 0 -74 36.5t-1 115.5l107 492q6 37 -11.5 50.5t-59.5 13.5v29l149 10h35zM158 822v8l101 129h94v-10l-144 -127h-51z" />
    <glyph glyph-name="Lcommaaccent" unicode="&#x13b;" horiz-adv-x="602" 
d="M575 242l-64 -242h-531l8 40q62 0 83.5 7.5t27.5 36.5l113 529q5 25 -11.5 32t-82.5 7l8 39h319l-8 -39q-79 0 -97.5 -6t-23.5 -32l-122 -574h132q74 0 128 53.5t74 148.5h47zM223 -80q0 14 11 23t28 9q20 0 36 -19t16 -48q0 -52 -34.5 -90t-91.5 -38v31q31 0 48 18
t17 40q0 20 -15 40.5t-15 33.5z" />
    <glyph glyph-name="lcommaaccent" unicode="&#x13c;" horiz-adv-x="289" 
d="M283 740l-147 -651q-5 -22 1.5 -36t19.5 -14q12 0 21.5 4t21 15.5t20 39t13.5 69.5l35 -4q-12 -82 -41 -126t-89 -44q-55 0 -74 36.5t-1 115.5l107 492q6 37 -11.5 50.5t-59.5 13.5v29l149 10h35zM88 -83q0 14 11 23t28 9q20 0 36 -19t16 -48q0 -52 -34.5 -90t-91.5 -38
v31q31 0 48 18t17 40q0 20 -15 40.5t-15 33.5z" />
    <glyph glyph-name="Lcaron" unicode="&#x13d;" horiz-adv-x="602" 
d="M575 242l-64 -242h-531l8 40q62 0 83.5 7.5t27.5 36.5l113 529q5 25 -11.5 32t-82.5 7l8 39h319l-8 -39q-79 0 -97.5 -6t-23.5 -32l-122 -574h132q74 0 128 53.5t74 148.5h47zM529 481v8l56 199h84v-10l-94 -197h-46z" />
    <glyph glyph-name="lcaron" unicode="&#x13e;" horiz-adv-x="382" 
d="M283 740l-147 -651q-5 -22 1.5 -36t19.5 -14q12 0 21.5 4t21 15.5t20 39t13.5 69.5l35 -4q-12 -82 -41 -126t-89 -44q-55 0 -74 36.5t-1 115.5l107 492q6 37 -11.5 50.5t-59.5 13.5v29l149 10h35zM300 533v8l56 199h84v-10l-94 -197h-46z" />
    <glyph glyph-name="Ldot" unicode="&#x13f;" horiz-adv-x="602" 
d="M575 242l-64 -242h-531l8 40q62 0 83.5 7.5t27.5 36.5l113 529q5 25 -11.5 32t-82.5 7l8 39h319l-8 -39q-79 0 -97.5 -6t-23.5 -32l-122 -574h132q74 0 128 53.5t74 148.5h47zM489 372q0 27 18.5 46t45.5 19t46 -19t19 -46t-19 -45.5t-46 -18.5t-45.5 18.5t-18.5 45.5z
" />
    <glyph glyph-name="ldot" unicode="&#x140;" horiz-adv-x="419" 
d="M283 740l-147 -651q-5 -22 1.5 -36t19.5 -14q12 0 21.5 4t21 15.5t20 39t13.5 69.5l35 -4q-12 -82 -41 -126t-89 -44q-55 0 -74 36.5t-1 115.5l107 492q6 37 -11.5 50.5t-59.5 13.5v29l149 10h35zM263 280q0 27 18.5 46t45.5 19t46 -19t19 -46t-19 -45.5t-46 -18.5
t-45.5 18.5t-18.5 45.5z" />
    <glyph glyph-name="Lslash" unicode="&#x141;" horiz-adv-x="602" 
d="M575 242l-64 -242h-531l8 40q62 0 83.5 7.5t27.5 36.5l40 187l-85 -37l12 58l85 37l61 284q5 25 -11.5 32t-82.5 7l8 39h319l-8 -39q-79 0 -97.5 -6t-23.5 -32l-50 -234l190 83l-12 -58l-190 -83l-60 -282h132q74 0 128 53.5t74 148.5h47z" />
    <glyph glyph-name="lslash" unicode="&#x142;" horiz-adv-x="289" 
d="M283 740l-69 -307l72 59l27 -36l-115 -94l-62 -273q-5 -22 1.5 -36t19.5 -14q12 0 21.5 4t21 15.5t20 39t13.5 69.5l35 -4q-12 -82 -41 -126t-89 -44q-55 0 -74 36.5t-1 115.5l28 131l-52 -42l-27 36l95 77l63 290q6 37 -11.5 50.5t-59.5 13.5v29l149 10h35z" />
    <glyph glyph-name="Nacute" unicode="&#x143;" horiz-adv-x="752" 
d="M240 553h-4l-98 -461q-7 -33 18 -42.5t90 -9.5l-8 -40h-261l8 40q50 0 74.5 10t31.5 42l108 509q-15 26 -34.5 38.5t-54.5 12.5l8 39h158l301 -529h4l92 441q5 25 -22 37t-89 12l8 39h254l-8 -39q-51 0 -71 -11.5t-26 -37.5l-131 -613h-30zM399 745v8l101 129h94v-10
l-144 -127h-51z" />
    <glyph glyph-name="nacute" unicode="&#x144;" horiz-adv-x="572" 
d="M160 22l-43 -22h-54l76 369q14 76 -19 76q-19 0 -40 -36t-31 -101l-30 3q26 179 118 179q34 0 52.5 -18.5t21 -50t-3 -65.5t-18.5 -73h9q37 82 90 144.5t101 62.5q45 0 68 -24.5t24 -68.5t-6.5 -88.5t-24.5 -100.5q-52 -175 1 -175q26 0 47.5 44.5t22.5 88.5l32 -2
q-5 -68 -33.5 -119.5t-83.5 -51.5q-141 0 -82 206q13 44 19.5 71.5t14 67.5t4 67t-16.5 40q-32 0 -70 -46t-65.5 -102.5t-46.5 -111.5zM265 541v8l113 164h90v-10l-149 -162h-54z" />
    <glyph glyph-name="Ncommaaccent" unicode="&#x145;" horiz-adv-x="752" 
d="M240 553h-4l-98 -461q-7 -33 18 -42.5t90 -9.5l-8 -40h-261l8 40q50 0 74.5 10t31.5 42l108 509q-15 26 -34.5 38.5t-54.5 12.5l8 39h158l301 -529h4l92 441q5 25 -22 37t-89 12l8 39h254l-8 -39q-51 0 -71 -11.5t-26 -37.5l-131 -613h-30zM300 -80q0 14 11 23t28 9
q20 0 36 -19t16 -48q0 -52 -34.5 -90t-91.5 -38v31q31 0 48 18t17 40q0 20 -15 40.5t-15 33.5z" />
    <glyph glyph-name="ncommaaccent" unicode="&#x146;" horiz-adv-x="572" 
d="M160 22l-43 -22h-54l76 369q14 76 -19 76q-19 0 -40 -36t-31 -101l-30 3q26 179 118 179q34 0 52.5 -18.5t21 -50t-3 -65.5t-18.5 -73h9q37 82 90 144.5t101 62.5q45 0 68 -24.5t24 -68.5t-6.5 -88.5t-24.5 -100.5q-52 -175 1 -175q26 0 47.5 44.5t22.5 88.5l32 -2
q-5 -68 -33.5 -119.5t-83.5 -51.5q-141 0 -82 206q13 44 19.5 71.5t14 67.5t4 67t-16.5 40q-32 0 -70 -46t-65.5 -102.5t-46.5 -111.5zM217 -83q0 14 11 23t28 9q20 0 36 -19t16 -48q0 -52 -34.5 -90t-91.5 -38v31q31 0 48 18t17 40q0 20 -15 40.5t-15 33.5z" />
    <glyph glyph-name="Ncaron" unicode="&#x147;" horiz-adv-x="752" 
d="M240 553h-4l-98 -461q-7 -33 18 -42.5t90 -9.5l-8 -40h-261l8 40q50 0 74.5 10t31.5 42l108 509q-15 26 -34.5 38.5t-54.5 12.5l8 39h158l301 -529h4l92 441q5 25 -22 37t-89 12l8 39h254l-8 -39q-51 0 -71 -11.5t-26 -37.5l-131 -613h-30zM354 874v8h46l70 -76l128 76
h46v-8l-161 -129h-48z" />
    <glyph glyph-name="ncaron" unicode="&#x148;" horiz-adv-x="572" 
d="M160 22l-43 -22h-54l76 369q14 76 -19 76q-19 0 -40 -36t-31 -101l-30 3q26 179 118 179q34 0 52.5 -18.5t21 -50t-3 -65.5t-18.5 -73h9q37 82 90 144.5t101 62.5q45 0 68 -24.5t24 -68.5t-6.5 -88.5t-24.5 -100.5q-52 -175 1 -175q26 0 47.5 44.5t22.5 88.5l32 -2
q-5 -68 -33.5 -119.5t-83.5 -51.5q-141 0 -82 206q13 44 19.5 71.5t14 67.5t4 67t-16.5 40q-32 0 -70 -46t-65.5 -102.5t-46.5 -111.5zM240 705v8h39l52 -99l106 99h53v-8l-151 -164h-48z" />
    <glyph glyph-name="Omacron" unicode="&#x14c;" horiz-adv-x="751" 
d="M729 432q0 -97 -38 -182.5t-97.5 -141.5t-131 -88t-140.5 -32q-116 0 -187 73t-71 194q0 96 36 180.5t94.5 142t132 90.5t147.5 33q112 0 183.5 -74t71.5 -195zM332 34q70 0 127.5 43t91 109.5t51 139t17.5 140.5q0 92 -40.5 141t-114.5 49q-84 0 -151.5 -62
t-102.5 -158.5t-35 -203.5q0 -198 157 -198zM630 787h-254v58h254v-58z" />
    <glyph glyph-name="omacron" unicode="&#x14d;" horiz-adv-x="470" 
d="M438 306q0 -80 -30 -152.5t-85.5 -119t-121.5 -46.5q-80 0 -126 46.5t-46 132.5q0 128 74 225.5t170 97.5q78 0 121.5 -50.5t43.5 -133.5zM342 329v18q0 102 -65 102q-47 0 -82.5 -49t-52 -118t-16.5 -144q0 -110 71 -110q35 0 62.5 28.5t44 74.5t26 96t12.5 102z
M407 573h-254v58h254v-58z" />
    <glyph glyph-name="Ohungarumlaut" unicode="&#x150;" horiz-adv-x="751" 
d="M729 432q0 -97 -38 -182.5t-97.5 -141.5t-131 -88t-140.5 -32q-116 0 -187 73t-71 194q0 96 36 180.5t94.5 142t132 90.5t147.5 33q112 0 183.5 -74t71.5 -195zM332 34q70 0 127.5 43t91 109.5t51 139t17.5 140.5q0 92 -40.5 141t-114.5 49q-84 0 -151.5 -62
t-102.5 -158.5t-35 -203.5q0 -198 157 -198zM520 745v8l106 129h89v-10l-149 -127h-46zM380 745v8l106 129h89v-10l-149 -127h-46z" />
    <glyph glyph-name="ohungarumlaut" unicode="&#x151;" horiz-adv-x="470" 
d="M438 306q0 -80 -30 -152.5t-85.5 -119t-121.5 -46.5q-80 0 -126 46.5t-46 132.5q0 128 74 225.5t170 97.5q78 0 121.5 -50.5t43.5 -133.5zM342 329v18q0 102 -65 102q-47 0 -82.5 -49t-52 -118t-16.5 -144q0 -110 71 -110q35 0 62.5 28.5t44 74.5t26 96t12.5 102z
M297 541v8l106 164h89v-10l-154 -162h-41zM157 541v8l106 164h89v-10l-154 -162h-41z" />
    <glyph glyph-name="OE" unicode="&#x152;" horiz-adv-x="972" 
d="M934 247l-65 -247h-462q-43 -12 -85 -12q-116 0 -187 73t-71 194q0 96 36 180.5t94.5 142t132 90.5t147.5 33q36 0 76 -10h435l-35 -217h-39q5 101 -18 139.5t-91 38.5h-167l-62 -291h74q101 0 129 137h35l-66 -312h-35q16 82 0.5 107t-78.5 25h-68l-59 -278h191
q71 0 125.5 64t71.5 143h41zM332 34q38 0 69 12l127 598q-29 12 -64 12q-84 0 -151.5 -62t-102.5 -158.5t-35 -203.5q0 -198 157 -198z" />
    <glyph glyph-name="oe" unicode="&#x153;" horiz-adv-x="718" 
d="M696 388q0 -116 -270 -223q-5 -69 22 -100.5t67 -31.5t81.5 42t62.5 88l29 -21q-79 -154 -194 -154q-101 0 -141 69q-57 -69 -143 -69q-84 0 -132.5 51t-48.5 146q0 123 67 214t160 91q104 0 149 -86q73 86 169 86q57 0 89.5 -27t32.5 -75zM333 329q0 120 -71 120
q-45 0 -76.5 -44.5t-45 -107.5t-13.5 -136q0 -71 19.5 -102t57.5 -31q35 0 61 28.5t40 74.5t21 96t7 102zM609 404q0 48 -46 48q-55 0 -95 -75t-43 -179q97 44 140.5 93.5t43.5 112.5z" />
    <glyph glyph-name="Racute" unicode="&#x154;" horiz-adv-x="683" 
d="M266 377h89q69 0 120.5 48.5t51.5 121.5q0 56 -30 80.5t-93 24.5h-80zM439 159q25 100 -9.5 138.5t-116.5 38.5h-56l-53 -248q-7 -32 10.5 -40t85.5 -8l-8 -40h-312l8 40q29 1 43 2t29 3t21 7.5t11 13.5t8 22l112 528q5 24 -12 30t-82 6l8 39h319q186 0 188 -145
q0 -77 -63.5 -129t-136.5 -61l-2 -8q29 -5 48.5 -12t37.5 -20.5t24.5 -34.5t9 -53.5t-8.5 -76.5q-13 -55 -11 -82.5t25 -27.5q20 0 41 32t25 92l30 -1q-10 -96 -40.5 -133.5t-78.5 -37.5q-59 0 -86 46t-8 120zM356 745v8l101 129h94v-10l-144 -127h-51z" />
    <glyph glyph-name="racute" unicode="&#x155;" horiz-adv-x="424" 
d="M168 23l-35 -23h-63l68 364q4 26 4 43.5t-3.5 27t-10.5 9.5q-22 0 -45 -39t-32 -95l-31 7q9 74 41.5 123.5t92.5 49.5q22 0 36 -9t19 -26t6 -35.5t-4.5 -45.5t-11 -47t-13.5 -48l20 -2q29 107 64 160t81 53q32 0 52.5 -21.5t20.5 -57.5t-23 -58.5t-65 -22.5
q13 110 -13 110q-30 0 -71.5 -110.5t-83.5 -306.5zM204 541v8l113 164h90v-10l-149 -162h-54z" />
    <glyph glyph-name="Rcaron" unicode="&#x158;" horiz-adv-x="683" 
d="M266 377h89q69 0 120.5 48.5t51.5 121.5q0 56 -30 80.5t-93 24.5h-80zM439 159q25 100 -9.5 138.5t-116.5 38.5h-56l-53 -248q-7 -32 10.5 -40t85.5 -8l-8 -40h-312l8 40q29 1 43 2t29 3t21 7.5t11 13.5t8 22l112 528q5 24 -12 30t-82 6l8 39h319q186 0 188 -145
q0 -77 -63.5 -129t-136.5 -61l-2 -8q29 -5 48.5 -12t37.5 -20.5t24.5 -34.5t9 -53.5t-8.5 -76.5q-13 -55 -11 -82.5t25 -27.5q20 0 41 32t25 92l30 -1q-10 -96 -40.5 -133.5t-78.5 -37.5q-59 0 -86 46t-8 120zM311 874v8h46l70 -76l128 76h46v-8l-161 -129h-48z" />
    <glyph glyph-name="rcaron" unicode="&#x159;" horiz-adv-x="424" 
d="M168 23l-35 -23h-63l68 364q4 26 4 43.5t-3.5 27t-10.5 9.5q-22 0 -45 -39t-32 -95l-31 7q9 74 41.5 123.5t92.5 49.5q22 0 36 -9t19 -26t6 -35.5t-4.5 -45.5t-11 -47t-13.5 -48l20 -2q29 107 64 160t81 53q32 0 52.5 -21.5t20.5 -57.5t-23 -58.5t-65 -22.5
q13 110 -13 110q-30 0 -71.5 -110.5t-83.5 -306.5zM179 705v8h39l52 -99l106 99h53v-8l-151 -164h-48z" />
    <glyph glyph-name="Sacute" unicode="&#x15a;" horiz-adv-x="586" 
d="M87 59l-27 -59h-44l52 278h39v-23q0 -115 40 -169.5t131 -54.5q81 0 125.5 41t44.5 92q0 50 -37.5 81.5t-144.5 68.5q-79 28 -117 69t-38 103q0 94 73.5 154.5t165.5 60.5q94 0 166 -64l2 2l-2 -1l32 57h39l-53 -258h-36q-6 116 -44 169t-112 53q-61 0 -101.5 -39.5
t-40.5 -84.5q0 -49 40 -82t134 -65q85 -30 122.5 -72t37.5 -102q0 -93 -77 -159.5t-186 -66.5q-67 0 -114 22t-70 49zM308 745v8l101 129h94v-10l-144 -127h-51z" />
    <glyph glyph-name="sacute" unicode="&#x15b;" horiz-adv-x="385" 
d="M91 144q-2 -59 12 -89t53 -30q33 0 55.5 24.5t22.5 56.5q0 33 -23 63t-50.5 50.5t-50.5 55t-23 76.5q0 56 45.5 97.5t115.5 41.5q49 0 85.5 -27t36.5 -65q0 -32 -18 -50t-50 -18q0 124 -59 124q-30 0 -50.5 -21t-20.5 -57q0 -33 23 -62.5t50.5 -49.5t50.5 -53.5t23 -73.5
q0 -64 -51 -106.5t-125 -42.5q-54 0 -89.5 22.5t-35.5 57.5q0 33 21 54.5t52 21.5zM211 541v8l113 164h90v-10l-149 -162h-54z" />
    <glyph glyph-name="Scircumflex" unicode="&#x15c;" horiz-adv-x="586" 
d="M87 59l-27 -59h-44l52 278h39v-23q0 -115 40 -169.5t131 -54.5q81 0 125.5 41t44.5 92q0 50 -37.5 81.5t-144.5 68.5q-79 28 -117 69t-38 103q0 94 73.5 154.5t165.5 60.5q94 0 166 -64l2 2l-2 -1l32 57h39l-53 -258h-36q-6 116 -44 169t-112 53q-61 0 -101.5 -39.5
t-40.5 -84.5q0 -49 40 -82t134 -65q85 -30 122.5 -72t37.5 -102q0 -93 -77 -159.5t-186 -66.5q-67 0 -114 22t-70 49zM513 753v-8h-46l-70 76l-128 -76h-46v8l161 129h48z" />
    <glyph glyph-name="scircumflex" unicode="&#x15d;" horiz-adv-x="385" 
d="M91 144q-2 -59 12 -89t53 -30q33 0 55.5 24.5t22.5 56.5q0 33 -23 63t-50.5 50.5t-50.5 55t-23 76.5q0 56 45.5 97.5t115.5 41.5q49 0 85.5 -27t36.5 -65q0 -32 -18 -50t-50 -18q0 124 -59 124q-30 0 -50.5 -21t-20.5 -57q0 -33 23 -62.5t50.5 -49.5t50.5 -53.5t23 -73.5
q0 -64 -51 -106.5t-125 -42.5q-54 0 -89.5 22.5t-35.5 57.5q0 33 21 54.5t52 21.5zM389 549v-8h-39l-52 99l-106 -99h-53v8l151 164h48z" />
    <glyph glyph-name="Scedilla" unicode="&#x15e;" horiz-adv-x="586" 
d="M198 -216l-8 25q39 6 63 22.5t24 39.5q0 21 -14.5 31.5t-36.5 10.5q-16 0 -30 -2l-5 7l47 72q-55 5 -93.5 25.5t-57.5 43.5l-27 -59h-44l52 278h39v-23q0 -115 40 -169.5t131 -54.5q81 0 125.5 41t44.5 92q0 50 -37.5 81.5t-144.5 68.5q-79 28 -117 69t-38 103
q0 94 73.5 154.5t165.5 60.5q94 0 166 -64l2 2l-2 -1l32 57h39l-53 -258h-36q-6 116 -44 169t-112 53q-61 0 -101.5 -39.5t-40.5 -84.5q0 -49 40 -82t134 -65q85 -30 122.5 -72t37.5 -102q0 -91 -74 -156.5t-179 -69.5l-20 -30q34 0 57 -18t23 -54q0 -38 -42 -66t-101 -36z
" />
    <glyph glyph-name="scedilla" unicode="&#x15f;" horiz-adv-x="385" 
d="M76 -219l-8 25q39 6 63 22.5t24 39.5q0 21 -14.5 31.5t-36.5 10.5q-16 0 -30 -2l-5 7l49 75q-45 5 -72.5 26t-27.5 52q0 33 21 54.5t52 21.5q-2 -58 11 -88t50 -31h7q32 1 53.5 25.5t21.5 55.5q0 33 -23 63t-50.5 50.5t-50.5 55t-23 76.5q0 56 45.5 97.5t115.5 41.5
q49 0 85.5 -27t36.5 -65q0 -32 -18 -50t-50 -18q0 124 -59 124q-30 0 -50.5 -21t-20.5 -57q0 -33 23 -62.5t50.5 -49.5t50.5 -53.5t23 -73.5q0 -60 -45 -101t-112 -47l-23 -34q34 0 57 -18t23 -54q0 -38 -42 -66t-101 -36z" />
    <glyph glyph-name="Scaron" unicode="&#x160;" horiz-adv-x="586" 
d="M87 59l-27 -59h-44l52 278h39v-23q0 -115 40 -169.5t131 -54.5q81 0 125.5 41t44.5 92q0 50 -37.5 81.5t-144.5 68.5q-79 28 -117 69t-38 103q0 94 73.5 154.5t165.5 60.5q94 0 166 -64l2 2l-2 -1l32 57h39l-53 -258h-36q-6 116 -44 169t-112 53q-61 0 -101.5 -39.5
t-40.5 -84.5q0 -49 40 -82t134 -65q85 -30 122.5 -72t37.5 -102q0 -93 -77 -159.5t-186 -66.5q-67 0 -114 22t-70 49zM263 874v8h46l70 -76l128 76h46v-8l-161 -129h-48z" />
    <glyph glyph-name="scaron" unicode="&#x161;" horiz-adv-x="385" 
d="M91 144q-2 -59 12 -89t53 -30q33 0 55.5 24.5t22.5 56.5q0 33 -23 63t-50.5 50.5t-50.5 55t-23 76.5q0 56 45.5 97.5t115.5 41.5q49 0 85.5 -27t36.5 -65q0 -32 -18 -50t-50 -18q0 124 -59 124q-30 0 -50.5 -21t-20.5 -57q0 -33 23 -62.5t50.5 -49.5t50.5 -53.5t23 -73.5
q0 -64 -51 -106.5t-125 -42.5q-54 0 -89.5 22.5t-35.5 57.5q0 33 21 54.5t52 21.5zM186 705v8h39l52 -99l106 99h53v-8l-151 -164h-48z" />
    <glyph glyph-name="Tcommaaccent" unicode="&#x162;" horiz-adv-x="644" 
d="M659 440h-38q21 98 -5.5 155t-96.5 57h-56l-122 -573q-6 -26 11 -32.5t62 -6.5h21l-8 -40h-310l8 40h14q24 0 34.5 0.5t27 4t24.5 12t11 22.5l122 573h-40q-69 0 -128 -58t-79 -154h-40l53 251h588zM218 -80q0 14 11 23t28 9q20 0 36 -19t16 -48q0 -52 -34.5 -90
t-91.5 -38v31q31 0 48 18t17 40q0 20 -15 40.5t-15 33.5z" />
    <glyph glyph-name="Tcommaaccent" unicode="&#x21a;" horiz-adv-x="644" 
d="M659 440h-38q21 98 -5.5 155t-96.5 57h-56l-122 -573q-6 -26 11 -32.5t62 -6.5h21l-8 -40h-310l8 40h14q24 0 34.5 0.5t27 4t24.5 12t11 22.5l122 573h-40q-69 0 -128 -58t-79 -154h-40l53 251h588zM218 -80q0 14 11 23t28 9q20 0 36 -19t16 -48q0 -52 -34.5 -90
t-91.5 -38v31q31 0 48 18t17 40q0 20 -15 40.5t-15 33.5z" />
    <glyph glyph-name="tcommaaccent" unicode="&#x163;" horiz-adv-x="336" 
d="M164 582l55 62h50l-42 -181h123l-8 -48h-126l-68 -292q-19 -85 24 -85q25 0 47.5 36t27.5 96l40 -1q-26 -176 -131 -176q-59 0 -83.5 38t-8.5 113l62 271h-74l7 48h78zM94 -83q0 14 11 23t28 9q20 0 36 -19t16 -48q0 -52 -34.5 -90t-91.5 -38v31q31 0 48 18t17 40
q0 20 -15 40.5t-15 33.5z" />
    <glyph glyph-name="tcommaaccent" unicode="&#x21b;" horiz-adv-x="336" 
d="M164 582l55 62h50l-42 -181h123l-8 -48h-126l-68 -292q-19 -85 24 -85q25 0 47.5 36t27.5 96l40 -1q-26 -176 -131 -176q-59 0 -83.5 38t-8.5 113l62 271h-74l7 48h78zM94 -83q0 14 11 23t28 9q20 0 36 -19t16 -48q0 -52 -34.5 -90t-91.5 -38v31q31 0 48 18t17 40
q0 20 -15 40.5t-15 33.5z" />
    <glyph glyph-name="Tcaron" unicode="&#x164;" horiz-adv-x="644" 
d="M659 440h-38q21 98 -5.5 155t-96.5 57h-56l-122 -573q-6 -26 11 -32.5t62 -6.5h21l-8 -40h-310l8 40h14q24 0 34.5 0.5t27 4t24.5 12t11 22.5l122 573h-40q-69 0 -128 -58t-79 -154h-40l53 251h588zM326 874v8h46l70 -76l128 76h46v-8l-161 -129h-48z" />
    <glyph glyph-name="tcaron" unicode="&#x165;" horiz-adv-x="336" 
d="M164 582l55 62h50l-42 -181h123l-8 -48h-126l-68 -292q-19 -85 24 -85q25 0 47.5 36t27.5 96l40 -1q-26 -176 -131 -176q-59 0 -83.5 38t-8.5 113l62 271h-74l7 48h78zM323 571v8l56 199h84v-10l-94 -197h-46z" />
    <glyph glyph-name="Umacron" unicode="&#x16a;" horiz-adv-x="747" 
d="M817 654l-3 -2q-52 0 -75.5 -10t-28.5 -33l-69 -328q-31 -145 -105 -219t-213 -74q-258 0 -207 237l82 387q5 27 -8.5 33.5t-77.5 6.5l8 39h296l-8 -39q-65 0 -82.5 -6.5t-22.5 -33.5l-82 -387q-21 -96 15 -144.5t111 -48.5q60 0 104.5 20.5t71 59.5t41.5 77.5t26 91.5
l69 328q5 23 -19 33t-89 10l8 39h265zM639 787h-254v58h254v-58z" />
    <glyph glyph-name="umacron" unicode="&#x16b;" horiz-adv-x="565" 
d="M350 157l-7 2q-37 -75 -84 -123t-84 -48q-46 0 -73 33t-27 88q0 46 38 175q34 106 28 138q-5 24 -25 24q-21 0 -39.5 -37.5t-30.5 -97.5l-27 3q32 176 110 176q43 0 65.5 -20t24.5 -56.5t-3 -70t-18 -78.5q-20 -71 -28 -112.5t-6 -75.5t20 -49q45 0 96 86t81 179
q9 33 40 187h94l-77 -367q-15 -73 26 -73q27 0 46.5 34t28.5 94l27 -2q-8 -78 -36.5 -125.5t-80.5 -47.5q-57 0 -76 46t-3 118zM443 573h-254v58h254v-58z" />
    <glyph glyph-name="Ubreve" unicode="&#x16c;" horiz-adv-x="747" 
d="M817 654l-3 -2q-52 0 -75.5 -10t-28.5 -33l-69 -328q-31 -145 -105 -219t-213 -74q-258 0 -207 237l82 387q5 27 -8.5 33.5t-77.5 6.5l8 39h296l-8 -39q-65 0 -82.5 -6.5t-22.5 -33.5l-82 -387q-21 -96 15 -144.5t111 -48.5q60 0 104.5 20.5t71 59.5t41.5 77.5t26 91.5
l69 328q5 23 -19 33t-89 10l8 39h265zM504 745q-52 0 -76.5 38t-10.5 99h40q-7 -30 7.5 -51.5t46.5 -21.5q33 0 63 20.5t44 52.5h39q-22 -67 -65 -102t-88 -35z" />
    <glyph glyph-name="ubreve" unicode="&#x16d;" horiz-adv-x="565" 
d="M350 157l-7 2q-37 -75 -84 -123t-84 -48q-46 0 -73 33t-27 88q0 46 38 175q34 106 28 138q-5 24 -25 24q-21 0 -39.5 -37.5t-30.5 -97.5l-27 3q32 176 110 176q43 0 65.5 -20t24.5 -56.5t-3 -70t-18 -78.5q-20 -71 -28 -112.5t-6 -75.5t20 -49q45 0 96 86t81 179
q9 33 40 187h94l-77 -367q-15 -73 26 -73q27 0 46.5 34t28.5 94l27 -2q-8 -78 -36.5 -125.5t-80.5 -47.5q-57 0 -76 46t-3 118zM313 536q-43 0 -63.5 42t-8.5 110h40q-5 -37 5 -62.5t34 -25.5q29 0 55 25t37 63h39q-20 -73 -59 -112.5t-79 -39.5z" />
    <glyph glyph-name="Uring" unicode="&#x16e;" horiz-adv-x="747" 
d="M817 654l-3 -2q-52 0 -75.5 -10t-28.5 -33l-69 -328q-31 -145 -105 -219t-213 -74q-258 0 -207 237l82 387q5 27 -8.5 33.5t-77.5 6.5l8 39h296l-8 -39q-65 0 -82.5 -6.5t-22.5 -33.5l-82 -387q-21 -96 15 -144.5t111 -48.5q60 0 104.5 20.5t71 59.5t41.5 77.5t26 91.5
l69 328q5 23 -19 33t-89 10l8 39h265zM425 829q0 39 27.5 66.5t66.5 27.5t66.5 -27.5t27.5 -66.5t-27.5 -66.5t-66.5 -27.5t-66.5 27.5t-27.5 66.5zM471 829q0 -22 13 -36.5t34 -14.5t34.5 14.5t13.5 36.5t-13.5 37.5t-34.5 15.5t-34 -15.5t-13 -37.5z" />
    <glyph glyph-name="uring" unicode="&#x16f;" horiz-adv-x="565" 
d="M350 157l-7 2q-37 -75 -84 -123t-84 -48q-46 0 -73 33t-27 88q0 46 38 175q34 106 28 138q-5 24 -25 24q-21 0 -39.5 -37.5t-30.5 -97.5l-27 3q32 176 110 176q43 0 65.5 -20t24.5 -56.5t-3 -70t-18 -78.5q-20 -71 -28 -112.5t-6 -75.5t20 -49q45 0 96 86t81 179
q9 33 40 187h94l-77 -367q-15 -73 26 -73q27 0 46.5 34t28.5 94l27 -2q-8 -78 -36.5 -125.5t-80.5 -47.5q-57 0 -76 46t-3 118zM229 615q0 39 27.5 66.5t66.5 27.5t66.5 -27.5t27.5 -66.5t-27.5 -66.5t-66.5 -27.5t-66.5 27.5t-27.5 66.5zM275 615q0 -22 13 -36.5t34 -14.5
t34.5 14.5t13.5 36.5t-13.5 37.5t-34.5 15.5t-34 -15.5t-13 -37.5z" />
    <glyph glyph-name="Uhungarumlaut" unicode="&#x170;" horiz-adv-x="747" 
d="M817 654l-3 -2q-52 0 -75.5 -10t-28.5 -33l-69 -328q-31 -145 -105 -219t-213 -74q-258 0 -207 237l82 387q5 27 -8.5 33.5t-77.5 6.5l8 39h296l-8 -39q-65 0 -82.5 -6.5t-22.5 -33.5l-82 -387q-21 -96 15 -144.5t111 -48.5q60 0 104.5 20.5t71 59.5t41.5 77.5t26 91.5
l69 328q5 23 -19 33t-89 10l8 39h265zM529 745v8l106 129h89v-10l-149 -127h-46zM389 745v8l106 129h89v-10l-149 -127h-46z" />
    <glyph glyph-name="uhungarumlaut" unicode="&#x171;" horiz-adv-x="565" 
d="M350 157l-7 2q-37 -75 -84 -123t-84 -48q-46 0 -73 33t-27 88q0 46 38 175q34 106 28 138q-5 24 -25 24q-21 0 -39.5 -37.5t-30.5 -97.5l-27 3q32 176 110 176q43 0 65.5 -20t24.5 -56.5t-3 -70t-18 -78.5q-20 -71 -28 -112.5t-6 -75.5t20 -49q45 0 96 86t81 179
q9 33 40 187h94l-77 -367q-15 -73 26 -73q27 0 46.5 34t28.5 94l27 -2q-8 -78 -36.5 -125.5t-80.5 -47.5q-57 0 -76 46t-3 118zM333 541v8l106 164h89v-10l-154 -162h-41zM193 541v8l106 164h89v-10l-154 -162h-41z" />
    <glyph glyph-name="Uogonek" unicode="&#x172;" horiz-adv-x="747" 
d="M817 654l-3 -2q-52 0 -75.5 -10t-28.5 -33l-69 -328q-25 -116 -76 -186.5t-140 -94.5q-61 -42 -61 -102q0 -62 45 -62q6 0 16 2v-32q-18 -5 -34 -5q-39 0 -68 20.5t-29 57.5q0 61 64 111q-22 -2 -35 -2q-258 0 -207 237l82 387q5 27 -8.5 33.5t-77.5 6.5l8 39h296l-8 -39
q-65 0 -82.5 -6.5t-22.5 -33.5l-82 -387q-21 -96 15 -144.5t111 -48.5q60 0 104.5 20.5t71 59.5t41.5 77.5t26 91.5l69 328q5 23 -19 33t-89 10l8 39h265z" />
    <glyph glyph-name="uogonek" unicode="&#x173;" horiz-adv-x="565" 
d="M350 157l-7 2q-37 -75 -84 -123t-84 -48q-46 0 -73 33t-27 88q0 46 38 175q34 106 28 138q-5 24 -25 24q-21 0 -39.5 -37.5t-30.5 -97.5l-27 3q32 176 110 176q43 0 65.5 -20t24.5 -56.5t-3 -70t-18 -78.5q-20 -71 -28 -112.5t-6 -75.5t20 -49q45 0 96 86t81 179
q9 33 40 187h94l-77 -367q-15 -73 26 -73q27 0 46.5 34t28.5 94l27 -2q-12 -106 -54 -147v-1l-3 -2q-13 -12 -30 -18q-57 -41 -57 -100q0 -62 45 -62q6 0 16 2v-32q-18 -5 -34 -5q-39 0 -68 20.5t-29 57.5q0 65 73 117q-43 9 -56.5 55t1.5 106z" />
    <glyph glyph-name="Wcircumflex" unicode="&#x174;" horiz-adv-x="977" 
d="M668 174h1l202 369q30 50 17 81t-72 28l8 39h234l-8 -39q-42 0 -68.5 -23.5t-61.5 -87.5l-302 -557h-25l-53 449l-260 -449h-22l-70 592q-9 46 -26.5 61t-58.5 15l8 39h269l-8 -39q-55 1 -69.5 -16t-9.5 -60l44 -402h2l193 330l-8 72q-5 51 -19 63.5t-65 12.5l8 39h268
l-8 -39q-44 0 -61 -7t-18 -24t1 -45zM734 753v-8h-46l-70 76l-128 -76h-46v8l161 129h48z" />
    <glyph glyph-name="wcircumflex" unicode="&#x175;" horiz-adv-x="735" 
d="M484 459l-30 -362q-2 -25 9 -32q78 43 125 115t47 166q0 51 -12 91q-7 34 6 58l52 15q29 -6 35 -54q8 -152 -89 -290t-240 -178q-30 0 -27 41l9 121q-92 -125 -222 -162q-30 0 -27 41l28 371l-6 13q-46 6 -63.5 -9.5t-27.5 -77.5l-29 5q3 25 6 42t8.5 35.5t13.5 29
t21 20.5t30 13.5t41 3.5t55 -5l43 -61l-26 -312q-2 -25 9 -32q119 69 154 194l15 198q0 10 53 10q39 0 39 -8zM562 549v-8h-39l-52 99l-106 -99h-53v8l151 164h48z" />
    <glyph glyph-name="Ycircumflex" unicode="&#x176;" horiz-adv-x="684" 
d="M758 654l-3 -2q-68 0 -133 -79l-200 -263l-39 -184q-12 -59 4 -72.5t81 -13.5l-8 -40h-308l8 40q51 0 71 5.5t29.5 21t18.5 59.5l39 180l-103 257q-27 57 -45.5 73t-66.5 16l8 39h293l-8 -39q-62 0 -80 -14.5t1 -53.5l88 -224l170 223q20 28 12.5 48t-44.5 21l8 39h214z
M633 753v-8h-46l-70 76l-128 -76h-46v8l161 129h48z" />
    <glyph glyph-name="ycircumflex" unicode="&#x177;" horiz-adv-x="514" 
d="M350 157l-7 2q-37 -75 -84 -123t-84 -48q-152 0 -62 296q1 3 6.5 20.5t8.5 28.5t7.5 29t5.5 30t0 24.5t-7.5 18.5t-17.5 6q-21 0 -39.5 -36t-30.5 -94l-27 3q32 176 110 176q43 0 66 -20t26 -56t-2.5 -70t-17.5 -79q-19 -69 -27 -104t-7.5 -73.5t17.5 -59.5q45 0 96 86
t81 179q9 33 40 187h94l-77 -372q-21 -79 -51 -140t-61.5 -96.5t-68.5 -58t-68 -30.5t-63 -8q-33 0 -59 18t-26 49q0 26 18 43.5t48 17.5q6 -29 21.5 -53t32.5 -34q62 0 112.5 75.5t96.5 265.5zM434 549v-8h-39l-52 99l-106 -99h-53v8l151 164h48z" />
    <glyph glyph-name="Ydieresis" unicode="&#x178;" horiz-adv-x="684" 
d="M758 654l-3 -2q-68 0 -133 -79l-200 -263l-39 -184q-12 -59 4 -72.5t81 -13.5l-8 -40h-308l8 40q51 0 71 5.5t29.5 21t18.5 59.5l39 180l-103 257q-27 57 -45.5 73t-66.5 16l8 39h293l-8 -39q-62 0 -80 -14.5t1 -53.5l88 -224l170 223q20 28 12.5 48t-44.5 21l8 39h214z
M646 826q0 -20 -16.5 -35.5t-35.5 -15.5q-21 0 -37 15.5t-16 35.5q0 21 16 37t37 16q19 0 35.5 -16t16.5 -37zM485 826q0 -20 -15.5 -35.5t-36.5 -15.5t-37 15.5t-16 35.5q0 21 16 37t37 16t36.5 -16t15.5 -37z" />
    <glyph glyph-name="Zacute" unicode="&#x179;" horiz-adv-x="636" 
d="M-19 0l4 23l555 625l-2 4h-176q-79 0 -137.5 -61t-86.5 -150h-41l63 250h536l-4 -21l-560 -624l1 -4h203q148 0 224 229h42l-76 -271h-545zM380 745v8l101 129h94v-10l-144 -127h-51z" />
    <glyph glyph-name="zacute" unicode="&#x17a;" horiz-adv-x="439" 
d="M355 405l-7 6l-98 -42q-2 1 -13.5 6.5t-14 6.5t-12 5t-14 5.5t-12.5 3.5t-15 2.5t-15 0.5q-24 0 -43 -29t-22 -64l-31 5q9 78 44 128.5t87 50.5q33 -1 56 -11t70 -39q58 2 93 50l42 -34l-187 -212l-141 -150l6 -5l83 23q14 -17 37.5 -30t42.5 -13q30 0 51 26t29 60l30 -8
q-20 -74 -55.5 -116.5t-80.5 -42.5q-57 0 -127 63q-52 -3 -100 -63l-37 29l216 239zM226 541v8l113 164h90v-10l-149 -162h-54z" />
    <glyph glyph-name="Zdotaccent" unicode="&#x17b;" horiz-adv-x="636" 
d="M-19 0l4 23l555 625l-2 4h-176q-79 0 -137.5 -61t-86.5 -150h-41l63 250h536l-4 -21l-560 -624l1 -4h203q148 0 224 229h42l-76 -271h-545zM408 811q0 27 18.5 50.5t45.5 23.5q19 0 32.5 -16t13.5 -39q0 -27 -20 -49t-44 -22q-20 0 -33 15.5t-13 36.5z" />
    <glyph glyph-name="zdotaccent" unicode="&#x17c;" horiz-adv-x="439" 
d="M355 405l-7 6l-98 -42q-2 1 -13.5 6.5t-14 6.5t-12 5t-14 5.5t-12.5 3.5t-15 2.5t-15 0.5q-24 0 -43 -29t-22 -64l-31 5q9 78 44 128.5t87 50.5q33 -1 56 -11t70 -39q58 2 93 50l42 -34l-187 -212l-141 -150l6 -5l83 23q14 -17 37.5 -30t42.5 -13q30 0 51 26t29 60l30 -8
q-20 -74 -55.5 -116.5t-80.5 -42.5q-57 0 -127 63q-52 -3 -100 -63l-37 29l216 239zM244 612q0 27 18.5 50.5t45.5 23.5q19 0 32.5 -16t13.5 -39q0 -27 -20 -49t-44 -22q-20 0 -33 15.5t-13 36.5z" />
    <glyph glyph-name="Zcaron" unicode="&#x17d;" horiz-adv-x="636" 
d="M-19 0l4 23l555 625l-2 4h-176q-79 0 -137.5 -61t-86.5 -150h-41l63 250h536l-4 -21l-560 -624l1 -4h203q148 0 224 229h42l-76 -271h-545zM335 874v8h46l70 -76l128 76h46v-8l-161 -129h-48z" />
    <glyph glyph-name="zcaron" unicode="&#x17e;" horiz-adv-x="439" 
d="M355 405l-7 6l-98 -42q-2 1 -13.5 6.5t-14 6.5t-12 5t-14 5.5t-12.5 3.5t-15 2.5t-15 0.5q-24 0 -43 -29t-22 -64l-31 5q9 78 44 128.5t87 50.5q33 -1 56 -11t70 -39q58 2 93 50l42 -34l-187 -212l-141 -150l6 -5l83 23q14 -17 37.5 -30t42.5 -13q30 0 51 26t29 60l30 -8
q-20 -74 -55.5 -116.5t-80.5 -42.5q-57 0 -127 63q-52 -3 -100 -63l-37 29l216 239zM201 705v8h39l52 -99l106 99h53v-8l-151 -164h-48z" />
    <glyph glyph-name="florin" unicode="&#x192;" horiz-adv-x="544" 
d="M96 309l14 49h94l25 100q17 70 68 125t125 55q55 0 90 -21.5t35 -51.5q0 -20 -11 -33.5t-34 -13.5q-17 0 -28.5 11t-16.5 25t-17.5 25t-31.5 11q-31 0 -50.5 -34t-39.5 -105l-26 -93h120l-14 -49h-117l-88 -327q-23 -85 -65.5 -137t-99.5 -52q-41 0 -69.5 19.5
t-28.5 49.5q0 19 10 32t27 13q14 0 25 -10.5t17 -23.5t15.5 -23.5t20.5 -10.5q32 0 64 130l86 340h-99z" />
    <glyph glyph-name="Scommaaccent" unicode="&#x218;" horiz-adv-x="586" 
d="M87 59l-27 -59h-44l52 278h39v-23q0 -115 40 -169.5t131 -54.5q81 0 125.5 41t44.5 92q0 50 -37.5 81.5t-144.5 68.5q-79 28 -117 69t-38 103q0 94 73.5 154.5t165.5 60.5q94 0 166 -64l2 2l-2 -1l32 57h39l-53 -258h-36q-6 116 -44 169t-112 53q-61 0 -101.5 -39.5
t-40.5 -84.5q0 -49 40 -82t134 -65q85 -30 122.5 -72t37.5 -102q0 -93 -77 -159.5t-186 -66.5q-67 0 -114 22t-70 49zM212 -80q0 14 11 23t28 9q20 0 36 -19t16 -48q0 -52 -34.5 -90t-91.5 -38v31q31 0 48 18t17 40q0 20 -15 40.5t-15 33.5z" />
    <glyph glyph-name="scommaaccent" unicode="&#x219;" horiz-adv-x="385" 
d="M91 144q-2 -59 12 -89t53 -30q33 0 55.5 24.5t22.5 56.5q0 33 -23 63t-50.5 50.5t-50.5 55t-23 76.5q0 56 45.5 97.5t115.5 41.5q49 0 85.5 -27t36.5 -65q0 -32 -18 -50t-50 -18q0 124 -59 124q-30 0 -50.5 -21t-20.5 -57q0 -33 23 -62.5t50.5 -49.5t50.5 -53.5t23 -73.5
q0 -64 -51 -106.5t-125 -42.5q-54 0 -89.5 22.5t-35.5 57.5q0 33 21 54.5t52 21.5zM90 -83q0 14 11 23t28 9q20 0 36 -19t16 -48q0 -52 -34.5 -90t-91.5 -38v31q31 0 48 18t17 40q0 20 -15 40.5t-15 33.5z" />
    <glyph glyph-name="schwa" unicode="&#x259;" horiz-adv-x="425" 
d="M47 90q0 116 270 223q5 69 -22 100.5t-67 31.5t-81.5 -42t-62.5 -88l-29 21q79 154 194 154q167 0 167 -188q0 -134 -75 -224t-172 -90q-57 0 -89.5 27t-32.5 75zM134 74q0 -48 46 -48q55 0 95 75t43 179q-97 -44 -140.5 -93.5t-43.5 -112.5z" />
    <glyph glyph-name="quoteleft" unicode="&#x2bb;" horiz-adv-x="381" 
d="M305 432q0 -21 -16.5 -34t-42.5 -13q-34 0 -56.5 30.5t-22.5 79.5q0 91 64 158t161 67v-42q-70 0 -110.5 -41.5t-40.5 -88.5q0 -26 16 -44t32 -34t16 -38z" />
    <glyph glyph-name="quoteleft" unicode="&#x2018;" horiz-adv-x="381" 
d="M305 432q0 -21 -16.5 -34t-42.5 -13q-34 0 -56.5 30.5t-22.5 79.5q0 91 64 158t161 67v-42q-70 0 -110.5 -41.5t-40.5 -88.5q0 -26 16 -44t32 -34t16 -38z" />
    <glyph glyph-name="circumflex" unicode="&#x2c6;" horiz-adv-x="500" 
d="M376 506v-8h-39l-52 99l-106 -99h-53v8l151 164h48z" />
    <glyph glyph-name="caron" unicode="&#x2c7;" horiz-adv-x="500" 
d="M173 662v8h39l52 -99l106 99h53v-8l-151 -164h-48z" />
    <glyph glyph-name="breve" unicode="&#x2d8;" horiz-adv-x="500" 
d="M260 493q-43 0 -63.5 42t-8.5 110h40q-5 -37 5 -62.5t34 -25.5q29 0 55 25t37 63h39q-20 -73 -59 -112.5t-79 -39.5z" />
    <glyph glyph-name="dotaccent" unicode="&#x2d9;" horiz-adv-x="500" 
d="M216 569q0 27 18.5 50.5t45.5 23.5q19 0 32.5 -16t13.5 -39q0 -27 -20 -49t-44 -22q-20 0 -33 15.5t-13 36.5z" />
    <glyph glyph-name="ring" unicode="&#x2da;" horiz-adv-x="500" 
d="M176 572q0 39 27.5 66.5t66.5 27.5t66.5 -27.5t27.5 -66.5t-27.5 -66.5t-66.5 -27.5t-66.5 27.5t-27.5 66.5zM222 572q0 -22 13 -36.5t34 -14.5t34.5 14.5t13.5 36.5t-13.5 37.5t-34.5 15.5t-34 -15.5t-13 -37.5z" />
    <glyph glyph-name="ogonek" unicode="&#x2db;" horiz-adv-x="500" 
d="M289 24v-6q-90 -49 -90 -120q0 -62 45 -62q6 0 16 2v-32q-18 -5 -34 -5q-39 0 -68 20.5t-29 57.5q0 91 141 155z" />
    <glyph glyph-name="tilde" unicode="&#x2dc;" horiz-adv-x="500" 
d="M387 633l26 -10q-14 -47 -42.5 -82t-54.5 -35q-14 0 -61 30t-61 30q-8 0 -14 -4t-12.5 -15.5t-10 -18.5t-11.5 -25l-29 12q11 39 41 78.5t48 39.5q19 0 62.5 -30.5t61.5 -30.5q16 0 33 19.5t24 41.5z" />
    <glyph glyph-name="hungarumlaut" unicode="&#x2dd;" horiz-adv-x="500" 
d="M280 498v8l106 164h89v-10l-154 -162h-41zM140 498v8l106 164h89v-10l-154 -162h-41z" />
    <glyph glyph-name="Delta" unicode="&#x394;" horiz-adv-x="544" 
d="M532 0h-520l223 631h45zM239 494l-150 -439h320z" />
    <glyph glyph-name="Delta" unicode="&#x2206;" horiz-adv-x="544" 
d="M532 0h-520l223 631h45zM239 494l-150 -439h320z" />
    <glyph glyph-name="Omega" unicode="&#x3a9;" horiz-adv-x="544" 
d="M271 588q-72 0 -110 -69.5t-38 -155.5q0 -133 38 -228t91 -112l-6 -23h-223l-20 146h29l43 -94h54l6 10q-43 49 -72 128t-29 162q0 114 66.5 200t171.5 86t171.5 -86t66.5 -200q0 -83 -29 -162t-72 -128l6 -10h54l43 94h29l-20 -146h-223l-6 23q53 17 91 112t38 228
q0 53 -15 102.5t-50.5 86t-84.5 36.5z" />
    <glyph glyph-name="Omega" unicode="&#x2126;" horiz-adv-x="544" 
d="M271 588q-72 0 -110 -69.5t-38 -155.5q0 -133 38 -228t91 -112l-6 -23h-223l-20 146h29l43 -94h54l6 10q-43 49 -72 128t-29 162q0 114 66.5 200t171.5 86t171.5 -86t66.5 -200q0 -83 -29 -162t-72 -128l6 -10h54l43 94h29l-20 -146h-223l-6 23q53 17 91 112t38 228
q0 53 -15 102.5t-50.5 86t-84.5 36.5z" />
    <glyph glyph-name="lambda" unicode="&#x3bb;" horiz-adv-x="528" 
d="M258 608l115 -454q16 -65 24 -83.5t23 -18.5q12 0 27 27t32 27q16 0 25 -12t9 -30q0 -32 -25 -52.5t-60 -20.5q-77 0 -100 111l-55 224l-150 -326h-101l217 467l-33 135q-18 79 -58 79q-16 0 -41 -32.5t-43 -32.5q-36 0 -36 39q0 31 31 55t80 24q48 0 78 -35.5t41 -90.5z
" />
    <glyph glyph-name="pi" unicode="&#x3c0;" horiz-adv-x="544" 
d="M169 22q-26 -43 -65 -32q-28 8 -33 34q-5 24 19 43q56 57 80 127t24 183h-31q-35 0 -53 -13t-27 -48l-27 5q15 64 37.5 91t62.5 27h332v-62h-101l-21 -254q-4 -51 32 -51q42 0 65 62l25 -3q-36 -138 -112 -138q-43 0 -63 29t-15 79l27 276h-84q-5 -239 -72 -355z" />
    <glyph glyph-name="Wgrave" unicode="&#x1e80;" horiz-adv-x="977" 
d="M668 174h1l202 369q30 50 17 81t-72 28l8 39h234l-8 -39q-42 0 -68.5 -23.5t-61.5 -87.5l-302 -557h-25l-53 449l-260 -449h-22l-70 592q-9 46 -26.5 61t-58.5 15l8 39h269l-8 -39q-55 1 -69.5 -16t-9.5 -60l44 -402h2l193 330l-8 72q-5 51 -19 63.5t-65 12.5l8 39h268
l-8 -39q-44 0 -61 -7t-18 -24t1 -45zM639 753v-8h-48l-104 127v10h91z" />
    <glyph glyph-name="wgrave" unicode="&#x1e81;" horiz-adv-x="735" 
d="M484 459l-30 -362q-2 -25 9 -32q78 43 125 115t47 166q0 51 -12 91q-7 34 6 58l52 15q29 -6 35 -54q8 -152 -89 -290t-240 -178q-30 0 -27 41l9 121q-92 -125 -222 -162q-30 0 -27 41l28 371l-6 13q-46 6 -63.5 -9.5t-27.5 -77.5l-29 5q3 25 6 42t8.5 35.5t13.5 29
t21 20.5t30 13.5t41 3.5t55 -5l43 -61l-26 -312q-2 -25 9 -32q119 69 154 194l15 198q0 10 53 10q39 0 39 -8zM482 549v-8h-44l-114 162v10h92z" />
    <glyph glyph-name="Wacute" unicode="&#x1e82;" horiz-adv-x="977" 
d="M668 174h1l202 369q30 50 17 81t-72 28l8 39h234l-8 -39q-42 0 -68.5 -23.5t-61.5 -87.5l-302 -557h-25l-53 449l-260 -449h-22l-70 592q-9 46 -26.5 61t-58.5 15l8 39h269l-8 -39q-55 1 -69.5 -16t-9.5 -60l44 -402h2l193 330l-8 72q-5 51 -19 63.5t-65 12.5l8 39h268
l-8 -39q-44 0 -61 -7t-18 -24t1 -45zM529 745v8l101 129h94v-10l-144 -127h-51z" />
    <glyph glyph-name="wacute" unicode="&#x1e83;" horiz-adv-x="735" 
d="M484 459l-30 -362q-2 -25 9 -32q78 43 125 115t47 166q0 51 -12 91q-7 34 6 58l52 15q29 -6 35 -54q8 -152 -89 -290t-240 -178q-30 0 -27 41l9 121q-92 -125 -222 -162q-30 0 -27 41l28 371l-6 13q-46 6 -63.5 -9.5t-27.5 -77.5l-29 5q3 25 6 42t8.5 35.5t13.5 29
t21 20.5t30 13.5t41 3.5t55 -5l43 -61l-26 -312q-2 -25 9 -32q119 69 154 194l15 198q0 10 53 10q39 0 39 -8zM384 541v8l113 164h90v-10l-149 -162h-54z" />
    <glyph glyph-name="Wdieresis" unicode="&#x1e84;" horiz-adv-x="977" 
d="M668 174h1l202 369q30 50 17 81t-72 28l8 39h234l-8 -39q-42 0 -68.5 -23.5t-61.5 -87.5l-302 -557h-25l-53 449l-260 -449h-22l-70 592q-9 46 -26.5 61t-58.5 15l8 39h269l-8 -39q-55 1 -69.5 -16t-9.5 -60l44 -402h2l193 330l-8 72q-5 51 -19 63.5t-65 12.5l8 39h268
l-8 -39q-44 0 -61 -7t-18 -24t1 -45zM747 826q0 -20 -16.5 -35.5t-35.5 -15.5q-21 0 -37 15.5t-16 35.5q0 21 16 37t37 16q19 0 35.5 -16t16.5 -37zM586 826q0 -20 -15 -35.5t-37 -15.5q-21 0 -37 15.5t-16 35.5q0 21 16 37t37 16t36.5 -16t15.5 -37z" />
    <glyph glyph-name="wdieresis" unicode="&#x1e85;" horiz-adv-x="735" 
d="M484 459l-30 -362q-2 -25 9 -32q78 43 125 115t47 166q0 51 -12 91q-7 34 6 58l52 15q29 -6 35 -54q8 -152 -89 -290t-240 -178q-30 0 -27 41l9 121q-92 -125 -222 -162q-30 0 -27 41l28 371l-6 13q-46 6 -63.5 -9.5t-27.5 -77.5l-29 5q3 25 6 42t8.5 35.5t13.5 29
t21 20.5t30 13.5t41 3.5t55 -5l43 -61l-26 -312q-2 -25 9 -32q119 69 154 194l15 198q0 10 53 10q39 0 39 -8zM594 612q0 -20 -16.5 -35.5t-35.5 -15.5q-21 0 -37 15.5t-16 35.5q0 21 16 37t37 16q19 0 35.5 -16t16.5 -37zM433 612q0 -20 -15.5 -35.5t-36.5 -15.5t-37 15.5
t-16 35.5q0 21 16 37t37 16t36.5 -16t15.5 -37z" />
    <glyph glyph-name="uni1e9e" unicode="&#x1e9e;" horiz-adv-x="773" 
d="M469 -12q-86 0 -148 35l27 153h43q0 -4 -0.5 -11t-0.5 -10q0 -129 86 -129q60 0 103 52.5t43 144.5q0 131 -107 131q-51 0 -107 -29l-49 50l255 265l-3 12h-287l-121 -571q-2 -10 -2 -13q0 -16 13.5 -20t55.5 -7q10 -1 15 -1l-8 -40h-297l8 40q3 0 10 1q34 3 50 6t32 13
t20 28l112 528q1 4 1 11q0 16 -19 20.5t-76 4.5l8 39h622v-41l-238 -239l5 -11q24 5 55 5q75 0 117 -45t42 -123q0 -114 -75 -181.5t-185 -67.5z" />
    <glyph glyph-name="Ygrave" unicode="&#x1ef2;" horiz-adv-x="684" 
d="M758 654l-3 -2q-68 0 -133 -79l-200 -263l-39 -184q-12 -59 4 -72.5t81 -13.5l-8 -40h-308l8 40q51 0 71 5.5t29.5 21t18.5 59.5l39 180l-103 257q-27 57 -45.5 73t-66.5 16l8 39h293l-8 -39q-62 0 -80 -14.5t1 -53.5l88 -224l170 223q20 28 12.5 48t-44.5 21l8 39h214z
M538 753v-8h-48l-104 127v10h91z" />
    <glyph glyph-name="ygrave" unicode="&#x1ef3;" horiz-adv-x="514" 
d="M350 157l-7 2q-37 -75 -84 -123t-84 -48q-152 0 -62 296q1 3 6.5 20.5t8.5 28.5t7.5 29t5.5 30t0 24.5t-7.5 18.5t-17.5 6q-21 0 -39.5 -36t-30.5 -94l-27 3q32 176 110 176q43 0 66 -20t26 -56t-2.5 -70t-17.5 -79q-19 -69 -27 -104t-7.5 -73.5t17.5 -59.5q45 0 96 86
t81 179q9 33 40 187h94l-77 -372q-21 -79 -51 -140t-61.5 -96.5t-68.5 -58t-68 -30.5t-63 -8q-33 0 -59 18t-26 49q0 26 18 43.5t48 17.5q6 -29 21.5 -53t32.5 -34q62 0 112.5 75.5t96.5 265.5zM354 549v-8h-44l-114 162v10h92z" />
    <glyph glyph-name="uni2011" unicode="&#x2011;" horiz-adv-x="318" 
d="M43 282h254v-69h-254v69z" />
    <glyph glyph-name="endash" unicode="&#x2013;" horiz-adv-x="488" 
d="M52 282h406v-69h-406v69z" />
    <glyph glyph-name="emdash" unicode="&#x2014;" horiz-adv-x="1000" 
d="M96 277h828v-59h-828v59z" />
    <glyph glyph-name="quoteright" unicode="&#x2019;" horiz-adv-x="381" 
d="M214 673q0 21 16.5 34t42.5 13q34 0 56.5 -30.5t22.5 -79.5q0 -91 -64 -158t-161 -67v42q70 0 110.5 41.5t40.5 88.5q0 26 -16 44t-32 34t-16 38z" />
    <glyph glyph-name="quotesinglbase" unicode="&#x201a;" horiz-adv-x="381" 
d="M88 78q0 21 16.5 34t42.5 13q34 0 56.5 -30.5t22.5 -79.5q0 -91 -64 -158t-161 -67v42q70 0 110.5 41.5t40.5 88.5q0 26 -16 44t-32 34t-16 38z" />
    <glyph glyph-name="quotedblleft" unicode="&#x201c;" horiz-adv-x="621" 
d="M305 432q0 -21 -16.5 -34t-42.5 -13q-34 0 -56.5 30.5t-22.5 79.5q0 91 64 158t161 67v-42q-70 0 -110.5 -41.5t-40.5 -88.5q0 -26 16 -44t32 -34t16 -38zM545 432q0 -21 -16.5 -34t-42.5 -13q-34 0 -56.5 30.5t-22.5 79.5q0 91 64 158t161 67v-42q-70 0 -110.5 -41.5
t-40.5 -88.5q0 -26 16 -44t32 -34t16 -38z" />
    <glyph glyph-name="quotedblright" unicode="&#x201d;" horiz-adv-x="621" 
d="M454 673q0 21 16.5 34t42.5 13q34 0 56.5 -30.5t22.5 -79.5q0 -91 -64 -158t-161 -67v42q70 0 110.5 41.5t40.5 88.5q0 26 -16 44t-32 34t-16 38zM214 673q0 21 16.5 34t42.5 13q34 0 56.5 -30.5t22.5 -79.5q0 -91 -64 -158t-161 -67v42q70 0 110.5 41.5t40.5 88.5
q0 26 -16 44t-32 34t-16 38z" />
    <glyph glyph-name="quotedblbase" unicode="&#x201e;" horiz-adv-x="621" 
d="M328 78q0 21 16.5 34t42.5 13q34 0 56.5 -30.5t22.5 -79.5q0 -91 -64 -158t-161 -67v42q70 0 110.5 41.5t40.5 88.5q0 26 -16 44t-32 34t-16 38zM88 78q0 21 16.5 34t42.5 13q34 0 56.5 -30.5t22.5 -79.5q0 -91 -64 -158t-161 -67v42q70 0 110.5 41.5t40.5 88.5
q0 26 -16 44t-32 34t-16 38z" />
    <glyph glyph-name="dagger" unicode="&#x2020;" horiz-adv-x="548" 
d="M558 479q-6 -30 -33.5 -47.5t-55.5 -12.5q-4 1 -40 20t-81 19q-12 -59 -16 -93t0 -61.5t20 -45.5q-25 -12 -48.5 -70t-59.5 -225h-39q24 116 32.5 178.5t5 85.5t-18.5 31q54 47 85 200q-34 0 -56 -6.5t-44 -18t-36 -16.5q-29 -8 -49 12t-14 50q7 29 33.5 45.5t54.5 11.5
q15 -4 31 -14.5t36 -17.5t53 -7q7 47 6 63.5t-8 42.5t-8 40q-4 27 19.5 51t52.5 24q30 0 44 -24t3 -51q-3 -8 -31 -53t-39 -93q33 0 55.5 6.5t46.5 19t36 16.5q29 7 49.5 -12t13.5 -48z" />
    <glyph glyph-name="daggerdbl" unicode="&#x2021;" horiz-adv-x="548" 
d="M352 258q-37 -33 -53.5 -75t-35.5 -128q45 0 87 18.5t51 20.5q29 5 49.5 -12t14.5 -47q-7 -29 -35.5 -48.5t-53.5 -11.5q-11 4 -29.5 16t-38.5 18.5t-53 6.5q-7 -45 -5 -62.5t8 -41.5t6 -41q0 -28 -25 -52t-55 -24q-29 0 -41.5 24t2.5 52q7 13 23.5 37t28 48t19.5 60
q-44 0 -86.5 -18.5t-49.5 -20.5q-31 -5 -50.5 11.5t-12.5 46.5q6 30 34 49.5t55 12.5q11 -5 28 -17t36.5 -18.5t53.5 -6.5q35 156 0 203q54 46 85 200q-34 0 -56 -6.5t-44 -18t-36 -16.5q-29 -8 -49 12t-14 50q7 30 33.5 46t54.5 11q8 -2 42 -20.5t78 -18.5q7 47 6 63.5
t-8 42.5t-8 40q-4 27 19.5 51t52.5 24q30 0 44 -24t3 -51q-3 -8 -31 -53t-39 -93q33 0 55.5 6.5t46.5 19t36 16.5q29 7 49.5 -12t13.5 -48q-6 -30 -33.5 -47.5t-55.5 -12.5q-4 1 -40 20t-81 19q-12 -58 -16 -92.5t0.5 -62t19.5 -45.5z" />
    <glyph glyph-name="bullet" unicode="&#x2022;" horiz-adv-x="604" 
d="M187 264q0 56 40 96t96 40t96 -40t40 -96t-40 -96t-96 -40t-96 40t-40 96z" />
    <glyph glyph-name="ellipsis" unicode="&#x2026;" horiz-adv-x="993" 
d="M100 57q0 27 18.5 46t45.5 19t46 -19t19 -46t-19 -45.5t-46 -18.5t-45.5 18.5t-18.5 45.5zM410 57q0 27 18.5 46t45.5 19t46 -19t19 -46t-19 -45.5t-46 -18.5t-45.5 18.5t-18.5 45.5zM720 57q0 27 18.5 46t45.5 19t46 -19t19 -46t-19 -45.5t-46 -18.5t-45.5 18.5
t-18.5 45.5z" />
    <glyph glyph-name="perthousand" unicode="&#x2030;" horiz-adv-x="831" 
d="M313 575l-3 -1q-1 -82 -44 -134.5t-100 -52.5q-47 0 -77 35.5t-30 90.5q0 74 47 128.5t100 54.5q34 0 59.5 -18.5t36.5 -50.5q6 -15 25 -24.5t41 -9.5q47 0 85 30q21 67 54 67q8 0 16 -5.5t8 -16.5q0 -15 -13.5 -32.5t-29.5 -28.5l-190 -288l-215 -338l-34 26l223 332
l140 228l-3 2q-19 -12 -48 -12q-30 0 -48 18zM282 114q0 75 46.5 129.5t100.5 54.5q46 0 75 -31.5t29 -85.5q0 -86 -44 -139t-97 -53q-50 0 -80 35t-30 90zM446 253q-33 0 -61.5 -52.5t-28.5 -113.5q0 -28 11.5 -43t29.5 -15q34 0 62 41t28 120q0 30 -11.5 46.5t-29.5 16.5z
M223 651q-32 0 -61 -52t-29 -112t42 -60q33 0 60.5 42t27.5 120q0 30 -11.5 46t-28.5 16zM562 114q0 74 47 129t100 55q46 0 75 -31.5t29 -85.5q0 -86 -44 -139t-98 -53q-48 0 -78.5 35.5t-30.5 89.5zM726 253q-33 0 -62 -52.5t-29 -113.5q0 -28 11.5 -43t29.5 -15
q34 0 62 41t28 120q0 30 -11.5 46.5t-28.5 16.5z" />
    <glyph glyph-name="uni2032" unicode="&#x2032;" horiz-adv-x="290" 
d="M163 456l70 266l96 -34l-114 -250z" />
    <glyph glyph-name="uni2033" unicode="&#x2033;" horiz-adv-x="480" 
d="M163 456l70 266l96 -34l-114 -250zM353 456l70 266l96 -34l-114 -250z" />
    <glyph glyph-name="guilsinglleft" unicode="&#x2039;" horiz-adv-x="445" 
d="M127 240l244 219l32 -30l-187 -204l-5 -15l49 -200l-40 -14l-100 221z" />
    <glyph glyph-name="guilsinglright" unicode="&#x203a;" horiz-adv-x="445" 
d="M338 215l-244 -219l-32 30l187 204l5 15l-49 200l40 14l100 -221z" />
    <glyph glyph-name="uni2042" unicode="&#x2042;" horiz-adv-x="901" 
d="M481 532q41 -39 102 -77q32 -19 13 -49q-16 -25 -42 -23q-19 1 -29 20q-3 7 -11 22.5t-12 23.5t-11 20t-14.5 22.5t-15.5 20.5q-12 -57 -12 -126q1 -32 -28 -35q-27 -3 -42 19q-11 16 1 37q5 9 19 33.5t23 42.5t16 36q-52 -14 -114 -54q-26 -16 -44 12q-18 26 -4 47
q10 13 31 13q87 0 127 9q-40 35 -103 71q-27 13 -14 41q11 25 35 27q19 1 32 -19q54 -87 67 -104q9 59 11 123q0 33 31 37q27 2 42 -19q12 -18 -2 -40q-6 -11 -20 -33t-23.5 -39.5t-17.5 -34.5q58 16 114 48q33 19 49 -10q13 -26 -2 -48q-9 -14 -29 -13q-9 0 -36 2t-47 1.5
t-40 -4.5zM251 162q41 -39 102 -77q32 -19 13 -49q-16 -25 -42 -23q-19 1 -29 20q-3 7 -11 22.5t-12 23.5t-11 20t-14.5 22.5t-15.5 20.5q-12 -57 -12 -126q1 -32 -28 -35q-27 -3 -42 19q-11 16 1 37q5 9 19 33.5t23 42.5t16 36q-52 -14 -114 -54q-26 -16 -44 12
q-18 26 -4 47q9 13 31 13q87 0 127 9q-40 35 -103 71q-27 13 -14 41q11 25 35 27q19 1 32 -19q54 -87 67 -104q9 59 11 123q0 33 31 37q27 2 42 -19q12 -18 -2 -40q-6 -11 -20 -33t-23.5 -39.5t-17.5 -34.5q58 16 114 48q33 19 49 -10q13 -26 -2 -48q-9 -14 -29 -13
q-9 0 -36 2t-47 1.5t-40 -4.5zM671 162q41 -39 102 -77q32 -19 13 -49q-16 -25 -42 -23q-19 1 -29 20q-3 7 -11 22.5t-12 23.5t-11 20t-14.5 22.5t-15.5 20.5q-12 -57 -12 -126q1 -32 -28 -35q-27 -3 -42 19q-11 16 1 37q5 9 19 33.5t23 42.5t16 36q-52 -14 -114 -54
q-26 -16 -44 12q-18 26 -4 47q9 13 31 13q87 0 127 9q-40 35 -103 71q-27 13 -14 41q11 25 35 27q19 1 32 -19q54 -87 67 -104q9 59 11 123q0 33 31 37q27 2 42 -19q12 -18 -2 -40q-6 -11 -20 -33t-23.5 -39.5t-17.5 -34.5q58 16 114 48q33 19 49 -10q13 -26 -2 -48
q-9 -14 -29 -13q-9 0 -36 2t-47 1.5t-40 -4.5z" />
    <glyph glyph-name="fraction" unicode="&#x2044;" 
d="M118 -14l307 370l285 353l35 -26l-295 -349l-297 -375z" />
    <glyph glyph-name="zero.sups" unicode="&#x2070;" horiz-adv-x="331" 
d="M420 685q0 -114 -56 -195.5t-140 -81.5q-50 0 -80 28t-30 87q0 109 62 194t138 85q46 0 76 -30t30 -87zM232 437q52 0 84 78t32 176q0 83 -45 83q-47 0 -81.5 -89t-34.5 -170q0 -43 10 -60.5t35 -17.5z" />
    <glyph glyph-name="four.sups" unicode="&#x2074;" horiz-adv-x="322" 
d="M99 530l-3 13l259 260l33 -5l-51 -240h58l-5 -28h-59l-9 -39q-7 -33 6 -43t41 -10l-4 -23h-190l4 23q62 0 73 49l9 43h-162zM155 558h110l28 135l-130 -134z" />
    <glyph glyph-name="five.sups" unicode="&#x2075;" horiz-adv-x="316" 
d="M235 731l-26 -85q37 16 76 16q42 0 71.5 -23.5t29.5 -66.5q0 -72 -59 -118t-137 -46q-36 0 -65.5 17.5t-29.5 46.5q0 23 16 40t36 17q39 0 39 -38l-35 -40q15 -15 47 -15q49 0 78.5 40.5t29.5 90.5q0 60 -43 60q-41 0 -80 -35h-35l61 208q51 -18 104 -18q58 0 112 24
l-6 -28q-53 -50 -143 -50q-22 0 -41 3z" />
    <glyph glyph-name="six.sups" unicode="&#x2076;" horiz-adv-x="333" 
d="M331 802q44 0 67.5 -21t23.5 -50q0 -20 -13.5 -34t-33.5 -14q-24 0 -36.5 10.5t-7.5 25.5l34 32q-11 25 -39 25q-36 0 -69 -47.5t-50 -105.5q41 31 95 31q49 0 74.5 -24.5t25.5 -66.5q0 -70 -55.5 -112.5t-115.5 -42.5q-48 0 -80 30t-32 91q0 107 67.5 190t144.5 83z
M237 437q38 0 62.5 40t24.5 80q0 68 -39 68q-19 0 -44.5 -17t-46.5 -48l2 1q-8 -37 -8 -58q0 -66 49 -66z" />
    <glyph glyph-name="seven.sups" unicode="&#x2077;" horiz-adv-x="305" 
d="M164 450q51 146 194 289q-22 -8 -54 -8q-12 0 -30 4q-25 5 -29 5q-44 0 -68 -73h-37l45 132h40v-5q20 8 39 8q21 0 47 -12q24 -11 40 -11q34 0 83 30l16 -25q-80 -79 -126 -152.5t-75 -183.5q-8 -37 -50 -37q-49 0 -35 39z" />
    <glyph glyph-name="eight.sups" unicode="&#x2078;" horiz-adv-x="322" 
d="M326 620l-1 -4l-6 2q69 -28 69 -80q0 -59 -51.5 -94.5t-115.5 -35.5q-55 0 -88 22.5t-33 61.5q0 33 32 62.5t78 46.5l-7 -2q0 1 0.5 3l0.5 2l5 -2q-54 28 -54 83q0 47 43.5 82t99.5 35q116 0 116 -81q0 -59 -94 -103zM227 437q40 0 65.5 23.5t25.5 54.5q0 53 -75 71
q-30 -8 -53.5 -32t-23.5 -56q0 -29 16.5 -45t44.5 -16zM221 702q0 -51 65 -70q60 29 60 84q0 27 -13.5 42.5t-38.5 15.5q-29 0 -51 -22.5t-22 -49.5z" />
    <glyph glyph-name="nine.sups" unicode="&#x2079;" horiz-adv-x="333" 
d="M208 408q-44 0 -68 18t-24 43q0 22 13.5 38t30.5 16q25 0 37.5 -11.5t7.5 -27.5l-31 -26q11 -24 39 -24q37 0 69 45t49 109q-42 -32 -94 -32q-49 0 -74 25.5t-25 68.5q0 66 53 109t118 43q48 0 79.5 -30.5t31.5 -94.5q0 -105 -66.5 -187t-145.5 -82zM302 774
q-40 0 -64 -41t-24 -89q0 -58 40 -58q19 0 44.5 17t46.5 48l-2 -1q8 35 8 58q0 66 -49 66z" />
    <glyph glyph-name="Euro" unicode="&#x20ac;" horiz-adv-x="645" 
d="M102 402h64q47 125 135 199t185 74q105 0 180 -66l-60 -133h-31q20 82 -14.5 118t-84.5 36q-61 0 -116.5 -57.5t-92.5 -170.5h309l-22 -46h-300l-9 -39l-4 -17h286l-21 -46h-271q-11 -106 23 -162.5t90 -56.5q111 0 177 128l38 -13q-82 -162 -235 -162q-97 0 -152.5 70
t-43.5 196h-73l21 46h59l3 16l9 40h-70z" />
    <glyph glyph-name="uni2117" unicode="&#x2117;" horiz-adv-x="775" 
d="M48 327q0 138 100.5 238t239.5 100q144 0 241.5 -99t97.5 -239t-100 -240.5t-239 -100.5q-142 0 -241 96.5t-99 244.5zM108 324q0 -122 79 -203.5t203 -81.5q123 0 199.5 81t76.5 204q0 125 -79 208t-199 83q-122 0 -201 -83.5t-79 -207.5zM412 296h-41v-119l50 -8v-27
h-176v27l47 8v299l-47 8v26h169q56 0 98 -26.5t42 -80.5q0 -49 -38 -78t-104 -29zM371 470v-136h45q23 0 40.5 18t17.5 47q0 71 -62 71h-41z" />
    <glyph glyph-name="trademark" unicode="&#x2122;" horiz-adv-x="670" 
d="M619 634h-7l-116 -179h-17l-36 179h-5l-47 -150l32 -6l-5 -23h-92l5 23l34 6l60 193l-36 6l5 23h94l26 -165h7l107 165h92l-5 -23l-37 -6l-29 -193l30 -6l-5 -23h-118l5 23l35 6zM155 706h210l-2 -74h-20l-22 47h-38l-42 -195l31 -6l-5 -23h-121l5 23l33 6l42 195h-37
l-42 -47h-21z" />
    <glyph glyph-name="oneseventh" unicode="&#x2150;" 
d="M118 -14l307 370l285 353l35 -26l-295 -349l-297 -375zM174 643l5 24q70 3 119 22h36l-67 -316q-4 -21 11 -31.5t52 -10.5l-4 -23h-219l3 23q40 1 59.5 10.5t25.5 31.5q8 40 27 127.5t29 133.5zM510 25q51 146 194 289q-22 -8 -54 -8q-12 0 -30 4q-25 5 -29 5
q-44 0 -68 -73h-37l45 132h40v-5q20 8 39 8q21 0 47 -12q24 -11 40 -11q34 0 83 30l16 -25q-80 -79 -126 -152.5t-75 -183.5q-8 -37 -50 -37q-49 0 -35 39z" />
    <glyph glyph-name="oneninth" unicode="&#x2151;" 
d="M118 -14l307 370l285 353l35 -26l-295 -349l-297 -375zM174 643l5 24q70 3 119 22h36l-67 -316q-4 -21 11 -31.5t52 -10.5l-4 -23h-219l3 23q40 1 59.5 10.5t25.5 31.5q8 40 27 127.5t29 133.5zM554 -17q-44 0 -68 18t-24 43q0 22 13.5 38t30.5 16q25 0 37.5 -11.5
t7.5 -27.5l-31 -26q11 -24 39 -24q37 0 69 45t49 109q-42 -32 -94 -32q-49 0 -74 25.5t-25 68.5q0 66 53 109t118 43q48 0 79.5 -30.5t31.5 -94.5q0 -105 -66.5 -187t-145.5 -82zM648 349q-40 0 -64 -41t-24 -89q0 -58 40 -58q19 0 44.5 17t46.5 48l-2 -1q8 35 8 58
q0 66 -49 66z" />
    <glyph glyph-name="onethird" unicode="&#x2153;" 
d="M118 -14l307 370l285 353l35 -26l-295 -349l-297 -375zM174 643l5 24q70 3 119 22h36l-67 -316q-4 -21 11 -31.5t52 -10.5l-4 -23h-219l3 23q40 1 59.5 10.5t25.5 31.5q8 40 27 127.5t29 133.5zM641 198l1 -5q81 -13 81 -84q0 -55 -52 -90.5t-133 -35.5q-45 0 -74 18
t-29 51q0 22 15 37.5t34 15.5q21 0 32.5 -13t6.5 -29l-31 -37q10 -15 41 -15q44 0 77.5 24t33.5 75q0 58 -46 58q-16 0 -62 -14l-7 30q75 24 110.5 52t35.5 68q0 45 -46 45q-31 0 -56 -18q14 -30 20 -46q-3 -15 -15.5 -24.5t-28.5 -9.5q-46 0 -46 32q0 44 45 69t96 25
q50 0 79.5 -19t29.5 -51q0 -66 -119 -111z" />
    <glyph glyph-name="twothirds" unicode="&#x2154;" 
d="M118 -14l307 370l285 353l35 -26l-295 -349l-297 -375zM134 367v-7h104q24 0 48 65h44l-33 -117h-264l-3 29l23 16q39 26 64 44.5t68 55.5t66.5 75t23.5 73q0 66 -47 66q-43 0 -69 -43l28 -45q-3 -21 -17.5 -33t-34.5 -12q-46 0 -46 42q0 51 47 85t98 34q57 0 88.5 -23.5
t31.5 -65.5q0 -35 -30.5 -75.5t-61 -65.5t-81.5 -62q-40 -30 -50 -38zM641 198l1 -5q81 -13 81 -84q0 -55 -52 -90.5t-133 -35.5q-45 0 -74 18t-29 51q0 22 15 37.5t34 15.5q21 0 32.5 -13t6.5 -29l-31 -37q10 -15 41 -15q44 0 77.5 24t33.5 75q0 58 -46 58q-16 0 -62 -14
l-7 30q75 24 110.5 52t35.5 68q0 45 -46 45q-31 0 -56 -18q14 -30 20 -46q-3 -15 -15.5 -24.5t-28.5 -9.5q-46 0 -46 32q0 44 45 69t96 25q50 0 79.5 -19t29.5 -51q0 -66 -119 -111z" />
    <glyph glyph-name="onefifth" unicode="&#x2155;" 
d="M118 -14l307 370l285 353l35 -26l-295 -349l-297 -375zM174 643l5 24q70 3 119 22h36l-67 -316q-4 -21 11 -31.5t52 -10.5l-4 -23h-219l3 23q40 1 59.5 10.5t25.5 31.5q8 40 27 127.5t29 133.5zM581 306l-26 -85q37 16 76 16q42 0 71.5 -23.5t29.5 -66.5q0 -72 -59 -118
t-137 -46q-36 0 -65.5 17.5t-29.5 46.5q0 23 16 40t36 17q39 0 39 -38l-35 -40q15 -15 47 -15q49 0 78.5 40.5t29.5 90.5q0 60 -43 60q-41 0 -80 -35h-35l61 208q51 -18 104 -18q58 0 112 24l-6 -28q-53 -50 -143 -50q-22 0 -41 3z" />
    <glyph glyph-name="twofifths" unicode="&#x2156;" 
d="M118 -14l307 370l285 353l35 -26l-295 -349l-297 -375zM134 367v-7h104q24 0 48 65h44l-33 -117h-264l-3 29l23 16q39 26 64 44.5t68 55.5t66.5 75t23.5 73q0 66 -47 66q-43 0 -69 -43l28 -45q-3 -21 -17.5 -33t-34.5 -12q-46 0 -46 42q0 51 47 85t98 34q57 0 88.5 -23.5
t31.5 -65.5q0 -35 -30.5 -75.5t-61 -65.5t-81.5 -62q-40 -30 -50 -38zM581 306l-26 -85q37 16 76 16q42 0 71.5 -23.5t29.5 -66.5q0 -72 -59 -118t-137 -46q-36 0 -65.5 17.5t-29.5 46.5q0 23 16 40t36 17q39 0 39 -38l-35 -40q15 -15 47 -15q49 0 78.5 40.5t29.5 90.5
q0 60 -43 60q-41 0 -80 -35h-35l61 208q51 -18 104 -18q58 0 112 24l-6 -28q-53 -50 -143 -50q-22 0 -41 3z" />
    <glyph glyph-name="threefifths" unicode="&#x2157;" 
d="M118 -14l307 370l285 353l35 -26l-295 -349l-297 -375zM269 516l1 -5q81 -13 81 -84q0 -55 -52 -90.5t-133 -35.5q-45 0 -74 18t-29 51q0 22 15 37.5t34 15.5q21 0 32.5 -13t6.5 -29l-31 -37q10 -15 41 -15q44 0 77.5 24t33.5 75q0 58 -46 58q-16 0 -62 -14l-7 30
q75 24 110.5 52t35.5 68q0 45 -46 45q-30 0 -56 -18q14 -30 20 -46q-3 -15 -15.5 -24.5t-28.5 -9.5q-46 0 -46 32q0 44 45 69t96 25q50 0 79.5 -19t29.5 -51q0 -66 -119 -111zM581 306l-26 -85q37 16 76 16q42 0 71.5 -23.5t29.5 -66.5q0 -72 -59 -118t-137 -46
q-36 0 -65.5 17.5t-29.5 46.5q0 23 16 40t36 17q39 0 39 -38l-35 -40q15 -15 47 -15q49 0 78.5 40.5t29.5 90.5q0 60 -43 60q-41 0 -80 -35h-35l61 208q51 -18 104 -18q58 0 112 24l-6 -28q-53 -50 -143 -50q-22 0 -41 3z" />
    <glyph glyph-name="fourfifths" unicode="&#x2158;" 
d="M118 -14l307 370l285 353l35 -26l-295 -349l-297 -375zM56 423l-3 13l259 260l33 -5l-51 -240h58l-5 -28h-59l-9 -39q-7 -33 6 -43t41 -10l-4 -23h-190l4 23q62 0 73 49l9 43h-162zM112 451h110l28 135l-130 -134zM581 306l-26 -85q37 16 76 16q42 0 71.5 -23.5
t29.5 -66.5q0 -72 -59 -118t-137 -46q-36 0 -65.5 17.5t-29.5 46.5q0 23 16 40t36 17q39 0 39 -38l-35 -40q15 -15 47 -15q49 0 78.5 40.5t29.5 90.5q0 60 -43 60q-41 0 -80 -35h-35l61 208q51 -18 104 -18q58 0 112 24l-6 -28q-53 -50 -143 -50q-22 0 -41 3z" />
    <glyph glyph-name="onesixth" unicode="&#x2159;" 
d="M118 -14l307 370l285 353l35 -26l-295 -349l-297 -375zM174 643l5 24q70 3 119 22h36l-67 -316q-4 -21 11 -31.5t52 -10.5l-4 -23h-219l3 23q40 1 59.5 10.5t25.5 31.5q8 40 27 127.5t29 133.5zM657 377q44 0 67.5 -21t23.5 -50q0 -20 -13.5 -34t-33.5 -14
q-24 0 -36.5 10.5t-7.5 25.5l34 32q-11 25 -39 25q-36 0 -69 -47.5t-50 -105.5q41 31 95 31q49 0 74.5 -24.5t25.5 -66.5q0 -70 -55.5 -112.5t-115.5 -42.5q-48 0 -80 30t-32 91q0 107 67.5 190t144.5 83zM563 12q38 0 62.5 40t24.5 80q0 68 -39 68q-19 0 -44.5 -17
t-46.5 -48l2 1q-8 -37 -8 -58q0 -66 49 -66z" />
    <glyph glyph-name="fivesixths" unicode="&#x215a;" 
d="M118 -14l307 370l285 353l35 -26l-295 -349l-297 -375zM218 624l-26 -85q37 16 76 16q42 0 71.5 -23.5t29.5 -66.5q0 -72 -59 -118t-137 -46q-36 0 -65.5 17.5t-29.5 46.5q0 23 16 40t36 17q39 0 39 -38l-35 -40q15 -15 47 -15q49 0 78.5 40.5t29.5 90.5q0 60 -43 60
q-41 0 -80 -35h-35l61 208q51 -18 104 -18q58 0 112 24l-6 -28q-53 -50 -143 -50q-21 0 -41 3zM657 377q44 0 67.5 -21t23.5 -50q0 -20 -13.5 -34t-33.5 -14q-24 0 -36.5 10.5t-7.5 25.5l34 32q-11 25 -39 25q-36 0 -69 -47.5t-50 -105.5q41 31 95 31q49 0 74.5 -24.5
t25.5 -66.5q0 -70 -55.5 -112.5t-115.5 -42.5q-48 0 -80 30t-32 91q0 107 67.5 190t144.5 83zM563 12q38 0 62.5 40t24.5 80q0 68 -39 68q-19 0 -44.5 -17t-46.5 -48l2 1q-8 -37 -8 -58q0 -66 49 -66z" />
    <glyph glyph-name="oneeighth" unicode="&#x215b;" 
d="M118 -14l307 370l285 353l35 -26l-295 -349l-297 -375zM174 643l5 24q70 3 119 22h36l-67 -316q-4 -21 11 -31.5t52 -10.5l-4 -23h-219l3 23q40 1 59.5 10.5t25.5 31.5q8 40 27 127.5t29 133.5zM672 195l-1 -4l-6 2q69 -28 69 -80q0 -59 -51.5 -94.5t-115.5 -35.5
q-55 0 -88 22.5t-33 61.5q0 33 32 62.5t78 46.5l-7 -2l1 2v3l5 -2q-54 29 -54 83q0 47 43.5 82t99.5 35q116 0 116 -81q0 -59 -94 -103zM573 12q40 0 65.5 23.5t25.5 54.5q0 53 -75 71q-30 -8 -53.5 -32t-23.5 -56q0 -29 16.5 -45t44.5 -16zM567 277q0 -51 65 -70
q60 29 60 84q0 27 -13.5 42.5t-38.5 15.5q-29 0 -51 -22.5t-22 -49.5z" />
    <glyph glyph-name="threeeighths" unicode="&#x215c;" 
d="M118 -14l307 370l285 353l35 -26l-295 -349l-297 -375zM269 516l1 -5q81 -13 81 -84q0 -55 -52 -90.5t-133 -35.5q-45 0 -74 18t-29 51q0 22 15 37.5t34 15.5q21 0 32.5 -13t6.5 -29l-31 -37q10 -15 41 -15q44 0 77.5 24t33.5 75q0 58 -46 58q-16 0 -62 -14l-7 30
q75 24 110.5 52t35.5 68q0 45 -46 45q-30 0 -56 -18q14 -30 20 -46q-3 -15 -15.5 -24.5t-28.5 -9.5q-46 0 -46 32q0 44 45 69t96 25q50 0 79.5 -19t29.5 -51q0 -66 -119 -111zM672 195l-1 -4l-6 2q69 -28 69 -80q0 -59 -51.5 -94.5t-115.5 -35.5q-55 0 -88 22.5t-33 61.5
q0 33 32 62.5t78 46.5l-7 -2l1 2v3l5 -2q-54 29 -54 83q0 47 43.5 82t99.5 35q116 0 116 -81q0 -59 -94 -103zM573 12q40 0 65.5 23.5t25.5 54.5q0 53 -75 71q-30 -8 -53.5 -32t-23.5 -56q0 -29 16.5 -45t44.5 -16zM567 277q0 -51 65 -70q60 29 60 84q0 27 -13.5 42.5
t-38.5 15.5q-29 0 -51 -22.5t-22 -49.5z" />
    <glyph glyph-name="fiveeighths" unicode="&#x215d;" 
d="M118 -14l307 370l285 353l35 -26l-295 -349l-297 -375zM218 624l-26 -85q37 16 76 16q42 0 71.5 -23.5t29.5 -66.5q0 -72 -59 -118t-137 -46q-36 0 -65.5 17.5t-29.5 46.5q0 23 16 40t36 17q39 0 39 -38l-35 -40q15 -15 47 -15q49 0 78.5 40.5t29.5 90.5q0 60 -43 60
q-41 0 -80 -35h-35l61 208q51 -18 104 -18q58 0 112 24l-6 -28q-53 -50 -143 -50q-21 0 -41 3zM672 195l-1 -4l-6 2q69 -28 69 -80q0 -59 -51.5 -94.5t-115.5 -35.5q-55 0 -88 22.5t-33 61.5q0 33 32 62.5t78 46.5l-7 -2l1 2v3l5 -2q-54 29 -54 83q0 47 43.5 82t99.5 35
q116 0 116 -81q0 -59 -94 -103zM573 12q40 0 65.5 23.5t25.5 54.5q0 53 -75 71q-30 -8 -53.5 -32t-23.5 -56q0 -29 16.5 -45t44.5 -16zM567 277q0 -51 65 -70q60 29 60 84q0 27 -13.5 42.5t-38.5 15.5q-29 0 -51 -22.5t-22 -49.5z" />
    <glyph glyph-name="seveneighths" unicode="&#x215e;" 
d="M118 -14l307 370l285 353l35 -26l-295 -349l-297 -375zM152 343q51 146 194 289q-22 -8 -54 -8q-12 0 -30 4q-25 5 -29 5q-44 0 -68 -73h-37l45 132h40v-5q20 8 39 8q21 0 47 -12q24 -11 40 -11q34 0 83 30l16 -25q-80 -79 -126 -152.5t-75 -183.5q-8 -37 -50 -37
q-49 0 -35 39zM672 195l-1 -4l-6 2q69 -28 69 -80q0 -59 -51.5 -94.5t-115.5 -35.5q-55 0 -88 22.5t-33 61.5q0 33 32 62.5t78 46.5l-7 -2l1 2v3l5 -2q-54 29 -54 83q0 47 43.5 82t99.5 35q116 0 116 -81q0 -59 -94 -103zM573 12q40 0 65.5 23.5t25.5 54.5q0 53 -75 71
q-30 -8 -53.5 -32t-23.5 -56q0 -29 16.5 -45t44.5 -16zM567 277q0 -51 65 -70q60 29 60 84q0 27 -13.5 42.5t-38.5 15.5q-29 0 -51 -22.5t-22 -49.5z" />
    <glyph glyph-name="uni2191" unicode="&#x2191;" horiz-adv-x="704" 
d="M359 605l264 -237l-46 -61l-183 163v-420h-84v420l-183 -163l-47 61l266 237h13z" />
    <glyph glyph-name="uni2193" unicode="&#x2193;" horiz-adv-x="704" 
d="M623 287l-264 -237h-13l-266 237l47 61l183 -163v420h84v-420l183 163z" />
    <glyph glyph-name="partialdiff" unicode="&#x2202;" horiz-adv-x="544" 
d="M285 594q-84 0 -109 -130h-40l12 113q20 25 62 43t86 18q94 0 143 -78t49 -201q0 -179 -71 -275t-190 -96q-71 0 -121 48t-50 134q0 105 66 167t146 62q39 0 75 -18t53 -51l5 3v39q0 113 -27.5 167.5t-88.5 54.5zM383 270q-10 33 -37 55t-58 22q-55 0 -92.5 -48.5
t-37.5 -129.5q0 -60 21.5 -94.5t62.5 -34.5q57 0 99 63t42 167z" />
    <glyph glyph-name="product" unicode="&#x220f;" horiz-adv-x="544" 
d="M4 626h536v-40l-78 -15v-516l78 -15v-40h-252v40l78 15v516h-188v-516l78 -15v-40h-252v40l78 15v516l-78 15v40z" />
    <glyph glyph-name="summation" unicode="&#x2211;" horiz-adv-x="544" 
d="M148 89l5 -10h250l86 111h41l-50 -190h-465l-8 15l262 270v12l-242 317l8 12h441l26 -171h-36l-89 131h-210l-5 -7l198 -256v-16z" />
    <glyph glyph-name="minus" unicode="&#x2212;" horiz-adv-x="620" 
d="M570 230h-520v60h520v-60z" />
    <glyph glyph-name="radical" unicode="&#x221a;" horiz-adv-x="544" 
d="M319 61h13l152 695l49 -10l-184 -883h-37l-195 526l-98 -35l-16 37l175 59z" />
    <glyph glyph-name="infinity" unicode="&#x221e;" horiz-adv-x="544" 
d="M129 149q-60 0 -92 38.5t-32 88.5q0 54 36.5 92.5t87.5 38.5q74 0 141 -92q33 43 66.5 67.5t77.5 24.5q61 0 92.5 -38t31.5 -89q0 -54 -36.5 -92.5t-87.5 -38.5q-75 0 -141 91q-70 -91 -144 -91zM146 357q-33 0 -54 -22t-21 -59q0 -36 20.5 -57.5t50.5 -21.5q18 0 37 13
t31.5 28t33.5 43q-27 37 -49.5 56.5t-48.5 19.5zM397 199q33 0 54 22t21 59q0 35 -21 57t-50 22q-18 0 -37 -13.5t-31.5 -28t-33.5 -43.5q26 -37 48.5 -56t49.5 -19z" />
    <glyph glyph-name="integral" unicode="&#x222b;" horiz-adv-x="544" 
d="M305 497l12 -487q2 -94 -48 -154t-127 -60q-31 0 -53 17t-22 49q0 21 12.5 37.5t36.5 16.5q50 0 57 -64l26 -7q19 18 31 63.5t10 91.5l-12 487q-2 95 47.5 154t125.5 59q32 0 54.5 -16.5t22.5 -48.5q0 -21 -13 -37.5t-37 -16.5q-49 0 -56 64l-26 7q-44 -41 -41 -155z" />
    <glyph glyph-name="approxequal" unicode="&#x2248;" horiz-adv-x="544" 
d="M431 388l53 -22q-16 -49 -48.5 -82.5t-82.5 -33.5q-35 0 -89.5 36t-79.5 36q-24 0 -43 -10.5t-26.5 -20.5t-20.5 -31l-44 32q17 33 53.5 61t80.5 28q34 0 89 -35t81 -35q28 0 49.5 23t27.5 54zM447 229l47 -23q-14 -40 -51 -68t-78 -28q-43 0 -100.5 35.5t-80.5 35.5
q-39 0 -72 -64l-46 30q52 93 118 93q32 0 90 -35t91 -35q30 0 51.5 17t30.5 42z" />
    <glyph glyph-name="notequal" unicode="&#x2260;" horiz-adv-x="620" 
d="M482 491l-65 -121h153v-60h-185l-64 -120h249v-60h-281l-86 -160l-56 27l71 133h-168v60h200l64 120h-264v60h296l80 148z" />
    <glyph glyph-name="lessequal" unicode="&#x2264;" horiz-adv-x="620" 
d="M570 0h-520v60h520v-60zM570 545l-454 -179l454 -179v-57l-520 205v62l520 205v-57z" />
    <glyph glyph-name="greaterequal" unicode="&#x2265;" horiz-adv-x="620" 
d="M570 0h-520v60h520v-60zM504 366l-454 179v57l520 -205v-62l-520 -205v57z" />
    <glyph glyph-name="lozenge" unicode="&#x25ca;" horiz-adv-x="544" 
d="M271 -98l-245 373l245 375l246 -375zM110 275l161 -246l162 246l-162 248z" />
    <glyph glyph-name="uni2605" unicode="&#x2605;" horiz-adv-x="574" 
d="M129 -8l-4 3l66 186l-166 118l2 5l201 -7l57 193h6l58 -193l199 5l1 -4l-163 -117l66 -188l-3 -1l-161 118z" />
    <glyph glyph-name="commaaccent" unicode="&#xf6c3;" horiz-adv-x="500" 
d="M196 -88q0 14 11 23t28 9q20 0 36 -19t16 -48q0 -52 -34.5 -90t-91.5 -38v31q31 0 48 18t17 40q0 20 -15 40.5t-15 33.5z" />
    <glyph glyph-name="apple" unicode="&#xf8ff;" horiz-adv-x="544" 
d="M211 720h11l32 -121l-3 -82l68 -8l64 99l8 99h12l7 -99l-17 -129l36 -85l35 -38l1 -6l-7 -8v-18l8 -4l-1 -9l-17 -36l-36 7l-11 101l-34 56l-13 -2l26 -60l4 -99l-37 -46l3 -22l26 -37l7 -71l-64 -23l-33 16l-35 57l-75 25l-28 47l-3 42l-30 41l-2 58l4 27l-11 44z
M489 244l6 -9l-3 -37l-12 -17l-5 -33l23 -8l-3 -10l-23 7l-43 -26l-5 10l39 23l5 36l-36 14l-13 31l-1 10l14 15l24 4zM272 305l36 -14l11 13l-3 14l-11 10l-30 -10zM329 64l3 -4l-7 -21l-40 -43l-68 -23l-97 14l-55 48l-18 62l34 95l11 -1l-9 -71l22 -41l37 -33l88 -16
l48 3zM144 438l9 -9l33 34l11 76h-18z" />
    <glyph glyph-name="zero.tnum" horiz-adv-x="594" 
d="M580 491q0 -136 -43.5 -251t-123 -183.5t-176.5 -68.5q-83 0 -132.5 50t-49.5 155q0 130 50 248.5t131 189t168 70.5q75 0 125.5 -54.5t50.5 -155.5zM252 33q70 0 124 71.5t80.5 177t26.5 220.5q0 79 -23.5 117t-75.5 38q-64 0 -119.5 -84t-84 -193.5t-28.5 -201.5
q0 -79 23 -112t77 -33z" />
    <glyph glyph-name="one.tnum" horiz-adv-x="594" 
d="M203 610l9 41q119 7 206 39h40l-122 -576q-9 -42 17.5 -61t97.5 -19l-7 -34h-366l7 34q78 4 112 20t43 60l102 481z" />
    <glyph glyph-name="two.tnum" horiz-adv-x="594" 
d="M158 104v-16h210q28 0 56 32.5t46 86.5h45l-58 -207h-448l-5 50q7 5 58 39.5t92.5 64.5t100.5 80t99 95t69.5 100t29.5 104q0 65 -30 94.5t-74 29.5q-93 0 -143 -80l48 -81q-5 -37 -26.5 -60t-49.5 -23q-32 0 -49.5 20t-17.5 54q0 62 40 112.5t96.5 76t112.5 25.5
q95 0 148.5 -42t53.5 -117q0 -50 -28 -101.5t-79 -100.5t-97 -86t-110 -83t-90 -67z" />
    <glyph glyph-name="three.tnum" horiz-adv-x="594" 
d="M373 376l2 -11q62 -7 104 -44.5t42 -105.5q0 -101 -89.5 -164t-230.5 -63q-75 0 -123 31.5t-48 89.5q0 39 22 67t50 28q32 0 47.5 -23.5t6.5 -52.5l-57 -66q21 -32 94 -32q40 0 77 10t70.5 31t53.5 58.5t20 86.5q0 109 -103 109q-43 0 -97 -17l-10 42q137 44 202 96
t65 124q0 89 -103 89q-70 0 -119 -40l35 -81q-5 -26 -22.5 -43t-39.5 -17q-31 0 -48.5 14.5t-17.5 40.5q0 78 75.5 123t164.5 45q83 0 132.5 -33t49.5 -92q0 -64 -58 -115.5t-147 -84.5z" />
    <glyph glyph-name="four.tnum" horiz-adv-x="594" 
d="M39 210l-5 25l464 466l33 -5l-93 -441h107l-10 -45h-107l-16 -75q-14 -63 9.5 -82t75.5 -19l-7 -34h-311l7 34q57 0 88.5 19t43.5 75l17 82h-296zM124 260l1 -5h217l60 280l-7 4z" />
    <glyph glyph-name="five.tnum" horiz-adv-x="594" 
d="M205 406l7 -5q79 45 154 45q69 0 117.5 -42.5t48.5 -120.5q0 -130 -102.5 -212.5t-237.5 -82.5q-61 0 -108.5 29.5t-47.5 82.5q0 41 22.5 70.5t52.5 29.5q56 0 56 -67l-64 -71q24 -32 104 -32q66 0 116.5 38t75 93t24.5 114t-24.5 85.5t-74.5 26.5q-84 0 -155 -64h-35
l108 368q78 -26 176 -26q113 0 185 32l-9 -39q-89 -85 -244 -85q-50 0 -93 10z" />
    <glyph glyph-name="six.tnum" horiz-adv-x="594" 
d="M433 701q72 0 110.5 -37.5t38.5 -88.5q0 -36 -19.5 -60t-49.5 -24q-35 0 -51 19.5t-8 48.5l57 53q-17 50 -87 50q-54 0 -106.5 -52.5t-85.5 -121t-49 -136.5l7 -4q80 83 190 83q81 0 123.5 -44.5t42.5 -119.5q0 -66 -29 -121t-74 -88t-95.5 -51.5t-98.5 -18.5
q-80 0 -133 53.5t-53 164.5q0 96 33.5 188.5t86 158.5t119.5 107t131 41zM260 33q54 0 97 38.5t62.5 88.5t19.5 97q0 127 -89 127q-43 0 -93.5 -31.5t-89.5 -88.5q-14 -65 -14 -107q0 -124 107 -124z" />
    <glyph glyph-name="seven.tnum" horiz-adv-x="594" 
d="M522 592l-8 10q-41 -24 -108 -24q-18 0 -53.5 8t-55.5 8q-96 0 -141 -133h-35l83 235h37l2 -22q47 27 88 27q34 0 80 -20.5t79 -20.5q68 0 146 46l22 -34q-79 -76 -130 -134.5t-99 -131t-82 -156.5t-62 -193q-4 -18 -8.5 -29t-21.5 -23t-43 -12q-69 0 -46 66
q100 284 356 533z" />
    <glyph glyph-name="eight.tnum" horiz-adv-x="594" 
d="M414 370l-1 -6q115 -48 115 -143q0 -71 -44.5 -126t-109 -81t-134.5 -26q-93 0 -148 40t-55 109q0 61 55 114t134 81l2 9q-89 50 -89 149q0 85 73.5 148t170.5 63q98 0 145.5 -38.5t47.5 -105.5q0 -107 -162 -187zM362 387q125 58 125 161q0 49 -29.5 79.5t-83.5 30.5
q-60 0 -105.5 -42.5t-45.5 -94.5q0 -45 36.5 -79.5t102.5 -54.5zM252 33q81 0 133 44t52 101q0 48 -41 83t-117 54q-62 -18 -109 -62.5t-47 -105.5q0 -54 35 -84t94 -30z" />
    <glyph glyph-name="nine.tnum" horiz-adv-x="594" 
d="M210 -12q-73 0 -112.5 31.5t-39.5 74.5q0 39 19.5 67t45.5 28q37 0 53.5 -21t8.5 -52l-54 -43q19 -46 87 -46q82 0 147 91.5t94 218.5l-7 4q-78 -83 -190 -83q-79 0 -121 45.5t-42 121.5q0 119 92 197.5t204 78.5q79 0 132 -54.5t53 -169.5q0 -126 -54.5 -240
t-140 -181.5t-175.5 -67.5zM383 657q-55 0 -97.5 -38.5t-62.5 -93t-20 -111.5q0 -109 90 -109q42 0 93 31.5t90 88.5q13 61 13 108q0 124 -106 124z" />
    <glyph glyph-name="exclamdown.case" horiz-adv-x="359" 
d="M339 657q0 -28 -18 -46.5t-46 -18.5t-47 18.5t-19 46.5q0 27 19 45t47 18t46 -18t18 -45zM102 108q1 3 17 46.5t25.5 72t25 77t29.5 99.5t25 102l43 -8q-48 -232 -48 -404q0 -42 -15 -72t-50 -30q-34 0 -49 17t-15 41q0 13 12 59z" />
    <glyph glyph-name="questiondown.case" horiz-adv-x="473" 
d="M444 657q0 -30 -19 -47t-45 -17q-27 0 -46.5 17t-19.5 47q0 27 19 45t47 18t46 -18t18 -45zM69 111q0 38 27.5 74t67 64t78.5 54.5t66.5 54t27.5 53.5q0 43 -51 43q-20 0 -39.5 -15t-26.5 -54l-41 11q29 107 123 107q46 0 82 -24t36 -70q0 -35 -27 -68.5t-65.5 -60.5
t-77.5 -54t-66 -59.5t-27 -67.5q0 -28 16 -45.5t45 -17.5q49 0 80 38t31 121l43 12q1 -9 1 -26q0 -87 -43 -138.5t-117 -51.5q-67 0 -105 34.5t-38 85.5z" />
    <glyph glyph-name="hyphen.case" horiz-adv-x="318" 
d="M63 362h254v-69h-254v69z" />
    <glyph glyph-name="endash.case" horiz-adv-x="488" 
d="M72 362h406v-69h-406v69z" />
    <glyph glyph-name="emdash.case" horiz-adv-x="1000" 
d="M116 357h828v-59h-828v59z" />
    <glyph glyph-name="guilsinglleft.case" horiz-adv-x="445" 
d="M147 330l244 219l32 -30l-187 -204l-5 -15l49 -200l-40 -14l-100 221z" />
    <glyph glyph-name="guilsinglright.case" horiz-adv-x="445" 
d="M358 305l-244 -219l-32 30l187 204l5 15l-49 200l40 14l100 -221z" />
    <glyph glyph-name="guillemotleft.case" horiz-adv-x="652" 
d="M147 330l244 219l32 -30l-187 -204l-5 -15l49 -200l-40 -14l-100 221zM354 330l244 219l32 -30l-187 -204l-5 -15l49 -200l-40 -14l-100 221z" />
    <glyph glyph-name="guillemotright.case" horiz-adv-x="652" 
d="M565 305l-244 -219l-32 30l187 204l5 15l-49 200l40 14l100 -221zM358 305l-244 -219l-32 30l187 204l5 15l-49 200l40 14l100 -221z" />
    <glyph glyph-name="parenleft.case" horiz-adv-x="322" 
d="M238 -151l-35 -35q-68 66 -109.5 172t-41.5 220q0 81 18 156t46.5 133.5t74 118.5t88.5 104.5t102 97.5l30 -35q-273 -263 -273 -603q0 -114 23.5 -190t76.5 -139z" />
    <glyph glyph-name="parenright.case" horiz-adv-x="322" 
d="M128 781l35 35q68 -66 109.5 -172t41.5 -220q0 -81 -18 -156t-46.5 -133.5t-74 -118.5t-88.5 -104.5t-102 -97.5l-30 35q273 263 273 603q0 114 -23.5 190t-76.5 139z" />
    <glyph glyph-name="bracketleft.case" horiz-adv-x="335" 
d="M429 798l-10 -48q-79 -15 -151 -5l-179 -852q68 6 156 -6l-11 -51q-39 6 -110 6.5t-123 -5.5l200 960q50 -5 121.5 -5t106.5 6z" />
    <glyph glyph-name="bracketright.case" horiz-adv-x="335" 
d="M-37 -164l10 48q79 15 151 5l179 852q-68 -6 -156 6l11 51q39 -6 110 -6.5t123 5.5l-200 -960q-50 5 -121.5 5t-106.5 -6z" />
    <glyph glyph-name="braceleft.case" horiz-adv-x="435" 
d="M159 326l-2 -16q48 -7 81 -38.5t37 -75.5q4 -34 -20.5 -81.5t-49 -94.5t-21.5 -80q7 -66 140 -66l-9 -42q-199 0 -211 107q-3 31 11.5 69.5t33 68t33 65t12.5 61.5q-4 42 -40 63.5t-95 21.5l14 66q92 0 141 57.5t42 127.5q-1 7 -2 20t-2 23.5t-2 19.5q-9 99 52 148
t211 48l-9 -42q-97 0 -138.5 -34.5t-34.5 -115.5l7 -69q7 -74 -45.5 -139t-133.5 -72z" />
    <glyph glyph-name="braceright.case" horiz-adv-x="435" 
d="M300 305l2 16q-48 7 -81 38.5t-37 75.5q-4 34 20.5 81.5t49 94.5t21.5 80q-7 66 -140 66l9 42q199 0 211 -107q3 -31 -11.5 -69.5t-33 -68t-33 -65t-12.5 -61.5q4 -42 40 -63.5t95 -21.5l-14 -66q-92 0 -141 -57.5t-42 -127.5q1 -7 2 -20t2 -23.5t2 -19.5q9 -99 -52 -148
t-211 -48l9 42q97 0 138.5 34.5t34.5 115.5l-7 69q-7 74 45.5 139t133.5 72z" />
    <glyph glyph-name="zero.onum" horiz-adv-x="594" 
d="M562 350q0 -89 -30 -161t-77.5 -114.5t-101.5 -64.5t-107 -22q-93 0 -144.5 49t-51.5 141q0 145 94 250.5t221 105.5q197 0 197 -184zM256 33q85 0 143 92t58 227q0 138 -102 138q-57 0 -104.5 -53t-70.5 -123.5t-23 -135.5q0 -145 99 -145z" />
    <glyph glyph-name="one.onum" horiz-adv-x="491" 
d="M123 450l9 41q119 7 206 39h40l-88 -416q-9 -42 17.5 -61t97.5 -19l-7 -34h-366l7 34q78 4 112 20t43 60l68 321z" />
    <glyph glyph-name="two.onum" horiz-adv-x="556" 
d="M185 100l1 -12h164q31 0 59 21t43 55h37l-62 -164h-408l-2 58q5 3 43.5 23.5t66 37t72.5 44.5t77 55t63.5 58.5t48.5 64.5t17 65q0 44 -27.5 64t-67.5 20q-78 0 -116 -65l33 -66q-4 -27 -22 -43t-42 -16q-62 0 -62 63q0 70 70 120.5t153 50.5q88 0 138 -34t50 -95
q0 -23 -10.5 -47.5t-24 -44.5t-40 -44t-46 -39.5t-55 -38.5t-52.5 -33t-54 -31.5t-45 -26.5z" />
    <glyph glyph-name="three.onum" horiz-adv-x="568" 
d="M320 209l2 -11q62 -7 104 -44.5t42 -105.5q0 -101 -89.5 -164t-230.5 -63q-75 0 -123 31.5t-48 89.5q0 39 22 67t50 28q32 0 47.5 -23.5t6.5 -52.5l-57 -66q21 -32 94 -32q40 0 77 10t70.5 31t53.5 58.5t20 86.5q0 109 -103 109q-43 0 -97 -17l-10 42q137 44 202 96
t65 124q0 89 -103 89q-70 0 -119 -40l35 -81q-5 -26 -22.5 -43t-39.5 -17q-31 0 -48.5 14.5t-17.5 40.5q0 78 75.5 123t164.5 45q83 0 132.5 -33t49.5 -92q0 -64 -58 -115.5t-147 -84.5z" />
    <glyph glyph-name="four.onum" horiz-adv-x="585" 
d="M3 43l-5 25l464 466l33 -5l-93 -441h107l-10 -45h-107l-16 -75q-14 -63 9.5 -82t75.5 -19l-7 -34h-311l7 34q57 0 88.5 19t43.5 75l17 82h-296zM88 93l1 -5h217l60 280l-7 4z" />
    <glyph glyph-name="five.onum" horiz-adv-x="574" 
d="M160 239l7 -5q79 45 154 45q69 0 117.5 -42.5t48.5 -120.5q0 -130 -102.5 -212.5t-237.5 -82.5q-61 0 -108.5 29.5t-47.5 82.5q0 41 22.5 70.5t52.5 29.5q56 0 56 -67l-64 -71q24 -32 104 -32q66 0 116.5 38t75 93t24.5 114t-24.5 85.5t-74.5 26.5q-84 0 -155 -64h-35
l108 368q78 -26 176 -26q113 0 185 32l-9 -39q-89 -85 -244 -85q-50 0 -93 10z" />
    <glyph glyph-name="six.onum" horiz-adv-x="606" 
d="M438 701q72 0 110.5 -37.5t38.5 -88.5q0 -36 -19.5 -60t-49.5 -24q-35 0 -51 19.5t-8 48.5l57 53q-17 50 -87 50q-54 0 -106.5 -52.5t-85.5 -121t-49 -136.5l7 -4q80 83 190 83q81 0 123.5 -44.5t42.5 -119.5q0 -66 -29 -121t-74 -88t-95.5 -51.5t-98.5 -18.5
q-80 0 -133 53.5t-53 164.5q0 96 33.5 188.5t86 158.5t119.5 107t131 41zM265 33q54 0 97 38.5t62.5 88.5t19.5 97q0 127 -89 127q-43 0 -93.5 -31.5t-89.5 -88.5q-14 -65 -14 -107q0 -124 107 -124z" />
    <glyph glyph-name="seven.onum" horiz-adv-x="554" 
d="M469 425l-8 10q-41 -24 -108 -24q-18 0 -53.5 8t-55.5 8q-96 0 -141 -133h-35l83 235h37l2 -22q47 27 88 27q34 0 80 -20.5t79 -20.5q68 0 146 46l22 -34q-79 -76 -130 -134.5t-99 -131t-82 -156.5t-62 -193q-4 -18 -8.5 -29t-21.5 -23t-43 -12q-69 0 -46 66
q100 284 356 533z" />
    <glyph glyph-name="eight.onum" horiz-adv-x="585" 
d="M410 370l-1 -6q115 -48 115 -143q0 -71 -44.5 -126t-109 -81t-134.5 -26q-93 0 -148 40t-55 109q0 61 55 114t134 81l2 9q-89 50 -89 149q0 85 73.5 148t170.5 63q98 0 145.5 -38.5t47.5 -105.5q0 -107 -162 -187zM358 387q125 58 125 161q0 49 -29.5 79.5t-83.5 30.5
q-60 0 -105.5 -42.5t-45.5 -94.5q0 -45 36.5 -79.5t102.5 -54.5zM248 33q81 0 133 44t52 101q0 48 -41 83t-117 54q-62 -18 -109 -62.5t-47 -105.5q0 -54 35 -84t94 -30z" />
    <glyph glyph-name="nine.onum" horiz-adv-x="606" 
d="M178 -179q-73 0 -112.5 31.5t-39.5 74.5q0 39 19.5 67t45.5 28q37 0 53.5 -21t8.5 -52l-54 -43q19 -46 87 -46q82 0 147 91.5t94 218.5l-7 4q-78 -83 -190 -83q-79 0 -121 45.5t-42 121.5q0 119 92 197.5t204 78.5q79 0 132 -54.5t53 -169.5q0 -126 -54.5 -240
t-140 -181.5t-175.5 -67.5zM351 490q-55 0 -97.5 -38.5t-62.5 -93t-20 -111.5q0 -109 90 -109q42 0 93 31.5t90 88.5q13 61 13 108q0 124 -106 124z" />
    <glyph glyph-name="zero.onum.tnum" horiz-adv-x="594" 
d="M562 350q0 -89 -30 -161t-77.5 -114.5t-101.5 -64.5t-107 -22q-93 0 -144.5 49t-51.5 141q0 145 94 250.5t221 105.5q197 0 197 -184zM256 33q85 0 143 92t58 227q0 138 -102 138q-57 0 -104.5 -53t-70.5 -123.5t-23 -135.5q0 -145 99 -145z" />
    <glyph glyph-name="one.onum.tnum" horiz-adv-x="594" 
d="M173 450l9 41q119 7 206 39h40l-88 -416q-9 -42 17.5 -61t97.5 -19l-7 -34h-366l7 34q78 4 112 20t43 60l68 321z" />
    <glyph glyph-name="two.onum.tnum" horiz-adv-x="594" 
d="M207 100l1 -12h164q31 0 59 21t43 55h37l-62 -164h-408l-2 58q5 3 43.5 23.5t66 37t72.5 44.5t77 55t63.5 58.5t48.5 64.5t17 65q0 44 -27.5 64t-67.5 20q-78 0 -116 -65l33 -66q-4 -27 -22 -43t-42 -16q-62 0 -62 63q0 70 70 120.5t153 50.5q88 0 138 -34t50 -95
q0 -23 -10.5 -47.5t-24 -44.5t-40 -44t-46 -39.5t-55 -38.5t-52.5 -33t-54 -31.5t-45 -26.5z" />
    <glyph glyph-name="three.onum.tnum" horiz-adv-x="594" 
d="M348 210l2 -11q62 -7 104 -44.5t42 -105.5q0 -101 -89.5 -164t-230.5 -63q-75 0 -123 31.5t-48 89.5q0 39 22 67t50 28q32 0 47.5 -23.5t6.5 -52.5l-57 -66q21 -32 94 -32q40 0 77 10t70.5 31t53.5 58.5t20 86.5q0 109 -103 109q-43 0 -97 -17l-10 42q137 44 202 96
t65 124q0 89 -103 89q-70 0 -119 -40l35 -81q-5 -26 -22.5 -43t-39.5 -17q-31 0 -48.5 14.5t-17.5 40.5q0 78 75.5 123t164.5 45q83 0 132.5 -33t49.5 -92q0 -64 -58 -115.5t-147 -84.5z" />
    <glyph glyph-name="four.onum.tnum" horiz-adv-x="594" 
d="M26 44l-5 25l464 466l33 -5l-93 -441h107l-10 -45h-107l-16 -75q-14 -63 9.5 -82t75.5 -19l-7 -34h-311l7 34q57 0 88.5 19t43.5 75l17 82h-296zM111 94l1 -5h217l60 280l-7 4z" />
    <glyph glyph-name="five.onum.tnum" horiz-adv-x="594" 
d="M168 240l7 -5q79 45 154 45q69 0 117.5 -42.5t48.5 -120.5q0 -130 -102.5 -212.5t-237.5 -82.5q-61 0 -108.5 29.5t-47.5 82.5q0 41 22.5 70.5t52.5 29.5q56 0 56 -67l-64 -71q24 -32 104 -32q66 0 116.5 38t75 93t24.5 114t-24.5 85.5t-74.5 26.5q-84 0 -155 -64h-35
l108 368q78 -26 176 -26q113 0 185 32l-9 -39q-89 -85 -244 -85q-50 0 -93 10z" />
    <glyph glyph-name="six.onum.tnum" horiz-adv-x="594" 
d="M431 701q72 0 110.5 -37.5t38.5 -88.5q0 -36 -19.5 -60t-49.5 -24q-35 0 -51 19.5t-8 48.5l57 53q-17 50 -87 50q-54 0 -106.5 -52.5t-85.5 -121t-49 -136.5l7 -4q80 83 190 83q81 0 123.5 -44.5t42.5 -119.5q0 -66 -29 -121t-74 -88t-95.5 -51.5t-98.5 -18.5
q-80 0 -133 53.5t-53 164.5q0 96 33.5 188.5t86 158.5t119.5 107t131 41zM258 33q54 0 97 38.5t62.5 88.5t19.5 97q0 127 -89 127q-43 0 -93.5 -31.5t-89.5 -88.5q-14 -65 -14 -107q0 -124 107 -124z" />
    <glyph glyph-name="seven.onum.tnum" horiz-adv-x="594" 
d="M490 426l-8 10q-41 -24 -108 -24q-18 0 -53.5 8t-55.5 8q-96 0 -141 -133h-35l83 235h37l2 -22q47 27 88 27q34 0 80 -20.5t79 -20.5q68 0 146 46l22 -34q-79 -76 -130 -134.5t-99 -131t-82 -156.5t-62 -193q-4 -18 -8.5 -29t-21.5 -23t-43 -12q-69 0 -46 66
q100 284 356 533z" />
    <glyph glyph-name="eight.onum.tnum" horiz-adv-x="594" 
d="M417 370l-1 -6q115 -48 115 -143q0 -71 -44.5 -126t-109 -81t-134.5 -26q-93 0 -148 40t-55 109q0 61 55 114t134 81l2 9q-89 50 -89 149q0 85 73.5 148t170.5 63q98 0 145.5 -38.5t47.5 -105.5q0 -107 -162 -187zM365 387q125 58 125 161q0 49 -29.5 79.5t-83.5 30.5
q-60 0 -105.5 -42.5t-45.5 -94.5q0 -45 36.5 -79.5t102.5 -54.5zM255 33q81 0 133 44t52 101q0 48 -41 83t-117 54q-62 -18 -109 -62.5t-47 -105.5q0 -54 35 -84t94 -30z" />
    <glyph glyph-name="nine.onum.tnum" horiz-adv-x="594" 
d="M178 -178q-73 0 -112.5 31.5t-39.5 74.5q0 39 19.5 67t45.5 28q37 0 53.5 -21t8.5 -52l-54 -43q19 -46 87 -46q82 0 147 91.5t94 218.5l-7 4q-78 -83 -190 -83q-79 0 -121 45.5t-42 121.5q0 119 92 197.5t204 78.5q79 0 132 -54.5t53 -169.5q0 -126 -54.5 -240
t-140 -181.5t-175.5 -67.5zM351 491q-55 0 -97.5 -38.5t-62.5 -93t-20 -111.5q0 -109 90 -109q42 0 93 31.5t90 88.5q13 61 13 108q0 124 -106 124z" />
    <glyph glyph-name="dollar.onum" horiz-adv-x="513" 
d="M105 89l-20 -37l-34 6l28 171l34 -5q1 -127 92 -164l39 186l-8 4q-60 32 -89 66.5t-29 79.5q0 16 3 32q11 49 50 76.5t92 27.5q17 0 35 -3l6 -2l18 86l42 -8l-20 -91q43 -19 80 -55l20 26l34 -5l-30 -149l-31 4q-13 106 -80 143l-37 -171q8 -5 19 -10q126 -59 126 -140
q0 -19 -4 -36q-11 -48 -54 -79.5t-99 -31.5q-16 0 -42 4q-1 0 -3.5 0.5t-4.5 0.5l-20 -94l-41 6l21 100q-62 23 -93 62zM375 106q6 29 -14.5 56.5t-77.5 61.5l-38 -175q2 -1 6 -1q17 -3 32 -3q37 0 61 17.5t31 43.5zM189 436q-10 -49 73 -106l35 164q-4 0 -5 1
q-41 7 -68.5 -11t-34.5 -48z" />
    <glyph glyph-name="cent.onum" horiz-adv-x="372" 
d="M318 204l29 -17q-48 -80 -130 -80q-16 0 -25 2l-17 -74l-35 7l18 76q-48 17 -77 54t-29 92q0 24 6 49q15 67 65 106.5t111 39.5h5l17 72l35 -7l-17 -70q48 -12 77 -43.5t21 -67.5q-13 -50 -57 -42q-22 5 -30.5 21t-2.5 37l26 26q-3 30 -41 38l-65 -272q6 -2 9 -2
q33 -8 62 8.5t45 46.5zM131 252q0 -60 38 -86l61 258q-66 -12 -92 -117q-7 -28 -7 -55z" />
    <glyph glyph-name="sterling.onum" horiz-adv-x="509" 
d="M92 304h67q-7 33 -7 60q0 20 4 33v-1q15 69 73.5 107t123.5 38q68 0 101 -31.5t27 -62.5q-6 -18 -20.5 -30t-28.5 -12q-12 0 -20 7.5t-11 15.5t-7 24v-1q-5 19 -8 27t-13.5 18t-27.5 10q-30 0 -57 -23.5t-37 -70.5q-4 -16 -4 -33t6 -49l4 -26h129l-8 -40h-118
q-1 -10 -5 -32q-19 -86 -74 -130l3 -6q24 13 45 13q16 0 30 -7t20.5 -13.5t19.5 -20.5q25 -33 53 -33q31 0 36 29q3 9 -10 22q-14 17 -11 34q2 13 14 23t28 10q23 0 32 -17.5t2 -48.5q-11 -45 -50.5 -71t-82.5 -26q-57 0 -103 24t-65 51h-2q-62 -75 -108 -75q-12 0 -18 6.5
t-4 15.5q6 24 40.5 45t78.5 34q22 33 39 95v1q4 15 4 33q0 14 -4 44h-86z" />
    <glyph glyph-name="yen.onum" horiz-adv-x="525" 
d="M587 477l-3 -2q-51 0 -101 -55l-144 -176h98l-9 -40h-109l-8 -39h108l-8 -41h-110l-6 -30q-5 -22 -5 -32q0 -19 14.5 -23.5t56.5 -4.5l-6 -34h-246l6 34q49 0 67 13.5t27 46.5l7 30h-129l8 41h130l9 39h-130l10 40h116l-72 168q-19 37 -35 50t-52 13l6 33h233l-5 -33
q-44 0 -58 -10t-1 -36l68 -159l130 159q13 14 13 26q0 19 -41 20l6 33h171z" />
    <glyph glyph-name="Euro.onum" horiz-adv-x="555" 
d="M88 323h57q42 98 117 157.5t156 59.5q92 0 156 -54l-52 -108h-31q6 20 6 41q0 42 -27.5 61.5t-60.5 19.5q-52 0 -98.5 -44.5t-77.5 -132.5h264l-21 -40h-255q-4 -12 -7 -29l-3 -12h244l-20 -41h-231q-1 -12 -1 -34q0 -66 27.5 -100.5t69.5 -34.5q94 0 150 102l36 -12
q-72 -132 -203 -132q-76 0 -123.5 48t-47.5 134q0 19 1 29h-63l19 41h50l3 11q2 10 8 30h-62z" />
    <glyph glyph-name="numbersign.onum" horiz-adv-x="439" 
d="M82 409l83 -11l37 166l49 -6l-37 -166l78 -10l40 182l49 -6l-41 -182l90 -11l-6 -52l-95 12l-28 -124l78 -10l-6 -51l-83 10l-39 -178l-49 5l40 179l-77 10l-43 -194l-50 5l43 196l-88 11l6 51l93 -12l28 124l-78 10zM203 341l-27 -125l77 -9l27 124z" />
    <glyph glyph-name="percent.onum" horiz-adv-x="464" 
d="M264 439h-1q-1 -61 -37.5 -102t-84.5 -41q-40 0 -65 27.5t-25 70.5q0 57 39.5 99.5t84.5 42.5q61 0 82 -54q4 -11 19.5 -18t32.5 -7q37 0 70 22q6 19 18.5 35.5t28.5 16.5q21 0 21 -19q0 -12 -11 -26.5t-25 -22.5l-158 -218l-180 -261l-32 22l186 256q7 11 48.5 74
t62.5 95q-25 -5 -34 -5q-25 0 -40 13zM236 89q0 58 39 100t85 42q40 0 64.5 -24.5t24.5 -66.5q0 -66 -37 -107t-83 -41q-42 0 -67.5 27.5t-25.5 69.5zM375 193q-27 0 -50 -39.5t-23 -85.5q0 -42 31 -42q27 0 50.5 31t23.5 90q0 23 -9 34.5t-23 11.5zM188 497q-26 0 -49 -39
t-23 -84q0 -44 33 -44q27 0 49 31.5t22 90.5q0 45 -32 45z" />
    <glyph glyph-name="perthousand.onum" horiz-adv-x="698" 
d="M265 439h-1q-1 -61 -37.5 -102t-84.5 -41q-40 0 -65 27.5t-25 70.5q0 57 39.5 99.5t84.5 42.5q61 0 82 -54q4 -11 20 -18t32 -7q37 0 70 22q6 19 18.5 35.5t28.5 16.5q21 0 21 -19q0 -12 -11 -26.5t-25 -22.5l-158 -218l-180 -261l-32 22l186 256q7 11 48.5 74t62.5 95
q-25 -5 -34 -5q-25 0 -40 13zM237 89q0 58 39 100t85 42q40 0 64.5 -24.5t24.5 -66.5q0 -66 -37 -107t-83 -41q-42 0 -67.5 27.5t-25.5 69.5zM376 193q-27 0 -50 -39.5t-23 -85.5q0 -42 31 -42q27 0 50.5 31t23.5 90q0 23 -9 34.5t-23 11.5zM189 497q-26 0 -49 -39t-23 -84
q0 -44 33 -44q27 0 49 31.5t22 90.5q0 45 -32 45zM470 89q0 58 39.5 100t85.5 42q39 0 63.5 -24.5t24.5 -66.5q0 -66 -37 -107t-83 -41q-41 0 -67 27.5t-26 69.5zM609 193q-27 0 -50.5 -39.5t-23.5 -85.5q0 -20 9 -31t23 -11q27 0 50 31t23 90q0 46 -31 46z" />
    <glyph glyph-name="ordfeminine.onum" horiz-adv-x="385" 
d="M284 313h-2q-70 -135 -129 -135q-40 0 -62.5 26.5t-22.5 70.5q0 103 51.5 180t123.5 77q46 0 67 -54q1 2 8.5 20t10.5 27h59l-56 -243q-4 -16 -4 -34q0 -31 18 -31q35 0 42 89l31 -2q-7 -64 -26.5 -93t-58.5 -29q-64 0 -64 61q0 28 14 70zM168 222q29 0 65 64.5t54 143.5
q-9 74 -44 74t-66 -70t-31 -165q0 -47 22 -47z" />
    <glyph glyph-name="ordmasculine.onum" horiz-adv-x="338" 
d="M363 402q0 -87 -50.5 -155.5t-122.5 -68.5q-59 0 -93 32.5t-34 93.5q0 91 54 159.5t123 68.5q58 0 90.5 -36t32.5 -94zM287 418v13q0 68 -43 68q-48 0 -76.5 -66.5t-28.5 -147.5q0 -75 48 -75q31 0 54 34.5t33 79.5t13 94z" />
    <glyph glyph-name="degree.onum" horiz-adv-x="367" 
d="M91 464q0 59 42 101.5t101 42.5t101.5 -42.5t42.5 -101.5t-42.5 -101t-101.5 -42q-58 0 -100.5 42.5t-42.5 100.5zM151 464q0 -39 22.5 -65.5t59.5 -26.5t60.5 26.5t23.5 65.5t-23.5 66.5t-60.5 27.5t-59.5 -27.5t-22.5 -66.5z" />
    <glyph glyph-name="zero.numr" horiz-adv-x="331" 
d="M330 585q0 -114 -56 -195.5t-140 -81.5q-50 0 -80 28t-30 87q0 109 62 194t138 85q46 0 76 -30t30 -87zM142 337q52 0 84 78t32 176q0 83 -45 83q-47 0 -81.5 -89t-34.5 -170q0 -43 10 -60.5t35 -17.5z" />
    <glyph glyph-name="one.numr" horiz-adv-x="270" 
d="M75 650l5 24q70 3 119 22h36l-67 -316q-8 -42 63 -42l-4 -23h-219l3 23q40 1 59.5 10.5t25.5 31.5q8 40 27 127.5t29 133.5z" />
    <glyph glyph-name="two.numr" horiz-adv-x="320" 
d="M98 374v-7h104q24 0 48 65h44l-33 -117h-264l-3 29l23 16q39 26 64 44.5t68 55.5t66.5 75t23.5 73q0 66 -47 66q-43 0 -69 -43l28 -45q-3 -21 -17.5 -33t-34.5 -12q-46 0 -46 42q0 51 47 85t98 34q57 0 88.5 -23t31.5 -66q0 -35 -30.5 -75.5t-61 -65.5t-81.5 -62
q-40 -30 -50 -38z" />
    <glyph glyph-name="three.numr" horiz-adv-x="312" 
d="M205 523l1 -5q81 -13 81 -84q0 -55 -52 -90.5t-133 -35.5q-45 0 -74 18t-29 51q0 22 15 37.5t34 15.5q21 0 32.5 -13t6.5 -29l-31 -37q10 -15 41 -15q44 0 77.5 24t33.5 75q0 58 -46 58q-16 0 -62 -14l-7 30q75 24 110.5 52t35.5 68q0 45 -46 45q-31 0 -56 -18
q14 -30 20 -46q-3 -15 -15.5 -24.5t-28.5 -9.5q-46 0 -46 32q0 44 45 69t96 25q50 0 79.5 -19t29.5 -51q0 -66 -119 -111z" />
    <glyph glyph-name="four.numr" horiz-adv-x="322" 
d="M9 430l-3 13l259 260l33 -5l-51 -240h58l-5 -28h-59l-9 -39q-7 -33 6 -43t41 -10l-4 -23h-190l4 23q62 0 73 49l9 43h-162zM65 458h110l28 135l-130 -134z" />
    <glyph glyph-name="five.numr" horiz-adv-x="316" 
d="M145 631l-26 -85q37 16 76 16q42 0 71.5 -23.5t29.5 -66.5q0 -72 -59 -118t-137 -46q-36 0 -65.5 17.5t-29.5 46.5q0 23 16 40t36 17q39 0 39 -38l-35 -40q15 -15 47 -15q49 0 78.5 40.5t29.5 90.5q0 60 -43 60q-41 0 -80 -35h-35l61 208q51 -18 104 -18q58 0 112 24
l-6 -28q-53 -50 -143 -50q-22 0 -41 3z" />
    <glyph glyph-name="six.numr" horiz-adv-x="333" 
d="M241 702q44 0 67.5 -21t23.5 -50q0 -20 -13.5 -34t-33.5 -14q-24 0 -36.5 10.5t-7.5 25.5l34 32q-11 25 -39 25q-36 0 -69 -47.5t-50 -105.5q41 31 95 31q49 0 74.5 -24.5t25.5 -66.5q0 -70 -55.5 -112.5t-115.5 -42.5q-48 0 -80 30t-32 91q0 107 67.5 190t144.5 83z
M147 337q38 0 62.5 40t24.5 80q0 68 -39 68q-19 0 -44.5 -17t-46.5 -48l2 1q-8 -37 -8 -58q0 -66 49 -66z" />
    <glyph glyph-name="seven.numr" horiz-adv-x="305" 
d="M74 350q51 146 194 289q-22 -8 -54 -8q-12 0 -30 4q-25 5 -29 5q-44 0 -68 -73h-37l45 132h40v-5q20 8 39 8q21 0 47 -12q24 -11 40 -11q34 0 83 30l16 -25q-80 -79 -126 -152.5t-75 -183.5q-8 -37 -50 -37q-49 0 -35 39z" />
    <glyph glyph-name="eight.numr" horiz-adv-x="322" 
d="M236 520l-1 -4l-6 2q69 -28 69 -80q0 -59 -51.5 -94.5t-115.5 -35.5q-55 0 -88 22.5t-33 61.5q0 33 32 62.5t78 46.5l-7 -2q0 1 0.5 3l0.5 2l5 -2q-54 28 -54 83q0 47 43.5 82t99.5 35q116 0 116 -81q0 -59 -94 -103zM137 337q40 0 65.5 23.5t25.5 54.5q0 53 -75 71
q-30 -8 -53.5 -32t-23.5 -56q0 -29 16.5 -45t44.5 -16zM131 602q0 -51 65 -70q60 29 60 84q0 27 -13.5 42.5t-38.5 15.5q-29 0 -51 -22.5t-22 -49.5z" />
    <glyph glyph-name="nine.numr" horiz-adv-x="333" 
d="M118 308q-44 0 -68 18t-24 43q0 22 13.5 38t30.5 16q25 0 37.5 -11.5t7.5 -27.5l-31 -26q11 -24 39 -24q37 0 69 45t49 109q-42 -32 -94 -32q-49 0 -74 25.5t-25 68.5q0 66 53 109t118 43q48 0 79.5 -30.5t31.5 -94.5q0 -105 -66.5 -187t-145.5 -82zM212 674
q-40 0 -64 -41t-24 -89q0 -58 40 -58q19 0 44.5 17t46.5 48l-2 -1q8 35 8 58q0 66 -49 66z" />
    <glyph glyph-name="zero.dnom" horiz-adv-x="331" 
d="M330 230q0 -114 -56 -195.5t-140 -81.5q-50 0 -80 28t-30 87q0 109 62 194t138 85q46 0 76 -30.5t30 -86.5zM142 -18q52 0 84 78t32 176q0 83 -45 83q-47 0 -81.5 -89t-34.5 -170q0 -43 10 -60.5t35 -17.5z" />
    <glyph glyph-name="one.dnom" horiz-adv-x="270" 
d="M75 295l5 24q70 3 119 22h36l-67 -316q-8 -42 63 -42l-4 -23h-219l3 23q40 1 59.5 10.5t25.5 31.5q8 40 27 127.5t29 133.5z" />
    <glyph glyph-name="two.dnom" horiz-adv-x="320" 
d="M98 19v-7h104q24 0 48 65h44l-33 -117h-264l-3 29l23 16q39 26 64 44.5t68 55.5t66.5 75t23.5 73q0 66 -47 66q-43 0 -69 -43l28 -45q-3 -21 -17.5 -33t-34.5 -12q-46 0 -46 42q0 51 47 85t98 34q57 0 88.5 -23.5t31.5 -65.5q0 -35 -30.5 -75.5t-61 -65.5t-81.5 -62
q-40 -30 -50 -38z" />
    <glyph glyph-name="three.dnom" horiz-adv-x="312" 
d="M205 168l1 -5q81 -13 81 -84q0 -55 -52 -90.5t-133 -35.5q-45 0 -74 18t-29 51q0 22 15 37.5t34 15.5q21 0 32.5 -13t6.5 -29l-31 -37q10 -15 41 -15q44 0 77.5 24t33.5 75q0 58 -46 58q-16 0 -62 -14l-7 30q75 24 110.5 52t35.5 68q0 45 -46 45q-31 0 -56 -18
q14 -30 20 -46q-3 -15 -15.5 -24.5t-28.5 -9.5q-46 0 -46 32q0 44 45 69t96 25q50 0 79.5 -19t29.5 -51q0 -66 -119 -111z" />
    <glyph glyph-name="four.dnom" horiz-adv-x="322" 
d="M9 75l-3 13l259 260l33 -5l-51 -240h58l-5 -28h-59l-9 -39q-7 -33 6 -43t41 -10l-4 -23h-190l4 23q62 0 73 49l9 43h-162zM65 103h110l28 135l-130 -134z" />
    <glyph glyph-name="five.dnom" horiz-adv-x="316" 
d="M145 276l-26 -85q37 16 76 16q42 0 71.5 -23.5t29.5 -66.5q0 -72 -59 -118t-137 -46q-36 0 -65.5 17.5t-29.5 46.5q0 23 16 40t36 17q39 0 39 -38l-35 -40q15 -15 47 -15q49 0 78.5 40.5t29.5 90.5q0 60 -43 60q-41 0 -80 -35h-35l61 208q51 -18 104 -18q58 0 112 24
l-6 -28q-53 -50 -143 -50q-22 0 -41 3z" />
    <glyph glyph-name="six.dnom" horiz-adv-x="333" 
d="M241 347q44 0 67.5 -21t23.5 -50q0 -20 -13.5 -34t-33.5 -14q-24 0 -36.5 10.5t-7.5 25.5l34 32q-11 25 -39 25q-36 0 -69 -47.5t-50 -105.5q41 31 95 31q49 0 74.5 -24.5t25.5 -66.5q0 -70 -55.5 -112.5t-115.5 -42.5q-48 0 -80 30t-32 91q0 107 67.5 190t144.5 83z
M147 -18q38 0 62.5 40t24.5 80q0 68 -39 68q-19 0 -44.5 -17t-46.5 -48l2 1q-8 -37 -8 -58q0 -66 49 -66z" />
    <glyph glyph-name="seven.dnom" horiz-adv-x="305" 
d="M74 -5q51 146 194 289q-22 -8 -54 -8q-12 0 -30 4q-25 5 -29 5q-44 0 -68 -73h-37l45 132h40v-5q20 8 39 8q21 0 47 -12q24 -11 40 -11q34 0 83 30l16 -25q-80 -79 -126 -152.5t-75 -183.5q-8 -37 -50 -37q-49 0 -35 39z" />
    <glyph glyph-name="eight.dnom" horiz-adv-x="322" 
d="M236 165l-1 -4l-6 2q69 -29 69 -80q0 -59 -51.5 -94.5t-115.5 -35.5q-55 0 -88 22.5t-33 61.5q0 33 32 62.5t78 46.5l-7 -2l1 2v3l5 -2q-54 29 -54 83q0 47 43.5 82t99.5 35q116 0 116 -81q0 -59 -94 -103zM137 -18q40 0 65.5 23.5t25.5 54.5q0 53 -75 71
q-30 -8 -53.5 -32t-23.5 -56q0 -29 16.5 -45t44.5 -16zM131 247q0 -51 65 -70q60 29 60 84q0 27 -13.5 42.5t-38.5 15.5q-29 0 -51 -22.5t-22 -49.5z" />
    <glyph glyph-name="nine.dnom" horiz-adv-x="333" 
d="M118 -47q-44 0 -68 18t-24 43q0 22 13.5 38t30.5 16q25 0 37.5 -11.5t7.5 -27.5l-31 -26q11 -24 39 -24q37 0 69 45t49 109q-42 -32 -94 -32q-49 0 -74 25.5t-25 68.5q0 66 53 109t118 43q48 0 79.5 -30.5t31.5 -94.5q0 -105 -66.5 -187t-145.5 -82zM212 319
q-40 0 -64 -41t-24 -89q0 -58 40 -58q19 0 44.5 17t46.5 48l-2 -1q8 35 8 58q0 66 -49 66z" />
    <glyph glyph-name="zero.subs" horiz-adv-x="331" 
d="M270 110q0 -114 -56 -195.5t-140 -81.5q-50 0 -80 28t-30 87q0 109 62 194t138 85q46 0 76 -30.5t30 -86.5zM82 -138q52 0 84 78t32 176q0 83 -45 83q-47 0 -81.5 -89t-34.5 -170q0 -43 10 -60.5t35 -17.5z" />
    <glyph glyph-name="one.subs" horiz-adv-x="270" 
d="M15 175l5 24q70 3 119 22h36l-67 -316q-8 -42 63 -42l-4 -23h-219l3 23q40 1 59.5 10.5t25.5 31.5q8 40 27 127.5t29 133.5z" />
    <glyph glyph-name="two.subs" horiz-adv-x="320" 
d="M38 -101v-7h104q24 0 48 65h44l-33 -117h-264l-3 29l23 16q39 26 64 44.5t68 55.5t66.5 75t23.5 73q0 66 -47 66q-43 0 -69 -43l28 -45q-3 -21 -17.5 -33t-34.5 -12q-46 0 -46 42q0 51 47 85t98 34q57 0 88.5 -23.5t31.5 -65.5q0 -35 -30.5 -75.5t-61 -65.5t-81.5 -62
q-40 -30 -50 -38z" />
    <glyph glyph-name="three.subs" horiz-adv-x="312" 
d="M145 48l1 -5q81 -13 81 -84q0 -55 -52 -90.5t-133 -35.5q-45 0 -74 18t-29 51q0 22 15 37.5t34 15.5q21 0 32.5 -13t6.5 -29l-31 -37q10 -15 41 -15q44 0 77.5 24t33.5 75q0 58 -46 58q-17 0 -62 -14l-7 30q75 24 110.5 52t35.5 68q0 45 -46 45q-31 0 -56 -18
q14 -30 20 -46q-3 -15 -15.5 -24.5t-28.5 -9.5q-46 0 -46 32q0 44 45 69t96 25q50 0 79.5 -19t29.5 -51q0 -66 -119 -111z" />
    <glyph glyph-name="four.subs" horiz-adv-x="322" 
d="M-51 -45l-3 13l259 260l33 -5l-51 -240h58l-5 -28h-59l-9 -39q-7 -33 6 -43t41 -10l-4 -23h-190l4 23q62 0 73 49l9 43h-162zM5 -17h110l28 135l-130 -134z" />
    <glyph glyph-name="five.subs" horiz-adv-x="316" 
d="M85 156l-26 -85q37 16 76 16q42 0 71.5 -23.5t29.5 -66.5q0 -72 -59 -118t-137 -46q-36 0 -65.5 17.5t-29.5 46.5q0 23 16 40t36 17q39 0 39 -38l-35 -40q15 -15 47 -15q49 0 78.5 40.5t29.5 90.5q0 60 -43 60q-41 0 -80 -35h-35l61 208q51 -18 104 -18q58 0 112 24
l-6 -28q-53 -50 -143 -50q-21 0 -41 3z" />
    <glyph glyph-name="six.subs" horiz-adv-x="333" 
d="M181 227q44 0 67.5 -21t23.5 -50q0 -20 -13.5 -34t-33.5 -14q-24 0 -36.5 10.5t-7.5 25.5l34 32q-11 25 -39 25q-36 0 -69 -47.5t-50 -105.5q41 31 95 31q49 0 74.5 -24.5t25.5 -66.5q0 -70 -55.5 -112.5t-115.5 -42.5q-48 0 -80 30t-32 91q0 107 67.5 190t144.5 83z
M87 -138q38 0 62.5 40t24.5 80q0 68 -39 68q-19 0 -44.5 -17t-46.5 -48l2 1q-8 -37 -8 -58q0 -66 49 -66z" />
    <glyph glyph-name="seven.subs" horiz-adv-x="305" 
d="M14 -125q51 146 194 289q-22 -8 -54 -8q-12 0 -30 4q-25 5 -29 5q-44 0 -68 -73h-37l45 132h40v-5q20 8 39 8q21 0 47 -12q24 -11 40 -11q34 0 83 30l16 -25q-80 -79 -126 -152.5t-75 -183.5q-8 -37 -50 -37q-48 0 -35 39z" />
    <glyph glyph-name="eight.subs" horiz-adv-x="322" 
d="M176 45l-1 -4l-6 2q69 -28 69 -80q0 -59 -51.5 -94.5t-115.5 -35.5q-55 0 -88 22.5t-33 61.5q0 33 32 62.5t78 46.5l-7 -2l1 2v3l5 -2q-54 29 -54 83q0 47 43.5 82t99.5 35q116 0 116 -81q0 -59 -94 -103zM77 -138q40 0 65.5 23.5t25.5 54.5q0 53 -75 71
q-30 -8 -53.5 -32t-23.5 -56q0 -29 16.5 -45t44.5 -16zM71 127q0 -51 65 -70q60 29 60 84q0 27 -13.5 42.5t-38.5 15.5q-29 0 -51 -22.5t-22 -49.5z" />
    <glyph glyph-name="nine.subs" horiz-adv-x="333" 
d="M58 -167q-44 0 -68 18t-24 43q0 22 13.5 38t30.5 16q25 0 37.5 -11.5t7.5 -27.5l-31 -26q11 -24 39 -24q37 0 69 45t49 109q-42 -32 -94 -32q-49 0 -74 25.5t-25 68.5q0 66 53 109t118 43q48 0 79.5 -30.5t31.5 -94.5q0 -105 -66.5 -187t-145.5 -82zM152 199
q-40 0 -64 -41t-24 -89q0 -58 40 -58q19 0 44.5 17t46.5 48l-2 -1q8 35 8 58q0 66 -49 66z" />
    <glyph glyph-name="acute.case" horiz-adv-x="500" 
d="M190 488v8l101 129h94v-10l-144 -127h-51z" />
    <glyph glyph-name="grave.case" horiz-adv-x="500" 
d="M300 496v-8h-48l-104 127v10h91z" />
    <glyph glyph-name="circumflex.case" horiz-adv-x="500" 
d="M395 496v-8h-46l-70 76l-128 -76h-46v8l161 129h48z" />
    <glyph glyph-name="breve.case" horiz-adv-x="500" 
d="M255 488q-52 0 -76.5 38t-10.5 99h40q-7 -30 7.5 -51.5t46.5 -21.5q33 0 63 20.5t44 52.5h39q-22 -67 -65 -102t-88 -35z" />
    <glyph glyph-name="caron.case" horiz-adv-x="500" 
d="M145 617v8h46l70 -76l128 76h46v-8l-161 -129h-48z" />
    <glyph glyph-name="dotaccent.case" horiz-adv-x="500" 
d="M218 554q0 27 18.5 50.5t45.5 23.5q19 0 32.5 -16t13.5 -39q0 -27 -20 -49t-44 -22q-20 0 -33 15.5t-13 36.5z" />
    <glyph glyph-name="hungarumlaut.case" horiz-adv-x="500" 
d="M280 488v8l106 129h89v-10l-149 -127h-46zM140 488v8l106 129h89v-10l-149 -127h-46z" />
    <glyph glyph-name="sidecaron.part" horiz-adv-x="500" 
d="M226 494v8l56 199h84v-10l-94 -197h-46z" />
    <glyph glyph-name="gcomma.part" horiz-adv-x="500" 
d="M281 559q0 -14 -11 -23t-28 -9q-20 0 -36 19t-16 48q0 52 37.5 90t98.5 38v-31q-35 0 -55 -18.5t-20 -39.5q0 -20 15 -40.5t15 -33.5z" />
    <glyph glyph-name="Stroke.part" horiz-adv-x="430" 
d="M153 555h692v-50h-692v50z" />
    <glyph glyph-name="stroke.part" horiz-adv-x="430" 
d="M22 544h292v-50h-292v50z" />
    <glyph glyph-name="uni2011.case" horiz-adv-x="318" 
d="M63 362h254v-69h-254v69z" />
    <glyph glyph-name="acute.plk" horiz-adv-x="500" 
d="M213 498v8l83 164h85v-10l-114 -162h-54z" />
    <glyph glyph-name="acute.case.plk" horiz-adv-x="500" 
d="M210 488v8l71 129h94v-10l-114 -127h-51z" />
    <glyph glyph-name="Iacute_Jacute" horiz-adv-x="922" 
d="M440 691l-8 -39q-68 0 -87 -6.5t-24 -33.5l-113 -528q-6 -30 9 -37t85 -7l-8 -40h-309l8 40q69 0 87 7t24 37l113 528q6 28 -10 34t-84 6l8 39h309zM233 745v8l101 129h94v-10l-144 -127h-51zM1000 691l-8 -39q-65 0 -87 -14t-34 -73l-79 -370q-12 -58 -40.5 -101
t-65 -64.5t-70.5 -31.5t-66 -10q-70 0 -116 34t-46 99q0 50 26 84t62 34q27 0 44.5 -15.5t17.5 -39.5q0 -18 -4 -35l-92 -56q0 -30 25.5 -48t72.5 -18q114 0 148 162l79 375q11 53 -3.5 73t-79.5 15l8 39h308zM811 744v8l101 129h94v-10l-144 -127h-51z" />
    <glyph glyph-name="iacute_jacute" horiz-adv-x="638" 
d="M342 -192q32 0 48.5 35.5t36.5 139.5l74 381q13 71 -22 71q-25 0 -48.5 -31.5t-31.5 -89.5l-31 8q7 36 14.5 60t21.5 51.5t37.5 42t55.5 14.5q51 0 75.5 -32.5t18.5 -78.5l-75 -398q-16 -94 -62 -149.5t-115 -56.5q-44 0 -78 20t-34 60q0 24 20 41.5t57 22.5
q-6 -111 38 -111zM231 357l-64 -249q-7 -29 3.5 -50.5t25.5 -19.5q18 3 37.5 35.5t21.5 91.5l36 -1q-14 -91 -41 -131t-78 -40q-55 0 -78 43t-8 102l61 231q5 16 2 45.5t-14 29.5q-49 0 -75 -135l-31 8q12 75 46.5 124t77.5 49q52 0 71.5 -40t6.5 -93zM151 541v8l113 164h90
v-10l-149 -162h-54zM507 540v8l113 164h90v-10l-149 -162h-54z" />
    <glyph glyph-name="idotaccent" horiz-adv-x="320" 
d="M231 357l-64 -249q-7 -29 3.5 -50.5t25.5 -19.5q18 3 37.5 35.5t21.5 91.5l36 -1q-14 -91 -41 -131t-78 -40q-55 0 -78 43t-8 102l61 231q5 16 2 45.5t-14 29.5q-49 0 -75 -135l-31 8q12 75 46.5 124t77.5 49q52 0 71.5 -40t6.5 -93zM166 664q0 29 16.5 48t41.5 19
q26 0 43 -19t17 -48q0 -27 -17 -45.5t-43 -18.5q-25 0 -41.5 18.5t-16.5 45.5z" />
    <glyph glyph-name="Dotlessi" horiz-adv-x="379" 
d="M440 691l-8 -39q-68 0 -87 -6.5t-24 -33.5l-113 -528q-6 -30 9 -37t85 -7l-8 -40h-309l8 40q69 0 87 7t24 37l113 528q6 28 -10 34t-84 6l8 39h309z" />
    <glyph glyph-name="dotaccentlow" horiz-adv-x="500" 
d="M168 -135q0 27 18.5 50.5t45.5 23.5q19 0 32.5 -16t13.5 -39q0 -27 -20 -49t-44 -22q-20 0 -33 15.5t-13 36.5z" />
    <glyph glyph-name="acute.lchigh" horiz-adv-x="500" 
d="M190 488v8l101 129h94v-10l-144 -127h-51z" />
    <glyph glyph-name="hyphen.c2sc" horiz-adv-x="318" 
d="M43 272h254v-69h-254v69z" />
    <glyph glyph-name="endash.c2sc" horiz-adv-x="488" 
d="M52 272h406v-69h-406v69z" />
    <glyph glyph-name="emdash.c2sc" horiz-adv-x="1000" 
d="M96 267h828v-59h-828v59z" />
    <glyph glyph-name="twosevenths" 
d="M118 -14l307 370l285 353l35 -26l-295 -349l-297 -375zM134 367v-7h104q24 0 48 65h44l-33 -117h-264l-3 29l23 16q39 26 64 44.5t68 55.5t66.5 75t23.5 73q0 66 -47 66q-43 0 -69 -43l28 -45q-3 -21 -17.5 -33t-34.5 -12q-46 0 -46 42q0 51 47 85t98 34q57 0 88.5 -23.5
t31.5 -65.5q0 -35 -30.5 -75.5t-61 -65.5t-81.5 -62q-40 -30 -50 -38zM510 25q51 146 194 289q-22 -8 -54 -8q-12 0 -30 4q-25 5 -29 5q-44 0 -68 -73h-37l45 132h40v-5q20 8 39 8q21 0 47 -12q24 -11 40 -11q34 0 83 30l16 -25q-80 -79 -126 -152.5t-75 -183.5
q-8 -37 -50 -37q-49 0 -35 39z" />
    <glyph glyph-name="twoninths" 
d="M118 -14l307 370l285 353l35 -26l-295 -349l-297 -375zM134 367v-7h104q24 0 48 65h44l-33 -117h-264l-3 29l23 16q39 26 64 44.5t68 55.5t66.5 75t23.5 73q0 66 -47 66q-43 0 -69 -43l28 -45q-3 -21 -17.5 -33t-34.5 -12q-46 0 -46 42q0 51 47 85t98 34q57 0 88.5 -23.5
t31.5 -65.5q0 -35 -30.5 -75.5t-61 -65.5t-81.5 -62q-40 -30 -50 -38zM554 -17q-44 0 -68 18t-24 43q0 22 13.5 38t30.5 16q25 0 37.5 -11.5t7.5 -27.5l-31 -26q11 -24 39 -24q37 0 69 45t49 109q-42 -32 -94 -32q-49 0 -74 25.5t-25 68.5q0 66 53 109t118 43
q48 0 79.5 -30.5t31.5 -94.5q0 -105 -66.5 -187t-145.5 -82zM648 349q-40 0 -64 -41t-24 -89q0 -58 40 -58q19 0 44.5 17t46.5 48l-2 -1q8 35 8 58q0 66 -49 66z" />
    <glyph glyph-name="threesevenths" 
d="M118 -14l307 370l285 353l35 -26l-295 -349l-297 -375zM269 516l1 -5q81 -13 81 -84q0 -55 -52 -90.5t-133 -35.5q-45 0 -74 18t-29 51q0 22 15 37.5t34 15.5q21 0 32.5 -13t6.5 -29l-31 -37q10 -15 41 -15q44 0 77.5 24t33.5 75q0 58 -46 58q-16 0 -62 -14l-7 30
q75 24 110.5 52t35.5 68q0 45 -46 45q-30 0 -56 -18q14 -30 20 -46q-3 -15 -15.5 -24.5t-28.5 -9.5q-46 0 -46 32q0 44 45 69t96 25q50 0 79.5 -19t29.5 -51q0 -66 -119 -111zM510 25q51 146 194 289q-22 -8 -54 -8q-12 0 -30 4q-25 5 -29 5q-44 0 -68 -73h-37l45 132h40v-5
q20 8 39 8q21 0 47 -12q24 -11 40 -11q34 0 83 30l16 -25q-80 -79 -126 -152.5t-75 -183.5q-8 -37 -50 -37q-49 0 -35 39z" />
    <glyph glyph-name="foursevenths" 
d="M118 -14l307 370l285 353l35 -26l-295 -349l-297 -375zM56 423l-3 13l259 260l33 -5l-51 -240h58l-5 -28h-59l-9 -39q-7 -33 6 -43t41 -10l-4 -23h-190l4 23q62 0 73 49l9 43h-162zM112 451h110l28 135l-130 -134zM510 25q51 146 194 289q-22 -8 -54 -8q-12 0 -30 4
q-25 5 -29 5q-44 0 -68 -73h-37l45 132h40v-5q20 8 39 8q21 0 47 -12q24 -11 40 -11q34 0 83 30l16 -25q-80 -79 -126 -152.5t-75 -183.5q-8 -37 -50 -37q-49 0 -35 39z" />
    <glyph glyph-name="fourninths" 
d="M118 -14l307 370l285 353l35 -26l-295 -349l-297 -375zM56 423l-3 13l259 260l33 -5l-51 -240h58l-5 -28h-59l-9 -39q-7 -33 6 -43t41 -10l-4 -23h-190l4 23q62 0 73 49l9 43h-162zM112 451h110l28 135l-130 -134zM554 -17q-44 0 -68 18t-24 43q0 22 13.5 38t30.5 16
q25 0 37.5 -11.5t7.5 -27.5l-31 -26q11 -24 39 -24q37 0 69 45t49 109q-42 -32 -94 -32q-49 0 -74 25.5t-25 68.5q0 66 53 109t118 43q48 0 79.5 -30.5t31.5 -94.5q0 -105 -66.5 -187t-145.5 -82zM648 349q-40 0 -64 -41t-24 -89q0 -58 40 -58q19 0 44.5 17t46.5 48l-2 -1
q8 35 8 58q0 66 -49 66z" />
    <glyph glyph-name="fivesevenths" 
d="M118 -14l307 370l285 353l35 -26l-295 -349l-297 -375zM218 624l-26 -85q37 16 76 16q42 0 71.5 -23.5t29.5 -66.5q0 -72 -59 -118t-137 -46q-36 0 -65.5 17.5t-29.5 46.5q0 23 16 40t36 17q39 0 39 -38l-35 -40q15 -15 47 -15q49 0 78.5 40.5t29.5 90.5q0 60 -43 60
q-41 0 -80 -35h-35l61 208q51 -18 104 -18q58 0 112 24l-6 -28q-53 -50 -143 -50q-21 0 -41 3zM510 25q51 146 194 289q-22 -8 -54 -8q-12 0 -30 4q-25 5 -29 5q-44 0 -68 -73h-37l45 132h40v-5q20 8 39 8q21 0 47 -12q24 -11 40 -11q34 0 83 30l16 -25q-80 -79 -126 -152.5
t-75 -183.5q-8 -37 -50 -37q-49 0 -35 39z" />
    <glyph glyph-name="fiveninths" 
d="M118 -14l307 370l285 353l35 -26l-295 -349l-297 -375zM218 624l-26 -85q37 16 76 16q42 0 71.5 -23.5t29.5 -66.5q0 -72 -59 -118t-137 -46q-36 0 -65.5 17.5t-29.5 46.5q0 23 16 40t36 17q39 0 39 -38l-35 -40q15 -15 47 -15q49 0 78.5 40.5t29.5 90.5q0 60 -43 60
q-41 0 -80 -35h-35l61 208q51 -18 104 -18q58 0 112 24l-6 -28q-53 -50 -143 -50q-21 0 -41 3zM554 -17q-44 0 -68 18t-24 43q0 22 13.5 38t30.5 16q25 0 37.5 -11.5t7.5 -27.5l-31 -26q11 -24 39 -24q37 0 69 45t49 109q-42 -32 -94 -32q-49 0 -74 25.5t-25 68.5
q0 66 53 109t118 43q48 0 79.5 -30.5t31.5 -94.5q0 -105 -66.5 -187t-145.5 -82zM648 349q-40 0 -64 -41t-24 -89q0 -58 40 -58q19 0 44.5 17t46.5 48l-2 -1q8 35 8 58q0 66 -49 66z" />
    <glyph glyph-name="sixsevenths" 
d="M118 -14l307 370l285 353l35 -26l-295 -349l-297 -375zM284 695q44 0 67.5 -21t23.5 -50q0 -20 -13.5 -34t-33.5 -14q-24 0 -36.5 10.5t-7.5 25.5l34 32q-11 25 -39 25q-36 0 -69 -47.5t-50 -105.5q41 31 95 31q49 0 74.5 -24.5t25.5 -66.5q0 -70 -55.5 -112.5
t-115.5 -42.5q-48 0 -80 30t-32 91q0 107 67.5 190t144.5 83zM190 330q38 0 62.5 40t24.5 80q0 68 -39 68q-19 0 -44.5 -17t-46.5 -48l2 1q-8 -37 -8 -58q0 -66 49 -66zM510 25q51 146 194 289q-22 -8 -54 -8q-12 0 -30 4q-25 5 -29 5q-44 0 -68 -73h-37l45 132h40v-5
q20 8 39 8q21 0 47 -12q24 -11 40 -11q34 0 83 30l16 -25q-80 -79 -126 -152.5t-75 -183.5q-8 -37 -50 -37q-49 0 -35 39z" />
    <glyph glyph-name="sevenninths" 
d="M118 -14l307 370l285 353l35 -26l-295 -349l-297 -375zM152 343q51 146 194 289q-22 -8 -54 -8q-12 0 -30 4q-25 5 -29 5q-44 0 -68 -73h-37l45 132h40v-5q20 8 39 8q21 0 47 -12q24 -11 40 -11q34 0 83 30l16 -25q-80 -79 -126 -152.5t-75 -183.5q-8 -37 -50 -37
q-49 0 -35 39zM554 -17q-44 0 -68 18t-24 43q0 22 13.5 38t30.5 16q25 0 37.5 -11.5t7.5 -27.5l-31 -26q11 -24 39 -24q37 0 69 45t49 109q-42 -32 -94 -32q-49 0 -74 25.5t-25 68.5q0 66 53 109t118 43q48 0 79.5 -30.5t31.5 -94.5q0 -105 -66.5 -187t-145.5 -82zM648 349
q-40 0 -64 -41t-24 -89q0 -58 40 -58q19 0 44.5 17t46.5 48l-2 -1q8 35 8 58q0 66 -49 66z" />
    <glyph glyph-name="eightninths" 
d="M118 -14l307 370l285 353l35 -26l-295 -349l-297 -375zM290 513l-1 -4l-6 2q69 -29 69 -80q0 -59 -51.5 -94.5t-115.5 -35.5q-55 0 -88 22.5t-33 61.5q0 33 32 62.5t78 46.5l-7 -2l1 2v3l5 -2q-54 29 -54 83q0 47 43.5 82t99.5 35q116 0 116 -81q0 -59 -94 -103zM191 330
q40 0 65.5 23.5t25.5 54.5q0 53 -75 71q-30 -8 -53.5 -32t-23.5 -56q0 -29 16.5 -45t44.5 -16zM185 595q0 -51 65 -70q60 29 60 84q0 27 -13.5 42.5t-38.5 15.5q-29 0 -51 -22.5t-22 -49.5zM554 -17q-44 0 -68 18t-24 43q0 22 13.5 38t30.5 16q25 0 37.5 -11.5t7.5 -27.5
l-31 -26q11 -24 39 -24q37 0 69 45t49 109q-42 -32 -94 -32q-49 0 -74 25.5t-25 68.5q0 66 53 109t118 43q48 0 79.5 -30.5t31.5 -94.5q0 -105 -66.5 -187t-145.5 -82zM648 349q-40 0 -64 -41t-24 -89q0 -58 40 -58q19 0 44.5 17t46.5 48l-2 -1q8 35 8 58q0 66 -49 66z" />
    <glyph glyph-name="Cacute.plk" horiz-adv-x="684" 
d="M624 626l3 1l36 64h36l-51 -261h-42q3 60 -7 108t-42 83t-85 35q-80 0 -148.5 -58.5t-108 -155.5t-39.5 -206q0 -202 169 -202q157 0 241 191h46l-61 -181q-100 -56 -238 -56q-127 0 -198 68.5t-71 189.5q0 93 36 179t93.5 145.5t132 95t150.5 35.5q45 0 85 -20t63 -55z
M452 745v8l71 129h94v-10l-114 -127h-51z" />
    <glyph glyph-name="Nacute.plk" horiz-adv-x="752" 
d="M240 553h-4l-98 -461q-7 -33 18 -42.5t90 -9.5l-8 -40h-261l8 40q50 0 74.5 10t31.5 42l108 509q-15 26 -34.5 38.5t-54.5 12.5l8 39h158l301 -529h4l92 441q5 25 -22 37t-89 12l8 39h254l-8 -39q-51 0 -71 -11.5t-26 -37.5l-131 -613h-30zM419 745v8l71 129h94v-10
l-114 -127h-51z" />
    <glyph glyph-name="Oacute.plk" horiz-adv-x="751" 
d="M729 432q0 -97 -38 -182.5t-97.5 -141.5t-131 -88t-140.5 -32q-116 0 -187 73t-71 194q0 96 36 180.5t94.5 142t132 90.5t147.5 33q112 0 183.5 -74t71.5 -195zM332 34q70 0 127.5 43t91 109.5t51 139t17.5 140.5q0 92 -40.5 141t-114.5 49q-84 0 -151.5 -62
t-102.5 -158.5t-35 -203.5q0 -198 157 -198zM450 745v8l71 129h94v-10l-114 -127h-51z" />
    <glyph glyph-name="Sacute.plk" horiz-adv-x="586" 
d="M87 59l-27 -59h-44l52 278h39v-23q0 -115 40 -169.5t131 -54.5q81 0 125.5 41t44.5 92q0 50 -37.5 81.5t-144.5 68.5q-79 28 -117 69t-38 103q0 94 73.5 154.5t165.5 60.5q94 0 166 -64l2 2l-2 -1l32 57h39l-53 -258h-36q-6 116 -44 169t-112 53q-61 0 -101.5 -39.5
t-40.5 -84.5q0 -49 40 -82t134 -65q85 -30 122.5 -72t37.5 -102q0 -93 -77 -159.5t-186 -66.5q-67 0 -114 22t-70 49zM328 745v8l71 129h94v-10l-114 -127h-51z" />
    <glyph glyph-name="Zacute.plk" horiz-adv-x="636" 
d="M-19 0l4 23l555 625l-2 4h-176q-79 0 -137.5 -61t-86.5 -150h-41l63 250h536l-4 -21l-560 -624l1 -4h203q148 0 224 229h42l-76 -271h-545zM400 745v8l71 129h94v-10l-114 -127h-51z" />
    <glyph glyph-name="cacute.plk" horiz-adv-x="409" 
d="M270 450q-53 0 -93 -73.5t-46 -204.5q-7 -139 66 -139q43 0 83 42.5t60 91.5l31 -17q-32 -66 -81 -114t-109 -48q-158 0 -148 186q7 131 83 223.5t170 92.5q48 0 78 -33.5t27 -83.5q-1 -28 -25 -45.5t-59 -20.5q1 21 0.5 45.5t-3 46.5t-11 36.5t-23.5 14.5zM242 541v8
l83 164h85v-10l-114 -162h-54z" />
    <glyph glyph-name="nacute.plk" horiz-adv-x="572" 
d="M160 22l-43 -22h-54l76 369q14 76 -19 76q-19 0 -40 -36t-31 -101l-30 3q26 179 118 179q34 0 52.5 -18.5t21 -50t-3 -65.5t-18.5 -73h9q37 82 90 144.5t101 62.5q45 0 68 -24.5t24 -68.5t-6.5 -88.5t-24.5 -100.5q-52 -175 1 -175q26 0 47.5 44.5t22.5 88.5l32 -2
q-5 -68 -33.5 -119.5t-83.5 -51.5q-141 0 -82 206q13 44 19.5 71.5t14 67.5t4 67t-16.5 40q-32 0 -70 -46t-65.5 -102.5t-46.5 -111.5zM280 541v8l83 164h85v-10l-114 -162h-54z" />
    <glyph glyph-name="oacute.plk" horiz-adv-x="470" 
d="M438 306q0 -80 -30 -152.5t-85.5 -119t-121.5 -46.5q-80 0 -126 46.5t-46 132.5q0 128 74 225.5t170 97.5q78 0 121.5 -50.5t43.5 -133.5zM342 329v18q0 102 -65 102q-47 0 -82.5 -49t-52 -118t-16.5 -144q0 -110 71 -110q35 0 62.5 28.5t44 74.5t26 96t12.5 102z
M230 541v8l83 164h85v-10l-114 -162h-54z" />
    <glyph glyph-name="sacute.plk" horiz-adv-x="385" 
d="M91 144q-2 -59 12 -89t53 -30q33 0 55.5 24.5t22.5 56.5q0 33 -23 63t-50.5 50.5t-50.5 55t-23 76.5q0 56 45.5 97.5t115.5 41.5q49 0 85.5 -27t36.5 -65q0 -32 -18 -50t-50 -18q0 124 -59 124q-30 0 -50.5 -21t-20.5 -57q0 -33 23 -62.5t50.5 -49.5t50.5 -53.5t23 -73.5
q0 -64 -51 -106.5t-125 -42.5q-54 0 -89.5 22.5t-35.5 57.5q0 33 21 54.5t52 21.5zM226 541v8l83 164h85v-10l-114 -162h-54z" />
    <glyph glyph-name="zacute.plk" horiz-adv-x="439" 
d="M355 405l-7 6l-98 -42q-2 1 -13.5 6.5t-14 6.5t-12 5t-14 5.5t-12.5 3.5t-15 2.5t-15 0.5q-24 0 -43 -29t-22 -64l-31 5q9 78 44 128.5t87 50.5q33 -1 56 -11t70 -39q58 2 93 50l42 -34l-187 -212l-141 -150l6 -5l83 23q14 -17 37.5 -30t42.5 -13q30 0 51 26t29 60l30 -8
q-20 -74 -55.5 -116.5t-80.5 -42.5q-57 0 -127 63q-52 -3 -100 -63l-37 29l216 239zM241 541v8l83 164h85v-10l-114 -162h-54z" />
    </font>
</defs>
</svg>
