<?xml version="1.0" standalone="no"?>
<!DOCTYPE svg PUBLIC "-//W3C//DTD SVG 1.1//EN" "http://www.w3.org/Graphics/SVG/1.1/DTD/svg11.dtd" >
<svg xmlns="http://www.w3.org/2000/svg" xmlns:xlink="http://www.w3.org/1999/xlink" version="1.1">
<metadata>
Created by FontForge 20170731 at Wed Mar 13 13:56:59 2019
 By Aleksey,,,
Copyright 2018-2019 Matthew Butterick
</metadata>
<defs>
<font id="CenturySupraT4" horiz-adv-x="800" >
  <font-face 
    font-family="Century Supra T4"
    font-weight="400"
    font-stretch="normal"
    units-per-em="1000"
    panose-1="0 0 0 0 0 0 0 0 0 0"
    ascent="762"
    descent="-238"
    x-height="480"
    cap-height="691"
    bbox="-74 -255 971 935"
    underline-thickness="50"
    underline-position="-175"
    unicode-range="U+000D-FB04"
  />
<missing-glyph horiz-adv-x="544" 
d="M20 0v700h508v-700h-508zM71 41h406v618h-406v-618zM200 397l8 4q36 -18 79 -18q36 0 57.5 24.5t21.5 63.5q0 40 -30.5 74t-78.5 34q-28 0 -40 -14l14 -37q0 -14 -10 -22.5t-26 -8.5q-35 0 -35 39q0 30 25 50t66 20q63 0 109.5 -45t46.5 -114q0 -56 -30 -92t-77 -36
q-45 0 -65 15l-2 -88h-30zM172 141q0 20 13 33.5t33 13.5q18 0 31.5 -13.5t13.5 -33.5q0 -18 -13.5 -31t-31.5 -13q-19 0 -32.5 13t-13.5 31z" />
    <glyph glyph-name="uni2190" unicode="&#x3c;&#x2d;" horiz-adv-x="704" 
d="M75 268l239 267l59 -44l-169 -190h434v-75h-434l169 -189l-59 -45l-239 269v7z" />
    <glyph glyph-name="uni2192" unicode="&#x2d;&#x3e;" horiz-adv-x="704" 
d="M390 535l239 -267v-7l-239 -269l-59 45l168 189h-433v75h434l-169 190z" />
    <glyph glyph-name="f_f" unicode="ff" horiz-adv-x="665" 
d="M627 638v76q-66 0 -91.5 -40.5t-31.5 -127.5v-76h122v-50h-122v-359q0 -20 13 -21l79 -5v-35h-259v35l26 5q26 5 37 16t11 38v326h-222v-359q0 -20 13 -21l79 -5v-35h-259v35l26 5q26 5 37 16t11 38v326h-74v50h74v51q8 101 59.5 160t132.5 59q50 0 80 -24t30 -62
q0 -25 -13.5 -41.5t-35.5 -16.5q-40 0 -57 32v76q-55 0 -76 -38t-27 -120v-76h222v51q8 105 65 167t147 62q50 0 80 -24t30 -62q0 -25 -13.5 -41.5t-35.5 -16.5q-40 0 -57 32z" />
    <glyph glyph-name="fi" unicode="fi" horiz-adv-x="576" 
d="M480 54q0 -13 8 -13l60 -6v-35h-232v35l35 5q36 4 36 45v335h-198v-359q0 -20 13 -21l69 -5v-35h-249v35l26 5q26 5 37 16t11 38v326h-74v50h74v51q8 105 73 167t169 62q54 0 87 -24t33 -62q0 -25 -15 -41.5t-39 -16.5q-40 0 -57 27v76q-86 0 -119 -39.5t-39 -123.5v-76
h181l72 10h38v-426z" />
    <glyph glyph-name="fl" unicode="fl" horiz-adv-x="586" 
d="M485 522v-468q0 -14 11 -14l62 -5v-35h-240v35l38 5q36 4 36 45v537q-47 0 -65 26v66q-75 0 -103.5 -40.5t-34.5 -127.5v-76h112v-50h-112v-359q0 -20 13 -21l74 -5v-35h-254v35l26 5q26 5 37 16t11 38v326h-74v50h74v51q8 105 69 167t158 62q51 0 82 -29l42 19h43z" />
    <glyph glyph-name="f_f_i" unicode="ffi" horiz-adv-x="890" 
d="M794 54q0 -13 8 -13l60 -6v-35h-232v35l35 5q36 4 36 45v335h-198v-359q0 -20 13 -21l69 -5v-35h-249v35l26 5q26 5 37 16t11 38v326h-221v-359q0 -20 13 -21l79 -5v-35h-259v35l26 5q26 5 37 16t11 38v326h-74v50h74v51q8 101 59.5 160t132.5 59q50 0 80 -24t30 -62
q0 -25 -13.5 -41.5t-35.5 -16.5q-40 0 -57 32v76q-55 0 -76 -38t-27 -120v-76h221v51q8 105 73 167t169 62q54 0 87 -24t33 -62q0 -25 -15 -41.5t-39 -16.5q-40 0 -57 27v76q-86 0 -119 -39.5t-39 -123.5v-76h181l72 10h38v-426z" />
    <glyph glyph-name="f_f_l" unicode="ffl" horiz-adv-x="900" 
d="M799 522v-468q0 -14 11 -14l62 -5v-35h-240v35l38 5q36 4 36 45v537q-47 0 -65 26v66q-75 0 -103.5 -40.5t-34.5 -127.5v-76h112v-50h-112v-359q0 -20 13 -21l74 -5v-35h-254v35l26 5q26 5 37 16t11 38v326h-221v-359q0 -20 13 -21l79 -5v-35h-259v35l26 5q26 5 37 16
t11 38v326h-74v50h74v51q8 101 59.5 160t132.5 59q50 0 80 -24t30 -62q0 -25 -13.5 -41.5t-35.5 -16.5q-40 0 -57 32v76q-55 0 -76 -38t-27 -120v-76h221v51q8 105 69 167t158 62q51 0 82 -29l42 19h43z" />
    <glyph glyph-name="uni2192.circle" unicode="&#x28;&#x2d;&#x3e;&#x29;" horiz-adv-x="884" 
d="M721 276l-242 270v1l-62 -47v-7l159 -179h-422v-96h422l-159 -179v-7l62 -48v1l242 272v19zM47 264q0 160 113.5 273t274.5 113q163 0 278 -113t115 -273q0 -158 -115 -271t-278 -113q-160 0 -274 113t-114 271z" />
    <glyph glyph-name="uni2190.circle" unicode="&#x28;&#x3c;&#x2d;&#x29;" horiz-adv-x="884" 
d="M405 546l-242 -270v-19l242 -272v-1l62 48v7l-159 179h422v96h-422l159 179v7l-62 47v-1zM837 264q0 -158 -114 -271t-274 -113q-163 0 -278 113t-115 271q0 160 115 273t278 113q161 0 274.5 -113t113.5 -273z" />
    <glyph glyph-name="uni2193.circle" unicode="&#x28;&#x2193;&#x29;" horiz-adv-x="884" 
d="M454 -24l270 242v7l-47 63v1l-187 -167v431h-86v-431l-187 167v-1l-48 -63v-7l272 -242v-1h13v1zM445 650q162 0 277 -112.5t115 -271.5q0 -160 -114.5 -273.5t-277.5 -113.5q-161 0 -275 113.5t-114 273.5q0 158 114.5 271t274.5 113z" />
    <glyph glyph-name="uni2191.circle" unicode="&#x28;&#x2191;&#x29;" horiz-adv-x="884" 
d="M724 311l-270 242v1h-13v-1l-272 -242v-7l48 -63v-1l187 167v-431h86v431l187 -167v1l47 63v7zM445 -121q-160 0 -274.5 113t-114.5 271q0 160 114 273.5t275 113.5q163 0 277.5 -113.5t114.5 -273.5q0 -159 -115 -271.5t-277 -112.5z" />
    <glyph glyph-name="f_j" unicode="fj" horiz-adv-x="572" 
d="M397 -114v534h-208v-359q0 -20 13 -21l69 -5v-35h-249v35l26 5q26 5 37 16t11 38v326h-74v50h74v51q8 105 73 167t169 62q54 0 87 -24t33 -62q0 -25 -15 -41.5t-39 -16.5q-40 0 -57 27v76q-86 0 -119 -39.5t-39 -123.5v-76h191l72 10h38v-515q0 -101 -40.5 -145.5
t-105.5 -44.5q-48 0 -81.5 23.5t-33.5 57.5q0 33 15.5 50.5t38.5 17.5q21 0 37 -13l-6 -95q10 -10 27 -10q25 0 40.5 22t15.5 58z" />
    <glyph glyph-name="f_f_j" unicode="ffj" horiz-adv-x="886" 
d="M711 -114v534h-208v-359q0 -20 13 -21l69 -5v-35h-249v35l26 5q26 5 37 16t11 38v326h-221v-359q0 -20 13 -21l79 -5v-35h-259v35l26 5q26 5 37 16t11 38v326h-74v50h74v51q8 101 59.5 160t132.5 59q50 0 80 -24t30 -62q0 -25 -13.5 -41.5t-35.5 -16.5q-40 0 -57 32v76
q-55 0 -76 -38t-27 -120v-76h221v51q8 105 73 167t169 62q54 0 87 -24t33 -62q0 -25 -15 -41.5t-39 -16.5q-40 0 -57 27v76q-86 0 -119 -39.5t-39 -123.5v-76h191l72 10h38v-515q0 -101 -40.5 -145.5t-105.5 -44.5q-48 0 -81.5 23.5t-33.5 57.5q0 33 15.5 50.5t38.5 17.5
q21 0 37 -13l-6 -95q10 -10 27 -10q25 0 40.5 22t15.5 58z" />
    <glyph glyph-name=".notdef" horiz-adv-x="544" 
d="M20 0v700h508v-700h-508zM71 41h406v618h-406v-618zM200 397l8 4q36 -18 79 -18q36 0 57.5 24.5t21.5 63.5q0 40 -30.5 74t-78.5 34q-28 0 -40 -14l14 -37q0 -14 -10 -22.5t-26 -8.5q-35 0 -35 39q0 30 25 50t66 20q63 0 109.5 -45t46.5 -114q0 -56 -30 -92t-77 -36
q-45 0 -65 15l-2 -88h-30zM172 141q0 20 13 33.5t33 13.5q18 0 31.5 -13.5t13.5 -33.5q0 -18 -13.5 -31t-31.5 -13q-19 0 -32.5 13t-13.5 31z" />
    <glyph glyph-name=".null" horiz-adv-x="0" 
 />
    <glyph glyph-name="nonmarkingreturn" horiz-adv-x="333" 
 />
    <glyph glyph-name="NULL" horiz-adv-x="0" 
 />
    <glyph glyph-name="NULL" horiz-adv-x="0" 
 />
    <glyph glyph-name="CR" unicode="&#xd;" horiz-adv-x="230" 
 />
    <glyph glyph-name="space" unicode=" " horiz-adv-x="230" 
 />
    <glyph glyph-name="exclam" unicode="!" horiz-adv-x="359" 
d="M238 614q-1 -7 -8.5 -62.5t-12.5 -96t-10 -109t-5 -130.5h-44q0 121 -12.5 232t-26.5 166q-8 41 6.5 73.5t55.5 32.5q74 0 57 -106zM110 59q0 29 20 49.5t49 20.5t49.5 -20.5t20.5 -49.5q0 -28 -20.5 -48t-49.5 -20t-49 19.5t-20 48.5z" />
    <glyph glyph-name="quotedbl" unicode="&#x22;" horiz-adv-x="485" 
d="M130 419l-25 305h96l-25 -305h-46zM309 419l-25 305h96l-25 -305h-46z" />
    <glyph glyph-name="numbersign" unicode="#" horiz-adv-x="510" 
d="M87 510l96 -13l44 209l53 -7l-44 -210l95 -13l48 230l53 -7l-48 -230l105 -14l-7 -60l-110 15l-33 -162l91 -12l-7 -60l-97 13l-46 -224l-53 6l46 225l-95 13l-50 -244l-53 6l51 245l-105 15l7 60l110 -15l33 161l-91 13zM224 430l-33 -161l95 -13l33 161z" />
    <glyph glyph-name="dollar" unicode="$" horiz-adv-x="596" 
d="M153 69l-14 -53h-39l-7 214h35q18 -81 53 -124.5t96 -56.5v252l-11 4q-90 31 -132.5 76t-42.5 116q0 78 51.5 125t124.5 47h10v92h45v-98q53 -12 109 -52q1 0 1 0.5t1 0.5l-2 -1l18 38h36l2 -186h-34q-42 133 -131 160v-237q15 -6 27 -8q101 -29 141 -72t40 -116
q0 -79 -55 -132t-141 -53h-12v-102h-45v107q-78 15 -124 59zM461 157q0 39 -30 68.5t-109 59.5v-241h10q62 0 95.5 33t33.5 80zM163 522q0 -73 114 -120v229h-9q-49 0 -77 -33t-28 -76z" />
    <glyph glyph-name="percent" unicode="%" horiz-adv-x="552" 
d="M293 575l-3 -1q-1 -81 -44 -134t-100 -53q-47 0 -77 35.5t-30 90.5q0 74 46.5 128.5t100.5 54.5q70 0 96 -69q6 -15 25 -24.5t41 -9.5q48 0 84 30q23 67 55 67q8 0 16 -5.5t8 -16.5q0 -15 -13.5 -32.5t-30.5 -28.5l-190 -288l-215 -338l-33 26l223 332l140 228l-3 2
q-21 -12 -48 -12q-30 0 -48 18zM261 114q0 74 47 129t101 55q46 0 75 -31.5t29 -85.5q0 -86 -44 -139t-98 -53q-49 0 -79.5 35t-30.5 90zM425 253q-33 0 -61 -52.5t-28 -113.5q0 -28 11.5 -43t28.5 -15q34 0 62 41t28 120q0 30 -11.5 46.5t-29.5 16.5zM203 651
q-33 0 -62 -52t-29 -112t43 -60q33 0 60.5 42t27.5 120q0 29 -11.5 45.5t-28.5 16.5z" />
    <glyph glyph-name="ampersand" unicode="&#x26;" horiz-adv-x="753" 
d="M483 566q0 -20 -4.5 -37.5t-16.5 -32.5t-21 -25.5t-30 -23.5t-31 -19t-36.5 -19.5t-35.5 -18.5q76 -149 186 -251q41 57 63 146q5 29 -22 40t-81 11v45h260v-45q-83 0 -107 -66q-27 -92 -79 -161q58 -45 99 -45q32 0 43 15t11 53h36q0 -66 -26.5 -105.5t-74.5 -39.5
q-66 0 -147 62q-75 -62 -172 -62q-118 0 -177.5 56t-59.5 138q0 75 38.5 121.5t107.5 86.5q-40 88 -40 149q0 68 45.5 115.5t121.5 47.5q66 0 108 -38.5t42 -96.5zM433 79q-120 104 -203 261q-64 -56 -64 -139q0 -67 46.5 -110.5t112.5 -43.5q60 0 108 32zM254 557
q0 -50 33 -124q53 30 81 60.5t28 75.5q0 39 -17 66t-53 27q-31 0 -51.5 -28t-20.5 -77z" />
    <glyph glyph-name="quotesingle" unicode="'" horiz-adv-x="306" 
d="M130 419l-25 305h96l-25 -305h-46z" />
    <glyph glyph-name="parenleft" unicode="(" horiz-adv-x="352" 
d="M326 -208l-29 -34q-241 220 -241 505q0 148 63 264t177 220l30 -39q-180 -183 -180 -445q0 -301 180 -471z" />
    <glyph glyph-name="parenright" unicode=")" horiz-adv-x="352" 
d="M55 -242l-29 34q180 170 180 471q0 262 -180 445l30 39q114 -104 177 -220t63 -264q0 -285 -241 -505z" />
    <glyph glyph-name="asterisk" unicode="*" horiz-adv-x="476" 
d="M261 543q49 -24 120 -44q35 -9 28 -40q-6 -27 -30 -36q-21 -7 -38 10q-63 66 -93 85q5 -56 25 -124q10 -32 -20 -43q-27 -9 -44 9q-12 14 -8 34q21 96 23 124q-47 -29 -93 -85q-20 -23 -46 -2q-24 19 -18 43q4 16 26 23q84 26 119 46q-51 22 -119 37q-30 5 -26 36
q4 28 27 36q18 7 35 -9q67 -60 95 -80q-7 52 -26 121q-10 34 21 45q28 9 47 -9q13 -14 7 -36q-2 -10 -9.5 -37t-11.5 -46t-6 -38q47 31 95 80q26 28 50 4q20 -21 12 -46q-6 -17 -24 -21q-9 -2 -28 -6.5t-30.5 -7.5t-28.5 -9t-31 -14z" />
    <glyph glyph-name="plus" unicode="+" horiz-adv-x="620" 
d="M570 230h-230v-230h-60v230h-230v60h230v230h60v-230h230v-60z" />
    <glyph glyph-name="comma" unicode="," horiz-adv-x="293" 
d="M61 62q0 30 21 48.5t57 18.5q40 0 67.5 -32t27.5 -82q0 -127 -131 -216l-25 36q114 76 99 174q-28 -16 -52 -16q-27 0 -45.5 18t-18.5 51z" />
    <glyph glyph-name="hyphen" unicode="-" horiz-adv-x="318" 
d="M32 282h254v-69h-254v69z" />
    <glyph glyph-name="period" unicode="." horiz-adv-x="279" 
d="M70 59q0 29 20 49.5t49 20.5t49.5 -20.5t20.5 -49.5q0 -28 -20.5 -48t-49.5 -20t-49 19.5t-20 48.5z" />
    <glyph glyph-name="slash" unicode="/" horiz-adv-x="460" 
d="M418 734l-300 -856h-76l300 856h76z" />
    <glyph glyph-name="zero" unicode="0" horiz-adv-x="602" 
d="M548 336q0 -168 -71 -258t-178 -90q-108 0 -176.5 84t-68.5 264q0 173 70 269t175 96q107 0 178 -95t71 -270zM439 336q0 173 -29.5 247t-110.5 74q-77 0 -106.5 -73.5t-29.5 -247.5q0 -172 26.5 -237.5t109.5 -65.5q84 0 112 66t28 237z" />
    <glyph glyph-name="one" unicode="1" horiz-adv-x="491" 
d="M76 610v41q118 7 198 39h40v-576q0 -42 30.5 -61t101.5 -19v-34h-366v34q77 4 107.5 20t30.5 60v481z" />
    <glyph glyph-name="two" unicode="2" horiz-adv-x="582" 
d="M176 104l4 -16h220q30 0 52 32.5t30 86.5h45l-30 -207h-438l-15 50q6 6 55 46.5t92 81t92 96t78.5 116.5t29.5 117q0 78 -38.5 114t-92.5 36q-94 0 -126 -80l61 -86q0 -36 -19.5 -57t-49.5 -21q-33 0 -50 24.5t-17 65.5q0 88 63 143t149 55q105 0 167 -52t62 -143
q0 -45 -23 -92t-64.5 -92t-79.5 -80t-87.5 -77t-69.5 -61z" />
    <glyph glyph-name="three" unicode="3" horiz-adv-x="568" 
d="M325 379l4 -11q74 -8 127.5 -55t53.5 -129q0 -95 -81.5 -145.5t-192.5 -50.5q-84 0 -140 35t-56 99q0 37 16.5 59.5t44.5 22.5t44 -20.5t16 -55.5l-43 -66q32 -32 111 -32q33 0 61.5 7.5t55 24t41.5 49t15 77.5q0 65 -31.5 100t-80.5 36.5t-109 -16.5l-14 42
q112 42 163.5 90t51.5 114q0 105 -117 105q-73 0 -115 -40l47 -81q0 -25 -17 -42.5t-42 -17.5q-27 0 -44 22.5t-17 59.5q0 66 63.5 103.5t143.5 37.5q91 0 148.5 -40.5t57.5 -109.5q0 -54 -46.5 -98t-118.5 -74z" />
    <glyph glyph-name="four" unicode="4" horiz-adv-x="585" 
d="M39 210l-10 25l364 466l35 -5v-441h107v-45h-107v-75q0 -63 27 -82t79 -19v-34h-311v34q57 0 84.5 19t27.5 75v82h-296zM108 260l2 -5h222v287l-8 4z" />
    <glyph glyph-name="five" unicode="5" horiz-adv-x="574" 
d="M154 391l8 -5q72 45 150 45q82 0 143.5 -51.5t61.5 -145.5q0 -112 -80.5 -179t-201.5 -67q-68 0 -125 36t-57 98q0 34 18 56t48 22q27 0 43.5 -18.5t16.5 -48.5l-49 -71q32 -32 111 -32q82 0 124.5 57t42.5 140q0 145 -126 145q-85 0 -141 -64h-35l30 383
q97 -28 199.5 -25.5t159.5 31.5v-49q-48 -53 -139 -71t-187 1z" />
    <glyph glyph-name="six" unicode="6" horiz-adv-x="606" 
d="M339 701q81 0 129 -38t48 -85q0 -33 -16 -52.5t-46 -19.5q-28 0 -45.5 18t-17.5 50l45 53q-28 35 -97 35q-54 0 -95 -54t-59 -125t-19 -141l8 -4q59 93 170 93q96 0 149.5 -55.5t53.5 -143.5q0 -114 -71.5 -179t-168.5 -65q-46 0 -87 17.5t-77 54.5t-57 102t-21 152
q0 162 80 274.5t194 112.5zM439 227q0 157 -115 157q-43 0 -87 -31.5t-71 -88.5q0 -118 34.5 -174.5t107.5 -56.5q131 0 131 194z" />
    <glyph glyph-name="seven" unicode="7" horiz-adv-x="554" 
d="M445 592l-10 10q-37 -24 -103 -24q-21 0 -63 8t-65 8q-47 0 -75.5 -35t-36.5 -98h-35l33 235h37l6 -22q42 27 83 27q34 0 84 -20.5t83 -20.5q69 0 136 46l30 -34q-66 -80 -104 -135.5t-73.5 -129.5t-50.5 -158t-15 -192q0 -13 -1.5 -21.5t-6.5 -19.5t-18 -17t-33 -6
q-69 0 -60 66q42 282 258 533z" />
    <glyph glyph-name="eight" unicode="8" horiz-adv-x="585" 
d="M381 374v-6q149 -50 149 -177q0 -62 -38.5 -110t-94.5 -70.5t-118 -22.5q-100 0 -162 45t-62 122q0 55 42 101t106 72v9q-62 26 -91.5 72t-29.5 98q0 81 64 137.5t158 56.5q90 0 144.5 -43t54.5 -111q0 -100 -122 -173zM416 538q0 51 -36 85.5t-92 34.5
q-57 0 -92.5 -33.5t-35.5 -79.5q0 -54 44.5 -93t125.5 -61q86 46 86 147zM443 167q0 104 -189 144q-52 -18 -84.5 -56t-31.5 -95q1 -61 43.5 -94t109.5 -33q63 0 107.5 35.5t44.5 98.5z" />
    <glyph glyph-name="nine" unicode="9" horiz-adv-x="606" 
d="M266 -12q-81 0 -128.5 33.5t-47.5 75.5q0 34 15.5 55.5t45.5 21.5q28 0 45.5 -20t17.5 -53l-45 -43q29 -31 97 -31q82 0 127 94.5t46 225.5l-8 4q-26 -43 -70.5 -68t-99.5 -25q-95 0 -149 61t-54 157q0 99 72.5 162t168.5 63q46 0 87 -17.5t77 -54.5t57 -102t21 -152
q0 -178 -78.5 -282.5t-196.5 -104.5zM166 471q0 -87 31.5 -126.5t84.5 -39.5q42 0 86.5 31.5t70.5 88.5q0 118 -34.5 175t-107.5 57q-66 0 -98.5 -51.5t-32.5 -134.5z" />
    <glyph glyph-name="colon" unicode=":" horiz-adv-x="311" 
d="M86 377q0 29 20 49.5t49 20.5t49.5 -20.5t20.5 -49.5q0 -28 -20.5 -48t-49.5 -20t-49 19.5t-20 48.5zM86 59q0 29 20 49.5t49 20.5t49.5 -20.5t20.5 -49.5q0 -28 -20.5 -48t-49.5 -20t-49 19.5t-20 48.5z" />
    <glyph glyph-name="semicolon" unicode=";" horiz-adv-x="341" 
d="M94 377q0 29 20 49.5t49 20.5t49.5 -20.5t20.5 -49.5q0 -28 -20.5 -48t-49.5 -20t-49 19.5t-20 48.5zM85 62q0 30 21 48.5t57 18.5q40 0 67.5 -32t27.5 -82q0 -127 -131 -216l-25 36q114 76 99 174q-28 -16 -52 -16q-27 0 -45.5 18t-18.5 51z" />
    <glyph glyph-name="less" unicode="&#x3c;" horiz-adv-x="594" 
d="M544 470l-428 -204l428 -204v-62l-494 235v62l494 235v-62z" />
    <glyph glyph-name="equal" unicode="=" horiz-adv-x="620" 
d="M570 310h-520v60h520v-60zM570 130h-520v60h520v-60z" />
    <glyph glyph-name="greater" unicode="&#x3e;" horiz-adv-x="594" 
d="M478 266l-428 204v62l494 -235v-62l-494 -235v62z" />
    <glyph glyph-name="question" unicode="?" horiz-adv-x="510" 
d="M147 418l12 7q61 -28 119 -28q55 0 87.5 36t32.5 93t-45.5 105t-118.5 48q-43 0 -62 -21l31 -62q0 -22 -17 -36.5t-42 -14.5t-41 16.5t-16 48.5q0 48 38.5 79t102.5 31q93 0 162.5 -62.5t69.5 -157.5q0 -86 -45.5 -142t-116.5 -56q-68 0 -99 23l-3 -109h-44zM104 59
q0 29 20 49.5t49 20.5t49.5 -20.5t20.5 -49.5q0 -28 -20.5 -48t-49.5 -20t-49 19.5t-20 48.5z" />
    <glyph glyph-name="at" unicode="@" horiz-adv-x="816" 
d="M699 390q0 35 -9 71.5t-29.5 75t-62.5 63t-99 24.5q-96 0 -181 -72.5t-133.5 -185.5t-48.5 -230q0 -118 43.5 -177t122.5 -59q89 0 167 63l21 -42q-44 -35 -97.5 -54.5t-99.5 -19.5q-114 0 -172.5 76t-58.5 214q0 92 35 187t93 171t141 124.5t171 48.5q123 0 195.5 -76.5
t72.5 -201.5q0 -84 -32.5 -154.5t-80 -111.5t-95.5 -63.5t-85 -22.5q-34 0 -37.5 34t22.5 93l-13 9q-19 -28 -34.5 -47t-38 -42.5t-47 -36t-48.5 -12.5q-29 0 -45 24.5t-16 56.5q0 82 59 183q46 77 106.5 128.5t115.5 51.5q29 0 42 -28h5q6 16 13.5 21.5t27.5 5.5t27 -4
t4 -12l-108 -331q-7 -31 13 -31q18 0 46 20t57 54t50 92t21 123zM300 150q0 -44 24 -44q34 0 93.5 79t102.5 182q9 70 -29 70q-33 0 -70.5 -34.5t-67.5 -87.5q-53 -94 -53 -165z" />
    <glyph glyph-name="A" unicode="A" horiz-adv-x="720" 
d="M499 79l-47 125h-244l-43 -123q-7 -24 13 -32.5t82 -8.5v-40h-242v40q42 0 64 13t35 48l222 600h24l243 -607q14 -37 30.5 -45.5t65.5 -8.5v-40h-288v40h27q49 0 58 6t0 33zM329 528h-7l-98 -277h210z" />
    <glyph glyph-name="B" unicode="B" horiz-adv-x="657" 
d="M434 364v-4q176 -20 176 -177q0 -90 -65.5 -136.5t-163.5 -46.5h-351v40q62 0 82 13t20 66v446q0 61 -17.5 74t-84.5 13v39h327q93 0 150 -41.5t57 -121.5q0 -57 -33 -102t-97 -62zM456 525q0 127 -148 127h-72v-276h100q56 0 88 40t32 109zM499 187q0 75 -40 111.5
t-123 36.5h-100v-295h94q82 0 125.5 33.5t43.5 113.5z" />
    <glyph glyph-name="C" unicode="C" horiz-adv-x="684" 
d="M561 656l3 1l24 34h31l4 -261h-42q-7 41 -21.5 79t-37.5 72t-58.5 54.5t-79.5 20.5q-102 0 -158 -86t-56 -227q0 -309 219 -309q78 0 126 47t70 144h46l-23 -181q-38 -25 -98 -40.5t-123 -15.5q-152 0 -243 96.5t-91 260.5q0 147 101.5 251.5t233.5 104.5q54 0 101 -13.5
t72 -31.5z" />
    <glyph glyph-name="D" unicode="D" horiz-adv-x="761" 
d="M708 345q0 -65 -21.5 -124.5t-64 -110t-115 -80.5t-165.5 -30h-312v40q70 2 86 6.5t16 27.5v547q0 21 -16 26t-86 5v39h310q81 0 146 -22t105.5 -57t67.5 -82t38 -92.5t11 -92.5zM589 344q0 139 -66 223.5t-211 84.5h-76v-612h104q67 0 117 26.5t78 71.5t41 96.5
t13 109.5z" />
    <glyph glyph-name="E" unicode="E" horiz-adv-x="661" 
d="M621 247l-13 -247h-578v40q68 0 85 4.5t17 24.5v552q0 20 -18.5 25.5t-83.5 5.5v39h548l11 -217h-39q-18 101 -48.5 139.5t-98.5 38.5h-167v-291h74q100 0 100 137h35v-312h-35q0 81 -21.5 106.5t-84.5 25.5h-68v-278h191q71 0 112 64t41 143h41z" />
    <glyph glyph-name="F" unicode="F" horiz-adv-x="597" 
d="M579 454h-39q-13 95 -53 146.5t-118 51.5h-133v-291h79q85 0 85 137h35v-312h-35q0 68 -18.5 100t-66.5 32h-79v-209q1 -45 22.5 -57t88.5 -12v-40h-317v40q72 0 87 10.5t15 59.5v464q0 51 -19.5 64.5t-82.5 13.5v39h542z" />
    <glyph glyph-name="G" unicode="G" horiz-adv-x="727" 
d="M630 227v-233h-25l-51 83q-65 -89 -186 -89q-59 0 -113 20.5t-100.5 61.5t-74 111.5t-27.5 160.5q0 162 93.5 260.5t222.5 98.5q115 0 187 -46h7l20 31h29l4 -242h-36q-19 83 -73.5 147.5t-133.5 64.5q-203 0 -203 -316q0 -146 55 -226.5t154 -80.5q98 0 147 95v98
q0 42 -16 51.5t-80 9.5v34h282v-34q-57 0 -69 -9t-13 -51z" />
    <glyph glyph-name="H" unicode="H" horiz-adv-x="799" 
d="M769 0h-310v40q69 3 86 10t17 38v244h-326v-244q0 -32 19 -40t83 -8v-40h-308v40q63 0 82.5 8t19.5 40v515q0 31 -23.5 40t-78.5 9v39h308v-39q-62 0 -82 -7.5t-20 -41.5v-224h326v224q0 33 -19.5 41t-83.5 8v39h310v-39q-67 0 -85.5 -8.5t-18.5 -40.5v-515q0 -32 19 -40
t85 -8v-40z" />
    <glyph glyph-name="I" unicode="I" horiz-adv-x="379" 
d="M344 691v-39q-68 0 -85.5 -6.5t-17.5 -33.5v-528q0 -30 16.5 -37t86.5 -7v-40h-309v40q69 0 85.5 7t16.5 37v528q0 28 -17 34t-85 6v39h309z" />
    <glyph glyph-name="J" unicode="J" horiz-adv-x="543" 
d="M525 691v-39q-65 0 -84 -14t-19 -73v-370q0 -62 -20.5 -105.5t-54 -64t-66 -29t-67.5 -8.5q-76 0 -128.5 39t-52.5 116q0 41 21.5 68.5t52.5 27.5q67 0 67 -90l-82 -49q5 -33 35 -53t79 -20q59 0 86 38.5t27 123.5v375q0 60 -18.5 74t-83.5 14v39h308z" />
    <glyph glyph-name="K" unicode="K" horiz-adv-x="723" 
d="M517 572l-151 -166l253 -315q24 -30 41.5 -40.5t52.5 -10.5v-40h-279v40q27 1 39 2.5t21 6t6.5 13.5t-14.5 25l-190 242l-60 -66v-148q0 -50 18 -62.5t81 -12.5v-40h-305v40q70 0 86 12t16 63v465q0 50 -19 61t-83 11v39h308v-39q-66 0 -84 -11t-18 -61v-250h4l230 255
q30 28 15.5 48t-56.5 18v40h257v-40q-99 -11 -169 -79z" />
    <glyph glyph-name="L" unicode="L" horiz-adv-x="602" 
d="M574 242l-13 -242h-531v40q61 0 81.5 7.5t20.5 36.5v529q0 25 -18 32t-84 7v39h319v-39q-79 0 -96 -6t-17 -32v-574h132q74 0 116.5 53.5t42.5 148.5h47z" />
    <glyph glyph-name="M" unicode="M" horiz-adv-x="884" 
d="M182 543h-5v-421q0 -38 27.5 -60t72.5 -22v-40h-247v40q42 0 72 22.5t30 57.5v490q-13 24 -36.5 33t-65.5 9v39h205l206 -515h4l212 515h195v-39q-66 0 -85 -13.5t-19 -55.5v-457q0 -60 17.5 -73t82.5 -13v-40h-301v40q66 0 82.5 14t16.5 72v407h-4l-224 -540h-20z" />
    <glyph glyph-name="N" unicode="N" horiz-adv-x="752" 
d="M174 553h-4v-461q0 -33 27 -42.5t92 -9.5v-40h-261v40q50 0 74 10t24 42v509q-42 51 -103 51v39h173l396 -508h4v420q0 49 -121 49v39h254v-39q-52 0 -71 -11.5t-19 -37.5v-613h-27z" />
    <glyph glyph-name="O" unicode="O" horiz-adv-x="751" 
d="M698 345q0 -151 -95 -254t-227 -103q-137 0 -230 100t-93 257q0 158 92.5 257t230.5 99q133 0 227.5 -100.5t94.5 -255.5zM580 345q0 148 -47 229.5t-157 81.5q-112 0 -158.5 -79.5t-46.5 -231.5q0 -150 47.5 -230.5t157.5 -80.5q102 0 153 83t51 228z" />
    <glyph glyph-name="P" unicode="P" horiz-adv-x="613" 
d="M573 508q0 -98 -74 -146.5t-174 -48.5h-89v-187q0 -58 16.5 -72t91.5 -14v-40h-314v40q70 0 86 13.5t16 72.5v464q0 43 -18.5 52.5t-83.5 9.5v39h304q45 0 84.5 -9t76 -28.5t57.5 -56.5t21 -89zM236 652v-295h78q68 0 108 34.5t40 104.5q0 77 -41.5 116.5t-110.5 39.5
h-74z" />
    <glyph glyph-name="Q" unicode="Q" horiz-adv-x="751" 
d="M698 345q0 -106 -46 -191.5t-122 -129.5q16 -162 70 -162q53 0 53 122h36q0 -85 -31 -132t-84 -47q-123 0 -140 186q-16 -3 -33 -3q-149 0 -248.5 100t-99.5 257q0 158 92.5 257t230.5 99q133 0 227.5 -100.5t94.5 -255.5zM582 345q0 148 -47.5 229.5t-158.5 81.5
q-113 0 -160.5 -79.5t-47.5 -231.5q0 -222 114 -285q-17 32 -17 67q0 50 28 88.5t79 38.5q54 0 92.5 -41.5t55.5 -120.5q62 80 62 253zM370 219q-29 0 -42 -28t-13 -65q0 -44 24 -86q29 -6 62 -6q21 0 31 2v20q0 75 -15.5 119t-46.5 44z" />
    <glyph glyph-name="R" unicode="R" horiz-adv-x="683" 
d="M408 356v-8q72 -10 111.5 -51t50.5 -146q11 -75 31.5 -97.5t71.5 -22.5v-38q-124 0 -170.5 36.5t-46.5 129.5q0 101 -41.5 139t-122.5 38h-56v-248q0 -32 19 -40t87 -8v-40h-312v40q66 2 84 9t18 39v528q0 24 -18.5 30t-83.5 6v39h319q98 0 158 -41t60 -120
q0 -77 -46.5 -119.5t-112.5 -54.5zM461 525q0 68 -35.5 97.5t-109.5 29.5h-80v-275h89q136 0 136 148z" />
    <glyph glyph-name="S" unicode="S" horiz-adv-x="586" 
d="M126 58l-2 -1l-14 -57h-44l-7 278h39q24 -127 76.5 -187t147.5 -60q69 0 105.5 33t36.5 80q0 36 -14 60.5t-62.5 52t-137.5 54.5q-99 30 -146 79t-47 129q0 82 57 132t137 50q94 0 180 -64l3 2l17 56h39l2 -258h-36q-31 116 -80.5 169t-123.5 53q-54 0 -85 -34t-31 -79
q0 -48 48 -85t157 -70t154 -83.5t45 -126.5q0 -83 -61 -138t-155 -55q-120 0 -198 70z" />
    <glyph glyph-name="T" unicode="T" horiz-adv-x="644" 
d="M616 440h-38q0 98 -38.5 155t-108.5 57h-56v-573q-1 -26 20.5 -32.5t81.5 -6.5v-40h-310v40q56 0 79.5 7t23.5 27v578h-40q-69 0 -115.5 -58t-46.5 -154h-40v251h588v-251z" />
    <glyph glyph-name="U" unicode="U" horiz-adv-x="748" 
d="M726 691v-39q-53 0 -75 -10t-22 -33v-328q0 -145 -58 -219t-197 -74q-258 0 -258 237v387q0 27 -15 33.5t-79 6.5v39h296v-39q-65 0 -81 -6.5t-16 -33.5v-387q0 -96 46 -144.5t121 -48.5q49 0 84.5 15t55.5 37.5t31.5 57t15 66.5t3.5 73v328q0 23 -26 33t-91 10v39h265z
" />
    <glyph glyph-name="V" unicode="V" horiz-adv-x="708" 
d="M388 158h4l150 385q22 48 2 79t-84 30v39h233v-39q-21 0 -35.5 -6.5t-27 -24t-19.5 -32.5t-21 -48l-218 -557h-28l-231 592q-14 35 -22 47.5t-25.5 20.5t-50.5 8v39h266v-39q-55 0 -65.5 -18t10.5 -58z" />
    <glyph glyph-name="W" unicode="W" horiz-adv-x="977" 
d="M687 179h5l119 364q18 54 -1 83t-82 26v39h234v-39q-42 0 -62.5 -23.5t-41.5 -87.5l-184 -557h-27l-146 443l-164 -443h-25l-196 592q-18 46 -39 61t-62 15v39h269v-39q-53 1 -63.5 -18.5t5.5 -57.5l128 -397h6l119 315l-27 82q-16 52 -32.5 64t-67.5 12v39h268v-39
q-13 0 -22.5 -0.5t-17.5 -1t-12.5 -4t-8.5 -4.5t-5 -6.5t-2 -7.5t0.5 -10.5t2 -11t4 -14.5t4.5 -16z" />
    <glyph glyph-name="X" unicode="X" horiz-adv-x="716" 
d="M701 0h-315v41q59 0 69.5 17.5t-15.5 60.5l-108 171l-129 -171q-26 -32 -10 -55t67 -24v-40h-245v40q34 0 67.5 21.5t54.5 50.5l169 221l-150 239q-28 47 -54.5 63.5t-76.5 16.5v39h301v-39q-55 -1 -66 -19.5t14 -56.5l104 -168l113 162q34 42 22 61.5t-77 20.5v39h255
v-39q-81 0 -130 -67l-156 -220l145 -232q36 -51 68.5 -72t82.5 -21v-40z" />
    <glyph glyph-name="Y" unicode="Y" horiz-adv-x="684" 
d="M669 691v-39q-68 0 -118 -79l-144 -263v-184q0 -59 19 -72.5t84 -13.5v-40h-308v40q72 0 86.5 13t14.5 73v180l-157 257q-39 57 -61 73t-70 16v39h293v-39q-58 0 -72 -14.5t12 -53.5l136 -224l123 223q17 28 4 48t-56 21v39h214z" />
    <glyph glyph-name="Z" unicode="Z" horiz-adv-x="636" 
d="M31 0v23l427 625l-3 4h-201q-64 0 -108.5 -63.5t-50.5 -147.5h-41l10 250h536v-21l-432 -624l2 -4h208q68 0 115.5 63t59.5 166h42l-19 -271h-545z" />
    <glyph glyph-name="bracketleft" unicode="[" horiz-adv-x="335" 
d="M305 738v-48q-76 -15 -150 -5v-852q68 6 156 -6v-51q-40 6 -111.5 6.5t-122.5 -5.5v960q51 -5 123 -5t105 6z" />
    <glyph glyph-name="backslash" unicode="\" horiz-adv-x="460" 
d="M342 -122l-300 856h76l300 -856h-76z" />
    <glyph glyph-name="bracketright" unicode="]" horiz-adv-x="335" 
d="M30 690v48q33 -6 105 -6t123 5v-960q-51 6 -122.5 5.5t-111.5 -6.5v51q88 12 156 6v852q-74 -10 -150 5z" />
    <glyph glyph-name="asciicircum" unicode="^" horiz-adv-x="544" 
d="M289 691l220 -376l-57 -31l-173 302v3h-8v-2l-178 -303l-54 31l221 376h29z" />
    <glyph glyph-name="underscore" unicode="_" horiz-adv-x="604" 
d="M-3 -190h610v-52h-610v52z" />
    <glyph glyph-name="grave" unicode="`" horiz-adv-x="500" 
d="M310 506v-8h-51l-129 162v10h94z" />
    <glyph glyph-name="a" unicode="a" horiz-adv-x="492" 
d="M425 61l52 -5q0 -34 -22 -51t-49 -17q-74 0 -83 67h-8q-69 -67 -145 -67q-60 0 -94 34t-34 90q0 32 12 55.5t38.5 39t47.5 23.5t60 19l110 32v70q0 50 -23 74.5t-55 24.5q-53 0 -80 -19l11 -92q-22 -17 -51 -17q-52 0 -52 49q0 53 51 86t140 33q150 0 150 -143v-261
q0 -11 4 -16.5t8 -6.5t12 -2zM310 92v150l-99 -31q-37 -11 -56 -33t-19 -62q0 -35 18.5 -53.5t45.5 -18.5q32 0 62.5 14.5t47.5 33.5z" />
    <glyph glyph-name="b" unicode="b" horiz-adv-x="525" 
d="M148 47l-47 -55h-29l8 233v274l-3 131q0 37 -19 51.5t-67 14.5v34l153 10h34l-5 -207v-102h7q52 59 128 59q80 0 130 -66t50 -184q0 -108 -61.5 -179t-152.5 -71q-36 0 -67.5 17t-49.5 40h-9zM173 369v-279q13 -22 38 -36.5t55 -14.5q53 0 87 45.5t34 150.5
q0 109 -32 157t-78 48q-61 0 -104 -71z" />
    <glyph glyph-name="c" unicode="c" horiz-adv-x="472" 
d="M408 152l36 -12q-20 -68 -67 -109t-115 -41q-96 0 -160.5 62t-64.5 183q0 110 66 182.5t159 72.5q67 0 116.5 -35.5t49.5 -88.5q0 -35 -15.5 -54t-40.5 -19q-29 0 -45 20t-15 49l27 44q-15 42 -70 42q-59 0 -95 -47t-36 -152q0 -107 40.5 -155.5t104.5 -48.5
q46 0 79 30.5t46 76.5z" />
    <glyph glyph-name="d" unicode="d" horiz-adv-x="536" 
d="M235 -10q-96 0 -147 62.5t-51 180.5q0 122 61.5 189.5t141.5 67.5q36 0 57 -8t45 -29h8v177q0 37 -18.5 51.5t-67.5 14.5v34l149 10h36l-5 -214v-448q0 -21 15 -26.5t65 -5.5v-38l-134 -13h-23l-13 62h-8q-52 -67 -111 -67zM350 116v256q-18 39 -41.5 54t-59.5 15
q-54 0 -82.5 -44.5t-28.5 -155.5q0 -201 109 -201q73 0 103 76z" />
    <glyph glyph-name="e" unicode="e" horiz-adv-x="475" 
d="M408 156l35 -12q-21 -70 -70.5 -112t-125.5 -42q-91 0 -150.5 63t-59.5 181q0 112 59.5 184t149.5 72q82 0 132.5 -54t55.5 -152v-26h-295q-1 -12 -1 -23q0 -105 32.5 -150t97.5 -45q57 0 91.5 32.5t48.5 83.5zM337 299v16q-9 128 -93 128q-47 0 -72 -34t-30 -110h195z
" />
    <glyph glyph-name="f" unicode="f" horiz-adv-x="350" 
d="M312 638v76q-66 0 -91.5 -41.5t-31.5 -131.5v-71h122v-50h-122v-359q0 -20 13 -21l79 -5v-35h-259v35l26 5q26 5 37 16t11 38v326h-74v50h74v46q8 108 65 171t147 63q50 0 80 -24t30 -62q0 -25 -13.5 -41.5t-35.5 -16.5q-40 0 -57 32z" />
    <glyph glyph-name="g" unicode="g" horiz-adv-x="518" 
d="M374 440l66 61l60 -18v-68h-105l-7 -9q26 -41 26 -86q0 -74 -50 -114.5t-126 -40.5q-104 0 -104 -52q0 -21 15 -30t52 -11l168 -8q115 -5 115 -117q0 -70 -70 -121t-180 -51q-90 0 -148 32t-58 88q0 38 25 68.5t69 43.5v11q-60 27 -60 82q0 28 21.5 50t66.5 33v7
q-48 24 -71.5 53.5t-23.5 76.5q0 78 52 124t130 46q80 0 137 -50zM320 317q0 71 -21 100.5t-65 29.5q-43 0 -64 -31t-21 -99q0 -112 85 -112q46 0 66 24t20 88zM413 -81q0 28 -17.5 44t-63.5 18l-182 8q-16 -10 -25 -17.5t-19 -27t-10 -44.5q0 -42 39.5 -64t102.5 -22
q80 0 127.5 30t47.5 75z" />
    <glyph glyph-name="h" unicode="h" horiz-adv-x="555" 
d="M184 433h14q67 57 130 57q62 0 102 -37t40 -120v-286l5 -7l63 -5v-35h-219v35l32 5q27 4 27 22l-1 317q0 58 -75 58q-66 0 -118 -56v-335q0 -6 5 -6l63 -5v-35h-230v35l41 5q15 2 21.5 8.5t6.5 21.5v425l-3 134q0 36 -19.5 51.5t-66.5 15.5v35l133 9h55l-6 -189v-118z
" />
    <glyph glyph-name="i" unicode="i" horiz-adv-x="296" 
d="M200 54q0 -14 5 -14l63 -5v-35h-232v35l35 5q36 4 36 45v291q0 39 -17.5 49.5t-66.5 10.5v35l139 9h38v-426zM82 677q0 27 18 45.5t45 18.5t45.5 -18.5t18.5 -45.5q0 -25 -18.5 -43t-45.5 -18t-45 18t-18 43z" />
    <glyph glyph-name="j" unicode="j" horiz-adv-x="306" 
d="M97 677q0 27 18 45.5t45 18.5t45.5 -18.5t18.5 -45.5q0 -25 -18.5 -43t-45.5 -18t-45 18t-18 43zM122 -114v495q-1 39 -18 49.5t-66 10.5v30l139 9h38v-515q0 -101 -40.5 -145.5t-105.5 -44.5q-48 0 -81.5 23.5t-33.5 57.5q0 33 15.5 50.5t38.5 17.5q21 0 37 -13l-6 -95
q10 -10 27 -10q25 0 40.5 22t15.5 58z" />
    <glyph glyph-name="k" unicode="k" horiz-adv-x="548" 
d="M369 374l-79 -78l173 -230q10 -13 17 -17.5t26 -8.5l36 -5v-35h-147l-168 234h-27v-176q0 -15 26 -18l48 -5v-35h-241v35l36 5q38 5 38 54v420l-3 121q-1 36 -19.5 48.5t-67.5 12.5v34l155 10h33l-5 -223v-239h29l95 110q29 35 25 48.5t-36 15.5v28h192v-38
q-74 -15 -136 -68z" />
    <glyph glyph-name="l" unicode="l" horiz-adv-x="306" 
d="M205 522v-468q0 -14 11 -14l62 -5v-35h-240v35l38 5q36 4 36 45v450l-5 101q0 39 -18.5 49.5t-70.5 10.5v35l149 9h43z" />
    <glyph glyph-name="m" unicode="m" horiz-adv-x="825" 
d="M453 420h8q62 70 143 70q57 0 96 -35t39 -112v-290q0 -13 10 -13l59 -5v-35h-220v35l25 5q34 6 34 42v279q0 76 -68 76q-57 0 -117 -58v-326q0 -13 9 -13l60 -5v-35h-221v35l31 5q29 5 29 37v284q0 76 -67 76q-56 0 -117 -56v-323q0 -18 13 -18l60 -5v-35h-237v35l27 5
q44 8 44 49v272q0 45 -16 60t-60 15v35l121 9h31l2 -58h14q59 68 142 68q41 0 76 -18t50 -52z" />
    <glyph glyph-name="n" unicode="n" horiz-adv-x="555" 
d="M170 423h14q36 35 67 51t80 16q58 0 98.5 -37.5t40.5 -119.5v-286q0 -7 5 -7l63 -5v-35h-219v35l32 5q27 4 27 22v312q0 63 -71 63q-39 0 -65.5 -13.5t-57.5 -42.5v-335q0 -6 5 -6l63 -5v-35h-230v35l41 5q15 2 21.5 8.5t6.5 21.5v299q0 35 -16.5 51t-57.5 16v35l108 9
h41z" />
    <glyph glyph-name="o" unicode="o" horiz-adv-x="519" 
d="M37 239q0 111 64.5 181t158.5 70t158 -70t64 -181q0 -117 -63 -183t-159 -66t-159.5 66t-63.5 183zM138 240q0 -209 122 -209q27 0 46.5 7t37.5 27.5t27.5 64t9.5 110.5q0 120 -32.5 164.5t-88.5 44.5q-27 0 -47 -8t-38 -29.5t-27.5 -64.5t-9.5 -107z" />
    <glyph glyph-name="p" unicode="p" horiz-adv-x="525" 
d="M166 39v-194q0 -18 22 -20l58 -5v-35h-228v35l22 5q40 9 40 43v493q0 49 -13.5 62t-56.5 13v35l123 9h33v-54h7q52 64 116 64q96 0 147.5 -67t51.5 -178q0 -120 -60 -187t-139 -67q-82 0 -116 48h-7zM277 440q-64 0 -111 -82v-240q35 -78 103 -78q117 0 117 195
q0 205 -109 205z" />
    <glyph glyph-name="q" unicode="q" horiz-adv-x="518" 
d="M262 41q34 0 60.5 20t40.5 54v248q-32 80 -99 80q-54 0 -90 -52.5t-36 -149.5q0 -98 35.5 -149t88.5 -51zM363 46h-11q-40 -55 -117 -55q-91 0 -144.5 59.5t-53.5 182.5q0 70 19.5 122t52 80t69 41.5t77.5 13.5t72.5 -19t44.5 -43h8l53 57h22v-614q0 -39 36 -46l27 -5
v-35h-231v35l42 5q34 4 34 24v197z" />
    <glyph glyph-name="r" unicode="r" horiz-adv-x="381" 
d="M297 357l-40 60q-45 -6 -73 -60v-306q0 -11 8 -11l77 -5v-35h-247v35l30 5q39 5 39 46v290q0 30 -16.5 41t-57.5 11v43l116 9h24l3 -72h19q50 82 122 82q27 0 46.5 -16t19.5 -50q0 -28 -21 -47.5t-49 -19.5z" />
    <glyph glyph-name="s" unicode="s" horiz-adv-x="444" 
d="M62 -9v198h34q11 -79 52 -119.5t102 -40.5q41 0 66.5 20t25.5 55q0 40 -28.5 61.5t-122.5 44.5q-137 37 -137 153q0 53 41 90t107 37q79 0 125 -35l25 33h22v-180h-32q-31 141 -144 141q-39 0 -61.5 -16.5t-22.5 -44.5q0 -36 31 -59.5t120 -45.5q81 -21 112 -56.5
t31 -94.5q0 -61 -43 -101.5t-119 -40.5q-42 0 -80.5 12t-58.5 25l-20 -36h-25z" />
    <glyph glyph-name="t" unicode="t" horiz-adv-x="359" 
d="M90 420h-77v46q57 0 87 51t30 140h53v-187h139v-50h-139v-308q0 -74 50 -74q9 0 17.5 4t19.5 15t18 38t7 65h33q0 -101 -35.5 -136.5t-92.5 -35.5q-110 0 -110 124v308z" />
    <glyph glyph-name="u" unicode="u" horiz-adv-x="555" 
d="M380 60h-14q-63 -70 -142 -70q-58 0 -98.5 38.5t-40.5 123.5v257q0 16 -15 17l-53 5v39l161 10v-364q0 -68 65 -68q66 0 128 59v303q0 8 -1.5 11t-3.5 3.5t-10 1.5l-53 5v39l161 10v-371q0 -46 12 -56.5t62 -10.5v-35l-113 -12h-41z" />
    <glyph glyph-name="v" unicode="v" horiz-adv-x="528" 
d="M283 -14h-29l-156 372q-19 48 -41 66.5t-65 22.5v33h250v-33q-54 -5 -62 -22.5t14 -68.5l93 -217h6l90 214q19 45 6.5 67t-63.5 27v33h210v-33q-68 -10 -101 -90z" />
    <glyph glyph-name="w" unicode="w" horiz-adv-x="767" 
d="M511 -5l-121 298l-124 -298h-28l-152 362q-20 51 -38.5 69.5t-55.5 20.5v33h226v-33q-53 -6 -58 -22t21 -68l98 -226h6l85 210l-15 39q-17 37 -34.5 50t-64.5 17v33h250v-33q-58 -4 -66 -19.5t17 -70.5l89 -226h4l85 224q30 85 -70 92v33h210v-33q-68 -11 -100 -96
l-136 -356h-28z" />
    <glyph glyph-name="x" unicode="x" horiz-adv-x="512" 
d="M213 372l51 -70l46 66q31 48 25 62.5t-51 16.5v33h195v-33q-43 -3 -61 -16t-49 -52l-79 -112l116 -157q29 -40 48 -55t48 -20v-35h-237v35q47 5 55.5 20t-18.5 53l-63 88l-57 -80q-28 -48 -22.5 -61t50.5 -20v-35h-198v35q40 7 64 20t47 48l90 128l-101 141
q-37 50 -52 61t-50 14v33h235v-33q-49 -4 -56 -18t24 -57z" />
    <glyph glyph-name="y" unicode="y" horiz-adv-x="524" 
d="M299 107h4l86 238q19 46 7 73.5t-71 33.5v28h207v-28q-33 -5 -53.5 -25.5t-36.5 -60.5l-184 -488q-42 -103 -129 -103q-46 0 -68.5 25t-22.5 58q0 29 15.5 44.5t39.5 15.5q25 0 35 -16v-87q58 0 91 78l33 102l-160 382q-20 38 -40.5 54.5t-59.5 20.5v28h250v-28
q-23 -2 -35.5 -5t-21.5 -11t-8 -22t11 -37z" />
    <glyph glyph-name="z" unicode="z" horiz-adv-x="484" 
d="M159 47v-4h133q45 0 76 48t46 116h34l-14 -207h-401v18l283 416v7h-94q-106 0 -137 -156h-35l12 195h380v-17z" />
    <glyph glyph-name="braceleft" unicode="{" horiz-adv-x="435" 
d="M147 283v-16q63 -9 107 -51.5t44 -104.5q0 -27 -22.5 -95t-22.5 -108q0 -94 156 -94v-42q-137 0 -187.5 35t-50.5 111q0 38 21.5 104t21.5 97q0 59 -43.5 90t-114.5 31v66q67 0 112.5 35t45.5 82q0 35 -20.5 93.5t-20.5 91.5q0 71 51.5 100.5t178.5 29.5v-42
q-150 0 -150 -79q0 -39 22.5 -101.5t22.5 -87.5q0 -53 -43.5 -92.5t-107.5 -52.5z" />
    <glyph glyph-name="bar" unicode="|" horiz-adv-x="544" 
d="M236 -233v984h75v-984h-75z" />
    <glyph glyph-name="braceright" unicode="}" horiz-adv-x="435" 
d="M288 267v16q-64 13 -107.5 52.5t-43.5 92.5q0 25 22.5 87.5t22.5 101.5q0 79 -150 79v42q127 0 178.5 -29.5t51.5 -100.5q0 -33 -20.5 -91.5t-20.5 -93.5q0 -47 45.5 -82t112.5 -35v-66q-71 0 -114.5 -31t-43.5 -90q0 -31 21.5 -97t21.5 -104q0 -76 -50.5 -111
t-187.5 -35v42q156 0 156 94q0 40 -22.5 108t-22.5 95q0 62 44 104.5t107 51.5z" />
    <glyph glyph-name="asciitilde" unicode="~" horiz-adv-x="544" 
d="M475 368l35 -13q-19 -59 -62 -104.5t-82 -45.5q-26 0 -106 38q-86 42 -107 42t-38 -21t-38 -63l-39 15q17 50 60.5 101t70.5 51q30 0 110 -39q76 -42 108 -42q24 0 50.5 26t37.5 55z" />
    <glyph glyph-name="uni00A0" unicode="&#xa0;" horiz-adv-x="230" 
 />
    <glyph glyph-name="exclamdown" unicode="&#xa1;" horiz-adv-x="359" 
d="M121 -133q1 7 8.5 62.5t12.5 96t10 109t5 130.5h44q0 -121 12.5 -232t26.5 -166q8 -41 -6.5 -73.5t-55.5 -32.5q-74 0 -57 106zM249 422q0 -29 -20 -49.5t-49 -20.5t-49.5 20.5t-20.5 49.5q0 28 20.5 48t49.5 20t49 -19.5t20 -48.5z" />
    <glyph glyph-name="cent" unicode="&#xa2;" horiz-adv-x="433" 
d="M372 279l32 -11q-17 -59 -57.5 -95t-97.5 -37v-96h-38v98q-74 10 -120.5 63.5t-46.5 150.5q0 87 47.5 148t119.5 74v92h38v-89q57 -2 99 -33.5t42 -76.5q0 -31 -13.5 -47.5t-36.5 -16.5q-25 0 -39.5 17.5t-13.5 43.5l24 39q-13 37 -62 37v-356h13q41 0 70 27t40 68z
M133 364q0 -136 78 -171v341q-78 -28 -78 -170z" />
    <glyph glyph-name="sterling" unicode="&#xa3;" horiz-adv-x="592" 
d="M77 378h79q-30 75 -30 118q0 86 57.5 133t133.5 47q80 0 126 -38t46 -77q0 -23 -13 -37t-30 -14q-22 0 -36.5 20t-22.5 43.5t-26 43.5t-45 20q-36 0 -61.5 -30.5t-25.5 -90.5q0 -18 4 -37.5t8.5 -32.5t13 -34.5t12.5 -33.5h150v-46h-139q4 -26 4 -42q0 -108 -54 -162
l8 -13q26 17 51 17t48 -14.5t38.5 -32t36 -32t41.5 -14.5q17 0 27.5 9.5t10.5 26.5q0 14 -20.5 34t-20.5 39q0 15 10.5 27t27.5 12q26 0 41 -20.5t15 -58.5q0 -58 -38.5 -89t-89.5 -31q-68 0 -129 30t-88 64h-5q-50 -94 -105 -94q-13 0 -21 7t-8 18q0 30 34 55.5t84 41.5
q20 51 20 122q0 40 -22 100h-97v46z" />
    <glyph glyph-name="currency" unicode="&#xa4;" horiz-adv-x="628" 
d="M92 271q0 68 41 126v7l-46 44q-11 12 -2 28.5t25.5 22t28.5 -2.5l46 -48q60 42 131 42q75 0 128 -39v1l44 46q13 9 30 1t28.5 -26.5t1.5 -28.5l-46 -43v-7q38 -57 38 -123q0 -68 -42 -129v-7l49 -47q11 -11 1.5 -28t-25.5 -23.5t-28 3.5v1l-51 50q-57 -39 -128 -39
q-70 0 -126 35l-42 -44v-1q-11 -12 -31.5 -4.5t-29.5 23.5t1 29l45 44v7q-41 56 -41 130zM158 270q0 -74 44 -121.5t115 -47.5q66 0 110.5 48t44.5 121q0 74 -44.5 121.5t-111.5 47.5q-73 0 -115.5 -48t-42.5 -121z" />
    <glyph glyph-name="yen" unicode="&#xa5;" horiz-adv-x="610" 
d="M605 635v-36q-68 0 -108 -72l-122 -224h128v-46h-138v-55h138v-46h-138v-40q0 -54 17.5 -66.5t77.5 -12.5v-37h-283v37q66 0 79.5 11.5t13.5 67.5v40h-142v46h142v55h-142v46h128l-131 214q-36 53 -56 67.5t-64 14.5v36h269v-36q-53 0 -66 -13.5t11 -48.5l125 -206
l112 205q16 26 4 44t-52 19v36h197z" />
    <glyph glyph-name="brokenbar" unicode="&#xa6;" horiz-adv-x="544" 
d="M311 406h-75v345h75v-345zM236 112h75v-345h-75v345z" />
    <glyph glyph-name="section" unicode="&#xa7;" horiz-adv-x="499" 
d="M62 475q0 109 68 173.5t152 64.5q42 0 74 -20t32 -56q0 -19 -12.5 -31t-35.5 -12q-24 0 -52 31t-53 31q-22 0 -35.5 -21t-13.5 -49q0 -36 26 -82.5t63 -94.5t73.5 -100.5t62.5 -116.5t26 -127q0 -54 -24 -100.5t-60.5 -75t-77 -44t-75.5 -15.5q-46 0 -83.5 22t-37.5 62
q0 19 14 31t38 12q18 0 30.5 -10.5t18.5 -22.5t20.5 -22.5t36.5 -10.5t37.5 16.5t15.5 43.5q0 51 -23.5 102.5t-57 96t-67 91.5t-57 108t-23.5 126zM342 -39l7 -6q34 39 34 111q0 52 -25 110t-61 108.5t-71 99t-59 96t-22 83.5l-8 4q-24 -35 -24 -84q0 -56 25 -114
t60.5 -107.5t70 -97.5t56.5 -101t17 -102z" />
    <glyph glyph-name="dieresis" unicode="&#xa8;" horiz-adv-x="500" 
d="M388 569q0 -20 -16 -35.5t-36 -15.5q-21 0 -37 15.5t-16 35.5q0 21 16 37t37 16q20 0 36 -16t16 -37zM217 569q0 -21 -15.5 -36t-36.5 -15t-37 15.5t-16 35.5q0 21 16 37t37 16t36.5 -16t15.5 -37z" />
    <glyph glyph-name="copyright" unicode="&#xa9;" horiz-adv-x="775" 
d="M48 327q0 138 100.5 238t239.5 100q144 0 241.5 -99t97.5 -239q0 -143 -99.5 -242t-239.5 -99q-142 0 -241 96.5t-99 244.5zM108 324q0 -122 79 -203.5t203 -81.5q123 0 199.5 81t76.5 204q0 125 -79 208t-199 83q-122 0 -201 -83.5t-79 -207.5zM397 183q45 0 70.5 19.5
t39.5 62.5h28v-82q-67 -43 -140 -43q-82 0 -137 50t-55 138q0 84 55 135t137 51q67 0 136 -37v-85h-30q-16 46 -42.5 64t-63.5 18q-51 0 -81.5 -35t-30.5 -110q0 -71 34.5 -108.5t79.5 -37.5z" />
    <glyph glyph-name="ordfeminine" unicode="&#xaa;" horiz-adv-x="394" 
d="M339 370l46 -4q0 -29 -19 -43t-42 -14q-61 0 -70 52q-57 -52 -118 -52q-50 0 -77.5 26.5t-27.5 71.5q0 25 9.5 43.5t30.5 31t39 18.5t49 15l85 24v54q0 37 -17 55.5t-41 18.5q-42 0 -60 -13q1 -12 4 -36t4 -36q-19 -14 -44 -14q-45 0 -45 39q0 42 41.5 68.5t114.5 26.5
q123 0 123 -112v-203q0 -17 15 -17zM244 392v112q-13 -4 -37.5 -11t-36.5 -11q-57 -16 -57 -72q0 -27 13.5 -40.5t33.5 -13.5q46 0 84 36z" />
    <glyph glyph-name="guillemotleft" unicode="&#xab;" horiz-adv-x="652" 
d="M105 240l182 219l33 -20l-118 -201v-15l118 -203l-33 -24l-182 221v23zM312 240l182 219l33 -20l-118 -201v-15l118 -203l-33 -24l-182 221v23z" />
    <glyph glyph-name="logicalnot" unicode="&#xac;" horiz-adv-x="544" 
d="M432 53v200h-393v54h463v-254h-70z" />
    <glyph glyph-name="registered" unicode="&#xae;" horiz-adv-x="508" 
d="M40 503q0 88 63 151t151 63q91 0 152.5 -62.5t61.5 -151.5q0 -88 -63 -151t-151 -63q-89 0 -151.5 61t-62.5 153zM84 502q0 -76 48 -125.5t123 -49.5q70 0 119.5 50.5t49.5 124.5q0 77 -49 126.5t-121 49.5q-78 0 -124 -49.5t-46 -126.5zM287 508v-8q14 -6 38 -39.5
t37 -42.5l15 -7v-20h-55q-14 10 -41.5 52t-47.5 50h-13v-75l37 -7v-20h-114v20l27 7v183l-27 7v20h116q29 0 57 -14t28 -48q0 -20 -15.5 -36.5t-41.5 -21.5zM220 601v-82h26q23 0 34.5 13.5t11.5 31.5q0 37 -40 37h-32z" />
    <glyph glyph-name="macron" unicode="&#xaf;" horiz-adv-x="500" 
d="M377 520h-254v58h254v-58z" />
    <glyph glyph-name="degree" unicode="&#xb0;" horiz-adv-x="367" 
d="M40 564q0 59 42 101.5t101 42.5t101.5 -42.5t42.5 -101.5t-42.5 -101t-101.5 -42t-101 42.5t-42 100.5zM100 564q0 -39 22.5 -65.5t59.5 -26.5t60.5 26.5t23.5 65.5t-23.5 66.5t-60.5 27.5t-59.5 -27.5t-22.5 -66.5z" />
    <glyph glyph-name="plusminus" unicode="&#xb1;" horiz-adv-x="620" 
d="M570 320h-230v-210h-60v210h-230v60h230v210h60v-210h230v-60zM570 0h-520v60h520v-60z" />
    <glyph glyph-name="two.sups" unicode="&#xb2;" horiz-adv-x="320" 
d="M107 474l2 -7h110q26 0 35 65h45l-17 -117h-259l-8 30l24 20q31 26 49 43t50.5 51t49 68.5t16.5 66.5q0 42 -18 60.5t-43 18.5q-42 0 -60 -42l34 -48q0 -19 -13.5 -31t-34.5 -12t-33.5 14.5t-12.5 37.5q0 49 37.5 79.5t88.5 30.5q61 0 98 -29t37 -80q0 -24 -12 -49
t-36.5 -51t-43 -43t-48.5 -42q-27 -22 -40 -35z" />
    <glyph glyph-name="three.sups" unicode="&#xb3;" horiz-adv-x="312" 
d="M187 624l3 -5q42 -6 71 -31.5t29 -69.5q0 -53 -47.5 -81.5t-112.5 -28.5q-50 0 -83.5 20t-33.5 56q0 21 12 33.5t32 12.5q19 0 30.5 -11t11.5 -30l-26 -38q17 -15 53 -15t60 19t24 65q0 73 -58 73q-17 0 -61 -14l-9 29q62 23 89.5 49t27.5 63q0 54 -53 54q-33 0 -54 -18
l26 -46q0 -15 -12 -24.5t-30 -9.5q-19 0 -31 13t-12 34q0 37 37.5 58t85.5 21q54 0 88.5 -23t34.5 -61q0 -28 -26 -53t-66 -41z" />
    <glyph glyph-name="acute" unicode="&#xb4;" horiz-adv-x="500" 
d="M190 498v8l86 164h94v-10l-129 -162h-51z" />
    <glyph glyph-name="mu" unicode="&#xb5;" horiz-adv-x="544" 
d="M373 27l-8 6q-69 -45 -137 -45q-42 0 -73 26v-4q1 -13 3 -38.5t2 -38.5q6 -76 6 -94q0 -56 -48 -56q-40 0 -40 48q0 27 5 105q7 136 9 182v1q-1 7 -1 20v268q-11 1 -32.5 5t-32.5 6v29l158 18v-311q0 -60 21.5 -84t66.5 -24q57 0 95 40v321q-11 2 -32.5 6t-31.5 5v29
l157 18v-367q0 -49 21 -49t34 35l28 -10q-16 -44 -46 -63.5t-59 -19.5q-28 0 -39.5 6.5t-25.5 28.5v1z" />
    <glyph glyph-name="mu" unicode="&#x3bc;" horiz-adv-x="544" 
d="M373 27l-8 6q-69 -45 -137 -45q-42 0 -73 26v-4q1 -13 3 -38.5t2 -38.5q6 -76 6 -94q0 -56 -48 -56q-40 0 -40 48q0 27 5 105q7 136 9 182v1q-1 7 -1 20v268q-11 1 -32.5 5t-32.5 6v29l158 18v-311q0 -60 21.5 -84t66.5 -24q57 0 95 40v321q-11 2 -32.5 6t-31.5 5v29
l157 18v-367q0 -49 21 -49t34 35l28 -10q-16 -44 -46 -63.5t-59 -19.5q-28 0 -39.5 6.5t-25.5 28.5v1z" />
    <glyph glyph-name="paragraph" unicode="&#xb6;" horiz-adv-x="559" 
d="M526 706v-72h-58v-791h-60v791h-65v-791h-60v400q-127 0 -196.5 62t-69.5 170q0 105 69 168t177 63h263zM283 300v334q-56 0 -90 -44.5t-34 -117.5q0 -78 32.5 -125t91.5 -47z" />
    <glyph glyph-name="periodcentered" unicode="&#xb7;" horiz-adv-x="279" 
d="M70 266q0 29 20 49.5t49 20.5t49.5 -20.5t20.5 -49.5q0 -28 -20.5 -48t-49.5 -20t-49 19.5t-20 48.5z" />
    <glyph glyph-name="cedilla" unicode="&#xb8;" horiz-adv-x="500" 
d="M202 -224l-8 25q39 6 63 22.5t24 39.5q0 42 -71 42q-16 0 -30 -2l-5 7l58 110h45l-38 -70q46 0 75.5 -18t29.5 -54q0 -38 -42 -66t-101 -36z" />
    <glyph glyph-name="one.sups" unicode="&#xb9;" horiz-adv-x="270" 
d="M33 750v24q72 4 114 22h35v-316q0 -23 16.5 -32.5t55.5 -9.5v-23h-219v23q41 2 58 10.5t17 31.5v261z" />
    <glyph glyph-name="ordmasculine" unicode="&#xba;" horiz-adv-x="415" 
d="M27 505q0 86 52.5 141.5t128.5 55.5t128.5 -55t52.5 -142q0 -91 -51.5 -143t-129.5 -52t-129.5 52t-51.5 143zM114 506q0 -160 94 -160q44 0 68 32t24 128q0 92 -24.5 126t-67.5 34q-44 0 -69 -33.5t-25 -126.5z" />
    <glyph glyph-name="guillemotright" unicode="&#xbb;" horiz-adv-x="652" 
d="M365 459l182 -219v-23l-182 -221l-33 24l118 203v15l-118 201zM158 459l182 -219v-23l-182 -221l-33 24l118 203v15l-118 201z" />
    <glyph glyph-name="onequarter" unicode="&#xbc;" 
d="M148 -14l241 370l223 353l40 -26l-234 -349l-231 -375zM86 643v24q72 4 114 22h35v-316q0 -23 16.5 -32.5t55.5 -9.5v-23h-219v23q41 2 58 10.5t17 31.5v261zM410 105l-6 14l202 259l35 -5v-240h58v-28h-58v-39q0 -33 14.5 -43t43.5 -10v-23h-189v23q32 0 46.5 10
t14.5 39v43h-161zM465 134l2 -1h103v139z" />
    <glyph glyph-name="onehalf" unicode="&#xbd;" 
d="M148 -14l241 370l223 353l40 -26l-234 -349l-231 -375zM86 643v24q72 4 114 22h35v-316q0 -23 16.5 -32.5t55.5 -9.5v-23h-219v23q41 2 58 10.5t17 31.5v261zM543 49l2 -7h110q26 0 35 65h45l-17 -117h-259l-8 30l24 20q31 26 49 43t50.5 51t49 68.5t16.5 66.5
q0 42 -18 60.5t-43 18.5q-42 0 -60 -42l34 -48q0 -19 -13.5 -31t-34.5 -12t-33.5 14.5t-12.5 37.5q0 49 37.5 79.5t88.5 30.5q61 0 98 -29t37 -80q0 -24 -12 -49t-36.5 -51t-43 -43t-48.5 -42q-27 -22 -40 -35z" />
    <glyph glyph-name="threequarters" unicode="&#xbe;" 
d="M148 -14l241 370l223 353l40 -26l-234 -349l-231 -375zM218 517l3 -5q42 -6 71 -31.5t29 -69.5q0 -53 -47.5 -81.5t-112.5 -28.5q-50 0 -83.5 20t-33.5 56q0 21 12 33.5t32 12.5q19 0 30.5 -11t11.5 -30l-26 -38q17 -15 53 -15t60 19t24 65q0 73 -58 73q-17 0 -61 -14
l-9 29q62 23 89.5 49t27.5 63q0 54 -53 54q-33 0 -54 -18l26 -46q0 -15 -12 -24.5t-30 -9.5q-19 0 -31 13t-12 34q0 37 37.5 58t85.5 21q54 0 88.5 -23t34.5 -61q0 -28 -26 -53t-66 -41zM410 105l-6 14l202 259l35 -5v-240h58v-28h-58v-39q0 -33 14.5 -43t43.5 -10v-23h-189
v23q32 0 46.5 10t14.5 39v43h-161zM465 134l2 -1h103v139z" />
    <glyph glyph-name="questiondown" unicode="&#xbf;" horiz-adv-x="510" 
d="M363 63l-12 -7q-61 28 -119 28q-55 0 -87.5 -36t-32.5 -93t45.5 -105t118.5 -48q43 0 62 21l-31 62q0 22 17 36.5t42 14.5t41 -16.5t16 -48.5q0 -48 -38.5 -79t-102.5 -31q-93 0 -162.5 62.5t-69.5 157.5q0 86 45.5 142t116.5 56q68 0 99 -23l3 109h44zM406 422
q0 -29 -20 -49.5t-49 -20.5t-49.5 20.5t-20.5 49.5q0 28 20.5 48t49.5 20t49 -19.5t20 -48.5z" />
    <glyph glyph-name="Agrave" unicode="&#xc0;" horiz-adv-x="720" 
d="M499 79l-47 125h-244l-43 -123q-7 -24 13 -32.5t82 -8.5v-40h-242v40q42 0 64 13t35 48l222 600h24l243 -607q14 -37 30.5 -45.5t65.5 -8.5v-40h-288v40h27q49 0 58 6t0 33zM329 528h-7l-98 -277h210zM413 755v-8h-51l-129 127v10h94z" />
    <glyph glyph-name="Aacute" unicode="&#xc1;" horiz-adv-x="720" 
d="M499 79l-47 125h-244l-43 -123q-7 -24 13 -32.5t82 -8.5v-40h-242v40q42 0 64 13t35 48l222 600h24l243 -607q14 -37 30.5 -45.5t65.5 -8.5v-40h-288v40h27q49 0 58 6t0 33zM329 528h-7l-98 -277h210zM293 747v8l86 129h94v-10l-129 -127h-51z" />
    <glyph glyph-name="Acircumflex" unicode="&#xc2;" horiz-adv-x="720" 
d="M499 79l-47 125h-244l-43 -123q-7 -24 13 -32.5t82 -8.5v-40h-242v40q42 0 64 13t35 48l222 600h24l243 -607q14 -37 30.5 -45.5t65.5 -8.5v-40h-288v40h27q49 0 58 6t0 33zM329 528h-7l-98 -277h210zM498 755v-8h-46l-99 69l-99 -69h-46v8l121 129h48z" />
    <glyph glyph-name="Atilde" unicode="&#xc3;" horiz-adv-x="720" 
d="M499 79l-47 125h-244l-43 -123q-7 -24 13 -32.5t82 -8.5v-40h-242v40q42 0 64 13t35 48l222 600h24l243 -607q14 -37 30.5 -45.5t65.5 -8.5v-40h-288v40h27q49 0 58 6t0 33zM329 528h-7l-98 -277h210zM481 907l26 -10q-14 -49 -43 -87t-55 -38q-15 0 -63.5 30t-63.5 30
q-16 0 -27.5 -16t-25.5 -47l-29 12q11 40 41 81.5t48 41.5q19 0 65 -30.5t64 -30.5q17 0 36 21t27 43z" />
    <glyph glyph-name="Adieresis" unicode="&#xc4;" horiz-adv-x="720" 
d="M499 79l-47 125h-244l-43 -123q-7 -24 13 -32.5t82 -8.5v-40h-242v40q42 0 64 13t35 48l222 600h24l243 -607q14 -37 30.5 -45.5t65.5 -8.5v-40h-288v40h27q49 0 58 6t0 33zM329 528h-7l-98 -277h210zM491 828q0 -20 -16 -35.5t-36 -15.5q-21 0 -37 15.5t-16 35.5
q0 21 16 37t37 16q20 0 36 -16t16 -37zM320 828q0 -20 -15 -35.5t-37 -15.5q-21 0 -37 15.5t-16 35.5q0 21 16 37t37 16t36.5 -16t15.5 -37z" />
    <glyph glyph-name="Aring" unicode="&#xc5;" horiz-adv-x="720" 
d="M499 79l-47 125h-244l-43 -123q-7 -24 13 -32.5t82 -8.5v-40h-242v40q42 0 64 13t35 48l222 600h24l243 -607q14 -37 30.5 -45.5t65.5 -8.5v-40h-288v40h27q49 0 58 6t0 33zM329 528h-7l-98 -277h210zM259 841q0 39 27.5 66.5t66.5 27.5t66.5 -27.5t27.5 -66.5
t-27.5 -66.5t-66.5 -27.5t-66.5 27.5t-27.5 66.5zM305 841q0 -22 13 -36.5t34 -14.5t34.5 14.5t13.5 36.5t-13.5 37.5t-34.5 15.5t-34 -15.5t-13 -37.5z" />
    <glyph glyph-name="AE" unicode="&#xc6;" horiz-adv-x="1011" 
d="M971 247l-13 -247h-578v40q68 0 85 4.5t17 24.5v135h-241l-77 -123q-18 -29 24 -36q24 -5 71 -5v-40h-242v40q26 0 44.5 8.5t26 17t28.5 35.5l356 541q-15 10 -92 10v39h548l11 -217h-39q-18 101 -48.5 139.5t-98.5 38.5h-167v-291h74q100 0 100 137h35v-312h-35
q0 81 -21.5 106.5t-84.5 25.5h-68v-278h191q71 0 112 64t41 143h41zM476 576l-205 -325h211v325h-6z" />
    <glyph glyph-name="Ccedilla" unicode="&#xc7;" horiz-adv-x="684" 
d="M337 -216l-8 25q39 6 63 22.5t24 39.5q0 42 -71 42q-16 0 -30 -2l-5 7l38 72q-136 12 -215.5 107t-79.5 248q0 147 101.5 251.5t233.5 104.5q54 0 101 -13.5t72 -31.5l3 1l24 34h31l4 -261h-42q-7 41 -21.5 79t-37.5 72t-58.5 54.5t-79.5 20.5q-102 0 -158 -86t-56 -227
q0 -309 219 -309q78 0 126 47t70 144h46l-23 -181q-82 -54 -217 -56l-16 -30q46 0 75.5 -18t29.5 -54q0 -38 -42 -66t-101 -36z" />
    <glyph glyph-name="Egrave" unicode="&#xc8;" horiz-adv-x="661" 
d="M621 247l-13 -247h-578v40q68 0 85 4.5t17 24.5v552q0 20 -18.5 25.5t-83.5 5.5v39h548l11 -217h-39q-18 101 -48.5 139.5t-98.5 38.5h-167v-291h74q100 0 100 137h35v-312h-35q0 81 -21.5 106.5t-84.5 25.5h-68v-278h191q71 0 112 64t41 143h41zM399 755v-8h-51
l-129 127v10h94z" />
    <glyph glyph-name="Eacute" unicode="&#xc9;" horiz-adv-x="661" 
d="M621 247l-13 -247h-578v40q68 0 85 4.5t17 24.5v552q0 20 -18.5 25.5t-83.5 5.5v39h548l11 -217h-39q-18 101 -48.5 139.5t-98.5 38.5h-167v-291h74q100 0 100 137h35v-312h-35q0 81 -21.5 106.5t-84.5 25.5h-68v-278h191q71 0 112 64t41 143h41zM279 747v8l86 129h94
v-10l-129 -127h-51z" />
    <glyph glyph-name="Ecircumflex" unicode="&#xca;" horiz-adv-x="661" 
d="M621 247l-13 -247h-578v40q68 0 85 4.5t17 24.5v552q0 20 -18.5 25.5t-83.5 5.5v39h548l11 -217h-39q-18 101 -48.5 139.5t-98.5 38.5h-167v-291h74q100 0 100 137h35v-312h-35q0 81 -21.5 106.5t-84.5 25.5h-68v-278h191q71 0 112 64t41 143h41zM484 755v-8h-46l-99 69
l-99 -69h-46v8l121 129h48z" />
    <glyph glyph-name="Edieresis" unicode="&#xcb;" horiz-adv-x="661" 
d="M621 247l-13 -247h-578v40q68 0 85 4.5t17 24.5v552q0 20 -18.5 25.5t-83.5 5.5v39h548l11 -217h-39q-18 101 -48.5 139.5t-98.5 38.5h-167v-291h74q100 0 100 137h35v-312h-35q0 81 -21.5 106.5t-84.5 25.5h-68v-278h191q71 0 112 64t41 143h41zM477 828
q0 -20 -16 -35.5t-36 -15.5q-21 0 -37 15.5t-16 35.5q0 21 16 37t37 16q20 0 36 -16t16 -37zM306 828q0 -20 -15 -35.5t-37 -15.5q-21 0 -37 15.5t-16 35.5q0 21 16 37t37 16t36.5 -16t15.5 -37z" />
    <glyph glyph-name="Igrave" unicode="&#xcc;" horiz-adv-x="379" 
d="M344 691v-39q-68 0 -85.5 -6.5t-17.5 -33.5v-528q0 -30 16.5 -37t86.5 -7v-40h-309v40q69 0 85.5 7t16.5 37v528q0 28 -17 34t-85 6v39h309zM249 755v-8h-51l-129 127v10h94z" />
    <glyph glyph-name="Iacute" unicode="&#xcd;" horiz-adv-x="379" 
d="M344 691v-39q-68 0 -85.5 -6.5t-17.5 -33.5v-528q0 -30 16.5 -37t86.5 -7v-40h-309v40q69 0 85.5 7t16.5 37v528q0 28 -17 34t-85 6v39h309zM129 747v8l86 129h94v-10l-129 -127h-51z" />
    <glyph glyph-name="Icircumflex" unicode="&#xce;" horiz-adv-x="379" 
d="M344 691v-39q-68 0 -85.5 -6.5t-17.5 -33.5v-528q0 -30 16.5 -37t86.5 -7v-40h-309v40q69 0 85.5 7t16.5 37v528q0 28 -17 34t-85 6v39h309zM334 755v-8h-46l-99 69l-99 -69h-46v8l121 129h48z" />
    <glyph glyph-name="Idieresis" unicode="&#xcf;" horiz-adv-x="379" 
d="M344 691v-39q-68 0 -85.5 -6.5t-17.5 -33.5v-528q0 -30 16.5 -37t86.5 -7v-40h-309v40q69 0 85.5 7t16.5 37v528q0 28 -17 34t-85 6v39h309zM327 828q0 -20 -16 -35.5t-36 -15.5q-21 0 -37 15.5t-16 35.5q0 21 16 37t37 16q20 0 36 -16t16 -37zM156 828q0 -20 -15 -35.5
t-37 -15.5q-21 0 -37 15.5t-16 35.5q0 21 16 37t37 16t36.5 -16t15.5 -37z" />
    <glyph glyph-name="Eth" unicode="&#xd0;" horiz-adv-x="761" 
d="M708 345q0 -65 -21.5 -124.5t-64 -110t-115 -80.5t-165.5 -30h-312v40q70 2 86 6.5t16 27.5v246h-83v55h83v246q0 21 -16 26t-86 5v39h310q81 0 146 -22t105.5 -57t67.5 -82t38 -92.5t11 -92.5zM589 344q0 139 -66 223.5t-211 84.5h-76v-277h205v-55h-205v-280h104
q67 0 117 26.5t78 71.5t41 96.5t13 109.5z" />
    <glyph glyph-name="Ntilde" unicode="&#xd1;" horiz-adv-x="752" 
d="M174 553h-4v-461q0 -33 27 -42.5t92 -9.5v-40h-261v40q50 0 74 10t24 42v509q-42 51 -103 51v39h173l396 -508h4v420q0 49 -121 49v39h254v-39q-52 0 -71 -11.5t-19 -37.5v-613h-27zM511 907l26 -10q-14 -49 -43 -87t-55 -38q-15 0 -63.5 30t-63.5 30q-16 0 -27.5 -16
t-25.5 -47l-29 12q11 40 41 81.5t48 41.5q19 0 65 -30.5t64 -30.5q17 0 36 21t27 43z" />
    <glyph glyph-name="Ograve" unicode="&#xd2;" horiz-adv-x="751" 
d="M698 345q0 -151 -95 -254t-227 -103q-137 0 -230 100t-93 257q0 158 92.5 257t230.5 99q133 0 227.5 -100.5t94.5 -255.5zM580 345q0 148 -47 229.5t-157 81.5q-112 0 -158.5 -79.5t-46.5 -231.5q0 -150 47.5 -230.5t157.5 -80.5q102 0 153 83t51 228zM436 755v-8h-51
l-129 127v10h94z" />
    <glyph glyph-name="Oacute" unicode="&#xd3;" horiz-adv-x="751" 
d="M698 345q0 -151 -95 -254t-227 -103q-137 0 -230 100t-93 257q0 158 92.5 257t230.5 99q133 0 227.5 -100.5t94.5 -255.5zM580 345q0 148 -47 229.5t-157 81.5q-112 0 -158.5 -79.5t-46.5 -231.5q0 -150 47.5 -230.5t157.5 -80.5q102 0 153 83t51 228zM316 747v8l86 129
h94v-10l-129 -127h-51z" />
    <glyph glyph-name="Ocircumflex" unicode="&#xd4;" horiz-adv-x="751" 
d="M698 345q0 -151 -95 -254t-227 -103q-137 0 -230 100t-93 257q0 158 92.5 257t230.5 99q133 0 227.5 -100.5t94.5 -255.5zM580 345q0 148 -47 229.5t-157 81.5q-112 0 -158.5 -79.5t-46.5 -231.5q0 -150 47.5 -230.5t157.5 -80.5q102 0 153 83t51 228zM521 755v-8h-46
l-99 69l-99 -69h-46v8l121 129h48z" />
    <glyph glyph-name="Otilde" unicode="&#xd5;" horiz-adv-x="751" 
d="M698 345q0 -151 -95 -254t-227 -103q-137 0 -230 100t-93 257q0 158 92.5 257t230.5 99q133 0 227.5 -100.5t94.5 -255.5zM580 345q0 148 -47 229.5t-157 81.5q-112 0 -158.5 -79.5t-46.5 -231.5q0 -150 47.5 -230.5t157.5 -80.5q102 0 153 83t51 228zM504 907l26 -10
q-14 -49 -43 -87t-55 -38q-15 0 -63.5 30t-63.5 30q-16 0 -27.5 -16t-25.5 -47l-29 12q11 40 41 81.5t48 41.5q19 0 65 -30.5t64 -30.5q17 0 36 21t27 43z" />
    <glyph glyph-name="Odieresis" unicode="&#xd6;" horiz-adv-x="751" 
d="M698 345q0 -151 -95 -254t-227 -103q-137 0 -230 100t-93 257q0 158 92.5 257t230.5 99q133 0 227.5 -100.5t94.5 -255.5zM580 345q0 148 -47 229.5t-157 81.5q-112 0 -158.5 -79.5t-46.5 -231.5q0 -150 47.5 -230.5t157.5 -80.5q102 0 153 83t51 228zM514 828
q0 -20 -16 -35.5t-36 -15.5q-21 0 -37 15.5t-16 35.5q0 21 16 37t37 16q20 0 36 -16t16 -37zM343 828q0 -20 -15.5 -35.5t-36.5 -15.5t-37 15.5t-16 35.5q0 21 16 37t37 16t36.5 -16t15.5 -37z" />
    <glyph glyph-name="multiply" unicode="&#xd7;" horiz-adv-x="620" 
d="M493 35l-183 183l-183 -183l-42 42l183 183l-183 183l42 42l183 -183l183 183l42 -42l-183 -183l183 -183z" />
    <glyph glyph-name="Oslash" unicode="&#xd8;" horiz-adv-x="751" 
d="M698 345q0 -151 -95 -254t-227 -103q-106 0 -188 62l-74 -103h-61l98 135q-98 101 -98 263q0 158 92.5 257t230.5 99q97 0 179 -58l64 89h61l-87 -121q105 -103 105 -266zM580 345q0 126 -33 202l-321 -444q52 -69 150 -69q102 0 153 83t51 228zM171 345q0 -120 29 -194
l319 442q-50 63 -143 63q-112 0 -158.5 -79.5t-46.5 -231.5z" />
    <glyph glyph-name="Ugrave" unicode="&#xd9;" horiz-adv-x="748" 
d="M726 691v-39q-53 0 -75 -10t-22 -33v-328q0 -145 -58 -219t-197 -74q-258 0 -258 237v387q0 27 -15 33.5t-79 6.5v39h296v-39q-65 0 -81 -6.5t-16 -33.5v-387q0 -96 46 -144.5t121 -48.5q49 0 84.5 15t55.5 37.5t31.5 57t15 66.5t3.5 73v328q0 23 -26 33t-91 10v39h265z
M458 755v-8h-51l-129 127v10h94z" />
    <glyph glyph-name="Uacute" unicode="&#xda;" horiz-adv-x="748" 
d="M726 691v-39q-53 0 -75 -10t-22 -33v-328q0 -145 -58 -219t-197 -74q-258 0 -258 237v387q0 27 -15 33.5t-79 6.5v39h296v-39q-65 0 -81 -6.5t-16 -33.5v-387q0 -96 46 -144.5t121 -48.5q49 0 84.5 15t55.5 37.5t31.5 57t15 66.5t3.5 73v328q0 23 -26 33t-91 10v39h265z
M338 747v8l86 129h94v-10l-129 -127h-51z" />
    <glyph glyph-name="Ucircumflex" unicode="&#xdb;" horiz-adv-x="748" 
d="M726 691v-39q-53 0 -75 -10t-22 -33v-328q0 -145 -58 -219t-197 -74q-258 0 -258 237v387q0 27 -15 33.5t-79 6.5v39h296v-39q-65 0 -81 -6.5t-16 -33.5v-387q0 -96 46 -144.5t121 -48.5q49 0 84.5 15t55.5 37.5t31.5 57t15 66.5t3.5 73v328q0 23 -26 33t-91 10v39h265z
M543 755v-8h-46l-99 69l-99 -69h-46v8l121 129h48z" />
    <glyph glyph-name="Udieresis" unicode="&#xdc;" horiz-adv-x="748" 
d="M726 691v-39q-53 0 -75 -10t-22 -33v-328q0 -145 -58 -219t-197 -74q-258 0 -258 237v387q0 27 -15 33.5t-79 6.5v39h296v-39q-65 0 -81 -6.5t-16 -33.5v-387q0 -96 46 -144.5t121 -48.5q49 0 84.5 15t55.5 37.5t31.5 57t15 66.5t3.5 73v328q0 23 -26 33t-91 10v39h265z
M536 828q0 -20 -16 -35.5t-36 -15.5q-21 0 -37 15.5t-16 35.5q0 21 16 37t37 16q20 0 36 -16t16 -37zM365 828q0 -20 -15.5 -35.5t-36.5 -15.5t-37 15.5t-16 35.5q0 21 16 37t37 16t36.5 -16t15.5 -37z" />
    <glyph glyph-name="Yacute" unicode="&#xdd;" horiz-adv-x="684" 
d="M669 691v-39q-68 0 -118 -79l-144 -263v-184q0 -59 19 -72.5t84 -13.5v-40h-308v40q72 0 86.5 13t14.5 73v180l-157 257q-39 57 -61 73t-70 16v39h293v-39q-58 0 -72 -14.5t12 -53.5l136 -224l123 223q17 28 4 48t-56 21v39h214zM329 747v8l86 129h94v-10l-129 -127h-51z
" />
    <glyph glyph-name="Thorn" unicode="&#xde;" horiz-adv-x="613" 
d="M325 172h-89v-84q0 -32 19 -40t83 -8v-40h-308v40q63 0 82.5 8t19.5 40v515q0 31 -23.5 40t-78.5 9v39h308v-39q-62 0 -82 -7.5t-20 -41.5v-53h98q45 0 84.5 -9t76 -28.5t57.5 -56.5t21 -89q0 -98 -74 -146.5t-174 -48.5zM310 511h-74v-295h78q68 0 108 34.5t40 104.5
q0 77 -41.5 116.5t-110.5 39.5z" />
    <glyph glyph-name="germandbls" unicode="&#xdf;" horiz-adv-x="581" 
d="M507 599q0 -33 -18.5 -59.5t-40.5 -40.5t-40.5 -29.5t-18.5 -28.5q0 -10 16 -21.5t38.5 -27t45.5 -37t39 -59t16 -84.5q0 -91 -60 -154.5t-153 -64.5q-37 0 -74 13l-20 100h41q10 -31 24.5 -48t41.5 -17q44 0 74 43.5t30 113.5q0 37 -15.5 67t-37.5 48t-44.5 32.5
t-38 29.5t-15.5 31q0 21 17.5 41.5t39 36t39 45.5t17.5 68q0 51 -29.5 81t-74.5 30q-58 0 -90 -48t-32 -123v-537h-162v35l43 5q16 2 21.5 7t4.5 20v463q0 91 59 155.5t154 64.5q91 0 147 -45.5t56 -105.5z" />
    <glyph glyph-name="agrave" unicode="&#xe0;" horiz-adv-x="492" 
d="M425 61l52 -5q0 -34 -22 -51t-49 -17q-74 0 -83 67h-8q-69 -67 -145 -67q-60 0 -94 34t-34 90q0 32 12 55.5t38.5 39t47.5 23.5t60 19l110 32v70q0 50 -23 74.5t-55 24.5q-53 0 -80 -19l11 -92q-22 -17 -51 -17q-52 0 -52 49q0 53 51 86t140 33q150 0 150 -143v-261
q0 -11 4 -16.5t8 -6.5t12 -2zM310 92v150l-99 -31q-37 -11 -56 -33t-19 -62q0 -35 18.5 -53.5t45.5 -18.5q32 0 62.5 14.5t47.5 33.5zM296 551v-8h-51l-129 162v10h94z" />
    <glyph glyph-name="aacute" unicode="&#xe1;" horiz-adv-x="492" 
d="M425 61l52 -5q0 -34 -22 -51t-49 -17q-74 0 -83 67h-8q-69 -67 -145 -67q-60 0 -94 34t-34 90q0 32 12 55.5t38.5 39t47.5 23.5t60 19l110 32v70q0 50 -23 74.5t-55 24.5q-53 0 -80 -19l11 -92q-22 -17 -51 -17q-52 0 -52 49q0 53 51 86t140 33q150 0 150 -143v-261
q0 -11 4 -16.5t8 -6.5t12 -2zM310 92v150l-99 -31q-37 -11 -56 -33t-19 -62q0 -35 18.5 -53.5t45.5 -18.5q32 0 62.5 14.5t47.5 33.5zM176 543v8l86 164h94v-10l-129 -162h-51z" />
    <glyph glyph-name="acircumflex" unicode="&#xe2;" horiz-adv-x="492" 
d="M425 61l52 -5q0 -34 -22 -51t-49 -17q-74 0 -83 67h-8q-69 -67 -145 -67q-60 0 -94 34t-34 90q0 32 12 55.5t38.5 39t47.5 23.5t60 19l110 32v70q0 50 -23 74.5t-55 24.5q-53 0 -80 -19l11 -92q-22 -17 -51 -17q-52 0 -52 49q0 53 51 86t140 33q150 0 150 -143v-261
q0 -11 4 -16.5t8 -6.5t12 -2zM310 92v150l-99 -31q-37 -11 -56 -33t-19 -62q0 -35 18.5 -53.5t45.5 -18.5q32 0 62.5 14.5t47.5 33.5zM381 551v-8h-46l-99 99l-99 -99h-46v8l121 164h48z" />
    <glyph glyph-name="atilde" unicode="&#xe3;" horiz-adv-x="492" 
d="M425 61l52 -5q0 -34 -22 -51t-49 -17q-74 0 -83 67h-8q-69 -67 -145 -67q-60 0 -94 34t-34 90q0 32 12 55.5t38.5 39t47.5 23.5t60 19l110 32v70q0 50 -23 74.5t-55 24.5q-53 0 -80 -19l11 -92q-22 -17 -51 -17q-52 0 -52 49q0 53 51 86t140 33q150 0 150 -143v-261
q0 -11 4 -16.5t8 -6.5t12 -2zM310 92v150l-99 -31q-37 -11 -56 -33t-19 -62q0 -35 18.5 -53.5t45.5 -18.5q32 0 62.5 14.5t47.5 33.5zM364 693l26 -10q-14 -49 -43 -87t-55 -38q-15 0 -63.5 30t-63.5 30q-16 0 -27.5 -16t-25.5 -47l-29 12q11 40 41 81.5t48 41.5
q19 0 65 -30.5t64 -30.5q17 0 36 21t27 43z" />
    <glyph glyph-name="adieresis" unicode="&#xe4;" horiz-adv-x="492" 
d="M425 61l52 -5q0 -34 -22 -51t-49 -17q-74 0 -83 67h-8q-69 -67 -145 -67q-60 0 -94 34t-34 90q0 32 12 55.5t38.5 39t47.5 23.5t60 19l110 32v70q0 50 -23 74.5t-55 24.5q-53 0 -80 -19l11 -92q-22 -17 -51 -17q-52 0 -52 49q0 53 51 86t140 33q150 0 150 -143v-261
q0 -11 4 -16.5t8 -6.5t12 -2zM310 92v150l-99 -31q-37 -11 -56 -33t-19 -62q0 -35 18.5 -53.5t45.5 -18.5q32 0 62.5 14.5t47.5 33.5zM374 614q0 -20 -16 -35.5t-36 -15.5q-21 0 -37 15.5t-16 35.5q0 21 16 37t37 16q20 0 36 -16t16 -37zM203 614q0 -20 -15.5 -35.5
t-36.5 -15.5t-37 15.5t-16 35.5q0 21 16 37t37 16t36.5 -16t15.5 -37z" />
    <glyph glyph-name="aring" unicode="&#xe5;" horiz-adv-x="492" 
d="M425 61l52 -5q0 -34 -22 -51t-49 -17q-74 0 -83 67h-8q-69 -67 -145 -67q-60 0 -94 34t-34 90q0 32 12 55.5t38.5 39t47.5 23.5t60 19l110 32v70q0 50 -23 74.5t-55 24.5q-53 0 -80 -19l11 -92q-22 -17 -51 -17q-52 0 -52 49q0 53 51 86t140 33q150 0 150 -143v-261
q0 -11 4 -16.5t8 -6.5t12 -2zM310 92v150l-99 -31q-37 -11 -56 -33t-19 -62q0 -35 18.5 -53.5t45.5 -18.5q32 0 62.5 14.5t47.5 33.5zM142 627q0 39 27.5 66.5t66.5 27.5t66.5 -27.5t27.5 -66.5t-27.5 -66.5t-66.5 -27.5t-66.5 27.5t-27.5 66.5zM188 627q0 -22 13 -36.5
t34 -14.5t34.5 14.5t13.5 36.5t-13.5 37.5t-34.5 15.5t-34 -15.5t-13 -37.5z" />
    <glyph glyph-name="ae" unicode="&#xe6;" horiz-adv-x="741" 
d="M674 157l35 -12q-21 -70 -70.5 -112t-125.5 -42q-119 0 -171 74h-17q-72 -77 -155 -77q-60 0 -94 34t-34 90q0 32 12 55.5t38.5 39t47.5 23.5t60 19l110 32v70q0 50 -23 74.5t-55 24.5q-53 0 -80 -19l11 -92q-22 -17 -51 -17q-52 0 -52 49q0 53 51 86t140 33
q91 0 127 -55q57 55 134 55q82 0 132.5 -54t55.5 -152v-26h-295q-1 -12 -1 -23q0 -105 32.5 -149.5t97.5 -44.5q57 0 91.5 32.5t48.5 83.5zM310 92v150l-99 -31q-37 -11 -56 -33t-19 -62q0 -35 18.5 -53.5t45.5 -18.5q32 0 62.5 14.5t47.5 33.5zM603 299v16q-9 128 -93 128
q-47 0 -72 -34t-30 -110h195z" />
    <glyph glyph-name="ccedilla" unicode="&#xe7;" horiz-adv-x="472" 
d="M220 -229l-8 25q39 6 63 22.5t24 39.5q0 42 -71 42q-16 0 -30 -2l-5 7l45 86q-87 7 -144 68.5t-57 175.5q0 110 66 182.5t159 72.5q67 0 116.5 -35.5t49.5 -88.5q0 -35 -15.5 -54t-40.5 -19q-29 0 -45 20t-15 49l27 44q-15 42 -70 42q-59 0 -95 -47t-36 -152
q0 -107 40.5 -155.5t104.5 -48.5q46 0 79 30.5t46 76.5l36 -12q-18 -63 -59.5 -102.5t-101.5 -46.5l-25 -46q46 0 75.5 -18t29.5 -54q0 -38 -42 -66t-101 -36z" />
    <glyph glyph-name="egrave" unicode="&#xe8;" horiz-adv-x="475" 
d="M408 156l35 -12q-21 -70 -70.5 -112t-125.5 -42q-91 0 -150.5 63t-59.5 181q0 112 59.5 184t149.5 72q82 0 132.5 -54t55.5 -152v-26h-295q-1 -12 -1 -23q0 -105 32.5 -150t97.5 -45q57 0 91.5 32.5t48.5 83.5zM337 299v16q-9 128 -93 128q-47 0 -72 -34t-30 -110h195z
M304 551v-8h-51l-129 162v10h94z" />
    <glyph glyph-name="eacute" unicode="&#xe9;" horiz-adv-x="475" 
d="M408 156l35 -12q-21 -70 -70.5 -112t-125.5 -42q-91 0 -150.5 63t-59.5 181q0 112 59.5 184t149.5 72q82 0 132.5 -54t55.5 -152v-26h-295q-1 -12 -1 -23q0 -105 32.5 -150t97.5 -45q57 0 91.5 32.5t48.5 83.5zM337 299v16q-9 128 -93 128q-47 0 -72 -34t-30 -110h195z
M184 543v8l86 164h94v-10l-129 -162h-51z" />
    <glyph glyph-name="ecircumflex" unicode="&#xea;" horiz-adv-x="475" 
d="M408 156l35 -12q-21 -70 -70.5 -112t-125.5 -42q-91 0 -150.5 63t-59.5 181q0 112 59.5 184t149.5 72q82 0 132.5 -54t55.5 -152v-26h-295q-1 -12 -1 -23q0 -105 32.5 -150t97.5 -45q57 0 91.5 32.5t48.5 83.5zM337 299v16q-9 128 -93 128q-47 0 -72 -34t-30 -110h195z
M389 551v-8h-46l-99 99l-99 -99h-46v8l121 164h48z" />
    <glyph glyph-name="edieresis" unicode="&#xeb;" horiz-adv-x="475" 
d="M408 156l35 -12q-21 -70 -70.5 -112t-125.5 -42q-91 0 -150.5 63t-59.5 181q0 112 59.5 184t149.5 72q82 0 132.5 -54t55.5 -152v-26h-295q-1 -12 -1 -23q0 -105 32.5 -150t97.5 -45q57 0 91.5 32.5t48.5 83.5zM337 299v16q-9 128 -93 128q-47 0 -72 -34t-30 -110h195z
M382 614q0 -20 -16 -35.5t-36 -15.5q-21 0 -37 15.5t-16 35.5q0 21 16 37t37 16q20 0 36 -16t16 -37zM211 614q0 -20 -15.5 -35.5t-36.5 -15.5t-37 15.5t-16 35.5q0 21 16 37t37 16t36.5 -16t15.5 -37z" />
    <glyph glyph-name="igrave" unicode="&#xec;" horiz-adv-x="296" 
d="M200 54q0 -14 5 -14l63 -5v-35h-232v35l35 5q36 4 36 45v291q0 39 -17.5 49.5t-66.5 10.5v35l139 9h38v-426zM213 548v-8h-51l-129 162v10h94z" />
    <glyph glyph-name="iacute" unicode="&#xed;" horiz-adv-x="296" 
d="M200 54q0 -14 5 -14l63 -5v-35h-232v35l35 5q36 4 36 45v291q0 39 -17.5 49.5t-66.5 10.5v35l139 9h38v-426zM93 540v8l86 164h94v-10l-129 -162h-51z" />
    <glyph glyph-name="icircumflex" unicode="&#xee;" horiz-adv-x="296" 
d="M200 54q0 -14 5 -14l63 -5v-35h-232v35l35 5q36 4 36 45v291q0 39 -17.5 49.5t-66.5 10.5v35l139 9h38v-426zM298 548v-8h-46l-99 99l-99 -99h-46v8l121 164h48z" />
    <glyph glyph-name="idieresis" unicode="&#xef;" horiz-adv-x="296" 
d="M200 54q0 -14 5 -14l63 -5v-35h-232v35l35 5q36 4 36 45v291q0 39 -17.5 49.5t-66.5 10.5v35l139 9h38v-426zM291 611q0 -20 -16 -35.5t-36 -15.5q-21 0 -37 15.5t-16 35.5q0 21 16 37t37 16q20 0 36 -16t16 -37zM120 611q0 -21 -15 -36t-37 -15q-21 0 -37 15.5t-16 35.5
q0 21 16 37t37 16t36.5 -16t15.5 -37z" />
    <glyph glyph-name="eth" unicode="&#xf0;" horiz-adv-x="519" 
d="M141 572l86 58q-52 54 -103 80l11 30q77 -30 141 -78l109 73l26 -35l-100 -66q171 -153 171 -395q0 -117 -63.5 -184t-158.5 -67q-96 0 -159.5 67t-63.5 184q0 111 64.5 181t158.5 70q33 0 73 -20l6 7q-30 59 -82 121l-90 -60zM138 240q0 -211 122 -211q27 0 46.5 7.5
t37.5 28t27.5 64.5t9.5 111q0 120 -32.5 164.5t-88.5 44.5q-27 0 -47 -8t-38 -29.5t-27.5 -64.5t-9.5 -107z" />
    <glyph glyph-name="ntilde" unicode="&#xf1;" horiz-adv-x="555" 
d="M170 423h14q36 35 67 51t80 16q58 0 98.5 -37.5t40.5 -119.5v-286q0 -7 5 -7l63 -5v-35h-219v35l32 5q27 4 27 22v312q0 63 -71 63q-39 0 -65.5 -13.5t-57.5 -42.5v-335q0 -6 5 -6l63 -5v-35h-230v35l41 5q15 2 21.5 8.5t6.5 21.5v299q0 35 -16.5 51t-57.5 16v35l108 9
h41zM417 693l26 -10q-14 -49 -43 -87t-55 -38q-15 0 -63.5 30t-63.5 30q-16 0 -27.5 -16t-25.5 -47l-29 12q11 40 41 81.5t48 41.5q19 0 65 -30.5t64 -30.5q17 0 36 21t27 43z" />
    <glyph glyph-name="ograve" unicode="&#xf2;" horiz-adv-x="519" 
d="M37 239q0 111 64.5 181t158.5 70t158 -70t64 -181q0 -117 -63 -183t-159 -66t-159.5 66t-63.5 183zM138 240q0 -209 122 -209q27 0 46.5 7t37.5 27.5t27.5 64t9.5 110.5q0 120 -32.5 164.5t-88.5 44.5q-27 0 -47 -8t-38 -29.5t-27.5 -64.5t-9.5 -107zM321 551v-8h-51
l-129 162v10h94z" />
    <glyph glyph-name="oacute" unicode="&#xf3;" horiz-adv-x="519" 
d="M37 239q0 111 64.5 181t158.5 70t158 -70t64 -181q0 -117 -63 -183t-159 -66t-159.5 66t-63.5 183zM138 240q0 -209 122 -209q27 0 46.5 7t37.5 27.5t27.5 64t9.5 110.5q0 120 -32.5 164.5t-88.5 44.5q-27 0 -47 -8t-38 -29.5t-27.5 -64.5t-9.5 -107zM201 543v8l86 164
h94v-10l-129 -162h-51z" />
    <glyph glyph-name="ocircumflex" unicode="&#xf4;" horiz-adv-x="519" 
d="M37 239q0 111 64.5 181t158.5 70t158 -70t64 -181q0 -117 -63 -183t-159 -66t-159.5 66t-63.5 183zM138 240q0 -209 122 -209q27 0 46.5 7t37.5 27.5t27.5 64t9.5 110.5q0 120 -32.5 164.5t-88.5 44.5q-27 0 -47 -8t-38 -29.5t-27.5 -64.5t-9.5 -107zM406 551v-8h-46
l-99 99l-99 -99h-46v8l121 164h48z" />
    <glyph glyph-name="otilde" unicode="&#xf5;" horiz-adv-x="519" 
d="M37 239q0 111 64.5 181t158.5 70t158 -70t64 -181q0 -117 -63 -183t-159 -66t-159.5 66t-63.5 183zM138 240q0 -209 122 -209q27 0 46.5 7t37.5 27.5t27.5 64t9.5 110.5q0 120 -32.5 164.5t-88.5 44.5q-27 0 -47 -8t-38 -29.5t-27.5 -64.5t-9.5 -107zM389 693l26 -10
q-14 -49 -43 -87t-55 -38q-15 0 -63.5 30t-63.5 30q-16 0 -27.5 -16t-25.5 -47l-29 12q11 40 41 81.5t48 41.5q19 0 65 -30.5t64 -30.5q17 0 36 21t27 43z" />
    <glyph glyph-name="odieresis" unicode="&#xf6;" horiz-adv-x="519" 
d="M37 239q0 111 64.5 181t158.5 70t158 -70t64 -181q0 -117 -63 -183t-159 -66t-159.5 66t-63.5 183zM138 240q0 -209 122 -209q27 0 46.5 7t37.5 27.5t27.5 64t9.5 110.5q0 120 -32.5 164.5t-88.5 44.5q-27 0 -47 -8t-38 -29.5t-27.5 -64.5t-9.5 -107zM399 614
q0 -20 -16 -35.5t-36 -15.5q-21 0 -37 15.5t-16 35.5q0 21 16 37t37 16q20 0 36 -16t16 -37zM228 614q0 -20 -15 -35.5t-37 -15.5q-21 0 -37 15.5t-16 35.5q0 21 16 37t37 16t36.5 -16t15.5 -37z" />
    <glyph glyph-name="divide" unicode="&#xf7;" horiz-adv-x="620" 
d="M570 230h-520v60h520v-60zM258 109q0 22 14.5 37t36.5 15t37 -15t15 -37t-15 -36.5t-37 -14.5t-36.5 14.5t-14.5 36.5zM258 411q0 22 14.5 37t36.5 15t37 -15t15 -37t-15 -36.5t-37 -14.5t-36.5 14.5t-14.5 36.5z" />
    <glyph glyph-name="oslash" unicode="&#xf8;" horiz-adv-x="519" 
d="M37 239q0 111 64.5 181t158.5 70q71 0 127 -42l47 64h51l-67 -92q64 -72 64 -181q0 -117 -63 -183t-159 -66q-72 0 -127 38l-46 -64h-51l66 90q-65 68 -65 185zM138 240q0 -69 13 -118l201 277q-29 50 -92 50q-27 0 -47 -8t-38 -29.5t-27.5 -64.5t-9.5 -107zM381 240
q0 70 -12 113l-199 -275q29 -47 90 -47q27 0 46.5 7t37.5 27.5t27.5 64t9.5 110.5z" />
    <glyph glyph-name="ugrave" unicode="&#xf9;" horiz-adv-x="555" 
d="M380 60h-14q-63 -70 -142 -70q-58 0 -98.5 38.5t-40.5 123.5v257q0 16 -15 17l-53 5v39l161 10v-364q0 -68 65 -68q66 0 128 59v303q0 8 -1.5 11t-3.5 3.5t-10 1.5l-53 5v39l161 10v-371q0 -46 12 -56.5t62 -10.5v-35l-113 -12h-41zM323 551v-8h-51l-129 162v10h94z" />
    <glyph glyph-name="uacute" unicode="&#xfa;" horiz-adv-x="555" 
d="M380 60h-14q-63 -70 -142 -70q-58 0 -98.5 38.5t-40.5 123.5v257q0 16 -15 17l-53 5v39l161 10v-364q0 -68 65 -68q66 0 128 59v303q0 8 -1.5 11t-3.5 3.5t-10 1.5l-53 5v39l161 10v-371q0 -46 12 -56.5t62 -10.5v-35l-113 -12h-41zM203 543v8l86 164h94v-10l-129 -162
h-51z" />
    <glyph glyph-name="ucircumflex" unicode="&#xfb;" horiz-adv-x="555" 
d="M380 60h-14q-63 -70 -142 -70q-58 0 -98.5 38.5t-40.5 123.5v257q0 16 -15 17l-53 5v39l161 10v-364q0 -68 65 -68q66 0 128 59v303q0 8 -1.5 11t-3.5 3.5t-10 1.5l-53 5v39l161 10v-371q0 -46 12 -56.5t62 -10.5v-35l-113 -12h-41zM408 551v-8h-46l-99 99l-99 -99h-46v8
l121 164h48z" />
    <glyph glyph-name="udieresis" unicode="&#xfc;" horiz-adv-x="555" 
d="M380 60h-14q-63 -70 -142 -70q-58 0 -98.5 38.5t-40.5 123.5v257q0 16 -15 17l-53 5v39l161 10v-364q0 -68 65 -68q66 0 128 59v303q0 8 -1.5 11t-3.5 3.5t-10 1.5l-53 5v39l161 10v-371q0 -46 12 -56.5t62 -10.5v-35l-113 -12h-41zM401 614q0 -20 -16 -35.5t-36 -15.5
q-21 0 -37 15.5t-16 35.5q0 21 16 37t37 16q20 0 36 -16t16 -37zM230 614q0 -20 -15 -35.5t-37 -15.5q-21 0 -37 15.5t-16 35.5q0 21 16 37t37 16t36.5 -16t15.5 -37z" />
    <glyph glyph-name="yacute" unicode="&#xfd;" horiz-adv-x="524" 
d="M299 107h4l86 238q19 46 7 73.5t-71 33.5v28h207v-28q-33 -5 -53.5 -25.5t-36.5 -60.5l-184 -488q-42 -103 -129 -103q-46 0 -68.5 25t-22.5 58q0 29 15.5 44.5t39.5 15.5q25 0 35 -16v-87q58 0 91 78l33 102l-160 382q-20 38 -40.5 54.5t-59.5 20.5v28h250v-28
q-23 -2 -35.5 -5t-21.5 -11t-8 -22t11 -37zM225 541v8l86 164h94v-10l-129 -162h-51z" />
    <glyph glyph-name="thorn" unicode="&#xfe;" horiz-adv-x="525" 
d="M166 39v-194q0 -18 22 -20l58 -5v-35h-228v35l22 5q40 9 40 43v635l-2 118q0 48 -17.5 61.5t-70.5 13.5v35l143 9h43l-7 -138l-3 -176h7q52 64 116 64q96 0 147.5 -67t51.5 -178q0 -120 -60 -187t-139 -67q-82 0 -116 48h-7zM277 440q-64 0 -111 -82v-240q35 -78 103 -78
q117 0 117 195q0 205 -109 205z" />
    <glyph glyph-name="ydieresis" unicode="&#xff;" horiz-adv-x="524" 
d="M299 107h4l86 238q19 46 7 73.5t-71 33.5v28h207v-28q-33 -5 -53.5 -25.5t-36.5 -60.5l-184 -488q-42 -103 -129 -103q-46 0 -68.5 25t-22.5 58q0 29 15.5 44.5t39.5 15.5q25 0 35 -16v-87q58 0 91 78l33 102l-160 382q-20 38 -40.5 54.5t-59.5 20.5v28h250v-28
q-23 -2 -35.5 -5t-21.5 -11t-8 -22t11 -37zM423 612q0 -20 -16 -35.5t-36 -15.5q-21 0 -37 15.5t-16 35.5q0 21 16 37t37 16q20 0 36 -16t16 -37zM252 612q0 -20 -15 -35.5t-37 -15.5q-21 0 -37 15.5t-16 35.5q0 21 16 37t37 16t36.5 -16t15.5 -37z" />
    <glyph glyph-name="Amacron" unicode="&#x100;" horiz-adv-x="720" 
d="M499 79l-47 125h-244l-43 -123q-7 -24 13 -32.5t82 -8.5v-40h-242v40q42 0 64 13t35 48l222 600h24l243 -607q14 -37 30.5 -45.5t65.5 -8.5v-40h-288v40h27q49 0 58 6t0 33zM329 528h-7l-98 -277h210zM480 779h-254v58h254v-58z" />
    <glyph glyph-name="amacron" unicode="&#x101;" horiz-adv-x="492" 
d="M425 61l52 -5q0 -34 -22 -51t-49 -17q-74 0 -83 67h-8q-69 -67 -145 -67q-60 0 -94 34t-34 90q0 32 12 55.5t38.5 39t47.5 23.5t60 19l110 32v70q0 50 -23 74.5t-55 24.5q-53 0 -80 -19l11 -92q-22 -17 -51 -17q-52 0 -52 49q0 53 51 86t140 33q150 0 150 -143v-261
q0 -11 4 -16.5t8 -6.5t12 -2zM310 92v150l-99 -31q-37 -11 -56 -33t-19 -62q0 -35 18.5 -53.5t45.5 -18.5q32 0 62.5 14.5t47.5 33.5zM363 565h-254v58h254v-58z" />
    <glyph glyph-name="Abreve" unicode="&#x102;" horiz-adv-x="720" 
d="M499 79l-47 125h-244l-43 -123q-7 -24 13 -32.5t82 -8.5v-40h-242v40q42 0 64 13t35 48l222 600h24l243 -607q14 -37 30.5 -45.5t65.5 -8.5v-40h-288v40h27q49 0 58 6t0 33zM329 528h-7l-98 -277h210zM353 747q-50 0 -85 33.5t-35 98.5h40q0 -30 22.5 -51.5t57.5 -21.5
q32 0 56 21t24 52h40q0 -65 -35 -98.5t-85 -33.5z" />
    <glyph glyph-name="abreve" unicode="&#x103;" horiz-adv-x="492" 
d="M425 61l52 -5q0 -34 -22 -51t-49 -17q-74 0 -83 67h-8q-69 -67 -145 -67q-60 0 -94 34t-34 90q0 32 12 55.5t38.5 39t47.5 23.5t60 19l110 32v70q0 50 -23 74.5t-55 24.5q-53 0 -80 -19l11 -92q-22 -17 -51 -17q-52 0 -52 49q0 53 51 86t140 33q150 0 150 -143v-261
q0 -11 4 -16.5t8 -6.5t12 -2zM310 92v150l-99 -31q-37 -11 -56 -33t-19 -62q0 -35 18.5 -53.5t45.5 -18.5q32 0 62.5 14.5t47.5 33.5zM236 543q-50 0 -85 39t-35 113h40q0 -35 22.5 -61.5t57.5 -26.5q32 0 56 25.5t24 62.5h40q0 -74 -35 -113t-85 -39z" />
    <glyph glyph-name="Aogonek" unicode="&#x104;" horiz-adv-x="720" 
d="M499 79l-47 125h-244l-43 -123q-7 -24 13 -32.5t82 -8.5v-40h-242v40q42 0 64 13t35 48l222 600h24l243 -607q14 -37 30.5 -45.5t65.5 -8.5v-40h-241q-60 -42 -60 -102q0 -62 45 -62q6 0 16 2v-32q-18 -5 -34 -5q-39 0 -68 20.5t-29 57.5q0 70 83 123v38h27q49 0 58 6
t0 33zM329 528h-7l-98 -277h210z" />
    <glyph glyph-name="aogonek" unicode="&#x105;" horiz-adv-x="492" 
d="M425 61l52 -5q0 -55 -57 -66q-47 -40 -47 -92q0 -62 45 -62q6 0 16 2v-32q-18 -5 -34 -5q-39 0 -68 20.5t-29 57.5q0 64 69 114q-43 13 -49 62h-8q-69 -67 -145 -67q-60 0 -94 34t-34 90q0 32 12 55.5t38.5 39t47.5 23.5t60 19l110 32v70q0 50 -23 74.5t-55 24.5
q-53 0 -80 -19l11 -92q-22 -17 -51 -17q-52 0 -52 49q0 53 51 86t140 33q150 0 150 -143v-261q0 -11 4 -16.5t8 -6.5t12 -2zM310 92v150l-99 -31q-37 -11 -56 -33t-19 -62q0 -35 18.5 -53.5t45.5 -18.5q32 0 62.5 14.5t47.5 33.5z" />
    <glyph glyph-name="Cacute" unicode="&#x106;" horiz-adv-x="684" 
d="M561 656l3 1l24 34h31l4 -261h-42q-7 41 -21.5 79t-37.5 72t-58.5 54.5t-79.5 20.5q-102 0 -158 -86t-56 -227q0 -309 219 -309q78 0 126 47t70 144h46l-23 -181q-38 -25 -98 -40.5t-123 -15.5q-152 0 -243 96.5t-91 260.5q0 147 101.5 251.5t233.5 104.5q54 0 101 -13.5
t72 -31.5zM325 747v8l86 129h94v-10l-129 -127h-51z" />
    <glyph glyph-name="cacute" unicode="&#x107;" horiz-adv-x="472" 
d="M408 152l36 -12q-20 -68 -67 -109t-115 -41q-96 0 -160.5 62t-64.5 183q0 110 66 182.5t159 72.5q67 0 116.5 -35.5t49.5 -88.5q0 -35 -15.5 -54t-40.5 -19q-29 0 -45 20t-15 49l27 44q-15 42 -70 42q-59 0 -95 -47t-36 -152q0 -107 40.5 -155.5t104.5 -48.5
q46 0 79 30.5t46 76.5zM197 543v8l86 164h94v-10l-129 -162h-51z" />
    <glyph glyph-name="Ccircumflex" unicode="&#x108;" horiz-adv-x="684" 
d="M561 656l3 1l24 34h31l4 -261h-42q-7 41 -21.5 79t-37.5 72t-58.5 54.5t-79.5 20.5q-102 0 -158 -86t-56 -227q0 -309 219 -309q78 0 126 47t70 144h46l-23 -181q-38 -25 -98 -40.5t-123 -15.5q-152 0 -243 96.5t-91 260.5q0 147 101.5 251.5t233.5 104.5q54 0 101 -13.5
t72 -31.5zM530 755v-8h-46l-99 69l-99 -69h-46v8l121 129h48z" />
    <glyph glyph-name="ccircumflex" unicode="&#x109;" horiz-adv-x="472" 
d="M408 152l36 -12q-20 -68 -67 -109t-115 -41q-96 0 -160.5 62t-64.5 183q0 110 66 182.5t159 72.5q67 0 116.5 -35.5t49.5 -88.5q0 -35 -15.5 -54t-40.5 -19q-29 0 -45 20t-15 49l27 44q-15 42 -70 42q-59 0 -95 -47t-36 -152q0 -107 40.5 -155.5t104.5 -48.5
q46 0 79 30.5t46 76.5zM402 551v-8h-46l-99 99l-99 -99h-46v8l121 164h48z" />
    <glyph glyph-name="Cdotaccent" unicode="&#x10a;" horiz-adv-x="684" 
d="M561 656l3 1l24 34h31l4 -261h-42q-7 41 -21.5 79t-37.5 72t-58.5 54.5t-79.5 20.5q-102 0 -158 -86t-56 -227q0 -309 219 -309q78 0 126 47t70 144h46l-23 -181q-38 -25 -98 -40.5t-123 -15.5q-152 0 -243 96.5t-91 260.5q0 147 101.5 251.5t233.5 104.5q54 0 101 -13.5
t72 -31.5zM320 823q0 27 18.5 46t45.5 19t46.5 -19t19.5 -46t-19.5 -45.5t-46.5 -18.5t-45.5 18.5t-18.5 45.5z" />
    <glyph glyph-name="cdotaccent" unicode="&#x10b;" horiz-adv-x="472" 
d="M408 152l36 -12q-20 -68 -67 -109t-115 -41q-96 0 -160.5 62t-64.5 183q0 110 66 182.5t159 72.5q67 0 116.5 -35.5t49.5 -88.5q0 -35 -15.5 -54t-40.5 -19q-29 0 -45 20t-15 49l27 44q-15 42 -70 42q-59 0 -95 -47t-36 -152q0 -107 40.5 -155.5t104.5 -48.5
q46 0 79 30.5t46 76.5zM192 639q0 27 18.5 46t45.5 19t46.5 -19t19.5 -46t-19.5 -45.5t-46.5 -18.5t-45.5 18.5t-18.5 45.5z" />
    <glyph glyph-name="Ccaron" unicode="&#x10c;" horiz-adv-x="684" 
d="M561 656l3 1l24 34h31l4 -261h-42q-7 41 -21.5 79t-37.5 72t-58.5 54.5t-79.5 20.5q-102 0 -158 -86t-56 -227q0 -309 219 -309q78 0 126 47t70 144h46l-23 -181q-38 -25 -98 -40.5t-123 -15.5q-152 0 -243 96.5t-91 260.5q0 147 101.5 251.5t233.5 104.5q54 0 101 -13.5
t72 -31.5zM530 884v-8l-121 -129h-48l-121 129v8h46l99 -69l99 69h46z" />
    <glyph glyph-name="ccaron" unicode="&#x10d;" horiz-adv-x="472" 
d="M408 152l36 -12q-20 -68 -67 -109t-115 -41q-96 0 -160.5 62t-64.5 183q0 110 66 182.5t159 72.5q67 0 116.5 -35.5t49.5 -88.5q0 -35 -15.5 -54t-40.5 -19q-29 0 -45 20t-15 49l27 44q-15 42 -70 42q-59 0 -95 -47t-36 -152q0 -107 40.5 -155.5t104.5 -48.5
q46 0 79 30.5t46 76.5zM402 715v-8l-121 -164h-48l-121 164v8h46l99 -99l99 99h46z" />
    <glyph glyph-name="Dcaron" unicode="&#x10e;" horiz-adv-x="761" 
d="M708 345q0 -65 -21.5 -124.5t-64 -110t-115 -80.5t-165.5 -30h-312v40q70 2 86 6.5t16 27.5v547q0 21 -16 26t-86 5v39h310q81 0 146 -22t105.5 -57t67.5 -82t38 -92.5t11 -92.5zM589 344q0 139 -66 223.5t-211 84.5h-76v-612h104q67 0 117 26.5t78 71.5t41 96.5
t13 109.5zM468 884v-8l-121 -129h-48l-121 129v8h46l99 -69l99 69h46z" />
    <glyph glyph-name="dcaron" unicode="&#x10f;" horiz-adv-x="536" 
d="M235 -10q-96 0 -147 62.5t-51 180.5q0 122 61.5 189.5t141.5 67.5q36 0 57 -8t45 -29h8v177q0 37 -18.5 51.5t-67.5 14.5v34l149 10h36l-5 -214v-448q0 -21 15 -26.5t65 -5.5v-38l-134 -13h-23l-13 62h-8q-52 -67 -111 -67zM350 116v256q-18 39 -41.5 54t-59.5 15
q-54 0 -82.5 -44.5t-28.5 -155.5q0 -201 109 -201q73 0 103 76zM505 534v8l16 199h84v-10l-54 -197h-46z" />
    <glyph glyph-name="Dcroat" unicode="&#x110;" horiz-adv-x="761" 
d="M708 345q0 -65 -21.5 -124.5t-64 -110t-115 -80.5t-165.5 -30h-312v40q70 2 86 6.5t16 27.5v246h-83v55h83v246q0 21 -16 26t-86 5v39h310q81 0 146 -22t105.5 -57t67.5 -82t38 -92.5t11 -92.5zM589 344q0 139 -66 223.5t-211 84.5h-76v-277h205v-55h-205v-280h104
q67 0 117 26.5t78 71.5t41 96.5t13 109.5z" />
    <glyph glyph-name="dcroat" unicode="&#x111;" horiz-adv-x="536" 
d="M212 604h138v26q0 37 -18.5 51.5t-67.5 14.5v34l149 10h36l-4 -136h59v-50h-60v-28v-448q0 -21 15 -26.5t65 -5.5v-38l-134 -13h-23l-13 62h-8q-52 -67 -111 -67q-96 0 -147 62.5t-51 180.5q0 122 61.5 189.5t141.5 67.5q36 0 57 -8t45 -29h8v101h-138v50zM350 116v256
q-18 39 -41.5 54t-59.5 15q-54 0 -82.5 -44.5t-28.5 -155.5q0 -201 109 -201q73 0 103 76z" />
    <glyph glyph-name="Emacron" unicode="&#x112;" horiz-adv-x="661" 
d="M621 247l-13 -247h-578v40q68 0 85 4.5t17 24.5v552q0 20 -18.5 25.5t-83.5 5.5v39h548l11 -217h-39q-18 101 -48.5 139.5t-98.5 38.5h-167v-291h74q100 0 100 137h35v-312h-35q0 81 -21.5 106.5t-84.5 25.5h-68v-278h191q71 0 112 64t41 143h41zM466 779h-254v58h254
v-58z" />
    <glyph glyph-name="emacron" unicode="&#x113;" horiz-adv-x="475" 
d="M408 156l35 -12q-21 -70 -70.5 -112t-125.5 -42q-91 0 -150.5 63t-59.5 181q0 112 59.5 184t149.5 72q82 0 132.5 -54t55.5 -152v-26h-295q-1 -12 -1 -23q0 -105 32.5 -150t97.5 -45q57 0 91.5 32.5t48.5 83.5zM337 299v16q-9 128 -93 128q-47 0 -72 -34t-30 -110h195z
M371 565h-254v58h254v-58z" />
    <glyph glyph-name="Edotaccent" unicode="&#x116;" horiz-adv-x="661" 
d="M621 247l-13 -247h-578v40q68 0 85 4.5t17 24.5v552q0 20 -18.5 25.5t-83.5 5.5v39h548l11 -217h-39q-18 101 -48.5 139.5t-98.5 38.5h-167v-291h74q100 0 100 137h35v-312h-35q0 81 -21.5 106.5t-84.5 25.5h-68v-278h191q71 0 112 64t41 143h41zM274 823q0 27 18.5 46
t45.5 19t46.5 -19t19.5 -46t-19.5 -45.5t-46.5 -18.5t-45.5 18.5t-18.5 45.5z" />
    <glyph glyph-name="edotaccent" unicode="&#x117;" horiz-adv-x="475" 
d="M408 156l35 -12q-21 -70 -70.5 -112t-125.5 -42q-91 0 -150.5 63t-59.5 181q0 112 59.5 184t149.5 72q82 0 132.5 -54t55.5 -152v-26h-295q-1 -12 -1 -23q0 -105 32.5 -150t97.5 -45q57 0 91.5 32.5t48.5 83.5zM337 299v16q-9 128 -93 128q-47 0 -72 -34t-30 -110h195z
M179 639q0 27 18.5 46t45.5 19t46.5 -19t19.5 -46t-19.5 -45.5t-46.5 -18.5t-45.5 18.5t-18.5 45.5z" />
    <glyph glyph-name="Eogonek" unicode="&#x118;" horiz-adv-x="661" 
d="M621 247l-13 -247h-31q-60 -42 -60 -102q0 -62 45 -62q6 0 16 2v-32q-18 -5 -34 -5q-39 0 -68 20.5t-29 57.5q0 68 79 121h-496v40q68 0 85 4.5t17 24.5v552q0 20 -18.5 25.5t-83.5 5.5v39h548l11 -217h-39q-18 101 -48.5 139.5t-98.5 38.5h-167v-291h74q100 0 100 137
h35v-312h-35q0 81 -21.5 106.5t-84.5 25.5h-68v-278h191q71 0 112 64t41 143h41z" />
    <glyph glyph-name="eogonek" unicode="&#x119;" horiz-adv-x="475" 
d="M408 156l35 -12q-31 -106 -119 -140q-66 -44 -66 -106t45 -62q6 0 16 2v-32q-18 -5 -34 -5q-39 0 -68 20.5t-29 57.5q0 61 65 111h-6q-91 0 -150.5 63t-59.5 181q0 112 59.5 184t149.5 72q82 0 132.5 -54t55.5 -152v-26h-295q-1 -12 -1 -23q0 -105 32.5 -150t97.5 -45
q57 0 91.5 32.5t48.5 83.5zM337 299v16q-9 128 -93 128q-47 0 -72 -34t-30 -110h195z" />
    <glyph glyph-name="Ecaron" unicode="&#x11a;" horiz-adv-x="661" 
d="M621 247l-13 -247h-578v40q68 0 85 4.5t17 24.5v552q0 20 -18.5 25.5t-83.5 5.5v39h548l11 -217h-39q-18 101 -48.5 139.5t-98.5 38.5h-167v-291h74q100 0 100 137h35v-312h-35q0 81 -21.5 106.5t-84.5 25.5h-68v-278h191q71 0 112 64t41 143h41zM484 884v-8l-121 -129
h-48l-121 129v8h46l99 -69l99 69h46z" />
    <glyph glyph-name="ecaron" unicode="&#x11b;" horiz-adv-x="475" 
d="M408 156l35 -12q-21 -70 -70.5 -112t-125.5 -42q-91 0 -150.5 63t-59.5 181q0 112 59.5 184t149.5 72q82 0 132.5 -54t55.5 -152v-26h-295q-1 -12 -1 -23q0 -105 32.5 -150t97.5 -45q57 0 91.5 32.5t48.5 83.5zM337 299v16q-9 128 -93 128q-47 0 -72 -34t-30 -110h195z
M389 715v-8l-121 -164h-48l-121 164v8h46l99 -99l99 99h46z" />
    <glyph glyph-name="Gcircumflex" unicode="&#x11c;" horiz-adv-x="727" 
d="M630 227v-233h-25l-51 83q-65 -89 -186 -89q-59 0 -113 20.5t-100.5 61.5t-74 111.5t-27.5 160.5q0 162 93.5 260.5t222.5 98.5q115 0 187 -46h7l20 31h29l4 -242h-36q-19 83 -73.5 147.5t-133.5 64.5q-203 0 -203 -316q0 -146 55 -226.5t154 -80.5q98 0 147 95v98
q0 42 -16 51.5t-80 9.5v34h282v-34q-57 0 -69 -9t-13 -51zM523 755v-8h-46l-99 69l-99 -69h-46v8l121 129h48z" />
    <glyph glyph-name="gcircumflex" unicode="&#x11d;" horiz-adv-x="518" 
d="M374 440l66 61l60 -18v-68h-105l-7 -9q26 -41 26 -86q0 -74 -50 -114.5t-126 -40.5q-104 0 -104 -52q0 -21 15 -30t52 -11l168 -8q115 -5 115 -117q0 -70 -70 -121t-180 -51q-90 0 -148 32t-58 88q0 38 25 68.5t69 43.5v11q-60 27 -60 82q0 28 21.5 50t66.5 33v7
q-48 24 -71.5 53.5t-23.5 76.5q0 78 52 124t130 46q80 0 137 -50zM320 317q0 71 -21 100.5t-65 29.5q-43 0 -64 -31t-21 -99q0 -112 85 -112q46 0 66 24t20 88zM413 -81q0 28 -17.5 44t-63.5 18l-182 8q-16 -10 -25 -17.5t-19 -27t-10 -44.5q0 -42 39.5 -64t102.5 -22
q80 0 127.5 30t47.5 75zM379 551v-8h-46l-99 99l-99 -99h-46v8l121 164h48z" />
    <glyph glyph-name="Gbreve" unicode="&#x11e;" horiz-adv-x="727" 
d="M630 227v-233h-25l-51 83q-65 -89 -186 -89q-59 0 -113 20.5t-100.5 61.5t-74 111.5t-27.5 160.5q0 162 93.5 260.5t222.5 98.5q115 0 187 -46h7l20 31h29l4 -242h-36q-19 83 -73.5 147.5t-133.5 64.5q-203 0 -203 -316q0 -146 55 -226.5t154 -80.5q98 0 147 95v98
q0 42 -16 51.5t-80 9.5v34h282v-34q-57 0 -69 -9t-13 -51zM378 747q-50 0 -85 33.5t-35 98.5h40q0 -30 22.5 -51.5t57.5 -21.5q32 0 56 21t24 52h40q0 -65 -35 -98.5t-85 -33.5z" />
    <glyph glyph-name="gbreve" unicode="&#x11f;" horiz-adv-x="518" 
d="M374 440l66 61l60 -18v-68h-105l-7 -9q26 -41 26 -86q0 -74 -50 -114.5t-126 -40.5q-104 0 -104 -52q0 -21 15 -30t52 -11l168 -8q115 -5 115 -117q0 -70 -70 -121t-180 -51q-90 0 -148 32t-58 88q0 38 25 68.5t69 43.5v11q-60 27 -60 82q0 28 21.5 50t66.5 33v7
q-48 24 -71.5 53.5t-23.5 76.5q0 78 52 124t130 46q80 0 137 -50zM320 317q0 71 -21 100.5t-65 29.5q-43 0 -64 -31t-21 -99q0 -112 85 -112q46 0 66 24t20 88zM413 -81q0 28 -17.5 44t-63.5 18l-182 8q-16 -10 -25 -17.5t-19 -27t-10 -44.5q0 -42 39.5 -64t102.5 -22
q80 0 127.5 30t47.5 75zM234 543q-50 0 -85 39t-35 113h40q0 -35 22.5 -61.5t57.5 -26.5q32 0 56 25.5t24 62.5h40q0 -74 -35 -113t-85 -39z" />
    <glyph glyph-name="Gdotaccent" unicode="&#x120;" horiz-adv-x="727" 
d="M630 227v-233h-25l-51 83q-65 -89 -186 -89q-59 0 -113 20.5t-100.5 61.5t-74 111.5t-27.5 160.5q0 162 93.5 260.5t222.5 98.5q115 0 187 -46h7l20 31h29l4 -242h-36q-19 83 -73.5 147.5t-133.5 64.5q-203 0 -203 -316q0 -146 55 -226.5t154 -80.5q98 0 147 95v98
q0 42 -16 51.5t-80 9.5v34h282v-34q-57 0 -69 -9t-13 -51zM313 823q0 27 18.5 46t45.5 19t46.5 -19t19.5 -46t-19.5 -45.5t-46.5 -18.5t-45.5 18.5t-18.5 45.5z" />
    <glyph glyph-name="gdotaccent" unicode="&#x121;" horiz-adv-x="518" 
d="M374 440l66 61l60 -18v-68h-105l-7 -9q26 -41 26 -86q0 -74 -50 -114.5t-126 -40.5q-104 0 -104 -52q0 -21 15 -30t52 -11l168 -8q115 -5 115 -117q0 -70 -70 -121t-180 -51q-90 0 -148 32t-58 88q0 38 25 68.5t69 43.5v11q-60 27 -60 82q0 28 21.5 50t66.5 33v7
q-48 24 -71.5 53.5t-23.5 76.5q0 78 52 124t130 46q80 0 137 -50zM320 317q0 71 -21 100.5t-65 29.5q-43 0 -64 -31t-21 -99q0 -112 85 -112q46 0 66 24t20 88zM413 -81q0 28 -17.5 44t-63.5 18l-182 8q-16 -10 -25 -17.5t-19 -27t-10 -44.5q0 -42 39.5 -64t102.5 -22
q80 0 127.5 30t47.5 75zM169 639q0 27 18.5 46t45.5 19t46.5 -19t19.5 -46t-19.5 -45.5t-46.5 -18.5t-45.5 18.5t-18.5 45.5z" />
    <glyph glyph-name="Gcommaaccent" unicode="&#x122;" horiz-adv-x="727" 
d="M630 227v-233h-25l-51 83q-65 -89 -186 -89q-59 0 -113 20.5t-100.5 61.5t-74 111.5t-27.5 160.5q0 162 93.5 260.5t222.5 98.5q115 0 187 -46h7l20 31h29l4 -242h-36q-19 83 -73.5 147.5t-133.5 64.5q-203 0 -203 -316q0 -146 55 -226.5t154 -80.5q98 0 147 95v98
q0 42 -16 51.5t-80 9.5v34h282v-34q-57 0 -69 -9t-13 -51zM329 -87q0 14 12.5 25.5t32.5 11.5q28 0 47 -22.5t19 -57.5q0 -65 -85 -112l-19 28q47 27 47 58q0 18 -27 35.5t-27 33.5z" />
    <glyph glyph-name="gcommaaccent" unicode="&#x123;" horiz-adv-x="518" 
d="M374 440l66 61l60 -18v-68h-105l-7 -9q26 -41 26 -86q0 -74 -50 -114.5t-126 -40.5q-104 0 -104 -52q0 -21 15 -30t52 -11l168 -8q115 -5 115 -117q0 -70 -70 -121t-180 -51q-90 0 -148 32t-58 88q0 38 25 68.5t69 43.5v11q-60 27 -60 82q0 28 21.5 50t66.5 33v7
q-48 24 -71.5 53.5t-23.5 76.5q0 78 52 124t130 46q80 0 137 -50zM320 317q0 71 -21 100.5t-65 29.5q-43 0 -64 -31t-21 -99q0 -112 85 -112q46 0 66 24t20 88zM413 -81q0 28 -17.5 44t-63.5 18l-182 8q-16 -10 -25 -17.5t-19 -27t-10 -44.5q0 -42 39.5 -64t102.5 -22
q80 0 127.5 30t47.5 75zM282 589q0 -15 -12.5 -27t-33.5 -12q-29 0 -48.5 24t-19.5 60q0 69 87 118l20 -29q-48 -28 -48 -61q0 -19 27.5 -37.5t27.5 -35.5z" />
    <glyph glyph-name="Hbar" unicode="&#x126;" horiz-adv-x="799" 
d="M56 530h76v73q0 31 -23.5 40t-78.5 9v39h308v-39q-62 0 -82 -7.5t-20 -41.5v-73h326v73q0 33 -19.5 41t-83.5 8v39h310v-39q-67 0 -85.5 -8.5t-18.5 -40.5v-73h88v-46h-88v-396q0 -32 19 -40t85 -8v-40h-310v40q69 3 86 10t17 38v244h-326v-244q0 -32 19 -40t83 -8v-40
h-308v40q63 0 82.5 8t19.5 40v396h-76v46zM236 379h326v105h-326v-105z" />
    <glyph glyph-name="hbar" unicode="&#x127;" horiz-adv-x="555" 
d="M15 594h74l-1 35q0 36 -19.5 51.5t-66.5 15.5v35l133 9h55l-5 -146h122v-50h-123v-111h14q67 57 130 57q62 0 102 -37t40 -120v-286l5 -7l63 -5v-35h-219v35l32 5q27 4 27 22l-1 317q0 58 -75 58q-66 0 -118 -56v-335q0 -6 5 -6l63 -5v-35h-230v35l41 5q15 2 21.5 8.5
t6.5 21.5v425l-1 49h-75v50z" />
    <glyph glyph-name="Imacron" unicode="&#x12a;" horiz-adv-x="379" 
d="M344 691v-39q-68 0 -85.5 -6.5t-17.5 -33.5v-528q0 -30 16.5 -37t86.5 -7v-40h-309v40q69 0 85.5 7t16.5 37v528q0 28 -17 34t-85 6v39h309zM316 779h-254v58h254v-58z" />
    <glyph glyph-name="imacron" unicode="&#x12b;" horiz-adv-x="296" 
d="M200 54q0 -14 5 -14l63 -5v-35h-232v35l35 5q36 4 36 45v291q0 39 -17.5 49.5t-66.5 10.5v35l139 9h38v-426zM280 562h-254v58h254v-58z" />
    <glyph glyph-name="Iogonek" unicode="&#x12e;" horiz-adv-x="379" 
d="M344 691v-39q-68 0 -85.5 -6.5t-17.5 -33.5v-528q0 -30 16.5 -37t86.5 -7v-40h-31q-60 -42 -60 -102q0 -62 45 -62q6 0 16 2v-32q-18 -5 -34 -5q-39 0 -68 20.5t-29 57.5q0 68 79 121h-227v40q69 0 85.5 7t16.5 37v528q0 28 -17 34t-85 6v39h309z" />
    <glyph glyph-name="iogonek" unicode="&#x12f;" horiz-adv-x="296" 
d="M200 54q0 -14 5 -14l63 -5v-35h-31q-60 -42 -60 -102q0 -62 45 -62q6 0 16 2v-32q-18 -5 -34 -5q-39 0 -68 20.5t-29 57.5q0 68 79 121h-150v35l35 5q36 4 36 45v291q0 39 -17.5 49.5t-66.5 10.5v35l139 9h38v-426zM82 677q0 27 18 45.5t45 18.5t45.5 -18.5t18.5 -45.5
q0 -25 -18.5 -43t-45.5 -18t-45 18t-18 43z" />
    <glyph glyph-name="Idotaccent" unicode="&#x130;" horiz-adv-x="379" 
d="M344 691v-39q-68 0 -85.5 -6.5t-17.5 -33.5v-528q0 -30 16.5 -37t86.5 -7v-40h-309v40q69 0 85.5 7t16.5 37v528q0 28 -17 34t-85 6v39h309zM124 823q0 27 18.5 46t45.5 19t46.5 -19t19.5 -46t-19.5 -45.5t-46.5 -18.5t-45.5 18.5t-18.5 45.5z" />
    <glyph glyph-name="dotlessi" unicode="&#x131;" horiz-adv-x="296" 
d="M200 54q0 -14 5 -14l63 -5v-35h-232v35l35 5q36 4 36 45v291q0 39 -17.5 49.5t-66.5 10.5v35l139 9h38v-426z" />
    <glyph glyph-name="Kcommaaccent" unicode="&#x136;" horiz-adv-x="723" 
d="M517 572l-151 -166l253 -315q24 -30 41.5 -40.5t52.5 -10.5v-40h-279v40q27 1 39 2.5t21 6t6.5 13.5t-14.5 25l-190 242l-60 -66v-148q0 -50 18 -62.5t81 -12.5v-40h-305v40q70 0 86 12t16 63v465q0 50 -19 61t-83 11v39h308v-39q-66 0 -84 -11t-18 -61v-250h4l230 255
q30 28 15.5 48t-56.5 18v40h257v-40q-99 -11 -169 -79zM341 -87q0 14 12.5 25.5t32.5 11.5q28 0 47 -22.5t19 -57.5q0 -65 -85 -112l-19 28q47 27 47 58q0 18 -27 35.5t-27 33.5z" />
    <glyph glyph-name="kcommaaccent" unicode="&#x137;" horiz-adv-x="548" 
d="M369 374l-79 -78l173 -230q10 -13 17 -17.5t26 -8.5l36 -5v-35h-147l-168 234h-27v-176q0 -15 26 -18l48 -5v-35h-241v35l36 5q38 5 38 54v420l-3 121q-1 36 -19.5 48.5t-67.5 12.5v34l155 10h33l-5 -223v-239h29l95 110q29 35 25 48.5t-36 15.5v28h192v-38
q-74 -15 -136 -68zM274 -100q0 14 12.5 25.5t32.5 11.5q28 0 47 -22.5t19 -57.5q0 -65 -85 -112l-19 28q47 27 47 58q0 18 -27 35.5t-27 33.5z" />
    <glyph glyph-name="Lacute" unicode="&#x139;" horiz-adv-x="602" 
d="M574 242l-13 -242h-531v40q61 0 81.5 7.5t20.5 36.5v529q0 25 -18 32t-84 7v39h319v-39q-79 0 -96 -6t-17 -32v-574h132q74 0 116.5 53.5t42.5 148.5h47zM124 747v8l86 129h94v-10l-129 -127h-51z" />
    <glyph glyph-name="lacute" unicode="&#x13a;" horiz-adv-x="306" 
d="M205 522v-468q0 -14 11 -14l62 -5v-35h-240v35l38 5q36 4 36 45v450l-5 101q0 39 -18.5 49.5t-70.5 10.5v35l149 9h43zM99 785v8l86 129h94v-10l-129 -127h-51z" />
    <glyph glyph-name="Lcommaaccent" unicode="&#x13b;" horiz-adv-x="602" 
d="M574 242l-13 -242h-531v40q61 0 81.5 7.5t20.5 36.5v529q0 25 -18 32t-84 7v39h319v-39q-79 0 -96 -6t-17 -32v-574h132q74 0 116.5 53.5t42.5 148.5h47zM281 -87q0 14 12.5 25.5t32.5 11.5q28 0 47 -22.5t19 -57.5q0 -65 -85 -112l-19 28q47 27 47 58q0 18 -27 35.5
t-27 33.5z" />
    <glyph glyph-name="lcommaaccent" unicode="&#x13c;" horiz-adv-x="306" 
d="M205 522v-468q0 -14 11 -14l62 -5v-35h-240v35l38 5q36 4 36 45v450l-5 101q0 39 -18.5 49.5t-70.5 10.5v35l149 9h43zM115 -100q0 14 12.5 25.5t32.5 11.5q28 0 47 -22.5t19 -57.5q0 -65 -85 -112l-19 28q47 27 47 58q0 18 -27 35.5t-27 33.5z" />
    <glyph glyph-name="Lcaron" unicode="&#x13d;" horiz-adv-x="602" 
d="M574 242l-13 -242h-531v40q61 0 81.5 7.5t20.5 36.5v529q0 25 -18 32t-84 7v39h319v-39q-79 0 -96 -6t-17 -32v-574h132q74 0 116.5 53.5t42.5 148.5h47zM467 484v8l16 199h84v-10l-54 -197h-46z" />
    <glyph glyph-name="lcaron" unicode="&#x13e;" horiz-adv-x="344" 
d="M205 522v-468q0 -14 11 -14l62 -5v-35h-240v35l38 5q36 4 36 45v450l-5 101q0 39 -18.5 49.5t-70.5 10.5v35l149 9h43zM269 533v8l16 199h84v-10l-54 -197h-46z" />
    <glyph glyph-name="Ldot" unicode="&#x13f;" horiz-adv-x="602" 
d="M574 242l-13 -242h-531v40q61 0 81.5 7.5t20.5 36.5v529q0 25 -18 32t-84 7v39h319v-39q-79 0 -96 -6t-17 -32v-574h132q74 0 116.5 53.5t42.5 148.5h47zM445 381q0 29 20 49.5t49 20.5t49.5 -20.5t20.5 -49.5q0 -28 -20.5 -48t-49.5 -20t-49 19.5t-20 48.5z" />
    <glyph glyph-name="ldot" unicode="&#x140;" horiz-adv-x="478" 
d="M205 522v-468q0 -14 11 -14l62 -5v-35h-240v35l38 5q36 4 36 45v450l-5 101q0 39 -18.5 49.5t-70.5 10.5v35l149 9h43zM284 263q0 29 20 49.5t49 20.5t49.5 -20.5t20.5 -49.5q0 -28 -20.5 -48t-49.5 -20t-49 19.5t-20 48.5z" />
    <glyph glyph-name="Lslash" unicode="&#x141;" horiz-adv-x="602" 
d="M574 242l-13 -242h-531v40q61 0 81.5 7.5t20.5 36.5v199l-98 -46v50l98 46v280q0 25 -18 32t-84 7v39h319v-39q-79 0 -96 -6t-17 -32v-231l205 97v-50l-205 -97v-293h132q74 0 116.5 53.5t42.5 148.5h47z" />
    <glyph glyph-name="lslash" unicode="&#x142;" horiz-adv-x="306" 
d="M205 522v-91l74 70v-58l-74 -70v-319q0 -14 11 -14l62 -5v-35h-240v35l38 5q36 4 36 45v201l-73 -68v58l73 68v191l-5 101q0 39 -18.5 49.5t-70.5 10.5v35l149 9h43z" />
    <glyph glyph-name="Nacute" unicode="&#x143;" horiz-adv-x="752" 
d="M174 553h-4v-461q0 -33 27 -42.5t92 -9.5v-40h-261v40q50 0 74 10t24 42v509q-42 51 -103 51v39h173l396 -508h4v420q0 49 -121 49v39h254v-39q-52 0 -71 -11.5t-19 -37.5v-613h-27zM323 747v8l86 129h94v-10l-129 -127h-51z" />
    <glyph glyph-name="nacute" unicode="&#x144;" horiz-adv-x="555" 
d="M170 423h14q36 35 67 51t80 16q58 0 98.5 -37.5t40.5 -119.5v-286q0 -7 5 -7l63 -5v-35h-219v35l32 5q27 4 27 22v312q0 63 -71 63q-39 0 -65.5 -13.5t-57.5 -42.5v-335q0 -6 5 -6l63 -5v-35h-230v35l41 5q15 2 21.5 8.5t6.5 21.5v299q0 35 -16.5 51t-57.5 16v35l108 9
h41zM229 543v8l86 164h94v-10l-129 -162h-51z" />
    <glyph glyph-name="Ncommaaccent" unicode="&#x145;" horiz-adv-x="752" 
d="M174 553h-4v-461q0 -33 27 -42.5t92 -9.5v-40h-261v40q50 0 74 10t24 42v509q-42 51 -103 51v39h173l396 -508h4v420q0 49 -121 49v39h254v-39q-52 0 -71 -11.5t-19 -37.5v-613h-27zM358 -87q0 14 12.5 25.5t32.5 11.5q28 0 47 -22.5t19 -57.5q0 -65 -85 -112l-19 28
q47 27 47 58q0 18 -27 35.5t-27 33.5z" />
    <glyph glyph-name="ncommaaccent" unicode="&#x146;" horiz-adv-x="555" 
d="M170 423h14q36 35 67 51t80 16q58 0 98.5 -37.5t40.5 -119.5v-286q0 -7 5 -7l63 -5v-35h-219v35l32 5q27 4 27 22v312q0 63 -71 63q-39 0 -65.5 -13.5t-57.5 -42.5v-335q0 -6 5 -6l63 -5v-35h-230v35l41 5q15 2 21.5 8.5t6.5 21.5v299q0 35 -16.5 51t-57.5 16v35l108 9
h41zM241 -100q0 14 12.5 25.5t32.5 11.5q28 0 47 -22.5t19 -57.5q0 -65 -85 -112l-19 28q47 27 47 58q0 18 -27 35.5t-27 33.5z" />
    <glyph glyph-name="Ncaron" unicode="&#x147;" horiz-adv-x="752" 
d="M174 553h-4v-461q0 -33 27 -42.5t92 -9.5v-40h-261v40q50 0 74 10t24 42v509q-42 51 -103 51v39h173l396 -508h4v420q0 49 -121 49v39h254v-39q-52 0 -71 -11.5t-19 -37.5v-613h-27zM528 884v-8l-121 -129h-48l-121 129v8h46l99 -69l99 69h46z" />
    <glyph glyph-name="ncaron" unicode="&#x148;" horiz-adv-x="555" 
d="M170 423h14q36 35 67 51t80 16q58 0 98.5 -37.5t40.5 -119.5v-286q0 -7 5 -7l63 -5v-35h-219v35l32 5q27 4 27 22v312q0 63 -71 63q-39 0 -65.5 -13.5t-57.5 -42.5v-335q0 -6 5 -6l63 -5v-35h-230v35l41 5q15 2 21.5 8.5t6.5 21.5v299q0 35 -16.5 51t-57.5 16v35l108 9
h41zM434 715v-8l-121 -164h-48l-121 164v8h46l99 -99l99 99h46z" />
    <glyph glyph-name="Omacron" unicode="&#x14c;" horiz-adv-x="751" 
d="M698 345q0 -151 -95 -254t-227 -103q-137 0 -230 100t-93 257q0 158 92.5 257t230.5 99q133 0 227.5 -100.5t94.5 -255.5zM580 345q0 148 -47 229.5t-157 81.5q-112 0 -158.5 -79.5t-46.5 -231.5q0 -150 47.5 -230.5t157.5 -80.5q102 0 153 83t51 228zM503 779h-254v58
h254v-58z" />
    <glyph glyph-name="omacron" unicode="&#x14d;" horiz-adv-x="519" 
d="M37 239q0 111 64.5 181t158.5 70t158 -70t64 -181q0 -117 -63 -183t-159 -66t-159.5 66t-63.5 183zM138 240q0 -209 122 -209q27 0 46.5 7t37.5 27.5t27.5 64t9.5 110.5q0 120 -32.5 164.5t-88.5 44.5q-27 0 -47 -8t-38 -29.5t-27.5 -64.5t-9.5 -107zM388 565h-254v58
h254v-58z" />
    <glyph glyph-name="Ohungarumlaut" unicode="&#x150;" horiz-adv-x="751" 
d="M698 345q0 -151 -95 -254t-227 -103q-137 0 -230 100t-93 257q0 158 92.5 257t230.5 99q133 0 227.5 -100.5t94.5 -255.5zM580 345q0 148 -47 229.5t-157 81.5q-112 0 -158.5 -79.5t-46.5 -231.5q0 -150 47.5 -230.5t157.5 -80.5q102 0 153 83t51 228zM401 747v8l86 129
h94v-10l-139 -127h-41zM261 747v8l86 129h94v-10l-139 -127h-41z" />
    <glyph glyph-name="ohungarumlaut" unicode="&#x151;" horiz-adv-x="519" 
d="M37 239q0 111 64.5 181t158.5 70t158 -70t64 -181q0 -117 -63 -183t-159 -66t-159.5 66t-63.5 183zM138 240q0 -209 122 -209q27 0 46.5 7t37.5 27.5t27.5 64t9.5 110.5q0 120 -32.5 164.5t-88.5 44.5q-27 0 -47 -8t-38 -29.5t-27.5 -64.5t-9.5 -107zM291 543v8l86 164
h94v-10l-139 -162h-41zM151 543v8l86 164h94v-10l-139 -162h-41z" />
    <glyph glyph-name="OE" unicode="&#x152;" horiz-adv-x="982" 
d="M942 247l-13 -247h-471q-39 -12 -82 -12q-137 0 -230 100t-93 257q0 158 92.5 257t230.5 99q35 0 77 -10h446l11 -217h-39q-18 101 -48.5 139.5t-98.5 38.5h-167v-291h74q100 0 100 137h35v-312h-35q0 81 -21.5 106.5t-84.5 25.5h-68v-278h191q71 0 112 64t41 143h41z
M376 34q42 0 77 15v594q-36 13 -77 13q-112 0 -158.5 -79.5t-46.5 -231.5q0 -150 47.5 -230.5t157.5 -80.5z" />
    <glyph glyph-name="oe" unicode="&#x153;" horiz-adv-x="816" 
d="M749 156l35 -12q-21 -70 -70.5 -112t-125.5 -42q-103 0 -160 75q-61 -75 -168 -75q-96 0 -159.5 66t-63.5 183q0 111 64.5 181t158.5 70q104 0 168 -83q61 83 159 83q82 0 132.5 -54t55.5 -152v-26h-295q-1 -12 -1 -23q0 -105 32.5 -150t97.5 -45q57 0 91.5 32.5
t48.5 83.5zM138 240q0 -209 122 -209q27 0 46.5 7t37.5 27.5t27.5 64t9.5 110.5q0 120 -32.5 164.5t-88.5 44.5q-27 0 -47 -8t-38 -29.5t-27.5 -64.5t-9.5 -107zM678 299v16q-9 128 -93 128q-47 0 -72 -34t-30 -110h195z" />
    <glyph glyph-name="Racute" unicode="&#x154;" horiz-adv-x="683" 
d="M408 356v-8q72 -10 111.5 -51t50.5 -146q11 -75 31.5 -97.5t71.5 -22.5v-38q-124 0 -170.5 36.5t-46.5 129.5q0 101 -41.5 139t-122.5 38h-56v-248q0 -32 19 -40t87 -8v-40h-312v40q66 2 84 9t18 39v528q0 24 -18.5 30t-83.5 6v39h319q98 0 158 -41t60 -120
q0 -77 -46.5 -119.5t-112.5 -54.5zM461 525q0 68 -35.5 97.5t-109.5 29.5h-80v-275h89q136 0 136 148zM256 747v8l86 129h94v-10l-129 -127h-51z" />
    <glyph glyph-name="racute" unicode="&#x155;" horiz-adv-x="381" 
d="M297 357l-40 60q-45 -6 -73 -60v-306q0 -11 8 -11l77 -5v-35h-247v35l30 5q39 5 39 46v290q0 30 -16.5 41t-57.5 11v43l116 9h24l3 -72h19q50 82 122 82q27 0 46.5 -16t19.5 -50q0 -28 -21 -47.5t-49 -19.5zM149 543v8l86 164h94v-10l-129 -162h-51z" />
    <glyph glyph-name="Rcaron" unicode="&#x158;" horiz-adv-x="683" 
d="M408 356v-8q72 -10 111.5 -51t50.5 -146q11 -75 31.5 -97.5t71.5 -22.5v-38q-124 0 -170.5 36.5t-46.5 129.5q0 101 -41.5 139t-122.5 38h-56v-248q0 -32 19 -40t87 -8v-40h-312v40q66 2 84 9t18 39v528q0 24 -18.5 30t-83.5 6v39h319q98 0 158 -41t60 -120
q0 -77 -46.5 -119.5t-112.5 -54.5zM461 525q0 68 -35.5 97.5t-109.5 29.5h-80v-275h89q136 0 136 148zM461 884v-8l-121 -129h-48l-121 129v8h46l99 -69l99 69h46z" />
    <glyph glyph-name="rcaron" unicode="&#x159;" horiz-adv-x="381" 
d="M297 357l-40 60q-45 -6 -73 -60v-306q0 -11 8 -11l77 -5v-35h-247v35l30 5q39 5 39 46v290q0 30 -16.5 41t-57.5 11v43l116 9h24l3 -72h19q50 82 122 82q27 0 46.5 -16t19.5 -50q0 -28 -21 -47.5t-49 -19.5zM354 715v-8l-121 -164h-48l-121 164v8h46l99 -99l99 99h46z
" />
    <glyph glyph-name="Sacute" unicode="&#x15a;" horiz-adv-x="586" 
d="M126 58l-2 -1l-14 -57h-44l-7 278h39q24 -127 76.5 -187t147.5 -60q69 0 105.5 33t36.5 80q0 36 -14 60.5t-62.5 52t-137.5 54.5q-99 30 -146 79t-47 129q0 82 57 132t137 50q94 0 180 -64l3 2l17 56h39l2 -258h-36q-31 116 -80.5 169t-123.5 53q-54 0 -85 -34t-31 -79
q0 -48 48 -85t157 -70t154 -83.5t45 -126.5q0 -83 -61 -138t-155 -55q-120 0 -198 70zM203 747v8l86 129h94v-10l-129 -127h-51z" />
    <glyph glyph-name="sacute" unicode="&#x15b;" horiz-adv-x="444" 
d="M62 -9v198h34q11 -79 52 -119.5t102 -40.5q41 0 66.5 20t25.5 55q0 40 -28.5 61.5t-122.5 44.5q-137 37 -137 153q0 53 41 90t107 37q79 0 125 -35l25 33h22v-180h-32q-31 141 -144 141q-39 0 -61.5 -16.5t-22.5 -44.5q0 -36 31 -59.5t120 -45.5q81 -21 112 -56.5
t31 -94.5q0 -61 -43 -101.5t-119 -40.5q-42 0 -80.5 12t-58.5 25l-20 -36h-25zM163 543v8l86 164h94v-10l-129 -162h-51z" />
    <glyph glyph-name="Scircumflex" unicode="&#x15c;" horiz-adv-x="586" 
d="M126 58l-2 -1l-14 -57h-44l-7 278h39q24 -127 76.5 -187t147.5 -60q69 0 105.5 33t36.5 80q0 36 -14 60.5t-62.5 52t-137.5 54.5q-99 30 -146 79t-47 129q0 82 57 132t137 50q94 0 180 -64l3 2l17 56h39l2 -258h-36q-31 116 -80.5 169t-123.5 53q-54 0 -85 -34t-31 -79
q0 -48 48 -85t157 -70t154 -83.5t45 -126.5q0 -83 -61 -138t-155 -55q-120 0 -198 70zM408 755v-8h-46l-99 69l-99 -69h-46v8l121 129h48z" />
    <glyph glyph-name="scircumflex" unicode="&#x15d;" horiz-adv-x="444" 
d="M62 -9v198h34q11 -79 52 -119.5t102 -40.5q41 0 66.5 20t25.5 55q0 40 -28.5 61.5t-122.5 44.5q-137 37 -137 153q0 53 41 90t107 37q79 0 125 -35l25 33h22v-180h-32q-31 141 -144 141q-39 0 -61.5 -16.5t-22.5 -44.5q0 -36 31 -59.5t120 -45.5q81 -21 112 -56.5
t31 -94.5q0 -61 -43 -101.5t-119 -40.5q-42 0 -80.5 12t-58.5 25l-20 -36h-25zM368 551v-8h-46l-99 99l-99 -99h-46v8l121 164h48z" />
    <glyph glyph-name="Scedilla" unicode="&#x15e;" horiz-adv-x="586" 
d="M268 -216l-8 25q39 6 63 22.5t24 39.5q0 42 -71 42q-16 0 -30 -2l-5 7l38 73q-94 13 -153 67l-2 -1l-14 -57h-44l-7 278h39q24 -127 76.5 -187t147.5 -60q69 0 105.5 33t36.5 80q0 36 -14 60.5t-62.5 52t-137.5 54.5q-99 30 -146 79t-47 129q0 82 57 132t137 50
q94 0 180 -64l3 2l17 56h39l2 -258h-36q-31 116 -80.5 169t-123.5 53q-54 0 -85 -34t-31 -79q0 -48 48 -85t157 -70t154 -83.5t45 -126.5q0 -83 -61 -138t-155 -55h-2l-16 -30q46 0 75.5 -18t29.5 -54q0 -38 -42 -66t-101 -36z" />
    <glyph glyph-name="scedilla" unicode="&#x15f;" horiz-adv-x="444" 
d="M190 -229l-8 25q39 6 63 22.5t24 39.5q0 42 -71 42q-16 0 -30 -2l-5 7l46 88q-65 8 -102 34l-20 -36h-25v198h34q11 -79 52 -119.5t102 -40.5q41 0 66.5 20t25.5 55q0 40 -28.5 61.5t-122.5 44.5q-137 37 -137 153q0 53 41 90t107 37q79 0 125 -35l25 33h22v-180h-32
q-31 141 -144 141q-39 0 -61.5 -16.5t-22.5 -44.5q0 -36 31 -59.5t120 -45.5q81 -21 112 -56.5t31 -94.5q0 -60 -41.5 -100t-114.5 -42l-24 -45q46 0 75.5 -18t29.5 -54q0 -38 -42 -66t-101 -36z" />
    <glyph glyph-name="Scaron" unicode="&#x160;" horiz-adv-x="586" 
d="M126 58l-2 -1l-14 -57h-44l-7 278h39q24 -127 76.5 -187t147.5 -60q69 0 105.5 33t36.5 80q0 36 -14 60.5t-62.5 52t-137.5 54.5q-99 30 -146 79t-47 129q0 82 57 132t137 50q94 0 180 -64l3 2l17 56h39l2 -258h-36q-31 116 -80.5 169t-123.5 53q-54 0 -85 -34t-31 -79
q0 -48 48 -85t157 -70t154 -83.5t45 -126.5q0 -83 -61 -138t-155 -55q-120 0 -198 70zM408 884v-8l-121 -129h-48l-121 129v8h46l99 -69l99 69h46z" />
    <glyph glyph-name="scaron" unicode="&#x161;" horiz-adv-x="444" 
d="M62 -9v198h34q11 -79 52 -119.5t102 -40.5q41 0 66.5 20t25.5 55q0 40 -28.5 61.5t-122.5 44.5q-137 37 -137 153q0 53 41 90t107 37q79 0 125 -35l25 33h22v-180h-32q-31 141 -144 141q-39 0 -61.5 -16.5t-22.5 -44.5q0 -36 31 -59.5t120 -45.5q81 -21 112 -56.5
t31 -94.5q0 -61 -43 -101.5t-119 -40.5q-42 0 -80.5 12t-58.5 25l-20 -36h-25zM368 715v-8l-121 -164h-48l-121 164v8h46l99 -99l99 99h46z" />
    <glyph glyph-name="Tcommaaccent" unicode="&#x162;" horiz-adv-x="644" 
d="M616 440h-38q0 98 -38.5 155t-108.5 57h-56v-573q-1 -26 20.5 -32.5t81.5 -6.5v-40h-310v40q56 0 79.5 7t23.5 27v578h-40q-69 0 -115.5 -58t-46.5 -154h-40v251h588v-251zM276 -87q0 14 12.5 25.5t32.5 11.5q28 0 47 -22.5t19 -57.5q0 -65 -85 -112l-19 28q47 27 47 58
q0 18 -27 35.5t-27 33.5z" />
    <glyph glyph-name="Tcommaaccent" unicode="&#x21a;" horiz-adv-x="644" 
d="M616 440h-38q0 98 -38.5 155t-108.5 57h-56v-573q-1 -26 20.5 -32.5t81.5 -6.5v-40h-310v40q56 0 79.5 7t23.5 27v578h-40q-69 0 -115.5 -58t-46.5 -154h-40v251h588v-251zM276 -87q0 14 12.5 25.5t32.5 11.5q28 0 47 -22.5t19 -57.5q0 -65 -85 -112l-19 28q47 27 47 58
q0 18 -27 35.5t-27 33.5z" />
    <glyph glyph-name="tcommaaccent" unicode="&#x163;" horiz-adv-x="359" 
d="M90 420h-77v46q57 0 87 51t30 140h53v-187h139v-50h-139v-308q0 -74 50 -74q9 0 17.5 4t19.5 15t18 38t7 65h33q0 -101 -35.5 -136.5t-92.5 -35.5q-110 0 -110 124v308zM150 -100q0 14 12.5 25.5t32.5 11.5q28 0 47 -22.5t19 -57.5q0 -65 -85 -112l-19 28q47 27 47 58
q0 18 -27 35.5t-27 33.5z" />
    <glyph glyph-name="tcommaaccent" unicode="&#x21b;" horiz-adv-x="359" 
d="M90 420h-77v46q57 0 87 51t30 140h53v-187h139v-50h-139v-308q0 -74 50 -74q9 0 17.5 4t19.5 15t18 38t7 65h33q0 -101 -35.5 -136.5t-92.5 -35.5q-110 0 -110 124v308zM150 -100q0 14 12.5 25.5t32.5 11.5q28 0 47 -22.5t19 -57.5q0 -65 -85 -112l-19 28q47 27 47 58
q0 18 -27 35.5t-27 33.5z" />
    <glyph glyph-name="Tcaron" unicode="&#x164;" horiz-adv-x="644" 
d="M616 440h-38q0 98 -38.5 155t-108.5 57h-56v-573q-1 -26 20.5 -32.5t81.5 -6.5v-40h-310v40q56 0 79.5 7t23.5 27v578h-40q-69 0 -115.5 -58t-46.5 -154h-40v251h588v-251zM467 884v-8l-121 -129h-48l-121 129v8h46l99 -69l99 69h46z" />
    <glyph glyph-name="tcaron" unicode="&#x165;" horiz-adv-x="359" 
d="M90 420h-77v46q57 0 87 51t30 140h53v-187h139v-50h-139v-308q0 -74 50 -74q9 0 17.5 4t19.5 15t18 38t7 65h33q0 -101 -35.5 -136.5t-92.5 -35.5q-110 0 -110 124v308zM255 552v8l16 199h84v-10l-54 -197h-46z" />
    <glyph glyph-name="Umacron" unicode="&#x16a;" horiz-adv-x="748" 
d="M726 691v-39q-53 0 -75 -10t-22 -33v-328q0 -145 -58 -219t-197 -74q-258 0 -258 237v387q0 27 -15 33.5t-79 6.5v39h296v-39q-65 0 -81 -6.5t-16 -33.5v-387q0 -96 46 -144.5t121 -48.5q49 0 84.5 15t55.5 37.5t31.5 57t15 66.5t3.5 73v328q0 23 -26 33t-91 10v39h265z
M525 779h-254v58h254v-58z" />
    <glyph glyph-name="umacron" unicode="&#x16b;" horiz-adv-x="555" 
d="M380 60h-14q-63 -70 -142 -70q-58 0 -98.5 38.5t-40.5 123.5v257q0 16 -15 17l-53 5v39l161 10v-364q0 -68 65 -68q66 0 128 59v303q0 8 -1.5 11t-3.5 3.5t-10 1.5l-53 5v39l161 10v-371q0 -46 12 -56.5t62 -10.5v-35l-113 -12h-41zM390 565h-254v58h254v-58z" />
    <glyph glyph-name="Ubreve" unicode="&#x16c;" horiz-adv-x="748" 
d="M726 691v-39q-53 0 -75 -10t-22 -33v-328q0 -145 -58 -219t-197 -74q-258 0 -258 237v387q0 27 -15 33.5t-79 6.5v39h296v-39q-65 0 -81 -6.5t-16 -33.5v-387q0 -96 46 -144.5t121 -48.5q49 0 84.5 15t55.5 37.5t31.5 57t15 66.5t3.5 73v328q0 23 -26 33t-91 10v39h265z
M398 747q-50 0 -85 33.5t-35 98.5h40q0 -30 22.5 -51.5t57.5 -21.5q32 0 56 21t24 52h40q0 -65 -35 -98.5t-85 -33.5z" />
    <glyph glyph-name="ubreve" unicode="&#x16d;" horiz-adv-x="555" 
d="M380 60h-14q-63 -70 -142 -70q-58 0 -98.5 38.5t-40.5 123.5v257q0 16 -15 17l-53 5v39l161 10v-364q0 -68 65 -68q66 0 128 59v303q0 8 -1.5 11t-3.5 3.5t-10 1.5l-53 5v39l161 10v-371q0 -46 12 -56.5t62 -10.5v-35l-113 -12h-41zM263 543q-50 0 -85 39t-35 113h40
q0 -35 22.5 -61.5t57.5 -26.5q32 0 56 25.5t24 62.5h40q0 -74 -35 -113t-85 -39z" />
    <glyph glyph-name="Uring" unicode="&#x16e;" horiz-adv-x="748" 
d="M726 691v-39q-53 0 -75 -10t-22 -33v-328q0 -145 -58 -219t-197 -74q-258 0 -258 237v387q0 27 -15 33.5t-79 6.5v39h296v-39q-65 0 -81 -6.5t-16 -33.5v-387q0 -96 46 -144.5t121 -48.5q49 0 84.5 15t55.5 37.5t31.5 57t15 66.5t3.5 73v328q0 23 -26 33t-91 10v39h265z
M304 841q0 39 27.5 66.5t66.5 27.5t66.5 -27.5t27.5 -66.5t-27.5 -66.5t-66.5 -27.5t-66.5 27.5t-27.5 66.5zM350 841q0 -22 13 -36.5t34 -14.5t34.5 14.5t13.5 36.5t-13.5 37.5t-34.5 15.5t-34 -15.5t-13 -37.5z" />
    <glyph glyph-name="uring" unicode="&#x16f;" horiz-adv-x="555" 
d="M380 60h-14q-63 -70 -142 -70q-58 0 -98.5 38.5t-40.5 123.5v257q0 16 -15 17l-53 5v39l161 10v-364q0 -68 65 -68q66 0 128 59v303q0 8 -1.5 11t-3.5 3.5t-10 1.5l-53 5v39l161 10v-371q0 -46 12 -56.5t62 -10.5v-35l-113 -12h-41zM169 627q0 39 27.5 66.5t66.5 27.5
t66.5 -27.5t27.5 -66.5t-27.5 -66.5t-66.5 -27.5t-66.5 27.5t-27.5 66.5zM215 627q0 -22 13 -36.5t34 -14.5t34.5 14.5t13.5 36.5t-13.5 37.5t-34.5 15.5t-34 -15.5t-13 -37.5z" />
    <glyph glyph-name="Uhungarumlaut" unicode="&#x170;" horiz-adv-x="748" 
d="M726 691v-39q-53 0 -75 -10t-22 -33v-328q0 -145 -58 -219t-197 -74q-258 0 -258 237v387q0 27 -15 33.5t-79 6.5v39h296v-39q-65 0 -81 -6.5t-16 -33.5v-387q0 -96 46 -144.5t121 -48.5q49 0 84.5 15t55.5 37.5t31.5 57t15 66.5t3.5 73v328q0 23 -26 33t-91 10v39h265z
M423 747v8l86 129h94v-10l-139 -127h-41zM283 747v8l86 129h94v-10l-139 -127h-41z" />
    <glyph glyph-name="uhungarumlaut" unicode="&#x171;" horiz-adv-x="555" 
d="M380 60h-14q-63 -70 -142 -70q-58 0 -98.5 38.5t-40.5 123.5v257q0 16 -15 17l-53 5v39l161 10v-364q0 -68 65 -68q66 0 128 59v303q0 8 -1.5 11t-3.5 3.5t-10 1.5l-53 5v39l161 10v-371q0 -46 12 -56.5t62 -10.5v-35l-113 -12h-41zM293 543v8l86 164h94v-10l-139 -162
h-41zM153 543v8l86 164h94v-10l-139 -162h-41z" />
    <glyph glyph-name="Uogonek" unicode="&#x172;" horiz-adv-x="748" 
d="M726 691v-39q-53 0 -75 -10t-22 -33v-328q0 -115 -36 -186t-120 -95q-61 -42 -61 -102q0 -62 45 -62q6 0 16 2v-32q-18 -5 -34 -5q-39 0 -68 20.5t-29 57.5q0 62 64 111q-22 -2 -32 -2q-258 0 -258 237v387q0 27 -15 33.5t-79 6.5v39h296v-39q-65 0 -81 -6.5t-16 -33.5
v-387q0 -96 46 -144.5t121 -48.5q49 0 84.5 15t55.5 37.5t31.5 57t15 66.5t3.5 73v328q0 23 -26 33t-91 10v39h265z" />
    <glyph glyph-name="uogonek" unicode="&#x173;" horiz-adv-x="555" 
d="M380 60h-14q-63 -70 -142 -70q-58 0 -98.5 38.5t-40.5 123.5v257q0 16 -15 17l-53 5v39l161 10v-364q0 -68 65 -68q66 0 128 59v303q0 8 -1.5 11t-3.5 3.5t-10 1.5l-53 5v39l161 10v-371q0 -46 12 -56.5t62 -10.5v-35l-25 -3q-67 -42 -67 -106q0 -62 45 -62q6 0 16 2v-32
q-18 -5 -34 -5q-39 0 -68 20.5t-29 57.5q0 67 76 119l-27 -3h-41z" />
    <glyph glyph-name="Wcircumflex" unicode="&#x174;" horiz-adv-x="977" 
d="M687 179h5l119 364q18 54 -1 83t-82 26v39h234v-39q-42 0 -62.5 -23.5t-41.5 -87.5l-184 -557h-27l-146 443l-164 -443h-25l-196 592q-18 46 -39 61t-62 15v39h269v-39q-53 1 -63.5 -18.5t5.5 -57.5l128 -397h6l119 315l-27 82q-16 52 -32.5 64t-67.5 12v39h268v-39
q-13 0 -22.5 -0.5t-17.5 -1t-12.5 -4t-8.5 -4.5t-5 -6.5t-2 -7.5t0.5 -10.5t2 -11t4 -14.5t4.5 -16zM649 755v-8h-46l-99 69l-99 -69h-46v8l121 129h48z" />
    <glyph glyph-name="wcircumflex" unicode="&#x175;" horiz-adv-x="767" 
d="M511 -5l-121 298l-124 -298h-28l-152 362q-20 51 -38.5 69.5t-55.5 20.5v33h226v-33q-53 -6 -58 -22t21 -68l98 -226h6l85 210l-15 39q-17 37 -34.5 50t-64.5 17v33h250v-33q-58 -4 -66 -19.5t17 -70.5l89 -226h4l85 224q30 85 -70 92v33h210v-33q-68 -11 -100 -96
l-136 -356h-28zM528 549v-8h-46l-99 99l-99 -99h-46v8l121 164h48z" />
    <glyph glyph-name="Ycircumflex" unicode="&#x176;" horiz-adv-x="684" 
d="M669 691v-39q-68 0 -118 -79l-144 -263v-184q0 -59 19 -72.5t84 -13.5v-40h-308v40q72 0 86.5 13t14.5 73v180l-157 257q-39 57 -61 73t-70 16v39h293v-39q-58 0 -72 -14.5t12 -53.5l136 -224l123 223q17 28 4 48t-56 21v39h214zM534 755v-8h-46l-99 69l-99 -69h-46v8
l121 129h48z" />
    <glyph glyph-name="ycircumflex" unicode="&#x177;" horiz-adv-x="524" 
d="M299 107h4l86 238q19 46 7 73.5t-71 33.5v28h207v-28q-33 -5 -53.5 -25.5t-36.5 -60.5l-184 -488q-42 -103 -129 -103q-46 0 -68.5 25t-22.5 58q0 29 15.5 44.5t39.5 15.5q25 0 35 -16v-87q58 0 91 78l33 102l-160 382q-20 38 -40.5 54.5t-59.5 20.5v28h250v-28
q-23 -2 -35.5 -5t-21.5 -11t-8 -22t11 -37zM430 549v-8h-46l-99 99l-99 -99h-46v8l121 164h48z" />
    <glyph glyph-name="Ydieresis" unicode="&#x178;" horiz-adv-x="684" 
d="M669 691v-39q-68 0 -118 -79l-144 -263v-184q0 -59 19 -72.5t84 -13.5v-40h-308v40q72 0 86.5 13t14.5 73v180l-157 257q-39 57 -61 73t-70 16v39h293v-39q-58 0 -72 -14.5t12 -53.5l136 -224l123 223q17 28 4 48t-56 21v39h214zM527 828q0 -20 -16 -35.5t-36 -15.5
q-21 0 -37 15.5t-16 35.5q0 21 16 37t37 16q20 0 36 -16t16 -37zM356 828q0 -20 -15 -35.5t-37 -15.5q-21 0 -37 15.5t-16 35.5q0 21 16 37t37 16t36.5 -16t15.5 -37z" />
    <glyph glyph-name="Zacute" unicode="&#x179;" horiz-adv-x="636" 
d="M31 0v23l427 625l-3 4h-201q-64 0 -108.5 -63.5t-50.5 -147.5h-41l10 250h536v-21l-432 -624l2 -4h208q68 0 115.5 63t59.5 166h42l-19 -271h-545zM279 747v8l86 129h94v-10l-129 -127h-51z" />
    <glyph glyph-name="zacute" unicode="&#x17a;" horiz-adv-x="484" 
d="M159 47v-4h133q45 0 76 48t46 116h34l-14 -207h-401v18l283 416v7h-94q-106 0 -137 -156h-35l12 195h380v-17zM206 541v8l86 164h94v-10l-129 -162h-51z" />
    <glyph glyph-name="Zdotaccent" unicode="&#x17b;" horiz-adv-x="636" 
d="M31 0v23l427 625l-3 4h-201q-64 0 -108.5 -63.5t-50.5 -147.5h-41l10 250h536v-21l-432 -624l2 -4h208q68 0 115.5 63t59.5 166h42l-19 -271h-545zM274 823q0 27 18.5 46t45.5 19t46.5 -19t19.5 -46t-19.5 -45.5t-46.5 -18.5t-45.5 18.5t-18.5 45.5z" />
    <glyph glyph-name="zdotaccent" unicode="&#x17c;" horiz-adv-x="484" 
d="M159 47v-4h133q45 0 76 48t46 116h34l-14 -207h-401v18l283 416v7h-94q-106 0 -137 -156h-35l12 195h380v-17zM201 637q0 27 18.5 46t45.5 19t46.5 -19t19.5 -46t-19.5 -45.5t-46.5 -18.5t-45.5 18.5t-18.5 45.5z" />
    <glyph glyph-name="Zcaron" unicode="&#x17d;" horiz-adv-x="636" 
d="M31 0v23l427 625l-3 4h-201q-64 0 -108.5 -63.5t-50.5 -147.5h-41l10 250h536v-21l-432 -624l2 -4h208q68 0 115.5 63t59.5 166h42l-19 -271h-545zM484 884v-8l-121 -129h-48l-121 129v8h46l99 -69l99 69h46z" />
    <glyph glyph-name="zcaron" unicode="&#x17e;" horiz-adv-x="484" 
d="M159 47v-4h133q45 0 76 48t46 116h34l-14 -207h-401v18l283 416v7h-94q-106 0 -137 -156h-35l12 195h380v-17zM411 713v-8l-121 -164h-48l-121 164v8h46l99 -99l99 99h46z" />
    <glyph glyph-name="florin" unicode="&#x192;" horiz-adv-x="544" 
d="M98 316l11 40h97v4l25 102q18 70 70 125t128 55q55 0 91.5 -21t36.5 -49q0 -18 -11.5 -30t-34.5 -12q-13 0 -22 5t-13 10.5t-10 16.5q-9 15 -13 20.5t-15 13t-24 7.5q-29 0 -50 -37.5t-42 -108.5l-26 -95v-6h120l-11 -40h-120v-4l-90 -334q-24 -86 -67 -138t-102 -52
q-41 0 -70.5 18.5t-29.5 47.5q0 17 10.5 29t27.5 12q5 0 9 -1t8 -3.5t6.5 -4t6.5 -7t5 -6.5t5 -7l5 -7q21 -34 34 -34q34 0 66 137l88 348v6h-99z" />
    <glyph glyph-name="Scommaaccent" unicode="&#x218;" horiz-adv-x="586" 
d="M126 58l-2 -1l-14 -57h-44l-7 278h39q24 -127 76.5 -187t147.5 -60q69 0 105.5 33t36.5 80q0 36 -14 60.5t-62.5 52t-137.5 54.5q-99 30 -146 79t-47 129q0 82 57 132t137 50q94 0 180 -64l3 2l17 56h39l2 -258h-36q-31 116 -80.5 169t-123.5 53q-54 0 -85 -34t-31 -79
q0 -48 48 -85t157 -70t154 -83.5t45 -126.5q0 -83 -61 -138t-155 -55q-120 0 -198 70zM270 -87q0 14 12.5 25.5t32.5 11.5q28 0 47 -22.5t19 -57.5q0 -65 -85 -112l-19 28q47 27 47 58q0 18 -27 35.5t-27 33.5z" />
    <glyph glyph-name="scommaaccent" unicode="&#x219;" horiz-adv-x="444" 
d="M62 -9v198h34q11 -79 52 -119.5t102 -40.5q41 0 66.5 20t25.5 55q0 40 -28.5 61.5t-122.5 44.5q-137 37 -137 153q0 53 41 90t107 37q79 0 125 -35l25 33h22v-180h-32q-31 141 -144 141q-39 0 -61.5 -16.5t-22.5 -44.5q0 -36 31 -59.5t120 -45.5q81 -21 112 -56.5
t31 -94.5q0 -61 -43 -101.5t-119 -40.5q-42 0 -80.5 12t-58.5 25l-20 -36h-25zM192 -100q0 14 12.5 25.5t32.5 11.5q28 0 47 -22.5t19 -57.5q0 -65 -85 -112l-19 28q47 27 47 58q0 18 -27 35.5t-27 33.5z" />
    <glyph glyph-name="schwa" unicode="&#x259;" horiz-adv-x="475" 
d="M67 324l-35 12q21 70 70.5 112t125.5 42q91 0 150.5 -63t59.5 -181q0 -112 -59.5 -184t-149.5 -72q-82 0 -132.5 54t-55.5 152v26h295q1 12 1 23q0 105 -32.5 150t-97.5 45q-57 0 -91.5 -32.5t-48.5 -83.5zM138 181v-16q9 -128 93 -128q47 0 72 34t30 110h-195z" />
    <glyph glyph-name="quoteleft" unicode="&#x2bb;" horiz-adv-x="355" 
d="M254 473q0 -30 -21 -48.5t-57 -18.5q-38 0 -64 28t-26 71q0 127 126 216l25 -36q-107 -80 -94 -184q31 26 57 26q23 0 38.5 -14t15.5 -40z" />
    <glyph glyph-name="quoteleft" unicode="&#x2018;" horiz-adv-x="355" 
d="M254 473q0 -30 -21 -48.5t-57 -18.5q-38 0 -64 28t-26 71q0 127 126 216l25 -36q-107 -80 -94 -184q31 26 57 26q23 0 38.5 -14t15.5 -40z" />
    <glyph glyph-name="circumflex" unicode="&#x2c6;" horiz-adv-x="500" 
d="M395 506v-8h-46l-99 99l-99 -99h-46v8l121 164h48z" />
    <glyph glyph-name="caron" unicode="&#x2c7;" horiz-adv-x="500" 
d="M395 670v-8l-121 -164h-48l-121 164v8h46l99 -99l99 99h46z" />
    <glyph glyph-name="breve" unicode="&#x2d8;" horiz-adv-x="500" 
d="M250 498q-50 0 -85 39t-35 113h40q0 -35 22.5 -61.5t57.5 -26.5q32 0 56 25.5t24 62.5h40q0 -74 -35 -113t-85 -39z" />
    <glyph glyph-name="dotaccent" unicode="&#x2d9;" horiz-adv-x="500" 
d="M185 594q0 27 18.5 46t45.5 19t46.5 -19t19.5 -46t-19.5 -45.5t-46.5 -18.5t-45.5 18.5t-18.5 45.5z" />
    <glyph glyph-name="ring" unicode="&#x2da;" horiz-adv-x="500" 
d="M156 582q0 39 27.5 66.5t66.5 27.5t66.5 -27.5t27.5 -66.5t-27.5 -66.5t-66.5 -27.5t-66.5 27.5t-27.5 66.5zM202 582q0 -22 13 -36.5t34 -14.5t34.5 14.5t13.5 36.5t-13.5 37.5t-34.5 15.5t-34 -15.5t-13 -37.5z" />
    <glyph glyph-name="ogonek" unicode="&#x2db;" horiz-adv-x="500" 
d="M289 24v-6q-90 -49 -90 -120q0 -62 45 -62q6 0 16 2v-32q-18 -5 -34 -5q-39 0 -68 20.5t-29 57.5q0 91 141 155z" />
    <glyph glyph-name="tilde" unicode="&#x2dc;" horiz-adv-x="500" 
d="M378 648l26 -10q-14 -49 -43 -87t-55 -38q-15 0 -63.5 30t-63.5 30q-16 0 -27.5 -16t-25.5 -47l-29 12q11 40 41 81.5t48 41.5q19 0 65 -30.5t64 -30.5q17 0 36 21t27 43z" />
    <glyph glyph-name="hungarumlaut" unicode="&#x2dd;" horiz-adv-x="500" 
d="M280 498v8l86 164h94v-10l-139 -162h-41zM140 498v8l86 164h94v-10l-139 -162h-41z" />
    <glyph glyph-name="Delta" unicode="&#x394;" horiz-adv-x="544" 
d="M535 0h-523l223 630h48zM240 498l-152 -445v-7h325v7q-28 74 -86.5 222.5t-86.5 222.5z" />
    <glyph glyph-name="Delta" unicode="&#x2206;" horiz-adv-x="544" 
d="M535 0h-523l223 630h48zM240 498l-152 -445v-7h325v7q-28 74 -86.5 222.5t-86.5 222.5z" />
    <glyph glyph-name="Omega" unicode="&#x3a9;" horiz-adv-x="544" 
d="M273 596q-50 0 -85.5 -38t-50 -88.5t-14.5 -106.5q0 -137 37.5 -234.5t91.5 -114.5l-3 -14h-229l-18 138h30l42 -92v-3h55v2l6 10v6q-44 50 -73 129t-29 162q0 113 67.5 199t173.5 86t173.5 -86t67.5 -199q0 -83 -29 -162t-73 -129v-6l6 -10v-2h55v3l42 92h30l-19 -138
h-228l-3 14q54 17 91.5 114.5t37.5 234.5q0 55 -15 106.5t-51 89t-86 37.5z" />
    <glyph glyph-name="Omega" unicode="&#x2126;" horiz-adv-x="544" 
d="M273 596q-50 0 -85.5 -38t-50 -88.5t-14.5 -106.5q0 -137 37.5 -234.5t91.5 -114.5l-3 -14h-229l-18 138h30l42 -92v-3h55v2l6 10v6q-44 50 -73 129t-29 162q0 113 67.5 199t173.5 86t173.5 -86t67.5 -199q0 -83 -29 -162t-73 -129v-6l6 -10v-2h55v3l42 92h30l-19 -138
h-228l-3 14q54 17 91.5 114.5t37.5 234.5q0 55 -15 106.5t-51 89t-86 37.5z" />
    <glyph glyph-name="lambda" unicode="&#x3bb;" horiz-adv-x="528" 
d="M261 615l117 -464q17 -68 25.5 -88t22.5 -20q12 0 26 29q15 26 35 26q16 0 25 -11t9 -27q0 -30 -25 -49.5t-61 -19.5q-76 0 -103 109l-56 229l-152 -329h-101l218 471l-33 140q-22 85 -60 85q-15 0 -41 -34q-24 -32 -45 -32q-36 0 -36 35q0 29 31.5 52t81.5 23
q49 0 79 -35.5t43 -89.5z" />
    <glyph glyph-name="pi" unicode="&#x3c0;" horiz-adv-x="544" 
d="M170 20q-21 -32 -53 -32q-19 0 -33.5 11.5t-14.5 27.5q0 15 20 32q55 58 80.5 133t25.5 188v5h-31q-35 0 -53.5 -13t-27.5 -49l-28 5q14 60 37 85.5t64 25.5h340v-54h-103v-5l-22 -259q-4 -58 33 -58q41 0 65 64l25 -3q-35 -131 -113 -131q-43 0 -63.5 28.5t-15.5 76.5
l27 282v5h-86v-5q-5 -242 -73 -360z" />
    <glyph glyph-name="Wgrave" unicode="&#x1e80;" horiz-adv-x="977" 
d="M687 179h5l119 364q18 54 -1 83t-82 26v39h234v-39q-42 0 -62.5 -23.5t-41.5 -87.5l-184 -557h-27l-146 443l-164 -443h-25l-196 592q-18 46 -39 61t-62 15v39h269v-39q-53 1 -63.5 -18.5t5.5 -57.5l128 -397h6l119 315l-27 82q-16 52 -32.5 64t-67.5 12v39h268v-39
q-13 0 -22.5 -0.5t-17.5 -1t-12.5 -4t-8.5 -4.5t-5 -6.5t-2 -7.5t0.5 -10.5t2 -11t4 -14.5t4.5 -16zM564 755v-8h-51l-129 127v10h94z" />
    <glyph glyph-name="wgrave" unicode="&#x1e81;" horiz-adv-x="767" 
d="M511 -5l-121 298l-124 -298h-28l-152 362q-20 51 -38.5 69.5t-55.5 20.5v33h226v-33q-53 -6 -58 -22t21 -68l98 -226h6l85 210l-15 39q-17 37 -34.5 50t-64.5 17v33h250v-33q-58 -4 -66 -19.5t17 -70.5l89 -226h4l85 224q30 85 -70 92v33h210v-33q-68 -11 -100 -96
l-136 -356h-28zM443 549v-8h-51l-129 162v10h94z" />
    <glyph glyph-name="Wacute" unicode="&#x1e82;" horiz-adv-x="977" 
d="M687 179h5l119 364q18 54 -1 83t-82 26v39h234v-39q-42 0 -62.5 -23.5t-41.5 -87.5l-184 -557h-27l-146 443l-164 -443h-25l-196 592q-18 46 -39 61t-62 15v39h269v-39q-53 1 -63.5 -18.5t5.5 -57.5l128 -397h6l119 315l-27 82q-16 52 -32.5 64t-67.5 12v39h268v-39
q-13 0 -22.5 -0.5t-17.5 -1t-12.5 -4t-8.5 -4.5t-5 -6.5t-2 -7.5t0.5 -10.5t2 -11t4 -14.5t4.5 -16zM444 747v8l86 129h94v-10l-129 -127h-51z" />
    <glyph glyph-name="wacute" unicode="&#x1e83;" horiz-adv-x="767" 
d="M511 -5l-121 298l-124 -298h-28l-152 362q-20 51 -38.5 69.5t-55.5 20.5v33h226v-33q-53 -6 -58 -22t21 -68l98 -226h6l85 210l-15 39q-17 37 -34.5 50t-64.5 17v33h250v-33q-58 -4 -66 -19.5t17 -70.5l89 -226h4l85 224q30 85 -70 92v33h210v-33q-68 -11 -100 -96
l-136 -356h-28zM323 541v8l86 164h94v-10l-129 -162h-51z" />
    <glyph glyph-name="Wdieresis" unicode="&#x1e84;" horiz-adv-x="977" 
d="M687 179h5l119 364q18 54 -1 83t-82 26v39h234v-39q-42 0 -62.5 -23.5t-41.5 -87.5l-184 -557h-27l-146 443l-164 -443h-25l-196 592q-18 46 -39 61t-62 15v39h269v-39q-53 1 -63.5 -18.5t5.5 -57.5l128 -397h6l119 315l-27 82q-16 52 -32.5 64t-67.5 12v39h268v-39
q-13 0 -22.5 -0.5t-17.5 -1t-12.5 -4t-8.5 -4.5t-5 -6.5t-2 -7.5t0.5 -10.5t2 -11t4 -14.5t4.5 -16zM642 828q0 -20 -16 -35.5t-36 -15.5q-21 0 -37 15.5t-16 35.5q0 21 16 37t37 16q20 0 36 -16t16 -37zM471 828q0 -20 -15.5 -35.5t-36.5 -15.5t-37 15.5t-16 35.5
q0 21 16 37t37 16t36.5 -16t15.5 -37z" />
    <glyph glyph-name="wdieresis" unicode="&#x1e85;" horiz-adv-x="767" 
d="M511 -5l-121 298l-124 -298h-28l-152 362q-20 51 -38.5 69.5t-55.5 20.5v33h226v-33q-53 -6 -58 -22t21 -68l98 -226h6l85 210l-15 39q-17 37 -34.5 50t-64.5 17v33h250v-33q-58 -4 -66 -19.5t17 -70.5l89 -226h4l85 224q30 85 -70 92v33h210v-33q-68 -11 -100 -96
l-136 -356h-28zM521 612q0 -20 -16 -35.5t-36 -15.5q-21 0 -37 15.5t-16 35.5q0 21 16 37t37 16q20 0 36 -16t16 -37zM350 612q0 -20 -15 -35.5t-37 -15.5q-21 0 -37 15.5t-16 35.5q0 21 16 37t37 16t36.5 -16t15.5 -37z" />
    <glyph glyph-name="uni1e9e" unicode="&#x1e9e;" horiz-adv-x="773" 
d="M522 -12q-87 0 -155 35l-6 153h43q24 -150 117 -150q49 0 77 42t28 125q0 70 -34 116t-102 45q-51 0 -101 -29l-49 50l203 265l-5 12h-302v-571q0 -24 14 -30.5t61 -9.5q10 -1 16 -1v-40h-297v40q70 7 86 17.5t16 30.5v528q0 24 -18.5 30t-83.5 6v39h622l10 -41
l-189 -239l7 -11q110 21 181 -36t71 -163q0 -55 -19.5 -98t-51 -67t-67 -36t-72.5 -12z" />
    <glyph glyph-name="Ygrave" unicode="&#x1ef2;" horiz-adv-x="684" 
d="M669 691v-39q-68 0 -118 -79l-144 -263v-184q0 -59 19 -72.5t84 -13.5v-40h-308v40q72 0 86.5 13t14.5 73v180l-157 257q-39 57 -61 73t-70 16v39h293v-39q-58 0 -72 -14.5t12 -53.5l136 -224l123 223q17 28 4 48t-56 21v39h214zM449 755v-8h-51l-129 127v10h94z" />
    <glyph glyph-name="ygrave" unicode="&#x1ef3;" horiz-adv-x="524" 
d="M299 107h4l86 238q19 46 7 73.5t-71 33.5v28h207v-28q-33 -5 -53.5 -25.5t-36.5 -60.5l-184 -488q-42 -103 -129 -103q-46 0 -68.5 25t-22.5 58q0 29 15.5 44.5t39.5 15.5q25 0 35 -16v-87q58 0 91 78l33 102l-160 382q-20 38 -40.5 54.5t-59.5 20.5v28h250v-28
q-23 -2 -35.5 -5t-21.5 -11t-8 -22t11 -37zM345 549v-8h-51l-129 162v10h94z" />
    <glyph glyph-name="uni2011" unicode="&#x2011;" horiz-adv-x="318" 
d="M32 282h254v-69h-254v69z" />
    <glyph glyph-name="endash" unicode="&#x2013;" horiz-adv-x="488" 
d="M41 282h406v-69h-406v69z" />
    <glyph glyph-name="emdash" unicode="&#x2014;" horiz-adv-x="1000" 
d="M86 277h828v-59h-828v59z" />
    <glyph glyph-name="quoteright" unicode="&#x2019;" horiz-adv-x="355" 
d="M101 654q0 30 21 48.5t57 18.5q38 0 64 -28t26 -71q0 -127 -126 -216l-25 36q107 80 94 184q-31 -26 -57 -26q-23 0 -38.5 14t-15.5 40z" />
    <glyph glyph-name="quotesinglbase" unicode="&#x201a;" horiz-adv-x="355" 
d="M101 89q0 30 21 48.5t57 18.5q38 0 64 -28t26 -71q0 -127 -126 -216l-25 36q107 80 94 184q-31 -26 -57 -26q-23 0 -38.5 14t-15.5 40z" />
    <glyph glyph-name="quotedblleft" unicode="&#x201c;" horiz-adv-x="595" 
d="M254 473q0 -30 -21 -48.5t-57 -18.5q-38 0 -64 28t-26 71q0 127 126 216l25 -36q-107 -80 -94 -184q31 26 57 26q23 0 38.5 -14t15.5 -40zM494 473q0 -30 -21 -48.5t-57 -18.5q-38 0 -64 28t-26 71q0 127 126 216l25 -36q-107 -80 -94 -184q31 26 57 26q23 0 38.5 -14
t15.5 -40z" />
    <glyph glyph-name="quotedblright" unicode="&#x201d;" horiz-adv-x="595" 
d="M341 654q0 30 21 48.5t57 18.5q38 0 64 -28t26 -71q0 -127 -126 -216l-25 36q107 80 94 184q-31 -26 -57 -26q-23 0 -38.5 14t-15.5 40zM101 654q0 30 21 48.5t57 18.5q38 0 64 -28t26 -71q0 -127 -126 -216l-25 36q107 80 94 184q-31 -26 -57 -26q-23 0 -38.5 14
t-15.5 40z" />
    <glyph glyph-name="quotedblbase" unicode="&#x201e;" horiz-adv-x="595" 
d="M341 89q0 30 21 48.5t57 18.5q38 0 64 -28t26 -71q0 -127 -126 -216l-25 36q107 80 94 184q-31 -26 -57 -26q-23 0 -38.5 14t-15.5 40zM101 89q0 30 21 48.5t57 18.5q38 0 64 -28t26 -71q0 -127 -126 -216l-25 36q107 80 94 184q-31 -26 -57 -26q-23 0 -38.5 14t-15.5 40
z" />
    <glyph glyph-name="dagger" unicode="&#x2020;" horiz-adv-x="548" 
d="M498 479q0 -30 -23.5 -47.5t-52.5 -12.5q-5 1 -44.5 20t-84.5 19q0 -87 8.5 -130.5t36.5 -69.5q-15 -8 -23.5 -28.5t-15 -86t-6.5 -180.5h-39q0 167 -10 225.5t-34 69.5q44 45 44 200q-34 0 -55 -6.5t-41 -18t-32 -16.5q-27 -8 -51.5 12t-24.5 50q0 29 23.5 45.5
t52.5 11.5q15 -4 33.5 -14.5t40 -17.5t54.5 -7q0 36 -6.5 60.5t-18.5 48t-16 37.5q-9 27 9 51t47 24q30 0 49.5 -24t13.5 -51q-2 -10 -20.5 -54t-18.5 -92q33 0 54 6.5t42 18.5t33 17q28 7 52 -12t24 -48z" />
    <glyph glyph-name="daggerdbl" unicode="&#x2021;" horiz-adv-x="548" 
d="M338 258q-30 -33 -37.5 -75.5t-7.5 -127.5q45 0 83 18.5t46 20.5q29 5 52.5 -12t23.5 -47q0 -29 -24.5 -48.5t-51.5 -11.5q-12 4 -32.5 16t-42 18.5t-54.5 6.5q0 -48 18.5 -91.5t20.5 -53.5q6 -28 -13.5 -52t-49.5 -24q-29 0 -47 24t-9 52q4 14 16 37t18.5 47.5t6.5 60.5
q-33 0 -54.5 -7t-40 -17.5t-33.5 -14.5q-29 -5 -52.5 11.5t-23.5 46.5q0 29 24 49t52 13q12 -5 32 -17t41 -18.5t55 -6.5q0 80 -9 128t-35 75q44 47 44 200q-34 0 -55 -6.5t-41 -18t-32 -16.5q-27 -8 -51.5 12t-24.5 50t23.5 46t52.5 11q8 -2 46 -20.5t82 -18.5
q0 36 -6.5 61t-18.5 48t-16 37q-9 27 9 51t47 24q30 0 49.5 -24t13.5 -51q-2 -10 -20.5 -54t-18.5 -92q33 0 54 6.5t42 18.5t33 17q28 7 52 -12t24 -48q0 -30 -23.5 -47.5t-52.5 -12.5q-5 1 -44.5 20t-84.5 19q0 -87 8.5 -130.5t36.5 -69.5z" />
    <glyph glyph-name="bullet" unicode="&#x2022;" horiz-adv-x="572" 
d="M150 264q0 56 40 96t96 40t96 -40t40 -96t-40 -96t-96 -40t-96 40t-40 96z" />
    <glyph glyph-name="ellipsis" unicode="&#x2026;" horiz-adv-x="899" 
d="M70 59q0 29 20 49.5t49 20.5t49.5 -20.5t20.5 -49.5q0 -28 -20.5 -48t-49.5 -20t-49 19.5t-20 48.5zM380 59q0 29 20 49.5t49 20.5t49.5 -20.5t20.5 -49.5q0 -28 -20.5 -48t-49.5 -20t-49 19.5t-20 48.5zM690 59q0 29 20 49.5t49 20.5t49.5 -20.5t20.5 -49.5
q0 -28 -20.5 -48t-49.5 -20t-49 19.5t-20 48.5z" />
    <glyph glyph-name="perthousand" unicode="&#x2030;" horiz-adv-x="831" 
d="M293 575l-3 -1q-1 -81 -44 -134t-100 -53q-47 0 -77 35.5t-30 90.5q0 74 46.5 128.5t100.5 54.5q70 0 96 -69q6 -15 25 -24.5t41 -9.5q48 0 84 30q23 67 55 67q8 0 16 -5.5t8 -16.5q0 -15 -13.5 -32.5t-30.5 -28.5l-190 -288l-215 -338l-33 26l223 332l140 228l-3 2
q-21 -12 -48 -12q-30 0 -48 18zM261 114q0 74 47 129t101 55q46 0 75 -31.5t29 -85.5q0 -86 -44 -139t-98 -53q-49 0 -79.5 35t-30.5 90zM425 253q-33 0 -61 -52.5t-28 -113.5q0 -28 11.5 -43t28.5 -15q34 0 62 41t28 120q0 30 -11.5 46.5t-29.5 16.5zM203 651
q-33 0 -62 -52t-29 -112t43 -60q33 0 60.5 42t27.5 120q0 29 -11.5 45.5t-28.5 16.5zM541 114q0 74 46.5 129t99.5 55q47 0 76 -31.5t29 -85.5q0 -86 -44 -139t-98 -53q-49 0 -79 35t-30 90zM705 253q-33 0 -62 -52.5t-29 -113.5q0 -28 11.5 -43t29.5 -15q34 0 62 41t28 120
q0 30 -11.5 46.5t-28.5 16.5z" />
    <glyph glyph-name="uni2032" unicode="&#x2032;" horiz-adv-x="290" 
d="M63 456l70 266l96 -34l-114 -250z" />
    <glyph glyph-name="uni2033" unicode="&#x2033;" horiz-adv-x="480" 
d="M63 456l70 266l96 -34l-114 -250zM253 456l70 266l96 -34l-114 -250z" />
    <glyph glyph-name="guilsinglleft" unicode="&#x2039;" horiz-adv-x="445" 
d="M105 240l182 219l33 -20l-118 -201v-15l118 -203l-33 -24l-182 221v23z" />
    <glyph glyph-name="guilsinglright" unicode="&#x203a;" horiz-adv-x="445" 
d="M158 459l182 -219v-23l-182 -221l-33 24l118 203v15l-118 201z" />
    <glyph glyph-name="uni2042" unicode="&#x2042;" horiz-adv-x="896" 
d="M471 543q49 -24 120 -44q35 -9 28 -40q-6 -27 -30 -36q-21 -7 -38 10q-63 66 -93 85q5 -56 25 -124q10 -32 -20 -43q-27 -9 -44 9q-12 14 -8 34q21 96 23 124q-47 -29 -93 -85q-20 -23 -46 -2q-24 19 -18 43q4 16 26 23q84 26 119 46q-51 22 -119 37q-30 5 -26 36
q4 28 27 36q18 7 35 -9q67 -60 95 -80q-7 52 -26 121q-10 34 21 45q28 9 47 -9q13 -14 7 -36q-2 -10 -9.5 -37t-11.5 -46t-6 -38q47 31 95 80q26 28 50 4q20 -21 12 -46q-6 -17 -24 -21q-9 -2 -28 -6.5t-30.5 -7.5t-28.5 -9t-31 -14zM261 173q49 -24 120 -44q35 -9 28 -40
q-6 -27 -30 -36q-21 -7 -38 10q-63 66 -93 85q5 -56 25 -124q10 -32 -20 -43q-27 -9 -44 9q-13 13 -8 34q21 96 23 124q-47 -29 -93 -85q-20 -23 -46 -2q-24 19 -18 43q4 16 26 23q84 26 119 46q-51 22 -119 37q-30 5 -26 36q4 28 27 36q18 7 35 -9q67 -60 95 -80
q-7 52 -26 121q-10 34 21 45q28 9 47 -9q13 -14 7 -36q-2 -10 -9.5 -37t-11.5 -46t-6 -38q47 31 95 80q26 28 50 4q20 -21 12 -46q-6 -17 -24 -21q-9 -2 -28 -6.5t-30.5 -7.5t-28.5 -9t-31 -14zM681 173q49 -24 120 -44q35 -9 28 -40q-6 -27 -30 -36q-21 -7 -38 10
q-63 66 -93 85q5 -56 25 -124q10 -32 -20 -43q-27 -9 -44 9q-13 13 -8 34q21 96 23 124q-47 -29 -93 -85q-20 -23 -46 -2q-24 19 -18 43q4 16 26 23q84 26 119 46q-51 22 -119 37q-30 5 -26 36q4 28 27 36q18 7 35 -9q67 -60 95 -80q-7 52 -26 121q-10 34 21 45q28 9 47 -9
q13 -14 7 -36q-2 -10 -9.5 -37t-11.5 -46t-6 -38q47 31 95 80q26 28 50 4q20 -21 12 -46q-6 -17 -24 -21q-9 -2 -28 -6.5t-30.5 -7.5t-28.5 -9t-31 -14z" />
    <glyph glyph-name="fraction" unicode="&#x2044;" 
d="M148 -14l241 370l223 353l40 -26l-234 -349l-231 -375z" />
    <glyph glyph-name="zero.sups" unicode="&#x2070;" horiz-adv-x="331" 
d="M310 601q0 -92 -41.5 -142.5t-103.5 -50.5q-63 0 -103 47t-40 146q0 95 41 148t102 53q62 0 103.5 -52.5t41.5 -148.5zM231 601q0 93 -14 132.5t-52 39.5q-37 0 -50.5 -39t-13.5 -133q0 -93 12.5 -128.5t51.5 -35.5q40 0 53 35.5t13 128.5z" />
    <glyph glyph-name="four.sups" unicode="&#x2074;" horiz-adv-x="322" 
d="M14 530l-6 14l202 259l35 -5v-240h58v-28h-58v-39q0 -33 14.5 -43t43.5 -10v-23h-189v23q32 0 46.5 10t14.5 39v43h-161zM69 559l2 -1h103v139z" />
    <glyph glyph-name="five.sups" unicode="&#x2075;" horiz-adv-x="316" 
d="M103 729q-1 -16 -4 -47t-4 -46q34 18 77 18q49 0 85 -28.5t36 -80.5q0 -62 -46.5 -99.5t-117.5 -37.5q-40 0 -74.5 20.5t-34.5 55.5q0 20 12.5 32t32.5 12t31.5 -10.5t11.5 -27.5l-27 -40q17 -14 52 -14q39 0 59.5 30.5t20.5 74.5q0 78 -58 78q-39 0 -70 -36h-36l16 217
q57 -18 111 -18q58 0 105 24v-34q-42 -46 -133 -46q-24 0 -45 3z" />
    <glyph glyph-name="six.sups" unicode="&#x2076;" horiz-adv-x="333" 
d="M186 802q50 0 79 -21.5t29 -47.5q0 -42 -44 -42q-20 0 -32.5 10t-12.5 28l26 30q-19 17 -45 17q-35 0 -57.5 -48t-26.5 -107q33 33 87 33q57 0 89 -30.5t32 -79.5q0 -63 -41.5 -99.5t-98.5 -36.5q-59 0 -100.5 44.5t-41.5 136.5q0 89 46 151t112 62zM231 541q0 84 -52 84
q-19 0 -41 -17t-37 -48l1 1q0 -124 68 -124q61 0 61 104z" />
    <glyph glyph-name="seven.sups" unicode="&#x2077;" horiz-adv-x="305" 
d="M94 449q22 144 140 290q-21 -8 -51 -8q-15 0 -35 4q-30 5 -35 5q-43 0 -51 -73h-39l19 132h39l1 -5q18 8 38 8q22 0 50 -12q24 -11 41 -11q30 0 76 31l23 -26q-71 -87 -101 -155.5t-30 -180.5q0 -10 -1.5 -16.5t-11.5 -13.5t-29 -7q-23 0 -34 9.5t-9 28.5z" />
    <glyph glyph-name="eight.sups" unicode="&#x2078;" horiz-adv-x="322" 
d="M219 622v-4l-7 2q89 -30 89 -99q0 -51 -45.5 -82t-102.5 -31q-59 0 -95.5 25.5t-36.5 68.5q0 28 23 53.5t58 40.5v5l6 -2q-72 32 -72 95q0 45 37.5 76.5t93.5 31.5q53 0 86 -24.5t33 -61.5q0 -56 -72 -96zM218 711q0 27 -17 45t-43 18q-27 0 -43.5 -17.5t-16.5 -41.5
q0 -58 82 -81q38 21 38 77zM233 509q0 54 -92 75q-56 -21 -55 -79q1 -33 21 -50.5t53 -17.5q30 0 51.5 19t21.5 53z" />
    <glyph glyph-name="nine.sups" unicode="&#x2079;" horiz-adv-x="333" 
d="M147 408q-49 0 -77 19t-28 43q0 20 11 32.5t31 12.5t32.5 -11t12.5 -29l-27 -26q15 -15 45 -15q37 0 59 45t24 110q-33 -33 -85 -33q-57 0 -89 34t-32 87q0 55 42.5 90t98.5 35q58 0 100 -44t42 -136q0 -98 -45.5 -156t-114.5 -58zM102 674q0 -88 54 -88q19 0 40.5 17
t35.5 47l-1 -1q0 124 -67 124q-62 0 -62 -99z" />
    <glyph glyph-name="Euro" unicode="&#x20ac;" horiz-adv-x="645" 
d="M68 402h64q20 125 92.5 199t169.5 74q105 0 194 -66l-32 -133h-31q1 44 -11.5 76t-34 48t-42.5 23t-43 7q-61 0 -105 -57.5t-56 -170.5h309l-12 -46h-301v-39v-17h286l-11 -46h-272q12 -106 58 -162.5t102 -56.5q111 0 150 128l41 -13q-48 -162 -201 -162
q-97 0 -167.5 70t-85.5 196h-72l11 46h58v16q0 27 1 40h-70z" />
    <glyph glyph-name="uni2117" unicode="&#x2117;" horiz-adv-x="775" 
d="M48 327q0 138 100.5 238t239.5 100q144 0 241.5 -99t97.5 -239t-100 -240.5t-239 -100.5q-142 0 -241 96.5t-99 244.5zM108 324q0 -122 79 -203.5t203 -81.5q123 0 199.5 81t76.5 204q0 125 -79 208t-199 83q-122 0 -201 -83.5t-79 -207.5zM412 296h-41v-119l50 -8v-27
h-176v27l47 8v299l-47 8v26h169q56 0 98 -26.5t42 -80.5q0 -49 -38 -78t-104 -29zM371 470v-136h45q23 0 40.5 18t17.5 47q0 71 -62 71h-41z" />
    <glyph glyph-name="trademark" unicode="&#x2122;" horiz-adv-x="670" 
d="M535 634h-7l-78 -179h-17l-74 179h-5l-15 -150l33 -6v-23h-92v23l33 6l19 193l-38 6v23h94l62 -165h7l71 165h92v-23l-35 -6l12 -193l31 -6v-23h-118v23l34 6zM55 706h210l14 -74h-20l-32 47h-38v-195l32 -6v-23h-121v23l32 6v195h-37l-32 -47h-21z" />
    <glyph glyph-name="oneseventh" unicode="&#x2150;" 
d="M148 -14l241 370l223 353l40 -26l-234 -349l-231 -375zM86 643v24q72 4 114 22h35v-316q0 -23 16.5 -32.5t55.5 -9.5v-23h-219v23q41 2 58 10.5t17 31.5v261zM530 24q22 144 140 290q-21 -8 -51 -8q-15 0 -35 4q-30 5 -35 5q-43 0 -51 -73h-39l19 132h39l1 -5q18 8 38 8
q22 0 50 -12q24 -11 41 -11q30 0 76 31l23 -26q-71 -87 -101 -155.5t-30 -180.5q0 -10 -1.5 -16.5t-11.5 -13.5t-29 -7q-23 0 -34 9.5t-9 28.5z" />
    <glyph glyph-name="oneninth" unicode="&#x2151;" 
d="M148 -14l241 370l223 353l40 -26l-234 -349l-231 -375zM86 643v24q72 4 114 22h35v-316q0 -23 16.5 -32.5t55.5 -9.5v-23h-219v23q41 2 58 10.5t17 31.5v261zM583 -17q-49 0 -77 19t-28 43q0 20 11 32.5t31 12.5t32.5 -11t12.5 -29l-27 -26q15 -15 45 -15q37 0 59 45
t24 110q-33 -33 -85 -33q-57 0 -89 34t-32 87q0 55 42.5 90t98.5 35q58 0 100 -44t42 -136q0 -98 -45.5 -156t-114.5 -58zM538 249q0 -88 54 -88q19 0 40.5 17t35.5 47l-1 -1q0 124 -67 124q-62 0 -62 -99z" />
    <glyph glyph-name="onethird" unicode="&#x2153;" 
d="M148 -14l241 370l223 353l40 -26l-234 -349l-231 -375zM86 643v24q72 4 114 22h35v-316q0 -23 16.5 -32.5t55.5 -9.5v-23h-219v23q41 2 58 10.5t17 31.5v261zM623 199l3 -5q42 -6 71 -31.5t29 -69.5q0 -53 -47.5 -81.5t-112.5 -28.5q-50 0 -83.5 20t-33.5 56
q0 21 12 33.5t32 12.5q19 0 30.5 -11t11.5 -30l-26 -38q17 -15 53 -15t60 19t24 65q0 73 -58 73q-17 0 -61 -14l-9 29q62 23 89.5 49t27.5 63q0 54 -53 54q-33 0 -54 -18l26 -46q0 -15 -12 -24.5t-30 -9.5q-19 0 -31 13t-12 34q0 37 37.5 58t85.5 21q54 0 88.5 -23t34.5 -61
q0 -28 -26 -53t-66 -41z" />
    <glyph glyph-name="twothirds" unicode="&#x2154;" 
d="M148 -14l241 370l223 353l40 -26l-234 -349l-231 -375zM110 367l2 -7h110q26 0 35 65h45l-17 -117h-259l-8 30l24 20q31 26 49 43t50.5 51t49 68.5t16.5 66.5q0 42 -18 60.5t-43 18.5q-42 0 -60 -42l34 -48q0 -19 -13.5 -31t-34.5 -12t-33.5 14.5t-12.5 37.5
q0 49 37.5 79.5t88.5 30.5q61 0 98 -29t37 -80q0 -24 -12 -49t-36.5 -51t-43 -43t-48.5 -42q-27 -22 -40 -35zM623 199l3 -5q42 -6 71 -31.5t29 -69.5q0 -53 -47.5 -81.5t-112.5 -28.5q-50 0 -83.5 20t-33.5 56q0 21 12 33.5t32 12.5q19 0 30.5 -11t11.5 -30l-26 -38
q17 -15 53 -15t60 19t24 65q0 73 -58 73q-17 0 -61 -14l-9 29q62 23 89.5 49t27.5 63q0 54 -53 54q-33 0 -54 -18l26 -46q0 -15 -12 -24.5t-30 -9.5q-19 0 -31 13t-12 34q0 37 37.5 58t85.5 21q54 0 88.5 -23t34.5 -61q0 -28 -26 -53t-66 -41z" />
    <glyph glyph-name="onefifth" unicode="&#x2155;" 
d="M148 -14l241 370l223 353l40 -26l-234 -349l-231 -375zM86 643v24q72 4 114 22h35v-316q0 -23 16.5 -32.5t55.5 -9.5v-23h-219v23q41 2 58 10.5t17 31.5v261zM539 304q-1 -16 -4 -47t-4 -46q34 18 77 18q49 0 85 -28.5t36 -80.5q0 -62 -46.5 -99.5t-117.5 -37.5
q-40 0 -74.5 20.5t-34.5 55.5q0 20 12.5 32t32.5 12t31.5 -10.5t11.5 -27.5l-27 -40q17 -14 52 -14q39 0 59.5 30.5t20.5 74.5q0 78 -58 78q-39 0 -70 -36h-36l16 217q57 -18 111 -18q58 0 105 24v-34q-42 -46 -133 -46q-24 0 -45 3z" />
    <glyph glyph-name="twofifths" unicode="&#x2156;" 
d="M148 -14l241 370l223 353l40 -26l-234 -349l-231 -375zM110 367l2 -7h110q26 0 35 65h45l-17 -117h-259l-8 30l24 20q31 26 49 43t50.5 51t49 68.5t16.5 66.5q0 42 -18 60.5t-43 18.5q-42 0 -60 -42l34 -48q0 -19 -13.5 -31t-34.5 -12t-33.5 14.5t-12.5 37.5
q0 49 37.5 79.5t88.5 30.5q61 0 98 -29t37 -80q0 -24 -12 -49t-36.5 -51t-43 -43t-48.5 -42q-27 -22 -40 -35zM539 304q-1 -16 -4 -47t-4 -46q34 18 77 18q49 0 85 -28.5t36 -80.5q0 -62 -46.5 -99.5t-117.5 -37.5q-40 0 -74.5 20.5t-34.5 55.5q0 20 12.5 32t32.5 12
t31.5 -10.5t11.5 -27.5l-27 -40q17 -14 52 -14q39 0 59.5 30.5t20.5 74.5q0 78 -58 78q-39 0 -70 -36h-36l16 217q57 -18 111 -18q58 0 105 24v-34q-42 -46 -133 -46q-24 0 -45 3z" />
    <glyph glyph-name="threefifths" unicode="&#x2157;" 
d="M148 -14l241 370l223 353l40 -26l-234 -349l-231 -375zM218 517l3 -5q42 -6 71 -31.5t29 -69.5q0 -53 -47.5 -81.5t-112.5 -28.5q-50 0 -83.5 20t-33.5 56q0 21 12 33.5t32 12.5q19 0 30.5 -11t11.5 -30l-26 -38q17 -15 53 -15t60 19t24 65q0 73 -58 73q-17 0 -61 -14
l-9 29q62 23 89.5 49t27.5 63q0 54 -53 54q-33 0 -54 -18l26 -46q0 -15 -12 -24.5t-30 -9.5q-19 0 -31 13t-12 34q0 37 37.5 58t85.5 21q54 0 88.5 -23t34.5 -61q0 -28 -26 -53t-66 -41zM539 304q-1 -16 -4 -47t-4 -46q34 18 77 18q49 0 85 -28.5t36 -80.5
q0 -62 -46.5 -99.5t-117.5 -37.5q-40 0 -74.5 20.5t-34.5 55.5q0 20 12.5 32t32.5 12t31.5 -10.5t11.5 -27.5l-27 -40q17 -14 52 -14q39 0 59.5 30.5t20.5 74.5q0 78 -58 78q-39 0 -70 -36h-36l16 217q57 -18 111 -18q58 0 105 24v-34q-42 -46 -133 -46q-24 0 -45 3z" />
    <glyph glyph-name="fourfifths" unicode="&#x2158;" 
d="M148 -14l241 370l223 353l40 -26l-234 -349l-231 -375zM2 423l-6 14l202 259l35 -5v-240h58v-28h-58v-39q0 -33 14.5 -43t43.5 -10v-23h-189v23q32 0 46.5 10t14.5 39v43h-161zM57 452l2 -1h103v139zM539 304q-1 -16 -4 -47t-4 -46q34 18 77 18q49 0 85 -28.5t36 -80.5
q0 -62 -46.5 -99.5t-117.5 -37.5q-40 0 -74.5 20.5t-34.5 55.5q0 20 12.5 32t32.5 12t31.5 -10.5t11.5 -27.5l-27 -40q17 -14 52 -14q39 0 59.5 30.5t20.5 74.5q0 78 -58 78q-39 0 -70 -36h-36l16 217q57 -18 111 -18q58 0 105 24v-34q-42 -46 -133 -46q-24 0 -45 3z" />
    <glyph glyph-name="onesixth" unicode="&#x2159;" 
d="M148 -14l241 370l223 353l40 -26l-234 -349l-231 -375zM86 643v24q72 4 114 22h35v-316q0 -23 16.5 -32.5t55.5 -9.5v-23h-219v23q41 2 58 10.5t17 31.5v261zM602 377q50 0 79 -21.5t29 -47.5q0 -42 -44 -42q-20 0 -32.5 10t-12.5 28l26 30q-19 17 -45 17
q-35 0 -57.5 -48t-26.5 -107q33 33 87 33q57 0 89 -30.5t32 -79.5q0 -63 -41.5 -99.5t-98.5 -36.5q-59 0 -100.5 44.5t-41.5 136.5q0 89 46 151t112 62zM647 116q0 84 -52 84q-19 0 -41 -17t-37 -48l1 1q0 -124 68 -124q61 0 61 104z" />
    <glyph glyph-name="fivesixths" unicode="&#x215a;" 
d="M148 -14l241 370l223 353l40 -26l-234 -349l-231 -375zM130 622q-1 -16 -4 -47t-4 -46q34 18 77 18q49 0 85 -28.5t36 -80.5q0 -62 -46.5 -99.5t-117.5 -37.5q-40 0 -74.5 20.5t-34.5 55.5q0 20 12.5 32t32.5 12t31.5 -10.5t11.5 -27.5l-27 -40q17 -14 52 -14
q39 0 59.5 30.5t20.5 74.5q0 78 -58 78q-39 0 -70 -36h-36l16 217q57 -18 111 -18q59 0 105 24v-34q-42 -46 -133 -46q-24 0 -45 3zM602 377q50 0 79 -21.5t29 -47.5q0 -42 -44 -42q-20 0 -32.5 10t-12.5 28l26 30q-19 17 -45 17q-35 0 -57.5 -48t-26.5 -107q33 33 87 33
q57 0 89 -30.5t32 -79.5q0 -63 -41.5 -99.5t-98.5 -36.5q-59 0 -100.5 44.5t-41.5 136.5q0 89 46 151t112 62zM647 116q0 84 -52 84q-19 0 -41 -17t-37 -48l1 1q0 -124 68 -124q61 0 61 104z" />
    <glyph glyph-name="oneeighth" unicode="&#x215b;" 
d="M148 -14l241 370l223 353l40 -26l-234 -349l-231 -375zM86 643v24q72 4 114 22h35v-316q0 -23 16.5 -32.5t55.5 -9.5v-23h-219v23q41 2 58 10.5t17 31.5v261zM655 197v-4l-7 2q89 -30 89 -99q0 -51 -45.5 -82t-102.5 -31q-59 0 -95.5 25.5t-36.5 68.5q0 28 23 53.5
t58 40.5v5l6 -2q-72 32 -72 95q0 45 37.5 76.5t93.5 31.5q53 0 86 -24.5t33 -61.5q0 -56 -72 -96zM654 286q0 27 -17 45t-43 18q-27 0 -43.5 -17.5t-16.5 -41.5q0 -58 82 -81q38 21 38 77zM669 84q0 54 -92 75q-56 -21 -55 -79q1 -33 21 -50.5t53 -17.5q30 0 51.5 19
t21.5 53z" />
    <glyph glyph-name="threeeighths" unicode="&#x215c;" 
d="M148 -14l241 370l223 353l40 -26l-234 -349l-231 -375zM218 517l3 -5q42 -6 71 -31.5t29 -69.5q0 -53 -47.5 -81.5t-112.5 -28.5q-50 0 -83.5 20t-33.5 56q0 21 12 33.5t32 12.5q19 0 30.5 -11t11.5 -30l-26 -38q17 -15 53 -15t60 19t24 65q0 73 -58 73q-17 0 -61 -14
l-9 29q62 23 89.5 49t27.5 63q0 54 -53 54q-33 0 -54 -18l26 -46q0 -15 -12 -24.5t-30 -9.5q-19 0 -31 13t-12 34q0 37 37.5 58t85.5 21q54 0 88.5 -23t34.5 -61q0 -28 -26 -53t-66 -41zM655 197v-4l-7 2q89 -30 89 -99q0 -51 -45.5 -82t-102.5 -31q-59 0 -95.5 25.5
t-36.5 68.5q0 28 23 53.5t58 40.5v5l6 -2q-72 32 -72 95q0 45 37.5 76.5t93.5 31.5q53 0 86 -24.5t33 -61.5q0 -56 -72 -96zM654 286q0 27 -17 45t-43 18q-27 0 -43.5 -17.5t-16.5 -41.5q0 -58 82 -81q38 21 38 77zM669 84q0 54 -92 75q-56 -21 -55 -79q1 -33 21 -50.5
t53 -17.5q30 0 51.5 19t21.5 53z" />
    <glyph glyph-name="fiveeighths" unicode="&#x215d;" 
d="M148 -14l241 370l223 353l40 -26l-234 -349l-231 -375zM130 622q-1 -16 -4 -47t-4 -46q34 18 77 18q49 0 85 -28.5t36 -80.5q0 -62 -46.5 -99.5t-117.5 -37.5q-40 0 -74.5 20.5t-34.5 55.5q0 20 12.5 32t32.5 12t31.5 -10.5t11.5 -27.5l-27 -40q17 -14 52 -14
q39 0 59.5 30.5t20.5 74.5q0 78 -58 78q-39 0 -70 -36h-36l16 217q57 -18 111 -18q59 0 105 24v-34q-42 -46 -133 -46q-24 0 -45 3zM655 197v-4l-7 2q89 -30 89 -99q0 -51 -45.5 -82t-102.5 -31q-59 0 -95.5 25.5t-36.5 68.5q0 28 23 53.5t58 40.5v5l6 -2q-72 32 -72 95
q0 45 37.5 76.5t93.5 31.5q53 0 86 -24.5t33 -61.5q0 -56 -72 -96zM654 286q0 27 -17 45t-43 18q-27 0 -43.5 -17.5t-16.5 -41.5q0 -58 82 -81q38 21 38 77zM669 84q0 54 -92 75q-56 -21 -55 -79q1 -33 21 -50.5t53 -17.5q30 0 51.5 19t21.5 53z" />
    <glyph glyph-name="seveneighths" unicode="&#x215e;" 
d="M148 -14l241 370l223 353l40 -26l-234 -349l-231 -375zM139 342q22 144 140 290q-21 -8 -51 -8q-15 0 -35 4q-30 5 -35 5q-43 0 -51 -73h-39l19 132h39l1 -5q18 8 38 8q22 0 50 -12q24 -11 41 -11q30 0 76 31l23 -26q-71 -87 -101 -155.5t-30 -180.5q0 -10 -1.5 -16.5
t-11.5 -13.5t-29 -7q-23 0 -34 9.5t-9 28.5zM655 197v-4l-7 2q89 -30 89 -99q0 -51 -45.5 -82t-102.5 -31q-59 0 -95.5 25.5t-36.5 68.5q0 28 23 53.5t58 40.5v5l6 -2q-72 32 -72 95q0 45 37.5 76.5t93.5 31.5q53 0 86 -24.5t33 -61.5q0 -56 -72 -96zM654 286q0 27 -17 45
t-43 18q-27 0 -43.5 -17.5t-16.5 -41.5q0 -58 82 -81q38 21 38 77zM669 84q0 54 -92 75q-56 -21 -55 -79q1 -33 21 -50.5t53 -17.5q30 0 51.5 19t21.5 53z" />
    <glyph glyph-name="uni2191" unicode="&#x2191;" horiz-adv-x="704" 
d="M363 604l263 -237l-43 -57l-186 166v-425h-85v425l-186 -166l-44 57l265 237h16z" />
    <glyph glyph-name="uni2193" unicode="&#x2193;" horiz-adv-x="704" 
d="M626 288l-263 -237h-16l-265 237l44 57l186 -166v425h85v-425l186 166z" />
    <glyph glyph-name="partialdiff" unicode="&#x2202;" horiz-adv-x="544" 
d="M287 603q-84 0 -109 -132h-41l11 106q20 25 62 42.5t88 17.5q95 0 145 -78t50 -200q0 -179 -72 -275t-193 -96q-72 0 -122.5 47t-50.5 132q0 104 67 166t148 62q40 0 76.5 -17.5t53.5 -49.5v-2l5 3v43q0 117 -28.5 174t-89.5 57zM387 269v1q-11 34 -38.5 58t-58.5 24
q-56 0 -94 -50.5t-38 -135.5q0 -63 22.5 -99.5t63.5 -36.5q58 0 100.5 65.5t42.5 173.5z" />
    <glyph glyph-name="product" unicode="&#x220f;" horiz-adv-x="544" 
d="M2 625h544v-31l-79 -15v-533l79 -16v-30h-256v30l79 16v533h-190v-533l79 -16v-30h-256v30l79 16v533l-79 15v31z" />
    <glyph glyph-name="summation" unicode="&#x2211;" horiz-adv-x="544" 
d="M148 83l5 -10v-3h254v2l85 111h42l-48 -183h-474l-6 8l265 273v18l-244 320l5 6h450l24 -163h-36l-90 130v2h-213v-3l-5 -7v-5l201 -259v-11l-215 -221v-5z" />
    <glyph glyph-name="minus" unicode="&#x2212;" horiz-adv-x="620" 
d="M570 230h-520v60h520v-60z" />
    <glyph glyph-name="radical" unicode="&#x221a;" horiz-adv-x="544" 
d="M322 52h13v4l153 701l50 -10l-185 -886h-39l-197 531v3l-101 -36l-12 28l176 59l142 -391v-3z" />
    <glyph glyph-name="infinity" unicode="&#x221e;" horiz-adv-x="544" 
d="M129 151q-61 0 -93.5 37.5t-32.5 86.5q0 53 37 90.5t89 37.5q73 0 143 -92q69 92 146 92q61 0 93.5 -37t32.5 -87q0 -53 -37 -90.5t-89 -37.5q-76 0 -143 90q-70 -90 -146 -90zM146 362q-34 0 -55 -23.5t-21 -63.5q0 -38 21 -61.5t51 -23.5q18 0 37.5 13.5t31.5 28.5
t35 45v6q-20 26 -32.5 40.5t-31 26.5t-36.5 12zM401 192q34 0 55 23.5t21 63.5q0 38 -21 61.5t-51 23.5q-18 0 -37 -14t-32 -29t-35 -45v-6q28 -39 50.5 -58.5t49.5 -19.5z" />
    <glyph glyph-name="integral" unicode="&#x222b;" horiz-adv-x="544" 
d="M307 499l13 -494q2 -93 -48.5 -152.5t-129.5 -59.5q-31 0 -53.5 15.5t-22.5 46.5q0 20 13 35t37 15q51 0 58 -61v-4l26 -7v1q19 19 31 66t10 95l-12 494q-2 94 48 152.5t128 58.5q32 0 55 -15.5t23 -45.5q0 -19 -13.5 -34.5t-37.5 -15.5q-22 0 -38 15t-19 46v4l-26 7v-1
q-45 -42 -42 -161z" />
    <glyph glyph-name="approxequal" unicode="&#x2248;" horiz-adv-x="544" 
d="M434 383l53 -21q-14 -46 -46.5 -77t-84.5 -31q-37 0 -96 38q-3 2 -12.5 8t-13.5 8.5t-12 7t-13 6.5t-11.5 3.5t-12.5 1.5q-24 0 -43 -11t-27 -21t-22 -32l-42 30q15 31 51.5 57t82.5 26q34 0 93 -36q52 -35 79 -35q28 0 49.5 23.5t27.5 54.5zM450 223l47 -23
q-12 -36 -49.5 -62t-79.5 -26q-47 0 -110 40q-51 32 -73 32q-37 0 -72 -67l-46 29q49 87 118 87q31 0 91 -34q58 -37 92 -37q30 0 51.5 17.5t30.5 43.5z" />
    <glyph glyph-name="notequal" unicode="&#x2260;" horiz-adv-x="620" 
d="M482 491l-65 -121h153v-60h-185l-64 -120h249v-60h-281l-86 -160l-56 27l71 133h-168v60h200l64 120h-264v60h296l80 148z" />
    <glyph glyph-name="lessequal" unicode="&#x2264;" horiz-adv-x="620" 
d="M570 0h-520v60h520v-60zM570 545l-454 -179l454 -179v-57l-520 205v62l520 205v-57z" />
    <glyph glyph-name="greaterequal" unicode="&#x2265;" horiz-adv-x="620" 
d="M570 0h-520v60h520v-60zM504 366l-454 179v57l520 -205v-62l-520 -205v57z" />
    <glyph glyph-name="lozenge" unicode="&#x25ca;" horiz-adv-x="544" 
d="M273 -101l-247 375l247 377l247 -377zM110 271l163 -250l164 250v6l-164 251q-108 -164 -163 -251v-6z" />
    <glyph glyph-name="uni2605" unicode="&#x2605;" horiz-adv-x="574" 
d="M129 -9l-2 1l65 184v7l-163 115l200 -7v4l57 192h8l58 -192v-4q33 1 98.5 3t97.5 2l-159 -113v-7l65 -183l-2 -1l-162 119zM548 296l7 5l-1 -5h-6zM25 298l-2 4l6 -4h-4z" />
    <glyph glyph-name="commaaccent" unicode="&#xf6c3;" horiz-adv-x="500" 
d="M204 -95q0 14 12.5 25.5t32.5 11.5q28 0 47 -22.5t19 -57.5q0 -65 -85 -112l-19 28q47 27 47 58q0 18 -27 35.5t-27 33.5z" />
    <glyph glyph-name="apple" unicode="&#xf8ff;" horiz-adv-x="544" 
d="M211 720h11l32 -121l-3 -82l68 -8l64 99l8 99h12l7 -99l-17 -129l36 -85l35 -38l1 -6l-7 -8v-18l8 -4l-1 -9l-17 -36l-36 7l-11 101l-34 56l-13 -2l26 -60l4 -99l-37 -46l3 -22l26 -37l7 -71l-64 -23l-33 16l-35 57l-75 25l-28 47l-3 42l-30 41l-2 58l4 27l-11 44z
M489 244l6 -9l-3 -37l-12 -17l-5 -33l23 -8l-3 -10l-23 7l-43 -26l-5 10l39 23l5 36l-36 14l-13 31l-1 10l14 15l24 4zM272 305l36 -14l11 13l-3 14l-11 10l-30 -10zM329 64l3 -4l-7 -21l-40 -43l-68 -23l-97 14l-55 48l-18 62l34 95l11 -1l-9 -71l22 -41l37 -33l88 -16
l48 3zM144 438l9 -9l33 34l11 76h-18z" />
    <glyph glyph-name="zero.tnum" horiz-adv-x="574" 
d="M529 336q0 -167 -70 -257.5t-174 -90.5q-106 0 -173 84t-67 264q0 173 69 269t171 96q104 0 174 -95t70 -270zM422 336q0 173 -29 247t-108 74q-76 0 -104.5 -73.5t-28.5 -247.5q0 -172 26 -237.5t107 -65.5q82 0 109.5 66t27.5 237z" />
    <glyph glyph-name="one.tnum" horiz-adv-x="574" 
d="M111 610v41q118 7 198 39h40v-576q0 -42 30.5 -61t101.5 -19v-34h-366v34q77 4 107.5 20t30.5 60v481z" />
    <glyph glyph-name="two.tnum" horiz-adv-x="574" 
d="M172 104l4 -16h220q30 0 52 32.5t30 86.5h45l-30 -207h-438l-15 50q6 6 55 46.5t92 81t92 96t78.5 116.5t29.5 117q0 78 -38.5 114t-92.5 36q-94 0 -126 -80l61 -86q0 -36 -19.5 -57t-49.5 -21q-33 0 -50 24.5t-17 65.5q0 88 63 143t149 55q105 0 167 -52t62 -143
q0 -45 -23 -92t-64.5 -92t-79.5 -80t-87.5 -77t-69.5 -61z" />
    <glyph glyph-name="three.tnum" horiz-adv-x="574" 
d="M325 379l4 -11q74 -8 127.5 -55t53.5 -129q0 -95 -81.5 -145.5t-192.5 -50.5q-84 0 -140 35t-56 99q0 37 16.5 59.5t44.5 22.5t44 -20.5t16 -55.5l-43 -66q32 -32 111 -32q33 0 61.5 7.5t55 24t41.5 49t15 77.5q0 65 -31.5 100t-80.5 36.5t-109 -16.5l-14 42
q112 42 163.5 90t51.5 114q0 105 -117 105q-73 0 -115 -40l47 -81q0 -25 -17 -42.5t-42 -17.5q-27 0 -44 22.5t-17 59.5q0 66 63.5 103.5t143.5 37.5q91 0 148.5 -40.5t57.5 -109.5q0 -54 -46.5 -98t-118.5 -74z" />
    <glyph glyph-name="four.tnum" horiz-adv-x="574" 
d="M34 210l-10 25l364 466l35 -5v-441h107v-45h-107v-75q0 -63 27 -82t79 -19v-34h-311v34q57 0 84.5 19t27.5 75v82h-296zM103 260l2 -5h222v287l-8 4z" />
    <glyph glyph-name="five.tnum" horiz-adv-x="574" 
d="M148 391l8 -5q72 45 150 45q82 0 143.5 -51.5t61.5 -145.5q0 -112 -80.5 -179t-201.5 -67q-68 0 -125 36t-57 98q0 34 18 56t48 22q27 0 43.5 -18.5t16.5 -48.5l-49 -71q32 -32 111 -32q82 0 124.5 57t42.5 140q0 145 -126 145q-85 0 -141 -64h-35l30 383
q97 -28 199.5 -25.5t159.5 31.5v-49q-48 -53 -139 -71t-187 1z" />
    <glyph glyph-name="six.tnum" horiz-adv-x="574" 
d="M316 701q81 0 129 -38t48 -85q0 -33 -16 -52.5t-46 -19.5q-28 0 -45.5 18t-17.5 50l45 53q-28 35 -97 35q-54 0 -95 -54t-59 -125t-19 -141l8 -4q59 93 170 93q96 0 149.5 -55.5t53.5 -143.5q0 -114 -71.5 -179t-168.5 -65q-46 0 -87 17.5t-77 54.5t-57 102t-21 152
q0 162 80 274.5t194 112.5zM416 227q0 157 -115 157q-43 0 -87 -31.5t-71 -88.5q0 -118 34.5 -174.5t107.5 -56.5q131 0 131 194z" />
    <glyph glyph-name="seven.tnum" horiz-adv-x="574" 
d="M454 592l-10 10q-37 -24 -103 -24q-21 0 -63 8t-65 8q-47 0 -75.5 -35t-36.5 -98h-35l33 235h37l6 -22q42 27 83 27q34 0 84 -20.5t83 -20.5q69 0 136 46l30 -34q-66 -80 -104 -135.5t-73.5 -129.5t-50.5 -158t-15 -192q0 -13 -1.5 -21.5t-6.5 -19.5t-18 -17t-33 -6
q-69 0 -60 66q42 282 258 533z" />
    <glyph glyph-name="eight.tnum" horiz-adv-x="574" 
d="M375 374v-6q149 -50 149 -177q0 -62 -38.5 -110t-94.5 -70.5t-118 -22.5q-100 0 -162 45t-62 122q0 55 42 101t106 72v9q-62 26 -91.5 72t-29.5 98q0 81 64 137.5t158 56.5q90 0 144.5 -43t54.5 -111q0 -100 -122 -173zM410 538q0 51 -36 85.5t-92 34.5
q-57 0 -92.5 -33.5t-35.5 -79.5q0 -54 44.5 -93t125.5 -61q86 46 86 147zM437 167q0 104 -189 144q-52 -18 -84.5 -56t-31.5 -95q1 -61 43.5 -94t109.5 -33q63 0 107.5 35.5t44.5 98.5z" />
    <glyph glyph-name="nine.tnum" horiz-adv-x="574" 
d="M248 -12q-81 0 -128.5 33.5t-47.5 75.5q0 34 15.5 55.5t45.5 21.5q28 0 45.5 -20t17.5 -53l-45 -43q29 -31 97 -31q82 0 127 94.5t46 225.5l-8 4q-26 -43 -70.5 -68t-99.5 -25q-95 0 -149 61t-54 157q0 99 72.5 162t168.5 63q46 0 87 -17.5t77 -54.5t57 -102t21 -152
q0 -178 -78.5 -282.5t-196.5 -104.5zM148 471q0 -87 31.5 -126.5t84.5 -39.5q42 0 86.5 31.5t70.5 88.5q0 118 -34.5 175t-107.5 57q-66 0 -98.5 -51.5t-32.5 -134.5z" />
    <glyph glyph-name="exclamdown.case" horiz-adv-x="359" 
d="M121 97q1 7 8.5 62.5t12.5 96t10 109t5 130.5h44q0 -121 12.5 -232t26.5 -166q8 -41 -6.5 -73.5t-55.5 -32.5q-74 0 -57 106zM249 652q0 -29 -20 -49.5t-49 -20.5t-49.5 20.5t-20.5 49.5q0 28 20.5 48t49.5 20t49 -19.5t20 -48.5z" />
    <glyph glyph-name="questiondown.case" horiz-adv-x="510" 
d="M363 293l-12 -7q-61 28 -119 28q-55 0 -87.5 -36t-32.5 -93t45.5 -105t118.5 -48q43 0 62 21l-31 62q0 22 17 36.5t42 14.5t41 -16.5t16 -48.5q0 -48 -38.5 -79t-102.5 -31q-93 0 -162.5 62.5t-69.5 157.5q0 86 45.5 142t116.5 56q68 0 99 -23l3 109h44zM406 652
q0 -29 -20 -49.5t-49 -20.5t-49.5 20.5t-20.5 49.5q0 28 20.5 48t49.5 20t49 -19.5t20 -48.5z" />
    <glyph glyph-name="hyphen.case" horiz-adv-x="318" 
d="M32 362h254v-69h-254v69z" />
    <glyph glyph-name="endash.case" horiz-adv-x="488" 
d="M41 362h406v-69h-406v69z" />
    <glyph glyph-name="emdash.case" horiz-adv-x="1000" 
d="M86 357h828v-59h-828v59z" />
    <glyph glyph-name="guilsinglleft.case" horiz-adv-x="445" 
d="M105 330l182 219l33 -20l-118 -201v-15l118 -203l-33 -24l-182 221v23z" />
    <glyph glyph-name="guilsinglright.case" horiz-adv-x="445" 
d="M158 549l182 -219v-23l-182 -221l-33 24l118 203v15l-118 201z" />
    <glyph glyph-name="guillemotleft.case" horiz-adv-x="652" 
d="M105 330l182 219l33 -20l-118 -201v-15l118 -203l-33 -24l-182 221v23zM312 330l182 219l33 -20l-118 -201v-15l118 -203l-33 -24l-182 221v23z" />
    <glyph glyph-name="guillemotright.case" horiz-adv-x="652" 
d="M365 549l182 -219v-23l-182 -221l-33 24l118 203v15l-118 201zM158 549l182 -219v-23l-182 -221l-33 24l118 203v15l-118 201z" />
    <glyph glyph-name="zero.onum" horiz-adv-x="594" 
d="M544 266q0 -129 -73 -203.5t-181 -74.5q-103 0 -171.5 72t-68.5 206q0 108 73.5 188t174.5 80q105 0 175.5 -70t70.5 -198zM435 266q0 224 -138 224q-70 0 -104 -63.5t-34 -160.5q0 -106 32.5 -169.5t103.5 -63.5q69 0 104.5 61.5t35.5 171.5z" />
    <glyph glyph-name="one.onum" horiz-adv-x="481" 
d="M69 450v41q118 7 198 39h40v-416q0 -40 30.5 -57.5t101.5 -17.5v-39h-366v39q77 4 107.5 19t30.5 56v321z" />
    <glyph glyph-name="two.onum" horiz-adv-x="556" 
d="M198 100l4 -12h179q31 0 54.5 21t31.5 55h37l-28 -164h-408l-14 58q3 2 39.5 24.5t65.5 41t71.5 51t71 62t49.5 65.5t21 69q0 63 -34.5 91t-82.5 28q-78 0 -102 -65l47 -66q0 -30 -18 -47t-47 -17q-30 0 -46 22.5t-16 60.5q0 69 57 112.5t135 43.5q98 0 156 -43.5
t58 -120.5q0 -29 -15.5 -59t-36.5 -52.5t-55.5 -48.5t-59.5 -41.5t-62.5 -37.5t-51.5 -31z" />
    <glyph glyph-name="three.onum" horiz-adv-x="568" 
d="M325 212l4 -11q74 -8 127.5 -55t53.5 -129q0 -95 -81.5 -145.5t-192.5 -50.5q-84 0 -140 35t-56 99q0 37 16.5 59.5t44.5 22.5t44 -20.5t16 -55.5l-43 -66q32 -32 111 -32q33 0 61.5 7.5t55 24t41.5 49t15 77.5q0 65 -31.5 100t-80.5 36.5t-109 -16.5l-14 42
q112 42 163.5 90t51.5 114q0 105 -117 105q-73 0 -115 -40l47 -81q0 -25 -17 -42.5t-42 -17.5q-27 0 -44 22.5t-17 59.5q0 66 63.5 103.5t143.5 37.5q91 0 148.5 -40.5t57.5 -109.5q0 -54 -46.5 -98t-118.5 -74z" />
    <glyph glyph-name="four.onum" horiz-adv-x="585" 
d="M39 43l-10 25l364 466l35 -5v-441h107v-45h-107v-75q0 -63 27 -82t79 -19v-34h-311v34q57 0 84.5 19t27.5 75v82h-296zM108 93l2 -5h222v287l-8 4z" />
    <glyph glyph-name="five.onum" horiz-adv-x="574" 
d="M154 224l8 -5q72 45 150 45q82 0 143.5 -51.5t61.5 -145.5q0 -112 -80.5 -179t-201.5 -67q-68 0 -125 36t-57 98q0 34 18 56t48 22q27 0 43.5 -18.5t16.5 -48.5l-49 -71q32 -32 111 -32q82 0 124.5 57t42.5 140q0 145 -126 145q-85 0 -141 -64h-35l30 383
q97 -28 199.5 -25.5t159.5 31.5v-49q-48 -53 -139 -71t-187 1z" />
    <glyph glyph-name="six.onum" horiz-adv-x="606" 
d="M339 701q81 0 129 -38t48 -85q0 -33 -16 -52.5t-46 -19.5q-28 0 -45.5 18t-17.5 50l45 53q-28 35 -97 35q-54 0 -95 -54t-59 -125t-19 -141l8 -4q59 93 170 93q96 0 149.5 -55.5t53.5 -143.5q0 -114 -71.5 -179t-168.5 -65q-46 0 -87 17.5t-77 54.5t-57 102t-21 152
q0 162 80 274.5t194 112.5zM439 227q0 157 -115 157q-43 0 -87 -31.5t-71 -88.5q0 -118 34.5 -174.5t107.5 -56.5q131 0 131 194z" />
    <glyph glyph-name="seven.onum" horiz-adv-x="554" 
d="M445 425l-10 10q-37 -24 -103 -24q-21 0 -63 8t-65 8q-47 0 -75.5 -35t-36.5 -98h-35l33 235h37l6 -22q42 27 83 27q34 0 84 -20.5t83 -20.5q69 0 136 46l30 -34q-66 -80 -104 -135.5t-73.5 -129.5t-50.5 -158t-15 -192q0 -13 -1.5 -21.5t-6.5 -19.5t-18 -17t-33 -6
q-69 0 -60 66q42 282 258 533z" />
    <glyph glyph-name="eight.onum" horiz-adv-x="585" 
d="M381 374v-6q149 -50 149 -177q0 -62 -38.5 -110t-94.5 -70.5t-118 -22.5q-100 0 -162 45t-62 122q0 55 42 101t106 72v9q-62 26 -91.5 72t-29.5 98q0 81 64 137.5t158 56.5q90 0 144.5 -43t54.5 -111q0 -100 -122 -173zM416 538q0 51 -36 85.5t-92 34.5
q-57 0 -92.5 -33.5t-35.5 -79.5q0 -54 44.5 -93t125.5 -61q86 46 86 147zM443 167q0 104 -189 144q-52 -18 -84.5 -56t-31.5 -95q1 -61 43.5 -94t109.5 -33q63 0 107.5 35.5t44.5 98.5z" />
    <glyph glyph-name="nine.onum" horiz-adv-x="606" 
d="M266 -179q-81 0 -128.5 33.5t-47.5 75.5q0 34 15.5 55.5t45.5 21.5q28 0 45.5 -20t17.5 -53l-45 -43q29 -31 97 -31q82 0 127 94.5t46 225.5l-8 4q-26 -43 -70.5 -68t-99.5 -25q-95 0 -149 61t-54 157q0 99 72.5 162t168.5 63q46 0 87 -17.5t77 -54.5t57 -102t21 -152
q0 -178 -78.5 -282.5t-196.5 -104.5zM166 304q0 -87 31.5 -126.5t84.5 -39.5q42 0 86.5 31.5t70.5 88.5q0 118 -34.5 175t-107.5 57q-66 0 -98.5 -51.5t-32.5 -134.5z" />
    <glyph glyph-name="acute.case" horiz-adv-x="500" 
d="M190 488v8l86 129h94v-10l-129 -127h-51z" />
    <glyph glyph-name="grave.case" horiz-adv-x="500" 
d="M310 496v-8h-51l-129 127v10h94z" />
    <glyph glyph-name="circumflex.case" horiz-adv-x="500" 
d="M395 496v-8h-46l-99 69l-99 -69h-46v8l121 129h48z" />
    <glyph glyph-name="breve.case" horiz-adv-x="500" 
d="M250 488q-50 0 -85 33.5t-35 98.5h40q0 -30 22.5 -51.5t57.5 -21.5q32 0 56 21t24 52h40q0 -65 -35 -98.5t-85 -33.5z" />
    <glyph glyph-name="caron.case" horiz-adv-x="500" 
d="M395 625v-8l-121 -129h-48l-121 129v8h46l99 -69l99 69h46z" />
    <glyph glyph-name="hungarumlaut.case" horiz-adv-x="500" 
d="M275 488v8l86 129h94v-10l-139 -127h-41zM135 488v8l86 129h94v-10l-139 -127h-41z" />
    <glyph glyph-name="dollar.onum" horiz-adv-x="513" 
d="M135 53l-11 -40h-38l-6 173h34q28 -123 123 -143v196l-8 3q-78 25 -114.5 61t-36.5 94q0 62 45 100t108 38h6v73h43v-78q43 -10 90 -40l14 29h35l2 -152h-33q-37 105 -108 127v-185l22 -6q85 -23 120 -58t35 -92q0 -64 -47.5 -106.5t-121.5 -42.5h-8v-81h-43v85
q-62 11 -102 45zM394 127q0 30 -24.5 52.5t-89.5 45.5v-186h7q52 0 79.5 25.5t27.5 62.5zM144 417q0 -54 93 -92v176h-6q-41 0 -64 -26t-23 -58z" />
    <glyph glyph-name="cent.onum" horiz-adv-x="372" 
d="M317 226l31 -11q-15 -47 -49.5 -76t-83.5 -31v-76h-36v78q-62 8 -102 51.5t-40 120.5q0 68 40.5 117t101.5 60v74h36v-71q49 -2 84.5 -27.5t35.5 -61.5q0 -26 -12 -40t-32 -14q-22 0 -35 15t-12 37l20 30q-11 25 -49 27v-278h9q35 0 59.5 21.5t33.5 54.5zM116 291
q0 -106 63 -133v264q-63 -23 -63 -131z" />
    <glyph glyph-name="sterling.onum" horiz-adv-x="509" 
d="M65 303h68q-26 58 -26 93q0 69 50 106.5t116 37.5q69 0 109 -31t40 -62q0 -19 -12 -30.5t-27 -11.5q-13 0 -23 7.5t-15 15.5t-13 24q-8 17 -14 26.5t-18.5 18.5t-27.5 9q-31 0 -52 -23.5t-21 -70.5q0 -31 21 -81l11 -28h129v-39h-118q3 -15 3 -32q0 -79 -47 -129
q0 -1 3 -3.5t3 -3.5q22 13 43 13q30 0 77 -41q42 -33 63 -33q14 0 22.5 7t8.5 19q0 13 -16 24q-20 20 -20 34t9.5 24t25.5 10q22 0 35.5 -17t13.5 -49q0 -46 -33.5 -71.5t-77.5 -25.5q-57 0 -109.5 24t-76.5 51h-2q-45 -75 -91 -75q-11 0 -18.5 6t-7.5 16q0 25 29 45.5
t71 33.5q18 40 18 95q0 31 -18 78h-85v39z" />
    <glyph glyph-name="yen.onum" horiz-adv-x="525" 
d="M520 508v-33q-56 0 -93 -55l-102 -176h108v-40h-118v-39h118v-41h-118v-30q0 -41 15 -50.5t67 -9.5v-34h-246v34q56 0 67.5 9t11.5 51v30h-121v41h121v39h-121v40h107q-89 135 -109 168q-29 38 -47.5 50.5t-55.5 12.5v33h234v-33q-60 0 -60 -19q0 -9 12 -27l106 -160
q12 20 43.5 75t49.5 84q13 19 2.5 32.5t-43.5 14.5v33h172z" />
    <glyph glyph-name="Euro.onum" horiz-adv-x="555" 
d="M59 323h54q18 99 80.5 158t145.5 59q90 0 168 -54l-29 -108h-29q2 65 -33 93.5t-77 28.5q-51 0 -87.5 -45t-47.5 -132h263l-11 -40h-256v-29v-12h244l-11 -41h-230q10 -81 48.5 -125t85.5 -44q94 0 127 102l39 -11q-42 -133 -174 -133q-83 0 -143.5 55.5t-74.5 155.5h-62
l10 41h49v11q0 20 1 30h-60z" />
    <glyph glyph-name="numbersign.onum" horiz-adv-x="439" 
d="M74 409l83 -11l36 166l50 -6l-37 -166l77 -9l40 181l50 -6l-41 -182l90 -11l-6 -52l-95 12l-28 -124l78 -10l-6 -51l-83 10l-39 -178l-50 5l39 179l-76 10l-43 -194l-49 5l43 195l-89 11l6 52l94 -12l27 124l-77 10zM195 341l-28 -124l77 -10l27 124z" />
    <glyph glyph-name="percent.onum" horiz-adv-x="464" 
d="M247 439q-2 -63 -38.5 -103t-83.5 -40q-40 0 -65.5 27.5t-25.5 70.5q0 57 39 99.5t85 42.5q59 0 82 -54q12 -25 53 -25q38 0 68 22q18 52 48 52q21 0 21 -19q0 -12 -11.5 -26.5t-25.5 -22.5l-157 -218q-168 -243 -180 -261l-32 22l187 256l110 169q-20 -6 -34 -6
q-20 0 -40 14zM218 89q0 58 40 100t86 42q39 0 63.5 -24.5t24.5 -66.5q0 -66 -37 -107t-83 -41q-42 0 -68 27.5t-26 69.5zM357 193q-27 0 -49.5 -39.5t-22.5 -85.5q0 -20 9 -31t22 -11q27 0 50 30.5t23 90.5q0 46 -32 46zM173 497q-27 0 -51 -39t-24 -84q0 -44 34 -44
q27 0 49 31.5t22 90.5q0 21 -9 33t-21 12z" />
    <glyph glyph-name="perthousand.onum" horiz-adv-x="698" 
d="M249 439l-1 1q-1 -62 -37.5 -103t-84.5 -41q-40 0 -65.5 27.5t-25.5 70.5q0 57 39 99.5t85 42.5q59 0 82 -54q12 -25 53 -25q38 0 68 22q18 52 48 52q21 0 21 -19q0 -12 -11.5 -26.5t-25.5 -22.5l-157 -218q-168 -243 -180 -261l-32 22l187 256l110 169q-20 -6 -34 -6
q-22 0 -39 14zM219 89q0 58 40 100t86 42q39 0 63.5 -24.5t24.5 -66.5q0 -66 -37 -107t-83 -41q-42 0 -68 27.5t-26 69.5zM358 193q-27 0 -49.5 -39.5t-22.5 -85.5q0 -20 9 -31t22 -11q27 0 50 30.5t23 90.5q0 46 -32 46zM174 497q-27 0 -51 -39t-24 -84q0 -44 34 -44
q27 0 49 31.5t22 90.5q0 21 -9 33t-21 12zM452 89q0 58 39.5 100t84.5 42q40 0 64.5 -24.5t24.5 -66.5q0 -66 -37 -107t-83 -41q-41 0 -67 27.5t-26 69.5zM591 193q-27 0 -50 -39.5t-23 -85.5q0 -20 9 -31t22 -11q28 0 51 30.5t23 90.5q0 23 -9 34.5t-23 11.5z" />
    <glyph glyph-name="ordfeminine.onum" horiz-adv-x="355" 
d="M305 233l41 -4q0 -25 -17 -38t-37 -13q-56 0 -63 47q-52 -47 -107 -47q-45 0 -69.5 24t-24.5 64q0 23 8.5 39.5t27.5 27.5t35 16.5t44 13.5l77 22v49q0 33 -15.5 49.5t-37.5 16.5q-38 0 -54 -11q1 -11 4 -33t4 -32q-18 -13 -40 -13q-41 0 -41 35q0 38 37.5 62t103.5 24
q56 0 83.5 -27t27.5 -74v-183q0 -15 13 -15zM220 253v101q-13 -4 -35.5 -10.5t-31.5 -9.5q-51 -14 -51 -65q0 -24 12 -36.5t30 -12.5q41 0 76 33z" />
    <glyph glyph-name="ordmasculine.onum" horiz-adv-x="374" 
d="M24 354q0 78 47 128t116 50q68 0 115.5 -49.5t47.5 -128.5q0 -82 -46.5 -128.5t-116.5 -46.5t-116.5 47t-46.5 128zM103 355q0 -144 84 -144q40 0 61.5 28.5t21.5 115.5q0 83 -22 113.5t-61 30.5q-40 0 -62 -30t-22 -114z" />
    <glyph glyph-name="degree.onum" horiz-adv-x="367" 
d="M40 464q0 59 42 101.5t101 42.5t101.5 -42.5t42.5 -101.5t-42.5 -101t-101.5 -42t-101 42.5t-42 100.5zM100 464q0 -39 22.5 -65.5t59.5 -26.5t60.5 26.5t23.5 65.5t-23.5 66.5t-60.5 27.5t-59.5 -27.5t-22.5 -66.5z" />
    <glyph glyph-name="zero.numr" horiz-adv-x="331" 
d="M310 501q0 -92 -41.5 -142.5t-103.5 -50.5q-63 0 -103 47t-40 146q0 95 41 148t102 53q62 0 103.5 -52.5t41.5 -148.5zM231 501q0 93 -14 132.5t-52 39.5q-37 0 -50.5 -39t-13.5 -133q0 -93 12.5 -128.5t51.5 -35.5q40 0 53 35.5t13 128.5z" />
    <glyph glyph-name="one.numr" horiz-adv-x="270" 
d="M33 650v24q72 4 114 22h35v-316q0 -23 16.5 -32.5t55.5 -9.5v-23h-219v23q41 2 58 10.5t17 31.5v261z" />
    <glyph glyph-name="two.numr" horiz-adv-x="320" 
d="M107 374l2 -7h110q26 0 35 65h45l-17 -117h-259l-8 30l24 20q31 26 49 43t50.5 51t49 68.5t16.5 66.5q0 42 -18 60.5t-43 18.5q-42 0 -60 -42l34 -48q0 -19 -13.5 -31t-34.5 -12t-33.5 14.5t-12.5 37.5q0 49 37.5 79.5t88.5 30.5q61 0 98 -29t37 -80q0 -24 -12 -49
t-36.5 -51t-43 -43t-48.5 -42q-27 -22 -40 -35z" />
    <glyph glyph-name="three.numr" horiz-adv-x="312" 
d="M187 524l3 -5q42 -6 71 -31.5t29 -69.5q0 -53 -47.5 -81.5t-112.5 -28.5q-50 0 -83.5 20t-33.5 56q0 21 12 33.5t32 12.5q19 0 30.5 -11t11.5 -30l-26 -38q17 -15 53 -15t60 19t24 65q0 73 -58 73q-17 0 -61 -14l-9 29q62 23 89.5 49t27.5 63q0 54 -53 54q-33 0 -54 -18
l26 -46q0 -15 -12 -24.5t-30 -9.5q-19 0 -31 13t-12 34q0 37 37.5 58t85.5 21q54 0 88.5 -23t34.5 -61q0 -28 -26 -53t-66 -41z" />
    <glyph glyph-name="four.numr" horiz-adv-x="322" 
d="M14 430l-6 14l202 259l35 -5v-240h58v-28h-58v-39q0 -33 14.5 -43t43.5 -10v-23h-189v23q32 0 46.5 10t14.5 39v43h-161zM69 459l2 -1h103v139z" />
    <glyph glyph-name="five.numr" horiz-adv-x="316" 
d="M103 629q-1 -16 -4 -47t-4 -46q34 18 77 18q49 0 85 -28.5t36 -80.5q0 -62 -46.5 -99.5t-117.5 -37.5q-40 0 -74.5 20.5t-34.5 55.5q0 20 12.5 32t32.5 12t31.5 -10.5t11.5 -27.5l-27 -40q18 -14 52 -14q39 0 59.5 30.5t20.5 74.5q0 78 -58 78q-39 0 -70 -36h-36l16 217
q57 -18 111 -18q58 0 105 24v-34q-42 -46 -133 -46q-24 0 -45 3z" />
    <glyph glyph-name="six.numr" horiz-adv-x="333" 
d="M186 702q50 0 79 -21.5t29 -47.5q0 -42 -44 -42q-20 0 -32.5 10t-12.5 28l26 30q-19 17 -45 17q-35 0 -57.5 -48t-26.5 -107q33 33 87 33q57 0 89 -30.5t32 -79.5q0 -63 -41.5 -99.5t-98.5 -36.5q-59 0 -100.5 44.5t-41.5 136.5q0 89 46 151t112 62zM231 441q0 84 -52 84
q-19 0 -41 -17t-37 -48l1 1q0 -124 68 -124q61 0 61 104z" />
    <glyph glyph-name="seven.numr" horiz-adv-x="305" 
d="M94 349q22 144 140 290q-21 -8 -51 -8q-15 0 -35 4q-30 5 -35 5q-43 0 -51 -73h-39l19 132h39l1 -5q18 8 38 8q22 0 50 -12q24 -11 41 -11q30 0 76 31l23 -26q-71 -87 -101 -155.5t-30 -180.5q0 -10 -1.5 -16.5t-11.5 -13.5t-29 -7q-23 0 -34 9.5t-9 28.5z" />
    <glyph glyph-name="eight.numr" horiz-adv-x="322" 
d="M219 522v-4l-7 2q89 -30 89 -99q0 -51 -45.5 -82t-102.5 -31q-59 0 -95.5 25.5t-36.5 68.5q0 28 23 53.5t58 40.5v5l6 -2q-72 32 -72 95q0 45 37.5 76.5t93.5 31.5q53 0 86 -24.5t33 -61.5q0 -56 -72 -96zM218 611q0 27 -17 45t-43 18q-27 0 -43.5 -17.5t-16.5 -41.5
q0 -58 82 -81q38 21 38 77zM233 409q0 54 -92 75q-56 -21 -55 -79q1 -33 21 -50.5t53 -17.5q30 0 51.5 19t21.5 53z" />
    <glyph glyph-name="nine.numr" horiz-adv-x="333" 
d="M147 308q-49 0 -77 19t-28 43q0 20 11 32.5t31 12.5t32.5 -11t12.5 -29l-27 -26q15 -15 45 -15q37 0 59 45t24 110q-33 -33 -85 -33q-57 0 -89 34t-32 87q0 55 42.5 90t98.5 35q58 0 100 -44t42 -136q0 -98 -45.5 -156t-114.5 -58zM102 574q0 -88 54 -88q19 0 40.5 17
t35.5 47l-1 -1q0 124 -67 124q-62 0 -62 -99z" />
    <glyph glyph-name="zero.dnom" horiz-adv-x="331" 
d="M310 146q0 -92 -41.5 -142.5t-103.5 -50.5q-63 0 -103 47t-40 146q0 95 41 148t102 53q62 0 103.5 -52.5t41.5 -148.5zM231 146q0 93 -14 132.5t-52 39.5q-37 0 -50.5 -39t-13.5 -133q0 -93 12.5 -128.5t51.5 -35.5q40 0 53 36t13 128z" />
    <glyph glyph-name="one.dnom" horiz-adv-x="270" 
d="M33 295v24q72 4 114 22h35v-316q0 -23 16.5 -32.5t55.5 -9.5v-23h-219v23q41 2 58 10.5t17 31.5v261z" />
    <glyph glyph-name="two.dnom" horiz-adv-x="320" 
d="M107 19l2 -7h110q26 0 35 65h45l-17 -117h-259l-8 30l24 20q31 26 49 43t50.5 51t49 68.5t16.5 66.5q0 42 -18 60.5t-43 18.5q-42 0 -60 -42l34 -48q0 -19 -13.5 -31t-34.5 -12t-33.5 14.5t-12.5 37.5q0 49 37.5 79.5t88.5 30.5q61 0 98 -29t37 -80q0 -24 -12 -49
t-36.5 -51t-43 -43t-48.5 -42q-27 -22 -40 -35z" />
    <glyph glyph-name="three.dnom" horiz-adv-x="312" 
d="M187 169l3 -5q42 -6 71 -31.5t29 -69.5q0 -53 -47.5 -81.5t-112.5 -28.5q-50 0 -83.5 20t-33.5 56q0 21 12 33.5t32 12.5q19 0 30.5 -11t11.5 -30l-26 -38q17 -15 53 -15t60 19t24 65q0 73 -58 73q-17 0 -61 -14l-9 29q62 23 89.5 49t27.5 63q0 54 -53 54q-33 0 -54 -18
l26 -46q0 -15 -12 -24.5t-30 -9.5q-19 0 -31 13t-12 34q0 37 37.5 58t85.5 21q54 0 88.5 -23t34.5 -61q0 -28 -26 -53t-66 -41z" />
    <glyph glyph-name="four.dnom" horiz-adv-x="322" 
d="M14 75l-6 14l202 259l35 -5v-240h58v-28h-58v-39q0 -33 14.5 -43t43.5 -10v-23h-189v23q32 0 46.5 10t14.5 39v43h-161zM69 104l2 -1h103v139z" />
    <glyph glyph-name="five.dnom" horiz-adv-x="316" 
d="M103 274q-1 -16 -4 -47t-4 -46q34 18 77 18q49 0 85 -28.5t36 -80.5q0 -62 -46.5 -99.5t-117.5 -37.5q-40 0 -74.5 20.5t-34.5 55.5q0 20 12.5 32t32.5 12t31.5 -10.5t11.5 -27.5l-27 -40q17 -14 52 -14q39 0 59.5 30.5t20.5 74.5q0 78 -58 78q-39 0 -70 -36h-36l16 217
q57 -18 111 -18q58 0 105 24v-34q-42 -46 -133 -46q-24 0 -45 3z" />
    <glyph glyph-name="six.dnom" horiz-adv-x="333" 
d="M186 347q50 0 79 -21.5t29 -47.5q0 -42 -44 -42q-20 0 -32.5 10t-12.5 28l26 30q-19 17 -45 17q-35 0 -57.5 -48t-26.5 -107q33 33 87 33q57 0 89 -30.5t32 -79.5q0 -63 -41.5 -99.5t-98.5 -36.5q-59 0 -100.5 44.5t-41.5 136.5q0 89 46 151t112 62zM231 86q0 84 -52 84
q-19 0 -41 -17t-37 -48l1 1q0 -124 68 -124q61 0 61 104z" />
    <glyph glyph-name="seven.dnom" horiz-adv-x="305" 
d="M94 -6q22 144 140 290q-21 -8 -51 -8q-15 0 -35 4q-30 5 -35 5q-43 0 -51 -73h-39l19 132h39l1 -5q18 8 38 8q22 0 50 -12q24 -11 41 -11q30 0 76 31l23 -26q-71 -87 -101 -155.5t-30 -180.5q0 -10 -1.5 -16.5t-11.5 -13.5t-29 -7q-23 0 -34 9.5t-9 28.5z" />
    <glyph glyph-name="eight.dnom" horiz-adv-x="322" 
d="M219 167v-4l-7 2q89 -30 89 -99q0 -51 -45.5 -82t-102.5 -31q-59 0 -95.5 25.5t-36.5 68.5q0 28 23 53.5t58 40.5v5l6 -2q-72 32 -72 95q0 45 37.5 76.5t93.5 31.5q53 0 86 -24.5t33 -61.5q0 -56 -72 -96zM218 256q0 27 -17 45t-43 18q-27 0 -43.5 -17.5t-16.5 -41.5
q0 -58 82 -81q38 21 38 77zM233 54q0 54 -92 75q-56 -21 -55 -79q1 -33 21 -50.5t53 -17.5q30 0 51.5 19t21.5 53z" />
    <glyph glyph-name="nine.dnom" horiz-adv-x="333" 
d="M147 -47q-49 0 -77 19t-28 43q0 20 11 32.5t31 12.5t32.5 -11t12.5 -29l-27 -26q15 -15 45 -15q37 0 59 45t24 110q-33 -33 -85 -33q-57 0 -89 34t-32 87q0 55 42.5 90t98.5 35q58 0 100 -44t42 -136q0 -98 -45.5 -156t-114.5 -58zM102 219q0 -88 54 -88q19 0 40.5 17
t35.5 47l-1 -1q0 124 -67 124q-62 0 -62 -99z" />
    <glyph glyph-name="zero.subs" horiz-adv-x="331" 
d="M310 26q0 -92 -41.5 -142.5t-103.5 -50.5q-63 0 -103 47t-40 146q0 95 41 148t102 53q62 0 103.5 -52.5t41.5 -148.5zM231 26q0 93 -14 132.5t-52 39.5q-37 0 -50.5 -39t-13.5 -133q0 -93 12.5 -128.5t51.5 -35.5q40 0 53 36t13 128z" />
    <glyph glyph-name="one.subs" horiz-adv-x="270" 
d="M33 175v24q72 4 114 22h35v-316q0 -23 16.5 -32.5t55.5 -9.5v-23h-219v23q41 2 58 10.5t17 31.5v261z" />
    <glyph glyph-name="two.subs" horiz-adv-x="320" 
d="M107 -101l2 -7h110q26 0 35 65h45l-17 -117h-259l-8 30l24 20q31 26 49 43t50.5 51t49 68.5t16.5 66.5q0 42 -18 60.5t-43 18.5q-42 0 -60 -42l34 -48q0 -19 -13.5 -31t-34.5 -12t-33.5 14.5t-12.5 37.5q0 49 37.5 79.5t88.5 30.5q61 0 98 -29t37 -80q0 -24 -12 -49
t-36.5 -51t-43 -43t-48.5 -42q-27 -22 -40 -35z" />
    <glyph glyph-name="three.subs" horiz-adv-x="312" 
d="M187 49l3 -5q42 -6 71 -31.5t29 -69.5q0 -53 -47.5 -81.5t-112.5 -28.5q-50 0 -83.5 20t-33.5 56q0 21 12 33.5t32 12.5q19 0 30.5 -11t11.5 -30l-26 -38q17 -15 53 -15t60 19t24 65q0 73 -58 73q-17 0 -61 -14l-9 29q62 23 89.5 49t27.5 63q0 54 -53 54q-33 0 -54 -18
l26 -46q0 -15 -12 -24.5t-30 -9.5q-19 0 -31 13t-12 34q0 37 37.5 58t85.5 21q54 0 88.5 -23t34.5 -61q0 -28 -26 -53t-66 -41z" />
    <glyph glyph-name="four.subs" horiz-adv-x="322" 
d="M14 -45l-6 14l202 259l35 -5v-240h58v-28h-58v-39q0 -33 14.5 -43t43.5 -10v-23h-189v23q32 0 46.5 10t14.5 39v43h-161zM69 -16l2 -1h103v139z" />
    <glyph glyph-name="five.subs" horiz-adv-x="316" 
d="M103 154q-1 -16 -4 -47t-4 -46q34 18 77 18q49 0 85 -28.5t36 -80.5q0 -62 -46.5 -99.5t-117.5 -37.5q-40 0 -74.5 20.5t-34.5 55.5q0 20 12.5 32t32.5 12t31.5 -10.5t11.5 -27.5l-27 -40q17 -14 52 -14q39 0 59.5 30.5t20.5 74.5q0 78 -58 78q-39 0 -70 -36h-36l16 217
q57 -18 111 -18q58 0 105 24v-34q-42 -46 -133 -46q-24 0 -45 3z" />
    <glyph glyph-name="six.subs" horiz-adv-x="333" 
d="M186 227q50 0 79 -21.5t29 -47.5q0 -42 -44 -42q-20 0 -32.5 10t-12.5 28l26 30q-19 17 -45 17q-35 0 -57.5 -48t-26.5 -107q33 33 87 33q57 0 89 -30.5t32 -79.5q0 -63 -41.5 -99.5t-98.5 -36.5q-59 0 -100.5 44.5t-41.5 136.5q0 89 46 151t112 62zM231 -34q0 84 -52 84
q-19 0 -41 -17t-37 -48l1 1q0 -124 68 -124q61 0 61 104z" />
    <glyph glyph-name="seven.subs" horiz-adv-x="305" 
d="M94 -126q22 144 140 290q-21 -8 -51 -8q-15 0 -35 4q-30 5 -35 5q-43 0 -51 -73h-39l19 132h39l1 -5q18 8 38 8q22 0 50 -12q24 -11 41 -11q30 0 76 31l23 -26q-71 -87 -101 -155.5t-30 -180.5q0 -10 -1.5 -16.5t-11.5 -13.5t-29 -7q-23 0 -34 9.5t-9 28.5z" />
    <glyph glyph-name="eight.subs" horiz-adv-x="322" 
d="M219 47v-4l-7 2q89 -30 89 -99q0 -51 -45.5 -82t-102.5 -31q-59 0 -95.5 25.5t-36.5 68.5q0 28 23 53.5t58 40.5v5l6 -2q-72 32 -72 95q0 45 37.5 76.5t93.5 31.5q53 0 86 -24.5t33 -61.5q0 -56 -72 -96zM218 136q0 27 -17 45t-43 18q-27 0 -43.5 -17.5t-16.5 -41.5
q0 -58 82 -81q38 21 38 77zM233 -66q0 54 -92 75q-56 -21 -55 -79q1 -33 21 -50.5t53 -17.5q30 0 51.5 19t21.5 53z" />
    <glyph glyph-name="nine.subs" horiz-adv-x="333" 
d="M147 -167q-49 0 -77 19t-28 43q0 20 11 32.5t31 12.5t32.5 -11t12.5 -29l-27 -26q15 -15 45 -15q37 0 59 45t24 110q-33 -33 -85 -33q-57 0 -89 34t-32 87q0 55 42.5 90t98.5 35q58 0 100 -44t42 -136q0 -98 -45.5 -156t-114.5 -58zM102 99q0 -88 54 -88q19 0 40.5 17
t35.5 47l-1 -1q0 124 -67 124q-62 0 -62 -99z" />
    <glyph glyph-name="uni2011.case" horiz-adv-x="318" 
d="M32 362h254v-69h-254v69z" />
    <glyph glyph-name="zero.onum.tnum" horiz-adv-x="574" 
d="M529 266q0 -129 -72 -203.5t-177 -74.5q-101 0 -168 72t-67 206q0 108 72 188t171 80q102 0 171.5 -70t69.5 -198zM422 266q0 224 -135 224q-68 0 -101.5 -63.5t-33.5 -160.5q0 -106 31.5 -169.5t101.5 -63.5q68 0 102.5 61.5t34.5 171.5z" />
    <glyph glyph-name="one.onum.tnum" horiz-adv-x="574" 
d="M109 450v41q118 7 198 39h40v-416q0 -40 30.5 -57.5t101.5 -17.5v-39h-366v39q77 4 107.5 19t30.5 56v321z" />
    <glyph glyph-name="two.onum.tnum" horiz-adv-x="574" 
d="M194 100l4 -12h179q31 0 54.5 21t31.5 55h37l-28 -164h-408l-14 58q3 2 39.5 24.5t65.5 41t71.5 51t71 62t49.5 65.5t21 69q0 63 -34.5 91t-82.5 28q-78 0 -102 -65l47 -66q0 -30 -18 -47t-47 -17q-30 0 -46 22.5t-16 60.5q0 69 57 112.5t135 43.5q98 0 156 -43.5
t58 -120.5q0 -29 -15.5 -59t-36.5 -52.5t-55.5 -48.5t-59.5 -41.5t-62.5 -37.5t-51.5 -31z" />
    <glyph glyph-name="three.onum.tnum" horiz-adv-x="574" 
d="M327 213l4 -11q74 -8 127.5 -55t53.5 -129q0 -95 -81.5 -145.5t-192.5 -50.5q-84 0 -140 35t-56 99q0 37 16.5 59.5t44.5 22.5t44 -20.5t16 -55.5l-43 -66q32 -32 111 -32q33 0 61.5 7.5t55 24t41.5 49t15 77.5q0 65 -31.5 100t-80.5 36.5t-109 -16.5l-14 42
q112 42 163.5 90t51.5 114q0 105 -117 105q-73 0 -115 -40l47 -81q0 -25 -17 -42.5t-42 -17.5q-27 0 -44 22.5t-17 59.5q0 66 63.5 103.5t143.5 37.5q91 0 148.5 -40.5t57.5 -109.5q0 -54 -46.5 -98t-118.5 -74z" />
    <glyph glyph-name="four.onum.tnum" horiz-adv-x="574" 
d="M28 44l-10 25l364 466l35 -5v-441h107v-45h-107v-75q0 -63 27 -82t79 -19v-34h-311v34q57 0 84.5 19t27.5 75v82h-296zM97 94l2 -5h222v287l-8 4z" />
    <glyph glyph-name="five.onum.tnum" horiz-adv-x="574" 
d="M139 225l8 -5q72 45 150 45q82 0 143.5 -51.5t61.5 -145.5q0 -112 -80.5 -179t-201.5 -67q-68 0 -125 36t-57 98q0 34 18 56t48 22q27 0 43.5 -18.5t16.5 -48.5l-49 -71q32 -32 111 -32q82 0 124.5 57t42.5 140q0 145 -126 145q-85 0 -141 -64h-35l30 383
q97 -28 199.5 -25.5t159.5 31.5v-49q-48 -53 -139 -71t-187 1z" />
    <glyph glyph-name="six.onum.tnum" horiz-adv-x="574" 
d="M320 701q81 0 129 -38t48 -85q0 -33 -16 -52.5t-46 -19.5q-28 0 -45.5 18t-17.5 50l45 53q-28 35 -97 35q-54 0 -95 -54t-59 -125t-19 -141l8 -4q59 93 170 93q96 0 149.5 -55.5t53.5 -143.5q0 -114 -71.5 -179t-168.5 -65q-46 0 -87 17.5t-77 54.5t-57 102t-21 152
q0 162 80 274.5t194 112.5zM420 227q0 157 -115 157q-43 0 -87 -31.5t-71 -88.5q0 -118 34.5 -174.5t107.5 -56.5q131 0 131 194z" />
    <glyph glyph-name="seven.onum.tnum" horiz-adv-x="574" 
d="M459 426l-10 10q-37 -24 -103 -24q-21 0 -63 8t-65 8q-47 0 -75.5 -35t-36.5 -98h-35l33 235h37l6 -22q42 27 83 27q34 0 84 -20.5t83 -20.5q69 0 136 46l30 -34q-66 -80 -104 -135.5t-73.5 -129.5t-50.5 -158t-15 -192q0 -13 -1.5 -21.5t-6.5 -19.5t-18 -17t-33 -6
q-69 0 -60 66q42 282 258 533z" />
    <glyph glyph-name="eight.onum.tnum" horiz-adv-x="574" 
d="M375 374v-6q149 -50 149 -177q0 -62 -38.5 -110t-94.5 -70.5t-118 -22.5q-100 0 -162 45t-62 122q0 55 42 101t106 72v9q-62 26 -91.5 72t-29.5 98q0 81 64 137.5t158 56.5q90 0 144.5 -43t54.5 -111q0 -100 -122 -173zM410 538q0 51 -36 85.5t-92 34.5
q-57 0 -92.5 -33.5t-35.5 -79.5q0 -54 44.5 -93t125.5 -61q86 46 86 147zM437 167q0 104 -189 144q-52 -18 -84.5 -56t-31.5 -95q1 -61 43.5 -94t109.5 -33q63 0 107.5 35.5t44.5 98.5z" />
    <glyph glyph-name="nine.onum.tnum" horiz-adv-x="574" 
d="M253 -178q-81 0 -128.5 33.5t-47.5 75.5q0 34 15.5 55.5t45.5 21.5q28 0 45.5 -20t17.5 -53l-45 -43q29 -31 97 -31q82 0 127 94.5t46 225.5l-8 4q-26 -43 -70.5 -68t-99.5 -25q-95 0 -149 61t-54 157q0 99 72.5 162t168.5 63q46 0 87 -17.5t77 -54.5t57 -102t21 -152
q0 -178 -78.5 -282.5t-196.5 -104.5zM153 305q0 -87 31.5 -126.5t84.5 -39.5q42 0 86.5 31.5t70.5 88.5q0 118 -34.5 175t-107.5 57q-66 0 -98.5 -51.5t-32.5 -134.5z" />
    <glyph glyph-name="sidecaron.part" horiz-adv-x="500" 
d="M260 499v8l16 199h84v-10l-54 -197h-46z" />
    <glyph glyph-name="gcomma.part" horiz-adv-x="500" 
d="M298 544q0 -15 -12.5 -27t-33.5 -12q-29 0 -48.5 24t-19.5 60q0 69 87 118l20 -29q-48 -28 -48 -61q0 -19 27.5 -37.5t27.5 -35.5z" />
    <glyph glyph-name="Stroke.part" horiz-adv-x="430" 
d="M44 528h697v-46h-697v46z" />
    <glyph glyph-name="stroke.part" horiz-adv-x="430" 
d="M49 545h292v-50h-292v50z" />
    <glyph glyph-name="parenleft.case" horiz-adv-x="352" 
d="M326 -148l-29 -34q-241 220 -241 505q0 148 63 264t177 220l30 -39q-180 -183 -180 -445q0 -301 180 -471z" />
    <glyph glyph-name="parenright.case" horiz-adv-x="352" 
d="M55 -182l-29 34q180 170 180 471q0 262 -180 445l30 39q114 -104 177 -220t63 -264q0 -285 -241 -505z" />
    <glyph glyph-name="bracketleft.case" horiz-adv-x="335" 
d="M305 798v-48q-76 -15 -150 -5v-852q68 6 156 -6v-51q-40 6 -111.5 6.5t-122.5 -5.5v960q51 -5 123 -5t105 6z" />
    <glyph glyph-name="bracketright.case" horiz-adv-x="335" 
d="M30 750v48q33 -6 105 -6t123 5v-960q-51 6 -122.5 5.5t-111.5 -6.5v51q88 12 156 6v852q-74 -10 -150 5z" />
    <glyph glyph-name="braceleft.case" horiz-adv-x="435" 
d="M147 343v-16q63 -9 107 -51.5t44 -104.5q0 -27 -22.5 -95t-22.5 -108q0 -94 156 -94v-42q-137 0 -187.5 35t-50.5 111q0 37 21.5 103.5t21.5 97.5q0 59 -43.5 90t-114.5 31v66q67 0 112.5 35t45.5 82q0 35 -20.5 93.5t-20.5 91.5q0 71 51.5 100.5t178.5 29.5v-42
q-150 0 -150 -79q0 -39 22.5 -102t22.5 -87q0 -53 -43.5 -92.5t-107.5 -52.5z" />
    <glyph glyph-name="braceright.case" horiz-adv-x="435" 
d="M288 327v16q-64 13 -107.5 52.5t-43.5 92.5q0 24 22.5 87t22.5 102q0 79 -150 79v42q127 0 178.5 -29.5t51.5 -100.5q0 -33 -20.5 -91.5t-20.5 -93.5q0 -47 45.5 -82t112.5 -35v-66q-71 0 -114.5 -31t-43.5 -90q0 -31 21.5 -97.5t21.5 -103.5q0 -76 -50.5 -111
t-187.5 -35v42q156 0 156 94q0 40 -22.5 108t-22.5 95q0 62 44 104.5t107 51.5z" />
    <glyph glyph-name="dotaccent.case" horiz-adv-x="500" 
d="M185 564q0 27 18.5 46t45.5 19t46.5 -19t19.5 -46t-19.5 -45.5t-46.5 -18.5t-45.5 18.5t-18.5 45.5z" />
    <glyph glyph-name="idotaccent" horiz-adv-x="296" 
d="M200 54q0 -14 5 -14l63 -5v-35h-232v35l35 5q36 4 36 45v291q0 39 -17.5 49.5t-66.5 10.5v35l139 9h38v-426zM82 677q0 27 18 45.5t45 18.5t45.5 -18.5t18.5 -45.5q0 -25 -18.5 -43t-45.5 -18t-45 18t-18 43z" />
    <glyph glyph-name="acute.plk" horiz-adv-x="500" 
d="M220 498v8l36 164h89v-10l-79 -162h-46z" />
    <glyph glyph-name="acute.case.plk" horiz-adv-x="500" 
d="M223 488v8l36 129h89v-10l-79 -127h-46z" />
    <glyph glyph-name="Dotlessi" horiz-adv-x="379" 
d="M344 691v-39q-68 0 -85.5 -6.5t-17.5 -33.5v-528q0 -30 16.5 -37t86.5 -7v-40h-309v40q69 0 85.5 7t16.5 37v528q0 28 -17 34t-85 6v39h309z" />
    <glyph glyph-name="dotaccentlow" horiz-adv-x="500" 
d="M185 -126q0 27 18.5 46t45.5 19t46.5 -19t19.5 -46t-19.5 -45.5t-46.5 -18.5t-45.5 18.5t-18.5 45.5z" />
    <glyph glyph-name="acute.lchigh" horiz-adv-x="500" 
d="M190 468v8l86 129h94v-10l-129 -127h-51z" />
    <glyph glyph-name="hyphen.c2sc" horiz-adv-x="318" 
d="M32 272h254v-69h-254v69z" />
    <glyph glyph-name="endash.c2sc" horiz-adv-x="488" 
d="M41 272h406v-69h-406v69z" />
    <glyph glyph-name="emdash.c2sc" horiz-adv-x="1000" 
d="M86 267h828v-59h-828v59z" />
    <glyph glyph-name="Iacute_Jacute" horiz-adv-x="922" 
d="M344 691v-39q-68 0 -85.5 -6.5t-17.5 -33.5v-528q0 -30 16.5 -37t86.5 -7v-40h-309v40q69 0 85.5 7t16.5 37v528q0 28 -17 34t-85 6v39h309zM129 747v8l86 129h94v-10l-129 -127h-51zM904 691v-39q-65 0 -84 -14t-19 -73v-370q0 -62 -20.5 -105.5t-54 -64t-66 -29
t-67.5 -8.5q-76 0 -128.5 39t-52.5 116q0 41 21.5 68.5t52.5 27.5q67 0 67 -90l-82 -49q5 -33 35 -53t79 -20q59 0 86 38.5t27 123.5v375q0 60 -18.5 74t-83.5 14v39h308zM693 746v8l86 129h94v-10l-129 -127h-51z" />
    <glyph glyph-name="iacute_jacute" horiz-adv-x="602" 
d="M418 -114v495q-1 39 -18 49.5t-66 10.5v30l139 9h38v-515q0 -101 -40.5 -145.5t-105.5 -44.5q-48 0 -81.5 23.5t-33.5 57.5q0 33 15.5 50.5t38.5 17.5q21 0 37 -13l-6 -95q10 -10 27 -10q25 0 40.5 22t15.5 58zM200 54q0 -14 5 -14l63 -5v-35h-232v35l35 5q36 4 36 45
v291q0 39 -17.5 49.5t-66.5 10.5v35l139 9h38v-426zM93 540v8l86 164h94v-10l-129 -162h-51zM413 539v8l86 164h94v-10l-129 -162h-51z" />
    <glyph glyph-name="twosevenths" 
d="M148 -14l241 370l223 353l40 -26l-234 -349l-231 -375zM110 367l2 -7h110q26 0 35 65h45l-17 -117h-259l-8 30l24 20q31 26 49 43t50.5 51t49 68.5t16.5 66.5q0 42 -18 60.5t-43 18.5q-42 0 -60 -42l34 -48q0 -19 -13.5 -31t-34.5 -12t-33.5 14.5t-12.5 37.5
q0 49 37.5 79.5t88.5 30.5q61 0 98 -29t37 -80q0 -24 -12 -49t-36.5 -51t-43 -43t-48.5 -42q-27 -22 -40 -35zM530 24q22 144 140 290q-21 -8 -51 -8q-15 0 -35 4q-30 5 -35 5q-43 0 -51 -73h-39l19 132h39l1 -5q18 8 38 8q22 0 50 -12q24 -11 41 -11q30 0 76 31l23 -26
q-71 -87 -101 -155.5t-30 -180.5q0 -10 -1.5 -16.5t-11.5 -13.5t-29 -7q-23 0 -34 9.5t-9 28.5z" />
    <glyph glyph-name="twoninths" 
d="M148 -14l241 370l223 353l40 -26l-234 -349l-231 -375zM110 367l2 -7h110q26 0 35 65h45l-17 -117h-259l-8 30l24 20q31 26 49 43t50.5 51t49 68.5t16.5 66.5q0 42 -18 60.5t-43 18.5q-42 0 -60 -42l34 -48q0 -19 -13.5 -31t-34.5 -12t-33.5 14.5t-12.5 37.5
q0 49 37.5 79.5t88.5 30.5q61 0 98 -29t37 -80q0 -24 -12 -49t-36.5 -51t-43 -43t-48.5 -42q-27 -22 -40 -35zM583 -17q-49 0 -77 19t-28 43q0 20 11 32.5t31 12.5t32.5 -11t12.5 -29l-27 -26q15 -15 45 -15q37 0 59 45t24 110q-33 -33 -85 -33q-57 0 -89 34t-32 87
q0 55 42.5 90t98.5 35q58 0 100 -44t42 -136q0 -98 -45.5 -156t-114.5 -58zM538 249q0 -88 54 -88q19 0 40.5 17t35.5 47l-1 -1q0 124 -67 124q-62 0 -62 -99z" />
    <glyph glyph-name="threesevenths" 
d="M148 -14l241 370l223 353l40 -26l-234 -349l-231 -375zM218 517l3 -5q42 -6 71 -31.5t29 -69.5q0 -53 -47.5 -81.5t-112.5 -28.5q-50 0 -83.5 20t-33.5 56q0 21 12 33.5t32 12.5q19 0 30.5 -11t11.5 -30l-26 -38q17 -15 53 -15t60 19t24 65q0 73 -58 73q-17 0 -61 -14
l-9 29q62 23 89.5 49t27.5 63q0 54 -53 54q-33 0 -54 -18l26 -46q0 -15 -12 -24.5t-30 -9.5q-19 0 -31 13t-12 34q0 37 37.5 58t85.5 21q54 0 88.5 -23t34.5 -61q0 -28 -26 -53t-66 -41zM530 24q22 144 140 290q-21 -8 -51 -8q-15 0 -35 4q-30 5 -35 5q-43 0 -51 -73h-39
l19 132h39l1 -5q18 8 38 8q22 0 50 -12q24 -11 41 -11q30 0 76 31l23 -26q-71 -87 -101 -155.5t-30 -180.5q0 -10 -1.5 -16.5t-11.5 -13.5t-29 -7q-23 0 -34 9.5t-9 28.5z" />
    <glyph glyph-name="foursevenths" 
d="M148 -14l241 370l223 353l40 -26l-234 -349l-231 -375zM2 423l-6 14l202 259l35 -5v-240h58v-28h-58v-39q0 -33 14.5 -43t43.5 -10v-23h-189v23q32 0 46.5 10t14.5 39v43h-161zM57 452l2 -1h103v139zM530 24q22 144 140 290q-21 -8 -51 -8q-15 0 -35 4q-30 5 -35 5
q-43 0 -51 -73h-39l19 132h39l1 -5q18 8 38 8q22 0 50 -12q24 -11 41 -11q30 0 76 31l23 -26q-71 -87 -101 -155.5t-30 -180.5q0 -10 -1.5 -16.5t-11.5 -13.5t-29 -7q-23 0 -34 9.5t-9 28.5z" />
    <glyph glyph-name="fourninths" 
d="M148 -14l241 370l223 353l40 -26l-234 -349l-231 -375zM2 423l-6 14l202 259l35 -5v-240h58v-28h-58v-39q0 -33 14.5 -43t43.5 -10v-23h-189v23q32 0 46.5 10t14.5 39v43h-161zM57 452l2 -1h103v139zM583 -17q-49 0 -77 19t-28 43q0 20 11 32.5t31 12.5t32.5 -11
t12.5 -29l-27 -26q15 -15 45 -15q37 0 59 45t24 110q-33 -33 -85 -33q-57 0 -89 34t-32 87q0 55 42.5 90t98.5 35q58 0 100 -44t42 -136q0 -98 -45.5 -156t-114.5 -58zM538 249q0 -88 54 -88q19 0 40.5 17t35.5 47l-1 -1q0 124 -67 124q-62 0 -62 -99z" />
    <glyph glyph-name="fivesevenths" 
d="M148 -14l241 370l223 353l40 -26l-234 -349l-231 -375zM130 622q-1 -16 -4 -47t-4 -46q34 18 77 18q49 0 85 -28.5t36 -80.5q0 -62 -46.5 -99.5t-117.5 -37.5q-40 0 -74.5 20.5t-34.5 55.5q0 20 12.5 32t32.5 12t31.5 -10.5t11.5 -27.5l-27 -40q17 -14 52 -14
q39 0 59.5 30.5t20.5 74.5q0 78 -58 78q-39 0 -70 -36h-36l16 217q57 -18 111 -18q59 0 105 24v-34q-42 -46 -133 -46q-24 0 -45 3zM530 24q22 144 140 290q-21 -8 -51 -8q-15 0 -35 4q-30 5 -35 5q-43 0 -51 -73h-39l19 132h39l1 -5q18 8 38 8q22 0 50 -12q24 -11 41 -11
q30 0 76 31l23 -26q-71 -87 -101 -155.5t-30 -180.5q0 -10 -1.5 -16.5t-11.5 -13.5t-29 -7q-23 0 -34 9.5t-9 28.5z" />
    <glyph glyph-name="fiveninths" 
d="M148 -14l241 370l223 353l40 -26l-234 -349l-231 -375zM130 622q-1 -16 -4 -47t-4 -46q34 18 77 18q49 0 85 -28.5t36 -80.5q0 -62 -46.5 -99.5t-117.5 -37.5q-40 0 -74.5 20.5t-34.5 55.5q0 20 12.5 32t32.5 12t31.5 -10.5t11.5 -27.5l-27 -40q17 -14 52 -14
q39 0 59.5 30.5t20.5 74.5q0 78 -58 78q-39 0 -70 -36h-36l16 217q57 -18 111 -18q59 0 105 24v-34q-42 -46 -133 -46q-24 0 -45 3zM583 -17q-49 0 -77 19t-28 43q0 20 11 32.5t31 12.5t32.5 -11t12.5 -29l-27 -26q15 -15 45 -15q37 0 59 45t24 110q-33 -33 -85 -33
q-57 0 -89 34t-32 87q0 55 42.5 90t98.5 35q58 0 100 -44t42 -136q0 -98 -45.5 -156t-114.5 -58zM538 249q0 -88 54 -88q19 0 40.5 17t35.5 47l-1 -1q0 124 -67 124q-62 0 -62 -99z" />
    <glyph glyph-name="sixsevenths" 
d="M148 -14l241 370l223 353l40 -26l-234 -349l-231 -375zM183 695q50 0 79 -21.5t29 -47.5q0 -42 -44 -42q-20 0 -32.5 10t-12.5 28l26 30q-19 17 -45 17q-35 0 -57.5 -48t-26.5 -107q33 33 87 33q57 0 89 -30.5t32 -79.5q0 -63 -41.5 -99.5t-98.5 -36.5q-59 0 -100.5 44.5
t-41.5 136.5q0 89 46 151t112 62zM228 434q0 84 -52 84q-19 0 -41 -17t-37 -48l1 1q0 -124 68 -124q61 0 61 104zM530 24q22 144 140 290q-21 -8 -51 -8q-15 0 -35 4q-30 5 -35 5q-43 0 -51 -73h-39l19 132h39l1 -5q18 8 38 8q22 0 50 -12q24 -11 41 -11q30 0 76 31l23 -26
q-71 -87 -101 -155.5t-30 -180.5q0 -10 -1.5 -16.5t-11.5 -13.5t-29 -7q-23 0 -34 9.5t-9 28.5z" />
    <glyph glyph-name="sevenninths" 
d="M148 -14l241 370l223 353l40 -26l-234 -349l-231 -375zM139 342q22 144 140 290q-21 -8 -51 -8q-15 0 -35 4q-30 5 -35 5q-43 0 -51 -73h-39l19 132h39l1 -5q18 8 38 8q22 0 50 -12q24 -11 41 -11q30 0 76 31l23 -26q-71 -87 -101 -155.5t-30 -180.5q0 -10 -1.5 -16.5
t-11.5 -13.5t-29 -7q-23 0 -34 9.5t-9 28.5zM583 -17q-49 0 -77 19t-28 43q0 20 11 32.5t31 12.5t32.5 -11t12.5 -29l-27 -26q15 -15 45 -15q37 0 59 45t24 110q-33 -33 -85 -33q-57 0 -89 34t-32 87q0 55 42.5 90t98.5 35q58 0 100 -44t42 -136q0 -98 -45.5 -156
t-114.5 -58zM538 249q0 -88 54 -88q19 0 40.5 17t35.5 47l-1 -1q0 124 -67 124q-62 0 -62 -99z" />
    <glyph glyph-name="eightninths" 
d="M148 -14l241 370l223 353l40 -26l-234 -349l-231 -375zM240 515v-4l-7 2q89 -30 89 -99q0 -51 -45.5 -82t-102.5 -31q-59 0 -95.5 25.5t-36.5 68.5q0 28 23 53.5t58 40.5v5l6 -2q-72 32 -72 95q0 45 37.5 76.5t93.5 31.5q53 0 86 -24.5t33 -61.5q0 -56 -72 -96zM239 604
q0 27 -17 45t-43 18q-27 0 -43.5 -17.5t-16.5 -41.5q0 -58 82 -81q38 21 38 77zM254 402q0 54 -92 75q-56 -21 -55 -79q1 -33 21 -50.5t53 -17.5q31 0 52 19t21 53zM583 -17q-49 0 -77 19t-28 43q0 20 11 32.5t31 12.5t32.5 -11t12.5 -29l-27 -26q15 -15 45 -15q37 0 59 45
t24 110q-33 -33 -85 -33q-57 0 -89 34t-32 87q0 55 42.5 90t98.5 35q58 0 100 -44t42 -136q0 -98 -45.5 -156t-114.5 -58zM538 249q0 -88 54 -88q19 0 40.5 17t35.5 47l-1 -1q0 124 -67 124q-62 0 -62 -99z" />
    <glyph glyph-name="Cacute.plk" horiz-adv-x="684" 
d="M561 656l3 1l24 34h31l4 -261h-42q-7 41 -21.5 79t-37.5 72t-58.5 54.5t-79.5 20.5q-102 0 -158 -86t-56 -227q0 -309 219 -309q78 0 126 47t70 144h46l-23 -181q-38 -25 -98 -40.5t-123 -15.5q-152 0 -243 96.5t-91 260.5q0 147 101.5 251.5t233.5 104.5q54 0 101 -13.5
t72 -31.5zM358 747v8l36 129h89v-10l-79 -127h-46z" />
    <glyph glyph-name="Nacute.plk" horiz-adv-x="752" 
d="M174 553h-4v-461q0 -33 27 -42.5t92 -9.5v-40h-261v40q50 0 74 10t24 42v509q-42 51 -103 51v39h173l396 -508h4v420q0 49 -121 49v39h254v-39q-52 0 -71 -11.5t-19 -37.5v-613h-27zM356 747v8l36 129h89v-10l-79 -127h-46z" />
    <glyph glyph-name="Oacute.plk" horiz-adv-x="751" 
d="M698 345q0 -151 -95 -254t-227 -103q-137 0 -230 100t-93 257q0 158 92.5 257t230.5 99q133 0 227.5 -100.5t94.5 -255.5zM580 345q0 148 -47 229.5t-157 81.5q-112 0 -158.5 -79.5t-46.5 -231.5q0 -150 47.5 -230.5t157.5 -80.5q102 0 153 83t51 228zM349 747v8l36 129
h89v-10l-79 -127h-46z" />
    <glyph glyph-name="Sacute.plk" horiz-adv-x="586" 
d="M126 58l-2 -1l-14 -57h-44l-7 278h39q24 -127 76.5 -187t147.5 -60q69 0 105.5 33t36.5 80q0 36 -14 60.5t-62.5 52t-137.5 54.5q-99 30 -146 79t-47 129q0 82 57 132t137 50q94 0 180 -64l3 2l17 56h39l2 -258h-36q-31 116 -80.5 169t-123.5 53q-54 0 -85 -34t-31 -79
q0 -48 48 -85t157 -70t154 -83.5t45 -126.5q0 -83 -61 -138t-155 -55q-120 0 -198 70zM236 747v8l36 129h89v-10l-79 -127h-46z" />
    <glyph glyph-name="Zacute.plk" horiz-adv-x="636" 
d="M31 0v23l427 625l-3 4h-201q-64 0 -108.5 -63.5t-50.5 -147.5h-41l10 250h536v-21l-432 -624l2 -4h208q68 0 115.5 63t59.5 166h42l-19 -271h-545zM312 747v8l36 129h89v-10l-79 -127h-46z" />
    <glyph glyph-name="cacute.plk" horiz-adv-x="472" 
d="M408 152l36 -12q-20 -68 -67 -109t-115 -41q-96 0 -160.5 62t-64.5 183q0 110 66 182.5t159 72.5q67 0 116.5 -35.5t49.5 -88.5q0 -35 -15.5 -54t-40.5 -19q-29 0 -45 20t-15 49l27 44q-15 42 -70 42q-59 0 -95 -47t-36 -152q0 -107 40.5 -155.5t104.5 -48.5
q46 0 79 30.5t46 76.5zM227 543v8l36 164h89v-10l-79 -162h-46z" />
    <glyph glyph-name="nacute.plk" horiz-adv-x="555" 
d="M170 423h14q36 35 67 51t80 16q58 0 98.5 -37.5t40.5 -119.5v-286q0 -7 5 -7l63 -5v-35h-219v35l32 5q27 4 27 22v312q0 63 -71 63q-39 0 -65.5 -13.5t-57.5 -42.5v-335q0 -6 5 -6l63 -5v-35h-230v35l41 5q15 2 21.5 8.5t6.5 21.5v299q0 35 -16.5 51t-57.5 16v35l108 9
h41zM259 543v8l36 164h89v-10l-79 -162h-46z" />
    <glyph glyph-name="oacute.plk" horiz-adv-x="519" 
d="M37 239q0 111 64.5 181t158.5 70t158 -70t64 -181q0 -117 -63 -183t-159 -66t-159.5 66t-63.5 183zM138 240q0 -209 122 -209q27 0 46.5 7t37.5 27.5t27.5 64t9.5 110.5q0 120 -32.5 164.5t-88.5 44.5q-27 0 -47 -8t-38 -29.5t-27.5 -64.5t-9.5 -107zM231 543v8l36 164
h89v-10l-79 -162h-46z" />
    <glyph glyph-name="sacute.plk" horiz-adv-x="444" 
d="M62 -9v198h34q11 -79 52 -119.5t102 -40.5q41 0 66.5 20t25.5 55q0 40 -28.5 61.5t-122.5 44.5q-137 37 -137 153q0 53 41 90t107 37q79 0 125 -35l25 33h22v-180h-32q-31 141 -144 141q-39 0 -61.5 -16.5t-22.5 -44.5q0 -36 31 -59.5t120 -45.5q81 -21 112 -56.5
t31 -94.5q0 -61 -43 -101.5t-119 -40.5q-42 0 -80.5 12t-58.5 25l-20 -36h-25zM193 543v8l36 164h89v-10l-79 -162h-46z" />
    <glyph glyph-name="zacute.plk" horiz-adv-x="484" 
d="M159 47v-4h133q45 0 76 48t46 116h34l-14 -207h-401v18l283 416v7h-94q-106 0 -137 -156h-35l12 195h380v-17zM236 541v8l36 164h89v-10l-79 -162h-46z" />
    </font>
</defs>
</svg>
