<?xml version="1.0" standalone="no"?>
<!DOCTYPE svg PUBLIC "-//W3C//DTD SVG 1.1//EN" "http://www.w3.org/Graphics/SVG/1.1/DTD/svg11.dtd" >
<svg xmlns="http://www.w3.org/2000/svg" xmlns:xlink="http://www.w3.org/1999/xlink" version="1.1">
<metadata>
Created by FontForge 20170731 at Wed Mar 13 13:57:18 2019
 By Aleksey,,,
Copyright 2018-2019 Matthew Butterick
</metadata>
<defs>
<font id="CenturySupraC3" horiz-adv-x="850" >
  <font-face 
    font-family="Century Supra C3"
    font-weight="300"
    font-stretch="normal"
    units-per-em="1000"
    panose-1="0 0 0 0 0 0 0 0 0 0"
    ascent="762"
    descent="-238"
    x-height="510"
    cap-height="691"
    bbox="-74 -249 1047 936"
    underline-thickness="50"
    underline-position="-175"
    unicode-range="U+000D-FB02"
  />
<missing-glyph horiz-adv-x="544" 
d="M20 0v700h508v-700h-508zM71 41h406v618h-406v-618zM200 397l8 4q36 -18 79 -18q36 0 57.5 24.5t21.5 63.5q0 40 -30.5 74t-78.5 34q-28 0 -40 -14l14 -37q0 -14 -10 -22.5t-26 -8.5q-35 0 -35 39q0 30 25 50t66 20q63 0 109.5 -45t46.5 -114q0 -56 -30 -92t-77 -36
q-45 0 -65 15l-2 -88h-30zM172 141q0 20 13 33.5t33 13.5q18 0 31.5 -13.5t13.5 -33.5q0 -18 -13.5 -31t-31.5 -13q-19 0 -32.5 13t-13.5 31z" />
    <glyph glyph-name="uni2190" unicode="&#x3c;&#x2d;" horiz-adv-x="704" 
d="M75 268l239 267l59 -44l-169 -190h434v-75h-434l169 -189l-59 -45l-239 269v7z" />
    <glyph glyph-name="uni2192" unicode="&#x2d;&#x3e;" horiz-adv-x="704" 
d="M390 535l239 -267v-7l-239 -269l-59 45l168 189h-433v75h434l-169 190z" />
    <glyph glyph-name="fi" unicode="fi" horiz-adv-x="975" 
d="M488 332h-28q-22 144 -128 144h-98v-207h61q61 0 61 101h26v-234h-26q0 50 -13.5 73t-47.5 23h-61v-149q1 -31 18 -39.5t68 -8.5v-35h-253v35q53 0 65 7.5t12 40.5v339q0 35 -15 44.5t-62 9.5v34h416q1 -30 3 -89t2 -89zM890 510v-34q-51 0 -65.5 -4.5t-14.5 -21.5v-385
q0 -21 12 -25.5t68 -4.5v-35h-248v35q51 0 65 5.5t14 24.5v385q0 18 -13 22t-66 4v34h248z" />
    <glyph glyph-name="fl" unicode="fl" horiz-adv-x="1118" 
d="M488 332h-28q-22 144 -128 144h-98v-207h61q61 0 61 101h26v-234h-26q0 50 -13.5 73t-47.5 23h-61v-149q1 -31 18 -39.5t68 -8.5v-35h-253v35q53 0 65 7.5t12 40.5v339q0 35 -15 44.5t-62 9.5v34h416q1 -30 3 -89t2 -89zM1047 182l-10 -182h-413v35q46 0 62 5.5t16 24.5
v386q0 17 -13 21t-65 4v34h254v-34q-62 0 -74.5 -3.5t-12.5 -21.5v-416h102q55 0 86 39t32 108h36z" />
    <glyph glyph-name="uni2192.circle" unicode="&#x28;&#x2d;&#x3e;&#x29;" horiz-adv-x="884" 
d="M721 276l-242 270v1l-62 -47v-7l159 -179h-422v-96h422l-159 -179v-7l62 -48v1l242 272v19zM47 264q0 160 113.5 273t274.5 113q163 0 278 -113t115 -273q0 -158 -115 -271t-278 -113q-160 0 -274 113t-114 271z" />
    <glyph glyph-name="uni2190.circle" unicode="&#x28;&#x3c;&#x2d;&#x29;" horiz-adv-x="884" 
d="M405 546l-242 -270v-19l242 -272v-1l62 48v7l-159 179h422v96h-422l159 179v7l-62 47v-1zM837 264q0 -158 -114 -271t-274 -113q-163 0 -278 113t-115 271q0 160 115 273t278 113q161 0 274.5 -113t113.5 -273z" />
    <glyph glyph-name="uni2193.circle" unicode="&#x28;&#x2193;&#x29;" horiz-adv-x="884" 
d="M454 -24l270 242v7l-47 63v1l-187 -167v431h-86v-431l-187 167v-1l-48 -63v-7l272 -242v-1h13v1zM445 650q162 0 277 -112.5t115 -271.5q0 -160 -114.5 -273.5t-277.5 -113.5q-161 0 -275 113.5t-114 273.5q0 158 114.5 271t274.5 113z" />
    <glyph glyph-name="uni2191.circle" unicode="&#x28;&#x2191;&#x29;" horiz-adv-x="884" 
d="M724 311l-270 242v1h-13v-1l-272 -242v-7l48 -63v-1l187 167v-431h86v431l187 -167v1l47 63v7zM445 -121q-160 0 -274.5 113t-114.5 271q0 160 114 273.5t275 113.5q163 0 277.5 -113.5t114.5 -273.5q0 -159 -115 -271.5t-277 -112.5z" />
    <glyph glyph-name=".notdef" horiz-adv-x="544" 
d="M20 0v700h508v-700h-508zM71 41h406v618h-406v-618zM200 397l8 4q36 -18 79 -18q36 0 57.5 24.5t21.5 63.5q0 40 -30.5 74t-78.5 34q-28 0 -40 -14l14 -37q0 -14 -10 -22.5t-26 -8.5q-35 0 -35 39q0 30 25 50t66 20q63 0 109.5 -45t46.5 -114q0 -56 -30 -92t-77 -36
q-45 0 -65 15l-2 -88h-30zM172 141q0 20 13 33.5t33 13.5q18 0 31.5 -13.5t13.5 -33.5q0 -18 -13.5 -31t-31.5 -13q-19 0 -32.5 13t-13.5 31z" />
    <glyph glyph-name=".null" horiz-adv-x="0" 
 />
    <glyph glyph-name="nonmarkingreturn" horiz-adv-x="333" 
 />
    <glyph glyph-name="NULL" horiz-adv-x="0" 
 />
    <glyph glyph-name="NULL" horiz-adv-x="0" 
 />
    <glyph glyph-name="CR" unicode="&#xd;" horiz-adv-x="290" 
 />
    <glyph glyph-name="space" unicode=" " horiz-adv-x="290" 
 />
    <glyph glyph-name="exclam" unicode="!" horiz-adv-x="449" 
d="M279 616q-1 -7 -3 -22.5t-3 -21.5q-30 -216 -31 -355h-34q0 116 -12.5 227t-26.5 172q-7 40 6.5 72t50.5 32q56 0 56 -67q0 -19 -3 -37zM160 57q0 29 18.5 49t45.5 20t46.5 -20t19.5 -49q0 -28 -19.5 -47t-46.5 -19t-45.5 19t-18.5 47z" />
    <glyph glyph-name="quotedbl" unicode="&#x22;" horiz-adv-x="505" 
d="M145 421l-25 303h86l-25 -303h-36zM325 421l-25 303h86l-25 -303h-36z" />
    <glyph glyph-name="numbersign" unicode="#" horiz-adv-x="560" 
d="M117 508l95 -13q7 35 22.5 105.5t22.5 105.5q9 -1 23 -3.5t21 -3.5l-45 -210l105 -15l48 232l45 -7l-49 -231l106 -14l-7 -56l-110 15l-34 -167l92 -13l-7 -56l-97 14l-46 -225q-8 1 -22.5 2t-22.5 2l47 226l-105 15l-50 -245q-8 1 -22 2t-22 2l51 246l-106 16l7 56
l110 -15l34 166l-91 14zM245 434l-34 -166l105 -16l34 166z" />
    <glyph glyph-name="dollar" unicode="$" horiz-adv-x="646" 
d="M174 74l-16 -58h-29l-7 211h25q18 -80 56 -124.5t104 -58.5v258l-14 5q-86 31 -129.5 76.5t-43.5 114.5q0 77 50.5 124t121.5 47h15v92h35v-97q56 -14 117 -56q3 6 9.5 21t9.5 20h28q0 -32 1 -92t1 -91h-24q-43 131 -142 163v-244q7 -3 31 -9q95 -29 136.5 -73t41.5 -114
q0 -79 -54 -131.5t-138 -52.5h-17v-103h-35v107q-79 16 -133 65zM492 156q0 40 -32 70.5t-118 63.5v-250h15q65 0 100 34t35 82zM182 523q0 -73 125 -126v238h-14q-52 0 -81.5 -34t-29.5 -78z" />
    <glyph glyph-name="percent" unicode="%" horiz-adv-x="602" 
d="M322 578l-11 -2q-1 -81 -43.5 -134t-96.5 -53q-45 0 -74 35.5t-29 89.5q0 74 45 128t98 54q66 0 92 -68q6 -16 26 -26t45 -10q51 0 90 33q23 65 50 65q7 0 13 -5t6 -15q0 -14 -13.5 -31t-29.5 -28l-191 -291l-213 -336q-5 3 -9.5 7t-10 8.5t-8.5 6.5l224 332l142 232
l-11 2q-21 -12 -46 -12q-27 0 -45 18zM292 113q0 74 45.5 128.5t98.5 54.5q44 0 71.5 -31.5t27.5 -84.5q0 -86 -42.5 -138.5t-95.5 -52.5q-47 0 -76 35t-29 89zM452 254q-35 0 -65 -53.5t-30 -115.5q0 -29 12.5 -44.5t32.5 -15.5q36 0 66 42t30 122q0 31 -13 48t-33 17z
M228 655q-35 0 -65.5 -53t-30.5 -114q0 -63 48 -63q35 0 64.5 43t29.5 122q0 31 -13.5 48t-32.5 17z" />
    <glyph glyph-name="ampersand" unicode="&#x26;" horiz-adv-x="843" 
d="M524 567q0 -30 -10.5 -54t-34.5 -44t-43 -31t-55 -30l-33 -17q78 -151 193 -258q45 64 68 152q5 30 -22.5 41.5t-81.5 11.5v41h251v-41q-84 -3 -107 -67q-26 -94 -80 -163q61 -48 105 -48q35 0 47 15.5t12 53.5h26q0 -66 -25 -104t-71 -38q-63 0 -148 64
q-77 -64 -173 -64q-116 0 -174.5 55.5t-58.5 137.5q0 75 38.5 122t108.5 87q-41 90 -41 150q0 67 44.5 114.5t118.5 47.5q64 0 105 -38t41 -96zM482 75v4q-120 105 -206 267q-71 -61 -71 -146q0 -68 48.5 -112.5t116.5 -44.5q64 0 112 32zM294 558q0 -49 35 -130
q57 33 87.5 65t30.5 77q0 40 -19 68t-57 28q-33 0 -55 -29t-22 -79z" />
    <glyph glyph-name="quotesingle" unicode="'" horiz-adv-x="326" 
d="M145 421l-25 303h86l-25 -303h-36z" />
    <glyph glyph-name="parenleft" unicode="(" horiz-adv-x="442" 
d="M367 -211l-26 -30q-236 215 -236 504q0 149 61 263.5t174 217.5l26 -34q-181 -191 -181 -447q0 -137 47 -261.5t135 -212.5z" />
    <glyph glyph-name="parenright" unicode=")" horiz-adv-x="442" 
d="M102 -240l-27 29q88 88 135 212.5t47 261.5q0 256 -181 447l27 34q112 -103 173.5 -217.5t61.5 -263.5q0 -286 -236 -503z" />
    <glyph glyph-name="asterisk" unicode="*" horiz-adv-x="566" 
d="M304 546v-4q47 -24 121 -44q26 -5 26 -30q0 -16 -12 -30.5t-27 -14.5q-12 0 -22 12l-14 14q-44 49 -89 78q6 -64 26 -134q6 -19 -4 -30.5t-26 -11.5t-26.5 11.5t-6.5 31.5l6 26q15 61 18 106q-55 -34 -103 -91q-17 -14 -36.5 -1t-19.5 33q0 21 24 29h-1l14 4
q75 23 111 44q-60 25 -125 39q-22 3 -22 29q0 21 16.5 34t37.5 -3l15 -13v1q52 -50 90 -76q-10 70 -28 132q-6 20 5 32t28 12t27.5 -11.5t5.5 -33.5v1l-9 -33q-14 -51 -19 -98q51 33 105 88q12 13 23 13q13 0 22.5 -13.5t9.5 -29.5q0 -26 -22 -31l-28 -7q-62 -14 -91 -30z
" />
    <glyph glyph-name="plus" unicode="+" horiz-adv-x="620" 
d="M570 230h-230v-230h-60v230h-230v60h230v230h60v-230h230v-60z" />
    <glyph glyph-name="comma" unicode="," horiz-adv-x="383" 
d="M111 60q0 30 19.5 48t53.5 18q38 0 64.5 -32t26.5 -81q0 -126 -125 -212l-12.5 17.5t-9.5 12.5q114 75 98 181q-33 -19 -56 -19q-25 0 -42 17.5t-17 49.5z" />
    <glyph glyph-name="hyphen" unicode="-" horiz-adv-x="408" 
d="M81 280h246v-66h-246v66z" />
    <glyph glyph-name="period" unicode="." horiz-adv-x="369" 
d="M120 57q0 29 18.5 49t45.5 20t46 -20t19 -49q0 -27 -19.5 -46.5t-45.5 -19.5q-27 0 -45.5 19t-18.5 47z" />
    <glyph glyph-name="slash" unicode="/" horiz-adv-x="550" 
d="M458 734l-301 -857h-65q51 149 153 439t147 418h66z" />
    <glyph glyph-name="zero" unicode="0" horiz-adv-x="652" 
d="M570 336q0 -168 -70 -258t-175 -90q-107 0 -174.5 84t-67.5 264q0 173 69.5 269t172.5 96q105 0 175 -95t70 -270zM471 336q0 175 -31 250t-115 75q-81 0 -111.5 -74.5t-30.5 -250.5q0 -174 28 -240.5t114 -66.5q88 0 117 67.5t29 239.5z" />
    <glyph glyph-name="one" unicode="1" horiz-adv-x="541" 
d="M105 613v38q113 7 196 39h33v-577q0 -44 30 -63.5t103 -19.5v-30h-358v30q76 4 107 20.5t31 62.5v485z" />
    <glyph glyph-name="two" unicode="2" horiz-adv-x="632" 
d="M196 102l4 -18h226q33 0 56.5 33t31.5 87h35l-30 -204h-431l-15 48q3 3 38 31q44 37 71.5 61t78.5 75.5t81.5 93t55 96.5t24.5 103q0 80 -40 116.5t-96 36.5q-100 0 -132 -82l61 -87q-2 -33 -19.5 -55t-44.5 -22q-30 0 -46 24.5t-16 64.5q0 88 61.5 142.5t146.5 54.5
q103 0 164 -51.5t61 -142.5q0 -36 -17.5 -76t-38 -69.5t-62 -71.5t-63 -61t-68.5 -59q-42 -35 -77 -68z" />
    <glyph glyph-name="three" unicode="3" horiz-adv-x="618" 
d="M345 380l5 -14q75 -8 128.5 -54.5t53.5 -128.5q0 -95 -80 -145t-190 -50q-83 0 -138 34.5t-55 98.5q0 36 15.5 58t41.5 22t40.5 -19.5t14.5 -54.5l1 1l-44 -68q34 -34 116 -34q34 0 64 7.5t57 24.5t43 50t16 79q0 71 -36.5 105.5t-97.5 34.5q-40 0 -90 -15q-2 7 -6.5 19
t-6.5 18q112 42 164 91t52 115q0 108 -122 108q-76 0 -120 -42l47 -83l-1 1q0 -25 -15.5 -41.5t-38.5 -16.5q-25 0 -40.5 22t-15.5 58q0 66 62 103t141 37q89 0 145.5 -40t56.5 -109q0 -53 -47.5 -97.5t-119.5 -74.5z" />
    <glyph glyph-name="four" unicode="4" horiz-adv-x="635" 
d="M68 211l-10 24l364 466q6 -1 15 -3t13 -2v-444h107v-41h-107v-77q0 -63 27 -83t79 -21v-30h-303v30q59 0 86 19.5t27 77.5v84h-298zM128 260l2 -8h233v291l-15 8z" />
    <glyph glyph-name="five" unicode="5" horiz-adv-x="624" 
d="M174 391l13 -9q74 47 151 47q82 0 141.5 -51t59.5 -145q0 -111 -79.5 -178t-198.5 -67q-67 0 -123 35.5t-56 97.5q0 33 17 54.5t45 21.5q25 0 40 -18t15 -47l1 1l-50 -73q34 -34 117 -34q84 0 128.5 58t44.5 142q0 148 -132 148q-88 0 -145 -64h-27l30 379
q80 -24 178 -24q103 0 173 29v-44l1 1q-70 -79 -223 -79q-52 0 -106 10z" />
    <glyph glyph-name="six" unicode="6" horiz-adv-x="656" 
d="M364 701q80 0 126.5 -37.5t46.5 -84.5q0 -70 -57 -70q-24 0 -41 18.5t-18 47.5l46 54q-30 37 -103 37q-43 0 -78 -31.5t-56.5 -81t-33 -104.5t-11.5 -107l15 -8q61 95 169 95q94 0 146.5 -55t52.5 -143q0 -114 -70 -178.5t-166 -64.5q-46 0 -86.5 17.5t-75.5 54
t-55.5 102t-20.5 152.5q0 162 78.5 274.5t191.5 112.5zM470 226q0 160 -121 160q-46 0 -91.5 -31.5t-72.5 -89.5q0 -120 36 -178t112 -58q137 0 137 197z" />
    <glyph glyph-name="seven" unicode="7" horiz-adv-x="604" 
d="M476 593l-14 15q-40 -27 -105 -27q-19 0 -61 8t-68 8q-50 0 -79.5 -35t-37.5 -98h-25l33 232h27l7 -26q45 31 87 31q30 0 83 -21q50 -20 85 -20q71 0 136 44l26 -30q-61 -75 -100.5 -134t-75 -134t-52 -161.5t-16.5 -189.5q0 -17 -2 -28t-15 -22.5t-37 -11.5
q-64 0 -56 64q49 292 260 536z" />
    <glyph glyph-name="eight" unicode="8" horiz-adv-x="635" 
d="M402 375v-8q150 -50 150 -177q0 -92 -75.5 -147t-171.5 -55q-98 0 -159.5 44.5t-61.5 121.5q0 54 42.5 100.5t106.5 72.5v11q-62 26 -91.5 72.5t-29.5 97.5q0 81 62.5 137t155.5 56q89 0 142 -42.5t53 -110.5q0 -100 -123 -173zM448 539q0 53 -38 88t-96 35
q-60 0 -97 -34t-37 -82q0 -54 46.5 -94.5t130.5 -63.5q91 48 91 151zM475 166q0 105 -196 147q-54 -19 -88 -58t-33 -96q1 -62 45 -96t114 -34q66 0 112 36.5t46 100.5z" />
    <glyph glyph-name="nine" unicode="9" horiz-adv-x="656" 
d="M291 -12q-80 0 -126 33t-46 75q0 34 14.5 54.5t41.5 20.5q25 0 41.5 -19.5t16.5 -51.5l2 1l-47 -45q31 -33 103 -33q84 0 131 95.5t48 228.5l-15 8q-28 -44 -72 -69.5t-97 -25.5q-94 0 -146.5 60.5t-52.5 156.5q0 99 71.5 161.5t165.5 62.5q45 0 85.5 -17.5t75.5 -54
t56 -102t21 -152.5q0 -178 -77 -282.5t-194 -104.5zM185 472q0 -169 122 -169q44 0 90 32t73 89q0 120 -36 178.5t-112 58.5q-70 0 -103.5 -52t-33.5 -137z" />
    <glyph glyph-name="colon" unicode=":" horiz-adv-x="401" 
d="M136 377q0 29 18.5 49t45.5 20q26 0 46 -20.5t20 -48.5q0 -27 -19.5 -46.5t-46.5 -19.5t-45.5 19t-18.5 47zM136 57q0 29 18.5 49t45.5 20t46.5 -20t19.5 -49q0 -27 -19.5 -46.5t-46.5 -19.5t-45.5 19t-18.5 47z" />
    <glyph glyph-name="semicolon" unicode=";" horiz-adv-x="431" 
d="M144 377q0 29 18.5 49t45.5 20q26 0 46 -20.5t20 -48.5q0 -27 -19.5 -46.5t-46.5 -19.5t-45.5 19t-18.5 47zM135 60q0 30 19.5 48t53.5 18q38 0 64.5 -32t26.5 -81q0 -126 -125 -212l-12.5 17.5t-9.5 12.5q115 75 98 181q-33 -19 -56 -19q-25 0 -42 17.5t-17 49.5z" />
    <glyph glyph-name="less" unicode="&#x3c;" horiz-adv-x="594" 
d="M544 470l-428 -204l428 -204v-62l-494 235v62l494 235v-62z" />
    <glyph glyph-name="equal" unicode="=" horiz-adv-x="620" 
d="M570 310h-520v60h520v-60zM570 130h-520v60h520v-60z" />
    <glyph glyph-name="greater" unicode="&#x3e;" horiz-adv-x="594" 
d="M478 266l-428 204v62l494 -235v-62l-494 -235v62z" />
    <glyph glyph-name="question" unicode="?" horiz-adv-x="600" 
d="M196 417l8 4q58 -26 119 -26q58 0 92 37t34 95t-47.5 107t-122.5 49q-47 0 -68 -23l32 -64l-1 1q0 -21 -15.5 -35t-38.5 -14q-22 0 -37 16.5t-15 47.5q0 47 37.5 77.5t99.5 30.5q91 0 159.5 -62t68.5 -157q0 -86 -44.5 -141.5t-113.5 -55.5q-64 0 -105 29l-3 -116h-34
q-1 32 -3 100.5t-2 99.5zM153 57q0 29 18.5 49t45.5 20t46.5 -20t19.5 -49q0 -27 -19.5 -46.5t-46.5 -19.5t-45.5 19t-18.5 47z" />
    <glyph glyph-name="at" unicode="@" horiz-adv-x="906" 
d="M750 390q0 28 -5 57t-19.5 62.5t-36.5 59t-59.5 42.5t-85.5 17q-98 0 -184.5 -73.5t-136 -187.5t-49.5 -232q0 -120 45 -180t127 -60q87 0 166 60l18 -35q-44 -35 -96.5 -54.5t-96.5 -19.5q-112 0 -169.5 76t-57.5 214q0 124 58 246.5t160.5 204t218.5 81.5
q121 0 193 -76.5t72 -201.5q0 -68 -21.5 -127.5t-54.5 -99.5t-72.5 -69t-76 -42.5t-65.5 -13.5q-33 0 -33 40q0 32 23 86l-19 14q-27 -39 -48 -65t-55.5 -51.5t-64.5 -25.5q-27 0 -41.5 24t-14.5 56q0 79 58 183q46 76 106.5 128t112.5 52q24 0 37 -28h15q7 16 13.5 21.5
t23.5 5.5t22.5 -3t3.5 -10l-108 -331q-5 -20 -1 -28t18 -8q18 0 47 20t59.5 55t52 93t21.5 124zM339 149q0 -28 7.5 -37t21.5 -9q35 0 97 79.5t105 183.5q9 74 -34 74q-31 0 -71.5 -37t-71.5 -87q-54 -102 -54 -167z" />
    <glyph glyph-name="A" unicode="A" horiz-adv-x="770" 
d="M530 78l-47 127h-256l-43 -125q-8 -25 12.5 -34.5t83.5 -9.5v-36h-234v36q42 1 64.5 14.5t35.5 48.5l223 602h14l245 -609q14 -33 33.5 -44t62.5 -12v-36h-279v36h22q53 0 63 6.5t0 35.5zM359 531h-17l-100 -283h224z" />
    <glyph glyph-name="B" unicode="B" horiz-adv-x="727" 
d="M465 365v-7q177 -20 177 -176q0 -90 -64.5 -136t-161.5 -46h-348v36q62 0 82.5 14t20.5 68v448q0 63 -17 76.5t-86 13.5v35h324q92 0 147.5 -41t55.5 -121q0 -57 -33 -102t-97 -62zM497 526q0 130 -154 130h-77v-282h105q58 0 92 41t34 111zM540 186q0 77 -41.5 114
t-127.5 37h-105v-301h99q85 0 130 34t45 116z" />
    <glyph glyph-name="C" unicode="C" horiz-adv-x="746" 
d="M584 656l10 2q4 5 12 16.5t12 16.5h23l4 -258h-32q-16 92 -67 159.5t-137 67.5q-105 0 -162.5 -87t-57.5 -230q0 -313 225 -313q81 0 130.5 47.5t72.5 144.5h36q-3 -29 -11.5 -89.5t-11.5 -89.5q-39 -24 -98.5 -39.5t-119.5 -15.5q-151 0 -241 96.5t-90 260.5
q0 147 100.5 251.5t231.5 104.5q106 0 171 -45z" />
    <glyph glyph-name="D" unicode="D" horiz-adv-x="821" 
d="M740 345q0 -65 -21.5 -124.5t-63.5 -110t-114 -80.5t-164 -30h-309v36q37 1 54 2t30 5t16 10t3 19v551q0 23 -16 28t-87 5v35h307q80 0 144.5 -22t105 -57t67 -82t37.5 -92.5t11 -92.5zM631 344q0 67 -15 121.5t-47.5 98.5t-88.5 68t-133 24h-81v-620h109q55 0 99.5 18
t73 48t48 70.5t27.5 83t8 88.5z" />
    <glyph glyph-name="E" unicode="E" horiz-adv-x="741" 
d="M653 244l-13 -244h-572v36q67 0 85 5t18 26v556q0 22 -18 27.5t-85 5.5v35h542q2 -36 6 -107t5 -107h-30q-18 102 -49.5 140.5t-102.5 38.5h-173v-297h79q106 0 106 138h25v-310h-25q0 82 -22.5 107.5t-89.5 25.5h-73v-284h197q74 0 116.5 64t42.5 144h31z" />
    <glyph glyph-name="F" unicode="F" horiz-adv-x="667" 
d="M611 457h-30q-13 96 -54 147.5t-123 51.5h-138v-297h84q91 0 91 138h25v-310h-25q0 69 -20 101t-71 32h-84v-212q1 -46 23 -59t88 -13v-36h-309v36q71 0 87 11.5t16 61.5v466q0 52 -20.5 66.5t-82.5 14.5v35h536z" />
    <glyph glyph-name="G" unicode="G" horiz-adv-x="787" 
d="M652 226v-232h-17l-55 88q-67 -94 -187 -94q-58 0 -112 20.5t-99.5 61.5t-73 111.5t-27.5 160.5q0 162 93 260.5t220 98.5q113 0 185 -46h13l21 31h21l4 -239h-27q-21 84 -76.5 148.5t-136.5 64.5q-58 0 -99.5 -23t-65 -67t-34 -100.5t-10.5 -129.5q0 -147 57 -229
t158 -82q103 0 153 99v97q0 43 -17 53.5t-79 10.5v30h273v-30q-56 0 -68.5 -10t-13.5 -53z" />
    <glyph glyph-name="H" unicode="H" horiz-adv-x="869" 
d="M802 0h-302v36q68 3 86 10.5t18 40.5v247h-338v-247q0 -33 20 -42t82 -9v-36h-300v36q62 0 82.5 9t20.5 42v517q0 32 -24 42t-79 10v35h300v-35q-60 0 -81 -9t-21 -43v-227h338v227q0 34 -20.5 43t-83.5 9v35h302v-35q-66 0 -85.5 -9t-19.5 -43v-517q0 -34 18.5 -42.5
t86.5 -8.5v-36z" />
    <glyph glyph-name="I" unicode="I" horiz-adv-x="449" 
d="M375 691v-35q-66 0 -84.5 -7.5t-18.5 -34.5v-532q0 -32 15.5 -39t87.5 -7v-36h-301v36q67 0 85 8t18 38v532q0 29 -17 35.5t-86 6.5v35h301z" />
    <glyph glyph-name="J" unicode="J" horiz-adv-x="613" 
d="M557 691v-35q-63 0 -83 -15t-20 -75v-372q0 -61 -20 -104.5t-53.5 -64t-65 -29t-66.5 -8.5q-74 0 -125.5 38.5t-51.5 115.5q0 40 20.5 67t49.5 27q26 0 43.5 -22t18.5 -65l-82 -49q5 -36 36.5 -56.5t82.5 -20.5q62 0 90.5 39t28.5 126v377q0 61 -19 76t-84 15v35h300z
" />
    <glyph glyph-name="K" unicode="K" horiz-adv-x="790" 
d="M549 574l-153 -168l256 -317q23 -30 41 -41t52 -12v-36h-270v36q66 3 66 21q0 10 -15 30l-195 248l-65 -72v-149q0 -50 18.5 -64t80.5 -14v-36h-297v36q70 0 86.5 13t16.5 65v467q0 52 -19 63.5t-84 11.5v35h300v-35q-64 0 -83 -12.5t-19 -62.5v-253h12q38 42 116 128
t116 129h-1q22 21 22 36t-17 24.5t-44 9.5v36h248v-36q-97 -10 -169 -81z" />
    <glyph glyph-name="L" unicode="L" horiz-adv-x="666" 
d="M606 239l-14 -239h-524v36q61 0 82 8t21 38v533q0 27 -17.5 34t-85.5 7v35h311v-35q-80 0 -96.5 -6t-16.5 -34v-580h137q77 0 121 54t44 149h38z" />
    <glyph glyph-name="M" unicode="M" horiz-adv-x="954" 
d="M221 546h-15v-425q0 -38 28 -60.5t73 -24.5v-36h-239v36q43 2 73 25t30 58v492q-15 25 -38 35t-65 10v35h197l207 -518h14q34 85 106 259t107 259h186v-35q-65 -1 -84.5 -15t-19.5 -57v-459q0 -61 18 -75t82 -14v-36h-293v36q65 0 82.5 15t17.5 74v411h-14
q-24 -59 -104 -250.5t-121 -292.5h-10z" />
    <glyph glyph-name="N" unicode="N" horiz-adv-x="812" 
d="M205 556h-12v-465q0 -34 27.5 -44.5t92.5 -10.5v-36h-253v36q51 0 75 11t24 44v511q-23 27 -45 40t-59 14v35h166l399 -511h12v424q0 52 -122 52v35h245v-35q-51 -1 -70.5 -13t-19.5 -39v-614h-19z" />
    <glyph glyph-name="O" unicode="O" horiz-adv-x="801" 
d="M720 345q0 -151 -94.5 -254t-224.5 -103q-136 0 -228 100t-92 257q0 158 92 257t228 99q131 0 225 -100.5t94 -255.5zM612 345q0 98 -18.5 165t-67 108.5t-125.5 41.5q-115 0 -163 -80.5t-48 -234.5q0 -152 48.5 -233.5t162.5 -81.5q105 0 158 84t53 231z" />
    <glyph glyph-name="P" unicode="P" horiz-adv-x="674" 
d="M605 509q0 -98 -73 -146t-172 -48h-94v-190q0 -59 17 -74t91 -15v-36h-306v36q70 0 86.5 14.5t16.5 74.5v466q0 45 -18.5 55t-84.5 10v35h301q45 0 84 -8.5t74.5 -28t56.5 -57t21 -88.5zM266 656v-301h83q71 0 112.5 35.5t41.5 106.5q0 78 -43 118.5t-115 40.5h-79z" />
    <glyph glyph-name="Q" unicode="Q" horiz-adv-x="801" 
d="M720 345q0 -106 -46.5 -192t-122.5 -130q9 -93 28 -129.5t48 -36.5q58 0 58 123h26q-1 -83 -30.5 -129.5t-80.5 -46.5q-118 0 -135 188q-19 -4 -39 -4q-147 0 -246 100t-99 257q0 158 92 257t228 99q131 0 225 -100.5t94 -255.5zM614 345q0 315 -213 315
q-116 0 -165 -80.5t-49 -234.5q0 -222 129 -295q-21 39 -21 76q0 49 26.5 87t75.5 38q52 0 90 -43.5t56 -127.5q71 94 71 265zM395 220q-31 0 -45.5 -28.5t-14.5 -66.5q0 -46 25 -88q31 -7 66 -7q22 0 37 3v21q0 76 -17.5 121t-50.5 45z" />
    <glyph glyph-name="R" unicode="R" horiz-adv-x="743" 
d="M439 357v-10q72 -10 111.5 -51t50.5 -146q12 -75 33 -98.5t71 -24.5v-34q-120 1 -164 37t-44 128q0 103 -43 141.5t-127 38.5h-61v-251q0 -34 18.5 -42.5t87.5 -8.5v-36h-304v36q65 2 84 10.5t19 40.5v531q0 25 -18 31.5t-85 6.5v35h316q97 0 155.5 -40.5t58.5 -119.5
q0 -77 -46.5 -119.5t-112.5 -54.5zM502 526q0 69 -37 99.5t-114 30.5h-85v-281h94q142 0 142 151z" />
    <glyph glyph-name="S" unicode="S" horiz-adv-x="660" 
d="M173 57l-10 -1l-14 -56h-34l-7 276h29q24 -128 78 -188.5t152 -60.5q71 0 109.5 34t38.5 82q0 53 -45 92t-174 78q-190 59 -190 207q0 82 56 131.5t134 49.5q91 0 178 -64l11 2l17 56h29q0 -43 1 -127.5t1 -127.5h-26q-31 114 -83 168.5t-127 54.5q-57 0 -89.5 -35
t-32.5 -81q0 -48 49 -85.5t161 -72.5q108 -33 152 -82.5t44 -126.5q0 -83 -59.5 -137.5t-152.5 -54.5q-119 0 -196 69z" />
    <glyph glyph-name="T" unicode="T" horiz-adv-x="714" 
d="M648 443h-28q0 98 -40.5 155.5t-112.5 57.5h-62v-579q-1 -28 20.5 -34.5t82.5 -6.5v-36h-302v36q56 0 80 7.5t24 28.5v584h-45q-72 0 -120 -58t-48 -155h-31v248h582v-248z" />
    <glyph glyph-name="U" unicode="U" horiz-adv-x="806" 
d="M752 691v-35q-54 0 -75.5 -10.5t-21.5 -34.5v-330q0 -145 -57.5 -219t-194.5 -74q-254 0 -254 236v390q0 29 -14.5 35.5t-80.5 6.5v35h288v-35q-64 0 -81 -7t-17 -35v-390q0 -97 47.5 -146.5t125.5 -49.5q50 0 87 15t57.5 38t33 58.5t16 67.5t3.5 74v330q0 24 -26 34.5
t-92 10.5v35h256z" />
    <glyph glyph-name="V" unicode="V" horiz-adv-x="758" 
d="M408 155h14l151 388q10 24 10 48q0 65 -92 65v35h224v-35q-39 -2 -58.5 -27t-44.5 -86l-220 -559h-18l-232 594q-19 48 -35.5 62.5t-63.5 15.5v35h258v-35q-70 -1 -70 -33q0 -14 14 -47z" />
    <glyph glyph-name="W" unicode="W" horiz-adv-x="1027" 
d="M708 176h15l120 367q9 31 9 48q0 68 -93 65v35h226v-35q-41 -1 -62.5 -26t-42.5 -87q-18 -55 -185 -559h-17l-152 459q-28 -77 -88 -238t-82 -221h-15l-197 594q-18 46 -39.5 61.5t-62.5 16.5v35h261v-35q-39 1 -53.5 -7.5t-14.5 -28.5q0 -15 9 -44l129 -400h16l120 319
l-27 83q-17 50 -34 64t-67 14v35h260v-35q-39 0 -54 -6.5t-15 -22.5q0 -12 7 -38l5 -15z" />
    <glyph glyph-name="X" unicode="X" horiz-adv-x="766" 
d="M723 0h-307v37q74 1 74 32q0 18 -20 50l-113 178q-76 -104 -134 -178q-17 -20 -17 -39q0 -41 74 -44v-36h-237v36q35 2 69 23.5t53 50.5l171 223l-152 241q-27 45 -55 63t-76 19v35h293v-35q-69 -1 -69 -34q0 -17 18 -46l108 -175l118 169q26 34 26 52q0 33 -80 34v35
h246v-35q-83 -4 -130 -69l-158 -222l147 -234q36 -51 69.5 -72.5t81.5 -22.5v-36z" />
    <glyph glyph-name="Y" unicode="Y" horiz-adv-x="734" 
d="M691 691v-35q-70 -3 -118 -81l-146 -266v-184q0 -59 20 -74t84 -15v-36h-300v36q71 0 86.5 14t15.5 75v180l-159 260q-40 57 -61.5 73.5t-69.5 17.5v35h285v-35q-78 -2 -78 -31q0 -11 19 -41l140 -232l128 231q10 17 10 32q0 38 -61 41v35h205z" />
    <glyph glyph-name="Z" unicode="Z" horiz-adv-x="726" 
d="M79 0v21l-1 -1l431 630l-5 6h-205q-67 0 -113 -63.5t-52 -148.5h-31l10 247h529v-19l1 1l-436 -629l2 -6h214q71 0 120 63.5t62 167.5h32l-19 -269h-539z" />
    <glyph glyph-name="bracketleft" unicode="[" horiz-adv-x="425" 
d="M346 737v-44q-35 -7 -95 -7q-32 0 -56 4v-863q18 2 40 2q71 0 117 -6v-47q-42 6 -116 6q-59 0 -109 -5v959q52 -5 116 -5q67 0 103 6z" />
    <glyph glyph-name="backslash" unicode="\" horiz-adv-x="550" 
d="M392 -123l-300 857h65l301 -857h-66z" />
    <glyph glyph-name="bracketright" unicode="]" horiz-adv-x="425" 
d="M79 693v44q37 -6 103 -6q64 0 117 5v-959q-50 5 -110 5q-72 0 -116 -6v47q48 6 117 6q22 0 40 -2v863q-23 -4 -56 -4q-50 0 -95 7z" />
    <glyph glyph-name="asciicircum" unicode="^" horiz-adv-x="544" 
d="M289 691l220 -376l-57 -31l-173 302v3h-8v-2l-178 -303l-54 31l221 376h29z" />
    <glyph glyph-name="underscore" unicode="_" horiz-adv-x="604" 
d="M0 -195h604v-48h-604v48z" />
    <glyph glyph-name="grave" unicode="`" horiz-adv-x="500" 
d="M306 507v-6h-43l-129 162l1 -1v8h85l87 -164z" />
    <glyph glyph-name="a" unicode="a" horiz-adv-x="642" 
d="M430 59l-38 90h-187l-23 -56l-12 -31q-3 -15 13.5 -21t61.5 -6v-35h-197v35q67 2 83 43q29 72 88 220t88 220h18l192 -445q11 -25 24.5 -31.5t53.5 -6.5v-35h-231v35h25q32 0 39.5 4t1.5 20zM305 351h-20l-64 -163h153z" />
    <glyph glyph-name="b" unicode="b" horiz-adv-x="600" 
d="M489 389q0 -40 -23 -72.5t-68 -46.5l1 -4q125 -20 125 -130q0 -67 -52 -101.5t-129 -34.5h-274v35q46 0 61.5 9.5t15.5 45.5v325q0 43 -12.5 52t-64.5 9v34h256q73 0 118.5 -31t45.5 -90zM396 386q0 90 -110 90h-50v-196h72q41 0 64.5 28.5t23.5 77.5zM428 139
q0 106 -120 106h-72v-210h68q60 0 92 23.5t32 80.5z" />
    <glyph glyph-name="c" unicode="c" horiz-adv-x="618" 
d="M339 520q82 0 144 -49l18 41h20l4 -197h-31q-11 66 -52 116t-106 50q-76 0 -118.5 -63t-42.5 -165q0 -226 165 -226q121 0 162 139h30l-19 -134q-70 -44 -175 -44q-119 0 -190 72.5t-71 193.5q0 109 79.5 187.5t182.5 78.5z" />
    <glyph glyph-name="d" unicode="d" horiz-adv-x="674" 
d="M598 254q0 -102 -73 -178t-213 -76h-244v35q51 1 64 4.5t13 17.5v400q0 13 -12 16t-65 3v34h242q79 0 137.5 -24t90 -63.5t46 -82t14.5 -86.5zM498 254q0 100 -49.5 161t-159.5 61h-54v-441h75q97 0 142.5 64t45.5 155z" />
    <glyph glyph-name="e" unicode="e" horiz-adv-x="616" 
d="M528 186l-11 -186h-448v35q52 0 64.5 2.5t12.5 15.5v404q0 13 -13.5 16t-63.5 3v34h425l9 -164h-29q-13 73 -36 101.5t-72 28.5h-130v-207h57q73 0 73 101h26v-234h-26q0 58 -16 77t-62 19h-52v-197h147q53 0 83.5 46t30.5 105h31z" />
    <glyph glyph-name="f" unicode="f" horiz-adv-x="563" 
d="M490 332h-28q-22 144 -128 144h-98v-207h61q61 0 61 101h26v-234h-26q0 50 -13.5 73t-47.5 23h-61v-149q1 -31 18 -39.5t68 -8.5v-35h-253v35q53 0 65 7.5t12 40.5v339q0 35 -15 44.5t-62 9.5v34h416q1 -30 3 -89t2 -89z" />
    <glyph glyph-name="g" unicode="g" horiz-adv-x="652" 
d="M531 164v-172h-14l-50 66q-52 -70 -143 -70q-100 0 -174 65.5t-74 194.5q0 121 74.5 196.5t174.5 75.5q81 0 156 -56l16 45h20l3 -187h-26q-21 72 -62.5 115.5t-103.5 43.5q-154 0 -154 -233q0 -105 42.5 -163.5t116.5 -58.5q70 0 107 68v69q0 29 -11.5 35.5t-61.5 6.5
v32h227v-32q-44 0 -53.5 -6t-9.5 -35z" />
    <glyph glyph-name="h" unicode="h" horiz-adv-x="713" 
d="M645 0h-248v35q52 2 66 7t14 26v175h-242v-175q0 -21 15.5 -27t62.5 -6v-35h-245v35q46 0 61.5 6t15.5 27v374q0 21 -17.5 27.5t-59.5 6.5v34h245v-34q-46 0 -62 -5.5t-16 -28.5v-160h242v160q0 23 -14.5 28.5t-65.5 5.5v34h248v-34q-50 0 -65 -6t-15 -28v-374
q0 -21 15.5 -27t64.5 -6v-35z" />
    <glyph glyph-name="i" unicode="i" horiz-adv-x="422" 
d="M335 510v-34q-51 0 -65.5 -4.5t-14.5 -21.5v-385q0 -21 12 -25.5t68 -4.5v-35h-248v35q50 0 64 5.5t14 24.5v385q0 18 -12.5 22t-65.5 4v34h248z" />
    <glyph glyph-name="j" unicode="j" horiz-adv-x="511" 
d="M452 510v-34q-49 0 -64.5 -10.5t-15.5 -50.5v-273q0 -45 -16 -77.5t-43 -48t-52.5 -22t-52.5 -6.5q-61 0 -102.5 29t-41.5 88q0 31 17.5 51.5t44.5 20.5q23 0 38.5 -17t16.5 -51l-62 -36q10 -51 83 -51q42 0 61.5 27.5t19.5 88.5v276q0 41 -14.5 51.5t-63.5 10.5v34h247z
" />
    <glyph glyph-name="k" unicode="k" horiz-adv-x="650" 
d="M450 418l-114 -119q39 -47 193 -228q15 -20 30 -27.5t43 -8.5v-35h-224v35q18 1 26.5 2t15.5 4t6 8.5t-8 15.5l-143 173l-40 -42v-109q0 -34 14.5 -43t61.5 -9v-35h-243v35q52 0 64.5 8.5t12.5 43.5v339q0 34 -15 42t-62 8v34h245v-34q-47 0 -62 -9.5t-16 -40.5v-173
l174 180q16 20 5.5 31t-40.5 12v34h208v-33q-86 -10 -132 -59z" />
    <glyph glyph-name="l" unicode="l" horiz-adv-x="565" 
d="M492 182l-10 -182h-413v35q46 0 61.5 5.5t15.5 24.5v386q0 17 -12.5 21t-64.5 4v34h254v-34q-62 0 -74.5 -3.5t-12.5 -21.5v-416h102q55 0 86 39t32 108h36z" />
    <glyph glyph-name="m" unicode="m" horiz-adv-x="777" 
d="M539 367h-17l-149 -372h-15l-152 372h-16v-275q0 -26 20.5 -41t56.5 -16v-35h-199v35q32 2 54.5 17.5t22.5 38.5v356q-16 27 -77 29v34h164l154 -381q21 53 74.5 184.5t79.5 196.5h170v-34q-49 -1 -64.5 -10.5t-15.5 -37.5v-333q0 -41 14 -50.5t63 -9.5v-35h-242v35
q44 1 59.5 14t16.5 46z" />
    <glyph glyph-name="n" unicode="n" horiz-adv-x="689" 
d="M528 -7l-343 413v-336q0 -22 21.5 -28.5t70.5 -6.5v-35h-210v35q39 0 57 6.5t18 28.5v375q-31 30 -79 31v34h146l305 -368v300q0 34 -93 34v34h205v-34q-42 0 -56 -7.5t-14 -26.5v-449h-28z" />
    <glyph glyph-name="o" unicode="o" horiz-adv-x="657" 
d="M581 254q0 -111 -75 -188.5t-178 -77.5q-108 0 -180 75t-72 191q0 118 72 192t180 74q104 0 178.5 -75.5t74.5 -190.5zM481 254q0 227 -153 227q-83 0 -118 -58.5t-35 -168.5q0 -227 153 -227q76 0 114.5 61.5t38.5 165.5z" />
    <glyph glyph-name="p" unicode="p" horiz-adv-x="569" 
d="M496 369q0 -52 -30.5 -87.5t-73 -49t-92.5 -13.5h-64v-124q0 -40 13 -50t71 -10v-35h-251v35q52 0 64.5 10t12.5 50v339q0 29 -13.5 35.5t-63.5 6.5v34h238q36 0 67 -6.5t60 -22t45.5 -44t16.5 -68.5zM236 476v-220h55q50 0 80 26t30 78q0 56 -31 86t-82 30h-52z" />
    <glyph glyph-name="q" unicode="q" horiz-adv-x="657" 
d="M581 254q0 -76 -36 -139.5t-93 -97.5q12 -115 48 -115q47 0 47 89h28q0 -64 -25.5 -100t-68.5 -36q-91 0 -103 136q-18 -3 -30 -3q-116 0 -194 75t-78 191q0 118 72 192t180 74q104 0 178.5 -75.5t74.5 -190.5zM482 254q0 227 -154 227q-84 0 -120 -59t-36 -168
q0 -119 50 -177l7 1q-1 5 -1 15q0 44 25.5 80t71.5 36q82 0 117 -131q40 73 40 176zM324 177q-25 0 -36.5 -25.5t-11.5 -59.5q0 -27 17 -59q27 -6 55 -6q16 0 28 3v10q0 137 -52 137z" />
    <glyph glyph-name="r" unicode="r" horiz-adv-x="640" 
d="M390 267v-8q54 -11 86.5 -42t35.5 -98q2 -51 20 -69t59 -19v-33h-44q-61 0 -97 31t-36 95q0 72 -32.5 99t-93.5 27h-53v-182q0 -21 16 -27t66 -6v-35h-249v35q50 1 63.5 6t13.5 27v385q0 15 -13.5 19t-63.5 4v34h265q77 0 124.5 -30.5t47.5 -89.5q0 -51 -33 -81t-82 -42z
M414 386q0 48 -26.5 69t-80.5 21h-72v-191h79q100 0 100 101z" />
    <glyph glyph-name="s" unicode="s" horiz-adv-x="567" 
d="M152 34l-10 -37h-32q0 35 -2 104.5t-3 104.5h28q39 -181 178 -181q50 0 77.5 24t27.5 57q0 36 -30.5 59.5t-129.5 57.5q-82 27 -117 62t-35 94q0 64 45 102.5t108 38.5q72 0 145 -43q2 7 8.5 21.5t7.5 16.5h28q0 -33 1 -97t1 -97h-27q-25 80 -67.5 121.5t-95.5 41.5
q-39 0 -62 -20.5t-23 -55.5t33.5 -59.5t133.5 -59.5q76 -26 110 -63t34 -89q0 -64 -49.5 -106.5t-126.5 -42.5q-82 0 -156 46z" />
    <glyph glyph-name="t" unicode="t" horiz-adv-x="605" 
d="M539 322h-29q0 71 -28.5 112.5t-80.5 41.5h-52v-405q-1 -25 12 -30.5t45 -5.5h20v-35h-248v35h16q64 0 64 36v405h-41q-51 0 -85.5 -42.5t-34.5 -111.5h-30v188h472v-188z" />
    <glyph glyph-name="u" unicode="u" horiz-adv-x="677" 
d="M620 510v-34q-47 0 -63.5 -6.5t-16.5 -21.5v-244q0 -107 -45.5 -161.5t-155.5 -54.5q-208 0 -208 175v287q0 18 -11 22t-62 4v34h238v-34q-49 0 -62 -4.5t-13 -21.5v-287q0 -62 37 -92.5t104 -30.5q129 0 129 164v244q0 15 -20 21.5t-71 6.5v34h220z" />
    <glyph glyph-name="v" unicode="v" horiz-adv-x="628" 
d="M332 141h19l107 259q8 19 8 34q0 42 -70 42v34h190v-34q-30 -2 -49 -22.5t-34 -57.5q-28 -67 -87 -204t-87 -204h-27q-29 71 -89.5 217t-89.5 217q-12 32 -25.5 42.5t-54.5 11.5v34h216v-34q-51 -1 -51 -21q0 -11 8 -31z" />
    <glyph glyph-name="w" unicode="w" horiz-adv-x="833" 
d="M562 162h19l84 237q7 17 7 34q0 22 -16 32.5t-55 10.5v34h190v-34q-34 -1 -50 -18t-32 -62l-149 -408h-23l-116 321l-120 -321h-22l-156 434q-11 32 -28.5 42.5t-52.5 11.5v34h217v-34q-37 1 -47 -13t1 -39l94 -262h17l76 205l-19 55q-13 37 -25 45.5t-54 8.5v34h216v-34
q-39 1 -46.5 -10.5t2.5 -44.5z" />
    <glyph glyph-name="x" unicode="x" horiz-adv-x="633" 
d="M583 0h-245v35q59 1 59 21q0 11 -14 32l-85 123l-101 -123q-18 -24 -5 -37.5t50 -15.5v-35h-191v35q48 4 87 52l136 162l-115 169q-22 32 -43 44.5t-60 13.5v34h241v-34q-52 1 -52 -22q0 -11 12 -29l76 -115q72 98 82 111q19 24 19 35q0 19 -62 20v34h207v-34
q-66 -1 -101 -48l-120 -155l115 -171q42 -66 110 -67v-35z" />
    <glyph glyph-name="y" unicode="y" horiz-adv-x="609" 
d="M566 510v-34q-26 -1 -49 -16.5t-36 -39.5l-121 -202v-123q0 -40 15 -50t64 -10v-35h-246v35q54 0 65.5 9.5t11.5 50.5v115l-130 202q-26 38 -43.5 50.5t-53.5 13.5v34h235v-34q-45 -2 -56.5 -10.5t5.5 -34.5l111 -171l99 169q12 19 0.5 32.5t-45.5 14.5v34h174z" />
    <glyph glyph-name="z" unicode="z" horiz-adv-x="614" 
d="M199 46l3 -10h164q108 0 131 168h30q-2 -35 -7 -102.5t-7 -101.5h-429v20l-1 -1l326 448l-5 9h-154q-107 0 -117 -154h-31l7 188h422v-18l1 1z" />
    <glyph glyph-name="braceleft" unicode="{" horiz-adv-x="525" 
d="M186 284v-18q63 -10 107.5 -52t44.5 -104q0 -27 -20 -89q-25 -73 -25 -116q0 -93 157 -96v-38q-131 1 -180.5 35.5t-49.5 109.5q0 37 22 105q22 70 22 97q0 58 -44 89.5t-115 33.5v63q67 1 113 36.5t46 82.5q0 32 -22 96q-20 58 -20 91q0 70 50 99t172 29v-38
q-151 -2 -151 -81q0 -42 25 -111q20 -54 20 -80q0 -53 -44 -92t-108 -52z" />
    <glyph glyph-name="bar" unicode="|" horiz-adv-x="544" 
d="M241 -234v985h66v-985h-66z" />
    <glyph glyph-name="braceright" unicode="}" horiz-adv-x="525" 
d="M339 266v18q-64 13 -108 52t-44 92q0 26 20 80q25 69 25 111q0 81 -151 81v38q122 0 172 -29t50 -99q0 -33 -20 -91q-21 -61 -21 -96q0 -47 45.5 -82.5t112.5 -36.5v-63q-71 -2 -114.5 -33.5t-43.5 -89.5q0 -30 21 -97q22 -68 22 -105q0 -75 -49 -109.5t-181 -35.5v38
q157 3 157 96q0 43 -25 116q-20 60 -20 89q0 62 44.5 104t107.5 52z" />
    <glyph glyph-name="asciitilde" unicode="~" horiz-adv-x="544" 
d="M475 368l35 -13q-19 -59 -62 -104.5t-82 -45.5q-26 0 -106 38q-86 42 -107 42t-38 -21t-38 -63l-39 15q17 50 60.5 101t70.5 51q30 0 110 -39q76 -42 108 -42q24 0 50.5 26t37.5 55z" />
    <glyph glyph-name="uni00A0" unicode="&#xa0;" horiz-adv-x="290" 
 />
    <glyph glyph-name="exclamdown" unicode="&#xa1;" horiz-adv-x="449" 
d="M171 -113q1 7 3 22.5t3 21.5q29 208 30 355h34q0 -226 40 -399q7 -40 -6.5 -72t-51.5 -32q-55 0 -55 67q0 19 3 37zM290 446q0 -29 -18.5 -49t-46.5 -20q-27 0 -46 20t-19 49q0 28 19 47t46 19q28 0 46.5 -19t18.5 -47z" />
    <glyph glyph-name="cent" unicode="&#xa2;" horiz-adv-x="483" 
d="M403 276l22 -9q-17 -58 -57 -93.5t-97 -36.5v-97h-29v98q-74 10 -121 63.5t-47 150.5q0 86 48 147.5t120 74.5v92h29v-90q57 -2 99 -32.5t42 -75.5q0 -63 -45 -63q-23 0 -36 17.5t-12 42.5l-1 -1l25 41q-13 38 -72 38v-362h18q42 0 72 27t42 68zM154 364q0 -139 88 -177
v352q-88 -31 -88 -175z" />
    <glyph glyph-name="sterling" unicode="&#xa3;" horiz-adv-x="642" 
d="M106 376h80q-31 75 -31 121q0 86 56 132.5t131 46.5q79 0 123.5 -38t44.5 -76q0 -23 -11.5 -36t-26.5 -13q-12 0 -22.5 9t-16 19t-14.5 29q-10 23 -16.5 35t-23 24t-38.5 12q-39 0 -66 -31.5t-27 -92.5q0 -38 26 -106l13 -35h151v-42h-140q4 -26 4 -44q0 -110 -55 -163
l12 -18q28 20 53 20t43.5 -12.5t43.5 -37.5q18 -16 25 -22.5t22.5 -14t30.5 -7.5q19 0 31 10t12 28q0 15 -21 34q-20 20 -20 40q0 15 9 26t24 11q51 0 51 -77q0 -58 -36.5 -88.5t-86.5 -30.5q-68 0 -128.5 30t-87.5 64h-11q-50 -94 -102 -94q-24 0 -24 23q0 30 34.5 55.5
t83.5 41.5q20 51 20 123q0 43 -22 103h-97v42z" />
    <glyph glyph-name="currency" unicode="&#xa4;" horiz-adv-x="678" 
d="M117 271q0 68 41 126v7l-46 44q-11 12 -2 28.5t25.5 22t28.5 -2.5l46 -48q60 42 131 42q75 0 128 -39v1l44 46q13 9 30 1t28.5 -26.5t1.5 -28.5l-46 -43v-7q38 -57 38 -123q0 -68 -42 -129v-7l49 -47q11 -11 1.5 -28t-25.5 -23.5t-28 3.5v1l-51 50q-57 -39 -128 -39
q-70 0 -126 35l-42 -44v-1q-11 -12 -31.5 -4.5t-29.5 23.5t1 29l45 44v7q-41 56 -41 130zM183 270q0 -74 44 -121.5t115 -47.5q66 0 110.5 48t44.5 121q0 74 -44.5 121.5t-111.5 47.5q-73 0 -115.5 -48t-42.5 -121z" />
    <glyph glyph-name="yen" unicode="&#xa5;" horiz-adv-x="660" 
d="M627 635v-33q-66 -1 -108 -73l-125 -228h130v-43h-139v-59h139v-42h-139v-42q0 -55 18 -68.5t78 -13.5v-33h-275v33q66 0 80 12.5t14 69.5v42h-143v42h143v59h-143v43h130l-134 218q-36 52 -56 67t-64 16v33h261v-33q-72 -2 -72 -28q0 -14 17 -37l130 -214l117 213
q9 15 9 29q0 34 -56 37v33h188z" />
    <glyph glyph-name="brokenbar" unicode="&#xa6;" horiz-adv-x="544" 
d="M307 408h-66v343h66v-343zM241 109h66v-343h-66v343z" />
    <glyph glyph-name="section" unicode="&#xa7;" horiz-adv-x="589" 
d="M111 476q0 109 66.5 173t149.5 64q40 0 70.5 -19.5t30.5 -54.5q0 -19 -11.5 -30.5t-31.5 -11.5q-4 0 -8 1t-8 3t-6.5 3.5t-6.5 5.5t-6 5.5t-6.5 6.5t-5.5 6q-26 32 -58 32q-25 0 -40 -22t-15 -51q0 -27 18 -64t31.5 -56.5t53.5 -74.5q34 -45 54 -74t45.5 -74t38 -90
t12.5 -91q0 -72 -40.5 -127.5t-93 -81t-100.5 -25.5q-45 0 -80.5 21.5t-35.5 60.5q0 19 12.5 30.5t34.5 11.5t43 -30q8 -12 13.5 -18.5t19 -12.5t31.5 -6q24 0 41 17t17 46q0 41 -17.5 85t-35.5 72t-53 75q-29 40 -45.5 65t-37 64.5t-30.5 80.5t-10 85zM382 -41l12 -11
q40 46 40 116q0 47 -23 102.5t-46 91t-67 95.5q-52 70 -79 119.5t-25 91.5l-15 8q-27 -38 -27 -88q0 -47 20 -99.5t42 -86.5t61 -88q36 -51 56.5 -83.5t37.5 -80t13 -87.5z" />
    <glyph glyph-name="dieresis" unicode="&#xa8;" horiz-adv-x="500" 
d="M384 570q0 -19 -14.5 -34t-32.5 -15q-19 0 -33.5 15t-14.5 34q0 20 14.5 36t33.5 16q17 0 32 -16t15 -36zM212 570q0 -20 -14 -34.5t-33 -14.5t-33.5 15t-14.5 34q0 20 14.5 36t33.5 16t33 -15.5t14 -36.5z" />
    <glyph glyph-name="copyright" unicode="&#xa9;" horiz-adv-x="865" 
d="M93 327q0 138 100.5 238t239.5 100q144 0 241.5 -99t97.5 -239q0 -143 -99.5 -242t-239.5 -99q-142 0 -241 96.5t-99 244.5zM153 324q0 -122 79 -203.5t203 -81.5q123 0 199.5 81t76.5 204q0 125 -79 208t-199 83q-122 0 -201 -83.5t-79 -207.5zM442 183q45 0 70.5 19.5
t39.5 62.5h28v-82q-67 -43 -140 -43q-82 0 -137 50t-55 138q0 84 55 135t137 51q67 0 136 -37v-85h-30q-16 46 -42.5 64t-63.5 18q-51 0 -81.5 -35t-30.5 -110q0 -71 34.5 -108.5t79.5 -37.5z" />
    <glyph glyph-name="ordfeminine" unicode="&#xaa;" horiz-adv-x="514" 
d="M341 367l-29 68h-146l-16 -42l-9 -25q0 -18 59 -18v-30h-162v30q46 1 68 37q12 31 35 87t29 69q11 29 37 90.5t37 90.5h19l150 -339q11 -19 24 -26.5t41 -8.5v-30h-190v30h23q22 0 28 4t2 13zM237 602l-56 -133h115z" />
    <glyph glyph-name="guillemotleft" unicode="&#xab;" horiz-adv-x="672" 
d="M119 238l181 218l26 -17l-119 -203v-13l119 -204l-27 -20l-179 217v23zM327 238l181 218l26 -17l-119 -203v-13l119 -204l-27 -20l-179 217v23z" />
    <glyph glyph-name="logicalnot" unicode="&#xac;" horiz-adv-x="544" 
d="M432 53v200h-393v54h463v-254h-70z" />
    <glyph glyph-name="registered" unicode="&#xae;" horiz-adv-x="598" 
d="M85 503q0 88 63 151t151 63q91 0 152.5 -62.5t61.5 -151.5q0 -88 -63 -151t-151 -63q-89 0 -151.5 61t-62.5 153zM129 502q0 -76 48 -125.5t123 -49.5q70 0 119.5 50.5t49.5 124.5q0 77 -49 126.5t-121 49.5q-78 0 -124 -49.5t-46 -126.5zM332 508v-8q14 -6 38 -39.5
t37 -42.5l15 -7v-20h-55q-14 10 -41.5 52t-47.5 50h-13v-75l37 -7v-20h-114v20l27 7v183l-27 7v20h116q29 0 57 -14t28 -48q0 -20 -15.5 -36.5t-41.5 -21.5zM265 601v-82h26q23 0 34.5 13.5t11.5 31.5q0 37 -40 37h-32z" />
    <glyph glyph-name="macron" unicode="&#xaf;" horiz-adv-x="500" 
d="M373 523h-245v54h245v-54z" />
    <glyph glyph-name="degree" unicode="&#xb0;" horiz-adv-x="417" 
d="M65 564q0 59 42 101.5t101 42.5t101.5 -42.5t42.5 -101.5t-42.5 -101t-101.5 -42q-58 0 -100.5 42.5t-42.5 100.5zM125 564q0 -39 22.5 -65.5t59.5 -26.5t60.5 26.5t23.5 65.5t-23.5 66.5t-60.5 27.5t-59.5 -27.5t-22.5 -66.5z" />
    <glyph glyph-name="plusminus" unicode="&#xb1;" horiz-adv-x="620" 
d="M570 320h-230v-210h-60v210h-230v60h230v210h60v-210h230v-60zM570 0h-520v60h520v-60z" />
    <glyph glyph-name="two.sups" unicode="&#xb2;" horiz-adv-x="348" 
d="M117 473l1 -7h115q14 0 25 18t16 48h35q-3 -20 -9 -57.5t-8 -56.5h-251l-8 27l22 19q31 26 50.5 44t51.5 52t49 68.5t17 67.5q0 43 -19.5 63t-46.5 20q-21 0 -38.5 -13.5t-27.5 -32.5q6 -8 18.5 -24.5t17.5 -24.5l-1 1q0 -18 -12 -29t-32 -11q-41 0 -41 49
q0 48 36.5 78.5t85.5 30.5q59 0 95 -29t36 -79q0 -23 -12.5 -48t-36.5 -51.5t-42.5 -43t-47.5 -41.5q-27 -22 -44 -39h2q2 1 4 1z" />
    <glyph glyph-name="three.sups" unicode="&#xb3;" horiz-adv-x="340" 
d="M196 626l4 -7q41 -6 70 -31.5t29 -68.5q0 -53 -46 -80.5t-109 -27.5q-49 0 -81 19.5t-32 54.5q0 20 10 32.5t27 12.5q39 0 39 -41l1 1l-26 -39q23 -16 58 -16q37 0 63 19.5t26 66.5q0 75 -64 75q-19 0 -57 -12l-7 25q61 23 89 50t28 63q0 58 -58 58q-36 0 -59 -22l27 -47
l-1 1q0 -14 -10.5 -23t-26.5 -9q-17 0 -28 12.5t-11 32.5q0 37 36 57.5t83 20.5q52 0 85 -22.5t33 -60.5q0 -27 -26.5 -51.5t-65.5 -42.5z" />
    <glyph glyph-name="acute" unicode="&#xb4;" horiz-adv-x="500" 
d="M195 501v6l-1 -1l86 164h86v-8l1 1l-129 -162h-43z" />
    <glyph glyph-name="mu" unicode="&#xb5;" horiz-adv-x="544" 
d="M373 27l-8 6q-69 -45 -137 -45q-42 0 -73 26v-4q1 -13 3 -38.5t2 -38.5q6 -76 6 -94q0 -56 -48 -56q-40 0 -40 48q0 27 5 105q7 136 9 182v1q-1 7 -1 20v268q-11 1 -32.5 5t-32.5 6v29l158 18v-311q0 -60 21.5 -84t66.5 -24q57 0 95 40v321q-11 2 -32.5 6t-31.5 5v29
l157 18v-367q0 -49 21 -49t34 35l28 -10q-16 -44 -46 -63.5t-59 -19.5q-28 0 -39.5 6.5t-25.5 28.5v1z" />
    <glyph glyph-name="mu" unicode="&#x3bc;" horiz-adv-x="544" 
d="M373 27l-8 6q-69 -45 -137 -45q-42 0 -73 26v-4q1 -13 3 -38.5t2 -38.5q6 -76 6 -94q0 -56 -48 -56q-40 0 -40 48q0 27 5 105q7 136 9 182v1q-1 7 -1 20v268q-11 1 -32.5 5t-32.5 6v29l158 18v-311q0 -60 21.5 -84t66.5 -24q57 0 95 40v321q-11 2 -32.5 6t-31.5 5v29
l157 18v-367q0 -49 21 -49t34 35l28 -10q-16 -44 -46 -63.5t-59 -19.5q-28 0 -39.5 6.5t-25.5 28.5v1z" />
    <glyph glyph-name="paragraph" unicode="&#xb6;" horiz-adv-x="649" 
d="M568 706v-68h-58v-796h-50v796h-76v-796h-50v402q-128 0 -198 62t-70 170q0 105 68 167.5t175 62.5h259zM334 298v340q-61 0 -98 -45.5t-37 -119.5q0 -79 35.5 -127t99.5 -48z" />
    <glyph glyph-name="periodcentered" unicode="&#xb7;" horiz-adv-x="369" 
d="M120 266q0 29 18.5 48.5t45.5 19.5q26 0 45.5 -20t19.5 -48t-19 -47.5t-46 -19.5t-45.5 19.5t-18.5 47.5z" />
    <glyph glyph-name="cedilla" unicode="&#xb8;" horiz-adv-x="500" 
d="M206 -224l-6 21q87 18 87 63q0 22 -21.5 33t-55.5 11q-19 0 -27 -1l-3 4q8 15 27 52.5t29 56.5h37l-39 -70q48 0 77.5 -17.5t29.5 -53.5t-39 -63t-96 -36z" />
    <glyph glyph-name="one.sups" unicode="&#xb9;" horiz-adv-x="298" 
d="M51 753v22q68 5 111 23h28v-317q0 -23 17 -33t57 -11v-19h-211v19q41 2 58.5 11t17.5 33v264q-11 2 -39 4.5t-39 3.5z" />
    <glyph glyph-name="ordmasculine" unicode="&#xba;" horiz-adv-x="526" 
d="M467 518q0 -87 -60.5 -147t-143.5 -60q-86 0 -144.5 58.5t-58.5 148.5q0 92 58.5 150t144.5 58q84 0 144 -59t60 -149zM382 518q0 174 -119 174q-63 0 -90 -45t-27 -129q0 -174 117 -174q59 0 89 47t30 127z" />
    <glyph glyph-name="guillemotright" unicode="&#xbb;" horiz-adv-x="672" 
d="M373 456l180 -217v-23l-179 -217l-27 20l119 204v13l-119 203zM165 456l180 -217v-23l-179 -217l-27 20l119 204v13l-119 203z" />
    <glyph glyph-name="onequarter" unicode="&#xbc;" 
d="M426 107l-4 13l202 256l27 -4v-242h59v-23h-59v-43q0 -33 15 -43.5t43 -11.5v-18h-181v18q32 1 47 11.5t15 39.5v47h-164zM177 -15l241 370l223 351q5 -3 16.5 -11t16.5 -11l-234 -349q-39 -63 -115 -186.5t-115 -186.5q-30 21 -33 23zM103 644v22q66 3 110 22h28v-317
q0 -43 74 -44v-18h-210v18q40 2 57.5 11t17.5 33v265q-11 2 -38.5 4.5zM475 135l3 -5h110v153z" />
    <glyph glyph-name="onehalf" unicode="&#xbd;" 
d="M177 -15l241 370l223 351q5 -3 16.5 -11t16.5 -11l-234 -349q-39 -63 -115 -186.5t-115 -186.5q-30 21 -33 23zM103 644v22q66 3 110 22h28v-317q0 -43 74 -44v-18h-210v18q40 2 57.5 11t17.5 33v265q-11 2 -38.5 4.5zM554 45l1 -7h116q30 0 40 67h35q-3 -21 -9 -58.5
t-8 -55.5h-250l-8 26l22 19q32 27 50.5 44t51 52t49.5 69.5t17 67.5q0 43 -20 62.5t-47 19.5q-21 0 -38.5 -13t-27.5 -32q4 -6 17 -23.5t19 -26.5l-1 1q0 -18 -12 -29t-31 -11q-41 0 -41 50q0 48 36 78t85 30q60 0 95.5 -28.5t35.5 -78.5q0 -30 -25 -67.5t-49 -60.5t-65 -57
q-27 -22 -44 -39h2q2 1 4 1z" />
    <glyph glyph-name="threequarters" unicode="&#xbe;" 
d="M426 107l-4 13l202 256l27 -4v-242h59v-23h-59v-43q0 -33 15 -43.5t43 -11.5v-18h-181v18q32 1 47 11.5t15 39.5v47h-164zM225 516l4 -7q42 -6 70.5 -31t28.5 -69q0 -52 -46 -79.5t-109 -27.5q-49 0 -81 19t-32 54q0 21 10 33t28 12q38 0 38 -41l1 1l-25 -39
q21 -16 57 -16q37 0 63.5 19.5t26.5 66.5q0 39 -17.5 57.5t-47.5 18.5q-19 0 -57 -12l-7 24q61 23 89 50t28 64q0 57 -58 57q-37 0 -59 -21l27 -48l-1 1q0 -14 -10.5 -23t-26.5 -9q-17 0 -28 12.5t-11 33.5q0 36 36 56.5t83 20.5q52 0 85 -22t33 -60q0 -28 -26 -53t-66 -42z
M177 -15l241 370l223 351q5 -3 16.5 -11t16.5 -11l-234 -349q-39 -63 -115 -186.5t-115 -186.5q-30 21 -33 23zM475 135l3 -5h110v153z" />
    <glyph glyph-name="questiondown" unicode="&#xbf;" horiz-adv-x="600" 
d="M403 61l-8 -3q-59 26 -118 26q-58 0 -92 -36.5t-34 -94.5q0 -59 47 -107.5t123 -48.5q46 0 67 23l-32 63l1 -1q0 22 15.5 36t38.5 14t38 -16.5t15 -47.5q0 -47 -37.5 -77.5t-99.5 -30.5q-92 0 -160 62t-68 157q0 86 44.5 141.5t112.5 55.5q65 0 105 -29l3 116h34
q0 -32 2 -101t3 -101zM447 422q0 -28 -19 -48t-46 -20q-26 0 -45.5 20t-19.5 48t19 47.5t46 19.5t46 -19.5t19 -47.5z" />
    <glyph glyph-name="Agrave" unicode="&#xc0;" horiz-adv-x="770" 
d="M530 78l-47 127h-256l-43 -125q-8 -25 12.5 -34.5t83.5 -9.5v-36h-234v36q42 1 64.5 14.5t35.5 48.5l223 602h14l245 -609q14 -33 33.5 -44t62.5 -12v-36h-279v36h22q53 0 63 6.5t0 35.5zM359 531h-17l-100 -283h224zM434 757v-6h-45l-128 127l2 -1v8h86l86 -129z" />
    <glyph glyph-name="Aacute" unicode="&#xc1;" horiz-adv-x="770" 
d="M530 78l-47 127h-256l-43 -125q-8 -25 12.5 -34.5t83.5 -9.5v-36h-234v36q42 1 64.5 14.5t35.5 48.5l223 602h14l245 -609q14 -33 33.5 -44t62.5 -12v-36h-279v36h22q53 0 63 6.5t0 35.5zM359 531h-17l-100 -283h224zM323 751v6l-1 -1l85 129h87v-8l2 1l-129 -127h-44z
" />
    <glyph glyph-name="Acircumflex" unicode="&#xc2;" horiz-adv-x="770" 
d="M530 78l-47 127h-256l-43 -125q-8 -25 12.5 -34.5t83.5 -9.5v-36h-234v36q42 1 64.5 14.5t35.5 48.5l223 602h14l245 -609q14 -33 33.5 -44t62.5 -12v-36h-279v36h22q53 0 63 6.5t0 35.5zM359 531h-17l-100 -283h224zM519 757v-6h-38l-103 72l-102 -72h-39v6l-1 -1
l121 129h42z" />
    <glyph glyph-name="Atilde" unicode="&#xc3;" horiz-adv-x="770" 
d="M530 78l-47 127h-256l-43 -125q-8 -25 12.5 -34.5t83.5 -9.5v-36h-234v36q42 1 64.5 14.5t35.5 48.5l223 602h14l245 -609q14 -33 33.5 -44t62.5 -12v-36h-279v36h22q53 0 63 6.5t0 35.5zM359 531h-17l-100 -283h224zM511 906l17 -7q-14 -49 -41.5 -86t-51.5 -37
q-12 0 -62 31q-48 30 -66 30t-31.5 -15.5t-26.5 -45.5q-4 2 -10.5 4.5t-9.5 3.5q12 40 40.5 80.5t44.5 40.5q14 0 62 -31q46 -30 68 -30q18 0 38 20t29 42z" />
    <glyph glyph-name="Adieresis" unicode="&#xc4;" horiz-adv-x="770" 
d="M530 78l-47 127h-256l-43 -125q-8 -25 12.5 -34.5t83.5 -9.5v-36h-234v36q42 1 64.5 14.5t35.5 48.5l223 602h14l245 -609q14 -33 33.5 -44t62.5 -12v-36h-279v36h22q53 0 63 6.5t0 35.5zM359 531h-17l-100 -283h224zM512 831q0 -19 -14.5 -34t-32.5 -15q-19 0 -34 15
t-15 34q0 20 15 35.5t34 15.5q18 0 32.5 -15.5t14.5 -35.5zM340 831q0 -20 -14 -34.5t-33 -14.5t-34 15t-15 34q0 20 15 35.5t34 15.5t33 -15.5t14 -35.5z" />
    <glyph glyph-name="Aring" unicode="&#xc5;" horiz-adv-x="770" 
d="M530 78l-47 127h-256l-43 -125q-8 -25 12.5 -34.5t83.5 -9.5v-36h-234v36q42 1 64.5 14.5t35.5 48.5l223 602h14l245 -609q14 -33 33.5 -44t62.5 -12v-36h-279v36h22q53 0 63 6.5t0 35.5zM359 531h-17l-100 -283h224zM289 844q0 38 26 65t63 27t63.5 -27t26.5 -65
t-26.5 -65.5t-63.5 -27.5t-63 27.5t-26 65.5zM325 844q0 -23 14 -38t38 -15t39 15t15 38t-15 39t-39 16q-23 0 -37.5 -16t-14.5 -39z" />
    <glyph glyph-name="AE" unicode="&#xc6;" horiz-adv-x="1081" 
d="M994 244l-13 -244h-572v36q67 0 85 5t18 26v138h-250q-8 -13 -24.5 -38.5t-30 -47.5t-24.5 -39q-20 -33 40 -41q22 -3 55 -3v-36h-234v36q25 0 42.5 8t25.5 17t26 32q4 4 5 6l359 546q-17 11 -93 11v35h542q1 -36 5 -107t6 -107h-30q-18 102 -49.5 140.5t-102.5 38.5
h-173v-297h79q106 0 106 138h25v-310h-25q0 82 -22.5 107.5t-89.5 25.5h-73v-284h197q74 0 116.5 64t42.5 144h31zM498 579l-209 -331h223v331h-14z" />
    <glyph glyph-name="Ccedilla" unicode="&#xc7;" horiz-adv-x="746" 
d="M366 -216l-7 21q39 8 63.5 24.5t24.5 38.5t-21.5 33t-55.5 11q-19 0 -27 -1l-3 5l38 74q-137 12 -217 107t-80 248q0 147 100.5 251.5t231.5 104.5q106 0 171 -45l9 1q15 22 25 34h23l4 -258h-32q-16 92 -67 159.5t-137 67.5q-105 0 -162.5 -87t-57.5 -230
q0 -313 225 -313q81 0 130.5 47.5t72.5 144.5h36q-3 -29 -11.5 -89.5t-11.5 -89.5q-84 -53 -218 -55l-18 -34q48 0 77.5 -17.5t29.5 -53.5t-39 -63t-96 -36z" />
    <glyph glyph-name="Egrave" unicode="&#xc8;" horiz-adv-x="741" 
d="M653 244l-13 -244h-572v36q67 0 85 5t18 26v556q0 22 -18 27.5t-85 5.5v35h542q2 -36 6 -107t5 -107h-30q-18 102 -49.5 140.5t-102.5 38.5h-173v-297h79q106 0 106 138h25v-310h-25q0 82 -22.5 107.5t-89.5 25.5h-73v-284h197q74 0 116.5 64t42.5 144h31zM429 757v-6
h-44l-129 127l3 -1v8h86l86 -129z" />
    <glyph glyph-name="Eacute" unicode="&#xc9;" horiz-adv-x="741" 
d="M653 244l-13 -244h-572v36q67 0 85 5t18 26v556q0 22 -18 27.5t-85 5.5v35h542q2 -36 6 -107t5 -107h-30q-18 102 -49.5 140.5t-102.5 38.5h-173v-297h79q106 0 106 138h25v-310h-25q0 82 -22.5 107.5t-89.5 25.5h-73v-284h197q74 0 116.5 64t42.5 144h31zM319 751v6
l-1 -1l85 129h87v-8l2 1l-129 -127h-44z" />
    <glyph glyph-name="Ecircumflex" unicode="&#xca;" horiz-adv-x="741" 
d="M653 244l-13 -244h-572v36q67 0 85 5t18 26v556q0 22 -18 27.5t-85 5.5v35h542q2 -36 6 -107t5 -107h-30q-18 102 -49.5 140.5t-102.5 38.5h-173v-297h79q106 0 106 138h25v-310h-25q0 82 -22.5 107.5t-89.5 25.5h-73v-284h197q74 0 116.5 64t42.5 144h31zM515 757v-6
h-38l-103 72l-102 -72h-39v6l-1 -1l121 129h42z" />
    <glyph glyph-name="Edieresis" unicode="&#xcb;" horiz-adv-x="741" 
d="M653 244l-13 -244h-572v36q67 0 85 5t18 26v556q0 22 -18 27.5t-85 5.5v35h542q2 -36 6 -107t5 -107h-30q-18 102 -49.5 140.5t-102.5 38.5h-173v-297h79q106 0 106 138h25v-310h-25q0 82 -22.5 107.5t-89.5 25.5h-73v-284h197q74 0 116.5 64t42.5 144h31zM508 831
q0 -19 -14.5 -34t-32.5 -15q-19 0 -34 15t-15 34q0 20 15 35.5t34 15.5q18 0 32.5 -15.5t14.5 -35.5zM336 831q0 -20 -14 -34.5t-33 -14.5t-34 15t-15 34q0 20 15 35.5t34 15.5t33 -15.5t14 -35.5z" />
    <glyph glyph-name="Igrave" unicode="&#xcc;" horiz-adv-x="449" 
d="M375 691v-35q-66 0 -84.5 -7.5t-18.5 -34.5v-532q0 -32 15.5 -39t87.5 -7v-36h-301v36q67 0 85 8t18 38v532q0 29 -17 35.5t-86 6.5v35h301zM280 757v-6h-45l-128 127l2 -1v8h86l86 -129z" />
    <glyph glyph-name="Iacute" unicode="&#xcd;" horiz-adv-x="449" 
d="M375 691v-35q-66 0 -84.5 -7.5t-18.5 -34.5v-532q0 -32 15.5 -39t87.5 -7v-36h-301v36q67 0 85 8t18 38v532q0 29 -17 35.5t-86 6.5v35h301zM169 751v6l-1 -1l85 129h87v-8l2 1l-129 -127h-44z" />
    <glyph glyph-name="Icircumflex" unicode="&#xce;" horiz-adv-x="449" 
d="M375 691v-35q-66 0 -84.5 -7.5t-18.5 -34.5v-532q0 -32 15.5 -39t87.5 -7v-36h-301v36q67 0 85 8t18 38v532q0 29 -17 35.5t-86 6.5v35h301zM365 757v-6h-38l-103 72l-102 -72h-39v6l-1 -1l121 129h42z" />
    <glyph glyph-name="Idieresis" unicode="&#xcf;" horiz-adv-x="449" 
d="M375 691v-35q-66 0 -84.5 -7.5t-18.5 -34.5v-532q0 -32 15.5 -39t87.5 -7v-36h-301v36q67 0 85 8t18 38v532q0 29 -17 35.5t-86 6.5v35h301zM358 831q0 -19 -14.5 -34t-32.5 -15q-19 0 -33.5 15t-14.5 34q0 20 14.5 35.5t33.5 15.5q18 0 32.5 -15.5t14.5 -35.5zM186 831
q0 -20 -14 -34.5t-33 -14.5t-33.5 15t-14.5 34q0 20 14.5 35.5t33.5 15.5t33 -15.5t14 -35.5z" />
    <glyph glyph-name="Eth" unicode="&#xd0;" horiz-adv-x="821" 
d="M740 345q0 -65 -21.5 -124.5t-63.5 -110t-114 -80.5t-164 -30h-309v36q37 1 54 2t30 5t16 10t3 19v250h-83v51h83v250q0 23 -16 28t-87 5v35h307q80 0 144.5 -22t105 -57t67 -82t37.5 -92.5t11 -92.5zM631 344q0 67 -15 121.5t-47.5 98.5t-88.5 68t-133 24h-81v-283h206
v-51h-206v-286h109q55 0 99.5 18t73 48t48 70.5t27.5 83t8 88.5z" />
    <glyph glyph-name="Ntilde" unicode="&#xd1;" horiz-adv-x="812" 
d="M205 556h-12v-465q0 -34 27.5 -44.5t92.5 -10.5v-36h-253v36q51 0 75 11t24 44v511q-23 27 -45 40t-59 14v35h166l399 -511h12v424q0 52 -122 52v35h245v-35q-51 -1 -70.5 -13t-19.5 -39v-614h-19zM545 906l17 -7q-14 -49 -41.5 -86t-51.5 -37q-10 0 -62 31
q-48 30 -66 30q-31 0 -57 -61q-4 2 -11 4.5t-9 3.5q12 40 40 80.5t44 40.5q14 0 62 -31q48 -30 68 -30q18 0 38 20t29 42z" />
    <glyph glyph-name="Ograve" unicode="&#xd2;" horiz-adv-x="801" 
d="M720 345q0 -151 -94.5 -254t-224.5 -103q-136 0 -228 100t-92 257q0 158 92 257t228 99q131 0 225 -100.5t94 -255.5zM612 345q0 98 -18.5 165t-67 108.5t-125.5 41.5q-115 0 -163 -80.5t-48 -234.5q0 -152 48.5 -233.5t162.5 -81.5q105 0 158 84t53 231zM457 757v-6h-45
l-128 127l2 -1v8h86l86 -129z" />
    <glyph glyph-name="Oacute" unicode="&#xd3;" horiz-adv-x="801" 
d="M720 345q0 -151 -94.5 -254t-224.5 -103q-136 0 -228 100t-92 257q0 158 92 257t228 99q131 0 225 -100.5t94 -255.5zM612 345q0 98 -18.5 165t-67 108.5t-125.5 41.5q-115 0 -163 -80.5t-48 -234.5q0 -152 48.5 -233.5t162.5 -81.5q105 0 158 84t53 231zM346 751v6
l-1 -1l86 129h86v-8l2 1l-129 -127h-44z" />
    <glyph glyph-name="Ocircumflex" unicode="&#xd4;" horiz-adv-x="801" 
d="M720 345q0 -151 -94.5 -254t-224.5 -103q-136 0 -228 100t-92 257q0 158 92 257t228 99q131 0 225 -100.5t94 -255.5zM612 345q0 98 -18.5 165t-67 108.5t-125.5 41.5q-115 0 -163 -80.5t-48 -234.5q0 -152 48.5 -233.5t162.5 -81.5q105 0 158 84t53 231zM542 757v-6h-38
l-103 72l-102 -72h-38v6l-1 -1l120 129h42z" />
    <glyph glyph-name="Otilde" unicode="&#xd5;" horiz-adv-x="801" 
d="M720 345q0 -151 -94.5 -254t-224.5 -103q-136 0 -228 100t-92 257q0 158 92 257t228 99q131 0 225 -100.5t94 -255.5zM612 345q0 98 -18.5 165t-67 108.5t-125.5 41.5q-115 0 -163 -80.5t-48 -234.5q0 -152 48.5 -233.5t162.5 -81.5q105 0 158 84t53 231zM534 906l17 -7
q-14 -49 -41.5 -86t-51.5 -37q-12 0 -62 31q-48 30 -66 30q-31 0 -57 -61q-4 2 -11.5 4.5t-9.5 3.5q13 40 41 80.5t44 40.5q14 0 62 -31q46 -30 68 -30q18 0 38 20t29 42z" />
    <glyph glyph-name="Odieresis" unicode="&#xd6;" horiz-adv-x="801" 
d="M720 345q0 -151 -94.5 -254t-224.5 -103q-136 0 -228 100t-92 257q0 158 92 257t228 99q131 0 225 -100.5t94 -255.5zM612 345q0 98 -18.5 165t-67 108.5t-125.5 41.5q-115 0 -163 -80.5t-48 -234.5q0 -152 48.5 -233.5t162.5 -81.5q105 0 158 84t53 231zM535 831
q0 -19 -14.5 -34t-32.5 -15q-19 0 -33.5 15t-14.5 34q0 20 14.5 35.5t33.5 15.5q18 0 32.5 -15.5t14.5 -35.5zM363 831q0 -20 -14 -34.5t-33 -14.5t-33.5 15t-14.5 34q0 20 14.5 35.5t33.5 15.5t33 -15.5t14 -35.5z" />
    <glyph glyph-name="multiply" unicode="&#xd7;" horiz-adv-x="620" 
d="M493 35l-183 183l-183 -183l-42 42l183 183l-183 183l42 42l183 -183l183 183l42 -42l-183 -183l183 -183z" />
    <glyph glyph-name="Oslash" unicode="&#xd8;" horiz-adv-x="801" 
d="M720 345q0 -151 -94.5 -254t-224.5 -103q-102 0 -190 65q-12 -16 -38 -53t-38 -53h-53l98 133q-99 104 -99 265q0 158 92 257t228 99q95 0 181 -61l67 92h52l-86 -119q105 -105 105 -268zM612 345q0 126 -37 212l-330 -455q55 -72 156 -72q105 0 158 84t53 231zM190 345
q0 -121 32 -204l328 453q-52 66 -149 66q-115 0 -163 -80.5t-48 -234.5z" />
    <glyph glyph-name="Ugrave" unicode="&#xd9;" horiz-adv-x="806" 
d="M752 691v-35q-54 0 -75.5 -10.5t-21.5 -34.5v-330q0 -145 -57.5 -219t-194.5 -74q-254 0 -254 236v390q0 29 -14.5 35.5t-80.5 6.5v35h288v-35q-64 0 -81 -7t-17 -35v-390q0 -97 47.5 -146.5t125.5 -49.5q50 0 87 15t57.5 38t33 58.5t16 67.5t3.5 74v330q0 24 -26 34.5
t-92 10.5v35h256zM483 757v-6h-44l-129 127l2 -1v8h86l86 -129z" />
    <glyph glyph-name="Uacute" unicode="&#xda;" horiz-adv-x="806" 
d="M752 691v-35q-54 0 -75.5 -10.5t-21.5 -34.5v-330q0 -145 -57.5 -219t-194.5 -74q-254 0 -254 236v390q0 29 -14.5 35.5t-80.5 6.5v35h288v-35q-64 0 -81 -7t-17 -35v-390q0 -97 47.5 -146.5t125.5 -49.5q50 0 87 15t57.5 38t33 58.5t16 67.5t3.5 74v330q0 24 -26 34.5
t-92 10.5v35h256zM372 751v6l-1 -1l86 129h86v-8l2 1l-129 -127h-44z" />
    <glyph glyph-name="Ucircumflex" unicode="&#xdb;" horiz-adv-x="806" 
d="M752 691v-35q-54 0 -75.5 -10.5t-21.5 -34.5v-330q0 -145 -57.5 -219t-194.5 -74q-254 0 -254 236v390q0 29 -14.5 35.5t-80.5 6.5v35h288v-35q-64 0 -81 -7t-17 -35v-390q0 -97 47.5 -146.5t125.5 -49.5q50 0 87 15t57.5 38t33 58.5t16 67.5t3.5 74v330q0 24 -26 34.5
t-92 10.5v35h256zM568 757v-6h-38l-103 72l-102 -72h-38v6l-1 -1l120 129h43z" />
    <glyph glyph-name="Udieresis" unicode="&#xdc;" horiz-adv-x="806" 
d="M752 691v-35q-54 0 -75.5 -10.5t-21.5 -34.5v-330q0 -145 -57.5 -219t-194.5 -74q-254 0 -254 236v390q0 29 -14.5 35.5t-80.5 6.5v35h288v-35q-64 0 -81 -7t-17 -35v-390q0 -97 47.5 -146.5t125.5 -49.5q50 0 87 15t57.5 38t33 58.5t16 67.5t3.5 74v330q0 24 -26 34.5
t-92 10.5v35h256zM561 831q0 -19 -14.5 -34t-32.5 -15q-19 0 -33.5 15t-14.5 34q0 20 14.5 35.5t33.5 15.5q18 0 32.5 -15.5t14.5 -35.5zM389 831q0 -20 -14 -34.5t-33 -14.5t-33.5 15t-14.5 34q0 20 14.5 35.5t33.5 15.5t33 -15.5t14 -35.5z" />
    <glyph glyph-name="Yacute" unicode="&#xdd;" horiz-adv-x="734" 
d="M691 691v-35q-70 -3 -118 -81l-146 -266v-184q0 -59 20 -74t84 -15v-36h-300v36q71 0 86.5 14t15.5 75v180l-159 260q-40 57 -61.5 73.5t-69.5 17.5v35h285v-35q-78 -2 -78 -31q0 -11 19 -41l140 -232l128 231q10 17 10 32q0 38 -61 41v35h205zM359 751v6l-1 -1l86 129
h86v-8l2 1l-129 -127h-44z" />
    <glyph glyph-name="Thorn" unicode="&#xde;" horiz-adv-x="674" 
d="M360 173h-94v-86q0 -33 20 -42t82 -9v-36h-300v36q62 0 82.5 9t20.5 42v517q0 32 -24 42t-79 10v35h300v-35q-60 0 -81 -9t-21 -43v-55h103q45 0 84 -8.5t74.5 -28t56.5 -57t21 -88.5q0 -98 -73 -146t-172 -48zM345 514h-79v-301h83q71 0 112.5 35t41.5 107
q0 78 -43 118.5t-115 40.5z" />
    <glyph glyph-name="germandbls" unicode="&#xdf;" horiz-adv-x="680" 
d="M447 -9q-62 0 -116 24q-1 19 -3 57.5t-2 57.5h38q15 -105 83 -105q36 0 57 30t21 90q0 48 -25.5 79.5t-73.5 30.5q-44 0 -82 -23l-41 42l156 189l-4 11h-220v-406q0 -22 11.5 -27.5t46.5 -5.5v-35h-225v35q77 2 77 33v374q0 21 -15 27.5t-62 6.5v34h486q1 -6 4 -19t4 -20
l-144 -171l8 -11q7 1 17 2t16.5 2t10.5 1q66 0 106.5 -41t40.5 -107q0 -79 -48.5 -117t-121.5 -38z" />
    <glyph glyph-name="agrave" unicode="&#xe0;" horiz-adv-x="642" 
d="M430 59l-38 90h-187l-23 -56l-12 -31q-3 -15 13.5 -21t61.5 -6v-35h-197v35q67 2 83 43q29 72 88 220t88 220h18l192 -445q11 -25 24.5 -31.5t53.5 -6.5v-35h-231v35h25q32 0 39.5 4t1.5 20zM305 351h-20l-64 -163h153zM377 581v-6h-43l-129 162l1 -1v8h85l87 -164z" />
    <glyph glyph-name="aacute" unicode="&#xe1;" horiz-adv-x="642" 
d="M430 59l-38 90h-187l-23 -56l-12 -31q-3 -15 13.5 -21t61.5 -6v-35h-197v35q67 2 83 43q29 72 88 220t88 220h18l192 -445q11 -25 24.5 -31.5t53.5 -6.5v-35h-231v35h25q32 0 39.5 4t1.5 20zM305 351h-20l-64 -163h153zM266 575v6l-1 -1l86 164h86v-8l1 1l-129 -162h-43z
" />
    <glyph glyph-name="acircumflex" unicode="&#xe2;" horiz-adv-x="642" 
d="M430 59l-38 90h-187l-23 -56l-12 -31q-3 -15 13.5 -21t61.5 -6v-35h-197v35q67 2 83 43q29 72 88 220t88 220h18l192 -445q11 -25 24.5 -31.5t53.5 -6.5v-35h-231v35h25q32 0 39.5 4t1.5 20zM463 581v-6h-39l-102 102l-103 -102h-39v6l-1 -1l121 164h43l121 -164z
M305 351h-20l-64 -163h153z" />
    <glyph glyph-name="atilde" unicode="&#xe3;" horiz-adv-x="642" 
d="M430 59l-38 90h-187l-23 -56l-12 -31q-3 -15 13.5 -21t61.5 -6v-35h-197v35q67 2 83 43q29 72 88 220t88 220h18l192 -445q11 -25 24.5 -31.5t53.5 -6.5v-35h-231v35h25q32 0 39.5 4t1.5 20zM305 351h-20l-64 -163h153zM455 720l17 -7q-14 -49 -42 -86t-52 -37
q-12 0 -62 30q-48 30 -66 30q-31 0 -57 -60q-3 1 -10.5 3t-10.5 4q12 40 40.5 81t44.5 41q15 0 63 -32q46 -30 67 -30q18 0 38 20t30 43z" />
    <glyph glyph-name="adieresis" unicode="&#xe4;" horiz-adv-x="642" 
d="M430 59l-38 90h-187l-23 -56l-12 -31q-3 -15 13.5 -21t61.5 -6v-35h-197v35q67 2 83 43q29 72 88 220t88 220h18l192 -445q11 -25 24.5 -31.5t53.5 -6.5v-35h-231v35h25q32 0 39.5 4t1.5 20zM305 351h-20l-64 -163h153zM456 644q0 -19 -15 -34t-33 -15q-19 0 -33.5 15
t-14.5 34q0 20 14.5 35.5t33.5 15.5q18 0 33 -15.5t15 -35.5zM283 644q0 -20 -14 -34.5t-33 -14.5t-34 15t-15 34q0 20 15 35.5t34 15.5t33 -15.5t14 -35.5z" />
    <glyph glyph-name="aring" unicode="&#xe5;" horiz-adv-x="642" 
d="M430 59l-38 90h-187l-23 -56l-12 -31q-3 -15 13.5 -21t61.5 -6v-35h-197v35q67 2 83 43q29 72 88 220t88 220h18l192 -445q11 -25 24.5 -31.5t53.5 -6.5v-35h-231v35h25q32 0 39.5 4t1.5 20zM232 657q0 39 26 66t64 27q37 0 63 -27t26 -66q0 -38 -26 -65.5t-63 -27.5
t-63.5 27.5t-26.5 65.5zM305 351h-20l-64 -163h153zM268 657q0 -23 14.5 -38t38.5 -15t38.5 15t14.5 38t-15 39.5t-38 16.5q-24 0 -38.5 -16.5t-14.5 -39.5z" />
    <glyph glyph-name="ae" unicode="&#xe6;" horiz-adv-x="880" 
d="M793 186l-11 -186h-448v35q52 0 64.5 2.5t12.5 15.5v96h-182l-57 -83q-12 -22 28 -28q17 -3 44 -3v-35h-197v35q54 1 82 43l269 394q-15 4 -64 4v34h425l9 -164h-29q-13 73 -36 101.5t-72 28.5h-130v-207h57q73 0 73 101h26v-234h-26q0 58 -16 77t-62 19h-52v-197h147
q53 0 83.5 46t30.5 105h31zM397 401l-143 -213h157v213h-14z" />
    <glyph glyph-name="ccedilla" unicode="&#xe7;" horiz-adv-x="618" 
d="M289 -220l-6 21q87 19 87 64q0 44 -77 44q-19 0 -27 -1l-3 4l39 79q-104 11 -164.5 81.5t-60.5 181.5q0 109 79.5 187.5t182.5 78.5q82 0 144 -49l18 41h20l4 -197h-31q-11 66 -52 116t-106 50q-76 0 -118.5 -63t-42.5 -165q0 -226 165 -226q121 0 162 139h30l-19 -134
q-66 -42 -174 -44l-21 -37q47 0 76.5 -17.5t29.5 -53.5t-39 -63.5t-96 -36.5z" />
    <glyph glyph-name="egrave" unicode="&#xe8;" horiz-adv-x="616" 
d="M528 186l-11 -186h-448v35q52 0 64.5 2.5t12.5 15.5v404q0 13 -13.5 16t-63.5 3v34h425l9 -164h-29q-13 73 -36 101.5t-72 28.5h-130v-207h57q73 0 73 101h26v-234h-26q0 58 -16 77t-62 19h-52v-197h147q53 0 83.5 46t30.5 105h31zM369 581v-6h-43l-129 162l1 -1v8h85
l87 -164z" />
    <glyph glyph-name="eacute" unicode="&#xe9;" horiz-adv-x="616" 
d="M528 186l-11 -186h-448v35q52 0 64.5 2.5t12.5 15.5v404q0 13 -13.5 16t-63.5 3v34h425l9 -164h-29q-13 73 -36 101.5t-72 28.5h-130v-207h57q73 0 73 101h26v-234h-26q0 58 -16 77t-62 19h-52v-197h147q53 0 83.5 46t30.5 105h31zM258 575v6l-1 -1l86 164h86v-8l1 1
l-129 -162h-43z" />
    <glyph glyph-name="ecircumflex" unicode="&#xea;" horiz-adv-x="616" 
d="M528 186l-11 -186h-448v35q52 0 64.5 2.5t12.5 15.5v404q0 13 -13.5 16t-63.5 3v34h425l9 -164h-29q-13 73 -36 101.5t-72 28.5h-130v-207h57q73 0 73 101h26v-234h-26q0 58 -16 77t-62 19h-52v-197h147q53 0 83.5 46t30.5 105h31zM455 581v-6h-39l-103 102l-102 -102
h-39v6l-1 -1l121 164h43l121 -164z" />
    <glyph glyph-name="edieresis" unicode="&#xeb;" horiz-adv-x="616" 
d="M528 186l-11 -186h-448v35q52 0 64.5 2.5t12.5 15.5v404q0 13 -13.5 16t-63.5 3v34h425l9 -164h-29q-13 73 -36 101.5t-72 28.5h-130v-207h57q73 0 73 101h26v-234h-26q0 58 -16 77t-62 19h-52v-197h147q53 0 83.5 46t30.5 105h31zM448 644q0 -19 -15 -34t-33 -15
q-19 0 -33.5 15t-14.5 34q0 20 14.5 35.5t33.5 15.5q18 0 33 -15.5t15 -35.5zM275 644q0 -20 -14 -34.5t-33 -14.5t-34 15t-15 34q0 20 15 35.5t34 15.5t33 -15.5t14 -35.5z" />
    <glyph glyph-name="igrave" unicode="&#xec;" horiz-adv-x="422" 
d="M335 510v-34q-51 0 -65.5 -4.5t-14.5 -21.5v-385q0 -21 12 -25.5t68 -4.5v-35h-248v35q50 0 64 5.5t14 24.5v385q0 18 -12.5 22t-65.5 4v34h248zM261 581v-6h-43l-129 162l1 -1v8h85l87 -164z" />
    <glyph glyph-name="iacute" unicode="&#xed;" horiz-adv-x="422" 
d="M335 510v-34q-51 0 -65.5 -4.5t-14.5 -21.5v-385q0 -21 12 -25.5t68 -4.5v-35h-248v35q50 0 64 5.5t14 24.5v385q0 18 -12.5 22t-65.5 4v34h248zM150 575v6l-1 -1l86 164h87v-8l1 1l-129 -162h-44z" />
    <glyph glyph-name="icircumflex" unicode="&#xee;" horiz-adv-x="422" 
d="M335 510v-34q-51 0 -65.5 -4.5t-14.5 -21.5v-385q0 -21 12 -25.5t68 -4.5v-35h-248v35q50 0 64 5.5t14 24.5v385q0 18 -12.5 22t-65.5 4v34h248zM347 581v-6h-39l-102 102l-103 -102h-38v6l-1 -1l120 164h43l121 -164z" />
    <glyph glyph-name="idieresis" unicode="&#xef;" horiz-adv-x="422" 
d="M335 510v-34q-51 0 -65.5 -4.5t-14.5 -21.5v-385q0 -21 12 -25.5t68 -4.5v-35h-248v35q50 0 64 5.5t14 24.5v385q0 18 -12.5 22t-65.5 4v34h248zM340 644q0 -19 -15 -34t-33 -15q-19 0 -33.5 15t-14.5 34q0 20 14.5 35.5t33.5 15.5q18 0 33 -15.5t15 -35.5zM167 644
q0 -20 -14 -34.5t-33 -14.5t-33.5 15t-14.5 34q0 20 14.5 35.5t33.5 15.5t33 -15.5t14 -35.5z" />
    <glyph glyph-name="eth" unicode="&#xf0;" horiz-adv-x="674" 
d="M598 254q0 -102 -73 -178t-213 -76h-244v35q51 1 64 4.5t13 17.5v178h-68v46h68v176q0 13 -12 16t-65 3v34h242q79 0 137.5 -24t90 -63.5t46 -82t14.5 -86.5zM498 254q0 100 -49.5 161t-159.5 61h-54v-195h126v-46h-126v-200h75q97 0 142.5 64t45.5 155z" />
    <glyph glyph-name="ntilde" unicode="&#xf1;" horiz-adv-x="689" 
d="M528 -7l-343 413v-336q0 -22 21.5 -28.5t70.5 -6.5v-35h-210v35q39 0 57 6.5t18 28.5v375q-31 30 -79 31v34h146l305 -368v300q0 34 -93 34v34h205v-34q-42 0 -56 -7.5t-14 -26.5v-449h-28zM477 720l17 -7q-14 -49 -42 -86t-52 -37q-13 0 -61 30q-50 30 -67 30
q-31 0 -57 -60q-3 1 -10 3t-10 4q12 40 40 81t44 41q17 0 63 -32q46 -30 67 -30q18 0 38.5 20t29.5 43z" />
    <glyph glyph-name="ograve" unicode="&#xf2;" horiz-adv-x="657" 
d="M581 254q0 -111 -75 -188.5t-178 -77.5q-108 0 -180 75t-72 191q0 118 72 192t180 74q104 0 178.5 -75.5t74.5 -190.5zM481 254q0 227 -153 227q-83 0 -118 -58.5t-35 -168.5q0 -227 153 -227q76 0 114.5 61.5t38.5 165.5zM383 581v-6h-43l-129 162l1 -1v8h85l87 -164z
" />
    <glyph glyph-name="oacute" unicode="&#xf3;" horiz-adv-x="657" 
d="M581 254q0 -111 -75 -188.5t-178 -77.5q-108 0 -180 75t-72 191q0 118 72 192t180 74q104 0 178.5 -75.5t74.5 -190.5zM481 254q0 227 -153 227q-83 0 -118 -58.5t-35 -168.5q0 -227 153 -227q76 0 114.5 61.5t38.5 165.5zM272 575v6l-1 -1l86 164h87v-8l1 1l-130 -162
h-43z" />
    <glyph glyph-name="ocircumflex" unicode="&#xf4;" horiz-adv-x="657" 
d="M581 254q0 -111 -75 -188.5t-178 -77.5q-108 0 -180 75t-72 191q0 118 72 192t180 74q104 0 178.5 -75.5t74.5 -190.5zM481 254q0 227 -153 227q-83 0 -118 -58.5t-35 -168.5q0 -227 153 -227q76 0 114.5 61.5t38.5 165.5zM469 581v-6h-39l-102 102l-103 -102h-39v6
l-1 -1l121 164h43l121 -164z" />
    <glyph glyph-name="otilde" unicode="&#xf5;" horiz-adv-x="657" 
d="M581 254q0 -111 -75 -188.5t-178 -77.5q-108 0 -180 75t-72 191q0 118 72 192t180 74q104 0 178.5 -75.5t74.5 -190.5zM481 254q0 227 -153 227q-83 0 -118 -58.5t-35 -168.5q0 -227 153 -227q76 0 114.5 61.5t38.5 165.5zM461 720l17 -7q-14 -49 -42 -86t-52 -37
q-13 0 -61 30q-50 30 -67 30q-31 0 -57 -60q-3 1 -10.5 3t-10.5 4q13 40 41 81t44 41q15 0 63 -32q46 -30 67 -30q18 0 38.5 20t29.5 43z" />
    <glyph glyph-name="odieresis" unicode="&#xf6;" horiz-adv-x="657" 
d="M581 254q0 -111 -75 -188.5t-178 -77.5q-108 0 -180 75t-72 191q0 118 72 192t180 74q104 0 178.5 -75.5t74.5 -190.5zM481 254q0 227 -153 227q-83 0 -118 -58.5t-35 -168.5q0 -227 153 -227q76 0 114.5 61.5t38.5 165.5zM462 644q0 -19 -15 -34t-33 -15q-19 0 -33.5 15
t-14.5 34q0 20 14.5 35.5t33.5 15.5q18 0 33 -15.5t15 -35.5zM289 644q0 -20 -14 -34.5t-33 -14.5t-33.5 15t-14.5 34q0 20 14.5 35.5t33.5 15.5t33 -15.5t14 -35.5z" />
    <glyph glyph-name="divide" unicode="&#xf7;" horiz-adv-x="620" 
d="M570 230h-520v60h520v-60zM258 109q0 22 14.5 37t36.5 15t37 -15t15 -37t-15 -36.5t-37 -14.5t-36.5 14.5t-14.5 36.5zM258 411q0 22 14.5 37t36.5 15t37 -15t15 -37t-15 -36.5t-37 -14.5t-36.5 14.5t-14.5 36.5z" />
    <glyph glyph-name="oslash" unicode="&#xf8;" horiz-adv-x="657" 
d="M581 254q0 -111 -75 -188.5t-178 -77.5q-70 0 -133 37l-58 -78h-51l74 103q-84 76 -84 204q0 118 72 192t180 74q71 0 141 -45l48 67h51l-66 -93q79 -79 79 -195zM175 254q0 -92 25 -150l237 327q-37 50 -109 50q-83 0 -118 -58.5t-35 -168.5zM481 254q0 79 -20 139
l-236 -325q35 -41 103 -41q76 0 114.5 61.5t38.5 165.5z" />
    <glyph glyph-name="ugrave" unicode="&#xf9;" horiz-adv-x="677" 
d="M620 510v-34q-47 0 -63.5 -6.5t-16.5 -21.5v-244q0 -107 -45.5 -161.5t-155.5 -54.5q-208 0 -208 175v287q0 18 -11 22t-62 4v34h238v-34q-49 0 -62 -4.5t-13 -21.5v-287q0 -62 37 -92.5t104 -30.5q129 0 129 164v244q0 15 -20 21.5t-71 6.5v34h220zM406 581v-6h-43
l-129 162l1 -1v8h86l86 -164z" />
    <glyph glyph-name="uacute" unicode="&#xfa;" horiz-adv-x="677" 
d="M620 510v-34q-47 0 -63.5 -6.5t-16.5 -21.5v-244q0 -107 -45.5 -161.5t-155.5 -54.5q-208 0 -208 175v287q0 18 -11 22t-62 4v34h238v-34q-49 0 -62 -4.5t-13 -21.5v-287q0 -62 37 -92.5t104 -30.5q129 0 129 164v244q0 15 -20 21.5t-71 6.5v34h220zM295 575v6l-1 -1
l86 164h87v-8l1 1l-129 -162h-44z" />
    <glyph glyph-name="ucircumflex" unicode="&#xfb;" horiz-adv-x="677" 
d="M620 510v-34q-47 0 -63.5 -6.5t-16.5 -21.5v-244q0 -107 -45.5 -161.5t-155.5 -54.5q-208 0 -208 175v287q0 18 -11 22t-62 4v34h238v-34q-49 0 -62 -4.5t-13 -21.5v-287q0 -62 37 -92.5t104 -30.5q129 0 129 164v244q0 15 -20 21.5t-71 6.5v34h220zM492 581v-6h-38
l-103 102l-103 -102h-38v6l-1 -1l121 164h42l121 -164z" />
    <glyph glyph-name="udieresis" unicode="&#xfc;" horiz-adv-x="677" 
d="M620 510v-34q-47 0 -63.5 -6.5t-16.5 -21.5v-244q0 -107 -45.5 -161.5t-155.5 -54.5q-208 0 -208 175v287q0 18 -11 22t-62 4v34h238v-34q-49 0 -62 -4.5t-13 -21.5v-287q0 -62 37 -92.5t104 -30.5q129 0 129 164v244q0 15 -20 21.5t-71 6.5v34h220zM485 644
q0 -19 -15 -34t-33 -15q-19 0 -33.5 15t-14.5 34q0 20 14.5 35.5t33.5 15.5q18 0 33 -15.5t15 -35.5zM312 644q0 -20 -14 -34.5t-33 -14.5t-33.5 15t-14.5 34q0 20 14.5 35.5t33.5 15.5t33 -15.5t14 -35.5z" />
    <glyph glyph-name="yacute" unicode="&#xfd;" horiz-adv-x="609" 
d="M566 510v-34q-26 -1 -49 -16.5t-36 -39.5l-121 -202v-123q0 -40 15 -50t64 -10v-35h-246v35q54 0 65.5 9.5t11.5 50.5v115l-130 202q-26 38 -43.5 50.5t-53.5 13.5v34h235v-34q-45 -2 -56.5 -10.5t5.5 -34.5l111 -171l99 169q12 19 0.5 32.5t-45.5 14.5v34h174zM282 575
v6l-1 -1l86 164h87v-8l1 1l-129 -162h-44z" />
    <glyph glyph-name="thorn" unicode="&#xfe;" horiz-adv-x="569" 
d="M496 264q0 -52 -30.5 -87.5t-73 -49t-92.5 -13.5h-64v-46q0 -21 15.5 -27t62.5 -6v-35h-245v35q46 0 61.5 6t15.5 27v374q0 21 -17.5 27.5t-59.5 6.5v34h245v-34q-46 0 -62 -5.5t-16 -28.5v-37h71q36 0 67 -6.5t60 -22t45.5 -44t16.5 -68.5zM288 371h-52v-220h55
q50 0 80 26t30 78q0 57 -31 86.5t-82 29.5z" />
    <glyph glyph-name="ydieresis" unicode="&#xff;" horiz-adv-x="609" 
d="M566 510v-34q-26 -1 -49 -16.5t-36 -39.5l-121 -202v-123q0 -40 15 -50t64 -10v-35h-246v35q54 0 65.5 9.5t11.5 50.5v115l-130 202q-26 38 -43.5 50.5t-53.5 13.5v34h235v-34q-45 -2 -56.5 -10.5t5.5 -34.5l111 -171l99 169q12 19 0.5 32.5t-45.5 14.5v34h174zM472 644
q0 -19 -15 -34t-33 -15q-19 0 -33.5 15t-14.5 34q0 20 14.5 35.5t33.5 15.5q18 0 33 -15.5t15 -35.5zM299 644q0 -20 -14 -34.5t-33 -14.5t-33.5 15t-14.5 34q0 20 14.5 35.5t33.5 15.5t33 -15.5t14 -35.5z" />
    <glyph glyph-name="Amacron" unicode="&#x100;" horiz-adv-x="770" 
d="M530 78l-47 127h-256l-43 -125q-8 -25 12.5 -34.5t83.5 -9.5v-36h-234v36q42 1 64.5 14.5t35.5 48.5l223 602h14l245 -609q14 -33 33.5 -44t62.5 -12v-36h-279v36h22q53 0 63 6.5t0 35.5zM359 531h-17l-100 -283h224zM501 784h-246v54h246v-54z" />
    <glyph glyph-name="amacron" unicode="&#x101;" horiz-adv-x="642" 
d="M430 59l-38 90h-187l-23 -56l-12 -31q-3 -15 13.5 -21t61.5 -6v-35h-197v35q67 2 83 43q29 72 88 220t88 220h18l192 -445q11 -25 24.5 -31.5t53.5 -6.5v-35h-231v35h25q32 0 39.5 4t1.5 20zM445 597h-246v54h246v-54zM305 351h-20l-64 -163h153z" />
    <glyph glyph-name="Abreve" unicode="&#x102;" horiz-adv-x="770" 
d="M530 78l-47 127h-256l-43 -125q-8 -25 12.5 -34.5t83.5 -9.5v-36h-234v36q42 1 64.5 14.5t35.5 48.5l223 602h14l245 -609q14 -33 33.5 -44t62.5 -12v-36h-279v36h22q53 0 63 6.5t0 35.5zM359 531h-17l-100 -283h224zM378 751q-48 0 -81 32.5t-34 96.5h30q1 -30 25 -51.5
t60 -21.5q34 0 59.5 21t26.5 52h30q-1 -64 -34.5 -96.5t-81.5 -32.5z" />
    <glyph glyph-name="abreve" unicode="&#x103;" horiz-adv-x="642" 
d="M430 59l-38 90h-187l-23 -56l-12 -31q-3 -15 13.5 -21t61.5 -6v-35h-197v35q67 2 83 43q29 72 88 220t88 220h18l192 -445q11 -25 24.5 -31.5t53.5 -6.5v-35h-231v35h25q32 0 39.5 4t1.5 20zM305 351h-20l-64 -163h153zM322 575q-48 0 -82 38t-34 111h30q1 -36 25 -62.5
t61 -26.5q35 0 60 25t25 64h30q-1 -72 -34.5 -110.5t-80.5 -38.5z" />
    <glyph glyph-name="Aogonek" unicode="&#x104;" horiz-adv-x="770" 
d="M530 78l-47 127h-256l-43 -125q-8 -25 12.5 -34.5t83.5 -9.5v-36h-234v36q42 1 64.5 14.5t35.5 48.5l223 602h14l245 -609q14 -33 33.5 -44t62.5 -12v-36h-240q-63 -44 -63 -105q0 -64 51 -64q8 0 11 1v-29q-14 -3 -29 -3q-38 0 -65.5 20t-27.5 56q0 71 84 123v37h22
q53 0 63 6.5t0 35.5zM359 531h-17l-100 -283h224z" />
    <glyph glyph-name="aogonek" unicode="&#x105;" horiz-adv-x="642" 
d="M430 59l-38 90h-187l-23 -56l-12 -31q-3 -15 13.5 -21t61.5 -6v-35h-197v35q67 2 83 43q29 72 88 220t88 220h18l192 -445q11 -25 24.5 -31.5t53.5 -6.5v-35h-207q-55 -43 -55 -100q0 -64 50 -64q8 0 11 1v-30q-14 -3 -29 -3q-37 0 -65 20.5t-28 56.5q0 73 92 128v26h25
q32 0 39.5 4t1.5 20zM305 351h-20l-64 -163h153z" />
    <glyph glyph-name="Cacute" unicode="&#x106;" horiz-adv-x="746" 
d="M584 656l10 2q4 5 12 16.5t12 16.5h23l4 -258h-32q-16 92 -67 159.5t-137 67.5q-105 0 -162.5 -87t-57.5 -230q0 -313 225 -313q81 0 130.5 47.5t72.5 144.5h36q-3 -29 -11.5 -89.5t-11.5 -89.5q-39 -24 -98.5 -39.5t-119.5 -15.5q-151 0 -241 96.5t-90 260.5
q0 147 100.5 251.5t231.5 104.5q106 0 171 -45zM355 751v6l-1 -1l86 129h86v-8l2 1l-129 -127h-44z" />
    <glyph glyph-name="cacute" unicode="&#x107;" horiz-adv-x="618" 
d="M339 520q82 0 144 -49l18 41h20l4 -197h-31q-11 66 -52 116t-106 50q-76 0 -118.5 -63t-42.5 -165q0 -226 165 -226q121 0 162 139h30l-19 -134q-70 -44 -175 -44q-119 0 -190 72.5t-71 193.5q0 109 79.5 187.5t182.5 78.5zM283 575v6l-1 -1l86 164h87v-8l1 1l-129 -162
h-44z" />
    <glyph glyph-name="Ccircumflex" unicode="&#x108;" horiz-adv-x="746" 
d="M584 656l10 2q4 5 12 16.5t12 16.5h23l4 -258h-32q-16 92 -67 159.5t-137 67.5q-105 0 -162.5 -87t-57.5 -230q0 -313 225 -313q81 0 130.5 47.5t72.5 144.5h36q-3 -29 -11.5 -89.5t-11.5 -89.5q-39 -24 -98.5 -39.5t-119.5 -15.5q-151 0 -241 96.5t-90 260.5
q0 147 100.5 251.5t231.5 104.5q106 0 171 -45zM551 757v-6h-38l-103 72l-102 -72h-38v6l-1 -1l120 129h43z" />
    <glyph glyph-name="ccircumflex" unicode="&#x109;" horiz-adv-x="618" 
d="M339 520q82 0 144 -49l18 41h20l4 -197h-31q-11 66 -52 116t-106 50q-76 0 -118.5 -63t-42.5 -165q0 -226 165 -226q121 0 162 139h30l-19 -134q-70 -44 -175 -44q-119 0 -190 72.5t-71 193.5q0 109 79.5 187.5t182.5 78.5zM480 581v-6h-39l-102 102l-103 -102h-38v6
l-1 -1l121 164h42l121 -164z" />
    <glyph glyph-name="Cdotaccent" unicode="&#x10a;" horiz-adv-x="746" 
d="M584 656l10 2q4 5 12 16.5t12 16.5h23l4 -258h-32q-16 92 -67 159.5t-137 67.5q-105 0 -162.5 -87t-57.5 -230q0 -313 225 -313q81 0 130.5 47.5t72.5 144.5h36q-3 -29 -11.5 -89.5t-11.5 -89.5q-39 -24 -98.5 -39.5t-119.5 -15.5q-151 0 -241 96.5t-90 260.5
q0 147 100.5 251.5t231.5 104.5q106 0 171 -45zM350 826q0 26 17 44.5t42 18.5q26 0 44 -18.5t18 -44.5t-18 -44.5t-44 -18.5q-25 0 -42 18.5t-17 44.5z" />
    <glyph glyph-name="cdotaccent" unicode="&#x10b;" horiz-adv-x="618" 
d="M339 520q82 0 144 -49l18 41h20l4 -197h-31q-11 66 -52 116t-106 50q-76 0 -118.5 -63t-42.5 -165q0 -226 165 -226q121 0 162 139h30l-19 -134q-70 -44 -175 -44q-119 0 -190 72.5t-71 193.5q0 109 79.5 187.5t182.5 78.5zM278 669q0 27 17.5 45.5t42.5 18.5t43 -18.5
t18 -45.5q0 -26 -18 -44t-43 -18t-42.5 18t-17.5 44z" />
    <glyph glyph-name="Ccaron" unicode="&#x10c;" horiz-adv-x="746" 
d="M584 656l10 2q4 5 12 16.5t12 16.5h23l4 -258h-32q-16 92 -67 159.5t-137 67.5q-105 0 -162.5 -87t-57.5 -230q0 -313 225 -313q81 0 130.5 47.5t72.5 144.5h36q-3 -29 -11.5 -89.5t-11.5 -89.5q-39 -24 -98.5 -39.5t-119.5 -15.5q-151 0 -241 96.5t-90 260.5
q0 147 100.5 251.5t231.5 104.5q106 0 171 -45zM551 885v-6l-119 -128h-43l-119 128v6h38l102 -71l103 71h38z" />
    <glyph glyph-name="ccaron" unicode="&#x10d;" horiz-adv-x="618" 
d="M339 520q82 0 144 -49l18 41h20l4 -197h-31q-11 66 -52 116t-106 50q-76 0 -118.5 -63t-42.5 -165q0 -226 165 -226q121 0 162 139h30l-19 -134q-70 -44 -175 -44q-119 0 -190 72.5t-71 193.5q0 109 79.5 187.5t182.5 78.5zM480 744v-6l1 1l-121 -164h-42l-121 164l1 -1
v6h38l103 -103l102 103h39z" />
    <glyph glyph-name="Dcaron" unicode="&#x10e;" horiz-adv-x="821" 
d="M740 345q0 -65 -21.5 -124.5t-63.5 -110t-114 -80.5t-164 -30h-309v36q37 1 54 2t30 5t16 10t3 19v551q0 23 -16 28t-87 5v35h307q80 0 144.5 -22t105 -57t67 -82t37.5 -92.5t11 -92.5zM631 344q0 67 -15 121.5t-47.5 98.5t-88.5 68t-133 24h-81v-620h109q55 0 99.5 18
t73 48t48 70.5t27.5 83t8 88.5zM499 885v-6l-120 -128h-42l-120 128v6h38l103 -71l103 71h38z" />
    <glyph glyph-name="dcaron" unicode="&#x10f;" horiz-adv-x="674" 
d="M598 254q0 -102 -73 -178t-213 -76h-244v35q51 1 64 4.5t13 17.5v400q0 13 -12 16t-65 3v34h242q79 0 137.5 -24t90 -63.5t46 -82t14.5 -86.5zM498 254q0 100 -49.5 161t-159.5 61h-54v-441h75q97 0 142.5 64t45.5 155zM451 744v-6l1 1l-121 -164h-43l-121 164l1 -1v6h39
l102 -103l103 103h39z" />
    <glyph glyph-name="Dcroat" unicode="&#x110;" horiz-adv-x="821" 
d="M740 345q0 -65 -21.5 -124.5t-63.5 -110t-114 -80.5t-164 -30h-309v36q37 1 54 2t30 5t16 10t3 19v250h-83v51h83v250q0 23 -16 28t-87 5v35h307q80 0 144.5 -22t105 -57t67 -82t37.5 -92.5t11 -92.5zM631 344q0 67 -15 121.5t-47.5 98.5t-88.5 68t-133 24h-81v-283h206
v-51h-206v-286h109q55 0 99.5 18t73 48t48 70.5t27.5 83t8 88.5z" />
    <glyph glyph-name="dcroat" unicode="&#x111;" horiz-adv-x="674" 
d="M598 254q0 -102 -73 -178t-213 -76h-244v35q51 1 64 4.5t13 17.5v178h-68v46h68v176q0 13 -12 16t-65 3v34h242q79 0 137.5 -24t90 -63.5t46 -82t14.5 -86.5zM498 254q0 100 -49.5 161t-159.5 61h-54v-195h126v-46h-126v-200h75q97 0 142.5 64t45.5 155z" />
    <glyph glyph-name="Emacron" unicode="&#x112;" horiz-adv-x="741" 
d="M653 244l-13 -244h-572v36q67 0 85 5t18 26v556q0 22 -18 27.5t-85 5.5v35h542q2 -36 6 -107t5 -107h-30q-18 102 -49.5 140.5t-102.5 38.5h-173v-297h79q106 0 106 138h25v-310h-25q0 82 -22.5 107.5t-89.5 25.5h-73v-284h197q74 0 116.5 64t42.5 144h31zM497 784h-246
v54h246v-54z" />
    <glyph glyph-name="emacron" unicode="&#x113;" horiz-adv-x="616" 
d="M528 186l-11 -186h-448v35q52 0 64.5 2.5t12.5 15.5v404q0 13 -13.5 16t-63.5 3v34h425l9 -164h-29q-13 73 -36 101.5t-72 28.5h-130v-207h57q73 0 73 101h26v-234h-26q0 58 -16 77t-62 19h-52v-197h147q53 0 83.5 46t30.5 105h31zM436 597h-245v54h245v-54z" />
    <glyph glyph-name="Edotaccent" unicode="&#x116;" horiz-adv-x="741" 
d="M653 244l-13 -244h-572v36q67 0 85 5t18 26v556q0 22 -18 27.5t-85 5.5v35h542q2 -36 6 -107t5 -107h-30q-18 102 -49.5 140.5t-102.5 38.5h-173v-297h79q106 0 106 138h25v-310h-25q0 82 -22.5 107.5t-89.5 25.5h-73v-284h197q74 0 116.5 64t42.5 144h31zM314 826
q0 26 17 44.5t42 18.5t43.5 -18.5t18.5 -44.5t-18.5 -44.5t-43.5 -18.5t-42 18.5t-17 44.5z" />
    <glyph glyph-name="edotaccent" unicode="&#x117;" horiz-adv-x="616" 
d="M528 186l-11 -186h-448v35q52 0 64.5 2.5t12.5 15.5v404q0 13 -13.5 16t-63.5 3v34h425l9 -164h-29q-13 73 -36 101.5t-72 28.5h-130v-207h57q73 0 73 101h26v-234h-26q0 58 -16 77t-62 19h-52v-197h147q53 0 83.5 46t30.5 105h31zM253 669q0 27 17 45.5t42 18.5
q26 0 44 -18.5t18 -45.5q0 -26 -18 -44t-44 -18q-25 0 -42 18t-17 44z" />
    <glyph glyph-name="Eogonek" unicode="&#x118;" horiz-adv-x="741" 
d="M653 244l-13 -244h-29q-63 -43 -63 -105q0 -64 50 -64q9 0 12 1v-29q-15 -3 -30 -3q-37 0 -64.5 20t-27.5 56q0 69 83 124h-503v36q67 0 85 5t18 26v556q0 22 -18 27.5t-85 5.5v35h542q2 -36 6 -107t5 -107h-30q-18 102 -49.5 140.5t-102.5 38.5h-173v-297h79
q106 0 106 138h25v-310h-25q0 82 -22.5 107.5t-89.5 25.5h-73v-284h197q74 0 116.5 64t42.5 144h31z" />
    <glyph glyph-name="eogonek" unicode="&#x119;" horiz-adv-x="616" 
d="M528 186l-11 -186h-4q-88 -51 -88 -119q0 -64 51 -64q8 0 11 1v-30q-13 -3 -29 -3q-38 0 -65.5 20.5t-27.5 56.5q0 76 107 138h-403v35q52 0 64.5 2.5t12.5 15.5v404q0 13 -13.5 16t-63.5 3v34h425l9 -164h-29q-13 73 -36 101.5t-72 28.5h-130v-207h57q73 0 73 101h26
v-234h-26q0 58 -16 77t-62 19h-52v-197h147q53 0 83.5 46t30.5 105h31z" />
    <glyph glyph-name="Ecaron" unicode="&#x11a;" horiz-adv-x="741" 
d="M653 244l-13 -244h-572v36q67 0 85 5t18 26v556q0 22 -18 27.5t-85 5.5v35h542q2 -36 6 -107t5 -107h-30q-18 102 -49.5 140.5t-102.5 38.5h-173v-297h79q106 0 106 138h25v-310h-25q0 82 -22.5 107.5t-89.5 25.5h-73v-284h197q74 0 116.5 64t42.5 144h31zM515 885v-6
l-120 -128h-42l-120 128v6h39l102 -71l103 71h38z" />
    <glyph glyph-name="ecaron" unicode="&#x11b;" horiz-adv-x="616" 
d="M528 186l-11 -186h-448v35q52 0 64.5 2.5t12.5 15.5v404q0 13 -13.5 16t-63.5 3v34h425l9 -164h-29q-13 73 -36 101.5t-72 28.5h-130v-207h57q73 0 73 101h26v-234h-26q0 58 -16 77t-62 19h-52v-197h147q53 0 83.5 46t30.5 105h31zM455 744v-6l1 1l-121 -164h-43
l-121 164l1 -1v6h39l102 -103l103 103h39z" />
    <glyph glyph-name="Gcircumflex" unicode="&#x11c;" horiz-adv-x="787" 
d="M652 226v-232h-17l-55 88q-67 -94 -187 -94q-58 0 -112 20.5t-99.5 61.5t-73 111.5t-27.5 160.5q0 162 93 260.5t220 98.5q113 0 185 -46h13l21 31h21l4 -239h-27q-21 84 -76.5 148.5t-136.5 64.5q-58 0 -99.5 -23t-65 -67t-34 -100.5t-10.5 -129.5q0 -147 57 -229
t158 -82q103 0 153 99v97q0 43 -17 53.5t-79 10.5v30h273v-30q-56 0 -68.5 -10t-13.5 -53zM544 757v-6h-38l-103 72l-102 -72h-38v6l-1 -1l120 129h42z" />
    <glyph glyph-name="gcircumflex" unicode="&#x11d;" horiz-adv-x="652" 
d="M531 164v-172h-14l-50 66q-52 -70 -143 -70q-100 0 -174 65.5t-74 194.5q0 121 74.5 196.5t174.5 75.5q81 0 156 -56l16 45h20l3 -187h-26q-21 72 -62.5 115.5t-103.5 43.5q-154 0 -154 -233q0 -105 42.5 -163.5t116.5 -58.5q70 0 107 68v69q0 29 -11.5 35.5t-61.5 6.5
v32h227v-32q-44 0 -53.5 -6t-9.5 -35zM470 581v-6h-39l-102 102l-103 -102h-39v6l-1 -1l121 164h43l121 -164z" />
    <glyph glyph-name="Gbreve" unicode="&#x11e;" horiz-adv-x="787" 
d="M652 226v-232h-17l-55 88q-67 -94 -187 -94q-58 0 -112 20.5t-99.5 61.5t-73 111.5t-27.5 160.5q0 162 93 260.5t220 98.5q113 0 185 -46h13l21 31h21l4 -239h-27q-21 84 -76.5 148.5t-136.5 64.5q-58 0 -99.5 -23t-65 -67t-34 -100.5t-10.5 -129.5q0 -147 57 -229
t158 -82q103 0 153 99v97q0 43 -17 53.5t-79 10.5v30h273v-30q-56 0 -68.5 -10t-13.5 -53zM403 751q-48 0 -81 32.5t-34 96.5h30q1 -30 25 -51.5t60 -21.5q34 0 59.5 21t26.5 52h30q-1 -64 -34.5 -96.5t-81.5 -32.5z" />
    <glyph glyph-name="gbreve" unicode="&#x11f;" horiz-adv-x="652" 
d="M531 164v-172h-14l-50 66q-52 -70 -143 -70q-100 0 -174 65.5t-74 194.5q0 121 74.5 196.5t174.5 75.5q81 0 156 -56l16 45h20l3 -187h-26q-21 72 -62.5 115.5t-103.5 43.5q-154 0 -154 -233q0 -105 42.5 -163.5t116.5 -58.5q70 0 107 68v69q0 29 -11.5 35.5t-61.5 6.5
v32h227v-32q-44 0 -53.5 -6t-9.5 -35zM329 575q-48 0 -82 38t-34 111h30q1 -36 25 -62.5t61 -26.5q35 0 60 25t25 64h31q-1 -72 -35 -110.5t-81 -38.5z" />
    <glyph glyph-name="Gdotaccent" unicode="&#x120;" horiz-adv-x="787" 
d="M652 226v-232h-17l-55 88q-67 -94 -187 -94q-58 0 -112 20.5t-99.5 61.5t-73 111.5t-27.5 160.5q0 162 93 260.5t220 98.5q113 0 185 -46h13l21 31h21l4 -239h-27q-21 84 -76.5 148.5t-136.5 64.5q-58 0 -99.5 -23t-65 -67t-34 -100.5t-10.5 -129.5q0 -147 57 -229
t158 -82q103 0 153 99v97q0 43 -17 53.5t-79 10.5v30h273v-30q-56 0 -68.5 -10t-13.5 -53zM343 826q0 26 17 44.5t42 18.5q26 0 44 -18.5t18 -44.5t-18 -44.5t-44 -18.5q-25 0 -42 18.5t-17 44.5z" />
    <glyph glyph-name="gdotaccent" unicode="&#x121;" horiz-adv-x="652" 
d="M531 164v-172h-14l-50 66q-52 -70 -143 -70q-100 0 -174 65.5t-74 194.5q0 121 74.5 196.5t174.5 75.5q81 0 156 -56l16 45h20l3 -187h-26q-21 72 -62.5 115.5t-103.5 43.5q-154 0 -154 -233q0 -105 42.5 -163.5t116.5 -58.5q70 0 107 68v69q0 29 -11.5 35.5t-61.5 6.5
v32h227v-32q-44 0 -53.5 -6t-9.5 -35zM268 669q0 27 17.5 45.5t42.5 18.5t43 -18.5t18 -45.5q0 -26 -18 -44t-43 -18t-42.5 18t-17.5 44z" />
    <glyph glyph-name="Gcommaaccent" unicode="&#x122;" horiz-adv-x="787" 
d="M652 226v-232h-17l-55 88q-67 -94 -187 -94q-58 0 -112 20.5t-99.5 61.5t-73 111.5t-27.5 160.5q0 162 93 260.5t220 98.5q113 0 185 -46h13l21 31h21l4 -239h-27q-21 84 -76.5 148.5t-136.5 64.5q-58 0 -99.5 -23t-65 -67t-34 -100.5t-10.5 -129.5q0 -147 57 -229
t158 -82q103 0 153 99v97q0 43 -17 53.5t-79 10.5v30h273v-30q-56 0 -68.5 -10t-13.5 -53zM359 -90q0 14 11 25t29 11q26 0 44 -22.5t18 -56.5q0 -63 -79 -108l-16 23q47 27 47 59q0 18 -30 38q-24 16 -24 31z" />
    <glyph glyph-name="gcommaaccent" unicode="&#x123;" horiz-adv-x="652" 
d="M531 164v-172h-14l-50 66q-52 -70 -143 -70q-100 0 -174 65.5t-74 194.5q0 121 74.5 196.5t174.5 75.5q81 0 156 -56l16 45h20l3 -187h-26q-21 72 -62.5 115.5t-103.5 43.5q-154 0 -154 -233q0 -105 42.5 -163.5t116.5 -58.5q70 0 107 68v69q0 29 -11.5 35.5t-61.5 6.5
v32h227v-32q-44 0 -53.5 -6t-9.5 -35zM293 -93q0 14 11.5 25t29.5 11q26 0 43.5 -22.5t17.5 -56.5q0 -65 -78 -109l-17 23q48 27 48 60q0 18 -30 38q-25 15 -25 31z" />
    <glyph glyph-name="Hbar" unicode="&#x126;" horiz-adv-x="869" 
d="M95 529h76v75q0 32 -24 42t-79 10v35h300v-35q-60 0 -81 -9t-21 -43v-75h338v75q0 34 -20.5 43t-83.5 9v35h302v-35q-66 0 -85.5 -9t-19.5 -43v-75h89v-42h-89v-400q0 -34 18.5 -42.5t86.5 -8.5v-36h-302v36q68 3 86 10.5t18 40.5v247h-338v-247q0 -33 20 -42t82 -9v-36
h-300v36q62 0 82.5 9t20.5 42v400h-76v42zM266 377h338v110h-338v-110z" />
    <glyph glyph-name="hbar" unicode="&#x127;" horiz-adv-x="703" 
d="M73 395h67v47q0 21 -17.5 27.5t-59.5 6.5v34h245v-34q-46 0 -62 -5.5t-16 -28.5v-47h242v47q0 23 -14.5 28.5t-65.5 5.5v34h248v-34q-50 0 -65 -6t-15 -28v-47h74v-39h-74v-288q0 -21 15.5 -27t64.5 -6v-35h-248v35q52 2 66 7t14 26v175h-242v-175q0 -21 15.5 -27
t62.5 -6v-35h-245v35q46 0 61.5 6t15.5 27v288h-67v39zM230 282h242v74h-242v-74z" />
    <glyph glyph-name="Imacron" unicode="&#x12a;" horiz-adv-x="449" 
d="M375 691v-35q-66 0 -84.5 -7.5t-18.5 -34.5v-532q0 -32 15.5 -39t87.5 -7v-36h-301v36q67 0 85 8t18 38v532q0 29 -17 35.5t-86 6.5v35h301zM347 784h-245v54h245v-54z" />
    <glyph glyph-name="imacron" unicode="&#x12b;" horiz-adv-x="422" 
d="M335 510v-34q-51 0 -65.5 -4.5t-14.5 -21.5v-385q0 -21 12 -25.5t68 -4.5v-35h-248v35q50 0 64 5.5t14 24.5v385q0 18 -12.5 22t-65.5 4v34h248zM329 597h-246v54h246v-54z" />
    <glyph glyph-name="Iogonek" unicode="&#x12e;" horiz-adv-x="449" 
d="M375 691v-35q-66 0 -84.5 -7.5t-18.5 -34.5v-532q0 -32 15.5 -39t87.5 -7v-36h-29q-62 -43 -62 -105q0 -64 50 -64q8 0 11 1v-29q-14 -3 -29 -3q-38 0 -65.5 20t-27.5 56q0 69 84 124h-233v36q67 0 85 8t18 38v532q0 29 -17 35.5t-86 6.5v35h301z" />
    <glyph glyph-name="iogonek" unicode="&#x12f;" horiz-adv-x="422" 
d="M335 510v-34q-51 0 -65.5 -4.5t-14.5 -21.5v-385q0 -21 12 -25.5t68 -4.5v-35h-6q-87 -49 -87 -119q0 -64 50 -64q8 0 11 1v-30q-14 -3 -29 -3q-37 0 -65 20.5t-28 56.5q0 75 107 138h-201v35q50 0 64 5.5t14 24.5v385q0 18 -12.5 22t-65.5 4v34h248z" />
    <glyph glyph-name="Idotaccent" unicode="&#x130;" horiz-adv-x="449" 
d="M375 691v-35q-66 0 -84.5 -7.5t-18.5 -34.5v-532q0 -32 15.5 -39t87.5 -7v-36h-301v36q67 0 85 8t18 38v532q0 29 -17 35.5t-86 6.5v35h301zM164 826q0 26 17 44.5t42 18.5t43.5 -18.5t18.5 -44.5t-18.5 -44.5t-43.5 -18.5t-42 18.5t-17 44.5z" />
    <glyph glyph-name="dotlessi" unicode="&#x131;" horiz-adv-x="422" 
d="M335 510v-34q-51 0 -65.5 -4.5t-14.5 -21.5v-385q0 -21 12 -25.5t68 -4.5v-35h-248v35q50 0 64 5.5t14 24.5v385q0 18 -12.5 22t-65.5 4v34h248z" />
    <glyph glyph-name="Kcommaaccent" unicode="&#x136;" horiz-adv-x="790" 
d="M549 574l-153 -168l256 -317q23 -30 41 -41t52 -12v-36h-270v36q66 3 66 21q0 10 -15 30l-195 248l-65 -72v-149q0 -50 18.5 -64t80.5 -14v-36h-297v36q70 0 86.5 13t16.5 65v467q0 52 -19 63.5t-84 11.5v35h300v-35q-64 0 -83 -12.5t-19 -62.5v-253h12q38 42 116 128
t116 129h-1q22 21 22 36t-17 24.5t-44 9.5v36h248v-36q-97 -10 -169 -81zM381 -90q0 14 11 25t29 11q26 0 44 -22.5t18 -56.5q0 -65 -79 -108l-16 23q48 28 48 59q0 9 -5.5 17t-9.5 10.5t-16 10.5q-24 16 -24 31z" />
    <glyph glyph-name="kcommaaccent" unicode="&#x137;" horiz-adv-x="650" 
d="M450 418l-114 -119q39 -47 193 -228q15 -20 30 -27.5t43 -8.5v-35h-224v35q18 1 26.5 2t15.5 4t6 8.5t-8 15.5l-143 173l-40 -42v-109q0 -34 14.5 -43t61.5 -9v-35h-243v35q52 0 64.5 8.5t12.5 43.5v339q0 34 -15 42t-62 8v34h245v-34q-47 0 -62 -9.5t-16 -40.5v-173
l174 180q16 20 5.5 31t-40.5 12v34h208v-33q-86 -10 -132 -59zM293 -93q0 14 11.5 25t29.5 11q26 0 43.5 -22.5t17.5 -56.5q0 -65 -78 -109l-17 23q48 27 48 60q0 18 -30 38q-25 15 -25 31z" />
    <glyph glyph-name="Lacute" unicode="&#x139;" horiz-adv-x="666" 
d="M606 239l-14 -239h-524v36q61 0 82 8t21 38v533q0 27 -17.5 34t-85.5 7v35h311v-35q-80 0 -96.5 -6t-16.5 -34v-580h137q77 0 121 54t44 149h38zM163 751v6l-1 -1l85 129h87v-8l2 1l-129 -127h-44z" />
    <glyph glyph-name="lacute" unicode="&#x13a;" horiz-adv-x="565" 
d="M492 182l-10 -182h-413v35q46 0 61.5 5.5t15.5 24.5v386q0 17 -12.5 21t-64.5 4v34h254v-34q-62 0 -74.5 -3.5t-12.5 -21.5v-416h102q55 0 86 39t32 108h36zM139 544v6l-1 -1l86 129h86v-8l2 1l-129 -127h-44z" />
    <glyph glyph-name="Lcommaaccent" unicode="&#x13b;" horiz-adv-x="666" 
d="M606 239l-14 -239h-524v36q61 0 82 8t21 38v533q0 27 -17.5 34t-85.5 7v35h311v-35q-80 0 -96.5 -6t-16.5 -34v-580h137q77 0 121 54t44 149h38zM321 -90q0 14 11 25t29 11q26 0 43.5 -22.5t17.5 -56.5q0 -64 -78 -108l-16 23q47 27 47 59q0 18 -30 38q-24 16 -24 31z
" />
    <glyph glyph-name="lcommaaccent" unicode="&#x13c;" horiz-adv-x="565" 
d="M492 182l-10 -182h-413v35q46 0 61.5 5.5t15.5 24.5v386q0 17 -12.5 21t-64.5 4v34h254v-34q-62 0 -74.5 -3.5t-12.5 -21.5v-416h102q55 0 86 39t32 108h36zM239 -93q0 14 11 25t29 11q26 0 44 -22.5t18 -56.5q0 -64 -79 -109l-16 23q47 27 47 60q0 18 -30 38
q-24 16 -24 31z" />
    <glyph glyph-name="Lcaron" unicode="&#x13d;" horiz-adv-x="666" 
d="M606 239l-14 -239h-524v36q61 0 82 8t21 38v533q0 27 -17.5 34t-85.5 7v35h311v-35q-80 0 -96.5 -6t-16.5 -34v-580h137q77 0 121 54t44 149h38zM508 487v6l16 198h74v-7q-9 -31 -27 -98.5t-27 -98.5h-36z" />
    <glyph glyph-name="lcaron" unicode="&#x13e;" horiz-adv-x="565" 
d="M426 305v6l16 199h75v-7q-9 -32 -27 -99t-27 -99h-37zM492 182l-10 -182h-413v35q46 0 61.5 5.5t15.5 24.5v386q0 17 -12.5 21t-64.5 4v34h254v-34q-62 0 -74.5 -3.5t-12.5 -21.5v-416h102q55 0 86 39t32 108h36z" />
    <glyph glyph-name="Ldot" unicode="&#x13f;" horiz-adv-x="666" 
d="M606 239l-14 -239h-524v36q61 0 82 8t21 38v533q0 27 -17.5 34t-85.5 7v35h311v-35q-80 0 -96.5 -6t-16.5 -34v-580h137q77 0 121 54t44 149h38zM486 381q0 29 18.5 49t45.5 20q26 0 46 -20.5t20 -48.5q0 -27 -19.5 -46.5t-46.5 -19.5t-45.5 19t-18.5 47z" />
    <glyph glyph-name="ldot" unicode="&#x140;" horiz-adv-x="565" 
d="M492 182l-10 -182h-413v35q46 0 61.5 5.5t15.5 24.5v386q0 17 -12.5 21t-64.5 4v34h254v-34q-62 0 -74.5 -3.5t-12.5 -21.5v-416h102q55 0 86 39t32 108h36zM402 308q0 29 18.5 49t46.5 20q27 0 46 -20t19 -49q0 -28 -19 -47t-46 -19q-28 0 -46.5 19t-18.5 47z" />
    <glyph glyph-name="Lslash" unicode="&#x141;" horiz-adv-x="666" 
d="M606 239l-14 -239h-524v36q61 0 82 8t21 38v206l-99 -47v45l99 46v283q0 27 -17.5 34t-85.5 7v35h311v-35q-80 0 -96.5 -6t-16.5 -34v-238l206 98v-45l-206 -97v-298h137q77 0 121 54t44 149h38z" />
    <glyph glyph-name="lslash" unicode="&#x142;" horiz-adv-x="565" 
d="M492 182l-10 -182h-413v35q46 0 61.5 5.5t15.5 24.5v146q-2 -1 -30 -16t-42 -22v45l72 37v196q0 17 -12.5 21t-64.5 4v34h254v-34q-62 0 -74.5 -3.5t-12.5 -21.5v-149l120 63v-44l-120 -63v-223h102q55 0 86 39t32 108h36z" />
    <glyph glyph-name="Nacute" unicode="&#x143;" horiz-adv-x="812" 
d="M205 556h-12v-465q0 -34 27.5 -44.5t92.5 -10.5v-36h-253v36q51 0 75 11t24 44v511q-23 27 -45 40t-59 14v35h166l399 -511h12v424q0 52 -122 52v35h245v-35q-51 -1 -70.5 -13t-19.5 -39v-614h-19zM357 751v6l-1 -1l86 129h86v-8l2 1l-129 -127h-44z" />
    <glyph glyph-name="nacute" unicode="&#x144;" horiz-adv-x="689" 
d="M528 -7l-343 413v-336q0 -22 21.5 -28.5t70.5 -6.5v-35h-210v35q39 0 57 6.5t18 28.5v375q-31 30 -79 31v34h146l305 -368v300q0 34 -93 34v34h205v-34q-42 0 -56 -7.5t-14 -26.5v-449h-28zM288 575v6l-1 -1l86 164h87v-8l1 1l-129 -162h-44z" />
    <glyph glyph-name="Ncommaaccent" unicode="&#x145;" horiz-adv-x="812" 
d="M205 556h-12v-465q0 -34 27.5 -44.5t92.5 -10.5v-36h-253v36q51 0 75 11t24 44v511q-23 27 -45 40t-59 14v35h166l399 -511h12v424q0 52 -122 52v35h245v-35q-51 -1 -70.5 -13t-19.5 -39v-614h-19zM392 -90q0 14 11 25t30 11q26 0 43.5 -22.5t17.5 -56.5q0 -65 -79 -108
l-16 23q48 28 48 59q0 19 -31 38q-24 16 -24 31z" />
    <glyph glyph-name="ncommaaccent" unicode="&#x146;" horiz-adv-x="689" 
d="M528 -7l-343 413v-336q0 -22 21.5 -28.5t70.5 -6.5v-35h-210v35q39 0 57 6.5t18 28.5v375q-31 30 -79 31v34h146l305 -368v300q0 34 -93 34v34h205v-34q-42 0 -56 -7.5t-14 -26.5v-449h-28zM313 -93q0 14 11.5 25t29.5 11q26 0 43.5 -22.5t17.5 -56.5q0 -65 -78 -109
l-16 23q47 27 47 60q0 18 -30 38q-25 17 -25 31z" />
    <glyph glyph-name="Ncaron" unicode="&#x147;" horiz-adv-x="812" 
d="M205 556h-12v-465q0 -34 27.5 -44.5t92.5 -10.5v-36h-253v36q51 0 75 11t24 44v511q-23 27 -45 40t-59 14v35h166l399 -511h12v424q0 52 -122 52v35h245v-35q-51 -1 -70.5 -13t-19.5 -39v-614h-19zM553 885v-6l-119 -128h-43l-119 128v6h38l102 -71l103 71h38z" />
    <glyph glyph-name="ncaron" unicode="&#x148;" horiz-adv-x="689" 
d="M528 -7l-343 413v-336q0 -22 21.5 -28.5t70.5 -6.5v-35h-210v35q39 0 57 6.5t18 28.5v375q-31 30 -79 31v34h146l305 -368v300q0 34 -93 34v34h205v-34q-42 0 -56 -7.5t-14 -26.5v-449h-28zM485 744v-6l1 1l-121 -164h-42l-121 164l1 -1v6h38l103 -103l103 103h38z" />
    <glyph glyph-name="Omacron" unicode="&#x14c;" horiz-adv-x="801" 
d="M720 345q0 -151 -94.5 -254t-224.5 -103q-136 0 -228 100t-92 257q0 158 92 257t228 99q131 0 225 -100.5t94 -255.5zM612 345q0 98 -18.5 165t-67 108.5t-125.5 41.5q-115 0 -163 -80.5t-48 -234.5q0 -152 48.5 -233.5t162.5 -81.5q105 0 158 84t53 231zM524 784h-245
v54h245v-54z" />
    <glyph glyph-name="omacron" unicode="&#x14d;" horiz-adv-x="657" 
d="M581 254q0 -111 -75 -188.5t-178 -77.5q-108 0 -180 75t-72 191q0 118 72 192t180 74q104 0 178.5 -75.5t74.5 -190.5zM481 254q0 227 -153 227q-83 0 -118 -58.5t-35 -168.5q0 -227 153 -227q76 0 114.5 61.5t38.5 165.5zM451 597h-246v54h246v-54z" />
    <glyph glyph-name="Ohungarumlaut" unicode="&#x150;" horiz-adv-x="801" 
d="M720 345q0 -151 -94.5 -254t-224.5 -103q-136 0 -228 100t-92 257q0 158 92 257t228 99q131 0 225 -100.5t94 -255.5zM612 345q0 98 -18.5 165t-67 108.5t-125.5 41.5q-115 0 -163 -80.5t-48 -234.5q0 -152 48.5 -233.5t162.5 -81.5q105 0 158 84t53 231zM432 751v6
l-1 -1l85 129h86v-8l3 1l-139 -127h-34zM291 751v6l-1 -1l85 129h87v-8l2 1l-139 -127h-34z" />
    <glyph glyph-name="ohungarumlaut" unicode="&#x151;" horiz-adv-x="657" 
d="M581 254q0 -111 -75 -188.5t-178 -77.5q-108 0 -180 75t-72 191q0 118 72 192t180 74q104 0 178.5 -75.5t74.5 -190.5zM481 254q0 227 -153 227q-83 0 -118 -58.5t-35 -168.5q0 -227 153 -227q76 0 114.5 61.5t38.5 165.5zM222 575v6l-1 -1l85 164h87v-8l1 1l-139 -162
h-33zM363 575v6l-1 -1l86 164h86v-8l-138 -161h-33z" />
    <glyph glyph-name="OE" unicode="&#x152;" horiz-adv-x="1052" 
d="M965 244l-13 -244h-470q-39 -12 -82 -12q-136 0 -228 100t-92 257q0 158 92 257t228 99q35 0 77 -10h444q1 -36 5 -107t6 -107h-29q-18 102 -49.5 140.5t-103.5 38.5h-173v-297h80q105 0 105 138h26v-310h-26q0 82 -22 107.5t-89 25.5h-74v-284h198q74 0 116 64t42 144
h32zM400 30q48 0 83 16v600q-37 14 -83 14q-115 0 -163 -80.5t-48 -234.5q0 -152 48.5 -233.5t162.5 -81.5z" />
    <glyph glyph-name="oe" unicode="&#x153;" horiz-adv-x="870" 
d="M783 186l-11 -186h-370q-36 -12 -74 -12q-108 0 -180 75t-72 191q0 118 72 192t180 74q33 0 71 -10h350l9 -164h-29q-13 73 -36 101.5t-72 28.5h-130v-207h57q73 0 73 101h26v-234h-26q0 58 -16 77t-62 19h-52v-197h147q53 0 83.5 46t30.5 105h31zM328 27q44 0 73 19v417
q-34 18 -73 18q-83 0 -118 -58.5t-35 -168.5q0 -227 153 -227z" />
    <glyph glyph-name="Racute" unicode="&#x154;" horiz-adv-x="743" 
d="M439 357v-10q72 -10 111.5 -51t50.5 -146q12 -75 33 -98.5t71 -24.5v-34q-120 1 -164 37t-44 128q0 103 -43 141.5t-127 38.5h-61v-251q0 -34 18.5 -42.5t87.5 -8.5v-36h-304v36q65 2 84 10.5t19 40.5v531q0 25 -18 31.5t-85 6.5v35h316q97 0 155.5 -40.5t58.5 -119.5
q0 -77 -46.5 -119.5t-112.5 -54.5zM502 526q0 69 -37 99.5t-114 30.5h-85v-281h94q142 0 142 151zM296 751v6l-1 -1l85 129h87v-8l2 1l-129 -127h-44z" />
    <glyph glyph-name="racute" unicode="&#x155;" horiz-adv-x="640" 
d="M390 267v-8q54 -11 86.5 -42t35.5 -98q2 -51 20 -69t59 -19v-33h-44q-61 0 -97 31t-36 95q0 72 -32.5 99t-93.5 27h-53v-182q0 -21 16 -27t66 -6v-35h-249v35q50 1 63.5 6t13.5 27v385q0 15 -13.5 19t-63.5 4v34h265q77 0 124.5 -30.5t47.5 -89.5q0 -51 -33 -81t-82 -42z
M414 386q0 48 -26.5 69t-80.5 21h-72v-191h79q100 0 100 101zM247 575v6l-1 -1l86 164h86v-8l1 1l-129 -162h-43z" />
    <glyph glyph-name="Rcaron" unicode="&#x158;" horiz-adv-x="743" 
d="M439 357v-10q72 -10 111.5 -51t50.5 -146q12 -75 33 -98.5t71 -24.5v-34q-120 1 -164 37t-44 128q0 103 -43 141.5t-127 38.5h-61v-251q0 -34 18.5 -42.5t87.5 -8.5v-36h-304v36q65 2 84 10.5t19 40.5v531q0 25 -18 31.5t-85 6.5v35h316q97 0 155.5 -40.5t58.5 -119.5
q0 -77 -46.5 -119.5t-112.5 -54.5zM502 526q0 69 -37 99.5t-114 30.5h-85v-281h94q142 0 142 151zM492 885v-6l-120 -128h-42l-120 128v6h38l103 -71l103 71h38z" />
    <glyph glyph-name="rcaron" unicode="&#x159;" horiz-adv-x="640" 
d="M390 267v-8q54 -11 86.5 -42t35.5 -98q2 -51 20 -69t59 -19v-33h-44q-61 0 -97 31t-36 95q0 72 -32.5 99t-93.5 27h-53v-182q0 -21 16 -27t66 -6v-35h-249v35q50 1 63.5 6t13.5 27v385q0 15 -13.5 19t-63.5 4v34h265q77 0 124.5 -30.5t47.5 -89.5q0 -51 -33 -81t-82 -42z
M414 386q0 48 -26.5 69t-80.5 21h-72v-191h79q100 0 100 101zM444 744v-6l1 1l-121 -164h-43l-121 164l1 -1v6h39l102 -103l103 103h39z" />
    <glyph glyph-name="Sacute" unicode="&#x15a;" horiz-adv-x="660" 
d="M173 57l-10 -1l-14 -56h-34l-7 276h29q24 -128 78 -188.5t152 -60.5q71 0 109.5 34t38.5 82q0 53 -45 92t-174 78q-190 59 -190 207q0 82 56 131.5t134 49.5q91 0 178 -64l11 2l17 56h29q0 -43 1 -127.5t1 -127.5h-26q-31 114 -83 168.5t-127 54.5q-57 0 -89.5 -35
t-32.5 -81q0 -48 49 -85.5t161 -72.5q108 -33 152 -82.5t44 -126.5q0 -83 -59.5 -137.5t-152.5 -54.5q-119 0 -196 69zM252 751v6l-1 -1l86 129h86v-8l2 1l-128 -127h-45z" />
    <glyph glyph-name="sacute" unicode="&#x15b;" horiz-adv-x="567" 
d="M152 34l-10 -37h-32q0 35 -2 104.5t-3 104.5h28q39 -181 178 -181q50 0 77.5 24t27.5 57q0 36 -30.5 59.5t-129.5 57.5q-82 27 -117 62t-35 94q0 64 45 102.5t108 38.5q72 0 145 -43q2 7 8.5 21.5t7.5 16.5h28q0 -33 1 -97t1 -97h-27q-25 80 -67.5 121.5t-95.5 41.5
q-39 0 -62 -20.5t-23 -55.5t33.5 -59.5t133.5 -59.5q76 -26 110 -63t34 -89q0 -64 -49.5 -106.5t-126.5 -42.5q-82 0 -156 46zM233 575v6l-1 -1l86 164h86v-8l1 1l-129 -162h-43z" />
    <glyph glyph-name="Scircumflex" unicode="&#x15c;" horiz-adv-x="660" 
d="M173 57l-10 -1l-14 -56h-34l-7 276h29q24 -128 78 -188.5t152 -60.5q71 0 109.5 34t38.5 82q0 53 -45 92t-174 78q-190 59 -190 207q0 82 56 131.5t134 49.5q91 0 178 -64l11 2l17 56h29q0 -43 1 -127.5t1 -127.5h-26q-31 114 -83 168.5t-127 54.5q-57 0 -89.5 -35
t-32.5 -81q0 -48 49 -85.5t161 -72.5q108 -33 152 -82.5t44 -126.5q0 -83 -59.5 -137.5t-152.5 -54.5q-119 0 -196 69zM449 757v-6h-39l-102 72l-103 -72h-38v6l-1 -1l121 129h42z" />
    <glyph glyph-name="scircumflex" unicode="&#x15d;" horiz-adv-x="567" 
d="M152 34l-10 -37h-32q0 35 -2 104.5t-3 104.5h28q39 -181 178 -181q50 0 77.5 24t27.5 57q0 36 -30.5 59.5t-129.5 57.5q-82 27 -117 62t-35 94q0 64 45 102.5t108 38.5q72 0 145 -43q2 7 8.5 21.5t7.5 16.5h28q0 -33 1 -97t1 -97h-27q-25 80 -67.5 121.5t-95.5 41.5
q-39 0 -62 -20.5t-23 -55.5t33.5 -59.5t133.5 -59.5q76 -26 110 -63t34 -89q0 -64 -49.5 -106.5t-126.5 -42.5q-82 0 -156 46zM429 581v-6h-38l-103 102l-103 -102h-38v6l-1 -1l121 164h42l121 -164z" />
    <glyph glyph-name="Scedilla" unicode="&#x15e;" horiz-adv-x="660" 
d="M317 -216l-6 21q86 18 86 63q0 22 -21 33t-55 11q-19 0 -27 -1l-3 5l38 74q-94 12 -162 73l-18 -63h-34l-7 276h29q24 -128 78 -188.5t152 -60.5q71 0 109.5 34t38.5 82q0 53 -45 92t-174 78q-190 59 -190 207q0 82 56 131.5t134 49.5q91 0 178 -64l11 2l17 56h29
q0 -43 1 -127.5t1 -127.5h-26q-31 114 -83 168.5t-127 54.5q-57 0 -89.5 -35t-32.5 -81q0 -48 49 -85.5t161 -72.5q108 -33 152 -82.5t44 -126.5q0 -83 -60.5 -137.5t-154.5 -54.5l-21 -34q47 0 77 -17.5t30 -53.5t-39 -63t-96 -36z" />
    <glyph glyph-name="scedilla" unicode="&#x15f;" horiz-adv-x="567" 
d="M258 -220l-6 21q87 20 87 64q0 22 -21.5 33t-55.5 11q-19 0 -27 -1l-3 4l40 78q-70 9 -120 44l-10 -37h-32q0 35 -2 104.5t-3 104.5h28q39 -181 178 -181q50 0 77.5 24t27.5 57q0 36 -30.5 59.5t-129.5 57.5q-82 27 -117 62t-35 94q0 64 45 102.5t108 38.5q72 0 145 -43
q2 7 8.5 21.5t7.5 16.5h28q0 -33 1 -97t1 -97h-27q-25 80 -67.5 121.5t-95.5 41.5q-39 0 -62 -20.5t-23 -55.5t33.5 -59.5t133.5 -59.5q76 -26 110 -63t34 -89q0 -64 -49.5 -106t-127.5 -43l-21 -37q47 0 77 -17.5t30 -53.5t-39 -63.5t-96 -36.5z" />
    <glyph glyph-name="Scaron" unicode="&#x160;" horiz-adv-x="660" 
d="M173 57l-10 -1l-14 -56h-34l-7 276h29q24 -128 78 -188.5t152 -60.5q71 0 109.5 34t38.5 82q0 53 -45 92t-174 78q-190 59 -190 207q0 82 56 131.5t134 49.5q91 0 178 -64l11 2l17 56h29q0 -43 1 -127.5t1 -127.5h-26q-31 114 -83 168.5t-127 54.5q-57 0 -89.5 -35
t-32.5 -81q0 -48 49 -85.5t161 -72.5q108 -33 152 -82.5t44 -126.5q0 -83 -59.5 -137.5t-152.5 -54.5q-119 0 -196 69zM449 885v-6l-120 -128h-42l-120 128v6h38l103 -71l102 71h39z" />
    <glyph glyph-name="scaron" unicode="&#x161;" horiz-adv-x="567" 
d="M152 34l-10 -37h-32q0 35 -2 104.5t-3 104.5h28q39 -181 178 -181q50 0 77.5 24t27.5 57q0 36 -30.5 59.5t-129.5 57.5q-82 27 -117 62t-35 94q0 64 45 102.5t108 38.5q72 0 145 -43q2 7 8.5 21.5t7.5 16.5h28q0 -33 1 -97t1 -97h-27q-25 80 -67.5 121.5t-95.5 41.5
q-39 0 -62 -20.5t-23 -55.5t33.5 -59.5t133.5 -59.5q76 -26 110 -63t34 -89q0 -64 -49.5 -106.5t-126.5 -42.5q-82 0 -156 46zM429 744v-6l1 1l-121 -164h-42l-121 164l1 -1v6h38l103 -103l103 103h38z" />
    <glyph glyph-name="Tcommaaccent" unicode="&#x162;" horiz-adv-x="714" 
d="M648 443h-28q0 98 -40.5 155.5t-112.5 57.5h-62v-579q-1 -28 20.5 -34.5t82.5 -6.5v-36h-302v36q56 0 80 7.5t24 28.5v584h-45q-72 0 -120 -58t-48 -155h-31v248h582v-248zM316 -90q0 14 11 25t29 11q26 0 43.5 -22.5t17.5 -56.5q0 -64 -78 -108l-16 23q47 27 47 59
q0 18 -30 38q-24 16 -24 31z" />
    <glyph glyph-name="Tcommaaccent" unicode="&#x21a;" horiz-adv-x="714" 
d="M648 443h-28q0 98 -40.5 155.5t-112.5 57.5h-62v-579q-1 -28 20.5 -34.5t82.5 -6.5v-36h-302v36q56 0 80 7.5t24 28.5v584h-45q-72 0 -120 -58t-48 -155h-31v248h582v-248zM316 -90q0 14 11 25t29 11q26 0 43.5 -22.5t17.5 -56.5q0 -64 -78 -108l-16 23q47 27 47 59
q0 18 -30 38q-24 16 -24 31z" />
    <glyph glyph-name="tcommaaccent" unicode="&#x163;" horiz-adv-x="605" 
d="M539 322h-29q0 71 -28.5 112.5t-80.5 41.5h-52v-405q-1 -25 12 -30.5t45 -5.5h20v-35h-248v35h16q64 0 64 36v405h-41q-51 0 -85.5 -42.5t-34.5 -111.5h-30v188h472v-188zM261 -93q0 14 11 25t29 11q26 0 44 -22.5t18 -56.5q0 -66 -79 -109l-16 23q47 27 47 60
q0 18 -30 38q-24 16 -24 31z" />
    <glyph glyph-name="tcommaaccent" unicode="&#x21b;" horiz-adv-x="605" 
d="M539 322h-29q0 71 -28.5 112.5t-80.5 41.5h-52v-405q-1 -25 12 -30.5t45 -5.5h20v-35h-248v35h16q64 0 64 36v405h-41q-51 0 -85.5 -42.5t-34.5 -111.5h-30v188h472v-188zM261 -93q0 14 11 25t29 11q26 0 44 -22.5t18 -56.5q0 -66 -79 -109l-16 23q47 27 47 60
q0 18 -30 38q-24 16 -24 31z" />
    <glyph glyph-name="Tcaron" unicode="&#x164;" horiz-adv-x="714" 
d="M648 443h-28q0 98 -40.5 155.5t-112.5 57.5h-62v-579q-1 -28 20.5 -34.5t82.5 -6.5v-36h-302v36q56 0 80 7.5t24 28.5v584h-45q-72 0 -120 -58t-48 -155h-31v248h582v-248zM498 885v-6l-120 -128h-42l-120 128v6h38l103 -71l103 71h38z" />
    <glyph glyph-name="tcaron" unicode="&#x165;" horiz-adv-x="605" 
d="M539 322h-29q0 71 -28.5 112.5t-80.5 41.5h-52v-405q-1 -25 12 -30.5t45 -5.5h20v-35h-248v35h16q64 0 64 36v405h-41q-51 0 -85.5 -42.5t-34.5 -111.5h-30v188h472v-188zM443 744v-6l2 1l-121 -164h-43l-121 164l1 -1v6h39l102 -103l103 103h38z" />
    <glyph glyph-name="Umacron" unicode="&#x16a;" horiz-adv-x="806" 
d="M752 691v-35q-54 0 -75.5 -10.5t-21.5 -34.5v-330q0 -145 -57.5 -219t-194.5 -74q-254 0 -254 236v390q0 29 -14.5 35.5t-80.5 6.5v35h288v-35q-64 0 -81 -7t-17 -35v-390q0 -97 47.5 -146.5t125.5 -49.5q50 0 87 15t57.5 38t33 58.5t16 67.5t3.5 74v330q0 24 -26 34.5
t-92 10.5v35h256zM550 784h-245v54h245v-54z" />
    <glyph glyph-name="umacron" unicode="&#x16b;" horiz-adv-x="677" 
d="M620 510v-34q-47 0 -63.5 -6.5t-16.5 -21.5v-244q0 -107 -45.5 -161.5t-155.5 -54.5q-208 0 -208 175v287q0 18 -11 22t-62 4v34h238v-34q-49 0 -62 -4.5t-13 -21.5v-287q0 -62 37 -92.5t104 -30.5q129 0 129 164v244q0 15 -20 21.5t-71 6.5v34h220zM474 597h-246v54h246
v-54z" />
    <glyph glyph-name="Ubreve" unicode="&#x16c;" horiz-adv-x="806" 
d="M752 691v-35q-54 0 -75.5 -10.5t-21.5 -34.5v-330q0 -145 -57.5 -219t-194.5 -74q-254 0 -254 236v390q0 29 -14.5 35.5t-80.5 6.5v35h288v-35q-64 0 -81 -7t-17 -35v-390q0 -97 47.5 -146.5t125.5 -49.5q50 0 87 15t57.5 38t33 58.5t16 67.5t3.5 74v330q0 24 -26 34.5
t-92 10.5v35h256zM427 751q-48 0 -81 32.5t-34 96.5h30q1 -30 25 -51.5t60 -21.5q34 0 59.5 21t26.5 52h30q-1 -64 -34.5 -96.5t-81.5 -32.5z" />
    <glyph glyph-name="ubreve" unicode="&#x16d;" horiz-adv-x="677" 
d="M620 510v-34q-47 0 -63.5 -6.5t-16.5 -21.5v-244q0 -107 -45.5 -161.5t-155.5 -54.5q-208 0 -208 175v287q0 18 -11 22t-62 4v34h238v-34q-49 0 -62 -4.5t-13 -21.5v-287q0 -62 37 -92.5t104 -30.5q129 0 129 164v244q0 15 -20 21.5t-71 6.5v34h220zM351 575
q-48 0 -82 38t-34 111h30q1 -36 25 -62.5t61 -26.5q35 0 60 25t25 64h31q-1 -72 -35 -110.5t-81 -38.5z" />
    <glyph glyph-name="Uring" unicode="&#x16e;" horiz-adv-x="806" 
d="M752 691v-35q-54 0 -75.5 -10.5t-21.5 -34.5v-330q0 -145 -57.5 -219t-194.5 -74q-254 0 -254 236v390q0 29 -14.5 35.5t-80.5 6.5v35h288v-35q-64 0 -81 -7t-17 -35v-390q0 -97 47.5 -146.5t125.5 -49.5q50 0 87 15t57.5 38t33 58.5t16 67.5t3.5 74v330q0 24 -26 34.5
t-92 10.5v35h256zM338 844q0 38 26 65t63 27t63.5 -27t26.5 -65t-26.5 -65.5t-63.5 -27.5t-63 27.5t-26 65.5zM374 844q0 -23 14 -38t38 -15t39 15t15 38t-15 39t-39 16q-23 0 -37.5 -16t-14.5 -39z" />
    <glyph glyph-name="uring" unicode="&#x16f;" horiz-adv-x="677" 
d="M620 510v-34q-47 0 -63.5 -6.5t-16.5 -21.5v-244q0 -107 -45.5 -161.5t-155.5 -54.5q-208 0 -208 175v287q0 18 -11 22t-62 4v34h238v-34q-49 0 -62 -4.5t-13 -21.5v-287q0 -62 37 -92.5t104 -30.5q129 0 129 164v244q0 15 -20 21.5t-71 6.5v34h220zM261 657q0 39 26 66
t64 27q37 0 63 -27t26 -66q0 -38 -26 -65.5t-63 -27.5t-63.5 27.5t-26.5 65.5zM297 657q0 -23 14.5 -38t38.5 -15t38.5 15t14.5 38t-15 39.5t-38 16.5t-38 -16.5t-15 -39.5z" />
    <glyph glyph-name="Uhungarumlaut" unicode="&#x170;" horiz-adv-x="806" 
d="M752 691v-35q-54 0 -75.5 -10.5t-21.5 -34.5v-330q0 -145 -57.5 -219t-194.5 -74q-254 0 -254 236v390q0 29 -14.5 35.5t-80.5 6.5v35h288v-35q-64 0 -81 -7t-17 -35v-390q0 -97 47.5 -146.5t125.5 -49.5q50 0 87 15t57.5 38t33 58.5t16 67.5t3.5 74v330q0 24 -26 34.5
t-92 10.5v35h256zM458 751v6l-1 -1l85 129h87v-8l2 1l-139 -127h-34zM317 751v6l-1 -1l85 129h87v-8l2 1l-139 -127h-34z" />
    <glyph glyph-name="uhungarumlaut" unicode="&#x171;" horiz-adv-x="677" 
d="M620 510v-34q-47 0 -63.5 -6.5t-16.5 -21.5v-244q0 -107 -45.5 -161.5t-155.5 -54.5q-208 0 -208 175v287q0 18 -11 22t-62 4v34h238v-34q-49 0 -62 -4.5t-13 -21.5v-287q0 -62 37 -92.5t104 -30.5q129 0 129 164v244q0 15 -20 21.5t-71 6.5v34h220zM386 575v6l-1 -1
l86 164h86v-8l1 1l-139 -162h-33zM245 575v6l-1 -1l86 164h86v-8l1 1l-139 -162h-33z" />
    <glyph glyph-name="Uogonek" unicode="&#x172;" horiz-adv-x="806" 
d="M752 691v-35q-54 0 -75.5 -10.5t-21.5 -34.5v-330q0 -116 -36.5 -187t-120.5 -95q-61 -42 -61 -104q0 -64 50 -64q8 0 11 1v-29q-14 -3 -29 -3q-38 0 -65.5 20t-27.5 56q0 63 69 115q-39 -3 -42 -3q-254 0 -254 236v390q0 29 -14.5 35.5t-80.5 6.5v35h288v-35
q-64 0 -81 -7t-17 -35v-390q0 -97 47.5 -146.5t125.5 -49.5q50 0 87 15t57.5 38t33 58.5t16 67.5t3.5 74v330q0 24 -26 34.5t-92 10.5v35h256z" />
    <glyph glyph-name="uogonek" unicode="&#x173;" horiz-adv-x="677" 
d="M620 510v-34q-47 0 -63.5 -6.5t-16.5 -21.5v-244q0 -162 -105 -202q-54 -39 -54 -98q0 -64 50 -64q8 0 11 1v-29q-18 -4 -29 -4q-37 0 -64.5 20.5t-27.5 56.5q0 55 57 105q-18 -2 -39 -2q-208 0 -208 175v287q0 18 -11 22t-62 4v34h238v-34q-49 0 -62 -4.5t-13 -21.5
v-287q0 -62 37 -92.5t104 -30.5q129 0 129 164v244q0 15 -20 21.5t-71 6.5v34h220z" />
    <glyph glyph-name="Wcircumflex" unicode="&#x174;" horiz-adv-x="1027" 
d="M708 176h15l120 367q9 31 9 48q0 68 -93 65v35h226v-35q-41 -1 -62.5 -26t-42.5 -87q-18 -55 -185 -559h-17l-152 459q-28 -77 -88 -238t-82 -221h-15l-197 594q-18 46 -39.5 61.5t-62.5 16.5v35h261v-35q-39 1 -53.5 -7.5t-14.5 -28.5q0 -15 9 -44l129 -400h16l120 319
l-27 83q-17 50 -34 64t-67 14v35h260v-35q-39 0 -54 -6.5t-15 -22.5q0 -12 7 -38l5 -15zM670 757v-6h-38l-103 72l-103 -72h-38v6l-1 -1l121 129h42z" />
    <glyph glyph-name="wcircumflex" unicode="&#x175;" horiz-adv-x="833" 
d="M562 162h19l84 237q7 17 7 34q0 22 -16 32.5t-55 10.5v34h190v-34q-34 -1 -50 -18t-32 -62l-149 -408h-23l-116 321l-120 -321h-22l-156 434q-11 32 -28.5 42.5t-52.5 11.5v34h217v-34q-37 1 -47 -13t1 -39l94 -262h17l76 205l-19 55q-13 37 -25 45.5t-54 8.5v34h216v-34
q-39 1 -46.5 -10.5t2.5 -44.5zM562 581v-6h-38l-103 102l-102 -102h-39v6l-1 -1l121 164h42l121 -164z" />
    <glyph glyph-name="Ycircumflex" unicode="&#x176;" horiz-adv-x="734" 
d="M691 691v-35q-70 -3 -118 -81l-146 -266v-184q0 -59 20 -74t84 -15v-36h-300v36q71 0 86.5 14t15.5 75v180l-159 260q-40 57 -61.5 73.5t-69.5 17.5v35h285v-35q-78 -2 -78 -31q0 -11 19 -41l140 -232l128 231q10 17 10 32q0 38 -61 41v35h205zM555 757v-6h-38l-103 72
l-102 -72h-38v6l-1 -1l120 129h43z" />
    <glyph glyph-name="ycircumflex" unicode="&#x177;" horiz-adv-x="609" 
d="M566 510v-34q-26 -1 -49 -16.5t-36 -39.5l-121 -202v-123q0 -40 15 -50t64 -10v-35h-246v35q54 0 65.5 9.5t11.5 50.5v115l-130 202q-26 38 -43.5 50.5t-53.5 13.5v34h235v-34q-45 -2 -56.5 -10.5t5.5 -34.5l111 -171l99 169q12 19 0.5 32.5t-45.5 14.5v34h174zM479 581
v-6h-39l-102 102l-103 -102h-38v6l-1 -1l120 164h43l121 -164z" />
    <glyph glyph-name="Ydieresis" unicode="&#x178;" horiz-adv-x="734" 
d="M691 691v-35q-70 -3 -118 -81l-146 -266v-184q0 -59 20 -74t84 -15v-36h-300v36q71 0 86.5 14t15.5 75v180l-159 260q-40 57 -61.5 73.5t-69.5 17.5v35h285v-35q-78 -2 -78 -31q0 -11 19 -41l140 -232l128 231q10 17 10 32q0 38 -61 41v35h205zM548 831q0 -19 -14.5 -34
t-32.5 -15q-19 0 -33.5 15t-14.5 34q0 20 14.5 35.5t33.5 15.5q18 0 32.5 -15.5t14.5 -35.5zM376 831q0 -20 -14 -34.5t-33 -14.5t-33.5 15t-14.5 34q0 20 14.5 35.5t33.5 15.5t33 -15.5t14 -35.5z" />
    <glyph glyph-name="Zacute" unicode="&#x179;" horiz-adv-x="726" 
d="M79 0v21l-1 -1l431 630l-5 6h-205q-67 0 -113 -63.5t-52 -148.5h-31l10 247h529v-19l1 1l-436 -629l2 -6h214q71 0 120 63.5t62 167.5h32l-19 -269h-539zM329 751v6l-1 -1l85 129h87v-8l2 1l-129 -127h-44z" />
    <glyph glyph-name="zacute" unicode="&#x17a;" horiz-adv-x="614" 
d="M199 46l3 -10h164q108 0 131 168h30q-2 -35 -7 -102.5t-7 -101.5h-429v20l-1 -1l326 448l-5 9h-154q-107 0 -117 -154h-31l7 188h422v-18l1 1zM270 575v6l-1 -1l86 164h86v-8l1 1l-129 -162h-43z" />
    <glyph glyph-name="Zdotaccent" unicode="&#x17b;" horiz-adv-x="726" 
d="M79 0v21l-1 -1l431 630l-5 6h-205q-67 0 -113 -63.5t-52 -148.5h-31l10 247h529v-19l1 1l-436 -629l2 -6h214q71 0 120 63.5t62 167.5h32l-19 -269h-539zM324 826q0 26 17 44.5t42 18.5t43.5 -18.5t18.5 -44.5t-18.5 -44.5t-43.5 -18.5t-42 18.5t-17 44.5z" />
    <glyph glyph-name="zdotaccent" unicode="&#x17c;" horiz-adv-x="614" 
d="M199 46l3 -10h164q108 0 131 168h30q-2 -35 -7 -102.5t-7 -101.5h-429v20l-1 -1l326 448l-5 9h-154q-107 0 -117 -154h-31l7 188h422v-18l1 1zM265 669q0 27 17.5 45.5t42.5 18.5t43 -18.5t18 -45.5q0 -26 -18 -44t-43 -18t-42.5 18t-17.5 44z" />
    <glyph glyph-name="Zcaron" unicode="&#x17d;" horiz-adv-x="726" 
d="M79 0v21l-1 -1l431 630l-5 6h-205q-67 0 -113 -63.5t-52 -148.5h-31l10 247h529v-19l1 1l-436 -629l2 -6h214q71 0 120 63.5t62 167.5h32l-19 -269h-539zM525 885v-6l-120 -128h-42l-120 128v6h39l102 -71l103 71h38z" />
    <glyph glyph-name="zcaron" unicode="&#x17e;" horiz-adv-x="614" 
d="M199 46l3 -10h164q108 0 131 168h30q-2 -35 -7 -102.5t-7 -101.5h-429v20l-1 -1l326 448l-5 9h-154q-107 0 -117 -154h-31l7 188h422v-18l1 1zM467 744v-6l1 1l-121 -164h-43l-121 164l1 -1v6h39l103 -103l102 103h39z" />
    <glyph glyph-name="florin" unicode="&#x192;" horiz-adv-x="544" 
d="M98 316l11 40h97v4l25 102q18 70 70 125t128 55q55 0 91.5 -21t36.5 -49q0 -18 -11.5 -30t-34.5 -12q-13 0 -22 5t-13 10.5t-10 16.5q-9 15 -13 20.5t-15 13t-24 7.5q-29 0 -50 -37.5t-42 -108.5l-26 -95v-6h120l-11 -40h-120v-4l-90 -334q-24 -86 -67 -138t-102 -52
q-41 0 -70.5 18.5t-29.5 47.5q0 17 10.5 29t27.5 12q5 0 9 -1t8 -3.5t6.5 -4t6.5 -7t5 -6.5t5 -7l5 -7q21 -34 34 -34q34 0 66 137l88 348v6h-99z" />
    <glyph glyph-name="Scommaaccent" unicode="&#x218;" horiz-adv-x="660" 
d="M173 57l-10 -1l-14 -56h-34l-7 276h29q24 -128 78 -188.5t152 -60.5q71 0 109.5 34t38.5 82q0 53 -45 92t-174 78q-190 59 -190 207q0 82 56 131.5t134 49.5q91 0 178 -64l11 2l17 56h29q0 -43 1 -127.5t1 -127.5h-26q-31 114 -83 168.5t-127 54.5q-57 0 -89.5 -35
t-32.5 -81q0 -48 49 -85.5t161 -72.5q108 -33 152 -82.5t44 -126.5q0 -83 -59.5 -137.5t-152.5 -54.5q-119 0 -196 69zM320 -90q0 14 11 25t29 11q26 0 43.5 -22.5t17.5 -56.5q0 -64 -78 -108l-16 23q47 27 47 59q0 18 -30 38q-24 16 -24 31z" />
    <glyph glyph-name="scommaaccent" unicode="&#x219;" horiz-adv-x="567" 
d="M152 34l-10 -37h-32q0 35 -2 104.5t-3 104.5h28q39 -181 178 -181q50 0 77.5 24t27.5 57q0 36 -30.5 59.5t-129.5 57.5q-82 27 -117 62t-35 94q0 64 45 102.5t108 38.5q72 0 145 -43q2 7 8.5 21.5t7.5 16.5h28q0 -33 1 -97t1 -97h-27q-25 80 -67.5 121.5t-95.5 41.5
q-39 0 -62 -20.5t-23 -55.5t33.5 -59.5t133.5 -59.5q76 -26 110 -63t34 -89q0 -64 -49.5 -106.5t-126.5 -42.5q-82 0 -156 46zM261 -93q0 14 11 25t29 11q26 0 44 -22.5t18 -56.5q0 -66 -79 -109l-16 23q47 27 47 60q0 18 -30 38q-24 16 -24 31z" />
    <glyph glyph-name="quoteleft" unicode="&#x2bb;" horiz-adv-x="375" 
d="M260 474q0 -29 -20 -47.5t-54 -18.5q-35 0 -60 27.5t-25 70.5q0 127 119 212l12.5 -17.5t9.5 -12.5q-108 -79 -93 -194q37 32 61 32q21 0 35.5 -13.5t14.5 -38.5z" />
    <glyph glyph-name="quoteleft" unicode="&#x2018;" horiz-adv-x="375" 
d="M260 474q0 -29 -20 -47.5t-54 -18.5q-35 0 -60 27.5t-25 70.5q0 127 119 212l12.5 -17.5t9.5 -12.5q-108 -79 -93 -194q37 32 61 32q21 0 35.5 -13.5t14.5 -38.5z" />
    <glyph glyph-name="circumflex" unicode="&#x2c6;" horiz-adv-x="500" 
d="M391 507v-6h-38l-103 102l-102 -102h-38v6l-1 -1l120 164h43l120 -164z" />
    <glyph glyph-name="caron" unicode="&#x2c7;" horiz-adv-x="500" 
d="M391 670v-6l1 1l-120 -164h-43l-120 164l1 -1v6h38l102 -103l103 103h38z" />
    <glyph glyph-name="breve" unicode="&#x2d8;" horiz-adv-x="500" 
d="M250 501q-48 0 -81.5 38t-33.5 111h30q1 -36 25 -62.5t60 -26.5q35 0 60.5 25t25.5 64h30q-1 -72 -35 -110.5t-81 -38.5z" />
    <glyph glyph-name="dotaccent" unicode="&#x2d9;" horiz-adv-x="500" 
d="M190 595q0 27 17 45.5t42 18.5q26 0 44 -18.5t18 -45.5q0 -26 -18 -44t-44 -18q-25 0 -42 18t-17 44z" />
    <glyph glyph-name="ring" unicode="&#x2da;" horiz-adv-x="500" 
d="M161 583q0 39 26 66t63 27q38 0 64 -27t26 -66q0 -38 -26.5 -65t-63.5 -27t-63 27t-26 65zM197 583q0 -23 14 -38t38 -15t39 15t15 38q0 24 -15 40t-39 16q-23 0 -37.5 -16t-14.5 -40z" />
    <glyph glyph-name="ogonek" unicode="&#x2db;" horiz-adv-x="500" 
d="M285 21v-5q-91 -50 -91 -121q0 -64 50 -64q8 0 11 1v-29q-14 -3 -29 -3q-37 0 -64.5 20t-27.5 56q0 92 137 153z" />
    <glyph glyph-name="tilde" unicode="&#x2dc;" horiz-adv-x="500" 
d="M383 646l17 -6q-14 -49 -41.5 -86.5t-51.5 -37.5q-12 0 -62 30q-48 30 -66 30q-31 0 -57 -60q-3 1 -10 3t-10 4q12 40 40 81t44 41q14 0 62 -31q46 -31 68 -31q18 0 38 20t29 43z" />
    <glyph glyph-name="hungarumlaut" unicode="&#x2dd;" horiz-adv-x="500" 
d="M144 501v6l-1 -1l85 164h87v-8l1 1l-139 -162h-33zM285 501v6l-1 -1l85 164h87v-8l-138 -161h-33z" />
    <glyph glyph-name="Delta" unicode="&#x394;" horiz-adv-x="544" 
d="M535 0h-523l223 630h48zM240 498l-152 -445v-7h325v7q-28 74 -86.5 222.5t-86.5 222.5z" />
    <glyph glyph-name="Delta" unicode="&#x2206;" horiz-adv-x="544" 
d="M535 0h-523l223 630h48zM240 498l-152 -445v-7h325v7q-28 74 -86.5 222.5t-86.5 222.5z" />
    <glyph glyph-name="Omega" unicode="&#x3a9;" horiz-adv-x="544" 
d="M273 596q-50 0 -85.5 -38t-50 -88.5t-14.5 -106.5q0 -137 37.5 -234.5t91.5 -114.5l-3 -14h-229l-18 138h30l42 -92v-3h55v2l6 10v6q-44 50 -73 129t-29 162q0 113 67.5 199t173.5 86t173.5 -86t67.5 -199q0 -83 -29 -162t-73 -129v-6l6 -10v-2h55v3l42 92h30l-19 -138
h-228l-3 14q54 17 91.5 114.5t37.5 234.5q0 55 -15 106.5t-51 89t-86 37.5z" />
    <glyph glyph-name="Omega" unicode="&#x2126;" horiz-adv-x="544" 
d="M273 596q-50 0 -85.5 -38t-50 -88.5t-14.5 -106.5q0 -137 37.5 -234.5t91.5 -114.5l-3 -14h-229l-18 138h30l42 -92v-3h55v2l6 10v6q-44 50 -73 129t-29 162q0 113 67.5 199t173.5 86t173.5 -86t67.5 -199q0 -83 -29 -162t-73 -129v-6l6 -10v-2h55v3l42 92h30l-19 -138
h-228l-3 14q54 17 91.5 114.5t37.5 234.5q0 55 -15 106.5t-51 89t-86 37.5z" />
    <glyph glyph-name="lambda" unicode="&#x3bb;" horiz-adv-x="528" 
d="M261 615l117 -464q17 -68 25.5 -88t22.5 -20q12 0 26 29q15 26 35 26q16 0 25 -11t9 -27q0 -30 -25 -49.5t-61 -19.5q-76 0 -103 109l-56 229l-152 -329h-101l218 471l-33 140q-22 85 -60 85q-15 0 -41 -34q-24 -32 -45 -32q-36 0 -36 35q0 29 31.5 52t81.5 23
q49 0 79 -35.5t43 -89.5z" />
    <glyph glyph-name="pi" unicode="&#x3c0;" horiz-adv-x="544" 
d="M170 20q-21 -32 -53 -32q-19 0 -33.5 11.5t-14.5 27.5q0 15 20 32q55 58 80.5 133t25.5 188v5h-31q-35 0 -53.5 -13t-27.5 -49l-28 5q14 60 37 85.5t64 25.5h340v-54h-103v-5l-22 -259q-4 -58 33 -58q41 0 65 64l25 -3q-35 -131 -113 -131q-43 0 -63.5 28.5t-15.5 76.5
l27 282v5h-86v-5q-5 -242 -73 -360z" />
    <glyph glyph-name="Wgrave" unicode="&#x1e80;" horiz-adv-x="1027" 
d="M708 176h15l120 367q9 31 9 48q0 68 -93 65v35h226v-35q-41 -1 -62.5 -26t-42.5 -87q-18 -55 -185 -559h-17l-152 459q-28 -77 -88 -238t-82 -221h-15l-197 594q-18 46 -39.5 61.5t-62.5 16.5v35h261v-35q-39 1 -53.5 -7.5t-14.5 -28.5q0 -15 9 -44l129 -400h16l120 319
l-27 83q-17 50 -34 64t-67 14v35h260v-35q-39 0 -54 -6.5t-15 -22.5q0 -12 7 -38l5 -15zM584 757v-6h-44l-129 127l2 -1v8h87l85 -129z" />
    <glyph glyph-name="wgrave" unicode="&#x1e81;" horiz-adv-x="833" 
d="M562 162h19l84 237q7 17 7 34q0 22 -16 32.5t-55 10.5v34h190v-34q-34 -1 -50 -18t-32 -62l-149 -408h-23l-116 321l-120 -321h-22l-156 434q-11 32 -28.5 42.5t-52.5 11.5v34h217v-34q-37 1 -47 -13t1 -39l94 -262h17l76 205l-19 55q-13 37 -25 45.5t-54 8.5v34h216v-34
q-39 1 -46.5 -10.5t2.5 -44.5zM477 581v-6h-44l-129 162l1 -1v8h86l87 -164z" />
    <glyph glyph-name="Wacute" unicode="&#x1e82;" horiz-adv-x="1027" 
d="M708 176h15l120 367q9 31 9 48q0 68 -93 65v35h226v-35q-41 -1 -62.5 -26t-42.5 -87q-18 -55 -185 -559h-17l-152 459q-28 -77 -88 -238t-82 -221h-15l-197 594q-18 46 -39.5 61.5t-62.5 16.5v35h261v-35q-39 1 -53.5 -7.5t-14.5 -28.5q0 -15 9 -44l129 -400h16l120 319
l-27 83q-17 50 -34 64t-67 14v35h260v-35q-39 0 -54 -6.5t-15 -22.5q0 -12 7 -38l5 -15zM474 751v6l-1 -1l85 129h87v-8l2 1l-129 -127h-44z" />
    <glyph glyph-name="wacute" unicode="&#x1e83;" horiz-adv-x="833" 
d="M562 162h19l84 237q7 17 7 34q0 22 -16 32.5t-55 10.5v34h190v-34q-34 -1 -50 -18t-32 -62l-149 -408h-23l-116 321l-120 -321h-22l-156 434q-11 32 -28.5 42.5t-52.5 11.5v34h217v-34q-37 1 -47 -13t1 -39l94 -262h17l76 205l-19 55q-13 37 -25 45.5t-54 8.5v34h216v-34
q-39 1 -46.5 -10.5t2.5 -44.5zM366 575v6l-1 -1l86 164h86v-8l1 1l-129 -162h-43z" />
    <glyph glyph-name="Wdieresis" unicode="&#x1e84;" horiz-adv-x="1027" 
d="M708 176h15l120 367q9 31 9 48q0 68 -93 65v35h226v-35q-41 -1 -62.5 -26t-42.5 -87q-18 -55 -185 -559h-17l-152 459q-28 -77 -88 -238t-82 -221h-15l-197 594q-18 46 -39.5 61.5t-62.5 16.5v35h261v-35q-39 1 -53.5 -7.5t-14.5 -28.5q0 -15 9 -44l129 -400h16l120 319
l-27 83q-17 50 -34 64t-67 14v35h260v-35q-39 0 -54 -6.5t-15 -22.5q0 -12 7 -38l5 -15zM663 831q0 -19 -14.5 -34t-32.5 -15q-20 0 -34.5 15t-14.5 34q0 20 15 35.5t34 15.5q18 0 32.5 -15.5t14.5 -35.5zM491 831q0 -20 -14 -34.5t-33 -14.5q-20 0 -34.5 15t-14.5 34
q0 20 15 35.5t34 15.5t33 -15.5t14 -35.5z" />
    <glyph glyph-name="wdieresis" unicode="&#x1e85;" horiz-adv-x="833" 
d="M562 162h19l84 237q7 17 7 34q0 22 -16 32.5t-55 10.5v34h190v-34q-34 -1 -50 -18t-32 -62l-149 -408h-23l-116 321l-120 -321h-22l-156 434q-11 32 -28.5 42.5t-52.5 11.5v34h217v-34q-37 1 -47 -13t1 -39l94 -262h17l76 205l-19 55q-13 37 -25 45.5t-54 8.5v34h216v-34
q-39 1 -46.5 -10.5t2.5 -44.5zM555 644q0 -19 -14.5 -34t-32.5 -15q-19 0 -33.5 15t-14.5 34q0 20 14.5 35.5t33.5 15.5q18 0 32.5 -15.5t14.5 -35.5zM383 644q0 -20 -14 -34.5t-33 -14.5q-20 0 -34.5 14.5t-14.5 34.5t15 35.5t34 15.5t33 -15.5t14 -35.5z" />
    <glyph glyph-name="uni1e9e" unicode="&#x1e9e;" horiz-adv-x="844" 
d="M558 -12q-81 0 -151 33l-6 152h34q24 -151 122 -151q52 0 81.5 43t29.5 127q0 72 -35.5 118.5t-106.5 45.5q-53 0 -101 -27l-45 46l204 267l-6 14h-312v-577q0 -25 14.5 -31.5t65.5 -10.5q1 0 5 -0.5t6 -0.5v-36h-289v37h5q27 2 40.5 4t29 7t22 14.5t6.5 24.5v531
q0 25 -18 31.5t-85 6.5v35h616l10 -39l-190 -241l9 -14q26 6 57 6q88 0 141 -55.5t53 -147.5q0 -106 -62.5 -159t-143.5 -53z" />
    <glyph glyph-name="Ygrave" unicode="&#x1ef2;" horiz-adv-x="734" 
d="M691 691v-35q-70 -3 -118 -81l-146 -266v-184q0 -59 20 -74t84 -15v-36h-300v36q71 0 86.5 14t15.5 75v180l-159 260q-40 57 -61.5 73.5t-69.5 17.5v35h285v-35q-78 -2 -78 -31q0 -11 19 -41l140 -232l128 231q10 17 10 32q0 38 -61 41v35h205zM470 757v-6h-45l-128 127
l2 -1v8h86l86 -129z" />
    <glyph glyph-name="ygrave" unicode="&#x1ef3;" horiz-adv-x="609" 
d="M566 510v-34q-26 -1 -49 -16.5t-36 -39.5l-121 -202v-123q0 -40 15 -50t64 -10v-35h-246v35q54 0 65.5 9.5t11.5 50.5v115l-130 202q-26 38 -43.5 50.5t-53.5 13.5v34h235v-34q-45 -2 -56.5 -10.5t5.5 -34.5l111 -171l99 169q12 19 0.5 32.5t-45.5 14.5v34h174zM393 581
v-6h-43l-129 162l1 -1v8h85l87 -164z" />
    <glyph glyph-name="uni2011" unicode="&#x2011;" horiz-adv-x="408" 
d="M81 280h246v-66h-246v66z" />
    <glyph glyph-name="endash" unicode="&#x2013;" horiz-adv-x="578" 
d="M90 280h398v-66h-398v66z" />
    <glyph glyph-name="emdash" unicode="&#x2014;" horiz-adv-x="1090" 
d="M134 275h823v-56h-823v56z" />
    <glyph glyph-name="quoteright" unicode="&#x2019;" horiz-adv-x="375" 
d="M116 656q0 29 19.5 47t53.5 18q35 0 60.5 -27.5t25.5 -69.5q0 -125 -120 -213l-22 31q108 78 93 194q-38 -33 -61 -33q-20 0 -34.5 14t-14.5 39z" />
    <glyph glyph-name="quotesinglbase" unicode="&#x201a;" horiz-adv-x="375" 
d="M116 88q0 29 19.5 47t53.5 18q36 0 61 -27.5t25 -70.5q0 -126 -120 -212l-12.5 17.5t-9.5 12.5q108 79 93 194q-37 -32 -61 -32q-21 0 -35 13.5t-14 39.5z" />
    <glyph glyph-name="quotedblleft" unicode="&#x201c;" horiz-adv-x="615" 
d="M259 474q0 -29 -20 -47.5t-54 -18.5q-35 0 -60 27.5t-25 70.5q0 127 119 212l12.5 -17.5t9.5 -12.5q-108 -79 -93 -194q37 32 61 32q21 0 35.5 -13.5t14.5 -38.5zM500 474q0 -29 -20 -47.5t-54 -18.5q-35 0 -60 27.5t-25 70.5q0 127 120 212l12.5 -17.5t9.5 -12.5
q-109 -79 -94 -194q37 32 62 32q20 0 34.5 -13.5t14.5 -38.5z" />
    <glyph glyph-name="quotedblright" unicode="&#x201d;" horiz-adv-x="615" 
d="M115 656q0 29 19.5 47t53.5 18q35 0 60.5 -27.5t25.5 -69.5q0 -125 -120 -213l-22 31q108 78 93 194q-38 -33 -61 -33q-20 0 -34.5 14t-14.5 39zM356 656q0 29 19.5 47t53.5 18q36 0 61 -27t25 -70q0 -126 -120 -213l-22 31q109 79 94 194q-38 -33 -62 -33
q-20 0 -34.5 14t-14.5 39z" />
    <glyph glyph-name="quotedblbase" unicode="&#x201e;" horiz-adv-x="615" 
d="M356 88q0 29 19.5 47t53.5 18q36 0 61 -27.5t25 -70.5q0 -127 -120 -212l-12.5 17.5t-9.5 12.5q109 79 94 194q-37 -32 -62 -32q-21 0 -35 13.5t-14 39.5zM115 88q0 29 19.5 47t53.5 18q36 0 61 -27.5t25 -70.5q0 -126 -120 -212l-12.5 17.5t-9.5 12.5q108 79 93 194
q-37 -32 -61 -32q-21 0 -35 13.5t-14 39.5z" />
    <glyph glyph-name="dagger" unicode="&#x2020;" horiz-adv-x="638" 
d="M539 480q0 -28 -22 -45t-48 -14q-22 7 -37 17q-46 23 -99 23q0 -89 8.5 -132.5t36.5 -70.5q-23 -14 -34 -72.5t-11 -222.5h-29q0 158 -10.5 218.5t-33.5 75.5q44 48 44 204q-63 0 -105 -25q-14 -10 -31 -17h1q-25 -7 -47.5 13t-22.5 48q0 27 22 42.5t48 12.5
q20 -7 37 -16q44 -23 98 -23q0 60 -26 112q-10 17 -15 38q-10 26 7 49t44 23t45 -23t13 -50q-2 -8 -16 -44q-23 -50 -23 -105q57 0 105 26q15 9 32 16h-1q25 7 47.5 -12t22.5 -46z" />
    <glyph glyph-name="daggerdbl" unicode="&#x2021;" horiz-adv-x="638" 
d="M333 461q0 -87 8.5 -131.5t36.5 -72.5q-30 -34 -37.5 -77t-7.5 -129q52 0 98 23q24 13 38 17q26 5 48 -12.5t22 -45.5q0 -27 -22.5 -46t-47.5 -12h1q-21 9 -33 16q-46 25 -104 25q0 -55 23 -105q14 -33 16 -43q5 -27 -13 -50.5t-45 -23.5t-44 23.5t-7 49.5q6 19 15 37
q26 52 26 112q-54 0 -98 -23q-17 -9 -37 -16q-26 -3 -48 13t-22 43q0 28 22.5 48t47.5 13h-1q12 -5 31 -17q44 -26 105 -26q0 157 -44 206q44 49 44 204q-63 0 -105 -25q-14 -10 -31 -17h1q-25 -7 -47.5 13t-22.5 48t21.5 44t48.5 11q15 -5 38 -16q42 -23 97 -23
q0 55 -27 113q-7 13 -14 37q-10 26 7 49t44 23t45 -23t13 -50q-2 -8 -16 -44q-23 -50 -23 -105q57 0 105 26q15 9 32 16h-1q25 7 47.5 -12t22.5 -46t-22 -44t-48 -15q-22 7 -37 17q-46 23 -99 23zM379 258l1 -2h-1l-1 1z" />
    <glyph glyph-name="bullet" unicode="&#x2022;" horiz-adv-x="662" 
d="M195 264q0 56 40 96t96 40t96 -40t40 -96t-40 -96t-96 -40t-96 40t-40 96z" />
    <glyph glyph-name="ellipsis" unicode="&#x2026;" horiz-adv-x="989" 
d="M118 57q0 29 18.5 49t45.5 20t46 -20t19 -49q0 -27 -19.5 -46.5t-45.5 -19.5q-27 0 -45.5 19t-18.5 47zM430 57q0 29 18.5 49t45.5 20t46 -20t19 -49q0 -27 -19.5 -46.5t-45.5 -19.5q-27 0 -45.5 19t-18.5 47zM741 57q0 29 18.5 49t46.5 20q27 0 46 -20t19 -49
q0 -27 -19.5 -46.5t-45.5 -19.5q-28 0 -46.5 19t-18.5 47z" />
    <glyph glyph-name="perthousand" unicode="&#x2030;" horiz-adv-x="881" 
d="M321 578l-11 -2q-1 -81 -43.5 -134t-96.5 -53q-45 0 -74 35.5t-29 89.5q0 74 45 128t98 54q66 0 92 -68q6 -16 26 -26t45 -10q51 0 90 33q23 65 50 65q7 0 13 -5t6 -15q0 -14 -13.5 -31t-29.5 -28l-191 -291l-213 -336q-5 3 -9.5 7t-10 8.5t-8.5 6.5l224 332l142 232
l-11 2q-21 -12 -46 -12q-27 0 -45 18zM291 113q0 74 45.5 128.5t98.5 54.5q44 0 71.5 -31.5t27.5 -84.5q0 -86 -42.5 -138.5t-95.5 -52.5q-47 0 -76 35t-29 89zM451 254q-35 0 -65 -53.5t-30 -115.5q0 -29 12.5 -44.5t32.5 -15.5q36 0 66 42t30 122q0 31 -13 48t-33 17z
M227 655q-35 0 -65.5 -53t-30.5 -114q0 -63 48 -63q35 0 64.5 43t29.5 122q0 31 -13.5 48t-32.5 17zM572 113q0 74 45 128.5t97 54.5q44 0 72.5 -31.5t28.5 -84.5q0 -86 -43 -138.5t-95 -52.5q-47 0 -76 35t-29 89zM732 254q-35 0 -65.5 -53.5t-30.5 -115.5q0 -29 13 -44.5
t33 -15.5q36 0 66 42t30 122q0 31 -13.5 48t-32.5 17z" />
    <glyph glyph-name="uni2032" unicode="&#x2032;" horiz-adv-x="310" 
d="M78 458l70 262q15 -5 43 -15.5t43 -15.5l-111 -246z" />
    <glyph glyph-name="uni2033" unicode="&#x2033;" horiz-adv-x="500" 
d="M78 458l70 262q15 -5 43 -15.5t43 -15.5l-111 -246zM270 458l69 262q15 -5 43 -15.5t43 -15.5l-111 -246q-6 2 -21.5 7t-22.5 8z" />
    <glyph glyph-name="guilsinglleft" unicode="&#x2039;" horiz-adv-x="465" 
d="M119 238l180 218l27 -17l-119 -203v-13l119 -204l-27 -20l-179 217v23z" />
    <glyph glyph-name="guilsinglright" unicode="&#x203a;" horiz-adv-x="465" 
d="M165 456l180 -217v-23l1 1l-180 -218l-27 20l119 204v13l-119 203z" />
    <glyph glyph-name="uni2042" unicode="&#x2042;" horiz-adv-x="986" 
d="M514 546v-4q48 -25 122 -44q25 -6 25 -30q0 -16 -11.5 -30.5t-26.5 -14.5q-11 0 -23 12l-14 14q-44 49 -89 78q6 -64 26 -134q6 -19 -4 -30.5t-26 -11.5t-26 11.5t-6 31.5l6 26q15 66 17 106q-56 -36 -103 -91q-17 -14 -36.5 -1t-19.5 33q0 21 24 29h-1l14 4
q77 24 111 44q-60 25 -125 39q-22 3 -22 29q0 21 16.5 34t37.5 -3l15 -13v1q49 -48 90 -76q-9 64 -27 132q-6 20 4.5 32t27.5 12t27.5 -11.5t5.5 -33.5v1l-9 -33q-14 -51 -19 -98q51 33 105 88q13 13 24 13q12 0 21.5 -13.5t9.5 -29.5q0 -25 -21 -31l-28 -7q-62 -14 -92 -30
zM303 174v-4q47 -24 121 -44q26 -5 26 -30q0 -17 -12 -31t-27 -14q-11 0 -22 11l-14 14q-42 49 -89 79q7 -66 26 -134q6 -19 -4 -30.5t-26 -11.5t-26.5 11.5t-6.5 31.5l6 26q15 58 18 106q-56 -35 -103 -92q-16 -14 -36 -1t-20 34t24 29h-1l14 4q75 23 111 44
q-60 25 -125 39q-22 3 -22 28q0 22 16.5 35t37.5 -3l15 -14v1q55 -52 90 -75q-10 71 -28 132q-6 20 5 32t28 12t27.5 -11.5t5.5 -33.5v1l-9 -33q-14 -54 -19 -98q56 35 105 88q12 13 23 13q13 0 22.5 -14t9.5 -30q0 -25 -22 -30l-28 -7q-62 -14 -91 -30zM725 174v-4
q46 -24 122 -44q25 -6 25 -30q0 -17 -11.5 -31t-26.5 -14q-11 0 -22 11l-14 14q-45 51 -90 79q7 -66 26 -134q6 -19 -4 -30.5t-26 -11.5t-26 11.5t-6 31.5l6 26q14 64 17 106q-54 -35 -103 -92q-16 -14 -36 -1t-20 34t24 29h-1l14 4q75 22 111 44q-59 26 -125 39
q-22 3 -22 28q0 22 16.5 35t37.5 -3l16 -14v1q55 -52 89 -75q-10 66 -27 132q-6 20 4.5 32t27.5 12t27.5 -11.5t5.5 -33.5v1l-9 -33q-14 -54 -19 -98q58 37 106 88q12 13 23 13q12 0 21.5 -14t9.5 -30q0 -24 -21 -30l-28 -7q-64 -15 -92 -30z" />
    <glyph glyph-name="fraction" unicode="&#x2044;" 
d="M177 -15l241 370l223 351q5 -3 16.5 -11t16.5 -11l-234 -349q-39 -63 -115 -186.5t-115 -186.5q-30 21 -33 23z" />
    <glyph glyph-name="zero.sups" unicode="&#x2070;" horiz-adv-x="359" 
d="M320 602q0 -92 -40.5 -141.5t-100.5 -49.5q-61 0 -100.5 46.5t-39.5 144.5q0 95 40.5 148t99.5 53q60 0 100.5 -52.5t40.5 -148.5zM250 602q0 95 -15 136t-56 41q-40 0 -55 -40.5t-15 -136.5q0 -94 13.5 -130t56.5 -36t57 36.5t14 129.5z" />
    <glyph glyph-name="four.sups" unicode="&#x2074;" horiz-adv-x="349" 
d="M29 534l-4 13q24 31 94 120t107 137l27 -4v-243h60v-23h-60v-42q0 -33 15.5 -43.5t43.5 -11.5v-19h-181v19q32 1 47 11.5t15 39.5v46h-164zM77 562l3 -5h111v153z" />
    <glyph glyph-name="five.sups" unicode="&#x2075;" horiz-adv-x="343" 
d="M111 734l-9 -102q41 23 83 23q47 0 82.5 -28.5t35.5 -79.5q0 -62 -45.5 -99t-114.5 -37q-39 0 -72 20t-33 54q0 19 11 31t29 12q39 0 39 -35l1 1l-29 -42q19 -17 57 -17q42 0 64 31.5t22 76.5q0 80 -63 80q-39 0 -75 -37h-27l16 214q55 -16 106 -16q54 0 102 20v-29l1 1
q-43 -46 -131 -46q-26 0 -50 4z" />
    <glyph glyph-name="six.sups" unicode="&#x2076;" horiz-adv-x="361" 
d="M200 803q47 0 75.5 -21t28.5 -47q0 -40 -40 -40q-18 0 -29 9.5t-11 26.5l-1 -1l27 31q-21 21 -50 21q-26 0 -46.5 -28t-30.5 -65t-13 -77q43 43 93 43q55 0 86 -30.5t31 -78.5q0 -63 -41 -99t-95 -36q-57 0 -97.5 43.5t-40.5 135.5q0 89 45 151t109 62zM250 543
q0 86 -57 86q-21 0 -44 -18t-39 -51q1 -124 74 -124q66 0 66 107z" />
    <glyph glyph-name="seven.sups" unicode="&#x2077;" horiz-adv-x="332" 
d="M113 450q24 147 140 291l-5 2q-19 -8 -52 -8q-14 0 -34 4q-2 0 -5 1t-5 1q-13 3 -25 3q-23 0 -38 -19.5t-20 -52.5h-28l18 129h31l1 -8q25 10 43 10q21 0 47 -11q24 -11 43 -11q31 0 77 27l19 -20q-69 -87 -100.5 -158t-31.5 -181q0 -9 -1.5 -15.5t-10 -13t-25.5 -6.5
q-41 0 -38 36z" />
    <glyph glyph-name="eight.sups" unicode="&#x2078;" horiz-adv-x="349" 
d="M123 598l-6 3l3 -1h1q1 1 2 1v-2l2 3q-71 33 -71 94q0 45 36.5 76t90.5 31q51 0 82.5 -24t31.5 -61q0 -54 -78 -98q5 0 8 1l-1 1l3 1v-1q-1 0 -1 -0.5t-1 -0.5q85 -29 85 -98q0 -51 -44 -81.5t-99 -30.5q-57 0 -92.5 25t-35.5 67q0 29 24 53.5t62 40.5l-2 2v-1zM251 510
q0 55 -98 77q-59 -23 -58 -81q1 -34 22.5 -52t56.5 -18q32 0 54.5 19.5t22.5 54.5zM237 713q0 28 -18.5 47.5t-46.5 19.5q-29 0 -47 -19t-18 -44q0 -56 87 -84q43 25 43 80z" />
    <glyph glyph-name="nine.sups" unicode="&#x2079;" horiz-adv-x="361" 
d="M160 411q-47 0 -74.5 18.5t-27.5 41.5q0 43 39 43q16 0 27 -10.5t12 -27.5l-26 -26q17 -17 50 -17q39 0 62.5 49t25.5 118q-41 -41 -91 -41q-55 0 -85.5 33.5t-30.5 86.5q0 55 41.5 89.5t95.5 34.5q56 0 97 -44t41 -135q0 -98 -44.5 -155.5t-111.5 -57.5zM110 676
q0 -91 59 -91q20 0 43 18t38 49q-1 127 -73 127q-34 0 -50.5 -28.5t-16.5 -74.5z" />
    <glyph glyph-name="Euro" unicode="&#x20ac;" horiz-adv-x="695" 
d="M97 400h64q20 126 91.5 200.5t166.5 74.5q102 0 191 -64q-4 -15 -15.5 -61t-17.5 -71h-21q1 44 -12 76t-35.5 48.5t-44.5 23.5t-45 7q-64 0 -109 -59t-58 -175h310l-11 -42h-303v-60h288q-2 -7 -6 -21.5t-5 -21.5h-274q13 -108 60.5 -166t105.5 -58q116 0 155 128
q2 -1 13.5 -5t18.5 -6q-50 -160 -197 -160q-95 0 -164.5 70t-84.5 197h-72l11 43h58v18q0 29 1 42h-70z" />
    <glyph glyph-name="uni2117" unicode="&#x2117;" horiz-adv-x="865" 
d="M93 327q0 138 100.5 238t239.5 100q144 0 241.5 -99t97.5 -239t-100 -240.5t-239 -100.5q-142 0 -241 96.5t-99 244.5zM153 324q0 -122 79 -203.5t203 -81.5q123 0 199.5 81t76.5 204q0 125 -79 208t-199 83q-122 0 -201 -83.5t-79 -207.5zM457 296h-41v-119l50 -8v-27
h-176v27l47 8v299l-47 8v26h169q56 0 98 -26.5t42 -80.5q0 -49 -38 -78t-104 -29zM416 470v-136h45q23 0 40.5 18t17.5 47q0 71 -62 71h-41z" />
    <glyph glyph-name="trademark" unicode="&#x2122;" horiz-adv-x="760" 
d="M580 634h-7l-78 -179h-17l-74 179h-5l-15 -150l33 -6v-23h-92v23l33 6l19 193l-38 6v23h94l62 -165h7l71 165h92v-23l-35 -6l12 -193l31 -6v-23h-118v23l34 6zM100 706h210l14 -74h-20l-32 47h-38v-195l32 -6v-23h-121v23l32 6v195h-37l-32 -47h-21z" />
    <glyph glyph-name="oneseventh" unicode="&#x2150;" 
d="M177 -15l241 370l223 351q5 -3 16.5 -11t16.5 -11l-234 -349q-39 -63 -115 -186.5t-115 -186.5q-30 21 -33 23zM103 644v22q66 3 110 22h28v-317q0 -43 74 -44v-18h-210v18q40 2 57.5 11t17.5 33v265q-11 2 -38.5 4.5zM550 22q24 144 141 292l-5 2q-19 -8 -52 -8
q-13 0 -35 4q-1 0 -5 1t-5 1q-13 3 -25 3q-47 0 -57 -73h-28l18 129h30l1 -8q25 10 43 10q22 0 48 -11q24 -11 43 -11q30 0 76 27l19 -20q-68 -86 -99.5 -157.5t-31.5 -181.5q0 -9 -1.5 -15t-10.5 -12.5t-26 -6.5q-41 0 -38 35z" />
    <glyph glyph-name="oneninth" unicode="&#x2151;" 
d="M177 -15l241 370l223 351q5 -3 16.5 -11t16.5 -11l-234 -349q-39 -63 -115 -186.5t-115 -186.5q-30 21 -33 23zM103 644v22q66 3 110 22h28v-317q0 -43 74 -44v-18h-210v18q40 2 57.5 11t17.5 33v265q-11 2 -38.5 4.5zM597 -16q-47 0 -74 18t-27 41q0 44 38 44
q16 0 27 -11t12 -28l-26 -26q17 -17 50 -17q40 0 63.5 49t25.5 119q-41 -41 -92 -41q-54 0 -84.5 33t-30.5 86q0 55 41 89.5t96 34.5q56 0 96.5 -43.5t40.5 -135.5q0 -98 -44.5 -155t-111.5 -57zM547 248q0 -90 60 -90q20 0 43 17.5t38 48.5q-1 127 -73 127q-68 0 -68 -103z
" />
    <glyph glyph-name="onethird" unicode="&#x2153;" 
d="M177 -15l241 370l223 351q5 -3 16.5 -11t16.5 -11l-234 -349q-39 -63 -115 -186.5t-115 -186.5q-30 21 -33 23zM103 644v22q66 3 110 22h28v-317q0 -43 74 -44v-18h-210v18q40 2 57.5 11t17.5 33v265q-11 2 -38.5 4.5zM634 198l4 -7q41 -6 69.5 -31t28.5 -68
q0 -53 -46 -80.5t-109 -27.5q-48 0 -80 19t-32 54q0 21 10 33.5t27 12.5q38 0 38 -42l1 1l-25 -39q21 -16 57 -16q90 0 90 87q0 75 -65 75q-19 0 -57 -12l-7 24q61 23 89.5 50t28.5 64q0 57 -59 57q-37 0 -59 -21l27 -47l-1 1q0 -14 -10.5 -23.5t-26.5 -9.5q-17 0 -27.5 13
t-10.5 33q0 37 36 57t83 20q52 0 84.5 -22t32.5 -60q0 -54 -91 -95z" />
    <glyph glyph-name="twothirds" unicode="&#x2154;" 
d="M118 363l1 -7h115q14 0 25 18t16 48h35q-3 -20 -9 -57.5t-8 -55.5h-251l-8 26l22 19q168 139 168 232q0 44 -19.5 63.5t-46.5 19.5q-21 0 -38.5 -13t-27.5 -32l36 -50l-1 1q0 -18 -12 -29t-32 -11q-41 0 -41 49t36 79t86 30q60 0 95.5 -28.5t35.5 -79.5q0 -23 -12 -47.5
t-37.5 -51.5t-42 -42.5t-47.5 -42.5q-27 -22 -44 -39h2q2 1 4 1zM634 198l4 -7q41 -6 69.5 -31t28.5 -68q0 -53 -46 -80.5t-109 -27.5q-48 0 -80 19t-32 54q0 21 10 33.5t27 12.5q38 0 38 -42l1 1l-25 -39q21 -16 57 -16q90 0 90 87q0 75 -65 75q-19 0 -57 -12l-7 24
q61 23 89.5 50t28.5 64q0 57 -59 57q-37 0 -59 -21l27 -47l-1 1q0 -14 -10.5 -23.5t-26.5 -9.5q-17 0 -27.5 13t-10.5 33q0 37 36 57t83 20q52 0 84.5 -22t32.5 -60q0 -54 -91 -95zM177 -15l241 370l223 351q5 -3 16.5 -11t16.5 -11l-234 -349q-39 -63 -115 -186.5
t-115 -186.5q-30 21 -33 23z" />
    <glyph glyph-name="onefifth" unicode="&#x2155;" 
d="M177 -15l241 370l223 351q5 -3 16.5 -11t16.5 -11l-234 -349q-39 -63 -115 -186.5t-115 -186.5q-30 21 -33 23zM103 644v22q66 3 110 22h28v-317q0 -43 74 -44v-18h-210v18q40 2 57.5 11t17.5 33v265q-11 2 -38.5 4.5zM548 307l-9 -103q41 23 84 23q47 0 82 -28t35 -79
q0 -62 -45.5 -99t-114.5 -37q-39 0 -71.5 19.5t-32.5 53.5q0 19 11 31.5t29 12.5q38 0 38 -36l1 1l-29 -42q19 -17 57 -17q43 0 65 31.5t22 77.5q0 79 -63 79q-40 0 -76 -36h-26l16 213q53 -16 106 -16t101 20v-28l1 1q-43 -46 -131 -46q-26 0 -50 4z" />
    <glyph glyph-name="twofifths" unicode="&#x2156;" 
d="M118 363l1 -7h115q14 0 25 18t16 48h35q-3 -20 -9 -57.5t-8 -55.5h-251l-8 26l22 19q168 139 168 232q0 44 -19.5 63.5t-46.5 19.5q-21 0 -38.5 -13t-27.5 -32l36 -50l-1 1q0 -18 -12 -29t-32 -11q-41 0 -41 49t36 79t86 30q60 0 95.5 -28.5t35.5 -79.5q0 -23 -12 -47.5
t-37.5 -51.5t-42 -42.5t-47.5 -42.5q-27 -22 -44 -39h2q2 1 4 1zM548 307l-9 -103q41 23 84 23q47 0 82 -28t35 -79q0 -62 -45.5 -99t-114.5 -37q-39 0 -71.5 19.5t-32.5 53.5q0 19 11 31.5t29 12.5q38 0 38 -36l1 1l-29 -42q19 -17 57 -17q43 0 65 31.5t22 77.5
q0 79 -63 79q-40 0 -76 -36h-26l16 213q53 -16 106 -16t101 20v-28l1 1q-43 -46 -131 -46q-26 0 -50 4zM177 -15l241 370l223 351q5 -3 16.5 -11t16.5 -11l-234 -349q-39 -63 -115 -186.5t-115 -186.5q-30 21 -33 23z" />
    <glyph glyph-name="threefifths" unicode="&#x2157;" 
d="M177 -15l241 370l223 351q5 -3 16.5 -11t16.5 -11l-234 -349q-39 -63 -115 -186.5t-115 -186.5q-30 21 -33 23zM225 516l4 -7q42 -6 70.5 -31t28.5 -69q0 -52 -46 -79.5t-109 -27.5q-49 0 -81 19t-32 54q0 21 10 33t28 12q38 0 38 -41l1 1l-25 -39q21 -16 57 -16
q37 0 63.5 19.5t26.5 66.5q0 39 -17.5 57.5t-47.5 18.5q-19 0 -57 -12l-7 24q61 23 89 50t28 64q0 57 -58 57q-37 0 -59 -21l27 -48l-1 1q0 -14 -10.5 -23t-26.5 -9q-17 0 -28 12.5t-11 33.5q0 36 36 56.5t83 20.5q52 0 85 -22t33 -60q0 -28 -26 -53t-66 -42zM548 307
l-9 -103q41 23 84 23q47 0 82 -28t35 -79q0 -62 -45.5 -99t-114.5 -37q-39 0 -71.5 19.5t-32.5 53.5q0 19 11 31.5t29 12.5q38 0 38 -36l1 1l-29 -42q19 -17 57 -17q43 0 65 31.5t22 77.5q0 79 -63 79q-40 0 -76 -36h-26l16 213q53 -16 106 -16t101 20v-28l1 1
q-43 -46 -131 -46q-26 0 -50 4z" />
    <glyph glyph-name="fourfifths" unicode="&#x2158;" 
d="M15 424l-4 14q33 42 100.5 128t100.5 128l27 -4v-242h60v-24h-60v-42q0 -33 15.5 -43.5t43.5 -11.5v-18h-181v18q32 1 47 11.5t15 39.5v46h-164zM548 307l-9 -103q41 23 84 23q47 0 82 -28t35 -79q0 -62 -45.5 -99t-114.5 -37q-39 0 -71.5 19.5t-32.5 53.5q0 19 11 31.5
t29 12.5q38 0 38 -36l1 1l-29 -42q19 -17 57 -17q43 0 65 31.5t22 77.5q0 79 -63 79q-40 0 -76 -36h-26l16 213q53 -16 106 -16t101 20v-28l1 1q-43 -46 -131 -46q-26 0 -50 4zM177 -15l241 370l223 351q5 -3 16.5 -11t16.5 -11l-234 -349q-39 -63 -115 -186.5t-115 -186.5
q-30 21 -33 23zM63 453l3 -5h111v152z" />
    <glyph glyph-name="onesixth" unicode="&#x2159;" 
d="M177 -15l241 370l223 351q5 -3 16.5 -11t16.5 -11l-234 -349q-39 -63 -115 -186.5t-115 -186.5q-30 21 -33 23zM103 644v22q66 3 110 22h28v-317q0 -43 74 -44v-18h-210v18q40 2 57.5 11t17.5 33v265q-11 2 -38.5 4.5zM618 375q47 0 75 -21t28 -46q0 -40 -40 -40
q-17 0 -28 9.5t-11 26.5l-1 -1l27 31q-20 20 -50 20q-39 0 -63 -52.5t-28 -117.5q43 43 94 43q55 0 85.5 -30.5t30.5 -77.5q0 -64 -40.5 -99.5t-95.5 -35.5q-57 0 -97 43.5t-40 135.5q0 89 44.5 150.5t109.5 61.5zM668 116q0 85 -57 85q-22 0 -45 -18t-39 -50
q1 -125 74 -125q67 0 67 108z" />
    <glyph glyph-name="fivesixths" unicode="&#x215a;" 
d="M177 -15l241 370l223 351q5 -3 16.5 -11t16.5 -11l-234 -349q-39 -63 -115 -186.5t-115 -186.5q-30 21 -33 23zM136 625l-9 -103q41 23 83 23q48 0 83 -28t35 -79q0 -62 -45.5 -99t-114.5 -37q-39 0 -72 19.5t-33 53.5q0 19 11 31t30 12q18 0 28 -9.5t10 -25.5l1 1
l-29 -42q19 -17 57 -17q42 0 64.5 31.5t22.5 77.5q0 79 -64 79q-39 0 -75 -36h-26l16 213q53 -16 105 -16q54 0 102 20v-28l1 1q-43 -46 -131 -46q-26 0 -50 4zM618 375q47 0 75 -21t28 -46q0 -40 -40 -40q-17 0 -28 9.5t-11 26.5l-1 -1l27 31q-20 20 -50 20
q-39 0 -63 -52.5t-28 -117.5q43 43 94 43q55 0 85.5 -30.5t30.5 -77.5q0 -64 -40.5 -99.5t-95.5 -35.5q-57 0 -97 43.5t-40 135.5q0 89 44.5 150.5t109.5 61.5zM668 116q0 85 -57 85q-22 0 -45 -18t-39 -50q1 -125 74 -125q67 0 67 108z" />
    <glyph glyph-name="oneeighth" unicode="&#x215b;" 
d="M560 171l-6 3l3 -1q1 0 3 1v-2l2 3q-70 32 -70 94q0 45 36.5 75.5t90.5 30.5q51 0 82 -23.5t31 -60.5q0 -55 -77 -99q5 0 8 1l-1 1l3 1v-1q-1 0 -1 -0.5t-1 -0.5q84 -28 84 -97q0 -52 -43 -82t-99 -30q-58 0 -93 24.5t-35 66.5q0 29 24 54t61 41l-2 2v-1zM177 -15
l241 370l223 351q5 -3 16.5 -11t16.5 -11l-234 -349q-39 -63 -115 -186.5t-115 -186.5q-30 21 -33 23zM103 644v22q66 3 110 22h28v-317q0 -43 74 -44v-18h-210v18q40 2 57.5 11t17.5 33v265q-11 2 -38.5 4.5zM689 82q0 56 -99 78q-59 -23 -58 -82q1 -34 22.5 -52t57.5 -18
q32 0 54.5 19.5t22.5 54.5zM675 286q0 28 -18.5 47t-46.5 19q-30 0 -48 -18.5t-18 -43.5q0 -57 88 -85q43 25 43 81z" />
    <glyph glyph-name="threeeighths" unicode="&#x215c;" 
d="M560 171l-6 3l3 -1q1 0 3 1v-2l2 3q-70 32 -70 94q0 45 36.5 75.5t90.5 30.5q51 0 82 -23.5t31 -60.5q0 -55 -77 -99q5 0 8 1l-1 1l3 1v-1q-1 0 -1 -0.5t-1 -0.5q84 -28 84 -97q0 -52 -43 -82t-99 -30q-58 0 -93 24.5t-35 66.5q0 29 24 54t61 41l-2 2v-1zM225 516l4 -7
q42 -6 70.5 -31t28.5 -69q0 -52 -46 -79.5t-109 -27.5q-49 0 -81 19t-32 54q0 21 10 33t28 12q38 0 38 -41l1 1l-25 -39q21 -16 57 -16q37 0 63.5 19.5t26.5 66.5q0 39 -17.5 57.5t-47.5 18.5q-19 0 -57 -12l-7 24q61 23 89 50t28 64q0 57 -58 57q-37 0 -59 -21l27 -48l-1 1
q0 -14 -10.5 -23t-26.5 -9q-17 0 -28 12.5t-11 33.5q0 36 36 56.5t83 20.5q52 0 85 -22t33 -60q0 -28 -26 -53t-66 -42zM177 -15l241 370l223 351q5 -3 16.5 -11t16.5 -11l-234 -349q-39 -63 -115 -186.5t-115 -186.5q-30 21 -33 23zM689 82q0 56 -99 78q-59 -23 -58 -82
q1 -34 22.5 -52t57.5 -18q32 0 54.5 19.5t22.5 54.5zM675 286q0 28 -18.5 47t-46.5 19q-30 0 -48 -18.5t-18 -43.5q0 -57 88 -85q43 25 43 81z" />
    <glyph glyph-name="fiveeighths" unicode="&#x215d;" 
d="M560 171l-6 3l3 -1q1 0 3 1v-2l2 3q-70 32 -70 94q0 45 36.5 75.5t90.5 30.5q51 0 82 -23.5t31 -60.5q0 -55 -77 -99q5 0 8 1l-1 1l3 1v-1q-1 0 -1 -0.5t-1 -0.5q84 -28 84 -97q0 -52 -43 -82t-99 -30q-58 0 -93 24.5t-35 66.5q0 29 24 54t61 41l-2 2v-1zM136 625
l-9 -103q41 23 83 23q48 0 83 -28t35 -79q0 -62 -45.5 -99t-114.5 -37q-39 0 -72 19.5t-33 53.5q0 19 11 31t30 12q18 0 28 -9.5t10 -25.5l1 1l-29 -42q19 -17 57 -17q42 0 64.5 31.5t22.5 77.5q0 79 -64 79q-39 0 -75 -36h-26l16 213q53 -16 105 -16q54 0 102 20v-28l1 1
q-43 -46 -131 -46q-26 0 -50 4zM177 -15l241 370l223 351q5 -3 16.5 -11t16.5 -11l-234 -349q-39 -63 -115 -186.5t-115 -186.5q-30 21 -33 23zM689 82q0 56 -99 78q-59 -23 -58 -82q1 -34 22.5 -52t57.5 -18q32 0 54.5 19.5t22.5 54.5zM675 286q0 28 -18.5 47t-46.5 19
q-30 0 -48 -18.5t-18 -43.5q0 -57 88 -85q43 25 43 81z" />
    <glyph glyph-name="seveneighths" unicode="&#x215e;" 
d="M560 171l-6 3l3 -1q1 0 3 1v-2l2 3q-70 32 -70 94q0 45 36.5 75.5t90.5 30.5q51 0 82 -23.5t31 -60.5q0 -55 -77 -99q5 0 8 1l-1 1l3 1v-1q-1 0 -1 -0.5t-1 -0.5q84 -28 84 -97q0 -52 -43 -82t-99 -30q-58 0 -93 24.5t-35 66.5q0 29 24 54t61 41l-2 2v-1zM155 340
q24 147 141 292l-5 2q-19 -8 -53 -8q-14 0 -34 4q-2 0 -5 1t-5 1q-14 3 -25 3q-47 0 -57 -73h-29l19 129h30l1 -8q25 10 43 10q21 0 47 -11q24 -11 44 -11q30 0 76 27l19 -20q-46 -58 -71 -98.5t-43 -102.5t-18 -138q0 -9 -1.5 -15t-10 -12.5t-25.5 -6.5q-41 0 -38 35z
M177 -15l241 370l223 351q5 -3 16.5 -11t16.5 -11l-234 -349q-39 -63 -115 -186.5t-115 -186.5q-30 21 -33 23zM689 82q0 56 -99 78q-59 -23 -58 -82q1 -34 22.5 -52t57.5 -18q32 0 54.5 19.5t22.5 54.5zM675 286q0 28 -18.5 47t-46.5 19q-30 0 -48 -18.5t-18 -43.5
q0 -57 88 -85q43 25 43 81z" />
    <glyph glyph-name="uni2191" unicode="&#x2191;" horiz-adv-x="704" 
d="M363 604l263 -237l-43 -57l-186 166v-425h-85v425l-186 -166l-44 57l265 237h16z" />
    <glyph glyph-name="uni2193" unicode="&#x2193;" horiz-adv-x="704" 
d="M626 288l-263 -237h-16l-265 237l44 57l186 -166v425h85v-425l186 166z" />
    <glyph glyph-name="partialdiff" unicode="&#x2202;" horiz-adv-x="544" 
d="M287 603q-84 0 -109 -132h-41l11 106q20 25 62 42.5t88 17.5q95 0 145 -78t50 -200q0 -179 -72 -275t-193 -96q-72 0 -122.5 47t-50.5 132q0 104 67 166t148 62q40 0 76.5 -17.5t53.5 -49.5v-2l5 3v43q0 117 -28.5 174t-89.5 57zM387 269v1q-11 34 -38.5 58t-58.5 24
q-56 0 -94 -50.5t-38 -135.5q0 -63 22.5 -99.5t63.5 -36.5q58 0 100.5 65.5t42.5 173.5z" />
    <glyph glyph-name="product" unicode="&#x220f;" horiz-adv-x="544" 
d="M2 625h544v-31l-79 -15v-533l79 -16v-30h-256v30l79 16v533h-190v-533l79 -16v-30h-256v30l79 16v533l-79 15v31z" />
    <glyph glyph-name="summation" unicode="&#x2211;" horiz-adv-x="544" 
d="M148 83l5 -10v-3h254v2l85 111h42l-48 -183h-474l-6 8l265 273v18l-244 320l5 6h450l24 -163h-36l-90 130v2h-213v-3l-5 -7v-5l201 -259v-11l-215 -221v-5z" />
    <glyph glyph-name="minus" unicode="&#x2212;" horiz-adv-x="620" 
d="M570 230h-520v60h520v-60z" />
    <glyph glyph-name="radical" unicode="&#x221a;" horiz-adv-x="544" 
d="M322 52h13v4l153 701l50 -10l-185 -886h-39l-197 531v3l-101 -36l-12 28l176 59l142 -391v-3z" />
    <glyph glyph-name="infinity" unicode="&#x221e;" horiz-adv-x="544" 
d="M129 151q-61 0 -93.5 37.5t-32.5 86.5q0 53 37 90.5t89 37.5q73 0 143 -92q69 92 146 92q61 0 93.5 -37t32.5 -87q0 -53 -37 -90.5t-89 -37.5q-76 0 -143 90q-70 -90 -146 -90zM146 362q-34 0 -55 -23.5t-21 -63.5q0 -38 21 -61.5t51 -23.5q18 0 37.5 13.5t31.5 28.5
t35 45v6q-20 26 -32.5 40.5t-31 26.5t-36.5 12zM401 192q34 0 55 23.5t21 63.5q0 38 -21 61.5t-51 23.5q-18 0 -37 -14t-32 -29t-35 -45v-6q28 -39 50.5 -58.5t49.5 -19.5z" />
    <glyph glyph-name="integral" unicode="&#x222b;" horiz-adv-x="544" 
d="M307 499l13 -494q2 -93 -48.5 -152.5t-129.5 -59.5q-31 0 -53.5 15.5t-22.5 46.5q0 20 13 35t37 15q51 0 58 -61v-4l26 -7v1q19 19 31 66t10 95l-12 494q-2 94 48 152.5t128 58.5q32 0 55 -15.5t23 -45.5q0 -19 -13.5 -34.5t-37.5 -15.5q-22 0 -38 15t-19 46v4l-26 7v-1
q-45 -42 -42 -161z" />
    <glyph glyph-name="approxequal" unicode="&#x2248;" horiz-adv-x="544" 
d="M434 383l53 -21q-14 -46 -46.5 -77t-84.5 -31q-37 0 -96 38q-3 2 -12.5 8t-13.5 8.5t-12 7t-13 6.5t-11.5 3.5t-12.5 1.5q-24 0 -43 -11t-27 -21t-22 -32l-42 30q15 31 51.5 57t82.5 26q34 0 93 -36q52 -35 79 -35q28 0 49.5 23.5t27.5 54.5zM450 223l47 -23
q-12 -36 -49.5 -62t-79.5 -26q-47 0 -110 40q-51 32 -73 32q-37 0 -72 -67l-46 29q49 87 118 87q31 0 91 -34q58 -37 92 -37q30 0 51.5 17.5t30.5 43.5z" />
    <glyph glyph-name="notequal" unicode="&#x2260;" horiz-adv-x="620" 
d="M482 491l-65 -121h153v-60h-185l-64 -120h249v-60h-281l-86 -160l-56 27l71 133h-168v60h200l64 120h-264v60h296l80 148z" />
    <glyph glyph-name="lessequal" unicode="&#x2264;" horiz-adv-x="620" 
d="M570 0h-520v60h520v-60zM570 545l-454 -179l454 -179v-57l-520 205v62l520 205v-57z" />
    <glyph glyph-name="greaterequal" unicode="&#x2265;" horiz-adv-x="620" 
d="M570 0h-520v60h520v-60zM504 366l-454 179v57l520 -205v-62l-520 -205v57z" />
    <glyph glyph-name="lozenge" unicode="&#x25ca;" horiz-adv-x="544" 
d="M273 -101l-247 375l247 377l247 -377zM110 271l163 -250l164 250v6l-164 251q-108 -164 -163 -251v-6z" />
    <glyph glyph-name="uni2605" unicode="&#x2605;" horiz-adv-x="574" 
d="M129 -9l-2 1l65 184v7l-163 115l200 -7v4l57 192h8l58 -192v-4q33 1 98.5 3t97.5 2l-159 -113v-7l65 -183l-2 -1l-162 119zM548 296l7 5l-1 -5h-6zM25 298l-2 4l6 -4h-4z" />
    <glyph glyph-name="commaaccent" unicode="&#xf6c3;" horiz-adv-x="500" 
d="M209 -98q0 14 11 25t29 11q26 0 44 -22.5t18 -56.5q0 -65 -79 -108l-16 23q48 28 48 59q0 9 -5.5 17t-9.5 10.5t-16 10.5q-24 16 -24 31z" />
    <glyph glyph-name="apple" unicode="&#xf8ff;" horiz-adv-x="544" 
d="M211 720h11l32 -121l-3 -82l68 -8l64 99l8 99h12l7 -99l-17 -129l36 -85l35 -38l1 -6l-7 -8v-18l8 -4l-1 -9l-17 -36l-36 7l-11 101l-34 56l-13 -2l26 -60l4 -99l-37 -46l3 -22l26 -37l7 -71l-64 -23l-33 16l-35 57l-75 25l-28 47l-3 42l-30 41l-2 58l4 27l-11 44z
M489 244l6 -9l-3 -37l-12 -17l-5 -33l23 -8l-3 -10l-23 7l-43 -26l-5 10l39 23l5 36l-36 14l-13 31l-1 10l14 15l24 4zM272 305l36 -14l11 13l-3 14l-11 10l-30 -10zM329 64l3 -4l-7 -21l-40 -43l-68 -23l-97 14l-55 48l-18 62l34 95l11 -1l-9 -71l22 -41l37 -33l88 -16
l48 3zM144 438l9 -9l33 34l11 76h-18z" />
    <glyph glyph-name="zero.tnum" horiz-adv-x="624" 
d="M551 337q0 -168 -69 -258.5t-172 -90.5q-104 0 -170 84.5t-66 264.5q0 174 67.5 270t168.5 96q103 0 172 -95.5t69 -270.5zM454 337q0 174 -30.5 249.5t-113.5 75.5q-79 0 -109 -75t-30 -250q0 -174 27.5 -241t111.5 -67q86 0 115 67.5t29 240.5z" />
    <glyph glyph-name="one.tnum" horiz-adv-x="624" 
d="M140 614v38q114 7 197 39h33v-578q0 -44 30 -63.5t103 -19.5v-30h-359v30q77 4 108 20.5t31 62.5v487q-23 3 -72 7.5t-71 6.5z" />
    <glyph glyph-name="two.tnum" horiz-adv-x="624" 
d="M192 102l4 -17h226q33 0 56.5 33t31.5 87h35l-30 -205h-432l-14 48q12 12 37 32q41 34 71.5 60.5t79.5 76t81 92.5t56 97.5t24 102.5q0 80 -40.5 116.5t-96.5 36.5q-100 0 -132 -81l62 -88q-2 -33 -20 -55t-45 -22q-30 0 -46 24.5t-16 64.5q0 88 61.5 143t146.5 55
q103 0 164.5 -52t61.5 -143q0 -36 -17 -76t-38.5 -70t-62 -71t-64 -62t-68.5 -59q-45 -39 -76 -68z" />
    <glyph glyph-name="three.tnum" horiz-adv-x="624" 
d="M345 381l5 -14q74 -8 128 -55t54 -129q0 -95 -80.5 -145t-190.5 -50q-83 0 -137.5 34.5t-54.5 98.5q0 36 15 58.5t41 22.5t40.5 -20t14.5 -55l1 1l-44 -68q34 -34 117 -34q75 0 127 36.5t52 124.5q0 71 -36 106t-98 35q-41 0 -89 -16q-2 8 -6.5 20.5t-6.5 17.5
q112 42 164 91t52 115q0 108 -123 108q-75 0 -120 -42l48 -83l-1 1q0 -25 -16 -41.5t-39 -16.5q-25 0 -40.5 22t-15.5 58q0 66 62 103.5t141 37.5q90 0 146.5 -40.5t56.5 -109.5q0 -53 -47.5 -97.5t-119.5 -74.5z" />
    <glyph glyph-name="four.tnum" horiz-adv-x="624" 
d="M63 212l-11 24l365 467q5 -1 14 -3t14 -3v-444h107v-41h-107v-78q0 -63 27 -83t79 -21v-30h-303v30q59 0 86 19.5t27 77.5v85h-298zM122 260l2 -7h234v291l-15 8z" />
    <glyph glyph-name="five.tnum" horiz-adv-x="624" 
d="M167 392l13 -9q75 47 152 47q81 0 141 -51t60 -145q0 -111 -79.5 -178.5t-199.5 -67.5q-67 0 -122.5 35.5t-55.5 97.5q0 34 16.5 55.5t44.5 21.5q25 0 40.5 -18.5t15.5 -47.5l1 1l-51 -73q34 -34 117 -34q85 0 129 58t44 143q0 148 -132 148q-87 0 -145 -65h-27l30 380
q82 -24 179 -24q103 0 173 29v-44l1 1q-71 -79 -224 -79q-45 0 -106 11z" />
    <glyph glyph-name="six.tnum" horiz-adv-x="624" 
d="M342 703q79 0 126 -38t47 -84q0 -71 -57 -71q-25 0 -41.5 18.5t-17.5 48.5l46 53q-32 37 -103 37q-43 0 -78.5 -31.5t-56.5 -81t-33 -104.5t-12 -107l15 -8q63 95 170 95q94 0 146.5 -55t52.5 -143q0 -114 -70.5 -179t-166.5 -65q-45 0 -85.5 17.5t-75.5 54.5t-56 102
t-21 152q0 163 79 276t192 113zM448 227q0 160 -121 160q-46 0 -91.5 -31.5t-73.5 -90.5q0 -236 148 -236q138 0 138 198z" />
    <glyph glyph-name="seven.tnum" horiz-adv-x="624" 
d="M485 595l-14 14q-41 -26 -105 -26q-18 0 -62 8q-42 8 -67 8q-50 0 -80 -35.5t-38 -98.5h-25l33 232h27l7 -26q47 32 88 32q26 0 83 -22q50 -20 85 -20q72 0 136 45l27 -31q-61 -75 -101 -134t-75.5 -134t-52 -161.5t-16.5 -190.5q0 -17 -2 -28t-15.5 -22.5t-37.5 -11.5
q-63 0 -55 64q49 292 260 538z" />
    <glyph glyph-name="eight.tnum" horiz-adv-x="624" 
d="M396 376v-8q150 -50 150 -178q0 -93 -76 -147.5t-172 -54.5q-98 0 -159 44.5t-61 121.5q0 55 42 101t107 73v11q-62 26 -92 72.5t-30 97.5q0 81 63 137.5t156 56.5q88 0 141.5 -43t53.5 -111q0 -100 -123 -173zM441 540q0 53 -37.5 88t-96.5 35q-60 0 -97 -34t-37 -82
q0 -54 47 -94.5t131 -63.5q90 47 90 151zM469 166q0 105 -197 147q-54 -19 -88 -58t-33 -96q1 -61 45.5 -95.5t113.5 -34.5q66 0 112.5 36.5t46.5 100.5z" />
    <glyph glyph-name="nine.tnum" horiz-adv-x="624" 
d="M273 -12q-80 0 -126 33t-46 75q0 34 14.5 54.5t41.5 20.5q26 0 42.5 -19.5t16.5 -51.5l2 1l-48 -45q31 -33 103 -33q57 0 99 48t61 120t20 157l-16 8q-27 -44 -71 -70t-98 -26q-94 0 -146.5 60.5t-52.5 157.5q0 99 71.5 162t165.5 63q45 0 86 -17.5t76 -54.5t56 -102.5
t21 -152.5q0 -179 -77.5 -283.5t-194.5 -104.5zM167 473q0 -89 33.5 -129.5t88.5 -40.5q44 0 90 32t74 90q0 121 -36.5 179t-112.5 58q-69 0 -103 -52t-34 -137z" />
    <glyph glyph-name="exclamdown.case" horiz-adv-x="449" 
d="M171 96q1 7 3 22t3 21q30 218 31 356h34q0 -116 12.5 -227.5t26.5 -171.5q7 -41 -6.5 -73t-50.5 -32q-56 0 -56 67q0 20 3 38zM290 655q0 -29 -18.5 -48.5t-45.5 -19.5t-46.5 20t-19.5 48q0 27 20 47t46 20q27 0 45.5 -19.5t18.5 -47.5z" />
    <glyph glyph-name="questiondown.case" horiz-adv-x="600" 
d="M404 293l-8 -3q-58 26 -119 26q-58 0 -92 -36.5t-34 -95.5q0 -58 47.5 -107t123.5 -49q46 0 67 23l-32 64l1 -1q0 21 15.5 35t38.5 14t38 -16t15 -47q0 -47 -37.5 -78t-99.5 -31q-92 0 -160.5 62.5t-68.5 157.5q0 86 44.5 141.5t113.5 55.5q65 0 105 -29l3 116h34
q1 -32 3 -101t2 -101zM448 655q0 -28 -19 -48t-46 -20q-26 0 -45.5 20t-19.5 48t19.5 47.5t45.5 19.5q27 0 46 -19.5t19 -47.5z" />
    <glyph glyph-name="hyphen.case" horiz-adv-x="408" 
d="M81 361h246v-66h-246v66z" />
    <glyph glyph-name="endash.case" horiz-adv-x="578" 
d="M90 361h399v-66h-399v66z" />
    <glyph glyph-name="emdash.case" horiz-adv-x="1090" 
d="M133 356h825v-56h-825v56z" />
    <glyph glyph-name="guilsinglleft.case" horiz-adv-x="465" 
d="M119 330l181 217l27 -17l-119 -202v-14l119 -204l-28 -20l-179 217v24z" />
    <glyph glyph-name="guilsinglright.case" horiz-adv-x="465" 
d="M165 547l181 -216v-24l1 1l-181 -218l-27 20l119 204v14l-119 202z" />
    <glyph glyph-name="guillemotleft.case" horiz-adv-x="672" 
d="M118 330l180 217l28 -17l-119 -202v-14l119 -204l-28 -20l-179 217v24zM327 330l181 217l26 -17l-119 -202v-14l119 -204l-27 -20l-179 217v24z" />
    <glyph glyph-name="guillemotright.case" horiz-adv-x="672" 
d="M164 547l181 -216v-24l-180 -217l-27 20l119 204v14l-119 202zM373 547l180 -216v-24l-179 -217l-27 20l119 204v14l-119 202z" />
    <glyph glyph-name="zero.onum" horiz-adv-x="644" 
d="M566 266q0 -129 -72 -203.5t-179 -74.5q-101 0 -168.5 72t-67.5 206q0 108 72.5 188t172.5 80q103 0 172.5 -70t69.5 -198zM467 266q0 228 -144 228q-73 0 -109 -64.5t-36 -163.5q0 -107 34 -172t109 -65q71 0 108.5 63t37.5 174z" />
    <glyph glyph-name="one.onum" horiz-adv-x="531" 
d="M98 453v38q115 7 196 39h34v-417q0 -41 30 -59.5t103 -18.5v-35h-359v35q77 4 108 19.5t31 58.5v325z" />
    <glyph glyph-name="two.onum" horiz-adv-x="606" 
d="M218 100l4 -15h185q33 0 58 21t33 55h28l-28 -161h-401q-2 10 -7 27.5t-7 27.5l24 16q296 173 296 301q0 65 -36 93.5t-87 28.5q-85 0 -108 -67l49 -68l-1 1q0 -29 -17 -46t-44 -17q-28 0 -42.5 22.5t-14.5 59.5q0 69 56 112t132 43q96 0 153.5 -43.5t57.5 -119.5
q0 -37 -20.5 -72t-61 -67.5t-71 -52.5t-79.5 -48z" />
    <glyph glyph-name="three.onum" horiz-adv-x="618" 
d="M345 213l5 -14q75 -8 128.5 -55t53.5 -129q0 -95 -80.5 -145t-190.5 -50q-83 0 -137.5 34.5t-54.5 98.5q0 36 15 58t41 22t40.5 -19.5t14.5 -54.5l1 1l-44 -68q34 -34 117 -34q75 0 127 36.5t52 124.5q0 71 -36 105.5t-98 34.5q-39 0 -89 -15q-2 7 -6.5 19t-6.5 18
q113 43 164.5 91.5t51.5 115.5q0 108 -123 108q-75 0 -120 -42l48 -83l-1 1q0 -25 -16 -42t-39 -17q-25 0 -40.5 22.5t-15.5 58.5q0 66 62 103t141 37q90 0 146.5 -40t56.5 -109q0 -53 -47.5 -97t-119.5 -75z" />
    <glyph glyph-name="four.onum" horiz-adv-x="635" 
d="M68 43l-11 25l365 466q5 0 14 -2t14 -3v-444h107v-42h-107v-77q0 -63 27 -83t79 -21v-30h-303v30q59 0 86 19.5t27 77.5v84h-298zM127 92l2 -7h234v291l-15 8z" />
    <glyph glyph-name="five.onum" horiz-adv-x="624" 
d="M173 224l13 -9q75 47 152 47q81 0 141 -51t60 -145q0 -112 -79.5 -179t-199.5 -67q-67 0 -122.5 35.5t-55.5 97.5q0 34 16.5 55t44.5 21q25 0 40.5 -18t15.5 -47l1 1l-51 -73q34 -34 117 -34q85 0 129 58t44 142q0 149 -132 149q-87 0 -145 -65h-27l30 380
q82 -24 179 -24q103 0 173 29v-44l1 1q-70 -79 -224 -79q-50 0 -106 10z" />
    <glyph glyph-name="six.onum" horiz-adv-x="656" 
d="M365 703q79 0 126 -38t47 -84q0 -71 -57 -71q-24 0 -41 18.5t-18 48.5l46 53q-30 37 -103 37q-43 0 -78.5 -31.5t-56.5 -81t-33 -104.5t-12 -107l16 -8q61 95 169 95q94 0 146.5 -55t52.5 -143q0 -114 -70 -179t-166 -65q-45 0 -86 17.5t-76 54.5t-56 102t-21 152
q0 163 79 276t192 113zM471 227q0 160 -121 160q-46 0 -91.5 -31.5t-73.5 -90.5q0 -236 149 -236q137 0 137 198z" />
    <glyph glyph-name="seven.onum" horiz-adv-x="604" 
d="M477 426l-14 14q-43 -26 -105 -26q-18 0 -62 8q-42 8 -67 8q-50 0 -80 -35t-38 -99h-25l33 233h27l7 -26q45 31 88 31q28 0 83 -21q50 -20 85 -20q71 0 136 44l26 -30q-61 -75 -100.5 -134t-75 -134.5t-52 -162t-16.5 -189.5q0 -17 -2 -28t-15.5 -22.5t-37.5 -11.5
q-63 0 -55 64q49 291 260 537z" />
    <glyph glyph-name="eight.onum" horiz-adv-x="635" 
d="M402 376v-8q150 -50 150 -178q0 -93 -76 -147.5t-172 -54.5q-98 0 -159 44.5t-61 121.5q0 55 42 101t107 73v11q-62 26 -92 72.5t-30 97.5q0 81 63 137.5t156 56.5q89 0 142 -43t53 -111q0 -100 -123 -173zM448 540q0 53 -38 88t-97 35q-60 0 -97 -34t-37 -82
q0 -54 47 -94.5t131 -63.5q91 48 91 151zM475 166q0 105 -197 147q-54 -19 -88 -58t-33 -96q1 -61 45.5 -95.5t113.5 -34.5q66 0 112.5 36.5t46.5 100.5z" />
    <glyph glyph-name="nine.onum" horiz-adv-x="656" 
d="M291 -180q-79 0 -125.5 33t-46.5 74q0 34 14 55t42 21q26 0 42.5 -19.5t16.5 -52.5l2 1l-48 -44q33 -33 103 -33q57 0 99 48t61 119.5t20 156.5l-15 8q-61 -95 -170 -95q-94 0 -146.5 60.5t-52.5 156.5q0 100 72 162.5t166 62.5q45 0 85.5 -17.5t75.5 -54t56 -102
t21 -152.5q0 -179 -77.5 -283.5t-194.5 -104.5zM185 304q0 -89 33.5 -129t88.5 -40q45 0 90.5 32t73.5 90q0 120 -36 178.5t-112 58.5q-70 0 -104 -52.5t-34 -137.5z" />
    <glyph glyph-name="acute.case" horiz-adv-x="500" 
d="M194 492v6l-1 -1l85 129h87v-8l2 1l-129 -127h-44z" />
    <glyph glyph-name="grave.case" horiz-adv-x="500" 
d="M306 498v-6h-44l-129 127l2 -1v8h87l85 -129z" />
    <glyph glyph-name="circumflex.case" horiz-adv-x="500" 
d="M392 498v-6h-38l-103 71l-103 -71h-38v6l-1 -1l121 129h42z" />
    <glyph glyph-name="breve.case" horiz-adv-x="500" 
d="M250 492q-48 0 -81.5 32t-34.5 97h30q1 -30 25.5 -52t60.5 -22q34 0 59.5 21.5t26.5 52.5h30q-1 -64 -34.5 -96.5t-81.5 -32.5z" />
    <glyph glyph-name="caron.case" horiz-adv-x="500" 
d="M391 626v-6l-120 -128h-42l-120 128v6h38l103 -72l103 72h38z" />
    <glyph glyph-name="hungarumlaut.case" horiz-adv-x="500" 
d="M279 492v6l-1 -1l86 129h87v-8l2 1l-140 -127h-34zM138 492v6l-1 -1l86 129h86v-8l2 1l-139 -127h-34z" />
    <glyph glyph-name="dollar.onum" horiz-adv-x="556" 
d="M152 58l-13 -45h-27l-7 171h25q15 -64 46.5 -99.5t87.5 -46.5v202l-12 4q-76 25 -112 61t-36 93q0 62 43.5 99.5t104.5 37.5h12v74h32v-78q45 -9 98 -44q3 4 8.5 16t7.5 16h27q0 -25 0.5 -74.5t0.5 -74.5h-23q-43 106 -119 130v-191l27 -7q83 -23 117.5 -58t34.5 -92
q0 -64 -46.5 -106t-118.5 -42h-14v-82h-32v85q-66 12 -112 51zM422 126q0 30 -27 54t-99 49v-194h12q55 0 84.5 26.5t29.5 64.5zM160 418q0 -54 104 -97v184h-11q-44 0 -68.5 -26.5t-24.5 -60.5z" />
    <glyph glyph-name="cent.onum" horiz-adv-x="415" 
d="M344 223l23 -8q-17 -45 -52 -74.5t-82 -31.5v-77h-27v78q-63 8 -103.5 51.5t-40.5 120.5q0 68 41 117t103 61v73h27v-71q49 -2 85 -27t36 -61q0 -25 -11 -38.5t-29 -13.5q-20 0 -32 14.5t-11 35.5l-1 -1l21 31q-15 29 -58 30v-285h14q36 0 62 21.5t35 54.5zM133 291
q0 -106 73 -138v276q-73 -27 -73 -138z" />
    <glyph glyph-name="sterling.onum" horiz-adv-x="552" 
d="M92 302h67q-25 62 -25 95q0 69 48.5 106.5t112.5 37.5q68 0 106.5 -30.5t38.5 -61.5q0 -19 -10 -30t-24 -11q-15 0 -25.5 12t-20.5 35q-9 18 -14.5 27t-19 18.5t-32.5 9.5q-33 0 -55.5 -24t-22.5 -73q0 -29 21 -82l11 -29h130v-36h-119q3 -15 3 -34q0 -81 -46 -130l8 -11
q26 15 45 15q32 0 77 -41l7 -6h-1q34 -28 58 -28q16 0 26.5 8t10.5 21q0 8 -15 23l-5 5q-16 16 -16 30q0 13 8 22.5t21 9.5q46 0 46 -64q0 -46 -32 -71t-75 -25q-57 0 -110 25.5t-78 54.5q-55 -80 -94 -80q-9 0 -15.5 5.5t-6.5 14.5q0 25 30 45.5t72 33.5q18 44 18 97
q0 33 -20 80h-83v36z" />
    <glyph glyph-name="yen.onum" horiz-adv-x="568" 
d="M539 508v-29q-58 -4 -92 -57l-106 -180h110v-36h-119v-44h119v-37h-119v-32q0 -42 16 -52.5t66 -10.5v-30h-237v30q55 0 67.5 10t12.5 53v32h-122v37h122v44h-122v36h110l-39 59l-75 113q-30 39 -47.5 51.5t-54.5 13.5v29h225v-29q-61 -2 -61 -21q0 -8 15 -28l110 -168
l46 78q34 60 52 89q11 18 0.5 33t-41.5 17v29h164z" />
    <glyph glyph-name="Euro.onum" horiz-adv-x="598" 
d="M84 322h55q18 100 79 159t143 59q88 0 164 -52l-28 -107h-20q1 66 -35.5 94.5t-80.5 28.5q-54 0 -92 -46t-49 -136h265l-11 -37h-258v-45h245l-8 -37h-234q11 -84 51.5 -129.5t89.5 -45.5q98 0 132 102l30 -7q-43 -133 -171 -133q-82 0 -141.5 56t-72.5 157h-63l10 37h50
v13q0 22 1 32h-61q1 6 4.5 18t5.5 19z" />
    <glyph glyph-name="numbersign.onum" horiz-adv-x="482" 
d="M100 408l82 -12l38 168l40 -4l-37 -168l86 -12l41 184q7 -1 20 -2t21 -2l-41 -184q13 -1 44.5 -5.5l45.5 -6.5l-6 -47l-94 13l-30 -131l79 -11l-6 -47l-83 11l-40 -180q-7 1 -20 3t-19 2l39 180l-86 11l-44 -196q-7 1 -20.5 3t-19.5 2l43 197l-89 11l6 47l93 -12l29 130
l-78 10zM213 345l-29 -130l86 -11l29 130z" />
    <glyph glyph-name="percent.onum" horiz-adv-x="506" 
d="M272 443l-9 10q-1 -68 -36.5 -111.5t-81.5 -43.5q-38 0 -62.5 27.5t-24.5 69.5q0 57 37.5 99t82.5 42q56 0 78 -53q11 -26 58 -26q40 0 74 24q18 50 43 50q17 0 17 -17q0 -24 -36 -47l-159 -221q-25 -37 -78 -112.5t-78 -112.5l-23 -35l-26 19l188 256l115 177
q-27 -9 -43 -9q-18 0 -36 14zM244 88q0 57 38.5 99t83.5 42q37 0 60.5 -24t23.5 -66q0 -66 -36 -106.5t-80 -40.5q-40 0 -65 27t-25 69zM379 195q-29 0 -53.5 -40.5t-24.5 -87.5q0 -22 10.5 -33.5t26.5 -11.5q29 0 53.5 32t24.5 92q0 24 -10.5 36.5t-26.5 12.5zM194 501
q-29 0 -55 -40t-26 -86t39 -46q29 0 53 32.5t24 92.5q0 22 -10.5 34.5t-24.5 12.5z" />
    <glyph glyph-name="perthousand.onum" horiz-adv-x="740" 
d="M271 443l-8 -2q-2 -63 -37 -103t-81 -40q-38 0 -62.5 27.5t-24.5 69.5q0 57 37.5 99t82.5 42q56 0 78 -53q11 -26 58 -26q40 0 74 24q18 50 43 50q17 0 17 -17q0 -24 -36 -47l-159 -221q-25 -37 -78 -112.5t-78 -112.5l-23 -35l-26 19l188 256l115 177q-27 -9 -43 -9
q-17 0 -37 14zM244 88q0 57 38.5 99t83.5 42q37 0 60.5 -24t23.5 -66q0 -66 -36 -106.5t-80 -40.5q-40 0 -65 27t-25 69zM479 88q0 57 38 99t82 42q38 0 61.5 -24t23.5 -66q0 -66 -36 -106.5t-80 -40.5q-40 0 -64.5 27t-24.5 69zM614 195q-28 0 -53.5 -41t-25.5 -87
q0 -45 38 -45q29 0 53.5 32t24.5 92q0 24 -10.5 36.5t-26.5 12.5zM379 195q-29 0 -53.5 -40.5t-24.5 -87.5q0 -22 10.5 -33.5t26.5 -11.5q29 0 53.5 32t24.5 92q0 24 -10.5 36.5t-26.5 12.5zM194 501q-29 0 -55 -40t-26 -86t39 -46q29 0 53 32.5t24 92.5q0 22 -10.5 34.5
t-24.5 12.5z" />
    <glyph glyph-name="ordfeminine.onum" horiz-adv-x="514" 
d="M341 217l-30 67h-146l-16 -41l-9 -25q0 -18 60 -18v-31h-163v31q46 1 68 37q12 30 34.5 84.5t29.5 71.5q8 19 35 83.5t40 98.5h18l151 -340q12 -19 24.5 -26.5t40.5 -8.5v-31h-191v31h23q22 0 28.5 4t2.5 13zM237 453l-57 -135h115z" />
    <glyph glyph-name="ordmasculine.onum" horiz-adv-x="526" 
d="M467 368q0 -87 -61 -147.5t-144 -60.5q-86 0 -144.5 59t-58.5 149q0 92 58.5 150.5t144.5 58.5q84 0 144.5 -59.5t60.5 -149.5zM382 368q0 174 -120 174q-63 0 -90 -45t-27 -129q0 -174 117 -174q60 0 90 47t30 127z" />
    <glyph glyph-name="degree.onum" horiz-adv-x="417" 
d="M69 466q0 59 41 101t98 42t98.5 -42.5t41.5 -100.5t-41.5 -100t-98.5 -42t-98 42t-41 100zM119 466q0 -40 24.5 -67.5t63.5 -27.5q40 0 64.5 27.5t24.5 67.5t-24.5 68t-64.5 28q-39 0 -63.5 -28t-24.5 -68z" />
    <glyph glyph-name="zero.numr" horiz-adv-x="359" 
d="M321 503q0 -92 -40.5 -142t-101.5 -50t-100.5 47t-39.5 145q0 95 40.5 148t99.5 53q61 0 101.5 -52.5t40.5 -148.5zM251 503q0 95 -15 135.5t-57 40.5q-40 0 -55 -40.5t-15 -135.5q0 -94 13.5 -130.5t56.5 -36.5t57.5 36.5t14.5 130.5z" />
    <glyph glyph-name="one.numr" horiz-adv-x="298" 
d="M51 654v22q66 3 111 22h29v-317q0 -43 73 -44v-19h-211v19q41 2 58.5 11t17.5 33v265q-11 2 -39 4.5t-39 3.5z" />
    <glyph glyph-name="two.numr" horiz-adv-x="348" 
d="M117 373l1 -7h116q30 0 40 66h35q-3 -20 -9 -57.5t-8 -56.5h-251l-8 27l22 19q24 20 39 33t42.5 40.5t44 50.5t30 53t13.5 56q0 43 -20 62.5t-47 19.5q-43 0 -66 -45q6 -8 18.5 -24.5t17.5 -24.5l-1 1q0 -19 -12 -30t-31 -11q-42 0 -42 50q0 48 36.5 78.5t85.5 30.5
q60 0 95.5 -29t35.5 -79q0 -30 -25 -67.5t-49 -60.5t-65 -57q-27 -22 -44 -39h2q2 1 4 1z" />
    <glyph glyph-name="three.numr" horiz-adv-x="340" 
d="M197 526l4 -7q41 -6 69.5 -31.5t28.5 -68.5q0 -53 -46 -80.5t-109 -27.5q-48 0 -80.5 19.5t-32.5 54.5q0 21 10 33t28 12q38 0 38 -41l1 1l-25 -39q21 -16 57 -16q37 0 63.5 19.5t26.5 66.5q0 76 -65 76q-19 0 -57 -12l-7 24q61 23 89.5 50t28.5 64q0 57 -59 57
q-37 0 -59 -21l27 -47l-1 1q0 -14 -10.5 -23t-26.5 -9q-17 0 -28 12.5t-11 32.5q0 36 36.5 57t82.5 21q52 0 85 -22.5t33 -60.5q0 -27 -26 -52.5t-65 -42.5z" />
    <glyph glyph-name="four.numr" horiz-adv-x="349" 
d="M29 434l-4 14q22 29 63 80.5t75.5 95t63.5 81.5l27 -5v-242h59v-24h-59v-42q0 -33 15 -43.5t43 -11.5v-19h-181v19q32 1 47.5 11.5t15.5 39.5v46h-165zM78 463l3 -5h111v153z" />
    <glyph glyph-name="five.numr" horiz-adv-x="343" 
d="M111 635l-9 -103q41 23 83 23q48 0 83 -28t35 -79q0 -62 -45.5 -99.5t-114.5 -37.5q-39 0 -72 20t-33 54q0 19 11 31t30 12q18 0 28 -9.5t10 -25.5l1 1l-29 -42q19 -17 57 -17q42 0 64.5 31t22.5 77q0 80 -64 80q-39 0 -75 -36h-26l16 213q53 -16 105 -16q55 0 102 21
v-29l1 1q-43 -46 -131 -46q-26 0 -50 4z" />
    <glyph glyph-name="six.numr" horiz-adv-x="361" 
d="M201 704q46 0 74.5 -21t28.5 -47q0 -40 -40 -40q-17 0 -28 9.5t-11 26.5l-1 -1l27 31q-20 20 -50 20q-39 0 -63 -52.5t-28 -117.5q43 43 94 43q55 0 86 -30.5t31 -77.5q0 -64 -41 -100t-96 -36q-57 0 -97.5 44t-40.5 136q0 89 45 151t110 62zM251 443q0 86 -57 86
q-22 0 -45 -18t-39 -50q1 -125 74 -125q67 0 67 107z" />
    <glyph glyph-name="seven.numr" horiz-adv-x="332" 
d="M113 350q24 144 141 292l-5 2q-19 -8 -52 -8q-15 0 -35 4q-2 0 -5 1t-5 1q-13 3 -25 3q-47 0 -57 -73h-29l18 130h31l1 -9q27 11 43 11q19 0 47 -12q26 -11 44 -11q31 0 76 28l20 -21q-69 -86 -101 -157.5t-32 -181.5q0 -9 -1.5 -15.5t-10 -13t-25.5 -6.5q-41 0 -38 36z
" />
    <glyph glyph-name="eight.numr" horiz-adv-x="349" 
d="M123 499l-6 3l3 -1l1 1h2v-2l2 3q-71 32 -71 94q0 45 36.5 76t90.5 31q52 0 83 -24t31 -61q0 -55 -77 -99q5 0 8 1l-1 1l3 1v-1h-1l-1 -1q84 -28 84 -98q0 -51 -43.5 -81.5t-99.5 -30.5q-57 0 -92.5 25t-35.5 67q0 28 24.5 53.5t61.5 41.5l-2 2v-1zM252 410q0 56 -99 78
q-59 -23 -58 -82q1 -34 22.5 -52t56.5 -18q33 0 55.5 19.5t22.5 54.5zM238 614q0 28 -19 47t-47 19q-29 0 -47 -18.5t-18 -43.5q0 -57 88 -85q43 25 43 81z" />
    <glyph glyph-name="nine.numr" horiz-adv-x="361" 
d="M160 311q-47 0 -74.5 18.5t-27.5 41.5q0 43 39 43q16 0 27 -10.5t12 -27.5l-26 -26q17 -17 50 -17q40 0 63.5 49t25.5 119q-41 -41 -92 -41q-54 0 -85 33.5t-31 86.5q0 55 41.5 89.5t95.5 34.5q57 0 97.5 -44t40.5 -136q0 -98 -44.5 -155.5t-111.5 -57.5zM110 577
q0 -91 59 -91q21 0 44 17.5t38 48.5q-1 127 -74 127q-67 0 -67 -102z" />
    <glyph glyph-name="zero.dnom" horiz-adv-x="359" 
d="M321 145q0 -92 -40.5 -141.5t-101.5 -49.5t-100.5 46.5t-39.5 144.5q0 95 40.5 148t99.5 53q61 0 101.5 -52.5t40.5 -148.5zM251 145q0 95 -15 136t-57 41q-40 0 -55 -40.5t-15 -136.5q0 -94 13.5 -130.5t56.5 -36.5t57.5 36.5t14.5 130.5z" />
    <glyph glyph-name="one.dnom" horiz-adv-x="298" 
d="M51 296v22q68 5 111 23h29v-318q0 -43 73 -44v-18h-211v18q41 2 58.5 11t17.5 33v265q-12 2 -39.5 4.5z" />
    <glyph glyph-name="two.dnom" horiz-adv-x="348" 
d="M117 15l1 -7h116q30 0 40 67h35q-3 -21 -9 -58.5t-8 -55.5h-251l-8 26l22 19q24 20 39 33t42.5 40.5t44 50.5t30 53t13.5 56q0 43 -20 63t-47 20q-21 0 -38.5 -13.5t-27.5 -32.5q6 -8 18.5 -24.5t17.5 -24.5l-1 1q0 -18 -12 -29.5t-31 -11.5q-42 0 -42 50q0 48 36.5 78.5
t85.5 30.5q60 0 95.5 -29t35.5 -79q0 -30 -25 -67.5t-49 -60.5t-65 -57q-27 -22 -44 -39h2q2 1 4 1z" />
    <glyph glyph-name="three.dnom" horiz-adv-x="340" 
d="M197 168l4 -7q41 -6 69.5 -31.5t28.5 -68.5q0 -53 -46 -80t-109 -27q-49 0 -81 19t-32 54q0 21 10 33.5t28 12.5q38 0 38 -42l1 1l-25 -39q21 -16 57 -16q37 0 63.5 19.5t26.5 66.5q0 76 -65 76q-19 0 -57 -12l-7 24q118 44 118 114q0 58 -59 58q-36 0 -59 -22l27 -47
l-1 1q0 -14 -10.5 -23t-26.5 -9q-17 0 -28 12.5t-11 32.5q0 37 36 57.5t83 20.5q52 0 85 -22.5t33 -60.5q0 -27 -26 -52.5t-65 -42.5z" />
    <glyph glyph-name="four.dnom" horiz-adv-x="349" 
d="M29 77l-4 13q22 29 63 80.5t75.5 95t63.5 81.5l27 -4v-243h59v-23h-59v-43q0 -33 15 -43.5t43 -11.5v-18h-181v18q32 1 47.5 11.5t15.5 39.5v47h-165zM78 105l3 -5h111v153z" />
    <glyph glyph-name="five.dnom" horiz-adv-x="343" 
d="M111 277l-9 -103q41 24 83 24q47 0 82.5 -28.5t35.5 -79.5q0 -62 -45.5 -99t-114.5 -37q-39 0 -72 19.5t-33 53.5q0 19 11.5 31.5t29.5 12.5t28 -10t10 -26l1 1l-29 -42q19 -17 57 -17q43 0 65 31.5t22 77.5q0 79 -64 79q-39 0 -75 -36h-26l16 214q53 -16 105 -16
q54 0 102 20v-29q-42 -45 -130 -45q-26 0 -50 4zM292 320l-1 -2q0 1 1 2z" />
    <glyph glyph-name="six.dnom" horiz-adv-x="361" 
d="M201 346q46 0 74.5 -21t28.5 -47q0 -40 -40 -40q-17 0 -28 9.5t-11 26.5l-1 -1l27 31q-21 21 -50 21q-39 0 -63 -53t-28 -118q44 44 94 44q55 0 86 -31t31 -78q0 -64 -41 -99.5t-96 -35.5q-57 0 -97.5 43.5t-40.5 135.5q0 89 45 151t110 62zM251 86q0 85 -57 85
q-22 0 -45 -18t-39 -50q1 -125 74 -125q67 0 67 108z" />
    <glyph glyph-name="seven.dnom" horiz-adv-x="332" 
d="M113 -8q24 146 141 292l-5 2q-19 -8 -52 -8q-15 0 -35 4q-2 0 -5 1t-5 1q-14 3 -25 3q-47 0 -57 -72h-29l18 129h31l1 -8q25 10 43 10q21 0 47 -11t44 -11q30 0 76 27l20 -20q-70 -87 -101.5 -158.5t-31.5 -181.5q0 -9 -1.5 -15t-10 -12.5t-25.5 -6.5q-41 0 -38 35z" />
    <glyph glyph-name="eight.dnom" horiz-adv-x="349" 
d="M123 141l-6 3l3 -1l1 1h2v-2l2 3q-36 16 -53.5 42t-17.5 52q0 45 36.5 76t90.5 31q52 0 83 -24t31 -61q0 -55 -77 -99q5 0 8 1l-1 1l3 1v-1h-1l-1 -1q84 -28 84 -97q0 -52 -43.5 -82t-99.5 -30q-57 0 -92.5 24.5t-35.5 66.5q0 29 24.5 54t61.5 41l-2 2v-1zM252 52
q0 56 -99 78q-59 -23 -58 -82q1 -34 22.5 -52t56.5 -18q33 0 55.5 19.5t22.5 54.5zM238 256q0 28 -19 47.5t-47 19.5q-29 0 -47 -19t-18 -44q0 -56 88 -85q43 27 43 81z" />
    <glyph glyph-name="nine.dnom" horiz-adv-x="361" 
d="M160 -46q-47 0 -74.5 18t-27.5 41q0 43 39 43q16 0 27 -10.5t12 -27.5l-26 -26q17 -17 50 -17q40 0 63.5 49t25.5 119q-41 -41 -92 -41q-54 0 -85 33.5t-31 86.5q0 55 41.5 89.5t95.5 34.5q57 0 97.5 -44t40.5 -136q0 -98 -44.5 -155t-111.5 -57zM110 219q0 -91 59 -91
q21 0 44 17.5t38 49.5q-1 127 -74 127q-34 0 -50.5 -28.5t-16.5 -74.5z" />
    <glyph glyph-name="zero.subs" horiz-adv-x="359" 
d="M321 24q0 -92 -40.5 -141.5t-101.5 -49.5t-100.5 46.5t-39.5 144.5q0 95 40.5 148t99.5 53q61 0 101.5 -52.5t40.5 -148.5zM251 24q0 95 -15 136t-57 41q-40 0 -55 -40.5t-15 -136.5q0 -94 13.5 -130.5t56.5 -36.5t57.5 36.5t14.5 130.5z" />
    <glyph glyph-name="one.subs" horiz-adv-x="298" 
d="M51 175v23q66 3 111 22h29v-318q0 -43 73 -44v-18h-211v18q41 2 58.5 11t17.5 33v265q-11 2 -39 4.5t-39 3.5z" />
    <glyph glyph-name="two.subs" horiz-adv-x="348" 
d="M117 -106l1 -7h116q30 0 40 67h35q-3 -21 -9 -58.5t-8 -55.5h-251l-8 26l22 19q24 20 39 33t42.5 40.5t44 50.5t30 53t13.5 56q0 43 -20 63t-47 20q-21 0 -38.5 -13.5t-27.5 -32.5q6 -8 18.5 -24.5t17.5 -24.5l-1 1q0 -18 -12 -29t-31 -11q-42 0 -42 49q0 48 36.5 78.5
t85.5 30.5q60 0 95.5 -29t35.5 -79q0 -30 -25 -67.5t-49 -60.5t-65 -57q-27 -22 -44 -39l2 1h4z" />
    <glyph glyph-name="three.subs" horiz-adv-x="340" 
d="M197 47l4 -7q41 -6 69.5 -31t28.5 -68q0 -53 -46 -80.5t-109 -27.5q-49 0 -81 19t-32 54q0 21 10 33.5t28 12.5q38 0 38 -42l1 1l-25 -39q21 -16 57 -16q37 0 63.5 19.5t26.5 67.5q0 75 -65 75q-19 0 -57 -12l-7 24q118 44 118 114q0 58 -59 58q-37 0 -59 -22l27 -47
l-1 1q0 -14 -10.5 -23t-26.5 -9q-17 0 -28 12.5t-11 32.5q0 37 36 57.5t83 20.5q52 0 85 -22t33 -61q0 -52 -91 -95z" />
    <glyph glyph-name="four.subs" horiz-adv-x="349" 
d="M29 -44l-4 13q22 29 63 80.5t75.5 95t63.5 81.5l27 -4v-243h59v-23h-59v-43q0 -33 15 -43.5t43 -11.5v-18h-181v18q32 1 47.5 11.5t15.5 39.5v47h-165zM78 -16l3 -5h111v153z" />
    <glyph glyph-name="five.subs" horiz-adv-x="343" 
d="M111 156l-9 -103q41 24 83 24q47 0 82.5 -28.5t35.5 -79.5q0 -62 -45.5 -99t-114.5 -37q-39 0 -72 19.5t-33 53.5q0 19 11.5 31.5t29.5 12.5t28 -10t10 -26l1 1l-29 -42q19 -17 57 -17q43 0 65 31.5t22 77.5q0 79 -64 79q-39 0 -75 -36h-26l16 214q53 -16 105 -16
q54 0 102 20v-28l1 1q-43 -47 -131 -47q-26 0 -50 4z" />
    <glyph glyph-name="six.subs" horiz-adv-x="361" 
d="M201 225q46 0 74.5 -21t28.5 -47q0 -40 -40 -40q-17 0 -28 9.5t-11 26.5l-1 -1l27 31q-19 21 -50 21q-39 0 -63 -53t-28 -118q44 44 94 44q55 0 86 -31t31 -78q0 -64 -41 -99.5t-96 -35.5q-57 0 -97.5 43.5t-40.5 135.5q0 89 45 151t110 62zM251 -35q0 85 -57 85
q-22 0 -45 -18t-39 -50q1 -125 74 -125q67 0 67 108z" />
    <glyph glyph-name="seven.subs" horiz-adv-x="332" 
d="M113 -129q24 146 141 292l-5 2q-19 -8 -52 -8q-15 0 -35 4q-2 0 -5 1t-5 1q-14 3 -25 3q-47 0 -57 -72h-29l18 129h31l1 -8q25 10 43 10q21 0 47 -11t44 -11q30 0 76 27l20 -20q-70 -87 -101.5 -158.5t-31.5 -181.5q0 -9 -1.5 -15t-10 -12.5t-25.5 -6.5q-41 0 -38 35z
" />
    <glyph glyph-name="eight.subs" horiz-adv-x="349" 
d="M123 20l-6 3l3 -1h1q1 1 2 1v-2l2 3q-36 16 -53.5 42t-17.5 52q0 45 36.5 76t90.5 31q52 0 83 -24t31 -61q0 -53 -77 -99q5 0 8 1l-1 1l3 1v-1l-1 -1h-1q84 -28 84 -97q0 -52 -43.5 -82t-99.5 -30q-57 0 -92.5 24.5t-35.5 66.5q0 29 24.5 54t61.5 41l-2 2v-1zM252 -69
q0 56 -99 78q-59 -23 -58 -82q1 -34 22.5 -52t56.5 -18q33 0 55.5 19.5t22.5 54.5zM238 135q0 28 -19 47.5t-47 19.5q-29 0 -47 -19t-18 -44q0 -56 88 -85q43 27 43 81z" />
    <glyph glyph-name="nine.subs" horiz-adv-x="361" 
d="M160 -167q-47 0 -74.5 18t-27.5 41q0 43 39 43q16 0 27 -10.5t12 -27.5l-26 -26q17 -17 50 -17q40 0 63.5 49t25.5 119q-41 -41 -92 -41q-54 0 -85 33.5t-31 86.5q0 55 41.5 89.5t95.5 34.5q57 0 97.5 -44t40.5 -136q0 -98 -44.5 -155t-111.5 -57zM110 98q0 -91 59 -91
q21 0 44 17.5t38 49.5q-1 127 -74 127q-34 0 -50.5 -28.5t-16.5 -74.5z" />
    <glyph glyph-name="uni2011.case" horiz-adv-x="408" 
d="M81 361h246v-66h-246v66z" />
    <glyph glyph-name="zero.onum.tnum" horiz-adv-x="624" 
d="M551 266q0 -129 -71 -203.5t-175 -74.5q-100 0 -165.5 71.5t-65.5 206.5q0 108 70.5 188t168.5 80q101 0 169.5 -70t68.5 -198zM454 266q0 228 -142 228q-71 0 -106.5 -64.5t-35.5 -163.5q0 -107 33.5 -172t106.5 -65q71 0 107.5 63t36.5 174z" />
    <glyph glyph-name="one.onum.tnum" horiz-adv-x="624" 
d="M138 453v38q114 7 197 39h33v-417q0 -41 30 -59.5t103 -18.5v-35h-359v35q77 4 108 19.5t31 58.5v325z" />
    <glyph glyph-name="two.onum.tnum" horiz-adv-x="624" 
d="M214 100l4 -15h185q33 0 58 21t33 55h28l-28 -161h-401q-2 10 -7 27.5t-7 27.5l24 16q296 173 296 301q0 65 -36 93.5t-87 28.5q-85 0 -108 -67l49 -68l-1 1q0 -29 -17 -46t-44 -17q-28 0 -42.5 22.5t-14.5 59.5q0 69 56 112t132 43q96 0 153.5 -43.5t57.5 -119.5
q0 -37 -20.5 -72t-61 -67.5t-71 -52.5t-79.5 -48z" />
    <glyph glyph-name="three.onum.tnum" horiz-adv-x="624" 
d="M347 214l5 -14q75 -8 128.5 -55t53.5 -129q0 -95 -80.5 -145t-190.5 -50q-83 0 -137.5 34.5t-54.5 98.5q0 36 15 58t41 22t40.5 -19.5t14.5 -54.5l1 1l-44 -68q34 -34 117 -34q75 0 127 36.5t52 124.5q0 71 -36 105.5t-98 34.5q-39 0 -89 -15q-2 7 -6.5 19t-6.5 18
q113 43 164.5 91.5t51.5 115.5q0 108 -123 108q-75 0 -120 -42l48 -83l-1 1q0 -25 -16 -42t-39 -17q-25 0 -40.5 22.5t-15.5 58.5q0 66 62 103t141 37q90 0 146.5 -40t56.5 -109q0 -53 -47.5 -97t-119.5 -75z" />
    <glyph glyph-name="four.onum.tnum" horiz-adv-x="624" 
d="M56 44l-10 25l365 466q5 -1 14 -3t13 -2v-444h108v-42h-108v-77q0 -63 27.5 -83t79.5 -21v-30h-303v30q58 0 85.5 19.5t27.5 77.5v84h-299zM116 93l2 -7h234v291l-15 8z" />
    <glyph glyph-name="five.onum.tnum" horiz-adv-x="624" 
d="M158 225l13 -9q75 47 152 47q81 0 141 -51t60 -145q0 -112 -79.5 -179t-199.5 -67q-67 0 -122.5 35.5t-55.5 97.5q0 34 16.5 55t44.5 21q25 0 40 -18t15 -47l1 1l-50 -73q34 -34 117 -34q85 0 129 58t44 142q0 149 -132 149q-86 0 -145 -65h-27l30 380q82 -24 179 -24
q103 0 173 29v-44l1 1q-70 -79 -224 -79q-50 0 -106 10z" />
    <glyph glyph-name="six.onum.tnum" horiz-adv-x="624" 
d="M346 703q79 0 126 -38t47 -84q0 -71 -57 -71q-25 0 -41.5 18.5t-17.5 48.5l46 53q-32 37 -103 37q-43 0 -78.5 -31.5t-56.5 -81t-33 -104.5t-12 -107l15 -8q63 95 170 95q94 0 146.5 -55t52.5 -143q0 -114 -70.5 -179t-166.5 -65q-45 0 -85.5 17.5t-75.5 54.5t-56 102
t-21 152q0 163 79 276t192 113zM452 227q0 160 -121 160q-46 0 -91.5 -31.5t-73.5 -90.5q0 -236 148 -236q138 0 138 198z" />
    <glyph glyph-name="seven.onum.tnum" horiz-adv-x="624" 
d="M490 427l-14 14q-41 -26 -105 -26q-18 0 -62 8q-42 8 -67 8q-50 0 -80 -35t-38 -99h-25l33 233h27l7 -26q45 31 88 31q28 0 83 -21q50 -20 85 -20q71 0 136 44l27 -30q-61 -75 -101 -134t-75.5 -134.5t-52 -162t-16.5 -189.5q0 -17 -2 -28t-15.5 -22.5t-37.5 -11.5
q-63 0 -55 64q49 291 260 537z" />
    <glyph glyph-name="eight.onum.tnum" horiz-adv-x="624" 
d="M396 376v-8q150 -50 150 -178q0 -93 -76 -147.5t-172 -54.5q-98 0 -159 44.5t-61 121.5q0 55 42 101t107 73v11q-62 26 -92 72.5t-30 97.5q0 81 63 137.5t156 56.5q88 0 141.5 -43t53.5 -111q0 -100 -123 -173zM441 540q0 53 -37.5 88t-96.5 35q-60 0 -97 -34t-37 -82
q0 -54 47 -94.5t131 -63.5q90 47 90 151zM469 166q0 105 -197 147q-54 -19 -88 -58t-33 -96q1 -61 45.5 -95.5t113.5 -34.5q66 0 112.5 36.5t46.5 100.5z" />
    <glyph glyph-name="nine.onum.tnum" horiz-adv-x="624" 
d="M278 -179q-79 0 -125.5 33t-46.5 74q0 34 14 55t42 21q26 0 42.5 -19.5t16.5 -52.5l2 1l-48 -44q33 -33 103 -33q57 0 99 48t61 119.5t20 156.5l-16 8q-27 -44 -71 -69.5t-98 -25.5q-94 0 -146.5 60.5t-52.5 156.5q0 100 71.5 162.5t165.5 62.5q45 0 85.5 -17.5t76 -54
t56.5 -102t21 -152.5q0 -179 -77.5 -283.5t-194.5 -104.5zM172 305q0 -89 33.5 -129t88.5 -40q45 0 90.5 32t73.5 90q0 120 -36.5 178.5t-112.5 58.5q-69 0 -103 -52.5t-34 -137.5z" />
    <glyph glyph-name="Stroke.part" horiz-adv-x="430" 
d="M47 527h691v-42h-691v42z" />
    <glyph glyph-name="stroke.part" horiz-adv-x="430" 
d="M53 545h285v-46h-285v46z" />
    <glyph glyph-name="parenleft.case" horiz-adv-x="442" 
d="M368 -151l-26 -30q-237 216 -237 505q0 149 61.5 263.5t174.5 218.5l26 -34q-182 -193 -182 -448q0 -137 47 -261.5t136 -213.5z" />
    <glyph glyph-name="parenright.case" horiz-adv-x="442" 
d="M101 -180l-26 29q88 88 135 213t47 262q0 257 -181 448l26 34q113 -104 174.5 -218.5t61.5 -263.5q0 -288 -237 -504z" />
    <glyph glyph-name="bracketleft.case" horiz-adv-x="425" 
d="M346 799v-44q-35 -7 -95 -7q-32 0 -56 4v-865q18 2 40 2q71 0 117 -6v-47q-42 6 -116 6q-60 0 -110 -5v961q52 -5 117 -5q67 0 103 6z" />
    <glyph glyph-name="bracketright.case" horiz-adv-x="425" 
d="M80 755v44q36 -6 102 -6q64 0 117 5v-961q-50 5 -110 5q-73 0 -115 -6v47q46 6 117 6q22 0 40 -2v865q-23 -4 -57 -4q-50 0 -94 7z" />
    <glyph glyph-name="braceleft.case" horiz-adv-x="525" 
d="M186 345v-18q64 -10 108.5 -52.5t44.5 -104.5q0 -26 -20 -88q-26 -72 -26 -116q0 -94 158 -97v-38q-132 1 -181 35.5t-49 109.5q0 36 22 106q21 67 21 96q0 59 -43.5 90.5t-115.5 33.5v63q68 1 113.5 37t45.5 83q0 33 -21 96q-20 58 -20 90q0 71 49.5 100t172.5 29v-38
q-152 -2 -152 -82q0 -43 26 -111q20 -54 20 -79q0 -53 -44 -92.5t-109 -52.5z" />
    <glyph glyph-name="braceright.case" horiz-adv-x="525" 
d="M339 327v18q-65 13 -109 52.5t-44 92.5q0 22 21 79q25 71 25 111q0 82 -151 82v38q122 0 171.5 -29t49.5 -100q0 -32 -20 -90q-21 -63 -21 -96q0 -47 46 -83t113 -37v-63q-71 -2 -115 -33.5t-44 -90.5q0 -29 21 -96q22 -70 22 -106q0 -75 -48.5 -109.5t-180.5 -35.5v38
q157 3 157 97q0 41 -25 116q-21 63 -21 88q0 62 44.5 104.5t108.5 52.5z" />
    <glyph glyph-name="dotaccent.case" horiz-adv-x="500" 
d="M190 566q0 27 17 45.5t42 18.5t43 -18.5t18 -45.5q0 -26 -18 -44t-43 -18t-42 18t-17 44z" />
    <glyph glyph-name="acute.plk" horiz-adv-x="500" 
d="M225 502v6q6 27 17.5 81.5t17.5 81.5h81v-7l-80 -162h-36z" />
    <glyph glyph-name="acute.case.plk" horiz-adv-x="500" 
d="M227 492v5l36 129h80v-8l1 1l-79 -127h-38z" />
    <glyph glyph-name="Dotlessi" horiz-adv-x="449" 
d="M375 691v-35q-66 0 -84.5 -7.5t-18.5 -34.5v-532q0 -32 15.5 -39t87.5 -7v-36h-301v36q67 0 85 8t18 38v532q0 29 -17 35.5t-86 6.5v35h301z" />
    <glyph glyph-name="dotaccentlow" horiz-adv-x="500" 
d="M190 -129q0 26 17 44.5t42 18.5t43 -18.5t18 -44.5t-18 -44.5t-43 -18.5t-42 18.5t-17 44.5z" />
    <glyph glyph-name="acute.lchigh" horiz-adv-x="500" 
d="M194 472v6l-1 -1l85 129h87v-8l2 1l-129 -127h-44z" />
    <glyph glyph-name="parenleft.c2sc" horiz-adv-x="362" 
d="M303 -120l-24 -26q-196 164 -196 372q0 109 50.5 193t144.5 163q1 -1 26 -32q-148 -139 -148 -324q0 -216 147 -346z" />
    <glyph glyph-name="parenright.c2sc" horiz-adv-x="362" 
d="M85 -146l-26 26q148 129 148 346q0 185 -149 324q2 3 12 14t15 18q94 -79 144.5 -163t50.5 -193q0 -207 -195 -372z" />
    <glyph glyph-name="bracketleft.c2sc" horiz-adv-x="349" 
d="M286 575v-40q-34 -6 -80 -6q-31 0 -41 1v-616h30q63 0 96 -4v-44q-43 5 -98 5q-52 0 -91 -4v708q38 -5 98 -5q64 0 86 5z" />
    <glyph glyph-name="bracketright.c2sc" horiz-adv-x="349" 
d="M64 535v40q22 -5 86 -5q60 0 98 5v-708q-39 4 -91 4q-64 0 -99 -5v44q35 4 97 4h29v616q-10 -1 -40 -1q-46 0 -80 6z" />
    <glyph glyph-name="braceleft.c2sc" horiz-adv-x="431" 
d="M162 237l-4 -6q51 -8 86.5 -40t35.5 -77q0 -24 -16 -67q-20 -50 -20 -81q0 -32 28 -49t99 -18v-36q-111 0 -152 26t-41 83q0 27 16 73q0 2 2 6q17 49 17 69q0 40 -35.5 62t-92.5 24v53q55 1 91.5 26t36.5 57q0 22 -14 58l-3 9q-16 39 -16 69q0 53 42.5 75t143.5 23v-37
q-122 0 -122 -54q0 -25 19 -74v1l2 -7q15 -39 15 -59q0 -40 -34 -70t-84 -39z" />
    <glyph glyph-name="braceright.c2sc" horiz-adv-x="431" 
d="M269 230l4 6q-51 10 -86.5 40t-35.5 70q0 20 15 59q0 2 2 6q19 49 19 74q0 54 -121 54v37q101 -1 143 -23t42 -75q0 -28 -15 -69l-3 -9q-14 -36 -14 -58q0 -33 36.5 -57.5t91.5 -25.5v-53q-58 -2 -93 -24t-35 -62q0 -20 17 -69v1l2 -7q15 -49 15 -73q0 -57 -40.5 -83
t-152.5 -26v36q71 1 99 18t28 49q0 31 -20 81q-16 43 -16 67q0 45 34.5 76.5t83.5 39.5z" />
    <glyph glyph-name="quotesingle.c2sc" horiz-adv-x="326" 
d="M145 241l-25 303h87l-26 -303h-36z" />
    <glyph glyph-name="quotedbl.c2sc" horiz-adv-x="505" 
d="M144 241l-25 303h87l-26 -303h-36zM325 241l-26 303h87l-25 -303h-36z" />
    <glyph glyph-name="uni2032.c2sc" horiz-adv-x="310" 
d="M78 317l69 264q10 -4 27.5 -10.5t32 -12t27.5 -9.5l-112 -247q-6 2 -21.5 7t-22.5 8z" />
    <glyph glyph-name="uni2033.c2sc" horiz-adv-x="500" 
d="M78 317l69 264q10 -4 27.5 -10.5t32 -12t27.5 -9.5l-112 -247q-6 2 -21.5 7t-22.5 8zM269 317l70 264q8 -3 38.5 -14.5t47.5 -17.5l-112 -247q-6 2 -21.5 7t-22.5 8z" />
    <glyph glyph-name="ampersand.c2sc" horiz-adv-x="691" 
d="M432 417q0 -23 -8.5 -41t-29.5 -33.5t-35 -23t-46 -23.5l-23 -10q63 -103 149 -178q39 49 54 104q-1 32 -85 34v38h211v-38q-31 -1 -54 -14t-32 -32q-23 -63 -64 -117q42 -31 79 -31q26 0 35.5 12t9.5 39h29q0 -52 -21.5 -82.5t-60.5 -30.5q-46 0 -120 47
q-67 -47 -139 -47q-96 0 -144 41.5t-48 103.5q0 56 31 91t87 62q-32 66 -32 108q0 51 37 87t98 36q54 0 88 -29t34 -73zM384 60l1 5q-95 78 -158 185q-52 -43 -52 -100q0 -48 38 -79t90 -31q45 0 81 20zM246 410q0 -34 26 -89q90 44 90 98q0 28 -14.5 47t-43.5 19
q-25 0 -41.5 -20t-16.5 -55z" />
    <glyph glyph-name="asterisk.c2sc" horiz-adv-x="566" 
d="M304 376v-4q49 -24 122 -44q26 -5 26 -31q0 -16 -12 -30t-27 -14q-11 0 -22 11l-14 14q-46 52 -90 79q6 -65 26 -134q7 -19 -3.5 -31t-26.5 -12t-26 12t-6 32l6 26q14 64 17 106q-50 -32 -103 -92q-17 -14 -36.5 -1t-19.5 33q0 22 24 30h-1l14 4q75 22 111 44
q-58 25 -125 39q-22 3 -22 28q0 22 16.5 35t37.5 -3l15 -13v1q56 -52 90 -76q-10 66 -27 132q-6 20 4.5 32t27.5 12t28 -11.5t5 -33.5v1l-9 -33q-14 -51 -19 -98q56 35 106 88q12 13 23 13q12 0 22 -14t10 -30q0 -24 -22 -30l-28 -7q-62 -14 -92 -30z" />
    <glyph glyph-name="uni2042.c2sc" horiz-adv-x="986" 
d="M514 447v-5q46 -24 122 -44q25 -6 25 -30q0 -16 -11.5 -30t-26.5 -14q-11 0 -22 11l-14 14q-47 51 -90 78q6 -64 26 -134q6 -19 -4 -30.5t-26 -11.5t-26 11.5t-6 31.5l6 27q14 64 17 105q-55 -34 -103 -91q-17 -14 -36.5 -1t-19.5 33q0 21 24 29h-1l14 4q75 23 111 44
q-59 26 -125 40q-22 3 -22 28q0 21 16.5 34t37.5 -3l15 -13v1q52 -49 90 -75q-9 62 -27 132q-6 20 4.5 32t27.5 12t27.5 -11.5t5.5 -33.5v1l-9 -34q-14 -52 -19 -97q52 33 106 87q12 13 23 13q12 0 21.5 -13.5t9.5 -29.5q0 -24 -21 -30l-28 -7q-64 -15 -92 -30zM302 74v-4
q48 -25 122 -45q26 -5 26 -30q0 -16 -12 -30t-27 -14q-11 0 -22 11l-14 14q-44 50 -90 78q6 -64 26 -134q7 -19 -3.5 -30.5t-26.5 -11.5t-26 11.5t-6 31.5l6 27q14 64 17 105q-52 -34 -103 -91q-17 -14 -36.5 -1t-19.5 33q0 21 24 29h-1l14 4q75 22 111 45q-58 25 -125 39
q-22 3 -22 28q0 22 16.5 35t37.5 -4l15 -13v1q60 -54 90 -75q-9 62 -27 132q-6 20 4.5 32t27.5 12t28 -11.5t5 -33.5v1l-9 -34q-14 -52 -19 -97q55 34 106 87q12 13 23 13q12 0 22 -14t10 -29q0 -24 -22 -30l-28 -7q-62 -14 -92 -30zM726 74v-4q48 -25 122 -45q25 -6 25 -30
q0 -16 -11.5 -30t-26.5 -14q-12 0 -23 11l-14 14q-44 49 -89 78q6 -64 26 -134q6 -19 -4 -30.5t-26 -11.5t-26.5 11.5t-6.5 31.5l6 27q14 64 17 105q-54 -35 -102 -91q-17 -14 -37 -1t-20 33q0 21 24 29h-1l15 4q74 23 110 45q-59 26 -125 39q-22 3 -22 28q0 22 16.5 35
t38.5 -4l15 -13v1q55 -52 89 -75q-9 62 -27 132q-6 20 4.5 32t28.5 12q17 0 27.5 -11.5t5.5 -33.5v1l-9 -34q-14 -52 -19 -97q54 34 105 87q12 13 24 13t21.5 -13.5t9.5 -29.5q0 -24 -21 -30l-29 -7q-62 -14 -91 -30z" />
    <glyph glyph-name="slash.c2sc" horiz-adv-x="451" 
d="M380 542l-247 -631h-62q42 111 125 323t120 308h64z" />
    <glyph glyph-name="backslash.c2sc" horiz-adv-x="451" 
d="M318 -89l-247 631h63l246 -631h-62z" />
    <glyph glyph-name="at.c2sc" horiz-adv-x="743" 
d="M608 288q0 26 -7 52t-24 54t-50.5 45.5t-80.5 17.5q-78 0 -147 -53t-108.5 -134.5t-39.5 -166.5t36 -128t100 -43q67 0 133 45q4 -7 11 -17.5l9 -13.5q-79 -58 -161 -58q-92 0 -139.5 56.5t-47.5 158.5q0 91 47 181t131 150t179 60q100 0 158 -56.5t58 -149.5
q0 -62 -26.5 -114.5t-65 -83t-77 -47t-68.5 -16.5q-31 0 -31 34q0 26 18 62q-5 2 -10 7q-79 -104 -136 -104q-23 0 -36 19t-13 44q0 56 48 136q39 54 88.5 93t91.5 39q20 0 35 -28q7 15 14 21t22 6q17 0 22 -5t-1 -15l-82 -235q-5 -21 9 -21q37 0 89 59.5t52 148.5zM284 113
q0 -13 3 -20t7 -8.5t10 -1.5q29 0 77 57t82 132q8 48 -23 48q-28 0 -58 -25t-54 -64q-44 -70 -44 -118z" />
    <glyph glyph-name="section.c2sc" horiz-adv-x="483" 
d="M90 351q0 81 55 129t123 48q34 0 60 -16t26 -43q0 -15 -10.5 -24.5t-28.5 -9.5q-23 0 -41 22q-25 23 -43 23q-19 0 -30 -14.5t-11 -33.5t13.5 -45t26.5 -43t42 -53q38 -45 58.5 -73t41.5 -76t21 -92q0 -53 -33 -94.5t-75.5 -61t-82.5 -19.5q-38 0 -68 17t-30 48
q0 15 11 24.5t30 9.5q21 0 38 -23q20 -26 49 -26q17 0 30 12t13 31q0 66 -84 165q-32 40 -49 64t-34.5 67.5t-17.5 86.5zM316 -23l10 -1q24 28 24 75q0 32 -19 72.5t-37.5 66t-52.5 68.5q-28 35 -42 55t-28.5 49.5t-13.5 50.5l-8 1q-18 -32 -18 -58q0 -34 16 -71.5t33.5 -62
t49.5 -63.5l9 -11q26 -34 41 -56t27 -54.5t9 -60.5z" />
    <glyph glyph-name="paragraph.c2sc" horiz-adv-x="532" 
d="M466 522v-58h-47v-579h-49v579h-52v-579h-49v293q-103 1 -159.5 47t-56.5 126q0 78 56 124.5t144 46.5h213zM269 226v238q-45 -3 -73 -35t-28 -81q0 -53 27 -86.5t74 -35.5z" />
    <glyph glyph-name="registered.c2sc" horiz-adv-x="598" 
d="M89 394q0 88 62 151t148 63q90 0 150.5 -62.5t60.5 -151.5q0 -88 -62.5 -151t-148.5 -63q-88 0 -149 61t-61 153zM123 393q0 -77 49.5 -127.5t127.5 -50.5q73 0 124.5 51t51.5 127q0 78 -51 128.5t-126 50.5q-80 0 -128 -50.5t-48 -128.5zM328 400v-10q14 -6 41 -42
q24 -32 35 -41l14 -7v-17h-47q-14 10 -37 47q-30 46 -54 56h-20v-79q5 -1 18 -4t19 -4v-16h-104v17l27 7v187l-27 7v17h111q28 0 54.5 -14t26.5 -46q0 -20 -15.5 -36.5t-41.5 -21.5zM260 495v-87h31q27 0 39.5 14.5t12.5 33.5q0 39 -46 39h-37z" />
    <glyph glyph-name="copyright.c2sc" horiz-adv-x="865" 
d="M96 282q0 139 99.5 239t237.5 100q144 0 240.5 -99t96.5 -240q0 -143 -99 -242t-238 -99q-140 0 -238.5 96.5t-98.5 244.5zM146 279q0 -124 81 -206.5t208 -82.5q126 0 205 82.5t79 206.5q0 128 -81 212t-205 84q-125 0 -206 -85.5t-81 -210.5zM442 135q47 0 74.5 20
t41.5 63h19v-80q-68 -42 -137 -42q-80 0 -134 50t-54 137q0 83 54.5 134.5t133.5 51.5q63 0 133 -36v-83h-21q-31 82 -112 82q-53 0 -85 -36t-32 -112q0 -72 36 -110.5t83 -38.5z" />
    <glyph glyph-name="uni2117.c2sc" horiz-adv-x="865" 
d="M96 282q0 139 99.5 239t237.5 100q144 0 240.5 -99t96.5 -240q0 -140 -99.5 -240.5t-237.5 -100.5q-140 0 -238.5 96.5t-98.5 244.5zM146 279q0 -124 81 -206.5t208 -82.5q126 0 205 82.5t79 206.5q0 128 -81 212t-205 84q-125 0 -206 -85.5t-81 -210.5zM458 253h-47
v-124q7 -1 25 -4t26 -4v-23h-168v23l48 9v303q-7 1 -23.5 4.5t-24.5 4.5v23h166q54 0 95 -26.5t41 -79.5q0 -48 -37 -77t-101 -29zM411 428v-141h51q25 0 44 19t19 49q0 37 -18 55t-49 18h-47z" />
    <glyph glyph-name="trademark.c2sc" horiz-adv-x="760" 
d="M587 488h-18q-13 -29 -39 -90.5t-39 -90.5h-7l-75 181h-15l-15 -154l33 -7v-20h-82v21l33 6l19 196l-38 6v20h84l63 -166h17q20 48 72 166h82v-20l-35 -6l12 -196l31 -6v-21h-109v21l35 6zM103 556h201l15 -70h-13l-32 47h-46v-199l32 -6v-21h-112v21l32 6v199h-45
l-33 -47h-12z" />
    <glyph glyph-name="zero.c2sc" horiz-adv-x="535" 
d="M473 249q0 -124 -59.5 -191t-147.5 -67q-90 0 -146.5 62t-56.5 196q0 128 58 199t145 71q88 0 147.5 -70.5t59.5 -199.5zM374 249q0 125 -22.5 178.5t-85.5 53.5q-60 0 -83 -53.5t-23 -178.5q0 -124 20.5 -172t85.5 -48t86.5 48.5t21.5 171.5z" />
    <glyph glyph-name="one.c2sc" horiz-adv-x="444" 
d="M81 447v36q91 3 163 28h38v-425q0 -29 25 -42t82 -14v-30h-305v30q62 3 86.5 14t24.5 42v349q-31 1 -76 7z" />
    <glyph glyph-name="two.c2sc" horiz-adv-x="518" 
d="M171 77l2 -6h174q22 0 39.5 24t23.5 62h47q-4 -27 -13.5 -79t-13.5 -78h-361q-2 7 -7.5 19.5t-7.5 19.5l35 28q247 183 247 307q0 56 -30 81.5t-72 25.5q-71 0 -98 -56l50 -64l-1 1q0 -27 -16.5 -43.5t-42.5 -16.5q-29 0 -44 19t-15 50q0 66 52 107t124 41
q87 0 138.5 -39t51.5 -107q0 -42 -36 -91.5t-73.5 -81.5t-93.5 -74q-14 -12 -21 -17q-14 -10 -38 -32z" />
    <glyph glyph-name="three.c2sc" horiz-adv-x="507" 
d="M296 280l-3 -6q62 -8 105.5 -42.5t43.5 -94.5q0 -71 -67 -108.5t-159 -37.5q-70 0 -117.5 26t-47.5 75q0 28 15 45.5t40 17.5t39.5 -15.5t14.5 -42.5l1 1l-35 -49q27 -22 84 -22q56 0 95.5 26t39.5 87q0 49 -26.5 73.5t-71.5 24.5q-29 0 -79 -13l-14 35q91 30 133.5 65.5
t42.5 82.5q0 75 -91 75q-50 0 -89 -27l39 -61l-1 1q0 -20 -15 -33t-37 -13q-24 0 -38.5 17t-14.5 45q0 51 52 79t119 28q76 0 124 -30.5t48 -82.5q0 -39 -37 -71.5t-93 -54.5z" />
    <glyph glyph-name="four.c2sc" horiz-adv-x="521" 
d="M51 153l-10 24l299 342q6 -1 17.5 -2t17.5 -2v-322h87v-40h-87v-51q0 -43 22 -57t64 -15v-30h-262v30q46 1 68.5 15t22.5 52v56h-239zM115 193h173v205z" />
    <glyph glyph-name="five.c2sc" horiz-adv-x="512" 
d="M164 422l-5 -64l-7 -70q67 34 124 34q69 0 120 -39t51 -109q0 -83 -66 -133t-167 -50q-57 0 -105 27t-48 74q0 27 16 43.5t43 16.5q22 0 36.5 -15t16.5 -37l-40 -51q27 -22 86 -22q63 0 96.5 41.5t33.5 100.5q0 103 -97 103q-64 0 -113 -46h-35q4 48 13 143.5t13 143.5
q82 -21 150 -21q82 0 149 27v-41q-62 -62 -187 -62q-44 0 -78 6z" />
    <glyph glyph-name="six.c2sc" horiz-adv-x="538" 
d="M297 519q69 0 109.5 -28.5t40.5 -64.5q0 -26 -14 -41t-42 -15q-23 0 -38.5 14.5t-16.5 38.5l36 38q-22 24 -75 24q-30 0 -55.5 -21.5t-41.5 -56.5t-26 -74t-12 -77q61 66 140 66q80 0 125 -41.5t45 -107.5q0 -85 -59.5 -133.5t-140.5 -48.5q-83 0 -141.5 58.5
t-58.5 182.5q0 120 65.5 203.5t159.5 83.5zM374 169q0 112 -89 112q-32 0 -66 -22.5t-56 -63.5q3 -166 110 -166q101 0 101 140z" />
    <glyph glyph-name="seven.c2sc" horiz-adv-x="495" 
d="M171 47q34 203 207 387l-5 2q-29 -13 -80 -13q-18 0 -52 6q-32 6 -51 6q-74 0 -87 -98h-38l28 178h39l2 -14q40 18 66 18q28 0 65 -15h1q2 -1 3 -1q34 -15 67 -15q49 0 110 36q2 -3 8 -8.5t13 -12.5l8 -8q-65 -72 -104 -128.5t-66.5 -140.5t-27.5 -182q0 -10 -1 -16
t-5.5 -15t-16 -13.5t-29.5 -4.5q-30 0 -44 13t-10 39z" />
    <glyph glyph-name="eight.c2sc" horiz-adv-x="521" 
d="M340 278l-3 -4q121 -37 121 -132q0 -69 -63.5 -110t-145.5 -41q-83 0 -134 34t-51 92q0 39 34 72.5t87 53.5l-2 4q-1 0 -3 1q-45 21 -70 56.5t-25 69.5q0 61 53 103t132 42q76 0 120.5 -32t44.5 -84q0 -73 -95 -125zM356 396q0 36 -28.5 61t-70.5 25q-44 0 -71.5 -24.5
t-27.5 -56.5q0 -74 132 -110q66 34 66 105zM378 126q0 74 -148 102q-41 -12 -66 -39.5t-24 -68.5q1 -43 33.5 -67t85.5 -24q50 0 84.5 25.5t34.5 71.5z" />
    <glyph glyph-name="nine.c2sc" horiz-adv-x="538" 
d="M239 -9q-69 0 -108.5 25.5t-39.5 58.5q0 26 14 42t40 16q25 0 41 -15.5t16 -41.5l2 1l-38 -33q25 -19 73 -19q60 0 95 66.5t40 160.5q-61 -64 -139 -64q-79 0 -124 45.5t-45 117.5q0 74 60 121t140 47q38 0 72 -13t64 -40t47.5 -75.5t17.5 -112.5q0 -132 -65 -209.5
t-163 -77.5zM163 348q0 -62 24.5 -90.5t64.5 -28.5q31 0 66 23t56 63q-3 166 -110 166q-51 0 -76 -36.5t-25 -96.5z" />
    <glyph glyph-name="zero.c2sc.tnum" horiz-adv-x="552" 
d="M481 249q0 -124 -59.5 -191t-147.5 -67q-90 0 -146.5 62t-56.5 196q0 128 58 199t145 71q88 0 147.5 -70.5t59.5 -199.5zM382 249q0 125 -22.5 178.5t-85.5 53.5q-60 0 -83 -53.5t-23 -178.5q0 -124 20.5 -172t85.5 -48t86.5 48.5t21.5 171.5z" />
    <glyph glyph-name="one.c2sc.tnum" horiz-adv-x="441" 
d="M76 447v36q91 3 163 28h38v-425q0 -29 25 -42t82 -14v-30h-305v30q62 3 86.5 14t24.5 42v349q-31 1 -76 7z" />
    <glyph glyph-name="two.c2sc.tnum" horiz-adv-x="532" 
d="M174 77l2 -6h174q22 0 39.5 24t23.5 62h47q-4 -27 -13.5 -79t-13.5 -78h-361q-2 7 -7.5 19.5t-7.5 19.5l35 28q247 183 247 307q0 56 -30 81.5t-72 25.5q-71 0 -98 -56l51 -64l-2 1q0 -27 -16.5 -43.5t-42.5 -16.5q-29 0 -44 19t-15 50q0 66 52 107t124 41
q87 0 138.5 -39t51.5 -107q0 -42 -35.5 -91t-74 -82t-93.5 -74q-14 -12 -21 -17q-14 -10 -38 -32z" />
    <glyph glyph-name="three.c2sc.tnum" horiz-adv-x="518" 
d="M304 280l-3 -6q62 -8 106 -42.5t44 -94.5q0 -71 -67 -108.5t-160 -37.5q-70 0 -117.5 26t-47.5 75q0 28 15 45.5t40 17.5t39.5 -15.5t14.5 -42.5l1 1l-35 -49q27 -22 84 -22q56 0 95.5 26t39.5 87q0 49 -26.5 73.5t-71.5 24.5q-29 0 -79 -13l-14 35q91 30 133.5 65.5
t42.5 82.5q0 75 -91 75q-50 0 -89 -27l40 -61l-1 1q0 -20 -15.5 -33t-37.5 -13q-24 0 -38.5 17t-14.5 45q0 51 52 79t119 28q76 0 124 -30.5t48 -82.5q0 -39 -37 -71.5t-93 -54.5z" />
    <glyph glyph-name="four.c2sc.tnum" horiz-adv-x="535" 
d="M57 153l-10 24l299 342q7 -1 18 -2t17 -2v-322h87v-40h-87v-51q0 -43 22 -57t64 -15v-30h-262v30q46 1 68.5 15t22.5 52v56h-239zM121 193h173v205z" />
    <glyph glyph-name="five.c2sc.tnum" horiz-adv-x="524" 
d="M165 422l-5 -64l-7 -70q67 34 124 34q69 0 120 -39t51 -109q0 -83 -66 -133t-167 -50q-57 0 -104.5 27t-47.5 74q0 27 15.5 43.5t42.5 16.5q22 0 36.5 -15t16.5 -37l-40 -51q27 -22 86 -22q63 0 96.5 41.5t33.5 100.5q0 103 -97 103q-64 0 -113 -46h-35q4 48 13 143.5
t13 143.5q82 -21 150 -21q81 0 149 27v-41q-62 -62 -187 -62q-44 0 -78 6z" />
    <glyph glyph-name="six.c2sc.tnum" horiz-adv-x="555" 
d="M302 519q69 0 109.5 -28.5t40.5 -64.5q0 -26 -14 -41t-42 -15q-23 0 -38.5 14.5t-16.5 38.5l36 38q-22 24 -75 24q-30 0 -55.5 -21.5t-41.5 -56.5t-26 -74t-12 -77q61 66 140 66q80 0 125 -41.5t45 -107.5q0 -85 -59.5 -133.5t-140.5 -48.5q-83 0 -141.5 58.5
t-58.5 182.5q0 120 65.5 203.5t159.5 83.5zM379 169q0 112 -89 112q-32 0 -66 -22.5t-56 -63.5q3 -166 110 -166q101 0 101 140z" />
    <glyph glyph-name="seven.c2sc.tnum" horiz-adv-x="504" 
d="M174 47q34 203 207 387l-5 2q-29 -13 -80 -13q-18 0 -52 6q-32 6 -51 6q-74 0 -87 -98h-38l28 178h39l2 -14q41 18 66 18q27 0 65 -15h2q1 -1 2 -1q34 -15 67 -15q49 0 110 36q2 -3 8 -8.5t13 -12.5l8 -8q-65 -72 -104 -128.5t-66.5 -140.5t-27.5 -182q0 -10 -1 -16
t-5.5 -15t-16 -13.5t-29.5 -4.5q-29 0 -43.5 13t-10.5 39z" />
    <glyph glyph-name="eight.c2sc.tnum" horiz-adv-x="535" 
d="M346 278l-3 -4q121 -37 121 -132q0 -69 -63.5 -110t-145.5 -41q-83 0 -134 34t-51 92q0 39 34.5 72.5t87.5 53.5l-2 4q-1 0 -2 1h-2q-45 21 -70 56.5t-25 69.5q0 61 53 103t132 42q76 0 120.5 -32t44.5 -84q0 -73 -95 -125zM362 396q0 36 -28 61t-71 25
q-44 0 -71.5 -24.5t-27.5 -56.5q0 -74 132 -110q66 34 66 105zM384 126q0 74 -148 102q-41 -12 -66 -39.5t-24 -68.5q1 -43 33.5 -67t85.5 -24q50 0 84.5 25.5t34.5 71.5z" />
    <glyph glyph-name="nine.c2sc.tnum" horiz-adv-x="556" 
d="M250 -9q-69 0 -108.5 25.5t-39.5 58.5q0 26 14 42t40 16t41.5 -15t15.5 -42l2 1l-38 -33q27 -19 73 -19q60 0 95 66.5t40 160.5q-61 -64 -139 -64q-79 0 -124 45.5t-45 117.5q0 74 60 121t140 47q38 0 72 -13t64 -40t47.5 -75.5t17.5 -112.5q0 -132 -65 -209.5
t-163 -77.5zM174 348q0 -62 24.5 -90.5t64.5 -28.5q31 0 66 23t56 63q-3 166 -110 166q-51 0 -76 -36.5t-25 -96.5z" />
    <glyph glyph-name="dollar.c2sc" horiz-adv-x="530" 
d="M145 51l-14 -39h-26q-1 28 -3 80t-2 79h24q27 -113 126 -133v185q-7 0 -8 1q-74 22 -109 56t-35 88q0 58 41 92.5t100 34.5h11v67h33v-71q46 -11 92 -40q2 4 7.5 15.5t6.5 13.5h26q0 -24 1 -69.5t1 -68.5h-23q-33 91 -111 119v-174q10 -4 23 -6q81 -22 114 -54.5
t33 -85.5q0 -59 -44.5 -98t-114.5 -39h-11v-76h-33v79q-57 10 -105 44zM400 117q0 28 -25 49t-92 46v-177h10q52 0 79.5 24t27.5 58zM152 385q0 -51 98 -89v170h-10q-41 0 -64.5 -24.5t-23.5 -56.5z" />
    <glyph glyph-name="cent.c2sc" horiz-adv-x="483" 
d="M403 175l22 -9q-17 -57 -57 -93t-98 -37v-96h-28v97q-74 10 -121 64t-47 151q0 87 48 148.5t120 74.5v91h28v-89q58 -2 100 -33t42 -76q0 -31 -12.5 -47t-32.5 -16q-23 0 -36.5 17.5t-11.5 42.5l-2 -1l26 41q-13 38 -73 38v-362h18q43 0 73 26.5t42 67.5zM153 264
q0 -139 89 -177v352q-89 -31 -89 -175z" />
    <glyph glyph-name="sterling.c2sc" horiz-adv-x="526" 
d="M87 281h63q-23 54 -23 86q0 64 46 98.5t107 34.5q65 0 101.5 -28.5t36.5 -57.5q0 -18 -10 -28t-22 -10q-24 0 -45 43q-27 51 -61 51q-31 0 -52 -22.5t-21 -65.5q0 -25 19 -76q2 -6 12 -25h122v-36h-112q2 -18 2 -30q0 -82 -43 -120l7 -8q20 13 42 13q30 0 72 -38
q37 -31 61 -31q33 0 33 25q0 10 -16 24q-16 12 -16 31q0 11 7.5 19.5t20.5 8.5q45 0 45 -58q0 -43 -31 -66.5t-72 -23.5q-55 0 -105 23.5t-75 50.5q-47 -74 -87 -74q-22 0 -22 20q0 22 29 41.5t68 31.5q15 35 15 88q0 32 -16 73h-80v36z" />
    <glyph glyph-name="yen.c2sc" horiz-adv-x="541" 
d="M514 470v-29q-53 -3 -88 -53q-33 -52 -56 -93q-20 -36 -42 -70h102v-36h-112v-39h112v-35h-112v-28q0 -38 14.5 -48t62.5 -10v-29h-227v29q53 0 64.5 9t11.5 49v28h-116v35h116v39h-116v36h104q-37 56 -48 70q-10 16 -30 45t-28 42q-28 35 -46 46.5t-52 12.5v29h215v-29
q-58 -2 -58 -19q0 -8 14 -25l102 -153l93 153q9 17 -0.5 30t-36.5 14v29h157z" />
    <glyph glyph-name="Euro.c2sc" horiz-adv-x="570" 
d="M81 297h53q16 93 74.5 148t136.5 55q84 0 157 -47l-29 -102h-19q1 61 -33.5 87.5t-75.5 26.5q-51 0 -87 -42.5t-46 -125.5h252l-11 -35h-245v-39h233q-1 -6 -4.5 -17.5t-5.5 -18.5h-220q10 -77 47.5 -118t84.5 -41q94 0 125 95l29 -10q-41 -122 -162 -122
q-78 0 -134.5 51.5t-69.5 144.5h-61q2 7 6 18.5t5 17.5h47v39h-58q2 6 6 17t5 18z" />
    <glyph glyph-name="numbersign.c2sc" horiz-adv-x="459" 
d="M96 378l78 -11q5 26 18.5 77.5t18.5 77.5q7 -1 20 -3t19 -2l-35 -155l79 -8q6 27 20 84t20 84q7 -1 21.5 -3t19.5 -2l-39 -169l83 -10q-1 -8 -3 -23.5t-2 -23.5l-88 11l-28 -118l74 -8l-6 -47l-79 11l-38 -166q-7 1 -20 3t-19 2l37 166l-81 8q-7 -29 -21 -89.5t-20 -89.5
q-7 1 -20.5 3t-19.5 2l41 180l-84 11q0 8 2 23t3 23l89 -12l27 118l-73 10zM204 317l-27 -118l80 -9l27 116z" />
    <glyph glyph-name="percent.c2sc" horiz-adv-x="494" 
d="M301 410q-23 0 -44 18q-2 -63 -36 -103t-80 -40q-37 0 -61.5 27t-24.5 68q0 55 38 95t81 40q53 0 77 -51q12 -25 55 -25q40 0 72 22q18 50 42 50q6 0 12 -4.5t6 -13.5q0 -11 -11.5 -24t-24.5 -21q-14 -20 -41 -56.5t-37 -50.5q-27 -36 -77 -106l-175 -247l-25 18l183 246
l116 169q-31 -11 -45 -11zM238 85q0 56 37.5 96.5t81.5 40.5q36 0 59 -24t23 -64q0 -64 -35 -103t-78 -39q-39 0 -63.5 26t-24.5 67zM188 480q-28 0 -52 -38t-24 -82q0 -20 10 -32t27 -12q28 0 51 31t23 88q0 22 -10 33.5t-25 11.5zM370 186q-28 0 -51.5 -38t-23.5 -83
q0 -20 10 -31t25 -11q28 0 51.5 30t23.5 88q0 45 -35 45z" />
    <glyph glyph-name="perthousand.c2sc" horiz-adv-x="722" 
d="M302 410q-23 0 -44 18q-2 -63 -36 -103t-80 -40q-37 0 -61.5 27t-24.5 68q0 55 38 95t81 40q53 0 77 -51q12 -25 55 -25q40 0 72 22q18 50 42 50q6 0 12 -4.5t6 -13.5q0 -11 -11.5 -24t-24.5 -21q-14 -20 -41 -56.5t-37 -50.5q-27 -36 -77 -106l-175 -247l-25 18l183 246
l116 169q-31 -11 -45 -11zM239 85q0 56 37.5 96.5t81.5 40.5q36 0 59 -24t23 -64q0 -64 -35 -103t-78 -39q-39 0 -63.5 26t-24.5 67zM468 85q0 56 37 96.5t80 40.5q37 0 60 -23.5t23 -64.5q0 -64 -35 -103t-79 -39q-39 0 -62.5 26t-23.5 67zM190 480q-28 0 -52.5 -38
t-24.5 -82q0 -20 10 -32t27 -12q28 0 51 31t23 88q0 21 -10 33t-24 12zM600 186q-29 0 -53 -38t-24 -83q0 -20 10 -31t26 -11q28 0 51.5 30t23.5 88q0 21 -10 33t-24 12zM371 186q-28 0 -51.5 -38t-23.5 -83q0 -20 10 -31t25 -11q28 0 51.5 30t23.5 88q0 45 -35 45z" />
    <glyph glyph-name="ordfeminine.c2sc" horiz-adv-x="421" 
d="M284 264l-28 59h-120l-14 -32l-7 -18q0 -14 48 -15v-21h-131v21q38 1 57 31l50 110q23 53 63 137h13l123 -251q10 -15 20.5 -21t32.5 -6v-21h-154v21h18q29 1 29 6zM195 449l-47 -102h96z" />
    <glyph glyph-name="ordmasculine.c2sc" horiz-adv-x="431" 
d="M382 384q0 -64 -49 -108.5t-117 -44.5q-70 0 -118 43t-48 110t48 110t118 43q68 0 117 -43.5t49 -109.5zM314 384q0 129 -98 129q-53 0 -75 -33t-22 -96q0 -130 97 -130q49 0 73.5 35t24.5 95z" />
    <glyph glyph-name="degree.c2sc" horiz-adv-x="417" 
d="M69 415q0 59 41 101t98 42t98.5 -42t41.5 -101q0 -58 -41.5 -100t-98.5 -42t-98 42t-41 100zM119 415q0 -39 24.5 -66.5t63.5 -27.5q40 0 64.5 27.5t24.5 66.5q0 41 -24.5 69t-64.5 28q-39 0 -63.5 -28t-24.5 -69z" />
    <glyph glyph-name="exclam.c2sc" horiz-adv-x="350" 
d="M222 451l-3 -23q-25 -153 -25 -270h-35q0 181 -29 294v-1q-7 31 4 56.5t43 25.5q60 0 45 -82zM123 46q0 23 15 38.5t38 15.5q22 0 37.5 -15.5t15.5 -38.5q0 -22 -15.5 -37.5t-37.5 -15.5q-23 0 -38 15.5t-15 37.5z" />
    <glyph glyph-name="exclamdown.c2sc" horiz-adv-x="350" 
d="M129 76l3 22q25 153 25 270h35q0 -182 29 -293v1q7 -32 -4.5 -57.5t-43.5 -25.5q-59 0 -44 83zM228 480q0 -23 -15 -38.5t-39 -15.5q-21 0 -36.5 16t-15.5 38t15.5 37.5t36.5 15.5q24 0 39 -15.5t15 -37.5z" />
    <glyph glyph-name="question.c2sc" horiz-adv-x="468" 
d="M151 310l9 7q46 -21 92 -21q42 0 67.5 25.5t25.5 65.5q0 41 -35.5 75t-90.5 34q-35 0 -48 -13l8 -15l16 -31l-1 1q0 -17 -13 -28.5t-33 -11.5q-18 0 -30.5 13.5t-12.5 37.5q0 36 29.5 60t79.5 24q72 0 125 -46.5t53 -117.5q0 -65 -35 -106.5t-89 -41.5q-47 0 -77 18
q0 -32 -1 -45q0 -7 -1 -19t-1 -17h-33zM118 46q0 23 15 38.5t38 15.5t39 -15.5t16 -38.5q0 -22 -16 -37.5t-39 -15.5q-22 0 -37.5 15.5t-15.5 37.5z" />
    <glyph glyph-name="questiondown.c2sc" horiz-adv-x="468" 
d="M316 215l-10 -6q-46 21 -90 21q-43 0 -68 -25.5t-25 -65.5q0 -41 35 -75t91 -34q34 0 47 13l-8 15l-15 31l1 -1q0 17 13 28.5t33 11.5q18 0 30.5 -13t12.5 -37q0 -37 -29.5 -61t-79.5 -24q-72 0 -125 46.5t-53 117.5q0 65 35 106.5t89 41.5q47 0 77 -18q0 33 1 46
q0 7 0.5 18.5t0.5 16.5h33zM350 480q0 -23 -15.5 -38.5t-38.5 -15.5q-22 0 -38 16t-16 38t16 37.5t38 15.5q23 0 38.5 -15.5t15.5 -37.5z" />
    <glyph glyph-name="quoteleft.c2sc" horiz-adv-x="308" 
d="M216 369q0 -24 -17 -38.5t-46 -14.5q-30 0 -51 21.5t-21 54.5q0 93 100 161l24 -30q-84 -56 -79 -133q27 21 46 21q18 0 31 -11t13 -31z" />
    <glyph glyph-name="quoteright.c2sc" horiz-adv-x="308" 
d="M93 493q0 24 16.5 38t45.5 14q31 0 52 -21t21 -54q0 -93 -101 -162l-23 31q83 57 78 133q-27 -21 -46 -21q-18 0 -30.5 11t-12.5 31z" />
    <glyph glyph-name="quotedblleft.c2sc" horiz-adv-x="528" 
d="M215 369q0 -24 -17 -38.5t-46 -14.5q-30 0 -51 21.5t-21 54.5q0 93 100 161l24 -30q-84 -56 -79 -133q27 21 46 21q18 0 31 -11t13 -31zM436 369q0 -24 -16.5 -38.5t-45.5 -14.5q-31 0 -52 21.5t-21 54.5q0 93 101 161l23 -30q-83 -57 -78 -133q27 21 46 21
q18 0 30.5 -11t12.5 -31z" />
    <glyph glyph-name="quotedblright.c2sc" horiz-adv-x="528" 
d="M313 493q0 23 17 37.5t46 14.5q31 0 52 -21t21 -54q0 -92 -101 -162l-23 31q83 57 78 133q-27 -21 -46 -21q-18 0 -31 11t-13 31zM92 493q0 24 16.5 38t45.5 14q31 0 52 -21t21 -54q0 -93 -101 -162l-23 31q83 57 78 133q-27 -21 -46 -21q-18 0 -30.5 11t-12.5 31z" />
    <glyph glyph-name="Iacute_Jacute" horiz-adv-x="1062" 
d="M373 692v-35q-67 0 -85.5 -7.5t-18.5 -34.5v-532q0 -32 16 -39.5t88 -7.5v-36h-301v36q67 0 84.5 8t17.5 39v532q0 29 -17 35.5t-85 6.5v35h301zM166 753v6l-1 -1l86 129h87v-8l2 1l-129 -127h-45zM1008 692v-35q-64 0 -84 -15t-20 -75v-372q0 -50 -14 -88t-35 -60
t-49.5 -36t-53.5 -18.5t-52 -4.5q-75 0 -126.5 38.5t-51.5 115.5q0 41 20 68t50 27q26 0 43.5 -22t18.5 -66l-82 -49q5 -36 36.5 -56.5t82.5 -20.5q62 0 90.5 39.5t28.5 125.5v378q0 61 -19 76t-83 15v35h300zM797 753v6l-1 -1l86 129h87v-8l2 1l-129 -127h-45z" />
    <glyph glyph-name="iacute_jacute" horiz-adv-x="923" 
d="M333 510v-34q-51 0 -65.5 -4.5t-14.5 -21.5v-385q0 -21 12 -25.5t68 -4.5v-35h-248v35q50 0 64 5.5t14 24.5v385q0 18 -12.5 22t-65.5 4v34h248zM148 575v6l-1 -1l86 164h87v-8l1 1l-129 -162h-44zM865 510v-34q-49 0 -64.5 -10.5t-15.5 -50.5v-273q0 -45 -16 -77.5
t-43 -48t-52.5 -22t-52.5 -6.5q-61 0 -102.5 29t-41.5 88q0 31 17.5 51.5t44.5 20.5q23 0 39 -17t17 -51l-63 -36q10 -51 83 -51q42 0 61.5 27.5t19.5 88.5v276q0 41 -14.5 51.5t-63.5 10.5v34h247zM681 575v6l-1 -1l86 164h87v-8l1 1l-129 -162h-44z" />
    <glyph glyph-name="hyphen.c2sc" horiz-adv-x="408" 
d="M81 270h246v-65h-246v65z" />
    <glyph glyph-name="endash.c2sc" horiz-adv-x="578" 
d="M90 270h399v-65h-399v65z" />
    <glyph glyph-name="emdash.c2sc" horiz-adv-x="1090" 
d="M133 265h825v-55h-825v55z" />
    <glyph glyph-name="twosevenths" 
d="M117 364l1 -7h116q30 0 40 66h35l-9 -57t-8 -57h-251l-8 27l22 19q24 20 39 33t42.5 40.5t44 50.5t30 53t13.5 56q0 43 -20 62.5t-47 19.5q-43 0 -66 -45q6 -8 18.5 -24.5t17.5 -24.5l-1 1q0 -19 -12 -30t-31 -11q-42 0 -42 50q0 48 36 78t86 30q60 0 95.5 -28.5
t35.5 -78.5q0 -30 -25 -67.5t-49 -60.5t-65 -57q-27 -22 -44 -39l2 1h4zM550 22q24 146 141 292l-5 2q-19 -8 -52 -8q-14 0 -34 4q-2 0 -5 1t-5 1q-14 3 -26 3q-47 0 -57 -72h-28l18 129h30l1 -8q25 10 44 10q21 0 47 -11q24 -11 43 -11q31 0 77 27l19 -20
q-69 -86 -100.5 -158t-31.5 -182q0 -9 -1.5 -15t-10 -12.5t-25.5 -6.5q-42 0 -39 35zM176 -15l242 371l223 352q25 -18 33 -23l-235 -349l-229 -374z" />
    <glyph glyph-name="twoninths" 
d="M598 -16q-47 0 -74.5 18t-27.5 41q0 44 38 44q17 0 28 -11t12 -28l-27 -26q17 -17 51 -17q39 0 62.5 49.5t25.5 118.5q-41 -41 -91 -41q-55 0 -85.5 33.5t-30.5 86.5q0 55 41 89.5t96 34.5q56 0 97 -43.5t41 -135.5q0 -98 -44.5 -155.5t-111.5 -57.5zM117 364l1 -7h116
q30 0 40 66h35l-9 -57t-8 -57h-251l-8 27l22 19q24 20 39 33t42.5 40.5t44 50.5t30 53t13.5 56q0 43 -20 62.5t-47 19.5q-43 0 -66 -45q6 -8 18.5 -24.5t17.5 -24.5l-1 1q0 -19 -12 -30t-31 -11q-42 0 -42 50q0 48 36 78t86 30q60 0 95.5 -28.5t35.5 -78.5q0 -30 -25 -67.5
t-49 -60.5t-65 -57q-27 -22 -44 -39l2 1h4zM176 -15l242 371l223 352q25 -18 33 -23l-235 -349l-229 -374zM547 249q0 -91 60 -91q20 0 43 17.5t38 49.5q-1 127 -73 127q-35 0 -51.5 -28.5t-16.5 -74.5z" />
    <glyph glyph-name="threesevenths" 
d="M225 517l4 -7q42 -6 70.5 -31.5t28.5 -68.5q0 -53 -46.5 -80.5t-109.5 -27.5q-48 0 -80.5 19.5t-32.5 54.5q0 20 10.5 32.5t27.5 12.5q38 0 38 -41l1 1l-25 -39q21 -16 57 -16q90 0 90 86q0 76 -64 76q-20 0 -58 -12l-7 24q61 23 89.5 50t28.5 64q0 57 -58 57
q-38 0 -60 -21l27 -47l-1 1q0 -14 -10.5 -23.5t-26.5 -9.5q-17 0 -27.5 13t-10.5 33q0 37 36 57t83 20q52 0 85 -22t33 -60q0 -54 -92 -95zM550 22q24 146 141 292l-5 2q-19 -8 -52 -8q-14 0 -34 4q-2 0 -5 1t-5 1q-14 3 -26 3q-47 0 -57 -72h-28l18 129h30l1 -8
q25 10 44 10q21 0 47 -11q24 -11 43 -11q31 0 77 27l19 -20q-69 -86 -100.5 -158t-31.5 -182q0 -9 -1.5 -15t-10 -12.5t-25.5 -6.5q-42 0 -39 35zM176 -15l242 371l223 352q25 -18 33 -23l-235 -349l-229 -374z" />
    <glyph glyph-name="foursevenths" 
d="M14 425l-4 13q29 38 63.5 81.5t75.5 95t63 80.5l27 -4v-242h59v-24h-59v-42q0 -33 15 -43.5t43 -11.5v-19h-181v19q32 1 47 11.5t15 39.5v46h-164zM550 22q24 146 141 292l-5 2q-19 -8 -52 -8q-14 0 -34 4q-2 0 -5 1t-5 1q-14 3 -26 3q-47 0 -57 -72h-28l18 129h30l1 -8
q25 10 44 10q21 0 47 -11q24 -11 43 -11q31 0 77 27l19 -20q-69 -86 -100.5 -158t-31.5 -182q0 -9 -1.5 -15t-10 -12.5t-25.5 -6.5q-42 0 -39 35zM176 -15l242 371l223 352q25 -18 33 -23l-235 -349l-229 -374zM63 454l3 -5h110v153z" />
    </font>
</defs>
</svg>
