<?xml version="1.0" standalone="no"?>
<!DOCTYPE svg PUBLIC "-//W3C//DTD SVG 1.1//EN" "http://www.w3.org/Graphics/SVG/1.1/DTD/svg11.dtd" >
<svg xmlns="http://www.w3.org/2000/svg" xmlns:xlink="http://www.w3.org/1999/xlink" version="1.1">
<metadata>
Created by FontForge 20170731 at Wed Mar 13 13:57:02 2019
 By Aleksey,,,
Copyright 2018-2019 Matthew Butterick
</metadata>
<defs>
<font id="CenturySupraT4-Bold" horiz-adv-x="800" >
  <font-face 
    font-family="Century Supra T4"
    font-weight="700"
    font-stretch="normal"
    units-per-em="1000"
    panose-1="0 0 0 0 0 0 0 0 0 0"
    ascent="762"
    descent="-238"
    x-height="495"
    cap-height="691"
    bbox="-90 -262 980 962"
    underline-thickness="50"
    underline-position="-175"
    unicode-range="U+000D-FB04"
  />
<missing-glyph horiz-adv-x="544" 
d="M20 0v700h508v-700h-508zM71 41h406v618h-406v-618zM200 397l8 4q36 -18 79 -18q36 0 57.5 24.5t21.5 63.5q0 40 -30.5 74t-78.5 34q-28 0 -40 -14l14 -37q0 -14 -10 -22.5t-26 -8.5q-35 0 -35 39q0 30 25 50t66 20q63 0 109.5 -45t46.5 -114q0 -56 -30 -92t-77 -36
q-45 0 -65 15l-2 -88h-30zM172 141q0 20 13 33.5t33 13.5q18 0 31.5 -13.5t13.5 -33.5q0 -18 -13.5 -31t-31.5 -13q-19 0 -32.5 13t-13.5 31z" />
    <glyph glyph-name="uni2190" unicode="&#x3c;&#x2d;" horiz-adv-x="704" 
d="M76 272l237 264l61 -46l-163 -183h420v-84h-420l163 -183l-61 -47l-237 266v13z" />
    <glyph glyph-name="uni2192" unicode="&#x2d;&#x3e;" horiz-adv-x="704" 
d="M391 536l237 -264v-13l-237 -266l-61 47l163 183h-420v84h420l-163 183z" />
    <glyph glyph-name="f_f" unicode="ff" horiz-adv-x="665" 
d="M683 561q-32 0 -51 16.5t-19 46.5q0 28 15 50q-47 0 -66.5 -27t-19.5 -86v-66h101v-85h-101v-309q0 -26 73 -26v-75h-278v75q37 0 49.5 6t12.5 23v306h-172v-309q0 -26 71 -26v-75h-276v75q37 0 49.5 6t12.5 23v306h-66v85h66v51q0 87 61.5 140.5t155.5 53.5
q50 0 85.5 -20t48.5 -55q61 85 181 85q63 0 101.5 -30.5t38.5 -80.5q0 -35 -18.5 -56.5t-54.5 -21.5zM368 551q-32 0 -51 16.5t-19 46.5q0 28 15 50q-47 0 -66.5 -27t-19.5 -86v-56h172v51v10q-15 -5 -31 -5z" />
    <glyph glyph-name="fi" unicode="fi" horiz-adv-x="576" 
d="M503 99q0 -24 48 -24v-75h-237v75q29 0 38 5.5t9 19.5v310h-134v-309q0 -26 48 -26v-75h-253v75q37 0 49.5 6t12.5 23v306h-66v85h66v51q0 92 67 148t170 56q78 0 121.5 -30.5t43.5 -80.5q0 -35 -21.5 -56.5t-61.5 -21.5q-37 0 -58.5 16.5t-21.5 46.5q0 28 15 50
q-61 0 -86 -26.5t-25 -86.5v-66h276v-396z" />
    <glyph glyph-name="fl" unicode="fl" horiz-adv-x="586" 
d="M509 522v-418q0 -29 52 -29v-75h-247v75q52 0 52 30v305h-139v-309q0 -26 53 -26v-75h-258v75q37 0 49.5 6t12.5 23v306h-66v85h66v51q0 92 61.5 148t155.5 56q70 0 110 -38l60 28h43zM227 561v-66h139v66q-31 1 -49.5 17.5t-18.5 45.5q0 28 15 50q-47 0 -66.5 -27
t-19.5 -86z" />
    <glyph glyph-name="f_f_i" unicode="ffi" horiz-adv-x="890" 
d="M817 99q0 -24 48 -24v-75h-235v75q29 0 37 5.5t8 19.5v310h-134v-309q0 -26 49 -26v-75h-255v75q37 0 50 6t13 23v306h-171v-309q0 -26 68 -26v-75h-273v75q37 0 49.5 6t12.5 23v306h-66v85h66v51q0 87 61.5 140.5t155.5 53.5q51 0 86.5 -20.5t47.5 -56.5q66 87 200 87
q78 0 121.5 -30.5t43.5 -80.5q0 -35 -21.5 -56.5t-61.5 -21.5q-37 0 -58.5 16.5t-21.5 46.5q0 28 15 50q-61 0 -86 -26.5t-25 -86.5v-66h276v-396zM368 551q-32 0 -51 16.5t-19 46.5q0 28 15 50q-47 0 -66.5 -27t-19.5 -86v-56h171v51v10q-15 -5 -30 -5z" />
    <glyph glyph-name="f_f_l" unicode="ffl" horiz-adv-x="900" 
d="M824 522v-418q0 -29 51 -29v-75h-241v75q47 0 47 30v305h-148v-309q0 -26 62 -26v-75h-258v75q31 0 42 6t11 23v306h-163v-309q0 -26 71 -26v-75h-276v75q37 0 49.5 6t12.5 23v306h-66v85h66v51q0 87 61.5 140.5t155.5 53.5q47 0 81.5 -18t48.5 -49q61 77 176 77
q74 0 113 -41l66 31h43zM674 561q-32 0 -51 16.5t-19 46.5q0 28 15 50q-47 0 -66.5 -27t-19.5 -86v-66h148v66h-7zM368 551q-32 0 -51 16.5t-19 46.5q0 28 15 50q-47 0 -66.5 -27t-19.5 -86v-56h163v51v7q-14 -2 -22 -2z" />
    <glyph glyph-name="uni2192.circle" unicode="&#x28;&#x2d;&#x3e;&#x29;" horiz-adv-x="884" 
d="M720 272l-237 264l-61 -46l163 -183h-420v-84h420l-163 -183l61 -47l237 266v13zM60 263q0 159 111.5 271t268.5 112q159 0 271.5 -112t112.5 -271q0 -157 -112.5 -268.5t-271.5 -111.5q-157 0 -268.5 111.5t-111.5 268.5z" />
    <glyph glyph-name="uni2190.circle" unicode="&#x28;&#x3c;&#x2d;&#x29;" horiz-adv-x="884" 
d="M401 536l-237 -264v-13l237 -266l61 47l-163 183h420v84h-420l163 183zM824 263q0 -157 -111.5 -268.5t-268.5 -111.5q-159 0 -271.5 111.5t-112.5 268.5q0 159 112.5 271t271.5 112q157 0 268.5 -112t111.5 -271z" />
    <glyph glyph-name="uni2193.circle" unicode="&#x28;&#x2193;&#x29;" horiz-adv-x="884" 
d="M449 -14l264 237l-46 61l-183 -163v420h-84v-420l-183 163l-47 -61l266 -237h13zM440 646q159 0 271.5 -111.5t112.5 -268.5q0 -159 -112.5 -271.5t-271.5 -112.5q-157 0 -268.5 112.5t-111.5 271.5q0 157 111.5 268.5t268.5 111.5z" />
    <glyph glyph-name="uni2191.circle" unicode="&#x28;&#x2191;&#x29;" horiz-adv-x="884" 
d="M713 305l-264 237h-13l-266 -237l47 -61l183 163v-420h84v420l183 -163zM440 -118q-157 0 -268.5 111.5t-111.5 268.5q0 159 111.5 271.5t268.5 112.5q159 0 271.5 -112.5t112.5 -271.5q0 -157 -112.5 -268.5t-271.5 -111.5z" />
    <glyph glyph-name="f_j" unicode="fj" horiz-adv-x="572" 
d="M371 -114v524h-144v-309q0 -26 53 -26v-75h-258v75q37 0 49.5 6t12.5 23v306h-66v85h66v51q0 92 67 148t170 56q78 0 121.5 -30.5t43.5 -80.5q0 -35 -21.5 -56.5t-61.5 -21.5q-37 0 -58.5 16.5t-21.5 46.5q0 28 15 50q-61 0 -86 -26.5t-25 -86.5v-66h286v-520
q0 -100 -52 -150t-133 -50q-57 0 -93.5 26.5t-36.5 74.5q0 36 21 57t52 21q27 0 44.5 -17.5t17.5 -45.5q0 -29 -30 -45q9 -14 29 -14q39 0 39 54z" />
    <glyph glyph-name="f_f_j" unicode="ffj" horiz-adv-x="886" 
d="M686 -114v524h-144v-309q0 -26 53 -26v-75h-258v75q37 0 49.5 6t12.5 23v306h-172v-309q0 -26 71 -26v-75h-276v75q37 0 49.5 6t12.5 23v306h-66v85h66v51q0 87 61.5 140.5t155.5 53.5q51 0 87 -21t48 -57q66 88 200 88q78 0 121.5 -30.5t43.5 -80.5q0 -35 -21.5 -56.5
t-61.5 -21.5q-37 0 -58.5 16.5t-21.5 46.5q0 28 15 50q-61 0 -86 -26.5t-25 -86.5v-66h286v-520q0 -100 -52 -150t-133 -50q-57 0 -93.5 26.5t-36.5 74.5q0 36 21.5 57t51.5 21q27 0 44.5 -17.5t17.5 -45.5q0 -29 -30 -45q9 -14 29 -14q39 0 39 54zM368 551q-32 0 -51 16.5
t-19 46.5q0 28 15 50q-47 0 -66.5 -27t-19.5 -86v-56h172v51v10q-15 -5 -31 -5z" />
    <glyph glyph-name=".notdef" horiz-adv-x="544" 
d="M20 0v700h508v-700h-508zM71 41h406v618h-406v-618zM200 397l8 4q36 -18 79 -18q36 0 57.5 24.5t21.5 63.5q0 40 -30.5 74t-78.5 34q-28 0 -40 -14l14 -37q0 -14 -10 -22.5t-26 -8.5q-35 0 -35 39q0 30 25 50t66 20q63 0 109.5 -45t46.5 -114q0 -56 -30 -92t-77 -36
q-45 0 -65 15l-2 -88h-30zM172 141q0 20 13 33.5t33 13.5q18 0 31.5 -13.5t13.5 -33.5q0 -18 -13.5 -31t-31.5 -13q-19 0 -32.5 13t-13.5 31z" />
    <glyph glyph-name=".null" horiz-adv-x="0" 
 />
    <glyph glyph-name="nonmarkingreturn" horiz-adv-x="333" 
 />
    <glyph glyph-name="NULL" horiz-adv-x="0" 
 />
    <glyph glyph-name="NULL" horiz-adv-x="0" 
 />
    <glyph glyph-name="CR" unicode="&#xd;" horiz-adv-x="230" 
 />
    <glyph glyph-name="space" unicode=" " horiz-adv-x="230" 
 />
    <glyph glyph-name="exclam" unicode="!" horiz-adv-x="359" 
d="M265 586q-4 -28 -16 -89t-22 -126t-18 -145h-54q-8 78 -20.5 149t-26 135.5t-15.5 77.5q-8 53 11 92.5t79 39.5q104 0 82 -134zM96 68q0 36 24.5 61.5t60.5 25.5t61.5 -25.5t25.5 -61.5q0 -34 -25.5 -57t-61.5 -23t-60.5 23t-24.5 57z" />
    <glyph glyph-name="quotedbl" unicode="&#x22;" horiz-adv-x="485" 
d="M120 399l-35 325h136l-35 -325h-66zM299 399l-35 325h136l-35 -325h-66z" />
    <glyph glyph-name="numbersign" unicode="#" horiz-adv-x="510" 
d="M83 516l95 -13l42 204l71 -15l-41 -198l72 -10l46 223l71 -15l-45 -218l99 -13l-14 -78l-101 13l-29 -137l87 -11l-14 -78l-89 12l-46 -223l-71 14l45 219l-72 9l-50 -242l-71 14l49 238l-105 15l13 77l108 -15l29 138l-93 13zM234 416l-29 -137l72 -10l29 137z" />
    <glyph glyph-name="dollar" unicode="$" horiz-adv-x="596" 
d="M171 72l-13 -53h-77l-6 260h67q12 -65 46.5 -112t81.5 -65v183q-42 15 -73.5 31.5t-62.5 41t-48 59t-17 77.5q0 79 56.5 127t136.5 48h8v94h59v-103q45 -14 82 -49l2 2l-2 -1l18 51h72l2 -238h-64q-40 121 -110 150v-164l18 -6q43 -15 73 -30t59 -38.5t43.5 -58.5
t14.5 -81q0 -82 -55 -135.5t-140 -53.5h-13v-104h-59v113q-65 18 -99 55zM416 168q0 56 -87 94v-170q38 2 62.5 21.5t24.5 54.5zM202 518q0 -51 68 -83v151h-2q-32 0 -49 -20t-17 -48z" />
    <glyph glyph-name="percent" unicode="%" horiz-adv-x="552" 
d="M341 542q-22 0 -41 11q-6 -77 -49.5 -127t-99.5 -50q-50 0 -82 37t-32 96q0 76 48.5 132t104.5 56q36 0 63 -20t39 -54v1q12 -28 56 -28q37 0 72 25q8 27 23.5 48.5t38.5 21.5q13 0 23.5 -7.5t10.5 -23.5q0 -18 -14 -37.5t-32 -29.5l-183 -279v1l-216 -337l-48 37
l223 330l-1 -1l122 201q-14 -3 -26 -3zM253 121q0 77 48.5 132.5t105.5 55.5q49 0 80 -33t31 -90q0 -88 -46 -142.5t-102 -54.5q-52 0 -84.5 37t-32.5 95zM423 246q-28 0 -52.5 -48.5t-24.5 -103.5q0 -46 29 -46t53.5 37.5t24.5 109.5q0 24 -8.5 37.5t-21.5 13.5zM207 632
q-29 0 -53.5 -47t-24.5 -102q0 -47 31 -47q29 0 52.5 38t23.5 108q0 24 -8.5 37t-20.5 13z" />
    <glyph glyph-name="ampersand" unicode="&#x26;" horiz-adv-x="753" 
d="M502 566q0 -15 -5 -30t-11 -27t-19.5 -26t-22.5 -22.5t-29.5 -22.5t-30 -20t-34 -21.5t-32.5 -20.5q62 -123 153 -209q29 41 45 103q5 29 -21 40t-77 11v65h325v-65q-86 0 -112 -66q-31 -85 -83 -147q42 -24 78 -24q35 0 47 19t12 64h51q0 -82 -33.5 -131t-92.5 -49
q-64 0 -143 49q-78 -49 -176 -49q-135 0 -201 57t-66 142q0 62 37.5 104.5t105.5 82.5q-42 81 -42 140q0 84 54.5 136t147.5 52q77 0 126 -38.5t49 -96.5zM387 96q-100 88 -172 196q-35 -41 -35 -91q0 -52 40 -85.5t94 -33.5q41 0 73 14zM273 534q0 -38 16 -86q71 54 71 116
q0 26 -10 44.5t-30 18.5q-47 0 -47 -93z" />
    <glyph glyph-name="quotesingle" unicode="'" horiz-adv-x="306" 
d="M120 399l-35 325h136l-35 -325h-66z" />
    <glyph glyph-name="parenleft" unicode="(" horiz-adv-x="352" 
d="M344 -199l-44 -44q-281 220 -281 506q0 149 73 265.5t207 218.5l45 -49q-180 -179 -180 -435q0 -296 180 -462z" />
    <glyph glyph-name="parenright" unicode=")" horiz-adv-x="352" 
d="M52 -243l-44 44q180 166 180 462q0 256 -180 435l45 49q134 -102 207 -218.5t73 -265.5q0 -286 -281 -506z" />
    <glyph glyph-name="asterisk" unicode="*" horiz-adv-x="476" 
d="M408 478q29 -8 20 -46q-8 -36 -34 -47q-19 -8 -37 7q-8 7 -22 22.5t-32.5 32.5t-44.5 34q7 -37 17.5 -77t12.5 -54q6 -28 -28 -39q-36 -11 -58 7q-15 12 -11 32q2 13 11.5 51.5t15.5 79.5q-28 -17 -46 -33.5t-31.5 -33t-20.5 -22.5q-24 -21 -53 8q-26 26 -19 53
q6 16 22 23q10 4 51 19t75 29q-37 17 -78 25.5t-47 10.5q-29 11 -19 50q8 33 33 42q17 6 33 -7q70 -64 100 -85q-6 40 -17.5 77.5t-13.5 49.5q-5 29 31 40q37 10 60 -9q14 -12 10 -31q-1 -6 -14.5 -47.5t-18.5 -79.5q51 36 102 85q24 21 53 -8q27 -27 20 -54q-4 -17 -23 -23
q-6 -2 -45.5 -11t-79.5 -25q53 -23 126 -46z" />
    <glyph glyph-name="plus" unicode="+" horiz-adv-x="620" 
d="M573 221h-220v-221h-86v221h-220v86h220v221h86v-221h220v-86z" />
    <glyph glyph-name="comma" unicode="," horiz-adv-x="293" 
d="M49 77q0 41 27.5 64.5t67.5 23.5q46 0 75 -35.5t29 -101.5t-44.5 -133t-110.5 -109l-34 44q108 84 108 163q0 14 -4 21q-19 -14 -44 -14q-29 -1 -49.5 19.5t-20.5 57.5z" />
    <glyph glyph-name="hyphen" unicode="-" horiz-adv-x="318" 
d="M34 308h250v-113h-250v113z" />
    <glyph glyph-name="period" unicode="." horiz-adv-x="279" 
d="M49 73q0 39 25.5 65.5t63.5 26.5t65 -27t27 -65q0 -36 -27 -60.5t-65 -24.5t-63.5 24.5t-25.5 60.5z" />
    <glyph glyph-name="slash" unicode="/" horiz-adv-x="460" 
d="M433 734l-300 -856h-106l300 856h106z" />
    <glyph glyph-name="zero" unicode="0" horiz-adv-x="602" 
d="M572 336q0 -168 -77.5 -257t-195.5 -89q-120 0 -194.5 83t-74.5 263q0 174 76.5 269.5t192.5 95.5q118 0 195.5 -95t77.5 -270zM401 336q0 106 -12.5 166t-33.5 81t-56 21t-55.5 -22.5t-31.5 -82t-11 -163.5q0 -146 24 -199.5t74 -53.5q36 0 57 19t33 75.5t12 158.5z" />
    <glyph glyph-name="one" unicode="1" horiz-adv-x="491" 
d="M36 574v78q130 -11 259 33h45v-537q0 -19 6 -31t14.5 -19t26 -10.5t33.5 -4.5t45 -1v-82h-415v82q70 0 98 14.5t28 51.5v405q-88 0 -140 21z" />
    <glyph glyph-name="two" unicode="2" horiz-adv-x="582" 
d="M233 155l8 -15h166q28 0 47.5 20t24.5 57h70l-39 -217h-463l-24 84q3 3 53 42t89.5 76t88.5 90t77.5 110.5t28.5 109.5t-26.5 76.5t-65.5 24.5q-72 0 -98 -56q31 -19 48 -39t17 -52q0 -35 -26 -58.5t-66 -23.5q-45 0 -70.5 29t-25.5 76q0 93 73.5 152.5t167.5 59.5
q109 0 173.5 -52t64.5 -143q0 -46 -21.5 -90.5t-73 -94.5t-81 -74.5t-99.5 -77.5q-12 -9 -18 -14z" />
    <glyph glyph-name="three" unicode="3" horiz-adv-x="568" 
d="M361 375l4 -12q69 -8 118 -48.5t49 -113.5q0 -69 -43 -118.5t-105.5 -71t-135.5 -21.5q-97 0 -161 37.5t-64 105.5q0 43 24.5 70t65.5 27q34 0 56.5 -20t22.5 -52q0 -45 -48 -70q23 -18 81 -18t99.5 32t41.5 97q0 70 -57.5 92.5t-145.5 -6.5l-18 65q102 41 146.5 89
t44.5 115q0 71 -79 71q-48 0 -81 -30q42 -27 42 -67q0 -29 -22.5 -49t-55.5 -20q-40 0 -64.5 23.5t-24.5 62.5q0 73 71 114.5t159 41.5q102 0 166.5 -41.5t64.5 -113.5q0 -53 -43 -97.5t-108 -73.5z" />
    <glyph glyph-name="four" unicode="4" horiz-adv-x="585" 
d="M36 199l-10 41l354 461l81 -10v-412h95v-80h-95v-40q0 -52 18.5 -64.5t75.5 -12.5v-82h-330v82q50 0 67 13t17 57v47h-273zM158 284l2 -5h149v191l-8 4z" />
    <glyph glyph-name="five" unicode="5" horiz-adv-x="574" 
d="M164 411l8 -6q65 45 137 45q90 0 157 -53t67 -151q0 -114 -85 -185t-202 -71q-91 0 -155.5 39t-64.5 109q0 36 24.5 64t60.5 28q32 0 55.5 -18.5t23.5 -47.5q0 -41 -40 -62q26 -33 88 -33q56 0 92.5 39.5t36.5 115.5q0 70 -27.5 104.5t-76.5 34.5q-69 0 -116 -55h-75
l30 393q106 -30 209.5 -31t187.5 30v-73q-54 -57 -141.5 -78t-182.5 -1z" />
    <glyph glyph-name="six" unicode="6" horiz-adv-x="606" 
d="M341 701q92 0 144 -39.5t52 -89.5q0 -39 -24.5 -62.5t-60.5 -23.5q-29 0 -48.5 16.5t-19.5 42.5q0 31 31 47q-24 32 -64 32q-54 0 -96 -60t-43 -158l7 -3q48 50 132 50q102 0 160 -61.5t58 -157.5q0 -115 -75.5 -179.5t-180.5 -64.5q-50 0 -96 17.5t-86.5 54.5
t-64.5 102.5t-24 151.5q0 162 86.5 273.5t212.5 111.5zM393 234q0 66 -23 97t-59 31q-58 0 -99 -72q0 -107 24.5 -157t78.5 -50q78 0 78 151z" />
    <glyph glyph-name="seven" unicode="7" horiz-adv-x="554" 
d="M381 539l-10 15q-34 -15 -74 -15q-21 0 -52 6t-49 6q-86 0 -100 -104h-59l33 254h56l11 -22q51 22 98 22q36 0 87 -18t85 -18q50 0 111 41l45 -73q-64 -69 -102 -119t-70.5 -114t-48.5 -139t-22 -177q-1 -23 -3.5 -35t-10.5 -26t-25 -20t-45 -6q-99 0 -90 90
q19 129 78.5 235.5t156.5 216.5z" />
    <glyph glyph-name="eight" unicode="8" horiz-adv-x="585" 
d="M418 380v-7q134 -49 134 -176q0 -91 -79.5 -149t-190.5 -58q-108 0 -178 46t-70 125q0 54 36 100.5t92 67.5v9q-107 68 -107 174q0 76 63.5 132.5t183.5 56.5q101 0 162 -45.5t61 -117.5q0 -52 -28.5 -89t-78.5 -69zM380 523q0 41 -25 68t-64 27q-40 0 -64.5 -24.5
t-24.5 -57.5q0 -79 131 -122q24 25 35.5 49t11.5 60zM402 173q0 82 -155 120q-29 -14 -48.5 -47.5t-18.5 -79.5t32 -69.5t82 -23.5q44 0 76 26t32 74z" />
    <glyph glyph-name="nine" unicode="9" horiz-adv-x="606" 
d="M265 -10q-92 0 -144 36.5t-52 92.5q0 37 25 61.5t60 24.5q25 0 46.5 -16.5t21.5 -46.5q0 -25 -26 -50q16 -22 59 -22q62 0 103 69t42 161l-8 3q-18 -26 -50 -42.5t-67 -16.5q-111 0 -174 58t-63 150q0 117 78 183t187 66q50 0 95 -17.5t84.5 -54.5t63 -102.5t23.5 -151.5
q0 -162 -88 -273.5t-216 -111.5zM214 462q0 -71 21.5 -104t54.5 -33q76 0 110 86q0 102 -21.5 149.5t-68.5 47.5q-96 0 -96 -146z" />
    <glyph glyph-name="colon" unicode=":" horiz-adv-x="311" 
d="M65 73q0 39 25.5 65.5t63.5 26.5t65 -27t27 -65q0 -36 -27 -60.5t-65 -24.5t-63.5 24.5t-25.5 60.5zM65 375q0 39 25.5 65.5t63.5 26.5t65 -27t27 -65q0 -36 -27 -60.5t-65 -24.5t-63.5 24.5t-25.5 60.5z" />
    <glyph glyph-name="semicolon" unicode=";" horiz-adv-x="341" 
d="M81 375q0 38 26 65t64 27t65 -27t27 -65q0 -36 -27 -60.5t-65 -24.5t-64 24.5t-26 60.5zM76 77q0 41 27.5 64.5t67.5 23.5q46 0 75 -35.5t29 -101.5t-44.5 -133t-110.5 -109l-34 44q108 84 108 163q0 14 -4 21q-19 -14 -44 -14q-29 -1 -49.5 19.5t-20.5 57.5z" />
    <glyph glyph-name="less" unicode="&#x3c;" horiz-adv-x="594" 
d="M542 456l-391 -186q58 -28 190.5 -91t200.5 -96v-92l-502 239v79l502 239v-92z" />
    <glyph glyph-name="equal" unicode="=" horiz-adv-x="620" 
d="M573 297h-526v87h526v-87zM573 125h-526v86h526v-86z" />
    <glyph glyph-name="greater" unicode="&#x3e;" horiz-adv-x="594" 
d="M443 270l-391 186v92l502 -239v-79l-502 -239v92q68 33 200.5 96t190.5 91z" />
    <glyph glyph-name="question" unicode="?" horiz-adv-x="510" 
d="M126 428l12 7q60 -23 114 -23q42 0 66 27t24 77t-31 89t-83 39q-38 0 -57 -12q37 -26 37 -63q0 -27 -17.5 -43t-52.5 -16q-37 0 -59.5 22t-22.5 63q0 54 47 89.5t124 35.5q98 0 172.5 -66t74.5 -174q0 -89 -51.5 -146t-130.5 -57q-61 0 -94 18l-3 -69h-64zM78 72
q0 34 24.5 58.5t60.5 24.5t61.5 -24.5t25.5 -58.5q0 -36 -25.5 -60t-61.5 -24t-60.5 24t-24.5 60z" />
    <glyph glyph-name="at" unicode="@" horiz-adv-x="816" 
d="M704 390q0 27 -5.5 55.5t-20 61.5t-37 58t-60.5 42t-87 17q-96 0 -181 -72.5t-133.5 -185.5t-48.5 -230q0 -114 50.5 -175t137.5 -61q40 0 87 13.5t81 34.5l23 -42q-95 -55 -193 -55q-134 0 -207 75t-73 211q0 92 36.5 187t97.5 171t147.5 124.5t178.5 48.5
q136 0 217 -76.5t81 -201.5q0 -84 -36 -154.5t-88.5 -111.5t-105 -63.5t-93.5 -22.5q-84 0 -30 125l-13 9q-91 -136 -153 -136q-29 0 -45 24.5t-16 56.5q0 81 59 187q43 77 96.5 126.5t103.5 49.5q29 0 42 -28h7q9 16 20 21.5t41 5.5q43 0 42 -12q0 -2 -1 -4l-100 -318
q-3 -12 1.5 -21.5t11.5 -9.5q18 0 44.5 17.5t54.5 50t47.5 88t19.5 120.5zM315 169q0 -33 24 -33t76 71t85 160q4 30 -3.5 47t-25.5 17q-17 0 -34 -12.5t-27.5 -26t-32.5 -44.5q-26 -38 -44 -88.5t-18 -90.5z" />
    <glyph glyph-name="A" unicode="A" horiz-adv-x="720" 
d="M459 124l-25 63h-216l-23 -61q-8 -23 9.5 -32t70.5 -9v-85h-262v85q37 0 57.5 13.5t34.5 47.5l222 550h61l233 -557q16 -37 29.5 -45.5t56.5 -8.5v-85h-318v85h27q37 0 44.5 6.5t-1.5 32.5zM320 461l-72 -192h154l-76 192h-6z" />
    <glyph glyph-name="B" unicode="B" horiz-adv-x="657" 
d="M489 363v-3q146 -28 146 -172q0 -92 -68 -140t-171 -48h-364v85q50 0 68 13.5t18 65.5v401q0 29 -15.5 35.5t-70.5 6.5v84h355q94 0 155.5 -42t61.5 -121q0 -119 -115 -165zM436 510q0 46 -27.5 71.5t-73.5 25.5h-57v-214h60q45 0 71.5 32t26.5 85zM459 197
q0 55 -30.5 83t-80.5 28h-70v-223h64q59 0 88 29.5t29 82.5z" />
    <glyph glyph-name="C" unicode="C" horiz-adv-x="684" 
d="M539 651l5 1l27 38h46l4 -265h-62q-14 75 -54.5 128t-105.5 53q-90 0 -136 -71.5t-46 -191.5q0 -124 50 -191.5t143 -67.5q59 0 98.5 38t49.5 113h75v-3q-12 -117 -83.5 -180.5t-173.5 -63.5q-152 0 -243 96.5t-91 260.5q0 152 96 254t244 102q48 0 93.5 -15t63.5 -35z
" />
    <glyph glyph-name="D" unicode="D" horiz-adv-x="761" 
d="M719 345q0 -65 -22 -124.5t-65 -110t-117.5 -80.5t-170.5 -30h-312v85q58 2 72 6.5t14 27.5v457q0 20 -15 25.5t-71 5.5v84h310q83 0 149.5 -22t108 -57t69.5 -82t39 -92.5t11 -92.5zM543 344q0 116 -56 189.5t-173 73.5h-37v-522h65q42 0 76.5 15t57.5 39.5t38.5 58.5
t22 70.5t6.5 75.5z" />
    <glyph glyph-name="E" unicode="E" horiz-adv-x="661" 
d="M630 257l-13 -257h-585v85q55 0 70.5 8.5t15.5 45.5v417q0 31 -18 41t-68 10v84h570l11 -231h-74q-13 85 -42.5 116t-94.5 31h-124v-233h51q70 0 70 124h70v-312h-70q0 70 -15.5 92.5t-60.5 22.5h-45v-216h148q64 0 93.5 43t39.5 129h71z" />
    <glyph glyph-name="F" unicode="F" horiz-adv-x="597" 
d="M586 459h-69q-10 76 -43 112t-100 36h-96v-235h32q41 0 60 30.5t19 95.5h70v-311h-70q0 60 -17.5 88.5t-61.5 28.5h-32v-150q1 -45 18 -57t66 -12v-85h-330v85q61 0 73.5 10.5t12.5 59.5v374q0 51 -16.5 64.5t-69.5 13.5v84h550z" />
    <glyph glyph-name="G" unicode="G" horiz-adv-x="727" 
d="M645 197v-204h-52l-51 77q-28 -38 -75.5 -60t-93.5 -22q-62 0 -119.5 20.5t-105.5 61.5t-77 111.5t-29 160.5q0 162 101.5 260.5t241.5 98.5q95 0 152 -46h7l20 40h59l9 -261h-66q-14 66 -62 119t-110 53q-85 0 -131 -73t-46 -193q0 -122 47.5 -189.5t126.5 -67.5
q67 0 105 51v72q0 33 -14.5 42t-60.5 9v79h297v-79q-46 0 -59 -13.5t-14 -46.5z" />
    <glyph glyph-name="H" unicode="H" horiz-adv-x="799" 
d="M767 0h-333v85q58 3 72 10t14 38v175h-242v-175q0 -32 16 -40t70 -8v-85h-332v85q53 0 69.5 8t16.5 40v424q0 31 -19 40t-67 9v85h332v-85q-52 0 -69 -7.5t-17 -41.5v-158h242v158q0 33 -16 41t-70 8v85h333v-85q-56 0 -72 -8.5t-16 -40.5v-424q0 -32 17 -40t71 -8v-85z
" />
    <glyph glyph-name="I" unicode="I" horiz-adv-x="379" 
d="M352 691v-86q-57 0 -69.5 -5.5t-12.5 -32.5v-438q0 -29 13.5 -36.5t68.5 -7.5v-85h-325v85q58 0 70.5 7t12.5 37v438q0 28 -13 34t-70 6v84h325z" />
    <glyph glyph-name="J" unicode="J" horiz-adv-x="543" 
d="M541 691v-84q-61 0 -79.5 -14t-18.5 -73v-325q0 -50 -15.5 -88t-38.5 -60t-54.5 -36t-59.5 -18.5t-58 -4.5q-40 0 -74.5 8.5t-65 26.5t-48.5 51.5t-18 78.5q0 44 26.5 72.5t67.5 28.5q33 0 55 -18.5t22 -51.5q0 -14 -2.5 -25t-10 -21t-11 -14t-15.5 -13.5t-13 -10.5
q16 -38 76 -38q42 0 60 25t18 82v350q0 60 -20.5 74t-91.5 14v84h369z" />
    <glyph glyph-name="K" unicode="K" horiz-adv-x="723" 
d="M537 512l-119 -115l207 -261q23 -30 40 -40.5t48 -10.5v-85h-324v85q47 2 57.5 11.5t-9.5 35.5l-130 159l-29 -28v-103q0 -50 11 -62.5t51 -12.5v-85h-308v85q56 0 71 12.5t15 62.5v375q0 50 -17 61t-69 11v84h316v-84q-46 0 -58 -11t-12 -61v-155h4l158 160
q14 15 16.5 30t-12 25.5t-45.5 10.5v85h302v-85q-29 -3 -60 -19t-49.5 -30t-54.5 -45z" />
    <glyph glyph-name="L" unicode="L" horiz-adv-x="602" 
d="M579 282l-13 -282h-534v85q49 0 67 7.5t18 36.5v439q0 25 -15 32t-70 7v84h339v-84q-62 0 -77 -6t-15 -32v-484h79q125 0 144 197h77z" />
    <glyph glyph-name="M" unicode="M" horiz-adv-x="884" 
d="M605 443h-6l-166 -450h-61l-173 450h-4v-286q0 -41 17.5 -56.5t51.5 -15.5v-85h-232v85q32 0 55 16.5t23 53.5v394q-16 57 -78 57v85h237l161 -438h2l164 438h256v-85q-57 0 -72.5 -13.5t-15.5 -55.5v-366q0 -60 15 -73t73 -13v-85h-317v85q48 0 59 13.5t11 72.5v272z
" />
    <glyph glyph-name="N" unicode="N" horiz-adv-x="752" 
d="M207 473h-4v-336q0 -33 23.5 -42.5t80.5 -9.5v-85h-286v85q43 0 64.5 10t21.5 42v424q-36 46 -86 46v84h213l325 -433h4v299q0 26 -27 37.5t-89 11.5v85h284v-85q-46 0 -61.5 -11.5t-15.5 -37.5v-565h-85z" />
    <glyph glyph-name="O" unicode="O" horiz-adv-x="751" 
d="M709 345q0 -167 -96 -262t-237 -95q-145 0 -239.5 95t-94.5 262q0 170 94 263t240 93q92 0 166 -38t120.5 -120t46.5 -198zM534 345q0 261 -158 261q-159 0 -159 -261t159 -261q80 0 119 70t39 191z" />
    <glyph glyph-name="P" unicode="P" horiz-adv-x="613" 
d="M598 498q0 -57 -22.5 -100t-60 -67t-80.5 -36t-90 -12h-66v-112q0 -58 14.5 -72t85.5 -14v-85h-347v85q57 0 71.5 14t14.5 72v374q0 42 -16.5 52t-69.5 10v84h327q45 0 84.5 -9t76 -30t57.5 -60.5t21 -93.5zM279 607v-240h50q53 0 78 29.5t25 94.5q0 61 -26.5 88.5
t-80.5 27.5h-46z" />
    <glyph glyph-name="Q" unicode="Q" horiz-adv-x="751" 
d="M709 345q0 -111 -52.5 -199t-135.5 -129q11 -80 53 -80q43 0 43 72h66q0 -87 -32.5 -135.5t-87.5 -48.5q-129 0 -149 164q-4 -1 -14 -1q-167 0 -262.5 97.5t-95.5 259.5q0 160 93 258t240 98q154 0 244 -98t90 -258zM534 345q0 261 -159 261q-158 0 -158 -261
q0 -103 26 -165q11 54 44 91.5t84 37.5q97 0 131 -146q32 65 32 182zM369 224q-21 0 -30.5 -26.5t-9.5 -61.5q0 -24 6 -46q19 -6 45 -6q16 0 31 3q-1 75 -11 106t-31 31z" />
    <glyph glyph-name="R" unicode="R" horiz-adv-x="683" 
d="M459 351v-8q52 -10 89 -50t48 -112q15 -85 27.5 -106.5t53.5 -21.5v-63q-99 0 -150.5 17t-70.5 49t-29 98q-13 90 -39 123.5t-74 33.5h-35v-177q0 -32 17 -40t75 -8v-86h-339v86q56 2 71 9t15 39v436q0 24 -15 30t-71 6v85h333q106 0 169.5 -42t63.5 -129
q0 -74 -39 -115.5t-100 -53.5zM432 505q0 101 -120 101h-33v-209h47q47 0 76.5 27t29.5 81z" />
    <glyph glyph-name="S" unicode="S" horiz-adv-x="586" 
d="M154 59l-15 -62h-84l-7 291h74q17 -92 72.5 -149.5t126.5 -57.5q46 0 75 19t29 54q0 43 -37 71.5t-109 53.5q-39 14 -68.5 27t-63 34.5t-55.5 45.5t-36.5 58t-14.5 74q0 82 62.5 132.5t151.5 50.5q96 0 165 -64l2 2l-2 -1l20 57h79l2 -263h-71q-29 93 -74.5 135
t-114.5 42q-36 0 -54.5 -19t-18.5 -45q0 -20 9.5 -37.5t21.5 -28.5t38 -23.5t42 -19t50 -18.5q47 -16 80.5 -33t65 -44t48 -66t16.5 -89q0 -85 -61 -141.5t-155 -56.5q-65 0 -113.5 22t-75.5 49z" />
    <glyph glyph-name="T" unicode="T" horiz-adv-x="644" 
d="M624 415h-73q0 88 -30.5 140t-85.5 52h-35v-483q-1 -26 17 -32.5t60 -6.5h21v-85h-360v85h14q31 0 45 1t28 10t14 28v483h-33q-48 0 -79.5 -52t-31.5 -140h-75v276h604v-276z" />
    <glyph glyph-name="U" unicode="U" horiz-adv-x="748" 
d="M723 691v-84q-46 0 -62.5 -10t-16.5 -33v-333q0 -243 -255 -243q-133 0 -210.5 56t-77.5 181v342q0 27 -11.5 33.5t-64.5 6.5v84h321v-84q-56 0 -70.5 -6.5t-14.5 -33.5v-322q0 -80 40.5 -119t110.5 -39q77 0 110.5 38t33.5 121v318q0 24 -20.5 33.5t-74.5 9.5v84h262z
" />
    <glyph glyph-name="V" unicode="V" horiz-adv-x="708" 
d="M383 221h8l120 312q14 35 -1.5 55t-63.5 19v84h242v-84q-37 0 -57.5 -25t-44.5 -86l-203 -502h-65l-216 537q-19 52 -29 62q-16 14 -53 14v84h308v-84q-55 0 -65.5 -18t10.5 -58z" />
    <glyph glyph-name="W" unicode="W" horiz-adv-x="977" 
d="M670 234h6l80 263q21 59 9.5 86t-67.5 23v85h259v-85q-40 0 -60.5 -24t-42.5 -87l-162 -501h-98l-105 331l-110 -331h-86l-186 536q-16 46 -33.5 61t-53.5 15v85h296v-85q-68 3 -43 -76l96 -296h7l74 214l-26 82q-15 47 -27 61.5t-43 14.5v85h283v-85q-44 -1 -53 -17
t4 -59z" />
    <glyph glyph-name="X" unicode="X" horiz-adv-x="716" 
d="M702 0h-354v86q106 0 49 78l-78 105l-90 -123q-17 -30 0 -45.5t65 -15.5v-85h-280v85q60 0 130 87l125 166l-139 189q-23 36 -34 49t-30.5 22t-51.5 9v84h340v-84q-54 -1 -61 -18t21 -53l65 -92l74 96q27 34 17 50t-63 17v84h286v-84q-18 0 -36 -5t-30.5 -10.5t-27 -16.5
t-21.5 -17t-19 -18.5t-14 -14.5l-119 -148l146 -204q36 -51 60.5 -69.5t69.5 -18.5v-85z" />
    <glyph glyph-name="Y" unicode="Y" horiz-adv-x="684" 
d="M664 609l-2 -2q-60 0 -103 -79l-128 -228v-129q0 -58 17 -72t74 -14v-85h-333v85q57 0 70 13t13 73v129l-134 218q-28 43 -39 56.5t-29.5 23t-49.5 9.5v84h340v-84q-57 0 -68.5 -13.5t12.5 -54.5l84 -150l77 149q18 27 4.5 47.5t-56.5 21.5v84h251v-82z" />
    <glyph glyph-name="Z" unicode="Z" horiz-adv-x="636" 
d="M36 0v48l364 555l-3 4h-103q-60 0 -101.5 -61t-47.5 -140h-86l10 285h551v-46l-368 -556l2 -4h139q53 0 93 61.5t52 159.5h87l-24 -306h-565z" />
    <glyph glyph-name="bracketleft" unicode="[" horiz-adv-x="335" 
d="M313 738v-84q-29 -5 -69.5 -5t-60.5 5v-800q17 4 62 4t74 -4v-88q-44 6 -130 6.5t-144 -5.5v970q58 -5 144 -5t124 6z" />
    <glyph glyph-name="backslash" unicode="\" horiz-adv-x="460" 
d="M327 -122l-300 856h106l300 -856h-106z" />
    <glyph glyph-name="bracketright" unicode="]" horiz-adv-x="335" 
d="M22 654v84q38 -6 124 -6t144 5v-970q-58 6 -144 5.5t-130 -6.5v88q28 4 74 4t62 -4v800q-20 -5 -60.5 -5t-69.5 5z" />
    <glyph glyph-name="asciicircum" unicode="^" horiz-adv-x="544" 
d="M286 691l221 -377l-78 -46l-152 273h-8l-155 -273l-77 46l222 377h27z" />
    <glyph glyph-name="underscore" unicode="_" horiz-adv-x="604" 
d="M-3 -190h610v-72h-610v72z" />
    <glyph glyph-name="grave" unicode="`" horiz-adv-x="500" 
d="M325 526v-18h-71l-139 152v20h124z" />
    <glyph glyph-name="a" unicode="a" horiz-adv-x="492" 
d="M424 372v-268q0 -18 13.5 -23.5t44.5 -5.5v-45q-44 -42 -95 -42q-33 0 -50 14t-30 43h-8q-26 -27 -63 -42t-74 -15q-56 0 -95.5 33.5t-39.5 90.5q0 65 35 100t108 51l117 26v85q0 24 -16.5 37t-44.5 13q-38 0 -57 -15q26 -29 26 -61q0 -25 -20 -40t-49 -15
q-32 0 -53.5 20.5t-21.5 56.5q0 60 54.5 97.5t152.5 37.5q81 0 123.5 -35.5t42.5 -97.5zM287 110v114l-55 -15q-62 -17 -62 -73q0 -27 14 -38t44 -11q32 0 59 23z" />
    <glyph glyph-name="b" unicode="b" horiz-adv-x="525" 
d="M154 47l-37 -55h-65l8 124v474q0 38 -18 52t-66 14v74l197 10h34l-5 -207v-72h7q42 44 115 44q85 0 128 -70.5t43 -189.5q0 -112 -57.5 -183.5t-143.5 -71.5q-83 0 -131 57h-9zM202 364v-236q6 -19 23.5 -31.5t40.5 -12.5q78 0 78 166q0 77 -16.5 113.5t-53.5 36.5
q-38 0 -72 -36z" />
    <glyph glyph-name="c" unicode="c" horiz-adv-x="472" 
d="M386 163h64q-10 -79 -63.5 -126t-131.5 -47q-96 0 -160.5 64t-64.5 181t69.5 193.5t170.5 76.5q71 0 122 -45.5t51 -113.5q0 -46 -23 -72t-56 -26q-29 0 -50.5 19t-21.5 48q-1 44 49 66q-20 37 -64 37q-43 0 -69.5 -42t-26.5 -127q0 -93 29.5 -128.5t80.5 -35.5
q38 0 64 22.5t31 55.5z" />
    <glyph glyph-name="d" unicode="d" horiz-adv-x="536" 
d="M314 468h8v122q0 37 -16.5 51.5t-59.5 14.5v74l172 10h51l-5 -214v-402q0 -42 60 -42v-74l-152 -13h-23l-18 47h-8q-41 -52 -110 -52q-83 0 -133 70.5t-50 177.5q0 121 59.5 194t135.5 73q52 0 89 -37zM322 129v235q-19 36 -58 36q-83 0 -83 -159q0 -146 81 -146
q19 0 36.5 9.5t23.5 24.5z" />
    <glyph glyph-name="e" unicode="e" horiz-adv-x="475" 
d="M379 164h69q-12 -83 -64.5 -128.5t-131.5 -45.5q-98 0 -160 65.5t-62 188.5q0 115 63.5 188t162.5 73q86 0 138.5 -61.5t52.5 -164.5v-48h-266v-11q0 -63 28 -99t79 -36q78 0 91 79zM307 302v15q0 96 -53 96q-32 0 -48 -27t-21 -84h122z" />
    <glyph glyph-name="f" unicode="f" horiz-adv-x="350" 
d="M368 561q-30 0 -47.5 15.5t-17.5 42.5q0 30 15 55q-49 0 -70 -26.5t-21 -86.5v-66h101v-85h-101v-309q0 -26 73 -26v-75h-278v75q37 0 49.5 6t12.5 23v306h-66v85h66v51q0 92 61.5 148t155.5 56q63 0 101.5 -30.5t38.5 -80.5q0 -35 -18.5 -56.5t-54.5 -21.5z" />
    <glyph glyph-name="g" unicode="g" horiz-adv-x="518" 
d="M363 471l81 46l59 -24v-88h-75l-7 -9q21 -26 21 -71q0 -81 -59.5 -125.5t-153.5 -44.5q-49 0 -49 -32q0 -16 10 -21.5t37 -7.5l146 -6q125 -5 125 -126q0 -78 -70.5 -132.5t-187.5 -54.5q-101 0 -160 34.5t-59 90.5q0 34 20.5 60.5t56.5 38.5v9q-53 28 -53 79q0 66 76 96
v7q-83 48 -83 145q0 77 58 123.5t138 46.5q77 0 129 -34zM300 327q0 95 -58 95q-61 0 -61 -95q0 -47 16.5 -72t44.5 -25q58 0 58 97zM377 -69q0 33 -41 34l-175 8q-27 -15 -27 -51q0 -33 30.5 -52t84.5 -19q57 0 92.5 23.5t35.5 56.5z" />
    <glyph glyph-name="h" unicode="h" horiz-adv-x="555" 
d="M216 453h10q34 28 58.5 40t66.5 12q55 0 93 -38.5t38 -123.5v-246q0 -14 11 -18t35 -4v-75h-226v75q38 0 38 22v242q0 27 -14.5 40t-32.5 13q-29 0 -73 -26v-269q0 -14 9 -18t29 -4v-75h-231v75q50 0 50 25v385l-5 114q0 35 -14.5 46t-55.5 11v75l123 9h97l-6 -189v-98z
" />
    <glyph glyph-name="i" unicode="i" horiz-adv-x="296" 
d="M223 99q0 -24 48 -24v-75h-246v75q32 0 44 5.5t12 19.5v261q0 32 -12.5 41t-48.5 9v75l116 9h87v-396zM49 654q0 37 27 62t69 25q39 0 65.5 -25t26.5 -62q0 -34 -26.5 -58.5t-65.5 -24.5q-42 0 -69 24t-27 59z" />
    <glyph glyph-name="j" unicode="j" horiz-adv-x="306" 
d="M96 -99v450q-1 39 -16 49.5t-55 10.5v75l121 9h92v-520q0 -100 -52 -150t-133 -50q-57 0 -93.5 29.5t-36.5 81.5q0 35 20 56.5t48 21.5q29 0 48.5 -18t19.5 -53l-36 -32q9 -19 29 -19q44 0 44 59zM56 654q0 37 27 62t69 25q39 0 65.5 -25t26.5 -62q0 -34 -26.5 -58.5
t-65.5 -24.5q-42 0 -69 24t-27 59z" />
    <glyph glyph-name="k" unicode="k" horiz-adv-x="548" 
d="M410 362l-72 -75l143 -191q15 -21 32 -21h20v-75h-155l-145 215h-13v-107q0 -19 10.5 -26t40.5 -7v-75h-244v75q30 0 40 7t10 22v390l-5 101q-1 36 -15 48.5t-50 12.5v74l186 10h33l-6 -223v-219h26l79 80q23 18 17 33t-45 16v68h219v-68q-32 -7 -54.5 -21t-51.5 -44z
" />
    <glyph glyph-name="l" unicode="l" horiz-adv-x="306" 
d="M225 522v-418q0 -29 56 -29v-75h-256v75q57 0 57 30v408l-3 78q0 39 -13.5 49.5t-52.5 10.5v80l174 9h43z" />
    <glyph glyph-name="m" unicode="m" horiz-adv-x="825" 
d="M464 440h8q24 34 53.5 49.5t75.5 15.5q60 0 105.5 -41.5t45.5 -130.5v-235q0 -23 46 -23v-75h-229v75q41 0 41 27v229q0 61 -45 61q-37 0 -78 -30v-269q0 -18 38 -18v-75h-220v75q40 0 40 27v229q0 61 -51 61q-46 0 -74 -30v-264q0 -23 41 -23v-75h-234v75q50 0 50 24
v247q0 36 -12.5 48t-42.5 12v80l146 9h31l2 -57h14q46 67 135 67q72 0 114 -65z" />
    <glyph glyph-name="n" unicode="n" horiz-adv-x="555" 
d="M196 438h14q33 33 63 50t73 17q57 0 96.5 -41t39.5 -131v-236q0 -22 46 -22v-75h-226v75q38 0 38 27v237q0 27 -14.5 40t-32.5 13q-28 0 -73 -26v-265q0 -26 38 -26v-75h-231v75q50 0 50 27v252q0 28 -12.5 40t-42.5 12v80l134 9h31z" />
    <glyph glyph-name="o" unicode="o" horiz-adv-x="519" 
d="M30 244q0 118 65.5 189.5t164.5 71.5q98 0 163.5 -73t65.5 -188q0 -126 -63.5 -190t-165.5 -64q-101 0 -165.5 67t-64.5 187zM181 245q0 -96 20.5 -127.5t58.5 -31.5q17 0 29 5t24 20t18.5 48.5t6.5 85.5q0 101 -20.5 132.5t-57.5 31.5q-24 0 -39.5 -10t-27.5 -48
t-12 -106z" />
    <glyph glyph-name="p" unicode="p" horiz-adv-x="525" 
d="M202 29v-144q0 -25 61 -25v-75h-261v75q58 0 58 38v433q0 49 -11 62t-47 13v80l152 9h28l5 -54h7q18 29 52 46.5t71 17.5q80 0 129 -62.5t49 -192.5q0 -120 -58.5 -189.5t-128.5 -69.5q-74 0 -99 38h-7zM271 400q-39 0 -69 -44v-229q17 -37 66 -37q77 0 77 155
q0 86 -17 120.5t-57 34.5z" />
    <glyph glyph-name="q" unicode="q" horiz-adv-x="518" 
d="M267 97q17 0 34 10.5t21 23.5v236q-18 19 -31.5 26.5t-35.5 7.5q-42 0 -58 -39.5t-16 -115.5q0 -79 18 -114t68 -35zM322 29h-11q-35 -38 -91 -38q-91 0 -140.5 71.5t-49.5 180.5q0 121 62 191.5t143 70.5q43 0 74 -17t45 -40h8l50 52h52v-603q0 -37 63 -37v-75h-278v75
q73 0 73 29v140z" />
    <glyph glyph-name="r" unicode="r" horiz-adv-x="381" 
d="M375 409q0 -45 -28 -71.5t-67 -29.5l-40 61h-25v-268q0 -16 16 -21t59 -5v-75h-273v75q33 0 44 7.5t11 21.5v247q0 30 -12.5 41t-42.5 11v83l122 9h29l13 -72h14q35 82 99 82q34 0 57.5 -25.5t23.5 -70.5z" />
    <glyph glyph-name="s" unicode="s" horiz-adv-x="444" 
d="M39 -2v193h64q10 -45 48 -76t93 -31q58 0 58 44q0 34 -60 54q-10 3 -43.5 13.5t-49.5 16.5t-43.5 20.5t-41.5 29.5t-25 40t-11 56q0 67 46 107t113 40q77 0 132 -38l15 30h62v-174h-60q-38 91 -127 91q-29 0 -45 -11t-16 -30q0 -33 91 -58q28 -8 36.5 -10t34.5 -11
t36.5 -16t29 -20.5t26 -28t14.5 -36t7 -46.5q0 -71 -45.5 -114t-120.5 -43q-73 0 -143 47l-10 -39h-65z" />
    <glyph glyph-name="t" unicode="t" horiz-adv-x="359" 
d="M70 410h-61v71q58 4 88 49t43 143h73v-178h120v-85h-120v-288q0 -39 30 -39q5 0 10.5 2t13 8t11.5 18t7 32.5t0 51.5h58q2 -54 -6 -93t-21.5 -60.5t-34.5 -34t-39 -16t-42 -3.5q-62 0 -96 39t-34 100v283z" />
    <glyph glyph-name="u" unicode="u" horiz-adv-x="555" 
d="M361 56h-14q-61 -66 -128 -66q-62 0 -106.5 40t-44.5 127v232q0 17 -15 17h-36v84l194 10v-334q0 -64 56 -64q40 0 70 30v258q0 8 -1.5 11.5t-4 4t-9.5 0.5h-46v84l203 10v-371q0 -34 9.5 -43t44.5 -9v-70l-137 -12h-26z" />
    <glyph glyph-name="v" unicode="v" horiz-adv-x="528" 
d="M309 -2h-89l-137 333q-20 49 -37.5 69t-43.5 20v75h270v-75q-76 -3 -48 -74l64 -184h6l67 189q12 33 -0.5 51t-44.5 18v75h210v-75q-32 0 -48 -14t-32 -56z" />
    <glyph glyph-name="w" unicode="w" horiz-adv-x="767" 
d="M475 -2l-87 235l-78 -235h-102l-127 333q-22 56 -37 72.5t-42 16.5v75h248v-75q-34 -1 -39 -19t13 -61l62 -175h6l58 174l-6 16q-10 36 -22.5 49.5t-37.5 15.5v75h251v-75q-45 0 -55 -15t5 -46l63 -194h4l47 160q8 27 10 34t4 24t-3.5 22t-17.5 10t-33 5v75h206v-75
q-50 0 -85 -101l-101 -321h-104z" />
    <glyph glyph-name="x" unicode="x" horiz-adv-x="512" 
d="M258 360l24 -34l37 47q10 12 13 22.5t-5 17.5t-28 7v75h200v-75q-15 0 -25 -2.5t-21.5 -12.5t-14.5 -14t-18 -22l-91 -111l80 -113q39 -51 50 -59q15 -11 40 -11v-75h-250v75q26 0 35 10.5t-6 34.5l-44 61l-43 -62q-28 -43 28 -44v-75h-206v75q24 0 37 7.5t29 28.5
l106 137l-71 100q-6 8 -15.5 20t-13 16.5t-10 12t-9 9.5t-8 6t-8.5 4.5t-9.5 2t-12.5 1.5h-15v75h254v-75q-23 0 -29.5 -6.5t-1.5 -18t22 -35.5z" />
    <glyph glyph-name="y" unicode="y" horiz-adv-x="524" 
d="M299 165h6l57 172q14 49 4 66t-49 17v75h205v-75q-28 0 -44 -20.5t-33 -65.5l-167 -449q-35 -110 -137 -110q-58 0 -87 29.5t-29 68.5q0 37 21 59t50 22q31 0 50 -19t19 -50l-41 -26q6 -15 27 -15q32 0 47 45l41 108l-155 348q-10 22 -15 32t-14.5 22t-22 16.5t-30.5 4.5
v75h279v-75q-76 0 -49 -75z" />
    <glyph glyph-name="z" unicode="z" horiz-adv-x="484" 
d="M212 88v-9h64q50 0 82 44.5t45 118.5h55l-14 -242h-423v38l247 374v7h-41q-102 0 -134 -154h-55l12 230h402v-42z" />
    <glyph glyph-name="braceleft" unicode="{" horiz-adv-x="435" 
d="M173 283v-16q59 -8 102.5 -51t43.5 -105q0 -25 -17.5 -84t-17.5 -94q0 -43 26 -66t90 -23v-72q-105 0 -165 17.5t-81.5 48t-21.5 80.5q0 35 21.5 98t21.5 93q0 60 -41 93t-107 33v76q63 0 105.5 36.5t42.5 85.5q0 33 -20.5 88.5t-20.5 86.5q0 71 59 100.5t201 29.5v-72
q-54 0 -82 -13t-28 -46q0 -37 17.5 -96.5t17.5 -82.5q0 -53 -42.5 -92t-103.5 -53z" />
    <glyph glyph-name="bar" unicode="|" horiz-adv-x="544" 
d="M225 -230v980h94v-980h-94z" />
    <glyph glyph-name="braceright" unicode="}" horiz-adv-x="435" 
d="M262 267v16q-61 14 -103.5 53t-42.5 92q0 23 17.5 82.5t17.5 96.5q0 33 -28 46t-82 13v72q143 0 201.5 -29.5t58.5 -100.5q0 -31 -20.5 -86.5t-20.5 -88.5q0 -49 42.5 -85.5t105.5 -36.5v-76q-66 0 -107 -33t-41 -93q0 -30 21.5 -93t21.5 -98q0 -50 -21.5 -80.5
t-81.5 -48t-165 -17.5v72q64 0 90 23t26 66q0 35 -17.5 94t-17.5 84q0 62 43.5 105t102.5 51z" />
    <glyph glyph-name="asciitilde" unicode="~" horiz-adv-x="544" 
d="M471 383l36 -14q-21 -69 -63.5 -123t-80.5 -54q-23 0 -105 39.5t-105 39.5q-15 0 -30 -13.5t-23.5 -27.5t-22.5 -42l-40 16q17 59 61 119t71 60q30 0 107.5 -40t106.5 -40q24 0 50.5 25t37.5 55z" />
    <glyph glyph-name="uni00A0" unicode="&#xa0;" horiz-adv-x="230" 
 />
    <glyph glyph-name="exclamdown" unicode="&#xa1;" horiz-adv-x="359" 
d="M94 -108q4 28 16 89t22 126t18 145h54q8 -78 20.5 -149t26 -135.5t15.5 -77.5q8 -53 -11 -92.5t-79 -39.5q-104 0 -82 134zM263 410q0 -36 -24.5 -61.5t-60.5 -25.5t-61.5 25.5t-25.5 61.5q0 34 25.5 57t61.5 23t60.5 -23t24.5 -57z" />
    <glyph glyph-name="cent" unicode="&#xa2;" horiz-adv-x="433" 
d="M350 285h55q-6 -66 -47.5 -105t-103.5 -44v-96h-43v97q-74 9 -121.5 63t-47.5 146q0 88 47.5 150.5t121.5 77.5v92h43v-88q60 -2 104 -38.5t44 -89.5q0 -34 -19.5 -52t-49.5 -18q-38 0 -47 41l14 59q-15 24 -46 27v-285h14q32 0 54.5 18.5t27.5 44.5zM172 357
q0 -88 39 -119v254q-39 -34 -39 -135z" />
    <glyph glyph-name="sterling" unicode="&#xa3;" horiz-adv-x="592" 
d="M75 387h57q-25 63 -25 105q0 88 63 136.5t147 48.5q91 0 141.5 -39.5t50.5 -87.5q0 -27 -17 -43t-39 -16q-30 0 -50 19t-28.5 42.5t-25 42.5t-38.5 19q-23 0 -39 -25.5t-16 -76.5q0 -42 32 -125h136v-61h-119q3 -17 3 -34q0 -98 -57 -146l10 -13q17 15 35 15q26 0 47 -14
t33 -31.5t28.5 -31.5t33.5 -14q22 0 22 21q0 13 -17.5 35.5t-17.5 40.5q0 20 15.5 36t41.5 16q36 0 57 -23.5t21 -67.5q0 -61 -44 -94t-104 -33q-62 0 -117.5 21t-91.5 51q-47 -72 -109 -72q-24 0 -38.5 12t-14.5 32q0 58 118 90q16 43 16 113q0 39 -19 91h-81v61z" />
    <glyph glyph-name="currency" unicode="&#xa4;" horiz-adv-x="628" 
d="M92 271q0 68 41 126v7l-46 44q-11 12 -2 28.5t25.5 22t28.5 -2.5l46 -48q60 42 131 42q75 0 128 -39v1l44 46q13 9 30 1t28.5 -26.5t1.5 -28.5l-46 -43v-7q38 -57 38 -123q0 -68 -42 -129v-7l49 -47q11 -11 1.5 -28t-25.5 -23.5t-28 3.5v1l-51 50q-57 -39 -128 -39
q-70 0 -126 35l-42 -44v-1q-11 -12 -31.5 -4.5t-29.5 23.5t1 29l45 44v7q-41 56 -41 130zM158 270q0 -74 44 -121.5t115 -47.5q66 0 110.5 48t44.5 121q0 74 -44.5 121.5t-111.5 47.5q-73 0 -115.5 -48t-42.5 -121z" />
    <glyph glyph-name="yen" unicode="&#xa5;" horiz-adv-x="610" 
d="M620 635v-51q-60 0 -103 -72l-131 -224h122v-56h-123v-55h123v-56h-123q1 -47 19 -58t76 -11v-52h-328v52q63 0 77.5 10.5t15.5 58.5h-122v56h122v55h-122v56h117l-140 214q-32 51 -51.5 66.5t-58.5 15.5v51h309v-51q-53 0 -66 -13.5t11 -48.5l100 -156l82 155
q16 26 4 44t-52 19v51h242z" />
    <glyph glyph-name="brokenbar" unicode="&#xa6;" horiz-adv-x="544" 
d="M319 400h-94v350h94v-350zM225 120h94v-350h-94v350z" />
    <glyph glyph-name="section" unicode="&#xa7;" horiz-adv-x="499" 
d="M42 470q0 56 23.5 104t60 77.5t77 45.5t77.5 16q46 0 81 -20t35 -56q0 -26 -15.5 -42t-42.5 -16q-32 0 -56.5 31t-48.5 31q-16 0 -25 -16.5t-9 -38.5q0 -38 26 -84t62.5 -92t73.5 -96t63 -113t26 -126q0 -74 -43.5 -132.5t-100 -85.5t-108.5 -27q-50 0 -90.5 22t-40.5 62
q0 25 16.5 41.5t45.5 16.5q17 0 29.5 -10.5t19 -22.5t21 -22.5t36.5 -10.5q15 0 26.5 12.5t11.5 32.5q0 51 -24 101.5t-57.5 95t-67.5 91t-58 106.5t-24 125zM343 -10l7 -6q19 33 19 91q0 48 -24 102t-58.5 100.5t-68 91.5t-56.5 89.5t-21 78.5l-8 4q-14 -26 -14 -64
q0 -49 25 -101.5t59.5 -98.5t68.5 -92t55 -97t16 -98z" />
    <glyph glyph-name="dieresis" unicode="&#xa8;" horiz-adv-x="500" 
d="M414 586q0 -27 -21 -47.5t-47 -20.5q-28 0 -49 20.5t-21 47.5q0 28 21 49t49 21q26 0 47 -21.5t21 -48.5zM224 586q0 -27 -20 -47.5t-49 -20.5q-27 0 -48 20.5t-21 47.5q0 28 21 49t48 21q29 0 49 -21t20 -49z" />
    <glyph glyph-name="copyright" unicode="&#xa9;" horiz-adv-x="775" 
d="M48 327q0 138 100.5 238t239.5 100q144 0 241.5 -99t97.5 -239q0 -143 -99.5 -242t-239.5 -99q-142 0 -241 96.5t-99 244.5zM108 324q0 -122 79 -203.5t203 -81.5q123 0 199.5 81t76.5 204q0 125 -79 208t-199 83q-122 0 -201 -83.5t-79 -207.5zM397 183q45 0 70.5 19.5
t39.5 62.5h28v-82q-67 -43 -140 -43q-82 0 -137 50t-55 138q0 84 55 135t137 51q67 0 136 -37v-85h-30q-16 46 -42.5 64t-63.5 18q-51 0 -81.5 -35t-30.5 -110q0 -71 34.5 -108.5t79.5 -37.5z" />
    <glyph glyph-name="ordfeminine" unicode="&#xaa;" horiz-adv-x="394" 
d="M342 608v-207q0 -21 47 -21v-37q-38 -34 -80 -34q-45 0 -67 44h-1q-46 -44 -111 -44q-45 0 -78 26.5t-33 71.5q0 52 28.5 79.5t87.5 39.5l91 20v64q0 37 -45 37q-26 0 -42 -10q21 -26 21 -47q0 -20 -17 -32t-42 -12q-27 0 -45 16.5t-18 44.5q0 47 44 77t124 30
q66 0 101 -28.5t35 -77.5zM226 407v83q-6 -2 -19 -5t-20 -5q-47 -14 -47 -54q0 -36 42 -36q21 0 44 17z" />
    <glyph glyph-name="guillemotleft" unicode="&#xab;" horiz-adv-x="652" 
d="M88 240l202 224l54 -34l-99 -192v-15l99 -198l-54 -34l-202 226v23zM295 240l202 224l54 -34l-99 -192v-15l99 -198l-54 -34l-202 226v23z" />
    <glyph glyph-name="logicalnot" unicode="&#xac;" horiz-adv-x="544" 
d="M408 52v177h-368v84h457v-261h-89z" />
    <glyph glyph-name="registered" unicode="&#xae;" horiz-adv-x="508" 
d="M40 503q0 88 63 151t151 63q91 0 152.5 -62.5t61.5 -151.5q0 -88 -63 -151t-151 -63q-89 0 -151.5 61t-62.5 153zM84 502q0 -76 48 -125.5t123 -49.5q70 0 119.5 50.5t49.5 124.5q0 77 -49 126.5t-121 49.5q-78 0 -124 -49.5t-46 -126.5zM287 508v-8q14 -6 38 -39.5
t37 -42.5l15 -7v-20h-55q-14 10 -41.5 52t-47.5 50h-13v-75l37 -7v-20h-114v20l27 7v183l-27 7v20h116q29 0 57 -14t28 -48q0 -20 -15.5 -36.5t-41.5 -21.5zM220 601v-82h26q23 0 34.5 13.5t11.5 31.5q0 37 -40 37h-32z" />
    <glyph glyph-name="macron" unicode="&#xaf;" horiz-adv-x="500" 
d="M387 529h-274v77h274v-77z" />
    <glyph glyph-name="degree" unicode="&#xb0;" horiz-adv-x="367" 
d="M31 555q0 63 45 108t107 45q63 0 108 -45t45 -108q0 -62 -45 -106.5t-108 -44.5q-62 0 -107 45t-45 106zM117 555q0 -31 18 -52t47 -21q30 0 48 21t18 52q0 32 -18 54t-48 22q-29 0 -47 -22t-18 -54z" />
    <glyph glyph-name="plusminus" unicode="&#xb1;" horiz-adv-x="620" 
d="M573 307h-220v-191h-86v191h-220v86h220v192h86v-192h220v-86zM573 0h-526v86h526v-86z" />
    <glyph glyph-name="two.sups" unicode="&#xb2;" horiz-adv-x="320" 
d="M138 502l4 -6h82q24 0 29 41h58l-20 -122h-273l-13 46l22 19q31 25 47.5 40t48.5 47.5t48.5 65.5t16.5 64q0 53 -40 53q-28 0 -44 -29q36 -25 36 -50q0 -20 -17 -33t-43 -13q-29 0 -45.5 16.5t-16.5 42.5q0 52 43 85t98 33q64 0 102 -29t38 -80q0 -33 -29 -71.5
t-55.5 -60.5t-76.5 -59z" />
    <glyph glyph-name="three.sups" unicode="&#xb3;" horiz-adv-x="312" 
d="M207 622l3 -5q38 -6 65 -28.5t27 -60.5q0 -57 -50 -88t-116 -31q-57 0 -94.5 21.5t-37.5 59.5q0 25 16 40t43 15q22 0 37.5 -11.5t15.5 -29.5q0 -22 -28 -39q11 -7 36 -7q28 0 47 16.5t19 51.5q0 54 -51 54q-20 0 -58 -13l-11 42q56 22 80.5 48t24.5 63t-34 37
q-17 0 -35 -14q24 -17 24 -38q0 -17 -15.5 -28.5t-37.5 -11.5q-26 0 -42 14t-16 36q0 41 41.5 64t94.5 23q60 0 98 -23.5t38 -63.5q0 -52 -84 -93z" />
    <glyph glyph-name="acute" unicode="&#xb4;" horiz-adv-x="500" 
d="M175 508v18l86 154h124v-20l-139 -152h-71z" />
    <glyph glyph-name="mu" unicode="&#xb5;" horiz-adv-x="544" 
d="M368 27l-8 6q-59 -45 -119 -45q-44 0 -76 27q1 -26 4 -64.5t4.5 -64t1.5 -38.5q0 -60 -56 -60q-50 0 -50 52q0 17 6 120.5t8 159.5q-1 7 -1 21v257l-63 11v38l174 18v-304q0 -56 17 -78.5t54 -22.5q54 0 88 32v306l-63 11v38l174 18v-364q0 -43 21 -43q20 0 34 34l28 -11
q-18 -47 -51 -68.5t-63 -21.5q-26 0 -37.5 7t-26.5 29z" />
    <glyph glyph-name="mu" unicode="&#x3bc;" horiz-adv-x="544" 
d="M368 27l-8 6q-59 -45 -119 -45q-44 0 -76 27q1 -26 4 -64.5t4.5 -64t1.5 -38.5q0 -60 -56 -60q-50 0 -50 52q0 17 6 120.5t8 159.5q-1 7 -1 21v257l-63 11v38l174 18v-304q0 -56 17 -78.5t54 -22.5q54 0 88 32v306l-63 11v38l174 18v-364q0 -43 21 -43q20 0 34 34l28 -11
q-18 -47 -51 -68.5t-63 -21.5q-26 0 -37.5 7t-26.5 29z" />
    <glyph glyph-name="paragraph" unicode="&#xb6;" horiz-adv-x="559" 
d="M526 706v-82h-48v-781h-70v781h-55v-781h-70v400q-127 0 -196.5 62t-69.5 170q0 105 69 168t177 63h263zM283 310v314q-49 0 -79 -44.5t-30 -117.5q0 -69 28.5 -110.5t80.5 -41.5z" />
    <glyph glyph-name="periodcentered" unicode="&#xb7;" horiz-adv-x="279" 
d="M49 280q0 39 25.5 65.5t63.5 26.5t65 -27t27 -65q0 -36 -27 -60.5t-65 -24.5t-63.5 24.5t-25.5 60.5z" />
    <glyph glyph-name="cedilla" unicode="&#xb8;" horiz-adv-x="500" 
d="M197 -224l-8 45q82 14 82 47q0 27 -66 27q-16 0 -30 -2l-5 7l62 140h55l-35 -80q98 0 98 -62q0 -45 -45 -79t-108 -43z" />
    <glyph glyph-name="one.sups" unicode="&#xb9;" horiz-adv-x="270" 
d="M11 731v46q22 -2 41 -2q54 0 107 18h37v-295q0 -22 15.5 -28t53.5 -6v-49h-246v49q37 0 52.5 7.5t15.5 26.5v219q-46 2 -76 14z" />
    <glyph glyph-name="ordmasculine" unicode="&#xba;" horiz-adv-x="415" 
d="M21 509q0 93 53 149t134 56q79 0 132.5 -57.5t53.5 -147.5q0 -98 -52 -148.5t-134 -50.5t-134.5 53t-52.5 146zM149 510q0 -73 15 -97t44 -24q27 0 42 23.5t15 97.5q0 76 -15 100.5t-42 24.5q-28 0 -43.5 -25t-15.5 -100z" />
    <glyph glyph-name="guillemotright" unicode="&#xbb;" horiz-adv-x="652" 
d="M362 464l202 -224v-23l-202 -226l-54 34l99 198v15l-99 192zM155 464l202 -224v-23l-202 -226l-54 34l99 198v15l-99 192z" />
    <glyph glyph-name="onequarter" unicode="&#xbc;" 
d="M141 -8l241 370l223 353l50 -36l-234 -349l-231 -375zM63 622v46q22 -2 41 -2q54 0 107 18h37v-295q0 -22 15.5 -28t53.5 -6v-49h-246v49q37 0 52.5 7.5t15.5 26.5v219q-46 2 -76 14zM408 99l-6 23l197 256l61 -8v-224h51v-47h-51v-20q0 -27 10 -33.5t40 -6.5v-49h-199
v49q27 0 36.5 7t9.5 30v23h-149zM493 148l2 -2h62v86z" />
    <glyph glyph-name="onehalf" unicode="&#xbd;" 
d="M141 -8l241 370l223 353l50 -36l-234 -349l-231 -375zM63 622v46q22 -2 41 -2q54 0 107 18h37v-295q0 -22 15.5 -28t53.5 -6v-49h-246v49q37 0 52.5 7.5t15.5 26.5v219q-46 2 -76 14zM574 77l4 -6h82q24 0 29 41h58l-20 -122h-273l-13 46l22 19q31 25 47.5 40t48.5 47.5
t48.5 65.5t16.5 64q0 53 -40 53q-28 0 -44 -29q36 -25 36 -50q0 -20 -17 -33t-43 -13q-29 0 -45.5 16.5t-16.5 42.5q0 52 43 85t98 33q64 0 102 -29t38 -80q0 -33 -29 -71.5t-55.5 -60.5t-76.5 -59z" />
    <glyph glyph-name="threequarters" unicode="&#xbe;" 
d="M141 -8l241 370l223 353l50 -36l-234 -349l-231 -375zM237 513l3 -5q38 -6 65 -28.5t27 -60.5q0 -57 -50 -88t-116 -31q-57 0 -94.5 21.5t-37.5 59.5q0 25 16 40t43 15q22 0 37.5 -11.5t15.5 -29.5q0 -22 -28 -39q11 -7 36 -7q28 0 47 16.5t19 51.5q0 54 -51 54
q-20 0 -58 -13l-11 42q56 22 80.5 48t24.5 63t-34 37q-17 0 -35 -14q24 -17 24 -38q0 -17 -15.5 -28.5t-37.5 -11.5q-26 0 -42 14t-16 36q0 41 41.5 64t94.5 23q60 0 98 -23.5t38 -63.5q0 -52 -84 -93zM408 99l-6 23l197 256l61 -8v-224h51v-47h-51v-20q0 -27 10 -33.5
t40 -6.5v-49h-199v49q27 0 36.5 7t9.5 30v23h-149zM493 148l2 -2h62v86z" />
    <glyph glyph-name="questiondown" unicode="&#xbf;" horiz-adv-x="510" 
d="M384 50l-12 -7q-60 23 -114 23q-42 0 -66 -27t-24 -77t31 -89t83 -39q38 0 57 12q-37 26 -37 63q0 27 17.5 43t52.5 16q37 0 59.5 -22t22.5 -63q0 -54 -47 -89.5t-124 -35.5q-98 0 -172.5 66t-74.5 174q0 89 51.5 146t130.5 57q61 0 94 -18l3 69h64zM432 406
q0 -34 -24.5 -58.5t-60.5 -24.5t-61.5 24.5t-25.5 58.5q0 36 25.5 60t61.5 24t60.5 -24t24.5 -60z" />
    <glyph glyph-name="Agrave" unicode="&#xc0;" horiz-adv-x="720" 
d="M459 124l-25 63h-216l-23 -61q-8 -23 9.5 -32t70.5 -9v-85h-262v85q37 0 57.5 13.5t34.5 47.5l222 550h61l233 -557q16 -37 29.5 -45.5t56.5 -8.5v-85h-318v85h27q37 0 44.5 6.5t-1.5 32.5zM320 461l-72 -192h154l-76 192h-6zM423 758v-18h-71l-139 117v20h124z" />
    <glyph glyph-name="Aacute" unicode="&#xc1;" horiz-adv-x="720" 
d="M459 124l-25 63h-216l-23 -61q-8 -23 9.5 -32t70.5 -9v-85h-262v85q37 0 57.5 13.5t34.5 47.5l222 550h61l233 -557q16 -37 29.5 -45.5t56.5 -8.5v-85h-318v85h27q37 0 44.5 6.5t-1.5 32.5zM320 461l-72 -192h154l-76 192h-6zM283 740v18l86 119h124v-20l-139 -117h-71z
" />
    <glyph glyph-name="Acircumflex" unicode="&#xc2;" horiz-adv-x="720" 
d="M459 124l-25 63h-216l-23 -61q-8 -23 9.5 -32t70.5 -9v-85h-262v85q37 0 57.5 13.5t34.5 47.5l222 550h61l233 -557q16 -37 29.5 -45.5t56.5 -8.5v-85h-318v85h27q37 0 44.5 6.5t-1.5 32.5zM320 461l-72 -192h154l-76 192h-6zM498 758v-18h-46l-99 58l-99 -58h-46v18
l116 119h58z" />
    <glyph glyph-name="Atilde" unicode="&#xc3;" horiz-adv-x="720" 
d="M459 124l-25 63h-216l-23 -61q-8 -23 9.5 -32t70.5 -9v-85h-262v85q37 0 57.5 13.5t34.5 47.5l222 550h61l233 -557q16 -37 29.5 -45.5t56.5 -8.5v-85h-318v85h27q37 0 44.5 6.5t-1.5 32.5zM320 461l-72 -192h154l-76 192h-6zM481 913l36 -10q-14 -52 -43 -93.5
t-55 -41.5q-17 0 -71 27.5t-71 27.5q-14 0 -24.5 -14.5t-23.5 -43.5l-39 12q11 44 41 88.5t48 44.5q21 0 72.5 -28t71.5 -28q15 0 33 19.5t25 39.5z" />
    <glyph glyph-name="Adieresis" unicode="&#xc4;" horiz-adv-x="720" 
d="M459 124l-25 63h-216l-23 -61q-8 -23 9.5 -32t70.5 -9v-85h-262v85q37 0 57.5 13.5t34.5 47.5l222 550h61l233 -557q16 -37 29.5 -45.5t56.5 -8.5v-85h-318v85h27q37 0 44.5 6.5t-1.5 32.5zM320 461l-72 -192h154l-76 192h-6zM517 838q0 -27 -21 -47.5t-47 -20.5
q-28 0 -49 20.5t-21 47.5q0 28 21 49t49 21q26 0 47 -21.5t21 -48.5zM327 838q0 -27 -20 -47.5t-49 -20.5q-27 0 -48 20.5t-21 47.5q0 28 21 49t48 21q29 0 49 -21t20 -49z" />
    <glyph glyph-name="Aring" unicode="&#xc5;" horiz-adv-x="720" 
d="M459 124l-25 63h-216l-23 -61q-8 -23 9.5 -32t70.5 -9v-85h-262v85q37 0 57.5 13.5t34.5 47.5l222 550h61l233 -557q16 -37 29.5 -45.5t56.5 -8.5v-85h-318v85h27q37 0 44.5 6.5t-1.5 32.5zM320 461l-72 -192h154l-76 192h-6zM249 858q0 43 30 73.5t73 30.5q44 0 74 -30
t30 -74q0 -43 -30.5 -73t-73.5 -30t-73 30t-30 73zM305 858q0 -21 12.5 -35.5t33.5 -14.5q22 0 35.5 14.5t13.5 35.5q0 22 -13.5 37t-35.5 15q-21 0 -33.5 -15t-12.5 -37z" />
    <glyph glyph-name="AE" unicode="&#xc6;" horiz-adv-x="1011" 
d="M980 257l-13 -257h-585v85q55 0 70.5 8.5t15.5 45.5v48h-229l-44 -61q-21 -32 39 -39q17 -2 41 -2v-85h-262v85q23 0 40 8t25.5 18t26.5 35l334 455q-19 6 -57 6v84h570l11 -231h-74q-13 85 -42.5 116t-94.5 31h-124v-233h51q70 0 70 124h70v-312h-70q0 70 -15.5 92.5
t-60.5 22.5h-45v-216h148q64 0 93.5 43t39.5 129h71zM460 491l-161 -222h169v222h-8z" />
    <glyph glyph-name="Ccedilla" unicode="&#xc7;" horiz-adv-x="684" 
d="M330 -231l-8 45q82 14 82 47q0 27 -66 27q-16 0 -30 -2l-5 7l42 96q-139 10 -221 105.5t-82 250.5q0 152 96 254t244 102q48 0 93.5 -15t63.5 -35l5 1l27 38h46l4 -265h-62q-14 75 -54.5 128t-105.5 53q-90 0 -136 -71.5t-46 -191.5q0 -124 50 -191.5t143 -67.5
q59 0 98.5 38t49.5 113h75v-3q-11 -110 -75 -172.5t-157 -70.5l-16 -36q98 0 98 -62q0 -45 -45 -79t-108 -43z" />
    <glyph glyph-name="Egrave" unicode="&#xc8;" horiz-adv-x="661" 
d="M630 257l-13 -257h-585v85q55 0 70.5 8.5t15.5 45.5v417q0 31 -18 41t-68 10v84h570l11 -231h-74q-13 85 -42.5 116t-94.5 31h-124v-233h51q70 0 70 124h70v-312h-70q0 70 -15.5 92.5t-60.5 22.5h-45v-216h148q64 0 93.5 43t39.5 129h71zM419 758v-18h-71l-139 117v20
h124z" />
    <glyph glyph-name="Eacute" unicode="&#xc9;" horiz-adv-x="661" 
d="M630 257l-13 -257h-585v85q55 0 70.5 8.5t15.5 45.5v417q0 31 -18 41t-68 10v84h570l11 -231h-74q-13 85 -42.5 116t-94.5 31h-124v-233h51q70 0 70 124h70v-312h-70q0 70 -15.5 92.5t-60.5 22.5h-45v-216h148q64 0 93.5 43t39.5 129h71zM279 740v18l86 119h124v-20
l-139 -117h-71z" />
    <glyph glyph-name="Ecircumflex" unicode="&#xca;" horiz-adv-x="661" 
d="M630 257l-13 -257h-585v85q55 0 70.5 8.5t15.5 45.5v417q0 31 -18 41t-68 10v84h570l11 -231h-74q-13 85 -42.5 116t-94.5 31h-124v-233h51q70 0 70 124h70v-312h-70q0 70 -15.5 92.5t-60.5 22.5h-45v-216h148q64 0 93.5 43t39.5 129h71zM494 758v-18h-46l-99 58l-99 -58
h-46v18l116 119h58z" />
    <glyph glyph-name="Edieresis" unicode="&#xcb;" horiz-adv-x="661" 
d="M630 257l-13 -257h-585v85q55 0 70.5 8.5t15.5 45.5v417q0 31 -18 41t-68 10v84h570l11 -231h-74q-13 85 -42.5 116t-94.5 31h-124v-233h51q70 0 70 124h70v-312h-70q0 70 -15.5 92.5t-60.5 22.5h-45v-216h148q64 0 93.5 43t39.5 129h71zM513 838q0 -27 -21 -47.5
t-47 -20.5q-28 0 -49 20.5t-21 47.5q0 28 21 49t49 21q26 0 47 -21.5t21 -48.5zM323 838q0 -27 -20 -47.5t-49 -20.5q-27 0 -48 20.5t-21 47.5q0 28 21 49t48 21q29 0 49 -21t20 -49z" />
    <glyph glyph-name="Igrave" unicode="&#xcc;" horiz-adv-x="379" 
d="M352 691v-86q-57 0 -69.5 -5.5t-12.5 -32.5v-438q0 -29 13.5 -36.5t68.5 -7.5v-85h-325v85q58 0 70.5 7t12.5 37v438q0 28 -13 34t-70 6v84h325zM259 758v-18h-71l-139 117v20h124z" />
    <glyph glyph-name="Iacute" unicode="&#xcd;" horiz-adv-x="379" 
d="M352 691v-86q-57 0 -69.5 -5.5t-12.5 -32.5v-438q0 -29 13.5 -36.5t68.5 -7.5v-85h-325v85q58 0 70.5 7t12.5 37v438q0 28 -13 34t-70 6v84h325zM119 740v18l86 119h124v-20l-139 -117h-71z" />
    <glyph glyph-name="Icircumflex" unicode="&#xce;" horiz-adv-x="379" 
d="M352 691v-86q-57 0 -69.5 -5.5t-12.5 -32.5v-438q0 -29 13.5 -36.5t68.5 -7.5v-85h-325v85q58 0 70.5 7t12.5 37v438q0 28 -13 34t-70 6v84h325zM334 758v-18h-46l-99 58l-99 -58h-46v18l116 119h58z" />
    <glyph glyph-name="Idieresis" unicode="&#xcf;" horiz-adv-x="379" 
d="M352 691v-86q-57 0 -69.5 -5.5t-12.5 -32.5v-438q0 -29 13.5 -36.5t68.5 -7.5v-85h-325v85q58 0 70.5 7t12.5 37v438q0 28 -13 34t-70 6v84h325zM353 838q0 -27 -21 -47.5t-47 -20.5q-28 0 -49 20.5t-21 47.5q0 28 21 49t49 21q26 0 47 -21.5t21 -48.5zM163 838
q0 -27 -20 -47.5t-49 -20.5q-27 0 -48 20.5t-21 47.5q0 28 21 49t48 21q29 0 49 -21t20 -49z" />
    <glyph glyph-name="Eth" unicode="&#xd0;" horiz-adv-x="761" 
d="M49 380h69v196q0 20 -15 25.5t-71 5.5v84h310q83 0 149.5 -22t108 -57t69.5 -82t39 -92.5t11 -92.5q0 -65 -22 -124.5t-65 -110t-117.5 -80.5t-170.5 -30h-312v85q58 2 72 6.5t14 27.5v196h-69v65zM543 344q0 116 -56 189.5t-173 73.5h-37v-227h164v-65h-164v-230h65
q42 0 76.5 15t57.5 39.5t38.5 58.5t22 70.5t6.5 75.5z" />
    <glyph glyph-name="Ntilde" unicode="&#xd1;" horiz-adv-x="752" 
d="M207 473h-4v-336q0 -33 23.5 -42.5t80.5 -9.5v-85h-286v85q43 0 64.5 10t21.5 42v424q-36 46 -86 46v84h213l325 -433h4v299q0 26 -27 37.5t-89 11.5v85h284v-85q-46 0 -61.5 -11.5t-15.5 -37.5v-565h-85zM511 913l36 -10q-14 -52 -43 -93.5t-55 -41.5q-17 0 -71 27.5
t-71 27.5q-14 0 -24.5 -14.5t-23.5 -43.5l-39 12q11 44 41 88.5t48 44.5q21 0 72.5 -28t71.5 -28q15 0 33 19.5t25 39.5z" />
    <glyph glyph-name="Ograve" unicode="&#xd2;" horiz-adv-x="751" 
d="M709 345q0 -167 -96 -262t-237 -95q-145 0 -239.5 95t-94.5 262q0 170 94 263t240 93q92 0 166 -38t120.5 -120t46.5 -198zM534 345q0 261 -158 261q-159 0 -159 -261t159 -261q80 0 119 70t39 191zM446 758v-18h-71l-139 117v20h124z" />
    <glyph glyph-name="Oacute" unicode="&#xd3;" horiz-adv-x="751" 
d="M709 345q0 -167 -96 -262t-237 -95q-145 0 -239.5 95t-94.5 262q0 170 94 263t240 93q92 0 166 -38t120.5 -120t46.5 -198zM534 345q0 261 -158 261q-159 0 -159 -261t159 -261q80 0 119 70t39 191zM306 740v18l86 119h124v-20l-139 -117h-71z" />
    <glyph glyph-name="Ocircumflex" unicode="&#xd4;" horiz-adv-x="751" 
d="M709 345q0 -167 -96 -262t-237 -95q-145 0 -239.5 95t-94.5 262q0 170 94 263t240 93q92 0 166 -38t120.5 -120t46.5 -198zM534 345q0 261 -158 261q-159 0 -159 -261t159 -261q80 0 119 70t39 191zM521 758v-18h-46l-99 58l-99 -58h-46v18l116 119h58z" />
    <glyph glyph-name="Otilde" unicode="&#xd5;" horiz-adv-x="751" 
d="M709 345q0 -167 -96 -262t-237 -95q-145 0 -239.5 95t-94.5 262q0 170 94 263t240 93q92 0 166 -38t120.5 -120t46.5 -198zM534 345q0 261 -158 261q-159 0 -159 -261t159 -261q80 0 119 70t39 191zM504 913l36 -10q-14 -52 -43 -93.5t-55 -41.5q-16 0 -71 27.5t-71 27.5
q-14 0 -24.5 -14.5t-23.5 -43.5l-39 12q11 44 41 88.5t48 44.5q21 0 72.5 -28t71.5 -28q15 0 33 19.5t25 39.5z" />
    <glyph glyph-name="Odieresis" unicode="&#xd6;" horiz-adv-x="751" 
d="M709 345q0 -167 -96 -262t-237 -95q-145 0 -239.5 95t-94.5 262q0 170 94 263t240 93q92 0 166 -38t120.5 -120t46.5 -198zM534 345q0 261 -158 261q-159 0 -159 -261t159 -261q80 0 119 70t39 191zM540 838q0 -27 -21 -47.5t-47 -20.5q-28 0 -49 20.5t-21 47.5
q0 28 21 49t49 21q26 0 47 -21.5t21 -48.5zM350 838q0 -27 -20 -47.5t-49 -20.5q-27 0 -48 20.5t-21 47.5q0 28 21 49t48 21q29 0 49 -21t20 -49z" />
    <glyph glyph-name="multiply" unicode="&#xd7;" horiz-adv-x="620" 
d="M485 27l-175 175l-176 -175l-61 61l175 176l-175 175l61 62l176 -176l175 176l62 -62l-176 -175l176 -176z" />
    <glyph glyph-name="Oslash" unicode="&#xd8;" horiz-adv-x="751" 
d="M685 727l-78 -112q102 -97 102 -270q0 -167 -96 -262t-237 -95q-97 0 -172 42l-57 -83h-76l82 120q-111 98 -111 278q0 170 94 263t240 93q102 0 182 -48l51 74h76zM217 345q0 -97 21 -156l250 362q-39 55 -112 55q-159 0 -159 -261zM534 345q0 83 -16 140l-246 -357
q39 -44 104 -44q80 0 119 70t39 191z" />
    <glyph glyph-name="Ugrave" unicode="&#xd9;" horiz-adv-x="748" 
d="M723 691v-84q-46 0 -62.5 -10t-16.5 -33v-333q0 -243 -255 -243q-133 0 -210.5 56t-77.5 181v342q0 27 -11.5 33.5t-64.5 6.5v84h321v-84q-56 0 -70.5 -6.5t-14.5 -33.5v-322q0 -80 40.5 -119t110.5 -39q77 0 110.5 38t33.5 121v318q0 24 -20.5 33.5t-74.5 9.5v84h262z
M468 758v-18h-71l-139 117v20h124z" />
    <glyph glyph-name="Uacute" unicode="&#xda;" horiz-adv-x="748" 
d="M723 691v-84q-46 0 -62.5 -10t-16.5 -33v-333q0 -243 -255 -243q-133 0 -210.5 56t-77.5 181v342q0 27 -11.5 33.5t-64.5 6.5v84h321v-84q-56 0 -70.5 -6.5t-14.5 -33.5v-322q0 -80 40.5 -119t110.5 -39q77 0 110.5 38t33.5 121v318q0 24 -20.5 33.5t-74.5 9.5v84h262z
M328 740v18l86 119h124v-20l-139 -117h-71z" />
    <glyph glyph-name="Ucircumflex" unicode="&#xdb;" horiz-adv-x="748" 
d="M723 691v-84q-46 0 -62.5 -10t-16.5 -33v-333q0 -243 -255 -243q-133 0 -210.5 56t-77.5 181v342q0 27 -11.5 33.5t-64.5 6.5v84h321v-84q-56 0 -70.5 -6.5t-14.5 -33.5v-322q0 -80 40.5 -119t110.5 -39q77 0 110.5 38t33.5 121v318q0 24 -20.5 33.5t-74.5 9.5v84h262z
M543 758v-18h-46l-99 58l-99 -58h-46v18l116 119h58z" />
    <glyph glyph-name="Udieresis" unicode="&#xdc;" horiz-adv-x="748" 
d="M723 691v-84q-46 0 -62.5 -10t-16.5 -33v-333q0 -243 -255 -243q-133 0 -210.5 56t-77.5 181v342q0 27 -11.5 33.5t-64.5 6.5v84h321v-84q-56 0 -70.5 -6.5t-14.5 -33.5v-322q0 -80 40.5 -119t110.5 -39q77 0 110.5 38t33.5 121v318q0 24 -20.5 33.5t-74.5 9.5v84h262z
M562 838q0 -27 -21 -47.5t-47 -20.5q-28 0 -49 20.5t-21 47.5q0 28 21 49t49 21q26 0 47 -21.5t21 -48.5zM372 838q0 -27 -20 -47.5t-49 -20.5q-27 0 -48 20.5t-21 47.5q0 28 21 49t48 21q29 0 49 -21t20 -49z" />
    <glyph glyph-name="Yacute" unicode="&#xdd;" horiz-adv-x="684" 
d="M664 609l-2 -2q-60 0 -103 -79l-128 -228v-129q0 -58 17 -72t74 -14v-85h-333v85q57 0 70 13t13 73v129l-134 218q-28 43 -39 56.5t-29.5 23t-49.5 9.5v84h340v-84q-57 0 -68.5 -13.5t12.5 -54.5l84 -150l77 149q18 27 4.5 47.5t-56.5 21.5v84h251v-82zM319 740v18
l86 119h124v-20l-139 -117h-71z" />
    <glyph glyph-name="Thorn" unicode="&#xde;" horiz-adv-x="613" 
d="M598 355q0 -57 -22.5 -100t-60 -67t-80.5 -36t-90 -12h-67v-7q0 -32 16 -40t70 -8v-85h-332v85q53 0 69.5 8t16.5 40v424q0 31 -19 40t-67 9v85h332v-85q-52 0 -69 -7.5t-17 -41.5v-9h81q45 0 84.5 -9t76 -30t57.5 -60.5t21 -93.5zM325 464h-47v-240h51q53 0 78 29.5
t25 94.5q0 61 -26.5 88.5t-80.5 27.5z" />
    <glyph glyph-name="germandbls" unicode="&#xdf;" horiz-adv-x="581" 
d="M517 594q0 -33 -17 -59.5t-37 -40.5t-37 -29.5t-17 -28.5q0 -10 15.5 -21t37.5 -26.5t44 -36t37.5 -57.5t15.5 -83q0 -90 -58 -154t-142 -65q-52 0 -87 13l-15 130h56q14 -55 46 -55q17 0 30.5 30t13.5 77q0 38 -14.5 67.5t-35.5 46.5t-41.5 31.5t-35 31t-14.5 36.5
q0 21 17 40.5t37 34.5t37 44.5t17 66.5q0 33 -18.5 52t-45.5 19q-38 0 -57.5 -34t-19.5 -87v-537h-197v75q46 0 46 34v421q0 92 62.5 156t163.5 64q96 0 154.5 -47t58.5 -109z" />
    <glyph glyph-name="agrave" unicode="&#xe0;" horiz-adv-x="492" 
d="M424 372v-268q0 -18 13.5 -23.5t44.5 -5.5v-45q-44 -42 -95 -42q-33 0 -50 14t-30 43h-8q-26 -27 -63 -42t-74 -15q-56 0 -95.5 33.5t-39.5 90.5q0 65 35 100t108 51l117 26v85q0 24 -16.5 37t-44.5 13q-38 0 -57 -15q26 -29 26 -61q0 -25 -20 -40t-49 -15
q-32 0 -53.5 20.5t-21.5 56.5q0 60 54.5 97.5t152.5 37.5q81 0 123.5 -35.5t42.5 -97.5zM287 110v114l-55 -15q-62 -17 -62 -73q0 -27 14 -38t44 -11q32 0 59 23zM320 576v-18h-71l-139 152v20h124z" />
    <glyph glyph-name="aacute" unicode="&#xe1;" horiz-adv-x="492" 
d="M424 372v-268q0 -18 13.5 -23.5t44.5 -5.5v-45q-44 -42 -95 -42q-33 0 -50 14t-30 43h-8q-26 -27 -63 -42t-74 -15q-56 0 -95.5 33.5t-39.5 90.5q0 65 35 100t108 51l117 26v85q0 24 -16.5 37t-44.5 13q-38 0 -57 -15q26 -29 26 -61q0 -25 -20 -40t-49 -15
q-32 0 -53.5 20.5t-21.5 56.5q0 60 54.5 97.5t152.5 37.5q81 0 123.5 -35.5t42.5 -97.5zM287 110v114l-55 -15q-62 -17 -62 -73q0 -27 14 -38t44 -11q32 0 59 23zM170 558v18l86 154h124v-20l-139 -152h-71z" />
    <glyph glyph-name="acircumflex" unicode="&#xe2;" horiz-adv-x="492" 
d="M424 372v-268q0 -18 13.5 -23.5t44.5 -5.5v-45q-44 -42 -95 -42q-33 0 -50 14t-30 43h-8q-26 -27 -63 -42t-74 -15q-56 0 -95.5 33.5t-39.5 90.5q0 65 35 100t108 51l117 26v85q0 24 -16.5 37t-44.5 13q-38 0 -57 -15q26 -29 26 -61q0 -25 -20 -40t-49 -15
q-32 0 -53.5 20.5t-21.5 56.5q0 60 54.5 97.5t152.5 37.5q81 0 123.5 -35.5t42.5 -97.5zM287 110v114l-55 -15q-62 -17 -62 -73q0 -27 14 -38t44 -11q32 0 59 23zM390 576v-18h-41l-104 78l-104 -78h-41v18l116 154h58z" />
    <glyph glyph-name="atilde" unicode="&#xe3;" horiz-adv-x="492" 
d="M424 372v-268q0 -18 13.5 -23.5t44.5 -5.5v-45q-44 -42 -95 -42q-33 0 -50 14t-30 43h-8q-26 -27 -63 -42t-74 -15q-56 0 -95.5 33.5t-39.5 90.5q0 65 35 100t108 51l117 26v85q0 24 -16.5 37t-44.5 13q-38 0 -57 -15q26 -29 26 -61q0 -25 -20 -40t-49 -15
q-32 0 -53.5 20.5t-21.5 56.5q0 60 54.5 97.5t152.5 37.5q81 0 123.5 -35.5t42.5 -97.5zM287 110v114l-55 -15q-62 -17 -62 -73q0 -27 14 -38t44 -11q32 0 59 23zM373 711l36 -10q-14 -52 -43 -93.5t-55 -41.5q-16 0 -70.5 27.5t-71.5 27.5q-14 0 -24.5 -14.5t-23.5 -43.5
l-39 12q11 44 41 88.5t48 44.5q21 0 72.5 -28t71.5 -28q15 0 33 19.5t25 39.5z" />
    <glyph glyph-name="adieresis" unicode="&#xe4;" horiz-adv-x="492" 
d="M424 372v-268q0 -18 13.5 -23.5t44.5 -5.5v-45q-44 -42 -95 -42q-33 0 -50 14t-30 43h-8q-26 -27 -63 -42t-74 -15q-56 0 -95.5 33.5t-39.5 90.5q0 65 35 100t108 51l117 26v85q0 24 -16.5 37t-44.5 13q-38 0 -57 -15q26 -29 26 -61q0 -25 -20 -40t-49 -15
q-32 0 -53.5 20.5t-21.5 56.5q0 60 54.5 97.5t152.5 37.5q81 0 123.5 -35.5t42.5 -97.5zM287 110v114l-55 -15q-62 -17 -62 -73q0 -27 14 -38t44 -11q32 0 59 23zM409 636q0 -27 -21 -47.5t-47 -20.5q-28 0 -49 20.5t-21 47.5q0 28 21 49t49 21q26 0 47 -21.5t21 -48.5z
M219 636q0 -27 -20 -47.5t-49 -20.5q-27 0 -48 20.5t-21 47.5q0 28 21 49t48 21q29 0 49 -21t20 -49z" />
    <glyph glyph-name="aring" unicode="&#xe5;" horiz-adv-x="492" 
d="M424 372v-268q0 -18 13.5 -23.5t44.5 -5.5v-45q-44 -42 -95 -42q-33 0 -50 14t-30 43h-8q-26 -27 -63 -42t-74 -15q-56 0 -95.5 33.5t-39.5 90.5q0 65 35 100t108 51l117 26v85q0 24 -16.5 37t-44.5 13q-38 0 -57 -15q26 -29 26 -61q0 -25 -20 -40t-49 -15
q-32 0 -53.5 20.5t-21.5 56.5q0 60 54.5 97.5t152.5 37.5q81 0 123.5 -35.5t42.5 -97.5zM287 110v114l-55 -15q-62 -17 -62 -73q0 -27 14 -38t44 -11q32 0 59 23zM141 656q0 43 30 73.5t73 30.5q44 0 74 -30t30 -74q0 -43 -30.5 -73t-73.5 -30t-73 30t-30 73zM197 656
q0 -21 12.5 -35.5t33.5 -14.5q22 0 35.5 14.5t13.5 35.5q0 22 -13.5 37t-35.5 15q-21 0 -33.5 -15t-12.5 -37z" />
    <glyph glyph-name="ae" unicode="&#xe6;" horiz-adv-x="741" 
d="M649 165h64q-7 -85 -60.5 -129.5t-134.5 -44.5q-105 0 -166 70v-1h-23q-30 -33 -75.5 -52.5t-91.5 -19.5q-56 0 -95.5 33.5t-39.5 90.5q0 65 34.5 99.5t108.5 50.5l117 26v91q0 24 -16.5 37t-44.5 13q-34 0 -50 -16q24 -17 24 -46q0 -27 -21 -44.5t-49 -17.5
q-35 0 -54.5 18.5t-19.5 49.5q0 57 54.5 94.5t147.5 37.5q83 0 117 -56q62 56 147 56q86 0 139 -59t53 -157v-53h-269v-16q0 -60 29 -94.5t80 -34.5q80 0 95 74zM287 107v117l-55 -15q-62 -17 -62 -73q0 -52 58 -52q32 0 59 23zM575 306v11q0 106 -55 106q-33 0 -50 -27.5
t-21 -89.5h126z" />
    <glyph glyph-name="ccedilla" unicode="&#xe7;" horiz-adv-x="472" 
d="M213 -234l-8 45q82 14 82 47q0 27 -66 27q-16 0 -30 -2l-5 7l45 101q-88 8 -144.5 71t-56.5 173q0 117 69.5 193.5t170.5 76.5q71 0 122 -45.5t51 -113.5q0 -46 -23 -72t-56 -26q-29 0 -50.5 19t-21.5 48q-1 44 49 66q-20 37 -64 37q-43 0 -69.5 -42t-26.5 -127
q0 -93 29.5 -128.5t80.5 -35.5q38 0 64 22.5t31 55.5h64q-10 -71 -54 -116.5t-110 -54.5l-18 -42q98 0 98 -62q0 -45 -45 -79t-108 -43z" />
    <glyph glyph-name="egrave" unicode="&#xe8;" horiz-adv-x="475" 
d="M379 164h69q-12 -83 -64.5 -128.5t-131.5 -45.5q-98 0 -160 65.5t-62 188.5q0 115 63.5 188t162.5 73q86 0 138.5 -61.5t52.5 -164.5v-48h-266v-11q0 -63 28 -99t79 -36q78 0 91 79zM307 302v15q0 96 -53 96q-32 0 -48 -27t-21 -84h122zM325 576v-18h-71l-139 152v20h124
z" />
    <glyph glyph-name="eacute" unicode="&#xe9;" horiz-adv-x="475" 
d="M379 164h69q-12 -83 -64.5 -128.5t-131.5 -45.5q-98 0 -160 65.5t-62 188.5q0 115 63.5 188t162.5 73q86 0 138.5 -61.5t52.5 -164.5v-48h-266v-11q0 -63 28 -99t79 -36q78 0 91 79zM307 302v15q0 96 -53 96q-32 0 -48 -27t-21 -84h122zM175 558v18l86 154h124v-20
l-139 -152h-71z" />
    <glyph glyph-name="ecircumflex" unicode="&#xea;" horiz-adv-x="475" 
d="M379 164h69q-12 -83 -64.5 -128.5t-131.5 -45.5q-98 0 -160 65.5t-62 188.5q0 115 63.5 188t162.5 73q86 0 138.5 -61.5t52.5 -164.5v-48h-266v-11q0 -63 28 -99t79 -36q78 0 91 79zM307 302v15q0 96 -53 96q-32 0 -48 -27t-21 -84h122zM395 576v-18h-41l-104 78
l-104 -78h-41v18l116 154h58z" />
    <glyph glyph-name="edieresis" unicode="&#xeb;" horiz-adv-x="475" 
d="M379 164h69q-12 -83 -64.5 -128.5t-131.5 -45.5q-98 0 -160 65.5t-62 188.5q0 115 63.5 188t162.5 73q86 0 138.5 -61.5t52.5 -164.5v-48h-266v-11q0 -63 28 -99t79 -36q78 0 91 79zM307 302v15q0 96 -53 96q-32 0 -48 -27t-21 -84h122zM414 636q0 -27 -21 -47.5
t-47 -20.5q-28 0 -49 20.5t-21 47.5q0 28 21 49t49 21q26 0 47 -21.5t21 -48.5zM224 636q0 -27 -20 -47.5t-49 -20.5q-27 0 -48 20.5t-21 47.5q0 28 21 49t48 21q29 0 49 -21t20 -49z" />
    <glyph glyph-name="igrave" unicode="&#xec;" horiz-adv-x="296" 
d="M223 99q0 -24 48 -24v-75h-246v75q32 0 44 5.5t12 19.5v261q0 32 -12.5 41t-48.5 9v75l116 9h87v-396zM220 576v-18h-71l-139 152v20h124z" />
    <glyph glyph-name="iacute" unicode="&#xed;" horiz-adv-x="296" 
d="M223 99q0 -24 48 -24v-75h-246v75q32 0 44 5.5t12 19.5v261q0 32 -12.5 41t-48.5 9v75l116 9h87v-396zM70 558v18l86 154h124v-20l-139 -152h-71z" />
    <glyph glyph-name="icircumflex" unicode="&#xee;" horiz-adv-x="296" 
d="M223 99q0 -24 48 -24v-75h-246v75q32 0 44 5.5t12 19.5v261q0 32 -12.5 41t-48.5 9v75l116 9h87v-396zM290 576v-18h-41l-104 78l-104 -78h-41v18l116 154h58z" />
    <glyph glyph-name="idieresis" unicode="&#xef;" horiz-adv-x="296" 
d="M223 99q0 -24 48 -24v-75h-246v75q32 0 44 5.5t12 19.5v261q0 32 -12.5 41t-48.5 9v75l116 9h87v-396zM309 636q0 -27 -21 -47.5t-47 -20.5q-28 0 -49 20.5t-21 47.5q0 28 21 49t49 21q26 0 47 -21.5t21 -48.5zM119 636q0 -27 -20 -47.5t-49 -20.5q-27 0 -48 20.5
t-21 47.5q0 28 21 49t48 21q29 0 49 -21t20 -49z" />
    <glyph glyph-name="eth" unicode="&#xf0;" horiz-adv-x="519" 
d="M141 572l70 47q-45 37 -102 66l31 55q79 -32 142 -74l103 69l36 -54l-86 -57q156 -137 156 -380q0 -126 -64.5 -191t-166.5 -65q-101 0 -166.5 68t-65.5 188q0 118 66.5 189.5t165.5 71.5q22 0 45 -13l4 12q-20 36 -50 69l-82 -54zM179 245q0 -51 6.5 -85t19 -49.5
t25 -21t30.5 -5.5t29.5 4t24.5 19t19.5 49.5t6.5 88.5q0 55 -6.5 90t-19.5 50t-24.5 19.5t-29.5 4.5q-25 0 -40.5 -9.5t-28 -47.5t-12.5 -107z" />
    <glyph glyph-name="ntilde" unicode="&#xf1;" horiz-adv-x="555" 
d="M196 438h14q33 33 63 50t73 17q57 0 96.5 -41t39.5 -131v-236q0 -22 46 -22v-75h-226v75q38 0 38 27v237q0 27 -14.5 40t-32.5 13q-28 0 -73 -26v-265q0 -26 38 -26v-75h-231v75q50 0 50 27v252q0 28 -12.5 40t-42.5 12v80l134 9h31zM405 711l36 -10q-14 -52 -43 -93.5
t-55 -41.5q-17 0 -71 27.5t-71 27.5q-14 0 -24.5 -14.5t-23.5 -43.5l-39 12q11 44 41 88.5t48 44.5q21 0 72.5 -28t71.5 -28q15 0 33 19.5t25 39.5z" />
    <glyph glyph-name="ograve" unicode="&#xf2;" horiz-adv-x="519" 
d="M30 244q0 118 65.5 189.5t164.5 71.5q98 0 163.5 -73t65.5 -188q0 -126 -63.5 -190t-165.5 -64q-101 0 -165.5 67t-64.5 187zM181 245q0 -96 20.5 -127.5t58.5 -31.5q17 0 29 5t24 20t18.5 48.5t6.5 85.5q0 101 -20.5 132.5t-57.5 31.5q-24 0 -39.5 -10t-27.5 -48
t-12 -106zM334 576v-18h-71l-139 152v20h124z" />
    <glyph glyph-name="oacute" unicode="&#xf3;" horiz-adv-x="519" 
d="M30 244q0 118 65.5 189.5t164.5 71.5q98 0 163.5 -73t65.5 -188q0 -126 -63.5 -190t-165.5 -64q-101 0 -165.5 67t-64.5 187zM181 245q0 -96 20.5 -127.5t58.5 -31.5q17 0 29 5t24 20t18.5 48.5t6.5 85.5q0 101 -20.5 132.5t-57.5 31.5q-24 0 -39.5 -10t-27.5 -48
t-12 -106zM184 558v18l86 154h124v-20l-139 -152h-71z" />
    <glyph glyph-name="ocircumflex" unicode="&#xf4;" horiz-adv-x="519" 
d="M30 244q0 118 65.5 189.5t164.5 71.5q98 0 163.5 -73t65.5 -188q0 -126 -63.5 -190t-165.5 -64q-101 0 -165.5 67t-64.5 187zM181 245q0 -96 20.5 -127.5t58.5 -31.5q17 0 29 5t24 20t18.5 48.5t6.5 85.5q0 101 -20.5 132.5t-57.5 31.5q-24 0 -39.5 -10t-27.5 -48
t-12 -106zM404 576v-18h-41l-104 78l-104 -78h-41v18l116 154h58z" />
    <glyph glyph-name="otilde" unicode="&#xf5;" horiz-adv-x="519" 
d="M30 244q0 118 65.5 189.5t164.5 71.5q98 0 163.5 -73t65.5 -188q0 -126 -63.5 -190t-165.5 -64q-101 0 -165.5 67t-64.5 187zM181 245q0 -96 20.5 -127.5t58.5 -31.5q17 0 29 5t24 20t18.5 48.5t6.5 85.5q0 101 -20.5 132.5t-57.5 31.5q-24 0 -39.5 -10t-27.5 -48
t-12 -106zM387 711l36 -10q-14 -52 -43 -93.5t-55 -41.5q-17 0 -71.5 27.5t-70.5 27.5q-14 0 -24.5 -14.5t-23.5 -43.5l-39 12q11 44 41 88.5t48 44.5q21 0 72.5 -28t71.5 -28q15 0 33 19.5t25 39.5z" />
    <glyph glyph-name="odieresis" unicode="&#xf6;" horiz-adv-x="519" 
d="M30 244q0 118 65.5 189.5t164.5 71.5q98 0 163.5 -73t65.5 -188q0 -126 -63.5 -190t-165.5 -64q-101 0 -165.5 67t-64.5 187zM181 245q0 -96 20.5 -127.5t58.5 -31.5q17 0 29 5t24 20t18.5 48.5t6.5 85.5q0 101 -20.5 132.5t-57.5 31.5q-24 0 -39.5 -10t-27.5 -48
t-12 -106zM423 636q0 -27 -21 -47.5t-47 -20.5q-28 0 -49 20.5t-21 47.5q0 28 21 49t49 21q26 0 47 -21.5t21 -48.5zM233 636q0 -27 -20 -47.5t-49 -20.5q-27 0 -48 20.5t-21 47.5q0 28 21 49t48 21q29 0 49 -21t20 -49z" />
    <glyph glyph-name="divide" unicode="&#xf7;" horiz-adv-x="620" 
d="M573 221h-526v86h526v-86zM245 429q0 27 18.5 45.5t45.5 18.5q26 0 45 -19t19 -45q0 -27 -18.5 -45.5t-45.5 -18.5q-28 0 -46 18t-18 46zM245 99q0 27 18.5 45.5t45.5 18.5q26 0 45 -19t19 -45q0 -27 -18.5 -45t-45.5 -18q-28 0 -46 17.5t-18 45.5z" />
    <glyph glyph-name="oslash" unicode="&#xf8;" horiz-adv-x="519" 
d="M30 244q0 118 65.5 189.5t164.5 71.5q71 0 129 -42l35 49h71l-64 -90q58 -72 58 -178q0 -126 -63.5 -190t-165.5 -64q-62 0 -115 28l-38 -54h-71l63 89q-69 69 -69 191zM181 245q0 -46 4 -71l136 193q-17 42 -61 42q-24 0 -39.5 -10t-27.5 -48t-12 -106zM338 245
q0 30 -1 43l-129 -181q17 -21 52 -21q17 0 29 5t24 20t18.5 48.5t6.5 85.5z" />
    <glyph glyph-name="ugrave" unicode="&#xf9;" horiz-adv-x="555" 
d="M361 56h-14q-61 -66 -128 -66q-62 0 -106.5 40t-44.5 127v232q0 17 -15 17h-36v84l194 10v-334q0 -64 56 -64q40 0 70 30v258q0 8 -1.5 11.5t-4 4t-9.5 0.5h-46v84l203 10v-371q0 -34 9.5 -43t44.5 -9v-70l-137 -12h-26zM347 576v-18h-71l-139 152v20h124z" />
    <glyph glyph-name="uacute" unicode="&#xfa;" horiz-adv-x="555" 
d="M361 56h-14q-61 -66 -128 -66q-62 0 -106.5 40t-44.5 127v232q0 17 -15 17h-36v84l194 10v-334q0 -64 56 -64q40 0 70 30v258q0 8 -1.5 11.5t-4 4t-9.5 0.5h-46v84l203 10v-371q0 -34 9.5 -43t44.5 -9v-70l-137 -12h-26zM197 558v18l86 154h124v-20l-139 -152h-71z" />
    <glyph glyph-name="ucircumflex" unicode="&#xfb;" horiz-adv-x="555" 
d="M361 56h-14q-61 -66 -128 -66q-62 0 -106.5 40t-44.5 127v232q0 17 -15 17h-36v84l194 10v-334q0 -64 56 -64q40 0 70 30v258q0 8 -1.5 11.5t-4 4t-9.5 0.5h-46v84l203 10v-371q0 -34 9.5 -43t44.5 -9v-70l-137 -12h-26zM417 576v-18h-41l-104 78l-104 -78h-41v18
l116 154h58z" />
    <glyph glyph-name="udieresis" unicode="&#xfc;" horiz-adv-x="555" 
d="M361 56h-14q-61 -66 -128 -66q-62 0 -106.5 40t-44.5 127v232q0 17 -15 17h-36v84l194 10v-334q0 -64 56 -64q40 0 70 30v258q0 8 -1.5 11.5t-4 4t-9.5 0.5h-46v84l203 10v-371q0 -34 9.5 -43t44.5 -9v-70l-137 -12h-26zM436 636q0 -27 -21 -47.5t-47 -20.5
q-28 0 -49 20.5t-21 47.5q0 28 21 49t49 21q26 0 47 -21.5t21 -48.5zM246 636q0 -27 -20 -47.5t-49 -20.5q-27 0 -48 20.5t-21 47.5q0 28 21 49t48 21q29 0 49 -21t20 -49z" />
    <glyph glyph-name="yacute" unicode="&#xfd;" horiz-adv-x="524" 
d="M299 165h6l57 172q14 49 4 66t-49 17v75h205v-75q-28 0 -44 -20.5t-33 -65.5l-167 -449q-35 -110 -137 -110q-58 0 -87 29.5t-29 68.5q0 37 21 59t50 22q31 0 50 -19t19 -50l-41 -26q6 -15 27 -15q32 0 47 45l41 108l-155 348q-10 22 -15 32t-14.5 22t-22 16.5t-30.5 4.5
v75h279v-75q-76 0 -49 -75zM226 558v18l86 154h124v-20l-139 -152h-71z" />
    <glyph glyph-name="thorn" unicode="&#xfe;" horiz-adv-x="525" 
d="M60 -107v692q0 38 -19 52t-70 14v79l202 10h34l-5 -207v-92h7q15 29 45.5 46t62.5 18q83 2 130.5 -60.5t47.5 -199.5q0 -123 -58 -188.5t-129 -65.5q-74 0 -99 38h-7v-144q0 -25 27 -25h34v-75h-261v75q58 0 58 33zM271 400q-24 0 -38 -9.5t-31 -34.5v-229q18 -37 71 -37
q72 0 72 155q0 84 -16 119.5t-58 35.5z" />
    <glyph glyph-name="ydieresis" unicode="&#xff;" horiz-adv-x="524" 
d="M299 165h6l57 172q14 49 4 66t-49 17v75h205v-75q-28 0 -44 -20.5t-33 -65.5l-167 -449q-35 -110 -137 -110q-58 0 -87 29.5t-29 68.5q0 37 21 59t50 22q31 0 50 -19t19 -50l-41 -26q6 -15 27 -15q32 0 47 45l41 108l-155 348q-10 22 -15 32t-14.5 22t-22 16.5t-30.5 4.5
v75h279v-75q-76 0 -49 -75zM465 636q0 -27 -21 -47.5t-47 -20.5q-28 0 -49 20.5t-21 47.5q0 28 21 49t49 21q26 0 47 -21.5t21 -48.5zM275 636q0 -27 -20 -47.5t-49 -20.5q-27 0 -48 20.5t-21 47.5q0 28 21 49t48 21q29 0 49 -21t20 -49z" />
    <glyph glyph-name="Amacron" unicode="&#x100;" horiz-adv-x="720" 
d="M459 124l-25 63h-216l-23 -61q-8 -23 9.5 -32t70.5 -9v-85h-262v85q37 0 57.5 13.5t34.5 47.5l222 550h61l233 -557q16 -37 29.5 -45.5t56.5 -8.5v-85h-318v85h27q37 0 44.5 6.5t-1.5 32.5zM320 461l-72 -192h154l-76 192h-6zM490 781h-274v77h274v-77z" />
    <glyph glyph-name="amacron" unicode="&#x101;" horiz-adv-x="492" 
d="M424 372v-268q0 -18 13.5 -23.5t44.5 -5.5v-45q-44 -42 -95 -42q-33 0 -50 14t-30 43h-8q-26 -27 -63 -42t-74 -15q-56 0 -95.5 33.5t-39.5 90.5q0 65 35 100t108 51l117 26v85q0 24 -16.5 37t-44.5 13q-38 0 -57 -15q26 -29 26 -61q0 -25 -20 -40t-49 -15
q-32 0 -53.5 20.5t-21.5 56.5q0 60 54.5 97.5t152.5 37.5q81 0 123.5 -35.5t42.5 -97.5zM287 110v114l-55 -15q-62 -17 -62 -73q0 -27 14 -38t44 -11q32 0 59 23zM382 579h-274v77h274v-77z" />
    <glyph glyph-name="Abreve" unicode="&#x102;" horiz-adv-x="720" 
d="M459 124l-25 63h-216l-23 -61q-8 -23 9.5 -32t70.5 -9v-85h-262v85q37 0 57.5 13.5t34.5 47.5l222 550h61l233 -557q16 -37 29.5 -45.5t56.5 -8.5v-85h-318v85h27q37 0 44.5 6.5t-1.5 32.5zM320 461l-72 -192h154l-76 192h-6zM351 740q-59 0 -99 34.5t-40 102.5h52
q0 -24 24.5 -41t63.5 -17q37 0 62.5 16.5t25.5 41.5h52q0 -67 -41 -102t-100 -35z" />
    <glyph glyph-name="abreve" unicode="&#x103;" horiz-adv-x="492" 
d="M424 372v-268q0 -18 13.5 -23.5t44.5 -5.5v-45q-44 -42 -95 -42q-33 0 -50 14t-30 43h-8q-26 -27 -63 -42t-74 -15q-56 0 -95.5 33.5t-39.5 90.5q0 65 35 100t108 51l117 26v85q0 24 -16.5 37t-44.5 13q-38 0 -57 -15q26 -29 26 -61q0 -25 -20 -40t-49 -15
q-32 0 -53.5 20.5t-21.5 56.5q0 60 54.5 97.5t152.5 37.5q81 0 123.5 -35.5t42.5 -97.5zM287 110v114l-55 -15q-62 -17 -62 -73q0 -27 14 -38t44 -11q32 0 59 23zM243 558q-59 0 -99 44.5t-40 127.5h52q0 -35 24.5 -61.5t63.5 -26.5q37 0 62.5 25t25.5 63h52q0 -82 -41 -127
t-100 -45z" />
    <glyph glyph-name="Aogonek" unicode="&#x104;" horiz-adv-x="720" 
d="M459 124l-25 63h-216l-23 -61q-8 -23 9.5 -32t70.5 -9v-85h-262v85q37 0 57.5 13.5t34.5 47.5l222 550h61l233 -557q16 -37 29.5 -45.5t56.5 -8.5v-85h-270q-50 -41 -50 -102q0 -52 45 -52q7 0 21 2v-42q-22 -5 -39 -5q-44 0 -78 23.5t-34 64.5q0 68 87 118v78h27
q37 0 44.5 6.5t-1.5 32.5zM320 461l-72 -192h154l-76 192h-6z" />
    <glyph glyph-name="aogonek" unicode="&#x105;" horiz-adv-x="492" 
d="M424 372v-268q0 -18 13.5 -23.5t44.5 -5.5v-45q-27 -25 -50 -33q-46 -40 -46 -99q0 -52 45 -52q7 0 21 2v-42q-22 -5 -39 -5q-44 0 -78 23.5t-34 64.5q0 56 61 102q-36 9 -55 54h-8q-26 -27 -63 -42t-74 -15q-56 0 -95.5 33.5t-39.5 90.5q0 65 35 100t108 51l117 26v85
q0 24 -16.5 37t-44.5 13q-38 0 -57 -15q26 -29 26 -61q0 -25 -20 -40t-49 -15q-32 0 -53.5 20.5t-21.5 56.5q0 60 54.5 97.5t152.5 37.5q81 0 123.5 -35.5t42.5 -97.5zM287 110v114l-55 -15q-62 -17 -62 -73q0 -27 14 -38t44 -11q32 0 59 23z" />
    <glyph glyph-name="Cacute" unicode="&#x106;" horiz-adv-x="684" 
d="M539 651l5 1l27 38h46l4 -265h-62q-14 75 -54.5 128t-105.5 53q-90 0 -136 -71.5t-46 -191.5q0 -124 50 -191.5t143 -67.5q59 0 98.5 38t49.5 113h75v-3q-12 -117 -83.5 -180.5t-173.5 -63.5q-152 0 -243 96.5t-91 260.5q0 152 96 254t244 102q48 0 93.5 -15t63.5 -35z
M308 740v18l86 119h124v-20l-139 -117h-71z" />
    <glyph glyph-name="cacute" unicode="&#x107;" horiz-adv-x="472" 
d="M386 163h64q-10 -79 -63.5 -126t-131.5 -47q-96 0 -160.5 64t-64.5 181t69.5 193.5t170.5 76.5q71 0 122 -45.5t51 -113.5q0 -46 -23 -72t-56 -26q-29 0 -50.5 19t-21.5 48q-1 44 49 66q-20 37 -64 37q-43 0 -69.5 -42t-26.5 -127q0 -93 29.5 -128.5t80.5 -35.5
q38 0 64 22.5t31 55.5zM187 558v18l86 154h124v-20l-139 -152h-71z" />
    <glyph glyph-name="Ccircumflex" unicode="&#x108;" horiz-adv-x="684" 
d="M539 651l5 1l27 38h46l4 -265h-62q-14 75 -54.5 128t-105.5 53q-90 0 -136 -71.5t-46 -191.5q0 -124 50 -191.5t143 -67.5q59 0 98.5 38t49.5 113h75v-3q-12 -117 -83.5 -180.5t-173.5 -63.5q-152 0 -243 96.5t-91 260.5q0 152 96 254t244 102q48 0 93.5 -15t63.5 -35z
M523 758v-18h-46l-99 58l-99 -58h-46v18l116 119h58z" />
    <glyph glyph-name="ccircumflex" unicode="&#x109;" horiz-adv-x="472" 
d="M386 163h64q-10 -79 -63.5 -126t-131.5 -47q-96 0 -160.5 64t-64.5 181t69.5 193.5t170.5 76.5q71 0 122 -45.5t51 -113.5q0 -46 -23 -72t-56 -26q-29 0 -50.5 19t-21.5 48q-1 44 49 66q-20 37 -64 37q-43 0 -69.5 -42t-26.5 -127q0 -93 29.5 -128.5t80.5 -35.5
q38 0 64 22.5t31 55.5zM407 576v-18h-41l-104 78l-104 -78h-41v18l116 154h58z" />
    <glyph glyph-name="Cdotaccent" unicode="&#x10a;" horiz-adv-x="684" 
d="M539 651l5 1l27 38h46l4 -265h-62q-14 75 -54.5 128t-105.5 53q-90 0 -136 -71.5t-46 -191.5q0 -124 50 -191.5t143 -67.5q59 0 98.5 38t49.5 113h75v-3q-12 -117 -83.5 -180.5t-173.5 -63.5q-152 0 -243 96.5t-91 260.5q0 152 96 254t244 102q48 0 93.5 -15t63.5 -35z
M296 834q0 34 24.5 58.5t57.5 24.5q34 0 58.5 -24.5t24.5 -58.5q0 -33 -24.5 -57.5t-58.5 -24.5q-33 0 -57.5 24.5t-24.5 57.5z" />
    <glyph glyph-name="cdotaccent" unicode="&#x10b;" horiz-adv-x="472" 
d="M386 163h64q-10 -79 -63.5 -126t-131.5 -47q-96 0 -160.5 64t-64.5 181t69.5 193.5t170.5 76.5q71 0 122 -45.5t51 -113.5q0 -46 -23 -72t-56 -26q-29 0 -50.5 19t-21.5 48q-1 44 49 66q-20 37 -64 37q-43 0 -69.5 -42t-26.5 -127q0 -93 29.5 -128.5t80.5 -35.5
q38 0 64 22.5t31 55.5zM174 657q0 36 26 62.5t61 26.5q36 0 62.5 -26.5t26.5 -62.5q0 -35 -26.5 -61t-62.5 -26q-35 0 -61 26t-26 61z" />
    <glyph glyph-name="Ccaron" unicode="&#x10c;" horiz-adv-x="684" 
d="M539 651l5 1l27 38h46l4 -265h-62q-14 75 -54.5 128t-105.5 53q-90 0 -136 -71.5t-46 -191.5q0 -124 50 -191.5t143 -67.5q59 0 98.5 38t49.5 113h75v-3q-12 -117 -83.5 -180.5t-173.5 -63.5q-152 0 -243 96.5t-91 260.5q0 152 96 254t244 102q48 0 93.5 -15t63.5 -35z
M523 877v-18l-116 -119h-58l-116 119v18h46l99 -58l99 58h46z" />
    <glyph glyph-name="ccaron" unicode="&#x10d;" horiz-adv-x="472" 
d="M386 163h64q-10 -79 -63.5 -126t-131.5 -47q-96 0 -160.5 64t-64.5 181t69.5 193.5t170.5 76.5q71 0 122 -45.5t51 -113.5q0 -46 -23 -72t-56 -26q-29 0 -50.5 19t-21.5 48q-1 44 49 66q-20 37 -64 37q-43 0 -69.5 -42t-26.5 -127q0 -93 29.5 -128.5t80.5 -35.5
q38 0 64 22.5t31 55.5zM407 730v-18l-116 -154h-58l-116 154v18h41l104 -78l104 78h41z" />
    <glyph glyph-name="Dcaron" unicode="&#x10e;" horiz-adv-x="761" 
d="M719 345q0 -65 -22 -124.5t-65 -110t-117.5 -80.5t-170.5 -30h-312v85q58 2 72 6.5t14 27.5v457q0 20 -15 25.5t-71 5.5v84h310q83 0 149.5 -22t108 -57t69.5 -82t39 -92.5t11 -92.5zM543 344q0 116 -56 189.5t-173 73.5h-37v-522h65q42 0 76.5 15t57.5 39.5t38.5 58.5
t22 70.5t6.5 75.5zM468 877v-18l-116 -119h-58l-116 119v18h46l99 -58l99 58h46z" />
    <glyph glyph-name="dcaron" unicode="&#x10f;" horiz-adv-x="536" 
d="M314 468h8v122q0 37 -16.5 51.5t-59.5 14.5v74l172 10h51l-5 -214v-402q0 -42 60 -42v-74l-152 -13h-23l-18 47h-8q-41 -52 -110 -52q-83 0 -133 70.5t-50 177.5q0 121 59.5 194t135.5 73q52 0 89 -37zM322 129v235q-19 36 -58 36q-83 0 -83 -159q0 -146 81 -146
q19 0 36.5 9.5t23.5 24.5zM531 523v8l21 209h104v-10l-59 -207h-66z" />
    <glyph glyph-name="Dcroat" unicode="&#x110;" horiz-adv-x="761" 
d="M49 380h69v196q0 20 -15 25.5t-71 5.5v84h310q83 0 149.5 -22t108 -57t69.5 -82t39 -92.5t11 -92.5q0 -65 -22 -124.5t-65 -110t-117.5 -80.5t-170.5 -30h-312v85q58 2 72 6.5t14 27.5v196h-69v65zM543 344q0 116 -56 189.5t-173 73.5h-37v-227h164v-65h-164v-230h65
q42 0 76.5 15t57.5 39.5t38.5 58.5t22 70.5t6.5 75.5z" />
    <glyph glyph-name="dcroat" unicode="&#x111;" horiz-adv-x="536" 
d="M198 589h124v1q0 37 -16.5 51.5t-59.5 14.5v74l172 10h51l-4 -151h60v-60h-61v-405q0 -42 60 -42v-74l-152 -13h-23l-18 47h-8q-41 -52 -110 -52q-83 0 -133 70.5t-50 177.5q0 121 59.5 194t135.5 73q52 0 89 -37h8v61h-124v60zM322 129v235q-19 36 -58 36
q-83 0 -83 -159q0 -146 81 -146q19 0 36.5 9.5t23.5 24.5z" />
    <glyph glyph-name="Emacron" unicode="&#x112;" horiz-adv-x="661" 
d="M630 257l-13 -257h-585v85q55 0 70.5 8.5t15.5 45.5v417q0 31 -18 41t-68 10v84h570l11 -231h-74q-13 85 -42.5 116t-94.5 31h-124v-233h51q70 0 70 124h70v-312h-70q0 70 -15.5 92.5t-60.5 22.5h-45v-216h148q64 0 93.5 43t39.5 129h71zM486 781h-274v77h274v-77z" />
    <glyph glyph-name="emacron" unicode="&#x113;" horiz-adv-x="475" 
d="M379 164h69q-12 -83 -64.5 -128.5t-131.5 -45.5q-98 0 -160 65.5t-62 188.5q0 115 63.5 188t162.5 73q86 0 138.5 -61.5t52.5 -164.5v-48h-266v-11q0 -63 28 -99t79 -36q78 0 91 79zM307 302v15q0 96 -53 96q-32 0 -48 -27t-21 -84h122zM387 579h-274v77h274v-77z" />
    <glyph glyph-name="Edotaccent" unicode="&#x116;" horiz-adv-x="661" 
d="M630 257l-13 -257h-585v85q55 0 70.5 8.5t15.5 45.5v417q0 31 -18 41t-68 10v84h570l11 -231h-74q-13 85 -42.5 116t-94.5 31h-124v-233h51q70 0 70 124h70v-312h-70q0 70 -15.5 92.5t-60.5 22.5h-45v-216h148q64 0 93.5 43t39.5 129h71zM267 834q0 34 24.5 58.5
t57.5 24.5q34 0 58.5 -24.5t24.5 -58.5q0 -33 -24.5 -57.5t-58.5 -24.5q-33 0 -57.5 24.5t-24.5 57.5z" />
    <glyph glyph-name="edotaccent" unicode="&#x117;" horiz-adv-x="475" 
d="M379 164h69q-12 -83 -64.5 -128.5t-131.5 -45.5q-98 0 -160 65.5t-62 188.5q0 115 63.5 188t162.5 73q86 0 138.5 -61.5t52.5 -164.5v-48h-266v-11q0 -63 28 -99t79 -36q78 0 91 79zM307 302v15q0 96 -53 96q-32 0 -48 -27t-21 -84h122zM162 657q0 36 26 62.5t61 26.5
q36 0 62.5 -26.5t26.5 -62.5q0 -35 -26.5 -61t-62.5 -26q-35 0 -61 26t-26 61z" />
    <glyph glyph-name="Eogonek" unicode="&#x118;" horiz-adv-x="661" 
d="M630 257l-13 -257h-14q-64 -45 -64 -113q0 -52 45 -52q7 0 21 2v-42q-22 -5 -39 -5q-44 0 -78 23.5t-34 64.5q0 69 93 122h-515v85q55 0 70.5 8.5t15.5 45.5v417q0 31 -18 41t-68 10v84h570l11 -231h-74q-13 85 -42.5 116t-94.5 31h-124v-233h51q70 0 70 124h70v-312h-70
q0 70 -15.5 92.5t-60.5 22.5h-45v-216h148q64 0 93.5 43t39.5 129h71z" />
    <glyph glyph-name="eogonek" unicode="&#x119;" horiz-adv-x="475" 
d="M379 164h69q-10 -73 -55 -119v-4q-75 -48 -75 -120q0 -52 45 -52q7 0 21 2v-42q-22 -5 -39 -5q-44 0 -78 23.5t-34 64.5q0 44 35 79q-5 -1 -16 -1q-98 0 -160 65.5t-62 188.5q0 115 63.5 188t162.5 73q86 0 138.5 -61.5t52.5 -164.5v-48h-266v-11q0 -63 28 -99t79 -36
q78 0 91 79zM307 302v15q0 96 -53 96q-32 0 -48 -27t-21 -84h122z" />
    <glyph glyph-name="Ecaron" unicode="&#x11a;" horiz-adv-x="661" 
d="M630 257l-13 -257h-585v85q55 0 70.5 8.5t15.5 45.5v417q0 31 -18 41t-68 10v84h570l11 -231h-74q-13 85 -42.5 116t-94.5 31h-124v-233h51q70 0 70 124h70v-312h-70q0 70 -15.5 92.5t-60.5 22.5h-45v-216h148q64 0 93.5 43t39.5 129h71zM494 877v-18l-116 -119h-58
l-116 119v18h46l99 -58l99 58h46z" />
    <glyph glyph-name="ecaron" unicode="&#x11b;" horiz-adv-x="475" 
d="M379 164h69q-12 -83 -64.5 -128.5t-131.5 -45.5q-98 0 -160 65.5t-62 188.5q0 115 63.5 188t162.5 73q86 0 138.5 -61.5t52.5 -164.5v-48h-266v-11q0 -63 28 -99t79 -36q78 0 91 79zM307 302v15q0 96 -53 96q-32 0 -48 -27t-21 -84h122zM395 730v-18l-116 -154h-58
l-116 154v18h41l104 -78l104 78h41z" />
    <glyph glyph-name="Gcircumflex" unicode="&#x11c;" horiz-adv-x="727" 
d="M645 197v-204h-52l-51 77q-28 -38 -75.5 -60t-93.5 -22q-62 0 -119.5 20.5t-105.5 61.5t-77 111.5t-29 160.5q0 162 101.5 260.5t241.5 98.5q95 0 152 -46h7l20 40h59l9 -261h-66q-14 66 -62 119t-110 53q-85 0 -131 -73t-46 -193q0 -122 47.5 -189.5t126.5 -67.5
q67 0 105 51v72q0 33 -14.5 42t-60.5 9v79h297v-79q-46 0 -59 -13.5t-14 -46.5zM523 758v-18h-46l-99 58l-99 -58h-46v18l116 119h58z" />
    <glyph glyph-name="gcircumflex" unicode="&#x11d;" horiz-adv-x="518" 
d="M363 471l81 46l59 -24v-88h-75l-7 -9q21 -26 21 -71q0 -81 -59.5 -125.5t-153.5 -44.5q-49 0 -49 -32q0 -16 10 -21.5t37 -7.5l146 -6q125 -5 125 -126q0 -78 -70.5 -132.5t-187.5 -54.5q-101 0 -160 34.5t-59 90.5q0 34 20.5 60.5t56.5 38.5v9q-53 28 -53 79q0 66 76 96
v7q-83 48 -83 145q0 77 58 123.5t138 46.5q77 0 129 -34zM300 327q0 95 -58 95q-61 0 -61 -95q0 -47 16.5 -72t44.5 -25q58 0 58 97zM377 -69q0 33 -41 34l-175 8q-27 -15 -27 -51q0 -33 30.5 -52t84.5 -19q57 0 92.5 23.5t35.5 56.5zM387 576v-18h-41l-104 78l-104 -78h-41
v18l116 154h58z" />
    <glyph glyph-name="Gbreve" unicode="&#x11e;" horiz-adv-x="727" 
d="M645 197v-204h-52l-51 77q-28 -38 -75.5 -60t-93.5 -22q-62 0 -119.5 20.5t-105.5 61.5t-77 111.5t-29 160.5q0 162 101.5 260.5t241.5 98.5q95 0 152 -46h7l20 40h59l9 -261h-66q-14 66 -62 119t-110 53q-85 0 -131 -73t-46 -193q0 -122 47.5 -189.5t126.5 -67.5
q67 0 105 51v72q0 33 -14.5 42t-60.5 9v79h297v-79q-46 0 -59 -13.5t-14 -46.5zM376 740q-59 0 -99 34.5t-40 102.5h52q0 -24 24.5 -41t63.5 -17q37 0 62.5 16.5t25.5 41.5h52q0 -67 -41 -102t-100 -35z" />
    <glyph glyph-name="gbreve" unicode="&#x11f;" horiz-adv-x="518" 
d="M363 471l81 46l59 -24v-88h-75l-7 -9q21 -26 21 -71q0 -81 -59.5 -125.5t-153.5 -44.5q-49 0 -49 -32q0 -16 10 -21.5t37 -7.5l146 -6q125 -5 125 -126q0 -78 -70.5 -132.5t-187.5 -54.5q-101 0 -160 34.5t-59 90.5q0 34 20.5 60.5t56.5 38.5v9q-53 28 -53 79q0 66 76 96
v7q-83 48 -83 145q0 77 58 123.5t138 46.5q77 0 129 -34zM300 327q0 95 -58 95q-61 0 -61 -95q0 -47 16.5 -72t44.5 -25q58 0 58 97zM377 -69q0 33 -41 34l-175 8q-27 -15 -27 -51q0 -33 30.5 -52t84.5 -19q57 0 92.5 23.5t35.5 56.5zM240 558q-59 0 -99 44.5t-40 127.5h52
q0 -35 24.5 -61.5t63.5 -26.5q37 0 62.5 25t25.5 63h52q0 -82 -41 -127t-100 -45z" />
    <glyph glyph-name="Gdotaccent" unicode="&#x120;" horiz-adv-x="727" 
d="M645 197v-204h-52l-51 77q-28 -38 -75.5 -60t-93.5 -22q-62 0 -119.5 20.5t-105.5 61.5t-77 111.5t-29 160.5q0 162 101.5 260.5t241.5 98.5q95 0 152 -46h7l20 40h59l9 -261h-66q-14 66 -62 119t-110 53q-85 0 -131 -73t-46 -193q0 -122 47.5 -189.5t126.5 -67.5
q67 0 105 51v72q0 33 -14.5 42t-60.5 9v79h297v-79q-46 0 -59 -13.5t-14 -46.5zM296 834q0 34 24.5 58.5t57.5 24.5q34 0 58.5 -24.5t24.5 -58.5q0 -33 -24.5 -57.5t-58.5 -24.5q-33 0 -57.5 24.5t-24.5 57.5z" />
    <glyph glyph-name="gdotaccent" unicode="&#x121;" horiz-adv-x="518" 
d="M363 471l81 46l59 -24v-88h-75l-7 -9q21 -26 21 -71q0 -81 -59.5 -125.5t-153.5 -44.5q-49 0 -49 -32q0 -16 10 -21.5t37 -7.5l146 -6q125 -5 125 -126q0 -78 -70.5 -132.5t-187.5 -54.5q-101 0 -160 34.5t-59 90.5q0 34 20.5 60.5t56.5 38.5v9q-53 28 -53 79q0 66 76 96
v7q-83 48 -83 145q0 77 58 123.5t138 46.5q77 0 129 -34zM300 327q0 95 -58 95q-61 0 -61 -95q0 -47 16.5 -72t44.5 -25q58 0 58 97zM377 -69q0 33 -41 34l-175 8q-27 -15 -27 -51q0 -33 30.5 -52t84.5 -19q57 0 92.5 23.5t35.5 56.5zM154 657q0 36 26 62.5t61 26.5
q36 0 62.5 -26.5t26.5 -62.5q0 -35 -26.5 -61t-62.5 -26q-35 0 -61 26t-26 61z" />
    <glyph glyph-name="Gcommaaccent" unicode="&#x122;" horiz-adv-x="727" 
d="M645 197v-204h-52l-51 77q-28 -38 -75.5 -60t-93.5 -22q-62 0 -119.5 20.5t-105.5 61.5t-77 111.5t-29 160.5q0 162 101.5 260.5t241.5 98.5q95 0 152 -46h7l20 40h59l9 -261h-66q-14 66 -62 119t-110 53q-85 0 -131 -73t-46 -193q0 -122 47.5 -189.5t126.5 -67.5
q67 0 105 51v72q0 33 -14.5 42t-60.5 9v79h297v-79q-46 0 -59 -13.5t-14 -46.5zM317 -93q0 16 14 29t36 13q28 0 47 -24t19 -61q0 -67 -95 -117l-19 28q42 29 42 63q0 17 -22 35t-22 34z" />
    <glyph glyph-name="gcommaaccent" unicode="&#x123;" horiz-adv-x="518" 
d="M363 471l81 46l59 -24v-88h-75l-7 -9q21 -26 21 -71q0 -81 -59.5 -125.5t-153.5 -44.5q-49 0 -49 -32q0 -16 10 -21.5t37 -7.5l146 -6q125 -5 125 -126q0 -78 -70.5 -132.5t-187.5 -54.5q-101 0 -160 34.5t-59 90.5q0 34 20.5 60.5t56.5 38.5v9q-53 28 -53 79q0 66 76 96
v7q-83 48 -83 145q0 77 58 123.5t138 46.5q77 0 129 -34zM300 327q0 95 -58 95q-61 0 -61 -95q0 -47 16.5 -72t44.5 -25q58 0 58 97zM377 -69q0 33 -41 34l-175 8q-27 -15 -27 -51q0 -33 30.5 -52t84.5 -19q57 0 92.5 23.5t35.5 56.5zM309 599q0 -18 -17.5 -33t-44.5 -15
q-35 0 -58 27.5t-23 71.5q0 76 117 135l24 -33q-52 -30 -52 -72q0 -20 27 -41t27 -40z" />
    <glyph glyph-name="Hbar" unicode="&#x126;" horiz-adv-x="799" 
d="M50 537h68v20q0 31 -19 40t-67 9v85h332v-85q-52 0 -69 -7.5t-17 -41.5v-20h242v20q0 33 -16 41t-70 8v85h333v-85q-56 0 -72 -8.5t-16 -40.5v-20h78v-70h-78v-334q0 -32 17 -40t71 -8v-85h-333v85q58 3 72 10t14 38v175h-242v-175q0 -32 16 -40t70 -8v-85h-332v85
q53 0 69.5 8t16.5 40v334h-68v70zM278 399h242v68h-242v-68z" />
    <glyph glyph-name="hbar" unicode="&#x127;" horiz-adv-x="555" 
d="M15 590h57v9q0 35 -14.5 46t-55.5 11v75l123 9h97l-5 -150h125v-60h-126v-77h10q34 28 58.5 40t66.5 12q55 0 93 -38.5t38 -123.5v-246q0 -14 11 -18t35 -4v-75h-226v75q38 0 38 22v242q0 27 -14.5 40t-32.5 13q-29 0 -73 -26v-269q0 -14 9 -18t29 -4v-75h-231v75
q50 0 50 25v385l-2 45h-60v60z" />
    <glyph glyph-name="Imacron" unicode="&#x12a;" horiz-adv-x="379" 
d="M352 691v-86q-57 0 -69.5 -5.5t-12.5 -32.5v-438q0 -29 13.5 -36.5t68.5 -7.5v-85h-325v85q58 0 70.5 7t12.5 37v438q0 28 -13 34t-70 6v84h325zM326 781h-274v77h274v-77z" />
    <glyph glyph-name="imacron" unicode="&#x12b;" horiz-adv-x="296" 
d="M223 99q0 -24 48 -24v-75h-246v75q32 0 44 5.5t12 19.5v261q0 32 -12.5 41t-48.5 9v75l116 9h87v-396zM282 579h-274v77h274v-77z" />
    <glyph glyph-name="Iogonek" unicode="&#x12e;" horiz-adv-x="379" 
d="M352 691v-86q-57 0 -69.5 -5.5t-12.5 -32.5v-438q0 -29 13.5 -36.5t68.5 -7.5v-85h-21q-57 -44 -57 -108q0 -52 45 -52q7 0 21 2v-42q-22 -5 -39 -5q-44 0 -78 23.5t-34 64.5q0 66 85 117h-247v85q58 0 70.5 7t12.5 37v438q0 28 -13 34t-70 6v84h325z" />
    <glyph glyph-name="iogonek" unicode="&#x12f;" horiz-adv-x="296" 
d="M223 99q0 -24 48 -24v-75h-12q-66 -44 -66 -114q0 -52 45 -52q7 0 21 2v-42q-22 -5 -39 -5q-44 0 -78 23.5t-34 64.5q0 70 95 123h-178v75q32 0 44 5.5t12 19.5v261q0 32 -12.5 41t-48.5 9v75l116 9h87v-396zM49 654q0 37 27 62t69 25q39 0 65.5 -25t26.5 -62
q0 -34 -26.5 -58.5t-65.5 -24.5q-42 0 -69 24t-27 59z" />
    <glyph glyph-name="Idotaccent" unicode="&#x130;" horiz-adv-x="379" 
d="M352 691v-86q-57 0 -69.5 -5.5t-12.5 -32.5v-438q0 -29 13.5 -36.5t68.5 -7.5v-85h-325v85q58 0 70.5 7t12.5 37v438q0 28 -13 34t-70 6v84h325zM107 834q0 34 24.5 58.5t57.5 24.5q34 0 58.5 -24.5t24.5 -58.5q0 -33 -24.5 -57.5t-58.5 -24.5q-33 0 -57.5 24.5
t-24.5 57.5z" />
    <glyph glyph-name="dotlessi" unicode="&#x131;" horiz-adv-x="296" 
d="M223 99q0 -24 48 -24v-75h-246v75q32 0 44 5.5t12 19.5v261q0 32 -12.5 41t-48.5 9v75l116 9h87v-396z" />
    <glyph glyph-name="Kcommaaccent" unicode="&#x136;" horiz-adv-x="723" 
d="M537 512l-119 -115l207 -261q23 -30 40 -40.5t48 -10.5v-85h-324v85q47 2 57.5 11.5t-9.5 35.5l-130 159l-29 -28v-103q0 -50 11 -62.5t51 -12.5v-85h-308v85q56 0 71 12.5t15 62.5v375q0 50 -17 61t-69 11v84h316v-84q-46 0 -58 -11t-12 -61v-155h4l158 160
q14 15 16.5 30t-12 25.5t-45.5 10.5v85h302v-85q-29 -3 -60 -19t-49.5 -30t-54.5 -45zM329 -93q0 16 14 29t36 13q28 0 47 -24t19 -61q0 -67 -95 -117l-19 28q42 29 42 63q0 17 -22 35t-22 34z" />
    <glyph glyph-name="kcommaaccent" unicode="&#x137;" horiz-adv-x="548" 
d="M410 362l-72 -75l143 -191q15 -21 32 -21h20v-75h-155l-145 215h-13v-107q0 -19 10.5 -26t40.5 -7v-75h-244v75q30 0 40 7t10 22v390l-5 101q-1 36 -15 48.5t-50 12.5v74l186 10h33l-6 -223v-219h26l79 80q23 18 17 33t-45 16v68h219v-68q-32 -7 -54.5 -21t-51.5 -44z
M265 -96q0 16 14 29t36 13q28 0 47 -24t19 -61q0 -67 -95 -117l-19 28q42 29 42 63q0 17 -22 35t-22 34z" />
    <glyph glyph-name="Lacute" unicode="&#x139;" horiz-adv-x="602" 
d="M579 282l-13 -282h-534v85q49 0 67 7.5t18 36.5v439q0 25 -15 32t-70 7v84h339v-84q-62 0 -77 -6t-15 -32v-484h79q125 0 144 197h77zM114 740v18l86 119h124v-20l-139 -117h-71z" />
    <glyph glyph-name="lacute" unicode="&#x13a;" horiz-adv-x="306" 
d="M225 522v-418q0 -29 56 -29v-75h-256v75q57 0 57 30v408l-3 78q0 39 -13.5 49.5t-52.5 10.5v80l174 9h43zM74 773v18l86 119h124v-20l-139 -117h-71z" />
    <glyph glyph-name="Lcommaaccent" unicode="&#x13b;" horiz-adv-x="602" 
d="M579 282l-13 -282h-534v85q49 0 67 7.5t18 36.5v439q0 25 -15 32t-70 7v84h339v-84q-62 0 -77 -6t-15 -32v-484h79q125 0 144 197h77zM269 -93q0 16 14 29t36 13q28 0 47 -24t19 -61q0 -67 -95 -117l-19 28q42 29 42 63q0 17 -22 35t-22 34z" />
    <glyph glyph-name="lcommaaccent" unicode="&#x13c;" horiz-adv-x="306" 
d="M225 522v-418q0 -29 56 -29v-75h-256v75q57 0 57 30v408l-3 78q0 39 -13.5 49.5t-52.5 10.5v80l174 9h43zM105 -96q0 16 14 29t36 13q28 0 47 -24t19 -61q0 -67 -95 -117l-19 28q42 29 42 63q0 17 -22 35t-22 34z" />
    <glyph glyph-name="Lcaron" unicode="&#x13d;" horiz-adv-x="602" 
d="M579 282l-13 -282h-534v85q49 0 67 7.5t18 36.5v439q0 25 -15 32t-70 7v84h339v-84q-62 0 -77 -6t-15 -32v-484h79q125 0 144 197h77zM475 474v8l21 209h104v-10l-59 -207h-66z" />
    <glyph glyph-name="lcaron" unicode="&#x13e;" horiz-adv-x="344" 
d="M225 522v-418q0 -29 56 -29v-75h-256v75q57 0 57 30v408l-3 78q0 39 -13.5 49.5t-52.5 10.5v80l174 9h43zM274 523v8l21 209h104v-10l-59 -207h-66z" />
    <glyph glyph-name="Ldot" unicode="&#x13f;" horiz-adv-x="602" 
d="M579 282l-13 -282h-534v85q49 0 67 7.5t18 36.5v439q0 25 -15 32t-70 7v84h339v-84q-62 0 -77 -6t-15 -32v-484h79q125 0 144 197h77zM389 412q0 38 26 65t64 27t65 -27t27 -65q0 -36 -27 -60.5t-65 -24.5t-64 24.5t-26 60.5z" />
    <glyph glyph-name="ldot" unicode="&#x140;" horiz-adv-x="478" 
d="M225 522v-418q0 -29 56 -29v-75h-256v75q57 0 57 30v408l-3 78q0 39 -13.5 49.5t-52.5 10.5v80l174 9h43zM276 277q0 39 25.5 65.5t63.5 26.5t65 -27t27 -65q0 -36 -27 -60.5t-65 -24.5t-63.5 24.5t-25.5 60.5z" />
    <glyph glyph-name="Lslash" unicode="&#x141;" horiz-adv-x="602" 
d="M34 287l83 39v242q0 25 -15 32t-70 7v84h339v-84q-62 0 -77 -6t-15 -32v-166l162 77v-68l-162 -77v-250h79q125 0 144 197h77l-13 -282h-534v85q49 0 67 7.5t18 36.5v129l-83 -39v68z" />
    <glyph glyph-name="lslash" unicode="&#x142;" horiz-adv-x="306" 
d="M225 522v-72l59 51v-78l-59 -51v-268q0 -29 56 -29v-75h-256v75q57 0 57 30v143l-58 -50v78l58 50v187l-3 78q0 39 -13.5 49.5t-52.5 10.5v80l174 9h43z" />
    <glyph glyph-name="Nacute" unicode="&#x143;" horiz-adv-x="752" 
d="M207 473h-4v-336q0 -33 23.5 -42.5t80.5 -9.5v-85h-286v85q43 0 64.5 10t21.5 42v424q-36 46 -86 46v84h213l325 -433h4v299q0 26 -27 37.5t-89 11.5v85h284v-85q-46 0 -61.5 -11.5t-15.5 -37.5v-565h-85zM313 740v18l86 119h124v-20l-139 -117h-71z" />
    <glyph glyph-name="nacute" unicode="&#x144;" horiz-adv-x="555" 
d="M196 438h14q33 33 63 50t73 17q57 0 96.5 -41t39.5 -131v-236q0 -22 46 -22v-75h-226v75q38 0 38 27v237q0 27 -14.5 40t-32.5 13q-28 0 -73 -26v-265q0 -26 38 -26v-75h-231v75q50 0 50 27v252q0 28 -12.5 40t-42.5 12v80l134 9h31zM202 558v18l86 154h124v-20
l-139 -152h-71z" />
    <glyph glyph-name="Ncommaaccent" unicode="&#x145;" horiz-adv-x="752" 
d="M207 473h-4v-336q0 -33 23.5 -42.5t80.5 -9.5v-85h-286v85q43 0 64.5 10t21.5 42v424q-36 46 -86 46v84h213l325 -433h4v299q0 26 -27 37.5t-89 11.5v85h284v-85q-46 0 -61.5 -11.5t-15.5 -37.5v-565h-85zM346 -93q0 16 14 29t36 13q28 0 47 -24t19 -61q0 -67 -95 -117
l-19 28q42 29 42 63q0 17 -22 35t-22 34z" />
    <glyph glyph-name="ncommaaccent" unicode="&#x146;" horiz-adv-x="555" 
d="M196 438h14q33 33 63 50t73 17q57 0 96.5 -41t39.5 -131v-236q0 -22 46 -22v-75h-226v75q38 0 38 27v237q0 27 -14.5 40t-32.5 13q-28 0 -73 -26v-265q0 -26 38 -26v-75h-231v75q50 0 50 27v252q0 28 -12.5 40t-42.5 12v80l134 9h31zM224 -96q0 16 14 29t36 13
q28 0 47 -24t19 -61q0 -67 -95 -117l-19 28q42 29 42 63q0 17 -22 35t-22 34z" />
    <glyph glyph-name="Ncaron" unicode="&#x147;" horiz-adv-x="752" 
d="M207 473h-4v-336q0 -33 23.5 -42.5t80.5 -9.5v-85h-286v85q43 0 64.5 10t21.5 42v424q-36 46 -86 46v84h213l325 -433h4v299q0 26 -27 37.5t-89 11.5v85h284v-85q-46 0 -61.5 -11.5t-15.5 -37.5v-565h-85zM528 877v-18l-116 -119h-58l-116 119v18h46l99 -58l99 58h46z
" />
    <glyph glyph-name="ncaron" unicode="&#x148;" horiz-adv-x="555" 
d="M196 438h14q33 33 63 50t73 17q57 0 96.5 -41t39.5 -131v-236q0 -22 46 -22v-75h-226v75q38 0 38 27v237q0 27 -14.5 40t-32.5 13q-28 0 -73 -26v-265q0 -26 38 -26v-75h-231v75q50 0 50 27v252q0 28 -12.5 40t-42.5 12v80l134 9h31zM422 730v-18l-116 -154h-58l-116 154
v18h41l104 -78l104 78h41z" />
    <glyph glyph-name="Omacron" unicode="&#x14c;" horiz-adv-x="751" 
d="M709 345q0 -167 -96 -262t-237 -95q-145 0 -239.5 95t-94.5 262q0 170 94 263t240 93q92 0 166 -38t120.5 -120t46.5 -198zM534 345q0 261 -158 261q-159 0 -159 -261t159 -261q80 0 119 70t39 191zM513 781h-274v77h274v-77z" />
    <glyph glyph-name="omacron" unicode="&#x14d;" horiz-adv-x="519" 
d="M30 244q0 118 65.5 189.5t164.5 71.5q98 0 163.5 -73t65.5 -188q0 -126 -63.5 -190t-165.5 -64q-101 0 -165.5 67t-64.5 187zM181 245q0 -96 20.5 -127.5t58.5 -31.5q17 0 29 5t24 20t18.5 48.5t6.5 85.5q0 101 -20.5 132.5t-57.5 31.5q-24 0 -39.5 -10t-27.5 -48
t-12 -106zM396 579h-274v77h274v-77z" />
    <glyph glyph-name="Ohungarumlaut" unicode="&#x150;" horiz-adv-x="751" 
d="M709 345q0 -167 -96 -262t-237 -95q-145 0 -239.5 95t-94.5 262q0 170 94 263t240 93q92 0 166 -38t120.5 -120t46.5 -198zM534 345q0 261 -158 261q-159 0 -159 -261t159 -261q80 0 119 70t39 191zM240 740v18l86 119h119v-20l-139 -117h-66zM410 740v18l86 119h119v-20
l-139 -117h-66z" />
    <glyph glyph-name="ohungarumlaut" unicode="&#x151;" horiz-adv-x="519" 
d="M30 244q0 118 65.5 189.5t164.5 71.5q98 0 163.5 -73t65.5 -188q0 -126 -63.5 -190t-165.5 -64q-101 0 -165.5 67t-64.5 187zM181 245q0 -96 20.5 -127.5t58.5 -31.5q17 0 29 5t24 20t18.5 48.5t6.5 85.5q0 101 -20.5 132.5t-57.5 31.5q-24 0 -39.5 -10t-27.5 -48
t-12 -106zM290 558v18l86 154h124v-20l-144 -152h-66zM125 558v18l86 154h124v-20l-144 -152h-66z" />
    <glyph glyph-name="OE" unicode="&#x152;" horiz-adv-x="982" 
d="M951 257l-13 -257h-469q-45 -12 -93 -12q-145 0 -239.5 95t-94.5 262q0 170 94 263t240 93q41 0 88 -10h459l11 -231h-74q-13 85 -42.5 116t-94.5 31h-124v-233h51q70 0 70 124h70v-312h-70q0 70 -15.5 92.5t-60.5 22.5h-45v-216h148q64 0 93.5 43t39.5 129h71zM376 84
q34 0 62 14l1 494q-28 14 -63 14q-159 0 -159 -261t159 -261z" />
    <glyph glyph-name="oe" unicode="&#x153;" horiz-adv-x="816" 
d="M724 165h64q-7 -85 -60.5 -130t-134.5 -45q-109 0 -163 91q-53 -91 -170 -91q-101 0 -165.5 67t-64.5 187q0 118 65.5 189.5t164.5 71.5q52 0 96 -27t73 -76q58 103 168 103q86 0 139 -59t53 -157v-53h-269v-16q0 -60 29 -95t80 -35q80 0 95 75zM181 245q0 -43 4.5 -73.5
t11 -47t18 -25.5t21 -11t24.5 -2q18 0 29.5 4t24.5 18t19.5 48.5t6.5 88.5q0 55 -6.5 90t-19.5 50t-24.5 19.5t-29.5 4.5q-25 0 -40 -9.5t-27 -47.5t-12 -107zM649 306v11q0 106 -54 106q-33 0 -50 -27.5t-21 -89.5h125z" />
    <glyph glyph-name="Racute" unicode="&#x154;" horiz-adv-x="683" 
d="M459 351v-8q52 -10 89 -50t48 -112q15 -85 27.5 -106.5t53.5 -21.5v-63q-99 0 -150.5 17t-70.5 49t-29 98q-13 90 -39 123.5t-74 33.5h-35v-177q0 -32 17 -40t75 -8v-86h-339v86q56 2 71 9t15 39v436q0 24 -15 30t-71 6v85h333q106 0 169.5 -42t63.5 -129
q0 -74 -39 -115.5t-100 -53.5zM432 505q0 101 -120 101h-33v-209h47q47 0 76.5 27t29.5 81zM256 740v18l86 119h124v-20l-139 -117h-71z" />
    <glyph glyph-name="racute" unicode="&#x155;" horiz-adv-x="381" 
d="M375 409q0 -45 -28 -71.5t-67 -29.5l-40 61h-25v-268q0 -16 16 -21t59 -5v-75h-273v75q33 0 44 7.5t11 21.5v247q0 30 -12.5 41t-42.5 11v83l122 9h29l13 -72h14q35 82 99 82q34 0 57.5 -25.5t23.5 -70.5zM131 558v18l86 154h124v-20l-139 -152h-71z" />
    <glyph glyph-name="Rcaron" unicode="&#x158;" horiz-adv-x="683" 
d="M459 351v-8q52 -10 89 -50t48 -112q15 -85 27.5 -106.5t53.5 -21.5v-63q-99 0 -150.5 17t-70.5 49t-29 98q-13 90 -39 123.5t-74 33.5h-35v-177q0 -32 17 -40t75 -8v-86h-339v86q56 2 71 9t15 39v436q0 24 -15 30t-71 6v85h333q106 0 169.5 -42t63.5 -129
q0 -74 -39 -115.5t-100 -53.5zM432 505q0 101 -120 101h-33v-209h47q47 0 76.5 27t29.5 81zM471 877v-18l-116 -119h-58l-116 119v18h46l99 -58l99 58h46z" />
    <glyph glyph-name="rcaron" unicode="&#x159;" horiz-adv-x="381" 
d="M375 409q0 -45 -28 -71.5t-67 -29.5l-40 61h-25v-268q0 -16 16 -21t59 -5v-75h-273v75q33 0 44 7.5t11 21.5v247q0 30 -12.5 41t-42.5 11v83l122 9h29l13 -72h14q35 82 99 82q34 0 57.5 -25.5t23.5 -70.5zM351 730v-18l-116 -154h-58l-116 154v18h41l104 -78l104 78h41z
" />
    <glyph glyph-name="Sacute" unicode="&#x15a;" horiz-adv-x="586" 
d="M154 59l-15 -62h-84l-7 291h74q17 -92 72.5 -149.5t126.5 -57.5q46 0 75 19t29 54q0 43 -37 71.5t-109 53.5q-39 14 -68.5 27t-63 34.5t-55.5 45.5t-36.5 58t-14.5 74q0 82 62.5 132.5t151.5 50.5q96 0 165 -64l2 2l-2 -1l20 57h79l2 -263h-71q-29 93 -74.5 135
t-114.5 42q-36 0 -54.5 -19t-18.5 -45q0 -20 9.5 -37.5t21.5 -28.5t38 -23.5t42 -19t50 -18.5q47 -16 80.5 -33t65 -44t48 -66t16.5 -89q0 -85 -61 -141.5t-155 -56.5q-65 0 -113.5 22t-75.5 49zM209 740v18l86 119h124v-20l-139 -117h-71z" />
    <glyph glyph-name="sacute" unicode="&#x15b;" horiz-adv-x="444" 
d="M39 -2v193h64q10 -45 48 -76t93 -31q58 0 58 44q0 34 -60 54q-10 3 -43.5 13.5t-49.5 16.5t-43.5 20.5t-41.5 29.5t-25 40t-11 56q0 67 46 107t113 40q77 0 132 -38l15 30h62v-174h-60q-38 91 -127 91q-29 0 -45 -11t-16 -30q0 -33 91 -58q28 -8 36.5 -10t34.5 -11
t36.5 -16t29 -20.5t26 -28t14.5 -36t7 -46.5q0 -71 -45.5 -114t-120.5 -43q-73 0 -143 47l-10 -39h-65zM131 558v18l86 154h124v-20l-139 -152h-71z" />
    <glyph glyph-name="Scircumflex" unicode="&#x15c;" horiz-adv-x="586" 
d="M154 59l-15 -62h-84l-7 291h74q17 -92 72.5 -149.5t126.5 -57.5q46 0 75 19t29 54q0 43 -37 71.5t-109 53.5q-39 14 -68.5 27t-63 34.5t-55.5 45.5t-36.5 58t-14.5 74q0 82 62.5 132.5t151.5 50.5q96 0 165 -64l2 2l-2 -1l20 57h79l2 -263h-71q-29 93 -74.5 135
t-114.5 42q-36 0 -54.5 -19t-18.5 -45q0 -20 9.5 -37.5t21.5 -28.5t38 -23.5t42 -19t50 -18.5q47 -16 80.5 -33t65 -44t48 -66t16.5 -89q0 -85 -61 -141.5t-155 -56.5q-65 0 -113.5 22t-75.5 49zM424 758v-18h-46l-99 58l-99 -58h-46v18l116 119h58z" />
    <glyph glyph-name="scircumflex" unicode="&#x15d;" horiz-adv-x="444" 
d="M39 -2v193h64q10 -45 48 -76t93 -31q58 0 58 44q0 34 -60 54q-10 3 -43.5 13.5t-49.5 16.5t-43.5 20.5t-41.5 29.5t-25 40t-11 56q0 67 46 107t113 40q77 0 132 -38l15 30h62v-174h-60q-38 91 -127 91q-29 0 -45 -11t-16 -30q0 -33 91 -58q28 -8 36.5 -10t34.5 -11
t36.5 -16t29 -20.5t26 -28t14.5 -36t7 -46.5q0 -71 -45.5 -114t-120.5 -43q-73 0 -143 47l-10 -39h-65zM351 576v-18h-41l-104 78l-104 -78h-41v18l116 154h58z" />
    <glyph glyph-name="Scedilla" unicode="&#x15e;" horiz-adv-x="586" 
d="M261 -231l-8 45q82 14 82 47q0 27 -66 27q-16 0 -30 -2l-5 7l45 102q-80 17 -125 64l-15 -62h-84l-7 291h74q17 -92 72.5 -149.5t126.5 -57.5q46 0 75 19t29 54q0 43 -37 71.5t-109 53.5q-39 14 -68.5 27t-63 34.5t-55.5 45.5t-36.5 58t-14.5 74q0 82 62.5 132.5
t151.5 50.5q96 0 165 -64l2 2l-2 -1l20 57h79l2 -263h-71q-29 93 -74.5 135t-114.5 42q-36 0 -54.5 -19t-18.5 -45q0 -20 9.5 -37.5t21.5 -28.5t38 -23.5t42 -19t50 -18.5q47 -16 80.5 -33t65 -44t48 -66t16.5 -89q0 -85 -61 -141.5t-155 -56.5h-12l-15 -35q98 0 98 -62
q0 -45 -45 -79t-108 -43z" />
    <glyph glyph-name="scedilla" unicode="&#x15f;" horiz-adv-x="444" 
d="M194 -234l-8 45q82 14 82 47q0 27 -66 27q-16 0 -30 -2l-5 7l46 104q-47 7 -99 43l-10 -39h-65v193h64q10 -45 48 -76t93 -31q58 0 58 44q0 34 -60 54q-10 3 -43.5 13.5t-49.5 16.5t-43.5 20.5t-41.5 29.5t-25 40t-11 56q0 67 46 107t113 40q77 0 132 -38l15 30h62v-174
h-60q-38 91 -127 91q-29 0 -45 -11t-16 -30q0 -33 91 -58q28 -8 36.5 -10t34.5 -11t36.5 -16t29 -20.5t26 -28t14.5 -36t7 -46.5q0 -69 -43 -111.5t-114 -45.5l-17 -40q98 0 98 -62q0 -45 -45 -79t-108 -43z" />
    <glyph glyph-name="Scaron" unicode="&#x160;" horiz-adv-x="586" 
d="M154 59l-15 -62h-84l-7 291h74q17 -92 72.5 -149.5t126.5 -57.5q46 0 75 19t29 54q0 43 -37 71.5t-109 53.5q-39 14 -68.5 27t-63 34.5t-55.5 45.5t-36.5 58t-14.5 74q0 82 62.5 132.5t151.5 50.5q96 0 165 -64l2 2l-2 -1l20 57h79l2 -263h-71q-29 93 -74.5 135
t-114.5 42q-36 0 -54.5 -19t-18.5 -45q0 -20 9.5 -37.5t21.5 -28.5t38 -23.5t42 -19t50 -18.5q47 -16 80.5 -33t65 -44t48 -66t16.5 -89q0 -85 -61 -141.5t-155 -56.5q-65 0 -113.5 22t-75.5 49zM424 877v-18l-116 -119h-58l-116 119v18h46l99 -58l99 58h46z" />
    <glyph glyph-name="scaron" unicode="&#x161;" horiz-adv-x="444" 
d="M39 -2v193h64q10 -45 48 -76t93 -31q58 0 58 44q0 34 -60 54q-10 3 -43.5 13.5t-49.5 16.5t-43.5 20.5t-41.5 29.5t-25 40t-11 56q0 67 46 107t113 40q77 0 132 -38l15 30h62v-174h-60q-38 91 -127 91q-29 0 -45 -11t-16 -30q0 -33 91 -58q28 -8 36.5 -10t34.5 -11
t36.5 -16t29 -20.5t26 -28t14.5 -36t7 -46.5q0 -71 -45.5 -114t-120.5 -43q-73 0 -143 47l-10 -39h-65zM351 730v-18l-116 -154h-58l-116 154v18h41l104 -78l104 78h41z" />
    <glyph glyph-name="Tcommaaccent" unicode="&#x162;" horiz-adv-x="644" 
d="M624 415h-73q0 88 -30.5 140t-85.5 52h-35v-483q-1 -26 17 -32.5t60 -6.5h21v-85h-360v85h14q31 0 45 1t28 10t14 28v483h-33q-48 0 -79.5 -52t-31.5 -140h-75v276h604v-276zM264 -93q0 16 14 29t36 13q28 0 47 -24t19 -61q0 -67 -95 -117l-19 28q42 29 42 63
q0 17 -22 35t-22 34z" />
    <glyph glyph-name="Tcommaaccent" unicode="&#x21a;" horiz-adv-x="644" 
d="M624 415h-73q0 88 -30.5 140t-85.5 52h-35v-483q-1 -26 17 -32.5t60 -6.5h21v-85h-360v85h14q31 0 45 1t28 10t14 28v483h-33q-48 0 -79.5 -52t-31.5 -140h-75v276h604v-276zM264 -93q0 16 14 29t36 13q28 0 47 -24t19 -61q0 -67 -95 -117l-19 28q42 29 42 63
q0 17 -22 35t-22 34z" />
    <glyph glyph-name="tcommaaccent" unicode="&#x163;" horiz-adv-x="359" 
d="M70 410h-61v71q58 4 88 49t43 143h73v-178h120v-85h-120v-288q0 -39 30 -39q5 0 10.5 2t13 8t11.5 18t7 32.5t0 51.5h58q2 -54 -6 -93t-21.5 -60.5t-34.5 -34t-39 -16t-42 -3.5q-62 0 -96 39t-34 100v283zM141 -96q0 16 14 29t36 13q28 0 47 -24t19 -61q0 -67 -95 -117
l-19 28q42 29 42 63q0 17 -22 35t-22 34z" />
    <glyph glyph-name="tcommaaccent" unicode="&#x21b;" horiz-adv-x="359" 
d="M70 410h-61v71q58 4 88 49t43 143h73v-178h120v-85h-120v-288q0 -39 30 -39q5 0 10.5 2t13 8t11.5 18t7 32.5t0 51.5h58q2 -54 -6 -93t-21.5 -60.5t-34.5 -34t-39 -16t-42 -3.5q-62 0 -96 39t-34 100v283zM141 -96q0 16 14 29t36 13q28 0 47 -24t19 -61q0 -67 -95 -117
l-19 28q42 29 42 63q0 17 -22 35t-22 34z" />
    <glyph glyph-name="Tcaron" unicode="&#x164;" horiz-adv-x="644" 
d="M624 415h-73q0 88 -30.5 140t-85.5 52h-35v-483q-1 -26 17 -32.5t60 -6.5h21v-85h-360v85h14q31 0 45 1t28 10t14 28v483h-33q-48 0 -79.5 -52t-31.5 -140h-75v276h604v-276zM467 877v-18l-116 -119h-58l-116 119v18h46l99 -58l99 58h46z" />
    <glyph glyph-name="tcaron" unicode="&#x165;" horiz-adv-x="359" 
d="M70 410h-61v71q58 4 88 49t43 143h73v-178h120v-85h-120v-288q0 -39 30 -39q5 0 10.5 2t13 8t11.5 18t7 32.5t0 51.5h58q2 -54 -6 -93t-21.5 -60.5t-34.5 -34t-39 -16t-42 -3.5q-62 0 -96 39t-34 100v283zM310 523v8l21 209h104v-10l-59 -207h-66z" />
    <glyph glyph-name="Umacron" unicode="&#x16a;" horiz-adv-x="748" 
d="M723 691v-84q-46 0 -62.5 -10t-16.5 -33v-333q0 -243 -255 -243q-133 0 -210.5 56t-77.5 181v342q0 27 -11.5 33.5t-64.5 6.5v84h321v-84q-56 0 -70.5 -6.5t-14.5 -33.5v-322q0 -80 40.5 -119t110.5 -39q77 0 110.5 38t33.5 121v318q0 24 -20.5 33.5t-74.5 9.5v84h262z
M535 781h-274v77h274v-77z" />
    <glyph glyph-name="umacron" unicode="&#x16b;" horiz-adv-x="555" 
d="M361 56h-14q-61 -66 -128 -66q-62 0 -106.5 40t-44.5 127v232q0 17 -15 17h-36v84l194 10v-334q0 -64 56 -64q40 0 70 30v258q0 8 -1.5 11.5t-4 4t-9.5 0.5h-46v84l203 10v-371q0 -34 9.5 -43t44.5 -9v-70l-137 -12h-26zM409 579h-274v77h274v-77z" />
    <glyph glyph-name="Ubreve" unicode="&#x16c;" horiz-adv-x="748" 
d="M723 691v-84q-46 0 -62.5 -10t-16.5 -33v-333q0 -243 -255 -243q-133 0 -210.5 56t-77.5 181v342q0 27 -11.5 33.5t-64.5 6.5v84h321v-84q-56 0 -70.5 -6.5t-14.5 -33.5v-322q0 -80 40.5 -119t110.5 -39q77 0 110.5 38t33.5 121v318q0 24 -20.5 33.5t-74.5 9.5v84h262z
M396 740q-59 0 -99 34.5t-40 102.5h52q0 -24 24.5 -41t63.5 -17q37 0 62.5 16.5t25.5 41.5h52q0 -67 -41 -102t-100 -35z" />
    <glyph glyph-name="ubreve" unicode="&#x16d;" horiz-adv-x="555" 
d="M361 56h-14q-61 -66 -128 -66q-62 0 -106.5 40t-44.5 127v232q0 17 -15 17h-36v84l194 10v-334q0 -64 56 -64q40 0 70 30v258q0 8 -1.5 11.5t-4 4t-9.5 0.5h-46v84l203 10v-371q0 -34 9.5 -43t44.5 -9v-70l-137 -12h-26zM270 558q-59 0 -99 44.5t-40 127.5h52
q0 -35 24.5 -61.5t63.5 -26.5q37 0 62.5 25t25.5 63h52q0 -82 -41 -127t-100 -45z" />
    <glyph glyph-name="Uring" unicode="&#x16e;" horiz-adv-x="748" 
d="M723 691v-84q-46 0 -62.5 -10t-16.5 -33v-333q0 -243 -255 -243q-133 0 -210.5 56t-77.5 181v342q0 27 -11.5 33.5t-64.5 6.5v84h321v-84q-56 0 -70.5 -6.5t-14.5 -33.5v-322q0 -80 40.5 -119t110.5 -39q77 0 110.5 38t33.5 121v318q0 24 -20.5 33.5t-74.5 9.5v84h262z
M294 858q0 43 30 73.5t73 30.5t73.5 -30t30.5 -74q0 -43 -30.5 -73t-73.5 -30t-73 30t-30 73zM350 858q0 -21 12.5 -35.5t33.5 -14.5q22 0 35.5 14.5t13.5 35.5q0 22 -13.5 37t-35.5 15q-21 0 -33.5 -15t-12.5 -37z" />
    <glyph glyph-name="uring" unicode="&#x16f;" horiz-adv-x="555" 
d="M361 56h-14q-61 -66 -128 -66q-62 0 -106.5 40t-44.5 127v232q0 17 -15 17h-36v84l194 10v-334q0 -64 56 -64q40 0 70 30v258q0 8 -1.5 11.5t-4 4t-9.5 0.5h-46v84l203 10v-371q0 -34 9.5 -43t44.5 -9v-70l-137 -12h-26zM168 656q0 43 30 73.5t73 30.5t73.5 -30t30.5 -74
q0 -43 -30.5 -73t-73.5 -30t-73 30t-30 73zM224 656q0 -21 12.5 -35.5t33.5 -14.5q22 0 35.5 14.5t13.5 35.5q0 22 -13.5 37t-35.5 15q-21 0 -33.5 -15t-12.5 -37z" />
    <glyph glyph-name="Uhungarumlaut" unicode="&#x170;" horiz-adv-x="748" 
d="M723 691v-84q-46 0 -62.5 -10t-16.5 -33v-333q0 -243 -255 -243q-133 0 -210.5 56t-77.5 181v342q0 27 -11.5 33.5t-64.5 6.5v84h321v-84q-56 0 -70.5 -6.5t-14.5 -33.5v-322q0 -80 40.5 -119t110.5 -39q77 0 110.5 38t33.5 121v318q0 24 -20.5 33.5t-74.5 9.5v84h262z
M262 740v18l86 119h119v-20l-139 -117h-66zM432 740v18l86 119h119v-20l-139 -117h-66z" />
    <glyph glyph-name="uhungarumlaut" unicode="&#x171;" horiz-adv-x="555" 
d="M361 56h-14q-61 -66 -128 -66q-62 0 -106.5 40t-44.5 127v232q0 17 -15 17h-36v84l194 10v-334q0 -64 56 -64q40 0 70 30v258q0 8 -1.5 11.5t-4 4t-9.5 0.5h-46v84l203 10v-371q0 -34 9.5 -43t44.5 -9v-70l-137 -12h-26zM303 558v18l86 154h124v-20l-144 -152h-66z
M138 558v18l86 154h124v-20l-144 -152h-66z" />
    <glyph glyph-name="Uogonek" unicode="&#x172;" horiz-adv-x="748" 
d="M723 691v-84q-46 0 -62.5 -10t-16.5 -33v-333q0 -160 -111 -215q-40 -37 -40 -93q0 -52 45 -52q7 0 21 2v-42q-22 -5 -39 -5q-44 0 -78 23.5t-34 64.5t33 77q-24 -3 -52 -3q-133 0 -210.5 56t-77.5 181v342q0 27 -11.5 33.5t-64.5 6.5v84h321v-84q-56 0 -70.5 -6.5
t-14.5 -33.5v-322q0 -80 40.5 -119t110.5 -39q77 0 110.5 38t33.5 121v318q0 24 -20.5 33.5t-74.5 9.5v84h262z" />
    <glyph glyph-name="uogonek" unicode="&#x173;" horiz-adv-x="555" 
d="M361 56h-14q-61 -66 -128 -66q-62 0 -106.5 40t-44.5 127v232q0 17 -15 17h-36v84l194 10v-334q0 -64 56 -64q40 0 70 30v258q0 8 -1.5 11.5t-4 4t-9.5 0.5h-46v84l203 10v-371q0 -34 9.5 -43t44.5 -9v-70l-119 -10q-53 -44 -53 -105q0 -52 45 -52q7 0 21 2v-42
q-22 -5 -39 -5q-44 0 -78 23.5t-34 64.5q0 69 92 121z" />
    <glyph glyph-name="Wcircumflex" unicode="&#x174;" horiz-adv-x="977" 
d="M670 234h6l80 263q21 59 9.5 86t-67.5 23v85h259v-85q-40 0 -60.5 -24t-42.5 -87l-162 -501h-98l-105 331l-110 -331h-86l-186 536q-16 46 -33.5 61t-53.5 15v85h296v-85q-68 3 -43 -76l96 -296h7l74 214l-26 82q-15 47 -27 61.5t-43 14.5v85h283v-85q-44 -1 -53 -17
t4 -59zM649 758v-18h-46l-99 58l-99 -58h-46v18l116 119h58z" />
    <glyph glyph-name="wcircumflex" unicode="&#x175;" horiz-adv-x="767" 
d="M475 -2l-87 235l-78 -235h-102l-127 333q-22 56 -37 72.5t-42 16.5v75h248v-75q-34 -1 -39 -19t13 -61l62 -175h6l58 174l-6 16q-10 36 -22.5 49.5t-37.5 15.5v75h251v-75q-45 0 -55 -15t5 -46l63 -194h4l47 160q8 27 10 34t4 24t-3.5 22t-17.5 10t-33 5v75h206v-75
q-50 0 -85 -101l-101 -321h-104zM553 576v-18h-41l-104 78l-104 -78h-41v18l116 154h58z" />
    <glyph glyph-name="Ycircumflex" unicode="&#x176;" horiz-adv-x="684" 
d="M664 609l-2 -2q-60 0 -103 -79l-128 -228v-129q0 -58 17 -72t74 -14v-85h-333v85q57 0 70 13t13 73v129l-134 218q-28 43 -39 56.5t-29.5 23t-49.5 9.5v84h340v-84q-57 0 -68.5 -13.5t12.5 -54.5l84 -150l77 149q18 27 4.5 47.5t-56.5 21.5v84h251v-82zM534 758v-18h-46
l-99 58l-99 -58h-46v18l116 119h58z" />
    <glyph glyph-name="ycircumflex" unicode="&#x177;" horiz-adv-x="524" 
d="M299 165h6l57 172q14 49 4 66t-49 17v75h205v-75q-28 0 -44 -20.5t-33 -65.5l-167 -449q-35 -110 -137 -110q-58 0 -87 29.5t-29 68.5q0 37 21 59t50 22q31 0 50 -19t19 -50l-41 -26q6 -15 27 -15q32 0 47 45l41 108l-155 348q-10 22 -15 32t-14.5 22t-22 16.5t-30.5 4.5
v75h279v-75q-76 0 -49 -75zM446 576v-18h-41l-104 78l-104 -78h-41v18l116 154h58z" />
    <glyph glyph-name="Ydieresis" unicode="&#x178;" horiz-adv-x="684" 
d="M664 609l-2 -2q-60 0 -103 -79l-128 -228v-129q0 -58 17 -72t74 -14v-85h-333v85q57 0 70 13t13 73v129l-134 218q-28 43 -39 56.5t-29.5 23t-49.5 9.5v84h340v-84q-57 0 -68.5 -13.5t12.5 -54.5l84 -150l77 149q18 27 4.5 47.5t-56.5 21.5v84h251v-82zM553 838
q0 -27 -21 -47.5t-47 -20.5q-28 0 -49 20.5t-21 47.5q0 28 21 49t49 21q26 0 47 -21.5t21 -48.5zM363 838q0 -27 -20 -47.5t-49 -20.5q-27 0 -48 20.5t-21 47.5q0 28 21 49t48 21q29 0 49 -21t20 -49z" />
    <glyph glyph-name="Zacute" unicode="&#x179;" horiz-adv-x="636" 
d="M36 0v48l364 555l-3 4h-103q-60 0 -101.5 -61t-47.5 -140h-86l10 285h551v-46l-368 -556l2 -4h139q53 0 93 61.5t52 159.5h87l-24 -306h-565zM282 740v18l86 119h124v-20l-139 -117h-71z" />
    <glyph glyph-name="zacute" unicode="&#x17a;" horiz-adv-x="484" 
d="M212 88v-9h64q50 0 82 44.5t45 118.5h55l-14 -242h-423v38l247 374v7h-41q-102 0 -134 -154h-55l12 230h402v-42zM198 558v18l86 154h124v-20l-139 -152h-71z" />
    <glyph glyph-name="Zdotaccent" unicode="&#x17b;" horiz-adv-x="636" 
d="M36 0v48l364 555l-3 4h-103q-60 0 -101.5 -61t-47.5 -140h-86l10 285h551v-46l-368 -556l2 -4h139q53 0 93 61.5t52 159.5h87l-24 -306h-565zM270 834q0 34 24.5 58.5t57.5 24.5q34 0 58.5 -24.5t24.5 -58.5q0 -33 -24.5 -57.5t-58.5 -24.5q-33 0 -57.5 24.5t-24.5 57.5z
" />
    <glyph glyph-name="zdotaccent" unicode="&#x17c;" horiz-adv-x="484" 
d="M212 88v-9h64q50 0 82 44.5t45 118.5h55l-14 -242h-423v38l247 374v7h-41q-102 0 -134 -154h-55l12 230h402v-42zM185 657q0 36 26 62.5t61 26.5q36 0 62.5 -26.5t26.5 -62.5q0 -35 -26.5 -61t-62.5 -26q-34 0 -60.5 26t-26.5 61z" />
    <glyph glyph-name="Zcaron" unicode="&#x17d;" horiz-adv-x="636" 
d="M36 0v48l364 555l-3 4h-103q-60 0 -101.5 -61t-47.5 -140h-86l10 285h551v-46l-368 -556l2 -4h139q53 0 93 61.5t52 159.5h87l-24 -306h-565zM497 877v-18l-116 -119h-58l-116 119v18h46l99 -58l99 58h46z" />
    <glyph glyph-name="zcaron" unicode="&#x17e;" horiz-adv-x="484" 
d="M212 88v-9h64q50 0 82 44.5t45 118.5h55l-14 -242h-423v38l247 374v7h-41q-102 0 -134 -154h-55l12 230h402v-42zM418 730v-18l-116 -154h-58l-116 154v18h41l104 -78l104 78h41z" />
    <glyph glyph-name="florin" unicode="&#x192;" horiz-adv-x="544" 
d="M76 309l14 49h94l25 100q17 70 76.5 125t146.5 55q59 0 97 -27t38 -66q0 -20 -11.5 -33.5t-33.5 -13.5q-21 0 -34 14.5t-18 31.5t-15.5 31.5t-26.5 14.5q-32 0 -51 -34t-39 -105l-26 -93h120l-14 -49h-117l-88 -327q-23 -84 -75.5 -136.5t-119.5 -52.5q-45 0 -76.5 19.5
t-31.5 49.5q0 19 10 32t27 13q14 0 25 -10.5t17 -23.5t15.5 -23.5t20.5 -10.5q32 0 64 130l86 340h-99z" />
    <glyph glyph-name="Scommaaccent" unicode="&#x218;" horiz-adv-x="586" 
d="M154 59l-15 -62h-84l-7 291h74q17 -92 72.5 -149.5t126.5 -57.5q46 0 75 19t29 54q0 43 -37 71.5t-109 53.5q-39 14 -68.5 27t-63 34.5t-55.5 45.5t-36.5 58t-14.5 74q0 82 62.5 132.5t151.5 50.5q96 0 165 -64l2 2l-2 -1l20 57h79l2 -263h-71q-29 93 -74.5 135
t-114.5 42q-36 0 -54.5 -19t-18.5 -45q0 -20 9.5 -37.5t21.5 -28.5t38 -23.5t42 -19t50 -18.5q47 -16 80.5 -33t65 -44t48 -66t16.5 -89q0 -85 -61 -141.5t-155 -56.5q-65 0 -113.5 22t-75.5 49zM258 -93q0 16 14 29t36 13q28 0 47 -24t19 -61q0 -67 -95 -117l-19 28
q42 29 42 63q0 17 -22 35t-22 34z" />
    <glyph glyph-name="scommaaccent" unicode="&#x219;" horiz-adv-x="444" 
d="M39 -2v193h64q10 -45 48 -76t93 -31q58 0 58 44q0 34 -60 54q-10 3 -43.5 13.5t-49.5 16.5t-43.5 20.5t-41.5 29.5t-25 40t-11 56q0 67 46 107t113 40q77 0 132 -38l15 30h62v-174h-60q-38 91 -127 91q-29 0 -45 -11t-16 -30q0 -33 91 -58q28 -8 36.5 -10t34.5 -11
t36.5 -16t29 -20.5t26 -28t14.5 -36t7 -46.5q0 -71 -45.5 -114t-120.5 -43q-73 0 -143 47l-10 -39h-65zM191 -96q0 16 14 29t36 13q28 0 47 -24t19 -61q0 -67 -95 -117l-19 28q42 29 42 63q0 17 -22 35t-22 34z" />
    <glyph glyph-name="schwa" unicode="&#x259;" horiz-adv-x="475" 
d="M96 331h-69q12 83 64.5 128.5t131.5 45.5q98 0 160 -65.5t62 -188.5q0 -115 -63.5 -188t-162.5 -73q-86 0 -138.5 61.5t-52.5 164.5v48h266v11q0 63 -28 99t-79 36q-78 0 -91 -79zM168 193v-15q0 -96 53 -96q32 0 48 27t21 84h-122z" />
    <glyph glyph-name="quoteleft" unicode="&#x2bb;" horiz-adv-x="355" 
d="M281 453q0 -42 -28 -67t-65 -25q-48 0 -79 36.5t-31 101.5q0 141 141 222l40 -56q-45 -24 -73.5 -63.5t-23.5 -90.5q26 21 55 21q28 0 46 -21t18 -58z" />
    <glyph glyph-name="quoteleft" unicode="&#x2018;" horiz-adv-x="355" 
d="M281 453q0 -42 -28 -67t-65 -25q-48 0 -79 36.5t-31 101.5q0 141 141 222l40 -56q-45 -24 -73.5 -63.5t-23.5 -90.5q26 21 55 21q28 0 46 -21t18 -58z" />
    <glyph glyph-name="circumflex" unicode="&#x2c6;" horiz-adv-x="500" 
d="M395 526v-18h-41l-104 78l-104 -78h-41v18l116 154h58z" />
    <glyph glyph-name="caron" unicode="&#x2c7;" horiz-adv-x="500" 
d="M395 680v-18l-116 -154h-58l-116 154v18h41l104 -78l104 78h41z" />
    <glyph glyph-name="breve" unicode="&#x2d8;" horiz-adv-x="500" 
d="M248 508q-59 0 -99 44.5t-40 127.5h52q0 -35 24.5 -61.5t63.5 -26.5q37 0 62.5 25t25.5 63h52q0 -82 -41 -127t-100 -45z" />
    <glyph glyph-name="dotaccent" unicode="&#x2d9;" horiz-adv-x="500" 
d="M162 607q0 36 26 62.5t61 26.5q36 0 62.5 -26.5t26.5 -62.5q0 -35 -26.5 -61t-62.5 -26q-35 0 -61 26t-26 61z" />
    <glyph glyph-name="ring" unicode="&#x2da;" horiz-adv-x="500" 
d="M146 606q0 43 30 73.5t73 30.5t73.5 -30t30.5 -74q0 -43 -30.5 -73t-73.5 -30t-73 30t-30 73zM202 606q0 -21 12.5 -35.5t33.5 -14.5q22 0 35.5 14.5t13.5 35.5q0 22 -13.5 37t-35.5 15q-21 0 -33.5 -15t-12.5 -37z" />
    <glyph glyph-name="ogonek" unicode="&#x2db;" horiz-adv-x="500" 
d="M289 24v-6q-75 -48 -75 -120q0 -52 45 -52q7 0 21 2v-42q-22 -5 -39 -5q-44 0 -78 23.5t-34 64.5q0 85 141 145z" />
    <glyph glyph-name="tilde" unicode="&#x2dc;" horiz-adv-x="500" 
d="M378 661l36 -10q-14 -52 -43 -93.5t-55 -41.5q-16 0 -71 27.5t-71 27.5q-14 0 -24.5 -14.5t-23.5 -43.5l-39 12q11 44 41 88.5t48 44.5q21 0 72.5 -28t71.5 -28q15 0 33 19.5t25 39.5z" />
    <glyph glyph-name="hungarumlaut" unicode="&#x2dd;" horiz-adv-x="500" 
d="M281 508v18l86 154h124v-20l-144 -152h-66zM116 508v18l86 154h124v-20l-144 -152h-66z" />
    <glyph glyph-name="Delta" unicode="&#x394;" horiz-adv-x="544" 
d="M532 0h-520l223 631h45zM226 457l-137 -402h293z" />
    <glyph glyph-name="Delta" unicode="&#x2206;" horiz-adv-x="544" 
d="M532 0h-520l223 631h45zM226 457l-137 -402h293z" />
    <glyph glyph-name="Omega" unicode="&#x3a9;" horiz-adv-x="544" 
d="M275 578q-57 0 -87.5 -66.5t-30.5 -148.5q0 -133 29 -228t70 -112l-6 -23h-233l-30 156h29l53 -94h64l6 10q-48 48 -79.5 124t-31.5 156q0 114 69.5 200t178.5 86t178.5 -86t69.5 -200q0 -80 -31.5 -156t-79.5 -124l6 -10h64l53 94h29l-30 -156h-233l-6 23q41 17 70 112
t29 228q0 82 -31 148.5t-89 66.5z" />
    <glyph glyph-name="Omega" unicode="&#x2126;" horiz-adv-x="544" 
d="M275 578q-57 0 -87.5 -66.5t-30.5 -148.5q0 -133 29 -228t70 -112l-6 -23h-233l-30 156h29l53 -94h64l6 10q-48 48 -79.5 124t-31.5 156q0 114 69.5 200t178.5 86t178.5 -86t69.5 -200q0 -80 -31.5 -156t-79.5 -124l6 -10h64l53 94h29l-30 -156h-233l-6 23q41 17 70 112
t29 228q0 82 -31 148.5t-89 66.5z" />
    <glyph glyph-name="lambda" unicode="&#x3bb;" horiz-adv-x="528" 
d="M283 608l115 -454q16 -62 24 -79.5t23 -17.5q12 0 27 27t32 27q18 0 28.5 -13.5t10.5 -33.5q0 -32 -26.5 -52.5t-63.5 -20.5q-86 0 -115 111l-50 204l-141 -306h-125l223 481l-29 121q-18 74 -58 74q-16 0 -41 -35t-43 -35q-41 0 -41 44q0 33 32.5 58.5t83.5 25.5
q54 0 87.5 -35.5t46.5 -90.5z" />
    <glyph glyph-name="pi" unicode="&#x3c0;" horiz-adv-x="544" 
d="M174 22q-32 -44 -78 -33q-33 8 -38 34q-5 23 22 44q64 48 89 115.5t25 179.5h-31q-35 0 -53 -13t-27 -48l-27 5q15 73 37.5 103t62.5 30h332v-77h-91l-21 -229q-3 -51 27 -51q34 0 55 62l30 -3q-13 -78 -43 -113t-69 -35q-48 0 -70.5 29t-17.5 79l27 261h-69
q-5 -227 -72 -340z" />
    <glyph glyph-name="Wgrave" unicode="&#x1e80;" horiz-adv-x="977" 
d="M670 234h6l80 263q21 59 9.5 86t-67.5 23v85h259v-85q-40 0 -60.5 -24t-42.5 -87l-162 -501h-98l-105 331l-110 -331h-86l-186 536q-16 46 -33.5 61t-53.5 15v85h296v-85q-68 3 -43 -76l96 -296h7l74 214l-26 82q-15 47 -27 61.5t-43 14.5v85h283v-85q-44 -1 -53 -17
t4 -59zM574 758v-18h-71l-139 117v20h124z" />
    <glyph glyph-name="wgrave" unicode="&#x1e81;" horiz-adv-x="767" 
d="M475 -2l-87 235l-78 -235h-102l-127 333q-22 56 -37 72.5t-42 16.5v75h248v-75q-34 -1 -39 -19t13 -61l62 -175h6l58 174l-6 16q-10 36 -22.5 49.5t-37.5 15.5v75h251v-75q-45 0 -55 -15t5 -46l63 -194h4l47 160q8 27 10 34t4 24t-3.5 22t-17.5 10t-33 5v75h206v-75
q-50 0 -85 -101l-101 -321h-104zM483 576v-18h-71l-139 152v20h124z" />
    <glyph glyph-name="Wacute" unicode="&#x1e82;" horiz-adv-x="977" 
d="M670 234h6l80 263q21 59 9.5 86t-67.5 23v85h259v-85q-40 0 -60.5 -24t-42.5 -87l-162 -501h-98l-105 331l-110 -331h-86l-186 536q-16 46 -33.5 61t-53.5 15v85h296v-85q-68 3 -43 -76l96 -296h7l74 214l-26 82q-15 47 -27 61.5t-43 14.5v85h283v-85q-44 -1 -53 -17
t4 -59zM434 740v18l86 119h124v-20l-139 -117h-71z" />
    <glyph glyph-name="wacute" unicode="&#x1e83;" horiz-adv-x="767" 
d="M475 -2l-87 235l-78 -235h-102l-127 333q-22 56 -37 72.5t-42 16.5v75h248v-75q-34 -1 -39 -19t13 -61l62 -175h6l58 174l-6 16q-10 36 -22.5 49.5t-37.5 15.5v75h251v-75q-45 0 -55 -15t5 -46l63 -194h4l47 160q8 27 10 34t4 24t-3.5 22t-17.5 10t-33 5v75h206v-75
q-50 0 -85 -101l-101 -321h-104zM333 558v18l86 154h124v-20l-139 -152h-71z" />
    <glyph glyph-name="Wdieresis" unicode="&#x1e84;" horiz-adv-x="977" 
d="M670 234h6l80 263q21 59 9.5 86t-67.5 23v85h259v-85q-40 0 -60.5 -24t-42.5 -87l-162 -501h-98l-105 331l-110 -331h-86l-186 536q-16 46 -33.5 61t-53.5 15v85h296v-85q-68 3 -43 -76l96 -296h7l74 214l-26 82q-15 47 -27 61.5t-43 14.5v85h283v-85q-44 -1 -53 -17
t4 -59zM668 838q0 -27 -21 -47.5t-47 -20.5q-28 0 -49 20.5t-21 47.5q0 28 21 49t49 21q26 0 47 -21.5t21 -48.5zM478 838q0 -27 -20 -47.5t-49 -20.5q-27 0 -48 20.5t-21 47.5q0 28 21 49t48 21q29 0 49 -21t20 -49z" />
    <glyph glyph-name="wdieresis" unicode="&#x1e85;" horiz-adv-x="767" 
d="M475 -2l-87 235l-78 -235h-102l-127 333q-22 56 -37 72.5t-42 16.5v75h248v-75q-34 -1 -39 -19t13 -61l62 -175h6l58 174l-6 16q-10 36 -22.5 49.5t-37.5 15.5v75h251v-75q-45 0 -55 -15t5 -46l63 -194h4l47 160q8 27 10 34t4 24t-3.5 22t-17.5 10t-33 5v75h206v-75
q-50 0 -85 -101l-101 -321h-104zM572 636q0 -27 -21 -47.5t-47 -20.5q-28 0 -49 20.5t-21 47.5q0 28 21 49t49 21q26 0 47 -21.5t21 -48.5zM382 636q0 -27 -20 -47.5t-49 -20.5q-27 0 -48 20.5t-21 47.5q0 28 21 49t48 21q29 0 49 -21t20 -49z" />
    <glyph glyph-name="uni1e9e" unicode="&#x1e9e;" horiz-adv-x="773" 
d="M524 -12q-93 0 -165 35l-6 178h83q13 -135 77 -135q68 0 68 127q0 61 -21 101.5t-63 39.5q-50 0 -101 -34l-78 70l173 235l-5 12h-207v-496q0 -6 0.5 -10.5t1 -8t2.5 -6t2.5 -4.5t4.5 -3.5t5 -2.5t6.5 -2t7.5 -1.5t9.5 -1.5t10.5 -1v-80h-297v80q56 7 69 17q13 11 13 31
v443q0 24 -14.5 30t-67.5 6v84h635l10 -66l-157 -204l7 -11q97 21 158.5 -36t61.5 -163q0 -58 -20.5 -102.5t-54 -70t-71 -38t-77.5 -12.5z" />
    <glyph glyph-name="Ygrave" unicode="&#x1ef2;" horiz-adv-x="684" 
d="M664 609l-2 -2q-60 0 -103 -79l-128 -228v-129q0 -58 17 -72t74 -14v-85h-333v85q57 0 70 13t13 73v129l-134 218q-28 43 -39 56.5t-29.5 23t-49.5 9.5v84h340v-84q-57 0 -68.5 -13.5t12.5 -54.5l84 -150l77 149q18 27 4.5 47.5t-56.5 21.5v84h251v-82zM459 758v-18h-71
l-139 117v20h124z" />
    <glyph glyph-name="ygrave" unicode="&#x1ef3;" horiz-adv-x="524" 
d="M299 165h6l57 172q14 49 4 66t-49 17v75h205v-75q-28 0 -44 -20.5t-33 -65.5l-167 -449q-35 -110 -137 -110q-58 0 -87 29.5t-29 68.5q0 37 21 59t50 22q31 0 50 -19t19 -50l-41 -26q6 -15 27 -15q32 0 47 45l41 108l-155 348q-10 22 -15 32t-14.5 22t-22 16.5t-30.5 4.5
v75h279v-75q-76 0 -49 -75zM376 576v-18h-71l-139 152v20h124z" />
    <glyph glyph-name="uni2011" unicode="&#x2011;" horiz-adv-x="318" 
d="M34 308h250v-113h-250v113z" />
    <glyph glyph-name="endash" unicode="&#x2013;" horiz-adv-x="488" 
d="M44 308h400v-113h-400v113z" />
    <glyph glyph-name="emdash" unicode="&#x2014;" horiz-adv-x="1000" 
d="M92 291h816v-83h-816v83z" />
    <glyph glyph-name="quoteright" unicode="&#x2019;" horiz-adv-x="355" 
d="M74 629q0 42 28 67t65 25q48 0 79 -36.5t31 -101.5q0 -141 -141 -222l-40 56q45 24 73.5 63.5t23.5 90.5q-26 -21 -55 -21q-28 0 -46 21t-18 58z" />
    <glyph glyph-name="quotesinglbase" unicode="&#x201a;" horiz-adv-x="355" 
d="M74 64q0 42 28 67t65 25q48 0 79 -36.5t31 -101.5q0 -141 -141 -222l-40 56q45 24 73.5 63.5t23.5 90.5q-26 -21 -55 -21q-28 0 -46 21t-18 58z" />
    <glyph glyph-name="quotedblleft" unicode="&#x201c;" horiz-adv-x="595" 
d="M281 453q0 -42 -28 -67t-65 -25q-48 0 -79 36.5t-31 101.5q0 141 141 222l40 -56q-45 -24 -73.5 -63.5t-23.5 -90.5q26 21 55 21q28 0 46 -21t18 -58zM521 453q0 -42 -28 -67t-65 -25q-48 0 -79 36.5t-31 101.5q0 141 141 222l40 -56q-45 -24 -73.5 -63.5t-23.5 -90.5
q26 21 55 21q28 0 46 -21t18 -58z" />
    <glyph glyph-name="quotedblright" unicode="&#x201d;" horiz-adv-x="595" 
d="M314 629q0 42 28 67t65 25q48 0 79 -36.5t31 -101.5q0 -141 -141 -222l-40 56q45 24 73.5 63.5t23.5 90.5q-26 -21 -55 -21q-28 0 -46 21t-18 58zM74 629q0 42 28 67t65 25q48 0 79 -36.5t31 -101.5q0 -141 -141 -222l-40 56q45 24 73.5 63.5t23.5 90.5q-26 -21 -55 -21
q-28 0 -46 21t-18 58z" />
    <glyph glyph-name="quotedblbase" unicode="&#x201e;" horiz-adv-x="595" 
d="M314 64q0 42 28 67t65 25q48 0 79 -36.5t31 -101.5q0 -141 -141 -222l-40 56q45 24 73.5 63.5t23.5 90.5q-26 -21 -55 -21q-28 0 -46 21t-18 58zM74 64q0 42 28 67t65 25q48 0 79 -36.5t31 -101.5q0 -141 -141 -222l-40 56q45 24 73.5 63.5t23.5 90.5q-26 -21 -55 -21
q-28 0 -46 21t-18 58z" />
    <glyph glyph-name="dagger" unicode="&#x2020;" horiz-adv-x="548" 
d="M498 480q0 -39 -22 -62t-48 -16q-6 2 -42.5 22t-77.5 20q0 -77 10 -115.5t43 -60.5q-18 -7 -28 -28.5t-17.5 -89t-7.5 -187.5h-68q0 175 -12 234.5t-41 70.5q53 40 53 176q-31 0 -51 -6.5t-39.5 -19.5t-29.5 -18q-25 -10 -47.5 16t-22.5 64q0 35 21.5 55t48.5 15
q13 -5 31 -16.5t38 -19t51 -7.5q-3 35 -9.5 58t-19 48t-16.5 35q-11 26 13 48t61 22q38 0 63.5 -22t17.5 -48q-2 -8 -22 -51t-20 -90q31 0 50.5 7t39 20t30.5 18q25 10 47.5 -14t22.5 -58z" />
    <glyph glyph-name="daggerdbl" unicode="&#x2021;" horiz-adv-x="548" 
d="M185 257q55 46 55 187q-31 0 -51 -6.5t-39.5 -19.5t-29.5 -18q-25 -10 -47.5 16t-22.5 64q0 35 21.5 55t48.5 15q13 -5 31 -16.5t38 -19t51 -7.5q0 36 -6.5 59t-20.5 47t-18 35q-11 25 14 47.5t65 22.5q36 0 60 -22t16 -48q-2 -8 -22 -51t-20 -90q31 0 50.5 7t39 20
t30.5 18q25 10 47.5 -14t22.5 -58q0 -39 -22 -62t-48 -16q-6 2 -42.5 22t-77.5 20q0 -74 11.5 -118.5t41.5 -68.5q-30 -25 -41.5 -66t-11.5 -121q31 0 51 6.5t39.5 19.5t29.5 18q25 10 47.5 -14.5t22.5 -60.5q0 -37 -21.5 -58.5t-48.5 -16.5q-13 5 -31 16.5t-38 19t-51 7.5
q0 -36 6.5 -59t20.5 -47t18 -35q11 -26 -13 -48t-61 -22q-38 0 -63.5 22t-17.5 48q2 8 22 51t20 90q-31 0 -50.5 -7t-39 -20t-30.5 -18q-25 -10 -47.5 14t-22.5 58q0 39 22 62t48 16q6 -2 42.5 -22t77.5 -20q0 80 -11 121.5t-44 65.5z" />
    <glyph glyph-name="bullet" unicode="&#x2022;" horiz-adv-x="572" 
d="M150 264q0 56 40 96t96 40t96 -40t40 -96t-40 -96t-96 -40t-96 40t-40 96z" />
    <glyph glyph-name="ellipsis" unicode="&#x2026;" horiz-adv-x="899" 
d="M59 73q0 39 25.5 65.5t63.5 26.5t65 -27t27 -65q0 -36 -27 -60.5t-65 -24.5t-63.5 24.5t-25.5 60.5zM359 73q0 39 25.5 65.5t63.5 26.5t65 -27t27 -65q0 -36 -27 -60.5t-65 -24.5t-63.5 24.5t-25.5 60.5zM659 73q0 39 25.5 65.5t63.5 26.5t65 -27t27 -65q0 -36 -27 -60.5
t-65 -24.5t-63.5 24.5t-25.5 60.5z" />
    <glyph glyph-name="perthousand" unicode="&#x2030;" horiz-adv-x="831" 
d="M533 121q0 77 48 132.5t104 55.5q50 0 81 -33t31 -90q0 -88 -46 -142.5t-102 -54.5q-52 0 -84 37t-32 95zM703 246q-29 0 -54 -48.5t-25 -103.5q0 -22 8.5 -34t21.5 -12q28 0 52.5 37.5t24.5 109.5q0 24 -8 37.5t-20 13.5zM341 542q-22 0 -41 11q-6 -77 -49.5 -127
t-99.5 -50q-50 0 -82 37t-32 96q0 76 48.5 132t104.5 56q36 0 63 -20t39 -54v1q12 -28 56 -28q37 0 72 25q8 27 23.5 48.5t38.5 21.5q13 0 23.5 -7.5t10.5 -23.5q0 -18 -14 -37.5t-32 -29.5l-183 -279v1l-216 -337l-48 37l223 330l-1 -1l122 201q-14 -3 -26 -3zM253 121
q0 77 48.5 132.5t105.5 55.5q49 0 80 -33t31 -90q0 -88 -46 -142.5t-102 -54.5q-52 0 -84.5 37t-32.5 95zM423 246q-28 0 -52.5 -48.5t-24.5 -103.5q0 -46 29 -46t53.5 37.5t24.5 109.5q0 24 -8.5 37.5t-21.5 13.5zM207 632q-29 0 -53.5 -47t-24.5 -102q0 -47 31 -47
q29 0 52.5 38t23.5 108q0 24 -8.5 37t-20.5 13z" />
    <glyph glyph-name="uni2032" unicode="&#x2032;" horiz-adv-x="290" 
d="M60 419l76 318l128 -45l-142 -295z" />
    <glyph glyph-name="uni2033" unicode="&#x2033;" horiz-adv-x="480" 
d="M60 419l76 318l128 -45l-142 -295zM250 419l76 318l128 -45l-142 -295z" />
    <glyph glyph-name="guilsinglleft" unicode="&#x2039;" horiz-adv-x="445" 
d="M88 240l202 224l54 -34l-99 -192v-15l99 -198l-54 -34l-202 226v23z" />
    <glyph glyph-name="guilsinglright" unicode="&#x203a;" horiz-adv-x="445" 
d="M155 464l202 -224v-23l-202 -226l-54 34l99 198v15l-99 192z" />
    <glyph glyph-name="uni2042" unicode="&#x2042;" horiz-adv-x="896" 
d="M618 498q29 -8 20 -46q-8 -36 -34 -47q-19 -8 -37 7q-8 7 -22 22.5t-32.5 32.5t-44.5 34q7 -37 17.5 -77t12.5 -54q6 -28 -28 -39q-36 -11 -58 7q-15 12 -11 32q2 13 11.5 51.5t15.5 79.5q-28 -17 -46 -33.5t-31.5 -33t-20.5 -22.5q-24 -21 -53 8q-26 26 -19 53
q6 16 22 23q10 4 51 19t75 29q-37 17 -78 25.5t-47 10.5q-29 11 -19 50q8 33 33 42q17 6 33 -7q70 -64 100 -85q-6 40 -17.5 77.5t-13.5 49.5q-5 29 31 40q37 10 60 -9q14 -12 10 -31q-1 -6 -14.5 -47.5t-18.5 -79.5q51 36 102 85q24 21 53 -8q27 -27 20 -54q-4 -17 -23 -23
q-6 -2 -45.5 -11t-79.5 -25q53 -23 126 -46zM398 108q29 -8 20 -46q-8 -36 -34 -47q-19 -8 -37 7q-8 7 -22 22.5t-32.5 32.5t-44.5 34q7 -37 17.5 -77t12.5 -54q6 -28 -28 -39q-36 -11 -58 7q-15 12 -11 32q2 13 11.5 51.5t15.5 79.5q-28 -17 -46 -33.5t-31.5 -33
t-20.5 -22.5q-24 -21 -53 8q-26 26 -19 53q4 16 22 23q10 4 51 19t75 29q-37 17 -78 25.5t-47 10.5q-29 11 -19 50q8 33 33 42q17 6 33 -7q70 -64 100 -85q-6 40 -17.5 77.5t-13.5 49.5q-5 29 31 40q37 10 60 -9q13 -13 10 -31q-1 -6 -14.5 -47.5t-18.5 -79.5q51 36 102 85
q24 21 53 -8q27 -27 20 -54q-4 -17 -23 -23q-6 -2 -45.5 -11t-79.5 -25q53 -23 126 -46zM838 108q29 -8 20 -46q-8 -36 -34 -47q-19 -8 -37 7q-8 7 -22 22.5t-32.5 32.5t-44.5 34q7 -37 17.5 -77t12.5 -54q6 -28 -28 -39q-36 -11 -58 7q-15 12 -11 32q2 13 11.5 51.5
t15.5 79.5q-28 -17 -46 -33.5t-31.5 -33t-20.5 -22.5q-24 -21 -53 8q-26 26 -19 53q4 16 22 23q10 4 51 19t75 29q-37 17 -78 25.5t-47 10.5q-29 11 -19 50q8 33 33 42q18 5 33 -7q70 -64 100 -85q-6 40 -17.5 77.5t-13.5 49.5q-5 29 31 40q37 10 60 -9q13 -13 10 -31
q-1 -6 -14.5 -47.5t-18.5 -79.5q51 36 102 85q24 21 53 -8q27 -27 20 -54q-4 -17 -23 -23q-6 -2 -45.5 -11t-79.5 -25q53 -23 126 -46z" />
    <glyph glyph-name="fraction" unicode="&#x2044;" 
d="M141 -8l241 370l223 353l50 -36l-234 -349l-231 -375z" />
    <glyph glyph-name="zero.sups" unicode="&#x2070;" horiz-adv-x="331" 
d="M324 601q0 -92 -45.5 -142t-113.5 -50q-69 0 -112.5 46.5t-43.5 145.5q0 95 44.5 148t111.5 53q68 0 113.5 -52.5t45.5 -148.5zM211 601q0 83 -11 113.5t-35 30.5q-23 0 -33 -31t-10 -113q0 -78 10.5 -107t32.5 -29q24 0 35 28t11 108z" />
    <glyph glyph-name="four.sups" unicode="&#x2074;" horiz-adv-x="322" 
d="M12 524l-6 23l197 256l61 -8v-224h51v-47h-51v-20q0 -27 10 -33.5t40 -6.5v-49h-199v49q27 0 36.5 7t9.5 30v23h-149zM97 573l2 -2h62v86z" />
    <glyph glyph-name="five.sups" unicode="&#x2075;" horiz-adv-x="316" 
d="M106 712l-6 -64q30 17 70 17q52 0 92 -29.5t40 -84.5q0 -63 -50 -102.5t-117 -39.5q-54 0 -92 22.5t-38 61.5q0 21 16.5 36.5t40.5 15.5q21 0 37 -10.5t16 -27.5q0 -21 -23 -34q12 -16 39 -16q26 0 43 21t17 61q0 75 -46 75q-31 0 -57 -31h-57l16 223q71 -21 128 -21
q51 0 108 21v-44q-50 -53 -138 -53q-19 0 -39 3z" />
    <glyph glyph-name="six.sups" unicode="&#x2076;" horiz-adv-x="333" 
d="M188 802q55 0 86 -22t31 -50q0 -23 -16.5 -36.5t-39.5 -13.5q-20 0 -34 10t-14 25q0 16 18 26q-12 15 -26 15q-24 0 -43 -29t-22 -77q28 16 65 16q61 0 95 -34t34 -87q0 -63 -44 -99.5t-105 -36.5q-64 0 -111 44.5t-47 136.5q0 89 50 150.5t123 61.5zM206 545
q0 68 -34 68q-23 0 -45 -38l1 1q0 -58 10.5 -84.5t35.5 -26.5q32 0 32 80z" />
    <glyph glyph-name="seven.sups" unicode="&#x2077;" horiz-adv-x="305" 
d="M202 711l-3 3q-18 -5 -35 -5q-13 0 -31 4q-12 3 -24 3q-37 0 -45 -57h-52l19 143h47l4 -8q21 8 48 8q24 0 52 -10q26 -10 42 -10q21 0 66 28l28 -46q-69 -75 -97 -134t-34 -167q-1 -18 -3.5 -26.5t-15 -16t-37.5 -7.5q-32 0 -47 13t-13 39q17 117 131 246z" />
    <glyph glyph-name="eight.sups" unicode="&#x2078;" horiz-adv-x="322" 
d="M240 625v-4l-7 2q80 -29 80 -98q0 -50 -46.5 -83t-110.5 -33q-63 0 -104 26.5t-41 70.5q0 28 21.5 54t53.5 39l-6 -2v5l5 -2q-63 42 -63 97q0 42 37 73.5t108 31.5q59 0 95.5 -25.5t36.5 -65.5q0 -47 -64 -88zM199 703q0 21 -10.5 35.5t-27.5 14.5q-18 0 -28.5 -13
t-10.5 -30q0 -41 58 -62q19 19 19 55zM211 512q0 44 -73 62q-29 -17 -28 -66q1 -24 15.5 -36.5t37.5 -12.5q20 0 34 14t14 39z" />
    <glyph glyph-name="nine.sups" unicode="&#x2079;" horiz-adv-x="333" 
d="M147 409q-55 0 -86 21t-31 52q0 22 16 36t40 14q17 0 32 -10t15 -27q0 -11 -16 -27q10 -10 24 -10q28 0 46.5 32t21.5 77q-24 -19 -57 -19q-64 0 -101.5 32.5t-37.5 83.5q0 65 45.5 101.5t109.5 36.5q62 0 108 -44t46 -136q0 -89 -51 -151t-124 -62zM129 669
q0 -72 32 -72t50 46l-1 -1q0 105 -38 105q-43 0 -43 -78z" />
    <glyph glyph-name="Euro" unicode="&#x20ac;" horiz-adv-x="645" 
d="M68 402h50q21 125 97 199t179 74q108 0 199 -66l-32 -143h-46q-8 82 -42.5 115.5t-78.5 33.5q-51 0 -88 -53.5t-48 -159.5h284l-12 -51h-276v-34v-12h265l-11 -51h-251q11 -99 52.5 -151.5t92.5 -52.5q101 0 135 113l51 -13q-50 -162 -206 -162q-104 0 -178 70t-90 196
h-57l11 51h43v11q0 23 1 35h-55z" />
    <glyph glyph-name="uni2117" unicode="&#x2117;" horiz-adv-x="775" 
d="M48 327q0 138 100.5 238t239.5 100q144 0 241.5 -99t97.5 -239t-100 -240.5t-239 -100.5q-142 0 -241 96.5t-99 244.5zM108 324q0 -122 79 -203.5t203 -81.5q123 0 199.5 81t76.5 204q0 125 -79 208t-199 83q-122 0 -201 -83.5t-79 -207.5zM412 296h-41v-119l50 -8v-27
h-176v27l47 8v299l-47 8v26h169q56 0 98 -26.5t42 -80.5q0 -49 -38 -78t-104 -29zM371 470v-136h45q23 0 40.5 18t17.5 47q0 71 -62 71h-41z" />
    <glyph glyph-name="trademark" unicode="&#x2122;" horiz-adv-x="670" 
d="M535 634h-7l-78 -179h-17l-74 179h-5l-15 -150l33 -6v-23h-92v23l33 6l19 193l-38 6v23h94l62 -165h7l71 165h92v-23l-35 -6l12 -193l31 -6v-23h-118v23l34 6zM55 706h210l14 -74h-20l-32 47h-38v-195l32 -6v-23h-121v23l32 6v195h-37l-32 -47h-21z" />
    <glyph glyph-name="oneseventh" unicode="&#x2150;" 
d="M141 -8l241 370l223 353l50 -36l-234 -349l-231 -375zM63 622v46q22 -2 41 -2q54 0 107 18h37v-295q0 -22 15.5 -28t53.5 -6v-49h-246v49q37 0 52.5 7.5t15.5 26.5v219q-46 2 -76 14zM638 286l-3 3q-18 -5 -35 -5q-13 0 -31 4q-12 3 -24 3q-37 0 -45 -57h-52l19 143h47
l4 -8q21 8 48 8q24 0 52 -10q26 -10 42 -10q21 0 66 28l28 -46q-69 -75 -97 -134t-34 -167q-1 -18 -3.5 -26.5t-15 -16t-37.5 -7.5q-32 0 -47 13t-13 39q17 117 131 246z" />
    <glyph glyph-name="oneninth" unicode="&#x2151;" 
d="M141 -8l241 370l223 353l50 -36l-234 -349l-231 -375zM63 622v46q22 -2 41 -2q54 0 107 18h37v-295q0 -22 15.5 -28t53.5 -6v-49h-246v49q37 0 52.5 7.5t15.5 26.5v219q-46 2 -76 14zM583 -16q-55 0 -86 21t-31 52q0 22 16 36t40 14q17 0 32 -10t15 -27q0 -11 -16 -27
q10 -10 24 -10q28 0 46.5 32t21.5 77q-24 -19 -57 -19q-64 0 -101.5 32.5t-37.5 83.5q0 65 45.5 101.5t109.5 36.5q62 0 108 -44t46 -136q0 -89 -51 -151t-124 -62zM565 244q0 -72 32 -72t50 46l-1 -1q0 105 -38 105q-43 0 -43 -78z" />
    <glyph glyph-name="onethird" unicode="&#x2153;" 
d="M141 -8l241 370l223 353l50 -36l-234 -349l-231 -375zM63 622v46q22 -2 41 -2q54 0 107 18h37v-295q0 -22 15.5 -28t53.5 -6v-49h-246v49q37 0 52.5 7.5t15.5 26.5v219q-46 2 -76 14zM643 197l3 -5q38 -6 65 -28.5t27 -60.5q0 -57 -50 -88t-116 -31q-57 0 -94.5 21.5
t-37.5 59.5q0 25 16 40t43 15q22 0 37.5 -11.5t15.5 -29.5q0 -22 -28 -39q11 -7 36 -7q28 0 47 16.5t19 51.5q0 54 -51 54q-20 0 -58 -13l-11 42q56 22 80.5 48t24.5 63t-34 37q-17 0 -35 -14q24 -17 24 -38q0 -17 -15.5 -28.5t-37.5 -11.5q-26 0 -42 14t-16 36
q0 41 41.5 64t94.5 23q60 0 98 -23.5t38 -63.5q0 -52 -84 -93z" />
    <glyph glyph-name="twothirds" unicode="&#x2154;" 
d="M141 -8l241 370l223 353l50 -36l-234 -349l-231 -375zM126 393l4 -6h82q24 0 29 41h58l-20 -122h-273l-13 46l22 19q31 25 47.5 40t48.5 47.5t48.5 65.5t16.5 64q0 53 -40 53q-28 0 -44 -29q36 -25 36 -50q0 -20 -17 -33t-43 -13q-29 0 -45.5 16.5t-16.5 42.5q0 52 43 85
t98 33q64 0 102 -29t38 -80q0 -33 -29 -71.5t-55.5 -60.5t-76.5 -59zM643 197l3 -5q38 -6 65 -28.5t27 -60.5q0 -57 -50 -88t-116 -31q-57 0 -94.5 21.5t-37.5 59.5q0 25 16 40t43 15q22 0 37.5 -11.5t15.5 -29.5q0 -22 -28 -39q11 -7 36 -7q28 0 47 16.5t19 51.5
q0 54 -51 54q-20 0 -58 -13l-11 42q56 22 80.5 48t24.5 63t-34 37q-17 0 -35 -14q24 -17 24 -38q0 -17 -15.5 -28.5t-37.5 -11.5q-26 0 -42 14t-16 36q0 41 41.5 64t94.5 23q60 0 98 -23.5t38 -63.5q0 -52 -84 -93z" />
    <glyph glyph-name="onefifth" unicode="&#x2155;" 
d="M141 -8l241 370l223 353l50 -36l-234 -349l-231 -375zM63 622v46q22 -2 41 -2q54 0 107 18h37v-295q0 -22 15.5 -28t53.5 -6v-49h-246v49q37 0 52.5 7.5t15.5 26.5v219q-46 2 -76 14zM542 287l-6 -64q30 17 70 17q52 0 92 -29.5t40 -84.5q0 -63 -50 -102.5t-117 -39.5
q-54 0 -92 22.5t-38 61.5q0 21 16.5 36.5t40.5 15.5q21 0 37 -10.5t16 -27.5q0 -21 -23 -34q12 -16 39 -16q26 0 43 21t17 61q0 75 -46 75q-31 0 -57 -31h-57l16 223q70 -21 128 -21q51 0 108 21v-44q-50 -53 -138 -53q-19 0 -39 3z" />
    <glyph glyph-name="twofifths" unicode="&#x2156;" 
d="M141 -8l241 370l223 353l50 -36l-234 -349l-231 -375zM126 393l4 -6h82q24 0 29 41h58l-20 -122h-273l-13 46l22 19q31 25 47.5 40t48.5 47.5t48.5 65.5t16.5 64q0 53 -40 53q-28 0 -44 -29q36 -25 36 -50q0 -20 -17 -33t-43 -13q-29 0 -45.5 16.5t-16.5 42.5q0 52 43 85
t98 33q64 0 102 -29t38 -80q0 -33 -29 -71.5t-55.5 -60.5t-76.5 -59zM542 287l-6 -64q30 17 70 17q52 0 92 -29.5t40 -84.5q0 -63 -50 -102.5t-117 -39.5q-54 0 -92 22.5t-38 61.5q0 21 16.5 36.5t40.5 15.5q21 0 37 -10.5t16 -27.5q0 -21 -23 -34q12 -16 39 -16q26 0 43 21
t17 61q0 75 -46 75q-31 0 -57 -31h-57l16 223q70 -21 128 -21q51 0 108 21v-44q-50 -53 -138 -53q-19 0 -39 3z" />
    <glyph glyph-name="threefifths" unicode="&#x2157;" 
d="M141 -8l241 370l223 353l50 -36l-234 -349l-231 -375zM237 513l3 -5q38 -6 65 -28.5t27 -60.5q0 -57 -50 -88t-116 -31q-57 0 -94.5 21.5t-37.5 59.5q0 25 16 40t43 15q22 0 37.5 -11.5t15.5 -29.5q0 -22 -28 -39q11 -7 36 -7q28 0 47 16.5t19 51.5q0 54 -51 54
q-20 0 -58 -13l-11 42q56 22 80.5 48t24.5 63t-34 37q-17 0 -35 -14q24 -17 24 -38q0 -17 -15.5 -28.5t-37.5 -11.5q-26 0 -42 14t-16 36q0 41 41.5 64t94.5 23q60 0 98 -23.5t38 -63.5q0 -52 -84 -93zM542 287l-6 -64q30 17 70 17q52 0 92 -29.5t40 -84.5q0 -63 -50 -102.5
t-117 -39.5q-54 0 -92 22.5t-38 61.5q0 21 16.5 36.5t40.5 15.5q21 0 37 -10.5t16 -27.5q0 -21 -23 -34q12 -16 39 -16q26 0 43 21t17 61q0 75 -46 75q-31 0 -57 -31h-57l16 223q70 -21 128 -21q51 0 108 21v-44q-50 -53 -138 -53q-19 0 -39 3z" />
    <glyph glyph-name="fourfifths" unicode="&#x2158;" 
d="M141 -8l241 370l223 353l50 -36l-234 -349l-231 -375zM-2 415l-6 23l197 256l61 -8v-224h51v-47h-51v-20q0 -27 10 -33.5t40 -6.5v-49h-199v49q27 0 36.5 7t9.5 30v23h-149zM83 464l2 -2h62v86zM542 287l-6 -64q30 17 70 17q52 0 92 -29.5t40 -84.5q0 -63 -50 -102.5
t-117 -39.5q-54 0 -92 22.5t-38 61.5q0 21 16.5 36.5t40.5 15.5q21 0 37 -10.5t16 -27.5q0 -21 -23 -34q12 -16 39 -16q26 0 43 21t17 61q0 75 -46 75q-31 0 -57 -31h-57l16 223q70 -21 128 -21q51 0 108 21v-44q-50 -53 -138 -53q-19 0 -39 3z" />
    <glyph glyph-name="onesixth" unicode="&#x2159;" 
d="M141 -8l241 370l223 353l50 -36l-234 -349l-231 -375zM63 622v46q22 -2 41 -2q54 0 107 18h37v-295q0 -22 15.5 -28t53.5 -6v-49h-246v49q37 0 52.5 7.5t15.5 26.5v219q-46 2 -76 14zM604 377q55 0 86 -22t31 -50q0 -23 -16.5 -36.5t-39.5 -13.5q-20 0 -34 10t-14 25
q0 16 18 26q-12 15 -26 15q-24 0 -43 -29t-22 -77q28 16 65 16q61 0 95 -34t34 -87q0 -63 -44 -99.5t-105 -36.5q-64 0 -111 44.5t-47 136.5q0 89 50 150.5t123 61.5zM622 120q0 68 -34 68q-23 0 -45 -38l1 1q0 -58 10.5 -84.5t35.5 -26.5q32 0 32 80z" />
    <glyph glyph-name="fivesixths" unicode="&#x215a;" 
d="M141 -8l241 370l223 353l50 -36l-234 -349l-231 -375zM132 603l-6 -64q30 17 70 17q52 0 92 -29.5t40 -84.5q0 -63 -50 -102.5t-117 -39.5q-54 0 -92 22.5t-38 61.5q0 21 16.5 36.5t40.5 15.5q21 0 37 -10.5t16 -27.5q0 -21 -23 -34q12 -16 39 -16q26 0 43 21t17 61
q0 75 -46 75q-31 0 -57 -31h-57l16 223q70 -21 128 -21q51 0 108 21v-44q-50 -53 -138 -53q-19 0 -39 3zM604 377q55 0 86 -22t31 -50q0 -23 -16.5 -36.5t-39.5 -13.5q-20 0 -34 10t-14 25q0 16 18 26q-12 15 -26 15q-24 0 -43 -29t-22 -77q28 16 65 16q61 0 95 -34t34 -87
q0 -63 -44 -99.5t-105 -36.5q-64 0 -111 44.5t-47 136.5q0 89 50 150.5t123 61.5zM622 120q0 68 -34 68q-23 0 -45 -38l1 1q0 -58 10.5 -84.5t35.5 -26.5q32 0 32 80z" />
    <glyph glyph-name="oneeighth" unicode="&#x215b;" 
d="M141 -8l241 370l223 353l50 -36l-234 -349l-231 -375zM63 622v46q22 -2 41 -2q54 0 107 18h37v-295q0 -22 15.5 -28t53.5 -6v-49h-246v49q37 0 52.5 7.5t15.5 26.5v219q-46 2 -76 14zM676 200v-4l-7 2q80 -29 80 -98q0 -50 -46.5 -83t-110.5 -33q-63 0 -104 26.5
t-41 70.5q0 28 21.5 54t53.5 39l-6 -2v5l5 -2q-63 42 -63 97q0 42 37 73.5t108 31.5q59 0 95.5 -25.5t36.5 -65.5q0 -47 -64 -88zM635 278q0 21 -10.5 35.5t-27.5 14.5q-18 0 -28.5 -13t-10.5 -30q0 -41 58 -62q19 19 19 55zM647 87q0 44 -73 62q-29 -17 -28 -66
q1 -24 15.5 -36.5t37.5 -12.5q20 0 34 14t14 39z" />
    <glyph glyph-name="threeeighths" unicode="&#x215c;" 
d="M141 -8l241 370l223 353l50 -36l-234 -349l-231 -375zM237 513l3 -5q38 -6 65 -28.5t27 -60.5q0 -57 -50 -88t-116 -31q-57 0 -94.5 21.5t-37.5 59.5q0 25 16 40t43 15q22 0 37.5 -11.5t15.5 -29.5q0 -22 -28 -39q11 -7 36 -7q28 0 47 16.5t19 51.5q0 54 -51 54
q-20 0 -58 -13l-11 42q56 22 80.5 48t24.5 63t-34 37q-17 0 -35 -14q24 -17 24 -38q0 -17 -15.5 -28.5t-37.5 -11.5q-26 0 -42 14t-16 36q0 41 41.5 64t94.5 23q60 0 98 -23.5t38 -63.5q0 -52 -84 -93zM676 200v-4l-7 2q80 -29 80 -98q0 -50 -46.5 -83t-110.5 -33
q-63 0 -104 26.5t-41 70.5q0 28 21.5 54t53.5 39l-6 -2v5l5 -2q-63 42 -63 97q0 42 37 73.5t108 31.5q59 0 95.5 -25.5t36.5 -65.5q0 -47 -64 -88zM635 278q0 21 -10.5 35.5t-27.5 14.5q-18 0 -28.5 -13t-10.5 -30q0 -41 58 -62q19 19 19 55zM647 87q0 44 -73 62
q-29 -17 -28 -66q1 -24 15.5 -36.5t37.5 -12.5q20 0 34 14t14 39z" />
    <glyph glyph-name="fiveeighths" unicode="&#x215d;" 
d="M141 -8l241 370l223 353l50 -36l-234 -349l-231 -375zM132 603l-6 -64q30 17 70 17q52 0 92 -29.5t40 -84.5q0 -63 -50 -102.5t-117 -39.5q-54 0 -92 22.5t-38 61.5q0 21 16.5 36.5t40.5 15.5q21 0 37 -10.5t16 -27.5q0 -21 -23 -34q12 -16 39 -16q26 0 43 21t17 61
q0 75 -46 75q-31 0 -57 -31h-57l16 223q70 -21 128 -21q51 0 108 21v-44q-50 -53 -138 -53q-19 0 -39 3zM676 200v-4l-7 2q80 -29 80 -98q0 -50 -46.5 -83t-110.5 -33q-63 0 -104 26.5t-41 70.5q0 28 21.5 54t53.5 39l-6 -2v5l5 -2q-63 42 -63 97q0 42 37 73.5t108 31.5
q59 0 95.5 -25.5t36.5 -65.5q0 -47 -64 -88zM635 278q0 21 -10.5 35.5t-27.5 14.5q-18 0 -28.5 -13t-10.5 -30q0 -41 58 -62q19 19 19 55zM647 87q0 44 -73 62q-29 -17 -28 -66q1 -24 15.5 -36.5t37.5 -12.5q20 0 34 14t14 39z" />
    <glyph glyph-name="seveneighths" unicode="&#x215e;" 
d="M141 -8l241 370l223 353l50 -36l-234 -349l-231 -375zM245 602l-3 3q-18 -5 -35 -5q-13 0 -31 4q-12 3 -24 3q-37 0 -45 -57h-52l19 143h47l4 -8q21 8 48 8q24 0 52 -10q26 -10 42 -10q21 0 66 28l28 -46q-69 -75 -97 -134t-34 -167q-1 -18 -3.5 -26.5t-15 -16
t-37.5 -7.5q-32 0 -47 13t-13 39q17 117 131 246zM676 200v-4l-7 2q80 -29 80 -98q0 -50 -46.5 -83t-110.5 -33q-63 0 -104 26.5t-41 70.5q0 28 21.5 54t53.5 39l-6 -2v5l5 -2q-63 42 -63 97q0 42 37 73.5t108 31.5q59 0 95.5 -25.5t36.5 -65.5q0 -47 -64 -88zM635 278
q0 21 -10.5 35.5t-27.5 14.5q-18 0 -28.5 -13t-10.5 -30q0 -41 58 -62q19 19 19 55zM647 87q0 44 -73 62q-29 -17 -28 -66q1 -24 15.5 -36.5t37.5 -12.5q20 0 34 14t14 39z" />
    <glyph glyph-name="uni2191" unicode="&#x2191;" horiz-adv-x="704" 
d="M359 605l264 -237l-46 -61l-183 163v-420h-84v420l-183 -163l-47 61l266 237h13z" />
    <glyph glyph-name="uni2193" unicode="&#x2193;" horiz-adv-x="704" 
d="M623 287l-264 -237h-13l-266 237l47 61l183 -163v420h84v-420l183 163z" />
    <glyph glyph-name="partialdiff" unicode="&#x2202;" horiz-adv-x="544" 
d="M285 584q-77 0 -99 -120h-50l12 113q20 25 62 43t86 18q98 0 150 -78t52 -201q0 -179 -74 -275t-197 -96q-76 0 -128.5 48t-52.5 134q0 105 69.5 167t152.5 62q36 0 69 -15.5t49 -43.5l5 3v39q0 103 -25.5 152.5t-80.5 49.5zM373 270q-8 28 -32.5 47.5t-52.5 19.5
q-51 0 -85.5 -45.5t-34.5 -122.5q0 -56 19 -87.5t55 -31.5q53 0 92 60t39 160z" />
    <glyph glyph-name="product" unicode="&#x220f;" horiz-adv-x="544" 
d="M9 626h526v-40l-63 -15v-516l53 -15v-40h-232v40l53 15v516h-148v-516l53 -15v-40h-232v40l53 15v516l-63 15v40z" />
    <glyph glyph-name="summation" unicode="&#x2211;" horiz-adv-x="544" 
d="M190 119l5 -10h230l64 81h41l-50 -190h-465l-8 15l262 270v12l-242 317l8 12h441l26 -171h-36l-89 131h-180l-5 -7l191 -245v-16z" />
    <glyph glyph-name="minus" unicode="&#x2212;" horiz-adv-x="620" 
d="M573 221h-526v86h526v-86z" />
    <glyph glyph-name="radical" unicode="&#x221a;" horiz-adv-x="544" 
d="M326 96h13l145 660l60 -10l-195 -883h-57l-194 519l-79 -28l-18 43l194 67z" />
    <glyph glyph-name="infinity" unicode="&#x221e;" horiz-adv-x="544" 
d="M129 149q-60 0 -92 38.5t-32 88.5q0 54 36.5 92.5t87.5 38.5q74 0 141 -92q33 43 66.5 67.5t77.5 24.5q61 0 92.5 -38t31.5 -89q0 -54 -36.5 -92.5t-87.5 -38.5q-75 0 -141 91q-70 -91 -144 -91zM147 347q-29 0 -47.5 -19.5t-18.5 -51.5q0 -31 18.5 -50t44.5 -19
q23 0 43 18.5t47 55.5q-25 33 -44 49.5t-43 16.5zM396 209q29 0 47.5 19.5t18.5 51.5q0 31 -18.5 50t-44.5 19q-23 0 -42.5 -18.5t-47.5 -55.5q24 -33 43.5 -49.5t43.5 -16.5z" />
    <glyph glyph-name="integral" unicode="&#x222b;" horiz-adv-x="544" 
d="M325 497l12 -487q2 -94 -52 -154t-138 -60q-37 0 -61 16.5t-24 50.5q0 21 12.5 37.5t36.5 16.5q50 0 57 -64l26 -7q13 18 20.5 63.5t5.5 90.5l-12 487q-2 95 48.5 154t129.5 59q38 0 67.5 -19.5t29.5 -55.5q0 -21 -13 -37.5t-37 -16.5q-49 0 -56 64l-26 7
q-29 -38 -26 -145z" />
    <glyph glyph-name="approxequal" unicode="&#x2248;" horiz-adv-x="544" 
d="M431 408l63 -12q-17 -62 -52 -104t-89 -42q-35 0 -89.5 36t-79.5 36q-24 0 -43 -10.5t-26.5 -20.5t-20.5 -31l-54 22q18 44 57 81.5t87 37.5q34 0 89 -35t81 -35q28 0 49.5 23t27.5 54zM447 229l57 -13q-14 -51 -54.5 -88.5t-84.5 -37.5q-43 0 -100.5 35.5t-80.5 35.5
q-39 0 -72 -64l-56 20q2 3 10 19t12.5 23.5t14.5 22.5t18.5 23t20 17.5t24.5 13.5t28 4q32 0 90 -35t91 -35q30 0 51.5 17t30.5 42z" />
    <glyph glyph-name="notequal" unicode="&#x2260;" horiz-adv-x="620" 
d="M494 491l-58 -107h137v-87h-183l-46 -86h229v-86h-275l-85 -159l-79 40l64 119h-151v86h197l46 86h-243v87h289l79 146z" />
    <glyph glyph-name="lessequal" unicode="&#x2264;" horiz-adv-x="620" 
d="M567 0h-527v86h527v-86zM567 518l-409 -153q72 -25 210 -77.5t199 -74.5v-85l-527 198v79l527 198v-85z" />
    <glyph glyph-name="greaterequal" unicode="&#x2265;" horiz-adv-x="620" 
d="M580 0h-527v86h527v-86zM462 365l-409 153v85l527 -198v-79l-527 -198v85q61 22 199 74.5t210 77.5z" />
    <glyph glyph-name="lozenge" unicode="&#x25ca;" horiz-adv-x="544" 
d="M271 -98l-245 373l245 375l246 -375zM129 275l142 -216l143 216l-143 218z" />
    <glyph glyph-name="uni2605" unicode="&#x2605;" horiz-adv-x="574" 
d="M129 -8l-4 3l66 186l-166 118l2 5l201 -7l57 193h6l58 -193l199 5l1 -4l-163 -117l66 -188l-3 -1l-161 118z" />
    <glyph glyph-name="commaaccent" unicode="&#xf6c3;" horiz-adv-x="500" 
d="M194 -86q0 16 14 29t36 13q28 0 47 -24t19 -61q0 -67 -95 -117l-19 28q42 29 42 63q0 17 -22 35t-22 34z" />
    <glyph glyph-name="apple" unicode="&#xf8ff;" horiz-adv-x="544" 
d="M211 720h11l32 -121l-3 -82l68 -8l64 99l8 99h12l7 -99l-17 -129l36 -85l35 -38l1 -6l-7 -8v-18l8 -4l-1 -9l-17 -36l-36 7l-11 101l-34 56l-13 -2l26 -60l4 -99l-37 -46l3 -22l26 -37l7 -71l-64 -23l-33 16l-35 57l-75 25l-28 47l-3 42l-30 41l-2 58l4 27l-11 44z
M489 244l6 -9l-3 -37l-12 -17l-5 -33l23 -8l-3 -10l-23 7l-43 -26l-5 10l39 23l5 36l-36 14l-13 31l-1 10l14 15l24 4zM272 305l36 -14l11 13l-3 14l-11 10l-30 -10zM329 64l3 -4l-7 -21l-40 -43l-68 -23l-97 14l-55 48l-18 62l34 95l11 -1l-9 -71l22 -41l37 -33l88 -16
l48 3zM144 438l9 -9l33 34l11 76h-18z" />
    <glyph glyph-name="zero.tnum" horiz-adv-x="574" 
d="M547 336q0 -168 -74 -257t-188 -89q-115 0 -186.5 83t-71.5 263q0 174 73.5 269.5t184.5 95.5q113 0 187.5 -95t74.5 -270zM383 336q0 155 -23.5 211.5t-74.5 56.5q-50 0 -72 -57.5t-22 -210.5q0 -146 23 -199.5t71 -53.5q52 0 75 52t23 201z" />
    <glyph glyph-name="one.tnum" horiz-adv-x="574" 
d="M72 574v78q130 -11 259 33h45v-537q0 -19 6 -31t14.5 -19t26 -10.5t33.5 -4.5t45 -1v-82h-415v82q70 0 98 14.5t28 51.5v405q-88 0 -140 21z" />
    <glyph glyph-name="two.tnum" horiz-adv-x="574" 
d="M224 155l8 -15h166q28 0 47.5 20t24.5 57h70l-39 -217h-463l-24 84q3 3 53 42t89.5 76t88.5 90t77.5 110.5t28.5 109.5t-26.5 76.5t-65.5 24.5q-72 0 -98 -56q31 -19 48 -39t17 -52q0 -35 -26 -58.5t-66 -23.5q-45 0 -70.5 29t-25.5 76q0 93 73.5 152.5t167.5 59.5
q109 0 173.5 -52t64.5 -143q0 -46 -21.5 -90.5t-73 -94.5t-81 -74.5t-99.5 -77.5q-12 -9 -18 -14z" />
    <glyph glyph-name="three.tnum" horiz-adv-x="574" 
d="M362 375l4 -12q69 -8 118 -48.5t49 -113.5q0 -69 -43 -118.5t-105.5 -71t-135.5 -21.5q-97 0 -161 37.5t-64 105.5q0 43 24.5 70t65.5 27q34 0 56.5 -20t22.5 -52q0 -45 -48 -70q23 -18 81 -18t99.5 32t41.5 97q0 70 -57.5 92.5t-145.5 -6.5l-18 65q102 41 146.5 89
t44.5 115q0 71 -79 71q-48 0 -81 -30q42 -27 42 -67q0 -29 -22.5 -49t-55.5 -20q-40 0 -64.5 23.5t-24.5 62.5q0 73 71 114.5t159 41.5q102 0 166.5 -41.5t64.5 -113.5q0 -53 -43 -97.5t-108 -73.5z" />
    <glyph glyph-name="four.tnum" horiz-adv-x="574" 
d="M21 199l-10 41l354 461l81 -10v-412h95v-80h-95v-40q0 -52 18.5 -64.5t75.5 -12.5v-82h-330v82q50 0 67 13t17 57v47h-273zM143 284l2 -5h149v191l-8 4z" />
    <glyph glyph-name="five.tnum" horiz-adv-x="574" 
d="M164 411l8 -6q65 45 137 45q90 0 157 -53t67 -151q0 -114 -85 -185t-202 -71q-91 0 -155.5 39t-64.5 109q0 36 24.5 64t60.5 28q32 0 55.5 -18.5t23.5 -47.5q0 -41 -40 -62q26 -33 88 -33q56 0 92.5 39.5t36.5 115.5q0 70 -27.5 104.5t-76.5 34.5q-69 0 -116 -55h-75
l30 393q106 -30 209.5 -31t187.5 30v-73q-54 -57 -141.5 -78t-182.5 -1z" />
    <glyph glyph-name="six.tnum" horiz-adv-x="574" 
d="M325 701q92 0 144 -39.5t52 -89.5q0 -39 -24.5 -62.5t-60.5 -23.5q-29 0 -48.5 16.5t-19.5 42.5q0 31 31 47q-24 32 -64 32q-54 0 -96 -60t-43 -158l7 -3q48 50 132 50q102 0 160 -61.5t58 -157.5q0 -115 -75.5 -179.5t-180.5 -64.5q-50 0 -96 17.5t-86.5 54.5
t-64.5 102.5t-24 151.5q0 162 86.5 273.5t212.5 111.5zM377 234q0 66 -23 97t-59 31q-58 0 -99 -72q0 -107 24.5 -157t78.5 -50q78 0 78 151z" />
    <glyph glyph-name="seven.tnum" horiz-adv-x="574" 
d="M388 539l-10 15q-34 -15 -74 -15q-21 0 -52 6t-49 6q-86 0 -100 -104h-59l33 254h56l11 -22q51 22 98 22q36 0 87 -18t85 -18q50 0 111 41l45 -73q-64 -69 -102 -119t-70.5 -114t-48.5 -139t-22 -177q-1 -23 -3.5 -35t-10.5 -26t-25 -20t-45 -6q-99 0 -90 90
q19 129 78.5 235.5t156.5 216.5z" />
    <glyph glyph-name="eight.tnum" horiz-adv-x="574" 
d="M412 380v-7q134 -49 134 -176q0 -91 -79.5 -149t-190.5 -58q-108 0 -178 46t-70 125q0 54 36 100.5t92 67.5v9q-107 68 -107 174q0 76 63.5 132.5t183.5 56.5q101 0 162 -45.5t61 -117.5q0 -52 -28.5 -89t-78.5 -69zM374 523q0 41 -25 68t-64 27q-40 0 -64.5 -24.5
t-24.5 -57.5q0 -79 131 -122q24 25 35.5 49t11.5 60zM396 173q0 82 -155 120q-29 -14 -48.5 -47.5t-18.5 -79.5t32 -69.5t82 -23.5q44 0 76 26t32 74z" />
    <glyph glyph-name="nine.tnum" horiz-adv-x="574" 
d="M249 -10q-92 0 -144 36.5t-52 92.5q0 37 25 61.5t60 24.5q25 0 46.5 -16.5t21.5 -46.5q0 -25 -26 -50q16 -22 59 -22q62 0 103 69t42 161l-8 3q-18 -26 -50 -42.5t-67 -16.5q-111 0 -174 58t-63 150q0 117 78 183t187 66q50 0 95 -17.5t84.5 -54.5t63 -102.5t23.5 -151.5
q0 -162 -88 -273.5t-216 -111.5zM198 462q0 -71 21.5 -104t54.5 -33q76 0 110 86q0 102 -21.5 149.5t-68.5 47.5q-96 0 -96 -146z" />
    <glyph glyph-name="exclamdown.case" horiz-adv-x="359" 
d="M94 122q4 28 16 89t22 126t18 145h54q8 -78 20.5 -149t26 -135.5t15.5 -77.5q8 -53 -11 -92.5t-79 -39.5q-104 0 -82 134zM263 640q0 -36 -24.5 -61.5t-60.5 -25.5t-61.5 25.5t-25.5 61.5q0 34 25.5 57t61.5 23t60.5 -23t24.5 -57z" />
    <glyph glyph-name="questiondown.case" horiz-adv-x="510" 
d="M384 280l-12 -7q-60 23 -114 23q-42 0 -66 -27t-24 -77t31 -89t83 -39q38 0 57 12q-37 26 -37 63q0 27 17.5 43t52.5 16q37 0 59.5 -22t22.5 -63q0 -54 -47 -89.5t-124 -35.5q-98 0 -172.5 66t-74.5 174q0 89 51.5 146t130.5 57q61 0 94 -18l3 69h64zM432 636
q0 -34 -24.5 -58.5t-60.5 -24.5t-61.5 24.5t-25.5 58.5q0 36 25.5 60t61.5 24t60.5 -24t24.5 -60z" />
    <glyph glyph-name="hyphen.case" horiz-adv-x="318" 
d="M34 388h250v-113h-250v113z" />
    <glyph glyph-name="endash.case" horiz-adv-x="488" 
d="M44 388h400v-113h-400v113z" />
    <glyph glyph-name="emdash.case" horiz-adv-x="1000" 
d="M92 371h816v-83h-816v83z" />
    <glyph glyph-name="guilsinglleft.case" horiz-adv-x="445" 
d="M88 330l202 224l54 -34l-99 -192v-15l99 -198l-54 -34l-202 226v23z" />
    <glyph glyph-name="guilsinglright.case" horiz-adv-x="445" 
d="M155 554l202 -224v-23l-202 -226l-54 34l99 198v15l-99 192z" />
    <glyph glyph-name="guillemotleft.case" horiz-adv-x="652" 
d="M88 330l202 224l54 -34l-99 -192v-15l99 -198l-54 -34l-202 226v23zM295 330l202 224l54 -34l-99 -192v-15l99 -198l-54 -34l-202 226v23z" />
    <glyph glyph-name="guillemotright.case" horiz-adv-x="652" 
d="M362 554l202 -224v-23l-202 -226l-54 34l99 198v15l-99 192zM155 554l202 -224v-23l-202 -226l-54 34l99 198v15l-99 192z" />
    <glyph glyph-name="three.onum" horiz-adv-x="568" 
d="M361 208l4 -12q69 -8 118 -48.5t49 -113.5q0 -69 -43 -118.5t-105.5 -71t-135.5 -21.5q-97 0 -161 37.5t-64 105.5q0 43 24.5 70t65.5 27q34 0 56.5 -20t22.5 -52q0 -45 -48 -70q23 -18 81 -18t99.5 32t41.5 97q0 70 -57.5 92.5t-145.5 -6.5l-18 65q102 41 146.5 89
t44.5 115q0 71 -79 71q-48 0 -81 -30q42 -27 42 -67q0 -29 -22.5 -49t-55.5 -20q-40 0 -64.5 23.5t-24.5 62.5q0 73 71 114.5t159 41.5q102 0 166.5 -41.5t64.5 -113.5q0 -53 -43 -97.5t-108 -73.5z" />
    <glyph glyph-name="four.onum" horiz-adv-x="585" 
d="M36 32l-10 41l354 461l81 -10v-412h95v-80h-95v-40q0 -52 18.5 -64.5t75.5 -12.5v-82h-330v82q50 0 67 13t17 57v47h-273zM158 117l2 -5h149v191l-8 4z" />
    <glyph glyph-name="five.onum" horiz-adv-x="574" 
d="M164 244l8 -6q65 45 137 45q90 0 157 -53t67 -151q0 -114 -85 -185t-202 -71q-91 0 -155.5 39t-64.5 109q0 36 24.5 64t60.5 28q32 0 55.5 -18.5t23.5 -47.5q0 -41 -40 -62q26 -33 88 -33q56 0 92.5 39.5t36.5 115.5q0 70 -27.5 104.5t-76.5 34.5q-69 0 -116 -55h-75
l30 393q106 -30 209.5 -31t187.5 30v-73q-54 -57 -141.5 -78t-182.5 -1z" />
    <glyph glyph-name="six.onum" horiz-adv-x="606" 
d="M341 701q92 0 144 -39.5t52 -89.5q0 -39 -24.5 -62.5t-60.5 -23.5q-29 0 -48.5 16.5t-19.5 42.5q0 31 31 47q-24 32 -64 32q-54 0 -96 -60t-43 -158l7 -3q48 50 132 50q102 0 160 -61.5t58 -157.5q0 -115 -75.5 -179.5t-180.5 -64.5q-50 0 -96 17.5t-86.5 54.5
t-64.5 102.5t-24 151.5q0 162 86.5 273.5t212.5 111.5zM393 234q0 66 -23 97t-59 31q-58 0 -99 -72q0 -107 24.5 -157t78.5 -50q78 0 78 151z" />
    <glyph glyph-name="seven.onum" horiz-adv-x="554" 
d="M381 372l-10 15q-34 -15 -74 -15q-21 0 -52 6t-49 6q-86 0 -100 -104h-59l33 254h56l11 -22q51 22 98 22q36 0 87 -18t85 -18q50 0 111 41l45 -73q-64 -69 -102 -119t-70.5 -114t-48.5 -139t-22 -177q-1 -23 -3.5 -35t-10.5 -26t-25 -20t-45 -6q-99 0 -90 90
q19 129 78.5 235.5t156.5 216.5z" />
    <glyph glyph-name="eight.onum" horiz-adv-x="585" 
d="M418 380v-7q134 -49 134 -176q0 -91 -79.5 -149t-190.5 -58q-108 0 -178 46t-70 125q0 54 36 100.5t92 67.5v9q-107 68 -107 174q0 76 63.5 132.5t183.5 56.5q101 0 162 -45.5t61 -117.5q0 -52 -28.5 -89t-78.5 -69zM380 523q0 41 -25 68t-64 27q-40 0 -64.5 -24.5
t-24.5 -57.5q0 -79 131 -122q24 25 35.5 49t11.5 60zM402 173q0 82 -155 120q-29 -14 -48.5 -47.5t-18.5 -79.5t32 -69.5t82 -23.5q44 0 76 26t32 74z" />
    <glyph glyph-name="nine.onum" horiz-adv-x="606" 
d="M265 -177q-92 0 -144 36.5t-52 92.5q0 37 25 61.5t60 24.5q25 0 46.5 -16.5t21.5 -46.5q0 -25 -26 -50q16 -22 59 -22q62 0 103 69t42 161l-8 3q-18 -26 -50 -42.5t-67 -16.5q-111 0 -174 58t-63 150q0 117 78 183t187 66q50 0 95 -17.5t84.5 -54.5t63 -102.5
t23.5 -151.5q0 -162 -88 -273.5t-216 -111.5zM214 295q0 -71 21.5 -104t54.5 -33q76 0 110 86q0 102 -21.5 149.5t-68.5 47.5q-96 0 -96 -146z" />
    <glyph glyph-name="acute.case" horiz-adv-x="500" 
d="M180 488v18l86 119h124v-20l-139 -117h-71z" />
    <glyph glyph-name="grave.case" horiz-adv-x="500" 
d="M320 506v-18h-71l-139 117v20h124z" />
    <glyph glyph-name="circumflex.case" horiz-adv-x="500" 
d="M395 506v-18h-46l-99 58l-99 -58h-46v18l116 119h58z" />
    <glyph glyph-name="breve.case" horiz-adv-x="500" 
d="M248 488q-59 0 -99 34.5t-40 102.5h52q0 -24 24.5 -41t63.5 -17q37 0 62.5 16.5t25.5 41.5h52q0 -67 -41 -102t-100 -35z" />
    <glyph glyph-name="caron.case" horiz-adv-x="500" 
d="M395 625v-18l-116 -119h-58l-116 119v18h46l99 -58l99 58h46z" />
    <glyph glyph-name="hungarumlaut.case" horiz-adv-x="500" 
d="M114 488v18l86 119h119v-20l-139 -117h-66zM284 488v18l86 119h119v-20l-139 -117h-66z" />
    <glyph glyph-name="dollar.onum" horiz-adv-x="513" 
d="M150 56l-11 -41h-70l-5 210h61q10 -51 38 -88t67 -52v141q-76 26 -123.5 65t-47.5 103q0 63 48.5 102t117.5 39h5v74h55v-81q36 -11 66 -36l15 38h66l2 -193h-59q-32 93 -90 118v-125q7 -4 14 -5q76 -23 119.5 -60.5t43.5 -105.5q0 -67 -47.5 -110t-120.5 -43h-9v-82h-55
v90q-51 15 -80 42zM355 135q0 40 -70 71v-129q31 2 50.5 16.5t19.5 41.5zM177 413q0 -36 53 -62v114q-26 0 -39.5 -15.5t-13.5 -36.5z" />
    <glyph glyph-name="cent.onum" horiz-adv-x="372" 
d="M299 230h50q-5 -55 -40.5 -86.5t-88.5 -35.5v-76h-40v77q-63 8 -103.5 51t-40.5 117q0 70 40.5 119.5t103.5 61.5v75h40v-71q52 -2 89.5 -31t37.5 -72q0 -28 -17.5 -42.5t-43.5 -14.5q-35 0 -42 35l11 46q-14 16 -35 19v-221h10q27 0 46 14t23 35zM151 286q0 -67 29 -91
v193q-29 -29 -29 -102z" />
    <glyph glyph-name="sterling.onum" horiz-adv-x="509" 
d="M64 311h47q-20 43 -20 82q0 70 55 109.5t127 39.5q78 0 121.5 -32.5t43.5 -71.5q0 -22 -14.5 -35t-34.5 -13q-19 0 -34 9t-21.5 18t-16.5 27q-8 15 -12.5 22t-14.5 14t-23 7q-19 0 -32 -19.5t-13 -58.5q0 -32 22 -86q1 -4 5 -12h117v-52h-101q2 -16 2 -25q0 -74 -48 -116
l6 -8q15 11 30 11q17 0 32 -8t21 -13.5t20 -20.5q27 -29 48 -29q17 0 17 13q0 9 -14 27h1q-17 17 -17 34t14 30.5t37 13.5q31 0 49.5 -19.5t18.5 -55.5q0 -49 -38.5 -76t-90.5 -27q-100 0 -176 57q-43 -57 -95 -57q-21 0 -34 10.5t-13 27.5q0 47 102 73q13 35 13 87
q0 30 -17 71h-69v52z" />
    <glyph glyph-name="yen.onum" horiz-adv-x="525" 
d="M533 508v-45q-49 0 -88 -55q-48 -80 -110 -176h102v-47h-105v-40h105v-49h-105q1 -35 16.5 -42.5t65.5 -7.5v-46h-284v46q53 0 65.5 7.5t13.5 42.5h-104v49h104v40h-104v47h98q-19 28 -59.5 84.5t-58.5 83.5q-26 39 -43 51t-51 12v45h268v-45q-61 0 -61 -19q0 -7 14 -26
l84 -121l67 120q13 19 2.5 32t-43.5 14v45h211z" />
    <glyph glyph-name="Euro.onum" horiz-adv-x="555" 
d="M58 323h42q18 100 84 158.5t154 58.5q92 0 172 -54l-28 -116h-43q-6 65 -35.5 91.5t-65.5 26.5q-43 0 -74.5 -41.5t-40.5 -123.5h243l-10 -44h-236v-25v-8h226l-9 -45h-214q10 -76 45 -116.5t77 -40.5q83 0 113 89l49 -11q-45 -132 -179 -132q-89 0 -152.5 55t-78.5 156
h-48l9 45h36v7q0 17 1 26h-46z" />
    <glyph glyph-name="numbersign.onum" horiz-adv-x="439" 
d="M70 414l82 -10l36 161l64 -11l-35 -158l58 -8l39 177l65 -11l-38 -174l84 -10l-12 -66l-87 11l-23 -106l73 -9l-12 -65l-76 9l-39 -177l-64 11l38 174l-58 8l-42 -193l-65 11l42 190l-90 12l12 64l92 -12l23 106l-78 10zM202 330l-23 -106l58 -7l24 106z" />
    <glyph glyph-name="percent.onum" horiz-adv-x="464" 
d="M287 414q-18 0 -32 8q-6 -60 -42.5 -97t-83.5 -37q-43 0 -70 28.5t-27 74.5q0 59 41 102.5t89 43.5q29 0 52.5 -16t33.5 -42q13 -20 45 -20q27 0 58 18q17 55 54 55q12 0 21 -6.5t9 -19.5q0 -14 -12 -29.5t-27 -23.5l-152 -211l-180 -260l-45 31l186 253q15 23 47.5 73
t50.5 76q-4 -1 -16 -1zM212 94q0 60 41 103t89 43q42 0 68 -26t26 -70q0 -68 -38.5 -110t-85.5 -42q-44 0 -72 29t-28 73zM355 187q-22 0 -41.5 -36t-19.5 -78q0 -32 21 -32q24 0 44 27.5t20 82.5q0 36 -24 36zM176 483q-23 0 -43.5 -35t-20.5 -77q0 -34 24 -34q23 0 42 28
t19 81q0 37 -21 37z" />
    <glyph glyph-name="perthousand.onum" horiz-adv-x="698" 
d="M445 94q0 60 40.5 103t87.5 43q43 0 69.5 -26t26.5 -70q0 -68 -39 -110t-86 -42q-44 0 -71.5 29t-27.5 73zM589 187q-23 0 -43.5 -36t-20.5 -78q0 -15 6.5 -23.5t16.5 -8.5q23 0 42.5 28t19.5 82q0 36 -21 36zM287 414q-18 0 -32 8q-6 -60 -42.5 -97t-83.5 -37
q-43 0 -70 28.5t-27 74.5q0 59 41 102.5t89 43.5q29 0 52.5 -16t33.5 -42q13 -20 45 -20q27 0 58 18q17 55 54 55q12 0 21 -6.5t9 -19.5q0 -14 -12 -29.5t-27 -23.5l-152 -211l-180 -260l-45 31l186 253q15 23 47.5 73t50.5 76q-4 -1 -16 -1zM212 94q0 60 41 103t89 43
q42 0 68 -26t26 -70q0 -68 -38.5 -110t-85.5 -42q-44 0 -72 29t-28 73zM355 187q-22 0 -41.5 -36t-19.5 -78q0 -32 21 -32q24 0 44 27.5t20 82.5q0 36 -24 36zM176 483q-23 0 -43.5 -35t-20.5 -77q0 -34 24 -34q23 0 42 28t19 81q0 37 -21 37z" />
    <glyph glyph-name="ordfeminine.onum" horiz-adv-x="355" 
d="M308 447v-186q0 -19 42 -19v-33q-33 -31 -72 -31q-40 0 -60 40h-1q-40 -40 -100 -40q-41 0 -70.5 24t-29.5 64q0 47 25.5 71.5t78.5 35.5l82 18v58q0 33 -40 33q-25 0 -38 -9q19 -22 19 -42q0 -18 -15.5 -29t-37.5 -11q-24 0 -40.5 15t-16.5 40q0 43 39.5 70t111.5 27
q60 0 91.5 -26t31.5 -70zM203 266v75q-6 -2 -17.5 -4.5t-17.5 -4.5q-42 -12 -42 -49q0 -32 38 -32q20 0 39 15z" />
    <glyph glyph-name="ordmasculine.onum" horiz-adv-x="374" 
d="M19 358q0 83 48 134t120 51q71 0 119.5 -52t48.5 -133q0 -88 -47 -133.5t-121 -45.5q-73 0 -120.5 47.5t-47.5 131.5zM134 359q0 -66 13.5 -87.5t39.5 -21.5q24 0 37.5 21.5t13.5 87.5q0 69 -13.5 90.5t-37.5 21.5q-26 0 -39.5 -22.5t-13.5 -89.5z" />
    <glyph glyph-name="degree.onum" horiz-adv-x="367" 
d="M31 455q0 63 45 108t107 45q63 0 108 -45t45 -108q0 -62 -45 -106.5t-108 -44.5q-62 0 -107 45t-45 106zM117 455q0 -31 18 -52t47 -21q30 0 48 21t18 52q0 32 -18 54t-48 22q-29 0 -47 -22t-18 -54z" />
    <glyph glyph-name="zero.numr" horiz-adv-x="331" 
d="M324 501q0 -92 -45.5 -142t-113.5 -50q-69 0 -112.5 46.5t-43.5 145.5q0 95 44.5 148t111.5 53q68 0 113.5 -52.5t45.5 -148.5zM211 501q0 83 -11 113.5t-35 30.5q-23 0 -33 -31t-10 -113q0 -78 10.5 -107t32.5 -29q24 0 35 28t11 108z" />
    <glyph glyph-name="one.numr" horiz-adv-x="270" 
d="M11 631v46q22 -2 41 -2q54 0 107 18h37v-295q0 -22 15.5 -28t53.5 -6v-49h-246v49q37 0 52.5 7.5t15.5 26.5v219q-46 2 -76 14z" />
    <glyph glyph-name="two.numr" horiz-adv-x="320" 
d="M138 402l4 -6h82q24 0 29 41h58l-20 -122h-273l-13 46l22 19q31 25 47.5 40t48.5 47.5t48.5 65.5t16.5 64q0 53 -40 53q-28 0 -44 -29q36 -25 36 -50q0 -20 -17 -33t-43 -13q-29 0 -45.5 16.5t-16.5 42.5q0 52 43 85t98 33q64 0 102 -29t38 -80q0 -33 -29 -71.5
t-55.5 -60.5t-76.5 -59z" />
    <glyph glyph-name="three.numr" horiz-adv-x="312" 
d="M207 522l3 -5q38 -6 65 -28.5t27 -60.5q0 -57 -50 -88t-116 -31q-57 0 -94.5 21.5t-37.5 59.5q0 25 16 40t43 15q22 0 37.5 -11.5t15.5 -29.5q0 -22 -28 -39q11 -7 36 -7q28 0 47 16.5t19 51.5q0 54 -51 54q-20 0 -58 -13l-11 42q56 22 80.5 48t24.5 63t-34 37
q-17 0 -35 -14q24 -17 24 -38q0 -17 -15.5 -28.5t-37.5 -11.5q-26 0 -42 14t-16 36q0 41 41.5 64t94.5 23q60 0 98 -23.5t38 -63.5q0 -52 -84 -93z" />
    <glyph glyph-name="four.numr" horiz-adv-x="322" 
d="M12 424l-6 23l197 256l61 -8v-224h51v-47h-51v-20q0 -27 10 -33.5t40 -6.5v-49h-199v49q27 0 36.5 7t9.5 30v23h-149zM97 473l2 -2h62v86z" />
    <glyph glyph-name="five.numr" horiz-adv-x="316" 
d="M106 612l-6 -64q30 17 70 17q52 0 92 -29.5t40 -84.5q0 -63 -50 -102.5t-117 -39.5q-54 0 -92 22.5t-38 61.5q0 21 16.5 36.5t40.5 15.5q21 0 37 -10.5t16 -27.5q0 -21 -23 -34q12 -16 39 -16q26 0 43 21t17 61q0 75 -46 75q-31 0 -57 -31h-57l16 223q71 -21 128 -21
q51 0 108 21v-44q-50 -53 -138 -53q-19 0 -39 3z" />
    <glyph glyph-name="six.numr" horiz-adv-x="333" 
d="M188 702q55 0 86 -22t31 -50q0 -23 -16.5 -36.5t-39.5 -13.5q-20 0 -34 10t-14 25q0 16 18 26q-12 15 -26 15q-24 0 -43 -29t-22 -77q28 16 65 16q61 0 95 -34t34 -87q0 -63 -44 -99.5t-105 -36.5q-64 0 -111 44.5t-47 136.5q0 89 50 150.5t123 61.5zM206 445
q0 68 -34 68q-23 0 -45 -38l1 1q0 -58 10.5 -84.5t35.5 -26.5q32 0 32 80z" />
    <glyph glyph-name="seven.numr" horiz-adv-x="305" 
d="M202 611l-3 3q-18 -5 -35 -5q-13 0 -31 4q-12 3 -24 3q-37 0 -45 -57h-52l19 143h47l4 -8q21 8 48 8q24 0 52 -10q26 -10 42 -10q21 0 66 28l28 -46q-69 -75 -97 -134t-34 -167q-1 -18 -3.5 -26.5t-15 -16t-37.5 -7.5q-32 0 -47 13t-13 39q17 117 131 246z" />
    <glyph glyph-name="eight.numr" horiz-adv-x="322" 
d="M240 525v-4l-7 2q80 -29 80 -98q0 -50 -46.5 -83t-110.5 -33q-63 0 -104 26.5t-41 70.5q0 28 21.5 54t53.5 39l-6 -2v5l5 -2q-63 42 -63 97q0 42 37 73.5t108 31.5q59 0 95.5 -25.5t36.5 -65.5q0 -47 -64 -88zM199 603q0 21 -10.5 35.5t-27.5 14.5q-18 0 -28.5 -13
t-10.5 -30q0 -41 58 -62q19 19 19 55zM211 412q0 44 -73 62q-29 -17 -28 -66q1 -24 15.5 -36.5t37.5 -12.5q20 0 34 14t14 39z" />
    <glyph glyph-name="nine.numr" horiz-adv-x="333" 
d="M147 309q-55 0 -86 21t-31 52q0 22 16 36t40 14q17 0 32 -10t15 -27q0 -11 -16 -27q10 -10 24 -10q28 0 46.5 32t21.5 77q-24 -19 -57 -19q-64 0 -101.5 32.5t-37.5 83.5q0 65 45.5 101.5t109.5 36.5q62 0 108 -44t46 -136q0 -89 -51 -151t-124 -62zM129 569
q0 -72 32 -72t50 46l-1 -1q0 105 -38 105q-43 0 -43 -78z" />
    <glyph glyph-name="zero.dnom" horiz-adv-x="331" 
d="M324 146q0 -92 -45.5 -142t-113.5 -50q-69 0 -112.5 46.5t-43.5 145.5q0 95 44.5 148t111.5 53q68 0 113.5 -52.5t45.5 -148.5zM211 146q0 83 -11 113.5t-35 30.5q-23 0 -33 -31t-10 -113q0 -78 10.5 -107t32.5 -29q24 0 35 28t11 108z" />
    <glyph glyph-name="one.dnom" horiz-adv-x="270" 
d="M11 276v46q22 -2 41 -2q54 0 107 18h37v-295q0 -22 15.5 -28t53.5 -6v-49h-246v49q37 0 52.5 7.5t15.5 26.5v219q-46 2 -76 14z" />
    <glyph glyph-name="two.dnom" horiz-adv-x="320" 
d="M138 47l4 -6h82q24 0 29 41h58l-20 -122h-273l-13 46l22 19q31 25 47.5 40t48.5 47.5t48.5 65.5t16.5 64q0 53 -40 53q-28 0 -44 -29q36 -25 36 -50q0 -20 -17 -33t-43 -13q-29 0 -45.5 16.5t-16.5 42.5q0 52 43 85t98 33q64 0 102 -29t38 -80q0 -33 -29 -71.5
t-55.5 -60.5t-76.5 -59z" />
    <glyph glyph-name="three.dnom" horiz-adv-x="312" 
d="M207 167l3 -5q38 -6 65 -28.5t27 -60.5q0 -57 -50 -88t-116 -31q-57 0 -94.5 21.5t-37.5 59.5q0 25 16 40t43 15q22 0 37.5 -11.5t15.5 -29.5q0 -22 -28 -39q11 -7 36 -7q28 0 47 16.5t19 51.5q0 54 -51 54q-20 0 -58 -13l-11 42q56 22 80.5 48t24.5 63t-34 37
q-17 0 -35 -14q24 -17 24 -38q0 -17 -15.5 -28.5t-37.5 -11.5q-26 0 -42 14t-16 36q0 41 41.5 64t94.5 23q60 0 98 -23.5t38 -63.5q0 -52 -84 -93z" />
    <glyph glyph-name="four.dnom" horiz-adv-x="322" 
d="M12 69l-6 23l197 256l61 -8v-224h51v-47h-51v-20q0 -27 10 -33.5t40 -6.5v-49h-199v49q27 0 36.5 7t9.5 30v23h-149zM97 118l2 -2h62v86z" />
    <glyph glyph-name="five.dnom" horiz-adv-x="316" 
d="M106 257l-6 -64q30 17 70 17q52 0 92 -29.5t40 -84.5q0 -63 -50 -102.5t-117 -39.5q-54 0 -92 22.5t-38 61.5q0 21 16.5 36.5t40.5 15.5q21 0 37 -10.5t16 -27.5q0 -21 -23 -34q12 -16 39 -16q26 0 43 21t17 61q0 75 -46 75q-31 0 -57 -31h-57l16 223q71 -21 128 -21
q51 0 108 21v-44q-50 -53 -138 -53q-19 0 -39 3z" />
    <glyph glyph-name="six.dnom" horiz-adv-x="333" 
d="M188 347q55 0 86 -22t31 -50q0 -23 -16.5 -36.5t-39.5 -13.5q-20 0 -34 10t-14 25q0 16 18 26q-12 15 -26 15q-24 0 -43 -29t-22 -77q28 16 65 16q61 0 95 -34t34 -87q0 -63 -44 -99.5t-105 -36.5q-64 0 -111 44.5t-47 136.5q0 89 50 150.5t123 61.5zM206 90q0 68 -34 68
q-23 0 -45 -38l1 1q0 -58 10.5 -84.5t35.5 -26.5q32 0 32 80z" />
    <glyph glyph-name="seven.dnom" horiz-adv-x="305" 
d="M202 256l-3 3q-18 -5 -35 -5q-13 0 -31 4q-12 3 -24 3q-37 0 -45 -57h-52l19 143h47l4 -8q21 8 48 8q24 0 52 -10q26 -10 42 -10q21 0 66 28l28 -46q-69 -75 -97 -134t-34 -167q-1 -18 -3.5 -26.5t-15 -16t-37.5 -7.5q-32 0 -47 13t-13 39q17 117 131 246z" />
    <glyph glyph-name="eight.dnom" horiz-adv-x="322" 
d="M240 170v-4l-7 2q80 -29 80 -98q0 -50 -46.5 -83t-110.5 -33q-63 0 -104 26.5t-41 70.5q0 28 21.5 54t53.5 39l-6 -2v5l5 -2q-63 42 -63 97q0 42 37 73.5t108 31.5q59 0 95.5 -25.5t36.5 -65.5q0 -47 -64 -88zM199 248q0 21 -10.5 35.5t-27.5 14.5q-18 0 -28.5 -13
t-10.5 -30q0 -41 58 -62q19 19 19 55zM211 57q0 44 -73 62q-29 -17 -28 -66q1 -24 15.5 -36.5t37.5 -12.5q20 0 34 14t14 39z" />
    <glyph glyph-name="nine.dnom" horiz-adv-x="333" 
d="M147 -46q-55 0 -86 21t-31 52q0 22 16 36t40 14q17 0 32 -10t15 -27q0 -11 -16 -27q10 -10 24 -10q28 0 46.5 32t21.5 77q-24 -19 -57 -19q-64 0 -101.5 32.5t-37.5 83.5q0 65 45.5 101.5t109.5 36.5q62 0 108 -44t46 -136q0 -89 -51 -151t-124 -62zM129 214
q0 -72 32 -72t50 46l-1 -1q0 105 -38 105q-43 0 -43 -78z" />
    <glyph glyph-name="zero.subs" horiz-adv-x="331" 
d="M324 26q0 -92 -45.5 -142t-113.5 -50q-69 0 -112.5 46.5t-43.5 145.5q0 95 44.5 148t111.5 53q68 0 113.5 -52.5t45.5 -148.5zM211 26q0 83 -11 113.5t-35 30.5q-23 0 -33 -31t-10 -113q0 -78 10.5 -107t32.5 -29q24 0 35 28t11 108z" />
    <glyph glyph-name="one.subs" horiz-adv-x="270" 
d="M11 156v46q22 -2 41 -2q54 0 107 18h37v-295q0 -22 15.5 -28t53.5 -6v-49h-246v49q37 0 52.5 7.5t15.5 26.5v219q-46 2 -76 14z" />
    <glyph glyph-name="two.subs" horiz-adv-x="320" 
d="M138 -73l4 -6h82q24 0 29 41h58l-20 -122h-273l-13 46l22 19q31 25 47.5 40t48.5 47.5t48.5 65.5t16.5 64q0 53 -40 53q-28 0 -44 -29q36 -25 36 -50q0 -20 -17 -33t-43 -13q-29 0 -45.5 16.5t-16.5 42.5q0 52 43 85t98 33q64 0 102 -29t38 -80q0 -33 -29 -71.5
t-55.5 -60.5t-76.5 -59z" />
    <glyph glyph-name="three.subs" horiz-adv-x="312" 
d="M207 47l3 -5q38 -6 65 -28.5t27 -60.5q0 -57 -50 -88t-116 -31q-57 0 -94.5 21.5t-37.5 59.5q0 25 16 40t43 15q22 0 37.5 -11.5t15.5 -29.5q0 -22 -28 -39q11 -7 36 -7q28 0 47 16.5t19 51.5q0 54 -51 54q-20 0 -58 -13l-11 42q56 22 80.5 48t24.5 63t-34 37
q-17 0 -35 -14q24 -17 24 -38q0 -17 -15.5 -28.5t-37.5 -11.5q-26 0 -42 14t-16 36q0 41 41.5 64t94.5 23q60 0 98 -23.5t38 -63.5q0 -52 -84 -93z" />
    <glyph glyph-name="four.subs" horiz-adv-x="322" 
d="M12 -51l-6 23l197 256l61 -8v-224h51v-47h-51v-20q0 -27 10 -33.5t40 -6.5v-49h-199v49q27 0 36.5 7t9.5 30v23h-149zM97 -2l2 -2h62v86z" />
    <glyph glyph-name="five.subs" horiz-adv-x="316" 
d="M106 137l-6 -64q30 17 70 17q52 0 92 -29.5t40 -84.5q0 -63 -50 -102.5t-117 -39.5q-54 0 -92 22.5t-38 61.5q0 21 16.5 36.5t40.5 15.5q21 0 37 -10.5t16 -27.5q0 -21 -23 -34q12 -16 39 -16q26 0 43 21t17 61q0 75 -46 75q-31 0 -57 -31h-57l16 223q71 -21 128 -21
q51 0 108 21v-44q-50 -53 -138 -53q-19 0 -39 3z" />
    <glyph glyph-name="six.subs" horiz-adv-x="333" 
d="M188 227q55 0 86 -22t31 -50q0 -23 -16.5 -36.5t-39.5 -13.5q-20 0 -34 10t-14 25q0 16 18 26q-12 15 -26 15q-24 0 -43 -29t-22 -77q28 16 65 16q61 0 95 -34t34 -87q0 -63 -44 -99.5t-105 -36.5q-64 0 -111 44.5t-47 136.5q0 89 50 150.5t123 61.5zM206 -30
q0 68 -34 68q-23 0 -45 -38l1 1q0 -58 10.5 -84.5t35.5 -26.5q32 0 32 80z" />
    <glyph glyph-name="seven.subs" horiz-adv-x="305" 
d="M202 136l-3 3q-18 -5 -35 -5q-13 0 -31 4q-12 3 -24 3q-37 0 -45 -57h-52l19 143h47l4 -8q21 8 48 8q24 0 52 -10q26 -10 42 -10q21 0 66 28l28 -46q-69 -75 -97 -134t-34 -167q-1 -18 -3.5 -26.5t-15 -16t-37.5 -7.5q-32 0 -47 13t-13 39q17 117 131 246z" />
    <glyph glyph-name="eight.subs" horiz-adv-x="322" 
d="M240 50v-4l-7 2q80 -29 80 -98q0 -50 -46.5 -83t-110.5 -33q-63 0 -104 26.5t-41 70.5q0 28 21.5 54t53.5 39l-6 -2v5l5 -2q-63 42 -63 97q0 42 37 73.5t108 31.5q59 0 95.5 -25.5t36.5 -65.5q0 -47 -64 -88zM199 128q0 21 -10.5 35.5t-27.5 14.5q-18 0 -28.5 -13
t-10.5 -30q0 -41 58 -62q19 19 19 55zM211 -63q0 44 -73 62q-29 -17 -28 -66q1 -24 15.5 -36.5t37.5 -12.5q20 0 34 14t14 39z" />
    <glyph glyph-name="nine.subs" horiz-adv-x="333" 
d="M147 -166q-55 0 -86 21t-31 52q0 22 16 36t40 14q17 0 32 -10t15 -27q0 -11 -16 -27q10 -10 24 -10q28 0 46.5 32t21.5 77q-24 -19 -57 -19q-64 0 -101.5 32.5t-37.5 83.5q0 65 45.5 101.5t109.5 36.5q62 0 108 -44t46 -136q0 -89 -51 -151t-124 -62zM129 94
q0 -72 32 -72t50 46l-1 -1q0 105 -38 105q-43 0 -43 -78z" />
    <glyph glyph-name="uni2011.case" horiz-adv-x="318" 
d="M34 388h250v-113h-250v113z" />
    <glyph glyph-name="zero.onum.tnum" horiz-adv-x="574" 
d="M536 263q0 -128 -73 -200.5t-182 -72.5q-104 0 -173.5 70t-69.5 203q0 110 74 190.5t176 80.5q106 0 177 -71t71 -200zM378 263q0 184 -91 184q-46 0 -68.5 -52.5t-22.5 -131.5q0 -185 89 -185q46 0 69.5 48.5t23.5 136.5z" />
    <glyph glyph-name="one.onum.tnum" horiz-adv-x="574" 
d="M102 423v70q122 7 194 37h80v-407q0 -29 27 -42t89 -13v-68h-386v66q66 4 91.5 15t25.5 42v286z" />
    <glyph glyph-name="two.onum.tnum" horiz-adv-x="574" 
d="M238 129l3 -6h153q16 0 30 17.5t22 47.5h72l-32 -188h-423l-17 87q67 43 109.5 73t88.5 69.5t68 77t22 74.5q0 39 -20.5 57.5t-49.5 18.5q-53 0 -76 -42q19 -11 33 -29t14 -35q0 -33 -24.5 -53.5t-57.5 -20.5q-46 0 -70 26t-24 69q0 72 66.5 117t157.5 45q98 0 156 -38.5
t58 -105.5q0 -27 -14 -55t-29.5 -47t-50.5 -47t-52 -39.5t-61 -39.5t-52 -33z" />
    <glyph glyph-name="three.onum.tnum" horiz-adv-x="574" 
d="M371 209l4 -12q69 -8 118 -48.5t49 -113.5q0 -69 -43 -118.5t-105.5 -71t-135.5 -21.5q-97 0 -161 37.5t-64 105.5q0 43 24.5 70t65.5 27q34 0 56.5 -20t22.5 -52q0 -45 -48 -70q23 -18 81 -18t99.5 32t41.5 97q0 70 -57.5 92.5t-145.5 -6.5l-18 65q102 41 146.5 89
t44.5 115q0 71 -79 71q-48 0 -81 -30q42 -27 42 -67q0 -29 -22.5 -49t-55.5 -20q-40 0 -64.5 23.5t-24.5 62.5q0 73 71 114.5t159 41.5q102 0 166.5 -41.5t64.5 -113.5q0 -53 -43 -97.5t-108 -73.5z" />
    <glyph glyph-name="four.onum.tnum" horiz-adv-x="574" 
d="M17 33l-10 41l354 461l81 -10v-412h95v-80h-95v-40q0 -52 18.5 -64.5t75.5 -12.5v-82h-330v82q50 0 67 13t17 57v47h-273zM139 118l2 -5h149v191l-8 4z" />
    <glyph glyph-name="five.onum.tnum" horiz-adv-x="574" 
d="M168 245l8 -6q65 45 137 45q90 0 157 -53t67 -151q0 -114 -85 -185t-202 -71q-91 0 -155.5 39t-64.5 109q0 36 24.5 64t60.5 28q32 0 55.5 -18.5t23.5 -47.5q0 -41 -40 -62q26 -33 88 -33q56 0 92.5 39.5t36.5 115.5q0 70 -27.5 104.5t-76.5 34.5q-69 0 -116 -55h-75
l30 393q106 -30 209.5 -31t187.5 30v-73q-54 -57 -141.5 -78t-182.5 -1z" />
    <glyph glyph-name="six.onum.tnum" horiz-adv-x="574" 
d="M322 701q92 0 144 -39.5t52 -89.5q0 -39 -24.5 -62.5t-60.5 -23.5q-29 0 -48.5 16.5t-19.5 42.5q0 31 31 47q-24 32 -64 32q-54 0 -96 -60t-43 -158l7 -3q48 50 132 50q102 0 160 -61.5t58 -157.5q0 -115 -75.5 -179.5t-180.5 -64.5q-50 0 -96 17.5t-86.5 54.5
t-64.5 102.5t-24 151.5q0 162 86.5 273.5t212.5 111.5zM374 234q0 66 -23 97t-59 31q-58 0 -99 -72q0 -107 24.5 -157t78.5 -50q78 0 78 151z" />
    <glyph glyph-name="seven.onum.tnum" horiz-adv-x="574" 
d="M385 373l-10 15q-34 -15 -74 -15q-21 0 -52 6t-49 6q-86 0 -100 -104h-59l33 254h56l11 -22q51 22 98 22q36 0 87 -18t85 -18q50 0 111 41l45 -73q-64 -69 -102 -119t-70.5 -114t-48.5 -139t-22 -177q-1 -23 -3.5 -35t-10.5 -26t-25 -20t-45 -6q-99 0 -90 90
q19 129 78.5 235.5t156.5 216.5z" />
    <glyph glyph-name="eight.onum.tnum" horiz-adv-x="574" 
d="M412 380v-7q134 -49 134 -176q0 -91 -79.5 -149t-190.5 -58q-108 0 -178 46t-70 125q0 54 36 100.5t92 67.5v9q-107 68 -107 174q0 76 63.5 132.5t183.5 56.5q101 0 162 -45.5t61 -117.5q0 -52 -28.5 -89t-78.5 -69zM374 523q0 41 -25 68t-64 27q-40 0 -64.5 -24.5
t-24.5 -57.5q0 -79 131 -122q24 25 35.5 49t11.5 60zM396 173q0 82 -155 120q-29 -14 -48.5 -47.5t-18.5 -79.5t32 -69.5t82 -23.5q44 0 76 26t32 74z" />
    <glyph glyph-name="nine.onum.tnum" horiz-adv-x="574" 
d="M252 -176q-92 0 -144 36.5t-52 92.5q0 37 25 61.5t60 24.5q25 0 46.5 -16.5t21.5 -46.5q0 -25 -26 -50q17 -22 59 -22q62 0 103 69t42 161l-8 3q-18 -26 -50 -42.5t-67 -16.5q-111 0 -174 58t-63 150q0 117 78 183t187 66q50 0 95 -17.5t84.5 -54.5t63 -102.5
t23.5 -151.5q0 -162 -88 -273.5t-216 -111.5zM201 296q0 -71 21.5 -104t54.5 -33q76 0 110 86q0 102 -21.5 149.5t-68.5 47.5q-96 0 -96 -146z" />
    <glyph glyph-name="sidecaron.part" horiz-adv-x="500" 
d="M265 489v8l21 209h104v-10l-59 -207h-66z" />
    <glyph glyph-name="gcomma.part" horiz-adv-x="500" 
d="M317 542q0 -18 -17.5 -33t-44.5 -15q-35 0 -58 27.5t-23 71.5q0 77 117 135l24 -33q-52 -30 -52 -72q0 -20 27 -41t27 -40z" />
    <glyph glyph-name="Stroke.part" horiz-adv-x="430" 
d="M38 535h707v-70h-707v70z" />
    <glyph glyph-name="stroke.part" horiz-adv-x="430" 
d="M52 545h327v-60h-327v60z" />
    <glyph glyph-name="parenleft.case" horiz-adv-x="352" 
d="M344 -139l-44 -44q-281 220 -281 506q0 149 73 265.5t207 218.5l45 -49q-180 -179 -180 -435q0 -296 180 -462z" />
    <glyph glyph-name="parenright.case" horiz-adv-x="352" 
d="M52 -183l-44 44q180 166 180 462q0 256 -180 435l45 49q134 -102 207 -218.5t73 -265.5q0 -286 -281 -506z" />
    <glyph glyph-name="bracketleft.case" horiz-adv-x="335" 
d="M313 798v-84q-29 -5 -69.5 -5t-60.5 5v-800q17 4 62 4t74 -4v-88q-44 6 -130 6.5t-144 -5.5v970q58 -5 144 -5t124 6z" />
    <glyph glyph-name="bracketright.case" horiz-adv-x="335" 
d="M22 714v84q38 -6 124 -6t144 5v-970q-58 6 -144 5.5t-130 -6.5v88q29 4 74.5 4t61.5 -4v800q-20 -5 -60.5 -5t-69.5 5z" />
    <glyph glyph-name="braceleft.case" horiz-adv-x="435" 
d="M173 343v-16q59 -8 102.5 -51t43.5 -105q0 -25 -17.5 -84t-17.5 -94q0 -43 26 -66t90 -23v-72q-105 0 -165 17.5t-81.5 48t-21.5 80.5q0 35 21.5 98t21.5 93q0 60 -41 93t-107 33v76q63 0 105.5 36.5t42.5 85.5q0 33 -20.5 88.5t-20.5 86.5q0 71 59 100.5t201 29.5v-72
q-54 0 -82 -13t-28 -46q0 -37 17.5 -96.5t17.5 -82.5q0 -53 -42.5 -92t-103.5 -53z" />
    <glyph glyph-name="braceright.case" horiz-adv-x="435" 
d="M262 327v16q-61 14 -103.5 53t-42.5 92q0 23 17.5 82.5t17.5 96.5q0 33 -28 46t-82 13v72q143 0 201.5 -29.5t58.5 -100.5q0 -31 -20.5 -86.5t-20.5 -88.5q0 -49 42.5 -85.5t105.5 -36.5v-76q-66 0 -107 -33t-41 -93q0 -30 21.5 -93t21.5 -98q0 -50 -21.5 -80.5
t-81.5 -48t-165 -17.5v72q64 0 90 23t26 66q0 35 -17.5 94t-17.5 84q0 62 43.5 105t102.5 51z" />
    <glyph glyph-name="dotaccent.case" horiz-adv-x="500" 
d="M168 582q0 34 24.5 58.5t57.5 24.5q34 0 58.5 -24.5t24.5 -58.5q0 -33 -24.5 -57.5t-58.5 -24.5q-33 0 -57.5 24.5t-24.5 57.5z" />
    <glyph glyph-name="Iacute_Jacute" horiz-adv-x="922" 
d="M352 691v-86q-57 0 -69.5 -5.5t-12.5 -32.5v-438q0 -29 13.5 -36.5t68.5 -7.5v-85h-325v85q58 0 70.5 7t12.5 37v438q0 28 -13 34t-70 6v84h325zM119 740v18l86 119h124v-20l-139 -117h-71zM920 691v-84q-61 0 -79.5 -14t-18.5 -73v-325q0 -50 -15.5 -88t-38.5 -60
t-54.5 -36t-59.5 -18.5t-58 -4.5q-40 0 -74.5 8.5t-65 26.5t-48.5 51.5t-18 78.5q0 44 26.5 72.5t67.5 28.5q33 0 55 -18.5t22 -51.5q0 -14 -2.5 -25t-10 -21t-11 -14t-15.5 -13.5t-13 -10.5q16 -38 76 -38q42 0 60 25t18 82v350q0 60 -20.5 74t-91.5 14v84h369zM660 740v18
l86 119h124v-20l-139 -117h-71z" />
    <glyph glyph-name="iacute_jacute" horiz-adv-x="602" 
d="M392 -104v455q-1 39 -16 49.5t-55 10.5v75l121 9h92v-520q0 -100 -50.5 -150t-129.5 -50q-53 0 -86.5 24t-33.5 67q0 31 16 49.5t37 18.5q32 0 57 -28v-60q8 -9 19 -9q29 0 29 59zM223 99q0 -24 48 -24v-75h-246v75q32 0 44 5.5t12 19.5v261q0 32 -12.5 41t-48.5 9v75
l116 9h87v-396zM70 558v18l86 154h124v-20l-139 -152h-71zM381 558v18l86 154h124v-20l-139 -152h-71z" />
    <glyph glyph-name="idotaccent" horiz-adv-x="296" 
d="M223 99q0 -24 48 -24v-75h-246v75q32 0 44 5.5t12 19.5v261q0 32 -12.5 41t-48.5 9v75l116 9h87v-396zM49 654q0 37 27 62t69 25q39 0 65.5 -25t26.5 -62q0 -34 -26.5 -58.5t-65.5 -24.5q-42 0 -69 24t-27 59z" />
    <glyph glyph-name="acute.plk" horiz-adv-x="500" 
d="M210 508v18l36 154h114v-20l-89 -152h-61z" />
    <glyph glyph-name="acute.case.plk" horiz-adv-x="500" 
d="M215 488v18l36 119h114v-20l-89 -117h-61z" />
    <glyph glyph-name="Dotlessi" horiz-adv-x="379" 
d="M352 691v-86q-57 0 -69.5 -5.5t-12.5 -32.5v-438q0 -29 13.5 -36.5t68.5 -7.5v-85h-325v85q58 0 70.5 7t12.5 37v438q0 28 -13 34t-70 6v84h325z" />
    <glyph glyph-name="dotaccentlow" horiz-adv-x="500" 
d="M162 -153q0 36 26 62.5t61 26.5q36 0 62.5 -26.5t26.5 -62.5q0 -35 -26.5 -61t-62.5 -26q-35 0 -61 26t-26 61z" />
    <glyph glyph-name="acute.lchigh" horiz-adv-x="500" 
d="M180 488v18l86 119h124v-20l-139 -117h-71z" />
    <glyph glyph-name="zero.onum" horiz-adv-x="594" 
d="M556 263q0 -128 -76 -200.5t-189 -72.5q-109 0 -181 70t-72 203q0 110 77 190.5t183 80.5q110 0 184 -71t74 -200zM392 263q0 184 -95 184q-48 0 -71.5 -52.5t-23.5 -131.5q0 -185 93 -185q48 0 72.5 49t24.5 136z" />
    <glyph glyph-name="one.onum" horiz-adv-x="481" 
d="M55 423v70q122 7 194 37h80v-407q0 -29 27 -42t89 -13v-68h-386v66q66 4 91.5 15t25.5 42v286z" />
    <glyph glyph-name="two.onum" horiz-adv-x="556" 
d="M239 129l3 -6h153q16 0 30 17.5t22 47.5h72l-32 -188h-423l-17 87q67 43 109.5 73t88.5 69.5t68 77t22 74.5q0 39 -20.5 57.5t-49.5 18.5q-53 0 -76 -42q19 -11 33 -29t14 -35q0 -33 -24.5 -53.5t-57.5 -20.5q-46 0 -70 26t-24 69q0 72 66.5 117t157.5 45q98 0 156 -38.5
t58 -105.5q0 -27 -14 -55t-29.5 -47t-50.5 -47t-52 -39.5t-61 -39.5t-52 -33z" />
    <glyph glyph-name="hyphen.c2sc" horiz-adv-x="318" 
d="M34 298h250v-113h-250v113z" />
    <glyph glyph-name="endash.c2sc" horiz-adv-x="488" 
d="M44 298h400v-113h-400v113z" />
    <glyph glyph-name="emdash.c2sc" horiz-adv-x="1000" 
d="M92 281h816v-83h-816v83z" />
    <glyph glyph-name="twosevenths" 
d="M141 -8l241 370l223 353l50 -36l-234 -349l-231 -375zM126 393l4 -6h82q24 0 29 41h58l-20 -122h-273l-13 46l22 19q31 25 47.5 40t48.5 47.5t48.5 65.5t16.5 64q0 53 -40 53q-28 0 -44 -29q36 -25 36 -50q0 -20 -17 -33t-43 -13q-29 0 -45.5 16.5t-16.5 42.5q0 52 43 85
t98 33q64 0 102 -29t38 -80q0 -33 -29 -71.5t-55.5 -60.5t-76.5 -59zM638 286l-3 3q-18 -5 -35 -5q-13 0 -31 4q-12 3 -24 3q-37 0 -45 -57h-52l19 143h47l4 -8q21 8 48 8q24 0 52 -10q26 -10 42 -10q21 0 66 28l28 -46q-69 -75 -97 -134t-34 -167q-1 -18 -3.5 -26.5
t-15 -16t-37.5 -7.5q-32 0 -47 13t-13 39q17 117 131 246z" />
    <glyph glyph-name="twoninths" 
d="M141 -8l241 370l223 353l50 -36l-234 -349l-231 -375zM126 393l4 -6h82q24 0 29 41h58l-20 -122h-273l-13 46l22 19q31 25 47.5 40t48.5 47.5t48.5 65.5t16.5 64q0 53 -40 53q-28 0 -44 -29q36 -25 36 -50q0 -20 -17 -33t-43 -13q-29 0 -45.5 16.5t-16.5 42.5q0 52 43 85
t98 33q64 0 102 -29t38 -80q0 -33 -29 -71.5t-55.5 -60.5t-76.5 -59zM583 -16q-55 0 -86 21t-31 52q0 22 16 36t40 14q17 0 32 -10t15 -27q0 -11 -16 -27q10 -10 24 -10q28 0 46.5 32t21.5 77q-24 -19 -57 -19q-64 0 -101.5 32.5t-37.5 83.5q0 65 45.5 101.5t109.5 36.5
q62 0 108 -44t46 -136q0 -89 -51 -151t-124 -62zM565 244q0 -72 32 -72t50 46l-1 -1q0 105 -38 105q-43 0 -43 -78z" />
    <glyph glyph-name="threesevenths" 
d="M141 -8l241 370l223 353l50 -36l-234 -349l-231 -375zM237 513l3 -5q38 -6 65 -28.5t27 -60.5q0 -57 -50 -88t-116 -31q-57 0 -94.5 21.5t-37.5 59.5q0 25 16 40t43 15q22 0 37.5 -11.5t15.5 -29.5q0 -22 -28 -39q11 -7 36 -7q28 0 47 16.5t19 51.5q0 54 -51 54
q-20 0 -58 -13l-11 42q56 22 80.5 48t24.5 63t-34 37q-17 0 -35 -14q24 -17 24 -38q0 -17 -15.5 -28.5t-37.5 -11.5q-26 0 -42 14t-16 36q0 41 41.5 64t94.5 23q60 0 98 -23.5t38 -63.5q0 -52 -84 -93zM638 286l-3 3q-18 -5 -35 -5q-13 0 -31 4q-12 3 -24 3q-37 0 -45 -57
h-52l19 143h47l4 -8q21 8 48 8q24 0 52 -10q26 -10 42 -10q21 0 66 28l28 -46q-69 -75 -97 -134t-34 -167q-1 -18 -3.5 -26.5t-15 -16t-37.5 -7.5q-32 0 -47 13t-13 39q17 117 131 246z" />
    <glyph glyph-name="foursevenths" 
d="M141 -8l241 370l223 353l50 -36l-234 -349l-231 -375zM-2 415l-6 23l197 256l61 -8v-224h51v-47h-51v-20q0 -27 10 -33.5t40 -6.5v-49h-199v49q27 0 36.5 7t9.5 30v23h-149zM83 464l2 -2h62v86zM638 286l-3 3q-18 -5 -35 -5q-13 0 -31 4q-12 3 -24 3q-37 0 -45 -57h-52
l19 143h47l4 -8q21 8 48 8q24 0 52 -10q26 -10 42 -10q21 0 66 28l28 -46q-69 -75 -97 -134t-34 -167q-1 -18 -3.5 -26.5t-15 -16t-37.5 -7.5q-32 0 -47 13t-13 39q17 117 131 246z" />
    <glyph glyph-name="fourninths" 
d="M141 -8l241 370l223 353l50 -36l-234 -349l-231 -375zM-2 415l-6 23l197 256l61 -8v-224h51v-47h-51v-20q0 -27 10 -33.5t40 -6.5v-49h-199v49q27 0 36.5 7t9.5 30v23h-149zM83 464l2 -2h62v86zM583 -16q-55 0 -86 21t-31 52q0 22 16 36t40 14q17 0 32 -10t15 -27
q0 -11 -16 -27q10 -10 24 -10q28 0 46.5 32t21.5 77q-24 -19 -57 -19q-64 0 -101.5 32.5t-37.5 83.5q0 65 45.5 101.5t109.5 36.5q62 0 108 -44t46 -136q0 -89 -51 -151t-124 -62zM565 244q0 -72 32 -72t50 46l-1 -1q0 105 -38 105q-43 0 -43 -78z" />
    <glyph glyph-name="fivesevenths" 
d="M141 -8l241 370l223 353l50 -36l-234 -349l-231 -375zM132 603l-6 -64q30 17 70 17q52 0 92 -29.5t40 -84.5q0 -63 -50 -102.5t-117 -39.5q-54 0 -92 22.5t-38 61.5q0 21 16.5 36.5t40.5 15.5q21 0 37 -10.5t16 -27.5q0 -21 -23 -34q12 -16 39 -16q26 0 43 21t17 61
q0 75 -46 75q-31 0 -57 -31h-57l16 223q70 -21 128 -21q51 0 108 21v-44q-50 -53 -138 -53q-19 0 -39 3zM638 286l-3 3q-18 -5 -35 -5q-13 0 -31 4q-12 3 -24 3q-37 0 -45 -57h-52l19 143h47l4 -8q21 8 48 8q24 0 52 -10q26 -10 42 -10q21 0 66 28l28 -46q-69 -75 -97 -134
t-34 -167q-1 -18 -3.5 -26.5t-15 -16t-37.5 -7.5q-32 0 -47 13t-13 39q17 117 131 246z" />
    <glyph glyph-name="fiveninths" 
d="M141 -8l241 370l223 353l50 -36l-234 -349l-231 -375zM132 603l-6 -64q30 17 70 17q52 0 92 -29.5t40 -84.5q0 -63 -50 -102.5t-117 -39.5q-54 0 -92 22.5t-38 61.5q0 21 16.5 36.5t40.5 15.5q21 0 37 -10.5t16 -27.5q0 -21 -23 -34q12 -16 39 -16q26 0 43 21t17 61
q0 75 -46 75q-31 0 -57 -31h-57l16 223q70 -21 128 -21q51 0 108 21v-44q-50 -53 -138 -53q-19 0 -39 3zM583 -16q-55 0 -86 21t-31 52q0 22 16 36t40 14q17 0 32 -10t15 -27q0 -11 -16 -27q10 -10 24 -10q28 0 46.5 32t21.5 77q-24 -19 -57 -19q-64 0 -101.5 32.5
t-37.5 83.5q0 65 45.5 101.5t109.5 36.5q62 0 108 -44t46 -136q0 -89 -51 -151t-124 -62zM565 244q0 -72 32 -72t50 46l-1 -1q0 105 -38 105q-43 0 -43 -78z" />
    <glyph glyph-name="sixsevenths" 
d="M141 -8l241 370l223 353l50 -36l-234 -349l-231 -375zM183 693q55 0 86 -22t31 -50q0 -23 -16.5 -36.5t-39.5 -13.5q-20 0 -34 10t-14 25q0 16 18 26q-12 15 -26 15q-24 0 -43 -29t-22 -77q28 16 65 16q61 0 95 -34t34 -87q0 -63 -44 -99.5t-105 -36.5q-64 0 -111 44.5
t-47 136.5q0 89 50 150.5t123 61.5zM201 436q0 68 -34 68q-23 0 -45 -38l1 1q0 -58 10.5 -84.5t35.5 -26.5q32 0 32 80zM638 286l-3 3q-18 -5 -35 -5q-13 0 -31 4q-12 3 -24 3q-37 0 -45 -57h-52l19 143h47l4 -8q21 8 48 8q24 0 52 -10q26 -10 42 -10q21 0 66 28l28 -46
q-69 -75 -97 -134t-34 -167q-1 -18 -3.5 -26.5t-15 -16t-37.5 -7.5q-32 0 -47 13t-13 39q17 117 131 246z" />
    <glyph glyph-name="sevenninths" 
d="M141 -8l241 370l223 353l50 -36l-234 -349l-231 -375zM245 602l-3 3q-18 -5 -35 -5q-13 0 -31 4q-12 3 -24 3q-37 0 -45 -57h-52l19 143h47l4 -8q21 8 48 8q24 0 52 -10q26 -10 42 -10q21 0 66 28l28 -46q-69 -75 -97 -134t-34 -167q-1 -18 -3.5 -26.5t-15 -16
t-37.5 -7.5q-32 0 -47 13t-13 39q17 117 131 246zM583 -16q-55 0 -86 21t-31 52q0 22 16 36t40 14q17 0 32 -10t15 -27q0 -11 -16 -27q10 -10 24 -10q28 0 46.5 32t21.5 77q-24 -19 -57 -19q-64 0 -101.5 32.5t-37.5 83.5q0 65 45.5 101.5t109.5 36.5q62 0 108 -44t46 -136
q0 -89 -51 -151t-124 -62zM565 244q0 -72 32 -72t50 46l-1 -1q0 105 -38 105q-43 0 -43 -78z" />
    <glyph glyph-name="eightninths" 
d="M141 -8l241 370l223 353l50 -36l-234 -349l-231 -375zM246 516v-4l-7 2q80 -29 80 -98q0 -50 -46.5 -83t-110.5 -33q-63 0 -104 26.5t-41 70.5q0 28 21.5 54t53.5 39l-6 -2v5l5 -2q-63 42 -63 97q0 42 37 73.5t108 31.5q59 0 95.5 -25.5t36.5 -65.5q0 -47 -64 -88z
M205 594q0 21 -10.5 35.5t-27.5 14.5q-18 0 -28.5 -13t-10.5 -30q0 -41 58 -62q19 19 19 55zM217 403q0 44 -73 62q-29 -17 -28 -66q1 -24 15.5 -36.5t37.5 -12.5q20 0 34 14t14 39zM583 -16q-55 0 -86 21t-31 52q0 22 16 36t40 14q17 0 32 -10t15 -27q0 -11 -16 -27
q10 -10 24 -10q28 0 46.5 32t21.5 77q-24 -19 -57 -19q-64 0 -101.5 32.5t-37.5 83.5q0 65 45.5 101.5t109.5 36.5q62 0 108 -44t46 -136q0 -89 -51 -151t-124 -62zM565 244q0 -72 32 -72t50 46l-1 -1q0 105 -38 105q-43 0 -43 -78z" />
    <glyph glyph-name="Cacute.plk" horiz-adv-x="684" 
d="M539 651l5 1l27 38h46l4 -265h-62q-14 75 -54.5 128t-105.5 53q-90 0 -136 -71.5t-46 -191.5q0 -124 50 -191.5t143 -67.5q59 0 98.5 38t49.5 113h75v-3q-12 -117 -83.5 -180.5t-173.5 -63.5q-152 0 -243 96.5t-91 260.5q0 152 96 254t244 102q48 0 93.5 -15t63.5 -35z
M343 740v18l36 119h114v-20l-89 -117h-61z" />
    <glyph glyph-name="Nacute.plk" horiz-adv-x="752" 
d="M207 473h-4v-336q0 -33 23.5 -42.5t80.5 -9.5v-85h-286v85q43 0 64.5 10t21.5 42v424q-36 46 -86 46v84h213l325 -433h4v299q0 26 -27 37.5t-89 11.5v85h284v-85q-46 0 -61.5 -11.5t-15.5 -37.5v-565h-85zM348 740v18l36 119h114v-20l-89 -117h-61z" />
    <glyph glyph-name="Oacute.plk" horiz-adv-x="751" 
d="M709 345q0 -167 -96 -262t-237 -95q-145 0 -239.5 95t-94.5 262q0 170 94 263t240 93q92 0 166 -38t120.5 -120t46.5 -198zM534 345q0 261 -158 261q-159 0 -159 -261t159 -261q80 0 119 70t39 191zM341 740v18l36 119h114v-20l-89 -117h-61z" />
    <glyph glyph-name="Sacute.plk" horiz-adv-x="586" 
d="M154 59l-15 -62h-84l-7 291h74q17 -92 72.5 -149.5t126.5 -57.5q46 0 75 19t29 54q0 43 -37 71.5t-109 53.5q-39 14 -68.5 27t-63 34.5t-55.5 45.5t-36.5 58t-14.5 74q0 82 62.5 132.5t151.5 50.5q96 0 165 -64l2 2l-2 -1l20 57h79l2 -263h-71q-29 93 -74.5 135
t-114.5 42q-36 0 -54.5 -19t-18.5 -45q0 -20 9.5 -37.5t21.5 -28.5t38 -23.5t42 -19t50 -18.5q47 -16 80.5 -33t65 -44t48 -66t16.5 -89q0 -85 -61 -141.5t-155 -56.5q-65 0 -113.5 22t-75.5 49zM244 740v18l36 119h114v-20l-89 -117h-61z" />
    <glyph glyph-name="Zacute.plk" horiz-adv-x="636" 
d="M36 0v48l364 555l-3 4h-103q-60 0 -101.5 -61t-47.5 -140h-86l10 285h551v-46l-368 -556l2 -4h139q53 0 93 61.5t52 159.5h87l-24 -306h-565zM317 740v18l36 119h114v-20l-89 -117h-61z" />
    <glyph glyph-name="cacute.plk" horiz-adv-x="472" 
d="M386 163h64q-10 -79 -63.5 -126t-131.5 -47q-96 0 -160.5 64t-64.5 181t69.5 193.5t170.5 76.5q71 0 122 -45.5t51 -113.5q0 -46 -23 -72t-56 -26q-29 0 -50.5 19t-21.5 48q-1 44 49 66q-20 37 -64 37q-43 0 -69.5 -42t-26.5 -127q0 -93 29.5 -128.5t80.5 -35.5
q38 0 64 22.5t31 55.5zM222 558v18l36 154h114v-20l-89 -152h-61z" />
    <glyph glyph-name="nacute.plk" horiz-adv-x="555" 
d="M196 438h14q33 33 63 50t73 17q57 0 96.5 -41t39.5 -131v-236q0 -22 46 -22v-75h-226v75q38 0 38 27v237q0 27 -14.5 40t-32.5 13q-28 0 -73 -26v-265q0 -26 38 -26v-75h-231v75q50 0 50 27v252q0 28 -12.5 40t-42.5 12v80l134 9h31zM237 558v18l36 154h114v-20l-89 -152
h-61z" />
    <glyph glyph-name="oacute.plk" horiz-adv-x="519" 
d="M30 244q0 118 65.5 189.5t164.5 71.5q98 0 163.5 -73t65.5 -188q0 -126 -63.5 -190t-165.5 -64q-101 0 -165.5 67t-64.5 187zM181 245q0 -96 20.5 -127.5t58.5 -31.5q17 0 29 5t24 20t18.5 48.5t6.5 85.5q0 101 -20.5 132.5t-57.5 31.5q-24 0 -39.5 -10t-27.5 -48
t-12 -106zM219 558v18l36 154h114v-20l-89 -152h-61z" />
    <glyph glyph-name="sacute.plk" horiz-adv-x="444" 
d="M39 -2v193h64q10 -45 48 -76t93 -31q58 0 58 44q0 34 -60 54q-10 3 -43.5 13.5t-49.5 16.5t-43.5 20.5t-41.5 29.5t-25 40t-11 56q0 67 46 107t113 40q77 0 132 -38l15 30h62v-174h-60q-38 91 -127 91q-29 0 -45 -11t-16 -30q0 -33 91 -58q28 -8 36.5 -10t34.5 -11
t36.5 -16t29 -20.5t26 -28t14.5 -36t7 -46.5q0 -71 -45.5 -114t-120.5 -43q-73 0 -143 47l-10 -39h-65zM166 558v18l36 154h114v-20l-89 -152h-61z" />
    <glyph glyph-name="zacute.plk" horiz-adv-x="484" 
d="M212 88v-9h64q50 0 82 44.5t45 118.5h55l-14 -242h-423v38l247 374v7h-41q-102 0 -134 -154h-55l12 230h402v-42zM233 558v18l36 154h114v-20l-89 -152h-61z" />
    </font>
</defs>
</svg>
